<?xml version="1.0" encoding="utf-8"?>
<svg xmlns="http://www.w3.org/2000/svg" xmlns:xlink="http://www.w3.org/1999/xlink" width="600" height="400" viewBox="0 0 2400 1600">
<defs>
  <clipPath id="clip800">
    <rect x="0" y="0" width="2400" height="1600"/>
  </clipPath>
</defs>
<path clip-path="url(#clip800)" d="M0 1600 L2400 1600 L2400 0 L0 0  Z" fill="#ffffff" fill-rule="evenodd" fill-opacity="1"/>
<defs>
  <clipPath id="clip801">
    <rect x="480" y="0" width="1681" height="1600"/>
  </clipPath>
</defs>
<path clip-path="url(#clip800)" d="M279.866 1423.18 L2352.76 1423.18 L2352.76 47.2441 L279.866 47.2441  Z" fill="#ffffff" fill-rule="evenodd" fill-opacity="1"/>
<defs>
  <clipPath id="clip802">
    <rect x="279" y="47" width="2074" height="1377"/>
  </clipPath>
</defs>
<polyline clip-path="url(#clip802)" style="stroke:#000000; stroke-linecap:round; stroke-linejoin:round; stroke-width:2; stroke-opacity:0.1; fill:none" points="298.623,1423.18 298.623,47.2441 "/>
<polyline clip-path="url(#clip802)" style="stroke:#000000; stroke-linecap:round; stroke-linejoin:round; stroke-width:2; stroke-opacity:0.1; fill:none" points="697.717,1423.18 697.717,47.2441 "/>
<polyline clip-path="url(#clip802)" style="stroke:#000000; stroke-linecap:round; stroke-linejoin:round; stroke-width:2; stroke-opacity:0.1; fill:none" points="1096.81,1423.18 1096.81,47.2441 "/>
<polyline clip-path="url(#clip802)" style="stroke:#000000; stroke-linecap:round; stroke-linejoin:round; stroke-width:2; stroke-opacity:0.1; fill:none" points="1495.9,1423.18 1495.9,47.2441 "/>
<polyline clip-path="url(#clip802)" style="stroke:#000000; stroke-linecap:round; stroke-linejoin:round; stroke-width:2; stroke-opacity:0.1; fill:none" points="1895,1423.18 1895,47.2441 "/>
<polyline clip-path="url(#clip802)" style="stroke:#000000; stroke-linecap:round; stroke-linejoin:round; stroke-width:2; stroke-opacity:0.1; fill:none" points="2294.09,1423.18 2294.09,47.2441 "/>
<polyline clip-path="url(#clip800)" style="stroke:#000000; stroke-linecap:round; stroke-linejoin:round; stroke-width:4; stroke-opacity:1; fill:none" points="279.866,1423.18 2352.76,1423.18 "/>
<polyline clip-path="url(#clip800)" style="stroke:#000000; stroke-linecap:round; stroke-linejoin:round; stroke-width:4; stroke-opacity:1; fill:none" points="298.623,1423.18 298.623,1404.28 "/>
<polyline clip-path="url(#clip800)" style="stroke:#000000; stroke-linecap:round; stroke-linejoin:round; stroke-width:4; stroke-opacity:1; fill:none" points="697.717,1423.18 697.717,1404.28 "/>
<polyline clip-path="url(#clip800)" style="stroke:#000000; stroke-linecap:round; stroke-linejoin:round; stroke-width:4; stroke-opacity:1; fill:none" points="1096.81,1423.18 1096.81,1404.28 "/>
<polyline clip-path="url(#clip800)" style="stroke:#000000; stroke-linecap:round; stroke-linejoin:round; stroke-width:4; stroke-opacity:1; fill:none" points="1495.9,1423.18 1495.9,1404.28 "/>
<polyline clip-path="url(#clip800)" style="stroke:#000000; stroke-linecap:round; stroke-linejoin:round; stroke-width:4; stroke-opacity:1; fill:none" points="1895,1423.18 1895,1404.28 "/>
<polyline clip-path="url(#clip800)" style="stroke:#000000; stroke-linecap:round; stroke-linejoin:round; stroke-width:4; stroke-opacity:1; fill:none" points="2294.09,1423.18 2294.09,1404.28 "/>
<path clip-path="url(#clip800)" d="M298.623 1454.1 Q295.012 1454.1 293.184 1457.66 Q291.378 1461.2 291.378 1468.33 Q291.378 1475.44 293.184 1479.01 Q295.012 1482.55 298.623 1482.55 Q302.258 1482.55 304.063 1479.01 Q305.892 1475.44 305.892 1468.33 Q305.892 1461.2 304.063 1457.66 Q302.258 1454.1 298.623 1454.1 M298.623 1450.39 Q304.433 1450.39 307.489 1455 Q310.568 1459.58 310.568 1468.33 Q310.568 1477.06 307.489 1481.67 Q304.433 1486.25 298.623 1486.25 Q292.813 1486.25 289.734 1481.67 Q286.679 1477.06 286.679 1468.33 Q286.679 1459.58 289.734 1455 Q292.813 1450.39 298.623 1450.39 Z" fill="#000000" fill-rule="evenodd" fill-opacity="1" /><path clip-path="url(#clip800)" d="M657.323 1481.64 L664.962 1481.64 L664.962 1455.28 L656.652 1456.95 L656.652 1452.69 L664.916 1451.02 L669.592 1451.02 L669.592 1481.64 L677.23 1481.64 L677.23 1485.58 L657.323 1485.58 L657.323 1481.64 Z" fill="#000000" fill-rule="evenodd" fill-opacity="1" /><path clip-path="url(#clip800)" d="M696.675 1454.1 Q693.064 1454.1 691.235 1457.66 Q689.43 1461.2 689.43 1468.33 Q689.43 1475.44 691.235 1479.01 Q693.064 1482.55 696.675 1482.55 Q700.309 1482.55 702.115 1479.01 Q703.943 1475.44 703.943 1468.33 Q703.943 1461.2 702.115 1457.66 Q700.309 1454.1 696.675 1454.1 M696.675 1450.39 Q702.485 1450.39 705.541 1455 Q708.619 1459.58 708.619 1468.33 Q708.619 1477.06 705.541 1481.67 Q702.485 1486.25 696.675 1486.25 Q690.865 1486.25 687.786 1481.67 Q684.73 1477.06 684.73 1468.33 Q684.73 1459.58 687.786 1455 Q690.865 1450.39 696.675 1450.39 Z" fill="#000000" fill-rule="evenodd" fill-opacity="1" /><path clip-path="url(#clip800)" d="M726.837 1454.1 Q723.226 1454.1 721.397 1457.66 Q719.591 1461.2 719.591 1468.33 Q719.591 1475.44 721.397 1479.01 Q723.226 1482.55 726.837 1482.55 Q730.471 1482.55 732.277 1479.01 Q734.105 1475.44 734.105 1468.33 Q734.105 1461.2 732.277 1457.66 Q730.471 1454.1 726.837 1454.1 M726.837 1450.39 Q732.647 1450.39 735.702 1455 Q738.781 1459.58 738.781 1468.33 Q738.781 1477.06 735.702 1481.67 Q732.647 1486.25 726.837 1486.25 Q721.027 1486.25 717.948 1481.67 Q714.892 1477.06 714.892 1468.33 Q714.892 1459.58 717.948 1455 Q721.027 1450.39 726.837 1450.39 Z" fill="#000000" fill-rule="evenodd" fill-opacity="1" /><path clip-path="url(#clip800)" d="M1060.5 1481.64 L1076.82 1481.64 L1076.82 1485.58 L1054.88 1485.58 L1054.88 1481.64 Q1057.54 1478.89 1062.12 1474.26 Q1066.73 1469.61 1067.91 1468.27 Q1070.15 1465.74 1071.03 1464.01 Q1071.94 1462.25 1071.94 1460.56 Q1071.94 1457.8 1069.99 1456.07 Q1068.07 1454.33 1064.97 1454.33 Q1062.77 1454.33 1060.32 1455.09 Q1057.89 1455.86 1055.11 1457.41 L1055.11 1452.69 Q1057.93 1451.55 1060.39 1450.97 Q1062.84 1450.39 1064.88 1450.39 Q1070.25 1450.39 1073.44 1453.08 Q1076.64 1455.77 1076.64 1460.26 Q1076.64 1462.39 1075.83 1464.31 Q1075.04 1466.2 1072.93 1468.8 Q1072.35 1469.47 1069.25 1472.69 Q1066.15 1475.88 1060.5 1481.64 Z" fill="#000000" fill-rule="evenodd" fill-opacity="1" /><path clip-path="url(#clip800)" d="M1096.64 1454.1 Q1093.02 1454.1 1091.2 1457.66 Q1089.39 1461.2 1089.39 1468.33 Q1089.39 1475.44 1091.2 1479.01 Q1093.02 1482.55 1096.64 1482.55 Q1100.27 1482.55 1102.08 1479.01 Q1103.9 1475.44 1103.9 1468.33 Q1103.9 1461.2 1102.08 1457.66 Q1100.27 1454.1 1096.64 1454.1 M1096.64 1450.39 Q1102.45 1450.39 1105.5 1455 Q1108.58 1459.58 1108.58 1468.33 Q1108.58 1477.06 1105.5 1481.67 Q1102.45 1486.25 1096.64 1486.25 Q1090.83 1486.25 1087.75 1481.67 Q1084.69 1477.06 1084.69 1468.33 Q1084.69 1459.58 1087.75 1455 Q1090.83 1450.39 1096.64 1450.39 Z" fill="#000000" fill-rule="evenodd" fill-opacity="1" /><path clip-path="url(#clip800)" d="M1126.8 1454.1 Q1123.19 1454.1 1121.36 1457.66 Q1119.55 1461.2 1119.55 1468.33 Q1119.55 1475.44 1121.36 1479.01 Q1123.19 1482.55 1126.8 1482.55 Q1130.43 1482.55 1132.24 1479.01 Q1134.07 1475.44 1134.07 1468.33 Q1134.07 1461.2 1132.24 1457.66 Q1130.43 1454.1 1126.8 1454.1 M1126.8 1450.39 Q1132.61 1450.39 1135.66 1455 Q1138.74 1459.58 1138.74 1468.33 Q1138.74 1477.06 1135.66 1481.67 Q1132.61 1486.25 1126.8 1486.25 Q1120.99 1486.25 1117.91 1481.67 Q1114.85 1477.06 1114.85 1468.33 Q1114.85 1459.58 1117.91 1455 Q1120.99 1450.39 1126.8 1450.39 Z" fill="#000000" fill-rule="evenodd" fill-opacity="1" /><path clip-path="url(#clip800)" d="M1469.66 1466.95 Q1473.02 1467.66 1474.9 1469.93 Q1476.79 1472.2 1476.79 1475.53 Q1476.79 1480.65 1473.28 1483.45 Q1469.76 1486.25 1463.28 1486.25 Q1461.1 1486.25 1458.78 1485.81 Q1456.49 1485.39 1454.04 1484.54 L1454.04 1480.02 Q1455.98 1481.16 1458.3 1481.74 Q1460.61 1482.32 1463.14 1482.32 Q1467.53 1482.32 1469.83 1480.58 Q1472.14 1478.84 1472.14 1475.53 Q1472.14 1472.48 1469.99 1470.77 Q1467.86 1469.03 1464.04 1469.03 L1460.01 1469.03 L1460.01 1465.19 L1464.22 1465.19 Q1467.67 1465.19 1469.5 1463.82 Q1471.33 1462.43 1471.33 1459.84 Q1471.33 1457.18 1469.43 1455.77 Q1467.56 1454.33 1464.04 1454.33 Q1462.12 1454.33 1459.92 1454.75 Q1457.72 1455.16 1455.08 1456.04 L1455.08 1451.88 Q1457.74 1451.14 1460.06 1450.77 Q1462.4 1450.39 1464.46 1450.39 Q1469.78 1450.39 1472.88 1452.83 Q1475.98 1455.23 1475.98 1459.35 Q1475.98 1462.22 1474.34 1464.21 Q1472.7 1466.18 1469.66 1466.95 Z" fill="#000000" fill-rule="evenodd" fill-opacity="1" /><path clip-path="url(#clip800)" d="M1495.66 1454.1 Q1492.05 1454.1 1490.22 1457.66 Q1488.41 1461.2 1488.41 1468.33 Q1488.41 1475.44 1490.22 1479.01 Q1492.05 1482.55 1495.66 1482.55 Q1499.29 1482.55 1501.1 1479.01 Q1502.93 1475.44 1502.93 1468.33 Q1502.93 1461.2 1501.1 1457.66 Q1499.29 1454.1 1495.66 1454.1 M1495.66 1450.39 Q1501.47 1450.39 1504.53 1455 Q1507.6 1459.58 1507.6 1468.33 Q1507.6 1477.06 1504.53 1481.67 Q1501.47 1486.25 1495.66 1486.25 Q1489.85 1486.25 1486.77 1481.67 Q1483.72 1477.06 1483.72 1468.33 Q1483.72 1459.58 1486.77 1455 Q1489.85 1450.39 1495.66 1450.39 Z" fill="#000000" fill-rule="evenodd" fill-opacity="1" /><path clip-path="url(#clip800)" d="M1525.82 1454.1 Q1522.21 1454.1 1520.38 1457.66 Q1518.58 1461.2 1518.58 1468.33 Q1518.58 1475.44 1520.38 1479.01 Q1522.21 1482.55 1525.82 1482.55 Q1529.46 1482.55 1531.26 1479.01 Q1533.09 1475.44 1533.09 1468.33 Q1533.09 1461.2 1531.26 1457.66 Q1529.46 1454.1 1525.82 1454.1 M1525.82 1450.39 Q1531.63 1450.39 1534.69 1455 Q1537.77 1459.58 1537.77 1468.33 Q1537.77 1477.06 1534.69 1481.67 Q1531.63 1486.25 1525.82 1486.25 Q1520.01 1486.25 1516.93 1481.67 Q1513.88 1477.06 1513.88 1468.33 Q1513.88 1459.58 1516.93 1455 Q1520.01 1450.39 1525.82 1450.39 Z" fill="#000000" fill-rule="evenodd" fill-opacity="1" /><path clip-path="url(#clip800)" d="M1868.09 1455.09 L1856.28 1473.54 L1868.09 1473.54 L1868.09 1455.09 M1866.86 1451.02 L1872.74 1451.02 L1872.74 1473.54 L1877.67 1473.54 L1877.67 1477.43 L1872.74 1477.43 L1872.74 1485.58 L1868.09 1485.58 L1868.09 1477.43 L1852.48 1477.43 L1852.48 1472.92 L1866.86 1451.02 Z" fill="#000000" fill-rule="evenodd" fill-opacity="1" /><path clip-path="url(#clip800)" d="M1895.4 1454.1 Q1891.79 1454.1 1889.96 1457.66 Q1888.16 1461.2 1888.16 1468.33 Q1888.16 1475.44 1889.96 1479.01 Q1891.79 1482.55 1895.4 1482.55 Q1899.04 1482.55 1900.84 1479.01 Q1902.67 1475.44 1902.67 1468.33 Q1902.67 1461.2 1900.84 1457.66 Q1899.04 1454.1 1895.4 1454.1 M1895.4 1450.39 Q1901.21 1450.39 1904.27 1455 Q1907.35 1459.58 1907.35 1468.33 Q1907.35 1477.06 1904.27 1481.67 Q1901.21 1486.25 1895.4 1486.25 Q1889.59 1486.25 1886.51 1481.67 Q1883.46 1477.06 1883.46 1468.33 Q1883.46 1459.58 1886.51 1455 Q1889.59 1450.39 1895.4 1450.39 Z" fill="#000000" fill-rule="evenodd" fill-opacity="1" /><path clip-path="url(#clip800)" d="M1925.56 1454.1 Q1921.95 1454.1 1920.12 1457.66 Q1918.32 1461.2 1918.32 1468.33 Q1918.32 1475.44 1920.12 1479.01 Q1921.95 1482.55 1925.56 1482.55 Q1929.2 1482.55 1931 1479.01 Q1932.83 1475.44 1932.83 1468.33 Q1932.83 1461.2 1931 1457.66 Q1929.2 1454.1 1925.56 1454.1 M1925.56 1450.39 Q1931.37 1450.39 1934.43 1455 Q1937.51 1459.58 1937.51 1468.33 Q1937.51 1477.06 1934.43 1481.67 Q1931.37 1486.25 1925.56 1486.25 Q1919.75 1486.25 1916.67 1481.67 Q1913.62 1477.06 1913.62 1468.33 Q1913.62 1459.58 1916.67 1455 Q1919.75 1450.39 1925.56 1450.39 Z" fill="#000000" fill-rule="evenodd" fill-opacity="1" /><path clip-path="url(#clip800)" d="M2253.71 1451.02 L2272.06 1451.02 L2272.06 1454.96 L2257.99 1454.96 L2257.99 1463.43 Q2259.01 1463.08 2260.03 1462.92 Q2261.05 1462.73 2262.06 1462.73 Q2267.85 1462.73 2271.23 1465.9 Q2274.61 1469.08 2274.61 1474.49 Q2274.61 1480.07 2271.14 1483.17 Q2267.67 1486.25 2261.35 1486.25 Q2259.17 1486.25 2256.9 1485.88 Q2254.66 1485.51 2252.25 1484.77 L2252.25 1480.07 Q2254.33 1481.2 2256.55 1481.76 Q2258.78 1482.32 2261.25 1482.32 Q2265.26 1482.32 2267.6 1480.21 Q2269.93 1478.1 2269.93 1474.49 Q2269.93 1470.88 2267.6 1468.77 Q2265.26 1466.67 2261.25 1466.67 Q2259.38 1466.67 2257.5 1467.08 Q2255.65 1467.5 2253.71 1468.38 L2253.71 1451.02 Z" fill="#000000" fill-rule="evenodd" fill-opacity="1" /><path clip-path="url(#clip800)" d="M2293.82 1454.1 Q2290.21 1454.1 2288.38 1457.66 Q2286.58 1461.2 2286.58 1468.33 Q2286.58 1475.44 2288.38 1479.01 Q2290.21 1482.55 2293.82 1482.55 Q2297.46 1482.55 2299.26 1479.01 Q2301.09 1475.44 2301.09 1468.33 Q2301.09 1461.2 2299.26 1457.66 Q2297.46 1454.1 2293.82 1454.1 M2293.82 1450.39 Q2299.63 1450.39 2302.69 1455 Q2305.77 1459.58 2305.77 1468.33 Q2305.77 1477.06 2302.69 1481.67 Q2299.63 1486.25 2293.82 1486.25 Q2288.01 1486.25 2284.93 1481.67 Q2281.88 1477.06 2281.88 1468.33 Q2281.88 1459.58 2284.93 1455 Q2288.01 1450.39 2293.82 1450.39 Z" fill="#000000" fill-rule="evenodd" fill-opacity="1" /><path clip-path="url(#clip800)" d="M2323.98 1454.1 Q2320.37 1454.1 2318.55 1457.66 Q2316.74 1461.2 2316.74 1468.33 Q2316.74 1475.44 2318.55 1479.01 Q2320.37 1482.55 2323.98 1482.55 Q2327.62 1482.55 2329.42 1479.01 Q2331.25 1475.44 2331.25 1468.33 Q2331.25 1461.2 2329.42 1457.66 Q2327.62 1454.1 2323.98 1454.1 M2323.98 1450.39 Q2329.8 1450.39 2332.85 1455 Q2335.93 1459.58 2335.93 1468.33 Q2335.93 1477.06 2332.85 1481.67 Q2329.8 1486.25 2323.98 1486.25 Q2318.17 1486.25 2315.1 1481.67 Q2312.04 1477.06 2312.04 1468.33 Q2312.04 1459.58 2315.1 1455 Q2318.17 1450.39 2323.98 1450.39 Z" fill="#000000" fill-rule="evenodd" fill-opacity="1" /><path clip-path="url(#clip800)" d="M1298.33 1520.52 L1306.99 1520.52 L1328.06 1560.28 L1328.06 1520.52 L1334.29 1520.52 L1334.29 1568.04 L1325.64 1568.04 L1304.57 1528.29 L1304.57 1568.04 L1298.33 1568.04 L1298.33 1520.52 Z" fill="#000000" fill-rule="evenodd" fill-opacity="1" /><polyline clip-path="url(#clip802)" style="stroke:#000000; stroke-linecap:round; stroke-linejoin:round; stroke-width:2; stroke-opacity:0.1; fill:none" points="279.866,1327.86 2352.76,1327.86 "/>
<polyline clip-path="url(#clip802)" style="stroke:#000000; stroke-linecap:round; stroke-linejoin:round; stroke-width:2; stroke-opacity:0.1; fill:none" points="279.866,1017.44 2352.76,1017.44 "/>
<polyline clip-path="url(#clip802)" style="stroke:#000000; stroke-linecap:round; stroke-linejoin:round; stroke-width:2; stroke-opacity:0.1; fill:none" points="279.866,707.022 2352.76,707.022 "/>
<polyline clip-path="url(#clip802)" style="stroke:#000000; stroke-linecap:round; stroke-linejoin:round; stroke-width:2; stroke-opacity:0.1; fill:none" points="279.866,396.604 2352.76,396.604 "/>
<polyline clip-path="url(#clip802)" style="stroke:#000000; stroke-linecap:round; stroke-linejoin:round; stroke-width:2; stroke-opacity:0.1; fill:none" points="279.866,86.1857 2352.76,86.1857 "/>
<polyline clip-path="url(#clip800)" style="stroke:#000000; stroke-linecap:round; stroke-linejoin:round; stroke-width:4; stroke-opacity:1; fill:none" points="279.866,1423.18 279.866,47.2441 "/>
<polyline clip-path="url(#clip800)" style="stroke:#000000; stroke-linecap:round; stroke-linejoin:round; stroke-width:4; stroke-opacity:1; fill:none" points="279.866,1327.86 298.764,1327.86 "/>
<polyline clip-path="url(#clip800)" style="stroke:#000000; stroke-linecap:round; stroke-linejoin:round; stroke-width:4; stroke-opacity:1; fill:none" points="279.866,1017.44 298.764,1017.44 "/>
<polyline clip-path="url(#clip800)" style="stroke:#000000; stroke-linecap:round; stroke-linejoin:round; stroke-width:4; stroke-opacity:1; fill:none" points="279.866,707.022 298.764,707.022 "/>
<polyline clip-path="url(#clip800)" style="stroke:#000000; stroke-linecap:round; stroke-linejoin:round; stroke-width:4; stroke-opacity:1; fill:none" points="279.866,396.604 298.764,396.604 "/>
<polyline clip-path="url(#clip800)" style="stroke:#000000; stroke-linecap:round; stroke-linejoin:round; stroke-width:4; stroke-opacity:1; fill:none" points="279.866,86.1857 298.764,86.1857 "/>
<path clip-path="url(#clip800)" d="M126.205 1313.66 Q122.593 1313.66 120.765 1317.22 Q118.959 1320.76 118.959 1327.89 Q118.959 1335 120.765 1338.56 Q122.593 1342.11 126.205 1342.11 Q129.839 1342.11 131.644 1338.56 Q133.473 1335 133.473 1327.89 Q133.473 1320.76 131.644 1317.22 Q129.839 1313.66 126.205 1313.66 M126.205 1309.95 Q132.015 1309.95 135.07 1314.56 Q138.149 1319.14 138.149 1327.89 Q138.149 1336.62 135.07 1341.23 Q132.015 1345.81 126.205 1345.81 Q120.394 1345.81 117.316 1341.23 Q114.26 1336.62 114.26 1327.89 Q114.26 1319.14 117.316 1314.56 Q120.394 1309.95 126.205 1309.95 Z" fill="#000000" fill-rule="evenodd" fill-opacity="1" /><path clip-path="url(#clip800)" d="M146.366 1339.26 L151.251 1339.26 L151.251 1345.14 L146.366 1345.14 L146.366 1339.26 Z" fill="#000000" fill-rule="evenodd" fill-opacity="1" /><path clip-path="url(#clip800)" d="M161.575 1344.42 L161.575 1340.16 Q163.334 1341 165.14 1341.44 Q166.945 1341.87 168.681 1341.87 Q173.311 1341.87 175.741 1338.77 Q178.195 1335.65 178.542 1329.31 Q177.2 1331.3 175.139 1332.36 Q173.079 1333.43 170.579 1333.43 Q165.394 1333.43 162.362 1330.3 Q159.353 1327.15 159.353 1321.71 Q159.353 1316.39 162.501 1313.17 Q165.649 1309.95 170.88 1309.95 Q176.876 1309.95 180.024 1314.56 Q183.195 1319.14 183.195 1327.89 Q183.195 1336.06 179.306 1340.95 Q175.44 1345.81 168.889 1345.81 Q167.13 1345.81 165.325 1345.46 Q163.519 1345.12 161.575 1344.42 M170.88 1329.77 Q174.028 1329.77 175.857 1327.62 Q177.709 1325.46 177.709 1321.71 Q177.709 1317.99 175.857 1315.83 Q174.028 1313.66 170.88 1313.66 Q167.732 1313.66 165.88 1315.83 Q164.052 1317.99 164.052 1321.71 Q164.052 1325.46 165.88 1327.62 Q167.732 1329.77 170.88 1329.77 Z" fill="#000000" fill-rule="evenodd" fill-opacity="1" /><path clip-path="url(#clip800)" d="M191.737 1344.42 L191.737 1340.16 Q193.496 1341 195.301 1341.44 Q197.107 1341.87 198.843 1341.87 Q203.473 1341.87 205.903 1338.77 Q208.357 1335.65 208.704 1329.31 Q207.362 1331.3 205.301 1332.36 Q203.241 1333.43 200.741 1333.43 Q195.556 1333.43 192.524 1330.3 Q189.514 1327.15 189.514 1321.71 Q189.514 1316.39 192.663 1313.17 Q195.811 1309.95 201.042 1309.95 Q207.037 1309.95 210.186 1314.56 Q213.357 1319.14 213.357 1327.89 Q213.357 1336.06 209.468 1340.95 Q205.602 1345.81 199.051 1345.81 Q197.292 1345.81 195.487 1345.46 Q193.681 1345.12 191.737 1344.42 M201.042 1329.77 Q204.19 1329.77 206.019 1327.62 Q207.871 1325.46 207.871 1321.71 Q207.871 1317.99 206.019 1315.83 Q204.19 1313.66 201.042 1313.66 Q197.894 1313.66 196.042 1315.83 Q194.213 1317.99 194.213 1321.71 Q194.213 1325.46 196.042 1327.62 Q197.894 1329.77 201.042 1329.77 Z" fill="#000000" fill-rule="evenodd" fill-opacity="1" /><path clip-path="url(#clip800)" d="M232.338 1326 Q229.19 1326 227.338 1328.15 Q225.51 1330.3 225.51 1334.05 Q225.51 1337.78 227.338 1339.95 Q229.19 1342.11 232.338 1342.11 Q235.486 1342.11 237.315 1339.95 Q239.167 1337.78 239.167 1334.05 Q239.167 1330.3 237.315 1328.15 Q235.486 1326 232.338 1326 M241.621 1311.34 L241.621 1315.6 Q239.861 1314.77 238.056 1314.33 Q236.273 1313.89 234.514 1313.89 Q229.885 1313.89 227.431 1317.01 Q225 1320.14 224.653 1326.46 Q226.019 1324.44 228.079 1323.38 Q230.139 1322.29 232.616 1322.29 Q237.824 1322.29 240.834 1325.46 Q243.866 1328.61 243.866 1334.05 Q243.866 1339.37 240.718 1342.59 Q237.57 1345.81 232.338 1345.81 Q226.343 1345.81 223.172 1341.23 Q220 1336.62 220 1327.89 Q220 1319.7 223.889 1314.84 Q227.778 1309.95 234.329 1309.95 Q236.088 1309.95 237.871 1310.3 Q239.676 1310.65 241.621 1311.34 Z" fill="#000000" fill-rule="evenodd" fill-opacity="1" /><path clip-path="url(#clip800)" d="M127.269 1003.24 Q123.658 1003.24 121.83 1006.8 Q120.024 1010.35 120.024 1017.48 Q120.024 1024.58 121.83 1028.15 Q123.658 1031.69 127.269 1031.69 Q130.904 1031.69 132.709 1028.15 Q134.538 1024.58 134.538 1017.48 Q134.538 1010.35 132.709 1006.8 Q130.904 1003.24 127.269 1003.24 M127.269 999.535 Q133.08 999.535 136.135 1004.14 Q139.214 1008.73 139.214 1017.48 Q139.214 1026.2 136.135 1030.81 Q133.08 1035.39 127.269 1035.39 Q121.459 1035.39 118.381 1030.81 Q115.325 1026.2 115.325 1017.48 Q115.325 1008.73 118.381 1004.14 Q121.459 999.535 127.269 999.535 Z" fill="#000000" fill-rule="evenodd" fill-opacity="1" /><path clip-path="url(#clip800)" d="M147.431 1028.84 L152.316 1028.84 L152.316 1034.72 L147.431 1034.72 L147.431 1028.84 Z" fill="#000000" fill-rule="evenodd" fill-opacity="1" /><path clip-path="url(#clip800)" d="M162.64 1034 L162.64 1029.74 Q164.399 1030.58 166.204 1031.02 Q168.01 1031.46 169.746 1031.46 Q174.376 1031.46 176.806 1028.35 Q179.26 1025.23 179.607 1018.89 Q178.264 1020.88 176.204 1021.94 Q174.144 1023.01 171.644 1023.01 Q166.459 1023.01 163.427 1019.88 Q160.417 1016.73 160.417 1011.29 Q160.417 1005.97 163.565 1002.75 Q166.714 999.535 171.945 999.535 Q177.94 999.535 181.089 1004.14 Q184.26 1008.73 184.26 1017.48 Q184.26 1025.65 180.371 1030.53 Q176.505 1035.39 169.954 1035.39 Q168.195 1035.39 166.39 1035.04 Q164.584 1034.7 162.64 1034 M171.945 1019.35 Q175.093 1019.35 176.922 1017.2 Q178.774 1015.04 178.774 1011.29 Q178.774 1007.57 176.922 1005.42 Q175.093 1003.24 171.945 1003.24 Q168.797 1003.24 166.945 1005.42 Q165.116 1007.57 165.116 1011.29 Q165.116 1015.04 166.945 1017.2 Q168.797 1019.35 171.945 1019.35 Z" fill="#000000" fill-rule="evenodd" fill-opacity="1" /><path clip-path="url(#clip800)" d="M192.801 1034 L192.801 1029.74 Q194.561 1030.58 196.366 1031.02 Q198.172 1031.46 199.908 1031.46 Q204.537 1031.46 206.968 1028.35 Q209.422 1025.23 209.769 1018.89 Q208.426 1020.88 206.366 1021.94 Q204.306 1023.01 201.806 1023.01 Q196.621 1023.01 193.588 1019.88 Q190.579 1016.73 190.579 1011.29 Q190.579 1005.97 193.727 1002.75 Q196.875 999.535 202.107 999.535 Q208.102 999.535 211.25 1004.14 Q214.422 1008.73 214.422 1017.48 Q214.422 1025.65 210.533 1030.53 Q206.667 1035.39 200.116 1035.39 Q198.357 1035.39 196.551 1035.04 Q194.746 1034.7 192.801 1034 M202.107 1019.35 Q205.255 1019.35 207.084 1017.2 Q208.936 1015.04 208.936 1011.29 Q208.936 1007.57 207.084 1005.42 Q205.255 1003.24 202.107 1003.24 Q198.959 1003.24 197.107 1005.42 Q195.278 1007.57 195.278 1011.29 Q195.278 1015.04 197.107 1017.2 Q198.959 1019.35 202.107 1019.35 Z" fill="#000000" fill-rule="evenodd" fill-opacity="1" /><path clip-path="url(#clip800)" d="M221.644 1000.16 L243.866 1000.16 L243.866 1002.15 L231.32 1034.72 L226.435 1034.72 L238.241 1004.1 L221.644 1004.1 L221.644 1000.16 Z" fill="#000000" fill-rule="evenodd" fill-opacity="1" /><path clip-path="url(#clip800)" d="M126.459 692.821 Q122.848 692.821 121.019 696.386 Q119.214 699.927 119.214 707.057 Q119.214 714.163 121.019 717.728 Q122.848 721.27 126.459 721.27 Q130.093 721.27 131.899 717.728 Q133.728 714.163 133.728 707.057 Q133.728 699.927 131.899 696.386 Q130.093 692.821 126.459 692.821 M126.459 689.117 Q132.269 689.117 135.325 693.724 Q138.404 698.307 138.404 707.057 Q138.404 715.784 135.325 720.39 Q132.269 724.973 126.459 724.973 Q120.649 724.973 117.57 720.39 Q114.515 715.784 114.515 707.057 Q114.515 698.307 117.57 693.724 Q120.649 689.117 126.459 689.117 Z" fill="#000000" fill-rule="evenodd" fill-opacity="1" /><path clip-path="url(#clip800)" d="M146.621 718.423 L151.505 718.423 L151.505 724.302 L146.621 724.302 L146.621 718.423 Z" fill="#000000" fill-rule="evenodd" fill-opacity="1" /><path clip-path="url(#clip800)" d="M161.829 723.585 L161.829 719.325 Q163.589 720.159 165.394 720.599 Q167.2 721.038 168.936 721.038 Q173.565 721.038 175.996 717.936 Q178.45 714.812 178.797 708.469 Q177.454 710.46 175.394 711.524 Q173.334 712.589 170.834 712.589 Q165.649 712.589 162.616 709.464 Q159.607 706.316 159.607 700.876 Q159.607 695.552 162.755 692.335 Q165.903 689.117 171.135 689.117 Q177.13 689.117 180.278 693.724 Q183.45 698.307 183.45 707.057 Q183.45 715.228 179.561 720.112 Q175.695 724.973 169.144 724.973 Q167.385 724.973 165.579 724.626 Q163.774 724.279 161.829 723.585 M171.135 708.932 Q174.283 708.932 176.112 706.779 Q177.964 704.626 177.964 700.876 Q177.964 697.15 176.112 694.997 Q174.283 692.821 171.135 692.821 Q167.987 692.821 166.135 694.997 Q164.306 697.15 164.306 700.876 Q164.306 704.626 166.135 706.779 Q167.987 708.932 171.135 708.932 Z" fill="#000000" fill-rule="evenodd" fill-opacity="1" /><path clip-path="url(#clip800)" d="M191.991 723.585 L191.991 719.325 Q193.75 720.159 195.556 720.599 Q197.362 721.038 199.098 721.038 Q203.727 721.038 206.158 717.936 Q208.612 714.812 208.959 708.469 Q207.616 710.46 205.556 711.524 Q203.496 712.589 200.996 712.589 Q195.811 712.589 192.778 709.464 Q189.769 706.316 189.769 700.876 Q189.769 695.552 192.917 692.335 Q196.065 689.117 201.297 689.117 Q207.292 689.117 210.44 693.724 Q213.611 698.307 213.611 707.057 Q213.611 715.228 209.723 720.112 Q205.857 724.973 199.306 724.973 Q197.547 724.973 195.741 724.626 Q193.936 724.279 191.991 723.585 M201.297 708.932 Q204.445 708.932 206.274 706.779 Q208.125 704.626 208.125 700.876 Q208.125 697.15 206.274 694.997 Q204.445 692.821 201.297 692.821 Q198.149 692.821 196.297 694.997 Q194.468 697.15 194.468 700.876 Q194.468 704.626 196.297 706.779 Q198.149 708.932 201.297 708.932 Z" fill="#000000" fill-rule="evenodd" fill-opacity="1" /><path clip-path="url(#clip800)" d="M232.014 707.89 Q228.681 707.89 226.76 709.673 Q224.861 711.455 224.861 714.58 Q224.861 717.705 226.76 719.487 Q228.681 721.27 232.014 721.27 Q235.347 721.27 237.269 719.487 Q239.19 717.682 239.19 714.58 Q239.19 711.455 237.269 709.673 Q235.371 707.89 232.014 707.89 M227.338 705.9 Q224.329 705.159 222.639 703.099 Q220.973 701.038 220.973 698.075 Q220.973 693.932 223.912 691.525 Q226.875 689.117 232.014 689.117 Q237.176 689.117 240.116 691.525 Q243.056 693.932 243.056 698.075 Q243.056 701.038 241.366 703.099 Q239.699 705.159 236.713 705.9 Q240.093 706.687 241.968 708.978 Q243.866 711.27 243.866 714.58 Q243.866 719.603 240.787 722.288 Q237.732 724.973 232.014 724.973 Q226.297 724.973 223.218 722.288 Q220.162 719.603 220.162 714.58 Q220.162 711.27 222.061 708.978 Q223.959 706.687 227.338 705.9 M225.625 698.515 Q225.625 701.2 227.292 702.705 Q228.982 704.21 232.014 704.21 Q235.023 704.21 236.713 702.705 Q238.426 701.2 238.426 698.515 Q238.426 695.83 236.713 694.326 Q235.023 692.821 232.014 692.821 Q228.982 692.821 227.292 694.326 Q225.625 695.83 225.625 698.515 Z" fill="#000000" fill-rule="evenodd" fill-opacity="1" /><path clip-path="url(#clip800)" d="M126.552 382.403 Q122.941 382.403 121.112 385.967 Q119.306 389.509 119.306 396.639 Q119.306 403.745 121.112 407.31 Q122.941 410.852 126.552 410.852 Q130.186 410.852 131.992 407.31 Q133.82 403.745 133.82 396.639 Q133.82 389.509 131.992 385.967 Q130.186 382.403 126.552 382.403 M126.552 378.699 Q132.362 378.699 135.417 383.305 Q138.496 387.889 138.496 396.639 Q138.496 405.365 135.417 409.972 Q132.362 414.555 126.552 414.555 Q120.742 414.555 117.663 409.972 Q114.607 405.365 114.607 396.639 Q114.607 387.889 117.663 383.305 Q120.742 378.699 126.552 378.699 Z" fill="#000000" fill-rule="evenodd" fill-opacity="1" /><path clip-path="url(#clip800)" d="M146.714 408.004 L151.598 408.004 L151.598 413.884 L146.714 413.884 L146.714 408.004 Z" fill="#000000" fill-rule="evenodd" fill-opacity="1" /><path clip-path="url(#clip800)" d="M161.922 413.166 L161.922 408.907 Q163.681 409.74 165.487 410.18 Q167.292 410.62 169.028 410.62 Q173.658 410.62 176.089 407.518 Q178.542 404.393 178.889 398.051 Q177.547 400.041 175.487 401.106 Q173.427 402.171 170.927 402.171 Q165.741 402.171 162.709 399.046 Q159.7 395.898 159.7 390.458 Q159.7 385.134 162.848 381.917 Q165.996 378.699 171.227 378.699 Q177.223 378.699 180.371 383.305 Q183.542 387.889 183.542 396.639 Q183.542 404.81 179.653 409.694 Q175.788 414.555 169.237 414.555 Q167.477 414.555 165.672 414.208 Q163.866 413.861 161.922 413.166 M171.227 398.514 Q174.376 398.514 176.204 396.361 Q178.056 394.208 178.056 390.458 Q178.056 386.731 176.204 384.579 Q174.376 382.403 171.227 382.403 Q168.079 382.403 166.227 384.579 Q164.399 386.731 164.399 390.458 Q164.399 394.208 166.227 396.361 Q168.079 398.514 171.227 398.514 Z" fill="#000000" fill-rule="evenodd" fill-opacity="1" /><path clip-path="url(#clip800)" d="M192.084 413.166 L192.084 408.907 Q193.843 409.74 195.649 410.18 Q197.454 410.62 199.19 410.62 Q203.82 410.62 206.25 407.518 Q208.704 404.393 209.051 398.051 Q207.709 400.041 205.649 401.106 Q203.588 402.171 201.088 402.171 Q195.903 402.171 192.871 399.046 Q189.862 395.898 189.862 390.458 Q189.862 385.134 193.01 381.917 Q196.158 378.699 201.389 378.699 Q207.385 378.699 210.533 383.305 Q213.704 387.889 213.704 396.639 Q213.704 404.81 209.815 409.694 Q205.949 414.555 199.399 414.555 Q197.639 414.555 195.834 414.208 Q194.028 413.861 192.084 413.166 M201.389 398.514 Q204.537 398.514 206.366 396.361 Q208.218 394.208 208.218 390.458 Q208.218 386.731 206.366 384.579 Q204.537 382.403 201.389 382.403 Q198.241 382.403 196.389 384.579 Q194.561 386.731 194.561 390.458 Q194.561 394.208 196.389 396.361 Q198.241 398.514 201.389 398.514 Z" fill="#000000" fill-rule="evenodd" fill-opacity="1" /><path clip-path="url(#clip800)" d="M222.246 413.166 L222.246 408.907 Q224.005 409.74 225.81 410.18 Q227.616 410.62 229.352 410.62 Q233.982 410.62 236.412 407.518 Q238.866 404.393 239.213 398.051 Q237.871 400.041 235.81 401.106 Q233.75 402.171 231.25 402.171 Q226.065 402.171 223.033 399.046 Q220.023 395.898 220.023 390.458 Q220.023 385.134 223.172 381.917 Q226.32 378.699 231.551 378.699 Q237.547 378.699 240.695 383.305 Q243.866 387.889 243.866 396.639 Q243.866 404.81 239.977 409.694 Q236.111 414.555 229.56 414.555 Q227.801 414.555 225.996 414.208 Q224.19 413.861 222.246 413.166 M231.551 398.514 Q234.699 398.514 236.528 396.361 Q238.38 394.208 238.38 390.458 Q238.38 386.731 236.528 384.579 Q234.699 382.403 231.551 382.403 Q228.403 382.403 226.551 384.579 Q224.723 386.731 224.723 390.458 Q224.723 394.208 226.551 396.361 Q228.403 398.514 231.551 398.514 Z" fill="#000000" fill-rule="evenodd" fill-opacity="1" /><path clip-path="url(#clip800)" d="M117.177 99.5305 L124.816 99.5305 L124.816 73.1649 L116.506 74.8316 L116.506 70.5723 L124.769 68.9057 L129.445 68.9057 L129.445 99.5305 L137.084 99.5305 L137.084 103.466 L117.177 103.466 L117.177 99.5305 Z" fill="#000000" fill-rule="evenodd" fill-opacity="1" /><path clip-path="url(#clip800)" d="M146.529 97.5861 L151.413 97.5861 L151.413 103.466 L146.529 103.466 L146.529 97.5861 Z" fill="#000000" fill-rule="evenodd" fill-opacity="1" /><path clip-path="url(#clip800)" d="M171.598 71.9844 Q167.987 71.9844 166.158 75.5492 Q164.352 79.0908 164.352 86.2204 Q164.352 93.3268 166.158 96.8916 Q167.987 100.433 171.598 100.433 Q175.232 100.433 177.038 96.8916 Q178.866 93.3268 178.866 86.2204 Q178.866 79.0908 177.038 75.5492 Q175.232 71.9844 171.598 71.9844 M171.598 68.2807 Q177.408 68.2807 180.464 72.8871 Q183.542 77.4704 183.542 86.2204 Q183.542 94.9472 180.464 99.5537 Q177.408 104.137 171.598 104.137 Q165.788 104.137 162.709 99.5537 Q159.653 94.9472 159.653 86.2204 Q159.653 77.4704 162.709 72.8871 Q165.788 68.2807 171.598 68.2807 Z" fill="#000000" fill-rule="evenodd" fill-opacity="1" /><path clip-path="url(#clip800)" d="M201.76 71.9844 Q198.149 71.9844 196.32 75.5492 Q194.514 79.0908 194.514 86.2204 Q194.514 93.3268 196.32 96.8916 Q198.149 100.433 201.76 100.433 Q205.394 100.433 207.199 96.8916 Q209.028 93.3268 209.028 86.2204 Q209.028 79.0908 207.199 75.5492 Q205.394 71.9844 201.76 71.9844 M201.76 68.2807 Q207.57 68.2807 210.625 72.8871 Q213.704 77.4704 213.704 86.2204 Q213.704 94.9472 210.625 99.5537 Q207.57 104.137 201.76 104.137 Q195.95 104.137 192.871 99.5537 Q189.815 94.9472 189.815 86.2204 Q189.815 77.4704 192.871 72.8871 Q195.95 68.2807 201.76 68.2807 Z" fill="#000000" fill-rule="evenodd" fill-opacity="1" /><path clip-path="url(#clip800)" d="M231.922 71.9844 Q228.31 71.9844 226.482 75.5492 Q224.676 79.0908 224.676 86.2204 Q224.676 93.3268 226.482 96.8916 Q228.31 100.433 231.922 100.433 Q235.556 100.433 237.361 96.8916 Q239.19 93.3268 239.19 86.2204 Q239.19 79.0908 237.361 75.5492 Q235.556 71.9844 231.922 71.9844 M231.922 68.2807 Q237.732 68.2807 240.787 72.8871 Q243.866 77.4704 243.866 86.2204 Q243.866 94.9472 240.787 99.5537 Q237.732 104.137 231.922 104.137 Q226.111 104.137 223.033 99.5537 Q219.977 94.9472 219.977 86.2204 Q219.977 77.4704 223.033 72.8871 Q226.111 68.2807 231.922 68.2807 Z" fill="#000000" fill-rule="evenodd" fill-opacity="1" /><path clip-path="url(#clip800)" d="M14.479 893.559 L14.479 887.702 L64.0042 887.702 L64.0042 893.559 L14.479 893.559 Z" fill="#000000" fill-rule="evenodd" fill-opacity="1" /><path clip-path="url(#clip800)" d="M46.0847 859.248 Q46.0847 866.346 47.7079 869.083 Q49.3312 871.82 53.2461 871.82 Q56.3653 871.82 58.2114 869.783 Q60.0256 867.714 60.0256 864.181 Q60.0256 859.311 56.5881 856.383 Q53.1188 853.423 47.3897 853.423 L46.0847 853.423 L46.0847 859.248 M43.6657 847.567 L64.0042 847.567 L64.0042 853.423 L58.5933 853.423 Q61.8398 855.428 63.3994 858.42 Q64.9272 861.412 64.9272 865.741 Q64.9272 871.215 61.8716 874.462 Q58.7843 877.676 53.6281 877.676 Q47.6125 877.676 44.5569 873.666 Q41.5014 869.624 41.5014 861.635 L41.5014 853.423 L40.9285 853.423 Q36.8862 853.423 34.6901 856.097 Q32.4621 858.739 32.4621 863.545 Q32.4621 866.6 33.1941 869.497 Q33.9262 872.393 35.3903 875.067 L29.9795 875.067 Q28.7381 871.852 28.1334 868.828 Q27.4968 865.804 27.4968 862.94 Q27.4968 855.206 31.5072 851.386 Q35.5176 847.567 43.6657 847.567 Z" fill="#000000" fill-rule="evenodd" fill-opacity="1" /><path clip-path="url(#clip800)" d="M35.1993 807.749 Q31.2526 805.553 29.3747 802.497 Q27.4968 799.442 27.4968 795.304 Q27.4968 789.734 31.4117 786.711 Q35.2948 783.687 42.4881 783.687 L64.0042 783.687 L64.0042 789.575 L42.679 789.575 Q37.5546 789.575 35.072 791.389 Q32.5894 793.204 32.5894 796.927 Q32.5894 801.479 35.6131 804.121 Q38.6368 806.763 43.8567 806.763 L64.0042 806.763 L64.0042 812.651 L42.679 812.651 Q37.5228 812.651 35.072 814.465 Q32.5894 816.279 32.5894 820.067 Q32.5894 824.555 35.6449 827.196 Q38.6686 829.838 43.8567 829.838 L64.0042 829.838 L64.0042 835.726 L28.3562 835.726 L28.3562 829.838 L33.8944 829.838 Q30.616 827.833 29.0564 825.032 Q27.4968 822.231 27.4968 818.38 Q27.4968 814.497 29.4702 811.791 Q31.4436 809.054 35.1993 807.749 Z" fill="#000000" fill-rule="evenodd" fill-opacity="1" /><path clip-path="url(#clip800)" d="M46.212 746.416 Q39.7508 746.416 36.0905 749.089 Q32.3984 751.731 32.3984 756.378 Q32.3984 761.025 36.0905 763.699 Q39.7508 766.34 46.212 766.34 Q52.6732 766.34 56.3653 763.699 Q60.0256 761.025 60.0256 756.378 Q60.0256 751.731 56.3653 749.089 Q52.6732 746.416 46.212 746.416 M33.7671 766.34 Q30.5842 764.494 29.0564 761.693 Q27.4968 758.861 27.4968 754.946 Q27.4968 748.453 32.6531 744.41 Q37.8093 740.336 46.212 740.336 Q54.6147 740.336 59.771 744.41 Q64.9272 748.453 64.9272 754.946 Q64.9272 758.861 63.3994 761.693 Q61.8398 764.494 58.657 766.34 L64.0042 766.34 L64.0042 772.229 L14.479 772.229 L14.479 766.34 L33.7671 766.34 Z" fill="#000000" fill-rule="evenodd" fill-opacity="1" /><path clip-path="url(#clip800)" d="M29.4065 687.183 L34.9447 687.183 Q33.6716 689.665 33.035 692.339 Q32.3984 695.013 32.3984 697.877 Q32.3984 702.238 33.7352 704.434 Q35.072 706.598 37.7456 706.598 Q39.7826 706.598 40.9603 705.039 Q42.1061 703.479 43.1565 698.768 L43.6021 696.763 Q44.9389 690.525 47.3897 687.915 Q49.8086 685.273 54.1691 685.273 Q59.1344 685.273 62.0308 689.22 Q64.9272 693.135 64.9272 700.01 Q64.9272 702.874 64.3543 705.993 Q63.8132 709.081 62.6992 712.518 L56.6518 712.518 Q58.3387 709.272 59.198 706.121 Q60.0256 702.97 60.0256 699.882 Q60.0256 695.745 58.6251 693.517 Q57.1929 691.289 54.6147 691.289 Q52.2276 691.289 50.9545 692.912 Q49.6813 694.503 48.5037 699.946 L48.0262 701.983 Q46.8804 707.426 44.5251 709.845 Q42.138 712.264 38.0002 712.264 Q32.9713 712.264 30.2341 708.699 Q27.4968 705.134 27.4968 698.577 Q27.4968 695.331 27.9743 692.466 Q28.4517 689.602 29.4065 687.183 Z" fill="#000000" fill-rule="evenodd" fill-opacity="1" /><path clip-path="url(#clip800)" d="M42.4881 646.315 L64.0042 646.315 L64.0042 652.171 L42.679 652.171 Q37.6183 652.171 35.1038 654.145 Q32.5894 656.118 32.5894 660.065 Q32.5894 664.807 35.6131 667.545 Q38.6368 670.282 43.8567 670.282 L64.0042 670.282 L64.0042 676.17 L14.479 676.17 L14.479 670.282 L33.8944 670.282 Q30.6797 668.181 29.0883 665.348 Q27.4968 662.484 27.4968 658.76 Q27.4968 652.617 31.3163 649.466 Q35.1038 646.315 42.4881 646.315 Z" fill="#000000" fill-rule="evenodd" fill-opacity="1" /><path clip-path="url(#clip800)" d="M28.3562 634.634 L28.3562 628.777 L64.0042 628.777 L64.0042 634.634 L28.3562 634.634 M14.479 634.634 L14.479 628.777 L21.895 628.777 L21.895 634.634 L14.479 634.634 Z" fill="#000000" fill-rule="evenodd" fill-opacity="1" /><path clip-path="url(#clip800)" d="M14.479 598.477 L19.3487 598.477 L19.3487 604.078 Q19.3487 607.229 20.6219 608.471 Q21.895 609.68 25.2052 609.68 L28.3562 609.68 L28.3562 600.036 L32.9077 600.036 L32.9077 609.68 L64.0042 609.68 L64.0042 615.569 L32.9077 615.569 L32.9077 621.17 L28.3562 621.17 L28.3562 615.569 L25.8736 615.569 Q19.9216 615.569 17.2162 612.799 Q14.479 610.03 14.479 604.015 L14.479 598.477 Z" fill="#000000" fill-rule="evenodd" fill-opacity="1" /><path clip-path="url(#clip800)" d="M18.2347 588.928 L28.3562 588.928 L28.3562 576.865 L32.9077 576.865 L32.9077 588.928 L52.2594 588.928 Q56.6199 588.928 57.8613 587.75 Q59.1026 586.541 59.1026 582.881 L59.1026 576.865 L64.0042 576.865 L64.0042 582.881 Q64.0042 589.66 61.4897 592.238 Q58.9434 594.816 52.2594 594.816 L32.9077 594.816 L32.9077 599.113 L28.3562 599.113 L28.3562 594.816 L18.2347 594.816 L18.2347 588.928 Z" fill="#000000" fill-rule="evenodd" fill-opacity="1" /><polyline clip-path="url(#clip802)" style="stroke:#009af9; stroke-linecap:round; stroke-linejoin:round; stroke-width:4; stroke-opacity:1; fill:none" points="338.533,86.1857 342.524,219.663 346.515,329.135 350.505,420.488 354.496,497.838 358.487,564.147 362.478,621.602 366.469,671.851 370.46,716.159 374.451,755.512 378.442,790.69 382.433,822.32 386.424,850.907 390.415,876.869 394.406,900.547 398.397,922.229 402.388,942.155 406.378,960.527 410.369,977.521 414.36,993.284 418.351,1007.94 422.342,1021.61 426.333,1034.39 430.324,1046.35 434.315,1057.58 438.306,1068.13 442.297,1078.08 446.288,1087.46 450.279,1096.33 454.27,1104.72 458.261,1112.68 462.252,1120.23 466.242,1127.4 470.233,1134.23 474.224,1140.74 478.215,1146.95 482.206,1152.87 486.197,1158.53 490.188,1163.95 494.179,1169.14 498.17,1174.11 502.161,1178.89 506.152,1183.47 510.143,1187.87 514.134,1192.1 518.125,1196.17 522.116,1200.1 526.106,1203.88 530.097,1207.52 534.088,1211.04 538.079,1214.44 542.07,1217.72 546.061,1220.89 550.052,1223.96 554.043,1226.92 558.034,1229.8 562.025,1232.58 566.016,1235.28 570.007,1237.9 573.998,1240.44 577.989,1242.9 581.979,1245.29 585.97,1247.61 589.961,1249.87 593.952,1252.07 597.943,1254.2 601.934,1256.28 605.925,1258.3 609.916,1260.27 613.907,1262.18 617.898,1264.05 621.889,1265.87 625.88,1267.64 629.871,1269.37 633.862,1271.06 637.853,1272.71 641.843,1274.32 645.834,1275.89 649.825,1277.42 653.816,1278.92 657.807,1280.38 661.798,1281.81 665.789,1283.21 669.78,1284.57 673.771,1285.91 677.762,1287.22 681.753,1288.5 685.744,1289.75 689.735,1290.98 693.726,1292.18 697.717,1293.36 701.707,1294.51 705.698,1295.64 709.689,1296.75 713.68,1297.84 717.671,1298.9 721.662,1299.94 725.653,1300.97 729.644,1301.97 733.635,1302.96 737.626,1303.92 741.617,1304.87 745.608,1305.8 749.599,1306.72 753.59,1307.62 757.58,1308.5 761.571,1309.37 765.562,1310.22 769.553,1311.06 773.544,1311.88 777.535,1312.69 781.526,1313.48 785.517,1314.26 789.508,1315.03 793.499,1315.79 797.49,1316.53 801.481,1317.26 805.472,1317.98 809.463,1318.69 813.454,1319.39 817.444,1320.07 821.435,1320.75 825.426,1321.41 829.417,1322.07 833.408,1322.71 837.399,1323.35 841.39,1323.97 845.381,1324.59 849.372,1325.19 853.363,1325.79 857.354,1326.38 861.345,1326.96 865.336,1327.53 869.327,1328.1 873.317,1328.65 877.308,1329.2 881.299,1329.74 885.29,1330.27 889.281,1330.8 893.272,1331.32 897.263,1331.83 901.254,1332.33 905.245,1332.83 909.236,1333.32 913.227,1333.81 917.218,1334.28 921.209,1334.76 925.2,1335.22 929.191,1335.68 933.181,1336.14 937.172,1336.58 941.163,1337.03 945.154,1337.46 949.145,1337.89 953.136,1338.32 957.127,1338.74 961.118,1339.16 965.109,1339.57 969.1,1339.97 973.091,1340.37 977.082,1340.77 981.073,1341.16 985.064,1341.55 989.055,1341.93 993.045,1342.3 997.036,1342.68 1001.03,1343.05 1005.02,1343.41 1009.01,1343.77 1013,1344.13 1016.99,1344.48 1020.98,1344.83 1024.97,1345.17 1028.96,1345.51 1032.95,1345.85 1036.95,1346.18 1040.94,1346.51 1044.93,1346.84 1048.92,1347.16 1052.91,1347.48 1056.9,1347.79 1060.89,1348.1 1064.88,1348.41 1068.87,1348.72 1072.86,1349.02 1076.86,1349.32 1080.85,1349.61 1084.84,1349.91 1088.83,1350.2 1092.82,1350.48 1096.81,1350.77 1100.8,1351.05 1104.79,1351.33 1108.78,1351.6 1112.77,1351.87 1116.76,1352.14 1120.76,1352.41 1124.75,1352.68 1128.74,1352.94 1132.73,1353.2 1136.72,1353.45 1140.71,1353.71 1144.7,1353.96 1148.69,1354.21 1152.68,1354.46 1156.67,1354.7 1160.66,1354.95 1164.66,1355.19 1168.65,1355.42 1172.64,1355.66 1176.63,1355.89 1180.62,1356.12 1184.61,1356.35 1188.6,1356.58 1192.59,1356.81 1196.58,1357.03 1200.57,1357.25 1204.56,1357.47 1208.56,1357.69 1212.55,1357.9 1216.54,1358.12 1220.53,1358.33 1224.52,1358.54 1228.51,1358.75 1232.5,1358.95 1236.49,1359.16 1240.48,1359.36 1244.47,1359.56 1248.47,1359.76 1252.46,1359.96 1256.45,1360.15 1260.44,1360.35 1264.43,1360.54 1268.42,1360.73 1272.41,1360.92 1276.4,1361.11 1280.39,1361.29 1284.38,1361.48 1288.37,1361.66 1292.37,1361.84 1296.36,1362.02 1300.35,1362.2 1304.34,1362.38 1308.33,1362.55 1312.32,1362.73 1316.31,1362.9 1320.3,1363.07 1324.29,1363.24 1328.28,1363.41 1332.27,1363.58 1336.27,1363.74 1340.26,1363.91 1344.25,1364.07 1348.24,1364.24 1352.23,1364.4 1356.22,1364.56 1360.21,1364.71 1364.2,1364.87 1368.19,1365.03 1372.18,1365.18 1376.17,1365.34 1380.17,1365.49 1384.16,1365.64 1388.15,1365.79 1392.14,1365.94 1396.13,1366.09 1400.12,1366.24 1404.11,1366.38 1408.1,1366.53 1412.09,1366.67 1416.08,1366.82 1420.08,1366.96 1424.07,1367.1 1428.06,1367.24 1432.05,1367.38 1436.04,1367.52 1440.03,1367.65 1444.02,1367.79 1448.01,1367.92 1452,1368.06 1455.99,1368.19 1459.98,1368.32 1463.98,1368.45 1467.97,1368.58 1471.96,1368.71 1475.95,1368.84 1479.94,1368.97 1483.93,1369.1 1487.92,1369.22 1491.91,1369.35 1495.9,1369.47 1499.89,1369.6 1503.88,1369.72 1507.88,1369.84 1511.87,1369.96 1515.86,1370.08 1519.85,1370.2 1523.84,1370.32 1527.83,1370.44 1531.82,1370.55 1535.81,1370.67 1539.8,1370.79 1543.79,1370.9 1547.78,1371.01 1551.78,1371.13 1555.77,1371.24 1559.76,1371.35 1563.75,1371.46 1567.74,1371.57 1571.73,1371.68 1575.72,1371.79 1579.71,1371.9 1583.7,1372.01 1587.69,1372.12 1591.69,1372.22 1595.68,1372.33 1599.67,1372.43 1603.66,1372.54 1607.65,1372.64 1611.64,1372.74 1615.63,1372.85 1619.62,1372.95 1623.61,1373.05 1627.6,1373.15 1631.59,1373.25 1635.59,1373.35 1639.58,1373.45 1643.57,1373.54 1647.56,1373.64 1651.55,1373.74 1655.54,1373.84 1659.53,1373.93 1663.52,1374.03 1667.51,1374.12 1671.5,1374.22 1675.49,1374.31 1679.49,1374.4 1683.48,1374.49 1687.47,1374.59 1691.46,1374.68 1695.45,1374.77 1699.44,1374.86 1703.43,1374.95 1707.42,1375.04 1711.41,1375.13 1715.4,1375.21 1719.4,1375.3 1723.39,1375.39 1727.38,1375.48 1731.37,1375.56 1735.36,1375.65 1739.35,1375.73 1743.34,1375.82 1747.33,1375.9 1751.32,1375.99 1755.31,1376.07 1759.3,1376.15 1763.3,1376.24 1767.29,1376.32 1771.28,1376.4 1775.27,1376.48 1779.26,1376.56 1783.25,1376.64 1787.24,1376.72 1791.23,1376.8 1795.22,1376.88 1799.21,1376.96 1803.2,1377.04 1807.2,1377.11 1811.19,1377.19 1815.18,1377.27 1819.17,1377.35 1823.16,1377.42 1827.15,1377.5 1831.14,1377.57 1835.13,1377.65 1839.12,1377.72 1843.11,1377.8 1847.1,1377.87 1851.1,1377.94 1855.09,1378.02 1859.08,1378.09 1863.07,1378.16 1867.06,1378.23 1871.05,1378.3 1875.04,1378.37 1879.03,1378.45 1883.02,1378.52 1887.01,1378.59 1891.01,1378.66 1895,1378.72 1898.99,1378.79 1902.98,1378.86 1906.97,1378.93 1910.96,1379 1914.95,1379.07 1918.94,1379.13 1922.93,1379.2 1926.92,1379.27 1930.91,1379.33 1934.91,1379.4 1938.9,1379.46 1942.89,1379.53 1946.88,1379.59 1950.87,1379.66 1954.86,1379.72 1958.85,1379.79 1962.84,1379.85 1966.83,1379.91 1970.82,1379.98 1974.81,1380.04 1978.81,1380.1 1982.8,1380.16 1986.79,1380.23 1990.78,1380.29 1994.77,1380.35 1998.76,1380.41 2002.75,1380.47 2006.74,1380.53 2010.73,1380.59 2014.72,1380.65 2018.71,1380.71 2022.71,1380.77 2026.7,1380.83 2030.69,1380.89 2034.68,1380.95 2038.67,1381 2042.66,1381.06 2046.65,1381.12 2050.64,1381.18 2054.63,1381.23 2058.62,1381.29 2062.62,1381.35 2066.61,1381.4 2070.6,1381.46 2074.59,1381.52 2078.58,1381.57 2082.57,1381.63 2086.56,1381.68 2090.55,1381.74 2094.54,1381.79 2098.53,1381.85 2102.52,1381.9 2106.52,1381.95 2110.51,1382.01 2114.5,1382.06 2118.49,1382.11 2122.48,1382.17 2126.47,1382.22 2130.46,1382.27 2134.45,1382.32 2138.44,1382.38 2142.43,1382.43 2146.42,1382.48 2150.42,1382.53 2154.41,1382.58 2158.4,1382.63 2162.39,1382.68 2166.38,1382.73 2170.37,1382.78 2174.36,1382.83 2178.35,1382.88 2182.34,1382.93 2186.33,1382.98 2190.32,1383.03 2194.32,1383.08 2198.31,1383.13 2202.3,1383.18 2206.29,1383.23 2210.28,1383.27 2214.27,1383.32 2218.26,1383.37 2222.25,1383.42 2226.24,1383.46 2230.23,1383.51 2234.23,1383.56 2238.22,1383.6 2242.21,1383.65 2246.2,1383.7 2250.19,1383.74 2254.18,1383.79 2258.17,1383.84 2262.16,1383.88 2266.15,1383.93 2270.14,1383.97 2274.13,1384.02 2278.13,1384.06 2282.12,1384.11 2286.11,1384.15 2290.1,1384.19 2294.09,1384.24 "/>
<path clip-path="url(#clip800)" d="M2023.94 196.789 L2283.66 196.789 L2283.66 93.1086 L2023.94 93.1086  Z" fill="#ffffff" fill-rule="evenodd" fill-opacity="1"/>
<polyline clip-path="url(#clip800)" style="stroke:#000000; stroke-linecap:round; stroke-linejoin:round; stroke-width:4; stroke-opacity:1; fill:none" points="2023.94,196.789 2283.66,196.789 2283.66,93.1086 2023.94,93.1086 2023.94,196.789 "/>
<polyline clip-path="url(#clip800)" style="stroke:#009af9; stroke-linecap:round; stroke-linejoin:round; stroke-width:4; stroke-opacity:1; fill:none" points="2046.97,144.949 2185.17,144.949 "/>
<path clip-path="url(#clip800)" d="M2222.04 164.636 Q2220.23 169.266 2218.52 170.678 Q2216.81 172.09 2213.94 172.09 L2210.54 172.09 L2210.54 168.525 L2213.04 168.525 Q2214.79 168.525 2215.77 167.692 Q2216.74 166.858 2217.92 163.756 L2218.68 161.812 L2208.2 136.303 L2212.71 136.303 L2220.81 156.581 L2228.91 136.303 L2233.43 136.303 L2222.04 164.636 Z" fill="#000000" fill-rule="evenodd" fill-opacity="1" /><path clip-path="url(#clip800)" d="M2240.72 158.293 L2248.36 158.293 L2248.36 131.928 L2240.05 133.595 L2240.05 129.335 L2248.31 127.669 L2252.99 127.669 L2252.99 158.293 L2260.63 158.293 L2260.63 162.229 L2240.72 162.229 L2240.72 158.293 Z" fill="#000000" fill-rule="evenodd" fill-opacity="1" /></svg>
