<?xml version="1.0" encoding="utf-8"?>
<svg xmlns="http://www.w3.org/2000/svg" xmlns:xlink="http://www.w3.org/1999/xlink" width="600" height="400" viewBox="0 0 2400 1600">
<defs>
  <clipPath id="clip880">
    <rect x="0" y="0" width="2400" height="1600"/>
  </clipPath>
</defs>
<path clip-path="url(#clip880)" d="M0 1600 L2400 1600 L2400 0 L0 0  Z" fill="#ffffff" fill-rule="evenodd" fill-opacity="1"/>
<defs>
  <clipPath id="clip881">
    <rect x="480" y="0" width="1681" height="1600"/>
  </clipPath>
</defs>
<path clip-path="url(#clip880)" d="M202.227 1423.18 L2352.76 1423.18 L2352.76 47.2441 L202.227 47.2441  Z" fill="#ffffff" fill-rule="evenodd" fill-opacity="1"/>
<defs>
  <clipPath id="clip882">
    <rect x="202" y="47" width="2152" height="1377"/>
  </clipPath>
</defs>
<polyline clip-path="url(#clip882)" style="stroke:#000000; stroke-linecap:round; stroke-linejoin:round; stroke-width:2; stroke-opacity:0.1; fill:none" points="263.091,1423.18 263.091,47.2441 "/>
<polyline clip-path="url(#clip882)" style="stroke:#000000; stroke-linecap:round; stroke-linejoin:round; stroke-width:2; stroke-opacity:0.1; fill:none" points="939.358,1423.18 939.358,47.2441 "/>
<polyline clip-path="url(#clip882)" style="stroke:#000000; stroke-linecap:round; stroke-linejoin:round; stroke-width:2; stroke-opacity:0.1; fill:none" points="1615.63,1423.18 1615.63,47.2441 "/>
<polyline clip-path="url(#clip882)" style="stroke:#000000; stroke-linecap:round; stroke-linejoin:round; stroke-width:2; stroke-opacity:0.1; fill:none" points="2291.89,1423.18 2291.89,47.2441 "/>
<polyline clip-path="url(#clip880)" style="stroke:#000000; stroke-linecap:round; stroke-linejoin:round; stroke-width:4; stroke-opacity:1; fill:none" points="202.227,1423.18 2352.76,1423.18 "/>
<polyline clip-path="url(#clip880)" style="stroke:#000000; stroke-linecap:round; stroke-linejoin:round; stroke-width:4; stroke-opacity:1; fill:none" points="263.091,1423.18 263.091,1404.28 "/>
<polyline clip-path="url(#clip880)" style="stroke:#000000; stroke-linecap:round; stroke-linejoin:round; stroke-width:4; stroke-opacity:1; fill:none" points="939.358,1423.18 939.358,1404.28 "/>
<polyline clip-path="url(#clip880)" style="stroke:#000000; stroke-linecap:round; stroke-linejoin:round; stroke-width:4; stroke-opacity:1; fill:none" points="1615.63,1423.18 1615.63,1404.28 "/>
<polyline clip-path="url(#clip880)" style="stroke:#000000; stroke-linecap:round; stroke-linejoin:round; stroke-width:4; stroke-opacity:1; fill:none" points="2291.89,1423.18 2291.89,1404.28 "/>
<path clip-path="url(#clip880)" d="M210.418 1468.75 L240.094 1468.75 L240.094 1472.69 L210.418 1472.69 L210.418 1468.75 Z" fill="#000000" fill-rule="evenodd" fill-opacity="1" /><path clip-path="url(#clip880)" d="M260.186 1454.1 Q256.575 1454.1 254.747 1457.66 Q252.941 1461.2 252.941 1468.33 Q252.941 1475.44 254.747 1479.01 Q256.575 1482.55 260.186 1482.55 Q263.821 1482.55 265.626 1479.01 Q267.455 1475.44 267.455 1468.33 Q267.455 1461.2 265.626 1457.66 Q263.821 1454.1 260.186 1454.1 M260.186 1450.39 Q265.997 1450.39 269.052 1455 Q272.131 1459.58 272.131 1468.33 Q272.131 1477.06 269.052 1481.67 Q265.997 1486.25 260.186 1486.25 Q254.376 1486.25 251.298 1481.67 Q248.242 1477.06 248.242 1468.33 Q248.242 1459.58 251.298 1455 Q254.376 1450.39 260.186 1450.39 Z" fill="#000000" fill-rule="evenodd" fill-opacity="1" /><path clip-path="url(#clip880)" d="M280.348 1479.7 L285.233 1479.7 L285.233 1485.58 L280.348 1485.58 L280.348 1479.7 Z" fill="#000000" fill-rule="evenodd" fill-opacity="1" /><path clip-path="url(#clip880)" d="M299.445 1481.64 L315.765 1481.64 L315.765 1485.58 L293.82 1485.58 L293.82 1481.64 Q296.483 1478.89 301.066 1474.26 Q305.672 1469.61 306.853 1468.27 Q309.098 1465.74 309.978 1464.01 Q310.881 1462.25 310.881 1460.56 Q310.881 1457.8 308.936 1456.07 Q307.015 1454.33 303.913 1454.33 Q301.714 1454.33 299.26 1455.09 Q296.83 1455.86 294.052 1457.41 L294.052 1452.69 Q296.876 1451.55 299.33 1450.97 Q301.783 1450.39 303.82 1450.39 Q309.191 1450.39 312.385 1453.08 Q315.58 1455.77 315.58 1460.26 Q315.58 1462.39 314.769 1464.31 Q313.982 1466.2 311.876 1468.8 Q311.297 1469.47 308.195 1472.69 Q305.094 1475.88 299.445 1481.64 Z" fill="#000000" fill-rule="evenodd" fill-opacity="1" /><path clip-path="url(#clip880)" d="M886.5 1468.75 L916.176 1468.75 L916.176 1472.69 L886.5 1472.69 L886.5 1468.75 Z" fill="#000000" fill-rule="evenodd" fill-opacity="1" /><path clip-path="url(#clip880)" d="M936.268 1454.1 Q932.657 1454.1 930.828 1457.66 Q929.023 1461.2 929.023 1468.33 Q929.023 1475.44 930.828 1479.01 Q932.657 1482.55 936.268 1482.55 Q939.902 1482.55 941.708 1479.01 Q943.537 1475.44 943.537 1468.33 Q943.537 1461.2 941.708 1457.66 Q939.902 1454.1 936.268 1454.1 M936.268 1450.39 Q942.078 1450.39 945.134 1455 Q948.212 1459.58 948.212 1468.33 Q948.212 1477.06 945.134 1481.67 Q942.078 1486.25 936.268 1486.25 Q930.458 1486.25 927.379 1481.67 Q924.324 1477.06 924.324 1468.33 Q924.324 1459.58 927.379 1455 Q930.458 1450.39 936.268 1450.39 Z" fill="#000000" fill-rule="evenodd" fill-opacity="1" /><path clip-path="url(#clip880)" d="M956.43 1479.7 L961.314 1479.7 L961.314 1485.58 L956.43 1485.58 L956.43 1479.7 Z" fill="#000000" fill-rule="evenodd" fill-opacity="1" /><path clip-path="url(#clip880)" d="M972.309 1481.64 L979.948 1481.64 L979.948 1455.28 L971.638 1456.95 L971.638 1452.69 L979.902 1451.02 L984.578 1451.02 L984.578 1481.64 L992.217 1481.64 L992.217 1485.58 L972.309 1485.58 L972.309 1481.64 Z" fill="#000000" fill-rule="evenodd" fill-opacity="1" /><path clip-path="url(#clip880)" d="M1593.01 1454.1 Q1589.4 1454.1 1587.57 1457.66 Q1585.76 1461.2 1585.76 1468.33 Q1585.76 1475.44 1587.57 1479.01 Q1589.4 1482.55 1593.01 1482.55 Q1596.64 1482.55 1598.45 1479.01 Q1600.28 1475.44 1600.28 1468.33 Q1600.28 1461.2 1598.45 1457.66 Q1596.64 1454.1 1593.01 1454.1 M1593.01 1450.39 Q1598.82 1450.39 1601.88 1455 Q1604.95 1459.58 1604.95 1468.33 Q1604.95 1477.06 1601.88 1481.67 Q1598.82 1486.25 1593.01 1486.25 Q1587.2 1486.25 1584.12 1481.67 Q1581.07 1477.06 1581.07 1468.33 Q1581.07 1459.58 1584.12 1455 Q1587.2 1450.39 1593.01 1450.39 Z" fill="#000000" fill-rule="evenodd" fill-opacity="1" /><path clip-path="url(#clip880)" d="M1613.17 1479.7 L1618.06 1479.7 L1618.06 1485.58 L1613.17 1485.58 L1613.17 1479.7 Z" fill="#000000" fill-rule="evenodd" fill-opacity="1" /><path clip-path="url(#clip880)" d="M1638.24 1454.1 Q1634.63 1454.1 1632.8 1457.66 Q1631 1461.2 1631 1468.33 Q1631 1475.44 1632.8 1479.01 Q1634.63 1482.55 1638.24 1482.55 Q1641.87 1482.55 1643.68 1479.01 Q1645.51 1475.44 1645.51 1468.33 Q1645.51 1461.2 1643.68 1457.66 Q1641.87 1454.1 1638.24 1454.1 M1638.24 1450.39 Q1644.05 1450.39 1647.11 1455 Q1650.19 1459.58 1650.19 1468.33 Q1650.19 1477.06 1647.11 1481.67 Q1644.05 1486.25 1638.24 1486.25 Q1632.43 1486.25 1629.35 1481.67 Q1626.3 1477.06 1626.3 1468.33 Q1626.3 1459.58 1629.35 1455 Q1632.43 1450.39 1638.24 1450.39 Z" fill="#000000" fill-rule="evenodd" fill-opacity="1" /><path clip-path="url(#clip880)" d="M2269.89 1454.1 Q2266.28 1454.1 2264.45 1457.66 Q2262.64 1461.2 2262.64 1468.33 Q2262.64 1475.44 2264.45 1479.01 Q2266.28 1482.55 2269.89 1482.55 Q2273.52 1482.55 2275.33 1479.01 Q2277.16 1475.44 2277.16 1468.33 Q2277.16 1461.2 2275.33 1457.66 Q2273.52 1454.1 2269.89 1454.1 M2269.89 1450.39 Q2275.7 1450.39 2278.76 1455 Q2281.83 1459.58 2281.83 1468.33 Q2281.83 1477.06 2278.76 1481.67 Q2275.7 1486.25 2269.89 1486.25 Q2264.08 1486.25 2261 1481.67 Q2257.95 1477.06 2257.95 1468.33 Q2257.95 1459.58 2261 1455 Q2264.08 1450.39 2269.89 1450.39 Z" fill="#000000" fill-rule="evenodd" fill-opacity="1" /><path clip-path="url(#clip880)" d="M2290.05 1479.7 L2294.94 1479.7 L2294.94 1485.58 L2290.05 1485.58 L2290.05 1479.7 Z" fill="#000000" fill-rule="evenodd" fill-opacity="1" /><path clip-path="url(#clip880)" d="M2305.93 1481.64 L2313.57 1481.64 L2313.57 1455.28 L2305.26 1456.95 L2305.26 1452.69 L2313.52 1451.02 L2318.2 1451.02 L2318.2 1481.64 L2325.84 1481.64 L2325.84 1485.58 L2305.93 1485.58 L2305.93 1481.64 Z" fill="#000000" fill-rule="evenodd" fill-opacity="1" /><path clip-path="url(#clip880)" d="M1190.38 1548.82 Q1186.81 1548.06 1184.9 1545.99 Q1182.99 1543.95 1182.99 1540.99 Q1182.99 1536.5 1186.62 1533.99 Q1190.22 1531.5 1196.46 1531.5 Q1198.88 1531.5 1201.58 1531.89 Q1204.29 1532.27 1207.41 1533.03 L1207.41 1538.35 Q1204.32 1537.42 1201.77 1537.01 Q1199.19 1536.6 1196.93 1536.6 Q1193.15 1536.6 1190.95 1538.06 Q1188.72 1539.53 1188.72 1541.56 Q1188.72 1543.79 1190.89 1545.22 Q1193.02 1546.62 1196.71 1546.62 L1201.64 1546.62 L1201.64 1551.46 L1196.93 1551.46 Q1192.57 1551.46 1190.28 1553.08 Q1187.8 1554.87 1187.8 1557.67 Q1187.8 1560.53 1190.47 1562.31 Q1193.18 1564.1 1197.98 1564.1 Q1200.94 1564.1 1203.65 1563.52 Q1206.35 1562.92 1208.61 1561.74 L1208.61 1567.18 Q1205.75 1568.08 1203.08 1568.52 Q1200.37 1568.97 1197.82 1568.97 Q1190.25 1568.97 1186.14 1566.07 Q1182.04 1563.17 1182.04 1557.67 Q1182.04 1554.23 1184.23 1551.91 Q1186.43 1549.58 1190.38 1548.82 Z" fill="#000000" fill-rule="evenodd" fill-opacity="1" /><path clip-path="url(#clip880)" d="M1262.63 1533.45 L1262.63 1538.98 Q1260.15 1537.71 1257.47 1537.07 Q1254.8 1536.44 1251.93 1536.44 Q1247.57 1536.44 1245.38 1537.77 Q1243.21 1539.11 1243.21 1541.79 Q1243.21 1543.82 1244.77 1545 Q1246.33 1546.15 1251.04 1547.2 L1253.05 1547.64 Q1259.29 1548.98 1261.9 1551.43 Q1264.54 1553.85 1264.54 1558.21 Q1264.54 1563.17 1260.59 1566.07 Q1256.68 1568.97 1249.8 1568.97 Q1246.94 1568.97 1243.82 1568.39 Q1240.73 1567.85 1237.29 1566.74 L1237.29 1560.69 Q1240.54 1562.38 1243.69 1563.24 Q1246.84 1564.07 1249.93 1564.07 Q1254.07 1564.07 1256.29 1562.66 Q1258.52 1561.23 1258.52 1558.65 Q1258.52 1556.27 1256.9 1554.99 Q1255.31 1553.72 1249.86 1552.54 L1247.83 1552.07 Q1242.38 1550.92 1239.97 1548.56 Q1237.55 1546.18 1237.55 1542.04 Q1237.55 1537.01 1241.11 1534.27 Q1244.68 1531.54 1251.23 1531.54 Q1254.48 1531.54 1257.34 1532.01 Q1260.21 1532.49 1262.63 1533.45 Z" fill="#000000" fill-rule="evenodd" fill-opacity="1" /><path clip-path="url(#clip880)" d="M1303.5 1546.53 L1303.5 1568.04 L1297.64 1568.04 L1297.64 1546.72 Q1297.64 1541.66 1295.67 1539.14 Q1293.69 1536.63 1289.75 1536.63 Q1285 1536.63 1282.27 1539.65 Q1279.53 1542.68 1279.53 1547.9 L1279.53 1568.04 L1273.64 1568.04 L1273.64 1518.52 L1279.53 1518.52 L1279.53 1537.93 Q1281.63 1534.72 1284.46 1533.13 Q1287.33 1531.54 1291.05 1531.54 Q1297.19 1531.54 1300.34 1535.36 Q1303.5 1539.14 1303.5 1546.53 Z" fill="#000000" fill-rule="evenodd" fill-opacity="1" /><path clip-path="url(#clip880)" d="M1315.18 1532.4 L1321.03 1532.4 L1321.03 1568.04 L1315.18 1568.04 L1315.18 1532.4 M1315.18 1518.52 L1321.03 1518.52 L1321.03 1525.93 L1315.18 1525.93 L1315.18 1518.52 Z" fill="#000000" fill-rule="evenodd" fill-opacity="1" /><path clip-path="url(#clip880)" d="M1351.33 1518.52 L1351.33 1523.39 L1345.73 1523.39 Q1342.58 1523.39 1341.34 1524.66 Q1340.13 1525.93 1340.13 1529.24 L1340.13 1532.4 L1349.77 1532.4 L1349.77 1536.95 L1340.13 1536.95 L1340.13 1568.04 L1334.24 1568.04 L1334.24 1536.95 L1328.64 1536.95 L1328.64 1532.4 L1334.24 1532.4 L1334.24 1529.91 Q1334.24 1523.96 1337.01 1521.26 Q1339.78 1518.52 1345.8 1518.52 L1351.33 1518.52 Z" fill="#000000" fill-rule="evenodd" fill-opacity="1" /><path clip-path="url(#clip880)" d="M1360.88 1522.27 L1360.88 1532.4 L1372.95 1532.4 L1372.95 1536.95 L1360.88 1536.95 L1360.88 1556.3 Q1360.88 1560.66 1362.06 1561.9 Q1363.27 1563.14 1366.93 1563.14 L1372.95 1563.14 L1372.95 1568.04 L1366.93 1568.04 Q1360.15 1568.04 1357.57 1565.53 Q1354.99 1562.98 1354.99 1556.3 L1354.99 1536.95 L1350.7 1536.95 L1350.7 1532.4 L1354.99 1532.4 L1354.99 1522.27 L1360.88 1522.27 Z" fill="#000000" fill-rule="evenodd" fill-opacity="1" /><polyline clip-path="url(#clip882)" style="stroke:#000000; stroke-linecap:round; stroke-linejoin:round; stroke-width:2; stroke-opacity:0.1; fill:none" points="202.227,1386.21 2352.76,1386.21 "/>
<polyline clip-path="url(#clip882)" style="stroke:#000000; stroke-linecap:round; stroke-linejoin:round; stroke-width:2; stroke-opacity:0.1; fill:none" points="202.227,1049.08 2352.76,1049.08 "/>
<polyline clip-path="url(#clip882)" style="stroke:#000000; stroke-linecap:round; stroke-linejoin:round; stroke-width:2; stroke-opacity:0.1; fill:none" points="202.227,711.953 2352.76,711.953 "/>
<polyline clip-path="url(#clip882)" style="stroke:#000000; stroke-linecap:round; stroke-linejoin:round; stroke-width:2; stroke-opacity:0.1; fill:none" points="202.227,374.823 2352.76,374.823 "/>
<polyline clip-path="url(#clip880)" style="stroke:#000000; stroke-linecap:round; stroke-linejoin:round; stroke-width:4; stroke-opacity:1; fill:none" points="202.227,1423.18 202.227,47.2441 "/>
<polyline clip-path="url(#clip880)" style="stroke:#000000; stroke-linecap:round; stroke-linejoin:round; stroke-width:4; stroke-opacity:1; fill:none" points="202.227,1386.21 221.125,1386.21 "/>
<polyline clip-path="url(#clip880)" style="stroke:#000000; stroke-linecap:round; stroke-linejoin:round; stroke-width:4; stroke-opacity:1; fill:none" points="202.227,1049.08 221.125,1049.08 "/>
<polyline clip-path="url(#clip880)" style="stroke:#000000; stroke-linecap:round; stroke-linejoin:round; stroke-width:4; stroke-opacity:1; fill:none" points="202.227,711.953 221.125,711.953 "/>
<polyline clip-path="url(#clip880)" style="stroke:#000000; stroke-linecap:round; stroke-linejoin:round; stroke-width:4; stroke-opacity:1; fill:none" points="202.227,374.823 221.125,374.823 "/>
<path clip-path="url(#clip880)" d="M154.283 1372.01 Q150.672 1372.01 148.843 1375.58 Q147.038 1379.12 147.038 1386.25 Q147.038 1393.35 148.843 1396.92 Q150.672 1400.46 154.283 1400.46 Q157.917 1400.46 159.723 1396.92 Q161.552 1393.35 161.552 1386.25 Q161.552 1379.12 159.723 1375.58 Q157.917 1372.01 154.283 1372.01 M154.283 1368.31 Q160.093 1368.31 163.149 1372.91 Q166.227 1377.5 166.227 1386.25 Q166.227 1394.97 163.149 1399.58 Q160.093 1404.16 154.283 1404.16 Q148.473 1404.16 145.394 1399.58 Q142.339 1394.97 142.339 1386.25 Q142.339 1377.5 145.394 1372.91 Q148.473 1368.31 154.283 1368.31 Z" fill="#000000" fill-rule="evenodd" fill-opacity="1" /><path clip-path="url(#clip880)" d="M145.325 1031.8 L163.681 1031.8 L163.681 1035.74 L149.607 1035.74 L149.607 1044.21 Q150.626 1043.86 151.644 1043.7 Q152.663 1043.52 153.681 1043.52 Q159.468 1043.52 162.848 1046.69 Q166.227 1049.86 166.227 1055.28 Q166.227 1060.85 162.755 1063.96 Q159.283 1067.03 152.964 1067.03 Q150.788 1067.03 148.519 1066.66 Q146.274 1066.29 143.866 1065.55 L143.866 1060.85 Q145.95 1061.99 148.172 1062.54 Q150.394 1063.1 152.871 1063.1 Q156.876 1063.1 159.214 1060.99 Q161.552 1058.89 161.552 1055.28 Q161.552 1051.66 159.214 1049.56 Q156.876 1047.45 152.871 1047.45 Q150.996 1047.45 149.121 1047.87 Q147.269 1048.28 145.325 1049.16 L145.325 1031.8 Z" fill="#000000" fill-rule="evenodd" fill-opacity="1" /><path clip-path="url(#clip880)" d="M114.931 725.298 L122.57 725.298 L122.57 698.932 L114.26 700.599 L114.26 696.34 L122.524 694.673 L127.2 694.673 L127.2 725.298 L134.839 725.298 L134.839 729.233 L114.931 729.233 L114.931 725.298 Z" fill="#000000" fill-rule="evenodd" fill-opacity="1" /><path clip-path="url(#clip880)" d="M154.283 697.752 Q150.672 697.752 148.843 701.317 Q147.038 704.858 147.038 711.988 Q147.038 719.094 148.843 722.659 Q150.672 726.201 154.283 726.201 Q157.917 726.201 159.723 722.659 Q161.552 719.094 161.552 711.988 Q161.552 704.858 159.723 701.317 Q157.917 697.752 154.283 697.752 M154.283 694.048 Q160.093 694.048 163.149 698.655 Q166.227 703.238 166.227 711.988 Q166.227 720.715 163.149 725.321 Q160.093 729.904 154.283 729.904 Q148.473 729.904 145.394 725.321 Q142.339 720.715 142.339 711.988 Q142.339 703.238 145.394 698.655 Q148.473 694.048 154.283 694.048 Z" fill="#000000" fill-rule="evenodd" fill-opacity="1" /><path clip-path="url(#clip880)" d="M115.927 388.168 L123.566 388.168 L123.566 361.802 L115.256 363.469 L115.256 359.21 L123.519 357.543 L128.195 357.543 L128.195 388.168 L135.834 388.168 L135.834 392.103 L115.927 392.103 L115.927 388.168 Z" fill="#000000" fill-rule="evenodd" fill-opacity="1" /><path clip-path="url(#clip880)" d="M145.325 357.543 L163.681 357.543 L163.681 361.478 L149.607 361.478 L149.607 369.95 Q150.626 369.603 151.644 369.441 Q152.663 369.256 153.681 369.256 Q159.468 369.256 162.848 372.427 Q166.227 375.599 166.227 381.015 Q166.227 386.594 162.755 389.696 Q159.283 392.774 152.964 392.774 Q150.788 392.774 148.519 392.404 Q146.274 392.034 143.866 391.293 L143.866 386.594 Q145.95 387.728 148.172 388.284 Q150.394 388.839 152.871 388.839 Q156.876 388.839 159.214 386.733 Q161.552 384.626 161.552 381.015 Q161.552 377.404 159.214 375.298 Q156.876 373.191 152.871 373.191 Q150.996 373.191 149.121 373.608 Q147.269 374.025 145.325 374.904 L145.325 357.543 Z" fill="#000000" fill-rule="evenodd" fill-opacity="1" /><path clip-path="url(#clip880)" d="M33.8307 1006.09 Q33.2578 1007.08 33.0032 1008.25 Q32.7167 1009.4 32.7167 1010.8 Q32.7167 1015.76 35.9632 1018.44 Q39.1779 1021.08 45.2253 1021.08 L64.0042 1021.08 L64.0042 1026.97 L28.3562 1026.97 L28.3562 1021.08 L33.8944 1021.08 Q30.6479 1019.23 29.0883 1016.27 Q27.4968 1013.31 27.4968 1009.08 Q27.4968 1008.48 27.5923 1007.74 Q27.656 1007.01 27.8151 1006.12 L33.8307 1006.09 Z" fill="#000000" fill-rule="evenodd" fill-opacity="1" /><path clip-path="url(#clip880)" d="M44.7161 970.886 L47.5806 970.886 L47.5806 997.813 Q53.6281 997.431 56.8109 994.185 Q59.9619 990.906 59.9619 985.082 Q59.9619 981.708 59.1344 978.557 Q58.3069 975.374 56.6518 972.255 L62.1899 972.255 Q63.5267 975.406 64.227 978.716 Q64.9272 982.026 64.9272 985.432 Q64.9272 993.962 59.9619 998.959 Q54.9967 1003.92 46.5303 1003.92 Q37.7774 1003.92 32.6531 999.214 Q27.4968 994.471 27.4968 986.45 Q27.4968 979.257 32.1438 975.088 Q36.7589 970.886 44.7161 970.886 M42.9973 976.743 Q38.1912 976.806 35.3266 979.448 Q32.4621 982.058 32.4621 986.387 Q32.4621 991.288 35.2312 994.248 Q38.0002 997.177 43.0292 997.622 L42.9973 976.743 Z" fill="#000000" fill-rule="evenodd" fill-opacity="1" /><path clip-path="url(#clip880)" d="M14.479 961.274 L14.479 955.418 L64.0042 955.418 L64.0042 961.274 L14.479 961.274 Z" fill="#000000" fill-rule="evenodd" fill-opacity="1" /><path clip-path="url(#clip880)" d="M46.0847 926.963 Q46.0847 934.061 47.7079 936.798 Q49.3312 939.535 53.2461 939.535 Q56.3653 939.535 58.2114 937.498 Q60.0256 935.429 60.0256 931.896 Q60.0256 927.027 56.5881 924.098 Q53.1188 921.138 47.3897 921.138 L46.0847 921.138 L46.0847 926.963 M43.6657 915.282 L64.0042 915.282 L64.0042 921.138 L58.5933 921.138 Q61.8398 923.144 63.3994 926.135 Q64.9272 929.127 64.9272 933.456 Q64.9272 938.93 61.8716 942.177 Q58.7843 945.392 53.6281 945.392 Q47.6125 945.392 44.5569 941.381 Q41.5014 937.339 41.5014 929.35 L41.5014 921.138 L40.9285 921.138 Q36.8862 921.138 34.6901 923.812 Q32.4621 926.454 32.4621 931.26 Q32.4621 934.315 33.1941 937.212 Q33.9262 940.108 35.3903 942.782 L29.9795 942.782 Q28.7381 939.567 28.1334 936.543 Q27.4968 933.52 27.4968 930.655 Q27.4968 922.921 31.5072 919.101 Q35.5176 915.282 43.6657 915.282 Z" fill="#000000" fill-rule="evenodd" fill-opacity="1" /><path clip-path="url(#clip880)" d="M18.2347 897.426 L28.3562 897.426 L28.3562 885.363 L32.9077 885.363 L32.9077 897.426 L52.2594 897.426 Q56.6199 897.426 57.8613 896.248 Q59.1026 895.039 59.1026 891.379 L59.1026 885.363 L64.0042 885.363 L64.0042 891.379 Q64.0042 898.158 61.4897 900.736 Q58.9434 903.314 52.2594 903.314 L32.9077 903.314 L32.9077 907.611 L28.3562 907.611 L28.3562 903.314 L18.2347 903.314 L18.2347 897.426 Z" fill="#000000" fill-rule="evenodd" fill-opacity="1" /><path clip-path="url(#clip880)" d="M28.3562 877.661 L28.3562 871.804 L64.0042 871.804 L64.0042 877.661 L28.3562 877.661 M14.479 877.661 L14.479 871.804 L21.895 871.804 L21.895 877.661 L14.479 877.661 Z" fill="#000000" fill-rule="evenodd" fill-opacity="1" /><path clip-path="url(#clip880)" d="M28.3562 863.751 L28.3562 857.545 L58.275 846.405 L28.3562 835.265 L28.3562 829.058 L64.0042 842.426 L64.0042 850.384 L28.3562 863.751 Z" fill="#000000" fill-rule="evenodd" fill-opacity="1" /><path clip-path="url(#clip880)" d="M44.7161 790.482 L47.5806 790.482 L47.5806 817.409 Q53.6281 817.027 56.8109 813.781 Q59.9619 810.502 59.9619 804.678 Q59.9619 801.304 59.1344 798.153 Q58.3069 794.97 56.6518 791.851 L62.1899 791.851 Q63.5267 795.002 64.227 798.312 Q64.9272 801.622 64.9272 805.028 Q64.9272 813.558 59.9619 818.555 Q54.9967 823.52 46.5303 823.52 Q37.7774 823.52 32.6531 818.81 Q27.4968 814.067 27.4968 806.046 Q27.4968 798.853 32.1438 794.684 Q36.7589 790.482 44.7161 790.482 M42.9973 796.339 Q38.1912 796.402 35.3266 799.044 Q32.4621 801.654 32.4621 805.983 Q32.4621 810.884 35.2312 813.844 Q38.0002 816.773 43.0292 817.218 L42.9973 796.339 Z" fill="#000000" fill-rule="evenodd" fill-opacity="1" /><path clip-path="url(#clip880)" d="M14.479 760.15 L14.479 754.293 L64.0042 754.293 L64.0042 760.15 L14.479 760.15 Z" fill="#000000" fill-rule="evenodd" fill-opacity="1" /><path clip-path="url(#clip880)" d="M46.0847 725.838 Q46.0847 732.936 47.7079 735.673 Q49.3312 738.411 53.2461 738.411 Q56.3653 738.411 58.2114 736.374 Q60.0256 734.305 60.0256 730.772 Q60.0256 725.902 56.5881 722.974 Q53.1188 720.014 47.3897 720.014 L46.0847 720.014 L46.0847 725.838 M43.6657 714.157 L64.0042 714.157 L64.0042 720.014 L58.5933 720.014 Q61.8398 722.019 63.3994 725.011 Q64.9272 728.003 64.9272 732.331 Q64.9272 737.806 61.8716 741.053 Q58.7843 744.267 53.6281 744.267 Q47.6125 744.267 44.5569 740.257 Q41.5014 736.215 41.5014 728.226 L41.5014 720.014 L40.9285 720.014 Q36.8862 720.014 34.6901 722.687 Q32.4621 725.329 32.4621 730.135 Q32.4621 733.191 33.1941 736.087 Q33.9262 738.984 35.3903 741.657 L29.9795 741.657 Q28.7381 738.443 28.1334 735.419 Q27.4968 732.395 27.4968 729.531 Q27.4968 721.796 31.5072 717.977 Q35.5176 714.157 43.6657 714.157 Z" fill="#000000" fill-rule="evenodd" fill-opacity="1" /><path clip-path="url(#clip880)" d="M35.1993 674.34 Q31.2526 672.144 29.3747 669.088 Q27.4968 666.033 27.4968 661.895 Q27.4968 656.325 31.4117 653.301 Q35.2948 650.278 42.4881 650.278 L64.0042 650.278 L64.0042 656.166 L42.679 656.166 Q37.5546 656.166 35.072 657.98 Q32.5894 659.794 32.5894 663.518 Q32.5894 668.07 35.6131 670.711 Q38.6368 673.353 43.8567 673.353 L64.0042 673.353 L64.0042 679.241 L42.679 679.241 Q37.5228 679.241 35.072 681.056 Q32.5894 682.87 32.5894 686.658 Q32.5894 691.145 35.6449 693.787 Q38.6686 696.429 43.8567 696.429 L64.0042 696.429 L64.0042 702.317 L28.3562 702.317 L28.3562 696.429 L33.8944 696.429 Q30.616 694.424 29.0564 691.623 Q27.4968 688.822 27.4968 684.971 Q27.4968 681.088 29.4702 678.382 Q31.4436 675.645 35.1993 674.34 Z" fill="#000000" fill-rule="evenodd" fill-opacity="1" /><path clip-path="url(#clip880)" d="M46.212 613.006 Q39.7508 613.006 36.0905 615.68 Q32.3984 618.322 32.3984 622.969 Q32.3984 627.616 36.0905 630.289 Q39.7508 632.931 46.212 632.931 Q52.6732 632.931 56.3653 630.289 Q60.0256 627.616 60.0256 622.969 Q60.0256 618.322 56.3653 615.68 Q52.6732 613.006 46.212 613.006 M33.7671 632.931 Q30.5842 631.085 29.0564 628.284 Q27.4968 625.451 27.4968 621.536 Q27.4968 615.043 32.6531 611.001 Q37.8093 606.927 46.212 606.927 Q54.6147 606.927 59.771 611.001 Q64.9272 615.043 64.9272 621.536 Q64.9272 625.451 63.3994 628.284 Q61.8398 631.085 58.657 632.931 L64.0042 632.931 L64.0042 638.819 L14.479 638.819 L14.479 632.931 L33.7671 632.931 Z" fill="#000000" fill-rule="evenodd" fill-opacity="1" /><path clip-path="url(#clip880)" d="M29.4065 553.773 L34.9447 553.773 Q33.6716 556.256 33.035 558.93 Q32.3984 561.603 32.3984 564.468 Q32.3984 568.828 33.7352 571.024 Q35.072 573.189 37.7456 573.189 Q39.7826 573.189 40.9603 571.629 Q42.1061 570.07 43.1565 565.359 L43.6021 563.354 Q44.9389 557.115 47.3897 554.505 Q49.8086 551.864 54.1691 551.864 Q59.1344 551.864 62.0308 555.81 Q64.9272 559.725 64.9272 566.6 Q64.9272 569.465 64.3543 572.584 Q63.8132 575.671 62.6992 579.109 L56.6518 579.109 Q58.3387 575.862 59.198 572.711 Q60.0256 569.56 60.0256 566.473 Q60.0256 562.335 58.6251 560.107 Q57.1929 557.879 54.6147 557.879 Q52.2276 557.879 50.9545 559.503 Q49.6813 561.094 48.5037 566.537 L48.0262 568.574 Q46.8804 574.016 44.5251 576.435 Q42.138 578.854 38.0002 578.854 Q32.9713 578.854 30.2341 575.29 Q27.4968 571.725 27.4968 565.168 Q27.4968 561.922 27.9743 559.057 Q28.4517 556.192 29.4065 553.773 Z" fill="#000000" fill-rule="evenodd" fill-opacity="1" /><path clip-path="url(#clip880)" d="M42.4881 512.906 L64.0042 512.906 L64.0042 518.762 L42.679 518.762 Q37.6183 518.762 35.1038 520.735 Q32.5894 522.709 32.5894 526.656 Q32.5894 531.398 35.6131 534.135 Q38.6368 536.872 43.8567 536.872 L64.0042 536.872 L64.0042 542.761 L14.479 542.761 L14.479 536.872 L33.8944 536.872 Q30.6797 534.772 29.0883 531.939 Q27.4968 529.074 27.4968 525.351 Q27.4968 519.208 31.3163 516.057 Q35.1038 512.906 42.4881 512.906 Z" fill="#000000" fill-rule="evenodd" fill-opacity="1" /><path clip-path="url(#clip880)" d="M28.3562 501.225 L28.3562 495.368 L64.0042 495.368 L64.0042 501.225 L28.3562 501.225 M14.479 501.225 L14.479 495.368 L21.895 495.368 L21.895 501.225 L14.479 501.225 Z" fill="#000000" fill-rule="evenodd" fill-opacity="1" /><path clip-path="url(#clip880)" d="M14.479 465.067 L19.3487 465.067 L19.3487 470.669 Q19.3487 473.82 20.6219 475.061 Q21.895 476.271 25.2052 476.271 L28.3562 476.271 L28.3562 466.627 L32.9077 466.627 L32.9077 476.271 L64.0042 476.271 L64.0042 482.159 L32.9077 482.159 L32.9077 487.761 L28.3562 487.761 L28.3562 482.159 L25.8736 482.159 Q19.9216 482.159 17.2162 479.39 Q14.479 476.621 14.479 470.605 L14.479 465.067 Z" fill="#000000" fill-rule="evenodd" fill-opacity="1" /><path clip-path="url(#clip880)" d="M18.2347 455.519 L28.3562 455.519 L28.3562 443.456 L32.9077 443.456 L32.9077 455.519 L52.2594 455.519 Q56.6199 455.519 57.8613 454.341 Q59.1026 453.132 59.1026 449.471 L59.1026 443.456 L64.0042 443.456 L64.0042 449.471 Q64.0042 456.251 61.4897 458.829 Q58.9434 461.407 52.2594 461.407 L32.9077 461.407 L32.9077 465.704 L28.3562 465.704 L28.3562 461.407 L18.2347 461.407 L18.2347 455.519 Z" fill="#000000" fill-rule="evenodd" fill-opacity="1" /><polyline clip-path="url(#clip882)" style="stroke:#009af9; stroke-linecap:round; stroke-linejoin:round; stroke-width:4; stroke-opacity:1; fill:none" points="263.091,1323.31 276.3,1323.27 398.433,1322.87 471.829,1322.63 533.885,1322.43 601.295,1322.21 663.441,1322 730.069,1321.78 807.263,1321.53 875.864,1321.3 936.021,1321.1 1001.61,1320.88 1067.58,1320.66 1140.53,1320.41 1209.94,1320.18 1282.1,1319.93 1342.85,1319.72 1417.02,1319.47 1484.96,1319.24 1547.71,1319.02 1611.28,1318.8 1682.51,1318.56 1747.06,1318.33 1820.97,1318.07 1889.4,1317.83 1956.87,1317.6 2022.37,1317.37 2089.52,1317.13 2163.09,1316.87 2269.97,1316.49 2291.89,1316.41 "/>
<polyline clip-path="url(#clip882)" style="stroke:#e26f46; stroke-linecap:round; stroke-linejoin:round; stroke-width:4; stroke-opacity:1; fill:none" points="263.091,1363.65 276.3,1363.37 398.433,1360.71 471.829,1358.99 533.885,1357.46 601.295,1355.73 663.441,1354.05 730.069,1352.18 807.263,1349.9 875.864,1347.78 936.021,1345.84 1001.61,1343.64 1067.58,1341.35 1140.53,1338.7 1209.94,1336.08 1282.1,1333.25 1342.85,1330.78 1417.02,1327.67 1484.96,1324.72 1547.71,1321.91 1611.28,1318.99 1682.51,1315.62 1747.06,1312.48 1820.97,1308.8 1889.4,1305.29 1956.87,1301.76 2022.37,1298.26 2089.52,1294.59 2163.09,1290.5 2269.97,1284.4 2291.89,1283.13 "/>
<polyline clip-path="url(#clip882)" style="stroke:#3da44d; stroke-linecap:round; stroke-linejoin:round; stroke-width:4; stroke-opacity:1; fill:none" points="263.091,1383.93 276.3,1383.93 398.433,1383.93 471.829,1383.94 533.885,1383.94 601.295,1383.95 663.441,1383.95 730.069,1383.96 807.263,1383.98 875.864,1384 936.021,1384.02 1001.61,1384.06 1067.58,1384.14 1104.06,1384.2 1140.53,1384.24 1175.23,1384.08 1209.94,1383.29 1227.98,1382.5 1246.02,1381.44 1264.06,1380.12 1282.1,1378.56 1297.29,1377.07 1312.48,1375.42 1327.67,1373.63 1342.85,1371.69 1361.39,1369.15 1379.94,1366.41 1398.48,1363.5 1417.02,1360.41 1450.99,1354.35 1484.96,1347.79 1516.34,1341.33 1547.71,1334.54 1579.49,1327.33 1611.28,1319.83 1646.89,1311.12 1682.51,1302.11 1714.79,1293.71 1747.06,1285.12 1784.02,1275.06 1820.97,1264.79 1855.19,1255.11 1889.4,1245.28 1956.87,1225.53 2022.37,1205.94 2089.52,1185.51 2163.09,1162.79 2269.97,1129.26 2291.89,1122.31 "/>
<polyline clip-path="url(#clip882)" style="stroke:#c271d2; stroke-linecap:round; stroke-linejoin:round; stroke-width:4; stroke-opacity:1; fill:none" points="263.091,1373.47 276.3,1373.47 398.433,1373.47 471.829,1373.47 533.885,1373.48 601.295,1373.48 663.441,1373.48 730.069,1373.48 807.263,1373.48 875.864,1373.48 936.021,1373.49 1001.61,1373.49 1067.58,1373.49 1140.53,1373.5 1209.94,1373.51 1282.1,1373.52 1342.85,1373.54 1417.02,1373.58 1484.96,1373.69 1516.34,1373.86 1547.71,1374.74 1555.66,1375.65 1563.6,1377.26 1567.58,1377.65 1571.55,1376.72 1575.52,1374.17 1579.49,1370.38 1587.44,1360.77 1595.38,1349.75 1603.33,1337.95 1611.28,1325.67 1629.08,1296.99 1646.89,1267.29 1664.7,1236.93 1682.51,1206.1 1714.79,1149.38 1747.06,1091.87 1820.97,958.339 1889.4,833.247 1956.87,709.065 2022.37,587.933 2089.52,463.338 2163.09,326.466 2269.97,127.137 2291.89,86.1857 "/>
<path clip-path="url(#clip880)" d="M273.912 352.309 L821.254 352.309 L821.254 93.1086 L273.912 93.1086  Z" fill="#ffffff" fill-rule="evenodd" fill-opacity="1"/>
<polyline clip-path="url(#clip880)" style="stroke:#000000; stroke-linecap:round; stroke-linejoin:round; stroke-width:4; stroke-opacity:1; fill:none" points="273.912,352.309 821.254,352.309 821.254,93.1086 273.912,93.1086 273.912,352.309 "/>
<polyline clip-path="url(#clip880)" style="stroke:#009af9; stroke-linecap:round; stroke-linejoin:round; stroke-width:4; stroke-opacity:1; fill:none" points="297.807,144.949 441.175,144.949 "/>
<path clip-path="url(#clip880)" d="M472.176 127.669 L476.852 127.669 L476.852 159.821 Q476.852 166.071 474.468 168.895 Q472.107 171.719 466.852 171.719 L465.07 171.719 L465.07 167.784 L466.528 167.784 Q469.63 167.784 470.903 166.048 Q472.176 164.312 472.176 159.821 L472.176 127.669 Z" fill="#000000" fill-rule="evenodd" fill-opacity="1" /><path clip-path="url(#clip880)" d="M505.671 170.099 L505.671 173.409 L481.042 173.409 L481.042 170.099 L505.671 170.099 Z" fill="#000000" fill-rule="evenodd" fill-opacity="1" /><path clip-path="url(#clip880)" d="M524.699 140.284 Q523.982 139.868 523.125 139.682 Q522.292 139.474 521.273 139.474 Q517.662 139.474 515.718 141.835 Q513.796 144.173 513.796 148.571 L513.796 162.229 L509.514 162.229 L509.514 136.303 L513.796 136.303 L513.796 140.331 Q515.139 137.969 517.292 136.835 Q519.445 135.678 522.523 135.678 Q522.963 135.678 523.495 135.747 Q524.028 135.794 524.676 135.909 L524.699 140.284 Z" fill="#000000" fill-rule="evenodd" fill-opacity="1" /><path clip-path="url(#clip880)" d="M550.301 148.201 L550.301 150.284 L530.718 150.284 Q530.995 154.682 533.357 156.997 Q535.741 159.289 539.977 159.289 Q542.431 159.289 544.722 158.687 Q547.037 158.085 549.305 156.881 L549.305 160.909 Q547.014 161.881 544.606 162.391 Q542.199 162.9 539.722 162.9 Q533.519 162.9 529.884 159.289 Q526.273 155.678 526.273 149.52 Q526.273 143.155 529.699 139.428 Q533.148 135.678 538.981 135.678 Q544.213 135.678 547.245 139.057 Q550.301 142.414 550.301 148.201 M546.042 146.951 Q545.995 143.456 544.074 141.372 Q542.176 139.289 539.028 139.289 Q535.463 139.289 533.31 141.303 Q531.181 143.317 530.857 146.974 L546.042 146.951 Z" fill="#000000" fill-rule="evenodd" fill-opacity="1" /><path clip-path="url(#clip880)" d="M557.292 126.21 L561.551 126.21 L561.551 162.229 L557.292 162.229 L557.292 126.21 Z" fill="#000000" fill-rule="evenodd" fill-opacity="1" /><path clip-path="url(#clip880)" d="M586.088 140.701 L615.763 140.701 L615.763 144.59 L586.088 144.59 L586.088 140.701 M586.088 150.145 L615.763 150.145 L615.763 154.081 L586.088 154.081 L586.088 150.145 Z" fill="#000000" fill-rule="evenodd" fill-opacity="1" /><path clip-path="url(#clip880)" d="M641.736 158.293 L649.374 158.293 L649.374 131.928 L641.064 133.595 L641.064 129.335 L649.328 127.669 L654.004 127.669 L654.004 158.293 L661.643 158.293 L661.643 162.229 L641.736 162.229 L641.736 158.293 Z" fill="#000000" fill-rule="evenodd" fill-opacity="1" /><path clip-path="url(#clip880)" d="M671.087 156.349 L675.971 156.349 L675.971 162.229 L671.087 162.229 L671.087 156.349 Z" fill="#000000" fill-rule="evenodd" fill-opacity="1" /><path clip-path="url(#clip880)" d="M696.157 130.747 Q692.545 130.747 690.717 134.312 Q688.911 137.854 688.911 144.983 Q688.911 152.09 690.717 155.655 Q692.545 159.196 696.157 159.196 Q699.791 159.196 701.596 155.655 Q703.425 152.09 703.425 144.983 Q703.425 137.854 701.596 134.312 Q699.791 130.747 696.157 130.747 M696.157 127.044 Q701.967 127.044 705.022 131.65 Q708.101 136.233 708.101 144.983 Q708.101 153.71 705.022 158.317 Q701.967 162.9 696.157 162.9 Q690.346 162.9 687.268 158.317 Q684.212 153.71 684.212 144.983 Q684.212 136.233 687.268 131.65 Q690.346 127.044 696.157 127.044 Z" fill="#000000" fill-rule="evenodd" fill-opacity="1" /><polyline clip-path="url(#clip880)" style="stroke:#e26f46; stroke-linecap:round; stroke-linejoin:round; stroke-width:4; stroke-opacity:1; fill:none" points="297.807,196.789 441.175,196.789 "/>
<path clip-path="url(#clip880)" d="M472.176 179.509 L476.852 179.509 L476.852 211.661 Q476.852 217.911 474.468 220.735 Q472.107 223.559 466.852 223.559 L465.07 223.559 L465.07 219.624 L466.528 219.624 Q469.63 219.624 470.903 217.888 Q472.176 216.152 472.176 211.661 L472.176 179.509 Z" fill="#000000" fill-rule="evenodd" fill-opacity="1" /><path clip-path="url(#clip880)" d="M505.671 221.939 L505.671 225.249 L481.042 225.249 L481.042 221.939 L505.671 221.939 Z" fill="#000000" fill-rule="evenodd" fill-opacity="1" /><path clip-path="url(#clip880)" d="M524.699 192.124 Q523.982 191.708 523.125 191.522 Q522.292 191.314 521.273 191.314 Q517.662 191.314 515.718 193.675 Q513.796 196.013 513.796 200.411 L513.796 214.069 L509.514 214.069 L509.514 188.143 L513.796 188.143 L513.796 192.171 Q515.139 189.809 517.292 188.675 Q519.445 187.518 522.523 187.518 Q522.963 187.518 523.495 187.587 Q524.028 187.634 524.676 187.749 L524.699 192.124 Z" fill="#000000" fill-rule="evenodd" fill-opacity="1" /><path clip-path="url(#clip880)" d="M550.301 200.041 L550.301 202.124 L530.718 202.124 Q530.995 206.522 533.357 208.837 Q535.741 211.129 539.977 211.129 Q542.431 211.129 544.722 210.527 Q547.037 209.925 549.305 208.721 L549.305 212.749 Q547.014 213.721 544.606 214.231 Q542.199 214.74 539.722 214.74 Q533.519 214.74 529.884 211.129 Q526.273 207.518 526.273 201.36 Q526.273 194.995 529.699 191.268 Q533.148 187.518 538.981 187.518 Q544.213 187.518 547.245 190.897 Q550.301 194.254 550.301 200.041 M546.042 198.791 Q545.995 195.296 544.074 193.212 Q542.176 191.129 539.028 191.129 Q535.463 191.129 533.31 193.143 Q531.181 195.157 530.857 198.814 L546.042 198.791 Z" fill="#000000" fill-rule="evenodd" fill-opacity="1" /><path clip-path="url(#clip880)" d="M557.292 178.05 L561.551 178.05 L561.551 214.069 L557.292 214.069 L557.292 178.05 Z" fill="#000000" fill-rule="evenodd" fill-opacity="1" /><path clip-path="url(#clip880)" d="M586.088 192.541 L615.763 192.541 L615.763 196.43 L586.088 196.43 L586.088 192.541 M586.088 201.985 L615.763 201.985 L615.763 205.921 L586.088 205.921 L586.088 201.985 Z" fill="#000000" fill-rule="evenodd" fill-opacity="1" /><path clip-path="url(#clip880)" d="M650.925 182.587 Q647.314 182.587 645.486 186.152 Q643.68 189.694 643.68 196.823 Q643.68 203.93 645.486 207.495 Q647.314 211.036 650.925 211.036 Q654.56 211.036 656.365 207.495 Q658.194 203.93 658.194 196.823 Q658.194 189.694 656.365 186.152 Q654.56 182.587 650.925 182.587 M650.925 178.884 Q656.735 178.884 659.791 183.49 Q662.87 188.073 662.87 196.823 Q662.87 205.55 659.791 210.157 Q656.735 214.74 650.925 214.74 Q645.115 214.74 642.036 210.157 Q638.981 205.55 638.981 196.823 Q638.981 188.073 642.036 183.49 Q645.115 178.884 650.925 178.884 Z" fill="#000000" fill-rule="evenodd" fill-opacity="1" /><path clip-path="url(#clip880)" d="M671.087 208.189 L675.971 208.189 L675.971 214.069 L671.087 214.069 L671.087 208.189 Z" fill="#000000" fill-rule="evenodd" fill-opacity="1" /><path clip-path="url(#clip880)" d="M696.157 182.587 Q692.545 182.587 690.717 186.152 Q688.911 189.694 688.911 196.823 Q688.911 203.93 690.717 207.495 Q692.545 211.036 696.157 211.036 Q699.791 211.036 701.596 207.495 Q703.425 203.93 703.425 196.823 Q703.425 189.694 701.596 186.152 Q699.791 182.587 696.157 182.587 M696.157 178.884 Q701.967 178.884 705.022 183.49 Q708.101 188.073 708.101 196.823 Q708.101 205.55 705.022 210.157 Q701.967 214.74 696.157 214.74 Q690.346 214.74 687.268 210.157 Q684.212 205.55 684.212 196.823 Q684.212 188.073 687.268 183.49 Q690.346 178.884 696.157 178.884 Z" fill="#000000" fill-rule="evenodd" fill-opacity="1" /><path clip-path="url(#clip880)" d="M717.129 210.133 L724.768 210.133 L724.768 183.768 L716.457 185.435 L716.457 181.175 L724.721 179.509 L729.397 179.509 L729.397 210.133 L737.036 210.133 L737.036 214.069 L717.129 214.069 L717.129 210.133 Z" fill="#000000" fill-rule="evenodd" fill-opacity="1" /><polyline clip-path="url(#clip880)" style="stroke:#3da44d; stroke-linecap:round; stroke-linejoin:round; stroke-width:4; stroke-opacity:1; fill:none" points="297.807,248.629 441.175,248.629 "/>
<path clip-path="url(#clip880)" d="M472.176 231.349 L476.852 231.349 L476.852 263.501 Q476.852 269.751 474.468 272.575 Q472.107 275.399 466.852 275.399 L465.07 275.399 L465.07 271.464 L466.528 271.464 Q469.63 271.464 470.903 269.728 Q472.176 267.992 472.176 263.501 L472.176 231.349 Z" fill="#000000" fill-rule="evenodd" fill-opacity="1" /><path clip-path="url(#clip880)" d="M505.671 273.779 L505.671 277.089 L481.042 277.089 L481.042 273.779 L505.671 273.779 Z" fill="#000000" fill-rule="evenodd" fill-opacity="1" /><path clip-path="url(#clip880)" d="M524.699 243.964 Q523.982 243.548 523.125 243.362 Q522.292 243.154 521.273 243.154 Q517.662 243.154 515.718 245.515 Q513.796 247.853 513.796 252.251 L513.796 265.909 L509.514 265.909 L509.514 239.983 L513.796 239.983 L513.796 244.011 Q515.139 241.649 517.292 240.515 Q519.445 239.358 522.523 239.358 Q522.963 239.358 523.495 239.427 Q524.028 239.474 524.676 239.589 L524.699 243.964 Z" fill="#000000" fill-rule="evenodd" fill-opacity="1" /><path clip-path="url(#clip880)" d="M550.301 251.881 L550.301 253.964 L530.718 253.964 Q530.995 258.362 533.357 260.677 Q535.741 262.969 539.977 262.969 Q542.431 262.969 544.722 262.367 Q547.037 261.765 549.305 260.561 L549.305 264.589 Q547.014 265.561 544.606 266.071 Q542.199 266.58 539.722 266.58 Q533.519 266.58 529.884 262.969 Q526.273 259.358 526.273 253.2 Q526.273 246.835 529.699 243.108 Q533.148 239.358 538.981 239.358 Q544.213 239.358 547.245 242.737 Q550.301 246.094 550.301 251.881 M546.042 250.631 Q545.995 247.136 544.074 245.052 Q542.176 242.969 539.028 242.969 Q535.463 242.969 533.31 244.983 Q531.181 246.997 530.857 250.654 L546.042 250.631 Z" fill="#000000" fill-rule="evenodd" fill-opacity="1" /><path clip-path="url(#clip880)" d="M557.292 229.89 L561.551 229.89 L561.551 265.909 L557.292 265.909 L557.292 229.89 Z" fill="#000000" fill-rule="evenodd" fill-opacity="1" /><path clip-path="url(#clip880)" d="M586.088 244.381 L615.763 244.381 L615.763 248.27 L586.088 248.27 L586.088 244.381 M586.088 253.825 L615.763 253.825 L615.763 257.761 L586.088 257.761 L586.088 253.825 Z" fill="#000000" fill-rule="evenodd" fill-opacity="1" /><path clip-path="url(#clip880)" d="M650.925 234.427 Q647.314 234.427 645.486 237.992 Q643.68 241.534 643.68 248.663 Q643.68 255.77 645.486 259.335 Q647.314 262.876 650.925 262.876 Q654.56 262.876 656.365 259.335 Q658.194 255.77 658.194 248.663 Q658.194 241.534 656.365 237.992 Q654.56 234.427 650.925 234.427 M650.925 230.724 Q656.735 230.724 659.791 235.33 Q662.87 239.913 662.87 248.663 Q662.87 257.39 659.791 261.997 Q656.735 266.58 650.925 266.58 Q645.115 266.58 642.036 261.997 Q638.981 257.39 638.981 248.663 Q638.981 239.913 642.036 235.33 Q645.115 230.724 650.925 230.724 Z" fill="#000000" fill-rule="evenodd" fill-opacity="1" /><path clip-path="url(#clip880)" d="M671.087 260.029 L675.971 260.029 L675.971 265.909 L671.087 265.909 L671.087 260.029 Z" fill="#000000" fill-rule="evenodd" fill-opacity="1" /><path clip-path="url(#clip880)" d="M696.157 234.427 Q692.545 234.427 690.717 237.992 Q688.911 241.534 688.911 248.663 Q688.911 255.77 690.717 259.335 Q692.545 262.876 696.157 262.876 Q699.791 262.876 701.596 259.335 Q703.425 255.77 703.425 248.663 Q703.425 241.534 701.596 237.992 Q699.791 234.427 696.157 234.427 M696.157 230.724 Q701.967 230.724 705.022 235.33 Q708.101 239.913 708.101 248.663 Q708.101 257.39 705.022 261.997 Q701.967 266.58 696.157 266.58 Q690.346 266.58 687.268 261.997 Q684.212 257.39 684.212 248.663 Q684.212 239.913 687.268 235.33 Q690.346 230.724 696.157 230.724 Z" fill="#000000" fill-rule="evenodd" fill-opacity="1" /><path clip-path="url(#clip880)" d="M726.318 234.427 Q722.707 234.427 720.879 237.992 Q719.073 241.534 719.073 248.663 Q719.073 255.77 720.879 259.335 Q722.707 262.876 726.318 262.876 Q729.953 262.876 731.758 259.335 Q733.587 255.77 733.587 248.663 Q733.587 241.534 731.758 237.992 Q729.953 234.427 726.318 234.427 M726.318 230.724 Q732.129 230.724 735.184 235.33 Q738.263 239.913 738.263 248.663 Q738.263 257.39 735.184 261.997 Q732.129 266.58 726.318 266.58 Q720.508 266.58 717.43 261.997 Q714.374 257.39 714.374 248.663 Q714.374 239.913 717.43 235.33 Q720.508 230.724 726.318 230.724 Z" fill="#000000" fill-rule="evenodd" fill-opacity="1" /><path clip-path="url(#clip880)" d="M747.291 261.973 L754.929 261.973 L754.929 235.608 L746.619 237.275 L746.619 233.015 L754.883 231.349 L759.559 231.349 L759.559 261.973 L767.198 261.973 L767.198 265.909 L747.291 265.909 L747.291 261.973 Z" fill="#000000" fill-rule="evenodd" fill-opacity="1" /><polyline clip-path="url(#clip880)" style="stroke:#c271d2; stroke-linecap:round; stroke-linejoin:round; stroke-width:4; stroke-opacity:1; fill:none" points="297.807,300.469 441.175,300.469 "/>
<path clip-path="url(#clip880)" d="M472.176 283.189 L476.852 283.189 L476.852 315.341 Q476.852 321.591 474.468 324.415 Q472.107 327.239 466.852 327.239 L465.07 327.239 L465.07 323.304 L466.528 323.304 Q469.63 323.304 470.903 321.568 Q472.176 319.832 472.176 315.341 L472.176 283.189 Z" fill="#000000" fill-rule="evenodd" fill-opacity="1" /><path clip-path="url(#clip880)" d="M505.671 325.619 L505.671 328.929 L481.042 328.929 L481.042 325.619 L505.671 325.619 Z" fill="#000000" fill-rule="evenodd" fill-opacity="1" /><path clip-path="url(#clip880)" d="M524.699 295.804 Q523.982 295.388 523.125 295.202 Q522.292 294.994 521.273 294.994 Q517.662 294.994 515.718 297.355 Q513.796 299.693 513.796 304.091 L513.796 317.749 L509.514 317.749 L509.514 291.823 L513.796 291.823 L513.796 295.851 Q515.139 293.489 517.292 292.355 Q519.445 291.198 522.523 291.198 Q522.963 291.198 523.495 291.267 Q524.028 291.314 524.676 291.429 L524.699 295.804 Z" fill="#000000" fill-rule="evenodd" fill-opacity="1" /><path clip-path="url(#clip880)" d="M550.301 303.721 L550.301 305.804 L530.718 305.804 Q530.995 310.202 533.357 312.517 Q535.741 314.809 539.977 314.809 Q542.431 314.809 544.722 314.207 Q547.037 313.605 549.305 312.401 L549.305 316.429 Q547.014 317.401 544.606 317.911 Q542.199 318.42 539.722 318.42 Q533.519 318.42 529.884 314.809 Q526.273 311.198 526.273 305.04 Q526.273 298.675 529.699 294.948 Q533.148 291.198 538.981 291.198 Q544.213 291.198 547.245 294.577 Q550.301 297.934 550.301 303.721 M546.042 302.471 Q545.995 298.976 544.074 296.892 Q542.176 294.809 539.028 294.809 Q535.463 294.809 533.31 296.823 Q531.181 298.837 530.857 302.494 L546.042 302.471 Z" fill="#000000" fill-rule="evenodd" fill-opacity="1" /><path clip-path="url(#clip880)" d="M557.292 281.73 L561.551 281.73 L561.551 317.749 L557.292 317.749 L557.292 281.73 Z" fill="#000000" fill-rule="evenodd" fill-opacity="1" /><path clip-path="url(#clip880)" d="M586.088 296.221 L615.763 296.221 L615.763 300.11 L586.088 300.11 L586.088 296.221 M586.088 305.665 L615.763 305.665 L615.763 309.601 L586.088 309.601 L586.088 305.665 Z" fill="#000000" fill-rule="evenodd" fill-opacity="1" /><path clip-path="url(#clip880)" d="M650.925 286.267 Q647.314 286.267 645.486 289.832 Q643.68 293.374 643.68 300.503 Q643.68 307.61 645.486 311.175 Q647.314 314.716 650.925 314.716 Q654.56 314.716 656.365 311.175 Q658.194 307.61 658.194 300.503 Q658.194 293.374 656.365 289.832 Q654.56 286.267 650.925 286.267 M650.925 282.564 Q656.735 282.564 659.791 287.17 Q662.87 291.753 662.87 300.503 Q662.87 309.23 659.791 313.837 Q656.735 318.42 650.925 318.42 Q645.115 318.42 642.036 313.837 Q638.981 309.23 638.981 300.503 Q638.981 291.753 642.036 287.17 Q645.115 282.564 650.925 282.564 Z" fill="#000000" fill-rule="evenodd" fill-opacity="1" /><path clip-path="url(#clip880)" d="M671.087 311.869 L675.971 311.869 L675.971 317.749 L671.087 317.749 L671.087 311.869 Z" fill="#000000" fill-rule="evenodd" fill-opacity="1" /><path clip-path="url(#clip880)" d="M696.157 286.267 Q692.545 286.267 690.717 289.832 Q688.911 293.374 688.911 300.503 Q688.911 307.61 690.717 311.175 Q692.545 314.716 696.157 314.716 Q699.791 314.716 701.596 311.175 Q703.425 307.61 703.425 300.503 Q703.425 293.374 701.596 289.832 Q699.791 286.267 696.157 286.267 M696.157 282.564 Q701.967 282.564 705.022 287.17 Q708.101 291.753 708.101 300.503 Q708.101 309.23 705.022 313.837 Q701.967 318.42 696.157 318.42 Q690.346 318.42 687.268 313.837 Q684.212 309.23 684.212 300.503 Q684.212 291.753 687.268 287.17 Q690.346 282.564 696.157 282.564 Z" fill="#000000" fill-rule="evenodd" fill-opacity="1" /><path clip-path="url(#clip880)" d="M726.318 286.267 Q722.707 286.267 720.879 289.832 Q719.073 293.374 719.073 300.503 Q719.073 307.61 720.879 311.175 Q722.707 314.716 726.318 314.716 Q729.953 314.716 731.758 311.175 Q733.587 307.61 733.587 300.503 Q733.587 293.374 731.758 289.832 Q729.953 286.267 726.318 286.267 M726.318 282.564 Q732.129 282.564 735.184 287.17 Q738.263 291.753 738.263 300.503 Q738.263 309.23 735.184 313.837 Q732.129 318.42 726.318 318.42 Q720.508 318.42 717.43 313.837 Q714.374 309.23 714.374 300.503 Q714.374 291.753 717.43 287.17 Q720.508 282.564 726.318 282.564 Z" fill="#000000" fill-rule="evenodd" fill-opacity="1" /><path clip-path="url(#clip880)" d="M756.48 286.267 Q752.869 286.267 751.041 289.832 Q749.235 293.374 749.235 300.503 Q749.235 307.61 751.041 311.175 Q752.869 314.716 756.48 314.716 Q760.115 314.716 761.92 311.175 Q763.749 307.61 763.749 300.503 Q763.749 293.374 761.92 289.832 Q760.115 286.267 756.48 286.267 M756.48 282.564 Q762.29 282.564 765.346 287.17 Q768.425 291.753 768.425 300.503 Q768.425 309.23 765.346 313.837 Q762.29 318.42 756.48 318.42 Q750.67 318.42 747.591 313.837 Q744.536 309.23 744.536 300.503 Q744.536 291.753 747.591 287.17 Q750.67 282.564 756.48 282.564 Z" fill="#000000" fill-rule="evenodd" fill-opacity="1" /><path clip-path="url(#clip880)" d="M777.452 313.813 L785.091 313.813 L785.091 287.448 L776.781 289.115 L776.781 284.855 L785.045 283.189 L789.721 283.189 L789.721 313.813 L797.36 313.813 L797.36 317.749 L777.452 317.749 L777.452 313.813 Z" fill="#000000" fill-rule="evenodd" fill-opacity="1" /></svg>
