<?xml version="1.0" encoding="utf-8"?>
<svg xmlns="http://www.w3.org/2000/svg" xmlns:xlink="http://www.w3.org/1999/xlink" width="600" height="400" viewBox="0 0 2400 1600">
<defs>
  <clipPath id="clip580">
    <rect x="0" y="0" width="2400" height="1600"/>
  </clipPath>
</defs>
<path clip-path="url(#clip580)" d="M0 1600 L2400 1600 L2400 0 L0 0  Z" fill="#ffffff" fill-rule="evenodd" fill-opacity="1"/>
<defs>
  <clipPath id="clip581">
    <rect x="480" y="0" width="1681" height="1600"/>
  </clipPath>
</defs>
<path clip-path="url(#clip580)" d="M186.274 1486.45 L2352.76 1486.45 L2352.76 47.2441 L186.274 47.2441  Z" fill="#ffffff" fill-rule="evenodd" fill-opacity="1"/>
<defs>
  <clipPath id="clip582">
    <rect x="186" y="47" width="2167" height="1440"/>
  </clipPath>
</defs>
<polyline clip-path="url(#clip582)" style="stroke:#000000; stroke-linecap:round; stroke-linejoin:round; stroke-width:2; stroke-opacity:0.1; fill:none" points="247.59,1486.45 247.59,47.2441 "/>
<polyline clip-path="url(#clip582)" style="stroke:#000000; stroke-linecap:round; stroke-linejoin:round; stroke-width:2; stroke-opacity:0.1; fill:none" points="758.552,1486.45 758.552,47.2441 "/>
<polyline clip-path="url(#clip582)" style="stroke:#000000; stroke-linecap:round; stroke-linejoin:round; stroke-width:2; stroke-opacity:0.1; fill:none" points="1269.51,1486.45 1269.51,47.2441 "/>
<polyline clip-path="url(#clip582)" style="stroke:#000000; stroke-linecap:round; stroke-linejoin:round; stroke-width:2; stroke-opacity:0.1; fill:none" points="1780.48,1486.45 1780.48,47.2441 "/>
<polyline clip-path="url(#clip582)" style="stroke:#000000; stroke-linecap:round; stroke-linejoin:round; stroke-width:2; stroke-opacity:0.1; fill:none" points="2291.44,1486.45 2291.44,47.2441 "/>
<polyline clip-path="url(#clip580)" style="stroke:#000000; stroke-linecap:round; stroke-linejoin:round; stroke-width:4; stroke-opacity:1; fill:none" points="186.274,1486.45 2352.76,1486.45 "/>
<polyline clip-path="url(#clip580)" style="stroke:#000000; stroke-linecap:round; stroke-linejoin:round; stroke-width:4; stroke-opacity:1; fill:none" points="247.59,1486.45 247.59,1467.55 "/>
<polyline clip-path="url(#clip580)" style="stroke:#000000; stroke-linecap:round; stroke-linejoin:round; stroke-width:4; stroke-opacity:1; fill:none" points="758.552,1486.45 758.552,1467.55 "/>
<polyline clip-path="url(#clip580)" style="stroke:#000000; stroke-linecap:round; stroke-linejoin:round; stroke-width:4; stroke-opacity:1; fill:none" points="1269.51,1486.45 1269.51,1467.55 "/>
<polyline clip-path="url(#clip580)" style="stroke:#000000; stroke-linecap:round; stroke-linejoin:round; stroke-width:4; stroke-opacity:1; fill:none" points="1780.48,1486.45 1780.48,1467.55 "/>
<polyline clip-path="url(#clip580)" style="stroke:#000000; stroke-linecap:round; stroke-linejoin:round; stroke-width:4; stroke-opacity:1; fill:none" points="2291.44,1486.45 2291.44,1467.55 "/>
<path clip-path="url(#clip580)" d="M247.59 1517.37 Q243.978 1517.37 242.15 1520.93 Q240.344 1524.47 240.344 1531.6 Q240.344 1538.71 242.15 1542.27 Q243.978 1545.82 247.59 1545.82 Q251.224 1545.82 253.029 1542.27 Q254.858 1538.71 254.858 1531.6 Q254.858 1524.47 253.029 1520.93 Q251.224 1517.37 247.59 1517.37 M247.59 1513.66 Q253.4 1513.66 256.455 1518.27 Q259.534 1522.85 259.534 1531.6 Q259.534 1540.33 256.455 1544.94 Q253.4 1549.52 247.59 1549.52 Q241.779 1549.52 238.701 1544.94 Q235.645 1540.33 235.645 1531.6 Q235.645 1522.85 238.701 1518.27 Q241.779 1513.66 247.59 1513.66 Z" fill="#000000" fill-rule="evenodd" fill-opacity="1" /><path clip-path="url(#clip580)" d="M733.251 1514.29 L751.608 1514.29 L751.608 1518.22 L737.534 1518.22 L737.534 1526.7 Q738.552 1526.35 739.571 1526.19 Q740.589 1526 741.608 1526 Q747.395 1526 750.775 1529.17 Q754.154 1532.34 754.154 1537.76 Q754.154 1543.34 750.682 1546.44 Q747.21 1549.52 740.89 1549.52 Q738.714 1549.52 736.446 1549.15 Q734.201 1548.78 731.793 1548.04 L731.793 1543.34 Q733.876 1544.47 736.099 1545.03 Q738.321 1545.58 740.798 1545.58 Q744.802 1545.58 747.14 1543.48 Q749.478 1541.37 749.478 1537.76 Q749.478 1534.15 747.14 1532.04 Q744.802 1529.94 740.798 1529.94 Q738.923 1529.94 737.048 1530.35 Q735.196 1530.77 733.251 1531.65 L733.251 1514.29 Z" fill="#000000" fill-rule="evenodd" fill-opacity="1" /><path clip-path="url(#clip580)" d="M773.367 1517.37 Q769.756 1517.37 767.927 1520.93 Q766.122 1524.47 766.122 1531.6 Q766.122 1538.71 767.927 1542.27 Q769.756 1545.82 773.367 1545.82 Q777.001 1545.82 778.807 1542.27 Q780.635 1538.71 780.635 1531.6 Q780.635 1524.47 778.807 1520.93 Q777.001 1517.37 773.367 1517.37 M773.367 1513.66 Q779.177 1513.66 782.233 1518.27 Q785.311 1522.85 785.311 1531.6 Q785.311 1540.33 782.233 1544.94 Q779.177 1549.52 773.367 1549.52 Q767.557 1549.52 764.478 1544.94 Q761.423 1540.33 761.423 1531.6 Q761.423 1522.85 764.478 1518.27 Q767.557 1513.66 773.367 1513.66 Z" fill="#000000" fill-rule="evenodd" fill-opacity="1" /><path clip-path="url(#clip580)" d="M1229.12 1544.91 L1236.76 1544.91 L1236.76 1518.55 L1228.45 1520.21 L1228.45 1515.95 L1236.71 1514.29 L1241.39 1514.29 L1241.39 1544.91 L1249.03 1544.91 L1249.03 1548.85 L1229.12 1548.85 L1229.12 1544.91 Z" fill="#000000" fill-rule="evenodd" fill-opacity="1" /><path clip-path="url(#clip580)" d="M1268.47 1517.37 Q1264.86 1517.37 1263.03 1520.93 Q1261.23 1524.47 1261.23 1531.6 Q1261.23 1538.71 1263.03 1542.27 Q1264.86 1545.82 1268.47 1545.82 Q1272.11 1545.82 1273.91 1542.27 Q1275.74 1538.71 1275.74 1531.6 Q1275.74 1524.47 1273.91 1520.93 Q1272.11 1517.37 1268.47 1517.37 M1268.47 1513.66 Q1274.28 1513.66 1277.34 1518.27 Q1280.42 1522.85 1280.42 1531.6 Q1280.42 1540.33 1277.34 1544.94 Q1274.28 1549.52 1268.47 1549.52 Q1262.66 1549.52 1259.58 1544.94 Q1256.53 1540.33 1256.53 1531.6 Q1256.53 1522.85 1259.58 1518.27 Q1262.66 1513.66 1268.47 1513.66 Z" fill="#000000" fill-rule="evenodd" fill-opacity="1" /><path clip-path="url(#clip580)" d="M1298.64 1517.37 Q1295.02 1517.37 1293.2 1520.93 Q1291.39 1524.47 1291.39 1531.6 Q1291.39 1538.71 1293.2 1542.27 Q1295.02 1545.82 1298.64 1545.82 Q1302.27 1545.82 1304.07 1542.27 Q1305.9 1538.71 1305.9 1531.6 Q1305.9 1524.47 1304.07 1520.93 Q1302.27 1517.37 1298.64 1517.37 M1298.64 1513.66 Q1304.45 1513.66 1307.5 1518.27 Q1310.58 1522.85 1310.58 1531.6 Q1310.58 1540.33 1307.5 1544.94 Q1304.45 1549.52 1298.64 1549.52 Q1292.83 1549.52 1289.75 1544.94 Q1286.69 1540.33 1286.69 1531.6 Q1286.69 1522.85 1289.75 1518.27 Q1292.83 1513.66 1298.64 1513.66 Z" fill="#000000" fill-rule="evenodd" fill-opacity="1" /><path clip-path="url(#clip580)" d="M1740.08 1544.91 L1747.72 1544.91 L1747.72 1518.55 L1739.41 1520.21 L1739.41 1515.95 L1747.68 1514.29 L1752.35 1514.29 L1752.35 1544.91 L1759.99 1544.91 L1759.99 1548.85 L1740.08 1548.85 L1740.08 1544.91 Z" fill="#000000" fill-rule="evenodd" fill-opacity="1" /><path clip-path="url(#clip580)" d="M1769.48 1514.29 L1787.84 1514.29 L1787.84 1518.22 L1773.76 1518.22 L1773.76 1526.7 Q1774.78 1526.35 1775.8 1526.19 Q1776.82 1526 1777.84 1526 Q1783.63 1526 1787.01 1529.17 Q1790.39 1532.34 1790.39 1537.76 Q1790.39 1543.34 1786.91 1546.44 Q1783.44 1549.52 1777.12 1549.52 Q1774.95 1549.52 1772.68 1549.15 Q1770.43 1548.78 1768.02 1548.04 L1768.02 1543.34 Q1770.11 1544.47 1772.33 1545.03 Q1774.55 1545.58 1777.03 1545.58 Q1781.03 1545.58 1783.37 1543.48 Q1785.71 1541.37 1785.71 1537.76 Q1785.71 1534.15 1783.37 1532.04 Q1781.03 1529.94 1777.03 1529.94 Q1775.15 1529.94 1773.28 1530.35 Q1771.43 1530.77 1769.48 1531.65 L1769.48 1514.29 Z" fill="#000000" fill-rule="evenodd" fill-opacity="1" /><path clip-path="url(#clip580)" d="M1809.6 1517.37 Q1805.99 1517.37 1804.16 1520.93 Q1802.35 1524.47 1802.35 1531.6 Q1802.35 1538.71 1804.16 1542.27 Q1805.99 1545.82 1809.6 1545.82 Q1813.23 1545.82 1815.04 1542.27 Q1816.87 1538.71 1816.87 1531.6 Q1816.87 1524.47 1815.04 1520.93 Q1813.23 1517.37 1809.6 1517.37 M1809.6 1513.66 Q1815.41 1513.66 1818.46 1518.27 Q1821.54 1522.85 1821.54 1531.6 Q1821.54 1540.33 1818.46 1544.94 Q1815.41 1549.52 1809.6 1549.52 Q1803.79 1549.52 1800.71 1544.94 Q1797.65 1540.33 1797.65 1531.6 Q1797.65 1522.85 1800.71 1518.27 Q1803.79 1513.66 1809.6 1513.66 Z" fill="#000000" fill-rule="evenodd" fill-opacity="1" /><path clip-path="url(#clip580)" d="M2255.13 1544.91 L2271.45 1544.91 L2271.45 1548.85 L2249.51 1548.85 L2249.51 1544.91 Q2252.17 1542.16 2256.75 1537.53 Q2261.36 1532.88 2262.54 1531.53 Q2264.79 1529.01 2265.67 1527.27 Q2266.57 1525.51 2266.57 1523.82 Q2266.57 1521.07 2264.62 1519.33 Q2262.7 1517.6 2259.6 1517.6 Q2257.4 1517.6 2254.95 1518.36 Q2252.52 1519.13 2249.74 1520.68 L2249.74 1515.95 Q2252.56 1514.82 2255.02 1514.24 Q2257.47 1513.66 2259.51 1513.66 Q2264.88 1513.66 2268.07 1516.35 Q2271.27 1519.03 2271.27 1523.52 Q2271.27 1525.65 2270.46 1527.57 Q2269.67 1529.47 2267.56 1532.07 Q2266.98 1532.74 2263.88 1535.95 Q2260.78 1539.15 2255.13 1544.91 Z" fill="#000000" fill-rule="evenodd" fill-opacity="1" /><path clip-path="url(#clip580)" d="M2291.27 1517.37 Q2287.66 1517.37 2285.83 1520.93 Q2284.02 1524.47 2284.02 1531.6 Q2284.02 1538.71 2285.83 1542.27 Q2287.66 1545.82 2291.27 1545.82 Q2294.9 1545.82 2296.71 1542.27 Q2298.54 1538.71 2298.54 1531.6 Q2298.54 1524.47 2296.71 1520.93 Q2294.9 1517.37 2291.27 1517.37 M2291.27 1513.66 Q2297.08 1513.66 2300.13 1518.27 Q2303.21 1522.85 2303.21 1531.6 Q2303.21 1540.33 2300.13 1544.94 Q2297.08 1549.52 2291.27 1549.52 Q2285.46 1549.52 2282.38 1544.94 Q2279.32 1540.33 2279.32 1531.6 Q2279.32 1522.85 2282.38 1518.27 Q2285.46 1513.66 2291.27 1513.66 Z" fill="#000000" fill-rule="evenodd" fill-opacity="1" /><path clip-path="url(#clip580)" d="M2321.43 1517.37 Q2317.82 1517.37 2315.99 1520.93 Q2314.18 1524.47 2314.18 1531.6 Q2314.18 1538.71 2315.99 1542.27 Q2317.82 1545.82 2321.43 1545.82 Q2325.06 1545.82 2326.87 1542.27 Q2328.7 1538.71 2328.7 1531.6 Q2328.7 1524.47 2326.87 1520.93 Q2325.06 1517.37 2321.43 1517.37 M2321.43 1513.66 Q2327.24 1513.66 2330.29 1518.27 Q2333.37 1522.85 2333.37 1531.6 Q2333.37 1540.33 2330.29 1544.94 Q2327.24 1549.52 2321.43 1549.52 Q2315.62 1549.52 2312.54 1544.94 Q2309.48 1540.33 2309.48 1531.6 Q2309.48 1522.85 2312.54 1518.27 Q2315.62 1513.66 2321.43 1513.66 Z" fill="#000000" fill-rule="evenodd" fill-opacity="1" /><polyline clip-path="url(#clip582)" style="stroke:#000000; stroke-linecap:round; stroke-linejoin:round; stroke-width:2; stroke-opacity:0.1; fill:none" points="186.274,1445.72 2352.76,1445.72 "/>
<polyline clip-path="url(#clip582)" style="stroke:#000000; stroke-linecap:round; stroke-linejoin:round; stroke-width:2; stroke-opacity:0.1; fill:none" points="186.274,1106.28 2352.76,1106.28 "/>
<polyline clip-path="url(#clip582)" style="stroke:#000000; stroke-linecap:round; stroke-linejoin:round; stroke-width:2; stroke-opacity:0.1; fill:none" points="186.274,766.846 2352.76,766.846 "/>
<polyline clip-path="url(#clip582)" style="stroke:#000000; stroke-linecap:round; stroke-linejoin:round; stroke-width:2; stroke-opacity:0.1; fill:none" points="186.274,427.411 2352.76,427.411 "/>
<polyline clip-path="url(#clip582)" style="stroke:#000000; stroke-linecap:round; stroke-linejoin:round; stroke-width:2; stroke-opacity:0.1; fill:none" points="186.274,87.9763 2352.76,87.9763 "/>
<polyline clip-path="url(#clip580)" style="stroke:#000000; stroke-linecap:round; stroke-linejoin:round; stroke-width:4; stroke-opacity:1; fill:none" points="186.274,1486.45 186.274,47.2441 "/>
<polyline clip-path="url(#clip580)" style="stroke:#000000; stroke-linecap:round; stroke-linejoin:round; stroke-width:4; stroke-opacity:1; fill:none" points="186.274,1445.72 205.172,1445.72 "/>
<polyline clip-path="url(#clip580)" style="stroke:#000000; stroke-linecap:round; stroke-linejoin:round; stroke-width:4; stroke-opacity:1; fill:none" points="186.274,1106.28 205.172,1106.28 "/>
<polyline clip-path="url(#clip580)" style="stroke:#000000; stroke-linecap:round; stroke-linejoin:round; stroke-width:4; stroke-opacity:1; fill:none" points="186.274,766.846 205.172,766.846 "/>
<polyline clip-path="url(#clip580)" style="stroke:#000000; stroke-linecap:round; stroke-linejoin:round; stroke-width:4; stroke-opacity:1; fill:none" points="186.274,427.411 205.172,427.411 "/>
<polyline clip-path="url(#clip580)" style="stroke:#000000; stroke-linecap:round; stroke-linejoin:round; stroke-width:4; stroke-opacity:1; fill:none" points="186.274,87.9763 205.172,87.9763 "/>
<path clip-path="url(#clip580)" d="M62.9365 1431.51 Q59.3254 1431.51 57.4967 1435.08 Q55.6912 1438.62 55.6912 1445.75 Q55.6912 1452.86 57.4967 1456.42 Q59.3254 1459.96 62.9365 1459.96 Q66.5707 1459.96 68.3763 1456.42 Q70.205 1452.86 70.205 1445.75 Q70.205 1438.62 68.3763 1435.08 Q66.5707 1431.51 62.9365 1431.51 M62.9365 1427.81 Q68.7467 1427.81 71.8022 1432.42 Q74.8809 1437 74.8809 1445.75 Q74.8809 1454.48 71.8022 1459.08 Q68.7467 1463.67 62.9365 1463.67 Q57.1264 1463.67 54.0477 1459.08 Q50.9921 1454.48 50.9921 1445.75 Q50.9921 1437 54.0477 1432.42 Q57.1264 1427.81 62.9365 1427.81 Z" fill="#000000" fill-rule="evenodd" fill-opacity="1" /><path clip-path="url(#clip580)" d="M83.0984 1457.12 L87.9827 1457.12 L87.9827 1463 L83.0984 1463 L83.0984 1457.12 Z" fill="#000000" fill-rule="evenodd" fill-opacity="1" /><path clip-path="url(#clip580)" d="M108.168 1431.51 Q104.557 1431.51 102.728 1435.08 Q100.922 1438.62 100.922 1445.75 Q100.922 1452.86 102.728 1456.42 Q104.557 1459.96 108.168 1459.96 Q111.802 1459.96 113.608 1456.42 Q115.436 1452.86 115.436 1445.75 Q115.436 1438.62 113.608 1435.08 Q111.802 1431.51 108.168 1431.51 M108.168 1427.81 Q113.978 1427.81 117.033 1432.42 Q120.112 1437 120.112 1445.75 Q120.112 1454.48 117.033 1459.08 Q113.978 1463.67 108.168 1463.67 Q102.358 1463.67 99.2789 1459.08 Q96.2234 1454.48 96.2234 1445.75 Q96.2234 1437 99.2789 1432.42 Q102.358 1427.81 108.168 1427.81 Z" fill="#000000" fill-rule="evenodd" fill-opacity="1" /><path clip-path="url(#clip580)" d="M138.33 1431.51 Q134.719 1431.51 132.89 1435.08 Q131.084 1438.62 131.084 1445.75 Q131.084 1452.86 132.89 1456.42 Q134.719 1459.96 138.33 1459.96 Q141.964 1459.96 143.769 1456.42 Q145.598 1452.86 145.598 1445.75 Q145.598 1438.62 143.769 1435.08 Q141.964 1431.51 138.33 1431.51 M138.33 1427.81 Q144.14 1427.81 147.195 1432.42 Q150.274 1437 150.274 1445.75 Q150.274 1454.48 147.195 1459.08 Q144.14 1463.67 138.33 1463.67 Q132.519 1463.67 129.441 1459.08 Q126.385 1454.48 126.385 1445.75 Q126.385 1437 129.441 1432.42 Q132.519 1427.81 138.33 1427.81 Z" fill="#000000" fill-rule="evenodd" fill-opacity="1" /><path clip-path="url(#clip580)" d="M63.9319 1092.08 Q60.3208 1092.08 58.4921 1095.64 Q56.6865 1099.19 56.6865 1106.32 Q56.6865 1113.42 58.4921 1116.99 Q60.3208 1120.53 63.9319 1120.53 Q67.5661 1120.53 69.3717 1116.99 Q71.2004 1113.42 71.2004 1106.32 Q71.2004 1099.19 69.3717 1095.64 Q67.5661 1092.08 63.9319 1092.08 M63.9319 1088.38 Q69.742 1088.38 72.7976 1092.98 Q75.8763 1097.57 75.8763 1106.32 Q75.8763 1115.04 72.7976 1119.65 Q69.742 1124.23 63.9319 1124.23 Q58.1217 1124.23 55.043 1119.65 Q51.9875 1115.04 51.9875 1106.32 Q51.9875 1097.57 55.043 1092.98 Q58.1217 1088.38 63.9319 1088.38 Z" fill="#000000" fill-rule="evenodd" fill-opacity="1" /><path clip-path="url(#clip580)" d="M84.0938 1117.68 L88.978 1117.68 L88.978 1123.56 L84.0938 1123.56 L84.0938 1117.68 Z" fill="#000000" fill-rule="evenodd" fill-opacity="1" /><path clip-path="url(#clip580)" d="M103.191 1119.63 L119.51 1119.63 L119.51 1123.56 L97.566 1123.56 L97.566 1119.63 Q100.228 1116.87 104.811 1112.24 Q109.418 1107.59 110.598 1106.25 Q112.844 1103.72 113.723 1101.99 Q114.626 1100.23 114.626 1098.54 Q114.626 1095.78 112.682 1094.05 Q110.76 1092.31 107.658 1092.31 Q105.459 1092.31 103.006 1093.07 Q100.575 1093.84 97.7974 1095.39 L97.7974 1090.67 Q100.621 1089.53 103.075 1088.95 Q105.529 1088.38 107.566 1088.38 Q112.936 1088.38 116.131 1091.06 Q119.325 1093.75 119.325 1098.24 Q119.325 1100.37 118.515 1102.29 Q117.728 1104.19 115.621 1106.78 Q115.043 1107.45 111.941 1110.67 Q108.839 1113.86 103.191 1119.63 Z" fill="#000000" fill-rule="evenodd" fill-opacity="1" /><path clip-path="url(#clip580)" d="M129.371 1089 L147.728 1089 L147.728 1092.94 L133.654 1092.94 L133.654 1101.41 Q134.672 1101.06 135.691 1100.9 Q136.709 1100.71 137.728 1100.71 Q143.515 1100.71 146.894 1103.89 Q150.274 1107.06 150.274 1112.47 Q150.274 1118.05 146.802 1121.15 Q143.33 1124.23 137.01 1124.23 Q134.834 1124.23 132.566 1123.86 Q130.32 1123.49 127.913 1122.75 L127.913 1118.05 Q129.996 1119.19 132.219 1119.74 Q134.441 1120.3 136.918 1120.3 Q140.922 1120.3 143.26 1118.19 Q145.598 1116.08 145.598 1112.47 Q145.598 1108.86 143.26 1106.76 Q140.922 1104.65 136.918 1104.65 Q135.043 1104.65 133.168 1105.07 Q131.316 1105.48 129.371 1106.36 L129.371 1089 Z" fill="#000000" fill-rule="evenodd" fill-opacity="1" /><path clip-path="url(#clip580)" d="M62.9365 752.645 Q59.3254 752.645 57.4967 756.209 Q55.6912 759.751 55.6912 766.881 Q55.6912 773.987 57.4967 777.552 Q59.3254 781.094 62.9365 781.094 Q66.5707 781.094 68.3763 777.552 Q70.205 773.987 70.205 766.881 Q70.205 759.751 68.3763 756.209 Q66.5707 752.645 62.9365 752.645 M62.9365 748.941 Q68.7467 748.941 71.8022 753.547 Q74.8809 758.131 74.8809 766.881 Q74.8809 775.608 71.8022 780.214 Q68.7467 784.797 62.9365 784.797 Q57.1264 784.797 54.0477 780.214 Q50.9921 775.608 50.9921 766.881 Q50.9921 758.131 54.0477 753.547 Q57.1264 748.941 62.9365 748.941 Z" fill="#000000" fill-rule="evenodd" fill-opacity="1" /><path clip-path="url(#clip580)" d="M83.0984 778.246 L87.9827 778.246 L87.9827 784.126 L83.0984 784.126 L83.0984 778.246 Z" fill="#000000" fill-rule="evenodd" fill-opacity="1" /><path clip-path="url(#clip580)" d="M98.2141 749.566 L116.57 749.566 L116.57 753.501 L102.496 753.501 L102.496 761.973 Q103.515 761.626 104.534 761.464 Q105.552 761.279 106.571 761.279 Q112.358 761.279 115.737 764.45 Q119.117 767.621 119.117 773.038 Q119.117 778.617 115.645 781.719 Q112.172 784.797 105.853 784.797 Q103.677 784.797 101.409 784.427 Q99.1632 784.057 96.7558 783.316 L96.7558 778.617 Q98.8391 779.751 101.061 780.307 Q103.284 780.862 105.76 780.862 Q109.765 780.862 112.103 778.756 Q114.441 776.649 114.441 773.038 Q114.441 769.427 112.103 767.321 Q109.765 765.214 105.76 765.214 Q103.885 765.214 102.01 765.631 Q100.159 766.047 98.2141 766.927 L98.2141 749.566 Z" fill="#000000" fill-rule="evenodd" fill-opacity="1" /><path clip-path="url(#clip580)" d="M138.33 752.645 Q134.719 752.645 132.89 756.209 Q131.084 759.751 131.084 766.881 Q131.084 773.987 132.89 777.552 Q134.719 781.094 138.33 781.094 Q141.964 781.094 143.769 777.552 Q145.598 773.987 145.598 766.881 Q145.598 759.751 143.769 756.209 Q141.964 752.645 138.33 752.645 M138.33 748.941 Q144.14 748.941 147.195 753.547 Q150.274 758.131 150.274 766.881 Q150.274 775.608 147.195 780.214 Q144.14 784.797 138.33 784.797 Q132.519 784.797 129.441 780.214 Q126.385 775.608 126.385 766.881 Q126.385 758.131 129.441 753.547 Q132.519 748.941 138.33 748.941 Z" fill="#000000" fill-rule="evenodd" fill-opacity="1" /><path clip-path="url(#clip580)" d="M63.9319 413.21 Q60.3208 413.21 58.4921 416.775 Q56.6865 420.316 56.6865 427.446 Q56.6865 434.552 58.4921 438.117 Q60.3208 441.659 63.9319 441.659 Q67.5661 441.659 69.3717 438.117 Q71.2004 434.552 71.2004 427.446 Q71.2004 420.316 69.3717 416.775 Q67.5661 413.21 63.9319 413.21 M63.9319 409.506 Q69.742 409.506 72.7976 414.113 Q75.8763 418.696 75.8763 427.446 Q75.8763 436.173 72.7976 440.779 Q69.742 445.362 63.9319 445.362 Q58.1217 445.362 55.043 440.779 Q51.9875 436.173 51.9875 427.446 Q51.9875 418.696 55.043 414.113 Q58.1217 409.506 63.9319 409.506 Z" fill="#000000" fill-rule="evenodd" fill-opacity="1" /><path clip-path="url(#clip580)" d="M84.0938 438.812 L88.978 438.812 L88.978 444.691 L84.0938 444.691 L84.0938 438.812 Z" fill="#000000" fill-rule="evenodd" fill-opacity="1" /><path clip-path="url(#clip580)" d="M97.9826 410.131 L120.205 410.131 L120.205 412.122 L107.658 444.691 L102.774 444.691 L114.58 414.066 L97.9826 414.066 L97.9826 410.131 Z" fill="#000000" fill-rule="evenodd" fill-opacity="1" /><path clip-path="url(#clip580)" d="M129.371 410.131 L147.728 410.131 L147.728 414.066 L133.654 414.066 L133.654 422.538 Q134.672 422.191 135.691 422.029 Q136.709 421.844 137.728 421.844 Q143.515 421.844 146.894 425.015 Q150.274 428.187 150.274 433.603 Q150.274 439.182 146.802 442.284 Q143.33 445.362 137.01 445.362 Q134.834 445.362 132.566 444.992 Q130.32 444.622 127.913 443.881 L127.913 439.182 Q129.996 440.316 132.219 440.872 Q134.441 441.427 136.918 441.427 Q140.922 441.427 143.26 439.321 Q145.598 437.214 145.598 433.603 Q145.598 429.992 143.26 427.886 Q140.922 425.779 136.918 425.779 Q135.043 425.779 133.168 426.196 Q131.316 426.613 129.371 427.492 L129.371 410.131 Z" fill="#000000" fill-rule="evenodd" fill-opacity="1" /><path clip-path="url(#clip580)" d="M53.7467 101.321 L61.3856 101.321 L61.3856 74.9555 L53.0754 76.6222 L53.0754 72.3629 L61.3393 70.6963 L66.0152 70.6963 L66.0152 101.321 L73.654 101.321 L73.654 105.256 L53.7467 105.256 L53.7467 101.321 Z" fill="#000000" fill-rule="evenodd" fill-opacity="1" /><path clip-path="url(#clip580)" d="M83.0984 99.3767 L87.9827 99.3767 L87.9827 105.256 L83.0984 105.256 L83.0984 99.3767 Z" fill="#000000" fill-rule="evenodd" fill-opacity="1" /><path clip-path="url(#clip580)" d="M108.168 73.775 Q104.557 73.775 102.728 77.3398 Q100.922 80.8814 100.922 88.011 Q100.922 95.1174 102.728 98.6822 Q104.557 102.224 108.168 102.224 Q111.802 102.224 113.608 98.6822 Q115.436 95.1174 115.436 88.011 Q115.436 80.8814 113.608 77.3398 Q111.802 73.775 108.168 73.775 M108.168 70.0713 Q113.978 70.0713 117.033 74.6777 Q120.112 79.261 120.112 88.011 Q120.112 96.7378 117.033 101.344 Q113.978 105.928 108.168 105.928 Q102.358 105.928 99.2789 101.344 Q96.2234 96.7378 96.2234 88.011 Q96.2234 79.261 99.2789 74.6777 Q102.358 70.0713 108.168 70.0713 Z" fill="#000000" fill-rule="evenodd" fill-opacity="1" /><path clip-path="url(#clip580)" d="M138.33 73.775 Q134.719 73.775 132.89 77.3398 Q131.084 80.8814 131.084 88.011 Q131.084 95.1174 132.89 98.6822 Q134.719 102.224 138.33 102.224 Q141.964 102.224 143.769 98.6822 Q145.598 95.1174 145.598 88.011 Q145.598 80.8814 143.769 77.3398 Q141.964 73.775 138.33 73.775 M138.33 70.0713 Q144.14 70.0713 147.195 74.6777 Q150.274 79.261 150.274 88.011 Q150.274 96.7378 147.195 101.344 Q144.14 105.928 138.33 105.928 Q132.519 105.928 129.441 101.344 Q126.385 96.7378 126.385 88.011 Q126.385 79.261 129.441 74.6777 Q132.519 70.0713 138.33 70.0713 Z" fill="#000000" fill-rule="evenodd" fill-opacity="1" /><polyline clip-path="url(#clip582)" style="stroke:#009af9; stroke-linecap:round; stroke-linejoin:round; stroke-width:4; stroke-opacity:1; fill:none" points="247.59,1445.72 250.916,1445.43 254.243,1444.57 257.569,1443.13 260.896,1441.12 268.586,1434.3 276.276,1424.48 283.966,1411.72 291.656,1396.12 299.346,1377.75 307.036,1356.76 314.725,1333.26 322.415,1307.41 330.105,1279.38 337.795,1249.33 345.485,1217.45 353.175,1183.95 360.865,1149.01 368.555,1112.86 376.245,1075.71 383.935,1037.77 402.42,944.653 420.905,851.227 430.148,805.285 439.391,760.301 448.633,716.582 457.876,674.408 465.69,640.147 473.505,607.312 481.319,576.025 489.134,546.393 496.948,518.504 504.763,492.429 512.577,468.223 520.392,445.922 528.881,423.878 537.37,404.108 545.858,386.591 554.347,371.285 562.836,358.129 571.325,347.039 579.813,337.918 588.302,330.651 596.128,325.484 603.954,321.674 611.78,319.106 619.606,317.658 635.258,317.612 650.909,320.507 684.47,331.889 718.031,342.996 727.752,345.13 737.472,346.548 747.193,347.161 756.914,346.909 766.635,345.756 776.356,343.688 786.077,340.72 795.798,336.884 813.075,328.107 830.353,317.218 847.63,304.801 864.908,291.529 895.209,268.347 925.511,248.394 942.029,239.949 958.548,233.651 975.066,229.681 991.585,228.084 1008.2,228.784 1024.82,231.582 1041.43,236.156 1058.05,242.101 1094.79,257.754 1131.54,272.599 1149.02,278.048 1166.5,281.967 1183.98,284.146 1201.46,284.508 1219.63,283.013 1237.81,279.807 1255.99,275.207 1274.16,269.625 1304.76,259.326 1335.36,249.903 1354.04,245.472 1372.72,242.481 1391.4,241.153 1410.08,241.581 1427.19,243.476 1444.3,246.677 1461.41,250.973 1478.52,256.091 1510.13,266.614 1541.74,276.712 1557.75,281.032 1573.76,284.543 1589.77,287.099 1605.77,288.61 1623.72,289.032 1641.66,288.165 1659.6,286.153 1677.54,283.215 1710.06,276.471 1742.57,269.539 1761.18,266.215 1779.8,263.729 1798.41,262.296 1817.03,262.04 1834.26,262.878 1851.5,264.701 1868.73,267.393 1885.97,270.783 1919.95,278.649 1953.93,286.488 1986.93,292.364 2019.92,295.334 2053.75,294.902 2087.57,291.353 2124.63,285.278 2161.69,278.977 2188.6,275.467 2215.52,273.559 2242.44,273.585 2269.35,275.551 2274.87,276.171 2280.4,276.856 2285.92,277.602 2291.44,278.404 "/>
<polyline clip-path="url(#clip582)" style="stroke:#e26f46; stroke-linecap:round; stroke-linejoin:round; stroke-width:4; stroke-opacity:1; fill:none" points="247.59,87.9763 250.916,88.3 254.243,89.2705 257.569,90.8864 260.896,93.1452 264.741,96.5523 268.586,100.807 272.431,105.899 276.276,111.82 280.121,118.557 283.966,126.096 287.811,134.421 291.656,143.517 295.501,153.363 299.346,163.941 303.191,175.229 307.036,187.204 310.881,199.842 314.725,213.117 318.57,227.003 322.415,241.471 330.105,272.04 337.795,304.582 345.485,338.838 353.175,374.542 368.555,449.177 383.935,526.216 393.177,572.716 402.42,618.773 411.663,663.917 420.905,707.702 425.527,728.953 430.148,749.709 434.769,769.924 439.391,789.552 444.012,808.551 448.633,826.882 453.254,844.508 457.876,861.394 461.783,875.071 465.69,888.18 469.598,900.706 473.505,912.634 477.412,923.952 481.319,934.65 485.227,944.717 489.134,954.148 493.041,962.935 496.948,971.075 500.856,978.564 504.763,985.403 508.67,991.592 512.577,997.133 516.485,1002.03 520.392,1006.29 524.636,1010.2 528.881,1013.37 533.125,1015.82 537.37,1017.57 541.614,1018.62 545.858,1019 550.103,1018.73 554.347,1017.83 562.836,1014.22 571.325,1008.38 579.813,1000.53 588.302,990.911 596.128,980.682 603.954,969.357 611.78,957.143 619.606,944.245 635.258,917.222 650.909,889.883 659.299,875.618 667.69,861.896 676.08,848.907 684.47,836.821 692.86,825.785 701.25,815.927 709.641,807.347 718.031,800.123 727.752,793.517 737.472,788.841 747.193,786.091 756.914,785.222 766.635,786.148 776.356,788.746 786.077,792.863 795.798,798.313 813.075,810.637 830.353,825.214 847.63,840.661 864.908,855.595 880.058,867.251 895.209,876.767 902.785,880.524 910.36,883.527 917.935,885.726 925.511,887.082 933.77,887.569 942.029,887.003 950.288,885.383 958.548,882.724 966.807,879.059 975.066,874.435 983.325,868.912 991.585,862.568 1008.2,847.68 1024.82,830.661 1041.43,812.457 1058.05,794.071 1076.42,774.72 1094.79,757.587 1103.98,750.187 1113.17,743.712 1122.35,738.249 1131.54,733.865 1140.28,730.739 1149.02,728.653 1157.76,727.611 1166.5,727.598 1175.24,728.584 1183.98,730.519 1192.72,733.339 1201.46,736.968 1219.63,746.691 1237.81,758.542 1255.99,771.436 1274.16,784.239 1289.46,794.138 1304.76,802.602 1320.06,809.128 1335.36,813.327 1344.7,814.632 1354.04,814.94 1363.38,814.239 1372.72,812.539 1382.06,809.868 1391.4,806.276 1400.74,801.828 1410.08,796.609 1427.19,785.379 1444.3,772.608 1461.41,759.097 1478.52,745.692 1494.33,734.123 1510.13,723.955 1525.94,715.706 1541.74,709.782 1549.74,707.763 1557.75,706.434 1565.75,705.808 1573.76,705.886 1581.76,706.661 1589.77,708.113 1597.77,710.215 1605.77,712.931 1623.72,721.004 1641.66,731.283 1659.6,742.984 1677.54,755.24 1693.8,766.078 1710.06,776.004 1726.31,784.448 1742.57,790.938 1751.88,793.633 1761.18,795.527 1770.49,796.591 1779.8,796.814 1789.11,796.201 1798.41,794.773 1807.72,792.569 1817.03,789.641 1834.26,782.545 1851.5,773.737 1868.73,763.861 1885.97,753.621 1902.96,743.878 1919.95,735.152 1936.94,728.036 1953.93,723.013 1962.18,721.438 1970.43,720.465 1978.68,720.112 1986.93,720.385 1995.18,721.282 2003.43,722.791 2011.67,724.89 2019.92,727.55 2036.83,734.584 2053.75,743.373 2070.66,753.382 2087.57,764.002 2106.1,775.581 2124.63,786.3 2143.16,795.408 2161.69,802.288 2175.14,805.63 2188.6,807.461 2202.06,807.743 2215.52,806.504 2228.98,803.83 2242.44,799.868 2255.89,794.813 2269.35,788.905 2274.87,786.297 2280.4,783.61 2285.92,780.866 2291.44,778.085 "/>
<path clip-path="url(#clip580)" d="M2011.46 1438.47 L2280.54 1438.47 L2280.54 1282.95 L2011.46 1282.95  Z" fill="#ffffff" fill-rule="evenodd" fill-opacity="1"/>
<polyline clip-path="url(#clip580)" style="stroke:#000000; stroke-linecap:round; stroke-linejoin:round; stroke-width:4; stroke-opacity:1; fill:none" points="2011.46,1438.47 2280.54,1438.47 2280.54,1282.95 2011.46,1282.95 2011.46,1438.47 "/>
<polyline clip-path="url(#clip580)" style="stroke:#009af9; stroke-linecap:round; stroke-linejoin:round; stroke-width:4; stroke-opacity:1; fill:none" points="2035.53,1334.79 2179.97,1334.79 "/>
<path clip-path="url(#clip580)" d="M2217.88 1354.48 Q2216.07 1359.11 2214.36 1360.52 Q2212.65 1361.94 2209.78 1361.94 L2206.38 1361.94 L2206.38 1358.37 L2208.88 1358.37 Q2210.63 1358.37 2211.61 1357.54 Q2212.58 1356.7 2213.76 1353.6 L2214.52 1351.66 L2204.04 1326.15 L2208.55 1326.15 L2216.65 1346.43 L2224.76 1326.15 L2229.27 1326.15 L2217.88 1354.48 Z" fill="#000000" fill-rule="evenodd" fill-opacity="1" /><path clip-path="url(#clip580)" d="M2236.56 1348.14 L2244.2 1348.14 L2244.2 1321.77 L2235.89 1323.44 L2235.89 1319.18 L2244.15 1317.51 L2248.83 1317.51 L2248.83 1348.14 L2256.47 1348.14 L2256.47 1352.07 L2236.56 1352.07 L2236.56 1348.14 Z" fill="#000000" fill-rule="evenodd" fill-opacity="1" /><polyline clip-path="url(#clip580)" style="stroke:#e26f46; stroke-linecap:round; stroke-linejoin:round; stroke-width:4; stroke-opacity:1; fill:none" points="2035.53,1386.63 2179.97,1386.63 "/>
<path clip-path="url(#clip580)" d="M2217.88 1406.32 Q2216.07 1410.95 2214.36 1412.36 Q2212.65 1413.78 2209.78 1413.78 L2206.38 1413.78 L2206.38 1410.21 L2208.88 1410.21 Q2210.63 1410.21 2211.61 1409.38 Q2212.58 1408.54 2213.76 1405.44 L2214.52 1403.5 L2204.04 1377.99 L2208.55 1377.99 L2216.65 1398.27 L2224.76 1377.99 L2229.27 1377.99 L2217.88 1406.32 Z" fill="#000000" fill-rule="evenodd" fill-opacity="1" /><path clip-path="url(#clip580)" d="M2239.78 1399.98 L2256.1 1399.98 L2256.1 1403.91 L2234.15 1403.91 L2234.15 1399.98 Q2236.82 1397.22 2241.4 1392.6 Q2246 1387.94 2247.19 1386.6 Q2249.43 1384.08 2250.31 1382.34 Q2251.21 1380.58 2251.21 1378.89 Q2251.21 1376.14 2249.27 1374.4 Q2247.35 1372.66 2244.25 1372.66 Q2242.05 1372.66 2239.59 1373.43 Q2237.16 1374.19 2234.38 1375.74 L2234.38 1371.02 Q2237.21 1369.89 2239.66 1369.31 Q2242.12 1368.73 2244.15 1368.73 Q2249.52 1368.73 2252.72 1371.41 Q2255.91 1374.1 2255.91 1378.59 Q2255.91 1380.72 2255.1 1382.64 Q2254.32 1384.54 2252.21 1387.13 Q2251.63 1387.8 2248.53 1391.02 Q2245.43 1394.22 2239.78 1399.98 Z" fill="#000000" fill-rule="evenodd" fill-opacity="1" /></svg>
