<?xml version="1.0" encoding="utf-8"?>
<svg xmlns="http://www.w3.org/2000/svg" xmlns:xlink="http://www.w3.org/1999/xlink" width="600" height="400" viewBox="0 0 2400 1600">
<defs>
  <clipPath id="clip100">
    <rect x="0" y="0" width="2400" height="1600"/>
  </clipPath>
</defs>
<path clip-path="url(#clip100)" d="M0 1600 L2400 1600 L2400 0 L0 0  Z" fill="#ffffff" fill-rule="evenodd" fill-opacity="1"/>
<defs>
  <clipPath id="clip101">
    <rect x="480" y="0" width="1681" height="1600"/>
  </clipPath>
</defs>
<path clip-path="url(#clip100)" d="M186.274 1486.45 L2352.76 1486.45 L2352.76 47.2441 L186.274 47.2441  Z" fill="#ffffff" fill-rule="evenodd" fill-opacity="1"/>
<defs>
  <clipPath id="clip102">
    <rect x="186" y="47" width="2167" height="1440"/>
  </clipPath>
</defs>
<polyline clip-path="url(#clip102)" style="stroke:#000000; stroke-linecap:round; stroke-linejoin:round; stroke-width:2; stroke-opacity:0.1; fill:none" points="247.59,1486.45 247.59,47.2441 "/>
<polyline clip-path="url(#clip102)" style="stroke:#000000; stroke-linecap:round; stroke-linejoin:round; stroke-width:2; stroke-opacity:0.1; fill:none" points="758.552,1486.45 758.552,47.2441 "/>
<polyline clip-path="url(#clip102)" style="stroke:#000000; stroke-linecap:round; stroke-linejoin:round; stroke-width:2; stroke-opacity:0.1; fill:none" points="1269.51,1486.45 1269.51,47.2441 "/>
<polyline clip-path="url(#clip102)" style="stroke:#000000; stroke-linecap:round; stroke-linejoin:round; stroke-width:2; stroke-opacity:0.1; fill:none" points="1780.48,1486.45 1780.48,47.2441 "/>
<polyline clip-path="url(#clip102)" style="stroke:#000000; stroke-linecap:round; stroke-linejoin:round; stroke-width:2; stroke-opacity:0.1; fill:none" points="2291.44,1486.45 2291.44,47.2441 "/>
<polyline clip-path="url(#clip100)" style="stroke:#000000; stroke-linecap:round; stroke-linejoin:round; stroke-width:4; stroke-opacity:1; fill:none" points="186.274,1486.45 2352.76,1486.45 "/>
<polyline clip-path="url(#clip100)" style="stroke:#000000; stroke-linecap:round; stroke-linejoin:round; stroke-width:4; stroke-opacity:1; fill:none" points="247.59,1486.45 247.59,1467.55 "/>
<polyline clip-path="url(#clip100)" style="stroke:#000000; stroke-linecap:round; stroke-linejoin:round; stroke-width:4; stroke-opacity:1; fill:none" points="758.552,1486.45 758.552,1467.55 "/>
<polyline clip-path="url(#clip100)" style="stroke:#000000; stroke-linecap:round; stroke-linejoin:round; stroke-width:4; stroke-opacity:1; fill:none" points="1269.51,1486.45 1269.51,1467.55 "/>
<polyline clip-path="url(#clip100)" style="stroke:#000000; stroke-linecap:round; stroke-linejoin:round; stroke-width:4; stroke-opacity:1; fill:none" points="1780.48,1486.45 1780.48,1467.55 "/>
<polyline clip-path="url(#clip100)" style="stroke:#000000; stroke-linecap:round; stroke-linejoin:round; stroke-width:4; stroke-opacity:1; fill:none" points="2291.44,1486.45 2291.44,1467.55 "/>
<path clip-path="url(#clip100)" d="M247.59 1517.37 Q243.978 1517.37 242.15 1520.93 Q240.344 1524.47 240.344 1531.6 Q240.344 1538.71 242.15 1542.27 Q243.978 1545.82 247.59 1545.82 Q251.224 1545.82 253.029 1542.27 Q254.858 1538.71 254.858 1531.6 Q254.858 1524.47 253.029 1520.93 Q251.224 1517.37 247.59 1517.37 M247.59 1513.66 Q253.4 1513.66 256.455 1518.27 Q259.534 1522.85 259.534 1531.6 Q259.534 1540.33 256.455 1544.94 Q253.4 1549.52 247.59 1549.52 Q241.779 1549.52 238.701 1544.94 Q235.645 1540.33 235.645 1531.6 Q235.645 1522.85 238.701 1518.27 Q241.779 1513.66 247.59 1513.66 Z" fill="#000000" fill-rule="evenodd" fill-opacity="1" /><path clip-path="url(#clip100)" d="M737.823 1544.91 L754.143 1544.91 L754.143 1548.85 L732.198 1548.85 L732.198 1544.91 Q734.86 1542.16 739.444 1537.53 Q744.05 1532.88 745.231 1531.53 Q747.476 1529.01 748.356 1527.27 Q749.258 1525.51 749.258 1523.82 Q749.258 1521.07 747.314 1519.33 Q745.393 1517.6 742.291 1517.6 Q740.092 1517.6 737.638 1518.36 Q735.207 1519.13 732.43 1520.68 L732.43 1515.95 Q735.254 1514.82 737.707 1514.24 Q740.161 1513.66 742.198 1513.66 Q747.569 1513.66 750.763 1516.35 Q753.957 1519.03 753.957 1523.52 Q753.957 1525.65 753.147 1527.57 Q752.36 1529.47 750.254 1532.07 Q749.675 1532.74 746.573 1535.95 Q743.471 1539.15 737.823 1544.91 Z" fill="#000000" fill-rule="evenodd" fill-opacity="1" /><path clip-path="url(#clip100)" d="M764.004 1514.29 L782.36 1514.29 L782.36 1518.22 L768.286 1518.22 L768.286 1526.7 Q769.304 1526.35 770.323 1526.19 Q771.342 1526 772.36 1526 Q778.147 1526 781.527 1529.17 Q784.906 1532.34 784.906 1537.76 Q784.906 1543.34 781.434 1546.44 Q777.962 1549.52 771.642 1549.52 Q769.467 1549.52 767.198 1549.15 Q764.953 1548.78 762.545 1548.04 L762.545 1543.34 Q764.629 1544.47 766.851 1545.03 Q769.073 1545.58 771.55 1545.58 Q775.554 1545.58 777.892 1543.48 Q780.23 1541.37 780.23 1537.76 Q780.23 1534.15 777.892 1532.04 Q775.554 1529.94 771.55 1529.94 Q769.675 1529.94 767.8 1530.35 Q765.948 1530.77 764.004 1531.65 L764.004 1514.29 Z" fill="#000000" fill-rule="evenodd" fill-opacity="1" /><path clip-path="url(#clip100)" d="M1244.21 1514.29 L1262.57 1514.29 L1262.57 1518.22 L1248.5 1518.22 L1248.5 1526.7 Q1249.52 1526.35 1250.53 1526.19 Q1251.55 1526 1252.57 1526 Q1258.36 1526 1261.74 1529.17 Q1265.12 1532.34 1265.12 1537.76 Q1265.12 1543.34 1261.64 1546.44 Q1258.17 1549.52 1251.85 1549.52 Q1249.68 1549.52 1247.41 1549.15 Q1245.16 1548.78 1242.76 1548.04 L1242.76 1543.34 Q1244.84 1544.47 1247.06 1545.03 Q1249.28 1545.58 1251.76 1545.58 Q1255.77 1545.58 1258.1 1543.48 Q1260.44 1541.37 1260.44 1537.76 Q1260.44 1534.15 1258.1 1532.04 Q1255.77 1529.94 1251.76 1529.94 Q1249.89 1529.94 1248.01 1530.35 Q1246.16 1530.77 1244.21 1531.65 L1244.21 1514.29 Z" fill="#000000" fill-rule="evenodd" fill-opacity="1" /><path clip-path="url(#clip100)" d="M1284.33 1517.37 Q1280.72 1517.37 1278.89 1520.93 Q1277.08 1524.47 1277.08 1531.6 Q1277.08 1538.71 1278.89 1542.27 Q1280.72 1545.82 1284.33 1545.82 Q1287.96 1545.82 1289.77 1542.27 Q1291.6 1538.71 1291.6 1531.6 Q1291.6 1524.47 1289.77 1520.93 Q1287.96 1517.37 1284.33 1517.37 M1284.33 1513.66 Q1290.14 1513.66 1293.2 1518.27 Q1296.27 1522.85 1296.27 1531.6 Q1296.27 1540.33 1293.2 1544.94 Q1290.14 1549.52 1284.33 1549.52 Q1278.52 1549.52 1275.44 1544.94 Q1272.39 1540.33 1272.39 1531.6 Q1272.39 1522.85 1275.44 1518.27 Q1278.52 1513.66 1284.33 1513.66 Z" fill="#000000" fill-rule="evenodd" fill-opacity="1" /><path clip-path="url(#clip100)" d="M1754.33 1514.29 L1776.55 1514.29 L1776.55 1516.28 L1764.01 1548.85 L1759.12 1548.85 L1770.93 1518.22 L1754.33 1518.22 L1754.33 1514.29 Z" fill="#000000" fill-rule="evenodd" fill-opacity="1" /><path clip-path="url(#clip100)" d="M1785.72 1514.29 L1804.08 1514.29 L1804.08 1518.22 L1790 1518.22 L1790 1526.7 Q1791.02 1526.35 1792.04 1526.19 Q1793.06 1526 1794.08 1526 Q1799.86 1526 1803.24 1529.17 Q1806.62 1532.34 1806.62 1537.76 Q1806.62 1543.34 1803.15 1546.44 Q1799.68 1549.52 1793.36 1549.52 Q1791.18 1549.52 1788.92 1549.15 Q1786.67 1548.78 1784.26 1548.04 L1784.26 1543.34 Q1786.35 1544.47 1788.57 1545.03 Q1790.79 1545.58 1793.27 1545.58 Q1797.27 1545.58 1799.61 1543.48 Q1801.95 1541.37 1801.95 1537.76 Q1801.95 1534.15 1799.61 1532.04 Q1797.27 1529.94 1793.27 1529.94 Q1791.39 1529.94 1789.52 1530.35 Q1787.67 1530.77 1785.72 1531.65 L1785.72 1514.29 Z" fill="#000000" fill-rule="evenodd" fill-opacity="1" /><path clip-path="url(#clip100)" d="M2251.05 1544.91 L2258.69 1544.91 L2258.69 1518.55 L2250.38 1520.21 L2250.38 1515.95 L2258.64 1514.29 L2263.32 1514.29 L2263.32 1544.91 L2270.95 1544.91 L2270.95 1548.85 L2251.05 1548.85 L2251.05 1544.91 Z" fill="#000000" fill-rule="evenodd" fill-opacity="1" /><path clip-path="url(#clip100)" d="M2290.4 1517.37 Q2286.79 1517.37 2284.96 1520.93 Q2283.15 1524.47 2283.15 1531.6 Q2283.15 1538.71 2284.96 1542.27 Q2286.79 1545.82 2290.4 1545.82 Q2294.03 1545.82 2295.84 1542.27 Q2297.67 1538.71 2297.67 1531.6 Q2297.67 1524.47 2295.84 1520.93 Q2294.03 1517.37 2290.4 1517.37 M2290.4 1513.66 Q2296.21 1513.66 2299.26 1518.27 Q2302.34 1522.85 2302.34 1531.6 Q2302.34 1540.33 2299.26 1544.94 Q2296.21 1549.52 2290.4 1549.52 Q2284.59 1549.52 2281.51 1544.94 Q2278.45 1540.33 2278.45 1531.6 Q2278.45 1522.85 2281.51 1518.27 Q2284.59 1513.66 2290.4 1513.66 Z" fill="#000000" fill-rule="evenodd" fill-opacity="1" /><path clip-path="url(#clip100)" d="M2320.56 1517.37 Q2316.95 1517.37 2315.12 1520.93 Q2313.32 1524.47 2313.32 1531.6 Q2313.32 1538.71 2315.12 1542.27 Q2316.95 1545.82 2320.56 1545.82 Q2324.19 1545.82 2326 1542.27 Q2327.83 1538.71 2327.83 1531.6 Q2327.83 1524.47 2326 1520.93 Q2324.19 1517.37 2320.56 1517.37 M2320.56 1513.66 Q2326.37 1513.66 2329.43 1518.27 Q2332.5 1522.85 2332.5 1531.6 Q2332.5 1540.33 2329.43 1544.94 Q2326.37 1549.52 2320.56 1549.52 Q2314.75 1549.52 2311.67 1544.94 Q2308.62 1540.33 2308.62 1531.6 Q2308.62 1522.85 2311.67 1518.27 Q2314.75 1513.66 2320.56 1513.66 Z" fill="#000000" fill-rule="evenodd" fill-opacity="1" /><polyline clip-path="url(#clip102)" style="stroke:#000000; stroke-linecap:round; stroke-linejoin:round; stroke-width:2; stroke-opacity:0.1; fill:none" points="186.274,1445.72 2352.76,1445.72 "/>
<polyline clip-path="url(#clip102)" style="stroke:#000000; stroke-linecap:round; stroke-linejoin:round; stroke-width:2; stroke-opacity:0.1; fill:none" points="186.274,1106.28 2352.76,1106.28 "/>
<polyline clip-path="url(#clip102)" style="stroke:#000000; stroke-linecap:round; stroke-linejoin:round; stroke-width:2; stroke-opacity:0.1; fill:none" points="186.274,766.846 2352.76,766.846 "/>
<polyline clip-path="url(#clip102)" style="stroke:#000000; stroke-linecap:round; stroke-linejoin:round; stroke-width:2; stroke-opacity:0.1; fill:none" points="186.274,427.411 2352.76,427.411 "/>
<polyline clip-path="url(#clip102)" style="stroke:#000000; stroke-linecap:round; stroke-linejoin:round; stroke-width:2; stroke-opacity:0.1; fill:none" points="186.274,87.9763 2352.76,87.9763 "/>
<polyline clip-path="url(#clip100)" style="stroke:#000000; stroke-linecap:round; stroke-linejoin:round; stroke-width:4; stroke-opacity:1; fill:none" points="186.274,1486.45 186.274,47.2441 "/>
<polyline clip-path="url(#clip100)" style="stroke:#000000; stroke-linecap:round; stroke-linejoin:round; stroke-width:4; stroke-opacity:1; fill:none" points="186.274,1445.72 205.172,1445.72 "/>
<polyline clip-path="url(#clip100)" style="stroke:#000000; stroke-linecap:round; stroke-linejoin:round; stroke-width:4; stroke-opacity:1; fill:none" points="186.274,1106.28 205.172,1106.28 "/>
<polyline clip-path="url(#clip100)" style="stroke:#000000; stroke-linecap:round; stroke-linejoin:round; stroke-width:4; stroke-opacity:1; fill:none" points="186.274,766.846 205.172,766.846 "/>
<polyline clip-path="url(#clip100)" style="stroke:#000000; stroke-linecap:round; stroke-linejoin:round; stroke-width:4; stroke-opacity:1; fill:none" points="186.274,427.411 205.172,427.411 "/>
<polyline clip-path="url(#clip100)" style="stroke:#000000; stroke-linecap:round; stroke-linejoin:round; stroke-width:4; stroke-opacity:1; fill:none" points="186.274,87.9763 205.172,87.9763 "/>
<path clip-path="url(#clip100)" d="M62.9365 1431.51 Q59.3254 1431.51 57.4967 1435.08 Q55.6912 1438.62 55.6912 1445.75 Q55.6912 1452.86 57.4967 1456.42 Q59.3254 1459.96 62.9365 1459.96 Q66.5707 1459.96 68.3763 1456.42 Q70.205 1452.86 70.205 1445.75 Q70.205 1438.62 68.3763 1435.08 Q66.5707 1431.51 62.9365 1431.51 M62.9365 1427.81 Q68.7467 1427.81 71.8022 1432.42 Q74.8809 1437 74.8809 1445.75 Q74.8809 1454.48 71.8022 1459.08 Q68.7467 1463.67 62.9365 1463.67 Q57.1264 1463.67 54.0477 1459.08 Q50.9921 1454.48 50.9921 1445.75 Q50.9921 1437 54.0477 1432.42 Q57.1264 1427.81 62.9365 1427.81 Z" fill="#000000" fill-rule="evenodd" fill-opacity="1" /><path clip-path="url(#clip100)" d="M83.0984 1457.12 L87.9827 1457.12 L87.9827 1463 L83.0984 1463 L83.0984 1457.12 Z" fill="#000000" fill-rule="evenodd" fill-opacity="1" /><path clip-path="url(#clip100)" d="M108.168 1431.51 Q104.557 1431.51 102.728 1435.08 Q100.922 1438.62 100.922 1445.75 Q100.922 1452.86 102.728 1456.42 Q104.557 1459.96 108.168 1459.96 Q111.802 1459.96 113.608 1456.42 Q115.436 1452.86 115.436 1445.75 Q115.436 1438.62 113.608 1435.08 Q111.802 1431.51 108.168 1431.51 M108.168 1427.81 Q113.978 1427.81 117.033 1432.42 Q120.112 1437 120.112 1445.75 Q120.112 1454.48 117.033 1459.08 Q113.978 1463.67 108.168 1463.67 Q102.358 1463.67 99.2789 1459.08 Q96.2234 1454.48 96.2234 1445.75 Q96.2234 1437 99.2789 1432.42 Q102.358 1427.81 108.168 1427.81 Z" fill="#000000" fill-rule="evenodd" fill-opacity="1" /><path clip-path="url(#clip100)" d="M138.33 1431.51 Q134.719 1431.51 132.89 1435.08 Q131.084 1438.62 131.084 1445.75 Q131.084 1452.86 132.89 1456.42 Q134.719 1459.96 138.33 1459.96 Q141.964 1459.96 143.769 1456.42 Q145.598 1452.86 145.598 1445.75 Q145.598 1438.62 143.769 1435.08 Q141.964 1431.51 138.33 1431.51 M138.33 1427.81 Q144.14 1427.81 147.195 1432.42 Q150.274 1437 150.274 1445.75 Q150.274 1454.48 147.195 1459.08 Q144.14 1463.67 138.33 1463.67 Q132.519 1463.67 129.441 1459.08 Q126.385 1454.48 126.385 1445.75 Q126.385 1437 129.441 1432.42 Q132.519 1427.81 138.33 1427.81 Z" fill="#000000" fill-rule="evenodd" fill-opacity="1" /><path clip-path="url(#clip100)" d="M63.9319 1092.08 Q60.3208 1092.08 58.4921 1095.64 Q56.6865 1099.19 56.6865 1106.32 Q56.6865 1113.42 58.4921 1116.99 Q60.3208 1120.53 63.9319 1120.53 Q67.5661 1120.53 69.3717 1116.99 Q71.2004 1113.42 71.2004 1106.32 Q71.2004 1099.19 69.3717 1095.64 Q67.5661 1092.08 63.9319 1092.08 M63.9319 1088.38 Q69.742 1088.38 72.7976 1092.98 Q75.8763 1097.57 75.8763 1106.32 Q75.8763 1115.04 72.7976 1119.65 Q69.742 1124.23 63.9319 1124.23 Q58.1217 1124.23 55.043 1119.65 Q51.9875 1115.04 51.9875 1106.32 Q51.9875 1097.57 55.043 1092.98 Q58.1217 1088.38 63.9319 1088.38 Z" fill="#000000" fill-rule="evenodd" fill-opacity="1" /><path clip-path="url(#clip100)" d="M84.0938 1117.68 L88.978 1117.68 L88.978 1123.56 L84.0938 1123.56 L84.0938 1117.68 Z" fill="#000000" fill-rule="evenodd" fill-opacity="1" /><path clip-path="url(#clip100)" d="M103.191 1119.63 L119.51 1119.63 L119.51 1123.56 L97.566 1123.56 L97.566 1119.63 Q100.228 1116.87 104.811 1112.24 Q109.418 1107.59 110.598 1106.25 Q112.844 1103.72 113.723 1101.99 Q114.626 1100.23 114.626 1098.54 Q114.626 1095.78 112.682 1094.05 Q110.76 1092.31 107.658 1092.31 Q105.459 1092.31 103.006 1093.07 Q100.575 1093.84 97.7974 1095.39 L97.7974 1090.67 Q100.621 1089.53 103.075 1088.95 Q105.529 1088.38 107.566 1088.38 Q112.936 1088.38 116.131 1091.06 Q119.325 1093.75 119.325 1098.24 Q119.325 1100.37 118.515 1102.29 Q117.728 1104.19 115.621 1106.78 Q115.043 1107.45 111.941 1110.67 Q108.839 1113.86 103.191 1119.63 Z" fill="#000000" fill-rule="evenodd" fill-opacity="1" /><path clip-path="url(#clip100)" d="M129.371 1089 L147.728 1089 L147.728 1092.94 L133.654 1092.94 L133.654 1101.41 Q134.672 1101.06 135.691 1100.9 Q136.709 1100.71 137.728 1100.71 Q143.515 1100.71 146.894 1103.89 Q150.274 1107.06 150.274 1112.47 Q150.274 1118.05 146.802 1121.15 Q143.33 1124.23 137.01 1124.23 Q134.834 1124.23 132.566 1123.86 Q130.32 1123.49 127.913 1122.75 L127.913 1118.05 Q129.996 1119.19 132.219 1119.74 Q134.441 1120.3 136.918 1120.3 Q140.922 1120.3 143.26 1118.19 Q145.598 1116.08 145.598 1112.47 Q145.598 1108.86 143.26 1106.76 Q140.922 1104.65 136.918 1104.65 Q135.043 1104.65 133.168 1105.07 Q131.316 1105.48 129.371 1106.36 L129.371 1089 Z" fill="#000000" fill-rule="evenodd" fill-opacity="1" /><path clip-path="url(#clip100)" d="M62.9365 752.645 Q59.3254 752.645 57.4967 756.209 Q55.6912 759.751 55.6912 766.881 Q55.6912 773.987 57.4967 777.552 Q59.3254 781.094 62.9365 781.094 Q66.5707 781.094 68.3763 777.552 Q70.205 773.987 70.205 766.881 Q70.205 759.751 68.3763 756.209 Q66.5707 752.645 62.9365 752.645 M62.9365 748.941 Q68.7467 748.941 71.8022 753.547 Q74.8809 758.131 74.8809 766.881 Q74.8809 775.608 71.8022 780.214 Q68.7467 784.797 62.9365 784.797 Q57.1264 784.797 54.0477 780.214 Q50.9921 775.608 50.9921 766.881 Q50.9921 758.131 54.0477 753.547 Q57.1264 748.941 62.9365 748.941 Z" fill="#000000" fill-rule="evenodd" fill-opacity="1" /><path clip-path="url(#clip100)" d="M83.0984 778.246 L87.9827 778.246 L87.9827 784.126 L83.0984 784.126 L83.0984 778.246 Z" fill="#000000" fill-rule="evenodd" fill-opacity="1" /><path clip-path="url(#clip100)" d="M98.2141 749.566 L116.57 749.566 L116.57 753.501 L102.496 753.501 L102.496 761.973 Q103.515 761.626 104.534 761.464 Q105.552 761.279 106.571 761.279 Q112.358 761.279 115.737 764.45 Q119.117 767.621 119.117 773.038 Q119.117 778.617 115.645 781.719 Q112.172 784.797 105.853 784.797 Q103.677 784.797 101.409 784.427 Q99.1632 784.057 96.7558 783.316 L96.7558 778.617 Q98.8391 779.751 101.061 780.307 Q103.284 780.862 105.76 780.862 Q109.765 780.862 112.103 778.756 Q114.441 776.649 114.441 773.038 Q114.441 769.427 112.103 767.321 Q109.765 765.214 105.76 765.214 Q103.885 765.214 102.01 765.631 Q100.159 766.047 98.2141 766.927 L98.2141 749.566 Z" fill="#000000" fill-rule="evenodd" fill-opacity="1" /><path clip-path="url(#clip100)" d="M138.33 752.645 Q134.719 752.645 132.89 756.209 Q131.084 759.751 131.084 766.881 Q131.084 773.987 132.89 777.552 Q134.719 781.094 138.33 781.094 Q141.964 781.094 143.769 777.552 Q145.598 773.987 145.598 766.881 Q145.598 759.751 143.769 756.209 Q141.964 752.645 138.33 752.645 M138.33 748.941 Q144.14 748.941 147.195 753.547 Q150.274 758.131 150.274 766.881 Q150.274 775.608 147.195 780.214 Q144.14 784.797 138.33 784.797 Q132.519 784.797 129.441 780.214 Q126.385 775.608 126.385 766.881 Q126.385 758.131 129.441 753.547 Q132.519 748.941 138.33 748.941 Z" fill="#000000" fill-rule="evenodd" fill-opacity="1" /><path clip-path="url(#clip100)" d="M63.9319 413.21 Q60.3208 413.21 58.4921 416.775 Q56.6865 420.316 56.6865 427.446 Q56.6865 434.552 58.4921 438.117 Q60.3208 441.659 63.9319 441.659 Q67.5661 441.659 69.3717 438.117 Q71.2004 434.552 71.2004 427.446 Q71.2004 420.316 69.3717 416.775 Q67.5661 413.21 63.9319 413.21 M63.9319 409.506 Q69.742 409.506 72.7976 414.113 Q75.8763 418.696 75.8763 427.446 Q75.8763 436.173 72.7976 440.779 Q69.742 445.362 63.9319 445.362 Q58.1217 445.362 55.043 440.779 Q51.9875 436.173 51.9875 427.446 Q51.9875 418.696 55.043 414.113 Q58.1217 409.506 63.9319 409.506 Z" fill="#000000" fill-rule="evenodd" fill-opacity="1" /><path clip-path="url(#clip100)" d="M84.0938 438.812 L88.978 438.812 L88.978 444.691 L84.0938 444.691 L84.0938 438.812 Z" fill="#000000" fill-rule="evenodd" fill-opacity="1" /><path clip-path="url(#clip100)" d="M97.9826 410.131 L120.205 410.131 L120.205 412.122 L107.658 444.691 L102.774 444.691 L114.58 414.066 L97.9826 414.066 L97.9826 410.131 Z" fill="#000000" fill-rule="evenodd" fill-opacity="1" /><path clip-path="url(#clip100)" d="M129.371 410.131 L147.728 410.131 L147.728 414.066 L133.654 414.066 L133.654 422.538 Q134.672 422.191 135.691 422.029 Q136.709 421.844 137.728 421.844 Q143.515 421.844 146.894 425.015 Q150.274 428.187 150.274 433.603 Q150.274 439.182 146.802 442.284 Q143.33 445.362 137.01 445.362 Q134.834 445.362 132.566 444.992 Q130.32 444.622 127.913 443.881 L127.913 439.182 Q129.996 440.316 132.219 440.872 Q134.441 441.427 136.918 441.427 Q140.922 441.427 143.26 439.321 Q145.598 437.214 145.598 433.603 Q145.598 429.992 143.26 427.886 Q140.922 425.779 136.918 425.779 Q135.043 425.779 133.168 426.196 Q131.316 426.613 129.371 427.492 L129.371 410.131 Z" fill="#000000" fill-rule="evenodd" fill-opacity="1" /><path clip-path="url(#clip100)" d="M53.7467 101.321 L61.3856 101.321 L61.3856 74.9555 L53.0754 76.6222 L53.0754 72.3629 L61.3393 70.6963 L66.0152 70.6963 L66.0152 101.321 L73.654 101.321 L73.654 105.256 L53.7467 105.256 L53.7467 101.321 Z" fill="#000000" fill-rule="evenodd" fill-opacity="1" /><path clip-path="url(#clip100)" d="M83.0984 99.3767 L87.9827 99.3767 L87.9827 105.256 L83.0984 105.256 L83.0984 99.3767 Z" fill="#000000" fill-rule="evenodd" fill-opacity="1" /><path clip-path="url(#clip100)" d="M108.168 73.775 Q104.557 73.775 102.728 77.3398 Q100.922 80.8814 100.922 88.011 Q100.922 95.1174 102.728 98.6822 Q104.557 102.224 108.168 102.224 Q111.802 102.224 113.608 98.6822 Q115.436 95.1174 115.436 88.011 Q115.436 80.8814 113.608 77.3398 Q111.802 73.775 108.168 73.775 M108.168 70.0713 Q113.978 70.0713 117.033 74.6777 Q120.112 79.261 120.112 88.011 Q120.112 96.7378 117.033 101.344 Q113.978 105.928 108.168 105.928 Q102.358 105.928 99.2789 101.344 Q96.2234 96.7378 96.2234 88.011 Q96.2234 79.261 99.2789 74.6777 Q102.358 70.0713 108.168 70.0713 Z" fill="#000000" fill-rule="evenodd" fill-opacity="1" /><path clip-path="url(#clip100)" d="M138.33 73.775 Q134.719 73.775 132.89 77.3398 Q131.084 80.8814 131.084 88.011 Q131.084 95.1174 132.89 98.6822 Q134.719 102.224 138.33 102.224 Q141.964 102.224 143.769 98.6822 Q145.598 95.1174 145.598 88.011 Q145.598 80.8814 143.769 77.3398 Q141.964 73.775 138.33 73.775 M138.33 70.0713 Q144.14 70.0713 147.195 74.6777 Q150.274 79.261 150.274 88.011 Q150.274 96.7378 147.195 101.344 Q144.14 105.928 138.33 105.928 Q132.519 105.928 129.441 101.344 Q126.385 96.7378 126.385 88.011 Q126.385 79.261 129.441 74.6777 Q132.519 70.0713 138.33 70.0713 Z" fill="#000000" fill-rule="evenodd" fill-opacity="1" /><polyline clip-path="url(#clip102)" style="stroke:#009af9; stroke-linecap:round; stroke-linejoin:round; stroke-width:4; stroke-opacity:1; fill:none" points="247.59,1445.72 250.916,1445.71 254.243,1445.69 257.569,1445.66 260.896,1445.61 276.276,1445.24 291.656,1444.6 307.036,1443.69 322.415,1442.52 337.795,1441.09 353.175,1439.41 368.555,1437.49 383.935,1435.35 393.177,1433.95 402.42,1432.48 411.663,1430.93 420.905,1429.32 439.391,1425.89 457.876,1422.21 473.505,1418.93 489.134,1415.51 504.763,1411.97 520.392,1408.33 554.347,1400.16 588.302,1391.79 619.606,1384.06 650.909,1376.47 667.69,1372.5 684.47,1368.64 701.25,1364.9 718.031,1361.29 737.472,1357.3 756.914,1353.54 776.356,1350.03 795.798,1346.78 813.075,1344.13 830.353,1341.71 847.63,1339.53 864.908,1337.58 880.058,1336.07 895.209,1334.75 910.36,1333.61 925.511,1332.65 942.029,1331.81 958.548,1331.17 975.066,1330.74 991.585,1330.49 1008.2,1330.43 1024.82,1330.54 1041.43,1330.81 1058.05,1331.24 1076.42,1331.86 1094.79,1332.63 1113.17,1333.52 1131.54,1334.52 1166.5,1336.65 1201.46,1338.93 1237.81,1341.34 1274.16,1343.64 1304.76,1345.39 1335.36,1346.91 1354.04,1347.69 1372.72,1348.36 1391.4,1348.91 1410.08,1349.32 1427.19,1349.58 1444.3,1349.73 1461.41,1349.76 1478.52,1349.68 1494.33,1349.5 1510.13,1349.23 1525.94,1348.87 1541.74,1348.43 1557.75,1347.89 1573.76,1347.29 1589.77,1346.61 1605.77,1345.87 1641.66,1344.01 1677.54,1341.97 1710.06,1340.04 1742.57,1338.11 1779.8,1335.98 1817.03,1334.03 1851.5,1332.45 1885.97,1331.16 1902.96,1330.64 1919.95,1330.19 1936.94,1329.84 1953.93,1329.56 1986.93,1329.27 2019.92,1329.3 2053.75,1329.63 2087.57,1330.24 2124.63,1331.18 2161.69,1332.34 2215.52,1334.24 2269.35,1336.2 2280.4,1336.59 2291.44,1336.97 "/>
<polyline clip-path="url(#clip102)" style="stroke:#e26f46; stroke-linecap:round; stroke-linejoin:round; stroke-width:4; stroke-opacity:1; fill:none" points="247.59,87.9763 250.916,87.9835 254.243,88.005 257.569,88.041 260.896,88.0913 276.276,88.5101 291.656,89.2332 307.036,90.2566 322.415,91.5749 337.795,93.1807 353.175,95.0654 368.555,97.2188 383.935,99.6292 393.177,101.196 402.42,102.848 411.663,104.582 420.905,106.394 439.391,110.241 457.876,114.358 473.505,118.028 489.134,121.849 504.763,125.8 520.392,129.862 554.347,138.963 588.302,148.26 619.606,156.815 650.909,165.183 667.69,169.536 684.47,173.768 701.25,177.858 718.031,181.785 737.472,186.107 756.914,190.162 776.356,193.926 795.798,197.382 813.075,200.182 830.353,202.718 847.63,204.983 864.908,206.976 880.058,208.497 895.209,209.808 910.36,210.91 925.511,211.806 942.029,212.554 958.548,213.07 975.066,213.364 991.585,213.445 1008.2,213.323 1024.82,213.012 1041.43,212.525 1058.05,211.877 1076.42,210.993 1094.79,209.954 1113.17,208.785 1131.54,207.509 1166.5,204.871 1201.46,202.096 1237.81,199.234 1274.16,196.556 1304.76,194.549 1335.36,192.842 1354.04,191.973 1372.72,191.247 1391.4,190.672 1410.08,190.253 1427.19,190.009 1444.3,189.899 1461.41,189.924 1478.52,190.08 1494.33,190.339 1510.13,190.702 1525.94,191.166 1541.74,191.725 1557.75,192.382 1573.76,193.122 1589.77,193.936 1605.77,194.818 1677.54,199.333 1742.57,203.672 1779.8,206 1817.03,208.076 1851.5,209.696 1885.97,210.968 1902.96,211.455 1919.95,211.845 1936.94,212.135 1953.93,212.327 1970.43,212.417 1986.93,212.416 2003.43,212.325 2019.92,212.146 2053.75,211.527 2087.57,210.604 2124.63,209.311 2161.69,207.806 2215.52,205.43 2269.35,203.091 2280.4,202.641 2291.44,202.206 "/>
<path clip-path="url(#clip100)" d="M2011.46 1438.47 L2280.54 1438.47 L2280.54 1282.95 L2011.46 1282.95  Z" fill="#ffffff" fill-rule="evenodd" fill-opacity="1"/>
<polyline clip-path="url(#clip100)" style="stroke:#000000; stroke-linecap:round; stroke-linejoin:round; stroke-width:4; stroke-opacity:1; fill:none" points="2011.46,1438.47 2280.54,1438.47 2280.54,1282.95 2011.46,1282.95 2011.46,1438.47 "/>
<polyline clip-path="url(#clip100)" style="stroke:#009af9; stroke-linecap:round; stroke-linejoin:round; stroke-width:4; stroke-opacity:1; fill:none" points="2035.53,1334.79 2179.97,1334.79 "/>
<path clip-path="url(#clip100)" d="M2217.88 1354.48 Q2216.07 1359.11 2214.36 1360.52 Q2212.65 1361.94 2209.78 1361.94 L2206.38 1361.94 L2206.38 1358.37 L2208.88 1358.37 Q2210.63 1358.37 2211.61 1357.54 Q2212.58 1356.7 2213.76 1353.6 L2214.52 1351.66 L2204.04 1326.15 L2208.55 1326.15 L2216.65 1346.43 L2224.76 1326.15 L2229.27 1326.15 L2217.88 1354.48 Z" fill="#000000" fill-rule="evenodd" fill-opacity="1" /><path clip-path="url(#clip100)" d="M2236.56 1348.14 L2244.2 1348.14 L2244.2 1321.77 L2235.89 1323.44 L2235.89 1319.18 L2244.15 1317.51 L2248.83 1317.51 L2248.83 1348.14 L2256.47 1348.14 L2256.47 1352.07 L2236.56 1352.07 L2236.56 1348.14 Z" fill="#000000" fill-rule="evenodd" fill-opacity="1" /><polyline clip-path="url(#clip100)" style="stroke:#e26f46; stroke-linecap:round; stroke-linejoin:round; stroke-width:4; stroke-opacity:1; fill:none" points="2035.53,1386.63 2179.97,1386.63 "/>
<path clip-path="url(#clip100)" d="M2217.88 1406.32 Q2216.07 1410.95 2214.36 1412.36 Q2212.65 1413.78 2209.78 1413.78 L2206.38 1413.78 L2206.38 1410.21 L2208.88 1410.21 Q2210.63 1410.21 2211.61 1409.38 Q2212.58 1408.54 2213.76 1405.44 L2214.52 1403.5 L2204.04 1377.99 L2208.55 1377.99 L2216.65 1398.27 L2224.76 1377.99 L2229.27 1377.99 L2217.88 1406.32 Z" fill="#000000" fill-rule="evenodd" fill-opacity="1" /><path clip-path="url(#clip100)" d="M2239.78 1399.98 L2256.1 1399.98 L2256.1 1403.91 L2234.15 1403.91 L2234.15 1399.98 Q2236.82 1397.22 2241.4 1392.6 Q2246 1387.94 2247.19 1386.6 Q2249.43 1384.08 2250.31 1382.34 Q2251.21 1380.58 2251.21 1378.89 Q2251.21 1376.14 2249.27 1374.4 Q2247.35 1372.66 2244.25 1372.66 Q2242.05 1372.66 2239.59 1373.43 Q2237.16 1374.19 2234.38 1375.74 L2234.38 1371.02 Q2237.21 1369.89 2239.66 1369.31 Q2242.12 1368.73 2244.15 1368.73 Q2249.52 1368.73 2252.72 1371.41 Q2255.91 1374.1 2255.91 1378.59 Q2255.91 1380.72 2255.1 1382.64 Q2254.32 1384.54 2252.21 1387.13 Q2251.63 1387.8 2248.53 1391.02 Q2245.43 1394.22 2239.78 1399.98 Z" fill="#000000" fill-rule="evenodd" fill-opacity="1" /></svg>
