<?xml version="1.0" encoding="utf-8"?>
<svg xmlns="http://www.w3.org/2000/svg" xmlns:xlink="http://www.w3.org/1999/xlink" width="600" height="400" viewBox="0 0 2400 1600">
<defs>
  <clipPath id="clip100">
    <rect x="0" y="0" width="2400" height="1600"/>
  </clipPath>
</defs>
<path clip-path="url(#clip100)" d="M0 1600 L2400 1600 L2400 0 L0 0  Z" fill="#ffffff" fill-rule="evenodd" fill-opacity="1"/>
<defs>
  <clipPath id="clip101">
    <rect x="480" y="0" width="1681" height="1600"/>
  </clipPath>
</defs>
<path clip-path="url(#clip100)" d="M186.274 1486.45 L2352.76 1486.45 L2352.76 47.2441 L186.274 47.2441  Z" fill="#ffffff" fill-rule="evenodd" fill-opacity="1"/>
<defs>
  <clipPath id="clip102">
    <rect x="186" y="47" width="2167" height="1440"/>
  </clipPath>
</defs>
<polyline clip-path="url(#clip102)" style="stroke:#000000; stroke-linecap:round; stroke-linejoin:round; stroke-width:2; stroke-opacity:0.1; fill:none" points="245.544,1486.45 245.544,47.2441 "/>
<polyline clip-path="url(#clip102)" style="stroke:#000000; stroke-linecap:round; stroke-linejoin:round; stroke-width:2; stroke-opacity:0.1; fill:none" points="757.018,1486.45 757.018,47.2441 "/>
<polyline clip-path="url(#clip102)" style="stroke:#000000; stroke-linecap:round; stroke-linejoin:round; stroke-width:2; stroke-opacity:0.1; fill:none" points="1268.49,1486.45 1268.49,47.2441 "/>
<polyline clip-path="url(#clip102)" style="stroke:#000000; stroke-linecap:round; stroke-linejoin:round; stroke-width:2; stroke-opacity:0.1; fill:none" points="1779.97,1486.45 1779.97,47.2441 "/>
<polyline clip-path="url(#clip102)" style="stroke:#000000; stroke-linecap:round; stroke-linejoin:round; stroke-width:2; stroke-opacity:0.1; fill:none" points="2291.44,1486.45 2291.44,47.2441 "/>
<polyline clip-path="url(#clip100)" style="stroke:#000000; stroke-linecap:round; stroke-linejoin:round; stroke-width:4; stroke-opacity:1; fill:none" points="186.274,1486.45 2352.76,1486.45 "/>
<polyline clip-path="url(#clip100)" style="stroke:#000000; stroke-linecap:round; stroke-linejoin:round; stroke-width:4; stroke-opacity:1; fill:none" points="245.544,1486.45 245.544,1467.55 "/>
<polyline clip-path="url(#clip100)" style="stroke:#000000; stroke-linecap:round; stroke-linejoin:round; stroke-width:4; stroke-opacity:1; fill:none" points="757.018,1486.45 757.018,1467.55 "/>
<polyline clip-path="url(#clip100)" style="stroke:#000000; stroke-linecap:round; stroke-linejoin:round; stroke-width:4; stroke-opacity:1; fill:none" points="1268.49,1486.45 1268.49,1467.55 "/>
<polyline clip-path="url(#clip100)" style="stroke:#000000; stroke-linecap:round; stroke-linejoin:round; stroke-width:4; stroke-opacity:1; fill:none" points="1779.97,1486.45 1779.97,1467.55 "/>
<polyline clip-path="url(#clip100)" style="stroke:#000000; stroke-linecap:round; stroke-linejoin:round; stroke-width:4; stroke-opacity:1; fill:none" points="2291.44,1486.45 2291.44,1467.55 "/>
<path clip-path="url(#clip100)" d="M245.544 1517.37 Q241.933 1517.37 240.104 1520.93 Q238.298 1524.47 238.298 1531.6 Q238.298 1538.71 240.104 1542.27 Q241.933 1545.82 245.544 1545.82 Q249.178 1545.82 250.983 1542.27 Q252.812 1538.71 252.812 1531.6 Q252.812 1524.47 250.983 1520.93 Q249.178 1517.37 245.544 1517.37 M245.544 1513.66 Q251.354 1513.66 254.409 1518.27 Q257.488 1522.85 257.488 1531.6 Q257.488 1540.33 254.409 1544.94 Q251.354 1549.52 245.544 1549.52 Q239.733 1549.52 236.655 1544.94 Q233.599 1540.33 233.599 1531.6 Q233.599 1522.85 236.655 1518.27 Q239.733 1513.66 245.544 1513.66 Z" fill="#000000" fill-rule="evenodd" fill-opacity="1" /><path clip-path="url(#clip100)" d="M736.289 1544.91 L752.608 1544.91 L752.608 1548.85 L730.664 1548.85 L730.664 1544.91 Q733.326 1542.16 737.909 1537.53 Q742.516 1532.88 743.696 1531.53 Q745.941 1529.01 746.821 1527.27 Q747.724 1525.51 747.724 1523.82 Q747.724 1521.07 745.779 1519.33 Q743.858 1517.6 740.756 1517.6 Q738.557 1517.6 736.104 1518.36 Q733.673 1519.13 730.895 1520.68 L730.895 1515.95 Q733.719 1514.82 736.173 1514.24 Q738.627 1513.66 740.664 1513.66 Q746.034 1513.66 749.229 1516.35 Q752.423 1519.03 752.423 1523.52 Q752.423 1525.65 751.613 1527.57 Q750.826 1529.47 748.719 1532.07 Q748.141 1532.74 745.039 1535.95 Q741.937 1539.15 736.289 1544.91 Z" fill="#000000" fill-rule="evenodd" fill-opacity="1" /><path clip-path="url(#clip100)" d="M762.469 1514.29 L780.826 1514.29 L780.826 1518.22 L766.752 1518.22 L766.752 1526.7 Q767.77 1526.35 768.789 1526.19 Q769.807 1526 770.826 1526 Q776.613 1526 779.992 1529.17 Q783.372 1532.34 783.372 1537.76 Q783.372 1543.34 779.9 1546.44 Q776.427 1549.52 770.108 1549.52 Q767.932 1549.52 765.664 1549.15 Q763.418 1548.78 761.011 1548.04 L761.011 1543.34 Q763.094 1544.47 765.316 1545.03 Q767.539 1545.58 770.015 1545.58 Q774.02 1545.58 776.358 1543.48 Q778.696 1541.37 778.696 1537.76 Q778.696 1534.15 776.358 1532.04 Q774.02 1529.94 770.015 1529.94 Q768.14 1529.94 766.265 1530.35 Q764.414 1530.77 762.469 1531.65 L762.469 1514.29 Z" fill="#000000" fill-rule="evenodd" fill-opacity="1" /><path clip-path="url(#clip100)" d="M1243.19 1514.29 L1261.55 1514.29 L1261.55 1518.22 L1247.47 1518.22 L1247.47 1526.7 Q1248.49 1526.35 1249.51 1526.19 Q1250.53 1526 1251.55 1526 Q1257.33 1526 1260.71 1529.17 Q1264.09 1532.34 1264.09 1537.76 Q1264.09 1543.34 1260.62 1546.44 Q1257.15 1549.52 1250.83 1549.52 Q1248.65 1549.52 1246.39 1549.15 Q1244.14 1548.78 1241.73 1548.04 L1241.73 1543.34 Q1243.82 1544.47 1246.04 1545.03 Q1248.26 1545.58 1250.74 1545.58 Q1254.74 1545.58 1257.08 1543.48 Q1259.42 1541.37 1259.42 1537.76 Q1259.42 1534.15 1257.08 1532.04 Q1254.74 1529.94 1250.74 1529.94 Q1248.86 1529.94 1246.99 1530.35 Q1245.14 1530.77 1243.19 1531.65 L1243.19 1514.29 Z" fill="#000000" fill-rule="evenodd" fill-opacity="1" /><path clip-path="url(#clip100)" d="M1283.31 1517.37 Q1279.7 1517.37 1277.87 1520.93 Q1276.06 1524.47 1276.06 1531.6 Q1276.06 1538.71 1277.87 1542.27 Q1279.7 1545.82 1283.31 1545.82 Q1286.94 1545.82 1288.75 1542.27 Q1290.58 1538.71 1290.58 1531.6 Q1290.58 1524.47 1288.75 1520.93 Q1286.94 1517.37 1283.31 1517.37 M1283.31 1513.66 Q1289.12 1513.66 1292.17 1518.27 Q1295.25 1522.85 1295.25 1531.6 Q1295.25 1540.33 1292.17 1544.94 Q1289.12 1549.52 1283.31 1549.52 Q1277.5 1549.52 1274.42 1544.94 Q1271.36 1540.33 1271.36 1531.6 Q1271.36 1522.85 1274.42 1518.27 Q1277.5 1513.66 1283.31 1513.66 Z" fill="#000000" fill-rule="evenodd" fill-opacity="1" /><path clip-path="url(#clip100)" d="M1753.82 1514.29 L1776.04 1514.29 L1776.04 1516.28 L1763.5 1548.85 L1758.61 1548.85 L1770.42 1518.22 L1753.82 1518.22 L1753.82 1514.29 Z" fill="#000000" fill-rule="evenodd" fill-opacity="1" /><path clip-path="url(#clip100)" d="M1785.21 1514.29 L1803.57 1514.29 L1803.57 1518.22 L1789.49 1518.22 L1789.49 1526.7 Q1790.51 1526.35 1791.53 1526.19 Q1792.55 1526 1793.57 1526 Q1799.35 1526 1802.73 1529.17 Q1806.11 1532.34 1806.11 1537.76 Q1806.11 1543.34 1802.64 1546.44 Q1799.17 1549.52 1792.85 1549.52 Q1790.67 1549.52 1788.4 1549.15 Q1786.16 1548.78 1783.75 1548.04 L1783.75 1543.34 Q1785.83 1544.47 1788.06 1545.03 Q1790.28 1545.58 1792.76 1545.58 Q1796.76 1545.58 1799.1 1543.48 Q1801.44 1541.37 1801.44 1537.76 Q1801.44 1534.15 1799.1 1532.04 Q1796.76 1529.94 1792.76 1529.94 Q1790.88 1529.94 1789.01 1530.35 Q1787.15 1530.77 1785.21 1531.65 L1785.21 1514.29 Z" fill="#000000" fill-rule="evenodd" fill-opacity="1" /><path clip-path="url(#clip100)" d="M2251.05 1544.91 L2258.69 1544.91 L2258.69 1518.55 L2250.38 1520.21 L2250.38 1515.95 L2258.64 1514.29 L2263.32 1514.29 L2263.32 1544.91 L2270.95 1544.91 L2270.95 1548.85 L2251.05 1548.85 L2251.05 1544.91 Z" fill="#000000" fill-rule="evenodd" fill-opacity="1" /><path clip-path="url(#clip100)" d="M2290.4 1517.37 Q2286.79 1517.37 2284.96 1520.93 Q2283.15 1524.47 2283.15 1531.6 Q2283.15 1538.71 2284.96 1542.27 Q2286.79 1545.82 2290.4 1545.82 Q2294.03 1545.82 2295.84 1542.27 Q2297.67 1538.71 2297.67 1531.6 Q2297.67 1524.47 2295.84 1520.93 Q2294.03 1517.37 2290.4 1517.37 M2290.4 1513.66 Q2296.21 1513.66 2299.26 1518.27 Q2302.34 1522.85 2302.34 1531.6 Q2302.34 1540.33 2299.26 1544.94 Q2296.21 1549.52 2290.4 1549.52 Q2284.59 1549.52 2281.51 1544.94 Q2278.45 1540.33 2278.45 1531.6 Q2278.45 1522.85 2281.51 1518.27 Q2284.59 1513.66 2290.4 1513.66 Z" fill="#000000" fill-rule="evenodd" fill-opacity="1" /><path clip-path="url(#clip100)" d="M2320.56 1517.37 Q2316.95 1517.37 2315.12 1520.93 Q2313.32 1524.47 2313.32 1531.6 Q2313.32 1538.71 2315.12 1542.27 Q2316.95 1545.82 2320.56 1545.82 Q2324.19 1545.82 2326 1542.27 Q2327.83 1538.71 2327.83 1531.6 Q2327.83 1524.47 2326 1520.93 Q2324.19 1517.37 2320.56 1517.37 M2320.56 1513.66 Q2326.37 1513.66 2329.43 1518.27 Q2332.5 1522.85 2332.5 1531.6 Q2332.5 1540.33 2329.43 1544.94 Q2326.37 1549.52 2320.56 1549.52 Q2314.75 1549.52 2311.67 1544.94 Q2308.62 1540.33 2308.62 1531.6 Q2308.62 1522.85 2311.67 1518.27 Q2314.75 1513.66 2320.56 1513.66 Z" fill="#000000" fill-rule="evenodd" fill-opacity="1" /><polyline clip-path="url(#clip102)" style="stroke:#000000; stroke-linecap:round; stroke-linejoin:round; stroke-width:2; stroke-opacity:0.1; fill:none" points="186.274,1445.75 2352.76,1445.75 "/>
<polyline clip-path="url(#clip102)" style="stroke:#000000; stroke-linecap:round; stroke-linejoin:round; stroke-width:2; stroke-opacity:0.1; fill:none" points="186.274,1159.03 2352.76,1159.03 "/>
<polyline clip-path="url(#clip102)" style="stroke:#000000; stroke-linecap:round; stroke-linejoin:round; stroke-width:2; stroke-opacity:0.1; fill:none" points="186.274,872.312 2352.76,872.312 "/>
<polyline clip-path="url(#clip102)" style="stroke:#000000; stroke-linecap:round; stroke-linejoin:round; stroke-width:2; stroke-opacity:0.1; fill:none" points="186.274,585.592 2352.76,585.592 "/>
<polyline clip-path="url(#clip102)" style="stroke:#000000; stroke-linecap:round; stroke-linejoin:round; stroke-width:2; stroke-opacity:0.1; fill:none" points="186.274,298.873 2352.76,298.873 "/>
<polyline clip-path="url(#clip100)" style="stroke:#000000; stroke-linecap:round; stroke-linejoin:round; stroke-width:4; stroke-opacity:1; fill:none" points="186.274,1486.45 186.274,47.2441 "/>
<polyline clip-path="url(#clip100)" style="stroke:#000000; stroke-linecap:round; stroke-linejoin:round; stroke-width:4; stroke-opacity:1; fill:none" points="186.274,1445.75 205.172,1445.75 "/>
<polyline clip-path="url(#clip100)" style="stroke:#000000; stroke-linecap:round; stroke-linejoin:round; stroke-width:4; stroke-opacity:1; fill:none" points="186.274,1159.03 205.172,1159.03 "/>
<polyline clip-path="url(#clip100)" style="stroke:#000000; stroke-linecap:round; stroke-linejoin:round; stroke-width:4; stroke-opacity:1; fill:none" points="186.274,872.312 205.172,872.312 "/>
<polyline clip-path="url(#clip100)" style="stroke:#000000; stroke-linecap:round; stroke-linejoin:round; stroke-width:4; stroke-opacity:1; fill:none" points="186.274,585.592 205.172,585.592 "/>
<polyline clip-path="url(#clip100)" style="stroke:#000000; stroke-linecap:round; stroke-linejoin:round; stroke-width:4; stroke-opacity:1; fill:none" points="186.274,298.873 205.172,298.873 "/>
<path clip-path="url(#clip100)" d="M62.9365 1431.55 Q59.3254 1431.55 57.4967 1435.12 Q55.6912 1438.66 55.6912 1445.79 Q55.6912 1452.89 57.4967 1456.46 Q59.3254 1460 62.9365 1460 Q66.5707 1460 68.3763 1456.46 Q70.205 1452.89 70.205 1445.79 Q70.205 1438.66 68.3763 1435.12 Q66.5707 1431.55 62.9365 1431.55 M62.9365 1427.85 Q68.7467 1427.85 71.8022 1432.45 Q74.8809 1437.04 74.8809 1445.79 Q74.8809 1454.51 71.8022 1459.12 Q68.7467 1463.7 62.9365 1463.7 Q57.1264 1463.7 54.0477 1459.12 Q50.9921 1454.51 50.9921 1445.79 Q50.9921 1437.04 54.0477 1432.45 Q57.1264 1427.85 62.9365 1427.85 Z" fill="#000000" fill-rule="evenodd" fill-opacity="1" /><path clip-path="url(#clip100)" d="M83.0984 1457.15 L87.9827 1457.15 L87.9827 1463.03 L83.0984 1463.03 L83.0984 1457.15 Z" fill="#000000" fill-rule="evenodd" fill-opacity="1" /><path clip-path="url(#clip100)" d="M108.168 1431.55 Q104.557 1431.55 102.728 1435.12 Q100.922 1438.66 100.922 1445.79 Q100.922 1452.89 102.728 1456.46 Q104.557 1460 108.168 1460 Q111.802 1460 113.608 1456.46 Q115.436 1452.89 115.436 1445.79 Q115.436 1438.66 113.608 1435.12 Q111.802 1431.55 108.168 1431.55 M108.168 1427.85 Q113.978 1427.85 117.033 1432.45 Q120.112 1437.04 120.112 1445.79 Q120.112 1454.51 117.033 1459.12 Q113.978 1463.7 108.168 1463.7 Q102.358 1463.7 99.2789 1459.12 Q96.2234 1454.51 96.2234 1445.79 Q96.2234 1437.04 99.2789 1432.45 Q102.358 1427.85 108.168 1427.85 Z" fill="#000000" fill-rule="evenodd" fill-opacity="1" /><path clip-path="url(#clip100)" d="M138.33 1431.55 Q134.719 1431.55 132.89 1435.12 Q131.084 1438.66 131.084 1445.79 Q131.084 1452.89 132.89 1456.46 Q134.719 1460 138.33 1460 Q141.964 1460 143.769 1456.46 Q145.598 1452.89 145.598 1445.79 Q145.598 1438.66 143.769 1435.12 Q141.964 1431.55 138.33 1431.55 M138.33 1427.85 Q144.14 1427.85 147.195 1432.45 Q150.274 1437.04 150.274 1445.79 Q150.274 1454.51 147.195 1459.12 Q144.14 1463.7 138.33 1463.7 Q132.519 1463.7 129.441 1459.12 Q126.385 1454.51 126.385 1445.79 Q126.385 1437.04 129.441 1432.45 Q132.519 1427.85 138.33 1427.85 Z" fill="#000000" fill-rule="evenodd" fill-opacity="1" /><path clip-path="url(#clip100)" d="M63.9319 1144.83 Q60.3208 1144.83 58.4921 1148.4 Q56.6865 1151.94 56.6865 1159.07 Q56.6865 1166.17 58.4921 1169.74 Q60.3208 1173.28 63.9319 1173.28 Q67.5661 1173.28 69.3717 1169.74 Q71.2004 1166.17 71.2004 1159.07 Q71.2004 1151.94 69.3717 1148.4 Q67.5661 1144.83 63.9319 1144.83 M63.9319 1141.13 Q69.742 1141.13 72.7976 1145.73 Q75.8763 1150.32 75.8763 1159.07 Q75.8763 1167.79 72.7976 1172.4 Q69.742 1176.98 63.9319 1176.98 Q58.1217 1176.98 55.043 1172.4 Q51.9875 1167.79 51.9875 1159.07 Q51.9875 1150.32 55.043 1145.73 Q58.1217 1141.13 63.9319 1141.13 Z" fill="#000000" fill-rule="evenodd" fill-opacity="1" /><path clip-path="url(#clip100)" d="M84.0938 1170.43 L88.978 1170.43 L88.978 1176.31 L84.0938 1176.31 L84.0938 1170.43 Z" fill="#000000" fill-rule="evenodd" fill-opacity="1" /><path clip-path="url(#clip100)" d="M103.191 1172.38 L119.51 1172.38 L119.51 1176.31 L97.566 1176.31 L97.566 1172.38 Q100.228 1169.62 104.811 1164.99 Q109.418 1160.34 110.598 1159 Q112.844 1156.47 113.723 1154.74 Q114.626 1152.98 114.626 1151.29 Q114.626 1148.53 112.682 1146.8 Q110.76 1145.06 107.658 1145.06 Q105.459 1145.06 103.006 1145.83 Q100.575 1146.59 97.7974 1148.14 L97.7974 1143.42 Q100.621 1142.28 103.075 1141.71 Q105.529 1141.13 107.566 1141.13 Q112.936 1141.13 116.131 1143.81 Q119.325 1146.5 119.325 1150.99 Q119.325 1153.12 118.515 1155.04 Q117.728 1156.94 115.621 1159.53 Q115.043 1160.2 111.941 1163.42 Q108.839 1166.61 103.191 1172.38 Z" fill="#000000" fill-rule="evenodd" fill-opacity="1" /><path clip-path="url(#clip100)" d="M129.371 1141.75 L147.728 1141.75 L147.728 1145.69 L133.654 1145.69 L133.654 1154.16 Q134.672 1153.81 135.691 1153.65 Q136.709 1153.46 137.728 1153.46 Q143.515 1153.46 146.894 1156.64 Q150.274 1159.81 150.274 1165.22 Q150.274 1170.8 146.802 1173.9 Q143.33 1176.98 137.01 1176.98 Q134.834 1176.98 132.566 1176.61 Q130.32 1176.24 127.913 1175.5 L127.913 1170.8 Q129.996 1171.94 132.219 1172.49 Q134.441 1173.05 136.918 1173.05 Q140.922 1173.05 143.26 1170.94 Q145.598 1168.83 145.598 1165.22 Q145.598 1161.61 143.26 1159.51 Q140.922 1157.4 136.918 1157.4 Q135.043 1157.4 133.168 1157.82 Q131.316 1158.23 129.371 1159.11 L129.371 1141.75 Z" fill="#000000" fill-rule="evenodd" fill-opacity="1" /><path clip-path="url(#clip100)" d="M62.9365 858.111 Q59.3254 858.111 57.4967 861.676 Q55.6912 865.217 55.6912 872.347 Q55.6912 879.453 57.4967 883.018 Q59.3254 886.56 62.9365 886.56 Q66.5707 886.56 68.3763 883.018 Q70.205 879.453 70.205 872.347 Q70.205 865.217 68.3763 861.676 Q66.5707 858.111 62.9365 858.111 M62.9365 854.407 Q68.7467 854.407 71.8022 859.014 Q74.8809 863.597 74.8809 872.347 Q74.8809 881.074 71.8022 885.68 Q68.7467 890.263 62.9365 890.263 Q57.1264 890.263 54.0477 885.68 Q50.9921 881.074 50.9921 872.347 Q50.9921 863.597 54.0477 859.014 Q57.1264 854.407 62.9365 854.407 Z" fill="#000000" fill-rule="evenodd" fill-opacity="1" /><path clip-path="url(#clip100)" d="M83.0984 883.712 L87.9827 883.712 L87.9827 889.592 L83.0984 889.592 L83.0984 883.712 Z" fill="#000000" fill-rule="evenodd" fill-opacity="1" /><path clip-path="url(#clip100)" d="M98.2141 855.032 L116.57 855.032 L116.57 858.967 L102.496 858.967 L102.496 867.439 Q103.515 867.092 104.534 866.93 Q105.552 866.745 106.571 866.745 Q112.358 866.745 115.737 869.916 Q119.117 873.088 119.117 878.504 Q119.117 884.083 115.645 887.185 Q112.172 890.263 105.853 890.263 Q103.677 890.263 101.409 889.893 Q99.1632 889.523 96.7558 888.782 L96.7558 884.083 Q98.8391 885.217 101.061 885.773 Q103.284 886.328 105.76 886.328 Q109.765 886.328 112.103 884.222 Q114.441 882.115 114.441 878.504 Q114.441 874.893 112.103 872.787 Q109.765 870.68 105.76 870.68 Q103.885 870.68 102.01 871.097 Q100.159 871.513 98.2141 872.393 L98.2141 855.032 Z" fill="#000000" fill-rule="evenodd" fill-opacity="1" /><path clip-path="url(#clip100)" d="M138.33 858.111 Q134.719 858.111 132.89 861.676 Q131.084 865.217 131.084 872.347 Q131.084 879.453 132.89 883.018 Q134.719 886.56 138.33 886.56 Q141.964 886.56 143.769 883.018 Q145.598 879.453 145.598 872.347 Q145.598 865.217 143.769 861.676 Q141.964 858.111 138.33 858.111 M138.33 854.407 Q144.14 854.407 147.195 859.014 Q150.274 863.597 150.274 872.347 Q150.274 881.074 147.195 885.68 Q144.14 890.263 138.33 890.263 Q132.519 890.263 129.441 885.68 Q126.385 881.074 126.385 872.347 Q126.385 863.597 129.441 859.014 Q132.519 854.407 138.33 854.407 Z" fill="#000000" fill-rule="evenodd" fill-opacity="1" /><path clip-path="url(#clip100)" d="M63.9319 571.391 Q60.3208 571.391 58.4921 574.956 Q56.6865 578.498 56.6865 585.627 Q56.6865 592.734 58.4921 596.298 Q60.3208 599.84 63.9319 599.84 Q67.5661 599.84 69.3717 596.298 Q71.2004 592.734 71.2004 585.627 Q71.2004 578.498 69.3717 574.956 Q67.5661 571.391 63.9319 571.391 M63.9319 567.687 Q69.742 567.687 72.7976 572.294 Q75.8763 576.877 75.8763 585.627 Q75.8763 594.354 72.7976 598.96 Q69.742 603.544 63.9319 603.544 Q58.1217 603.544 55.043 598.96 Q51.9875 594.354 51.9875 585.627 Q51.9875 576.877 55.043 572.294 Q58.1217 567.687 63.9319 567.687 Z" fill="#000000" fill-rule="evenodd" fill-opacity="1" /><path clip-path="url(#clip100)" d="M84.0938 596.993 L88.978 596.993 L88.978 602.872 L84.0938 602.872 L84.0938 596.993 Z" fill="#000000" fill-rule="evenodd" fill-opacity="1" /><path clip-path="url(#clip100)" d="M97.9826 568.312 L120.205 568.312 L120.205 570.303 L107.658 602.872 L102.774 602.872 L114.58 572.248 L97.9826 572.248 L97.9826 568.312 Z" fill="#000000" fill-rule="evenodd" fill-opacity="1" /><path clip-path="url(#clip100)" d="M129.371 568.312 L147.728 568.312 L147.728 572.248 L133.654 572.248 L133.654 580.72 Q134.672 580.372 135.691 580.21 Q136.709 580.025 137.728 580.025 Q143.515 580.025 146.894 583.197 Q150.274 586.368 150.274 591.784 Q150.274 597.363 146.802 600.465 Q143.33 603.544 137.01 603.544 Q134.834 603.544 132.566 603.173 Q130.32 602.803 127.913 602.062 L127.913 597.363 Q129.996 598.497 132.219 599.053 Q134.441 599.609 136.918 599.609 Q140.922 599.609 143.26 597.502 Q145.598 595.396 145.598 591.784 Q145.598 588.173 143.26 586.067 Q140.922 583.96 136.918 583.96 Q135.043 583.96 133.168 584.377 Q131.316 584.794 129.371 585.673 L129.371 568.312 Z" fill="#000000" fill-rule="evenodd" fill-opacity="1" /><path clip-path="url(#clip100)" d="M53.7467 312.217 L61.3856 312.217 L61.3856 285.852 L53.0754 287.519 L53.0754 283.259 L61.3393 281.593 L66.0152 281.593 L66.0152 312.217 L73.654 312.217 L73.654 316.153 L53.7467 316.153 L53.7467 312.217 Z" fill="#000000" fill-rule="evenodd" fill-opacity="1" /><path clip-path="url(#clip100)" d="M83.0984 310.273 L87.9827 310.273 L87.9827 316.153 L83.0984 316.153 L83.0984 310.273 Z" fill="#000000" fill-rule="evenodd" fill-opacity="1" /><path clip-path="url(#clip100)" d="M108.168 284.671 Q104.557 284.671 102.728 288.236 Q100.922 291.778 100.922 298.907 Q100.922 306.014 102.728 309.579 Q104.557 313.12 108.168 313.12 Q111.802 313.12 113.608 309.579 Q115.436 306.014 115.436 298.907 Q115.436 291.778 113.608 288.236 Q111.802 284.671 108.168 284.671 M108.168 280.968 Q113.978 280.968 117.033 285.574 Q120.112 290.157 120.112 298.907 Q120.112 307.634 117.033 312.241 Q113.978 316.824 108.168 316.824 Q102.358 316.824 99.2789 312.241 Q96.2234 307.634 96.2234 298.907 Q96.2234 290.157 99.2789 285.574 Q102.358 280.968 108.168 280.968 Z" fill="#000000" fill-rule="evenodd" fill-opacity="1" /><path clip-path="url(#clip100)" d="M138.33 284.671 Q134.719 284.671 132.89 288.236 Q131.084 291.778 131.084 298.907 Q131.084 306.014 132.89 309.579 Q134.719 313.12 138.33 313.12 Q141.964 313.12 143.769 309.579 Q145.598 306.014 145.598 298.907 Q145.598 291.778 143.769 288.236 Q141.964 284.671 138.33 284.671 M138.33 280.968 Q144.14 280.968 147.195 285.574 Q150.274 290.157 150.274 298.907 Q150.274 307.634 147.195 312.241 Q144.14 316.824 138.33 316.824 Q132.519 316.824 129.441 312.241 Q126.385 307.634 126.385 298.907 Q126.385 290.157 129.441 285.574 Q132.519 280.968 138.33 280.968 Z" fill="#000000" fill-rule="evenodd" fill-opacity="1" /><polyline clip-path="url(#clip102)" style="stroke:#009af9; stroke-linecap:round; stroke-linejoin:round; stroke-width:4; stroke-opacity:1; fill:none" points="247.59,1445.64 250.916,1445.01 254.243,1443.81 257.569,1442.04 260.896,1439.71 268.586,1432.17 276.276,1421.66 283.966,1408.23 291.656,1391.95 299.346,1372.9 307.036,1351.17 314.725,1326.87 322.415,1300.11 330.105,1271.04 337.795,1239.78 345.485,1206.49 353.175,1171.32 360.865,1134.46 368.555,1096.06 376.245,1056.32 383.935,1015.41 420.905,808.651 457.876,600.988 465.69,558.938 473.505,517.937 481.319,478.151 489.134,439.735 496.948,402.836 504.763,367.587 512.577,334.113 520.392,302.522 528.881,270.455 537.37,240.832 545.858,213.744 554.347,189.258 562.836,167.424 571.325,148.272 579.813,131.813 588.302,118.036 596.128,107.689 603.954,99.5644 611.78,93.6128 619.606,89.7741 627.432,87.9763 635.258,88.136 643.083,90.16 650.909,93.9453 659.299,99.8329 667.69,107.47 676.08,116.699 684.47,127.358 701.25,152.28 718.031,180.831 737.472,216.563 756.914,253.055 776.356,288.239 795.798,320.258 804.436,333.044 813.075,344.772 821.714,355.335 830.353,364.646 838.991,372.629 847.63,379.226 856.269,384.394 864.908,388.105 872.483,390.15 880.058,391.068 887.634,390.87 895.209,389.576 902.785,387.213 910.36,383.819 917.935,379.438 925.511,374.121 942.029,359.573 958.548,341.566 975.066,320.917 991.585,298.52 1008.2,275.179 1024.82,251.993 1041.43,229.908 1058.05,209.812 1067.24,199.852 1076.42,190.867 1085.61,182.965 1094.79,176.241 1103.98,170.777 1113.17,166.637 1122.35,163.874 1131.54,162.521 1140.28,162.559 1149.02,163.894 1157.76,166.512 1166.5,170.391 1175.24,175.493 1183.98,181.768 1192.72,189.156 1201.46,197.584 1219.63,218.071 1237.81,241.824 1255.99,267.844 1274.16,295.037 1289.46,318.003 1304.76,340.316 1320.06,361.32 1335.36,380.402 1344.7,390.866 1354.04,400.292 1363.38,408.58 1372.72,415.643 1382.06,421.405 1391.4,425.809 1400.74,428.808 1410.08,430.375 1418.63,430.541 1427.19,429.497 1435.75,427.254 1444.3,423.838 1452.86,419.283 1461.41,413.634 1469.97,406.946 1478.52,399.285 1494.33,382.829 1510.13,363.841 1525.94,342.932 1541.74,320.769 1573.76,274.939 1605.77,232.758 1614.75,222.35 1623.72,212.764 1632.69,204.094 1641.66,196.428 1650.63,189.842 1659.6,184.403 1668.57,180.163 1677.54,177.167 1685.67,175.549 1693.8,174.99 1701.93,175.493 1710.06,177.054 1718.18,179.661 1726.31,183.292 1734.44,187.919 1742.57,193.504 1751.88,201.016 1761.18,209.645 1770.49,219.301 1779.8,229.884 1798.41,253.376 1817.03,279.149 1851.5,329.27 1885.97,376.621 1894.46,387.104 1902.96,396.939 1911.45,406.045 1919.95,414.35 1928.45,421.79 1936.94,428.308 1945.44,433.856 1953.93,438.395 1962.18,441.806 1970.43,444.218 1978.68,445.62 1986.93,446.01 1995.18,445.393 2003.43,443.785 2011.67,441.208 2019.92,437.694 2036.83,427.728 2053.75,414.416 2070.66,398.297 2087.57,380.001 2124.63,335.775 2161.69,292.328 2175.14,278.233 2188.6,265.555 2202.06,254.574 2215.52,245.529 2228.98,238.612 2242.44,233.964 2255.89,231.673 2269.35,231.772 2274.87,232.501 2280.4,233.625 2285.92,235.138 2291.44,237.033 "/>
<polyline clip-path="url(#clip102)" style="stroke:#e26f46; stroke-linecap:round; stroke-linejoin:round; stroke-width:4; stroke-opacity:1; fill:none" points="247.59,1445.72 250.916,1445.5 254.243,1445.1 257.569,1444.51 260.896,1443.74 268.586,1441.22 276.276,1437.7 283.966,1433.19 291.656,1427.71 299.346,1421.27 307.036,1413.89 314.725,1405.59 322.415,1396.4 330.105,1386.34 337.795,1375.44 345.485,1363.73 353.175,1351.25 368.555,1324.11 383.935,1294.33 393.177,1275.3 402.42,1255.5 411.663,1235.02 420.905,1213.94 439.391,1170.27 457.876,1125.15 489.134,1047.34 520.392,970.163 537.37,929.48 554.347,890.154 571.325,852.513 588.302,816.837 603.954,785.885 619.606,756.933 635.258,730.08 650.909,705.383 667.69,681.324 684.47,659.747 701.25,640.588 718.031,623.744 737.472,606.94 756.914,592.793 776.356,581.001 795.798,571.234 813.075,563.978 830.353,557.807 847.63,552.487 864.908,547.791 895.209,540.447 925.511,533.437 958.548,525.355 991.585,516.289 1024.82,506.007 1058.05,494.728 1094.79,481.612 1131.54,468.588 1166.5,457.054 1201.46,447.013 1237.81,438.646 1274.16,432.617 1304.76,429.302 1335.36,427.385 1410.08,426.411 1478.52,426.1 1510.13,425.008 1541.74,423.002 1573.76,419.983 1605.77,416.06 1677.54,405.196 1742.57,395.406 1779.8,390.916 1817.03,387.666 1851.5,385.874 1885.97,385.193 1953.93,386.261 2019.92,388.384 2087.57,389.272 2161.69,387.208 2269.35,379.967 2291.44,378.39 "/>
<polyline clip-path="url(#clip102)" style="stroke:#3da44d; stroke-linecap:round; stroke-linejoin:round; stroke-width:4; stroke-opacity:1; fill:none" points="247.59,298.994 250.916,299.706 254.243,301.057 257.569,303.045 260.896,305.667 264.741,309.482 268.586,314.133 272.431,319.612 276.276,325.91 280.121,333.014 283.966,340.914 287.811,349.595 291.656,359.042 295.501,369.24 299.346,380.169 303.191,391.813 307.036,404.15 314.725,430.819 322.415,459.991 330.105,491.467 337.795,525.031 345.485,560.451 353.175,597.485 360.865,635.881 368.555,675.376 376.245,715.702 383.935,756.586 402.42,855.481 420.905,952.171 430.148,998.523 439.391,1042.96 444.012,1064.32 448.633,1085.05 453.254,1105.1 457.876,1124.42 465.69,1155.31 473.505,1183.8 477.412,1197.08 481.319,1209.7 485.227,1221.62 489.134,1232.85 493.041,1243.35 496.948,1253.12 500.856,1262.13 504.763,1270.39 508.67,1277.87 512.577,1284.56 516.485,1290.47 520.392,1295.58 524.636,1300.22 528.881,1303.91 533.125,1306.64 537.37,1308.43 541.614,1309.26 545.858,1309.15 550.103,1308.1 554.347,1306.11 558.591,1303.21 562.836,1299.39 567.08,1294.69 571.325,1289.1 575.569,1282.66 579.813,1275.38 584.058,1267.28 588.302,1258.39 596.128,1240.01 603.954,1219.2 611.78,1196.15 619.606,1171.07 627.432,1144.18 635.258,1115.72 643.083,1085.94 650.909,1055.09 667.69,986.554 684.47,916.948 692.86,882.569 701.25,848.905 709.641,816.272 718.031,784.971 722.891,767.563 727.752,750.753 732.612,734.594 737.472,719.134 742.333,704.42 747.193,690.498 752.054,677.408 756.914,665.192 761.775,653.884 766.635,643.519 771.495,634.127 776.356,625.735 781.216,618.367 786.077,612.044 790.937,606.784 795.798,602.6 800.117,599.794 804.436,597.852 808.756,596.777 813.075,596.57 817.394,597.23 821.714,598.752 826.033,601.132 830.353,604.361 834.672,608.431 838.991,613.328 843.311,619.039 847.63,625.549 851.949,632.838 856.269,640.888 860.588,649.676 864.908,659.179 872.483,677.495 880.058,697.782 887.634,719.877 895.209,743.602 902.785,768.767 910.36,795.174 917.935,822.61 925.511,850.861 942.029,914.199 958.548,977.967 966.807,1009.27 975.066,1039.78 983.325,1069.24 991.585,1097.34 999.893,1123.99 1008.2,1148.77 1016.51,1171.42 1024.82,1191.74 1028.97,1200.97 1033.13,1209.53 1037.28,1217.43 1041.43,1224.62 1045.59,1231.11 1049.74,1236.86 1053.9,1241.87 1058.05,1246.12 1062.64,1249.93 1067.24,1252.79 1071.83,1254.69 1076.42,1255.61 1081.02,1255.57 1085.61,1254.55 1090.2,1252.56 1094.79,1249.6 1099.39,1245.67 1103.98,1240.79 1108.57,1234.97 1113.17,1228.22 1117.76,1220.55 1122.35,1212 1126.95,1202.57 1131.54,1192.3 1135.91,1181.76 1140.28,1170.51 1144.65,1158.56 1149.02,1145.95 1153.39,1132.71 1157.76,1118.87 1162.13,1104.47 1166.5,1089.53 1175.24,1058.19 1183.98,1025.17 1192.72,990.791 1201.46,955.379 1219.63,879.947 1237.81,804.732 1246.9,768.201 1255.99,732.908 1265.07,699.228 1274.16,667.518 1281.81,642.601 1289.46,619.509 1297.11,598.416 1304.76,579.483 1312.41,562.854 1320.06,548.656 1323.89,542.503 1327.71,536.997 1331.54,532.148 1335.36,527.966 1340.03,523.777 1344.7,520.607 1349.37,518.464 1354.04,517.356 1358.71,517.286 1363.38,518.255 1368.05,520.261 1372.72,523.298 1377.39,527.36 1382.06,532.434 1386.73,538.508 1391.4,545.565 1396.07,553.585 1400.74,562.548 1405.41,572.428 1410.08,583.199 1414.36,593.821 1418.63,605.141 1422.91,617.133 1427.19,629.769 1435.75,656.853 1444.3,686.143 1452.86,717.367 1461.41,750.233 1469.97,784.437 1478.52,819.659 1494.33,886.285 1510.13,953.144 1518.03,985.994 1525.94,1018.11 1533.84,1049.23 1541.74,1079.11 1549.74,1107.86 1557.75,1134.86 1565.75,1159.89 1573.76,1182.74 1581.76,1203.21 1589.77,1221.15 1593.77,1229.12 1597.77,1236.41 1601.77,1242.99 1605.77,1248.85 1610.26,1254.56 1614.75,1259.34 1619.23,1263.17 1623.72,1266.05 1628.2,1267.98 1632.69,1268.94 1637.17,1268.93 1641.66,1267.95 1646.14,1266.01 1650.63,1263.11 1655.11,1259.26 1659.6,1254.46 1664.08,1248.74 1668.57,1242.1 1673.05,1234.56 1677.54,1226.14 1681.6,1217.77 1685.67,1208.72 1689.73,1199 1693.8,1188.63 1701.93,1166.04 1710.06,1141.14 1718.18,1114.15 1726.31,1085.29 1734.44,1054.81 1742.57,1022.97 1761.18,946.378 1779.8,867.468 1789.11,828.238 1798.41,789.742 1807.72,752.408 1817.03,716.655 1825.64,685.307 1834.26,655.956 1842.88,628.885 1851.5,604.354 1855.81,593.116 1860.11,582.599 1864.42,572.829 1868.73,563.83 1873.04,555.623 1877.35,548.228 1881.66,541.664 1885.97,535.946 1890.21,531.152 1894.46,527.205 1898.71,524.115 1902.96,521.891 1907.21,520.537 1911.45,520.057 1915.7,520.453 1919.95,521.725 1924.2,523.869 1928.45,526.881 1932.69,530.755 1936.94,535.482 1941.19,541.052 1945.44,547.453 1949.68,554.669 1953.93,562.685 1958.06,571.216 1962.18,580.466 1966.31,590.414 1970.43,601.04 1978.68,624.232 1986.93,649.843 1995.18,677.652 2003.43,707.419 2011.67,738.889 2019.92,771.788 2036.83,842.501 2053.75,915.45 2070.66,987.984 2087.57,1057.46 2096.83,1093.3 2106.1,1127.07 2110.73,1143.06 2115.36,1158.4 2120,1173.03 2124.63,1186.93 2129.26,1200.04 2133.89,1212.35 2138.53,1223.81 2143.16,1234.39 2147.79,1244.06 2152.42,1252.79 2157.05,1260.57 2161.69,1267.36 2168.42,1275.44 2175.14,1281.37 2181.87,1285.1 2188.6,1286.61 2195.33,1285.9 2202.06,1282.96 2208.79,1277.81 2215.52,1270.48 2222.25,1261.01 2228.98,1249.45 2235.71,1235.88 2242.44,1220.35 2249.17,1202.97 2255.89,1183.84 2262.62,1163.05 2269.35,1140.73 2274.87,1121.37 2280.4,1101.13 2285.92,1080.1 2291.44,1058.36 "/>
<path clip-path="url(#clip100)" d="M1600.33 302.578 L2280.54 302.578 L2280.54 95.2176 L1600.33 95.2176  Z" fill="#ffffff" fill-rule="evenodd" fill-opacity="1"/>
<polyline clip-path="url(#clip100)" style="stroke:#000000; stroke-linecap:round; stroke-linejoin:round; stroke-width:4; stroke-opacity:1; fill:none" points="1600.33,302.578 2280.54,302.578 2280.54,95.2176 1600.33,95.2176 1600.33,302.578 "/>
<polyline clip-path="url(#clip100)" style="stroke:#009af9; stroke-linecap:round; stroke-linejoin:round; stroke-width:4; stroke-opacity:1; fill:none" points="1624.4,147.058 1768.83,147.058 "/>
<path clip-path="url(#clip100)" d="M1813.25 143.389 Q1814.85 140.518 1817.07 139.153 Q1819.29 137.787 1822.3 137.787 Q1826.35 137.787 1828.55 140.634 Q1830.75 143.458 1830.75 148.689 L1830.75 164.338 L1826.47 164.338 L1826.47 148.828 Q1826.47 145.102 1825.15 143.296 Q1823.83 141.49 1821.12 141.49 Q1817.81 141.49 1815.89 143.69 Q1813.97 145.889 1813.97 149.685 L1813.97 164.338 L1809.69 164.338 L1809.69 148.828 Q1809.69 145.078 1808.37 143.296 Q1807.05 141.49 1804.29 141.49 Q1801.03 141.49 1799.11 143.713 Q1797.19 145.912 1797.19 149.685 L1797.19 164.338 L1792.91 164.338 L1792.91 138.412 L1797.19 138.412 L1797.19 142.44 Q1798.65 140.055 1800.68 138.921 Q1802.72 137.787 1805.52 137.787 Q1808.35 137.787 1810.31 139.222 Q1812.3 140.657 1813.25 143.389 Z" fill="#000000" fill-rule="evenodd" fill-opacity="1" /><path clip-path="url(#clip100)" d="M1861.42 150.31 L1861.42 152.393 L1841.84 152.393 Q1842.12 156.791 1844.48 159.106 Q1846.86 161.398 1851.1 161.398 Q1853.55 161.398 1855.84 160.796 Q1858.16 160.194 1860.43 158.99 L1860.43 163.018 Q1858.14 163.99 1855.73 164.5 Q1853.32 165.009 1850.84 165.009 Q1844.64 165.009 1841.01 161.398 Q1837.4 157.787 1837.4 151.629 Q1837.4 145.264 1840.82 141.537 Q1844.27 137.787 1850.1 137.787 Q1855.34 137.787 1858.37 141.166 Q1861.42 144.523 1861.42 150.31 M1857.16 149.06 Q1857.12 145.565 1855.2 143.481 Q1853.3 141.398 1850.15 141.398 Q1846.59 141.398 1844.43 143.412 Q1842.3 145.426 1841.98 149.083 L1857.16 149.06 Z" fill="#000000" fill-rule="evenodd" fill-opacity="1" /><path clip-path="url(#clip100)" d="M1880.2 151.305 Q1875.03 151.305 1873.04 152.486 Q1871.05 153.666 1871.05 156.514 Q1871.05 158.782 1872.53 160.125 Q1874.04 161.444 1876.61 161.444 Q1880.15 161.444 1882.28 158.944 Q1884.43 156.421 1884.43 152.254 L1884.43 151.305 L1880.2 151.305 M1888.69 149.546 L1888.69 164.338 L1884.43 164.338 L1884.43 160.402 Q1882.97 162.763 1880.8 163.898 Q1878.62 165.009 1875.47 165.009 Q1871.49 165.009 1869.13 162.787 Q1866.79 160.541 1866.79 156.791 Q1866.79 152.416 1869.71 150.194 Q1872.65 147.972 1878.46 147.972 L1884.43 147.972 L1884.43 147.555 Q1884.43 144.615 1882.49 143.018 Q1880.57 141.398 1877.07 141.398 Q1874.85 141.398 1872.74 141.93 Q1870.64 142.463 1868.69 143.527 L1868.69 139.592 Q1871.03 138.69 1873.23 138.25 Q1875.43 137.787 1877.51 137.787 Q1883.14 137.787 1885.91 140.703 Q1888.69 143.62 1888.69 149.546 Z" fill="#000000" fill-rule="evenodd" fill-opacity="1" /><path clip-path="url(#clip100)" d="M1919.02 148.689 L1919.02 164.338 L1914.76 164.338 L1914.76 148.828 Q1914.76 145.148 1913.32 143.319 Q1911.89 141.49 1909.02 141.49 Q1905.57 141.49 1903.58 143.69 Q1901.59 145.889 1901.59 149.685 L1901.59 164.338 L1897.3 164.338 L1897.3 138.412 L1901.59 138.412 L1901.59 142.44 Q1903.11 140.102 1905.17 138.944 Q1907.26 137.787 1909.97 137.787 Q1914.43 137.787 1916.72 140.565 Q1919.02 143.319 1919.02 148.689 Z" fill="#000000" fill-rule="evenodd" fill-opacity="1" /><path clip-path="url(#clip100)" d="M1959.64 142.347 L1959.64 128.319 L1963.9 128.319 L1963.9 164.338 L1959.64 164.338 L1959.64 160.449 Q1958.3 162.763 1956.24 163.898 Q1954.2 165.009 1951.33 165.009 Q1946.63 165.009 1943.67 161.259 Q1940.73 157.509 1940.73 151.398 Q1940.73 145.287 1943.67 141.537 Q1946.63 137.787 1951.33 137.787 Q1954.2 137.787 1956.24 138.921 Q1958.3 140.032 1959.64 142.347 M1945.13 151.398 Q1945.13 156.097 1947.05 158.782 Q1948.99 161.444 1952.37 161.444 Q1955.75 161.444 1957.7 158.782 Q1959.64 156.097 1959.64 151.398 Q1959.64 146.699 1957.7 144.037 Q1955.75 141.352 1952.37 141.352 Q1948.99 141.352 1947.05 144.037 Q1945.13 146.699 1945.13 151.398 Z" fill="#000000" fill-rule="evenodd" fill-opacity="1" /><path clip-path="url(#clip100)" d="M1972.67 138.412 L1976.93 138.412 L1976.93 164.338 L1972.67 164.338 L1972.67 138.412 M1972.67 128.319 L1976.93 128.319 L1976.93 133.713 L1972.67 133.713 L1972.67 128.319 Z" fill="#000000" fill-rule="evenodd" fill-opacity="1" /><path clip-path="url(#clip100)" d="M2002.37 139.176 L2002.37 143.203 Q2000.57 142.277 1998.62 141.815 Q1996.68 141.352 1994.59 141.352 Q1991.42 141.352 1989.83 142.324 Q1988.25 143.296 1988.25 145.24 Q1988.25 146.722 1989.39 147.578 Q1990.52 148.412 1993.95 149.176 L1995.4 149.5 Q1999.94 150.472 2001.84 152.254 Q2003.76 154.014 2003.76 157.185 Q2003.76 160.796 2000.89 162.902 Q1998.04 165.009 1993.04 165.009 Q1990.96 165.009 1988.69 164.592 Q1986.45 164.199 1983.95 163.388 L1983.95 158.99 Q1986.31 160.217 1988.6 160.842 Q1990.89 161.444 1993.14 161.444 Q1996.15 161.444 1997.77 160.426 Q1999.39 159.384 1999.39 157.509 Q1999.39 155.773 1998.21 154.847 Q1997.05 153.921 1993.09 153.064 L1991.61 152.717 Q1987.65 151.884 1985.89 150.171 Q1984.13 148.435 1984.13 145.426 Q1984.13 141.768 1986.72 139.778 Q1989.32 137.787 1994.08 137.787 Q1996.45 137.787 1998.53 138.134 Q2000.61 138.481 2002.37 139.176 Z" fill="#000000" fill-rule="evenodd" fill-opacity="1" /><path clip-path="url(#clip100)" d="M2014.66 160.449 L2014.66 174.199 L2010.38 174.199 L2010.38 138.412 L2014.66 138.412 L2014.66 142.347 Q2016.01 140.032 2018.04 138.921 Q2020.1 137.787 2022.95 137.787 Q2027.67 137.787 2030.61 141.537 Q2033.58 145.287 2033.58 151.398 Q2033.58 157.509 2030.61 161.259 Q2027.67 165.009 2022.95 165.009 Q2020.1 165.009 2018.04 163.898 Q2016.01 162.763 2014.66 160.449 M2029.15 151.398 Q2029.15 146.699 2027.21 144.037 Q2025.29 141.352 2021.91 141.352 Q2018.53 141.352 2016.58 144.037 Q2014.66 146.699 2014.66 151.398 Q2014.66 156.097 2016.58 158.782 Q2018.53 161.444 2021.91 161.444 Q2025.29 161.444 2027.21 158.782 Q2029.15 156.097 2029.15 151.398 Z" fill="#000000" fill-rule="evenodd" fill-opacity="1" /><path clip-path="url(#clip100)" d="M2040.64 128.319 L2044.89 128.319 L2044.89 164.338 L2040.64 164.338 L2040.64 128.319 Z" fill="#000000" fill-rule="evenodd" fill-opacity="1" /><path clip-path="url(#clip100)" d="M2065.59 151.305 Q2060.43 151.305 2058.44 152.486 Q2056.45 153.666 2056.45 156.514 Q2056.45 158.782 2057.93 160.125 Q2059.43 161.444 2062 161.444 Q2065.54 161.444 2067.67 158.944 Q2069.83 156.421 2069.83 152.254 L2069.83 151.305 L2065.59 151.305 M2074.08 149.546 L2074.08 164.338 L2069.83 164.338 L2069.83 160.402 Q2068.37 162.763 2066.19 163.898 Q2064.02 165.009 2060.87 165.009 Q2056.89 165.009 2054.52 162.787 Q2052.19 160.541 2052.19 156.791 Q2052.19 152.416 2055.1 150.194 Q2058.04 147.972 2063.85 147.972 L2069.83 147.972 L2069.83 147.555 Q2069.83 144.615 2067.88 143.018 Q2065.96 141.398 2062.46 141.398 Q2060.24 141.398 2058.14 141.93 Q2056.03 142.463 2054.08 143.527 L2054.08 139.592 Q2056.42 138.69 2058.62 138.25 Q2060.82 137.787 2062.9 137.787 Q2068.53 137.787 2071.31 140.703 Q2074.08 143.62 2074.08 149.546 Z" fill="#000000" fill-rule="evenodd" fill-opacity="1" /><path clip-path="url(#clip100)" d="M2101.51 139.407 L2101.51 143.389 Q2099.71 142.393 2097.88 141.907 Q2096.08 141.398 2094.22 141.398 Q2090.08 141.398 2087.79 144.037 Q2085.5 146.652 2085.5 151.398 Q2085.5 156.143 2087.79 158.782 Q2090.08 161.398 2094.22 161.398 Q2096.08 161.398 2097.88 160.912 Q2099.71 160.402 2101.51 159.407 L2101.51 163.342 Q2099.73 164.176 2097.81 164.592 Q2095.91 165.009 2093.76 165.009 Q2087.9 165.009 2084.45 161.328 Q2081.01 157.648 2081.01 151.398 Q2081.01 145.055 2084.48 141.421 Q2087.97 137.787 2094.04 137.787 Q2096.01 137.787 2097.88 138.203 Q2099.76 138.597 2101.51 139.407 Z" fill="#000000" fill-rule="evenodd" fill-opacity="1" /><path clip-path="url(#clip100)" d="M2131.1 150.31 L2131.1 152.393 L2111.51 152.393 Q2111.79 156.791 2114.15 159.106 Q2116.54 161.398 2120.77 161.398 Q2123.23 161.398 2125.52 160.796 Q2127.83 160.194 2130.1 158.99 L2130.1 163.018 Q2127.81 163.99 2125.4 164.5 Q2123 165.009 2120.52 165.009 Q2114.32 165.009 2110.68 161.398 Q2107.07 157.787 2107.07 151.629 Q2107.07 145.264 2110.5 141.537 Q2113.95 137.787 2119.78 137.787 Q2125.01 137.787 2128.04 141.166 Q2131.1 144.523 2131.1 150.31 M2126.84 149.06 Q2126.79 145.565 2124.87 143.481 Q2122.97 141.398 2119.83 141.398 Q2116.26 141.398 2114.11 143.412 Q2111.98 145.426 2111.65 149.083 L2126.84 149.06 Z" fill="#000000" fill-rule="evenodd" fill-opacity="1" /><path clip-path="url(#clip100)" d="M2158.27 143.389 Q2159.87 140.518 2162.09 139.153 Q2164.32 137.787 2167.32 137.787 Q2171.38 137.787 2173.57 140.634 Q2175.77 143.458 2175.77 148.689 L2175.77 164.338 L2171.49 164.338 L2171.49 148.828 Q2171.49 145.102 2170.17 143.296 Q2168.85 141.49 2166.14 141.49 Q2162.83 141.49 2160.91 143.69 Q2158.99 145.889 2158.99 149.685 L2158.99 164.338 L2154.71 164.338 L2154.71 148.828 Q2154.71 145.078 2153.39 143.296 Q2152.07 141.49 2149.32 141.49 Q2146.05 141.49 2144.13 143.713 Q2142.21 145.912 2142.21 149.685 L2142.21 164.338 L2137.93 164.338 L2137.93 138.412 L2142.21 138.412 L2142.21 142.44 Q2143.67 140.055 2145.7 138.921 Q2147.74 137.787 2150.54 137.787 Q2153.37 137.787 2155.33 139.222 Q2157.32 140.657 2158.27 143.389 Z" fill="#000000" fill-rule="evenodd" fill-opacity="1" /><path clip-path="url(#clip100)" d="M2206.44 150.31 L2206.44 152.393 L2186.86 152.393 Q2187.14 156.791 2189.5 159.106 Q2191.88 161.398 2196.12 161.398 Q2198.57 161.398 2200.87 160.796 Q2203.18 160.194 2205.45 158.99 L2205.45 163.018 Q2203.16 163.99 2200.75 164.5 Q2198.34 165.009 2195.87 165.009 Q2189.66 165.009 2186.03 161.398 Q2182.42 157.787 2182.42 151.629 Q2182.42 145.264 2185.84 141.537 Q2189.29 137.787 2195.13 137.787 Q2200.36 137.787 2203.39 141.166 Q2206.44 144.523 2206.44 150.31 M2202.19 149.06 Q2202.14 145.565 2200.22 143.481 Q2198.32 141.398 2195.17 141.398 Q2191.61 141.398 2189.45 143.412 Q2187.32 145.426 2187 149.083 L2202.19 149.06 Z" fill="#000000" fill-rule="evenodd" fill-opacity="1" /><path clip-path="url(#clip100)" d="M2234.99 148.689 L2234.99 164.338 L2230.73 164.338 L2230.73 148.828 Q2230.73 145.148 2229.29 143.319 Q2227.86 141.49 2224.99 141.49 Q2221.54 141.49 2219.55 143.69 Q2217.56 145.889 2217.56 149.685 L2217.56 164.338 L2213.27 164.338 L2213.27 138.412 L2217.56 138.412 L2217.56 142.44 Q2219.08 140.102 2221.14 138.944 Q2223.23 137.787 2225.94 137.787 Q2230.4 137.787 2232.69 140.565 Q2234.99 143.319 2234.99 148.689 Z" fill="#000000" fill-rule="evenodd" fill-opacity="1" /><path clip-path="url(#clip100)" d="M2247.69 131.051 L2247.69 138.412 L2256.47 138.412 L2256.47 141.722 L2247.69 141.722 L2247.69 155.796 Q2247.69 158.967 2248.55 159.87 Q2249.43 160.773 2252.09 160.773 L2256.47 160.773 L2256.47 164.338 L2252.09 164.338 Q2247.16 164.338 2245.29 162.509 Q2243.41 160.657 2243.41 155.796 L2243.41 141.722 L2240.29 141.722 L2240.29 138.412 L2243.41 138.412 L2243.41 131.051 L2247.69 131.051 Z" fill="#000000" fill-rule="evenodd" fill-opacity="1" /><polyline clip-path="url(#clip100)" style="stroke:#e26f46; stroke-linecap:round; stroke-linejoin:round; stroke-width:4; stroke-opacity:1; fill:none" points="1624.4,198.898 1768.83,198.898 "/>
<path clip-path="url(#clip100)" d="M1800.31 182.891 L1800.31 190.252 L1809.09 190.252 L1809.09 193.562 L1800.31 193.562 L1800.31 207.636 Q1800.31 210.807 1801.17 211.71 Q1802.05 212.613 1804.71 212.613 L1809.09 212.613 L1809.09 216.178 L1804.71 216.178 Q1799.78 216.178 1797.91 214.349 Q1796.03 212.497 1796.03 207.636 L1796.03 193.562 L1792.91 193.562 L1792.91 190.252 L1796.03 190.252 L1796.03 182.891 L1800.31 182.891 Z" fill="#000000" fill-rule="evenodd" fill-opacity="1" /><path clip-path="url(#clip100)" d="M1814.69 190.252 L1818.95 190.252 L1818.95 216.178 L1814.69 216.178 L1814.69 190.252 M1814.69 180.159 L1818.95 180.159 L1818.95 185.553 L1814.69 185.553 L1814.69 180.159 Z" fill="#000000" fill-rule="evenodd" fill-opacity="1" /><path clip-path="url(#clip100)" d="M1848.04 195.229 Q1849.64 192.358 1851.86 190.993 Q1854.09 189.627 1857.09 189.627 Q1861.15 189.627 1863.34 192.474 Q1865.54 195.298 1865.54 200.529 L1865.54 216.178 L1861.26 216.178 L1861.26 200.668 Q1861.26 196.942 1859.94 195.136 Q1858.62 193.33 1855.91 193.33 Q1852.6 193.33 1850.68 195.53 Q1848.76 197.729 1848.76 201.525 L1848.76 216.178 L1844.48 216.178 L1844.48 200.668 Q1844.48 196.918 1843.16 195.136 Q1841.84 193.33 1839.09 193.33 Q1835.82 193.33 1833.9 195.553 Q1831.98 197.752 1831.98 201.525 L1831.98 216.178 L1827.7 216.178 L1827.7 190.252 L1831.98 190.252 L1831.98 194.28 Q1833.44 191.895 1835.47 190.761 Q1837.51 189.627 1840.31 189.627 Q1843.14 189.627 1845.1 191.062 Q1847.1 192.497 1848.04 195.229 Z" fill="#000000" fill-rule="evenodd" fill-opacity="1" /><path clip-path="url(#clip100)" d="M1896.22 202.15 L1896.22 204.233 L1876.63 204.233 Q1876.91 208.631 1879.27 210.946 Q1881.66 213.238 1885.89 213.238 Q1888.34 213.238 1890.64 212.636 Q1892.95 212.034 1895.22 210.83 L1895.22 214.858 Q1892.93 215.83 1890.52 216.34 Q1888.11 216.849 1885.64 216.849 Q1879.43 216.849 1875.8 213.238 Q1872.19 209.627 1872.19 203.469 Q1872.19 197.104 1875.61 193.377 Q1879.06 189.627 1884.9 189.627 Q1890.13 189.627 1893.16 193.006 Q1896.22 196.363 1896.22 202.15 M1891.96 200.9 Q1891.91 197.405 1889.99 195.321 Q1888.09 193.238 1884.94 193.238 Q1881.38 193.238 1879.22 195.252 Q1877.09 197.266 1876.77 200.923 L1891.96 200.9 Z" fill="#000000" fill-rule="evenodd" fill-opacity="1" /><path clip-path="url(#clip100)" d="M1930.06 203.145 Q1924.9 203.145 1922.9 204.326 Q1920.91 205.506 1920.91 208.354 Q1920.91 210.622 1922.4 211.965 Q1923.9 213.284 1926.47 213.284 Q1930.01 213.284 1932.14 210.784 Q1934.29 208.261 1934.29 204.094 L1934.29 203.145 L1930.06 203.145 M1938.55 201.386 L1938.55 216.178 L1934.29 216.178 L1934.29 212.242 Q1932.84 214.603 1930.66 215.738 Q1928.48 216.849 1925.34 216.849 Q1921.35 216.849 1918.99 214.627 Q1916.65 212.381 1916.65 208.631 Q1916.65 204.256 1919.57 202.034 Q1922.51 199.812 1928.32 199.812 L1934.29 199.812 L1934.29 199.395 Q1934.29 196.455 1932.35 194.858 Q1930.43 193.238 1926.93 193.238 Q1924.71 193.238 1922.6 193.77 Q1920.5 194.303 1918.55 195.367 L1918.55 191.432 Q1920.89 190.53 1923.09 190.09 Q1925.29 189.627 1927.37 189.627 Q1933 189.627 1935.78 192.543 Q1938.55 195.46 1938.55 201.386 Z" fill="#000000" fill-rule="evenodd" fill-opacity="1" /><path clip-path="url(#clip100)" d="M1944.27 190.252 L1948.78 190.252 L1956.89 212.011 L1964.99 190.252 L1969.5 190.252 L1959.78 216.178 L1953.99 216.178 L1944.27 190.252 Z" fill="#000000" fill-rule="evenodd" fill-opacity="1" /><path clip-path="url(#clip100)" d="M1997.56 202.15 L1997.56 204.233 L1977.97 204.233 Q1978.25 208.631 1980.61 210.946 Q1983 213.238 1987.23 213.238 Q1989.69 213.238 1991.98 212.636 Q1994.29 212.034 1996.56 210.83 L1996.56 214.858 Q1994.27 215.83 1991.86 216.34 Q1989.46 216.849 1986.98 216.849 Q1980.77 216.849 1977.14 213.238 Q1973.53 209.627 1973.53 203.469 Q1973.53 197.104 1976.96 193.377 Q1980.4 189.627 1986.24 189.627 Q1991.47 189.627 1994.5 193.006 Q1997.56 196.363 1997.56 202.15 M1993.3 200.9 Q1993.25 197.405 1991.33 195.321 Q1989.43 193.238 1986.28 193.238 Q1982.72 193.238 1980.57 195.252 Q1978.44 197.266 1978.11 200.923 L1993.3 200.9 Z" fill="#000000" fill-rule="evenodd" fill-opacity="1" /><path clip-path="url(#clip100)" d="M2019.57 194.233 Q2018.85 193.817 2018 193.631 Q2017.16 193.423 2016.15 193.423 Q2012.53 193.423 2010.59 195.784 Q2008.67 198.122 2008.67 202.52 L2008.67 216.178 L2004.39 216.178 L2004.39 190.252 L2008.67 190.252 L2008.67 194.28 Q2010.01 191.918 2012.16 190.784 Q2014.32 189.627 2017.4 189.627 Q2017.83 189.627 2018.37 189.696 Q2018.9 189.743 2019.55 189.858 L2019.57 194.233 Z" fill="#000000" fill-rule="evenodd" fill-opacity="1" /><path clip-path="url(#clip100)" d="M2035.82 203.145 Q2030.66 203.145 2028.67 204.326 Q2026.68 205.506 2026.68 208.354 Q2026.68 210.622 2028.16 211.965 Q2029.66 213.284 2032.23 213.284 Q2035.77 213.284 2037.9 210.784 Q2040.06 208.261 2040.06 204.094 L2040.06 203.145 L2035.82 203.145 M2044.32 201.386 L2044.32 216.178 L2040.06 216.178 L2040.06 212.242 Q2038.6 214.603 2036.42 215.738 Q2034.25 216.849 2031.1 216.849 Q2027.12 216.849 2024.76 214.627 Q2022.42 212.381 2022.42 208.631 Q2022.42 204.256 2025.33 202.034 Q2028.27 199.812 2034.08 199.812 L2040.06 199.812 L2040.06 199.395 Q2040.06 196.455 2038.11 194.858 Q2036.19 193.238 2032.7 193.238 Q2030.47 193.238 2028.37 193.77 Q2026.26 194.303 2024.32 195.367 L2024.32 191.432 Q2026.65 190.53 2028.85 190.09 Q2031.05 189.627 2033.14 189.627 Q2038.76 189.627 2041.54 192.543 Q2044.32 195.46 2044.32 201.386 Z" fill="#000000" fill-rule="evenodd" fill-opacity="1" /><path clip-path="url(#clip100)" d="M2070.15 202.914 Q2070.15 198.284 2068.23 195.738 Q2066.33 193.192 2062.88 193.192 Q2059.45 193.192 2057.53 195.738 Q2055.64 198.284 2055.64 202.914 Q2055.64 207.52 2057.53 210.066 Q2059.45 212.613 2062.88 212.613 Q2066.33 212.613 2068.23 210.066 Q2070.15 207.52 2070.15 202.914 M2074.41 212.96 Q2074.41 219.58 2071.47 222.798 Q2068.53 226.039 2062.46 226.039 Q2060.22 226.039 2058.23 225.691 Q2056.24 225.367 2054.36 224.673 L2054.36 220.529 Q2056.24 221.548 2058.07 222.034 Q2059.89 222.52 2061.79 222.52 Q2065.98 222.52 2068.07 220.321 Q2070.15 218.145 2070.15 213.724 L2070.15 211.617 Q2068.83 213.909 2066.77 215.043 Q2064.71 216.178 2061.84 216.178 Q2057.07 216.178 2054.15 212.543 Q2051.24 208.909 2051.24 202.914 Q2051.24 196.895 2054.15 193.261 Q2057.07 189.627 2061.84 189.627 Q2064.71 189.627 2066.77 190.761 Q2068.83 191.895 2070.15 194.187 L2070.15 190.252 L2074.41 190.252 L2074.41 212.96 Z" fill="#000000" fill-rule="evenodd" fill-opacity="1" /><path clip-path="url(#clip100)" d="M2105.36 202.15 L2105.36 204.233 L2085.77 204.233 Q2086.05 208.631 2088.41 210.946 Q2090.8 213.238 2095.03 213.238 Q2097.49 213.238 2099.78 212.636 Q2102.09 212.034 2104.36 210.83 L2104.36 214.858 Q2102.07 215.83 2099.66 216.34 Q2097.26 216.849 2094.78 216.849 Q2088.58 216.849 2084.94 213.238 Q2081.33 209.627 2081.33 203.469 Q2081.33 197.104 2084.76 193.377 Q2088.2 189.627 2094.04 189.627 Q2099.27 189.627 2102.3 193.006 Q2105.36 196.363 2105.36 202.15 M2101.1 200.9 Q2101.05 197.405 2099.13 195.321 Q2097.23 193.238 2094.08 193.238 Q2090.52 193.238 2088.37 195.252 Q2086.24 197.266 2085.91 200.923 L2101.1 200.9 Z" fill="#000000" fill-rule="evenodd" fill-opacity="1" /><polyline clip-path="url(#clip100)" style="stroke:#3da44d; stroke-linecap:round; stroke-linejoin:round; stroke-width:4; stroke-opacity:1; fill:none" points="1624.4,250.738 1768.83,250.738 "/>
<path clip-path="url(#clip100)" d="M1794.99 246.721 Q1796.4 244.36 1799.9 242.277 Q1801.26 241.467 1805.47 241.467 Q1810.2 241.467 1813.14 245.217 Q1816.1 248.967 1816.1 255.078 Q1816.1 261.189 1813.14 264.939 Q1810.2 268.689 1805.47 268.689 Q1802.63 268.689 1800.57 267.578 Q1798.53 266.443 1797.19 264.129 L1797.19 277.879 L1792.91 277.879 L1792.91 255.309 Q1792.91 249.962 1794.99 246.721 M1811.68 255.078 Q1811.68 250.379 1809.73 247.717 Q1807.81 245.032 1804.43 245.032 Q1801.05 245.032 1799.11 247.717 Q1797.19 250.379 1797.19 255.078 Q1797.19 259.777 1799.11 262.462 Q1801.05 265.124 1804.43 265.124 Q1807.81 265.124 1809.73 262.462 Q1811.68 259.777 1811.68 255.078 Z" fill="#000000" fill-rule="evenodd" fill-opacity="1" /><path clip-path="url(#clip100)" d="M1842.86 275.888 L1842.86 279.198 L1818.23 279.198 L1818.23 275.888 L1842.86 275.888 Z" fill="#000000" fill-rule="evenodd" fill-opacity="1" /><path clip-path="url(#clip100)" d="M1858.6 238.064 L1852.26 255.263 L1864.97 255.263 L1858.6 238.064 M1855.96 233.458 L1861.26 233.458 L1874.43 268.018 L1869.57 268.018 L1866.42 259.152 L1850.84 259.152 L1847.7 268.018 L1842.77 268.018 L1855.96 233.458 Z" fill="#000000" fill-rule="evenodd" fill-opacity="1" /></svg>
