<?xml version="1.0" encoding="utf-8"?>
<svg xmlns="http://www.w3.org/2000/svg" xmlns:xlink="http://www.w3.org/1999/xlink" width="600" height="400" viewBox="0 0 2400 1600">
<defs>
  <clipPath id="clip610">
    <rect x="0" y="0" width="2400" height="1600"/>
  </clipPath>
</defs>
<path clip-path="url(#clip610)" d="M0 1600 L2400 1600 L2400 0 L0 0  Z" fill="#ffffff" fill-rule="evenodd" fill-opacity="1"/>
<defs>
  <clipPath id="clip611">
    <rect x="480" y="0" width="1681" height="1600"/>
  </clipPath>
</defs>
<path clip-path="url(#clip610)" d="M186.274 1486.45 L2352.76 1486.45 L2352.76 47.2441 L186.274 47.2441  Z" fill="#ffffff" fill-rule="evenodd" fill-opacity="1"/>
<defs>
  <clipPath id="clip612">
    <rect x="186" y="47" width="2167" height="1440"/>
  </clipPath>
</defs>
<polyline clip-path="url(#clip612)" style="stroke:#000000; stroke-linecap:round; stroke-linejoin:round; stroke-width:2; stroke-opacity:0.1; fill:none" points="247.59,1486.45 247.59,47.2441 "/>
<polyline clip-path="url(#clip612)" style="stroke:#000000; stroke-linecap:round; stroke-linejoin:round; stroke-width:2; stroke-opacity:0.1; fill:none" points="758.552,1486.45 758.552,47.2441 "/>
<polyline clip-path="url(#clip612)" style="stroke:#000000; stroke-linecap:round; stroke-linejoin:round; stroke-width:2; stroke-opacity:0.1; fill:none" points="1269.51,1486.45 1269.51,47.2441 "/>
<polyline clip-path="url(#clip612)" style="stroke:#000000; stroke-linecap:round; stroke-linejoin:round; stroke-width:2; stroke-opacity:0.1; fill:none" points="1780.48,1486.45 1780.48,47.2441 "/>
<polyline clip-path="url(#clip612)" style="stroke:#000000; stroke-linecap:round; stroke-linejoin:round; stroke-width:2; stroke-opacity:0.1; fill:none" points="2291.44,1486.45 2291.44,47.2441 "/>
<polyline clip-path="url(#clip610)" style="stroke:#000000; stroke-linecap:round; stroke-linejoin:round; stroke-width:4; stroke-opacity:1; fill:none" points="186.274,1486.45 2352.76,1486.45 "/>
<polyline clip-path="url(#clip610)" style="stroke:#000000; stroke-linecap:round; stroke-linejoin:round; stroke-width:4; stroke-opacity:1; fill:none" points="247.59,1486.45 247.59,1467.55 "/>
<polyline clip-path="url(#clip610)" style="stroke:#000000; stroke-linecap:round; stroke-linejoin:round; stroke-width:4; stroke-opacity:1; fill:none" points="758.552,1486.45 758.552,1467.55 "/>
<polyline clip-path="url(#clip610)" style="stroke:#000000; stroke-linecap:round; stroke-linejoin:round; stroke-width:4; stroke-opacity:1; fill:none" points="1269.51,1486.45 1269.51,1467.55 "/>
<polyline clip-path="url(#clip610)" style="stroke:#000000; stroke-linecap:round; stroke-linejoin:round; stroke-width:4; stroke-opacity:1; fill:none" points="1780.48,1486.45 1780.48,1467.55 "/>
<polyline clip-path="url(#clip610)" style="stroke:#000000; stroke-linecap:round; stroke-linejoin:round; stroke-width:4; stroke-opacity:1; fill:none" points="2291.44,1486.45 2291.44,1467.55 "/>
<path clip-path="url(#clip610)" d="M247.59 1517.37 Q243.978 1517.37 242.15 1520.93 Q240.344 1524.47 240.344 1531.6 Q240.344 1538.71 242.15 1542.27 Q243.978 1545.82 247.59 1545.82 Q251.224 1545.82 253.029 1542.27 Q254.858 1538.71 254.858 1531.6 Q254.858 1524.47 253.029 1520.93 Q251.224 1517.37 247.59 1517.37 M247.59 1513.66 Q253.4 1513.66 256.455 1518.27 Q259.534 1522.85 259.534 1531.6 Q259.534 1540.33 256.455 1544.94 Q253.4 1549.52 247.59 1549.52 Q241.779 1549.52 238.701 1544.94 Q235.645 1540.33 235.645 1531.6 Q235.645 1522.85 238.701 1518.27 Q241.779 1513.66 247.59 1513.66 Z" fill="#000000" fill-rule="evenodd" fill-opacity="1" /><path clip-path="url(#clip610)" d="M722.245 1544.91 L738.564 1544.91 L738.564 1548.85 L716.62 1548.85 L716.62 1544.91 Q719.282 1542.16 723.865 1537.53 Q728.471 1532.88 729.652 1531.53 Q731.897 1529.01 732.777 1527.27 Q733.68 1525.51 733.68 1523.82 Q733.68 1521.07 731.735 1519.33 Q729.814 1517.6 726.712 1517.6 Q724.513 1517.6 722.059 1518.36 Q719.629 1519.13 716.851 1520.68 L716.851 1515.95 Q719.675 1514.82 722.129 1514.24 Q724.583 1513.66 726.62 1513.66 Q731.99 1513.66 735.184 1516.35 Q738.379 1519.03 738.379 1523.52 Q738.379 1525.65 737.569 1527.57 Q736.782 1529.47 734.675 1532.07 Q734.096 1532.74 730.995 1535.95 Q727.893 1539.15 722.245 1544.91 Z" fill="#000000" fill-rule="evenodd" fill-opacity="1" /><path clip-path="url(#clip610)" d="M748.425 1514.29 L766.781 1514.29 L766.781 1518.22 L752.707 1518.22 L752.707 1526.7 Q753.726 1526.35 754.744 1526.19 Q755.763 1526 756.781 1526 Q762.568 1526 765.948 1529.17 Q769.328 1532.34 769.328 1537.76 Q769.328 1543.34 765.855 1546.44 Q762.383 1549.52 756.064 1549.52 Q753.888 1549.52 751.619 1549.15 Q749.374 1548.78 746.967 1548.04 L746.967 1543.34 Q749.05 1544.47 751.272 1545.03 Q753.494 1545.58 755.971 1545.58 Q759.976 1545.58 762.314 1543.48 Q764.652 1541.37 764.652 1537.76 Q764.652 1534.15 762.314 1532.04 Q759.976 1529.94 755.971 1529.94 Q754.096 1529.94 752.221 1530.35 Q750.369 1530.77 748.425 1531.65 L748.425 1514.29 Z" fill="#000000" fill-rule="evenodd" fill-opacity="1" /><path clip-path="url(#clip610)" d="M788.541 1517.37 Q784.929 1517.37 783.101 1520.93 Q781.295 1524.47 781.295 1531.6 Q781.295 1538.71 783.101 1542.27 Q784.929 1545.82 788.541 1545.82 Q792.175 1545.82 793.98 1542.27 Q795.809 1538.71 795.809 1531.6 Q795.809 1524.47 793.98 1520.93 Q792.175 1517.37 788.541 1517.37 M788.541 1513.66 Q794.351 1513.66 797.406 1518.27 Q800.485 1522.85 800.485 1531.6 Q800.485 1540.33 797.406 1544.94 Q794.351 1549.52 788.541 1549.52 Q782.73 1549.52 779.652 1544.94 Q776.596 1540.33 776.596 1531.6 Q776.596 1522.85 779.652 1518.27 Q782.73 1513.66 788.541 1513.66 Z" fill="#000000" fill-rule="evenodd" fill-opacity="1" /><path clip-path="url(#clip610)" d="M1229.13 1514.29 L1247.49 1514.29 L1247.49 1518.22 L1233.42 1518.22 L1233.42 1526.7 Q1234.43 1526.35 1235.45 1526.19 Q1236.47 1526 1237.49 1526 Q1243.28 1526 1246.66 1529.17 Q1250.04 1532.34 1250.04 1537.76 Q1250.04 1543.34 1246.56 1546.44 Q1243.09 1549.52 1236.77 1549.52 Q1234.6 1549.52 1232.33 1549.15 Q1230.08 1548.78 1227.67 1548.04 L1227.67 1543.34 Q1229.76 1544.47 1231.98 1545.03 Q1234.2 1545.58 1236.68 1545.58 Q1240.68 1545.58 1243.02 1543.48 Q1245.36 1541.37 1245.36 1537.76 Q1245.36 1534.15 1243.02 1532.04 Q1240.68 1529.94 1236.68 1529.94 Q1234.8 1529.94 1232.93 1530.35 Q1231.08 1530.77 1229.13 1531.65 L1229.13 1514.29 Z" fill="#000000" fill-rule="evenodd" fill-opacity="1" /><path clip-path="url(#clip610)" d="M1269.25 1517.37 Q1265.64 1517.37 1263.81 1520.93 Q1262 1524.47 1262 1531.6 Q1262 1538.71 1263.81 1542.27 Q1265.64 1545.82 1269.25 1545.82 Q1272.88 1545.82 1274.69 1542.27 Q1276.52 1538.71 1276.52 1531.6 Q1276.52 1524.47 1274.69 1520.93 Q1272.88 1517.37 1269.25 1517.37 M1269.25 1513.66 Q1275.06 1513.66 1278.11 1518.27 Q1281.19 1522.85 1281.19 1531.6 Q1281.19 1540.33 1278.11 1544.94 Q1275.06 1549.52 1269.25 1549.52 Q1263.44 1549.52 1260.36 1544.94 Q1257.3 1540.33 1257.3 1531.6 Q1257.3 1522.85 1260.36 1518.27 Q1263.44 1513.66 1269.25 1513.66 Z" fill="#000000" fill-rule="evenodd" fill-opacity="1" /><path clip-path="url(#clip610)" d="M1299.41 1517.37 Q1295.8 1517.37 1293.97 1520.93 Q1292.17 1524.47 1292.17 1531.6 Q1292.17 1538.71 1293.97 1542.27 Q1295.8 1545.82 1299.41 1545.82 Q1303.04 1545.82 1304.85 1542.27 Q1306.68 1538.71 1306.68 1531.6 Q1306.68 1524.47 1304.85 1520.93 Q1303.04 1517.37 1299.41 1517.37 M1299.41 1513.66 Q1305.22 1513.66 1308.28 1518.27 Q1311.36 1522.85 1311.36 1531.6 Q1311.36 1540.33 1308.28 1544.94 Q1305.22 1549.52 1299.41 1549.52 Q1293.6 1549.52 1290.52 1544.94 Q1287.47 1540.33 1287.47 1531.6 Q1287.47 1522.85 1290.52 1518.27 Q1293.6 1513.66 1299.41 1513.66 Z" fill="#000000" fill-rule="evenodd" fill-opacity="1" /><path clip-path="url(#clip610)" d="M1738.75 1514.29 L1760.98 1514.29 L1760.98 1516.28 L1748.43 1548.85 L1743.54 1548.85 L1755.35 1518.22 L1738.75 1518.22 L1738.75 1514.29 Z" fill="#000000" fill-rule="evenodd" fill-opacity="1" /><path clip-path="url(#clip610)" d="M1770.14 1514.29 L1788.5 1514.29 L1788.5 1518.22 L1774.42 1518.22 L1774.42 1526.7 Q1775.44 1526.35 1776.46 1526.19 Q1777.48 1526 1778.5 1526 Q1784.29 1526 1787.67 1529.17 Q1791.04 1532.34 1791.04 1537.76 Q1791.04 1543.34 1787.57 1546.44 Q1784.1 1549.52 1777.78 1549.52 Q1775.61 1549.52 1773.34 1549.15 Q1771.09 1548.78 1768.68 1548.04 L1768.68 1543.34 Q1770.77 1544.47 1772.99 1545.03 Q1775.21 1545.58 1777.69 1545.58 Q1781.69 1545.58 1784.03 1543.48 Q1786.37 1541.37 1786.37 1537.76 Q1786.37 1534.15 1784.03 1532.04 Q1781.69 1529.94 1777.69 1529.94 Q1775.81 1529.94 1773.94 1530.35 Q1772.09 1530.77 1770.14 1531.65 L1770.14 1514.29 Z" fill="#000000" fill-rule="evenodd" fill-opacity="1" /><path clip-path="url(#clip610)" d="M1810.26 1517.37 Q1806.65 1517.37 1804.82 1520.93 Q1803.01 1524.47 1803.01 1531.6 Q1803.01 1538.71 1804.82 1542.27 Q1806.65 1545.82 1810.26 1545.82 Q1813.89 1545.82 1815.7 1542.27 Q1817.53 1538.71 1817.53 1531.6 Q1817.53 1524.47 1815.7 1520.93 Q1813.89 1517.37 1810.26 1517.37 M1810.26 1513.66 Q1816.07 1513.66 1819.12 1518.27 Q1822.2 1522.85 1822.2 1531.6 Q1822.2 1540.33 1819.12 1544.94 Q1816.07 1549.52 1810.26 1549.52 Q1804.45 1549.52 1801.37 1544.94 Q1798.31 1540.33 1798.31 1531.6 Q1798.31 1522.85 1801.37 1518.27 Q1804.45 1513.66 1810.26 1513.66 Z" fill="#000000" fill-rule="evenodd" fill-opacity="1" /><path clip-path="url(#clip610)" d="M2235.97 1544.91 L2243.6 1544.91 L2243.6 1518.55 L2235.29 1520.21 L2235.29 1515.95 L2243.56 1514.29 L2248.23 1514.29 L2248.23 1544.91 L2255.87 1544.91 L2255.87 1548.85 L2235.97 1548.85 L2235.97 1544.91 Z" fill="#000000" fill-rule="evenodd" fill-opacity="1" /><path clip-path="url(#clip610)" d="M2275.32 1517.37 Q2271.71 1517.37 2269.88 1520.93 Q2268.07 1524.47 2268.07 1531.6 Q2268.07 1538.71 2269.88 1542.27 Q2271.71 1545.82 2275.32 1545.82 Q2278.95 1545.82 2280.76 1542.27 Q2282.59 1538.71 2282.59 1531.6 Q2282.59 1524.47 2280.76 1520.93 Q2278.95 1517.37 2275.32 1517.37 M2275.32 1513.66 Q2281.13 1513.66 2284.18 1518.27 Q2287.26 1522.85 2287.26 1531.6 Q2287.26 1540.33 2284.18 1544.94 Q2281.13 1549.52 2275.32 1549.52 Q2269.51 1549.52 2266.43 1544.94 Q2263.37 1540.33 2263.37 1531.6 Q2263.37 1522.85 2266.43 1518.27 Q2269.51 1513.66 2275.32 1513.66 Z" fill="#000000" fill-rule="evenodd" fill-opacity="1" /><path clip-path="url(#clip610)" d="M2305.48 1517.37 Q2301.87 1517.37 2300.04 1520.93 Q2298.23 1524.47 2298.23 1531.6 Q2298.23 1538.71 2300.04 1542.27 Q2301.87 1545.82 2305.48 1545.82 Q2309.11 1545.82 2310.92 1542.27 Q2312.75 1538.71 2312.75 1531.6 Q2312.75 1524.47 2310.92 1520.93 Q2309.11 1517.37 2305.48 1517.37 M2305.48 1513.66 Q2311.29 1513.66 2314.35 1518.27 Q2317.42 1522.85 2317.42 1531.6 Q2317.42 1540.33 2314.35 1544.94 Q2311.29 1549.52 2305.48 1549.52 Q2299.67 1549.52 2296.59 1544.94 Q2293.54 1540.33 2293.54 1531.6 Q2293.54 1522.85 2296.59 1518.27 Q2299.67 1513.66 2305.48 1513.66 Z" fill="#000000" fill-rule="evenodd" fill-opacity="1" /><path clip-path="url(#clip610)" d="M2335.64 1517.37 Q2332.03 1517.37 2330.2 1520.93 Q2328.4 1524.47 2328.4 1531.6 Q2328.4 1538.71 2330.2 1542.27 Q2332.03 1545.82 2335.64 1545.82 Q2339.28 1545.82 2341.08 1542.27 Q2342.91 1538.71 2342.91 1531.6 Q2342.91 1524.47 2341.08 1520.93 Q2339.28 1517.37 2335.64 1517.37 M2335.64 1513.66 Q2341.45 1513.66 2344.51 1518.27 Q2347.59 1522.85 2347.59 1531.6 Q2347.59 1540.33 2344.51 1544.94 Q2341.45 1549.52 2335.64 1549.52 Q2329.83 1549.52 2326.75 1544.94 Q2323.7 1540.33 2323.7 1531.6 Q2323.7 1522.85 2326.75 1518.27 Q2329.83 1513.66 2335.64 1513.66 Z" fill="#000000" fill-rule="evenodd" fill-opacity="1" /><polyline clip-path="url(#clip612)" style="stroke:#000000; stroke-linecap:round; stroke-linejoin:round; stroke-width:2; stroke-opacity:0.1; fill:none" points="186.274,1446.27 2352.76,1446.27 "/>
<polyline clip-path="url(#clip612)" style="stroke:#000000; stroke-linecap:round; stroke-linejoin:round; stroke-width:2; stroke-opacity:0.1; fill:none" points="186.274,1106.7 2352.76,1106.7 "/>
<polyline clip-path="url(#clip612)" style="stroke:#000000; stroke-linecap:round; stroke-linejoin:round; stroke-width:2; stroke-opacity:0.1; fill:none" points="186.274,767.124 2352.76,767.124 "/>
<polyline clip-path="url(#clip612)" style="stroke:#000000; stroke-linecap:round; stroke-linejoin:round; stroke-width:2; stroke-opacity:0.1; fill:none" points="186.274,427.55 2352.76,427.55 "/>
<polyline clip-path="url(#clip612)" style="stroke:#000000; stroke-linecap:round; stroke-linejoin:round; stroke-width:2; stroke-opacity:0.1; fill:none" points="186.274,87.9763 2352.76,87.9763 "/>
<polyline clip-path="url(#clip610)" style="stroke:#000000; stroke-linecap:round; stroke-linejoin:round; stroke-width:4; stroke-opacity:1; fill:none" points="186.274,1486.45 186.274,47.2441 "/>
<polyline clip-path="url(#clip610)" style="stroke:#000000; stroke-linecap:round; stroke-linejoin:round; stroke-width:4; stroke-opacity:1; fill:none" points="186.274,1446.27 205.172,1446.27 "/>
<polyline clip-path="url(#clip610)" style="stroke:#000000; stroke-linecap:round; stroke-linejoin:round; stroke-width:4; stroke-opacity:1; fill:none" points="186.274,1106.7 205.172,1106.7 "/>
<polyline clip-path="url(#clip610)" style="stroke:#000000; stroke-linecap:round; stroke-linejoin:round; stroke-width:4; stroke-opacity:1; fill:none" points="186.274,767.124 205.172,767.124 "/>
<polyline clip-path="url(#clip610)" style="stroke:#000000; stroke-linecap:round; stroke-linejoin:round; stroke-width:4; stroke-opacity:1; fill:none" points="186.274,427.55 205.172,427.55 "/>
<polyline clip-path="url(#clip610)" style="stroke:#000000; stroke-linecap:round; stroke-linejoin:round; stroke-width:4; stroke-opacity:1; fill:none" points="186.274,87.9763 205.172,87.9763 "/>
<path clip-path="url(#clip610)" d="M62.9365 1432.07 Q59.3254 1432.07 57.4967 1435.64 Q55.6912 1439.18 55.6912 1446.31 Q55.6912 1453.41 57.4967 1456.98 Q59.3254 1460.52 62.9365 1460.52 Q66.5707 1460.52 68.3763 1456.98 Q70.205 1453.41 70.205 1446.31 Q70.205 1439.18 68.3763 1435.64 Q66.5707 1432.07 62.9365 1432.07 M62.9365 1428.37 Q68.7467 1428.37 71.8022 1432.97 Q74.8809 1437.56 74.8809 1446.31 Q74.8809 1455.03 71.8022 1459.64 Q68.7467 1464.22 62.9365 1464.22 Q57.1264 1464.22 54.0477 1459.64 Q50.9921 1455.03 50.9921 1446.31 Q50.9921 1437.56 54.0477 1432.97 Q57.1264 1428.37 62.9365 1428.37 Z" fill="#000000" fill-rule="evenodd" fill-opacity="1" /><path clip-path="url(#clip610)" d="M83.0984 1457.67 L87.9827 1457.67 L87.9827 1463.55 L83.0984 1463.55 L83.0984 1457.67 Z" fill="#000000" fill-rule="evenodd" fill-opacity="1" /><path clip-path="url(#clip610)" d="M108.168 1432.07 Q104.557 1432.07 102.728 1435.64 Q100.922 1439.18 100.922 1446.31 Q100.922 1453.41 102.728 1456.98 Q104.557 1460.52 108.168 1460.52 Q111.802 1460.52 113.608 1456.98 Q115.436 1453.41 115.436 1446.31 Q115.436 1439.18 113.608 1435.64 Q111.802 1432.07 108.168 1432.07 M108.168 1428.37 Q113.978 1428.37 117.033 1432.97 Q120.112 1437.56 120.112 1446.31 Q120.112 1455.03 117.033 1459.64 Q113.978 1464.22 108.168 1464.22 Q102.358 1464.22 99.2789 1459.64 Q96.2234 1455.03 96.2234 1446.31 Q96.2234 1437.56 99.2789 1432.97 Q102.358 1428.37 108.168 1428.37 Z" fill="#000000" fill-rule="evenodd" fill-opacity="1" /><path clip-path="url(#clip610)" d="M138.33 1432.07 Q134.719 1432.07 132.89 1435.64 Q131.084 1439.18 131.084 1446.31 Q131.084 1453.41 132.89 1456.98 Q134.719 1460.52 138.33 1460.52 Q141.964 1460.52 143.769 1456.98 Q145.598 1453.41 145.598 1446.31 Q145.598 1439.18 143.769 1435.64 Q141.964 1432.07 138.33 1432.07 M138.33 1428.37 Q144.14 1428.37 147.195 1432.97 Q150.274 1437.56 150.274 1446.31 Q150.274 1455.03 147.195 1459.64 Q144.14 1464.22 138.33 1464.22 Q132.519 1464.22 129.441 1459.64 Q126.385 1455.03 126.385 1446.31 Q126.385 1437.56 129.441 1432.97 Q132.519 1428.37 138.33 1428.37 Z" fill="#000000" fill-rule="evenodd" fill-opacity="1" /><path clip-path="url(#clip610)" d="M63.9319 1092.5 Q60.3208 1092.5 58.4921 1096.06 Q56.6865 1099.6 56.6865 1106.73 Q56.6865 1113.84 58.4921 1117.4 Q60.3208 1120.95 63.9319 1120.95 Q67.5661 1120.95 69.3717 1117.4 Q71.2004 1113.84 71.2004 1106.73 Q71.2004 1099.6 69.3717 1096.06 Q67.5661 1092.5 63.9319 1092.5 M63.9319 1088.79 Q69.742 1088.79 72.7976 1093.4 Q75.8763 1097.98 75.8763 1106.73 Q75.8763 1115.46 72.7976 1120.07 Q69.742 1124.65 63.9319 1124.65 Q58.1217 1124.65 55.043 1120.07 Q51.9875 1115.46 51.9875 1106.73 Q51.9875 1097.98 55.043 1093.4 Q58.1217 1088.79 63.9319 1088.79 Z" fill="#000000" fill-rule="evenodd" fill-opacity="1" /><path clip-path="url(#clip610)" d="M84.0938 1118.1 L88.978 1118.1 L88.978 1123.98 L84.0938 1123.98 L84.0938 1118.1 Z" fill="#000000" fill-rule="evenodd" fill-opacity="1" /><path clip-path="url(#clip610)" d="M103.191 1120.04 L119.51 1120.04 L119.51 1123.98 L97.566 1123.98 L97.566 1120.04 Q100.228 1117.29 104.811 1112.66 Q109.418 1108.01 110.598 1106.66 Q112.844 1104.14 113.723 1102.4 Q114.626 1100.64 114.626 1098.95 Q114.626 1096.2 112.682 1094.46 Q110.76 1092.73 107.658 1092.73 Q105.459 1092.73 103.006 1093.49 Q100.575 1094.26 97.7974 1095.81 L97.7974 1091.08 Q100.621 1089.95 103.075 1089.37 Q105.529 1088.79 107.566 1088.79 Q112.936 1088.79 116.131 1091.48 Q119.325 1094.16 119.325 1098.65 Q119.325 1100.78 118.515 1102.7 Q117.728 1104.6 115.621 1107.2 Q115.043 1107.87 111.941 1111.08 Q108.839 1114.28 103.191 1120.04 Z" fill="#000000" fill-rule="evenodd" fill-opacity="1" /><path clip-path="url(#clip610)" d="M129.371 1089.42 L147.728 1089.42 L147.728 1093.35 L133.654 1093.35 L133.654 1101.83 Q134.672 1101.48 135.691 1101.32 Q136.709 1101.13 137.728 1101.13 Q143.515 1101.13 146.894 1104.3 Q150.274 1107.47 150.274 1112.89 Q150.274 1118.47 146.802 1121.57 Q143.33 1124.65 137.01 1124.65 Q134.834 1124.65 132.566 1124.28 Q130.32 1123.91 127.913 1123.17 L127.913 1118.47 Q129.996 1119.6 132.219 1120.16 Q134.441 1120.71 136.918 1120.71 Q140.922 1120.71 143.26 1118.61 Q145.598 1116.5 145.598 1112.89 Q145.598 1109.28 143.26 1107.17 Q140.922 1105.07 136.918 1105.07 Q135.043 1105.07 133.168 1105.48 Q131.316 1105.9 129.371 1106.78 L129.371 1089.42 Z" fill="#000000" fill-rule="evenodd" fill-opacity="1" /><path clip-path="url(#clip610)" d="M62.9365 752.923 Q59.3254 752.923 57.4967 756.487 Q55.6912 760.029 55.6912 767.159 Q55.6912 774.265 57.4967 777.83 Q59.3254 781.372 62.9365 781.372 Q66.5707 781.372 68.3763 777.83 Q70.205 774.265 70.205 767.159 Q70.205 760.029 68.3763 756.487 Q66.5707 752.923 62.9365 752.923 M62.9365 749.219 Q68.7467 749.219 71.8022 753.825 Q74.8809 758.409 74.8809 767.159 Q74.8809 775.885 71.8022 780.492 Q68.7467 785.075 62.9365 785.075 Q57.1264 785.075 54.0477 780.492 Q50.9921 775.885 50.9921 767.159 Q50.9921 758.409 54.0477 753.825 Q57.1264 749.219 62.9365 749.219 Z" fill="#000000" fill-rule="evenodd" fill-opacity="1" /><path clip-path="url(#clip610)" d="M83.0984 778.524 L87.9827 778.524 L87.9827 784.404 L83.0984 784.404 L83.0984 778.524 Z" fill="#000000" fill-rule="evenodd" fill-opacity="1" /><path clip-path="url(#clip610)" d="M98.2141 749.844 L116.57 749.844 L116.57 753.779 L102.496 753.779 L102.496 762.251 Q103.515 761.904 104.534 761.742 Q105.552 761.557 106.571 761.557 Q112.358 761.557 115.737 764.728 Q119.117 767.899 119.117 773.316 Q119.117 778.895 115.645 781.997 Q112.172 785.075 105.853 785.075 Q103.677 785.075 101.409 784.705 Q99.1632 784.335 96.7558 783.594 L96.7558 778.895 Q98.8391 780.029 101.061 780.585 Q103.284 781.14 105.76 781.14 Q109.765 781.14 112.103 779.034 Q114.441 776.927 114.441 773.316 Q114.441 769.705 112.103 767.598 Q109.765 765.492 105.76 765.492 Q103.885 765.492 102.01 765.909 Q100.159 766.325 98.2141 767.205 L98.2141 749.844 Z" fill="#000000" fill-rule="evenodd" fill-opacity="1" /><path clip-path="url(#clip610)" d="M138.33 752.923 Q134.719 752.923 132.89 756.487 Q131.084 760.029 131.084 767.159 Q131.084 774.265 132.89 777.83 Q134.719 781.372 138.33 781.372 Q141.964 781.372 143.769 777.83 Q145.598 774.265 145.598 767.159 Q145.598 760.029 143.769 756.487 Q141.964 752.923 138.33 752.923 M138.33 749.219 Q144.14 749.219 147.195 753.825 Q150.274 758.409 150.274 767.159 Q150.274 775.885 147.195 780.492 Q144.14 785.075 138.33 785.075 Q132.519 785.075 129.441 780.492 Q126.385 775.885 126.385 767.159 Q126.385 758.409 129.441 753.825 Q132.519 749.219 138.33 749.219 Z" fill="#000000" fill-rule="evenodd" fill-opacity="1" /><path clip-path="url(#clip610)" d="M63.9319 413.349 Q60.3208 413.349 58.4921 416.914 Q56.6865 420.455 56.6865 427.585 Q56.6865 434.691 58.4921 438.256 Q60.3208 441.798 63.9319 441.798 Q67.5661 441.798 69.3717 438.256 Q71.2004 434.691 71.2004 427.585 Q71.2004 420.455 69.3717 416.914 Q67.5661 413.349 63.9319 413.349 M63.9319 409.645 Q69.742 409.645 72.7976 414.252 Q75.8763 418.835 75.8763 427.585 Q75.8763 436.312 72.7976 440.918 Q69.742 445.501 63.9319 445.501 Q58.1217 445.501 55.043 440.918 Q51.9875 436.312 51.9875 427.585 Q51.9875 418.835 55.043 414.252 Q58.1217 409.645 63.9319 409.645 Z" fill="#000000" fill-rule="evenodd" fill-opacity="1" /><path clip-path="url(#clip610)" d="M84.0938 438.951 L88.978 438.951 L88.978 444.83 L84.0938 444.83 L84.0938 438.951 Z" fill="#000000" fill-rule="evenodd" fill-opacity="1" /><path clip-path="url(#clip610)" d="M97.9826 410.27 L120.205 410.27 L120.205 412.261 L107.658 444.83 L102.774 444.83 L114.58 414.205 L97.9826 414.205 L97.9826 410.27 Z" fill="#000000" fill-rule="evenodd" fill-opacity="1" /><path clip-path="url(#clip610)" d="M129.371 410.27 L147.728 410.27 L147.728 414.205 L133.654 414.205 L133.654 422.677 Q134.672 422.33 135.691 422.168 Q136.709 421.983 137.728 421.983 Q143.515 421.983 146.894 425.154 Q150.274 428.326 150.274 433.742 Q150.274 439.321 146.802 442.423 Q143.33 445.501 137.01 445.501 Q134.834 445.501 132.566 445.131 Q130.32 444.761 127.913 444.02 L127.913 439.321 Q129.996 440.455 132.219 441.011 Q134.441 441.566 136.918 441.566 Q140.922 441.566 143.26 439.46 Q145.598 437.353 145.598 433.742 Q145.598 430.131 143.26 428.025 Q140.922 425.918 136.918 425.918 Q135.043 425.918 133.168 426.335 Q131.316 426.752 129.371 427.631 L129.371 410.27 Z" fill="#000000" fill-rule="evenodd" fill-opacity="1" /><path clip-path="url(#clip610)" d="M53.7467 101.321 L61.3856 101.321 L61.3856 74.9555 L53.0754 76.6222 L53.0754 72.3629 L61.3393 70.6963 L66.0152 70.6963 L66.0152 101.321 L73.654 101.321 L73.654 105.256 L53.7467 105.256 L53.7467 101.321 Z" fill="#000000" fill-rule="evenodd" fill-opacity="1" /><path clip-path="url(#clip610)" d="M83.0984 99.3767 L87.9827 99.3767 L87.9827 105.256 L83.0984 105.256 L83.0984 99.3767 Z" fill="#000000" fill-rule="evenodd" fill-opacity="1" /><path clip-path="url(#clip610)" d="M108.168 73.775 Q104.557 73.775 102.728 77.3398 Q100.922 80.8814 100.922 88.011 Q100.922 95.1174 102.728 98.6822 Q104.557 102.224 108.168 102.224 Q111.802 102.224 113.608 98.6822 Q115.436 95.1174 115.436 88.011 Q115.436 80.8814 113.608 77.3398 Q111.802 73.775 108.168 73.775 M108.168 70.0713 Q113.978 70.0713 117.033 74.6777 Q120.112 79.261 120.112 88.011 Q120.112 96.7378 117.033 101.344 Q113.978 105.928 108.168 105.928 Q102.358 105.928 99.2789 101.344 Q96.2234 96.7378 96.2234 88.011 Q96.2234 79.261 99.2789 74.6777 Q102.358 70.0713 108.168 70.0713 Z" fill="#000000" fill-rule="evenodd" fill-opacity="1" /><path clip-path="url(#clip610)" d="M138.33 73.775 Q134.719 73.775 132.89 77.3398 Q131.084 80.8814 131.084 88.011 Q131.084 95.1174 132.89 98.6822 Q134.719 102.224 138.33 102.224 Q141.964 102.224 143.769 98.6822 Q145.598 95.1174 145.598 88.011 Q145.598 80.8814 143.769 77.3398 Q141.964 73.775 138.33 73.775 M138.33 70.0713 Q144.14 70.0713 147.195 74.6777 Q150.274 79.261 150.274 88.011 Q150.274 96.7378 147.195 101.344 Q144.14 105.928 138.33 105.928 Q132.519 105.928 129.441 101.344 Q126.385 96.7378 126.385 88.011 Q126.385 79.261 129.441 74.6777 Q132.519 70.0713 138.33 70.0713 Z" fill="#000000" fill-rule="evenodd" fill-opacity="1" /><polyline clip-path="url(#clip612)" style="stroke:#009af9; stroke-linecap:round; stroke-linejoin:round; stroke-width:4; stroke-opacity:1; fill:none" points="247.59,87.9763 247.693,105.298 247.797,97.2717 247.901,111.809 248.005,122.438 248.109,128.722 248.213,157.301 248.317,160.406 248.421,196.588 248.525,207.673 248.629,239.226 248.733,266.392 248.837,288.087 248.941,329.829 249.045,346.603 249.149,392.833 249.253,415.069 249.357,454.626 249.461,489.553 249.565,518.175 249.669,564.142 249.773,586.826 249.877,634.654 249.981,660.901 250.085,700.892 250.188,736.854 250.292,765.783 250.396,809.472 250.5,832.207 250.604,875.264 250.708,900.073 250.812,934.324 250.916,965.912 251.02,989.315 251.124,1025.16 251.228,1042.55 251.332,1075.18 251.436,1093.61 251.54,1116.65 251.644,1139.32 251.748,1152.27 251.852,1176.08 251.956,1184.01 252.06,1202.41 252.164,1211.26 252.268,1219.79 252.372,1231.21 252.476,1231.06 252.579,1241.2 252.683,1237.88 252.787,1240.92 252.891,1239.36 252.995,1232.68 253.099,1232.94 253.203,1219.51 253.307,1216.84 253.411,1202.77 253.515,1191.86 253.619,1181.23 253.723,1161.11 253.827,1152.46 253.931,1127.81 254.035,1115.32 254.139,1092.93 254.243,1071.53 254.451,1024.87 254.659,978.716 254.867,933.766 255.074,888.009 255.282,838.908 255.49,786.191 255.594,759.643 255.698,732.941 255.802,717.45 255.906,684.005 256.01,674.579 256.114,642.862 256.218,630.59 256.322,609.388 256.426,588.511 256.53,580.309 256.634,553.029 256.738,552.057 256.842,527.269 256.946,523.851 257.05,510.651 257.154,498.632 257.258,499.524 257.362,481.131 257.466,490.132 257.569,474.524 257.673,481.68 257.777,478.226 257.881,477.155 257.985,488.478 258.193,501.304 258.401,515.536 258.505,522.931 258.609,533.584 258.713,555.211 258.817,559.369 258.921,589.143 259.025,595.04 259.129,622.976 259.233,639.016 259.337,658.496 259.441,686.822 259.545,699.07 259.649,734.018 259.753,746.576 259.857,778.976 259.96,799.601 260.064,823.453 260.168,854.189 260.272,870.658 260.376,906.468 260.48,922.348 260.584,955.086 260.688,977.173 260.792,1001.62 260.896,1031.44 261.857,1235.22 262.819,1346.92 263.78,1341.22 264.741,1230.17 265.702,1056.35 266.664,876.106 267.625,750.426 268.586,716.884 269.547,788 270.509,938.337 271.47,1122.56 272.431,1292.22 273.392,1394.02 274.353,1405.06 275.315,1328.75 276.276,1196.54 277.237,1048.21 278.198,932.308 279.16,888.127 280.121,926.553 281.082,1032.21 282.043,1174.92 283.005,1316.98 283.966,1411.17 284.927,1435.82 285.888,1387.15 286.85,1285.57 287.811,1162.63 288.772,1055.82 289.733,999.262 290.695,1009.27 291.656,1083.12 292.617,1193.07 293.578,1312.11 294.539,1404.94 295.501,1445.16 296.462,1425.09 297.423,1354.65 298.384,1253.43 299.346,1158.6 300.307,1099.76 301.268,1082.43 302.229,1122.62 303.191,1206.74 304.152,1303.18 305.113,1387.04 306.074,1437.67 307.036,1439.58 307.997,1396.34 308.958,1322.49 309.919,1239.86 310.881,1176.94 311.842,1147.03 312.803,1164.99 313.764,1219.2 314.725,1291.9 315.687,1367.95 316.648,1421.75 317.609,1438.09 318.57,1416.63 319.532,1363.47 320.493,1292.92 321.454,1233.15 322.415,1195.73 323.377,1191.44 324.338,1220.51 325.299,1276.7 326.26,1343.53 327.222,1395.84 328.183,1426.21 329.144,1424.93 330.105,1392.82 331.067,1342.18 332.028,1289.28 332.989,1246.52 333.95,1229.71 334.912,1239.75 335.873,1275.13 336.834,1328.66 337.795,1374.88 338.756,1409.69 339.718,1422.61 340.679,1406.35 341.64,1370.96 342.601,1328.57 343.563,1285.2 344.524,1257.22 345.485,1255.1 346.446,1274 347.408,1310.35 348.369,1350.13 349.33,1387.18 350.291,1408.21 351.253,1407.41 352.214,1386.86 353.175,1353.43 354.136,1317.86 355.098,1286.19 356.059,1270.72 357.02,1277.19 357.981,1301.61 358.942,1331.2 359.904,1365.49 360.865,1393.25 361.826,1404.07 362.787,1397.05 363.749,1375.76 364.71,1349.5 365.671,1318 366.632,1296.01 367.594,1292.47 368.555,1302.77 369.516,1321.73 370.477,1350.28 371.439,1376.27 372.4,1392.26 373.361,1397.08 374.322,1383.54 375.284,1363.14 376.245,1339.18 377.206,1314.86 378.167,1298.02 379.129,1299.11 380.09,1313.28 381.051,1331.31 382.012,1353.89 382.973,1375.7 383.935,1388.51 384.512,1391.55 385.09,1384.07 385.668,1380.53 386.245,1368.46 386.823,1356.41 387.401,1345.34 387.978,1331.04 388.556,1324.77 389.134,1310.12 389.711,1308.65 390.289,1308.97 390.867,1313.06 391.444,1324.53 392.022,1329.65 392.6,1345.27 393.177,1353.83 393.755,1366.19 394.333,1376.18 394.91,1380.41 395.488,1386.56 396.066,1383.55 396.643,1382.89 397.221,1370.41 397.799,1360.37 398.376,1350.69 398.954,1340.36 399.532,1335.11 400.109,1321.11 400.687,1319.03 401.265,1313.53 401.842,1314.68 402.42,1322.38 402.998,1327.99 403.575,1343.47 404.153,1349.23 404.731,1360.52 405.308,1367.8 405.886,1373.72 406.464,1381.44 407.041,1380.77 407.619,1382.18 408.197,1372.19 408.774,1366.71 409.352,1357.38 409.93,1347.02 410.507,1339.43 411.085,1327.04 411.663,1327.22 412.24,1320.73 412.818,1321.59 413.396,1323.94 413.973,1325.77 414.551,1336.61 415.129,1341.18 415.706,1356.3 416.284,1364.81 416.862,1371.37 417.439,1375.5 418.017,1374.36 418.595,1378.65 419.172,1373.86 419.75,1372.88 420.328,1362.69 420.905,1352.71 421.483,1344.62 422.061,1334.14 422.638,1332.66 423.216,1322.86 423.794,1324.64 424.371,1326.56 424.949,1329.31 425.527,1335.58 426.104,1335.91 426.682,1349.08 427.26,1356.44 427.837,1366.69 428.415,1372.66 428.993,1373.73 429.57,1377.25 430.148,1372.37 430.726,1372.98 431.303,1364.2 431.881,1358.18 432.459,1351.16 433.614,1339.34 434.769,1327.52 435.347,1324.13 435.925,1326.45 436.502,1333.4 437.08,1337.6 438.235,1351.58 439.391,1363.98 439.968,1369.82 440.546,1376.53 441.123,1374.28 441.701,1375.51 442.279,1366.01 442.856,1361.13 443.434,1353.18 444.012,1346.45 444.589,1343.5 445.167,1333.81 445.745,1334.09 446.322,1327.08 446.9,1327.86 447.478,1330.83 448.055,1333.86 448.633,1343.94 449.211,1345.61 449.788,1357.21 450.366,1363.4 450.944,1369.15 451.521,1371.88 452.099,1369.66 452.677,1373.34 453.254,1367.7 453.832,1366.97 454.41,1359.31 454.987,1353.1 455.565,1346.79 456.143,1335.78 456.72,1334.32 457.298,1326.57 457.876,1330.5 458.853,1338.41 459.829,1343.09 460.806,1352.26 461.783,1363.27 462.271,1366.74 462.76,1369.8 463.248,1372.07 463.737,1372 464.225,1369.05 464.713,1364.45 465.202,1359.74 465.69,1355.51 466.667,1348.4 467.644,1341.2 468.132,1336.57 468.621,1332.86 469.109,1331.77 469.598,1333.27 470.574,1338.79 471.551,1346.73 472.528,1356.93 473.505,1366.22 473.993,1368.23 474.482,1367.5 474.97,1365.83 475.458,1365.61 475.947,1366.74 476.435,1366.51 476.924,1362.72 477.412,1356.09 477.901,1349.07 478.389,1343.24 478.877,1338.88 479.366,1336.01 479.854,1334.82 480.343,1335 480.831,1335.81 481.319,1336.98 482.296,1341.34 483.273,1347.64 483.761,1352.44 484.25,1358.47 484.738,1364.03 485.227,1367.51 485.715,1369.16 486.203,1370.14 486.692,1370.33 487.18,1368.31 487.669,1363.86 488.157,1358.75 488.645,1354.74 489.134,1351.51 490.111,1343.04 491.088,1335.81 491.576,1333.93 492.064,1332.88 492.553,1332.97 493.041,1334.57 493.53,1337.61 494.018,1342.15 494.506,1348.37 494.995,1355.53 495.483,1361.68 495.972,1365.33 496.46,1366.93 496.948,1368.01 497.925,1368.85 498.902,1365.28 499.39,1362.94 499.879,1359.32 500.367,1353.49 500.856,1346.33 501.344,1339.79 501.832,1334.87 502.321,1331.48 502.809,1329.92 503.298,1331.05 503.786,1334.66 504.275,1338.91 504.763,1342.14 505.74,1347.99 506.717,1358.51 507.205,1363.95 507.693,1368.26 508.182,1370.67 508.67,1370.97 509.159,1369.96 509.647,1368.65 510.135,1366.61 510.624,1362.22 511.112,1355.15 511.601,1347.59 512.089,1342.06 512.577,1338.8 513.066,1336.29 513.554,1334.04 514.043,1333.22 514.531,1334.55 515.508,1338.41 516.485,1342.18 516.973,1347.19 517.462,1354.15 517.95,1361.58 518.438,1367.78 518.927,1371.22 519.415,1371.39 519.904,1369.44 520.392,1367.26 521.453,1360.38 522.514,1354.97 523.045,1348.91 523.575,1343.86 524.106,1341.81 524.636,1340.23 525.167,1336.27 525.697,1331.95 526.228,1332.05 526.759,1337.42 527.82,1348.02 528.881,1357.52 529.411,1362.73 529.942,1364.5 530.472,1364.54 531.003,1366.37 531.534,1368.57 532.064,1366.52 532.595,1360.82 533.125,1357.31 533.656,1357.43 534.186,1355.19 534.717,1346.98 535.247,1338.1 535.778,1334.82 536.308,1335.25 536.839,1334.37 537.37,1333.79 537.9,1338.63 538.431,1347.03 538.961,1351.47 539.492,1350.46 540.022,1350.96 540.553,1357.06 541.083,1363.81 541.614,1365.73 542.144,1365.2 542.675,1367.05 543.206,1369.64 543.736,1367.34 544.267,1359.76 544.797,1352.42 545.328,1348.73 545.858,1346.38 546.389,1342.56 546.919,1338.55 547.45,1336.91 547.98,1337.33 548.511,1337.92 549.042,1338.93 549.572,1342.11 550.103,1346.92 550.633,1350.36 551.164,1351.66 551.694,1354.13 552.225,1360.31 552.755,1367.31 553.286,1370.1 553.817,1368.37 554.347,1366.13 554.878,1364.62 555.408,1360.6 555.939,1353.2 556.469,1347.31 557,1346.5 557.53,1346.97 558.061,1343.57 558.591,1338.36 559.122,1337.08 559.653,1339.31 560.183,1339.58 560.714,1337.62 561.244,1339.58 561.775,1347.56 562.305,1355.45 562.836,1358.67 563.366,1360.79 563.897,1365.82 564.427,1369.95 564.958,1367.65 565.489,1361.64 566.019,1359.28 566.55,1361 567.08,1360.16 567.611,1353.94 568.141,1347.38 568.672,1344.85 569.202,1343.9 569.733,1340.65 570.264,1336.6 570.794,1335.71 571.325,1337.94 571.855,1340.07 572.386,1341.57 572.916,1345.47 573.447,1352.86 573.977,1360.33 574.508,1364.11 575.038,1364.57 575.569,1364.42 576.63,1362.92 577.691,1360.08 578.222,1360.95 578.752,1359.2 579.283,1352.5 579.813,1344.58 580.344,1340.39 580.874,1339.13 581.405,1336.76 581.936,1333.98 582.466,1335.74 582.997,1342.35 583.527,1347.65 584.058,1348.52 584.588,1349.88 585.119,1355.97 585.649,1362.5 586.18,1363.38 586.711,1360.85 587.241,1361.66 587.772,1365.7 588.302,1366.52 588.791,1364.64 589.28,1361.52 589.77,1357.64 590.259,1352.77 590.748,1347.12 591.237,1341.95 591.726,1338.3 592.215,1335.83 592.704,1333.96 593.193,1333.41 593.682,1335.61 594.172,1340.59 594.661,1346.51 595.15,1351.4 595.639,1354.51 596.128,1356.15 596.617,1357.15 597.106,1358.7 597.595,1361.65 598.085,1365.21 598.574,1367.2 599.063,1366.36 599.552,1363.98 600.041,1362.07 600.53,1360.41 601.019,1356.76 601.508,1350.23 601.997,1343.02 602.487,1338.31 602.976,1337.08 603.465,1338.09 603.954,1339.87 604.932,1343.52 605.91,1346.11 606.889,1351.43 607.867,1357.47 608.845,1361.67 609.823,1362.57 610.312,1362.45 610.802,1363.1 611.291,1363.37 611.78,1361.08 612.269,1355.77 612.758,1349.55 613.247,1344.75 613.736,1341.9 614.225,1340.52 614.715,1340.64 615.204,1342.45 615.693,1344.9 616.671,1346.1 617.649,1346.12 618.627,1349.87 619.606,1356.56 620.095,1360.35 620.584,1363.21 621.073,1364.93 621.562,1365.69 622.051,1365.08 622.54,1362.57 623.03,1358.76 623.519,1355.07 624.497,1348.97 625.475,1343.17 626.453,1343.26 627.432,1341.63 628.41,1342.36 629.388,1346.98 630.366,1352.3 631.345,1360.83 631.834,1364.46 632.323,1366.98 632.812,1367.96 633.301,1367.11 633.79,1364.68 634.279,1361.2 634.768,1356.57 635.258,1350.62 635.747,1344.72 636.236,1341.43 636.725,1341.77 637.214,1343.57 638.192,1341.71 639.17,1339.45 639.66,1340.9 640.149,1343.02 640.638,1345.85 641.127,1349.97 641.616,1355.12 642.105,1360.33 642.594,1364.83 643.083,1368.11 643.573,1369.36 644.062,1367.96 644.551,1364.6 645.04,1360.94 646.018,1354.44 646.996,1345.92 647.485,1342.36 647.975,1339.92 648.464,1338.57 648.953,1338.78 649.442,1340.78 649.931,1343.35 650.42,1344.72 650.909,1344.82 651.958,1348.42 653.007,1352.85 653.531,1358.88 654.056,1365.53 654.58,1368.76 655.104,1367.48 655.629,1364.41 656.153,1361.71 656.678,1358.23 657.202,1352.76 657.726,1347.56 658.251,1345.69 658.775,1346.29 659.299,1345.77 659.824,1343.05 660.348,1340.88 660.873,1341.64 661.397,1344.18 661.921,1345.77 662.446,1345.46 662.97,1344.97 663.495,1346.95 664.019,1352.51 664.543,1359.71 665.068,1364.79 665.592,1365.91 666.117,1364.93 666.641,1364.27 667.165,1363.41 667.69,1360.4 668.738,1352.24 669.787,1346.3 670.312,1341.32 670.836,1338.55 671.36,1340.67 671.885,1345.27 672.409,1347.61 672.934,1346.27 673.458,1344.1 673.982,1344.29 675.031,1351.47 676.08,1358.19 676.604,1362.1 677.129,1366.87 677.653,1369.61 678.177,1367.15 678.702,1360.62 679.226,1354.88 679.751,1352.5 680.275,1350.82 680.799,1346.84 681.324,1342.41 681.848,1341.55 682.372,1344.05 683.421,1343.75 684.47,1342.53 684.994,1346.81 685.519,1351.06 686.043,1352.85 686.568,1352.93 687.092,1354.2 687.616,1358.46 688.141,1364.05 688.665,1367.15 689.19,1366.04 689.714,1363.13 690.238,1361.13 690.763,1358.97 691.287,1353.81 691.811,1346.48 692.336,1341.33 692.86,1340.52 693.909,1341.8 694.958,1344.65 695.482,1348.04 696.007,1349.49 696.531,1348.64 697.055,1348.15 698.104,1354.55 699.153,1361.17 699.677,1362.4 700.202,1364.01 700.726,1366.19 701.25,1366.28 701.775,1361.48 702.299,1353.33 702.824,1347.04 703.348,1345.22 703.872,1344.84 704.397,1342.33 704.921,1339.18 705.446,1339.44 705.97,1343.19 706.494,1346.3 707.019,1346.63 707.543,1346.82 708.067,1349.93 708.592,1354.96 709.116,1358.3 709.641,1358.3 710.165,1356.84 710.689,1357.02 711.214,1359.92 711.738,1363.52 712.263,1364.8 712.787,1363.08 713.311,1360.36 713.836,1357.61 714.36,1352.65 714.884,1344.07 715.409,1335.81 715.933,1333.98 716.458,1338.97 716.982,1344.36 717.506,1345.19 718.031,1343.92 719.246,1349.98 720.461,1355.57 721.069,1358.78 721.676,1357.04 722.284,1359.77 722.891,1362.95 723.499,1361.01 724.106,1361.57 724.714,1355.94 725.321,1358 725.929,1348.42 726.537,1345.55 727.144,1338.5 727.752,1339.7 728.359,1338.61 728.967,1339.32 729.574,1344.54 730.182,1346.97 730.789,1356.32 731.397,1357.57 732.005,1364.22 732.612,1359.48 733.827,1357.46 735.042,1358.14 735.65,1357.07 736.257,1359 736.865,1352.29 737.472,1352.84 738.08,1344.5 738.688,1343.3 739.295,1335 739.903,1337.36 740.51,1339.5 741.118,1344.57 741.725,1351.36 742.333,1355.39 742.94,1362.55 743.548,1359.19 744.156,1363.05 744.763,1359.92 745.371,1363.77 745.978,1359.72 746.586,1356.8 747.193,1351.72 747.801,1347.57 748.408,1351.07 749.016,1348.76 749.624,1350.78 750.231,1342.8 750.839,1344.9 751.446,1339.2 752.054,1340.91 752.661,1341.06 753.269,1347.67 753.876,1354.79 754.484,1358.65 755.092,1366.61 755.699,1365.64 756.307,1367.75 756.914,1359.05 757.522,1357.8 758.129,1351.64 758.737,1351.51 759.344,1349.52 759.952,1345.67 760.56,1345.24 761.167,1342.85 761.775,1349.51 762.382,1345.07 762.99,1346.82 763.597,1341.56 764.205,1346.74 764.812,1348.11 765.42,1354.32 766.027,1359.71 766.635,1360.99 767.243,1364.6 767.85,1362.31 768.458,1366.73 769.065,1359.96 769.673,1358.28 770.28,1349.26 770.888,1345.33 771.495,1339.68 772.103,1337.53 772.711,1341.06 773.318,1342.58 773.926,1351.5 774.533,1350.53 775.141,1353.76 775.748,1347.39 776.356,1352.16 777.571,1356.8 778.786,1360.7 779.394,1366.28 780.001,1362.6 780.609,1362.91 781.216,1353.76 781.824,1352.39 782.431,1344.15 783.039,1343.1 783.647,1339.06 784.254,1338.09 784.862,1341.06 785.469,1342.07 786.077,1348.89 786.684,1349.45 787.292,1359.56 787.899,1359.23 788.507,1362.58 789.115,1358.37 789.722,1358.72 790.33,1356.78 790.937,1354.62 791.545,1358.07 792.152,1356.71 792.76,1359.88 793.367,1352.31 793.975,1351.84 794.582,1342.82 795.19,1341.37 795.798,1337.69 796.338,1340.77 796.877,1339.92 797.417,1340.22 797.957,1347.67 798.497,1355.83 799.037,1358.66 799.577,1361.56 800.117,1366.93 800.657,1366.89 801.197,1360.08 801.737,1356.25 802.277,1357.76 802.817,1356.38 803.357,1351.45 803.896,1350.38 804.436,1351.92 804.976,1349.05 805.516,1344.51 806.056,1345.06 806.596,1347.34 807.136,1345.91 807.676,1344.75 808.216,1347.1 808.756,1347.22 809.296,1343.59 809.836,1344.4 810.375,1351.82 810.915,1357.62 811.455,1359.47 811.995,1363.59 812.535,1369.45 813.075,1369.61 813.615,1364.03 814.155,1358.33 814.695,1352.42 815.235,1345.12 815.775,1341.47 816.315,1343.44 816.855,1344.27 817.394,1341.57 817.934,1342.18 818.474,1347.51 819.014,1350.06 819.554,1348.56 820.094,1349.44 820.634,1352.59 821.174,1352.7 821.714,1352.11 822.254,1355.73 822.794,1359.32 823.334,1357.99 823.874,1357.09 824.413,1361.12 824.953,1364.08 825.493,1361.83 826.033,1359.24 826.573,1357.52 827.113,1351.3 827.653,1342.93 828.193,1340.75 828.733,1342.32 829.273,1338.9 829.813,1333.98 830.353,1337.2 830.893,1345.65 831.432,1350.71 831.972,1354.53 832.512,1361.5 833.052,1365.5 833.592,1361.87 834.132,1357.97 834.672,1358.76 835.212,1358.16 835.752,1354.17 836.292,1353.74 836.832,1356.75 837.372,1355.24 837.911,1350.93 838.451,1352.24 838.991,1355.71 839.531,1351.55 840.071,1343.07 840.611,1340.1 841.151,1340.88 841.691,1339.29 842.231,1339.37 842.771,1345.68 843.311,1351.97 843.851,1353.46 844.391,1355.73 844.93,1361.34 845.47,1364.21 846.01,1363.58 846.55,1365.5 847.09,1367.89 847.63,1362.71 848.17,1352.46 848.71,1346.41 849.25,1344.34 849.79,1341.07 850.33,1339.5 850.87,1343.61 851.41,1348.22 851.949,1348.7 852.489,1349.27 853.029,1351.94 853.569,1351.4 854.109,1347.46 854.649,1347.12 855.189,1350.83 855.729,1352.68 856.269,1353.54 856.809,1358.08 857.349,1362.85 857.889,1362.75 858.429,1361.92 858.968,1364.28 859.508,1363.91 860.048,1357.01 860.588,1350.1 861.128,1347.01 861.668,1342.75 862.208,1336.84 862.748,1335.87 863.288,1339.45 863.828,1341.16 864.368,1342.58 864.908,1348.93 865.854,1353.86 866.801,1359.44 867.275,1362.24 867.748,1362.36 868.222,1359.65 868.695,1355.86 869.642,1351.06 870.589,1350.8 871.536,1351.3 872.483,1351.13 872.956,1351.3 873.43,1350.22 873.903,1346.77 874.377,1341.83 874.85,1337.7 875.324,1335.88 875.797,1336.19 876.271,1338.08 876.744,1341.81 877.218,1347.57 877.691,1354.12 878.165,1359.41 878.638,1362.58 879.111,1364.49 879.585,1365.94 880.058,1366.42 881.005,1361.72 881.952,1354.66 882.899,1348.51 883.846,1343.64 884.32,1342.21 884.793,1341.72 885.266,1342.97 885.74,1346.31 886.213,1350.61 886.687,1353.99 887.16,1355.61 887.634,1356.15 888.581,1356.06 889.528,1353.94 890.475,1355.53 891.421,1359.22 891.895,1361.74 892.368,1365.03 892.842,1367.35 893.315,1366.42 893.789,1361.9 894.262,1355.84 894.736,1350.55 895.209,1346.72 896.156,1340.83 897.103,1335.93 897.576,1335.37 898.05,1337.53 898.523,1342.66 898.997,1349.24 899.47,1354.95 899.944,1358.71 900.417,1361.23 900.891,1363.2 901.364,1363.85 901.838,1362.09 902.311,1358.62 902.785,1355.65 903.732,1353.97 904.678,1349.64 905.625,1344.74 906.572,1344.14 907.046,1345.51 907.519,1347.6 907.993,1349.23 908.466,1349.35 908.94,1348.02 909.413,1345.9 909.887,1343.42 910.36,1341 910.833,1339.89 911.307,1341.7 911.78,1346.69 912.254,1353.19 912.727,1359.13 913.201,1363.65 913.674,1366.75 914.148,1368.1 914.621,1367.14 915.095,1364.23 915.568,1360.6 916.042,1356.82 916.515,1352.14 916.988,1346.13 917.462,1340.26 917.935,1337.06 918.409,1337.48 918.882,1340.08 919.356,1342.85 919.829,1345.06 920.776,1349.94 921.723,1356.55 922.197,1360.09 922.67,1362.84 923.143,1363.82 923.617,1362.97 924.564,1359.4 925.511,1355.39 926.543,1352.5 927.576,1354.64 928.092,1355.77 928.608,1356.29 929.124,1355.42 929.64,1351.96 930.157,1346.53 930.673,1341.94 931.189,1340.05 931.705,1339.73 932.221,1339.2 932.738,1339.04 933.254,1341.61 933.77,1347.89 934.286,1356.32 934.802,1364.03 935.319,1368.5 935.835,1368.85 936.351,1366.69 936.867,1364.73 937.383,1363.47 937.9,1360.1 938.416,1352.45 938.932,1343.16 939.448,1337.69 939.964,1338.45 940.481,1342.56 940.997,1345.62 941.513,1345.89 942.029,1344.58 942.545,1344.07 943.062,1346.48 943.578,1352.12 944.094,1358.18 944.61,1360.51 945.126,1357.96 945.643,1353.92 946.159,1352.44 946.675,1353.89 947.191,1355.5 947.707,1355.3 948.224,1354.04 948.74,1354 949.256,1356.82 949.772,1361.85 950.288,1365.52 950.805,1363.49 951.321,1355.09 951.837,1344.98 952.353,1338.74 952.869,1337.24 953.386,1337.1 953.902,1336.15 954.418,1336.06 954.934,1339.21 955.45,1345.39 955.967,1352.49 956.483,1358.79 956.999,1363.37 957.515,1365.84 958.031,1366.66 958.548,1366.85 959.064,1366.34 959.58,1363.52 960.096,1357.6 960.612,1350.34 961.129,1344.58 961.645,1341.74 962.161,1341.62 962.677,1343.32 963.193,1345.34 963.71,1345.9 964.226,1345.09 964.742,1345.63 965.258,1349.7 965.774,1355.29 966.291,1357.97 966.807,1356.05 967.323,1352.27 967.839,1350.02 968.356,1349.99 968.872,1350.99 969.904,1354.16 970.937,1359.85 971.453,1363.66 971.969,1366.3 972.485,1365.28 973.001,1360.1 973.518,1353.23 974.034,1347.35 974.55,1342.75 975.066,1338.39 975.582,1334.44 976.099,1332.31 976.615,1333.03 977.131,1337 977.647,1344.22 978.163,1353.26 978.68,1360.65 979.196,1363.66 979.712,1363.49 980.228,1363.78 980.744,1365.76 981.261,1366.83 981.777,1364.4 982.293,1359.12 982.809,1353.5 983.325,1348.93 983.842,1345.25 984.358,1342.12 984.874,1339.74 985.39,1338.92 985.906,1341 986.423,1346.54 986.939,1353.35 987.455,1357.39 987.971,1356.73 988.487,1353.5 989.004,1350.97 989.52,1349.91 990.552,1348.49 991.585,1350.9 992.104,1353.28 992.623,1356.66 993.142,1361.46 993.662,1365.85 994.181,1366.82 994.7,1363.83 995.219,1359.47 995.739,1355.89 996.258,1352.31 996.777,1347.03 997.297,1340.28 997.816,1334.26 998.335,1331.24 998.854,1332.31 999.374,1336.88 999.893,1342.71 1000.41,1347.73 1000.93,1352.3 1001.45,1358.3 1001.97,1365.29 1002.49,1369.65 1003.01,1368.97 1003.53,1365.46 1004.05,1362.96 1004.57,1361.85 1005.09,1359.04 1005.6,1352.67 1006.12,1344.59 1006.64,1338.24 1007.16,1335.87 1007.68,1337.72 1008.2,1342.29 1009.24,1350.58 1010.28,1356.52 1010.8,1358.63 1011.32,1357.13 1011.84,1352.02 1012.36,1346.88 1012.87,1345.16 1013.39,1347.13 1013.91,1350.8 1014.43,1354.32 1015.47,1358.22 1016.51,1363.16 1017.03,1366.18 1017.55,1365.25 1018.07,1359.08 1018.59,1351.27 1019.63,1344.86 1020.66,1338.67 1021.18,1333.9 1021.7,1332.03 1022.22,1334.6 1022.74,1340.59 1023.78,1353.94 1024.82,1365.09 1025.34,1371.21 1025.86,1374.51 1026.38,1372.05 1026.89,1365.16 1027.93,1353 1028.97,1340.47 1029.49,1334.19 1030.01,1332.75 1030.53,1336.96 1031.05,1343.79 1031.57,1349.47 1032.09,1352.07 1032.61,1352.22 1033.13,1352.57 1033.65,1355.39 1034.16,1359.55 1034.68,1360.87 1035.2,1356.88 1035.72,1350.25 1036.24,1346.18 1036.76,1347.03 1037.28,1351.01 1037.8,1355.19 1038.32,1358.1 1038.84,1359.61 1039.36,1360.27 1039.88,1360.76 1040.4,1360.67 1040.92,1358.41 1041.43,1353.49 1041.95,1348.55 1042.47,1346.61 1042.99,1346.64 1043.51,1344.29 1044.03,1337.95 1044.55,1331.64 1045.07,1330.69 1045.59,1336.07 1046.11,1344.49 1046.63,1352.54 1047.15,1359.31 1047.67,1365.52 1048.18,1371.55 1048.7,1376.06 1049.22,1376.22 1049.74,1370.18 1050.26,1360.01 1050.78,1350.55 1051.3,1344.47 1051.82,1340.02 1052.34,1334.95 1052.86,1330.85 1053.38,1331.34 1053.9,1336.76 1054.42,1343.48 1054.94,1348.27 1055.45,1351.29 1055.97,1354.34 1056.49,1358.12 1057.01,1361.82 1057.53,1363.93 1058.05,1363.04 1058.63,1357.14 1059.2,1358.28 1059.77,1352.88 1060.35,1350.79 1060.92,1350.26 1061.5,1345.96 1062.07,1352.49 1062.64,1352.43 1063.22,1355.97 1063.79,1357.61 1064.37,1354.97 1064.94,1357.51 1065.51,1350.26 1066.09,1349.46 1066.66,1345.39 1067.24,1338.74 1067.81,1338.23 1068.39,1333.4 1068.96,1341.5 1069.53,1347.17 1070.11,1353.47 1070.68,1365.08 1071.26,1369.06 1071.83,1376.42 1072.4,1372.78 1072.98,1367.93 1073.55,1361.82 1074.13,1350.12 1074.7,1346.33 1075.27,1334.5 1075.85,1329.07 1076.42,1326.93 1077,1327.34 1077.57,1339.69 1078.15,1342.64 1078.72,1350.42 1079.29,1356.87 1079.87,1361.06 1080.44,1368.71 1081.02,1366.41 1081.59,1369.75 1082.16,1366.86 1082.74,1361.64 1083.31,1357.28 1083.89,1345.28 1084.46,1342.18 1085.03,1335.19 1085.61,1336.26 1086.18,1343.41 1086.76,1345.69 1087.33,1356.07 1087.91,1357.85 1088.48,1360.4 1089.05,1358.39 1089.63,1351 1090.2,1351.58 1090.78,1344.66 1091.35,1344.98 1091.92,1344.92 1092.5,1344.94 1093.07,1351.64 1093.65,1350.82 1094.22,1359.31 1094.79,1364.51 1095.37,1366.94 1095.94,1369.47 1096.52,1363.14 1097.09,1362.79 1097.67,1353.87 1098.24,1346.21 1098.81,1339.56 1099.39,1328.48 1099.96,1330.01 1100.54,1328.68 1101.11,1335.2 1101.68,1341.98 1102.83,1355.87 1103.98,1370.88 1104.55,1376.35 1105.13,1376.58 1105.7,1376.43 1106.28,1362.95 1106.85,1354.36 1107.43,1342.64 1108,1334.42 1108.57,1331.72 1109.15,1323.88 1109.72,1329.58 1110.3,1333.64 1110.87,1343 1111.44,1355.69 1112.02,1358.71 1112.59,1365.53 1113.17,1363.83 1113.74,1365.25 1114.31,1363.65 1114.89,1354.68 1115.46,1353.2 1116.61,1349.67 1117.76,1348.12 1118.33,1352.51 1118.91,1348.49 1119.48,1352.71 1120.06,1355.04 1120.63,1357.61 1121.2,1361.73 1121.78,1355.34 1122.35,1354.86 1122.93,1346.91 1123.5,1340.97 1124.07,1338.76 1124.65,1332.99 1125.22,1338.72 1125.8,1339.79 1126.37,1347.71 1126.95,1357.96 1127.52,1362.66 1128.09,1373.84 1128.67,1376.09 1129.24,1377.86 1129.82,1369.98 1130.39,1356.88 1130.96,1350.56 1131.54,1338.08 1132.08,1332.54 1132.63,1328.89 1133.18,1322.28 1133.72,1321.32 1134.27,1328.98 1134.82,1336.05 1135.36,1343.26 1135.91,1356.89 1136.45,1369.28 1137,1373.47 1137.55,1375.63 1138.09,1376.23 1138.64,1369.71 1139.19,1362.72 1139.73,1360.79 1140.28,1354.53 1140.82,1342.55 1141.37,1336.6 1141.92,1335.33 1142.46,1329.93 1143.01,1327.31 1143.56,1334.29 1144.1,1342.09 1144.65,1347.57 1145.19,1357.38 1145.74,1366.88 1146.29,1368.42 1146.83,1367.35 1147.38,1366.01 1147.93,1357.91 1148.47,1347.5 1149.02,1344.03 1149.56,1343.13 1150.11,1341.11 1150.66,1344.71 1151.2,1351.74 1151.75,1353.68 1152.3,1355.47 1152.84,1362.15 1153.39,1364.82 1153.93,1361.6 1154.48,1361.26 1155.03,1359.95 1155.57,1350.16 1156.12,1341.22 1156.67,1339.87 1157.21,1336.98 1157.76,1331.67 1158.3,1333.45 1158.85,1338.95 1159.4,1341.2 1159.94,1346.53 1160.49,1357.21 1161.04,1364.73 1161.58,1369.97 1162.13,1377.96 1162.67,1381.07 1163.22,1374.51 1163.77,1366.47 1164.31,1358.61 1164.86,1346.21 1165.41,1334.76 1165.95,1327.91 1166.5,1318.75 1167.05,1311.1 1167.59,1317.02 1168.14,1330.28 1168.68,1338.49 1169.23,1347.15 1169.78,1361.28 1170.32,1371.61 1170.87,1376.32 1171.42,1381.74 1171.96,1382.26 1172.51,1372.51 1173.05,1361.94 1173.6,1354.53 1174.15,1343.6 1174.69,1333.14 1175.24,1330.92 1175.79,1330.65 1176.33,1328.48 1176.88,1332.39 1177.42,1341.21 1177.97,1346.11 1178.52,1350.33 1179.06,1358 1179.61,1362.32 1180.16,1363.42 1180.7,1368.29 1181.25,1370.72 1181.79,1363.48 1182.34,1355.41 1182.89,1351.16 1183.43,1343.05 1183.98,1334.75 1184.53,1336.47 1185.07,1342.15 1185.62,1344.37 1186.16,1350.36 1186.71,1360.84 1187.26,1365.73 1187.8,1366.55 1188.35,1369.05 1188.9,1365.94 1189.44,1354.5 1189.99,1345.52 1190.53,1340.81 1191.08,1333.95 1191.63,1329.43 1192.17,1331.56 1192.72,1333.57 1193.27,1335.77 1193.81,1345.16 1194.36,1355.9 1194.9,1361.08 1195.45,1368.06 1196,1378.21 1196.54,1380.71 1197.09,1376.14 1197.64,1372.25 1198.18,1364.26 1198.73,1349.64 1199.27,1338.6 1199.82,1331.86 1200.37,1321.44 1200.91,1314.08 1201.46,1318.1 1202.03,1323.01 1202.6,1325.45 1203.16,1337.89 1203.73,1347.63 1204.3,1363.63 1204.87,1380.11 1205.44,1385.01 1206,1389.62 1206.57,1383.02 1207.14,1371.23 1207.71,1360.24 1208.28,1342.55 1208.84,1333.26 1209.41,1323.02 1209.98,1313.55 1210.55,1317.9 1211.12,1318.98 1211.68,1327.05 1212.25,1341.75 1212.82,1350.76 1213.39,1365.34 1213.96,1372.4 1214.52,1373.81 1215.09,1375.88 1215.66,1367.9 1216.23,1365.02 1216.79,1361.38 1217.36,1352.11 1217.93,1347.46 1218.5,1336.72 1219.07,1333.23 1219.63,1335.82 1220.2,1332.06 1220.77,1338.62 1221.34,1345.84 1221.91,1353.57 1222.47,1366.84 1223.04,1369.25 1223.61,1370.96 1224.18,1367.5 1224.75,1356.64 1225.31,1352.33 1225.88,1341.17 1226.45,1332.89 1227.02,1332.13 1227.59,1328.72 1228.15,1336.36 1228.72,1343.33 1229.29,1349.57 1229.86,1364.12 1230.43,1369.46 1230.99,1374.36 1231.56,1377.67 1232.13,1373.68 1232.7,1371.94 1233.27,1359.18 1233.83,1345.22 1234.4,1335.45 1234.97,1320.31 1235.54,1317.18 1236.11,1316.59 1236.67,1316.59 1237.24,1328.3 1237.81,1335.97 1238.38,1348.95 1238.95,1364.32 1239.51,1370.79 1240.08,1382 1240.65,1386.92 1241.22,1386.4 1241.79,1383.75 1242.35,1369.5 1242.92,1357.21 1243.49,1339.37 1244.06,1319.55 1244.63,1312.39 1245.19,1301.85 1245.76,1299.02 1246.33,1305.74 1246.9,1313.2 1247.47,1336.02 1248.03,1357.11 1248.6,1371.68 1249.17,1386.02 1249.74,1387.46 1250.31,1387.94 1250.87,1384.01 1251.44,1372.38 1252.01,1363 1252.58,1345.38 1253.15,1332.85 1253.71,1325.56 1254.28,1313.33 1254.85,1314.65 1255.42,1318.91 1255.99,1324.5 1256.55,1337.57 1257.12,1342.99 1257.69,1354.95 1258.26,1369.66 1258.83,1375.9 1259.39,1383.11 1259.96,1379.08 1260.53,1371.17 1261.1,1364.01 1261.67,1349.96 1262.23,1343.16 1262.8,1332.82 1263.37,1322.4 1263.94,1325.07 1264.51,1325.56 1265.07,1334.38 1265.64,1348.35 1266.21,1356.8 1266.78,1369.96 1267.35,1373.72 1267.91,1373.3 1268.48,1374.11 1269.05,1363.96 1269.62,1356.44 1270.19,1346.08 1270.75,1334.4 1271.32,1331.26 1271.89,1321.68 1272.46,1320.19 1273.03,1327.89 1273.59,1333.63 1274.16,1350.47 1274.64,1362.47 1275.12,1372.73 1275.6,1379.51 1276.07,1382.5 1276.55,1382.5 1277.03,1380.01 1277.51,1375.1 1277.99,1368.25 1278.46,1360.52 1278.94,1352.24 1279.42,1342.47 1279.9,1330.69 1280.38,1318.7 1280.85,1309.66 1281.33,1305.48 1281.81,1305.82 1282.29,1309.99 1282.77,1318.56 1283.25,1332.21 1283.72,1349.6 1284.2,1367.38 1284.68,1382.33 1285.16,1392.92 1285.64,1398.76 1286.11,1399.61 1286.59,1395.32 1287.07,1386.14 1287.55,1372.68 1288.03,1355.87 1288.5,1337.72 1288.98,1321.22 1289.46,1308.72 1289.94,1300.42 1290.42,1295.23 1290.9,1293.3 1291.37,1296.58 1291.85,1306.39 1292.33,1321.21 1292.81,1337.65 1293.29,1353.26 1293.76,1367.42 1294.24,1379.99 1294.72,1390.06 1295.2,1396.52 1295.68,1398.81 1296.15,1396.52 1296.63,1388.9 1297.11,1375.9 1297.59,1359.37 1298.07,1342.47 1298.55,1327.48 1299.02,1314.98 1299.5,1304.97 1299.98,1298.11 1300.46,1295.41 1300.94,1297.33 1301.41,1303.9 1301.89,1315.12 1302.37,1330.35 1302.85,1347.48 1303.33,1363.68 1303.8,1377.18 1304.28,1387.6 1304.76,1394.35 1305.24,1395.82 1305.72,1390.87 1306.2,1380.65 1306.67,1367.82 1307.15,1354.15 1307.63,1339.89 1308.11,1325.61 1308.59,1313.56 1309.06,1306.35 1309.54,1304.81 1310.02,1307.98 1310.5,1314.68 1310.98,1324.29 1311.45,1336.1 1311.93,1348.77 1312.41,1360.81 1312.89,1370.96 1313.37,1377.99 1313.85,1380.8 1314.32,1379.44 1314.8,1375.42 1315.28,1370.19 1315.76,1363.59 1316.24,1354.62 1316.71,1343.75 1317.19,1333.28 1317.67,1325.23 1318.15,1319.66 1318.63,1315.86 1319.1,1314.4 1319.58,1316.97 1320.06,1324.21 1320.54,1334.83 1321.02,1346.95 1321.5,1359.54 1321.97,1371.78 1322.45,1381.99 1322.93,1388.04 1323.41,1388.66 1323.89,1383.8 1324.36,1373.9 1324.84,1359.8 1325.32,1343.37 1325.8,1327.23 1326.28,1313.46 1326.75,1302.95 1327.23,1296.4 1327.71,1295.09 1328.19,1299.82 1328.67,1309.38 1329.15,1321.24 1329.62,1333.89 1330.1,1347.53 1330.58,1362.43 1331.06,1377.14 1331.54,1389.27 1332.01,1397.08 1332.49,1399.65 1332.97,1396.04 1333.45,1385.62 1333.93,1369.67 1334.4,1351.46 1334.88,1334 1335.36,1318.2 1335.94,1303.89 1336.53,1284.87 1337.11,1283.25 1337.7,1280.15 1338.28,1295.84 1338.86,1311.41 1339.45,1332.65 1340.03,1354.81 1340.61,1373.54 1341.2,1396.67 1341.78,1408.1 1342.37,1412.86 1342.95,1400.34 1343.53,1385.35 1344.12,1356.46 1344.7,1330.21 1345.28,1297.78 1345.87,1276.32 1346.45,1263.61 1347.04,1256.02 1347.62,1267.89 1348.2,1279.3 1348.79,1309.28 1349.37,1334.47 1349.95,1365.8 1350.54,1389.46 1351.12,1405.05 1351.71,1412.1 1352.29,1408.3 1352.87,1396.79 1353.46,1374.22 1354.04,1353.74 1354.62,1324.84 1355.21,1306.3 1355.79,1282.24 1356.38,1274.03 1356.96,1267.97 1357.54,1269.31 1358.13,1284.31 1358.71,1302.89 1359.29,1337.77 1359.88,1363.16 1360.46,1390.67 1361.04,1404.15 1361.63,1411.34 1362.21,1405.45 1362.8,1394.21 1363.38,1373.72 1363.96,1347.51 1364.55,1321.68 1365.13,1292.8 1365.71,1280.02 1366.3,1267.15 1366.88,1277.98 1367.47,1289.62 1368.05,1309.66 1368.63,1331.18 1369.22,1352.52 1369.8,1378.43 1370.38,1392.1 1370.97,1403.6 1371.55,1401.04 1372.14,1395.71 1372.72,1374.87 1373.3,1355.44 1373.89,1329.73 1374.47,1312.43 1375.05,1300.37 1375.64,1292.2 1376.22,1296.2 1376.81,1296.01 1377.39,1312.87 1377.97,1326.08 1378.56,1349.01 1379.14,1366.56 1379.72,1384.69 1380.31,1399.1 1380.89,1402.83 1381.48,1398.18 1382.06,1381.5 1382.64,1363.7 1383.23,1333.75 1383.81,1311.87 1384.39,1284.79 1384.98,1275.15 1385.56,1271.16 1386.15,1280.94 1386.73,1304.08 1387.31,1324.43 1387.9,1353.05 1388.48,1371.78 1389.06,1394.69 1389.65,1404.98 1390.23,1410.4 1390.82,1401.11 1391.4,1385.43 1391.98,1360.59 1392.57,1335.44 1393.15,1312.51 1393.73,1284.28 1394.32,1269.56 1394.9,1254.85 1395.48,1264.61 1396.07,1274.41 1396.65,1296.12 1397.24,1322.95 1397.82,1350.45 1398.4,1381.85 1398.99,1401.51 1399.57,1418.28 1400.15,1419.04 1400.74,1412.68 1401.32,1389.34 1401.91,1362.22 1402.49,1320.82 1403.07,1286.02 1403.66,1253.76 1404.24,1229.97 1404.82,1224 1405.41,1222.78 1405.99,1248.42 1406.58,1271.12 1407.16,1307.2 1407.74,1342.52 1408.33,1379.36 1408.91,1411.63 1409.49,1427.73 1410.08,1430.58 1410.61,1417.2 1411.15,1395.16 1411.68,1366.27 1412.22,1329.39 1412.75,1289.54 1413.29,1256.83 1413.82,1234.96 1414.36,1219.49 1414.89,1209.45 1415.43,1211.39 1415.96,1228.36 1416.5,1253.96 1417.03,1282.14 1417.56,1314.62 1418.1,1352.74 1418.63,1389.43 1419.17,1416.03 1419.7,1430.84 1420.24,1434.82 1420.77,1425.09 1421.31,1399.86 1421.84,1364.48 1422.38,1325.48 1422.91,1283.82 1423.45,1240.91 1423.98,1205.56 1424.52,1186.47 1425.05,1182.39 1425.59,1188.32 1426.12,1206.24 1426.66,1239.95 1427.19,1283.26 1427.72,1324.42 1428.26,1359.8 1428.79,1392.76 1429.33,1420.76 1429.86,1435.04 1430.4,1432.99 1430.93,1419.71 1431.47,1397.34 1432,1363.58 1432.54,1321.83 1433.07,1281.67 1433.61,1247.49 1434.14,1217.17 1434.68,1193.63 1435.21,1186.37 1435.75,1197.95 1436.28,1220.02 1436.82,1246.57 1437.35,1280.41 1437.88,1321.88 1438.42,1361.95 1438.95,1392.83 1439.49,1415.72 1440.02,1431.81 1440.56,1435.19 1441.09,1421.76 1441.63,1396.35 1442.16,1364.14 1442.7,1323.94 1443.23,1277.6 1443.77,1236.67 1444.3,1210.45 1444.84,1195.76 1445.37,1187.83 1445.91,1192.87 1446.44,1218.26 1446.97,1257.54 1447.51,1297.15 1448.04,1333.05 1448.58,1368.85 1449.11,1402.07 1449.65,1424.33 1450.18,1432.59 1450.72,1429.01 1451.25,1412.7 1451.79,1382.59 1452.32,1345.98 1452.86,1312.85 1453.39,1283.58 1453.93,1253.4 1454.46,1226.41 1455,1212.71 1455.53,1213.13 1456.07,1220.12 1456.6,1233.31 1457.13,1260.38 1457.67,1300.75 1458.2,1341.95 1458.74,1375.29 1459.27,1402.83 1459.81,1425.22 1460.34,1434.99 1460.88,1427.36 1461.41,1406.97 1461.95,1378.61 1462.48,1341.52 1463.02,1298.05 1463.55,1257.78 1464.09,1227.14 1464.62,1204.3 1465.16,1189.75 1465.69,1191.58 1466.23,1213.08 1466.76,1244.8 1467.29,1277.01 1467.83,1311.3 1468.36,1351.35 1468.9,1390.57 1469.43,1418.48 1469.97,1432.72 1470.5,1435.42 1471.04,1424.19 1471.57,1396.7 1472.11,1359.03 1472.64,1319.57 1473.18,1279.44 1473.71,1238.22 1474.25,1204.07 1474.78,1187.01 1475.32,1185.57 1475.85,1191.18 1476.39,1203.27 1476.92,1228.69 1477.45,1267.45 1477.99,1310.24 1478.52,1350.36 1479.02,1386.15 1479.51,1415.16 1480.01,1433.97 1480.5,1440.87 1480.99,1434.84 1481.49,1415.25 1481.98,1383.38 1482.48,1342.88 1482.97,1297.73 1483.46,1250.32 1483.96,1202.92 1484.45,1160.35 1484.94,1129.43 1485.44,1115.28 1485.93,1118.85 1486.43,1138.18 1486.92,1170.65 1487.41,1213.29 1487.91,1262.07 1488.4,1312.3 1488.9,1359.5 1489.39,1399.58 1489.88,1428.6 1490.38,1443.58 1490.87,1443.5 1491.36,1428.77 1491.86,1400.15 1492.35,1359.34 1492.85,1310.38 1493.34,1259.01 1493.83,1209.74 1494.33,1164.76 1494.82,1126.2 1495.32,1098.32 1495.81,1085.82 1496.3,1090.43 1496.8,1110.36 1497.29,1142.9 1497.79,1186 1498.28,1236.98 1498.77,1291.23 1499.27,1343.1 1499.76,1387.76 1500.25,1421.56 1500.75,1441.53 1501.24,1445.44 1501.74,1432.29 1502.23,1402.04 1502.72,1355.74 1503.22,1296.71 1503.71,1231.39 1504.21,1167.49 1504.7,1110.81 1505.19,1064.57 1505.69,1031.51 1506.18,1014.98 1506.67,1017.1 1507.17,1037.05 1507.66,1072.34 1508.16,1120.98 1508.65,1180.84 1509.14,1247.14 1509.64,1312.31 1510.13,1368.7 1510.63,1411 1511.12,1435.86 1511.61,1441.02 1512.11,1425.91 1512.6,1392.6 1513.1,1344.94 1513.59,1287.14 1514.08,1223.42 1514.58,1158.56 1515.07,1097.65 1515.56,1045.51 1516.06,1006.83 1516.55,986.072 1517.05,985.563 1517.54,1003.41 1518.03,1034.87 1518.53,1076.64 1519.02,1128.71 1519.52,1191.08 1520.01,1259.39 1520.5,1325.06 1521,1379.42 1521.49,1416.72 1521.98,1433.86 1522.48,1429.21 1522.97,1402.82 1523.47,1356.8 1523.96,1294.8 1524.45,1221.59 1524.95,1143.47 1525.44,1067.99 1525.94,1002.07 1526.43,950.528 1526.92,916.82 1527.42,904.175 1527.91,914.687 1528.41,947.386 1528.9,998.466 1529.39,1063.53 1529.89,1138.35 1530.38,1217.22 1530.87,1292.09 1531.37,1354.87 1531.86,1400.2 1532.36,1425.6 1532.85,1429.7 1533.34,1411.87 1533.84,1373.37 1534.33,1317.48 1534.83,1248.53 1535.32,1171.66 1535.81,1093.73 1536.31,1022.61 1536.8,964.597 1537.29,922.789 1537.79,898.556 1538.28,893.681 1538.78,909.907 1539.27,946.869 1539.76,1001.59 1540.26,1069.74 1540.75,1146.25 1541.25,1224.57 1541.74,1297.04 1542.24,1357.16 1542.74,1399.24 1543.24,1419.5 1543.74,1415.29 1544.24,1386.34 1544.74,1335.52 1545.24,1267.42 1545.74,1186.96 1546.24,1100.39 1546.74,1016.6 1547.24,945.129 1547.74,892.165 1548.24,859.649 1548.74,848.307 1549.24,859.947 1549.74,895.833 1550.24,953.868 1550.74,1028.4 1551.24,1112.07 1551.74,1197.12 1552.25,1275.83 1552.75,1341.53 1553.25,1389.55 1553.75,1416.81 1554.25,1421.06 1554.75,1401.62 1555.25,1360.66 1555.75,1302.24 1556.25,1230.39 1556.75,1149.26 1557.25,1065.42 1557.75,988 1558.25,925.168 1558.75,881.07 1559.25,856.947 1559.75,853.971 1560.25,873.394 1560.75,914.465 1561.25,973.912 1561.75,1047.48 1562.25,1130.37 1562.75,1215.8 1563.25,1294.68 1563.75,1358.04 1564.25,1399.69 1564.75,1416.64 1565.25,1408.28 1565.75,1376.14 1566.25,1323.78 1566.75,1255.85 1567.25,1177.68 1567.75,1095.84 1568.25,1017.88 1568.75,950.056 1569.25,895.688 1569.75,857.226 1570.26,839.459 1570.76,848.434 1571.26,886.251 1571.76,948.144 1572.26,1025.42 1572.76,1110.13 1573.26,1195.99 1573.76,1276.44 1574.26,1344.18 1574.76,1393.17 1575.26,1420.16 1575.76,1424.28 1576.26,1406.21 1576.76,1367.91 1577.26,1312.26 1577.76,1242.72 1578.26,1164.05 1578.76,1083.09 1579.26,1007.52 1579.76,943.248 1580.26,894.112 1580.76,864.167 1581.26,858.406 1581.76,879.513 1582.26,924.696 1582.76,987.327 1583.26,1061.32 1583.76,1142.35 1584.26,1225.13 1584.76,1301.65 1585.26,1363.46 1585.76,1404.88 1586.26,1423.49 1586.76,1418.72 1587.26,1391.19 1587.76,1342.97 1588.26,1277.63 1588.77,1200.39 1589.27,1118.62 1589.77,1041.09 1590.27,975.362 1590.77,925.825 1591.27,894.917 1591.77,885.482 1592.27,900.098 1592.77,937.932 1593.27,993.857 1593.77,1061.4 1594.27,1135.39 1594.77,1211.26 1595.27,1283.26 1595.77,1345.24 1596.27,1392.58 1596.77,1422.41 1597.27,1432.37 1597.77,1420.9 1598.27,1388.8 1598.77,1339.25 1599.27,1276.16 1599.77,1203.56 1600.27,1126.87 1600.77,1053.39 1601.27,990.474 1601.77,943.751 1602.27,917.136 1602.77,913.187 1603.27,932.096 1603.77,971 1604.27,1025.49 1604.77,1091.48 1605.27,1164.69 1605.77,1239.02 1606.34,1311.3 1606.9,1374.51 1607.46,1417.63 1608.02,1433.71 1608.58,1422.38 1609.14,1385.9 1609.7,1332.9 1610.26,1259.72 1610.82,1176.79 1611.38,1102.9 1611.94,1029.92 1612.5,972.779 1613.06,955.163 1613.62,957.148 1614.18,979.405 1614.75,1034.86 1615.31,1096.01 1615.87,1159.67 1616.43,1238.96 1616.99,1311.66 1617.55,1368.82 1618.11,1414.83 1618.67,1439.32 1619.23,1440.19 1619.79,1417.97 1620.35,1376.79 1620.91,1322.35 1621.47,1247.16 1622.03,1166.77 1622.59,1100.53 1623.16,1037.38 1623.72,992.508 1624.28,983.747 1624.84,990.133 1625.4,1017.89 1625.96,1076.71 1626.52,1139.6 1627.08,1206.93 1627.64,1284.93 1628.2,1350.57 1628.76,1399.62 1629.32,1433.58 1629.88,1443.3 1630.44,1429.92 1631,1393.62 1631.57,1342.2 1632.13,1283.59 1632.69,1212.66 1633.25,1147.6 1633.81,1099 1634.37,1050.78 1634.93,1023.47 1635.49,1033.15 1636.05,1056.5 1636.61,1098.05 1637.17,1159.97 1637.73,1217.71 1638.29,1276.99 1638.85,1340.61 1639.41,1389.58 1639.98,1424.49 1640.54,1444.25 1641.1,1443.1 1641.66,1423.83 1642.22,1382.68 1642.78,1328.53 1643.34,1270.81 1643.9,1206.74 1644.46,1154.84 1645.02,1118.38 1645.58,1081.23 1646.14,1065 1646.7,1075.87 1647.26,1092 1647.82,1128.11 1648.39,1186.97 1648.95,1245.3 1649.51,1307.25 1650.07,1368.5 1650.63,1411.73 1651.19,1438.64 1651.75,1445.72 1652.31,1431.72 1652.87,1401.48 1653.43,1353.12 1653.99,1300.87 1654.55,1250.69 1655.11,1195.42 1655.67,1154.19 1656.23,1129.84 1656.8,1109.91 1657.36,1112.95 1657.92,1134.72 1658.48,1157.18 1659.04,1198.85 1659.6,1255.34 1660.16,1304.47 1660.72,1353.22 1661.28,1397 1661.84,1425.32 1662.4,1442.2 1662.96,1442.23 1663.52,1426.6 1664.08,1398.07 1664.64,1352.6 1665.21,1304.13 1665.77,1254.4 1666.33,1199.39 1666.89,1162.77 1667.45,1143.62 1668.01,1129.28 1668.57,1136.48 1669.13,1157.96 1669.69,1182.72 1670.25,1228.32 1670.81,1282.41 1671.37,1327.96 1671.93,1374.73 1672.49,1413.6 1673.05,1435.15 1673.62,1443.3 1674.18,1433.79 1674.74,1411.55 1675.3,1377.32 1675.86,1328.92 1676.42,1283.76 1676.98,1241.12 1677.54,1198.81 1678.05,1176.25 1678.56,1166.54 1679.06,1167.64 1679.57,1177.49 1680.08,1196.01 1680.59,1223.15 1681.1,1256.4 1681.6,1291.82 1682.11,1326.92 1682.62,1360.76 1683.13,1391.59 1683.64,1416.12 1684.14,1431.48 1684.65,1436.56 1685.16,1431.15 1685.67,1415.61 1686.18,1391.87 1686.68,1363.12 1687.19,1331.48 1687.7,1296.97 1688.21,1260.14 1688.72,1224.73 1689.23,1196.58 1689.73,1180.2 1690.24,1177.07 1690.75,1186.36 1691.26,1205.76 1691.77,1232.21 1692.27,1263.34 1692.78,1298.38 1693.29,1336.31 1693.8,1373.43 1694.31,1404.23 1694.81,1424.82 1695.32,1434.4 1695.83,1433.24 1696.34,1421.42 1696.85,1400.26 1697.35,1373.48 1697.86,1344.88 1698.37,1315.94 1698.88,1286.78 1699.39,1258.91 1699.89,1235.55 1700.4,1219.58 1700.91,1212.53 1701.42,1215.09 1701.93,1227.02 1702.43,1246.51 1702.94,1270.8 1703.45,1298.04 1703.96,1327.35 1704.47,1356.9 1704.97,1383.58 1705.48,1404.71 1705.99,1419.14 1706.5,1425.94 1707.01,1423.84 1707.52,1412.91 1708.02,1395.65 1708.53,1375.1 1709.04,1352.44 1709.55,1327.82 1710.06,1302.58 1710.56,1279.01 1711.07,1258.33 1711.58,1240.87 1712.09,1228.32 1712.6,1224.03 1713.1,1230.37 1713.61,1246.86 1714.12,1271.3 1714.63,1301.14 1715.14,1333.26 1715.64,1363.69 1716.15,1389.17 1716.66,1408.28 1717.17,1420.51 1717.68,1424.91 1718.18,1420.65 1718.69,1408.11 1719.2,1388.46 1719.71,1363.08 1720.22,1334.64 1720.72,1307.81 1721.23,1286.81 1721.74,1272.13 1722.25,1261.41 1722.76,1253.69 1723.26,1251.18 1723.77,1256.34 1724.28,1268.9 1724.79,1286.7 1725.3,1307.96 1725.81,1331.19 1726.31,1353.9 1726.82,1373.28 1727.33,1388.02 1727.84,1398.6 1728.35,1405.89 1728.85,1410.1 1729.36,1410.53 1729.87,1405.28 1730.38,1392.01 1730.89,1370.73 1731.39,1345.59 1731.9,1322.4 1732.41,1303.98 1732.92,1289.25 1733.43,1276.82 1733.93,1267.72 1734.44,1263.72 1734.95,1265.11 1735.46,1271.44 1735.97,1283.28 1736.47,1301.33 1736.98,1324.26 1737.49,1348.81 1738,1371.86 1738.51,1391.18 1739.01,1404.79 1739.52,1411.34 1740.03,1411.18 1740.54,1405.84 1741.05,1396.11 1741.55,1381.57 1742.06,1362.45 1742.57,1340.67 1743.15,1317.69 1743.73,1298.25 1744.32,1277.89 1744.9,1275.47 1745.48,1269.61 1746.06,1279.79 1746.64,1289.62 1747.22,1310.51 1747.81,1337.6 1748.39,1356.58 1748.97,1376.25 1749.55,1383.68 1750.13,1394.1 1750.71,1394.51 1751.3,1396.57 1751.88,1391.36 1752.46,1383.96 1753.04,1371.93 1753.62,1355.33 1754.2,1342.42 1754.79,1321.6 1755.37,1311.57 1755.95,1293.94 1756.53,1286.64 1757.11,1280.04 1757.69,1283.14 1758.28,1301.25 1758.86,1316 1759.44,1341.48 1760.02,1359.18 1760.6,1382.44 1761.18,1395.46 1761.77,1401.98 1762.35,1400.9 1762.93,1393.77 1763.51,1384.91 1764.09,1367.87 1764.67,1354.54 1765.26,1330.77 1765.84,1316.78 1766.42,1299.75 1767,1293.32 1767.58,1292.17 1768.17,1293.05 1768.75,1308.38 1769.33,1317.32 1769.91,1336.27 1770.49,1347.96 1771.07,1365.32 1771.66,1378.25 1772.24,1385.5 1772.82,1390.57 1773.4,1387.36 1773.98,1385.81 1774.56,1375.21 1775.15,1371.54 1775.73,1359.25 1776.31,1349.48 1776.89,1333.87 1777.47,1321.04 1778.05,1315.46 1778.64,1307.07 1779.22,1311.34 1779.8,1308.02 1780.38,1316.05 1780.96,1321.46 1781.54,1334.07 1782.13,1349.77 1782.71,1360.44 1783.29,1377.08 1783.87,1385.99 1784.45,1396.87 1785.03,1393.43 1785.62,1389.25 1786.2,1376.95 1786.78,1363.94 1787.36,1346.23 1787.94,1325.17 1788.52,1313.18 1789.11,1297.99 1789.69,1300.53 1790.27,1301.04 1790.85,1313.21 1791.43,1325.16 1792.01,1337.17 1792.6,1353.32 1793.18,1359.63 1793.76,1370.71 1794.34,1373.23 1794.92,1381.53 1795.5,1380.93 1796.09,1380.23 1796.67,1375.65 1797.25,1367.98 1797.83,1361.65 1798.41,1350.03 1798.99,1348.26 1799.58,1337.41 1800.16,1332.62 1800.74,1320.92 1801.32,1316.16 1801.9,1316.21 1802.48,1316.98 1803.07,1329.34 1804.23,1348.51 1805.39,1367.46 1805.97,1375.42 1806.56,1379.83 1807.14,1383.57 1807.72,1380.44 1808.3,1380.07 1808.88,1370.32 1809.46,1366.12 1810.05,1350.31 1810.63,1336.11 1811.21,1318.36 1811.79,1307.68 1812.37,1308.09 1812.96,1305.49 1813.54,1316.58 1814.12,1323.06 1814.7,1341.59 1815.28,1355.28 1815.86,1368.15 1816.45,1376.78 1817.03,1377.43 1817.57,1380.26 1818.1,1378.46 1818.64,1372.24 1819.18,1367.3 1820.26,1356.78 1821.34,1344.54 1821.87,1340.2 1822.41,1333.6 1822.95,1329.9 1823.49,1332.39 1824.57,1333.13 1825.64,1336.69 1826.18,1340.38 1826.72,1341.81 1827.26,1347.22 1827.8,1358 1828.34,1367.07 1828.88,1371.94 1829.41,1377.17 1829.95,1382.09 1830.49,1380.77 1831.03,1374.16 1831.57,1367.92 1832.11,1360.51 1832.65,1347.73 1833.18,1334.25 1833.72,1326.73 1834.26,1322.31 1834.8,1316.81 1835.34,1315.37 1835.88,1321.99 1836.42,1329.84 1836.95,1333.99 1837.49,1341.07 1838.03,1355.02 1838.57,1367.25 1839.11,1371.41 1839.65,1373.26 1840.19,1377.17 1840.72,1378.21 1841.26,1374.45 1841.8,1371.02 1842.34,1367.52 1842.88,1357.58 1843.42,1343.58 1843.96,1334.83 1844.49,1331.55 1845.03,1327.51 1845.57,1325.41 1846.11,1331.61 1846.65,1340.53 1847.19,1342.68 1849.34,1353.4 1851.5,1363.72 1852.04,1365.63 1852.57,1370.69 1853.11,1373.01 1853.65,1369.55 1854.19,1366.57 1854.73,1365.57 1855.27,1358.84 1855.81,1345.54 1856.34,1335.19 1856.88,1330.23 1857.42,1323.37 1857.96,1315.14 1858.5,1315.24 1859.04,1324.45 1859.58,1333.84 1860.11,1341.75 1860.65,1353.51 1861.19,1366.34 1861.73,1372.4 1862.27,1373.56 1862.81,1376.68 1863.35,1379.26 1863.88,1375.12 1864.42,1367.23 1864.96,1361.16 1865.5,1354.43 1866.04,1344.65 1866.58,1337.41 1867.12,1335.57 1867.65,1332.92 1868.19,1327.46 1868.73,1327.16 1869.27,1334.62 1869.81,1341.19 1870.35,1342.7 1870.89,1345.8 1871.42,1353.6 1871.96,1360.13 1872.5,1362.62 1873.04,1364.69 1874.12,1363.56 1875.19,1361.25 1875.73,1364.05 1876.27,1362.8 1876.81,1359.82 1877.35,1358.76 1877.89,1355.55 1878.43,1347.17 1878.96,1339.96 1879.5,1338.73 1880.04,1338.12 1880.58,1333.97 1881.12,1331.36 1881.66,1333.77 1882.2,1336.69 1882.73,1338.24 1883.27,1343.07 1883.81,1351.64 1884.35,1358.68 1884.89,1364.26 1885.43,1372.76 1885.97,1381.21 1886.5,1382.72 1887.03,1377.88 1887.56,1370.51 1888.09,1361.59 1888.62,1349.29 1889.15,1334.96 1889.68,1324.3 1890.21,1320.94 1890.75,1322.27 1891.28,1324.24 1891.81,1327.67 1892.34,1335.81 1892.87,1347.05 1893.4,1355.2 1893.93,1357.89 1894.46,1359.58 1894.99,1363.9 1895.52,1367.67 1896.06,1366.69 1896.59,1363.39 1897.12,1362.91 1897.65,1364.12 1898.18,1361.58 1898.71,1355.48 1899.24,1352.04 1899.77,1353.03 1900.3,1352.58 1900.83,1347.13 1901.37,1341.65 1901.9,1341.31 1902.43,1343.15 1902.96,1341.83 1903.49,1338.73 1904.02,1338.87 1904.55,1342.03 1905.08,1344.26 1905.61,1345.87 1906.14,1350.53 1906.67,1357.23 1907.21,1360.63 1907.74,1360.27 1908.27,1361.99 1908.8,1368.24 1909.33,1373.41 1909.86,1372.34 1910.39,1367.6 1910.92,1363.85 1911.45,1359.51 1911.98,1350.03 1912.52,1337 1913.05,1327.46 1913.58,1324.76 1914.11,1325.28 1914.64,1325.42 1915.17,1326.99 1915.7,1333.08 1916.23,1342.33 1916.76,1350.97 1917.29,1358.63 1917.83,1367.63 1918.36,1376.82 1918.89,1380.65 1919.42,1376.35 1919.95,1368.4 1920.48,1362.65 1921.01,1358.67 1921.54,1352.24 1922.07,1343.64 1922.6,1337.98 1923.14,1337.01 1923.67,1336.77 1924.2,1335.28 1924.73,1336.56 1925.26,1343.32 1925.79,1350.71 1926.32,1352.72 1926.85,1350.87 1927.38,1350.77 1927.91,1352.7 1928.45,1352.8 1928.98,1351.54 1929.51,1353.49 1930.04,1358.59 1930.57,1361.24 1931.1,1359.81 1931.63,1359.55 1932.16,1363.34 1932.69,1366.44 1933.22,1364.47 1933.76,1360.33 1934.29,1357.87 1934.82,1354.13 1935.35,1344.8 1935.88,1333.62 1936.41,1328.61 1936.94,1330.58 1937.47,1332.91 1938,1332.8 1938.53,1335.27 1939.07,1343.87 1939.6,1353.93 1940.13,1359.05 1940.66,1360.01 1941.19,1362.33 1941.72,1367.68 1942.25,1372.43 1942.78,1373.88 1943.31,1373.1 1943.84,1370.74 1944.38,1364.51 1944.91,1353.2 1945.44,1340.66 1945.97,1332.14 1946.5,1328.07 1947.03,1324.98 1947.56,1322.37 1948.09,1324.41 1948.62,1333.15 1949.15,1344.42 1949.68,1353.2 1950.22,1359.86 1950.75,1366.76 1951.28,1371.73 1951.81,1370.52 1952.34,1364.62 1952.87,1360.25 1953.4,1359.23 1953.93,1357.19 1954.45,1353.12 1954.96,1348.98 1955.48,1347.34 1955.99,1348.79 1956.51,1351.48 1957.03,1353.2 1957.54,1352.8 1958.06,1350.18 1958.57,1346.6 1959.09,1344.55 1959.6,1345.33 1960.12,1346.75 1960.63,1345.38 1961.15,1341.38 1961.67,1339.1 1962.18,1341.88 1962.7,1348.14 1963.21,1353.85 1963.73,1357.36 1964.24,1360.29 1964.76,1364.55 1965.27,1369.98 1965.79,1374.38 1966.31,1374.75 1966.82,1369.24 1967.34,1359.28 1967.85,1349.23 1968.37,1342.68 1968.88,1339.3 1969.4,1336.42 1969.91,1332.88 1970.43,1329.86 1970.95,1328.73 1971.46,1330 1971.98,1334.2 1972.49,1341.44 1973.01,1350.06 1973.52,1357.41 1974.04,1362.86 1974.55,1368.04 1975.07,1373.46 1975.59,1376.58 1976.1,1374.69 1976.62,1368.38 1977.13,1360.78 1977.65,1354.33 1978.16,1349.47 1978.68,1345.43 1979.19,1341.18 1979.71,1336.14 1980.23,1331.5 1980.74,1330.06 1981.26,1333.38 1981.77,1339.67 1982.29,1345.76 1982.8,1350.53 1983.32,1355.05 1983.83,1359.79 1984.35,1363.53 1984.87,1364.95 1985.38,1363.6 1985.9,1359.43 1986.41,1353.28 1986.93,1348.16 1987.44,1347.63 1987.96,1351.77 1988.47,1356.46 1988.99,1357.99 1989.51,1357.08 1990.02,1357.1 1990.54,1359.26 1991.05,1361.18 1991.57,1359.6 1992.08,1353.27 1992.6,1343.93 1993.11,1335.47 1993.63,1331.43 1994.15,1332.02 1994.66,1334.17 1995.18,1335.57 1995.69,1337.82 1996.21,1344.07 1996.72,1354.15 1997.24,1364.16 1997.75,1370.66 1998.27,1373.32 1998.79,1373.33 1999.3,1371.41 1999.82,1368.13 2000.33,1364.22 2000.85,1359.47 2001.36,1352.78 2001.88,1344.43 2002.39,1337.07 2002.91,1333.11 2003.43,1332.13 2003.94,1331.97 2004.46,1331.62 2004.97,1331.92 2005.49,1334.28 2006,1339.79 2006.52,1348.7 2007.03,1359.3 2007.55,1368.04 2008.07,1372.34 2008.58,1372.95 2009.1,1372.15 2009.61,1370.26 2010.13,1365.71 2010.64,1358.27 2011.16,1350.23 2011.67,1343.97 2012.19,1340.21 2012.7,1338.97 2013.22,1340.22 2013.74,1342.72 2014.77,1343.9 2015.8,1347 2016.31,1352.04 2016.83,1356.3 2017.34,1357.82 2017.86,1356.95 2018.89,1353.78 2019.92,1353.2 2020.45,1350.81 2020.98,1347.39 2021.51,1348.81 2022.04,1356.19 2022.57,1363.39 2023.09,1365.41 2023.62,1364.62 2024.15,1364.95 2024.68,1364.04 2025.21,1356.97 2025.74,1345.51 2026.26,1337.1 2026.79,1334.48 2027.32,1332.79 2027.85,1328.5 2028.38,1325.73 2028.91,1330.15 2029.44,1340.82 2029.96,1352.05 2030.49,1360.69 2031.02,1367.47 2031.55,1372.59 2032.08,1374.45 2032.61,1372.94 2033.14,1370.45 2033.66,1368.23 2034.19,1363.99 2034.72,1355 2035.25,1342.86 2035.78,1333.26 2036.31,1330.29 2036.83,1332.1 2037.36,1333.62 2037.89,1333.24 2038.42,1334.39 2038.95,1339.82 2040.01,1352.33 2041.06,1361.66 2041.59,1368.17 2042.12,1371.16 2042.65,1369.33 2043.18,1366.49 2043.71,1364.72 2044.23,1360.89 2044.76,1352.71 2045.29,1344.16 2045.82,1340.25 2046.35,1339.9 2046.88,1338.86 2047.4,1337.67 2047.93,1340.94 2048.46,1348.95 2048.99,1355.74 2049.52,1357.09 2050.05,1355.79 2050.58,1356.26 2051.1,1357.5 2051.63,1355.17 2052.16,1348.77 2052.69,1343.2 2053.22,1342.71 2053.75,1346.07 2054.28,1349.38 2054.8,1351.93 2055.33,1356.67 2055.86,1364.4 2056.39,1370.53 2056.92,1370 2057.45,1364.2 2057.97,1359.09 2058.5,1356.72 2059.03,1352.94 2059.56,1345.15 2060.09,1337.46 2060.62,1334.49 2061.15,1333.93 2061.67,1330.77 2062.2,1326.75 2062.73,1329.05 2063.26,1339.68 2063.79,1352.33 2064.32,1361.28 2064.84,1367.73 2065.37,1374.37 2065.9,1378.71 2066.43,1376.68 2066.96,1369.7 2067.49,1363.07 2068.02,1358.48 2068.54,1352.62 2069.07,1343.55 2069.6,1334.43 2070.13,1329.42 2070.66,1328.69 2071.19,1329.49 2071.72,1330.94 2072.24,1335.22 2072.77,1343.68 2073.3,1353.4 2073.83,1359.65 2074.36,1361.39 2074.89,1362.28 2075.41,1365.17 2075.94,1368 2076.47,1367.33 2077,1363.95 2077.53,1361.31 2078.06,1359.31 2078.59,1354.4 2079.11,1346.19 2079.64,1339.42 2080.17,1337.42 2080.7,1337.96 2081.23,1338.42 2081.76,1340.91 2082.29,1347.86 2082.81,1356.01 2083.34,1359.83 2083.87,1359.44 2084.4,1359.39 2084.93,1360.2 2085.46,1356.97 2085.98,1347.94 2086.51,1339.17 2087.04,1337.67 2087.57,1342.99 2088.73,1352.64 2089.89,1362.31 2090.47,1368.54 2091.04,1365.95 2091.62,1366.77 2092.2,1361.27 2092.78,1354.11 2093.36,1349.17 2093.94,1336.62 2094.52,1332.96 2095.1,1323.66 2095.68,1326.34 2096.26,1330.01 2096.83,1337.38 2097.41,1352.12 2097.99,1358.13 2098.57,1368.36 2099.15,1369.4 2099.73,1375.6 2100.31,1375.55 2100.89,1370.89 2101.47,1365.39 2102.05,1353.44 2102.63,1348.83 2103.2,1336.84 2103.78,1335.42 2104.36,1331.51 2104.94,1329.34 2105.52,1331.73 2106.1,1330.27 2106.68,1340.98 2107.26,1345.7 2107.84,1358.31 2108.42,1365.94 2108.99,1370.02 2109.57,1373.93 2110.15,1370.69 2110.73,1370.79 2111.31,1358.28 2111.89,1351.83 2112.47,1343.74 2113.05,1341.22 2113.63,1341.59 2114.21,1336.89 2114.78,1342.26 2115.36,1340.42 2115.94,1346.91 2116.52,1349.46 2117.1,1353.93 2117.68,1360.06 2118.26,1359.17 2118.84,1363.39 2119.42,1356.59 2120,1355.08 2120.58,1348.86 2121.15,1346.65 2121.73,1346.14 2122.31,1340.98 2122.89,1347.27 2123.47,1349.56 2124.05,1360.54 2124.63,1364.65 2125.21,1368.08 2125.79,1369.31 2126.37,1362.26 2126.94,1359.05 2127.52,1346.89 2128.1,1341.68 2128.68,1329.11 2129.26,1323.31 2129.84,1325.47 2130.42,1328.74 2131,1343.29 2131.58,1349.7 2132.16,1362.35 2132.73,1367.36 2133.31,1372.38 2133.89,1376.02 2134.47,1372.01 2135.05,1370.12 2135.63,1359.83 2136.21,1357.54 2136.79,1346.88 2137.37,1339.17 2137.95,1333.58 2138.53,1328.64 2139.1,1332.36 2139.68,1327.12 2140.26,1333.1 2140.84,1336.65 2141.42,1346.66 2142,1358.7 2142.58,1365.24 2143.16,1374.77 2143.74,1373.05 2144.32,1375.94 2144.89,1370.22 2145.47,1365.01 2146.05,1355.88 2146.63,1344.24 2147.21,1339.01 2147.79,1327.18 2148.37,1329.18 2148.95,1329.85 2149.53,1338.14 2150.11,1345.24 2150.68,1348.23 2151.26,1358.66 2151.84,1360.8 2152.42,1367.92 2153,1365.28 2153.58,1364.26 2154.16,1359.43 2154.74,1351.52 2155.32,1349.84 2155.9,1341.87 2156.48,1344.09 2157.05,1341.49 2157.63,1347.03 2158.21,1352.3 2158.79,1354.41 2159.37,1361.83 2159.95,1361.29 2160.53,1366.24 2161.11,1360.94 2161.69,1358.17 2162.53,1343.77 2163.37,1333.18 2164.21,1330.08 2165.05,1341.12 2165.89,1345.04 2166.73,1359.8 2167.57,1366.01 2168.42,1374.8 2169.26,1369.55 2170.1,1366.97 2170.94,1351.78 2171.78,1338.04 2172.62,1325.47 2173.46,1324.78 2174.3,1328.66 2175.14,1344.31 2175.99,1356.59 2176.83,1362.45 2177.67,1369.93 2178.51,1371.96 2179.35,1375.74 2180.19,1364.61 2181.03,1353.23 2181.87,1329.51 2182.72,1320.2 2183.56,1316.11 2184.4,1333.31 2185.24,1346.51 2186.08,1365.86 2186.92,1372.26 2187.76,1377.14 2188.6,1368.22 2189.44,1352.29 2190.29,1342.47 2191.13,1335.62 2191.97,1338.4 2192.81,1341.62 2193.65,1352.99 2194.49,1356.72 2195.33,1362.93 2196.17,1358.02 2197.01,1358.28 2197.86,1348.1 2198.7,1346.61 2199.54,1336.81 2200.38,1342.95 2201.22,1350.4 2202.06,1359.49 2202.9,1364.2 2203.74,1368.97 2204.58,1366.51 2205.43,1355.56 2206.27,1346.8 2207.11,1335.03 2207.95,1331.94 2208.79,1328.04 2209.63,1340.43 2210.47,1345.32 2211.31,1362.01 2212.15,1369.23 2213,1377.02 2213.84,1372.33 2214.68,1367.3 2215.52,1353.82 2216.36,1339.03 2217.2,1320.9 2218.04,1315.89 2218.88,1323.31 2219.73,1336.12 2220.57,1353.92 2221.41,1369.67 2222.25,1384.97 2223.09,1380.04 2223.93,1371.01 2224.77,1349.46 2225.61,1335.31 2226.45,1321.43 2227.3,1326.06 2228.14,1328.2 2228.98,1346.66 2229.82,1358.56 2230.66,1370 2231.5,1370.2 2232.34,1364.87 2233.18,1355.34 2234.02,1344.28 2234.87,1345.28 2235.71,1344.15 2236.55,1347.11 2237.39,1346.68 2238.23,1355.21 2239.07,1356.3 2239.91,1363.57 2240.75,1355.8 2241.59,1355.2 2242.44,1348.11 2243.28,1347.49 2244.12,1339.17 2244.96,1337.02 2245.8,1340.36 2246.64,1354.04 2247.48,1368.45 2248.32,1376.01 2249.17,1373.25 2250.01,1359.65 2250.85,1349.36 2251.69,1332.92 2252.53,1330.28 2253.37,1320.19 2254.21,1329.09 2255.05,1338.9 2255.89,1358.34 2256.74,1367.98 2257.58,1383.27 2258.42,1385.26 2259.26,1373.48 2260.1,1349.7 2260.94,1329.41 2261.78,1313.83 2262.62,1307.54 2263.46,1321.72 2264.31,1339.32 2265.15,1361.75 2265.99,1372.1 2266.83,1379.97 2267.67,1374.67 2268.51,1369.91 2269.35,1352.89 2269.53,1351.44 2269.7,1351.06 2269.87,1345.44 2270.04,1340.44 2270.22,1340.72 2270.39,1338.82 2270.56,1332.72 2270.73,1331.02 2271.08,1329.95 2271.42,1328.36 2271.77,1326.92 2272.11,1330.81 2272.8,1336.22 2273.49,1344.08 2274.18,1350.81 2274.87,1354.62 2275.56,1359.24 2276.25,1364.63 2276.95,1366.92 2277.64,1366.57 2278.33,1363.79 2279.02,1356.6 2279.71,1347.37 2280.4,1339.7 2280.74,1334.39 2281.09,1334.32 2281.43,1333.94 2281.78,1333.11 2281.95,1333.56 2282.12,1338.54 2282.29,1339.47 2282.47,1338.06 2282.64,1342.05 2282.81,1347.02 2282.98,1346.81 2283.16,1347.71 2283.33,1353.53 2283.5,1356.84 2283.68,1356.25 2283.85,1359.27 2284.19,1365.54 2284.54,1368.33 2284.88,1369.13 2285.23,1370.75 2285.4,1370.44 2285.57,1366.63 2285.75,1366.32 2285.92,1368.09 2286.09,1365.36 2286.26,1361.57 2286.44,1362.33 2286.61,1362.3 2286.78,1357.32 2286.95,1354.07 2287.13,1354.73 2287.3,1351.79 2287.64,1344.01 2287.99,1339.59 2288.33,1336.61 2288.68,1331.51 2288.85,1330.48 2289.02,1333.16 2289.2,1330.96 2289.37,1326.89 2289.54,1328.59 2289.71,1330.46 2289.89,1326.97 2290.06,1325.99 2290.23,1330.54 2290.41,1331.93 2290.58,1330.46 2290.75,1334.7 2290.92,1341.18 2291.1,1342.64 2291.27,1344.73 2291.44,1352.09 "/>
<path clip-path="url(#clip610)" d="M2011.46 198.898 L2280.54 198.898 L2280.54 95.2176 L2011.46 95.2176  Z" fill="#ffffff" fill-rule="evenodd" fill-opacity="1"/>
<polyline clip-path="url(#clip610)" style="stroke:#000000; stroke-linecap:round; stroke-linejoin:round; stroke-width:4; stroke-opacity:1; fill:none" points="2011.46,198.898 2280.54,198.898 2280.54,95.2176 2011.46,95.2176 2011.46,198.898 "/>
<polyline clip-path="url(#clip610)" style="stroke:#009af9; stroke-linecap:round; stroke-linejoin:round; stroke-width:4; stroke-opacity:1; fill:none" points="2035.53,147.058 2179.97,147.058 "/>
<path clip-path="url(#clip610)" d="M2217.88 166.745 Q2216.07 171.375 2214.36 172.787 Q2212.65 174.199 2209.78 174.199 L2206.38 174.199 L2206.38 170.634 L2208.88 170.634 Q2210.63 170.634 2211.61 169.8 Q2212.58 168.967 2213.76 165.865 L2214.52 163.921 L2204.04 138.412 L2208.55 138.412 L2216.65 158.689 L2224.76 138.412 L2229.27 138.412 L2217.88 166.745 Z" fill="#000000" fill-rule="evenodd" fill-opacity="1" /><path clip-path="url(#clip610)" d="M2236.56 160.402 L2244.2 160.402 L2244.2 134.037 L2235.89 135.703 L2235.89 131.444 L2244.15 129.778 L2248.83 129.778 L2248.83 160.402 L2256.47 160.402 L2256.47 164.338 L2236.56 164.338 L2236.56 160.402 Z" fill="#000000" fill-rule="evenodd" fill-opacity="1" /></svg>
