<?xml version="1.0" encoding="utf-8"?>
<svg xmlns="http://www.w3.org/2000/svg" xmlns:xlink="http://www.w3.org/1999/xlink" width="600" height="400" viewBox="0 0 2400 1600">
<defs>
  <clipPath id="clip820">
    <rect x="0" y="0" width="2400" height="1600"/>
  </clipPath>
</defs>
<path clip-path="url(#clip820)" d="M0 1600 L2400 1600 L2400 0 L0 0  Z" fill="#ffffff" fill-rule="evenodd" fill-opacity="1"/>
<defs>
  <clipPath id="clip821">
    <rect x="480" y="0" width="1681" height="1600"/>
  </clipPath>
</defs>
<path clip-path="url(#clip820)" d="M156.598 1486.45 L2352.76 1486.45 L2352.76 47.2441 L156.598 47.2441  Z" fill="#ffffff" fill-rule="evenodd" fill-opacity="1"/>
<defs>
  <clipPath id="clip822">
    <rect x="156" y="47" width="2197" height="1440"/>
  </clipPath>
</defs>
<polyline clip-path="url(#clip822)" style="stroke:#000000; stroke-linecap:round; stroke-linejoin:round; stroke-width:2; stroke-opacity:0.1; fill:none" points="218.754,1486.45 218.754,47.2441 "/>
<polyline clip-path="url(#clip822)" style="stroke:#000000; stroke-linecap:round; stroke-linejoin:round; stroke-width:2; stroke-opacity:0.1; fill:none" points="736.715,1486.45 736.715,47.2441 "/>
<polyline clip-path="url(#clip822)" style="stroke:#000000; stroke-linecap:round; stroke-linejoin:round; stroke-width:2; stroke-opacity:0.1; fill:none" points="1254.68,1486.45 1254.68,47.2441 "/>
<polyline clip-path="url(#clip822)" style="stroke:#000000; stroke-linecap:round; stroke-linejoin:round; stroke-width:2; stroke-opacity:0.1; fill:none" points="1772.64,1486.45 1772.64,47.2441 "/>
<polyline clip-path="url(#clip822)" style="stroke:#000000; stroke-linecap:round; stroke-linejoin:round; stroke-width:2; stroke-opacity:0.1; fill:none" points="2290.6,1486.45 2290.6,47.2441 "/>
<polyline clip-path="url(#clip820)" style="stroke:#000000; stroke-linecap:round; stroke-linejoin:round; stroke-width:4; stroke-opacity:1; fill:none" points="156.598,1486.45 2352.76,1486.45 "/>
<polyline clip-path="url(#clip820)" style="stroke:#000000; stroke-linecap:round; stroke-linejoin:round; stroke-width:4; stroke-opacity:1; fill:none" points="218.754,1486.45 218.754,1467.55 "/>
<polyline clip-path="url(#clip820)" style="stroke:#000000; stroke-linecap:round; stroke-linejoin:round; stroke-width:4; stroke-opacity:1; fill:none" points="736.715,1486.45 736.715,1467.55 "/>
<polyline clip-path="url(#clip820)" style="stroke:#000000; stroke-linecap:round; stroke-linejoin:round; stroke-width:4; stroke-opacity:1; fill:none" points="1254.68,1486.45 1254.68,1467.55 "/>
<polyline clip-path="url(#clip820)" style="stroke:#000000; stroke-linecap:round; stroke-linejoin:round; stroke-width:4; stroke-opacity:1; fill:none" points="1772.64,1486.45 1772.64,1467.55 "/>
<polyline clip-path="url(#clip820)" style="stroke:#000000; stroke-linecap:round; stroke-linejoin:round; stroke-width:4; stroke-opacity:1; fill:none" points="2290.6,1486.45 2290.6,1467.55 "/>
<path clip-path="url(#clip820)" d="M218.754 1517.37 Q215.143 1517.37 213.314 1520.93 Q211.508 1524.47 211.508 1531.6 Q211.508 1538.71 213.314 1542.27 Q215.143 1545.82 218.754 1545.82 Q222.388 1545.82 224.193 1542.27 Q226.022 1538.71 226.022 1531.6 Q226.022 1524.47 224.193 1520.93 Q222.388 1517.37 218.754 1517.37 M218.754 1513.66 Q224.564 1513.66 227.619 1518.27 Q230.698 1522.85 230.698 1531.6 Q230.698 1540.33 227.619 1544.94 Q224.564 1549.52 218.754 1549.52 Q212.943 1549.52 209.865 1544.94 Q206.809 1540.33 206.809 1531.6 Q206.809 1522.85 209.865 1518.27 Q212.943 1513.66 218.754 1513.66 Z" fill="#000000" fill-rule="evenodd" fill-opacity="1" /><path clip-path="url(#clip820)" d="M715.986 1544.91 L732.306 1544.91 L732.306 1548.85 L710.361 1548.85 L710.361 1544.91 Q713.023 1542.16 717.607 1537.53 Q722.213 1532.88 723.394 1531.53 Q725.639 1529.01 726.519 1527.27 Q727.421 1525.51 727.421 1523.82 Q727.421 1521.07 725.477 1519.33 Q723.556 1517.6 720.454 1517.6 Q718.255 1517.6 715.801 1518.36 Q713.371 1519.13 710.593 1520.68 L710.593 1515.95 Q713.417 1514.82 715.871 1514.24 Q718.324 1513.66 720.361 1513.66 Q725.732 1513.66 728.926 1516.35 Q732.12 1519.03 732.12 1523.52 Q732.12 1525.65 731.31 1527.57 Q730.523 1529.47 728.417 1532.07 Q727.838 1532.74 724.736 1535.95 Q721.634 1539.15 715.986 1544.91 Z" fill="#000000" fill-rule="evenodd" fill-opacity="1" /><path clip-path="url(#clip820)" d="M742.167 1514.29 L760.523 1514.29 L760.523 1518.22 L746.449 1518.22 L746.449 1526.7 Q747.468 1526.35 748.486 1526.19 Q749.505 1526 750.523 1526 Q756.31 1526 759.69 1529.17 Q763.069 1532.34 763.069 1537.76 Q763.069 1543.34 759.597 1546.44 Q756.125 1549.52 749.806 1549.52 Q747.63 1549.52 745.361 1549.15 Q743.116 1548.78 740.708 1548.04 L740.708 1543.34 Q742.792 1544.47 745.014 1545.03 Q747.236 1545.58 749.713 1545.58 Q753.718 1545.58 756.056 1543.48 Q758.393 1541.37 758.393 1537.76 Q758.393 1534.15 756.056 1532.04 Q753.718 1529.94 749.713 1529.94 Q747.838 1529.94 745.963 1530.35 Q744.111 1530.77 742.167 1531.65 L742.167 1514.29 Z" fill="#000000" fill-rule="evenodd" fill-opacity="1" /><path clip-path="url(#clip820)" d="M1229.38 1514.29 L1247.73 1514.29 L1247.73 1518.22 L1233.66 1518.22 L1233.66 1526.7 Q1234.68 1526.35 1235.7 1526.19 Q1236.71 1526 1237.73 1526 Q1243.52 1526 1246.9 1529.17 Q1250.28 1532.34 1250.28 1537.76 Q1250.28 1543.34 1246.81 1546.44 Q1243.33 1549.52 1237.02 1549.52 Q1234.84 1549.52 1232.57 1549.15 Q1230.33 1548.78 1227.92 1548.04 L1227.92 1543.34 Q1230 1544.47 1232.22 1545.03 Q1234.45 1545.58 1236.92 1545.58 Q1240.93 1545.58 1243.27 1543.48 Q1245.6 1541.37 1245.6 1537.76 Q1245.6 1534.15 1243.27 1532.04 Q1240.93 1529.94 1236.92 1529.94 Q1235.05 1529.94 1233.17 1530.35 Q1231.32 1530.77 1229.38 1531.65 L1229.38 1514.29 Z" fill="#000000" fill-rule="evenodd" fill-opacity="1" /><path clip-path="url(#clip820)" d="M1269.49 1517.37 Q1265.88 1517.37 1264.05 1520.93 Q1262.25 1524.47 1262.25 1531.6 Q1262.25 1538.71 1264.05 1542.27 Q1265.88 1545.82 1269.49 1545.82 Q1273.13 1545.82 1274.93 1542.27 Q1276.76 1538.71 1276.76 1531.6 Q1276.76 1524.47 1274.93 1520.93 Q1273.13 1517.37 1269.49 1517.37 M1269.49 1513.66 Q1275.3 1513.66 1278.36 1518.27 Q1281.44 1522.85 1281.44 1531.6 Q1281.44 1540.33 1278.36 1544.94 Q1275.3 1549.52 1269.49 1549.52 Q1263.68 1549.52 1260.6 1544.94 Q1257.55 1540.33 1257.55 1531.6 Q1257.55 1522.85 1260.6 1518.27 Q1263.68 1513.66 1269.49 1513.66 Z" fill="#000000" fill-rule="evenodd" fill-opacity="1" /><path clip-path="url(#clip820)" d="M1746.49 1514.29 L1768.72 1514.29 L1768.72 1516.28 L1756.17 1548.85 L1751.28 1548.85 L1763.09 1518.22 L1746.49 1518.22 L1746.49 1514.29 Z" fill="#000000" fill-rule="evenodd" fill-opacity="1" /><path clip-path="url(#clip820)" d="M1777.88 1514.29 L1796.24 1514.29 L1796.24 1518.22 L1782.16 1518.22 L1782.16 1526.7 Q1783.18 1526.35 1784.2 1526.19 Q1785.22 1526 1786.24 1526 Q1792.03 1526 1795.4 1529.17 Q1798.78 1532.34 1798.78 1537.76 Q1798.78 1543.34 1795.31 1546.44 Q1791.84 1549.52 1785.52 1549.52 Q1783.34 1549.52 1781.08 1549.15 Q1778.83 1548.78 1776.42 1548.04 L1776.42 1543.34 Q1778.51 1544.47 1780.73 1545.03 Q1782.95 1545.58 1785.43 1545.58 Q1789.43 1545.58 1791.77 1543.48 Q1794.11 1541.37 1794.11 1537.76 Q1794.11 1534.15 1791.77 1532.04 Q1789.43 1529.94 1785.43 1529.94 Q1783.55 1529.94 1781.68 1530.35 Q1779.83 1530.77 1777.88 1531.65 L1777.88 1514.29 Z" fill="#000000" fill-rule="evenodd" fill-opacity="1" /><path clip-path="url(#clip820)" d="M2250.21 1544.91 L2257.85 1544.91 L2257.85 1518.55 L2249.54 1520.21 L2249.54 1515.95 L2257.8 1514.29 L2262.48 1514.29 L2262.48 1544.91 L2270.11 1544.91 L2270.11 1548.85 L2250.21 1548.85 L2250.21 1544.91 Z" fill="#000000" fill-rule="evenodd" fill-opacity="1" /><path clip-path="url(#clip820)" d="M2289.56 1517.37 Q2285.95 1517.37 2284.12 1520.93 Q2282.31 1524.47 2282.31 1531.6 Q2282.31 1538.71 2284.12 1542.27 Q2285.95 1545.82 2289.56 1545.82 Q2293.19 1545.82 2295 1542.27 Q2296.83 1538.71 2296.83 1531.6 Q2296.83 1524.47 2295 1520.93 Q2293.19 1517.37 2289.56 1517.37 M2289.56 1513.66 Q2295.37 1513.66 2298.42 1518.27 Q2301.5 1522.85 2301.5 1531.6 Q2301.5 1540.33 2298.42 1544.94 Q2295.37 1549.52 2289.56 1549.52 Q2283.75 1549.52 2280.67 1544.94 Q2277.61 1540.33 2277.61 1531.6 Q2277.61 1522.85 2280.67 1518.27 Q2283.75 1513.66 2289.56 1513.66 Z" fill="#000000" fill-rule="evenodd" fill-opacity="1" /><path clip-path="url(#clip820)" d="M2319.72 1517.37 Q2316.11 1517.37 2314.28 1520.93 Q2312.48 1524.47 2312.48 1531.6 Q2312.48 1538.71 2314.28 1542.27 Q2316.11 1545.82 2319.72 1545.82 Q2323.35 1545.82 2325.16 1542.27 Q2326.99 1538.71 2326.99 1531.6 Q2326.99 1524.47 2325.16 1520.93 Q2323.35 1517.37 2319.72 1517.37 M2319.72 1513.66 Q2325.53 1513.66 2328.59 1518.27 Q2331.67 1522.85 2331.67 1531.6 Q2331.67 1540.33 2328.59 1544.94 Q2325.53 1549.52 2319.72 1549.52 Q2313.91 1549.52 2310.83 1544.94 Q2307.78 1540.33 2307.78 1531.6 Q2307.78 1522.85 2310.83 1518.27 Q2313.91 1513.66 2319.72 1513.66 Z" fill="#000000" fill-rule="evenodd" fill-opacity="1" /><polyline clip-path="url(#clip822)" style="stroke:#000000; stroke-linecap:round; stroke-linejoin:round; stroke-width:2; stroke-opacity:0.1; fill:none" points="156.598,1486.45 2352.76,1486.45 "/>
<polyline clip-path="url(#clip822)" style="stroke:#000000; stroke-linecap:round; stroke-linejoin:round; stroke-width:2; stroke-opacity:0.1; fill:none" points="156.598,1198.61 2352.76,1198.61 "/>
<polyline clip-path="url(#clip822)" style="stroke:#000000; stroke-linecap:round; stroke-linejoin:round; stroke-width:2; stroke-opacity:0.1; fill:none" points="156.598,910.766 2352.76,910.766 "/>
<polyline clip-path="url(#clip822)" style="stroke:#000000; stroke-linecap:round; stroke-linejoin:round; stroke-width:2; stroke-opacity:0.1; fill:none" points="156.598,622.926 2352.76,622.926 "/>
<polyline clip-path="url(#clip822)" style="stroke:#000000; stroke-linecap:round; stroke-linejoin:round; stroke-width:2; stroke-opacity:0.1; fill:none" points="156.598,335.085 2352.76,335.085 "/>
<polyline clip-path="url(#clip822)" style="stroke:#000000; stroke-linecap:round; stroke-linejoin:round; stroke-width:2; stroke-opacity:0.1; fill:none" points="156.598,47.2441 2352.76,47.2441 "/>
<polyline clip-path="url(#clip820)" style="stroke:#000000; stroke-linecap:round; stroke-linejoin:round; stroke-width:4; stroke-opacity:1; fill:none" points="156.598,1486.45 156.598,47.2441 "/>
<polyline clip-path="url(#clip820)" style="stroke:#000000; stroke-linecap:round; stroke-linejoin:round; stroke-width:4; stroke-opacity:1; fill:none" points="156.598,1486.45 175.496,1486.45 "/>
<polyline clip-path="url(#clip820)" style="stroke:#000000; stroke-linecap:round; stroke-linejoin:round; stroke-width:4; stroke-opacity:1; fill:none" points="156.598,1198.61 175.496,1198.61 "/>
<polyline clip-path="url(#clip820)" style="stroke:#000000; stroke-linecap:round; stroke-linejoin:round; stroke-width:4; stroke-opacity:1; fill:none" points="156.598,910.766 175.496,910.766 "/>
<polyline clip-path="url(#clip820)" style="stroke:#000000; stroke-linecap:round; stroke-linejoin:round; stroke-width:4; stroke-opacity:1; fill:none" points="156.598,622.926 175.496,622.926 "/>
<polyline clip-path="url(#clip820)" style="stroke:#000000; stroke-linecap:round; stroke-linejoin:round; stroke-width:4; stroke-opacity:1; fill:none" points="156.598,335.085 175.496,335.085 "/>
<polyline clip-path="url(#clip820)" style="stroke:#000000; stroke-linecap:round; stroke-linejoin:round; stroke-width:4; stroke-opacity:1; fill:none" points="156.598,47.2441 175.496,47.2441 "/>
<path clip-path="url(#clip820)" d="M63.4226 1472.25 Q59.8115 1472.25 57.9828 1475.81 Q56.1773 1479.35 56.1773 1486.48 Q56.1773 1493.59 57.9828 1497.15 Q59.8115 1500.7 63.4226 1500.7 Q67.0569 1500.7 68.8624 1497.15 Q70.6911 1493.59 70.6911 1486.48 Q70.6911 1479.35 68.8624 1475.81 Q67.0569 1472.25 63.4226 1472.25 M63.4226 1468.54 Q69.2328 1468.54 72.2883 1473.15 Q75.367 1477.73 75.367 1486.48 Q75.367 1495.21 72.2883 1499.82 Q69.2328 1504.4 63.4226 1504.4 Q57.6125 1504.4 54.5338 1499.82 Q51.4782 1495.21 51.4782 1486.48 Q51.4782 1477.73 54.5338 1473.15 Q57.6125 1468.54 63.4226 1468.54 Z" fill="#000000" fill-rule="evenodd" fill-opacity="1" /><path clip-path="url(#clip820)" d="M83.5845 1497.85 L88.4688 1497.85 L88.4688 1503.73 L83.5845 1503.73 L83.5845 1497.85 Z" fill="#000000" fill-rule="evenodd" fill-opacity="1" /><path clip-path="url(#clip820)" d="M108.654 1472.25 Q105.043 1472.25 103.214 1475.81 Q101.409 1479.35 101.409 1486.48 Q101.409 1493.59 103.214 1497.15 Q105.043 1500.7 108.654 1500.7 Q112.288 1500.7 114.094 1497.15 Q115.922 1493.59 115.922 1486.48 Q115.922 1479.35 114.094 1475.81 Q112.288 1472.25 108.654 1472.25 M108.654 1468.54 Q114.464 1468.54 117.52 1473.15 Q120.598 1477.73 120.598 1486.48 Q120.598 1495.21 117.52 1499.82 Q114.464 1504.4 108.654 1504.4 Q102.844 1504.4 99.765 1499.82 Q96.7095 1495.21 96.7095 1486.48 Q96.7095 1477.73 99.765 1473.15 Q102.844 1468.54 108.654 1468.54 Z" fill="#000000" fill-rule="evenodd" fill-opacity="1" /><path clip-path="url(#clip820)" d="M65.0198 1184.41 Q61.4087 1184.41 59.58 1187.97 Q57.7745 1191.51 57.7745 1198.64 Q57.7745 1205.75 59.58 1209.31 Q61.4087 1212.85 65.0198 1212.85 Q68.6541 1212.85 70.4596 1209.31 Q72.2883 1205.75 72.2883 1198.64 Q72.2883 1191.51 70.4596 1187.97 Q68.6541 1184.41 65.0198 1184.41 M65.0198 1180.7 Q70.83 1180.7 73.8855 1185.31 Q76.9642 1189.89 76.9642 1198.64 Q76.9642 1207.37 73.8855 1211.98 Q70.83 1216.56 65.0198 1216.56 Q59.2097 1216.56 56.131 1211.98 Q53.0754 1207.37 53.0754 1198.64 Q53.0754 1189.89 56.131 1185.31 Q59.2097 1180.7 65.0198 1180.7 Z" fill="#000000" fill-rule="evenodd" fill-opacity="1" /><path clip-path="url(#clip820)" d="M85.1818 1210.01 L90.066 1210.01 L90.066 1215.89 L85.1818 1215.89 L85.1818 1210.01 Z" fill="#000000" fill-rule="evenodd" fill-opacity="1" /><path clip-path="url(#clip820)" d="M104.279 1211.95 L120.598 1211.95 L120.598 1215.89 L98.6539 1215.89 L98.6539 1211.95 Q101.316 1209.2 105.899 1204.57 Q110.506 1199.91 111.686 1198.57 Q113.932 1196.05 114.811 1194.31 Q115.714 1192.55 115.714 1190.86 Q115.714 1188.11 113.77 1186.37 Q111.848 1184.64 108.746 1184.64 Q106.547 1184.64 104.094 1185.4 Q101.663 1186.17 98.8854 1187.72 L98.8854 1182.99 Q101.709 1181.86 104.163 1181.28 Q106.617 1180.7 108.654 1180.7 Q114.024 1180.7 117.219 1183.39 Q120.413 1186.07 120.413 1190.56 Q120.413 1192.69 119.603 1194.61 Q118.816 1196.51 116.709 1199.1 Q116.131 1199.78 113.029 1202.99 Q109.927 1206.19 104.279 1211.95 Z" fill="#000000" fill-rule="evenodd" fill-opacity="1" /><path clip-path="url(#clip820)" d="M62.9365 896.565 Q59.3254 896.565 57.4967 900.13 Q55.6912 903.671 55.6912 910.801 Q55.6912 917.908 57.4967 921.472 Q59.3254 925.014 62.9365 925.014 Q66.5707 925.014 68.3763 921.472 Q70.205 917.908 70.205 910.801 Q70.205 903.671 68.3763 900.13 Q66.5707 896.565 62.9365 896.565 M62.9365 892.861 Q68.7467 892.861 71.8022 897.468 Q74.8809 902.051 74.8809 910.801 Q74.8809 919.528 71.8022 924.134 Q68.7467 928.718 62.9365 928.718 Q57.1264 928.718 54.0477 924.134 Q50.9921 919.528 50.9921 910.801 Q50.9921 902.051 54.0477 897.468 Q57.1264 892.861 62.9365 892.861 Z" fill="#000000" fill-rule="evenodd" fill-opacity="1" /><path clip-path="url(#clip820)" d="M83.0984 922.167 L87.9827 922.167 L87.9827 928.046 L83.0984 928.046 L83.0984 922.167 Z" fill="#000000" fill-rule="evenodd" fill-opacity="1" /><path clip-path="url(#clip820)" d="M111.015 897.56 L99.2095 916.009 L111.015 916.009 L111.015 897.56 M109.788 893.486 L115.668 893.486 L115.668 916.009 L120.598 916.009 L120.598 919.898 L115.668 919.898 L115.668 928.046 L111.015 928.046 L111.015 919.898 L95.4132 919.898 L95.4132 915.384 L109.788 893.486 Z" fill="#000000" fill-rule="evenodd" fill-opacity="1" /><path clip-path="url(#clip820)" d="M63.2606 608.724 Q59.6495 608.724 57.8208 612.289 Q56.0152 615.831 56.0152 622.96 Q56.0152 630.067 57.8208 633.632 Q59.6495 637.173 63.2606 637.173 Q66.8948 637.173 68.7004 633.632 Q70.5291 630.067 70.5291 622.96 Q70.5291 615.831 68.7004 612.289 Q66.8948 608.724 63.2606 608.724 M63.2606 605.021 Q69.0707 605.021 72.1263 609.627 Q75.205 614.21 75.205 622.96 Q75.205 631.687 72.1263 636.294 Q69.0707 640.877 63.2606 640.877 Q57.4504 640.877 54.3717 636.294 Q51.3162 631.687 51.3162 622.96 Q51.3162 614.21 54.3717 609.627 Q57.4504 605.021 63.2606 605.021 Z" fill="#000000" fill-rule="evenodd" fill-opacity="1" /><path clip-path="url(#clip820)" d="M83.4225 634.326 L88.3067 634.326 L88.3067 640.206 L83.4225 640.206 L83.4225 634.326 Z" fill="#000000" fill-rule="evenodd" fill-opacity="1" /><path clip-path="url(#clip820)" d="M109.071 621.062 Q105.922 621.062 104.071 623.215 Q102.242 625.368 102.242 629.118 Q102.242 632.845 104.071 635.02 Q105.922 637.173 109.071 637.173 Q112.219 637.173 114.047 635.02 Q115.899 632.845 115.899 629.118 Q115.899 625.368 114.047 623.215 Q112.219 621.062 109.071 621.062 M118.353 606.409 L118.353 610.669 Q116.594 609.835 114.788 609.396 Q113.006 608.956 111.246 608.956 Q106.617 608.956 104.163 612.081 Q101.733 615.206 101.385 621.525 Q102.751 619.511 104.811 618.446 Q106.871 617.359 109.348 617.359 Q114.557 617.359 117.566 620.53 Q120.598 623.678 120.598 629.118 Q120.598 634.442 117.45 637.659 Q114.302 640.877 109.071 640.877 Q103.075 640.877 99.9039 636.294 Q96.7326 631.687 96.7326 622.96 Q96.7326 614.766 100.621 609.905 Q104.51 605.021 111.061 605.021 Q112.82 605.021 114.603 605.368 Q116.408 605.715 118.353 606.409 Z" fill="#000000" fill-rule="evenodd" fill-opacity="1" /><path clip-path="url(#clip820)" d="M63.5152 320.884 Q59.9041 320.884 58.0754 324.448 Q56.2699 327.99 56.2699 335.12 Q56.2699 342.226 58.0754 345.791 Q59.9041 349.332 63.5152 349.332 Q67.1494 349.332 68.955 345.791 Q70.7837 342.226 70.7837 335.12 Q70.7837 327.99 68.955 324.448 Q67.1494 320.884 63.5152 320.884 M63.5152 317.18 Q69.3254 317.18 72.3809 321.786 Q75.4596 326.37 75.4596 335.12 Q75.4596 343.846 72.3809 348.453 Q69.3254 353.036 63.5152 353.036 Q57.7051 353.036 54.6264 348.453 Q51.5708 343.846 51.5708 335.12 Q51.5708 326.37 54.6264 321.786 Q57.7051 317.18 63.5152 317.18 Z" fill="#000000" fill-rule="evenodd" fill-opacity="1" /><path clip-path="url(#clip820)" d="M83.6771 346.485 L88.5614 346.485 L88.5614 352.365 L83.6771 352.365 L83.6771 346.485 Z" fill="#000000" fill-rule="evenodd" fill-opacity="1" /><path clip-path="url(#clip820)" d="M108.746 335.953 Q105.413 335.953 103.492 337.735 Q101.594 339.518 101.594 342.643 Q101.594 345.768 103.492 347.55 Q105.413 349.332 108.746 349.332 Q112.08 349.332 114.001 347.55 Q115.922 345.745 115.922 342.643 Q115.922 339.518 114.001 337.735 Q112.103 335.953 108.746 335.953 M104.071 333.962 Q101.061 333.221 99.3715 331.161 Q97.7048 329.101 97.7048 326.138 Q97.7048 321.995 100.645 319.587 Q103.608 317.18 108.746 317.18 Q113.908 317.18 116.848 319.587 Q119.788 321.995 119.788 326.138 Q119.788 329.101 118.098 331.161 Q116.432 333.221 113.445 333.962 Q116.825 334.749 118.7 337.041 Q120.598 339.333 120.598 342.643 Q120.598 347.666 117.52 350.351 Q114.464 353.036 108.746 353.036 Q103.029 353.036 99.9502 350.351 Q96.8947 347.666 96.8947 342.643 Q96.8947 339.333 98.7928 337.041 Q100.691 334.749 104.071 333.962 M102.358 326.578 Q102.358 329.263 104.024 330.768 Q105.714 332.272 108.746 332.272 Q111.756 332.272 113.445 330.768 Q115.158 329.263 115.158 326.578 Q115.158 323.893 113.445 322.388 Q111.756 320.884 108.746 320.884 Q105.714 320.884 104.024 322.388 Q102.358 323.893 102.358 326.578 Z" fill="#000000" fill-rule="evenodd" fill-opacity="1" /><path clip-path="url(#clip820)" d="M54.2328 60.5889 L61.8717 60.5889 L61.8717 34.2233 L53.5616 35.89 L53.5616 31.6308 L61.8254 29.9641 L66.5013 29.9641 L66.5013 60.5889 L74.1402 60.5889 L74.1402 64.5241 L54.2328 64.5241 L54.2328 60.5889 Z" fill="#000000" fill-rule="evenodd" fill-opacity="1" /><path clip-path="url(#clip820)" d="M83.5845 58.6445 L88.4688 58.6445 L88.4688 64.5241 L83.5845 64.5241 L83.5845 58.6445 Z" fill="#000000" fill-rule="evenodd" fill-opacity="1" /><path clip-path="url(#clip820)" d="M108.654 33.0428 Q105.043 33.0428 103.214 36.6076 Q101.409 40.1492 101.409 47.2788 Q101.409 54.3853 103.214 57.9501 Q105.043 61.4917 108.654 61.4917 Q112.288 61.4917 114.094 57.9501 Q115.922 54.3853 115.922 47.2788 Q115.922 40.1492 114.094 36.6076 Q112.288 33.0428 108.654 33.0428 M108.654 29.3391 Q114.464 29.3391 117.52 33.9456 Q120.598 38.5289 120.598 47.2788 Q120.598 56.0056 117.52 60.6121 Q114.464 65.1954 108.654 65.1954 Q102.844 65.1954 99.765 60.6121 Q96.7095 56.0056 96.7095 47.2788 Q96.7095 38.5289 99.765 33.9456 Q102.844 29.3391 108.654 29.3391 Z" fill="#000000" fill-rule="evenodd" fill-opacity="1" /><polyline clip-path="url(#clip822)" style="stroke:#009af9; stroke-linecap:round; stroke-linejoin:round; stroke-width:4; stroke-opacity:1; fill:none" points="218.754,47.2441 220.44,47.3961 222.126,47.852 223.812,48.6112 225.498,49.6727 227.184,51.0352 228.87,52.6968 230.556,54.6555 232.242,56.9088 236.14,63.2284 240.038,71.0636 243.935,80.3625 247.833,91.0647 251.731,103.102 255.628,116.4 259.526,130.879 263.423,146.455 271.219,180.542 279.014,217.943 286.809,257.936 294.604,299.825 310.195,386.759 325.785,474.352 333.581,517.342 341.376,559.377 349.171,600.227 356.966,639.72 366.336,685.222 375.705,728.458 385.074,769.367 394.443,807.944 403.813,844.225 413.182,878.276 422.551,910.187 431.92,940.057 439.842,963.801 447.763,986.232 455.685,1007.42 463.607,1027.43 471.528,1046.34 479.45,1064.19 487.371,1081.07 495.293,1097.02 512.503,1128.75 529.713,1156.92 546.923,1181.97 564.133,1204.31 579.999,1222.81 595.866,1239.55 611.732,1254.72 627.598,1268.51 644.608,1281.94 661.618,1294.12 678.629,1305.2 695.639,1315.31 735.055,1335.57 774.471,1352.23 809.499,1364.67 844.528,1375.33 875.244,1383.47 905.961,1390.66 972.94,1403.71 1040.32,1414.06 1114.81,1423.15 1185.69,1430.11 1259.39,1436.03 1321.42,1440.21 1397.17,1444.54 1466.55,1447.91 1530.63,1450.6 1595.54,1453 1668.29,1455.36 1734.21,1457.24 1809.69,1459.15 1879.57,1460.72 1948.47,1462.11 2015.36,1463.32 2083.94,1464.46 2159.07,1465.58 2268.21,1467.03 2290.6,1467.3 "/>
<polyline clip-path="url(#clip822)" style="stroke:#e26f46; stroke-linecap:round; stroke-linejoin:round; stroke-width:4; stroke-opacity:1; fill:none" stroke-dasharray="2, 4" points="218.754,-7556.34 218.964,-7556.34 219.175,-7556.34 219.386,-7556.34 219.597,-7556.34 219.807,-7556.34 220.018,-7556.34 220.124,-7556.34 220.229,-7556.34 220.334,-7556.34 220.44,-7556.34 220.545,-7556.34 220.651,-7233.65 220.756,-6811.6 220.861,-6431.76 220.967,-6088.1 221.072,-5775.67 221.177,-5490.41 221.283,-5228.93 221.388,-4988.36 221.494,-4766.3 221.599,-4560.69 221.704,-4369.76 221.81,-4192.01 221.915,-4026.1 222.02,-3870.89 222.126,-3725.39 222.231,-3588.7 222.337,-3460.06 222.442,-3338.77 222.547,-3224.21 222.653,-3115.85 222.758,-3013.19 222.864,-2915.79 222.969,-2823.27 223.18,-2651.43 223.39,-2495.22 223.601,-2352.59 223.812,-2221.85 224.023,-2101.57 224.233,-1990.54 224.444,-1887.73 224.655,-1792.27 224.866,-1703.39 225.077,-1620.43 225.287,-1542.83 225.498,-1470.08 225.92,-1337.42 226.341,-1219.49 226.763,-1113.98 227.184,-1019.02 227.606,-933.102 228.027,-854.996 228.449,-783.682 228.87,-718.311 229.713,-602.654 230.556,-503.519 230.978,-459.08 231.399,-417.603 231.821,-378.802 232.242,-342.426 233.217,-266.454 234.191,-200.073 235.166,-141.575 236.14,-89.633 238.089,-1.4553 240.038,70.575 241.987,130.521 243.935,181.189 245.884,224.578 247.833,262.151 251.731,323.975 255.628,372.729 259.526,412.162 263.423,444.714 271.219,495.307 279.014,532.811 286.809,561.724 294.604,584.694 310.195,618.885 325.785,643.115 341.376,661.183 356.966,675.176 394.443,698.652 431.92,713.873 463.607,723.107 495.293,730.225 564.133,741.188 627.598,748.025 695.639,753.333 774.471,757.858 844.528,760.922 905.961,763.095 972.94,765.061 1040.32,766.715 1114.81,768.254 1185.69,769.498 1259.39,770.612 1321.42,771.435 1397.17,772.321 1466.55,773.039 1530.63,773.634 1595.54,774.181 1668.29,774.736 1734.21,775.192 1809.69,775.668 1879.57,776.071 1948.47,776.435 2015.36,776.763 2083.94,777.074 2159.07,777.39 2268.21,777.807 2290.6,777.888 "/>
<path clip-path="url(#clip820)" d="M1452.53 250.738 L2279.55 250.738 L2279.55 95.2176 L1452.53 95.2176  Z" fill="#ffffff" fill-rule="evenodd" fill-opacity="1"/>
<polyline clip-path="url(#clip820)" style="stroke:#000000; stroke-linecap:round; stroke-linejoin:round; stroke-width:4; stroke-opacity:1; fill:none" points="1452.53,250.738 2279.55,250.738 2279.55,95.2176 1452.53,95.2176 1452.53,250.738 "/>
<polyline clip-path="url(#clip820)" style="stroke:#009af9; stroke-linecap:round; stroke-linejoin:round; stroke-width:4; stroke-opacity:1; fill:none" points="1476.93,147.058 1623.34,147.058 "/>
<path clip-path="url(#clip820)" d="M1652.42 147.833 L1652.42 160.495 L1659.92 160.495 Q1663.69 160.495 1665.5 158.944 Q1667.33 157.37 1667.33 154.152 Q1667.33 150.912 1665.5 149.384 Q1663.69 147.833 1659.92 147.833 L1652.42 147.833 M1652.42 133.62 L1652.42 144.037 L1659.34 144.037 Q1662.77 144.037 1664.43 142.764 Q1666.12 141.467 1666.12 138.828 Q1666.12 136.213 1664.43 134.916 Q1662.77 133.62 1659.34 133.62 L1652.42 133.62 M1647.74 129.778 L1659.69 129.778 Q1665.04 129.778 1667.93 132 Q1670.82 134.222 1670.82 138.319 Q1670.82 141.49 1669.34 143.365 Q1667.86 145.24 1664.99 145.703 Q1668.44 146.444 1670.34 148.805 Q1672.26 151.143 1672.26 154.662 Q1672.26 159.291 1669.11 161.814 Q1665.96 164.338 1660.15 164.338 L1647.74 164.338 L1647.74 129.778 Z" fill="#000000" fill-rule="evenodd" fill-opacity="1" /><path clip-path="url(#clip820)" d="M1690.13 141.398 Q1686.7 141.398 1684.71 144.083 Q1682.72 146.745 1682.72 151.398 Q1682.72 156.051 1684.69 158.736 Q1686.68 161.398 1690.13 161.398 Q1693.53 161.398 1695.52 158.713 Q1697.51 156.027 1697.51 151.398 Q1697.51 146.791 1695.52 144.106 Q1693.53 141.398 1690.13 141.398 M1690.13 137.787 Q1695.68 137.787 1698.86 141.398 Q1702.03 145.009 1702.03 151.398 Q1702.03 157.764 1698.86 161.398 Q1695.68 165.009 1690.13 165.009 Q1684.55 165.009 1681.38 161.398 Q1678.23 157.764 1678.23 151.398 Q1678.23 145.009 1681.38 141.398 Q1684.55 137.787 1690.13 137.787 Z" fill="#000000" fill-rule="evenodd" fill-opacity="1" /><path clip-path="url(#clip820)" d="M1724.11 142.393 Q1723.39 141.977 1722.54 141.791 Q1721.7 141.583 1720.68 141.583 Q1717.07 141.583 1715.13 143.944 Q1713.21 146.282 1713.21 150.68 L1713.21 164.338 L1708.92 164.338 L1708.92 138.412 L1713.21 138.412 L1713.21 142.44 Q1714.55 140.078 1716.7 138.944 Q1718.86 137.787 1721.93 137.787 Q1722.37 137.787 1722.91 137.856 Q1723.44 137.903 1724.09 138.018 L1724.11 142.393 Z" fill="#000000" fill-rule="evenodd" fill-opacity="1" /><path clip-path="url(#clip820)" d="M1749.3 148.689 L1749.3 164.338 L1745.04 164.338 L1745.04 148.828 Q1745.04 145.148 1743.6 143.319 Q1742.17 141.49 1739.3 141.49 Q1735.85 141.49 1733.86 143.69 Q1731.86 145.889 1731.86 149.685 L1731.86 164.338 L1727.58 164.338 L1727.58 138.412 L1731.86 138.412 L1731.86 142.44 Q1733.39 140.102 1735.45 138.944 Q1737.54 137.787 1740.24 137.787 Q1744.71 137.787 1747 140.565 Q1749.3 143.319 1749.3 148.689 Z" fill="#000000" fill-rule="evenodd" fill-opacity="1" /><path clip-path="url(#clip820)" d="M1758.88 158.458 L1763.76 158.458 L1763.76 162.439 L1759.97 169.847 L1756.98 169.847 L1758.88 162.439 L1758.88 158.458 Z" fill="#000000" fill-rule="evenodd" fill-opacity="1" /><path clip-path="url(#clip820)" d="M1788.11 129.778 L1795.08 129.778 L1803.9 153.296 L1812.77 129.778 L1819.73 129.778 L1819.73 164.338 L1815.17 164.338 L1815.17 133.99 L1806.26 157.694 L1801.56 157.694 L1792.65 133.99 L1792.65 164.338 L1788.11 164.338 L1788.11 129.778 Z" fill="#000000" fill-rule="evenodd" fill-opacity="1" /><path clip-path="url(#clip820)" d="M1851.01 150.31 L1851.01 152.393 L1831.42 152.393 Q1831.7 156.791 1834.06 159.106 Q1836.45 161.398 1840.68 161.398 Q1843.14 161.398 1845.43 160.796 Q1847.74 160.194 1850.01 158.99 L1850.01 163.018 Q1847.72 163.99 1845.31 164.5 Q1842.91 165.009 1840.43 165.009 Q1834.23 165.009 1830.59 161.398 Q1826.98 157.787 1826.98 151.629 Q1826.98 145.264 1830.41 141.537 Q1833.85 137.787 1839.69 137.787 Q1844.92 137.787 1847.95 141.166 Q1851.01 144.523 1851.01 150.31 M1846.75 149.06 Q1846.7 145.565 1844.78 143.481 Q1842.88 141.398 1839.73 141.398 Q1836.17 141.398 1834.02 143.412 Q1831.89 145.426 1831.56 149.083 L1846.75 149.06 Z" fill="#000000" fill-rule="evenodd" fill-opacity="1" /><path clip-path="url(#clip820)" d="M1869.78 151.305 Q1864.62 151.305 1862.63 152.486 Q1860.64 153.666 1860.64 156.514 Q1860.64 158.782 1862.12 160.125 Q1863.62 161.444 1866.19 161.444 Q1869.73 161.444 1871.86 158.944 Q1874.02 156.421 1874.02 152.254 L1874.02 151.305 L1869.78 151.305 M1878.28 149.546 L1878.28 164.338 L1874.02 164.338 L1874.02 160.402 Q1872.56 162.763 1870.38 163.898 Q1868.21 165.009 1865.06 165.009 Q1861.08 165.009 1858.72 162.787 Q1856.38 160.541 1856.38 156.791 Q1856.38 152.416 1859.29 150.194 Q1862.23 147.972 1868.04 147.972 L1874.02 147.972 L1874.02 147.555 Q1874.02 144.615 1872.07 143.018 Q1870.15 141.398 1866.66 141.398 Q1864.43 141.398 1862.33 141.93 Q1860.22 142.463 1858.28 143.527 L1858.28 139.592 Q1860.61 138.69 1862.81 138.25 Q1865.01 137.787 1867.1 137.787 Q1872.72 137.787 1875.5 140.703 Q1878.28 143.62 1878.28 149.546 Z" fill="#000000" fill-rule="evenodd" fill-opacity="1" /><path clip-path="url(#clip820)" d="M1908.6 148.689 L1908.6 164.338 L1904.34 164.338 L1904.34 148.828 Q1904.34 145.148 1902.91 143.319 Q1901.47 141.49 1898.6 141.49 Q1895.15 141.49 1893.16 143.69 Q1891.17 145.889 1891.17 149.685 L1891.17 164.338 L1886.89 164.338 L1886.89 138.412 L1891.17 138.412 L1891.17 142.44 Q1892.7 140.102 1894.76 138.944 Q1896.84 137.787 1899.55 137.787 Q1904.02 137.787 1906.31 140.565 Q1908.6 143.319 1908.6 148.689 Z" fill="#000000" fill-rule="evenodd" fill-opacity="1" /><polyline clip-path="url(#clip820)" style="stroke:#e26f46; stroke-linecap:round; stroke-linejoin:round; stroke-width:4; stroke-opacity:1; fill:none" stroke-dasharray="2, 4" points="1476.93,198.898 1623.34,198.898 "/>
<path clip-path="url(#clip820)" d="M1647.74 181.618 L1669.6 181.618 L1669.6 185.553 L1652.42 185.553 L1652.42 195.784 L1668.88 195.784 L1668.88 199.719 L1652.42 199.719 L1652.42 212.242 L1670.01 212.242 L1670.01 216.178 L1647.74 216.178 L1647.74 181.618 Z" fill="#000000" fill-rule="evenodd" fill-opacity="1" /><path clip-path="url(#clip820)" d="M1699.06 190.252 L1689.69 202.867 L1699.55 216.178 L1694.53 216.178 L1686.98 205.992 L1679.43 216.178 L1674.41 216.178 L1684.48 202.613 L1675.27 190.252 L1680.29 190.252 L1687.17 199.488 L1694.04 190.252 L1699.06 190.252 Z" fill="#000000" fill-rule="evenodd" fill-opacity="1" /><path clip-path="url(#clip820)" d="M1717.35 203.145 Q1712.19 203.145 1710.2 204.326 Q1708.21 205.506 1708.21 208.354 Q1708.21 210.622 1709.69 211.965 Q1711.19 213.284 1713.76 213.284 Q1717.3 213.284 1719.43 210.784 Q1721.59 208.261 1721.59 204.094 L1721.59 203.145 L1717.35 203.145 M1725.85 201.386 L1725.85 216.178 L1721.59 216.178 L1721.59 212.242 Q1720.13 214.603 1717.95 215.738 Q1715.78 216.849 1712.63 216.849 Q1708.65 216.849 1706.29 214.627 Q1703.95 212.381 1703.95 208.631 Q1703.95 204.256 1706.86 202.034 Q1709.8 199.812 1715.61 199.812 L1721.59 199.812 L1721.59 199.395 Q1721.59 196.455 1719.64 194.858 Q1717.72 193.238 1714.23 193.238 Q1712 193.238 1709.9 193.77 Q1707.79 194.303 1705.85 195.367 L1705.85 191.432 Q1708.18 190.53 1710.38 190.09 Q1712.58 189.627 1714.67 189.627 Q1720.29 189.627 1723.07 192.543 Q1725.85 195.46 1725.85 201.386 Z" fill="#000000" fill-rule="evenodd" fill-opacity="1" /><path clip-path="url(#clip820)" d="M1753.28 191.247 L1753.28 195.229 Q1751.47 194.233 1749.64 193.747 Q1747.84 193.238 1745.98 193.238 Q1741.84 193.238 1739.55 195.877 Q1737.26 198.492 1737.26 203.238 Q1737.26 207.983 1739.55 210.622 Q1741.84 213.238 1745.98 213.238 Q1747.84 213.238 1749.64 212.752 Q1751.47 212.242 1753.28 211.247 L1753.28 215.182 Q1751.49 216.016 1749.57 216.432 Q1747.67 216.849 1745.52 216.849 Q1739.67 216.849 1736.22 213.168 Q1732.77 209.488 1732.77 203.238 Q1732.77 196.895 1736.24 193.261 Q1739.73 189.627 1745.8 189.627 Q1747.77 189.627 1749.64 190.043 Q1751.52 190.437 1753.28 191.247 Z" fill="#000000" fill-rule="evenodd" fill-opacity="1" /><path clip-path="url(#clip820)" d="M1764.9 182.891 L1764.9 190.252 L1773.67 190.252 L1773.67 193.562 L1764.9 193.562 L1764.9 207.636 Q1764.9 210.807 1765.75 211.71 Q1766.63 212.613 1769.3 212.613 L1773.67 212.613 L1773.67 216.178 L1769.3 216.178 Q1764.36 216.178 1762.49 214.349 Q1760.61 212.497 1760.61 207.636 L1760.61 193.562 L1757.49 193.562 L1757.49 190.252 L1760.61 190.252 L1760.61 182.891 L1764.9 182.891 Z" fill="#000000" fill-rule="evenodd" fill-opacity="1" /><path clip-path="url(#clip820)" d="M1794.53 181.618 L1801.49 181.618 L1810.31 205.136 L1819.18 181.618 L1826.15 181.618 L1826.15 216.178 L1821.59 216.178 L1821.59 185.83 L1812.67 209.534 L1807.98 209.534 L1799.06 185.83 L1799.06 216.178 L1794.53 216.178 L1794.53 181.618 Z" fill="#000000" fill-rule="evenodd" fill-opacity="1" /><path clip-path="url(#clip820)" d="M1857.42 202.15 L1857.42 204.233 L1837.84 204.233 Q1838.11 208.631 1840.48 210.946 Q1842.86 213.238 1847.1 213.238 Q1849.55 213.238 1851.84 212.636 Q1854.16 212.034 1856.42 210.83 L1856.42 214.858 Q1854.13 215.83 1851.73 216.34 Q1849.32 216.849 1846.84 216.849 Q1840.64 216.849 1837 213.238 Q1833.39 209.627 1833.39 203.469 Q1833.39 197.104 1836.82 193.377 Q1840.27 189.627 1846.1 189.627 Q1851.33 189.627 1854.36 193.006 Q1857.42 196.363 1857.42 202.15 M1853.16 200.9 Q1853.11 197.405 1851.19 195.321 Q1849.29 193.238 1846.15 193.238 Q1842.58 193.238 1840.43 195.252 Q1838.3 197.266 1837.98 200.923 L1853.16 200.9 Z" fill="#000000" fill-rule="evenodd" fill-opacity="1" /><path clip-path="url(#clip820)" d="M1876.19 203.145 Q1871.03 203.145 1869.04 204.326 Q1867.05 205.506 1867.05 208.354 Q1867.05 210.622 1868.53 211.965 Q1870.04 213.284 1872.6 213.284 Q1876.15 213.284 1878.28 210.784 Q1880.43 208.261 1880.43 204.094 L1880.43 203.145 L1876.19 203.145 M1884.69 201.386 L1884.69 216.178 L1880.43 216.178 L1880.43 212.242 Q1878.97 214.603 1876.79 215.738 Q1874.62 216.849 1871.47 216.849 Q1867.49 216.849 1865.13 214.627 Q1862.79 212.381 1862.79 208.631 Q1862.79 204.256 1865.71 202.034 Q1868.65 199.812 1874.46 199.812 L1880.43 199.812 L1880.43 199.395 Q1880.43 196.455 1878.48 194.858 Q1876.56 193.238 1873.07 193.238 Q1870.85 193.238 1868.74 193.77 Q1866.63 194.303 1864.69 195.367 L1864.69 191.432 Q1867.03 190.53 1869.23 190.09 Q1871.42 189.627 1873.51 189.627 Q1879.13 189.627 1881.91 192.543 Q1884.69 195.46 1884.69 201.386 Z" fill="#000000" fill-rule="evenodd" fill-opacity="1" /><path clip-path="url(#clip820)" d="M1915.01 200.529 L1915.01 216.178 L1910.75 216.178 L1910.75 200.668 Q1910.75 196.988 1909.32 195.159 Q1907.88 193.33 1905.01 193.33 Q1901.56 193.33 1899.57 195.53 Q1897.58 197.729 1897.58 201.525 L1897.58 216.178 L1893.3 216.178 L1893.3 190.252 L1897.58 190.252 L1897.58 194.28 Q1899.11 191.942 1901.17 190.784 Q1903.25 189.627 1905.96 189.627 Q1910.43 189.627 1912.72 192.405 Q1915.01 195.159 1915.01 200.529 Z" fill="#000000" fill-rule="evenodd" fill-opacity="1" /><path clip-path="url(#clip820)" d="M1938.14 205.946 L1938.14 190.252 L1942.4 190.252 L1942.4 205.784 Q1942.4 209.465 1943.83 211.316 Q1945.27 213.145 1948.14 213.145 Q1951.59 213.145 1953.58 210.946 Q1955.59 208.747 1955.59 204.951 L1955.59 190.252 L1959.85 190.252 L1959.85 216.178 L1955.59 216.178 L1955.59 212.196 Q1954.04 214.557 1951.98 215.715 Q1949.94 216.849 1947.23 216.849 Q1942.77 216.849 1940.45 214.071 Q1938.14 211.293 1938.14 205.946 M1948.85 189.627 L1948.85 189.627 Z" fill="#000000" fill-rule="evenodd" fill-opacity="1" /><path clip-path="url(#clip820)" d="M1985.15 191.016 L1985.15 195.043 Q1983.34 194.117 1981.4 193.655 Q1979.46 193.192 1977.37 193.192 Q1974.2 193.192 1972.6 194.164 Q1971.03 195.136 1971.03 197.08 Q1971.03 198.562 1972.16 199.418 Q1973.3 200.252 1976.72 201.016 L1978.18 201.34 Q1982.72 202.312 1984.62 204.094 Q1986.54 205.854 1986.54 209.025 Q1986.54 212.636 1983.67 214.742 Q1980.82 216.849 1975.82 216.849 Q1973.74 216.849 1971.47 216.432 Q1969.22 216.039 1966.72 215.228 L1966.72 210.83 Q1969.09 212.057 1971.38 212.682 Q1973.67 213.284 1975.91 213.284 Q1978.92 213.284 1980.54 212.266 Q1982.16 211.224 1982.16 209.349 Q1982.16 207.613 1980.98 206.687 Q1979.83 205.761 1975.87 204.904 L1974.39 204.557 Q1970.43 203.724 1968.67 202.011 Q1966.91 200.275 1966.91 197.266 Q1966.91 193.608 1969.5 191.618 Q1972.09 189.627 1976.86 189.627 Q1979.22 189.627 1981.31 189.974 Q1983.39 190.321 1985.15 191.016 Z" fill="#000000" fill-rule="evenodd" fill-opacity="1" /><path clip-path="url(#clip820)" d="M1993.32 190.252 L1997.58 190.252 L1997.58 216.178 L1993.32 216.178 L1993.32 190.252 M1993.32 180.159 L1997.58 180.159 L1997.58 185.553 L1993.32 185.553 L1993.32 180.159 Z" fill="#000000" fill-rule="evenodd" fill-opacity="1" /><path clip-path="url(#clip820)" d="M2028.04 200.529 L2028.04 216.178 L2023.78 216.178 L2023.78 200.668 Q2023.78 196.988 2022.35 195.159 Q2020.91 193.33 2018.04 193.33 Q2014.59 193.33 2012.6 195.53 Q2010.61 197.729 2010.61 201.525 L2010.61 216.178 L2006.33 216.178 L2006.33 190.252 L2010.61 190.252 L2010.61 194.28 Q2012.14 191.942 2014.2 190.784 Q2016.28 189.627 2018.99 189.627 Q2023.46 189.627 2025.75 192.405 Q2028.04 195.159 2028.04 200.529 Z" fill="#000000" fill-rule="evenodd" fill-opacity="1" /><path clip-path="url(#clip820)" d="M2053.6 202.914 Q2053.6 198.284 2051.68 195.738 Q2049.78 193.192 2046.33 193.192 Q2042.9 193.192 2040.98 195.738 Q2039.09 198.284 2039.09 202.914 Q2039.09 207.52 2040.98 210.066 Q2042.9 212.613 2046.33 212.613 Q2049.78 212.613 2051.68 210.066 Q2053.6 207.52 2053.6 202.914 M2057.86 212.96 Q2057.86 219.58 2054.92 222.798 Q2051.98 226.039 2045.91 226.039 Q2043.67 226.039 2041.68 225.691 Q2039.69 225.367 2037.81 224.673 L2037.81 220.529 Q2039.69 221.548 2041.52 222.034 Q2043.34 222.52 2045.24 222.52 Q2049.43 222.52 2051.52 220.321 Q2053.6 218.145 2053.6 213.724 L2053.6 211.617 Q2052.28 213.909 2050.22 215.043 Q2048.16 216.178 2045.29 216.178 Q2040.52 216.178 2037.6 212.543 Q2034.69 208.909 2034.69 202.914 Q2034.69 196.895 2037.6 193.261 Q2040.52 189.627 2045.29 189.627 Q2048.16 189.627 2050.22 190.761 Q2052.28 191.895 2053.6 194.187 L2053.6 190.252 L2057.86 190.252 L2057.86 212.96 Z" fill="#000000" fill-rule="evenodd" fill-opacity="1" /><path clip-path="url(#clip820)" d="M2098.76 194.187 L2098.76 180.159 L2103.02 180.159 L2103.02 216.178 L2098.76 216.178 L2098.76 212.289 Q2097.42 214.603 2095.36 215.738 Q2093.32 216.849 2090.45 216.849 Q2085.75 216.849 2082.79 213.099 Q2079.85 209.349 2079.85 203.238 Q2079.85 197.127 2082.79 193.377 Q2085.75 189.627 2090.45 189.627 Q2093.32 189.627 2095.36 190.761 Q2097.42 191.872 2098.76 194.187 M2084.25 203.238 Q2084.25 207.937 2086.17 210.622 Q2088.11 213.284 2091.49 213.284 Q2094.87 213.284 2096.82 210.622 Q2098.76 207.937 2098.76 203.238 Q2098.76 198.539 2096.82 195.877 Q2094.87 193.192 2091.49 193.192 Q2088.11 193.192 2086.17 195.877 Q2084.25 198.539 2084.25 203.238 Z" fill="#000000" fill-rule="evenodd" fill-opacity="1" /><path clip-path="url(#clip820)" d="M2111.79 190.252 L2116.05 190.252 L2116.05 216.178 L2111.79 216.178 L2111.79 190.252 M2111.79 180.159 L2116.05 180.159 L2116.05 185.553 L2111.79 185.553 L2111.79 180.159 Z" fill="#000000" fill-rule="evenodd" fill-opacity="1" /><path clip-path="url(#clip820)" d="M2136.75 203.145 Q2131.58 203.145 2129.59 204.326 Q2127.6 205.506 2127.6 208.354 Q2127.6 210.622 2129.08 211.965 Q2130.59 213.284 2133.16 213.284 Q2136.7 213.284 2138.83 210.784 Q2140.98 208.261 2140.98 204.094 L2140.98 203.145 L2136.75 203.145 M2145.24 201.386 L2145.24 216.178 L2140.98 216.178 L2140.98 212.242 Q2139.52 214.603 2137.35 215.738 Q2135.17 216.849 2132.02 216.849 Q2128.04 216.849 2125.68 214.627 Q2123.34 212.381 2123.34 208.631 Q2123.34 204.256 2126.26 202.034 Q2129.2 199.812 2135.01 199.812 L2140.98 199.812 L2140.98 199.395 Q2140.98 196.455 2139.04 194.858 Q2137.12 193.238 2133.62 193.238 Q2131.4 193.238 2129.29 193.77 Q2127.19 194.303 2125.24 195.367 L2125.24 191.432 Q2127.58 190.53 2129.78 190.09 Q2131.98 189.627 2134.06 189.627 Q2139.69 189.627 2142.46 192.543 Q2145.24 195.46 2145.24 201.386 Z" fill="#000000" fill-rule="evenodd" fill-opacity="1" /><path clip-path="url(#clip820)" d="M2171.08 202.914 Q2171.08 198.284 2169.15 195.738 Q2167.26 193.192 2163.81 193.192 Q2160.38 193.192 2158.46 195.738 Q2156.56 198.284 2156.56 202.914 Q2156.56 207.52 2158.46 210.066 Q2160.38 212.613 2163.81 212.613 Q2167.26 212.613 2169.15 210.066 Q2171.08 207.52 2171.08 202.914 M2175.33 212.96 Q2175.33 219.58 2172.39 222.798 Q2169.45 226.039 2163.39 226.039 Q2161.14 226.039 2159.15 225.691 Q2157.16 225.367 2155.29 224.673 L2155.29 220.529 Q2157.16 221.548 2158.99 222.034 Q2160.82 222.52 2162.72 222.52 Q2166.91 222.52 2168.99 220.321 Q2171.08 218.145 2171.08 213.724 L2171.08 211.617 Q2169.76 213.909 2167.7 215.043 Q2165.64 216.178 2162.77 216.178 Q2158 216.178 2155.08 212.543 Q2152.16 208.909 2152.16 202.914 Q2152.16 196.895 2155.08 193.261 Q2158 189.627 2162.77 189.627 Q2165.64 189.627 2167.7 190.761 Q2169.76 191.895 2171.08 194.187 L2171.08 190.252 L2175.33 190.252 L2175.33 212.96 Z" fill="#000000" fill-rule="evenodd" fill-opacity="1" /><path clip-path="url(#clip820)" d="M2205.66 200.529 L2205.66 216.178 L2201.4 216.178 L2201.4 200.668 Q2201.4 196.988 2199.96 195.159 Q2198.53 193.33 2195.66 193.33 Q2192.21 193.33 2190.22 195.53 Q2188.23 197.729 2188.23 201.525 L2188.23 216.178 L2183.95 216.178 L2183.95 190.252 L2188.23 190.252 L2188.23 194.28 Q2189.76 191.942 2191.82 190.784 Q2193.9 189.627 2196.61 189.627 Q2201.08 189.627 2203.37 192.405 Q2205.66 195.159 2205.66 200.529 Z" fill="#000000" fill-rule="evenodd" fill-opacity="1" /><path clip-path="url(#clip820)" d="M2230.31 210.298 L2235.2 210.298 L2235.2 216.178 L2230.31 216.178 L2230.31 210.298 M2230.31 191.664 L2235.2 191.664 L2235.2 197.543 L2230.31 197.543 L2230.31 191.664 Z" fill="#000000" fill-rule="evenodd" fill-opacity="1" /><path clip-path="url(#clip820)" d="M2244.52 180.206 L2248.23 180.206 Q2251.7 185.668 2253.41 190.9 Q2255.15 196.131 2255.15 201.293 Q2255.15 206.479 2253.41 211.733 Q2251.7 216.988 2248.23 222.428 L2244.52 222.428 Q2247.6 217.127 2249.11 211.895 Q2250.64 206.641 2250.64 201.293 Q2250.64 195.946 2249.11 190.738 Q2247.6 185.53 2244.52 180.206 Z" fill="#000000" fill-rule="evenodd" fill-opacity="1" /></svg>
