<?xml version="1.0" encoding="utf-8"?>
<svg xmlns="http://www.w3.org/2000/svg" xmlns:xlink="http://www.w3.org/1999/xlink" width="600" height="400" viewBox="0 0 2400 1600">
<defs>
  <clipPath id="clip130">
    <rect x="0" y="0" width="2400" height="1600"/>
  </clipPath>
</defs>
<path clip-path="url(#clip130)" d="M0 1600 L2400 1600 L2400 0 L0 0  Z" fill="#ffffff" fill-rule="evenodd" fill-opacity="1"/>
<defs>
  <clipPath id="clip131">
    <rect x="480" y="0" width="1681" height="1600"/>
  </clipPath>
</defs>
<defs>
  <clipPath id="clip132">
    <rect x="188" y="47" width="2165" height="1377"/>
  </clipPath>
</defs>
<path clip-path="url(#clip130)" d="M292.261 1423.18 L2352.76 1423.18 L2352.76 47.2441 L292.261 47.2441  Z" fill="#ffffff" fill-rule="evenodd" fill-opacity="1"/>
<defs>
  <clipPath id="clip133">
    <rect x="292" y="47" width="2061" height="1377"/>
  </clipPath>
</defs>
<polyline clip-path="url(#clip133)" style="stroke:#000000; stroke-linecap:round; stroke-linejoin:round; stroke-width:2; stroke-opacity:0.1; fill:none" points="566.561,1423.18 566.561,47.2441 "/>
<polyline clip-path="url(#clip133)" style="stroke:#000000; stroke-linecap:round; stroke-linejoin:round; stroke-width:2; stroke-opacity:0.1; fill:none" points="998.531,1423.18 998.531,47.2441 "/>
<polyline clip-path="url(#clip133)" style="stroke:#000000; stroke-linecap:round; stroke-linejoin:round; stroke-width:2; stroke-opacity:0.1; fill:none" points="1430.5,1423.18 1430.5,47.2441 "/>
<polyline clip-path="url(#clip133)" style="stroke:#000000; stroke-linecap:round; stroke-linejoin:round; stroke-width:2; stroke-opacity:0.1; fill:none" points="1862.47,1423.18 1862.47,47.2441 "/>
<polyline clip-path="url(#clip133)" style="stroke:#000000; stroke-linecap:round; stroke-linejoin:round; stroke-width:2; stroke-opacity:0.1; fill:none" points="2294.44,1423.18 2294.44,47.2441 "/>
<polyline clip-path="url(#clip130)" style="stroke:#000000; stroke-linecap:round; stroke-linejoin:round; stroke-width:4; stroke-opacity:1; fill:none" points="292.261,1423.18 2352.76,1423.18 "/>
<polyline clip-path="url(#clip130)" style="stroke:#000000; stroke-linecap:round; stroke-linejoin:round; stroke-width:4; stroke-opacity:1; fill:none" points="566.561,1423.18 566.561,1404.28 "/>
<polyline clip-path="url(#clip130)" style="stroke:#000000; stroke-linecap:round; stroke-linejoin:round; stroke-width:4; stroke-opacity:1; fill:none" points="998.531,1423.18 998.531,1404.28 "/>
<polyline clip-path="url(#clip130)" style="stroke:#000000; stroke-linecap:round; stroke-linejoin:round; stroke-width:4; stroke-opacity:1; fill:none" points="1430.5,1423.18 1430.5,1404.28 "/>
<polyline clip-path="url(#clip130)" style="stroke:#000000; stroke-linecap:round; stroke-linejoin:round; stroke-width:4; stroke-opacity:1; fill:none" points="1862.47,1423.18 1862.47,1404.28 "/>
<polyline clip-path="url(#clip130)" style="stroke:#000000; stroke-linecap:round; stroke-linejoin:round; stroke-width:4; stroke-opacity:1; fill:none" points="2294.44,1423.18 2294.44,1404.28 "/>
<path clip-path="url(#clip130)" d="M544.744 1454.1 Q541.133 1454.1 539.305 1457.66 Q537.499 1461.2 537.499 1468.33 Q537.499 1475.44 539.305 1479.01 Q541.133 1482.55 544.744 1482.55 Q548.379 1482.55 550.184 1479.01 Q552.013 1475.44 552.013 1468.33 Q552.013 1461.2 550.184 1457.66 Q548.379 1454.1 544.744 1454.1 M544.744 1450.39 Q550.555 1450.39 553.61 1455 Q556.689 1459.58 556.689 1468.33 Q556.689 1477.06 553.61 1481.67 Q550.555 1486.25 544.744 1486.25 Q538.934 1486.25 535.856 1481.67 Q532.8 1477.06 532.8 1468.33 Q532.8 1459.58 535.856 1455 Q538.934 1450.39 544.744 1450.39 Z" fill="#000000" fill-rule="evenodd" fill-opacity="1" /><path clip-path="url(#clip130)" d="M564.906 1479.7 L569.791 1479.7 L569.791 1485.58 L564.906 1485.58 L564.906 1479.7 Z" fill="#000000" fill-rule="evenodd" fill-opacity="1" /><path clip-path="url(#clip130)" d="M584.004 1481.64 L600.323 1481.64 L600.323 1485.58 L578.379 1485.58 L578.379 1481.64 Q581.041 1478.89 585.624 1474.26 Q590.23 1469.61 591.411 1468.27 Q593.656 1465.74 594.536 1464.01 Q595.439 1462.25 595.439 1460.56 Q595.439 1457.8 593.494 1456.07 Q591.573 1454.33 588.471 1454.33 Q586.272 1454.33 583.818 1455.09 Q581.388 1455.86 578.61 1457.41 L578.61 1452.69 Q581.434 1451.55 583.888 1450.97 Q586.341 1450.39 588.378 1450.39 Q593.749 1450.39 596.943 1453.08 Q600.138 1455.77 600.138 1460.26 Q600.138 1462.39 599.327 1464.31 Q598.54 1466.2 596.434 1468.8 Q595.855 1469.47 592.753 1472.69 Q589.652 1475.88 584.004 1481.64 Z" fill="#000000" fill-rule="evenodd" fill-opacity="1" /><path clip-path="url(#clip130)" d="M975.672 1454.1 Q972.061 1454.1 970.233 1457.66 Q968.427 1461.2 968.427 1468.33 Q968.427 1475.44 970.233 1479.01 Q972.061 1482.55 975.672 1482.55 Q979.307 1482.55 981.112 1479.01 Q982.941 1475.44 982.941 1468.33 Q982.941 1461.2 981.112 1457.66 Q979.307 1454.1 975.672 1454.1 M975.672 1450.39 Q981.483 1450.39 984.538 1455 Q987.617 1459.58 987.617 1468.33 Q987.617 1477.06 984.538 1481.67 Q981.483 1486.25 975.672 1486.25 Q969.862 1486.25 966.784 1481.67 Q963.728 1477.06 963.728 1468.33 Q963.728 1459.58 966.784 1455 Q969.862 1450.39 975.672 1450.39 Z" fill="#000000" fill-rule="evenodd" fill-opacity="1" /><path clip-path="url(#clip130)" d="M995.834 1479.7 L1000.72 1479.7 L1000.72 1485.58 L995.834 1485.58 L995.834 1479.7 Z" fill="#000000" fill-rule="evenodd" fill-opacity="1" /><path clip-path="url(#clip130)" d="M1023.75 1455.09 L1011.95 1473.54 L1023.75 1473.54 L1023.75 1455.09 M1022.52 1451.02 L1028.4 1451.02 L1028.4 1473.54 L1033.33 1473.54 L1033.33 1477.43 L1028.4 1477.43 L1028.4 1485.58 L1023.75 1485.58 L1023.75 1477.43 L1008.15 1477.43 L1008.15 1472.92 L1022.52 1451.02 Z" fill="#000000" fill-rule="evenodd" fill-opacity="1" /><path clip-path="url(#clip130)" d="M1407.8 1454.1 Q1404.19 1454.1 1402.36 1457.66 Q1400.56 1461.2 1400.56 1468.33 Q1400.56 1475.44 1402.36 1479.01 Q1404.19 1482.55 1407.8 1482.55 Q1411.44 1482.55 1413.24 1479.01 Q1415.07 1475.44 1415.07 1468.33 Q1415.07 1461.2 1413.24 1457.66 Q1411.44 1454.1 1407.8 1454.1 M1407.8 1450.39 Q1413.61 1450.39 1416.67 1455 Q1419.75 1459.58 1419.75 1468.33 Q1419.75 1477.06 1416.67 1481.67 Q1413.61 1486.25 1407.8 1486.25 Q1401.99 1486.25 1398.92 1481.67 Q1395.86 1477.06 1395.86 1468.33 Q1395.86 1459.58 1398.92 1455 Q1401.99 1450.39 1407.8 1450.39 Z" fill="#000000" fill-rule="evenodd" fill-opacity="1" /><path clip-path="url(#clip130)" d="M1427.97 1479.7 L1432.85 1479.7 L1432.85 1485.58 L1427.97 1485.58 L1427.97 1479.7 Z" fill="#000000" fill-rule="evenodd" fill-opacity="1" /><path clip-path="url(#clip130)" d="M1453.61 1466.44 Q1450.47 1466.44 1448.61 1468.59 Q1446.79 1470.74 1446.79 1474.49 Q1446.79 1478.22 1448.61 1480.39 Q1450.47 1482.55 1453.61 1482.55 Q1456.76 1482.55 1458.59 1480.39 Q1460.44 1478.22 1460.44 1474.49 Q1460.44 1470.74 1458.59 1468.59 Q1456.76 1466.44 1453.61 1466.44 M1462.9 1451.78 L1462.9 1456.04 Q1461.14 1455.21 1459.33 1454.77 Q1457.55 1454.33 1455.79 1454.33 Q1451.16 1454.33 1448.71 1457.45 Q1446.28 1460.58 1445.93 1466.9 Q1447.29 1464.89 1449.35 1463.82 Q1451.41 1462.73 1453.89 1462.73 Q1459.1 1462.73 1462.11 1465.9 Q1465.14 1469.05 1465.14 1474.49 Q1465.14 1479.82 1461.99 1483.03 Q1458.85 1486.25 1453.61 1486.25 Q1447.62 1486.25 1444.45 1481.67 Q1441.28 1477.06 1441.28 1468.33 Q1441.28 1460.14 1445.17 1455.28 Q1449.05 1450.39 1455.6 1450.39 Q1457.36 1450.39 1459.15 1450.74 Q1460.95 1451.09 1462.9 1451.78 Z" fill="#000000" fill-rule="evenodd" fill-opacity="1" /><path clip-path="url(#clip130)" d="M1839.9 1454.1 Q1836.29 1454.1 1834.46 1457.66 Q1832.66 1461.2 1832.66 1468.33 Q1832.66 1475.44 1834.46 1479.01 Q1836.29 1482.55 1839.9 1482.55 Q1843.54 1482.55 1845.34 1479.01 Q1847.17 1475.44 1847.17 1468.33 Q1847.17 1461.2 1845.34 1457.66 Q1843.54 1454.1 1839.9 1454.1 M1839.9 1450.39 Q1845.71 1450.39 1848.77 1455 Q1851.85 1459.58 1851.85 1468.33 Q1851.85 1477.06 1848.77 1481.67 Q1845.71 1486.25 1839.9 1486.25 Q1834.09 1486.25 1831.01 1481.67 Q1827.96 1477.06 1827.96 1468.33 Q1827.96 1459.58 1831.01 1455 Q1834.09 1450.39 1839.9 1450.39 Z" fill="#000000" fill-rule="evenodd" fill-opacity="1" /><path clip-path="url(#clip130)" d="M1860.06 1479.7 L1864.95 1479.7 L1864.95 1485.58 L1860.06 1485.58 L1860.06 1479.7 Z" fill="#000000" fill-rule="evenodd" fill-opacity="1" /><path clip-path="url(#clip130)" d="M1885.13 1469.17 Q1881.8 1469.17 1879.88 1470.95 Q1877.98 1472.73 1877.98 1475.86 Q1877.98 1478.98 1879.88 1480.77 Q1881.8 1482.55 1885.13 1482.55 Q1888.47 1482.55 1890.39 1480.77 Q1892.31 1478.96 1892.31 1475.86 Q1892.31 1472.73 1890.39 1470.95 Q1888.49 1469.17 1885.13 1469.17 M1880.46 1467.18 Q1877.45 1466.44 1875.76 1464.38 Q1874.09 1462.32 1874.09 1459.35 Q1874.09 1455.21 1877.03 1452.8 Q1879.99 1450.39 1885.13 1450.39 Q1890.29 1450.39 1893.23 1452.8 Q1896.17 1455.21 1896.17 1459.35 Q1896.17 1462.32 1894.48 1464.38 Q1892.82 1466.44 1889.83 1467.18 Q1893.21 1467.96 1895.09 1470.26 Q1896.98 1472.55 1896.98 1475.86 Q1896.98 1480.88 1893.91 1483.57 Q1890.85 1486.25 1885.13 1486.25 Q1879.41 1486.25 1876.34 1483.57 Q1873.28 1480.88 1873.28 1475.86 Q1873.28 1472.55 1875.18 1470.26 Q1877.08 1467.96 1880.46 1467.18 M1878.74 1459.79 Q1878.74 1462.48 1880.41 1463.98 Q1882.1 1465.49 1885.13 1465.49 Q1888.14 1465.49 1889.83 1463.98 Q1891.54 1462.48 1891.54 1459.79 Q1891.54 1457.11 1889.83 1455.6 Q1888.14 1454.1 1885.13 1454.1 Q1882.1 1454.1 1880.41 1455.6 Q1878.74 1457.11 1878.74 1459.79 Z" fill="#000000" fill-rule="evenodd" fill-opacity="1" /><path clip-path="url(#clip130)" d="M2261.59 1481.64 L2269.23 1481.64 L2269.23 1455.28 L2260.92 1456.95 L2260.92 1452.69 L2269.19 1451.02 L2273.86 1451.02 L2273.86 1481.64 L2281.5 1481.64 L2281.5 1485.58 L2261.59 1485.58 L2261.59 1481.64 Z" fill="#000000" fill-rule="evenodd" fill-opacity="1" /><path clip-path="url(#clip130)" d="M2290.94 1479.7 L2295.83 1479.7 L2295.83 1485.58 L2290.94 1485.58 L2290.94 1479.7 Z" fill="#000000" fill-rule="evenodd" fill-opacity="1" /><path clip-path="url(#clip130)" d="M2316.01 1454.1 Q2312.4 1454.1 2310.57 1457.66 Q2308.77 1461.2 2308.77 1468.33 Q2308.77 1475.44 2310.57 1479.01 Q2312.4 1482.55 2316.01 1482.55 Q2319.65 1482.55 2321.45 1479.01 Q2323.28 1475.44 2323.28 1468.33 Q2323.28 1461.2 2321.45 1457.66 Q2319.65 1454.1 2316.01 1454.1 M2316.01 1450.39 Q2321.82 1450.39 2324.88 1455 Q2327.96 1459.58 2327.96 1468.33 Q2327.96 1477.06 2324.88 1481.67 Q2321.82 1486.25 2316.01 1486.25 Q2310.2 1486.25 2307.13 1481.67 Q2304.07 1477.06 2304.07 1468.33 Q2304.07 1459.58 2307.13 1455 Q2310.2 1450.39 2316.01 1450.39 Z" fill="#000000" fill-rule="evenodd" fill-opacity="1" /><path clip-path="url(#clip130)" d="M1327.71 1551.46 L1326.31 1544.11 Q1324.88 1536.57 1319.21 1536.57 Q1314.95 1536.57 1313.01 1540.07 Q1310.56 1544.46 1310.56 1550.25 Q1310.56 1557.25 1312.94 1560.6 Q1315.36 1564 1319.21 1564 Q1323.48 1564 1325.77 1557.22 L1327.71 1551.46 M1330.99 1541.72 L1334.14 1532.4 L1339.36 1532.4 L1332.84 1551.72 L1334.11 1558.69 Q1334.4 1560.25 1335.51 1561.55 Q1336.82 1563.08 1337.83 1563.08 L1340.63 1563.08 L1340.63 1568.04 L1337.13 1568.04 Q1334.14 1568.04 1331.47 1565.37 Q1330.16 1564.03 1329.62 1561.23 Q1328.16 1564.77 1325.17 1567.53 Q1323.77 1568.84 1319.21 1568.84 Q1311.73 1568.84 1308.11 1564 Q1304.38 1559 1304.38 1550.25 Q1304.38 1540.89 1308.42 1536.5 Q1312.91 1531.6 1319.21 1531.6 Q1329.11 1531.6 1330.99 1541.72 Z" fill="#000000" fill-rule="evenodd" fill-opacity="1" /><polyline clip-path="url(#clip133)" style="stroke:#000000; stroke-linecap:round; stroke-linejoin:round; stroke-width:2; stroke-opacity:0.1; fill:none" points="292.261,1138.99 2352.76,1138.99 "/>
<polyline clip-path="url(#clip133)" style="stroke:#000000; stroke-linecap:round; stroke-linejoin:round; stroke-width:2; stroke-opacity:0.1; fill:none" points="292.261,852.3 2352.76,852.3 "/>
<polyline clip-path="url(#clip133)" style="stroke:#000000; stroke-linecap:round; stroke-linejoin:round; stroke-width:2; stroke-opacity:0.1; fill:none" points="292.261,565.606 2352.76,565.606 "/>
<polyline clip-path="url(#clip133)" style="stroke:#000000; stroke-linecap:round; stroke-linejoin:round; stroke-width:2; stroke-opacity:0.1; fill:none" points="292.261,278.911 2352.76,278.911 "/>
<polyline clip-path="url(#clip130)" style="stroke:#000000; stroke-linecap:round; stroke-linejoin:round; stroke-width:4; stroke-opacity:1; fill:none" points="292.261,1423.18 292.261,47.2441 "/>
<polyline clip-path="url(#clip130)" style="stroke:#000000; stroke-linecap:round; stroke-linejoin:round; stroke-width:4; stroke-opacity:1; fill:none" points="292.261,1138.99 311.158,1138.99 "/>
<polyline clip-path="url(#clip130)" style="stroke:#000000; stroke-linecap:round; stroke-linejoin:round; stroke-width:4; stroke-opacity:1; fill:none" points="292.261,852.3 311.158,852.3 "/>
<polyline clip-path="url(#clip130)" style="stroke:#000000; stroke-linecap:round; stroke-linejoin:round; stroke-width:4; stroke-opacity:1; fill:none" points="292.261,565.606 311.158,565.606 "/>
<polyline clip-path="url(#clip130)" style="stroke:#000000; stroke-linecap:round; stroke-linejoin:round; stroke-width:4; stroke-opacity:1; fill:none" points="292.261,278.911 311.158,278.911 "/>
<path clip-path="url(#clip130)" d="M132.789 1152.34 L149.109 1152.34 L149.109 1156.27 L127.164 1156.27 L127.164 1152.34 Q129.826 1149.59 134.41 1144.96 Q139.016 1140.3 140.197 1138.96 Q142.442 1136.44 143.322 1134.7 Q144.224 1132.94 144.224 1131.25 Q144.224 1128.5 142.28 1126.76 Q140.359 1125.02 137.257 1125.02 Q135.058 1125.02 132.604 1125.79 Q130.173 1126.55 127.396 1128.1 L127.396 1123.38 Q130.22 1122.25 132.673 1121.67 Q135.127 1121.09 137.164 1121.09 Q142.535 1121.09 145.729 1123.77 Q148.923 1126.46 148.923 1130.95 Q148.923 1133.08 148.113 1135 Q147.326 1136.9 145.22 1139.49 Q144.641 1140.16 141.539 1143.38 Q138.437 1146.58 132.789 1152.34 Z" fill="#000000" fill-rule="evenodd" fill-opacity="1" /><path clip-path="url(#clip130)" d="M158.923 1150.4 L163.808 1150.4 L163.808 1156.27 L158.923 1156.27 L158.923 1150.4 Z" fill="#000000" fill-rule="evenodd" fill-opacity="1" /><path clip-path="url(#clip130)" d="M183.993 1124.79 Q180.382 1124.79 178.553 1128.36 Q176.747 1131.9 176.747 1139.03 Q176.747 1146.14 178.553 1149.7 Q180.382 1153.24 183.993 1153.24 Q187.627 1153.24 189.432 1149.7 Q191.261 1146.14 191.261 1139.03 Q191.261 1131.9 189.432 1128.36 Q187.627 1124.79 183.993 1124.79 M183.993 1121.09 Q189.803 1121.09 192.858 1125.7 Q195.937 1130.28 195.937 1139.03 Q195.937 1147.76 192.858 1152.36 Q189.803 1156.95 183.993 1156.95 Q178.182 1156.95 175.104 1152.36 Q172.048 1147.76 172.048 1139.03 Q172.048 1130.28 175.104 1125.7 Q178.182 1121.09 183.993 1121.09 Z" fill="#000000" fill-rule="evenodd" fill-opacity="1" /><path clip-path="url(#clip130)" d="M204.201 1121.71 L222.557 1121.71 L222.557 1125.65 L208.483 1125.65 L208.483 1134.12 Q209.502 1133.77 210.52 1133.61 Q211.539 1133.43 212.557 1133.43 Q218.344 1133.43 221.724 1136.6 Q225.104 1139.77 225.104 1145.19 Q225.104 1150.77 221.631 1153.87 Q218.159 1156.95 211.84 1156.95 Q209.664 1156.95 207.395 1156.58 Q205.15 1156.21 202.743 1155.46 L202.743 1150.77 Q204.826 1151.9 207.048 1152.46 Q209.27 1153.01 211.747 1153.01 Q215.752 1153.01 218.09 1150.9 Q220.428 1148.8 220.428 1145.19 Q220.428 1141.58 218.09 1139.47 Q215.752 1137.36 211.747 1137.36 Q209.872 1137.36 207.997 1137.78 Q206.145 1138.2 204.201 1139.08 L204.201 1121.71 Z" fill="#000000" fill-rule="evenodd" fill-opacity="1" /><path clip-path="url(#clip130)" d="M244.316 1124.79 Q240.705 1124.79 238.877 1128.36 Q237.071 1131.9 237.071 1139.03 Q237.071 1146.14 238.877 1149.7 Q240.705 1153.24 244.316 1153.24 Q247.951 1153.24 249.756 1149.7 Q251.585 1146.14 251.585 1139.03 Q251.585 1131.9 249.756 1128.36 Q247.951 1124.79 244.316 1124.79 M244.316 1121.09 Q250.127 1121.09 253.182 1125.7 Q256.261 1130.28 256.261 1139.03 Q256.261 1147.76 253.182 1152.36 Q250.127 1156.95 244.316 1156.95 Q238.506 1156.95 235.428 1152.36 Q232.372 1147.76 232.372 1139.03 Q232.372 1130.28 235.428 1125.7 Q238.506 1121.09 244.316 1121.09 Z" fill="#000000" fill-rule="evenodd" fill-opacity="1" /><path clip-path="url(#clip130)" d="M133.785 865.645 L150.104 865.645 L150.104 869.58 L128.16 869.58 L128.16 865.645 Q130.822 862.891 135.405 858.261 Q140.011 853.608 141.192 852.266 Q143.437 849.742 144.317 848.006 Q145.22 846.247 145.22 844.557 Q145.22 841.803 143.275 840.067 Q141.354 838.331 138.252 838.331 Q136.053 838.331 133.599 839.094 Q131.169 839.858 128.391 841.409 L128.391 836.687 Q131.215 835.553 133.669 834.974 Q136.123 834.395 138.16 834.395 Q143.53 834.395 146.724 837.081 Q149.919 839.766 149.919 844.256 Q149.919 846.386 149.109 848.307 Q148.322 850.205 146.215 852.798 Q145.636 853.469 142.535 856.687 Q139.433 859.881 133.785 865.645 Z" fill="#000000" fill-rule="evenodd" fill-opacity="1" /><path clip-path="url(#clip130)" d="M159.919 863.701 L164.803 863.701 L164.803 869.58 L159.919 869.58 L159.919 863.701 Z" fill="#000000" fill-rule="evenodd" fill-opacity="1" /><path clip-path="url(#clip130)" d="M184.988 838.099 Q181.377 838.099 179.548 841.664 Q177.743 845.205 177.743 852.335 Q177.743 859.441 179.548 863.006 Q181.377 866.548 184.988 866.548 Q188.622 866.548 190.428 863.006 Q192.256 859.441 192.256 852.335 Q192.256 845.205 190.428 841.664 Q188.622 838.099 184.988 838.099 M184.988 834.395 Q190.798 834.395 193.854 839.002 Q196.932 843.585 196.932 852.335 Q196.932 861.062 193.854 865.668 Q190.798 870.252 184.988 870.252 Q179.178 870.252 176.099 865.668 Q173.044 861.062 173.044 852.335 Q173.044 843.585 176.099 839.002 Q179.178 834.395 184.988 834.395 Z" fill="#000000" fill-rule="evenodd" fill-opacity="1" /><path clip-path="url(#clip130)" d="M203.969 835.02 L226.191 835.02 L226.191 837.011 L213.645 869.58 L208.761 869.58 L220.566 838.955 L203.969 838.955 L203.969 835.02 Z" fill="#000000" fill-rule="evenodd" fill-opacity="1" /><path clip-path="url(#clip130)" d="M235.358 835.02 L253.714 835.02 L253.714 838.955 L239.64 838.955 L239.64 847.428 Q240.659 847.08 241.677 846.918 Q242.696 846.733 243.715 846.733 Q249.502 846.733 252.881 849.905 Q256.261 853.076 256.261 858.492 Q256.261 864.071 252.789 867.173 Q249.316 870.252 242.997 870.252 Q240.821 870.252 238.553 869.881 Q236.307 869.511 233.9 868.77 L233.9 864.071 Q235.983 865.205 238.205 865.761 Q240.428 866.316 242.904 866.316 Q246.909 866.316 249.247 864.21 Q251.585 862.104 251.585 858.492 Q251.585 854.881 249.247 852.775 Q246.909 850.668 242.904 850.668 Q241.029 850.668 239.154 851.085 Q237.303 851.502 235.358 852.381 L235.358 835.02 Z" fill="#000000" fill-rule="evenodd" fill-opacity="1" /><path clip-path="url(#clip130)" d="M132.789 578.951 L149.109 578.951 L149.109 582.886 L127.164 582.886 L127.164 578.951 Q129.826 576.196 134.41 571.566 Q139.016 566.914 140.197 565.571 Q142.442 563.048 143.322 561.312 Q144.224 559.553 144.224 557.863 Q144.224 555.108 142.28 553.372 Q140.359 551.636 137.257 551.636 Q135.058 551.636 132.604 552.4 Q130.173 553.164 127.396 554.715 L127.396 549.993 Q130.22 548.858 132.673 548.28 Q135.127 547.701 137.164 547.701 Q142.535 547.701 145.729 550.386 Q148.923 553.071 148.923 557.562 Q148.923 559.692 148.113 561.613 Q147.326 563.511 145.22 566.104 Q144.641 566.775 141.539 569.992 Q138.437 573.187 132.789 578.951 Z" fill="#000000" fill-rule="evenodd" fill-opacity="1" /><path clip-path="url(#clip130)" d="M158.923 577.006 L163.808 577.006 L163.808 582.886 L158.923 582.886 L158.923 577.006 Z" fill="#000000" fill-rule="evenodd" fill-opacity="1" /><path clip-path="url(#clip130)" d="M174.803 578.951 L182.442 578.951 L182.442 552.585 L174.132 554.252 L174.132 549.993 L182.395 548.326 L187.071 548.326 L187.071 578.951 L194.71 578.951 L194.71 582.886 L174.803 582.886 L174.803 578.951 Z" fill="#000000" fill-rule="evenodd" fill-opacity="1" /><path clip-path="url(#clip130)" d="M214.154 551.405 Q210.543 551.405 208.715 554.969 Q206.909 558.511 206.909 565.641 Q206.909 572.747 208.715 576.312 Q210.543 579.853 214.154 579.853 Q217.789 579.853 219.594 576.312 Q221.423 572.747 221.423 565.641 Q221.423 558.511 219.594 554.969 Q217.789 551.405 214.154 551.405 M214.154 547.701 Q219.965 547.701 223.02 552.307 Q226.099 556.891 226.099 565.641 Q226.099 574.367 223.02 578.974 Q219.965 583.557 214.154 583.557 Q208.344 583.557 205.266 578.974 Q202.21 574.367 202.21 565.641 Q202.21 556.891 205.266 552.307 Q208.344 547.701 214.154 547.701 Z" fill="#000000" fill-rule="evenodd" fill-opacity="1" /><path clip-path="url(#clip130)" d="M244.316 551.405 Q240.705 551.405 238.877 554.969 Q237.071 558.511 237.071 565.641 Q237.071 572.747 238.877 576.312 Q240.705 579.853 244.316 579.853 Q247.951 579.853 249.756 576.312 Q251.585 572.747 251.585 565.641 Q251.585 558.511 249.756 554.969 Q247.951 551.405 244.316 551.405 M244.316 547.701 Q250.127 547.701 253.182 552.307 Q256.261 556.891 256.261 565.641 Q256.261 574.367 253.182 578.974 Q250.127 583.557 244.316 583.557 Q238.506 583.557 235.428 578.974 Q232.372 574.367 232.372 565.641 Q232.372 556.891 235.428 552.307 Q238.506 547.701 244.316 547.701 Z" fill="#000000" fill-rule="evenodd" fill-opacity="1" /><path clip-path="url(#clip130)" d="M133.785 292.256 L150.104 292.256 L150.104 296.191 L128.16 296.191 L128.16 292.256 Q130.822 289.502 135.405 284.872 Q140.011 280.219 141.192 278.877 Q143.437 276.354 144.317 274.617 Q145.22 272.858 145.22 271.168 Q145.22 268.414 143.275 266.678 Q141.354 264.942 138.252 264.942 Q136.053 264.942 133.599 265.705 Q131.169 266.469 128.391 268.02 L128.391 263.298 Q131.215 262.164 133.669 261.585 Q136.123 261.006 138.16 261.006 Q143.53 261.006 146.724 263.692 Q149.919 266.377 149.919 270.867 Q149.919 272.997 149.109 274.918 Q148.322 276.816 146.215 279.409 Q145.636 280.08 142.535 283.298 Q139.433 286.492 133.785 292.256 Z" fill="#000000" fill-rule="evenodd" fill-opacity="1" /><path clip-path="url(#clip130)" d="M159.919 290.312 L164.803 290.312 L164.803 296.191 L159.919 296.191 L159.919 290.312 Z" fill="#000000" fill-rule="evenodd" fill-opacity="1" /><path clip-path="url(#clip130)" d="M175.798 292.256 L183.437 292.256 L183.437 265.891 L175.127 267.557 L175.127 263.298 L183.391 261.631 L188.067 261.631 L188.067 292.256 L195.706 292.256 L195.706 296.191 L175.798 296.191 L175.798 292.256 Z" fill="#000000" fill-rule="evenodd" fill-opacity="1" /><path clip-path="url(#clip130)" d="M209.178 292.256 L225.497 292.256 L225.497 296.191 L203.553 296.191 L203.553 292.256 Q206.215 289.502 210.798 284.872 Q215.404 280.219 216.585 278.877 Q218.83 276.354 219.71 274.617 Q220.613 272.858 220.613 271.168 Q220.613 268.414 218.668 266.678 Q216.747 264.942 213.645 264.942 Q211.446 264.942 208.992 265.705 Q206.562 266.469 203.784 268.02 L203.784 263.298 Q206.608 262.164 209.062 261.585 Q211.516 261.006 213.553 261.006 Q218.923 261.006 222.117 263.692 Q225.312 266.377 225.312 270.867 Q225.312 272.997 224.502 274.918 Q223.715 276.816 221.608 279.409 Q221.029 280.08 217.928 283.298 Q214.826 286.492 209.178 292.256 Z" fill="#000000" fill-rule="evenodd" fill-opacity="1" /><path clip-path="url(#clip130)" d="M235.358 261.631 L253.714 261.631 L253.714 265.567 L239.64 265.567 L239.64 274.039 Q240.659 273.692 241.677 273.529 Q242.696 273.344 243.715 273.344 Q249.502 273.344 252.881 276.516 Q256.261 279.687 256.261 285.103 Q256.261 290.682 252.789 293.784 Q249.316 296.863 242.997 296.863 Q240.821 296.863 238.553 296.492 Q236.307 296.122 233.9 295.381 L233.9 290.682 Q235.983 291.816 238.205 292.372 Q240.428 292.928 242.904 292.928 Q246.909 292.928 249.247 290.821 Q251.585 288.715 251.585 285.103 Q251.585 281.492 249.247 279.386 Q246.909 277.279 242.904 277.279 Q241.029 277.279 239.154 277.696 Q237.303 278.113 235.358 278.992 L235.358 261.631 Z" fill="#000000" fill-rule="evenodd" fill-opacity="1" /><path clip-path="url(#clip130)" d="M94.3123 807.341 L32.8957 807.341 Q30.4481 807.341 30.4481 806.021 Q30.4481 804.7 32.4127 804.7 L93.8292 804.7 Q96.2769 804.7 96.2769 806.021 Q96.2769 807.341 94.3123 807.341 Z" fill="#000000" fill-rule="evenodd" fill-opacity="1" /><path clip-path="url(#clip130)" d="M54.6025 743.111 Q54.9246 743.176 55.5043 743.305 Q56.0518 743.434 57.7909 744.013 Q59.53 744.593 61.3013 745.366 Q63.0404 746.107 65.4881 747.556 Q67.9035 748.973 70.0935 750.712 Q70.6732 751.195 71.0275 751.292 Q71.3495 751.356 72.4123 751.356 Q79.1112 751.356 79.1112 749.327 Q79.1112 749.231 79.1112 749.07 Q79.079 748.876 78.9179 748.393 Q78.7247 747.878 78.4348 747.427 Q78.1128 746.976 77.4687 746.461 Q76.7923 745.946 75.8906 745.624 Q75.2465 745.334 75.2465 744.754 Q75.2465 743.981 75.8906 743.981 Q77.05 743.981 78.8213 745.591 Q80.5926 747.202 80.5926 749.52 Q80.5926 751.743 79.1434 753.321 Q77.6619 754.867 75.021 755.511 Q80.5926 762.467 80.5926 769.424 Q80.5926 774.319 77.4042 777.217 Q74.1837 780.116 69.4172 780.116 Q64.844 780.116 60.4962 777.604 Q56.1484 775.06 53.4431 770.937 Q50.7056 766.783 50.7056 762.371 Q50.7056 760.825 51.1243 759.343 Q51.5107 757.862 52.5091 756.38 Q53.5075 754.899 55.0212 753.804 Q56.5348 752.709 58.9181 752.032 Q61.3013 751.356 64.2965 751.356 L68.3866 751.356 Q63.0082 747.105 55.311 744.883 Q54.1516 744.561 54.0228 744.368 Q53.9262 744.239 53.9262 743.917 Q53.9262 743.595 54.1194 743.401 Q54.2804 743.176 54.4415 743.144 L54.6025 743.111 M73.3141 755.768 Q72.1869 755.897 65.939 755.897 Q64.7473 755.897 64.1032 755.897 Q63.4269 755.897 62.1387 755.962 Q60.8504 756.026 60.0453 756.155 Q59.2401 756.251 58.0807 756.477 Q56.9213 756.702 56.1806 757.024 Q55.4398 757.346 54.6025 757.862 Q53.7651 758.345 53.2821 758.989 Q52.799 759.601 52.4769 760.503 Q52.1549 761.372 52.1549 762.435 Q52.1549 763.755 52.6379 765.14 Q53.0888 766.493 54.5381 768.232 Q55.9551 769.971 58.2096 771.42 Q60.5928 772.934 64.9728 774.094 Q69.3206 775.221 71.9292 775.221 Q75.2142 775.221 77.1788 773.707 Q79.1112 772.193 79.1112 769.295 Q79.1112 762.371 73.3141 755.768 Z" fill="#000000" fill-rule="evenodd" fill-opacity="1" /><path clip-path="url(#clip130)" d="M99.3035 704.761 Q99.7319 704.761 99.9573 704.941 Q100.16 705.099 100.205 705.257 Q100.228 705.392 100.228 705.595 Q100.228 706.181 100.16 708.21 Q100.093 710.239 100.093 710.825 Q100.093 711.772 100.16 713.711 Q100.228 715.65 100.228 716.597 Q100.228 717.228 99.7093 717.228 Q99.3712 717.228 99.1908 717.16 Q98.9879 717.093 98.9203 716.912 Q98.8301 716.709 98.8301 716.597 Q98.8076 716.461 98.8076 716.123 Q98.8076 715.672 98.7625 715.199 Q98.6948 714.725 98.5596 714.139 Q98.4243 713.553 98.0861 713.192 Q97.748 712.809 97.2746 712.809 Q97.0717 712.809 95.4034 712.967 Q93.7351 713.125 91.7963 713.328 Q89.835 713.531 89.5645 713.553 L89.5645 725.141 Q91.3905 726.2 92.653 726.944 Q93.9155 727.688 94.3438 727.959 Q94.7722 728.229 95.0427 728.387 Q95.3132 728.545 95.471 728.635 Q96.6659 729.289 97.1844 729.289 Q98.6272 729.289 98.8076 727.125 Q98.8076 726.381 99.3486 726.381 Q99.7544 726.381 99.9798 726.561 Q100.183 726.741 100.205 726.899 Q100.228 727.034 100.228 727.26 Q100.228 728.004 100.16 729.559 Q100.093 731.115 100.093 731.881 Q100.093 732.535 100.16 733.888 Q100.228 735.241 100.228 735.849 Q100.228 736.12 100.07 736.278 Q99.9122 736.435 99.7093 736.435 Q99.3937 736.435 99.2133 736.39 Q99.033 736.323 98.9428 736.142 Q98.8526 735.962 98.8526 735.872 Q98.8301 735.782 98.8076 735.466 Q98.6948 733.753 97.8832 732.423 Q97.0491 731.07 94.9074 729.785 L67.9447 713.733 Q67.6741 713.576 67.5389 713.463 Q67.4036 713.35 67.2909 713.125 Q67.1782 712.877 67.1782 712.516 Q67.1782 711.952 67.3585 711.84 Q67.5163 711.727 68.2828 711.659 L97.1393 708.841 Q97.748 708.774 97.996 708.729 Q98.2214 708.661 98.4694 708.368 Q98.6948 708.052 98.7625 707.489 Q98.8076 706.903 98.8076 705.82 Q98.8076 705.415 98.8301 705.257 Q98.8301 705.099 98.9428 704.941 Q99.0555 704.761 99.3035 704.761 M88.1216 713.688 L72.9044 715.154 L88.1216 724.262 L88.1216 713.688 Z" fill="#000000" fill-rule="evenodd" fill-opacity="1" /><path clip-path="url(#clip130)" d="M94.3123 698.027 L32.8957 698.027 Q30.4481 698.027 30.4481 696.706 Q30.4481 695.386 32.4127 695.386 L93.8292 695.386 Q96.2769 695.386 96.2769 696.706 Q96.2769 698.027 94.3123 698.027 Z" fill="#000000" fill-rule="evenodd" fill-opacity="1" /><path clip-path="url(#clip130)" d="M40.0527 688.377 Q39.2185 688.377 38.9706 688.31 Q38.7226 688.219 38.3393 687.859 L28.465 678.999 Q23.0093 674.152 18.2525 674.152 Q15.164 674.152 12.9547 675.775 Q10.7453 677.376 10.7453 680.329 Q10.7453 682.358 11.9853 684.071 Q13.2252 685.785 15.4345 686.574 Q15.3894 686.438 15.3894 685.965 Q15.3894 684.815 16.1108 684.184 Q16.8322 683.53 17.8016 683.53 Q19.0416 683.53 19.6503 684.342 Q20.2364 685.131 20.2364 685.92 Q20.2364 686.236 20.1688 686.664 Q20.1011 687.07 19.4699 687.723 Q18.8161 688.377 17.6664 688.377 Q14.4426 688.377 11.8725 685.942 Q9.30252 683.485 9.30252 679.743 Q9.30252 675.505 11.8275 672.732 Q14.3299 669.936 18.2525 669.936 Q19.6277 669.936 20.8902 670.365 Q22.1301 670.77 23.0995 671.334 Q24.0689 671.875 25.6244 673.363 Q27.18 674.851 28.2847 676.046 Q29.3893 677.24 31.7339 679.923 L36.4907 684.815 L36.4907 676.497 Q36.4907 672.439 36.13 672.123 Q35.4762 671.672 32.027 671.108 L32.027 669.936 L40.0527 671.244 L40.0527 688.377 Z" fill="#000000" fill-rule="evenodd" fill-opacity="1" /><polyline clip-path="url(#clip133)" style="stroke:#009af9; stroke-linecap:round; stroke-linejoin:round; stroke-width:4; stroke-opacity:1; fill:none" points="350.577,86.1857 370.212,128.017 389.847,168.993 409.482,209.129 429.117,248.437 448.752,286.929 468.387,324.617 488.022,361.513 507.657,397.627 527.292,432.972 546.926,467.556 566.561,501.39 586.196,534.484 605.831,566.848 625.466,598.489 645.101,629.417 664.736,659.64 684.371,689.166 704.006,718.004 723.641,746.159 743.276,773.641 762.911,800.455 782.546,826.608 802.181,852.107 821.816,876.958 841.451,901.166 861.086,924.738 880.721,947.678 900.356,969.993 919.991,991.686 939.626,1012.76 959.261,1033.23 978.896,1053.08 998.531,1072.34 1018.17,1090.99 1037.8,1109.05 1057.44,1126.51 1077.07,1143.39 1096.71,1159.68 1116.34,1175.38 1135.98,1190.51 1155.61,1205.06 1175.25,1219.03 1194.88,1232.42 1214.52,1245.25 1234.15,1257.5 1253.79,1269.19 1273.42,1280.3 1293.06,1290.86 1312.69,1300.84 1332.33,1310.26 1351.96,1319.12 1371.6,1327.42 1391.23,1335.15 1410.87,1342.32 1430.5,1348.92 1450.14,1354.96 1469.77,1360.44 1489.41,1365.36 1509.04,1369.71 1528.68,1373.49 1548.31,1376.71 1567.95,1379.36 1587.58,1381.44 1607.22,1382.94 1626.85,1383.88 1646.49,1384.24 1666.12,1384.02 1685.76,1383.22 1705.39,1381.84 1725.03,1379.88 1744.66,1377.32 1764.3,1374.18 1783.93,1370.43 1803.57,1366.1 1823.2,1361.16 1842.84,1355.61 1862.47,1349.45 1882.11,1342.68 1901.74,1335.29 1921.38,1327.27 1941.01,1318.62 1960.65,1309.34 1980.28,1299.42 1999.92,1288.86 2019.55,1277.64 2039.19,1265.76 2058.82,1253.22 2078.46,1240 2098.09,1226.11 2117.73,1211.53 2137.36,1196.25 2157,1180.27 2176.63,1163.58 2196.27,1146.18 2215.9,1128.04 2235.54,1109.17 2255.17,1089.55 2274.81,1069.17 "/>
<path clip-path="url(#clip130)" d="M360.944 1377.32 L619.424 1377.32 L619.424 1273.64 L360.944 1273.64  Z" fill="#ffffff" fill-rule="evenodd" fill-opacity="1"/>
<polyline clip-path="url(#clip130)" style="stroke:#000000; stroke-linecap:round; stroke-linejoin:round; stroke-width:4; stroke-opacity:1; fill:none" points="360.944,1377.32 619.424,1377.32 619.424,1273.64 360.944,1273.64 360.944,1377.32 "/>
<polyline clip-path="url(#clip130)" style="stroke:#009af9; stroke-linecap:round; stroke-linejoin:round; stroke-width:4; stroke-opacity:1; fill:none" points="383.838,1325.48 521.205,1325.48 "/>
<path clip-path="url(#clip130)" d="M557.942 1345.16 Q556.136 1349.79 554.423 1351.2 Q552.71 1352.62 549.84 1352.62 L546.437 1352.62 L546.437 1349.05 L548.937 1349.05 Q550.696 1349.05 551.668 1348.22 Q552.641 1347.38 553.821 1344.28 L554.585 1342.34 L544.099 1316.83 L548.613 1316.83 L556.715 1337.11 L564.817 1316.83 L569.33 1316.83 L557.942 1345.16 Z" fill="#000000" fill-rule="evenodd" fill-opacity="1" /><path clip-path="url(#clip130)" d="M576.622 1338.82 L584.261 1338.82 L584.261 1312.45 L575.951 1314.12 L575.951 1309.86 L584.215 1308.2 L588.89 1308.2 L588.89 1338.82 L596.529 1338.82 L596.529 1342.76 L576.622 1342.76 L576.622 1338.82 Z" fill="#000000" fill-rule="evenodd" fill-opacity="1" /></svg>
