<?xml version="1.0" encoding="utf-8"?>
<svg xmlns="http://www.w3.org/2000/svg" xmlns:xlink="http://www.w3.org/1999/xlink" width="600" height="400" viewBox="0 0 2400 1600">
<defs>
  <clipPath id="clip970">
    <rect x="0" y="0" width="2400" height="1600"/>
  </clipPath>
</defs>
<path clip-path="url(#clip970)" d="M0 1600 L2400 1600 L2400 0 L0 0  Z" fill="#ffffff" fill-rule="evenodd" fill-opacity="1"/>
<defs>
  <clipPath id="clip971">
    <rect x="480" y="0" width="1681" height="1600"/>
  </clipPath>
</defs>
<path clip-path="url(#clip970)" d="M156.274 1486.45 L2352.76 1486.45 L2352.76 47.2441 L156.274 47.2441  Z" fill="#ffffff" fill-rule="evenodd" fill-opacity="1"/>
<defs>
  <clipPath id="clip972">
    <rect x="156" y="47" width="2197" height="1440"/>
  </clipPath>
</defs>
<polyline clip-path="url(#clip972)" style="stroke:#000000; stroke-linecap:round; stroke-linejoin:round; stroke-width:2; stroke-opacity:0.1; fill:none" points="218.439,1486.45 218.439,47.2441 "/>
<polyline clip-path="url(#clip972)" style="stroke:#000000; stroke-linecap:round; stroke-linejoin:round; stroke-width:2; stroke-opacity:0.1; fill:none" points="736.477,1486.45 736.477,47.2441 "/>
<polyline clip-path="url(#clip972)" style="stroke:#000000; stroke-linecap:round; stroke-linejoin:round; stroke-width:2; stroke-opacity:0.1; fill:none" points="1254.52,1486.45 1254.52,47.2441 "/>
<polyline clip-path="url(#clip972)" style="stroke:#000000; stroke-linecap:round; stroke-linejoin:round; stroke-width:2; stroke-opacity:0.1; fill:none" points="1772.55,1486.45 1772.55,47.2441 "/>
<polyline clip-path="url(#clip972)" style="stroke:#000000; stroke-linecap:round; stroke-linejoin:round; stroke-width:2; stroke-opacity:0.1; fill:none" points="2290.59,1486.45 2290.59,47.2441 "/>
<polyline clip-path="url(#clip970)" style="stroke:#000000; stroke-linecap:round; stroke-linejoin:round; stroke-width:4; stroke-opacity:1; fill:none" points="156.274,1486.45 2352.76,1486.45 "/>
<polyline clip-path="url(#clip970)" style="stroke:#000000; stroke-linecap:round; stroke-linejoin:round; stroke-width:4; stroke-opacity:1; fill:none" points="218.439,1486.45 218.439,1467.55 "/>
<polyline clip-path="url(#clip970)" style="stroke:#000000; stroke-linecap:round; stroke-linejoin:round; stroke-width:4; stroke-opacity:1; fill:none" points="736.477,1486.45 736.477,1467.55 "/>
<polyline clip-path="url(#clip970)" style="stroke:#000000; stroke-linecap:round; stroke-linejoin:round; stroke-width:4; stroke-opacity:1; fill:none" points="1254.52,1486.45 1254.52,1467.55 "/>
<polyline clip-path="url(#clip970)" style="stroke:#000000; stroke-linecap:round; stroke-linejoin:round; stroke-width:4; stroke-opacity:1; fill:none" points="1772.55,1486.45 1772.55,1467.55 "/>
<polyline clip-path="url(#clip970)" style="stroke:#000000; stroke-linecap:round; stroke-linejoin:round; stroke-width:4; stroke-opacity:1; fill:none" points="2290.59,1486.45 2290.59,1467.55 "/>
<path clip-path="url(#clip970)" d="M218.439 1517.37 Q214.828 1517.37 212.999 1520.93 Q211.193 1524.47 211.193 1531.6 Q211.193 1538.71 212.999 1542.27 Q214.828 1545.82 218.439 1545.82 Q222.073 1545.82 223.879 1542.27 Q225.707 1538.71 225.707 1531.6 Q225.707 1524.47 223.879 1520.93 Q222.073 1517.37 218.439 1517.37 M218.439 1513.66 Q224.249 1513.66 227.304 1518.27 Q230.383 1522.85 230.383 1531.6 Q230.383 1540.33 227.304 1544.94 Q224.249 1549.52 218.439 1549.52 Q212.629 1549.52 209.55 1544.94 Q206.494 1540.33 206.494 1531.6 Q206.494 1522.85 209.55 1518.27 Q212.629 1513.66 218.439 1513.66 Z" fill="#000000" fill-rule="evenodd" fill-opacity="1" /><path clip-path="url(#clip970)" d="M696.095 1514.29 L714.452 1514.29 L714.452 1518.22 L700.378 1518.22 L700.378 1526.7 Q701.396 1526.35 702.415 1526.19 Q703.433 1526 704.452 1526 Q710.239 1526 713.618 1529.17 Q716.998 1532.34 716.998 1537.76 Q716.998 1543.34 713.526 1546.44 Q710.053 1549.52 703.734 1549.52 Q701.558 1549.52 699.29 1549.15 Q697.044 1548.78 694.637 1548.04 L694.637 1543.34 Q696.72 1544.47 698.942 1545.03 Q701.165 1545.58 703.641 1545.58 Q707.646 1545.58 709.984 1543.48 Q712.322 1541.37 712.322 1537.76 Q712.322 1534.15 709.984 1532.04 Q707.646 1529.94 703.641 1529.94 Q701.766 1529.94 699.891 1530.35 Q698.04 1530.77 696.095 1531.65 L696.095 1514.29 Z" fill="#000000" fill-rule="evenodd" fill-opacity="1" /><path clip-path="url(#clip970)" d="M736.211 1517.37 Q732.6 1517.37 730.771 1520.93 Q728.965 1524.47 728.965 1531.6 Q728.965 1538.71 730.771 1542.27 Q732.6 1545.82 736.211 1545.82 Q739.845 1545.82 741.65 1542.27 Q743.479 1538.71 743.479 1531.6 Q743.479 1524.47 741.65 1520.93 Q739.845 1517.37 736.211 1517.37 M736.211 1513.66 Q742.021 1513.66 745.076 1518.27 Q748.155 1522.85 748.155 1531.6 Q748.155 1540.33 745.076 1544.94 Q742.021 1549.52 736.211 1549.52 Q730.401 1549.52 727.322 1544.94 Q724.266 1540.33 724.266 1531.6 Q724.266 1522.85 727.322 1518.27 Q730.401 1513.66 736.211 1513.66 Z" fill="#000000" fill-rule="evenodd" fill-opacity="1" /><path clip-path="url(#clip970)" d="M766.373 1517.37 Q762.761 1517.37 760.933 1520.93 Q759.127 1524.47 759.127 1531.6 Q759.127 1538.71 760.933 1542.27 Q762.761 1545.82 766.373 1545.82 Q770.007 1545.82 771.812 1542.27 Q773.641 1538.71 773.641 1531.6 Q773.641 1524.47 771.812 1520.93 Q770.007 1517.37 766.373 1517.37 M766.373 1513.66 Q772.183 1513.66 775.238 1518.27 Q778.317 1522.85 778.317 1531.6 Q778.317 1540.33 775.238 1544.94 Q772.183 1549.52 766.373 1549.52 Q760.562 1549.52 757.484 1544.94 Q754.428 1540.33 754.428 1531.6 Q754.428 1522.85 757.484 1518.27 Q760.562 1513.66 766.373 1513.66 Z" fill="#000000" fill-rule="evenodd" fill-opacity="1" /><path clip-path="url(#clip970)" d="M1199.04 1544.91 L1206.68 1544.91 L1206.68 1518.55 L1198.37 1520.21 L1198.37 1515.95 L1206.63 1514.29 L1211.31 1514.29 L1211.31 1544.91 L1218.95 1544.91 L1218.95 1548.85 L1199.04 1548.85 L1199.04 1544.91 Z" fill="#000000" fill-rule="evenodd" fill-opacity="1" /><path clip-path="url(#clip970)" d="M1238.39 1517.37 Q1234.78 1517.37 1232.95 1520.93 Q1231.15 1524.47 1231.15 1531.6 Q1231.15 1538.71 1232.95 1542.27 Q1234.78 1545.82 1238.39 1545.82 Q1242.03 1545.82 1243.83 1542.27 Q1245.66 1538.71 1245.66 1531.6 Q1245.66 1524.47 1243.83 1520.93 Q1242.03 1517.37 1238.39 1517.37 M1238.39 1513.66 Q1244.2 1513.66 1247.26 1518.27 Q1250.34 1522.85 1250.34 1531.6 Q1250.34 1540.33 1247.26 1544.94 Q1244.2 1549.52 1238.39 1549.52 Q1232.58 1549.52 1229.5 1544.94 Q1226.45 1540.33 1226.45 1531.6 Q1226.45 1522.85 1229.5 1518.27 Q1232.58 1513.66 1238.39 1513.66 Z" fill="#000000" fill-rule="evenodd" fill-opacity="1" /><path clip-path="url(#clip970)" d="M1268.55 1517.37 Q1264.94 1517.37 1263.11 1520.93 Q1261.31 1524.47 1261.31 1531.6 Q1261.31 1538.71 1263.11 1542.27 Q1264.94 1545.82 1268.55 1545.82 Q1272.19 1545.82 1273.99 1542.27 Q1275.82 1538.71 1275.82 1531.6 Q1275.82 1524.47 1273.99 1520.93 Q1272.19 1517.37 1268.55 1517.37 M1268.55 1513.66 Q1274.36 1513.66 1277.42 1518.27 Q1280.5 1522.85 1280.5 1531.6 Q1280.5 1540.33 1277.42 1544.94 Q1274.36 1549.52 1268.55 1549.52 Q1262.74 1549.52 1259.67 1544.94 Q1256.61 1540.33 1256.61 1531.6 Q1256.61 1522.85 1259.67 1518.27 Q1262.74 1513.66 1268.55 1513.66 Z" fill="#000000" fill-rule="evenodd" fill-opacity="1" /><path clip-path="url(#clip970)" d="M1298.72 1517.37 Q1295.11 1517.37 1293.28 1520.93 Q1291.47 1524.47 1291.47 1531.6 Q1291.47 1538.71 1293.28 1542.27 Q1295.11 1545.82 1298.72 1545.82 Q1302.35 1545.82 1304.16 1542.27 Q1305.98 1538.71 1305.98 1531.6 Q1305.98 1524.47 1304.16 1520.93 Q1302.35 1517.37 1298.72 1517.37 M1298.72 1513.66 Q1304.53 1513.66 1307.58 1518.27 Q1310.66 1522.85 1310.66 1531.6 Q1310.66 1540.33 1307.58 1544.94 Q1304.53 1549.52 1298.72 1549.52 Q1292.91 1549.52 1289.83 1544.94 Q1286.77 1540.33 1286.77 1531.6 Q1286.77 1522.85 1289.83 1518.27 Q1292.91 1513.66 1298.72 1513.66 Z" fill="#000000" fill-rule="evenodd" fill-opacity="1" /><path clip-path="url(#clip970)" d="M1717.08 1544.91 L1724.72 1544.91 L1724.72 1518.55 L1716.41 1520.21 L1716.41 1515.95 L1724.67 1514.29 L1729.35 1514.29 L1729.35 1544.91 L1736.99 1544.91 L1736.99 1548.85 L1717.08 1548.85 L1717.08 1544.91 Z" fill="#000000" fill-rule="evenodd" fill-opacity="1" /><path clip-path="url(#clip970)" d="M1746.48 1514.29 L1764.83 1514.29 L1764.83 1518.22 L1750.76 1518.22 L1750.76 1526.7 Q1751.78 1526.35 1752.8 1526.19 Q1753.81 1526 1754.83 1526 Q1760.62 1526 1764 1529.17 Q1767.38 1532.34 1767.38 1537.76 Q1767.38 1543.34 1763.91 1546.44 Q1760.44 1549.52 1754.12 1549.52 Q1751.94 1549.52 1749.67 1549.15 Q1747.43 1548.78 1745.02 1548.04 L1745.02 1543.34 Q1747.1 1544.47 1749.32 1545.03 Q1751.55 1545.58 1754.02 1545.58 Q1758.03 1545.58 1760.37 1543.48 Q1762.7 1541.37 1762.7 1537.76 Q1762.7 1534.15 1760.37 1532.04 Q1758.03 1529.94 1754.02 1529.94 Q1752.15 1529.94 1750.27 1530.35 Q1748.42 1530.77 1746.48 1531.65 L1746.48 1514.29 Z" fill="#000000" fill-rule="evenodd" fill-opacity="1" /><path clip-path="url(#clip970)" d="M1786.59 1517.37 Q1782.98 1517.37 1781.15 1520.93 Q1779.35 1524.47 1779.35 1531.6 Q1779.35 1538.71 1781.15 1542.27 Q1782.98 1545.82 1786.59 1545.82 Q1790.23 1545.82 1792.03 1542.27 Q1793.86 1538.71 1793.86 1531.6 Q1793.86 1524.47 1792.03 1520.93 Q1790.23 1517.37 1786.59 1517.37 M1786.59 1513.66 Q1792.4 1513.66 1795.46 1518.27 Q1798.54 1522.85 1798.54 1531.6 Q1798.54 1540.33 1795.46 1544.94 Q1792.4 1549.52 1786.59 1549.52 Q1780.78 1549.52 1777.7 1544.94 Q1774.65 1540.33 1774.65 1531.6 Q1774.65 1522.85 1777.7 1518.27 Q1780.78 1513.66 1786.59 1513.66 Z" fill="#000000" fill-rule="evenodd" fill-opacity="1" /><path clip-path="url(#clip970)" d="M1816.75 1517.37 Q1813.14 1517.37 1811.31 1520.93 Q1809.51 1524.47 1809.51 1531.6 Q1809.51 1538.71 1811.31 1542.27 Q1813.14 1545.82 1816.75 1545.82 Q1820.39 1545.82 1822.19 1542.27 Q1824.02 1538.71 1824.02 1531.6 Q1824.02 1524.47 1822.19 1520.93 Q1820.39 1517.37 1816.75 1517.37 M1816.75 1513.66 Q1822.56 1513.66 1825.62 1518.27 Q1828.7 1522.85 1828.7 1531.6 Q1828.7 1540.33 1825.62 1544.94 Q1822.56 1549.52 1816.75 1549.52 Q1810.94 1549.52 1807.87 1544.94 Q1804.81 1540.33 1804.81 1531.6 Q1804.81 1522.85 1807.87 1518.27 Q1810.94 1513.66 1816.75 1513.66 Z" fill="#000000" fill-rule="evenodd" fill-opacity="1" /><path clip-path="url(#clip970)" d="M2239.2 1544.91 L2255.52 1544.91 L2255.52 1548.85 L2233.58 1548.85 L2233.58 1544.91 Q2236.24 1542.16 2240.82 1537.53 Q2245.43 1532.88 2246.61 1531.53 Q2248.86 1529.01 2249.74 1527.27 Q2250.64 1525.51 2250.64 1523.82 Q2250.64 1521.07 2248.69 1519.33 Q2246.77 1517.6 2243.67 1517.6 Q2241.47 1517.6 2239.02 1518.36 Q2236.59 1519.13 2233.81 1520.68 L2233.81 1515.95 Q2236.63 1514.82 2239.09 1514.24 Q2241.54 1513.66 2243.58 1513.66 Q2248.95 1513.66 2252.14 1516.35 Q2255.34 1519.03 2255.34 1523.52 Q2255.34 1525.65 2254.53 1527.57 Q2253.74 1529.47 2251.63 1532.07 Q2251.05 1532.74 2247.95 1535.95 Q2244.85 1539.15 2239.2 1544.91 Z" fill="#000000" fill-rule="evenodd" fill-opacity="1" /><path clip-path="url(#clip970)" d="M2275.34 1517.37 Q2271.73 1517.37 2269.9 1520.93 Q2268.09 1524.47 2268.09 1531.6 Q2268.09 1538.71 2269.9 1542.27 Q2271.73 1545.82 2275.34 1545.82 Q2278.97 1545.82 2280.78 1542.27 Q2282.61 1538.71 2282.61 1531.6 Q2282.61 1524.47 2280.78 1520.93 Q2278.97 1517.37 2275.34 1517.37 M2275.34 1513.66 Q2281.15 1513.66 2284.2 1518.27 Q2287.28 1522.85 2287.28 1531.6 Q2287.28 1540.33 2284.2 1544.94 Q2281.15 1549.52 2275.34 1549.52 Q2269.53 1549.52 2266.45 1544.94 Q2263.39 1540.33 2263.39 1531.6 Q2263.39 1522.85 2266.45 1518.27 Q2269.53 1513.66 2275.34 1513.66 Z" fill="#000000" fill-rule="evenodd" fill-opacity="1" /><path clip-path="url(#clip970)" d="M2305.5 1517.37 Q2301.89 1517.37 2300.06 1520.93 Q2298.25 1524.47 2298.25 1531.6 Q2298.25 1538.71 2300.06 1542.27 Q2301.89 1545.82 2305.5 1545.82 Q2309.13 1545.82 2310.94 1542.27 Q2312.77 1538.71 2312.77 1531.6 Q2312.77 1524.47 2310.94 1520.93 Q2309.13 1517.37 2305.5 1517.37 M2305.5 1513.66 Q2311.31 1513.66 2314.36 1518.27 Q2317.44 1522.85 2317.44 1531.6 Q2317.44 1540.33 2314.36 1544.94 Q2311.31 1549.52 2305.5 1549.52 Q2299.69 1549.52 2296.61 1544.94 Q2293.55 1540.33 2293.55 1531.6 Q2293.55 1522.85 2296.61 1518.27 Q2299.69 1513.66 2305.5 1513.66 Z" fill="#000000" fill-rule="evenodd" fill-opacity="1" /><path clip-path="url(#clip970)" d="M2335.66 1517.37 Q2332.05 1517.37 2330.22 1520.93 Q2328.42 1524.47 2328.42 1531.6 Q2328.42 1538.71 2330.22 1542.27 Q2332.05 1545.82 2335.66 1545.82 Q2339.29 1545.82 2341.1 1542.27 Q2342.93 1538.71 2342.93 1531.6 Q2342.93 1524.47 2341.1 1520.93 Q2339.29 1517.37 2335.66 1517.37 M2335.66 1513.66 Q2341.47 1513.66 2344.53 1518.27 Q2347.6 1522.85 2347.6 1531.6 Q2347.6 1540.33 2344.53 1544.94 Q2341.47 1549.52 2335.66 1549.52 Q2329.85 1549.52 2326.77 1544.94 Q2323.72 1540.33 2323.72 1531.6 Q2323.72 1522.85 2326.77 1518.27 Q2329.85 1513.66 2335.66 1513.66 Z" fill="#000000" fill-rule="evenodd" fill-opacity="1" /><polyline clip-path="url(#clip972)" style="stroke:#000000; stroke-linecap:round; stroke-linejoin:round; stroke-width:2; stroke-opacity:0.1; fill:none" points="156.274,1235.55 2352.76,1235.55 "/>
<polyline clip-path="url(#clip972)" style="stroke:#000000; stroke-linecap:round; stroke-linejoin:round; stroke-width:2; stroke-opacity:0.1; fill:none" points="156.274,948.656 2352.76,948.656 "/>
<polyline clip-path="url(#clip972)" style="stroke:#000000; stroke-linecap:round; stroke-linejoin:round; stroke-width:2; stroke-opacity:0.1; fill:none" points="156.274,661.763 2352.76,661.763 "/>
<polyline clip-path="url(#clip972)" style="stroke:#000000; stroke-linecap:round; stroke-linejoin:round; stroke-width:2; stroke-opacity:0.1; fill:none" points="156.274,374.869 2352.76,374.869 "/>
<polyline clip-path="url(#clip972)" style="stroke:#000000; stroke-linecap:round; stroke-linejoin:round; stroke-width:2; stroke-opacity:0.1; fill:none" points="156.274,87.9763 2352.76,87.9763 "/>
<polyline clip-path="url(#clip970)" style="stroke:#000000; stroke-linecap:round; stroke-linejoin:round; stroke-width:4; stroke-opacity:1; fill:none" points="156.274,1486.45 156.274,47.2441 "/>
<polyline clip-path="url(#clip970)" style="stroke:#000000; stroke-linecap:round; stroke-linejoin:round; stroke-width:4; stroke-opacity:1; fill:none" points="156.274,1235.55 175.172,1235.55 "/>
<polyline clip-path="url(#clip970)" style="stroke:#000000; stroke-linecap:round; stroke-linejoin:round; stroke-width:4; stroke-opacity:1; fill:none" points="156.274,948.656 175.172,948.656 "/>
<polyline clip-path="url(#clip970)" style="stroke:#000000; stroke-linecap:round; stroke-linejoin:round; stroke-width:4; stroke-opacity:1; fill:none" points="156.274,661.763 175.172,661.763 "/>
<polyline clip-path="url(#clip970)" style="stroke:#000000; stroke-linecap:round; stroke-linejoin:round; stroke-width:4; stroke-opacity:1; fill:none" points="156.274,374.869 175.172,374.869 "/>
<polyline clip-path="url(#clip970)" style="stroke:#000000; stroke-linecap:round; stroke-linejoin:round; stroke-width:4; stroke-opacity:1; fill:none" points="156.274,87.9763 175.172,87.9763 "/>
<path clip-path="url(#clip970)" d="M62.9365 1221.35 Q59.3254 1221.35 57.4967 1224.91 Q55.6912 1228.45 55.6912 1235.58 Q55.6912 1242.69 57.4967 1246.25 Q59.3254 1249.8 62.9365 1249.8 Q66.5707 1249.8 68.3763 1246.25 Q70.205 1242.69 70.205 1235.58 Q70.205 1228.45 68.3763 1224.91 Q66.5707 1221.35 62.9365 1221.35 M62.9365 1217.64 Q68.7467 1217.64 71.8022 1222.25 Q74.8809 1226.83 74.8809 1235.58 Q74.8809 1244.31 71.8022 1248.92 Q68.7467 1253.5 62.9365 1253.5 Q57.1264 1253.5 54.0477 1248.92 Q50.9921 1244.31 50.9921 1235.58 Q50.9921 1226.83 54.0477 1222.25 Q57.1264 1217.64 62.9365 1217.64 Z" fill="#000000" fill-rule="evenodd" fill-opacity="1" /><path clip-path="url(#clip970)" d="M83.0984 1246.95 L87.9827 1246.95 L87.9827 1252.83 L83.0984 1252.83 L83.0984 1246.95 Z" fill="#000000" fill-rule="evenodd" fill-opacity="1" /><path clip-path="url(#clip970)" d="M108.746 1233.69 Q105.598 1233.69 103.746 1235.84 Q101.918 1237.99 101.918 1241.74 Q101.918 1245.47 103.746 1247.64 Q105.598 1249.8 108.746 1249.8 Q111.895 1249.8 113.723 1247.64 Q115.575 1245.47 115.575 1241.74 Q115.575 1237.99 113.723 1235.84 Q111.895 1233.69 108.746 1233.69 M118.029 1219.03 L118.029 1223.29 Q116.27 1222.46 114.464 1222.02 Q112.682 1221.58 110.922 1221.58 Q106.293 1221.58 103.839 1224.7 Q101.409 1227.83 101.061 1234.15 Q102.427 1232.13 104.487 1231.07 Q106.547 1229.98 109.024 1229.98 Q114.233 1229.98 117.242 1233.15 Q120.274 1236.3 120.274 1241.74 Q120.274 1247.06 117.126 1250.28 Q113.978 1253.5 108.746 1253.5 Q102.751 1253.5 99.5798 1248.92 Q96.4085 1244.31 96.4085 1235.58 Q96.4085 1227.39 100.297 1222.53 Q104.186 1217.64 110.737 1217.64 Q112.496 1217.64 114.279 1217.99 Q116.084 1218.34 118.029 1219.03 Z" fill="#000000" fill-rule="evenodd" fill-opacity="1" /><path clip-path="url(#clip970)" d="M64.0013 934.454 Q60.3902 934.454 58.5615 938.019 Q56.756 941.561 56.756 948.69 Q56.756 955.797 58.5615 959.362 Q60.3902 962.903 64.0013 962.903 Q67.6356 962.903 69.4411 959.362 Q71.2698 955.797 71.2698 948.69 Q71.2698 941.561 69.4411 938.019 Q67.6356 934.454 64.0013 934.454 M64.0013 930.751 Q69.8115 930.751 72.867 935.357 Q75.9457 939.94 75.9457 948.69 Q75.9457 957.417 72.867 962.024 Q69.8115 966.607 64.0013 966.607 Q58.1912 966.607 55.1125 962.024 Q52.0569 957.417 52.0569 948.69 Q52.0569 939.94 55.1125 935.357 Q58.1912 930.751 64.0013 930.751 Z" fill="#000000" fill-rule="evenodd" fill-opacity="1" /><path clip-path="url(#clip970)" d="M84.1632 960.056 L89.0475 960.056 L89.0475 965.936 L84.1632 965.936 L84.1632 960.056 Z" fill="#000000" fill-rule="evenodd" fill-opacity="1" /><path clip-path="url(#clip970)" d="M98.0521 931.376 L120.274 931.376 L120.274 933.366 L107.728 965.936 L102.844 965.936 L114.649 935.311 L98.0521 935.311 L98.0521 931.376 Z" fill="#000000" fill-rule="evenodd" fill-opacity="1" /><path clip-path="url(#clip970)" d="M63.1911 647.561 Q59.58 647.561 57.7513 651.126 Q55.9458 654.668 55.9458 661.797 Q55.9458 668.904 57.7513 672.468 Q59.58 676.01 63.1911 676.01 Q66.8254 676.01 68.6309 672.468 Q70.4596 668.904 70.4596 661.797 Q70.4596 654.668 68.6309 651.126 Q66.8254 647.561 63.1911 647.561 M63.1911 643.858 Q69.0013 643.858 72.0568 648.464 Q75.1355 653.047 75.1355 661.797 Q75.1355 670.524 72.0568 675.13 Q69.0013 679.714 63.1911 679.714 Q57.381 679.714 54.3023 675.13 Q51.2468 670.524 51.2468 661.797 Q51.2468 653.047 54.3023 648.464 Q57.381 643.858 63.1911 643.858 Z" fill="#000000" fill-rule="evenodd" fill-opacity="1" /><path clip-path="url(#clip970)" d="M83.3531 673.163 L88.2373 673.163 L88.2373 679.043 L83.3531 679.043 L83.3531 673.163 Z" fill="#000000" fill-rule="evenodd" fill-opacity="1" /><path clip-path="url(#clip970)" d="M108.422 662.631 Q105.089 662.631 103.168 664.413 Q101.27 666.195 101.27 669.32 Q101.27 672.445 103.168 674.228 Q105.089 676.01 108.422 676.01 Q111.756 676.01 113.677 674.228 Q115.598 672.422 115.598 669.32 Q115.598 666.195 113.677 664.413 Q111.779 662.631 108.422 662.631 M103.746 660.64 Q100.737 659.899 99.0474 657.839 Q97.3808 655.779 97.3808 652.816 Q97.3808 648.672 100.321 646.265 Q103.284 643.858 108.422 643.858 Q113.584 643.858 116.524 646.265 Q119.464 648.672 119.464 652.816 Q119.464 655.779 117.774 657.839 Q116.108 659.899 113.121 660.64 Q116.501 661.427 118.376 663.719 Q120.274 666.01 120.274 669.32 Q120.274 674.343 117.195 677.029 Q114.14 679.714 108.422 679.714 Q102.705 679.714 99.6261 677.029 Q96.5706 674.343 96.5706 669.32 Q96.5706 666.01 98.4687 663.719 Q100.367 661.427 103.746 660.64 M102.034 653.256 Q102.034 655.941 103.7 657.445 Q105.39 658.95 108.422 658.95 Q111.432 658.95 113.121 657.445 Q114.834 655.941 114.834 653.256 Q114.834 650.57 113.121 649.066 Q111.432 647.561 108.422 647.561 Q105.39 647.561 103.7 649.066 Q102.034 650.57 102.034 653.256 Z" fill="#000000" fill-rule="evenodd" fill-opacity="1" /><path clip-path="url(#clip970)" d="M63.2837 360.668 Q59.6726 360.668 57.8439 364.233 Q56.0384 367.775 56.0384 374.904 Q56.0384 382.011 57.8439 385.575 Q59.6726 389.117 63.2837 389.117 Q66.918 389.117 68.7235 385.575 Q70.5522 382.011 70.5522 374.904 Q70.5522 367.775 68.7235 364.233 Q66.918 360.668 63.2837 360.668 M63.2837 356.964 Q69.0939 356.964 72.1494 361.571 Q75.2281 366.154 75.2281 374.904 Q75.2281 383.631 72.1494 388.237 Q69.0939 392.821 63.2837 392.821 Q57.4736 392.821 54.3949 388.237 Q51.3393 383.631 51.3393 374.904 Q51.3393 366.154 54.3949 361.571 Q57.4736 356.964 63.2837 356.964 Z" fill="#000000" fill-rule="evenodd" fill-opacity="1" /><path clip-path="url(#clip970)" d="M83.4457 386.27 L88.3299 386.27 L88.3299 392.149 L83.4457 392.149 L83.4457 386.27 Z" fill="#000000" fill-rule="evenodd" fill-opacity="1" /><path clip-path="url(#clip970)" d="M98.6539 391.432 L98.6539 387.173 Q100.413 388.006 102.219 388.446 Q104.024 388.886 105.76 388.886 Q110.39 388.886 112.82 385.784 Q115.274 382.659 115.621 376.316 Q114.279 378.307 112.219 379.372 Q110.158 380.436 107.658 380.436 Q102.473 380.436 99.4409 377.312 Q96.4317 374.163 96.4317 368.724 Q96.4317 363.4 99.5798 360.182 Q102.728 356.964 107.959 356.964 Q113.955 356.964 117.103 361.571 Q120.274 366.154 120.274 374.904 Q120.274 383.075 116.385 387.96 Q112.52 392.821 105.969 392.821 Q104.209 392.821 102.404 392.473 Q100.598 392.126 98.6539 391.432 M107.959 376.779 Q111.108 376.779 112.936 374.626 Q114.788 372.474 114.788 368.724 Q114.788 364.997 112.936 362.844 Q111.108 360.668 107.959 360.668 Q104.811 360.668 102.959 362.844 Q101.131 364.997 101.131 368.724 Q101.131 372.474 102.959 374.626 Q104.811 376.779 107.959 376.779 Z" fill="#000000" fill-rule="evenodd" fill-opacity="1" /><path clip-path="url(#clip970)" d="M53.9088 101.321 L61.5476 101.321 L61.5476 74.9555 L53.2375 76.6222 L53.2375 72.3629 L61.5013 70.6963 L66.1772 70.6963 L66.1772 101.321 L73.8161 101.321 L73.8161 105.256 L53.9088 105.256 L53.9088 101.321 Z" fill="#000000" fill-rule="evenodd" fill-opacity="1" /><path clip-path="url(#clip970)" d="M83.2605 99.3767 L88.1447 99.3767 L88.1447 105.256 L83.2605 105.256 L83.2605 99.3767 Z" fill="#000000" fill-rule="evenodd" fill-opacity="1" /><path clip-path="url(#clip970)" d="M108.33 73.775 Q104.719 73.775 102.89 77.3398 Q101.084 80.8814 101.084 88.011 Q101.084 95.1174 102.89 98.6822 Q104.719 102.224 108.33 102.224 Q111.964 102.224 113.77 98.6822 Q115.598 95.1174 115.598 88.011 Q115.598 80.8814 113.77 77.3398 Q111.964 73.775 108.33 73.775 M108.33 70.0713 Q114.14 70.0713 117.195 74.6777 Q120.274 79.261 120.274 88.011 Q120.274 96.7378 117.195 101.344 Q114.14 105.928 108.33 105.928 Q102.52 105.928 99.4409 101.344 Q96.3854 96.7378 96.3854 88.011 Q96.3854 79.261 99.4409 74.6777 Q102.52 70.0713 108.33 70.0713 Z" fill="#000000" fill-rule="evenodd" fill-opacity="1" /><polyline clip-path="url(#clip972)" style="stroke:#009af9; stroke-linecap:round; stroke-linejoin:round; stroke-width:4; stroke-opacity:1; fill:none" points="218.439,87.9763 218.544,98.1778 218.65,100.438 218.755,104.192 218.86,124.008 218.966,129.345 219.071,144.807 219.177,165.872 219.282,172.365 219.387,194.402 219.493,210.779 219.598,219.44 219.704,244.125 219.809,255.307 219.914,269.182 220.02,293.75 220.125,302.419 220.23,322.819 220.336,344.343 220.441,353.487 220.547,378.554 220.652,394.914 220.757,407.157 220.863,433.523 220.968,445.104 221.074,462.4 221.179,486.818 221.284,496.153 221.39,518.604 221.495,538.543 221.601,548.715 221.706,574.206 221.811,588.71 221.917,602.36 222.022,627.79 222.128,638.167 222.233,656.764 222.338,679.247 222.444,688.272 222.549,711.155 222.655,728.599 222.76,739.027 222.865,763.543 222.971,775.526 223.076,789.451 223.182,812.549 223.287,820.973 223.392,839.451 223.498,858.899 223.603,866.939 223.709,889.035 223.814,903.474 223.919,913.655 224.025,936.365 224.13,945.688 224.236,959.281 224.341,979.377 224.446,985.584 224.552,1003.01 224.657,1018.77 224.763,1025.31 224.868,1045.62 224.973,1056.68 225.079,1066.12 225.184,1086.43 225.29,1093.13 225.395,1106.06 225.5,1122.96 225.606,1127.04 225.711,1142.95 225.817,1154.84 225.922,1159.6 226.027,1177.42 226.133,1184.81 226.238,1193.01 226.344,1210.39 226.449,1214.44 226.554,1226.41 226.66,1240.09 226.765,1242.32 226.871,1256.61 226.976,1264.85 227.081,1267.89 227.187,1282.93 227.292,1286.64 227.398,1293.21 227.503,1307.2 227.608,1308.46 227.714,1319.08 227.819,1329.47 227.924,1330.03 228.03,1342.72 228.135,1347.7 228.241,1349.38 228.346,1361.77 228.451,1362.12 228.557,1367.04 228.662,1377.48 228.768,1375.9 228.873,1384.78 228.978,1391.68 229.084,1390.51 229.189,1401.47 229.295,1403.46 229.4,1404.11 229.505,1414.17 229.611,1411.75 229.716,1415.37 229.822,1422.53 229.927,1418.38 230.032,1425.44 230.138,1428.76 230.243,1425.77 230.349,1434.72 230.454,1433.73 230.559,1433.42 230.665,1441.28 230.77,1436.58 230.876,1439.35 230.981,1443.72 231.086,1437.63 231.192,1443.2 231.297,1443.25 231.403,1438.68 231.508,1445.53 231.613,1441.54 231.719,1440.21 231.824,1445.72 231.93,1438.87 232.904,1428.71 233.879,1407.75 234.853,1374.77 235.828,1334.74 236.802,1288.16 237.777,1232.82 238.751,1178.43 239.726,1126.17 240.701,1073.43 241.675,1027.82 242.65,984.29 243.624,944.377 244.599,912.901 245.573,880.506 246.548,854.079 247.522,835.589 248.497,823.028 249.471,819.539 250.446,821.373 251.421,832.787 252.395,847.565 253.37,867.751 254.344,889.071 255.319,908.114 256.293,936.388 257.268,960.142 258.242,987.65 259.217,1018.37 260.192,1047.04 261.166,1078.94 262.141,1105.98 263.115,1128.69 264.09,1146.78 265.064,1164.34 266.039,1172.69 267.013,1181.72 267.988,1187.43 268.962,1191.02 269.937,1194.35 270.912,1190.3 271.886,1184.8 272.861,1172.12 273.835,1160.7 274.81,1139.85 276.759,1103.46 278.708,1068.97 280.657,1033.9 282.606,1002.52 283.581,984.189 284.555,971.583 285.53,958.406 286.504,953.514 287.479,948.611 288.453,949.547 289.428,950.571 290.403,956.578 291.377,959.305 292.352,962.971 293.326,969.702 294.301,979.253 295.275,988.638 296.25,1004.73 297.224,1018.16 298.199,1036.84 299.174,1052.51 300.148,1066.58 301.123,1074.99 302.097,1089.81 303.072,1094.54 304.046,1105.77 305.021,1113.32 305.995,1121.09 306.97,1130.98 307.944,1134.76 308.919,1135.97 309.894,1134.02 310.868,1129.94 311.843,1123.08 312.817,1113.48 313.792,1107.68 314.766,1099.02 315.741,1093.45 316.715,1085.79 317.69,1073.51 318.664,1064.63 319.639,1051.8 320.614,1036.95 321.588,1024.94 322.563,1015.02 323.537,1006.06 324.512,1004.3 325.486,996.914 326.461,996.314 327.435,992.954 328.41,991.836 329.385,985.796 330.359,987.467 331.334,986.547 332.308,993.127 333.283,999.085 335.232,1018.06 337.181,1037.55 339.13,1051.9 341.079,1065.45 342.054,1073.96 343.028,1081.92 344.003,1093.95 344.977,1100.92 345.952,1104.66 346.926,1106.4 347.901,1106.93 348.876,1105.12 350.825,1102.07 352.774,1101.03 353.748,1096.88 354.723,1091.97 355.697,1082.73 356.672,1077.26 357.258,1066.19 357.843,1061.81 358.429,1058.07 359.015,1050.96 360.186,1045.71 361.357,1041.17 362.529,1033.18 363.7,1022.93 364.871,1012.74 366.043,1007.17 367.214,1004.98 368.385,1004.42 368.971,1008.1 369.557,1009.87 370.142,1010.4 370.728,1009.94 371.899,1011.27 373.071,1009.79 373.656,1011.31 374.242,1018.5 374.827,1018.56 375.413,1023.84 376.584,1035.37 377.756,1046.79 378.341,1046.62 378.927,1051.67 379.513,1054.87 380.098,1052.15 380.684,1059.21 381.27,1061.92 381.855,1065.53 382.441,1068.58 383.027,1076.6 383.612,1082.49 384.198,1083.24 384.784,1088.58 385.955,1091.74 387.126,1091.46 388.298,1091.93 389.469,1092.15 390.64,1093.59 391.812,1094.16 392.397,1094.3 392.983,1091.53 393.569,1087.82 394.154,1082.41 395.326,1074.76 396.497,1066.35 397.668,1062.06 398.84,1057.57 399.425,1058.66 400.011,1055.19 400.597,1045.81 401.182,1046.92 401.768,1040.49 402.354,1032.97 402.939,1029.65 403.525,1026.43 404.696,1022.82 405.868,1023.02 406.453,1021.51 407.039,1022.19 407.625,1021.82 408.21,1017.12 408.796,1019.33 409.382,1016.38 409.967,1012.34 410.553,1011.48 411.139,1015.76 411.724,1014.09 412.31,1015.3 412.896,1021.49 414.067,1027.73 415.238,1033.42 416.41,1039.16 417.581,1040.53 418.752,1044.69 419.924,1053.15 421.095,1062.07 422.266,1071 422.852,1072.54 423.438,1077.87 424.023,1076.08 424.609,1073.31 425.78,1076.97 426.952,1079.89 427.537,1083.2 428.123,1088.39 428.709,1087.39 429.294,1088.31 429.88,1092.21 430.466,1090.82 431.051,1085.94 431.637,1085.51 432.132,1087.35 432.627,1079.13 433.122,1080.54 433.618,1083.5 434.113,1075.18 434.608,1073.62 435.103,1079.14 435.598,1071.05 436.093,1067.21 436.589,1071.77 437.084,1062.83 437.579,1061.3 438.074,1067.03 438.569,1055.51 439.064,1050.98 439.56,1058.32 440.055,1051.71 440.55,1044.58 441.045,1048.62 441.54,1043.99 442.035,1036.78 442.531,1043.12 443.026,1039.77 443.521,1028.68 444.016,1034.7 444.511,1034.24 445.006,1026 445.502,1031.02 445.997,1027.31 446.492,1020.43 446.987,1028.38 447.482,1026.71 447.978,1018.02 448.473,1023.61 448.968,1026.05 449.463,1018.08 449.958,1022.23 450.453,1027.71 450.949,1019.32 451.444,1021.94 451.939,1028.45 452.434,1022.57 452.929,1027.54 453.424,1031.41 453.92,1023.36 454.415,1030.59 454.91,1038.83 455.405,1031.85 455.9,1032.76 456.395,1040.87 456.891,1040.28 457.386,1041.27 457.881,1047.35 458.376,1045.07 458.871,1046.42 459.366,1055.37 459.862,1052.87 460.357,1053.89 460.852,1061.59 461.347,1057.52 461.842,1060.76 462.337,1069.64 462.833,1064.68 463.328,1065.42 463.823,1073.97 464.318,1071.3 464.813,1069.98 465.309,1079.33 465.804,1077.99 466.299,1070.95 466.794,1080.42 467.289,1083.9 467.784,1075.81 468.28,1081.21 468.775,1083.11 469.27,1077 469.765,1082.69 470.26,1084.62 470.755,1077.77 471.251,1078.57 472.241,1078.44 473.231,1078.79 474.222,1072.78 475.212,1069 477.193,1060.58 479.173,1056.38 479.668,1054.07 480.164,1049.71 480.659,1052.4 481.154,1048.16 481.649,1039.27 482.144,1045.78 482.64,1046.18 483.135,1035.38 483.63,1038.02 484.125,1038.16 484.62,1031.52 485.115,1035.49 485.611,1035.16 486.106,1026.98 486.601,1028.78 487.096,1032.62 487.591,1026.84 488.086,1026.75 488.582,1030.88 489.077,1023.81 489.572,1024.76 490.067,1032.3 490.562,1025.47 491.057,1025.28 491.553,1031.18 492.048,1026.29 492.543,1028.76 493.038,1034 493.533,1029.52 494.028,1031.38 494.524,1036.56 495.019,1033.03 495.557,1042.62 496.095,1037.43 496.632,1037.57 497.17,1045.06 497.708,1043.67 498.246,1045.57 498.784,1053.47 499.322,1046.45 499.86,1050.04 500.398,1061.91 500.936,1054.43 501.474,1056.98 502.011,1064.25 502.549,1060.26 503.087,1065.49 503.625,1070.37 504.163,1064.07 504.701,1069.54 505.239,1075.79 505.777,1067.76 506.315,1075.2 506.852,1078.64 507.39,1069.68 507.928,1077.73 508.466,1079.38 509.004,1074.65 509.542,1078.96 510.08,1076.4 510.618,1073.73 511.156,1081.41 511.694,1077.55 512.231,1069.02 512.769,1078.21 513.307,1075.55 513.845,1068.06 514.383,1075.44 514.921,1070.32 515.459,1062.97 515.997,1069.76 516.535,1069.17 517.072,1058.63 517.61,1061.38 518.148,1062.62 518.686,1054.37 519.224,1058.38 519.762,1054.5 520.3,1047.74 520.838,1053.2 521.376,1047.93 521.914,1042.81 522.451,1048.63 522.989,1042.43 523.527,1034.56 524.065,1044.32 524.603,1039.73 525.141,1031.09 525.679,1039.33 526.217,1031.86 526.755,1030.14 527.292,1039.45 527.83,1028.93 528.368,1025.57 528.906,1035.7 529.444,1031.16 529.982,1026.83 530.52,1034.06 531.058,1028.92 531.596,1028.58 532.134,1036.7 532.671,1030.37 533.209,1031.97 533.747,1036.97 534.285,1033.1 534.823,1036.33 535.361,1041.33 535.899,1038.28 536.437,1038.72 536.975,1045.25 537.512,1042.96 538.05,1046.41 538.588,1051.48 539.126,1045.1 539.664,1051.04 540.202,1058.03 540.74,1053.28 541.278,1056.03 541.816,1061.57 542.354,1057.07 542.891,1062.25 543.429,1070.19 543.967,1060.19 544.505,1065.14 545.043,1073.01 545.581,1065.64 546.119,1072.38 546.657,1073.86 547.195,1066.35 547.732,1075.26 548.27,1078.02 548.808,1067.86 549.346,1075.66 549.884,1079.26 550.422,1067.11 550.96,1075.41 551.498,1078.62 552.036,1069.36 552.574,1073.06 553.111,1071.79 553.649,1069.03 554.187,1073.57 554.725,1069.65 555.263,1062.15 555.801,1067.9 556.339,1068.05 556.877,1059.78 557.415,1063.73 557.952,1060.36 558.49,1054.48 559.028,1059.55 559.566,1056.89 560.104,1050.21 560.642,1051.89 561.18,1051.03 561.718,1045.12 562.256,1049.52 562.794,1045.96 563.331,1038.33 563.869,1045.59 564.365,1037.84 564.861,1037.57 565.357,1043.53 565.853,1036.28 566.349,1032.01 566.845,1037.53 567.341,1036.48 567.836,1032.16 568.332,1035.54 568.828,1034.93 569.324,1028.08 569.82,1033.77 570.316,1037.59 570.812,1030.13 571.308,1033.86 571.804,1035.46 572.299,1028.77 572.795,1036.62 573.291,1041.77 573.787,1031.98 574.283,1032.86 574.779,1043.19 575.275,1039.83 575.771,1035.51 576.267,1045.16 576.762,1045.09 577.258,1039.03 577.754,1047.14 578.25,1049.19 578.746,1045.36 579.242,1051.71 579.738,1053.94 580.234,1049.99 580.73,1052.33 581.225,1058.48 581.721,1059.28 582.713,1060.22 583.705,1061.98 584.697,1065.25 585.689,1068.87 586.184,1068.8 586.68,1067.11 587.176,1071.33 587.672,1073.66 588.168,1068.24 588.664,1068.37 589.16,1075.37 589.656,1072 590.152,1070.32 590.647,1074.85 591.143,1069.46 591.639,1069.15 592.135,1075.32 592.631,1069.93 593.127,1066.75 593.623,1072.99 594.119,1070.01 594.615,1061.68 595.11,1067.53 595.606,1071.27 596.102,1061.29 596.598,1062.29 597.094,1064.81 597.59,1056.31 598.086,1060.06 598.582,1063.95 599.078,1053.84 599.573,1051.72 600.565,1052.65 601.557,1052.56 602.053,1048.16 602.549,1041.98 603.045,1047.79 603.541,1047.23 604.532,1042.83 605.524,1037.34 606.02,1038.53 606.516,1039.74 607.012,1037.09 607.508,1036.43 608.004,1038.28 608.5,1034.09 608.995,1031.43 609.491,1039.41 609.987,1038.15 610.483,1030.76 610.979,1035.14 611.475,1036.99 611.971,1033.6 612.467,1036.84 612.963,1039.63 613.458,1035.73 613.954,1035.39 614.45,1040.46 614.946,1038.91 615.442,1040.24 615.938,1046.23 616.434,1039.54 616.93,1039.22 617.426,1050.16 617.921,1046.96 618.417,1044.3 618.913,1051.77 619.409,1050.32 619.905,1047.63 620.401,1055.42 620.897,1056.93 621.393,1050.98 621.889,1058.53 622.384,1063.37 622.88,1053.24 623.376,1058.51 623.872,1068.63 624.368,1061.81 624.864,1061.71 625.36,1067.55 625.856,1063.84 626.352,1064.17 626.847,1072.1 627.343,1070.99 627.875,1071.27 628.407,1065.62 628.938,1066.86 629.47,1072.87 630.002,1073.56 630.533,1068.38 631.065,1067.49 631.597,1068.33 632.128,1072.37 632.66,1072.89 633.192,1063.83 633.723,1065.54 634.255,1070.99 634.786,1067.85 635.318,1062 635.85,1062.03 636.381,1068.22 636.913,1063.79 637.445,1055.49 637.976,1057.06 638.508,1063.29 639.04,1060.93 639.571,1050.83 640.103,1049.99 640.635,1055.34 641.166,1056.19 641.698,1048.27 642.23,1044.84 642.761,1049.46 643.293,1046.4 643.824,1045.11 644.356,1043.87 644.888,1041.04 645.419,1043.96 645.951,1040.86 646.483,1036.41 647.014,1039.58 647.546,1042.53 648.078,1037.42 648.609,1034.19 649.141,1036.66 649.673,1038.03 650.204,1040.12 650.736,1035.08 651.268,1033.47 651.799,1039.77 652.331,1038.28 652.862,1036.39 653.394,1037.79 653.926,1041.14 654.457,1040.85 654.989,1037.19 655.521,1040.35 656.052,1045.2 656.584,1046.66 657.116,1042.79 657.647,1041.53 658.179,1047.28 658.711,1053.16 659.242,1051.66 659.774,1044.73 660.306,1051.22 660.837,1058.62 661.369,1054.71 661.9,1053.44 662.432,1056.52 662.964,1062.5 663.495,1060.62 664.027,1056.19 664.559,1061.89 665.09,1067.29 665.622,1065.88 666.154,1061.76 666.685,1062.8 667.217,1067.6 667.749,1071.9 668.28,1067.47 668.812,1062.03 669.344,1070.72 669.875,1071.34 670.407,1065.66 670.939,1068.76 671.47,1070.02 672.002,1068.86 672.533,1066.1 673.065,1065.53 673.597,1068.26 674.128,1069.87 674.66,1065.37 675.192,1059.49 675.723,1063.97 676.255,1067.35 676.787,1063.01 677.318,1056.81 677.85,1058.24 678.382,1063.23 678.913,1056.65 679.445,1052.51 679.977,1055.15 680.508,1057.37 681.04,1054.04 681.571,1044.71 682.103,1047.8 682.635,1054.91 683.166,1049.93 683.698,1041.75 684.23,1042.07 684.761,1046.38 685.293,1045.87 685.825,1042.85 686.356,1037.66 686.888,1040.83 687.42,1043.94 687.951,1036.52 688.483,1037.58 689.015,1041.25 689.546,1039.98 690.078,1036.9 690.609,1034.73 691.141,1039.31 692.204,1038.77 693.268,1038.71 693.799,1041.19 694.331,1041.15 694.863,1041.61 695.394,1039.79 696.01,1042.59 696.626,1043.51 697.242,1043.98 697.858,1050.78 698.474,1044.98 699.09,1051.19 699.706,1044.93 700.322,1058.33 700.938,1050.53 701.554,1056.44 702.17,1053.5 702.786,1058.22 703.402,1060.35 704.018,1057.52 704.634,1065.14 705.25,1058.17 705.866,1064.85 706.482,1063.65 707.098,1066.74 707.714,1064.22 708.33,1068.22 708.946,1062.91 709.562,1068.72 710.178,1070.87 711.409,1070.85 712.641,1071.68 713.873,1070.05 715.105,1065.67 715.721,1065.45 716.337,1061.33 716.953,1062.59 717.569,1055.67 718.185,1063.46 718.801,1054.35 719.417,1060.24 720.033,1050.78 720.649,1056.71 721.265,1050.28 721.881,1050.59 722.497,1051.82 723.113,1047.97 723.729,1047.1 724.345,1042.01 724.961,1049.34 725.577,1043.34 726.193,1043.85 726.809,1037.23 727.425,1044.93 728.041,1040.26 728.656,1040.29 729.272,1040.75 729.888,1036.15 730.504,1042.68 731.12,1035.21 731.736,1046.92 732.352,1032.5 732.968,1043.27 733.584,1039.2 734.2,1041.92 734.816,1042.4 737.28,1049.36 739.744,1052.96 740.976,1054.04 742.208,1053.65 742.824,1056.06 743.44,1058.72 744.056,1063.57 744.672,1054.75 745.288,1063.73 745.904,1059.93 746.52,1067.08 747.135,1061.38 747.751,1064.83 748.367,1067.27 748.983,1061.28 749.599,1069.99 750.215,1062.68 750.831,1072.17 751.447,1060 752.063,1068.77 752.679,1063.67 753.295,1068.68 753.911,1065.05 754.527,1061.24 756.991,1057.47 759.455,1055.03 761.919,1053.84 764.383,1051.56 765.614,1048.34 766.846,1042.57 767.462,1041.51 768.078,1038.53 768.694,1047.68 769.31,1036.33 769.926,1044.95 770.542,1034.23 771.158,1043.04 771.774,1041.25 772.39,1042.29 773.006,1037.35 773.622,1042.71 774.238,1041.93 776.428,1043.1 778.617,1046.77 780.807,1048.93 782.996,1051.16 784.091,1054.94 785.186,1058.25 785.733,1065.04 786.281,1056.17 786.828,1064.47 787.376,1060.9 787.923,1071.65 788.47,1057.81 789.018,1066.54 789.565,1063.04 790.113,1067.03 790.66,1063.86 791.207,1068.21 791.755,1062.36 792.302,1067.05 792.85,1064.75 793.397,1062.31 793.944,1064.82 794.492,1065.69 795.039,1063.71 795.587,1061.87 796.134,1060.09 796.681,1059.36 797.229,1064.18 797.776,1058.97 798.324,1060.5 798.871,1052.26 799.418,1059.44 799.966,1052.6 800.513,1060.04 801.06,1050.05 801.608,1055.06 802.155,1046.77 802.703,1055.02 803.25,1044.75 803.797,1052.86 804.345,1046.18 804.892,1048.5 805.987,1049.21 807.082,1048.76 808.177,1045.86 809.271,1041.84 809.819,1039.41 810.366,1045.87 810.914,1040.32 811.461,1040.66 812.008,1040.58 812.556,1039.47 813.103,1043.62 813.651,1042.9 815.84,1042.29 818.03,1041.68 820.219,1044.72 822.409,1049.41 824.599,1055.49 826.788,1059.14 827.336,1062.39 827.883,1061.6 828.43,1064.78 828.978,1060.1 829.525,1067.54 830.073,1064.95 830.62,1063.85 831.167,1064.59 833.357,1065.06 835.547,1064.59 836.641,1065.2 837.736,1061.87 838.831,1061.93 839.926,1061.85 841.021,1057.69 842.115,1054.1 842.663,1051.15 843.21,1055.15 843.758,1044.28 844.305,1048.99 844.785,1045.25 845.265,1049.43 845.745,1047.48 846.225,1042.35 846.705,1048.78 847.185,1041.57 847.665,1047.03 848.145,1037.5 848.625,1046.8 849.105,1042.61 849.585,1040.81 850.065,1045.68 850.545,1039.8 851.025,1044.55 851.505,1037.45 851.985,1043.59 852.465,1038.9 852.945,1048.4 853.425,1043.64 853.905,1038.35 854.385,1043.51 854.865,1041.03 855.345,1048.46 855.825,1039.58 856.305,1050.42 856.785,1044.33 857.265,1045.4 857.745,1046.99 858.225,1044.15 858.706,1050.86 859.186,1047.49 859.666,1055.38 860.146,1047.02 860.626,1052.49 861.106,1048.53 861.586,1054.29 862.066,1056.41 862.546,1051.91 863.026,1059.89 863.506,1051.4 863.986,1060.52 864.466,1055.83 864.946,1060.53 865.426,1055.69 865.906,1057.97 866.386,1067.6 866.866,1060.01 867.346,1061.31 867.826,1056.48 868.306,1066.54 868.786,1059.61 869.266,1066.38 869.746,1065.2 870.226,1061.82 870.706,1065.72 871.186,1057.4 871.666,1067.51 872.146,1062.24 872.626,1068.03 873.106,1061.29 873.586,1063.41 874.066,1064.2 874.546,1058.5 875.026,1064.97 875.506,1060.55 875.986,1065.17 876.466,1056.13 876.946,1064.93 877.426,1058.31 877.906,1056.6 878.386,1059.77 878.866,1054.46 879.826,1053.15 880.786,1051.4 881.266,1053.41 881.746,1051.53 882.226,1051.94 882.706,1055.54 883.666,1053.32 884.627,1051 885.587,1048.63 886.547,1045.15 887.027,1049.61 887.507,1037.26 887.987,1045.55 888.467,1043.23 888.947,1047.73 889.427,1040.8 889.907,1043.77 890.387,1044.55 890.867,1038.47 891.347,1045.94 891.827,1039.85 892.307,1045.59 892.787,1038.05 893.267,1047.92 893.747,1043.78 894.227,1040.9 894.707,1045.84 895.187,1038.8 895.667,1047.43 896.147,1043.72 897.107,1044.02 898.067,1044.64 901.907,1052.92 905.747,1058.15 907.841,1061.52 909.934,1065.59 910.457,1062.64 910.981,1060.16 911.504,1056.24 912.028,1059.37 912.551,1065.4 913.074,1064.47 913.598,1069.11 914.121,1068.43 914.644,1059.34 915.168,1058.32 915.691,1059.08 916.214,1058.63 917.261,1059.8 918.308,1061.66 919.354,1057.29 920.401,1052.5 920.924,1051.49 921.448,1052.14 921.971,1051.22 922.495,1054.37 923.018,1055.44 923.541,1054.83 924.065,1053.85 924.588,1045.35 925.111,1041.5 925.635,1043.28 926.158,1045.7 926.681,1048.75 927.205,1049.22 927.728,1049.31 928.251,1047.79 928.775,1043.83 929.821,1041.15 930.868,1039.35 931.391,1043.44 931.915,1047.67 932.438,1044.95 932.962,1046.23 933.485,1045.5 934.008,1042.52 934.532,1038.99 935.055,1039.26 935.578,1044.57 936.102,1046.84 936.625,1047.26 937.148,1049.93 937.672,1053.51 938.195,1048.25 938.718,1042.64 939.242,1044.62 940.288,1050.06 941.335,1056.24 941.858,1055.94 942.382,1053.41 942.905,1053.5 943.429,1053.69 944.475,1054.44 945.522,1059.51 946.045,1062.84 946.569,1062.65 947.092,1061.71 947.615,1061.77 948.139,1059.17 948.662,1054.78 949.185,1059.65 949.709,1061.58 950.232,1061.57 950.755,1068.09 951.279,1067.44 951.802,1065.34 952.325,1063.04 952.849,1056.25 953.372,1055.54 953.895,1061.65 954.419,1064.53 954.942,1062.54 955.466,1065.23 955.989,1065.25 956.512,1060.12 957.036,1057.74 957.559,1055.45 958.082,1057.56 958.606,1057.28 959.129,1054.68 959.652,1057.61 960.176,1058.62 960.699,1060.12 961.222,1058.22 961.746,1051.24 962.269,1047.77 962.792,1048.3 963.316,1050.22 963.839,1049.19 964.362,1050.69 964.886,1054.13 965.409,1054.12 965.933,1050.08 966.456,1043.07 966.979,1042.08 967.503,1041.07 968.026,1042.26 968.549,1049.39 969.073,1048.87 969.596,1047.22 970.119,1045.82 970.643,1042.74 971.689,1041.87 972.736,1041.36 974.842,1044.76 976.948,1047.09 978.001,1046.97 979.054,1046.59 979.58,1051.41 980.107,1053.34 980.633,1052.93 981.159,1051.92 981.686,1047.73 982.212,1049.54 982.739,1055.71 983.265,1058.36 983.792,1058.36 984.318,1055.61 984.845,1054 985.371,1052.15 985.898,1058.01 986.424,1065.25 986.95,1060.76 987.477,1059.67 988.003,1059.2 988.53,1056.07 989.056,1059.22 989.583,1064.22 990.109,1066.07 990.636,1063.52 991.162,1060.9 991.689,1058.51 992.215,1059.14 992.742,1061.6 993.268,1064.47 993.794,1069.55 994.321,1062.8 994.847,1054.48 995.374,1056.04 995.9,1059.11 996.427,1065.85 996.953,1066.38 997.48,1059.33 998.006,1054.35 998.533,1052.94 999.059,1055.64 999.586,1059.59 1000.11,1061.64 1000.64,1057.21 1001.16,1053.35 1001.69,1050.25 1002.22,1046.98 1002.74,1053.68 1003.27,1058.19 1003.8,1055.07 1004.32,1048.73 1004.85,1044.1 1005.38,1046.67 1005.9,1047.84 1006.43,1050.88 1006.96,1051.89 1007.48,1045.64 1008.01,1043.21 1008.54,1043.95 1009.59,1044.92 1010.64,1047.17 1011.17,1042.4 1011.69,1041.78 1012.22,1040.93 1012.75,1046.28 1013.27,1048.01 1013.8,1043.03 1014.33,1046.16 1014.85,1044.81 1015.38,1040.25 1015.91,1044.45 1016.43,1050.7 1016.96,1050.02 1017.49,1045.31 1018.01,1044.1 1018.54,1044.9 1019.06,1050.74 1019.59,1053.77 1020.12,1050.67 1020.64,1049.95 1021.17,1048.11 1021.7,1049.92 1022.22,1053.46 1022.75,1057.14 1023.28,1059.39 1023.8,1051.96 1024.33,1049.97 1024.86,1055.78 1025.38,1058.81 1025.91,1059.91 1026.43,1060.89 1026.96,1060.32 1027.49,1055.29 1028.01,1054.98 1028.54,1059.72 1029.07,1064.61 1029.59,1066.15 1030.12,1061.41 1030.65,1059.08 1031.17,1055.9 1031.7,1058.54 1032.23,1067.42 1032.75,1065.54 1033.28,1062.66 1033.81,1060.96 1034.33,1056.84 1034.86,1057.83 1035.38,1061.8 1035.91,1063.07 1036.44,1063.25 1036.96,1063.63 1037.49,1055.38 1038.02,1051 1038.54,1057.3 1039.07,1060.06 1039.6,1062.66 1040.12,1059.85 1042.45,1053.5 1044.78,1046.76 1045.94,1044.36 1047.11,1045.09 1048.27,1042.33 1049.44,1038.83 1050.6,1042.22 1051.76,1043.05 1052.93,1042.43 1054.09,1045.57 1056.42,1046.98 1058.75,1051.26 1061.08,1055.89 1063.41,1057.85 1063.99,1057.4 1064.57,1055 1065.15,1060.79 1065.73,1060.29 1066.32,1057.98 1066.9,1056.84 1067.48,1057.28 1068.06,1056.95 1068.64,1060.24 1069.23,1062.49 1069.81,1054.48 1070.39,1056.67 1070.97,1058.21 1071.55,1056.09 1072.14,1059.11 1072.72,1059.43 1073.3,1055.09 1073.88,1058.37 1074.46,1055.48 1075.05,1054.82 1075.63,1059.08 1076.21,1057.85 1076.79,1057.82 1077.38,1054.18 1077.96,1057.02 1078.54,1057.36 1079.12,1055.02 1079.7,1056.12 1080.29,1059.15 1080.87,1057.36 1081.45,1054.48 1082.03,1053.17 1082.61,1055.83 1083.2,1057.36 1083.78,1055.1 1084.36,1056.41 1084.94,1052.7 1085.52,1051.76 1086.11,1051.03 1086.69,1054.98 1087.27,1054.34 1087.85,1049.86 1088.43,1049.31 1089.02,1048.5 1090.18,1048.75 1091.34,1046.79 1092.51,1044.37 1093.67,1041.57 1094.26,1044.94 1094.84,1046.19 1095.42,1043.82 1096,1043.68 1098.33,1043.61 1100.66,1045.38 1102.99,1048.26 1105.31,1054.69 1107.64,1061.15 1109.97,1065.5 1110.55,1064.71 1111.14,1063.92 1111.72,1060.91 1112.3,1066.44 1112.88,1065.8 1113.46,1067.27 1114.05,1065.55 1114.63,1060.82 1115.18,1056.91 1115.74,1060.98 1116.29,1063.66 1116.84,1055.13 1117.4,1063.28 1117.95,1056.71 1118.5,1059.46 1119.06,1053.83 1119.61,1056.13 1120.17,1062.33 1120.72,1048.58 1121.27,1060.47 1121.83,1054.71 1122.38,1051.45 1122.94,1053.05 1123.49,1047.98 1124.04,1057.08 1124.6,1049.26 1125.15,1053.22 1125.7,1049.47 1126.26,1044.58 1126.81,1051.35 1127.37,1044.84 1127.92,1050.73 1128.47,1047.53 1129.03,1047.27 1129.58,1047.8 1130.13,1040.33 1130.69,1047.21 1131.24,1045.38 1131.8,1048.55 1132.35,1046.17 1132.9,1042.42 1133.46,1046.78 1134.01,1042.06 1134.57,1050.67 1135.12,1042.72 1135.67,1042.52 1136.23,1054.26 1136.78,1043.72 1137.33,1048.83 1137.89,1044.01 1138.44,1045.86 1139,1052.39 1139.55,1047.9 1140.1,1054.82 1140.66,1046.62 1141.21,1050.96 1141.77,1049.93 1142.32,1050.43 1142.87,1058.63 1143.43,1050.52 1143.98,1058.04 1144.53,1052.02 1145.09,1054.91 1145.64,1056.83 1146.2,1053.46 1146.75,1063.21 1147.3,1053.93 1147.86,1062.05 1148.41,1057.86 1148.96,1055.52 1149.52,1063.4 1150.07,1055.26 1150.63,1064.19 1151.18,1058.96 1151.73,1062.5 1152.29,1062.64 1153.4,1063.93 1154.5,1061.95 1155.06,1062.51 1155.61,1059.57 1156.16,1060.84 1156.72,1054.4 1157.27,1059.63 1157.83,1058.15 1158.38,1062.5 1158.93,1058.94 1159.49,1051.32 1160.04,1060.56 1160.6,1052.18 1161.15,1055.9 1161.7,1057.09 1162.26,1051.01 1162.81,1057.57 1163.36,1049.84 1163.92,1053.96 1164.47,1050.17 1165.03,1047.99 1165.58,1053.09 1166.13,1046.26 1166.69,1055.96 1167.24,1047.64 1167.79,1044.42 1168.35,1046.65 1168.9,1044.65 1169.46,1053.76 1170.01,1043.5 1170.56,1047.58 1171.12,1046.04 1171.67,1044.34 1172.23,1046.36 1172.78,1040.62 1173.33,1052.09 1173.89,1043.86 1174.44,1048.28 1174.99,1046.02 1175.55,1039.53 1176.1,1052.48 1176.66,1042.99 1177.21,1049.73 1177.76,1047.88 1178.32,1046.35 1178.87,1052.59 1179.43,1044.8 1179.98,1051.44 1180.53,1046.3 1181.09,1051.6 1181.64,1056.24 1182.19,1050.58 1182.75,1053.48 1183.3,1049.35 1183.86,1055.43 1184.41,1051.8 1184.96,1056.08 1185.52,1062.62 1186.09,1058.06 1186.67,1055.12 1187.24,1055.94 1187.82,1054.37 1188.4,1055.73 1188.97,1056.96 1189.55,1054.44 1190.12,1056.86 1190.7,1060.98 1191.28,1060.5 1191.85,1060.76 1192.43,1065.94 1193,1064.34 1193.58,1066.08 1194.15,1061.89 1194.73,1057.97 1195.31,1057.67 1195.88,1053.81 1196.46,1057.77 1197.03,1058.27 1197.61,1054.21 1198.19,1056.16 1198.76,1058.98 1199.34,1056.2 1199.91,1060.65 1200.49,1062.48 1201.07,1061.16 1201.64,1056.94 1202.79,1052.67 1203.94,1050.38 1204.52,1049.64 1205.1,1047.02 1205.67,1046.57 1206.25,1049.94 1206.82,1051.44 1207.4,1050.14 1207.98,1050.55 1208.55,1053.78 1209.13,1053.95 1209.7,1048.1 1210.28,1045.04 1210.85,1041.72 1211.43,1043.83 1212.01,1042.76 1212.58,1044.72 1213.16,1044.61 1213.73,1040.71 1214.31,1045.28 1214.89,1048.84 1215.46,1050.95 1216.61,1051.15 1217.76,1048.44 1218.92,1047.45 1220.07,1044.46 1221.22,1047.83 1222.37,1051.42 1222.95,1052.33 1223.52,1059.07 1224.1,1061.34 1224.67,1057.14 1225.83,1055.2 1226.98,1054 1228.13,1055.05 1229.28,1058.39 1230.43,1060.7 1231.58,1063.92 1232.74,1062.2 1233.89,1059.13 1235.04,1055.16 1236.19,1056.36 1237.34,1057.04 1238.5,1059.59 1239.07,1060.26 1239.65,1065.79 1240.22,1060.67 1240.8,1056.42 1241.37,1054.48 1241.95,1051.51 1242.53,1050.46 1243.1,1051.08 1244.25,1050.21 1245.41,1049.22 1246.56,1051.82 1247.71,1053.93 1248.28,1051.32 1248.86,1048.23 1249.44,1046.29 1250.01,1044.54 1251.16,1043.5 1252.32,1045.8 1252.89,1046.92 1253.47,1044.41 1254.04,1045.69 1254.62,1052.46 1255.19,1051.09 1255.77,1052.05 1256.35,1050.58 1256.92,1044.9 1257.5,1045.06 1258.07,1042.2 1258.65,1046.63 1259.23,1047.5 1259.71,1052.56 1260.2,1044.94 1260.68,1054.8 1261.16,1045.5 1261.65,1052.92 1262.13,1049.04 1262.62,1057.09 1263.1,1046.85 1263.59,1057.07 1264.07,1052.63 1264.56,1058.63 1265.04,1051.66 1265.53,1054.38 1266.01,1051.89 1266.5,1058.16 1266.98,1054.68 1267.47,1061.64 1267.95,1059.59 1268.44,1056.56 1268.92,1055.06 1269.41,1057.26 1269.89,1059.96 1270.37,1057.76 1270.86,1059.84 1271.34,1059.47 1271.83,1063.26 1272.31,1058.99 1272.8,1061.11 1273.28,1053.49 1273.77,1061.79 1274.25,1056.65 1274.74,1064.88 1275.22,1058.93 1275.71,1062.06 1276.19,1054.42 1276.68,1063.96 1277.16,1052.94 1277.65,1062.23 1278.13,1055.55 1278.62,1060.29 1279.1,1051.2 1279.58,1063.75 1280.07,1057.39 1280.55,1058.27 1281.04,1049.23 1281.52,1058.86 1282.01,1049.91 1282.49,1055.88 1282.98,1053.09 1283.46,1057.18 1283.95,1053.66 1284.43,1054.36 1284.92,1046.83 1285.4,1049.6 1285.89,1049.57 1286.37,1052.11 1287.34,1049.56 1288.31,1046.62 1289.28,1046.46 1290.25,1043.6 1292.19,1041 1294.13,1040.34 1295.1,1043.17 1296.07,1045.04 1296.55,1049.67 1297.04,1040.74 1297.52,1050.82 1298,1044.58 1298.49,1050.41 1298.97,1045.77 1299.46,1054.62 1299.94,1048.15 1300.43,1053.75 1300.91,1045.35 1301.4,1048.75 1301.88,1050.58 1302.85,1051.09 1303.82,1054.11 1304.31,1052.22 1304.79,1052.78 1305.28,1053.25 1305.76,1057.31 1306.25,1054.49 1306.73,1056.9 1307.22,1052.29 1307.7,1060.24 1308.18,1059.46 1308.67,1061.25 1309.15,1051.75 1309.64,1059.7 1310.12,1053.05 1310.61,1062.56 1311.09,1056.78 1311.58,1065.94 1312.06,1058.04 1312.55,1061.15 1313.03,1052.53 1313.52,1064.33 1314,1054.48 1314.49,1062.32 1314.97,1057.35 1315.46,1064.82 1315.94,1055.99 1316.43,1062.97 1316.91,1056.18 1317.39,1057.75 1317.88,1053.45 1318.36,1063.79 1318.85,1055.69 1319.33,1057.07 1319.82,1057.82 1320.3,1058.89 1320.79,1055.16 1321.27,1054.82 1321.86,1049.89 1322.46,1051.39 1323.05,1053.15 1323.64,1058.1 1324.23,1059.06 1324.82,1051.11 1325.42,1044.36 1326.01,1048.32 1326.6,1050.08 1327.19,1054.59 1327.78,1054.1 1328.37,1049.76 1328.97,1042.85 1329.56,1042.24 1330.15,1049.7 1330.74,1052.6 1331.33,1051.36 1331.93,1043.52 1332.52,1042.51 1333.11,1046.02 1333.7,1049.54 1334.29,1049.26 1334.88,1046.97 1335.48,1043.34 1336.07,1045.76 1336.66,1047.54 1337.25,1052.35 1337.84,1049.65 1338.44,1044.01 1339.03,1045.73 1339.62,1047.52 1340.21,1054.52 1340.8,1052.83 1341.39,1050.76 1341.99,1050.06 1342.58,1046.35 1343.17,1049.45 1343.76,1058.23 1344.35,1056.65 1344.95,1057.82 1345.54,1051.95 1346.13,1046.49 1346.72,1054.59 1347.31,1062.1 1347.9,1061.59 1348.5,1056.13 1349.09,1055.72 1349.68,1054.15 1350.27,1057.94 1350.86,1060.25 1351.46,1061.21 1352.05,1060.4 1352.64,1058.34 1353.23,1056.37 1353.82,1059.22 1354.41,1059.88 1355.01,1062.07 1355.6,1058.76 1356.19,1055.2 1356.78,1060.79 1357.37,1058.63 1357.97,1059.24 1358.56,1058.62 1359.15,1056.46 1359.74,1053.44 1360.33,1055.38 1360.92,1059.85 1361.52,1059.51 1362.11,1053.81 1362.7,1052.43 1363.29,1048.38 1363.88,1051.81 1364.47,1058.43 1365.07,1055.97 1365.66,1054.23 1366.25,1044.91 1366.84,1043.49 1367.43,1050.78 1368.03,1055.91 1368.62,1052.13 1369.21,1048.29 1369.8,1044.81 1370.39,1044.67 1370.98,1046.49 1371.58,1050.4 1372.17,1050.67 1372.76,1047.91 1373.35,1044 1373.94,1042.67 1374.54,1049.06 1375.13,1049.53 1375.72,1049.48 1376.31,1044.01 1376.9,1045.15 1377.49,1047.84 1378.09,1049.57 1378.68,1053.95 1379.27,1049.14 1379.86,1040.58 1380.45,1047.76 1381.05,1053.43 1381.64,1055.53 1382.23,1056.39 1382.82,1046.99 1383.41,1046.56 1384,1049.62 1384.6,1057.07 1385.19,1060.37 1385.78,1057.65 1386.37,1051.42 1386.96,1050.52 1387.56,1054.3 1388.15,1058.39 1388.74,1060.69 1389.33,1061.57 1389.92,1056.12 1390.51,1052.67 1391.11,1057.54 1391.7,1060.15 1392.29,1063.49 1392.88,1058.4 1393.47,1056.48 1394.07,1057.17 1394.66,1061.19 1395.25,1061.16 1395.84,1058.8 1396.43,1057.9 1397.02,1055.87 1397.57,1062.16 1398.11,1059.31 1398.65,1055.9 1399.19,1060 1399.74,1053.08 1400.28,1055.05 1400.82,1054.62 1401.36,1059.05 1401.9,1059.51 1402.45,1051.42 1402.99,1056.29 1403.53,1049.46 1404.07,1052.14 1404.61,1057.91 1405.16,1047.65 1405.7,1053.8 1406.24,1050.37 1406.78,1051.45 1407.33,1055.98 1407.87,1043.61 1408.41,1049.52 1408.95,1047.21 1409.49,1048.31 1410.04,1052.33 1410.58,1046.01 1411.12,1054.63 1411.66,1043.24 1412.2,1042.37 1412.75,1050.31 1413.29,1044.82 1413.83,1050.99 1414.37,1044.79 1414.92,1050.08 1415.46,1049.89 1416,1041.56 1416.54,1048.96 1417.08,1044.46 1417.63,1050.87 1418.17,1048.25 1418.71,1047.55 1419.25,1055.13 1419.79,1042.69 1420.34,1051.22 1420.88,1051.05 1421.42,1046.17 1421.96,1054.34 1422.51,1048.31 1423.05,1055.47 1423.59,1054.56 1424.13,1050.59 1424.67,1055.79 1425.22,1047.97 1425.76,1054.24 1426.3,1057.01 1426.84,1054.62 1427.38,1060.43 1427.93,1056.17 1428.47,1056.16 1429.01,1051.74 1429.55,1056.04 1430.1,1063.68 1430.64,1053.97 1431.18,1061.14 1431.72,1059.98 1432.81,1060.91 1433.89,1061.77 1434.43,1057.74 1434.97,1057.96 1435.52,1062.13 1436.06,1055 1436.6,1066.43 1437.14,1055.33 1437.69,1052.69 1438.23,1060.5 1438.77,1052.77 1439.31,1063.75 1439.85,1057.97 1440.4,1055.39 1440.94,1057.46 1441.48,1051.57 1442.02,1057.86 1442.56,1050.91 1443.11,1054.55 1443.65,1056.36 1444.19,1053.82 1444.73,1057.7 1445.28,1046.28 1445.82,1051.38 1446.36,1051.42 1446.9,1048.28 1447.44,1055.85 1447.99,1047.58 1448.53,1050.99 1449.07,1049.64 1449.61,1046.49 1450.15,1053.51 1450.7,1043.3 1451.24,1045.97 1451.78,1049.02 1452.32,1047.58 1452.87,1054.07 1453.41,1044.29 1453.95,1046.93 1454.49,1047.12 1455.03,1042.06 1455.58,1050.52 1456.12,1045.94 1456.66,1051.88 1457.2,1050.68 1457.74,1043.91 1458.29,1049.17 1458.83,1044.1 1459.37,1051.92 1459.91,1049.41 1460.46,1047.94 1461,1053.82 1461.54,1047.74 1462.08,1056.15 1462.62,1047.24 1463.17,1049.09 1463.71,1056.85 1464.25,1046.4 1464.79,1058.19 1465.33,1053.81 1465.88,1054.17 1466.42,1059.84 1466.92,1056.33 1467.42,1049.17 1467.92,1051.5 1468.42,1060.26 1468.92,1060.3 1469.42,1056.02 1469.92,1056.7 1470.42,1059.29 1470.92,1060.74 1471.43,1055.55 1471.93,1052.11 1472.43,1057.67 1472.93,1062.74 1473.43,1063.15 1473.93,1057.1 1474.43,1055.48 1474.93,1062.62 1475.43,1059.43 1475.93,1052.68 1476.43,1057.41 1476.93,1063.06 1477.43,1059.75 1477.93,1053.79 1478.44,1056.82 1478.94,1062.31 1479.44,1060.51 1479.94,1054.35 1480.44,1050.26 1480.94,1055.55 1481.44,1058.86 1481.94,1055.01 1482.44,1056.78 1482.94,1057.19 1483.44,1054.33 1483.94,1052.82 1484.44,1048.42 1484.94,1049.95 1485.45,1056.61 1485.95,1055.33 1486.45,1048.48 1486.95,1048.98 1487.45,1056.23 1487.95,1053.24 1488.45,1044.36 1488.95,1044.08 1489.45,1050.2 1489.95,1055.33 1490.45,1048.93 1490.95,1042.41 1491.45,1050.19 1491.95,1053.95 1492.46,1047.11 1492.96,1042 1493.46,1045.48 1493.96,1051.59 1494.46,1047.38 1494.96,1043.59 1495.46,1049.95 1495.96,1053.47 1496.46,1048.18 1496.96,1042.29 1497.46,1045.43 1497.96,1050.08 1498.46,1048.76 1498.96,1047.32 1499.47,1048.13 1499.97,1054.96 1500.47,1055.49 1500.97,1042.9 1501.47,1043.12 1501.97,1054.06 1502.47,1054.86 1502.97,1050.64 1503.47,1049.94 1503.97,1053.68 1504.47,1055.9 1504.97,1053.69 1505.47,1050.86 1505.97,1052.19 1506.48,1057.68 1506.98,1054.8 1507.48,1049.98 1507.98,1056.44 1508.48,1061.78 1508.98,1060.23 1509.48,1054.6 1509.98,1052.06 1510.48,1058.12 1510.98,1058.53 1511.48,1054.85 1511.98,1058.19 1512.48,1062.36 1512.98,1061.82 1513.49,1056.98 1513.99,1055.38 1514.49,1058.21 1514.99,1059.17 1515.49,1057.93 1515.99,1055.63 1516.49,1059.41 1516.99,1064.07 1517.49,1059.33 1517.99,1054.95 1518.49,1054.64 1518.99,1057.83 1519.49,1059.65 1519.99,1053.7 1520.5,1054.97 1521.5,1056.42 1522.5,1056.57 1524.5,1051.57 1526.5,1047.18 1528.51,1045.66 1530.51,1044.71 1531.02,1045.17 1531.52,1046.57 1532.03,1049.38 1532.54,1050.79 1533.05,1051 1533.55,1048.53 1534.06,1043.47 1534.57,1044.47 1536.6,1047.83 1538.62,1050.83 1539.64,1050.57 1540.65,1051.23 1541.16,1047.99 1541.67,1044.13 1542.17,1046.85 1542.68,1052.04 1543.19,1058.21 1543.7,1059.71 1544.2,1052.69 1544.71,1049.02 1545.22,1046.94 1545.73,1048.7 1546.23,1056.67 1546.74,1057.79 1547.25,1058.13 1547.75,1059.92 1548.26,1055.66 1548.77,1051.74 1549.28,1052.69 1549.78,1055.74 1550.29,1056.5 1550.8,1059.13 1551.3,1062.07 1551.81,1059.37 1552.32,1058.01 1552.83,1055.86 1553.84,1058.08 1554.85,1060.06 1555.36,1060.79 1555.87,1059.3 1556.38,1057.93 1556.88,1053.82 1557.39,1056.21 1557.9,1061.87 1558.41,1060.06 1558.91,1057.58 1559.42,1056.53 1559.93,1053.81 1560.43,1052.37 1560.94,1058.18 1561.45,1061.58 1561.96,1055.95 1562.46,1056.18 1562.97,1055.7 1563.48,1049.32 1563.98,1049.43 1564.49,1051.52 1565,1055.77 1565.51,1059.93 1566.01,1056.34 1566.52,1051.39 1567.03,1047.5 1567.53,1045.04 1568.04,1045.85 1568.55,1051.31 1569.06,1056.45 1569.56,1054.59 1570.07,1052.17 1570.58,1047.65 1571.09,1042.79 1571.59,1044.23 1572.1,1045.44 1572.61,1050.16 1573.11,1054.98 1573.62,1052.05 1574.13,1048.1 1574.64,1043.44 1575.14,1042.47 1575.65,1046.42 1576.16,1049.63 1576.66,1052.75 1577.17,1051.31 1577.68,1046.16 1578.19,1043.36 1578.69,1046.84 1579.2,1052.01 1579.71,1050.85 1580.21,1051.03 1580.72,1050.79 1581.23,1047.48 1581.74,1048.14 1582.24,1047.86 1582.75,1051.34 1583.26,1056.37 1583.77,1053.6 1584.27,1053.84 1584.78,1054.83 1585.29,1049.35 1585.79,1046.63 1586.3,1052.07 1586.81,1057.58 1587.32,1058.34 1587.82,1061.23 1588.33,1058.56 1588.84,1050.66 1589.34,1051.69 1589.85,1053.07 1590.36,1054.75 1590.87,1061.05 1591.37,1063.08 1591.88,1061.09 1592.39,1056.53 1592.89,1055.01 1593.4,1056.15 1593.91,1054.53 1594.42,1057.26 1594.92,1061.67 1595.43,1061.98 1596,1058.42 1596.57,1056.78 1597.14,1057.7 1597.7,1058.34 1598.27,1060.7 1598.84,1054.41 1599.41,1052.76 1599.98,1056.13 1600.55,1061.02 1601.12,1062.85 1601.68,1053.45 1602.25,1051.03 1602.82,1052.5 1603.39,1054.02 1603.96,1056.19 1604.53,1057.12 1605.09,1053.43 1605.66,1050.38 1606.23,1049.48 1606.8,1054.39 1607.37,1056.43 1607.94,1046.97 1608.5,1045.77 1609.07,1047.36 1609.64,1054.93 1610.21,1058.08 1610.78,1047.9 1611.35,1041.96 1611.92,1044.92 1612.48,1049.18 1613.05,1050.66 1613.62,1052.09 1614.19,1047.76 1614.76,1045.61 1615.33,1046.73 1615.89,1050.12 1616.46,1048.15 1617.03,1045.56 1617.6,1047.51 1618.17,1047.86 1618.74,1052.09 1619.3,1051.09 1619.87,1050.26 1620.44,1046.52 1621.01,1045.18 1621.58,1051.39 1622.15,1052.58 1622.72,1052.04 1623.28,1053.78 1623.85,1050.66 1624.42,1049.29 1624.99,1056.83 1625.56,1052.63 1626.13,1050.37 1626.69,1052.42 1627.26,1054.36 1627.83,1060.82 1628.4,1059.31 1628.97,1054.21 1629.54,1050.27 1630.11,1053.16 1630.67,1058.11 1631.24,1061.99 1631.81,1060.49 1632.38,1055.76 1632.95,1053.26 1633.52,1058.3 1634.08,1062.99 1634.65,1057.39 1635.22,1055.66 1635.79,1053.97 1636.36,1058.51 1636.93,1063.48 1637.49,1062.08 1638.06,1057.14 1638.63,1051.36 1639.2,1053.24 1639.77,1057.52 1640.34,1062.12 1640.91,1059.2 1642.04,1053.69 1643.18,1053.39 1643.75,1053.09 1644.32,1055.33 1644.88,1049.38 1645.45,1054.23 1646.02,1057.34 1646.59,1055.37 1647.16,1049.36 1647.73,1044.76 1648.29,1050.24 1648.86,1054.33 1649.43,1050.93 1650,1049.72 1650.57,1050.23 1651.14,1046.81 1651.71,1050.8 1652.27,1050.49 1652.84,1047.19 1653.41,1044.01 1653.98,1045.25 1654.55,1052.02 1655.12,1053.69 1655.68,1051.34 1656.25,1043.08 1656.82,1042.77 1657.39,1047.27 1657.96,1050.74 1658.53,1052.11 1659.1,1050.21 1659.66,1047.4 1660.23,1048.08 1660.8,1049.86 1661.37,1050.43 1661.94,1053.01 1662.51,1047 1663.07,1048.25 1663.64,1052.98 1664.21,1055.69 1664.78,1057.73 1665.35,1051.04 1665.92,1047.82 1666.48,1050.23 1667.05,1055.79 1667.62,1059.32 1668.19,1057.56 1668.71,1054.72 1669.22,1054.61 1669.74,1055.18 1670.25,1052.63 1670.77,1052.38 1671.28,1049.42 1671.8,1052.68 1672.31,1060.32 1672.83,1056.43 1673.34,1052.55 1673.86,1053.69 1674.37,1053.44 1675.4,1053.13 1676.43,1052.64 1676.95,1051.74 1677.46,1056.31 1677.98,1057.04 1678.49,1054.44 1679.01,1053.29 1679.52,1055.63 1680.04,1052.06 1680.55,1049.5 1681.07,1055.45 1681.58,1056.38 1682.1,1057.47 1682.61,1057.9 1683.13,1052.75 1683.64,1053.04 1684.16,1054.75 1684.67,1053.31 1685.7,1054.83 1686.73,1056.75 1687.25,1057.74 1687.76,1053.18 1688.28,1051.87 1688.79,1054.39 1690.85,1054.19 1692.91,1053.17 1697.03,1050.06 1701.16,1048.3 1703.22,1047.57 1705.28,1049.39 1705.79,1047.68 1706.31,1052.63 1706.82,1050.55 1707.34,1047.39 1707.85,1050.12 1708.37,1047.68 1708.88,1050.31 1709.4,1055.89 1709.91,1054.63 1710.43,1053.57 1710.94,1053.11 1711.46,1052.16 1712.49,1054.19 1713.52,1053.87 1715.58,1057.78 1717.64,1060.57 1718.15,1063.31 1718.67,1058.17 1719.18,1058.91 1719.7,1060.59 1720.21,1059.57 1720.73,1060.7 1721.24,1060.22 1721.76,1056.95 1722.27,1055.36 1722.79,1059.79 1723.3,1061.61 1723.82,1060.33 1724.85,1058.18 1725.88,1053.67 1726.4,1051.34 1726.91,1057.51 1727.43,1056.97 1727.94,1055.5 1728.97,1054.17 1730,1050.84 1731.03,1049.2 1732.06,1049.72 1732.58,1048.88 1733.09,1052.01 1733.61,1049.22 1734.12,1045.23 1734.71,1050.13 1735.3,1051.81 1735.89,1051.4 1736.48,1044.82 1737.07,1045.29 1737.66,1047.95 1738.25,1049.49 1738.84,1049.86 1739.43,1052.71 1740.02,1050.87 1740.61,1046.21 1741.2,1046.43 1741.79,1049 1742.38,1049.98 1742.97,1055.44 1743.56,1056.48 1744.15,1048.79 1744.74,1052.52 1745.33,1049.52 1745.92,1049.22 1746.51,1053.34 1747.1,1056.27 1747.69,1058.81 1748.28,1057.5 1748.87,1054.92 1749.45,1054.34 1750.04,1049.05 1750.63,1050.64 1751.22,1060.38 1751.81,1063.19 1752.4,1063.72 1752.99,1057.35 1753.58,1052.96 1754.17,1048.84 1754.76,1055.21 1755.35,1061.82 1755.94,1061.67 1756.53,1061.84 1757.12,1060.68 1757.71,1055.68 1758.3,1051.51 1758.89,1051.38 1759.48,1056.31 1760.07,1063.54 1760.66,1061.76 1761.25,1057.92 1761.84,1052.89 1762.43,1053.28 1763.02,1050.18 1763.61,1054.14 1764.2,1058.2 1764.79,1056.33 1765.97,1051.97 1767.15,1050.96 1769.51,1048.71 1771.86,1047.27 1772.45,1048.6 1773.04,1052.59 1773.63,1051.31 1774.22,1047.7 1774.81,1044.67 1775.4,1045.99 1775.99,1049.25 1776.58,1052.22 1777.17,1051 1777.76,1050.13 1778.35,1044.92 1778.94,1044.77 1779.53,1046.47 1780.12,1051.7 1780.71,1053.67 1781.3,1055.04 1781.89,1051.43 1782.48,1043.27 1783.07,1048.2 1783.66,1049.98 1784.25,1050.34 1784.84,1056.83 1785.43,1059.58 1786.02,1054.12 1786.61,1051.2 1787.2,1047.27 1787.79,1049.9 1788.38,1053.55 1788.97,1060.97 1789.56,1062.11 1790.15,1056.46 1790.74,1055.22 1791.92,1054.34 1793.1,1055.51 1793.69,1061.26 1794.28,1064.94 1794.86,1058.52 1795.45,1055.58 1796.04,1051.13 1796.63,1053.35 1797.22,1058.37 1797.81,1061.08 1798.4,1062.96 1798.99,1060.2 1799.58,1055.06 1800.17,1049.89 1800.76,1054.57 1801.35,1056.41 1801.94,1059.08 1802.53,1058.99 1803.12,1055.88 1803.71,1054.07 1804.3,1051.83 1804.89,1049.41 1805.48,1056.47 1806.07,1056.66 1806.66,1053.25 1807.25,1052.71 1808.43,1051.36 1809.61,1051.8 1810.15,1048.29 1810.7,1047.92 1811.25,1049.95 1811.79,1046.72 1812.34,1051.48 1812.88,1047.03 1813.43,1056.67 1813.98,1046.1 1814.52,1053.77 1815.07,1040.93 1815.61,1047.58 1816.16,1046.45 1817.25,1049.08 1818.35,1050.2 1818.89,1048.12 1819.44,1050.22 1819.98,1046.54 1820.53,1052.61 1821.08,1044.27 1821.62,1052.28 1822.17,1046.97 1822.71,1055.54 1823.26,1050.43 1823.81,1057.05 1824.35,1049.09 1824.9,1050.64 1825.44,1046.51 1825.99,1053.04 1826.54,1057.15 1827.08,1051.62 1827.63,1059.68 1828.17,1051.79 1828.72,1058.51 1829.27,1050 1829.81,1057.19 1830.36,1050.82 1830.9,1060.21 1831.45,1051.32 1832,1060.29 1832.54,1061.88 1833.09,1055.01 1833.63,1055.54 1834.18,1057.24 1834.73,1058.62 1835.27,1052.8 1835.82,1060.73 1836.36,1054.18 1836.91,1060.19 1837.46,1056.2 1838,1065.71 1838.55,1053.44 1839.1,1056.86 1839.64,1052.84 1840.19,1056.76 1840.73,1054.87 1841.28,1057.63 1841.83,1059.11 1842.37,1056.3 1842.92,1060.23 1843.46,1049.14 1844.01,1056.7 1844.56,1046.52 1845.1,1058.26 1845.65,1052.6 1846.19,1057.32 1846.74,1050.64 1847.29,1054.06 1847.83,1051.02 1848.38,1053.7 1848.92,1052.49 1851.11,1053.87 1853.29,1051.92 1855.48,1049.82 1857.66,1047.62 1859.84,1045.02 1862.03,1048.35 1863.12,1050.27 1864.21,1051.91 1864.76,1049.06 1865.31,1052.1 1865.85,1051.31 1866.4,1060.68 1866.94,1050.48 1867.49,1058.18 1868.04,1050.6 1868.58,1053.33 1869.13,1049.4 1869.67,1057.67 1870.22,1053.26 1870.77,1062.61 1871.31,1058.48 1871.86,1053.69 1872.4,1056.36 1872.95,1053.87 1873.5,1060 1874.04,1051.93 1874.59,1060.24 1875.13,1053.68 1875.68,1064.32 1876.23,1055.24 1876.77,1060.76 1877.32,1053.06 1877.86,1059.88 1878.41,1057.88 1878.96,1052.22 1879.5,1055.64 1880.04,1054.86 1880.58,1062.72 1881.12,1058.98 1881.66,1053.64 1882.19,1059.62 1882.73,1051.62 1883.27,1050.68 1883.81,1058.66 1884.35,1051.83 1884.89,1051.94 1885.42,1060.11 1885.96,1054.31 1886.5,1053.54 1887.04,1057.02 1887.58,1043.88 1888.12,1048.89 1888.65,1057.84 1889.19,1046.22 1889.73,1053.02 1890.27,1056.7 1890.81,1045.55 1891.35,1050.51 1891.88,1053.21 1892.42,1047.35 1892.96,1051.41 1893.5,1047.47 1894.04,1040.41 1894.58,1053.59 1895.11,1053.1 1895.65,1046.67 1896.19,1055.08 1896.73,1047.75 1897.27,1043.76 1897.81,1050.35 1898.34,1045.03 1898.88,1045.72 1899.42,1055.16 1899.96,1051.03 1900.5,1047.14 1901.04,1054.48 1901.57,1049.41 1902.11,1046.47 1902.65,1051.1 1903.19,1048.12 1903.73,1051.65 1904.27,1052.86 1904.8,1049.77 1905.34,1055.38 1905.88,1056.85 1906.42,1049.1 1906.96,1052.05 1907.5,1057.3 1908.03,1048.82 1908.57,1052.44 1909.11,1056.77 1909.65,1052.53 1910.19,1060.1 1910.73,1059.21 1911.26,1053.41 1911.8,1057.66 1912.34,1054.79 1912.88,1050.73 1913.42,1058.48 1913.96,1056.78 1914.49,1054.88 1915.03,1067 1915.57,1057.97 1916.11,1050.8 1916.65,1061.05 1917.19,1054.73 1917.72,1053.85 1918.26,1060.76 1918.8,1055.71 1919.34,1056.08 1919.88,1060.39 1920.42,1055.36 1920.95,1057.43 1921.49,1060.55 1922.03,1052 1922.57,1054.73 1923.11,1054.22 1923.65,1049.44 1924.18,1058.54 1924.72,1058.02 1925.26,1055.68 1925.8,1057.37 1926.34,1049.66 1926.88,1048.41 1927.41,1055.67 1927.95,1051.07 1928.49,1047.31 1929.03,1055.65 1929.57,1052.16 1930.11,1051.24 1930.64,1056.37 1931.18,1048.09 1931.72,1046.15 1932.26,1049.21 1932.8,1047.86 1933.34,1050.53 1933.88,1052.27 1934.41,1046.45 1934.95,1048.27 1935.49,1054.73 1936.03,1047.72 1936.57,1048.43 1937.11,1050 1937.64,1042.73 1938.18,1048.25 1938.72,1050.63 1939.26,1047.34 1939.8,1053.73 1940.34,1054.06 1940.87,1046.32 1941.41,1051.09 1941.95,1050.05 1942.49,1041.35 1943.03,1052.46 1943.57,1054.31 1944.1,1050.07 1944.64,1057.18 1945.18,1050.95 1945.72,1049.28 1946.26,1056.2 1946.8,1050.99 1947.33,1050.55 1947.87,1056.21 1948.41,1050.26 1948.93,1051.5 1949.46,1053.1 1949.98,1051.85 1950.5,1057.95 1951.02,1060.98 1951.55,1056.68 1952.07,1058.51 1952.59,1055.79 1953.11,1053.37 1953.64,1057.26 1954.16,1055.71 1954.68,1052.97 1955.21,1056.01 1955.73,1060.82 1956.25,1059.51 1956.77,1058.07 1958.86,1055.55 1960.95,1057.43 1963.05,1056.86 1965.14,1054.15 1966.18,1055.18 1967.23,1055.06 1968.27,1051.66 1969.32,1050.67 1969.84,1051.32 1970.36,1047.9 1970.89,1048.57 1971.41,1052.47 1971.93,1050.03 1972.45,1052.14 1972.98,1054.32 1973.5,1049.54 1974.02,1046.16 1974.54,1048.97 1975.07,1048.46 1975.59,1044.42 1976.11,1048.05 1976.64,1050.85 1977.16,1052.08 1977.68,1052.09 1978.73,1049.73 1979.77,1046.08 1980.29,1049.24 1980.82,1049.46 1981.34,1048.66 1981.86,1048.83 1982.38,1052.59 1982.91,1054.31 1983.43,1051.89 1983.95,1050.98 1985,1050.7 1986.04,1051.77 1986.57,1049.82 1987.09,1049.9 1987.61,1058.23 1988.13,1058.52 1988.66,1056.17 1989.18,1056.71 1989.7,1050.66 1990.22,1049.95 1990.75,1054.05 1991.27,1054.96 1991.79,1056.11 1992.32,1058.95 1992.84,1058.42 1993.36,1056.16 1993.88,1059.04 1994.41,1057.35 1995.45,1056.43 1996.5,1056.02 1997.02,1054.24 1997.54,1056.24 1998.07,1062.68 1998.59,1060.97 1999.63,1057.01 2000.68,1053.02 2001.72,1055.47 2002.77,1057.47 2003.29,1058.42 2003.81,1058.68 2004.34,1058.09 2004.86,1052.56 2005.38,1050.94 2005.91,1050.26 2006.43,1051.34 2006.95,1053.62 2007.47,1052.51 2008,1056.12 2008.52,1055.52 2009.04,1050.92 2009.56,1052.73 2010.09,1053.63 2010.61,1049.49 2011.13,1046.29 2011.65,1047.86 2012.18,1048.08 2012.7,1050.68 2013.22,1052.83 2013.75,1050.16 2014.27,1054.95 2014.79,1054.01 2015.31,1045.27 2015.85,1047.29 2016.39,1053.02 2016.92,1046.38 2017.46,1043.46 2017.99,1051.39 2018.53,1050.78 2019.06,1046.14 2019.6,1051.25 2020.14,1051.13 2020.67,1048.16 2021.21,1052.19 2021.74,1054.9 2022.28,1046.02 2022.82,1043.65 2023.35,1052.59 2023.89,1049.78 2024.42,1050.73 2024.96,1057.52 2025.49,1054.29 2026.03,1050.56 2026.57,1052.21 2027.1,1053.96 2027.64,1050.1 2028.17,1050.94 2028.71,1054.3 2029.24,1053.22 2029.78,1056.27 2030.32,1060.88 2030.85,1057.19 2031.39,1050.03 2031.92,1056.31 2032.46,1057.57 2033,1050.27 2033.53,1057.6 2034.07,1059.57 2034.6,1054.44 2035.14,1057.26 2035.67,1059.37 2036.21,1057.75 2036.75,1059.01 2037.28,1059.14 2037.82,1051.57 2038.35,1052.47 2038.89,1058.79 2039.43,1057.49 2039.96,1055.75 2040.5,1059.96 2041.03,1063.4 2041.57,1053.95 2042.1,1051.63 2042.64,1056.81 2043.18,1051.36 2043.71,1052.58 2044.25,1059.79 2044.78,1057.49 2045.32,1050.65 2045.86,1054.77 2046.39,1059.51 2046.93,1051.86 2047.46,1049.67 2048,1052.9 2048.53,1050.97 2049.07,1049.15 2049.61,1054.61 2050.14,1052.7 2050.68,1046.44 2051.21,1057.34 2051.75,1056.62 2052.29,1044.14 2052.82,1047.76 2053.36,1050.12 2053.89,1045.76 2054.43,1048.93 2054.96,1053.54 2055.5,1048.59 2056.04,1049.81 2057.11,1048.51 2058.18,1047.64 2058.71,1048.57 2059.25,1045.03 2059.79,1050.77 2060.32,1057.63 2060.86,1047.62 2061.39,1047.13 2061.93,1053.79 2062.47,1049.02 2063,1048 2063.54,1053.88 2064.07,1050.38 2064.61,1043.69 2065.14,1052.67 2065.68,1057.36 2066.22,1051.89 2066.75,1054.7 2067.29,1057.91 2067.82,1051.1 2068.36,1045.78 2068.9,1054.32 2069.43,1054.82 2069.97,1051.47 2070.5,1060.17 2071.04,1057.4 2071.57,1053.03 2072.11,1059.49 2072.65,1057.92 2073.18,1050.38 2073.72,1053.95 2074.25,1058.56 2074.79,1054.18 2075.33,1057.29 2075.86,1060.15 2076.4,1057.26 2076.93,1057.04 2077.47,1058.61 2078,1059.19 2078.54,1053.11 2079.08,1054.51 2079.61,1058.17 2080.15,1053.3 2080.68,1055.95 2081.22,1060.99 2081.76,1058.2 2082.29,1055.47 2082.83,1058.91 2083.36,1055.45 2083.9,1049.37 2084.49,1048.27 2085.07,1050.05 2085.66,1059.21 2086.25,1059.82 2086.83,1060.37 2087.42,1056.62 2088.01,1052.22 2088.59,1049.96 2089.18,1047.59 2089.77,1048.03 2090.36,1046.29 2090.94,1050.53 2091.53,1053.38 2092.12,1053.46 2092.7,1056.6 2093.29,1056.81 2093.88,1048.09 2094.47,1046.59 2095.05,1042.93 2095.64,1043.57 2096.23,1047.62 2096.81,1051.09 2097.4,1054.69 2097.99,1050.2 2098.57,1052.1 2099.16,1052.88 2099.75,1048.26 2100.34,1045.97 2100.92,1047.31 2101.51,1045.92 2102.1,1049.85 2102.68,1051.23 2103.27,1052.3 2103.86,1051.94 2104.45,1052.13 2105.03,1054.83 2105.62,1054.14 2106.21,1051.64 2106.79,1046.64 2107.38,1050.7 2107.97,1052.24 2108.55,1054.81 2109.14,1055.78 2109.73,1053.3 2110.32,1055.09 2110.9,1058.52 2111.49,1056.23 2112.08,1056.84 2112.66,1054.86 2113.25,1054.16 2113.84,1056.56 2114.42,1048.77 2115.01,1053.8 2115.6,1060.81 2116.19,1061.56 2116.77,1060.07 2117.95,1057.85 2119.12,1052.87 2119.71,1054.39 2120.3,1053.2 2120.88,1054.55 2121.47,1058.92 2122.06,1058.55 2122.64,1061.82 2123.23,1059.53 2123.82,1058.3 2124.4,1051.83 2124.99,1046.99 2125.58,1049 2126.17,1051.92 2127.34,1055.58 2128.51,1059.05 2129.1,1056.58 2129.69,1051.05 2130.28,1044.24 2130.86,1043.51 2131.45,1050.51 2132.04,1046.76 2132.62,1051.63 2133.21,1056.57 2133.8,1053.69 2134.38,1053.97 2134.97,1051.36 2135.56,1049.53 2136.15,1046 2136.73,1041.91 2137.32,1042.75 2137.91,1047.47 2138.49,1052.09 2139.08,1058.33 2139.67,1053.44 2140.26,1052.53 2140.84,1049.84 2141.43,1044.65 2142.02,1045.81 2142.6,1047.96 2143.19,1048.97 2143.78,1048.82 2144.36,1053.53 2144.95,1055.33 2146.13,1053.38 2147.3,1051.98 2147.89,1052.97 2148.47,1047.25 2149.06,1050.71 2149.65,1055.19 2150.24,1056.29 2150.82,1058.84 2151.41,1056.49 2152,1057.6 2153.17,1054.65 2154.34,1054.78 2154.93,1054.88 2155.52,1055.73 2156.11,1056.74 2156.69,1059.5 2157.28,1055.65 2157.87,1057.38 2158.45,1061.76 2159.04,1058.06 2159.89,1055.21 2160.75,1054.35 2161.6,1058.54 2162.45,1059.74 2163.3,1050.77 2164.16,1049.52 2165.01,1060.11 2165.86,1059.5 2166.72,1055.93 2167.57,1043.86 2168.42,1050.65 2169.27,1055.42 2170.13,1057.94 2170.98,1050.74 2171.83,1046.99 2172.69,1048.03 2173.54,1053.33 2174.39,1051.26 2175.24,1046.51 2176.1,1051.1 2176.95,1049.04 2177.8,1053.24 2178.65,1047.81 2179.51,1041.78 2180.36,1050.78 2181.21,1056.67 2182.07,1053.73 2182.92,1045.31 2183.77,1044.75 2184.62,1051.29 2185.48,1057.52 2186.33,1055.88 2187.18,1046.98 2188.04,1050.99 2188.89,1056.18 2189.74,1055.73 2190.59,1051.73 2191.45,1053.15 2192.3,1057.36 2193.15,1061.64 2194.01,1054.84 2194.86,1048.59 2195.71,1053.3 2196.56,1066.55 2197.42,1058.02 2198.27,1056.58 2199.12,1051.4 2199.97,1054.58 2200.83,1058.71 2201.68,1060.87 2202.53,1055.72 2203.39,1050.09 2204.24,1058.21 2205.09,1057.33 2205.94,1051.66 2206.8,1050.67 2207.65,1052.56 2208.5,1062.15 2209.36,1051.97 2210.21,1047.17 2211.06,1044.87 2211.91,1053.43 2212.77,1059.53 2213.62,1049.74 2214.47,1045.9 2215.32,1045.27 2216.18,1052.85 2217.03,1052.47 2217.88,1046.91 2218.74,1048.53 2219.59,1050.14 2220.44,1054.27 2221.29,1046.61 2222.15,1045.3 2223,1049.61 2223.85,1055.88 2224.71,1057.07 2225.56,1047.31 2226.41,1045.92 2227.26,1051.11 2228.12,1057.98 2228.97,1058.06 2229.82,1051.17 2230.67,1051.69 2231.53,1053.45 2232.38,1059.26 2233.23,1055.78 2234.09,1051.45 2234.94,1056.24 2235.79,1064.4 2236.64,1056.97 2237.5,1048.65 2238.35,1053.86 2239.2,1059.8 2240.06,1064.37 2240.91,1057.18 2241.76,1048.12 2242.61,1054.6 2243.47,1058.05 2244.32,1057.99 2245.17,1054.61 2246.03,1053.59 2246.88,1051.69 2247.73,1057.79 2248.58,1051.92 2249.44,1047.55 2250.29,1050.6 2251.14,1059.23 2251.99,1053.45 2252.85,1047.77 2253.7,1043.21 2254.55,1050.28 2255.41,1054.2 2256.26,1054.76 2257.11,1048.71 2257.96,1040.46 2258.82,1052.56 2259.67,1052.9 2260.52,1048.47 2261.38,1046.87 2262.23,1051.71 2263.08,1053.7 2263.93,1052.46 2264.79,1045.24 2265.64,1045.71 2266.49,1057.66 2267.34,1060.13 2268.2,1051.16 2268.37,1054.76 2268.55,1049.06 2268.72,1047.28 2268.9,1054.31 2269.07,1053.74 2269.25,1047.58 2269.42,1050.96 2269.6,1055.04 2269.77,1049.66 2269.95,1049.09 2270.12,1056.66 2270.3,1055.84 2270.47,1050.19 2270.65,1053.9 2270.82,1056.8 2271,1050.28 2271.17,1049.68 2271.35,1057.13 2271.52,1056.46 2271.7,1052.79 2271.87,1059.02 2272.05,1063.06 2272.22,1057.1 2272.4,1056.56 2272.57,1061.92 2272.75,1057.8 2272.92,1051.61 2273.1,1056.08 2273.27,1058.61 2273.45,1052.98 2273.62,1054.59 2273.8,1061.44 2273.97,1057.83 2274.15,1052.11 2274.32,1055.81 2274.5,1055.87 2274.67,1048.4 2274.85,1049.73 2275.02,1056.64 2275.2,1053.97 2275.37,1051.03 2275.55,1057.43 2275.72,1058.76 2275.9,1052.52 2276.07,1055 2276.25,1061.51 2276.42,1057.88 2276.6,1054.8 2276.77,1060.5 2276.95,1060.05 2277.12,1052.74 2277.3,1054.95 2277.47,1060.63 2277.64,1056.66 2277.82,1054.73 2277.99,1061.24 2278.17,1060.43 2278.34,1053.1 2278.52,1055.37 2278.69,1060.11 2278.87,1055.71 2279.04,1055.15 2279.22,1063.14 2279.39,1063.09 2279.57,1056.72 2279.74,1058.98 2279.92,1061.12 2280.09,1053.12 2280.27,1049.65 2280.44,1054.89 2280.62,1052.94 2280.79,1047.54 2280.97,1052.7 2281.14,1057.53 2281.32,1052.42 2281.49,1052 2281.67,1058.37 2281.84,1055.94 2282.02,1050.61 2282.19,1056.16 2282.37,1060.89 2282.54,1056.62 2282.72,1058.03 2282.89,1064.85 2283.07,1061.27 2283.24,1054.58 2283.42,1057.98 2283.59,1059.48 2283.77,1053.2 2283.94,1054.68 2284.12,1061.94 2284.29,1059 2284.47,1053.86 2284.64,1057.86 2284.82,1057.82 2284.99,1049.68 2285.17,1049.78 2285.34,1055.23 2285.52,1051.13 2285.69,1047.06 2285.87,1052.93 2286.04,1054.33 2286.22,1048.38 2286.39,1051.1 2286.74,1053.81 2287.09,1056.41 2287.27,1056.65 2287.44,1050.28 2287.62,1053.3 2287.79,1059.36 2287.97,1055.13 2288.14,1052.45 2288.32,1058.24 2288.49,1057.13 2288.67,1049.94 2288.84,1052.54 2289.02,1057.39 2289.19,1052.42 2289.37,1050.52 2289.54,1056.87 2289.72,1055.49 2289.89,1048.6 2290.07,1051.47 2290.24,1055.25 2290.42,1049.38 2290.59,1047.96 "/>
<path clip-path="url(#clip970)" d="M2007.46 198.898 L2279.54 198.898 L2279.54 95.2176 L2007.46 95.2176  Z" fill="#ffffff" fill-rule="evenodd" fill-opacity="1"/>
<polyline clip-path="url(#clip970)" style="stroke:#000000; stroke-linecap:round; stroke-linejoin:round; stroke-width:4; stroke-opacity:1; fill:none" points="2007.46,198.898 2279.54,198.898 2279.54,95.2176 2007.46,95.2176 2007.46,198.898 "/>
<polyline clip-path="url(#clip970)" style="stroke:#009af9; stroke-linecap:round; stroke-linejoin:round; stroke-width:4; stroke-opacity:1; fill:none" points="2031.87,147.058 2178.3,147.058 "/>
<path clip-path="url(#clip970)" d="M2216.55 166.745 Q2214.74 171.375 2213.03 172.787 Q2211.32 174.199 2208.44 174.199 L2205.04 174.199 L2205.04 170.634 L2207.54 170.634 Q2209.3 170.634 2210.27 169.8 Q2211.25 168.967 2212.43 165.865 L2213.19 163.921 L2202.7 138.412 L2207.22 138.412 L2215.32 158.689 L2223.42 138.412 L2227.94 138.412 L2216.55 166.745 Z" fill="#000000" fill-rule="evenodd" fill-opacity="1" /><path clip-path="url(#clip970)" d="M2235.23 160.402 L2242.87 160.402 L2242.87 134.037 L2234.56 135.703 L2234.56 131.444 L2242.82 129.778 L2247.5 129.778 L2247.5 160.402 L2255.13 160.402 L2255.13 164.338 L2235.23 164.338 L2235.23 160.402 Z" fill="#000000" fill-rule="evenodd" fill-opacity="1" /></svg>
