<?xml version="1.0" encoding="utf-8"?>
<svg xmlns="http://www.w3.org/2000/svg" xmlns:xlink="http://www.w3.org/1999/xlink" width="600" height="400" viewBox="0 0 2400 1600">
<defs>
  <clipPath id="clip270">
    <rect x="0" y="0" width="2400" height="1600"/>
  </clipPath>
</defs>
<path clip-path="url(#clip270)" d="M0 1600 L2400 1600 L2400 0 L0 0  Z" fill="#ffffff" fill-rule="evenodd" fill-opacity="1"/>
<defs>
  <clipPath id="clip271">
    <rect x="480" y="0" width="1681" height="1600"/>
  </clipPath>
</defs>
<defs>
  <clipPath id="clip272">
    <rect x="186" y="123" width="2167" height="1301"/>
  </clipPath>
</defs>
<path clip-path="url(#clip270)" d="M186.274 1423.18 L2352.76 1423.18 L2352.76 123.472 L186.274 123.472  Z" fill="#ffffff" fill-rule="evenodd" fill-opacity="1"/>
<polyline clip-path="url(#clip272)" style="stroke:#000000; stroke-linecap:round; stroke-linejoin:round; stroke-width:2; stroke-opacity:0.1; fill:none" points="247.453,1423.18 247.453,123.472 "/>
<polyline clip-path="url(#clip272)" style="stroke:#000000; stroke-linecap:round; stroke-linejoin:round; stroke-width:2; stroke-opacity:0.1; fill:none" points="928.782,1423.18 928.782,123.472 "/>
<polyline clip-path="url(#clip272)" style="stroke:#000000; stroke-linecap:round; stroke-linejoin:round; stroke-width:2; stroke-opacity:0.1; fill:none" points="1610.11,1423.18 1610.11,123.472 "/>
<polyline clip-path="url(#clip272)" style="stroke:#000000; stroke-linecap:round; stroke-linejoin:round; stroke-width:2; stroke-opacity:0.1; fill:none" points="2291.44,1423.18 2291.44,123.472 "/>
<polyline clip-path="url(#clip270)" style="stroke:#000000; stroke-linecap:round; stroke-linejoin:round; stroke-width:4; stroke-opacity:1; fill:none" points="186.274,1423.18 2352.76,1423.18 "/>
<polyline clip-path="url(#clip270)" style="stroke:#000000; stroke-linecap:round; stroke-linejoin:round; stroke-width:4; stroke-opacity:1; fill:none" points="247.453,1423.18 247.453,1404.28 "/>
<polyline clip-path="url(#clip270)" style="stroke:#000000; stroke-linecap:round; stroke-linejoin:round; stroke-width:4; stroke-opacity:1; fill:none" points="928.782,1423.18 928.782,1404.28 "/>
<polyline clip-path="url(#clip270)" style="stroke:#000000; stroke-linecap:round; stroke-linejoin:round; stroke-width:4; stroke-opacity:1; fill:none" points="1610.11,1423.18 1610.11,1404.28 "/>
<polyline clip-path="url(#clip270)" style="stroke:#000000; stroke-linecap:round; stroke-linejoin:round; stroke-width:4; stroke-opacity:1; fill:none" points="2291.44,1423.18 2291.44,1404.28 "/>
<path clip-path="url(#clip270)" d="M247.453 1454.1 Q243.842 1454.1 242.013 1457.66 Q240.208 1461.2 240.208 1468.33 Q240.208 1475.44 242.013 1479.01 Q243.842 1482.55 247.453 1482.55 Q251.088 1482.55 252.893 1479.01 Q254.722 1475.44 254.722 1468.33 Q254.722 1461.2 252.893 1457.66 Q251.088 1454.1 247.453 1454.1 M247.453 1450.39 Q253.263 1450.39 256.319 1455 Q259.398 1459.58 259.398 1468.33 Q259.398 1477.06 256.319 1481.67 Q253.263 1486.25 247.453 1486.25 Q241.643 1486.25 238.564 1481.67 Q235.509 1477.06 235.509 1468.33 Q235.509 1459.58 238.564 1455 Q241.643 1450.39 247.453 1450.39 Z" fill="#000000" fill-rule="evenodd" fill-opacity="1" /><path clip-path="url(#clip270)" d="M888.401 1451.02 L906.757 1451.02 L906.757 1454.96 L892.683 1454.96 L892.683 1463.43 Q893.701 1463.08 894.72 1462.92 Q895.738 1462.73 896.757 1462.73 Q902.544 1462.73 905.924 1465.9 Q909.303 1469.08 909.303 1474.49 Q909.303 1480.07 905.831 1483.17 Q902.359 1486.25 896.039 1486.25 Q893.864 1486.25 891.595 1485.88 Q889.35 1485.51 886.942 1484.77 L886.942 1480.07 Q889.026 1481.2 891.248 1481.76 Q893.47 1482.32 895.947 1482.32 Q899.951 1482.32 902.289 1480.21 Q904.627 1478.1 904.627 1474.49 Q904.627 1470.88 902.289 1468.77 Q899.951 1466.67 895.947 1466.67 Q894.072 1466.67 892.197 1467.08 Q890.345 1467.5 888.401 1468.38 L888.401 1451.02 Z" fill="#000000" fill-rule="evenodd" fill-opacity="1" /><path clip-path="url(#clip270)" d="M928.516 1454.1 Q924.905 1454.1 923.076 1457.66 Q921.271 1461.2 921.271 1468.33 Q921.271 1475.44 923.076 1479.01 Q924.905 1482.55 928.516 1482.55 Q932.15 1482.55 933.956 1479.01 Q935.785 1475.44 935.785 1468.33 Q935.785 1461.2 933.956 1457.66 Q932.15 1454.1 928.516 1454.1 M928.516 1450.39 Q934.326 1450.39 937.382 1455 Q940.46 1459.58 940.46 1468.33 Q940.46 1477.06 937.382 1481.67 Q934.326 1486.25 928.516 1486.25 Q922.706 1486.25 919.627 1481.67 Q916.572 1477.06 916.572 1468.33 Q916.572 1459.58 919.627 1455 Q922.706 1450.39 928.516 1450.39 Z" fill="#000000" fill-rule="evenodd" fill-opacity="1" /><path clip-path="url(#clip270)" d="M958.678 1454.1 Q955.067 1454.1 953.238 1457.66 Q951.433 1461.2 951.433 1468.33 Q951.433 1475.44 953.238 1479.01 Q955.067 1482.55 958.678 1482.55 Q962.312 1482.55 964.118 1479.01 Q965.946 1475.44 965.946 1468.33 Q965.946 1461.2 964.118 1457.66 Q962.312 1454.1 958.678 1454.1 M958.678 1450.39 Q964.488 1450.39 967.544 1455 Q970.622 1459.58 970.622 1468.33 Q970.622 1477.06 967.544 1481.67 Q964.488 1486.25 958.678 1486.25 Q952.868 1486.25 949.789 1481.67 Q946.734 1477.06 946.734 1468.33 Q946.734 1459.58 949.789 1455 Q952.868 1450.39 958.678 1450.39 Z" fill="#000000" fill-rule="evenodd" fill-opacity="1" /><path clip-path="url(#clip270)" d="M1554.64 1481.64 L1562.28 1481.64 L1562.28 1455.28 L1553.97 1456.95 L1553.97 1452.69 L1562.23 1451.02 L1566.91 1451.02 L1566.91 1481.64 L1574.54 1481.64 L1574.54 1485.58 L1554.64 1485.58 L1554.64 1481.64 Z" fill="#000000" fill-rule="evenodd" fill-opacity="1" /><path clip-path="url(#clip270)" d="M1593.99 1454.1 Q1590.38 1454.1 1588.55 1457.66 Q1586.74 1461.2 1586.74 1468.33 Q1586.74 1475.44 1588.55 1479.01 Q1590.38 1482.55 1593.99 1482.55 Q1597.62 1482.55 1599.43 1479.01 Q1601.26 1475.44 1601.26 1468.33 Q1601.26 1461.2 1599.43 1457.66 Q1597.62 1454.1 1593.99 1454.1 M1593.99 1450.39 Q1599.8 1450.39 1602.85 1455 Q1605.93 1459.58 1605.93 1468.33 Q1605.93 1477.06 1602.85 1481.67 Q1599.8 1486.25 1593.99 1486.25 Q1588.18 1486.25 1585.1 1481.67 Q1582.04 1477.06 1582.04 1468.33 Q1582.04 1459.58 1585.1 1455 Q1588.18 1450.39 1593.99 1450.39 Z" fill="#000000" fill-rule="evenodd" fill-opacity="1" /><path clip-path="url(#clip270)" d="M1624.15 1454.1 Q1620.54 1454.1 1618.71 1457.66 Q1616.91 1461.2 1616.91 1468.33 Q1616.91 1475.44 1618.71 1479.01 Q1620.54 1482.55 1624.15 1482.55 Q1627.78 1482.55 1629.59 1479.01 Q1631.42 1475.44 1631.42 1468.33 Q1631.42 1461.2 1629.59 1457.66 Q1627.78 1454.1 1624.15 1454.1 M1624.15 1450.39 Q1629.96 1450.39 1633.02 1455 Q1636.09 1459.58 1636.09 1468.33 Q1636.09 1477.06 1633.02 1481.67 Q1629.96 1486.25 1624.15 1486.25 Q1618.34 1486.25 1615.26 1481.67 Q1612.21 1477.06 1612.21 1468.33 Q1612.21 1459.58 1615.26 1455 Q1618.34 1450.39 1624.15 1450.39 Z" fill="#000000" fill-rule="evenodd" fill-opacity="1" /><path clip-path="url(#clip270)" d="M1654.31 1454.1 Q1650.7 1454.1 1648.87 1457.66 Q1647.07 1461.2 1647.07 1468.33 Q1647.07 1475.44 1648.87 1479.01 Q1650.7 1482.55 1654.31 1482.55 Q1657.95 1482.55 1659.75 1479.01 Q1661.58 1475.44 1661.58 1468.33 Q1661.58 1461.2 1659.75 1457.66 Q1657.95 1454.1 1654.31 1454.1 M1654.31 1450.39 Q1660.12 1450.39 1663.18 1455 Q1666.26 1459.58 1666.26 1468.33 Q1666.26 1477.06 1663.18 1481.67 Q1660.12 1486.25 1654.31 1486.25 Q1648.5 1486.25 1645.42 1481.67 Q1642.37 1477.06 1642.37 1468.33 Q1642.37 1459.58 1645.42 1455 Q1648.5 1450.39 1654.31 1450.39 Z" fill="#000000" fill-rule="evenodd" fill-opacity="1" /><path clip-path="url(#clip270)" d="M2235.97 1481.64 L2243.6 1481.64 L2243.6 1455.28 L2235.29 1456.95 L2235.29 1452.69 L2243.56 1451.02 L2248.23 1451.02 L2248.23 1481.64 L2255.87 1481.64 L2255.87 1485.58 L2235.97 1485.58 L2235.97 1481.64 Z" fill="#000000" fill-rule="evenodd" fill-opacity="1" /><path clip-path="url(#clip270)" d="M2265.36 1451.02 L2283.72 1451.02 L2283.72 1454.96 L2269.65 1454.96 L2269.65 1463.43 Q2270.67 1463.08 2271.68 1462.92 Q2272.7 1462.73 2273.72 1462.73 Q2279.51 1462.73 2282.89 1465.9 Q2286.27 1469.08 2286.27 1474.49 Q2286.27 1480.07 2282.79 1483.17 Q2279.32 1486.25 2273 1486.25 Q2270.83 1486.25 2268.56 1485.88 Q2266.31 1485.51 2263.91 1484.77 L2263.91 1480.07 Q2265.99 1481.2 2268.21 1481.76 Q2270.43 1482.32 2272.91 1482.32 Q2276.91 1482.32 2279.25 1480.21 Q2281.59 1478.1 2281.59 1474.49 Q2281.59 1470.88 2279.25 1468.77 Q2276.91 1466.67 2272.91 1466.67 Q2271.04 1466.67 2269.16 1467.08 Q2267.31 1467.5 2265.36 1468.38 L2265.36 1451.02 Z" fill="#000000" fill-rule="evenodd" fill-opacity="1" /><path clip-path="url(#clip270)" d="M2305.48 1454.1 Q2301.87 1454.1 2300.04 1457.66 Q2298.23 1461.2 2298.23 1468.33 Q2298.23 1475.44 2300.04 1479.01 Q2301.87 1482.55 2305.48 1482.55 Q2309.11 1482.55 2310.92 1479.01 Q2312.75 1475.44 2312.75 1468.33 Q2312.75 1461.2 2310.92 1457.66 Q2309.11 1454.1 2305.48 1454.1 M2305.48 1450.39 Q2311.29 1450.39 2314.35 1455 Q2317.42 1459.58 2317.42 1468.33 Q2317.42 1477.06 2314.35 1481.67 Q2311.29 1486.25 2305.48 1486.25 Q2299.67 1486.25 2296.59 1481.67 Q2293.54 1477.06 2293.54 1468.33 Q2293.54 1459.58 2296.59 1455 Q2299.67 1450.39 2305.48 1450.39 Z" fill="#000000" fill-rule="evenodd" fill-opacity="1" /><path clip-path="url(#clip270)" d="M2335.64 1454.1 Q2332.03 1454.1 2330.2 1457.66 Q2328.4 1461.2 2328.4 1468.33 Q2328.4 1475.44 2330.2 1479.01 Q2332.03 1482.55 2335.64 1482.55 Q2339.28 1482.55 2341.08 1479.01 Q2342.91 1475.44 2342.91 1468.33 Q2342.91 1461.2 2341.08 1457.66 Q2339.28 1454.1 2335.64 1454.1 M2335.64 1450.39 Q2341.45 1450.39 2344.51 1455 Q2347.59 1459.58 2347.59 1468.33 Q2347.59 1477.06 2344.51 1481.67 Q2341.45 1486.25 2335.64 1486.25 Q2329.83 1486.25 2326.75 1481.67 Q2323.7 1477.06 2323.7 1468.33 Q2323.7 1459.58 2326.75 1455 Q2329.83 1450.39 2335.64 1450.39 Z" fill="#000000" fill-rule="evenodd" fill-opacity="1" /><path clip-path="url(#clip270)" d="M1268.58 1522.27 L1268.58 1532.4 L1280.64 1532.4 L1280.64 1536.95 L1268.58 1536.95 L1268.58 1556.3 Q1268.58 1560.66 1269.75 1561.9 Q1270.96 1563.14 1274.62 1563.14 L1280.64 1563.14 L1280.64 1568.04 L1274.62 1568.04 Q1267.84 1568.04 1265.27 1565.53 Q1262.69 1562.98 1262.69 1556.3 L1262.69 1536.95 L1258.39 1536.95 L1258.39 1532.4 L1262.69 1532.4 L1262.69 1522.27 L1268.58 1522.27 Z" fill="#000000" fill-rule="evenodd" fill-opacity="1" /><polyline clip-path="url(#clip272)" style="stroke:#000000; stroke-linecap:round; stroke-linejoin:round; stroke-width:2; stroke-opacity:0.1; fill:none" points="186.274,1386.43 2352.76,1386.43 "/>
<polyline clip-path="url(#clip272)" style="stroke:#000000; stroke-linecap:round; stroke-linejoin:round; stroke-width:2; stroke-opacity:0.1; fill:none" points="186.274,1079.83 2352.76,1079.83 "/>
<polyline clip-path="url(#clip272)" style="stroke:#000000; stroke-linecap:round; stroke-linejoin:round; stroke-width:2; stroke-opacity:0.1; fill:none" points="186.274,773.232 2352.76,773.232 "/>
<polyline clip-path="url(#clip272)" style="stroke:#000000; stroke-linecap:round; stroke-linejoin:round; stroke-width:2; stroke-opacity:0.1; fill:none" points="186.274,466.634 2352.76,466.634 "/>
<polyline clip-path="url(#clip272)" style="stroke:#000000; stroke-linecap:round; stroke-linejoin:round; stroke-width:2; stroke-opacity:0.1; fill:none" points="186.274,160.036 2352.76,160.036 "/>
<polyline clip-path="url(#clip270)" style="stroke:#000000; stroke-linecap:round; stroke-linejoin:round; stroke-width:4; stroke-opacity:1; fill:none" points="186.274,1423.18 186.274,123.472 "/>
<polyline clip-path="url(#clip270)" style="stroke:#000000; stroke-linecap:round; stroke-linejoin:round; stroke-width:4; stroke-opacity:1; fill:none" points="186.274,1386.43 205.172,1386.43 "/>
<polyline clip-path="url(#clip270)" style="stroke:#000000; stroke-linecap:round; stroke-linejoin:round; stroke-width:4; stroke-opacity:1; fill:none" points="186.274,1079.83 205.172,1079.83 "/>
<polyline clip-path="url(#clip270)" style="stroke:#000000; stroke-linecap:round; stroke-linejoin:round; stroke-width:4; stroke-opacity:1; fill:none" points="186.274,773.232 205.172,773.232 "/>
<polyline clip-path="url(#clip270)" style="stroke:#000000; stroke-linecap:round; stroke-linejoin:round; stroke-width:4; stroke-opacity:1; fill:none" points="186.274,466.634 205.172,466.634 "/>
<polyline clip-path="url(#clip270)" style="stroke:#000000; stroke-linecap:round; stroke-linejoin:round; stroke-width:4; stroke-opacity:1; fill:none" points="186.274,160.036 205.172,160.036 "/>
<path clip-path="url(#clip270)" d="M62.9365 1372.23 Q59.3254 1372.23 57.4967 1375.79 Q55.6912 1379.33 55.6912 1386.46 Q55.6912 1393.57 57.4967 1397.13 Q59.3254 1400.68 62.9365 1400.68 Q66.5707 1400.68 68.3763 1397.13 Q70.205 1393.57 70.205 1386.46 Q70.205 1379.33 68.3763 1375.79 Q66.5707 1372.23 62.9365 1372.23 M62.9365 1368.52 Q68.7467 1368.52 71.8022 1373.13 Q74.8809 1377.71 74.8809 1386.46 Q74.8809 1395.19 71.8022 1399.8 Q68.7467 1404.38 62.9365 1404.38 Q57.1264 1404.38 54.0477 1399.8 Q50.9921 1395.19 50.9921 1386.46 Q50.9921 1377.71 54.0477 1373.13 Q57.1264 1368.52 62.9365 1368.52 Z" fill="#000000" fill-rule="evenodd" fill-opacity="1" /><path clip-path="url(#clip270)" d="M83.0984 1397.83 L87.9827 1397.83 L87.9827 1403.71 L83.0984 1403.71 L83.0984 1397.83 Z" fill="#000000" fill-rule="evenodd" fill-opacity="1" /><path clip-path="url(#clip270)" d="M108.168 1372.23 Q104.557 1372.23 102.728 1375.79 Q100.922 1379.33 100.922 1386.46 Q100.922 1393.57 102.728 1397.13 Q104.557 1400.68 108.168 1400.68 Q111.802 1400.68 113.608 1397.13 Q115.436 1393.57 115.436 1386.46 Q115.436 1379.33 113.608 1375.79 Q111.802 1372.23 108.168 1372.23 M108.168 1368.52 Q113.978 1368.52 117.033 1373.13 Q120.112 1377.71 120.112 1386.46 Q120.112 1395.19 117.033 1399.8 Q113.978 1404.38 108.168 1404.38 Q102.358 1404.38 99.2789 1399.8 Q96.2234 1395.19 96.2234 1386.46 Q96.2234 1377.71 99.2789 1373.13 Q102.358 1368.52 108.168 1368.52 Z" fill="#000000" fill-rule="evenodd" fill-opacity="1" /><path clip-path="url(#clip270)" d="M138.33 1372.23 Q134.719 1372.23 132.89 1375.79 Q131.084 1379.33 131.084 1386.46 Q131.084 1393.57 132.89 1397.13 Q134.719 1400.68 138.33 1400.68 Q141.964 1400.68 143.769 1397.13 Q145.598 1393.57 145.598 1386.46 Q145.598 1379.33 143.769 1375.79 Q141.964 1372.23 138.33 1372.23 M138.33 1368.52 Q144.14 1368.52 147.195 1373.13 Q150.274 1377.71 150.274 1386.46 Q150.274 1395.19 147.195 1399.8 Q144.14 1404.38 138.33 1404.38 Q132.519 1404.38 129.441 1399.8 Q126.385 1395.19 126.385 1386.46 Q126.385 1377.71 129.441 1373.13 Q132.519 1368.52 138.33 1368.52 Z" fill="#000000" fill-rule="evenodd" fill-opacity="1" /><path clip-path="url(#clip270)" d="M63.9319 1065.63 Q60.3208 1065.63 58.4921 1069.19 Q56.6865 1072.74 56.6865 1079.86 Q56.6865 1086.97 58.4921 1090.54 Q60.3208 1094.08 63.9319 1094.08 Q67.5661 1094.08 69.3717 1090.54 Q71.2004 1086.97 71.2004 1079.86 Q71.2004 1072.74 69.3717 1069.19 Q67.5661 1065.63 63.9319 1065.63 M63.9319 1061.93 Q69.742 1061.93 72.7976 1066.53 Q75.8763 1071.11 75.8763 1079.86 Q75.8763 1088.59 72.7976 1093.2 Q69.742 1097.78 63.9319 1097.78 Q58.1217 1097.78 55.043 1093.2 Q51.9875 1088.59 51.9875 1079.86 Q51.9875 1071.11 55.043 1066.53 Q58.1217 1061.93 63.9319 1061.93 Z" fill="#000000" fill-rule="evenodd" fill-opacity="1" /><path clip-path="url(#clip270)" d="M84.0938 1091.23 L88.978 1091.23 L88.978 1097.11 L84.0938 1097.11 L84.0938 1091.23 Z" fill="#000000" fill-rule="evenodd" fill-opacity="1" /><path clip-path="url(#clip270)" d="M103.191 1093.18 L119.51 1093.18 L119.51 1097.11 L97.566 1097.11 L97.566 1093.18 Q100.228 1090.42 104.811 1085.79 Q109.418 1081.14 110.598 1079.8 Q112.844 1077.27 113.723 1075.54 Q114.626 1073.78 114.626 1072.09 Q114.626 1069.33 112.682 1067.6 Q110.76 1065.86 107.658 1065.86 Q105.459 1065.86 103.006 1066.62 Q100.575 1067.39 97.7974 1068.94 L97.7974 1064.22 Q100.621 1063.08 103.075 1062.5 Q105.529 1061.93 107.566 1061.93 Q112.936 1061.93 116.131 1064.61 Q119.325 1067.3 119.325 1071.79 Q119.325 1073.92 118.515 1075.84 Q117.728 1077.74 115.621 1080.33 Q115.043 1081 111.941 1084.22 Q108.839 1087.41 103.191 1093.18 Z" fill="#000000" fill-rule="evenodd" fill-opacity="1" /><path clip-path="url(#clip270)" d="M129.371 1062.55 L147.728 1062.55 L147.728 1066.49 L133.654 1066.49 L133.654 1074.96 Q134.672 1074.61 135.691 1074.45 Q136.709 1074.26 137.728 1074.26 Q143.515 1074.26 146.894 1077.43 Q150.274 1080.61 150.274 1086.02 Q150.274 1091.6 146.802 1094.7 Q143.33 1097.78 137.01 1097.78 Q134.834 1097.78 132.566 1097.41 Q130.32 1097.04 127.913 1096.3 L127.913 1091.6 Q129.996 1092.74 132.219 1093.29 Q134.441 1093.85 136.918 1093.85 Q140.922 1093.85 143.26 1091.74 Q145.598 1089.63 145.598 1086.02 Q145.598 1082.41 143.26 1080.3 Q140.922 1078.2 136.918 1078.2 Q135.043 1078.2 133.168 1078.61 Q131.316 1079.03 129.371 1079.91 L129.371 1062.55 Z" fill="#000000" fill-rule="evenodd" fill-opacity="1" /><path clip-path="url(#clip270)" d="M62.9365 759.031 Q59.3254 759.031 57.4967 762.595 Q55.6912 766.137 55.6912 773.267 Q55.6912 780.373 57.4967 783.938 Q59.3254 787.48 62.9365 787.48 Q66.5707 787.48 68.3763 783.938 Q70.205 780.373 70.205 773.267 Q70.205 766.137 68.3763 762.595 Q66.5707 759.031 62.9365 759.031 M62.9365 755.327 Q68.7467 755.327 71.8022 759.933 Q74.8809 764.517 74.8809 773.267 Q74.8809 781.994 71.8022 786.6 Q68.7467 791.183 62.9365 791.183 Q57.1264 791.183 54.0477 786.6 Q50.9921 781.994 50.9921 773.267 Q50.9921 764.517 54.0477 759.933 Q57.1264 755.327 62.9365 755.327 Z" fill="#000000" fill-rule="evenodd" fill-opacity="1" /><path clip-path="url(#clip270)" d="M83.0984 784.632 L87.9827 784.632 L87.9827 790.512 L83.0984 790.512 L83.0984 784.632 Z" fill="#000000" fill-rule="evenodd" fill-opacity="1" /><path clip-path="url(#clip270)" d="M98.2141 755.952 L116.57 755.952 L116.57 759.887 L102.496 759.887 L102.496 768.359 Q103.515 768.012 104.534 767.85 Q105.552 767.665 106.571 767.665 Q112.358 767.665 115.737 770.836 Q119.117 774.007 119.117 779.424 Q119.117 785.003 115.645 788.105 Q112.172 791.183 105.853 791.183 Q103.677 791.183 101.409 790.813 Q99.1632 790.443 96.7558 789.702 L96.7558 785.003 Q98.8391 786.137 101.061 786.693 Q103.284 787.248 105.76 787.248 Q109.765 787.248 112.103 785.142 Q114.441 783.035 114.441 779.424 Q114.441 775.813 112.103 773.707 Q109.765 771.6 105.76 771.6 Q103.885 771.6 102.01 772.017 Q100.159 772.433 98.2141 773.313 L98.2141 755.952 Z" fill="#000000" fill-rule="evenodd" fill-opacity="1" /><path clip-path="url(#clip270)" d="M138.33 759.031 Q134.719 759.031 132.89 762.595 Q131.084 766.137 131.084 773.267 Q131.084 780.373 132.89 783.938 Q134.719 787.48 138.33 787.48 Q141.964 787.48 143.769 783.938 Q145.598 780.373 145.598 773.267 Q145.598 766.137 143.769 762.595 Q141.964 759.031 138.33 759.031 M138.33 755.327 Q144.14 755.327 147.195 759.933 Q150.274 764.517 150.274 773.267 Q150.274 781.994 147.195 786.6 Q144.14 791.183 138.33 791.183 Q132.519 791.183 129.441 786.6 Q126.385 781.994 126.385 773.267 Q126.385 764.517 129.441 759.933 Q132.519 755.327 138.33 755.327 Z" fill="#000000" fill-rule="evenodd" fill-opacity="1" /><path clip-path="url(#clip270)" d="M63.9319 452.433 Q60.3208 452.433 58.4921 455.997 Q56.6865 459.539 56.6865 466.669 Q56.6865 473.775 58.4921 477.34 Q60.3208 480.881 63.9319 480.881 Q67.5661 480.881 69.3717 477.34 Q71.2004 473.775 71.2004 466.669 Q71.2004 459.539 69.3717 455.997 Q67.5661 452.433 63.9319 452.433 M63.9319 448.729 Q69.742 448.729 72.7976 453.335 Q75.8763 457.919 75.8763 466.669 Q75.8763 475.395 72.7976 480.002 Q69.742 484.585 63.9319 484.585 Q58.1217 484.585 55.043 480.002 Q51.9875 475.395 51.9875 466.669 Q51.9875 457.919 55.043 453.335 Q58.1217 448.729 63.9319 448.729 Z" fill="#000000" fill-rule="evenodd" fill-opacity="1" /><path clip-path="url(#clip270)" d="M84.0938 478.034 L88.978 478.034 L88.978 483.914 L84.0938 483.914 L84.0938 478.034 Z" fill="#000000" fill-rule="evenodd" fill-opacity="1" /><path clip-path="url(#clip270)" d="M97.9826 449.354 L120.205 449.354 L120.205 451.345 L107.658 483.914 L102.774 483.914 L114.58 453.289 L97.9826 453.289 L97.9826 449.354 Z" fill="#000000" fill-rule="evenodd" fill-opacity="1" /><path clip-path="url(#clip270)" d="M129.371 449.354 L147.728 449.354 L147.728 453.289 L133.654 453.289 L133.654 461.761 Q134.672 461.414 135.691 461.252 Q136.709 461.067 137.728 461.067 Q143.515 461.067 146.894 464.238 Q150.274 467.409 150.274 472.826 Q150.274 478.405 146.802 481.506 Q143.33 484.585 137.01 484.585 Q134.834 484.585 132.566 484.215 Q130.32 483.844 127.913 483.104 L127.913 478.405 Q129.996 479.539 132.219 480.094 Q134.441 480.65 136.918 480.65 Q140.922 480.65 143.26 478.543 Q145.598 476.437 145.598 472.826 Q145.598 469.215 143.26 467.108 Q140.922 465.002 136.918 465.002 Q135.043 465.002 133.168 465.419 Q131.316 465.835 129.371 466.715 L129.371 449.354 Z" fill="#000000" fill-rule="evenodd" fill-opacity="1" /><path clip-path="url(#clip270)" d="M53.7467 173.38 L61.3856 173.38 L61.3856 147.015 L53.0754 148.682 L53.0754 144.422 L61.3393 142.756 L66.0152 142.756 L66.0152 173.38 L73.654 173.38 L73.654 177.316 L53.7467 177.316 L53.7467 173.38 Z" fill="#000000" fill-rule="evenodd" fill-opacity="1" /><path clip-path="url(#clip270)" d="M83.0984 171.436 L87.9827 171.436 L87.9827 177.316 L83.0984 177.316 L83.0984 171.436 Z" fill="#000000" fill-rule="evenodd" fill-opacity="1" /><path clip-path="url(#clip270)" d="M108.168 145.834 Q104.557 145.834 102.728 149.399 Q100.922 152.941 100.922 160.07 Q100.922 167.177 102.728 170.742 Q104.557 174.283 108.168 174.283 Q111.802 174.283 113.608 170.742 Q115.436 167.177 115.436 160.07 Q115.436 152.941 113.608 149.399 Q111.802 145.834 108.168 145.834 M108.168 142.131 Q113.978 142.131 117.033 146.737 Q120.112 151.32 120.112 160.07 Q120.112 168.797 117.033 173.404 Q113.978 177.987 108.168 177.987 Q102.358 177.987 99.2789 173.404 Q96.2234 168.797 96.2234 160.07 Q96.2234 151.32 99.2789 146.737 Q102.358 142.131 108.168 142.131 Z" fill="#000000" fill-rule="evenodd" fill-opacity="1" /><path clip-path="url(#clip270)" d="M138.33 145.834 Q134.719 145.834 132.89 149.399 Q131.084 152.941 131.084 160.07 Q131.084 167.177 132.89 170.742 Q134.719 174.283 138.33 174.283 Q141.964 174.283 143.769 170.742 Q145.598 167.177 145.598 160.07 Q145.598 152.941 143.769 149.399 Q141.964 145.834 138.33 145.834 M138.33 142.131 Q144.14 142.131 147.195 146.737 Q150.274 151.32 150.274 160.07 Q150.274 168.797 147.195 173.404 Q144.14 177.987 138.33 177.987 Q132.519 177.987 129.441 173.404 Q126.385 168.797 126.385 160.07 Q126.385 151.32 129.441 146.737 Q132.519 142.131 138.33 142.131 Z" fill="#000000" fill-rule="evenodd" fill-opacity="1" /><path clip-path="url(#clip270)" d="M862.581 54.671 L862.581 27.2059 L870.035 27.2059 L870.035 54.3874 Q870.035 60.8284 872.547 64.0691 Q875.058 67.2693 880.081 67.2693 Q886.117 67.2693 889.601 63.421 Q893.125 59.5726 893.125 52.9291 L893.125 27.2059 L900.579 27.2059 L900.579 72.576 L893.125 72.576 L893.125 65.6084 Q890.411 69.7404 886.806 71.7658 Q883.241 73.7508 878.501 73.7508 Q870.683 73.7508 866.632 68.8897 Q862.581 64.0286 862.581 54.671 M881.337 26.1121 L881.337 26.1121 Z" fill="#000000" fill-rule="evenodd" fill-opacity="1" /><path clip-path="url(#clip270)" d="M916.904 34.9026 L968.837 34.9026 L968.837 41.7081 L916.904 41.7081 L916.904 34.9026 M916.904 51.4303 L968.837 51.4303 L968.837 58.3168 L916.904 58.3168 L916.904 51.4303 Z" fill="#000000" fill-rule="evenodd" fill-opacity="1" /><path clip-path="url(#clip270)" d="M993.547 65.6895 L1022.11 65.6895 L1022.11 72.576 L983.703 72.576 L983.703 65.6895 Q988.362 60.8689 996.383 52.7671 Q1004.44 44.6248 1006.51 42.2752 Q1010.44 37.8598 1011.98 34.8216 Q1013.56 31.7429 1013.56 28.7857 Q1013.56 23.9651 1010.16 20.927 Q1006.79 17.8888 1001.37 17.8888 Q997.517 17.8888 993.223 19.2256 Q988.97 20.5624 984.108 23.2765 L984.108 15.0127 Q989.051 13.0277 993.345 12.015 Q997.639 11.0023 1001.2 11.0023 Q1010.6 11.0023 1016.19 15.7013 Q1021.78 20.4004 1021.78 28.2591 Q1021.78 31.9859 1020.36 35.3482 Q1018.99 38.6699 1015.3 43.2069 Q1014.29 44.3817 1008.86 50.0125 Q1003.43 55.6027 993.547 65.6895 Z" fill="#000000" fill-rule="evenodd" fill-opacity="1" /><path clip-path="url(#clip270)" d="M1040.13 62.2867 L1048.68 62.2867 L1048.68 69.2543 L1042.04 82.2172 L1036.81 82.2172 L1040.13 69.2543 L1040.13 62.2867 Z" fill="#000000" fill-rule="evenodd" fill-opacity="1" /><path clip-path="url(#clip270)" d="M1117.42 51.4708 L1115.64 42.1132 Q1113.82 32.5126 1106.61 32.5126 Q1101.18 32.5126 1098.71 36.9686 Q1095.59 42.5588 1095.59 49.9314 Q1095.59 58.8434 1098.63 63.0969 Q1101.71 67.4314 1106.61 67.4314 Q1112.04 67.4314 1114.95 58.8029 L1117.42 51.4708 M1121.6 39.075 L1125.61 27.2059 L1132.25 27.2059 L1123.95 51.7949 L1125.57 60.6663 Q1125.93 62.6513 1127.35 64.3122 Q1129.01 66.2566 1130.31 66.2566 L1133.87 66.2566 L1133.87 72.576 L1129.41 72.576 Q1125.61 72.576 1122.2 69.1732 Q1120.54 67.4719 1119.85 63.9071 Q1117.99 68.4036 1114.18 71.9279 Q1112.4 73.5887 1106.61 73.5887 Q1097.09 73.5887 1092.47 67.4314 Q1087.73 61.0714 1087.73 49.9314 Q1087.73 38.0218 1092.88 32.4315 Q1098.59 26.1931 1106.61 26.1931 Q1119.21 26.1931 1121.6 39.075 Z" fill="#000000" fill-rule="evenodd" fill-opacity="1" /><path clip-path="url(#clip270)" d="M1146.63 34.9026 L1198.56 34.9026 L1198.56 41.7081 L1146.63 41.7081 L1146.63 34.9026 M1146.63 51.4303 L1198.56 51.4303 L1198.56 58.3168 L1146.63 58.3168 L1146.63 51.4303 Z" fill="#000000" fill-rule="evenodd" fill-opacity="1" /><path clip-path="url(#clip270)" d="M1217.64 65.6895 L1231.01 65.6895 L1231.01 19.5497 L1216.47 22.4663 L1216.47 15.0127 L1230.93 12.096 L1239.11 12.096 L1239.11 65.6895 L1252.48 65.6895 L1252.48 72.576 L1217.64 72.576 L1217.64 65.6895 Z" fill="#000000" fill-rule="evenodd" fill-opacity="1" /><path clip-path="url(#clip270)" d="M1269.01 62.2867 L1277.56 62.2867 L1277.56 72.576 L1269.01 72.576 L1269.01 62.2867 Z" fill="#000000" fill-rule="evenodd" fill-opacity="1" /><path clip-path="url(#clip270)" d="M1295.46 12.096 L1327.58 12.096 L1327.58 18.9825 L1302.96 18.9825 L1302.96 33.8088 Q1304.74 33.2012 1306.52 32.9176 Q1308.3 32.5936 1310.08 32.5936 Q1320.21 32.5936 1326.13 38.1433 Q1332.04 43.6931 1332.04 53.1722 Q1332.04 62.9348 1325.96 68.3631 Q1319.89 73.7508 1308.83 73.7508 Q1305.02 73.7508 1301.05 73.1026 Q1297.12 72.4545 1292.91 71.1582 L1292.91 62.9348 Q1296.55 64.9198 1300.44 65.892 Q1304.33 66.8642 1308.67 66.8642 Q1315.68 66.8642 1319.77 63.1779 Q1323.86 59.4916 1323.86 53.1722 Q1323.86 46.8528 1319.77 43.1664 Q1315.68 39.4801 1308.67 39.4801 Q1305.39 39.4801 1302.1 40.2093 Q1298.86 40.9384 1295.46 42.4778 L1295.46 12.096 Z" fill="#000000" fill-rule="evenodd" fill-opacity="1" /><path clip-path="url(#clip270)" d="M1349.01 62.2867 L1357.56 62.2867 L1357.56 69.2543 L1350.92 82.2172 L1345.69 82.2172 L1349.01 69.2543 L1349.01 62.2867 Z" fill="#000000" fill-rule="evenodd" fill-opacity="1" /><path clip-path="url(#clip270)" d="M1400.18 12.096 L1411.2 12.096 L1438.01 62.6918 L1438.01 12.096 L1445.95 12.096 L1445.95 72.576 L1434.93 72.576 L1408.12 21.9802 L1408.12 72.576 L1400.18 72.576 L1400.18 12.096 Z" fill="#000000" fill-rule="evenodd" fill-opacity="1" /><path clip-path="url(#clip270)" d="M1462.88 34.9026 L1514.82 34.9026 L1514.82 41.7081 L1462.88 41.7081 L1462.88 34.9026 M1462.88 51.4303 L1514.82 51.4303 L1514.82 58.3168 L1462.88 58.3168 L1462.88 51.4303 Z" fill="#000000" fill-rule="evenodd" fill-opacity="1" /><path clip-path="url(#clip270)" d="M1533.9 65.6895 L1547.27 65.6895 L1547.27 19.5497 L1532.72 22.4663 L1532.72 15.0127 L1547.18 12.096 L1555.37 12.096 L1555.37 65.6895 L1568.73 65.6895 L1568.73 72.576 L1533.9 72.576 L1533.9 65.6895 Z" fill="#000000" fill-rule="evenodd" fill-opacity="1" /><path clip-path="url(#clip270)" d="M1602.76 17.4837 Q1596.44 17.4837 1593.24 23.7221 Q1590.08 29.92 1590.08 42.3968 Q1590.08 54.833 1593.24 61.0714 Q1596.44 67.2693 1602.76 67.2693 Q1609.12 67.2693 1612.28 61.0714 Q1615.48 54.833 1615.48 42.3968 Q1615.48 29.92 1612.28 23.7221 Q1609.12 17.4837 1602.76 17.4837 M1602.76 11.0023 Q1612.93 11.0023 1618.28 19.0636 Q1623.67 27.0843 1623.67 42.3968 Q1623.67 57.6687 1618.28 65.73 Q1612.93 73.7508 1602.76 73.7508 Q1592.59 73.7508 1587.21 65.73 Q1581.86 57.6687 1581.86 42.3968 Q1581.86 27.0843 1587.21 19.0636 Q1592.59 11.0023 1602.76 11.0023 Z" fill="#000000" fill-rule="evenodd" fill-opacity="1" /><path clip-path="url(#clip270)" d="M1655.55 17.4837 Q1649.23 17.4837 1646.03 23.7221 Q1642.87 29.92 1642.87 42.3968 Q1642.87 54.833 1646.03 61.0714 Q1649.23 67.2693 1655.55 67.2693 Q1661.91 67.2693 1665.07 61.0714 Q1668.27 54.833 1668.27 42.3968 Q1668.27 29.92 1665.07 23.7221 Q1661.91 17.4837 1655.55 17.4837 M1655.55 11.0023 Q1665.71 11.0023 1671.06 19.0636 Q1676.45 27.0843 1676.45 42.3968 Q1676.45 57.6687 1671.06 65.73 Q1665.71 73.7508 1655.55 73.7508 Q1645.38 73.7508 1639.99 65.73 Q1634.64 57.6687 1634.64 42.3968 Q1634.64 27.0843 1639.99 19.0636 Q1645.38 11.0023 1655.55 11.0023 Z" fill="#000000" fill-rule="evenodd" fill-opacity="1" /><polyline clip-path="url(#clip272)" style="stroke:#009af9; stroke-linecap:round; stroke-linejoin:round; stroke-width:4; stroke-opacity:1; fill:none" points="247.59,1386.33 247.797,1385.8 248.005,1384.83 248.213,1383.42 248.421,1381.59 248.629,1379.37 248.837,1376.78 249.045,1373.86 249.253,1370.64 249.669,1363.48 250.085,1355.64 250.5,1347.5 250.916,1339.42 251.332,1331.75 251.748,1324.8 251.956,1321.67 252.164,1318.81 252.372,1316.23 252.579,1313.95 252.787,1311.98 252.995,1310.33 253.203,1308.98 253.411,1307.95 253.619,1307.21 253.827,1306.75 254.035,1306.56 254.243,1306.61 254.659,1307.34 255.074,1308.71 255.49,1310.48 255.906,1312.4 256.322,1314.24 256.738,1315.8 257.154,1316.91 257.569,1317.47 257.985,1317.42 258.401,1316.77 258.817,1315.58 259.233,1313.93 259.649,1311.97 260.064,1309.85 260.272,1308.77 260.48,1307.71 260.688,1306.68 260.896,1305.71 261.857,1302.3 262.819,1301.21 263.78,1302.3 264.741,1304.54 265.702,1306.52 266.664,1307.1 267.625,1305.89 268.586,1303.32 269.547,1300.4 270.509,1298.22 271.47,1297.46 272.431,1298.13 273.392,1299.62 274.353,1300.99 275.315,1301.45 276.276,1300.64 277.237,1298.84 278.198,1296.72 279.16,1295.09 280.121,1294.48 281.082,1294.93 282.043,1296.02 283.005,1297.06 283.966,1297.43 284.927,1296.83 285.888,1295.43 286.85,1293.77 287.811,1292.45 288.772,1291.92 289.733,1292.24 290.695,1293.08 291.656,1293.91 292.617,1294.2 293.578,1293.73 294.539,1292.59 295.501,1291.21 296.462,1290.1 297.423,1289.63 298.384,1289.85 299.346,1290.52 300.307,1291.19 301.268,1291.44 302.229,1291.03 303.191,1290.08 304.152,1288.9 305.113,1287.94 306.074,1287.5 307.036,1287.66 307.997,1288.2 308.958,1288.76 309.919,1288.96 310.881,1288.61 311.842,1287.78 312.803,1286.76 313.764,1285.9 314.725,1285.49 315.687,1285.6 316.648,1286.04 317.609,1286.51 318.57,1286.67 319.532,1286.36 320.493,1285.63 321.454,1284.72 322.415,1283.95 323.377,1283.57 324.338,1283.63 325.299,1284 326.26,1284.39 327.222,1284.52 328.183,1284.24 329.144,1283.58 330.105,1282.77 333.95,1282.04 337.795,1281.61 345.485,1280.24 353.175,1278.56 368.555,1274.68 383.935,1271.18 420.905,1264.29 457.876,1257.08 489.134,1250.85 520.392,1244.67 588.302,1231.74 650.909,1219.88 718.031,1207.5 795.798,1193.28 864.908,1180.81 925.511,1170.06 958.548,1164.4 991.585,1158.99 1024.82,1153.59 1058.05,1148.12 1067.24,1146.81 1076.42,1145.5 1078.72,1144.52 1081.02,1143.57 1082.16,1143.69 1083.31,1144.07 1084.46,1144.36 1085.61,1144.21 1086.76,1143.56 1087.91,1142.69 1089.05,1142.06 1090.2,1142.03 1091.35,1142.58 1092.5,1143.31 1093.65,1143.59 1094.79,1143.01 1095.94,1141.69 1097.09,1140.31 1097.67,1139.89 1098.24,1139.82 1098.81,1140.16 1099.39,1140.97 1099.96,1142.22 1100.54,1143.84 1101.11,1145.72 1101.68,1147.71 1102.26,1149.63 1102.83,1151.31 1103.41,1152.6 1103.98,1153.4 1104.55,1153.64 1105.13,1153.32 1105.7,1152.5 1106.28,1151.29 1107.43,1148.25 1108.57,1145.41 1109.15,1144.36 1109.72,1143.66 1110.3,1143.29 1110.87,1143.23 1112.02,1143.72 1113.17,1144.36 1114.31,1144.53 1115.46,1144.02 1116.61,1143.08 1117.76,1142.2 1118.91,1141.77 1120.06,1141.85 1121.2,1142.19 1122.35,1142.42 1124.65,1141.75 1126.95,1140.68 1128.09,1140.57 1129.24,1140.74 1130.39,1140.94 1131.54,1140.94 1149.02,1138.56 1166.5,1136.48 1183.98,1134.53 1201.46,1132.67 1274.16,1125.44 1335.36,1120.13 1410.08,1114.06 1478.52,1108.88 1541.74,1104.45 1605.77,1100.31 1677.54,1095.85 1742.57,1092.34 1817.03,1088.49 1885.97,1085.45 1902.96,1084.78 1919.95,1084.2 1928.45,1083.96 1936.94,1083.79 1938,1084.22 1939.07,1084.74 1940.13,1085.04 1941.19,1084.95 1942.25,1084.49 1943.31,1083.91 1944.38,1083.57 1945.44,1083.73 1946.5,1084.4 1947.56,1085.3 1948.62,1085.98 1949.68,1086.04 1950.75,1085.39 1951.81,1084.37 1952.87,1083.64 1953.93,1083.94 1954.45,1084.61 1954.96,1085.66 1955.48,1087.06 1955.99,1088.74 1957.03,1092.61 1958.06,1096.32 1958.57,1097.8 1959.09,1098.9 1959.6,1099.53 1960.12,1099.67 1960.63,1099.31 1961.15,1098.5 1961.67,1097.32 1962.18,1095.85 1963.21,1092.57 1964.24,1089.56 1964.76,1088.4 1965.27,1087.52 1965.79,1086.95 1966.31,1086.67 1967.34,1086.79 1968.37,1087.36 1969.4,1087.82 1970.43,1087.82 1971.46,1087.29 1972.49,1086.46 1973.52,1085.67 1974.55,1085.2 1976.62,1085.33 1978.68,1085.68 1980.74,1085.05 1982.8,1084.17 1983.83,1084.02 1984.87,1084.08 1985.9,1084.24 1986.93,1084.33 1995.18,1083.25 2003.43,1082.32 2011.67,1081.47 2019.92,1080.67 2053.75,1077.79 2087.57,1075.12 2124.63,1072.44 2161.69,1069.77 2215.52,1066.31 2269.35,1063.27 2280.4,1062.69 2291.44,1062.03 "/>
<polyline clip-path="url(#clip272)" style="stroke:#e26f46; stroke-linecap:round; stroke-linejoin:round; stroke-width:4; stroke-opacity:1; fill:none" points="247.59,1386.4 248.005,1385.89 248.421,1384.8 248.837,1383.15 249.253,1380.99 249.669,1378.39 250.085,1375.42 250.5,1372.17 250.916,1368.72 251.748,1361.58 252.579,1354.67 252.995,1351.47 253.411,1348.51 253.827,1345.82 254.243,1343.42 254.659,1341.31 255.074,1339.49 255.49,1337.94 255.906,1336.64 256.738,1334.63 257.569,1333.16 258.401,1331.96 259.233,1330.8 259.649,1330.19 260.064,1329.56 260.48,1328.89 260.896,1328.21 262.819,1325.01 264.741,1322.51 266.664,1320.88 268.586,1319.5 270.509,1317.92 272.431,1316.36 274.353,1315.16 276.276,1314.23 280.121,1312.21 283.966,1310.5 287.811,1309.05 291.656,1307.62 299.346,1305.26 307.036,1303.24 314.725,1301.46 322.415,1299.86 337.795,1296.99 353.175,1294.45 368.555,1292.14 383.935,1290.01 402.42,1287.59 420.905,1285.3 439.391,1283.09 457.876,1280.95 489.134,1277.45 520.392,1274.06 588.302,1266.93 650.909,1260.56 718.031,1253.89 795.798,1246.31 864.908,1239.68 925.511,1233.95 991.585,1227.78 1058.05,1221.68 1131.54,1215.26 1201.46,1209.48 1274.16,1203.78 1335.36,1199.22 1410.08,1193.95 1478.52,1189.36 1541.74,1185.32 1605.77,1181.41 1677.54,1177.23 1742.57,1173.61 1817.03,1169.66 1885.97,1166.18 1953.93,1162.93 2019.92,1160.04 2087.57,1157.02 2161.69,1153.74 2269.35,1149.09 2291.44,1148.16 "/>
<polyline clip-path="url(#clip272)" style="stroke:#3da44d; stroke-linecap:round; stroke-linejoin:round; stroke-width:4; stroke-opacity:1; fill:none" points="-1980.21,1102.76 4519.24,1102.76 "/>
<polyline clip-path="url(#clip272)" style="stroke:#3da44d; stroke-linecap:round; stroke-linejoin:round; stroke-width:4; stroke-opacity:1; fill:none" points="-1980.21,1102.76 4519.24,1102.76 "/>
<polyline clip-path="url(#clip272)" style="stroke:#3da44d; stroke-linecap:round; stroke-linejoin:round; stroke-width:4; stroke-opacity:1; fill:none" points="-1980.21,1102.76 4519.24,1102.76 "/>
<polyline clip-path="url(#clip272)" style="stroke:#3da44d; stroke-linecap:round; stroke-linejoin:round; stroke-width:4; stroke-opacity:1; fill:none" points="-1980.21,1102.76 4519.24,1102.76 "/>
<polyline clip-path="url(#clip272)" style="stroke:#3da44d; stroke-linecap:round; stroke-linejoin:round; stroke-width:4; stroke-opacity:1; fill:none" points="-1980.21,1102.76 4519.24,1102.76 "/>
<polyline clip-path="url(#clip272)" style="stroke:#3da44d; stroke-linecap:round; stroke-linejoin:round; stroke-width:4; stroke-opacity:1; fill:none" points="-1980.21,1102.76 4519.24,1102.76 "/>
<polyline clip-path="url(#clip272)" style="stroke:#3da44d; stroke-linecap:round; stroke-linejoin:round; stroke-width:4; stroke-opacity:1; fill:none" points="-1980.21,1102.76 4519.24,1102.76 "/>
<polyline clip-path="url(#clip272)" style="stroke:#3da44d; stroke-linecap:round; stroke-linejoin:round; stroke-width:4; stroke-opacity:1; fill:none" points="-1980.21,1102.76 4519.24,1102.76 "/>
<polyline clip-path="url(#clip272)" style="stroke:#3da44d; stroke-linecap:round; stroke-linejoin:round; stroke-width:4; stroke-opacity:1; fill:none" points="-1980.21,1102.76 4519.24,1102.76 "/>
<polyline clip-path="url(#clip272)" style="stroke:#3da44d; stroke-linecap:round; stroke-linejoin:round; stroke-width:4; stroke-opacity:1; fill:none" points="-1980.21,1102.76 4519.24,1102.76 "/>
<polyline clip-path="url(#clip272)" style="stroke:#3da44d; stroke-linecap:round; stroke-linejoin:round; stroke-width:4; stroke-opacity:1; fill:none" points="-1980.21,1102.76 4519.24,1102.76 "/>
<polyline clip-path="url(#clip272)" style="stroke:#3da44d; stroke-linecap:round; stroke-linejoin:round; stroke-width:4; stroke-opacity:1; fill:none" points="-1980.21,1102.76 4519.24,1102.76 "/>
<polyline clip-path="url(#clip272)" style="stroke:#3da44d; stroke-linecap:round; stroke-linejoin:round; stroke-width:4; stroke-opacity:1; fill:none" points="-1980.21,1102.76 4519.24,1102.76 "/>
<polyline clip-path="url(#clip272)" style="stroke:#3da44d; stroke-linecap:round; stroke-linejoin:round; stroke-width:4; stroke-opacity:1; fill:none" points="-1980.21,1102.76 4519.24,1102.76 "/>
<polyline clip-path="url(#clip272)" style="stroke:#3da44d; stroke-linecap:round; stroke-linejoin:round; stroke-width:4; stroke-opacity:1; fill:none" points="-1980.21,1102.76 4519.24,1102.76 "/>
<polyline clip-path="url(#clip272)" style="stroke:#3da44d; stroke-linecap:round; stroke-linejoin:round; stroke-width:4; stroke-opacity:1; fill:none" points="-1980.21,1102.76 4519.24,1102.76 "/>
<polyline clip-path="url(#clip272)" style="stroke:#3da44d; stroke-linecap:round; stroke-linejoin:round; stroke-width:4; stroke-opacity:1; fill:none" points="-1980.21,1102.76 4519.24,1102.76 "/>
<polyline clip-path="url(#clip272)" style="stroke:#3da44d; stroke-linecap:round; stroke-linejoin:round; stroke-width:4; stroke-opacity:1; fill:none" points="-1980.21,1102.76 4519.24,1102.76 "/>
<polyline clip-path="url(#clip272)" style="stroke:#3da44d; stroke-linecap:round; stroke-linejoin:round; stroke-width:4; stroke-opacity:1; fill:none" points="-1980.21,1102.76 4519.24,1102.76 "/>
<polyline clip-path="url(#clip272)" style="stroke:#3da44d; stroke-linecap:round; stroke-linejoin:round; stroke-width:4; stroke-opacity:1; fill:none" points="-1980.21,1102.76 4519.24,1102.76 "/>
<polyline clip-path="url(#clip272)" style="stroke:#3da44d; stroke-linecap:round; stroke-linejoin:round; stroke-width:4; stroke-opacity:1; fill:none" points="-1980.21,1102.76 4519.24,1102.76 "/>
<polyline clip-path="url(#clip272)" style="stroke:#3da44d; stroke-linecap:round; stroke-linejoin:round; stroke-width:4; stroke-opacity:1; fill:none" points="-1980.21,1102.76 4519.24,1102.76 "/>
<polyline clip-path="url(#clip272)" style="stroke:#3da44d; stroke-linecap:round; stroke-linejoin:round; stroke-width:4; stroke-opacity:1; fill:none" points="-1980.21,1102.76 4519.24,1102.76 "/>
<polyline clip-path="url(#clip272)" style="stroke:#3da44d; stroke-linecap:round; stroke-linejoin:round; stroke-width:4; stroke-opacity:1; fill:none" points="-1980.21,1102.76 4519.24,1102.76 "/>
<polyline clip-path="url(#clip272)" style="stroke:#3da44d; stroke-linecap:round; stroke-linejoin:round; stroke-width:4; stroke-opacity:1; fill:none" points="-1980.21,1102.76 4519.24,1102.76 "/>
<polyline clip-path="url(#clip272)" style="stroke:#3da44d; stroke-linecap:round; stroke-linejoin:round; stroke-width:4; stroke-opacity:1; fill:none" points="-1980.21,1102.76 4519.24,1102.76 "/>
<polyline clip-path="url(#clip272)" style="stroke:#3da44d; stroke-linecap:round; stroke-linejoin:round; stroke-width:4; stroke-opacity:1; fill:none" points="-1980.21,1102.76 4519.24,1102.76 "/>
<polyline clip-path="url(#clip272)" style="stroke:#3da44d; stroke-linecap:round; stroke-linejoin:round; stroke-width:4; stroke-opacity:1; fill:none" points="-1980.21,1102.76 4519.24,1102.76 "/>
<polyline clip-path="url(#clip272)" style="stroke:#3da44d; stroke-linecap:round; stroke-linejoin:round; stroke-width:4; stroke-opacity:1; fill:none" points="-1980.21,1102.76 4519.24,1102.76 "/>
<polyline clip-path="url(#clip272)" style="stroke:#3da44d; stroke-linecap:round; stroke-linejoin:round; stroke-width:4; stroke-opacity:1; fill:none" points="-1980.21,1102.76 4519.24,1102.76 "/>
<polyline clip-path="url(#clip272)" style="stroke:#3da44d; stroke-linecap:round; stroke-linejoin:round; stroke-width:4; stroke-opacity:1; fill:none" points="-1980.21,1102.76 4519.24,1102.76 "/>
<polyline clip-path="url(#clip272)" style="stroke:#c271d2; stroke-linecap:round; stroke-linejoin:round; stroke-width:4; stroke-opacity:1; fill:none" points="247.59,160.256 247.797,161.44 248.005,163.631 248.213,166.8 248.421,170.906 248.629,175.893 248.837,181.695 249.045,188.235 249.253,195.429 249.669,211.395 250.085,228.783 250.5,246.735 250.916,264.401 251.124,272.875 251.332,280.989 251.54,288.659 251.748,295.814 251.956,302.39 252.164,308.337 252.372,313.612 252.579,318.188 252.787,322.049 252.995,325.189 253.203,327.615 253.411,329.346 253.619,330.41 253.827,330.846 254.035,330.702 254.243,330.031 254.659,327.363 255.074,323.388 255.49,318.689 255.906,313.844 256.322,309.385 256.738,305.759 256.946,304.369 257.154,303.304 257.362,302.586 257.569,302.229 257.777,302.237 257.985,302.607 258.193,303.327 258.401,304.38 258.817,307.372 259.233,311.312 259.649,315.861 260.064,320.646 260.272,323.01 260.48,325.293 260.584,326.392 260.688,327.456 260.792,328.48 260.896,329.459 261.857,335.82 262.819,336.488 263.78,332.342 264.741,326.237 265.702,321.565 266.664,320.725 267.625,324.16 268.586,330.34 269.547,336.604 270.509,340.443 271.47,340.612 272.431,337.598 273.392,333.281 274.353,329.993 275.315,329.436 276.276,331.948 277.237,336.438 278.198,340.962 279.16,343.663 280.121,343.611 281.082,341.181 282.043,337.81 283.005,335.293 283.966,334.936 284.927,336.984 285.888,340.555 286.85,344.102 287.811,346.15 288.772,345.974 289.733,343.904 290.695,341.126 291.656,339.106 292.617,338.894 293.578,340.661 294.539,343.653 295.501,346.57 296.462,348.19 297.423,347.935 298.384,346.112 299.346,343.745 300.307,342.073 301.268,341.971 302.229,343.552 303.191,346.143 304.152,348.617 305.113,349.935 306.074,349.624 307.036,347.982 307.997,345.917 308.958,344.506 309.919,344.49 310.881,345.938 311.842,348.233 312.803,350.378 313.764,351.468 314.725,351.116 315.687,349.614 316.648,347.782 317.609,346.574 318.57,346.628 319.532,347.976 320.493,350.044 321.454,351.932 322.415,352.846 323.377,352.462 324.338,351.071 325.299,349.425 326.26,348.381 327.222,348.494 328.183,349.763 329.144,351.649 330.105,353.332 331.067,354.103 332.028,353.694 332.989,352.393 333.95,350.901 334.912,349.993 335.873,350.154 336.834,351.361 337.795,353.098 338.756,354.611 339.718,355.264 340.679,354.835 341.64,353.611 342.601,352.247 343.563,351.453 344.524,351.657 345.485,352.812 346.446,354.425 347.408,355.796 348.369,356.349 349.33,355.902 350.291,354.744 351.253,353.491 352.214,352.795 353.175,353.036 354.136,354.147 355.098,355.653 356.059,356.902 357.02,357.371 357.981,356.909 358.942,355.808 359.904,354.65 360.865,354.04 361.826,354.314 362.787,355.387 363.749,356.802 364.71,357.945 365.671,358.34 366.632,357.866 367.594,356.814 368.555,355.741 369.516,355.206 370.477,355.509 371.439,356.55 372.4,357.884 373.361,358.934 374.322,359.264 375.284,358.779 376.245,357.772 377.206,356.774 378.167,356.307 379.129,356.636 380.09,357.648 381.051,358.911 382.012,359.878 382.973,360.15 383.935,359.656 393.177,359.95 402.42,360.209 411.663,360.577 420.905,361.158 439.391,363.089 457.876,365.711 473.505,366.062 489.134,367.643 504.763,370.026 520.392,371.884 588.302,376.745 650.909,380.841 718.031,385.999 795.798,391.206 864.908,395.523 925.511,398.744 942.029,399.836 958.548,400.519 966.807,400.672 975.066,400.685 976.099,401.262 977.131,400.899 978.163,399.793 979.196,398.55 980.228,397.858 981.261,398.114 982.293,399.202 983.325,400.552 984.358,401.438 985.39,401.381 986.423,400.407 987.455,399.042 988.487,398.034 989.52,397.947 990.552,398.849 991.585,400.27 992.104,400.94 992.623,401.451 993.142,401.729 993.662,401.734 994.7,400.954 995.739,399.527 996.777,398.237 997.816,397.801 998.854,398.477 999.893,399.911 1000.93,401.326 1001.97,401.938 1003.01,401.394 1004.05,399.974 1005.09,398.446 1006.12,397.65 1007.16,398.036 1008.2,399.409 1008.72,400.244 1009.24,401.022 1009.76,401.631 1010.28,401.982 1011.32,401.737 1012.36,400.392 1013.39,398.661 1014.43,397.485 1015.47,397.516 1016.51,398.749 1017.55,400.514 1018.59,401.831 1019.63,401.945 1020.66,400.751 1021.7,398.866 1022.74,397.299 1023.78,396.907 1024.82,397.913 1025.34,398.793 1025.86,399.768 1026.38,400.696 1026.89,401.441 1027.93,401.974 1028.97,401.016 1030.01,399.036 1031.05,397.075 1031.57,396.449 1032.09,396.191 1032.61,396.338 1033.13,396.87 1034.16,398.739 1035.2,400.756 1035.72,401.445 1036.24,401.766 1036.76,401.663 1037.28,401.139 1038.32,399.135 1039.36,396.785 1040.4,395.337 1041.43,395.573 1041.95,396.319 1042.47,397.36 1042.99,398.544 1043.51,399.696 1044.03,400.645 1044.55,401.242 1045.07,401.39 1045.59,401.052 1046.63,399.114 1047.67,396.384 1048.18,395.171 1048.7,394.288 1049.22,393.859 1049.74,393.942 1050.78,395.524 1051.82,398.141 1052.34,399.37 1052.86,400.288 1053.38,400.747 1053.9,400.662 1054.94,398.898 1055.97,395.801 1057.01,392.95 1058.05,391.84 1058.63,392.239 1059.2,393.3 1059.77,394.832 1060.35,396.556 1060.92,398.154 1061.5,399.32 1062.07,399.818 1062.64,399.52 1063.22,398.434 1063.79,396.705 1064.37,394.593 1064.94,392.434 1065.51,390.577 1066.09,389.327 1066.66,388.893 1067.24,389.343 1067.81,390.594 1068.39,392.418 1068.96,394.48 1069.53,396.392 1070.11,397.78 1070.68,398.347 1071.26,397.932 1071.83,396.539 1072.4,394.341 1072.98,391.657 1073.55,388.9 1074.13,386.51 1074.7,384.875 1075.27,384.263 1075.85,384.772 1076.42,386.306 1077,388.582 1077.57,391.176 1078.15,393.587 1078.72,395.327 1079.29,396.001 1079.87,395.38 1080.44,393.454 1081.02,390.433 1081.59,386.73 1082.16,382.892 1082.74,379.514 1083.31,377.133 1083.89,376.139 1084.46,376.694 1085.03,378.691 1085.61,381.762 1086.18,385.324 1086.76,388.666 1087.33,391.07 1087.91,391.924 1088.48,390.845 1089.05,387.752 1089.63,382.9 1090.2,376.864 1090.78,370.456 1091.35,364.61 1091.92,360.224 1092.5,358.01 1093.07,358.35 1093.65,361.204 1094.22,366.068 1094.79,372.015 1095.37,377.792 1095.94,381.981 1096.52,383.201 1097.09,380.311 1097.67,372.606 1098.24,359.95 1098.81,342.852 1099.39,322.447 1099.96,300.399 1100.54,278.722 1101.11,259.551 1101.68,244.89 1102.26,236.359 1102.83,235 1103.41,241.135 1103.98,254.325 1104.55,273.418 1105.13,296.687 1105.7,322.036 1106.28,347.251 1106.85,370.259 1107.43,389.359 1108,403.405 1108.57,411.903 1109.15,415.03 1109.72,413.561 1110.3,408.721 1110.87,401.997 1111.44,394.917 1112.02,388.844 1112.59,384.813 1113.17,383.412 1113.74,384.748 1114.31,388.48 1114.89,393.911 1115.46,400.128 1116.04,406.164 1116.61,411.155 1117.19,414.467 1117.76,415.784 1118.33,415.131 1118.91,412.851 1119.48,409.528 1120.06,405.876 1120.63,402.614 1121.2,400.352 1121.78,399.495 1122.35,400.188 1122.93,402.307 1123.5,405.497 1124.07,409.237 1124.65,412.94 1125.22,416.051 1125.8,418.141 1126.37,418.968 1126.95,418.513 1128.09,414.716 1129.24,409.968 1129.82,408.4 1130.39,407.81 1130.96,408.317 1131.54,409.849 1132.63,414.618 1133.72,419.495 1134.27,421.136 1134.82,421.957 1135.36,421.897 1135.91,421.036 1137,417.792 1138.09,414.569 1138.64,413.698 1139.19,413.562 1139.73,414.203 1140.28,415.537 1141.37,419.463 1142.46,423.211 1143.01,424.374 1143.56,424.858 1144.1,424.64 1144.65,423.805 1145.74,421.067 1146.83,418.598 1147.38,418.038 1147.93,418.102 1148.47,418.8 1149.02,420.041 1150.11,423.412 1151.2,426.407 1151.75,427.25 1152.3,427.51 1152.84,427.189 1153.39,426.38 1154.48,424.008 1155.57,422.08 1156.12,421.744 1156.67,421.951 1157.21,422.688 1157.76,423.86 1158.85,426.824 1159.94,429.269 1160.49,429.879 1161.04,429.978 1161.58,429.588 1162.13,428.805 1163.22,426.722 1164.31,425.21 1164.86,425.045 1165.41,425.359 1165.95,426.123 1166.5,427.238 1167.59,429.882 1168.68,431.898 1169.23,432.33 1169.78,432.308 1170.32,431.869 1170.87,431.114 1171.96,429.272 1173.05,428.095 1174.15,428.463 1175.24,430.309 1176.33,432.686 1177.42,434.356 1178.52,434.53 1179.61,433.332 1180.7,431.699 1181.79,430.803 1182.34,430.884 1182.89,431.347 1183.43,432.138 1183.98,433.155 1185.07,435.302 1186.16,436.681 1187.26,436.665 1188.35,435.477 1189.44,434.032 1190.53,433.376 1191.63,434.063 1192.72,435.829 1193.81,437.772 1194.9,438.9 1196,438.731 1197.09,437.564 1198.18,436.29 1199.27,435.844 1199.82,436.093 1200.37,436.648 1200.91,437.441 1201.46,438.367 1202.6,440.18 1203.73,441.055 1204.87,440.633 1206,439.398 1207.14,438.348 1208.28,438.34 1209.41,439.546 1210.55,441.351 1211.68,442.763 1212.82,443.063 1213.96,442.259 1215.09,441.069 1216.23,440.449 1217.36,440.968 1217.93,441.63 1218.5,442.453 1219.07,443.32 1219.63,444.109 1220.77,445.043 1221.91,444.843 1223.04,443.833 1224.18,442.854 1225.31,442.714 1226.45,443.665 1227.59,445.253 1228.72,446.617 1229.86,447.055 1230.99,446.472 1232.13,445.432 1233.27,444.786 1234.4,445.118 1235.54,446.371 1236.67,447.895 1237.81,448.873 1238.95,448.851 1240.08,448.028 1241.22,447.116 1242.35,446.874 1243.49,447.619 1244.63,449.025 1245.76,450.344 1246.9,450.892 1248.03,450.493 1249.17,449.584 1250.31,448.925 1251.44,449.105 1252.58,450.164 1253.71,451.572 1254.85,452.581 1255.99,452.707 1265.07,454.366 1274.16,455.925 1304.76,462.073 1335.36,467.97 1372.72,475.376 1410.08,484.127 1444.3,490.706 1478.52,497.196 1541.74,507.989 1605.77,520.087 1641.66,527.329 1677.54,533.708 1710.06,539.36 1742.57,543.628 1761.18,547.826 1779.8,551.595 1798.41,554.104 1817.03,555.55 1825.64,556.753 1834.26,557.906 1842.88,559.002 1851.5,560.029 1852.04,559.499 1852.57,559.175 1853.11,559.119 1853.65,559.352 1854.73,560.548 1855.81,562.15 1856.88,563.291 1857.96,563.362 1859.04,562.375 1860.11,560.969 1861.19,560.043 1862.27,560.226 1863.35,561.501 1864.42,563.204 1865.5,564.402 1866.58,564.442 1867.65,563.345 1868.73,561.805 1869.27,561.176 1869.81,560.79 1870.35,560.717 1870.89,560.979 1871.96,562.348 1873.04,564.17 1874.12,565.435 1875.19,565.439 1876.27,564.209 1877.35,562.506 1878.43,561.384 1879.5,561.578 1880.58,563.057 1881.66,565.023 1882.73,566.369 1883.81,566.329 1884.89,564.938 1885.97,563.033 1886.5,562.267 1887.03,561.786 1887.56,561.67 1888.09,561.947 1889.15,563.499 1890.21,565.615 1891.28,567.119 1892.34,567.155 1893.4,565.69 1894.46,563.559 1895.52,562.002 1896.59,561.962 1897.65,563.527 1898.71,565.857 1899.24,566.897 1899.77,567.639 1900.3,567.969 1900.83,567.833 1901.9,566.285 1902.96,563.843 1903.49,562.721 1904.02,561.897 1904.55,561.5 1905.08,561.595 1906.14,563.164 1907.21,565.752 1907.74,566.968 1908.27,567.879 1908.8,568.341 1909.33,568.275 1910.39,566.623 1911.45,563.78 1911.98,562.401 1912.52,561.325 1913.05,560.715 1913.58,560.667 1914.64,562.223 1915.7,565.135 1916.23,566.579 1916.76,567.711 1917.29,568.347 1917.83,568.373 1918.36,567.761 1918.89,566.58 1919.42,564.984 1919.95,563.19 1920.48,561.454 1921.01,560.024 1921.54,559.112 1922.07,558.854 1923.14,560.366 1924.2,563.708 1924.73,565.464 1925.26,566.902 1925.79,567.782 1926.32,567.936 1926.85,567.302 1927.38,565.933 1927.91,563.99 1928.45,561.727 1928.98,559.452 1929.51,557.481 1930.04,556.096 1930.57,555.499 1931.1,555.778 1931.63,556.893 1932.16,558.676 1932.69,560.852 1933.22,563.074 1933.76,564.978 1934.29,566.23 1934.82,566.578 1935.35,565.898 1935.88,564.209 1936.41,561.682 1936.94,558.618 1937.47,555.408 1938,552.482 1938.53,550.24 1939.07,548.998 1939.6,548.935 1940.13,550.057 1940.66,552.191 1941.19,555 1941.72,558.027 1942.25,560.752 1942.78,562.667 1943.31,563.352 1943.84,562.542 1944.38,560.172 1944.91,556.399 1945.44,551.593 1945.97,546.297 1946.5,541.154 1947.03,536.825 1947.56,533.89 1948.09,532.757 1948.62,533.591 1949.15,536.267 1949.68,540.364 1950.22,545.192 1950.75,549.868 1951.28,553.41 1951.81,554.862 1952.34,553.417 1952.87,548.534 1953.4,540.029 1953.93,528.129 1954.45,513.93 1954.96,498.061 1955.48,481.707 1955.99,466.204 1956.51,452.917 1957.03,443.097 1957.54,437.762 1958.06,437.585 1958.57,442.825 1959.09,453.293 1959.6,468.367 1960.12,487.047 1960.63,508.049 1961.15,529.933 1961.67,551.233 1962.18,570.596 1962.7,586.905 1963.21,599.373 1963.73,607.604 1964.24,611.604 1964.76,611.761 1965.27,608.778 1965.79,603.582 1966.31,597.211 1966.82,590.698 1967.34,584.962 1967.85,580.718 1968.37,578.418 1968.88,578.221 1969.4,580.005 1969.91,583.405 1970.43,587.88 1970.95,592.794 1971.46,597.503 1971.98,601.44 1972.49,604.181 1973.01,605.486 1973.52,605.325 1974.04,603.859 1974.55,601.416 1975.07,598.431 1975.59,595.386 1976.1,592.742 1976.62,590.879 1977.13,590.051 1977.65,590.359 1978.16,591.743 1978.68,594.001 1979.71,599.828 1980.74,604.918 1981.26,606.409 1981.77,606.979 1982.29,606.623 1982.8,605.464 1983.83,601.715 1984.87,598.124 1985.38,597.097 1985.9,596.819 1986.41,597.336 1986.93,598.584 1987.96,602.544 1988.99,606.731 1989.51,608.263 1990.02,609.177 1990.54,609.397 1991.05,608.944 1992.08,606.551 1993.11,603.616 1993.63,602.533 1994.15,601.953 1994.66,601.973 1995.18,602.604 1996.21,605.338 1997.24,608.832 1997.75,610.333 1998.27,611.427 1998.79,612 1999.3,612.014 2000.33,610.595 2001.36,608.232 2001.88,607.173 2002.39,606.435 2002.91,606.141 2003.43,606.35 2011.67,609.936 2019.92,613.414 2036.83,619.849 2053.75,625.812 2070.66,631.467 2087.57,636.897 2106.1,641.659 2124.63,647.418 2143.16,653.637 2161.69,659.436 2188.6,666.628 2215.52,673.227 2228.98,676.592 2242.44,679.632 2249.17,682.365 2255.89,684.129 2262.62,684.911 2269.35,686.235 2270.73,686.78 2272.11,687.835 2273.49,688.745 2274.87,688.992 2276.25,688.678 2277.64,688.426 2279.02,688.801 2280.4,689.779 2281.78,690.775 2283.16,691.189 2284.54,690.965 2285.92,690.643 2287.3,690.851 2288.68,691.72 2290.06,692.767 2291.44,693.34 "/>
<path clip-path="url(#clip270)" d="M1813.1 467.571 L2280.54 467.571 L2280.54 166.796 L1813.1 166.796  Z" fill="#ffffff" fill-rule="evenodd" fill-opacity="1"/>
<polyline clip-path="url(#clip270)" style="stroke:#000000; stroke-linecap:round; stroke-linejoin:round; stroke-width:4; stroke-opacity:1; fill:none" points="1813.1,467.571 2280.54,467.571 2280.54,166.796 1813.1,166.796 1813.1,467.571 "/>
<polyline clip-path="url(#clip270)" style="stroke:#009af9; stroke-linecap:round; stroke-linejoin:round; stroke-width:4; stroke-opacity:1; fill:none" points="1837.17,226.951 1981.6,226.951 "/>
<path clip-path="url(#clip270)" d="M2016.52 249.858 Q2016.52 250.256 2016.24 250.537 Q2015.95 250.818 2015.56 250.818 Q2014.88 250.818 2014.64 250.186 L2005.72 227.161 Q2005.67 227.068 2005.67 226.833 Q2005.67 226.599 2005.72 226.506 L2014.64 203.481 Q2014.88 202.849 2015.56 202.849 Q2015.95 202.849 2016.24 203.13 Q2016.52 203.411 2016.52 203.809 Q2016.52 204.043 2016.47 204.137 L2007.64 226.833 L2016.47 249.53 Q2016.52 249.623 2016.52 249.858 Z" fill="#000000" fill-rule="evenodd" fill-opacity="1" /><path clip-path="url(#clip270)" d="M2063.44 231.963 Q2063.44 232.15 2063.23 232.876 Q2063.01 233.603 2062.5 234.727 Q2062.01 235.851 2061.3 236.882 Q2060.63 237.889 2059.5 238.638 Q2058.4 239.364 2057.14 239.364 Q2055.45 239.364 2054.33 238.24 Q2053.2 237.116 2053.2 235.429 Q2053.2 234.516 2053.83 232.783 Q2056.81 224.866 2056.81 222.032 Q2056.81 218.682 2054.21 218.682 Q2052.73 218.682 2051.4 219.291 Q2050.06 219.9 2049.2 220.744 Q2048.33 221.587 2047.65 222.547 Q2046.97 223.507 2046.67 224.14 Q2046.38 224.772 2046.31 225.053 L2043.43 236.624 Q2043.2 237.608 2043.04 238.076 Q2042.87 238.545 2042.43 238.943 Q2041.98 239.364 2041.28 239.364 Q2040.69 239.364 2040.27 239.013 Q2039.87 238.662 2039.87 238.053 Q2039.87 237.959 2039.99 237.467 Q2040.11 236.975 2040.27 236.296 Q2040.44 235.617 2040.51 235.219 Q2041.35 232.033 2041.47 231.588 L2042.8 226.014 Q2043.53 223.25 2043.53 222.032 Q2043.53 218.682 2040.93 218.682 Q2039.64 218.682 2038.42 219.174 Q2037.23 219.643 2036.41 220.299 Q2035.59 220.954 2034.84 221.868 Q2034.11 222.758 2033.74 223.367 Q2033.39 223.952 2033.1 224.538 L2032.5 226.927 Q2032.35 227.583 2031.68 230.136 L2030.62 234.469 Q2029.87 237.701 2029.71 238.006 Q2029.47 238.662 2028.96 239.013 Q2028.44 239.364 2027.93 239.364 Q2027.34 239.364 2026.94 239.013 Q2026.55 238.662 2026.55 238.053 Q2026.55 237.959 2026.62 237.608 Q2026.69 237.256 2026.8 236.765 Q2026.92 236.273 2026.97 235.992 L2029.75 224.913 Q2030.27 222.898 2030.39 222.266 Q2030.53 221.61 2030.53 220.884 Q2030.53 218.682 2029.03 218.682 Q2027.81 218.682 2027.01 220.135 Q2026.22 221.587 2025.54 224.397 Q2025.33 225.17 2025.19 225.334 Q2025.07 225.498 2024.72 225.498 Q2024.13 225.475 2024.13 225.006 Q2024.13 224.889 2024.32 224.14 Q2024.51 223.39 2024.86 222.266 Q2025.23 221.118 2025.63 220.369 Q2025.87 219.877 2026.08 219.549 Q2026.29 219.221 2026.71 218.706 Q2027.13 218.191 2027.76 217.909 Q2028.4 217.628 2029.17 217.628 Q2030.88 217.628 2032.14 218.729 Q2033.43 219.83 2033.6 221.798 Q2036.71 217.628 2041.07 217.628 Q2043.53 217.628 2045 218.87 Q2046.38 220.064 2046.55 222.266 Q2049.78 217.628 2054.37 217.628 Q2057.02 217.628 2058.45 219.01 Q2059.88 220.369 2059.88 222.758 Q2059.88 223.999 2059.24 226.365 Q2058.61 228.707 2058.19 229.878 Q2057.77 231.049 2056.95 233.298 Q2056.08 235.453 2056.08 236.718 Q2056.08 237.537 2056.36 237.912 Q2056.64 238.287 2057.25 238.287 Q2058.19 238.287 2059.01 237.748 Q2059.83 237.186 2060.41 236.273 Q2061.02 235.336 2061.42 234.399 Q2061.82 233.439 2062.12 232.361 Q2062.31 231.776 2062.41 231.635 Q2062.52 231.494 2062.85 231.494 Q2063.44 231.494 2063.44 231.963 Z" fill="#000000" fill-rule="evenodd" fill-opacity="1" /><path clip-path="url(#clip270)" d="M2076.61 226.506 Q2076.66 226.599 2076.66 226.833 Q2076.66 227.068 2076.61 227.161 L2067.69 250.186 Q2067.45 250.818 2066.8 250.818 Q2066.4 250.818 2066.12 250.537 Q2065.84 250.256 2065.84 249.858 Q2065.84 249.623 2065.88 249.53 L2074.69 226.833 L2065.88 204.137 Q2065.84 204.043 2065.84 203.809 Q2065.84 203.411 2066.12 203.13 Q2066.4 202.849 2066.8 202.849 Q2067.45 202.849 2067.69 203.481 L2076.61 226.506 Z" fill="#000000" fill-rule="evenodd" fill-opacity="1" /><polyline clip-path="url(#clip270)" style="stroke:#e26f46; stroke-linecap:round; stroke-linejoin:round; stroke-width:4; stroke-opacity:1; fill:none" points="1837.17,287.106 1981.6,287.106 "/>
<path clip-path="url(#clip270)" d="M2005.67 260.847 L2084.3 260.847 L2084.3 258.287 L2005.67 258.287  Z" fill="#000000" fill-rule="evenodd" fill-opacity="1"/>
<path clip-path="url(#clip270)" d="M2016.52 315.504 Q2016.52 315.902 2016.24 316.183 Q2015.95 316.464 2015.56 316.464 Q2014.88 316.464 2014.64 315.832 L2005.72 292.808 Q2005.67 292.714 2005.67 292.48 Q2005.67 292.245 2005.72 292.152 L2014.64 269.127 Q2014.88 268.495 2015.56 268.495 Q2015.95 268.495 2016.24 268.776 Q2016.52 269.057 2016.52 269.455 Q2016.52 269.69 2016.47 269.783 L2007.64 292.48 L2016.47 315.176 Q2016.52 315.27 2016.52 315.504 Z" fill="#000000" fill-rule="evenodd" fill-opacity="1" /><path clip-path="url(#clip270)" d="M2063.44 297.609 Q2063.44 297.797 2063.23 298.523 Q2063.01 299.249 2062.5 300.373 Q2062.01 301.497 2061.3 302.528 Q2060.63 303.535 2059.5 304.285 Q2058.4 305.011 2057.14 305.011 Q2055.45 305.011 2054.33 303.886 Q2053.2 302.762 2053.2 301.076 Q2053.2 300.162 2053.83 298.429 Q2056.81 290.512 2056.81 287.678 Q2056.81 284.329 2054.21 284.329 Q2052.73 284.329 2051.4 284.938 Q2050.06 285.547 2049.2 286.39 Q2048.33 287.233 2047.65 288.193 Q2046.97 289.154 2046.67 289.786 Q2046.38 290.418 2046.31 290.7 L2043.43 302.27 Q2043.2 303.254 2043.04 303.722 Q2042.87 304.191 2042.43 304.589 Q2041.98 305.011 2041.28 305.011 Q2040.69 305.011 2040.27 304.659 Q2039.87 304.308 2039.87 303.699 Q2039.87 303.605 2039.99 303.113 Q2040.11 302.622 2040.27 301.942 Q2040.44 301.263 2040.51 300.865 Q2041.35 297.679 2041.47 297.234 L2042.8 291.66 Q2043.53 288.896 2043.53 287.678 Q2043.53 284.329 2040.93 284.329 Q2039.64 284.329 2038.42 284.82 Q2037.23 285.289 2036.41 285.945 Q2035.59 286.601 2034.84 287.514 Q2034.11 288.404 2033.74 289.013 Q2033.39 289.599 2033.1 290.184 L2032.5 292.573 Q2032.35 293.229 2031.68 295.782 L2030.62 300.115 Q2029.87 303.348 2029.71 303.652 Q2029.47 304.308 2028.96 304.659 Q2028.44 305.011 2027.93 305.011 Q2027.34 305.011 2026.94 304.659 Q2026.55 304.308 2026.55 303.699 Q2026.55 303.605 2026.62 303.254 Q2026.69 302.903 2026.8 302.411 Q2026.92 301.919 2026.97 301.638 L2029.75 290.559 Q2030.27 288.545 2030.39 287.912 Q2030.53 287.256 2030.53 286.53 Q2030.53 284.329 2029.03 284.329 Q2027.81 284.329 2027.01 285.781 Q2026.22 287.233 2025.54 290.044 Q2025.33 290.817 2025.19 290.981 Q2025.07 291.145 2024.72 291.145 Q2024.13 291.121 2024.13 290.653 Q2024.13 290.536 2024.32 289.786 Q2024.51 289.037 2024.86 287.912 Q2025.23 286.765 2025.63 286.015 Q2025.87 285.523 2026.08 285.195 Q2026.29 284.867 2026.71 284.352 Q2027.13 283.837 2027.76 283.556 Q2028.4 283.275 2029.17 283.275 Q2030.88 283.275 2032.14 284.375 Q2033.43 285.476 2033.6 287.444 Q2036.71 283.275 2041.07 283.275 Q2043.53 283.275 2045 284.516 Q2046.38 285.711 2046.55 287.912 Q2049.78 283.275 2054.37 283.275 Q2057.02 283.275 2058.45 284.657 Q2059.88 286.015 2059.88 288.404 Q2059.88 289.646 2059.24 292.011 Q2058.61 294.353 2058.19 295.525 Q2057.77 296.696 2056.95 298.944 Q2056.08 301.099 2056.08 302.364 Q2056.08 303.184 2056.36 303.558 Q2056.64 303.933 2057.25 303.933 Q2058.19 303.933 2059.01 303.394 Q2059.83 302.832 2060.41 301.919 Q2061.02 300.982 2061.42 300.045 Q2061.82 299.085 2062.12 298.007 Q2062.31 297.422 2062.41 297.281 Q2062.52 297.141 2062.85 297.141 Q2063.44 297.141 2063.44 297.609 Z" fill="#000000" fill-rule="evenodd" fill-opacity="1" /><path clip-path="url(#clip270)" d="M2076.61 292.152 Q2076.66 292.245 2076.66 292.48 Q2076.66 292.714 2076.61 292.808 L2067.69 315.832 Q2067.45 316.464 2066.8 316.464 Q2066.4 316.464 2066.12 316.183 Q2065.84 315.902 2065.84 315.504 Q2065.84 315.27 2065.88 315.176 L2074.69 292.48 L2065.88 269.783 Q2065.84 269.69 2065.84 269.455 Q2065.84 269.057 2066.12 268.776 Q2066.4 268.495 2066.8 268.495 Q2067.45 268.495 2067.69 269.127 L2076.61 292.152 Z" fill="#000000" fill-rule="evenodd" fill-opacity="1" /><polyline clip-path="url(#clip270)" style="stroke:#3da44d; stroke-linecap:round; stroke-linejoin:round; stroke-width:4; stroke-opacity:1; fill:none" points="1837.17,347.261 1981.6,347.261 "/>
<path clip-path="url(#clip270)" d="M2005.67 321.002 L2084.3 321.002 L2084.3 318.442 L2005.67 318.442  Z" fill="#000000" fill-rule="evenodd" fill-opacity="1"/>
<path clip-path="url(#clip270)" d="M2016.52 375.659 Q2016.52 376.057 2016.24 376.338 Q2015.95 376.619 2015.56 376.619 Q2014.88 376.619 2014.64 375.987 L2005.72 352.963 Q2005.67 352.869 2005.67 352.635 Q2005.67 352.4 2005.72 352.307 L2014.64 329.282 Q2014.88 328.65 2015.56 328.65 Q2015.95 328.65 2016.24 328.931 Q2016.52 329.212 2016.52 329.61 Q2016.52 329.845 2016.47 329.938 L2007.64 352.635 L2016.47 375.331 Q2016.52 375.425 2016.52 375.659 Z" fill="#000000" fill-rule="evenodd" fill-opacity="1" /><path clip-path="url(#clip270)" d="M2063.44 357.764 Q2063.44 357.952 2063.23 358.678 Q2063.01 359.404 2062.5 360.528 Q2062.01 361.652 2061.3 362.683 Q2060.63 363.69 2059.5 364.44 Q2058.4 365.166 2057.14 365.166 Q2055.45 365.166 2054.33 364.041 Q2053.2 362.917 2053.2 361.231 Q2053.2 360.317 2053.83 358.584 Q2056.81 350.667 2056.81 347.833 Q2056.81 344.484 2054.21 344.484 Q2052.73 344.484 2051.4 345.093 Q2050.06 345.702 2049.2 346.545 Q2048.33 347.388 2047.65 348.348 Q2046.97 349.309 2046.67 349.941 Q2046.38 350.573 2046.31 350.855 L2043.43 362.425 Q2043.2 363.409 2043.04 363.877 Q2042.87 364.346 2042.43 364.744 Q2041.98 365.166 2041.28 365.166 Q2040.69 365.166 2040.27 364.814 Q2039.87 364.463 2039.87 363.854 Q2039.87 363.76 2039.99 363.268 Q2040.11 362.777 2040.27 362.097 Q2040.44 361.418 2040.51 361.02 Q2041.35 357.834 2041.47 357.389 L2042.8 351.815 Q2043.53 349.051 2043.53 347.833 Q2043.53 344.484 2040.93 344.484 Q2039.64 344.484 2038.42 344.975 Q2037.23 345.444 2036.41 346.1 Q2035.59 346.756 2034.84 347.669 Q2034.11 348.559 2033.74 349.168 Q2033.39 349.754 2033.1 350.339 L2032.5 352.728 Q2032.35 353.384 2031.68 355.937 L2030.62 360.27 Q2029.87 363.503 2029.71 363.807 Q2029.47 364.463 2028.96 364.814 Q2028.44 365.166 2027.93 365.166 Q2027.34 365.166 2026.94 364.814 Q2026.55 364.463 2026.55 363.854 Q2026.55 363.76 2026.62 363.409 Q2026.69 363.058 2026.8 362.566 Q2026.92 362.074 2026.97 361.793 L2029.75 350.714 Q2030.27 348.7 2030.39 348.067 Q2030.53 347.411 2030.53 346.685 Q2030.53 344.484 2029.03 344.484 Q2027.81 344.484 2027.01 345.936 Q2026.22 347.388 2025.54 350.199 Q2025.33 350.972 2025.19 351.136 Q2025.07 351.3 2024.72 351.3 Q2024.13 351.276 2024.13 350.808 Q2024.13 350.691 2024.32 349.941 Q2024.51 349.192 2024.86 348.067 Q2025.23 346.92 2025.63 346.17 Q2025.87 345.678 2026.08 345.35 Q2026.29 345.022 2026.71 344.507 Q2027.13 343.992 2027.76 343.711 Q2028.4 343.43 2029.17 343.43 Q2030.88 343.43 2032.14 344.53 Q2033.43 345.631 2033.6 347.599 Q2036.71 343.43 2041.07 343.43 Q2043.53 343.43 2045 344.671 Q2046.38 345.866 2046.55 348.067 Q2049.78 343.43 2054.37 343.43 Q2057.02 343.43 2058.45 344.812 Q2059.88 346.17 2059.88 348.559 Q2059.88 349.801 2059.24 352.166 Q2058.61 354.508 2058.19 355.68 Q2057.77 356.851 2056.95 359.099 Q2056.08 361.254 2056.08 362.519 Q2056.08 363.339 2056.36 363.713 Q2056.64 364.088 2057.25 364.088 Q2058.19 364.088 2059.01 363.549 Q2059.83 362.987 2060.41 362.074 Q2061.02 361.137 2061.42 360.2 Q2061.82 359.24 2062.12 358.162 Q2062.31 357.577 2062.41 357.436 Q2062.52 357.296 2062.85 357.296 Q2063.44 357.296 2063.44 357.764 Z" fill="#000000" fill-rule="evenodd" fill-opacity="1" /><path clip-path="url(#clip270)" d="M2076.61 352.307 Q2076.66 352.4 2076.66 352.635 Q2076.66 352.869 2076.61 352.963 L2067.69 375.987 Q2067.45 376.619 2066.8 376.619 Q2066.4 376.619 2066.12 376.338 Q2065.84 376.057 2065.84 375.659 Q2065.84 375.425 2065.88 375.331 L2074.69 352.635 L2065.88 329.938 Q2065.84 329.845 2065.84 329.61 Q2065.84 329.212 2066.12 328.931 Q2066.4 328.65 2066.8 328.65 Q2067.45 328.65 2067.69 329.282 L2076.61 352.307 Z" fill="#000000" fill-rule="evenodd" fill-opacity="1" /><path clip-path="url(#clip270)" d="M2084.3 352.212 Q2084.3 344.108 2087.32 337.573 Q2088.61 334.833 2090.41 332.537 Q2092.21 330.242 2093.41 329.235 Q2094.6 328.228 2094.93 328.228 Q2095.4 328.228 2095.42 328.696 Q2095.42 328.93 2094.79 329.516 Q2087.06 337.386 2087.08 352.212 Q2087.08 367.085 2094.6 374.651 Q2095.42 375.471 2095.42 375.728 Q2095.42 376.197 2094.93 376.197 Q2094.6 376.197 2093.46 375.236 Q2092.31 374.276 2090.53 372.074 Q2088.75 369.873 2087.46 367.179 Q2084.3 360.644 2084.3 352.212 Z" fill="#000000" fill-rule="evenodd" fill-opacity="1" /><path clip-path="url(#clip270)" d="M2131.69 332.256 Q2131.69 332.701 2131.6 333.076 L2130.29 341.414 Q2130.22 342.047 2130.08 342.281 Q2129.96 342.515 2129.58 342.515 Q2129 342.515 2129 341.906 Q2129 341.555 2129.14 340.993 Q2129.54 338.346 2129.54 337.152 Q2129.54 336.355 2129.37 335.77 Q2129.23 335.161 2129 334.739 Q2128.79 334.317 2128.3 334.036 Q2127.8 333.755 2127.34 333.591 Q2126.87 333.427 2126.02 333.357 Q2125.18 333.263 2124.45 333.24 Q2123.73 333.217 2122.53 333.217 Q2119.93 333.217 2119.51 333.31 Q2119.07 333.427 2118.83 333.779 Q2118.62 334.107 2118.39 335.09 L2112.02 360.551 L2111.83 361.558 Q2111.83 362.12 2112.18 362.307 Q2112.53 362.495 2113.61 362.612 Q2115.16 362.729 2116.68 362.729 Q2116.73 362.729 2116.82 362.729 Q2117.33 362.729 2117.54 362.752 Q2117.76 362.752 2117.97 362.799 Q2118.18 362.846 2118.22 362.963 Q2118.29 363.057 2118.29 363.244 Q2118.29 363.689 2118.11 363.923 Q2117.92 364.134 2117.73 364.181 Q2117.57 364.205 2117.24 364.205 Q2116.58 364.205 2115.18 364.158 Q2113.77 364.111 2113.07 364.111 L2109.09 364.064 L2105.01 364.111 Q2104.38 364.111 2103.05 364.158 Q2101.71 364.205 2101.08 364.205 Q2100.26 364.205 2100.26 363.619 Q2100.26 362.963 2100.56 362.846 Q2100.89 362.729 2102.27 362.729 Q2104.22 362.729 2105.27 362.635 Q2106.33 362.542 2106.89 362.214 Q2107.47 361.886 2107.64 361.558 Q2107.8 361.206 2107.99 360.41 L2114.43 334.809 Q2114.62 334.247 2114.62 333.802 Q2114.62 333.568 2114.55 333.474 Q2114.5 333.381 2114.2 333.31 Q2113.89 333.217 2113.26 333.217 L2111.38 333.217 Q2109.46 333.217 2108.27 333.31 Q2107.1 333.381 2105.97 333.732 Q2104.87 334.083 2104.22 334.575 Q2103.59 335.067 2102.88 336.074 Q2102.18 337.081 2101.66 338.299 Q2101.17 339.517 2100.47 341.508 Q2100.24 342.164 2100.1 342.351 Q2099.98 342.515 2099.65 342.515 Q2099.42 342.515 2099.23 342.375 Q2099.06 342.211 2099.06 342 Q2099.3 341.227 2099.35 341.133 L2102.23 332.678 Q2102.46 331.999 2102.67 331.882 Q2102.91 331.741 2103.77 331.741 L2130.38 331.741 Q2130.8 331.741 2130.94 331.741 Q2131.08 331.741 2131.32 331.788 Q2131.55 331.835 2131.62 331.952 Q2131.69 332.069 2131.69 332.256 Z" fill="#000000" fill-rule="evenodd" fill-opacity="1" /><path clip-path="url(#clip270)" d="M2140.11 356.92 Q2140.16 356.335 2141.07 356.335 L2170.46 356.335 Q2171.85 356.335 2171.87 356.873 Q2171.87 357.459 2170.56 357.435 L2141.4 357.435 Q2140.11 357.459 2140.11 356.92 M2140.11 347.551 Q2140.11 346.966 2141.12 346.989 L2170.42 346.989 Q2171.85 346.989 2171.87 347.551 Q2171.87 348.09 2170.65 348.09 L2141.07 348.09 Q2140.11 348.09 2140.11 347.551 Z" fill="#000000" fill-rule="evenodd" fill-opacity="1" /><path clip-path="url(#clip270)" d="M2232.9 353.852 Q2232.9 356.709 2231.77 359.192 Q2230.67 361.651 2228.52 363.197 Q2226.38 364.743 2223.69 364.743 Q2219.52 364.743 2215.54 361.417 Q2214.74 360.738 2214.18 360.106 Q2213.62 359.473 2211.23 356.569 Q2210.83 357.248 2210.41 357.88 Q2209.99 358.489 2208.79 359.871 Q2207.6 361.253 2206.36 362.214 Q2205.14 363.174 2203.24 363.97 Q2201.37 364.743 2199.42 364.743 Q2197.36 364.743 2195.61 363.806 Q2193.87 362.846 2192.73 361.324 Q2191.6 359.778 2190.97 357.857 Q2190.36 355.913 2190.36 353.899 Q2190.36 351.041 2191.46 348.582 Q2192.59 346.099 2194.72 344.553 Q2196.87 343.007 2199.57 343.007 Q2203.76 343.007 2207.72 346.31 Q2208.51 346.989 2209.07 347.621 Q2209.64 348.254 2212.03 351.158 Q2212.33 350.643 2212.66 350.174 Q2212.99 349.683 2213.81 348.605 Q2214.63 347.528 2215.59 346.661 Q2216.57 345.794 2217.81 344.904 Q2219.05 344.014 2220.62 343.522 Q2222.19 343.007 2223.83 343.007 Q2225.89 343.007 2227.63 343.968 Q2229.38 344.904 2230.51 346.45 Q2231.65 347.973 2232.26 349.917 Q2232.9 351.837 2232.9 353.852 M2231.84 353.852 Q2231.84 352.189 2231.35 350.573 Q2230.86 348.957 2229.92 347.598 Q2229.01 346.216 2227.51 345.373 Q2226.01 344.53 2224.18 344.53 Q2222.26 344.53 2220.48 345.349 Q2218.72 346.146 2217.34 347.504 Q2215.98 348.863 2215.05 350.128 Q2214.11 351.392 2213.29 352.845 Q2213.71 353.36 2215.52 355.749 Q2217.34 358.138 2218.12 358.981 Q2221.28 362.424 2224.46 362.424 Q2227.51 362.424 2229.66 359.942 Q2231.84 357.435 2231.84 353.852 M2209.96 354.906 Q2209.57 354.414 2207.72 352.025 Q2205.89 349.612 2205.12 348.769 Q2201.93 345.303 2198.79 345.303 Q2195.75 345.303 2193.57 347.809 Q2191.41 350.315 2191.41 353.899 Q2191.41 355.562 2191.91 357.178 Q2192.4 358.794 2193.31 360.152 Q2194.25 361.511 2195.75 362.354 Q2197.25 363.197 2199.07 363.197 Q2200.62 363.197 2202.09 362.635 Q2203.59 362.073 2204.72 361.23 Q2205.84 360.387 2206.9 359.216 Q2207.95 358.044 2208.63 357.037 Q2209.33 356.03 2209.96 354.906 Z" fill="#000000" fill-rule="evenodd" fill-opacity="1" /><path clip-path="url(#clip270)" d="M2238.05 375.728 Q2238.05 375.494 2238.66 374.909 Q2246.39 367.039 2246.39 352.212 Q2246.39 337.339 2238.97 329.82 Q2238.05 328.954 2238.05 328.696 Q2238.05 328.228 2238.52 328.228 Q2238.85 328.228 2240 329.188 Q2241.17 330.148 2242.92 332.35 Q2244.7 334.552 2246.02 337.245 Q2249.18 343.78 2249.18 352.212 Q2249.18 360.316 2246.16 366.851 Q2244.87 369.592 2243.06 371.887 Q2241.26 374.182 2240.07 375.19 Q2238.87 376.197 2238.52 376.197 Q2238.05 376.197 2238.05 375.728 Z" fill="#000000" fill-rule="evenodd" fill-opacity="1" /><polyline clip-path="url(#clip270)" style="stroke:#c271d2; stroke-linecap:round; stroke-linejoin:round; stroke-width:4; stroke-opacity:1; fill:none" points="1837.17,407.416 1981.6,407.416 "/>
<path clip-path="url(#clip270)" d="M2028.32 399.589 Q2028.32 403.056 2026.54 406.311 Q2024.78 409.567 2022.02 411.534 Q2019.28 413.502 2016.52 413.502 Q2013.4 413.502 2011.78 410.27 Q2008.86 422.004 2008.69 422.309 Q2008.01 423.316 2007.03 423.316 Q2006.42 423.316 2006.05 422.941 Q2005.67 422.59 2005.67 422.028 Q2005.7 421.84 2005.84 421.255 L2010.52 402.4 Q2011.6 398.02 2014.85 394.905 Q2018.13 391.766 2021.65 391.766 Q2024.43 391.766 2026.38 393.851 Q2028.32 395.935 2028.32 399.589 M2024.88 397.528 Q2024.88 395.186 2023.94 394.014 Q2023 392.82 2021.55 392.82 Q2020.22 392.82 2018.6 393.897 Q2017.01 394.975 2015.6 397.364 Q2014.85 398.746 2014.31 400.456 Q2013.78 402.165 2012.72 406.382 Q2012.35 408.068 2012.35 408.162 Q2012.35 408.349 2012.44 408.771 Q2012.56 409.192 2012.84 409.848 Q2013.14 410.48 2013.56 411.043 Q2013.99 411.605 2014.76 412.026 Q2015.53 412.425 2016.47 412.425 Q2017.92 412.425 2019.47 411.253 Q2021.04 410.059 2022.18 407.881 Q2023.14 406.124 2024.01 402.821 Q2024.88 399.495 2024.88 397.528 Z" fill="#000000" fill-rule="evenodd" fill-opacity="1" /><path clip-path="url(#clip270)" d="M2056.25 436.821 Q2056.25 437.133 2056.12 437.296 Q2056 437.444 2055.89 437.477 Q2055.79 437.493 2055.64 437.493 Q2055.22 437.493 2053.74 437.444 Q2052.27 437.395 2051.84 437.395 Q2051.15 437.395 2049.74 437.444 Q2048.33 437.493 2047.64 437.493 Q2047.18 437.493 2047.18 437.116 Q2047.18 436.87 2047.23 436.739 Q2047.28 436.591 2047.41 436.542 Q2047.56 436.477 2047.64 436.477 Q2047.74 436.46 2047.99 436.46 Q2048.31 436.46 2048.66 436.427 Q2049 436.378 2049.43 436.28 Q2049.86 436.182 2050.12 435.936 Q2050.4 435.69 2050.4 435.345 Q2050.4 435.198 2050.28 433.985 Q2050.17 432.771 2050.02 431.361 Q2049.87 429.935 2049.86 429.738 L2041.43 429.738 Q2040.66 431.066 2040.12 431.984 Q2039.58 432.902 2039.38 433.214 Q2039.18 433.525 2039.07 433.722 Q2038.95 433.919 2038.89 434.034 Q2038.41 434.903 2038.41 435.28 Q2038.41 436.329 2039.98 436.46 Q2040.53 436.46 2040.53 436.854 Q2040.53 437.149 2040.39 437.313 Q2040.26 437.46 2040.15 437.477 Q2040.05 437.493 2039.89 437.493 Q2039.35 437.493 2038.21 437.444 Q2037.08 437.395 2036.53 437.395 Q2036.05 437.395 2035.07 437.444 Q2034.08 437.493 2033.64 437.493 Q2033.44 437.493 2033.33 437.378 Q2033.21 437.264 2033.21 437.116 Q2033.21 436.887 2033.25 436.755 Q2033.3 436.624 2033.43 436.559 Q2033.56 436.493 2033.62 436.493 Q2033.69 436.477 2033.92 436.46 Q2035.16 436.378 2036.13 435.788 Q2037.12 435.181 2038.05 433.624 L2049.72 414.015 Q2049.84 413.818 2049.92 413.719 Q2050 413.621 2050.17 413.539 Q2050.35 413.457 2050.61 413.457 Q2051.02 413.457 2051.1 413.588 Q2051.18 413.703 2051.23 414.26 L2053.28 435.247 Q2053.33 435.69 2053.36 435.87 Q2053.41 436.034 2053.63 436.214 Q2053.86 436.378 2054.27 436.427 Q2054.69 436.46 2055.48 436.46 Q2055.77 436.46 2055.89 436.477 Q2056 436.477 2056.12 436.559 Q2056.25 436.641 2056.25 436.821 M2049.76 428.689 L2048.69 417.622 L2042.07 428.689 L2049.76 428.689 Z" fill="#000000" fill-rule="evenodd" fill-opacity="1" /><path clip-path="url(#clip270)" d="M2061.14 400.971 Q2061.14 392.867 2064.16 386.332 Q2065.45 383.591 2067.25 381.296 Q2069.05 379.001 2070.25 377.994 Q2071.44 376.986 2071.77 376.986 Q2072.24 376.986 2072.26 377.455 Q2072.26 377.689 2071.63 378.275 Q2063.9 386.145 2063.93 400.971 Q2063.93 415.844 2071.44 423.41 Q2072.26 424.229 2072.26 424.487 Q2072.26 424.956 2071.77 424.956 Q2071.44 424.956 2070.3 423.995 Q2069.15 423.035 2067.37 420.833 Q2065.59 418.631 2064.3 415.938 Q2061.14 409.403 2061.14 400.971 Z" fill="#000000" fill-rule="evenodd" fill-opacity="1" /><path clip-path="url(#clip270)" d="M2098.39 394.787 Q2098.39 396.122 2097.57 396.919 Q2096.77 397.715 2095.76 397.715 Q2094.87 397.715 2094.4 397.2 Q2093.94 396.685 2093.94 396.029 Q2093.94 395.748 2094.05 395.396 Q2094.17 395.022 2094.43 394.577 Q2094.71 394.132 2095.29 393.804 Q2095.88 393.476 2096.68 393.429 Q2096.51 393.265 2096.47 393.242 Q2096.11 392.96 2095.46 392.867 Q2095.36 392.82 2095.04 392.82 Q2093.42 392.82 2091.78 394.014 Q2090.17 395.186 2088.17 397.411 Q2085.67 400.011 2084.05 400.971 Q2091.15 401.908 2091.15 406.007 Q2091.15 406.686 2090.96 407.506 Q2090.59 409.052 2090.59 410.176 Q2090.59 412.425 2092.11 412.425 Q2093.58 412.425 2094.52 410.925 Q2095.48 409.426 2096.28 406.499 Q2096.4 405.96 2096.51 405.796 Q2096.63 405.632 2096.96 405.632 Q2097.54 405.632 2097.54 406.1 Q2097 408.841 2095.81 410.949 Q2094.29 413.502 2092.02 413.502 Q2090.12 413.502 2088.85 412.19 Q2087.61 410.855 2087.61 408.747 Q2087.61 408.232 2087.8 407.061 Q2087.94 406.592 2087.94 406.054 Q2087.94 404.953 2087.33 404.133 Q2086.72 403.29 2085.74 402.868 Q2084.75 402.447 2083.93 402.259 Q2083.14 402.048 2082.37 401.978 Q2080.02 411.886 2079.7 412.495 Q2079.48 412.916 2079.02 413.197 Q2078.55 413.502 2078.06 413.502 Q2077.59 413.502 2077.12 413.174 Q2076.67 412.87 2076.67 412.143 Q2076.67 411.769 2076.86 411.089 L2083.82 383.451 L2083.96 382.514 Q2083.96 382.233 2083.84 382.092 Q2083.75 381.928 2083.19 381.811 Q2082.65 381.694 2081.57 381.694 Q2081.12 381.694 2080.91 381.671 Q2080.73 381.647 2080.56 381.53 Q2080.4 381.39 2080.4 381.109 Q2080.4 380.711 2080.56 380.5 Q2080.75 380.265 2080.89 380.219 Q2081.03 380.172 2081.31 380.148 Q2081.71 380.125 2083.04 380.008 Q2084.38 379.867 2085.53 379.774 Q2086.68 379.68 2087.17 379.68 Q2087.45 379.68 2087.59 379.82 Q2087.75 379.938 2087.78 380.078 L2087.8 380.195 L2082.81 400.432 Q2084.87 399.612 2088.13 395.982 Q2091.9 391.766 2095.13 391.766 Q2096.65 391.766 2097.52 392.703 Q2098.39 393.616 2098.39 394.787 Z" fill="#000000" fill-rule="evenodd" fill-opacity="1" /><path clip-path="url(#clip270)" d="M2114.73 405.679 Q2114.77 405.093 2115.69 405.093 L2145.08 405.093 Q2146.46 405.093 2146.49 405.632 Q2146.49 406.218 2145.17 406.194 L2116.01 406.194 Q2114.73 406.218 2114.73 405.679 M2114.73 396.31 Q2114.73 395.724 2115.73 395.748 L2145.03 395.748 Q2146.46 395.748 2146.49 396.31 Q2146.49 396.849 2145.27 396.849 L2115.69 396.849 Q2114.73 396.849 2114.73 396.31 Z" fill="#000000" fill-rule="evenodd" fill-opacity="1" /><path clip-path="url(#clip270)" d="M2164.98 397.622 Q2164.98 390.571 2166.76 386.73 Q2169.24 381.015 2175.1 381.015 Q2176.34 381.015 2177.63 381.366 Q2178.94 381.694 2180.58 382.982 Q2182.24 384.271 2183.25 386.379 Q2185.17 390.454 2185.17 397.622 Q2185.17 404.625 2183.39 408.443 Q2180.79 414.017 2175.05 414.017 Q2172.89 414.017 2170.69 412.916 Q2168.51 411.816 2167.13 409.169 Q2164.98 405.21 2164.98 397.622 M2168.96 397.036 Q2168.96 404.273 2169.47 407.154 Q2170.06 410.27 2171.65 411.628 Q2173.27 412.963 2175.05 412.963 Q2176.97 412.963 2178.56 411.534 Q2180.18 410.082 2180.67 406.967 Q2181.21 403.899 2181.19 397.036 Q2181.19 390.361 2180.72 387.69 Q2180.08 384.575 2178.4 383.334 Q2176.74 382.069 2175.05 382.069 Q2174.42 382.069 2173.74 382.256 Q2173.08 382.444 2172.12 382.982 Q2171.16 383.521 2170.41 384.856 Q2169.69 386.191 2169.33 388.206 Q2168.96 390.806 2168.96 397.036 Z" fill="#000000" fill-rule="evenodd" fill-opacity="1" /><path clip-path="url(#clip270)" d="M2189.88 424.487 Q2189.88 424.253 2190.49 423.667 Q2198.22 415.797 2198.22 400.971 Q2198.22 386.098 2190.79 378.579 Q2189.88 377.712 2189.88 377.455 Q2189.88 376.986 2190.35 376.986 Q2190.68 376.986 2191.82 377.947 Q2192.99 378.907 2194.75 381.109 Q2196.53 383.31 2197.84 386.004 Q2201.01 392.539 2201.01 400.971 Q2201.01 409.075 2197.98 415.61 Q2196.7 418.35 2194.89 420.646 Q2193.09 422.941 2191.89 423.948 Q2190.7 424.956 2190.35 424.956 Q2189.88 424.956 2189.88 424.487 Z" fill="#000000" fill-rule="evenodd" fill-opacity="1" /></svg>
