<?xml version="1.0" encoding="utf-8"?>
<svg xmlns="http://www.w3.org/2000/svg" xmlns:xlink="http://www.w3.org/1999/xlink" width="600" height="400" viewBox="0 0 2400 1600">
<defs>
  <clipPath id="clip410">
    <rect x="0" y="0" width="2400" height="1600"/>
  </clipPath>
</defs>
<path clip-path="url(#clip410)" d="M0 1600 L2400 1600 L2400 0 L0 0  Z" fill="#ffffff" fill-rule="evenodd" fill-opacity="1"/>
<defs>
  <clipPath id="clip411">
    <rect x="480" y="0" width="1681" height="1600"/>
  </clipPath>
</defs>
<path clip-path="url(#clip410)" d="M186.274 1486.45 L2352.76 1486.45 L2352.76 47.2441 L186.274 47.2441  Z" fill="#ffffff" fill-rule="evenodd" fill-opacity="1"/>
<defs>
  <clipPath id="clip412">
    <rect x="186" y="47" width="2167" height="1440"/>
  </clipPath>
</defs>
<polyline clip-path="url(#clip412)" style="stroke:#000000; stroke-linecap:round; stroke-linejoin:round; stroke-width:2; stroke-opacity:0.1; fill:none" points="247.59,1486.45 247.59,47.2441 "/>
<polyline clip-path="url(#clip412)" style="stroke:#000000; stroke-linecap:round; stroke-linejoin:round; stroke-width:2; stroke-opacity:0.1; fill:none" points="758.552,1486.45 758.552,47.2441 "/>
<polyline clip-path="url(#clip412)" style="stroke:#000000; stroke-linecap:round; stroke-linejoin:round; stroke-width:2; stroke-opacity:0.1; fill:none" points="1269.51,1486.45 1269.51,47.2441 "/>
<polyline clip-path="url(#clip412)" style="stroke:#000000; stroke-linecap:round; stroke-linejoin:round; stroke-width:2; stroke-opacity:0.1; fill:none" points="1780.48,1486.45 1780.48,47.2441 "/>
<polyline clip-path="url(#clip412)" style="stroke:#000000; stroke-linecap:round; stroke-linejoin:round; stroke-width:2; stroke-opacity:0.1; fill:none" points="2291.44,1486.45 2291.44,47.2441 "/>
<polyline clip-path="url(#clip410)" style="stroke:#000000; stroke-linecap:round; stroke-linejoin:round; stroke-width:4; stroke-opacity:1; fill:none" points="186.274,1486.45 2352.76,1486.45 "/>
<polyline clip-path="url(#clip410)" style="stroke:#000000; stroke-linecap:round; stroke-linejoin:round; stroke-width:4; stroke-opacity:1; fill:none" points="247.59,1486.45 247.59,1467.55 "/>
<polyline clip-path="url(#clip410)" style="stroke:#000000; stroke-linecap:round; stroke-linejoin:round; stroke-width:4; stroke-opacity:1; fill:none" points="758.552,1486.45 758.552,1467.55 "/>
<polyline clip-path="url(#clip410)" style="stroke:#000000; stroke-linecap:round; stroke-linejoin:round; stroke-width:4; stroke-opacity:1; fill:none" points="1269.51,1486.45 1269.51,1467.55 "/>
<polyline clip-path="url(#clip410)" style="stroke:#000000; stroke-linecap:round; stroke-linejoin:round; stroke-width:4; stroke-opacity:1; fill:none" points="1780.48,1486.45 1780.48,1467.55 "/>
<polyline clip-path="url(#clip410)" style="stroke:#000000; stroke-linecap:round; stroke-linejoin:round; stroke-width:4; stroke-opacity:1; fill:none" points="2291.44,1486.45 2291.44,1467.55 "/>
<path clip-path="url(#clip410)" d="M247.59 1517.37 Q243.978 1517.37 242.15 1520.93 Q240.344 1524.47 240.344 1531.6 Q240.344 1538.71 242.15 1542.27 Q243.978 1545.82 247.59 1545.82 Q251.224 1545.82 253.029 1542.27 Q254.858 1538.71 254.858 1531.6 Q254.858 1524.47 253.029 1520.93 Q251.224 1517.37 247.59 1517.37 M247.59 1513.66 Q253.4 1513.66 256.455 1518.27 Q259.534 1522.85 259.534 1531.6 Q259.534 1540.33 256.455 1544.94 Q253.4 1549.52 247.59 1549.52 Q241.779 1549.52 238.701 1544.94 Q235.645 1540.33 235.645 1531.6 Q235.645 1522.85 238.701 1518.27 Q241.779 1513.66 247.59 1513.66 Z" fill="#000000" fill-rule="evenodd" fill-opacity="1" /><path clip-path="url(#clip410)" d="M722.245 1544.91 L738.564 1544.91 L738.564 1548.85 L716.62 1548.85 L716.62 1544.91 Q719.282 1542.16 723.865 1537.53 Q728.471 1532.88 729.652 1531.53 Q731.897 1529.01 732.777 1527.27 Q733.68 1525.51 733.68 1523.82 Q733.68 1521.07 731.735 1519.33 Q729.814 1517.6 726.712 1517.6 Q724.513 1517.6 722.059 1518.36 Q719.629 1519.13 716.851 1520.68 L716.851 1515.95 Q719.675 1514.82 722.129 1514.24 Q724.583 1513.66 726.62 1513.66 Q731.99 1513.66 735.184 1516.35 Q738.379 1519.03 738.379 1523.52 Q738.379 1525.65 737.569 1527.57 Q736.782 1529.47 734.675 1532.07 Q734.096 1532.74 730.995 1535.95 Q727.893 1539.15 722.245 1544.91 Z" fill="#000000" fill-rule="evenodd" fill-opacity="1" /><path clip-path="url(#clip410)" d="M748.425 1514.29 L766.781 1514.29 L766.781 1518.22 L752.707 1518.22 L752.707 1526.7 Q753.726 1526.35 754.744 1526.19 Q755.763 1526 756.781 1526 Q762.568 1526 765.948 1529.17 Q769.328 1532.34 769.328 1537.76 Q769.328 1543.34 765.855 1546.44 Q762.383 1549.52 756.064 1549.52 Q753.888 1549.52 751.619 1549.15 Q749.374 1548.78 746.967 1548.04 L746.967 1543.34 Q749.05 1544.47 751.272 1545.03 Q753.494 1545.58 755.971 1545.58 Q759.976 1545.58 762.314 1543.48 Q764.652 1541.37 764.652 1537.76 Q764.652 1534.15 762.314 1532.04 Q759.976 1529.94 755.971 1529.94 Q754.096 1529.94 752.221 1530.35 Q750.369 1530.77 748.425 1531.65 L748.425 1514.29 Z" fill="#000000" fill-rule="evenodd" fill-opacity="1" /><path clip-path="url(#clip410)" d="M788.541 1517.37 Q784.929 1517.37 783.101 1520.93 Q781.295 1524.47 781.295 1531.6 Q781.295 1538.71 783.101 1542.27 Q784.929 1545.82 788.541 1545.82 Q792.175 1545.82 793.98 1542.27 Q795.809 1538.71 795.809 1531.6 Q795.809 1524.47 793.98 1520.93 Q792.175 1517.37 788.541 1517.37 M788.541 1513.66 Q794.351 1513.66 797.406 1518.27 Q800.485 1522.85 800.485 1531.6 Q800.485 1540.33 797.406 1544.94 Q794.351 1549.52 788.541 1549.52 Q782.73 1549.52 779.652 1544.94 Q776.596 1540.33 776.596 1531.6 Q776.596 1522.85 779.652 1518.27 Q782.73 1513.66 788.541 1513.66 Z" fill="#000000" fill-rule="evenodd" fill-opacity="1" /><path clip-path="url(#clip410)" d="M1229.13 1514.29 L1247.49 1514.29 L1247.49 1518.22 L1233.42 1518.22 L1233.42 1526.7 Q1234.43 1526.35 1235.45 1526.19 Q1236.47 1526 1237.49 1526 Q1243.28 1526 1246.66 1529.17 Q1250.04 1532.34 1250.04 1537.76 Q1250.04 1543.34 1246.56 1546.44 Q1243.09 1549.52 1236.77 1549.52 Q1234.6 1549.52 1232.33 1549.15 Q1230.08 1548.78 1227.67 1548.04 L1227.67 1543.34 Q1229.76 1544.47 1231.98 1545.03 Q1234.2 1545.58 1236.68 1545.58 Q1240.68 1545.58 1243.02 1543.48 Q1245.36 1541.37 1245.36 1537.76 Q1245.36 1534.15 1243.02 1532.04 Q1240.68 1529.94 1236.68 1529.94 Q1234.8 1529.94 1232.93 1530.35 Q1231.08 1530.77 1229.13 1531.65 L1229.13 1514.29 Z" fill="#000000" fill-rule="evenodd" fill-opacity="1" /><path clip-path="url(#clip410)" d="M1269.25 1517.37 Q1265.64 1517.37 1263.81 1520.93 Q1262 1524.47 1262 1531.6 Q1262 1538.71 1263.81 1542.27 Q1265.64 1545.82 1269.25 1545.82 Q1272.88 1545.82 1274.69 1542.27 Q1276.52 1538.71 1276.52 1531.6 Q1276.52 1524.47 1274.69 1520.93 Q1272.88 1517.37 1269.25 1517.37 M1269.25 1513.66 Q1275.06 1513.66 1278.11 1518.27 Q1281.19 1522.85 1281.19 1531.6 Q1281.19 1540.33 1278.11 1544.94 Q1275.06 1549.52 1269.25 1549.52 Q1263.44 1549.52 1260.36 1544.94 Q1257.3 1540.33 1257.3 1531.6 Q1257.3 1522.85 1260.36 1518.27 Q1263.44 1513.66 1269.25 1513.66 Z" fill="#000000" fill-rule="evenodd" fill-opacity="1" /><path clip-path="url(#clip410)" d="M1299.41 1517.37 Q1295.8 1517.37 1293.97 1520.93 Q1292.17 1524.47 1292.17 1531.6 Q1292.17 1538.71 1293.97 1542.27 Q1295.8 1545.82 1299.41 1545.82 Q1303.04 1545.82 1304.85 1542.27 Q1306.68 1538.71 1306.68 1531.6 Q1306.68 1524.47 1304.85 1520.93 Q1303.04 1517.37 1299.41 1517.37 M1299.41 1513.66 Q1305.22 1513.66 1308.28 1518.27 Q1311.36 1522.85 1311.36 1531.6 Q1311.36 1540.33 1308.28 1544.94 Q1305.22 1549.52 1299.41 1549.52 Q1293.6 1549.52 1290.52 1544.94 Q1287.47 1540.33 1287.47 1531.6 Q1287.47 1522.85 1290.52 1518.27 Q1293.6 1513.66 1299.41 1513.66 Z" fill="#000000" fill-rule="evenodd" fill-opacity="1" /><path clip-path="url(#clip410)" d="M1738.75 1514.29 L1760.98 1514.29 L1760.98 1516.28 L1748.43 1548.85 L1743.54 1548.85 L1755.35 1518.22 L1738.75 1518.22 L1738.75 1514.29 Z" fill="#000000" fill-rule="evenodd" fill-opacity="1" /><path clip-path="url(#clip410)" d="M1770.14 1514.29 L1788.5 1514.29 L1788.5 1518.22 L1774.42 1518.22 L1774.42 1526.7 Q1775.44 1526.35 1776.46 1526.19 Q1777.48 1526 1778.5 1526 Q1784.29 1526 1787.67 1529.17 Q1791.04 1532.34 1791.04 1537.76 Q1791.04 1543.34 1787.57 1546.44 Q1784.1 1549.52 1777.78 1549.52 Q1775.61 1549.52 1773.34 1549.15 Q1771.09 1548.78 1768.68 1548.04 L1768.68 1543.34 Q1770.77 1544.47 1772.99 1545.03 Q1775.21 1545.58 1777.69 1545.58 Q1781.69 1545.58 1784.03 1543.48 Q1786.37 1541.37 1786.37 1537.76 Q1786.37 1534.15 1784.03 1532.04 Q1781.69 1529.94 1777.69 1529.94 Q1775.81 1529.94 1773.94 1530.35 Q1772.09 1530.77 1770.14 1531.65 L1770.14 1514.29 Z" fill="#000000" fill-rule="evenodd" fill-opacity="1" /><path clip-path="url(#clip410)" d="M1810.26 1517.37 Q1806.65 1517.37 1804.82 1520.93 Q1803.01 1524.47 1803.01 1531.6 Q1803.01 1538.71 1804.82 1542.27 Q1806.65 1545.82 1810.26 1545.82 Q1813.89 1545.82 1815.7 1542.27 Q1817.53 1538.71 1817.53 1531.6 Q1817.53 1524.47 1815.7 1520.93 Q1813.89 1517.37 1810.26 1517.37 M1810.26 1513.66 Q1816.07 1513.66 1819.12 1518.27 Q1822.2 1522.85 1822.2 1531.6 Q1822.2 1540.33 1819.12 1544.94 Q1816.07 1549.52 1810.26 1549.52 Q1804.45 1549.52 1801.37 1544.94 Q1798.31 1540.33 1798.31 1531.6 Q1798.31 1522.85 1801.37 1518.27 Q1804.45 1513.66 1810.26 1513.66 Z" fill="#000000" fill-rule="evenodd" fill-opacity="1" /><path clip-path="url(#clip410)" d="M2235.97 1544.91 L2243.6 1544.91 L2243.6 1518.55 L2235.29 1520.21 L2235.29 1515.95 L2243.56 1514.29 L2248.23 1514.29 L2248.23 1544.91 L2255.87 1544.91 L2255.87 1548.85 L2235.97 1548.85 L2235.97 1544.91 Z" fill="#000000" fill-rule="evenodd" fill-opacity="1" /><path clip-path="url(#clip410)" d="M2275.32 1517.37 Q2271.71 1517.37 2269.88 1520.93 Q2268.07 1524.47 2268.07 1531.6 Q2268.07 1538.71 2269.88 1542.27 Q2271.71 1545.82 2275.32 1545.82 Q2278.95 1545.82 2280.76 1542.27 Q2282.59 1538.71 2282.59 1531.6 Q2282.59 1524.47 2280.76 1520.93 Q2278.95 1517.37 2275.32 1517.37 M2275.32 1513.66 Q2281.13 1513.66 2284.18 1518.27 Q2287.26 1522.85 2287.26 1531.6 Q2287.26 1540.33 2284.18 1544.94 Q2281.13 1549.52 2275.32 1549.52 Q2269.51 1549.52 2266.43 1544.94 Q2263.37 1540.33 2263.37 1531.6 Q2263.37 1522.85 2266.43 1518.27 Q2269.51 1513.66 2275.32 1513.66 Z" fill="#000000" fill-rule="evenodd" fill-opacity="1" /><path clip-path="url(#clip410)" d="M2305.48 1517.37 Q2301.87 1517.37 2300.04 1520.93 Q2298.23 1524.47 2298.23 1531.6 Q2298.23 1538.71 2300.04 1542.27 Q2301.87 1545.82 2305.48 1545.82 Q2309.11 1545.82 2310.92 1542.27 Q2312.75 1538.71 2312.75 1531.6 Q2312.75 1524.47 2310.92 1520.93 Q2309.11 1517.37 2305.48 1517.37 M2305.48 1513.66 Q2311.29 1513.66 2314.35 1518.27 Q2317.42 1522.85 2317.42 1531.6 Q2317.42 1540.33 2314.35 1544.94 Q2311.29 1549.52 2305.48 1549.52 Q2299.67 1549.52 2296.59 1544.94 Q2293.54 1540.33 2293.54 1531.6 Q2293.54 1522.85 2296.59 1518.27 Q2299.67 1513.66 2305.48 1513.66 Z" fill="#000000" fill-rule="evenodd" fill-opacity="1" /><path clip-path="url(#clip410)" d="M2335.64 1517.37 Q2332.03 1517.37 2330.2 1520.93 Q2328.4 1524.47 2328.4 1531.6 Q2328.4 1538.71 2330.2 1542.27 Q2332.03 1545.82 2335.64 1545.82 Q2339.28 1545.82 2341.08 1542.27 Q2342.91 1538.71 2342.91 1531.6 Q2342.91 1524.47 2341.08 1520.93 Q2339.28 1517.37 2335.64 1517.37 M2335.64 1513.66 Q2341.45 1513.66 2344.51 1518.27 Q2347.59 1522.85 2347.59 1531.6 Q2347.59 1540.33 2344.51 1544.94 Q2341.45 1549.52 2335.64 1549.52 Q2329.83 1549.52 2326.75 1544.94 Q2323.7 1540.33 2323.7 1531.6 Q2323.7 1522.85 2326.75 1518.27 Q2329.83 1513.66 2335.64 1513.66 Z" fill="#000000" fill-rule="evenodd" fill-opacity="1" /><polyline clip-path="url(#clip412)" style="stroke:#000000; stroke-linecap:round; stroke-linejoin:round; stroke-width:2; stroke-opacity:0.1; fill:none" points="186.274,1331.59 2352.76,1331.59 "/>
<polyline clip-path="url(#clip412)" style="stroke:#000000; stroke-linecap:round; stroke-linejoin:round; stroke-width:2; stroke-opacity:0.1; fill:none" points="186.274,917.053 2352.76,917.053 "/>
<polyline clip-path="url(#clip412)" style="stroke:#000000; stroke-linecap:round; stroke-linejoin:round; stroke-width:2; stroke-opacity:0.1; fill:none" points="186.274,502.515 2352.76,502.515 "/>
<polyline clip-path="url(#clip412)" style="stroke:#000000; stroke-linecap:round; stroke-linejoin:round; stroke-width:2; stroke-opacity:0.1; fill:none" points="186.274,87.9763 2352.76,87.9763 "/>
<polyline clip-path="url(#clip410)" style="stroke:#000000; stroke-linecap:round; stroke-linejoin:round; stroke-width:4; stroke-opacity:1; fill:none" points="186.274,1486.45 186.274,47.2441 "/>
<polyline clip-path="url(#clip410)" style="stroke:#000000; stroke-linecap:round; stroke-linejoin:round; stroke-width:4; stroke-opacity:1; fill:none" points="186.274,1331.59 205.172,1331.59 "/>
<polyline clip-path="url(#clip410)" style="stroke:#000000; stroke-linecap:round; stroke-linejoin:round; stroke-width:4; stroke-opacity:1; fill:none" points="186.274,917.053 205.172,917.053 "/>
<polyline clip-path="url(#clip410)" style="stroke:#000000; stroke-linecap:round; stroke-linejoin:round; stroke-width:4; stroke-opacity:1; fill:none" points="186.274,502.515 205.172,502.515 "/>
<polyline clip-path="url(#clip410)" style="stroke:#000000; stroke-linecap:round; stroke-linejoin:round; stroke-width:4; stroke-opacity:1; fill:none" points="186.274,87.9763 205.172,87.9763 "/>
<path clip-path="url(#clip410)" d="M63.9319 1317.39 Q60.3208 1317.39 58.4921 1320.95 Q56.6865 1324.5 56.6865 1331.63 Q56.6865 1338.73 58.4921 1342.3 Q60.3208 1345.84 63.9319 1345.84 Q67.5661 1345.84 69.3717 1342.3 Q71.2004 1338.73 71.2004 1331.63 Q71.2004 1324.5 69.3717 1320.95 Q67.5661 1317.39 63.9319 1317.39 M63.9319 1313.69 Q69.742 1313.69 72.7976 1318.29 Q75.8763 1322.88 75.8763 1331.63 Q75.8763 1340.35 72.7976 1344.96 Q69.742 1349.54 63.9319 1349.54 Q58.1217 1349.54 55.043 1344.96 Q51.9875 1340.35 51.9875 1331.63 Q51.9875 1322.88 55.043 1318.29 Q58.1217 1313.69 63.9319 1313.69 Z" fill="#000000" fill-rule="evenodd" fill-opacity="1" /><path clip-path="url(#clip410)" d="M84.0938 1342.99 L88.978 1342.99 L88.978 1348.87 L84.0938 1348.87 L84.0938 1342.99 Z" fill="#000000" fill-rule="evenodd" fill-opacity="1" /><path clip-path="url(#clip410)" d="M109.163 1332.46 Q105.83 1332.46 103.909 1334.24 Q102.01 1336.02 102.01 1339.15 Q102.01 1342.27 103.909 1344.06 Q105.83 1345.84 109.163 1345.84 Q112.496 1345.84 114.418 1344.06 Q116.339 1342.25 116.339 1339.15 Q116.339 1336.02 114.418 1334.24 Q112.52 1332.46 109.163 1332.46 M104.487 1330.47 Q101.478 1329.73 99.7882 1327.67 Q98.1215 1325.61 98.1215 1322.64 Q98.1215 1318.5 101.061 1316.09 Q104.024 1313.69 109.163 1313.69 Q114.325 1313.69 117.265 1316.09 Q120.205 1318.5 120.205 1322.64 Q120.205 1325.61 118.515 1327.67 Q116.848 1329.73 113.862 1330.47 Q117.242 1331.26 119.117 1333.55 Q121.015 1335.84 121.015 1339.15 Q121.015 1344.17 117.936 1346.86 Q114.881 1349.54 109.163 1349.54 Q103.446 1349.54 100.367 1346.86 Q97.3113 1344.17 97.3113 1339.15 Q97.3113 1335.84 99.2095 1333.55 Q101.108 1331.26 104.487 1330.47 M102.774 1323.08 Q102.774 1325.77 104.441 1327.27 Q106.131 1328.78 109.163 1328.78 Q112.172 1328.78 113.862 1327.27 Q115.575 1325.77 115.575 1323.08 Q115.575 1320.4 113.862 1318.89 Q112.172 1317.39 109.163 1317.39 Q106.131 1317.39 104.441 1318.89 Q102.774 1320.4 102.774 1323.08 Z" fill="#000000" fill-rule="evenodd" fill-opacity="1" /><path clip-path="url(#clip410)" d="M129.371 1314.31 L147.728 1314.31 L147.728 1318.25 L133.654 1318.25 L133.654 1326.72 Q134.672 1326.37 135.691 1326.21 Q136.709 1326.02 137.728 1326.02 Q143.515 1326.02 146.894 1329.2 Q150.274 1332.37 150.274 1337.78 Q150.274 1343.36 146.802 1346.46 Q143.33 1349.54 137.01 1349.54 Q134.834 1349.54 132.566 1349.17 Q130.32 1348.8 127.913 1348.06 L127.913 1343.36 Q129.996 1344.5 132.219 1345.05 Q134.441 1345.61 136.918 1345.61 Q140.922 1345.61 143.26 1343.5 Q145.598 1341.39 145.598 1337.78 Q145.598 1334.17 143.26 1332.07 Q140.922 1329.96 136.918 1329.96 Q135.043 1329.96 133.168 1330.38 Q131.316 1330.79 129.371 1331.67 L129.371 1314.31 Z" fill="#000000" fill-rule="evenodd" fill-opacity="1" /><path clip-path="url(#clip410)" d="M62.9365 902.852 Q59.3254 902.852 57.4967 906.416 Q55.6912 909.958 55.6912 917.088 Q55.6912 924.194 57.4967 927.759 Q59.3254 931.3 62.9365 931.3 Q66.5707 931.3 68.3763 927.759 Q70.205 924.194 70.205 917.088 Q70.205 909.958 68.3763 906.416 Q66.5707 902.852 62.9365 902.852 M62.9365 899.148 Q68.7467 899.148 71.8022 903.754 Q74.8809 908.338 74.8809 917.088 Q74.8809 925.814 71.8022 930.421 Q68.7467 935.004 62.9365 935.004 Q57.1264 935.004 54.0477 930.421 Q50.9921 925.814 50.9921 917.088 Q50.9921 908.338 54.0477 903.754 Q57.1264 899.148 62.9365 899.148 Z" fill="#000000" fill-rule="evenodd" fill-opacity="1" /><path clip-path="url(#clip410)" d="M83.0984 928.453 L87.9827 928.453 L87.9827 934.333 L83.0984 934.333 L83.0984 928.453 Z" fill="#000000" fill-rule="evenodd" fill-opacity="1" /><path clip-path="url(#clip410)" d="M98.3067 933.615 L98.3067 929.356 Q100.066 930.189 101.871 930.629 Q103.677 931.069 105.413 931.069 Q110.043 931.069 112.473 927.967 Q114.927 924.842 115.274 918.5 Q113.932 920.49 111.871 921.555 Q109.811 922.62 107.311 922.62 Q102.126 922.62 99.0937 919.495 Q96.0845 916.347 96.0845 910.907 Q96.0845 905.583 99.2326 902.365 Q102.381 899.148 107.612 899.148 Q113.608 899.148 116.756 903.754 Q119.927 908.338 119.927 917.088 Q119.927 925.259 116.038 930.143 Q112.172 935.004 105.621 935.004 Q103.862 935.004 102.057 934.657 Q100.251 934.31 98.3067 933.615 M107.612 918.963 Q110.76 918.963 112.589 916.81 Q114.441 914.657 114.441 910.907 Q114.441 907.18 112.589 905.027 Q110.76 902.852 107.612 902.852 Q104.464 902.852 102.612 905.027 Q100.784 907.18 100.784 910.907 Q100.784 914.657 102.612 916.81 Q104.464 918.963 107.612 918.963 Z" fill="#000000" fill-rule="evenodd" fill-opacity="1" /><path clip-path="url(#clip410)" d="M138.33 902.852 Q134.719 902.852 132.89 906.416 Q131.084 909.958 131.084 917.088 Q131.084 924.194 132.89 927.759 Q134.719 931.3 138.33 931.3 Q141.964 931.3 143.769 927.759 Q145.598 924.194 145.598 917.088 Q145.598 909.958 143.769 906.416 Q141.964 902.852 138.33 902.852 M138.33 899.148 Q144.14 899.148 147.195 903.754 Q150.274 908.338 150.274 917.088 Q150.274 925.814 147.195 930.421 Q144.14 935.004 138.33 935.004 Q132.519 935.004 129.441 930.421 Q126.385 925.814 126.385 917.088 Q126.385 908.338 129.441 903.754 Q132.519 899.148 138.33 899.148 Z" fill="#000000" fill-rule="evenodd" fill-opacity="1" /><path clip-path="url(#clip410)" d="M63.9319 488.313 Q60.3208 488.313 58.4921 491.878 Q56.6865 495.42 56.6865 502.549 Q56.6865 509.656 58.4921 513.221 Q60.3208 516.762 63.9319 516.762 Q67.5661 516.762 69.3717 513.221 Q71.2004 509.656 71.2004 502.549 Q71.2004 495.42 69.3717 491.878 Q67.5661 488.313 63.9319 488.313 M63.9319 484.61 Q69.742 484.61 72.7976 489.216 Q75.8763 493.799 75.8763 502.549 Q75.8763 511.276 72.7976 515.883 Q69.742 520.466 63.9319 520.466 Q58.1217 520.466 55.043 515.883 Q51.9875 511.276 51.9875 502.549 Q51.9875 493.799 55.043 489.216 Q58.1217 484.61 63.9319 484.61 Z" fill="#000000" fill-rule="evenodd" fill-opacity="1" /><path clip-path="url(#clip410)" d="M84.0938 513.915 L88.978 513.915 L88.978 519.795 L84.0938 519.795 L84.0938 513.915 Z" fill="#000000" fill-rule="evenodd" fill-opacity="1" /><path clip-path="url(#clip410)" d="M99.3021 519.077 L99.3021 514.818 Q101.061 515.651 102.867 516.091 Q104.672 516.531 106.408 516.531 Q111.038 516.531 113.469 513.429 Q115.922 510.304 116.27 503.961 Q114.927 505.952 112.867 507.017 Q110.807 508.082 108.307 508.082 Q103.121 508.082 100.089 504.957 Q97.0798 501.809 97.0798 496.369 Q97.0798 491.045 100.228 487.827 Q103.376 484.61 108.608 484.61 Q114.603 484.61 117.751 489.216 Q120.922 493.799 120.922 502.549 Q120.922 510.721 117.033 515.605 Q113.168 520.466 106.617 520.466 Q104.858 520.466 103.052 520.119 Q101.246 519.771 99.3021 519.077 M108.608 504.424 Q111.756 504.424 113.584 502.272 Q115.436 500.119 115.436 496.369 Q115.436 492.642 113.584 490.489 Q111.756 488.313 108.608 488.313 Q105.459 488.313 103.608 490.489 Q101.779 492.642 101.779 496.369 Q101.779 500.119 103.608 502.272 Q105.459 504.424 108.608 504.424 Z" fill="#000000" fill-rule="evenodd" fill-opacity="1" /><path clip-path="url(#clip410)" d="M129.371 485.235 L147.728 485.235 L147.728 489.17 L133.654 489.17 L133.654 497.642 Q134.672 497.295 135.691 497.133 Q136.709 496.947 137.728 496.947 Q143.515 496.947 146.894 500.119 Q150.274 503.29 150.274 508.707 Q150.274 514.285 146.802 517.387 Q143.33 520.466 137.01 520.466 Q134.834 520.466 132.566 520.095 Q130.32 519.725 127.913 518.984 L127.913 514.285 Q129.996 515.42 132.219 515.975 Q134.441 516.531 136.918 516.531 Q140.922 516.531 143.26 514.424 Q145.598 512.318 145.598 508.707 Q145.598 505.096 143.26 502.989 Q140.922 500.883 136.918 500.883 Q135.043 500.883 133.168 501.299 Q131.316 501.716 129.371 502.596 L129.371 485.235 Z" fill="#000000" fill-rule="evenodd" fill-opacity="1" /><path clip-path="url(#clip410)" d="M53.7467 101.321 L61.3856 101.321 L61.3856 74.9555 L53.0754 76.6222 L53.0754 72.3629 L61.3393 70.6963 L66.0152 70.6963 L66.0152 101.321 L73.654 101.321 L73.654 105.256 L53.7467 105.256 L53.7467 101.321 Z" fill="#000000" fill-rule="evenodd" fill-opacity="1" /><path clip-path="url(#clip410)" d="M83.0984 99.3767 L87.9827 99.3767 L87.9827 105.256 L83.0984 105.256 L83.0984 99.3767 Z" fill="#000000" fill-rule="evenodd" fill-opacity="1" /><path clip-path="url(#clip410)" d="M108.168 73.775 Q104.557 73.775 102.728 77.3398 Q100.922 80.8814 100.922 88.011 Q100.922 95.1174 102.728 98.6822 Q104.557 102.224 108.168 102.224 Q111.802 102.224 113.608 98.6822 Q115.436 95.1174 115.436 88.011 Q115.436 80.8814 113.608 77.3398 Q111.802 73.775 108.168 73.775 M108.168 70.0713 Q113.978 70.0713 117.033 74.6777 Q120.112 79.261 120.112 88.011 Q120.112 96.7378 117.033 101.344 Q113.978 105.928 108.168 105.928 Q102.358 105.928 99.2789 101.344 Q96.2234 96.7378 96.2234 88.011 Q96.2234 79.261 99.2789 74.6777 Q102.358 70.0713 108.168 70.0713 Z" fill="#000000" fill-rule="evenodd" fill-opacity="1" /><path clip-path="url(#clip410)" d="M138.33 73.775 Q134.719 73.775 132.89 77.3398 Q131.084 80.8814 131.084 88.011 Q131.084 95.1174 132.89 98.6822 Q134.719 102.224 138.33 102.224 Q141.964 102.224 143.769 98.6822 Q145.598 95.1174 145.598 88.011 Q145.598 80.8814 143.769 77.3398 Q141.964 73.775 138.33 73.775 M138.33 70.0713 Q144.14 70.0713 147.195 74.6777 Q150.274 79.261 150.274 88.011 Q150.274 96.7378 147.195 101.344 Q144.14 105.928 138.33 105.928 Q132.519 105.928 129.441 101.344 Q126.385 96.7378 126.385 88.011 Q126.385 79.261 129.441 74.6777 Q132.519 70.0713 138.33 70.0713 Z" fill="#000000" fill-rule="evenodd" fill-opacity="1" /><polyline clip-path="url(#clip412)" style="stroke:#009af9; stroke-linecap:round; stroke-linejoin:round; stroke-width:4; stroke-opacity:1; fill:none" points="247.59,87.9763 247.693,195.804 247.797,125.621 247.901,147.957 248.005,199.661 248.109,116.498 248.213,238.031 248.317,154.92 248.421,217.653 248.525,243.032 248.629,189.235 248.733,308.8 248.837,216.73 248.941,309.499 249.045,301.95 249.149,278.755 249.253,381.2 249.357,286.067 249.461,397.361 249.565,355.986 249.669,364.505 249.773,439.702 249.877,351.196 249.981,471.21 250.085,401.916 250.188,443.294 250.292,486.628 250.396,416.124 250.5,535.976 250.604,448.642 250.708,521.399 250.812,531.439 250.916,488.071 251.02,597.985 251.124,502.984 251.228,601.057 251.332,577.995 251.436,566.547 251.54,656.171 251.644,563.18 251.748,676.888 251.852,623.315 251.956,644.886 252.06,705.756 252.164,624.364 252.268,742.994 252.372,665.229 252.476,718.54 252.579,746.103 252.683,685.77 252.787,799.188 252.891,706.858 252.995,788.245 253.099,781.832 253.203,750.219 253.307,848.917 253.411,752.891 253.515,855.528 253.619,817.255 253.723,818.418 253.827,893.56 253.931,804.171 254.035,918.309 254.139,852.675 254.243,886.748 254.347,931.384 254.451,857.932 254.555,972.605 254.659,886.869 254.763,950.941 254.867,961.584 254.971,912.234 255.074,1017.04 255.178,921.047 255.282,1009.81 255.386,986.911 255.49,967.823 255.594,1053.7 255.698,958.441 255.802,1064.14 255.906,1011.36 256.01,1025.36 256.114,1084.76 256.218,1000.61 256.322,1113.27 256.426,1036.65 256.53,1082.69 256.634,1110.21 256.738,1045.95 256.842,1154.62 256.946,1062.35 257.05,1136.08 257.154,1129.59 257.258,1092.16 257.362,1186.59 257.466,1088.73 257.569,1183.46 257.673,1144.66 257.777,1138.64 257.881,1210.41 257.985,1117.84 258.089,1224.95 258.193,1158.86 258.297,1185.66 258.401,1228.49 258.505,1151.28 258.609,1260.61 258.713,1174.58 258.817,1231.86 258.921,1241.95 259.025,1188.18 259.129,1289.01 259.233,1192.03 259.337,1274.19 259.441,1250.91 259.545,1226.2 259.649,1308.75 259.753,1211.04 259.857,1310.18 259.96,1256.52 260.064,1263.88 260.168,1320.53 260.272,1232.64 260.376,1339.43 260.48,1261.61 260.584,1300.92 260.688,1326.71 260.792,1258.13 260.896,1362.33 261.857,1351.27 262.819,1314.71 263.78,1343.05 264.741,1418.18 265.702,1445.72 266.664,1394.25 267.625,1337.88 268.586,1354.18 269.547,1405.56 270.509,1397.13 271.47,1318.56 272.431,1255.96 273.392,1270.8 274.353,1306.45 275.315,1272.26 276.276,1180.38 277.237,1124.83 278.198,1147.18 279.16,1173.52 280.121,1122.96 281.082,1030.6 282.043,993.012 283.005,1028.5 283.966,1049.43 284.927,990.317 285.888,908.099 286.85,895.56 287.811,945.725 288.772,962.468 289.733,900.725 290.695,836.161 291.656,851.197 292.617,913.598 293.578,925.167 294.539,864.749 295.501,821.823 296.462,862.584 297.423,931.714 298.384,935.7 299.346,878.754 300.307,858.099 301.268,919.261 302.229,987.877 303.191,981.351 304.152,928.637 305.113,928.242 306.074,1002.39 307.036,1062.94 307.997,1043.32 308.958,994.828 309.919,1011.1 310.881,1090.22 311.842,1136.09 312.803,1101.87 313.764,1057.53 314.725,1086.44 315.687,1163.2 316.648,1189.6 317.609,1140.86 318.57,1101.21 319.532,1139.19 320.493,1207.75 321.454,1212.22 322.415,1150.95 323.377,1117.49 324.338,1161.92 325.299,1218.34 326.26,1200.82 327.222,1130.89 328.183,1106.14 329.144,1155.38 330.105,1197.5 331.067,1160.14 332.028,1086.97 332.989,1074.05 333.95,1127.07 334.912,1154.18 335.873,1100.91 336.834,1030.82 337.795,1032.74 338.756,1088.56 339.718,1100.94 340.679,1036.85 341.64,976.212 342.601,995.092 343.563,1052.24 344.524,1050.77 345.485,981.403 346.446,935.742 347.408,972.077 348.369,1028.29 349.33,1014.09 350.291,944.8 351.253,917.989 352.214,970.274 353.175,1022.47 354.136,996.713 355.098,932.093 356.059,925.889 357.02,990.643 357.981,1035.15 358.942,999.033 359.904,942.56 360.865,956.523 361.826,1028.71 362.787,1061.76 363.749,1016.51 364.71,970.459 365.671,1002.26 366.632,1075.96 367.594,1094.2 368.555,1041.26 369.516,1006.88 370.477,1052.88 371.439,1122.11 372.4,1123.12 373.361,1064.32 374.322,1042.14 375.284,1098.11 376.245,1157.51 377.206,1140.19 378.167,1077.96 379.129,1068.2 380.09,1129.87 381.051,1175.27 382.012,1140.12 382.973,1077.61 383.935,1080.43 384.512,1094.36 385.09,1171.89 385.668,1127.98 386.245,1063.81 386.823,1127.89 387.401,1165.35 387.978,1083.65 388.556,1071.14 389.134,1152.32 389.711,1129.99 390.289,1050.98 390.867,1095.57 391.444,1151.75 392.022,1079.78 392.6,1042.29 393.177,1120.21 393.755,1121.59 394.333,1034.99 394.91,1056.64 395.488,1126.97 396.066,1071.24 396.643,1012.28 397.221,1080.6 397.799,1106.1 398.376,1019.7 398.954,1016.6 399.532,1095.47 400.109,1061.49 400.687,986.36 401.265,1039.14 401.842,1087.1 402.42,1009.08 402.998,981.608 403.575,1062.14 404.153,1053.41 404.731,969.239 405.308,1001.93 405.886,1068.21 406.464,1005.85 407.041,956.785 407.619,1032.02 408.197,1049.46 408.774,963.881 409.352,973.789 409.93,1052.76 410.507,1011.74 411.085,945.407 411.663,1008.74 412.24,1051.1 412.818,971.829 413.396,957.875 413.973,1042.49 414.551,1026.73 415.129,949.105 415.706,994.592 416.284,1057.97 416.862,992.282 417.439,955.729 418.017,1038.08 418.595,1048.78 419.172,966.882 419.75,990.439 420.328,1068.81 420.905,1022.27 421.483,966.363 422.061,1039.02 422.638,1074.87 423.216,995.686 423.794,995.058 424.371,1081.28 424.949,1057.76 425.527,987.151 426.104,1043.35 426.682,1100.94 427.26,1031.33 427.837,1006.26 428.415,1092.22 428.993,1093.55 429.57,1014.44 430.148,1048.88 430.726,1122.56 431.303,1068.44 431.881,1021.15 432.459,1098.95 433.036,1124.46 433.614,1043.61 434.192,1053.27 434.769,1136.26 435.347,1101.93 435.925,1036.39 436.502,1099.14 437.08,1146.37 437.658,1070.57 438.235,1054.39 438.813,1139.31 439.391,1127.69 439.968,1049.48 440.546,1091.45 441.123,1156.15 441.701,1092.09 442.279,1051.44 442.856,1130.63 443.434,1142.65 444.012,1058.75 444.589,1076.31 445.167,1152.66 445.745,1105.87 446.322,1044.48 446.9,1111.16 447.478,1145.72 448.055,1063.43 448.633,1055.21 449.211,1136.78 449.788,1111.44 450.366,1034.65 450.944,1083.12 451.521,1137.55 452.099,1064.26 452.677,1030.96 453.254,1110.75 453.832,1109.51 454.41,1024.29 454.987,1050.31 455.565,1120.02 456.143,1062.59 456.72,1007.37 457.298,1078.47 457.876,1101.66 458.364,1107.59 458.853,1102.22 459.341,1086.18 459.829,1062.38 460.318,1035.35 460.806,1010.27 461.295,991.876 461.783,983.538 462.271,986.605 462.76,1000.08 463.248,1020.77 463.737,1043.94 464.225,1064.39 464.713,1077.53 465.202,1080.33 465.69,1071.89 466.179,1053.61 466.667,1028.99 467.156,1002.89 467.644,980.548 468.132,966.378 468.621,963.087 469.109,971.142 469.598,988.725 470.086,1012.08 470.574,1036.23 471.063,1056.01 471.551,1067.2 472.04,1067.44 472.528,1056.68 473.016,1037.16 473.505,1012.91 473.993,988.987 474.482,970.429 474.97,961.22 475.458,963.384 475.947,976.554 476.435,998.098 476.924,1023.71 477.412,1048.28 477.901,1066.91 478.389,1075.92 478.877,1073.64 479.366,1060.8 479.854,1040.39 480.343,1016.96 480.831,995.652 481.319,981.172 481.808,976.868 482.296,984.014 482.785,1001.49 483.273,1025.99 483.761,1052.76 484.25,1076.61 484.738,1093.01 485.227,1098.98 485.715,1093.64 486.203,1078.47 486.692,1057.04 487.18,1034.25 487.669,1015.27 488.157,1004.42 488.645,1004.33 489.134,1015.42 489.622,1035.82 490.111,1061.7 490.599,1088.06 491.088,1109.77 491.576,1122.68 492.064,1124.54 492.553,1115.34 493.041,1097.32 493.53,1074.53 494.018,1052.03 494.506,1034.84 494.995,1026.87 495.483,1030.03 495.972,1043.89 496.46,1065.83 496.948,1091.57 497.437,1115.99 497.925,1134.22 498.414,1142.62 498.902,1139.61 499.39,1126.01 499.879,1104.79 500.367,1080.46 500.856,1058.14 501.344,1042.52 501.832,1036.94 502.321,1042.62 502.809,1058.38 503.298,1080.9 503.786,1105.47 504.275,1126.97 504.763,1140.91 505.251,1144.28 505.74,1136.26 506.228,1118.37 506.717,1094.22 507.205,1068.71 507.693,1046.94 508.182,1033.23 508.67,1030.19 509.159,1038.27 509.647,1055.59 510.135,1078.29 510.624,1101.36 511.112,1119.7 511.601,1129.26 512.089,1127.76 512.577,1115.2 513.066,1093.84 513.554,1067.76 514.043,1042.08 514.531,1021.82 515.02,1010.85 515.508,1011.05 515.996,1022.01 516.485,1041.12 516.973,1064.08 517.462,1085.75 517.95,1101.23 518.438,1106.91 518.927,1101.27 519.415,1085.15 519.904,1061.55 520.392,1034.98 520.923,1064.51 521.453,1087.19 521.984,1094.95 522.514,1084.63 523.045,1059.08 523.575,1026.25 524.106,996.556 524.636,979.413 525.167,980.025 525.697,997.721 526.228,1026.23 526.759,1055.75 527.289,1076.12 527.82,1080.22 528.35,1066.37 528.881,1038.93 529.411,1006.81 529.942,980.451 530.472,968.405 531.003,974.53 531.534,996.729 532.064,1027.58 532.595,1056.78 533.125,1074.6 533.656,1075.17 534.186,1058.41 534.717,1029.98 535.247,999.404 535.778,976.989 536.308,970.394 536.839,982.061 537.37,1008.35 537.9,1040.79 538.431,1068.91 538.961,1083.75 539.492,1080.77 540.022,1061.32 540.553,1032.24 541.083,1003.64 541.614,985.497 542.144,984.313 542.675,1000.93 543.206,1030.31 543.736,1063.26 544.267,1089.4 544.797,1100.56 545.328,1093.58 545.858,1071.32 546.389,1041.8 546.919,1015.4 547.45,1001.42 547.98,1005.05 548.511,1025.68 549.042,1057.05 549.572,1089.3 550.103,1112.25 550.633,1118.81 551.164,1107.37 551.694,1082.3 552.225,1052.4 552.755,1028.09 553.286,1017.91 553.817,1025.76 554.347,1049.47 554.878,1081.56 555.408,1111.76 555.939,1130.43 556.469,1131.76 557,1115.64 557.53,1087.7 558.061,1057.49 558.591,1035.33 559.122,1028.82 559.653,1040.3 560.183,1066.09 560.714,1097.77 561.244,1124.95 561.775,1138.68 562.305,1134.41 562.836,1113.57 563.366,1083.07 563.897,1053.04 564.427,1033.36 564.958,1030.43 565.489,1045.09 566.019,1072.33 566.55,1102.93 567.08,1126.49 567.611,1134.89 568.141,1125.09 568.672,1100.08 569.202,1067.84 569.733,1038.7 570.264,1021.97 570.794,1022.84 571.325,1040.65 571.855,1069.04 572.386,1098.11 572.916,1117.75 573.447,1121 573.977,1106.31 574.508,1078.02 575.038,1045.02 575.569,1017.77 576.1,1004.84 576.63,1009.99 577.161,1030.98 577.691,1060.3 578.222,1087.71 578.752,1103.62 579.283,1102.2 579.813,1083.38 580.344,1052.91 580.874,1020.44 581.405,996.275 581.936,987.94 582.466,997.721 582.997,1021.94 583.527,1052.16 584.058,1077.93 584.588,1090.25 585.119,1084.65 585.649,1062.65 586.18,1031.25 586.711,1000.54 587.241,980.382 587.772,977.227 588.302,991.909 588.791,978.249 589.28,974.521 589.77,981.336 590.259,997.317 590.748,1019.35 591.237,1043.16 591.726,1064.09 592.215,1078.07 592.704,1082.41 593.193,1076.32 593.682,1060.98 594.172,1039.37 594.661,1015.67 595.15,994.527 595.639,980.102 596.128,975.273 596.617,981.044 597.106,996.392 597.595,1018.49 598.085,1043.25 598.574,1066.05 599.063,1082.64 599.552,1089.97 600.041,1086.82 600.53,1074 601.019,1054.19 601.508,1031.39 601.997,1010.19 602.487,994.878 602.976,988.667 603.465,992.989 603.954,1007.23 604.443,1028.86 604.932,1053.96 605.421,1077.99 605.91,1096.57 606.4,1106.36 606.889,1105.72 607.378,1095.03 607.867,1076.64 608.356,1054.34 608.845,1032.68 609.334,1016.05 609.823,1007.9 610.312,1010.08 610.802,1022.41 611.291,1042.75 611.78,1067.38 612.269,1091.8 612.758,1111.55 613.247,1123.06 613.736,1124.31 614.225,1115.23 614.715,1097.77 615.204,1075.48 615.693,1052.86 616.182,1034.39 616.671,1023.77 617.16,1023.17 617.649,1032.86 618.138,1051.12 618.627,1074.52 619.117,1098.63 619.606,1118.9 620.095,1131.51 620.584,1134.13 621.073,1126.27 621.562,1109.47 622.051,1086.97 622.54,1063.14 623.03,1042.57 623.519,1029.2 624.008,1025.55 624.497,1032.27 624.986,1048.03 625.475,1069.77 625.964,1093.21 626.453,1113.72 626.942,1127.25 627.432,1131.1 627.921,1124.44 628.41,1108.39 628.899,1085.88 629.388,1061.08 629.877,1038.62 630.366,1022.68 630.855,1016.13 631.345,1020.02 631.834,1033.41 632.323,1053.54 632.812,1076.34 633.301,1097.21 633.79,1111.89 634.279,1117.32 634.768,1112.24 635.258,1097.42 635.747,1075.47 636.236,1050.35 636.725,1026.66 637.214,1008.74 637.703,999.814 638.192,1001.37 638.681,1012.85 639.17,1031.79 639.66,1054.34 640.149,1075.94 640.638,1092.21 641.127,1099.77 641.616,1096.92 642.105,1084.02 642.594,1063.37 643.083,1038.74 643.573,1014.65 644.062,995.545 644.551,984.942 645.04,984.736 645.529,994.802 646.018,1013.03 646.507,1035.75 646.996,1058.47 647.485,1076.71 647.975,1086.84 648.464,1086.79 648.953,1076.46 649.442,1057.77 649.931,1034.28 650.42,1010.44 650.909,990.792 651.434,1009.6 651.958,1032.5 652.482,1055.32 653.007,1073.85 653.531,1084.69 654.056,1085.87 654.58,1077.23 655.104,1060.44 655.629,1038.63 656.153,1015.85 656.678,996.378 657.202,983.916 657.726,980.875 658.251,987.912 658.775,1003.85 659.299,1025.91 659.824,1050.24 660.348,1072.52 660.873,1088.81 661.397,1096.29 661.921,1093.79 662.446,1082 662.97,1063.25 663.495,1041.18 664.019,1020.04 664.543,1003.96 665.068,996.119 665.592,998.155 666.117,1009.89 666.641,1029.42 667.165,1053.39 667.69,1077.64 668.214,1097.92 668.738,1110.71 669.263,1113.92 669.787,1107.18 670.312,1091.97 670.836,1071.25 671.36,1049.03 671.885,1029.64 672.409,1016.83 672.934,1013.15 673.458,1019.42 673.982,1034.68 674.507,1056.33 675.031,1080.55 675.555,1103.03 676.08,1119.77 676.604,1127.85 677.129,1125.93 677.653,1114.48 678.177,1095.67 678.702,1073.05 679.226,1050.88 679.751,1033.31 680.275,1023.62 680.799,1023.61 681.324,1033.32 681.848,1051.01 682.372,1073.46 682.897,1096.51 683.421,1115.9 683.946,1128.06 684.47,1130.74 684.994,1123.4 685.519,1107.3 686.043,1085.31 686.568,1061.41 687.092,1039.92 687.616,1024.66 688.141,1018.3 688.665,1021.88 689.19,1034.64 689.714,1054.11 690.238,1076.53 690.763,1097.6 691.287,1113.32 691.811,1120.62 692.336,1118.01 692.86,1105.73 693.385,1085.84 693.909,1061.82 694.433,1037.89 694.958,1018.24 695.482,1006.24 696.007,1003.88 696.531,1011.41 697.055,1027.26 697.58,1048.27 698.104,1070.36 698.628,1089.27 699.153,1101.34 699.677,1104.16 700.202,1096.96 700.726,1080.86 701.25,1058.64 701.775,1034.19 702.299,1011.81 702.824,995.414 703.348,987.817 703.872,990.275 704.397,1002.19 704.921,1021.21 705.446,1043.67 705.97,1065.31 706.494,1082.07 707.019,1090.75 707.543,1089.63 708.067,1078.79 708.592,1060.16 709.116,1037.09 709.641,1013.76 710.165,994.353 710.689,982.39 711.214,980.052 711.738,987.764 712.263,1004.09 712.787,1026 713.311,1049.49 713.836,1070.3 714.36,1084.66 714.884,1089.94 715.409,1085.22 715.933,1071.45 716.458,1051.25 716.982,1028.42 717.506,1007.22 718.031,991.646 718.638,1059.08 719.246,1054.79 719.853,997.359 720.461,1096.57 721.069,999.366 721.676,1058.82 722.284,1065.15 722.891,999.693 723.499,1101.88 724.106,1008.71 724.714,1059.48 725.321,1076.21 725.929,1003.31 726.537,1107.36 727.144,1019.02 727.752,1060.48 728.359,1087.31 728.967,1007.64 729.574,1112.38 730.182,1029.57 730.789,1061.23 731.397,1097.81 732.005,1012.02 732.612,1116.27 733.22,1039.72 733.827,1061.21 734.435,1107.03 735.042,1015.86 735.65,1118.51 736.257,1048.89 736.865,1059.92 737.472,1114.41 738.08,1018.68 738.688,1118.7 739.295,1056.6 739.903,1056.99 740.51,1119.56 741.118,1020.2 741.725,1116.58 742.333,1062.54 742.94,1052.27 743.548,1122.32 744.156,1020.28 744.763,1112.05 745.371,1066.61 745.978,1045.81 746.586,1122.69 747.193,1018.97 747.801,1105.25 748.408,1068.92 749.016,1037.85 749.624,1120.85 750.231,1016.49 750.839,1096.54 751.446,1069.78 752.054,1028.77 752.661,1117.14 753.269,1013.29 753.876,1086.42 754.484,1069.57 755.092,1019.08 755.699,1112.11 756.307,1009.92 756.914,1075.46 757.522,1068.79 758.129,1009.46 758.737,1106.35 759.344,1006.92 759.952,1064.3 760.56,1068.05 761.167,1000.57 761.775,1100.44 762.382,1004.85 762.99,1053.62 763.597,1067.88 764.205,992.988 764.812,1094.93 765.42,1004.26 766.027,1044.02 766.635,1068.73 767.243,987.222 767.85,1090.3 768.458,1005.57 769.065,1035.94 769.673,1070.9 770.28,983.665 770.888,1086.9 771.495,1009 772.103,1029.67 772.711,1074.57 773.318,982.535 773.926,1084.88 774.533,1014.57 775.141,1025.35 775.748,1079.75 776.356,983.814 776.963,1084.18 777.571,1022.14 778.179,1022.92 778.786,1086.21 779.394,987.277 780.001,1084.61 780.609,1031.44 781.216,1022.15 781.824,1093.58 782.431,992.57 783.039,1085.84 783.647,1041.97 784.254,1022.6 784.862,1101.34 785.469,999.225 786.077,1087.41 786.684,1053.12 787.292,1023.78 787.899,1108.98 788.507,1006.66 789.115,1088.75 789.722,1064.27 790.33,1025.2 790.937,1115.88 791.545,1014.24 792.152,1089.33 792.76,1074.81 793.367,1026.32 793.975,1121.46 794.582,1021.39 795.19,1088.7 795.798,1084.18 796.338,1041.82 796.877,1017.2 797.417,1026.2 797.957,1063.46 798.497,1105.72 799.037,1126.52 799.577,1112.94 800.117,1073.74 800.657,1033.79 801.197,1018.39 801.737,1037.3 802.277,1078.63 802.817,1116.29 803.357,1126.46 803.896,1102.62 804.436,1059.7 804.976,1024.64 805.516,1019.4 806.056,1047.04 806.596,1089.86 807.136,1120.56 807.676,1119.45 808.216,1086.88 808.756,1043.02 809.296,1015.14 809.836,1020.42 810.375,1055.08 810.915,1096.77 811.455,1118.65 811.995,1106.41 812.535,1067.23 813.075,1025.3 813.615,1006.48 814.155,1022.07 814.695,1061.65 815.235,1099.66 815.775,1111.48 816.315,1089.02 816.855,1045.84 817.394,1008.58 817.934,1000.14 818.474,1025.21 819.014,1067.37 819.554,1099.4 820.094,1100.52 820.634,1069.41 821.174,1025.12 821.714,995.036 822.254,997.613 822.794,1030.71 823.334,1072.92 823.874,1097.11 824.413,1087.57 824.953,1049.88 825.493,1007.41 826.033,986.542 826.573,1000.1 827.113,1039.2 827.653,1078.89 828.193,1093.83 828.733,1074.35 829.273,1032.53 829.813,994.61 830.353,984.363 830.893,1008.14 831.432,1050.85 831.972,1085.54 832.512,1090.31 833.052,1062.17 833.592,1018.94 834.132,987.988 834.672,988.995 835.212,1021.49 835.752,1065.15 836.292,1092.65 836.832,1086.91 837.372,1051.86 837.911,1009.93 838.451,987.897 838.991,1000.05 839.531,1039.14 840.071,1080.91 840.611,1099.45 841.151,1083.53 841.691,1043.68 842.231,1005.59 842.771,993.795 843.311,1016.27 843.851,1059.38 844.391,1096.5 844.93,1104.79 845.47,1079.58 846.01,1037.38 846.55,1005.4 847.09,1004.44 847.63,1035.69 848.17,1080 848.71,1110 849.25,1107.36 849.79,1074.33 850.33,1032.31 850.87,1008.37 851.41,1018.16 851.949,1056.04 852.489,1098.62 853.029,1119.5 853.569,1105.99 854.109,1067.07 854.649,1027.77 855.189,1013.27 855.729,1033.1 856.269,1075.11 856.809,1113.13 857.349,1123.46 857.889,1099.86 858.429,1057.45 858.968,1023.22 859.508,1018.98 860.048,1047.54 860.588,1090.97 861.128,1121.96 861.668,1121.02 862.208,1088.75 862.748,1045.51 863.288,1018.52 863.828,1024.75 864.368,1060.18 864.908,1102.28 865.381,1058.91 865.854,1022.89 866.328,1017.46 866.801,1045.93 867.275,1089.51 867.748,1119.56 868.222,1116.22 868.695,1081.34 869.169,1037.29 869.642,1012.38 870.116,1022.44 870.589,1060.53 871.063,1101.44 871.536,1118.15 872.01,1099.32 872.483,1056.75 872.956,1017.68 873.43,1007.06 873.903,1031.33 874.377,1074.21 874.85,1107.28 875.324,1108.5 875.797,1076.56 876.271,1031.75 876.744,1002.71 877.218,1007.83 877.691,1043.26 878.165,1085.41 878.638,1106.36 879.111,1091.95 879.585,1051.06 880.058,1009.79 880.532,994.529 881.005,1014.73 881.479,1056.79 881.952,1092.87 882.426,1099.03 882.899,1070.83 883.373,1026.2 883.846,993.807 884.32,994.352 884.793,1027.11 885.266,1070.41 885.74,1095.73 886.213,1086.29 886.687,1047.96 887.16,1005.4 887.634,986.073 888.107,1002.34 888.581,1043.43 889.054,1082.41 889.528,1093.77 890.001,1069.96 890.475,1026.39 890.948,991.352 891.421,987.607 891.895,1017.57 892.368,1061.72 892.842,1091.34 893.315,1087.21 893.789,1052.1 894.262,1008.96 894.736,985.989 895.209,998.289 895.683,1038.03 896.156,1079.53 896.63,1096.01 897.103,1076.97 897.576,1035.06 898.05,997.849 898.523,989.872 898.997,1016.64 899.47,1061.07 899.944,1094.58 900.417,1095.75 900.891,1064.21 901.364,1020.9 901.838,994.446 902.311,1002.47 902.785,1040.21 903.258,1083.54 903.732,1104.74 904.205,1090.49 904.678,1050.53 905.152,1011.36 905.625,998.977 906.099,1021.93 906.572,1065.79 907.046,1102.48 907.519,1108.63 907.993,1080.73 908.466,1037.46 908.94,1007.46 909.413,1010.75 909.887,1045.64 910.36,1089.91 910.833,1115.21 911.307,1105.54 911.78,1067.63 912.254,1026.58 912.727,1009.53 913.201,1027.98 913.674,1070.32 914.148,1109.36 914.621,1120.04 915.095,1095.76 915.568,1052.64 916.042,1019.06 916.515,1017.16 916.988,1048.41 917.462,1092.73 917.935,1121.49 918.409,1116.18 918.882,1080.43 919.356,1037.65 919.829,1015.81 920.303,1029.22 920.776,1069.25 921.25,1109.9 921.723,1124.73 922.197,1104.11 922.67,1061.42 923.143,1024.43 923.617,1017.14 924.09,1044.2 924.564,1087.88 925.037,1119.62 925.511,1118.6 926.027,1122.15 926.543,1122.88 927.059,1120.71 927.576,1115.73 928.092,1108.2 928.608,1098.5 929.124,1087.08 929.64,1074.52 930.157,1061.43 930.673,1048.5 931.189,1036.35 931.705,1025.59 932.221,1016.72 932.738,1010.19 933.254,1006.31 933.77,1005.25 934.286,1007 934.802,1011.44 935.319,1018.3 935.835,1027.21 936.867,1049.01 937.9,1071.98 938.416,1082.34 938.932,1091.15 939.448,1097.89 939.964,1102.18 940.481,1103.78 940.997,1102.57 941.513,1098.55 942.029,1091.9 942.545,1082.93 943.062,1072.1 943.578,1059.94 944.094,1047.04 944.61,1034.02 945.126,1021.57 945.643,1010.31 946.159,1000.81 946.675,993.513 947.191,988.786 947.707,986.873 948.224,987.867 948.74,991.69 949.256,998.113 949.772,1006.79 950.288,1017.29 951.321,1041.45 952.353,1065.52 952.869,1075.97 953.386,1084.62 953.902,1091.01 954.418,1094.81 954.934,1095.84 955.45,1094.08 955.967,1089.62 956.483,1082.7 956.999,1073.7 957.515,1063.12 958.031,1051.54 958.548,1039.59 959.064,1027.9 959.58,1017.09 960.096,1007.8 960.612,1000.52 961.129,995.676 961.645,993.52 962.161,994.209 962.677,997.76 963.193,1004.02 963.71,1012.7 964.226,1023.34 964.742,1035.47 965.774,1061.75 966.807,1086.37 967.323,1096.54 967.839,1104.6 968.356,1110.18 968.872,1112.99 969.388,1112.94 969.904,1110.07 970.42,1104.59 970.937,1096.8 971.453,1087.13 971.969,1076.12 972.485,1064.41 973.001,1052.63 973.518,1041.41 974.034,1031.36 974.55,1023.05 975.066,1016.94 975.582,1013.39 976.099,1012.57 976.615,1014.55 977.131,1019.26 977.647,1026.49 978.163,1035.86 978.68,1046.89 979.196,1059 979.712,1071.6 980.228,1084.04 980.744,1095.67 981.261,1105.87 981.777,1114.11 982.293,1119.98 982.809,1123.18 983.325,1123.53 983.842,1120.97 984.358,1115.65 984.874,1107.86 985.39,1097.98 986.423,1074.01 987.455,1048.55 987.971,1036.89 988.487,1026.71 989.004,1018.53 989.52,1012.76 990.036,1009.69 990.552,1009.43 991.068,1011.96 991.585,1017.11 992.104,1027.76 992.623,1041.52 993.142,1057.04 993.662,1072.82 994.181,1087.33 994.7,1099.19 995.219,1107.25 995.739,1110.66 996.258,1109.04 996.777,1102.48 997.297,1091.53 997.816,1077.13 998.335,1060.52 998.854,1043.17 999.374,1026.62 999.893,1012.35 1000.41,1001.6 1000.93,995.281 1001.45,993.919 1001.97,997.597 1002.49,1005.92 1003.01,1018.06 1003.53,1032.82 1004.05,1048.8 1004.57,1064.49 1005.09,1078.39 1005.6,1089.17 1006.12,1095.77 1006.64,1097.57 1007.16,1094.38 1007.68,1086.45 1008.2,1074.48 1008.72,1059.53 1009.24,1042.99 1009.76,1026.37 1010.28,1011.18 1010.8,998.799 1011.32,990.365 1011.84,986.669 1012.36,988.06 1012.87,994.399 1013.39,1005.1 1013.91,1019.18 1014.43,1035.4 1014.95,1052.25 1015.47,1068.21 1015.99,1081.8 1016.51,1091.82 1017.03,1097.4 1017.55,1098.03 1018.07,1093.7 1018.59,1084.84 1019.11,1072.32 1019.63,1057.36 1020.14,1041.38 1020.66,1025.89 1021.18,1012.37 1021.7,1002.15 1022.22,996.237 1022.74,995.214 1023.26,999.227 1023.78,1007.98 1024.3,1020.74 1024.82,1036.39 1025.34,1053.55 1025.86,1070.68 1026.38,1086.28 1026.89,1098.99 1027.41,1107.71 1027.93,1111.67 1028.45,1110.58 1028.97,1104.61 1029.49,1094.4 1030.01,1080.93 1030.53,1065.51 1031.05,1049.61 1031.57,1034.79 1032.09,1022.47 1032.61,1013.83 1033.13,1009.71 1033.65,1010.55 1034.16,1016.35 1034.68,1026.6 1035.2,1040.4 1035.72,1056.5 1036.24,1073.46 1036.76,1089.78 1037.28,1103.96 1037.8,1114.73 1038.32,1121.09 1038.84,1122.51 1039.36,1118.89 1039.88,1110.55 1040.4,1098.28 1040.92,1083.21 1041.43,1066.77 1041.95,1050.46 1042.47,1035.79 1042.99,1024.09 1043.51,1016.44 1044.03,1013.55 1044.55,1015.67 1045.07,1022.57 1045.59,1033.57 1046.11,1047.67 1046.63,1063.52 1047.15,1079.64 1047.67,1094.49 1048.18,1106.64 1048.7,1114.96 1049.22,1118.64 1049.74,1117.28 1050.26,1110.94 1050.78,1100.17 1051.3,1085.92 1051.82,1069.45 1052.34,1052.22 1052.86,1035.74 1053.38,1021.48 1053.9,1010.71 1054.42,1004.37 1054.94,1002.96 1055.45,1006.54 1055.97,1014.73 1056.49,1026.72 1057.01,1041.34 1057.53,1057.14 1058.05,1072.61 1058.63,1100.94 1059.2,1022.42 1059.77,1007.11 1060.35,1086.84 1060.92,1085.59 1061.5,1004.5 1062.07,1019.4 1062.64,1096.24 1063.22,1065.53 1063.79,993.077 1064.37,1036.07 1064.94,1099.27 1065.51,1043.32 1066.09,989.529 1066.66,1054.59 1067.24,1095.34 1067.81,1021.87 1068.39,994.185 1068.96,1072.25 1069.53,1084.84 1070.11,1004.03 1070.68,1006.29 1071.26,1086.49 1071.83,1069.15 1072.4,992.233 1072.98,1024.1 1073.55,1095.29 1074.13,1050.44 1074.7,988.098 1075.27,1045.16 1075.85,1097.46 1076.42,1031.34 1077,992.259 1077.57,1066.61 1078.15,1092.78 1078.72,1014.62 1079.29,1004.25 1079.87,1085.59 1080.44,1082.04 1081.02,1002.74 1081.59,1022.57 1082.16,1099.64 1082.74,1066.92 1083.31,997.562 1083.89,1044.88 1084.46,1107.03 1085.03,1049.76 1085.61,1000.03 1086.18,1068.32 1086.76,1106.97 1087.33,1033.18 1087.91,1010.06 1088.48,1089.87 1089.05,1099.72 1089.63,1019.74 1090.2,1026.5 1090.78,1106.8 1091.35,1086.55 1091.92,1011.56 1092.5,1047.31 1093.07,1116.99 1093.65,1069.52 1094.22,1010.01 1094.79,1069.82 1095.37,1119.24 1095.94,1051.21 1096.52,1015.5 1097.09,1091.09 1097.67,1113.41 1098.24,1034.32 1098.81,1027.41 1099.39,1108.29 1099.96,1100.44 1100.54,1021.32 1101.11,1044.18 1101.68,1119.11 1102.26,1082.19 1102.83,1014.06 1103.41,1063.52 1103.98,1122.07 1104.55,1061.23 1105.13,1013.56 1105.7,1082.72 1106.28,1116.73 1106.85,1040.4 1107.43,1019.8 1108,1099.03 1108.57,1103.72 1109.15,1022.49 1109.72,1031.81 1110.3,1110.03 1110.87,1084.72 1111.44,1009.84 1112.02,1047.74 1112.59,1114.02 1113.17,1062.16 1113.74,1004.01 1114.31,1065.16 1114.89,1110.22 1115.46,1038.96 1116.04,1005.57 1116.61,1081.42 1117.19,1098.93 1117.76,1018.11 1118.33,1014.07 1118.91,1094 1119.48,1081.45 1120.06,1002.26 1120.63,1028.07 1121.2,1100.91 1121.78,1059.98 1122.35,993.357 1122.93,1045.38 1123.5,1100.95 1124.07,1037.27 1124.65,992.438 1125.22,1063.4 1125.8,1093.93 1126.37,1016.3 1126.95,999.442 1127.52,1079.45 1128.09,1080.64 1128.67,999.818 1129.24,1013.26 1129.82,1091.16 1130.39,1062.83 1130.96,990.03 1131.54,1031.89 1132.08,1080.9 1132.63,1096.29 1133.18,1064.66 1133.72,1013.81 1134.27,988.426 1134.82,1010.92 1135.36,1061.82 1135.91,1096.77 1136.45,1085.43 1137,1038.05 1137.55,996.486 1138.09,997.513 1138.64,1040.62 1139.19,1088.47 1139.73,1099.61 1140.28,1064.76 1140.82,1014.96 1141.37,994.329 1141.92,1021.49 1142.46,1073.21 1143.01,1104.76 1143.56,1089.07 1144.1,1040.5 1144.65,1002.2 1145.19,1008.35 1145.74,1054.17 1146.29,1100.14 1146.83,1106.62 1147.38,1068.57 1147.93,1019.95 1148.47,1003.97 1149.02,1035.23 1149.56,1086.95 1150.11,1114.43 1150.66,1094.17 1151.2,1044.48 1151.75,1009.45 1152.3,1020.3 1152.84,1068.04 1153.39,1111.33 1153.93,1112.71 1154.48,1071.42 1155.03,1024.07 1155.57,1012.52 1156.12,1047.25 1156.67,1098.16 1157.21,1120.96 1157.76,1095.95 1158.3,1045.28 1158.85,1013.53 1159.4,1028.7 1159.94,1077.64 1160.49,1117.57 1161.04,1113.56 1161.58,1069.16 1162.13,1023.27 1162.67,1016.05 1163.22,1053.75 1163.77,1103.22 1164.31,1120.98 1164.86,1091.3 1165.41,1039.95 1165.95,1011.68 1166.5,1030.97 1167.05,1080.62 1167.59,1116.8 1168.14,1107.43 1168.68,1060.32 1169.23,1016.31 1169.78,1013.53 1170.32,1053.94 1170.87,1101.63 1171.42,1114.31 1171.96,1080.35 1172.51,1028.94 1173.05,1004.56 1173.6,1027.97 1174.15,1078.1 1174.69,1110.43 1175.24,1096.03 1175.79,1046.89 1176.33,1005.45 1176.88,1007.4 1177.42,1050.42 1177.97,1096.22 1178.52,1104.05 1179.06,1066.45 1179.61,1015.78 1180.16,995.838 1180.7,1023.52 1181.25,1074.02 1181.79,1102.58 1182.34,1083.65 1182.89,1033.31 1183.43,995.166 1183.98,1002.18 1184.53,1047.79 1185.07,1091.63 1185.62,1094.91 1186.16,1054.4 1186.71,1005.28 1187.26,990.276 1187.8,1022.27 1188.35,1073.01 1188.9,1097.85 1189.44,1074.88 1189.99,1024.09 1190.53,989.869 1191.08,1002.13 1191.63,1050.13 1192.17,1091.82 1192.72,1090.74 1193.27,1047.9 1193.81,1000.95 1194.36,991.176 1194.9,1027.32 1195.45,1077.92 1196,1098.91 1196.54,1072.19 1197.09,1021.48 1197.64,991.533 1198.18,1008.94 1198.73,1058.86 1199.27,1097.98 1199.82,1092.48 1200.37,1047.65 1200.91,1003.24 1201.46,998.669 1202.03,1067.52 1202.6,1103.28 1203.16,1039.86 1203.73,997.986 1204.3,1057.82 1204.87,1107.99 1205.44,1055.35 1206,1000.4 1206.57,1047.98 1207.14,1109.84 1207.71,1070.82 1208.28,1005.77 1208.84,1038.53 1209.41,1108.7 1209.98,1085.41 1210.55,1013.8 1211.12,1029.97 1211.68,1104.66 1212.25,1098.34 1212.82,1024.03 1213.39,1022.75 1213.96,1097.91 1214.52,1108.9 1215.09,1035.92 1215.66,1017.27 1216.23,1088.83 1216.79,1116.52 1217.36,1048.81 1217.93,1013.79 1218.5,1077.91 1219.07,1120.79 1219.63,1062 1220.2,1012.52 1220.77,1065.72 1221.34,1121.48 1221.91,1074.79 1222.47,1013.52 1223.04,1052.93 1223.61,1118.55 1224.18,1086.48 1224.75,1016.73 1225.31,1040.22 1225.88,1112.17 1226.45,1096.46 1227.02,1021.99 1227.59,1028.29 1228.15,1102.68 1228.72,1104.17 1229.29,1029.02 1229.86,1017.79 1230.43,1090.6 1230.99,1109.23 1231.56,1037.45 1232.13,1009.28 1232.7,1076.58 1233.27,1111.35 1233.83,1046.82 1234.4,1003.25 1234.97,1061.39 1235.54,1110.42 1236.11,1056.66 1236.67,1000.01 1237.24,1045.85 1237.81,1106.51 1238.38,1066.42 1238.95,999.771 1239.51,1030.81 1240.08,1099.81 1240.65,1075.59 1241.22,1002.54 1241.79,1017.09 1242.35,1090.71 1242.92,1083.67 1243.49,1008.19 1244.06,1005.45 1244.63,1079.69 1245.19,1090.22 1245.76,1016.4 1246.33,996.519 1246.9,1067.36 1247.47,1094.9 1248.03,1026.75 1248.6,990.793 1249.17,1054.38 1249.74,1097.45 1250.31,1038.66 1250.87,988.585 1251.44,1041.47 1252.01,1097.72 1252.58,1051.5 1253.15,990.014 1253.71,1029.32 1254.28,1095.7 1254.85,1064.55 1255.42,995.002 1255.99,1018.59 1256.55,1091.5 1257.12,1077.11 1257.69,1003.27 1258.26,1009.87 1258.83,1085.35 1259.39,1088.49 1259.96,1014.37 1260.53,1003.63 1261.1,1077.57 1261.67,1098.06 1262.23,1027.68 1262.8,1000.19 1263.37,1068.58 1263.94,1105.31 1264.51,1042.48 1265.07,999.729 1265.64,1058.88 1266.21,1109.84 1266.78,1057.95 1267.35,1002.27 1267.91,1048.97 1268.48,1111.39 1269.05,1073.26 1269.62,1007.66 1270.19,1039.39 1270.75,1109.89 1271.32,1087.55 1271.89,1015.6 1272.46,1030.65 1273.03,1105.4 1273.59,1100.07 1274.16,1025.66 1274.64,1060.92 1275.12,1097.8 1275.6,1118.41 1276.07,1112.81 1276.55,1083.9 1277.03,1045.96 1277.51,1017.7 1277.99,1013.08 1278.46,1034.46 1278.94,1071.43 1279.42,1105.97 1279.9,1121.21 1280.38,1109.74 1280.85,1077.21 1281.33,1039.54 1281.81,1015.19 1282.29,1016.06 1282.77,1041.7 1283.25,1079.52 1283.72,1110.92 1284.2,1120.46 1284.68,1103.37 1285.16,1067.93 1285.64,1031.39 1286.11,1011.5 1286.59,1017.87 1287.07,1047.23 1287.55,1085.03 1288.03,1112.61 1288.5,1116.25 1288.98,1093.98 1289.46,1056.49 1289.94,1021.93 1290.42,1007.01 1290.9,1018.8 1291.37,1051.28 1291.85,1088.29 1292.33,1111.46 1292.81,1109.18 1293.29,1082.3 1293.76,1043.7 1294.24,1012.01 1294.72,1002.48 1295.2,1019.5 1295.68,1054.45 1296.15,1089.94 1296.63,1108.28 1297.11,1100.21 1297.59,1069.41 1298.07,1030.67 1298.55,1002.7 1299.02,998.899 1299.5,1020.87 1299.98,1057.59 1300.46,1090.82 1300.94,1104.01 1301.41,1090.45 1301.89,1056.53 1302.37,1018.64 1302.85,995.12 1303.33,997.259 1303.8,1023.8 1304.28,1061.54 1304.76,1091.82 1305.24,1099.63 1305.72,1080.97 1306.2,1044.82 1306.67,1008.74 1307.15,990.288 1307.63,998.382 1308.11,1028.96 1308.59,1066.93 1309.06,1093.64 1309.54,1095.92 1310.02,1072.63 1310.5,1035.13 1310.98,1001.77 1311.45,988.867 1311.93,1002.76 1312.41,1036.68 1312.89,1074.03 1313.37,1096.57 1313.85,1093.31 1314.32,1065.94 1314.8,1027.95 1315.28,998.062 1315.76,991.026 1316.24,1010.41 1316.71,1046.86 1317.19,1082.69 1317.67,1100.51 1318.15,1091.77 1318.63,1060.93 1319.1,1023.3 1319.58,997.521 1320.06,996.445 1320.54,1020.82 1321.02,1058.92 1321.5,1092.34 1321.97,1104.96 1322.45,1090.86 1322.93,1057.2 1323.41,1020.74 1323.89,999.593 1324.36,1004.4 1324.84,1033.08 1325.32,1071.88 1325.8,1102.05 1326.28,1109.1 1326.75,1089.87 1327.23,1054.06 1327.71,1019.5 1328.19,1003.38 1328.67,1013.86 1329.15,1046.09 1329.62,1084.55 1330.1,1110.68 1330.58,1111.93 1331.06,1087.93 1331.54,1050.69 1332.01,1018.7 1332.49,1007.85 1332.97,1023.67 1333.45,1058.62 1333.93,1095.78 1334.4,1117.17 1334.88,1112.48 1335.36,1084.2 1335.94,1106.84 1336.53,1018.56 1337.11,1054.35 1337.7,1120.07 1338.28,1042.11 1338.86,1027.79 1339.45,1115.53 1340.03,1072.99 1340.61,1013.23 1341.2,1094.86 1341.78,1101.39 1342.37,1015.39 1342.95,1064.72 1343.53,1118.23 1344.12,1033.55 1344.7,1034.7 1345.28,1117.97 1345.87,1061.76 1346.45,1014.26 1347.04,1100.47 1347.62,1090.7 1348.2,1009.71 1348.79,1071.05 1349.37,1110.71 1349.95,1022.11 1350.54,1038.75 1351.12,1114.98 1351.71,1047.03 1352.29,1013.44 1352.87,1101.6 1353.46,1075.97 1354.04,1002.73 1354.62,1074.3 1355.21,1099.06 1355.79,1009.5 1356.38,1041.28 1356.96,1108.27 1357.54,1030.97 1358.13,1012.54 1358.71,1100.05 1359.29,1059.63 1359.88,996.716 1360.46,1076.45 1361.04,1085.72 1361.63,998.311 1362.21,1044.46 1362.8,1100.3 1363.38,1016.32 1363.96,1013.87 1364.55,1098.18 1365.13,1044.49 1365.71,994.088 1366.3,1079.63 1366.88,1073.36 1367.47,991.103 1368.05,1050.3 1368.63,1093.37 1369.22,1005.6 1369.8,1019.37 1370.38,1097.91 1370.97,1032.79 1371.55,996.65 1372.14,1085.4 1372.72,1063.88 1373.3,989.459 1373.89,1059.89 1374.47,1088.91 1375.05,1000.2 1375.64,1029.74 1376.22,1100.02 1376.81,1025.59 1377.39,1004.87 1377.97,1093.93 1378.56,1057.79 1379.14,993.574 1379.72,1072.94 1380.31,1086.86 1380.89,999.931 1381.48,1044.24 1382.06,1103.9 1382.64,1022.39 1383.23,1017.58 1383.81,1103.97 1384.39,1054.24 1384.98,1002.1 1385.56,1087.64 1386.15,1085.84 1386.73,1003.31 1387.31,1060.76 1387.9,1107.66 1388.48,1021.44 1389.06,1032.53 1389.65,1113.27 1390.23,1051.27 1390.82,1012.63 1391.4,1101.43 1391.98,1083.74 1392.57,1007.99 1393.15,1076.5 1393.73,1108.93 1394.32,1020.57 1394.9,1046.97 1395.48,1119.23 1396.07,1046.73 1396.65,1022.67 1397.24,1111.69 1397.82,1078.44 1398.4,1011.72 1398.99,1088.99 1399.57,1105.74 1400.15,1017.85 1400.74,1058.59 1401.32,1119.98 1401.91,1039.18 1402.49,1030.33 1403.07,1116.64 1403.66,1068.83 1404.24,1013.21 1404.82,1096.71 1405.41,1097.19 1405.99,1012.58 1406.58,1066.37 1407.16,1114.93 1407.74,1028.39 1408.33,1035.08 1408.91,1116 1409.49,1055.22 1410.08,1012.52 1410.61,1038.45 1411.15,1074.62 1411.68,1104.32 1412.22,1113.73 1412.75,1098.32 1413.29,1064.84 1413.82,1028.27 1414.36,1004.97 1414.89,1005.28 1415.43,1028.76 1415.96,1064.46 1416.5,1095.83 1417.03,1108.28 1417.56,1095.86 1418.1,1063.95 1418.63,1026.8 1419.17,1001.06 1419.7,998.156 1420.24,1019.16 1420.77,1054.26 1421.31,1087.22 1421.84,1102.78 1422.38,1093.6 1422.91,1063.66 1423.45,1026.37 1423.98,998.513 1424.52,992.565 1425.05,1011.06 1425.59,1045.41 1426.12,1079.83 1426.66,1098.5 1427.19,1092.77 1427.72,1065.16 1428.26,1028.13 1428.79,998.481 1429.33,989.624 1429.86,1005.54 1430.4,1038.96 1430.93,1074.65 1431.47,1096.35 1432,1094.18 1432.54,1069.16 1433.07,1032.74 1433.61,1001.56 1434.14,989.891 1434.68,1003.12 1435.21,1035.35 1435.75,1072.02 1436.28,1096.57 1436.82,1097.95 1437.35,1075.71 1437.88,1040.15 1438.42,1007.66 1438.95,993.226 1439.49,1003.62 1440.02,1034.33 1440.56,1071.62 1441.09,1098.74 1441.63,1103.58 1442.16,1084.19 1442.7,1049.67 1443.23,1016.02 1443.77,998.825 1444.3,1006.18 1444.84,1035.02 1445.37,1072.5 1445.91,1101.84 1446.44,1109.95 1446.97,1093.43 1447.51,1060.08 1448.04,1025.38 1448.58,1005.42 1449.11,1009.54 1449.65,1036.14 1450.18,1073.37 1450.72,1104.54 1451.25,1115.71 1451.79,1102.01 1452.32,1069.93 1452.86,1034.32 1453.39,1011.6 1453.93,1012.32 1454.46,1036.34 1455,1072.9 1455.53,1105.53 1456.07,1119.52 1456.6,1108.62 1457.13,1077.94 1457.67,1041.56 1458.2,1016.16 1458.74,1013.38 1459.27,1034.54 1459.81,1070.06 1460.34,1103.82 1460.88,1120.45 1461.41,1112.37 1461.95,1083.25 1462.48,1046.33 1463.02,1018.39 1463.55,1012.09 1464.09,1030.21 1464.62,1064.42 1465.16,1099.04 1465.69,1118.18 1466.23,1112.98 1466.76,1085.66 1467.29,1048.5 1467.83,1018.27 1468.36,1008.54 1468.9,1023.53 1469.43,1056.21 1469.97,1091.49 1470.5,1113.08 1471.04,1110.89 1471.57,1085.66 1472.11,1048.64 1472.64,1016.44 1473.18,1003.45 1473.71,1015.3 1474.25,1046.33 1474.78,1082.13 1475.32,1106.13 1475.85,1107.1 1476.39,1084.31 1476.92,1047.85 1477.45,1014.06 1477.99,998.042 1478.52,1006.81 1479.02,998.748 1479.51,996.186 1480.01,999.346 1480.5,1007.84 1480.99,1020.72 1481.49,1036.58 1481.98,1053.74 1482.48,1070.34 1482.97,1084.62 1483.46,1095.03 1483.96,1100.43 1484.45,1100.22 1484.94,1094.41 1485.44,1083.56 1485.93,1068.76 1486.43,1051.52 1486.92,1033.62 1487.41,1016.93 1487.91,1003.16 1488.4,993.723 1488.9,989.579 1489.39,991.162 1489.88,998.307 1490.38,1010.26 1490.87,1025.75 1491.36,1043.16 1491.86,1060.68 1492.35,1076.5 1492.85,1088.96 1493.34,1096.77 1493.83,1099.13 1494.33,1095.8 1494.82,1087.18 1495.32,1074.17 1495.81,1058.16 1496.3,1040.85 1496.8,1024.07 1497.29,1009.64 1497.79,999.08 1498.28,993.531 1498.77,993.609 1499.27,999.357 1499.76,1010.23 1500.25,1025.13 1500.75,1042.54 1501.24,1060.69 1501.74,1077.75 1502.23,1091.99 1502.72,1101.98 1503.22,1106.71 1503.71,1105.76 1504.21,1099.28 1504.7,1088.02 1505.19,1073.21 1505.69,1056.45 1506.18,1039.54 1506.67,1024.31 1507.17,1012.43 1507.66,1005.19 1508.16,1003.39 1508.65,1007.27 1509.14,1016.5 1509.64,1030.17 1510.13,1046.91 1510.63,1065 1511.12,1082.61 1511.61,1097.97 1512.11,1109.51 1512.6,1116.09 1513.1,1117.04 1513.59,1112.31 1514.08,1102.45 1514.58,1088.53 1515.07,1072.03 1515.56,1054.7 1516.06,1038.39 1516.55,1024.83 1517.05,1015.47 1517.54,1011.31 1518.03,1012.78 1518.53,1019.77 1519.02,1031.54 1519.52,1046.91 1520.01,1064.26 1520.5,1081.78 1521,1097.64 1521.49,1110.19 1521.98,1118.13 1522.48,1120.61 1522.97,1117.36 1523.47,1108.7 1523.96,1095.52 1524.45,1079.21 1524.95,1061.42 1525.44,1043.98 1525.94,1028.69 1526.43,1017.13 1526.92,1010.47 1527.42,1009.37 1527.91,1013.9 1528.41,1023.54 1528.9,1037.26 1529.39,1053.59 1529.89,1070.78 1530.38,1086.95 1530.87,1100.39 1531.37,1109.64 1531.86,1113.69 1532.36,1112.07 1532.85,1104.86 1533.34,1092.77 1533.84,1077.02 1534.33,1059.19 1534.83,1041.09 1535.32,1024.54 1535.81,1011.21 1536.31,1002.43 1536.8,999.089 1537.29,1001.46 1537.79,1009.22 1538.28,1021.51 1538.78,1037 1539.27,1054.03 1539.76,1070.74 1540.26,1085.33 1540.75,1096.22 1541.25,1102.24 1541.74,1102.71 1542.24,1100.54 1542.74,1096.92 1543.24,1091.96 1543.74,1085.8 1544.74,1070.53 1545.74,1052.66 1546.74,1034.11 1547.74,1016.84 1548.24,1009.26 1548.74,1002.68 1549.24,997.272 1549.74,993.183 1550.24,990.509 1550.74,989.326 1551.24,989.681 1551.74,991.567 1552.25,994.922 1552.75,999.646 1553.25,1005.62 1553.75,1012.69 1554.75,1029.35 1555.75,1047.8 1556.75,1066.12 1557.75,1082.35 1558.25,1089.14 1558.75,1094.8 1559.25,1099.21 1559.75,1102.22 1560.25,1103.78 1560.75,1103.85 1561.25,1102.45 1561.75,1099.65 1562.25,1095.51 1562.75,1090.15 1563.25,1083.75 1563.75,1076.51 1564.75,1060.35 1565.75,1043.5 1566.75,1027.96 1567.75,1015.5 1568.25,1010.9 1568.75,1007.61 1569.25,1005.71 1569.75,1005.27 1570.26,1006.3 1570.76,1008.8 1571.26,1012.72 1571.76,1017.97 1572.76,1031.82 1573.76,1048.96 1574.76,1067.61 1575.76,1085.77 1576.26,1094.08 1576.76,1101.57 1577.26,1108.03 1577.76,1113.29 1578.26,1117.22 1578.76,1119.73 1579.26,1120.73 1579.76,1120.2 1580.26,1118.15 1580.76,1114.65 1581.26,1109.81 1581.76,1103.73 1582.76,1088.57 1583.76,1070.85 1584.76,1052.43 1585.76,1035.29 1586.26,1027.78 1586.76,1021.25 1587.26,1015.86 1587.76,1011.75 1588.26,1009.03 1588.77,1007.78 1589.27,1008 1589.77,1009.68 1590.27,1012.75 1590.77,1017.14 1591.27,1022.71 1591.77,1029.28 1592.77,1044.63 1593.77,1061.46 1594.77,1077.78 1595.77,1091.72 1596.27,1097.28 1596.77,1101.65 1597.27,1104.7 1597.77,1106.34 1598.27,1106.52 1598.77,1105.21 1599.27,1102.43 1599.77,1098.23 1600.27,1092.72 1600.77,1086.07 1601.27,1078.42 1601.77,1069.96 1602.77,1051.54 1603.77,1032.77 1604.27,1023.86 1604.77,1015.58 1605.27,1008.15 1605.77,1001.79 1606.34,1066.85 1606.9,1098.51 1607.46,1048.1 1608.02,992.148 1608.58,1015.71 1609.14,1082.62 1609.7,1090.65 1610.26,1027.45 1610.82,989.349 1611.38,1034.47 1611.94,1094.05 1612.5,1077.35 1613.06,1010.02 1613.62,994.984 1614.18,1055.47 1614.75,1099.57 1615.31,1060.44 1615.87,998.214 1616.43,1008.31 1616.99,1075.88 1617.55,1098.48 1618.11,1042.3 1618.67,993.721 1619.23,1027.57 1619.79,1093 1620.35,1091.03 1620.91,1025.52 1621.47,997.262 1622.03,1050.26 1622.59,1104.6 1623.16,1078.36 1623.72,1012.53 1624.28,1008.49 1624.84,1073.4 1625.4,1109.25 1625.96,1062.37 1626.52,1005.28 1627.08,1026.04 1627.64,1093.99 1628.2,1106.47 1628.76,1045.42 1629.32,1004.92 1629.88,1047.67 1630.44,1109.38 1631,1096.81 1631.57,1029.99 1632.13,1011.67 1632.69,1070.58 1633.25,1117.61 1633.81,1081.74 1634.37,1018.35 1634.93,1024.76 1635.49,1091.76 1636.05,1117.68 1636.61,1063.46 1637.17,1012.23 1637.73,1042.49 1638.29,1108.41 1638.85,1109.68 1639.41,1044.57 1639.98,1012.53 1640.54,1062.51 1641.1,1118.29 1641.66,1094.75 1642.22,1027.7 1642.78,1019.26 1643.34,1082.09 1643.9,1120.08 1644.46,1074.95 1645.02,1015.16 1645.58,1031.46 1646.14,1098.51 1646.7,1113.49 1647.26,1052.96 1647.82,1008.61 1648.39,1047.41 1648.95,1109.45 1649.51,1099.34 1650.07,1031.69 1650.63,1008.85 1651.19,1064.79 1651.75,1113.29 1652.31,1079.45 1652.87,1013.94 1653.43,1015.71 1653.99,1081.09 1654.55,1109.36 1655.11,1056.4 1655.67,1001.97 1656.23,1028.08 1656.8,1093.91 1657.36,1098.05 1657.92,1033.18 1658.48,997.261 1659.04,1044.11 1659.6,1101.33 1660.16,1080.72 1660.72,1012.81 1661.28,1000.29 1661.84,1061.43 1662.4,1102.16 1662.96,1059.59 1663.52,997.907 1664.08,1010.5 1664.64,1077.52 1665.21,1096.16 1665.77,1037.42 1666.33,990.404 1666.89,1026.37 1667.45,1090.07 1668.01,1084.02 1668.57,1017.16 1669.13,991.238 1669.69,1045.63 1670.25,1097.28 1670.81,1067.35 1671.37,1001.52 1671.93,1000.25 1672.49,1065.62 1673.05,1098.11 1673.62,1048.42 1674.18,992.645 1674.74,1016.21 1675.3,1083.59 1675.86,1092.49 1676.42,1029.86 1676.98,991.803 1677.54,1036.98 1678.05,1038.86 1678.56,1040.76 1679.06,1042.68 1679.57,1044.64 1680.59,1048.62 1681.6,1052.64 1683.64,1060.83 1685.67,1069.03 1689.73,1084.72 1693.8,1098.36 1695.83,1104.06 1697.86,1108.85 1699.89,1112.63 1701.93,1115.36 1703.96,1117.01 1705.99,1117.58 1708.02,1117.11 1710.06,1115.65 1714.12,1110.08 1718.18,1101.77 1722.25,1091.73 1726.31,1080.97 1730.38,1070.41 1734.44,1060.66 1736.47,1056.2 1738.51,1052.02 1739.52,1050.06 1740.54,1048.15 1741.05,1047.22 1741.55,1046.32 1742.06,1045.43 1742.57,1044.55 1743.15,1002.59 1743.73,1088.33 1744.32,1084.43 1744.9,1002.65 1745.48,1053.75 1746.06,1108.94 1746.64,1028.99 1747.22,1020.01 1747.81,1106.7 1748.39,1069.28 1748.97,1005.1 1749.55,1079.86 1750.13,1104.16 1750.71,1017.5 1751.3,1042.87 1751.88,1116.93 1752.46,1051.85 1753.04,1015.29 1753.62,1101.94 1754.2,1091.58 1754.79,1011.81 1755.37,1067.5 1755.95,1117.26 1756.53,1034.77 1757.11,1031.58 1757.69,1116.47 1758.28,1073.04 1758.86,1012.7 1759.44,1089.97 1760.02,1107.6 1760.6,1020.62 1761.18,1051.3 1761.77,1121.12 1762.35,1051.44 1762.93,1019.97 1763.51,1106.69 1764.09,1089.44 1764.67,1011.65 1765.26,1071.35 1765.84,1115.11 1766.42,1030.16 1767,1032.54 1767.58,1115.04 1768.17,1065.61 1768.75,1009.26 1769.33,1088.63 1769.91,1099.45 1770.49,1012.55 1771.07,1048.43 1771.66,1113.8 1772.24,1039.95 1772.82,1013.88 1773.4,1100.47 1773.98,1076.68 1774.56,1001.51 1775.15,1065.24 1775.73,1103.21 1776.31,1016.57 1776.89,1024.91 1777.47,1105.12 1778.05,1050.44 1778.64,998.844 1779.22,1080.47 1779.8,1085.06 1780.38,999.23 1780.96,1040.72 1781.54,1101.99 1782.13,1025 1782.71,1005.07 1783.29,1091.8 1783.87,1062.33 1784.45,990.797 1785.03,1058.9 1785.62,1091.62 1786.2,1004.46 1786.78,1019.35 1787.36,1097.55 1787.94,1038.63 1788.52,992.666 1789.11,1076.74 1789.69,1075.76 1790.27,992.062 1790.85,1039.48 1791.43,1096.92 1792.01,1017.79 1792.6,1004.57 1793.18,1091.43 1793.76,1056.93 1794.34,989.842 1794.92,1062.3 1795.5,1089.96 1796.09,1003.07 1796.67,1024.68 1797.25,1100.67 1797.83,1038.05 1798.41,998.113 1798.99,1084.26 1799.58,1077.78 1800.16,996.721 1800.74,1049.77 1801.32,1102.98 1801.9,1022.05 1802.48,1015.49 1803.07,1101.8 1803.65,1062.22 1804.23,999.698 1804.81,1075.81 1805.39,1097.88 1805.97,1011.36 1806.56,1039.18 1807.14,1112.07 1807.72,1045.58 1808.3,1011.42 1808.88,1098.64 1809.46,1086.07 1810.05,1007.52 1810.63,1065.35 1811.21,1113.37 1811.79,1030.39 1812.37,1029.9 1812.96,1114.53 1813.54,1069.32 1814.12,1011.04 1814.7,1089.74 1815.28,1105.35 1815.86,1018.94 1816.45,1052.19 1817.03,1120.88 1817.57,1104.23 1818.1,1065.54 1818.64,1027.48 1819.18,1012.34 1819.72,1029.02 1820.26,1067.82 1820.8,1106.08 1821.34,1121.44 1821.87,1104.92 1822.41,1066.09 1822.95,1027.56 1823.49,1011.69 1824.03,1027.63 1824.57,1065.94 1825.11,1104.1 1825.64,1119.64 1826.18,1103.27 1826.72,1064.34 1827.26,1025.34 1827.8,1008.77 1828.34,1024.04 1828.88,1061.93 1829.41,1100.04 1829.95,1115.81 1830.49,1099.69 1831.03,1060.75 1831.57,1021.36 1832.11,1004.17 1832.65,1018.85 1833.18,1056.44 1833.72,1094.62 1834.26,1110.72 1834.8,1094.96 1835.34,1056.15 1835.88,1016.52 1836.42,998.833 1836.95,1013.03 1837.49,1050.43 1838.03,1088.83 1838.57,1105.42 1839.11,1090.15 1839.65,1051.58 1840.19,1011.86 1840.72,993.822 1841.26,1007.66 1841.8,1044.99 1842.34,1083.71 1842.88,1100.93 1843.42,1086.31 1843.96,1048.11 1844.49,1008.41 1845.03,990.134 1845.57,1003.74 1846.11,1041.09 1846.65,1080.23 1847.19,1098.16 1847.73,1084.29 1848.27,1046.59 1848.8,1006.98 1849.34,988.524 1849.88,1001.95 1850.42,1039.4 1850.96,1079 1851.5,1097.68 1852.04,1084.58 1852.57,1047.43 1853.11,1007.97 1853.65,989.354 1854.19,1002.59 1854.73,1040.11 1855.27,1080.17 1855.81,1099.59 1856.34,1087.25 1856.88,1050.59 1857.42,1011.26 1857.96,992.475 1858.5,1005.47 1859.04,1042.98 1859.58,1083.41 1860.11,1103.5 1860.65,1091.84 1861.19,1055.61 1861.73,1016.31 1862.27,997.257 1862.81,1009.93 1863.35,1047.32 1863.88,1087.99 1864.42,1108.6 1864.96,1097.52 1865.5,1061.6 1866.04,1022.22 1866.58,1002.76 1867.12,1014.98 1867.65,1052.13 1868.19,1092.9 1868.73,1113.88 1869.27,1103.22 1869.81,1067.49 1870.35,1027.91 1870.89,1007.91 1871.42,1019.53 1871.96,1056.3 1872.5,1097.05 1873.04,1118.28 1873.58,1107.89 1874.12,1072.21 1874.66,1032.31 1875.19,1011.69 1875.73,1022.6 1876.27,1058.87 1876.81,1099.48 1877.35,1120.87 1877.89,1110.67 1878.43,1074.94 1878.96,1034.63 1879.5,1013.33 1880.04,1023.49 1880.58,1059.19 1881.12,1099.6 1881.66,1121.09 1882.2,1111.06 1882.73,1075.27 1883.27,1034.53 1883.81,1012.49 1884.35,1021.9 1884.89,1057.07 1885.43,1097.3 1885.97,1118.89 1886.5,1114.2 1887.03,1092.42 1887.56,1060.89 1888.09,1030.29 1888.62,1011.02 1889.15,1009.52 1889.68,1026.12 1890.21,1054.9 1890.75,1085.76 1891.28,1107.89 1891.81,1113.44 1892.34,1100.27 1892.87,1072.7 1893.4,1039.99 1893.93,1013.18 1894.46,1001.27 1894.99,1008.1 1895.52,1031.1 1896.06,1062.13 1896.59,1090.28 1897.12,1105.61 1897.65,1102.6 1898.18,1082.08 1898.71,1050.89 1899.24,1019.54 1899.77,998.596 1900.3,995.055 1900.83,1009.95 1901.37,1037.95 1901.9,1069.24 1902.43,1092.85 1902.96,1100.48 1903.49,1089.36 1904.02,1063.15 1904.55,1030.73 1905.08,1003.11 1905.61,989.686 1906.14,994.977 1906.67,1017.06 1907.21,1048.23 1907.74,1077.69 1908.27,1095.25 1908.8,1094.82 1909.33,1076.5 1909.86,1046.56 1910.39,1015.31 1910.92,993.508 1911.45,988.68 1911.98,1002.5 1912.52,1030.25 1913.05,1062.45 1913.58,1088.08 1914.11,1098.41 1914.64,1089.96 1915.17,1065.74 1915.7,1034.22 1916.23,1006.38 1916.76,991.927 1917.29,995.979 1917.83,1017.3 1918.36,1048.74 1918.89,1079.65 1919.42,1099.56 1919.95,1101.82 1920.48,1085.86 1921.01,1057.39 1921.54,1026.42 1922.07,1003.82 1922.6,997.594 1923.14,1010.13 1923.67,1037.34 1924.2,1070.08 1924.73,1097.32 1925.26,1109.92 1925.79,1103.8 1926.32,1081.31 1926.85,1050.4 1927.38,1021.96 1927.91,1006.01 1928.45,1008.29 1928.98,1028.23 1929.51,1059.16 1930.04,1090.67 1930.57,1112.13 1931.1,1116.36 1931.63,1102.08 1932.16,1074.4 1932.69,1043.03 1933.22,1018.96 1933.76,1010.62 1934.29,1021.03 1934.82,1046.74 1935.35,1079.03 1935.88,1106.93 1936.41,1120.91 1936.94,1116.26 1937.47,1094.65 1938,1063.62 1938.53,1033.89 1939.07,1015.74 1939.6,1015.43 1940.13,1033.11 1940.66,1062.68 1941.19,1093.97 1941.72,1116.16 1942.25,1121.57 1942.78,1108.3 1943.31,1080.87 1943.84,1048.63 1944.38,1022.57 1944.91,1011.58 1945.44,1019.34 1945.97,1043.05 1946.5,1074.39 1947.03,1102.44 1947.56,1117.38 1948.09,1113.91 1948.62,1093.04 1949.15,1061.75 1949.68,1030.62 1950.22,1010.18 1950.75,1007.26 1951.28,1022.63 1951.81,1050.78 1952.34,1081.79 1952.87,1104.77 1953.4,1111.58 1953.93,1099.6 1954.45,1090.89 1954.96,1080.58 1955.48,1069.14 1955.99,1057.03 1956.51,1044.76 1957.03,1032.85 1957.54,1021.83 1958.06,1012.17 1958.57,1004.26 1959.09,998.425 1959.6,994.904 1960.12,993.847 1960.63,995.277 1961.15,999.089 1961.67,1005.08 1962.18,1012.96 1963.21,1032.89 1964.24,1055.1 1964.76,1065.78 1965.27,1075.53 1965.79,1083.88 1966.31,1090.42 1966.82,1094.86 1967.34,1096.99 1967.85,1096.72 1968.37,1094.05 1968.88,1089.07 1969.4,1082 1969.91,1073.19 1970.43,1063.03 1971.46,1040.48 1972.49,1018.4 1973.01,1008.82 1973.52,1000.79 1974.04,994.699 1974.55,990.828 1975.07,989.382 1975.59,990.435 1976.1,993.939 1976.62,999.751 1977.13,1007.64 1977.65,1017.29 1978.16,1028.26 1978.68,1040.08 1979.71,1064.22 1980.74,1085.65 1981.26,1094.16 1981.77,1100.69 1982.29,1105.01 1982.8,1106.95 1983.32,1106.43 1983.83,1103.5 1984.35,1098.32 1984.87,1091.19 1985.9,1072.48 1986.93,1050.89 1987.44,1040.31 1987.96,1030.56 1988.47,1022.08 1988.99,1015.29 1989.51,1010.53 1990.02,1008.05 1990.54,1007.99 1991.05,1010.34 1991.57,1015.05 1992.08,1021.92 1992.6,1030.69 1993.11,1040.95 1994.15,1064.15 1995.18,1087.58 1995.69,1098.09 1996.21,1107.15 1996.72,1114.38 1997.24,1119.48 1997.75,1122.22 1998.27,1122.47 1998.79,1120.22 1999.3,1115.6 1999.82,1108.82 2000.33,1100.18 2000.85,1090.05 2001.36,1078.89 2002.39,1055.56 2003.43,1034.27 2003.94,1025.58 2004.46,1018.73 2004.97,1014.03 2005.49,1011.66 2006,1011.69 2006.52,1014.13 2007.03,1018.85 2007.55,1025.62 2008.07,1034.09 2008.58,1043.87 2009.1,1054.49 2009.61,1065.47 2010.13,1076.28 2010.64,1086.38 2011.16,1095.3 2011.67,1102.62 2012.19,1108 2012.7,1111.14 2013.22,1111.86 2013.74,1110.11 2014.25,1105.95 2014.77,1099.54 2015.28,1091.12 2015.8,1081.03 2016.83,1057.65 2017.86,1033.35 2018.38,1022.12 2018.89,1012.17 2019.41,1003.93 2019.92,997.729 2020.45,993.421 2020.98,1004.18 2021.51,1026.85 2022.04,1054.99 2022.57,1080.59 2023.09,1096.38 2023.62,1097.83 2024.15,1084.42 2024.68,1059.76 2025.21,1030.59 2025.74,1004.91 2026.26,989.791 2026.79,989.365 2027.32,1003.68 2027.85,1028.67 2028.38,1057.35 2028.91,1081.71 2029.44,1094.95 2029.96,1093.37 2030.49,1077.4 2031.02,1051.48 2031.55,1022.87 2032.08,999.554 2032.61,988.051 2033.14,991.604 2033.66,1009.3 2034.19,1036.31 2034.72,1065.2 2035.25,1088.01 2035.78,1098.5 2036.31,1093.89 2036.83,1075.6 2037.36,1048.84 2037.89,1021.18 2038.42,1000.48 2038.95,992.667 2039.48,1000.09 2040.01,1020.84 2040.53,1049.31 2041.06,1077.78 2041.59,1098.54 2042.12,1105.99 2042.65,1098.26 2043.18,1077.69 2043.71,1050.23 2044.23,1023.74 2044.76,1005.77 2045.29,1001.54 2045.82,1012.42 2046.35,1035.62 2046.88,1064.89 2047.4,1092.27 2047.93,1110.35 2048.46,1114.31 2048.99,1103.25 2049.52,1080.45 2050.05,1052.42 2050.58,1027.14 2051.1,1011.84 2051.63,1010.95 2052.16,1024.86 2052.69,1049.86 2053.22,1079.14 2053.75,1104.69 2054.28,1119.55 2054.8,1119.69 2055.33,1105.16 2055.86,1080.13 2056.39,1051.67 2056.92,1027.76 2057.45,1015.11 2057.97,1017.3 2058.5,1033.78 2059.03,1060.01 2059.56,1088.69 2060.09,1111.84 2060.62,1123.04 2061.15,1119.15 2061.67,1101.24 2062.2,1074.25 2062.73,1045.62 2063.26,1023.28 2063.79,1013.39 2064.32,1018.6 2064.84,1037.37 2065.37,1064.36 2065.9,1091.97 2066.43,1112.4 2066.96,1119.82 2067.49,1112 2068.02,1090.98 2068.54,1062.47 2069.07,1034.22 2069.6,1013.92 2070.13,1007.01 2070.66,1015.26 2071.19,1036.18 2071.72,1063.76 2072.24,1090.09 2072.77,1107.65 2073.3,1111.36 2073.83,1099.97 2074.36,1076.44 2074.89,1047.07 2075.41,1019.83 2075.94,1002.1 2076.47,998.601 2077,1010.07 2077.53,1033.11 2078.06,1061.11 2078.59,1086.09 2079.11,1100.88 2079.64,1101.17 2080.17,1086.67 2080.7,1061.26 2081.23,1031.82 2081.76,1006.36 2082.29,991.788 2082.81,992.009 2083.34,1006.83 2083.87,1031.98 2084.4,1060.33 2084.93,1083.86 2085.46,1095.92 2085.98,1093.08 2086.51,1076.02 2087.04,1049.41 2087.57,1020.56 2088.15,995.821 2088.73,1080.64 2089.31,1068.83 2089.89,988.908 2090.47,1034.86 2091.04,1095.22 2091.62,1023.69 2092.2,994.287 2092.78,1078.87 2093.36,1072.69 2093.94,991.486 2094.52,1033.25 2095.1,1097.56 2095.68,1029.36 2096.26,995.42 2096.83,1079.43 2097.41,1078.83 2097.99,996.566 2098.57,1033.93 2099.15,1101.88 2099.73,1037.2 2100.31,998.736 2100.89,1081.74 2101.47,1086.64 2102.05,1003.55 2102.63,1036.22 2103.2,1107.4 2103.78,1046.39 2104.36,1003.46 2104.94,1084.96 2105.52,1095.16 2106.1,1011.45 2106.68,1039.2 2107.26,1113.15 2107.84,1055.84 2108.42,1008.47 2108.99,1088.06 2109.57,1103.34 2110.15,1019.13 2110.73,1041.72 2111.31,1118.05 2111.89,1064.51 2112.47,1012.71 2113.05,1089.93 2113.63,1110.12 2114.21,1025.61 2114.78,1042.81 2115.36,1121.07 2115.94,1071.39 2116.52,1015.29 2117.1,1089.74 2117.68,1114.61 2118.26,1030.03 2118.84,1041.76 2119.42,1121.58 2120,1075.81 2120.58,1015.57 2121.15,1086.98 2121.73,1116.4 2122.31,1031.99 2122.89,1038.15 2123.47,1119.27 2124.05,1077.62 2124.63,1013.4 2125.21,1081.5 2125.79,1115.43 2126.37,1031.56 2126.94,1032.15 2127.52,1114.3 2128.1,1076.99 2128.68,1009.15 2129.26,1073.76 2129.84,1112.13 2130.42,1029.2 2131,1024.35 2131.58,1107.35 2132.16,1074.61 2132.73,1003.49 2133.31,1064.52 2133.89,1107.37 2134.47,1025.79 2135.05,1015.62 2135.63,1099.34 2136.21,1071.49 2136.79,997.48 2137.37,1054.81 2137.95,1102.15 2138.53,1022.46 2139.1,1007.14 2139.68,1091.37 2140.26,1068.7 2140.84,992.271 2141.42,1045.83 2142,1097.61 2142.58,1020.24 2143.16,1000 2143.74,1084.59 2144.32,1067.3 2144.89,988.85 2145.47,1038.57 2146.05,1094.76 2146.63,1020.12 2147.21,995.089 2147.79,1079.81 2148.37,1068.12 2148.95,988.038 2149.53,1033.74 2150.11,1094.18 2150.68,1022.68 2151.26,993.013 2151.84,1077.51 2152.42,1071.48 2153,990.153 2153.58,1031.7 2154.16,1096.1 2154.74,1027.98 2155.32,993.813 2155.9,1077.77 2156.48,1077.35 2157.05,995.017 2157.63,1032.19 2158.21,1100.27 2158.79,1035.73 2159.37,997.075 2159.95,1080.05 2160.53,1085.19 2161.11,1002.08 2161.69,1034.59 2162.53,1106.05 2163.37,1024.17 2164.21,1024.69 2165.05,1109.99 2165.89,1042.33 2166.73,1017.24 2167.57,1109.61 2168.42,1061.54 2169.26,1012.86 2170.1,1104.97 2170.94,1080.31 2171.78,1011.93 2172.62,1096.5 2173.46,1097.19 2174.3,1014.53 2175.14,1084.88 2175.99,1110.86 2176.83,1020.49 2177.67,1071.05 2178.51,1120.25 2179.35,1029.34 2180.19,1056.11 2181.03,1124.65 2181.87,1040.38 2182.72,1041.24 2183.56,1123.67 2184.4,1052.72 2185.24,1027.6 2186.08,1117.4 2186.92,1065.37 2187.76,1016.24 2188.6,1106.28 2189.44,1077.31 2190.29,1008.03 2191.13,1091.17 2191.97,1087.55 2192.81,1003.6 2193.65,1073.21 2194.49,1095.23 2195.33,1003.25 2196.17,1053.78 2197.01,1099.71 2197.86,1006.98 2198.7,1034.39 2199.54,1100.58 2200.38,1014.46 2201.22,1016.54 2202.06,1097.73 2202.9,1025.06 2203.74,1001.62 2204.58,1091.35 2205.43,1037.92 2206.27,990.794 2207.11,1081.93 2207.95,1051.99 2208.79,984.925 2209.63,1070.2 2210.47,1066.14 2211.31,984.476 2212.15,1057.1 2213,1079.25 2213.84,989.494 2214.68,1043.7 2215.52,1090.29 2216.36,999.597 2217.2,1031.08 2218.04,1098.41 2218.88,1014.01 2219.73,1020.3 2220.57,1103 2221.41,1031.61 2222.25,1012.24 2223.09,1103.75 2223.93,1051.04 2224.77,1007.58 2225.61,1100.64 2226.45,1070.81 2227.3,1006.75 2228.14,1093.98 2228.98,1089.38 2229.82,1009.83 2230.66,1084.33 2231.5,1105.32 2232.34,1016.61 2233.18,1072.5 2234.02,1117.41 2234.87,1026.57 2235.71,1059.44 2236.55,1124.71 2237.39,1038.95 2238.23,1046.21 2239.07,1126.67 2239.91,1052.77 2240.75,1033.84 2241.59,1123.12 2242.44,1066.94 2243.28,1023.31 2244.12,1114.34 2244.96,1080.31 2245.8,1015.43 2246.64,1100.99 2247.48,1091.81 2248.32,1010.79 2249.17,1084.09 2250.01,1100.5 2250.85,1009.74 2251.69,1064.95 2252.53,1105.63 2253.37,1012.31 2254.21,1045.01 2255.05,1106.76 2255.89,1018.27 2256.74,1025.84 2257.58,1103.74 2258.42,1027.1 2259.26,1008.9 2260.1,1096.76 2260.94,1038.06 2261.78,995.501 2262.62,1086.33 2263.46,1050.25 2264.31,986.694 2265.15,1073.25 2265.99,1062.66 2266.83,983.16 2267.67,1058.55 2268.51,1074.3 2269.35,985.173 2269.53,1074.45 2269.7,1057.68 2269.87,982.541 2270.04,1062.67 2270.22,1070.31 2270.39,983.808 2270.56,1049.17 2270.73,1080.69 2270.91,988.893 2271.08,1034.89 2271.25,1088.08 2271.42,997.428 2271.6,1020.84 2271.77,1091.96 2271.94,1008.81 2272.11,1008 2272.29,1092.06 2272.46,1022.27 2272.63,997.306 2272.8,1088.43 2272.98,1036.9 2273.15,989.55 2273.32,1081.35 2273.49,1051.7 2273.67,985.286 2273.84,1071.32 2274.01,1065.63 2274.18,984.817 2274.36,1059.05 2274.53,1077.74 2274.7,988.207 2274.87,1045.45 2275.05,1087.21 2275.22,995.276 2275.39,1031.53 2275.56,1093.46 2275.74,1005.57 2275.91,1018.31 2276.08,1096.05 2276.25,1018.39 2276.43,1006.72 2276.6,1094.83 2276.77,1032.87 2276.95,997.62 2277.12,1089.94 2277.29,1048.03 2277.46,991.706 2277.64,1081.77 2277.81,1062.88 2277.98,989.461 2278.15,1070.97 2278.33,1076.44 2278.5,991.086 2278.67,1058.33 2278.84,1087.78 2279.02,996.497 2279.19,1044.77 2279.36,1096.15 2279.53,1005.36 2279.71,1031.3 2279.88,1101.03 2280.05,1017.14 2280.22,1018.96 2280.4,1102.16 2280.57,1031.08 2280.74,1008.67 2280.91,1099.52 2281.09,1046.25 2281.26,1001.19 2281.43,1093.33 2281.6,1061.62 2281.78,997.104 2281.95,1084.08 2282.12,1076.18 2282.29,996.764 2282.47,1072.5 2282.64,1088.99 2282.81,1000.29 2282.98,1059.5 2283.16,1099.24 2283.33,1007.48 2283.5,1046.03 2283.68,1106.24 2283.85,1017.9 2284.02,1033.09 2284.19,1109.57 2284.37,1030.85 2284.54,1021.65 2284.71,1109.05 2284.88,1045.52 2285.06,1012.61 2285.23,1104.82 2285.4,1060.96 2285.57,1006.68 2285.75,1097.24 2285.92,1076.14 2286.09,1004.31 2286.26,1086.89 2286.44,1090.05 2286.61,1005.74 2286.78,1074.55 2286.95,1101.77 2287.13,1010.92 2287.3,1061.17 2287.47,1110.57 2287.64,1019.59 2287.82,1047.78 2287.99,1115.9 2288.16,1031.2 2288.33,1035.36 2288.51,1117.44 2288.68,1044.98 2288.85,1024.84 2289.02,1115.12 2289.2,1060 2289.37,1017.01 2289.54,1109.17 2289.71,1075.3 2289.89,1012.49 2290.06,1100.1 2290.23,1089.86 2290.41,1011.68 2290.58,1088.6 2290.75,1102.73 2290.92,1014.67 2291.1,1075.51 2291.27,1113.03 2291.44,1021.3 "/>
<path clip-path="url(#clip410)" d="M2011.46 198.898 L2280.54 198.898 L2280.54 95.2176 L2011.46 95.2176  Z" fill="#ffffff" fill-rule="evenodd" fill-opacity="1"/>
<polyline clip-path="url(#clip410)" style="stroke:#000000; stroke-linecap:round; stroke-linejoin:round; stroke-width:4; stroke-opacity:1; fill:none" points="2011.46,198.898 2280.54,198.898 2280.54,95.2176 2011.46,95.2176 2011.46,198.898 "/>
<polyline clip-path="url(#clip410)" style="stroke:#009af9; stroke-linecap:round; stroke-linejoin:round; stroke-width:4; stroke-opacity:1; fill:none" points="2035.53,147.058 2179.97,147.058 "/>
<path clip-path="url(#clip410)" d="M2217.88 166.745 Q2216.07 171.375 2214.36 172.787 Q2212.65 174.199 2209.78 174.199 L2206.38 174.199 L2206.38 170.634 L2208.88 170.634 Q2210.63 170.634 2211.61 169.8 Q2212.58 168.967 2213.76 165.865 L2214.52 163.921 L2204.04 138.412 L2208.55 138.412 L2216.65 158.689 L2224.76 138.412 L2229.27 138.412 L2217.88 166.745 Z" fill="#000000" fill-rule="evenodd" fill-opacity="1" /><path clip-path="url(#clip410)" d="M2236.56 160.402 L2244.2 160.402 L2244.2 134.037 L2235.89 135.703 L2235.89 131.444 L2244.15 129.778 L2248.83 129.778 L2248.83 160.402 L2256.47 160.402 L2256.47 164.338 L2236.56 164.338 L2236.56 160.402 Z" fill="#000000" fill-rule="evenodd" fill-opacity="1" /></svg>
