<?xml version="1.0" encoding="utf-8"?>
<svg xmlns="http://www.w3.org/2000/svg" xmlns:xlink="http://www.w3.org/1999/xlink" width="600" height="400" viewBox="0 0 2400 1600">
<defs>
  <clipPath id="clip630">
    <rect x="0" y="0" width="2400" height="1600"/>
  </clipPath>
</defs>
<path clip-path="url(#clip630)" d="M0 1600 L2400 1600 L2400 0 L0 0  Z" fill="#ffffff" fill-rule="evenodd" fill-opacity="1"/>
<defs>
  <clipPath id="clip631">
    <rect x="480" y="0" width="1681" height="1600"/>
  </clipPath>
</defs>
<defs>
  <clipPath id="clip632">
    <rect x="186" y="123" width="2167" height="1301"/>
  </clipPath>
</defs>
<path clip-path="url(#clip630)" d="M186.274 1423.18 L2352.76 1423.18 L2352.76 123.472 L186.274 123.472  Z" fill="#ffffff" fill-rule="evenodd" fill-opacity="1"/>
<polyline clip-path="url(#clip632)" style="stroke:#000000; stroke-linecap:round; stroke-linejoin:round; stroke-width:2; stroke-opacity:0.1; fill:none" points="247.385,1423.18 247.385,123.472 "/>
<polyline clip-path="url(#clip632)" style="stroke:#000000; stroke-linecap:round; stroke-linejoin:round; stroke-width:2; stroke-opacity:0.1; fill:none" points="758.399,1423.18 758.399,123.472 "/>
<polyline clip-path="url(#clip632)" style="stroke:#000000; stroke-linecap:round; stroke-linejoin:round; stroke-width:2; stroke-opacity:0.1; fill:none" points="1269.41,1423.18 1269.41,123.472 "/>
<polyline clip-path="url(#clip632)" style="stroke:#000000; stroke-linecap:round; stroke-linejoin:round; stroke-width:2; stroke-opacity:0.1; fill:none" points="1780.43,1423.18 1780.43,123.472 "/>
<polyline clip-path="url(#clip632)" style="stroke:#000000; stroke-linecap:round; stroke-linejoin:round; stroke-width:2; stroke-opacity:0.1; fill:none" points="2291.44,1423.18 2291.44,123.472 "/>
<polyline clip-path="url(#clip630)" style="stroke:#000000; stroke-linecap:round; stroke-linejoin:round; stroke-width:4; stroke-opacity:1; fill:none" points="186.274,1423.18 2352.76,1423.18 "/>
<polyline clip-path="url(#clip630)" style="stroke:#000000; stroke-linecap:round; stroke-linejoin:round; stroke-width:4; stroke-opacity:1; fill:none" points="247.385,1423.18 247.385,1404.28 "/>
<polyline clip-path="url(#clip630)" style="stroke:#000000; stroke-linecap:round; stroke-linejoin:round; stroke-width:4; stroke-opacity:1; fill:none" points="758.399,1423.18 758.399,1404.28 "/>
<polyline clip-path="url(#clip630)" style="stroke:#000000; stroke-linecap:round; stroke-linejoin:round; stroke-width:4; stroke-opacity:1; fill:none" points="1269.41,1423.18 1269.41,1404.28 "/>
<polyline clip-path="url(#clip630)" style="stroke:#000000; stroke-linecap:round; stroke-linejoin:round; stroke-width:4; stroke-opacity:1; fill:none" points="1780.43,1423.18 1780.43,1404.28 "/>
<polyline clip-path="url(#clip630)" style="stroke:#000000; stroke-linecap:round; stroke-linejoin:round; stroke-width:4; stroke-opacity:1; fill:none" points="2291.44,1423.18 2291.44,1404.28 "/>
<path clip-path="url(#clip630)" d="M247.385 1454.1 Q243.774 1454.1 241.945 1457.66 Q240.14 1461.2 240.14 1468.33 Q240.14 1475.44 241.945 1479.01 Q243.774 1482.55 247.385 1482.55 Q251.019 1482.55 252.825 1479.01 Q254.654 1475.44 254.654 1468.33 Q254.654 1461.2 252.825 1457.66 Q251.019 1454.1 247.385 1454.1 M247.385 1450.39 Q253.195 1450.39 256.251 1455 Q259.33 1459.58 259.33 1468.33 Q259.33 1477.06 256.251 1481.67 Q253.195 1486.25 247.385 1486.25 Q241.575 1486.25 238.496 1481.67 Q235.441 1477.06 235.441 1468.33 Q235.441 1459.58 238.496 1455 Q241.575 1450.39 247.385 1450.39 Z" fill="#000000" fill-rule="evenodd" fill-opacity="1" /><path clip-path="url(#clip630)" d="M722.091 1481.64 L738.411 1481.64 L738.411 1485.58 L716.466 1485.58 L716.466 1481.64 Q719.128 1478.89 723.712 1474.26 Q728.318 1469.61 729.499 1468.27 Q731.744 1465.74 732.624 1464.01 Q733.526 1462.25 733.526 1460.56 Q733.526 1457.8 731.582 1456.07 Q729.661 1454.33 726.559 1454.33 Q724.36 1454.33 721.906 1455.09 Q719.476 1455.86 716.698 1457.41 L716.698 1452.69 Q719.522 1451.55 721.976 1450.97 Q724.429 1450.39 726.466 1450.39 Q731.837 1450.39 735.031 1453.08 Q738.225 1455.77 738.225 1460.26 Q738.225 1462.39 737.415 1464.31 Q736.628 1466.2 734.522 1468.8 Q733.943 1469.47 730.841 1472.69 Q727.739 1475.88 722.091 1481.64 Z" fill="#000000" fill-rule="evenodd" fill-opacity="1" /><path clip-path="url(#clip630)" d="M748.272 1451.02 L766.628 1451.02 L766.628 1454.96 L752.554 1454.96 L752.554 1463.43 Q753.573 1463.08 754.591 1462.92 Q755.61 1462.73 756.628 1462.73 Q762.415 1462.73 765.795 1465.9 Q769.174 1469.08 769.174 1474.49 Q769.174 1480.07 765.702 1483.17 Q762.23 1486.25 755.911 1486.25 Q753.735 1486.25 751.466 1485.88 Q749.221 1485.51 746.813 1484.77 L746.813 1480.07 Q748.897 1481.2 751.119 1481.76 Q753.341 1482.32 755.818 1482.32 Q759.823 1482.32 762.16 1480.21 Q764.498 1478.1 764.498 1474.49 Q764.498 1470.88 762.16 1468.77 Q759.823 1466.67 755.818 1466.67 Q753.943 1466.67 752.068 1467.08 Q750.216 1467.5 748.272 1468.38 L748.272 1451.02 Z" fill="#000000" fill-rule="evenodd" fill-opacity="1" /><path clip-path="url(#clip630)" d="M788.387 1454.1 Q784.776 1454.1 782.947 1457.66 Q781.142 1461.2 781.142 1468.33 Q781.142 1475.44 782.947 1479.01 Q784.776 1482.55 788.387 1482.55 Q792.021 1482.55 793.827 1479.01 Q795.656 1475.44 795.656 1468.33 Q795.656 1461.2 793.827 1457.66 Q792.021 1454.1 788.387 1454.1 M788.387 1450.39 Q794.197 1450.39 797.253 1455 Q800.332 1459.58 800.332 1468.33 Q800.332 1477.06 797.253 1481.67 Q794.197 1486.25 788.387 1486.25 Q782.577 1486.25 779.498 1481.67 Q776.443 1477.06 776.443 1468.33 Q776.443 1459.58 779.498 1455 Q782.577 1450.39 788.387 1450.39 Z" fill="#000000" fill-rule="evenodd" fill-opacity="1" /><path clip-path="url(#clip630)" d="M1229.03 1451.02 L1247.39 1451.02 L1247.39 1454.96 L1233.31 1454.96 L1233.31 1463.43 Q1234.33 1463.08 1235.35 1462.92 Q1236.37 1462.73 1237.39 1462.73 Q1243.17 1462.73 1246.55 1465.9 Q1249.93 1469.08 1249.93 1474.49 Q1249.93 1480.07 1246.46 1483.17 Q1242.99 1486.25 1236.67 1486.25 Q1234.49 1486.25 1232.23 1485.88 Q1229.98 1485.51 1227.57 1484.77 L1227.57 1480.07 Q1229.66 1481.2 1231.88 1481.76 Q1234.1 1482.32 1236.58 1482.32 Q1240.58 1482.32 1242.92 1480.21 Q1245.26 1478.1 1245.26 1474.49 Q1245.26 1470.88 1242.92 1468.77 Q1240.58 1466.67 1236.58 1466.67 Q1234.7 1466.67 1232.83 1467.08 Q1230.98 1467.5 1229.03 1468.38 L1229.03 1451.02 Z" fill="#000000" fill-rule="evenodd" fill-opacity="1" /><path clip-path="url(#clip630)" d="M1269.15 1454.1 Q1265.54 1454.1 1263.71 1457.66 Q1261.9 1461.2 1261.9 1468.33 Q1261.9 1475.44 1263.71 1479.01 Q1265.54 1482.55 1269.15 1482.55 Q1272.78 1482.55 1274.59 1479.01 Q1276.42 1475.44 1276.42 1468.33 Q1276.42 1461.2 1274.59 1457.66 Q1272.78 1454.1 1269.15 1454.1 M1269.15 1450.39 Q1274.96 1450.39 1278.01 1455 Q1281.09 1459.58 1281.09 1468.33 Q1281.09 1477.06 1278.01 1481.67 Q1274.96 1486.25 1269.15 1486.25 Q1263.34 1486.25 1260.26 1481.67 Q1257.2 1477.06 1257.2 1468.33 Q1257.2 1459.58 1260.26 1455 Q1263.34 1450.39 1269.15 1450.39 Z" fill="#000000" fill-rule="evenodd" fill-opacity="1" /><path clip-path="url(#clip630)" d="M1299.31 1454.1 Q1295.7 1454.1 1293.87 1457.66 Q1292.06 1461.2 1292.06 1468.33 Q1292.06 1475.44 1293.87 1479.01 Q1295.7 1482.55 1299.31 1482.55 Q1302.94 1482.55 1304.75 1479.01 Q1306.58 1475.44 1306.58 1468.33 Q1306.58 1461.2 1304.75 1457.66 Q1302.94 1454.1 1299.31 1454.1 M1299.31 1450.39 Q1305.12 1450.39 1308.17 1455 Q1311.25 1459.58 1311.25 1468.33 Q1311.25 1477.06 1308.17 1481.67 Q1305.12 1486.25 1299.31 1486.25 Q1293.5 1486.25 1290.42 1481.67 Q1287.36 1477.06 1287.36 1468.33 Q1287.36 1459.58 1290.42 1455 Q1293.5 1450.39 1299.31 1450.39 Z" fill="#000000" fill-rule="evenodd" fill-opacity="1" /><path clip-path="url(#clip630)" d="M1738.7 1451.02 L1760.92 1451.02 L1760.92 1453.01 L1748.38 1485.58 L1743.49 1485.58 L1755.3 1454.96 L1738.7 1454.96 L1738.7 1451.02 Z" fill="#000000" fill-rule="evenodd" fill-opacity="1" /><path clip-path="url(#clip630)" d="M1770.09 1451.02 L1788.45 1451.02 L1788.45 1454.96 L1774.37 1454.96 L1774.37 1463.43 Q1775.39 1463.08 1776.41 1462.92 Q1777.43 1462.73 1778.45 1462.73 Q1784.23 1462.73 1787.61 1465.9 Q1790.99 1469.08 1790.99 1474.49 Q1790.99 1480.07 1787.52 1483.17 Q1784.05 1486.25 1777.73 1486.25 Q1775.55 1486.25 1773.29 1485.88 Q1771.04 1485.51 1768.63 1484.77 L1768.63 1480.07 Q1770.72 1481.2 1772.94 1481.76 Q1775.16 1482.32 1777.64 1482.32 Q1781.64 1482.32 1783.98 1480.21 Q1786.32 1478.1 1786.32 1474.49 Q1786.32 1470.88 1783.98 1468.77 Q1781.64 1466.67 1777.64 1466.67 Q1775.76 1466.67 1773.89 1467.08 Q1772.04 1467.5 1770.09 1468.38 L1770.09 1451.02 Z" fill="#000000" fill-rule="evenodd" fill-opacity="1" /><path clip-path="url(#clip630)" d="M1810.21 1454.1 Q1806.6 1454.1 1804.77 1457.66 Q1802.96 1461.2 1802.96 1468.33 Q1802.96 1475.44 1804.77 1479.01 Q1806.6 1482.55 1810.21 1482.55 Q1813.84 1482.55 1815.65 1479.01 Q1817.47 1475.44 1817.47 1468.33 Q1817.47 1461.2 1815.65 1457.66 Q1813.84 1454.1 1810.21 1454.1 M1810.21 1450.39 Q1816.02 1450.39 1819.07 1455 Q1822.15 1459.58 1822.15 1468.33 Q1822.15 1477.06 1819.07 1481.67 Q1816.02 1486.25 1810.21 1486.25 Q1804.4 1486.25 1801.32 1481.67 Q1798.26 1477.06 1798.26 1468.33 Q1798.26 1459.58 1801.32 1455 Q1804.4 1450.39 1810.21 1450.39 Z" fill="#000000" fill-rule="evenodd" fill-opacity="1" /><path clip-path="url(#clip630)" d="M2235.97 1481.64 L2243.6 1481.64 L2243.6 1455.28 L2235.29 1456.95 L2235.29 1452.69 L2243.56 1451.02 L2248.23 1451.02 L2248.23 1481.64 L2255.87 1481.64 L2255.87 1485.58 L2235.97 1485.58 L2235.97 1481.64 Z" fill="#000000" fill-rule="evenodd" fill-opacity="1" /><path clip-path="url(#clip630)" d="M2275.32 1454.1 Q2271.71 1454.1 2269.88 1457.66 Q2268.07 1461.2 2268.07 1468.33 Q2268.07 1475.44 2269.88 1479.01 Q2271.71 1482.55 2275.32 1482.55 Q2278.95 1482.55 2280.76 1479.01 Q2282.59 1475.44 2282.59 1468.33 Q2282.59 1461.2 2280.76 1457.66 Q2278.95 1454.1 2275.32 1454.1 M2275.32 1450.39 Q2281.13 1450.39 2284.18 1455 Q2287.26 1459.58 2287.26 1468.33 Q2287.26 1477.06 2284.18 1481.67 Q2281.13 1486.25 2275.32 1486.25 Q2269.51 1486.25 2266.43 1481.67 Q2263.37 1477.06 2263.37 1468.33 Q2263.37 1459.58 2266.43 1455 Q2269.51 1450.39 2275.32 1450.39 Z" fill="#000000" fill-rule="evenodd" fill-opacity="1" /><path clip-path="url(#clip630)" d="M2305.48 1454.1 Q2301.87 1454.1 2300.04 1457.66 Q2298.23 1461.2 2298.23 1468.33 Q2298.23 1475.44 2300.04 1479.01 Q2301.87 1482.55 2305.48 1482.55 Q2309.11 1482.55 2310.92 1479.01 Q2312.75 1475.44 2312.75 1468.33 Q2312.75 1461.2 2310.92 1457.66 Q2309.11 1454.1 2305.48 1454.1 M2305.48 1450.39 Q2311.29 1450.39 2314.35 1455 Q2317.42 1459.58 2317.42 1468.33 Q2317.42 1477.06 2314.35 1481.67 Q2311.29 1486.25 2305.48 1486.25 Q2299.67 1486.25 2296.59 1481.67 Q2293.54 1477.06 2293.54 1468.33 Q2293.54 1459.58 2296.59 1455 Q2299.67 1450.39 2305.48 1450.39 Z" fill="#000000" fill-rule="evenodd" fill-opacity="1" /><path clip-path="url(#clip630)" d="M2335.64 1454.1 Q2332.03 1454.1 2330.2 1457.66 Q2328.4 1461.2 2328.4 1468.33 Q2328.4 1475.44 2330.2 1479.01 Q2332.03 1482.55 2335.64 1482.55 Q2339.28 1482.55 2341.08 1479.01 Q2342.91 1475.44 2342.91 1468.33 Q2342.91 1461.2 2341.08 1457.66 Q2339.28 1454.1 2335.64 1454.1 M2335.64 1450.39 Q2341.45 1450.39 2344.51 1455 Q2347.59 1459.58 2347.59 1468.33 Q2347.59 1477.06 2344.51 1481.67 Q2341.45 1486.25 2335.64 1486.25 Q2329.83 1486.25 2326.75 1481.67 Q2323.7 1477.06 2323.7 1468.33 Q2323.7 1459.58 2326.75 1455 Q2329.83 1450.39 2335.64 1450.39 Z" fill="#000000" fill-rule="evenodd" fill-opacity="1" /><path clip-path="url(#clip630)" d="M1268.58 1522.27 L1268.58 1532.4 L1280.64 1532.4 L1280.64 1536.95 L1268.58 1536.95 L1268.58 1556.3 Q1268.58 1560.66 1269.75 1561.9 Q1270.96 1563.14 1274.62 1563.14 L1280.64 1563.14 L1280.64 1568.04 L1274.62 1568.04 Q1267.84 1568.04 1265.27 1565.53 Q1262.69 1562.98 1262.69 1556.3 L1262.69 1536.95 L1258.39 1536.95 L1258.39 1532.4 L1262.69 1532.4 L1262.69 1522.27 L1268.58 1522.27 Z" fill="#000000" fill-rule="evenodd" fill-opacity="1" /><polyline clip-path="url(#clip632)" style="stroke:#000000; stroke-linecap:round; stroke-linejoin:round; stroke-width:2; stroke-opacity:0.1; fill:none" points="186.274,1386.43 2352.76,1386.43 "/>
<polyline clip-path="url(#clip632)" style="stroke:#000000; stroke-linecap:round; stroke-linejoin:round; stroke-width:2; stroke-opacity:0.1; fill:none" points="186.274,1079.83 2352.76,1079.83 "/>
<polyline clip-path="url(#clip632)" style="stroke:#000000; stroke-linecap:round; stroke-linejoin:round; stroke-width:2; stroke-opacity:0.1; fill:none" points="186.274,773.232 2352.76,773.232 "/>
<polyline clip-path="url(#clip632)" style="stroke:#000000; stroke-linecap:round; stroke-linejoin:round; stroke-width:2; stroke-opacity:0.1; fill:none" points="186.274,466.634 2352.76,466.634 "/>
<polyline clip-path="url(#clip632)" style="stroke:#000000; stroke-linecap:round; stroke-linejoin:round; stroke-width:2; stroke-opacity:0.1; fill:none" points="186.274,160.036 2352.76,160.036 "/>
<polyline clip-path="url(#clip630)" style="stroke:#000000; stroke-linecap:round; stroke-linejoin:round; stroke-width:4; stroke-opacity:1; fill:none" points="186.274,1423.18 186.274,123.472 "/>
<polyline clip-path="url(#clip630)" style="stroke:#000000; stroke-linecap:round; stroke-linejoin:round; stroke-width:4; stroke-opacity:1; fill:none" points="186.274,1386.43 205.172,1386.43 "/>
<polyline clip-path="url(#clip630)" style="stroke:#000000; stroke-linecap:round; stroke-linejoin:round; stroke-width:4; stroke-opacity:1; fill:none" points="186.274,1079.83 205.172,1079.83 "/>
<polyline clip-path="url(#clip630)" style="stroke:#000000; stroke-linecap:round; stroke-linejoin:round; stroke-width:4; stroke-opacity:1; fill:none" points="186.274,773.232 205.172,773.232 "/>
<polyline clip-path="url(#clip630)" style="stroke:#000000; stroke-linecap:round; stroke-linejoin:round; stroke-width:4; stroke-opacity:1; fill:none" points="186.274,466.634 205.172,466.634 "/>
<polyline clip-path="url(#clip630)" style="stroke:#000000; stroke-linecap:round; stroke-linejoin:round; stroke-width:4; stroke-opacity:1; fill:none" points="186.274,160.036 205.172,160.036 "/>
<path clip-path="url(#clip630)" d="M62.9365 1372.23 Q59.3254 1372.23 57.4967 1375.79 Q55.6912 1379.33 55.6912 1386.46 Q55.6912 1393.57 57.4967 1397.13 Q59.3254 1400.68 62.9365 1400.68 Q66.5707 1400.68 68.3763 1397.13 Q70.205 1393.57 70.205 1386.46 Q70.205 1379.33 68.3763 1375.79 Q66.5707 1372.23 62.9365 1372.23 M62.9365 1368.52 Q68.7467 1368.52 71.8022 1373.13 Q74.8809 1377.71 74.8809 1386.46 Q74.8809 1395.19 71.8022 1399.8 Q68.7467 1404.38 62.9365 1404.38 Q57.1264 1404.38 54.0477 1399.8 Q50.9921 1395.19 50.9921 1386.46 Q50.9921 1377.71 54.0477 1373.13 Q57.1264 1368.52 62.9365 1368.52 Z" fill="#000000" fill-rule="evenodd" fill-opacity="1" /><path clip-path="url(#clip630)" d="M83.0984 1397.83 L87.9827 1397.83 L87.9827 1403.71 L83.0984 1403.71 L83.0984 1397.83 Z" fill="#000000" fill-rule="evenodd" fill-opacity="1" /><path clip-path="url(#clip630)" d="M108.168 1372.23 Q104.557 1372.23 102.728 1375.79 Q100.922 1379.33 100.922 1386.46 Q100.922 1393.57 102.728 1397.13 Q104.557 1400.68 108.168 1400.68 Q111.802 1400.68 113.608 1397.13 Q115.436 1393.57 115.436 1386.46 Q115.436 1379.33 113.608 1375.79 Q111.802 1372.23 108.168 1372.23 M108.168 1368.52 Q113.978 1368.52 117.033 1373.13 Q120.112 1377.71 120.112 1386.46 Q120.112 1395.19 117.033 1399.8 Q113.978 1404.38 108.168 1404.38 Q102.358 1404.38 99.2789 1399.8 Q96.2234 1395.19 96.2234 1386.46 Q96.2234 1377.71 99.2789 1373.13 Q102.358 1368.52 108.168 1368.52 Z" fill="#000000" fill-rule="evenodd" fill-opacity="1" /><path clip-path="url(#clip630)" d="M138.33 1372.23 Q134.719 1372.23 132.89 1375.79 Q131.084 1379.33 131.084 1386.46 Q131.084 1393.57 132.89 1397.13 Q134.719 1400.68 138.33 1400.68 Q141.964 1400.68 143.769 1397.13 Q145.598 1393.57 145.598 1386.46 Q145.598 1379.33 143.769 1375.79 Q141.964 1372.23 138.33 1372.23 M138.33 1368.52 Q144.14 1368.52 147.195 1373.13 Q150.274 1377.71 150.274 1386.46 Q150.274 1395.19 147.195 1399.8 Q144.14 1404.38 138.33 1404.38 Q132.519 1404.38 129.441 1399.8 Q126.385 1395.19 126.385 1386.46 Q126.385 1377.71 129.441 1373.13 Q132.519 1368.52 138.33 1368.52 Z" fill="#000000" fill-rule="evenodd" fill-opacity="1" /><path clip-path="url(#clip630)" d="M63.9319 1065.63 Q60.3208 1065.63 58.4921 1069.19 Q56.6865 1072.74 56.6865 1079.86 Q56.6865 1086.97 58.4921 1090.54 Q60.3208 1094.08 63.9319 1094.08 Q67.5661 1094.08 69.3717 1090.54 Q71.2004 1086.97 71.2004 1079.86 Q71.2004 1072.74 69.3717 1069.19 Q67.5661 1065.63 63.9319 1065.63 M63.9319 1061.93 Q69.742 1061.93 72.7976 1066.53 Q75.8763 1071.11 75.8763 1079.86 Q75.8763 1088.59 72.7976 1093.2 Q69.742 1097.78 63.9319 1097.78 Q58.1217 1097.78 55.043 1093.2 Q51.9875 1088.59 51.9875 1079.86 Q51.9875 1071.11 55.043 1066.53 Q58.1217 1061.93 63.9319 1061.93 Z" fill="#000000" fill-rule="evenodd" fill-opacity="1" /><path clip-path="url(#clip630)" d="M84.0938 1091.23 L88.978 1091.23 L88.978 1097.11 L84.0938 1097.11 L84.0938 1091.23 Z" fill="#000000" fill-rule="evenodd" fill-opacity="1" /><path clip-path="url(#clip630)" d="M103.191 1093.18 L119.51 1093.18 L119.51 1097.11 L97.566 1097.11 L97.566 1093.18 Q100.228 1090.42 104.811 1085.79 Q109.418 1081.14 110.598 1079.8 Q112.844 1077.27 113.723 1075.54 Q114.626 1073.78 114.626 1072.09 Q114.626 1069.33 112.682 1067.6 Q110.76 1065.86 107.658 1065.86 Q105.459 1065.86 103.006 1066.62 Q100.575 1067.39 97.7974 1068.94 L97.7974 1064.22 Q100.621 1063.08 103.075 1062.5 Q105.529 1061.93 107.566 1061.93 Q112.936 1061.93 116.131 1064.61 Q119.325 1067.3 119.325 1071.79 Q119.325 1073.92 118.515 1075.84 Q117.728 1077.74 115.621 1080.33 Q115.043 1081 111.941 1084.22 Q108.839 1087.41 103.191 1093.18 Z" fill="#000000" fill-rule="evenodd" fill-opacity="1" /><path clip-path="url(#clip630)" d="M129.371 1062.55 L147.728 1062.55 L147.728 1066.49 L133.654 1066.49 L133.654 1074.96 Q134.672 1074.61 135.691 1074.45 Q136.709 1074.26 137.728 1074.26 Q143.515 1074.26 146.894 1077.43 Q150.274 1080.61 150.274 1086.02 Q150.274 1091.6 146.802 1094.7 Q143.33 1097.78 137.01 1097.78 Q134.834 1097.78 132.566 1097.41 Q130.32 1097.04 127.913 1096.3 L127.913 1091.6 Q129.996 1092.74 132.219 1093.29 Q134.441 1093.85 136.918 1093.85 Q140.922 1093.85 143.26 1091.74 Q145.598 1089.63 145.598 1086.02 Q145.598 1082.41 143.26 1080.3 Q140.922 1078.2 136.918 1078.2 Q135.043 1078.2 133.168 1078.61 Q131.316 1079.03 129.371 1079.91 L129.371 1062.55 Z" fill="#000000" fill-rule="evenodd" fill-opacity="1" /><path clip-path="url(#clip630)" d="M62.9365 759.031 Q59.3254 759.031 57.4967 762.595 Q55.6912 766.137 55.6912 773.267 Q55.6912 780.373 57.4967 783.938 Q59.3254 787.48 62.9365 787.48 Q66.5707 787.48 68.3763 783.938 Q70.205 780.373 70.205 773.267 Q70.205 766.137 68.3763 762.595 Q66.5707 759.031 62.9365 759.031 M62.9365 755.327 Q68.7467 755.327 71.8022 759.933 Q74.8809 764.517 74.8809 773.267 Q74.8809 781.994 71.8022 786.6 Q68.7467 791.183 62.9365 791.183 Q57.1264 791.183 54.0477 786.6 Q50.9921 781.994 50.9921 773.267 Q50.9921 764.517 54.0477 759.933 Q57.1264 755.327 62.9365 755.327 Z" fill="#000000" fill-rule="evenodd" fill-opacity="1" /><path clip-path="url(#clip630)" d="M83.0984 784.632 L87.9827 784.632 L87.9827 790.512 L83.0984 790.512 L83.0984 784.632 Z" fill="#000000" fill-rule="evenodd" fill-opacity="1" /><path clip-path="url(#clip630)" d="M98.2141 755.952 L116.57 755.952 L116.57 759.887 L102.496 759.887 L102.496 768.359 Q103.515 768.012 104.534 767.85 Q105.552 767.665 106.571 767.665 Q112.358 767.665 115.737 770.836 Q119.117 774.007 119.117 779.424 Q119.117 785.003 115.645 788.105 Q112.172 791.183 105.853 791.183 Q103.677 791.183 101.409 790.813 Q99.1632 790.443 96.7558 789.702 L96.7558 785.003 Q98.8391 786.137 101.061 786.693 Q103.284 787.248 105.76 787.248 Q109.765 787.248 112.103 785.142 Q114.441 783.035 114.441 779.424 Q114.441 775.813 112.103 773.707 Q109.765 771.6 105.76 771.6 Q103.885 771.6 102.01 772.017 Q100.159 772.433 98.2141 773.313 L98.2141 755.952 Z" fill="#000000" fill-rule="evenodd" fill-opacity="1" /><path clip-path="url(#clip630)" d="M138.33 759.031 Q134.719 759.031 132.89 762.595 Q131.084 766.137 131.084 773.267 Q131.084 780.373 132.89 783.938 Q134.719 787.48 138.33 787.48 Q141.964 787.48 143.769 783.938 Q145.598 780.373 145.598 773.267 Q145.598 766.137 143.769 762.595 Q141.964 759.031 138.33 759.031 M138.33 755.327 Q144.14 755.327 147.195 759.933 Q150.274 764.517 150.274 773.267 Q150.274 781.994 147.195 786.6 Q144.14 791.183 138.33 791.183 Q132.519 791.183 129.441 786.6 Q126.385 781.994 126.385 773.267 Q126.385 764.517 129.441 759.933 Q132.519 755.327 138.33 755.327 Z" fill="#000000" fill-rule="evenodd" fill-opacity="1" /><path clip-path="url(#clip630)" d="M63.9319 452.433 Q60.3208 452.433 58.4921 455.997 Q56.6865 459.539 56.6865 466.669 Q56.6865 473.775 58.4921 477.34 Q60.3208 480.881 63.9319 480.881 Q67.5661 480.881 69.3717 477.34 Q71.2004 473.775 71.2004 466.669 Q71.2004 459.539 69.3717 455.997 Q67.5661 452.433 63.9319 452.433 M63.9319 448.729 Q69.742 448.729 72.7976 453.335 Q75.8763 457.919 75.8763 466.669 Q75.8763 475.395 72.7976 480.002 Q69.742 484.585 63.9319 484.585 Q58.1217 484.585 55.043 480.002 Q51.9875 475.395 51.9875 466.669 Q51.9875 457.919 55.043 453.335 Q58.1217 448.729 63.9319 448.729 Z" fill="#000000" fill-rule="evenodd" fill-opacity="1" /><path clip-path="url(#clip630)" d="M84.0938 478.034 L88.978 478.034 L88.978 483.914 L84.0938 483.914 L84.0938 478.034 Z" fill="#000000" fill-rule="evenodd" fill-opacity="1" /><path clip-path="url(#clip630)" d="M97.9826 449.354 L120.205 449.354 L120.205 451.345 L107.658 483.914 L102.774 483.914 L114.58 453.289 L97.9826 453.289 L97.9826 449.354 Z" fill="#000000" fill-rule="evenodd" fill-opacity="1" /><path clip-path="url(#clip630)" d="M129.371 449.354 L147.728 449.354 L147.728 453.289 L133.654 453.289 L133.654 461.761 Q134.672 461.414 135.691 461.252 Q136.709 461.067 137.728 461.067 Q143.515 461.067 146.894 464.238 Q150.274 467.409 150.274 472.826 Q150.274 478.405 146.802 481.506 Q143.33 484.585 137.01 484.585 Q134.834 484.585 132.566 484.215 Q130.32 483.844 127.913 483.104 L127.913 478.405 Q129.996 479.539 132.219 480.094 Q134.441 480.65 136.918 480.65 Q140.922 480.65 143.26 478.543 Q145.598 476.437 145.598 472.826 Q145.598 469.215 143.26 467.108 Q140.922 465.002 136.918 465.002 Q135.043 465.002 133.168 465.419 Q131.316 465.835 129.371 466.715 L129.371 449.354 Z" fill="#000000" fill-rule="evenodd" fill-opacity="1" /><path clip-path="url(#clip630)" d="M53.7467 173.38 L61.3856 173.38 L61.3856 147.015 L53.0754 148.682 L53.0754 144.422 L61.3393 142.756 L66.0152 142.756 L66.0152 173.38 L73.654 173.38 L73.654 177.316 L53.7467 177.316 L53.7467 173.38 Z" fill="#000000" fill-rule="evenodd" fill-opacity="1" /><path clip-path="url(#clip630)" d="M83.0984 171.436 L87.9827 171.436 L87.9827 177.316 L83.0984 177.316 L83.0984 171.436 Z" fill="#000000" fill-rule="evenodd" fill-opacity="1" /><path clip-path="url(#clip630)" d="M108.168 145.834 Q104.557 145.834 102.728 149.399 Q100.922 152.941 100.922 160.07 Q100.922 167.177 102.728 170.742 Q104.557 174.283 108.168 174.283 Q111.802 174.283 113.608 170.742 Q115.436 167.177 115.436 160.07 Q115.436 152.941 113.608 149.399 Q111.802 145.834 108.168 145.834 M108.168 142.131 Q113.978 142.131 117.033 146.737 Q120.112 151.32 120.112 160.07 Q120.112 168.797 117.033 173.404 Q113.978 177.987 108.168 177.987 Q102.358 177.987 99.2789 173.404 Q96.2234 168.797 96.2234 160.07 Q96.2234 151.32 99.2789 146.737 Q102.358 142.131 108.168 142.131 Z" fill="#000000" fill-rule="evenodd" fill-opacity="1" /><path clip-path="url(#clip630)" d="M138.33 145.834 Q134.719 145.834 132.89 149.399 Q131.084 152.941 131.084 160.07 Q131.084 167.177 132.89 170.742 Q134.719 174.283 138.33 174.283 Q141.964 174.283 143.769 170.742 Q145.598 167.177 145.598 160.07 Q145.598 152.941 143.769 149.399 Q141.964 145.834 138.33 145.834 M138.33 142.131 Q144.14 142.131 147.195 146.737 Q150.274 151.32 150.274 160.07 Q150.274 168.797 147.195 173.404 Q144.14 177.987 138.33 177.987 Q132.519 177.987 129.441 173.404 Q126.385 168.797 126.385 160.07 Q126.385 151.32 129.441 146.737 Q132.519 142.131 138.33 142.131 Z" fill="#000000" fill-rule="evenodd" fill-opacity="1" /><path clip-path="url(#clip630)" d="M862.581 54.671 L862.581 27.2059 L870.035 27.2059 L870.035 54.3874 Q870.035 60.8284 872.547 64.0691 Q875.058 67.2693 880.081 67.2693 Q886.117 67.2693 889.601 63.421 Q893.125 59.5726 893.125 52.9291 L893.125 27.2059 L900.579 27.2059 L900.579 72.576 L893.125 72.576 L893.125 65.6084 Q890.411 69.7404 886.806 71.7658 Q883.241 73.7508 878.501 73.7508 Q870.683 73.7508 866.632 68.8897 Q862.581 64.0286 862.581 54.671 M881.337 26.1121 L881.337 26.1121 Z" fill="#000000" fill-rule="evenodd" fill-opacity="1" /><path clip-path="url(#clip630)" d="M916.904 34.9026 L968.837 34.9026 L968.837 41.7081 L916.904 41.7081 L916.904 34.9026 M916.904 51.4303 L968.837 51.4303 L968.837 58.3168 L916.904 58.3168 L916.904 51.4303 Z" fill="#000000" fill-rule="evenodd" fill-opacity="1" /><path clip-path="url(#clip630)" d="M993.547 65.6895 L1022.11 65.6895 L1022.11 72.576 L983.703 72.576 L983.703 65.6895 Q988.362 60.8689 996.383 52.7671 Q1004.44 44.6248 1006.51 42.2752 Q1010.44 37.8598 1011.98 34.8216 Q1013.56 31.7429 1013.56 28.7857 Q1013.56 23.9651 1010.16 20.927 Q1006.79 17.8888 1001.37 17.8888 Q997.517 17.8888 993.223 19.2256 Q988.97 20.5624 984.108 23.2765 L984.108 15.0127 Q989.051 13.0277 993.345 12.015 Q997.639 11.0023 1001.2 11.0023 Q1010.6 11.0023 1016.19 15.7013 Q1021.78 20.4004 1021.78 28.2591 Q1021.78 31.9859 1020.36 35.3482 Q1018.99 38.6699 1015.3 43.2069 Q1014.29 44.3817 1008.86 50.0125 Q1003.43 55.6027 993.547 65.6895 Z" fill="#000000" fill-rule="evenodd" fill-opacity="1" /><path clip-path="url(#clip630)" d="M1040.13 62.2867 L1048.68 62.2867 L1048.68 69.2543 L1042.04 82.2172 L1036.81 82.2172 L1040.13 69.2543 L1040.13 62.2867 Z" fill="#000000" fill-rule="evenodd" fill-opacity="1" /><path clip-path="url(#clip630)" d="M1117.42 51.4708 L1115.64 42.1132 Q1113.82 32.5126 1106.61 32.5126 Q1101.18 32.5126 1098.71 36.9686 Q1095.59 42.5588 1095.59 49.9314 Q1095.59 58.8434 1098.63 63.0969 Q1101.71 67.4314 1106.61 67.4314 Q1112.04 67.4314 1114.95 58.8029 L1117.42 51.4708 M1121.6 39.075 L1125.61 27.2059 L1132.25 27.2059 L1123.95 51.7949 L1125.57 60.6663 Q1125.93 62.6513 1127.35 64.3122 Q1129.01 66.2566 1130.31 66.2566 L1133.87 66.2566 L1133.87 72.576 L1129.41 72.576 Q1125.61 72.576 1122.2 69.1732 Q1120.54 67.4719 1119.85 63.9071 Q1117.99 68.4036 1114.18 71.9279 Q1112.4 73.5887 1106.61 73.5887 Q1097.09 73.5887 1092.47 67.4314 Q1087.73 61.0714 1087.73 49.9314 Q1087.73 38.0218 1092.88 32.4315 Q1098.59 26.1931 1106.61 26.1931 Q1119.21 26.1931 1121.6 39.075 Z" fill="#000000" fill-rule="evenodd" fill-opacity="1" /><path clip-path="url(#clip630)" d="M1146.63 34.9026 L1198.56 34.9026 L1198.56 41.7081 L1146.63 41.7081 L1146.63 34.9026 M1146.63 51.4303 L1198.56 51.4303 L1198.56 58.3168 L1146.63 58.3168 L1146.63 51.4303 Z" fill="#000000" fill-rule="evenodd" fill-opacity="1" /><path clip-path="url(#clip630)" d="M1233.73 17.4837 Q1227.41 17.4837 1224.21 23.7221 Q1221.05 29.92 1221.05 42.3968 Q1221.05 54.833 1224.21 61.0714 Q1227.41 67.2693 1233.73 67.2693 Q1240.09 67.2693 1243.24 61.0714 Q1246.45 54.833 1246.45 42.3968 Q1246.45 29.92 1243.24 23.7221 Q1240.09 17.4837 1233.73 17.4837 M1233.73 11.0023 Q1243.89 11.0023 1249.24 19.0636 Q1254.63 27.0843 1254.63 42.3968 Q1254.63 57.6687 1249.24 65.73 Q1243.89 73.7508 1233.73 73.7508 Q1223.56 73.7508 1218.17 65.73 Q1212.82 57.6687 1212.82 42.3968 Q1212.82 27.0843 1218.17 19.0636 Q1223.56 11.0023 1233.73 11.0023 Z" fill="#000000" fill-rule="evenodd" fill-opacity="1" /><path clip-path="url(#clip630)" d="M1269.01 62.2867 L1277.56 62.2867 L1277.56 72.576 L1269.01 72.576 L1269.01 62.2867 Z" fill="#000000" fill-rule="evenodd" fill-opacity="1" /><path clip-path="url(#clip630)" d="M1295.46 12.096 L1327.58 12.096 L1327.58 18.9825 L1302.96 18.9825 L1302.96 33.8088 Q1304.74 33.2012 1306.52 32.9176 Q1308.3 32.5936 1310.08 32.5936 Q1320.21 32.5936 1326.13 38.1433 Q1332.04 43.6931 1332.04 53.1722 Q1332.04 62.9348 1325.96 68.3631 Q1319.89 73.7508 1308.83 73.7508 Q1305.02 73.7508 1301.05 73.1026 Q1297.12 72.4545 1292.91 71.1582 L1292.91 62.9348 Q1296.55 64.9198 1300.44 65.892 Q1304.33 66.8642 1308.67 66.8642 Q1315.68 66.8642 1319.77 63.1779 Q1323.86 59.4916 1323.86 53.1722 Q1323.86 46.8528 1319.77 43.1664 Q1315.68 39.4801 1308.67 39.4801 Q1305.39 39.4801 1302.1 40.2093 Q1298.86 40.9384 1295.46 42.4778 L1295.46 12.096 Z" fill="#000000" fill-rule="evenodd" fill-opacity="1" /><path clip-path="url(#clip630)" d="M1349.01 62.2867 L1357.56 62.2867 L1357.56 69.2543 L1350.92 82.2172 L1345.69 82.2172 L1349.01 69.2543 L1349.01 62.2867 Z" fill="#000000" fill-rule="evenodd" fill-opacity="1" /><path clip-path="url(#clip630)" d="M1400.18 12.096 L1411.2 12.096 L1438.01 62.6918 L1438.01 12.096 L1445.95 12.096 L1445.95 72.576 L1434.93 72.576 L1408.12 21.9802 L1408.12 72.576 L1400.18 72.576 L1400.18 12.096 Z" fill="#000000" fill-rule="evenodd" fill-opacity="1" /><path clip-path="url(#clip630)" d="M1462.88 34.9026 L1514.82 34.9026 L1514.82 41.7081 L1462.88 41.7081 L1462.88 34.9026 M1462.88 51.4303 L1514.82 51.4303 L1514.82 58.3168 L1462.88 58.3168 L1462.88 51.4303 Z" fill="#000000" fill-rule="evenodd" fill-opacity="1" /><path clip-path="url(#clip630)" d="M1533.9 65.6895 L1547.27 65.6895 L1547.27 19.5497 L1532.72 22.4663 L1532.72 15.0127 L1547.18 12.096 L1555.37 12.096 L1555.37 65.6895 L1568.73 65.6895 L1568.73 72.576 L1533.9 72.576 L1533.9 65.6895 Z" fill="#000000" fill-rule="evenodd" fill-opacity="1" /><path clip-path="url(#clip630)" d="M1602.76 17.4837 Q1596.44 17.4837 1593.24 23.7221 Q1590.08 29.92 1590.08 42.3968 Q1590.08 54.833 1593.24 61.0714 Q1596.44 67.2693 1602.76 67.2693 Q1609.12 67.2693 1612.28 61.0714 Q1615.48 54.833 1615.48 42.3968 Q1615.48 29.92 1612.28 23.7221 Q1609.12 17.4837 1602.76 17.4837 M1602.76 11.0023 Q1612.93 11.0023 1618.28 19.0636 Q1623.67 27.0843 1623.67 42.3968 Q1623.67 57.6687 1618.28 65.73 Q1612.93 73.7508 1602.76 73.7508 Q1592.59 73.7508 1587.21 65.73 Q1581.86 57.6687 1581.86 42.3968 Q1581.86 27.0843 1587.21 19.0636 Q1592.59 11.0023 1602.76 11.0023 Z" fill="#000000" fill-rule="evenodd" fill-opacity="1" /><path clip-path="url(#clip630)" d="M1655.55 17.4837 Q1649.23 17.4837 1646.03 23.7221 Q1642.87 29.92 1642.87 42.3968 Q1642.87 54.833 1646.03 61.0714 Q1649.23 67.2693 1655.55 67.2693 Q1661.91 67.2693 1665.07 61.0714 Q1668.27 54.833 1668.27 42.3968 Q1668.27 29.92 1665.07 23.7221 Q1661.91 17.4837 1655.55 17.4837 M1655.55 11.0023 Q1665.71 11.0023 1671.06 19.0636 Q1676.45 27.0843 1676.45 42.3968 Q1676.45 57.6687 1671.06 65.73 Q1665.71 73.7508 1655.55 73.7508 Q1645.38 73.7508 1639.99 65.73 Q1634.64 57.6687 1634.64 42.3968 Q1634.64 27.0843 1639.99 19.0636 Q1645.38 11.0023 1655.55 11.0023 Z" fill="#000000" fill-rule="evenodd" fill-opacity="1" /><polyline clip-path="url(#clip632)" style="stroke:#009af9; stroke-linecap:round; stroke-linejoin:round; stroke-width:4; stroke-opacity:1; fill:none" points="247.59,1386.33 249.253,1378.47 250.916,1359.96 252.579,1335.38 254.243,1310.08 255.074,1298.59 255.906,1288.39 256.738,1279.62 257.569,1272.29 258.401,1266.24 259.233,1261.21 260.064,1256.88 260.896,1252.88 262.819,1243.26 264.741,1231.39 266.664,1217.47 268.586,1203.51 270.509,1191.54 272.431,1182.16 274.353,1174.31 276.276,1166.22 280.121,1146.25 283.966,1126.5 287.811,1111.7 291.656,1096.09 299.346,1063.41 307.036,1034.41 314.725,1006.85 322.415,978.817 330.105,954.017 337.795,927.935 345.485,904.185 353.175,880.561 368.555,835.861 383.935,793.595 393.177,769.52 402.42,746.211 411.663,724.193 420.905,703.09 430.148,682.666 439.391,663.192 448.633,644.707 457.876,626.996 473.505,598.787 489.134,572.671 504.763,548.594 520.392,526.37 537.37,503.981 554.347,483.191 571.325,464.076 588.302,446.317 603.954,430.934 619.606,416.514 635.258,403.04 650.909,390.415 667.69,377.692 684.47,365.775 701.25,354.691 718.031,344.316 756.914,322.766 795.798,304.199 830.353,289.747 864.908,276.857 895.209,266.773 925.511,257.643 991.585,240.69 1058.05,226.87 1131.54,214.392 1201.46,204.874 1274.16,196.955 1335.36,191.319 1410.08,185.953 1478.52,184.345 1494.33,185.036 1510.13,186.486 1514.08,187.045 1518.03,188.793 1521.98,189.862 1525.94,191.331 1527.91,194.531 1529.89,200.448 1531.86,208.802 1533.84,218.288 1535.81,227.115 1537.79,233.856 1539.76,238.119 1541.74,240.646 1549.74,254.147 1557.75,266.76 1565.75,281.404 1573.76,293.673 1589.77,322.02 1605.77,351.112 1641.66,417.794 1677.54,484.629 1693.8,513.578 1710.06,541.097 1726.31,566.562 1742.57,589.863 1751.88,602.326 1761.18,613.938 1770.49,624.652 1779.8,634.657 1789.11,643.954 1798.41,652.36 1807.72,659.941 1817.03,666.907 1834.26,677.777 1851.5,686.507 1868.73,692.988 1885.97,697.563 1902.96,700.569 1919.95,701.999 1936.94,702.046 1953.93,701.04 1970.43,699.038 1986.93,696.077 2003.43,692.377 2019.92,688.032 2053.75,677.231 2087.57,664.719 2124.63,649.693 2161.69,633.831 2215.52,610.07 2269.35,585.99 2280.4,581.083 2291.44,576.189 "/>
<polyline clip-path="url(#clip632)" style="stroke:#e26f46; stroke-linecap:round; stroke-linejoin:round; stroke-width:4; stroke-opacity:1; fill:none" points="247.59,1386.4 249.253,1383.74 250.916,1377.24 252.579,1367.86 254.243,1356.88 255.906,1345.54 257.569,1334.81 258.401,1329.86 259.233,1325.21 260.064,1320.87 260.896,1316.81 264.741,1300.43 268.586,1285.38 272.431,1271.04 276.276,1258.16 283.966,1234.65 291.656,1213.26 299.346,1193.36 307.036,1174.83 314.725,1157.14 322.415,1140.32 337.795,1108.54 353.175,1078.83 368.555,1050.78 383.935,1024.15 402.42,993.793 420.905,965.09 439.391,937.916 457.876,912.176 473.505,891.476 489.134,871.699 504.763,852.802 520.392,834.743 537.37,816.023 554.347,798.183 571.325,781.168 588.302,764.929 619.606,736.853 650.909,710.97 684.47,685.389 718.031,661.816 756.914,636.743 795.798,613.808 830.353,595.018 864.908,577.569 895.209,563.263 925.511,549.807 958.548,536.023 991.585,523.087 1024.82,510.858 1058.05,499.349 1094.79,487.39 1131.54,476.165 1166.5,466.11 1201.46,456.618 1274.16,438.504 1335.36,424.754 1410.08,409.568 1478.52,397.07 1510.13,391.764 1541.74,387.151 1573.76,384.255 1605.77,382.791 1641.66,382.825 1677.54,384.55 1710.06,387.414 1742.57,391.301 1817.03,402.747 1885.97,414.624 1953.93,426.033 2019.92,436.068 2087.57,444.923 2161.69,452.845 2269.35,461.213 2291.44,462.508 "/>
<polyline clip-path="url(#clip632)" style="stroke:#3da44d; stroke-linecap:round; stroke-linejoin:round; stroke-width:4; stroke-opacity:1; fill:none" points="-1980.21,450.808 4519.24,450.808 "/>
<polyline clip-path="url(#clip632)" style="stroke:#3da44d; stroke-linecap:round; stroke-linejoin:round; stroke-width:4; stroke-opacity:1; fill:none" points="-1980.21,450.808 4519.24,450.808 "/>
<polyline clip-path="url(#clip632)" style="stroke:#3da44d; stroke-linecap:round; stroke-linejoin:round; stroke-width:4; stroke-opacity:1; fill:none" points="-1980.21,450.808 4519.24,450.808 "/>
<polyline clip-path="url(#clip632)" style="stroke:#3da44d; stroke-linecap:round; stroke-linejoin:round; stroke-width:4; stroke-opacity:1; fill:none" points="-1980.21,450.808 4519.24,450.808 "/>
<polyline clip-path="url(#clip632)" style="stroke:#3da44d; stroke-linecap:round; stroke-linejoin:round; stroke-width:4; stroke-opacity:1; fill:none" points="-1980.21,450.808 4519.24,450.808 "/>
<polyline clip-path="url(#clip632)" style="stroke:#3da44d; stroke-linecap:round; stroke-linejoin:round; stroke-width:4; stroke-opacity:1; fill:none" points="-1980.21,450.808 4519.24,450.808 "/>
<polyline clip-path="url(#clip632)" style="stroke:#3da44d; stroke-linecap:round; stroke-linejoin:round; stroke-width:4; stroke-opacity:1; fill:none" points="-1980.21,450.808 4519.24,450.808 "/>
<polyline clip-path="url(#clip632)" style="stroke:#3da44d; stroke-linecap:round; stroke-linejoin:round; stroke-width:4; stroke-opacity:1; fill:none" points="-1980.21,450.808 4519.24,450.808 "/>
<polyline clip-path="url(#clip632)" style="stroke:#3da44d; stroke-linecap:round; stroke-linejoin:round; stroke-width:4; stroke-opacity:1; fill:none" points="-1980.21,450.808 4519.24,450.808 "/>
<polyline clip-path="url(#clip632)" style="stroke:#3da44d; stroke-linecap:round; stroke-linejoin:round; stroke-width:4; stroke-opacity:1; fill:none" points="-1980.21,450.808 4519.24,450.808 "/>
<polyline clip-path="url(#clip632)" style="stroke:#3da44d; stroke-linecap:round; stroke-linejoin:round; stroke-width:4; stroke-opacity:1; fill:none" points="-1980.21,450.808 4519.24,450.808 "/>
<polyline clip-path="url(#clip632)" style="stroke:#3da44d; stroke-linecap:round; stroke-linejoin:round; stroke-width:4; stroke-opacity:1; fill:none" points="-1980.21,450.808 4519.24,450.808 "/>
<polyline clip-path="url(#clip632)" style="stroke:#3da44d; stroke-linecap:round; stroke-linejoin:round; stroke-width:4; stroke-opacity:1; fill:none" points="-1980.21,450.808 4519.24,450.808 "/>
<polyline clip-path="url(#clip632)" style="stroke:#3da44d; stroke-linecap:round; stroke-linejoin:round; stroke-width:4; stroke-opacity:1; fill:none" points="-1980.21,450.808 4519.24,450.808 "/>
<polyline clip-path="url(#clip632)" style="stroke:#3da44d; stroke-linecap:round; stroke-linejoin:round; stroke-width:4; stroke-opacity:1; fill:none" points="-1980.21,450.808 4519.24,450.808 "/>
<polyline clip-path="url(#clip632)" style="stroke:#3da44d; stroke-linecap:round; stroke-linejoin:round; stroke-width:4; stroke-opacity:1; fill:none" points="-1980.21,450.808 4519.24,450.808 "/>
<polyline clip-path="url(#clip632)" style="stroke:#3da44d; stroke-linecap:round; stroke-linejoin:round; stroke-width:4; stroke-opacity:1; fill:none" points="-1980.21,450.808 4519.24,450.808 "/>
<polyline clip-path="url(#clip632)" style="stroke:#3da44d; stroke-linecap:round; stroke-linejoin:round; stroke-width:4; stroke-opacity:1; fill:none" points="-1980.21,450.808 4519.24,450.808 "/>
<polyline clip-path="url(#clip632)" style="stroke:#3da44d; stroke-linecap:round; stroke-linejoin:round; stroke-width:4; stroke-opacity:1; fill:none" points="-1980.21,450.808 4519.24,450.808 "/>
<polyline clip-path="url(#clip632)" style="stroke:#3da44d; stroke-linecap:round; stroke-linejoin:round; stroke-width:4; stroke-opacity:1; fill:none" points="-1980.21,450.808 4519.24,450.808 "/>
<polyline clip-path="url(#clip632)" style="stroke:#3da44d; stroke-linecap:round; stroke-linejoin:round; stroke-width:4; stroke-opacity:1; fill:none" points="-1980.21,450.808 4519.24,450.808 "/>
<polyline clip-path="url(#clip632)" style="stroke:#3da44d; stroke-linecap:round; stroke-linejoin:round; stroke-width:4; stroke-opacity:1; fill:none" points="-1980.21,450.808 4519.24,450.808 "/>
<polyline clip-path="url(#clip632)" style="stroke:#3da44d; stroke-linecap:round; stroke-linejoin:round; stroke-width:4; stroke-opacity:1; fill:none" points="-1980.21,450.808 4519.24,450.808 "/>
<polyline clip-path="url(#clip632)" style="stroke:#3da44d; stroke-linecap:round; stroke-linejoin:round; stroke-width:4; stroke-opacity:1; fill:none" points="-1980.21,450.808 4519.24,450.808 "/>
<polyline clip-path="url(#clip632)" style="stroke:#3da44d; stroke-linecap:round; stroke-linejoin:round; stroke-width:4; stroke-opacity:1; fill:none" points="-1980.21,450.808 4519.24,450.808 "/>
<polyline clip-path="url(#clip632)" style="stroke:#3da44d; stroke-linecap:round; stroke-linejoin:round; stroke-width:4; stroke-opacity:1; fill:none" points="-1980.21,450.808 4519.24,450.808 "/>
<polyline clip-path="url(#clip632)" style="stroke:#3da44d; stroke-linecap:round; stroke-linejoin:round; stroke-width:4; stroke-opacity:1; fill:none" points="-1980.21,450.808 4519.24,450.808 "/>
<polyline clip-path="url(#clip632)" style="stroke:#3da44d; stroke-linecap:round; stroke-linejoin:round; stroke-width:4; stroke-opacity:1; fill:none" points="-1980.21,450.808 4519.24,450.808 "/>
<polyline clip-path="url(#clip632)" style="stroke:#3da44d; stroke-linecap:round; stroke-linejoin:round; stroke-width:4; stroke-opacity:1; fill:none" points="-1980.21,450.808 4519.24,450.808 "/>
<polyline clip-path="url(#clip632)" style="stroke:#3da44d; stroke-linecap:round; stroke-linejoin:round; stroke-width:4; stroke-opacity:1; fill:none" points="-1980.21,450.808 4519.24,450.808 "/>
<polyline clip-path="url(#clip632)" style="stroke:#3da44d; stroke-linecap:round; stroke-linejoin:round; stroke-width:4; stroke-opacity:1; fill:none" points="-1980.21,450.808 4519.24,450.808 "/>
<polyline clip-path="url(#clip632)" style="stroke:#c271d2; stroke-linecap:round; stroke-linejoin:round; stroke-width:4; stroke-opacity:1; fill:none" points="247.59,160.256 248.005,162.061 248.421,165.655 248.837,170.972 249.253,177.919 249.669,186.374 250.085,196.191 250.5,207.202 250.916,219.223 251.748,245.505 252.579,273.411 253.411,301.358 254.243,327.943 254.659,340.368 255.074,352.067 255.49,362.965 255.906,373.009 256.322,382.174 256.738,390.46 257.154,397.889 257.569,404.506 258.401,415.574 259.233,424.341 259.649,428.114 260.064,431.621 260.48,434.966 260.896,438.249 261.857,446.072 262.819,454.887 263.78,465.146 264.741,476.87 266.664,503.011 268.586,528.231 269.547,538.967 270.509,548.063 271.47,555.586 272.431,561.863 274.353,572.749 276.276,584.837 278.198,600.152 280.121,617.475 282.043,633.73 283.966,646.557 285.888,656.048 287.811,664.442 289.733,674.23 291.656,686.257 293.578,699.263 295.501,711.061 297.423,720.324 299.346,727.547 301.268,734.53 303.191,742.896 305.113,752.858 307.036,763.172 308.958,772.224 310.881,779.32 312.803,785.174 314.725,791.265 318.57,807.119 322.415,822.707 326.26,833.339 330.105,845.434 333.95,859.744 337.795,870.214 345.485,892.001 353.175,910.569 357.02,920.705 360.865,931.198 364.71,938.667 368.555,946.761 376.245,964.147 383.935,979.385 393.177,995.643 402.42,1012.64 411.663,1028.24 420.905,1041.44 439.391,1068.16 457.876,1090.36 473.505,1108.54 489.134,1125.25 504.763,1140.06 520.392,1153.48 537.37,1167.53 554.347,1180.81 571.325,1192.29 588.302,1203.32 619.606,1222.16 650.909,1238.03 684.47,1253.85 718.031,1267.36 756.914,1281.4 795.798,1293.78 864.908,1312.5 925.511,1326.05 991.585,1338.63 1058.05,1349.35 1131.54,1359.52 1201.46,1367.85 1274.16,1375.51 1335.36,1380.86 1372.72,1383.58 1410.08,1385.58 1427.19,1386.07 1444.3,1386.11 1461.41,1385.4 1478.52,1383.17 1486.43,1381.9 1494.33,1379.01 1502.23,1375.63 1510.13,1370.85 1514.08,1366.65 1518.03,1359.23 1520.01,1356.53 1521.98,1354.68 1522.97,1353.52 1523.96,1351.68 1524.95,1348.7 1525.94,1344.15 1526.92,1337.69 1527.91,1329.11 1528.9,1318.47 1529.89,1306 1531.86,1277.71 1533.84,1249.83 1534.83,1237.93 1535.81,1228.14 1536.8,1220.76 1537.79,1215.82 1538.78,1213.08 1539.76,1212.06 1540.75,1212.18 1541.74,1212.78 1543.74,1213.1 1545.74,1209.98 1547.74,1203.63 1549.74,1196.64 1551.74,1191.71 1553.75,1189.69 1555.75,1189.24 1557.75,1188.08 1559.75,1184.85 1561.75,1180 1563.75,1175.24 1565.75,1172.12 1569.75,1169.98 1573.76,1164.9 1581.76,1154.14 1589.77,1144.15 1593.77,1140.11 1597.77,1137.85 1601.77,1132.34 1605.77,1127.65 1623.72,1113.48 1641.66,1098.09 1659.6,1086.2 1677.54,1076.51 1693.8,1067.44 1710.06,1060.31 1726.31,1055.18 1742.57,1050.29 1779.8,1042.13 1817.03,1037.53 1851.5,1035.61 1885.97,1037.01 1919.95,1039.62 1953.93,1043.24 1986.93,1048.86 2019.92,1054.18 2087.57,1068.59 2161.69,1085.58 2269.35,1112.49 2291.44,1117.54 "/>
<path clip-path="url(#clip630)" d="M1813.1 1379.86 L2280.54 1379.86 L2280.54 1079.08 L1813.1 1079.08  Z" fill="#ffffff" fill-rule="evenodd" fill-opacity="1"/>
<polyline clip-path="url(#clip630)" style="stroke:#000000; stroke-linecap:round; stroke-linejoin:round; stroke-width:4; stroke-opacity:1; fill:none" points="1813.1,1379.86 2280.54,1379.86 2280.54,1079.08 1813.1,1079.08 1813.1,1379.86 "/>
<polyline clip-path="url(#clip630)" style="stroke:#009af9; stroke-linecap:round; stroke-linejoin:round; stroke-width:4; stroke-opacity:1; fill:none" points="1837.17,1139.24 1981.6,1139.24 "/>
<path clip-path="url(#clip630)" d="M2016.52 1162.14 Q2016.52 1162.54 2016.24 1162.82 Q2015.95 1163.1 2015.56 1163.1 Q2014.88 1163.1 2014.64 1162.47 L2005.72 1139.45 Q2005.67 1139.35 2005.67 1139.12 Q2005.67 1138.88 2005.72 1138.79 L2014.64 1115.77 Q2014.88 1115.13 2015.56 1115.13 Q2015.95 1115.13 2016.24 1115.42 Q2016.52 1115.7 2016.52 1116.09 Q2016.52 1116.33 2016.47 1116.42 L2007.64 1139.12 L2016.47 1161.82 Q2016.52 1161.91 2016.52 1162.14 Z" fill="#000000" fill-rule="evenodd" fill-opacity="1" /><path clip-path="url(#clip630)" d="M2063.44 1144.25 Q2063.44 1144.44 2063.23 1145.16 Q2063.01 1145.89 2062.5 1147.01 Q2062.01 1148.14 2061.3 1149.17 Q2060.63 1150.17 2059.5 1150.92 Q2058.4 1151.65 2057.14 1151.65 Q2055.45 1151.65 2054.33 1150.53 Q2053.2 1149.4 2053.2 1147.71 Q2053.2 1146.8 2053.83 1145.07 Q2056.81 1137.15 2056.81 1134.32 Q2056.81 1130.97 2054.21 1130.97 Q2052.73 1130.97 2051.4 1131.58 Q2050.06 1132.19 2049.2 1133.03 Q2048.33 1133.87 2047.65 1134.83 Q2046.97 1135.79 2046.67 1136.43 Q2046.38 1137.06 2046.31 1137.34 L2043.43 1148.91 Q2043.2 1149.89 2043.04 1150.36 Q2042.87 1150.83 2042.43 1151.23 Q2041.98 1151.65 2041.28 1151.65 Q2040.69 1151.65 2040.27 1151.3 Q2039.87 1150.95 2039.87 1150.34 Q2039.87 1150.24 2039.99 1149.75 Q2040.11 1149.26 2040.27 1148.58 Q2040.44 1147.9 2040.51 1147.5 Q2041.35 1144.32 2041.47 1143.87 L2042.8 1138.3 Q2043.53 1135.54 2043.53 1134.32 Q2043.53 1130.97 2040.93 1130.97 Q2039.64 1130.97 2038.42 1131.46 Q2037.23 1131.93 2036.41 1132.58 Q2035.59 1133.24 2034.84 1134.15 Q2034.11 1135.04 2033.74 1135.65 Q2033.39 1136.24 2033.1 1136.82 L2032.5 1139.21 Q2032.35 1139.87 2031.68 1142.42 L2030.62 1146.75 Q2029.87 1149.99 2029.71 1150.29 Q2029.47 1150.95 2028.96 1151.3 Q2028.44 1151.65 2027.93 1151.65 Q2027.34 1151.65 2026.94 1151.3 Q2026.55 1150.95 2026.55 1150.34 Q2026.55 1150.24 2026.62 1149.89 Q2026.69 1149.54 2026.8 1149.05 Q2026.92 1148.56 2026.97 1148.28 L2029.75 1137.2 Q2030.27 1135.18 2030.39 1134.55 Q2030.53 1133.9 2030.53 1133.17 Q2030.53 1130.97 2029.03 1130.97 Q2027.81 1130.97 2027.01 1132.42 Q2026.22 1133.87 2025.54 1136.68 Q2025.33 1137.46 2025.19 1137.62 Q2025.07 1137.78 2024.72 1137.78 Q2024.13 1137.76 2024.13 1137.29 Q2024.13 1137.17 2024.32 1136.43 Q2024.51 1135.68 2024.86 1134.55 Q2025.23 1133.4 2025.63 1132.65 Q2025.87 1132.16 2026.08 1131.83 Q2026.29 1131.51 2026.71 1130.99 Q2027.13 1130.48 2027.76 1130.2 Q2028.4 1129.91 2029.17 1129.91 Q2030.88 1129.91 2032.14 1131.01 Q2033.43 1132.12 2033.6 1134.08 Q2036.71 1129.91 2041.07 1129.91 Q2043.53 1129.91 2045 1131.16 Q2046.38 1132.35 2046.55 1134.55 Q2049.78 1129.91 2054.37 1129.91 Q2057.02 1129.91 2058.45 1131.3 Q2059.88 1132.65 2059.88 1135.04 Q2059.88 1136.28 2059.24 1138.65 Q2058.61 1140.99 2058.19 1142.16 Q2057.77 1143.34 2056.95 1145.58 Q2056.08 1147.74 2056.08 1149 Q2056.08 1149.82 2056.36 1150.2 Q2056.64 1150.57 2057.25 1150.57 Q2058.19 1150.57 2059.01 1150.03 Q2059.83 1149.47 2060.41 1148.56 Q2061.02 1147.62 2061.42 1146.68 Q2061.82 1145.72 2062.12 1144.65 Q2062.31 1144.06 2062.41 1143.92 Q2062.52 1143.78 2062.85 1143.78 Q2063.44 1143.78 2063.44 1144.25 Z" fill="#000000" fill-rule="evenodd" fill-opacity="1" /><path clip-path="url(#clip630)" d="M2076.61 1138.79 Q2076.66 1138.88 2076.66 1139.12 Q2076.66 1139.35 2076.61 1139.45 L2067.69 1162.47 Q2067.45 1163.1 2066.8 1163.1 Q2066.4 1163.1 2066.12 1162.82 Q2065.84 1162.54 2065.84 1162.14 Q2065.84 1161.91 2065.88 1161.82 L2074.69 1139.12 L2065.88 1116.42 Q2065.84 1116.33 2065.84 1116.09 Q2065.84 1115.7 2066.12 1115.42 Q2066.4 1115.13 2066.8 1115.13 Q2067.45 1115.13 2067.69 1115.77 L2076.61 1138.79 Z" fill="#000000" fill-rule="evenodd" fill-opacity="1" /><polyline clip-path="url(#clip630)" style="stroke:#e26f46; stroke-linecap:round; stroke-linejoin:round; stroke-width:4; stroke-opacity:1; fill:none" points="1837.17,1199.39 1981.6,1199.39 "/>
<path clip-path="url(#clip630)" d="M2005.67 1173.13 L2084.3 1173.13 L2084.3 1170.57 L2005.67 1170.57  Z" fill="#000000" fill-rule="evenodd" fill-opacity="1"/>
<path clip-path="url(#clip630)" d="M2016.52 1227.79 Q2016.52 1228.19 2016.24 1228.47 Q2015.95 1228.75 2015.56 1228.75 Q2014.88 1228.75 2014.64 1228.12 L2005.72 1205.09 Q2005.67 1205 2005.67 1204.77 Q2005.67 1204.53 2005.72 1204.44 L2014.64 1181.41 Q2014.88 1180.78 2015.56 1180.78 Q2015.95 1180.78 2016.24 1181.06 Q2016.52 1181.34 2016.52 1181.74 Q2016.52 1181.98 2016.47 1182.07 L2007.64 1204.77 L2016.47 1227.46 Q2016.52 1227.56 2016.52 1227.79 Z" fill="#000000" fill-rule="evenodd" fill-opacity="1" /><path clip-path="url(#clip630)" d="M2063.44 1209.89 Q2063.44 1210.08 2063.23 1210.81 Q2063.01 1211.53 2062.5 1212.66 Q2062.01 1213.78 2061.3 1214.81 Q2060.63 1215.82 2059.5 1216.57 Q2058.4 1217.3 2057.14 1217.3 Q2055.45 1217.3 2054.33 1216.17 Q2053.2 1215.05 2053.2 1213.36 Q2053.2 1212.45 2053.83 1210.71 Q2056.81 1202.8 2056.81 1199.96 Q2056.81 1196.61 2054.21 1196.61 Q2052.73 1196.61 2051.4 1197.22 Q2050.06 1197.83 2049.2 1198.68 Q2048.33 1199.52 2047.65 1200.48 Q2046.97 1201.44 2046.67 1202.07 Q2046.38 1202.7 2046.31 1202.99 L2043.43 1214.56 Q2043.2 1215.54 2043.04 1216.01 Q2042.87 1216.48 2042.43 1216.87 Q2041.98 1217.3 2041.28 1217.3 Q2040.69 1217.3 2040.27 1216.94 Q2039.87 1216.59 2039.87 1215.98 Q2039.87 1215.89 2039.99 1215.4 Q2040.11 1214.91 2040.27 1214.23 Q2040.44 1213.55 2040.51 1213.15 Q2041.35 1209.96 2041.47 1209.52 L2042.8 1203.95 Q2043.53 1201.18 2043.53 1199.96 Q2043.53 1196.61 2040.93 1196.61 Q2039.64 1196.61 2038.42 1197.11 Q2037.23 1197.57 2036.41 1198.23 Q2035.59 1198.89 2034.84 1199.8 Q2034.11 1200.69 2033.74 1201.3 Q2033.39 1201.88 2033.1 1202.47 L2032.5 1204.86 Q2032.35 1205.51 2031.68 1208.07 L2030.62 1212.4 Q2029.87 1215.63 2029.71 1215.94 Q2029.47 1216.59 2028.96 1216.94 Q2028.44 1217.3 2027.93 1217.3 Q2027.34 1217.3 2026.94 1216.94 Q2026.55 1216.59 2026.55 1215.98 Q2026.55 1215.89 2026.62 1215.54 Q2026.69 1215.19 2026.8 1214.7 Q2026.92 1214.2 2026.97 1213.92 L2029.75 1202.84 Q2030.27 1200.83 2030.39 1200.2 Q2030.53 1199.54 2030.53 1198.82 Q2030.53 1196.61 2029.03 1196.61 Q2027.81 1196.61 2027.01 1198.07 Q2026.22 1199.52 2025.54 1202.33 Q2025.33 1203.1 2025.19 1203.27 Q2025.07 1203.43 2024.72 1203.43 Q2024.13 1203.41 2024.13 1202.94 Q2024.13 1202.82 2024.32 1202.07 Q2024.51 1201.32 2024.86 1200.2 Q2025.23 1199.05 2025.63 1198.3 Q2025.87 1197.81 2026.08 1197.48 Q2026.29 1197.15 2026.71 1196.64 Q2027.13 1196.12 2027.76 1195.84 Q2028.4 1195.56 2029.17 1195.56 Q2030.88 1195.56 2032.14 1196.66 Q2033.43 1197.76 2033.6 1199.73 Q2036.71 1195.56 2041.07 1195.56 Q2043.53 1195.56 2045 1196.8 Q2046.38 1198 2046.55 1200.2 Q2049.78 1195.56 2054.37 1195.56 Q2057.02 1195.56 2058.45 1196.94 Q2059.88 1198.3 2059.88 1200.69 Q2059.88 1201.93 2059.24 1204.3 Q2058.61 1206.64 2058.19 1207.81 Q2057.77 1208.98 2056.95 1211.23 Q2056.08 1213.38 2056.08 1214.65 Q2056.08 1215.47 2056.36 1215.84 Q2056.64 1216.22 2057.25 1216.22 Q2058.19 1216.22 2059.01 1215.68 Q2059.83 1215.12 2060.41 1214.2 Q2061.02 1213.27 2061.42 1212.33 Q2061.82 1211.37 2062.12 1210.29 Q2062.31 1209.71 2062.41 1209.57 Q2062.52 1209.43 2062.85 1209.43 Q2063.44 1209.43 2063.44 1209.89 Z" fill="#000000" fill-rule="evenodd" fill-opacity="1" /><path clip-path="url(#clip630)" d="M2076.61 1204.44 Q2076.66 1204.53 2076.66 1204.77 Q2076.66 1205 2076.61 1205.09 L2067.69 1228.12 Q2067.45 1228.75 2066.8 1228.75 Q2066.4 1228.75 2066.12 1228.47 Q2065.84 1228.19 2065.84 1227.79 Q2065.84 1227.56 2065.88 1227.46 L2074.69 1204.77 L2065.88 1182.07 Q2065.84 1181.98 2065.84 1181.74 Q2065.84 1181.34 2066.12 1181.06 Q2066.4 1180.78 2066.8 1180.78 Q2067.45 1180.78 2067.69 1181.41 L2076.61 1204.44 Z" fill="#000000" fill-rule="evenodd" fill-opacity="1" /><polyline clip-path="url(#clip630)" style="stroke:#3da44d; stroke-linecap:round; stroke-linejoin:round; stroke-width:4; stroke-opacity:1; fill:none" points="1837.17,1259.55 1981.6,1259.55 "/>
<path clip-path="url(#clip630)" d="M2005.67 1233.29 L2084.3 1233.29 L2084.3 1230.73 L2005.67 1230.73  Z" fill="#000000" fill-rule="evenodd" fill-opacity="1"/>
<path clip-path="url(#clip630)" d="M2016.52 1287.94 Q2016.52 1288.34 2016.24 1288.62 Q2015.95 1288.9 2015.56 1288.9 Q2014.88 1288.9 2014.64 1288.27 L2005.72 1265.25 Q2005.67 1265.15 2005.67 1264.92 Q2005.67 1264.69 2005.72 1264.59 L2014.64 1241.57 Q2014.88 1240.94 2015.56 1240.94 Q2015.95 1240.94 2016.24 1241.22 Q2016.52 1241.5 2016.52 1241.9 Q2016.52 1242.13 2016.47 1242.22 L2007.64 1264.92 L2016.47 1287.62 Q2016.52 1287.71 2016.52 1287.94 Z" fill="#000000" fill-rule="evenodd" fill-opacity="1" /><path clip-path="url(#clip630)" d="M2063.44 1270.05 Q2063.44 1270.24 2063.23 1270.96 Q2063.01 1271.69 2062.5 1272.81 Q2062.01 1273.94 2061.3 1274.97 Q2060.63 1275.98 2059.5 1276.73 Q2058.4 1277.45 2057.14 1277.45 Q2055.45 1277.45 2054.33 1276.33 Q2053.2 1275.2 2053.2 1273.52 Q2053.2 1272.6 2053.83 1270.87 Q2056.81 1262.95 2056.81 1260.12 Q2056.81 1256.77 2054.21 1256.77 Q2052.73 1256.77 2051.4 1257.38 Q2050.06 1257.99 2049.2 1258.83 Q2048.33 1259.67 2047.65 1260.63 Q2046.97 1261.59 2046.67 1262.23 Q2046.38 1262.86 2046.31 1263.14 L2043.43 1274.71 Q2043.2 1275.69 2043.04 1276.16 Q2042.87 1276.63 2042.43 1277.03 Q2041.98 1277.45 2041.28 1277.45 Q2040.69 1277.45 2040.27 1277.1 Q2039.87 1276.75 2039.87 1276.14 Q2039.87 1276.05 2039.99 1275.55 Q2040.11 1275.06 2040.27 1274.38 Q2040.44 1273.7 2040.51 1273.31 Q2041.35 1270.12 2041.47 1269.67 L2042.8 1264.1 Q2043.53 1261.34 2043.53 1260.12 Q2043.53 1256.77 2040.93 1256.77 Q2039.64 1256.77 2038.42 1257.26 Q2037.23 1257.73 2036.41 1258.39 Q2035.59 1259.04 2034.84 1259.95 Q2034.11 1260.84 2033.74 1261.45 Q2033.39 1262.04 2033.1 1262.62 L2032.5 1265.01 Q2032.35 1265.67 2031.68 1268.22 L2030.62 1272.56 Q2029.87 1275.79 2029.71 1276.09 Q2029.47 1276.75 2028.96 1277.1 Q2028.44 1277.45 2027.93 1277.45 Q2027.34 1277.45 2026.94 1277.1 Q2026.55 1276.75 2026.55 1276.14 Q2026.55 1276.05 2026.62 1275.69 Q2026.69 1275.34 2026.8 1274.85 Q2026.92 1274.36 2026.97 1274.08 L2029.75 1263 Q2030.27 1260.99 2030.39 1260.35 Q2030.53 1259.7 2030.53 1258.97 Q2030.53 1256.77 2029.03 1256.77 Q2027.81 1256.77 2027.01 1258.22 Q2026.22 1259.67 2025.54 1262.48 Q2025.33 1263.26 2025.19 1263.42 Q2025.07 1263.59 2024.72 1263.59 Q2024.13 1263.56 2024.13 1263.09 Q2024.13 1262.98 2024.32 1262.23 Q2024.51 1261.48 2024.86 1260.35 Q2025.23 1259.21 2025.63 1258.46 Q2025.87 1257.96 2026.08 1257.64 Q2026.29 1257.31 2026.71 1256.79 Q2027.13 1256.28 2027.76 1256 Q2028.4 1255.72 2029.17 1255.72 Q2030.88 1255.72 2032.14 1256.82 Q2033.43 1257.92 2033.6 1259.88 Q2036.71 1255.72 2041.07 1255.72 Q2043.53 1255.72 2045 1256.96 Q2046.38 1258.15 2046.55 1260.35 Q2049.78 1255.72 2054.37 1255.72 Q2057.02 1255.72 2058.45 1257.1 Q2059.88 1258.46 2059.88 1260.84 Q2059.88 1262.09 2059.24 1264.45 Q2058.61 1266.79 2058.19 1267.97 Q2057.77 1269.14 2056.95 1271.38 Q2056.08 1273.54 2056.08 1274.8 Q2056.08 1275.62 2056.36 1276 Q2056.64 1276.37 2057.25 1276.37 Q2058.19 1276.37 2059.01 1275.84 Q2059.83 1275.27 2060.41 1274.36 Q2061.02 1273.42 2061.42 1272.49 Q2061.82 1271.53 2062.12 1270.45 Q2062.31 1269.86 2062.41 1269.72 Q2062.52 1269.58 2062.85 1269.58 Q2063.44 1269.58 2063.44 1270.05 Z" fill="#000000" fill-rule="evenodd" fill-opacity="1" /><path clip-path="url(#clip630)" d="M2076.61 1264.59 Q2076.66 1264.69 2076.66 1264.92 Q2076.66 1265.15 2076.61 1265.25 L2067.69 1288.27 Q2067.45 1288.9 2066.8 1288.9 Q2066.4 1288.9 2066.12 1288.62 Q2065.84 1288.34 2065.84 1287.94 Q2065.84 1287.71 2065.88 1287.62 L2074.69 1264.92 L2065.88 1242.22 Q2065.84 1242.13 2065.84 1241.9 Q2065.84 1241.5 2066.12 1241.22 Q2066.4 1240.94 2066.8 1240.94 Q2067.45 1240.94 2067.69 1241.57 L2076.61 1264.59 Z" fill="#000000" fill-rule="evenodd" fill-opacity="1" /><path clip-path="url(#clip630)" d="M2084.3 1264.5 Q2084.3 1256.39 2087.32 1249.86 Q2088.61 1247.12 2090.41 1244.82 Q2092.21 1242.53 2093.41 1241.52 Q2094.6 1240.51 2094.93 1240.51 Q2095.4 1240.51 2095.42 1240.98 Q2095.42 1241.22 2094.79 1241.8 Q2087.06 1249.67 2087.08 1264.5 Q2087.08 1279.37 2094.6 1286.94 Q2095.42 1287.76 2095.42 1288.01 Q2095.42 1288.48 2094.93 1288.48 Q2094.6 1288.48 2093.46 1287.52 Q2092.31 1286.56 2090.53 1284.36 Q2088.75 1282.16 2087.46 1279.46 Q2084.3 1272.93 2084.3 1264.5 Z" fill="#000000" fill-rule="evenodd" fill-opacity="1" /><path clip-path="url(#clip630)" d="M2131.69 1244.54 Q2131.69 1244.99 2131.6 1245.36 L2130.29 1253.7 Q2130.22 1254.33 2130.08 1254.57 Q2129.96 1254.8 2129.58 1254.8 Q2129 1254.8 2129 1254.19 Q2129 1253.84 2129.14 1253.28 Q2129.54 1250.63 2129.54 1249.44 Q2129.54 1248.64 2129.37 1248.06 Q2129.23 1247.45 2129 1247.02 Q2128.79 1246.6 2128.3 1246.32 Q2127.8 1246.04 2127.34 1245.88 Q2126.87 1245.71 2126.02 1245.64 Q2125.18 1245.55 2124.45 1245.53 Q2123.73 1245.5 2122.53 1245.5 Q2119.93 1245.5 2119.51 1245.6 Q2119.07 1245.71 2118.83 1246.06 Q2118.62 1246.39 2118.39 1247.38 L2112.02 1272.84 L2111.83 1273.84 Q2111.83 1274.41 2112.18 1274.59 Q2112.53 1274.78 2113.61 1274.9 Q2115.16 1275.01 2116.68 1275.01 Q2116.73 1275.01 2116.82 1275.01 Q2117.33 1275.01 2117.54 1275.04 Q2117.76 1275.04 2117.97 1275.08 Q2118.18 1275.13 2118.22 1275.25 Q2118.29 1275.34 2118.29 1275.53 Q2118.29 1275.97 2118.11 1276.21 Q2117.92 1276.42 2117.73 1276.47 Q2117.57 1276.49 2117.24 1276.49 Q2116.58 1276.49 2115.18 1276.44 Q2113.77 1276.4 2113.07 1276.4 L2109.09 1276.35 L2105.01 1276.4 Q2104.38 1276.4 2103.05 1276.44 Q2101.71 1276.49 2101.08 1276.49 Q2100.26 1276.49 2100.26 1275.9 Q2100.26 1275.25 2100.56 1275.13 Q2100.89 1275.01 2102.27 1275.01 Q2104.22 1275.01 2105.27 1274.92 Q2106.33 1274.83 2106.89 1274.5 Q2107.47 1274.17 2107.64 1273.84 Q2107.8 1273.49 2107.99 1272.7 L2114.43 1247.09 Q2114.62 1246.53 2114.62 1246.09 Q2114.62 1245.85 2114.55 1245.76 Q2114.5 1245.67 2114.2 1245.6 Q2113.89 1245.5 2113.26 1245.5 L2111.38 1245.5 Q2109.46 1245.5 2108.27 1245.6 Q2107.1 1245.67 2105.97 1246.02 Q2104.87 1246.37 2104.22 1246.86 Q2103.59 1247.35 2102.88 1248.36 Q2102.18 1249.37 2101.66 1250.58 Q2101.17 1251.8 2100.47 1253.79 Q2100.24 1254.45 2100.1 1254.64 Q2099.98 1254.8 2099.65 1254.8 Q2099.42 1254.8 2099.23 1254.66 Q2099.06 1254.5 2099.06 1254.29 Q2099.3 1253.51 2099.35 1253.42 L2102.23 1244.96 Q2102.46 1244.28 2102.67 1244.17 Q2102.91 1244.03 2103.77 1244.03 L2130.38 1244.03 Q2130.8 1244.03 2130.94 1244.03 Q2131.08 1244.03 2131.32 1244.07 Q2131.55 1244.12 2131.62 1244.24 Q2131.69 1244.35 2131.69 1244.54 Z" fill="#000000" fill-rule="evenodd" fill-opacity="1" /><path clip-path="url(#clip630)" d="M2140.11 1269.21 Q2140.16 1268.62 2141.07 1268.62 L2170.46 1268.62 Q2171.85 1268.62 2171.87 1269.16 Q2171.87 1269.74 2170.56 1269.72 L2141.4 1269.72 Q2140.11 1269.74 2140.11 1269.21 M2140.11 1259.84 Q2140.11 1259.25 2141.12 1259.27 L2170.42 1259.27 Q2171.85 1259.27 2171.87 1259.84 Q2171.87 1260.38 2170.65 1260.38 L2141.07 1260.38 Q2140.11 1260.38 2140.11 1259.84 Z" fill="#000000" fill-rule="evenodd" fill-opacity="1" /><path clip-path="url(#clip630)" d="M2232.9 1266.14 Q2232.9 1268.99 2231.77 1271.48 Q2230.67 1273.94 2228.52 1275.48 Q2226.38 1277.03 2223.69 1277.03 Q2219.52 1277.03 2215.54 1273.7 Q2214.74 1273.02 2214.18 1272.39 Q2213.62 1271.76 2211.23 1268.85 Q2210.83 1269.53 2210.41 1270.17 Q2209.99 1270.77 2208.79 1272.16 Q2207.6 1273.54 2206.36 1274.5 Q2205.14 1275.46 2203.24 1276.26 Q2201.37 1277.03 2199.42 1277.03 Q2197.36 1277.03 2195.61 1276.09 Q2193.87 1275.13 2192.73 1273.61 Q2191.6 1272.06 2190.97 1270.14 Q2190.36 1268.2 2190.36 1266.18 Q2190.36 1263.33 2191.46 1260.87 Q2192.59 1258.38 2194.72 1256.84 Q2196.87 1255.29 2199.57 1255.29 Q2203.76 1255.29 2207.72 1258.6 Q2208.51 1259.27 2209.07 1259.91 Q2209.64 1260.54 2212.03 1263.44 Q2212.33 1262.93 2212.66 1262.46 Q2212.99 1261.97 2213.81 1260.89 Q2214.63 1259.81 2215.59 1258.95 Q2216.57 1258.08 2217.81 1257.19 Q2219.05 1256.3 2220.62 1255.81 Q2222.19 1255.29 2223.83 1255.29 Q2225.89 1255.29 2227.63 1256.25 Q2229.38 1257.19 2230.51 1258.74 Q2231.65 1260.26 2232.26 1262.2 Q2232.9 1264.12 2232.9 1266.14 M2231.84 1266.14 Q2231.84 1264.47 2231.35 1262.86 Q2230.86 1261.24 2229.92 1259.88 Q2229.01 1258.5 2227.51 1257.66 Q2226.01 1256.82 2224.18 1256.82 Q2222.26 1256.82 2220.48 1257.63 Q2218.72 1258.43 2217.34 1259.79 Q2215.98 1261.15 2215.05 1262.41 Q2214.11 1263.68 2213.29 1265.13 Q2213.71 1265.65 2215.52 1268.03 Q2217.34 1270.42 2218.12 1271.27 Q2221.28 1274.71 2224.46 1274.71 Q2227.51 1274.71 2229.66 1272.23 Q2231.84 1269.72 2231.84 1266.14 M2209.96 1267.19 Q2209.57 1266.7 2207.72 1264.31 Q2205.89 1261.9 2205.12 1261.05 Q2201.93 1257.59 2198.79 1257.59 Q2195.75 1257.59 2193.57 1260.09 Q2191.41 1262.6 2191.41 1266.18 Q2191.41 1267.85 2191.91 1269.46 Q2192.4 1271.08 2193.31 1272.44 Q2194.25 1273.8 2195.75 1274.64 Q2197.25 1275.48 2199.07 1275.48 Q2200.62 1275.48 2202.09 1274.92 Q2203.59 1274.36 2204.72 1273.52 Q2205.84 1272.67 2206.9 1271.5 Q2207.95 1270.33 2208.63 1269.32 Q2209.33 1268.32 2209.96 1267.19 Z" fill="#000000" fill-rule="evenodd" fill-opacity="1" /><path clip-path="url(#clip630)" d="M2238.05 1288.01 Q2238.05 1287.78 2238.66 1287.19 Q2246.39 1279.32 2246.39 1264.5 Q2246.39 1249.62 2238.97 1242.11 Q2238.05 1241.24 2238.05 1240.98 Q2238.05 1240.51 2238.52 1240.51 Q2238.85 1240.51 2240 1241.47 Q2241.17 1242.43 2242.92 1244.64 Q2244.7 1246.84 2246.02 1249.53 Q2249.18 1256.07 2249.18 1264.5 Q2249.18 1272.6 2246.16 1279.14 Q2244.87 1281.88 2243.06 1284.17 Q2241.26 1286.47 2240.07 1287.48 Q2238.87 1288.48 2238.52 1288.48 Q2238.05 1288.48 2238.05 1288.01 Z" fill="#000000" fill-rule="evenodd" fill-opacity="1" /><polyline clip-path="url(#clip630)" style="stroke:#c271d2; stroke-linecap:round; stroke-linejoin:round; stroke-width:4; stroke-opacity:1; fill:none" points="1837.17,1319.7 1981.6,1319.7 "/>
<path clip-path="url(#clip630)" d="M2028.32 1311.87 Q2028.32 1315.34 2026.54 1318.6 Q2024.78 1321.85 2022.02 1323.82 Q2019.28 1325.79 2016.52 1325.79 Q2013.4 1325.79 2011.78 1322.56 Q2008.86 1334.29 2008.69 1334.59 Q2008.01 1335.6 2007.03 1335.6 Q2006.42 1335.6 2006.05 1335.23 Q2005.67 1334.88 2005.67 1334.31 Q2005.7 1334.13 2005.84 1333.54 L2010.52 1314.69 Q2011.6 1310.31 2014.85 1307.19 Q2018.13 1304.05 2021.65 1304.05 Q2024.43 1304.05 2026.38 1306.14 Q2028.32 1308.22 2028.32 1311.87 M2024.88 1309.81 Q2024.88 1307.47 2023.94 1306.3 Q2023 1305.11 2021.55 1305.11 Q2020.22 1305.11 2018.6 1306.18 Q2017.01 1307.26 2015.6 1309.65 Q2014.85 1311.03 2014.31 1312.74 Q2013.78 1314.45 2012.72 1318.67 Q2012.35 1320.35 2012.35 1320.45 Q2012.35 1320.63 2012.44 1321.06 Q2012.56 1321.48 2012.84 1322.13 Q2013.14 1322.77 2013.56 1323.33 Q2013.99 1323.89 2014.76 1324.31 Q2015.53 1324.71 2016.47 1324.71 Q2017.92 1324.71 2019.47 1323.54 Q2021.04 1322.34 2022.18 1320.17 Q2023.14 1318.41 2024.01 1315.11 Q2024.88 1311.78 2024.88 1309.81 Z" fill="#000000" fill-rule="evenodd" fill-opacity="1" /><path clip-path="url(#clip630)" d="M2056.25 1349.11 Q2056.25 1349.42 2056.12 1349.58 Q2056 1349.73 2055.89 1349.76 Q2055.79 1349.78 2055.64 1349.78 Q2055.22 1349.78 2053.74 1349.73 Q2052.27 1349.68 2051.84 1349.68 Q2051.15 1349.68 2049.74 1349.73 Q2048.33 1349.78 2047.64 1349.78 Q2047.18 1349.78 2047.18 1349.4 Q2047.18 1349.16 2047.23 1349.02 Q2047.28 1348.88 2047.41 1348.83 Q2047.56 1348.76 2047.64 1348.76 Q2047.74 1348.75 2047.99 1348.75 Q2048.31 1348.75 2048.66 1348.71 Q2049 1348.66 2049.43 1348.57 Q2049.86 1348.47 2050.12 1348.22 Q2050.4 1347.98 2050.4 1347.63 Q2050.4 1347.48 2050.28 1346.27 Q2050.17 1345.06 2050.02 1343.65 Q2049.87 1342.22 2049.86 1342.02 L2041.43 1342.02 Q2040.66 1343.35 2040.12 1344.27 Q2039.58 1345.19 2039.38 1345.5 Q2039.18 1345.81 2039.07 1346.01 Q2038.95 1346.2 2038.89 1346.32 Q2038.41 1347.19 2038.41 1347.57 Q2038.41 1348.61 2039.98 1348.75 Q2040.53 1348.75 2040.53 1349.14 Q2040.53 1349.43 2040.39 1349.6 Q2040.26 1349.75 2040.15 1349.76 Q2040.05 1349.78 2039.89 1349.78 Q2039.35 1349.78 2038.21 1349.73 Q2037.08 1349.68 2036.53 1349.68 Q2036.05 1349.68 2035.07 1349.73 Q2034.08 1349.78 2033.64 1349.78 Q2033.44 1349.78 2033.33 1349.66 Q2033.21 1349.55 2033.21 1349.4 Q2033.21 1349.17 2033.25 1349.04 Q2033.3 1348.91 2033.43 1348.84 Q2033.56 1348.78 2033.62 1348.78 Q2033.69 1348.76 2033.92 1348.75 Q2035.16 1348.66 2036.13 1348.07 Q2037.12 1347.47 2038.05 1345.91 L2049.72 1326.3 Q2049.84 1326.1 2049.92 1326 Q2050 1325.91 2050.17 1325.82 Q2050.35 1325.74 2050.61 1325.74 Q2051.02 1325.74 2051.1 1325.87 Q2051.18 1325.99 2051.23 1326.55 L2053.28 1347.53 Q2053.33 1347.98 2053.36 1348.16 Q2053.41 1348.32 2053.63 1348.5 Q2053.86 1348.66 2054.27 1348.71 Q2054.69 1348.75 2055.48 1348.75 Q2055.77 1348.75 2055.89 1348.76 Q2056 1348.76 2056.12 1348.84 Q2056.25 1348.93 2056.25 1349.11 M2049.76 1340.97 L2048.69 1329.91 L2042.07 1340.97 L2049.76 1340.97 Z" fill="#000000" fill-rule="evenodd" fill-opacity="1" /><path clip-path="url(#clip630)" d="M2061.14 1313.26 Q2061.14 1305.15 2064.16 1298.62 Q2065.45 1295.88 2067.25 1293.58 Q2069.05 1291.29 2070.25 1290.28 Q2071.44 1289.27 2071.77 1289.27 Q2072.24 1289.27 2072.26 1289.74 Q2072.26 1289.97 2071.63 1290.56 Q2063.9 1298.43 2063.93 1313.26 Q2063.93 1328.13 2071.44 1335.7 Q2072.26 1336.51 2072.26 1336.77 Q2072.26 1337.24 2071.77 1337.24 Q2071.44 1337.24 2070.3 1336.28 Q2069.15 1335.32 2067.37 1333.12 Q2065.59 1330.92 2064.3 1328.22 Q2061.14 1321.69 2061.14 1313.26 Z" fill="#000000" fill-rule="evenodd" fill-opacity="1" /><path clip-path="url(#clip630)" d="M2098.39 1307.07 Q2098.39 1308.41 2097.57 1309.2 Q2096.77 1310 2095.76 1310 Q2094.87 1310 2094.4 1309.49 Q2093.94 1308.97 2093.94 1308.31 Q2093.94 1308.03 2094.05 1307.68 Q2094.17 1307.31 2094.43 1306.86 Q2094.71 1306.42 2095.29 1306.09 Q2095.88 1305.76 2096.68 1305.71 Q2096.51 1305.55 2096.47 1305.53 Q2096.11 1305.25 2095.46 1305.15 Q2095.36 1305.11 2095.04 1305.11 Q2093.42 1305.11 2091.78 1306.3 Q2090.17 1307.47 2088.17 1309.7 Q2085.67 1312.3 2084.05 1313.26 Q2091.15 1314.19 2091.15 1318.29 Q2091.15 1318.97 2090.96 1319.79 Q2090.59 1321.34 2090.59 1322.46 Q2090.59 1324.71 2092.11 1324.71 Q2093.58 1324.71 2094.52 1323.21 Q2095.48 1321.71 2096.28 1318.78 Q2096.4 1318.25 2096.51 1318.08 Q2096.63 1317.92 2096.96 1317.92 Q2097.54 1317.92 2097.54 1318.39 Q2097 1321.13 2095.81 1323.23 Q2094.29 1325.79 2092.02 1325.79 Q2090.12 1325.79 2088.85 1324.48 Q2087.61 1323.14 2087.61 1321.03 Q2087.61 1320.52 2087.8 1319.35 Q2087.94 1318.88 2087.94 1318.34 Q2087.94 1317.24 2087.33 1316.42 Q2086.72 1315.58 2085.74 1315.15 Q2084.75 1314.73 2083.93 1314.54 Q2083.14 1314.33 2082.37 1314.26 Q2080.02 1324.17 2079.7 1324.78 Q2079.48 1325.2 2079.02 1325.48 Q2078.55 1325.79 2078.06 1325.79 Q2077.59 1325.79 2077.12 1325.46 Q2076.67 1325.16 2076.67 1324.43 Q2076.67 1324.05 2076.86 1323.37 L2083.82 1295.74 L2083.96 1294.8 Q2083.96 1294.52 2083.84 1294.38 Q2083.75 1294.21 2083.19 1294.1 Q2082.65 1293.98 2081.57 1293.98 Q2081.12 1293.98 2080.91 1293.96 Q2080.73 1293.93 2080.56 1293.82 Q2080.4 1293.68 2080.4 1293.39 Q2080.4 1293 2080.56 1292.79 Q2080.75 1292.55 2080.89 1292.5 Q2081.03 1292.46 2081.31 1292.43 Q2081.71 1292.41 2083.04 1292.29 Q2084.38 1292.15 2085.53 1292.06 Q2086.68 1291.97 2087.17 1291.97 Q2087.45 1291.97 2087.59 1292.11 Q2087.75 1292.22 2087.78 1292.36 L2087.8 1292.48 L2082.81 1312.72 Q2084.87 1311.9 2088.13 1308.27 Q2091.9 1304.05 2095.13 1304.05 Q2096.65 1304.05 2097.52 1304.99 Q2098.39 1305.9 2098.39 1307.07 Z" fill="#000000" fill-rule="evenodd" fill-opacity="1" /><path clip-path="url(#clip630)" d="M2114.73 1317.96 Q2114.77 1317.38 2115.69 1317.38 L2145.08 1317.38 Q2146.46 1317.38 2146.49 1317.92 Q2146.49 1318.5 2145.17 1318.48 L2116.01 1318.48 Q2114.73 1318.5 2114.73 1317.96 M2114.73 1308.6 Q2114.73 1308.01 2115.73 1308.03 L2145.03 1308.03 Q2146.46 1308.03 2146.49 1308.6 Q2146.49 1309.13 2145.27 1309.13 L2115.69 1309.13 Q2114.73 1309.13 2114.73 1308.6 Z" fill="#000000" fill-rule="evenodd" fill-opacity="1" /><path clip-path="url(#clip630)" d="M2164.98 1309.91 Q2164.98 1302.86 2166.76 1299.02 Q2169.24 1293.3 2175.1 1293.3 Q2176.34 1293.3 2177.63 1293.65 Q2178.94 1293.98 2180.58 1295.27 Q2182.24 1296.56 2183.25 1298.66 Q2185.17 1302.74 2185.17 1309.91 Q2185.17 1316.91 2183.39 1320.73 Q2180.79 1326.3 2175.05 1326.3 Q2172.89 1326.3 2170.69 1325.2 Q2168.51 1324.1 2167.13 1321.45 Q2164.98 1317.5 2164.98 1309.91 M2168.96 1309.32 Q2168.96 1316.56 2169.47 1319.44 Q2170.06 1322.56 2171.65 1323.91 Q2173.27 1325.25 2175.05 1325.25 Q2176.97 1325.25 2178.56 1323.82 Q2180.18 1322.37 2180.67 1319.25 Q2181.21 1316.18 2181.19 1309.32 Q2181.19 1302.65 2180.72 1299.98 Q2180.08 1296.86 2178.4 1295.62 Q2176.74 1294.35 2175.05 1294.35 Q2174.42 1294.35 2173.74 1294.54 Q2173.08 1294.73 2172.12 1295.27 Q2171.16 1295.81 2170.41 1297.14 Q2169.69 1298.48 2169.33 1300.49 Q2168.96 1303.09 2168.96 1309.32 Z" fill="#000000" fill-rule="evenodd" fill-opacity="1" /><path clip-path="url(#clip630)" d="M2189.88 1336.77 Q2189.88 1336.54 2190.49 1335.95 Q2198.22 1328.08 2198.22 1313.26 Q2198.22 1298.38 2190.79 1290.86 Q2189.88 1290 2189.88 1289.74 Q2189.88 1289.27 2190.35 1289.27 Q2190.68 1289.27 2191.82 1290.23 Q2192.99 1291.19 2194.75 1293.39 Q2196.53 1295.6 2197.84 1298.29 Q2201.01 1304.82 2201.01 1313.26 Q2201.01 1321.36 2197.98 1327.9 Q2196.7 1330.64 2194.89 1332.93 Q2193.09 1335.23 2191.89 1336.23 Q2190.7 1337.24 2190.35 1337.24 Q2189.88 1337.24 2189.88 1336.77 Z" fill="#000000" fill-rule="evenodd" fill-opacity="1" /></svg>
