<?xml version="1.0" encoding="utf-8"?>
<svg xmlns="http://www.w3.org/2000/svg" xmlns:xlink="http://www.w3.org/1999/xlink" width="600" height="400" viewBox="0 0 2400 1600">
<defs>
  <clipPath id="clip790">
    <rect x="0" y="0" width="2400" height="1600"/>
  </clipPath>
</defs>
<path clip-path="url(#clip790)" d="M0 1600 L2400 1600 L2400 0 L0 0  Z" fill="#ffffff" fill-rule="evenodd" fill-opacity="1"/>
<defs>
  <clipPath id="clip791">
    <rect x="480" y="0" width="1681" height="1600"/>
  </clipPath>
</defs>
<path clip-path="url(#clip790)" d="M298.341 1423.18 L2352.76 1423.18 L2352.76 47.2441 L298.341 47.2441  Z" fill="#ffffff" fill-rule="evenodd" fill-opacity="1"/>
<defs>
  <clipPath id="clip792">
    <rect x="298" y="47" width="2055" height="1377"/>
  </clipPath>
</defs>
<polyline clip-path="url(#clip792)" style="stroke:#000000; stroke-linecap:round; stroke-linejoin:round; stroke-width:2; stroke-opacity:0.1; fill:none" points="346.746,1423.18 346.746,47.2441 "/>
<polyline clip-path="url(#clip792)" style="stroke:#000000; stroke-linecap:round; stroke-linejoin:round; stroke-width:2; stroke-opacity:0.1; fill:none" points="833.712,1423.18 833.712,47.2441 "/>
<polyline clip-path="url(#clip792)" style="stroke:#000000; stroke-linecap:round; stroke-linejoin:round; stroke-width:2; stroke-opacity:0.1; fill:none" points="1320.68,1423.18 1320.68,47.2441 "/>
<polyline clip-path="url(#clip792)" style="stroke:#000000; stroke-linecap:round; stroke-linejoin:round; stroke-width:2; stroke-opacity:0.1; fill:none" points="1807.65,1423.18 1807.65,47.2441 "/>
<polyline clip-path="url(#clip792)" style="stroke:#000000; stroke-linecap:round; stroke-linejoin:round; stroke-width:2; stroke-opacity:0.1; fill:none" points="2294.61,1423.18 2294.61,47.2441 "/>
<polyline clip-path="url(#clip790)" style="stroke:#000000; stroke-linecap:round; stroke-linejoin:round; stroke-width:4; stroke-opacity:1; fill:none" points="298.341,1423.18 2352.76,1423.18 "/>
<polyline clip-path="url(#clip790)" style="stroke:#000000; stroke-linecap:round; stroke-linejoin:round; stroke-width:4; stroke-opacity:1; fill:none" points="346.746,1423.18 346.746,1404.28 "/>
<polyline clip-path="url(#clip790)" style="stroke:#000000; stroke-linecap:round; stroke-linejoin:round; stroke-width:4; stroke-opacity:1; fill:none" points="833.712,1423.18 833.712,1404.28 "/>
<polyline clip-path="url(#clip790)" style="stroke:#000000; stroke-linecap:round; stroke-linejoin:round; stroke-width:4; stroke-opacity:1; fill:none" points="1320.68,1423.18 1320.68,1404.28 "/>
<polyline clip-path="url(#clip790)" style="stroke:#000000; stroke-linecap:round; stroke-linejoin:round; stroke-width:4; stroke-opacity:1; fill:none" points="1807.65,1423.18 1807.65,1404.28 "/>
<polyline clip-path="url(#clip790)" style="stroke:#000000; stroke-linecap:round; stroke-linejoin:round; stroke-width:4; stroke-opacity:1; fill:none" points="2294.61,1423.18 2294.61,1404.28 "/>
<path clip-path="url(#clip790)" d="M346.746 1454.1 Q343.135 1454.1 341.306 1457.66 Q339.5 1461.2 339.5 1468.33 Q339.5 1475.44 341.306 1479.01 Q343.135 1482.55 346.746 1482.55 Q350.38 1482.55 352.185 1479.01 Q354.014 1475.44 354.014 1468.33 Q354.014 1461.2 352.185 1457.66 Q350.38 1454.1 346.746 1454.1 M346.746 1450.39 Q352.556 1450.39 355.611 1455 Q358.69 1459.58 358.69 1468.33 Q358.69 1477.06 355.611 1481.67 Q352.556 1486.25 346.746 1486.25 Q340.935 1486.25 337.857 1481.67 Q334.801 1477.06 334.801 1468.33 Q334.801 1459.58 337.857 1455 Q340.935 1450.39 346.746 1450.39 Z" fill="#000000" fill-rule="evenodd" fill-opacity="1" /><path clip-path="url(#clip790)" d="M808.411 1451.02 L826.768 1451.02 L826.768 1454.96 L812.694 1454.96 L812.694 1463.43 Q813.712 1463.08 814.731 1462.92 Q815.749 1462.73 816.768 1462.73 Q822.555 1462.73 825.935 1465.9 Q829.314 1469.08 829.314 1474.49 Q829.314 1480.07 825.842 1483.17 Q822.37 1486.25 816.05 1486.25 Q813.874 1486.25 811.606 1485.88 Q809.361 1485.51 806.953 1484.77 L806.953 1480.07 Q809.036 1481.2 811.259 1481.76 Q813.481 1482.32 815.958 1482.32 Q819.962 1482.32 822.3 1480.21 Q824.638 1478.1 824.638 1474.49 Q824.638 1470.88 822.3 1468.77 Q819.962 1466.67 815.958 1466.67 Q814.083 1466.67 812.208 1467.08 Q810.356 1467.5 808.411 1468.38 L808.411 1451.02 Z" fill="#000000" fill-rule="evenodd" fill-opacity="1" /><path clip-path="url(#clip790)" d="M848.527 1454.1 Q844.916 1454.1 843.087 1457.66 Q841.282 1461.2 841.282 1468.33 Q841.282 1475.44 843.087 1479.01 Q844.916 1482.55 848.527 1482.55 Q852.161 1482.55 853.967 1479.01 Q855.795 1475.44 855.795 1468.33 Q855.795 1461.2 853.967 1457.66 Q852.161 1454.1 848.527 1454.1 M848.527 1450.39 Q854.337 1450.39 857.393 1455 Q860.471 1459.58 860.471 1468.33 Q860.471 1477.06 857.393 1481.67 Q854.337 1486.25 848.527 1486.25 Q842.717 1486.25 839.638 1481.67 Q836.583 1477.06 836.583 1468.33 Q836.583 1459.58 839.638 1455 Q842.717 1450.39 848.527 1450.39 Z" fill="#000000" fill-rule="evenodd" fill-opacity="1" /><path clip-path="url(#clip790)" d="M1280.29 1481.64 L1287.92 1481.64 L1287.92 1455.28 L1279.61 1456.95 L1279.61 1452.69 L1287.88 1451.02 L1292.55 1451.02 L1292.55 1481.64 L1300.19 1481.64 L1300.19 1485.58 L1280.29 1485.58 L1280.29 1481.64 Z" fill="#000000" fill-rule="evenodd" fill-opacity="1" /><path clip-path="url(#clip790)" d="M1319.64 1454.1 Q1316.03 1454.1 1314.2 1457.66 Q1312.39 1461.2 1312.39 1468.33 Q1312.39 1475.44 1314.2 1479.01 Q1316.03 1482.55 1319.64 1482.55 Q1323.27 1482.55 1325.08 1479.01 Q1326.91 1475.44 1326.91 1468.33 Q1326.91 1461.2 1325.08 1457.66 Q1323.27 1454.1 1319.64 1454.1 M1319.64 1450.39 Q1325.45 1450.39 1328.5 1455 Q1331.58 1459.58 1331.58 1468.33 Q1331.58 1477.06 1328.5 1481.67 Q1325.45 1486.25 1319.64 1486.25 Q1313.83 1486.25 1310.75 1481.67 Q1307.69 1477.06 1307.69 1468.33 Q1307.69 1459.58 1310.75 1455 Q1313.83 1450.39 1319.64 1450.39 Z" fill="#000000" fill-rule="evenodd" fill-opacity="1" /><path clip-path="url(#clip790)" d="M1349.8 1454.1 Q1346.19 1454.1 1344.36 1457.66 Q1342.55 1461.2 1342.55 1468.33 Q1342.55 1475.44 1344.36 1479.01 Q1346.19 1482.55 1349.8 1482.55 Q1353.43 1482.55 1355.24 1479.01 Q1357.07 1475.44 1357.07 1468.33 Q1357.07 1461.2 1355.24 1457.66 Q1353.43 1454.1 1349.8 1454.1 M1349.8 1450.39 Q1355.61 1450.39 1358.66 1455 Q1361.74 1459.58 1361.74 1468.33 Q1361.74 1477.06 1358.66 1481.67 Q1355.61 1486.25 1349.8 1486.25 Q1343.99 1486.25 1340.91 1481.67 Q1337.85 1477.06 1337.85 1468.33 Q1337.85 1459.58 1340.91 1455 Q1343.99 1450.39 1349.8 1450.39 Z" fill="#000000" fill-rule="evenodd" fill-opacity="1" /><path clip-path="url(#clip790)" d="M1767.25 1481.64 L1774.89 1481.64 L1774.89 1455.28 L1766.58 1456.95 L1766.58 1452.69 L1774.84 1451.02 L1779.52 1451.02 L1779.52 1481.64 L1787.16 1481.64 L1787.16 1485.58 L1767.25 1485.58 L1767.25 1481.64 Z" fill="#000000" fill-rule="evenodd" fill-opacity="1" /><path clip-path="url(#clip790)" d="M1796.65 1451.02 L1815.01 1451.02 L1815.01 1454.96 L1800.93 1454.96 L1800.93 1463.43 Q1801.95 1463.08 1802.97 1462.92 Q1803.99 1462.73 1805.01 1462.73 Q1810.79 1462.73 1814.17 1465.9 Q1817.55 1469.08 1817.55 1474.49 Q1817.55 1480.07 1814.08 1483.17 Q1810.61 1486.25 1804.29 1486.25 Q1802.11 1486.25 1799.84 1485.88 Q1797.6 1485.51 1795.19 1484.77 L1795.19 1480.07 Q1797.28 1481.2 1799.5 1481.76 Q1801.72 1482.32 1804.2 1482.32 Q1808.2 1482.32 1810.54 1480.21 Q1812.88 1478.1 1812.88 1474.49 Q1812.88 1470.88 1810.54 1468.77 Q1808.2 1466.67 1804.2 1466.67 Q1802.32 1466.67 1800.45 1467.08 Q1798.59 1467.5 1796.65 1468.38 L1796.65 1451.02 Z" fill="#000000" fill-rule="evenodd" fill-opacity="1" /><path clip-path="url(#clip790)" d="M1836.77 1454.1 Q1833.15 1454.1 1831.33 1457.66 Q1829.52 1461.2 1829.52 1468.33 Q1829.52 1475.44 1831.33 1479.01 Q1833.15 1482.55 1836.77 1482.55 Q1840.4 1482.55 1842.21 1479.01 Q1844.03 1475.44 1844.03 1468.33 Q1844.03 1461.2 1842.21 1457.66 Q1840.4 1454.1 1836.77 1454.1 M1836.77 1450.39 Q1842.58 1450.39 1845.63 1455 Q1848.71 1459.58 1848.71 1468.33 Q1848.71 1477.06 1845.63 1481.67 Q1842.58 1486.25 1836.77 1486.25 Q1830.96 1486.25 1827.88 1481.67 Q1824.82 1477.06 1824.82 1468.33 Q1824.82 1459.58 1827.88 1455 Q1830.96 1450.39 1836.77 1450.39 Z" fill="#000000" fill-rule="evenodd" fill-opacity="1" /><path clip-path="url(#clip790)" d="M2258.3 1481.64 L2274.62 1481.64 L2274.62 1485.58 L2252.68 1485.58 L2252.68 1481.64 Q2255.34 1478.89 2259.92 1474.26 Q2264.53 1469.61 2265.71 1468.27 Q2267.96 1465.74 2268.84 1464.01 Q2269.74 1462.25 2269.74 1460.56 Q2269.74 1457.8 2267.8 1456.07 Q2265.87 1454.33 2262.77 1454.33 Q2260.57 1454.33 2258.12 1455.09 Q2255.69 1455.86 2252.91 1457.41 L2252.91 1452.69 Q2255.73 1451.55 2258.19 1450.97 Q2260.64 1450.39 2262.68 1450.39 Q2268.05 1450.39 2271.24 1453.08 Q2274.44 1455.77 2274.44 1460.26 Q2274.44 1462.39 2273.63 1464.31 Q2272.84 1466.2 2270.73 1468.8 Q2270.16 1469.47 2267.05 1472.69 Q2263.95 1475.88 2258.3 1481.64 Z" fill="#000000" fill-rule="evenodd" fill-opacity="1" /><path clip-path="url(#clip790)" d="M2294.44 1454.1 Q2290.83 1454.1 2289 1457.66 Q2287.19 1461.2 2287.19 1468.33 Q2287.19 1475.44 2289 1479.01 Q2290.83 1482.55 2294.44 1482.55 Q2298.07 1482.55 2299.88 1479.01 Q2301.71 1475.44 2301.71 1468.33 Q2301.71 1461.2 2299.88 1457.66 Q2298.07 1454.1 2294.44 1454.1 M2294.44 1450.39 Q2300.25 1450.39 2303.3 1455 Q2306.38 1459.58 2306.38 1468.33 Q2306.38 1477.06 2303.3 1481.67 Q2300.25 1486.25 2294.44 1486.25 Q2288.63 1486.25 2285.55 1481.67 Q2282.49 1477.06 2282.49 1468.33 Q2282.49 1459.58 2285.55 1455 Q2288.63 1450.39 2294.44 1450.39 Z" fill="#000000" fill-rule="evenodd" fill-opacity="1" /><path clip-path="url(#clip790)" d="M2324.6 1454.1 Q2320.99 1454.1 2319.16 1457.66 Q2317.36 1461.2 2317.36 1468.33 Q2317.36 1475.44 2319.16 1479.01 Q2320.99 1482.55 2324.6 1482.55 Q2328.23 1482.55 2330.04 1479.01 Q2331.87 1475.44 2331.87 1468.33 Q2331.87 1461.2 2330.04 1457.66 Q2328.23 1454.1 2324.6 1454.1 M2324.6 1450.39 Q2330.41 1450.39 2333.47 1455 Q2336.54 1459.58 2336.54 1468.33 Q2336.54 1477.06 2333.47 1481.67 Q2330.41 1486.25 2324.6 1486.25 Q2318.79 1486.25 2315.71 1481.67 Q2312.66 1477.06 2312.66 1468.33 Q2312.66 1459.58 2315.71 1455 Q2318.79 1450.39 2324.6 1450.39 Z" fill="#000000" fill-rule="evenodd" fill-opacity="1" /><path clip-path="url(#clip790)" d="M1326.28 1532.4 L1332.14 1532.4 L1332.14 1568.68 Q1332.14 1575.49 1329.53 1578.55 Q1326.95 1581.6 1321.19 1581.6 L1318.96 1581.6 L1318.96 1576.64 L1320.52 1576.64 Q1323.86 1576.64 1325.07 1575.08 Q1326.28 1573.55 1326.28 1568.68 L1326.28 1532.4 M1326.28 1518.52 L1332.14 1518.52 L1332.14 1525.93 L1326.28 1525.93 L1326.28 1518.52 Z" fill="#000000" fill-rule="evenodd" fill-opacity="1" /><polyline clip-path="url(#clip792)" style="stroke:#000000; stroke-linecap:round; stroke-linejoin:round; stroke-width:2; stroke-opacity:0.1; fill:none" points="298.341,1384.89 2352.76,1384.89 "/>
<polyline clip-path="url(#clip792)" style="stroke:#000000; stroke-linecap:round; stroke-linejoin:round; stroke-width:2; stroke-opacity:0.1; fill:none" points="298.341,1019.91 2352.76,1019.91 "/>
<polyline clip-path="url(#clip792)" style="stroke:#000000; stroke-linecap:round; stroke-linejoin:round; stroke-width:2; stroke-opacity:0.1; fill:none" points="298.341,654.926 2352.76,654.926 "/>
<polyline clip-path="url(#clip792)" style="stroke:#000000; stroke-linecap:round; stroke-linejoin:round; stroke-width:2; stroke-opacity:0.1; fill:none" points="298.341,289.942 2352.76,289.942 "/>
<polyline clip-path="url(#clip790)" style="stroke:#000000; stroke-linecap:round; stroke-linejoin:round; stroke-width:4; stroke-opacity:1; fill:none" points="298.341,1423.18 298.341,47.2441 "/>
<polyline clip-path="url(#clip790)" style="stroke:#000000; stroke-linecap:round; stroke-linejoin:round; stroke-width:4; stroke-opacity:1; fill:none" points="298.341,1384.89 317.239,1384.89 "/>
<polyline clip-path="url(#clip790)" style="stroke:#000000; stroke-linecap:round; stroke-linejoin:round; stroke-width:4; stroke-opacity:1; fill:none" points="298.341,1019.91 317.239,1019.91 "/>
<polyline clip-path="url(#clip790)" style="stroke:#000000; stroke-linecap:round; stroke-linejoin:round; stroke-width:4; stroke-opacity:1; fill:none" points="298.341,654.926 317.239,654.926 "/>
<polyline clip-path="url(#clip790)" style="stroke:#000000; stroke-linecap:round; stroke-linejoin:round; stroke-width:4; stroke-opacity:1; fill:none" points="298.341,289.942 317.239,289.942 "/>
<path clip-path="url(#clip790)" d="M144.842 1370.69 Q141.231 1370.69 139.402 1374.26 Q137.596 1377.8 137.596 1384.93 Q137.596 1392.04 139.402 1395.6 Q141.231 1399.14 144.842 1399.14 Q148.476 1399.14 150.282 1395.6 Q152.11 1392.04 152.11 1384.93 Q152.11 1377.8 150.282 1374.26 Q148.476 1370.69 144.842 1370.69 M144.842 1366.99 Q150.652 1366.99 153.707 1371.6 Q156.786 1376.18 156.786 1384.93 Q156.786 1393.66 153.707 1398.26 Q150.652 1402.85 144.842 1402.85 Q139.032 1402.85 135.953 1398.26 Q132.897 1393.66 132.897 1384.93 Q132.897 1376.18 135.953 1371.6 Q139.032 1366.99 144.842 1366.99 Z" fill="#000000" fill-rule="evenodd" fill-opacity="1" /><path clip-path="url(#clip790)" d="M165.004 1396.29 L169.888 1396.29 L169.888 1402.17 L165.004 1402.17 L165.004 1396.29 Z" fill="#000000" fill-rule="evenodd" fill-opacity="1" /><path clip-path="url(#clip790)" d="M190.073 1370.69 Q186.462 1370.69 184.633 1374.26 Q182.828 1377.8 182.828 1384.93 Q182.828 1392.04 184.633 1395.6 Q186.462 1399.14 190.073 1399.14 Q193.707 1399.14 195.513 1395.6 Q197.342 1392.04 197.342 1384.93 Q197.342 1377.8 195.513 1374.26 Q193.707 1370.69 190.073 1370.69 M190.073 1366.99 Q195.883 1366.99 198.939 1371.6 Q202.017 1376.18 202.017 1384.93 Q202.017 1393.66 198.939 1398.26 Q195.883 1402.85 190.073 1402.85 Q184.263 1402.85 181.184 1398.26 Q178.129 1393.66 178.129 1384.93 Q178.129 1376.18 181.184 1371.6 Q184.263 1366.99 190.073 1366.99 Z" fill="#000000" fill-rule="evenodd" fill-opacity="1" /><path clip-path="url(#clip790)" d="M220.235 1370.69 Q216.624 1370.69 214.795 1374.26 Q212.99 1377.8 212.99 1384.93 Q212.99 1392.04 214.795 1395.6 Q216.624 1399.14 220.235 1399.14 Q223.869 1399.14 225.675 1395.6 Q227.503 1392.04 227.503 1384.93 Q227.503 1377.8 225.675 1374.26 Q223.869 1370.69 220.235 1370.69 M220.235 1366.99 Q226.045 1366.99 229.101 1371.6 Q232.179 1376.18 232.179 1384.93 Q232.179 1393.66 229.101 1398.26 Q226.045 1402.85 220.235 1402.85 Q214.425 1402.85 211.346 1398.26 Q208.291 1393.66 208.291 1384.93 Q208.291 1376.18 211.346 1371.6 Q214.425 1366.99 220.235 1366.99 Z" fill="#000000" fill-rule="evenodd" fill-opacity="1" /><path clip-path="url(#clip790)" d="M250.397 1370.69 Q246.786 1370.69 244.957 1374.26 Q243.151 1377.8 243.151 1384.93 Q243.151 1392.04 244.957 1395.6 Q246.786 1399.14 250.397 1399.14 Q254.031 1399.14 255.837 1395.6 Q257.665 1392.04 257.665 1384.93 Q257.665 1377.8 255.837 1374.26 Q254.031 1370.69 250.397 1370.69 M250.397 1366.99 Q256.207 1366.99 259.262 1371.6 Q262.341 1376.18 262.341 1384.93 Q262.341 1393.66 259.262 1398.26 Q256.207 1402.85 250.397 1402.85 Q244.587 1402.85 241.508 1398.26 Q238.452 1393.66 238.452 1384.93 Q238.452 1376.18 241.508 1371.6 Q244.587 1366.99 250.397 1366.99 Z" fill="#000000" fill-rule="evenodd" fill-opacity="1" /><path clip-path="url(#clip790)" d="M146.439 1005.71 Q142.828 1005.71 140.999 1009.27 Q139.194 1012.82 139.194 1019.94 Q139.194 1027.05 140.999 1030.62 Q142.828 1034.16 146.439 1034.16 Q150.073 1034.16 151.879 1030.62 Q153.707 1027.05 153.707 1019.94 Q153.707 1012.82 151.879 1009.27 Q150.073 1005.71 146.439 1005.71 M146.439 1002.01 Q152.249 1002.01 155.305 1006.61 Q158.383 1011.19 158.383 1019.94 Q158.383 1028.67 155.305 1033.28 Q152.249 1037.86 146.439 1037.86 Q140.629 1037.86 137.55 1033.28 Q134.495 1028.67 134.495 1019.94 Q134.495 1011.19 137.55 1006.61 Q140.629 1002.01 146.439 1002.01 Z" fill="#000000" fill-rule="evenodd" fill-opacity="1" /><path clip-path="url(#clip790)" d="M166.601 1031.31 L171.485 1031.31 L171.485 1037.19 L166.601 1037.19 L166.601 1031.31 Z" fill="#000000" fill-rule="evenodd" fill-opacity="1" /><path clip-path="url(#clip790)" d="M191.67 1005.71 Q188.059 1005.71 186.23 1009.27 Q184.425 1012.82 184.425 1019.94 Q184.425 1027.05 186.23 1030.62 Q188.059 1034.16 191.67 1034.16 Q195.304 1034.16 197.11 1030.62 Q198.939 1027.05 198.939 1019.94 Q198.939 1012.82 197.11 1009.27 Q195.304 1005.71 191.67 1005.71 M191.67 1002.01 Q197.48 1002.01 200.536 1006.61 Q203.615 1011.19 203.615 1019.94 Q203.615 1028.67 200.536 1033.28 Q197.48 1037.86 191.67 1037.86 Q185.86 1037.86 182.781 1033.28 Q179.726 1028.67 179.726 1019.94 Q179.726 1011.19 182.781 1006.61 Q185.86 1002.01 191.67 1002.01 Z" fill="#000000" fill-rule="evenodd" fill-opacity="1" /><path clip-path="url(#clip790)" d="M221.832 1005.71 Q218.221 1005.71 216.392 1009.27 Q214.587 1012.82 214.587 1019.94 Q214.587 1027.05 216.392 1030.62 Q218.221 1034.16 221.832 1034.16 Q225.466 1034.16 227.272 1030.62 Q229.101 1027.05 229.101 1019.94 Q229.101 1012.82 227.272 1009.27 Q225.466 1005.71 221.832 1005.71 M221.832 1002.01 Q227.642 1002.01 230.698 1006.61 Q233.777 1011.19 233.777 1019.94 Q233.777 1028.67 230.698 1033.28 Q227.642 1037.86 221.832 1037.86 Q216.022 1037.86 212.943 1033.28 Q209.888 1028.67 209.888 1019.94 Q209.888 1011.19 212.943 1006.61 Q216.022 1002.01 221.832 1002.01 Z" fill="#000000" fill-rule="evenodd" fill-opacity="1" /><path clip-path="url(#clip790)" d="M246.022 1033.25 L262.341 1033.25 L262.341 1037.19 L240.397 1037.19 L240.397 1033.25 Q243.059 1030.5 247.642 1025.87 Q252.249 1021.22 253.429 1019.88 Q255.675 1017.35 256.554 1015.62 Q257.457 1013.86 257.457 1012.17 Q257.457 1009.41 255.512 1007.68 Q253.591 1005.94 250.489 1005.94 Q248.29 1005.94 245.837 1006.7 Q243.406 1007.47 240.628 1009.02 L240.628 1004.3 Q243.452 1003.16 245.906 1002.58 Q248.36 1002.01 250.397 1002.01 Q255.767 1002.01 258.962 1004.69 Q262.156 1007.38 262.156 1011.87 Q262.156 1014 261.346 1015.92 Q260.559 1017.82 258.452 1020.41 Q257.874 1021.08 254.772 1024.3 Q251.67 1027.49 246.022 1033.25 Z" fill="#000000" fill-rule="evenodd" fill-opacity="1" /><path clip-path="url(#clip790)" d="M144.356 640.725 Q140.745 640.725 138.916 644.289 Q137.11 647.831 137.11 654.961 Q137.11 662.067 138.916 665.632 Q140.745 669.173 144.356 669.173 Q147.99 669.173 149.795 665.632 Q151.624 662.067 151.624 654.961 Q151.624 647.831 149.795 644.289 Q147.99 640.725 144.356 640.725 M144.356 637.021 Q150.166 637.021 153.221 641.627 Q156.3 646.211 156.3 654.961 Q156.3 663.687 153.221 668.294 Q150.166 672.877 144.356 672.877 Q138.546 672.877 135.467 668.294 Q132.411 663.687 132.411 654.961 Q132.411 646.211 135.467 641.627 Q138.546 637.021 144.356 637.021 Z" fill="#000000" fill-rule="evenodd" fill-opacity="1" /><path clip-path="url(#clip790)" d="M164.518 666.326 L169.402 666.326 L169.402 672.206 L164.518 672.206 L164.518 666.326 Z" fill="#000000" fill-rule="evenodd" fill-opacity="1" /><path clip-path="url(#clip790)" d="M189.587 640.725 Q185.976 640.725 184.147 644.289 Q182.342 647.831 182.342 654.961 Q182.342 662.067 184.147 665.632 Q185.976 669.173 189.587 669.173 Q193.221 669.173 195.027 665.632 Q196.855 662.067 196.855 654.961 Q196.855 647.831 195.027 644.289 Q193.221 640.725 189.587 640.725 M189.587 637.021 Q195.397 637.021 198.453 641.627 Q201.531 646.211 201.531 654.961 Q201.531 663.687 198.453 668.294 Q195.397 672.877 189.587 672.877 Q183.777 672.877 180.698 668.294 Q177.643 663.687 177.643 654.961 Q177.643 646.211 180.698 641.627 Q183.777 637.021 189.587 637.021 Z" fill="#000000" fill-rule="evenodd" fill-opacity="1" /><path clip-path="url(#clip790)" d="M219.749 640.725 Q216.138 640.725 214.309 644.289 Q212.503 647.831 212.503 654.961 Q212.503 662.067 214.309 665.632 Q216.138 669.173 219.749 669.173 Q223.383 669.173 225.189 665.632 Q227.017 662.067 227.017 654.961 Q227.017 647.831 225.189 644.289 Q223.383 640.725 219.749 640.725 M219.749 637.021 Q225.559 637.021 228.614 641.627 Q231.693 646.211 231.693 654.961 Q231.693 663.687 228.614 668.294 Q225.559 672.877 219.749 672.877 Q213.939 672.877 210.86 668.294 Q207.804 663.687 207.804 654.961 Q207.804 646.211 210.86 641.627 Q213.939 637.021 219.749 637.021 Z" fill="#000000" fill-rule="evenodd" fill-opacity="1" /><path clip-path="url(#clip790)" d="M252.758 641.72 L240.952 660.169 L252.758 660.169 L252.758 641.72 M251.531 637.646 L257.411 637.646 L257.411 660.169 L262.341 660.169 L262.341 664.058 L257.411 664.058 L257.411 672.206 L252.758 672.206 L252.758 664.058 L237.156 664.058 L237.156 659.544 L251.531 637.646 Z" fill="#000000" fill-rule="evenodd" fill-opacity="1" /><path clip-path="url(#clip790)" d="M144.68 275.74 Q141.069 275.74 139.24 279.305 Q137.434 282.847 137.434 289.976 Q137.434 297.083 139.24 300.648 Q141.069 304.189 144.68 304.189 Q148.314 304.189 150.12 300.648 Q151.948 297.083 151.948 289.976 Q151.948 282.847 150.12 279.305 Q148.314 275.74 144.68 275.74 M144.68 272.037 Q150.49 272.037 153.545 276.643 Q156.624 281.227 156.624 289.976 Q156.624 298.703 153.545 303.31 Q150.49 307.893 144.68 307.893 Q138.87 307.893 135.791 303.31 Q132.735 298.703 132.735 289.976 Q132.735 281.227 135.791 276.643 Q138.87 272.037 144.68 272.037 Z" fill="#000000" fill-rule="evenodd" fill-opacity="1" /><path clip-path="url(#clip790)" d="M164.842 301.342 L169.726 301.342 L169.726 307.222 L164.842 307.222 L164.842 301.342 Z" fill="#000000" fill-rule="evenodd" fill-opacity="1" /><path clip-path="url(#clip790)" d="M189.911 275.74 Q186.3 275.74 184.471 279.305 Q182.666 282.847 182.666 289.976 Q182.666 297.083 184.471 300.648 Q186.3 304.189 189.911 304.189 Q193.545 304.189 195.351 300.648 Q197.179 297.083 197.179 289.976 Q197.179 282.847 195.351 279.305 Q193.545 275.74 189.911 275.74 M189.911 272.037 Q195.721 272.037 198.777 276.643 Q201.855 281.227 201.855 289.976 Q201.855 298.703 198.777 303.31 Q195.721 307.893 189.911 307.893 Q184.101 307.893 181.022 303.31 Q177.967 298.703 177.967 289.976 Q177.967 281.227 181.022 276.643 Q184.101 272.037 189.911 272.037 Z" fill="#000000" fill-rule="evenodd" fill-opacity="1" /><path clip-path="url(#clip790)" d="M220.073 275.74 Q216.462 275.74 214.633 279.305 Q212.828 282.847 212.828 289.976 Q212.828 297.083 214.633 300.648 Q216.462 304.189 220.073 304.189 Q223.707 304.189 225.513 300.648 Q227.341 297.083 227.341 289.976 Q227.341 282.847 225.513 279.305 Q223.707 275.74 220.073 275.74 M220.073 272.037 Q225.883 272.037 228.939 276.643 Q232.017 281.227 232.017 289.976 Q232.017 298.703 228.939 303.31 Q225.883 307.893 220.073 307.893 Q214.263 307.893 211.184 303.31 Q208.128 298.703 208.128 289.976 Q208.128 281.227 211.184 276.643 Q214.263 272.037 220.073 272.037 Z" fill="#000000" fill-rule="evenodd" fill-opacity="1" /><path clip-path="url(#clip790)" d="M250.813 288.078 Q247.665 288.078 245.813 290.231 Q243.985 292.384 243.985 296.134 Q243.985 299.861 245.813 302.037 Q247.665 304.189 250.813 304.189 Q253.962 304.189 255.79 302.037 Q257.642 299.861 257.642 296.134 Q257.642 292.384 255.79 290.231 Q253.962 288.078 250.813 288.078 M260.096 273.426 L260.096 277.685 Q258.337 276.852 256.531 276.412 Q254.749 275.972 252.989 275.972 Q248.36 275.972 245.906 279.097 Q243.476 282.222 243.128 288.541 Q244.494 286.527 246.554 285.463 Q248.614 284.375 251.091 284.375 Q256.3 284.375 259.309 287.546 Q262.341 290.694 262.341 296.134 Q262.341 301.458 259.193 304.675 Q256.045 307.893 250.813 307.893 Q244.818 307.893 241.647 303.31 Q238.476 298.703 238.476 289.976 Q238.476 281.782 242.364 276.921 Q246.253 272.037 252.804 272.037 Q254.563 272.037 256.346 272.384 Q258.151 272.731 260.096 273.426 Z" fill="#000000" fill-rule="evenodd" fill-opacity="1" /><path clip-path="url(#clip790)" d="M92.4758 801.03 L31.0593 801.03 Q28.6116 801.03 28.6116 799.71 Q28.6116 798.39 30.5762 798.39 L91.9928 798.39 Q94.4404 798.39 94.4404 799.71 Q94.4404 801.03 92.4758 801.03 Z" fill="#000000" fill-rule="evenodd" fill-opacity="1" /><path clip-path="url(#clip790)" d="M52.766 736.801 Q53.0881 736.865 53.6678 736.994 Q54.2153 737.123 55.9544 737.702 Q57.6935 738.282 59.4648 739.055 Q61.204 739.796 63.6516 741.245 Q66.067 742.662 68.257 744.401 Q68.8367 744.884 69.191 744.981 Q69.5131 745.045 70.5759 745.045 Q77.2747 745.045 77.2747 743.016 Q77.2747 742.92 77.2747 742.759 Q77.2425 742.565 77.0814 742.082 Q76.8882 741.567 76.5984 741.116 Q76.2763 740.665 75.6322 740.15 Q74.9559 739.635 74.0541 739.313 Q73.41 739.023 73.41 738.443 Q73.41 737.67 74.0541 737.67 Q75.2135 737.67 76.9848 739.28 Q78.7561 740.891 78.7561 743.21 Q78.7561 745.432 77.3069 747.01 Q75.8254 748.556 73.1845 749.2 Q78.7561 756.156 78.7561 763.113 Q78.7561 768.008 75.5678 770.907 Q72.3472 773.805 67.5807 773.805 Q63.0075 773.805 58.6597 771.293 Q54.3119 768.749 51.6066 764.626 Q48.8691 760.472 48.8691 756.06 Q48.8691 754.514 49.2878 753.032 Q49.6743 751.551 50.6726 750.069 Q51.671 748.588 53.1847 747.493 Q54.6984 746.398 57.0816 745.722 Q59.4648 745.045 62.46 745.045 L66.5501 745.045 Q61.1717 740.794 53.4745 738.572 Q52.3151 738.25 52.1863 738.057 Q52.0897 737.928 52.0897 737.606 Q52.0897 737.284 52.2829 737.09 Q52.444 736.865 52.605 736.833 L52.766 736.801 M71.4776 749.457 Q70.3504 749.586 64.1025 749.586 Q62.9109 749.586 62.2667 749.586 Q61.5904 749.586 60.3022 749.651 Q59.014 749.715 58.2088 749.844 Q57.4037 749.941 56.2443 750.166 Q55.0848 750.391 54.3441 750.713 Q53.6034 751.036 52.766 751.551 Q51.9287 752.034 51.4456 752.678 Q50.9625 753.29 50.6404 754.192 Q50.3184 755.061 50.3184 756.124 Q50.3184 757.444 50.8015 758.829 Q51.2523 760.182 52.7016 761.921 Q54.1187 763.66 56.3731 765.109 Q58.7563 766.623 63.1363 767.783 Q67.4841 768.91 70.0928 768.91 Q73.3778 768.91 75.3423 767.396 Q77.2747 765.882 77.2747 762.984 Q77.2747 756.06 71.4776 749.457 Z" fill="#000000" fill-rule="evenodd" fill-opacity="1" /><path clip-path="url(#clip790)" d="M68.0321 711.187 Q68.9564 711.187 69.7229 711.976 Q70.4894 712.765 70.4894 713.69 Q70.4894 714.456 70.016 714.93 Q69.5425 715.381 68.8211 715.381 Q67.8292 715.381 67.1078 714.592 Q66.3638 713.803 66.3638 712.946 Q66.3638 712.157 66.8598 711.683 Q67.3332 711.187 68.0321 711.187 M80.7244 712.901 Q81.5135 712.901 82.4378 713.126 L99.3458 717.364 Q100.992 717.77 102.344 718.74 Q103.719 719.709 104.576 720.949 Q105.433 722.166 105.884 723.496 Q106.357 724.804 106.357 726.044 Q106.357 727.78 105.591 728.952 Q104.824 730.124 103.494 730.124 Q102.322 730.124 101.578 729.358 Q100.856 728.569 100.856 727.622 Q100.856 726.765 101.352 726.314 Q101.848 725.864 102.479 725.864 Q103.246 725.864 103.967 726.427 Q104.689 726.968 104.914 727.938 Q105.343 727.058 105.343 726.134 Q105.343 724.24 103.607 722.707 Q101.893 721.152 99.188 720.476 L81.9643 716.125 Q80.5892 715.809 79.6198 715.809 Q78.718 715.809 78.222 716.057 Q77.7261 716.305 77.6133 716.598 Q77.5006 716.869 77.5006 717.274 Q77.5006 719.055 79.1463 720.588 Q80.7695 722.121 83.1366 723.091 Q83.7904 723.361 83.9257 723.496 Q84.0609 723.609 84.0609 723.925 Q84.0384 724.488 83.5875 724.488 Q83.4523 724.488 82.9112 724.263 Q82.3701 724.038 81.5811 723.632 Q80.7695 723.226 79.8903 722.572 Q79.0111 721.918 78.2446 721.152 Q77.4781 720.363 76.9821 719.303 Q76.4861 718.244 76.4861 717.139 Q76.4861 715.358 77.6584 714.141 Q78.8082 712.901 80.7244 712.901 Z" fill="#000000" fill-rule="evenodd" fill-opacity="1" /><path clip-path="url(#clip790)" d="M92.4758 704.338 L31.0593 704.338 Q28.6116 704.338 28.6116 703.017 Q28.6116 701.697 30.5762 701.697 L91.9928 701.697 Q94.4404 701.697 94.4404 703.017 Q94.4404 704.338 92.4758 704.338 Z" fill="#000000" fill-rule="evenodd" fill-opacity="1" /><path clip-path="url(#clip790)" d="M38.2162 694.688 Q37.3821 694.688 37.1341 694.621 Q36.8861 694.53 36.5028 694.17 L26.6285 685.31 Q21.1729 680.463 16.416 680.463 Q13.3275 680.463 11.1182 682.086 Q8.90886 683.687 8.90886 686.64 Q8.90886 688.669 10.1488 690.382 Q11.3887 692.096 13.598 692.885 Q13.5529 692.749 13.5529 692.276 Q13.5529 691.126 14.2744 690.495 Q14.9958 689.841 15.9652 689.841 Q17.2051 689.841 17.8138 690.653 Q18.3999 691.442 18.3999 692.231 Q18.3999 692.547 18.3323 692.975 Q18.2647 693.381 17.6334 694.034 Q16.9796 694.688 15.8299 694.688 Q12.6061 694.688 10.0361 692.253 Q7.46604 689.796 7.46604 686.054 Q7.46604 681.816 9.99098 679.043 Q12.4934 676.247 16.416 676.247 Q17.7912 676.247 19.0537 676.675 Q20.2936 677.081 21.263 677.645 Q22.2324 678.186 23.788 679.674 Q25.3435 681.162 26.4482 682.357 Q27.5528 683.551 29.8974 686.234 L34.6542 691.126 L34.6542 682.807 Q34.6542 678.75 34.2935 678.434 Q33.6397 677.983 30.1905 677.419 L30.1905 676.247 L38.2162 677.555 L38.2162 694.688 Z" fill="#000000" fill-rule="evenodd" fill-opacity="1" /><polyline clip-path="url(#clip792)" style="stroke:#009af9; stroke-linecap:round; stroke-linejoin:round; stroke-width:4; stroke-opacity:1; fill:none" points="356.485,978.271 366.224,1200.44 375.964,1265.62 385.703,1297.43 395.442,1316.34 405.182,1328.87 414.921,1337.78 424.66,1344.44 434.4,1349.59 444.139,1353.7 453.878,1357.04 463.618,1359.81 473.357,1362.15 483.096,1364.14 492.836,1365.85 502.575,1367.35 512.314,1368.66 522.054,1369.81 531.793,1370.84 541.532,1371.76 551.272,1372.58 561.011,1373.33 570.75,1374.01 580.49,1374.62 590.229,1375.18 599.968,1375.7 609.708,1376.17 619.447,1376.61 629.186,1377.01 638.926,1377.38 648.665,1377.73 658.404,1378.05 668.144,1378.35 677.883,1378.63 687.622,1378.9 697.362,1379.14 707.101,1379.37 716.84,1379.59 726.58,1379.79 736.319,1379.98 746.058,1380.17 755.798,1380.34 765.537,1380.5 775.276,1380.65 785.016,1380.8 794.755,1380.93 804.494,1381.07 814.234,1381.19 823.973,1381.31 833.712,1381.42 843.452,1381.53 853.191,1381.63 862.93,1381.73 872.67,1381.82 882.409,1381.91 892.148,1381.99 901.888,1382.08 911.627,1382.15 921.366,1382.23 931.106,1382.3 940.845,1382.37 950.584,1382.43 960.324,1382.5 970.063,1382.56 979.802,1382.62 989.542,1382.67 999.281,1382.73 1009.02,1382.78 1018.76,1382.83 1028.5,1382.88 1038.24,1382.92 1047.98,1382.97 1057.72,1383.01 1067.46,1383.05 1077.2,1383.09 1086.93,1383.13 1096.67,1383.17 1106.41,1383.21 1116.15,1383.24 1125.89,1383.28 1135.63,1383.31 1145.37,1383.34 1155.11,1383.37 1164.85,1383.4 1174.59,1383.43 1184.33,1383.46 1194.07,1383.48 1203.81,1383.51 1213.55,1383.53 1223.29,1383.56 1233.02,1383.58 1242.76,1383.61 1252.5,1383.63 1262.24,1383.65 1271.98,1383.67 1281.72,1383.69 1291.46,1383.71 1301.2,1383.73 1310.94,1383.75 1320.68,1383.77 1330.42,1383.78 1340.16,1383.8 1349.9,1383.82 1359.64,1383.83 1369.38,1383.85 1379.11,1383.86 1388.85,1383.88 1398.59,1383.89 1408.33,1383.91 1418.07,1383.92 1427.81,1383.93 1437.55,1383.95 1447.29,1383.96 1457.03,1383.97 1466.77,1383.98 1476.51,1383.99 1486.25,1384.01 1495.99,1384.02 1505.73,1384.03 1515.47,1384.04 1525.2,1384.05 1534.94,1384.06 1544.68,1384.07 1554.42,1384.07 1564.16,1384.08 1573.9,1384.09 1583.64,1384.1 1593.38,1384.11 1603.12,1384.12 1612.86,1384.12 1622.6,1384.13 1632.34,1384.14 1642.08,1384.14 1651.82,1384.15 1661.56,1384.16 1671.29,1384.16 1681.03,1384.17 1690.77,1384.17 1700.51,1384.18 1710.25,1384.18 1719.99,1384.19 1729.73,1384.19 1739.47,1384.2 1749.21,1384.2 1758.95,1384.21 1768.69,1384.21 1778.43,1384.21 1788.17,1384.22 1797.91,1384.22 1807.65,1384.22 1817.38,1384.23 1827.12,1384.23 1836.86,1384.23 1846.6,1384.23 1856.34,1384.23 1866.08,1384.24 1875.82,1384.24 1885.56,1384.24 1895.3,1384.24 1905.04,1384.24 1914.78,1384.24 1924.52,1384.24 1934.26,1384.24 1944,1384.24 1953.74,1384.23 1963.47,1384.23 1973.21,1384.23 1982.95,1384.23 1992.69,1384.23 2002.43,1384.22 2012.17,1384.22 2021.91,1384.21 2031.65,1384.21 2041.39,1384.2 2051.13,1384.2 2060.87,1384.19 2070.61,1384.18 2080.35,1384.17 2090.09,1384.16 2099.83,1384.15 2109.56,1384.13 2119.3,1384.12 2129.04,1384.1 2138.78,1384.08 2148.52,1384.06 2158.26,1384.04 2168,1384.01 2177.74,1383.98 2187.48,1383.94 2197.22,1383.9 2206.96,1383.85 2216.7,1383.79 2226.44,1383.72 2236.18,1383.62 2245.92,1383.51 2255.65,1383.35 2265.39,1383.14 2275.13,1382.83 2284.87,1382.35 2294.61,1191.87 "/>
<polyline clip-path="url(#clip792)" style="stroke:#e26f46; stroke-linecap:round; stroke-linejoin:round; stroke-width:4; stroke-opacity:1; fill:none" points="356.485,86.1857 366.224,1045.56 375.964,1211.25 385.703,1269.03 395.442,1298.65 405.182,1316.68 414.921,1328.82 424.66,1337.53 434.4,1344.1 444.139,1349.21 453.878,1353.3 463.618,1356.65 473.357,1359.43 483.096,1361.78 492.836,1363.79 502.575,1365.52 512.314,1367.03 522.054,1368.36 531.793,1369.53 541.532,1370.58 551.272,1371.51 561.011,1372.35 570.75,1373.11 580.49,1373.8 590.229,1374.43 599.968,1375 609.708,1375.53 619.447,1376.01 629.186,1376.45 638.926,1376.87 648.665,1377.25 658.404,1377.6 668.144,1377.93 677.883,1378.24 687.622,1378.52 697.362,1378.79 707.101,1379.04 716.84,1379.28 726.58,1379.5 736.319,1379.71 746.058,1379.9 755.798,1380.09 765.537,1380.26 775.276,1380.43 785.016,1380.58 794.755,1380.73 804.494,1380.87 814.234,1381.01 823.973,1381.13 833.712,1381.25 843.452,1381.37 853.191,1381.48 862.93,1381.58 872.67,1381.68 882.409,1381.78 892.148,1381.87 901.888,1381.95 911.627,1382.04 921.366,1382.12 931.106,1382.19 940.845,1382.26 950.584,1382.33 960.324,1382.4 970.063,1382.47 979.802,1382.53 989.542,1382.59 999.281,1382.64 1009.02,1382.7 1018.76,1382.75 1028.5,1382.8 1038.24,1382.85 1047.98,1382.9 1057.72,1382.94 1067.46,1382.99 1077.2,1383.03 1086.93,1383.07 1096.67,1383.11 1106.41,1383.15 1116.15,1383.19 1125.89,1383.22 1135.63,1383.26 1145.37,1383.29 1155.11,1383.32 1164.85,1383.35 1174.59,1383.38 1184.33,1383.41 1194.07,1383.44 1203.81,1383.47 1213.55,1383.49 1223.29,1383.52 1233.02,1383.54 1242.76,1383.57 1252.5,1383.59 1262.24,1383.61 1271.98,1383.63 1281.72,1383.66 1291.46,1383.68 1301.2,1383.7 1310.94,1383.72 1320.68,1383.73 1330.42,1383.75 1340.16,1383.77 1349.9,1383.79 1359.64,1383.8 1369.38,1383.82 1379.11,1383.84 1388.85,1383.85 1398.59,1383.87 1408.33,1383.88 1418.07,1383.9 1427.81,1383.91 1437.55,1383.92 1447.29,1383.93 1457.03,1383.95 1466.77,1383.96 1476.51,1383.97 1486.25,1383.98 1495.99,1383.99 1505.73,1384 1515.47,1384.02 1525.2,1384.03 1534.94,1384.04 1544.68,1384.04 1554.42,1384.05 1564.16,1384.06 1573.9,1384.07 1583.64,1384.08 1593.38,1384.09 1603.12,1384.1 1612.86,1384.1 1622.6,1384.11 1632.34,1384.12 1642.08,1384.13 1651.82,1384.13 1661.56,1384.14 1671.29,1384.14 1681.03,1384.15 1690.77,1384.16 1700.51,1384.16 1710.25,1384.17 1719.99,1384.17 1729.73,1384.18 1739.47,1384.18 1749.21,1384.19 1758.95,1384.19 1768.69,1384.19 1778.43,1384.2 1788.17,1384.2 1797.91,1384.2 1807.65,1384.21 1817.38,1384.21 1827.12,1384.21 1836.86,1384.21 1846.6,1384.22 1856.34,1384.22 1866.08,1384.22 1875.82,1384.22 1885.56,1384.22 1895.3,1384.22 1905.04,1384.22 1914.78,1384.22 1924.52,1384.22 1934.26,1384.22 1944,1384.22 1953.74,1384.22 1963.47,1384.22 1973.21,1384.21 1982.95,1384.21 1992.69,1384.21 2002.43,1384.2 2012.17,1384.2 2021.91,1384.19 2031.65,1384.19 2041.39,1384.18 2051.13,1384.17 2060.87,1384.17 2070.61,1384.16 2080.35,1384.15 2090.09,1384.14 2099.83,1384.12 2109.56,1384.11 2119.3,1384.09 2129.04,1384.08 2138.78,1384.06 2148.52,1384.03 2158.26,1384.01 2168,1383.98 2177.74,1383.94 2187.48,1383.9 2197.22,1383.86 2206.96,1383.8 2216.7,1383.73 2226.44,1383.65 2236.18,1383.55 2245.92,1383.42 2255.65,1383.26 2265.39,1383.04 2275.13,1382.75 2284.87,1382.64 2294.61,1367.31 "/>
<path clip-path="url(#clip790)" d="M1876.61 248.629 L2284.28 248.629 L2284.28 93.1086 L1876.61 93.1086  Z" fill="#ffffff" fill-rule="evenodd" fill-opacity="1"/>
<polyline clip-path="url(#clip790)" style="stroke:#000000; stroke-linecap:round; stroke-linejoin:round; stroke-width:4; stroke-opacity:1; fill:none" points="1876.61,248.629 2284.28,248.629 2284.28,93.1086 1876.61,93.1086 1876.61,248.629 "/>
<polyline clip-path="url(#clip790)" style="stroke:#009af9; stroke-linecap:round; stroke-linejoin:round; stroke-width:4; stroke-opacity:1; fill:none" points="1899.44,144.949 2036.4,144.949 "/>
<path clip-path="url(#clip790)" d="M2059.23 127.669 L2081.08 127.669 L2081.08 131.604 L2063.9 131.604 L2063.9 141.835 L2080.36 141.835 L2080.36 145.77 L2063.9 145.77 L2063.9 158.293 L2081.5 158.293 L2081.5 162.229 L2059.23 162.229 L2059.23 127.669 Z" fill="#000000" fill-rule="evenodd" fill-opacity="1" /><path clip-path="url(#clip790)" d="M2110.55 136.303 L2101.17 148.919 L2111.03 162.229 L2106.01 162.229 L2098.46 152.043 L2090.92 162.229 L2085.89 162.229 L2095.96 148.664 L2086.75 136.303 L2091.77 136.303 L2098.65 145.539 L2105.52 136.303 L2110.55 136.303 Z" fill="#000000" fill-rule="evenodd" fill-opacity="1" /><path clip-path="url(#clip790)" d="M2128.83 149.196 Q2123.67 149.196 2121.68 150.377 Q2119.69 151.557 2119.69 154.405 Q2119.69 156.673 2121.17 158.016 Q2122.68 159.335 2125.25 159.335 Q2128.79 159.335 2130.92 156.835 Q2133.07 154.312 2133.07 150.145 L2133.07 149.196 L2128.83 149.196 M2137.33 147.437 L2137.33 162.229 L2133.07 162.229 L2133.07 158.293 Q2131.61 160.655 2129.44 161.789 Q2127.26 162.9 2124.11 162.9 Q2120.13 162.9 2117.77 160.678 Q2115.43 158.432 2115.43 154.682 Q2115.43 150.307 2118.35 148.085 Q2121.29 145.863 2127.1 145.863 L2133.07 145.863 L2133.07 145.446 Q2133.07 142.507 2131.13 140.909 Q2129.2 139.289 2125.71 139.289 Q2123.49 139.289 2121.38 139.821 Q2119.27 140.354 2117.33 141.419 L2117.33 137.483 Q2119.67 136.581 2121.87 136.141 Q2124.07 135.678 2126.15 135.678 Q2131.77 135.678 2134.55 138.594 Q2137.33 141.511 2137.33 147.437 Z" fill="#000000" fill-rule="evenodd" fill-opacity="1" /><path clip-path="url(#clip790)" d="M2164.76 137.298 L2164.76 141.28 Q2162.95 140.284 2161.13 139.798 Q2159.32 139.289 2157.47 139.289 Q2153.32 139.289 2151.03 141.928 Q2148.74 144.544 2148.74 149.289 Q2148.74 154.034 2151.03 156.673 Q2153.32 159.289 2157.47 159.289 Q2159.32 159.289 2161.13 158.803 Q2162.95 158.293 2164.76 157.298 L2164.76 161.233 Q2162.98 162.067 2161.06 162.483 Q2159.16 162.9 2157 162.9 Q2151.15 162.9 2147.7 159.219 Q2144.25 155.539 2144.25 149.289 Q2144.25 142.946 2147.72 139.312 Q2151.22 135.678 2157.28 135.678 Q2159.25 135.678 2161.13 136.095 Q2163 136.488 2164.76 137.298 Z" fill="#000000" fill-rule="evenodd" fill-opacity="1" /><path clip-path="url(#clip790)" d="M2176.38 128.942 L2176.38 136.303 L2185.15 136.303 L2185.15 139.613 L2176.38 139.613 L2176.38 153.687 Q2176.38 156.858 2177.24 157.761 Q2178.12 158.664 2180.78 158.664 L2185.15 158.664 L2185.15 162.229 L2180.78 162.229 Q2175.85 162.229 2173.97 160.4 Q2172.1 158.548 2172.1 153.687 L2172.1 139.613 L2168.97 139.613 L2168.97 136.303 L2172.1 136.303 L2172.1 128.942 L2176.38 128.942 Z" fill="#000000" fill-rule="evenodd" fill-opacity="1" /><polyline clip-path="url(#clip790)" style="stroke:#e26f46; stroke-linecap:round; stroke-linejoin:round; stroke-width:4; stroke-opacity:1; fill:none" points="1899.44,196.789 2036.4,196.789 "/>
<path clip-path="url(#clip790)" d="M2059.23 179.509 L2081.08 179.509 L2081.08 183.444 L2063.9 183.444 L2063.9 193.675 L2080.36 193.675 L2080.36 197.61 L2063.9 197.61 L2063.9 210.133 L2081.5 210.133 L2081.5 214.069 L2059.23 214.069 L2059.23 179.509 Z" fill="#000000" fill-rule="evenodd" fill-opacity="1" /><path clip-path="url(#clip790)" d="M2105.52 188.907 L2105.52 192.934 Q2103.72 192.009 2101.77 191.546 Q2099.83 191.083 2097.75 191.083 Q2094.57 191.083 2092.98 192.055 Q2091.4 193.027 2091.4 194.971 Q2091.4 196.453 2092.54 197.309 Q2093.67 198.143 2097.1 198.907 L2098.56 199.231 Q2103.09 200.203 2104.99 201.985 Q2106.91 203.745 2106.91 206.916 Q2106.91 210.527 2104.04 212.633 Q2101.19 214.74 2096.19 214.74 Q2094.11 214.74 2091.84 214.323 Q2089.6 213.93 2087.1 213.12 L2087.1 208.721 Q2089.46 209.948 2091.75 210.573 Q2094.04 211.175 2096.29 211.175 Q2099.3 211.175 2100.92 210.157 Q2102.54 209.115 2102.54 207.24 Q2102.54 205.504 2101.36 204.578 Q2100.2 203.652 2096.24 202.796 L2094.76 202.448 Q2090.8 201.615 2089.04 199.902 Q2087.28 198.166 2087.28 195.157 Q2087.28 191.499 2089.88 189.509 Q2092.47 187.518 2097.24 187.518 Q2099.6 187.518 2101.68 187.865 Q2103.76 188.212 2105.52 188.907 Z" fill="#000000" fill-rule="evenodd" fill-opacity="1" /><path clip-path="url(#clip790)" d="M2117.91 180.782 L2117.91 188.143 L2126.68 188.143 L2126.68 191.453 L2117.91 191.453 L2117.91 205.527 Q2117.91 208.698 2118.76 209.601 Q2119.64 210.504 2122.31 210.504 L2126.68 210.504 L2126.68 214.069 L2122.31 214.069 Q2117.38 214.069 2115.5 212.24 Q2113.63 210.388 2113.63 205.527 L2113.63 191.453 L2110.5 191.453 L2110.5 188.143 L2113.63 188.143 L2113.63 180.782 L2117.91 180.782 Z" fill="#000000" fill-rule="evenodd" fill-opacity="1" /><path clip-path="url(#clip790)" d="M2132.28 188.143 L2136.54 188.143 L2136.54 214.069 L2132.28 214.069 L2132.28 188.143 M2132.28 178.05 L2136.54 178.05 L2136.54 183.444 L2132.28 183.444 L2132.28 178.05 Z" fill="#000000" fill-rule="evenodd" fill-opacity="1" /><path clip-path="url(#clip790)" d="M2165.64 193.12 Q2167.24 190.249 2169.46 188.884 Q2171.68 187.518 2174.69 187.518 Q2178.74 187.518 2180.94 190.365 Q2183.14 193.189 2183.14 198.421 L2183.14 214.069 L2178.86 214.069 L2178.86 198.559 Q2178.86 194.833 2177.54 193.027 Q2176.22 191.222 2173.51 191.222 Q2170.2 191.222 2168.28 193.421 Q2166.36 195.62 2166.36 199.416 L2166.36 214.069 L2162.07 214.069 L2162.07 198.559 Q2162.07 194.809 2160.75 193.027 Q2159.44 191.222 2156.68 191.222 Q2153.42 191.222 2151.5 193.444 Q2149.57 195.643 2149.57 199.416 L2149.57 214.069 L2145.29 214.069 L2145.29 188.143 L2149.57 188.143 L2149.57 192.171 Q2151.03 189.786 2153.07 188.652 Q2155.11 187.518 2157.91 187.518 Q2160.73 187.518 2162.7 188.953 Q2164.69 190.388 2165.64 193.12 Z" fill="#000000" fill-rule="evenodd" fill-opacity="1" /><path clip-path="url(#clip790)" d="M2203.42 201.036 Q2198.25 201.036 2196.26 202.217 Q2194.27 203.397 2194.27 206.245 Q2194.27 208.513 2195.75 209.856 Q2197.26 211.175 2199.83 211.175 Q2203.37 211.175 2205.5 208.675 Q2207.65 206.152 2207.65 201.985 L2207.65 201.036 L2203.42 201.036 M2211.91 199.277 L2211.91 214.069 L2207.65 214.069 L2207.65 210.133 Q2206.19 212.495 2204.02 213.629 Q2201.84 214.74 2198.69 214.74 Q2194.71 214.74 2192.35 212.518 Q2190.01 210.272 2190.01 206.522 Q2190.01 202.147 2192.93 199.925 Q2195.87 197.703 2201.68 197.703 L2207.65 197.703 L2207.65 197.286 Q2207.65 194.347 2205.71 192.749 Q2203.79 191.129 2200.29 191.129 Q2198.07 191.129 2195.96 191.661 Q2193.86 192.194 2191.91 193.259 L2191.91 189.323 Q2194.25 188.421 2196.45 187.981 Q2198.65 187.518 2200.73 187.518 Q2206.36 187.518 2209.13 190.434 Q2211.91 193.351 2211.91 199.277 Z" fill="#000000" fill-rule="evenodd" fill-opacity="1" /><path clip-path="url(#clip790)" d="M2224.9 180.782 L2224.9 188.143 L2233.67 188.143 L2233.67 191.453 L2224.9 191.453 L2224.9 205.527 Q2224.9 208.698 2225.75 209.601 Q2226.63 210.504 2229.3 210.504 L2233.67 210.504 L2233.67 214.069 L2229.3 214.069 Q2224.37 214.069 2222.49 212.24 Q2220.62 210.388 2220.62 205.527 L2220.62 191.453 L2217.49 191.453 L2217.49 188.143 L2220.62 188.143 L2220.62 180.782 L2224.9 180.782 Z" fill="#000000" fill-rule="evenodd" fill-opacity="1" /><path clip-path="url(#clip790)" d="M2261.45 200.041 L2261.45 202.124 L2241.87 202.124 Q2242.14 206.522 2244.5 208.837 Q2246.89 211.129 2251.12 211.129 Q2253.58 211.129 2255.87 210.527 Q2258.18 209.925 2260.45 208.721 L2260.45 212.749 Q2258.16 213.721 2255.75 214.231 Q2253.35 214.74 2250.87 214.74 Q2244.67 214.74 2241.03 211.129 Q2237.42 207.518 2237.42 201.36 Q2237.42 194.995 2240.85 191.268 Q2244.3 187.518 2250.13 187.518 Q2255.36 187.518 2258.39 190.897 Q2261.45 194.254 2261.45 200.041 M2257.19 198.791 Q2257.14 195.296 2255.22 193.212 Q2253.32 191.129 2250.18 191.129 Q2246.61 191.129 2244.46 193.143 Q2242.33 195.157 2242 198.814 L2257.19 198.791 Z" fill="#000000" fill-rule="evenodd" fill-opacity="1" /></svg>
