<?xml version="1.0" encoding="utf-8"?>
<svg xmlns="http://www.w3.org/2000/svg" xmlns:xlink="http://www.w3.org/1999/xlink" width="600" height="400" viewBox="0 0 2400 1600">
<defs>
  <clipPath id="clip160">
    <rect x="0" y="0" width="2400" height="1600"/>
  </clipPath>
</defs>
<path clip-path="url(#clip160)" d="M0 1600 L2400 1600 L2400 0 L0 0  Z" fill="#ffffff" fill-rule="evenodd" fill-opacity="1"/>
<defs>
  <clipPath id="clip161">
    <rect x="480" y="0" width="1681" height="1600"/>
  </clipPath>
</defs>
<path clip-path="url(#clip160)" d="M257.204 1423.18 L2352.76 1423.18 L2352.76 47.2441 L257.204 47.2441  Z" fill="#ffffff" fill-rule="evenodd" fill-opacity="1"/>
<defs>
  <clipPath id="clip162">
    <rect x="257" y="47" width="2097" height="1377"/>
  </clipPath>
</defs>
<polyline clip-path="url(#clip162)" style="stroke:#000000; stroke-linecap:round; stroke-linejoin:round; stroke-width:2; stroke-opacity:0.1; fill:none" points="316.512,1423.18 316.512,47.2441 "/>
<polyline clip-path="url(#clip162)" style="stroke:#000000; stroke-linecap:round; stroke-linejoin:round; stroke-width:2; stroke-opacity:0.1; fill:none" points="810.746,1423.18 810.746,47.2441 "/>
<polyline clip-path="url(#clip162)" style="stroke:#000000; stroke-linecap:round; stroke-linejoin:round; stroke-width:2; stroke-opacity:0.1; fill:none" points="1304.98,1423.18 1304.98,47.2441 "/>
<polyline clip-path="url(#clip162)" style="stroke:#000000; stroke-linecap:round; stroke-linejoin:round; stroke-width:2; stroke-opacity:0.1; fill:none" points="1799.21,1423.18 1799.21,47.2441 "/>
<polyline clip-path="url(#clip162)" style="stroke:#000000; stroke-linecap:round; stroke-linejoin:round; stroke-width:2; stroke-opacity:0.1; fill:none" points="2293.45,1423.18 2293.45,47.2441 "/>
<polyline clip-path="url(#clip160)" style="stroke:#000000; stroke-linecap:round; stroke-linejoin:round; stroke-width:4; stroke-opacity:1; fill:none" points="257.204,1423.18 2352.76,1423.18 "/>
<polyline clip-path="url(#clip160)" style="stroke:#000000; stroke-linecap:round; stroke-linejoin:round; stroke-width:4; stroke-opacity:1; fill:none" points="316.512,1423.18 316.512,1404.28 "/>
<polyline clip-path="url(#clip160)" style="stroke:#000000; stroke-linecap:round; stroke-linejoin:round; stroke-width:4; stroke-opacity:1; fill:none" points="810.746,1423.18 810.746,1404.28 "/>
<polyline clip-path="url(#clip160)" style="stroke:#000000; stroke-linecap:round; stroke-linejoin:round; stroke-width:4; stroke-opacity:1; fill:none" points="1304.98,1423.18 1304.98,1404.28 "/>
<polyline clip-path="url(#clip160)" style="stroke:#000000; stroke-linecap:round; stroke-linejoin:round; stroke-width:4; stroke-opacity:1; fill:none" points="1799.21,1423.18 1799.21,1404.28 "/>
<polyline clip-path="url(#clip160)" style="stroke:#000000; stroke-linecap:round; stroke-linejoin:round; stroke-width:4; stroke-opacity:1; fill:none" points="2293.45,1423.18 2293.45,1404.28 "/>
<path clip-path="url(#clip160)" d="M232.878 1468.75 L262.554 1468.75 L262.554 1472.69 L232.878 1472.69 L232.878 1468.75 Z" fill="#000000" fill-rule="evenodd" fill-opacity="1" /><path clip-path="url(#clip160)" d="M282.647 1454.1 Q279.035 1454.1 277.207 1457.66 Q275.401 1461.2 275.401 1468.33 Q275.401 1475.44 277.207 1479.01 Q279.035 1482.55 282.647 1482.55 Q286.281 1482.55 288.086 1479.01 Q289.915 1475.44 289.915 1468.33 Q289.915 1461.2 288.086 1457.66 Q286.281 1454.1 282.647 1454.1 M282.647 1450.39 Q288.457 1450.39 291.512 1455 Q294.591 1459.58 294.591 1468.33 Q294.591 1477.06 291.512 1481.67 Q288.457 1486.25 282.647 1486.25 Q276.836 1486.25 273.758 1481.67 Q270.702 1477.06 270.702 1468.33 Q270.702 1459.58 273.758 1455 Q276.836 1450.39 282.647 1450.39 Z" fill="#000000" fill-rule="evenodd" fill-opacity="1" /><path clip-path="url(#clip160)" d="M302.808 1479.7 L307.693 1479.7 L307.693 1485.58 L302.808 1485.58 L302.808 1479.7 Z" fill="#000000" fill-rule="evenodd" fill-opacity="1" /><path clip-path="url(#clip160)" d="M327.878 1454.1 Q324.267 1454.1 322.438 1457.66 Q320.632 1461.2 320.632 1468.33 Q320.632 1475.44 322.438 1479.01 Q324.267 1482.55 327.878 1482.55 Q331.512 1482.55 333.318 1479.01 Q335.146 1475.44 335.146 1468.33 Q335.146 1461.2 333.318 1457.66 Q331.512 1454.1 327.878 1454.1 M327.878 1450.39 Q333.688 1450.39 336.743 1455 Q339.822 1459.58 339.822 1468.33 Q339.822 1477.06 336.743 1481.67 Q333.688 1486.25 327.878 1486.25 Q322.068 1486.25 318.989 1481.67 Q315.933 1477.06 315.933 1468.33 Q315.933 1459.58 318.989 1455 Q322.068 1450.39 327.878 1450.39 Z" fill="#000000" fill-rule="evenodd" fill-opacity="1" /><path clip-path="url(#clip160)" d="M346.859 1451.02 L369.081 1451.02 L369.081 1453.01 L356.535 1485.58 L351.651 1485.58 L363.456 1454.96 L346.859 1454.96 L346.859 1451.02 Z" fill="#000000" fill-rule="evenodd" fill-opacity="1" /><path clip-path="url(#clip160)" d="M388.202 1454.1 Q384.59 1454.1 382.762 1457.66 Q380.956 1461.2 380.956 1468.33 Q380.956 1475.44 382.762 1479.01 Q384.59 1482.55 388.202 1482.55 Q391.836 1482.55 393.641 1479.01 Q395.47 1475.44 395.47 1468.33 Q395.47 1461.2 393.641 1457.66 Q391.836 1454.1 388.202 1454.1 M388.202 1450.39 Q394.012 1450.39 397.067 1455 Q400.146 1459.58 400.146 1468.33 Q400.146 1477.06 397.067 1481.67 Q394.012 1486.25 388.202 1486.25 Q382.391 1486.25 379.313 1481.67 Q376.257 1477.06 376.257 1468.33 Q376.257 1459.58 379.313 1455 Q382.391 1450.39 388.202 1450.39 Z" fill="#000000" fill-rule="evenodd" fill-opacity="1" /><path clip-path="url(#clip160)" d="M727.61 1468.75 L757.286 1468.75 L757.286 1472.69 L727.61 1472.69 L727.61 1468.75 Z" fill="#000000" fill-rule="evenodd" fill-opacity="1" /><path clip-path="url(#clip160)" d="M777.378 1454.1 Q773.767 1454.1 771.938 1457.66 Q770.133 1461.2 770.133 1468.33 Q770.133 1475.44 771.938 1479.01 Q773.767 1482.55 777.378 1482.55 Q781.012 1482.55 782.818 1479.01 Q784.647 1475.44 784.647 1468.33 Q784.647 1461.2 782.818 1457.66 Q781.012 1454.1 777.378 1454.1 M777.378 1450.39 Q783.188 1450.39 786.244 1455 Q789.323 1459.58 789.323 1468.33 Q789.323 1477.06 786.244 1481.67 Q783.188 1486.25 777.378 1486.25 Q771.568 1486.25 768.489 1481.67 Q765.434 1477.06 765.434 1468.33 Q765.434 1459.58 768.489 1455 Q771.568 1450.39 777.378 1450.39 Z" fill="#000000" fill-rule="evenodd" fill-opacity="1" /><path clip-path="url(#clip160)" d="M797.54 1479.7 L802.424 1479.7 L802.424 1485.58 L797.54 1485.58 L797.54 1479.7 Z" fill="#000000" fill-rule="evenodd" fill-opacity="1" /><path clip-path="url(#clip160)" d="M822.609 1454.1 Q818.998 1454.1 817.17 1457.66 Q815.364 1461.2 815.364 1468.33 Q815.364 1475.44 817.17 1479.01 Q818.998 1482.55 822.609 1482.55 Q826.244 1482.55 828.049 1479.01 Q829.878 1475.44 829.878 1468.33 Q829.878 1461.2 828.049 1457.66 Q826.244 1454.1 822.609 1454.1 M822.609 1450.39 Q828.42 1450.39 831.475 1455 Q834.554 1459.58 834.554 1468.33 Q834.554 1477.06 831.475 1481.67 Q828.42 1486.25 822.609 1486.25 Q816.799 1486.25 813.721 1481.67 Q810.665 1477.06 810.665 1468.33 Q810.665 1459.58 813.721 1455 Q816.799 1450.39 822.609 1450.39 Z" fill="#000000" fill-rule="evenodd" fill-opacity="1" /><path clip-path="url(#clip160)" d="M853.35 1466.44 Q850.202 1466.44 848.35 1468.59 Q846.521 1470.74 846.521 1474.49 Q846.521 1478.22 848.35 1480.39 Q850.202 1482.55 853.35 1482.55 Q856.498 1482.55 858.327 1480.39 Q860.179 1478.22 860.179 1474.49 Q860.179 1470.74 858.327 1468.59 Q856.498 1466.44 853.35 1466.44 M862.632 1451.78 L862.632 1456.04 Q860.873 1455.21 859.068 1454.77 Q857.285 1454.33 855.526 1454.33 Q850.896 1454.33 848.443 1457.45 Q846.012 1460.58 845.665 1466.9 Q847.031 1464.89 849.091 1463.82 Q851.151 1462.73 853.628 1462.73 Q858.836 1462.73 861.845 1465.9 Q864.878 1469.05 864.878 1474.49 Q864.878 1479.82 861.73 1483.03 Q858.581 1486.25 853.35 1486.25 Q847.355 1486.25 844.183 1481.67 Q841.012 1477.06 841.012 1468.33 Q841.012 1460.14 844.901 1455.28 Q848.79 1450.39 855.341 1450.39 Q857.1 1450.39 858.882 1450.74 Q860.688 1451.09 862.632 1451.78 Z" fill="#000000" fill-rule="evenodd" fill-opacity="1" /><path clip-path="url(#clip160)" d="M872.979 1451.02 L891.336 1451.02 L891.336 1454.96 L877.262 1454.96 L877.262 1463.43 Q878.28 1463.08 879.299 1462.92 Q880.317 1462.73 881.336 1462.73 Q887.123 1462.73 890.503 1465.9 Q893.882 1469.08 893.882 1474.49 Q893.882 1480.07 890.41 1483.17 Q886.938 1486.25 880.618 1486.25 Q878.442 1486.25 876.174 1485.88 Q873.929 1485.51 871.521 1484.77 L871.521 1480.07 Q873.604 1481.2 875.827 1481.76 Q878.049 1482.32 880.526 1482.32 Q884.53 1482.32 886.868 1480.21 Q889.206 1478.1 889.206 1474.49 Q889.206 1470.88 886.868 1468.77 Q884.53 1466.67 880.526 1466.67 Q878.651 1466.67 876.776 1467.08 Q874.924 1467.5 872.979 1468.38 L872.979 1451.02 Z" fill="#000000" fill-rule="evenodd" fill-opacity="1" /><path clip-path="url(#clip160)" d="M1221.35 1468.75 L1251.02 1468.75 L1251.02 1472.69 L1221.35 1472.69 L1221.35 1468.75 Z" fill="#000000" fill-rule="evenodd" fill-opacity="1" /><path clip-path="url(#clip160)" d="M1271.11 1454.1 Q1267.5 1454.1 1265.67 1457.66 Q1263.87 1461.2 1263.87 1468.33 Q1263.87 1475.44 1265.67 1479.01 Q1267.5 1482.55 1271.11 1482.55 Q1274.75 1482.55 1276.55 1479.01 Q1278.38 1475.44 1278.38 1468.33 Q1278.38 1461.2 1276.55 1457.66 Q1274.75 1454.1 1271.11 1454.1 M1271.11 1450.39 Q1276.92 1450.39 1279.98 1455 Q1283.06 1459.58 1283.06 1468.33 Q1283.06 1477.06 1279.98 1481.67 Q1276.92 1486.25 1271.11 1486.25 Q1265.3 1486.25 1262.23 1481.67 Q1259.17 1477.06 1259.17 1468.33 Q1259.17 1459.58 1262.23 1455 Q1265.3 1450.39 1271.11 1450.39 Z" fill="#000000" fill-rule="evenodd" fill-opacity="1" /><path clip-path="url(#clip160)" d="M1291.28 1479.7 L1296.16 1479.7 L1296.16 1485.58 L1291.28 1485.58 L1291.28 1479.7 Z" fill="#000000" fill-rule="evenodd" fill-opacity="1" /><path clip-path="url(#clip160)" d="M1316.35 1454.1 Q1312.73 1454.1 1310.91 1457.66 Q1309.1 1461.2 1309.1 1468.33 Q1309.1 1475.44 1310.91 1479.01 Q1312.73 1482.55 1316.35 1482.55 Q1319.98 1482.55 1321.79 1479.01 Q1323.61 1475.44 1323.61 1468.33 Q1323.61 1461.2 1321.79 1457.66 Q1319.98 1454.1 1316.35 1454.1 M1316.35 1450.39 Q1322.16 1450.39 1325.21 1455 Q1328.29 1459.58 1328.29 1468.33 Q1328.29 1477.06 1325.21 1481.67 Q1322.16 1486.25 1316.35 1486.25 Q1310.54 1486.25 1307.46 1481.67 Q1304.4 1477.06 1304.4 1468.33 Q1304.4 1459.58 1307.46 1455 Q1310.54 1450.39 1316.35 1450.39 Z" fill="#000000" fill-rule="evenodd" fill-opacity="1" /><path clip-path="url(#clip160)" d="M1347.09 1466.44 Q1343.94 1466.44 1342.09 1468.59 Q1340.26 1470.74 1340.26 1474.49 Q1340.26 1478.22 1342.09 1480.39 Q1343.94 1482.55 1347.09 1482.55 Q1350.23 1482.55 1352.06 1480.39 Q1353.91 1478.22 1353.91 1474.49 Q1353.91 1470.74 1352.06 1468.59 Q1350.23 1466.44 1347.09 1466.44 M1356.37 1451.78 L1356.37 1456.04 Q1354.61 1455.21 1352.8 1454.77 Q1351.02 1454.33 1349.26 1454.33 Q1344.63 1454.33 1342.18 1457.45 Q1339.75 1460.58 1339.4 1466.9 Q1340.77 1464.89 1342.83 1463.82 Q1344.89 1462.73 1347.36 1462.73 Q1352.57 1462.73 1355.58 1465.9 Q1358.61 1469.05 1358.61 1474.49 Q1358.61 1479.82 1355.47 1483.03 Q1352.32 1486.25 1347.09 1486.25 Q1341.09 1486.25 1337.92 1481.67 Q1334.75 1477.06 1334.75 1468.33 Q1334.75 1460.14 1338.64 1455.28 Q1342.53 1450.39 1349.08 1450.39 Q1350.84 1450.39 1352.62 1450.74 Q1354.42 1451.09 1356.37 1451.78 Z" fill="#000000" fill-rule="evenodd" fill-opacity="1" /><path clip-path="url(#clip160)" d="M1376.67 1454.1 Q1373.06 1454.1 1371.23 1457.66 Q1369.42 1461.2 1369.42 1468.33 Q1369.42 1475.44 1371.23 1479.01 Q1373.06 1482.55 1376.67 1482.55 Q1380.3 1482.55 1382.11 1479.01 Q1383.94 1475.44 1383.94 1468.33 Q1383.94 1461.2 1382.11 1457.66 Q1380.3 1454.1 1376.67 1454.1 M1376.67 1450.39 Q1382.48 1450.39 1385.54 1455 Q1388.61 1459.58 1388.61 1468.33 Q1388.61 1477.06 1385.54 1481.67 Q1382.48 1486.25 1376.67 1486.25 Q1370.86 1486.25 1367.78 1481.67 Q1364.73 1477.06 1364.73 1468.33 Q1364.73 1459.58 1367.78 1455 Q1370.86 1450.39 1376.67 1450.39 Z" fill="#000000" fill-rule="evenodd" fill-opacity="1" /><path clip-path="url(#clip160)" d="M1716.08 1468.75 L1745.75 1468.75 L1745.75 1472.69 L1716.08 1472.69 L1716.08 1468.75 Z" fill="#000000" fill-rule="evenodd" fill-opacity="1" /><path clip-path="url(#clip160)" d="M1765.85 1454.1 Q1762.23 1454.1 1760.41 1457.66 Q1758.6 1461.2 1758.6 1468.33 Q1758.6 1475.44 1760.41 1479.01 Q1762.23 1482.55 1765.85 1482.55 Q1769.48 1482.55 1771.29 1479.01 Q1773.11 1475.44 1773.11 1468.33 Q1773.11 1461.2 1771.29 1457.66 Q1769.48 1454.1 1765.85 1454.1 M1765.85 1450.39 Q1771.66 1450.39 1774.71 1455 Q1777.79 1459.58 1777.79 1468.33 Q1777.79 1477.06 1774.71 1481.67 Q1771.66 1486.25 1765.85 1486.25 Q1760.04 1486.25 1756.96 1481.67 Q1753.9 1477.06 1753.9 1468.33 Q1753.9 1459.58 1756.96 1455 Q1760.04 1450.39 1765.85 1450.39 Z" fill="#000000" fill-rule="evenodd" fill-opacity="1" /><path clip-path="url(#clip160)" d="M1786.01 1479.7 L1790.89 1479.7 L1790.89 1485.58 L1786.01 1485.58 L1786.01 1479.7 Z" fill="#000000" fill-rule="evenodd" fill-opacity="1" /><path clip-path="url(#clip160)" d="M1811.08 1454.1 Q1807.47 1454.1 1805.64 1457.66 Q1803.83 1461.2 1803.83 1468.33 Q1803.83 1475.44 1805.64 1479.01 Q1807.47 1482.55 1811.08 1482.55 Q1814.71 1482.55 1816.52 1479.01 Q1818.35 1475.44 1818.35 1468.33 Q1818.35 1461.2 1816.52 1457.66 Q1814.71 1454.1 1811.08 1454.1 M1811.08 1450.39 Q1816.89 1450.39 1819.94 1455 Q1823.02 1459.58 1823.02 1468.33 Q1823.02 1477.06 1819.94 1481.67 Q1816.89 1486.25 1811.08 1486.25 Q1805.27 1486.25 1802.19 1481.67 Q1799.13 1477.06 1799.13 1468.33 Q1799.13 1459.58 1802.19 1455 Q1805.27 1450.39 1811.08 1450.39 Z" fill="#000000" fill-rule="evenodd" fill-opacity="1" /><path clip-path="url(#clip160)" d="M1831.29 1451.02 L1849.64 1451.02 L1849.64 1454.96 L1835.57 1454.96 L1835.57 1463.43 Q1836.59 1463.08 1837.6 1462.92 Q1838.62 1462.73 1839.64 1462.73 Q1845.43 1462.73 1848.81 1465.9 Q1852.19 1469.08 1852.19 1474.49 Q1852.19 1480.07 1848.72 1483.17 Q1845.24 1486.25 1838.92 1486.25 Q1836.75 1486.25 1834.48 1485.88 Q1832.23 1485.51 1829.83 1484.77 L1829.83 1480.07 Q1831.91 1481.2 1834.13 1481.76 Q1836.35 1482.32 1838.83 1482.32 Q1842.84 1482.32 1845.17 1480.21 Q1847.51 1478.1 1847.51 1474.49 Q1847.51 1470.88 1845.17 1468.77 Q1842.84 1466.67 1838.83 1466.67 Q1836.96 1466.67 1835.08 1467.08 Q1833.23 1467.5 1831.29 1468.38 L1831.29 1451.02 Z" fill="#000000" fill-rule="evenodd" fill-opacity="1" /><path clip-path="url(#clip160)" d="M1861.45 1451.02 L1879.8 1451.02 L1879.8 1454.96 L1865.73 1454.96 L1865.73 1463.43 Q1866.75 1463.08 1867.77 1462.92 Q1868.79 1462.73 1869.8 1462.73 Q1875.59 1462.73 1878.97 1465.9 Q1882.35 1469.08 1882.35 1474.49 Q1882.35 1480.07 1878.88 1483.17 Q1875.41 1486.25 1869.09 1486.25 Q1866.91 1486.25 1864.64 1485.88 Q1862.4 1485.51 1859.99 1484.77 L1859.99 1480.07 Q1862.07 1481.2 1864.29 1481.76 Q1866.52 1482.32 1868.99 1482.32 Q1873 1482.32 1875.34 1480.21 Q1877.67 1478.1 1877.67 1474.49 Q1877.67 1470.88 1875.34 1468.77 Q1873 1466.67 1868.99 1466.67 Q1867.12 1466.67 1865.24 1467.08 Q1863.39 1467.5 1861.45 1468.38 L1861.45 1451.02 Z" fill="#000000" fill-rule="evenodd" fill-opacity="1" /><path clip-path="url(#clip160)" d="M2209.81 1468.75 L2239.49 1468.75 L2239.49 1472.69 L2209.81 1472.69 L2209.81 1468.75 Z" fill="#000000" fill-rule="evenodd" fill-opacity="1" /><path clip-path="url(#clip160)" d="M2259.58 1454.1 Q2255.97 1454.1 2254.14 1457.66 Q2252.34 1461.2 2252.34 1468.33 Q2252.34 1475.44 2254.14 1479.01 Q2255.97 1482.55 2259.58 1482.55 Q2263.22 1482.55 2265.02 1479.01 Q2266.85 1475.44 2266.85 1468.33 Q2266.85 1461.2 2265.02 1457.66 Q2263.22 1454.1 2259.58 1454.1 M2259.58 1450.39 Q2265.39 1450.39 2268.45 1455 Q2271.53 1459.58 2271.53 1468.33 Q2271.53 1477.06 2268.45 1481.67 Q2265.39 1486.25 2259.58 1486.25 Q2253.77 1486.25 2250.69 1481.67 Q2247.64 1477.06 2247.64 1468.33 Q2247.64 1459.58 2250.69 1455 Q2253.77 1450.39 2259.58 1450.39 Z" fill="#000000" fill-rule="evenodd" fill-opacity="1" /><path clip-path="url(#clip160)" d="M2279.74 1479.7 L2284.63 1479.7 L2284.63 1485.58 L2279.74 1485.58 L2279.74 1479.7 Z" fill="#000000" fill-rule="evenodd" fill-opacity="1" /><path clip-path="url(#clip160)" d="M2304.81 1454.1 Q2301.2 1454.1 2299.37 1457.66 Q2297.57 1461.2 2297.57 1468.33 Q2297.57 1475.44 2299.37 1479.01 Q2301.2 1482.55 2304.81 1482.55 Q2308.45 1482.55 2310.25 1479.01 Q2312.08 1475.44 2312.08 1468.33 Q2312.08 1461.2 2310.25 1457.66 Q2308.45 1454.1 2304.81 1454.1 M2304.81 1450.39 Q2310.62 1450.39 2313.68 1455 Q2316.76 1459.58 2316.76 1468.33 Q2316.76 1477.06 2313.68 1481.67 Q2310.62 1486.25 2304.81 1486.25 Q2299 1486.25 2295.92 1481.67 Q2292.87 1477.06 2292.87 1468.33 Q2292.87 1459.58 2295.92 1455 Q2299 1450.39 2304.81 1450.39 Z" fill="#000000" fill-rule="evenodd" fill-opacity="1" /><path clip-path="url(#clip160)" d="M2325.02 1451.02 L2343.38 1451.02 L2343.38 1454.96 L2329.3 1454.96 L2329.3 1463.43 Q2330.32 1463.08 2331.34 1462.92 Q2332.36 1462.73 2333.38 1462.73 Q2339.17 1462.73 2342.54 1465.9 Q2345.92 1469.08 2345.92 1474.49 Q2345.92 1480.07 2342.45 1483.17 Q2338.98 1486.25 2332.66 1486.25 Q2330.48 1486.25 2328.22 1485.88 Q2325.97 1485.51 2323.56 1484.77 L2323.56 1480.07 Q2325.65 1481.2 2327.87 1481.76 Q2330.09 1482.32 2332.57 1482.32 Q2336.57 1482.32 2338.91 1480.21 Q2341.25 1478.1 2341.25 1474.49 Q2341.25 1470.88 2338.91 1468.77 Q2336.57 1466.67 2332.57 1466.67 Q2330.69 1466.67 2328.82 1467.08 Q2326.97 1467.5 2325.02 1468.38 L2325.02 1451.02 Z" fill="#000000" fill-rule="evenodd" fill-opacity="1" /><path clip-path="url(#clip160)" d="M2365.14 1454.1 Q2361.53 1454.1 2359.7 1457.66 Q2357.89 1461.2 2357.89 1468.33 Q2357.89 1475.44 2359.7 1479.01 Q2361.53 1482.55 2365.14 1482.55 Q2368.77 1482.55 2370.58 1479.01 Q2372.41 1475.44 2372.41 1468.33 Q2372.41 1461.2 2370.58 1457.66 Q2368.77 1454.1 2365.14 1454.1 M2365.14 1450.39 Q2370.95 1450.39 2374 1455 Q2377.08 1459.58 2377.08 1468.33 Q2377.08 1477.06 2374 1481.67 Q2370.95 1486.25 2365.14 1486.25 Q2359.33 1486.25 2356.25 1481.67 Q2353.19 1477.06 2353.19 1468.33 Q2353.19 1459.58 2356.25 1455 Q2359.33 1450.39 2365.14 1450.39 Z" fill="#000000" fill-rule="evenodd" fill-opacity="1" /><path clip-path="url(#clip160)" d="M1217.87 1548.82 Q1214.3 1548.06 1212.39 1545.99 Q1210.48 1543.95 1210.48 1540.99 Q1210.48 1536.5 1214.11 1533.99 Q1217.71 1531.5 1223.94 1531.5 Q1226.36 1531.5 1229.07 1531.89 Q1231.77 1532.27 1234.89 1533.03 L1234.89 1538.35 Q1231.81 1537.42 1229.26 1537.01 Q1226.68 1536.6 1224.42 1536.6 Q1220.63 1536.6 1218.44 1538.06 Q1216.21 1539.53 1216.21 1541.56 Q1216.21 1543.79 1218.37 1545.22 Q1220.51 1546.62 1224.2 1546.62 L1229.13 1546.62 L1229.13 1551.46 L1224.42 1551.46 Q1220.06 1551.46 1217.77 1553.08 Q1215.29 1554.87 1215.29 1557.67 Q1215.29 1560.53 1217.96 1562.31 Q1220.67 1564.1 1225.47 1564.1 Q1228.43 1564.1 1231.14 1563.52 Q1233.84 1562.92 1236.1 1561.74 L1236.1 1567.18 Q1233.24 1568.08 1230.56 1568.52 Q1227.86 1568.97 1225.31 1568.97 Q1217.74 1568.97 1213.63 1566.07 Q1209.53 1563.17 1209.53 1557.67 Q1209.53 1554.23 1211.72 1551.91 Q1213.92 1549.58 1217.87 1548.82 Z" fill="#000000" fill-rule="evenodd" fill-opacity="1" /><path clip-path="url(#clip160)" d="M1290.12 1533.45 L1290.12 1538.98 Q1287.63 1537.71 1284.96 1537.07 Q1282.29 1536.44 1279.42 1536.44 Q1275.06 1536.44 1272.86 1537.77 Q1270.7 1539.11 1270.7 1541.79 Q1270.7 1543.82 1272.26 1545 Q1273.82 1546.15 1278.53 1547.2 L1280.54 1547.64 Q1286.77 1548.98 1289.38 1551.43 Q1292.03 1553.85 1292.03 1558.21 Q1292.03 1563.17 1288.08 1566.07 Q1284.16 1568.97 1277.29 1568.97 Q1274.42 1568.97 1271.31 1568.39 Q1268.22 1567.85 1264.78 1566.74 L1264.78 1560.69 Q1268.03 1562.38 1271.18 1563.24 Q1274.33 1564.07 1277.42 1564.07 Q1281.55 1564.07 1283.78 1562.66 Q1286.01 1561.23 1286.01 1558.65 Q1286.01 1556.27 1284.39 1554.99 Q1282.8 1553.72 1277.35 1552.54 L1275.32 1552.07 Q1269.87 1550.92 1267.45 1548.56 Q1265.04 1546.18 1265.04 1542.04 Q1265.04 1537.01 1268.6 1534.27 Q1272.16 1531.54 1278.72 1531.54 Q1281.97 1531.54 1284.83 1532.01 Q1287.7 1532.49 1290.12 1533.45 Z" fill="#000000" fill-rule="evenodd" fill-opacity="1" /><path clip-path="url(#clip160)" d="M1330.98 1546.53 L1330.98 1568.04 L1325.13 1568.04 L1325.13 1546.72 Q1325.13 1541.66 1323.15 1539.14 Q1321.18 1536.63 1317.23 1536.63 Q1312.49 1536.63 1309.75 1539.65 Q1307.02 1542.68 1307.02 1547.9 L1307.02 1568.04 L1301.13 1568.04 L1301.13 1518.52 L1307.02 1518.52 L1307.02 1537.93 Q1309.12 1534.72 1311.95 1533.13 Q1314.81 1531.54 1318.54 1531.54 Q1324.68 1531.54 1327.83 1535.36 Q1330.98 1539.14 1330.98 1546.53 Z" fill="#000000" fill-rule="evenodd" fill-opacity="1" /><path clip-path="url(#clip160)" d="M1342.66 1532.4 L1348.52 1532.4 L1348.52 1568.04 L1342.66 1568.04 L1342.66 1532.4 M1342.66 1518.52 L1348.52 1518.52 L1348.52 1525.93 L1342.66 1525.93 L1342.66 1518.52 Z" fill="#000000" fill-rule="evenodd" fill-opacity="1" /><path clip-path="url(#clip160)" d="M1378.82 1518.52 L1378.82 1523.39 L1373.22 1523.39 Q1370.07 1523.39 1368.83 1524.66 Q1367.62 1525.93 1367.62 1529.24 L1367.62 1532.4 L1377.26 1532.4 L1377.26 1536.95 L1367.62 1536.95 L1367.62 1568.04 L1361.73 1568.04 L1361.73 1536.95 L1356.13 1536.95 L1356.13 1532.4 L1361.73 1532.4 L1361.73 1529.91 Q1361.73 1523.96 1364.5 1521.26 Q1367.27 1518.52 1373.28 1518.52 L1378.82 1518.52 Z" fill="#000000" fill-rule="evenodd" fill-opacity="1" /><path clip-path="url(#clip160)" d="M1388.37 1522.27 L1388.37 1532.4 L1400.43 1532.4 L1400.43 1536.95 L1388.37 1536.95 L1388.37 1556.3 Q1388.37 1560.66 1389.55 1561.9 Q1390.76 1563.14 1394.42 1563.14 L1400.43 1563.14 L1400.43 1568.04 L1394.42 1568.04 Q1387.64 1568.04 1385.06 1565.53 Q1382.48 1562.98 1382.48 1556.3 L1382.48 1536.95 L1378.19 1536.95 L1378.19 1532.4 L1382.48 1532.4 L1382.48 1522.27 L1388.37 1522.27 Z" fill="#000000" fill-rule="evenodd" fill-opacity="1" /><polyline clip-path="url(#clip162)" style="stroke:#000000; stroke-linecap:round; stroke-linejoin:round; stroke-width:2; stroke-opacity:0.1; fill:none" points="257.204,1423.18 2352.76,1423.18 "/>
<polyline clip-path="url(#clip162)" style="stroke:#000000; stroke-linecap:round; stroke-linejoin:round; stroke-width:2; stroke-opacity:0.1; fill:none" points="257.204,1079.2 2352.76,1079.2 "/>
<polyline clip-path="url(#clip162)" style="stroke:#000000; stroke-linecap:round; stroke-linejoin:round; stroke-width:2; stroke-opacity:0.1; fill:none" points="257.204,735.212 2352.76,735.212 "/>
<polyline clip-path="url(#clip162)" style="stroke:#000000; stroke-linecap:round; stroke-linejoin:round; stroke-width:2; stroke-opacity:0.1; fill:none" points="257.204,391.228 2352.76,391.228 "/>
<polyline clip-path="url(#clip162)" style="stroke:#000000; stroke-linecap:round; stroke-linejoin:round; stroke-width:2; stroke-opacity:0.1; fill:none" points="257.204,47.2441 2352.76,47.2441 "/>
<polyline clip-path="url(#clip160)" style="stroke:#000000; stroke-linecap:round; stroke-linejoin:round; stroke-width:4; stroke-opacity:1; fill:none" points="257.204,1423.18 257.204,47.2441 "/>
<polyline clip-path="url(#clip160)" style="stroke:#000000; stroke-linecap:round; stroke-linejoin:round; stroke-width:4; stroke-opacity:1; fill:none" points="257.204,1423.18 276.102,1423.18 "/>
<polyline clip-path="url(#clip160)" style="stroke:#000000; stroke-linecap:round; stroke-linejoin:round; stroke-width:4; stroke-opacity:1; fill:none" points="257.204,1079.2 276.102,1079.2 "/>
<polyline clip-path="url(#clip160)" style="stroke:#000000; stroke-linecap:round; stroke-linejoin:round; stroke-width:4; stroke-opacity:1; fill:none" points="257.204,735.212 276.102,735.212 "/>
<polyline clip-path="url(#clip160)" style="stroke:#000000; stroke-linecap:round; stroke-linejoin:round; stroke-width:4; stroke-opacity:1; fill:none" points="257.204,391.228 276.102,391.228 "/>
<polyline clip-path="url(#clip160)" style="stroke:#000000; stroke-linecap:round; stroke-linejoin:round; stroke-width:4; stroke-opacity:1; fill:none" points="257.204,47.2441 276.102,47.2441 "/>
<path clip-path="url(#clip160)" d="M114.26 1423.63 L143.936 1423.63 L143.936 1427.57 L114.26 1427.57 L114.26 1423.63 Z" fill="#000000" fill-rule="evenodd" fill-opacity="1" /><path clip-path="url(#clip160)" d="M154.839 1436.52 L162.477 1436.52 L162.477 1410.16 L154.167 1411.83 L154.167 1407.57 L162.431 1405.9 L167.107 1405.9 L167.107 1436.52 L174.746 1436.52 L174.746 1440.46 L154.839 1440.46 L154.839 1436.52 Z" fill="#000000" fill-rule="evenodd" fill-opacity="1" /><path clip-path="url(#clip160)" d="M184.19 1434.58 L189.075 1434.58 L189.075 1440.46 L184.19 1440.46 L184.19 1434.58 Z" fill="#000000" fill-rule="evenodd" fill-opacity="1" /><path clip-path="url(#clip160)" d="M209.26 1408.98 Q205.649 1408.98 203.82 1412.54 Q202.014 1416.08 202.014 1423.21 Q202.014 1430.32 203.82 1433.89 Q205.649 1437.43 209.26 1437.43 Q212.894 1437.43 214.699 1433.89 Q216.528 1430.32 216.528 1423.21 Q216.528 1416.08 214.699 1412.54 Q212.894 1408.98 209.26 1408.98 M209.26 1405.27 Q215.07 1405.27 218.125 1409.88 Q221.204 1414.46 221.204 1423.21 Q221.204 1431.94 218.125 1436.55 Q215.07 1441.13 209.26 1441.13 Q203.449 1441.13 200.371 1436.55 Q197.315 1431.94 197.315 1423.21 Q197.315 1414.46 200.371 1409.88 Q203.449 1405.27 209.26 1405.27 Z" fill="#000000" fill-rule="evenodd" fill-opacity="1" /><path clip-path="url(#clip160)" d="M115.256 1079.65 L144.931 1079.65 L144.931 1083.58 L115.256 1083.58 L115.256 1079.65 Z" fill="#000000" fill-rule="evenodd" fill-opacity="1" /><path clip-path="url(#clip160)" d="M165.024 1064.99 Q161.413 1064.99 159.584 1068.56 Q157.778 1072.1 157.778 1079.23 Q157.778 1086.34 159.584 1089.9 Q161.413 1093.44 165.024 1093.44 Q168.658 1093.44 170.464 1089.9 Q172.292 1086.34 172.292 1079.23 Q172.292 1072.1 170.464 1068.56 Q168.658 1064.99 165.024 1064.99 M165.024 1061.29 Q170.834 1061.29 173.889 1065.9 Q176.968 1070.48 176.968 1079.23 Q176.968 1087.96 173.889 1092.56 Q170.834 1097.15 165.024 1097.15 Q159.214 1097.15 156.135 1092.56 Q153.079 1087.96 153.079 1079.23 Q153.079 1070.48 156.135 1065.9 Q159.214 1061.29 165.024 1061.29 Z" fill="#000000" fill-rule="evenodd" fill-opacity="1" /><path clip-path="url(#clip160)" d="M185.186 1090.6 L190.07 1090.6 L190.07 1096.48 L185.186 1096.48 L185.186 1090.6 Z" fill="#000000" fill-rule="evenodd" fill-opacity="1" /><path clip-path="url(#clip160)" d="M200.301 1061.92 L218.658 1061.92 L218.658 1065.85 L204.584 1065.85 L204.584 1074.32 Q205.602 1073.98 206.621 1073.81 Q207.639 1073.63 208.658 1073.63 Q214.445 1073.63 217.824 1076.8 Q221.204 1079.97 221.204 1085.39 Q221.204 1090.97 217.732 1094.07 Q214.26 1097.15 207.94 1097.15 Q205.764 1097.15 203.496 1096.78 Q201.25 1096.41 198.843 1095.67 L198.843 1090.97 Q200.926 1092.1 203.149 1092.66 Q205.371 1093.21 207.848 1093.21 Q211.852 1093.21 214.19 1091.11 Q216.528 1089 216.528 1085.39 Q216.528 1081.78 214.19 1079.67 Q211.852 1077.56 207.848 1077.56 Q205.973 1077.56 204.098 1077.98 Q202.246 1078.4 200.301 1079.28 L200.301 1061.92 Z" fill="#000000" fill-rule="evenodd" fill-opacity="1" /><path clip-path="url(#clip160)" d="M164.028 721.011 Q160.417 721.011 158.589 724.575 Q156.783 728.117 156.783 735.247 Q156.783 742.353 158.589 745.918 Q160.417 749.46 164.028 749.46 Q167.663 749.46 169.468 745.918 Q171.297 742.353 171.297 735.247 Q171.297 728.117 169.468 724.575 Q167.663 721.011 164.028 721.011 M164.028 717.307 Q169.839 717.307 172.894 721.913 Q175.973 726.497 175.973 735.247 Q175.973 743.973 172.894 748.58 Q169.839 753.163 164.028 753.163 Q158.218 753.163 155.14 748.58 Q152.084 743.973 152.084 735.247 Q152.084 726.497 155.14 721.913 Q158.218 717.307 164.028 717.307 Z" fill="#000000" fill-rule="evenodd" fill-opacity="1" /><path clip-path="url(#clip160)" d="M184.19 746.612 L189.075 746.612 L189.075 752.492 L184.19 752.492 L184.19 746.612 Z" fill="#000000" fill-rule="evenodd" fill-opacity="1" /><path clip-path="url(#clip160)" d="M209.26 721.011 Q205.649 721.011 203.82 724.575 Q202.014 728.117 202.014 735.247 Q202.014 742.353 203.82 745.918 Q205.649 749.46 209.26 749.46 Q212.894 749.46 214.699 745.918 Q216.528 742.353 216.528 735.247 Q216.528 728.117 214.699 724.575 Q212.894 721.011 209.26 721.011 M209.26 717.307 Q215.07 717.307 218.125 721.913 Q221.204 726.497 221.204 735.247 Q221.204 743.973 218.125 748.58 Q215.07 753.163 209.26 753.163 Q203.449 753.163 200.371 748.58 Q197.315 743.973 197.315 735.247 Q197.315 726.497 200.371 721.913 Q203.449 717.307 209.26 717.307 Z" fill="#000000" fill-rule="evenodd" fill-opacity="1" /><path clip-path="url(#clip160)" d="M165.024 377.027 Q161.413 377.027 159.584 380.592 Q157.778 384.133 157.778 391.263 Q157.778 398.369 159.584 401.934 Q161.413 405.476 165.024 405.476 Q168.658 405.476 170.464 401.934 Q172.292 398.369 172.292 391.263 Q172.292 384.133 170.464 380.592 Q168.658 377.027 165.024 377.027 M165.024 373.323 Q170.834 373.323 173.889 377.929 Q176.968 382.513 176.968 391.263 Q176.968 399.99 173.889 404.596 Q170.834 409.179 165.024 409.179 Q159.214 409.179 156.135 404.596 Q153.079 399.99 153.079 391.263 Q153.079 382.513 156.135 377.929 Q159.214 373.323 165.024 373.323 Z" fill="#000000" fill-rule="evenodd" fill-opacity="1" /><path clip-path="url(#clip160)" d="M185.186 402.628 L190.07 402.628 L190.07 408.508 L185.186 408.508 L185.186 402.628 Z" fill="#000000" fill-rule="evenodd" fill-opacity="1" /><path clip-path="url(#clip160)" d="M200.301 373.948 L218.658 373.948 L218.658 377.883 L204.584 377.883 L204.584 386.355 Q205.602 386.008 206.621 385.846 Q207.639 385.661 208.658 385.661 Q214.445 385.661 217.824 388.832 Q221.204 392.003 221.204 397.42 Q221.204 402.999 217.732 406.101 Q214.26 409.179 207.94 409.179 Q205.764 409.179 203.496 408.809 Q201.25 408.439 198.843 407.698 L198.843 402.999 Q200.926 404.133 203.149 404.689 Q205.371 405.244 207.848 405.244 Q211.852 405.244 214.19 403.138 Q216.528 401.031 216.528 397.42 Q216.528 393.809 214.19 391.703 Q211.852 389.596 207.848 389.596 Q205.973 389.596 204.098 390.013 Q202.246 390.429 200.301 391.309 L200.301 373.948 Z" fill="#000000" fill-rule="evenodd" fill-opacity="1" /><path clip-path="url(#clip160)" d="M154.839 60.5889 L162.477 60.5889 L162.477 34.2233 L154.167 35.89 L154.167 31.6308 L162.431 29.9641 L167.107 29.9641 L167.107 60.5889 L174.746 60.5889 L174.746 64.5241 L154.839 64.5241 L154.839 60.5889 Z" fill="#000000" fill-rule="evenodd" fill-opacity="1" /><path clip-path="url(#clip160)" d="M184.19 58.6445 L189.075 58.6445 L189.075 64.5241 L184.19 64.5241 L184.19 58.6445 Z" fill="#000000" fill-rule="evenodd" fill-opacity="1" /><path clip-path="url(#clip160)" d="M209.26 33.0428 Q205.649 33.0428 203.82 36.6076 Q202.014 40.1492 202.014 47.2788 Q202.014 54.3853 203.82 57.9501 Q205.649 61.4917 209.26 61.4917 Q212.894 61.4917 214.699 57.9501 Q216.528 54.3853 216.528 47.2788 Q216.528 40.1492 214.699 36.6076 Q212.894 33.0428 209.26 33.0428 M209.26 29.3391 Q215.07 29.3391 218.125 33.9456 Q221.204 38.5289 221.204 47.2788 Q221.204 56.0056 218.125 60.6121 Q215.07 65.1954 209.26 65.1954 Q203.449 65.1954 200.371 60.6121 Q197.315 56.0056 197.315 47.2788 Q197.315 38.5289 200.371 33.9456 Q203.449 29.3391 209.26 29.3391 Z" fill="#000000" fill-rule="evenodd" fill-opacity="1" /><path clip-path="url(#clip160)" d="M33.8307 1006.09 Q33.2578 1007.08 33.0032 1008.25 Q32.7167 1009.4 32.7167 1010.8 Q32.7167 1015.76 35.9632 1018.44 Q39.1779 1021.08 45.2253 1021.08 L64.0042 1021.08 L64.0042 1026.97 L28.3562 1026.97 L28.3562 1021.08 L33.8944 1021.08 Q30.6479 1019.23 29.0883 1016.27 Q27.4968 1013.31 27.4968 1009.08 Q27.4968 1008.48 27.5923 1007.74 Q27.656 1007.01 27.8151 1006.12 L33.8307 1006.09 Z" fill="#000000" fill-rule="evenodd" fill-opacity="1" /><path clip-path="url(#clip160)" d="M44.7161 970.886 L47.5806 970.886 L47.5806 997.813 Q53.6281 997.431 56.8109 994.185 Q59.9619 990.906 59.9619 985.082 Q59.9619 981.708 59.1344 978.557 Q58.3069 975.374 56.6518 972.255 L62.1899 972.255 Q63.5267 975.406 64.227 978.716 Q64.9272 982.026 64.9272 985.432 Q64.9272 993.962 59.9619 998.959 Q54.9967 1003.92 46.5303 1003.92 Q37.7774 1003.92 32.6531 999.214 Q27.4968 994.471 27.4968 986.45 Q27.4968 979.257 32.1438 975.088 Q36.7589 970.886 44.7161 970.886 M42.9973 976.743 Q38.1912 976.806 35.3266 979.448 Q32.4621 982.058 32.4621 986.387 Q32.4621 991.288 35.2312 994.248 Q38.0002 997.177 43.0292 997.622 L42.9973 976.743 Z" fill="#000000" fill-rule="evenodd" fill-opacity="1" /><path clip-path="url(#clip160)" d="M14.479 961.274 L14.479 955.418 L64.0042 955.418 L64.0042 961.274 L14.479 961.274 Z" fill="#000000" fill-rule="evenodd" fill-opacity="1" /><path clip-path="url(#clip160)" d="M46.0847 926.963 Q46.0847 934.061 47.7079 936.798 Q49.3312 939.535 53.2461 939.535 Q56.3653 939.535 58.2114 937.498 Q60.0256 935.429 60.0256 931.896 Q60.0256 927.027 56.5881 924.098 Q53.1188 921.138 47.3897 921.138 L46.0847 921.138 L46.0847 926.963 M43.6657 915.282 L64.0042 915.282 L64.0042 921.138 L58.5933 921.138 Q61.8398 923.144 63.3994 926.135 Q64.9272 929.127 64.9272 933.456 Q64.9272 938.93 61.8716 942.177 Q58.7843 945.392 53.6281 945.392 Q47.6125 945.392 44.5569 941.381 Q41.5014 937.339 41.5014 929.35 L41.5014 921.138 L40.9285 921.138 Q36.8862 921.138 34.6901 923.812 Q32.4621 926.454 32.4621 931.26 Q32.4621 934.315 33.1941 937.212 Q33.9262 940.108 35.3903 942.782 L29.9795 942.782 Q28.7381 939.567 28.1334 936.543 Q27.4968 933.52 27.4968 930.655 Q27.4968 922.921 31.5072 919.101 Q35.5176 915.282 43.6657 915.282 Z" fill="#000000" fill-rule="evenodd" fill-opacity="1" /><path clip-path="url(#clip160)" d="M18.2347 897.426 L28.3562 897.426 L28.3562 885.363 L32.9077 885.363 L32.9077 897.426 L52.2594 897.426 Q56.6199 897.426 57.8613 896.248 Q59.1026 895.039 59.1026 891.379 L59.1026 885.363 L64.0042 885.363 L64.0042 891.379 Q64.0042 898.158 61.4897 900.736 Q58.9434 903.314 52.2594 903.314 L32.9077 903.314 L32.9077 907.611 L28.3562 907.611 L28.3562 903.314 L18.2347 903.314 L18.2347 897.426 Z" fill="#000000" fill-rule="evenodd" fill-opacity="1" /><path clip-path="url(#clip160)" d="M28.3562 877.661 L28.3562 871.804 L64.0042 871.804 L64.0042 877.661 L28.3562 877.661 M14.479 877.661 L14.479 871.804 L21.895 871.804 L21.895 877.661 L14.479 877.661 Z" fill="#000000" fill-rule="evenodd" fill-opacity="1" /><path clip-path="url(#clip160)" d="M28.3562 863.751 L28.3562 857.545 L58.275 846.405 L28.3562 835.265 L28.3562 829.058 L64.0042 842.426 L64.0042 850.384 L28.3562 863.751 Z" fill="#000000" fill-rule="evenodd" fill-opacity="1" /><path clip-path="url(#clip160)" d="M44.7161 790.482 L47.5806 790.482 L47.5806 817.409 Q53.6281 817.027 56.8109 813.781 Q59.9619 810.502 59.9619 804.678 Q59.9619 801.304 59.1344 798.153 Q58.3069 794.97 56.6518 791.851 L62.1899 791.851 Q63.5267 795.002 64.227 798.312 Q64.9272 801.622 64.9272 805.028 Q64.9272 813.558 59.9619 818.555 Q54.9967 823.52 46.5303 823.52 Q37.7774 823.52 32.6531 818.81 Q27.4968 814.067 27.4968 806.046 Q27.4968 798.853 32.1438 794.684 Q36.7589 790.482 44.7161 790.482 M42.9973 796.339 Q38.1912 796.402 35.3266 799.044 Q32.4621 801.654 32.4621 805.983 Q32.4621 810.884 35.2312 813.844 Q38.0002 816.773 43.0292 817.218 L42.9973 796.339 Z" fill="#000000" fill-rule="evenodd" fill-opacity="1" /><path clip-path="url(#clip160)" d="M14.479 760.15 L14.479 754.293 L64.0042 754.293 L64.0042 760.15 L14.479 760.15 Z" fill="#000000" fill-rule="evenodd" fill-opacity="1" /><path clip-path="url(#clip160)" d="M46.0847 725.838 Q46.0847 732.936 47.7079 735.673 Q49.3312 738.411 53.2461 738.411 Q56.3653 738.411 58.2114 736.374 Q60.0256 734.305 60.0256 730.772 Q60.0256 725.902 56.5881 722.974 Q53.1188 720.014 47.3897 720.014 L46.0847 720.014 L46.0847 725.838 M43.6657 714.157 L64.0042 714.157 L64.0042 720.014 L58.5933 720.014 Q61.8398 722.019 63.3994 725.011 Q64.9272 728.003 64.9272 732.331 Q64.9272 737.806 61.8716 741.053 Q58.7843 744.267 53.6281 744.267 Q47.6125 744.267 44.5569 740.257 Q41.5014 736.215 41.5014 728.226 L41.5014 720.014 L40.9285 720.014 Q36.8862 720.014 34.6901 722.687 Q32.4621 725.329 32.4621 730.135 Q32.4621 733.191 33.1941 736.087 Q33.9262 738.984 35.3903 741.657 L29.9795 741.657 Q28.7381 738.443 28.1334 735.419 Q27.4968 732.395 27.4968 729.531 Q27.4968 721.796 31.5072 717.977 Q35.5176 714.157 43.6657 714.157 Z" fill="#000000" fill-rule="evenodd" fill-opacity="1" /><path clip-path="url(#clip160)" d="M35.1993 674.34 Q31.2526 672.144 29.3747 669.088 Q27.4968 666.033 27.4968 661.895 Q27.4968 656.325 31.4117 653.301 Q35.2948 650.278 42.4881 650.278 L64.0042 650.278 L64.0042 656.166 L42.679 656.166 Q37.5546 656.166 35.072 657.98 Q32.5894 659.794 32.5894 663.518 Q32.5894 668.07 35.6131 670.711 Q38.6368 673.353 43.8567 673.353 L64.0042 673.353 L64.0042 679.241 L42.679 679.241 Q37.5228 679.241 35.072 681.056 Q32.5894 682.87 32.5894 686.658 Q32.5894 691.145 35.6449 693.787 Q38.6686 696.429 43.8567 696.429 L64.0042 696.429 L64.0042 702.317 L28.3562 702.317 L28.3562 696.429 L33.8944 696.429 Q30.616 694.424 29.0564 691.623 Q27.4968 688.822 27.4968 684.971 Q27.4968 681.088 29.4702 678.382 Q31.4436 675.645 35.1993 674.34 Z" fill="#000000" fill-rule="evenodd" fill-opacity="1" /><path clip-path="url(#clip160)" d="M46.212 613.006 Q39.7508 613.006 36.0905 615.68 Q32.3984 618.322 32.3984 622.969 Q32.3984 627.616 36.0905 630.289 Q39.7508 632.931 46.212 632.931 Q52.6732 632.931 56.3653 630.289 Q60.0256 627.616 60.0256 622.969 Q60.0256 618.322 56.3653 615.68 Q52.6732 613.006 46.212 613.006 M33.7671 632.931 Q30.5842 631.085 29.0564 628.284 Q27.4968 625.451 27.4968 621.536 Q27.4968 615.043 32.6531 611.001 Q37.8093 606.927 46.212 606.927 Q54.6147 606.927 59.771 611.001 Q64.9272 615.043 64.9272 621.536 Q64.9272 625.451 63.3994 628.284 Q61.8398 631.085 58.657 632.931 L64.0042 632.931 L64.0042 638.819 L14.479 638.819 L14.479 632.931 L33.7671 632.931 Z" fill="#000000" fill-rule="evenodd" fill-opacity="1" /><path clip-path="url(#clip160)" d="M29.4065 553.773 L34.9447 553.773 Q33.6716 556.256 33.035 558.93 Q32.3984 561.603 32.3984 564.468 Q32.3984 568.828 33.7352 571.024 Q35.072 573.189 37.7456 573.189 Q39.7826 573.189 40.9603 571.629 Q42.1061 570.07 43.1565 565.359 L43.6021 563.354 Q44.9389 557.115 47.3897 554.505 Q49.8086 551.864 54.1691 551.864 Q59.1344 551.864 62.0308 555.81 Q64.9272 559.725 64.9272 566.6 Q64.9272 569.465 64.3543 572.584 Q63.8132 575.671 62.6992 579.109 L56.6518 579.109 Q58.3387 575.862 59.198 572.711 Q60.0256 569.56 60.0256 566.473 Q60.0256 562.335 58.6251 560.107 Q57.1929 557.879 54.6147 557.879 Q52.2276 557.879 50.9545 559.503 Q49.6813 561.094 48.5037 566.537 L48.0262 568.574 Q46.8804 574.016 44.5251 576.435 Q42.138 578.854 38.0002 578.854 Q32.9713 578.854 30.2341 575.29 Q27.4968 571.725 27.4968 565.168 Q27.4968 561.922 27.9743 559.057 Q28.4517 556.192 29.4065 553.773 Z" fill="#000000" fill-rule="evenodd" fill-opacity="1" /><path clip-path="url(#clip160)" d="M42.4881 512.906 L64.0042 512.906 L64.0042 518.762 L42.679 518.762 Q37.6183 518.762 35.1038 520.735 Q32.5894 522.709 32.5894 526.656 Q32.5894 531.398 35.6131 534.135 Q38.6368 536.872 43.8567 536.872 L64.0042 536.872 L64.0042 542.761 L14.479 542.761 L14.479 536.872 L33.8944 536.872 Q30.6797 534.772 29.0883 531.939 Q27.4968 529.074 27.4968 525.351 Q27.4968 519.208 31.3163 516.057 Q35.1038 512.906 42.4881 512.906 Z" fill="#000000" fill-rule="evenodd" fill-opacity="1" /><path clip-path="url(#clip160)" d="M28.3562 501.225 L28.3562 495.368 L64.0042 495.368 L64.0042 501.225 L28.3562 501.225 M14.479 501.225 L14.479 495.368 L21.895 495.368 L21.895 501.225 L14.479 501.225 Z" fill="#000000" fill-rule="evenodd" fill-opacity="1" /><path clip-path="url(#clip160)" d="M14.479 465.067 L19.3487 465.067 L19.3487 470.669 Q19.3487 473.82 20.6219 475.061 Q21.895 476.271 25.2052 476.271 L28.3562 476.271 L28.3562 466.627 L32.9077 466.627 L32.9077 476.271 L64.0042 476.271 L64.0042 482.159 L32.9077 482.159 L32.9077 487.761 L28.3562 487.761 L28.3562 482.159 L25.8736 482.159 Q19.9216 482.159 17.2162 479.39 Q14.479 476.621 14.479 470.605 L14.479 465.067 Z" fill="#000000" fill-rule="evenodd" fill-opacity="1" /><path clip-path="url(#clip160)" d="M18.2347 455.519 L28.3562 455.519 L28.3562 443.456 L32.9077 443.456 L32.9077 455.519 L52.2594 455.519 Q56.6199 455.519 57.8613 454.341 Q59.1026 453.132 59.1026 449.471 L59.1026 443.456 L64.0042 443.456 L64.0042 449.471 Q64.0042 456.251 61.4897 458.829 Q58.9434 461.407 52.2594 461.407 L32.9077 461.407 L32.9077 465.704 L28.3562 465.704 L28.3562 461.407 L18.2347 461.407 L18.2347 455.519 Z" fill="#000000" fill-rule="evenodd" fill-opacity="1" /><polyline clip-path="url(#clip162)" style="stroke:#009af9; stroke-linecap:round; stroke-linejoin:round; stroke-width:4; stroke-opacity:1; fill:none" points="1498.45,2799.12 1498.45,-1328.69 "/>
<polyline clip-path="url(#clip162)" style="stroke:#e26f46; stroke-linecap:round; stroke-linejoin:round; stroke-width:4; stroke-opacity:1; fill:none" points="316.512,974.898 318.121,974.862 319.73,974.825 321.339,974.789 322.948,974.753 324.556,974.716 326.165,974.68 327.774,974.644 329.383,974.608 336.821,974.442 344.259,974.276 347.978,974.194 351.697,974.111 353.557,974.07 355.417,974.029 356.346,974.009 357.276,973.989 358.206,973.968 359.136,854.147 360.065,854.126 360.995,854.106 361.925,854.085 362.855,854.065 364.714,854.024 366.574,853.983 370.293,853.901 374.012,853.819 381.45,853.654 388.888,853.489 418.641,852.822 448.393,852.147 484.154,851.326 519.914,850.495 550.148,849.785 580.383,849.071 646.07,847.505 706.627,846.053 771.551,844.5 846.772,842.723 913.619,841.185 972.238,839.885 1036.15,838.538 1100.44,837.278 1171.52,836.023 1239.15,834.994 1309.47,834.127 1368.67,833.58 1404.81,833.338 1440.94,833.17 1457.49,833.119 1474.04,833.085 1478.18,833.079 1482.32,833.074 1486.46,833.07 1490.6,833.068 1492.66,833.067 1494.73,833.066 1495.77,833.066 1496.8,833.066 1497.32,833.066 1497.84,833.066 1498.35,637.358 1498.87,637.358 1499.39,637.358 1499.91,637.358 1500.42,637.358 1500.94,637.358 1501.97,637.357 1503.01,637.357 1505.08,637.356 1507.15,637.355 1514.79,637.349 1522.43,637.339 1530.08,637.325 1537.72,637.306 1553.01,637.258 1568.29,637.194 1599.26,637.014 1630.23,636.765 1699.65,635.948 1762.55,634.89 1834.57,633.296 1901.25,631.453 1966.99,629.29 2030.82,626.865 2096.25,624.055 2167.94,620.611 2272.08,614.96 2293.45,613.71 "/>
<path clip-path="url(#clip160)" d="M2020.92 248.629 L2282.9 248.629 L2282.9 93.1086 L2020.92 93.1086  Z" fill="#ffffff" fill-rule="evenodd" fill-opacity="1"/>
<polyline clip-path="url(#clip160)" style="stroke:#000000; stroke-linecap:round; stroke-linejoin:round; stroke-width:4; stroke-opacity:1; fill:none" points="2020.92,248.629 2282.9,248.629 2282.9,93.1086 2020.92,93.1086 2020.92,248.629 "/>
<polyline clip-path="url(#clip160)" style="stroke:#009af9; stroke-linecap:round; stroke-linejoin:round; stroke-width:4; stroke-opacity:1; fill:none" points="2044.2,144.949 2183.91,144.949 "/>
<path clip-path="url(#clip160)" d="M2221.03 164.636 Q2219.23 169.266 2217.51 170.678 Q2215.8 172.09 2212.93 172.09 L2209.53 172.09 L2209.53 168.525 L2212.03 168.525 Q2213.79 168.525 2214.76 167.692 Q2215.73 166.858 2216.91 163.756 L2217.68 161.812 L2207.19 136.303 L2211.7 136.303 L2219.81 156.581 L2227.91 136.303 L2232.42 136.303 L2221.03 164.636 Z" fill="#000000" fill-rule="evenodd" fill-opacity="1" /><path clip-path="url(#clip160)" d="M2239.71 158.293 L2247.35 158.293 L2247.35 131.928 L2239.04 133.595 L2239.04 129.335 L2247.31 127.669 L2251.98 127.669 L2251.98 158.293 L2259.62 158.293 L2259.62 162.229 L2239.71 162.229 L2239.71 158.293 Z" fill="#000000" fill-rule="evenodd" fill-opacity="1" /><polyline clip-path="url(#clip160)" style="stroke:#e26f46; stroke-linecap:round; stroke-linejoin:round; stroke-width:4; stroke-opacity:1; fill:none" points="2044.2,196.789 2183.91,196.789 "/>
<path clip-path="url(#clip160)" d="M2221.03 216.476 Q2219.23 221.106 2217.51 222.518 Q2215.8 223.93 2212.93 223.93 L2209.53 223.93 L2209.53 220.365 L2212.03 220.365 Q2213.79 220.365 2214.76 219.532 Q2215.73 218.698 2216.91 215.596 L2217.68 213.652 L2207.19 188.143 L2211.7 188.143 L2219.81 208.421 L2227.91 188.143 L2232.42 188.143 L2221.03 216.476 Z" fill="#000000" fill-rule="evenodd" fill-opacity="1" /><path clip-path="url(#clip160)" d="M2242.93 210.133 L2259.25 210.133 L2259.25 214.069 L2237.31 214.069 L2237.31 210.133 Q2239.97 207.379 2244.55 202.749 Q2249.16 198.096 2250.34 196.754 Q2252.58 194.231 2253.46 192.495 Q2254.37 190.735 2254.37 189.046 Q2254.37 186.291 2252.42 184.555 Q2250.5 182.819 2247.4 182.819 Q2245.2 182.819 2242.75 183.583 Q2240.31 184.347 2237.54 185.897 L2237.54 181.175 Q2240.36 180.041 2242.81 179.462 Q2245.27 178.884 2247.31 178.884 Q2252.68 178.884 2255.87 181.569 Q2259.06 184.254 2259.06 188.745 Q2259.06 190.874 2258.25 192.796 Q2257.47 194.694 2255.36 197.286 Q2254.78 197.958 2251.68 201.175 Q2248.58 204.37 2242.93 210.133 Z" fill="#000000" fill-rule="evenodd" fill-opacity="1" /></svg>
