<?xml version="1.0" encoding="utf-8"?>
<svg xmlns="http://www.w3.org/2000/svg" xmlns:xlink="http://www.w3.org/1999/xlink" width="600" height="400" viewBox="0 0 2400 1600">
<defs>
  <clipPath id="clip890">
    <rect x="0" y="0" width="2400" height="1600"/>
  </clipPath>
</defs>
<path clip-path="url(#clip890)" d="M0 1600 L2400 1600 L2400 0 L0 0  Z" fill="#ffffff" fill-rule="evenodd" fill-opacity="1"/>
<defs>
  <clipPath id="clip891">
    <rect x="480" y="0" width="1681" height="1600"/>
  </clipPath>
</defs>
<path clip-path="url(#clip890)" d="M184.191 1486.45 L2352.76 1486.45 L2352.76 47.2441 L184.191 47.2441  Z" fill="#ffffff" fill-rule="evenodd" fill-opacity="1"/>
<defs>
  <clipPath id="clip892">
    <rect x="184" y="47" width="2170" height="1440"/>
  </clipPath>
</defs>
<polyline clip-path="url(#clip892)" style="stroke:#000000; stroke-linecap:round; stroke-linejoin:round; stroke-width:2; stroke-opacity:0.1; fill:none" points="320.735,1486.45 320.735,47.2441 "/>
<polyline clip-path="url(#clip892)" style="stroke:#000000; stroke-linecap:round; stroke-linejoin:round; stroke-width:2; stroke-opacity:0.1; fill:none" points="799.047,1486.45 799.047,47.2441 "/>
<polyline clip-path="url(#clip892)" style="stroke:#000000; stroke-linecap:round; stroke-linejoin:round; stroke-width:2; stroke-opacity:0.1; fill:none" points="1277.36,1486.45 1277.36,47.2441 "/>
<polyline clip-path="url(#clip892)" style="stroke:#000000; stroke-linecap:round; stroke-linejoin:round; stroke-width:2; stroke-opacity:0.1; fill:none" points="1755.67,1486.45 1755.67,47.2441 "/>
<polyline clip-path="url(#clip892)" style="stroke:#000000; stroke-linecap:round; stroke-linejoin:round; stroke-width:2; stroke-opacity:0.1; fill:none" points="2233.98,1486.45 2233.98,47.2441 "/>
<polyline clip-path="url(#clip890)" style="stroke:#000000; stroke-linecap:round; stroke-linejoin:round; stroke-width:4; stroke-opacity:1; fill:none" points="184.191,1486.45 2352.76,1486.45 "/>
<polyline clip-path="url(#clip890)" style="stroke:#000000; stroke-linecap:round; stroke-linejoin:round; stroke-width:4; stroke-opacity:1; fill:none" points="320.735,1486.45 320.735,1467.55 "/>
<polyline clip-path="url(#clip890)" style="stroke:#000000; stroke-linecap:round; stroke-linejoin:round; stroke-width:4; stroke-opacity:1; fill:none" points="799.047,1486.45 799.047,1467.55 "/>
<polyline clip-path="url(#clip890)" style="stroke:#000000; stroke-linecap:round; stroke-linejoin:round; stroke-width:4; stroke-opacity:1; fill:none" points="1277.36,1486.45 1277.36,1467.55 "/>
<polyline clip-path="url(#clip890)" style="stroke:#000000; stroke-linecap:round; stroke-linejoin:round; stroke-width:4; stroke-opacity:1; fill:none" points="1755.67,1486.45 1755.67,1467.55 "/>
<polyline clip-path="url(#clip890)" style="stroke:#000000; stroke-linecap:round; stroke-linejoin:round; stroke-width:4; stroke-opacity:1; fill:none" points="2233.98,1486.45 2233.98,1467.55 "/>
<path clip-path="url(#clip890)" d="M283.039 1517.37 Q279.428 1517.37 277.599 1520.93 Q275.793 1524.47 275.793 1531.6 Q275.793 1538.71 277.599 1542.27 Q279.428 1545.82 283.039 1545.82 Q286.673 1545.82 288.479 1542.27 Q290.307 1538.71 290.307 1531.6 Q290.307 1524.47 288.479 1520.93 Q286.673 1517.37 283.039 1517.37 M283.039 1513.66 Q288.849 1513.66 291.904 1518.27 Q294.983 1522.85 294.983 1531.6 Q294.983 1540.33 291.904 1544.94 Q288.849 1549.52 283.039 1549.52 Q277.229 1549.52 274.15 1544.94 Q271.094 1540.33 271.094 1531.6 Q271.094 1522.85 274.15 1518.27 Q277.229 1513.66 283.039 1513.66 Z" fill="#000000" fill-rule="evenodd" fill-opacity="1" /><path clip-path="url(#clip890)" d="M303.201 1542.97 L308.085 1542.97 L308.085 1548.85 L303.201 1548.85 L303.201 1542.97 Z" fill="#000000" fill-rule="evenodd" fill-opacity="1" /><path clip-path="url(#clip890)" d="M328.27 1517.37 Q324.659 1517.37 322.83 1520.93 Q321.025 1524.47 321.025 1531.6 Q321.025 1538.71 322.83 1542.27 Q324.659 1545.82 328.27 1545.82 Q331.904 1545.82 333.71 1542.27 Q335.539 1538.71 335.539 1531.6 Q335.539 1524.47 333.71 1520.93 Q331.904 1517.37 328.27 1517.37 M328.27 1513.66 Q334.08 1513.66 337.136 1518.27 Q340.214 1522.85 340.214 1531.6 Q340.214 1540.33 337.136 1544.94 Q334.08 1549.52 328.27 1549.52 Q322.46 1549.52 319.381 1544.94 Q316.326 1540.33 316.326 1531.6 Q316.326 1522.85 319.381 1518.27 Q322.46 1513.66 328.27 1513.66 Z" fill="#000000" fill-rule="evenodd" fill-opacity="1" /><path clip-path="url(#clip890)" d="M358.432 1517.37 Q354.821 1517.37 352.992 1520.93 Q351.187 1524.47 351.187 1531.6 Q351.187 1538.71 352.992 1542.27 Q354.821 1545.82 358.432 1545.82 Q362.066 1545.82 363.872 1542.27 Q365.7 1538.71 365.7 1531.6 Q365.7 1524.47 363.872 1520.93 Q362.066 1517.37 358.432 1517.37 M358.432 1513.66 Q364.242 1513.66 367.298 1518.27 Q370.376 1522.85 370.376 1531.6 Q370.376 1540.33 367.298 1544.94 Q364.242 1549.52 358.432 1549.52 Q352.622 1549.52 349.543 1544.94 Q346.488 1540.33 346.488 1531.6 Q346.488 1522.85 349.543 1518.27 Q352.622 1513.66 358.432 1513.66 Z" fill="#000000" fill-rule="evenodd" fill-opacity="1" /><path clip-path="url(#clip890)" d="M761.849 1517.37 Q758.238 1517.37 756.409 1520.93 Q754.603 1524.47 754.603 1531.6 Q754.603 1538.71 756.409 1542.27 Q758.238 1545.82 761.849 1545.82 Q765.483 1545.82 767.288 1542.27 Q769.117 1538.71 769.117 1531.6 Q769.117 1524.47 767.288 1520.93 Q765.483 1517.37 761.849 1517.37 M761.849 1513.66 Q767.659 1513.66 770.714 1518.27 Q773.793 1522.85 773.793 1531.6 Q773.793 1540.33 770.714 1544.94 Q767.659 1549.52 761.849 1549.52 Q756.038 1549.52 752.96 1544.94 Q749.904 1540.33 749.904 1531.6 Q749.904 1522.85 752.96 1518.27 Q756.038 1513.66 761.849 1513.66 Z" fill="#000000" fill-rule="evenodd" fill-opacity="1" /><path clip-path="url(#clip890)" d="M782.011 1542.97 L786.895 1542.97 L786.895 1548.85 L782.011 1548.85 L782.011 1542.97 Z" fill="#000000" fill-rule="evenodd" fill-opacity="1" /><path clip-path="url(#clip890)" d="M801.108 1544.91 L817.427 1544.91 L817.427 1548.85 L795.483 1548.85 L795.483 1544.91 Q798.145 1542.16 802.728 1537.53 Q807.334 1532.88 808.515 1531.53 Q810.76 1529.01 811.64 1527.27 Q812.543 1525.51 812.543 1523.82 Q812.543 1521.07 810.598 1519.33 Q808.677 1517.6 805.575 1517.6 Q803.376 1517.6 800.922 1518.36 Q798.492 1519.13 795.714 1520.68 L795.714 1515.95 Q798.538 1514.82 800.992 1514.24 Q803.446 1513.66 805.483 1513.66 Q810.853 1513.66 814.047 1516.35 Q817.242 1519.03 817.242 1523.52 Q817.242 1525.65 816.432 1527.57 Q815.645 1529.47 813.538 1532.07 Q812.959 1532.74 809.858 1535.95 Q806.756 1539.15 801.108 1544.91 Z" fill="#000000" fill-rule="evenodd" fill-opacity="1" /><path clip-path="url(#clip890)" d="M827.288 1514.29 L845.644 1514.29 L845.644 1518.22 L831.57 1518.22 L831.57 1526.7 Q832.589 1526.35 833.607 1526.19 Q834.626 1526 835.645 1526 Q841.432 1526 844.811 1529.17 Q848.191 1532.34 848.191 1537.76 Q848.191 1543.34 844.719 1546.44 Q841.246 1549.52 834.927 1549.52 Q832.751 1549.52 830.483 1549.15 Q828.237 1548.78 825.83 1548.04 L825.83 1543.34 Q827.913 1544.47 830.135 1545.03 Q832.358 1545.58 834.834 1545.58 Q838.839 1545.58 841.177 1543.48 Q843.515 1541.37 843.515 1537.76 Q843.515 1534.15 841.177 1532.04 Q838.839 1529.94 834.834 1529.94 Q832.959 1529.94 831.084 1530.35 Q829.233 1530.77 827.288 1531.65 L827.288 1514.29 Z" fill="#000000" fill-rule="evenodd" fill-opacity="1" /><path clip-path="url(#clip890)" d="M1239.66 1517.37 Q1236.05 1517.37 1234.22 1520.93 Q1232.42 1524.47 1232.42 1531.6 Q1232.42 1538.71 1234.22 1542.27 Q1236.05 1545.82 1239.66 1545.82 Q1243.3 1545.82 1245.1 1542.27 Q1246.93 1538.71 1246.93 1531.6 Q1246.93 1524.47 1245.1 1520.93 Q1243.3 1517.37 1239.66 1517.37 M1239.66 1513.66 Q1245.47 1513.66 1248.53 1518.27 Q1251.61 1522.85 1251.61 1531.6 Q1251.61 1540.33 1248.53 1544.94 Q1245.47 1549.52 1239.66 1549.52 Q1233.85 1549.52 1230.77 1544.94 Q1227.72 1540.33 1227.72 1531.6 Q1227.72 1522.85 1230.77 1518.27 Q1233.85 1513.66 1239.66 1513.66 Z" fill="#000000" fill-rule="evenodd" fill-opacity="1" /><path clip-path="url(#clip890)" d="M1259.83 1542.97 L1264.71 1542.97 L1264.71 1548.85 L1259.83 1548.85 L1259.83 1542.97 Z" fill="#000000" fill-rule="evenodd" fill-opacity="1" /><path clip-path="url(#clip890)" d="M1274.94 1514.29 L1293.3 1514.29 L1293.3 1518.22 L1279.22 1518.22 L1279.22 1526.7 Q1280.24 1526.35 1281.26 1526.19 Q1282.28 1526 1283.3 1526 Q1289.08 1526 1292.46 1529.17 Q1295.84 1532.34 1295.84 1537.76 Q1295.84 1543.34 1292.37 1546.44 Q1288.9 1549.52 1282.58 1549.52 Q1280.4 1549.52 1278.14 1549.15 Q1275.89 1548.78 1273.48 1548.04 L1273.48 1543.34 Q1275.57 1544.47 1277.79 1545.03 Q1280.01 1545.58 1282.49 1545.58 Q1286.49 1545.58 1288.83 1543.48 Q1291.17 1541.37 1291.17 1537.76 Q1291.17 1534.15 1288.83 1532.04 Q1286.49 1529.94 1282.49 1529.94 Q1280.61 1529.94 1278.74 1530.35 Q1276.89 1530.77 1274.94 1531.65 L1274.94 1514.29 Z" fill="#000000" fill-rule="evenodd" fill-opacity="1" /><path clip-path="url(#clip890)" d="M1315.06 1517.37 Q1311.45 1517.37 1309.62 1520.93 Q1307.81 1524.47 1307.81 1531.6 Q1307.81 1538.71 1309.62 1542.27 Q1311.45 1545.82 1315.06 1545.82 Q1318.69 1545.82 1320.5 1542.27 Q1322.32 1538.71 1322.32 1531.6 Q1322.32 1524.47 1320.5 1520.93 Q1318.69 1517.37 1315.06 1517.37 M1315.06 1513.66 Q1320.87 1513.66 1323.92 1518.27 Q1327 1522.85 1327 1531.6 Q1327 1540.33 1323.92 1544.94 Q1320.87 1549.52 1315.06 1549.52 Q1309.25 1549.52 1306.17 1544.94 Q1303.11 1540.33 1303.11 1531.6 Q1303.11 1522.85 1306.17 1518.27 Q1309.25 1513.66 1315.06 1513.66 Z" fill="#000000" fill-rule="evenodd" fill-opacity="1" /><path clip-path="url(#clip890)" d="M1718.47 1517.37 Q1714.86 1517.37 1713.03 1520.93 Q1711.23 1524.47 1711.23 1531.6 Q1711.23 1538.71 1713.03 1542.27 Q1714.86 1545.82 1718.47 1545.82 Q1722.11 1545.82 1723.91 1542.27 Q1725.74 1538.71 1725.74 1531.6 Q1725.74 1524.47 1723.91 1520.93 Q1722.11 1517.37 1718.47 1517.37 M1718.47 1513.66 Q1724.28 1513.66 1727.34 1518.27 Q1730.42 1522.85 1730.42 1531.6 Q1730.42 1540.33 1727.34 1544.94 Q1724.28 1549.52 1718.47 1549.52 Q1712.66 1549.52 1709.58 1544.94 Q1706.53 1540.33 1706.53 1531.6 Q1706.53 1522.85 1709.58 1518.27 Q1712.66 1513.66 1718.47 1513.66 Z" fill="#000000" fill-rule="evenodd" fill-opacity="1" /><path clip-path="url(#clip890)" d="M1738.63 1542.97 L1743.52 1542.97 L1743.52 1548.85 L1738.63 1548.85 L1738.63 1542.97 Z" fill="#000000" fill-rule="evenodd" fill-opacity="1" /><path clip-path="url(#clip890)" d="M1752.52 1514.29 L1774.75 1514.29 L1774.75 1516.28 L1762.2 1548.85 L1757.32 1548.85 L1769.12 1518.22 L1752.52 1518.22 L1752.52 1514.29 Z" fill="#000000" fill-rule="evenodd" fill-opacity="1" /><path clip-path="url(#clip890)" d="M1783.91 1514.29 L1802.27 1514.29 L1802.27 1518.22 L1788.19 1518.22 L1788.19 1526.7 Q1789.21 1526.35 1790.23 1526.19 Q1791.25 1526 1792.27 1526 Q1798.06 1526 1801.44 1529.17 Q1804.82 1532.34 1804.82 1537.76 Q1804.82 1543.34 1801.34 1546.44 Q1797.87 1549.52 1791.55 1549.52 Q1789.38 1549.52 1787.11 1549.15 Q1784.86 1548.78 1782.45 1548.04 L1782.45 1543.34 Q1784.54 1544.47 1786.76 1545.03 Q1788.98 1545.58 1791.46 1545.58 Q1795.46 1545.58 1797.8 1543.48 Q1800.14 1541.37 1800.14 1537.76 Q1800.14 1534.15 1797.8 1532.04 Q1795.46 1529.94 1791.46 1529.94 Q1789.58 1529.94 1787.71 1530.35 Q1785.86 1530.77 1783.91 1531.65 L1783.91 1514.29 Z" fill="#000000" fill-rule="evenodd" fill-opacity="1" /><path clip-path="url(#clip890)" d="M2186.06 1544.91 L2193.69 1544.91 L2193.69 1518.55 L2185.38 1520.21 L2185.38 1515.95 L2193.65 1514.29 L2198.32 1514.29 L2198.32 1544.91 L2205.96 1544.91 L2205.96 1548.85 L2186.06 1548.85 L2186.06 1544.91 Z" fill="#000000" fill-rule="evenodd" fill-opacity="1" /><path clip-path="url(#clip890)" d="M2215.41 1542.97 L2220.29 1542.97 L2220.29 1548.85 L2215.41 1548.85 L2215.41 1542.97 Z" fill="#000000" fill-rule="evenodd" fill-opacity="1" /><path clip-path="url(#clip890)" d="M2240.48 1517.37 Q2236.87 1517.37 2235.04 1520.93 Q2233.23 1524.47 2233.23 1531.6 Q2233.23 1538.71 2235.04 1542.27 Q2236.87 1545.82 2240.48 1545.82 Q2244.11 1545.82 2245.92 1542.27 Q2247.75 1538.71 2247.75 1531.6 Q2247.75 1524.47 2245.92 1520.93 Q2244.11 1517.37 2240.48 1517.37 M2240.48 1513.66 Q2246.29 1513.66 2249.34 1518.27 Q2252.42 1522.85 2252.42 1531.6 Q2252.42 1540.33 2249.34 1544.94 Q2246.29 1549.52 2240.48 1549.52 Q2234.67 1549.52 2231.59 1544.94 Q2228.53 1540.33 2228.53 1531.6 Q2228.53 1522.85 2231.59 1518.27 Q2234.67 1513.66 2240.48 1513.66 Z" fill="#000000" fill-rule="evenodd" fill-opacity="1" /><path clip-path="url(#clip890)" d="M2270.64 1517.37 Q2267.03 1517.37 2265.2 1520.93 Q2263.39 1524.47 2263.39 1531.6 Q2263.39 1538.71 2265.2 1542.27 Q2267.03 1545.82 2270.64 1545.82 Q2274.27 1545.82 2276.08 1542.27 Q2277.91 1538.71 2277.91 1531.6 Q2277.91 1524.47 2276.08 1520.93 Q2274.27 1517.37 2270.64 1517.37 M2270.64 1513.66 Q2276.45 1513.66 2279.5 1518.27 Q2282.58 1522.85 2282.58 1531.6 Q2282.58 1540.33 2279.5 1544.94 Q2276.45 1549.52 2270.64 1549.52 Q2264.83 1549.52 2261.75 1544.94 Q2258.69 1540.33 2258.69 1531.6 Q2258.69 1522.85 2261.75 1518.27 Q2264.83 1513.66 2270.64 1513.66 Z" fill="#000000" fill-rule="evenodd" fill-opacity="1" /><polyline clip-path="url(#clip892)" style="stroke:#000000; stroke-linecap:round; stroke-linejoin:round; stroke-width:2; stroke-opacity:0.1; fill:none" points="184.191,1445.72 2352.76,1445.72 "/>
<polyline clip-path="url(#clip892)" style="stroke:#000000; stroke-linecap:round; stroke-linejoin:round; stroke-width:2; stroke-opacity:0.1; fill:none" points="184.191,1106.28 2352.76,1106.28 "/>
<polyline clip-path="url(#clip892)" style="stroke:#000000; stroke-linecap:round; stroke-linejoin:round; stroke-width:2; stroke-opacity:0.1; fill:none" points="184.191,766.846 2352.76,766.846 "/>
<polyline clip-path="url(#clip892)" style="stroke:#000000; stroke-linecap:round; stroke-linejoin:round; stroke-width:2; stroke-opacity:0.1; fill:none" points="184.191,427.411 2352.76,427.411 "/>
<polyline clip-path="url(#clip892)" style="stroke:#000000; stroke-linecap:round; stroke-linejoin:round; stroke-width:2; stroke-opacity:0.1; fill:none" points="184.191,87.9763 2352.76,87.9763 "/>
<polyline clip-path="url(#clip890)" style="stroke:#000000; stroke-linecap:round; stroke-linejoin:round; stroke-width:4; stroke-opacity:1; fill:none" points="184.191,1486.45 184.191,47.2441 "/>
<polyline clip-path="url(#clip890)" style="stroke:#000000; stroke-linecap:round; stroke-linejoin:round; stroke-width:4; stroke-opacity:1; fill:none" points="184.191,1445.72 203.088,1445.72 "/>
<polyline clip-path="url(#clip890)" style="stroke:#000000; stroke-linecap:round; stroke-linejoin:round; stroke-width:4; stroke-opacity:1; fill:none" points="184.191,1106.28 203.088,1106.28 "/>
<polyline clip-path="url(#clip890)" style="stroke:#000000; stroke-linecap:round; stroke-linejoin:round; stroke-width:4; stroke-opacity:1; fill:none" points="184.191,766.846 203.088,766.846 "/>
<polyline clip-path="url(#clip890)" style="stroke:#000000; stroke-linecap:round; stroke-linejoin:round; stroke-width:4; stroke-opacity:1; fill:none" points="184.191,427.411 203.088,427.411 "/>
<polyline clip-path="url(#clip890)" style="stroke:#000000; stroke-linecap:round; stroke-linejoin:round; stroke-width:4; stroke-opacity:1; fill:none" points="184.191,87.9763 203.088,87.9763 "/>
<path clip-path="url(#clip890)" d="M91.0151 1431.51 Q87.404 1431.51 85.5753 1435.08 Q83.7697 1438.62 83.7697 1445.75 Q83.7697 1452.86 85.5753 1456.42 Q87.404 1459.96 91.0151 1459.96 Q94.6493 1459.96 96.4548 1456.42 Q98.2835 1452.86 98.2835 1445.75 Q98.2835 1438.62 96.4548 1435.08 Q94.6493 1431.51 91.0151 1431.51 M91.0151 1427.81 Q96.8252 1427.81 99.8808 1432.42 Q102.959 1437 102.959 1445.75 Q102.959 1454.48 99.8808 1459.08 Q96.8252 1463.67 91.0151 1463.67 Q85.2049 1463.67 82.1262 1459.08 Q79.0707 1454.48 79.0707 1445.75 Q79.0707 1437 82.1262 1432.42 Q85.2049 1427.81 91.0151 1427.81 Z" fill="#000000" fill-rule="evenodd" fill-opacity="1" /><path clip-path="url(#clip890)" d="M111.177 1457.12 L116.061 1457.12 L116.061 1463 L111.177 1463 L111.177 1457.12 Z" fill="#000000" fill-rule="evenodd" fill-opacity="1" /><path clip-path="url(#clip890)" d="M136.246 1431.51 Q132.635 1431.51 130.807 1435.08 Q129.001 1438.62 129.001 1445.75 Q129.001 1452.86 130.807 1456.42 Q132.635 1459.96 136.246 1459.96 Q139.881 1459.96 141.686 1456.42 Q143.515 1452.86 143.515 1445.75 Q143.515 1438.62 141.686 1435.08 Q139.881 1431.51 136.246 1431.51 M136.246 1427.81 Q142.056 1427.81 145.112 1432.42 Q148.191 1437 148.191 1445.75 Q148.191 1454.48 145.112 1459.08 Q142.056 1463.67 136.246 1463.67 Q130.436 1463.67 127.357 1459.08 Q124.302 1454.48 124.302 1445.75 Q124.302 1437 127.357 1432.42 Q130.436 1427.81 136.246 1427.81 Z" fill="#000000" fill-rule="evenodd" fill-opacity="1" /><path clip-path="url(#clip890)" d="M86.0382 1119.63 L102.358 1119.63 L102.358 1123.56 L80.4133 1123.56 L80.4133 1119.63 Q83.0753 1116.87 87.6586 1112.24 Q92.2651 1107.59 93.4456 1106.25 Q95.691 1103.72 96.5706 1101.99 Q97.4734 1100.23 97.4734 1098.54 Q97.4734 1095.78 95.5289 1094.05 Q93.6076 1092.31 90.5058 1092.31 Q88.3067 1092.31 85.8531 1093.07 Q83.4225 1093.84 80.6447 1095.39 L80.6447 1090.67 Q83.4688 1089.53 85.9225 1088.95 Q88.3762 1088.38 90.4132 1088.38 Q95.7836 1088.38 98.978 1091.06 Q102.172 1093.75 102.172 1098.24 Q102.172 1100.37 101.362 1102.29 Q100.575 1104.19 98.4687 1106.78 Q97.89 1107.45 94.7882 1110.67 Q91.6864 1113.86 86.0382 1119.63 Z" fill="#000000" fill-rule="evenodd" fill-opacity="1" /><path clip-path="url(#clip890)" d="M112.172 1117.68 L117.057 1117.68 L117.057 1123.56 L112.172 1123.56 L112.172 1117.68 Z" fill="#000000" fill-rule="evenodd" fill-opacity="1" /><path clip-path="url(#clip890)" d="M127.288 1089 L145.644 1089 L145.644 1092.94 L131.57 1092.94 L131.57 1101.41 Q132.589 1101.06 133.607 1100.9 Q134.626 1100.71 135.644 1100.71 Q141.431 1100.71 144.811 1103.89 Q148.191 1107.06 148.191 1112.47 Q148.191 1118.05 144.718 1121.15 Q141.246 1124.23 134.927 1124.23 Q132.751 1124.23 130.482 1123.86 Q128.237 1123.49 125.83 1122.75 L125.83 1118.05 Q127.913 1119.19 130.135 1119.74 Q132.357 1120.3 134.834 1120.3 Q138.839 1120.3 141.177 1118.19 Q143.515 1116.08 143.515 1112.47 Q143.515 1108.86 141.177 1106.76 Q138.839 1104.65 134.834 1104.65 Q132.959 1104.65 131.084 1105.07 Q129.232 1105.48 127.288 1106.36 L127.288 1089 Z" fill="#000000" fill-rule="evenodd" fill-opacity="1" /><path clip-path="url(#clip890)" d="M81.0614 749.566 L99.4178 749.566 L99.4178 753.501 L85.3438 753.501 L85.3438 761.973 Q86.3623 761.626 87.3808 761.464 Q88.3993 761.279 89.4178 761.279 Q95.2049 761.279 98.5845 764.45 Q101.964 767.621 101.964 773.038 Q101.964 778.617 98.4919 781.719 Q95.0197 784.797 88.7003 784.797 Q86.5243 784.797 84.2558 784.427 Q82.0105 784.057 79.6031 783.316 L79.6031 778.617 Q81.6864 779.751 83.9086 780.307 Q86.1308 780.862 88.6077 780.862 Q92.6123 780.862 94.9502 778.756 Q97.2882 776.649 97.2882 773.038 Q97.2882 769.427 94.9502 767.321 Q92.6123 765.214 88.6077 765.214 Q86.7327 765.214 84.8577 765.631 Q83.0058 766.047 81.0614 766.927 L81.0614 749.566 Z" fill="#000000" fill-rule="evenodd" fill-opacity="1" /><path clip-path="url(#clip890)" d="M111.177 778.246 L116.061 778.246 L116.061 784.126 L111.177 784.126 L111.177 778.246 Z" fill="#000000" fill-rule="evenodd" fill-opacity="1" /><path clip-path="url(#clip890)" d="M136.246 752.645 Q132.635 752.645 130.807 756.209 Q129.001 759.751 129.001 766.881 Q129.001 773.987 130.807 777.552 Q132.635 781.094 136.246 781.094 Q139.881 781.094 141.686 777.552 Q143.515 773.987 143.515 766.881 Q143.515 759.751 141.686 756.209 Q139.881 752.645 136.246 752.645 M136.246 748.941 Q142.056 748.941 145.112 753.547 Q148.191 758.131 148.191 766.881 Q148.191 775.608 145.112 780.214 Q142.056 784.797 136.246 784.797 Q130.436 784.797 127.357 780.214 Q124.302 775.608 124.302 766.881 Q124.302 758.131 127.357 753.547 Q130.436 748.941 136.246 748.941 Z" fill="#000000" fill-rule="evenodd" fill-opacity="1" /><path clip-path="url(#clip890)" d="M80.8299 410.131 L103.052 410.131 L103.052 412.122 L90.5058 444.691 L85.6216 444.691 L97.4271 414.066 L80.8299 414.066 L80.8299 410.131 Z" fill="#000000" fill-rule="evenodd" fill-opacity="1" /><path clip-path="url(#clip890)" d="M112.172 438.812 L117.057 438.812 L117.057 444.691 L112.172 444.691 L112.172 438.812 Z" fill="#000000" fill-rule="evenodd" fill-opacity="1" /><path clip-path="url(#clip890)" d="M127.288 410.131 L145.644 410.131 L145.644 414.066 L131.57 414.066 L131.57 422.538 Q132.589 422.191 133.607 422.029 Q134.626 421.844 135.644 421.844 Q141.431 421.844 144.811 425.015 Q148.191 428.187 148.191 433.603 Q148.191 439.182 144.718 442.284 Q141.246 445.362 134.927 445.362 Q132.751 445.362 130.482 444.992 Q128.237 444.622 125.83 443.881 L125.83 439.182 Q127.913 440.316 130.135 440.872 Q132.357 441.427 134.834 441.427 Q138.839 441.427 141.177 439.321 Q143.515 437.214 143.515 433.603 Q143.515 429.992 141.177 427.886 Q138.839 425.779 134.834 425.779 Q132.959 425.779 131.084 426.196 Q129.232 426.613 127.288 427.492 L127.288 410.131 Z" fill="#000000" fill-rule="evenodd" fill-opacity="1" /><path clip-path="url(#clip890)" d="M51.6634 101.321 L59.3023 101.321 L59.3023 74.9555 L50.9921 76.6222 L50.9921 72.3629 L59.256 70.6963 L63.9319 70.6963 L63.9319 101.321 L71.5707 101.321 L71.5707 105.256 L51.6634 105.256 L51.6634 101.321 Z" fill="#000000" fill-rule="evenodd" fill-opacity="1" /><path clip-path="url(#clip890)" d="M91.0151 73.775 Q87.404 73.775 85.5753 77.3398 Q83.7697 80.8814 83.7697 88.011 Q83.7697 95.1174 85.5753 98.6822 Q87.404 102.224 91.0151 102.224 Q94.6493 102.224 96.4548 98.6822 Q98.2835 95.1174 98.2835 88.011 Q98.2835 80.8814 96.4548 77.3398 Q94.6493 73.775 91.0151 73.775 M91.0151 70.0713 Q96.8252 70.0713 99.8808 74.6777 Q102.959 79.261 102.959 88.011 Q102.959 96.7378 99.8808 101.344 Q96.8252 105.928 91.0151 105.928 Q85.2049 105.928 82.1262 101.344 Q79.0707 96.7378 79.0707 88.011 Q79.0707 79.261 82.1262 74.6777 Q85.2049 70.0713 91.0151 70.0713 Z" fill="#000000" fill-rule="evenodd" fill-opacity="1" /><path clip-path="url(#clip890)" d="M111.177 99.3767 L116.061 99.3767 L116.061 105.256 L111.177 105.256 L111.177 99.3767 Z" fill="#000000" fill-rule="evenodd" fill-opacity="1" /><path clip-path="url(#clip890)" d="M136.246 73.775 Q132.635 73.775 130.807 77.3398 Q129.001 80.8814 129.001 88.011 Q129.001 95.1174 130.807 98.6822 Q132.635 102.224 136.246 102.224 Q139.881 102.224 141.686 98.6822 Q143.515 95.1174 143.515 88.011 Q143.515 80.8814 141.686 77.3398 Q139.881 73.775 136.246 73.775 M136.246 70.0713 Q142.056 70.0713 145.112 74.6777 Q148.191 79.261 148.191 88.011 Q148.191 96.7378 145.112 101.344 Q142.056 105.928 136.246 105.928 Q130.436 105.928 127.357 101.344 Q124.302 96.7378 124.302 88.011 Q124.302 79.261 127.357 74.6777 Q130.436 70.0713 136.246 70.0713 Z" fill="#000000" fill-rule="evenodd" fill-opacity="1" /><path clip-path="url(#clip892)" d="M320.735 87.9763 L320.735 1445.72 L512.06 1445.72 L512.06 87.9763 L320.735 87.9763 L320.735 87.9763  Z" fill="#009af9" fill-rule="evenodd" fill-opacity="1"/>
<polyline clip-path="url(#clip892)" style="stroke:#000000; stroke-linecap:round; stroke-linejoin:round; stroke-width:4; stroke-opacity:1; fill:none" points="320.735,87.9763 320.735,1445.72 512.06,1445.72 512.06,87.9763 320.735,87.9763 "/>
<path clip-path="url(#clip892)" d="M512.06 87.9763 L512.06 1445.72 L703.385 1445.72 L703.385 87.9763 L512.06 87.9763 L512.06 87.9763  Z" fill="#009af9" fill-rule="evenodd" fill-opacity="1"/>
<polyline clip-path="url(#clip892)" style="stroke:#000000; stroke-linecap:round; stroke-linejoin:round; stroke-width:4; stroke-opacity:1; fill:none" points="512.06,87.9763 512.06,1445.72 703.385,1445.72 703.385,87.9763 512.06,87.9763 "/>
<path clip-path="url(#clip892)" d="M703.385 87.9763 L703.385 1445.72 L894.71 1445.72 L894.71 87.9763 L703.385 87.9763 L703.385 87.9763  Z" fill="#009af9" fill-rule="evenodd" fill-opacity="1"/>
<polyline clip-path="url(#clip892)" style="stroke:#000000; stroke-linecap:round; stroke-linejoin:round; stroke-width:4; stroke-opacity:1; fill:none" points="703.385,87.9763 703.385,1445.72 894.71,1445.72 894.71,87.9763 703.385,87.9763 "/>
<path clip-path="url(#clip892)" d="M894.71 87.9763 L894.71 1445.72 L1086.03 1445.72 L1086.03 87.9763 L894.71 87.9763 L894.71 87.9763  Z" fill="#009af9" fill-rule="evenodd" fill-opacity="1"/>
<polyline clip-path="url(#clip892)" style="stroke:#000000; stroke-linecap:round; stroke-linejoin:round; stroke-width:4; stroke-opacity:1; fill:none" points="894.71,87.9763 894.71,1445.72 1086.03,1445.72 1086.03,87.9763 894.71,87.9763 "/>
<path clip-path="url(#clip892)" d="M1086.03 87.9763 L1086.03 1445.72 L1277.36 1445.72 L1277.36 87.9763 L1086.03 87.9763 L1086.03 87.9763  Z" fill="#009af9" fill-rule="evenodd" fill-opacity="1"/>
<polyline clip-path="url(#clip892)" style="stroke:#000000; stroke-linecap:round; stroke-linejoin:round; stroke-width:4; stroke-opacity:1; fill:none" points="1086.03,87.9763 1086.03,1445.72 1277.36,1445.72 1277.36,87.9763 1086.03,87.9763 "/>
<path clip-path="url(#clip892)" d="M1277.36 87.9763 L1277.36 1445.72 L1468.68 1445.72 L1468.68 87.9763 L1277.36 87.9763 L1277.36 87.9763  Z" fill="#009af9" fill-rule="evenodd" fill-opacity="1"/>
<polyline clip-path="url(#clip892)" style="stroke:#000000; stroke-linecap:round; stroke-linejoin:round; stroke-width:4; stroke-opacity:1; fill:none" points="1277.36,87.9763 1277.36,1445.72 1468.68,1445.72 1468.68,87.9763 1277.36,87.9763 "/>
<path clip-path="url(#clip892)" d="M1468.68 87.9763 L1468.68 1445.72 L1660.01 1445.72 L1660.01 87.9763 L1468.68 87.9763 L1468.68 87.9763  Z" fill="#009af9" fill-rule="evenodd" fill-opacity="1"/>
<polyline clip-path="url(#clip892)" style="stroke:#000000; stroke-linecap:round; stroke-linejoin:round; stroke-width:4; stroke-opacity:1; fill:none" points="1468.68,87.9763 1468.68,1445.72 1660.01,1445.72 1660.01,87.9763 1468.68,87.9763 "/>
<path clip-path="url(#clip892)" d="M1660.01 87.9763 L1660.01 1445.72 L1851.33 1445.72 L1851.33 87.9763 L1660.01 87.9763 L1660.01 87.9763  Z" fill="#009af9" fill-rule="evenodd" fill-opacity="1"/>
<polyline clip-path="url(#clip892)" style="stroke:#000000; stroke-linecap:round; stroke-linejoin:round; stroke-width:4; stroke-opacity:1; fill:none" points="1660.01,87.9763 1660.01,1445.72 1851.33,1445.72 1851.33,87.9763 1660.01,87.9763 "/>
<path clip-path="url(#clip892)" d="M1851.33 87.9763 L1851.33 1445.72 L2042.66 1445.72 L2042.66 87.9763 L1851.33 87.9763 L1851.33 87.9763  Z" fill="#009af9" fill-rule="evenodd" fill-opacity="1"/>
<polyline clip-path="url(#clip892)" style="stroke:#000000; stroke-linecap:round; stroke-linejoin:round; stroke-width:4; stroke-opacity:1; fill:none" points="1851.33,87.9763 1851.33,1445.72 2042.66,1445.72 2042.66,87.9763 1851.33,87.9763 "/>
<path clip-path="url(#clip892)" d="M2042.66 87.9763 L2042.66 1445.72 L2233.98 1445.72 L2233.98 87.9763 L2042.66 87.9763 L2042.66 87.9763  Z" fill="#009af9" fill-rule="evenodd" fill-opacity="1"/>
<polyline clip-path="url(#clip892)" style="stroke:#000000; stroke-linecap:round; stroke-linejoin:round; stroke-width:4; stroke-opacity:1; fill:none" points="2042.66,87.9763 2042.66,1445.72 2233.98,1445.72 2233.98,87.9763 2042.66,87.9763 "/>
<circle clip-path="url(#clip892)" style="fill:#009af9; stroke:none; fill-opacity:0" cx="416.398" cy="87.9763" r="2"/>
<circle clip-path="url(#clip892)" style="fill:#009af9; stroke:none; fill-opacity:0" cx="607.723" cy="87.9763" r="2"/>
<circle clip-path="url(#clip892)" style="fill:#009af9; stroke:none; fill-opacity:0" cx="799.047" cy="87.9763" r="2"/>
<circle clip-path="url(#clip892)" style="fill:#009af9; stroke:none; fill-opacity:0" cx="990.372" cy="87.9763" r="2"/>
<circle clip-path="url(#clip892)" style="fill:#009af9; stroke:none; fill-opacity:0" cx="1181.7" cy="87.9763" r="2"/>
<circle clip-path="url(#clip892)" style="fill:#009af9; stroke:none; fill-opacity:0" cx="1373.02" cy="87.9763" r="2"/>
<circle clip-path="url(#clip892)" style="fill:#009af9; stroke:none; fill-opacity:0" cx="1564.35" cy="87.9763" r="2"/>
<circle clip-path="url(#clip892)" style="fill:#009af9; stroke:none; fill-opacity:0" cx="1755.67" cy="87.9763" r="2"/>
<circle clip-path="url(#clip892)" style="fill:#009af9; stroke:none; fill-opacity:0" cx="1947" cy="87.9763" r="2"/>
<circle clip-path="url(#clip892)" style="fill:#009af9; stroke:none; fill-opacity:0" cx="2138.32" cy="87.9763" r="2"/>
<polyline clip-path="url(#clip892)" style="stroke:#e26f46; stroke-linecap:round; stroke-linejoin:round; stroke-width:8; stroke-opacity:1; fill:none" points="245.565,2925.65 245.565,-1391.96 "/>
<polyline clip-path="url(#clip892)" style="stroke:#e26f46; stroke-linecap:round; stroke-linejoin:round; stroke-width:8; stroke-opacity:1; fill:none" points="330.906,2925.65 330.906,-1391.96 "/>
<path clip-path="url(#clip890)" d="M1810.07 1438.47 L2280.47 1438.47 L2280.47 1282.95 L1810.07 1282.95  Z" fill="#ffffff" fill-rule="evenodd" fill-opacity="1"/>
<polyline clip-path="url(#clip890)" style="stroke:#000000; stroke-linecap:round; stroke-linejoin:round; stroke-width:4; stroke-opacity:1; fill:none" points="1810.07,1438.47 2280.47,1438.47 2280.47,1282.95 1810.07,1282.95 1810.07,1438.47 "/>
<path clip-path="url(#clip890)" d="M1834.17 1355.53 L1978.74 1355.53 L1978.74 1314.06 L1834.17 1314.06 L1834.17 1355.53  Z" fill="#009af9" fill-rule="evenodd" fill-opacity="1"/>
<polyline clip-path="url(#clip890)" style="stroke:#000000; stroke-linecap:round; stroke-linejoin:round; stroke-width:4; stroke-opacity:1; fill:none" points="1834.17,1355.53 1978.74,1355.53 1978.74,1314.06 1834.17,1314.06 1834.17,1355.53 "/>
<path clip-path="url(#clip890)" d="M2030.71 1320.18 L2030.71 1325.11 Q2028.34 1322.91 2025.66 1321.82 Q2023 1320.73 2019.99 1320.73 Q2014.06 1320.73 2010.91 1324.37 Q2007.77 1327.98 2007.77 1334.83 Q2007.77 1341.66 2010.91 1345.29 Q2014.06 1348.9 2019.99 1348.9 Q2023 1348.9 2025.66 1347.82 Q2028.34 1346.73 2030.71 1344.53 L2030.71 1349.41 Q2028.25 1351.08 2025.5 1351.91 Q2022.77 1352.75 2019.71 1352.75 Q2011.86 1352.75 2007.35 1347.95 Q2002.83 1343.14 2002.83 1334.83 Q2002.83 1326.5 2007.35 1321.7 Q2011.86 1316.89 2019.71 1316.89 Q2022.81 1316.89 2025.54 1317.72 Q2028.3 1318.53 2030.71 1320.18 Z" fill="#000000" fill-rule="evenodd" fill-opacity="1" /><path clip-path="url(#clip890)" d="M2047.79 1329.13 Q2044.36 1329.13 2042.37 1331.82 Q2040.38 1334.48 2040.38 1339.13 Q2040.38 1343.79 2042.35 1346.47 Q2044.34 1349.13 2047.79 1349.13 Q2051.19 1349.13 2053.18 1346.45 Q2055.17 1343.76 2055.17 1339.13 Q2055.17 1334.53 2053.18 1331.84 Q2051.19 1329.13 2047.79 1329.13 M2047.79 1325.52 Q2053.34 1325.52 2056.52 1329.13 Q2059.69 1332.75 2059.69 1339.13 Q2059.69 1345.5 2056.52 1349.13 Q2053.34 1352.75 2047.79 1352.75 Q2042.21 1352.75 2039.04 1349.13 Q2035.89 1345.5 2035.89 1339.13 Q2035.89 1332.75 2039.04 1329.13 Q2042.21 1325.52 2047.79 1325.52 Z" fill="#000000" fill-rule="evenodd" fill-opacity="1" /><path clip-path="url(#clip890)" d="M2088.3 1336.43 L2088.3 1352.07 L2084.04 1352.07 L2084.04 1336.57 Q2084.04 1332.88 2082.6 1331.06 Q2081.17 1329.23 2078.3 1329.23 Q2074.85 1329.23 2072.86 1331.43 Q2070.87 1333.63 2070.87 1337.42 L2070.87 1352.07 L2066.58 1352.07 L2066.58 1326.15 L2070.87 1326.15 L2070.87 1330.18 Q2072.39 1327.84 2074.45 1326.68 Q2076.54 1325.52 2079.25 1325.52 Q2083.71 1325.52 2086.01 1328.3 Q2088.3 1331.06 2088.3 1336.43 Z" fill="#000000" fill-rule="evenodd" fill-opacity="1" /><path clip-path="url(#clip890)" d="M2101.01 1318.79 L2101.01 1326.15 L2109.78 1326.15 L2109.78 1329.46 L2101.01 1329.46 L2101.01 1343.53 Q2101.01 1346.7 2101.86 1347.61 Q2102.74 1348.51 2105.4 1348.51 L2109.78 1348.51 L2109.78 1352.07 L2105.4 1352.07 Q2100.47 1352.07 2098.6 1350.25 Q2096.72 1348.39 2096.72 1343.53 L2096.72 1329.46 L2093.6 1329.46 L2093.6 1326.15 L2096.72 1326.15 L2096.72 1318.79 L2101.01 1318.79 Z" fill="#000000" fill-rule="evenodd" fill-opacity="1" /><path clip-path="url(#clip890)" d="M2115.38 1326.15 L2119.64 1326.15 L2119.64 1352.07 L2115.38 1352.07 L2115.38 1326.15 M2115.38 1316.06 L2119.64 1316.06 L2119.64 1321.45 L2115.38 1321.45 L2115.38 1316.06 Z" fill="#000000" fill-rule="evenodd" fill-opacity="1" /><path clip-path="url(#clip890)" d="M2150.1 1336.43 L2150.1 1352.07 L2145.84 1352.07 L2145.84 1336.57 Q2145.84 1332.88 2144.41 1331.06 Q2142.97 1329.23 2140.1 1329.23 Q2136.65 1329.23 2134.66 1331.43 Q2132.67 1333.63 2132.67 1337.42 L2132.67 1352.07 L2128.39 1352.07 L2128.39 1326.15 L2132.67 1326.15 L2132.67 1330.18 Q2134.2 1327.84 2136.26 1326.68 Q2138.34 1325.52 2141.05 1325.52 Q2145.52 1325.52 2147.81 1328.3 Q2150.1 1331.06 2150.1 1336.43 Z" fill="#000000" fill-rule="evenodd" fill-opacity="1" /><path clip-path="url(#clip890)" d="M2158.16 1341.84 L2158.16 1326.15 L2162.42 1326.15 L2162.42 1341.68 Q2162.42 1345.36 2163.85 1347.21 Q2165.29 1349.04 2168.16 1349.04 Q2171.61 1349.04 2173.6 1346.84 Q2175.61 1344.64 2175.61 1340.85 L2175.61 1326.15 L2179.87 1326.15 L2179.87 1352.07 L2175.61 1352.07 L2175.61 1348.09 Q2174.06 1350.45 2172 1351.61 Q2169.96 1352.75 2167.26 1352.75 Q2162.79 1352.75 2160.47 1349.97 Q2158.16 1347.19 2158.16 1341.84 M2168.88 1325.52 L2168.88 1325.52 Z" fill="#000000" fill-rule="evenodd" fill-opacity="1" /><path clip-path="url(#clip890)" d="M2188.2 1341.84 L2188.2 1326.15 L2192.46 1326.15 L2192.46 1341.68 Q2192.46 1345.36 2193.9 1347.21 Q2195.33 1349.04 2198.2 1349.04 Q2201.65 1349.04 2203.64 1346.84 Q2205.66 1344.64 2205.66 1340.85 L2205.66 1326.15 L2209.92 1326.15 L2209.92 1352.07 L2205.66 1352.07 L2205.66 1348.09 Q2204.11 1350.45 2202.05 1351.61 Q2200.01 1352.75 2197.3 1352.75 Q2192.83 1352.75 2190.52 1349.97 Q2188.2 1347.19 2188.2 1341.84 M2198.92 1325.52 L2198.92 1325.52 Z" fill="#000000" fill-rule="evenodd" fill-opacity="1" /><path clip-path="url(#clip890)" d="M2238.88 1331.13 Q2240.47 1328.26 2242.69 1326.89 Q2244.92 1325.52 2247.93 1325.52 Q2251.98 1325.52 2254.18 1328.37 Q2256.38 1331.19 2256.38 1336.43 L2256.38 1352.07 L2252.09 1352.07 L2252.09 1336.57 Q2252.09 1332.84 2250.77 1331.03 Q2249.45 1329.23 2246.75 1329.23 Q2243.44 1329.23 2241.51 1331.43 Q2239.59 1333.63 2239.59 1337.42 L2239.59 1352.07 L2235.31 1352.07 L2235.31 1336.57 Q2235.31 1332.82 2233.99 1331.03 Q2232.67 1329.23 2229.92 1329.23 Q2226.65 1329.23 2224.73 1331.45 Q2222.81 1333.65 2222.81 1337.42 L2222.81 1352.07 L2218.53 1352.07 L2218.53 1326.15 L2222.81 1326.15 L2222.81 1330.18 Q2224.27 1327.79 2226.31 1326.66 Q2228.34 1325.52 2231.14 1325.52 Q2233.97 1325.52 2235.94 1326.96 Q2237.93 1328.39 2238.88 1331.13 Z" fill="#000000" fill-rule="evenodd" fill-opacity="1" /><polyline clip-path="url(#clip890)" style="stroke:#e26f46; stroke-linecap:round; stroke-linejoin:round; stroke-width:8; stroke-opacity:1; fill:none" points="1834.17,1386.63 1978.74,1386.63 "/>
<path clip-path="url(#clip890)" d="M2002.83 1369.35 L2007.51 1369.35 L2007.51 1403.91 L2002.83 1403.91 L2002.83 1369.35 Z" fill="#000000" fill-rule="evenodd" fill-opacity="1" /><path clip-path="url(#clip890)" d="M2033.16 1378.75 L2033.16 1382.78 Q2031.35 1381.85 2029.41 1381.39 Q2027.46 1380.93 2025.38 1380.93 Q2022.21 1380.93 2020.61 1381.9 Q2019.04 1382.87 2019.04 1384.82 Q2019.04 1386.3 2020.17 1387.16 Q2021.31 1387.99 2024.73 1388.75 L2026.19 1389.08 Q2030.73 1390.05 2032.63 1391.83 Q2034.55 1393.59 2034.55 1396.76 Q2034.55 1400.37 2031.68 1402.48 Q2028.83 1404.59 2023.83 1404.59 Q2021.75 1404.59 2019.48 1404.17 Q2017.23 1403.78 2014.73 1402.97 L2014.73 1398.57 Q2017.09 1399.79 2019.39 1400.42 Q2021.68 1401.02 2023.92 1401.02 Q2026.93 1401.02 2028.55 1400 Q2030.17 1398.96 2030.17 1397.09 Q2030.17 1395.35 2028.99 1394.42 Q2027.83 1393.5 2023.88 1392.64 L2022.4 1392.29 Q2018.44 1391.46 2016.68 1389.75 Q2014.92 1388.01 2014.92 1385 Q2014.92 1381.35 2017.51 1379.35 Q2020.1 1377.36 2024.87 1377.36 Q2027.23 1377.36 2029.32 1377.71 Q2031.4 1378.06 2033.16 1378.75 Z" fill="#000000" fill-rule="evenodd" fill-opacity="1" /><path clip-path="url(#clip890)" d="M2051.38 1380.97 Q2047.95 1380.97 2045.96 1383.66 Q2043.97 1386.32 2043.97 1390.97 Q2043.97 1395.63 2045.94 1398.31 Q2047.93 1400.97 2051.38 1400.97 Q2054.78 1400.97 2056.77 1398.29 Q2058.76 1395.6 2058.76 1390.97 Q2058.76 1386.37 2056.77 1383.68 Q2054.78 1380.97 2051.38 1380.97 M2051.38 1377.36 Q2056.93 1377.36 2060.1 1380.97 Q2063.27 1384.59 2063.27 1390.97 Q2063.27 1397.34 2060.1 1400.97 Q2056.93 1404.59 2051.38 1404.59 Q2045.8 1404.59 2042.63 1400.97 Q2039.48 1397.34 2039.48 1390.97 Q2039.48 1384.59 2042.63 1380.97 Q2045.8 1377.36 2051.38 1377.36 Z" fill="#000000" fill-rule="evenodd" fill-opacity="1" /><path clip-path="url(#clip890)" d="M2070.33 1367.9 L2074.59 1367.9 L2074.59 1403.91 L2070.33 1403.91 L2070.33 1367.9 Z" fill="#000000" fill-rule="evenodd" fill-opacity="1" /><path clip-path="url(#clip890)" d="M2095.29 1390.88 Q2090.13 1390.88 2088.14 1392.06 Q2086.14 1393.24 2086.14 1396.09 Q2086.14 1398.36 2087.63 1399.7 Q2089.13 1401.02 2091.7 1401.02 Q2095.24 1401.02 2097.37 1398.52 Q2099.52 1396 2099.52 1391.83 L2099.52 1390.88 L2095.29 1390.88 M2103.78 1389.12 L2103.78 1403.91 L2099.52 1403.91 L2099.52 1399.98 Q2098.07 1402.34 2095.89 1403.47 Q2093.71 1404.59 2090.57 1404.59 Q2086.58 1404.59 2084.22 1402.36 Q2081.89 1400.12 2081.89 1396.37 Q2081.89 1391.99 2084.8 1389.77 Q2087.74 1387.55 2093.55 1387.55 L2099.52 1387.55 L2099.52 1387.13 Q2099.52 1384.19 2097.58 1382.6 Q2095.66 1380.97 2092.16 1380.97 Q2089.94 1380.97 2087.83 1381.51 Q2085.73 1382.04 2083.78 1383.1 L2083.78 1379.17 Q2086.12 1378.27 2088.32 1377.83 Q2090.52 1377.36 2092.6 1377.36 Q2098.23 1377.36 2101.01 1380.28 Q2103.78 1383.2 2103.78 1389.12 Z" fill="#000000" fill-rule="evenodd" fill-opacity="1" /><path clip-path="url(#clip890)" d="M2116.77 1370.63 L2116.77 1377.99 L2125.54 1377.99 L2125.54 1381.3 L2116.77 1381.3 L2116.77 1395.37 Q2116.77 1398.54 2117.63 1399.45 Q2118.51 1400.35 2121.17 1400.35 L2125.54 1400.35 L2125.54 1403.91 L2121.17 1403.91 Q2116.24 1403.91 2114.36 1402.09 Q2112.49 1400.23 2112.49 1395.37 L2112.49 1381.3 L2109.36 1381.3 L2109.36 1377.99 L2112.49 1377.99 L2112.49 1370.63 L2116.77 1370.63 Z" fill="#000000" fill-rule="evenodd" fill-opacity="1" /><path clip-path="url(#clip890)" d="M2153.32 1389.89 L2153.32 1391.97 L2133.74 1391.97 Q2134.01 1396.37 2136.38 1398.68 Q2138.76 1400.97 2143 1400.97 Q2145.45 1400.97 2147.74 1400.37 Q2150.06 1399.77 2152.32 1398.57 L2152.32 1402.59 Q2150.03 1403.57 2147.63 1404.08 Q2145.22 1404.59 2142.74 1404.59 Q2136.54 1404.59 2132.9 1400.97 Q2129.29 1397.36 2129.29 1391.21 Q2129.29 1384.84 2132.72 1381.11 Q2136.17 1377.36 2142 1377.36 Q2147.23 1377.36 2150.26 1380.74 Q2153.32 1384.1 2153.32 1389.89 M2149.06 1388.64 Q2149.01 1385.14 2147.09 1383.06 Q2145.2 1380.97 2142.05 1380.97 Q2138.48 1380.97 2136.33 1382.99 Q2134.2 1385 2133.88 1388.66 L2149.06 1388.64 Z" fill="#000000" fill-rule="evenodd" fill-opacity="1" /><path clip-path="url(#clip890)" d="M2177.37 1381.92 L2177.37 1367.9 L2181.63 1367.9 L2181.63 1403.91 L2177.37 1403.91 L2177.37 1400.03 Q2176.03 1402.34 2173.97 1403.47 Q2171.93 1404.59 2169.06 1404.59 Q2164.36 1404.59 2161.4 1400.84 Q2158.46 1397.09 2158.46 1390.97 Q2158.46 1384.86 2161.4 1381.11 Q2164.36 1377.36 2169.06 1377.36 Q2171.93 1377.36 2173.97 1378.5 Q2176.03 1379.61 2177.37 1381.92 M2162.86 1390.97 Q2162.86 1395.67 2164.78 1398.36 Q2166.72 1401.02 2170.1 1401.02 Q2173.48 1401.02 2175.43 1398.36 Q2177.37 1395.67 2177.37 1390.97 Q2177.37 1386.28 2175.43 1383.61 Q2173.48 1380.93 2170.1 1380.93 Q2166.72 1380.93 2164.78 1383.61 Q2162.86 1386.28 2162.86 1390.97 Z" fill="#000000" fill-rule="evenodd" fill-opacity="1" /></svg>
