<?xml version="1.0" encoding="utf-8"?>
<svg xmlns="http://www.w3.org/2000/svg" xmlns:xlink="http://www.w3.org/1999/xlink" width="600" height="400" viewBox="0 0 2400 1600">
<defs>
  <clipPath id="clip930">
    <rect x="0" y="0" width="2400" height="1600"/>
  </clipPath>
</defs>
<path clip-path="url(#clip930)" d="M0 1600 L2400 1600 L2400 0 L0 0  Z" fill="#ffffff" fill-rule="evenodd" fill-opacity="1"/>
<defs>
  <clipPath id="clip931">
    <rect x="480" y="0" width="1681" height="1600"/>
  </clipPath>
</defs>
<defs>
  <clipPath id="clip932">
    <rect x="156" y="47" width="2197" height="1440"/>
  </clipPath>
</defs>
<path clip-path="url(#clip930)" d="M156.598 1486.45 L2352.76 1486.45 L2352.76 47.2441 L156.598 47.2441  Z" fill="#ffffff" fill-rule="evenodd" fill-opacity="1"/>
<polyline clip-path="url(#clip932)" style="stroke:#000000; stroke-linecap:round; stroke-linejoin:round; stroke-width:2; stroke-opacity:0.1; fill:none" points="218.754,1486.45 218.754,47.2441 "/>
<polyline clip-path="url(#clip932)" style="stroke:#000000; stroke-linecap:round; stroke-linejoin:round; stroke-width:2; stroke-opacity:0.1; fill:none" points="736.715,1486.45 736.715,47.2441 "/>
<polyline clip-path="url(#clip932)" style="stroke:#000000; stroke-linecap:round; stroke-linejoin:round; stroke-width:2; stroke-opacity:0.1; fill:none" points="1254.68,1486.45 1254.68,47.2441 "/>
<polyline clip-path="url(#clip932)" style="stroke:#000000; stroke-linecap:round; stroke-linejoin:round; stroke-width:2; stroke-opacity:0.1; fill:none" points="1772.64,1486.45 1772.64,47.2441 "/>
<polyline clip-path="url(#clip932)" style="stroke:#000000; stroke-linecap:round; stroke-linejoin:round; stroke-width:2; stroke-opacity:0.1; fill:none" points="2290.6,1486.45 2290.6,47.2441 "/>
<polyline clip-path="url(#clip930)" style="stroke:#000000; stroke-linecap:round; stroke-linejoin:round; stroke-width:4; stroke-opacity:1; fill:none" points="156.598,1486.45 2352.76,1486.45 "/>
<polyline clip-path="url(#clip930)" style="stroke:#000000; stroke-linecap:round; stroke-linejoin:round; stroke-width:4; stroke-opacity:1; fill:none" points="218.754,1486.45 218.754,1467.55 "/>
<polyline clip-path="url(#clip930)" style="stroke:#000000; stroke-linecap:round; stroke-linejoin:round; stroke-width:4; stroke-opacity:1; fill:none" points="736.715,1486.45 736.715,1467.55 "/>
<polyline clip-path="url(#clip930)" style="stroke:#000000; stroke-linecap:round; stroke-linejoin:round; stroke-width:4; stroke-opacity:1; fill:none" points="1254.68,1486.45 1254.68,1467.55 "/>
<polyline clip-path="url(#clip930)" style="stroke:#000000; stroke-linecap:round; stroke-linejoin:round; stroke-width:4; stroke-opacity:1; fill:none" points="1772.64,1486.45 1772.64,1467.55 "/>
<polyline clip-path="url(#clip930)" style="stroke:#000000; stroke-linecap:round; stroke-linejoin:round; stroke-width:4; stroke-opacity:1; fill:none" points="2290.6,1486.45 2290.6,1467.55 "/>
<path clip-path="url(#clip930)" d="M218.754 1517.37 Q215.143 1517.37 213.314 1520.93 Q211.508 1524.47 211.508 1531.6 Q211.508 1538.71 213.314 1542.27 Q215.143 1545.82 218.754 1545.82 Q222.388 1545.82 224.193 1542.27 Q226.022 1538.71 226.022 1531.6 Q226.022 1524.47 224.193 1520.93 Q222.388 1517.37 218.754 1517.37 M218.754 1513.66 Q224.564 1513.66 227.619 1518.27 Q230.698 1522.85 230.698 1531.6 Q230.698 1540.33 227.619 1544.94 Q224.564 1549.52 218.754 1549.52 Q212.943 1549.52 209.865 1544.94 Q206.809 1540.33 206.809 1531.6 Q206.809 1522.85 209.865 1518.27 Q212.943 1513.66 218.754 1513.66 Z" fill="#000000" fill-rule="evenodd" fill-opacity="1" /><path clip-path="url(#clip930)" d="M715.986 1544.91 L732.306 1544.91 L732.306 1548.85 L710.361 1548.85 L710.361 1544.91 Q713.023 1542.16 717.607 1537.53 Q722.213 1532.88 723.394 1531.53 Q725.639 1529.01 726.519 1527.27 Q727.421 1525.51 727.421 1523.82 Q727.421 1521.07 725.477 1519.33 Q723.556 1517.6 720.454 1517.6 Q718.255 1517.6 715.801 1518.36 Q713.371 1519.13 710.593 1520.68 L710.593 1515.95 Q713.417 1514.82 715.871 1514.24 Q718.324 1513.66 720.361 1513.66 Q725.732 1513.66 728.926 1516.35 Q732.12 1519.03 732.12 1523.52 Q732.12 1525.65 731.31 1527.57 Q730.523 1529.47 728.417 1532.07 Q727.838 1532.74 724.736 1535.95 Q721.634 1539.15 715.986 1544.91 Z" fill="#000000" fill-rule="evenodd" fill-opacity="1" /><path clip-path="url(#clip930)" d="M742.167 1514.29 L760.523 1514.29 L760.523 1518.22 L746.449 1518.22 L746.449 1526.7 Q747.468 1526.35 748.486 1526.19 Q749.505 1526 750.523 1526 Q756.31 1526 759.69 1529.17 Q763.069 1532.34 763.069 1537.76 Q763.069 1543.34 759.597 1546.44 Q756.125 1549.52 749.806 1549.52 Q747.63 1549.52 745.361 1549.15 Q743.116 1548.78 740.708 1548.04 L740.708 1543.34 Q742.792 1544.47 745.014 1545.03 Q747.236 1545.58 749.713 1545.58 Q753.718 1545.58 756.056 1543.48 Q758.393 1541.37 758.393 1537.76 Q758.393 1534.15 756.056 1532.04 Q753.718 1529.94 749.713 1529.94 Q747.838 1529.94 745.963 1530.35 Q744.111 1530.77 742.167 1531.65 L742.167 1514.29 Z" fill="#000000" fill-rule="evenodd" fill-opacity="1" /><path clip-path="url(#clip930)" d="M1229.38 1514.29 L1247.73 1514.29 L1247.73 1518.22 L1233.66 1518.22 L1233.66 1526.7 Q1234.68 1526.35 1235.7 1526.19 Q1236.71 1526 1237.73 1526 Q1243.52 1526 1246.9 1529.17 Q1250.28 1532.34 1250.28 1537.76 Q1250.28 1543.34 1246.81 1546.44 Q1243.33 1549.52 1237.02 1549.52 Q1234.84 1549.52 1232.57 1549.15 Q1230.33 1548.78 1227.92 1548.04 L1227.92 1543.34 Q1230 1544.47 1232.22 1545.03 Q1234.45 1545.58 1236.92 1545.58 Q1240.93 1545.58 1243.27 1543.48 Q1245.6 1541.37 1245.6 1537.76 Q1245.6 1534.15 1243.27 1532.04 Q1240.93 1529.94 1236.92 1529.94 Q1235.05 1529.94 1233.17 1530.35 Q1231.32 1530.77 1229.38 1531.65 L1229.38 1514.29 Z" fill="#000000" fill-rule="evenodd" fill-opacity="1" /><path clip-path="url(#clip930)" d="M1269.49 1517.37 Q1265.88 1517.37 1264.05 1520.93 Q1262.25 1524.47 1262.25 1531.6 Q1262.25 1538.71 1264.05 1542.27 Q1265.88 1545.82 1269.49 1545.82 Q1273.13 1545.82 1274.93 1542.27 Q1276.76 1538.71 1276.76 1531.6 Q1276.76 1524.47 1274.93 1520.93 Q1273.13 1517.37 1269.49 1517.37 M1269.49 1513.66 Q1275.3 1513.66 1278.36 1518.27 Q1281.44 1522.85 1281.44 1531.6 Q1281.44 1540.33 1278.36 1544.94 Q1275.3 1549.52 1269.49 1549.52 Q1263.68 1549.52 1260.6 1544.94 Q1257.55 1540.33 1257.55 1531.6 Q1257.55 1522.85 1260.6 1518.27 Q1263.68 1513.66 1269.49 1513.66 Z" fill="#000000" fill-rule="evenodd" fill-opacity="1" /><path clip-path="url(#clip930)" d="M1746.49 1514.29 L1768.72 1514.29 L1768.72 1516.28 L1756.17 1548.85 L1751.28 1548.85 L1763.09 1518.22 L1746.49 1518.22 L1746.49 1514.29 Z" fill="#000000" fill-rule="evenodd" fill-opacity="1" /><path clip-path="url(#clip930)" d="M1777.88 1514.29 L1796.24 1514.29 L1796.24 1518.22 L1782.16 1518.22 L1782.16 1526.7 Q1783.18 1526.35 1784.2 1526.19 Q1785.22 1526 1786.24 1526 Q1792.03 1526 1795.4 1529.17 Q1798.78 1532.34 1798.78 1537.76 Q1798.78 1543.34 1795.31 1546.44 Q1791.84 1549.52 1785.52 1549.52 Q1783.34 1549.52 1781.08 1549.15 Q1778.83 1548.78 1776.42 1548.04 L1776.42 1543.34 Q1778.51 1544.47 1780.73 1545.03 Q1782.95 1545.58 1785.43 1545.58 Q1789.43 1545.58 1791.77 1543.48 Q1794.11 1541.37 1794.11 1537.76 Q1794.11 1534.15 1791.77 1532.04 Q1789.43 1529.94 1785.43 1529.94 Q1783.55 1529.94 1781.68 1530.35 Q1779.83 1530.77 1777.88 1531.65 L1777.88 1514.29 Z" fill="#000000" fill-rule="evenodd" fill-opacity="1" /><path clip-path="url(#clip930)" d="M2250.21 1544.91 L2257.85 1544.91 L2257.85 1518.55 L2249.54 1520.21 L2249.54 1515.95 L2257.8 1514.29 L2262.48 1514.29 L2262.48 1544.91 L2270.11 1544.91 L2270.11 1548.85 L2250.21 1548.85 L2250.21 1544.91 Z" fill="#000000" fill-rule="evenodd" fill-opacity="1" /><path clip-path="url(#clip930)" d="M2289.56 1517.37 Q2285.95 1517.37 2284.12 1520.93 Q2282.31 1524.47 2282.31 1531.6 Q2282.31 1538.71 2284.12 1542.27 Q2285.95 1545.82 2289.56 1545.82 Q2293.19 1545.82 2295 1542.27 Q2296.83 1538.71 2296.83 1531.6 Q2296.83 1524.47 2295 1520.93 Q2293.19 1517.37 2289.56 1517.37 M2289.56 1513.66 Q2295.37 1513.66 2298.42 1518.27 Q2301.5 1522.85 2301.5 1531.6 Q2301.5 1540.33 2298.42 1544.94 Q2295.37 1549.52 2289.56 1549.52 Q2283.75 1549.52 2280.67 1544.94 Q2277.61 1540.33 2277.61 1531.6 Q2277.61 1522.85 2280.67 1518.27 Q2283.75 1513.66 2289.56 1513.66 Z" fill="#000000" fill-rule="evenodd" fill-opacity="1" /><path clip-path="url(#clip930)" d="M2319.72 1517.37 Q2316.11 1517.37 2314.28 1520.93 Q2312.48 1524.47 2312.48 1531.6 Q2312.48 1538.71 2314.28 1542.27 Q2316.11 1545.82 2319.72 1545.82 Q2323.35 1545.82 2325.16 1542.27 Q2326.99 1538.71 2326.99 1531.6 Q2326.99 1524.47 2325.16 1520.93 Q2323.35 1517.37 2319.72 1517.37 M2319.72 1513.66 Q2325.53 1513.66 2328.59 1518.27 Q2331.67 1522.85 2331.67 1531.6 Q2331.67 1540.33 2328.59 1544.94 Q2325.53 1549.52 2319.72 1549.52 Q2313.91 1549.52 2310.83 1544.94 Q2307.78 1540.33 2307.78 1531.6 Q2307.78 1522.85 2310.83 1518.27 Q2313.91 1513.66 2319.72 1513.66 Z" fill="#000000" fill-rule="evenodd" fill-opacity="1" /><polyline clip-path="url(#clip932)" style="stroke:#000000; stroke-linecap:round; stroke-linejoin:round; stroke-width:2; stroke-opacity:0.1; fill:none" points="156.598,1486.45 2352.76,1486.45 "/>
<polyline clip-path="url(#clip932)" style="stroke:#000000; stroke-linecap:round; stroke-linejoin:round; stroke-width:2; stroke-opacity:0.1; fill:none" points="156.598,1198.61 2352.76,1198.61 "/>
<polyline clip-path="url(#clip932)" style="stroke:#000000; stroke-linecap:round; stroke-linejoin:round; stroke-width:2; stroke-opacity:0.1; fill:none" points="156.598,910.766 2352.76,910.766 "/>
<polyline clip-path="url(#clip932)" style="stroke:#000000; stroke-linecap:round; stroke-linejoin:round; stroke-width:2; stroke-opacity:0.1; fill:none" points="156.598,622.926 2352.76,622.926 "/>
<polyline clip-path="url(#clip932)" style="stroke:#000000; stroke-linecap:round; stroke-linejoin:round; stroke-width:2; stroke-opacity:0.1; fill:none" points="156.598,335.085 2352.76,335.085 "/>
<polyline clip-path="url(#clip932)" style="stroke:#000000; stroke-linecap:round; stroke-linejoin:round; stroke-width:2; stroke-opacity:0.1; fill:none" points="156.598,47.2441 2352.76,47.2441 "/>
<polyline clip-path="url(#clip930)" style="stroke:#000000; stroke-linecap:round; stroke-linejoin:round; stroke-width:4; stroke-opacity:1; fill:none" points="156.598,1486.45 156.598,47.2441 "/>
<polyline clip-path="url(#clip930)" style="stroke:#000000; stroke-linecap:round; stroke-linejoin:round; stroke-width:4; stroke-opacity:1; fill:none" points="156.598,1486.45 175.496,1486.45 "/>
<polyline clip-path="url(#clip930)" style="stroke:#000000; stroke-linecap:round; stroke-linejoin:round; stroke-width:4; stroke-opacity:1; fill:none" points="156.598,1198.61 175.496,1198.61 "/>
<polyline clip-path="url(#clip930)" style="stroke:#000000; stroke-linecap:round; stroke-linejoin:round; stroke-width:4; stroke-opacity:1; fill:none" points="156.598,910.766 175.496,910.766 "/>
<polyline clip-path="url(#clip930)" style="stroke:#000000; stroke-linecap:round; stroke-linejoin:round; stroke-width:4; stroke-opacity:1; fill:none" points="156.598,622.926 175.496,622.926 "/>
<polyline clip-path="url(#clip930)" style="stroke:#000000; stroke-linecap:round; stroke-linejoin:round; stroke-width:4; stroke-opacity:1; fill:none" points="156.598,335.085 175.496,335.085 "/>
<polyline clip-path="url(#clip930)" style="stroke:#000000; stroke-linecap:round; stroke-linejoin:round; stroke-width:4; stroke-opacity:1; fill:none" points="156.598,47.2441 175.496,47.2441 "/>
<path clip-path="url(#clip930)" d="M63.4226 1472.25 Q59.8115 1472.25 57.9828 1475.81 Q56.1773 1479.35 56.1773 1486.48 Q56.1773 1493.59 57.9828 1497.15 Q59.8115 1500.7 63.4226 1500.7 Q67.0569 1500.7 68.8624 1497.15 Q70.6911 1493.59 70.6911 1486.48 Q70.6911 1479.35 68.8624 1475.81 Q67.0569 1472.25 63.4226 1472.25 M63.4226 1468.54 Q69.2328 1468.54 72.2883 1473.15 Q75.367 1477.73 75.367 1486.48 Q75.367 1495.21 72.2883 1499.82 Q69.2328 1504.4 63.4226 1504.4 Q57.6125 1504.4 54.5338 1499.82 Q51.4782 1495.21 51.4782 1486.48 Q51.4782 1477.73 54.5338 1473.15 Q57.6125 1468.54 63.4226 1468.54 Z" fill="#000000" fill-rule="evenodd" fill-opacity="1" /><path clip-path="url(#clip930)" d="M83.5845 1497.85 L88.4688 1497.85 L88.4688 1503.73 L83.5845 1503.73 L83.5845 1497.85 Z" fill="#000000" fill-rule="evenodd" fill-opacity="1" /><path clip-path="url(#clip930)" d="M108.654 1472.25 Q105.043 1472.25 103.214 1475.81 Q101.409 1479.35 101.409 1486.48 Q101.409 1493.59 103.214 1497.15 Q105.043 1500.7 108.654 1500.7 Q112.288 1500.7 114.094 1497.15 Q115.922 1493.59 115.922 1486.48 Q115.922 1479.35 114.094 1475.81 Q112.288 1472.25 108.654 1472.25 M108.654 1468.54 Q114.464 1468.54 117.52 1473.15 Q120.598 1477.73 120.598 1486.48 Q120.598 1495.21 117.52 1499.82 Q114.464 1504.4 108.654 1504.4 Q102.844 1504.4 99.765 1499.82 Q96.7095 1495.21 96.7095 1486.48 Q96.7095 1477.73 99.765 1473.15 Q102.844 1468.54 108.654 1468.54 Z" fill="#000000" fill-rule="evenodd" fill-opacity="1" /><path clip-path="url(#clip930)" d="M65.0198 1184.41 Q61.4087 1184.41 59.58 1187.97 Q57.7745 1191.51 57.7745 1198.64 Q57.7745 1205.75 59.58 1209.31 Q61.4087 1212.85 65.0198 1212.85 Q68.6541 1212.85 70.4596 1209.31 Q72.2883 1205.75 72.2883 1198.64 Q72.2883 1191.51 70.4596 1187.97 Q68.6541 1184.41 65.0198 1184.41 M65.0198 1180.7 Q70.83 1180.7 73.8855 1185.31 Q76.9642 1189.89 76.9642 1198.64 Q76.9642 1207.37 73.8855 1211.98 Q70.83 1216.56 65.0198 1216.56 Q59.2097 1216.56 56.131 1211.98 Q53.0754 1207.37 53.0754 1198.64 Q53.0754 1189.89 56.131 1185.31 Q59.2097 1180.7 65.0198 1180.7 Z" fill="#000000" fill-rule="evenodd" fill-opacity="1" /><path clip-path="url(#clip930)" d="M85.1818 1210.01 L90.066 1210.01 L90.066 1215.89 L85.1818 1215.89 L85.1818 1210.01 Z" fill="#000000" fill-rule="evenodd" fill-opacity="1" /><path clip-path="url(#clip930)" d="M104.279 1211.95 L120.598 1211.95 L120.598 1215.89 L98.6539 1215.89 L98.6539 1211.95 Q101.316 1209.2 105.899 1204.57 Q110.506 1199.91 111.686 1198.57 Q113.932 1196.05 114.811 1194.31 Q115.714 1192.55 115.714 1190.86 Q115.714 1188.11 113.77 1186.37 Q111.848 1184.64 108.746 1184.64 Q106.547 1184.64 104.094 1185.4 Q101.663 1186.17 98.8854 1187.72 L98.8854 1182.99 Q101.709 1181.86 104.163 1181.28 Q106.617 1180.7 108.654 1180.7 Q114.024 1180.7 117.219 1183.39 Q120.413 1186.07 120.413 1190.56 Q120.413 1192.69 119.603 1194.61 Q118.816 1196.51 116.709 1199.1 Q116.131 1199.78 113.029 1202.99 Q109.927 1206.19 104.279 1211.95 Z" fill="#000000" fill-rule="evenodd" fill-opacity="1" /><path clip-path="url(#clip930)" d="M62.9365 896.565 Q59.3254 896.565 57.4967 900.13 Q55.6912 903.671 55.6912 910.801 Q55.6912 917.908 57.4967 921.472 Q59.3254 925.014 62.9365 925.014 Q66.5707 925.014 68.3763 921.472 Q70.205 917.908 70.205 910.801 Q70.205 903.671 68.3763 900.13 Q66.5707 896.565 62.9365 896.565 M62.9365 892.861 Q68.7467 892.861 71.8022 897.468 Q74.8809 902.051 74.8809 910.801 Q74.8809 919.528 71.8022 924.134 Q68.7467 928.718 62.9365 928.718 Q57.1264 928.718 54.0477 924.134 Q50.9921 919.528 50.9921 910.801 Q50.9921 902.051 54.0477 897.468 Q57.1264 892.861 62.9365 892.861 Z" fill="#000000" fill-rule="evenodd" fill-opacity="1" /><path clip-path="url(#clip930)" d="M83.0984 922.167 L87.9827 922.167 L87.9827 928.046 L83.0984 928.046 L83.0984 922.167 Z" fill="#000000" fill-rule="evenodd" fill-opacity="1" /><path clip-path="url(#clip930)" d="M111.015 897.56 L99.2095 916.009 L111.015 916.009 L111.015 897.56 M109.788 893.486 L115.668 893.486 L115.668 916.009 L120.598 916.009 L120.598 919.898 L115.668 919.898 L115.668 928.046 L111.015 928.046 L111.015 919.898 L95.4132 919.898 L95.4132 915.384 L109.788 893.486 Z" fill="#000000" fill-rule="evenodd" fill-opacity="1" /><path clip-path="url(#clip930)" d="M63.2606 608.724 Q59.6495 608.724 57.8208 612.289 Q56.0152 615.831 56.0152 622.96 Q56.0152 630.067 57.8208 633.632 Q59.6495 637.173 63.2606 637.173 Q66.8948 637.173 68.7004 633.632 Q70.5291 630.067 70.5291 622.96 Q70.5291 615.831 68.7004 612.289 Q66.8948 608.724 63.2606 608.724 M63.2606 605.021 Q69.0707 605.021 72.1263 609.627 Q75.205 614.21 75.205 622.96 Q75.205 631.687 72.1263 636.294 Q69.0707 640.877 63.2606 640.877 Q57.4504 640.877 54.3717 636.294 Q51.3162 631.687 51.3162 622.96 Q51.3162 614.21 54.3717 609.627 Q57.4504 605.021 63.2606 605.021 Z" fill="#000000" fill-rule="evenodd" fill-opacity="1" /><path clip-path="url(#clip930)" d="M83.4225 634.326 L88.3067 634.326 L88.3067 640.206 L83.4225 640.206 L83.4225 634.326 Z" fill="#000000" fill-rule="evenodd" fill-opacity="1" /><path clip-path="url(#clip930)" d="M109.071 621.062 Q105.922 621.062 104.071 623.215 Q102.242 625.368 102.242 629.118 Q102.242 632.845 104.071 635.02 Q105.922 637.173 109.071 637.173 Q112.219 637.173 114.047 635.02 Q115.899 632.845 115.899 629.118 Q115.899 625.368 114.047 623.215 Q112.219 621.062 109.071 621.062 M118.353 606.409 L118.353 610.669 Q116.594 609.835 114.788 609.396 Q113.006 608.956 111.246 608.956 Q106.617 608.956 104.163 612.081 Q101.733 615.206 101.385 621.525 Q102.751 619.511 104.811 618.446 Q106.871 617.359 109.348 617.359 Q114.557 617.359 117.566 620.53 Q120.598 623.678 120.598 629.118 Q120.598 634.442 117.45 637.659 Q114.302 640.877 109.071 640.877 Q103.075 640.877 99.9039 636.294 Q96.7326 631.687 96.7326 622.96 Q96.7326 614.766 100.621 609.905 Q104.51 605.021 111.061 605.021 Q112.82 605.021 114.603 605.368 Q116.408 605.715 118.353 606.409 Z" fill="#000000" fill-rule="evenodd" fill-opacity="1" /><path clip-path="url(#clip930)" d="M63.5152 320.884 Q59.9041 320.884 58.0754 324.448 Q56.2699 327.99 56.2699 335.12 Q56.2699 342.226 58.0754 345.791 Q59.9041 349.332 63.5152 349.332 Q67.1494 349.332 68.955 345.791 Q70.7837 342.226 70.7837 335.12 Q70.7837 327.99 68.955 324.448 Q67.1494 320.884 63.5152 320.884 M63.5152 317.18 Q69.3254 317.18 72.3809 321.786 Q75.4596 326.37 75.4596 335.12 Q75.4596 343.846 72.3809 348.453 Q69.3254 353.036 63.5152 353.036 Q57.7051 353.036 54.6264 348.453 Q51.5708 343.846 51.5708 335.12 Q51.5708 326.37 54.6264 321.786 Q57.7051 317.18 63.5152 317.18 Z" fill="#000000" fill-rule="evenodd" fill-opacity="1" /><path clip-path="url(#clip930)" d="M83.6771 346.485 L88.5614 346.485 L88.5614 352.365 L83.6771 352.365 L83.6771 346.485 Z" fill="#000000" fill-rule="evenodd" fill-opacity="1" /><path clip-path="url(#clip930)" d="M108.746 335.953 Q105.413 335.953 103.492 337.735 Q101.594 339.518 101.594 342.643 Q101.594 345.768 103.492 347.55 Q105.413 349.332 108.746 349.332 Q112.08 349.332 114.001 347.55 Q115.922 345.745 115.922 342.643 Q115.922 339.518 114.001 337.735 Q112.103 335.953 108.746 335.953 M104.071 333.962 Q101.061 333.221 99.3715 331.161 Q97.7048 329.101 97.7048 326.138 Q97.7048 321.995 100.645 319.587 Q103.608 317.18 108.746 317.18 Q113.908 317.18 116.848 319.587 Q119.788 321.995 119.788 326.138 Q119.788 329.101 118.098 331.161 Q116.432 333.221 113.445 333.962 Q116.825 334.749 118.7 337.041 Q120.598 339.333 120.598 342.643 Q120.598 347.666 117.52 350.351 Q114.464 353.036 108.746 353.036 Q103.029 353.036 99.9502 350.351 Q96.8947 347.666 96.8947 342.643 Q96.8947 339.333 98.7928 337.041 Q100.691 334.749 104.071 333.962 M102.358 326.578 Q102.358 329.263 104.024 330.768 Q105.714 332.272 108.746 332.272 Q111.756 332.272 113.445 330.768 Q115.158 329.263 115.158 326.578 Q115.158 323.893 113.445 322.388 Q111.756 320.884 108.746 320.884 Q105.714 320.884 104.024 322.388 Q102.358 323.893 102.358 326.578 Z" fill="#000000" fill-rule="evenodd" fill-opacity="1" /><path clip-path="url(#clip930)" d="M54.2328 60.5889 L61.8717 60.5889 L61.8717 34.2233 L53.5616 35.89 L53.5616 31.6308 L61.8254 29.9641 L66.5013 29.9641 L66.5013 60.5889 L74.1402 60.5889 L74.1402 64.5241 L54.2328 64.5241 L54.2328 60.5889 Z" fill="#000000" fill-rule="evenodd" fill-opacity="1" /><path clip-path="url(#clip930)" d="M83.5845 58.6445 L88.4688 58.6445 L88.4688 64.5241 L83.5845 64.5241 L83.5845 58.6445 Z" fill="#000000" fill-rule="evenodd" fill-opacity="1" /><path clip-path="url(#clip930)" d="M108.654 33.0428 Q105.043 33.0428 103.214 36.6076 Q101.409 40.1492 101.409 47.2788 Q101.409 54.3853 103.214 57.9501 Q105.043 61.4917 108.654 61.4917 Q112.288 61.4917 114.094 57.9501 Q115.922 54.3853 115.922 47.2788 Q115.922 40.1492 114.094 36.6076 Q112.288 33.0428 108.654 33.0428 M108.654 29.3391 Q114.464 29.3391 117.52 33.9456 Q120.598 38.5289 120.598 47.2788 Q120.598 56.0056 117.52 60.6121 Q114.464 65.1954 108.654 65.1954 Q102.844 65.1954 99.765 60.6121 Q96.7095 56.0056 96.7095 47.2788 Q96.7095 38.5289 99.765 33.9456 Q102.844 29.3391 108.654 29.3391 Z" fill="#000000" fill-rule="evenodd" fill-opacity="1" /><polyline clip-path="url(#clip932)" style="stroke:#009af9; stroke-linecap:round; stroke-linejoin:round; stroke-width:4; stroke-opacity:1; fill:none" points="218.754,-7556.34 218.859,-140568 218.964,-69900.6 219.07,-46344.6 219.175,-34566.6 219.281,-27499.8 219.386,-22788.6 219.491,-19423.5 219.597,-16899.6 219.702,-14936.6 219.807,-13366.2 219.913,-12081.4 220.018,-11010.6 220.124,-10104.6 220.229,-9328.07 220.334,-8655.05 220.44,-8066.15 220.545,-7546.53 220.651,-7084.65 220.756,-6671.39 220.861,-6299.45 221.072,-5657.02 221.283,-5121.65 221.494,-4668.65 221.704,-4280.37 221.915,-3943.85 222.126,-3649.4 222.337,-3389.6 222.547,-3158.66 222.758,-2952.02 222.969,-2766.06 223.39,-2444.84 223.812,-2177.16 224.233,-1950.66 224.655,-1756.51 225.077,-1588.26 225.498,-1441.03 225.92,-1311.13 226.341,-1195.66 226.763,-1092.34 227.184,-999.359 228.027,-838.75 228.87,-704.909 229.713,-591.659 230.556,-494.588 230.978,-451.073 231.399,-410.459 231.821,-372.466 232.242,-336.847 236.14,-89.3156 240.038,67.5581 243.935,175.87 247.833,255.147 255.628,363.424 263.423,433.91 271.219,483.451 279.014,520.174 286.809,548.485 294.604,570.977 310.195,604.456 325.785,628.182 341.376,645.875 356.966,659.576 394.443,682.563 431.92,697.468 463.607,706.51 495.293,713.48 564.133,724.215 627.598,730.909 695.639,736.107 774.471,740.537 844.528,743.538 905.961,745.665 972.94,747.59 1040.32,749.21 1114.81,750.717 1185.69,751.935 1259.39,753.026 1321.42,753.831 1397.17,754.7 1466.55,755.402 1530.63,755.985 1595.54,756.521 1668.29,757.064 1734.21,757.511 1809.69,757.977 1879.57,758.371 1948.47,758.728 2015.36,759.049 2083.94,759.353 2159.07,759.663 2268.21,760.071 2290.6,760.15 "/>
<polyline clip-path="url(#clip932)" style="stroke:#e26f46; stroke-linecap:round; stroke-linejoin:round; stroke-width:4; stroke-opacity:1; fill:none" points="218.754,9090.03 218.859,142526 218.964,71645.6 219.07,48018.7 219.175,36205.2 219.281,29117.1 219.386,24391.8 219.491,21016.5 219.597,18485 219.702,16516.1 219.807,14941 219.913,13652.3 220.018,12578.3 220.124,11669.6 220.229,10890.7 220.334,10215.6 220.44,9624.95 220.545,9103.77 220.651,8640.5 220.756,8225.99 220.861,7852.93 221.072,7208.56 221.283,6671.59 221.494,6217.22 221.704,5827.77 221.915,5490.24 222.126,5194.91 222.337,4934.31 222.547,4702.68 222.758,4495.42 222.969,4308.9 223.39,3986.71 223.812,3718.22 224.233,3491.04 224.655,3296.31 225.077,3127.55 225.498,2979.88 225.92,2849.59 226.341,2733.77 226.763,2630.14 227.184,2536.88 228.027,2375.79 228.87,2241.54 229.713,2127.95 230.556,2030.59 230.978,1986.94 231.399,1946.21 231.821,1908.1 232.242,1872.37 236.14,1624.09 240.038,1466.75 243.935,1358.11 247.833,1278.59 255.628,1169.99 263.423,1099.29 271.219,1049.6 279.014,1012.77 286.809,984.373 294.604,961.813 310.195,928.233 325.785,904.436 341.376,886.69 356.966,872.947 394.443,849.891 431.92,834.942 463.607,825.872 495.293,818.881 564.133,808.114 627.598,801.4 695.639,796.186 774.471,791.742 844.528,788.733 905.961,786.599 972.94,784.668 1040.32,783.044 1114.81,781.532 1185.69,780.31 1259.39,779.216 1321.42,778.408 1397.17,777.537 1466.55,776.832 1530.63,776.247 1595.54,775.711 1668.29,775.166 1734.21,774.718 1809.69,774.25 1879.57,773.855 1948.47,773.497 2015.36,773.175 2083.94,772.869 2159.07,772.559 2268.21,772.149 2290.6,772.07 "/>
<polyline clip-path="url(#clip932)" style="stroke:#3da44d; stroke-linecap:round; stroke-linejoin:round; stroke-width:4; stroke-opacity:1; fill:none" points="218.754,-7556.34 218.859,-141402 218.964,-70315.6 219.07,-46620.2 219.175,-34772.5 219.281,-27663.9 219.386,-22924.8 219.491,-19539.8 219.597,-17001 219.702,-15026.4 219.807,-13446.7 219.913,-12154.2 220.018,-11077.1 220.124,-10165.8 220.229,-9384.62 220.334,-8707.61 220.44,-8115.22 220.545,-7592.53 220.651,-7127.92 220.756,-6712.21 220.861,-6338.07 221.072,-5691.83 221.283,-5153.3 221.494,-4697.62 221.704,-4307.04 221.915,-3968.53 222.126,-3672.34 222.337,-3410.99 222.547,-3178.68 222.758,-2970.83 222.969,-2783.76 223.39,-2460.64 223.812,-2191.38 224.233,-1963.54 224.655,-1768.24 225.077,-1598.99 225.498,-1450.9 225.92,-1320.22 226.341,-1204.07 226.763,-1100.14 227.184,-1006.61 228.027,-845.048 228.87,-710.415 229.713,-596.495 230.556,-498.849 230.978,-455.077 231.399,-414.222 231.821,-376.004 232.242,-340.174 236.14,-91.1778 240.038,66.6244 243.935,175.577 247.833,255.324 255.628,364.241 263.423,435.145 271.219,484.979 279.014,521.92 286.809,550.398 294.604,573.023 310.195,606.7 325.785,630.567 341.376,648.364 356.966,662.146 394.443,685.27 431.92,700.262 463.607,709.358 495.293,716.369 564.133,727.168 627.598,733.901 695.639,739.13 774.471,743.587 844.528,746.605 905.961,748.745 972.94,750.681 1040.32,752.311 1114.81,753.827 1185.69,755.052 1259.39,756.15 1321.42,756.96 1397.17,757.833 1466.55,758.54 1530.63,759.126 1595.54,759.665 1668.29,760.211 1734.21,760.661 1809.69,761.13 1879.57,761.526 1948.47,761.885 2015.36,762.208 2083.94,762.514 2159.07,762.825 2268.21,763.237 2290.6,763.316 "/>
<polyline clip-path="url(#clip932)" style="stroke:#c271d2; stroke-linecap:round; stroke-linejoin:round; stroke-width:4; stroke-opacity:1; fill:none" points="218.754,1486.45 218.859,1477.1 218.964,1481.8 219.07,1483.36 219.175,1484.15 219.281,1484.62 219.386,1484.93 219.491,1485.15 219.597,1485.32 219.702,1485.45 219.807,1485.55 219.913,1485.64 220.018,1485.71 220.124,1485.77 220.229,1485.82 220.334,1485.87 220.44,1485.91 220.545,1485.94 220.651,1485.97 220.756,1486 220.861,1486.02 221.072,1486.07 221.283,1486.1 221.494,1486.13 221.704,1486.16 221.915,1486.18 222.126,1486.2 222.337,1486.22 222.547,1486.23 222.758,1486.25 222.969,1486.26 223.39,1486.28 223.812,1486.3 224.233,1486.31 224.655,1486.33 225.077,1486.34 225.498,1486.35 225.92,1486.36 226.341,1486.36 226.763,1486.37 227.184,1486.38 228.027,1486.39 228.87,1486.4 229.713,1486.4 230.556,1486.41 230.978,1486.41 231.399,1486.42 231.821,1486.42 232.242,1486.42 236.14,1486.44 240.038,1486.45 243.935,1486.45 247.833,1486.46 255.628,1486.47 263.423,1486.47 271.219,1486.48 279.014,1486.48 286.809,1486.48 294.604,1486.48 310.195,1486.48 325.785,1486.49 341.376,1486.49 356.966,1486.49 375.705,1486.49 394.443,1486.49 413.182,1486.49 431.92,1486.49 463.607,1486.49 495.293,1486.49 529.713,1486.49 564.133,1486.49 595.866,1486.49 627.598,1486.49 695.639,1486.49 774.471,1486.49 844.528,1486.49 905.961,1486.49 972.94,1486.49 1040.32,1486.49 1114.81,1486.49 1185.69,1486.49 1259.39,1486.49 1321.42,1486.49 1397.17,1486.49 1466.55,1486.49 1530.63,1486.49 1595.54,1486.49 1668.29,1486.49 1734.21,1486.49 1809.69,1486.49 1879.57,1486.49 1948.47,1486.49 2015.36,1486.49 2083.94,1486.49 2159.07,1486.49 2268.21,1486.49 2290.6,1486.49 "/>
<path clip-path="url(#clip930)" d="M1824.02 354.418 L2279.55 354.418 L2279.55 95.2176 L1824.02 95.2176  Z" fill="#ffffff" fill-rule="evenodd" fill-opacity="1"/>
<polyline clip-path="url(#clip930)" style="stroke:#000000; stroke-linecap:round; stroke-linejoin:round; stroke-width:4; stroke-opacity:1; fill:none" points="1824.02,354.418 2279.55,354.418 2279.55,95.2176 1824.02,95.2176 1824.02,354.418 "/>
<polyline clip-path="url(#clip930)" style="stroke:#009af9; stroke-linecap:round; stroke-linejoin:round; stroke-width:4; stroke-opacity:1; fill:none" points="1848.42,147.058 1994.83,147.058 "/>
<path clip-path="url(#clip930)" d="M2040.59 122.06 L2028.47 122.06 L2028.47 121.01 L2040.59 121.01 L2040.59 122.06 Z" fill="#000000" fill-rule="evenodd" fill-opacity="1" /><path clip-path="url(#clip930)" d="M2042.88 134.99 Q2042.88 138.457 2041.1 141.712 Q2039.35 144.968 2036.58 146.936 Q2033.84 148.903 2031.08 148.903 Q2027.96 148.903 2026.35 145.671 Q2023.42 157.405 2023.25 157.71 Q2022.57 158.717 2021.59 158.717 Q2020.98 158.717 2020.61 158.342 Q2020.23 157.991 2020.23 157.429 Q2020.26 157.241 2020.4 156.656 L2025.08 137.801 Q2026.16 133.421 2029.41 130.306 Q2032.69 127.167 2036.21 127.167 Q2038.99 127.167 2040.94 129.252 Q2042.88 131.336 2042.88 134.99 M2039.44 132.929 Q2039.44 130.587 2038.5 129.416 Q2037.57 128.221 2036.11 128.221 Q2034.78 128.221 2033.16 129.298 Q2031.57 130.376 2030.16 132.765 Q2029.41 134.147 2028.88 135.857 Q2028.34 137.567 2027.28 141.783 Q2026.91 143.469 2026.91 143.563 Q2026.91 143.75 2027 144.172 Q2027.12 144.593 2027.4 145.249 Q2027.7 145.881 2028.13 146.444 Q2028.55 147.006 2029.32 147.427 Q2030.09 147.826 2031.03 147.826 Q2032.48 147.826 2034.03 146.654 Q2035.6 145.46 2036.75 143.282 Q2037.71 141.525 2038.57 138.222 Q2039.44 134.896 2039.44 132.929 Z" fill="#000000" fill-rule="evenodd" fill-opacity="1" /><path clip-path="url(#clip930)" d="M2071.38 172.222 Q2071.38 172.534 2071.25 172.698 Q2071.14 172.845 2071.02 172.878 Q2070.92 172.894 2070.78 172.894 Q2070.35 172.894 2068.87 172.845 Q2067.4 172.796 2066.97 172.796 Q2066.28 172.796 2064.87 172.845 Q2063.46 172.894 2062.77 172.894 Q2062.32 172.894 2062.32 172.517 Q2062.32 172.271 2062.37 172.14 Q2062.41 171.993 2062.55 171.943 Q2062.69 171.878 2062.77 171.878 Q2062.87 171.861 2063.12 171.861 Q2063.45 171.861 2063.79 171.829 Q2064.14 171.779 2064.56 171.681 Q2064.99 171.583 2065.25 171.337 Q2065.53 171.091 2065.53 170.746 Q2065.53 170.599 2065.41 169.386 Q2065.3 168.172 2065.15 166.762 Q2065 165.336 2064.99 165.139 L2056.56 165.139 Q2055.79 166.467 2055.25 167.385 Q2054.71 168.303 2054.51 168.615 Q2054.31 168.927 2054.2 169.123 Q2054.09 169.32 2054.02 169.435 Q2053.54 170.304 2053.54 170.681 Q2053.54 171.73 2055.12 171.861 Q2055.66 171.861 2055.66 172.255 Q2055.66 172.55 2055.53 172.714 Q2055.4 172.861 2055.28 172.878 Q2055.18 172.894 2055.02 172.894 Q2054.48 172.894 2053.35 172.845 Q2052.22 172.796 2051.66 172.796 Q2051.18 172.796 2050.2 172.845 Q2049.22 172.894 2048.77 172.894 Q2048.58 172.894 2048.46 172.78 Q2048.35 172.665 2048.35 172.517 Q2048.35 172.288 2048.38 172.156 Q2048.43 172.025 2048.56 171.96 Q2048.69 171.894 2048.76 171.894 Q2048.82 171.878 2049.05 171.861 Q2050.3 171.779 2051.27 171.189 Q2052.25 170.582 2053.18 169.025 L2064.86 149.416 Q2064.97 149.219 2065.05 149.12 Q2065.14 149.022 2065.3 148.94 Q2065.48 148.858 2065.74 148.858 Q2066.15 148.858 2066.23 148.989 Q2066.32 149.104 2066.37 149.662 L2068.42 170.648 Q2068.46 171.091 2068.5 171.271 Q2068.55 171.435 2068.76 171.615 Q2068.99 171.779 2069.4 171.829 Q2069.83 171.861 2070.61 171.861 Q2070.91 171.861 2071.02 171.878 Q2071.14 171.878 2071.25 171.96 Q2071.38 172.042 2071.38 172.222 M2064.89 164.09 L2063.82 153.023 L2057.2 164.09 L2064.89 164.09 Z" fill="#000000" fill-rule="evenodd" fill-opacity="1" /><path clip-path="url(#clip930)" d="M2110.92 136.304 L2109.91 130.957 Q2108.86 125.471 2104.74 125.471 Q2101.64 125.471 2100.23 128.017 Q2098.45 131.212 2098.45 135.425 Q2098.45 140.517 2100.18 142.948 Q2101.94 145.424 2104.74 145.424 Q2107.85 145.424 2109.51 140.494 L2110.92 136.304 M2113.31 129.221 L2115.6 122.438 L2119.4 122.438 L2114.65 136.489 L2115.58 141.559 Q2115.79 142.693 2116.6 143.642 Q2117.54 144.753 2118.29 144.753 L2120.32 144.753 L2120.32 148.364 L2117.78 148.364 Q2115.6 148.364 2113.66 146.42 Q2112.71 145.448 2112.31 143.411 Q2111.25 145.98 2109.07 147.994 Q2108.05 148.943 2104.74 148.943 Q2099.3 148.943 2096.66 145.424 Q2093.96 141.79 2093.96 135.425 Q2093.96 128.619 2096.9 125.425 Q2100.16 121.86 2104.74 121.86 Q2111.94 121.86 2113.31 129.221 Z" fill="#000000" fill-rule="evenodd" fill-opacity="1" /><path clip-path="url(#clip930)" d="M2127.61 126.837 L2157.29 126.837 L2157.29 130.725 L2127.61 130.725 L2127.61 126.837 M2127.61 136.281 L2157.29 136.281 L2157.29 140.216 L2127.61 140.216 L2127.61 136.281 Z" fill="#000000" fill-rule="evenodd" fill-opacity="1" /><path clip-path="url(#clip930)" d="M2177.38 116.883 Q2173.77 116.883 2171.94 120.448 Q2170.14 123.989 2170.14 131.119 Q2170.14 138.225 2171.94 141.79 Q2173.77 145.332 2177.38 145.332 Q2181.02 145.332 2182.82 141.79 Q2184.65 138.225 2184.65 131.119 Q2184.65 123.989 2182.82 120.448 Q2181.02 116.883 2177.38 116.883 M2177.38 113.179 Q2183.19 113.179 2186.25 117.786 Q2189.33 122.369 2189.33 131.119 Q2189.33 139.846 2186.25 144.452 Q2183.19 149.036 2177.38 149.036 Q2171.57 149.036 2168.49 144.452 Q2165.44 139.846 2165.44 131.119 Q2165.44 122.369 2168.49 117.786 Q2171.57 113.179 2177.38 113.179 Z" fill="#000000" fill-rule="evenodd" fill-opacity="1" /><path clip-path="url(#clip930)" d="M2197.54 142.485 L2202.43 142.485 L2202.43 148.364 L2197.54 148.364 L2197.54 142.485 Z" fill="#000000" fill-rule="evenodd" fill-opacity="1" /><path clip-path="url(#clip930)" d="M2212.66 113.804 L2231.02 113.804 L2231.02 117.739 L2216.94 117.739 L2216.94 126.212 Q2217.96 125.864 2218.98 125.702 Q2220 125.517 2221.02 125.517 Q2226.8 125.517 2230.18 128.688 Q2233.56 131.86 2233.56 137.276 Q2233.56 142.855 2230.09 145.957 Q2226.62 149.036 2220.3 149.036 Q2218.12 149.036 2215.85 148.665 Q2213.61 148.295 2211.2 147.554 L2211.2 142.855 Q2213.28 143.989 2215.51 144.545 Q2217.73 145.1 2220.21 145.1 Q2224.21 145.1 2226.55 142.994 Q2228.89 140.887 2228.89 137.276 Q2228.89 133.665 2226.55 131.559 Q2224.21 129.452 2220.21 129.452 Q2218.33 129.452 2216.46 129.869 Q2214.6 130.286 2212.66 131.165 L2212.66 113.804 Z" fill="#000000" fill-rule="evenodd" fill-opacity="1" /><polyline clip-path="url(#clip930)" style="stroke:#e26f46; stroke-linecap:round; stroke-linejoin:round; stroke-width:4; stroke-opacity:1; fill:none" points="1848.42,198.898 1994.83,198.898 "/>
<path clip-path="url(#clip930)" d="M2030.08 221.805 Q2030.08 222.203 2029.8 222.484 Q2029.52 222.765 2029.12 222.765 Q2028.44 222.765 2028.2 222.132 L2019.28 199.108 Q2019.23 199.014 2019.23 198.78 Q2019.23 198.546 2019.28 198.452 L2028.2 175.428 Q2028.44 174.796 2029.12 174.796 Q2029.52 174.796 2029.8 175.077 Q2030.08 175.358 2030.08 175.756 Q2030.08 175.99 2030.03 176.084 L2021.2 198.78 L2030.03 221.477 Q2030.08 221.57 2030.08 221.805 Z" fill="#000000" fill-rule="evenodd" fill-opacity="1" /><path clip-path="url(#clip930)" d="M2077 203.91 Q2077 204.097 2076.79 204.823 Q2076.58 205.549 2076.06 206.674 Q2075.57 207.798 2074.87 208.828 Q2074.19 209.836 2073.06 210.585 Q2071.96 211.311 2070.7 211.311 Q2069.01 211.311 2067.89 210.187 Q2066.76 209.063 2066.76 207.376 Q2066.76 206.463 2067.39 204.73 Q2070.37 196.813 2070.37 193.979 Q2070.37 190.629 2067.77 190.629 Q2066.29 190.629 2064.96 191.238 Q2063.62 191.847 2062.76 192.69 Q2061.89 193.534 2061.21 194.494 Q2060.53 195.454 2060.23 196.087 Q2059.95 196.719 2059.88 197 L2056.99 208.571 Q2056.76 209.555 2056.6 210.023 Q2056.43 210.491 2055.99 210.89 Q2055.54 211.311 2054.84 211.311 Q2054.25 211.311 2053.83 210.96 Q2053.43 210.609 2053.43 210 Q2053.43 209.906 2053.55 209.414 Q2053.67 208.922 2053.83 208.243 Q2054 207.564 2054.07 207.165 Q2054.91 203.98 2055.03 203.535 L2056.36 197.96 Q2057.09 195.197 2057.09 193.979 Q2057.09 190.629 2054.49 190.629 Q2053.2 190.629 2051.98 191.121 Q2050.79 191.59 2049.97 192.245 Q2049.15 192.901 2048.4 193.815 Q2047.67 194.705 2047.3 195.314 Q2046.95 195.899 2046.67 196.485 L2046.06 198.874 Q2045.92 199.53 2045.24 202.083 L2044.18 206.416 Q2043.43 209.648 2043.27 209.953 Q2043.03 210.609 2042.52 210.96 Q2042 211.311 2041.49 211.311 Q2040.9 211.311 2040.51 210.96 Q2040.11 210.609 2040.11 210 Q2040.11 209.906 2040.18 209.555 Q2040.25 209.203 2040.36 208.711 Q2040.48 208.22 2040.53 207.938 L2043.32 196.86 Q2043.83 194.845 2043.95 194.213 Q2044.09 193.557 2044.09 192.831 Q2044.09 190.629 2042.59 190.629 Q2041.37 190.629 2040.58 192.081 Q2039.78 193.534 2039.1 196.344 Q2038.89 197.117 2038.75 197.281 Q2038.63 197.445 2038.28 197.445 Q2037.69 197.422 2037.69 196.953 Q2037.69 196.836 2037.88 196.087 Q2038.07 195.337 2038.42 194.213 Q2038.8 193.065 2039.19 192.316 Q2039.43 191.824 2039.64 191.496 Q2039.85 191.168 2040.27 190.653 Q2040.69 190.137 2041.32 189.856 Q2041.96 189.575 2042.73 189.575 Q2044.44 189.575 2045.7 190.676 Q2046.99 191.777 2047.16 193.744 Q2050.27 189.575 2054.63 189.575 Q2057.09 189.575 2058.56 190.817 Q2059.95 192.011 2060.11 194.213 Q2063.34 189.575 2067.93 189.575 Q2070.58 189.575 2072.01 190.957 Q2073.44 192.316 2073.44 194.705 Q2073.44 195.946 2072.8 198.312 Q2072.17 200.654 2071.75 201.825 Q2071.33 202.996 2070.51 205.245 Q2069.64 207.4 2069.64 208.665 Q2069.64 209.484 2069.92 209.859 Q2070.2 210.234 2070.81 210.234 Q2071.75 210.234 2072.57 209.695 Q2073.39 209.133 2073.98 208.22 Q2074.58 207.283 2074.98 206.346 Q2075.38 205.385 2075.69 204.308 Q2075.87 203.722 2075.97 203.582 Q2076.08 203.441 2076.41 203.441 Q2077 203.441 2077 203.91 Z" fill="#000000" fill-rule="evenodd" fill-opacity="1" /><path clip-path="url(#clip930)" d="M2090.17 198.452 Q2090.22 198.546 2090.22 198.78 Q2090.22 199.014 2090.17 199.108 L2081.25 222.132 Q2081.01 222.765 2080.36 222.765 Q2079.96 222.765 2079.68 222.484 Q2079.4 222.203 2079.4 221.805 Q2079.4 221.57 2079.44 221.477 L2088.25 198.78 L2079.44 176.084 Q2079.4 175.99 2079.4 175.756 Q2079.4 175.358 2079.68 175.077 Q2079.96 174.796 2080.36 174.796 Q2081.01 174.796 2081.25 175.428 L2090.17 198.452 Z" fill="#000000" fill-rule="evenodd" fill-opacity="1" /><path clip-path="url(#clip930)" d="M2132.51 198.712 L2131.49 193.365 Q2130.45 187.879 2126.33 187.879 Q2123.23 187.879 2121.82 190.425 Q2120.03 193.62 2120.03 197.833 Q2120.03 202.925 2121.77 205.356 Q2123.53 207.833 2126.33 207.833 Q2129.43 207.833 2131.1 202.902 L2132.51 198.712 M2134.89 191.629 L2137.19 184.847 L2140.98 184.847 L2136.24 198.898 L2137.16 203.967 Q2137.37 205.101 2138.18 206.05 Q2139.13 207.161 2139.87 207.161 L2141.91 207.161 L2141.91 210.773 L2139.36 210.773 Q2137.19 210.773 2135.24 208.828 Q2134.29 207.856 2133.9 205.819 Q2132.83 208.388 2130.66 210.402 Q2129.64 211.351 2126.33 211.351 Q2120.89 211.351 2118.25 207.833 Q2115.54 204.199 2115.54 197.833 Q2115.54 191.027 2118.48 187.833 Q2121.75 184.268 2126.33 184.268 Q2133.53 184.268 2134.89 191.629 Z" fill="#000000" fill-rule="evenodd" fill-opacity="1" /><path clip-path="url(#clip930)" d="M2149.2 189.245 L2178.88 189.245 L2178.88 193.134 L2149.2 193.134 L2149.2 189.245 M2149.2 198.689 L2178.88 198.689 L2178.88 202.624 L2149.2 202.624 L2149.2 198.689 Z" fill="#000000" fill-rule="evenodd" fill-opacity="1" /><path clip-path="url(#clip930)" d="M2198.97 179.291 Q2195.36 179.291 2193.53 182.856 Q2191.72 186.398 2191.72 193.527 Q2191.72 200.634 2193.53 204.199 Q2195.36 207.74 2198.97 207.74 Q2202.6 207.74 2204.41 204.199 Q2206.24 200.634 2206.24 193.527 Q2206.24 186.398 2204.41 182.856 Q2202.6 179.291 2198.97 179.291 M2198.97 175.588 Q2204.78 175.588 2207.83 180.194 Q2210.91 184.777 2210.91 193.527 Q2210.91 202.254 2207.83 206.861 Q2204.78 211.444 2198.97 211.444 Q2193.16 211.444 2190.08 206.861 Q2187.02 202.254 2187.02 193.527 Q2187.02 184.777 2190.08 180.194 Q2193.16 175.588 2198.97 175.588 Z" fill="#000000" fill-rule="evenodd" fill-opacity="1" /><path clip-path="url(#clip930)" d="M2219.13 204.893 L2224.01 204.893 L2224.01 210.773 L2219.13 210.773 L2219.13 204.893 Z" fill="#000000" fill-rule="evenodd" fill-opacity="1" /><path clip-path="url(#clip930)" d="M2234.25 176.213 L2252.6 176.213 L2252.6 180.148 L2238.53 180.148 L2238.53 188.62 Q2239.55 188.273 2240.57 188.111 Q2241.58 187.925 2242.6 187.925 Q2248.39 187.925 2251.77 191.097 Q2255.15 194.268 2255.15 199.685 Q2255.15 205.263 2251.68 208.365 Q2248.2 211.444 2241.89 211.444 Q2239.71 211.444 2237.44 211.073 Q2235.2 210.703 2232.79 209.962 L2232.79 205.263 Q2234.87 206.398 2237.09 206.953 Q2239.32 207.509 2241.79 207.509 Q2245.8 207.509 2248.14 205.402 Q2250.47 203.296 2250.47 199.685 Q2250.47 196.074 2248.14 193.967 Q2245.8 191.861 2241.79 191.861 Q2239.92 191.861 2238.04 192.277 Q2236.19 192.694 2234.25 193.574 L2234.25 176.213 Z" fill="#000000" fill-rule="evenodd" fill-opacity="1" /><polyline clip-path="url(#clip930)" style="stroke:#3da44d; stroke-linecap:round; stroke-linejoin:round; stroke-width:4; stroke-opacity:1; fill:none" points="1848.42,250.738 1994.83,250.738 "/>
<path clip-path="url(#clip930)" d="M2040.59 225.74 L2028.47 225.74 L2028.47 224.69 L2040.59 224.69 L2040.59 225.74 Z" fill="#000000" fill-rule="evenodd" fill-opacity="1" /><path clip-path="url(#clip930)" d="M2042.88 238.67 Q2042.88 242.137 2041.1 245.392 Q2039.35 248.648 2036.58 250.616 Q2033.84 252.583 2031.08 252.583 Q2027.96 252.583 2026.35 249.351 Q2023.42 261.085 2023.25 261.39 Q2022.57 262.397 2021.59 262.397 Q2020.98 262.397 2020.61 262.022 Q2020.23 261.671 2020.23 261.109 Q2020.26 260.921 2020.4 260.336 L2025.08 241.481 Q2026.16 237.101 2029.41 233.986 Q2032.69 230.847 2036.21 230.847 Q2038.99 230.847 2040.94 232.932 Q2042.88 235.016 2042.88 238.67 M2039.44 236.609 Q2039.44 234.267 2038.5 233.096 Q2037.57 231.901 2036.11 231.901 Q2034.78 231.901 2033.16 232.978 Q2031.57 234.056 2030.16 236.445 Q2029.41 237.827 2028.88 239.537 Q2028.34 241.247 2027.28 245.463 Q2026.91 247.149 2026.91 247.243 Q2026.91 247.43 2027 247.852 Q2027.12 248.273 2027.4 248.929 Q2027.7 249.561 2028.13 250.124 Q2028.55 250.686 2029.32 251.107 Q2030.09 251.506 2031.03 251.506 Q2032.48 251.506 2034.03 250.334 Q2035.6 249.14 2036.75 246.962 Q2037.71 245.205 2038.57 241.902 Q2039.44 238.576 2039.44 236.609 Z" fill="#000000" fill-rule="evenodd" fill-opacity="1" /><path clip-path="url(#clip930)" d="M2071.38 275.902 Q2071.38 276.214 2071.25 276.378 Q2071.14 276.525 2071.02 276.558 Q2070.92 276.574 2070.78 276.574 Q2070.35 276.574 2068.87 276.525 Q2067.4 276.476 2066.97 276.476 Q2066.28 276.476 2064.87 276.525 Q2063.46 276.574 2062.77 276.574 Q2062.32 276.574 2062.32 276.197 Q2062.32 275.951 2062.37 275.82 Q2062.41 275.673 2062.55 275.623 Q2062.69 275.558 2062.77 275.558 Q2062.87 275.541 2063.12 275.541 Q2063.45 275.541 2063.79 275.509 Q2064.14 275.459 2064.56 275.361 Q2064.99 275.263 2065.25 275.017 Q2065.53 274.771 2065.53 274.426 Q2065.53 274.279 2065.41 273.066 Q2065.3 271.852 2065.15 270.442 Q2065 269.016 2064.99 268.819 L2056.56 268.819 Q2055.79 270.147 2055.25 271.065 Q2054.71 271.983 2054.51 272.295 Q2054.31 272.607 2054.2 272.803 Q2054.09 273 2054.02 273.115 Q2053.54 273.984 2053.54 274.361 Q2053.54 275.41 2055.12 275.541 Q2055.66 275.541 2055.66 275.935 Q2055.66 276.23 2055.53 276.394 Q2055.4 276.541 2055.28 276.558 Q2055.18 276.574 2055.02 276.574 Q2054.48 276.574 2053.35 276.525 Q2052.22 276.476 2051.66 276.476 Q2051.18 276.476 2050.2 276.525 Q2049.22 276.574 2048.77 276.574 Q2048.58 276.574 2048.46 276.46 Q2048.35 276.345 2048.35 276.197 Q2048.35 275.968 2048.38 275.836 Q2048.43 275.705 2048.56 275.64 Q2048.69 275.574 2048.76 275.574 Q2048.82 275.558 2049.05 275.541 Q2050.3 275.459 2051.27 274.869 Q2052.25 274.262 2053.18 272.705 L2064.86 253.096 Q2064.97 252.899 2065.05 252.8 Q2065.14 252.702 2065.3 252.62 Q2065.48 252.538 2065.74 252.538 Q2066.15 252.538 2066.23 252.669 Q2066.32 252.784 2066.37 253.342 L2068.42 274.328 Q2068.46 274.771 2068.5 274.951 Q2068.55 275.115 2068.76 275.295 Q2068.99 275.459 2069.4 275.509 Q2069.83 275.541 2070.61 275.541 Q2070.91 275.541 2071.02 275.558 Q2071.14 275.558 2071.25 275.64 Q2071.38 275.722 2071.38 275.902 M2064.89 267.77 L2063.82 256.703 L2057.2 267.77 L2064.89 267.77 Z" fill="#000000" fill-rule="evenodd" fill-opacity="1" /><path clip-path="url(#clip930)" d="M2110.92 239.984 L2109.91 234.637 Q2108.86 229.151 2104.74 229.151 Q2101.64 229.151 2100.23 231.697 Q2098.45 234.892 2098.45 239.105 Q2098.45 244.197 2100.18 246.628 Q2101.94 249.104 2104.74 249.104 Q2107.85 249.104 2109.51 244.174 L2110.92 239.984 M2113.31 232.901 L2115.6 226.118 L2119.4 226.118 L2114.65 240.169 L2115.58 245.239 Q2115.79 246.373 2116.6 247.322 Q2117.54 248.433 2118.29 248.433 L2120.32 248.433 L2120.32 252.044 L2117.78 252.044 Q2115.6 252.044 2113.66 250.1 Q2112.71 249.128 2112.31 247.091 Q2111.25 249.66 2109.07 251.674 Q2108.05 252.623 2104.74 252.623 Q2099.3 252.623 2096.66 249.104 Q2093.96 245.47 2093.96 239.105 Q2093.96 232.299 2096.9 229.105 Q2100.16 225.54 2104.74 225.54 Q2111.94 225.54 2113.31 232.901 Z" fill="#000000" fill-rule="evenodd" fill-opacity="1" /><path clip-path="url(#clip930)" d="M2127.61 230.517 L2157.29 230.517 L2157.29 234.405 L2127.61 234.405 L2127.61 230.517 M2127.61 239.961 L2157.29 239.961 L2157.29 243.896 L2127.61 243.896 L2127.61 239.961 Z" fill="#000000" fill-rule="evenodd" fill-opacity="1" /><path clip-path="url(#clip930)" d="M2177.38 220.563 Q2173.77 220.563 2171.94 224.128 Q2170.14 227.669 2170.14 234.799 Q2170.14 241.905 2171.94 245.47 Q2173.77 249.012 2177.38 249.012 Q2181.02 249.012 2182.82 245.47 Q2184.65 241.905 2184.65 234.799 Q2184.65 227.669 2182.82 224.128 Q2181.02 220.563 2177.38 220.563 M2177.38 216.859 Q2183.19 216.859 2186.25 221.466 Q2189.33 226.049 2189.33 234.799 Q2189.33 243.526 2186.25 248.132 Q2183.19 252.716 2177.38 252.716 Q2171.57 252.716 2168.49 248.132 Q2165.44 243.526 2165.44 234.799 Q2165.44 226.049 2168.49 221.466 Q2171.57 216.859 2177.38 216.859 Z" fill="#000000" fill-rule="evenodd" fill-opacity="1" /><path clip-path="url(#clip930)" d="M2197.54 246.165 L2202.43 246.165 L2202.43 252.044 L2197.54 252.044 L2197.54 246.165 Z" fill="#000000" fill-rule="evenodd" fill-opacity="1" /><path clip-path="url(#clip930)" d="M2212.66 217.484 L2231.02 217.484 L2231.02 221.419 L2216.94 221.419 L2216.94 229.892 Q2217.96 229.544 2218.98 229.382 Q2220 229.197 2221.02 229.197 Q2226.8 229.197 2230.18 232.368 Q2233.56 235.54 2233.56 240.956 Q2233.56 246.535 2230.09 249.637 Q2226.62 252.716 2220.3 252.716 Q2218.12 252.716 2215.85 252.345 Q2213.61 251.975 2211.2 251.234 L2211.2 246.535 Q2213.28 247.669 2215.51 248.225 Q2217.73 248.78 2220.21 248.78 Q2224.21 248.78 2226.55 246.674 Q2228.89 244.567 2228.89 240.956 Q2228.89 237.345 2226.55 235.239 Q2224.21 233.132 2220.21 233.132 Q2218.33 233.132 2216.46 233.549 Q2214.6 233.966 2212.66 234.845 L2212.66 217.484 Z" fill="#000000" fill-rule="evenodd" fill-opacity="1" /><polyline clip-path="url(#clip930)" style="stroke:#c271d2; stroke-linecap:round; stroke-linejoin:round; stroke-width:4; stroke-opacity:1; fill:none" points="1848.42,302.578 1994.83,302.578 "/>
<path clip-path="url(#clip930)" d="M2030.08 325.485 Q2030.08 325.883 2029.8 326.164 Q2029.52 326.445 2029.12 326.445 Q2028.44 326.445 2028.2 325.812 L2019.28 302.788 Q2019.23 302.694 2019.23 302.46 Q2019.23 302.226 2019.28 302.132 L2028.2 279.108 Q2028.44 278.476 2029.12 278.476 Q2029.52 278.476 2029.8 278.757 Q2030.08 279.038 2030.08 279.436 Q2030.08 279.67 2030.03 279.764 L2021.2 302.46 L2030.03 325.157 Q2030.08 325.25 2030.08 325.485 Z" fill="#000000" fill-rule="evenodd" fill-opacity="1" /><path clip-path="url(#clip930)" d="M2077 307.59 Q2077 307.777 2076.79 308.503 Q2076.58 309.229 2076.06 310.354 Q2075.57 311.478 2074.87 312.508 Q2074.19 313.516 2073.06 314.265 Q2071.96 314.991 2070.7 314.991 Q2069.01 314.991 2067.89 313.867 Q2066.76 312.743 2066.76 311.056 Q2066.76 310.143 2067.39 308.41 Q2070.37 300.493 2070.37 297.659 Q2070.37 294.309 2067.77 294.309 Q2066.29 294.309 2064.96 294.918 Q2063.62 295.527 2062.76 296.37 Q2061.89 297.214 2061.21 298.174 Q2060.53 299.134 2060.23 299.767 Q2059.95 300.399 2059.88 300.68 L2056.99 312.251 Q2056.76 313.235 2056.6 313.703 Q2056.43 314.171 2055.99 314.57 Q2055.54 314.991 2054.84 314.991 Q2054.25 314.991 2053.83 314.64 Q2053.43 314.289 2053.43 313.68 Q2053.43 313.586 2053.55 313.094 Q2053.67 312.602 2053.83 311.923 Q2054 311.244 2054.07 310.845 Q2054.91 307.66 2055.03 307.215 L2056.36 301.64 Q2057.09 298.877 2057.09 297.659 Q2057.09 294.309 2054.49 294.309 Q2053.2 294.309 2051.98 294.801 Q2050.79 295.27 2049.97 295.925 Q2049.15 296.581 2048.4 297.495 Q2047.67 298.385 2047.3 298.994 Q2046.95 299.579 2046.67 300.165 L2046.06 302.554 Q2045.92 303.21 2045.24 305.763 L2044.18 310.096 Q2043.43 313.328 2043.27 313.633 Q2043.03 314.289 2042.52 314.64 Q2042 314.991 2041.49 314.991 Q2040.9 314.991 2040.51 314.64 Q2040.11 314.289 2040.11 313.68 Q2040.11 313.586 2040.18 313.235 Q2040.25 312.883 2040.36 312.391 Q2040.48 311.9 2040.53 311.618 L2043.32 300.54 Q2043.83 298.525 2043.95 297.893 Q2044.09 297.237 2044.09 296.511 Q2044.09 294.309 2042.59 294.309 Q2041.37 294.309 2040.58 295.761 Q2039.78 297.214 2039.1 300.024 Q2038.89 300.797 2038.75 300.961 Q2038.63 301.125 2038.28 301.125 Q2037.69 301.102 2037.69 300.633 Q2037.69 300.516 2037.88 299.767 Q2038.07 299.017 2038.42 297.893 Q2038.8 296.745 2039.19 295.996 Q2039.43 295.504 2039.64 295.176 Q2039.85 294.848 2040.27 294.333 Q2040.69 293.817 2041.32 293.536 Q2041.96 293.255 2042.73 293.255 Q2044.44 293.255 2045.7 294.356 Q2046.99 295.457 2047.16 297.424 Q2050.27 293.255 2054.63 293.255 Q2057.09 293.255 2058.56 294.497 Q2059.95 295.691 2060.11 297.893 Q2063.34 293.255 2067.93 293.255 Q2070.58 293.255 2072.01 294.637 Q2073.44 295.996 2073.44 298.385 Q2073.44 299.626 2072.8 301.992 Q2072.17 304.334 2071.75 305.505 Q2071.33 306.676 2070.51 308.925 Q2069.64 311.08 2069.64 312.345 Q2069.64 313.164 2069.92 313.539 Q2070.2 313.914 2070.81 313.914 Q2071.75 313.914 2072.57 313.375 Q2073.39 312.813 2073.98 311.9 Q2074.58 310.963 2074.98 310.026 Q2075.38 309.065 2075.69 307.988 Q2075.87 307.402 2075.97 307.262 Q2076.08 307.121 2076.41 307.121 Q2077 307.121 2077 307.59 Z" fill="#000000" fill-rule="evenodd" fill-opacity="1" /><path clip-path="url(#clip930)" d="M2090.17 302.132 Q2090.22 302.226 2090.22 302.46 Q2090.22 302.694 2090.17 302.788 L2081.25 325.812 Q2081.01 326.445 2080.36 326.445 Q2079.96 326.445 2079.68 326.164 Q2079.4 325.883 2079.4 325.485 Q2079.4 325.25 2079.44 325.157 L2088.25 302.46 L2079.44 279.764 Q2079.4 279.67 2079.4 279.436 Q2079.4 279.038 2079.68 278.757 Q2079.96 278.476 2080.36 278.476 Q2081.01 278.476 2081.25 279.108 L2090.17 302.132 Z" fill="#000000" fill-rule="evenodd" fill-opacity="1" /><path clip-path="url(#clip930)" d="M2132.51 302.392 L2131.49 297.045 Q2130.45 291.559 2126.33 291.559 Q2123.23 291.559 2121.82 294.105 Q2120.03 297.3 2120.03 301.513 Q2120.03 306.605 2121.77 309.036 Q2123.53 311.513 2126.33 311.513 Q2129.43 311.513 2131.1 306.582 L2132.51 302.392 M2134.89 295.309 L2137.19 288.527 L2140.98 288.527 L2136.24 302.578 L2137.16 307.647 Q2137.37 308.781 2138.18 309.73 Q2139.13 310.841 2139.87 310.841 L2141.91 310.841 L2141.91 314.453 L2139.36 314.453 Q2137.19 314.453 2135.24 312.508 Q2134.29 311.536 2133.9 309.499 Q2132.83 312.068 2130.66 314.082 Q2129.64 315.031 2126.33 315.031 Q2120.89 315.031 2118.25 311.513 Q2115.54 307.879 2115.54 301.513 Q2115.54 294.707 2118.48 291.513 Q2121.75 287.948 2126.33 287.948 Q2133.53 287.948 2134.89 295.309 Z" fill="#000000" fill-rule="evenodd" fill-opacity="1" /><path clip-path="url(#clip930)" d="M2149.2 292.925 L2178.88 292.925 L2178.88 296.814 L2149.2 296.814 L2149.2 292.925 M2149.2 302.369 L2178.88 302.369 L2178.88 306.304 L2149.2 306.304 L2149.2 302.369 Z" fill="#000000" fill-rule="evenodd" fill-opacity="1" /><path clip-path="url(#clip930)" d="M2198.97 282.971 Q2195.36 282.971 2193.53 286.536 Q2191.72 290.078 2191.72 297.207 Q2191.72 304.314 2193.53 307.879 Q2195.36 311.42 2198.97 311.42 Q2202.6 311.42 2204.41 307.879 Q2206.24 304.314 2206.24 297.207 Q2206.24 290.078 2204.41 286.536 Q2202.6 282.971 2198.97 282.971 M2198.97 279.268 Q2204.78 279.268 2207.83 283.874 Q2210.91 288.457 2210.91 297.207 Q2210.91 305.934 2207.83 310.541 Q2204.78 315.124 2198.97 315.124 Q2193.16 315.124 2190.08 310.541 Q2187.02 305.934 2187.02 297.207 Q2187.02 288.457 2190.08 283.874 Q2193.16 279.268 2198.97 279.268 Z" fill="#000000" fill-rule="evenodd" fill-opacity="1" /><path clip-path="url(#clip930)" d="M2219.13 308.573 L2224.01 308.573 L2224.01 314.453 L2219.13 314.453 L2219.13 308.573 Z" fill="#000000" fill-rule="evenodd" fill-opacity="1" /><path clip-path="url(#clip930)" d="M2234.25 279.893 L2252.6 279.893 L2252.6 283.828 L2238.53 283.828 L2238.53 292.3 Q2239.55 291.953 2240.57 291.791 Q2241.58 291.605 2242.6 291.605 Q2248.39 291.605 2251.77 294.777 Q2255.15 297.948 2255.15 303.365 Q2255.15 308.943 2251.68 312.045 Q2248.2 315.124 2241.89 315.124 Q2239.71 315.124 2237.44 314.753 Q2235.2 314.383 2232.79 313.642 L2232.79 308.943 Q2234.87 310.078 2237.09 310.633 Q2239.32 311.189 2241.79 311.189 Q2245.8 311.189 2248.14 309.082 Q2250.47 306.976 2250.47 303.365 Q2250.47 299.754 2248.14 297.647 Q2245.8 295.541 2241.79 295.541 Q2239.92 295.541 2238.04 295.957 Q2236.19 296.374 2234.25 297.254 L2234.25 279.893 Z" fill="#000000" fill-rule="evenodd" fill-opacity="1" /></svg>
