<?xml version="1.0" encoding="utf-8"?>
<svg xmlns="http://www.w3.org/2000/svg" xmlns:xlink="http://www.w3.org/1999/xlink" width="600" height="400" viewBox="0 0 2400 1600">
<defs>
  <clipPath id="clip350">
    <rect x="0" y="0" width="2400" height="1600"/>
  </clipPath>
</defs>
<path clip-path="url(#clip350)" d="M0 1600 L2400 1600 L2400 0 L0 0  Z" fill="#ffffff" fill-rule="evenodd" fill-opacity="1"/>
<defs>
  <clipPath id="clip351">
    <rect x="480" y="0" width="1681" height="1600"/>
  </clipPath>
</defs>
<path clip-path="url(#clip350)" d="M219.866 1423.18 L2352.76 1423.18 L2352.76 47.2441 L219.866 47.2441  Z" fill="#ffffff" fill-rule="evenodd" fill-opacity="1"/>
<defs>
  <clipPath id="clip352">
    <rect x="219" y="47" width="2134" height="1377"/>
  </clipPath>
</defs>
<polyline clip-path="url(#clip352)" style="stroke:#000000; stroke-linecap:round; stroke-linejoin:round; stroke-width:2; stroke-opacity:0.1; fill:none" points="402.075,1423.18 402.075,47.2441 "/>
<polyline clip-path="url(#clip352)" style="stroke:#000000; stroke-linecap:round; stroke-linejoin:round; stroke-width:2; stroke-opacity:0.1; fill:none" points="739.641,1423.18 739.641,47.2441 "/>
<polyline clip-path="url(#clip352)" style="stroke:#000000; stroke-linecap:round; stroke-linejoin:round; stroke-width:2; stroke-opacity:0.1; fill:none" points="1077.21,1423.18 1077.21,47.2441 "/>
<polyline clip-path="url(#clip352)" style="stroke:#000000; stroke-linecap:round; stroke-linejoin:round; stroke-width:2; stroke-opacity:0.1; fill:none" points="1414.77,1423.18 1414.77,47.2441 "/>
<polyline clip-path="url(#clip352)" style="stroke:#000000; stroke-linecap:round; stroke-linejoin:round; stroke-width:2; stroke-opacity:0.1; fill:none" points="1752.34,1423.18 1752.34,47.2441 "/>
<polyline clip-path="url(#clip352)" style="stroke:#000000; stroke-linecap:round; stroke-linejoin:round; stroke-width:2; stroke-opacity:0.1; fill:none" points="2089.9,1423.18 2089.9,47.2441 "/>
<polyline clip-path="url(#clip350)" style="stroke:#000000; stroke-linecap:round; stroke-linejoin:round; stroke-width:4; stroke-opacity:1; fill:none" points="219.866,1423.18 2352.76,1423.18 "/>
<polyline clip-path="url(#clip350)" style="stroke:#000000; stroke-linecap:round; stroke-linejoin:round; stroke-width:4; stroke-opacity:1; fill:none" points="402.075,1423.18 402.075,1404.28 "/>
<polyline clip-path="url(#clip350)" style="stroke:#000000; stroke-linecap:round; stroke-linejoin:round; stroke-width:4; stroke-opacity:1; fill:none" points="739.641,1423.18 739.641,1404.28 "/>
<polyline clip-path="url(#clip350)" style="stroke:#000000; stroke-linecap:round; stroke-linejoin:round; stroke-width:4; stroke-opacity:1; fill:none" points="1077.21,1423.18 1077.21,1404.28 "/>
<polyline clip-path="url(#clip350)" style="stroke:#000000; stroke-linecap:round; stroke-linejoin:round; stroke-width:4; stroke-opacity:1; fill:none" points="1414.77,1423.18 1414.77,1404.28 "/>
<polyline clip-path="url(#clip350)" style="stroke:#000000; stroke-linecap:round; stroke-linejoin:round; stroke-width:4; stroke-opacity:1; fill:none" points="1752.34,1423.18 1752.34,1404.28 "/>
<polyline clip-path="url(#clip350)" style="stroke:#000000; stroke-linecap:round; stroke-linejoin:round; stroke-width:4; stroke-opacity:1; fill:none" points="2089.9,1423.18 2089.9,1404.28 "/>
<path clip-path="url(#clip350)" d="M348.603 1468.75 L378.279 1468.75 L378.279 1472.69 L348.603 1472.69 L348.603 1468.75 Z" fill="#000000" fill-rule="evenodd" fill-opacity="1" /><path clip-path="url(#clip350)" d="M389.182 1481.64 L396.821 1481.64 L396.821 1455.28 L388.51 1456.95 L388.51 1452.69 L396.774 1451.02 L401.45 1451.02 L401.45 1481.64 L409.089 1481.64 L409.089 1485.58 L389.182 1485.58 L389.182 1481.64 Z" fill="#000000" fill-rule="evenodd" fill-opacity="1" /><path clip-path="url(#clip350)" d="M418.533 1479.7 L423.418 1479.7 L423.418 1485.58 L418.533 1485.58 L418.533 1479.7 Z" fill="#000000" fill-rule="evenodd" fill-opacity="1" /><path clip-path="url(#clip350)" d="M443.603 1454.1 Q439.992 1454.1 438.163 1457.66 Q436.357 1461.2 436.357 1468.33 Q436.357 1475.44 438.163 1479.01 Q439.992 1482.55 443.603 1482.55 Q447.237 1482.55 449.043 1479.01 Q450.871 1475.44 450.871 1468.33 Q450.871 1461.2 449.043 1457.66 Q447.237 1454.1 443.603 1454.1 M443.603 1450.39 Q449.413 1450.39 452.468 1455 Q455.547 1459.58 455.547 1468.33 Q455.547 1477.06 452.468 1481.67 Q449.413 1486.25 443.603 1486.25 Q437.793 1486.25 434.714 1481.67 Q431.658 1477.06 431.658 1468.33 Q431.658 1459.58 434.714 1455 Q437.793 1450.39 443.603 1450.39 Z" fill="#000000" fill-rule="evenodd" fill-opacity="1" /><path clip-path="url(#clip350)" d="M686.666 1468.75 L716.342 1468.75 L716.342 1472.69 L686.666 1472.69 L686.666 1468.75 Z" fill="#000000" fill-rule="evenodd" fill-opacity="1" /><path clip-path="url(#clip350)" d="M736.435 1454.1 Q732.824 1454.1 730.995 1457.66 Q729.189 1461.2 729.189 1468.33 Q729.189 1475.44 730.995 1479.01 Q732.824 1482.55 736.435 1482.55 Q740.069 1482.55 741.874 1479.01 Q743.703 1475.44 743.703 1468.33 Q743.703 1461.2 741.874 1457.66 Q740.069 1454.1 736.435 1454.1 M736.435 1450.39 Q742.245 1450.39 745.3 1455 Q748.379 1459.58 748.379 1468.33 Q748.379 1477.06 745.3 1481.67 Q742.245 1486.25 736.435 1486.25 Q730.625 1486.25 727.546 1481.67 Q724.49 1477.06 724.49 1468.33 Q724.49 1459.58 727.546 1455 Q730.625 1450.39 736.435 1450.39 Z" fill="#000000" fill-rule="evenodd" fill-opacity="1" /><path clip-path="url(#clip350)" d="M756.597 1479.7 L761.481 1479.7 L761.481 1485.58 L756.597 1485.58 L756.597 1479.7 Z" fill="#000000" fill-rule="evenodd" fill-opacity="1" /><path clip-path="url(#clip350)" d="M771.712 1451.02 L790.069 1451.02 L790.069 1454.96 L775.995 1454.96 L775.995 1463.43 Q777.013 1463.08 778.032 1462.92 Q779.05 1462.73 780.069 1462.73 Q785.856 1462.73 789.235 1465.9 Q792.615 1469.08 792.615 1474.49 Q792.615 1480.07 789.143 1483.17 Q785.671 1486.25 779.351 1486.25 Q777.175 1486.25 774.907 1485.88 Q772.661 1485.51 770.254 1484.77 L770.254 1480.07 Q772.337 1481.2 774.559 1481.76 Q776.782 1482.32 779.259 1482.32 Q783.263 1482.32 785.601 1480.21 Q787.939 1478.1 787.939 1474.49 Q787.939 1470.88 785.601 1468.77 Q783.263 1466.67 779.259 1466.67 Q777.384 1466.67 775.509 1467.08 Q773.657 1467.5 771.712 1468.38 L771.712 1451.02 Z" fill="#000000" fill-rule="evenodd" fill-opacity="1" /><path clip-path="url(#clip350)" d="M1054.59 1454.1 Q1050.98 1454.1 1049.15 1457.66 Q1047.35 1461.2 1047.35 1468.33 Q1047.35 1475.44 1049.15 1479.01 Q1050.98 1482.55 1054.59 1482.55 Q1058.22 1482.55 1060.03 1479.01 Q1061.86 1475.44 1061.86 1468.33 Q1061.86 1461.2 1060.03 1457.66 Q1058.22 1454.1 1054.59 1454.1 M1054.59 1450.39 Q1060.4 1450.39 1063.46 1455 Q1066.53 1459.58 1066.53 1468.33 Q1066.53 1477.06 1063.46 1481.67 Q1060.4 1486.25 1054.59 1486.25 Q1048.78 1486.25 1045.7 1481.67 Q1042.65 1477.06 1042.65 1468.33 Q1042.65 1459.58 1045.7 1455 Q1048.78 1450.39 1054.59 1450.39 Z" fill="#000000" fill-rule="evenodd" fill-opacity="1" /><path clip-path="url(#clip350)" d="M1074.75 1479.7 L1079.64 1479.7 L1079.64 1485.58 L1074.75 1485.58 L1074.75 1479.7 Z" fill="#000000" fill-rule="evenodd" fill-opacity="1" /><path clip-path="url(#clip350)" d="M1099.82 1454.1 Q1096.21 1454.1 1094.38 1457.66 Q1092.58 1461.2 1092.58 1468.33 Q1092.58 1475.44 1094.38 1479.01 Q1096.21 1482.55 1099.82 1482.55 Q1103.46 1482.55 1105.26 1479.01 Q1107.09 1475.44 1107.09 1468.33 Q1107.09 1461.2 1105.26 1457.66 Q1103.46 1454.1 1099.82 1454.1 M1099.82 1450.39 Q1105.63 1450.39 1108.69 1455 Q1111.77 1459.58 1111.77 1468.33 Q1111.77 1477.06 1108.69 1481.67 Q1105.63 1486.25 1099.82 1486.25 Q1094.01 1486.25 1090.93 1481.67 Q1087.88 1477.06 1087.88 1468.33 Q1087.88 1459.58 1090.93 1455 Q1094.01 1450.39 1099.82 1450.39 Z" fill="#000000" fill-rule="evenodd" fill-opacity="1" /><path clip-path="url(#clip350)" d="M1392.65 1454.1 Q1389.04 1454.1 1387.21 1457.66 Q1385.41 1461.2 1385.41 1468.33 Q1385.41 1475.44 1387.21 1479.01 Q1389.04 1482.55 1392.65 1482.55 Q1396.29 1482.55 1398.09 1479.01 Q1399.92 1475.44 1399.92 1468.33 Q1399.92 1461.2 1398.09 1457.66 Q1396.29 1454.1 1392.65 1454.1 M1392.65 1450.39 Q1398.46 1450.39 1401.52 1455 Q1404.6 1459.58 1404.6 1468.33 Q1404.6 1477.06 1401.52 1481.67 Q1398.46 1486.25 1392.65 1486.25 Q1386.84 1486.25 1383.76 1481.67 Q1380.71 1477.06 1380.71 1468.33 Q1380.71 1459.58 1383.76 1455 Q1386.84 1450.39 1392.65 1450.39 Z" fill="#000000" fill-rule="evenodd" fill-opacity="1" /><path clip-path="url(#clip350)" d="M1412.82 1479.7 L1417.7 1479.7 L1417.7 1485.58 L1412.82 1485.58 L1412.82 1479.7 Z" fill="#000000" fill-rule="evenodd" fill-opacity="1" /><path clip-path="url(#clip350)" d="M1427.93 1451.02 L1446.29 1451.02 L1446.29 1454.96 L1432.21 1454.96 L1432.21 1463.43 Q1433.23 1463.08 1434.25 1462.92 Q1435.27 1462.73 1436.29 1462.73 Q1442.07 1462.73 1445.45 1465.9 Q1448.83 1469.08 1448.83 1474.49 Q1448.83 1480.07 1445.36 1483.17 Q1441.89 1486.25 1435.57 1486.25 Q1433.39 1486.25 1431.13 1485.88 Q1428.88 1485.51 1426.47 1484.77 L1426.47 1480.07 Q1428.56 1481.2 1430.78 1481.76 Q1433 1482.32 1435.48 1482.32 Q1439.48 1482.32 1441.82 1480.21 Q1444.16 1478.1 1444.16 1474.49 Q1444.16 1470.88 1441.82 1468.77 Q1439.48 1466.67 1435.48 1466.67 Q1433.6 1466.67 1431.73 1467.08 Q1429.88 1467.5 1427.93 1468.38 L1427.93 1451.02 Z" fill="#000000" fill-rule="evenodd" fill-opacity="1" /><path clip-path="url(#clip350)" d="M1719.49 1481.64 L1727.13 1481.64 L1727.13 1455.28 L1718.82 1456.95 L1718.82 1452.69 L1727.08 1451.02 L1731.76 1451.02 L1731.76 1481.64 L1739.4 1481.64 L1739.4 1485.58 L1719.49 1485.58 L1719.49 1481.64 Z" fill="#000000" fill-rule="evenodd" fill-opacity="1" /><path clip-path="url(#clip350)" d="M1748.84 1479.7 L1753.73 1479.7 L1753.73 1485.58 L1748.84 1485.58 L1748.84 1479.7 Z" fill="#000000" fill-rule="evenodd" fill-opacity="1" /><path clip-path="url(#clip350)" d="M1773.91 1454.1 Q1770.3 1454.1 1768.47 1457.66 Q1766.67 1461.2 1766.67 1468.33 Q1766.67 1475.44 1768.47 1479.01 Q1770.3 1482.55 1773.91 1482.55 Q1777.55 1482.55 1779.35 1479.01 Q1781.18 1475.44 1781.18 1468.33 Q1781.18 1461.2 1779.35 1457.66 Q1777.55 1454.1 1773.91 1454.1 M1773.91 1450.39 Q1779.72 1450.39 1782.78 1455 Q1785.86 1459.58 1785.86 1468.33 Q1785.86 1477.06 1782.78 1481.67 Q1779.72 1486.25 1773.91 1486.25 Q1768.1 1486.25 1765.02 1481.67 Q1761.97 1477.06 1761.97 1468.33 Q1761.97 1459.58 1765.02 1455 Q1768.1 1450.39 1773.91 1450.39 Z" fill="#000000" fill-rule="evenodd" fill-opacity="1" /><path clip-path="url(#clip350)" d="M2057.55 1481.64 L2065.19 1481.64 L2065.19 1455.28 L2056.88 1456.95 L2056.88 1452.69 L2065.15 1451.02 L2069.82 1451.02 L2069.82 1481.64 L2077.46 1481.64 L2077.46 1485.58 L2057.55 1485.58 L2057.55 1481.64 Z" fill="#000000" fill-rule="evenodd" fill-opacity="1" /><path clip-path="url(#clip350)" d="M2086.9 1479.7 L2091.79 1479.7 L2091.79 1485.58 L2086.9 1485.58 L2086.9 1479.7 Z" fill="#000000" fill-rule="evenodd" fill-opacity="1" /><path clip-path="url(#clip350)" d="M2102.02 1451.02 L2120.38 1451.02 L2120.38 1454.96 L2106.3 1454.96 L2106.3 1463.43 Q2107.32 1463.08 2108.34 1462.92 Q2109.36 1462.73 2110.38 1462.73 Q2116.16 1462.73 2119.54 1465.9 Q2122.92 1469.08 2122.92 1474.49 Q2122.92 1480.07 2119.45 1483.17 Q2115.98 1486.25 2109.66 1486.25 Q2107.48 1486.25 2105.21 1485.88 Q2102.97 1485.51 2100.56 1484.77 L2100.56 1480.07 Q2102.65 1481.2 2104.87 1481.76 Q2107.09 1482.32 2109.57 1482.32 Q2113.57 1482.32 2115.91 1480.21 Q2118.25 1478.1 2118.25 1474.49 Q2118.25 1470.88 2115.91 1468.77 Q2113.57 1466.67 2109.57 1466.67 Q2107.69 1466.67 2105.82 1467.08 Q2103.96 1467.5 2102.02 1468.38 L2102.02 1451.02 Z" fill="#000000" fill-rule="evenodd" fill-opacity="1" /><path clip-path="url(#clip350)" d="M1271 1520.52 L1301.05 1520.52 L1301.05 1525.93 L1277.43 1525.93 L1277.43 1540 L1300.06 1540 L1300.06 1545.41 L1277.43 1545.41 L1277.43 1562.63 L1301.62 1562.63 L1301.62 1568.04 L1271 1568.04 L1271 1520.52 Z" fill="#000000" fill-rule="evenodd" fill-opacity="1" /><polyline clip-path="url(#clip352)" style="stroke:#000000; stroke-linecap:round; stroke-linejoin:round; stroke-width:2; stroke-opacity:0.1; fill:none" points="219.866,1384.24 2352.76,1384.24 "/>
<polyline clip-path="url(#clip352)" style="stroke:#000000; stroke-linecap:round; stroke-linejoin:round; stroke-width:2; stroke-opacity:0.1; fill:none" points="219.866,1047.57 2352.76,1047.57 "/>
<polyline clip-path="url(#clip352)" style="stroke:#000000; stroke-linecap:round; stroke-linejoin:round; stroke-width:2; stroke-opacity:0.1; fill:none" points="219.866,710.903 2352.76,710.903 "/>
<polyline clip-path="url(#clip352)" style="stroke:#000000; stroke-linecap:round; stroke-linejoin:round; stroke-width:2; stroke-opacity:0.1; fill:none" points="219.866,374.235 2352.76,374.235 "/>
<polyline clip-path="url(#clip350)" style="stroke:#000000; stroke-linecap:round; stroke-linejoin:round; stroke-width:4; stroke-opacity:1; fill:none" points="219.866,1423.18 219.866,47.2441 "/>
<polyline clip-path="url(#clip350)" style="stroke:#000000; stroke-linecap:round; stroke-linejoin:round; stroke-width:4; stroke-opacity:1; fill:none" points="219.866,1384.24 238.764,1384.24 "/>
<polyline clip-path="url(#clip350)" style="stroke:#000000; stroke-linecap:round; stroke-linejoin:round; stroke-width:4; stroke-opacity:1; fill:none" points="219.866,1047.57 238.764,1047.57 "/>
<polyline clip-path="url(#clip350)" style="stroke:#000000; stroke-linecap:round; stroke-linejoin:round; stroke-width:4; stroke-opacity:1; fill:none" points="219.866,710.903 238.764,710.903 "/>
<polyline clip-path="url(#clip350)" style="stroke:#000000; stroke-linecap:round; stroke-linejoin:round; stroke-width:4; stroke-opacity:1; fill:none" points="219.866,374.235 238.764,374.235 "/>
<path clip-path="url(#clip350)" d="M126.691 1370.04 Q123.08 1370.04 121.251 1373.6 Q119.445 1377.14 119.445 1384.27 Q119.445 1391.38 121.251 1394.94 Q123.08 1398.49 126.691 1398.49 Q130.325 1398.49 132.13 1394.94 Q133.959 1391.38 133.959 1384.27 Q133.959 1377.14 132.13 1373.6 Q130.325 1370.04 126.691 1370.04 M126.691 1366.33 Q132.501 1366.33 135.556 1370.94 Q138.635 1375.52 138.635 1384.27 Q138.635 1393 135.556 1397.61 Q132.501 1402.19 126.691 1402.19 Q120.88 1402.19 117.802 1397.61 Q114.746 1393 114.746 1384.27 Q114.746 1375.52 117.802 1370.94 Q120.88 1366.33 126.691 1366.33 Z" fill="#000000" fill-rule="evenodd" fill-opacity="1" /><path clip-path="url(#clip350)" d="M146.853 1395.64 L151.737 1395.64 L151.737 1401.52 L146.853 1401.52 L146.853 1395.64 Z" fill="#000000" fill-rule="evenodd" fill-opacity="1" /><path clip-path="url(#clip350)" d="M171.922 1370.04 Q168.311 1370.04 166.482 1373.6 Q164.677 1377.14 164.677 1384.27 Q164.677 1391.38 166.482 1394.94 Q168.311 1398.49 171.922 1398.49 Q175.556 1398.49 177.362 1394.94 Q179.19 1391.38 179.19 1384.27 Q179.19 1377.14 177.362 1373.6 Q175.556 1370.04 171.922 1370.04 M171.922 1366.33 Q177.732 1366.33 180.788 1370.94 Q183.866 1375.52 183.866 1384.27 Q183.866 1393 180.788 1397.61 Q177.732 1402.19 171.922 1402.19 Q166.112 1402.19 163.033 1397.61 Q159.978 1393 159.978 1384.27 Q159.978 1375.52 163.033 1370.94 Q166.112 1366.33 171.922 1366.33 Z" fill="#000000" fill-rule="evenodd" fill-opacity="1" /><path clip-path="url(#clip350)" d="M128.288 1033.37 Q124.677 1033.37 122.848 1036.93 Q121.043 1040.48 121.043 1047.61 Q121.043 1054.71 122.848 1058.28 Q124.677 1061.82 128.288 1061.82 Q131.922 1061.82 133.728 1058.28 Q135.556 1054.71 135.556 1047.61 Q135.556 1040.48 133.728 1036.93 Q131.922 1033.37 128.288 1033.37 M128.288 1029.67 Q134.098 1029.67 137.154 1034.27 Q140.232 1038.86 140.232 1047.61 Q140.232 1056.33 137.154 1060.94 Q134.098 1065.52 128.288 1065.52 Q122.478 1065.52 119.399 1060.94 Q116.343 1056.33 116.343 1047.61 Q116.343 1038.86 119.399 1034.27 Q122.478 1029.67 128.288 1029.67 Z" fill="#000000" fill-rule="evenodd" fill-opacity="1" /><path clip-path="url(#clip350)" d="M148.45 1058.97 L153.334 1058.97 L153.334 1064.85 L148.45 1064.85 L148.45 1058.97 Z" fill="#000000" fill-rule="evenodd" fill-opacity="1" /><path clip-path="url(#clip350)" d="M167.547 1060.92 L183.866 1060.92 L183.866 1064.85 L161.922 1064.85 L161.922 1060.92 Q164.584 1058.16 169.167 1053.53 Q173.774 1048.88 174.954 1047.54 Q177.2 1045.01 178.079 1043.28 Q178.982 1041.52 178.982 1039.83 Q178.982 1037.07 177.038 1035.34 Q175.116 1033.6 172.014 1033.6 Q169.815 1033.6 167.362 1034.36 Q164.931 1035.13 162.153 1036.68 L162.153 1031.96 Q164.977 1030.82 167.431 1030.24 Q169.885 1029.67 171.922 1029.67 Q177.292 1029.67 180.487 1032.35 Q183.681 1035.04 183.681 1039.53 Q183.681 1041.66 182.871 1043.58 Q182.084 1045.48 179.977 1048.07 Q179.399 1048.74 176.297 1051.96 Q173.195 1055.15 167.547 1060.92 Z" fill="#000000" fill-rule="evenodd" fill-opacity="1" /><path clip-path="url(#clip350)" d="M126.205 696.701 Q122.593 696.701 120.765 700.266 Q118.959 703.808 118.959 710.938 Q118.959 718.044 120.765 721.609 Q122.593 725.15 126.205 725.15 Q129.839 725.15 131.644 721.609 Q133.473 718.044 133.473 710.938 Q133.473 703.808 131.644 700.266 Q129.839 696.701 126.205 696.701 M126.205 692.998 Q132.015 692.998 135.07 697.604 Q138.149 702.188 138.149 710.938 Q138.149 719.664 135.07 724.271 Q132.015 728.854 126.205 728.854 Q120.394 728.854 117.316 724.271 Q114.26 719.664 114.26 710.938 Q114.26 702.188 117.316 697.604 Q120.394 692.998 126.205 692.998 Z" fill="#000000" fill-rule="evenodd" fill-opacity="1" /><path clip-path="url(#clip350)" d="M146.366 722.303 L151.251 722.303 L151.251 728.183 L146.366 728.183 L146.366 722.303 Z" fill="#000000" fill-rule="evenodd" fill-opacity="1" /><path clip-path="url(#clip350)" d="M174.283 697.697 L162.477 716.146 L174.283 716.146 L174.283 697.697 M173.056 693.623 L178.936 693.623 L178.936 716.146 L183.866 716.146 L183.866 720.035 L178.936 720.035 L178.936 728.183 L174.283 728.183 L174.283 720.035 L158.681 720.035 L158.681 715.521 L173.056 693.623 Z" fill="#000000" fill-rule="evenodd" fill-opacity="1" /><path clip-path="url(#clip350)" d="M126.529 360.034 Q122.918 360.034 121.089 363.599 Q119.283 367.14 119.283 374.27 Q119.283 381.376 121.089 384.941 Q122.918 388.483 126.529 388.483 Q130.163 388.483 131.968 384.941 Q133.797 381.376 133.797 374.27 Q133.797 367.14 131.968 363.599 Q130.163 360.034 126.529 360.034 M126.529 356.33 Q132.339 356.33 135.394 360.937 Q138.473 365.52 138.473 374.27 Q138.473 382.997 135.394 387.603 Q132.339 392.186 126.529 392.186 Q120.718 392.186 117.64 387.603 Q114.584 382.997 114.584 374.27 Q114.584 365.52 117.64 360.937 Q120.718 356.33 126.529 356.33 Z" fill="#000000" fill-rule="evenodd" fill-opacity="1" /><path clip-path="url(#clip350)" d="M146.691 385.635 L151.575 385.635 L151.575 391.515 L146.691 391.515 L146.691 385.635 Z" fill="#000000" fill-rule="evenodd" fill-opacity="1" /><path clip-path="url(#clip350)" d="M172.339 372.372 Q169.19 372.372 167.339 374.524 Q165.51 376.677 165.51 380.427 Q165.51 384.154 167.339 386.33 Q169.19 388.483 172.339 388.483 Q175.487 388.483 177.315 386.33 Q179.167 384.154 179.167 380.427 Q179.167 376.677 177.315 374.524 Q175.487 372.372 172.339 372.372 M181.621 357.719 L181.621 361.978 Q179.862 361.145 178.056 360.705 Q176.274 360.265 174.514 360.265 Q169.885 360.265 167.431 363.39 Q165.001 366.515 164.653 372.835 Q166.019 370.821 168.079 369.756 Q170.139 368.668 172.616 368.668 Q177.825 368.668 180.834 371.839 Q183.866 374.987 183.866 380.427 Q183.866 385.751 180.718 388.969 Q177.57 392.186 172.339 392.186 Q166.343 392.186 163.172 387.603 Q160.001 382.997 160.001 374.27 Q160.001 366.075 163.89 361.214 Q167.778 356.33 174.329 356.33 Q176.089 356.33 177.871 356.677 Q179.676 357.025 181.621 357.719 Z" fill="#000000" fill-rule="evenodd" fill-opacity="1" /><path clip-path="url(#clip350)" d="M20.8447 951.36 Q20.8447 958.362 26.0645 962.5 Q31.2844 966.605 40.2919 966.605 Q49.2675 966.605 54.4874 962.5 Q59.7073 958.362 59.7073 951.36 Q59.7073 944.357 54.4874 940.283 Q49.2675 936.177 40.2919 936.177 Q31.2844 936.177 26.0645 940.283 Q20.8447 944.357 20.8447 951.36 M15.6248 951.36 Q15.6248 941.365 22.3406 935.382 Q29.0246 929.398 40.2919 929.398 Q51.5274 929.398 58.2432 935.382 Q64.9272 941.365 64.9272 951.36 Q64.9272 961.386 58.2432 967.401 Q51.5592 973.385 40.2919 973.385 Q29.0246 973.385 22.3406 967.401 Q15.6248 961.386 15.6248 951.36 Z" fill="#000000" fill-rule="evenodd" fill-opacity="1" /><path clip-path="url(#clip350)" d="M28.3562 923.796 L28.3562 917.589 L58.275 906.449 L28.3562 895.309 L28.3562 889.103 L64.0042 902.471 L64.0042 910.428 L28.3562 923.796 Z" fill="#000000" fill-rule="evenodd" fill-opacity="1" /><path clip-path="url(#clip350)" d="M44.7161 850.527 L47.5806 850.527 L47.5806 877.454 Q53.6281 877.072 56.8109 873.825 Q59.9619 870.547 59.9619 864.722 Q59.9619 861.348 59.1344 858.197 Q58.3069 855.015 56.6518 851.895 L62.1899 851.895 Q63.5267 855.046 64.227 858.357 Q64.9272 861.667 64.9272 865.072 Q64.9272 873.602 59.9619 878.6 Q54.9967 883.565 46.5303 883.565 Q37.7774 883.565 32.6531 878.854 Q27.4968 874.112 27.4968 866.091 Q27.4968 858.898 32.1438 854.728 Q36.7589 850.527 44.7161 850.527 M42.9973 856.383 Q38.1912 856.447 35.3266 859.089 Q32.4621 861.699 32.4621 866.027 Q32.4621 870.929 35.2312 873.889 Q38.0002 876.817 43.0292 877.263 L42.9973 856.383 Z" fill="#000000" fill-rule="evenodd" fill-opacity="1" /><path clip-path="url(#clip350)" d="M33.8307 820.258 Q33.2578 821.244 33.0032 822.422 Q32.7167 823.568 32.7167 824.968 Q32.7167 829.934 35.9632 832.607 Q39.1779 835.249 45.2253 835.249 L64.0042 835.249 L64.0042 841.137 L28.3562 841.137 L28.3562 835.249 L33.8944 835.249 Q30.6479 833.403 29.0883 830.443 Q27.4968 827.483 27.4968 823.25 Q27.4968 822.645 27.5923 821.913 Q27.656 821.181 27.8151 820.29 L33.8307 820.258 Z" fill="#000000" fill-rule="evenodd" fill-opacity="1" /><path clip-path="url(#clip350)" d="M14.479 814.115 L14.479 808.258 L64.0042 808.258 L64.0042 814.115 L14.479 814.115 Z" fill="#000000" fill-rule="evenodd" fill-opacity="1" /><path clip-path="url(#clip350)" d="M46.0847 779.804 Q46.0847 786.902 47.7079 789.639 Q49.3312 792.376 53.2461 792.376 Q56.3653 792.376 58.2114 790.339 Q60.0256 788.27 60.0256 784.737 Q60.0256 779.867 56.5881 776.939 Q53.1188 773.979 47.3897 773.979 L46.0847 773.979 L46.0847 779.804 M43.6657 768.123 L64.0042 768.123 L64.0042 773.979 L58.5933 773.979 Q61.8398 775.984 63.3994 778.976 Q64.9272 781.968 64.9272 786.297 Q64.9272 791.771 61.8716 795.018 Q58.7843 798.232 53.6281 798.232 Q47.6125 798.232 44.5569 794.222 Q41.5014 790.18 41.5014 782.191 L41.5014 773.979 L40.9285 773.979 Q36.8862 773.979 34.6901 776.653 Q32.4621 779.294 32.4621 784.101 Q32.4621 787.156 33.1941 790.053 Q33.9262 792.949 35.3903 795.623 L29.9795 795.623 Q28.7381 792.408 28.1334 789.384 Q27.4968 786.36 27.4968 783.496 Q27.4968 775.762 31.5072 771.942 Q35.5176 768.123 43.6657 768.123 Z" fill="#000000" fill-rule="evenodd" fill-opacity="1" /><path clip-path="url(#clip350)" d="M58.657 750.394 L77.5631 750.394 L77.5631 756.282 L28.3562 756.282 L28.3562 750.394 L33.7671 750.394 Q30.5842 748.548 29.0564 745.747 Q27.4968 742.914 27.4968 739 Q27.4968 732.507 32.6531 728.464 Q37.8093 724.39 46.212 724.39 Q54.6147 724.39 59.771 728.464 Q64.9272 732.507 64.9272 739 Q64.9272 742.914 63.3994 745.747 Q61.8398 748.548 58.657 750.394 M46.212 730.47 Q39.7508 730.47 36.0905 733.143 Q32.3984 735.785 32.3984 740.432 Q32.3984 745.079 36.0905 747.752 Q39.7508 750.394 46.212 750.394 Q52.6732 750.394 56.3653 747.752 Q60.0256 745.079 60.0256 740.432 Q60.0256 735.785 56.3653 733.143 Q52.6732 730.47 46.212 730.47 Z" fill="#000000" fill-rule="evenodd" fill-opacity="1" /><path clip-path="url(#clip350)" d="M28.3562 697.368 L28.3562 691.511 L56.1743 684.191 L28.3562 676.902 L28.3562 669.995 L56.1743 662.675 L28.3562 655.386 L28.3562 649.53 L64.0042 658.855 L64.0042 665.762 L34.7856 673.433 L64.0042 681.135 L64.0042 688.042 L28.3562 697.368 Z" fill="#000000" fill-rule="evenodd" fill-opacity="1" /><path clip-path="url(#clip350)" d="M28.3562 640.649 L28.3562 634.793 L64.0042 634.793 L64.0042 640.649 L28.3562 640.649 M14.479 640.649 L14.479 634.793 L21.895 634.793 L21.895 640.649 L14.479 640.649 Z" fill="#000000" fill-rule="evenodd" fill-opacity="1" /><path clip-path="url(#clip350)" d="M18.2347 616.746 L28.3562 616.746 L28.3562 604.683 L32.9077 604.683 L32.9077 616.746 L52.2594 616.746 Q56.6199 616.746 57.8613 615.569 Q59.1026 614.359 59.1026 610.699 L59.1026 604.683 L64.0042 604.683 L64.0042 610.699 Q64.0042 617.478 61.4897 620.056 Q58.9434 622.634 52.2594 622.634 L32.9077 622.634 L32.9077 626.931 L28.3562 626.931 L28.3562 622.634 L18.2347 622.634 L18.2347 616.746 Z" fill="#000000" fill-rule="evenodd" fill-opacity="1" /><path clip-path="url(#clip350)" d="M42.4881 567.348 L64.0042 567.348 L64.0042 573.205 L42.679 573.205 Q37.6183 573.205 35.1038 575.178 Q32.5894 577.151 32.5894 581.098 Q32.5894 585.841 35.6131 588.578 Q38.6368 591.315 43.8567 591.315 L64.0042 591.315 L64.0042 597.203 L14.479 597.203 L14.479 591.315 L33.8944 591.315 Q30.6797 589.214 29.0883 586.382 Q27.4968 583.517 27.4968 579.793 Q27.4968 573.65 31.3163 570.499 Q35.1038 567.348 42.4881 567.348 Z" fill="#000000" fill-rule="evenodd" fill-opacity="1" /><path clip-path="url(#clip350)" d="M22.818 518.81 L46.4666 527.531 L46.4666 510.057 L22.818 518.81 M16.4842 522.438 L16.4842 515.149 L64.0042 497.039 L64.0042 503.723 L51.8138 508.052 L51.8138 529.472 L64.0042 533.801 L64.0042 540.58 L16.4842 522.438 Z" fill="#000000" fill-rule="evenodd" fill-opacity="1" /><path clip-path="url(#clip352)" d="M337.179 86.1857 L337.179 1384.24 L342.605 1384.24 L342.605 86.1857 L337.179 86.1857 L337.179 86.1857  Z" fill="#009af9" fill-rule="evenodd" fill-opacity="1"/>
<polyline clip-path="url(#clip352)" style="stroke:#000000; stroke-linecap:round; stroke-linejoin:round; stroke-width:4; stroke-opacity:1; fill:none" points="337.179,86.1857 337.179,1384.24 342.605,1384.24 342.605,86.1857 337.179,86.1857 "/>
<path clip-path="url(#clip352)" d="M1078.1 1370.47 L1078.1 1384.24 L1083.53 1384.24 L1083.53 1370.47 L1078.1 1370.47 L1078.1 1370.47  Z" fill="#009af9" fill-rule="evenodd" fill-opacity="1"/>
<polyline clip-path="url(#clip352)" style="stroke:#000000; stroke-linecap:round; stroke-linejoin:round; stroke-width:4; stroke-opacity:1; fill:none" points="1078.1,1370.47 1078.1,1384.24 1083.53,1384.24 1083.53,1370.47 1078.1,1370.47 "/>
<path clip-path="url(#clip352)" d="M1085.04 1366.09 L1085.04 1384.24 L1090.47 1384.24 L1090.47 1366.09 L1085.04 1366.09 L1085.04 1366.09  Z" fill="#009af9" fill-rule="evenodd" fill-opacity="1"/>
<polyline clip-path="url(#clip352)" style="stroke:#000000; stroke-linecap:round; stroke-linejoin:round; stroke-width:4; stroke-opacity:1; fill:none" points="1085.04,1366.09 1085.04,1384.24 1090.47,1384.24 1090.47,1366.09 1085.04,1366.09 "/>
<path clip-path="url(#clip352)" d="M1091.91 1363.78 L1091.91 1384.24 L1097.34 1384.24 L1097.34 1363.78 L1091.91 1363.78 L1091.91 1363.78  Z" fill="#009af9" fill-rule="evenodd" fill-opacity="1"/>
<polyline clip-path="url(#clip352)" style="stroke:#000000; stroke-linecap:round; stroke-linejoin:round; stroke-width:4; stroke-opacity:1; fill:none" points="1091.91,1363.78 1091.91,1384.24 1097.34,1384.24 1097.34,1363.78 1091.91,1363.78 "/>
<path clip-path="url(#clip352)" d="M1098.76 1362.12 L1098.76 1384.24 L1104.19 1384.24 L1104.19 1362.12 L1098.76 1362.12 L1098.76 1362.12  Z" fill="#009af9" fill-rule="evenodd" fill-opacity="1"/>
<polyline clip-path="url(#clip352)" style="stroke:#000000; stroke-linecap:round; stroke-linejoin:round; stroke-width:4; stroke-opacity:1; fill:none" points="1098.76,1362.12 1098.76,1384.24 1104.19,1384.24 1104.19,1362.12 1098.76,1362.12 "/>
<path clip-path="url(#clip352)" d="M1105.6 1360.82 L1105.6 1384.24 L1111.02 1384.24 L1111.02 1360.82 L1105.6 1360.82 L1105.6 1360.82  Z" fill="#009af9" fill-rule="evenodd" fill-opacity="1"/>
<polyline clip-path="url(#clip352)" style="stroke:#000000; stroke-linecap:round; stroke-linejoin:round; stroke-width:4; stroke-opacity:1; fill:none" points="1105.6,1360.82 1105.6,1384.24 1111.02,1384.24 1111.02,1360.82 1105.6,1360.82 "/>
<path clip-path="url(#clip352)" d="M1112.43 1359.74 L1112.43 1384.24 L1117.85 1384.24 L1117.85 1359.74 L1112.43 1359.74 L1112.43 1359.74  Z" fill="#009af9" fill-rule="evenodd" fill-opacity="1"/>
<polyline clip-path="url(#clip352)" style="stroke:#000000; stroke-linecap:round; stroke-linejoin:round; stroke-width:4; stroke-opacity:1; fill:none" points="1112.43,1359.74 1112.43,1384.24 1117.85,1384.24 1117.85,1359.74 1112.43,1359.74 "/>
<path clip-path="url(#clip352)" d="M1119.25 1358.82 L1119.25 1384.24 L1124.67 1384.24 L1124.67 1358.82 L1119.25 1358.82 L1119.25 1358.82  Z" fill="#009af9" fill-rule="evenodd" fill-opacity="1"/>
<polyline clip-path="url(#clip352)" style="stroke:#000000; stroke-linecap:round; stroke-linejoin:round; stroke-width:4; stroke-opacity:1; fill:none" points="1119.25,1358.82 1119.25,1384.24 1124.67,1384.24 1124.67,1358.82 1119.25,1358.82 "/>
<path clip-path="url(#clip352)" d="M1126.06 1358.01 L1126.06 1384.24 L1131.49 1384.24 L1131.49 1358.01 L1126.06 1358.01 L1126.06 1358.01  Z" fill="#009af9" fill-rule="evenodd" fill-opacity="1"/>
<polyline clip-path="url(#clip352)" style="stroke:#000000; stroke-linecap:round; stroke-linejoin:round; stroke-width:4; stroke-opacity:1; fill:none" points="1126.06,1358.01 1126.06,1384.24 1131.49,1384.24 1131.49,1358.01 1126.06,1358.01 "/>
<path clip-path="url(#clip352)" d="M1132.87 1357.3 L1132.87 1384.24 L1138.3 1384.24 L1138.3 1357.3 L1132.87 1357.3 L1132.87 1357.3  Z" fill="#009af9" fill-rule="evenodd" fill-opacity="1"/>
<polyline clip-path="url(#clip352)" style="stroke:#000000; stroke-linecap:round; stroke-linejoin:round; stroke-width:4; stroke-opacity:1; fill:none" points="1132.87,1357.3 1132.87,1384.24 1138.3,1384.24 1138.3,1357.3 1132.87,1357.3 "/>
<path clip-path="url(#clip352)" d="M1139.68 1356.66 L1139.68 1384.24 L1145.11 1384.24 L1145.11 1356.66 L1139.68 1356.66 L1139.68 1356.66  Z" fill="#009af9" fill-rule="evenodd" fill-opacity="1"/>
<polyline clip-path="url(#clip352)" style="stroke:#000000; stroke-linecap:round; stroke-linejoin:round; stroke-width:4; stroke-opacity:1; fill:none" points="1139.68,1356.66 1139.68,1384.24 1145.11,1384.24 1145.11,1356.66 1139.68,1356.66 "/>
<path clip-path="url(#clip352)" d="M1146.49 1356.09 L1146.49 1384.24 L1151.91 1384.24 L1151.91 1356.09 L1146.49 1356.09 L1146.49 1356.09  Z" fill="#009af9" fill-rule="evenodd" fill-opacity="1"/>
<polyline clip-path="url(#clip352)" style="stroke:#000000; stroke-linecap:round; stroke-linejoin:round; stroke-width:4; stroke-opacity:1; fill:none" points="1146.49,1356.09 1146.49,1384.24 1151.91,1384.24 1151.91,1356.09 1146.49,1356.09 "/>
<path clip-path="url(#clip352)" d="M1153.29 1355.56 L1153.29 1384.24 L1158.71 1384.24 L1158.71 1355.56 L1153.29 1355.56 L1153.29 1355.56  Z" fill="#009af9" fill-rule="evenodd" fill-opacity="1"/>
<polyline clip-path="url(#clip352)" style="stroke:#000000; stroke-linecap:round; stroke-linejoin:round; stroke-width:4; stroke-opacity:1; fill:none" points="1153.29,1355.56 1153.29,1384.24 1158.71,1384.24 1158.71,1355.56 1153.29,1355.56 "/>
<path clip-path="url(#clip352)" d="M1160.09 1355.08 L1160.09 1384.24 L1165.52 1384.24 L1165.52 1355.08 L1160.09 1355.08 L1160.09 1355.08  Z" fill="#009af9" fill-rule="evenodd" fill-opacity="1"/>
<polyline clip-path="url(#clip352)" style="stroke:#000000; stroke-linecap:round; stroke-linejoin:round; stroke-width:4; stroke-opacity:1; fill:none" points="1160.09,1355.08 1160.09,1384.24 1165.52,1384.24 1165.52,1355.08 1160.09,1355.08 "/>
<path clip-path="url(#clip352)" d="M1166.89 1354.63 L1166.89 1384.24 L1172.31 1384.24 L1172.31 1354.63 L1166.89 1354.63 L1166.89 1354.63  Z" fill="#009af9" fill-rule="evenodd" fill-opacity="1"/>
<polyline clip-path="url(#clip352)" style="stroke:#000000; stroke-linecap:round; stroke-linejoin:round; stroke-width:4; stroke-opacity:1; fill:none" points="1166.89,1354.63 1166.89,1384.24 1172.31,1384.24 1172.31,1354.63 1166.89,1354.63 "/>
<path clip-path="url(#clip352)" d="M1173.69 1354.22 L1173.69 1384.24 L1179.11 1384.24 L1179.11 1354.22 L1173.69 1354.22 L1173.69 1354.22  Z" fill="#009af9" fill-rule="evenodd" fill-opacity="1"/>
<polyline clip-path="url(#clip352)" style="stroke:#000000; stroke-linecap:round; stroke-linejoin:round; stroke-width:4; stroke-opacity:1; fill:none" points="1173.69,1354.22 1173.69,1384.24 1179.11,1384.24 1179.11,1354.22 1173.69,1354.22 "/>
<path clip-path="url(#clip352)" d="M1180.48 1353.84 L1180.48 1384.24 L1185.91 1384.24 L1185.91 1353.84 L1180.48 1353.84 L1180.48 1353.84  Z" fill="#009af9" fill-rule="evenodd" fill-opacity="1"/>
<polyline clip-path="url(#clip352)" style="stroke:#000000; stroke-linecap:round; stroke-linejoin:round; stroke-width:4; stroke-opacity:1; fill:none" points="1180.48,1353.84 1180.48,1384.24 1185.91,1384.24 1185.91,1353.84 1180.48,1353.84 "/>
<path clip-path="url(#clip352)" d="M1187.28 1353.48 L1187.28 1384.24 L1192.7 1384.24 L1192.7 1353.48 L1187.28 1353.48 L1187.28 1353.48  Z" fill="#009af9" fill-rule="evenodd" fill-opacity="1"/>
<polyline clip-path="url(#clip352)" style="stroke:#000000; stroke-linecap:round; stroke-linejoin:round; stroke-width:4; stroke-opacity:1; fill:none" points="1187.28,1353.48 1187.28,1384.24 1192.7,1384.24 1192.7,1353.48 1187.28,1353.48 "/>
<path clip-path="url(#clip352)" d="M1194.07 1353.15 L1194.07 1384.24 L1199.5 1384.24 L1199.5 1353.15 L1194.07 1353.15 L1194.07 1353.15  Z" fill="#009af9" fill-rule="evenodd" fill-opacity="1"/>
<polyline clip-path="url(#clip352)" style="stroke:#000000; stroke-linecap:round; stroke-linejoin:round; stroke-width:4; stroke-opacity:1; fill:none" points="1194.07,1353.15 1194.07,1384.24 1199.5,1384.24 1199.5,1353.15 1194.07,1353.15 "/>
<path clip-path="url(#clip352)" d="M1200.86 1352.83 L1200.86 1384.24 L1206.29 1384.24 L1206.29 1352.83 L1200.86 1352.83 L1200.86 1352.83  Z" fill="#009af9" fill-rule="evenodd" fill-opacity="1"/>
<polyline clip-path="url(#clip352)" style="stroke:#000000; stroke-linecap:round; stroke-linejoin:round; stroke-width:4; stroke-opacity:1; fill:none" points="1200.86,1352.83 1200.86,1384.24 1206.29,1384.24 1206.29,1352.83 1200.86,1352.83 "/>
<path clip-path="url(#clip352)" d="M1207.65 1352.54 L1207.65 1384.24 L1213.08 1384.24 L1213.08 1352.54 L1207.65 1352.54 L1207.65 1352.54  Z" fill="#009af9" fill-rule="evenodd" fill-opacity="1"/>
<polyline clip-path="url(#clip352)" style="stroke:#000000; stroke-linecap:round; stroke-linejoin:round; stroke-width:4; stroke-opacity:1; fill:none" points="1207.65,1352.54 1207.65,1384.24 1213.08,1384.24 1213.08,1352.54 1207.65,1352.54 "/>
<path clip-path="url(#clip352)" d="M1214.44 1352.26 L1214.44 1384.24 L1219.87 1384.24 L1219.87 1352.26 L1214.44 1352.26 L1214.44 1352.26  Z" fill="#009af9" fill-rule="evenodd" fill-opacity="1"/>
<polyline clip-path="url(#clip352)" style="stroke:#000000; stroke-linecap:round; stroke-linejoin:round; stroke-width:4; stroke-opacity:1; fill:none" points="1214.44,1352.26 1214.44,1384.24 1219.87,1384.24 1219.87,1352.26 1214.44,1352.26 "/>
<path clip-path="url(#clip352)" d="M1221.23 1352 L1221.23 1384.24 L1226.66 1384.24 L1226.66 1352 L1221.23 1352 L1221.23 1352  Z" fill="#009af9" fill-rule="evenodd" fill-opacity="1"/>
<polyline clip-path="url(#clip352)" style="stroke:#000000; stroke-linecap:round; stroke-linejoin:round; stroke-width:4; stroke-opacity:1; fill:none" points="1221.23,1352 1221.23,1384.24 1226.66,1384.24 1226.66,1352 1221.23,1352 "/>
<path clip-path="url(#clip352)" d="M1228.02 1351.76 L1228.02 1384.24 L1233.45 1384.24 L1233.45 1351.76 L1228.02 1351.76 L1228.02 1351.76  Z" fill="#009af9" fill-rule="evenodd" fill-opacity="1"/>
<polyline clip-path="url(#clip352)" style="stroke:#000000; stroke-linecap:round; stroke-linejoin:round; stroke-width:4; stroke-opacity:1; fill:none" points="1228.02,1351.76 1228.02,1384.24 1233.45,1384.24 1233.45,1351.76 1228.02,1351.76 "/>
<path clip-path="url(#clip352)" d="M1234.81 1351.53 L1234.81 1384.24 L1240.24 1384.24 L1240.24 1351.53 L1234.81 1351.53 L1234.81 1351.53  Z" fill="#009af9" fill-rule="evenodd" fill-opacity="1"/>
<polyline clip-path="url(#clip352)" style="stroke:#000000; stroke-linecap:round; stroke-linejoin:round; stroke-width:4; stroke-opacity:1; fill:none" points="1234.81,1351.53 1234.81,1384.24 1240.24,1384.24 1240.24,1351.53 1234.81,1351.53 "/>
<path clip-path="url(#clip352)" d="M1241.6 1351.31 L1241.6 1384.24 L1247.02 1384.24 L1247.02 1351.31 L1241.6 1351.31 L1241.6 1351.31  Z" fill="#009af9" fill-rule="evenodd" fill-opacity="1"/>
<polyline clip-path="url(#clip352)" style="stroke:#000000; stroke-linecap:round; stroke-linejoin:round; stroke-width:4; stroke-opacity:1; fill:none" points="1241.6,1351.31 1241.6,1384.24 1247.02,1384.24 1247.02,1351.31 1241.6,1351.31 "/>
<path clip-path="url(#clip352)" d="M1248.39 1351.1 L1248.39 1384.24 L1253.81 1384.24 L1253.81 1351.1 L1248.39 1351.1 L1248.39 1351.1  Z" fill="#009af9" fill-rule="evenodd" fill-opacity="1"/>
<polyline clip-path="url(#clip352)" style="stroke:#000000; stroke-linecap:round; stroke-linejoin:round; stroke-width:4; stroke-opacity:1; fill:none" points="1248.39,1351.1 1248.39,1384.24 1253.81,1384.24 1253.81,1351.1 1248.39,1351.1 "/>
<path clip-path="url(#clip352)" d="M1255.17 1350.9 L1255.17 1384.24 L1260.6 1384.24 L1260.6 1350.9 L1255.17 1350.9 L1255.17 1350.9  Z" fill="#009af9" fill-rule="evenodd" fill-opacity="1"/>
<polyline clip-path="url(#clip352)" style="stroke:#000000; stroke-linecap:round; stroke-linejoin:round; stroke-width:4; stroke-opacity:1; fill:none" points="1255.17,1350.9 1255.17,1384.24 1260.6,1384.24 1260.6,1350.9 1255.17,1350.9 "/>
<path clip-path="url(#clip352)" d="M1261.96 1350.72 L1261.96 1384.24 L1267.38 1384.24 L1267.38 1350.72 L1261.96 1350.72 L1261.96 1350.72  Z" fill="#009af9" fill-rule="evenodd" fill-opacity="1"/>
<polyline clip-path="url(#clip352)" style="stroke:#000000; stroke-linecap:round; stroke-linejoin:round; stroke-width:4; stroke-opacity:1; fill:none" points="1261.96,1350.72 1261.96,1384.24 1267.38,1384.24 1267.38,1350.72 1261.96,1350.72 "/>
<path clip-path="url(#clip352)" d="M1268.74 1350.54 L1268.74 1384.24 L1274.17 1384.24 L1274.17 1350.54 L1268.74 1350.54 L1268.74 1350.54  Z" fill="#009af9" fill-rule="evenodd" fill-opacity="1"/>
<polyline clip-path="url(#clip352)" style="stroke:#000000; stroke-linecap:round; stroke-linejoin:round; stroke-width:4; stroke-opacity:1; fill:none" points="1268.74,1350.54 1268.74,1384.24 1274.17,1384.24 1274.17,1350.54 1268.74,1350.54 "/>
<path clip-path="url(#clip352)" d="M1275.53 1350.37 L1275.53 1384.24 L1280.96 1384.24 L1280.96 1350.37 L1275.53 1350.37 L1275.53 1350.37  Z" fill="#009af9" fill-rule="evenodd" fill-opacity="1"/>
<polyline clip-path="url(#clip352)" style="stroke:#000000; stroke-linecap:round; stroke-linejoin:round; stroke-width:4; stroke-opacity:1; fill:none" points="1275.53,1350.37 1275.53,1384.24 1280.96,1384.24 1280.96,1350.37 1275.53,1350.37 "/>
<path clip-path="url(#clip352)" d="M1282.31 1350.21 L1282.31 1384.24 L1287.74 1384.24 L1287.74 1350.21 L1282.31 1350.21 L1282.31 1350.21  Z" fill="#009af9" fill-rule="evenodd" fill-opacity="1"/>
<polyline clip-path="url(#clip352)" style="stroke:#000000; stroke-linecap:round; stroke-linejoin:round; stroke-width:4; stroke-opacity:1; fill:none" points="1282.31,1350.21 1282.31,1384.24 1287.74,1384.24 1287.74,1350.21 1282.31,1350.21 "/>
<path clip-path="url(#clip352)" d="M1289.1 1350.06 L1289.1 1384.24 L1294.53 1384.24 L1294.53 1350.06 L1289.1 1350.06 L1289.1 1350.06  Z" fill="#009af9" fill-rule="evenodd" fill-opacity="1"/>
<polyline clip-path="url(#clip352)" style="stroke:#000000; stroke-linecap:round; stroke-linejoin:round; stroke-width:4; stroke-opacity:1; fill:none" points="1289.1,1350.06 1289.1,1384.24 1294.53,1384.24 1294.53,1350.06 1289.1,1350.06 "/>
<path clip-path="url(#clip352)" d="M1295.88 1349.92 L1295.88 1384.24 L1301.31 1384.24 L1301.31 1349.92 L1295.88 1349.92 L1295.88 1349.92  Z" fill="#009af9" fill-rule="evenodd" fill-opacity="1"/>
<polyline clip-path="url(#clip352)" style="stroke:#000000; stroke-linecap:round; stroke-linejoin:round; stroke-width:4; stroke-opacity:1; fill:none" points="1295.88,1349.92 1295.88,1384.24 1301.31,1384.24 1301.31,1349.92 1295.88,1349.92 "/>
<path clip-path="url(#clip352)" d="M1302.67 1349.79 L1302.67 1384.24 L1308.09 1384.24 L1308.09 1349.79 L1302.67 1349.79 L1302.67 1349.79  Z" fill="#009af9" fill-rule="evenodd" fill-opacity="1"/>
<polyline clip-path="url(#clip352)" style="stroke:#000000; stroke-linecap:round; stroke-linejoin:round; stroke-width:4; stroke-opacity:1; fill:none" points="1302.67,1349.79 1302.67,1384.24 1308.09,1384.24 1308.09,1349.79 1302.67,1349.79 "/>
<path clip-path="url(#clip352)" d="M1309.45 1349.66 L1309.45 1384.24 L1314.88 1384.24 L1314.88 1349.66 L1309.45 1349.66 L1309.45 1349.66  Z" fill="#009af9" fill-rule="evenodd" fill-opacity="1"/>
<polyline clip-path="url(#clip352)" style="stroke:#000000; stroke-linecap:round; stroke-linejoin:round; stroke-width:4; stroke-opacity:1; fill:none" points="1309.45,1349.66 1309.45,1384.24 1314.88,1384.24 1314.88,1349.66 1309.45,1349.66 "/>
<path clip-path="url(#clip352)" d="M1316.24 1349.54 L1316.24 1384.24 L1321.66 1384.24 L1321.66 1349.54 L1316.24 1349.54 L1316.24 1349.54  Z" fill="#009af9" fill-rule="evenodd" fill-opacity="1"/>
<polyline clip-path="url(#clip352)" style="stroke:#000000; stroke-linecap:round; stroke-linejoin:round; stroke-width:4; stroke-opacity:1; fill:none" points="1316.24,1349.54 1316.24,1384.24 1321.66,1384.24 1321.66,1349.54 1316.24,1349.54 "/>
<path clip-path="url(#clip352)" d="M1323.02 1349.42 L1323.02 1384.24 L1328.44 1384.24 L1328.44 1349.42 L1323.02 1349.42 L1323.02 1349.42  Z" fill="#009af9" fill-rule="evenodd" fill-opacity="1"/>
<polyline clip-path="url(#clip352)" style="stroke:#000000; stroke-linecap:round; stroke-linejoin:round; stroke-width:4; stroke-opacity:1; fill:none" points="1323.02,1349.42 1323.02,1384.24 1328.44,1384.24 1328.44,1349.42 1323.02,1349.42 "/>
<path clip-path="url(#clip352)" d="M1329.8 1349.31 L1329.8 1384.24 L1335.23 1384.24 L1335.23 1349.31 L1329.8 1349.31 L1329.8 1349.31  Z" fill="#009af9" fill-rule="evenodd" fill-opacity="1"/>
<polyline clip-path="url(#clip352)" style="stroke:#000000; stroke-linecap:round; stroke-linejoin:round; stroke-width:4; stroke-opacity:1; fill:none" points="1329.8,1349.31 1329.8,1384.24 1335.23,1384.24 1335.23,1349.31 1329.8,1349.31 "/>
<path clip-path="url(#clip352)" d="M1336.59 1349.21 L1336.59 1384.24 L1342.01 1384.24 L1342.01 1349.21 L1336.59 1349.21 L1336.59 1349.21  Z" fill="#009af9" fill-rule="evenodd" fill-opacity="1"/>
<polyline clip-path="url(#clip352)" style="stroke:#000000; stroke-linecap:round; stroke-linejoin:round; stroke-width:4; stroke-opacity:1; fill:none" points="1336.59,1349.21 1336.59,1384.24 1342.01,1384.24 1342.01,1349.21 1336.59,1349.21 "/>
<path clip-path="url(#clip352)" d="M1343.37 1349.11 L1343.37 1384.24 L1348.79 1384.24 L1348.79 1349.11 L1343.37 1349.11 L1343.37 1349.11  Z" fill="#009af9" fill-rule="evenodd" fill-opacity="1"/>
<polyline clip-path="url(#clip352)" style="stroke:#000000; stroke-linecap:round; stroke-linejoin:round; stroke-width:4; stroke-opacity:1; fill:none" points="1343.37,1349.11 1343.37,1384.24 1348.79,1384.24 1348.79,1349.11 1343.37,1349.11 "/>
<path clip-path="url(#clip352)" d="M1350.15 1349.02 L1350.15 1384.24 L1355.58 1384.24 L1355.58 1349.02 L1350.15 1349.02 L1350.15 1349.02  Z" fill="#009af9" fill-rule="evenodd" fill-opacity="1"/>
<polyline clip-path="url(#clip352)" style="stroke:#000000; stroke-linecap:round; stroke-linejoin:round; stroke-width:4; stroke-opacity:1; fill:none" points="1350.15,1349.02 1350.15,1384.24 1355.58,1384.24 1355.58,1349.02 1350.15,1349.02 "/>
<path clip-path="url(#clip352)" d="M1356.93 1348.94 L1356.93 1384.24 L1362.36 1384.24 L1362.36 1348.94 L1356.93 1348.94 L1356.93 1348.94  Z" fill="#009af9" fill-rule="evenodd" fill-opacity="1"/>
<polyline clip-path="url(#clip352)" style="stroke:#000000; stroke-linecap:round; stroke-linejoin:round; stroke-width:4; stroke-opacity:1; fill:none" points="1356.93,1348.94 1356.93,1384.24 1362.36,1384.24 1362.36,1348.94 1356.93,1348.94 "/>
<path clip-path="url(#clip352)" d="M1363.72 1348.86 L1363.72 1384.24 L1369.14 1384.24 L1369.14 1348.86 L1363.72 1348.86 L1363.72 1348.86  Z" fill="#009af9" fill-rule="evenodd" fill-opacity="1"/>
<polyline clip-path="url(#clip352)" style="stroke:#000000; stroke-linecap:round; stroke-linejoin:round; stroke-width:4; stroke-opacity:1; fill:none" points="1363.72,1348.86 1363.72,1384.24 1369.14,1384.24 1369.14,1348.86 1363.72,1348.86 "/>
<path clip-path="url(#clip352)" d="M1370.5 1348.78 L1370.5 1384.24 L1375.93 1384.24 L1375.93 1348.78 L1370.5 1348.78 L1370.5 1348.78  Z" fill="#009af9" fill-rule="evenodd" fill-opacity="1"/>
<polyline clip-path="url(#clip352)" style="stroke:#000000; stroke-linecap:round; stroke-linejoin:round; stroke-width:4; stroke-opacity:1; fill:none" points="1370.5,1348.78 1370.5,1384.24 1375.93,1384.24 1375.93,1348.78 1370.5,1348.78 "/>
<path clip-path="url(#clip352)" d="M1377.28 1348.71 L1377.28 1384.24 L1382.71 1384.24 L1382.71 1348.71 L1377.28 1348.71 L1377.28 1348.71  Z" fill="#009af9" fill-rule="evenodd" fill-opacity="1"/>
<polyline clip-path="url(#clip352)" style="stroke:#000000; stroke-linecap:round; stroke-linejoin:round; stroke-width:4; stroke-opacity:1; fill:none" points="1377.28,1348.71 1377.28,1384.24 1382.71,1384.24 1382.71,1348.71 1377.28,1348.71 "/>
<path clip-path="url(#clip352)" d="M1384.06 1348.65 L1384.06 1384.24 L1389.49 1384.24 L1389.49 1348.65 L1384.06 1348.65 L1384.06 1348.65  Z" fill="#009af9" fill-rule="evenodd" fill-opacity="1"/>
<polyline clip-path="url(#clip352)" style="stroke:#000000; stroke-linecap:round; stroke-linejoin:round; stroke-width:4; stroke-opacity:1; fill:none" points="1384.06,1348.65 1384.06,1384.24 1389.49,1384.24 1389.49,1348.65 1384.06,1348.65 "/>
<path clip-path="url(#clip352)" d="M1390.85 1348.59 L1390.85 1384.24 L1396.27 1384.24 L1396.27 1348.59 L1390.85 1348.59 L1390.85 1348.59  Z" fill="#009af9" fill-rule="evenodd" fill-opacity="1"/>
<polyline clip-path="url(#clip352)" style="stroke:#000000; stroke-linecap:round; stroke-linejoin:round; stroke-width:4; stroke-opacity:1; fill:none" points="1390.85,1348.59 1390.85,1384.24 1396.27,1384.24 1396.27,1348.59 1390.85,1348.59 "/>
<path clip-path="url(#clip352)" d="M1397.63 1348.53 L1397.63 1384.24 L1403.06 1384.24 L1403.06 1348.53 L1397.63 1348.53 L1397.63 1348.53  Z" fill="#009af9" fill-rule="evenodd" fill-opacity="1"/>
<polyline clip-path="url(#clip352)" style="stroke:#000000; stroke-linecap:round; stroke-linejoin:round; stroke-width:4; stroke-opacity:1; fill:none" points="1397.63,1348.53 1397.63,1384.24 1403.06,1384.24 1403.06,1348.53 1397.63,1348.53 "/>
<path clip-path="url(#clip352)" d="M1404.41 1348.48 L1404.41 1384.24 L1409.84 1384.24 L1409.84 1348.48 L1404.41 1348.48 L1404.41 1348.48  Z" fill="#009af9" fill-rule="evenodd" fill-opacity="1"/>
<polyline clip-path="url(#clip352)" style="stroke:#000000; stroke-linecap:round; stroke-linejoin:round; stroke-width:4; stroke-opacity:1; fill:none" points="1404.41,1348.48 1404.41,1384.24 1409.84,1384.24 1409.84,1348.48 1404.41,1348.48 "/>
<path clip-path="url(#clip352)" d="M1411.2 1348.44 L1411.2 1384.24 L1416.62 1384.24 L1416.62 1348.44 L1411.2 1348.44 L1411.2 1348.44  Z" fill="#009af9" fill-rule="evenodd" fill-opacity="1"/>
<polyline clip-path="url(#clip352)" style="stroke:#000000; stroke-linecap:round; stroke-linejoin:round; stroke-width:4; stroke-opacity:1; fill:none" points="1411.2,1348.44 1411.2,1384.24 1416.62,1384.24 1416.62,1348.44 1411.2,1348.44 "/>
<path clip-path="url(#clip352)" d="M1417.98 1348.4 L1417.98 1384.24 L1423.4 1384.24 L1423.4 1348.4 L1417.98 1348.4 L1417.98 1348.4  Z" fill="#009af9" fill-rule="evenodd" fill-opacity="1"/>
<polyline clip-path="url(#clip352)" style="stroke:#000000; stroke-linecap:round; stroke-linejoin:round; stroke-width:4; stroke-opacity:1; fill:none" points="1417.98,1348.4 1417.98,1384.24 1423.4,1384.24 1423.4,1348.4 1417.98,1348.4 "/>
<path clip-path="url(#clip352)" d="M1424.76 1348.36 L1424.76 1384.24 L1430.19 1384.24 L1430.19 1348.36 L1424.76 1348.36 L1424.76 1348.36  Z" fill="#009af9" fill-rule="evenodd" fill-opacity="1"/>
<polyline clip-path="url(#clip352)" style="stroke:#000000; stroke-linecap:round; stroke-linejoin:round; stroke-width:4; stroke-opacity:1; fill:none" points="1424.76,1348.36 1424.76,1384.24 1430.19,1384.24 1430.19,1348.36 1424.76,1348.36 "/>
<path clip-path="url(#clip352)" d="M1431.54 1348.33 L1431.54 1384.24 L1436.97 1384.24 L1436.97 1348.33 L1431.54 1348.33 L1431.54 1348.33  Z" fill="#009af9" fill-rule="evenodd" fill-opacity="1"/>
<polyline clip-path="url(#clip352)" style="stroke:#000000; stroke-linecap:round; stroke-linejoin:round; stroke-width:4; stroke-opacity:1; fill:none" points="1431.54,1348.33 1431.54,1384.24 1436.97,1384.24 1436.97,1348.33 1431.54,1348.33 "/>
<path clip-path="url(#clip352)" d="M1438.33 1348.31 L1438.33 1384.24 L1443.75 1384.24 L1443.75 1348.31 L1438.33 1348.31 L1438.33 1348.31  Z" fill="#009af9" fill-rule="evenodd" fill-opacity="1"/>
<polyline clip-path="url(#clip352)" style="stroke:#000000; stroke-linecap:round; stroke-linejoin:round; stroke-width:4; stroke-opacity:1; fill:none" points="1438.33,1348.31 1438.33,1384.24 1443.75,1384.24 1443.75,1348.31 1438.33,1348.31 "/>
<path clip-path="url(#clip352)" d="M1445.11 1348.29 L1445.11 1384.24 L1450.54 1384.24 L1450.54 1348.29 L1445.11 1348.29 L1445.11 1348.29  Z" fill="#009af9" fill-rule="evenodd" fill-opacity="1"/>
<polyline clip-path="url(#clip352)" style="stroke:#000000; stroke-linecap:round; stroke-linejoin:round; stroke-width:4; stroke-opacity:1; fill:none" points="1445.11,1348.29 1445.11,1384.24 1450.54,1384.24 1450.54,1348.29 1445.11,1348.29 "/>
<path clip-path="url(#clip352)" d="M1451.89 1348.27 L1451.89 1384.24 L1457.32 1384.24 L1457.32 1348.27 L1451.89 1348.27 L1451.89 1348.27  Z" fill="#009af9" fill-rule="evenodd" fill-opacity="1"/>
<polyline clip-path="url(#clip352)" style="stroke:#000000; stroke-linecap:round; stroke-linejoin:round; stroke-width:4; stroke-opacity:1; fill:none" points="1451.89,1348.27 1451.89,1384.24 1457.32,1384.24 1457.32,1348.27 1451.89,1348.27 "/>
<path clip-path="url(#clip352)" d="M1458.68 1348.26 L1458.68 1384.24 L1464.1 1384.24 L1464.1 1348.26 L1458.68 1348.26 L1458.68 1348.26  Z" fill="#009af9" fill-rule="evenodd" fill-opacity="1"/>
<polyline clip-path="url(#clip352)" style="stroke:#000000; stroke-linecap:round; stroke-linejoin:round; stroke-width:4; stroke-opacity:1; fill:none" points="1458.68,1348.26 1458.68,1384.24 1464.1,1384.24 1464.1,1348.26 1458.68,1348.26 "/>
<path clip-path="url(#clip352)" d="M1465.46 1348.26 L1465.46 1384.24 L1470.89 1384.24 L1470.89 1348.26 L1465.46 1348.26 L1465.46 1348.26  Z" fill="#009af9" fill-rule="evenodd" fill-opacity="1"/>
<polyline clip-path="url(#clip352)" style="stroke:#000000; stroke-linecap:round; stroke-linejoin:round; stroke-width:4; stroke-opacity:1; fill:none" points="1465.46,1348.26 1465.46,1384.24 1470.89,1384.24 1470.89,1348.26 1465.46,1348.26 "/>
<path clip-path="url(#clip352)" d="M1472.25 1348.25 L1472.25 1384.24 L1477.67 1384.24 L1477.67 1348.25 L1472.25 1348.25 L1472.25 1348.25  Z" fill="#009af9" fill-rule="evenodd" fill-opacity="1"/>
<polyline clip-path="url(#clip352)" style="stroke:#000000; stroke-linecap:round; stroke-linejoin:round; stroke-width:4; stroke-opacity:1; fill:none" points="1472.25,1348.25 1472.25,1384.24 1477.67,1384.24 1477.67,1348.25 1472.25,1348.25 "/>
<path clip-path="url(#clip352)" d="M1479.03 1348.26 L1479.03 1384.24 L1484.46 1384.24 L1484.46 1348.26 L1479.03 1348.26 L1479.03 1348.26  Z" fill="#009af9" fill-rule="evenodd" fill-opacity="1"/>
<polyline clip-path="url(#clip352)" style="stroke:#000000; stroke-linecap:round; stroke-linejoin:round; stroke-width:4; stroke-opacity:1; fill:none" points="1479.03,1348.26 1479.03,1384.24 1484.46,1384.24 1484.46,1348.26 1479.03,1348.26 "/>
<path clip-path="url(#clip352)" d="M1485.81 1348.27 L1485.81 1384.24 L1491.24 1384.24 L1491.24 1348.27 L1485.81 1348.27 L1485.81 1348.27  Z" fill="#009af9" fill-rule="evenodd" fill-opacity="1"/>
<polyline clip-path="url(#clip352)" style="stroke:#000000; stroke-linecap:round; stroke-linejoin:round; stroke-width:4; stroke-opacity:1; fill:none" points="1485.81,1348.27 1485.81,1384.24 1491.24,1384.24 1491.24,1348.27 1485.81,1348.27 "/>
<path clip-path="url(#clip352)" d="M1492.6 1348.28 L1492.6 1384.24 L1498.03 1384.24 L1498.03 1348.28 L1492.6 1348.28 L1492.6 1348.28  Z" fill="#009af9" fill-rule="evenodd" fill-opacity="1"/>
<polyline clip-path="url(#clip352)" style="stroke:#000000; stroke-linecap:round; stroke-linejoin:round; stroke-width:4; stroke-opacity:1; fill:none" points="1492.6,1348.28 1492.6,1384.24 1498.03,1384.24 1498.03,1348.28 1492.6,1348.28 "/>
<path clip-path="url(#clip352)" d="M1499.38 1348.31 L1499.38 1384.24 L1504.81 1384.24 L1504.81 1348.31 L1499.38 1348.31 L1499.38 1348.31  Z" fill="#009af9" fill-rule="evenodd" fill-opacity="1"/>
<polyline clip-path="url(#clip352)" style="stroke:#000000; stroke-linecap:round; stroke-linejoin:round; stroke-width:4; stroke-opacity:1; fill:none" points="1499.38,1348.31 1499.38,1384.24 1504.81,1384.24 1504.81,1348.31 1499.38,1348.31 "/>
<path clip-path="url(#clip352)" d="M1506.17 1348.33 L1506.17 1384.24 L1511.6 1384.24 L1511.6 1348.33 L1506.17 1348.33 L1506.17 1348.33  Z" fill="#009af9" fill-rule="evenodd" fill-opacity="1"/>
<polyline clip-path="url(#clip352)" style="stroke:#000000; stroke-linecap:round; stroke-linejoin:round; stroke-width:4; stroke-opacity:1; fill:none" points="1506.17,1348.33 1506.17,1384.24 1511.6,1384.24 1511.6,1348.33 1506.17,1348.33 "/>
<path clip-path="url(#clip352)" d="M1512.96 1348.37 L1512.96 1384.24 L1518.38 1384.24 L1518.38 1348.37 L1512.96 1348.37 L1512.96 1348.37  Z" fill="#009af9" fill-rule="evenodd" fill-opacity="1"/>
<polyline clip-path="url(#clip352)" style="stroke:#000000; stroke-linecap:round; stroke-linejoin:round; stroke-width:4; stroke-opacity:1; fill:none" points="1512.96,1348.37 1512.96,1384.24 1518.38,1384.24 1518.38,1348.37 1512.96,1348.37 "/>
<path clip-path="url(#clip352)" d="M1519.74 1348.4 L1519.74 1384.24 L1525.17 1384.24 L1525.17 1348.4 L1519.74 1348.4 L1519.74 1348.4  Z" fill="#009af9" fill-rule="evenodd" fill-opacity="1"/>
<polyline clip-path="url(#clip352)" style="stroke:#000000; stroke-linecap:round; stroke-linejoin:round; stroke-width:4; stroke-opacity:1; fill:none" points="1519.74,1348.4 1519.74,1384.24 1525.17,1384.24 1525.17,1348.4 1519.74,1348.4 "/>
<path clip-path="url(#clip352)" d="M1526.53 1348.45 L1526.53 1384.24 L1531.96 1384.24 L1531.96 1348.45 L1526.53 1348.45 L1526.53 1348.45  Z" fill="#009af9" fill-rule="evenodd" fill-opacity="1"/>
<polyline clip-path="url(#clip352)" style="stroke:#000000; stroke-linecap:round; stroke-linejoin:round; stroke-width:4; stroke-opacity:1; fill:none" points="1526.53,1348.45 1526.53,1384.24 1531.96,1384.24 1531.96,1348.45 1526.53,1348.45 "/>
<path clip-path="url(#clip352)" d="M1533.32 1348.5 L1533.32 1384.24 L1538.74 1384.24 L1538.74 1348.5 L1533.32 1348.5 L1533.32 1348.5  Z" fill="#009af9" fill-rule="evenodd" fill-opacity="1"/>
<polyline clip-path="url(#clip352)" style="stroke:#000000; stroke-linecap:round; stroke-linejoin:round; stroke-width:4; stroke-opacity:1; fill:none" points="1533.32,1348.5 1533.32,1384.24 1538.74,1384.24 1538.74,1348.5 1533.32,1348.5 "/>
<path clip-path="url(#clip352)" d="M1540.1 1348.56 L1540.1 1384.24 L1545.53 1384.24 L1545.53 1348.56 L1540.1 1348.56 L1540.1 1348.56  Z" fill="#009af9" fill-rule="evenodd" fill-opacity="1"/>
<polyline clip-path="url(#clip352)" style="stroke:#000000; stroke-linecap:round; stroke-linejoin:round; stroke-width:4; stroke-opacity:1; fill:none" points="1540.1,1348.56 1540.1,1384.24 1545.53,1384.24 1545.53,1348.56 1540.1,1348.56 "/>
<path clip-path="url(#clip352)" d="M1546.89 1348.63 L1546.89 1384.24 L1552.32 1384.24 L1552.32 1348.63 L1546.89 1348.63 L1546.89 1348.63  Z" fill="#009af9" fill-rule="evenodd" fill-opacity="1"/>
<polyline clip-path="url(#clip352)" style="stroke:#000000; stroke-linecap:round; stroke-linejoin:round; stroke-width:4; stroke-opacity:1; fill:none" points="1546.89,1348.63 1546.89,1384.24 1552.32,1384.24 1552.32,1348.63 1546.89,1348.63 "/>
<path clip-path="url(#clip352)" d="M1553.68 1348.7 L1553.68 1384.24 L1559.11 1384.24 L1559.11 1348.7 L1553.68 1348.7 L1553.68 1348.7  Z" fill="#009af9" fill-rule="evenodd" fill-opacity="1"/>
<polyline clip-path="url(#clip352)" style="stroke:#000000; stroke-linecap:round; stroke-linejoin:round; stroke-width:4; stroke-opacity:1; fill:none" points="1553.68,1348.7 1553.68,1384.24 1559.11,1384.24 1559.11,1348.7 1553.68,1348.7 "/>
<path clip-path="url(#clip352)" d="M1560.47 1348.79 L1560.47 1384.24 L1565.9 1384.24 L1565.9 1348.79 L1560.47 1348.79 L1560.47 1348.79  Z" fill="#009af9" fill-rule="evenodd" fill-opacity="1"/>
<polyline clip-path="url(#clip352)" style="stroke:#000000; stroke-linecap:round; stroke-linejoin:round; stroke-width:4; stroke-opacity:1; fill:none" points="1560.47,1348.79 1560.47,1384.24 1565.9,1384.24 1565.9,1348.79 1560.47,1348.79 "/>
<path clip-path="url(#clip352)" d="M1567.26 1348.88 L1567.26 1384.24 L1572.69 1384.24 L1572.69 1348.88 L1567.26 1348.88 L1567.26 1348.88  Z" fill="#009af9" fill-rule="evenodd" fill-opacity="1"/>
<polyline clip-path="url(#clip352)" style="stroke:#000000; stroke-linecap:round; stroke-linejoin:round; stroke-width:4; stroke-opacity:1; fill:none" points="1567.26,1348.88 1567.26,1384.24 1572.69,1384.24 1572.69,1348.88 1567.26,1348.88 "/>
<path clip-path="url(#clip352)" d="M1574.05 1348.98 L1574.05 1384.24 L1579.48 1384.24 L1579.48 1348.98 L1574.05 1348.98 L1574.05 1348.98  Z" fill="#009af9" fill-rule="evenodd" fill-opacity="1"/>
<polyline clip-path="url(#clip352)" style="stroke:#000000; stroke-linecap:round; stroke-linejoin:round; stroke-width:4; stroke-opacity:1; fill:none" points="1574.05,1348.98 1574.05,1384.24 1579.48,1384.24 1579.48,1348.98 1574.05,1348.98 "/>
<path clip-path="url(#clip352)" d="M1580.84 1349.09 L1580.84 1384.24 L1586.27 1384.24 L1586.27 1349.09 L1580.84 1349.09 L1580.84 1349.09  Z" fill="#009af9" fill-rule="evenodd" fill-opacity="1"/>
<polyline clip-path="url(#clip352)" style="stroke:#000000; stroke-linecap:round; stroke-linejoin:round; stroke-width:4; stroke-opacity:1; fill:none" points="1580.84,1349.09 1580.84,1384.24 1586.27,1384.24 1586.27,1349.09 1580.84,1349.09 "/>
<path clip-path="url(#clip352)" d="M1587.64 1349.21 L1587.64 1384.24 L1593.06 1384.24 L1593.06 1349.21 L1587.64 1349.21 L1587.64 1349.21  Z" fill="#009af9" fill-rule="evenodd" fill-opacity="1"/>
<polyline clip-path="url(#clip352)" style="stroke:#000000; stroke-linecap:round; stroke-linejoin:round; stroke-width:4; stroke-opacity:1; fill:none" points="1587.64,1349.21 1587.64,1384.24 1593.06,1384.24 1593.06,1349.21 1587.64,1349.21 "/>
<path clip-path="url(#clip352)" d="M1594.43 1349.35 L1594.43 1384.24 L1599.86 1384.24 L1599.86 1349.35 L1594.43 1349.35 L1594.43 1349.35  Z" fill="#009af9" fill-rule="evenodd" fill-opacity="1"/>
<polyline clip-path="url(#clip352)" style="stroke:#000000; stroke-linecap:round; stroke-linejoin:round; stroke-width:4; stroke-opacity:1; fill:none" points="1594.43,1349.35 1594.43,1384.24 1599.86,1384.24 1599.86,1349.35 1594.43,1349.35 "/>
<path clip-path="url(#clip352)" d="M1601.22 1349.49 L1601.22 1384.24 L1606.65 1384.24 L1606.65 1349.49 L1601.22 1349.49 L1601.22 1349.49  Z" fill="#009af9" fill-rule="evenodd" fill-opacity="1"/>
<polyline clip-path="url(#clip352)" style="stroke:#000000; stroke-linecap:round; stroke-linejoin:round; stroke-width:4; stroke-opacity:1; fill:none" points="1601.22,1349.49 1601.22,1384.24 1606.65,1384.24 1606.65,1349.49 1601.22,1349.49 "/>
<path clip-path="url(#clip352)" d="M1608.02 1349.65 L1608.02 1384.24 L1613.45 1384.24 L1613.45 1349.65 L1608.02 1349.65 L1608.02 1349.65  Z" fill="#009af9" fill-rule="evenodd" fill-opacity="1"/>
<polyline clip-path="url(#clip352)" style="stroke:#000000; stroke-linecap:round; stroke-linejoin:round; stroke-width:4; stroke-opacity:1; fill:none" points="1608.02,1349.65 1608.02,1384.24 1613.45,1384.24 1613.45,1349.65 1608.02,1349.65 "/>
<path clip-path="url(#clip352)" d="M1614.82 1349.82 L1614.82 1384.24 L1620.24 1384.24 L1620.24 1349.82 L1614.82 1349.82 L1614.82 1349.82  Z" fill="#009af9" fill-rule="evenodd" fill-opacity="1"/>
<polyline clip-path="url(#clip352)" style="stroke:#000000; stroke-linecap:round; stroke-linejoin:round; stroke-width:4; stroke-opacity:1; fill:none" points="1614.82,1349.82 1614.82,1384.24 1620.24,1384.24 1620.24,1349.82 1614.82,1349.82 "/>
<path clip-path="url(#clip352)" d="M1621.62 1350.01 L1621.62 1384.24 L1627.04 1384.24 L1627.04 1350.01 L1621.62 1350.01 L1621.62 1350.01  Z" fill="#009af9" fill-rule="evenodd" fill-opacity="1"/>
<polyline clip-path="url(#clip352)" style="stroke:#000000; stroke-linecap:round; stroke-linejoin:round; stroke-width:4; stroke-opacity:1; fill:none" points="1621.62,1350.01 1621.62,1384.24 1627.04,1384.24 1627.04,1350.01 1621.62,1350.01 "/>
<path clip-path="url(#clip352)" d="M1628.42 1350.22 L1628.42 1384.24 L1633.84 1384.24 L1633.84 1350.22 L1628.42 1350.22 L1628.42 1350.22  Z" fill="#009af9" fill-rule="evenodd" fill-opacity="1"/>
<polyline clip-path="url(#clip352)" style="stroke:#000000; stroke-linecap:round; stroke-linejoin:round; stroke-width:4; stroke-opacity:1; fill:none" points="1628.42,1350.22 1628.42,1384.24 1633.84,1384.24 1633.84,1350.22 1628.42,1350.22 "/>
<path clip-path="url(#clip352)" d="M1635.22 1350.44 L1635.22 1384.24 L1640.64 1384.24 L1640.64 1350.44 L1635.22 1350.44 L1635.22 1350.44  Z" fill="#009af9" fill-rule="evenodd" fill-opacity="1"/>
<polyline clip-path="url(#clip352)" style="stroke:#000000; stroke-linecap:round; stroke-linejoin:round; stroke-width:4; stroke-opacity:1; fill:none" points="1635.22,1350.44 1635.22,1384.24 1640.64,1384.24 1640.64,1350.44 1635.22,1350.44 "/>
<path clip-path="url(#clip352)" d="M1642.02 1350.69 L1642.02 1384.24 L1647.45 1384.24 L1647.45 1350.69 L1642.02 1350.69 L1642.02 1350.69  Z" fill="#009af9" fill-rule="evenodd" fill-opacity="1"/>
<polyline clip-path="url(#clip352)" style="stroke:#000000; stroke-linecap:round; stroke-linejoin:round; stroke-width:4; stroke-opacity:1; fill:none" points="1642.02,1350.69 1642.02,1384.24 1647.45,1384.24 1647.45,1350.69 1642.02,1350.69 "/>
<path clip-path="url(#clip352)" d="M1648.82 1350.96 L1648.82 1384.24 L1654.25 1384.24 L1654.25 1350.96 L1648.82 1350.96 L1648.82 1350.96  Z" fill="#009af9" fill-rule="evenodd" fill-opacity="1"/>
<polyline clip-path="url(#clip352)" style="stroke:#000000; stroke-linecap:round; stroke-linejoin:round; stroke-width:4; stroke-opacity:1; fill:none" points="1648.82,1350.96 1648.82,1384.24 1654.25,1384.24 1654.25,1350.96 1648.82,1350.96 "/>
<path clip-path="url(#clip352)" d="M1655.63 1351.25 L1655.63 1384.24 L1661.06 1384.24 L1661.06 1351.25 L1655.63 1351.25 L1655.63 1351.25  Z" fill="#009af9" fill-rule="evenodd" fill-opacity="1"/>
<polyline clip-path="url(#clip352)" style="stroke:#000000; stroke-linecap:round; stroke-linejoin:round; stroke-width:4; stroke-opacity:1; fill:none" points="1655.63,1351.25 1655.63,1384.24 1661.06,1384.24 1661.06,1351.25 1655.63,1351.25 "/>
<path clip-path="url(#clip352)" d="M1662.44 1351.58 L1662.44 1384.24 L1667.87 1384.24 L1667.87 1351.58 L1662.44 1351.58 L1662.44 1351.58  Z" fill="#009af9" fill-rule="evenodd" fill-opacity="1"/>
<polyline clip-path="url(#clip352)" style="stroke:#000000; stroke-linecap:round; stroke-linejoin:round; stroke-width:4; stroke-opacity:1; fill:none" points="1662.44,1351.58 1662.44,1384.24 1667.87,1384.24 1667.87,1351.58 1662.44,1351.58 "/>
<path clip-path="url(#clip352)" d="M1669.25 1351.94 L1669.25 1384.24 L1674.68 1384.24 L1674.68 1351.94 L1669.25 1351.94 L1669.25 1351.94  Z" fill="#009af9" fill-rule="evenodd" fill-opacity="1"/>
<polyline clip-path="url(#clip352)" style="stroke:#000000; stroke-linecap:round; stroke-linejoin:round; stroke-width:4; stroke-opacity:1; fill:none" points="1669.25,1351.94 1669.25,1384.24 1674.68,1384.24 1674.68,1351.94 1669.25,1351.94 "/>
<path clip-path="url(#clip352)" d="M1676.07 1352.34 L1676.07 1384.24 L1681.5 1384.24 L1681.5 1352.34 L1676.07 1352.34 L1676.07 1352.34  Z" fill="#009af9" fill-rule="evenodd" fill-opacity="1"/>
<polyline clip-path="url(#clip352)" style="stroke:#000000; stroke-linecap:round; stroke-linejoin:round; stroke-width:4; stroke-opacity:1; fill:none" points="1676.07,1352.34 1676.07,1384.24 1681.5,1384.24 1681.5,1352.34 1676.07,1352.34 "/>
<path clip-path="url(#clip352)" d="M1682.89 1352.78 L1682.89 1384.24 L1688.32 1384.24 L1688.32 1352.78 L1682.89 1352.78 L1682.89 1352.78  Z" fill="#009af9" fill-rule="evenodd" fill-opacity="1"/>
<polyline clip-path="url(#clip352)" style="stroke:#000000; stroke-linecap:round; stroke-linejoin:round; stroke-width:4; stroke-opacity:1; fill:none" points="1682.89,1352.78 1682.89,1384.24 1688.32,1384.24 1688.32,1352.78 1682.89,1352.78 "/>
<path clip-path="url(#clip352)" d="M1689.71 1353.27 L1689.71 1384.24 L1695.14 1384.24 L1695.14 1353.27 L1689.71 1353.27 L1689.71 1353.27  Z" fill="#009af9" fill-rule="evenodd" fill-opacity="1"/>
<polyline clip-path="url(#clip352)" style="stroke:#000000; stroke-linecap:round; stroke-linejoin:round; stroke-width:4; stroke-opacity:1; fill:none" points="1689.71,1353.27 1689.71,1384.24 1695.14,1384.24 1695.14,1353.27 1689.71,1353.27 "/>
<path clip-path="url(#clip352)" d="M1696.54 1353.83 L1696.54 1384.24 L1701.97 1384.24 L1701.97 1353.83 L1696.54 1353.83 L1696.54 1353.83  Z" fill="#009af9" fill-rule="evenodd" fill-opacity="1"/>
<polyline clip-path="url(#clip352)" style="stroke:#000000; stroke-linecap:round; stroke-linejoin:round; stroke-width:4; stroke-opacity:1; fill:none" points="1696.54,1353.83 1696.54,1384.24 1701.97,1384.24 1701.97,1353.83 1696.54,1353.83 "/>
<path clip-path="url(#clip352)" d="M1703.38 1354.47 L1703.38 1384.24 L1708.8 1384.24 L1708.8 1354.47 L1703.38 1354.47 L1703.38 1354.47  Z" fill="#009af9" fill-rule="evenodd" fill-opacity="1"/>
<polyline clip-path="url(#clip352)" style="stroke:#000000; stroke-linecap:round; stroke-linejoin:round; stroke-width:4; stroke-opacity:1; fill:none" points="1703.38,1354.47 1703.38,1384.24 1708.8,1384.24 1708.8,1354.47 1703.38,1354.47 "/>
<path clip-path="url(#clip352)" d="M1710.22 1355.21 L1710.22 1384.24 L1715.65 1384.24 L1715.65 1355.21 L1710.22 1355.21 L1710.22 1355.21  Z" fill="#009af9" fill-rule="evenodd" fill-opacity="1"/>
<polyline clip-path="url(#clip352)" style="stroke:#000000; stroke-linecap:round; stroke-linejoin:round; stroke-width:4; stroke-opacity:1; fill:none" points="1710.22,1355.21 1710.22,1384.24 1715.65,1384.24 1715.65,1355.21 1710.22,1355.21 "/>
<path clip-path="url(#clip352)" d="M1717.08 1356.09 L1717.08 1384.24 L1722.5 1384.24 L1722.5 1356.09 L1717.08 1356.09 L1717.08 1356.09  Z" fill="#009af9" fill-rule="evenodd" fill-opacity="1"/>
<polyline clip-path="url(#clip352)" style="stroke:#000000; stroke-linecap:round; stroke-linejoin:round; stroke-width:4; stroke-opacity:1; fill:none" points="1717.08,1356.09 1717.08,1384.24 1722.5,1384.24 1722.5,1356.09 1717.08,1356.09 "/>
<path clip-path="url(#clip352)" d="M1723.95 1357.14 L1723.95 1384.24 L1729.37 1384.24 L1729.37 1357.14 L1723.95 1357.14 L1723.95 1357.14  Z" fill="#009af9" fill-rule="evenodd" fill-opacity="1"/>
<polyline clip-path="url(#clip352)" style="stroke:#000000; stroke-linecap:round; stroke-linejoin:round; stroke-width:4; stroke-opacity:1; fill:none" points="1723.95,1357.14 1723.95,1384.24 1729.37,1384.24 1729.37,1357.14 1723.95,1357.14 "/>
<path clip-path="url(#clip352)" d="M1730.84 1358.47 L1730.84 1384.24 L1736.26 1384.24 L1736.26 1358.47 L1730.84 1358.47 L1730.84 1358.47  Z" fill="#009af9" fill-rule="evenodd" fill-opacity="1"/>
<polyline clip-path="url(#clip352)" style="stroke:#000000; stroke-linecap:round; stroke-linejoin:round; stroke-width:4; stroke-opacity:1; fill:none" points="1730.84,1358.47 1730.84,1384.24 1736.26,1384.24 1736.26,1358.47 1730.84,1358.47 "/>
<path clip-path="url(#clip352)" d="M1737.77 1360.27 L1737.77 1384.24 L1743.19 1384.24 L1743.19 1360.27 L1737.77 1360.27 L1737.77 1360.27  Z" fill="#009af9" fill-rule="evenodd" fill-opacity="1"/>
<polyline clip-path="url(#clip352)" style="stroke:#000000; stroke-linecap:round; stroke-linejoin:round; stroke-width:4; stroke-opacity:1; fill:none" points="1737.77,1360.27 1737.77,1384.24 1743.19,1384.24 1743.19,1360.27 1737.77,1360.27 "/>
<path clip-path="url(#clip352)" d="M1744.79 1363.14 L1744.79 1384.24 L1750.21 1384.24 L1750.21 1363.14 L1744.79 1363.14 L1744.79 1363.14  Z" fill="#009af9" fill-rule="evenodd" fill-opacity="1"/>
<polyline clip-path="url(#clip352)" style="stroke:#000000; stroke-linecap:round; stroke-linejoin:round; stroke-width:4; stroke-opacity:1; fill:none" points="1744.79,1363.14 1744.79,1384.24 1750.21,1384.24 1750.21,1363.14 1744.79,1363.14 "/>
<path clip-path="url(#clip352)" d="M2230.02 362.984 L2230.02 1384.24 L2235.44 1384.24 L2235.44 362.984 L2230.02 362.984 L2230.02 362.984  Z" fill="#009af9" fill-rule="evenodd" fill-opacity="1"/>
<polyline clip-path="url(#clip352)" style="stroke:#000000; stroke-linecap:round; stroke-linejoin:round; stroke-width:4; stroke-opacity:1; fill:none" points="2230.02,362.984 2230.02,1384.24 2235.44,1384.24 2235.44,362.984 2230.02,362.984 "/>
<circle clip-path="url(#clip352)" style="fill:#009af9; stroke:none; fill-opacity:0" cx="339.892" cy="86.1857" r="2"/>
<circle clip-path="url(#clip352)" style="fill:#009af9; stroke:none; fill-opacity:0" cx="1080.82" cy="1370.47" r="2"/>
<circle clip-path="url(#clip352)" style="fill:#009af9; stroke:none; fill-opacity:0" cx="1087.75" cy="1366.09" r="2"/>
<circle clip-path="url(#clip352)" style="fill:#009af9; stroke:none; fill-opacity:0" cx="1094.63" cy="1363.78" r="2"/>
<circle clip-path="url(#clip352)" style="fill:#009af9; stroke:none; fill-opacity:0" cx="1101.48" cy="1362.12" r="2"/>
<circle clip-path="url(#clip352)" style="fill:#009af9; stroke:none; fill-opacity:0" cx="1108.31" cy="1360.82" r="2"/>
<circle clip-path="url(#clip352)" style="fill:#009af9; stroke:none; fill-opacity:0" cx="1115.14" cy="1359.74" r="2"/>
<circle clip-path="url(#clip352)" style="fill:#009af9; stroke:none; fill-opacity:0" cx="1121.96" cy="1358.82" r="2"/>
<circle clip-path="url(#clip352)" style="fill:#009af9; stroke:none; fill-opacity:0" cx="1128.77" cy="1358.01" r="2"/>
<circle clip-path="url(#clip352)" style="fill:#009af9; stroke:none; fill-opacity:0" cx="1135.59" cy="1357.3" r="2"/>
<circle clip-path="url(#clip352)" style="fill:#009af9; stroke:none; fill-opacity:0" cx="1142.39" cy="1356.66" r="2"/>
<circle clip-path="url(#clip352)" style="fill:#009af9; stroke:none; fill-opacity:0" cx="1149.2" cy="1356.09" r="2"/>
<circle clip-path="url(#clip352)" style="fill:#009af9; stroke:none; fill-opacity:0" cx="1156" cy="1355.56" r="2"/>
<circle clip-path="url(#clip352)" style="fill:#009af9; stroke:none; fill-opacity:0" cx="1162.8" cy="1355.08" r="2"/>
<circle clip-path="url(#clip352)" style="fill:#009af9; stroke:none; fill-opacity:0" cx="1169.6" cy="1354.63" r="2"/>
<circle clip-path="url(#clip352)" style="fill:#009af9; stroke:none; fill-opacity:0" cx="1176.4" cy="1354.22" r="2"/>
<circle clip-path="url(#clip352)" style="fill:#009af9; stroke:none; fill-opacity:0" cx="1183.19" cy="1353.84" r="2"/>
<circle clip-path="url(#clip352)" style="fill:#009af9; stroke:none; fill-opacity:0" cx="1189.99" cy="1353.48" r="2"/>
<circle clip-path="url(#clip352)" style="fill:#009af9; stroke:none; fill-opacity:0" cx="1196.78" cy="1353.15" r="2"/>
<circle clip-path="url(#clip352)" style="fill:#009af9; stroke:none; fill-opacity:0" cx="1203.57" cy="1352.83" r="2"/>
<circle clip-path="url(#clip352)" style="fill:#009af9; stroke:none; fill-opacity:0" cx="1210.37" cy="1352.54" r="2"/>
<circle clip-path="url(#clip352)" style="fill:#009af9; stroke:none; fill-opacity:0" cx="1217.16" cy="1352.26" r="2"/>
<circle clip-path="url(#clip352)" style="fill:#009af9; stroke:none; fill-opacity:0" cx="1223.95" cy="1352" r="2"/>
<circle clip-path="url(#clip352)" style="fill:#009af9; stroke:none; fill-opacity:0" cx="1230.73" cy="1351.76" r="2"/>
<circle clip-path="url(#clip352)" style="fill:#009af9; stroke:none; fill-opacity:0" cx="1237.52" cy="1351.53" r="2"/>
<circle clip-path="url(#clip352)" style="fill:#009af9; stroke:none; fill-opacity:0" cx="1244.31" cy="1351.31" r="2"/>
<circle clip-path="url(#clip352)" style="fill:#009af9; stroke:none; fill-opacity:0" cx="1251.1" cy="1351.1" r="2"/>
<circle clip-path="url(#clip352)" style="fill:#009af9; stroke:none; fill-opacity:0" cx="1257.89" cy="1350.9" r="2"/>
<circle clip-path="url(#clip352)" style="fill:#009af9; stroke:none; fill-opacity:0" cx="1264.67" cy="1350.72" r="2"/>
<circle clip-path="url(#clip352)" style="fill:#009af9; stroke:none; fill-opacity:0" cx="1271.46" cy="1350.54" r="2"/>
<circle clip-path="url(#clip352)" style="fill:#009af9; stroke:none; fill-opacity:0" cx="1278.24" cy="1350.37" r="2"/>
<circle clip-path="url(#clip352)" style="fill:#009af9; stroke:none; fill-opacity:0" cx="1285.03" cy="1350.21" r="2"/>
<circle clip-path="url(#clip352)" style="fill:#009af9; stroke:none; fill-opacity:0" cx="1291.81" cy="1350.06" r="2"/>
<circle clip-path="url(#clip352)" style="fill:#009af9; stroke:none; fill-opacity:0" cx="1298.6" cy="1349.92" r="2"/>
<circle clip-path="url(#clip352)" style="fill:#009af9; stroke:none; fill-opacity:0" cx="1305.38" cy="1349.79" r="2"/>
<circle clip-path="url(#clip352)" style="fill:#009af9; stroke:none; fill-opacity:0" cx="1312.16" cy="1349.66" r="2"/>
<circle clip-path="url(#clip352)" style="fill:#009af9; stroke:none; fill-opacity:0" cx="1318.95" cy="1349.54" r="2"/>
<circle clip-path="url(#clip352)" style="fill:#009af9; stroke:none; fill-opacity:0" cx="1325.73" cy="1349.42" r="2"/>
<circle clip-path="url(#clip352)" style="fill:#009af9; stroke:none; fill-opacity:0" cx="1332.52" cy="1349.31" r="2"/>
<circle clip-path="url(#clip352)" style="fill:#009af9; stroke:none; fill-opacity:0" cx="1339.3" cy="1349.21" r="2"/>
<circle clip-path="url(#clip352)" style="fill:#009af9; stroke:none; fill-opacity:0" cx="1346.08" cy="1349.11" r="2"/>
<circle clip-path="url(#clip352)" style="fill:#009af9; stroke:none; fill-opacity:0" cx="1352.86" cy="1349.02" r="2"/>
<circle clip-path="url(#clip352)" style="fill:#009af9; stroke:none; fill-opacity:0" cx="1359.65" cy="1348.94" r="2"/>
<circle clip-path="url(#clip352)" style="fill:#009af9; stroke:none; fill-opacity:0" cx="1366.43" cy="1348.86" r="2"/>
<circle clip-path="url(#clip352)" style="fill:#009af9; stroke:none; fill-opacity:0" cx="1373.21" cy="1348.78" r="2"/>
<circle clip-path="url(#clip352)" style="fill:#009af9; stroke:none; fill-opacity:0" cx="1380" cy="1348.71" r="2"/>
<circle clip-path="url(#clip352)" style="fill:#009af9; stroke:none; fill-opacity:0" cx="1386.78" cy="1348.65" r="2"/>
<circle clip-path="url(#clip352)" style="fill:#009af9; stroke:none; fill-opacity:0" cx="1393.56" cy="1348.59" r="2"/>
<circle clip-path="url(#clip352)" style="fill:#009af9; stroke:none; fill-opacity:0" cx="1400.34" cy="1348.53" r="2"/>
<circle clip-path="url(#clip352)" style="fill:#009af9; stroke:none; fill-opacity:0" cx="1407.13" cy="1348.48" r="2"/>
<circle clip-path="url(#clip352)" style="fill:#009af9; stroke:none; fill-opacity:0" cx="1413.91" cy="1348.44" r="2"/>
<circle clip-path="url(#clip352)" style="fill:#009af9; stroke:none; fill-opacity:0" cx="1420.69" cy="1348.4" r="2"/>
<circle clip-path="url(#clip352)" style="fill:#009af9; stroke:none; fill-opacity:0" cx="1427.47" cy="1348.36" r="2"/>
<circle clip-path="url(#clip352)" style="fill:#009af9; stroke:none; fill-opacity:0" cx="1434.26" cy="1348.33" r="2"/>
<circle clip-path="url(#clip352)" style="fill:#009af9; stroke:none; fill-opacity:0" cx="1441.04" cy="1348.31" r="2"/>
<circle clip-path="url(#clip352)" style="fill:#009af9; stroke:none; fill-opacity:0" cx="1447.82" cy="1348.29" r="2"/>
<circle clip-path="url(#clip352)" style="fill:#009af9; stroke:none; fill-opacity:0" cx="1454.61" cy="1348.27" r="2"/>
<circle clip-path="url(#clip352)" style="fill:#009af9; stroke:none; fill-opacity:0" cx="1461.39" cy="1348.26" r="2"/>
<circle clip-path="url(#clip352)" style="fill:#009af9; stroke:none; fill-opacity:0" cx="1468.17" cy="1348.26" r="2"/>
<circle clip-path="url(#clip352)" style="fill:#009af9; stroke:none; fill-opacity:0" cx="1474.96" cy="1348.25" r="2"/>
<circle clip-path="url(#clip352)" style="fill:#009af9; stroke:none; fill-opacity:0" cx="1481.74" cy="1348.26" r="2"/>
<circle clip-path="url(#clip352)" style="fill:#009af9; stroke:none; fill-opacity:0" cx="1488.53" cy="1348.27" r="2"/>
<circle clip-path="url(#clip352)" style="fill:#009af9; stroke:none; fill-opacity:0" cx="1495.31" cy="1348.28" r="2"/>
<circle clip-path="url(#clip352)" style="fill:#009af9; stroke:none; fill-opacity:0" cx="1502.1" cy="1348.31" r="2"/>
<circle clip-path="url(#clip352)" style="fill:#009af9; stroke:none; fill-opacity:0" cx="1508.88" cy="1348.33" r="2"/>
<circle clip-path="url(#clip352)" style="fill:#009af9; stroke:none; fill-opacity:0" cx="1515.67" cy="1348.37" r="2"/>
<circle clip-path="url(#clip352)" style="fill:#009af9; stroke:none; fill-opacity:0" cx="1522.46" cy="1348.4" r="2"/>
<circle clip-path="url(#clip352)" style="fill:#009af9; stroke:none; fill-opacity:0" cx="1529.24" cy="1348.45" r="2"/>
<circle clip-path="url(#clip352)" style="fill:#009af9; stroke:none; fill-opacity:0" cx="1536.03" cy="1348.5" r="2"/>
<circle clip-path="url(#clip352)" style="fill:#009af9; stroke:none; fill-opacity:0" cx="1542.82" cy="1348.56" r="2"/>
<circle clip-path="url(#clip352)" style="fill:#009af9; stroke:none; fill-opacity:0" cx="1549.61" cy="1348.63" r="2"/>
<circle clip-path="url(#clip352)" style="fill:#009af9; stroke:none; fill-opacity:0" cx="1556.39" cy="1348.7" r="2"/>
<circle clip-path="url(#clip352)" style="fill:#009af9; stroke:none; fill-opacity:0" cx="1563.18" cy="1348.79" r="2"/>
<circle clip-path="url(#clip352)" style="fill:#009af9; stroke:none; fill-opacity:0" cx="1569.97" cy="1348.88" r="2"/>
<circle clip-path="url(#clip352)" style="fill:#009af9; stroke:none; fill-opacity:0" cx="1576.77" cy="1348.98" r="2"/>
<circle clip-path="url(#clip352)" style="fill:#009af9; stroke:none; fill-opacity:0" cx="1583.56" cy="1349.09" r="2"/>
<circle clip-path="url(#clip352)" style="fill:#009af9; stroke:none; fill-opacity:0" cx="1590.35" cy="1349.21" r="2"/>
<circle clip-path="url(#clip352)" style="fill:#009af9; stroke:none; fill-opacity:0" cx="1597.14" cy="1349.35" r="2"/>
<circle clip-path="url(#clip352)" style="fill:#009af9; stroke:none; fill-opacity:0" cx="1603.94" cy="1349.49" r="2"/>
<circle clip-path="url(#clip352)" style="fill:#009af9; stroke:none; fill-opacity:0" cx="1610.73" cy="1349.65" r="2"/>
<circle clip-path="url(#clip352)" style="fill:#009af9; stroke:none; fill-opacity:0" cx="1617.53" cy="1349.82" r="2"/>
<circle clip-path="url(#clip352)" style="fill:#009af9; stroke:none; fill-opacity:0" cx="1624.33" cy="1350.01" r="2"/>
<circle clip-path="url(#clip352)" style="fill:#009af9; stroke:none; fill-opacity:0" cx="1631.13" cy="1350.22" r="2"/>
<circle clip-path="url(#clip352)" style="fill:#009af9; stroke:none; fill-opacity:0" cx="1637.93" cy="1350.44" r="2"/>
<circle clip-path="url(#clip352)" style="fill:#009af9; stroke:none; fill-opacity:0" cx="1644.73" cy="1350.69" r="2"/>
<circle clip-path="url(#clip352)" style="fill:#009af9; stroke:none; fill-opacity:0" cx="1651.54" cy="1350.96" r="2"/>
<circle clip-path="url(#clip352)" style="fill:#009af9; stroke:none; fill-opacity:0" cx="1658.34" cy="1351.25" r="2"/>
<circle clip-path="url(#clip352)" style="fill:#009af9; stroke:none; fill-opacity:0" cx="1665.15" cy="1351.58" r="2"/>
<circle clip-path="url(#clip352)" style="fill:#009af9; stroke:none; fill-opacity:0" cx="1671.97" cy="1351.94" r="2"/>
<circle clip-path="url(#clip352)" style="fill:#009af9; stroke:none; fill-opacity:0" cx="1678.78" cy="1352.34" r="2"/>
<circle clip-path="url(#clip352)" style="fill:#009af9; stroke:none; fill-opacity:0" cx="1685.6" cy="1352.78" r="2"/>
<circle clip-path="url(#clip352)" style="fill:#009af9; stroke:none; fill-opacity:0" cx="1692.43" cy="1353.27" r="2"/>
<circle clip-path="url(#clip352)" style="fill:#009af9; stroke:none; fill-opacity:0" cx="1699.26" cy="1353.83" r="2"/>
<circle clip-path="url(#clip352)" style="fill:#009af9; stroke:none; fill-opacity:0" cx="1706.09" cy="1354.47" r="2"/>
<circle clip-path="url(#clip352)" style="fill:#009af9; stroke:none; fill-opacity:0" cx="1712.93" cy="1355.21" r="2"/>
<circle clip-path="url(#clip352)" style="fill:#009af9; stroke:none; fill-opacity:0" cx="1719.79" cy="1356.09" r="2"/>
<circle clip-path="url(#clip352)" style="fill:#009af9; stroke:none; fill-opacity:0" cx="1726.66" cy="1357.14" r="2"/>
<circle clip-path="url(#clip352)" style="fill:#009af9; stroke:none; fill-opacity:0" cx="1733.55" cy="1358.47" r="2"/>
<circle clip-path="url(#clip352)" style="fill:#009af9; stroke:none; fill-opacity:0" cx="1740.48" cy="1360.27" r="2"/>
<circle clip-path="url(#clip352)" style="fill:#009af9; stroke:none; fill-opacity:0" cx="1747.5" cy="1363.14" r="2"/>
<circle clip-path="url(#clip352)" style="fill:#009af9; stroke:none; fill-opacity:0" cx="2232.73" cy="362.984" r="2"/>
<path clip-path="url(#clip350)" d="M2015.94 196.789 L2281.66 196.789 L2281.66 93.1086 L2015.94 93.1086  Z" fill="#ffffff" fill-rule="evenodd" fill-opacity="1"/>
<polyline clip-path="url(#clip350)" style="stroke:#000000; stroke-linecap:round; stroke-linejoin:round; stroke-width:4; stroke-opacity:1; fill:none" points="2015.94,196.789 2281.66,196.789 2281.66,93.1086 2015.94,93.1086 2015.94,196.789 "/>
<path clip-path="url(#clip350)" d="M2039.64 165.685 L2181.83 165.685 L2181.83 124.213 L2039.64 124.213 L2039.64 165.685  Z" fill="#009af9" fill-rule="evenodd" fill-opacity="1"/>
<polyline clip-path="url(#clip350)" style="stroke:#000000; stroke-linecap:round; stroke-linejoin:round; stroke-width:4; stroke-opacity:1; fill:none" points="2039.64,165.685 2181.83,165.685 2181.83,124.213 2039.64,124.213 2039.64,165.685 "/>
<path clip-path="url(#clip350)" d="M2219.37 164.636 Q2217.57 169.266 2215.85 170.678 Q2214.14 172.09 2211.27 172.09 L2207.87 172.09 L2207.87 168.525 L2210.37 168.525 Q2212.13 168.525 2213.1 167.692 Q2214.07 166.858 2215.25 163.756 L2216.02 161.812 L2205.53 136.303 L2210.04 136.303 L2218.15 156.581 L2226.25 136.303 L2230.76 136.303 L2219.37 164.636 Z" fill="#000000" fill-rule="evenodd" fill-opacity="1" /><path clip-path="url(#clip350)" d="M2238.05 158.293 L2245.69 158.293 L2245.69 131.928 L2237.38 133.595 L2237.38 129.335 L2245.65 127.669 L2250.32 127.669 L2250.32 158.293 L2257.96 158.293 L2257.96 162.229 L2238.05 162.229 L2238.05 158.293 Z" fill="#000000" fill-rule="evenodd" fill-opacity="1" /></svg>
