<?xml version="1.0" encoding="utf-8"?>
<svg xmlns="http://www.w3.org/2000/svg" xmlns:xlink="http://www.w3.org/1999/xlink" width="600" height="400" viewBox="0 0 2400 1600">
<defs>
  <clipPath id="clip410">
    <rect x="0" y="0" width="2400" height="1600"/>
  </clipPath>
</defs>
<path clip-path="url(#clip410)" d="M0 1600 L2400 1600 L2400 0 L0 0  Z" fill="#ffffff" fill-rule="evenodd" fill-opacity="1"/>
<defs>
  <clipPath id="clip411">
    <rect x="480" y="0" width="1681" height="1600"/>
  </clipPath>
</defs>
<defs>
  <clipPath id="clip412">
    <rect x="186" y="123" width="2167" height="1301"/>
  </clipPath>
</defs>
<path clip-path="url(#clip410)" d="M186.274 1423.18 L2352.76 1423.18 L2352.76 123.472 L186.274 123.472  Z" fill="#ffffff" fill-rule="evenodd" fill-opacity="1"/>
<polyline clip-path="url(#clip412)" style="stroke:#000000; stroke-linecap:round; stroke-linejoin:round; stroke-width:2; stroke-opacity:0.1; fill:none" points="247.59,1423.18 247.59,123.472 "/>
<polyline clip-path="url(#clip412)" style="stroke:#000000; stroke-linecap:round; stroke-linejoin:round; stroke-width:2; stroke-opacity:0.1; fill:none" points="789.738,1423.18 789.738,123.472 "/>
<polyline clip-path="url(#clip412)" style="stroke:#000000; stroke-linecap:round; stroke-linejoin:round; stroke-width:2; stroke-opacity:0.1; fill:none" points="1331.89,1423.18 1331.89,123.472 "/>
<polyline clip-path="url(#clip412)" style="stroke:#000000; stroke-linecap:round; stroke-linejoin:round; stroke-width:2; stroke-opacity:0.1; fill:none" points="1874.03,1423.18 1874.03,123.472 "/>
<polyline clip-path="url(#clip410)" style="stroke:#000000; stroke-linecap:round; stroke-linejoin:round; stroke-width:4; stroke-opacity:1; fill:none" points="186.274,1423.18 2352.76,1423.18 "/>
<polyline clip-path="url(#clip410)" style="stroke:#000000; stroke-linecap:round; stroke-linejoin:round; stroke-width:4; stroke-opacity:1; fill:none" points="247.59,1423.18 247.59,1404.28 "/>
<polyline clip-path="url(#clip410)" style="stroke:#000000; stroke-linecap:round; stroke-linejoin:round; stroke-width:4; stroke-opacity:1; fill:none" points="789.738,1423.18 789.738,1404.28 "/>
<polyline clip-path="url(#clip410)" style="stroke:#000000; stroke-linecap:round; stroke-linejoin:round; stroke-width:4; stroke-opacity:1; fill:none" points="1331.89,1423.18 1331.89,1404.28 "/>
<polyline clip-path="url(#clip410)" style="stroke:#000000; stroke-linecap:round; stroke-linejoin:round; stroke-width:4; stroke-opacity:1; fill:none" points="1874.03,1423.18 1874.03,1404.28 "/>
<path clip-path="url(#clip410)" d="M247.59 1454.1 Q243.978 1454.1 242.15 1457.66 Q240.344 1461.2 240.344 1468.33 Q240.344 1475.44 242.15 1479.01 Q243.978 1482.55 247.59 1482.55 Q251.224 1482.55 253.029 1479.01 Q254.858 1475.44 254.858 1468.33 Q254.858 1461.2 253.029 1457.66 Q251.224 1454.1 247.59 1454.1 M247.59 1450.39 Q253.4 1450.39 256.455 1455 Q259.534 1459.58 259.534 1468.33 Q259.534 1477.06 256.455 1481.67 Q253.4 1486.25 247.59 1486.25 Q241.779 1486.25 238.701 1481.67 Q235.645 1477.06 235.645 1468.33 Q235.645 1459.58 238.701 1455 Q241.779 1450.39 247.59 1450.39 Z" fill="#000000" fill-rule="evenodd" fill-opacity="1" /><path clip-path="url(#clip410)" d="M738.349 1481.64 L754.669 1481.64 L754.669 1485.58 L732.724 1485.58 L732.724 1481.64 Q735.386 1478.89 739.97 1474.26 Q744.576 1469.61 745.757 1468.27 Q748.002 1465.74 748.882 1464.01 Q749.784 1462.25 749.784 1460.56 Q749.784 1457.8 747.84 1456.07 Q745.919 1454.33 742.817 1454.33 Q740.618 1454.33 738.164 1455.09 Q735.733 1455.86 732.956 1457.41 L732.956 1452.69 Q735.78 1451.55 738.233 1450.97 Q740.687 1450.39 742.724 1450.39 Q748.095 1450.39 751.289 1453.08 Q754.483 1455.77 754.483 1460.26 Q754.483 1462.39 753.673 1464.31 Q752.886 1466.2 750.78 1468.8 Q750.201 1469.47 747.099 1472.69 Q743.997 1475.88 738.349 1481.64 Z" fill="#000000" fill-rule="evenodd" fill-opacity="1" /><path clip-path="url(#clip410)" d="M774.483 1454.1 Q770.872 1454.1 769.043 1457.66 Q767.238 1461.2 767.238 1468.33 Q767.238 1475.44 769.043 1479.01 Q770.872 1482.55 774.483 1482.55 Q778.117 1482.55 779.923 1479.01 Q781.752 1475.44 781.752 1468.33 Q781.752 1461.2 779.923 1457.66 Q778.117 1454.1 774.483 1454.1 M774.483 1450.39 Q780.293 1450.39 783.349 1455 Q786.428 1459.58 786.428 1468.33 Q786.428 1477.06 783.349 1481.67 Q780.293 1486.25 774.483 1486.25 Q768.673 1486.25 765.594 1481.67 Q762.539 1477.06 762.539 1468.33 Q762.539 1459.58 765.594 1455 Q768.673 1450.39 774.483 1450.39 Z" fill="#000000" fill-rule="evenodd" fill-opacity="1" /><path clip-path="url(#clip410)" d="M804.645 1454.1 Q801.034 1454.1 799.205 1457.66 Q797.4 1461.2 797.4 1468.33 Q797.4 1475.44 799.205 1479.01 Q801.034 1482.55 804.645 1482.55 Q808.279 1482.55 810.085 1479.01 Q811.914 1475.44 811.914 1468.33 Q811.914 1461.2 810.085 1457.66 Q808.279 1454.1 804.645 1454.1 M804.645 1450.39 Q810.455 1450.39 813.511 1455 Q816.59 1459.58 816.59 1468.33 Q816.59 1477.06 813.511 1481.67 Q810.455 1486.25 804.645 1486.25 Q798.835 1486.25 795.756 1481.67 Q792.701 1477.06 792.701 1468.33 Q792.701 1459.58 795.756 1455 Q798.835 1450.39 804.645 1450.39 Z" fill="#000000" fill-rule="evenodd" fill-opacity="1" /><path clip-path="url(#clip410)" d="M834.807 1454.1 Q831.196 1454.1 829.367 1457.66 Q827.562 1461.2 827.562 1468.33 Q827.562 1475.44 829.367 1479.01 Q831.196 1482.55 834.807 1482.55 Q838.441 1482.55 840.247 1479.01 Q842.075 1475.44 842.075 1468.33 Q842.075 1461.2 840.247 1457.66 Q838.441 1454.1 834.807 1454.1 M834.807 1450.39 Q840.617 1450.39 843.673 1455 Q846.751 1459.58 846.751 1468.33 Q846.751 1477.06 843.673 1481.67 Q840.617 1486.25 834.807 1486.25 Q828.997 1486.25 825.918 1481.67 Q822.863 1477.06 822.863 1468.33 Q822.863 1459.58 825.918 1455 Q828.997 1450.39 834.807 1450.39 Z" fill="#000000" fill-rule="evenodd" fill-opacity="1" /><path clip-path="url(#clip410)" d="M1289.9 1455.09 L1278.09 1473.54 L1289.9 1473.54 L1289.9 1455.09 M1288.67 1451.02 L1294.55 1451.02 L1294.55 1473.54 L1299.48 1473.54 L1299.48 1477.43 L1294.55 1477.43 L1294.55 1485.58 L1289.9 1485.58 L1289.9 1477.43 L1274.29 1477.43 L1274.29 1472.92 L1288.67 1451.02 Z" fill="#000000" fill-rule="evenodd" fill-opacity="1" /><path clip-path="url(#clip410)" d="M1317.21 1454.1 Q1313.6 1454.1 1311.77 1457.66 Q1309.96 1461.2 1309.96 1468.33 Q1309.96 1475.44 1311.77 1479.01 Q1313.6 1482.55 1317.21 1482.55 Q1320.84 1482.55 1322.65 1479.01 Q1324.48 1475.44 1324.48 1468.33 Q1324.48 1461.2 1322.65 1457.66 Q1320.84 1454.1 1317.21 1454.1 M1317.21 1450.39 Q1323.02 1450.39 1326.08 1455 Q1329.15 1459.58 1329.15 1468.33 Q1329.15 1477.06 1326.08 1481.67 Q1323.02 1486.25 1317.21 1486.25 Q1311.4 1486.25 1308.32 1481.67 Q1305.27 1477.06 1305.27 1468.33 Q1305.27 1459.58 1308.32 1455 Q1311.4 1450.39 1317.21 1450.39 Z" fill="#000000" fill-rule="evenodd" fill-opacity="1" /><path clip-path="url(#clip410)" d="M1347.37 1454.1 Q1343.76 1454.1 1341.93 1457.66 Q1340.13 1461.2 1340.13 1468.33 Q1340.13 1475.44 1341.93 1479.01 Q1343.76 1482.55 1347.37 1482.55 Q1351.01 1482.55 1352.81 1479.01 Q1354.64 1475.44 1354.64 1468.33 Q1354.64 1461.2 1352.81 1457.66 Q1351.01 1454.1 1347.37 1454.1 M1347.37 1450.39 Q1353.18 1450.39 1356.24 1455 Q1359.32 1459.58 1359.32 1468.33 Q1359.32 1477.06 1356.24 1481.67 Q1353.18 1486.25 1347.37 1486.25 Q1341.56 1486.25 1338.48 1481.67 Q1335.43 1477.06 1335.43 1468.33 Q1335.43 1459.58 1338.48 1455 Q1341.56 1450.39 1347.37 1450.39 Z" fill="#000000" fill-rule="evenodd" fill-opacity="1" /><path clip-path="url(#clip410)" d="M1377.53 1454.1 Q1373.92 1454.1 1372.09 1457.66 Q1370.29 1461.2 1370.29 1468.33 Q1370.29 1475.44 1372.09 1479.01 Q1373.92 1482.55 1377.53 1482.55 Q1381.17 1482.55 1382.97 1479.01 Q1384.8 1475.44 1384.8 1468.33 Q1384.8 1461.2 1382.97 1457.66 Q1381.17 1454.1 1377.53 1454.1 M1377.53 1450.39 Q1383.34 1450.39 1386.4 1455 Q1389.48 1459.58 1389.48 1468.33 Q1389.48 1477.06 1386.4 1481.67 Q1383.34 1486.25 1377.53 1486.25 Q1371.72 1486.25 1368.65 1481.67 Q1365.59 1477.06 1365.59 1468.33 Q1365.59 1459.58 1368.65 1455 Q1371.72 1450.39 1377.53 1450.39 Z" fill="#000000" fill-rule="evenodd" fill-opacity="1" /><path clip-path="url(#clip410)" d="M1829.28 1466.44 Q1826.13 1466.44 1824.28 1468.59 Q1822.45 1470.74 1822.45 1474.49 Q1822.45 1478.22 1824.28 1480.39 Q1826.13 1482.55 1829.28 1482.55 Q1832.43 1482.55 1834.25 1480.39 Q1836.11 1478.22 1836.11 1474.49 Q1836.11 1470.74 1834.25 1468.59 Q1832.43 1466.44 1829.28 1466.44 M1838.56 1451.78 L1838.56 1456.04 Q1836.8 1455.21 1835 1454.77 Q1833.21 1454.33 1831.45 1454.33 Q1826.82 1454.33 1824.37 1457.45 Q1821.94 1460.58 1821.59 1466.9 Q1822.96 1464.89 1825.02 1463.82 Q1827.08 1462.73 1829.56 1462.73 Q1834.76 1462.73 1837.77 1465.9 Q1840.81 1469.05 1840.81 1474.49 Q1840.81 1479.82 1837.66 1483.03 Q1834.51 1486.25 1829.28 1486.25 Q1823.28 1486.25 1820.11 1481.67 Q1816.94 1477.06 1816.94 1468.33 Q1816.94 1460.14 1820.83 1455.28 Q1824.72 1450.39 1831.27 1450.39 Q1833.03 1450.39 1834.81 1450.74 Q1836.62 1451.09 1838.56 1451.78 Z" fill="#000000" fill-rule="evenodd" fill-opacity="1" /><path clip-path="url(#clip410)" d="M1858.86 1454.1 Q1855.25 1454.1 1853.42 1457.66 Q1851.62 1461.2 1851.62 1468.33 Q1851.62 1475.44 1853.42 1479.01 Q1855.25 1482.55 1858.86 1482.55 Q1862.5 1482.55 1864.3 1479.01 Q1866.13 1475.44 1866.13 1468.33 Q1866.13 1461.2 1864.3 1457.66 Q1862.5 1454.1 1858.86 1454.1 M1858.86 1450.39 Q1864.67 1450.39 1867.73 1455 Q1870.81 1459.58 1870.81 1468.33 Q1870.81 1477.06 1867.73 1481.67 Q1864.67 1486.25 1858.86 1486.25 Q1853.05 1486.25 1849.97 1481.67 Q1846.92 1477.06 1846.92 1468.33 Q1846.92 1459.58 1849.97 1455 Q1853.05 1450.39 1858.86 1450.39 Z" fill="#000000" fill-rule="evenodd" fill-opacity="1" /><path clip-path="url(#clip410)" d="M1889.02 1454.1 Q1885.41 1454.1 1883.58 1457.66 Q1881.78 1461.2 1881.78 1468.33 Q1881.78 1475.44 1883.58 1479.01 Q1885.41 1482.55 1889.02 1482.55 Q1892.66 1482.55 1894.46 1479.01 Q1896.29 1475.44 1896.29 1468.33 Q1896.29 1461.2 1894.46 1457.66 Q1892.66 1454.1 1889.02 1454.1 M1889.02 1450.39 Q1894.83 1450.39 1897.89 1455 Q1900.97 1459.58 1900.97 1468.33 Q1900.97 1477.06 1897.89 1481.67 Q1894.83 1486.25 1889.02 1486.25 Q1883.21 1486.25 1880.13 1481.67 Q1877.08 1477.06 1877.08 1468.33 Q1877.08 1459.58 1880.13 1455 Q1883.21 1450.39 1889.02 1450.39 Z" fill="#000000" fill-rule="evenodd" fill-opacity="1" /><path clip-path="url(#clip410)" d="M1919.18 1454.1 Q1915.57 1454.1 1913.74 1457.66 Q1911.94 1461.2 1911.94 1468.33 Q1911.94 1475.44 1913.74 1479.01 Q1915.57 1482.55 1919.18 1482.55 Q1922.82 1482.55 1924.62 1479.01 Q1926.45 1475.44 1926.45 1468.33 Q1926.45 1461.2 1924.62 1457.66 Q1922.82 1454.1 1919.18 1454.1 M1919.18 1450.39 Q1924.99 1450.39 1928.05 1455 Q1931.13 1459.58 1931.13 1468.33 Q1931.13 1477.06 1928.05 1481.67 Q1924.99 1486.25 1919.18 1486.25 Q1913.37 1486.25 1910.3 1481.67 Q1907.24 1477.06 1907.24 1468.33 Q1907.24 1459.58 1910.3 1455 Q1913.37 1450.39 1919.18 1450.39 Z" fill="#000000" fill-rule="evenodd" fill-opacity="1" /><path clip-path="url(#clip410)" d="M1268.58 1522.27 L1268.58 1532.4 L1280.64 1532.4 L1280.64 1536.95 L1268.58 1536.95 L1268.58 1556.3 Q1268.58 1560.66 1269.75 1561.9 Q1270.96 1563.14 1274.62 1563.14 L1280.64 1563.14 L1280.64 1568.04 L1274.62 1568.04 Q1267.84 1568.04 1265.27 1565.53 Q1262.69 1562.98 1262.69 1556.3 L1262.69 1536.95 L1258.39 1536.95 L1258.39 1532.4 L1262.69 1532.4 L1262.69 1522.27 L1268.58 1522.27 Z" fill="#000000" fill-rule="evenodd" fill-opacity="1" /><polyline clip-path="url(#clip412)" style="stroke:#000000; stroke-linecap:round; stroke-linejoin:round; stroke-width:2; stroke-opacity:0.1; fill:none" points="186.274,1386.4 2352.76,1386.4 "/>
<polyline clip-path="url(#clip412)" style="stroke:#000000; stroke-linecap:round; stroke-linejoin:round; stroke-width:2; stroke-opacity:0.1; fill:none" points="186.274,1001.19 2352.76,1001.19 "/>
<polyline clip-path="url(#clip412)" style="stroke:#000000; stroke-linecap:round; stroke-linejoin:round; stroke-width:2; stroke-opacity:0.1; fill:none" points="186.274,615.99 2352.76,615.99 "/>
<polyline clip-path="url(#clip412)" style="stroke:#000000; stroke-linecap:round; stroke-linejoin:round; stroke-width:2; stroke-opacity:0.1; fill:none" points="186.274,230.787 2352.76,230.787 "/>
<polyline clip-path="url(#clip410)" style="stroke:#000000; stroke-linecap:round; stroke-linejoin:round; stroke-width:4; stroke-opacity:1; fill:none" points="186.274,1423.18 186.274,123.472 "/>
<polyline clip-path="url(#clip410)" style="stroke:#000000; stroke-linecap:round; stroke-linejoin:round; stroke-width:4; stroke-opacity:1; fill:none" points="186.274,1386.4 205.172,1386.4 "/>
<polyline clip-path="url(#clip410)" style="stroke:#000000; stroke-linecap:round; stroke-linejoin:round; stroke-width:4; stroke-opacity:1; fill:none" points="186.274,1001.19 205.172,1001.19 "/>
<polyline clip-path="url(#clip410)" style="stroke:#000000; stroke-linecap:round; stroke-linejoin:round; stroke-width:4; stroke-opacity:1; fill:none" points="186.274,615.99 205.172,615.99 "/>
<polyline clip-path="url(#clip410)" style="stroke:#000000; stroke-linecap:round; stroke-linejoin:round; stroke-width:4; stroke-opacity:1; fill:none" points="186.274,230.787 205.172,230.787 "/>
<path clip-path="url(#clip410)" d="M62.9365 1372.19 Q59.3254 1372.19 57.4967 1375.76 Q55.6912 1379.3 55.6912 1386.43 Q55.6912 1393.54 57.4967 1397.1 Q59.3254 1400.64 62.9365 1400.64 Q66.5707 1400.64 68.3763 1397.1 Q70.205 1393.54 70.205 1386.43 Q70.205 1379.3 68.3763 1375.76 Q66.5707 1372.19 62.9365 1372.19 M62.9365 1368.49 Q68.7467 1368.49 71.8022 1373.1 Q74.8809 1377.68 74.8809 1386.43 Q74.8809 1395.16 71.8022 1399.76 Q68.7467 1404.35 62.9365 1404.35 Q57.1264 1404.35 54.0477 1399.76 Q50.9921 1395.16 50.9921 1386.43 Q50.9921 1377.68 54.0477 1373.1 Q57.1264 1368.49 62.9365 1368.49 Z" fill="#000000" fill-rule="evenodd" fill-opacity="1" /><path clip-path="url(#clip410)" d="M83.0984 1397.8 L87.9827 1397.8 L87.9827 1403.68 L83.0984 1403.68 L83.0984 1397.8 Z" fill="#000000" fill-rule="evenodd" fill-opacity="1" /><path clip-path="url(#clip410)" d="M108.168 1372.19 Q104.557 1372.19 102.728 1375.76 Q100.922 1379.3 100.922 1386.43 Q100.922 1393.54 102.728 1397.1 Q104.557 1400.64 108.168 1400.64 Q111.802 1400.64 113.608 1397.1 Q115.436 1393.54 115.436 1386.43 Q115.436 1379.3 113.608 1375.76 Q111.802 1372.19 108.168 1372.19 M108.168 1368.49 Q113.978 1368.49 117.033 1373.1 Q120.112 1377.68 120.112 1386.43 Q120.112 1395.16 117.033 1399.76 Q113.978 1404.35 108.168 1404.35 Q102.358 1404.35 99.2789 1399.76 Q96.2234 1395.16 96.2234 1386.43 Q96.2234 1377.68 99.2789 1373.1 Q102.358 1368.49 108.168 1368.49 Z" fill="#000000" fill-rule="evenodd" fill-opacity="1" /><path clip-path="url(#clip410)" d="M138.33 1372.19 Q134.719 1372.19 132.89 1375.76 Q131.084 1379.3 131.084 1386.43 Q131.084 1393.54 132.89 1397.1 Q134.719 1400.64 138.33 1400.64 Q141.964 1400.64 143.769 1397.1 Q145.598 1393.54 145.598 1386.43 Q145.598 1379.3 143.769 1375.76 Q141.964 1372.19 138.33 1372.19 M138.33 1368.49 Q144.14 1368.49 147.195 1373.1 Q150.274 1377.68 150.274 1386.43 Q150.274 1395.16 147.195 1399.76 Q144.14 1404.35 138.33 1404.35 Q132.519 1404.35 129.441 1399.76 Q126.385 1395.16 126.385 1386.43 Q126.385 1377.68 129.441 1373.1 Q132.519 1368.49 138.33 1368.49 Z" fill="#000000" fill-rule="evenodd" fill-opacity="1" /><path clip-path="url(#clip410)" d="M63.9319 986.991 Q60.3208 986.991 58.4921 990.556 Q56.6865 994.098 56.6865 1001.23 Q56.6865 1008.33 58.4921 1011.9 Q60.3208 1015.44 63.9319 1015.44 Q67.5661 1015.44 69.3717 1011.9 Q71.2004 1008.33 71.2004 1001.23 Q71.2004 994.098 69.3717 990.556 Q67.5661 986.991 63.9319 986.991 M63.9319 983.288 Q69.742 983.288 72.7976 987.894 Q75.8763 992.477 75.8763 1001.23 Q75.8763 1009.95 72.7976 1014.56 Q69.742 1019.14 63.9319 1019.14 Q58.1217 1019.14 55.043 1014.56 Q51.9875 1009.95 51.9875 1001.23 Q51.9875 992.477 55.043 987.894 Q58.1217 983.288 63.9319 983.288 Z" fill="#000000" fill-rule="evenodd" fill-opacity="1" /><path clip-path="url(#clip410)" d="M84.0938 1012.59 L88.978 1012.59 L88.978 1018.47 L84.0938 1018.47 L84.0938 1012.59 Z" fill="#000000" fill-rule="evenodd" fill-opacity="1" /><path clip-path="url(#clip410)" d="M109.163 986.991 Q105.552 986.991 103.723 990.556 Q101.918 994.098 101.918 1001.23 Q101.918 1008.33 103.723 1011.9 Q105.552 1015.44 109.163 1015.44 Q112.797 1015.44 114.603 1011.9 Q116.432 1008.33 116.432 1001.23 Q116.432 994.098 114.603 990.556 Q112.797 986.991 109.163 986.991 M109.163 983.288 Q114.973 983.288 118.029 987.894 Q121.107 992.477 121.107 1001.23 Q121.107 1009.95 118.029 1014.56 Q114.973 1019.14 109.163 1019.14 Q103.353 1019.14 100.274 1014.56 Q97.2187 1009.95 97.2187 1001.23 Q97.2187 992.477 100.274 987.894 Q103.353 983.288 109.163 983.288 Z" fill="#000000" fill-rule="evenodd" fill-opacity="1" /><path clip-path="url(#clip410)" d="M129.371 983.913 L147.728 983.913 L147.728 987.848 L133.654 987.848 L133.654 996.32 Q134.672 995.973 135.691 995.811 Q136.709 995.626 137.728 995.626 Q143.515 995.626 146.894 998.797 Q150.274 1001.97 150.274 1007.38 Q150.274 1012.96 146.802 1016.07 Q143.33 1019.14 137.01 1019.14 Q134.834 1019.14 132.566 1018.77 Q130.32 1018.4 127.913 1017.66 L127.913 1012.96 Q129.996 1014.1 132.219 1014.65 Q134.441 1015.21 136.918 1015.21 Q140.922 1015.21 143.26 1013.1 Q145.598 1011 145.598 1007.38 Q145.598 1003.77 143.26 1001.67 Q140.922 999.561 136.918 999.561 Q135.043 999.561 133.168 999.977 Q131.316 1000.39 129.371 1001.27 L129.371 983.913 Z" fill="#000000" fill-rule="evenodd" fill-opacity="1" /><path clip-path="url(#clip410)" d="M62.9365 601.788 Q59.3254 601.788 57.4967 605.353 Q55.6912 608.895 55.6912 616.024 Q55.6912 623.131 57.4967 626.696 Q59.3254 630.237 62.9365 630.237 Q66.5707 630.237 68.3763 626.696 Q70.205 623.131 70.205 616.024 Q70.205 608.895 68.3763 605.353 Q66.5707 601.788 62.9365 601.788 M62.9365 598.085 Q68.7467 598.085 71.8022 602.691 Q74.8809 607.274 74.8809 616.024 Q74.8809 624.751 71.8022 629.358 Q68.7467 633.941 62.9365 633.941 Q57.1264 633.941 54.0477 629.358 Q50.9921 624.751 50.9921 616.024 Q50.9921 607.274 54.0477 602.691 Q57.1264 598.085 62.9365 598.085 Z" fill="#000000" fill-rule="evenodd" fill-opacity="1" /><path clip-path="url(#clip410)" d="M83.0984 627.39 L87.9827 627.39 L87.9827 633.27 L83.0984 633.27 L83.0984 627.39 Z" fill="#000000" fill-rule="evenodd" fill-opacity="1" /><path clip-path="url(#clip410)" d="M98.978 629.334 L106.617 629.334 L106.617 602.969 L98.3067 604.635 L98.3067 600.376 L106.571 598.71 L111.246 598.71 L111.246 629.334 L118.885 629.334 L118.885 633.27 L98.978 633.27 L98.978 629.334 Z" fill="#000000" fill-rule="evenodd" fill-opacity="1" /><path clip-path="url(#clip410)" d="M138.33 601.788 Q134.719 601.788 132.89 605.353 Q131.084 608.895 131.084 616.024 Q131.084 623.131 132.89 626.696 Q134.719 630.237 138.33 630.237 Q141.964 630.237 143.769 626.696 Q145.598 623.131 145.598 616.024 Q145.598 608.895 143.769 605.353 Q141.964 601.788 138.33 601.788 M138.33 598.085 Q144.14 598.085 147.195 602.691 Q150.274 607.274 150.274 616.024 Q150.274 624.751 147.195 629.358 Q144.14 633.941 138.33 633.941 Q132.519 633.941 129.441 629.358 Q126.385 624.751 126.385 616.024 Q126.385 607.274 129.441 602.691 Q132.519 598.085 138.33 598.085 Z" fill="#000000" fill-rule="evenodd" fill-opacity="1" /><path clip-path="url(#clip410)" d="M63.9319 216.585 Q60.3208 216.585 58.4921 220.15 Q56.6865 223.692 56.6865 230.821 Q56.6865 237.928 58.4921 241.493 Q60.3208 245.034 63.9319 245.034 Q67.5661 245.034 69.3717 241.493 Q71.2004 237.928 71.2004 230.821 Q71.2004 223.692 69.3717 220.15 Q67.5661 216.585 63.9319 216.585 M63.9319 212.882 Q69.742 212.882 72.7976 217.488 Q75.8763 222.071 75.8763 230.821 Q75.8763 239.548 72.7976 244.155 Q69.742 248.738 63.9319 248.738 Q58.1217 248.738 55.043 244.155 Q51.9875 239.548 51.9875 230.821 Q51.9875 222.071 55.043 217.488 Q58.1217 212.882 63.9319 212.882 Z" fill="#000000" fill-rule="evenodd" fill-opacity="1" /><path clip-path="url(#clip410)" d="M84.0938 242.187 L88.978 242.187 L88.978 248.067 L84.0938 248.067 L84.0938 242.187 Z" fill="#000000" fill-rule="evenodd" fill-opacity="1" /><path clip-path="url(#clip410)" d="M99.9733 244.131 L107.612 244.131 L107.612 217.766 L99.3021 219.432 L99.3021 215.173 L107.566 213.507 L112.242 213.507 L112.242 244.131 L119.881 244.131 L119.881 248.067 L99.9733 248.067 L99.9733 244.131 Z" fill="#000000" fill-rule="evenodd" fill-opacity="1" /><path clip-path="url(#clip410)" d="M129.371 213.507 L147.728 213.507 L147.728 217.442 L133.654 217.442 L133.654 225.914 Q134.672 225.567 135.691 225.405 Q136.709 225.219 137.728 225.219 Q143.515 225.219 146.894 228.391 Q150.274 231.562 150.274 236.979 Q150.274 242.557 146.802 245.659 Q143.33 248.738 137.01 248.738 Q134.834 248.738 132.566 248.367 Q130.32 247.997 127.913 247.256 L127.913 242.557 Q129.996 243.692 132.219 244.247 Q134.441 244.803 136.918 244.803 Q140.922 244.803 143.26 242.696 Q145.598 240.59 145.598 236.979 Q145.598 233.368 143.26 231.261 Q140.922 229.155 136.918 229.155 Q135.043 229.155 133.168 229.571 Q131.316 229.988 129.371 230.868 L129.371 213.507 Z" fill="#000000" fill-rule="evenodd" fill-opacity="1" /><path clip-path="url(#clip410)" d="M852.453 49.0698 Q852.371 49.4797 852.207 50.2175 Q852.043 50.9144 851.305 53.1278 Q850.567 55.3412 849.584 57.5956 Q848.641 59.809 846.796 62.9242 Q844.993 65.9984 842.779 68.7857 Q842.165 69.5235 842.042 69.9744 Q841.96 70.3843 841.96 71.7369 Q841.96 80.2627 844.542 80.2627 Q844.665 80.2627 844.87 80.2627 Q845.116 80.2217 845.731 80.0167 Q846.386 79.7708 846.96 79.4019 Q847.534 78.992 848.19 78.1722 Q848.846 77.3115 849.256 76.1638 Q849.625 75.344 850.362 75.344 Q851.346 75.344 851.346 76.1638 Q851.346 77.6394 849.297 79.8938 Q847.247 82.1482 844.296 82.1482 Q841.468 82.1482 839.459 80.3037 Q837.492 78.4182 836.672 75.057 Q827.818 82.1482 818.965 82.1482 Q812.734 82.1482 809.045 78.0903 Q805.356 73.9913 805.356 67.9249 Q805.356 62.1044 808.553 56.5709 Q811.792 51.0373 817.038 47.5942 Q822.326 44.1101 827.941 44.1101 Q829.909 44.1101 831.794 44.643 Q833.68 45.1349 835.565 46.4055 Q837.451 47.6762 838.844 49.6027 Q840.238 51.5292 841.099 54.5624 Q841.96 57.5956 841.96 61.4076 L841.96 66.6133 Q847.37 59.768 850.198 49.9716 Q850.608 48.496 850.854 48.332 Q851.018 48.2091 851.428 48.2091 Q851.838 48.2091 852.084 48.455 Q852.371 48.66 852.412 48.8649 L852.453 49.0698 M836.344 72.8846 Q836.18 71.45 836.18 63.4981 Q836.18 61.9815 836.18 61.1617 Q836.18 60.3009 836.098 58.6613 Q836.016 57.0218 835.852 55.997 Q835.729 54.9723 835.442 53.4967 Q835.155 52.0211 834.746 51.0783 Q834.336 50.1356 833.68 49.0698 Q833.065 48.0041 832.245 47.3893 Q831.466 46.7744 830.319 46.3646 Q829.212 45.9547 827.859 45.9547 Q826.179 45.9547 824.416 46.5695 Q822.695 47.1433 820.481 48.9879 Q818.268 50.7914 816.423 53.6606 Q814.497 56.6938 813.021 62.2684 Q811.587 67.8019 811.587 71.1221 Q811.587 75.303 813.513 77.8033 Q815.44 80.2627 819.129 80.2627 Q827.941 80.2627 836.344 72.8846 Z" fill="#000000" fill-rule="evenodd" fill-opacity="1" /><path clip-path="url(#clip410)" d="M881.827 68.4578 Q881.909 67.433 883.508 67.433 L934.95 67.433 Q937.368 67.433 937.409 68.3758 Q937.409 69.4005 935.114 69.3595 L884.082 69.3595 Q881.827 69.4005 881.827 68.4578 M881.827 52.0621 Q881.827 51.0373 883.59 51.0783 L934.868 51.0783 Q937.368 51.0783 937.409 52.0621 Q937.409 53.0048 935.277 53.0048 L883.508 53.0048 Q881.827 53.0048 881.827 52.0621 Z" fill="#000000" fill-rule="evenodd" fill-opacity="1" /><path clip-path="url(#clip410)" d="M969.787 54.3575 Q969.787 42.0197 972.903 35.2974 Q977.247 25.2961 987.495 25.2961 Q989.667 25.2961 991.922 25.9109 Q994.217 26.4848 997.086 28.7392 Q999.997 30.9936 1001.76 34.6826 Q1005.12 41.8147 1005.12 54.3575 Q1005.12 66.6133 1002 73.2945 Q997.455 83.05 987.413 83.05 Q983.642 83.05 979.789 81.1235 Q975.977 79.197 973.558 74.5652 Q969.787 67.638 969.787 54.3575 M976.756 53.3327 Q976.756 65.9984 977.657 71.0401 Q978.682 76.4917 981.469 78.869 Q984.298 81.2054 987.413 81.2054 Q990.774 81.2054 993.561 78.7051 Q996.389 76.1638 997.25 70.7122 Q998.193 65.3426 998.152 53.3327 Q998.152 41.6508 997.332 36.978 Q996.225 31.5264 993.274 29.354 Q990.364 27.1406 987.413 27.1406 Q986.306 27.1406 985.117 27.4685 Q983.97 27.7964 982.289 28.7392 Q980.609 29.6819 979.297 32.0183 Q978.026 34.3547 977.411 37.8798 Q976.756 42.4296 976.756 53.3327 Z" fill="#000000" fill-rule="evenodd" fill-opacity="1" /><path clip-path="url(#clip410)" d="M1012.63 79.8528 Q1011.36 78.5001 1011.36 76.7376 Q1011.36 74.9751 1012.63 73.7044 Q1013.9 72.3927 1015.83 72.3927 Q1017.67 72.3927 1018.9 73.6224 Q1020.17 74.8111 1020.17 76.7786 Q1020.17 78.7051 1018.82 79.9758 Q1017.51 81.2054 1015.83 81.2054 Q1013.9 81.2054 1012.63 79.8528 Z" fill="#000000" fill-rule="evenodd" fill-opacity="1" /><path clip-path="url(#clip410)" d="M1034.46 44.1921 Q1034.46 39.7243 1035.77 36.6911 Q1037.08 33.6169 1039.83 30.5837 Q1044.87 25.2961 1052.16 25.2961 Q1055.28 25.2961 1058.03 26.6077 Q1060.81 27.9194 1063.44 30.9116 Q1066.1 33.8628 1067.7 39.7243 Q1069.3 45.5448 1069.3 53.5787 Q1069.3 66.5723 1062.99 74.8111 Q1056.71 83.05 1048.23 83.05 Q1042.86 83.05 1039.7 80.6316 Q1036.55 78.1722 1036.55 73.9913 Q1036.55 71.8189 1037.78 70.9171 Q1039.01 69.9744 1040.4 69.9744 Q1041.92 69.9744 1043.11 70.9991 Q1044.29 71.9828 1044.29 73.8274 Q1044.29 75.344 1043.31 76.5327 Q1042.37 77.6804 1039.91 77.6804 Q1042.33 80.7136 1048.15 80.7136 Q1050.24 80.7136 1052.33 79.7708 Q1054.42 78.7871 1056.67 76.4507 Q1058.97 74.0733 1060.36 69.1136 Q1061.76 64.1539 1061.76 57.1857 L1061.76 54.5214 Q1058.39 62.9242 1051.26 62.9242 Q1044.21 62.9242 1039.33 57.5136 Q1034.46 52.1031 1034.46 44.1921 M1042 44.2741 Q1042 52.5949 1043.52 55.6691 Q1046.1 60.9567 1051.34 60.9567 Q1056.47 60.9567 1059.01 56.4069 Q1061.59 51.8161 1061.59 45.8727 Q1061.59 37.6338 1060.24 34.0268 Q1057.74 27.3865 1052.16 27.3865 Q1046.63 27.3865 1043.76 32.6741 Q1042 35.7893 1042 44.2741 Z" fill="#000000" fill-rule="evenodd" fill-opacity="1" /><path clip-path="url(#clip410)" d="M1079.35 70.9161 L1087.9 70.9161 L1087.9 77.8837 L1081.25 90.8466 L1076.03 90.8466 L1079.35 77.8837 L1079.35 70.9161 Z" fill="#000000" fill-rule="evenodd" fill-opacity="1" /><path clip-path="url(#clip410)" d="M1160.37 42.957 Q1160.37 45.2934 1158.93 46.687 Q1157.54 48.0806 1155.78 48.0806 Q1154.22 48.0806 1153.4 47.1789 Q1152.58 46.2771 1152.58 45.1294 Q1152.58 44.6375 1152.78 44.0227 Q1152.99 43.3669 1153.44 42.5881 Q1153.93 41.8093 1154.96 41.2354 Q1155.98 40.6616 1157.37 40.5796 Q1157.09 40.2927 1157.01 40.2517 Q1156.39 39.7598 1155.24 39.5959 Q1155.08 39.5139 1154.51 39.5139 Q1151.68 39.5139 1148.81 41.6043 Q1145.98 43.6538 1142.5 47.5478 Q1138.11 52.0976 1135.28 53.7781 Q1147.7 55.4177 1147.7 62.5908 Q1147.7 63.7795 1147.37 65.2142 Q1146.72 67.9194 1146.72 69.8869 Q1146.72 73.8219 1149.38 73.8219 Q1151.96 73.8219 1153.6 71.1986 Q1155.28 68.5753 1156.68 63.4516 Q1156.88 62.5089 1157.09 62.2219 Q1157.29 61.935 1157.87 61.935 Q1158.89 61.935 1158.89 62.7548 Q1157.95 67.5505 1155.86 71.2396 Q1153.19 75.7074 1149.22 75.7074 Q1145.9 75.7074 1143.68 73.412 Q1141.51 71.0756 1141.51 67.3866 Q1141.51 66.4848 1141.84 64.4354 Q1142.09 63.6156 1142.09 62.6728 Q1142.09 60.7463 1141.02 59.3117 Q1139.95 57.8361 1138.23 57.0983 Q1136.51 56.3605 1135.08 56.0326 Q1133.68 55.6637 1132.33 55.5407 Q1128.23 72.8791 1127.66 73.9449 Q1127.29 74.6827 1126.47 75.1745 Q1125.65 75.7074 1124.79 75.7074 Q1123.97 75.7074 1123.15 75.1336 Q1122.37 74.6007 1122.37 73.33 Q1122.37 72.6742 1122.7 71.4855 L1134.87 23.1182 L1135.12 21.4786 Q1135.12 20.9867 1134.91 20.7408 Q1134.75 20.4539 1133.76 20.2489 Q1132.82 20.044 1130.94 20.044 Q1130.16 20.044 1129.79 20.003 Q1129.46 19.962 1129.17 19.757 Q1128.89 19.5111 1128.89 19.0192 Q1128.89 18.3224 1129.17 17.9535 Q1129.5 17.5436 1129.75 17.4616 Q1129.99 17.3797 1130.49 17.3387 Q1131.18 17.2977 1133.52 17.0927 Q1135.85 16.8468 1137.86 16.6828 Q1139.87 16.5189 1140.73 16.5189 Q1141.22 16.5189 1141.47 16.7648 Q1141.76 16.9698 1141.8 17.2157 L1141.84 17.4207 L1133.11 52.8354 Q1136.72 51.4008 1142.41 45.0474 Q1149.01 37.6694 1154.67 37.6694 Q1157.33 37.6694 1158.85 39.3089 Q1160.37 40.9075 1160.37 42.957 Z" fill="#000000" fill-rule="evenodd" fill-opacity="1" /><path clip-path="url(#clip410)" d="M1190.59 70.2138 Q1190.59 71.8205 1189.79 72.6813 Q1188.98 73.5134 1187.89 73.5134 Q1187 73.5134 1186.51 72.9969 Q1186.06 72.4805 1186.06 71.7919 Q1186.06 70.7876 1186.86 69.9842 Q1187.69 69.1808 1188.9 69.1521 Q1188.49 68.0905 1187.43 67.4593 Q1186.37 66.7994 1185.42 66.6272 Q1184.51 66.455 1183.59 66.455 Q1181.78 66.455 1180.4 67.0289 Q1179.03 67.6027 1178.34 68.4922 Q1177.65 69.353 1177.33 70.1851 Q1177.02 71.0172 1177.02 71.7345 Q1177.02 72.3657 1177.16 72.8822 Q1177.33 73.3699 1177.73 73.7429 Q1178.14 74.0873 1178.42 74.3168 Q1178.74 74.5463 1179.43 74.7472 Q1180.12 74.948 1180.4 75.0341 Q1180.69 75.0915 1181.49 75.2636 Q1183.16 75.608 1183.9 75.8088 Q1184.65 75.981 1185.62 76.4687 Q1186.63 76.9565 1187.38 77.7312 Q1189.18 79.5388 1189.18 82.0351 Q1189.18 82.9532 1188.87 84.0722 Q1188.58 85.1912 1187.75 86.5972 Q1186.92 88.0031 1185.65 89.1221 Q1184.39 90.2411 1182.21 91.0158 Q1180.06 91.7905 1177.36 91.7905 Q1173.6 91.7905 1171.28 90.2124 Q1168.95 88.6057 1168.95 86.0807 Q1168.95 84.2444 1169.96 83.2402 Q1170.96 82.2072 1172.25 82.2072 Q1173.23 82.2072 1173.83 82.7524 Q1174.43 83.2689 1174.43 84.2444 Q1174.43 85.5642 1173.37 86.5685 Q1172.31 87.5727 1170.73 87.3719 Q1172.08 90.4707 1177.42 90.4707 Q1179.43 90.4707 1180.98 89.9542 Q1182.55 89.409 1183.42 88.663 Q1184.3 87.8883 1184.88 86.9415 Q1185.45 85.9946 1185.62 85.2773 Q1185.83 84.56 1185.83 84.0149 Q1185.83 83.068 1185.45 82.3507 Q1185.08 81.6334 1184.56 81.2317 Q1184.08 80.8013 1183.13 80.457 Q1182.21 80.084 1181.55 79.9405 Q1180.89 79.7971 1179.71 79.5675 Q1179.17 79.4527 1178.82 79.3954 Q1178.48 79.3093 1177.76 79.0797 Q1177.07 78.8215 1176.59 78.5633 Q1176.13 78.305 1175.53 77.846 Q1174.92 77.3869 1174.55 76.8417 Q1174.18 76.2966 1173.92 75.4932 Q1173.66 74.6898 1173.66 73.7429 Q1173.66 72.8822 1173.92 71.8492 Q1174.21 70.8163 1174.92 69.6112 Q1175.67 68.4061 1176.73 67.4306 Q1177.79 66.455 1179.57 65.8238 Q1181.38 65.1639 1183.59 65.1639 Q1186.8 65.1639 1188.69 66.6559 Q1190.59 68.1192 1190.59 70.2138 Z" fill="#000000" fill-rule="evenodd" fill-opacity="1" /><path clip-path="url(#clip410)" d="M1222.63 62.017 Q1222.71 60.9923 1224.31 60.9923 L1275.75 60.9923 Q1278.17 60.9923 1278.21 61.935 Q1278.21 62.9597 1275.92 62.9188 L1224.89 62.9188 Q1222.63 62.9597 1222.63 62.017 M1222.63 45.6213 Q1222.63 44.5965 1224.39 44.6375 L1275.67 44.6375 Q1278.17 44.6375 1278.21 45.6213 Q1278.21 46.564 1276.08 46.564 L1224.31 46.564 Q1222.63 46.564 1222.63 45.6213 Z" fill="#000000" fill-rule="evenodd" fill-opacity="1" /><path clip-path="url(#clip410)" d="M1310.59 47.9167 Q1310.59 35.5789 1313.71 28.8567 Q1318.05 18.8553 1328.3 18.8553 Q1330.47 18.8553 1332.73 19.4701 Q1335.02 20.044 1337.89 22.2984 Q1340.8 24.5528 1342.56 28.2418 Q1345.92 35.374 1345.92 47.9167 Q1345.92 60.1725 1342.81 66.8537 Q1338.26 76.6092 1328.22 76.6092 Q1324.45 76.6092 1320.59 74.6827 Q1316.78 72.7562 1314.36 68.1244 Q1310.59 61.1972 1310.59 47.9167 M1317.56 46.8919 Q1317.56 59.5576 1318.46 64.5993 Q1319.49 70.0509 1322.27 72.4283 Q1325.1 74.7647 1328.22 74.7647 Q1331.58 74.7647 1334.37 72.2643 Q1337.19 69.723 1338.05 64.2714 Q1339 58.9018 1338.96 46.8919 Q1338.96 35.21 1338.14 30.5372 Q1337.03 25.0857 1334.08 22.9132 Q1331.17 20.6998 1328.22 20.6998 Q1327.11 20.6998 1325.92 21.0277 Q1324.77 21.3556 1323.09 22.2984 Q1321.41 23.2411 1320.1 25.5775 Q1318.83 27.9139 1318.22 31.439 Q1317.56 35.9888 1317.56 46.8919 Z" fill="#000000" fill-rule="evenodd" fill-opacity="1" /><path clip-path="url(#clip410)" d="M1355.48 70.9161 L1364.03 70.9161 L1364.03 77.8837 L1357.39 90.8466 L1352.16 90.8466 L1355.48 77.8837 L1355.48 70.9161 Z" fill="#000000" fill-rule="evenodd" fill-opacity="1" /><path clip-path="url(#clip410)" d="M1469.17 25.5151 Q1469.17 27.1957 1467.74 27.1957 Q1463.1 27.3596 1461.22 28.9172 Q1459.37 30.4338 1458.68 33.3851 L1446.95 80.1538 Q1446.54 81.6295 1446.3 81.7934 Q1446.05 81.9164 1445.6 81.9164 Q1445.03 81.9164 1444.7 81.6295 Q1444.41 81.3425 1444 80.3178 L1423.1 30.8847 Q1422.93 30.5568 1422.73 30.1059 Q1422.52 29.655 1422.36 29.3681 L1411.25 73.6775 Q1410.92 74.9482 1410.92 75.604 Q1410.92 77.2026 1412.03 78.2273 Q1413.18 79.2111 1416.46 79.3341 Q1418.14 79.3341 1418.14 80.2358 Q1418.14 81.9164 1416.62 81.9164 Q1415.23 81.9164 1412.32 81.7934 Q1409.41 81.6704 1407.97 81.6704 Q1406.58 81.6704 1403.75 81.7934 Q1400.92 81.9164 1399.57 81.9164 Q1398.5 81.9164 1398.5 80.9736 Q1398.5 80.2358 1398.79 79.8669 Q1399.08 79.457 1399.32 79.416 Q1399.57 79.3341 1399.94 79.3341 Q1402.4 79.2521 1404.08 78.7602 Q1405.76 78.2683 1406.7 77.3256 Q1407.69 76.3828 1408.14 75.4401 Q1408.63 74.4563 1409 73.0217 L1420.23 27.9335 Q1420.23 27.1957 1414.53 27.1957 Q1413.55 27.1957 1413.14 27.1547 Q1412.77 27.1137 1412.48 26.9088 Q1412.19 26.7038 1412.19 26.2529 Q1412.19 25.1052 1412.69 24.8593 Q1413.18 24.5724 1414.61 24.5724 L1425.89 24.5724 Q1427.32 24.5724 1427.69 24.8183 Q1428.06 25.0233 1428.55 26.171 L1447.12 69.9885 L1456.5 32.6473 Q1456.75 31.9095 1456.75 30.8847 Q1456.75 29.2452 1455.52 28.2614 Q1454.33 27.2367 1451.05 27.1957 Q1449.54 27.1957 1449.54 26.2529 Q1449.54 25.4741 1449.82 25.1052 Q1450.15 24.6953 1450.4 24.6544 Q1450.68 24.5724 1451.05 24.5724 Q1452.45 24.5724 1455.32 24.6953 Q1458.18 24.8183 1459.62 24.8183 Q1461.01 24.8183 1463.84 24.6953 Q1466.71 24.5724 1468.1 24.5724 Q1468.6 24.5724 1468.84 24.8183 Q1469.13 25.0233 1469.17 25.2692 L1469.17 25.5151 Z" fill="#000000" fill-rule="evenodd" fill-opacity="1" /><path clip-path="url(#clip410)" d="M1488.53 69.1687 Q1488.62 68.144 1490.22 68.144 L1541.66 68.144 Q1544.07 68.144 1544.12 69.0867 Q1544.12 70.1115 1541.82 70.0705 L1490.79 70.0705 Q1488.53 70.1115 1488.53 69.1687 M1488.53 52.773 Q1488.53 51.7483 1490.3 51.7893 L1541.57 51.7893 Q1544.07 51.7893 1544.12 52.773 Q1544.12 53.7158 1541.98 53.7158 L1490.22 53.7158 Q1488.53 53.7158 1488.53 52.773 Z" fill="#000000" fill-rule="evenodd" fill-opacity="1" /><path clip-path="url(#clip410)" d="M1576.49 33.9999 L1576.49 31.3766 Q1586.58 31.3766 1591.78 26.007 Q1593.22 26.007 1593.46 26.3349 Q1593.71 26.6628 1593.71 28.1794 L1593.71 75.2761 Q1593.71 77.7765 1594.94 78.5553 Q1596.17 79.3341 1601.54 79.3341 L1604.2 79.3341 L1604.2 81.9164 Q1601.25 81.6704 1590.59 81.6704 Q1579.94 81.6704 1577.03 81.9164 L1577.03 79.3341 L1579.69 79.3341 Q1584.98 79.3341 1586.25 78.5962 Q1587.52 77.8174 1587.52 75.2761 L1587.52 31.7865 Q1583.13 33.9999 1576.49 33.9999 Z" fill="#000000" fill-rule="evenodd" fill-opacity="1" /><path clip-path="url(#clip410)" d="M1608.29 55.0684 Q1608.29 42.7306 1611.41 36.0084 Q1615.75 26.007 1626 26.007 Q1628.17 26.007 1630.42 26.6218 Q1632.72 27.1957 1635.59 29.4501 Q1638.5 31.7045 1640.26 35.3935 Q1643.62 42.5257 1643.62 55.0684 Q1643.62 67.3242 1640.51 74.0054 Q1635.96 83.7609 1625.92 83.7609 Q1622.15 83.7609 1618.29 81.8344 Q1614.48 79.9079 1612.06 75.2761 Q1608.29 68.3489 1608.29 55.0684 M1615.26 54.0437 Q1615.26 66.7094 1616.16 71.751 Q1617.19 77.2026 1619.97 79.58 Q1622.8 81.9164 1625.92 81.9164 Q1629.28 81.9164 1632.06 79.416 Q1634.89 76.8747 1635.75 71.4231 Q1636.7 66.0535 1636.66 54.0437 Q1636.66 42.3617 1635.84 37.6889 Q1634.73 32.2374 1631.78 30.0649 Q1628.87 27.8515 1625.92 27.8515 Q1624.81 27.8515 1623.62 28.1794 Q1622.47 28.5073 1620.79 29.4501 Q1619.11 30.3929 1617.8 32.7292 Q1616.53 35.0656 1615.91 38.5907 Q1615.26 43.1405 1615.26 54.0437 Z" fill="#000000" fill-rule="evenodd" fill-opacity="1" /><path clip-path="url(#clip410)" d="M1650.2 55.0684 Q1650.2 42.7306 1653.31 36.0084 Q1657.66 26.007 1667.9 26.007 Q1670.08 26.007 1672.33 26.6218 Q1674.63 27.1957 1677.5 29.4501 Q1680.41 31.7045 1682.17 35.3935 Q1685.53 42.5257 1685.53 55.0684 Q1685.53 67.3242 1682.41 74.0054 Q1677.86 83.7609 1667.82 83.7609 Q1664.05 83.7609 1660.2 81.8344 Q1656.39 79.9079 1653.97 75.2761 Q1650.2 68.3489 1650.2 55.0684 M1657.17 54.0437 Q1657.17 66.7094 1658.07 71.751 Q1659.09 77.2026 1661.88 79.58 Q1664.71 81.9164 1667.82 81.9164 Q1671.18 81.9164 1673.97 79.416 Q1676.8 76.8747 1677.66 71.4231 Q1678.6 66.0535 1678.56 54.0437 Q1678.56 42.3617 1677.74 37.6889 Q1676.64 32.2374 1673.68 30.0649 Q1670.77 27.8515 1667.82 27.8515 Q1666.72 27.8515 1665.53 28.1794 Q1664.38 28.5073 1662.7 29.4501 Q1661.02 30.3929 1659.71 32.7292 Q1658.44 35.0656 1657.82 38.5907 Q1657.17 43.1405 1657.17 54.0437 Z" fill="#000000" fill-rule="evenodd" fill-opacity="1" /><path clip-path="url(#clip410)" d="M1692.1 55.0684 Q1692.1 42.7306 1695.22 36.0084 Q1699.56 26.007 1709.81 26.007 Q1711.98 26.007 1714.24 26.6218 Q1716.53 27.1957 1719.4 29.4501 Q1722.31 31.7045 1724.08 35.3935 Q1727.44 42.5257 1727.44 55.0684 Q1727.44 67.3242 1724.32 74.0054 Q1719.77 83.7609 1709.73 83.7609 Q1705.96 83.7609 1702.1 81.8344 Q1698.29 79.9079 1695.87 75.2761 Q1692.1 68.3489 1692.1 55.0684 M1699.07 54.0437 Q1699.07 66.7094 1699.97 71.751 Q1701 77.2026 1703.79 79.58 Q1706.61 81.9164 1709.73 81.9164 Q1713.09 81.9164 1715.88 79.416 Q1718.71 76.8747 1719.57 71.4231 Q1720.51 66.0535 1720.47 54.0437 Q1720.47 42.3617 1719.65 37.6889 Q1718.54 32.2374 1715.59 30.0649 Q1712.68 27.8515 1709.73 27.8515 Q1708.62 27.8515 1707.43 28.1794 Q1706.29 28.5073 1704.61 29.4501 Q1702.92 30.3929 1701.61 32.7292 Q1700.34 35.0656 1699.73 38.5907 Q1699.07 43.1405 1699.07 54.0437 Z" fill="#000000" fill-rule="evenodd" fill-opacity="1" /><polyline clip-path="url(#clip412)" style="stroke:#009af9; stroke-linecap:round; stroke-linejoin:round; stroke-width:4; stroke-opacity:1; fill:none" points="247.59,160.256 247.693,163.483 247.797,172.932 247.901,187.934 248.005,207.445 248.109,230.141 248.213,254.544 248.317,279.156 248.421,302.588 248.525,323.676 248.629,341.573 248.733,355.799 248.837,366.257 248.941,373.208 249.045,377.209 249.149,379.029 249.253,379.55 249.357,379.655 249.461,380.134 249.565,381.607 249.669,384.464 249.773,388.851 249.877,394.669 249.981,401.618 250.085,409.25 250.292,424.471 250.5,436.545 250.604,440.693 250.708,443.529 250.812,445.22 250.916,446.061 251.124,446.751 251.332,448.673 251.54,453.788 251.748,462.088 251.956,471.811 252.164,480.518 252.372,486.414 252.579,489.222 252.787,490.208 252.995,491.409 253.203,494.525 253.411,500.069 253.619,507.186 253.827,514.202 254.035,519.551 254.243,522.596 254.451,523.904 254.659,524.88 254.867,526.981 255.074,530.95 255.282,536.468 255.49,542.378 255.698,547.346 255.906,550.575 256.114,552.197 256.322,553.166 256.53,554.708 256.738,557.663 256.946,562.061 257.154,567.138 257.362,571.782 257.569,575.137 257.985,578.124 258.401,581.632 258.817,589.584 259.233,597.344 259.649,600.754 260.064,603.65 260.272,606.554 260.48,610.365 260.688,614.39 260.896,617.832 262.819,640.056 264.741,660.341 266.664,679.462 268.586,698.052 272.431,734.777 276.276,770.242 280.121,802.818 283.966,832.818 287.811,861.962 291.656,890.775 295.501,918.217 299.346,943.663 303.191,967.844 307.036,991.532 310.881,1014.38 314.725,1035.68 318.57,1055.54 322.415,1074.65 326.26,1093.11 330.105,1110.44 333.95,1126.44 337.795,1141.51 341.64,1156.01 345.485,1169.75 349.33,1182.4 353.175,1194.14 360.865,1216.01 368.555,1235.05 376.245,1251.9 383.935,1266.83 393.177,1282.34 402.42,1296.03 411.663,1307.79 420.905,1318.04 430.148,1327.15 439.391,1334.97 448.633,1341.81 457.876,1347.85 473.505,1356.17 489.134,1362.66 504.763,1367.7 520.392,1371.65 554.347,1377.61 588.302,1381.2 619.606,1383.19 650.909,1384.4 718.031,1385.69 795.798,1386.18 864.908,1386.32 925.511,1386.37 991.585,1386.39 1058.05,1386.39 1131.54,1386.39 1201.46,1386.4 1274.16,1386.4 1335.36,1386.4 1410.08,1386.4 1478.52,1386.4 1541.74,1386.4 1605.77,1386.4 1677.54,1386.4 1742.57,1386.4 1779.8,1386.4 1817.03,1386.39 1851.5,1386.39 1885.97,1386.39 1902.96,1386.38 1919.95,1386.34 1928.45,1386.29 1936.94,1386.12 1941.19,1385.97 1945.44,1385.14 1946.5,1385.16 1947.56,1384.18 1948.09,1384.38 1948.62,1382.97 1949.15,1381.77 1949.68,1382.25 1950.22,1375.33 1950.75,1355.83 1951.28,1339.65 1951.81,1340.83 1952.34,1347.29 1952.87,1344.98 1953.4,1341.07 1953.93,1342.32 1955.99,1337.01 1958.06,1329.57 1960.12,1321.18 1962.18,1312.86 1966.31,1296.79 1970.43,1277.87 1974.55,1257.6 1978.68,1237.43 1982.8,1214.88 1986.93,1192.58 1995.18,1145.95 2003.43,1099.82 2011.67,1055.26 2019.92,1013.18 2024.15,993.212 2028.38,974.52 2032.61,957.56 2036.83,941.396 2041.06,927.64 2045.29,914.459 2049.52,903.837 2053.75,893.933 2057.97,886.239 2062.2,879.675 2066.43,874.671 2070.66,871.265 2074.89,868.744 2079.11,868.109 2083.34,867.901 2087.57,869.541 2092.2,871.761 2096.83,875.439 2101.47,880.271 2106.1,885.491 2115.36,898.928 2124.63,914.317 2133.89,931.991 2143.16,951.063 2152.42,970.882 2161.69,991.832 2188.6,1053.64 2215.52,1113.76 2228.98,1141.55 2242.44,1167.45 2255.89,1191.43 2269.35,1213.46 2274.87,1221.84 2280.4,1229.95 2285.92,1237.8 2291.44,1245.34 "/>
<polyline clip-path="url(#clip412)" style="stroke:#e26f46; stroke-linecap:round; stroke-linejoin:round; stroke-width:4; stroke-opacity:1; fill:none" points="247.59,160.256 247.693,162.766 247.797,170.123 247.901,181.822 248.005,197.075 248.109,214.881 248.213,234.12 248.317,253.647 248.421,272.395 248.525,289.459 248.629,304.166 248.733,316.118 248.837,325.2 248.941,331.572 249.045,335.623 249.149,337.91 249.253,339.086 249.461,340.724 249.669,344.844 249.773,348.539 249.877,353.338 249.981,359.047 250.085,365.354 250.292,378.218 250.5,389.017 250.604,393.041 250.708,396.061 250.812,398.168 250.916,399.557 251.124,401.292 251.332,403.588 251.54,408.111 251.748,415.128 251.956,423.524 252.164,431.507 252.372,437.577 252.579,441.269 252.787,443.302 252.995,445.13 253.203,448.141 253.411,452.964 253.619,459.203 253.827,465.716 254.035,471.255 254.243,475.118 254.659,479.243 255.074,485.135 255.49,495.554 255.906,504.664 256.322,509.206 256.738,514.006 257.154,522.724 257.569,531.512 257.985,536.509 258.401,540.714 258.817,548.115 259.233,556.52 259.649,561.947 260.064,565.881 260.272,568.661 260.48,572.241 260.688,576.28 260.896,580.2 262.819,606.991 264.741,632.21 266.664,656.278 268.586,679.592 272.431,725.022 276.276,769.209 280.121,811.244 283.966,850.374 287.811,886.969 291.656,921.802 295.501,954.978 299.346,985.955 303.191,1014.41 307.036,1040.69 310.881,1065.31 314.725,1088.35 318.57,1109.58 322.415,1128.95 326.26,1146.81 330.105,1163.51 333.95,1179.13 337.795,1193.55 341.64,1206.77 345.485,1219.07 349.33,1230.67 353.175,1241.57 360.865,1260.98 368.555,1277.92 376.245,1292.74 383.935,1305.4 393.177,1318.51 402.42,1329.4 411.663,1338.42 420.905,1346.05 430.148,1352.49 439.391,1357.87 448.633,1362.45 457.876,1366.34 473.505,1371.48 489.134,1375.28 504.763,1378.09 520.392,1380.21 554.347,1383.14 588.302,1384.68 619.606,1385.45 650.909,1385.87 718.031,1386.25 795.798,1386.36 864.908,1386.39 925.511,1386.39 991.585,1386.39 1058.05,1386.4 1131.54,1386.4 1201.46,1386.4 1274.16,1386.4 1335.36,1386.4 1410.08,1386.4 1478.52,1386.4 1541.74,1386.4 1605.77,1386.4 1677.54,1386.4 1742.57,1386.4 1779.8,1386.4 1817.03,1386.4 1851.5,1386.4 1885.97,1386.39 1902.96,1386.39 1919.95,1386.38 1928.45,1386.37 1936.94,1386.32 1941.19,1386.26 1945.44,1385.95 1946.5,1385.97 1947.56,1385.51 1948.09,1385.63 1948.62,1385.01 1949.15,1384.36 1949.68,1384.65 1950.22,1381.25 1950.75,1370.04 1951.28,1358.68 1951.81,1356.79 1952.34,1359.55 1952.87,1357.66 1953.4,1353.77 1953.93,1353.12 1955.99,1345.63 1958.06,1336.33 1960.12,1325.64 1962.18,1314.14 1966.31,1290.05 1970.43,1262.91 1974.55,1232.29 1978.68,1200.89 1982.8,1167.68 1986.93,1133.27 1991.05,1099.81 1995.18,1066.06 1999.3,1033.47 2003.43,1003.13 2007.55,973.848 2011.67,947.407 2015.8,923.636 2019.92,901.793 2024.15,883.058 2028.38,866.507 2032.61,852.972 2036.83,842.167 2041.06,833.374 2045.29,827.549 2049.52,823.106 2053.75,821.266 2057.97,820.787 2062.2,822.095 2066.43,825.075 2070.66,829.045 2074.89,834.847 2079.11,841.256 2083.34,849.222 2087.57,857.88 2092.2,868.607 2096.83,879.912 2101.47,892.354 2106.1,905.437 2115.36,932.84 2124.63,961.384 2133.89,990.576 2143.16,1019.39 2152.42,1047.49 2161.69,1074.93 2175.14,1112.63 2188.6,1147.76 2195.33,1164.19 2202.06,1179.77 2208.79,1194.49 2215.52,1208.37 2228.98,1233.75 2242.44,1256.19 2255.89,1275.8 2269.35,1292.82 2274.87,1299.15 2280.4,1305.1 2285.92,1310.66 2291.44,1315.86 "/>
<polyline clip-path="url(#clip412)" style="stroke:#3da44d; stroke-linecap:round; stroke-linejoin:round; stroke-width:4; stroke-opacity:1; fill:none" points="247.59,160.256 247.797,164.492 248.005,176.136 248.213,192.369 248.421,209.566 248.525,217.464 248.629,224.47 248.733,230.39 248.837,235.148 249.045,241.402 249.253,244.511 249.461,246.485 249.669,249.166 249.877,253.534 250.085,259.483 250.292,266.074 250.5,272.118 250.708,276.772 250.916,279.894 251.332,284.087 251.748,290.655 252.164,299.959 252.579,307.389 252.995,311.831 253.411,316.997 253.827,324.604 254.243,331.839 255.906,354.822 257.569,377.03 259.233,398.808 260.896,420.335 264.741,470.291 268.586,518.551 272.431,565.001 276.276,609.576 280.121,652.139 283.966,692.454 287.811,730.317 291.656,765.723 295.501,798.906 299.346,830.22 303.191,859.961 307.036,888.265 310.881,915.14 314.725,940.577 318.57,964.631 322.415,987.406 326.26,1009 330.105,1029.43 333.95,1048.72 337.795,1066.88 341.64,1084 345.485,1100.2 349.33,1115.58 353.175,1130.2 360.865,1157.15 368.555,1181.2 376.245,1202.75 383.935,1222 388.556,1232.53 393.177,1242.44 397.799,1251.73 402.42,1260.39 411.663,1276.14 420.905,1289.9 430.148,1301.91 439.391,1312.42 448.633,1321.65 457.876,1329.74 473.505,1341.14 489.134,1350.28 504.763,1357.57 520.392,1363.38 554.347,1372.28 588.302,1377.74 619.606,1380.89 650.909,1382.88 718.031,1385.06 795.798,1385.96 864.908,1386.24 925.511,1386.33 991.585,1386.37 1058.05,1386.39 1131.54,1386.39 1201.46,1386.39 1274.16,1386.4 1335.36,1386.4 1410.08,1386.4 1478.52,1386.4 1541.74,1386.4 1605.77,1386.4 1677.54,1386.4 1742.57,1386.4 1817.03,1386.4 1885.97,1386.4 1902.96,1386.4 1919.95,1386.4 1928.45,1386.39 1936.94,1386.39 1941.19,1386.39 1945.44,1386.36 1947.56,1386.3 1949.68,1386.2 1950.75,1383.82 1951.81,1379.95 1952.87,1379.12 1953.93,1376.76 1955.99,1372.37 1958.06,1366.88 1960.12,1360.23 1962.18,1352.43 1964.24,1343.57 1966.31,1333.77 1968.37,1323.08 1970.43,1311.49 1974.55,1285.63 1978.68,1256.98 1982.8,1226.81 1986.93,1195.45 1995.18,1131.87 2003.43,1069.88 2007.55,1040.19 2011.67,1011.51 2015.8,983.734 2019.92,957.426 2024.15,932 2028.38,907.994 2032.61,886.02 2036.83,865.715 2041.06,847.217 2045.29,830.711 2049.52,815.717 2053.75,802.588 2057.97,791.093 2062.2,781.068 2066.43,772.837 2070.66,765.985 2074.89,760.689 2079.11,756.944 2083.34,754.395 2087.57,753.308 2092.2,753.355 2096.83,754.887 2101.47,757.48 2106.1,761.328 2110.73,766.252 2115.36,772.082 2120,778.993 2124.63,786.619 2133.89,804.198 2143.16,824.051 2152.42,845.659 2161.69,868.683 2188.6,939.695 2215.52,1010.75 2228.98,1044.65 2242.44,1076.98 2255.89,1107.42 2269.35,1135.88 2274.87,1146.93 2280.4,1157.62 2285.92,1167.97 2291.44,1177.98 "/>
<polyline clip-path="url(#clip412)" style="stroke:#c271d2; stroke-linecap:round; stroke-linejoin:round; stroke-width:4; stroke-opacity:1; fill:none" points="247.59,160.256 250.916,203.48 254.243,225.425 257.569,246.015 260.896,266.778 268.586,316.112 276.276,364.052 283.966,409.472 291.656,452.616 299.346,493.872 307.036,533.45 314.725,571.356 322.415,607.469 330.105,641.878 337.795,674.86 345.485,706.472 353.175,736.599 360.865,765.327 368.555,792.848 376.245,819.187 383.935,844.313 393.177,873.025 402.42,900.233 411.663,926.032 420.905,950.449 430.148,973.546 439.391,995.425 448.633,1016.15 457.876,1035.78 473.505,1066.63 489.134,1094.78 504.763,1120.43 520.392,1143.83 537.37,1166.93 554.347,1187.82 571.325,1206.73 588.302,1223.84 603.954,1238.16 619.606,1251.22 635.258,1263.13 650.909,1274 667.69,1284.58 684.47,1294.17 701.25,1302.85 718.031,1310.72 737.472,1318.91 756.914,1326.21 776.356,1332.73 795.798,1338.54 830.353,1347.36 864.908,1354.55 895.209,1359.76 925.511,1364.11 991.585,1371.3 1058.05,1376.19 1131.54,1379.78 1201.46,1382.01 1274.16,1383.54 1335.36,1384.41 1410.08,1385.11 1478.52,1385.54 1541.74,1385.81 1605.77,1385.99 1677.54,1386.13 1742.57,1386.22 1817.03,1386.28 1885.97,1386.32 1902.96,1386.33 1919.95,1386.33 1928.45,1386.34 1936.94,1386.34 1945.44,1386.31 1953.93,1384.48 1958.06,1382.4 1962.18,1379.28 1966.31,1375.03 1970.43,1369.72 1974.55,1363.36 1978.68,1356.01 1982.8,1347.88 1986.93,1339.05 1995.18,1319.42 2003.43,1297.61 2011.67,1273.91 2019.92,1248.86 2036.83,1194.87 2053.75,1139.15 2070.66,1083.92 2087.57,1030.61 2096.83,1002.69 2106.1,975.832 2115.36,950.162 2124.63,925.809 2133.89,902.841 2143.16,881.269 2152.42,861.135 2161.69,842.496 2175.14,818.108 2188.6,796.802 2202.06,778.633 2215.52,763.421 2228.98,751.136 2242.44,741.595 2255.89,734.693 2269.35,730.249 2274.87,729.108 2280.4,728.344 2285.92,727.947 2291.44,727.907 "/>
<polyline clip-path="url(#clip412)" style="stroke:#ac8d18; stroke-linecap:round; stroke-linejoin:round; stroke-width:4; stroke-opacity:1; fill:none" points="1865.64,2722.89 1865.64,-1176.24 "/>
<path clip-path="url(#clip410)" d="M1771.97 467.571 L2280.54 467.571 L2280.54 166.796 L1771.97 166.796  Z" fill="#ffffff" fill-rule="evenodd" fill-opacity="1"/>
<polyline clip-path="url(#clip410)" style="stroke:#000000; stroke-linecap:round; stroke-linejoin:round; stroke-width:4; stroke-opacity:1; fill:none" points="1771.97,467.571 2280.54,467.571 2280.54,166.796 1771.97,166.796 1771.97,467.571 "/>
<polyline clip-path="url(#clip410)" style="stroke:#009af9; stroke-linecap:round; stroke-linejoin:round; stroke-width:4; stroke-opacity:1; fill:none" points="1796.04,226.951 1940.47,226.951 "/>
<path clip-path="url(#clip410)" d="M1987.19 219.124 Q1987.19 222.591 1985.41 225.846 Q1983.66 229.102 1980.89 231.069 Q1978.15 233.037 1975.39 233.037 Q1972.27 233.037 1970.66 229.805 Q1967.73 241.539 1967.57 241.844 Q1966.89 242.851 1965.9 242.851 Q1965.29 242.851 1964.92 242.476 Q1964.54 242.125 1964.54 241.563 Q1964.57 241.375 1964.71 240.79 L1969.39 221.935 Q1970.47 217.555 1973.73 214.44 Q1977.01 211.301 1980.52 211.301 Q1983.31 211.301 1985.25 213.386 Q1987.19 215.47 1987.19 219.124 M1983.75 217.063 Q1983.75 214.721 1982.81 213.549 Q1981.88 212.355 1980.43 212.355 Q1979.09 212.355 1977.47 213.432 Q1975.88 214.51 1974.48 216.899 Q1973.73 218.281 1973.19 219.991 Q1972.65 221.7 1971.59 225.917 Q1971.22 227.603 1971.22 227.697 Q1971.22 227.884 1971.31 228.306 Q1971.43 228.727 1971.71 229.383 Q1972.02 230.015 1972.44 230.578 Q1972.86 231.14 1973.63 231.561 Q1974.41 231.96 1975.34 231.96 Q1976.79 231.96 1978.34 230.788 Q1979.91 229.594 1981.06 227.416 Q1982.02 225.659 1982.88 222.356 Q1983.75 219.03 1983.75 217.063 Z" fill="#000000" fill-rule="evenodd" fill-opacity="1" /><path clip-path="url(#clip410)" d="M2015.12 256.356 Q2015.12 256.668 2014.99 256.831 Q2014.88 256.979 2014.76 257.012 Q2014.66 257.028 2014.52 257.028 Q2014.09 257.028 2012.61 256.979 Q2011.14 256.93 2010.71 256.93 Q2010.02 256.93 2008.61 256.979 Q2007.2 257.028 2006.51 257.028 Q2006.06 257.028 2006.06 256.651 Q2006.06 256.405 2006.11 256.274 Q2006.15 256.126 2006.29 256.077 Q2006.43 256.012 2006.51 256.012 Q2006.61 255.995 2006.86 255.995 Q2007.19 255.995 2007.53 255.962 Q2007.88 255.913 2008.3 255.815 Q2008.73 255.717 2008.99 255.471 Q2009.27 255.225 2009.27 254.88 Q2009.27 254.733 2009.15 253.52 Q2009.04 252.306 2008.89 250.896 Q2008.74 249.47 2008.73 249.273 L2000.3 249.273 Q1999.53 250.601 1998.99 251.519 Q1998.45 252.437 1998.25 252.749 Q1998.05 253.06 1997.94 253.257 Q1997.83 253.454 1997.76 253.569 Q1997.28 254.438 1997.28 254.815 Q1997.28 255.864 1998.86 255.995 Q1999.4 255.995 1999.4 256.389 Q1999.4 256.684 1999.27 256.848 Q1999.14 256.995 1999.02 257.012 Q1998.92 257.028 1998.76 257.028 Q1998.22 257.028 1997.09 256.979 Q1995.96 256.93 1995.4 256.93 Q1994.92 256.93 1993.94 256.979 Q1992.96 257.028 1992.51 257.028 Q1992.32 257.028 1992.2 256.913 Q1992.09 256.799 1992.09 256.651 Q1992.09 256.422 1992.12 256.29 Q1992.17 256.159 1992.3 256.094 Q1992.43 256.028 1992.5 256.028 Q1992.56 256.012 1992.79 255.995 Q1994.04 255.913 1995.01 255.323 Q1995.99 254.716 1996.92 253.159 L2008.6 233.55 Q2008.71 233.353 2008.79 233.254 Q2008.88 233.156 2009.04 233.074 Q2009.22 232.992 2009.48 232.992 Q2009.89 232.992 2009.97 233.123 Q2010.06 233.238 2010.11 233.795 L2012.16 254.782 Q2012.2 255.225 2012.24 255.405 Q2012.29 255.569 2012.5 255.749 Q2012.73 255.913 2013.14 255.962 Q2013.57 255.995 2014.35 255.995 Q2014.65 255.995 2014.76 256.012 Q2014.88 256.012 2014.99 256.094 Q2015.12 256.176 2015.12 256.356 M2008.63 248.224 L2007.56 237.157 L2000.94 248.224 L2008.63 248.224 Z" fill="#000000" fill-rule="evenodd" fill-opacity="1" /><path clip-path="url(#clip410)" d="M2020.01 220.506 Q2020.01 212.402 2023.03 205.867 Q2024.32 203.126 2026.12 200.831 Q2027.93 198.536 2029.12 197.529 Q2030.32 196.521 2030.65 196.521 Q2031.11 196.521 2031.14 196.99 Q2031.14 197.224 2030.5 197.81 Q2022.78 205.68 2022.8 220.506 Q2022.8 235.379 2030.32 242.945 Q2031.14 243.764 2031.14 244.022 Q2031.14 244.491 2030.65 244.491 Q2030.32 244.491 2029.17 243.53 Q2028.02 242.57 2026.24 240.368 Q2024.46 238.166 2023.17 235.473 Q2020.01 228.938 2020.01 220.506 Z" fill="#000000" fill-rule="evenodd" fill-opacity="1" /><path clip-path="url(#clip410)" d="M2057.26 214.322 Q2057.26 215.657 2056.44 216.454 Q2055.64 217.25 2054.64 217.25 Q2053.75 217.25 2053.28 216.735 Q2052.81 216.22 2052.81 215.564 Q2052.81 215.283 2052.93 214.931 Q2053.04 214.557 2053.3 214.112 Q2053.58 213.667 2054.17 213.339 Q2054.75 213.011 2055.55 212.964 Q2055.39 212.8 2055.34 212.777 Q2054.99 212.495 2054.33 212.402 Q2054.24 212.355 2053.91 212.355 Q2052.29 212.355 2050.65 213.549 Q2049.04 214.721 2047.05 216.946 Q2044.54 219.546 2042.92 220.506 Q2050.02 221.443 2050.02 225.542 Q2050.02 226.221 2049.83 227.041 Q2049.46 228.587 2049.46 229.711 Q2049.46 231.96 2050.98 231.96 Q2052.46 231.96 2053.39 230.46 Q2054.36 228.961 2055.15 226.034 Q2055.27 225.495 2055.39 225.331 Q2055.5 225.167 2055.83 225.167 Q2056.42 225.167 2056.42 225.635 Q2055.88 228.376 2054.68 230.484 Q2053.16 233.037 2050.89 233.037 Q2048.99 233.037 2047.73 231.725 Q2046.49 230.39 2046.49 228.282 Q2046.49 227.767 2046.67 226.596 Q2046.81 226.127 2046.81 225.589 Q2046.81 224.488 2046.2 223.668 Q2045.6 222.825 2044.61 222.403 Q2043.63 221.982 2042.81 221.794 Q2042.01 221.583 2041.24 221.513 Q2038.9 231.421 2038.57 232.03 Q2038.36 232.451 2037.89 232.732 Q2037.42 233.037 2036.93 233.037 Q2036.46 233.037 2035.99 232.709 Q2035.55 232.405 2035.55 231.678 Q2035.55 231.304 2035.73 230.624 L2042.69 202.986 L2042.83 202.049 Q2042.83 201.768 2042.71 201.627 Q2042.62 201.463 2042.06 201.346 Q2041.52 201.229 2040.44 201.229 Q2040 201.229 2039.79 201.206 Q2039.6 201.182 2039.44 201.065 Q2039.27 200.925 2039.27 200.644 Q2039.27 200.246 2039.44 200.035 Q2039.62 199.8 2039.76 199.754 Q2039.9 199.707 2040.18 199.683 Q2040.58 199.66 2041.92 199.543 Q2043.25 199.402 2044.4 199.309 Q2045.55 199.215 2046.04 199.215 Q2046.32 199.215 2046.46 199.355 Q2046.63 199.473 2046.65 199.613 L2046.67 199.73 L2041.68 219.967 Q2043.74 219.147 2047 215.517 Q2050.77 211.301 2054 211.301 Q2055.53 211.301 2056.39 212.238 Q2057.26 213.151 2057.26 214.322 Z" fill="#000000" fill-rule="evenodd" fill-opacity="1" /><path clip-path="url(#clip410)" d="M2073.6 225.214 Q2073.65 224.628 2074.56 224.628 L2103.95 224.628 Q2105.34 224.628 2105.36 225.167 Q2105.36 225.753 2104.05 225.729 L2074.89 225.729 Q2073.6 225.753 2073.6 225.214 M2073.6 215.845 Q2073.6 215.259 2074.61 215.283 L2103.91 215.283 Q2105.34 215.283 2105.36 215.845 Q2105.36 216.384 2104.14 216.384 L2074.56 216.384 Q2073.6 216.384 2073.6 215.845 Z" fill="#000000" fill-rule="evenodd" fill-opacity="1" /><path clip-path="url(#clip410)" d="M2123.85 217.157 Q2123.85 210.106 2125.63 206.265 Q2128.11 200.55 2133.97 200.55 Q2135.21 200.55 2136.5 200.901 Q2137.81 201.229 2139.45 202.517 Q2141.11 203.806 2142.12 205.914 Q2144.04 209.989 2144.04 217.157 Q2144.04 224.16 2142.26 227.978 Q2139.66 233.552 2133.92 233.552 Q2131.77 233.552 2129.57 232.451 Q2127.39 231.351 2126.01 228.704 Q2123.85 224.745 2123.85 217.157 M2127.83 216.571 Q2127.83 223.808 2128.35 226.689 Q2128.93 229.805 2130.53 231.163 Q2132.14 232.498 2133.92 232.498 Q2135.84 232.498 2137.44 231.069 Q2139.05 229.617 2139.54 226.502 Q2140.08 223.434 2140.06 216.571 Q2140.06 209.896 2139.59 207.225 Q2138.96 204.11 2137.27 202.869 Q2135.61 201.604 2133.92 201.604 Q2133.29 201.604 2132.61 201.791 Q2131.95 201.979 2130.99 202.517 Q2130.03 203.056 2129.28 204.391 Q2128.56 205.726 2128.21 207.741 Q2127.83 210.341 2127.83 216.571 Z" fill="#000000" fill-rule="evenodd" fill-opacity="1" /><path clip-path="url(#clip410)" d="M2148.33 231.725 Q2147.6 230.952 2147.6 229.945 Q2147.6 228.938 2148.33 228.212 Q2149.05 227.462 2150.15 227.462 Q2151.21 227.462 2151.91 228.165 Q2152.64 228.844 2152.64 229.969 Q2152.64 231.069 2151.86 231.796 Q2151.11 232.498 2150.15 232.498 Q2149.05 232.498 2148.33 231.725 Z" fill="#000000" fill-rule="evenodd" fill-opacity="1" /><path clip-path="url(#clip410)" d="M2160.8 217.157 Q2160.8 210.106 2162.58 206.265 Q2165.06 200.55 2170.92 200.55 Q2172.16 200.55 2173.45 200.901 Q2174.76 201.229 2176.4 202.517 Q2178.06 203.806 2179.07 205.914 Q2180.99 209.989 2180.99 217.157 Q2180.99 224.16 2179.21 227.978 Q2176.61 233.552 2170.87 233.552 Q2168.71 233.552 2166.51 232.451 Q2164.33 231.351 2162.95 228.704 Q2160.8 224.745 2160.8 217.157 M2164.78 216.571 Q2164.78 223.808 2165.29 226.689 Q2165.88 229.805 2167.47 231.163 Q2169.09 232.498 2170.87 232.498 Q2172.79 232.498 2174.38 231.069 Q2176 229.617 2176.49 226.502 Q2177.03 223.434 2177.01 216.571 Q2177.01 209.896 2176.54 207.225 Q2175.91 204.11 2174.22 202.869 Q2172.56 201.604 2170.87 201.604 Q2170.24 201.604 2169.56 201.791 Q2168.9 201.979 2167.94 202.517 Q2166.98 203.056 2166.23 204.391 Q2165.51 205.726 2165.15 207.741 Q2164.78 210.341 2164.78 216.571 Z" fill="#000000" fill-rule="evenodd" fill-opacity="1" /><path clip-path="url(#clip410)" d="M2209.68 212.964 Q2209.68 214.603 2207.34 214.603 L2201.86 214.603 Q2201.02 218.492 2201.02 222.239 Q2201.02 226.713 2202.4 230.156 Q2202.68 230.835 2202.68 231.21 Q2202.68 231.913 2202.05 232.475 Q2201.44 233.037 2200.71 233.037 Q2200.11 233.037 2199.71 232.568 Q2199.33 232.1 2199 230.624 Q2198.61 228.891 2198.61 226.971 Q2198.61 224.675 2198.98 222.473 Q2199.36 220.248 2200.62 214.603 L2195.21 214.603 L2192.52 225.214 Q2191.56 228.797 2191.23 229.898 Q2191.02 230.554 2190.95 230.765 Q2190.88 230.976 2190.67 231.491 Q2190.48 231.983 2190.34 232.17 Q2190.2 232.334 2189.96 232.592 Q2189.73 232.873 2189.45 232.943 Q2189.17 233.037 2188.82 233.037 Q2188.28 233.037 2187.86 232.686 Q2187.43 232.358 2187.43 231.725 Q2187.43 231.304 2187.81 230.578 Q2192.26 220.974 2193.94 214.603 L2191.23 214.603 Q2187.48 214.603 2185.14 218.304 Q2184.76 218.796 2184.55 218.843 Q2184.46 218.866 2184.37 218.866 Q2184.11 218.866 2183.94 218.749 Q2183.8 218.632 2183.8 218.515 L2183.78 218.398 Q2183.78 218.257 2184.13 217.625 Q2184.51 216.969 2185.21 215.962 Q2185.93 214.955 2186.71 214.088 Q2187.46 213.292 2188.18 212.8 Q2188.93 212.285 2189.64 212.097 Q2190.34 211.91 2190.74 211.863 Q2191.13 211.816 2191.7 211.816 L2207.76 211.816 Q2208.37 211.816 2208.7 211.863 Q2209.03 211.886 2209.36 212.168 Q2209.68 212.425 2209.68 212.964 Z" fill="#000000" fill-rule="evenodd" fill-opacity="1" /><path clip-path="url(#clip410)" d="M2214.11 244.022 Q2214.11 243.788 2214.72 243.202 Q2222.45 235.332 2222.45 220.506 Q2222.45 205.633 2215.02 198.114 Q2214.11 197.247 2214.11 196.99 Q2214.11 196.521 2214.58 196.521 Q2214.91 196.521 2216.05 197.482 Q2217.23 198.442 2218.98 200.644 Q2220.76 202.845 2222.07 205.539 Q2225.24 212.074 2225.24 220.506 Q2225.24 228.61 2222.21 235.145 Q2220.93 237.885 2219.12 240.181 Q2217.32 242.476 2216.12 243.483 Q2214.93 244.491 2214.58 244.491 Q2214.11 244.491 2214.11 244.022 Z" fill="#000000" fill-rule="evenodd" fill-opacity="1" /><polyline clip-path="url(#clip410)" style="stroke:#e26f46; stroke-linecap:round; stroke-linejoin:round; stroke-width:4; stroke-opacity:1; fill:none" points="1796.04,287.106 1940.47,287.106 "/>
<path clip-path="url(#clip410)" d="M1987.19 279.279 Q1987.19 282.746 1985.41 286.001 Q1983.66 289.257 1980.89 291.224 Q1978.15 293.192 1975.39 293.192 Q1972.27 293.192 1970.66 289.96 Q1967.73 301.694 1967.57 301.999 Q1966.89 303.006 1965.9 303.006 Q1965.29 303.006 1964.92 302.631 Q1964.54 302.28 1964.54 301.718 Q1964.57 301.53 1964.71 300.945 L1969.39 282.09 Q1970.47 277.71 1973.73 274.595 Q1977.01 271.456 1980.52 271.456 Q1983.31 271.456 1985.25 273.541 Q1987.19 275.625 1987.19 279.279 M1983.75 277.218 Q1983.75 274.876 1982.81 273.704 Q1981.88 272.51 1980.43 272.51 Q1979.09 272.51 1977.47 273.587 Q1975.88 274.665 1974.48 277.054 Q1973.73 278.436 1973.19 280.146 Q1972.65 281.855 1971.59 286.072 Q1971.22 287.758 1971.22 287.852 Q1971.22 288.039 1971.31 288.461 Q1971.43 288.882 1971.71 289.538 Q1972.02 290.17 1972.44 290.733 Q1972.86 291.295 1973.63 291.716 Q1974.41 292.115 1975.34 292.115 Q1976.79 292.115 1978.34 290.943 Q1979.91 289.749 1981.06 287.571 Q1982.02 285.814 1982.88 282.511 Q1983.75 279.185 1983.75 277.218 Z" fill="#000000" fill-rule="evenodd" fill-opacity="1" /><path clip-path="url(#clip410)" d="M2015.12 316.511 Q2015.12 316.823 2014.99 316.986 Q2014.88 317.134 2014.76 317.167 Q2014.66 317.183 2014.52 317.183 Q2014.09 317.183 2012.61 317.134 Q2011.14 317.085 2010.71 317.085 Q2010.02 317.085 2008.61 317.134 Q2007.2 317.183 2006.51 317.183 Q2006.06 317.183 2006.06 316.806 Q2006.06 316.56 2006.11 316.429 Q2006.15 316.281 2006.29 316.232 Q2006.43 316.167 2006.51 316.167 Q2006.61 316.15 2006.86 316.15 Q2007.19 316.15 2007.53 316.117 Q2007.88 316.068 2008.3 315.97 Q2008.73 315.872 2008.99 315.626 Q2009.27 315.38 2009.27 315.035 Q2009.27 314.888 2009.15 313.675 Q2009.04 312.461 2008.89 311.051 Q2008.74 309.625 2008.73 309.428 L2000.3 309.428 Q1999.53 310.756 1998.99 311.674 Q1998.45 312.592 1998.25 312.904 Q1998.05 313.215 1997.94 313.412 Q1997.83 313.609 1997.76 313.724 Q1997.28 314.593 1997.28 314.97 Q1997.28 316.019 1998.86 316.15 Q1999.4 316.15 1999.4 316.544 Q1999.4 316.839 1999.27 317.003 Q1999.14 317.15 1999.02 317.167 Q1998.92 317.183 1998.76 317.183 Q1998.22 317.183 1997.09 317.134 Q1995.96 317.085 1995.4 317.085 Q1994.92 317.085 1993.94 317.134 Q1992.96 317.183 1992.51 317.183 Q1992.32 317.183 1992.2 317.068 Q1992.09 316.954 1992.09 316.806 Q1992.09 316.577 1992.12 316.445 Q1992.17 316.314 1992.3 316.249 Q1992.43 316.183 1992.5 316.183 Q1992.56 316.167 1992.79 316.15 Q1994.04 316.068 1995.01 315.478 Q1995.99 314.871 1996.92 313.314 L2008.6 293.705 Q2008.71 293.508 2008.79 293.409 Q2008.88 293.311 2009.04 293.229 Q2009.22 293.147 2009.48 293.147 Q2009.89 293.147 2009.97 293.278 Q2010.06 293.393 2010.11 293.95 L2012.16 314.937 Q2012.2 315.38 2012.24 315.56 Q2012.29 315.724 2012.5 315.904 Q2012.73 316.068 2013.14 316.117 Q2013.57 316.15 2014.35 316.15 Q2014.65 316.15 2014.76 316.167 Q2014.88 316.167 2014.99 316.249 Q2015.12 316.331 2015.12 316.511 M2008.63 308.379 L2007.56 297.312 L2000.94 308.379 L2008.63 308.379 Z" fill="#000000" fill-rule="evenodd" fill-opacity="1" /><path clip-path="url(#clip410)" d="M2020.01 280.661 Q2020.01 272.557 2023.03 266.022 Q2024.32 263.281 2026.12 260.986 Q2027.93 258.691 2029.12 257.684 Q2030.32 256.676 2030.65 256.676 Q2031.11 256.676 2031.14 257.145 Q2031.14 257.379 2030.5 257.965 Q2022.78 265.835 2022.8 280.661 Q2022.8 295.534 2030.32 303.1 Q2031.14 303.919 2031.14 304.177 Q2031.14 304.646 2030.65 304.646 Q2030.32 304.646 2029.17 303.685 Q2028.02 302.725 2026.24 300.523 Q2024.46 298.321 2023.17 295.628 Q2020.01 289.093 2020.01 280.661 Z" fill="#000000" fill-rule="evenodd" fill-opacity="1" /><path clip-path="url(#clip410)" d="M2057.26 274.477 Q2057.26 275.812 2056.44 276.609 Q2055.64 277.405 2054.64 277.405 Q2053.75 277.405 2053.28 276.89 Q2052.81 276.375 2052.81 275.719 Q2052.81 275.438 2052.93 275.086 Q2053.04 274.712 2053.3 274.267 Q2053.58 273.822 2054.17 273.494 Q2054.75 273.166 2055.55 273.119 Q2055.39 272.955 2055.34 272.932 Q2054.99 272.65 2054.33 272.557 Q2054.24 272.51 2053.91 272.51 Q2052.29 272.51 2050.65 273.704 Q2049.04 274.876 2047.05 277.101 Q2044.54 279.701 2042.92 280.661 Q2050.02 281.598 2050.02 285.697 Q2050.02 286.376 2049.83 287.196 Q2049.46 288.742 2049.46 289.866 Q2049.46 292.115 2050.98 292.115 Q2052.46 292.115 2053.39 290.615 Q2054.36 289.116 2055.15 286.189 Q2055.27 285.65 2055.39 285.486 Q2055.5 285.322 2055.83 285.322 Q2056.42 285.322 2056.42 285.79 Q2055.88 288.531 2054.68 290.639 Q2053.16 293.192 2050.89 293.192 Q2048.99 293.192 2047.73 291.88 Q2046.49 290.545 2046.49 288.437 Q2046.49 287.922 2046.67 286.751 Q2046.81 286.282 2046.81 285.744 Q2046.81 284.643 2046.2 283.823 Q2045.6 282.98 2044.61 282.558 Q2043.63 282.137 2042.81 281.949 Q2042.01 281.738 2041.24 281.668 Q2038.9 291.576 2038.57 292.185 Q2038.36 292.606 2037.89 292.887 Q2037.42 293.192 2036.93 293.192 Q2036.46 293.192 2035.99 292.864 Q2035.55 292.56 2035.55 291.833 Q2035.55 291.459 2035.73 290.779 L2042.69 263.141 L2042.83 262.204 Q2042.83 261.923 2042.71 261.782 Q2042.62 261.618 2042.06 261.501 Q2041.52 261.384 2040.44 261.384 Q2040 261.384 2039.79 261.361 Q2039.6 261.337 2039.44 261.22 Q2039.27 261.08 2039.27 260.799 Q2039.27 260.401 2039.44 260.19 Q2039.62 259.955 2039.76 259.909 Q2039.9 259.862 2040.18 259.838 Q2040.58 259.815 2041.92 259.698 Q2043.25 259.557 2044.4 259.464 Q2045.55 259.37 2046.04 259.37 Q2046.32 259.37 2046.46 259.51 Q2046.63 259.628 2046.65 259.768 L2046.67 259.885 L2041.68 280.122 Q2043.74 279.302 2047 275.672 Q2050.77 271.456 2054 271.456 Q2055.53 271.456 2056.39 272.393 Q2057.26 273.306 2057.26 274.477 Z" fill="#000000" fill-rule="evenodd" fill-opacity="1" /><path clip-path="url(#clip410)" d="M2073.6 285.369 Q2073.65 284.783 2074.56 284.783 L2103.95 284.783 Q2105.34 284.783 2105.36 285.322 Q2105.36 285.908 2104.05 285.884 L2074.89 285.884 Q2073.6 285.908 2073.6 285.369 M2073.6 276 Q2073.6 275.414 2074.61 275.438 L2103.91 275.438 Q2105.34 275.438 2105.36 276 Q2105.36 276.539 2104.14 276.539 L2074.56 276.539 Q2073.6 276.539 2073.6 276 Z" fill="#000000" fill-rule="evenodd" fill-opacity="1" /><path clip-path="url(#clip410)" d="M2123.85 277.312 Q2123.85 270.261 2125.63 266.42 Q2128.11 260.705 2133.97 260.705 Q2135.21 260.705 2136.5 261.056 Q2137.81 261.384 2139.45 262.672 Q2141.11 263.961 2142.12 266.069 Q2144.04 270.144 2144.04 277.312 Q2144.04 284.315 2142.26 288.133 Q2139.66 293.707 2133.92 293.707 Q2131.77 293.707 2129.57 292.606 Q2127.39 291.506 2126.01 288.859 Q2123.85 284.9 2123.85 277.312 M2127.83 276.726 Q2127.83 283.963 2128.35 286.844 Q2128.93 289.96 2130.53 291.318 Q2132.14 292.653 2133.92 292.653 Q2135.84 292.653 2137.44 291.224 Q2139.05 289.772 2139.54 286.657 Q2140.08 283.589 2140.06 276.726 Q2140.06 270.051 2139.59 267.38 Q2138.96 264.265 2137.27 263.024 Q2135.61 261.759 2133.92 261.759 Q2133.29 261.759 2132.61 261.946 Q2131.95 262.134 2130.99 262.672 Q2130.03 263.211 2129.28 264.546 Q2128.56 265.881 2128.21 267.896 Q2127.83 270.496 2127.83 276.726 Z" fill="#000000" fill-rule="evenodd" fill-opacity="1" /><path clip-path="url(#clip410)" d="M2148.33 291.88 Q2147.6 291.107 2147.6 290.1 Q2147.6 289.093 2148.33 288.367 Q2149.05 287.617 2150.15 287.617 Q2151.21 287.617 2151.91 288.32 Q2152.64 288.999 2152.64 290.124 Q2152.64 291.224 2151.86 291.951 Q2151.11 292.653 2150.15 292.653 Q2149.05 292.653 2148.33 291.88 Z" fill="#000000" fill-rule="evenodd" fill-opacity="1" /><path clip-path="url(#clip410)" d="M2160.8 286.189 Q2160.8 284.76 2161.62 284.081 Q2162.44 283.401 2163.49 283.401 Q2164.59 283.401 2165.37 284.127 Q2166.16 284.83 2166.16 286.072 Q2166.16 287.407 2165.22 288.156 Q2164.31 288.906 2163 288.718 Q2164.15 290.639 2166.26 291.506 Q2168.39 292.372 2170.35 292.372 Q2172.42 292.372 2174.08 290.592 Q2175.76 288.812 2175.76 284.455 Q2175.76 280.755 2174.31 278.623 Q2172.88 276.492 2170.05 276.492 L2167.94 276.492 Q2167.22 276.492 2167 276.421 Q2166.79 276.351 2166.79 275.953 Q2166.79 275.485 2167.52 275.391 Q2168.25 275.391 2169.39 275.25 Q2172.18 275.157 2173.66 272.744 Q2174.99 270.496 2174.99 267.287 Q2174.99 264.359 2173.59 263.141 Q2172.2 261.9 2170.4 261.9 Q2168.71 261.9 2166.86 262.602 Q2165.01 263.305 2164.01 264.874 Q2166.98 264.874 2166.98 267.287 Q2166.98 268.341 2166.3 269.043 Q2165.65 269.723 2164.55 269.723 Q2163.49 269.723 2162.79 269.067 Q2162.09 268.388 2162.09 267.24 Q2162.09 264.499 2164.52 262.602 Q2166.98 260.705 2170.59 260.705 Q2174.15 260.705 2176.77 262.579 Q2179.42 264.453 2179.42 267.334 Q2179.42 270.168 2177.54 272.486 Q2175.67 274.805 2172.7 275.766 Q2176.35 276.492 2178.53 278.975 Q2180.71 281.434 2180.71 284.455 Q2180.71 288.203 2177.76 290.967 Q2174.8 293.707 2170.49 293.707 Q2166.51 293.707 2163.66 291.552 Q2160.8 289.397 2160.8 286.189 Z" fill="#000000" fill-rule="evenodd" fill-opacity="1" /><path clip-path="url(#clip410)" d="M2184.74 286.189 Q2184.74 284.76 2185.56 284.081 Q2186.38 283.401 2187.43 283.401 Q2188.53 283.401 2189.31 284.127 Q2190.1 284.83 2190.1 286.072 Q2190.1 287.407 2189.17 288.156 Q2188.25 288.906 2186.94 288.718 Q2188.09 290.639 2190.2 291.506 Q2192.33 292.372 2194.3 292.372 Q2196.36 292.372 2198.02 290.592 Q2199.71 288.812 2199.71 284.455 Q2199.71 280.755 2198.25 278.623 Q2196.83 276.492 2193.99 276.492 L2191.88 276.492 Q2191.16 276.492 2190.95 276.421 Q2190.74 276.351 2190.74 275.953 Q2190.74 275.485 2191.46 275.391 Q2192.19 275.391 2193.34 275.25 Q2196.12 275.157 2197.6 272.744 Q2198.93 270.496 2198.93 267.287 Q2198.93 264.359 2197.53 263.141 Q2196.15 261.9 2194.34 261.9 Q2192.66 261.9 2190.81 262.602 Q2188.96 263.305 2187.95 264.874 Q2190.92 264.874 2190.92 267.287 Q2190.92 268.341 2190.24 269.043 Q2189.59 269.723 2188.49 269.723 Q2187.43 269.723 2186.73 269.067 Q2186.03 268.388 2186.03 267.24 Q2186.03 264.499 2188.46 262.602 Q2190.92 260.705 2194.53 260.705 Q2198.09 260.705 2200.71 262.579 Q2203.36 264.453 2203.36 267.334 Q2203.36 270.168 2201.49 272.486 Q2199.61 274.805 2196.64 275.766 Q2200.29 276.492 2202.47 278.975 Q2204.65 281.434 2204.65 284.455 Q2204.65 288.203 2201.7 290.967 Q2198.75 293.707 2194.44 293.707 Q2190.45 293.707 2187.6 291.552 Q2184.74 289.397 2184.74 286.189 Z" fill="#000000" fill-rule="evenodd" fill-opacity="1" /><path clip-path="url(#clip410)" d="M2233.63 273.119 Q2233.63 274.758 2231.28 274.758 L2225.8 274.758 Q2224.96 278.647 2224.96 282.394 Q2224.96 286.868 2226.34 290.311 Q2226.62 290.99 2226.62 291.365 Q2226.62 292.068 2225.99 292.63 Q2225.38 293.192 2224.66 293.192 Q2224.05 293.192 2223.65 292.723 Q2223.27 292.255 2222.95 290.779 Q2222.55 289.046 2222.55 287.126 Q2222.55 284.83 2222.92 282.628 Q2223.3 280.403 2224.56 274.758 L2219.15 274.758 L2216.46 285.369 Q2215.5 288.952 2215.17 290.053 Q2214.96 290.709 2214.89 290.92 Q2214.82 291.131 2214.61 291.646 Q2214.42 292.138 2214.28 292.325 Q2214.14 292.489 2213.91 292.747 Q2213.67 293.028 2213.39 293.098 Q2213.11 293.192 2212.76 293.192 Q2212.22 293.192 2211.8 292.841 Q2211.38 292.513 2211.38 291.88 Q2211.38 291.459 2211.75 290.733 Q2216.2 281.129 2217.89 274.758 L2215.17 274.758 Q2211.42 274.758 2209.08 278.459 Q2208.71 278.951 2208.49 278.998 Q2208.4 279.021 2208.31 279.021 Q2208.05 279.021 2207.89 278.904 Q2207.75 278.787 2207.75 278.67 L2207.72 278.553 Q2207.72 278.412 2208.07 277.78 Q2208.45 277.124 2209.15 276.117 Q2209.88 275.11 2210.65 274.243 Q2211.4 273.447 2212.13 272.955 Q2212.87 272.44 2213.58 272.252 Q2214.28 272.065 2214.68 272.018 Q2215.08 271.971 2215.64 271.971 L2231.71 271.971 Q2232.32 271.971 2232.64 272.018 Q2232.97 272.041 2233.3 272.323 Q2233.63 272.58 2233.63 273.119 Z" fill="#000000" fill-rule="evenodd" fill-opacity="1" /><path clip-path="url(#clip410)" d="M2238.05 304.177 Q2238.05 303.943 2238.66 303.357 Q2246.39 295.487 2246.39 280.661 Q2246.39 265.788 2238.97 258.269 Q2238.05 257.402 2238.05 257.145 Q2238.05 256.676 2238.52 256.676 Q2238.85 256.676 2240 257.637 Q2241.17 258.597 2242.92 260.799 Q2244.7 263 2246.02 265.694 Q2249.18 272.229 2249.18 280.661 Q2249.18 288.765 2246.16 295.3 Q2244.87 298.04 2243.06 300.336 Q2241.26 302.631 2240.07 303.638 Q2238.87 304.646 2238.52 304.646 Q2238.05 304.646 2238.05 304.177 Z" fill="#000000" fill-rule="evenodd" fill-opacity="1" /><polyline clip-path="url(#clip410)" style="stroke:#3da44d; stroke-linecap:round; stroke-linejoin:round; stroke-width:4; stroke-opacity:1; fill:none" points="1796.04,347.261 1940.47,347.261 "/>
<path clip-path="url(#clip410)" d="M1987.19 339.434 Q1987.19 342.901 1985.41 346.156 Q1983.66 349.412 1980.89 351.379 Q1978.15 353.347 1975.39 353.347 Q1972.27 353.347 1970.66 350.115 Q1967.73 361.849 1967.57 362.154 Q1966.89 363.161 1965.9 363.161 Q1965.29 363.161 1964.92 362.786 Q1964.54 362.435 1964.54 361.873 Q1964.57 361.685 1964.71 361.1 L1969.39 342.245 Q1970.47 337.865 1973.73 334.75 Q1977.01 331.611 1980.52 331.611 Q1983.31 331.611 1985.25 333.696 Q1987.19 335.78 1987.19 339.434 M1983.75 337.373 Q1983.75 335.031 1982.81 333.859 Q1981.88 332.665 1980.43 332.665 Q1979.09 332.665 1977.47 333.742 Q1975.88 334.82 1974.48 337.209 Q1973.73 338.591 1973.19 340.301 Q1972.65 342.01 1971.59 346.227 Q1971.22 347.913 1971.22 348.007 Q1971.22 348.194 1971.31 348.616 Q1971.43 349.037 1971.71 349.693 Q1972.02 350.325 1972.44 350.888 Q1972.86 351.45 1973.63 351.871 Q1974.41 352.27 1975.34 352.27 Q1976.79 352.27 1978.34 351.098 Q1979.91 349.904 1981.06 347.726 Q1982.02 345.969 1982.88 342.666 Q1983.75 339.34 1983.75 337.373 Z" fill="#000000" fill-rule="evenodd" fill-opacity="1" /><path clip-path="url(#clip410)" d="M2015.12 376.666 Q2015.12 376.978 2014.99 377.141 Q2014.88 377.289 2014.76 377.322 Q2014.66 377.338 2014.52 377.338 Q2014.09 377.338 2012.61 377.289 Q2011.14 377.24 2010.71 377.24 Q2010.02 377.24 2008.61 377.289 Q2007.2 377.338 2006.51 377.338 Q2006.06 377.338 2006.06 376.961 Q2006.06 376.715 2006.11 376.584 Q2006.15 376.436 2006.29 376.387 Q2006.43 376.322 2006.51 376.322 Q2006.61 376.305 2006.86 376.305 Q2007.19 376.305 2007.53 376.272 Q2007.88 376.223 2008.3 376.125 Q2008.73 376.027 2008.99 375.781 Q2009.27 375.535 2009.27 375.19 Q2009.27 375.043 2009.15 373.83 Q2009.04 372.616 2008.89 371.206 Q2008.74 369.78 2008.73 369.583 L2000.3 369.583 Q1999.53 370.911 1998.99 371.829 Q1998.45 372.747 1998.25 373.059 Q1998.05 373.37 1997.94 373.567 Q1997.83 373.764 1997.76 373.879 Q1997.28 374.748 1997.28 375.125 Q1997.28 376.174 1998.86 376.305 Q1999.4 376.305 1999.4 376.699 Q1999.4 376.994 1999.27 377.158 Q1999.14 377.305 1999.02 377.322 Q1998.92 377.338 1998.76 377.338 Q1998.22 377.338 1997.09 377.289 Q1995.96 377.24 1995.4 377.24 Q1994.92 377.24 1993.94 377.289 Q1992.96 377.338 1992.51 377.338 Q1992.32 377.338 1992.2 377.223 Q1992.09 377.109 1992.09 376.961 Q1992.09 376.732 1992.12 376.6 Q1992.17 376.469 1992.3 376.404 Q1992.43 376.338 1992.5 376.338 Q1992.56 376.322 1992.79 376.305 Q1994.04 376.223 1995.01 375.633 Q1995.99 375.026 1996.92 373.469 L2008.6 353.86 Q2008.71 353.663 2008.79 353.564 Q2008.88 353.466 2009.04 353.384 Q2009.22 353.302 2009.48 353.302 Q2009.89 353.302 2009.97 353.433 Q2010.06 353.548 2010.11 354.105 L2012.16 375.092 Q2012.2 375.535 2012.24 375.715 Q2012.29 375.879 2012.5 376.059 Q2012.73 376.223 2013.14 376.272 Q2013.57 376.305 2014.35 376.305 Q2014.65 376.305 2014.76 376.322 Q2014.88 376.322 2014.99 376.404 Q2015.12 376.486 2015.12 376.666 M2008.63 368.534 L2007.56 357.467 L2000.94 368.534 L2008.63 368.534 Z" fill="#000000" fill-rule="evenodd" fill-opacity="1" /><path clip-path="url(#clip410)" d="M2020.01 340.816 Q2020.01 332.712 2023.03 326.177 Q2024.32 323.436 2026.12 321.141 Q2027.93 318.846 2029.12 317.839 Q2030.32 316.831 2030.65 316.831 Q2031.11 316.831 2031.14 317.3 Q2031.14 317.534 2030.5 318.12 Q2022.78 325.99 2022.8 340.816 Q2022.8 355.689 2030.32 363.255 Q2031.14 364.074 2031.14 364.332 Q2031.14 364.801 2030.65 364.801 Q2030.32 364.801 2029.17 363.84 Q2028.02 362.88 2026.24 360.678 Q2024.46 358.476 2023.17 355.783 Q2020.01 349.248 2020.01 340.816 Z" fill="#000000" fill-rule="evenodd" fill-opacity="1" /><path clip-path="url(#clip410)" d="M2057.26 334.632 Q2057.26 335.967 2056.44 336.764 Q2055.64 337.56 2054.64 337.56 Q2053.75 337.56 2053.28 337.045 Q2052.81 336.53 2052.81 335.874 Q2052.81 335.593 2052.93 335.241 Q2053.04 334.867 2053.3 334.422 Q2053.58 333.977 2054.17 333.649 Q2054.75 333.321 2055.55 333.274 Q2055.39 333.11 2055.34 333.087 Q2054.99 332.805 2054.33 332.712 Q2054.24 332.665 2053.91 332.665 Q2052.29 332.665 2050.65 333.859 Q2049.04 335.031 2047.05 337.256 Q2044.54 339.856 2042.92 340.816 Q2050.02 341.753 2050.02 345.852 Q2050.02 346.531 2049.83 347.351 Q2049.46 348.897 2049.46 350.021 Q2049.46 352.27 2050.98 352.27 Q2052.46 352.27 2053.39 350.77 Q2054.36 349.271 2055.15 346.344 Q2055.27 345.805 2055.39 345.641 Q2055.5 345.477 2055.83 345.477 Q2056.42 345.477 2056.42 345.945 Q2055.88 348.686 2054.68 350.794 Q2053.16 353.347 2050.89 353.347 Q2048.99 353.347 2047.73 352.035 Q2046.49 350.7 2046.49 348.592 Q2046.49 348.077 2046.67 346.906 Q2046.81 346.437 2046.81 345.899 Q2046.81 344.798 2046.2 343.978 Q2045.6 343.135 2044.61 342.713 Q2043.63 342.292 2042.81 342.104 Q2042.01 341.893 2041.24 341.823 Q2038.9 351.731 2038.57 352.34 Q2038.36 352.761 2037.89 353.042 Q2037.42 353.347 2036.93 353.347 Q2036.46 353.347 2035.99 353.019 Q2035.55 352.715 2035.55 351.988 Q2035.55 351.614 2035.73 350.934 L2042.69 323.296 L2042.83 322.359 Q2042.83 322.078 2042.71 321.937 Q2042.62 321.773 2042.06 321.656 Q2041.52 321.539 2040.44 321.539 Q2040 321.539 2039.79 321.516 Q2039.6 321.492 2039.44 321.375 Q2039.27 321.235 2039.27 320.954 Q2039.27 320.556 2039.44 320.345 Q2039.62 320.11 2039.76 320.064 Q2039.9 320.017 2040.18 319.993 Q2040.58 319.97 2041.92 319.853 Q2043.25 319.712 2044.4 319.619 Q2045.55 319.525 2046.04 319.525 Q2046.32 319.525 2046.46 319.665 Q2046.63 319.783 2046.65 319.923 L2046.67 320.04 L2041.68 340.277 Q2043.74 339.457 2047 335.827 Q2050.77 331.611 2054 331.611 Q2055.53 331.611 2056.39 332.548 Q2057.26 333.461 2057.26 334.632 Z" fill="#000000" fill-rule="evenodd" fill-opacity="1" /><path clip-path="url(#clip410)" d="M2073.6 345.524 Q2073.65 344.938 2074.56 344.938 L2103.95 344.938 Q2105.34 344.938 2105.36 345.477 Q2105.36 346.063 2104.05 346.039 L2074.89 346.039 Q2073.6 346.063 2073.6 345.524 M2073.6 336.155 Q2073.6 335.569 2074.61 335.593 L2103.91 335.593 Q2105.34 335.593 2105.36 336.155 Q2105.36 336.694 2104.14 336.694 L2074.56 336.694 Q2073.6 336.694 2073.6 336.155 Z" fill="#000000" fill-rule="evenodd" fill-opacity="1" /><path clip-path="url(#clip410)" d="M2123.85 337.467 Q2123.85 330.416 2125.63 326.575 Q2128.11 320.86 2133.97 320.86 Q2135.21 320.86 2136.5 321.211 Q2137.81 321.539 2139.45 322.827 Q2141.11 324.116 2142.12 326.224 Q2144.04 330.299 2144.04 337.467 Q2144.04 344.47 2142.26 348.288 Q2139.66 353.862 2133.92 353.862 Q2131.77 353.862 2129.57 352.761 Q2127.39 351.661 2126.01 349.014 Q2123.85 345.055 2123.85 337.467 M2127.83 336.881 Q2127.83 344.118 2128.35 346.999 Q2128.93 350.115 2130.53 351.473 Q2132.14 352.808 2133.92 352.808 Q2135.84 352.808 2137.44 351.379 Q2139.05 349.927 2139.54 346.812 Q2140.08 343.744 2140.06 336.881 Q2140.06 330.206 2139.59 327.535 Q2138.96 324.42 2137.27 323.179 Q2135.61 321.914 2133.92 321.914 Q2133.29 321.914 2132.61 322.101 Q2131.95 322.289 2130.99 322.827 Q2130.03 323.366 2129.28 324.701 Q2128.56 326.036 2128.21 328.051 Q2127.83 330.651 2127.83 336.881 Z" fill="#000000" fill-rule="evenodd" fill-opacity="1" /><path clip-path="url(#clip410)" d="M2148.33 352.035 Q2147.6 351.262 2147.6 350.255 Q2147.6 349.248 2148.33 348.522 Q2149.05 347.772 2150.15 347.772 Q2151.21 347.772 2151.91 348.475 Q2152.64 349.154 2152.64 350.279 Q2152.64 351.379 2151.86 352.106 Q2151.11 352.808 2150.15 352.808 Q2149.05 352.808 2148.33 352.035 Z" fill="#000000" fill-rule="evenodd" fill-opacity="1" /><path clip-path="url(#clip410)" d="M2160.8 337.654 Q2160.8 330.112 2164.64 325.498 Q2168.48 320.86 2173.42 320.86 Q2176.3 320.86 2177.9 322.336 Q2179.51 323.788 2179.51 326.036 Q2179.51 327.278 2178.79 327.816 Q2178.06 328.355 2177.31 328.355 Q2176.44 328.355 2175.76 327.77 Q2175.09 327.184 2175.09 326.13 Q2175.09 323.975 2177.73 323.975 Q2176.49 322.055 2173.52 322.055 Q2172.6 322.055 2171.67 322.336 Q2170.73 322.593 2169.51 323.483 Q2168.29 324.373 2167.36 325.779 Q2166.42 327.184 2165.76 329.831 Q2165.11 332.478 2165.11 335.921 L2165.11 337.068 Q2167.07 332.314 2171.1 332.337 Q2175.13 332.337 2177.92 335.405 Q2180.71 338.474 2180.71 343.018 Q2180.71 347.679 2177.8 350.77 Q2174.9 353.862 2170.82 353.862 Q2169 353.862 2167.33 353.089 Q2165.69 352.34 2164.15 350.607 Q2162.62 348.873 2161.71 345.547 Q2160.8 342.221 2160.8 337.654 M2165.2 341.964 Q2165.2 346.672 2166.07 348.92 Q2166.21 349.295 2166.51 349.81 Q2166.84 350.325 2167.38 351.005 Q2167.94 351.661 2168.85 352.106 Q2169.77 352.527 2170.82 352.527 Q2174.03 352.527 2175.58 349.412 Q2176.4 347.679 2176.4 342.971 Q2176.4 338.169 2175.53 336.413 Q2174.05 333.438 2171.06 333.438 Q2169.04 333.438 2167.64 334.82 Q2166.26 336.202 2165.72 338.052 Q2165.2 339.902 2165.2 341.964 Z" fill="#000000" fill-rule="evenodd" fill-opacity="1" /><path clip-path="url(#clip410)" d="M2183.7 330.252 L2185.27 320.392 L2186.46 320.392 Q2186.6 320.977 2186.84 321.235 Q2187.1 321.492 2188.45 321.703 Q2189.84 321.914 2192.62 321.914 L2204.26 321.914 Q2204.26 323.015 2203.84 323.6 L2197.35 332.712 Q2195.29 335.593 2194.38 340.91 Q2193.84 344.47 2193.86 348.78 L2193.86 351.215 Q2193.86 353.862 2191.64 353.862 Q2189.44 353.862 2189.44 351.215 Q2189.44 342.057 2195.34 333.18 Q2195.97 332.267 2198.29 329.011 Q2200.63 325.755 2200.73 325.615 L2190.8 325.615 Q2186.44 325.615 2186.09 325.896 Q2185.62 326.317 2184.89 330.252 L2183.7 330.252 Z" fill="#000000" fill-rule="evenodd" fill-opacity="1" /><path clip-path="url(#clip410)" d="M2231.63 333.274 Q2231.63 334.913 2229.28 334.913 L2223.8 334.913 Q2222.96 338.802 2222.96 342.549 Q2222.96 347.023 2224.34 350.466 Q2224.62 351.145 2224.62 351.52 Q2224.62 352.223 2223.99 352.785 Q2223.38 353.347 2222.66 353.347 Q2222.05 353.347 2221.65 352.878 Q2221.27 352.41 2220.95 350.934 Q2220.55 349.201 2220.55 347.281 Q2220.55 344.985 2220.92 342.783 Q2221.3 340.558 2222.56 334.913 L2217.15 334.913 L2214.46 345.524 Q2213.5 349.107 2213.17 350.208 Q2212.96 350.864 2212.89 351.075 Q2212.82 351.286 2212.61 351.801 Q2212.42 352.293 2212.28 352.48 Q2212.14 352.644 2211.91 352.902 Q2211.67 353.183 2211.39 353.253 Q2211.11 353.347 2210.76 353.347 Q2210.22 353.347 2209.8 352.996 Q2209.38 352.668 2209.38 352.035 Q2209.38 351.614 2209.75 350.888 Q2214.2 341.284 2215.89 334.913 L2213.17 334.913 Q2209.42 334.913 2207.08 338.614 Q2206.71 339.106 2206.49 339.153 Q2206.4 339.176 2206.31 339.176 Q2206.05 339.176 2205.89 339.059 Q2205.75 338.942 2205.75 338.825 L2205.72 338.708 Q2205.72 338.567 2206.07 337.935 Q2206.45 337.279 2207.15 336.272 Q2207.88 335.265 2208.65 334.398 Q2209.4 333.602 2210.13 333.11 Q2210.87 332.595 2211.58 332.407 Q2212.28 332.22 2212.68 332.173 Q2213.08 332.126 2213.64 332.126 L2229.71 332.126 Q2230.32 332.126 2230.64 332.173 Q2230.97 332.196 2231.3 332.478 Q2231.63 332.735 2231.63 333.274 Z" fill="#000000" fill-rule="evenodd" fill-opacity="1" /><path clip-path="url(#clip410)" d="M2236.05 364.332 Q2236.05 364.098 2236.66 363.512 Q2244.39 355.642 2244.39 340.816 Q2244.39 325.943 2236.97 318.424 Q2236.05 317.557 2236.05 317.3 Q2236.05 316.831 2236.52 316.831 Q2236.85 316.831 2238 317.792 Q2239.17 318.752 2240.92 320.954 Q2242.7 323.155 2244.02 325.849 Q2247.18 332.384 2247.18 340.816 Q2247.18 348.92 2244.16 355.455 Q2242.87 358.195 2241.06 360.491 Q2239.26 362.786 2238.07 363.793 Q2236.87 364.801 2236.52 364.801 Q2236.05 364.801 2236.05 364.332 Z" fill="#000000" fill-rule="evenodd" fill-opacity="1" /><polyline clip-path="url(#clip410)" style="stroke:#c271d2; stroke-linecap:round; stroke-linejoin:round; stroke-width:4; stroke-opacity:1; fill:none" points="1796.04,407.416 1940.47,407.416 "/>
<path clip-path="url(#clip410)" d="M1987.19 399.589 Q1987.19 403.056 1985.41 406.311 Q1983.66 409.567 1980.89 411.534 Q1978.15 413.502 1975.39 413.502 Q1972.27 413.502 1970.66 410.27 Q1967.73 422.004 1967.57 422.309 Q1966.89 423.316 1965.9 423.316 Q1965.29 423.316 1964.92 422.941 Q1964.54 422.59 1964.54 422.028 Q1964.57 421.84 1964.71 421.255 L1969.39 402.4 Q1970.47 398.02 1973.73 394.905 Q1977.01 391.766 1980.52 391.766 Q1983.31 391.766 1985.25 393.851 Q1987.19 395.935 1987.19 399.589 M1983.75 397.528 Q1983.75 395.186 1982.81 394.014 Q1981.88 392.82 1980.43 392.82 Q1979.09 392.82 1977.47 393.897 Q1975.88 394.975 1974.48 397.364 Q1973.73 398.746 1973.19 400.456 Q1972.65 402.165 1971.59 406.382 Q1971.22 408.068 1971.22 408.162 Q1971.22 408.349 1971.31 408.771 Q1971.43 409.192 1971.71 409.848 Q1972.02 410.48 1972.44 411.043 Q1972.86 411.605 1973.63 412.026 Q1974.41 412.425 1975.34 412.425 Q1976.79 412.425 1978.34 411.253 Q1979.91 410.059 1981.06 407.881 Q1982.02 406.124 1982.88 402.821 Q1983.75 399.495 1983.75 397.528 Z" fill="#000000" fill-rule="evenodd" fill-opacity="1" /><path clip-path="url(#clip410)" d="M2015.12 436.821 Q2015.12 437.133 2014.99 437.296 Q2014.88 437.444 2014.76 437.477 Q2014.66 437.493 2014.52 437.493 Q2014.09 437.493 2012.61 437.444 Q2011.14 437.395 2010.71 437.395 Q2010.02 437.395 2008.61 437.444 Q2007.2 437.493 2006.51 437.493 Q2006.06 437.493 2006.06 437.116 Q2006.06 436.87 2006.11 436.739 Q2006.15 436.591 2006.29 436.542 Q2006.43 436.477 2006.51 436.477 Q2006.61 436.46 2006.86 436.46 Q2007.19 436.46 2007.53 436.427 Q2007.88 436.378 2008.3 436.28 Q2008.73 436.182 2008.99 435.936 Q2009.27 435.69 2009.27 435.345 Q2009.27 435.198 2009.15 433.985 Q2009.04 432.771 2008.89 431.361 Q2008.74 429.935 2008.73 429.738 L2000.3 429.738 Q1999.53 431.066 1998.99 431.984 Q1998.45 432.902 1998.25 433.214 Q1998.05 433.525 1997.94 433.722 Q1997.83 433.919 1997.76 434.034 Q1997.28 434.903 1997.28 435.28 Q1997.28 436.329 1998.86 436.46 Q1999.4 436.46 1999.4 436.854 Q1999.4 437.149 1999.27 437.313 Q1999.14 437.46 1999.02 437.477 Q1998.92 437.493 1998.76 437.493 Q1998.22 437.493 1997.09 437.444 Q1995.96 437.395 1995.4 437.395 Q1994.92 437.395 1993.94 437.444 Q1992.96 437.493 1992.51 437.493 Q1992.32 437.493 1992.2 437.378 Q1992.09 437.264 1992.09 437.116 Q1992.09 436.887 1992.12 436.755 Q1992.17 436.624 1992.3 436.559 Q1992.43 436.493 1992.5 436.493 Q1992.56 436.477 1992.79 436.46 Q1994.04 436.378 1995.01 435.788 Q1995.99 435.181 1996.92 433.624 L2008.6 414.015 Q2008.71 413.818 2008.79 413.719 Q2008.88 413.621 2009.04 413.539 Q2009.22 413.457 2009.48 413.457 Q2009.89 413.457 2009.97 413.588 Q2010.06 413.703 2010.11 414.26 L2012.16 435.247 Q2012.2 435.69 2012.24 435.87 Q2012.29 436.034 2012.5 436.214 Q2012.73 436.378 2013.14 436.427 Q2013.57 436.46 2014.35 436.46 Q2014.65 436.46 2014.76 436.477 Q2014.88 436.477 2014.99 436.559 Q2015.12 436.641 2015.12 436.821 M2008.63 428.689 L2007.56 417.622 L2000.94 428.689 L2008.63 428.689 Z" fill="#000000" fill-rule="evenodd" fill-opacity="1" /><path clip-path="url(#clip410)" d="M2020.01 400.971 Q2020.01 392.867 2023.03 386.332 Q2024.32 383.591 2026.12 381.296 Q2027.93 379.001 2029.12 377.994 Q2030.32 376.986 2030.65 376.986 Q2031.11 376.986 2031.14 377.455 Q2031.14 377.689 2030.5 378.275 Q2022.78 386.145 2022.8 400.971 Q2022.8 415.844 2030.32 423.41 Q2031.14 424.229 2031.14 424.487 Q2031.14 424.956 2030.65 424.956 Q2030.32 424.956 2029.17 423.995 Q2028.02 423.035 2026.24 420.833 Q2024.46 418.631 2023.17 415.938 Q2020.01 409.403 2020.01 400.971 Z" fill="#000000" fill-rule="evenodd" fill-opacity="1" /><path clip-path="url(#clip410)" d="M2057.26 394.787 Q2057.26 396.122 2056.44 396.919 Q2055.64 397.715 2054.64 397.715 Q2053.75 397.715 2053.28 397.2 Q2052.81 396.685 2052.81 396.029 Q2052.81 395.748 2052.93 395.396 Q2053.04 395.022 2053.3 394.577 Q2053.58 394.132 2054.17 393.804 Q2054.75 393.476 2055.55 393.429 Q2055.39 393.265 2055.34 393.242 Q2054.99 392.96 2054.33 392.867 Q2054.24 392.82 2053.91 392.82 Q2052.29 392.82 2050.65 394.014 Q2049.04 395.186 2047.05 397.411 Q2044.54 400.011 2042.92 400.971 Q2050.02 401.908 2050.02 406.007 Q2050.02 406.686 2049.83 407.506 Q2049.46 409.052 2049.46 410.176 Q2049.46 412.425 2050.98 412.425 Q2052.46 412.425 2053.39 410.925 Q2054.36 409.426 2055.15 406.499 Q2055.27 405.96 2055.39 405.796 Q2055.5 405.632 2055.83 405.632 Q2056.42 405.632 2056.42 406.1 Q2055.88 408.841 2054.68 410.949 Q2053.16 413.502 2050.89 413.502 Q2048.99 413.502 2047.73 412.19 Q2046.49 410.855 2046.49 408.747 Q2046.49 408.232 2046.67 407.061 Q2046.81 406.592 2046.81 406.054 Q2046.81 404.953 2046.2 404.133 Q2045.6 403.29 2044.61 402.868 Q2043.63 402.447 2042.81 402.259 Q2042.01 402.048 2041.24 401.978 Q2038.9 411.886 2038.57 412.495 Q2038.36 412.916 2037.89 413.197 Q2037.42 413.502 2036.93 413.502 Q2036.46 413.502 2035.99 413.174 Q2035.55 412.87 2035.55 412.143 Q2035.55 411.769 2035.73 411.089 L2042.69 383.451 L2042.83 382.514 Q2042.83 382.233 2042.71 382.092 Q2042.62 381.928 2042.06 381.811 Q2041.52 381.694 2040.44 381.694 Q2040 381.694 2039.79 381.671 Q2039.6 381.647 2039.44 381.53 Q2039.27 381.39 2039.27 381.109 Q2039.27 380.711 2039.44 380.5 Q2039.62 380.265 2039.76 380.219 Q2039.9 380.172 2040.18 380.148 Q2040.58 380.125 2041.92 380.008 Q2043.25 379.867 2044.4 379.774 Q2045.55 379.68 2046.04 379.68 Q2046.32 379.68 2046.46 379.82 Q2046.63 379.938 2046.65 380.078 L2046.67 380.195 L2041.68 400.432 Q2043.74 399.612 2047 395.982 Q2050.77 391.766 2054 391.766 Q2055.53 391.766 2056.39 392.703 Q2057.26 393.616 2057.26 394.787 Z" fill="#000000" fill-rule="evenodd" fill-opacity="1" /><path clip-path="url(#clip410)" d="M2073.6 405.679 Q2073.65 405.093 2074.56 405.093 L2103.95 405.093 Q2105.34 405.093 2105.36 405.632 Q2105.36 406.218 2104.05 406.194 L2074.89 406.194 Q2073.6 406.218 2073.6 405.679 M2073.6 396.31 Q2073.6 395.724 2074.61 395.748 L2103.91 395.748 Q2105.34 395.748 2105.36 396.31 Q2105.36 396.849 2104.14 396.849 L2074.56 396.849 Q2073.6 396.849 2073.6 396.31 Z" fill="#000000" fill-rule="evenodd" fill-opacity="1" /><path clip-path="url(#clip410)" d="M2123.85 385.582 L2123.85 384.083 Q2129.61 384.083 2132.59 381.015 Q2133.41 381.015 2133.55 381.202 Q2133.69 381.39 2133.69 382.256 L2133.69 409.169 Q2133.69 410.598 2134.39 411.043 Q2135.09 411.488 2138.16 411.488 L2139.68 411.488 L2139.68 412.963 Q2138 412.823 2131.91 412.823 Q2125.82 412.823 2124.16 412.963 L2124.16 411.488 L2125.68 411.488 Q2128.7 411.488 2129.43 411.066 Q2130.15 410.621 2130.15 409.169 L2130.15 384.318 Q2127.65 385.582 2123.85 385.582 Z" fill="#000000" fill-rule="evenodd" fill-opacity="1" /><path clip-path="url(#clip410)" d="M2143.45 412.19 Q2142.73 411.417 2142.73 410.41 Q2142.73 409.403 2143.45 408.677 Q2144.18 407.927 2145.28 407.927 Q2146.33 407.927 2147.04 408.63 Q2147.76 409.309 2147.76 410.434 Q2147.76 411.534 2146.99 412.261 Q2146.24 412.963 2145.28 412.963 Q2144.18 412.963 2143.45 412.19 Z" fill="#000000" fill-rule="evenodd" fill-opacity="1" /><path clip-path="url(#clip410)" d="M2155.92 397.622 Q2155.92 390.571 2157.7 386.73 Q2160.19 381.015 2166.04 381.015 Q2167.28 381.015 2168.57 381.366 Q2169.88 381.694 2171.52 382.982 Q2173.18 384.271 2174.19 386.379 Q2176.11 390.454 2176.11 397.622 Q2176.11 404.625 2174.33 408.443 Q2171.73 414.017 2165.99 414.017 Q2163.84 414.017 2161.64 412.916 Q2159.46 411.816 2158.08 409.169 Q2155.92 405.21 2155.92 397.622 M2159.9 397.036 Q2159.9 404.273 2160.42 407.154 Q2161.01 410.27 2162.6 411.628 Q2164.21 412.963 2165.99 412.963 Q2167.91 412.963 2169.51 411.534 Q2171.12 410.082 2171.62 406.967 Q2172.15 403.899 2172.13 397.036 Q2172.13 390.361 2171.66 387.69 Q2171.03 384.575 2169.34 383.334 Q2167.68 382.069 2165.99 382.069 Q2165.36 382.069 2164.68 382.256 Q2164.03 382.444 2163.07 382.982 Q2162.11 383.521 2161.36 384.856 Q2160.63 386.191 2160.28 388.206 Q2159.9 390.806 2159.9 397.036 Z" fill="#000000" fill-rule="evenodd" fill-opacity="1" /><path clip-path="url(#clip410)" d="M2204.81 393.429 Q2204.81 395.068 2202.47 395.068 L2196.99 395.068 Q2196.14 398.957 2196.14 402.704 Q2196.14 407.178 2197.53 410.621 Q2197.81 411.3 2197.81 411.675 Q2197.81 412.378 2197.17 412.94 Q2196.57 413.502 2195.84 413.502 Q2195.23 413.502 2194.83 413.033 Q2194.46 412.565 2194.13 411.089 Q2193.73 409.356 2193.73 407.436 Q2193.73 405.14 2194.11 402.938 Q2194.48 400.713 2195.75 395.068 L2190.33 395.068 L2187.64 405.679 Q2186.68 409.262 2186.35 410.363 Q2186.14 411.019 2186.07 411.23 Q2186 411.441 2185.79 411.956 Q2185.6 412.448 2185.46 412.635 Q2185.32 412.799 2185.09 413.057 Q2184.85 413.338 2184.57 413.408 Q2184.29 413.502 2183.94 413.502 Q2183.4 413.502 2182.98 413.151 Q2182.56 412.823 2182.56 412.19 Q2182.56 411.769 2182.93 411.043 Q2187.38 401.439 2189.07 395.068 L2186.35 395.068 Q2182.61 395.068 2180.26 398.769 Q2179.89 399.261 2179.68 399.308 Q2179.58 399.331 2179.49 399.331 Q2179.23 399.331 2179.07 399.214 Q2178.93 399.097 2178.93 398.98 L2178.9 398.863 Q2178.9 398.722 2179.26 398.09 Q2179.63 397.434 2180.33 396.427 Q2181.06 395.42 2181.83 394.553 Q2182.58 393.757 2183.31 393.265 Q2184.06 392.75 2184.76 392.562 Q2185.46 392.375 2185.86 392.328 Q2186.26 392.281 2186.82 392.281 L2202.89 392.281 Q2203.5 392.281 2203.83 392.328 Q2204.15 392.351 2204.48 392.633 Q2204.81 392.89 2204.81 393.429 Z" fill="#000000" fill-rule="evenodd" fill-opacity="1" /><path clip-path="url(#clip410)" d="M2209.24 424.487 Q2209.24 424.253 2209.84 423.667 Q2217.57 415.797 2217.57 400.971 Q2217.57 386.098 2210.15 378.579 Q2209.24 377.712 2209.24 377.455 Q2209.24 376.986 2209.7 376.986 Q2210.03 376.986 2211.18 377.947 Q2212.35 378.907 2214.11 381.109 Q2215.89 383.31 2217.2 386.004 Q2220.36 392.539 2220.36 400.971 Q2220.36 409.075 2217.34 415.61 Q2216.05 418.35 2214.25 420.646 Q2212.44 422.941 2211.25 423.948 Q2210.06 424.956 2209.7 424.956 Q2209.24 424.956 2209.24 424.487 Z" fill="#000000" fill-rule="evenodd" fill-opacity="1" /></svg>
