<?xml version="1.0" encoding="utf-8"?>
<svg xmlns="http://www.w3.org/2000/svg" xmlns:xlink="http://www.w3.org/1999/xlink" width="600" height="400" viewBox="0 0 2400 1600">
<defs>
  <clipPath id="clip150">
    <rect x="0" y="0" width="2400" height="1600"/>
  </clipPath>
</defs>
<path clip-path="url(#clip150)" d="M0 1600 L2400 1600 L2400 0 L0 0  Z" fill="#ffffff" fill-rule="evenodd" fill-opacity="1"/>
<defs>
  <clipPath id="clip151">
    <rect x="480" y="0" width="1681" height="1600"/>
  </clipPath>
</defs>
<path clip-path="url(#clip150)" d="M219.866 1423.18 L2352.76 1423.18 L2352.76 47.2441 L219.866 47.2441  Z" fill="#ffffff" fill-rule="evenodd" fill-opacity="1"/>
<defs>
  <clipPath id="clip152">
    <rect x="219" y="47" width="2134" height="1377"/>
  </clipPath>
</defs>
<polyline clip-path="url(#clip152)" style="stroke:#000000; stroke-linecap:round; stroke-linejoin:round; stroke-width:2; stroke-opacity:0.1; fill:none" points="448.253,1423.18 448.253,47.2441 "/>
<polyline clip-path="url(#clip152)" style="stroke:#000000; stroke-linecap:round; stroke-linejoin:round; stroke-width:2; stroke-opacity:0.1; fill:none" points="923.636,1423.18 923.636,47.2441 "/>
<polyline clip-path="url(#clip152)" style="stroke:#000000; stroke-linecap:round; stroke-linejoin:round; stroke-width:2; stroke-opacity:0.1; fill:none" points="1399.02,1423.18 1399.02,47.2441 "/>
<polyline clip-path="url(#clip152)" style="stroke:#000000; stroke-linecap:round; stroke-linejoin:round; stroke-width:2; stroke-opacity:0.1; fill:none" points="1874.4,1423.18 1874.4,47.2441 "/>
<polyline clip-path="url(#clip152)" style="stroke:#000000; stroke-linecap:round; stroke-linejoin:round; stroke-width:2; stroke-opacity:0.1; fill:none" points="2349.79,1423.18 2349.79,47.2441 "/>
<polyline clip-path="url(#clip150)" style="stroke:#000000; stroke-linecap:round; stroke-linejoin:round; stroke-width:4; stroke-opacity:1; fill:none" points="219.866,1423.18 2352.76,1423.18 "/>
<polyline clip-path="url(#clip150)" style="stroke:#000000; stroke-linecap:round; stroke-linejoin:round; stroke-width:4; stroke-opacity:1; fill:none" points="448.253,1423.18 448.253,1404.28 "/>
<polyline clip-path="url(#clip150)" style="stroke:#000000; stroke-linecap:round; stroke-linejoin:round; stroke-width:4; stroke-opacity:1; fill:none" points="923.636,1423.18 923.636,1404.28 "/>
<polyline clip-path="url(#clip150)" style="stroke:#000000; stroke-linecap:round; stroke-linejoin:round; stroke-width:4; stroke-opacity:1; fill:none" points="1399.02,1423.18 1399.02,1404.28 "/>
<polyline clip-path="url(#clip150)" style="stroke:#000000; stroke-linecap:round; stroke-linejoin:round; stroke-width:4; stroke-opacity:1; fill:none" points="1874.4,1423.18 1874.4,1404.28 "/>
<polyline clip-path="url(#clip150)" style="stroke:#000000; stroke-linecap:round; stroke-linejoin:round; stroke-width:4; stroke-opacity:1; fill:none" points="2349.79,1423.18 2349.79,1404.28 "/>
<path clip-path="url(#clip150)" d="M410.556 1454.1 Q406.945 1454.1 405.116 1457.66 Q403.311 1461.2 403.311 1468.33 Q403.311 1475.44 405.116 1479.01 Q406.945 1482.55 410.556 1482.55 Q414.19 1482.55 415.996 1479.01 Q417.824 1475.44 417.824 1468.33 Q417.824 1461.2 415.996 1457.66 Q414.19 1454.1 410.556 1454.1 M410.556 1450.39 Q416.366 1450.39 419.422 1455 Q422.5 1459.58 422.5 1468.33 Q422.5 1477.06 419.422 1481.67 Q416.366 1486.25 410.556 1486.25 Q404.746 1486.25 401.667 1481.67 Q398.612 1477.06 398.612 1468.33 Q398.612 1459.58 401.667 1455 Q404.746 1450.39 410.556 1450.39 Z" fill="#000000" fill-rule="evenodd" fill-opacity="1" /><path clip-path="url(#clip150)" d="M430.718 1479.7 L435.602 1479.7 L435.602 1485.58 L430.718 1485.58 L430.718 1479.7 Z" fill="#000000" fill-rule="evenodd" fill-opacity="1" /><path clip-path="url(#clip150)" d="M455.787 1454.1 Q452.176 1454.1 450.347 1457.66 Q448.542 1461.2 448.542 1468.33 Q448.542 1475.44 450.347 1479.01 Q452.176 1482.55 455.787 1482.55 Q459.421 1482.55 461.227 1479.01 Q463.056 1475.44 463.056 1468.33 Q463.056 1461.2 461.227 1457.66 Q459.421 1454.1 455.787 1454.1 M455.787 1450.39 Q461.597 1450.39 464.653 1455 Q467.732 1459.58 467.732 1468.33 Q467.732 1477.06 464.653 1481.67 Q461.597 1486.25 455.787 1486.25 Q449.977 1486.25 446.898 1481.67 Q443.843 1477.06 443.843 1468.33 Q443.843 1459.58 446.898 1455 Q449.977 1450.39 455.787 1450.39 Z" fill="#000000" fill-rule="evenodd" fill-opacity="1" /><path clip-path="url(#clip150)" d="M485.949 1454.1 Q482.338 1454.1 480.509 1457.66 Q478.704 1461.2 478.704 1468.33 Q478.704 1475.44 480.509 1479.01 Q482.338 1482.55 485.949 1482.55 Q489.583 1482.55 491.389 1479.01 Q493.218 1475.44 493.218 1468.33 Q493.218 1461.2 491.389 1457.66 Q489.583 1454.1 485.949 1454.1 M485.949 1450.39 Q491.759 1450.39 494.815 1455 Q497.894 1459.58 497.894 1468.33 Q497.894 1477.06 494.815 1481.67 Q491.759 1486.25 485.949 1486.25 Q480.139 1486.25 477.06 1481.67 Q474.005 1477.06 474.005 1468.33 Q474.005 1459.58 477.06 1455 Q480.139 1450.39 485.949 1450.39 Z" fill="#000000" fill-rule="evenodd" fill-opacity="1" /><path clip-path="url(#clip150)" d="M886.437 1454.1 Q882.826 1454.1 880.997 1457.66 Q879.192 1461.2 879.192 1468.33 Q879.192 1475.44 880.997 1479.01 Q882.826 1482.55 886.437 1482.55 Q890.071 1482.55 891.877 1479.01 Q893.706 1475.44 893.706 1468.33 Q893.706 1461.2 891.877 1457.66 Q890.071 1454.1 886.437 1454.1 M886.437 1450.39 Q892.247 1450.39 895.303 1455 Q898.382 1459.58 898.382 1468.33 Q898.382 1477.06 895.303 1481.67 Q892.247 1486.25 886.437 1486.25 Q880.627 1486.25 877.548 1481.67 Q874.493 1477.06 874.493 1468.33 Q874.493 1459.58 877.548 1455 Q880.627 1450.39 886.437 1450.39 Z" fill="#000000" fill-rule="evenodd" fill-opacity="1" /><path clip-path="url(#clip150)" d="M906.599 1479.7 L911.483 1479.7 L911.483 1485.58 L906.599 1485.58 L906.599 1479.7 Z" fill="#000000" fill-rule="evenodd" fill-opacity="1" /><path clip-path="url(#clip150)" d="M925.696 1481.64 L942.016 1481.64 L942.016 1485.58 L920.071 1485.58 L920.071 1481.64 Q922.733 1478.89 927.317 1474.26 Q931.923 1469.61 933.104 1468.27 Q935.349 1465.74 936.229 1464.01 Q937.131 1462.25 937.131 1460.56 Q937.131 1457.8 935.187 1456.07 Q933.266 1454.33 930.164 1454.33 Q927.965 1454.33 925.511 1455.09 Q923.08 1455.86 920.303 1457.41 L920.303 1452.69 Q923.127 1451.55 925.58 1450.97 Q928.034 1450.39 930.071 1450.39 Q935.441 1450.39 938.636 1453.08 Q941.83 1455.77 941.83 1460.26 Q941.83 1462.39 941.02 1464.31 Q940.233 1466.2 938.127 1468.8 Q937.548 1469.47 934.446 1472.69 Q931.344 1475.88 925.696 1481.64 Z" fill="#000000" fill-rule="evenodd" fill-opacity="1" /><path clip-path="url(#clip150)" d="M951.877 1451.02 L970.233 1451.02 L970.233 1454.96 L956.159 1454.96 L956.159 1463.43 Q957.177 1463.08 958.196 1462.92 Q959.215 1462.73 960.233 1462.73 Q966.02 1462.73 969.4 1465.9 Q972.779 1469.08 972.779 1474.49 Q972.779 1480.07 969.307 1483.17 Q965.835 1486.25 959.515 1486.25 Q957.34 1486.25 955.071 1485.88 Q952.826 1485.51 950.418 1484.77 L950.418 1480.07 Q952.502 1481.2 954.724 1481.76 Q956.946 1482.32 959.423 1482.32 Q963.427 1482.32 965.765 1480.21 Q968.103 1478.1 968.103 1474.49 Q968.103 1470.88 965.765 1468.77 Q963.427 1466.67 959.423 1466.67 Q957.548 1466.67 955.673 1467.08 Q953.821 1467.5 951.877 1468.38 L951.877 1451.02 Z" fill="#000000" fill-rule="evenodd" fill-opacity="1" /><path clip-path="url(#clip150)" d="M1361.32 1454.1 Q1357.71 1454.1 1355.88 1457.66 Q1354.08 1461.2 1354.08 1468.33 Q1354.08 1475.44 1355.88 1479.01 Q1357.71 1482.55 1361.32 1482.55 Q1364.96 1482.55 1366.76 1479.01 Q1368.59 1475.44 1368.59 1468.33 Q1368.59 1461.2 1366.76 1457.66 Q1364.96 1454.1 1361.32 1454.1 M1361.32 1450.39 Q1367.13 1450.39 1370.19 1455 Q1373.27 1459.58 1373.27 1468.33 Q1373.27 1477.06 1370.19 1481.67 Q1367.13 1486.25 1361.32 1486.25 Q1355.51 1486.25 1352.43 1481.67 Q1349.38 1477.06 1349.38 1468.33 Q1349.38 1459.58 1352.43 1455 Q1355.51 1450.39 1361.32 1450.39 Z" fill="#000000" fill-rule="evenodd" fill-opacity="1" /><path clip-path="url(#clip150)" d="M1381.48 1479.7 L1386.37 1479.7 L1386.37 1485.58 L1381.48 1485.58 L1381.48 1479.7 Z" fill="#000000" fill-rule="evenodd" fill-opacity="1" /><path clip-path="url(#clip150)" d="M1396.6 1451.02 L1414.96 1451.02 L1414.96 1454.96 L1400.88 1454.96 L1400.88 1463.43 Q1401.9 1463.08 1402.92 1462.92 Q1403.94 1462.73 1404.96 1462.73 Q1410.74 1462.73 1414.12 1465.9 Q1417.5 1469.08 1417.5 1474.49 Q1417.5 1480.07 1414.03 1483.17 Q1410.56 1486.25 1404.24 1486.25 Q1402.06 1486.25 1399.79 1485.88 Q1397.55 1485.51 1395.14 1484.77 L1395.14 1480.07 Q1397.23 1481.2 1399.45 1481.76 Q1401.67 1482.32 1404.15 1482.32 Q1408.15 1482.32 1410.49 1480.21 Q1412.83 1478.1 1412.83 1474.49 Q1412.83 1470.88 1410.49 1468.77 Q1408.15 1466.67 1404.15 1466.67 Q1402.27 1466.67 1400.4 1467.08 Q1398.54 1467.5 1396.6 1468.38 L1396.6 1451.02 Z" fill="#000000" fill-rule="evenodd" fill-opacity="1" /><path clip-path="url(#clip150)" d="M1436.72 1454.1 Q1433.1 1454.1 1431.28 1457.66 Q1429.47 1461.2 1429.47 1468.33 Q1429.47 1475.44 1431.28 1479.01 Q1433.1 1482.55 1436.72 1482.55 Q1440.35 1482.55 1442.16 1479.01 Q1443.98 1475.44 1443.98 1468.33 Q1443.98 1461.2 1442.16 1457.66 Q1440.35 1454.1 1436.72 1454.1 M1436.72 1450.39 Q1442.53 1450.39 1445.58 1455 Q1448.66 1459.58 1448.66 1468.33 Q1448.66 1477.06 1445.58 1481.67 Q1442.53 1486.25 1436.72 1486.25 Q1430.91 1486.25 1427.83 1481.67 Q1424.77 1477.06 1424.77 1468.33 Q1424.77 1459.58 1427.83 1455 Q1430.91 1450.39 1436.72 1450.39 Z" fill="#000000" fill-rule="evenodd" fill-opacity="1" /><path clip-path="url(#clip150)" d="M1837.2 1454.1 Q1833.59 1454.1 1831.76 1457.66 Q1829.96 1461.2 1829.96 1468.33 Q1829.96 1475.44 1831.76 1479.01 Q1833.59 1482.55 1837.2 1482.55 Q1840.84 1482.55 1842.64 1479.01 Q1844.47 1475.44 1844.47 1468.33 Q1844.47 1461.2 1842.64 1457.66 Q1840.84 1454.1 1837.2 1454.1 M1837.2 1450.39 Q1843.01 1450.39 1846.07 1455 Q1849.15 1459.58 1849.15 1468.33 Q1849.15 1477.06 1846.07 1481.67 Q1843.01 1486.25 1837.2 1486.25 Q1831.39 1486.25 1828.32 1481.67 Q1825.26 1477.06 1825.26 1468.33 Q1825.26 1459.58 1828.32 1455 Q1831.39 1450.39 1837.2 1450.39 Z" fill="#000000" fill-rule="evenodd" fill-opacity="1" /><path clip-path="url(#clip150)" d="M1857.37 1479.7 L1862.25 1479.7 L1862.25 1485.58 L1857.37 1485.58 L1857.37 1479.7 Z" fill="#000000" fill-rule="evenodd" fill-opacity="1" /><path clip-path="url(#clip150)" d="M1871.25 1451.02 L1893.48 1451.02 L1893.48 1453.01 L1880.93 1485.58 L1876.05 1485.58 L1887.85 1454.96 L1871.25 1454.96 L1871.25 1451.02 Z" fill="#000000" fill-rule="evenodd" fill-opacity="1" /><path clip-path="url(#clip150)" d="M1902.64 1451.02 L1921 1451.02 L1921 1454.96 L1906.93 1454.96 L1906.93 1463.43 Q1907.94 1463.08 1908.96 1462.92 Q1909.98 1462.73 1911 1462.73 Q1916.79 1462.73 1920.17 1465.9 Q1923.55 1469.08 1923.55 1474.49 Q1923.55 1480.07 1920.07 1483.17 Q1916.6 1486.25 1910.28 1486.25 Q1908.11 1486.25 1905.84 1485.88 Q1903.59 1485.51 1901.19 1484.77 L1901.19 1480.07 Q1903.27 1481.2 1905.49 1481.76 Q1907.71 1482.32 1910.19 1482.32 Q1914.19 1482.32 1916.53 1480.21 Q1918.87 1478.1 1918.87 1474.49 Q1918.87 1470.88 1916.53 1468.77 Q1914.19 1466.67 1910.19 1466.67 Q1908.31 1466.67 1906.44 1467.08 Q1904.59 1467.5 1902.64 1468.38 L1902.64 1451.02 Z" fill="#000000" fill-rule="evenodd" fill-opacity="1" /><path clip-path="url(#clip150)" d="M2301.86 1481.64 L2309.5 1481.64 L2309.5 1455.28 L2301.19 1456.95 L2301.19 1452.69 L2309.45 1451.02 L2314.13 1451.02 L2314.13 1481.64 L2321.77 1481.64 L2321.77 1485.58 L2301.86 1485.58 L2301.86 1481.64 Z" fill="#000000" fill-rule="evenodd" fill-opacity="1" /><path clip-path="url(#clip150)" d="M2331.21 1479.7 L2336.09 1479.7 L2336.09 1485.58 L2331.21 1485.58 L2331.21 1479.7 Z" fill="#000000" fill-rule="evenodd" fill-opacity="1" /><path clip-path="url(#clip150)" d="M2356.28 1454.1 Q2352.67 1454.1 2350.84 1457.66 Q2349.03 1461.2 2349.03 1468.33 Q2349.03 1475.44 2350.84 1479.01 Q2352.67 1482.55 2356.28 1482.55 Q2359.91 1482.55 2361.72 1479.01 Q2363.55 1475.44 2363.55 1468.33 Q2363.55 1461.2 2361.72 1457.66 Q2359.91 1454.1 2356.28 1454.1 M2356.28 1450.39 Q2362.09 1450.39 2365.14 1455 Q2368.22 1459.58 2368.22 1468.33 Q2368.22 1477.06 2365.14 1481.67 Q2362.09 1486.25 2356.28 1486.25 Q2350.47 1486.25 2347.39 1481.67 Q2344.33 1477.06 2344.33 1468.33 Q2344.33 1459.58 2347.39 1455 Q2350.47 1450.39 2356.28 1450.39 Z" fill="#000000" fill-rule="evenodd" fill-opacity="1" /><path clip-path="url(#clip150)" d="M2386.44 1454.1 Q2382.83 1454.1 2381 1457.66 Q2379.2 1461.2 2379.2 1468.33 Q2379.2 1475.44 2381 1479.01 Q2382.83 1482.55 2386.44 1482.55 Q2390.08 1482.55 2391.88 1479.01 Q2393.71 1475.44 2393.71 1468.33 Q2393.71 1461.2 2391.88 1457.66 Q2390.08 1454.1 2386.44 1454.1 M2386.44 1450.39 Q2392.25 1450.39 2395.31 1455 Q2398.39 1459.58 2398.39 1468.33 Q2398.39 1477.06 2395.31 1481.67 Q2392.25 1486.25 2386.44 1486.25 Q2380.63 1486.25 2377.55 1481.67 Q2374.5 1477.06 2374.5 1468.33 Q2374.5 1459.58 2377.55 1455 Q2380.63 1450.39 2386.44 1450.39 Z" fill="#000000" fill-rule="evenodd" fill-opacity="1" /><path clip-path="url(#clip150)" d="M1271 1520.52 L1301.05 1520.52 L1301.05 1525.93 L1277.43 1525.93 L1277.43 1540 L1300.06 1540 L1300.06 1545.41 L1277.43 1545.41 L1277.43 1562.63 L1301.62 1562.63 L1301.62 1568.04 L1271 1568.04 L1271 1520.52 Z" fill="#000000" fill-rule="evenodd" fill-opacity="1" /><polyline clip-path="url(#clip152)" style="stroke:#000000; stroke-linecap:round; stroke-linejoin:round; stroke-width:2; stroke-opacity:0.1; fill:none" points="219.866,1384.24 2352.76,1384.24 "/>
<polyline clip-path="url(#clip152)" style="stroke:#000000; stroke-linecap:round; stroke-linejoin:round; stroke-width:2; stroke-opacity:0.1; fill:none" points="219.866,1133.54 2352.76,1133.54 "/>
<polyline clip-path="url(#clip152)" style="stroke:#000000; stroke-linecap:round; stroke-linejoin:round; stroke-width:2; stroke-opacity:0.1; fill:none" points="219.866,882.849 2352.76,882.849 "/>
<polyline clip-path="url(#clip152)" style="stroke:#000000; stroke-linecap:round; stroke-linejoin:round; stroke-width:2; stroke-opacity:0.1; fill:none" points="219.866,632.154 2352.76,632.154 "/>
<polyline clip-path="url(#clip152)" style="stroke:#000000; stroke-linecap:round; stroke-linejoin:round; stroke-width:2; stroke-opacity:0.1; fill:none" points="219.866,381.46 2352.76,381.46 "/>
<polyline clip-path="url(#clip152)" style="stroke:#000000; stroke-linecap:round; stroke-linejoin:round; stroke-width:2; stroke-opacity:0.1; fill:none" points="219.866,130.765 2352.76,130.765 "/>
<polyline clip-path="url(#clip150)" style="stroke:#000000; stroke-linecap:round; stroke-linejoin:round; stroke-width:4; stroke-opacity:1; fill:none" points="219.866,1423.18 219.866,47.2441 "/>
<polyline clip-path="url(#clip150)" style="stroke:#000000; stroke-linecap:round; stroke-linejoin:round; stroke-width:4; stroke-opacity:1; fill:none" points="219.866,1384.24 238.764,1384.24 "/>
<polyline clip-path="url(#clip150)" style="stroke:#000000; stroke-linecap:round; stroke-linejoin:round; stroke-width:4; stroke-opacity:1; fill:none" points="219.866,1133.54 238.764,1133.54 "/>
<polyline clip-path="url(#clip150)" style="stroke:#000000; stroke-linecap:round; stroke-linejoin:round; stroke-width:4; stroke-opacity:1; fill:none" points="219.866,882.849 238.764,882.849 "/>
<polyline clip-path="url(#clip150)" style="stroke:#000000; stroke-linecap:round; stroke-linejoin:round; stroke-width:4; stroke-opacity:1; fill:none" points="219.866,632.154 238.764,632.154 "/>
<polyline clip-path="url(#clip150)" style="stroke:#000000; stroke-linecap:round; stroke-linejoin:round; stroke-width:4; stroke-opacity:1; fill:none" points="219.866,381.46 238.764,381.46 "/>
<polyline clip-path="url(#clip150)" style="stroke:#000000; stroke-linecap:round; stroke-linejoin:round; stroke-width:4; stroke-opacity:1; fill:none" points="219.866,130.765 238.764,130.765 "/>
<path clip-path="url(#clip150)" d="M126.691 1370.04 Q123.08 1370.04 121.251 1373.6 Q119.445 1377.14 119.445 1384.27 Q119.445 1391.38 121.251 1394.94 Q123.08 1398.49 126.691 1398.49 Q130.325 1398.49 132.13 1394.94 Q133.959 1391.38 133.959 1384.27 Q133.959 1377.14 132.13 1373.6 Q130.325 1370.04 126.691 1370.04 M126.691 1366.33 Q132.501 1366.33 135.556 1370.94 Q138.635 1375.52 138.635 1384.27 Q138.635 1393 135.556 1397.61 Q132.501 1402.19 126.691 1402.19 Q120.88 1402.19 117.802 1397.61 Q114.746 1393 114.746 1384.27 Q114.746 1375.52 117.802 1370.94 Q120.88 1366.33 126.691 1366.33 Z" fill="#000000" fill-rule="evenodd" fill-opacity="1" /><path clip-path="url(#clip150)" d="M146.853 1395.64 L151.737 1395.64 L151.737 1401.52 L146.853 1401.52 L146.853 1395.64 Z" fill="#000000" fill-rule="evenodd" fill-opacity="1" /><path clip-path="url(#clip150)" d="M171.922 1370.04 Q168.311 1370.04 166.482 1373.6 Q164.677 1377.14 164.677 1384.27 Q164.677 1391.38 166.482 1394.94 Q168.311 1398.49 171.922 1398.49 Q175.556 1398.49 177.362 1394.94 Q179.19 1391.38 179.19 1384.27 Q179.19 1377.14 177.362 1373.6 Q175.556 1370.04 171.922 1370.04 M171.922 1366.33 Q177.732 1366.33 180.788 1370.94 Q183.866 1375.52 183.866 1384.27 Q183.866 1393 180.788 1397.61 Q177.732 1402.19 171.922 1402.19 Q166.112 1402.19 163.033 1397.61 Q159.978 1393 159.978 1384.27 Q159.978 1375.52 163.033 1370.94 Q166.112 1366.33 171.922 1366.33 Z" fill="#000000" fill-rule="evenodd" fill-opacity="1" /><path clip-path="url(#clip150)" d="M127.917 1119.34 Q124.306 1119.34 122.478 1122.91 Q120.672 1126.45 120.672 1133.58 Q120.672 1140.68 122.478 1144.25 Q124.306 1147.79 127.917 1147.79 Q131.552 1147.79 133.357 1144.25 Q135.186 1140.68 135.186 1133.58 Q135.186 1126.45 133.357 1122.91 Q131.552 1119.34 127.917 1119.34 M127.917 1115.64 Q133.728 1115.64 136.783 1120.25 Q139.862 1124.83 139.862 1133.58 Q139.862 1142.31 136.783 1146.91 Q133.728 1151.49 127.917 1151.49 Q122.107 1151.49 119.029 1146.91 Q115.973 1142.31 115.973 1133.58 Q115.973 1124.83 119.029 1120.25 Q122.107 1115.64 127.917 1115.64 Z" fill="#000000" fill-rule="evenodd" fill-opacity="1" /><path clip-path="url(#clip150)" d="M148.079 1144.94 L152.964 1144.94 L152.964 1150.82 L148.079 1150.82 L148.079 1144.94 Z" fill="#000000" fill-rule="evenodd" fill-opacity="1" /><path clip-path="url(#clip150)" d="M163.959 1146.89 L171.598 1146.89 L171.598 1120.52 L163.288 1122.19 L163.288 1117.93 L171.552 1116.26 L176.227 1116.26 L176.227 1146.89 L183.866 1146.89 L183.866 1150.82 L163.959 1150.82 L163.959 1146.89 Z" fill="#000000" fill-rule="evenodd" fill-opacity="1" /><path clip-path="url(#clip150)" d="M128.288 868.648 Q124.677 868.648 122.848 872.212 Q121.043 875.754 121.043 882.884 Q121.043 889.99 122.848 893.555 Q124.677 897.097 128.288 897.097 Q131.922 897.097 133.728 893.555 Q135.556 889.99 135.556 882.884 Q135.556 875.754 133.728 872.212 Q131.922 868.648 128.288 868.648 M128.288 864.944 Q134.098 864.944 137.154 869.55 Q140.232 874.134 140.232 882.884 Q140.232 891.61 137.154 896.217 Q134.098 900.8 128.288 900.8 Q122.478 900.8 119.399 896.217 Q116.343 891.61 116.343 882.884 Q116.343 874.134 119.399 869.55 Q122.478 864.944 128.288 864.944 Z" fill="#000000" fill-rule="evenodd" fill-opacity="1" /><path clip-path="url(#clip150)" d="M148.45 894.249 L153.334 894.249 L153.334 900.129 L148.45 900.129 L148.45 894.249 Z" fill="#000000" fill-rule="evenodd" fill-opacity="1" /><path clip-path="url(#clip150)" d="M167.547 896.194 L183.866 896.194 L183.866 900.129 L161.922 900.129 L161.922 896.194 Q164.584 893.439 169.167 888.81 Q173.774 884.157 174.954 882.814 Q177.2 880.291 178.079 878.555 Q178.982 876.796 178.982 875.106 Q178.982 872.351 177.038 870.615 Q175.116 868.879 172.014 868.879 Q169.815 868.879 167.362 869.643 Q164.931 870.407 162.153 871.958 L162.153 867.236 Q164.977 866.101 167.431 865.523 Q169.885 864.944 171.922 864.944 Q177.292 864.944 180.487 867.629 Q183.681 870.314 183.681 874.805 Q183.681 876.935 182.871 878.856 Q182.084 880.754 179.977 883.347 Q179.399 884.018 176.297 887.235 Q173.195 890.43 167.547 896.194 Z" fill="#000000" fill-rule="evenodd" fill-opacity="1" /><path clip-path="url(#clip150)" d="M127.339 617.953 Q123.728 617.953 121.899 621.518 Q120.093 625.059 120.093 632.189 Q120.093 639.295 121.899 642.86 Q123.728 646.402 127.339 646.402 Q130.973 646.402 132.779 642.86 Q134.607 639.295 134.607 632.189 Q134.607 625.059 132.779 621.518 Q130.973 617.953 127.339 617.953 M127.339 614.249 Q133.149 614.249 136.204 618.856 Q139.283 623.439 139.283 632.189 Q139.283 640.916 136.204 645.522 Q133.149 650.106 127.339 650.106 Q121.529 650.106 118.45 645.522 Q115.394 640.916 115.394 632.189 Q115.394 623.439 118.45 618.856 Q121.529 614.249 127.339 614.249 Z" fill="#000000" fill-rule="evenodd" fill-opacity="1" /><path clip-path="url(#clip150)" d="M147.501 643.555 L152.385 643.555 L152.385 649.434 L147.501 649.434 L147.501 643.555 Z" fill="#000000" fill-rule="evenodd" fill-opacity="1" /><path clip-path="url(#clip150)" d="M176.737 630.8 Q180.093 631.518 181.968 633.786 Q183.866 636.055 183.866 639.388 Q183.866 644.504 180.348 647.305 Q176.829 650.106 170.348 650.106 Q168.172 650.106 165.857 649.666 Q163.565 649.249 161.112 648.393 L161.112 643.879 Q163.056 645.013 165.371 645.592 Q167.686 646.17 170.209 646.17 Q174.607 646.17 176.899 644.434 Q179.214 642.698 179.214 639.388 Q179.214 636.332 177.061 634.619 Q174.931 632.883 171.112 632.883 L167.084 632.883 L167.084 629.041 L171.297 629.041 Q174.746 629.041 176.575 627.675 Q178.403 626.286 178.403 623.694 Q178.403 621.032 176.505 619.62 Q174.63 618.184 171.112 618.184 Q169.19 618.184 166.991 618.601 Q164.792 619.018 162.153 619.897 L162.153 615.731 Q164.815 614.99 167.13 614.62 Q169.468 614.249 171.528 614.249 Q176.852 614.249 179.954 616.68 Q183.056 619.087 183.056 623.208 Q183.056 626.078 181.413 628.069 Q179.769 630.036 176.737 630.8 Z" fill="#000000" fill-rule="evenodd" fill-opacity="1" /><path clip-path="url(#clip150)" d="M126.205 367.258 Q122.593 367.258 120.765 370.823 Q118.959 374.365 118.959 381.494 Q118.959 388.601 120.765 392.166 Q122.593 395.707 126.205 395.707 Q129.839 395.707 131.644 392.166 Q133.473 388.601 133.473 381.494 Q133.473 374.365 131.644 370.823 Q129.839 367.258 126.205 367.258 M126.205 363.555 Q132.015 363.555 135.07 368.161 Q138.149 372.744 138.149 381.494 Q138.149 390.221 135.07 394.828 Q132.015 399.411 126.205 399.411 Q120.394 399.411 117.316 394.828 Q114.26 390.221 114.26 381.494 Q114.26 372.744 117.316 368.161 Q120.394 363.555 126.205 363.555 Z" fill="#000000" fill-rule="evenodd" fill-opacity="1" /><path clip-path="url(#clip150)" d="M146.366 392.86 L151.251 392.86 L151.251 398.74 L146.366 398.74 L146.366 392.86 Z" fill="#000000" fill-rule="evenodd" fill-opacity="1" /><path clip-path="url(#clip150)" d="M174.283 368.254 L162.477 386.703 L174.283 386.703 L174.283 368.254 M173.056 364.18 L178.936 364.18 L178.936 386.703 L183.866 386.703 L183.866 390.591 L178.936 390.591 L178.936 398.74 L174.283 398.74 L174.283 390.591 L158.681 390.591 L158.681 386.078 L173.056 364.18 Z" fill="#000000" fill-rule="evenodd" fill-opacity="1" /><path clip-path="url(#clip150)" d="M127.686 116.564 Q124.075 116.564 122.246 120.128 Q120.441 123.67 120.441 130.8 Q120.441 137.906 122.246 141.471 Q124.075 145.012 127.686 145.012 Q131.32 145.012 133.126 141.471 Q134.954 137.906 134.954 130.8 Q134.954 123.67 133.126 120.128 Q131.32 116.564 127.686 116.564 M127.686 112.86 Q133.496 112.86 136.552 117.466 Q139.63 122.05 139.63 130.8 Q139.63 139.526 136.552 144.133 Q133.496 148.716 127.686 148.716 Q121.876 148.716 118.797 144.133 Q115.742 139.526 115.742 130.8 Q115.742 122.05 118.797 117.466 Q121.876 112.86 127.686 112.86 Z" fill="#000000" fill-rule="evenodd" fill-opacity="1" /><path clip-path="url(#clip150)" d="M147.848 142.165 L152.732 142.165 L152.732 148.045 L147.848 148.045 L147.848 142.165 Z" fill="#000000" fill-rule="evenodd" fill-opacity="1" /><path clip-path="url(#clip150)" d="M162.964 113.485 L181.32 113.485 L181.32 117.42 L167.246 117.42 L167.246 125.892 Q168.264 125.545 169.283 125.383 Q170.302 125.198 171.32 125.198 Q177.107 125.198 180.487 128.369 Q183.866 131.54 183.866 136.957 Q183.866 142.536 180.394 145.637 Q176.922 148.716 170.602 148.716 Q168.427 148.716 166.158 148.346 Q163.913 147.975 161.505 147.235 L161.505 142.536 Q163.589 143.67 165.811 144.225 Q168.033 144.781 170.51 144.781 Q174.514 144.781 176.852 142.675 Q179.19 140.568 179.19 136.957 Q179.19 133.346 176.852 131.239 Q174.514 129.133 170.51 129.133 Q168.635 129.133 166.76 129.55 Q164.908 129.966 162.964 130.846 L162.964 113.485 Z" fill="#000000" fill-rule="evenodd" fill-opacity="1" /><path clip-path="url(#clip150)" d="M20.8447 951.36 Q20.8447 958.362 26.0645 962.5 Q31.2844 966.605 40.2919 966.605 Q49.2675 966.605 54.4874 962.5 Q59.7073 958.362 59.7073 951.36 Q59.7073 944.357 54.4874 940.283 Q49.2675 936.177 40.2919 936.177 Q31.2844 936.177 26.0645 940.283 Q20.8447 944.357 20.8447 951.36 M15.6248 951.36 Q15.6248 941.365 22.3406 935.382 Q29.0246 929.398 40.2919 929.398 Q51.5274 929.398 58.2432 935.382 Q64.9272 941.365 64.9272 951.36 Q64.9272 961.386 58.2432 967.401 Q51.5592 973.385 40.2919 973.385 Q29.0246 973.385 22.3406 967.401 Q15.6248 961.386 15.6248 951.36 Z" fill="#000000" fill-rule="evenodd" fill-opacity="1" /><path clip-path="url(#clip150)" d="M28.3562 923.796 L28.3562 917.589 L58.275 906.449 L28.3562 895.309 L28.3562 889.103 L64.0042 902.471 L64.0042 910.428 L28.3562 923.796 Z" fill="#000000" fill-rule="evenodd" fill-opacity="1" /><path clip-path="url(#clip150)" d="M44.7161 850.527 L47.5806 850.527 L47.5806 877.454 Q53.6281 877.072 56.8109 873.825 Q59.9619 870.547 59.9619 864.722 Q59.9619 861.348 59.1344 858.197 Q58.3069 855.015 56.6518 851.895 L62.1899 851.895 Q63.5267 855.046 64.227 858.357 Q64.9272 861.667 64.9272 865.072 Q64.9272 873.602 59.9619 878.6 Q54.9967 883.565 46.5303 883.565 Q37.7774 883.565 32.6531 878.854 Q27.4968 874.112 27.4968 866.091 Q27.4968 858.898 32.1438 854.728 Q36.7589 850.527 44.7161 850.527 M42.9973 856.383 Q38.1912 856.447 35.3266 859.089 Q32.4621 861.699 32.4621 866.027 Q32.4621 870.929 35.2312 873.889 Q38.0002 876.817 43.0292 877.263 L42.9973 856.383 Z" fill="#000000" fill-rule="evenodd" fill-opacity="1" /><path clip-path="url(#clip150)" d="M33.8307 820.258 Q33.2578 821.244 33.0032 822.422 Q32.7167 823.568 32.7167 824.968 Q32.7167 829.934 35.9632 832.607 Q39.1779 835.249 45.2253 835.249 L64.0042 835.249 L64.0042 841.137 L28.3562 841.137 L28.3562 835.249 L33.8944 835.249 Q30.6479 833.403 29.0883 830.443 Q27.4968 827.483 27.4968 823.25 Q27.4968 822.645 27.5923 821.913 Q27.656 821.181 27.8151 820.29 L33.8307 820.258 Z" fill="#000000" fill-rule="evenodd" fill-opacity="1" /><path clip-path="url(#clip150)" d="M14.479 814.115 L14.479 808.258 L64.0042 808.258 L64.0042 814.115 L14.479 814.115 Z" fill="#000000" fill-rule="evenodd" fill-opacity="1" /><path clip-path="url(#clip150)" d="M46.0847 779.804 Q46.0847 786.902 47.7079 789.639 Q49.3312 792.376 53.2461 792.376 Q56.3653 792.376 58.2114 790.339 Q60.0256 788.27 60.0256 784.737 Q60.0256 779.867 56.5881 776.939 Q53.1188 773.979 47.3897 773.979 L46.0847 773.979 L46.0847 779.804 M43.6657 768.123 L64.0042 768.123 L64.0042 773.979 L58.5933 773.979 Q61.8398 775.984 63.3994 778.976 Q64.9272 781.968 64.9272 786.297 Q64.9272 791.771 61.8716 795.018 Q58.7843 798.232 53.6281 798.232 Q47.6125 798.232 44.5569 794.222 Q41.5014 790.18 41.5014 782.191 L41.5014 773.979 L40.9285 773.979 Q36.8862 773.979 34.6901 776.653 Q32.4621 779.294 32.4621 784.101 Q32.4621 787.156 33.1941 790.053 Q33.9262 792.949 35.3903 795.623 L29.9795 795.623 Q28.7381 792.408 28.1334 789.384 Q27.4968 786.36 27.4968 783.496 Q27.4968 775.762 31.5072 771.942 Q35.5176 768.123 43.6657 768.123 Z" fill="#000000" fill-rule="evenodd" fill-opacity="1" /><path clip-path="url(#clip150)" d="M58.657 750.394 L77.5631 750.394 L77.5631 756.282 L28.3562 756.282 L28.3562 750.394 L33.7671 750.394 Q30.5842 748.548 29.0564 745.747 Q27.4968 742.914 27.4968 739 Q27.4968 732.507 32.6531 728.464 Q37.8093 724.39 46.212 724.39 Q54.6147 724.39 59.771 728.464 Q64.9272 732.507 64.9272 739 Q64.9272 742.914 63.3994 745.747 Q61.8398 748.548 58.657 750.394 M46.212 730.47 Q39.7508 730.47 36.0905 733.143 Q32.3984 735.785 32.3984 740.432 Q32.3984 745.079 36.0905 747.752 Q39.7508 750.394 46.212 750.394 Q52.6732 750.394 56.3653 747.752 Q60.0256 745.079 60.0256 740.432 Q60.0256 735.785 56.3653 733.143 Q52.6732 730.47 46.212 730.47 Z" fill="#000000" fill-rule="evenodd" fill-opacity="1" /><path clip-path="url(#clip150)" d="M28.3562 697.368 L28.3562 691.511 L56.1743 684.191 L28.3562 676.902 L28.3562 669.995 L56.1743 662.675 L28.3562 655.386 L28.3562 649.53 L64.0042 658.855 L64.0042 665.762 L34.7856 673.433 L64.0042 681.135 L64.0042 688.042 L28.3562 697.368 Z" fill="#000000" fill-rule="evenodd" fill-opacity="1" /><path clip-path="url(#clip150)" d="M28.3562 640.649 L28.3562 634.793 L64.0042 634.793 L64.0042 640.649 L28.3562 640.649 M14.479 640.649 L14.479 634.793 L21.895 634.793 L21.895 640.649 L14.479 640.649 Z" fill="#000000" fill-rule="evenodd" fill-opacity="1" /><path clip-path="url(#clip150)" d="M18.2347 616.746 L28.3562 616.746 L28.3562 604.683 L32.9077 604.683 L32.9077 616.746 L52.2594 616.746 Q56.6199 616.746 57.8613 615.569 Q59.1026 614.359 59.1026 610.699 L59.1026 604.683 L64.0042 604.683 L64.0042 610.699 Q64.0042 617.478 61.4897 620.056 Q58.9434 622.634 52.2594 622.634 L32.9077 622.634 L32.9077 626.931 L28.3562 626.931 L28.3562 622.634 L18.2347 622.634 L18.2347 616.746 Z" fill="#000000" fill-rule="evenodd" fill-opacity="1" /><path clip-path="url(#clip150)" d="M42.4881 567.348 L64.0042 567.348 L64.0042 573.205 L42.679 573.205 Q37.6183 573.205 35.1038 575.178 Q32.5894 577.151 32.5894 581.098 Q32.5894 585.841 35.6131 588.578 Q38.6368 591.315 43.8567 591.315 L64.0042 591.315 L64.0042 597.203 L14.479 597.203 L14.479 591.315 L33.8944 591.315 Q30.6797 589.214 29.0883 586.382 Q27.4968 583.517 27.4968 579.793 Q27.4968 573.65 31.3163 570.499 Q35.1038 567.348 42.4881 567.348 Z" fill="#000000" fill-rule="evenodd" fill-opacity="1" /><path clip-path="url(#clip150)" d="M22.818 518.81 L46.4666 527.531 L46.4666 510.057 L22.818 518.81 M16.4842 522.438 L16.4842 515.149 L64.0042 497.039 L64.0042 503.723 L51.8138 508.052 L51.8138 529.472 L64.0042 533.801 L64.0042 540.58 L16.4842 522.438 Z" fill="#000000" fill-rule="evenodd" fill-opacity="1" /><path clip-path="url(#clip152)" d="M337.179 86.1857 L337.179 1384.24 L346.83 1384.24 L346.83 86.1857 L337.179 86.1857 L337.179 86.1857  Z" fill="#009af9" fill-rule="evenodd" fill-opacity="1"/>
<polyline clip-path="url(#clip152)" style="stroke:#000000; stroke-linecap:round; stroke-linejoin:round; stroke-width:4; stroke-opacity:1; fill:none" points="337.179,86.1857 337.179,1384.24 346.83,1384.24 346.83,86.1857 337.179,86.1857 "/>
<path clip-path="url(#clip152)" d="M349.243 90.7509 L349.243 1384.24 L358.895 1384.24 L358.895 90.7509 L349.243 90.7509 L349.243 90.7509  Z" fill="#009af9" fill-rule="evenodd" fill-opacity="1"/>
<polyline clip-path="url(#clip152)" style="stroke:#000000; stroke-linecap:round; stroke-linejoin:round; stroke-width:4; stroke-opacity:1; fill:none" points="349.243,90.7509 349.243,1384.24 358.895,1384.24 358.895,90.7509 349.243,90.7509 "/>
<path clip-path="url(#clip152)" d="M366.092 519.619 L366.092 1384.24 L375.744 1384.24 L375.744 519.619 L366.092 519.619 L366.092 519.619  Z" fill="#009af9" fill-rule="evenodd" fill-opacity="1"/>
<polyline clip-path="url(#clip152)" style="stroke:#000000; stroke-linecap:round; stroke-linejoin:round; stroke-width:4; stroke-opacity:1; fill:none" points="366.092,519.619 366.092,1384.24 375.744,1384.24 375.744,519.619 366.092,519.619 "/>
<path clip-path="url(#clip152)" d="M384.162 742.08 L384.162 1384.24 L393.814 1384.24 L393.814 742.08 L384.162 742.08 L384.162 742.08  Z" fill="#009af9" fill-rule="evenodd" fill-opacity="1"/>
<polyline clip-path="url(#clip152)" style="stroke:#000000; stroke-linecap:round; stroke-linejoin:round; stroke-width:4; stroke-opacity:1; fill:none" points="384.162,742.08 384.162,1384.24 393.814,1384.24 393.814,742.08 384.162,742.08 "/>
<path clip-path="url(#clip152)" d="M402.643 869.412 L402.643 1384.24 L412.295 1384.24 L412.295 869.412 L402.643 869.412 L402.643 869.412  Z" fill="#009af9" fill-rule="evenodd" fill-opacity="1"/>
<polyline clip-path="url(#clip152)" style="stroke:#000000; stroke-linecap:round; stroke-linejoin:round; stroke-width:4; stroke-opacity:1; fill:none" points="402.643,869.412 402.643,1384.24 412.295,1384.24 412.295,869.412 402.643,869.412 "/>
<path clip-path="url(#clip152)" d="M421.309 951.358 L421.309 1384.24 L430.96 1384.24 L430.96 951.358 L421.309 951.358 L421.309 951.358  Z" fill="#009af9" fill-rule="evenodd" fill-opacity="1"/>
<polyline clip-path="url(#clip152)" style="stroke:#000000; stroke-linecap:round; stroke-linejoin:round; stroke-width:4; stroke-opacity:1; fill:none" points="421.309,951.358 421.309,1384.24 430.96,1384.24 430.96,951.358 421.309,951.358 "/>
<path clip-path="url(#clip152)" d="M440.073 1008.64 L440.073 1384.24 L449.725 1384.24 L449.725 1008.64 L440.073 1008.64 L440.073 1008.64  Z" fill="#009af9" fill-rule="evenodd" fill-opacity="1"/>
<polyline clip-path="url(#clip152)" style="stroke:#000000; stroke-linecap:round; stroke-linejoin:round; stroke-width:4; stroke-opacity:1; fill:none" points="440.073,1008.64 440.073,1384.24 449.725,1384.24 449.725,1008.64 440.073,1008.64 "/>
<path clip-path="url(#clip152)" d="M458.898 1051.07 L458.898 1384.24 L468.55 1384.24 L468.55 1051.07 L458.898 1051.07 L458.898 1051.07  Z" fill="#009af9" fill-rule="evenodd" fill-opacity="1"/>
<polyline clip-path="url(#clip152)" style="stroke:#000000; stroke-linecap:round; stroke-linejoin:round; stroke-width:4; stroke-opacity:1; fill:none" points="458.898,1051.07 458.898,1384.24 468.55,1384.24 468.55,1051.07 458.898,1051.07 "/>
<path clip-path="url(#clip152)" d="M477.762 1083.88 L477.762 1384.24 L487.414 1384.24 L487.414 1083.88 L477.762 1083.88 L477.762 1083.88  Z" fill="#009af9" fill-rule="evenodd" fill-opacity="1"/>
<polyline clip-path="url(#clip152)" style="stroke:#000000; stroke-linecap:round; stroke-linejoin:round; stroke-width:4; stroke-opacity:1; fill:none" points="477.762,1083.88 477.762,1384.24 487.414,1384.24 487.414,1083.88 477.762,1083.88 "/>
<path clip-path="url(#clip152)" d="M496.654 1110.06 L496.654 1384.24 L506.306 1384.24 L506.306 1110.06 L496.654 1110.06 L496.654 1110.06  Z" fill="#009af9" fill-rule="evenodd" fill-opacity="1"/>
<polyline clip-path="url(#clip152)" style="stroke:#000000; stroke-linecap:round; stroke-linejoin:round; stroke-width:4; stroke-opacity:1; fill:none" points="496.654,1110.06 496.654,1384.24 506.306,1384.24 506.306,1110.06 496.654,1110.06 "/>
<path clip-path="url(#clip152)" d="M515.567 1131.5 L515.567 1384.24 L525.218 1384.24 L525.218 1131.5 L515.567 1131.5 L515.567 1131.5  Z" fill="#009af9" fill-rule="evenodd" fill-opacity="1"/>
<polyline clip-path="url(#clip152)" style="stroke:#000000; stroke-linecap:round; stroke-linejoin:round; stroke-width:4; stroke-opacity:1; fill:none" points="515.567,1131.5 515.567,1384.24 525.218,1384.24 525.218,1131.5 515.567,1131.5 "/>
<path clip-path="url(#clip152)" d="M534.494 1149.41 L534.494 1384.24 L544.146 1384.24 L544.146 1149.41 L534.494 1149.41 L534.494 1149.41  Z" fill="#009af9" fill-rule="evenodd" fill-opacity="1"/>
<polyline clip-path="url(#clip152)" style="stroke:#000000; stroke-linecap:round; stroke-linejoin:round; stroke-width:4; stroke-opacity:1; fill:none" points="534.494,1149.41 534.494,1384.24 544.146,1384.24 544.146,1149.41 534.494,1149.41 "/>
<path clip-path="url(#clip152)" d="M553.433 1164.62 L553.433 1384.24 L563.085 1384.24 L563.085 1164.62 L553.433 1164.62 L553.433 1164.62  Z" fill="#009af9" fill-rule="evenodd" fill-opacity="1"/>
<polyline clip-path="url(#clip152)" style="stroke:#000000; stroke-linecap:round; stroke-linejoin:round; stroke-width:4; stroke-opacity:1; fill:none" points="553.433,1164.62 553.433,1384.24 563.085,1384.24 563.085,1164.62 553.433,1164.62 "/>
<path clip-path="url(#clip152)" d="M572.382 1177.71 L572.382 1384.24 L582.034 1384.24 L582.034 1177.71 L572.382 1177.71 L572.382 1177.71  Z" fill="#009af9" fill-rule="evenodd" fill-opacity="1"/>
<polyline clip-path="url(#clip152)" style="stroke:#000000; stroke-linecap:round; stroke-linejoin:round; stroke-width:4; stroke-opacity:1; fill:none" points="572.382,1177.71 572.382,1384.24 582.034,1384.24 582.034,1177.71 572.382,1177.71 "/>
<path clip-path="url(#clip152)" d="M591.338 1189.12 L591.338 1384.24 L600.99 1384.24 L600.99 1189.12 L591.338 1189.12 L591.338 1189.12  Z" fill="#009af9" fill-rule="evenodd" fill-opacity="1"/>
<polyline clip-path="url(#clip152)" style="stroke:#000000; stroke-linecap:round; stroke-linejoin:round; stroke-width:4; stroke-opacity:1; fill:none" points="591.338,1189.12 591.338,1384.24 600.99,1384.24 600.99,1189.12 591.338,1189.12 "/>
<path clip-path="url(#clip152)" d="M610.301 1199.16 L610.301 1384.24 L619.952 1384.24 L619.952 1199.16 L610.301 1199.16 L610.301 1199.16  Z" fill="#009af9" fill-rule="evenodd" fill-opacity="1"/>
<polyline clip-path="url(#clip152)" style="stroke:#000000; stroke-linecap:round; stroke-linejoin:round; stroke-width:4; stroke-opacity:1; fill:none" points="610.301,1199.16 610.301,1384.24 619.952,1384.24 619.952,1199.16 610.301,1199.16 "/>
<path clip-path="url(#clip152)" d="M629.269 1208.07 L629.269 1384.24 L638.92 1384.24 L638.92 1208.07 L629.269 1208.07 L629.269 1208.07  Z" fill="#009af9" fill-rule="evenodd" fill-opacity="1"/>
<polyline clip-path="url(#clip152)" style="stroke:#000000; stroke-linecap:round; stroke-linejoin:round; stroke-width:4; stroke-opacity:1; fill:none" points="629.269,1208.07 629.269,1384.24 638.92,1384.24 638.92,1208.07 629.269,1208.07 "/>
<path clip-path="url(#clip152)" d="M648.241 1216.03 L648.241 1384.24 L657.893 1384.24 L657.893 1216.03 L648.241 1216.03 L648.241 1216.03  Z" fill="#009af9" fill-rule="evenodd" fill-opacity="1"/>
<polyline clip-path="url(#clip152)" style="stroke:#000000; stroke-linecap:round; stroke-linejoin:round; stroke-width:4; stroke-opacity:1; fill:none" points="648.241,1216.03 648.241,1384.24 657.893,1384.24 657.893,1216.03 648.241,1216.03 "/>
<path clip-path="url(#clip152)" d="M667.217 1223.2 L667.217 1384.24 L676.869 1384.24 L676.869 1223.2 L667.217 1223.2 L667.217 1223.2  Z" fill="#009af9" fill-rule="evenodd" fill-opacity="1"/>
<polyline clip-path="url(#clip152)" style="stroke:#000000; stroke-linecap:round; stroke-linejoin:round; stroke-width:4; stroke-opacity:1; fill:none" points="667.217,1223.2 667.217,1384.24 676.869,1384.24 676.869,1223.2 667.217,1223.2 "/>
<path clip-path="url(#clip152)" d="M686.197 1229.69 L686.197 1384.24 L695.848 1384.24 L695.848 1229.69 L686.197 1229.69 L686.197 1229.69  Z" fill="#009af9" fill-rule="evenodd" fill-opacity="1"/>
<polyline clip-path="url(#clip152)" style="stroke:#000000; stroke-linecap:round; stroke-linejoin:round; stroke-width:4; stroke-opacity:1; fill:none" points="686.197,1229.69 686.197,1384.24 695.848,1384.24 695.848,1229.69 686.197,1229.69 "/>
<path clip-path="url(#clip152)" d="M705.179 1235.6 L705.179 1384.24 L714.83 1384.24 L714.83 1235.6 L705.179 1235.6 L705.179 1235.6  Z" fill="#009af9" fill-rule="evenodd" fill-opacity="1"/>
<polyline clip-path="url(#clip152)" style="stroke:#000000; stroke-linecap:round; stroke-linejoin:round; stroke-width:4; stroke-opacity:1; fill:none" points="705.179,1235.6 705.179,1384.24 714.83,1384.24 714.83,1235.6 705.179,1235.6 "/>
<path clip-path="url(#clip152)" d="M724.163 1241.01 L724.163 1384.24 L733.815 1384.24 L733.815 1241.01 L724.163 1241.01 L724.163 1241.01  Z" fill="#009af9" fill-rule="evenodd" fill-opacity="1"/>
<polyline clip-path="url(#clip152)" style="stroke:#000000; stroke-linecap:round; stroke-linejoin:round; stroke-width:4; stroke-opacity:1; fill:none" points="724.163,1241.01 724.163,1384.24 733.815,1384.24 733.815,1241.01 724.163,1241.01 "/>
<path clip-path="url(#clip152)" d="M743.15 1245.98 L743.15 1384.24 L752.802 1384.24 L752.802 1245.98 L743.15 1245.98 L743.15 1245.98  Z" fill="#009af9" fill-rule="evenodd" fill-opacity="1"/>
<polyline clip-path="url(#clip152)" style="stroke:#000000; stroke-linecap:round; stroke-linejoin:round; stroke-width:4; stroke-opacity:1; fill:none" points="743.15,1245.98 743.15,1384.24 752.802,1384.24 752.802,1245.98 743.15,1245.98 "/>
<path clip-path="url(#clip152)" d="M762.139 1250.55 L762.139 1384.24 L771.791 1384.24 L771.791 1250.55 L762.139 1250.55 L762.139 1250.55  Z" fill="#009af9" fill-rule="evenodd" fill-opacity="1"/>
<polyline clip-path="url(#clip152)" style="stroke:#000000; stroke-linecap:round; stroke-linejoin:round; stroke-width:4; stroke-opacity:1; fill:none" points="762.139,1250.55 762.139,1384.24 771.791,1384.24 771.791,1250.55 762.139,1250.55 "/>
<path clip-path="url(#clip152)" d="M781.13 1254.79 L781.13 1384.24 L790.781 1384.24 L790.781 1254.79 L781.13 1254.79 L781.13 1254.79  Z" fill="#009af9" fill-rule="evenodd" fill-opacity="1"/>
<polyline clip-path="url(#clip152)" style="stroke:#000000; stroke-linecap:round; stroke-linejoin:round; stroke-width:4; stroke-opacity:1; fill:none" points="781.13,1254.79 781.13,1384.24 790.781,1384.24 790.781,1254.79 781.13,1254.79 "/>
<path clip-path="url(#clip152)" d="M800.122 1258.72 L800.122 1384.24 L809.773 1384.24 L809.773 1258.72 L800.122 1258.72 L800.122 1258.72  Z" fill="#009af9" fill-rule="evenodd" fill-opacity="1"/>
<polyline clip-path="url(#clip152)" style="stroke:#000000; stroke-linecap:round; stroke-linejoin:round; stroke-width:4; stroke-opacity:1; fill:none" points="800.122,1258.72 800.122,1384.24 809.773,1384.24 809.773,1258.72 800.122,1258.72 "/>
<path clip-path="url(#clip152)" d="M819.115 1262.39 L819.115 1384.24 L828.767 1384.24 L828.767 1262.39 L819.115 1262.39 L819.115 1262.39  Z" fill="#009af9" fill-rule="evenodd" fill-opacity="1"/>
<polyline clip-path="url(#clip152)" style="stroke:#000000; stroke-linecap:round; stroke-linejoin:round; stroke-width:4; stroke-opacity:1; fill:none" points="819.115,1262.39 819.115,1384.24 828.767,1384.24 828.767,1262.39 819.115,1262.39 "/>
<path clip-path="url(#clip152)" d="M838.11 1265.81 L838.11 1384.24 L847.761 1384.24 L847.761 1265.81 L838.11 1265.81 L838.11 1265.81  Z" fill="#009af9" fill-rule="evenodd" fill-opacity="1"/>
<polyline clip-path="url(#clip152)" style="stroke:#000000; stroke-linecap:round; stroke-linejoin:round; stroke-width:4; stroke-opacity:1; fill:none" points="838.11,1265.81 838.11,1384.24 847.761,1384.24 847.761,1265.81 838.11,1265.81 "/>
<path clip-path="url(#clip152)" d="M857.106 1269.01 L857.106 1384.24 L866.757 1384.24 L866.757 1269.01 L857.106 1269.01 L857.106 1269.01  Z" fill="#009af9" fill-rule="evenodd" fill-opacity="1"/>
<polyline clip-path="url(#clip152)" style="stroke:#000000; stroke-linecap:round; stroke-linejoin:round; stroke-width:4; stroke-opacity:1; fill:none" points="857.106,1269.01 857.106,1384.24 866.757,1384.24 866.757,1269.01 857.106,1269.01 "/>
<path clip-path="url(#clip152)" d="M876.103 1272.01 L876.103 1384.24 L885.754 1384.24 L885.754 1272.01 L876.103 1272.01 L876.103 1272.01  Z" fill="#009af9" fill-rule="evenodd" fill-opacity="1"/>
<polyline clip-path="url(#clip152)" style="stroke:#000000; stroke-linecap:round; stroke-linejoin:round; stroke-width:4; stroke-opacity:1; fill:none" points="876.103,1272.01 876.103,1384.24 885.754,1384.24 885.754,1272.01 876.103,1272.01 "/>
<path clip-path="url(#clip152)" d="M895.101 1274.84 L895.101 1384.24 L904.752 1384.24 L904.752 1274.84 L895.101 1274.84 L895.101 1274.84  Z" fill="#009af9" fill-rule="evenodd" fill-opacity="1"/>
<polyline clip-path="url(#clip152)" style="stroke:#000000; stroke-linecap:round; stroke-linejoin:round; stroke-width:4; stroke-opacity:1; fill:none" points="895.101,1274.84 895.101,1384.24 904.752,1384.24 904.752,1274.84 895.101,1274.84 "/>
<path clip-path="url(#clip152)" d="M914.1 1277.5 L914.1 1384.24 L923.751 1384.24 L923.751 1277.5 L914.1 1277.5 L914.1 1277.5  Z" fill="#009af9" fill-rule="evenodd" fill-opacity="1"/>
<polyline clip-path="url(#clip152)" style="stroke:#000000; stroke-linecap:round; stroke-linejoin:round; stroke-width:4; stroke-opacity:1; fill:none" points="914.1,1277.5 914.1,1384.24 923.751,1384.24 923.751,1277.5 914.1,1277.5 "/>
<path clip-path="url(#clip152)" d="M933.099 1280.02 L933.099 1384.24 L942.751 1384.24 L942.751 1280.02 L933.099 1280.02 L933.099 1280.02  Z" fill="#009af9" fill-rule="evenodd" fill-opacity="1"/>
<polyline clip-path="url(#clip152)" style="stroke:#000000; stroke-linecap:round; stroke-linejoin:round; stroke-width:4; stroke-opacity:1; fill:none" points="933.099,1280.02 933.099,1384.24 942.751,1384.24 942.751,1280.02 933.099,1280.02 "/>
<path clip-path="url(#clip152)" d="M952.1 1282.39 L952.1 1384.24 L961.751 1384.24 L961.751 1282.39 L952.1 1282.39 L952.1 1282.39  Z" fill="#009af9" fill-rule="evenodd" fill-opacity="1"/>
<polyline clip-path="url(#clip152)" style="stroke:#000000; stroke-linecap:round; stroke-linejoin:round; stroke-width:4; stroke-opacity:1; fill:none" points="952.1,1282.39 952.1,1384.24 961.751,1384.24 961.751,1282.39 952.1,1282.39 "/>
<path clip-path="url(#clip152)" d="M971.101 1284.65 L971.101 1384.24 L980.752 1384.24 L980.752 1284.65 L971.101 1284.65 L971.101 1284.65  Z" fill="#009af9" fill-rule="evenodd" fill-opacity="1"/>
<polyline clip-path="url(#clip152)" style="stroke:#000000; stroke-linecap:round; stroke-linejoin:round; stroke-width:4; stroke-opacity:1; fill:none" points="971.101,1284.65 971.101,1384.24 980.752,1384.24 980.752,1284.65 971.101,1284.65 "/>
<path clip-path="url(#clip152)" d="M990.102 1286.78 L990.102 1384.24 L999.754 1384.24 L999.754 1286.78 L990.102 1286.78 L990.102 1286.78  Z" fill="#009af9" fill-rule="evenodd" fill-opacity="1"/>
<polyline clip-path="url(#clip152)" style="stroke:#000000; stroke-linecap:round; stroke-linejoin:round; stroke-width:4; stroke-opacity:1; fill:none" points="990.102,1286.78 990.102,1384.24 999.754,1384.24 999.754,1286.78 990.102,1286.78 "/>
<path clip-path="url(#clip152)" d="M1009.1 1288.81 L1009.1 1384.24 L1018.76 1384.24 L1018.76 1288.81 L1009.1 1288.81 L1009.1 1288.81  Z" fill="#009af9" fill-rule="evenodd" fill-opacity="1"/>
<polyline clip-path="url(#clip152)" style="stroke:#000000; stroke-linecap:round; stroke-linejoin:round; stroke-width:4; stroke-opacity:1; fill:none" points="1009.1,1288.81 1009.1,1384.24 1018.76,1384.24 1018.76,1288.81 1009.1,1288.81 "/>
<path clip-path="url(#clip152)" d="M1028.11 1290.75 L1028.11 1384.24 L1037.76 1384.24 L1037.76 1290.75 L1028.11 1290.75 L1028.11 1290.75  Z" fill="#009af9" fill-rule="evenodd" fill-opacity="1"/>
<polyline clip-path="url(#clip152)" style="stroke:#000000; stroke-linecap:round; stroke-linejoin:round; stroke-width:4; stroke-opacity:1; fill:none" points="1028.11,1290.75 1028.11,1384.24 1037.76,1384.24 1037.76,1290.75 1028.11,1290.75 "/>
<path clip-path="url(#clip152)" d="M1047.11 1292.59 L1047.11 1384.24 L1056.76 1384.24 L1056.76 1292.59 L1047.11 1292.59 L1047.11 1292.59  Z" fill="#009af9" fill-rule="evenodd" fill-opacity="1"/>
<polyline clip-path="url(#clip152)" style="stroke:#000000; stroke-linecap:round; stroke-linejoin:round; stroke-width:4; stroke-opacity:1; fill:none" points="1047.11,1292.59 1047.11,1384.24 1056.76,1384.24 1056.76,1292.59 1047.11,1292.59 "/>
<path clip-path="url(#clip152)" d="M1066.11 1294.35 L1066.11 1384.24 L1075.77 1384.24 L1075.77 1294.35 L1066.11 1294.35 L1066.11 1294.35  Z" fill="#009af9" fill-rule="evenodd" fill-opacity="1"/>
<polyline clip-path="url(#clip152)" style="stroke:#000000; stroke-linecap:round; stroke-linejoin:round; stroke-width:4; stroke-opacity:1; fill:none" points="1066.11,1294.35 1066.11,1384.24 1075.77,1384.24 1075.77,1294.35 1066.11,1294.35 "/>
<path clip-path="url(#clip152)" d="M1085.12 1296.03 L1085.12 1384.24 L1094.77 1384.24 L1094.77 1296.03 L1085.12 1296.03 L1085.12 1296.03  Z" fill="#009af9" fill-rule="evenodd" fill-opacity="1"/>
<polyline clip-path="url(#clip152)" style="stroke:#000000; stroke-linecap:round; stroke-linejoin:round; stroke-width:4; stroke-opacity:1; fill:none" points="1085.12,1296.03 1085.12,1384.24 1094.77,1384.24 1094.77,1296.03 1085.12,1296.03 "/>
<path clip-path="url(#clip152)" d="M1104.12 1297.63 L1104.12 1384.24 L1113.78 1384.24 L1113.78 1297.63 L1104.12 1297.63 L1104.12 1297.63  Z" fill="#009af9" fill-rule="evenodd" fill-opacity="1"/>
<polyline clip-path="url(#clip152)" style="stroke:#000000; stroke-linecap:round; stroke-linejoin:round; stroke-width:4; stroke-opacity:1; fill:none" points="1104.12,1297.63 1104.12,1384.24 1113.78,1384.24 1113.78,1297.63 1104.12,1297.63 "/>
<path clip-path="url(#clip152)" d="M1123.13 1299.17 L1123.13 1384.24 L1132.78 1384.24 L1132.78 1299.17 L1123.13 1299.17 L1123.13 1299.17  Z" fill="#009af9" fill-rule="evenodd" fill-opacity="1"/>
<polyline clip-path="url(#clip152)" style="stroke:#000000; stroke-linecap:round; stroke-linejoin:round; stroke-width:4; stroke-opacity:1; fill:none" points="1123.13,1299.17 1123.13,1384.24 1132.78,1384.24 1132.78,1299.17 1123.13,1299.17 "/>
<path clip-path="url(#clip152)" d="M1142.13 1300.64 L1142.13 1384.24 L1151.79 1384.24 L1151.79 1300.64 L1142.13 1300.64 L1142.13 1300.64  Z" fill="#009af9" fill-rule="evenodd" fill-opacity="1"/>
<polyline clip-path="url(#clip152)" style="stroke:#000000; stroke-linecap:round; stroke-linejoin:round; stroke-width:4; stroke-opacity:1; fill:none" points="1142.13,1300.64 1142.13,1384.24 1151.79,1384.24 1151.79,1300.64 1142.13,1300.64 "/>
<path clip-path="url(#clip152)" d="M1161.14 1302.05 L1161.14 1384.24 L1170.79 1384.24 L1170.79 1302.05 L1161.14 1302.05 L1161.14 1302.05  Z" fill="#009af9" fill-rule="evenodd" fill-opacity="1"/>
<polyline clip-path="url(#clip152)" style="stroke:#000000; stroke-linecap:round; stroke-linejoin:round; stroke-width:4; stroke-opacity:1; fill:none" points="1161.14,1302.05 1161.14,1384.24 1170.79,1384.24 1170.79,1302.05 1161.14,1302.05 "/>
<path clip-path="url(#clip152)" d="M1180.15 1303.41 L1180.15 1384.24 L1189.8 1384.24 L1189.8 1303.41 L1180.15 1303.41 L1180.15 1303.41  Z" fill="#009af9" fill-rule="evenodd" fill-opacity="1"/>
<polyline clip-path="url(#clip152)" style="stroke:#000000; stroke-linecap:round; stroke-linejoin:round; stroke-width:4; stroke-opacity:1; fill:none" points="1180.15,1303.41 1180.15,1384.24 1189.8,1384.24 1189.8,1303.41 1180.15,1303.41 "/>
<path clip-path="url(#clip152)" d="M1199.15 1304.71 L1199.15 1384.24 L1208.8 1384.24 L1208.8 1304.71 L1199.15 1304.71 L1199.15 1304.71  Z" fill="#009af9" fill-rule="evenodd" fill-opacity="1"/>
<polyline clip-path="url(#clip152)" style="stroke:#000000; stroke-linecap:round; stroke-linejoin:round; stroke-width:4; stroke-opacity:1; fill:none" points="1199.15,1304.71 1199.15,1384.24 1208.8,1384.24 1208.8,1304.71 1199.15,1304.71 "/>
<path clip-path="url(#clip152)" d="M1218.16 1305.97 L1218.16 1384.24 L1227.81 1384.24 L1227.81 1305.97 L1218.16 1305.97 L1218.16 1305.97  Z" fill="#009af9" fill-rule="evenodd" fill-opacity="1"/>
<polyline clip-path="url(#clip152)" style="stroke:#000000; stroke-linecap:round; stroke-linejoin:round; stroke-width:4; stroke-opacity:1; fill:none" points="1218.16,1305.97 1218.16,1384.24 1227.81,1384.24 1227.81,1305.97 1218.16,1305.97 "/>
<path clip-path="url(#clip152)" d="M1237.17 1307.17 L1237.17 1384.24 L1246.82 1384.24 L1246.82 1307.17 L1237.17 1307.17 L1237.17 1307.17  Z" fill="#009af9" fill-rule="evenodd" fill-opacity="1"/>
<polyline clip-path="url(#clip152)" style="stroke:#000000; stroke-linecap:round; stroke-linejoin:round; stroke-width:4; stroke-opacity:1; fill:none" points="1237.17,1307.17 1237.17,1384.24 1246.82,1384.24 1246.82,1307.17 1237.17,1307.17 "/>
<path clip-path="url(#clip152)" d="M1256.17 1308.33 L1256.17 1384.24 L1265.83 1384.24 L1265.83 1308.33 L1256.17 1308.33 L1256.17 1308.33  Z" fill="#009af9" fill-rule="evenodd" fill-opacity="1"/>
<polyline clip-path="url(#clip152)" style="stroke:#000000; stroke-linecap:round; stroke-linejoin:round; stroke-width:4; stroke-opacity:1; fill:none" points="1256.17,1308.33 1256.17,1384.24 1265.83,1384.24 1265.83,1308.33 1256.17,1308.33 "/>
<path clip-path="url(#clip152)" d="M1275.18 1309.45 L1275.18 1384.24 L1284.83 1384.24 L1284.83 1309.45 L1275.18 1309.45 L1275.18 1309.45  Z" fill="#009af9" fill-rule="evenodd" fill-opacity="1"/>
<polyline clip-path="url(#clip152)" style="stroke:#000000; stroke-linecap:round; stroke-linejoin:round; stroke-width:4; stroke-opacity:1; fill:none" points="1275.18,1309.45 1275.18,1384.24 1284.83,1384.24 1284.83,1309.45 1275.18,1309.45 "/>
<path clip-path="url(#clip152)" d="M1294.19 1310.53 L1294.19 1384.24 L1303.84 1384.24 L1303.84 1310.53 L1294.19 1310.53 L1294.19 1310.53  Z" fill="#009af9" fill-rule="evenodd" fill-opacity="1"/>
<polyline clip-path="url(#clip152)" style="stroke:#000000; stroke-linecap:round; stroke-linejoin:round; stroke-width:4; stroke-opacity:1; fill:none" points="1294.19,1310.53 1294.19,1384.24 1303.84,1384.24 1303.84,1310.53 1294.19,1310.53 "/>
<path clip-path="url(#clip152)" d="M1313.2 1311.58 L1313.2 1384.24 L1322.85 1384.24 L1322.85 1311.58 L1313.2 1311.58 L1313.2 1311.58  Z" fill="#009af9" fill-rule="evenodd" fill-opacity="1"/>
<polyline clip-path="url(#clip152)" style="stroke:#000000; stroke-linecap:round; stroke-linejoin:round; stroke-width:4; stroke-opacity:1; fill:none" points="1313.2,1311.58 1313.2,1384.24 1322.85,1384.24 1322.85,1311.58 1313.2,1311.58 "/>
<path clip-path="url(#clip152)" d="M1332.21 1312.58 L1332.21 1384.24 L1341.86 1384.24 L1341.86 1312.58 L1332.21 1312.58 L1332.21 1312.58  Z" fill="#009af9" fill-rule="evenodd" fill-opacity="1"/>
<polyline clip-path="url(#clip152)" style="stroke:#000000; stroke-linecap:round; stroke-linejoin:round; stroke-width:4; stroke-opacity:1; fill:none" points="1332.21,1312.58 1332.21,1384.24 1341.86,1384.24 1341.86,1312.58 1332.21,1312.58 "/>
<path clip-path="url(#clip152)" d="M1351.21 1313.56 L1351.21 1384.24 L1360.87 1384.24 L1360.87 1313.56 L1351.21 1313.56 L1351.21 1313.56  Z" fill="#009af9" fill-rule="evenodd" fill-opacity="1"/>
<polyline clip-path="url(#clip152)" style="stroke:#000000; stroke-linecap:round; stroke-linejoin:round; stroke-width:4; stroke-opacity:1; fill:none" points="1351.21,1313.56 1351.21,1384.24 1360.87,1384.24 1360.87,1313.56 1351.21,1313.56 "/>
<path clip-path="url(#clip152)" d="M1370.22 1314.5 L1370.22 1384.24 L1379.87 1384.24 L1379.87 1314.5 L1370.22 1314.5 L1370.22 1314.5  Z" fill="#009af9" fill-rule="evenodd" fill-opacity="1"/>
<polyline clip-path="url(#clip152)" style="stroke:#000000; stroke-linecap:round; stroke-linejoin:round; stroke-width:4; stroke-opacity:1; fill:none" points="1370.22,1314.5 1370.22,1384.24 1379.87,1384.24 1379.87,1314.5 1370.22,1314.5 "/>
<path clip-path="url(#clip152)" d="M1389.23 1315.41 L1389.23 1384.24 L1398.88 1384.24 L1398.88 1315.41 L1389.23 1315.41 L1389.23 1315.41  Z" fill="#009af9" fill-rule="evenodd" fill-opacity="1"/>
<polyline clip-path="url(#clip152)" style="stroke:#000000; stroke-linecap:round; stroke-linejoin:round; stroke-width:4; stroke-opacity:1; fill:none" points="1389.23,1315.41 1389.23,1384.24 1398.88,1384.24 1398.88,1315.41 1389.23,1315.41 "/>
<path clip-path="url(#clip152)" d="M1408.24 1316.29 L1408.24 1384.24 L1417.89 1384.24 L1417.89 1316.29 L1408.24 1316.29 L1408.24 1316.29  Z" fill="#009af9" fill-rule="evenodd" fill-opacity="1"/>
<polyline clip-path="url(#clip152)" style="stroke:#000000; stroke-linecap:round; stroke-linejoin:round; stroke-width:4; stroke-opacity:1; fill:none" points="1408.24,1316.29 1408.24,1384.24 1417.89,1384.24 1417.89,1316.29 1408.24,1316.29 "/>
<path clip-path="url(#clip152)" d="M1427.25 1317.14 L1427.25 1384.24 L1436.9 1384.24 L1436.9 1317.14 L1427.25 1317.14 L1427.25 1317.14  Z" fill="#009af9" fill-rule="evenodd" fill-opacity="1"/>
<polyline clip-path="url(#clip152)" style="stroke:#000000; stroke-linecap:round; stroke-linejoin:round; stroke-width:4; stroke-opacity:1; fill:none" points="1427.25,1317.14 1427.25,1384.24 1436.9,1384.24 1436.9,1317.14 1427.25,1317.14 "/>
<path clip-path="url(#clip152)" d="M1446.26 1317.97 L1446.26 1384.24 L1455.91 1384.24 L1455.91 1317.97 L1446.26 1317.97 L1446.26 1317.97  Z" fill="#009af9" fill-rule="evenodd" fill-opacity="1"/>
<polyline clip-path="url(#clip152)" style="stroke:#000000; stroke-linecap:round; stroke-linejoin:round; stroke-width:4; stroke-opacity:1; fill:none" points="1446.26,1317.97 1446.26,1384.24 1455.91,1384.24 1455.91,1317.97 1446.26,1317.97 "/>
<path clip-path="url(#clip152)" d="M1465.27 1318.77 L1465.27 1384.24 L1474.92 1384.24 L1474.92 1318.77 L1465.27 1318.77 L1465.27 1318.77  Z" fill="#009af9" fill-rule="evenodd" fill-opacity="1"/>
<polyline clip-path="url(#clip152)" style="stroke:#000000; stroke-linecap:round; stroke-linejoin:round; stroke-width:4; stroke-opacity:1; fill:none" points="1465.27,1318.77 1465.27,1384.24 1474.92,1384.24 1474.92,1318.77 1465.27,1318.77 "/>
<path clip-path="url(#clip152)" d="M1484.28 1319.54 L1484.28 1384.24 L1493.93 1384.24 L1493.93 1319.54 L1484.28 1319.54 L1484.28 1319.54  Z" fill="#009af9" fill-rule="evenodd" fill-opacity="1"/>
<polyline clip-path="url(#clip152)" style="stroke:#000000; stroke-linecap:round; stroke-linejoin:round; stroke-width:4; stroke-opacity:1; fill:none" points="1484.28,1319.54 1484.28,1384.24 1493.93,1384.24 1493.93,1319.54 1484.28,1319.54 "/>
<path clip-path="url(#clip152)" d="M1503.29 1320.29 L1503.29 1384.24 L1512.94 1384.24 L1512.94 1320.29 L1503.29 1320.29 L1503.29 1320.29  Z" fill="#009af9" fill-rule="evenodd" fill-opacity="1"/>
<polyline clip-path="url(#clip152)" style="stroke:#000000; stroke-linecap:round; stroke-linejoin:round; stroke-width:4; stroke-opacity:1; fill:none" points="1503.29,1320.29 1503.29,1384.24 1512.94,1384.24 1512.94,1320.29 1503.29,1320.29 "/>
<path clip-path="url(#clip152)" d="M1522.3 1321.03 L1522.3 1384.24 L1531.95 1384.24 L1531.95 1321.03 L1522.3 1321.03 L1522.3 1321.03  Z" fill="#009af9" fill-rule="evenodd" fill-opacity="1"/>
<polyline clip-path="url(#clip152)" style="stroke:#000000; stroke-linecap:round; stroke-linejoin:round; stroke-width:4; stroke-opacity:1; fill:none" points="1522.3,1321.03 1522.3,1384.24 1531.95,1384.24 1531.95,1321.03 1522.3,1321.03 "/>
<path clip-path="url(#clip152)" d="M1541.31 1321.73 L1541.31 1384.24 L1550.96 1384.24 L1550.96 1321.73 L1541.31 1321.73 L1541.31 1321.73  Z" fill="#009af9" fill-rule="evenodd" fill-opacity="1"/>
<polyline clip-path="url(#clip152)" style="stroke:#000000; stroke-linecap:round; stroke-linejoin:round; stroke-width:4; stroke-opacity:1; fill:none" points="1541.31,1321.73 1541.31,1384.24 1550.96,1384.24 1550.96,1321.73 1541.31,1321.73 "/>
<path clip-path="url(#clip152)" d="M1560.32 1322.42 L1560.32 1384.24 L1569.97 1384.24 L1569.97 1322.42 L1560.32 1322.42 L1560.32 1322.42  Z" fill="#009af9" fill-rule="evenodd" fill-opacity="1"/>
<polyline clip-path="url(#clip152)" style="stroke:#000000; stroke-linecap:round; stroke-linejoin:round; stroke-width:4; stroke-opacity:1; fill:none" points="1560.32,1322.42 1560.32,1384.24 1569.97,1384.24 1569.97,1322.42 1560.32,1322.42 "/>
<path clip-path="url(#clip152)" d="M1579.33 1323.09 L1579.33 1384.24 L1588.98 1384.24 L1588.98 1323.09 L1579.33 1323.09 L1579.33 1323.09  Z" fill="#009af9" fill-rule="evenodd" fill-opacity="1"/>
<polyline clip-path="url(#clip152)" style="stroke:#000000; stroke-linecap:round; stroke-linejoin:round; stroke-width:4; stroke-opacity:1; fill:none" points="1579.33,1323.09 1579.33,1384.24 1588.98,1384.24 1588.98,1323.09 1579.33,1323.09 "/>
<path clip-path="url(#clip152)" d="M1598.34 1323.74 L1598.34 1384.24 L1607.99 1384.24 L1607.99 1323.74 L1598.34 1323.74 L1598.34 1323.74  Z" fill="#009af9" fill-rule="evenodd" fill-opacity="1"/>
<polyline clip-path="url(#clip152)" style="stroke:#000000; stroke-linecap:round; stroke-linejoin:round; stroke-width:4; stroke-opacity:1; fill:none" points="1598.34,1323.74 1598.34,1384.24 1607.99,1384.24 1607.99,1323.74 1598.34,1323.74 "/>
<path clip-path="url(#clip152)" d="M1617.35 1324.37 L1617.35 1384.24 L1627 1384.24 L1627 1324.37 L1617.35 1324.37 L1617.35 1324.37  Z" fill="#009af9" fill-rule="evenodd" fill-opacity="1"/>
<polyline clip-path="url(#clip152)" style="stroke:#000000; stroke-linecap:round; stroke-linejoin:round; stroke-width:4; stroke-opacity:1; fill:none" points="1617.35,1324.37 1617.35,1384.24 1627,1384.24 1627,1324.37 1617.35,1324.37 "/>
<path clip-path="url(#clip152)" d="M1636.36 1324.98 L1636.36 1384.24 L1646.01 1384.24 L1646.01 1324.98 L1636.36 1324.98 L1636.36 1324.98  Z" fill="#009af9" fill-rule="evenodd" fill-opacity="1"/>
<polyline clip-path="url(#clip152)" style="stroke:#000000; stroke-linecap:round; stroke-linejoin:round; stroke-width:4; stroke-opacity:1; fill:none" points="1636.36,1324.98 1636.36,1384.24 1646.01,1384.24 1646.01,1324.98 1636.36,1324.98 "/>
<path clip-path="url(#clip152)" d="M1655.37 1325.58 L1655.37 1384.24 L1665.02 1384.24 L1665.02 1325.58 L1655.37 1325.58 L1655.37 1325.58  Z" fill="#009af9" fill-rule="evenodd" fill-opacity="1"/>
<polyline clip-path="url(#clip152)" style="stroke:#000000; stroke-linecap:round; stroke-linejoin:round; stroke-width:4; stroke-opacity:1; fill:none" points="1655.37,1325.58 1655.37,1384.24 1665.02,1384.24 1665.02,1325.58 1655.37,1325.58 "/>
<path clip-path="url(#clip152)" d="M1674.38 1326.16 L1674.38 1384.24 L1684.04 1384.24 L1684.04 1326.16 L1674.38 1326.16 L1674.38 1326.16  Z" fill="#009af9" fill-rule="evenodd" fill-opacity="1"/>
<polyline clip-path="url(#clip152)" style="stroke:#000000; stroke-linecap:round; stroke-linejoin:round; stroke-width:4; stroke-opacity:1; fill:none" points="1674.38,1326.16 1674.38,1384.24 1684.04,1384.24 1684.04,1326.16 1674.38,1326.16 "/>
<path clip-path="url(#clip152)" d="M1693.4 1326.72 L1693.4 1384.24 L1703.05 1384.24 L1703.05 1326.72 L1693.4 1326.72 L1693.4 1326.72  Z" fill="#009af9" fill-rule="evenodd" fill-opacity="1"/>
<polyline clip-path="url(#clip152)" style="stroke:#000000; stroke-linecap:round; stroke-linejoin:round; stroke-width:4; stroke-opacity:1; fill:none" points="1693.4,1326.72 1693.4,1384.24 1703.05,1384.24 1703.05,1326.72 1693.4,1326.72 "/>
<path clip-path="url(#clip152)" d="M1712.41 1327.27 L1712.41 1384.24 L1722.06 1384.24 L1722.06 1327.27 L1712.41 1327.27 L1712.41 1327.27  Z" fill="#009af9" fill-rule="evenodd" fill-opacity="1"/>
<polyline clip-path="url(#clip152)" style="stroke:#000000; stroke-linecap:round; stroke-linejoin:round; stroke-width:4; stroke-opacity:1; fill:none" points="1712.41,1327.27 1712.41,1384.24 1722.06,1384.24 1722.06,1327.27 1712.41,1327.27 "/>
<path clip-path="url(#clip152)" d="M1731.42 1327.8 L1731.42 1384.24 L1741.07 1384.24 L1741.07 1327.8 L1731.42 1327.8 L1731.42 1327.8  Z" fill="#009af9" fill-rule="evenodd" fill-opacity="1"/>
<polyline clip-path="url(#clip152)" style="stroke:#000000; stroke-linecap:round; stroke-linejoin:round; stroke-width:4; stroke-opacity:1; fill:none" points="1731.42,1327.8 1731.42,1384.24 1741.07,1384.24 1741.07,1327.8 1731.42,1327.8 "/>
<path clip-path="url(#clip152)" d="M1750.43 1328.32 L1750.43 1384.24 L1760.08 1384.24 L1760.08 1328.32 L1750.43 1328.32 L1750.43 1328.32  Z" fill="#009af9" fill-rule="evenodd" fill-opacity="1"/>
<polyline clip-path="url(#clip152)" style="stroke:#000000; stroke-linecap:round; stroke-linejoin:round; stroke-width:4; stroke-opacity:1; fill:none" points="1750.43,1328.32 1750.43,1384.24 1760.08,1384.24 1760.08,1328.32 1750.43,1328.32 "/>
<path clip-path="url(#clip152)" d="M1769.44 1328.82 L1769.44 1384.24 L1779.09 1384.24 L1779.09 1328.82 L1769.44 1328.82 L1769.44 1328.82  Z" fill="#009af9" fill-rule="evenodd" fill-opacity="1"/>
<polyline clip-path="url(#clip152)" style="stroke:#000000; stroke-linecap:round; stroke-linejoin:round; stroke-width:4; stroke-opacity:1; fill:none" points="1769.44,1328.82 1769.44,1384.24 1779.09,1384.24 1779.09,1328.82 1769.44,1328.82 "/>
<path clip-path="url(#clip152)" d="M1788.45 1329.31 L1788.45 1384.24 L1798.1 1384.24 L1798.1 1329.31 L1788.45 1329.31 L1788.45 1329.31  Z" fill="#009af9" fill-rule="evenodd" fill-opacity="1"/>
<polyline clip-path="url(#clip152)" style="stroke:#000000; stroke-linecap:round; stroke-linejoin:round; stroke-width:4; stroke-opacity:1; fill:none" points="1788.45,1329.31 1788.45,1384.24 1798.1,1384.24 1798.1,1329.31 1788.45,1329.31 "/>
<path clip-path="url(#clip152)" d="M1807.46 1329.78 L1807.46 1384.24 L1817.12 1384.24 L1817.12 1329.78 L1807.46 1329.78 L1807.46 1329.78  Z" fill="#009af9" fill-rule="evenodd" fill-opacity="1"/>
<polyline clip-path="url(#clip152)" style="stroke:#000000; stroke-linecap:round; stroke-linejoin:round; stroke-width:4; stroke-opacity:1; fill:none" points="1807.46,1329.78 1807.46,1384.24 1817.12,1384.24 1817.12,1329.78 1807.46,1329.78 "/>
<path clip-path="url(#clip152)" d="M1826.48 1330.24 L1826.48 1384.24 L1836.13 1384.24 L1836.13 1330.24 L1826.48 1330.24 L1826.48 1330.24  Z" fill="#009af9" fill-rule="evenodd" fill-opacity="1"/>
<polyline clip-path="url(#clip152)" style="stroke:#000000; stroke-linecap:round; stroke-linejoin:round; stroke-width:4; stroke-opacity:1; fill:none" points="1826.48,1330.24 1826.48,1384.24 1836.13,1384.24 1836.13,1330.24 1826.48,1330.24 "/>
<path clip-path="url(#clip152)" d="M1845.49 1330.69 L1845.49 1384.24 L1855.14 1384.24 L1855.14 1330.69 L1845.49 1330.69 L1845.49 1330.69  Z" fill="#009af9" fill-rule="evenodd" fill-opacity="1"/>
<polyline clip-path="url(#clip152)" style="stroke:#000000; stroke-linecap:round; stroke-linejoin:round; stroke-width:4; stroke-opacity:1; fill:none" points="1845.49,1330.69 1845.49,1384.24 1855.14,1384.24 1855.14,1330.69 1845.49,1330.69 "/>
<path clip-path="url(#clip152)" d="M1864.5 1331.12 L1864.5 1384.24 L1874.15 1384.24 L1874.15 1331.12 L1864.5 1331.12 L1864.5 1331.12  Z" fill="#009af9" fill-rule="evenodd" fill-opacity="1"/>
<polyline clip-path="url(#clip152)" style="stroke:#000000; stroke-linecap:round; stroke-linejoin:round; stroke-width:4; stroke-opacity:1; fill:none" points="1864.5,1331.12 1864.5,1384.24 1874.15,1384.24 1874.15,1331.12 1864.5,1331.12 "/>
<path clip-path="url(#clip152)" d="M1883.51 1331.54 L1883.51 1384.24 L1893.16 1384.24 L1893.16 1331.54 L1883.51 1331.54 L1883.51 1331.54  Z" fill="#009af9" fill-rule="evenodd" fill-opacity="1"/>
<polyline clip-path="url(#clip152)" style="stroke:#000000; stroke-linecap:round; stroke-linejoin:round; stroke-width:4; stroke-opacity:1; fill:none" points="1883.51,1331.54 1883.51,1384.24 1893.16,1384.24 1893.16,1331.54 1883.51,1331.54 "/>
<path clip-path="url(#clip152)" d="M1902.53 1331.95 L1902.53 1384.24 L1912.18 1384.24 L1912.18 1331.95 L1902.53 1331.95 L1902.53 1331.95  Z" fill="#009af9" fill-rule="evenodd" fill-opacity="1"/>
<polyline clip-path="url(#clip152)" style="stroke:#000000; stroke-linecap:round; stroke-linejoin:round; stroke-width:4; stroke-opacity:1; fill:none" points="1902.53,1331.95 1902.53,1384.24 1912.18,1384.24 1912.18,1331.95 1902.53,1331.95 "/>
<path clip-path="url(#clip152)" d="M1921.54 1332.34 L1921.54 1384.24 L1931.19 1384.24 L1931.19 1332.34 L1921.54 1332.34 L1921.54 1332.34  Z" fill="#009af9" fill-rule="evenodd" fill-opacity="1"/>
<polyline clip-path="url(#clip152)" style="stroke:#000000; stroke-linecap:round; stroke-linejoin:round; stroke-width:4; stroke-opacity:1; fill:none" points="1921.54,1332.34 1921.54,1384.24 1931.19,1384.24 1931.19,1332.34 1921.54,1332.34 "/>
<path clip-path="url(#clip152)" d="M1940.55 1332.72 L1940.55 1384.24 L1950.2 1384.24 L1950.2 1332.72 L1940.55 1332.72 L1940.55 1332.72  Z" fill="#009af9" fill-rule="evenodd" fill-opacity="1"/>
<polyline clip-path="url(#clip152)" style="stroke:#000000; stroke-linecap:round; stroke-linejoin:round; stroke-width:4; stroke-opacity:1; fill:none" points="1940.55,1332.72 1940.55,1384.24 1950.2,1384.24 1950.2,1332.72 1940.55,1332.72 "/>
<path clip-path="url(#clip152)" d="M1959.56 1333.08 L1959.56 1384.24 L1969.21 1384.24 L1969.21 1333.08 L1959.56 1333.08 L1959.56 1333.08  Z" fill="#009af9" fill-rule="evenodd" fill-opacity="1"/>
<polyline clip-path="url(#clip152)" style="stroke:#000000; stroke-linecap:round; stroke-linejoin:round; stroke-width:4; stroke-opacity:1; fill:none" points="1959.56,1333.08 1959.56,1384.24 1969.21,1384.24 1969.21,1333.08 1959.56,1333.08 "/>
<path clip-path="url(#clip152)" d="M1978.58 1333.43 L1978.58 1384.24 L1988.23 1384.24 L1988.23 1333.43 L1978.58 1333.43 L1978.58 1333.43  Z" fill="#009af9" fill-rule="evenodd" fill-opacity="1"/>
<polyline clip-path="url(#clip152)" style="stroke:#000000; stroke-linecap:round; stroke-linejoin:round; stroke-width:4; stroke-opacity:1; fill:none" points="1978.58,1333.43 1978.58,1384.24 1988.23,1384.24 1988.23,1333.43 1978.58,1333.43 "/>
<path clip-path="url(#clip152)" d="M1997.59 1333.76 L1997.59 1384.24 L2007.24 1384.24 L2007.24 1333.76 L1997.59 1333.76 L1997.59 1333.76  Z" fill="#009af9" fill-rule="evenodd" fill-opacity="1"/>
<polyline clip-path="url(#clip152)" style="stroke:#000000; stroke-linecap:round; stroke-linejoin:round; stroke-width:4; stroke-opacity:1; fill:none" points="1997.59,1333.76 1997.59,1384.24 2007.24,1384.24 2007.24,1333.76 1997.59,1333.76 "/>
<path clip-path="url(#clip152)" d="M2016.6 1334.08 L2016.6 1384.24 L2026.25 1384.24 L2026.25 1334.08 L2016.6 1334.08 L2016.6 1334.08  Z" fill="#009af9" fill-rule="evenodd" fill-opacity="1"/>
<polyline clip-path="url(#clip152)" style="stroke:#000000; stroke-linecap:round; stroke-linejoin:round; stroke-width:4; stroke-opacity:1; fill:none" points="2016.6,1334.08 2016.6,1384.24 2026.25,1384.24 2026.25,1334.08 2016.6,1334.08 "/>
<path clip-path="url(#clip152)" d="M2035.62 1334.38 L2035.62 1384.24 L2045.27 1384.24 L2045.27 1334.38 L2035.62 1334.38 L2035.62 1334.38  Z" fill="#009af9" fill-rule="evenodd" fill-opacity="1"/>
<polyline clip-path="url(#clip152)" style="stroke:#000000; stroke-linecap:round; stroke-linejoin:round; stroke-width:4; stroke-opacity:1; fill:none" points="2035.62,1334.38 2035.62,1384.24 2045.27,1384.24 2045.27,1334.38 2035.62,1334.38 "/>
<path clip-path="url(#clip152)" d="M2054.63 1334.66 L2054.63 1384.24 L2064.28 1384.24 L2064.28 1334.66 L2054.63 1334.66 L2054.63 1334.66  Z" fill="#009af9" fill-rule="evenodd" fill-opacity="1"/>
<polyline clip-path="url(#clip152)" style="stroke:#000000; stroke-linecap:round; stroke-linejoin:round; stroke-width:4; stroke-opacity:1; fill:none" points="2054.63,1334.66 2054.63,1384.24 2064.28,1384.24 2064.28,1334.66 2054.63,1334.66 "/>
<path clip-path="url(#clip152)" d="M2073.64 1334.92 L2073.64 1384.24 L2083.29 1384.24 L2083.29 1334.92 L2073.64 1334.92 L2073.64 1334.92  Z" fill="#009af9" fill-rule="evenodd" fill-opacity="1"/>
<polyline clip-path="url(#clip152)" style="stroke:#000000; stroke-linecap:round; stroke-linejoin:round; stroke-width:4; stroke-opacity:1; fill:none" points="2073.64,1334.92 2073.64,1384.24 2083.29,1384.24 2083.29,1334.92 2073.64,1334.92 "/>
<path clip-path="url(#clip152)" d="M2092.66 1335.15 L2092.66 1384.24 L2102.31 1384.24 L2102.31 1335.15 L2092.66 1335.15 L2092.66 1335.15  Z" fill="#009af9" fill-rule="evenodd" fill-opacity="1"/>
<polyline clip-path="url(#clip152)" style="stroke:#000000; stroke-linecap:round; stroke-linejoin:round; stroke-width:4; stroke-opacity:1; fill:none" points="2092.66,1335.15 2092.66,1384.24 2102.31,1384.24 2102.31,1335.15 2092.66,1335.15 "/>
<path clip-path="url(#clip152)" d="M2111.67 1335.35 L2111.67 1384.24 L2121.32 1384.24 L2121.32 1335.35 L2111.67 1335.35 L2111.67 1335.35  Z" fill="#009af9" fill-rule="evenodd" fill-opacity="1"/>
<polyline clip-path="url(#clip152)" style="stroke:#000000; stroke-linecap:round; stroke-linejoin:round; stroke-width:4; stroke-opacity:1; fill:none" points="2111.67,1335.35 2111.67,1384.24 2121.32,1384.24 2121.32,1335.35 2111.67,1335.35 "/>
<path clip-path="url(#clip152)" d="M2130.69 1335.51 L2130.69 1384.24 L2140.34 1384.24 L2140.34 1335.51 L2130.69 1335.51 L2130.69 1335.51  Z" fill="#009af9" fill-rule="evenodd" fill-opacity="1"/>
<polyline clip-path="url(#clip152)" style="stroke:#000000; stroke-linecap:round; stroke-linejoin:round; stroke-width:4; stroke-opacity:1; fill:none" points="2130.69,1335.51 2130.69,1384.24 2140.34,1384.24 2140.34,1335.51 2130.69,1335.51 "/>
<path clip-path="url(#clip152)" d="M2149.7 1335.61 L2149.7 1384.24 L2159.35 1384.24 L2159.35 1335.61 L2149.7 1335.61 L2149.7 1335.61  Z" fill="#009af9" fill-rule="evenodd" fill-opacity="1"/>
<polyline clip-path="url(#clip152)" style="stroke:#000000; stroke-linecap:round; stroke-linejoin:round; stroke-width:4; stroke-opacity:1; fill:none" points="2149.7,1335.61 2149.7,1384.24 2159.35,1384.24 2159.35,1335.61 2149.7,1335.61 "/>
<path clip-path="url(#clip152)" d="M2168.72 1335.63 L2168.72 1384.24 L2178.37 1384.24 L2178.37 1335.63 L2168.72 1335.63 L2168.72 1335.63  Z" fill="#009af9" fill-rule="evenodd" fill-opacity="1"/>
<polyline clip-path="url(#clip152)" style="stroke:#000000; stroke-linecap:round; stroke-linejoin:round; stroke-width:4; stroke-opacity:1; fill:none" points="2168.72,1335.63 2168.72,1384.24 2178.37,1384.24 2178.37,1335.63 2168.72,1335.63 "/>
<path clip-path="url(#clip152)" d="M2187.74 1335.52 L2187.74 1384.24 L2197.39 1384.24 L2197.39 1335.52 L2187.74 1335.52 L2187.74 1335.52  Z" fill="#009af9" fill-rule="evenodd" fill-opacity="1"/>
<polyline clip-path="url(#clip152)" style="stroke:#000000; stroke-linecap:round; stroke-linejoin:round; stroke-width:4; stroke-opacity:1; fill:none" points="2187.74,1335.52 2187.74,1384.24 2197.39,1384.24 2197.39,1335.52 2187.74,1335.52 "/>
<path clip-path="url(#clip152)" d="M2206.76 1335.13 L2206.76 1384.24 L2216.41 1384.24 L2216.41 1335.13 L2206.76 1335.13 L2206.76 1335.13  Z" fill="#009af9" fill-rule="evenodd" fill-opacity="1"/>
<polyline clip-path="url(#clip152)" style="stroke:#000000; stroke-linecap:round; stroke-linejoin:round; stroke-width:4; stroke-opacity:1; fill:none" points="2206.76,1335.13 2206.76,1384.24 2216.41,1384.24 2216.41,1335.13 2206.76,1335.13 "/>
<path clip-path="url(#clip152)" d="M2225.79 1333.86 L2225.79 1384.24 L2235.44 1384.24 L2235.44 1333.86 L2225.79 1333.86 L2225.79 1333.86  Z" fill="#009af9" fill-rule="evenodd" fill-opacity="1"/>
<polyline clip-path="url(#clip152)" style="stroke:#000000; stroke-linecap:round; stroke-linejoin:round; stroke-width:4; stroke-opacity:1; fill:none" points="2225.79,1333.86 2225.79,1384.24 2235.44,1384.24 2235.44,1333.86 2225.79,1333.86 "/>
<circle clip-path="url(#clip152)" style="fill:#009af9; stroke:none; fill-opacity:0" cx="342.005" cy="86.1857" r="2"/>
<circle clip-path="url(#clip152)" style="fill:#009af9; stroke:none; fill-opacity:0" cx="354.069" cy="90.7509" r="2"/>
<circle clip-path="url(#clip152)" style="fill:#009af9; stroke:none; fill-opacity:0" cx="370.918" cy="519.619" r="2"/>
<circle clip-path="url(#clip152)" style="fill:#009af9; stroke:none; fill-opacity:0" cx="388.988" cy="742.08" r="2"/>
<circle clip-path="url(#clip152)" style="fill:#009af9; stroke:none; fill-opacity:0" cx="407.469" cy="869.412" r="2"/>
<circle clip-path="url(#clip152)" style="fill:#009af9; stroke:none; fill-opacity:0" cx="426.134" cy="951.358" r="2"/>
<circle clip-path="url(#clip152)" style="fill:#009af9; stroke:none; fill-opacity:0" cx="444.899" cy="1008.64" r="2"/>
<circle clip-path="url(#clip152)" style="fill:#009af9; stroke:none; fill-opacity:0" cx="463.724" cy="1051.07" r="2"/>
<circle clip-path="url(#clip152)" style="fill:#009af9; stroke:none; fill-opacity:0" cx="482.588" cy="1083.88" r="2"/>
<circle clip-path="url(#clip152)" style="fill:#009af9; stroke:none; fill-opacity:0" cx="501.48" cy="1110.06" r="2"/>
<circle clip-path="url(#clip152)" style="fill:#009af9; stroke:none; fill-opacity:0" cx="520.392" cy="1131.5" r="2"/>
<circle clip-path="url(#clip152)" style="fill:#009af9; stroke:none; fill-opacity:0" cx="539.32" cy="1149.41" r="2"/>
<circle clip-path="url(#clip152)" style="fill:#009af9; stroke:none; fill-opacity:0" cx="558.259" cy="1164.62" r="2"/>
<circle clip-path="url(#clip152)" style="fill:#009af9; stroke:none; fill-opacity:0" cx="577.208" cy="1177.71" r="2"/>
<circle clip-path="url(#clip152)" style="fill:#009af9; stroke:none; fill-opacity:0" cx="596.164" cy="1189.12" r="2"/>
<circle clip-path="url(#clip152)" style="fill:#009af9; stroke:none; fill-opacity:0" cx="615.127" cy="1199.16" r="2"/>
<circle clip-path="url(#clip152)" style="fill:#009af9; stroke:none; fill-opacity:0" cx="634.095" cy="1208.07" r="2"/>
<circle clip-path="url(#clip152)" style="fill:#009af9; stroke:none; fill-opacity:0" cx="653.067" cy="1216.03" r="2"/>
<circle clip-path="url(#clip152)" style="fill:#009af9; stroke:none; fill-opacity:0" cx="672.043" cy="1223.2" r="2"/>
<circle clip-path="url(#clip152)" style="fill:#009af9; stroke:none; fill-opacity:0" cx="691.022" cy="1229.69" r="2"/>
<circle clip-path="url(#clip152)" style="fill:#009af9; stroke:none; fill-opacity:0" cx="710.004" cy="1235.6" r="2"/>
<circle clip-path="url(#clip152)" style="fill:#009af9; stroke:none; fill-opacity:0" cx="728.989" cy="1241.01" r="2"/>
<circle clip-path="url(#clip152)" style="fill:#009af9; stroke:none; fill-opacity:0" cx="747.976" cy="1245.98" r="2"/>
<circle clip-path="url(#clip152)" style="fill:#009af9; stroke:none; fill-opacity:0" cx="766.965" cy="1250.55" r="2"/>
<circle clip-path="url(#clip152)" style="fill:#009af9; stroke:none; fill-opacity:0" cx="785.955" cy="1254.79" r="2"/>
<circle clip-path="url(#clip152)" style="fill:#009af9; stroke:none; fill-opacity:0" cx="804.947" cy="1258.72" r="2"/>
<circle clip-path="url(#clip152)" style="fill:#009af9; stroke:none; fill-opacity:0" cx="823.941" cy="1262.39" r="2"/>
<circle clip-path="url(#clip152)" style="fill:#009af9; stroke:none; fill-opacity:0" cx="842.936" cy="1265.81" r="2"/>
<circle clip-path="url(#clip152)" style="fill:#009af9; stroke:none; fill-opacity:0" cx="861.932" cy="1269.01" r="2"/>
<circle clip-path="url(#clip152)" style="fill:#009af9; stroke:none; fill-opacity:0" cx="880.929" cy="1272.01" r="2"/>
<circle clip-path="url(#clip152)" style="fill:#009af9; stroke:none; fill-opacity:0" cx="899.927" cy="1274.84" r="2"/>
<circle clip-path="url(#clip152)" style="fill:#009af9; stroke:none; fill-opacity:0" cx="918.925" cy="1277.5" r="2"/>
<circle clip-path="url(#clip152)" style="fill:#009af9; stroke:none; fill-opacity:0" cx="937.925" cy="1280.02" r="2"/>
<circle clip-path="url(#clip152)" style="fill:#009af9; stroke:none; fill-opacity:0" cx="956.925" cy="1282.39" r="2"/>
<circle clip-path="url(#clip152)" style="fill:#009af9; stroke:none; fill-opacity:0" cx="975.926" cy="1284.65" r="2"/>
<circle clip-path="url(#clip152)" style="fill:#009af9; stroke:none; fill-opacity:0" cx="994.928" cy="1286.78" r="2"/>
<circle clip-path="url(#clip152)" style="fill:#009af9; stroke:none; fill-opacity:0" cx="1013.93" cy="1288.81" r="2"/>
<circle clip-path="url(#clip152)" style="fill:#009af9; stroke:none; fill-opacity:0" cx="1032.93" cy="1290.75" r="2"/>
<circle clip-path="url(#clip152)" style="fill:#009af9; stroke:none; fill-opacity:0" cx="1051.94" cy="1292.59" r="2"/>
<circle clip-path="url(#clip152)" style="fill:#009af9; stroke:none; fill-opacity:0" cx="1070.94" cy="1294.35" r="2"/>
<circle clip-path="url(#clip152)" style="fill:#009af9; stroke:none; fill-opacity:0" cx="1089.94" cy="1296.03" r="2"/>
<circle clip-path="url(#clip152)" style="fill:#009af9; stroke:none; fill-opacity:0" cx="1108.95" cy="1297.63" r="2"/>
<circle clip-path="url(#clip152)" style="fill:#009af9; stroke:none; fill-opacity:0" cx="1127.95" cy="1299.17" r="2"/>
<circle clip-path="url(#clip152)" style="fill:#009af9; stroke:none; fill-opacity:0" cx="1146.96" cy="1300.64" r="2"/>
<circle clip-path="url(#clip152)" style="fill:#009af9; stroke:none; fill-opacity:0" cx="1165.97" cy="1302.05" r="2"/>
<circle clip-path="url(#clip152)" style="fill:#009af9; stroke:none; fill-opacity:0" cx="1184.97" cy="1303.41" r="2"/>
<circle clip-path="url(#clip152)" style="fill:#009af9; stroke:none; fill-opacity:0" cx="1203.98" cy="1304.71" r="2"/>
<circle clip-path="url(#clip152)" style="fill:#009af9; stroke:none; fill-opacity:0" cx="1222.99" cy="1305.97" r="2"/>
<circle clip-path="url(#clip152)" style="fill:#009af9; stroke:none; fill-opacity:0" cx="1241.99" cy="1307.17" r="2"/>
<circle clip-path="url(#clip152)" style="fill:#009af9; stroke:none; fill-opacity:0" cx="1261" cy="1308.33" r="2"/>
<circle clip-path="url(#clip152)" style="fill:#009af9; stroke:none; fill-opacity:0" cx="1280.01" cy="1309.45" r="2"/>
<circle clip-path="url(#clip152)" style="fill:#009af9; stroke:none; fill-opacity:0" cx="1299.01" cy="1310.53" r="2"/>
<circle clip-path="url(#clip152)" style="fill:#009af9; stroke:none; fill-opacity:0" cx="1318.02" cy="1311.58" r="2"/>
<circle clip-path="url(#clip152)" style="fill:#009af9; stroke:none; fill-opacity:0" cx="1337.03" cy="1312.58" r="2"/>
<circle clip-path="url(#clip152)" style="fill:#009af9; stroke:none; fill-opacity:0" cx="1356.04" cy="1313.56" r="2"/>
<circle clip-path="url(#clip152)" style="fill:#009af9; stroke:none; fill-opacity:0" cx="1375.05" cy="1314.5" r="2"/>
<circle clip-path="url(#clip152)" style="fill:#009af9; stroke:none; fill-opacity:0" cx="1394.06" cy="1315.41" r="2"/>
<circle clip-path="url(#clip152)" style="fill:#009af9; stroke:none; fill-opacity:0" cx="1413.07" cy="1316.29" r="2"/>
<circle clip-path="url(#clip152)" style="fill:#009af9; stroke:none; fill-opacity:0" cx="1432.08" cy="1317.14" r="2"/>
<circle clip-path="url(#clip152)" style="fill:#009af9; stroke:none; fill-opacity:0" cx="1451.09" cy="1317.97" r="2"/>
<circle clip-path="url(#clip152)" style="fill:#009af9; stroke:none; fill-opacity:0" cx="1470.09" cy="1318.77" r="2"/>
<circle clip-path="url(#clip152)" style="fill:#009af9; stroke:none; fill-opacity:0" cx="1489.1" cy="1319.54" r="2"/>
<circle clip-path="url(#clip152)" style="fill:#009af9; stroke:none; fill-opacity:0" cx="1508.11" cy="1320.29" r="2"/>
<circle clip-path="url(#clip152)" style="fill:#009af9; stroke:none; fill-opacity:0" cx="1527.12" cy="1321.03" r="2"/>
<circle clip-path="url(#clip152)" style="fill:#009af9; stroke:none; fill-opacity:0" cx="1546.13" cy="1321.73" r="2"/>
<circle clip-path="url(#clip152)" style="fill:#009af9; stroke:none; fill-opacity:0" cx="1565.14" cy="1322.42" r="2"/>
<circle clip-path="url(#clip152)" style="fill:#009af9; stroke:none; fill-opacity:0" cx="1584.16" cy="1323.09" r="2"/>
<circle clip-path="url(#clip152)" style="fill:#009af9; stroke:none; fill-opacity:0" cx="1603.17" cy="1323.74" r="2"/>
<circle clip-path="url(#clip152)" style="fill:#009af9; stroke:none; fill-opacity:0" cx="1622.18" cy="1324.37" r="2"/>
<circle clip-path="url(#clip152)" style="fill:#009af9; stroke:none; fill-opacity:0" cx="1641.19" cy="1324.98" r="2"/>
<circle clip-path="url(#clip152)" style="fill:#009af9; stroke:none; fill-opacity:0" cx="1660.2" cy="1325.58" r="2"/>
<circle clip-path="url(#clip152)" style="fill:#009af9; stroke:none; fill-opacity:0" cx="1679.21" cy="1326.16" r="2"/>
<circle clip-path="url(#clip152)" style="fill:#009af9; stroke:none; fill-opacity:0" cx="1698.22" cy="1326.72" r="2"/>
<circle clip-path="url(#clip152)" style="fill:#009af9; stroke:none; fill-opacity:0" cx="1717.23" cy="1327.27" r="2"/>
<circle clip-path="url(#clip152)" style="fill:#009af9; stroke:none; fill-opacity:0" cx="1736.24" cy="1327.8" r="2"/>
<circle clip-path="url(#clip152)" style="fill:#009af9; stroke:none; fill-opacity:0" cx="1755.26" cy="1328.32" r="2"/>
<circle clip-path="url(#clip152)" style="fill:#009af9; stroke:none; fill-opacity:0" cx="1774.27" cy="1328.82" r="2"/>
<circle clip-path="url(#clip152)" style="fill:#009af9; stroke:none; fill-opacity:0" cx="1793.28" cy="1329.31" r="2"/>
<circle clip-path="url(#clip152)" style="fill:#009af9; stroke:none; fill-opacity:0" cx="1812.29" cy="1329.78" r="2"/>
<circle clip-path="url(#clip152)" style="fill:#009af9; stroke:none; fill-opacity:0" cx="1831.3" cy="1330.24" r="2"/>
<circle clip-path="url(#clip152)" style="fill:#009af9; stroke:none; fill-opacity:0" cx="1850.31" cy="1330.69" r="2"/>
<circle clip-path="url(#clip152)" style="fill:#009af9; stroke:none; fill-opacity:0" cx="1869.33" cy="1331.12" r="2"/>
<circle clip-path="url(#clip152)" style="fill:#009af9; stroke:none; fill-opacity:0" cx="1888.34" cy="1331.54" r="2"/>
<circle clip-path="url(#clip152)" style="fill:#009af9; stroke:none; fill-opacity:0" cx="1907.35" cy="1331.95" r="2"/>
<circle clip-path="url(#clip152)" style="fill:#009af9; stroke:none; fill-opacity:0" cx="1926.36" cy="1332.34" r="2"/>
<circle clip-path="url(#clip152)" style="fill:#009af9; stroke:none; fill-opacity:0" cx="1945.38" cy="1332.72" r="2"/>
<circle clip-path="url(#clip152)" style="fill:#009af9; stroke:none; fill-opacity:0" cx="1964.39" cy="1333.08" r="2"/>
<circle clip-path="url(#clip152)" style="fill:#009af9; stroke:none; fill-opacity:0" cx="1983.4" cy="1333.43" r="2"/>
<circle clip-path="url(#clip152)" style="fill:#009af9; stroke:none; fill-opacity:0" cx="2002.42" cy="1333.76" r="2"/>
<circle clip-path="url(#clip152)" style="fill:#009af9; stroke:none; fill-opacity:0" cx="2021.43" cy="1334.08" r="2"/>
<circle clip-path="url(#clip152)" style="fill:#009af9; stroke:none; fill-opacity:0" cx="2040.44" cy="1334.38" r="2"/>
<circle clip-path="url(#clip152)" style="fill:#009af9; stroke:none; fill-opacity:0" cx="2059.46" cy="1334.66" r="2"/>
<circle clip-path="url(#clip152)" style="fill:#009af9; stroke:none; fill-opacity:0" cx="2078.47" cy="1334.92" r="2"/>
<circle clip-path="url(#clip152)" style="fill:#009af9; stroke:none; fill-opacity:0" cx="2097.48" cy="1335.15" r="2"/>
<circle clip-path="url(#clip152)" style="fill:#009af9; stroke:none; fill-opacity:0" cx="2116.5" cy="1335.35" r="2"/>
<circle clip-path="url(#clip152)" style="fill:#009af9; stroke:none; fill-opacity:0" cx="2135.51" cy="1335.51" r="2"/>
<circle clip-path="url(#clip152)" style="fill:#009af9; stroke:none; fill-opacity:0" cx="2154.53" cy="1335.61" r="2"/>
<circle clip-path="url(#clip152)" style="fill:#009af9; stroke:none; fill-opacity:0" cx="2173.55" cy="1335.63" r="2"/>
<circle clip-path="url(#clip152)" style="fill:#009af9; stroke:none; fill-opacity:0" cx="2192.56" cy="1335.52" r="2"/>
<circle clip-path="url(#clip152)" style="fill:#009af9; stroke:none; fill-opacity:0" cx="2211.58" cy="1335.13" r="2"/>
<circle clip-path="url(#clip152)" style="fill:#009af9; stroke:none; fill-opacity:0" cx="2230.62" cy="1333.86" r="2"/>
<path clip-path="url(#clip150)" d="M2015.94 196.789 L2281.66 196.789 L2281.66 93.1086 L2015.94 93.1086  Z" fill="#ffffff" fill-rule="evenodd" fill-opacity="1"/>
<polyline clip-path="url(#clip150)" style="stroke:#000000; stroke-linecap:round; stroke-linejoin:round; stroke-width:4; stroke-opacity:1; fill:none" points="2015.94,196.789 2281.66,196.789 2281.66,93.1086 2015.94,93.1086 2015.94,196.789 "/>
<path clip-path="url(#clip150)" d="M2039.64 165.685 L2181.83 165.685 L2181.83 124.213 L2039.64 124.213 L2039.64 165.685  Z" fill="#009af9" fill-rule="evenodd" fill-opacity="1"/>
<polyline clip-path="url(#clip150)" style="stroke:#000000; stroke-linecap:round; stroke-linejoin:round; stroke-width:4; stroke-opacity:1; fill:none" points="2039.64,165.685 2181.83,165.685 2181.83,124.213 2039.64,124.213 2039.64,165.685 "/>
<path clip-path="url(#clip150)" d="M2219.37 164.636 Q2217.57 169.266 2215.85 170.678 Q2214.14 172.09 2211.27 172.09 L2207.87 172.09 L2207.87 168.525 L2210.37 168.525 Q2212.13 168.525 2213.1 167.692 Q2214.07 166.858 2215.25 163.756 L2216.02 161.812 L2205.53 136.303 L2210.04 136.303 L2218.15 156.581 L2226.25 136.303 L2230.76 136.303 L2219.37 164.636 Z" fill="#000000" fill-rule="evenodd" fill-opacity="1" /><path clip-path="url(#clip150)" d="M2238.05 158.293 L2245.69 158.293 L2245.69 131.928 L2237.38 133.595 L2237.38 129.335 L2245.65 127.669 L2250.32 127.669 L2250.32 158.293 L2257.96 158.293 L2257.96 162.229 L2238.05 162.229 L2238.05 158.293 Z" fill="#000000" fill-rule="evenodd" fill-opacity="1" /></svg>
