<?xml version="1.0" encoding="utf-8"?>
<svg xmlns="http://www.w3.org/2000/svg" xmlns:xlink="http://www.w3.org/1999/xlink" width="600" height="400" viewBox="0 0 2400 1600">
<defs>
  <clipPath id="clip460">
    <rect x="0" y="0" width="2400" height="1600"/>
  </clipPath>
</defs>
<path clip-path="url(#clip460)" d="M0 1600 L2400 1600 L2400 0 L0 0  Z" fill="#ffffff" fill-rule="evenodd" fill-opacity="1"/>
<defs>
  <clipPath id="clip461">
    <rect x="480" y="0" width="1681" height="1600"/>
  </clipPath>
</defs>
<path clip-path="url(#clip460)" d="M186.274 1486.45 L2352.76 1486.45 L2352.76 47.2441 L186.274 47.2441  Z" fill="#ffffff" fill-rule="evenodd" fill-opacity="1"/>
<defs>
  <clipPath id="clip462">
    <rect x="186" y="47" width="2167" height="1440"/>
  </clipPath>
</defs>
<polyline clip-path="url(#clip462)" style="stroke:#000000; stroke-linecap:round; stroke-linejoin:round; stroke-width:2; stroke-opacity:0.1; fill:none" points="245.544,1486.45 245.544,47.2441 "/>
<polyline clip-path="url(#clip462)" style="stroke:#000000; stroke-linecap:round; stroke-linejoin:round; stroke-width:2; stroke-opacity:0.1; fill:none" points="757.018,1486.45 757.018,47.2441 "/>
<polyline clip-path="url(#clip462)" style="stroke:#000000; stroke-linecap:round; stroke-linejoin:round; stroke-width:2; stroke-opacity:0.1; fill:none" points="1268.49,1486.45 1268.49,47.2441 "/>
<polyline clip-path="url(#clip462)" style="stroke:#000000; stroke-linecap:round; stroke-linejoin:round; stroke-width:2; stroke-opacity:0.1; fill:none" points="1779.97,1486.45 1779.97,47.2441 "/>
<polyline clip-path="url(#clip462)" style="stroke:#000000; stroke-linecap:round; stroke-linejoin:round; stroke-width:2; stroke-opacity:0.1; fill:none" points="2291.44,1486.45 2291.44,47.2441 "/>
<polyline clip-path="url(#clip460)" style="stroke:#000000; stroke-linecap:round; stroke-linejoin:round; stroke-width:4; stroke-opacity:1; fill:none" points="186.274,1486.45 2352.76,1486.45 "/>
<polyline clip-path="url(#clip460)" style="stroke:#000000; stroke-linecap:round; stroke-linejoin:round; stroke-width:4; stroke-opacity:1; fill:none" points="245.544,1486.45 245.544,1467.55 "/>
<polyline clip-path="url(#clip460)" style="stroke:#000000; stroke-linecap:round; stroke-linejoin:round; stroke-width:4; stroke-opacity:1; fill:none" points="757.018,1486.45 757.018,1467.55 "/>
<polyline clip-path="url(#clip460)" style="stroke:#000000; stroke-linecap:round; stroke-linejoin:round; stroke-width:4; stroke-opacity:1; fill:none" points="1268.49,1486.45 1268.49,1467.55 "/>
<polyline clip-path="url(#clip460)" style="stroke:#000000; stroke-linecap:round; stroke-linejoin:round; stroke-width:4; stroke-opacity:1; fill:none" points="1779.97,1486.45 1779.97,1467.55 "/>
<polyline clip-path="url(#clip460)" style="stroke:#000000; stroke-linecap:round; stroke-linejoin:round; stroke-width:4; stroke-opacity:1; fill:none" points="2291.44,1486.45 2291.44,1467.55 "/>
<path clip-path="url(#clip460)" d="M245.544 1517.37 Q241.933 1517.37 240.104 1520.93 Q238.298 1524.47 238.298 1531.6 Q238.298 1538.71 240.104 1542.27 Q241.933 1545.82 245.544 1545.82 Q249.178 1545.82 250.983 1542.27 Q252.812 1538.71 252.812 1531.6 Q252.812 1524.47 250.983 1520.93 Q249.178 1517.37 245.544 1517.37 M245.544 1513.66 Q251.354 1513.66 254.409 1518.27 Q257.488 1522.85 257.488 1531.6 Q257.488 1540.33 254.409 1544.94 Q251.354 1549.52 245.544 1549.52 Q239.733 1549.52 236.655 1544.94 Q233.599 1540.33 233.599 1531.6 Q233.599 1522.85 236.655 1518.27 Q239.733 1513.66 245.544 1513.66 Z" fill="#000000" fill-rule="evenodd" fill-opacity="1" /><path clip-path="url(#clip460)" d="M736.289 1544.91 L752.608 1544.91 L752.608 1548.85 L730.664 1548.85 L730.664 1544.91 Q733.326 1542.16 737.909 1537.53 Q742.516 1532.88 743.696 1531.53 Q745.941 1529.01 746.821 1527.27 Q747.724 1525.51 747.724 1523.82 Q747.724 1521.07 745.779 1519.33 Q743.858 1517.6 740.756 1517.6 Q738.557 1517.6 736.104 1518.36 Q733.673 1519.13 730.895 1520.68 L730.895 1515.95 Q733.719 1514.82 736.173 1514.24 Q738.627 1513.66 740.664 1513.66 Q746.034 1513.66 749.229 1516.35 Q752.423 1519.03 752.423 1523.52 Q752.423 1525.65 751.613 1527.57 Q750.826 1529.47 748.719 1532.07 Q748.141 1532.74 745.039 1535.95 Q741.937 1539.15 736.289 1544.91 Z" fill="#000000" fill-rule="evenodd" fill-opacity="1" /><path clip-path="url(#clip460)" d="M762.469 1514.29 L780.826 1514.29 L780.826 1518.22 L766.752 1518.22 L766.752 1526.7 Q767.77 1526.35 768.789 1526.19 Q769.807 1526 770.826 1526 Q776.613 1526 779.992 1529.17 Q783.372 1532.34 783.372 1537.76 Q783.372 1543.34 779.9 1546.44 Q776.427 1549.52 770.108 1549.52 Q767.932 1549.52 765.664 1549.15 Q763.418 1548.78 761.011 1548.04 L761.011 1543.34 Q763.094 1544.47 765.316 1545.03 Q767.539 1545.58 770.015 1545.58 Q774.02 1545.58 776.358 1543.48 Q778.696 1541.37 778.696 1537.76 Q778.696 1534.15 776.358 1532.04 Q774.02 1529.94 770.015 1529.94 Q768.14 1529.94 766.265 1530.35 Q764.414 1530.77 762.469 1531.65 L762.469 1514.29 Z" fill="#000000" fill-rule="evenodd" fill-opacity="1" /><path clip-path="url(#clip460)" d="M1243.19 1514.29 L1261.55 1514.29 L1261.55 1518.22 L1247.47 1518.22 L1247.47 1526.7 Q1248.49 1526.35 1249.51 1526.19 Q1250.53 1526 1251.55 1526 Q1257.33 1526 1260.71 1529.17 Q1264.09 1532.34 1264.09 1537.76 Q1264.09 1543.34 1260.62 1546.44 Q1257.15 1549.52 1250.83 1549.52 Q1248.65 1549.52 1246.39 1549.15 Q1244.14 1548.78 1241.73 1548.04 L1241.73 1543.34 Q1243.82 1544.47 1246.04 1545.03 Q1248.26 1545.58 1250.74 1545.58 Q1254.74 1545.58 1257.08 1543.48 Q1259.42 1541.37 1259.42 1537.76 Q1259.42 1534.15 1257.08 1532.04 Q1254.74 1529.94 1250.74 1529.94 Q1248.86 1529.94 1246.99 1530.35 Q1245.14 1530.77 1243.19 1531.65 L1243.19 1514.29 Z" fill="#000000" fill-rule="evenodd" fill-opacity="1" /><path clip-path="url(#clip460)" d="M1283.31 1517.37 Q1279.7 1517.37 1277.87 1520.93 Q1276.06 1524.47 1276.06 1531.6 Q1276.06 1538.71 1277.87 1542.27 Q1279.7 1545.82 1283.31 1545.82 Q1286.94 1545.82 1288.75 1542.27 Q1290.58 1538.71 1290.58 1531.6 Q1290.58 1524.47 1288.75 1520.93 Q1286.94 1517.37 1283.31 1517.37 M1283.31 1513.66 Q1289.12 1513.66 1292.17 1518.27 Q1295.25 1522.85 1295.25 1531.6 Q1295.25 1540.33 1292.17 1544.94 Q1289.12 1549.52 1283.31 1549.52 Q1277.5 1549.52 1274.42 1544.94 Q1271.36 1540.33 1271.36 1531.6 Q1271.36 1522.85 1274.42 1518.27 Q1277.5 1513.66 1283.31 1513.66 Z" fill="#000000" fill-rule="evenodd" fill-opacity="1" /><path clip-path="url(#clip460)" d="M1753.82 1514.29 L1776.04 1514.29 L1776.04 1516.28 L1763.5 1548.85 L1758.61 1548.85 L1770.42 1518.22 L1753.82 1518.22 L1753.82 1514.29 Z" fill="#000000" fill-rule="evenodd" fill-opacity="1" /><path clip-path="url(#clip460)" d="M1785.21 1514.29 L1803.57 1514.29 L1803.57 1518.22 L1789.49 1518.22 L1789.49 1526.7 Q1790.51 1526.35 1791.53 1526.19 Q1792.55 1526 1793.57 1526 Q1799.35 1526 1802.73 1529.17 Q1806.11 1532.34 1806.11 1537.76 Q1806.11 1543.34 1802.64 1546.44 Q1799.17 1549.52 1792.85 1549.52 Q1790.67 1549.52 1788.4 1549.15 Q1786.16 1548.78 1783.75 1548.04 L1783.75 1543.34 Q1785.83 1544.47 1788.06 1545.03 Q1790.28 1545.58 1792.76 1545.58 Q1796.76 1545.58 1799.1 1543.48 Q1801.44 1541.37 1801.44 1537.76 Q1801.44 1534.15 1799.1 1532.04 Q1796.76 1529.94 1792.76 1529.94 Q1790.88 1529.94 1789.01 1530.35 Q1787.15 1530.77 1785.21 1531.65 L1785.21 1514.29 Z" fill="#000000" fill-rule="evenodd" fill-opacity="1" /><path clip-path="url(#clip460)" d="M2251.05 1544.91 L2258.69 1544.91 L2258.69 1518.55 L2250.38 1520.21 L2250.38 1515.95 L2258.64 1514.29 L2263.32 1514.29 L2263.32 1544.91 L2270.95 1544.91 L2270.95 1548.85 L2251.05 1548.85 L2251.05 1544.91 Z" fill="#000000" fill-rule="evenodd" fill-opacity="1" /><path clip-path="url(#clip460)" d="M2290.4 1517.37 Q2286.79 1517.37 2284.96 1520.93 Q2283.15 1524.47 2283.15 1531.6 Q2283.15 1538.71 2284.96 1542.27 Q2286.79 1545.82 2290.4 1545.82 Q2294.03 1545.82 2295.84 1542.27 Q2297.67 1538.71 2297.67 1531.6 Q2297.67 1524.47 2295.84 1520.93 Q2294.03 1517.37 2290.4 1517.37 M2290.4 1513.66 Q2296.21 1513.66 2299.26 1518.27 Q2302.34 1522.85 2302.34 1531.6 Q2302.34 1540.33 2299.26 1544.94 Q2296.21 1549.52 2290.4 1549.52 Q2284.59 1549.52 2281.51 1544.94 Q2278.45 1540.33 2278.45 1531.6 Q2278.45 1522.85 2281.51 1518.27 Q2284.59 1513.66 2290.4 1513.66 Z" fill="#000000" fill-rule="evenodd" fill-opacity="1" /><path clip-path="url(#clip460)" d="M2320.56 1517.37 Q2316.95 1517.37 2315.12 1520.93 Q2313.32 1524.47 2313.32 1531.6 Q2313.32 1538.71 2315.12 1542.27 Q2316.95 1545.82 2320.56 1545.82 Q2324.19 1545.82 2326 1542.27 Q2327.83 1538.71 2327.83 1531.6 Q2327.83 1524.47 2326 1520.93 Q2324.19 1517.37 2320.56 1517.37 M2320.56 1513.66 Q2326.37 1513.66 2329.43 1518.27 Q2332.5 1522.85 2332.5 1531.6 Q2332.5 1540.33 2329.43 1544.94 Q2326.37 1549.52 2320.56 1549.52 Q2314.75 1549.52 2311.67 1544.94 Q2308.62 1540.33 2308.62 1531.6 Q2308.62 1522.85 2311.67 1518.27 Q2314.75 1513.66 2320.56 1513.66 Z" fill="#000000" fill-rule="evenodd" fill-opacity="1" /><polyline clip-path="url(#clip462)" style="stroke:#000000; stroke-linecap:round; stroke-linejoin:round; stroke-width:2; stroke-opacity:0.1; fill:none" points="186.274,1445.73 2352.76,1445.73 "/>
<polyline clip-path="url(#clip462)" style="stroke:#000000; stroke-linecap:round; stroke-linejoin:round; stroke-width:2; stroke-opacity:0.1; fill:none" points="186.274,1106.28 2352.76,1106.28 "/>
<polyline clip-path="url(#clip462)" style="stroke:#000000; stroke-linecap:round; stroke-linejoin:round; stroke-width:2; stroke-opacity:0.1; fill:none" points="186.274,766.833 2352.76,766.833 "/>
<polyline clip-path="url(#clip462)" style="stroke:#000000; stroke-linecap:round; stroke-linejoin:round; stroke-width:2; stroke-opacity:0.1; fill:none" points="186.274,427.385 2352.76,427.385 "/>
<polyline clip-path="url(#clip462)" style="stroke:#000000; stroke-linecap:round; stroke-linejoin:round; stroke-width:2; stroke-opacity:0.1; fill:none" points="186.274,87.9381 2352.76,87.9381 "/>
<polyline clip-path="url(#clip460)" style="stroke:#000000; stroke-linecap:round; stroke-linejoin:round; stroke-width:4; stroke-opacity:1; fill:none" points="186.274,1486.45 186.274,47.2441 "/>
<polyline clip-path="url(#clip460)" style="stroke:#000000; stroke-linecap:round; stroke-linejoin:round; stroke-width:4; stroke-opacity:1; fill:none" points="186.274,1445.73 205.172,1445.73 "/>
<polyline clip-path="url(#clip460)" style="stroke:#000000; stroke-linecap:round; stroke-linejoin:round; stroke-width:4; stroke-opacity:1; fill:none" points="186.274,1106.28 205.172,1106.28 "/>
<polyline clip-path="url(#clip460)" style="stroke:#000000; stroke-linecap:round; stroke-linejoin:round; stroke-width:4; stroke-opacity:1; fill:none" points="186.274,766.833 205.172,766.833 "/>
<polyline clip-path="url(#clip460)" style="stroke:#000000; stroke-linecap:round; stroke-linejoin:round; stroke-width:4; stroke-opacity:1; fill:none" points="186.274,427.385 205.172,427.385 "/>
<polyline clip-path="url(#clip460)" style="stroke:#000000; stroke-linecap:round; stroke-linejoin:round; stroke-width:4; stroke-opacity:1; fill:none" points="186.274,87.9381 205.172,87.9381 "/>
<path clip-path="url(#clip460)" d="M62.9365 1431.53 Q59.3254 1431.53 57.4967 1435.09 Q55.6912 1438.63 55.6912 1445.76 Q55.6912 1452.87 57.4967 1456.43 Q59.3254 1459.97 62.9365 1459.97 Q66.5707 1459.97 68.3763 1456.43 Q70.205 1452.87 70.205 1445.76 Q70.205 1438.63 68.3763 1435.09 Q66.5707 1431.53 62.9365 1431.53 M62.9365 1427.82 Q68.7467 1427.82 71.8022 1432.43 Q74.8809 1437.01 74.8809 1445.76 Q74.8809 1454.49 71.8022 1459.09 Q68.7467 1463.68 62.9365 1463.68 Q57.1264 1463.68 54.0477 1459.09 Q50.9921 1454.49 50.9921 1445.76 Q50.9921 1437.01 54.0477 1432.43 Q57.1264 1427.82 62.9365 1427.82 Z" fill="#000000" fill-rule="evenodd" fill-opacity="1" /><path clip-path="url(#clip460)" d="M83.0984 1457.13 L87.9827 1457.13 L87.9827 1463.01 L83.0984 1463.01 L83.0984 1457.13 Z" fill="#000000" fill-rule="evenodd" fill-opacity="1" /><path clip-path="url(#clip460)" d="M108.168 1431.53 Q104.557 1431.53 102.728 1435.09 Q100.922 1438.63 100.922 1445.76 Q100.922 1452.87 102.728 1456.43 Q104.557 1459.97 108.168 1459.97 Q111.802 1459.97 113.608 1456.43 Q115.436 1452.87 115.436 1445.76 Q115.436 1438.63 113.608 1435.09 Q111.802 1431.53 108.168 1431.53 M108.168 1427.82 Q113.978 1427.82 117.033 1432.43 Q120.112 1437.01 120.112 1445.76 Q120.112 1454.49 117.033 1459.09 Q113.978 1463.68 108.168 1463.68 Q102.358 1463.68 99.2789 1459.09 Q96.2234 1454.49 96.2234 1445.76 Q96.2234 1437.01 99.2789 1432.43 Q102.358 1427.82 108.168 1427.82 Z" fill="#000000" fill-rule="evenodd" fill-opacity="1" /><path clip-path="url(#clip460)" d="M138.33 1431.53 Q134.719 1431.53 132.89 1435.09 Q131.084 1438.63 131.084 1445.76 Q131.084 1452.87 132.89 1456.43 Q134.719 1459.97 138.33 1459.97 Q141.964 1459.97 143.769 1456.43 Q145.598 1452.87 145.598 1445.76 Q145.598 1438.63 143.769 1435.09 Q141.964 1431.53 138.33 1431.53 M138.33 1427.82 Q144.14 1427.82 147.195 1432.43 Q150.274 1437.01 150.274 1445.76 Q150.274 1454.49 147.195 1459.09 Q144.14 1463.68 138.33 1463.68 Q132.519 1463.68 129.441 1459.09 Q126.385 1454.49 126.385 1445.76 Q126.385 1437.01 129.441 1432.43 Q132.519 1427.82 138.33 1427.82 Z" fill="#000000" fill-rule="evenodd" fill-opacity="1" /><path clip-path="url(#clip460)" d="M63.9319 1092.08 Q60.3208 1092.08 58.4921 1095.64 Q56.6865 1099.18 56.6865 1106.31 Q56.6865 1113.42 58.4921 1116.99 Q60.3208 1120.53 63.9319 1120.53 Q67.5661 1120.53 69.3717 1116.99 Q71.2004 1113.42 71.2004 1106.31 Q71.2004 1099.18 69.3717 1095.64 Q67.5661 1092.08 63.9319 1092.08 M63.9319 1088.37 Q69.742 1088.37 72.7976 1092.98 Q75.8763 1097.56 75.8763 1106.31 Q75.8763 1115.04 72.7976 1119.65 Q69.742 1124.23 63.9319 1124.23 Q58.1217 1124.23 55.043 1119.65 Q51.9875 1115.04 51.9875 1106.31 Q51.9875 1097.56 55.043 1092.98 Q58.1217 1088.37 63.9319 1088.37 Z" fill="#000000" fill-rule="evenodd" fill-opacity="1" /><path clip-path="url(#clip460)" d="M84.0938 1117.68 L88.978 1117.68 L88.978 1123.56 L84.0938 1123.56 L84.0938 1117.68 Z" fill="#000000" fill-rule="evenodd" fill-opacity="1" /><path clip-path="url(#clip460)" d="M103.191 1119.62 L119.51 1119.62 L119.51 1123.56 L97.566 1123.56 L97.566 1119.62 Q100.228 1116.87 104.811 1112.24 Q109.418 1107.59 110.598 1106.25 Q112.844 1103.72 113.723 1101.99 Q114.626 1100.23 114.626 1098.54 Q114.626 1095.78 112.682 1094.05 Q110.76 1092.31 107.658 1092.31 Q105.459 1092.31 103.006 1093.07 Q100.575 1093.84 97.7974 1095.39 L97.7974 1090.67 Q100.621 1089.53 103.075 1088.95 Q105.529 1088.37 107.566 1088.37 Q112.936 1088.37 116.131 1091.06 Q119.325 1093.75 119.325 1098.24 Q119.325 1100.37 118.515 1102.29 Q117.728 1104.18 115.621 1106.78 Q115.043 1107.45 111.941 1110.67 Q108.839 1113.86 103.191 1119.62 Z" fill="#000000" fill-rule="evenodd" fill-opacity="1" /><path clip-path="url(#clip460)" d="M129.371 1089 L147.728 1089 L147.728 1092.93 L133.654 1092.93 L133.654 1101.41 Q134.672 1101.06 135.691 1100.9 Q136.709 1100.71 137.728 1100.71 Q143.515 1100.71 146.894 1103.88 Q150.274 1107.06 150.274 1112.47 Q150.274 1118.05 146.802 1121.15 Q143.33 1124.23 137.01 1124.23 Q134.834 1124.23 132.566 1123.86 Q130.32 1123.49 127.913 1122.75 L127.913 1118.05 Q129.996 1119.18 132.219 1119.74 Q134.441 1120.3 136.918 1120.3 Q140.922 1120.3 143.26 1118.19 Q145.598 1116.08 145.598 1112.47 Q145.598 1108.86 143.26 1106.75 Q140.922 1104.65 136.918 1104.65 Q135.043 1104.65 133.168 1105.06 Q131.316 1105.48 129.371 1106.36 L129.371 1089 Z" fill="#000000" fill-rule="evenodd" fill-opacity="1" /><path clip-path="url(#clip460)" d="M62.9365 752.631 Q59.3254 752.631 57.4967 756.196 Q55.6912 759.738 55.6912 766.867 Q55.6912 773.974 57.4967 777.539 Q59.3254 781.08 62.9365 781.08 Q66.5707 781.08 68.3763 777.539 Q70.205 773.974 70.205 766.867 Q70.205 759.738 68.3763 756.196 Q66.5707 752.631 62.9365 752.631 M62.9365 748.928 Q68.7467 748.928 71.8022 753.534 Q74.8809 758.117 74.8809 766.867 Q74.8809 775.594 71.8022 780.201 Q68.7467 784.784 62.9365 784.784 Q57.1264 784.784 54.0477 780.201 Q50.9921 775.594 50.9921 766.867 Q50.9921 758.117 54.0477 753.534 Q57.1264 748.928 62.9365 748.928 Z" fill="#000000" fill-rule="evenodd" fill-opacity="1" /><path clip-path="url(#clip460)" d="M83.0984 778.233 L87.9827 778.233 L87.9827 784.113 L83.0984 784.113 L83.0984 778.233 Z" fill="#000000" fill-rule="evenodd" fill-opacity="1" /><path clip-path="url(#clip460)" d="M98.2141 749.553 L116.57 749.553 L116.57 753.488 L102.496 753.488 L102.496 761.96 Q103.515 761.613 104.534 761.451 Q105.552 761.265 106.571 761.265 Q112.358 761.265 115.737 764.437 Q119.117 767.608 119.117 773.025 Q119.117 778.603 115.645 781.705 Q112.172 784.784 105.853 784.784 Q103.677 784.784 101.409 784.413 Q99.1632 784.043 96.7558 783.302 L96.7558 778.603 Q98.8391 779.738 101.061 780.293 Q103.284 780.849 105.76 780.849 Q109.765 780.849 112.103 778.742 Q114.441 776.636 114.441 773.025 Q114.441 769.414 112.103 767.307 Q109.765 765.201 105.76 765.201 Q103.885 765.201 102.01 765.617 Q100.159 766.034 98.2141 766.914 L98.2141 749.553 Z" fill="#000000" fill-rule="evenodd" fill-opacity="1" /><path clip-path="url(#clip460)" d="M138.33 752.631 Q134.719 752.631 132.89 756.196 Q131.084 759.738 131.084 766.867 Q131.084 773.974 132.89 777.539 Q134.719 781.08 138.33 781.08 Q141.964 781.08 143.769 777.539 Q145.598 773.974 145.598 766.867 Q145.598 759.738 143.769 756.196 Q141.964 752.631 138.33 752.631 M138.33 748.928 Q144.14 748.928 147.195 753.534 Q150.274 758.117 150.274 766.867 Q150.274 775.594 147.195 780.201 Q144.14 784.784 138.33 784.784 Q132.519 784.784 129.441 780.201 Q126.385 775.594 126.385 766.867 Q126.385 758.117 129.441 753.534 Q132.519 748.928 138.33 748.928 Z" fill="#000000" fill-rule="evenodd" fill-opacity="1" /><path clip-path="url(#clip460)" d="M63.9319 413.184 Q60.3208 413.184 58.4921 416.749 Q56.6865 420.29 56.6865 427.42 Q56.6865 434.526 58.4921 438.091 Q60.3208 441.633 63.9319 441.633 Q67.5661 441.633 69.3717 438.091 Q71.2004 434.526 71.2004 427.42 Q71.2004 420.29 69.3717 416.749 Q67.5661 413.184 63.9319 413.184 M63.9319 409.48 Q69.742 409.48 72.7976 414.087 Q75.8763 418.67 75.8763 427.42 Q75.8763 436.147 72.7976 440.753 Q69.742 445.337 63.9319 445.337 Q58.1217 445.337 55.043 440.753 Q51.9875 436.147 51.9875 427.42 Q51.9875 418.67 55.043 414.087 Q58.1217 409.48 63.9319 409.48 Z" fill="#000000" fill-rule="evenodd" fill-opacity="1" /><path clip-path="url(#clip460)" d="M84.0938 438.786 L88.978 438.786 L88.978 444.665 L84.0938 444.665 L84.0938 438.786 Z" fill="#000000" fill-rule="evenodd" fill-opacity="1" /><path clip-path="url(#clip460)" d="M97.9826 410.105 L120.205 410.105 L120.205 412.096 L107.658 444.665 L102.774 444.665 L114.58 414.04 L97.9826 414.04 L97.9826 410.105 Z" fill="#000000" fill-rule="evenodd" fill-opacity="1" /><path clip-path="url(#clip460)" d="M129.371 410.105 L147.728 410.105 L147.728 414.04 L133.654 414.04 L133.654 422.513 Q134.672 422.165 135.691 422.003 Q136.709 421.818 137.728 421.818 Q143.515 421.818 146.894 424.989 Q150.274 428.161 150.274 433.577 Q150.274 439.156 146.802 442.258 Q143.33 445.337 137.01 445.337 Q134.834 445.337 132.566 444.966 Q130.32 444.596 127.913 443.855 L127.913 439.156 Q129.996 440.29 132.219 440.846 Q134.441 441.401 136.918 441.401 Q140.922 441.401 143.26 439.295 Q145.598 437.189 145.598 433.577 Q145.598 429.966 143.26 427.86 Q140.922 425.753 136.918 425.753 Q135.043 425.753 133.168 426.17 Q131.316 426.587 129.371 427.466 L129.371 410.105 Z" fill="#000000" fill-rule="evenodd" fill-opacity="1" /><path clip-path="url(#clip460)" d="M53.7467 101.283 L61.3856 101.283 L61.3856 74.9173 L53.0754 76.584 L53.0754 72.3247 L61.3393 70.6581 L66.0152 70.6581 L66.0152 101.283 L73.654 101.283 L73.654 105.218 L53.7467 105.218 L53.7467 101.283 Z" fill="#000000" fill-rule="evenodd" fill-opacity="1" /><path clip-path="url(#clip460)" d="M83.0984 99.3385 L87.9827 99.3385 L87.9827 105.218 L83.0984 105.218 L83.0984 99.3385 Z" fill="#000000" fill-rule="evenodd" fill-opacity="1" /><path clip-path="url(#clip460)" d="M108.168 73.7368 Q104.557 73.7368 102.728 77.3016 Q100.922 80.8432 100.922 87.9728 Q100.922 95.0793 102.728 98.6441 Q104.557 102.186 108.168 102.186 Q111.802 102.186 113.608 98.6441 Q115.436 95.0793 115.436 87.9728 Q115.436 80.8432 113.608 77.3016 Q111.802 73.7368 108.168 73.7368 M108.168 70.0331 Q113.978 70.0331 117.033 74.6395 Q120.112 79.2229 120.112 87.9728 Q120.112 96.6996 117.033 101.306 Q113.978 105.889 108.168 105.889 Q102.358 105.889 99.2789 101.306 Q96.2234 96.6996 96.2234 87.9728 Q96.2234 79.2229 99.2789 74.6395 Q102.358 70.0331 108.168 70.0331 Z" fill="#000000" fill-rule="evenodd" fill-opacity="1" /><path clip-path="url(#clip460)" d="M138.33 73.7368 Q134.719 73.7368 132.89 77.3016 Q131.084 80.8432 131.084 87.9728 Q131.084 95.0793 132.89 98.6441 Q134.719 102.186 138.33 102.186 Q141.964 102.186 143.769 98.6441 Q145.598 95.0793 145.598 87.9728 Q145.598 80.8432 143.769 77.3016 Q141.964 73.7368 138.33 73.7368 M138.33 70.0331 Q144.14 70.0331 147.195 74.6395 Q150.274 79.2229 150.274 87.9728 Q150.274 96.6996 147.195 101.306 Q144.14 105.889 138.33 105.889 Q132.519 105.889 129.441 101.306 Q126.385 96.6996 126.385 87.9728 Q126.385 79.2229 129.441 74.6395 Q132.519 70.0331 138.33 70.0331 Z" fill="#000000" fill-rule="evenodd" fill-opacity="1" /><polyline clip-path="url(#clip462)" style="stroke:#009af9; stroke-linecap:round; stroke-linejoin:round; stroke-width:4; stroke-opacity:1; fill:none" points="247.59,1445.69 250.916,1445.49 254.243,1445.11 257.569,1444.55 260.896,1443.82 268.586,1441.43 276.276,1438.09 283.966,1433.8 291.656,1428.59 299.346,1422.44 307.036,1415.39 314.725,1407.43 322.415,1398.6 330.105,1388.9 337.795,1378.35 345.485,1366.98 353.175,1354.81 368.555,1328.15 383.935,1298.59 393.177,1279.53 402.42,1259.55 411.663,1238.72 420.905,1217.09 439.391,1171.69 457.876,1123.83 489.134,1038.77 520.392,950.765 554.347,854.813 588.302,761.575 603.954,720.322 619.606,680.521 635.258,642.41 650.909,606.203 667.69,569.715 684.47,535.835 701.25,504.73 718.031,476.529 727.752,461.559 737.472,447.609 747.193,434.685 756.914,422.793 766.635,411.933 776.356,402.1 786.077,393.286 795.798,385.479 813.075,374.04 830.353,365.616 847.63,360.059 864.908,357.19 880.058,356.723 895.209,358.011 910.36,360.888 925.511,365.177 942.029,371.25 958.548,378.542 975.066,386.804 991.585,395.787 1024.82,415.057 1058.05,434.344 1076.42,444.373 1094.79,453.618 1113.17,461.851 1131.54,468.874 1149.02,474.285 1166.5,478.343 1183.98,480.969 1201.46,482.114 1219.63,481.711 1237.81,479.697 1255.99,476.116 1274.16,471.042 1289.46,465.69 1304.76,459.429 1320.06,452.348 1335.36,444.543 1410.08,399.714 1478.52,357.531 1494.33,348.788 1510.13,340.656 1525.94,333.231 1541.74,326.595 1557.75,320.752 1573.76,315.851 1589.77,311.937 1605.77,309.039 1623.72,307.017 1641.66,306.287 1659.6,306.823 1677.54,308.576 1693.8,311.157 1710.06,314.615 1726.31,318.872 1742.57,323.84 1817.03,352.798 1885.97,381.807 1919.95,394.242 1953.93,404.321 1986.93,411.273 2019.92,415.076 2036.83,415.752 2053.75,415.566 2070.66,414.537 2087.57,412.697 2124.63,406.083 2161.69,396.514 2215.52,379.25 2269.35,360.935 2280.4,357.352 2291.44,353.89 "/>
<polyline clip-path="url(#clip462)" style="stroke:#e26f46; stroke-linecap:round; stroke-linejoin:round; stroke-width:4; stroke-opacity:1; fill:none" points="247.59,1445.72 250.916,1445.65 254.243,1445.52 257.569,1445.34 260.896,1445.09 276.276,1443.18 291.656,1440 307.036,1435.57 322.415,1429.91 337.795,1423.05 353.175,1415.02 368.555,1405.86 383.935,1395.6 402.42,1381.91 420.905,1366.8 439.391,1350.38 457.876,1332.76 473.505,1317 489.134,1300.53 504.763,1283.43 520.392,1265.78 554.347,1225.85 588.302,1184.44 619.606,1145.62 650.909,1106.79 684.47,1065.76 718.031,1025.94 737.472,1003.64 756.914,982.018 776.356,961.144 795.798,941.086 813.075,923.99 830.353,907.61 847.63,891.971 864.908,877.087 880.058,864.664 895.209,852.83 910.36,841.583 925.511,830.918 942.029,819.941 958.548,809.628 975.066,799.959 991.585,790.91 1024.82,774.467 1058.05,760.164 1094.79,746.495 1131.54,734.682 1166.5,724.788 1201.46,715.862 1274.16,699.097 1335.36,685.607 1410.08,668.745 1478.52,652.618 1541.74,637.426 1605.77,622.319 1677.54,606.523 1742.57,593.865 1817.03,581.727 1885.97,572.725 1953.93,565.608 2019.92,559.849 2087.57,554.53 2161.69,548.769 2269.35,539.741 2291.44,537.772 "/>
<polyline clip-path="url(#clip462)" style="stroke:#3da44d; stroke-linecap:round; stroke-linejoin:round; stroke-width:4; stroke-opacity:1; fill:none" points="247.59,87.9763 250.916,88.2014 254.243,88.6283 257.569,89.2568 260.896,90.0867 268.586,92.773 276.276,96.5259 283.966,101.336 291.656,107.191 299.346,114.075 307.036,121.973 314.725,130.863 322.415,140.724 330.105,151.529 337.795,163.254 345.485,175.867 353.175,189.337 360.865,203.63 368.555,218.711 376.245,234.543 383.935,251.084 393.177,271.849 402.42,293.506 411.663,315.98 420.905,339.19 439.391,387.488 457.876,437.725 489.134,525.13 520.392,612.687 537.37,659.124 554.347,704.124 571.325,747.21 588.302,787.941 596.128,805.811 603.954,823.058 611.78,839.648 619.606,855.549 627.432,870.732 635.258,885.17 643.083,898.837 650.909,911.711 659.299,924.61 667.69,936.555 676.08,947.526 684.47,957.511 692.86,966.498 701.25,974.481 709.641,981.455 718.031,987.42 727.752,993.075 737.472,997.391 747.193,1000.39 756.914,1002.08 766.635,1002.51 776.356,1001.7 786.077,999.688 795.798,996.527 804.436,992.791 813.075,988.22 821.714,982.854 830.353,976.738 838.991,969.914 847.63,962.429 856.269,954.334 864.908,945.677 880.058,929.295 895.209,911.632 910.36,892.984 925.511,873.648 958.548,830.535 991.585,788.562 1008.2,768.762 1024.82,750.264 1041.43,733.353 1058.05,718.278 1067.24,710.811 1076.42,704.001 1085.61,697.876 1094.79,692.457 1103.98,687.764 1113.17,683.811 1122.35,680.61 1131.54,678.168 1140.28,676.55 1149.02,675.621 1157.76,675.375 1166.5,675.806 1183.98,678.65 1201.46,684.032 1210.55,687.78 1219.63,692.14 1228.72,697.083 1237.81,702.575 1255.99,715.058 1274.16,729.272 1304.76,756.142 1335.36,785.143 1354.04,803.096 1372.72,820.724 1391.4,837.618 1410.08,853.387 1427.19,866.537 1444.3,878.19 1461.41,888.122 1478.52,896.147 1494.33,901.73 1510.13,905.464 1525.94,907.285 1541.74,907.163 1557.75,905.053 1573.76,900.973 1589.77,894.981 1605.77,887.166 1623.72,876.383 1641.66,863.655 1659.6,849.22 1677.54,833.346 1710.06,801.876 1742.57,768.554 1761.18,749.413 1779.8,730.691 1798.41,712.748 1817.03,695.926 1834.26,681.625 1851.5,668.784 1868.73,657.602 1885.97,648.247 1902.96,640.944 1919.95,635.645 1936.94,632.41 1953.93,631.262 1970.43,632.135 1986.93,634.922 2003.43,639.551 2019.92,645.918 2036.83,654.112 2053.75,663.828 2070.66,674.872 2087.57,687.03 2124.63,716.415 2161.69,747.392 2188.6,769.34 2215.52,789.688 2228.98,798.968 2242.44,807.509 2255.89,815.215 2269.35,821.997 2274.87,824.494 2280.4,826.818 2285.92,828.965 2291.44,830.93 "/>
<path clip-path="url(#clip460)" d="M2010.88 1438.47 L2280.54 1438.47 L2280.54 1231.11 L2010.88 1231.11  Z" fill="#ffffff" fill-rule="evenodd" fill-opacity="1"/>
<polyline clip-path="url(#clip460)" style="stroke:#000000; stroke-linecap:round; stroke-linejoin:round; stroke-width:4; stroke-opacity:1; fill:none" points="2010.88,1438.47 2280.54,1438.47 2280.54,1231.11 2010.88,1231.11 2010.88,1438.47 "/>
<polyline clip-path="url(#clip460)" style="stroke:#009af9; stroke-linecap:round; stroke-linejoin:round; stroke-width:4; stroke-opacity:1; fill:none" points="2034.95,1282.95 2179.39,1282.95 "/>
<path clip-path="url(#clip460)" d="M2217.3 1302.64 Q2215.5 1307.27 2213.78 1308.68 Q2212.07 1310.1 2209.2 1310.1 L2205.8 1310.1 L2205.8 1306.53 L2208.3 1306.53 Q2210.06 1306.53 2211.03 1305.7 Q2212 1304.86 2213.18 1301.76 L2213.94 1299.82 L2203.46 1274.31 L2207.97 1274.31 L2216.07 1294.59 L2224.18 1274.31 L2228.69 1274.31 L2217.3 1302.64 Z" fill="#000000" fill-rule="evenodd" fill-opacity="1" /><path clip-path="url(#clip460)" d="M2235.98 1296.3 L2243.62 1296.3 L2243.62 1269.93 L2235.31 1271.6 L2235.31 1267.34 L2243.57 1265.67 L2248.25 1265.67 L2248.25 1296.3 L2255.89 1296.3 L2255.89 1300.23 L2235.98 1300.23 L2235.98 1296.3 Z" fill="#000000" fill-rule="evenodd" fill-opacity="1" /><polyline clip-path="url(#clip460)" style="stroke:#e26f46; stroke-linecap:round; stroke-linejoin:round; stroke-width:4; stroke-opacity:1; fill:none" points="2034.95,1334.79 2179.39,1334.79 "/>
<path clip-path="url(#clip460)" d="M2217.3 1354.48 Q2215.5 1359.11 2213.78 1360.52 Q2212.07 1361.94 2209.2 1361.94 L2205.8 1361.94 L2205.8 1358.37 L2208.3 1358.37 Q2210.06 1358.37 2211.03 1357.54 Q2212 1356.7 2213.18 1353.6 L2213.94 1351.66 L2203.46 1326.15 L2207.97 1326.15 L2216.07 1346.43 L2224.18 1326.15 L2228.69 1326.15 L2217.3 1354.48 Z" fill="#000000" fill-rule="evenodd" fill-opacity="1" /><path clip-path="url(#clip460)" d="M2239.2 1348.14 L2255.52 1348.14 L2255.52 1352.07 L2233.57 1352.07 L2233.57 1348.14 Q2236.24 1345.38 2240.82 1340.76 Q2245.43 1336.1 2246.61 1334.76 Q2248.85 1332.24 2249.73 1330.5 Q2250.63 1328.74 2250.63 1327.05 Q2250.63 1324.3 2248.69 1322.56 Q2246.77 1320.82 2243.67 1320.82 Q2241.47 1320.82 2239.01 1321.59 Q2236.58 1322.35 2233.81 1323.9 L2233.81 1319.18 Q2236.63 1318.05 2239.08 1317.47 Q2241.54 1316.89 2243.57 1316.89 Q2248.94 1316.89 2252.14 1319.57 Q2255.33 1322.26 2255.33 1326.75 Q2255.33 1328.88 2254.52 1330.8 Q2253.74 1332.7 2251.63 1335.29 Q2251.05 1335.96 2247.95 1339.18 Q2244.85 1342.38 2239.2 1348.14 Z" fill="#000000" fill-rule="evenodd" fill-opacity="1" /><polyline clip-path="url(#clip460)" style="stroke:#3da44d; stroke-linecap:round; stroke-linejoin:round; stroke-width:4; stroke-opacity:1; fill:none" points="2034.95,1386.63 2179.39,1386.63 "/>
<path clip-path="url(#clip460)" d="M2217.3 1406.32 Q2215.5 1410.95 2213.78 1412.36 Q2212.07 1413.78 2209.2 1413.78 L2205.8 1413.78 L2205.8 1410.21 L2208.3 1410.21 Q2210.06 1410.21 2211.03 1409.38 Q2212 1408.54 2213.18 1405.44 L2213.94 1403.5 L2203.46 1377.99 L2207.97 1377.99 L2216.07 1398.27 L2224.18 1377.99 L2228.69 1377.99 L2217.3 1406.32 Z" fill="#000000" fill-rule="evenodd" fill-opacity="1" /><path clip-path="url(#clip460)" d="M2249.34 1385.28 Q2252.69 1386 2254.57 1388.27 Q2256.47 1390.53 2256.47 1393.87 Q2256.47 1398.98 2252.95 1401.78 Q2249.43 1404.59 2242.95 1404.59 Q2240.77 1404.59 2238.46 1404.15 Q2236.17 1403.73 2233.71 1402.87 L2233.71 1398.36 Q2235.66 1399.49 2237.97 1400.07 Q2240.29 1400.65 2242.81 1400.65 Q2247.21 1400.65 2249.5 1398.91 Q2251.82 1397.18 2251.82 1393.87 Q2251.82 1390.81 2249.66 1389.1 Q2247.53 1387.36 2243.71 1387.36 L2239.69 1387.36 L2239.69 1383.52 L2243.9 1383.52 Q2247.35 1383.52 2249.18 1382.16 Q2251 1380.77 2251 1378.17 Q2251 1375.51 2249.11 1374.1 Q2247.23 1372.66 2243.71 1372.66 Q2241.79 1372.66 2239.59 1373.08 Q2237.39 1373.5 2234.75 1374.38 L2234.75 1370.21 Q2237.42 1369.47 2239.73 1369.1 Q2242.07 1368.73 2244.13 1368.73 Q2249.45 1368.73 2252.56 1371.16 Q2255.66 1373.57 2255.66 1377.69 Q2255.66 1380.56 2254.01 1382.55 Q2252.37 1384.52 2249.34 1385.28 Z" fill="#000000" fill-rule="evenodd" fill-opacity="1" /></svg>
