<?xml version="1.0" encoding="utf-8"?>
<svg xmlns="http://www.w3.org/2000/svg" xmlns:xlink="http://www.w3.org/1999/xlink" width="600" height="400" viewBox="0 0 2400 1600">
<defs>
  <clipPath id="clip320">
    <rect x="0" y="0" width="2400" height="1600"/>
  </clipPath>
</defs>
<path clip-path="url(#clip320)" d="M0 1600 L2400 1600 L2400 0 L0 0  Z" fill="#ffffff" fill-rule="evenodd" fill-opacity="1"/>
<defs>
  <clipPath id="clip321">
    <rect x="480" y="0" width="1681" height="1600"/>
  </clipPath>
</defs>
<path clip-path="url(#clip320)" d="M216.343 1486.45 L2352.76 1486.45 L2352.76 47.2441 L216.343 47.2441  Z" fill="#ffffff" fill-rule="evenodd" fill-opacity="1"/>
<defs>
  <clipPath id="clip322">
    <rect x="216" y="47" width="2137" height="1440"/>
  </clipPath>
</defs>
<polyline clip-path="url(#clip322)" style="stroke:#000000; stroke-linecap:round; stroke-linejoin:round; stroke-width:2; stroke-opacity:0.1; fill:none" points="276.808,1486.45 276.808,47.2441 "/>
<polyline clip-path="url(#clip322)" style="stroke:#000000; stroke-linecap:round; stroke-linejoin:round; stroke-width:2; stroke-opacity:0.1; fill:none" points="780.679,1486.45 780.679,47.2441 "/>
<polyline clip-path="url(#clip322)" style="stroke:#000000; stroke-linecap:round; stroke-linejoin:round; stroke-width:2; stroke-opacity:0.1; fill:none" points="1284.55,1486.45 1284.55,47.2441 "/>
<polyline clip-path="url(#clip322)" style="stroke:#000000; stroke-linecap:round; stroke-linejoin:round; stroke-width:2; stroke-opacity:0.1; fill:none" points="1788.42,1486.45 1788.42,47.2441 "/>
<polyline clip-path="url(#clip322)" style="stroke:#000000; stroke-linecap:round; stroke-linejoin:round; stroke-width:2; stroke-opacity:0.1; fill:none" points="2292.29,1486.45 2292.29,47.2441 "/>
<polyline clip-path="url(#clip320)" style="stroke:#000000; stroke-linecap:round; stroke-linejoin:round; stroke-width:4; stroke-opacity:1; fill:none" points="216.343,1486.45 2352.76,1486.45 "/>
<polyline clip-path="url(#clip320)" style="stroke:#000000; stroke-linecap:round; stroke-linejoin:round; stroke-width:4; stroke-opacity:1; fill:none" points="276.808,1486.45 276.808,1467.55 "/>
<polyline clip-path="url(#clip320)" style="stroke:#000000; stroke-linecap:round; stroke-linejoin:round; stroke-width:4; stroke-opacity:1; fill:none" points="780.679,1486.45 780.679,1467.55 "/>
<polyline clip-path="url(#clip320)" style="stroke:#000000; stroke-linecap:round; stroke-linejoin:round; stroke-width:4; stroke-opacity:1; fill:none" points="1284.55,1486.45 1284.55,1467.55 "/>
<polyline clip-path="url(#clip320)" style="stroke:#000000; stroke-linecap:round; stroke-linejoin:round; stroke-width:4; stroke-opacity:1; fill:none" points="1788.42,1486.45 1788.42,1467.55 "/>
<polyline clip-path="url(#clip320)" style="stroke:#000000; stroke-linecap:round; stroke-linejoin:round; stroke-width:4; stroke-opacity:1; fill:none" points="2292.29,1486.45 2292.29,1467.55 "/>
<path clip-path="url(#clip320)" d="M276.808 1517.37 Q273.197 1517.37 271.368 1520.93 Q269.562 1524.47 269.562 1531.6 Q269.562 1538.71 271.368 1542.27 Q273.197 1545.82 276.808 1545.82 Q280.442 1545.82 282.248 1542.27 Q284.076 1538.71 284.076 1531.6 Q284.076 1524.47 282.248 1520.93 Q280.442 1517.37 276.808 1517.37 M276.808 1513.66 Q282.618 1513.66 285.673 1518.27 Q288.752 1522.85 288.752 1531.6 Q288.752 1540.33 285.673 1544.94 Q282.618 1549.52 276.808 1549.52 Q270.998 1549.52 267.919 1544.94 Q264.863 1540.33 264.863 1531.6 Q264.863 1522.85 267.919 1518.27 Q270.998 1513.66 276.808 1513.66 Z" fill="#000000" fill-rule="evenodd" fill-opacity="1" /><path clip-path="url(#clip320)" d="M771.061 1544.91 L778.7 1544.91 L778.7 1518.55 L770.389 1520.21 L770.389 1515.95 L778.653 1514.29 L783.329 1514.29 L783.329 1544.91 L790.968 1544.91 L790.968 1548.85 L771.061 1548.85 L771.061 1544.91 Z" fill="#000000" fill-rule="evenodd" fill-opacity="1" /><path clip-path="url(#clip320)" d="M1279.2 1544.91 L1295.52 1544.91 L1295.52 1548.85 L1273.58 1548.85 L1273.58 1544.91 Q1276.24 1542.16 1280.82 1537.53 Q1285.43 1532.88 1286.61 1531.53 Q1288.86 1529.01 1289.73 1527.27 Q1290.64 1525.51 1290.64 1523.82 Q1290.64 1521.07 1288.69 1519.33 Q1286.77 1517.6 1283.67 1517.6 Q1281.47 1517.6 1279.02 1518.36 Q1276.59 1519.13 1273.81 1520.68 L1273.81 1515.95 Q1276.63 1514.82 1279.09 1514.24 Q1281.54 1513.66 1283.58 1513.66 Q1288.95 1513.66 1292.14 1516.35 Q1295.34 1519.03 1295.34 1523.52 Q1295.34 1525.65 1294.53 1527.57 Q1293.74 1529.47 1291.63 1532.07 Q1291.05 1532.74 1287.95 1535.95 Q1284.85 1539.15 1279.2 1544.91 Z" fill="#000000" fill-rule="evenodd" fill-opacity="1" /><path clip-path="url(#clip320)" d="M1792.67 1530.21 Q1796.02 1530.93 1797.9 1533.2 Q1799.8 1535.47 1799.8 1538.8 Q1799.8 1543.92 1796.28 1546.72 Q1792.76 1549.52 1786.28 1549.52 Q1784.1 1549.52 1781.79 1549.08 Q1779.5 1548.66 1777.04 1547.81 L1777.04 1543.29 Q1778.99 1544.43 1781.3 1545.01 Q1783.62 1545.58 1786.14 1545.58 Q1790.54 1545.58 1792.83 1543.85 Q1795.14 1542.11 1795.14 1538.8 Q1795.14 1535.75 1792.99 1534.03 Q1790.86 1532.3 1787.04 1532.3 L1783.02 1532.3 L1783.02 1528.45 L1787.23 1528.45 Q1790.68 1528.45 1792.51 1527.09 Q1794.33 1525.7 1794.33 1523.11 Q1794.33 1520.45 1792.44 1519.03 Q1790.56 1517.6 1787.04 1517.6 Q1785.12 1517.6 1782.92 1518.01 Q1780.72 1518.43 1778.08 1519.31 L1778.08 1515.14 Q1780.75 1514.4 1783.06 1514.03 Q1785.4 1513.66 1787.46 1513.66 Q1792.78 1513.66 1795.89 1516.09 Q1798.99 1518.5 1798.99 1522.62 Q1798.99 1525.49 1797.34 1527.48 Q1795.7 1529.45 1792.67 1530.21 Z" fill="#000000" fill-rule="evenodd" fill-opacity="1" /><path clip-path="url(#clip320)" d="M2295.3 1518.36 L2283.5 1536.81 L2295.3 1536.81 L2295.3 1518.36 M2294.07 1514.29 L2299.95 1514.29 L2299.95 1536.81 L2304.88 1536.81 L2304.88 1540.7 L2299.95 1540.7 L2299.95 1548.85 L2295.3 1548.85 L2295.3 1540.7 L2279.7 1540.7 L2279.7 1536.19 L2294.07 1514.29 Z" fill="#000000" fill-rule="evenodd" fill-opacity="1" /><polyline clip-path="url(#clip322)" style="stroke:#000000; stroke-linecap:round; stroke-linejoin:round; stroke-width:2; stroke-opacity:0.1; fill:none" points="216.343,1286.03 2352.76,1286.03 "/>
<polyline clip-path="url(#clip322)" style="stroke:#000000; stroke-linecap:round; stroke-linejoin:round; stroke-width:2; stroke-opacity:0.1; fill:none" points="216.343,1075.74 2352.76,1075.74 "/>
<polyline clip-path="url(#clip322)" style="stroke:#000000; stroke-linecap:round; stroke-linejoin:round; stroke-width:2; stroke-opacity:0.1; fill:none" points="216.343,865.456 2352.76,865.456 "/>
<polyline clip-path="url(#clip322)" style="stroke:#000000; stroke-linecap:round; stroke-linejoin:round; stroke-width:2; stroke-opacity:0.1; fill:none" points="216.343,655.17 2352.76,655.17 "/>
<polyline clip-path="url(#clip322)" style="stroke:#000000; stroke-linecap:round; stroke-linejoin:round; stroke-width:2; stroke-opacity:0.1; fill:none" points="216.343,444.884 2352.76,444.884 "/>
<polyline clip-path="url(#clip322)" style="stroke:#000000; stroke-linecap:round; stroke-linejoin:round; stroke-width:2; stroke-opacity:0.1; fill:none" points="216.343,234.597 2352.76,234.597 "/>
<polyline clip-path="url(#clip320)" style="stroke:#000000; stroke-linecap:round; stroke-linejoin:round; stroke-width:4; stroke-opacity:1; fill:none" points="216.343,1486.45 216.343,47.2441 "/>
<polyline clip-path="url(#clip320)" style="stroke:#000000; stroke-linecap:round; stroke-linejoin:round; stroke-width:4; stroke-opacity:1; fill:none" points="216.343,1286.03 235.241,1286.03 "/>
<polyline clip-path="url(#clip320)" style="stroke:#000000; stroke-linecap:round; stroke-linejoin:round; stroke-width:4; stroke-opacity:1; fill:none" points="216.343,1075.74 235.241,1075.74 "/>
<polyline clip-path="url(#clip320)" style="stroke:#000000; stroke-linecap:round; stroke-linejoin:round; stroke-width:4; stroke-opacity:1; fill:none" points="216.343,865.456 235.241,865.456 "/>
<polyline clip-path="url(#clip320)" style="stroke:#000000; stroke-linecap:round; stroke-linejoin:round; stroke-width:4; stroke-opacity:1; fill:none" points="216.343,655.17 235.241,655.17 "/>
<polyline clip-path="url(#clip320)" style="stroke:#000000; stroke-linecap:round; stroke-linejoin:round; stroke-width:4; stroke-opacity:1; fill:none" points="216.343,444.884 235.241,444.884 "/>
<polyline clip-path="url(#clip320)" style="stroke:#000000; stroke-linecap:round; stroke-linejoin:round; stroke-width:4; stroke-opacity:1; fill:none" points="216.343,234.597 235.241,234.597 "/>
<path clip-path="url(#clip320)" d="M63.8393 1286.9 Q60.506 1286.9 58.5847 1288.68 Q56.6865 1290.46 56.6865 1293.59 Q56.6865 1296.71 58.5847 1298.49 Q60.506 1300.28 63.8393 1300.28 Q67.1726 1300.28 69.0939 1298.49 Q71.0152 1296.69 71.0152 1293.59 Q71.0152 1290.46 69.0939 1288.68 Q67.1957 1286.9 63.8393 1286.9 M59.1634 1284.91 Q56.1541 1284.17 54.4643 1282.1 Q52.7977 1280.04 52.7977 1277.08 Q52.7977 1272.94 55.7375 1270.53 Q58.7004 1268.12 63.8393 1268.12 Q69.0013 1268.12 71.9411 1270.53 Q74.8809 1272.94 74.8809 1277.08 Q74.8809 1280.04 73.1911 1282.1 Q71.5244 1284.17 68.5383 1284.91 Q71.9179 1285.69 73.7929 1287.98 Q75.6911 1290.28 75.6911 1293.59 Q75.6911 1298.61 72.6124 1301.29 Q69.5568 1303.98 63.8393 1303.98 Q58.1217 1303.98 55.043 1301.29 Q51.9875 1298.61 51.9875 1293.59 Q51.9875 1290.28 53.8856 1287.98 Q55.7838 1285.69 59.1634 1284.91 M57.4504 1277.52 Q57.4504 1280.21 59.1171 1281.71 Q60.8069 1283.22 63.8393 1283.22 Q66.8485 1283.22 68.5383 1281.71 Q70.2513 1280.21 70.2513 1277.52 Q70.2513 1274.84 68.5383 1273.33 Q66.8485 1271.83 63.8393 1271.83 Q60.8069 1271.83 59.1171 1273.33 Q57.4504 1274.84 57.4504 1277.52 Z" fill="#000000" fill-rule="evenodd" fill-opacity="1" /><path clip-path="url(#clip320)" d="M84.0012 1297.43 L88.8854 1297.43 L88.8854 1303.31 L84.0012 1303.31 L84.0012 1297.43 Z" fill="#000000" fill-rule="evenodd" fill-opacity="1" /><path clip-path="url(#clip320)" d="M109.071 1271.83 Q105.459 1271.83 103.631 1275.39 Q101.825 1278.93 101.825 1286.06 Q101.825 1293.17 103.631 1296.73 Q105.459 1300.28 109.071 1300.28 Q112.705 1300.28 114.51 1296.73 Q116.339 1293.17 116.339 1286.06 Q116.339 1278.93 114.51 1275.39 Q112.705 1271.83 109.071 1271.83 M109.071 1268.12 Q114.881 1268.12 117.936 1272.73 Q121.015 1277.31 121.015 1286.06 Q121.015 1294.79 117.936 1299.4 Q114.881 1303.98 109.071 1303.98 Q103.26 1303.98 100.182 1299.4 Q97.1261 1294.79 97.1261 1286.06 Q97.1261 1277.31 100.182 1272.73 Q103.26 1268.12 109.071 1268.12 Z" fill="#000000" fill-rule="evenodd" fill-opacity="1" /><path clip-path="url(#clip320)" d="M133.26 1299.37 L149.58 1299.37 L149.58 1303.31 L127.635 1303.31 L127.635 1299.37 Q130.297 1296.62 134.881 1291.99 Q139.487 1287.34 140.668 1285.99 Q142.913 1283.47 143.793 1281.73 Q144.695 1279.98 144.695 1278.29 Q144.695 1275.53 142.751 1273.79 Q140.83 1272.06 137.728 1272.06 Q135.529 1272.06 133.075 1272.82 Q130.644 1273.59 127.867 1275.14 L127.867 1270.42 Q130.691 1269.28 133.144 1268.7 Q135.598 1268.12 137.635 1268.12 Q143.006 1268.12 146.2 1270.81 Q149.394 1273.49 149.394 1277.98 Q149.394 1280.11 148.584 1282.04 Q147.797 1283.93 145.691 1286.53 Q145.112 1287.2 142.01 1290.42 Q138.908 1293.61 133.26 1299.37 Z" fill="#000000" fill-rule="evenodd" fill-opacity="1" /><path clip-path="url(#clip320)" d="M159.441 1268.75 L177.797 1268.75 L177.797 1272.68 L163.723 1272.68 L163.723 1281.16 Q164.742 1280.81 165.76 1280.65 Q166.779 1280.46 167.797 1280.46 Q173.584 1280.46 176.964 1283.63 Q180.343 1286.8 180.343 1292.22 Q180.343 1297.8 176.871 1300.9 Q173.399 1303.98 167.079 1303.98 Q164.904 1303.98 162.635 1303.61 Q160.39 1303.24 157.982 1302.5 L157.982 1297.8 Q160.066 1298.93 162.288 1299.49 Q164.51 1300.04 166.987 1300.04 Q170.991 1300.04 173.329 1297.94 Q175.667 1295.83 175.667 1292.22 Q175.667 1288.61 173.329 1286.5 Q170.991 1284.4 166.987 1284.4 Q165.112 1284.4 163.237 1284.81 Q161.385 1285.23 159.441 1286.11 L159.441 1268.75 Z" fill="#000000" fill-rule="evenodd" fill-opacity="1" /><path clip-path="url(#clip320)" d="M62.8439 1076.61 Q59.5106 1076.61 57.5893 1078.39 Q55.6912 1080.18 55.6912 1083.3 Q55.6912 1086.43 57.5893 1088.21 Q59.5106 1089.99 62.8439 1089.99 Q66.1772 1089.99 68.0985 1088.21 Q70.0198 1086.4 70.0198 1083.3 Q70.0198 1080.18 68.0985 1078.39 Q66.2004 1076.61 62.8439 1076.61 M58.168 1074.62 Q55.1588 1073.88 53.469 1071.82 Q51.8023 1069.76 51.8023 1066.8 Q51.8023 1062.65 54.7421 1060.24 Q57.7051 1057.84 62.8439 1057.84 Q68.0059 1057.84 70.9457 1060.24 Q73.8855 1062.65 73.8855 1066.8 Q73.8855 1069.76 72.1957 1071.82 Q70.5291 1073.88 67.543 1074.62 Q70.9226 1075.41 72.7976 1077.7 Q74.6957 1079.99 74.6957 1083.3 Q74.6957 1088.32 71.617 1091.01 Q68.5615 1093.69 62.8439 1093.69 Q57.1264 1093.69 54.0477 1091.01 Q50.9921 1088.32 50.9921 1083.3 Q50.9921 1079.99 52.8903 1077.7 Q54.7884 1075.41 58.168 1074.62 M56.4551 1067.24 Q56.4551 1069.92 58.1217 1071.43 Q59.8115 1072.93 62.8439 1072.93 Q65.8532 1072.93 67.543 1071.43 Q69.2559 1069.92 69.2559 1067.24 Q69.2559 1064.55 67.543 1063.05 Q65.8532 1061.54 62.8439 1061.54 Q59.8115 1061.54 58.1217 1063.05 Q56.4551 1064.55 56.4551 1067.24 Z" fill="#000000" fill-rule="evenodd" fill-opacity="1" /><path clip-path="url(#clip320)" d="M83.0058 1087.14 L87.8901 1087.14 L87.8901 1093.02 L83.0058 1093.02 L83.0058 1087.14 Z" fill="#000000" fill-rule="evenodd" fill-opacity="1" /><path clip-path="url(#clip320)" d="M108.075 1061.54 Q104.464 1061.54 102.635 1065.11 Q100.83 1068.65 100.83 1075.78 Q100.83 1082.88 102.635 1086.45 Q104.464 1089.99 108.075 1089.99 Q111.709 1089.99 113.515 1086.45 Q115.344 1082.88 115.344 1075.78 Q115.344 1068.65 113.515 1065.11 Q111.709 1061.54 108.075 1061.54 M108.075 1057.84 Q113.885 1057.84 116.941 1062.44 Q120.02 1067.03 120.02 1075.78 Q120.02 1084.5 116.941 1089.11 Q113.885 1093.69 108.075 1093.69 Q102.265 1093.69 99.1863 1089.11 Q96.1308 1084.5 96.1308 1075.78 Q96.1308 1067.03 99.1863 1062.44 Q102.265 1057.84 108.075 1057.84 Z" fill="#000000" fill-rule="evenodd" fill-opacity="1" /><path clip-path="url(#clip320)" d="M128.283 1058.46 L146.64 1058.46 L146.64 1062.4 L132.566 1062.4 L132.566 1070.87 Q133.584 1070.52 134.603 1070.36 Q135.621 1070.18 136.64 1070.18 Q142.427 1070.18 145.806 1073.35 Q149.186 1076.52 149.186 1081.93 Q149.186 1087.51 145.714 1090.61 Q142.242 1093.69 135.922 1093.69 Q133.746 1093.69 131.478 1093.32 Q129.232 1092.95 126.825 1092.21 L126.825 1087.51 Q128.908 1088.65 131.131 1089.2 Q133.353 1089.76 135.83 1089.76 Q139.834 1089.76 142.172 1087.65 Q144.51 1085.55 144.51 1081.93 Q144.51 1078.32 142.172 1076.22 Q139.834 1074.11 135.83 1074.11 Q133.955 1074.11 132.08 1074.53 Q130.228 1074.94 128.283 1075.82 L128.283 1058.46 Z" fill="#000000" fill-rule="evenodd" fill-opacity="1" /><path clip-path="url(#clip320)" d="M168.399 1061.54 Q164.788 1061.54 162.959 1065.11 Q161.154 1068.65 161.154 1075.78 Q161.154 1082.88 162.959 1086.45 Q164.788 1089.99 168.399 1089.99 Q172.033 1089.99 173.839 1086.45 Q175.667 1082.88 175.667 1075.78 Q175.667 1068.65 173.839 1065.11 Q172.033 1061.54 168.399 1061.54 M168.399 1057.84 Q174.209 1057.84 177.265 1062.44 Q180.343 1067.03 180.343 1075.78 Q180.343 1084.5 177.265 1089.11 Q174.209 1093.69 168.399 1093.69 Q162.589 1093.69 159.51 1089.11 Q156.455 1084.5 156.455 1075.78 Q156.455 1067.03 159.51 1062.44 Q162.589 1057.84 168.399 1057.84 Z" fill="#000000" fill-rule="evenodd" fill-opacity="1" /><path clip-path="url(#clip320)" d="M63.8393 866.324 Q60.506 866.324 58.5847 868.106 Q56.6865 869.889 56.6865 873.014 Q56.6865 876.139 58.5847 877.921 Q60.506 879.704 63.8393 879.704 Q67.1726 879.704 69.0939 877.921 Q71.0152 876.116 71.0152 873.014 Q71.0152 869.889 69.0939 868.106 Q67.1957 866.324 63.8393 866.324 M59.1634 864.333 Q56.1541 863.593 54.4643 861.532 Q52.7977 859.472 52.7977 856.509 Q52.7977 852.366 55.7375 849.958 Q58.7004 847.551 63.8393 847.551 Q69.0013 847.551 71.9411 849.958 Q74.8809 852.366 74.8809 856.509 Q74.8809 859.472 73.1911 861.532 Q71.5244 863.593 68.5383 864.333 Q71.9179 865.12 73.7929 867.412 Q75.6911 869.704 75.6911 873.014 Q75.6911 878.037 72.6124 880.722 Q69.5568 883.407 63.8393 883.407 Q58.1217 883.407 55.043 880.722 Q51.9875 878.037 51.9875 873.014 Q51.9875 869.704 53.8856 867.412 Q55.7838 865.12 59.1634 864.333 M57.4504 856.949 Q57.4504 859.634 59.1171 861.139 Q60.8069 862.644 63.8393 862.644 Q66.8485 862.644 68.5383 861.139 Q70.2513 859.634 70.2513 856.949 Q70.2513 854.264 68.5383 852.759 Q66.8485 851.255 63.8393 851.255 Q60.8069 851.255 59.1171 852.759 Q57.4504 854.264 57.4504 856.949 Z" fill="#000000" fill-rule="evenodd" fill-opacity="1" /><path clip-path="url(#clip320)" d="M84.0012 876.856 L88.8854 876.856 L88.8854 882.736 L84.0012 882.736 L84.0012 876.856 Z" fill="#000000" fill-rule="evenodd" fill-opacity="1" /><path clip-path="url(#clip320)" d="M109.071 851.255 Q105.459 851.255 103.631 854.82 Q101.825 858.361 101.825 865.491 Q101.825 872.597 103.631 876.162 Q105.459 879.704 109.071 879.704 Q112.705 879.704 114.51 876.162 Q116.339 872.597 116.339 865.491 Q116.339 858.361 114.51 854.82 Q112.705 851.255 109.071 851.255 M109.071 847.551 Q114.881 847.551 117.936 852.158 Q121.015 856.741 121.015 865.491 Q121.015 874.218 117.936 878.824 Q114.881 883.407 109.071 883.407 Q103.26 883.407 100.182 878.824 Q97.1261 874.218 97.1261 865.491 Q97.1261 856.741 100.182 852.158 Q103.26 847.551 109.071 847.551 Z" fill="#000000" fill-rule="evenodd" fill-opacity="1" /><path clip-path="url(#clip320)" d="M128.052 848.176 L150.274 848.176 L150.274 850.167 L137.728 882.736 L132.844 882.736 L144.649 852.111 L128.052 852.111 L128.052 848.176 Z" fill="#000000" fill-rule="evenodd" fill-opacity="1" /><path clip-path="url(#clip320)" d="M159.441 848.176 L177.797 848.176 L177.797 852.111 L163.723 852.111 L163.723 860.583 Q164.742 860.236 165.76 860.074 Q166.779 859.889 167.797 859.889 Q173.584 859.889 176.964 863.06 Q180.343 866.232 180.343 871.648 Q180.343 877.227 176.871 880.329 Q173.399 883.407 167.079 883.407 Q164.904 883.407 162.635 883.037 Q160.39 882.667 157.982 881.926 L157.982 877.227 Q160.066 878.361 162.288 878.917 Q164.51 879.472 166.987 879.472 Q170.991 879.472 173.329 877.366 Q175.667 875.259 175.667 871.648 Q175.667 868.037 173.329 865.931 Q170.991 863.824 166.987 863.824 Q165.112 863.824 163.237 864.241 Q161.385 864.657 159.441 865.537 L159.441 848.176 Z" fill="#000000" fill-rule="evenodd" fill-opacity="1" /><path clip-path="url(#clip320)" d="M62.8439 656.038 Q59.5106 656.038 57.5893 657.82 Q55.6912 659.603 55.6912 662.728 Q55.6912 665.853 57.5893 667.635 Q59.5106 669.417 62.8439 669.417 Q66.1772 669.417 68.0985 667.635 Q70.0198 665.829 70.0198 662.728 Q70.0198 659.603 68.0985 657.82 Q66.2004 656.038 62.8439 656.038 M58.168 654.047 Q55.1588 653.306 53.469 651.246 Q51.8023 649.186 51.8023 646.223 Q51.8023 642.08 54.7421 639.672 Q57.7051 637.265 62.8439 637.265 Q68.0059 637.265 70.9457 639.672 Q73.8855 642.08 73.8855 646.223 Q73.8855 649.186 72.1957 651.246 Q70.5291 653.306 67.543 654.047 Q70.9226 654.834 72.7976 657.126 Q74.6957 659.417 74.6957 662.728 Q74.6957 667.751 71.617 670.436 Q68.5615 673.121 62.8439 673.121 Q57.1264 673.121 54.0477 670.436 Q50.9921 667.751 50.9921 662.728 Q50.9921 659.417 52.8903 657.126 Q54.7884 654.834 58.168 654.047 M56.4551 646.663 Q56.4551 649.348 58.1217 650.853 Q59.8115 652.357 62.8439 652.357 Q65.8532 652.357 67.543 650.853 Q69.2559 649.348 69.2559 646.663 Q69.2559 643.978 67.543 642.473 Q65.8532 640.968 62.8439 640.968 Q59.8115 640.968 58.1217 642.473 Q56.4551 643.978 56.4551 646.663 Z" fill="#000000" fill-rule="evenodd" fill-opacity="1" /><path clip-path="url(#clip320)" d="M83.0058 666.57 L87.8901 666.57 L87.8901 672.45 L83.0058 672.45 L83.0058 666.57 Z" fill="#000000" fill-rule="evenodd" fill-opacity="1" /><path clip-path="url(#clip320)" d="M98.8854 668.515 L106.524 668.515 L106.524 642.149 L98.2141 643.816 L98.2141 639.556 L106.478 637.89 L111.154 637.89 L111.154 668.515 L118.793 668.515 L118.793 672.45 L98.8854 672.45 L98.8854 668.515 Z" fill="#000000" fill-rule="evenodd" fill-opacity="1" /><path clip-path="url(#clip320)" d="M138.237 640.968 Q134.626 640.968 132.797 644.533 Q130.992 648.075 130.992 655.205 Q130.992 662.311 132.797 665.876 Q134.626 669.417 138.237 669.417 Q141.871 669.417 143.677 665.876 Q145.506 662.311 145.506 655.205 Q145.506 648.075 143.677 644.533 Q141.871 640.968 138.237 640.968 M138.237 637.265 Q144.047 637.265 147.103 641.871 Q150.181 646.455 150.181 655.205 Q150.181 663.931 147.103 668.538 Q144.047 673.121 138.237 673.121 Q132.427 673.121 129.348 668.538 Q126.293 663.931 126.293 655.205 Q126.293 646.455 129.348 641.871 Q132.427 637.265 138.237 637.265 Z" fill="#000000" fill-rule="evenodd" fill-opacity="1" /><path clip-path="url(#clip320)" d="M168.399 640.968 Q164.788 640.968 162.959 644.533 Q161.154 648.075 161.154 655.205 Q161.154 662.311 162.959 665.876 Q164.788 669.417 168.399 669.417 Q172.033 669.417 173.839 665.876 Q175.667 662.311 175.667 655.205 Q175.667 648.075 173.839 644.533 Q172.033 640.968 168.399 640.968 M168.399 637.265 Q174.209 637.265 177.265 641.871 Q180.343 646.455 180.343 655.205 Q180.343 663.931 177.265 668.538 Q174.209 673.121 168.399 673.121 Q162.589 673.121 159.51 668.538 Q156.455 663.931 156.455 655.205 Q156.455 646.455 159.51 641.871 Q162.589 637.265 168.399 637.265 Z" fill="#000000" fill-rule="evenodd" fill-opacity="1" /><path clip-path="url(#clip320)" d="M63.8393 445.752 Q60.506 445.752 58.5847 447.534 Q56.6865 449.316 56.6865 452.441 Q56.6865 455.566 58.5847 457.349 Q60.506 459.131 63.8393 459.131 Q67.1726 459.131 69.0939 457.349 Q71.0152 455.543 71.0152 452.441 Q71.0152 449.316 69.0939 447.534 Q67.1957 445.752 63.8393 445.752 M59.1634 443.761 Q56.1541 443.02 54.4643 440.96 Q52.7977 438.9 52.7977 435.937 Q52.7977 431.793 55.7375 429.386 Q58.7004 426.979 63.8393 426.979 Q69.0013 426.979 71.9411 429.386 Q74.8809 431.793 74.8809 435.937 Q74.8809 438.9 73.1911 440.96 Q71.5244 443.02 68.5383 443.761 Q71.9179 444.548 73.7929 446.84 Q75.6911 449.131 75.6911 452.441 Q75.6911 457.464 72.6124 460.15 Q69.5568 462.835 63.8393 462.835 Q58.1217 462.835 55.043 460.15 Q51.9875 457.464 51.9875 452.441 Q51.9875 449.131 53.8856 446.84 Q55.7838 444.548 59.1634 443.761 M57.4504 436.377 Q57.4504 439.062 59.1171 440.566 Q60.8069 442.071 63.8393 442.071 Q66.8485 442.071 68.5383 440.566 Q70.2513 439.062 70.2513 436.377 Q70.2513 433.691 68.5383 432.187 Q66.8485 430.682 63.8393 430.682 Q60.8069 430.682 59.1171 432.187 Q57.4504 433.691 57.4504 436.377 Z" fill="#000000" fill-rule="evenodd" fill-opacity="1" /><path clip-path="url(#clip320)" d="M84.0012 456.284 L88.8854 456.284 L88.8854 462.164 L84.0012 462.164 L84.0012 456.284 Z" fill="#000000" fill-rule="evenodd" fill-opacity="1" /><path clip-path="url(#clip320)" d="M99.8808 458.228 L107.52 458.228 L107.52 431.863 L99.2095 433.529 L99.2095 429.27 L107.473 427.604 L112.149 427.604 L112.149 458.228 L119.788 458.228 L119.788 462.164 L99.8808 462.164 L99.8808 458.228 Z" fill="#000000" fill-rule="evenodd" fill-opacity="1" /><path clip-path="url(#clip320)" d="M133.26 458.228 L149.58 458.228 L149.58 462.164 L127.635 462.164 L127.635 458.228 Q130.297 455.474 134.881 450.844 Q139.487 446.191 140.668 444.849 Q142.913 442.326 143.793 440.59 Q144.695 438.83 144.695 437.141 Q144.695 434.386 142.751 432.65 Q140.83 430.914 137.728 430.914 Q135.529 430.914 133.075 431.678 Q130.644 432.441 127.867 433.992 L127.867 429.27 Q130.691 428.136 133.144 427.557 Q135.598 426.979 137.635 426.979 Q143.006 426.979 146.2 429.664 Q149.394 432.349 149.394 436.84 Q149.394 438.969 148.584 440.891 Q147.797 442.789 145.691 445.381 Q145.112 446.053 142.01 449.27 Q138.908 452.465 133.26 458.228 Z" fill="#000000" fill-rule="evenodd" fill-opacity="1" /><path clip-path="url(#clip320)" d="M159.441 427.604 L177.797 427.604 L177.797 431.539 L163.723 431.539 L163.723 440.011 Q164.742 439.664 165.76 439.502 Q166.779 439.316 167.797 439.316 Q173.584 439.316 176.964 442.488 Q180.343 445.659 180.343 451.076 Q180.343 456.654 176.871 459.756 Q173.399 462.835 167.079 462.835 Q164.904 462.835 162.635 462.464 Q160.39 462.094 157.982 461.353 L157.982 456.654 Q160.066 457.789 162.288 458.344 Q164.51 458.9 166.987 458.9 Q170.991 458.9 173.329 456.793 Q175.667 454.687 175.667 451.076 Q175.667 447.465 173.329 445.358 Q170.991 443.252 166.987 443.252 Q165.112 443.252 163.237 443.668 Q161.385 444.085 159.441 444.965 L159.441 427.604 Z" fill="#000000" fill-rule="evenodd" fill-opacity="1" /><path clip-path="url(#clip320)" d="M62.8439 235.465 Q59.5106 235.465 57.5893 237.248 Q55.6912 239.03 55.6912 242.155 Q55.6912 245.28 57.5893 247.063 Q59.5106 248.845 62.8439 248.845 Q66.1772 248.845 68.0985 247.063 Q70.0198 245.257 70.0198 242.155 Q70.0198 239.03 68.0985 237.248 Q66.2004 235.465 62.8439 235.465 M58.168 233.475 Q55.1588 232.734 53.469 230.674 Q51.8023 228.614 51.8023 225.651 Q51.8023 221.507 54.7421 219.1 Q57.7051 216.692 62.8439 216.692 Q68.0059 216.692 70.9457 219.1 Q73.8855 221.507 73.8855 225.651 Q73.8855 228.614 72.1957 230.674 Q70.5291 232.734 67.543 233.475 Q70.9226 234.262 72.7976 236.553 Q74.6957 238.845 74.6957 242.155 Q74.6957 247.178 71.617 249.863 Q68.5615 252.549 62.8439 252.549 Q57.1264 252.549 54.0477 249.863 Q50.9921 247.178 50.9921 242.155 Q50.9921 238.845 52.8903 236.553 Q54.7884 234.262 58.168 233.475 M56.4551 226.09 Q56.4551 228.776 58.1217 230.28 Q59.8115 231.785 62.8439 231.785 Q65.8532 231.785 67.543 230.28 Q69.2559 228.776 69.2559 226.09 Q69.2559 223.405 67.543 221.901 Q65.8532 220.396 62.8439 220.396 Q59.8115 220.396 58.1217 221.901 Q56.4551 223.405 56.4551 226.09 Z" fill="#000000" fill-rule="evenodd" fill-opacity="1" /><path clip-path="url(#clip320)" d="M83.0058 245.998 L87.8901 245.998 L87.8901 251.877 L83.0058 251.877 L83.0058 245.998 Z" fill="#000000" fill-rule="evenodd" fill-opacity="1" /><path clip-path="url(#clip320)" d="M98.8854 247.942 L106.524 247.942 L106.524 221.577 L98.2141 223.243 L98.2141 218.984 L106.478 217.317 L111.154 217.317 L111.154 247.942 L118.793 247.942 L118.793 251.877 L98.8854 251.877 L98.8854 247.942 Z" fill="#000000" fill-rule="evenodd" fill-opacity="1" /><path clip-path="url(#clip320)" d="M128.283 217.317 L146.64 217.317 L146.64 221.252 L132.566 221.252 L132.566 229.725 Q133.584 229.377 134.603 229.215 Q135.621 229.03 136.64 229.03 Q142.427 229.03 145.806 232.201 Q149.186 235.373 149.186 240.789 Q149.186 246.368 145.714 249.47 Q142.242 252.549 135.922 252.549 Q133.746 252.549 131.478 252.178 Q129.232 251.808 126.825 251.067 L126.825 246.368 Q128.908 247.502 131.131 248.058 Q133.353 248.613 135.83 248.613 Q139.834 248.613 142.172 246.507 Q144.51 244.4 144.51 240.789 Q144.51 237.178 142.172 235.072 Q139.834 232.965 135.83 232.965 Q133.955 232.965 132.08 233.382 Q130.228 233.799 128.283 234.678 L128.283 217.317 Z" fill="#000000" fill-rule="evenodd" fill-opacity="1" /><path clip-path="url(#clip320)" d="M168.399 220.396 Q164.788 220.396 162.959 223.961 Q161.154 227.502 161.154 234.632 Q161.154 241.738 162.959 245.303 Q164.788 248.845 168.399 248.845 Q172.033 248.845 173.839 245.303 Q175.667 241.738 175.667 234.632 Q175.667 227.502 173.839 223.961 Q172.033 220.396 168.399 220.396 M168.399 216.692 Q174.209 216.692 177.265 221.299 Q180.343 225.882 180.343 234.632 Q180.343 243.359 177.265 247.965 Q174.209 252.549 168.399 252.549 Q162.589 252.549 159.51 247.965 Q156.455 243.359 156.455 234.632 Q156.455 225.882 159.51 221.299 Q162.589 216.692 168.399 216.692 Z" fill="#000000" fill-rule="evenodd" fill-opacity="1" /><polyline clip-path="url(#clip322)" style="stroke:#009af9; stroke-linecap:round; stroke-linejoin:round; stroke-width:4; stroke-opacity:1; fill:none" points="276.808,87.9763 289.93,98.7569 411.261,197.82 484.175,256.796 545.824,306.322 612.792,359.754 674.53,408.658 740.72,460.681 817.407,520.382 885.558,572.87 945.32,618.415 1010.48,667.513 1076.02,716.266 1148.49,769.36 1217.44,819.026 1289.13,869.719 1349.48,911.593 1423.16,961.665 1490.66,1006.46 1553,1046.88 1616.14,1086.85 1686.91,1130.43 1751.04,1168.78 1824.46,1211.31 1892.45,1249.34 1959.47,1285.54 2024.54,1319.44 2091.25,1352.9 2164.34,1388.03 2270.51,1436.24 2292.29,1445.72 "/>
<path clip-path="url(#clip320)" d="M1837.58 198.898 L2281.54 198.898 L2281.54 95.2176 L1837.58 95.2176  Z" fill="#ffffff" fill-rule="evenodd" fill-opacity="1"/>
<polyline clip-path="url(#clip320)" style="stroke:#000000; stroke-linecap:round; stroke-linejoin:round; stroke-width:4; stroke-opacity:1; fill:none" points="1837.58,198.898 2281.54,198.898 2281.54,95.2176 1837.58,95.2176 1837.58,198.898 "/>
<polyline clip-path="url(#clip320)" style="stroke:#009af9; stroke-linecap:round; stroke-linejoin:round; stroke-width:4; stroke-opacity:1; fill:none" points="1861.32,147.058 2003.74,147.058 "/>
<path clip-path="url(#clip320)" d="M2027.48 128.319 L2031.74 128.319 L2031.74 164.338 L2027.48 164.338 L2027.48 128.319 Z" fill="#000000" fill-rule="evenodd" fill-opacity="1" /><path clip-path="url(#clip320)" d="M2052.43 151.305 Q2047.27 151.305 2045.28 152.486 Q2043.29 153.666 2043.29 156.514 Q2043.29 158.782 2044.77 160.125 Q2046.28 161.444 2048.85 161.444 Q2052.39 161.444 2054.52 158.944 Q2056.67 156.421 2056.67 152.254 L2056.67 151.305 L2052.43 151.305 M2060.93 149.546 L2060.93 164.338 L2056.67 164.338 L2056.67 160.402 Q2055.21 162.763 2053.04 163.898 Q2050.86 165.009 2047.71 165.009 Q2043.73 165.009 2041.37 162.787 Q2039.03 160.541 2039.03 156.791 Q2039.03 152.416 2041.95 150.194 Q2044.89 147.972 2050.7 147.972 L2056.67 147.972 L2056.67 147.555 Q2056.67 144.615 2054.73 143.018 Q2052.81 141.398 2049.31 141.398 Q2047.09 141.398 2044.98 141.93 Q2042.87 142.463 2040.93 143.527 L2040.93 139.592 Q2043.27 138.69 2045.47 138.25 Q2047.67 137.787 2049.75 137.787 Q2055.37 137.787 2058.15 140.703 Q2060.93 143.62 2060.93 149.546 Z" fill="#000000" fill-rule="evenodd" fill-opacity="1" /><path clip-path="url(#clip320)" d="M2089.89 143.389 Q2091.49 140.518 2093.71 139.153 Q2095.93 137.787 2098.94 137.787 Q2102.99 137.787 2105.19 140.634 Q2107.39 143.458 2107.39 148.689 L2107.39 164.338 L2103.11 164.338 L2103.11 148.828 Q2103.11 145.102 2101.79 143.296 Q2100.47 141.49 2097.76 141.49 Q2094.45 141.49 2092.53 143.69 Q2090.61 145.889 2090.61 149.685 L2090.61 164.338 L2086.32 164.338 L2086.32 148.828 Q2086.32 145.078 2085 143.296 Q2083.68 141.49 2080.93 141.49 Q2077.67 141.49 2075.75 143.713 Q2073.82 145.912 2073.82 149.685 L2073.82 164.338 L2069.54 164.338 L2069.54 138.412 L2073.82 138.412 L2073.82 142.44 Q2075.28 140.055 2077.32 138.921 Q2079.36 137.787 2082.16 137.787 Q2084.98 137.787 2086.95 139.222 Q2088.94 140.657 2089.89 143.389 Z" fill="#000000" fill-rule="evenodd" fill-opacity="1" /><path clip-path="url(#clip320)" d="M2134.49 151.398 Q2134.49 146.699 2132.55 144.037 Q2130.63 141.352 2127.25 141.352 Q2123.87 141.352 2121.93 144.037 Q2120 146.699 2120 151.398 Q2120 156.097 2121.93 158.782 Q2123.87 161.444 2127.25 161.444 Q2130.63 161.444 2132.55 158.782 Q2134.49 156.097 2134.49 151.398 M2120 142.347 Q2121.35 140.032 2123.38 138.921 Q2125.44 137.787 2128.29 137.787 Q2133.01 137.787 2135.95 141.537 Q2138.92 145.287 2138.92 151.398 Q2138.92 157.509 2135.95 161.259 Q2133.01 165.009 2128.29 165.009 Q2125.44 165.009 2123.38 163.898 Q2121.35 162.763 2120 160.449 L2120 164.338 L2115.72 164.338 L2115.72 128.319 L2120 128.319 L2120 142.347 Z" fill="#000000" fill-rule="evenodd" fill-opacity="1" /><path clip-path="url(#clip320)" d="M2177.57 139.176 L2177.57 143.203 Q2175.77 142.277 2173.82 141.815 Q2171.88 141.352 2169.8 141.352 Q2166.62 141.352 2165.03 142.324 Q2163.45 143.296 2163.45 145.24 Q2163.45 146.722 2164.59 147.578 Q2165.72 148.412 2169.15 149.176 L2170.61 149.5 Q2175.14 150.472 2177.04 152.254 Q2178.96 154.014 2178.96 157.185 Q2178.96 160.796 2176.09 162.902 Q2173.24 165.009 2168.24 165.009 Q2166.16 165.009 2163.89 164.592 Q2161.65 164.199 2159.15 163.388 L2159.15 158.99 Q2161.51 160.217 2163.8 160.842 Q2166.09 161.444 2168.34 161.444 Q2171.35 161.444 2172.97 160.426 Q2174.59 159.384 2174.59 157.509 Q2174.59 155.773 2173.41 154.847 Q2172.25 153.921 2168.29 153.064 L2166.81 152.717 Q2162.85 151.884 2161.09 150.171 Q2159.33 148.435 2159.33 145.426 Q2159.33 141.768 2161.93 139.778 Q2164.52 137.787 2169.29 137.787 Q2171.65 137.787 2173.73 138.134 Q2175.81 138.481 2177.57 139.176 Z" fill="#000000" fill-rule="evenodd" fill-opacity="1" /><path clip-path="url(#clip320)" d="M2207.3 148.689 L2207.3 164.338 L2203.04 164.338 L2203.04 148.828 Q2203.04 145.148 2201.6 143.319 Q2200.17 141.49 2197.3 141.49 Q2193.85 141.49 2191.86 143.69 Q2189.86 145.889 2189.86 149.685 L2189.86 164.338 L2185.58 164.338 L2185.58 128.319 L2189.86 128.319 L2189.86 142.44 Q2191.39 140.102 2193.45 138.944 Q2195.54 137.787 2198.24 137.787 Q2202.71 137.787 2205 140.565 Q2207.3 143.319 2207.3 148.689 Z" fill="#000000" fill-rule="evenodd" fill-opacity="1" /><path clip-path="url(#clip320)" d="M2215.79 138.412 L2220.05 138.412 L2220.05 164.338 L2215.79 164.338 L2215.79 138.412 M2215.79 128.319 L2220.05 128.319 L2220.05 133.713 L2215.79 133.713 L2215.79 128.319 Z" fill="#000000" fill-rule="evenodd" fill-opacity="1" /><path clip-path="url(#clip320)" d="M2242.09 128.319 L2242.09 131.861 L2238.01 131.861 Q2235.72 131.861 2234.82 132.787 Q2233.94 133.713 2233.94 136.12 L2233.94 138.412 L2240.95 138.412 L2240.95 141.722 L2233.94 141.722 L2233.94 164.338 L2229.66 164.338 L2229.66 141.722 L2225.58 141.722 L2225.58 138.412 L2229.66 138.412 L2229.66 136.606 Q2229.66 132.278 2231.67 130.31 Q2233.68 128.319 2238.06 128.319 L2242.09 128.319 Z" fill="#000000" fill-rule="evenodd" fill-opacity="1" /><path clip-path="url(#clip320)" d="M2249.03 131.051 L2249.03 138.412 L2257.8 138.412 L2257.8 141.722 L2249.03 141.722 L2249.03 155.796 Q2249.03 158.967 2249.89 159.87 Q2250.77 160.773 2253.43 160.773 L2257.8 160.773 L2257.8 164.338 L2253.43 164.338 Q2248.5 164.338 2246.62 162.509 Q2244.75 160.657 2244.75 155.796 L2244.75 141.722 L2241.62 141.722 L2241.62 138.412 L2244.75 138.412 L2244.75 131.051 L2249.03 131.051 Z" fill="#000000" fill-rule="evenodd" fill-opacity="1" /></svg>
