<?xml version="1.0" encoding="utf-8"?>
<svg xmlns="http://www.w3.org/2000/svg" xmlns:xlink="http://www.w3.org/1999/xlink" width="600" height="400" viewBox="0 0 2400 1600">
<defs>
  <clipPath id="clip430">
    <rect x="0" y="0" width="2400" height="1600"/>
  </clipPath>
</defs>
<path clip-path="url(#clip430)" d="M0 1600 L2400 1600 L2400 0 L0 0  Z" fill="#ffffff" fill-rule="evenodd" fill-opacity="1"/>
<defs>
  <clipPath id="clip431">
    <rect x="480" y="0" width="1681" height="1600"/>
  </clipPath>
</defs>
<path clip-path="url(#clip430)" d="M250.028 1423.18 L2352.76 1423.18 L2352.76 47.2441 L250.028 47.2441  Z" fill="#ffffff" fill-rule="evenodd" fill-opacity="1"/>
<defs>
  <clipPath id="clip432">
    <rect x="250" y="47" width="2104" height="1377"/>
  </clipPath>
</defs>
<polyline clip-path="url(#clip432)" style="stroke:#000000; stroke-linecap:round; stroke-linejoin:round; stroke-width:2; stroke-opacity:0.1; fill:none" points="309.539,1423.18 309.539,47.2441 "/>
<polyline clip-path="url(#clip432)" style="stroke:#000000; stroke-linecap:round; stroke-linejoin:round; stroke-width:2; stroke-opacity:0.1; fill:none" points="805.466,1423.18 805.466,47.2441 "/>
<polyline clip-path="url(#clip432)" style="stroke:#000000; stroke-linecap:round; stroke-linejoin:round; stroke-width:2; stroke-opacity:0.1; fill:none" points="1301.39,1423.18 1301.39,47.2441 "/>
<polyline clip-path="url(#clip432)" style="stroke:#000000; stroke-linecap:round; stroke-linejoin:round; stroke-width:2; stroke-opacity:0.1; fill:none" points="1797.32,1423.18 1797.32,47.2441 "/>
<polyline clip-path="url(#clip432)" style="stroke:#000000; stroke-linecap:round; stroke-linejoin:round; stroke-width:2; stroke-opacity:0.1; fill:none" points="2293.24,1423.18 2293.24,47.2441 "/>
<polyline clip-path="url(#clip430)" style="stroke:#000000; stroke-linecap:round; stroke-linejoin:round; stroke-width:4; stroke-opacity:1; fill:none" points="250.028,1423.18 2352.76,1423.18 "/>
<polyline clip-path="url(#clip430)" style="stroke:#000000; stroke-linecap:round; stroke-linejoin:round; stroke-width:4; stroke-opacity:1; fill:none" points="309.539,1423.18 309.539,1404.28 "/>
<polyline clip-path="url(#clip430)" style="stroke:#000000; stroke-linecap:round; stroke-linejoin:round; stroke-width:4; stroke-opacity:1; fill:none" points="805.466,1423.18 805.466,1404.28 "/>
<polyline clip-path="url(#clip430)" style="stroke:#000000; stroke-linecap:round; stroke-linejoin:round; stroke-width:4; stroke-opacity:1; fill:none" points="1301.39,1423.18 1301.39,1404.28 "/>
<polyline clip-path="url(#clip430)" style="stroke:#000000; stroke-linecap:round; stroke-linejoin:round; stroke-width:4; stroke-opacity:1; fill:none" points="1797.32,1423.18 1797.32,1404.28 "/>
<polyline clip-path="url(#clip430)" style="stroke:#000000; stroke-linecap:round; stroke-linejoin:round; stroke-width:4; stroke-opacity:1; fill:none" points="2293.24,1423.18 2293.24,1404.28 "/>
<path clip-path="url(#clip430)" d="M309.539 1454.1 Q305.928 1454.1 304.1 1457.66 Q302.294 1461.2 302.294 1468.33 Q302.294 1475.44 304.1 1479.01 Q305.928 1482.55 309.539 1482.55 Q313.174 1482.55 314.979 1479.01 Q316.808 1475.44 316.808 1468.33 Q316.808 1461.2 314.979 1457.66 Q313.174 1454.1 309.539 1454.1 M309.539 1450.39 Q315.349 1450.39 318.405 1455 Q321.484 1459.58 321.484 1468.33 Q321.484 1477.06 318.405 1481.67 Q315.349 1486.25 309.539 1486.25 Q303.729 1486.25 300.65 1481.67 Q297.595 1477.06 297.595 1468.33 Q297.595 1459.58 300.65 1455 Q303.729 1450.39 309.539 1450.39 Z" fill="#000000" fill-rule="evenodd" fill-opacity="1" /><path clip-path="url(#clip430)" d="M795.848 1481.64 L803.487 1481.64 L803.487 1455.28 L795.176 1456.95 L795.176 1452.69 L803.44 1451.02 L808.116 1451.02 L808.116 1481.64 L815.755 1481.64 L815.755 1485.58 L795.848 1485.58 L795.848 1481.64 Z" fill="#000000" fill-rule="evenodd" fill-opacity="1" /><path clip-path="url(#clip430)" d="M1296.04 1481.64 L1312.36 1481.64 L1312.36 1485.58 L1290.42 1485.58 L1290.42 1481.64 Q1293.08 1478.89 1297.67 1474.26 Q1302.27 1469.61 1303.45 1468.27 Q1305.7 1465.74 1306.58 1464.01 Q1307.48 1462.25 1307.48 1460.56 Q1307.48 1457.8 1305.54 1456.07 Q1303.61 1454.33 1300.51 1454.33 Q1298.31 1454.33 1295.86 1455.09 Q1293.43 1455.86 1290.65 1457.41 L1290.65 1452.69 Q1293.48 1451.55 1295.93 1450.97 Q1298.38 1450.39 1300.42 1450.39 Q1305.79 1450.39 1308.98 1453.08 Q1312.18 1455.77 1312.18 1460.26 Q1312.18 1462.39 1311.37 1464.31 Q1310.58 1466.2 1308.48 1468.8 Q1307.9 1469.47 1304.79 1472.69 Q1301.69 1475.88 1296.04 1481.64 Z" fill="#000000" fill-rule="evenodd" fill-opacity="1" /><path clip-path="url(#clip430)" d="M1801.57 1466.95 Q1804.92 1467.66 1806.8 1469.93 Q1808.7 1472.2 1808.7 1475.53 Q1808.7 1480.65 1805.18 1483.45 Q1801.66 1486.25 1795.18 1486.25 Q1793 1486.25 1790.69 1485.81 Q1788.39 1485.39 1785.94 1484.54 L1785.94 1480.02 Q1787.89 1481.16 1790.2 1481.74 Q1792.52 1482.32 1795.04 1482.32 Q1799.44 1482.32 1801.73 1480.58 Q1804.04 1478.84 1804.04 1475.53 Q1804.04 1472.48 1801.89 1470.77 Q1799.76 1469.03 1795.94 1469.03 L1791.91 1469.03 L1791.91 1465.19 L1796.13 1465.19 Q1799.58 1465.19 1801.4 1463.82 Q1803.23 1462.43 1803.23 1459.84 Q1803.23 1457.18 1801.33 1455.77 Q1799.46 1454.33 1795.94 1454.33 Q1794.02 1454.33 1791.82 1454.75 Q1789.62 1455.16 1786.98 1456.04 L1786.98 1451.88 Q1789.64 1451.14 1791.96 1450.77 Q1794.3 1450.39 1796.36 1450.39 Q1801.68 1450.39 1804.78 1452.83 Q1807.89 1455.23 1807.89 1459.35 Q1807.89 1462.22 1806.24 1464.21 Q1804.6 1466.18 1801.57 1466.95 Z" fill="#000000" fill-rule="evenodd" fill-opacity="1" /><path clip-path="url(#clip430)" d="M2296.25 1455.09 L2284.45 1473.54 L2296.25 1473.54 L2296.25 1455.09 M2295.03 1451.02 L2300.91 1451.02 L2300.91 1473.54 L2305.84 1473.54 L2305.84 1477.43 L2300.91 1477.43 L2300.91 1485.58 L2296.25 1485.58 L2296.25 1477.43 L2280.65 1477.43 L2280.65 1472.92 L2295.03 1451.02 Z" fill="#000000" fill-rule="evenodd" fill-opacity="1" /><path clip-path="url(#clip430)" d="M1306.6 1551.46 L1305.2 1544.11 Q1303.76 1536.57 1298.1 1536.57 Q1293.83 1536.57 1291.89 1540.07 Q1289.44 1544.46 1289.44 1550.25 Q1289.44 1557.25 1291.83 1560.6 Q1294.25 1564 1298.1 1564 Q1302.36 1564 1304.65 1557.22 L1306.6 1551.46 M1309.87 1541.72 L1313.03 1532.4 L1318.25 1532.4 L1311.72 1551.72 L1312.99 1558.69 Q1313.28 1560.25 1314.39 1561.55 Q1315.7 1563.08 1316.72 1563.08 L1319.52 1563.08 L1319.52 1568.04 L1316.02 1568.04 Q1313.03 1568.04 1310.35 1565.37 Q1309.05 1564.03 1308.51 1561.23 Q1307.04 1564.77 1304.05 1567.53 Q1302.65 1568.84 1298.1 1568.84 Q1290.62 1568.84 1286.99 1564 Q1283.27 1559 1283.27 1550.25 Q1283.27 1540.89 1287.31 1536.5 Q1291.8 1531.6 1298.1 1531.6 Q1308 1531.6 1309.87 1541.72 Z" fill="#000000" fill-rule="evenodd" fill-opacity="1" /><polyline clip-path="url(#clip432)" style="stroke:#000000; stroke-linecap:round; stroke-linejoin:round; stroke-width:2; stroke-opacity:0.1; fill:none" points="250.028,1308.69 2352.76,1308.69 "/>
<polyline clip-path="url(#clip432)" style="stroke:#000000; stroke-linecap:round; stroke-linejoin:round; stroke-width:2; stroke-opacity:0.1; fill:none" points="250.028,1104.94 2352.76,1104.94 "/>
<polyline clip-path="url(#clip432)" style="stroke:#000000; stroke-linecap:round; stroke-linejoin:round; stroke-width:2; stroke-opacity:0.1; fill:none" points="250.028,901.191 2352.76,901.191 "/>
<polyline clip-path="url(#clip432)" style="stroke:#000000; stroke-linecap:round; stroke-linejoin:round; stroke-width:2; stroke-opacity:0.1; fill:none" points="250.028,697.44 2352.76,697.44 "/>
<polyline clip-path="url(#clip432)" style="stroke:#000000; stroke-linecap:round; stroke-linejoin:round; stroke-width:2; stroke-opacity:0.1; fill:none" points="250.028,493.688 2352.76,493.688 "/>
<polyline clip-path="url(#clip432)" style="stroke:#000000; stroke-linecap:round; stroke-linejoin:round; stroke-width:2; stroke-opacity:0.1; fill:none" points="250.028,289.937 2352.76,289.937 "/>
<polyline clip-path="url(#clip432)" style="stroke:#000000; stroke-linecap:round; stroke-linejoin:round; stroke-width:2; stroke-opacity:0.1; fill:none" points="250.028,86.1857 2352.76,86.1857 "/>
<polyline clip-path="url(#clip430)" style="stroke:#000000; stroke-linecap:round; stroke-linejoin:round; stroke-width:4; stroke-opacity:1; fill:none" points="250.028,1423.18 250.028,47.2441 "/>
<polyline clip-path="url(#clip430)" style="stroke:#000000; stroke-linecap:round; stroke-linejoin:round; stroke-width:4; stroke-opacity:1; fill:none" points="250.028,1308.69 268.926,1308.69 "/>
<polyline clip-path="url(#clip430)" style="stroke:#000000; stroke-linecap:round; stroke-linejoin:round; stroke-width:4; stroke-opacity:1; fill:none" points="250.028,1104.94 268.926,1104.94 "/>
<polyline clip-path="url(#clip430)" style="stroke:#000000; stroke-linecap:round; stroke-linejoin:round; stroke-width:4; stroke-opacity:1; fill:none" points="250.028,901.191 268.926,901.191 "/>
<polyline clip-path="url(#clip430)" style="stroke:#000000; stroke-linecap:round; stroke-linejoin:round; stroke-width:4; stroke-opacity:1; fill:none" points="250.028,697.44 268.926,697.44 "/>
<polyline clip-path="url(#clip430)" style="stroke:#000000; stroke-linecap:round; stroke-linejoin:round; stroke-width:4; stroke-opacity:1; fill:none" points="250.028,493.688 268.926,493.688 "/>
<polyline clip-path="url(#clip430)" style="stroke:#000000; stroke-linecap:round; stroke-linejoin:round; stroke-width:4; stroke-opacity:1; fill:none" points="250.028,289.937 268.926,289.937 "/>
<polyline clip-path="url(#clip430)" style="stroke:#000000; stroke-linecap:round; stroke-linejoin:round; stroke-width:4; stroke-opacity:1; fill:none" points="250.028,86.1857 268.926,86.1857 "/>
<path clip-path="url(#clip430)" d="M126.783 1294.49 Q123.172 1294.49 121.343 1298.06 Q119.538 1301.6 119.538 1308.73 Q119.538 1315.83 121.343 1319.4 Q123.172 1322.94 126.783 1322.94 Q130.417 1322.94 132.223 1319.4 Q134.052 1315.83 134.052 1308.73 Q134.052 1301.6 132.223 1298.06 Q130.417 1294.49 126.783 1294.49 M126.783 1290.79 Q132.593 1290.79 135.649 1295.4 Q138.728 1299.98 138.728 1308.73 Q138.728 1317.46 135.649 1322.06 Q132.593 1326.64 126.783 1326.64 Q120.973 1326.64 117.894 1322.06 Q114.839 1317.46 114.839 1308.73 Q114.839 1299.98 117.894 1295.4 Q120.973 1290.79 126.783 1290.79 Z" fill="#000000" fill-rule="evenodd" fill-opacity="1" /><path clip-path="url(#clip430)" d="M146.945 1320.09 L151.829 1320.09 L151.829 1325.97 L146.945 1325.97 L146.945 1320.09 Z" fill="#000000" fill-rule="evenodd" fill-opacity="1" /><path clip-path="url(#clip430)" d="M172.014 1309.56 Q168.681 1309.56 166.76 1311.34 Q164.862 1313.13 164.862 1316.25 Q164.862 1319.38 166.76 1321.16 Q168.681 1322.94 172.014 1322.94 Q175.348 1322.94 177.269 1321.16 Q179.19 1319.35 179.19 1316.25 Q179.19 1313.13 177.269 1311.34 Q175.371 1309.56 172.014 1309.56 M167.339 1307.57 Q164.329 1306.83 162.64 1304.77 Q160.973 1302.71 160.973 1299.75 Q160.973 1295.6 163.913 1293.2 Q166.876 1290.79 172.014 1290.79 Q177.176 1290.79 180.116 1293.2 Q183.056 1295.6 183.056 1299.75 Q183.056 1302.71 181.366 1304.77 Q179.7 1306.83 176.714 1307.57 Q180.093 1308.36 181.968 1310.65 Q183.866 1312.94 183.866 1316.25 Q183.866 1321.27 180.788 1323.96 Q177.732 1326.64 172.014 1326.64 Q166.297 1326.64 163.218 1323.96 Q160.163 1321.27 160.163 1316.25 Q160.163 1312.94 162.061 1310.65 Q163.959 1308.36 167.339 1307.57 M165.626 1300.19 Q165.626 1302.87 167.292 1304.38 Q168.982 1305.88 172.014 1305.88 Q175.024 1305.88 176.714 1304.38 Q178.426 1302.87 178.426 1300.19 Q178.426 1297.5 176.714 1296 Q175.024 1294.49 172.014 1294.49 Q168.982 1294.49 167.292 1296 Q165.626 1297.5 165.626 1300.19 Z" fill="#000000" fill-rule="evenodd" fill-opacity="1" /><path clip-path="url(#clip430)" d="M202.176 1309.56 Q198.843 1309.56 196.922 1311.34 Q195.024 1313.13 195.024 1316.25 Q195.024 1319.38 196.922 1321.16 Q198.843 1322.94 202.176 1322.94 Q205.51 1322.94 207.431 1321.16 Q209.352 1319.35 209.352 1316.25 Q209.352 1313.13 207.431 1311.34 Q205.533 1309.56 202.176 1309.56 M197.5 1307.57 Q194.491 1306.83 192.801 1304.77 Q191.135 1302.71 191.135 1299.75 Q191.135 1295.6 194.075 1293.2 Q197.037 1290.79 202.176 1290.79 Q207.338 1290.79 210.278 1293.2 Q213.218 1295.6 213.218 1299.75 Q213.218 1302.71 211.528 1304.77 Q209.861 1306.83 206.875 1307.57 Q210.255 1308.36 212.13 1310.65 Q214.028 1312.94 214.028 1316.25 Q214.028 1321.27 210.949 1323.96 Q207.894 1326.64 202.176 1326.64 Q196.459 1326.64 193.38 1323.96 Q190.325 1321.27 190.325 1316.25 Q190.325 1312.94 192.223 1310.65 Q194.121 1308.36 197.5 1307.57 M195.787 1300.19 Q195.787 1302.87 197.454 1304.38 Q199.144 1305.88 202.176 1305.88 Q205.186 1305.88 206.875 1304.38 Q208.588 1302.87 208.588 1300.19 Q208.588 1297.5 206.875 1296 Q205.186 1294.49 202.176 1294.49 Q199.144 1294.49 197.454 1296 Q195.787 1297.5 195.787 1300.19 Z" fill="#000000" fill-rule="evenodd" fill-opacity="1" /><path clip-path="url(#clip430)" d="M126.691 1090.74 Q123.08 1090.74 121.251 1094.31 Q119.445 1097.85 119.445 1104.98 Q119.445 1112.08 121.251 1115.65 Q123.08 1119.19 126.691 1119.19 Q130.325 1119.19 132.13 1115.65 Q133.959 1112.08 133.959 1104.98 Q133.959 1097.85 132.13 1094.31 Q130.325 1090.74 126.691 1090.74 M126.691 1087.04 Q132.501 1087.04 135.556 1091.64 Q138.635 1096.23 138.635 1104.98 Q138.635 1113.7 135.556 1118.31 Q132.501 1122.89 126.691 1122.89 Q120.88 1122.89 117.802 1118.31 Q114.746 1113.7 114.746 1104.98 Q114.746 1096.23 117.802 1091.64 Q120.88 1087.04 126.691 1087.04 Z" fill="#000000" fill-rule="evenodd" fill-opacity="1" /><path clip-path="url(#clip430)" d="M146.853 1116.34 L151.737 1116.34 L151.737 1122.22 L146.853 1122.22 L146.853 1116.34 Z" fill="#000000" fill-rule="evenodd" fill-opacity="1" /><path clip-path="url(#clip430)" d="M162.061 1121.5 L162.061 1117.25 Q163.82 1118.08 165.626 1118.52 Q167.431 1118.96 169.167 1118.96 Q173.797 1118.96 176.227 1115.86 Q178.681 1112.73 179.028 1106.39 Q177.686 1108.38 175.626 1109.44 Q173.565 1110.51 171.065 1110.51 Q165.88 1110.51 162.848 1107.38 Q159.839 1104.24 159.839 1098.8 Q159.839 1093.47 162.987 1090.25 Q166.135 1087.04 171.366 1087.04 Q177.362 1087.04 180.51 1091.64 Q183.681 1096.23 183.681 1104.98 Q183.681 1113.15 179.792 1118.03 Q175.926 1122.89 169.376 1122.89 Q167.616 1122.89 165.811 1122.55 Q164.005 1122.2 162.061 1121.5 M171.366 1106.85 Q174.514 1106.85 176.343 1104.7 Q178.195 1102.55 178.195 1098.8 Q178.195 1095.07 176.343 1092.92 Q174.514 1090.74 171.366 1090.74 Q168.218 1090.74 166.366 1092.92 Q164.538 1095.07 164.538 1098.8 Q164.538 1102.55 166.366 1104.7 Q168.218 1106.85 171.366 1106.85 Z" fill="#000000" fill-rule="evenodd" fill-opacity="1" /><path clip-path="url(#clip430)" d="M202.084 1090.74 Q198.473 1090.74 196.644 1094.31 Q194.838 1097.85 194.838 1104.98 Q194.838 1112.08 196.644 1115.65 Q198.473 1119.19 202.084 1119.19 Q205.718 1119.19 207.524 1115.65 Q209.352 1112.08 209.352 1104.98 Q209.352 1097.85 207.524 1094.31 Q205.718 1090.74 202.084 1090.74 M202.084 1087.04 Q207.894 1087.04 210.949 1091.64 Q214.028 1096.23 214.028 1104.98 Q214.028 1113.7 210.949 1118.31 Q207.894 1122.89 202.084 1122.89 Q196.274 1122.89 193.195 1118.31 Q190.139 1113.7 190.139 1104.98 Q190.139 1096.23 193.195 1091.64 Q196.274 1087.04 202.084 1087.04 Z" fill="#000000" fill-rule="evenodd" fill-opacity="1" /><path clip-path="url(#clip430)" d="M128.288 886.99 Q124.677 886.99 122.848 890.554 Q121.043 894.096 121.043 901.226 Q121.043 908.332 122.848 911.897 Q124.677 915.439 128.288 915.439 Q131.922 915.439 133.728 911.897 Q135.556 908.332 135.556 901.226 Q135.556 894.096 133.728 890.554 Q131.922 886.99 128.288 886.99 M128.288 883.286 Q134.098 883.286 137.154 887.892 Q140.232 892.476 140.232 901.226 Q140.232 909.953 137.154 914.559 Q134.098 919.142 128.288 919.142 Q122.478 919.142 119.399 914.559 Q116.343 909.953 116.343 901.226 Q116.343 892.476 119.399 887.892 Q122.478 883.286 128.288 883.286 Z" fill="#000000" fill-rule="evenodd" fill-opacity="1" /><path clip-path="url(#clip430)" d="M148.45 912.591 L153.334 912.591 L153.334 918.471 L148.45 918.471 L148.45 912.591 Z" fill="#000000" fill-rule="evenodd" fill-opacity="1" /><path clip-path="url(#clip430)" d="M163.658 917.753 L163.658 913.494 Q165.417 914.327 167.223 914.767 Q169.028 915.207 170.764 915.207 Q175.394 915.207 177.825 912.105 Q180.278 908.98 180.626 902.638 Q179.283 904.628 177.223 905.693 Q175.163 906.758 172.663 906.758 Q167.477 906.758 164.445 903.633 Q161.436 900.485 161.436 895.045 Q161.436 889.721 164.584 886.504 Q167.732 883.286 172.964 883.286 Q178.959 883.286 182.107 887.892 Q185.278 892.476 185.278 901.226 Q185.278 909.397 181.389 914.281 Q177.524 919.142 170.973 919.142 Q169.214 919.142 167.408 918.795 Q165.602 918.448 163.658 917.753 M172.964 903.101 Q176.112 903.101 177.94 900.948 Q179.792 898.795 179.792 895.045 Q179.792 891.318 177.94 889.166 Q176.112 886.99 172.964 886.99 Q169.815 886.99 167.964 889.166 Q166.135 891.318 166.135 895.045 Q166.135 898.795 167.964 900.948 Q169.815 903.101 172.964 903.101 Z" fill="#000000" fill-rule="evenodd" fill-opacity="1" /><path clip-path="url(#clip430)" d="M197.709 914.536 L214.028 914.536 L214.028 918.471 L192.084 918.471 L192.084 914.536 Q194.746 911.781 199.329 907.152 Q203.936 902.499 205.116 901.156 Q207.362 898.633 208.241 896.897 Q209.144 895.138 209.144 893.448 Q209.144 890.693 207.199 888.957 Q205.278 887.221 202.176 887.221 Q199.977 887.221 197.524 887.985 Q195.093 888.749 192.315 890.3 L192.315 885.578 Q195.139 884.443 197.593 883.865 Q200.047 883.286 202.084 883.286 Q207.454 883.286 210.649 885.971 Q213.843 888.656 213.843 893.147 Q213.843 895.277 213.033 897.198 Q212.246 899.096 210.139 901.689 Q209.561 902.36 206.459 905.578 Q203.357 908.772 197.709 914.536 Z" fill="#000000" fill-rule="evenodd" fill-opacity="1" /><path clip-path="url(#clip430)" d="M126.205 683.238 Q122.593 683.238 120.765 686.803 Q118.959 690.345 118.959 697.474 Q118.959 704.581 120.765 708.146 Q122.593 711.687 126.205 711.687 Q129.839 711.687 131.644 708.146 Q133.473 704.581 133.473 697.474 Q133.473 690.345 131.644 686.803 Q129.839 683.238 126.205 683.238 M126.205 679.535 Q132.015 679.535 135.07 684.141 Q138.149 688.724 138.149 697.474 Q138.149 706.201 135.07 710.808 Q132.015 715.391 126.205 715.391 Q120.394 715.391 117.316 710.808 Q114.26 706.201 114.26 697.474 Q114.26 688.724 117.316 684.141 Q120.394 679.535 126.205 679.535 Z" fill="#000000" fill-rule="evenodd" fill-opacity="1" /><path clip-path="url(#clip430)" d="M146.366 708.84 L151.251 708.84 L151.251 714.72 L146.366 714.72 L146.366 708.84 Z" fill="#000000" fill-rule="evenodd" fill-opacity="1" /><path clip-path="url(#clip430)" d="M161.575 714.002 L161.575 709.743 Q163.334 710.576 165.14 711.016 Q166.945 711.456 168.681 711.456 Q173.311 711.456 175.741 708.354 Q178.195 705.229 178.542 698.886 Q177.2 700.877 175.139 701.942 Q173.079 703.007 170.579 703.007 Q165.394 703.007 162.362 699.882 Q159.353 696.734 159.353 691.294 Q159.353 685.97 162.501 682.752 Q165.649 679.535 170.88 679.535 Q176.876 679.535 180.024 684.141 Q183.195 688.724 183.195 697.474 Q183.195 705.646 179.306 710.53 Q175.44 715.391 168.889 715.391 Q167.13 715.391 165.325 715.044 Q163.519 714.697 161.575 714.002 M170.88 699.349 Q174.028 699.349 175.857 697.197 Q177.709 695.044 177.709 691.294 Q177.709 687.567 175.857 685.414 Q174.028 683.238 170.88 683.238 Q167.732 683.238 165.88 685.414 Q164.052 687.567 164.052 691.294 Q164.052 695.044 165.88 697.197 Q167.732 699.349 170.88 699.349 Z" fill="#000000" fill-rule="evenodd" fill-opacity="1" /><path clip-path="url(#clip430)" d="M204.445 684.234 L192.639 702.683 L204.445 702.683 L204.445 684.234 M203.218 680.16 L209.098 680.16 L209.098 702.683 L214.028 702.683 L214.028 706.572 L209.098 706.572 L209.098 714.72 L204.445 714.72 L204.445 706.572 L188.843 706.572 L188.843 702.058 L203.218 680.16 Z" fill="#000000" fill-rule="evenodd" fill-opacity="1" /><path clip-path="url(#clip430)" d="M126.529 479.487 Q122.918 479.487 121.089 483.052 Q119.283 486.593 119.283 493.723 Q119.283 500.829 121.089 504.394 Q122.918 507.936 126.529 507.936 Q130.163 507.936 131.968 504.394 Q133.797 500.829 133.797 493.723 Q133.797 486.593 131.968 483.052 Q130.163 479.487 126.529 479.487 M126.529 475.783 Q132.339 475.783 135.394 480.39 Q138.473 484.973 138.473 493.723 Q138.473 502.45 135.394 507.056 Q132.339 511.64 126.529 511.64 Q120.718 511.64 117.64 507.056 Q114.584 502.45 114.584 493.723 Q114.584 484.973 117.64 480.39 Q120.718 475.783 126.529 475.783 Z" fill="#000000" fill-rule="evenodd" fill-opacity="1" /><path clip-path="url(#clip430)" d="M146.691 505.089 L151.575 505.089 L151.575 510.968 L146.691 510.968 L146.691 505.089 Z" fill="#000000" fill-rule="evenodd" fill-opacity="1" /><path clip-path="url(#clip430)" d="M161.899 510.251 L161.899 505.991 Q163.658 506.825 165.464 507.265 Q167.269 507.704 169.005 507.704 Q173.635 507.704 176.065 504.603 Q178.519 501.478 178.866 495.135 Q177.524 497.126 175.464 498.191 Q173.403 499.255 170.903 499.255 Q165.718 499.255 162.686 496.13 Q159.677 492.982 159.677 487.543 Q159.677 482.218 162.825 479.001 Q165.973 475.783 171.204 475.783 Q177.2 475.783 180.348 480.39 Q183.519 484.973 183.519 493.723 Q183.519 501.894 179.63 506.779 Q175.764 511.64 169.214 511.64 Q167.454 511.64 165.649 511.292 Q163.843 510.945 161.899 510.251 M171.204 495.598 Q174.352 495.598 176.181 493.445 Q178.033 491.293 178.033 487.543 Q178.033 483.816 176.181 481.663 Q174.352 479.487 171.204 479.487 Q168.056 479.487 166.204 481.663 Q164.376 483.816 164.376 487.543 Q164.376 491.293 166.204 493.445 Q168.056 495.598 171.204 495.598 Z" fill="#000000" fill-rule="evenodd" fill-opacity="1" /><path clip-path="url(#clip430)" d="M202.5 491.825 Q199.352 491.825 197.5 493.978 Q195.672 496.13 195.672 499.88 Q195.672 503.607 197.5 505.783 Q199.352 507.936 202.5 507.936 Q205.649 507.936 207.477 505.783 Q209.329 503.607 209.329 499.88 Q209.329 496.13 207.477 493.978 Q205.649 491.825 202.5 491.825 M211.783 477.172 L211.783 481.431 Q210.024 480.598 208.218 480.158 Q206.436 479.718 204.676 479.718 Q200.047 479.718 197.593 482.843 Q195.163 485.968 194.815 492.288 Q196.181 490.274 198.241 489.209 Q200.301 488.121 202.778 488.121 Q207.987 488.121 210.996 491.293 Q214.028 494.441 214.028 499.88 Q214.028 505.204 210.88 508.422 Q207.732 511.64 202.5 511.64 Q196.505 511.64 193.334 507.056 Q190.163 502.45 190.163 493.723 Q190.163 485.529 194.051 480.668 Q197.94 475.783 204.491 475.783 Q206.25 475.783 208.033 476.131 Q209.838 476.478 211.783 477.172 Z" fill="#000000" fill-rule="evenodd" fill-opacity="1" /><path clip-path="url(#clip430)" d="M126.783 275.736 Q123.172 275.736 121.343 279.3 Q119.538 282.842 119.538 289.972 Q119.538 297.078 121.343 300.643 Q123.172 304.185 126.783 304.185 Q130.417 304.185 132.223 300.643 Q134.052 297.078 134.052 289.972 Q134.052 282.842 132.223 279.3 Q130.417 275.736 126.783 275.736 M126.783 272.032 Q132.593 272.032 135.649 276.638 Q138.728 281.222 138.728 289.972 Q138.728 298.699 135.649 303.305 Q132.593 307.888 126.783 307.888 Q120.973 307.888 117.894 303.305 Q114.839 298.699 114.839 289.972 Q114.839 281.222 117.894 276.638 Q120.973 272.032 126.783 272.032 Z" fill="#000000" fill-rule="evenodd" fill-opacity="1" /><path clip-path="url(#clip430)" d="M146.945 301.337 L151.829 301.337 L151.829 307.217 L146.945 307.217 L146.945 301.337 Z" fill="#000000" fill-rule="evenodd" fill-opacity="1" /><path clip-path="url(#clip430)" d="M162.153 306.499 L162.153 302.24 Q163.913 303.074 165.718 303.513 Q167.524 303.953 169.26 303.953 Q173.889 303.953 176.32 300.851 Q178.774 297.726 179.121 291.384 Q177.778 293.374 175.718 294.439 Q173.658 295.504 171.158 295.504 Q165.973 295.504 162.94 292.379 Q159.931 289.231 159.931 283.791 Q159.931 278.467 163.079 275.25 Q166.227 272.032 171.459 272.032 Q177.454 272.032 180.602 276.638 Q183.774 281.222 183.774 289.972 Q183.774 298.143 179.885 303.027 Q176.019 307.888 169.468 307.888 Q167.709 307.888 165.903 307.541 Q164.098 307.194 162.153 306.499 M171.459 291.847 Q174.607 291.847 176.436 289.694 Q178.288 287.541 178.288 283.791 Q178.288 280.064 176.436 277.912 Q174.607 275.736 171.459 275.736 Q168.311 275.736 166.459 277.912 Q164.63 280.064 164.63 283.791 Q164.63 287.541 166.459 289.694 Q168.311 291.847 171.459 291.847 Z" fill="#000000" fill-rule="evenodd" fill-opacity="1" /><path clip-path="url(#clip430)" d="M202.176 290.805 Q198.843 290.805 196.922 292.587 Q195.024 294.37 195.024 297.495 Q195.024 300.62 196.922 302.402 Q198.843 304.185 202.176 304.185 Q205.51 304.185 207.431 302.402 Q209.352 300.597 209.352 297.495 Q209.352 294.37 207.431 292.587 Q205.533 290.805 202.176 290.805 M197.5 288.814 Q194.491 288.074 192.801 286.013 Q191.135 283.953 191.135 280.99 Q191.135 276.847 194.075 274.439 Q197.037 272.032 202.176 272.032 Q207.338 272.032 210.278 274.439 Q213.218 276.847 213.218 280.99 Q213.218 283.953 211.528 286.013 Q209.861 288.074 206.875 288.814 Q210.255 289.601 212.13 291.893 Q214.028 294.185 214.028 297.495 Q214.028 302.518 210.949 305.203 Q207.894 307.888 202.176 307.888 Q196.459 307.888 193.38 305.203 Q190.325 302.518 190.325 297.495 Q190.325 294.185 192.223 291.893 Q194.121 289.601 197.5 288.814 M195.787 281.43 Q195.787 284.115 197.454 285.62 Q199.144 287.125 202.176 287.125 Q205.186 287.125 206.875 285.62 Q208.588 284.115 208.588 281.43 Q208.588 278.745 206.875 277.24 Q205.186 275.736 202.176 275.736 Q199.144 275.736 197.454 277.24 Q195.787 278.745 195.787 281.43 Z" fill="#000000" fill-rule="evenodd" fill-opacity="1" /><path clip-path="url(#clip430)" d="M117.501 99.5305 L125.14 99.5305 L125.14 73.1649 L116.83 74.8316 L116.83 70.5723 L125.093 68.9057 L129.769 68.9057 L129.769 99.5305 L137.408 99.5305 L137.408 103.466 L117.501 103.466 L117.501 99.5305 Z" fill="#000000" fill-rule="evenodd" fill-opacity="1" /><path clip-path="url(#clip430)" d="M146.853 97.5861 L151.737 97.5861 L151.737 103.466 L146.853 103.466 L146.853 97.5861 Z" fill="#000000" fill-rule="evenodd" fill-opacity="1" /><path clip-path="url(#clip430)" d="M171.922 71.9844 Q168.311 71.9844 166.482 75.5492 Q164.677 79.0908 164.677 86.2204 Q164.677 93.3268 166.482 96.8916 Q168.311 100.433 171.922 100.433 Q175.556 100.433 177.362 96.8916 Q179.19 93.3268 179.19 86.2204 Q179.19 79.0908 177.362 75.5492 Q175.556 71.9844 171.922 71.9844 M171.922 68.2807 Q177.732 68.2807 180.788 72.8871 Q183.866 77.4704 183.866 86.2204 Q183.866 94.9472 180.788 99.5537 Q177.732 104.137 171.922 104.137 Q166.112 104.137 163.033 99.5537 Q159.978 94.9472 159.978 86.2204 Q159.978 77.4704 163.033 72.8871 Q166.112 68.2807 171.922 68.2807 Z" fill="#000000" fill-rule="evenodd" fill-opacity="1" /><path clip-path="url(#clip430)" d="M202.084 71.9844 Q198.473 71.9844 196.644 75.5492 Q194.838 79.0908 194.838 86.2204 Q194.838 93.3268 196.644 96.8916 Q198.473 100.433 202.084 100.433 Q205.718 100.433 207.524 96.8916 Q209.352 93.3268 209.352 86.2204 Q209.352 79.0908 207.524 75.5492 Q205.718 71.9844 202.084 71.9844 M202.084 68.2807 Q207.894 68.2807 210.949 72.8871 Q214.028 77.4704 214.028 86.2204 Q214.028 94.9472 210.949 99.5537 Q207.894 104.137 202.084 104.137 Q196.274 104.137 193.195 99.5537 Q190.139 94.9472 190.139 86.2204 Q190.139 77.4704 193.195 72.8871 Q196.274 68.2807 202.084 68.2807 Z" fill="#000000" fill-rule="evenodd" fill-opacity="1" /><path clip-path="url(#clip430)" d="M14.479 1108.43 L14.479 1102.58 L64.0042 1102.58 L64.0042 1108.43 L14.479 1108.43 Z" fill="#000000" fill-rule="evenodd" fill-opacity="1" /><path clip-path="url(#clip430)" d="M46.0847 1074.12 Q46.0847 1081.22 47.7079 1083.96 Q49.3312 1086.69 53.2461 1086.69 Q56.3653 1086.69 58.2114 1084.66 Q60.0256 1082.59 60.0256 1079.06 Q60.0256 1074.19 56.5881 1071.26 Q53.1188 1068.3 47.3897 1068.3 L46.0847 1068.3 L46.0847 1074.12 M43.6657 1062.44 L64.0042 1062.44 L64.0042 1068.3 L58.5933 1068.3 Q61.8398 1070.3 63.3994 1073.29 Q64.9272 1076.29 64.9272 1080.62 Q64.9272 1086.09 61.8716 1089.34 Q58.7843 1092.55 53.6281 1092.55 Q47.6125 1092.55 44.5569 1088.54 Q41.5014 1084.5 41.5014 1076.51 L41.5014 1068.3 L40.9285 1068.3 Q36.8862 1068.3 34.6901 1070.97 Q32.4621 1073.61 32.4621 1078.42 Q32.4621 1081.47 33.1941 1084.37 Q33.9262 1087.27 35.3903 1089.94 L29.9795 1089.94 Q28.7381 1086.73 28.1334 1083.7 Q27.4968 1080.68 27.4968 1077.81 Q27.4968 1070.08 31.5072 1066.26 Q35.5176 1062.44 43.6657 1062.44 Z" fill="#000000" fill-rule="evenodd" fill-opacity="1" /><path clip-path="url(#clip430)" d="M35.1993 1022.62 Q31.2526 1020.43 29.3747 1017.37 Q27.4968 1014.32 27.4968 1010.18 Q27.4968 1004.61 31.4117 1001.58 Q35.2948 998.561 42.4881 998.561 L64.0042 998.561 L64.0042 1004.45 L42.679 1004.45 Q37.5546 1004.45 35.072 1006.26 Q32.5894 1008.08 32.5894 1011.8 Q32.5894 1016.35 35.6131 1019 Q38.6368 1021.64 43.8567 1021.64 L64.0042 1021.64 L64.0042 1027.53 L42.679 1027.53 Q37.5228 1027.53 35.072 1029.34 Q32.5894 1031.15 32.5894 1034.94 Q32.5894 1039.43 35.6449 1042.07 Q38.6686 1044.71 43.8567 1044.71 L64.0042 1044.71 L64.0042 1050.6 L28.3562 1050.6 L28.3562 1044.71 L33.8944 1044.71 Q30.616 1042.71 29.0564 1039.91 Q27.4968 1037.11 27.4968 1033.25 Q27.4968 1029.37 29.4702 1026.67 Q31.4436 1023.93 35.1993 1022.62 Z" fill="#000000" fill-rule="evenodd" fill-opacity="1" /><path clip-path="url(#clip430)" d="M46.212 961.29 Q39.7508 961.29 36.0905 963.964 Q32.3984 966.605 32.3984 971.252 Q32.3984 975.899 36.0905 978.573 Q39.7508 981.215 46.212 981.215 Q52.6732 981.215 56.3653 978.573 Q60.0256 975.899 60.0256 971.252 Q60.0256 966.605 56.3653 963.964 Q52.6732 961.29 46.212 961.29 M33.7671 981.215 Q30.5842 979.369 29.0564 976.568 Q27.4968 973.735 27.4968 969.82 Q27.4968 963.327 32.6531 959.285 Q37.8093 955.211 46.212 955.211 Q54.6147 955.211 59.771 959.285 Q64.9272 963.327 64.9272 969.82 Q64.9272 973.735 63.3994 976.568 Q61.8398 979.369 58.657 981.215 L64.0042 981.215 L64.0042 987.103 L14.479 987.103 L14.479 981.215 L33.7671 981.215 Z" fill="#000000" fill-rule="evenodd" fill-opacity="1" /><path clip-path="url(#clip430)" d="M29.4065 902.057 L34.9447 902.057 Q33.6716 904.54 33.035 907.213 Q32.3984 909.887 32.3984 912.752 Q32.3984 917.112 33.7352 919.308 Q35.072 921.473 37.7456 921.473 Q39.7826 921.473 40.9603 919.913 Q42.1061 918.353 43.1565 913.643 L43.6021 911.638 Q44.9389 905.399 47.3897 902.789 Q49.8086 900.147 54.1691 900.147 Q59.1344 900.147 62.0308 904.094 Q64.9272 908.009 64.9272 914.884 Q64.9272 917.749 64.3543 920.868 Q63.8132 923.955 62.6992 927.393 L56.6518 927.393 Q58.3387 924.146 59.198 920.995 Q60.0256 917.844 60.0256 914.757 Q60.0256 910.619 58.6251 908.391 Q57.1929 906.163 54.6147 906.163 Q52.2276 906.163 50.9545 907.786 Q49.6813 909.378 48.5037 914.82 L48.0262 916.857 Q46.8804 922.3 44.5251 924.719 Q42.138 927.138 38.0002 927.138 Q32.9713 927.138 30.2341 923.573 Q27.4968 920.008 27.4968 913.452 Q27.4968 910.205 27.9743 907.341 Q28.4517 904.476 29.4065 902.057 Z" fill="#000000" fill-rule="evenodd" fill-opacity="1" /><path clip-path="url(#clip430)" d="M42.4881 861.189 L64.0042 861.189 L64.0042 867.046 L42.679 867.046 Q37.6183 867.046 35.1038 869.019 Q32.5894 870.992 32.5894 874.939 Q32.5894 879.682 35.6131 882.419 Q38.6368 885.156 43.8567 885.156 L64.0042 885.156 L64.0042 891.044 L14.479 891.044 L14.479 885.156 L33.8944 885.156 Q30.6797 883.056 29.0883 880.223 Q27.4968 877.358 27.4968 873.634 Q27.4968 867.491 31.3163 864.34 Q35.1038 861.189 42.4881 861.189 Z" fill="#000000" fill-rule="evenodd" fill-opacity="1" /><path clip-path="url(#clip430)" d="M28.3562 849.508 L28.3562 843.652 L64.0042 843.652 L64.0042 849.508 L28.3562 849.508 M14.479 849.508 L14.479 843.652 L21.895 843.652 L21.895 849.508 L14.479 849.508 Z" fill="#000000" fill-rule="evenodd" fill-opacity="1" /><path clip-path="url(#clip430)" d="M14.479 813.351 L19.3487 813.351 L19.3487 818.953 Q19.3487 822.104 20.6219 823.345 Q21.895 824.555 25.2052 824.555 L28.3562 824.555 L28.3562 814.911 L32.9077 814.911 L32.9077 824.555 L64.0042 824.555 L64.0042 830.443 L32.9077 830.443 L32.9077 836.045 L28.3562 836.045 L28.3562 830.443 L25.8736 830.443 Q19.9216 830.443 17.2162 827.674 Q14.479 824.905 14.479 818.889 L14.479 813.351 Z" fill="#000000" fill-rule="evenodd" fill-opacity="1" /><path clip-path="url(#clip430)" d="M18.2347 803.802 L28.3562 803.802 L28.3562 791.739 L32.9077 791.739 L32.9077 803.802 L52.2594 803.802 Q56.6199 803.802 57.8613 802.625 Q59.1026 801.415 59.1026 797.755 L59.1026 791.739 L64.0042 791.739 L64.0042 797.755 Q64.0042 804.535 61.4897 807.113 Q58.9434 809.691 52.2594 809.691 L32.9077 809.691 L32.9077 813.988 L28.3562 813.988 L28.3562 809.691 L18.2347 809.691 L18.2347 803.802 Z" fill="#000000" fill-rule="evenodd" fill-opacity="1" /><path clip-path="url(#clip430)" d="M14.5426 749.248 Q21.8632 753.513 29.0246 755.582 Q36.186 757.651 43.5384 757.651 Q50.8908 757.651 58.1159 755.582 Q65.3091 753.482 72.5979 749.248 L72.5979 754.341 Q65.1182 759.115 57.8931 761.502 Q50.668 763.858 43.5384 763.858 Q36.4406 763.858 29.2474 761.502 Q22.0542 759.147 14.5426 754.341 L14.5426 749.248 Z" fill="#000000" fill-rule="evenodd" fill-opacity="1" /><path clip-path="url(#clip430)" d="M42.4881 708.253 L64.0042 708.253 L64.0042 714.11 L42.679 714.11 Q37.6183 714.11 35.1038 716.083 Q32.5894 718.056 32.5894 722.003 Q32.5894 726.746 35.6131 729.483 Q38.6368 732.22 43.8567 732.22 L64.0042 732.22 L64.0042 738.108 L28.3562 738.108 L28.3562 732.22 L33.8944 732.22 Q30.6797 730.119 29.0883 727.287 Q27.4968 724.422 27.4968 720.698 Q27.4968 714.555 31.3163 711.404 Q35.1038 708.253 42.4881 708.253 Z" fill="#000000" fill-rule="evenodd" fill-opacity="1" /><path clip-path="url(#clip430)" d="M32.4621 682.759 Q32.4621 687.469 36.1542 690.206 Q39.8145 692.944 46.212 692.944 Q52.6095 692.944 56.3017 690.238 Q59.9619 687.501 59.9619 682.759 Q59.9619 678.08 56.2698 675.342 Q52.5777 672.605 46.212 672.605 Q39.8781 672.605 36.186 675.342 Q32.4621 678.08 32.4621 682.759 M27.4968 682.759 Q27.4968 675.12 32.4621 670.759 Q37.4273 666.399 46.212 666.399 Q54.9649 666.399 59.9619 670.759 Q64.9272 675.12 64.9272 682.759 Q64.9272 690.429 59.9619 694.79 Q54.9649 699.118 46.212 699.118 Q37.4273 699.118 32.4621 694.79 Q27.4968 690.429 27.4968 682.759 Z" fill="#000000" fill-rule="evenodd" fill-opacity="1" /><path clip-path="url(#clip430)" d="M33.8307 636.034 Q33.2578 637.021 33.0032 638.199 Q32.7167 639.344 32.7167 640.745 Q32.7167 645.71 35.9632 648.384 Q39.1779 651.025 45.2253 651.025 L64.0042 651.025 L64.0042 656.914 L28.3562 656.914 L28.3562 651.025 L33.8944 651.025 Q30.6479 649.179 29.0883 646.219 Q27.4968 643.259 27.4968 639.026 Q27.4968 638.421 27.5923 637.689 Q27.656 636.957 27.8151 636.066 L33.8307 636.034 Z" fill="#000000" fill-rule="evenodd" fill-opacity="1" /><path clip-path="url(#clip430)" d="M35.1993 603.283 Q31.2526 601.087 29.3747 598.031 Q27.4968 594.975 27.4968 590.838 Q27.4968 585.268 31.4117 582.244 Q35.2948 579.22 42.4881 579.22 L64.0042 579.22 L64.0042 585.109 L42.679 585.109 Q37.5546 585.109 35.072 586.923 Q32.5894 588.737 32.5894 592.461 Q32.5894 597.012 35.6131 599.654 Q38.6368 602.296 43.8567 602.296 L64.0042 602.296 L64.0042 608.184 L42.679 608.184 Q37.5228 608.184 35.072 609.999 Q32.5894 611.813 32.5894 615.6 Q32.5894 620.088 35.6449 622.73 Q38.6686 625.372 43.8567 625.372 L64.0042 625.372 L64.0042 631.26 L28.3562 631.26 L28.3562 625.372 L33.8944 625.372 Q30.616 623.367 29.0564 620.566 Q27.4968 617.765 27.4968 613.913 Q27.4968 610.03 29.4702 607.325 Q31.4436 604.588 35.1993 603.283 Z" fill="#000000" fill-rule="evenodd" fill-opacity="1" /><path clip-path="url(#clip430)" d="M46.0847 551.339 Q46.0847 558.436 47.7079 561.174 Q49.3312 563.911 53.2461 563.911 Q56.3653 563.911 58.2114 561.874 Q60.0256 559.805 60.0256 556.272 Q60.0256 551.402 56.5881 548.474 Q53.1188 545.514 47.3897 545.514 L46.0847 545.514 L46.0847 551.339 M43.6657 539.657 L64.0042 539.657 L64.0042 545.514 L58.5933 545.514 Q61.8398 547.519 63.3994 550.511 Q64.9272 553.503 64.9272 557.832 Q64.9272 563.306 61.8716 566.553 Q58.7843 569.767 53.6281 569.767 Q47.6125 569.767 44.5569 565.757 Q41.5014 561.715 41.5014 553.726 L41.5014 545.514 L40.9285 545.514 Q36.8862 545.514 34.6901 548.188 Q32.4621 550.829 32.4621 555.635 Q32.4621 558.691 33.1941 561.587 Q33.9262 564.484 35.3903 567.157 L29.9795 567.157 Q28.7381 563.943 28.1334 560.919 Q27.4968 557.895 27.4968 555.031 Q27.4968 547.296 31.5072 543.477 Q35.5176 539.657 43.6657 539.657 Z" fill="#000000" fill-rule="evenodd" fill-opacity="1" /><path clip-path="url(#clip430)" d="M14.479 527.594 L14.479 521.738 L64.0042 521.738 L64.0042 527.594 L14.479 527.594 Z" fill="#000000" fill-rule="evenodd" fill-opacity="1" /><path clip-path="url(#clip430)" d="M28.3562 509.484 L28.3562 503.628 L64.0042 503.628 L64.0042 509.484 L28.3562 509.484 M14.479 509.484 L14.479 503.628 L21.895 503.628 L21.895 509.484 L14.479 509.484 Z" fill="#000000" fill-rule="evenodd" fill-opacity="1" /><path clip-path="url(#clip430)" d="M28.3562 493.92 L28.3562 466.102 L33.7034 466.102 L59.3254 488.127 L59.3254 466.102 L64.0042 466.102 L64.0042 494.716 L58.657 494.716 L33.035 472.69 L33.035 493.92 L28.3562 493.92 Z" fill="#000000" fill-rule="evenodd" fill-opacity="1" /><path clip-path="url(#clip430)" d="M44.7161 426.666 L47.5806 426.666 L47.5806 453.593 Q53.6281 453.211 56.8109 449.965 Q59.9619 446.686 59.9619 440.862 Q59.9619 437.488 59.1344 434.337 Q58.3069 431.154 56.6518 428.035 L62.1899 428.035 Q63.5267 431.186 64.227 434.496 Q64.9272 437.806 64.9272 441.212 Q64.9272 449.742 59.9619 454.739 Q54.9967 459.704 46.5303 459.704 Q37.7774 459.704 32.6531 454.994 Q27.4968 450.251 27.4968 442.23 Q27.4968 435.037 32.1438 430.868 Q36.7589 426.666 44.7161 426.666 M42.9973 432.523 Q38.1912 432.586 35.3266 435.228 Q32.4621 437.838 32.4621 442.167 Q32.4621 447.068 35.2312 450.028 Q38.0002 452.957 43.0292 453.402 L42.9973 432.523 Z" fill="#000000" fill-rule="evenodd" fill-opacity="1" /><path clip-path="url(#clip430)" d="M33.7671 393.596 L14.479 393.596 L14.479 387.74 L64.0042 387.74 L64.0042 393.596 L58.657 393.596 Q61.8398 395.442 63.3994 398.275 Q64.9272 401.076 64.9272 405.023 Q64.9272 411.484 59.771 415.558 Q54.6147 419.6 46.212 419.6 Q37.8093 419.6 32.6531 415.558 Q27.4968 411.484 27.4968 405.023 Q27.4968 401.076 29.0564 398.275 Q30.5842 395.442 33.7671 393.596 M46.212 413.553 Q52.6732 413.553 56.3653 410.911 Q60.0256 408.237 60.0256 403.59 Q60.0256 398.944 56.3653 396.27 Q52.6732 393.596 46.212 393.596 Q39.7508 393.596 36.0905 396.27 Q32.3984 398.944 32.3984 403.59 Q32.3984 408.237 36.0905 410.911 Q39.7508 413.553 46.212 413.553 Z" fill="#000000" fill-rule="evenodd" fill-opacity="1" /><path clip-path="url(#clip430)" d="M14.5426 376.6 L14.5426 371.507 Q22.0542 366.733 29.2474 364.378 Q36.4406 361.991 43.5384 361.991 Q50.668 361.991 57.8931 364.378 Q65.1182 366.733 72.5979 371.507 L72.5979 376.6 Q65.3091 372.367 58.1159 370.298 Q50.8908 368.197 43.5384 368.197 Q36.186 368.197 29.0246 370.298 Q21.8632 372.367 14.5426 376.6 Z" fill="#000000" fill-rule="evenodd" fill-opacity="1" /><polyline clip-path="url(#clip432)" style="stroke:#009af9; stroke-linecap:round; stroke-linejoin:round; stroke-width:4; stroke-opacity:1; fill:none" points="309.539,86.1857 312.768,92.8547 315.997,99.4796 319.226,106.061 322.454,112.599 352.309,171.06 382.163,226.12 412.018,278.035 441.872,327.042 459.813,355.187 477.755,382.406 495.696,408.741 513.637,434.234 543.976,475.529 574.314,514.696 607.27,555.011 640.226,593.182 670.608,626.615 700.99,658.484 733.564,691.033 766.137,722.026 803.876,756.13 841.615,788.441 875.153,815.762 908.691,841.861 938.101,863.804 967.511,884.917 999.576,907.044 1031.64,928.291 1063.9,948.829 1096.15,968.575 1167.48,1009.64 1235.34,1045.7 1305.9,1080.41 1365.3,1107.65 1437.82,1138.69 1504.25,1165.2 1565.61,1188.2 1627.76,1210.15 1697.41,1233.3 1760.53,1253.05 1832.79,1274.36 1899.7,1292.95 1965.67,1310.3 2029.72,1326.27 2095.37,1341.82 2167.31,1357.97 2271.81,1379.94 2293.24,1384.24 "/>
<polyline clip-path="url(#clip432)" style="stroke:#e26f46; stroke-linecap:round; stroke-linejoin:round; stroke-width:4; stroke-opacity:1; fill:none" points="309.539,86.1857 312.768,90.8801 315.997,95.5435 319.226,100.176 322.454,104.778 352.309,145.928 382.163,184.685 412.018,221.233 441.872,255.741 459.813,275.563 477.755,294.738 495.696,313.294 513.637,331.261 543.976,360.376 574.314,388.003 607.27,416.457 640.226,443.414 670.608,467.04 700.99,489.575 733.564,512.606 766.137,534.553 803.876,558.721 841.615,581.64 875.153,601.034 908.691,619.577 938.101,635.179 967.511,650.201 999.576,665.957 1031.64,681.098 1063.9,695.745 1096.15,709.839 1167.48,739.186 1235.34,764.998 1305.9,789.887 1365.3,809.45 1437.82,831.781 1504.25,850.879 1565.61,867.467 1627.76,883.33 1697.41,900.076 1760.53,914.386 1832.79,929.845 1899.7,943.35 1965.67,955.963 2029.72,967.593 2095.37,978.93 2167.31,990.723 2271.81,1006.78 2293.24,1009.93 "/>
<path clip-path="url(#clip430)" d="M1875.82 248.629 L2282.66 248.629 L2282.66 93.1086 L1875.82 93.1086  Z" fill="#ffffff" fill-rule="evenodd" fill-opacity="1"/>
<polyline clip-path="url(#clip430)" style="stroke:#000000; stroke-linecap:round; stroke-linejoin:round; stroke-width:4; stroke-opacity:1; fill:none" points="1875.82,248.629 2282.66,248.629 2282.66,93.1086 1875.82,93.1086 1875.82,248.629 "/>
<polyline clip-path="url(#clip430)" style="stroke:#009af9; stroke-linecap:round; stroke-linejoin:round; stroke-width:4; stroke-opacity:1; fill:none" points="1899.18,144.949 2039.36,144.949 "/>
<path clip-path="url(#clip430)" d="M2069.83 127.669 L2074.51 127.669 L2074.51 159.821 Q2074.51 166.071 2072.13 168.895 Q2069.77 171.719 2064.51 171.719 L2062.73 171.719 L2062.73 167.784 L2064.19 167.784 Q2067.29 167.784 2068.56 166.048 Q2069.83 164.312 2069.83 159.821 L2069.83 127.669 Z" fill="#000000" fill-rule="evenodd" fill-opacity="1" /><path clip-path="url(#clip430)" d="M2103.33 170.099 L2103.33 173.409 L2078.7 173.409 L2078.7 170.099 L2103.33 170.099 Z" fill="#000000" fill-rule="evenodd" fill-opacity="1" /><path clip-path="url(#clip430)" d="M2122.36 140.284 Q2121.64 139.868 2120.78 139.682 Q2119.95 139.474 2118.93 139.474 Q2115.32 139.474 2113.38 141.835 Q2111.45 144.173 2111.45 148.571 L2111.45 162.229 L2107.17 162.229 L2107.17 136.303 L2111.45 136.303 L2111.45 140.331 Q2112.8 137.969 2114.95 136.835 Q2117.1 135.678 2120.18 135.678 Q2120.62 135.678 2121.15 135.747 Q2121.69 135.794 2122.33 135.909 L2122.36 140.284 Z" fill="#000000" fill-rule="evenodd" fill-opacity="1" /><path clip-path="url(#clip430)" d="M2147.96 148.201 L2147.96 150.284 L2128.38 150.284 Q2128.65 154.682 2131.01 156.997 Q2133.4 159.289 2137.64 159.289 Q2140.09 159.289 2142.38 158.687 Q2144.7 158.085 2146.96 156.881 L2146.96 160.909 Q2144.67 161.881 2142.26 162.391 Q2139.86 162.9 2137.38 162.9 Q2131.18 162.9 2127.54 159.289 Q2123.93 155.678 2123.93 149.52 Q2123.93 143.155 2127.36 139.428 Q2130.81 135.678 2136.64 135.678 Q2141.87 135.678 2144.9 139.057 Q2147.96 142.414 2147.96 148.201 M2143.7 146.951 Q2143.65 143.456 2141.73 141.372 Q2139.83 139.289 2136.69 139.289 Q2133.12 139.289 2130.97 141.303 Q2128.84 143.317 2128.52 146.974 L2143.7 146.951 Z" fill="#000000" fill-rule="evenodd" fill-opacity="1" /><path clip-path="url(#clip430)" d="M2154.95 126.21 L2159.21 126.21 L2159.21 162.229 L2154.95 162.229 L2154.95 126.21 Z" fill="#000000" fill-rule="evenodd" fill-opacity="1" /><path clip-path="url(#clip430)" d="M2183.75 140.701 L2213.42 140.701 L2213.42 144.59 L2183.75 144.59 L2183.75 140.701 M2183.75 150.145 L2213.42 150.145 L2213.42 154.081 L2183.75 154.081 L2183.75 150.145 Z" fill="#000000" fill-rule="evenodd" fill-opacity="1" /><path clip-path="url(#clip430)" d="M2239.39 158.293 L2247.03 158.293 L2247.03 131.928 L2238.72 133.595 L2238.72 129.335 L2246.99 127.669 L2251.66 127.669 L2251.66 158.293 L2259.3 158.293 L2259.3 162.229 L2239.39 162.229 L2239.39 158.293 Z" fill="#000000" fill-rule="evenodd" fill-opacity="1" /><polyline clip-path="url(#clip430)" style="stroke:#e26f46; stroke-linecap:round; stroke-linejoin:round; stroke-width:4; stroke-opacity:1; fill:none" points="1899.18,196.789 2039.36,196.789 "/>
<path clip-path="url(#clip430)" d="M2069.83 179.509 L2074.51 179.509 L2074.51 211.661 Q2074.51 217.911 2072.13 220.735 Q2069.77 223.559 2064.51 223.559 L2062.73 223.559 L2062.73 219.624 L2064.19 219.624 Q2067.29 219.624 2068.56 217.888 Q2069.83 216.152 2069.83 211.661 L2069.83 179.509 Z" fill="#000000" fill-rule="evenodd" fill-opacity="1" /><path clip-path="url(#clip430)" d="M2103.33 221.939 L2103.33 225.249 L2078.7 225.249 L2078.7 221.939 L2103.33 221.939 Z" fill="#000000" fill-rule="evenodd" fill-opacity="1" /><path clip-path="url(#clip430)" d="M2122.36 192.124 Q2121.64 191.708 2120.78 191.522 Q2119.95 191.314 2118.93 191.314 Q2115.32 191.314 2113.38 193.675 Q2111.45 196.013 2111.45 200.411 L2111.45 214.069 L2107.17 214.069 L2107.17 188.143 L2111.45 188.143 L2111.45 192.171 Q2112.8 189.809 2114.95 188.675 Q2117.1 187.518 2120.18 187.518 Q2120.62 187.518 2121.15 187.587 Q2121.69 187.634 2122.33 187.749 L2122.36 192.124 Z" fill="#000000" fill-rule="evenodd" fill-opacity="1" /><path clip-path="url(#clip430)" d="M2147.96 200.041 L2147.96 202.124 L2128.38 202.124 Q2128.65 206.522 2131.01 208.837 Q2133.4 211.129 2137.64 211.129 Q2140.09 211.129 2142.38 210.527 Q2144.7 209.925 2146.96 208.721 L2146.96 212.749 Q2144.67 213.721 2142.26 214.231 Q2139.86 214.74 2137.38 214.74 Q2131.18 214.74 2127.54 211.129 Q2123.93 207.518 2123.93 201.36 Q2123.93 194.995 2127.36 191.268 Q2130.81 187.518 2136.64 187.518 Q2141.87 187.518 2144.9 190.897 Q2147.96 194.254 2147.96 200.041 M2143.7 198.791 Q2143.65 195.296 2141.73 193.212 Q2139.83 191.129 2136.69 191.129 Q2133.12 191.129 2130.97 193.143 Q2128.84 195.157 2128.52 198.814 L2143.7 198.791 Z" fill="#000000" fill-rule="evenodd" fill-opacity="1" /><path clip-path="url(#clip430)" d="M2154.95 178.05 L2159.21 178.05 L2159.21 214.069 L2154.95 214.069 L2154.95 178.05 Z" fill="#000000" fill-rule="evenodd" fill-opacity="1" /><path clip-path="url(#clip430)" d="M2183.75 192.541 L2213.42 192.541 L2213.42 196.43 L2183.75 196.43 L2183.75 192.541 M2183.75 201.985 L2213.42 201.985 L2213.42 205.921 L2183.75 205.921 L2183.75 201.985 Z" fill="#000000" fill-rule="evenodd" fill-opacity="1" /><path clip-path="url(#clip430)" d="M2242.61 210.133 L2258.93 210.133 L2258.93 214.069 L2236.99 214.069 L2236.99 210.133 Q2239.65 207.379 2244.23 202.749 Q2248.84 198.096 2250.02 196.754 Q2252.26 194.231 2253.14 192.495 Q2254.05 190.735 2254.05 189.046 Q2254.05 186.291 2252.1 184.555 Q2250.18 182.819 2247.08 182.819 Q2244.88 182.819 2242.43 183.583 Q2240 184.347 2237.22 185.897 L2237.22 181.175 Q2240.04 180.041 2242.5 179.462 Q2244.95 178.884 2246.99 178.884 Q2252.36 178.884 2255.55 181.569 Q2258.75 184.254 2258.75 188.745 Q2258.75 190.874 2257.94 192.796 Q2257.15 194.694 2255.04 197.286 Q2254.46 197.958 2251.36 201.175 Q2248.26 204.37 2242.61 210.133 Z" fill="#000000" fill-rule="evenodd" fill-opacity="1" /></svg>
