<?xml version="1.0" encoding="utf-8"?>
<svg xmlns="http://www.w3.org/2000/svg" xmlns:xlink="http://www.w3.org/1999/xlink" width="600" height="400" viewBox="0 0 2400 1600">
<defs>
  <clipPath id="clip190">
    <rect x="0" y="0" width="2400" height="1600"/>
  </clipPath>
</defs>
<path clip-path="url(#clip190)" d="M0 1600 L2400 1600 L2400 0 L0 0  Z" fill="#ffffff" fill-rule="evenodd" fill-opacity="1"/>
<defs>
  <clipPath id="clip191">
    <rect x="480" y="0" width="1681" height="1600"/>
  </clipPath>
</defs>
<path clip-path="url(#clip190)" d="M156.598 1423.18 L2352.76 1423.18 L2352.76 47.2441 L156.598 47.2441  Z" fill="#ffffff" fill-rule="evenodd" fill-opacity="1"/>
<defs>
  <clipPath id="clip192">
    <rect x="156" y="47" width="2197" height="1377"/>
  </clipPath>
</defs>
<polyline clip-path="url(#clip192)" style="stroke:#000000; stroke-linecap:round; stroke-linejoin:round; stroke-width:2; stroke-opacity:0.1; fill:none" points="218.754,1423.18 218.754,47.2441 "/>
<polyline clip-path="url(#clip192)" style="stroke:#000000; stroke-linecap:round; stroke-linejoin:round; stroke-width:2; stroke-opacity:0.1; fill:none" points="548.498,1423.18 548.498,47.2441 "/>
<polyline clip-path="url(#clip192)" style="stroke:#000000; stroke-linecap:round; stroke-linejoin:round; stroke-width:2; stroke-opacity:0.1; fill:none" points="878.243,1423.18 878.243,47.2441 "/>
<polyline clip-path="url(#clip192)" style="stroke:#000000; stroke-linecap:round; stroke-linejoin:round; stroke-width:2; stroke-opacity:0.1; fill:none" points="1207.99,1423.18 1207.99,47.2441 "/>
<polyline clip-path="url(#clip192)" style="stroke:#000000; stroke-linecap:round; stroke-linejoin:round; stroke-width:2; stroke-opacity:0.1; fill:none" points="1537.73,1423.18 1537.73,47.2441 "/>
<polyline clip-path="url(#clip192)" style="stroke:#000000; stroke-linecap:round; stroke-linejoin:round; stroke-width:2; stroke-opacity:0.1; fill:none" points="1867.48,1423.18 1867.48,47.2441 "/>
<polyline clip-path="url(#clip192)" style="stroke:#000000; stroke-linecap:round; stroke-linejoin:round; stroke-width:2; stroke-opacity:0.1; fill:none" points="2197.22,1423.18 2197.22,47.2441 "/>
<polyline clip-path="url(#clip190)" style="stroke:#000000; stroke-linecap:round; stroke-linejoin:round; stroke-width:4; stroke-opacity:1; fill:none" points="156.598,1423.18 2352.76,1423.18 "/>
<polyline clip-path="url(#clip190)" style="stroke:#000000; stroke-linecap:round; stroke-linejoin:round; stroke-width:4; stroke-opacity:1; fill:none" points="218.754,1423.18 218.754,1404.28 "/>
<polyline clip-path="url(#clip190)" style="stroke:#000000; stroke-linecap:round; stroke-linejoin:round; stroke-width:4; stroke-opacity:1; fill:none" points="548.498,1423.18 548.498,1404.28 "/>
<polyline clip-path="url(#clip190)" style="stroke:#000000; stroke-linecap:round; stroke-linejoin:round; stroke-width:4; stroke-opacity:1; fill:none" points="878.243,1423.18 878.243,1404.28 "/>
<polyline clip-path="url(#clip190)" style="stroke:#000000; stroke-linecap:round; stroke-linejoin:round; stroke-width:4; stroke-opacity:1; fill:none" points="1207.99,1423.18 1207.99,1404.28 "/>
<polyline clip-path="url(#clip190)" style="stroke:#000000; stroke-linecap:round; stroke-linejoin:round; stroke-width:4; stroke-opacity:1; fill:none" points="1537.73,1423.18 1537.73,1404.28 "/>
<polyline clip-path="url(#clip190)" style="stroke:#000000; stroke-linecap:round; stroke-linejoin:round; stroke-width:4; stroke-opacity:1; fill:none" points="1867.48,1423.18 1867.48,1404.28 "/>
<polyline clip-path="url(#clip190)" style="stroke:#000000; stroke-linecap:round; stroke-linejoin:round; stroke-width:4; stroke-opacity:1; fill:none" points="2197.22,1423.18 2197.22,1404.28 "/>
<path clip-path="url(#clip190)" d="M218.754 1454.1 Q215.143 1454.1 213.314 1457.66 Q211.508 1461.2 211.508 1468.33 Q211.508 1475.44 213.314 1479.01 Q215.143 1482.55 218.754 1482.55 Q222.388 1482.55 224.193 1479.01 Q226.022 1475.44 226.022 1468.33 Q226.022 1461.2 224.193 1457.66 Q222.388 1454.1 218.754 1454.1 M218.754 1450.39 Q224.564 1450.39 227.619 1455 Q230.698 1459.58 230.698 1468.33 Q230.698 1477.06 227.619 1481.67 Q224.564 1486.25 218.754 1486.25 Q212.943 1486.25 209.865 1481.67 Q206.809 1477.06 206.809 1468.33 Q206.809 1459.58 209.865 1455 Q212.943 1450.39 218.754 1450.39 Z" fill="#000000" fill-rule="evenodd" fill-opacity="1" /><path clip-path="url(#clip190)" d="M538.88 1481.64 L546.519 1481.64 L546.519 1455.28 L538.209 1456.95 L538.209 1452.69 L546.473 1451.02 L551.149 1451.02 L551.149 1481.64 L558.788 1481.64 L558.788 1485.58 L538.88 1485.58 L538.88 1481.64 Z" fill="#000000" fill-rule="evenodd" fill-opacity="1" /><path clip-path="url(#clip190)" d="M872.896 1481.64 L889.215 1481.64 L889.215 1485.58 L867.271 1485.58 L867.271 1481.64 Q869.933 1478.89 874.516 1474.26 Q879.123 1469.61 880.303 1468.27 Q882.549 1465.74 883.428 1464.01 Q884.331 1462.25 884.331 1460.56 Q884.331 1457.8 882.386 1456.07 Q880.465 1454.33 877.363 1454.33 Q875.164 1454.33 872.711 1455.09 Q870.28 1455.86 867.502 1457.41 L867.502 1452.69 Q870.326 1451.55 872.78 1450.97 Q875.234 1450.39 877.271 1450.39 Q882.641 1450.39 885.836 1453.08 Q889.03 1455.77 889.03 1460.26 Q889.03 1462.39 888.22 1464.31 Q887.433 1466.2 885.326 1468.8 Q884.748 1469.47 881.646 1472.69 Q878.544 1475.88 872.896 1481.64 Z" fill="#000000" fill-rule="evenodd" fill-opacity="1" /><path clip-path="url(#clip190)" d="M1212.24 1466.95 Q1215.59 1467.66 1217.47 1469.93 Q1219.36 1472.2 1219.36 1475.53 Q1219.36 1480.65 1215.85 1483.45 Q1212.33 1486.25 1205.85 1486.25 Q1203.67 1486.25 1201.36 1485.81 Q1199.06 1485.39 1196.61 1484.54 L1196.61 1480.02 Q1198.55 1481.16 1200.87 1481.74 Q1203.18 1482.32 1205.71 1482.32 Q1210.11 1482.32 1212.4 1480.58 Q1214.71 1478.84 1214.71 1475.53 Q1214.71 1472.48 1212.56 1470.77 Q1210.43 1469.03 1206.61 1469.03 L1202.58 1469.03 L1202.58 1465.19 L1206.8 1465.19 Q1210.24 1465.19 1212.07 1463.82 Q1213.9 1462.43 1213.9 1459.84 Q1213.9 1457.18 1212 1455.77 Q1210.13 1454.33 1206.61 1454.33 Q1204.69 1454.33 1202.49 1454.75 Q1200.29 1455.16 1197.65 1456.04 L1197.65 1451.88 Q1200.31 1451.14 1202.63 1450.77 Q1204.97 1450.39 1207.03 1450.39 Q1212.35 1450.39 1215.45 1452.83 Q1218.55 1455.23 1218.55 1459.35 Q1218.55 1462.22 1216.91 1464.21 Q1215.27 1466.18 1212.24 1466.95 Z" fill="#000000" fill-rule="evenodd" fill-opacity="1" /><path clip-path="url(#clip190)" d="M1540.74 1455.09 L1528.94 1473.54 L1540.74 1473.54 L1540.74 1455.09 M1539.51 1451.02 L1545.39 1451.02 L1545.39 1473.54 L1550.32 1473.54 L1550.32 1477.43 L1545.39 1477.43 L1545.39 1485.58 L1540.74 1485.58 L1540.74 1477.43 L1525.14 1477.43 L1525.14 1472.92 L1539.51 1451.02 Z" fill="#000000" fill-rule="evenodd" fill-opacity="1" /><path clip-path="url(#clip190)" d="M1857.75 1451.02 L1876.11 1451.02 L1876.11 1454.96 L1862.04 1454.96 L1862.04 1463.43 Q1863.06 1463.08 1864.07 1462.92 Q1865.09 1462.73 1866.11 1462.73 Q1871.9 1462.73 1875.28 1465.9 Q1878.66 1469.08 1878.66 1474.49 Q1878.66 1480.07 1875.19 1483.17 Q1871.71 1486.25 1865.39 1486.25 Q1863.22 1486.25 1860.95 1485.88 Q1858.7 1485.51 1856.3 1484.77 L1856.3 1480.07 Q1858.38 1481.2 1860.6 1481.76 Q1862.82 1482.32 1865.3 1482.32 Q1869.31 1482.32 1871.64 1480.21 Q1873.98 1478.1 1873.98 1474.49 Q1873.98 1470.88 1871.64 1468.77 Q1869.31 1466.67 1865.3 1466.67 Q1863.43 1466.67 1861.55 1467.08 Q1859.7 1467.5 1857.75 1468.38 L1857.75 1451.02 Z" fill="#000000" fill-rule="evenodd" fill-opacity="1" /><path clip-path="url(#clip190)" d="M2197.63 1466.44 Q2194.48 1466.44 2192.63 1468.59 Q2190.8 1470.74 2190.8 1474.49 Q2190.8 1478.22 2192.63 1480.39 Q2194.48 1482.55 2197.63 1482.55 Q2200.77 1482.55 2202.6 1480.39 Q2204.46 1478.22 2204.46 1474.49 Q2204.46 1470.74 2202.6 1468.59 Q2200.77 1466.44 2197.63 1466.44 M2206.91 1451.78 L2206.91 1456.04 Q2205.15 1455.21 2203.34 1454.77 Q2201.56 1454.33 2199.8 1454.33 Q2195.17 1454.33 2192.72 1457.45 Q2190.29 1460.58 2189.94 1466.9 Q2191.31 1464.89 2193.37 1463.82 Q2195.43 1462.73 2197.9 1462.73 Q2203.11 1462.73 2206.12 1465.9 Q2209.15 1469.05 2209.15 1474.49 Q2209.15 1479.82 2206.01 1483.03 Q2202.86 1486.25 2197.63 1486.25 Q2191.63 1486.25 2188.46 1481.67 Q2185.29 1477.06 2185.29 1468.33 Q2185.29 1460.14 2189.18 1455.28 Q2193.07 1450.39 2199.62 1450.39 Q2201.38 1450.39 2203.16 1450.74 Q2204.96 1451.09 2206.91 1451.78 Z" fill="#000000" fill-rule="evenodd" fill-opacity="1" /><path clip-path="url(#clip190)" d="M1238.86 1518.52 L1244.75 1518.52 L1244.75 1547.77 L1262.22 1532.4 L1269.7 1532.4 L1250.79 1549.07 L1270.5 1568.04 L1262.86 1568.04 L1244.75 1550.63 L1244.75 1568.04 L1238.86 1568.04 L1238.86 1518.52 Z" fill="#000000" fill-rule="evenodd" fill-opacity="1" /><polyline clip-path="url(#clip192)" style="stroke:#000000; stroke-linecap:round; stroke-linejoin:round; stroke-width:2; stroke-opacity:0.1; fill:none" points="156.598,1153.09 2352.76,1153.09 "/>
<polyline clip-path="url(#clip192)" style="stroke:#000000; stroke-linecap:round; stroke-linejoin:round; stroke-width:2; stroke-opacity:0.1; fill:none" points="156.598,848.259 2352.76,848.259 "/>
<polyline clip-path="url(#clip192)" style="stroke:#000000; stroke-linecap:round; stroke-linejoin:round; stroke-width:2; stroke-opacity:0.1; fill:none" points="156.598,543.429 2352.76,543.429 "/>
<polyline clip-path="url(#clip192)" style="stroke:#000000; stroke-linecap:round; stroke-linejoin:round; stroke-width:2; stroke-opacity:0.1; fill:none" points="156.598,238.6 2352.76,238.6 "/>
<polyline clip-path="url(#clip190)" style="stroke:#000000; stroke-linecap:round; stroke-linejoin:round; stroke-width:4; stroke-opacity:1; fill:none" points="156.598,1423.18 156.598,47.2441 "/>
<polyline clip-path="url(#clip190)" style="stroke:#000000; stroke-linecap:round; stroke-linejoin:round; stroke-width:4; stroke-opacity:1; fill:none" points="156.598,1153.09 175.496,1153.09 "/>
<polyline clip-path="url(#clip190)" style="stroke:#000000; stroke-linecap:round; stroke-linejoin:round; stroke-width:4; stroke-opacity:1; fill:none" points="156.598,848.259 175.496,848.259 "/>
<polyline clip-path="url(#clip190)" style="stroke:#000000; stroke-linecap:round; stroke-linejoin:round; stroke-width:4; stroke-opacity:1; fill:none" points="156.598,543.429 175.496,543.429 "/>
<polyline clip-path="url(#clip190)" style="stroke:#000000; stroke-linecap:round; stroke-linejoin:round; stroke-width:4; stroke-opacity:1; fill:none" points="156.598,238.6 175.496,238.6 "/>
<path clip-path="url(#clip190)" d="M65.0198 1138.89 Q61.4087 1138.89 59.58 1142.45 Q57.7745 1145.99 57.7745 1153.12 Q57.7745 1160.23 59.58 1163.79 Q61.4087 1167.34 65.0198 1167.34 Q68.6541 1167.34 70.4596 1163.79 Q72.2883 1160.23 72.2883 1153.12 Q72.2883 1145.99 70.4596 1142.45 Q68.6541 1138.89 65.0198 1138.89 M65.0198 1135.18 Q70.83 1135.18 73.8855 1139.79 Q76.9642 1144.37 76.9642 1153.12 Q76.9642 1161.85 73.8855 1166.46 Q70.83 1171.04 65.0198 1171.04 Q59.2097 1171.04 56.131 1166.46 Q53.0754 1161.85 53.0754 1153.12 Q53.0754 1144.37 56.131 1139.79 Q59.2097 1135.18 65.0198 1135.18 Z" fill="#000000" fill-rule="evenodd" fill-opacity="1" /><path clip-path="url(#clip190)" d="M85.1818 1164.49 L90.066 1164.49 L90.066 1170.37 L85.1818 1170.37 L85.1818 1164.49 Z" fill="#000000" fill-rule="evenodd" fill-opacity="1" /><path clip-path="url(#clip190)" d="M104.279 1166.43 L120.598 1166.43 L120.598 1170.37 L98.6539 1170.37 L98.6539 1166.43 Q101.316 1163.68 105.899 1159.05 Q110.506 1154.4 111.686 1153.05 Q113.932 1150.53 114.811 1148.79 Q115.714 1147.03 115.714 1145.34 Q115.714 1142.59 113.77 1140.85 Q111.848 1139.12 108.746 1139.12 Q106.547 1139.12 104.094 1139.88 Q101.663 1140.65 98.8854 1142.2 L98.8854 1137.47 Q101.709 1136.34 104.163 1135.76 Q106.617 1135.18 108.654 1135.18 Q114.024 1135.18 117.219 1137.87 Q120.413 1140.55 120.413 1145.04 Q120.413 1147.17 119.603 1149.09 Q118.816 1150.99 116.709 1153.59 Q116.131 1154.26 113.029 1157.47 Q109.927 1160.67 104.279 1166.43 Z" fill="#000000" fill-rule="evenodd" fill-opacity="1" /><path clip-path="url(#clip190)" d="M62.9365 834.057 Q59.3254 834.057 57.4967 837.622 Q55.6912 841.164 55.6912 848.293 Q55.6912 855.4 57.4967 858.965 Q59.3254 862.506 62.9365 862.506 Q66.5707 862.506 68.3763 858.965 Q70.205 855.4 70.205 848.293 Q70.205 841.164 68.3763 837.622 Q66.5707 834.057 62.9365 834.057 M62.9365 830.354 Q68.7467 830.354 71.8022 834.96 Q74.8809 839.543 74.8809 848.293 Q74.8809 857.02 71.8022 861.627 Q68.7467 866.21 62.9365 866.21 Q57.1264 866.21 54.0477 861.627 Q50.9921 857.02 50.9921 848.293 Q50.9921 839.543 54.0477 834.96 Q57.1264 830.354 62.9365 830.354 Z" fill="#000000" fill-rule="evenodd" fill-opacity="1" /><path clip-path="url(#clip190)" d="M83.0984 859.659 L87.9827 859.659 L87.9827 865.539 L83.0984 865.539 L83.0984 859.659 Z" fill="#000000" fill-rule="evenodd" fill-opacity="1" /><path clip-path="url(#clip190)" d="M111.015 835.053 L99.2095 853.502 L111.015 853.502 L111.015 835.053 M109.788 830.979 L115.668 830.979 L115.668 853.502 L120.598 853.502 L120.598 857.39 L115.668 857.39 L115.668 865.539 L111.015 865.539 L111.015 857.39 L95.4132 857.39 L95.4132 852.877 L109.788 830.979 Z" fill="#000000" fill-rule="evenodd" fill-opacity="1" /><path clip-path="url(#clip190)" d="M63.2606 529.228 Q59.6495 529.228 57.8208 532.793 Q56.0152 536.335 56.0152 543.464 Q56.0152 550.571 57.8208 554.135 Q59.6495 557.677 63.2606 557.677 Q66.8948 557.677 68.7004 554.135 Q70.5291 550.571 70.5291 543.464 Q70.5291 536.335 68.7004 532.793 Q66.8948 529.228 63.2606 529.228 M63.2606 525.524 Q69.0707 525.524 72.1263 530.131 Q75.205 534.714 75.205 543.464 Q75.205 552.191 72.1263 556.797 Q69.0707 561.381 63.2606 561.381 Q57.4504 561.381 54.3717 556.797 Q51.3162 552.191 51.3162 543.464 Q51.3162 534.714 54.3717 530.131 Q57.4504 525.524 63.2606 525.524 Z" fill="#000000" fill-rule="evenodd" fill-opacity="1" /><path clip-path="url(#clip190)" d="M83.4225 554.83 L88.3067 554.83 L88.3067 560.709 L83.4225 560.709 L83.4225 554.83 Z" fill="#000000" fill-rule="evenodd" fill-opacity="1" /><path clip-path="url(#clip190)" d="M109.071 541.566 Q105.922 541.566 104.071 543.719 Q102.242 545.872 102.242 549.622 Q102.242 553.348 104.071 555.524 Q105.922 557.677 109.071 557.677 Q112.219 557.677 114.047 555.524 Q115.899 553.348 115.899 549.622 Q115.899 545.872 114.047 543.719 Q112.219 541.566 109.071 541.566 M118.353 526.913 L118.353 531.173 Q116.594 530.339 114.788 529.899 Q113.006 529.46 111.246 529.46 Q106.617 529.46 104.163 532.585 Q101.733 535.71 101.385 542.029 Q102.751 540.015 104.811 538.95 Q106.871 537.862 109.348 537.862 Q114.557 537.862 117.566 541.034 Q120.598 544.182 120.598 549.622 Q120.598 554.946 117.45 558.163 Q114.302 561.381 109.071 561.381 Q103.075 561.381 99.9039 556.797 Q96.7326 552.191 96.7326 543.464 Q96.7326 535.27 100.621 530.409 Q104.51 525.524 111.061 525.524 Q112.82 525.524 114.603 525.872 Q116.408 526.219 118.353 526.913 Z" fill="#000000" fill-rule="evenodd" fill-opacity="1" /><path clip-path="url(#clip190)" d="M63.5152 224.399 Q59.9041 224.399 58.0754 227.964 Q56.2699 231.505 56.2699 238.635 Q56.2699 245.741 58.0754 249.306 Q59.9041 252.848 63.5152 252.848 Q67.1494 252.848 68.955 249.306 Q70.7837 245.741 70.7837 238.635 Q70.7837 231.505 68.955 227.964 Q67.1494 224.399 63.5152 224.399 M63.5152 220.695 Q69.3254 220.695 72.3809 225.302 Q75.4596 229.885 75.4596 238.635 Q75.4596 247.362 72.3809 251.968 Q69.3254 256.552 63.5152 256.552 Q57.7051 256.552 54.6264 251.968 Q51.5708 247.362 51.5708 238.635 Q51.5708 229.885 54.6264 225.302 Q57.7051 220.695 63.5152 220.695 Z" fill="#000000" fill-rule="evenodd" fill-opacity="1" /><path clip-path="url(#clip190)" d="M83.6771 250.001 L88.5614 250.001 L88.5614 255.88 L83.6771 255.88 L83.6771 250.001 Z" fill="#000000" fill-rule="evenodd" fill-opacity="1" /><path clip-path="url(#clip190)" d="M108.746 239.468 Q105.413 239.468 103.492 241.251 Q101.594 243.033 101.594 246.158 Q101.594 249.283 103.492 251.065 Q105.413 252.848 108.746 252.848 Q112.08 252.848 114.001 251.065 Q115.922 249.26 115.922 246.158 Q115.922 243.033 114.001 241.251 Q112.103 239.468 108.746 239.468 M104.071 237.478 Q101.061 236.737 99.3715 234.677 Q97.7048 232.616 97.7048 229.654 Q97.7048 225.51 100.645 223.103 Q103.608 220.695 108.746 220.695 Q113.908 220.695 116.848 223.103 Q119.788 225.51 119.788 229.654 Q119.788 232.616 118.098 234.677 Q116.432 236.737 113.445 237.478 Q116.825 238.265 118.7 240.556 Q120.598 242.848 120.598 246.158 Q120.598 251.181 117.52 253.866 Q114.464 256.552 108.746 256.552 Q103.029 256.552 99.9502 253.866 Q96.8947 251.181 96.8947 246.158 Q96.8947 242.848 98.7928 240.556 Q100.691 238.265 104.071 237.478 M102.358 230.093 Q102.358 232.779 104.024 234.283 Q105.714 235.788 108.746 235.788 Q111.756 235.788 113.445 234.283 Q115.158 232.779 115.158 230.093 Q115.158 227.408 113.445 225.904 Q111.756 224.399 108.746 224.399 Q105.714 224.399 104.024 225.904 Q102.358 227.408 102.358 230.093 Z" fill="#000000" fill-rule="evenodd" fill-opacity="1" /><polyline clip-path="url(#clip192)" style="stroke:#009af9; stroke-linecap:round; stroke-linejoin:round; stroke-width:4; stroke-opacity:1; fill:none" points="218.754,1078.54 222.126,1078.55 225.498,1078.57 228.87,1078.6 232.242,1078.64 247.833,1079 263.423,1079.63 279.014,1080.52 294.604,1081.67 310.195,1083.09 325.785,1084.76 341.376,1086.69 356.966,1088.88 375.705,1091.85 394.443,1095.17 413.182,1098.85 431.92,1102.88 447.763,1106.56 463.607,1110.47 479.45,1114.62 495.293,1119 512.503,1124.01 529.713,1129.27 546.923,1134.79 564.133,1140.55 579.999,1146.06 595.866,1151.75 611.732,1157.63 627.598,1163.68 661.618,1177.19 695.639,1191.36 735.055,1208.45 774.471,1226.09 844.528,1258.18 905.961,1286.21 939.45,1301.06 972.94,1315.37 989.784,1322.3 1006.63,1329.01 1023.47,1335.48 1040.32,1341.68 1058.94,1348.18 1077.56,1354.26 1096.19,1359.9 1114.81,1365.04 1132.53,1369.44 1150.25,1373.32 1167.97,1376.65 1185.69,1379.41 1204.11,1381.64 1222.54,1383.2 1240.96,1384.07 1259.39,1384.24 1274.9,1383.84 1290.41,1382.95 1305.92,1381.57 1321.42,1379.72 1340.36,1376.83 1359.3,1373.28 1378.23,1369.11 1397.17,1364.35 1414.51,1359.51 1431.86,1354.24 1449.2,1348.59 1466.55,1342.57 1482.57,1336.72 1498.59,1330.63 1514.61,1324.3 1530.63,1317.77 1563.09,1304.03 1595.54,1289.73 1668.29,1256.59 1734.21,1226.39 1771.95,1209.48 1809.69,1193.07 1844.63,1178.46 1879.57,1164.53 1914.02,1151.56 1948.47,1139.44 1965.19,1133.89 1981.92,1128.56 1998.64,1123.48 2015.36,1118.63 2032.51,1113.92 2049.65,1109.48 2066.79,1105.32 2083.94,1101.44 2102.72,1097.53 2121.5,1093.96 2140.29,1090.75 2159.07,1087.91 2186.35,1084.44 2213.64,1081.76 2240.92,1079.89 2268.21,1078.82 2273.81,1078.7 2279.41,1078.61 2285,1078.56 2290.6,1078.54 "/>
<polyline clip-path="url(#clip192)" style="stroke:#e26f46; stroke-linecap:round; stroke-linejoin:round; stroke-width:4; stroke-opacity:1; fill:none" points="218.754,86.1857 222.126,86.2176 225.498,86.3132 228.87,86.4726 232.242,86.6957 247.833,88.5548 263.423,91.7712 279.014,96.3378 294.604,102.244 310.195,109.477 325.785,118.021 341.376,127.856 356.966,138.961 375.705,153.952 394.443,170.693 413.182,189.13 431.92,209.202 447.763,227.401 463.607,246.682 479.45,266.999 495.293,288.306 512.503,312.515 529.713,337.769 546.923,363.997 564.133,391.13 595.866,443.277 627.598,497.761 695.639,620.095 774.471,765.497 809.499,829.323 844.528,891.643 875.244,944.499 905.961,995.199 922.706,1021.77 939.45,1047.5 956.195,1072.33 972.94,1096.18 989.784,1119.14 1006.63,1140.99 1023.47,1161.68 1040.32,1181.15 1058.94,1201.21 1077.56,1219.65 1096.19,1236.43 1114.81,1251.48 1132.53,1264.15 1150.25,1275.18 1167.97,1284.55 1185.69,1292.21 1204.11,1298.35 1222.54,1302.61 1240.96,1304.98 1259.39,1305.44 1274.9,1304.36 1290.41,1301.93 1305.92,1298.16 1321.42,1293.05 1340.36,1285.04 1359.3,1275.07 1378.23,1263.2 1397.17,1249.46 1414.51,1235.27 1431.86,1219.59 1449.2,1202.46 1466.55,1183.92 1482.57,1165.61 1498.59,1146.18 1514.61,1125.69 1530.63,1104.19 1546.86,1081.42 1563.09,1057.72 1579.31,1033.15 1595.54,1007.76 1631.92,948.196 1668.29,885.567 1701.25,826.801 1734.21,766.728 1809.69,627.487 1879.57,501.584 1914.02,442.381 1948.47,385.942 1965.19,359.725 1981.92,334.372 1998.64,309.949 2015.36,286.518 2032.51,263.592 2049.65,241.833 2066.79,221.302 2083.94,202.053 2102.72,182.497 2121.5,164.607 2140.29,148.439 2159.07,134.048 2172.71,124.735 2186.35,116.399 2200,109.055 2213.64,102.715 2240.92,93.0907 2268.21,87.5906 2273.81,86.9761 2279.41,86.537 2285,86.2735 2290.6,86.1857 "/>
<path clip-path="url(#clip190)" d="M1829.61 1377.32 L2279.55 1377.32 L2279.55 1221.8 L1829.61 1221.8  Z" fill="#ffffff" fill-rule="evenodd" fill-opacity="1"/>
<polyline clip-path="url(#clip190)" style="stroke:#000000; stroke-linecap:round; stroke-linejoin:round; stroke-width:4; stroke-opacity:1; fill:none" points="1829.61,1377.32 2279.55,1377.32 2279.55,1221.8 1829.61,1221.8 1829.61,1377.32 "/>
<polyline clip-path="url(#clip190)" style="stroke:#009af9; stroke-linecap:round; stroke-linejoin:round; stroke-width:4; stroke-opacity:1; fill:none" points="1854.01,1273.64 2000.42,1273.64 "/>
<path clip-path="url(#clip190)" d="M2024.83 1254.9 L2029.09 1254.9 L2029.09 1290.92 L2024.83 1290.92 L2024.83 1254.9 Z" fill="#000000" fill-rule="evenodd" fill-opacity="1" /><path clip-path="url(#clip190)" d="M2049.78 1277.88 Q2044.62 1277.88 2042.63 1279.06 Q2040.64 1280.24 2040.64 1283.09 Q2040.64 1285.36 2042.12 1286.7 Q2043.62 1288.02 2046.19 1288.02 Q2049.73 1288.02 2051.86 1285.52 Q2054.02 1283 2054.02 1278.83 L2054.02 1277.88 L2049.78 1277.88 M2058.27 1276.12 L2058.27 1290.92 L2054.02 1290.92 L2054.02 1286.98 Q2052.56 1289.34 2050.38 1290.48 Q2048.21 1291.59 2045.06 1291.59 Q2041.08 1291.59 2038.71 1289.36 Q2036.38 1287.12 2036.38 1283.37 Q2036.38 1278.99 2039.29 1276.77 Q2042.23 1274.55 2048.04 1274.55 L2054.02 1274.55 L2054.02 1274.13 Q2054.02 1271.19 2052.07 1269.6 Q2050.15 1267.98 2046.65 1267.98 Q2044.43 1267.98 2042.33 1268.51 Q2040.22 1269.04 2038.28 1270.11 L2038.28 1266.17 Q2040.61 1265.27 2042.81 1264.83 Q2045.01 1264.36 2047.09 1264.36 Q2052.72 1264.36 2055.5 1267.28 Q2058.27 1270.2 2058.27 1276.12 Z" fill="#000000" fill-rule="evenodd" fill-opacity="1" /><path clip-path="url(#clip190)" d="M2087.23 1269.97 Q2088.83 1267.1 2091.05 1265.73 Q2093.27 1264.36 2096.28 1264.36 Q2100.33 1264.36 2102.53 1267.21 Q2104.73 1270.04 2104.73 1275.27 L2104.73 1290.92 L2100.45 1290.92 L2100.45 1275.41 Q2100.45 1271.68 2099.13 1269.87 Q2097.81 1268.07 2095.1 1268.07 Q2091.79 1268.07 2089.87 1270.27 Q2087.95 1272.47 2087.95 1276.26 L2087.95 1290.92 L2083.67 1290.92 L2083.67 1275.41 Q2083.67 1271.66 2082.35 1269.87 Q2081.03 1268.07 2078.27 1268.07 Q2075.01 1268.07 2073.09 1270.29 Q2071.17 1272.49 2071.17 1276.26 L2071.17 1290.92 L2066.89 1290.92 L2066.89 1264.99 L2071.17 1264.99 L2071.17 1269.02 Q2072.63 1266.63 2074.66 1265.5 Q2076.7 1264.36 2079.5 1264.36 Q2082.33 1264.36 2084.29 1265.8 Q2086.28 1267.23 2087.23 1269.97 Z" fill="#000000" fill-rule="evenodd" fill-opacity="1" /><path clip-path="url(#clip190)" d="M2131.84 1277.98 Q2131.84 1273.28 2129.89 1270.61 Q2127.97 1267.93 2124.59 1267.93 Q2121.21 1267.93 2119.27 1270.61 Q2117.35 1273.28 2117.35 1277.98 Q2117.35 1282.67 2119.27 1285.36 Q2121.21 1288.02 2124.59 1288.02 Q2127.97 1288.02 2129.89 1285.36 Q2131.84 1282.67 2131.84 1277.98 M2117.35 1268.92 Q2118.69 1266.61 2120.73 1265.5 Q2122.79 1264.36 2125.64 1264.36 Q2130.36 1264.36 2133.3 1268.11 Q2136.26 1271.86 2136.26 1277.98 Q2136.26 1284.09 2133.3 1287.84 Q2130.36 1291.59 2125.64 1291.59 Q2122.79 1291.59 2120.73 1290.48 Q2118.69 1289.34 2117.35 1287.03 L2117.35 1290.92 L2113.07 1290.92 L2113.07 1254.9 L2117.35 1254.9 L2117.35 1268.92 Z" fill="#000000" fill-rule="evenodd" fill-opacity="1" /><path clip-path="url(#clip190)" d="M2174.92 1265.75 L2174.92 1269.78 Q2173.11 1268.86 2171.17 1268.39 Q2169.22 1267.93 2167.14 1267.93 Q2163.97 1267.93 2162.37 1268.9 Q2160.8 1269.87 2160.8 1271.82 Q2160.8 1273.3 2161.93 1274.16 Q2163.07 1274.99 2166.49 1275.75 L2167.95 1276.08 Q2172.49 1277.05 2174.39 1278.83 Q2176.31 1280.59 2176.31 1283.76 Q2176.31 1287.37 2173.44 1289.48 Q2170.59 1291.59 2165.59 1291.59 Q2163.51 1291.59 2161.24 1291.17 Q2158.99 1290.78 2156.49 1289.97 L2156.49 1285.57 Q2158.85 1286.79 2161.14 1287.42 Q2163.44 1288.02 2165.68 1288.02 Q2168.69 1288.02 2170.31 1287 Q2171.93 1285.96 2171.93 1284.09 Q2171.93 1282.35 2170.75 1281.42 Q2169.59 1280.5 2165.64 1279.64 L2164.15 1279.3 Q2160.2 1278.46 2158.44 1276.75 Q2156.68 1275.01 2156.68 1272 Q2156.68 1268.35 2159.27 1266.36 Q2161.86 1264.36 2166.63 1264.36 Q2168.99 1264.36 2171.08 1264.71 Q2173.16 1265.06 2174.92 1265.75 Z" fill="#000000" fill-rule="evenodd" fill-opacity="1" /><path clip-path="url(#clip190)" d="M2204.64 1275.27 L2204.64 1290.92 L2200.38 1290.92 L2200.38 1275.41 Q2200.38 1271.73 2198.95 1269.9 Q2197.51 1268.07 2194.64 1268.07 Q2191.19 1268.07 2189.2 1270.27 Q2187.21 1272.47 2187.21 1276.26 L2187.21 1290.92 L2182.93 1290.92 L2182.93 1254.9 L2187.21 1254.9 L2187.21 1269.02 Q2188.74 1266.68 2190.8 1265.52 Q2192.88 1264.36 2195.59 1264.36 Q2200.06 1264.36 2202.35 1267.14 Q2204.64 1269.9 2204.64 1275.27 Z" fill="#000000" fill-rule="evenodd" fill-opacity="1" /><path clip-path="url(#clip190)" d="M2213.14 1264.99 L2217.39 1264.99 L2217.39 1290.92 L2213.14 1290.92 L2213.14 1264.99 M2213.14 1254.9 L2217.39 1254.9 L2217.39 1260.29 L2213.14 1260.29 L2213.14 1254.9 Z" fill="#000000" fill-rule="evenodd" fill-opacity="1" /><path clip-path="url(#clip190)" d="M2239.43 1254.9 L2239.43 1258.44 L2235.36 1258.44 Q2233.07 1258.44 2232.16 1259.36 Q2231.28 1260.29 2231.28 1262.7 L2231.28 1264.99 L2238.3 1264.99 L2238.3 1268.3 L2231.28 1268.3 L2231.28 1290.92 L2227 1290.92 L2227 1268.3 L2222.93 1268.3 L2222.93 1264.99 L2227 1264.99 L2227 1263.18 Q2227 1258.86 2229.01 1256.89 Q2231.03 1254.9 2235.4 1254.9 L2239.43 1254.9 Z" fill="#000000" fill-rule="evenodd" fill-opacity="1" /><path clip-path="url(#clip190)" d="M2246.38 1257.63 L2246.38 1264.99 L2255.15 1264.99 L2255.15 1268.3 L2246.38 1268.3 L2246.38 1282.37 Q2246.38 1285.54 2247.23 1286.45 Q2248.11 1287.35 2250.77 1287.35 L2255.15 1287.35 L2255.15 1290.92 L2250.77 1290.92 Q2245.84 1290.92 2243.97 1289.09 Q2242.09 1287.23 2242.09 1282.37 L2242.09 1268.3 L2238.97 1268.3 L2238.97 1264.99 L2242.09 1264.99 L2242.09 1257.63 L2246.38 1257.63 Z" fill="#000000" fill-rule="evenodd" fill-opacity="1" /><polyline clip-path="url(#clip190)" style="stroke:#e26f46; stroke-linecap:round; stroke-linejoin:round; stroke-width:4; stroke-opacity:1; fill:none" points="1854.01,1325.48 2000.42,1325.48 "/>
<path clip-path="url(#clip190)" d="M2024.83 1316.83 L2029.34 1316.83 L2037.44 1338.59 L2045.54 1316.83 L2050.06 1316.83 L2040.34 1342.76 L2034.55 1342.76 L2024.83 1316.83 Z" fill="#000000" fill-rule="evenodd" fill-opacity="1" /><path clip-path="url(#clip190)" d="M2066.17 1306.78 Q2063.07 1312.11 2061.56 1317.32 Q2060.06 1322.52 2060.06 1327.87 Q2060.06 1333.22 2061.56 1338.47 Q2063.09 1343.7 2066.17 1349.01 L2062.46 1349.01 Q2058.99 1343.57 2057.26 1338.31 Q2055.54 1333.06 2055.54 1327.87 Q2055.54 1322.71 2057.26 1317.48 Q2058.97 1312.25 2062.46 1306.78 L2066.17 1306.78 Z" fill="#000000" fill-rule="evenodd" fill-opacity="1" /><path clip-path="url(#clip190)" d="M2074.27 1306.74 L2078.55 1306.74 L2078.55 1328.01 L2091.26 1316.83 L2096.7 1316.83 L2082.95 1328.96 L2097.28 1342.76 L2091.72 1342.76 L2078.55 1330.09 L2078.55 1342.76 L2074.27 1342.76 L2074.27 1306.74 Z" fill="#000000" fill-rule="evenodd" fill-opacity="1" /><path clip-path="url(#clip190)" d="M2101.21 1306.78 L2104.92 1306.78 Q2108.39 1312.25 2110.1 1317.48 Q2111.84 1322.71 2111.84 1327.87 Q2111.84 1333.06 2110.1 1338.31 Q2108.39 1343.57 2104.92 1349.01 L2101.21 1349.01 Q2104.29 1343.7 2105.8 1338.47 Q2107.33 1333.22 2107.33 1327.87 Q2107.33 1322.52 2105.8 1317.32 Q2104.29 1312.11 2101.21 1306.78 Z" fill="#000000" fill-rule="evenodd" fill-opacity="1" /></svg>
