<?xml version="1.0" encoding="utf-8"?>
<svg xmlns="http://www.w3.org/2000/svg" xmlns:xlink="http://www.w3.org/1999/xlink" width="600" height="400" viewBox="0 0 2400 1600">
<defs>
  <clipPath id="clip410">
    <rect x="0" y="0" width="2400" height="1600"/>
  </clipPath>
</defs>
<path clip-path="url(#clip410)" d="M0 1600 L2400 1600 L2400 0 L0 0  Z" fill="#ffffff" fill-rule="evenodd" fill-opacity="1"/>
<defs>
  <clipPath id="clip411">
    <rect x="480" y="0" width="1681" height="1600"/>
  </clipPath>
</defs>
<path clip-path="url(#clip410)" d="M249.542 1423.18 L2352.76 1423.18 L2352.76 47.2441 L249.542 47.2441  Z" fill="#ffffff" fill-rule="evenodd" fill-opacity="1"/>
<defs>
  <clipPath id="clip412">
    <rect x="249" y="47" width="2104" height="1377"/>
  </clipPath>
</defs>
<polyline clip-path="url(#clip412)" style="stroke:#000000; stroke-linecap:round; stroke-linejoin:round; stroke-width:2; stroke-opacity:0.1; fill:none" points="-7749,1423.18 -7749,47.2441 "/>
<polyline clip-path="url(#clip412)" style="stroke:#000000; stroke-linecap:round; stroke-linejoin:round; stroke-width:2; stroke-opacity:0.1; fill:none" points="512.444,1423.18 512.444,47.2441 "/>
<polyline clip-path="url(#clip412)" style="stroke:#000000; stroke-linecap:round; stroke-linejoin:round; stroke-width:2; stroke-opacity:0.1; fill:none" points="10502.7,1423.18 10502.7,47.2441 "/>
<polyline clip-path="url(#clip412)" style="stroke:#000000; stroke-linecap:round; stroke-linejoin:round; stroke-width:2; stroke-opacity:0.1; fill:none" points="512.444,1423.18 512.444,47.2441 "/>
<polyline clip-path="url(#clip412)" style="stroke:#000000; stroke-linecap:round; stroke-linejoin:round; stroke-width:2; stroke-opacity:0.1; fill:none" points="853.917,1423.18 853.917,47.2441 "/>
<polyline clip-path="url(#clip412)" style="stroke:#000000; stroke-linecap:round; stroke-linejoin:round; stroke-width:2; stroke-opacity:0.1; fill:none" points="1334.07,1423.18 1334.07,47.2441 "/>
<polyline clip-path="url(#clip412)" style="stroke:#000000; stroke-linecap:round; stroke-linejoin:round; stroke-width:2; stroke-opacity:0.1; fill:none" points="-7749,1423.18 -7749,47.2441 "/>
<polyline clip-path="url(#clip412)" style="stroke:#000000; stroke-linecap:round; stroke-linejoin:round; stroke-width:2; stroke-opacity:0.1; fill:none" points="-7407.53,1423.18 -7407.53,47.2441 "/>
<polyline clip-path="url(#clip412)" style="stroke:#000000; stroke-linecap:round; stroke-linejoin:round; stroke-width:2; stroke-opacity:0.1; fill:none" points="-6927.38,1423.18 -6927.38,47.2441 "/>
<polyline clip-path="url(#clip410)" style="stroke:#000000; stroke-linecap:round; stroke-linejoin:round; stroke-width:4; stroke-opacity:1; fill:none" points="249.542,1423.18 2352.76,1423.18 "/>
<polyline clip-path="url(#clip410)" style="stroke:#000000; stroke-linecap:round; stroke-linejoin:round; stroke-width:4; stroke-opacity:1; fill:none" points="-7749,1423.18 -7749,1404.28 "/>
<polyline clip-path="url(#clip410)" style="stroke:#000000; stroke-linecap:round; stroke-linejoin:round; stroke-width:4; stroke-opacity:1; fill:none" points="512.444,1423.18 512.444,1404.28 "/>
<polyline clip-path="url(#clip410)" style="stroke:#000000; stroke-linecap:round; stroke-linejoin:round; stroke-width:4; stroke-opacity:1; fill:none" points="10502.7,1423.18 10502.7,1404.28 "/>
<polyline clip-path="url(#clip410)" style="stroke:#000000; stroke-linecap:round; stroke-linejoin:round; stroke-width:4; stroke-opacity:1; fill:none" points="512.444,1423.18 512.444,1404.28 "/>
<polyline clip-path="url(#clip410)" style="stroke:#000000; stroke-linecap:round; stroke-linejoin:round; stroke-width:4; stroke-opacity:1; fill:none" points="853.917,1423.18 853.917,1404.28 "/>
<polyline clip-path="url(#clip410)" style="stroke:#000000; stroke-linecap:round; stroke-linejoin:round; stroke-width:4; stroke-opacity:1; fill:none" points="1334.07,1423.18 1334.07,1404.28 "/>
<polyline clip-path="url(#clip410)" style="stroke:#000000; stroke-linecap:round; stroke-linejoin:round; stroke-width:4; stroke-opacity:1; fill:none" points="-7749,1423.18 -7749,1404.28 "/>
<polyline clip-path="url(#clip410)" style="stroke:#000000; stroke-linecap:round; stroke-linejoin:round; stroke-width:4; stroke-opacity:1; fill:none" points="-7407.53,1423.18 -7407.53,1404.28 "/>
<polyline clip-path="url(#clip410)" style="stroke:#000000; stroke-linecap:round; stroke-linejoin:round; stroke-width:4; stroke-opacity:1; fill:none" points="-6927.38,1423.18 -6927.38,1404.28 "/>
<path clip-path="url(#clip410)" d="M-7797.79 1445.55 Q-7797.79 1445.9 -7798.05 1446.41 Q-7798.28 1446.88 -7798.78 1447.19 Q-7799.24 1447.47 -7799.76 1447.47 Q-7799.92 1447.47 -7800.3 1447.37 Q-7800.93 1447.09 -7801.91 1446.46 Q-7802.9 1445.83 -7803.79 1445.43 Q-7804.66 1445.01 -7805.62 1444.96 Q-7806.46 1444.96 -7807.16 1445.27 Q-7807.79 1445.62 -7808.22 1446.37 Q-7808.4 1446.67 -7808.4 1447.19 Q-7808.4 1447.91 -7808 1448.87 Q-7807.61 1449.83 -7806.79 1451.08 Q-7805.94 1452.32 -7805.33 1453.16 Q-7804.73 1453.98 -7803.67 1455.34 Q-7803.58 1455.46 -7803.53 1455.53 Q-7803.48 1455.57 -7803.41 1455.69 Q-7803.34 1455.78 -7803.27 1455.85 Q-7801.05 1458.64 -7800.49 1461.71 Q-7800.35 1462.79 -7800.35 1463.91 Q-7800.35 1466.16 -7801.02 1468.81 Q-7801.61 1471.22 -7802.85 1473.3 Q-7804.09 1475.36 -7805.97 1476.72 Q-7807.82 1478.08 -7809.83 1478.08 Q-7811.82 1478.08 -7813.46 1477.21 Q-7815.1 1476.32 -7816.09 1474.8 Q-7817.42 1472.79 -7817.42 1470 Q-7817.42 1468.43 -7817.05 1467.1 Q-7816.53 1464.96 -7815.31 1463 Q-7814.09 1461.03 -7812.34 1459.51 Q-7809.67 1457.26 -7806.76 1456.63 Q-7808.12 1454.05 -7808.92 1452.06 Q-7809.69 1450.04 -7809.69 1448.33 Q-7809.69 1446.84 -7809.13 1445.88 Q-7808.64 1444.84 -7807.63 1444.26 Q-7806.79 1443.74 -7805.57 1443.49 Q-7804.82 1443.39 -7804.33 1443.39 Q-7802.66 1443.39 -7798.8 1444.31 Q-7797.79 1444.54 -7797.79 1445.55 M-7803.65 1465.83 Q-7803.65 1464.4 -7803.88 1463.44 Q-7804.33 1461.1 -7806.11 1457.87 L-7806.25 1457.63 Q-7808.52 1458.29 -7810.37 1460.28 Q-7812.69 1462.72 -7813.86 1467.33 Q-7814.49 1469.91 -7814.49 1471.36 Q-7814.49 1472.93 -7813.91 1474.29 Q-7813.34 1475.55 -7812.29 1476.28 Q-7811.21 1477 -7809.78 1477 Q-7808.71 1477 -7807.77 1476.39 Q-7806.83 1475.76 -7806.15 1474.66 Q-7805.47 1473.56 -7805.01 1472.37 Q-7804.51 1471.15 -7804.14 1469.72 Q-7803.65 1467.8 -7803.65 1465.83 Z" fill="#000000" fill-rule="nonzero" fill-opacity="1" /><path clip-path="url(#clip410)" d="M-7751.37 1464.87 Q-7751.08 1465.15 -7751.08 1465.55 Q-7751.08 1465.95 -7751.37 1466.23 Q-7751.65 1466.51 -7752.05 1466.51 L-7782.07 1466.51 Q-7782.47 1466.51 -7782.75 1466.23 Q-7783.03 1465.95 -7783.03 1465.55 Q-7783.03 1465.15 -7782.75 1464.87 Q-7782.47 1464.59 -7782.07 1464.59 L-7752.05 1464.59 Q-7751.65 1464.59 -7751.37 1464.87 Z" fill="#000000" fill-rule="nonzero" fill-opacity="1" /><path clip-path="url(#clip410)" d="M-7713.43 1458.55 Q-7713.43 1459.04 -7713.86 1459.44 Q-7714.25 1459.84 -7714.75 1459.84 Q-7715.03 1459.84 -7715.71 1459.37 Q-7717.65 1458.01 -7720.11 1458.01 Q-7722.31 1458.01 -7724.35 1458.55 Q-7726.39 1459.09 -7727.77 1460.19 Q-7729.13 1461.26 -7729.13 1462.67 Q-7729.13 1464.43 -7727.21 1465.46 Q-7725.22 1464.54 -7722.76 1464.54 Q-7721.96 1464.54 -7721.42 1464.59 Q-7720.86 1464.64 -7720.32 1464.75 Q-7719.78 1464.87 -7719.52 1465.15 Q-7719.24 1465.41 -7719.24 1465.83 Q-7719.24 1467.33 -7723.13 1467.33 Q-7725.66 1467.33 -7727.25 1466.65 Q-7729.29 1467.66 -7730.42 1469.27 Q-7731.54 1470.89 -7731.54 1472.27 Q-7731.54 1473.47 -7730.88 1474.33 Q-7730.2 1475.2 -7729.1 1475.62 Q-7727.98 1476.04 -7726.88 1476.23 Q-7725.75 1476.39 -7724.51 1476.39 Q-7722.48 1476.39 -7721.05 1476.14 Q-7719.59 1475.86 -7718.8 1475.34 Q-7717.98 1474.83 -7717.65 1474.47 Q-7717.3 1474.1 -7716.95 1473.51 Q-7716.74 1473.19 -7716.46 1473.19 Q-7716.24 1473.19 -7716.1 1473.33 Q-7715.94 1473.44 -7715.94 1473.65 Q-7715.94 1473.91 -7716.27 1474.45 Q-7716.57 1474.99 -7717.32 1475.72 Q-7718.05 1476.42 -7719.06 1477.07 Q-7720.04 1477.71 -7721.61 1478.15 Q-7723.18 1478.6 -7724.96 1478.6 Q-7728.59 1478.6 -7730.7 1476.82 Q-7732.78 1475.04 -7732.78 1472.55 Q-7732.78 1470.82 -7731.63 1469.04 Q-7730.46 1467.24 -7728.4 1466.09 Q-7730.32 1464.66 -7730.32 1462.67 Q-7730.32 1460.89 -7728.82 1459.3 Q-7727.3 1457.7 -7724.84 1456.77 Q-7722.36 1455.81 -7719.64 1455.81 Q-7718.12 1455.81 -7716.62 1456.32 Q-7715.12 1456.81 -7714.28 1457.45 Q-7713.43 1458.08 -7713.43 1458.55 M-7720.48 1465.88 Q-7721.52 1465.6 -7722.76 1465.6 Q-7724.44 1465.6 -7725.68 1466.02 Q-7724.68 1466.28 -7723.13 1466.28 Q-7721.84 1466.28 -7721.47 1466.21 Q-7721.07 1466.14 -7720.48 1465.88 Z" fill="#000000" fill-rule="nonzero" fill-opacity="1" /><path clip-path="url(#clip410)" d="M-7685.47 1492.2 Q-7685.47 1492.51 -7685.6 1492.67 Q-7685.71 1492.82 -7685.83 1492.85 Q-7685.93 1492.87 -7686.08 1492.87 Q-7686.5 1492.87 -7687.98 1492.82 Q-7689.45 1492.77 -7689.88 1492.77 Q-7690.57 1492.77 -7691.98 1492.82 Q-7693.39 1492.87 -7694.08 1492.87 Q-7694.54 1492.87 -7694.54 1492.49 Q-7694.54 1492.25 -7694.49 1492.12 Q-7694.44 1491.97 -7694.31 1491.92 Q-7694.16 1491.85 -7694.08 1491.85 Q-7693.98 1491.84 -7693.73 1491.84 Q-7693.4 1491.84 -7693.06 1491.8 Q-7692.72 1491.75 -7692.29 1491.66 Q-7691.86 1491.56 -7691.6 1491.31 Q-7691.32 1491.07 -7691.32 1490.72 Q-7691.32 1490.57 -7691.44 1489.36 Q-7691.55 1488.15 -7691.7 1486.74 Q-7691.85 1485.31 -7691.86 1485.11 L-7700.29 1485.11 Q-7701.06 1486.44 -7701.6 1487.36 Q-7702.14 1488.28 -7702.34 1488.59 Q-7702.54 1488.9 -7702.65 1489.1 Q-7702.77 1489.3 -7702.83 1489.41 Q-7703.31 1490.28 -7703.31 1490.66 Q-7703.31 1491.71 -7701.73 1491.84 Q-7701.19 1491.84 -7701.19 1492.23 Q-7701.19 1492.53 -7701.32 1492.69 Q-7701.45 1492.84 -7701.57 1492.85 Q-7701.67 1492.87 -7701.83 1492.87 Q-7702.37 1492.87 -7703.5 1492.82 Q-7704.64 1492.77 -7705.19 1492.77 Q-7705.67 1492.77 -7706.65 1492.82 Q-7707.64 1492.87 -7708.08 1492.87 Q-7708.28 1492.87 -7708.39 1492.75 Q-7708.5 1492.64 -7708.5 1492.49 Q-7708.5 1492.26 -7708.47 1492.13 Q-7708.42 1492 -7708.29 1491.93 Q-7708.16 1491.87 -7708.1 1491.87 Q-7708.03 1491.85 -7707.8 1491.84 Q-7706.55 1491.75 -7705.59 1491.16 Q-7704.6 1490.56 -7703.67 1489 L-7691.99 1469.39 Q-7691.88 1469.19 -7691.8 1469.1 Q-7691.72 1469 -7691.55 1468.92 Q-7691.37 1468.83 -7691.11 1468.83 Q-7690.7 1468.83 -7690.62 1468.96 Q-7690.54 1469.08 -7690.49 1469.64 L-7688.44 1490.62 Q-7688.39 1491.07 -7688.35 1491.25 Q-7688.31 1491.41 -7688.09 1491.59 Q-7687.86 1491.75 -7687.45 1491.8 Q-7687.03 1491.84 -7686.24 1491.84 Q-7685.94 1491.84 -7685.83 1491.85 Q-7685.71 1491.85 -7685.6 1491.93 Q-7685.47 1492.02 -7685.47 1492.2 M-7691.96 1484.07 L-7693.03 1473 L-7699.65 1484.07 L-7691.96 1484.07 Z" fill="#000000" fill-rule="nonzero" fill-opacity="1" /><path clip-path="url(#clip410)" d="M416.597 1450.49 L416.597 1448.99 Q422.359 1448.99 425.333 1445.93 Q426.153 1445.93 426.294 1446.11 Q426.434 1446.3 426.434 1447.17 L426.434 1474.08 Q426.434 1475.51 427.137 1475.95 Q427.839 1476.4 430.908 1476.4 L432.43 1476.4 L432.43 1477.87 Q430.744 1477.73 424.654 1477.73 Q418.564 1477.73 416.901 1477.87 L416.901 1476.4 L418.424 1476.4 Q421.445 1476.4 422.171 1475.98 Q422.897 1475.53 422.897 1474.08 L422.897 1449.23 Q420.391 1450.49 416.597 1450.49 Z" fill="#000000" fill-rule="nonzero" fill-opacity="1" /><path clip-path="url(#clip410)" d="M440.347 1470.1 L441.541 1470.1 Q442.22 1473.35 442.548 1473.85 Q443.017 1474.67 445.055 1474.76 Q445.476 1474.76 446.202 1474.76 L449.411 1474.76 Q448.826 1472.56 447.35 1470.03 Q445.874 1467.47 444.469 1465.58 Q443.087 1463.68 441.986 1461.1 Q440.885 1458.5 440.885 1456.04 Q440.885 1451.15 445.101 1447.61 Q449.317 1444.05 455.501 1444.05 Q461.684 1444.05 465.924 1447.59 Q470.187 1451.1 470.187 1456.04 Q470.187 1458.48 469.086 1461.06 Q467.985 1463.63 466.603 1465.53 Q465.245 1467.43 463.722 1470 Q462.223 1472.56 461.638 1474.76 L464.917 1474.76 Q467.61 1474.76 468.149 1474.27 Q468.688 1473.75 469.273 1471.06 Q469.367 1470.43 469.461 1470.1 L470.702 1470.1 L469.133 1477.87 L461.45 1477.87 Q460.818 1477.87 460.537 1477.69 Q460.256 1477.5 460.256 1476.82 Q460.256 1473.56 462.739 1466.56 Q465.245 1459.56 465.245 1456.04 Q465.245 1450.82 462.27 1447.96 Q459.295 1445.11 455.501 1445.11 Q451.753 1445.11 448.779 1447.94 Q445.828 1450.77 445.828 1456.04 Q445.828 1459.6 448.31 1466.58 Q450.816 1473.56 450.816 1476.77 Q450.816 1477.55 450.512 1477.71 Q450.231 1477.87 449.271 1477.87 L441.939 1477.87 L440.347 1470.1 Z" fill="#000000" fill-rule="nonzero" fill-opacity="1" /><path clip-path="url(#clip410)" d="M499.484 1473.21 Q499.484 1474.73 498.435 1476.11 Q497.402 1477.47 495.828 1478.34 Q494.254 1479.19 492.467 1479.52 Q494.877 1479.8 496.27 1481.11 Q497.681 1482.42 497.681 1484.26 Q497.681 1485.49 496.959 1486.78 Q496.254 1488.06 495.041 1489.11 Q493.844 1490.16 492.073 1490.83 Q490.319 1491.5 488.401 1491.5 L476.415 1491.5 Q476.038 1491.5 475.891 1491.49 Q475.743 1491.47 475.628 1491.39 Q475.514 1491.31 475.514 1491.13 Q475.514 1490.8 475.628 1490.65 Q475.759 1490.5 475.907 1490.49 Q476.055 1490.47 476.415 1490.47 Q477.235 1490.47 477.727 1490.42 Q478.219 1490.37 478.53 1490.31 Q478.858 1490.23 479.022 1490 Q479.203 1489.77 479.285 1489.57 Q479.367 1489.36 479.481 1488.88 L483.974 1470.85 Q484.105 1470.3 484.105 1470.22 Q484.105 1469.91 483.908 1469.83 Q483.728 1469.73 483.203 1469.68 L481.924 1469.62 Q481.531 1469.62 481.367 1469.6 Q481.219 1469.58 481.104 1469.5 Q480.99 1469.42 480.99 1469.24 Q480.99 1468.78 481.186 1468.68 Q481.4 1468.57 481.957 1468.57 L493.237 1468.57 Q496.139 1468.57 497.812 1469.91 Q499.484 1471.24 499.484 1473.21 M496.434 1473.08 Q496.434 1472.45 496.27 1471.9 Q496.107 1471.34 495.713 1470.8 Q495.336 1470.26 494.582 1469.94 Q493.828 1469.62 492.778 1469.62 L488.433 1469.62 Q487.368 1469.62 487.105 1469.81 Q486.859 1469.99 486.63 1470.89 L484.548 1479.21 L489.45 1479.21 Q490.942 1479.21 492.254 1478.67 Q493.582 1478.13 494.483 1477.26 Q495.385 1476.37 495.91 1475.27 Q496.434 1474.17 496.434 1473.08 M494.549 1483.88 Q494.549 1483.39 494.467 1482.91 Q494.385 1482.44 494.123 1481.88 Q493.86 1481.32 493.45 1480.91 Q493.041 1480.5 492.319 1480.22 Q491.614 1479.95 490.696 1479.95 L484.351 1479.95 L482.023 1489.32 Q481.859 1489.93 481.859 1490.09 Q481.859 1490.27 481.941 1490.34 Q482.039 1490.39 482.301 1490.42 Q482.596 1490.47 483.039 1490.47 L487.597 1490.47 Q489.04 1490.47 490.352 1489.91 Q491.663 1489.34 492.565 1488.42 Q493.483 1487.5 494.008 1486.31 Q494.549 1485.11 494.549 1483.88 Z" fill="#000000" fill-rule="nonzero" fill-opacity="1" /><path clip-path="url(#clip410)" d="M549.34 1465.2 Q549.621 1465.48 549.621 1465.88 Q549.621 1466.28 549.34 1466.56 Q549.059 1466.84 548.66 1466.84 L518.633 1466.84 Q518.235 1466.84 517.954 1466.56 Q517.673 1466.28 517.673 1465.88 Q517.673 1465.48 517.954 1465.2 Q518.235 1464.92 518.633 1464.92 L548.66 1464.92 Q549.059 1464.92 549.34 1465.2 Z" fill="#000000" fill-rule="nonzero" fill-opacity="1" /><path clip-path="url(#clip410)" d="M587.271 1458.88 Q587.271 1459.37 586.85 1459.77 Q586.451 1460.17 585.96 1460.17 Q585.679 1460.17 584.999 1459.7 Q583.055 1458.34 580.596 1458.34 Q578.394 1458.34 576.356 1458.88 Q574.319 1459.42 572.937 1460.52 Q571.578 1461.6 571.578 1463 Q571.578 1464.76 573.499 1465.79 Q575.49 1464.87 577.949 1464.87 Q578.745 1464.87 579.284 1464.92 Q579.846 1464.97 580.385 1465.09 Q580.924 1465.2 581.181 1465.48 Q581.462 1465.74 581.462 1466.16 Q581.462 1467.66 577.574 1467.66 Q575.045 1467.66 573.452 1466.98 Q571.414 1467.99 570.29 1469.61 Q569.166 1471.22 569.166 1472.6 Q569.166 1473.8 569.822 1474.67 Q570.501 1475.53 571.602 1475.95 Q572.726 1476.38 573.827 1476.56 Q574.951 1476.73 576.192 1476.73 Q578.23 1476.73 579.659 1476.47 Q581.111 1476.19 581.908 1475.67 Q582.727 1475.16 583.055 1474.81 Q583.407 1474.43 583.758 1473.85 Q583.969 1473.52 584.25 1473.52 Q584.461 1473.52 584.601 1473.66 Q584.765 1473.78 584.765 1473.99 Q584.765 1474.24 584.437 1474.78 Q584.133 1475.32 583.383 1476.05 Q582.657 1476.75 581.65 1477.41 Q580.666 1478.04 579.097 1478.48 Q577.528 1478.93 575.747 1478.93 Q572.117 1478.93 570.009 1477.15 Q567.924 1475.37 567.924 1472.89 Q567.924 1471.15 569.072 1469.37 Q570.243 1467.57 572.304 1466.42 Q570.384 1464.99 570.384 1463 Q570.384 1461.22 571.883 1459.63 Q573.405 1458.04 575.865 1457.1 Q578.347 1456.14 581.064 1456.14 Q582.587 1456.14 584.086 1456.65 Q585.585 1457.15 586.428 1457.78 Q587.271 1458.41 587.271 1458.88 M580.221 1466.21 Q579.191 1465.93 577.949 1465.93 Q576.263 1465.93 575.021 1466.35 Q576.028 1466.61 577.574 1466.61 Q578.863 1466.61 579.237 1466.54 Q579.636 1466.47 580.221 1466.21 Z" fill="#000000" fill-rule="nonzero" fill-opacity="1" /><path clip-path="url(#clip410)" d="M592.201 1473.04 L592.201 1471.99 Q596.234 1471.99 598.316 1469.85 Q598.89 1469.85 598.988 1469.98 Q599.087 1470.11 599.087 1470.72 L599.087 1489.55 Q599.087 1490.55 599.579 1490.87 Q600.071 1491.18 602.218 1491.18 L603.284 1491.18 L603.284 1492.21 Q602.104 1492.11 597.841 1492.11 Q593.578 1492.11 592.414 1492.21 L592.414 1491.18 L593.479 1491.18 Q595.594 1491.18 596.103 1490.88 Q596.611 1490.57 596.611 1489.55 L596.611 1472.16 Q594.857 1473.04 592.201 1473.04 Z" fill="#000000" fill-rule="nonzero" fill-opacity="1" /><path clip-path="url(#clip410)" d="M10405.7 1477.87 Q10405.7 1477.01 10405.8 1476.75 Q10405.9 1476.49 10406.2 1476.09 L10415.5 1465.83 Q10420.5 1460.17 10420.5 1455.22 Q10420.5 1452.02 10418.8 1449.72 Q10417.1 1447.42 10414.1 1447.42 Q10412 1447.42 10410.2 1448.71 Q10408.4 1450 10407.6 1452.3 Q10407.7 1452.25 10408.2 1452.25 Q10409.4 1452.25 10410.1 1453 Q10410.7 1453.75 10410.7 1454.76 Q10410.7 1456.04 10409.9 1456.68 Q10409.1 1457.29 10408.3 1457.29 Q10407.9 1457.29 10407.5 1457.22 Q10407.1 1457.15 10406.4 1456.49 Q10405.7 1455.81 10405.7 1454.62 Q10405.7 1451.27 10408.2 1448.6 Q10410.8 1445.93 10414.7 1445.93 Q10419.1 1445.93 10422 1448.55 Q10424.9 1451.15 10424.9 1455.22 Q10424.9 1456.65 10424.4 1457.96 Q10424 1459.25 10423.4 1460.26 Q10422.9 1461.27 10421.3 1462.88 Q10419.8 1464.5 10418.5 1465.65 Q10417.3 1466.8 10414.5 1469.23 L10409.4 1474.17 L10418.1 1474.17 Q10422.3 1474.17 10422.6 1473.8 Q10423.1 1473.12 10423.7 1469.54 L10424.9 1469.54 L10423.5 1477.87 L10405.7 1477.87 Z" fill="#000000" fill-rule="nonzero" fill-opacity="1" /><path clip-path="url(#clip410)" d="M10429.5 1470.1 L10430.7 1470.1 Q10431.3 1473.35 10431.7 1473.85 Q10432.1 1474.67 10434.2 1474.76 Q10434.6 1474.76 10435.3 1474.76 L10438.5 1474.76 Q10437.9 1472.56 10436.5 1470.03 Q10435 1467.47 10433.6 1465.58 Q10432.2 1463.68 10431.1 1461.1 Q10430 1458.5 10430 1456.04 Q10430 1451.15 10434.2 1447.61 Q10438.4 1444.05 10444.6 1444.05 Q10450.8 1444.05 10455 1447.59 Q10459.3 1451.1 10459.3 1456.04 Q10459.3 1458.48 10458.2 1461.06 Q10457.1 1463.63 10455.7 1465.53 Q10454.4 1467.43 10452.8 1470 Q10451.3 1472.56 10450.7 1474.76 L10454 1474.76 Q10456.7 1474.76 10457.3 1474.27 Q10457.8 1473.75 10458.4 1471.06 Q10458.5 1470.43 10458.6 1470.1 L10459.8 1470.1 L10458.2 1477.87 L10450.6 1477.87 Q10449.9 1477.87 10449.6 1477.69 Q10449.4 1477.5 10449.4 1476.82 Q10449.4 1473.56 10451.9 1466.56 Q10454.4 1459.56 10454.4 1456.04 Q10454.4 1450.82 10451.4 1447.96 Q10448.4 1445.11 10444.6 1445.11 Q10440.9 1445.11 10437.9 1447.94 Q10434.9 1450.77 10434.9 1456.04 Q10434.9 1459.6 10437.4 1466.58 Q10439.9 1473.56 10439.9 1476.77 Q10439.9 1477.55 10439.6 1477.71 Q10439.3 1477.87 10438.4 1477.87 L10431.1 1477.87 L10429.5 1470.1 Z" fill="#000000" fill-rule="nonzero" fill-opacity="1" /><path clip-path="url(#clip410)" d="M10488.6 1473.21 Q10488.6 1474.73 10487.5 1476.11 Q10486.5 1477.47 10484.9 1478.34 Q10483.4 1479.19 10481.6 1479.52 Q10484 1479.8 10485.4 1481.11 Q10486.8 1482.42 10486.8 1484.26 Q10486.8 1485.49 10486.1 1486.78 Q10485.4 1488.06 10484.2 1489.11 Q10483 1490.16 10481.2 1490.83 Q10479.4 1491.5 10477.5 1491.5 L10465.5 1491.5 Q10465.2 1491.5 10465 1491.49 Q10464.9 1491.47 10464.7 1491.39 Q10464.6 1491.31 10464.6 1491.13 Q10464.6 1490.8 10464.7 1490.65 Q10464.9 1490.5 10465 1490.49 Q10465.2 1490.47 10465.5 1490.47 Q10466.3 1490.47 10466.8 1490.42 Q10467.3 1490.37 10467.6 1490.31 Q10468 1490.23 10468.1 1490 Q10468.3 1489.77 10468.4 1489.57 Q10468.5 1489.36 10468.6 1488.88 L10473.1 1470.85 Q10473.2 1470.3 10473.2 1470.22 Q10473.2 1469.91 10473 1469.83 Q10472.8 1469.73 10472.3 1469.68 L10471 1469.62 Q10470.6 1469.62 10470.5 1469.6 Q10470.3 1469.58 10470.2 1469.5 Q10470.1 1469.42 10470.1 1469.24 Q10470.1 1468.78 10470.3 1468.68 Q10470.5 1468.57 10471.1 1468.57 L10482.3 1468.57 Q10485.3 1468.57 10486.9 1469.91 Q10488.6 1471.24 10488.6 1473.21 M10485.5 1473.08 Q10485.5 1472.45 10485.4 1471.9 Q10485.2 1471.34 10484.8 1470.8 Q10484.4 1470.26 10483.7 1469.94 Q10482.9 1469.62 10481.9 1469.62 L10477.5 1469.62 Q10476.5 1469.62 10476.2 1469.81 Q10476 1469.99 10475.7 1470.89 L10473.7 1479.21 L10478.6 1479.21 Q10480.1 1479.21 10481.4 1478.67 Q10482.7 1478.13 10483.6 1477.26 Q10484.5 1476.37 10485 1475.27 Q10485.5 1474.17 10485.5 1473.08 M10483.7 1483.88 Q10483.7 1483.39 10483.6 1482.91 Q10483.5 1482.44 10483.2 1481.88 Q10483 1481.32 10482.6 1480.91 Q10482.2 1480.5 10481.4 1480.22 Q10480.7 1479.95 10479.8 1479.95 L10473.5 1479.95 L10471.1 1489.32 Q10471 1489.93 10471 1490.09 Q10471 1490.27 10471.1 1490.34 Q10471.2 1490.39 10471.4 1490.42 Q10471.7 1490.47 10472.2 1490.47 L10476.7 1490.47 Q10478.2 1490.47 10479.5 1489.91 Q10480.8 1489.34 10481.7 1488.42 Q10482.6 1487.5 10483.1 1486.31 Q10483.7 1485.11 10483.7 1483.88 Z" fill="#000000" fill-rule="nonzero" fill-opacity="1" /><path clip-path="url(#clip410)" d="M10538.5 1465.2 Q10538.7 1465.48 10538.7 1465.88 Q10538.7 1466.28 10538.5 1466.56 Q10538.2 1466.84 10537.8 1466.84 L10507.7 1466.84 Q10507.3 1466.84 10507.1 1466.56 Q10506.8 1466.28 10506.8 1465.88 Q10506.8 1465.48 10507.1 1465.2 Q10507.3 1464.92 10507.7 1464.92 L10537.8 1464.92 Q10538.2 1464.92 10538.5 1465.2 Z" fill="#000000" fill-rule="nonzero" fill-opacity="1" /><path clip-path="url(#clip410)" d="M10576.4 1458.88 Q10576.4 1459.37 10576 1459.77 Q10575.6 1460.17 10575.1 1460.17 Q10574.8 1460.17 10574.1 1459.7 Q10572.2 1458.34 10569.7 1458.34 Q10567.5 1458.34 10565.5 1458.88 Q10563.4 1459.42 10562 1460.52 Q10560.7 1461.6 10560.7 1463 Q10560.7 1464.76 10562.6 1465.79 Q10564.6 1464.87 10567.1 1464.87 Q10567.9 1464.87 10568.4 1464.92 Q10569 1464.97 10569.5 1465.09 Q10570 1465.2 10570.3 1465.48 Q10570.6 1465.74 10570.6 1466.16 Q10570.6 1467.66 10566.7 1467.66 Q10564.2 1467.66 10562.6 1466.98 Q10560.5 1467.99 10559.4 1469.61 Q10558.3 1471.22 10558.3 1472.6 Q10558.3 1473.8 10558.9 1474.67 Q10559.6 1475.53 10560.7 1475.95 Q10561.8 1476.38 10562.9 1476.56 Q10564.1 1476.73 10565.3 1476.73 Q10567.3 1476.73 10568.8 1476.47 Q10570.2 1476.19 10571 1475.67 Q10571.8 1475.16 10572.2 1474.81 Q10572.5 1474.43 10572.9 1473.85 Q10573.1 1473.52 10573.4 1473.52 Q10573.6 1473.52 10573.7 1473.66 Q10573.9 1473.78 10573.9 1473.99 Q10573.9 1474.24 10573.5 1474.78 Q10573.2 1475.32 10572.5 1476.05 Q10571.8 1476.75 10570.8 1477.41 Q10569.8 1478.04 10568.2 1478.48 Q10566.6 1478.93 10564.9 1478.93 Q10561.2 1478.93 10559.1 1477.15 Q10557 1475.37 10557 1472.89 Q10557 1471.15 10558.2 1469.37 Q10559.4 1467.57 10561.4 1466.42 Q10559.5 1464.99 10559.5 1463 Q10559.5 1461.22 10561 1459.63 Q10562.5 1458.04 10565 1457.1 Q10567.5 1456.14 10570.2 1456.14 Q10571.7 1456.14 10573.2 1456.65 Q10574.7 1457.15 10575.5 1457.78 Q10576.4 1458.41 10576.4 1458.88 M10569.3 1466.21 Q10568.3 1465.93 10567.1 1465.93 Q10565.4 1465.93 10564.1 1466.35 Q10565.1 1466.61 10566.7 1466.61 Q10568 1466.61 10568.3 1466.54 Q10568.7 1466.47 10569.3 1466.21 Z" fill="#000000" fill-rule="nonzero" fill-opacity="1" /><path clip-path="url(#clip410)" d="M10581.3 1492.21 Q10581.3 1491.6 10581.4 1491.42 Q10581.4 1491.24 10581.7 1490.96 L10588.1 1483.78 Q10591.7 1479.81 10591.7 1476.36 Q10591.7 1474.11 10590.5 1472.5 Q10589.3 1470.9 10587.2 1470.9 Q10585.7 1470.9 10584.4 1471.8 Q10583.2 1472.7 10582.6 1474.31 Q10582.7 1474.27 10583.1 1474.27 Q10583.9 1474.27 10584.4 1474.8 Q10584.8 1475.32 10584.8 1476.03 Q10584.8 1476.93 10584.2 1477.37 Q10583.7 1477.8 10583.1 1477.8 Q10582.9 1477.8 10582.6 1477.75 Q10582.3 1477.7 10581.8 1477.24 Q10581.3 1476.77 10581.3 1475.93 Q10581.3 1473.58 10583.1 1471.72 Q10584.9 1469.85 10587.6 1469.85 Q10590.7 1469.85 10592.7 1471.68 Q10594.7 1473.5 10594.7 1476.36 Q10594.7 1477.36 10594.4 1478.27 Q10594.1 1479.18 10593.7 1479.88 Q10593.3 1480.59 10592.2 1481.72 Q10591.1 1482.85 10590.3 1483.65 Q10589.4 1484.45 10587.5 1486.16 L10583.9 1489.62 L10590 1489.62 Q10592.9 1489.62 10593.1 1489.36 Q10593.5 1488.88 10593.9 1486.37 L10594.7 1486.37 L10593.8 1492.21 L10581.3 1492.21 Z" fill="#000000" fill-rule="nonzero" fill-opacity="1" /><path clip-path="url(#clip410)" d="M1221.51 1519.69 Q1221.51 1522.69 1220 1528.48 Q1219.38 1530.99 1218.55 1533.28 Q1217.74 1535.54 1216.55 1537.73 Q1215.36 1539.92 1213.97 1541.49 Q1212.59 1543.04 1210.78 1544.01 Q1208.98 1544.97 1206.98 1544.97 Q1203.83 1544.97 1201.96 1543.1 Q1200.12 1541.2 1199.55 1537.95 Q1195.23 1544.97 1189.46 1544.97 Q1185.89 1544.97 1184.22 1542.43 Q1182.54 1539.85 1182.54 1535.54 Q1182.54 1531.9 1183.51 1528.13 Q1185.34 1520.98 1188.92 1515.99 Q1189.4 1515.41 1190.11 1515.41 Q1190.53 1515.41 1190.72 1515.54 Q1191.3 1515.89 1191.3 1516.47 Q1191.3 1516.89 1190.98 1517.31 Q1188.72 1520.43 1187.24 1523.1 Q1185.76 1525.78 1185.08 1528.48 Q1184.57 1530.8 1184.57 1532.77 Q1184.57 1536.08 1185.99 1538.14 Q1187.44 1540.21 1190.3 1540.21 Q1192.94 1540.21 1195.26 1538.56 Q1197.58 1536.89 1199.29 1534.09 Q1199.38 1531.03 1200.12 1528.13 Q1200.8 1525.04 1202.38 1525.04 Q1203.64 1525.04 1203.64 1526.74 Q1203.64 1527.32 1203.38 1528.48 Q1202.67 1531.54 1201.38 1534.28 Q1201.83 1536.95 1203.51 1538.59 Q1205.18 1540.21 1207.85 1540.21 Q1210.33 1540.21 1212.52 1538.4 Q1214.75 1536.6 1216.16 1533.96 Q1217.61 1531.28 1218.42 1528.13 Q1218.68 1527.07 1218.68 1525.71 Q1218.68 1522.11 1216.16 1519.88 Q1215.45 1519.17 1215.45 1518.24 Q1215.45 1517.15 1216.36 1516.15 Q1217.42 1515.08 1218.68 1515.08 Q1219.61 1515.08 1220.19 1515.66 Q1221.51 1516.82 1221.51 1519.69 Z" fill="#000000" fill-rule="nonzero" fill-opacity="1" /><path clip-path="url(#clip410)" d="M1256.06 1552.3 Q1256.06 1552.44 1255.88 1552.95 L1252.23 1562.92 Q1252.03 1563.5 1251.82 1563.62 Q1251.62 1563.71 1250.79 1563.71 L1229.41 1563.71 Q1228.9 1563.71 1228.69 1563.69 Q1228.49 1563.66 1228.33 1563.55 Q1228.17 1563.44 1228.17 1563.19 Q1228.17 1562.74 1228.33 1562.54 Q1228.51 1562.33 1228.72 1562.31 Q1228.92 1562.29 1229.41 1562.29 Q1230.54 1562.29 1231.22 1562.22 Q1231.89 1562.15 1232.32 1562.06 Q1232.77 1561.95 1233 1561.63 Q1233.25 1561.32 1233.36 1561.05 Q1233.47 1560.75 1233.63 1560.1 L1239.81 1535.3 Q1239.99 1534.56 1239.99 1534.45 Q1239.99 1534.02 1239.72 1533.9 Q1239.47 1533.77 1238.75 1533.7 L1236.99 1533.61 Q1236.45 1533.61 1236.22 1533.59 Q1236.02 1533.57 1235.86 1533.45 Q1235.7 1533.34 1235.7 1533.09 Q1235.7 1532.66 1235.86 1532.46 Q1236.04 1532.24 1236.18 1532.21 Q1236.34 1532.17 1236.58 1532.17 L1242.72 1532.3 L1249.55 1532.17 Q1250.29 1532.17 1250.29 1532.73 Q1250.29 1533.36 1249.97 1533.5 Q1249.66 1533.61 1248.53 1533.61 Q1246.37 1533.61 1245.38 1533.84 Q1244.41 1534.06 1244.14 1534.45 Q1243.89 1534.81 1243.64 1535.78 L1237.39 1560.71 Q1237.17 1561.54 1237.17 1561.77 Q1237.17 1562.02 1237.28 1562.11 Q1237.42 1562.17 1237.78 1562.22 Q1238.18 1562.29 1238.79 1562.29 L1243.12 1562.29 Q1244.43 1562.29 1245.58 1562.08 Q1246.73 1561.88 1247.61 1561.59 Q1248.51 1561.3 1249.32 1560.75 Q1250.13 1560.21 1250.7 1559.74 Q1251.28 1559.24 1251.85 1558.48 Q1252.43 1557.69 1252.77 1557.15 Q1253.13 1556.58 1253.54 1555.68 Q1253.94 1554.76 1254.15 1554.24 Q1254.37 1553.7 1254.71 1552.77 Q1254.91 1552.3 1254.98 1552.17 Q1255.05 1552.03 1255.16 1551.92 Q1255.29 1551.8 1255.5 1551.8 Q1255.77 1551.8 1255.9 1551.96 Q1256.06 1552.12 1256.06 1552.3 Z" fill="#000000" fill-rule="nonzero" fill-opacity="1" /><path clip-path="url(#clip410)" d="M1324.68 1526.81 Q1325.06 1527.19 1325.06 1527.74 Q1325.06 1528.29 1324.68 1528.68 Q1324.29 1529.06 1323.74 1529.06 L1282.45 1529.06 Q1281.91 1529.06 1281.52 1528.68 Q1281.13 1528.29 1281.13 1527.74 Q1281.13 1527.19 1281.52 1526.81 Q1281.91 1526.42 1282.45 1526.42 L1323.74 1526.42 Q1324.29 1526.42 1324.68 1526.81 Z" fill="#000000" fill-rule="nonzero" fill-opacity="1" /><path clip-path="url(#clip410)" d="M1389.22 1519.69 Q1389.22 1522.69 1387.71 1528.48 Q1387.09 1530.99 1386.26 1533.28 Q1385.45 1535.54 1384.26 1537.73 Q1383.07 1539.92 1381.68 1541.49 Q1380.3 1543.04 1378.5 1544.01 Q1376.69 1544.97 1374.7 1544.97 Q1371.54 1544.97 1369.67 1543.1 Q1367.84 1541.2 1367.26 1537.95 Q1362.94 1544.97 1357.18 1544.97 Q1353.6 1544.97 1351.93 1542.43 Q1350.25 1539.85 1350.25 1535.54 Q1350.25 1531.9 1351.22 1528.13 Q1353.05 1520.98 1356.63 1515.99 Q1357.11 1515.41 1357.82 1515.41 Q1358.24 1515.41 1358.43 1515.54 Q1359.01 1515.89 1359.01 1516.47 Q1359.01 1516.89 1358.69 1517.31 Q1356.43 1520.43 1354.95 1523.1 Q1353.47 1525.78 1352.8 1528.48 Q1352.28 1530.8 1352.28 1532.77 Q1352.28 1536.08 1353.7 1538.14 Q1355.15 1540.21 1358.01 1540.21 Q1360.65 1540.21 1362.97 1538.56 Q1365.29 1536.89 1367 1534.09 Q1367.09 1531.03 1367.84 1528.13 Q1368.51 1525.04 1370.09 1525.04 Q1371.35 1525.04 1371.35 1526.74 Q1371.35 1527.32 1371.09 1528.48 Q1370.38 1531.54 1369.09 1534.28 Q1369.54 1536.95 1371.22 1538.59 Q1372.89 1540.21 1375.56 1540.21 Q1378.04 1540.21 1380.23 1538.4 Q1382.46 1536.6 1383.87 1533.96 Q1385.32 1531.28 1386.13 1528.13 Q1386.39 1527.07 1386.39 1525.71 Q1386.39 1522.11 1383.87 1519.88 Q1383.17 1519.17 1383.17 1518.24 Q1383.17 1517.15 1384.07 1516.15 Q1385.13 1515.08 1386.39 1515.08 Q1387.32 1515.08 1387.9 1515.66 Q1389.22 1516.82 1389.22 1519.69 Z" fill="#000000" fill-rule="nonzero" fill-opacity="1" /><path clip-path="url(#clip410)" d="M1412.88 1540.66 Q1412.88 1541.92 1412.25 1542.6 Q1411.62 1543.25 1410.76 1543.25 Q1410.06 1543.25 1409.68 1542.84 Q1409.32 1542.44 1409.32 1541.9 Q1409.32 1541.11 1409.95 1540.48 Q1410.61 1539.85 1411.55 1539.82 Q1411.24 1538.99 1410.4 1538.49 Q1409.57 1537.98 1408.82 1537.84 Q1408.1 1537.7 1407.38 1537.7 Q1405.96 1537.7 1404.88 1538.16 Q1403.8 1538.61 1403.26 1539.31 Q1402.72 1539.98 1402.47 1540.64 Q1402.22 1541.29 1402.22 1541.85 Q1402.22 1542.35 1402.33 1542.75 Q1402.47 1543.14 1402.78 1543.43 Q1403.1 1543.7 1403.32 1543.88 Q1403.57 1544.06 1404.11 1544.22 Q1404.65 1544.38 1404.88 1544.45 Q1405.11 1544.49 1405.74 1544.63 Q1407.04 1544.9 1407.63 1545.05 Q1408.22 1545.19 1408.98 1545.57 Q1409.77 1545.96 1410.36 1546.56 Q1411.78 1547.98 1411.78 1549.95 Q1411.78 1550.67 1411.53 1551.55 Q1411.3 1552.43 1410.65 1553.53 Q1410 1554.64 1409.01 1555.51 Q1408.01 1556.39 1406.3 1557 Q1404.61 1557.61 1402.49 1557.61 Q1399.54 1557.61 1397.71 1556.37 Q1395.88 1555.11 1395.88 1553.13 Q1395.88 1551.68 1396.67 1550.89 Q1397.46 1550.08 1398.48 1550.08 Q1399.24 1550.08 1399.72 1550.51 Q1400.19 1550.92 1400.19 1551.68 Q1400.19 1552.72 1399.36 1553.51 Q1398.52 1554.3 1397.28 1554.14 Q1398.34 1556.57 1402.54 1556.57 Q1404.11 1556.57 1405.33 1556.17 Q1406.57 1555.74 1407.25 1555.15 Q1407.95 1554.55 1408.4 1553.8 Q1408.85 1553.06 1408.98 1552.49 Q1409.14 1551.93 1409.14 1551.5 Q1409.14 1550.76 1408.85 1550.19 Q1408.55 1549.63 1408.15 1549.32 Q1407.77 1548.98 1407.02 1548.71 Q1406.3 1548.41 1405.78 1548.3 Q1405.26 1548.19 1404.34 1548.01 Q1403.91 1547.92 1403.64 1547.87 Q1403.37 1547.8 1402.81 1547.62 Q1402.26 1547.42 1401.88 1547.22 Q1401.52 1547.02 1401.05 1546.65 Q1400.57 1546.29 1400.28 1545.87 Q1399.99 1545.44 1399.78 1544.81 Q1399.58 1544.18 1399.58 1543.43 Q1399.58 1542.75 1399.78 1541.94 Q1400.01 1541.13 1400.57 1540.18 Q1401.16 1539.24 1401.99 1538.47 Q1402.83 1537.7 1404.23 1537.21 Q1405.65 1536.69 1407.38 1536.69 Q1409.91 1536.69 1411.4 1537.86 Q1412.88 1539.01 1412.88 1540.66 Z" fill="#000000" fill-rule="nonzero" fill-opacity="1" /><polyline clip-path="url(#clip412)" style="stroke:#000000; stroke-linecap:round; stroke-linejoin:round; stroke-width:2; stroke-opacity:0.1; fill:none" points="249.542,1356.82 2352.76,1356.82 "/>
<polyline clip-path="url(#clip412)" style="stroke:#000000; stroke-linecap:round; stroke-linejoin:round; stroke-width:2; stroke-opacity:0.1; fill:none" points="249.542,1018.46 2352.76,1018.46 "/>
<polyline clip-path="url(#clip412)" style="stroke:#000000; stroke-linecap:round; stroke-linejoin:round; stroke-width:2; stroke-opacity:0.1; fill:none" points="249.542,680.104 2352.76,680.104 "/>
<polyline clip-path="url(#clip412)" style="stroke:#000000; stroke-linecap:round; stroke-linejoin:round; stroke-width:2; stroke-opacity:0.1; fill:none" points="249.542,341.749 2352.76,341.749 "/>
<polyline clip-path="url(#clip410)" style="stroke:#000000; stroke-linecap:round; stroke-linejoin:round; stroke-width:4; stroke-opacity:1; fill:none" points="249.542,1423.18 249.542,47.2441 "/>
<polyline clip-path="url(#clip410)" style="stroke:#000000; stroke-linecap:round; stroke-linejoin:round; stroke-width:4; stroke-opacity:1; fill:none" points="249.542,1356.82 268.44,1356.82 "/>
<polyline clip-path="url(#clip410)" style="stroke:#000000; stroke-linecap:round; stroke-linejoin:round; stroke-width:4; stroke-opacity:1; fill:none" points="249.542,1018.46 268.44,1018.46 "/>
<polyline clip-path="url(#clip410)" style="stroke:#000000; stroke-linecap:round; stroke-linejoin:round; stroke-width:4; stroke-opacity:1; fill:none" points="249.542,680.104 268.44,680.104 "/>
<polyline clip-path="url(#clip410)" style="stroke:#000000; stroke-linecap:round; stroke-linejoin:round; stroke-width:4; stroke-opacity:1; fill:none" points="249.542,341.749 268.44,341.749 "/>
<path clip-path="url(#clip410)" d="M126.205 1342.61 Q122.593 1342.61 120.765 1346.18 Q118.959 1349.72 118.959 1356.85 Q118.959 1363.96 120.765 1367.52 Q122.593 1371.06 126.205 1371.06 Q129.839 1371.06 131.644 1367.52 Q133.473 1363.96 133.473 1356.85 Q133.473 1349.72 131.644 1346.18 Q129.839 1342.61 126.205 1342.61 M126.205 1338.91 Q132.015 1338.91 135.07 1343.52 Q138.149 1348.1 138.149 1356.85 Q138.149 1365.58 135.07 1370.18 Q132.015 1374.77 126.205 1374.77 Q120.394 1374.77 117.316 1370.18 Q114.26 1365.58 114.26 1356.85 Q114.26 1348.1 117.316 1343.52 Q120.394 1338.91 126.205 1338.91 Z" fill="#000000" fill-rule="nonzero" fill-opacity="1" /><path clip-path="url(#clip410)" d="M146.366 1368.22 L151.251 1368.22 L151.251 1374.1 L146.366 1374.1 L146.366 1368.22 Z" fill="#000000" fill-rule="nonzero" fill-opacity="1" /><path clip-path="url(#clip410)" d="M161.575 1373.38 L161.575 1369.12 Q163.334 1369.95 165.14 1370.39 Q166.945 1370.83 168.681 1370.83 Q173.311 1370.83 175.741 1367.73 Q178.195 1364.61 178.542 1358.26 Q177.2 1360.25 175.139 1361.32 Q173.079 1362.38 170.579 1362.38 Q165.394 1362.38 162.362 1359.26 Q159.353 1356.11 159.353 1350.67 Q159.353 1345.35 162.501 1342.13 Q165.649 1338.91 170.88 1338.91 Q176.876 1338.91 180.024 1343.52 Q183.195 1348.1 183.195 1356.85 Q183.195 1365.02 179.306 1369.91 Q175.44 1374.77 168.889 1374.77 Q167.13 1374.77 165.325 1374.42 Q163.519 1374.07 161.575 1373.38 M170.88 1358.73 Q174.028 1358.73 175.857 1356.57 Q177.709 1354.42 177.709 1350.67 Q177.709 1346.94 175.857 1344.79 Q174.028 1342.61 170.88 1342.61 Q167.732 1342.61 165.88 1344.79 Q164.052 1346.94 164.052 1350.67 Q164.052 1354.42 165.88 1356.57 Q167.732 1358.73 170.88 1358.73 Z" fill="#000000" fill-rule="nonzero" fill-opacity="1" /><path clip-path="url(#clip410)" d="M201.598 1342.61 Q197.987 1342.61 196.158 1346.18 Q194.352 1349.72 194.352 1356.85 Q194.352 1363.96 196.158 1367.52 Q197.987 1371.06 201.598 1371.06 Q205.232 1371.06 207.037 1367.52 Q208.866 1363.96 208.866 1356.85 Q208.866 1349.72 207.037 1346.18 Q205.232 1342.61 201.598 1342.61 M201.598 1338.91 Q207.408 1338.91 210.463 1343.52 Q213.542 1348.1 213.542 1356.85 Q213.542 1365.58 210.463 1370.18 Q207.408 1374.77 201.598 1374.77 Q195.787 1374.77 192.709 1370.18 Q189.653 1365.58 189.653 1356.85 Q189.653 1348.1 192.709 1343.52 Q195.787 1338.91 201.598 1338.91 Z" fill="#000000" fill-rule="nonzero" fill-opacity="1" /><path clip-path="url(#clip410)" d="M127.2 1004.26 Q123.589 1004.26 121.76 1007.82 Q119.955 1011.37 119.955 1018.49 Q119.955 1025.6 121.76 1029.17 Q123.589 1032.71 127.2 1032.71 Q130.834 1032.71 132.64 1029.17 Q134.468 1025.6 134.468 1018.49 Q134.468 1011.37 132.64 1007.82 Q130.834 1004.26 127.2 1004.26 M127.2 1000.56 Q133.01 1000.56 136.066 1005.16 Q139.144 1009.74 139.144 1018.49 Q139.144 1027.22 136.066 1031.83 Q133.01 1036.41 127.2 1036.41 Q121.39 1036.41 118.311 1031.83 Q115.256 1027.22 115.256 1018.49 Q115.256 1009.74 118.311 1005.16 Q121.39 1000.56 127.2 1000.56 Z" fill="#000000" fill-rule="nonzero" fill-opacity="1" /><path clip-path="url(#clip410)" d="M147.362 1029.86 L152.246 1029.86 L152.246 1035.74 L147.362 1035.74 L147.362 1029.86 Z" fill="#000000" fill-rule="nonzero" fill-opacity="1" /><path clip-path="url(#clip410)" d="M162.57 1035.02 L162.57 1030.76 Q164.329 1031.6 166.135 1032.04 Q167.94 1032.48 169.677 1032.48 Q174.306 1032.48 176.737 1029.37 Q179.19 1026.25 179.538 1019.91 Q178.195 1021.9 176.135 1022.96 Q174.075 1024.03 171.575 1024.03 Q166.39 1024.03 163.357 1020.9 Q160.348 1017.75 160.348 1012.31 Q160.348 1006.99 163.496 1003.77 Q166.644 1000.56 171.876 1000.56 Q177.871 1000.56 181.019 1005.16 Q184.19 1009.74 184.19 1018.49 Q184.19 1026.67 180.301 1031.55 Q176.436 1036.41 169.885 1036.41 Q168.126 1036.41 166.32 1036.06 Q164.515 1035.72 162.57 1035.02 M171.876 1020.37 Q175.024 1020.37 176.852 1018.22 Q178.704 1016.06 178.704 1012.31 Q178.704 1008.59 176.852 1006.43 Q175.024 1004.26 171.876 1004.26 Q168.727 1004.26 166.876 1006.43 Q165.047 1008.59 165.047 1012.31 Q165.047 1016.06 166.876 1018.22 Q168.727 1020.37 171.876 1020.37 Z" fill="#000000" fill-rule="nonzero" fill-opacity="1" /><path clip-path="url(#clip410)" d="M192.639 1001.18 L210.996 1001.18 L210.996 1005.12 L196.922 1005.12 L196.922 1013.59 Q197.94 1013.24 198.959 1013.08 Q199.977 1012.89 200.996 1012.89 Q206.783 1012.89 210.162 1016.06 Q213.542 1019.24 213.542 1024.65 Q213.542 1030.23 210.07 1033.33 Q206.598 1036.41 200.278 1036.41 Q198.102 1036.41 195.834 1036.04 Q193.588 1035.67 191.181 1034.93 L191.181 1030.23 Q193.264 1031.37 195.487 1031.92 Q197.709 1032.48 200.186 1032.48 Q204.19 1032.48 206.528 1030.37 Q208.866 1028.26 208.866 1024.65 Q208.866 1021.04 206.528 1018.93 Q204.19 1016.83 200.186 1016.83 Q198.311 1016.83 196.436 1017.24 Q194.584 1017.66 192.639 1018.54 L192.639 1001.18 Z" fill="#000000" fill-rule="nonzero" fill-opacity="1" /><path clip-path="url(#clip410)" d="M117.015 693.449 L124.654 693.449 L124.654 667.084 L116.343 668.75 L116.343 664.491 L124.607 662.824 L129.283 662.824 L129.283 693.449 L136.922 693.449 L136.922 697.384 L117.015 697.384 L117.015 693.449 Z" fill="#000000" fill-rule="nonzero" fill-opacity="1" /><path clip-path="url(#clip410)" d="M146.366 691.505 L151.251 691.505 L151.251 697.384 L146.366 697.384 L146.366 691.505 Z" fill="#000000" fill-rule="nonzero" fill-opacity="1" /><path clip-path="url(#clip410)" d="M171.436 665.903 Q167.825 665.903 165.996 669.468 Q164.19 673.009 164.19 680.139 Q164.19 687.245 165.996 690.81 Q167.825 694.352 171.436 694.352 Q175.07 694.352 176.876 690.81 Q178.704 687.245 178.704 680.139 Q178.704 673.009 176.876 669.468 Q175.07 665.903 171.436 665.903 M171.436 662.199 Q177.246 662.199 180.301 666.806 Q183.38 671.389 183.38 680.139 Q183.38 688.866 180.301 693.472 Q177.246 698.056 171.436 698.056 Q165.626 698.056 162.547 693.472 Q159.491 688.866 159.491 680.139 Q159.491 671.389 162.547 666.806 Q165.626 662.199 171.436 662.199 Z" fill="#000000" fill-rule="nonzero" fill-opacity="1" /><path clip-path="url(#clip410)" d="M201.598 665.903 Q197.987 665.903 196.158 669.468 Q194.352 673.009 194.352 680.139 Q194.352 687.245 196.158 690.81 Q197.987 694.352 201.598 694.352 Q205.232 694.352 207.037 690.81 Q208.866 687.245 208.866 680.139 Q208.866 673.009 207.037 669.468 Q205.232 665.903 201.598 665.903 M201.598 662.199 Q207.408 662.199 210.463 666.806 Q213.542 671.389 213.542 680.139 Q213.542 688.866 210.463 693.472 Q207.408 698.056 201.598 698.056 Q195.787 698.056 192.709 693.472 Q189.653 688.866 189.653 680.139 Q189.653 671.389 192.709 666.806 Q195.787 662.199 201.598 662.199 Z" fill="#000000" fill-rule="nonzero" fill-opacity="1" /><path clip-path="url(#clip410)" d="M118.01 355.093 L125.649 355.093 L125.649 328.728 L117.339 330.394 L117.339 326.135 L125.603 324.469 L130.279 324.469 L130.279 355.093 L137.917 355.093 L137.917 359.029 L118.01 359.029 L118.01 355.093 Z" fill="#000000" fill-rule="nonzero" fill-opacity="1" /><path clip-path="url(#clip410)" d="M147.362 353.149 L152.246 353.149 L152.246 359.029 L147.362 359.029 L147.362 353.149 Z" fill="#000000" fill-rule="nonzero" fill-opacity="1" /><path clip-path="url(#clip410)" d="M172.431 327.547 Q168.82 327.547 166.991 331.112 Q165.186 334.654 165.186 341.783 Q165.186 348.89 166.991 352.454 Q168.82 355.996 172.431 355.996 Q176.065 355.996 177.871 352.454 Q179.7 348.89 179.7 341.783 Q179.7 334.654 177.871 331.112 Q176.065 327.547 172.431 327.547 M172.431 323.844 Q178.241 323.844 181.297 328.45 Q184.376 333.033 184.376 341.783 Q184.376 350.51 181.297 355.116 Q178.241 359.7 172.431 359.7 Q166.621 359.7 163.542 355.116 Q160.487 350.51 160.487 341.783 Q160.487 333.033 163.542 328.45 Q166.621 323.844 172.431 323.844 Z" fill="#000000" fill-rule="nonzero" fill-opacity="1" /><path clip-path="url(#clip410)" d="M192.639 324.469 L210.996 324.469 L210.996 328.404 L196.922 328.404 L196.922 336.876 Q197.94 336.529 198.959 336.367 Q199.977 336.181 200.996 336.181 Q206.783 336.181 210.162 339.353 Q213.542 342.524 213.542 347.941 Q213.542 353.519 210.07 356.621 Q206.598 359.7 200.278 359.7 Q198.102 359.7 195.834 359.329 Q193.588 358.959 191.181 358.218 L191.181 353.519 Q193.264 354.654 195.487 355.209 Q197.709 355.765 200.186 355.765 Q204.19 355.765 206.528 353.658 Q208.866 351.552 208.866 347.941 Q208.866 344.33 206.528 342.223 Q204.19 340.117 200.186 340.117 Q198.311 340.117 196.436 340.533 Q194.584 340.95 192.639 341.83 L192.639 324.469 Z" fill="#000000" fill-rule="nonzero" fill-opacity="1" /><path clip-path="url(#clip410)" d="M20.2934 767.16 Q20.9053 767.16 21.1952 767.417 Q21.4528 767.643 21.5172 767.997 Q21.5494 768.351 21.5494 769.285 Q21.5494 770.864 21.6782 771.862 Q21.7749 772.86 21.9359 773.472 Q22.0647 774.084 22.5156 774.438 Q22.9343 774.76 23.3207 774.921 Q23.7072 775.05 24.5768 775.276 L59.7134 784.1 Q60.744 784.39 61.2593 784.39 Q61.8068 784.39 62.0322 784.068 Q62.2576 783.746 62.3543 782.715 Q62.5153 781.073 62.5153 779.881 Q62.5153 778.303 62.7407 778.078 Q62.9662 777.917 63.2882 777.917 Q63.8679 777.917 64.19 778.174 Q64.4798 778.432 64.512 778.657 Q64.5443 778.851 64.5443 779.237 L64.351 788.061 L64.5443 796.725 Q64.5443 797.691 63.8035 797.691 Q63.3204 797.691 63.0628 797.627 Q62.7729 797.53 62.6763 797.208 Q62.5475 796.854 62.5475 796.596 Q62.5153 796.338 62.5153 795.598 Q62.5153 794.277 62.4831 793.408 Q62.4187 792.506 62.2576 791.862 Q62.0644 791.185 61.9034 790.863 Q61.7101 790.509 61.2915 790.251 Q60.8406 789.962 60.4863 789.865 Q60.132 789.736 59.3913 789.575 L23.836 780.686 Q23.2563 780.557 22.8055 780.557 Q21.9359 780.557 21.7427 781.588 Q21.5494 782.586 21.5494 785.098 Q21.5494 785.871 21.5172 786.193 Q21.485 786.483 21.324 786.741 Q21.163 786.966 20.8087 786.966 Q20.3578 786.966 20.068 786.838 Q19.7459 786.709 19.6493 786.483 Q19.5527 786.226 19.5205 786.065 Q19.4883 785.904 19.4883 785.646 L19.6815 776.854 L19.4883 768.158 Q19.4883 767.16 20.2934 767.16 Z" fill="#000000" fill-rule="nonzero" fill-opacity="1" /><path clip-path="url(#clip410)" d="M80.0997 768.95 Q79.7776 768.95 79.0691 768.693 L16.8474 745.408 Q16.783 745.408 16.4287 745.247 Q16.0744 745.086 15.849 744.989 Q15.5913 744.893 15.3981 744.699 Q15.2049 744.474 15.2049 744.216 Q15.2049 743.572 16.01 743.572 Q16.0744 743.572 16.8474 743.765 L79.1335 767.115 Q80.2607 767.501 80.5828 767.759 Q80.9048 767.984 80.9048 768.371 Q80.9048 768.95 80.0997 768.95 Z" fill="#000000" fill-rule="nonzero" fill-opacity="1" /><path clip-path="url(#clip410)" d="M20.2934 705.755 Q20.9053 705.755 21.1952 706.013 Q21.4528 706.238 21.5172 706.593 Q21.5494 706.947 21.5494 707.881 Q21.5494 709.459 21.6782 710.457 Q21.7749 711.456 21.9359 712.068 Q22.0647 712.679 22.5156 713.034 Q22.9343 713.356 23.3207 713.517 Q23.7072 713.646 24.5768 713.871 L59.7134 722.696 Q60.744 722.985 61.2593 722.985 Q61.8068 722.985 62.0322 722.663 Q62.2576 722.341 62.3543 721.311 Q62.5153 719.668 62.5153 718.477 Q62.5153 716.898 62.7407 716.673 Q62.9662 716.512 63.2882 716.512 Q63.8679 716.512 64.19 716.77 Q64.4798 717.027 64.512 717.253 Q64.5443 717.446 64.5443 717.832 L64.351 726.657 L64.5443 735.32 Q64.5443 736.286 63.8035 736.286 Q63.3204 736.286 63.0628 736.222 Q62.7729 736.125 62.6763 735.803 Q62.5475 735.449 62.5475 735.191 Q62.5153 734.934 62.5153 734.193 Q62.5153 732.873 62.4831 732.003 Q62.4187 731.101 62.2576 730.457 Q62.0644 729.781 61.9034 729.459 Q61.7101 729.104 61.2915 728.847 Q60.8406 728.557 60.4863 728.46 Q60.132 728.332 59.3913 728.171 L23.836 719.282 Q23.2563 719.153 22.8055 719.153 Q21.9359 719.153 21.7427 720.183 Q21.5494 721.182 21.5494 723.694 Q21.5494 724.467 21.5172 724.789 Q21.485 725.079 21.324 725.336 Q21.163 725.562 20.8087 725.562 Q20.3578 725.562 20.068 725.433 Q19.7459 725.304 19.6493 725.079 Q19.5527 724.821 19.5205 724.66 Q19.4883 724.499 19.4883 724.241 L19.6815 715.449 L19.4883 706.754 Q19.4883 705.755 20.2934 705.755 Z" fill="#000000" fill-rule="nonzero" fill-opacity="1" /><path clip-path="url(#clip410)" d="M68.0544 699.012 Q61.2687 699.012 57.5714 697.299 Q52.0707 694.909 52.0707 689.273 Q52.0707 688.078 52.4088 686.838 Q52.7244 685.576 53.9644 683.998 Q55.2043 682.397 57.2333 681.428 Q61.1559 679.579 68.0544 679.579 Q74.7951 679.579 78.4698 681.292 Q83.8353 683.795 83.8353 689.318 Q83.8353 691.392 82.7757 693.511 Q81.7162 695.608 79.1687 696.938 Q75.3587 699.012 68.0544 699.012 M67.4908 695.18 Q74.457 695.18 77.2299 694.684 Q80.2282 694.12 81.5358 692.587 Q82.8208 691.031 82.8208 689.318 Q82.8208 687.469 81.4456 685.936 Q80.0479 684.381 77.0495 683.907 Q74.0962 683.389 67.4908 683.411 Q61.0658 683.411 58.4957 683.862 Q55.4974 684.471 54.3025 686.094 Q53.0851 687.695 53.0851 689.318 Q53.0851 689.927 53.2655 690.581 Q53.4458 691.212 53.9644 692.136 Q54.4829 693.06 55.7679 693.782 Q57.0529 694.481 58.9917 694.819 Q61.4941 695.18 67.4908 695.18 Z" fill="#000000" fill-rule="nonzero" fill-opacity="1" /><polyline clip-path="url(#clip412)" style="stroke:#009af9; stroke-linecap:round; stroke-linejoin:round; stroke-width:8; stroke-opacity:1; fill:none" points="-9740.72,679.915 -9730.21,679.912 -9719.69,679.909 -9709.18,679.906 -9698.66,679.903 -9688.14,679.9 -9677.63,679.897 -9667.11,679.894 -9656.6,679.891 -9646.08,679.888 -9635.56,679.884 -9625.05,679.881 -9614.53,679.877 -9604.01,679.874 -9593.5,679.87 -9582.98,679.866 -9572.47,679.863 -9561.95,679.859 -9551.43,679.855 -9540.92,679.851 -9530.4,679.847 -9519.89,679.842 -9509.37,679.838 -9498.85,679.834 -9488.34,679.829 -9477.82,679.825 -9467.31,679.82 -9456.79,679.815 -9446.27,679.81 -9435.76,679.805 -9425.24,679.8 -9414.73,679.795 -9404.21,679.789 -9393.69,679.784 -9383.18,679.778 -9372.66,679.772 -9362.15,679.766 -9351.63,679.76 -9341.11,679.754 -9330.6,679.748 -9320.08,679.741 -9309.57,679.734 -9299.05,679.727 -9288.53,679.72 -9278.02,679.713 -9267.5,679.706 -9256.98,679.698 -9246.47,679.69 -9235.95,679.682 -9225.44,679.674 -9214.92,679.666 -9204.4,679.657 -9193.89,679.648 -9183.37,679.639 -9172.86,679.63 -9162.34,679.62 -9151.82,679.61 -9141.31,679.6 -9130.79,679.59 -9120.28,679.579 -9109.76,679.568 -9099.24,679.557 -9088.73,679.545 -9078.21,679.533 -9067.7,679.521 -9057.18,679.508 -9046.66,679.495 -9036.15,679.481 -9025.63,679.467 -9015.12,679.453 -9004.6,679.438 -8994.08,679.423 -8983.57,679.408 -8973.05,679.392 -8962.53,679.375 -8952.02,679.358 -8941.5,679.34 -8930.99,679.322 -8920.47,679.303 -8909.95,679.283 -8899.44,679.263 -8888.92,679.243 -8878.41,679.221 -8867.89,679.199 -8857.37,679.176 -8846.86,679.152 -8836.34,679.128 -8825.83,679.102 -8815.31,679.076 -8804.79,679.049 -8794.28,679.02 -8783.76,678.991 -8773.25,678.961 -8762.73,678.929 -8752.21,678.897 -8741.7,678.863 -8731.18,678.828 -8720.67,678.791 -8710.15,678.753 -8699.63,678.714 -8689.12,678.673 -8678.6,678.63 -8668.08,678.586 -8657.57,678.54 -8647.05,678.491 -8636.54,678.441 -8626.02,678.389 -8615.5,678.335 -8604.99,678.278 -8594.47,678.219 -8583.96,678.157 -8573.44,678.092 -8562.92,678.025 -8552.41,677.954 -8541.89,677.88 -8531.38,677.803 -8520.86,677.722 -8510.34,677.637 -8499.83,677.548 -8489.31,677.454 -8478.8,677.356 -8468.28,677.253 -8457.76,677.145 -8447.25,677.031 -8436.73,676.911 -8426.22,676.785 -8415.7,676.652 -8405.18,676.511 -8394.67,676.363 -8384.15,676.206 -8373.63,676.041 -8363.12,675.865 -8352.6,675.68 -8342.09,675.483 -8331.57,675.274 -8321.05,675.052 -8310.54,674.817 -8300.02,674.566 -8289.51,674.298 -8278.99,674.014 -8268.47,673.709 -8257.96,673.384 -8247.44,673.036 -8236.93,672.664 -8226.41,672.264 -8215.89,671.834 -8205.38,671.372 -8194.86,670.875 -8184.35,670.338 -8173.83,669.757 -8163.31,669.13 -8152.8,668.449 -8142.28,667.709 -8131.77,666.905 -8121.25,666.028 -8110.73,665.07 -8100.22,664.021 -8089.7,662.87 -8079.18,661.605 -8068.67,660.209 -8058.15,658.667 -8047.64,656.957 -8037.12,655.057 -8026.6,652.938 -8016.09,650.568 -8005.57,647.908 -7995.06,644.911 -7984.54,641.524 -7974.02,637.679 -7963.51,633.296 -7952.99,628.277 -7942.48,622.504 -7931.96,615.831 -7921.44,608.077 -7910.93,599.022 -7900.41,588.388 -7889.9,575.835 -7879.38,560.937 -7868.86,543.173 -7858.35,521.906 -7847.83,496.383 -7837.32,465.752 -7826.8,429.132 -7816.28,385.797 -7805.77,335.526 -7795.25,279.224 -7784.73,219.765 -7774.22,162.768 -7763.7,116.48 -7753.19,89.8207 -7742.67,88.7411 -7732.15,113.176 -7721.64,157.189 -7711.12,212.138 -7700.61,270.141 -7690.09,325.84 -7679.57,376.443 -7669.06,421.006 -7658.54,459.651 -7648.03,493.008 -7637.51,521.884 -7626.99,547.093 -7616.48,569.392 -7605.96,589.458 -7595.45,607.894 -7584.93,625.248 -7574.41,642.033 -7563.9,658.758 -7553.38,675.952 -7542.87,694.199 -7532.35,714.184 -7521.83,736.734 -7511.32,762.892 -7500.8,793.982 -7490.29,831.693 -7479.77,878.111 -7469.25,935.628 -7458.74,1006.46 -7448.22,1091.35 -7437.7,1186.87 -7427.19,1281.68 -7416.67,1355.07 -7406.16,1384.24 -7395.64,1359.74 -7385.12,1293.16 -7374.61,1207.1 -7364.09,1120.65 -7353.58,1043.91 -7343.06,979.944 -7332.54,928.183 -7322.03,886.779 -7311.51,853.706 -7301,827.182 -7290.48,805.766 -7279.96,788.334 -7269.45,774.024 -7258.93,762.178 -7248.42,752.292 -7237.9,743.979 -7227.38,736.938 -7216.87,730.935 -7206.35,725.788 -7195.84,721.349 -7185.32,717.502 -7174.8,714.155 -7164.29,711.232 -7153.77,708.671 -7143.25,706.424 -7132.74,704.45 -7122.22,702.717 -7111.71,701.198 -7101.19,699.874 -7090.67,698.728 -7080.16,697.752 -7069.64,696.94 -7059.13,696.293 -7048.61,695.818 -7038.09,695.532 -7027.58,695.461 -7017.06,695.645 -7006.55,696.145 -6996.03,697.04 -6985.51,698.434 -6975,700.436 -6964.48,703.103 -6953.97,706.3 -6943.45,709.492 -6932.93,711.666 -6922.42,711.822 -6911.9,709.815 -6901.39,706.47 -6890.87,702.808 -6880.35,699.461 -6869.84,696.649 -6859.32,694.37 -6848.8,692.542 -6838.29,691.072 -6827.77,689.878 -6817.26,688.898 -6806.74,688.083 -6796.22,687.396 -6785.71,686.81 -6775.19,686.305 -6764.68,685.866 -6754.16,685.48 -6743.64,685.138 -6733.13,684.833 -6722.61,684.559 -6712.1,684.312 -6701.58,684.087 -6691.06,683.882 -6680.55,683.694 -6670.03,683.521 -6659.52,683.362 -6649,683.214 -6638.48,683.076 -6627.97,682.948 -6617.45,682.829 -6606.94,682.717 -6596.42,682.612 -6585.9,682.513 -6575.39,682.421 -6564.87,682.333 -6554.35,682.25 -6543.84,682.172 -6533.32,682.098 -6522.81,682.028 -6512.29,681.962 -6501.77,681.898 -6491.26,681.838 -6480.74,681.781 -6470.23,681.726 -6459.71,681.674 -6449.19,681.624 -6438.68,681.577 -6428.16,681.532 -6417.65,681.488 -6407.13,681.446 -6396.61,681.407 -6386.1,681.368 -6375.58,681.332 -6365.07,681.296 -6354.55,681.263 -6344.03,681.23 -6333.52,681.199 -6323,681.169 -6312.49,681.14 -6301.97,681.112 -6291.45,681.085 -6280.94,681.059 -6270.42,681.034 -6259.9,681.01 -6249.39,680.987 -6238.87,680.965 -6228.36,680.943 -6217.84,680.922 -6207.32,680.902 -6196.81,680.883 -6186.29,680.864 -6175.78,680.846 -6165.26,680.828 -6154.74,680.811 -6144.23,680.794 -6133.71,680.778 -6123.2,680.763 -6112.68,680.748 -6102.16,680.733 -6091.65,680.719 -6081.13,680.705 -6070.62,680.692 -6060.1,680.679 -6049.58,680.666 -6039.07,680.654 -6028.55,680.642 -6018.04,680.631 -6007.52,680.62 -5997,680.609 -5986.49,680.598 -5975.97,680.588 -5965.45,680.578 -5954.94,680.568 -5944.42,680.559 -5933.91,680.55 -5923.39,680.541 -5912.87,680.532 -5902.36,680.523 -5891.84,680.515 -5881.33,680.507 -5870.81,680.499 -5860.29,680.492 -5849.78,680.484 -5839.26,680.477 -5828.75,680.47 -5818.23,680.463 -5807.71,680.456 -5797.2,680.45 -5786.68,680.443 -5776.17,680.437 -5765.65,680.431 -5755.13,680.425 -5744.62,680.419 -5734.1,680.413 -5723.59,680.408 -5713.07,680.402 -5702.55,680.397 -5692.04,680.392 -5681.52,680.387 -5671.01,680.382 -5660.49,680.377 -5649.97,680.372 -5639.46,680.368 -5628.94,680.363 -5618.42,680.359 -5607.91,680.354 -5597.39,680.35 -5586.88,680.346 -5576.36,680.342 -5565.84,680.338 -5555.33,680.334 -5544.81,680.33 -5534.3,680.327 -5523.78,680.323 -5513.26,680.319 -5502.75,680.316 -5492.23,680.312 -5481.72,680.309 -5471.2,680.306 -5460.68,680.303 -5450.17,680.299 -5439.65,680.296 -5429.14,680.293 -5418.62,680.29 -5408.1,680.287 -5397.59,680.285 -5387.07,680.282 -5376.56,680.279 -5366.04,680.276 -5355.52,680.274 -5345.01,680.271 -5334.49,680.268 -5323.97,680.266 -5313.46,680.264 -5302.94,680.261 -5292.43,680.259 -5281.91,680.256 -5271.39,680.254 -5260.88,680.252 -5250.36,680.25 -5239.85,680.248 -5229.33,680.245 -5218.81,680.243 -5208.3,680.241 -5197.78,680.239 -5187.27,680.237 -5176.75,680.235 -5166.23,680.233 -5155.72,680.232 -5145.2,680.23 -5134.69,680.228 -5124.17,680.226 -5113.65,680.224 -5103.14,680.223 -5092.62,680.221 -5082.11,680.219 -5071.59,680.218 -5061.07,680.216 -5050.56,680.214 -5040.04,680.213 -5029.52,680.211 -5019.01,680.21 -5008.49,680.208 -4997.98,680.207 -4987.46,680.205 -4976.94,680.204 -4966.43,680.203 -4955.91,680.201 -4945.4,680.2 -4934.88,680.198 -4924.36,680.197 -4913.85,680.196 -4903.33,680.195 -4892.82,680.193 -4882.3,680.192 -4871.78,680.191 -4861.27,680.19 -4850.75,680.188 -4840.24,680.187 -4829.72,680.186 -4819.2,680.185 -4808.69,680.184 -4798.17,680.183 -4787.66,680.182 -4777.14,680.181 -4766.62,680.179 -4756.11,680.178 -4745.59,680.177 -4735.07,680.176 -4724.56,680.175 -4714.04,680.174 -4703.53,680.173 -4693.01,680.172 -4682.49,680.171 -4671.98,680.171 -4661.46,680.17 -4650.95,680.169 -4640.43,680.168 -4629.91,680.167 -4619.4,680.166 -4608.88,680.165 -4598.37,680.164 -4587.85,680.163 -4577.33,680.163 -4566.82,680.162 -4556.3,680.161 -4545.79,680.16 -4535.27,680.159 -4524.75,680.159 -4514.24,680.158 -4503.72,680.157 -4493.21,680.156 -4482.69,680.155 -4472.17,680.155 -4461.66,680.154 -4451.14,680.153 -4440.62,680.153 -4430.11,680.152 -4419.59,680.151 -4409.08,680.15 -4398.56,680.15 -4388.04,680.149 -4377.53,680.148 -4367.01,680.148 -4356.5,680.147 -4345.98,680.146 -4335.46,680.146 -4324.95,680.145 -4314.43,680.144 -4303.92,680.144 -4293.4,680.143 -4282.88,680.143 -4272.37,680.142 -4261.85,680.141 -4251.34,680.141 -4240.82,680.14 -4230.3,680.14 -4219.79,680.139 -4209.27,680.138 -4198.76,680.138 -4188.24,680.137 -4177.72,680.137 -4167.21,680.136 -4156.69,680.136 -4146.17,680.135 -4135.66,680.134 -4125.14,680.134 -4114.63,680.133 -4104.11,680.133 -4093.59,680.132 -4083.08,680.132 -4072.56,680.131 -4062.05,680.131 -4051.53,680.13 -4041.01,680.13 -4030.5,680.129 -4019.98,680.129 -4009.47,680.128 -3998.95,680.128 -3988.43,680.127 -3977.92,680.127 -3967.4,680.126 -3956.89,680.126 -3946.37,680.125 -3935.85,680.125 -3925.34,680.124 -3914.82,680.124 -3904.31,680.123 -3893.79,680.123 -3883.27,680.122 -3872.76,680.122 -3862.24,680.121 -3851.73,680.121 -3841.21,680.121 -3830.69,680.12 -3820.18,680.12 -3809.66,680.119 -3799.14,680.119 -3788.63,680.118 -3778.11,680.118 -3767.6,680.117 -3757.08,680.117 -3746.56,680.117 -3736.05,680.116 -3725.53,680.116 -3715.02,680.115 -3704.5,680.115 -3693.98,680.114 -3683.47,680.114 -3672.95,680.114 -3662.44,680.113 -3651.92,680.113 -3641.4,680.112 -3630.89,680.112 -3620.37,680.111 -3609.86,680.111 -3599.34,680.111 -3588.82,680.11 -3578.31,680.11 -3567.79,680.109 -3557.28,680.109 -3546.76,680.108 -3536.24,680.108 -3525.73,680.108 -3515.21,680.107 -3504.69,680.107 -3494.18,680.106 -3483.66,680.106 -3473.15,680.106 -3462.63,680.105 -3452.11,680.105 -3441.6,680.104 -3431.08,680.104 -3420.57,680.104 -3410.05,680.103 -3399.53,680.103 -3389.02,680.102 -3378.5,680.102 -3367.99,680.101 -3357.47,680.101 -3346.95,680.101 -3336.44,680.1 -3325.92,680.1 -3315.41,680.099 -3304.89,680.099 -3294.37,680.099 -3283.86,680.098 -3273.34,680.098 -3262.83,680.097 -3252.31,680.097 -3241.79,680.096 -3231.28,680.096 -3220.76,680.096 -3210.24,680.095 -3199.73,680.095 -3189.21,680.094 -3178.7,680.094 -3168.18,680.093 -3157.66,680.093 -3147.15,680.093 -3136.63,680.092 -3126.12,680.092 -3115.6,680.091 -3105.08,680.091 -3094.57,680.09 -3084.05,680.09 -3073.54,680.09 -3063.02,680.089 -3052.5,680.089 -3041.99,680.088 -3031.47,680.088 -3020.96,680.087 -3010.44,680.087 -2999.92,680.086 -2989.41,680.086 -2978.89,680.085 -2968.38,680.085 -2957.86,680.084 -2947.34,680.084 -2936.83,680.084 -2926.31,680.083 -2915.79,680.083 -2905.28,680.082 -2894.76,680.082 -2884.25,680.081 -2873.73,680.081 -2863.21,680.08 -2852.7,680.08 -2842.18,680.079 -2831.67,680.079 -2821.15,680.078 -2810.63,680.078 -2800.12,680.077 -2789.6,680.077 -2779.09,680.076 -2768.57,680.075 -2758.05,680.075 -2747.54,680.074 -2737.02,680.074 -2726.51,680.073 -2715.99,680.073 -2705.47,680.072 -2694.96,680.072 -2684.44,680.071 -2673.93,680.07 -2663.41,680.07 -2652.89,680.069 -2642.38,680.069 -2631.86,680.068 -2621.34,680.068 -2610.83,680.067 -2600.31,680.066 -2589.8,680.066 -2579.28,680.065 -2568.76,680.064 -2558.25,680.064 -2547.73,680.063 -2537.22,680.063 -2526.7,680.062 -2516.18,680.061 -2505.67,680.061 -2495.15,680.06 -2484.64,680.059 -2474.12,680.059 -2463.6,680.058 -2453.09,680.057 -2442.57,680.056 -2432.06,680.056 -2421.54,680.055 -2411.02,680.054 -2400.51,680.054 -2389.99,680.053 -2379.48,680.052 -2368.96,680.051 -2358.44,680.05 -2347.93,680.05 -2337.41,680.049 -2326.89,680.048 -2316.38,680.047 -2305.86,680.046 -2295.35,680.046 -2284.83,680.045 -2274.31,680.044 -2263.8,680.043 -2253.28,680.042 -2242.77,680.041 -2232.25,680.04 -2221.73,680.039 -2211.22,680.039 -2200.7,680.038 -2190.19,680.037 -2179.67,680.036 -2169.15,680.035 -2158.64,680.034 -2148.12,680.033 -2137.61,680.032 -2127.09,680.031 -2116.57,680.03 -2106.06,680.029 -2095.54,680.028 -2085.03,680.027 -2074.51,680.025 -2063.99,680.024 -2053.48,680.023 -2042.96,680.022 -2032.45,680.021 -2021.93,680.02 -2011.41,680.019 -2000.9,680.017 -1990.38,680.016 -1979.86,680.015 -1969.35,680.014 -1958.83,680.012 -1948.32,680.011 -1937.8,680.01 -1927.28,680.008 -1916.77,680.007 -1906.25,680.006 -1895.74,680.004 -1885.22,680.003 -1874.7,680.001 -1864.19,680 -1853.67,679.998 -1843.16,679.997 -1832.64,679.995 -1822.12,679.994 -1811.61,679.992 -1801.09,679.991 -1790.58,679.989 -1780.06,679.987 -1769.54,679.986 -1759.03,679.984 -1748.51,679.982 -1738,679.98 -1727.48,679.978 -1716.96,679.977 -1706.45,679.975 -1695.93,679.973 -1685.41,679.971 -1674.9,679.969 -1664.38,679.967 -1653.87,679.965 -1643.35,679.963 -1632.83,679.961 -1622.32,679.958 -1611.8,679.956 -1601.29,679.954 -1590.77,679.952 -1580.25,679.949 -1569.74,679.947 -1559.22,679.945 -1548.71,679.942 -1538.19,679.94 -1527.67,679.937 -1517.16,679.935 -1506.64,679.932 -1496.13,679.929 -1485.61,679.926 -1475.09,679.924 -1464.58,679.921 -1454.06,679.918 -1443.55,679.915 -1433.03,679.912 -1422.51,679.909 -1412,679.906 -1401.48,679.903 -1390.96,679.899 -1380.45,679.896 -1369.93,679.893 -1359.42,679.889 -1348.9,679.885 -1338.38,679.882 -1327.87,679.878 -1317.35,679.874 -1306.84,679.871 -1296.32,679.867 -1285.8,679.863 -1275.29,679.858 -1264.77,679.854 -1254.26,679.85 -1243.74,679.846 -1233.22,679.841 -1222.71,679.837 -1212.19,679.832 -1201.68,679.827 -1191.16,679.822 -1180.64,679.817 -1170.13,679.812 -1159.61,679.807 -1149.1,679.801 -1138.58,679.796 -1128.06,679.79 -1117.55,679.785 -1107.03,679.779 -1096.51,679.773 -1086,679.766 -1075.48,679.76 -1064.97,679.754 -1054.45,679.747 -1043.93,679.74 -1033.42,679.733 -1022.9,679.726 -1012.39,679.719 -1001.87,679.711 -991.354,679.704 -980.838,679.696 -970.322,679.688 -959.806,679.679 -949.29,679.671 -938.774,679.662 -928.258,679.653 -917.742,679.644 -907.226,679.634 -896.71,679.625 -886.193,679.614 -875.677,679.604 -865.161,679.594 -854.645,679.583 -844.129,679.572 -833.613,679.56 -823.097,679.548 -812.581,679.536 -802.065,679.524 -791.549,679.511 -781.033,679.498 -770.517,679.484 -760.001,679.47 -749.485,679.455 -738.968,679.44 -728.452,679.425 -717.936,679.409 -707.42,679.393 -696.904,679.376 -686.388,679.359 -675.872,679.341 -665.356,679.322 -654.84,679.303 -644.324,679.283 -633.808,679.263 -623.292,679.242 -612.776,679.22 -602.26,679.197 -591.744,679.174 -581.227,679.15 -570.711,679.125 -560.195,679.099 -549.679,679.073 -539.163,679.045 -528.647,679.016 -518.131,678.987 -507.615,678.956 -497.099,678.924 -486.583,678.891 -476.067,678.856 -465.551,678.821 -455.035,678.783 -444.519,678.745 -434.002,678.705 -423.486,678.663 -412.97,678.62 -402.454,678.575 -391.938,678.528 -381.422,678.479 -370.906,678.428 -360.39,678.375 -349.874,678.32 -339.358,678.262 -328.842,678.202 -318.326,678.139 -307.81,678.073 -297.294,678.004 -286.778,677.932 -276.261,677.857 -265.745,677.778 -255.229,677.696 -244.713,677.609 -234.197,677.518 -223.681,677.423 -213.165,677.323 -202.649,677.218 -192.133,677.107 -181.617,676.991 -171.101,676.869 -160.585,676.74 -150.069,676.604 -139.553,676.46 -129.036,676.309 -118.52,676.148 -108.004,675.979 -97.4883,675.8 -86.9722,675.61 -76.4561,675.408 -65.94,675.194 -55.424,674.967 -44.9079,674.725 -34.3918,674.468 -23.8758,674.194 -13.3597,673.902 -2.84363,673.589 7.67244,673.255 18.1885,672.898 28.7046,672.515 39.2206,672.103 49.7367,671.661 60.2528,671.185 70.7689,670.672 81.2849,670.119 91.801,669.52 102.317,668.872 112.833,668.169 123.349,667.404 133.865,666.572 144.381,665.663 154.897,664.67 165.413,663.582 175.93,662.388 186.446,661.072 196.962,659.62 207.478,658.014 217.994,656.231 228.51,654.248 239.026,652.033 249.542,649.552 260.058,646.764 270.574,643.62 281.09,640.059 291.606,636.01 302.122,631.386 312.638,626.083 323.155,619.971 333.671,612.891 344.187,604.649 354.703,595.002 365.219,583.649 375.735,570.218 386.251,554.248 396.767,535.172 407.283,512.308 417.799,484.857 428.315,451.944 438.831,412.721 449.347,366.605 459.863,313.735 470.379,255.691 480.896,196.374 491.412,142.548 501.928,103.081 512.444,86.1857 522.96,95.644 533.476,128.824 543.992,178.247 554.508,235.232 565.024,292.805 575.54,346.687 586.056,394.924 596.572,437.078 607.088,473.528 617.604,505.001 628.121,532.322 638.637,556.286 649.153,577.62 659.669,596.968 670.185,614.91 680.701,631.977 691.217,648.677 701.733,665.522 712.249,683.061 722.765,701.911 733.281,722.808 743.797,746.655 754.313,774.599 764.829,808.1 775.346,849.005 785.862,899.549 796.378,962.142 806.894,1038.64 817.41,1128.52 827.926,1225.68 838.442,1314.85 848.958,1372.98 859.474,1380.71 869.99,1337.08 880.506,1259.99 891.022,1171.98 901.538,1088.66 912.054,1016.91 922.57,957.974 933.087,910.582 943.603,872.728 954.119,842.458 964.635,818.121 975.151,798.409 985.667,782.311 996.183,769.051 1006.7,758.038 1017.22,748.82 1027.73,741.045 1038.25,734.442 1048.76,728.8 1059.28,723.95 1069.8,719.759 1080.31,716.121 1090.83,712.951 1101.34,710.179 1111.86,707.749 1122.38,705.615 1132.89,703.74 1143.41,702.095 1153.92,700.656 1164.44,699.404 1174.96,698.327 1185.47,697.416 1195.99,696.669 1206.5,696.089 1217.02,695.687 1227.54,695.483 1238.05,695.508 1248.57,695.809 1259.08,696.455 1269.6,697.536 1280.12,699.16 1290.63,701.426 1301.15,704.338 1311.67,707.626 1322.18,710.552 1332.7,712.012 1343.21,711.258 1353.73,708.588 1364.25,705.011 1374.76,701.425 1385.28,698.281 1395.79,695.689 1406.31,693.601 1416.83,691.926 1427.34,690.575 1437.86,689.473 1448.37,688.563 1458.89,687.803 1469.41,687.159 1479.92,686.608 1490.44,686.131 1500.95,685.714 1511.47,685.346 1521.99,685.02 1532.5,684.728 1543.02,684.465 1553.53,684.227 1564.05,684.011 1574.57,683.813 1585.08,683.631 1595.6,683.464 1606.11,683.309 1616.63,683.165 1627.15,683.032 1637.66,682.907 1648.18,682.791 1658.7,682.682 1669.21,682.579 1679.73,682.483 1690.24,682.393 1700.76,682.307 1711.28,682.226 1721.79,682.15 1732.31,682.077 1742.82,682.009 1753.34,681.944 1763.86,681.882 1774.37,681.823 1784.89,681.766 1795.4,681.713 1805.92,681.662 1816.44,681.613 1826.95,681.566 1837.47,681.522 1847.98,681.479 1858.5,681.438 1869.02,681.399 1879.53,681.361 1890.05,681.325 1900.56,681.291 1911.08,681.257 1921.6,681.225 1932.11,681.195 1942.63,681.165 1953.15,681.137 1963.66,681.109 1974.18,681.083 1984.69,681.057 1995.21,681.033 2005.73,681.009 2016.24,680.986 2026.76,680.964 2037.27,680.943 2047.79,680.922 2058.31,680.902 2068.82,680.883 2079.34,680.864 2089.85,680.846 2100.37,680.829 2110.89,680.812 2121.4,680.796 2131.92,680.78 2142.43,680.765 2152.95,680.75 2163.47,680.735 2173.98,680.721 2184.5,680.708 2195.01,680.695 2205.53,680.682 2216.05,680.67 2226.56,680.658 2237.08,680.646 2247.6,680.635 2258.11,680.624 2268.63,680.613 2279.14,680.602 2289.66,680.592 2300.18,680.582 2310.69,680.573 2321.21,680.564 2331.72,680.554 2342.24,680.546 2352.76,680.537 2363.27,680.529 2373.79,680.521 2384.3,680.513 2394.82,680.505 2405.34,680.497 2415.85,680.49 2426.37,680.483 2436.88,680.476 2447.4,680.469 2457.92,680.462 2468.43,680.456 2478.95,680.45 2489.46,680.443 2499.98,680.437 2510.5,680.431 2521.01,680.426 2531.53,680.42 2542.05,680.415 2552.56,680.409 2563.08,680.404 2573.59,680.399 2584.11,680.394 2594.63,680.389 2605.14,680.384 2615.66,680.38 2626.17,680.375 2636.69,680.371 2647.21,680.366 2657.72,680.362 2668.24,680.358 2678.75,680.354 2689.27,680.35 2699.79,680.346 2710.3,680.342 2720.82,680.338 2731.33,680.335 2741.85,680.331 2752.37,680.328 2762.88,680.324 2773.4,680.321 2783.91,680.318 2794.43,680.314 2804.95,680.311 2815.46,680.308 2825.98,680.305 2836.5,680.302 2847.01,680.299 2857.53,680.296 2868.04,680.294 2878.56,680.291 2889.08,680.288 2899.59,680.285 2910.11,680.283 2920.62,680.28 2931.14,680.278 2941.66,680.275 2952.17,680.273 2962.69,680.271 2973.2,680.268 2983.72,680.266 2994.24,680.264 3004.75,680.262 3015.27,680.26 3025.78,680.257 3036.3,680.255 3046.82,680.253 3057.33,680.251 3067.85,680.249 3078.36,680.247 3088.88,680.246 3099.4,680.244 3109.91,680.242 3120.43,680.24 3130.95,680.238 3141.46,680.237 3151.98,680.235 3162.49,680.233 3173.01,680.232 3183.53,680.23 3194.04,680.228 3204.56,680.227 3215.07,680.225 3225.59,680.224 3236.11,680.222 3246.62,680.221 3257.14,680.219 3267.65,680.218 3278.17,680.217 3288.69,680.215 3299.2,680.214 3309.72,680.213 3320.23,680.211 3330.75,680.21 3341.27,680.209 3351.78,680.208 3362.3,680.206 3372.81,680.205 3383.33,680.204 3393.85,680.203 3404.36,680.202 3414.88,680.201 3425.39,680.199 3435.91,680.198 3446.43,680.197 3456.94,680.196 3467.46,680.195 3477.98,680.194 3488.49,680.193 3499.01,680.192 3509.52,680.191 3520.04,680.19 3530.56,680.189 3541.07,680.188 3551.59,680.187 3562.1,680.187 3572.62,680.186 3583.14,680.185 3593.65,680.184 3604.17,680.183 3614.68,680.182 3625.2,680.181 3635.72,680.181 3646.23,680.18 3656.75,680.179 3667.26,680.178 3677.78,680.177 3688.3,680.177 3698.81,680.176 3709.33,680.175 3719.84,680.174 3730.36,680.174 3740.88,680.173 3751.39,680.172 3761.91,680.172 3772.43,680.171 3782.94,680.17 3793.46,680.17 3803.97,680.169 3814.49,680.168 3825.01,680.168 3835.52,680.167 3846.04,680.166 3856.55,680.166 3867.07,680.165 3877.59,680.165 3888.1,680.164 3898.62,680.163 3909.13,680.163 3919.65,680.162 3930.17,680.162 3940.68,680.161 3951.2,680.161 3961.71,680.16 3972.23,680.16 3982.75,680.159 3993.26,680.158 4003.78,680.158 4014.29,680.157 4024.81,680.157 4035.33,680.156 4045.84,680.156 4056.36,680.156 4066.88,680.155 4077.39,680.155 4087.91,680.154 4098.42,680.154 4108.94,680.153 4119.46,680.153 4129.97,680.152 4140.49,680.152 4151,680.151 4161.52,680.151 4172.04,680.151 4182.55,680.15 4193.07,680.15 4203.58,680.149 4214.1,680.149 4224.62,680.149 4235.13,680.148 4245.65,680.148 4256.16,680.147 4266.68,680.147 4277.2,680.147 4287.71,680.146 4298.23,680.146 4308.74,680.146 4319.26,680.145 4329.78,680.145 4340.29,680.145 4350.81,680.144 4361.33,680.144 4371.84,680.144 4382.36,680.143 4392.87,680.143 4403.39,680.143 4413.91,680.142 4424.42,680.142 4434.94,680.142 4445.45,680.141 4455.97,680.141 4466.49,680.141 4477,680.14 4487.52,680.14 4498.03,680.14 4508.55,680.14 4519.07,680.139 4529.58,680.139 4540.1,680.139 4550.61,680.138 4561.13,680.138 4571.65,680.138 4582.16,680.138 4592.68,680.137 4603.19,680.137 4613.71,680.137 4624.23,680.137 4634.74,680.136 4645.26,680.136 4655.78,680.136 4666.29,680.136 4676.81,680.135 4687.32,680.135 4697.84,680.135 4708.36,680.135 4718.87,680.134 4729.39,680.134 4739.9,680.134 4750.42,680.134 4760.94,680.133 4771.45,680.133 4781.97,680.133 4792.48,680.133 4803,680.133 4813.52,680.132 4824.03,680.132 4834.55,680.132 4845.06,680.132 4855.58,680.132 4866.1,680.131 4876.61,680.131 4887.13,680.131 4897.64,680.131 4908.16,680.131 4918.68,680.13 4929.19,680.13 4939.71,680.13 4950.23,680.13 4960.74,680.13 4971.26,680.129 4981.77,680.129 4992.29,680.129 5002.81,680.129 5013.32,680.129 5023.84,680.129 5034.35,680.128 5044.87,680.128 5055.39,680.128 5065.9,680.128 5076.42,680.128 5086.93,680.128 5097.45,680.127 5107.97,680.127 5118.48,680.127 5129,680.127 5139.51,680.127 5150.03,680.127 5160.55,680.126 5171.06,680.126 5181.58,680.126 5192.09,680.126 5202.61,680.126 5213.13,680.126 5223.64,680.126 5234.16,680.125 5244.67,680.125 5255.19,680.125 5265.71,680.125 5276.22,680.125 5286.74,680.125 5297.26,680.125 5307.77,680.124 5318.29,680.124 5328.8,680.124 5339.32,680.124 5349.84,680.124 5360.35,680.124 5370.87,680.124 5381.38,680.124 5391.9,680.123 5402.42,680.123 5412.93,680.123 5423.45,680.123 5433.96,680.123 5444.48,680.123 5455,680.123 5465.51,680.123 5476.03,680.122 5486.54,680.122 5497.06,680.122 5507.58,680.122 5518.09,680.122 5528.61,680.122 5539.12,680.122 5549.64,680.122 5560.16,680.122 5570.67,680.121 5581.19,680.121 5591.71,680.121 5602.22,680.121 5612.74,680.121 5623.25,680.121 5633.77,680.121 5644.29,680.121 5654.8,680.121 5665.32,680.12 5675.83,680.12 5686.35,680.12 5696.87,680.12 5707.38,680.12 5717.9,680.12 5728.41,680.12 5738.93,680.12 5749.45,680.12 5759.96,680.12 5770.48,680.12 5780.99,680.119 5791.51,680.119 5802.03,680.119 5812.54,680.119 5823.06,680.119 5833.57,680.119 5844.09,680.119 5854.61,680.119 5865.12,680.119 5875.64,680.119 5886.16,680.119 5896.67,680.118 5907.19,680.118 5917.7,680.118 5928.22,680.118 5938.74,680.118 5949.25,680.118 5959.77,680.118 5970.28,680.118 5980.8,680.118 5991.32,680.118 6001.83,680.118 6012.35,680.118 6022.86,680.118 6033.38,680.117 6043.9,680.117 6054.41,680.117 6064.93,680.117 6075.44,680.117 6085.96,680.117 6096.48,680.117 6106.99,680.117 6117.51,680.117 6128.02,680.117 6138.54,680.117 6149.06,680.117 6159.57,680.117 6170.09,680.117 6180.61,680.116 6191.12,680.116 6201.64,680.116 6212.15,680.116 6222.67,680.116 6233.19,680.116 6243.7,680.116 6254.22,680.116 6264.73,680.116 6275.25,680.116 6285.77,680.116 6296.28,680.116 6306.8,680.116 6317.31,680.116 6327.83,680.116 6338.35,680.115 6348.86,680.115 6359.38,680.115 6369.89,680.115 6380.41,680.115 6390.93,680.115 6401.44,680.115 6411.96,680.115 6422.47,680.115 6432.99,680.115 6443.51,680.115 6454.02,680.115 6464.54,680.115 6475.06,680.115 6485.57,680.115 6496.09,680.115 6506.6,680.115 6517.12,680.115 6527.64,680.114 6538.15,680.114 6548.67,680.114 6559.18,680.114 6569.7,680.114 6580.22,680.114 6590.73,680.114 6601.25,680.114 6611.76,680.114 6622.28,680.114 6632.8,680.114 6643.31,680.114 6653.83,680.114 6664.34,680.114 6674.86,680.114 6685.38,680.114 6695.89,680.114 6706.41,680.114 6716.92,680.114 6727.44,680.114 6737.96,680.113 6748.47,680.113 6758.99,680.113 6769.51,680.113 6780.02,680.113 6790.54,680.113 6801.05,680.113 6811.57,680.113 6822.09,680.113 6832.6,680.113 6843.12,680.113 6853.63,680.113 6864.15,680.113 6874.67,680.113 6885.18,680.113 6895.7,680.113 6906.21,680.113 6916.73,680.113 6927.25,680.113 6937.76,680.113 6948.28,680.113 6958.79,680.113 6969.31,680.113 6979.83,680.112 6990.34,680.112 7000.86,680.112 7011.37,680.112 7021.89,680.112 7032.41,680.112 7042.92,680.112 7053.44,680.112 7063.95,680.112 7074.47,680.112 7084.99,680.112 7095.5,680.112 7106.02,680.112 7116.54,680.112 7127.05,680.112 7137.57,680.112 7148.08,680.112 7158.6,680.112 7169.12,680.112 7179.63,680.112 7190.15,680.112 7200.66,680.112 7211.18,680.112 7221.7,680.112 7232.21,680.112 7242.73,680.112 7253.24,680.112 7263.76,680.112 7274.28,680.111 7284.79,680.111 7295.31,680.111 7305.82,680.111 7316.34,680.111 7326.86,680.111 7337.37,680.111 7347.89,680.111 7358.4,680.111 7368.92,680.111 7379.44,680.111 7389.95,680.111 7400.47,680.111 7410.99,680.111 7421.5,680.111 7432.02,680.111 7442.53,680.111 7453.05,680.111 7463.57,680.111 7474.08,680.111 7484.6,680.111 7495.11,680.111 7505.63,680.111 7516.15,680.111 7526.66,680.111 7537.18,680.111 7547.69,680.111 7558.21,680.111 7568.73,680.111 7579.24,680.111 7589.76,680.111 7600.27,680.111 7610.79,680.111 7621.31,680.11 7631.82,680.11 7642.34,680.11 7652.85,680.11 7663.37,680.11 7673.89,680.11 7684.4,680.11 7694.92,680.11 7705.44,680.11 7715.95,680.11 7726.47,680.11 7736.98,680.11 7747.5,680.11 7758.02,680.11 7768.53,680.11 7779.05,680.11 7789.56,680.11 7800.08,680.11 7810.6,680.11 7821.11,680.11 7831.63,680.11 7842.14,680.11 7852.66,680.11 7863.18,680.11 7873.69,680.11 7884.21,680.11 7894.72,680.11 7905.24,680.11 7915.76,680.11 7926.27,680.11 7936.79,680.11 7947.3,680.11 7957.82,680.11 7968.34,680.11 7978.85,680.11 7989.37,680.11 7999.89,680.11 8010.4,680.11 8020.92,680.11 8031.43,680.11 8041.95,680.11 8052.47,680.11 8062.98,680.109 8073.5,680.109 8084.01,680.109 8094.53,680.109 8105.05,680.109 8115.56,680.109 8126.08,680.109 8136.59,680.109 8147.11,680.109 8157.63,680.109 8168.14,680.109 8178.66,680.109 8189.17,680.109 8199.69,680.109 8210.21,680.109 8220.72,680.109 8231.24,680.109 8241.75,680.109 8252.27,680.109 8262.79,680.109 8273.3,680.109 8283.82,680.109 8294.34,680.109 8304.85,680.109 8315.37,680.109 8325.88,680.109 8336.4,680.109 8346.92,680.109 8357.43,680.109 8367.95,680.109 8378.46,680.109 8388.98,680.109 8399.5,680.109 8410.01,680.109 8420.53,680.109 8431.04,680.109 8441.56,680.109 8452.08,680.109 8462.59,680.109 8473.11,680.109 8483.62,680.109 8494.14,680.109 8504.66,680.109 8515.17,680.109 8525.69,680.109 8536.2,680.109 8546.72,680.109 8557.24,680.109 8567.75,680.109 8578.27,680.109 8588.79,680.109 8599.3,680.109 8609.82,680.109 8620.33,680.109 8630.85,680.108 8641.37,680.108 8651.88,680.108 8662.4,680.108 8672.91,680.108 8683.43,680.108 8693.95,680.108 8704.46,680.108 8714.98,680.108 8725.49,680.108 8736.01,680.108 8746.53,680.108 8757.04,680.108 8767.56,680.108 8778.07,680.108 8788.59,680.108 8799.11,680.108 8809.62,680.108 8820.14,680.108 8830.65,680.108 8841.17,680.108 8851.69,680.108 8862.2,680.108 8872.72,680.108 8883.23,680.108 8893.75,680.108 8904.27,680.108 8914.78,680.108 8925.3,680.108 8935.82,680.108 8946.33,680.108 8956.85,680.108 8967.36,680.108 8977.88,680.108 8988.4,680.108 8998.91,680.108 9009.43,680.108 9019.94,680.108 9030.46,680.108 9040.98,680.108 9051.49,680.108 9062.01,680.108 9072.52,680.108 9083.04,680.108 9093.56,680.108 9104.07,680.108 9114.59,680.108 9125.1,680.108 9135.62,680.108 9146.14,680.108 9156.65,680.108 9167.17,680.108 9177.68,680.108 9188.2,680.108 9198.72,680.108 9209.23,680.108 9219.75,680.108 9230.27,680.108 9240.78,680.108 9251.3,680.108 9261.81,680.108 9272.33,680.108 9282.85,680.108 9293.36,680.108 9303.88,680.108 9314.39,680.108 9324.91,680.108 9335.43,680.108 9345.94,680.108 9356.46,680.108 9366.97,680.108 9377.49,680.108 9388.01,680.108 9398.52,680.108 9409.04,680.108 9419.55,680.107 9430.07,680.107 9440.59,680.107 9451.1,680.107 9461.62,680.107 9472.13,680.107 9482.65,680.107 9493.17,680.107 9503.68,680.107 9514.2,680.107 9524.72,680.107 9535.23,680.107 9545.75,680.107 9556.26,680.107 9566.78,680.107 9577.3,680.107 9587.81,680.107 9598.33,680.107 9608.84,680.107 9619.36,680.107 9629.88,680.107 9640.39,680.107 9650.91,680.107 9661.42,680.107 9671.94,680.107 9682.46,680.107 9692.97,680.107 9703.49,680.107 9714,680.107 9724.52,680.107 9735.04,680.107 9745.55,680.107 9756.07,680.107 9766.58,680.107 9777.1,680.107 9787.62,680.107 9798.13,680.107 9808.65,680.107 9819.17,680.107 9829.68,680.107 9840.2,680.107 9850.71,680.107 9861.23,680.107 9871.75,680.107 9882.26,680.107 9892.78,680.107 9903.29,680.107 9913.81,680.107 9924.33,680.107 9934.84,680.107 9945.36,680.107 9955.87,680.107 9966.39,680.107 9976.91,680.107 9987.42,680.107 9997.94,680.107 10008.5,680.107 10019,680.107 10029.5,680.107 10040,680.107 10050.5,680.107 10061,680.107 10071.6,680.107 10082.1,680.107 10092.6,680.107 10103.1,680.107 10113.6,680.107 10124.1,680.107 10134.6,680.107 10145.2,680.107 10155.7,680.107 10166.2,680.107 10176.7,680.107 10187.2,680.107 10197.7,680.107 10208.3,680.107 10218.8,680.107 10229.3,680.107 10239.8,680.107 10250.3,680.107 10260.8,680.107 10271.4,680.107 10281.9,680.107 10292.4,680.107 10302.9,680.107 10313.4,680.107 10323.9,680.107 10334.5,680.107 10345,680.107 10355.5,680.107 10366,680.107 10376.5,680.107 10387,680.107 10397.5,680.107 10408.1,680.107 10418.6,680.107 10429.1,680.107 10439.6,680.107 10450.1,680.107 10460.6,680.107 10471.2,680.107 10481.7,680.107 10492.2,680.107 10502.7,680.107 10513.2,680.107 10523.7,680.107 10534.3,680.107 10544.8,680.107 10555.3,680.107 10565.8,680.107 10576.3,680.107 10586.8,680.107 10597.4,680.107 10607.9,680.107 10618.4,680.107 10628.9,680.107 10639.4,680.107 10649.9,680.106 10660.5,680.106 10671,680.106 10681.5,680.106 10692,680.106 10702.5,680.106 10713,680.106 10723.5,680.106 10734.1,680.106 10744.6,680.106 10755.1,680.106 10765.6,680.106 10776.1,680.106 10786.6,680.106 10797.2,680.106 10807.7,680.106 10818.2,680.106 10828.7,680.106 10839.2,680.106 10849.7,680.106 10860.3,680.106 10870.8,680.106 10881.3,680.106 10891.8,680.106 10902.3,680.106 10912.8,680.106 10923.4,680.106 10933.9,680.106 10944.4,680.106 10954.9,680.106 10965.4,680.106 10975.9,680.106 10986.4,680.106 10997,680.106 11007.5,680.106 11018,680.106 11028.5,680.106 11039,680.106 11049.5,680.106 11060.1,680.106 11070.6,680.106 11081.1,680.106 11091.6,680.106 11102.1,680.106 11112.6,680.106 11123.2,680.106 11133.7,680.106 11144.2,680.106 11154.7,680.106 11165.2,680.106 11175.7,680.106 11186.3,680.106 11196.8,680.106 11207.3,680.106 11217.8,680.106 11228.3,680.106 11238.8,680.106 11249.4,680.106 11259.9,680.106 11270.4,680.106 11280.9,680.106 11291.4,680.106 11301.9,680.106 11312.4,680.106 11323,680.106 11333.5,680.106 11344,680.106 11354.5,680.106 11365,680.106 11375.5,680.106 11386.1,680.106 11396.6,680.106 11407.1,680.106 11417.6,680.106 11428.1,680.106 11438.6,680.106 11449.2,680.106 11459.7,680.106 11470.2,680.106 11480.7,680.106 11491.2,680.106 11501.7,680.106 11512.3,680.106 11522.8,680.106 11533.3,680.106 11543.8,680.106 11554.3,680.106 11564.8,680.106 11575.3,680.106 11585.9,680.106 11596.4,680.106 11606.9,680.106 11617.4,680.106 11627.9,680.106 11638.4,680.106 11649,680.106 11659.5,680.106 11670,680.106 11680.5,680.106 11691,680.106 11701.5,680.106 11712.1,680.106 11722.6,680.106 11733.1,680.106 11743.6,680.106 11754.1,680.106 11764.6,680.106 11775.2,680.106 11785.7,680.106 11796.2,680.106 11806.7,680.106 11817.2,680.106 11827.7,680.106 11838.3,680.106 11848.8,680.106 11859.3,680.106 11869.8,680.106 11880.3,680.106 11890.8,680.106 11901.3,680.106 11911.9,680.106 11922.4,680.106 11932.9,680.106 11943.4,680.106 11953.9,680.106 11964.4,680.106 11975,680.106 11985.5,680.106 11996,680.106 12006.5,680.106 12017,680.106 12027.5,680.106 12038.1,680.106 12048.6,680.106 12059.1,680.106 12069.6,680.106 12080.1,680.106 12090.6,680.106 12101.2,680.106 12111.7,680.106 12122.2,680.106 12132.7,680.106 12143.2,680.106 12153.7,680.106 12164.2,680.106 12174.8,680.106 12185.3,680.106 12195.8,680.106 12206.3,680.106 12216.8,680.106 12227.3,680.106 12237.9,680.106 12248.4,680.106 12258.9,680.106 12269.4,680.106 12279.9,680.106 12290.4,680.106 12301,680.106 12311.5,680.106 12322,680.106 12332.5,680.106 12343,680.106 12353.5,680.106 12364.1,680.106 12374.6,680.106 12385.1,680.106 12395.6,680.106 12406.1,680.106 12416.6,680.106 12427.2,680.106 12437.7,680.106 12448.2,680.106 12458.7,680.106 12469.2,680.106 12479.7,680.106 12490.2,680.106 12500.8,680.106 12511.3,680.106 12521.8,680.106 12532.3,680.106 12542.8,680.106 12553.3,680.106 12563.9,680.106 12574.4,680.106 12584.9,680.106 12595.4,680.106 12605.9,680.106 12616.4,680.106 12627,680.106 12637.5,680.106 12648,680.106 12658.5,680.106 12669,680.106 12679.5,680.106 12690.1,680.106 12700.6,680.106 12711.1,680.106 12721.6,680.106 12732.1,680.106 12742.6,680.106 12753.1,680.106 12763.7,680.106 12774.2,680.106 12784.7,680.106 12795.2,680.106 12805.7,680.106 12816.2,680.106 12826.8,680.106 12837.3,680.106 12847.8,680.106 12858.3,680.106 12868.8,680.106 12879.3,680.106 12889.9,680.106 12900.4,680.106 12910.9,680.106 12921.4,680.106 12931.9,680.106 12942.4,680.106 12953,680.106 12963.5,680.106 12974,680.106 12984.5,680.106 12995,680.106 13005.5,680.105 13016.1,680.105 13026.6,680.105 13037.1,680.105 13047.6,680.105 13058.1,680.105 13068.6,680.105 13079.1,680.105 13089.7,680.105 13100.2,680.105 13110.7,680.105 13121.2,680.105 13131.7,680.105 13142.2,680.105 13152.8,680.105 13163.3,680.105 13173.8,680.105 13184.3,680.105 13194.8,680.105 13205.3,680.105 13215.9,680.105 13226.4,680.105 13236.9,680.105 13247.4,680.105 13257.9,680.105 13268.4,680.105 13279,680.105 13289.5,680.105 13300,680.105 13310.5,680.105 13321,680.105 13331.5,680.105 13342,680.105 13352.6,680.105 13363.1,680.105 13373.6,680.105 13384.1,680.105 13394.6,680.105 13405.1,680.105 13415.7,680.105 13426.2,680.105 13436.7,680.105 13447.2,680.105 13457.7,680.105 13468.2,680.105 13478.8,680.105 13489.3,680.105 13499.8,680.105 13510.3,680.105 13520.8,680.105 13531.3,680.105 13541.9,680.105 13552.4,680.105 13562.9,680.105 13573.4,680.105 13583.9,680.105 13594.4,680.105 13605,680.105 13615.5,680.105 13626,680.105 13636.5,680.105 13647,680.105 13657.5,680.105 13668,680.105 13678.6,680.105 13689.1,680.105 13699.6,680.105 13710.1,680.105 13720.6,680.105 13731.1,680.105 13741.7,680.105 13752.2,680.105 13762.7,680.105 13773.2,680.105 13783.7,680.105 13794.2,680.105 13804.8,680.105 13815.3,680.105 13825.8,680.105 13836.3,680.105 13846.8,680.105 13857.3,680.105 13867.9,680.105 13878.4,680.105 13888.9,680.105 13899.4,680.105 13909.9,680.105 13920.4,680.105 13930.9,680.105 13941.5,680.105 13952,680.105 13962.5,680.105 13973,680.105 13983.5,680.105 13994,680.105 14004.6,680.105 14015.1,680.105 14025.6,680.105 14036.1,680.105 14046.6,680.105 14057.1,680.105 14067.7,680.105 14078.2,680.105 14088.7,680.105 14099.2,680.105 14109.7,680.105 14120.2,680.105 14130.8,680.105 14141.3,680.105 14151.8,680.105 14162.3,680.105 14172.8,680.105 14183.3,680.105 14193.9,680.105 14204.4,680.105 14214.9,680.105 14225.4,680.105 14235.9,680.105 14246.4,680.105 14256.9,680.105 14267.5,680.105 14278,680.105 14288.5,680.105 14299,680.105 14309.5,680.105 14320,680.105 14330.6,680.105 14341.1,680.105 14351.6,680.105 14362.1,680.105 14372.6,680.105 14383.1,680.105 14393.7,680.105 14404.2,680.105 14414.7,680.105 14425.2,680.105 14435.7,680.105 14446.2,680.105 14456.8,680.105 14467.3,680.105 14477.8,680.105 14488.3,680.105 14498.8,680.105 14509.3,680.105 14519.8,680.105 14530.4,680.105 14540.9,680.105 14551.4,680.105 14561.9,680.105 14572.4,680.105 14582.9,680.105 14593.5,680.105 14604,680.105 14614.5,680.105 14625,680.105 14635.5,680.105 14646,680.105 14656.6,680.105 14667.1,680.105 14677.6,680.105 14688.1,680.105 14698.6,680.105 14709.1,680.105 14719.7,680.105 14730.2,680.105 14740.7,680.105 14751.2,680.105 14761.7,680.105 14772.2,680.105 14782.7,680.105 14793.3,680.105 14803.8,680.105 14814.3,680.105 14824.8,680.105 14835.3,680.105 14845.8,680.105 14856.4,680.105 14866.9,680.105 14877.4,680.105 14887.9,680.105 14898.4,680.105 14908.9,680.105 14919.5,680.105 14930,680.105 14940.5,680.105 14951,680.105 14961.5,680.105 14972,680.105 14982.6,680.105 14993.1,680.105 15003.6,680.105 15014.1,680.105 15024.6,680.105 15035.1,680.105 15045.7,680.105 15056.2,680.105 15066.7,680.105 15077.2,680.105 15087.7,680.105 15098.2,680.105 15108.7,680.105 15119.3,680.105 15129.8,680.105 15140.3,680.105 15150.8,680.105 15161.3,680.105 15171.8,680.105 15182.4,680.105 15192.9,680.105 15203.4,680.105 15213.9,680.105 15224.4,680.105 15234.9,680.105 15245.5,680.105 15256,680.105 15266.5,680.105 15277,680.105 15287.5,680.105 15298,680.105 15308.6,680.105 15319.1,680.105 15329.6,680.105 15340.1,680.105 15350.6,680.105 15361.1,680.105 15371.6,680.105 15382.2,680.105 15392.7,680.105 15403.2,680.105 15413.7,680.105 15424.2,680.105 15434.7,680.105 15445.3,680.105 15455.8,680.105 15466.3,680.105 15476.8,680.105 15487.3,680.105 15497.8,680.105 15508.4,680.105 15518.9,680.105 15529.4,680.105 15539.9,680.105 15550.4,680.105 15560.9,680.105 15571.5,680.105 15582,680.105 15592.5,680.105 15603,680.105 15613.5,680.105 15624,680.105 15634.6,680.105 15645.1,680.105 15655.6,680.105 15666.1,680.105 15676.6,680.105 15687.1,680.105 15697.6,680.105 15708.2,680.105 15718.7,680.105 15729.2,680.105 15739.7,680.105 15750.2,680.105 15760.7,680.105 15771.3,680.105 15781.8,680.105 15792.3,680.105 15802.8,680.105 15813.3,680.105 15823.8,680.105 15834.4,680.105 15844.9,680.105 15855.4,680.105 15865.9,680.105 15876.4,680.105 15886.9,680.105 15897.5,680.105 15908,680.105 15918.5,680.105 15929,680.105 15939.5,680.105 15950,680.105 15960.5,680.105 15971.1,680.105 15981.6,680.105 15992.1,680.105 16002.6,680.105 16013.1,680.105 16023.6,680.105 16034.2,680.105 16044.7,680.105 16055.2,680.105 16065.7,680.105 16076.2,680.105 16086.7,680.105 16097.3,680.105 16107.8,680.105 16118.3,680.105 16128.8,680.105 16139.3,680.105 16149.8,680.105 16160.4,680.105 16170.9,680.105 16181.4,680.105 16191.9,680.105 16202.4,680.105 16212.9,680.105 16223.5,680.105 16234,680.105 16244.5,680.105 16255,680.105 16265.5,680.105 16276,680.105 16286.5,680.105 16297.1,680.105 16307.6,680.105 16318.1,680.105 16328.6,680.105 16339.1,680.105 16349.6,680.105 16360.2,680.105 16370.7,680.105 16381.2,680.105 16391.7,680.105 16402.2,680.105 16412.7,680.105 16423.3,680.105 16433.8,680.105 16444.3,680.105 16454.8,680.105 16465.3,680.105 16475.8,680.105 16486.4,680.105 16496.9,680.105 16507.4,680.105 16517.9,680.105 16528.4,680.105 16538.9,680.105 16549.4,680.105 16560,680.105 16570.5,680.105 16581,680.105 16591.5,680.105 16602,680.105 16612.5,680.105 16623.1,680.105 16633.6,680.105 16644.1,680.105 16654.6,680.105 16665.1,680.105 16675.6,680.105 16686.2,680.105 16696.7,680.105 16707.2,680.105 16717.7,680.105 16728.2,680.105 16738.7,680.105 16749.3,680.105 16759.8,680.105 16770.3,680.105 16780.8,680.105 16791.3,680.105 16801.8,680.105 16812.4,680.105 16822.9,680.105 16833.4,680.105 16843.9,680.105 16854.4,680.105 16864.9,680.105 16875.4,680.105 16886,680.105 16896.5,680.105 16907,680.105 16917.5,680.105 16928,680.105 16938.5,680.105 16949.1,680.105 16959.6,680.105 16970.1,680.105 16980.6,680.105 16991.1,680.105 17001.6,680.105 17012.2,680.105 17022.7,680.105 17033.2,680.105 17043.7,680.105 17054.2,680.105 17064.7,680.105 17075.3,680.105 17085.8,680.105 17096.3,680.105 17106.8,680.105 17117.3,680.105 17127.8,680.105 17138.3,680.105 17148.9,680.105 17159.4,680.105 17169.9,680.105 17180.4,680.105 17190.9,680.105 17201.4,680.105 17212,680.105 17222.5,680.105 17233,680.105 17243.5,680.105 17254,680.105 17264.5,680.105 17275.1,680.105 17285.6,680.105 17296.1,680.105 17306.6,680.105 17317.1,680.105 17327.6,680.105 17338.2,680.105 17348.7,680.105 17359.2,680.105 17369.7,680.105 17380.2,680.105 17390.7,680.105 17401.3,680.105 17411.8,680.105 17422.3,680.105 17432.8,680.105 17443.3,680.105 17453.8,680.105 17464.3,680.105 17474.9,680.105 17485.4,680.105 17495.9,680.105 17506.4,680.105 17516.9,680.105 17527.4,680.105 17538,680.105 17548.5,680.105 17559,680.105 17569.5,680.105 17580,680.105 17590.5,680.105 17601.1,680.105 17611.6,680.105 17622.1,680.105 17632.6,680.105 17643.1,680.105 17653.6,680.105 17664.2,680.105 17674.7,680.105 17685.2,680.105 17695.7,680.105 17706.2,680.105 17716.7,680.105 17727.2,680.105 17737.8,680.105 17748.3,680.105 17758.8,680.105 17769.3,680.105 17779.8,680.105 17790.3,680.105 17800.9,680.105 17811.4,680.105 17821.9,680.105 17832.4,680.105 17842.9,680.105 17853.4,680.105 17864,680.105 17874.5,680.105 17885,680.105 17895.5,680.105 17906,680.105 17916.5,680.105 17927.1,680.105 17937.6,680.105 17948.1,680.105 17958.6,680.105 17969.1,680.105 17979.6,680.105 17990.2,680.105 18000.7,680.105 18011.2,680.105 18021.7,680.105 18032.2,680.105 18042.7,680.105 18053.2,680.105 18063.8,680.105 18074.3,680.105 18084.8,680.105 18095.3,680.105 18105.8,680.105 18116.3,680.105 18126.9,680.105 18137.4,680.105 18147.9,680.105 18158.4,680.105 18168.9,680.105 18179.4,680.105 18190,680.105 18200.5,680.105 18211,680.105 18221.5,680.105 18232,680.105 18242.5,680.105 18253.1,680.105 18263.6,680.105 18274.1,680.105 18284.6,680.105 18295.1,680.105 18305.6,680.105 18316.1,680.105 18326.7,680.105 18337.2,680.105 18347.7,680.105 18358.2,680.105 18368.7,680.105 18379.2,680.105 18389.8,680.105 18400.3,680.105 18410.8,680.105 18421.3,680.105 18431.8,680.105 18442.3,680.105 18452.9,680.105 18463.4,680.105 18473.9,680.105 18484.4,680.105 18494.9,680.105 18505.4,680.105 18516,680.105 18526.5,680.105 18537,680.105 18547.5,680.105 18558,680.105 18568.5,680.105 18579.1,680.105 18589.6,680.105 18600.1,680.105 18610.6,680.105 18621.1,680.105 18631.6,680.105 18642.1,680.105 18652.7,680.105 18663.2,680.105 18673.7,680.105 18684.2,680.105 18694.7,680.105 18705.2,680.105 18715.8,680.105 18726.3,680.105 18736.8,680.105 18747.3,680.105 18757.8,680.105 18768.3,680.105 18778.9,680.105 18789.4,680.105 18799.9,680.105 18810.4,680.105 18820.9,680.105 18831.4,680.105 18842,680.105 18852.5,680.105 18863,680.105 18873.5,680.105 18884,680.105 18894.5,680.105 18905,680.105 18915.6,680.105 18926.1,680.105 18936.6,680.105 18947.1,680.105 18957.6,680.105 18968.1,680.105 18978.7,680.105 18989.2,680.105 18999.7,680.105 19010.2,680.105 19020.7,680.105 19031.2,680.105 19041.8,680.105 19052.3,680.105 19062.8,680.105 19073.3,680.105 19083.8,680.105 19094.3,680.105 19104.9,680.105 19115.4,680.105 19125.9,680.105 19136.4,680.105 19146.9,680.105 19157.4,680.105 19168,680.105 19178.5,680.105 19189,680.105 19199.5,680.105 19210,680.105 19220.5,680.105 19231,680.105 19241.6,680.105 19252.1,680.105 19262.6,680.105 19273.1,680.105 19283.6,680.105 19294.1,680.105 19304.7,680.105 19315.2,680.105 19325.7,680.105 19336.2,680.105 19346.7,680.105 19357.2,680.105 19367.8,680.105 19378.3,680.105 19388.8,680.105 19399.3,680.105 19409.8,680.105 19420.3,680.105 19430.9,680.105 19441.4,680.105 19451.9,680.105 19462.4,680.105 19472.9,680.105 19483.4,680.105 19493.9,680.105 19504.5,680.105 19515,680.105 19525.5,680.105 19536,680.105 19546.5,680.105 19557,680.105 19567.6,680.105 19578.1,680.105 19588.6,680.105 19599.1,680.105 19609.6,680.105 19620.1,680.105 19630.7,680.105 19641.2,680.105 19651.7,680.105 19662.2,680.105 19672.7,680.105 19683.2,680.105 19693.8,680.105 19704.3,680.105 19714.8,680.105 19725.3,680.105 19735.8,680.105 19746.3,680.105 19756.9,680.105 19767.4,680.105 19777.9,680.105 19788.4,680.105 19798.9,680.105 19809.4,680.105 19819.9,680.105 19830.5,680.105 19841,680.105 19851.5,680.105 19862,680.105 19872.5,680.105 19883,680.105 19893.6,680.105 19904.1,680.105 19914.6,680.105 19925.1,680.105 19935.6,680.105 19946.1,680.105 19956.7,680.105 19967.2,680.105 19977.7,680.105 19988.2,680.105 19998.7,680.105 20009.2,680.105 20019.8,680.105 20030.3,680.105 20040.8,680.105 20051.3,680.105 20061.8,680.105 20072.3,680.105 20082.8,680.105 20093.4,680.105 20103.9,680.105 20114.4,680.105 20124.9,680.105 20135.4,680.105 20145.9,680.105 20156.5,680.105 20167,680.105 20177.5,680.105 20188,680.105 20198.5,680.105 20209,680.105 20219.6,680.105 20230.1,680.105 20240.6,680.105 20251.1,680.105 20261.6,680.105 20272.1,680.105 20282.7,680.105 20293.2,680.105 20303.7,680.105 20314.2,680.105 20324.7,680.105 20335.2,680.105 20345.8,680.105 20356.3,680.105 20366.8,680.105 20377.3,680.105 20387.8,680.105 20398.3,680.105 20408.8,680.105 20419.4,680.105 20429.9,680.105 20440.4,680.105 20450.9,680.105 20461.4,680.105 20471.9,680.105 20482.5,680.105 20493,680.105 20503.5,680.105 20514,680.105 20524.5,680.105 20535,680.105 20545.6,680.105 20556.1,680.105 20566.6,680.105 20577.1,680.105 20587.6,680.105 20598.1,680.105 20608.7,680.105 20619.2,680.105 20629.7,680.105 20640.2,680.105 20650.7,680.105 20661.2,680.105 20671.7,680.105 20682.3,680.105 20692.8,680.105 20703.3,680.105 20713.8,680.105 20724.3,680.105 20734.8,680.105 20745.4,680.105 20755.9,680.105 20766.4,680.105 20776.9,680.105 20787.4,680.105 20797.9,680.105 20808.5,680.105 20819,680.105 20829.5,680.105 20840,680.105 20850.5,680.105 20861,680.105 20871.6,680.105 20882.1,680.105 20892.6,680.105 20903.1,680.105 20913.6,680.105 20924.1,680.105 20934.7,680.105 20945.2,680.105 20955.7,680.105 20966.2,680.105 20976.7,680.105 20987.2,680.105 20997.7,680.105 21008.3,680.105 21018.8,680.105 21029.3,680.105 21039.8,680.105 21050.3,680.105 21060.8,680.105 21071.4,680.105 21081.9,680.105 21092.4,680.105 21102.9,680.105 21113.4,680.105 21123.9,680.105 21134.5,680.105 21145,680.105 21155.5,680.105 21166,680.105 21176.5,680.105 21187,680.105 21197.6,680.105 21208.1,680.105 21218.6,680.105 21229.1,680.105 21239.6,680.105 21250.1,680.105 21260.6,680.105 21271.2,680.105 21281.7,680.105 21292.2,680.105 21302.7,680.105 21313.2,680.105 21323.7,680.105 21334.3,680.105 21344.8,680.105 21355.3,680.105 21365.8,680.105 21376.3,680.105 21386.8,680.105 21397.4,680.105 21407.9,680.105 21418.4,680.105 21428.9,680.105 21439.4,680.105 21449.9,680.105 21460.5,680.105 21471,680.105 21481.5,680.105 21492,680.105 21502.5,680.105 21513,680.105 21523.6,680.105 21534.1,680.105 21544.6,680.105 21555.1,680.105 21565.6,680.105 21576.1,680.105 21586.6,680.105 21597.2,680.105 21607.7,680.105 21618.2,680.105 21628.7,680.105 21639.2,680.105 21649.7,680.105 21660.3,680.105 21670.8,680.105 21681.3,680.105 21691.8,680.105 21702.3,680.105 21712.8,680.105 21723.4,680.105 21733.9,680.105 21744.4,680.105 21754.9,680.105 21765.4,680.105 21775.9,680.105 21786.5,680.105 21797,680.105 21807.5,680.105 "/>
<polyline clip-path="url(#clip412)" style="stroke:#000000; stroke-linecap:round; stroke-linejoin:round; stroke-width:4; stroke-opacity:1; fill:none" stroke-dasharray="16, 10" points="-7749,2799.12 -7749,-1328.69 "/>
<polyline clip-path="url(#clip412)" style="stroke:#000000; stroke-linecap:round; stroke-linejoin:round; stroke-width:4; stroke-opacity:1; fill:none" stroke-dasharray="16, 10" points="512.444,2799.12 512.444,-1328.69 "/>
<polyline clip-path="url(#clip412)" style="stroke:#000000; stroke-linecap:round; stroke-linejoin:round; stroke-width:4; stroke-opacity:1; fill:none" stroke-dasharray="16, 10" points="10502.7,2799.12 10502.7,-1328.69 "/>
</svg>
