<?xml version="1.0" encoding="utf-8"?>
<svg xmlns="http://www.w3.org/2000/svg" xmlns:xlink="http://www.w3.org/1999/xlink" width="600" height="400" viewBox="0 0 2400 1600">
<defs>
  <clipPath id="clip590">
    <rect x="0" y="0" width="2400" height="1600"/>
  </clipPath>
</defs>
<path clip-path="url(#clip590)" d="M0 1600 L2400 1600 L2400 0 L0 0  Z" fill="#ffffff" fill-rule="evenodd" fill-opacity="1"/>
<defs>
  <clipPath id="clip591">
    <rect x="480" y="0" width="1681" height="1600"/>
  </clipPath>
</defs>
<defs>
  <clipPath id="clip592">
    <rect x="186" y="47" width="2167" height="1377"/>
  </clipPath>
</defs>
<path clip-path="url(#clip590)" d="M186.274 1423.18 L2352.76 1423.18 L2352.76 47.2441 L186.274 47.2441  Z" fill="#ffffff" fill-rule="evenodd" fill-opacity="1"/>
<polyline clip-path="url(#clip592)" style="stroke:#000000; stroke-linecap:round; stroke-linejoin:round; stroke-width:2; stroke-opacity:0.1; fill:none" points="205.878,1423.18 205.878,47.2441 "/>
<polyline clip-path="url(#clip592)" style="stroke:#000000; stroke-linecap:round; stroke-linejoin:round; stroke-width:2; stroke-opacity:0.1; fill:none" points="622.991,1423.18 622.991,47.2441 "/>
<polyline clip-path="url(#clip592)" style="stroke:#000000; stroke-linecap:round; stroke-linejoin:round; stroke-width:2; stroke-opacity:0.1; fill:none" points="1040.1,1423.18 1040.1,47.2441 "/>
<polyline clip-path="url(#clip592)" style="stroke:#000000; stroke-linecap:round; stroke-linejoin:round; stroke-width:2; stroke-opacity:0.1; fill:none" points="1457.22,1423.18 1457.22,47.2441 "/>
<polyline clip-path="url(#clip592)" style="stroke:#000000; stroke-linecap:round; stroke-linejoin:round; stroke-width:2; stroke-opacity:0.1; fill:none" points="1874.33,1423.18 1874.33,47.2441 "/>
<polyline clip-path="url(#clip592)" style="stroke:#000000; stroke-linecap:round; stroke-linejoin:round; stroke-width:2; stroke-opacity:0.1; fill:none" points="2291.44,1423.18 2291.44,47.2441 "/>
<polyline clip-path="url(#clip590)" style="stroke:#000000; stroke-linecap:round; stroke-linejoin:round; stroke-width:4; stroke-opacity:1; fill:none" points="186.274,1423.18 2352.76,1423.18 "/>
<polyline clip-path="url(#clip590)" style="stroke:#000000; stroke-linecap:round; stroke-linejoin:round; stroke-width:4; stroke-opacity:1; fill:none" points="205.878,1423.18 205.878,1404.28 "/>
<polyline clip-path="url(#clip590)" style="stroke:#000000; stroke-linecap:round; stroke-linejoin:round; stroke-width:4; stroke-opacity:1; fill:none" points="622.991,1423.18 622.991,1404.28 "/>
<polyline clip-path="url(#clip590)" style="stroke:#000000; stroke-linecap:round; stroke-linejoin:round; stroke-width:4; stroke-opacity:1; fill:none" points="1040.1,1423.18 1040.1,1404.28 "/>
<polyline clip-path="url(#clip590)" style="stroke:#000000; stroke-linecap:round; stroke-linejoin:round; stroke-width:4; stroke-opacity:1; fill:none" points="1457.22,1423.18 1457.22,1404.28 "/>
<polyline clip-path="url(#clip590)" style="stroke:#000000; stroke-linecap:round; stroke-linejoin:round; stroke-width:4; stroke-opacity:1; fill:none" points="1874.33,1423.18 1874.33,1404.28 "/>
<polyline clip-path="url(#clip590)" style="stroke:#000000; stroke-linecap:round; stroke-linejoin:round; stroke-width:4; stroke-opacity:1; fill:none" points="2291.44,1423.18 2291.44,1404.28 "/>
<path clip-path="url(#clip590)" d="M205.878 1454.1 Q202.267 1454.1 200.438 1457.66 Q198.633 1461.2 198.633 1468.33 Q198.633 1475.44 200.438 1479.01 Q202.267 1482.55 205.878 1482.55 Q209.513 1482.55 211.318 1479.01 Q213.147 1475.44 213.147 1468.33 Q213.147 1461.2 211.318 1457.66 Q209.513 1454.1 205.878 1454.1 M205.878 1450.39 Q211.688 1450.39 214.744 1455 Q217.823 1459.58 217.823 1468.33 Q217.823 1477.06 214.744 1481.67 Q211.688 1486.25 205.878 1486.25 Q200.068 1486.25 196.989 1481.67 Q193.934 1477.06 193.934 1468.33 Q193.934 1459.58 196.989 1455 Q200.068 1450.39 205.878 1450.39 Z" fill="#000000" fill-rule="evenodd" fill-opacity="1" /><path clip-path="url(#clip590)" d="M613.373 1481.64 L621.012 1481.64 L621.012 1455.28 L612.701 1456.95 L612.701 1452.69 L620.965 1451.02 L625.641 1451.02 L625.641 1481.64 L633.28 1481.64 L633.28 1485.58 L613.373 1485.58 L613.373 1481.64 Z" fill="#000000" fill-rule="evenodd" fill-opacity="1" /><path clip-path="url(#clip590)" d="M1034.76 1481.64 L1051.08 1481.64 L1051.08 1485.58 L1029.13 1485.58 L1029.13 1481.64 Q1031.79 1478.89 1036.38 1474.26 Q1040.98 1469.61 1042.16 1468.27 Q1044.41 1465.74 1045.29 1464.01 Q1046.19 1462.25 1046.19 1460.56 Q1046.19 1457.8 1044.25 1456.07 Q1042.33 1454.33 1039.22 1454.33 Q1037.02 1454.33 1034.57 1455.09 Q1032.14 1455.86 1029.36 1457.41 L1029.36 1452.69 Q1032.19 1451.55 1034.64 1450.97 Q1037.09 1450.39 1039.13 1450.39 Q1044.5 1450.39 1047.7 1453.08 Q1050.89 1455.77 1050.89 1460.26 Q1050.89 1462.39 1050.08 1464.31 Q1049.29 1466.2 1047.19 1468.8 Q1046.61 1469.47 1043.51 1472.69 Q1040.4 1475.88 1034.76 1481.64 Z" fill="#000000" fill-rule="evenodd" fill-opacity="1" /><path clip-path="url(#clip590)" d="M1461.46 1466.95 Q1464.82 1467.66 1466.69 1469.93 Q1468.59 1472.2 1468.59 1475.53 Q1468.59 1480.65 1465.07 1483.45 Q1461.56 1486.25 1455.07 1486.25 Q1452.9 1486.25 1450.58 1485.81 Q1448.29 1485.39 1445.84 1484.54 L1445.84 1480.02 Q1447.78 1481.16 1450.1 1481.74 Q1452.41 1482.32 1454.94 1482.32 Q1459.33 1482.32 1461.63 1480.58 Q1463.94 1478.84 1463.94 1475.53 Q1463.94 1472.48 1461.79 1470.77 Q1459.66 1469.03 1455.84 1469.03 L1451.81 1469.03 L1451.81 1465.19 L1456.02 1465.19 Q1459.47 1465.19 1461.3 1463.82 Q1463.13 1462.43 1463.13 1459.84 Q1463.13 1457.18 1461.23 1455.77 Q1459.36 1454.33 1455.84 1454.33 Q1453.92 1454.33 1451.72 1454.75 Q1449.52 1455.16 1446.88 1456.04 L1446.88 1451.88 Q1449.54 1451.14 1451.86 1450.77 Q1454.19 1450.39 1456.25 1450.39 Q1461.58 1450.39 1464.68 1452.83 Q1467.78 1455.23 1467.78 1459.35 Q1467.78 1462.22 1466.14 1464.21 Q1464.5 1466.18 1461.46 1466.95 Z" fill="#000000" fill-rule="evenodd" fill-opacity="1" /><path clip-path="url(#clip590)" d="M1877.34 1455.09 L1865.53 1473.54 L1877.34 1473.54 L1877.34 1455.09 M1876.11 1451.02 L1881.99 1451.02 L1881.99 1473.54 L1886.92 1473.54 L1886.92 1477.43 L1881.99 1477.43 L1881.99 1485.58 L1877.34 1485.58 L1877.34 1477.43 L1861.74 1477.43 L1861.74 1472.92 L1876.11 1451.02 Z" fill="#000000" fill-rule="evenodd" fill-opacity="1" /><path clip-path="url(#clip590)" d="M2281.72 1451.02 L2300.07 1451.02 L2300.07 1454.96 L2286 1454.96 L2286 1463.43 Q2287.02 1463.08 2288.04 1462.92 Q2289.06 1462.73 2290.07 1462.73 Q2295.86 1462.73 2299.24 1465.9 Q2302.62 1469.08 2302.62 1474.49 Q2302.62 1480.07 2299.15 1483.17 Q2295.68 1486.25 2289.36 1486.25 Q2287.18 1486.25 2284.91 1485.88 Q2282.67 1485.51 2280.26 1484.77 L2280.26 1480.07 Q2282.34 1481.2 2284.57 1481.76 Q2286.79 1482.32 2289.26 1482.32 Q2293.27 1482.32 2295.61 1480.21 Q2297.94 1478.1 2297.94 1474.49 Q2297.94 1470.88 2295.61 1468.77 Q2293.27 1466.67 2289.26 1466.67 Q2287.39 1466.67 2285.51 1467.08 Q2283.66 1467.5 2281.72 1468.38 L2281.72 1451.02 Z" fill="#000000" fill-rule="evenodd" fill-opacity="1" /><path clip-path="url(#clip590)" d="M1268.58 1522.27 L1268.58 1532.4 L1280.64 1532.4 L1280.64 1536.95 L1268.58 1536.95 L1268.58 1556.3 Q1268.58 1560.66 1269.75 1561.9 Q1270.96 1563.14 1274.62 1563.14 L1280.64 1563.14 L1280.64 1568.04 L1274.62 1568.04 Q1267.84 1568.04 1265.27 1565.53 Q1262.69 1562.98 1262.69 1556.3 L1262.69 1536.95 L1258.39 1536.95 L1258.39 1532.4 L1262.69 1532.4 L1262.69 1522.27 L1268.58 1522.27 Z" fill="#000000" fill-rule="evenodd" fill-opacity="1" /><polyline clip-path="url(#clip592)" style="stroke:#000000; stroke-linecap:round; stroke-linejoin:round; stroke-width:2; stroke-opacity:0.1; fill:none" points="186.274,1384.44 2352.76,1384.44 "/>
<polyline clip-path="url(#clip592)" style="stroke:#000000; stroke-linecap:round; stroke-linejoin:round; stroke-width:2; stroke-opacity:0.1; fill:none" points="186.274,1059.88 2352.76,1059.88 "/>
<polyline clip-path="url(#clip592)" style="stroke:#000000; stroke-linecap:round; stroke-linejoin:round; stroke-width:2; stroke-opacity:0.1; fill:none" points="186.274,735.31 2352.76,735.31 "/>
<polyline clip-path="url(#clip592)" style="stroke:#000000; stroke-linecap:round; stroke-linejoin:round; stroke-width:2; stroke-opacity:0.1; fill:none" points="186.274,410.745 2352.76,410.745 "/>
<polyline clip-path="url(#clip592)" style="stroke:#000000; stroke-linecap:round; stroke-linejoin:round; stroke-width:2; stroke-opacity:0.1; fill:none" points="186.274,86.1797 2352.76,86.1797 "/>
<polyline clip-path="url(#clip590)" style="stroke:#000000; stroke-linecap:round; stroke-linejoin:round; stroke-width:4; stroke-opacity:1; fill:none" points="186.274,1423.18 186.274,47.2441 "/>
<polyline clip-path="url(#clip590)" style="stroke:#000000; stroke-linecap:round; stroke-linejoin:round; stroke-width:4; stroke-opacity:1; fill:none" points="186.274,1384.44 205.172,1384.44 "/>
<polyline clip-path="url(#clip590)" style="stroke:#000000; stroke-linecap:round; stroke-linejoin:round; stroke-width:4; stroke-opacity:1; fill:none" points="186.274,1059.88 205.172,1059.88 "/>
<polyline clip-path="url(#clip590)" style="stroke:#000000; stroke-linecap:round; stroke-linejoin:round; stroke-width:4; stroke-opacity:1; fill:none" points="186.274,735.31 205.172,735.31 "/>
<polyline clip-path="url(#clip590)" style="stroke:#000000; stroke-linecap:round; stroke-linejoin:round; stroke-width:4; stroke-opacity:1; fill:none" points="186.274,410.745 205.172,410.745 "/>
<polyline clip-path="url(#clip590)" style="stroke:#000000; stroke-linecap:round; stroke-linejoin:round; stroke-width:4; stroke-opacity:1; fill:none" points="186.274,86.1797 205.172,86.1797 "/>
<path clip-path="url(#clip590)" d="M62.9365 1370.24 Q59.3254 1370.24 57.4967 1373.8 Q55.6912 1377.35 55.6912 1384.48 Q55.6912 1391.58 57.4967 1395.15 Q59.3254 1398.69 62.9365 1398.69 Q66.5707 1398.69 68.3763 1395.15 Q70.205 1391.58 70.205 1384.48 Q70.205 1377.35 68.3763 1373.8 Q66.5707 1370.24 62.9365 1370.24 M62.9365 1366.54 Q68.7467 1366.54 71.8022 1371.14 Q74.8809 1375.73 74.8809 1384.48 Q74.8809 1393.2 71.8022 1397.81 Q68.7467 1402.39 62.9365 1402.39 Q57.1264 1402.39 54.0477 1397.81 Q50.9921 1393.2 50.9921 1384.48 Q50.9921 1375.73 54.0477 1371.14 Q57.1264 1366.54 62.9365 1366.54 Z" fill="#000000" fill-rule="evenodd" fill-opacity="1" /><path clip-path="url(#clip590)" d="M83.0984 1395.84 L87.9827 1395.84 L87.9827 1401.72 L83.0984 1401.72 L83.0984 1395.84 Z" fill="#000000" fill-rule="evenodd" fill-opacity="1" /><path clip-path="url(#clip590)" d="M108.168 1370.24 Q104.557 1370.24 102.728 1373.8 Q100.922 1377.35 100.922 1384.48 Q100.922 1391.58 102.728 1395.15 Q104.557 1398.69 108.168 1398.69 Q111.802 1398.69 113.608 1395.15 Q115.436 1391.58 115.436 1384.48 Q115.436 1377.35 113.608 1373.8 Q111.802 1370.24 108.168 1370.24 M108.168 1366.54 Q113.978 1366.54 117.033 1371.14 Q120.112 1375.73 120.112 1384.48 Q120.112 1393.2 117.033 1397.81 Q113.978 1402.39 108.168 1402.39 Q102.358 1402.39 99.2789 1397.81 Q96.2234 1393.2 96.2234 1384.48 Q96.2234 1375.73 99.2789 1371.14 Q102.358 1366.54 108.168 1366.54 Z" fill="#000000" fill-rule="evenodd" fill-opacity="1" /><path clip-path="url(#clip590)" d="M138.33 1370.24 Q134.719 1370.24 132.89 1373.8 Q131.084 1377.35 131.084 1384.48 Q131.084 1391.58 132.89 1395.15 Q134.719 1398.69 138.33 1398.69 Q141.964 1398.69 143.769 1395.15 Q145.598 1391.58 145.598 1384.48 Q145.598 1377.35 143.769 1373.8 Q141.964 1370.24 138.33 1370.24 M138.33 1366.54 Q144.14 1366.54 147.195 1371.14 Q150.274 1375.73 150.274 1384.48 Q150.274 1393.2 147.195 1397.81 Q144.14 1402.39 138.33 1402.39 Q132.519 1402.39 129.441 1397.81 Q126.385 1393.2 126.385 1384.48 Q126.385 1375.73 129.441 1371.14 Q132.519 1366.54 138.33 1366.54 Z" fill="#000000" fill-rule="evenodd" fill-opacity="1" /><path clip-path="url(#clip590)" d="M63.9319 1045.67 Q60.3208 1045.67 58.4921 1049.24 Q56.6865 1052.78 56.6865 1059.91 Q56.6865 1067.02 58.4921 1070.58 Q60.3208 1074.12 63.9319 1074.12 Q67.5661 1074.12 69.3717 1070.58 Q71.2004 1067.02 71.2004 1059.91 Q71.2004 1052.78 69.3717 1049.24 Q67.5661 1045.67 63.9319 1045.67 M63.9319 1041.97 Q69.742 1041.97 72.7976 1046.58 Q75.8763 1051.16 75.8763 1059.91 Q75.8763 1068.64 72.7976 1073.24 Q69.742 1077.83 63.9319 1077.83 Q58.1217 1077.83 55.043 1073.24 Q51.9875 1068.64 51.9875 1059.91 Q51.9875 1051.16 55.043 1046.58 Q58.1217 1041.97 63.9319 1041.97 Z" fill="#000000" fill-rule="evenodd" fill-opacity="1" /><path clip-path="url(#clip590)" d="M84.0938 1071.28 L88.978 1071.28 L88.978 1077.16 L84.0938 1077.16 L84.0938 1071.28 Z" fill="#000000" fill-rule="evenodd" fill-opacity="1" /><path clip-path="url(#clip590)" d="M103.191 1073.22 L119.51 1073.22 L119.51 1077.16 L97.566 1077.16 L97.566 1073.22 Q100.228 1070.47 104.811 1065.84 Q109.418 1061.18 110.598 1059.84 Q112.844 1057.32 113.723 1055.58 Q114.626 1053.82 114.626 1052.13 Q114.626 1049.38 112.682 1047.64 Q110.76 1045.91 107.658 1045.91 Q105.459 1045.91 103.006 1046.67 Q100.575 1047.43 97.7974 1048.98 L97.7974 1044.26 Q100.621 1043.13 103.075 1042.55 Q105.529 1041.97 107.566 1041.97 Q112.936 1041.97 116.131 1044.66 Q119.325 1047.34 119.325 1051.83 Q119.325 1053.96 118.515 1055.88 Q117.728 1057.78 115.621 1060.37 Q115.043 1061.04 111.941 1064.26 Q108.839 1067.46 103.191 1073.22 Z" fill="#000000" fill-rule="evenodd" fill-opacity="1" /><path clip-path="url(#clip590)" d="M129.371 1042.6 L147.728 1042.6 L147.728 1046.53 L133.654 1046.53 L133.654 1055 Q134.672 1054.66 135.691 1054.49 Q136.709 1054.31 137.728 1054.31 Q143.515 1054.31 146.894 1057.48 Q150.274 1060.65 150.274 1066.07 Q150.274 1071.65 146.802 1074.75 Q143.33 1077.83 137.01 1077.83 Q134.834 1077.83 132.566 1077.46 Q130.32 1077.09 127.913 1076.35 L127.913 1071.65 Q129.996 1072.78 132.219 1073.34 Q134.441 1073.89 136.918 1073.89 Q140.922 1073.89 143.26 1071.79 Q145.598 1069.68 145.598 1066.07 Q145.598 1062.46 143.26 1060.35 Q140.922 1058.24 136.918 1058.24 Q135.043 1058.24 133.168 1058.66 Q131.316 1059.08 129.371 1059.96 L129.371 1042.6 Z" fill="#000000" fill-rule="evenodd" fill-opacity="1" /><path clip-path="url(#clip590)" d="M62.9365 721.109 Q59.3254 721.109 57.4967 724.674 Q55.6912 728.215 55.6912 735.345 Q55.6912 742.451 57.4967 746.016 Q59.3254 749.558 62.9365 749.558 Q66.5707 749.558 68.3763 746.016 Q70.205 742.451 70.205 735.345 Q70.205 728.215 68.3763 724.674 Q66.5707 721.109 62.9365 721.109 M62.9365 717.405 Q68.7467 717.405 71.8022 722.012 Q74.8809 726.595 74.8809 735.345 Q74.8809 744.072 71.8022 748.678 Q68.7467 753.261 62.9365 753.261 Q57.1264 753.261 54.0477 748.678 Q50.9921 744.072 50.9921 735.345 Q50.9921 726.595 54.0477 722.012 Q57.1264 717.405 62.9365 717.405 Z" fill="#000000" fill-rule="evenodd" fill-opacity="1" /><path clip-path="url(#clip590)" d="M83.0984 746.711 L87.9827 746.711 L87.9827 752.59 L83.0984 752.59 L83.0984 746.711 Z" fill="#000000" fill-rule="evenodd" fill-opacity="1" /><path clip-path="url(#clip590)" d="M98.2141 718.03 L116.57 718.03 L116.57 721.965 L102.496 721.965 L102.496 730.438 Q103.515 730.09 104.534 729.928 Q105.552 729.743 106.571 729.743 Q112.358 729.743 115.737 732.914 Q119.117 736.086 119.117 741.502 Q119.117 747.081 115.645 750.183 Q112.172 753.261 105.853 753.261 Q103.677 753.261 101.409 752.891 Q99.1632 752.521 96.7558 751.78 L96.7558 747.081 Q98.8391 748.215 101.061 748.771 Q103.284 749.326 105.76 749.326 Q109.765 749.326 112.103 747.22 Q114.441 745.113 114.441 741.502 Q114.441 737.891 112.103 735.785 Q109.765 733.678 105.76 733.678 Q103.885 733.678 102.01 734.095 Q100.159 734.512 98.2141 735.391 L98.2141 718.03 Z" fill="#000000" fill-rule="evenodd" fill-opacity="1" /><path clip-path="url(#clip590)" d="M138.33 721.109 Q134.719 721.109 132.89 724.674 Q131.084 728.215 131.084 735.345 Q131.084 742.451 132.89 746.016 Q134.719 749.558 138.33 749.558 Q141.964 749.558 143.769 746.016 Q145.598 742.451 145.598 735.345 Q145.598 728.215 143.769 724.674 Q141.964 721.109 138.33 721.109 M138.33 717.405 Q144.14 717.405 147.195 722.012 Q150.274 726.595 150.274 735.345 Q150.274 744.072 147.195 748.678 Q144.14 753.261 138.33 753.261 Q132.519 753.261 129.441 748.678 Q126.385 744.072 126.385 735.345 Q126.385 726.595 129.441 722.012 Q132.519 717.405 138.33 717.405 Z" fill="#000000" fill-rule="evenodd" fill-opacity="1" /><path clip-path="url(#clip590)" d="M63.9319 396.544 Q60.3208 396.544 58.4921 400.108 Q56.6865 403.65 56.6865 410.78 Q56.6865 417.886 58.4921 421.451 Q60.3208 424.993 63.9319 424.993 Q67.5661 424.993 69.3717 421.451 Q71.2004 417.886 71.2004 410.78 Q71.2004 403.65 69.3717 400.108 Q67.5661 396.544 63.9319 396.544 M63.9319 392.84 Q69.742 392.84 72.7976 397.446 Q75.8763 402.03 75.8763 410.78 Q75.8763 419.506 72.7976 424.113 Q69.742 428.696 63.9319 428.696 Q58.1217 428.696 55.043 424.113 Q51.9875 419.506 51.9875 410.78 Q51.9875 402.03 55.043 397.446 Q58.1217 392.84 63.9319 392.84 Z" fill="#000000" fill-rule="evenodd" fill-opacity="1" /><path clip-path="url(#clip590)" d="M84.0938 422.145 L88.978 422.145 L88.978 428.025 L84.0938 428.025 L84.0938 422.145 Z" fill="#000000" fill-rule="evenodd" fill-opacity="1" /><path clip-path="url(#clip590)" d="M97.9826 393.465 L120.205 393.465 L120.205 395.456 L107.658 428.025 L102.774 428.025 L114.58 397.4 L97.9826 397.4 L97.9826 393.465 Z" fill="#000000" fill-rule="evenodd" fill-opacity="1" /><path clip-path="url(#clip590)" d="M129.371 393.465 L147.728 393.465 L147.728 397.4 L133.654 397.4 L133.654 405.872 Q134.672 405.525 135.691 405.363 Q136.709 405.178 137.728 405.178 Q143.515 405.178 146.894 408.349 Q150.274 411.52 150.274 416.937 Q150.274 422.516 146.802 425.618 Q143.33 428.696 137.01 428.696 Q134.834 428.696 132.566 428.326 Q130.32 427.955 127.913 427.215 L127.913 422.516 Q129.996 423.65 132.219 424.205 Q134.441 424.761 136.918 424.761 Q140.922 424.761 143.26 422.655 Q145.598 420.548 145.598 416.937 Q145.598 413.326 143.26 411.219 Q140.922 409.113 136.918 409.113 Q135.043 409.113 133.168 409.53 Q131.316 409.946 129.371 410.826 L129.371 393.465 Z" fill="#000000" fill-rule="evenodd" fill-opacity="1" /><path clip-path="url(#clip590)" d="M53.7467 99.5245 L61.3856 99.5245 L61.3856 73.1589 L53.0754 74.8256 L53.0754 70.5663 L61.3393 68.8997 L66.0152 68.8997 L66.0152 99.5245 L73.654 99.5245 L73.654 103.46 L53.7467 103.46 L53.7467 99.5245 Z" fill="#000000" fill-rule="evenodd" fill-opacity="1" /><path clip-path="url(#clip590)" d="M83.0984 97.5801 L87.9827 97.5801 L87.9827 103.46 L83.0984 103.46 L83.0984 97.5801 Z" fill="#000000" fill-rule="evenodd" fill-opacity="1" /><path clip-path="url(#clip590)" d="M108.168 71.9783 Q104.557 71.9783 102.728 75.5431 Q100.922 79.0848 100.922 86.2144 Q100.922 93.3208 102.728 96.8856 Q104.557 100.427 108.168 100.427 Q111.802 100.427 113.608 96.8856 Q115.436 93.3208 115.436 86.2144 Q115.436 79.0848 113.608 75.5431 Q111.802 71.9783 108.168 71.9783 M108.168 68.2747 Q113.978 68.2747 117.033 72.8811 Q120.112 77.4644 120.112 86.2144 Q120.112 94.9412 117.033 99.5476 Q113.978 104.131 108.168 104.131 Q102.358 104.131 99.2789 99.5476 Q96.2234 94.9412 96.2234 86.2144 Q96.2234 77.4644 99.2789 72.8811 Q102.358 68.2747 108.168 68.2747 Z" fill="#000000" fill-rule="evenodd" fill-opacity="1" /><path clip-path="url(#clip590)" d="M138.33 71.9783 Q134.719 71.9783 132.89 75.5431 Q131.084 79.0848 131.084 86.2144 Q131.084 93.3208 132.89 96.8856 Q134.719 100.427 138.33 100.427 Q141.964 100.427 143.769 96.8856 Q145.598 93.3208 145.598 86.2144 Q145.598 79.0848 143.769 75.5431 Q141.964 71.9783 138.33 71.9783 M138.33 68.2747 Q144.14 68.2747 147.195 72.8811 Q150.274 77.4644 150.274 86.2144 Q150.274 94.9412 147.195 99.5476 Q144.14 104.131 138.33 104.131 Q132.519 104.131 129.441 99.5476 Q126.385 94.9412 126.385 86.2144 Q126.385 77.4644 129.441 72.8811 Q132.519 68.2747 138.33 68.2747 Z" fill="#000000" fill-rule="evenodd" fill-opacity="1" /><polyline clip-path="url(#clip592)" style="stroke:#009af9; stroke-linecap:round; stroke-linejoin:round; stroke-width:8; stroke-opacity:1; fill:none" points="247.59,1333.54 250.916,1325.29 254.243,1316.48 257.569,1307.1 260.896,1297.18 268.586,1272.26 276.276,1244.72 280.121,1230.04 283.966,1214.78 287.811,1198.98 291.656,1182.67 299.346,1148.65 307.036,1112.99 314.725,1075.96 322.415,1037.85 337.795,959.551 353.175,880.418 360.865,841.26 368.555,802.746 376.245,765.139 383.935,728.692 388.556,707.447 393.177,686.755 397.799,666.663 402.42,647.213 407.041,628.447 411.663,610.402 416.284,593.115 420.905,576.616 425.527,560.936 430.148,546.099 434.769,532.129 439.391,519.045 444.012,506.864 448.633,495.597 453.254,485.256 457.876,475.844 461.783,468.616 465.69,462.054 469.598,456.159 473.505,450.925 477.412,446.349 481.319,442.423 485.227,439.139 489.134,436.488 493.041,434.459 496.948,433.038 500.856,432.213 504.763,431.967 512.577,433.146 520.392,436.43 528.881,442.189 537.37,450.006 545.858,459.632 554.347,470.803 571.325,496.684 588.302,525.406 603.954,552.485 619.606,578.449 627.432,590.545 635.258,601.829 643.083,612.154 650.909,621.39 659.299,629.959 667.69,637.041 676.08,642.554 684.47,646.443 692.86,648.682 701.25,649.273 709.641,648.245 718.031,645.655 727.752,640.809 737.472,634.142 747.193,625.861 756.914,616.203 776.356,593.86 795.798,569.503 813.075,548.241 830.353,529.204 838.991,521.047 847.63,514.053 856.269,508.395 864.908,504.223 872.483,501.891 880.058,500.875 887.634,501.234 895.209,503.01 902.785,506.229 910.36,510.903 917.935,517.027 925.511,524.58 933.77,534.398 942.029,545.803 950.288,558.706 958.548,572.999 966.807,588.559 975.066,605.244 983.325,622.899 991.585,641.36 1008.2,680.221 1024.82,720.124 1041.43,759.536 1058.05,796.971 1067.24,816.313 1076.42,834.426 1085.61,851.124 1094.79,866.248 1103.98,879.662 1113.17,891.26 1122.35,900.967 1131.54,908.736 1140.28,914.315 1149.02,918.139 1157.76,920.244 1166.5,920.691 1175.24,919.565 1183.98,916.968 1192.72,913.024 1201.46,907.872 1210.55,901.399 1219.63,893.974 1228.72,885.792 1237.81,877.057 1255.99,858.757 1274.16,840.706 1289.46,826.823 1304.76,814.986 1312.41,810.043 1320.06,805.842 1327.71,802.436 1335.36,799.866 1344.7,797.903 1354.04,797.255 1363.38,797.92 1372.72,799.869 1382.06,803.042 1391.4,807.356 1400.74,812.703 1410.08,818.951 1427.19,832.228 1444.3,846.957 1461.41,861.96 1478.52,876.013 1486.43,881.848 1494.33,887.114 1502.23,891.706 1510.13,895.525 1518.03,898.483 1525.94,900.503 1533.84,901.515 1541.74,901.466 1549.74,900.289 1557.75,897.947 1565.75,894.425 1573.76,889.719 1581.76,883.843 1589.77,876.823 1597.77,868.701 1605.77,859.531 1614.75,848.093 1623.72,835.535 1632.69,821.989 1641.66,807.597 1659.6,776.919 1677.54,744.861 1693.8,715.823 1710.06,687.893 1718.18,674.659 1726.31,662.067 1734.44,650.225 1742.57,639.228 1751.88,627.784 1761.18,617.668 1770.49,608.965 1779.8,601.738 1789.11,596.023 1798.41,591.835 1807.72,589.16 1817.03,587.962 1825.64,588.119 1834.26,589.428 1842.88,591.808 1851.5,595.167 1860.11,599.399 1868.73,604.389 1877.35,610.013 1885.97,616.141 1902.96,629.17 1919.95,642.577 1936.94,655.342 1953.93,666.534 1962.18,671.157 1970.43,675.148 1978.68,678.441 1986.93,680.988 1995.18,682.75 2003.43,683.703 2011.67,683.838 2019.92,683.16 2028.38,681.637 2036.83,679.312 2045.29,676.231 2053.75,672.458 2070.66,663.137 2087.57,652.07 2106.1,638.954 2124.63,625.999 2143.16,614.465 2161.69,605.546 2168.42,603.164 2175.14,601.31 2181.87,600.022 2188.6,599.336 2195.33,599.279 2202.06,599.875 2208.79,601.143 2215.52,603.094 2222.25,605.736 2228.98,609.067 2235.71,613.082 2242.44,617.771 2255.89,629.09 2269.35,642.817 2274.87,649.081 2280.4,655.679 2285.92,662.584 2291.44,669.769 "/>
<polyline clip-path="url(#clip592)" style="stroke:#e26f46; stroke-linecap:round; stroke-linejoin:round; stroke-width:8; stroke-opacity:1; fill:none" points="247.59,1367.34 250.916,1364.54 254.243,1361.54 257.569,1358.34 260.896,1354.95 268.586,1346.36 276.276,1336.79 283.966,1326.26 291.656,1314.85 299.346,1302.58 307.036,1289.54 314.725,1275.76 322.415,1261.33 330.105,1246.29 337.795,1230.73 345.485,1214.7 353.175,1198.28 368.555,1164.54 383.935,1130.05 402.42,1088.4 420.905,1047.35 430.148,1027.31 439.391,1007.72 448.633,988.652 457.876,970.194 465.69,955.111 473.505,940.546 481.319,926.528 489.134,913.084 496.948,900.237 504.763,888.003 512.577,876.394 520.392,865.417 528.881,854.214 537.37,843.759 545.858,834.044 554.347,825.057 562.836,816.778 571.325,809.185 579.813,802.25 588.302,795.943 596.128,790.654 603.954,785.839 611.78,781.468 619.606,777.508 635.258,770.688 650.909,765.106 667.69,760.186 684.47,756.052 701.25,752.406 718.031,748.985 756.914,740.805 795.798,731.097 830.353,721 864.908,710.195 895.209,701.034 925.511,693.069 942.029,689.514 958.548,686.649 975.066,684.546 991.585,683.253 1008.2,682.785 1024.82,683.137 1041.43,684.267 1058.05,686.104 1094.79,692.196 1131.54,700.047 1166.5,707.943 1201.46,715.252 1237.81,721.53 1274.16,726.2 1304.76,729.012 1335.36,731.108 1410.08,735.574 1478.52,741.574 1541.74,748.751 1605.77,755.058 1641.66,757.053 1677.54,757.532 1710.06,756.634 1742.57,754.644 1817.03,747.762 1885.97,741.595 1953.93,737.729 2019.92,735.589 2087.57,733.261 2161.69,729.232 2269.35,723.024 2291.44,722.313 "/>
<polyline clip-path="url(#clip592)" style="stroke:#00a8cb; stroke-linecap:round; stroke-linejoin:round; stroke-width:4; stroke-opacity:1; fill:none" points="247.59,199.559 250.916,217.705 254.243,237.035 257.569,257.506 260.896,279.071 264.741,305.294 268.586,332.832 272.431,361.601 276.276,391.512 280.121,422.475 283.966,454.394 287.811,487.172 291.656,520.709 299.346,589.646 307.036,660.362 314.725,731.993 322.415,803.664 330.105,874.497 337.795,943.628 341.64,977.29 345.485,1010.21 349.33,1042.29 353.175,1073.43 357.02,1103.54 360.865,1132.52 364.71,1160.28 368.555,1186.75 372.4,1211.83 376.245,1235.45 380.09,1257.55 383.935,1278.05 388.556,1300.48 393.177,1320.42 397.799,1337.77 402.42,1352.46 407.041,1364.42 411.663,1373.6 416.284,1379.97 420.905,1383.48 425.527,1384.13 430.148,1381.92 434.769,1376.84 439.391,1368.94 444.012,1358.23 448.633,1344.77 453.254,1328.62 457.876,1309.85 461.783,1291.99 465.69,1272.38 469.598,1251.07 473.505,1228.13 477.412,1203.63 481.319,1177.66 485.227,1150.29 489.134,1121.6 493.041,1091.7 496.948,1060.68 500.856,1028.62 504.763,995.642 512.577,927.324 520.392,856.583 537.37,698.856 554.347,543.306 558.591,505.851 562.836,469.253 567.08,433.648 571.325,399.167 575.569,365.941 579.813,334.093 584.058,303.741 588.302,274.998 592.215,250.019 596.128,226.578 600.041,204.749 603.954,184.603 607.867,166.201 611.78,149.604 615.693,134.864 619.606,122.026 623.519,111.133 627.432,102.217 631.345,95.3088 635.258,90.4287 639.17,87.5927 643.083,86.8096 646.996,88.082 650.909,91.4059 655.104,97.2359 659.299,105.39 663.495,115.84 667.69,128.546 671.885,143.462 676.08,160.535 680.275,179.702 684.47,200.893 688.665,224.031 692.86,249.031 697.055,275.804 701.25,304.25 705.446,334.267 709.641,365.746 713.836,398.571 718.031,432.623 722.891,473.447 727.752,515.552 732.612,558.732 737.472,602.777 747.193,692.594 756.914,783.249 766.635,872.973 776.356,960.012 781.216,1001.99 786.077,1042.67 790.937,1081.84 795.798,1119.32 800.117,1151.07 804.436,1181.2 808.756,1209.62 813.075,1236.2 817.394,1260.85 821.714,1283.48 826.033,1303.99 830.353,1322.3 834.672,1338.35 838.991,1352.07 843.311,1363.41 847.63,1372.32 851.949,1378.78 856.269,1382.75 860.588,1384.23 864.908,1383.2 868.695,1380.24 872.483,1375.36 876.271,1368.58 880.058,1359.93 883.846,1349.42 887.634,1337.08 891.421,1322.96 895.209,1307.1 898.997,1289.53 902.785,1270.33 906.572,1249.53 910.36,1227.21 914.148,1203.43 917.935,1178.25 921.723,1151.77 925.511,1124.04 929.64,1092.5 933.77,1059.7 937.9,1025.76 942.029,990.79 950.288,918.272 958.548,843.173 966.807,766.552 975.066,689.488 983.325,613.069 991.585,538.372 995.739,501.787 999.893,466.034 1004.05,431.242 1008.2,397.536 1012.36,365.035 1016.51,333.856 1020.66,304.109 1024.82,275.902 1028.97,249.335 1033.13,224.502 1037.28,201.493 1041.43,180.389 1045.59,161.266 1049.74,144.192 1053.9,129.228 1058.05,116.428 1062.64,104.849 1067.24,96.0206 1071.83,89.9818 1076.42,86.7588 1081.02,86.3656 1085.61,88.8041 1090.2,94.0635 1094.79,102.121 1099.39,112.941 1103.98,126.477 1108.57,142.669 1113.17,161.447 1117.76,182.73 1122.35,206.423 1126.95,232.424 1131.54,260.618 1135.91,289.37 1140.28,319.883 1144.65,352.037 1149.02,385.705 1153.39,420.753 1157.76,457.044 1162.13,494.434 1166.5,532.776 1175.24,611.703 1183.98,692.579 1192.72,774.129 1201.46,855.064 1206,896.473 1210.55,937.194 1215.09,977.051 1219.63,1015.88 1224.18,1053.5 1228.72,1089.77 1233.27,1124.52 1237.81,1157.61 1242.35,1188.89 1246.9,1218.24 1251.44,1245.52 1255.99,1270.63 1260.53,1293.45 1265.07,1313.88 1269.62,1331.84 1274.16,1347.25 1277.99,1358.2 1281.81,1367.27 1285.64,1374.42 1289.46,1379.64 1293.29,1382.91 1297.11,1384.21 1300.94,1383.55 1304.76,1380.93 1308.59,1376.36 1312.41,1369.84 1316.24,1361.41 1320.06,1351.08 1323.89,1338.88 1327.71,1324.86 1331.54,1309.06 1335.36,1291.51 1340.03,1267.82 1344.7,1241.72 1349.37,1213.34 1354.04,1182.81 1358.71,1150.25 1363.38,1115.82 1368.05,1079.68 1372.72,1041.99 1377.39,1002.91 1382.06,962.622 1386.73,921.312 1391.4,879.164 1400.74,793.115 1410.08,706.029 1418.63,626.681 1427.19,548.979 1431.47,511.115 1435.75,474.101 1440.02,438.077 1444.3,403.179 1448.58,369.54 1452.86,337.286 1457.13,306.541 1461.41,277.42 1465.69,250.035 1469.97,224.487 1474.25,200.875 1478.52,179.287 1482.48,161.219 1486.43,145.006 1490.38,130.7 1494.33,118.348 1498.28,107.99 1502.23,99.6592 1506.18,93.3823 1510.13,89.1796 1514.08,87.0649 1518.03,87.045 1521.98,89.1198 1525.94,93.2827 1529.89,99.5203 1533.84,107.812 1537.79,118.132 1541.74,130.446 1545.74,144.913 1549.74,161.337 1553.75,179.664 1557.75,199.834 1561.75,221.78 1565.75,245.428 1569.75,270.701 1573.76,297.514 1577.76,325.78 1581.76,355.403 1585.76,386.287 1589.77,418.328 1593.77,451.421 1597.77,485.455 1601.77,520.318 1605.77,555.895 1623.72,720.974 1641.66,887.017 1646.14,927.38 1650.63,966.944 1655.11,1005.55 1659.6,1043.02 1664.08,1079.22 1668.57,1113.98 1673.05,1147.17 1677.54,1178.65 1681.6,1205.58 1685.67,1230.91 1689.73,1254.54 1693.8,1276.4 1697.86,1296.41 1701.93,1314.5 1705.99,1330.61 1710.06,1344.69 1714.12,1356.68 1718.18,1366.55 1722.25,1374.27 1726.31,1379.8 1730.38,1383.13 1734.44,1384.24 1738.51,1383.13 1742.57,1379.81 1747.22,1373.31 1751.88,1363.95 1756.53,1351.77 1761.18,1336.83 1765.84,1319.19 1770.49,1298.94 1775.15,1276.16 1779.8,1250.96 1784.45,1223.45 1789.11,1193.75 1793.76,1162 1798.41,1128.34 1803.07,1092.91 1807.72,1055.89 1812.37,1017.42 1817.03,977.694 1825.64,901.392 1834.26,822.54 1842.88,742.348 1851.5,662.046 1860.11,582.867 1868.73,506.025 1873.04,468.852 1877.35,432.702 1881.66,397.713 1885.97,364.021 1890.21,332.199 1894.46,301.882 1898.71,273.183 1902.96,246.208 1907.21,221.059 1911.45,197.83 1915.7,176.606 1919.95,157.468 1924.2,140.486 1928.45,125.725 1932.69,113.239 1936.94,103.075 1941.19,95.2714 1945.44,89.8563 1949.68,86.8504 1953.93,86.265 1958.06,88.0146 1962.18,92.0419 1966.31,98.3326 1970.43,106.865 1974.55,117.608 1978.68,130.525 1982.8,145.57 1986.93,162.69 1991.05,181.825 1995.18,202.907 1999.3,225.863 2003.43,250.611 2007.55,277.064 2011.67,305.13 2015.8,334.71 2019.92,365.699 2024.15,398.815 2028.38,433.175 2032.61,468.653 2036.83,505.116 2045.29,580.457 2053.75,658.085 2062.2,736.853 2070.66,815.597 2079.11,893.152 2087.57,968.373 2092.2,1008.19 2096.83,1046.79 2101.47,1084.01 2106.1,1119.68 2110.73,1153.65 2115.36,1185.76 2120,1215.86 2124.63,1243.84 2129.26,1269.55 2133.89,1292.9 2138.53,1313.77 2143.16,1332.07 2147.79,1347.72 2152.42,1360.65 2157.05,1370.81 2161.69,1378.14 2165.05,1381.68 2168.42,1383.71 2171.78,1384.22 2175.14,1383.21 2178.51,1380.68 2181.87,1376.63 2185.24,1371.09 2188.6,1364.06 2191.97,1355.55 2195.33,1345.59 2198.7,1334.2 2202.06,1321.41 2205.43,1307.25 2208.79,1291.75 2212.15,1274.94 2215.52,1256.87 2218.88,1237.58 2222.25,1217.11 2225.61,1195.52 2228.98,1172.84 2232.34,1149.14 2235.71,1124.48 2239.07,1098.9 2242.44,1072.47 2249.17,1017.3 2255.89,959.499 2262.62,899.598 2269.35,838.159 2274.87,786.999 2280.4,735.513 2285.92,684.027 2291.44,632.866 "/>
<polyline clip-path="url(#clip592)" style="stroke:#00a8cb; stroke-linecap:round; stroke-linejoin:round; stroke-width:4; stroke-opacity:1; fill:none" stroke-dasharray="16, 10" points="247.59,124.432 250.916,130.644 254.243,137.291 257.569,144.362 260.896,151.85 268.586,170.694 276.276,191.569 283.966,214.324 291.656,238.796 299.346,264.81 307.036,292.184 314.725,320.722 322.415,350.228 337.795,411.318 353.175,473.792 368.555,535.993 383.935,596.321 393.177,631.049 402.42,664.262 407.041,680.215 411.663,695.689 416.284,710.653 420.905,725.081 425.527,738.945 430.148,752.222 434.769,764.889 439.391,776.927 444.012,788.316 448.633,799.042 453.254,809.09 457.876,818.449 461.783,825.818 465.69,832.683 469.598,839.042 473.505,844.892 477.412,850.232 481.319,855.063 485.227,859.385 489.134,863.201 493.041,866.515 496.948,869.331 500.856,871.654 504.763,873.492 512.577,875.74 520.392,876.147 524.636,875.626 528.881,874.603 533.125,873.094 537.37,871.117 545.858,865.831 554.347,858.907 562.836,850.514 571.325,840.835 579.813,830.06 588.302,818.383 619.606,770.781 650.909,723.308 659.299,711.73 667.69,700.911 676.08,690.97 684.47,682.013 692.86,674.128 701.25,667.386 709.641,661.842 718.031,657.532 727.752,654.107 737.472,652.366 747.193,652.279 756.914,653.79 766.635,656.815 776.356,661.245 786.077,666.95 795.798,673.782 813.075,688.188 830.353,704.619 847.63,722.007 864.908,739.286 880.058,753.552 895.209,766.351 902.785,772.035 910.36,777.167 917.935,781.699 925.511,785.593 933.77,789.073 942.029,791.726 950.288,793.536 958.548,794.494 966.807,794.608 975.066,793.893 983.325,792.376 991.585,790.097 999.893,787.082 1008.2,783.399 1016.51,779.113 1024.82,774.297 1041.43,763.387 1058.05,751.341 1076.42,737.55 1094.79,724.181 1113.17,712.114 1131.54,702.108 1140.28,698.25 1149.02,695.044 1157.76,692.527 1166.5,690.726 1175.24,689.656 1183.98,689.32 1192.72,689.71 1201.46,690.807 1210.55,692.667 1219.63,695.214 1228.72,698.396 1237.81,702.146 1255.99,711.055 1274.16,721.283 1304.76,739.471 1335.36,755.906 1344.7,760.101 1354.04,763.785 1363.38,766.901 1372.72,769.403 1382.06,771.255 1391.4,772.436 1400.74,772.935 1410.08,772.754 1427.19,770.712 1444.3,766.622 1461.41,760.785 1478.52,753.591 1510.13,738.325 1541.74,723.193 1557.75,716.555 1573.76,711.054 1589.77,706.95 1605.77,704.423 1614.75,703.736 1623.72,703.581 1632.69,703.953 1641.66,704.841 1650.63,706.222 1659.6,708.067 1668.57,710.342 1677.54,713.003 1710.06,725.076 1742.57,738.805 1761.18,746.265 1779.8,752.781 1798.41,757.919 1817.03,761.351 1834.26,762.828 1851.5,762.614 1868.73,760.755 1885.97,757.397 1902.96,752.847 1919.95,747.359 1936.94,741.272 1953.93,734.955 1970.43,728.959 1986.93,723.429 2003.43,718.663 2019.92,714.911 2036.83,712.316 2053.75,711.113 2070.66,711.346 2087.57,712.977 2106.1,716.223 2124.63,720.744 2143.16,726.2 2161.69,732.194 2188.6,740.977 2215.52,748.702 2228.98,751.813 2242.44,754.271 2255.89,755.995 2269.35,756.93 2274.87,757.079 2280.4,757.09 2285.92,756.964 2291.44,756.703 "/>
<polyline clip-path="url(#clip592)" style="stroke:#9b7fe8; stroke-linecap:round; stroke-linejoin:round; stroke-width:4; stroke-opacity:1; fill:none" points="247.59,150.018 250.916,160.4 254.243,171.514 257.569,183.345 260.896,195.878 268.586,227.447 276.276,262.466 283.966,300.697 291.656,341.881 299.346,385.737 307.036,431.967 314.725,480.257 322.415,530.28 337.795,634.151 353.175,740.762 368.555,847.219 383.935,950.635 388.556,980.691 393.177,1010.14 397.799,1038.92 402.42,1066.95 411.663,1120.51 420.905,1170.28 425.527,1193.59 430.148,1215.78 434.769,1236.78 439.391,1256.56 444.012,1275.05 448.633,1292.22 453.254,1308.03 457.876,1322.42 461.783,1333.47 465.69,1343.47 469.598,1352.4 473.505,1360.24 477.412,1366.99 481.319,1372.63 485.227,1377.16 489.134,1380.55 493.041,1382.81 496.948,1383.94 500.856,1383.93 504.763,1382.78 508.67,1380.49 512.577,1377.07 516.485,1372.52 520.392,1366.86 524.636,1359.45 528.881,1350.75 533.125,1340.77 537.37,1329.54 541.614,1317.08 545.858,1303.42 550.103,1288.57 554.347,1272.59 558.591,1255.49 562.836,1237.31 567.08,1218.09 571.325,1197.87 575.569,1176.7 579.813,1154.61 584.058,1131.66 588.302,1107.88 596.128,1062.06 603.954,1013.93 611.78,963.853 619.606,912.166 635.258,805.435 650.909,696.744 659.299,638.737 667.69,581.514 676.08,525.539 684.47,471.264 692.86,419.13 701.25,369.557 709.641,322.947 718.031,279.677 722.891,256.278 727.752,234.182 732.612,213.447 737.472,194.132 742.333,176.288 747.193,159.964 752.054,145.204 756.914,132.049 761.775,120.534 766.635,110.689 771.495,102.543 776.356,96.1175 781.216,91.4293 786.077,88.4915 790.937,87.3121 795.798,87.8943 800.117,89.8889 804.436,93.2692 808.756,98.028 813.075,104.155 817.394,111.637 821.714,120.459 826.033,130.6 830.353,142.04 834.672,154.754 838.991,168.714 843.311,183.891 847.63,200.252 851.949,217.762 856.269,236.384 860.588,256.077 864.908,276.799 872.483,315.491 880.058,356.956 887.634,400.919 895.209,447.092 902.785,495.168 910.36,544.832 917.935,595.755 925.511,647.601 942.029,762.197 958.548,875.963 966.807,931.418 975.066,985.338 983.325,1037.3 991.585,1086.9 999.893,1134.01 1008.2,1177.96 1012.36,1198.64 1016.51,1218.4 1020.66,1237.21 1024.82,1255.01 1028.97,1271.79 1033.13,1287.5 1037.28,1302.12 1041.43,1315.61 1045.59,1327.95 1049.74,1339.12 1053.9,1349.09 1058.05,1357.84 1062.64,1366.08 1067.24,1372.78 1071.83,1377.94 1076.42,1381.55 1081.02,1383.58 1085.61,1384.04 1090.2,1382.93 1094.79,1380.25 1099.39,1376.01 1103.98,1370.21 1108.57,1362.87 1113.17,1354 1117.76,1343.64 1122.35,1331.8 1126.95,1318.52 1131.54,1303.82 1135.91,1288.55 1140.28,1272.07 1144.65,1254.41 1149.02,1235.61 1153.39,1215.71 1157.76,1194.76 1162.13,1172.79 1166.5,1149.87 1175.24,1101.34 1183.98,1049.6 1192.72,995.092 1201.46,938.307 1219.63,815.103 1237.81,688.87 1246.9,626.112 1255.99,564.388 1265.07,504.284 1274.16,446.37 1281.81,399.721 1289.46,355.328 1297.11,313.489 1304.76,274.486 1312.41,238.581 1320.06,206.015 1323.89,191.054 1327.71,177.008 1331.54,163.9 1335.36,151.754 1340.03,138.256 1344.7,126.256 1349.37,115.781 1354.04,106.859 1358.71,99.5129 1363.38,93.7598 1368.05,89.6146 1372.72,87.0878 1377.39,86.1857 1382.06,86.9105 1386.73,89.2604 1391.4,93.2295 1396.07,98.8079 1400.74,105.982 1405.41,114.732 1410.08,125.039 1414.36,135.823 1418.63,147.868 1422.91,161.149 1427.19,175.637 1431.47,191.303 1435.75,208.112 1440.02,226.031 1444.3,245.02 1448.58,265.041 1452.86,286.05 1457.13,308.004 1461.41,330.857 1469.97,379.065 1478.52,430.268 1486.43,479.845 1494.33,531.254 1502.23,584.126 1510.13,638.081 1525.94,747.688 1541.74,856.934 1549.74,911.128 1557.75,964.026 1565.75,1015.24 1573.76,1064.39 1581.76,1111.11 1589.77,1155.07 1597.77,1195.94 1605.77,1233.41 1610.26,1252.82 1614.75,1271.04 1619.23,1288.01 1623.72,1303.71 1628.2,1318.09 1632.69,1331.12 1637.17,1342.78 1641.66,1353.03 1646.14,1361.85 1650.63,1369.22 1655.11,1375.12 1659.6,1379.55 1664.08,1382.48 1668.57,1383.92 1673.05,1383.86 1677.54,1382.29 1681.6,1379.59 1685.67,1375.65 1689.73,1370.51 1693.8,1364.15 1697.86,1356.6 1701.93,1347.87 1705.99,1337.98 1710.06,1326.94 1714.12,1314.78 1718.18,1301.52 1722.25,1287.19 1726.31,1271.8 1734.44,1238.01 1742.57,1200.4 1747.22,1177.26 1751.88,1153.02 1756.53,1127.75 1761.18,1101.49 1765.84,1074.33 1770.49,1046.32 1775.15,1017.53 1779.8,988.05 1789.11,927.271 1798.41,864.584 1807.72,800.614 1817.03,735.997 1834.26,616.814 1851.5,501.681 1860.11,446.868 1868.73,394.521 1873.04,369.413 1877.35,345.087 1881.66,321.595 1885.97,298.987 1890.21,277.611 1894.46,257.185 1898.71,237.753 1902.96,219.354 1907.21,202.026 1911.45,185.806 1915.7,170.728 1919.95,156.822 1924.2,144.117 1928.45,132.64 1932.69,122.414 1936.94,113.461 1941.19,105.8 1945.44,99.446 1949.68,94.4124 1953.93,90.7096 1958.06,88.3952 1962.18,87.3472 1966.31,87.5676 1970.43,89.056 1974.55,91.8095 1978.68,95.8228 1982.8,101.088 1986.93,107.594 1991.05,115.33 1995.18,124.279 1999.3,134.424 2003.43,145.746 2007.55,158.222 2011.67,171.828 2015.8,186.536 2019.92,202.319 2024.15,219.582 2028.38,237.906 2032.61,257.253 2036.83,277.584 2045.29,321.027 2053.75,367.879 2062.2,417.755 2070.66,470.243 2079.11,524.914 2087.57,581.317 2106.1,708.688 2124.63,837.121 2133.89,900.153 2143.16,961.562 2152.42,1020.74 2161.69,1077.11 2168.42,1115.97 2175.14,1152.85 2181.87,1187.56 2188.6,1219.92 2195.33,1249.75 2202.06,1276.91 2208.79,1301.25 2215.52,1322.64 2222.25,1340.98 2228.98,1356.17 2232.34,1362.55 2235.71,1368.12 2239.07,1372.87 2242.44,1376.79 2245.8,1379.87 2249.17,1382.11 2252.53,1383.51 2255.89,1384.07 2262.62,1382.65 2269.35,1377.86 2274.87,1371.43 2280.4,1362.77 2285.92,1351.91 2291.44,1338.88 "/>
<polyline clip-path="url(#clip592)" style="stroke:#9b7fe8; stroke-linecap:round; stroke-linejoin:round; stroke-width:4; stroke-opacity:1; fill:none" stroke-dasharray="16, 10" points="247.59,107.602 250.916,111.114 254.243,114.882 257.569,118.903 260.896,123.175 268.586,133.99 276.276,146.081 283.966,159.4 291.656,173.892 299.346,189.5 307.036,206.161 314.725,223.808 322.415,242.372 330.105,261.779 337.795,281.953 345.485,302.814 353.175,324.282 368.555,368.702 383.935,414.533 402.42,470.509 420.905,526.334 430.148,553.825 439.391,580.849 448.633,607.272 457.876,632.965 465.69,654.029 473.505,674.416 481.319,694.06 489.134,712.9 496.948,730.88 504.763,747.95 512.577,764.062 520.392,779.175 528.881,794.42 537.37,808.405 545.858,821.101 554.347,832.484 562.836,842.539 571.325,851.259 579.813,858.643 588.302,864.7 596.128,869.122 603.954,872.445 611.78,874.693 619.606,875.893 627.432,876.077 635.258,875.28 643.083,873.545 650.909,870.914 659.299,867.154 667.69,862.482 676.08,856.967 684.47,850.678 692.86,843.689 701.25,836.074 709.641,827.912 718.031,819.28 756.914,775.444 795.798,730.972 813.075,712.853 830.353,696.487 838.991,689.098 847.63,682.3 856.269,676.132 864.908,670.628 872.483,666.37 880.058,662.658 887.634,659.503 895.209,656.913 902.785,654.892 910.36,653.44 917.935,652.555 925.511,652.229 933.77,652.5 942.029,653.409 950.288,654.934 958.548,657.05 966.807,659.728 975.066,662.936 983.325,666.639 991.585,670.799 1008.2,680.381 1024.82,691.285 1041.43,703.127 1058.05,715.513 1076.42,729.362 1094.79,742.871 1113.17,755.553 1131.54,766.971 1149.02,776.318 1166.5,783.92 1175.24,787.003 1183.98,789.583 1192.72,791.647 1201.46,793.185 1210.55,794.223 1219.63,794.69 1228.72,794.592 1237.81,793.939 1246.9,792.748 1255.99,791.037 1265.07,788.834 1274.16,786.165 1289.46,780.714 1304.76,774.215 1320.06,766.868 1335.36,758.886 1372.72,738.144 1410.08,718.269 1427.19,710.289 1444.3,703.361 1461.41,697.682 1478.52,693.404 1494.33,690.789 1510.13,689.498 1525.94,689.538 1541.74,690.874 1557.75,693.48 1573.76,697.241 1589.77,702.024 1605.77,707.665 1641.66,722.474 1677.54,738.398 1693.8,745.352 1710.06,751.856 1726.31,757.726 1742.57,762.801 1761.18,767.463 1779.8,770.754 1798.41,772.58 1817.03,772.903 1834.26,771.88 1851.5,769.647 1868.73,766.306 1885.97,761.991 1919.95,751.289 1953.93,738.956 1986.93,726.979 2019.92,716.463 2036.83,712.049 2053.75,708.475 2070.66,705.843 2087.57,704.219 2106.1,703.639 2124.63,704.309 2143.16,706.18 2161.69,709.155 2188.6,715.159 2215.52,722.658 2242.44,731.002 2269.35,739.492 2274.87,741.187 2280.4,742.854 2285.92,744.486 2291.44,746.077 "/>
<polyline clip-path="url(#clip592)" style="stroke:#608cf6; stroke-linecap:round; stroke-linejoin:round; stroke-width:4; stroke-opacity:1; fill:none" points="247.59,99.119 250.916,101.257 254.243,103.556 257.569,106.016 260.896,108.636 276.276,122.81 291.656,140.313 307.036,161.049 322.415,184.907 337.795,211.755 353.175,241.448 368.555,273.825 383.935,308.708 402.42,353.683 420.905,401.65 439.391,452.233 457.876,505.034 489.134,598.196 520.392,694.414 554.347,799.878 588.302,903.605 603.954,950.072 619.606,995.323 635.258,1039.1 650.909,1081.17 667.69,1124.08 684.47,1164.48 701.25,1202.08 718.031,1236.66 727.752,1255.22 737.472,1272.64 747.193,1288.89 756.914,1303.94 766.635,1317.75 776.356,1330.29 786.077,1341.53 795.798,1351.46 804.436,1359.16 813.075,1365.78 821.714,1371.32 830.353,1375.77 838.991,1379.11 847.63,1381.35 856.269,1382.48 864.908,1382.49 880.058,1379.84 895.209,1373.78 902.785,1369.48 910.36,1364.34 917.935,1358.37 925.511,1351.58 933.77,1343.25 942.029,1333.97 950.288,1323.75 958.548,1312.6 966.807,1300.54 975.066,1287.6 983.325,1273.8 991.585,1259.14 1008.2,1227.2 1024.82,1192.14 1041.43,1154.18 1058.05,1113.56 1076.42,1065.87 1094.79,1015.63 1113.17,963.218 1131.54,909.047 1166.5,802.63 1201.46,694.372 1219.63,638.375 1237.81,583.131 1255.99,529.061 1274.16,476.576 1289.46,433.918 1304.76,392.898 1320.06,353.737 1335.36,316.645 1344.7,295.107 1354.04,274.458 1363.38,254.741 1372.72,235.994 1382.06,218.255 1391.4,201.561 1400.74,185.945 1410.08,171.438 1418.63,159.147 1427.19,147.832 1435.75,137.512 1444.3,128.205 1452.86,119.926 1461.41,112.69 1469.97,106.508 1478.52,101.391 1486.43,97.6182 1494.33,94.767 1502.23,92.841 1510.13,91.8432 1518.03,91.7749 1525.94,92.6362 1533.84,94.4259 1541.74,97.1415 1549.74,100.832 1557.75,105.463 1565.75,111.028 1573.76,117.518 1581.76,124.924 1589.77,133.236 1597.77,142.439 1605.77,152.522 1614.75,164.848 1623.72,178.236 1632.69,192.663 1641.66,208.099 1659.6,241.889 1677.54,279.355 1693.8,316.248 1710.06,355.707 1726.31,397.491 1742.57,441.346 1761.18,493.755 1779.8,548.109 1798.41,603.973 1817.03,660.902 1851.5,767.591 1885.97,873.448 1902.96,924.436 1919.95,974.177 1936.94,1022.34 1953.93,1068.61 1970.43,1111.42 1986.93,1151.88 2003.43,1189.74 2019.92,1224.75 2028.38,1241.53 2036.83,1257.47 2045.29,1272.55 2053.75,1286.76 2062.2,1300.05 2070.66,1312.41 2079.11,1323.83 2087.57,1334.28 2096.83,1344.59 2106.1,1353.7 2115.36,1361.59 2124.63,1368.24 2133.89,1373.64 2143.16,1377.78 2152.42,1380.66 2161.69,1382.25 2175.14,1382.29 2188.6,1379.63 2202.06,1374.29 2215.52,1366.28 2228.98,1355.63 2242.44,1342.4 2255.89,1326.64 2269.35,1308.41 2274.87,1300.23 2280.4,1291.66 2285.92,1282.69 2291.44,1273.34 "/>
<polyline clip-path="url(#clip592)" style="stroke:#608cf6; stroke-linecap:round; stroke-linejoin:round; stroke-width:4; stroke-opacity:1; fill:none" stroke-dasharray="16, 10" points="247.59,90.4985 250.916,91.2132 254.243,91.9822 257.569,92.8053 260.896,93.6825 276.276,98.4363 291.656,104.326 307.036,111.334 322.415,119.436 337.795,128.605 353.175,138.813 368.555,150.027 383.935,162.209 402.42,178.078 420.905,195.216 439.391,213.544 457.876,232.977 473.505,250.204 489.134,268.102 504.763,286.611 520.392,305.673 554.347,348.693 588.302,393.382 619.606,435.487 650.909,477.925 684.47,523.207 718.031,567.66 737.472,592.798 756.914,617.351 776.356,641.213 795.798,664.286 813.075,684.053 830.353,703.063 847.63,721.259 864.908,738.589 880.058,753.036 895.209,766.752 910.36,779.711 925.511,791.891 942.029,804.26 958.548,815.657 975.066,826.067 991.585,835.477 1008.2,843.926 1024.82,851.352 1041.43,857.757 1058.05,863.145 1076.42,867.931 1094.79,871.507 1113.17,873.898 1131.54,875.136 1149.02,875.277 1166.5,874.444 1183.98,872.677 1201.46,870.022 1219.63,866.37 1237.81,861.866 1255.99,856.572 1274.16,850.551 1289.46,844.967 1304.76,838.957 1320.06,832.56 1335.36,825.821 1372.72,808.188 1410.08,789.39 1444.3,771.679 1478.52,753.977 1510.13,738.017 1541.74,722.761 1573.76,708.327 1605.77,695.187 1623.72,688.479 1641.66,682.285 1659.6,676.637 1677.54,671.562 1693.8,667.476 1710.06,663.891 1726.31,660.817 1742.57,658.261 1761.18,655.976 1779.8,654.378 1798.41,653.461 1817.03,653.217 1834.26,653.58 1851.5,654.494 1868.73,655.943 1885.97,657.904 1919.95,663.185 1953.93,670.161 1986.93,678.328 2019.92,687.621 2087.57,709.073 2161.69,733.927 2269.35,766.556 2291.44,772.114 "/>
<path clip-path="url(#clip590)" d="M1625.75 559.669 L2280.54 559.669 L2280.54 93.1086 L1625.75 93.1086  Z" fill="#ffffff" fill-rule="evenodd" fill-opacity="1"/>
<polyline clip-path="url(#clip590)" style="stroke:#000000; stroke-linecap:round; stroke-linejoin:round; stroke-width:4; stroke-opacity:1; fill:none" points="1625.75,559.669 2280.54,559.669 2280.54,93.1086 1625.75,93.1086 1625.75,559.669 "/>
<polyline clip-path="url(#clip590)" style="stroke:#009af9; stroke-linecap:round; stroke-linejoin:round; stroke-width:8; stroke-opacity:1; fill:none" points="1649.82,144.949 1794.25,144.949 "/>
<path clip-path="url(#clip590)" d="M1829.17 167.856 Q1829.17 168.254 1828.89 168.535 Q1828.6 168.816 1828.21 168.816 Q1827.53 168.816 1827.29 168.184 L1818.37 145.159 Q1818.32 145.066 1818.32 144.831 Q1818.32 144.597 1818.37 144.503 L1827.29 121.479 Q1827.53 120.847 1828.21 120.847 Q1828.6 120.847 1828.89 121.128 Q1829.17 121.409 1829.17 121.807 Q1829.17 122.041 1829.12 122.135 L1820.29 144.831 L1829.12 167.528 Q1829.17 167.621 1829.17 167.856 Z" fill="#000000" fill-rule="evenodd" fill-opacity="1" /><path clip-path="url(#clip590)" d="M1876.09 149.961 Q1876.09 150.148 1875.88 150.874 Q1875.67 151.6 1875.15 152.725 Q1874.66 153.849 1873.96 154.88 Q1873.28 155.887 1872.15 156.636 Q1871.05 157.362 1869.79 157.362 Q1868.1 157.362 1866.98 156.238 Q1865.85 155.114 1865.85 153.427 Q1865.85 152.514 1866.48 150.781 Q1869.46 142.864 1869.46 140.03 Q1869.46 136.68 1866.86 136.68 Q1865.38 136.68 1864.05 137.289 Q1862.71 137.898 1861.85 138.741 Q1860.98 139.585 1860.3 140.545 Q1859.62 141.505 1859.32 142.138 Q1859.04 142.77 1858.96 143.051 L1856.08 154.622 Q1855.85 155.606 1855.69 156.074 Q1855.52 156.543 1855.08 156.941 Q1854.63 157.362 1853.93 157.362 Q1853.34 157.362 1852.92 157.011 Q1852.52 156.66 1852.52 156.051 Q1852.52 155.957 1852.64 155.465 Q1852.76 154.973 1852.92 154.294 Q1853.09 153.615 1853.16 153.217 Q1854 150.031 1854.12 149.586 L1855.45 144.012 Q1856.18 141.248 1856.18 140.03 Q1856.18 136.68 1853.58 136.68 Q1852.29 136.68 1851.07 137.172 Q1849.88 137.641 1849.06 138.296 Q1848.24 138.952 1847.49 139.866 Q1846.76 140.756 1846.39 141.365 Q1846.04 141.95 1845.75 142.536 L1845.15 144.925 Q1845.01 145.581 1844.33 148.134 L1843.27 152.467 Q1842.52 155.699 1842.36 156.004 Q1842.12 156.66 1841.61 157.011 Q1841.09 157.362 1840.58 157.362 Q1839.99 157.362 1839.59 157.011 Q1839.2 156.66 1839.2 156.051 Q1839.2 155.957 1839.27 155.606 Q1839.34 155.254 1839.45 154.762 Q1839.57 154.271 1839.62 153.99 L1842.41 142.911 Q1842.92 140.896 1843.04 140.264 Q1843.18 139.608 1843.18 138.882 Q1843.18 136.68 1841.68 136.68 Q1840.46 136.68 1839.66 138.133 Q1838.87 139.585 1838.19 142.395 Q1837.98 143.168 1837.84 143.332 Q1837.72 143.496 1837.37 143.496 Q1836.78 143.473 1836.78 143.004 Q1836.78 142.887 1836.97 142.138 Q1837.16 141.388 1837.51 140.264 Q1837.88 139.116 1838.28 138.367 Q1838.52 137.875 1838.73 137.547 Q1838.94 137.219 1839.36 136.704 Q1839.78 136.188 1840.41 135.907 Q1841.05 135.626 1841.82 135.626 Q1843.53 135.626 1844.79 136.727 Q1846.08 137.828 1846.25 139.796 Q1849.36 135.626 1853.72 135.626 Q1856.18 135.626 1857.65 136.868 Q1859.04 138.062 1859.2 140.264 Q1862.43 135.626 1867.02 135.626 Q1869.67 135.626 1871.1 137.008 Q1872.53 138.367 1872.53 140.756 Q1872.53 141.997 1871.89 144.363 Q1871.26 146.705 1870.84 147.876 Q1870.42 149.047 1869.6 151.296 Q1868.73 153.451 1868.73 154.716 Q1868.73 155.535 1869.01 155.91 Q1869.29 156.285 1869.9 156.285 Q1870.84 156.285 1871.66 155.746 Q1872.48 155.184 1873.07 154.271 Q1873.67 153.334 1874.07 152.397 Q1874.47 151.436 1874.78 150.359 Q1874.96 149.773 1875.06 149.633 Q1875.17 149.492 1875.5 149.492 Q1876.09 149.492 1876.09 149.961 Z" fill="#000000" fill-rule="evenodd" fill-opacity="1" /><path clip-path="url(#clip590)" d="M1889.26 144.503 Q1889.31 144.597 1889.31 144.831 Q1889.31 145.066 1889.26 145.159 L1880.34 168.184 Q1880.1 168.816 1879.45 168.816 Q1879.05 168.816 1878.77 168.535 Q1878.49 168.254 1878.49 167.856 Q1878.49 167.621 1878.53 167.528 L1887.34 144.831 L1878.53 122.135 Q1878.49 122.041 1878.49 121.807 Q1878.49 121.409 1878.77 121.128 Q1879.05 120.847 1879.45 120.847 Q1880.1 120.847 1880.34 121.479 L1889.26 144.503 Z" fill="#000000" fill-rule="evenodd" fill-opacity="1" /><polyline clip-path="url(#clip590)" style="stroke:#e26f46; stroke-linecap:round; stroke-linejoin:round; stroke-width:8; stroke-opacity:1; fill:none" points="1649.82,196.789 1794.25,196.789 "/>
<path clip-path="url(#clip590)" d="M1829.17 219.696 Q1829.17 220.094 1828.89 220.375 Q1828.6 220.656 1828.21 220.656 Q1827.53 220.656 1827.29 220.024 L1818.37 196.999 Q1818.32 196.906 1818.32 196.671 Q1818.32 196.437 1818.37 196.343 L1827.29 173.319 Q1827.53 172.687 1828.21 172.687 Q1828.6 172.687 1828.89 172.968 Q1829.17 173.249 1829.17 173.647 Q1829.17 173.881 1829.12 173.975 L1820.29 196.671 L1829.12 219.368 Q1829.17 219.461 1829.17 219.696 Z" fill="#000000" fill-rule="evenodd" fill-opacity="1" /><path clip-path="url(#clip590)" d="M1865.14 182.359 L1853.02 182.359 L1853.02 181.31 L1865.14 181.31 L1865.14 182.359 Z" fill="#000000" fill-rule="evenodd" fill-opacity="1" /><path clip-path="url(#clip590)" d="M1876.09 201.801 Q1876.09 201.988 1875.88 202.714 Q1875.67 203.44 1875.15 204.565 Q1874.66 205.689 1873.96 206.72 Q1873.28 207.727 1872.15 208.476 Q1871.05 209.202 1869.79 209.202 Q1868.1 209.202 1866.98 208.078 Q1865.85 206.954 1865.85 205.267 Q1865.85 204.354 1866.48 202.621 Q1869.46 194.704 1869.46 191.87 Q1869.46 188.52 1866.86 188.52 Q1865.38 188.52 1864.05 189.129 Q1862.71 189.738 1861.85 190.581 Q1860.98 191.425 1860.3 192.385 Q1859.62 193.345 1859.32 193.978 Q1859.04 194.61 1858.96 194.891 L1856.08 206.462 Q1855.85 207.446 1855.69 207.914 Q1855.52 208.383 1855.08 208.781 Q1854.63 209.202 1853.93 209.202 Q1853.34 209.202 1852.92 208.851 Q1852.52 208.5 1852.52 207.891 Q1852.52 207.797 1852.64 207.305 Q1852.76 206.813 1852.92 206.134 Q1853.09 205.455 1853.16 205.057 Q1854 201.871 1854.12 201.426 L1855.45 195.852 Q1856.18 193.088 1856.18 191.87 Q1856.18 188.52 1853.58 188.52 Q1852.29 188.52 1851.07 189.012 Q1849.88 189.481 1849.06 190.136 Q1848.24 190.792 1847.49 191.706 Q1846.76 192.596 1846.39 193.205 Q1846.04 193.79 1845.75 194.376 L1845.15 196.765 Q1845.01 197.421 1844.33 199.974 L1843.27 204.307 Q1842.52 207.539 1842.36 207.844 Q1842.12 208.5 1841.61 208.851 Q1841.09 209.202 1840.58 209.202 Q1839.99 209.202 1839.59 208.851 Q1839.2 208.5 1839.2 207.891 Q1839.2 207.797 1839.27 207.446 Q1839.34 207.094 1839.45 206.602 Q1839.57 206.111 1839.62 205.83 L1842.41 194.751 Q1842.92 192.736 1843.04 192.104 Q1843.18 191.448 1843.18 190.722 Q1843.18 188.52 1841.68 188.52 Q1840.46 188.52 1839.66 189.973 Q1838.87 191.425 1838.19 194.235 Q1837.98 195.008 1837.84 195.172 Q1837.72 195.336 1837.37 195.336 Q1836.78 195.313 1836.78 194.844 Q1836.78 194.727 1836.97 193.978 Q1837.16 193.228 1837.51 192.104 Q1837.88 190.956 1838.28 190.207 Q1838.52 189.715 1838.73 189.387 Q1838.94 189.059 1839.36 188.544 Q1839.78 188.028 1840.41 187.747 Q1841.05 187.466 1841.82 187.466 Q1843.53 187.466 1844.79 188.567 Q1846.08 189.668 1846.25 191.636 Q1849.36 187.466 1853.72 187.466 Q1856.18 187.466 1857.65 188.708 Q1859.04 189.902 1859.2 192.104 Q1862.43 187.466 1867.02 187.466 Q1869.67 187.466 1871.1 188.848 Q1872.53 190.207 1872.53 192.596 Q1872.53 193.837 1871.89 196.203 Q1871.26 198.545 1870.84 199.716 Q1870.42 200.887 1869.6 203.136 Q1868.73 205.291 1868.73 206.556 Q1868.73 207.375 1869.01 207.75 Q1869.29 208.125 1869.9 208.125 Q1870.84 208.125 1871.66 207.586 Q1872.48 207.024 1873.07 206.111 Q1873.67 205.174 1874.07 204.237 Q1874.47 203.276 1874.78 202.199 Q1874.96 201.613 1875.06 201.473 Q1875.17 201.332 1875.5 201.332 Q1876.09 201.332 1876.09 201.801 Z" fill="#000000" fill-rule="evenodd" fill-opacity="1" /><path clip-path="url(#clip590)" d="M1886.46 196.343 Q1886.51 196.437 1886.51 196.671 Q1886.51 196.906 1886.46 196.999 L1877.54 220.024 Q1877.31 220.656 1876.65 220.656 Q1876.25 220.656 1875.97 220.375 Q1875.69 220.094 1875.69 219.696 Q1875.69 219.461 1875.74 219.368 L1884.54 196.671 L1875.74 173.975 Q1875.69 173.881 1875.69 173.647 Q1875.69 173.249 1875.97 172.968 Q1876.25 172.687 1876.65 172.687 Q1877.31 172.687 1877.54 173.319 L1886.46 196.343 Z" fill="#000000" fill-rule="evenodd" fill-opacity="1" /><polyline clip-path="url(#clip590)" style="stroke:#00a8cb; stroke-linecap:round; stroke-linejoin:round; stroke-width:4; stroke-opacity:1; fill:none" points="1649.82,248.629 1794.25,248.629 "/>
<path clip-path="url(#clip590)" d="M1820.41 244.612 Q1821.82 242.251 1825.31 240.168 Q1826.68 239.358 1830.89 239.358 Q1835.61 239.358 1838.55 243.108 Q1841.52 246.858 1841.52 252.969 Q1841.52 259.08 1838.55 262.83 Q1835.61 266.58 1830.89 266.58 Q1828.04 266.58 1825.98 265.469 Q1823.95 264.335 1822.6 262.02 L1822.6 275.77 L1818.32 275.77 L1818.32 253.2 Q1818.32 247.853 1820.41 244.612 M1837.1 252.969 Q1837.1 248.27 1835.15 245.608 Q1833.23 242.923 1829.85 242.923 Q1826.47 242.923 1824.53 245.608 Q1822.6 248.27 1822.6 252.969 Q1822.6 257.668 1824.53 260.353 Q1826.47 263.015 1829.85 263.015 Q1833.23 263.015 1835.15 260.353 Q1837.1 257.668 1837.1 252.969 Z" fill="#000000" fill-rule="evenodd" fill-opacity="1" /><path clip-path="url(#clip590)" d="M1868.28 273.779 L1868.28 277.089 L1843.65 277.089 L1843.65 273.779 L1868.28 273.779 Z" fill="#000000" fill-rule="evenodd" fill-opacity="1" /><path clip-path="url(#clip590)" d="M1884.02 235.955 L1877.67 253.154 L1890.38 253.154 L1884.02 235.955 M1881.38 231.349 L1886.68 231.349 L1899.85 265.909 L1894.99 265.909 L1891.84 257.043 L1876.26 257.043 L1873.11 265.909 L1868.18 265.909 L1881.38 231.349 Z" fill="#000000" fill-rule="evenodd" fill-opacity="1" /><path clip-path="url(#clip590)" d="M1905.8 260.029 L1910.68 260.029 L1910.68 264.01 L1906.89 271.418 L1903.9 271.418 L1905.8 264.01 L1905.8 260.029 Z" fill="#000000" fill-rule="evenodd" fill-opacity="1" /><path clip-path="url(#clip590)" d="M1934.69 229.89 L1938.97 229.89 L1938.97 251.163 L1951.68 239.983 L1957.12 239.983 L1943.37 252.112 L1957.7 265.909 L1952.14 265.909 L1938.97 253.247 L1938.97 265.909 L1934.69 265.909 L1934.69 229.89 Z" fill="#000000" fill-rule="evenodd" fill-opacity="1" /><path clip-path="url(#clip590)" d="M1962.86 244.381 L1992.53 244.381 L1992.53 248.27 L1962.86 248.27 L1962.86 244.381 M1962.86 253.825 L1992.53 253.825 L1992.53 257.761 L1962.86 257.761 L1962.86 253.825 Z" fill="#000000" fill-rule="evenodd" fill-opacity="1" /><path clip-path="url(#clip590)" d="M2012.63 234.427 Q2009.02 234.427 2007.19 237.992 Q2005.38 241.534 2005.38 248.663 Q2005.38 255.77 2007.19 259.335 Q2009.02 262.876 2012.63 262.876 Q2016.26 262.876 2018.07 259.335 Q2019.9 255.77 2019.9 248.663 Q2019.9 241.534 2018.07 237.992 Q2016.26 234.427 2012.63 234.427 M2012.63 230.724 Q2018.44 230.724 2021.49 235.33 Q2024.57 239.913 2024.57 248.663 Q2024.57 257.39 2021.49 261.997 Q2018.44 266.58 2012.63 266.58 Q2006.82 266.58 2003.74 261.997 Q2000.68 257.39 2000.68 248.663 Q2000.68 239.913 2003.74 235.33 Q2006.82 230.724 2012.63 230.724 Z" fill="#000000" fill-rule="evenodd" fill-opacity="1" /><path clip-path="url(#clip590)" d="M2032.79 260.029 L2037.67 260.029 L2037.67 265.909 L2032.79 265.909 L2032.79 260.029 Z" fill="#000000" fill-rule="evenodd" fill-opacity="1" /><path clip-path="url(#clip590)" d="M2057.86 234.427 Q2054.25 234.427 2052.42 237.992 Q2050.61 241.534 2050.61 248.663 Q2050.61 255.77 2052.42 259.335 Q2054.25 262.876 2057.86 262.876 Q2061.49 262.876 2063.3 259.335 Q2065.13 255.77 2065.13 248.663 Q2065.13 241.534 2063.3 237.992 Q2061.49 234.427 2057.86 234.427 M2057.86 230.724 Q2063.67 230.724 2066.72 235.33 Q2069.8 239.913 2069.8 248.663 Q2069.8 257.39 2066.72 261.997 Q2063.67 266.58 2057.86 266.58 Q2052.05 266.58 2048.97 261.997 Q2045.91 257.39 2045.91 248.663 Q2045.91 239.913 2048.97 235.33 Q2052.05 230.724 2057.86 230.724 Z" fill="#000000" fill-rule="evenodd" fill-opacity="1" /><polyline clip-path="url(#clip590)" style="stroke:#00a8cb; stroke-linecap:round; stroke-linejoin:round; stroke-width:4; stroke-opacity:1; fill:none" stroke-dasharray="16, 10" points="1649.82,300.469 1794.25,300.469 "/>
<path clip-path="url(#clip590)" d="M1820.41 296.452 Q1821.82 294.091 1825.31 292.008 Q1826.68 291.198 1830.89 291.198 Q1835.61 291.198 1838.55 294.948 Q1841.52 298.698 1841.52 304.809 Q1841.52 310.92 1838.55 314.67 Q1835.61 318.42 1830.89 318.42 Q1828.04 318.42 1825.98 317.309 Q1823.95 316.175 1822.6 313.86 L1822.6 327.61 L1818.32 327.61 L1818.32 305.04 Q1818.32 299.693 1820.41 296.452 M1837.1 304.809 Q1837.1 300.11 1835.15 297.448 Q1833.23 294.763 1829.85 294.763 Q1826.47 294.763 1824.53 297.448 Q1822.6 300.11 1822.6 304.809 Q1822.6 309.508 1824.53 312.193 Q1826.47 314.855 1829.85 314.855 Q1833.23 314.855 1835.15 312.193 Q1837.1 309.508 1837.1 304.809 Z" fill="#000000" fill-rule="evenodd" fill-opacity="1" /><path clip-path="url(#clip590)" d="M1868.28 325.619 L1868.28 328.929 L1843.65 328.929 L1843.65 325.619 L1868.28 325.619 Z" fill="#000000" fill-rule="evenodd" fill-opacity="1" /><path clip-path="url(#clip590)" d="M1884.02 287.795 L1877.67 304.994 L1890.38 304.994 L1884.02 287.795 M1881.38 283.189 L1886.68 283.189 L1899.85 317.749 L1894.99 317.749 L1891.84 308.883 L1876.26 308.883 L1873.11 317.749 L1868.18 317.749 L1881.38 283.189 Z" fill="#000000" fill-rule="evenodd" fill-opacity="1" /><path clip-path="url(#clip590)" d="M1930.01 281.777 Q1926.91 287.101 1925.4 292.309 Q1923.9 297.517 1923.9 302.864 Q1923.9 308.212 1925.4 313.466 Q1926.93 318.698 1930.01 323.999 L1926.31 323.999 Q1922.84 318.559 1921.1 313.304 Q1919.39 308.05 1919.39 302.864 Q1919.39 297.702 1921.1 292.471 Q1922.81 287.24 1926.31 281.777 L1930.01 281.777 Z" fill="#000000" fill-rule="evenodd" fill-opacity="1" /><path clip-path="url(#clip590)" d="M1958.46 296.8 Q1960.06 293.929 1962.28 292.564 Q1964.5 291.198 1967.51 291.198 Q1971.56 291.198 1973.76 294.045 Q1975.96 296.869 1975.96 302.101 L1975.96 317.749 L1971.68 317.749 L1971.68 302.239 Q1971.68 298.513 1970.36 296.707 Q1969.04 294.902 1966.33 294.902 Q1963.02 294.902 1961.1 297.101 Q1959.18 299.3 1959.18 303.096 L1959.18 317.749 L1954.9 317.749 L1954.9 302.239 Q1954.9 298.489 1953.58 296.707 Q1952.26 294.902 1949.5 294.902 Q1946.24 294.902 1944.32 297.124 Q1942.4 299.323 1942.4 303.096 L1942.4 317.749 L1938.11 317.749 L1938.11 291.823 L1942.4 291.823 L1942.4 295.851 Q1943.85 293.466 1945.89 292.332 Q1947.93 291.198 1950.73 291.198 Q1953.55 291.198 1955.52 292.633 Q1957.51 294.068 1958.46 296.8 Z" fill="#000000" fill-rule="evenodd" fill-opacity="1" /><path clip-path="url(#clip590)" d="M2006.63 303.721 L2006.63 305.804 L1987.05 305.804 Q1987.33 310.202 1989.69 312.517 Q1992.07 314.809 1996.31 314.809 Q1998.76 314.809 2001.05 314.207 Q2003.37 313.605 2005.64 312.401 L2005.64 316.429 Q2003.34 317.401 2000.94 317.911 Q1998.53 318.42 1996.05 318.42 Q1989.85 318.42 1986.21 314.809 Q1982.6 311.198 1982.6 305.04 Q1982.6 298.675 1986.03 294.948 Q1989.48 291.198 1995.31 291.198 Q2000.54 291.198 2003.58 294.577 Q2006.63 297.934 2006.63 303.721 M2002.37 302.471 Q2002.33 298.976 2000.4 296.892 Q1998.51 294.809 1995.36 294.809 Q1991.79 294.809 1989.64 296.823 Q1987.51 298.837 1987.19 302.494 L2002.37 302.471 Z" fill="#000000" fill-rule="evenodd" fill-opacity="1" /><path clip-path="url(#clip590)" d="M2025.4 304.716 Q2020.24 304.716 2018.25 305.897 Q2016.26 307.077 2016.26 309.925 Q2016.26 312.193 2017.74 313.536 Q2019.25 314.855 2021.82 314.855 Q2025.36 314.855 2027.49 312.355 Q2029.64 309.832 2029.64 305.665 L2029.64 304.716 L2025.4 304.716 M2033.9 302.957 L2033.9 317.749 L2029.64 317.749 L2029.64 313.813 Q2028.18 316.175 2026.01 317.309 Q2023.83 318.42 2020.68 318.42 Q2016.7 318.42 2014.34 316.198 Q2012 313.952 2012 310.202 Q2012 305.827 2014.92 303.605 Q2017.86 301.383 2023.67 301.383 L2029.64 301.383 L2029.64 300.966 Q2029.64 298.027 2027.7 296.429 Q2025.77 294.809 2022.28 294.809 Q2020.06 294.809 2017.95 295.341 Q2015.84 295.874 2013.9 296.939 L2013.9 293.003 Q2016.24 292.101 2018.44 291.661 Q2020.64 291.198 2022.72 291.198 Q2028.34 291.198 2031.12 294.114 Q2033.9 297.031 2033.9 302.957 Z" fill="#000000" fill-rule="evenodd" fill-opacity="1" /><path clip-path="url(#clip590)" d="M2064.22 302.101 L2064.22 317.749 L2059.96 317.749 L2059.96 302.239 Q2059.96 298.559 2058.53 296.73 Q2057.09 294.902 2054.22 294.902 Q2050.77 294.902 2048.78 297.101 Q2046.79 299.3 2046.79 303.096 L2046.79 317.749 L2042.51 317.749 L2042.51 291.823 L2046.79 291.823 L2046.79 295.851 Q2048.32 293.513 2050.38 292.355 Q2052.46 291.198 2055.17 291.198 Q2059.64 291.198 2061.93 293.976 Q2064.22 296.73 2064.22 302.101 Z" fill="#000000" fill-rule="evenodd" fill-opacity="1" /><path clip-path="url(#clip590)" d="M2072.05 281.777 L2075.75 281.777 Q2079.22 287.24 2080.94 292.471 Q2082.67 297.702 2082.67 302.864 Q2082.67 308.05 2080.94 313.304 Q2079.22 318.559 2075.75 323.999 L2072.05 323.999 Q2075.13 318.698 2076.63 313.466 Q2078.16 308.212 2078.16 302.864 Q2078.16 297.517 2076.63 292.309 Q2075.13 287.101 2072.05 281.777 Z" fill="#000000" fill-rule="evenodd" fill-opacity="1" /><path clip-path="url(#clip590)" d="M2092.3 311.869 L2097.19 311.869 L2097.19 315.85 L2093.39 323.258 L2090.4 323.258 L2092.3 315.85 L2092.3 311.869 Z" fill="#000000" fill-rule="evenodd" fill-opacity="1" /><path clip-path="url(#clip590)" d="M2121.19 281.73 L2125.47 281.73 L2125.47 303.003 L2138.18 291.823 L2143.62 291.823 L2129.87 303.952 L2144.2 317.749 L2138.64 317.749 L2125.47 305.087 L2125.47 317.749 L2121.19 317.749 L2121.19 281.73 Z" fill="#000000" fill-rule="evenodd" fill-opacity="1" /><path clip-path="url(#clip590)" d="M2149.36 296.221 L2179.04 296.221 L2179.04 300.11 L2149.36 300.11 L2149.36 296.221 M2149.36 305.665 L2179.04 305.665 L2179.04 309.601 L2149.36 309.601 L2149.36 305.665 Z" fill="#000000" fill-rule="evenodd" fill-opacity="1" /><path clip-path="url(#clip590)" d="M2199.13 286.267 Q2195.52 286.267 2193.69 289.832 Q2191.88 293.374 2191.88 300.503 Q2191.88 307.61 2193.69 311.175 Q2195.52 314.716 2199.13 314.716 Q2202.76 314.716 2204.57 311.175 Q2206.4 307.61 2206.4 300.503 Q2206.4 293.374 2204.57 289.832 Q2202.76 286.267 2199.13 286.267 M2199.13 282.564 Q2204.94 282.564 2208 287.17 Q2211.07 291.753 2211.07 300.503 Q2211.07 309.23 2208 313.837 Q2204.94 318.42 2199.13 318.42 Q2193.32 318.42 2190.24 313.837 Q2187.19 309.23 2187.19 300.503 Q2187.19 291.753 2190.24 287.17 Q2193.32 282.564 2199.13 282.564 Z" fill="#000000" fill-rule="evenodd" fill-opacity="1" /><path clip-path="url(#clip590)" d="M2219.29 311.869 L2224.18 311.869 L2224.18 317.749 L2219.29 317.749 L2219.29 311.869 Z" fill="#000000" fill-rule="evenodd" fill-opacity="1" /><path clip-path="url(#clip590)" d="M2244.36 286.267 Q2240.75 286.267 2238.92 289.832 Q2237.12 293.374 2237.12 300.503 Q2237.12 307.61 2238.92 311.175 Q2240.75 314.716 2244.36 314.716 Q2248 314.716 2249.8 311.175 Q2251.63 307.61 2251.63 300.503 Q2251.63 293.374 2249.8 289.832 Q2248 286.267 2244.36 286.267 M2244.36 282.564 Q2250.17 282.564 2253.23 287.17 Q2256.31 291.753 2256.31 300.503 Q2256.31 309.23 2253.23 313.837 Q2250.17 318.42 2244.36 318.42 Q2238.55 318.42 2235.47 313.837 Q2232.42 309.23 2232.42 300.503 Q2232.42 291.753 2235.47 287.17 Q2238.55 282.564 2244.36 282.564 Z" fill="#000000" fill-rule="evenodd" fill-opacity="1" /><polyline clip-path="url(#clip590)" style="stroke:#9b7fe8; stroke-linecap:round; stroke-linejoin:round; stroke-width:4; stroke-opacity:1; fill:none" points="1649.82,352.309 1794.25,352.309 "/>
<path clip-path="url(#clip590)" d="M1820.41 348.292 Q1821.82 345.931 1825.31 343.848 Q1826.68 343.038 1830.89 343.038 Q1835.61 343.038 1838.55 346.788 Q1841.52 350.538 1841.52 356.649 Q1841.52 362.76 1838.55 366.51 Q1835.61 370.26 1830.89 370.26 Q1828.04 370.26 1825.98 369.149 Q1823.95 368.015 1822.6 365.7 L1822.6 379.45 L1818.32 379.45 L1818.32 356.88 Q1818.32 351.533 1820.41 348.292 M1837.1 356.649 Q1837.1 351.95 1835.15 349.288 Q1833.23 346.603 1829.85 346.603 Q1826.47 346.603 1824.53 349.288 Q1822.6 351.95 1822.6 356.649 Q1822.6 361.348 1824.53 364.033 Q1826.47 366.695 1829.85 366.695 Q1833.23 366.695 1835.15 364.033 Q1837.1 361.348 1837.1 356.649 Z" fill="#000000" fill-rule="evenodd" fill-opacity="1" /><path clip-path="url(#clip590)" d="M1868.28 377.459 L1868.28 380.769 L1843.65 380.769 L1843.65 377.459 L1868.28 377.459 Z" fill="#000000" fill-rule="evenodd" fill-opacity="1" /><path clip-path="url(#clip590)" d="M1884.02 339.635 L1877.67 356.834 L1890.38 356.834 L1884.02 339.635 M1881.38 335.029 L1886.68 335.029 L1899.85 369.589 L1894.99 369.589 L1891.84 360.723 L1876.26 360.723 L1873.11 369.589 L1868.18 369.589 L1881.38 335.029 Z" fill="#000000" fill-rule="evenodd" fill-opacity="1" /><path clip-path="url(#clip590)" d="M1905.8 363.709 L1910.68 363.709 L1910.68 367.69 L1906.89 375.098 L1903.9 375.098 L1905.8 367.69 L1905.8 363.709 Z" fill="#000000" fill-rule="evenodd" fill-opacity="1" /><path clip-path="url(#clip590)" d="M1934.69 333.57 L1938.97 333.57 L1938.97 354.843 L1951.68 343.663 L1957.12 343.663 L1943.37 355.792 L1957.7 369.589 L1952.14 369.589 L1938.97 356.927 L1938.97 369.589 L1934.69 369.589 L1934.69 333.57 Z" fill="#000000" fill-rule="evenodd" fill-opacity="1" /><path clip-path="url(#clip590)" d="M1962.86 348.061 L1992.53 348.061 L1992.53 351.95 L1962.86 351.95 L1962.86 348.061 M1962.86 357.505 L1992.53 357.505 L1992.53 361.441 L1962.86 361.441 L1962.86 357.505 Z" fill="#000000" fill-rule="evenodd" fill-opacity="1" /><path clip-path="url(#clip590)" d="M2003.44 365.653 L2011.08 365.653 L2011.08 339.288 L2002.77 340.955 L2002.77 336.695 L2011.03 335.029 L2015.71 335.029 L2015.71 365.653 L2023.34 365.653 L2023.34 369.589 L2003.44 369.589 L2003.44 365.653 Z" fill="#000000" fill-rule="evenodd" fill-opacity="1" /><path clip-path="url(#clip590)" d="M2032.79 363.709 L2037.67 363.709 L2037.67 369.589 L2032.79 369.589 L2032.79 363.709 Z" fill="#000000" fill-rule="evenodd" fill-opacity="1" /><path clip-path="url(#clip590)" d="M2058.44 350.445 Q2055.29 350.445 2053.44 352.598 Q2051.61 354.751 2051.61 358.501 Q2051.61 362.228 2053.44 364.403 Q2055.29 366.556 2058.44 366.556 Q2061.58 366.556 2063.41 364.403 Q2065.27 362.228 2065.27 358.501 Q2065.27 354.751 2063.41 352.598 Q2061.58 350.445 2058.44 350.445 M2067.72 335.793 L2067.72 340.052 Q2065.96 339.218 2064.15 338.779 Q2062.37 338.339 2060.61 338.339 Q2055.98 338.339 2053.53 341.464 Q2051.1 344.589 2050.75 350.908 Q2052.12 348.894 2054.18 347.829 Q2056.24 346.742 2058.71 346.742 Q2063.92 346.742 2066.93 349.913 Q2069.96 353.061 2069.96 358.501 Q2069.96 363.825 2066.82 367.042 Q2063.67 370.26 2058.44 370.26 Q2052.44 370.26 2049.27 365.677 Q2046.1 361.07 2046.1 352.343 Q2046.1 344.149 2049.99 339.288 Q2053.88 334.404 2060.43 334.404 Q2062.19 334.404 2063.97 334.751 Q2065.77 335.098 2067.72 335.793 Z" fill="#000000" fill-rule="evenodd" fill-opacity="1" /><polyline clip-path="url(#clip590)" style="stroke:#9b7fe8; stroke-linecap:round; stroke-linejoin:round; stroke-width:4; stroke-opacity:1; fill:none" stroke-dasharray="16, 10" points="1649.82,404.149 1794.25,404.149 "/>
<path clip-path="url(#clip590)" d="M1820.41 400.132 Q1821.82 397.771 1825.31 395.688 Q1826.68 394.878 1830.89 394.878 Q1835.61 394.878 1838.55 398.628 Q1841.52 402.378 1841.52 408.489 Q1841.52 414.6 1838.55 418.35 Q1835.61 422.1 1830.89 422.1 Q1828.04 422.1 1825.98 420.989 Q1823.95 419.855 1822.6 417.54 L1822.6 431.29 L1818.32 431.29 L1818.32 408.72 Q1818.32 403.373 1820.41 400.132 M1837.1 408.489 Q1837.1 403.79 1835.15 401.128 Q1833.23 398.443 1829.85 398.443 Q1826.47 398.443 1824.53 401.128 Q1822.6 403.79 1822.6 408.489 Q1822.6 413.188 1824.53 415.873 Q1826.47 418.535 1829.85 418.535 Q1833.23 418.535 1835.15 415.873 Q1837.1 413.188 1837.1 408.489 Z" fill="#000000" fill-rule="evenodd" fill-opacity="1" /><path clip-path="url(#clip590)" d="M1868.28 429.299 L1868.28 432.609 L1843.65 432.609 L1843.65 429.299 L1868.28 429.299 Z" fill="#000000" fill-rule="evenodd" fill-opacity="1" /><path clip-path="url(#clip590)" d="M1884.02 391.475 L1877.67 408.674 L1890.38 408.674 L1884.02 391.475 M1881.38 386.869 L1886.68 386.869 L1899.85 421.429 L1894.99 421.429 L1891.84 412.563 L1876.26 412.563 L1873.11 421.429 L1868.18 421.429 L1881.38 386.869 Z" fill="#000000" fill-rule="evenodd" fill-opacity="1" /><path clip-path="url(#clip590)" d="M1930.01 385.457 Q1926.91 390.781 1925.4 395.989 Q1923.9 401.197 1923.9 406.544 Q1923.9 411.892 1925.4 417.146 Q1926.93 422.378 1930.01 427.679 L1926.31 427.679 Q1922.84 422.239 1921.1 416.984 Q1919.39 411.73 1919.39 406.544 Q1919.39 401.382 1921.1 396.151 Q1922.81 390.92 1926.31 385.457 L1930.01 385.457 Z" fill="#000000" fill-rule="evenodd" fill-opacity="1" /><path clip-path="url(#clip590)" d="M1958.46 400.48 Q1960.06 397.609 1962.28 396.244 Q1964.5 394.878 1967.51 394.878 Q1971.56 394.878 1973.76 397.725 Q1975.96 400.549 1975.96 405.781 L1975.96 421.429 L1971.68 421.429 L1971.68 405.919 Q1971.68 402.193 1970.36 400.387 Q1969.04 398.582 1966.33 398.582 Q1963.02 398.582 1961.1 400.781 Q1959.18 402.98 1959.18 406.776 L1959.18 421.429 L1954.9 421.429 L1954.9 405.919 Q1954.9 402.169 1953.58 400.387 Q1952.26 398.582 1949.5 398.582 Q1946.24 398.582 1944.32 400.804 Q1942.4 403.003 1942.4 406.776 L1942.4 421.429 L1938.11 421.429 L1938.11 395.503 L1942.4 395.503 L1942.4 399.531 Q1943.85 397.146 1945.89 396.012 Q1947.93 394.878 1950.73 394.878 Q1953.55 394.878 1955.52 396.313 Q1957.51 397.748 1958.46 400.48 Z" fill="#000000" fill-rule="evenodd" fill-opacity="1" /><path clip-path="url(#clip590)" d="M2006.63 407.401 L2006.63 409.484 L1987.05 409.484 Q1987.33 413.882 1989.69 416.197 Q1992.07 418.489 1996.31 418.489 Q1998.76 418.489 2001.05 417.887 Q2003.37 417.285 2005.64 416.081 L2005.64 420.109 Q2003.34 421.081 2000.94 421.591 Q1998.53 422.1 1996.05 422.1 Q1989.85 422.1 1986.21 418.489 Q1982.6 414.878 1982.6 408.72 Q1982.6 402.355 1986.03 398.628 Q1989.48 394.878 1995.31 394.878 Q2000.54 394.878 2003.58 398.257 Q2006.63 401.614 2006.63 407.401 M2002.37 406.151 Q2002.33 402.656 2000.4 400.572 Q1998.51 398.489 1995.36 398.489 Q1991.79 398.489 1989.64 400.503 Q1987.51 402.517 1987.19 406.174 L2002.37 406.151 Z" fill="#000000" fill-rule="evenodd" fill-opacity="1" /><path clip-path="url(#clip590)" d="M2025.4 408.396 Q2020.24 408.396 2018.25 409.577 Q2016.26 410.757 2016.26 413.605 Q2016.26 415.873 2017.74 417.216 Q2019.25 418.535 2021.82 418.535 Q2025.36 418.535 2027.49 416.035 Q2029.64 413.512 2029.64 409.345 L2029.64 408.396 L2025.4 408.396 M2033.9 406.637 L2033.9 421.429 L2029.64 421.429 L2029.64 417.493 Q2028.18 419.855 2026.01 420.989 Q2023.83 422.1 2020.68 422.1 Q2016.7 422.1 2014.34 419.878 Q2012 417.632 2012 413.882 Q2012 409.507 2014.92 407.285 Q2017.86 405.063 2023.67 405.063 L2029.64 405.063 L2029.64 404.646 Q2029.64 401.707 2027.7 400.109 Q2025.77 398.489 2022.28 398.489 Q2020.06 398.489 2017.95 399.021 Q2015.84 399.554 2013.9 400.619 L2013.9 396.683 Q2016.24 395.781 2018.44 395.341 Q2020.64 394.878 2022.72 394.878 Q2028.34 394.878 2031.12 397.794 Q2033.9 400.711 2033.9 406.637 Z" fill="#000000" fill-rule="evenodd" fill-opacity="1" /><path clip-path="url(#clip590)" d="M2064.22 405.781 L2064.22 421.429 L2059.96 421.429 L2059.96 405.919 Q2059.96 402.239 2058.53 400.41 Q2057.09 398.582 2054.22 398.582 Q2050.77 398.582 2048.78 400.781 Q2046.79 402.98 2046.79 406.776 L2046.79 421.429 L2042.51 421.429 L2042.51 395.503 L2046.79 395.503 L2046.79 399.531 Q2048.32 397.193 2050.38 396.035 Q2052.46 394.878 2055.17 394.878 Q2059.64 394.878 2061.93 397.656 Q2064.22 400.41 2064.22 405.781 Z" fill="#000000" fill-rule="evenodd" fill-opacity="1" /><path clip-path="url(#clip590)" d="M2072.05 385.457 L2075.75 385.457 Q2079.22 390.92 2080.94 396.151 Q2082.67 401.382 2082.67 406.544 Q2082.67 411.73 2080.94 416.984 Q2079.22 422.239 2075.75 427.679 L2072.05 427.679 Q2075.13 422.378 2076.63 417.146 Q2078.16 411.892 2078.16 406.544 Q2078.16 401.197 2076.63 395.989 Q2075.13 390.781 2072.05 385.457 Z" fill="#000000" fill-rule="evenodd" fill-opacity="1" /><path clip-path="url(#clip590)" d="M2092.3 415.549 L2097.19 415.549 L2097.19 419.53 L2093.39 426.938 L2090.4 426.938 L2092.3 419.53 L2092.3 415.549 Z" fill="#000000" fill-rule="evenodd" fill-opacity="1" /><path clip-path="url(#clip590)" d="M2121.19 385.41 L2125.47 385.41 L2125.47 406.683 L2138.18 395.503 L2143.62 395.503 L2129.87 407.632 L2144.2 421.429 L2138.64 421.429 L2125.47 408.767 L2125.47 421.429 L2121.19 421.429 L2121.19 385.41 Z" fill="#000000" fill-rule="evenodd" fill-opacity="1" /><path clip-path="url(#clip590)" d="M2149.36 399.901 L2179.04 399.901 L2179.04 403.79 L2149.36 403.79 L2149.36 399.901 M2149.36 409.345 L2179.04 409.345 L2179.04 413.281 L2149.36 413.281 L2149.36 409.345 Z" fill="#000000" fill-rule="evenodd" fill-opacity="1" /><path clip-path="url(#clip590)" d="M2189.94 417.493 L2197.58 417.493 L2197.58 391.128 L2189.27 392.795 L2189.27 388.535 L2197.53 386.869 L2202.21 386.869 L2202.21 417.493 L2209.85 417.493 L2209.85 421.429 L2189.94 421.429 L2189.94 417.493 Z" fill="#000000" fill-rule="evenodd" fill-opacity="1" /><path clip-path="url(#clip590)" d="M2219.29 415.549 L2224.18 415.549 L2224.18 421.429 L2219.29 421.429 L2219.29 415.549 Z" fill="#000000" fill-rule="evenodd" fill-opacity="1" /><path clip-path="url(#clip590)" d="M2244.94 402.285 Q2241.79 402.285 2239.94 404.438 Q2238.11 406.591 2238.11 410.341 Q2238.11 414.068 2239.94 416.243 Q2241.79 418.396 2244.94 418.396 Q2248.09 418.396 2249.92 416.243 Q2251.77 414.068 2251.77 410.341 Q2251.77 406.591 2249.92 404.438 Q2248.09 402.285 2244.94 402.285 M2254.22 387.633 L2254.22 391.892 Q2252.46 391.058 2250.66 390.619 Q2248.88 390.179 2247.12 390.179 Q2242.49 390.179 2240.03 393.304 Q2237.6 396.429 2237.25 402.748 Q2238.62 400.734 2240.68 399.669 Q2242.74 398.582 2245.22 398.582 Q2250.43 398.582 2253.44 401.753 Q2256.47 404.901 2256.47 410.341 Q2256.47 415.665 2253.32 418.882 Q2250.17 422.1 2244.94 422.1 Q2238.94 422.1 2235.77 417.517 Q2232.6 412.91 2232.6 404.183 Q2232.6 395.989 2236.49 391.128 Q2240.38 386.244 2246.93 386.244 Q2248.69 386.244 2250.47 386.591 Q2252.28 386.938 2254.22 387.633 Z" fill="#000000" fill-rule="evenodd" fill-opacity="1" /><polyline clip-path="url(#clip590)" style="stroke:#608cf6; stroke-linecap:round; stroke-linejoin:round; stroke-width:4; stroke-opacity:1; fill:none" points="1649.82,455.989 1794.25,455.989 "/>
<path clip-path="url(#clip590)" d="M1820.41 451.972 Q1821.82 449.611 1825.31 447.528 Q1826.68 446.718 1830.89 446.718 Q1835.61 446.718 1838.55 450.468 Q1841.52 454.218 1841.52 460.329 Q1841.52 466.44 1838.55 470.19 Q1835.61 473.94 1830.89 473.94 Q1828.04 473.94 1825.98 472.829 Q1823.95 471.695 1822.6 469.38 L1822.6 483.13 L1818.32 483.13 L1818.32 460.56 Q1818.32 455.213 1820.41 451.972 M1837.1 460.329 Q1837.1 455.63 1835.15 452.968 Q1833.23 450.283 1829.85 450.283 Q1826.47 450.283 1824.53 452.968 Q1822.6 455.63 1822.6 460.329 Q1822.6 465.028 1824.53 467.713 Q1826.47 470.375 1829.85 470.375 Q1833.23 470.375 1835.15 467.713 Q1837.1 465.028 1837.1 460.329 Z" fill="#000000" fill-rule="evenodd" fill-opacity="1" /><path clip-path="url(#clip590)" d="M1868.28 481.139 L1868.28 484.449 L1843.65 484.449 L1843.65 481.139 L1868.28 481.139 Z" fill="#000000" fill-rule="evenodd" fill-opacity="1" /><path clip-path="url(#clip590)" d="M1884.02 443.315 L1877.67 460.514 L1890.38 460.514 L1884.02 443.315 M1881.38 438.709 L1886.68 438.709 L1899.85 473.269 L1894.99 473.269 L1891.84 464.403 L1876.26 464.403 L1873.11 473.269 L1868.18 473.269 L1881.38 438.709 Z" fill="#000000" fill-rule="evenodd" fill-opacity="1" /><path clip-path="url(#clip590)" d="M1905.8 467.389 L1910.68 467.389 L1910.68 471.37 L1906.89 478.778 L1903.9 478.778 L1905.8 471.37 L1905.8 467.389 Z" fill="#000000" fill-rule="evenodd" fill-opacity="1" /><path clip-path="url(#clip590)" d="M1934.69 437.25 L1938.97 437.25 L1938.97 458.523 L1951.68 447.343 L1957.12 447.343 L1943.37 459.472 L1957.7 473.269 L1952.14 473.269 L1938.97 460.607 L1938.97 473.269 L1934.69 473.269 L1934.69 437.25 Z" fill="#000000" fill-rule="evenodd" fill-opacity="1" /><path clip-path="url(#clip590)" d="M1962.86 451.741 L1992.53 451.741 L1992.53 455.63 L1962.86 455.63 L1962.86 451.741 M1962.86 461.185 L1992.53 461.185 L1992.53 465.121 L1962.86 465.121 L1962.86 461.185 Z" fill="#000000" fill-rule="evenodd" fill-opacity="1" /><path clip-path="url(#clip590)" d="M2016.79 454.634 Q2020.15 455.352 2022.02 457.621 Q2023.92 459.889 2023.92 463.222 Q2023.92 468.338 2020.4 471.139 Q2016.89 473.94 2010.4 473.94 Q2008.23 473.94 2005.91 473.5 Q2003.62 473.083 2001.17 472.227 L2001.17 467.713 Q2003.11 468.847 2005.43 469.426 Q2007.74 470.005 2010.27 470.005 Q2014.66 470.005 2016.96 468.269 Q2019.27 466.533 2019.27 463.222 Q2019.27 460.167 2017.12 458.454 Q2014.99 456.718 2011.17 456.718 L2007.14 456.718 L2007.14 452.875 L2011.35 452.875 Q2014.8 452.875 2016.63 451.509 Q2018.46 450.121 2018.46 447.528 Q2018.46 444.866 2016.56 443.454 Q2014.69 442.019 2011.17 442.019 Q2009.25 442.019 2007.05 442.435 Q2004.85 442.852 2002.21 443.732 L2002.21 439.565 Q2004.87 438.824 2007.19 438.454 Q2009.52 438.084 2011.58 438.084 Q2016.91 438.084 2020.01 440.514 Q2023.11 442.922 2023.11 447.042 Q2023.11 449.912 2021.47 451.903 Q2019.83 453.871 2016.79 454.634 Z" fill="#000000" fill-rule="evenodd" fill-opacity="1" /><path clip-path="url(#clip590)" d="M2032.79 467.389 L2037.67 467.389 L2037.67 473.269 L2032.79 473.269 L2032.79 467.389 Z" fill="#000000" fill-rule="evenodd" fill-opacity="1" /><path clip-path="url(#clip590)" d="M2048.67 469.333 L2056.31 469.333 L2056.31 442.968 L2048 444.635 L2048 440.375 L2056.26 438.709 L2060.94 438.709 L2060.94 469.333 L2068.58 469.333 L2068.58 473.269 L2048.67 473.269 L2048.67 469.333 Z" fill="#000000" fill-rule="evenodd" fill-opacity="1" /><polyline clip-path="url(#clip590)" style="stroke:#608cf6; stroke-linecap:round; stroke-linejoin:round; stroke-width:4; stroke-opacity:1; fill:none" stroke-dasharray="16, 10" points="1649.82,507.829 1794.25,507.829 "/>
<path clip-path="url(#clip590)" d="M1820.41 503.812 Q1821.82 501.451 1825.31 499.368 Q1826.68 498.558 1830.89 498.558 Q1835.61 498.558 1838.55 502.308 Q1841.52 506.058 1841.52 512.169 Q1841.52 518.28 1838.55 522.03 Q1835.61 525.78 1830.89 525.78 Q1828.04 525.78 1825.98 524.669 Q1823.95 523.535 1822.6 521.22 L1822.6 534.97 L1818.32 534.97 L1818.32 512.4 Q1818.32 507.053 1820.41 503.812 M1837.1 512.169 Q1837.1 507.47 1835.15 504.808 Q1833.23 502.123 1829.85 502.123 Q1826.47 502.123 1824.53 504.808 Q1822.6 507.47 1822.6 512.169 Q1822.6 516.868 1824.53 519.553 Q1826.47 522.215 1829.85 522.215 Q1833.23 522.215 1835.15 519.553 Q1837.1 516.868 1837.1 512.169 Z" fill="#000000" fill-rule="evenodd" fill-opacity="1" /><path clip-path="url(#clip590)" d="M1868.28 532.979 L1868.28 536.289 L1843.65 536.289 L1843.65 532.979 L1868.28 532.979 Z" fill="#000000" fill-rule="evenodd" fill-opacity="1" /><path clip-path="url(#clip590)" d="M1884.02 495.155 L1877.67 512.354 L1890.38 512.354 L1884.02 495.155 M1881.38 490.549 L1886.68 490.549 L1899.85 525.109 L1894.99 525.109 L1891.84 516.243 L1876.26 516.243 L1873.11 525.109 L1868.18 525.109 L1881.38 490.549 Z" fill="#000000" fill-rule="evenodd" fill-opacity="1" /><path clip-path="url(#clip590)" d="M1930.01 489.137 Q1926.91 494.461 1925.4 499.669 Q1923.9 504.877 1923.9 510.224 Q1923.9 515.572 1925.4 520.826 Q1926.93 526.058 1930.01 531.359 L1926.31 531.359 Q1922.84 525.919 1921.1 520.664 Q1919.39 515.41 1919.39 510.224 Q1919.39 505.062 1921.1 499.831 Q1922.81 494.6 1926.31 489.137 L1930.01 489.137 Z" fill="#000000" fill-rule="evenodd" fill-opacity="1" /><path clip-path="url(#clip590)" d="M1958.46 504.16 Q1960.06 501.289 1962.28 499.924 Q1964.5 498.558 1967.51 498.558 Q1971.56 498.558 1973.76 501.405 Q1975.96 504.229 1975.96 509.461 L1975.96 525.109 L1971.68 525.109 L1971.68 509.599 Q1971.68 505.873 1970.36 504.067 Q1969.04 502.262 1966.33 502.262 Q1963.02 502.262 1961.1 504.461 Q1959.18 506.66 1959.18 510.456 L1959.18 525.109 L1954.9 525.109 L1954.9 509.599 Q1954.9 505.849 1953.58 504.067 Q1952.26 502.262 1949.5 502.262 Q1946.24 502.262 1944.32 504.484 Q1942.4 506.683 1942.4 510.456 L1942.4 525.109 L1938.11 525.109 L1938.11 499.183 L1942.4 499.183 L1942.4 503.211 Q1943.85 500.826 1945.89 499.692 Q1947.93 498.558 1950.73 498.558 Q1953.55 498.558 1955.52 499.993 Q1957.51 501.428 1958.46 504.16 Z" fill="#000000" fill-rule="evenodd" fill-opacity="1" /><path clip-path="url(#clip590)" d="M2006.63 511.081 L2006.63 513.164 L1987.05 513.164 Q1987.33 517.562 1989.69 519.877 Q1992.07 522.169 1996.31 522.169 Q1998.76 522.169 2001.05 521.567 Q2003.37 520.965 2005.64 519.761 L2005.64 523.789 Q2003.34 524.761 2000.94 525.271 Q1998.53 525.78 1996.05 525.78 Q1989.85 525.78 1986.21 522.169 Q1982.6 518.558 1982.6 512.4 Q1982.6 506.035 1986.03 502.308 Q1989.48 498.558 1995.31 498.558 Q2000.54 498.558 2003.58 501.937 Q2006.63 505.294 2006.63 511.081 M2002.37 509.831 Q2002.33 506.336 2000.4 504.252 Q1998.51 502.169 1995.36 502.169 Q1991.79 502.169 1989.64 504.183 Q1987.51 506.197 1987.19 509.854 L2002.37 509.831 Z" fill="#000000" fill-rule="evenodd" fill-opacity="1" /><path clip-path="url(#clip590)" d="M2025.4 512.076 Q2020.24 512.076 2018.25 513.257 Q2016.26 514.437 2016.26 517.285 Q2016.26 519.553 2017.74 520.896 Q2019.25 522.215 2021.82 522.215 Q2025.36 522.215 2027.49 519.715 Q2029.64 517.192 2029.64 513.025 L2029.64 512.076 L2025.4 512.076 M2033.9 510.317 L2033.9 525.109 L2029.64 525.109 L2029.64 521.173 Q2028.18 523.535 2026.01 524.669 Q2023.83 525.78 2020.68 525.78 Q2016.7 525.78 2014.34 523.558 Q2012 521.312 2012 517.562 Q2012 513.187 2014.92 510.965 Q2017.86 508.743 2023.67 508.743 L2029.64 508.743 L2029.64 508.326 Q2029.64 505.387 2027.7 503.789 Q2025.77 502.169 2022.28 502.169 Q2020.06 502.169 2017.95 502.701 Q2015.84 503.234 2013.9 504.299 L2013.9 500.363 Q2016.24 499.461 2018.44 499.021 Q2020.64 498.558 2022.72 498.558 Q2028.34 498.558 2031.12 501.474 Q2033.9 504.391 2033.9 510.317 Z" fill="#000000" fill-rule="evenodd" fill-opacity="1" /><path clip-path="url(#clip590)" d="M2064.22 509.461 L2064.22 525.109 L2059.96 525.109 L2059.96 509.599 Q2059.96 505.919 2058.53 504.09 Q2057.09 502.262 2054.22 502.262 Q2050.77 502.262 2048.78 504.461 Q2046.79 506.66 2046.79 510.456 L2046.79 525.109 L2042.51 525.109 L2042.51 499.183 L2046.79 499.183 L2046.79 503.211 Q2048.32 500.873 2050.38 499.715 Q2052.46 498.558 2055.17 498.558 Q2059.64 498.558 2061.93 501.336 Q2064.22 504.09 2064.22 509.461 Z" fill="#000000" fill-rule="evenodd" fill-opacity="1" /><path clip-path="url(#clip590)" d="M2072.05 489.137 L2075.75 489.137 Q2079.22 494.6 2080.94 499.831 Q2082.67 505.062 2082.67 510.224 Q2082.67 515.41 2080.94 520.664 Q2079.22 525.919 2075.75 531.359 L2072.05 531.359 Q2075.13 526.058 2076.63 520.826 Q2078.16 515.572 2078.16 510.224 Q2078.16 504.877 2076.63 499.669 Q2075.13 494.461 2072.05 489.137 Z" fill="#000000" fill-rule="evenodd" fill-opacity="1" /><path clip-path="url(#clip590)" d="M2092.3 519.229 L2097.19 519.229 L2097.19 523.21 L2093.39 530.618 L2090.4 530.618 L2092.3 523.21 L2092.3 519.229 Z" fill="#000000" fill-rule="evenodd" fill-opacity="1" /><path clip-path="url(#clip590)" d="M2121.19 489.09 L2125.47 489.09 L2125.47 510.363 L2138.18 499.183 L2143.62 499.183 L2129.87 511.312 L2144.2 525.109 L2138.64 525.109 L2125.47 512.447 L2125.47 525.109 L2121.19 525.109 L2121.19 489.09 Z" fill="#000000" fill-rule="evenodd" fill-opacity="1" /><path clip-path="url(#clip590)" d="M2149.36 503.581 L2179.04 503.581 L2179.04 507.47 L2149.36 507.47 L2149.36 503.581 M2149.36 513.025 L2179.04 513.025 L2179.04 516.961 L2149.36 516.961 L2149.36 513.025 Z" fill="#000000" fill-rule="evenodd" fill-opacity="1" /><path clip-path="url(#clip590)" d="M2203.3 506.474 Q2206.65 507.192 2208.53 509.461 Q2210.43 511.729 2210.43 515.062 Q2210.43 520.178 2206.91 522.979 Q2203.39 525.78 2196.91 525.78 Q2194.73 525.78 2192.42 525.34 Q2190.13 524.923 2187.67 524.067 L2187.67 519.553 Q2189.62 520.687 2191.93 521.266 Q2194.25 521.845 2196.77 521.845 Q2201.17 521.845 2203.46 520.109 Q2205.77 518.373 2205.77 515.062 Q2205.77 512.007 2203.62 510.294 Q2201.49 508.558 2197.67 508.558 L2193.64 508.558 L2193.64 504.715 L2197.86 504.715 Q2201.31 504.715 2203.13 503.349 Q2204.96 501.961 2204.96 499.368 Q2204.96 496.706 2203.07 495.294 Q2201.19 493.859 2197.67 493.859 Q2195.75 493.859 2193.55 494.275 Q2191.35 494.692 2188.71 495.572 L2188.71 491.405 Q2191.38 490.664 2193.69 490.294 Q2196.03 489.924 2198.09 489.924 Q2203.41 489.924 2206.51 492.354 Q2209.62 494.762 2209.62 498.882 Q2209.62 501.752 2207.97 503.743 Q2206.33 505.711 2203.3 506.474 Z" fill="#000000" fill-rule="evenodd" fill-opacity="1" /><path clip-path="url(#clip590)" d="M2219.29 519.229 L2224.18 519.229 L2224.18 525.109 L2219.29 525.109 L2219.29 519.229 Z" fill="#000000" fill-rule="evenodd" fill-opacity="1" /><path clip-path="url(#clip590)" d="M2235.17 521.173 L2242.81 521.173 L2242.81 494.808 L2234.5 496.475 L2234.5 492.215 L2242.76 490.549 L2247.44 490.549 L2247.44 521.173 L2255.08 521.173 L2255.08 525.109 L2235.17 525.109 L2235.17 521.173 Z" fill="#000000" fill-rule="evenodd" fill-opacity="1" /></svg>
