<?xml version="1.0" encoding="utf-8"?>
<svg xmlns="http://www.w3.org/2000/svg" xmlns:xlink="http://www.w3.org/1999/xlink" width="600" height="400" viewBox="0 0 2400 1600">
<defs>
  <clipPath id="clip450">
    <rect x="0" y="0" width="2400" height="1600"/>
  </clipPath>
</defs>
<path clip-path="url(#clip450)" d="M0 1600 L2400 1600 L2400 0 L0 0  Z" fill="#ffffff" fill-rule="evenodd" fill-opacity="1"/>
<defs>
  <clipPath id="clip451">
    <rect x="480" y="0" width="1681" height="1600"/>
  </clipPath>
</defs>
<defs>
  <clipPath id="clip452">
    <rect x="186" y="133" width="2167" height="1354"/>
  </clipPath>
</defs>
<path clip-path="url(#clip450)" d="M276.76 1486.45 L2352.76 1486.45 L2352.76 133.188 L276.76 133.188  Z" fill="#ffffff" fill-rule="evenodd" fill-opacity="1"/>
<defs>
  <clipPath id="clip453">
    <rect x="276" y="133" width="2077" height="1354"/>
  </clipPath>
</defs>
<polyline clip-path="url(#clip453)" style="stroke:#000000; stroke-linecap:round; stroke-linejoin:round; stroke-width:2; stroke-opacity:0.1; fill:none" points="335.514,1486.45 335.514,133.188 "/>
<polyline clip-path="url(#clip453)" style="stroke:#000000; stroke-linecap:round; stroke-linejoin:round; stroke-width:2; stroke-opacity:0.1; fill:none" points="825.136,1486.45 825.136,133.188 "/>
<polyline clip-path="url(#clip453)" style="stroke:#000000; stroke-linecap:round; stroke-linejoin:round; stroke-width:2; stroke-opacity:0.1; fill:none" points="1314.76,1486.45 1314.76,133.188 "/>
<polyline clip-path="url(#clip453)" style="stroke:#000000; stroke-linecap:round; stroke-linejoin:round; stroke-width:2; stroke-opacity:0.1; fill:none" points="1804.38,1486.45 1804.38,133.188 "/>
<polyline clip-path="url(#clip453)" style="stroke:#000000; stroke-linecap:round; stroke-linejoin:round; stroke-width:2; stroke-opacity:0.1; fill:none" points="2294,1486.45 2294,133.188 "/>
<polyline clip-path="url(#clip450)" style="stroke:#000000; stroke-linecap:round; stroke-linejoin:round; stroke-width:4; stroke-opacity:1; fill:none" points="276.76,1486.45 2352.76,1486.45 "/>
<polyline clip-path="url(#clip450)" style="stroke:#000000; stroke-linecap:round; stroke-linejoin:round; stroke-width:4; stroke-opacity:1; fill:none" points="335.514,1486.45 335.514,1467.55 "/>
<polyline clip-path="url(#clip450)" style="stroke:#000000; stroke-linecap:round; stroke-linejoin:round; stroke-width:4; stroke-opacity:1; fill:none" points="825.136,1486.45 825.136,1467.55 "/>
<polyline clip-path="url(#clip450)" style="stroke:#000000; stroke-linecap:round; stroke-linejoin:round; stroke-width:4; stroke-opacity:1; fill:none" points="1314.76,1486.45 1314.76,1467.55 "/>
<polyline clip-path="url(#clip450)" style="stroke:#000000; stroke-linecap:round; stroke-linejoin:round; stroke-width:4; stroke-opacity:1; fill:none" points="1804.38,1486.45 1804.38,1467.55 "/>
<polyline clip-path="url(#clip450)" style="stroke:#000000; stroke-linecap:round; stroke-linejoin:round; stroke-width:4; stroke-opacity:1; fill:none" points="2294,1486.45 2294,1467.55 "/>
<path clip-path="url(#clip450)" d="M335.514 1517.37 Q331.903 1517.37 330.074 1520.93 Q328.269 1524.47 328.269 1531.6 Q328.269 1538.71 330.074 1542.27 Q331.903 1545.82 335.514 1545.82 Q339.148 1545.82 340.954 1542.27 Q342.783 1538.71 342.783 1531.6 Q342.783 1524.47 340.954 1520.93 Q339.148 1517.37 335.514 1517.37 M335.514 1513.66 Q341.324 1513.66 344.38 1518.27 Q347.459 1522.85 347.459 1531.6 Q347.459 1540.33 344.38 1544.94 Q341.324 1549.52 335.514 1549.52 Q329.704 1549.52 326.625 1544.94 Q323.57 1540.33 323.57 1531.6 Q323.57 1522.85 326.625 1518.27 Q329.704 1513.66 335.514 1513.66 Z" fill="#000000" fill-rule="evenodd" fill-opacity="1" /><path clip-path="url(#clip450)" d="M804.407 1544.91 L820.726 1544.91 L820.726 1548.85 L798.782 1548.85 L798.782 1544.91 Q801.444 1542.16 806.027 1537.53 Q810.634 1532.88 811.814 1531.53 Q814.06 1529.01 814.939 1527.27 Q815.842 1525.51 815.842 1523.82 Q815.842 1521.07 813.898 1519.33 Q811.976 1517.6 808.875 1517.6 Q806.675 1517.6 804.222 1518.36 Q801.791 1519.13 799.013 1520.68 L799.013 1515.95 Q801.838 1514.82 804.291 1514.24 Q806.745 1513.66 808.782 1513.66 Q814.152 1513.66 817.347 1516.35 Q820.541 1519.03 820.541 1523.52 Q820.541 1525.65 819.731 1527.57 Q818.944 1529.47 816.837 1532.07 Q816.259 1532.74 813.157 1535.95 Q810.055 1539.15 804.407 1544.91 Z" fill="#000000" fill-rule="evenodd" fill-opacity="1" /><path clip-path="url(#clip450)" d="M830.587 1514.29 L848.944 1514.29 L848.944 1518.22 L834.87 1518.22 L834.87 1526.7 Q835.888 1526.35 836.907 1526.19 Q837.925 1526 838.944 1526 Q844.731 1526 848.11 1529.17 Q851.49 1532.34 851.49 1537.76 Q851.49 1543.34 848.018 1546.44 Q844.546 1549.52 838.226 1549.52 Q836.05 1549.52 833.782 1549.15 Q831.536 1548.78 829.129 1548.04 L829.129 1543.34 Q831.212 1544.47 833.435 1545.03 Q835.657 1545.58 838.134 1545.58 Q842.138 1545.58 844.476 1543.48 Q846.814 1541.37 846.814 1537.76 Q846.814 1534.15 844.476 1532.04 Q842.138 1529.94 838.134 1529.94 Q836.259 1529.94 834.384 1530.35 Q832.532 1530.77 830.587 1531.65 L830.587 1514.29 Z" fill="#000000" fill-rule="evenodd" fill-opacity="1" /><path clip-path="url(#clip450)" d="M1289.46 1514.29 L1307.81 1514.29 L1307.81 1518.22 L1293.74 1518.22 L1293.74 1526.7 Q1294.76 1526.35 1295.78 1526.19 Q1296.79 1526 1297.81 1526 Q1303.6 1526 1306.98 1529.17 Q1310.36 1532.34 1310.36 1537.76 Q1310.36 1543.34 1306.89 1546.44 Q1303.42 1549.52 1297.1 1549.52 Q1294.92 1549.52 1292.65 1549.15 Q1290.41 1548.78 1288 1548.04 L1288 1543.34 Q1290.08 1544.47 1292.3 1545.03 Q1294.53 1545.58 1297 1545.58 Q1301.01 1545.58 1303.35 1543.48 Q1305.68 1541.37 1305.68 1537.76 Q1305.68 1534.15 1303.35 1532.04 Q1301.01 1529.94 1297 1529.94 Q1295.13 1529.94 1293.25 1530.35 Q1291.4 1530.77 1289.46 1531.65 L1289.46 1514.29 Z" fill="#000000" fill-rule="evenodd" fill-opacity="1" /><path clip-path="url(#clip450)" d="M1329.57 1517.37 Q1325.96 1517.37 1324.13 1520.93 Q1322.33 1524.47 1322.33 1531.6 Q1322.33 1538.71 1324.13 1542.27 Q1325.96 1545.82 1329.57 1545.82 Q1333.21 1545.82 1335.01 1542.27 Q1336.84 1538.71 1336.84 1531.6 Q1336.84 1524.47 1335.01 1520.93 Q1333.21 1517.37 1329.57 1517.37 M1329.57 1513.66 Q1335.38 1513.66 1338.44 1518.27 Q1341.52 1522.85 1341.52 1531.6 Q1341.52 1540.33 1338.44 1544.94 Q1335.38 1549.52 1329.57 1549.52 Q1323.76 1549.52 1320.68 1544.94 Q1317.63 1540.33 1317.63 1531.6 Q1317.63 1522.85 1320.68 1518.27 Q1323.76 1513.66 1329.57 1513.66 Z" fill="#000000" fill-rule="evenodd" fill-opacity="1" /><path clip-path="url(#clip450)" d="M1778.23 1514.29 L1800.46 1514.29 L1800.46 1516.28 L1787.91 1548.85 L1783.03 1548.85 L1794.83 1518.22 L1778.23 1518.22 L1778.23 1514.29 Z" fill="#000000" fill-rule="evenodd" fill-opacity="1" /><path clip-path="url(#clip450)" d="M1809.62 1514.29 L1827.98 1514.29 L1827.98 1518.22 L1813.9 1518.22 L1813.9 1526.7 Q1814.92 1526.35 1815.94 1526.19 Q1816.96 1526 1817.98 1526 Q1823.77 1526 1827.15 1529.17 Q1830.53 1532.34 1830.53 1537.76 Q1830.53 1543.34 1827.05 1546.44 Q1823.58 1549.52 1817.26 1549.52 Q1815.09 1549.52 1812.82 1549.15 Q1810.57 1548.78 1808.16 1548.04 L1808.16 1543.34 Q1810.25 1544.47 1812.47 1545.03 Q1814.69 1545.58 1817.17 1545.58 Q1821.17 1545.58 1823.51 1543.48 Q1825.85 1541.37 1825.85 1537.76 Q1825.85 1534.15 1823.51 1532.04 Q1821.17 1529.94 1817.17 1529.94 Q1815.29 1529.94 1813.42 1530.35 Q1811.57 1530.77 1809.62 1531.65 L1809.62 1514.29 Z" fill="#000000" fill-rule="evenodd" fill-opacity="1" /><path clip-path="url(#clip450)" d="M2253.61 1544.91 L2261.25 1544.91 L2261.25 1518.55 L2252.94 1520.21 L2252.94 1515.95 L2261.2 1514.29 L2265.88 1514.29 L2265.88 1544.91 L2273.52 1544.91 L2273.52 1548.85 L2253.61 1548.85 L2253.61 1544.91 Z" fill="#000000" fill-rule="evenodd" fill-opacity="1" /><path clip-path="url(#clip450)" d="M2292.96 1517.37 Q2289.35 1517.37 2287.52 1520.93 Q2285.71 1524.47 2285.71 1531.6 Q2285.71 1538.71 2287.52 1542.27 Q2289.35 1545.82 2292.96 1545.82 Q2296.59 1545.82 2298.4 1542.27 Q2300.23 1538.71 2300.23 1531.6 Q2300.23 1524.47 2298.4 1520.93 Q2296.59 1517.37 2292.96 1517.37 M2292.96 1513.66 Q2298.77 1513.66 2301.83 1518.27 Q2304.9 1522.85 2304.9 1531.6 Q2304.9 1540.33 2301.83 1544.94 Q2298.77 1549.52 2292.96 1549.52 Q2287.15 1549.52 2284.07 1544.94 Q2281.02 1540.33 2281.02 1531.6 Q2281.02 1522.85 2284.07 1518.27 Q2287.15 1513.66 2292.96 1513.66 Z" fill="#000000" fill-rule="evenodd" fill-opacity="1" /><path clip-path="url(#clip450)" d="M2323.12 1517.37 Q2319.51 1517.37 2317.68 1520.93 Q2315.88 1524.47 2315.88 1531.6 Q2315.88 1538.71 2317.68 1542.27 Q2319.51 1545.82 2323.12 1545.82 Q2326.76 1545.82 2328.56 1542.27 Q2330.39 1538.71 2330.39 1531.6 Q2330.39 1524.47 2328.56 1520.93 Q2326.76 1517.37 2323.12 1517.37 M2323.12 1513.66 Q2328.93 1513.66 2331.99 1518.27 Q2335.07 1522.85 2335.07 1531.6 Q2335.07 1540.33 2331.99 1544.94 Q2328.93 1549.52 2323.12 1549.52 Q2317.31 1549.52 2314.23 1544.94 Q2311.18 1540.33 2311.18 1531.6 Q2311.18 1522.85 2314.23 1518.27 Q2317.31 1513.66 2323.12 1513.66 Z" fill="#000000" fill-rule="evenodd" fill-opacity="1" /><polyline clip-path="url(#clip453)" style="stroke:#000000; stroke-linecap:round; stroke-linejoin:round; stroke-width:2; stroke-opacity:0.1; fill:none" points="276.76,1403.78 2352.76,1403.78 "/>
<polyline clip-path="url(#clip453)" style="stroke:#000000; stroke-linecap:round; stroke-linejoin:round; stroke-width:2; stroke-opacity:0.1; fill:none" points="276.76,993.018 2352.76,993.018 "/>
<polyline clip-path="url(#clip453)" style="stroke:#000000; stroke-linecap:round; stroke-linejoin:round; stroke-width:2; stroke-opacity:0.1; fill:none" points="276.76,582.253 2352.76,582.253 "/>
<polyline clip-path="url(#clip453)" style="stroke:#000000; stroke-linecap:round; stroke-linejoin:round; stroke-width:2; stroke-opacity:0.1; fill:none" points="276.76,171.488 2352.76,171.488 "/>
<polyline clip-path="url(#clip450)" style="stroke:#000000; stroke-linecap:round; stroke-linejoin:round; stroke-width:4; stroke-opacity:1; fill:none" points="276.76,1486.45 276.76,133.188 "/>
<polyline clip-path="url(#clip450)" style="stroke:#000000; stroke-linecap:round; stroke-linejoin:round; stroke-width:4; stroke-opacity:1; fill:none" points="276.76,1403.78 295.657,1403.78 "/>
<polyline clip-path="url(#clip450)" style="stroke:#000000; stroke-linecap:round; stroke-linejoin:round; stroke-width:4; stroke-opacity:1; fill:none" points="276.76,993.018 295.657,993.018 "/>
<polyline clip-path="url(#clip450)" style="stroke:#000000; stroke-linecap:round; stroke-linejoin:round; stroke-width:4; stroke-opacity:1; fill:none" points="276.76,582.253 295.657,582.253 "/>
<polyline clip-path="url(#clip450)" style="stroke:#000000; stroke-linecap:round; stroke-linejoin:round; stroke-width:4; stroke-opacity:1; fill:none" points="276.76,171.488 295.657,171.488 "/>
<path clip-path="url(#clip450)" d="M63.9319 1389.58 Q60.3208 1389.58 58.4921 1393.15 Q56.6865 1396.69 56.6865 1403.82 Q56.6865 1410.92 58.4921 1414.49 Q60.3208 1418.03 63.9319 1418.03 Q67.5661 1418.03 69.3717 1414.49 Q71.2004 1410.92 71.2004 1403.82 Q71.2004 1396.69 69.3717 1393.15 Q67.5661 1389.58 63.9319 1389.58 M63.9319 1385.88 Q69.742 1385.88 72.7976 1390.48 Q75.8763 1395.07 75.8763 1403.82 Q75.8763 1412.54 72.7976 1417.15 Q69.742 1421.73 63.9319 1421.73 Q58.1217 1421.73 55.043 1417.15 Q51.9875 1412.54 51.9875 1403.82 Q51.9875 1395.07 55.043 1390.48 Q58.1217 1385.88 63.9319 1385.88 Z" fill="#000000" fill-rule="evenodd" fill-opacity="1" /><path clip-path="url(#clip450)" d="M84.0938 1415.18 L88.978 1415.18 L88.978 1421.06 L84.0938 1421.06 L84.0938 1415.18 Z" fill="#000000" fill-rule="evenodd" fill-opacity="1" /><path clip-path="url(#clip450)" d="M99.3021 1420.35 L99.3021 1416.09 Q101.061 1416.92 102.867 1417.36 Q104.672 1417.8 106.408 1417.8 Q111.038 1417.8 113.469 1414.7 Q115.922 1411.57 116.27 1405.23 Q114.927 1407.22 112.867 1408.29 Q110.807 1409.35 108.307 1409.35 Q103.121 1409.35 100.089 1406.23 Q97.0798 1403.08 97.0798 1397.64 Q97.0798 1392.31 100.228 1389.1 Q103.376 1385.88 108.608 1385.88 Q114.603 1385.88 117.751 1390.48 Q120.922 1395.07 120.922 1403.82 Q120.922 1411.99 117.033 1416.87 Q113.168 1421.73 106.617 1421.73 Q104.858 1421.73 103.052 1421.39 Q101.246 1421.04 99.3021 1420.35 M108.608 1405.69 Q111.756 1405.69 113.584 1403.54 Q115.436 1401.39 115.436 1397.64 Q115.436 1393.91 113.584 1391.76 Q111.756 1389.58 108.608 1389.58 Q105.459 1389.58 103.608 1391.76 Q101.779 1393.91 101.779 1397.64 Q101.779 1401.39 103.608 1403.54 Q105.459 1405.69 108.608 1405.69 Z" fill="#000000" fill-rule="evenodd" fill-opacity="1" /><path clip-path="url(#clip450)" d="M129.464 1420.35 L129.464 1416.09 Q131.223 1416.92 133.029 1417.36 Q134.834 1417.8 136.57 1417.8 Q141.2 1417.8 143.631 1414.7 Q146.084 1411.57 146.431 1405.23 Q145.089 1407.22 143.029 1408.29 Q140.968 1409.35 138.469 1409.35 Q133.283 1409.35 130.251 1406.23 Q127.242 1403.08 127.242 1397.64 Q127.242 1392.31 130.39 1389.1 Q133.538 1385.88 138.769 1385.88 Q144.765 1385.88 147.913 1390.48 Q151.084 1395.07 151.084 1403.82 Q151.084 1411.99 147.195 1416.87 Q143.33 1421.73 136.779 1421.73 Q135.019 1421.73 133.214 1421.39 Q131.408 1421.04 129.464 1420.35 M138.769 1405.69 Q141.918 1405.69 143.746 1403.54 Q145.598 1401.39 145.598 1397.64 Q145.598 1393.91 143.746 1391.76 Q141.918 1389.58 138.769 1389.58 Q135.621 1389.58 133.769 1391.76 Q131.941 1393.91 131.941 1397.64 Q131.941 1401.39 133.769 1403.54 Q135.621 1405.69 138.769 1405.69 Z" fill="#000000" fill-rule="evenodd" fill-opacity="1" /><path clip-path="url(#clip450)" d="M159.626 1420.35 L159.626 1416.09 Q161.385 1416.92 163.191 1417.36 Q164.996 1417.8 166.732 1417.8 Q171.362 1417.8 173.792 1414.7 Q176.246 1411.57 176.593 1405.23 Q175.251 1407.22 173.191 1408.29 Q171.13 1409.35 168.63 1409.35 Q163.445 1409.35 160.413 1406.23 Q157.404 1403.08 157.404 1397.64 Q157.404 1392.31 160.552 1389.1 Q163.7 1385.88 168.931 1385.88 Q174.927 1385.88 178.075 1390.48 Q181.246 1395.07 181.246 1403.82 Q181.246 1411.99 177.357 1416.87 Q173.491 1421.73 166.941 1421.73 Q165.181 1421.73 163.376 1421.39 Q161.57 1421.04 159.626 1420.35 M168.931 1405.69 Q172.079 1405.69 173.908 1403.54 Q175.76 1401.39 175.76 1397.64 Q175.76 1393.91 173.908 1391.76 Q172.079 1389.58 168.931 1389.58 Q165.783 1389.58 163.931 1391.76 Q162.103 1393.91 162.103 1397.64 Q162.103 1401.39 163.931 1403.54 Q165.783 1405.69 168.931 1405.69 Z" fill="#000000" fill-rule="evenodd" fill-opacity="1" /><path clip-path="url(#clip450)" d="M199.649 1404.65 Q196.315 1404.65 194.394 1406.43 Q192.496 1408.22 192.496 1411.34 Q192.496 1414.47 194.394 1416.25 Q196.315 1418.03 199.649 1418.03 Q202.982 1418.03 204.903 1416.25 Q206.825 1414.44 206.825 1411.34 Q206.825 1408.22 204.903 1406.43 Q203.005 1404.65 199.649 1404.65 M194.973 1402.66 Q191.964 1401.92 190.274 1399.86 Q188.607 1397.8 188.607 1394.84 Q188.607 1390.69 191.547 1388.29 Q194.51 1385.88 199.649 1385.88 Q204.811 1385.88 207.751 1388.29 Q210.69 1390.69 210.69 1394.84 Q210.69 1397.8 209.001 1399.86 Q207.334 1401.92 204.348 1402.66 Q207.727 1403.45 209.602 1405.74 Q211.501 1408.03 211.501 1411.34 Q211.501 1416.36 208.422 1419.05 Q205.366 1421.73 199.649 1421.73 Q193.931 1421.73 190.852 1419.05 Q187.797 1416.36 187.797 1411.34 Q187.797 1408.03 189.695 1405.74 Q191.593 1403.45 194.973 1402.66 M193.26 1395.28 Q193.26 1397.96 194.927 1399.47 Q196.616 1400.97 199.649 1400.97 Q202.658 1400.97 204.348 1399.47 Q206.061 1397.96 206.061 1395.28 Q206.061 1392.59 204.348 1391.09 Q202.658 1389.58 199.649 1389.58 Q196.616 1389.58 194.927 1391.09 Q193.26 1392.59 193.26 1395.28 Z" fill="#000000" fill-rule="evenodd" fill-opacity="1" /><path clip-path="url(#clip450)" d="M219.857 1386.5 L238.213 1386.5 L238.213 1390.44 L224.139 1390.44 L224.139 1398.91 Q225.158 1398.56 226.176 1398.4 Q227.195 1398.22 228.213 1398.22 Q234 1398.22 237.38 1401.39 Q240.76 1404.56 240.76 1409.98 Q240.76 1415.55 237.287 1418.66 Q233.815 1421.73 227.496 1421.73 Q225.32 1421.73 223.051 1421.36 Q220.806 1420.99 218.399 1420.25 L218.399 1415.55 Q220.482 1416.69 222.704 1417.24 Q224.926 1417.8 227.403 1417.8 Q231.408 1417.8 233.746 1415.69 Q236.084 1413.59 236.084 1409.98 Q236.084 1406.36 233.746 1404.26 Q231.408 1402.15 227.403 1402.15 Q225.528 1402.15 223.653 1402.57 Q221.801 1402.98 219.857 1403.86 L219.857 1386.5 Z" fill="#000000" fill-rule="evenodd" fill-opacity="1" /><path clip-path="url(#clip450)" d="M62.9365 978.817 Q59.3254 978.817 57.4967 982.381 Q55.6912 985.923 55.6912 993.053 Q55.6912 1000.16 57.4967 1003.72 Q59.3254 1007.27 62.9365 1007.27 Q66.5707 1007.27 68.3763 1003.72 Q70.205 1000.16 70.205 993.053 Q70.205 985.923 68.3763 982.381 Q66.5707 978.817 62.9365 978.817 M62.9365 975.113 Q68.7467 975.113 71.8022 979.719 Q74.8809 984.303 74.8809 993.053 Q74.8809 1001.78 71.8022 1006.39 Q68.7467 1010.97 62.9365 1010.97 Q57.1264 1010.97 54.0477 1006.39 Q50.9921 1001.78 50.9921 993.053 Q50.9921 984.303 54.0477 979.719 Q57.1264 975.113 62.9365 975.113 Z" fill="#000000" fill-rule="evenodd" fill-opacity="1" /><path clip-path="url(#clip450)" d="M83.0984 1004.42 L87.9827 1004.42 L87.9827 1010.3 L83.0984 1010.3 L83.0984 1004.42 Z" fill="#000000" fill-rule="evenodd" fill-opacity="1" /><path clip-path="url(#clip450)" d="M98.3067 1009.58 L98.3067 1005.32 Q100.066 1006.15 101.871 1006.59 Q103.677 1007.03 105.413 1007.03 Q110.043 1007.03 112.473 1003.93 Q114.927 1000.81 115.274 994.465 Q113.932 996.455 111.871 997.52 Q109.811 998.585 107.311 998.585 Q102.126 998.585 99.0937 995.46 Q96.0845 992.312 96.0845 986.872 Q96.0845 981.548 99.2326 978.33 Q102.381 975.113 107.612 975.113 Q113.608 975.113 116.756 979.719 Q119.927 984.303 119.927 993.053 Q119.927 1001.22 116.038 1006.11 Q112.172 1010.97 105.621 1010.97 Q103.862 1010.97 102.057 1010.62 Q100.251 1010.27 98.3067 1009.58 M107.612 994.928 Q110.76 994.928 112.589 992.775 Q114.441 990.622 114.441 986.872 Q114.441 983.145 112.589 980.993 Q110.76 978.817 107.612 978.817 Q104.464 978.817 102.612 980.993 Q100.784 983.145 100.784 986.872 Q100.784 990.622 102.612 992.775 Q104.464 994.928 107.612 994.928 Z" fill="#000000" fill-rule="evenodd" fill-opacity="1" /><path clip-path="url(#clip450)" d="M128.469 1009.58 L128.469 1005.32 Q130.228 1006.15 132.033 1006.59 Q133.839 1007.03 135.575 1007.03 Q140.205 1007.03 142.635 1003.93 Q145.089 1000.81 145.436 994.465 Q144.093 996.455 142.033 997.52 Q139.973 998.585 137.473 998.585 Q132.288 998.585 129.256 995.46 Q126.246 992.312 126.246 986.872 Q126.246 981.548 129.394 978.33 Q132.543 975.113 137.774 975.113 Q143.769 975.113 146.918 979.719 Q150.089 984.303 150.089 993.053 Q150.089 1001.22 146.2 1006.11 Q142.334 1010.97 135.783 1010.97 Q134.024 1010.97 132.219 1010.62 Q130.413 1010.27 128.469 1009.58 M137.774 994.928 Q140.922 994.928 142.751 992.775 Q144.603 990.622 144.603 986.872 Q144.603 983.145 142.751 980.993 Q140.922 978.817 137.774 978.817 Q134.626 978.817 132.774 980.993 Q130.945 983.145 130.945 986.872 Q130.945 990.622 132.774 992.775 Q134.626 994.928 137.774 994.928 Z" fill="#000000" fill-rule="evenodd" fill-opacity="1" /><path clip-path="url(#clip450)" d="M158.63 1009.58 L158.63 1005.32 Q160.39 1006.15 162.195 1006.59 Q164.001 1007.03 165.737 1007.03 Q170.366 1007.03 172.797 1003.93 Q175.251 1000.81 175.598 994.465 Q174.255 996.455 172.195 997.52 Q170.135 998.585 167.635 998.585 Q162.45 998.585 159.417 995.46 Q156.408 992.312 156.408 986.872 Q156.408 981.548 159.556 978.33 Q162.704 975.113 167.936 975.113 Q173.931 975.113 177.079 979.719 Q180.251 984.303 180.251 993.053 Q180.251 1001.22 176.362 1006.11 Q172.496 1010.97 165.945 1010.97 Q164.186 1010.97 162.38 1010.62 Q160.575 1010.27 158.63 1009.58 M167.936 994.928 Q171.084 994.928 172.913 992.775 Q174.765 990.622 174.765 986.872 Q174.765 983.145 172.913 980.993 Q171.084 978.817 167.936 978.817 Q164.788 978.817 162.936 980.993 Q161.107 983.145 161.107 986.872 Q161.107 990.622 162.936 992.775 Q164.788 994.928 167.936 994.928 Z" fill="#000000" fill-rule="evenodd" fill-opacity="1" /><path clip-path="url(#clip450)" d="M188.792 1009.58 L188.792 1005.32 Q190.552 1006.15 192.357 1006.59 Q194.163 1007.03 195.899 1007.03 Q200.528 1007.03 202.959 1003.93 Q205.413 1000.81 205.76 994.465 Q204.417 996.455 202.357 997.52 Q200.297 998.585 197.797 998.585 Q192.612 998.585 189.579 995.46 Q186.57 992.312 186.57 986.872 Q186.57 981.548 189.718 978.33 Q192.866 975.113 198.098 975.113 Q204.093 975.113 207.241 979.719 Q210.413 984.303 210.413 993.053 Q210.413 1001.22 206.524 1006.11 Q202.658 1010.97 196.107 1010.97 Q194.348 1010.97 192.542 1010.62 Q190.737 1010.27 188.792 1009.58 M198.098 994.928 Q201.246 994.928 203.075 992.775 Q204.926 990.622 204.926 986.872 Q204.926 983.145 203.075 980.993 Q201.246 978.817 198.098 978.817 Q194.95 978.817 193.098 980.993 Q191.269 983.145 191.269 986.872 Q191.269 990.622 193.098 992.775 Q194.95 994.928 198.098 994.928 Z" fill="#000000" fill-rule="evenodd" fill-opacity="1" /><path clip-path="url(#clip450)" d="M228.815 978.817 Q225.204 978.817 223.375 982.381 Q221.57 985.923 221.57 993.053 Q221.57 1000.16 223.375 1003.72 Q225.204 1007.27 228.815 1007.27 Q232.449 1007.27 234.255 1003.72 Q236.084 1000.16 236.084 993.053 Q236.084 985.923 234.255 982.381 Q232.449 978.817 228.815 978.817 M228.815 975.113 Q234.625 975.113 237.681 979.719 Q240.76 984.303 240.76 993.053 Q240.76 1001.78 237.681 1006.39 Q234.625 1010.97 228.815 1010.97 Q223.005 1010.97 219.926 1006.39 Q216.871 1001.78 216.871 993.053 Q216.871 984.303 219.926 979.719 Q223.005 975.113 228.815 975.113 Z" fill="#000000" fill-rule="evenodd" fill-opacity="1" /><path clip-path="url(#clip450)" d="M63.9319 568.051 Q60.3208 568.051 58.4921 571.616 Q56.6865 575.158 56.6865 582.287 Q56.6865 589.394 58.4921 592.959 Q60.3208 596.5 63.9319 596.5 Q67.5661 596.5 69.3717 592.959 Q71.2004 589.394 71.2004 582.287 Q71.2004 575.158 69.3717 571.616 Q67.5661 568.051 63.9319 568.051 M63.9319 564.348 Q69.742 564.348 72.7976 568.954 Q75.8763 573.538 75.8763 582.287 Q75.8763 591.014 72.7976 595.621 Q69.742 600.204 63.9319 600.204 Q58.1217 600.204 55.043 595.621 Q51.9875 591.014 51.9875 582.287 Q51.9875 573.538 55.043 568.954 Q58.1217 564.348 63.9319 564.348 Z" fill="#000000" fill-rule="evenodd" fill-opacity="1" /><path clip-path="url(#clip450)" d="M84.0938 593.653 L88.978 593.653 L88.978 599.533 L84.0938 599.533 L84.0938 593.653 Z" fill="#000000" fill-rule="evenodd" fill-opacity="1" /><path clip-path="url(#clip450)" d="M99.3021 598.815 L99.3021 594.556 Q101.061 595.389 102.867 595.829 Q104.672 596.269 106.408 596.269 Q111.038 596.269 113.469 593.167 Q115.922 590.042 116.27 583.699 Q114.927 585.69 112.867 586.755 Q110.807 587.82 108.307 587.82 Q103.121 587.82 100.089 584.695 Q97.0798 581.547 97.0798 576.107 Q97.0798 570.783 100.228 567.565 Q103.376 564.348 108.608 564.348 Q114.603 564.348 117.751 568.954 Q120.922 573.538 120.922 582.287 Q120.922 590.459 117.033 595.343 Q113.168 600.204 106.617 600.204 Q104.858 600.204 103.052 599.857 Q101.246 599.51 99.3021 598.815 M108.608 584.162 Q111.756 584.162 113.584 582.01 Q115.436 579.857 115.436 576.107 Q115.436 572.38 113.584 570.227 Q111.756 568.051 108.608 568.051 Q105.459 568.051 103.608 570.227 Q101.779 572.38 101.779 576.107 Q101.779 579.857 103.608 582.01 Q105.459 584.162 108.608 584.162 Z" fill="#000000" fill-rule="evenodd" fill-opacity="1" /><path clip-path="url(#clip450)" d="M129.464 598.815 L129.464 594.556 Q131.223 595.389 133.029 595.829 Q134.834 596.269 136.57 596.269 Q141.2 596.269 143.631 593.167 Q146.084 590.042 146.431 583.699 Q145.089 585.69 143.029 586.755 Q140.968 587.82 138.469 587.82 Q133.283 587.82 130.251 584.695 Q127.242 581.547 127.242 576.107 Q127.242 570.783 130.39 567.565 Q133.538 564.348 138.769 564.348 Q144.765 564.348 147.913 568.954 Q151.084 573.538 151.084 582.287 Q151.084 590.459 147.195 595.343 Q143.33 600.204 136.779 600.204 Q135.019 600.204 133.214 599.857 Q131.408 599.51 129.464 598.815 M138.769 584.162 Q141.918 584.162 143.746 582.01 Q145.598 579.857 145.598 576.107 Q145.598 572.38 143.746 570.227 Q141.918 568.051 138.769 568.051 Q135.621 568.051 133.769 570.227 Q131.941 572.38 131.941 576.107 Q131.941 579.857 133.769 582.01 Q135.621 584.162 138.769 584.162 Z" fill="#000000" fill-rule="evenodd" fill-opacity="1" /><path clip-path="url(#clip450)" d="M159.626 598.815 L159.626 594.556 Q161.385 595.389 163.191 595.829 Q164.996 596.269 166.732 596.269 Q171.362 596.269 173.792 593.167 Q176.246 590.042 176.593 583.699 Q175.251 585.69 173.191 586.755 Q171.13 587.82 168.63 587.82 Q163.445 587.82 160.413 584.695 Q157.404 581.547 157.404 576.107 Q157.404 570.783 160.552 567.565 Q163.7 564.348 168.931 564.348 Q174.927 564.348 178.075 568.954 Q181.246 573.538 181.246 582.287 Q181.246 590.459 177.357 595.343 Q173.491 600.204 166.941 600.204 Q165.181 600.204 163.376 599.857 Q161.57 599.51 159.626 598.815 M168.931 584.162 Q172.079 584.162 173.908 582.01 Q175.76 579.857 175.76 576.107 Q175.76 572.38 173.908 570.227 Q172.079 568.051 168.931 568.051 Q165.783 568.051 163.931 570.227 Q162.103 572.38 162.103 576.107 Q162.103 579.857 163.931 582.01 Q165.783 584.162 168.931 584.162 Z" fill="#000000" fill-rule="evenodd" fill-opacity="1" /><path clip-path="url(#clip450)" d="M189.788 598.815 L189.788 594.556 Q191.547 595.389 193.352 595.829 Q195.158 596.269 196.894 596.269 Q201.524 596.269 203.954 593.167 Q206.408 590.042 206.755 583.699 Q205.413 585.69 203.352 586.755 Q201.292 587.82 198.792 587.82 Q193.607 587.82 190.575 584.695 Q187.565 581.547 187.565 576.107 Q187.565 570.783 190.714 567.565 Q193.862 564.348 199.093 564.348 Q205.089 564.348 208.237 568.954 Q211.408 573.538 211.408 582.287 Q211.408 590.459 207.519 595.343 Q203.653 600.204 197.102 600.204 Q195.343 600.204 193.538 599.857 Q191.732 599.51 189.788 598.815 M199.093 584.162 Q202.241 584.162 204.07 582.01 Q205.922 579.857 205.922 576.107 Q205.922 572.38 204.07 570.227 Q202.241 568.051 199.093 568.051 Q195.945 568.051 194.093 570.227 Q192.265 572.38 192.265 576.107 Q192.265 579.857 194.093 582.01 Q195.945 584.162 199.093 584.162 Z" fill="#000000" fill-rule="evenodd" fill-opacity="1" /><path clip-path="url(#clip450)" d="M219.857 564.973 L238.213 564.973 L238.213 568.908 L224.139 568.908 L224.139 577.38 Q225.158 577.033 226.176 576.871 Q227.195 576.686 228.213 576.686 Q234 576.686 237.38 579.857 Q240.76 583.028 240.76 588.445 Q240.76 594.024 237.287 597.125 Q233.815 600.204 227.496 600.204 Q225.32 600.204 223.051 599.834 Q220.806 599.463 218.399 598.723 L218.399 594.024 Q220.482 595.158 222.704 595.713 Q224.926 596.269 227.403 596.269 Q231.408 596.269 233.746 594.162 Q236.084 592.056 236.084 588.445 Q236.084 584.834 233.746 582.727 Q231.408 580.621 227.403 580.621 Q225.528 580.621 223.653 581.037 Q221.801 581.454 219.857 582.334 L219.857 564.973 Z" fill="#000000" fill-rule="evenodd" fill-opacity="1" /><path clip-path="url(#clip450)" d="M53.7467 184.832 L61.3856 184.832 L61.3856 158.467 L53.0754 160.133 L53.0754 155.874 L61.3393 154.208 L66.0152 154.208 L66.0152 184.832 L73.654 184.832 L73.654 188.768 L53.7467 188.768 L53.7467 184.832 Z" fill="#000000" fill-rule="evenodd" fill-opacity="1" /><path clip-path="url(#clip450)" d="M83.0984 182.888 L87.9827 182.888 L87.9827 188.768 L83.0984 188.768 L83.0984 182.888 Z" fill="#000000" fill-rule="evenodd" fill-opacity="1" /><path clip-path="url(#clip450)" d="M108.168 157.286 Q104.557 157.286 102.728 160.851 Q100.922 164.393 100.922 171.522 Q100.922 178.629 102.728 182.194 Q104.557 185.735 108.168 185.735 Q111.802 185.735 113.608 182.194 Q115.436 178.629 115.436 171.522 Q115.436 164.393 113.608 160.851 Q111.802 157.286 108.168 157.286 M108.168 153.583 Q113.978 153.583 117.033 158.189 Q120.112 162.772 120.112 171.522 Q120.112 180.249 117.033 184.856 Q113.978 189.439 108.168 189.439 Q102.358 189.439 99.2789 184.856 Q96.2234 180.249 96.2234 171.522 Q96.2234 162.772 99.2789 158.189 Q102.358 153.583 108.168 153.583 Z" fill="#000000" fill-rule="evenodd" fill-opacity="1" /><path clip-path="url(#clip450)" d="M138.33 157.286 Q134.719 157.286 132.89 160.851 Q131.084 164.393 131.084 171.522 Q131.084 178.629 132.89 182.194 Q134.719 185.735 138.33 185.735 Q141.964 185.735 143.769 182.194 Q145.598 178.629 145.598 171.522 Q145.598 164.393 143.769 160.851 Q141.964 157.286 138.33 157.286 M138.33 153.583 Q144.14 153.583 147.195 158.189 Q150.274 162.772 150.274 171.522 Q150.274 180.249 147.195 184.856 Q144.14 189.439 138.33 189.439 Q132.519 189.439 129.441 184.856 Q126.385 180.249 126.385 171.522 Q126.385 162.772 129.441 158.189 Q132.519 153.583 138.33 153.583 Z" fill="#000000" fill-rule="evenodd" fill-opacity="1" /><path clip-path="url(#clip450)" d="M168.491 157.286 Q164.88 157.286 163.052 160.851 Q161.246 164.393 161.246 171.522 Q161.246 178.629 163.052 182.194 Q164.88 185.735 168.491 185.735 Q172.126 185.735 173.931 182.194 Q175.76 178.629 175.76 171.522 Q175.76 164.393 173.931 160.851 Q172.126 157.286 168.491 157.286 M168.491 153.583 Q174.302 153.583 177.357 158.189 Q180.436 162.772 180.436 171.522 Q180.436 180.249 177.357 184.856 Q174.302 189.439 168.491 189.439 Q162.681 189.439 159.603 184.856 Q156.547 180.249 156.547 171.522 Q156.547 162.772 159.603 158.189 Q162.681 153.583 168.491 153.583 Z" fill="#000000" fill-rule="evenodd" fill-opacity="1" /><path clip-path="url(#clip450)" d="M198.653 157.286 Q195.042 157.286 193.214 160.851 Q191.408 164.393 191.408 171.522 Q191.408 178.629 193.214 182.194 Q195.042 185.735 198.653 185.735 Q202.288 185.735 204.093 182.194 Q205.922 178.629 205.922 171.522 Q205.922 164.393 204.093 160.851 Q202.288 157.286 198.653 157.286 M198.653 153.583 Q204.464 153.583 207.519 158.189 Q210.598 162.772 210.598 171.522 Q210.598 180.249 207.519 184.856 Q204.464 189.439 198.653 189.439 Q192.843 189.439 189.765 184.856 Q186.709 180.249 186.709 171.522 Q186.709 162.772 189.765 158.189 Q192.843 153.583 198.653 153.583 Z" fill="#000000" fill-rule="evenodd" fill-opacity="1" /><path clip-path="url(#clip450)" d="M228.815 157.286 Q225.204 157.286 223.375 160.851 Q221.57 164.393 221.57 171.522 Q221.57 178.629 223.375 182.194 Q225.204 185.735 228.815 185.735 Q232.449 185.735 234.255 182.194 Q236.084 178.629 236.084 171.522 Q236.084 164.393 234.255 160.851 Q232.449 157.286 228.815 157.286 M228.815 153.583 Q234.625 153.583 237.681 158.189 Q240.76 162.772 240.76 171.522 Q240.76 180.249 237.681 184.856 Q234.625 189.439 228.815 189.439 Q223.005 189.439 219.926 184.856 Q216.871 180.249 216.871 171.522 Q216.871 162.772 219.926 158.189 Q223.005 153.583 228.815 153.583 Z" fill="#000000" fill-rule="evenodd" fill-opacity="1" /><path clip-path="url(#clip450)" d="M1143.73 49.4838 Q1143.73 55.5503 1140.61 61.2478 Q1137.54 66.9453 1132.7 70.3884 Q1127.91 73.8315 1123.07 73.8315 Q1117.62 73.8315 1114.79 68.175 Q1109.67 88.7106 1109.38 89.2434 Q1108.19 91.006 1106.47 91.006 Q1105.4 91.006 1104.75 90.3502 Q1104.09 89.7353 1104.09 88.7516 Q1104.13 88.4237 1104.38 87.3989 L1112.58 54.4026 Q1114.46 46.7376 1120.16 41.286 Q1125.9 35.7934 1132.05 35.7934 Q1136.92 35.7934 1140.33 39.4415 Q1143.73 43.0895 1143.73 49.4838 M1137.7 45.8768 Q1137.7 41.7779 1136.06 39.7284 Q1134.42 37.6379 1131.88 37.6379 Q1129.54 37.6379 1126.72 39.5234 Q1123.93 41.409 1121.47 45.5899 Q1120.16 48.0082 1119.22 51.0004 Q1118.27 53.9927 1116.43 61.3707 Q1115.77 64.322 1115.77 64.4859 Q1115.77 64.8138 1115.94 65.5516 Q1116.14 66.2894 1116.63 67.4371 Q1117.17 68.5439 1117.9 69.5276 Q1118.64 70.5113 1119.99 71.2491 Q1121.35 71.946 1122.99 71.946 Q1125.53 71.946 1128.23 69.8965 Q1130.98 67.806 1132.99 63.994 Q1134.67 60.9198 1136.19 55.1404 Q1137.7 49.3199 1137.7 45.8768 Z" fill="#000000" fill-rule="evenodd" fill-opacity="1" /><path clip-path="url(#clip450)" d="M1192.61 114.646 Q1192.61 115.192 1192.38 115.478 Q1192.18 115.737 1191.98 115.794 Q1191.81 115.823 1191.55 115.823 Q1190.81 115.823 1188.22 115.737 Q1185.64 115.651 1184.9 115.651 Q1183.69 115.651 1181.22 115.737 Q1178.76 115.823 1177.55 115.823 Q1176.75 115.823 1176.75 115.163 Q1176.75 114.732 1176.83 114.503 Q1176.92 114.245 1177.15 114.159 Q1177.41 114.044 1177.55 114.044 Q1177.72 114.015 1178.15 114.015 Q1178.73 114.015 1179.33 113.958 Q1179.93 113.872 1180.68 113.7 Q1181.42 113.527 1181.88 113.097 Q1182.37 112.667 1182.37 112.064 Q1182.37 111.806 1182.17 109.683 Q1181.97 107.559 1181.71 105.092 Q1181.45 102.596 1181.42 102.251 L1166.68 102.251 Q1165.33 104.575 1164.38 106.182 Q1163.43 107.789 1163.09 108.334 Q1162.74 108.879 1162.54 109.224 Q1162.34 109.568 1162.23 109.769 Q1161.4 111.289 1161.4 111.949 Q1161.4 113.786 1164.15 114.015 Q1165.1 114.015 1165.1 114.704 Q1165.1 115.22 1164.87 115.507 Q1164.64 115.765 1164.44 115.794 Q1164.27 115.823 1163.98 115.823 Q1163.03 115.823 1161.05 115.737 Q1159.07 115.651 1158.1 115.651 Q1157.26 115.651 1155.54 115.737 Q1153.82 115.823 1153.05 115.823 Q1152.7 115.823 1152.5 115.622 Q1152.3 115.421 1152.3 115.163 Q1152.3 114.761 1152.36 114.532 Q1152.44 114.302 1152.67 114.187 Q1152.9 114.073 1153.02 114.073 Q1153.13 114.044 1153.53 114.015 Q1155.72 113.872 1157.41 112.839 Q1159.13 111.777 1160.76 109.051 L1181.19 74.7351 Q1181.39 74.3908 1181.54 74.2187 Q1181.68 74.0465 1181.97 73.903 Q1182.28 73.7596 1182.74 73.7596 Q1183.46 73.7596 1183.6 73.9891 Q1183.75 74.19 1183.83 75.1655 L1187.42 111.892 Q1187.51 112.667 1187.56 112.982 Q1187.65 113.269 1188.02 113.585 Q1188.42 113.872 1189.14 113.958 Q1189.89 114.015 1191.27 114.015 Q1191.78 114.015 1191.98 114.044 Q1192.18 114.044 1192.38 114.187 Q1192.61 114.331 1192.61 114.646 M1181.25 100.415 L1179.39 81.0475 L1167.79 100.415 L1181.25 100.415 Z" fill="#000000" fill-rule="evenodd" fill-opacity="1" /><path clip-path="url(#clip450)" d="M1201.18 51.9022 Q1201.18 37.7199 1206.47 26.2839 Q1208.72 21.4882 1211.88 17.4712 Q1215.04 13.4543 1217.13 11.6917 Q1219.22 9.92919 1219.79 9.92919 Q1220.61 9.92919 1220.65 10.749 Q1220.65 11.1589 1219.55 12.1836 Q1206.02 25.956 1206.06 51.9022 Q1206.06 77.9304 1219.22 91.1699 Q1220.65 92.6046 1220.65 93.0554 Q1220.65 93.8752 1219.79 93.8752 Q1219.22 93.8752 1217.21 92.1947 Q1215.2 90.5141 1212.09 86.6611 Q1208.97 82.8081 1206.72 78.0944 Q1201.18 66.6583 1201.18 51.9022 Z" fill="#000000" fill-rule="evenodd" fill-opacity="1" /><path clip-path="url(#clip450)" d="M1266.37 41.081 Q1266.37 43.4174 1264.94 44.8111 Q1263.54 46.2047 1261.78 46.2047 Q1260.22 46.2047 1259.4 45.3029 Q1258.58 44.4012 1258.58 43.2535 Q1258.58 42.7616 1258.79 42.1468 Q1258.99 41.4909 1259.45 40.7121 Q1259.94 39.9333 1260.96 39.3595 Q1261.99 38.7856 1263.38 38.7037 Q1263.09 38.4167 1263.01 38.3757 Q1262.4 37.8839 1261.25 37.7199 Q1261.09 37.6379 1260.51 37.6379 Q1257.68 37.6379 1254.81 39.7284 Q1251.99 41.7779 1248.5 45.6718 Q1244.12 50.2216 1241.29 51.9022 Q1253.71 53.5418 1253.71 60.7149 Q1253.71 61.9036 1253.38 63.3382 Q1252.72 66.0435 1252.72 68.011 Q1252.72 71.946 1255.39 71.946 Q1257.97 71.946 1259.61 69.3227 Q1261.29 66.6993 1262.68 61.5757 Q1262.89 60.6329 1263.09 60.346 Q1263.3 60.0591 1263.87 60.0591 Q1264.9 60.0591 1264.9 60.8789 Q1263.95 65.6746 1261.86 69.3636 Q1259.2 73.8315 1255.22 73.8315 Q1251.9 73.8315 1249.69 71.5361 Q1247.52 69.1997 1247.52 65.5106 Q1247.52 64.6089 1247.85 62.5594 Q1248.09 61.7396 1248.09 60.7969 Q1248.09 58.8704 1247.03 57.4358 Q1245.96 55.9601 1244.24 55.2223 Q1242.52 54.4845 1241.08 54.1566 Q1239.69 53.7877 1238.34 53.6647 Q1234.24 71.0032 1233.66 72.0689 Q1233.29 72.8067 1232.47 73.2986 Q1231.65 73.8315 1230.79 73.8315 Q1229.97 73.8315 1229.15 73.2576 Q1228.38 72.7248 1228.38 71.4541 Q1228.38 70.7983 1228.7 69.6096 L1240.88 21.2422 L1241.12 19.6027 Q1241.12 19.1108 1240.92 18.8649 Q1240.75 18.5779 1239.77 18.373 Q1238.83 18.168 1236.94 18.168 Q1236.16 18.168 1235.79 18.127 Q1235.47 18.0861 1235.18 17.8811 Q1234.89 17.6352 1234.89 17.1433 Q1234.89 16.4465 1235.18 16.0776 Q1235.51 15.6677 1235.75 15.5857 Q1236 15.5037 1236.49 15.4627 Q1237.19 15.4218 1239.52 15.2168 Q1241.86 14.9709 1243.87 14.8069 Q1245.88 14.643 1246.74 14.643 Q1247.23 14.643 1247.48 14.8889 Q1247.76 15.0938 1247.8 15.3398 L1247.85 15.5447 L1239.11 50.9595 Q1242.72 49.5248 1248.42 43.1715 Q1255.02 35.7934 1260.68 35.7934 Q1263.34 35.7934 1264.86 37.433 Q1266.37 39.0316 1266.37 41.081 Z" fill="#000000" fill-rule="evenodd" fill-opacity="1" /><path clip-path="url(#clip450)" d="M1294.98 60.1411 Q1295.06 59.1163 1296.66 59.1163 L1348.1 59.1163 Q1350.52 59.1163 1350.56 60.0591 Q1350.56 61.0838 1348.27 61.0428 L1297.24 61.0428 Q1294.98 61.0838 1294.98 60.1411 M1294.98 43.7453 Q1294.98 42.7206 1296.74 42.7616 L1348.02 42.7616 Q1350.52 42.7616 1350.56 43.7453 Q1350.56 44.6881 1348.43 44.6881 L1296.66 44.6881 Q1294.98 44.6881 1294.98 43.7453 Z" fill="#000000" fill-rule="evenodd" fill-opacity="1" /><path clip-path="url(#clip450)" d="M1382.94 46.0407 Q1382.94 33.703 1386.06 26.9807 Q1390.4 16.9793 1400.65 16.9793 Q1402.82 16.9793 1405.08 17.5942 Q1407.37 18.168 1410.24 20.4224 Q1413.15 22.6769 1414.91 26.3659 Q1418.27 33.498 1418.27 46.0407 Q1418.27 58.2965 1415.16 64.9778 Q1410.61 74.7332 1400.57 74.7332 Q1396.8 74.7332 1392.94 72.8067 Q1389.13 70.8802 1386.71 66.2485 Q1382.94 59.3213 1382.94 46.0407 M1389.91 45.016 Q1389.91 57.6817 1390.81 62.7234 Q1391.84 68.175 1394.62 70.5523 Q1397.45 72.8887 1400.57 72.8887 Q1403.93 72.8887 1406.72 70.3884 Q1409.54 67.847 1410.4 62.3955 Q1411.35 57.0259 1411.31 45.016 Q1411.31 33.3341 1410.49 28.6613 Q1409.38 23.2097 1406.43 21.0373 Q1403.52 18.8239 1400.57 18.8239 Q1399.46 18.8239 1398.27 19.1518 Q1397.12 19.4797 1395.44 20.4224 Q1393.76 21.3652 1392.45 23.7016 Q1391.18 26.038 1390.57 29.5631 Q1389.91 34.1129 1389.91 45.016 Z" fill="#000000" fill-rule="evenodd" fill-opacity="1" /><path clip-path="url(#clip450)" d="M1425.7 71.5361 Q1424.51 70.1834 1424.51 68.4209 Q1424.51 66.6583 1425.66 65.3467 Q1426.85 63.994 1428.98 63.994 Q1431.48 63.994 1432.92 66.4124 Q1434.35 68.7898 1434.35 72.8067 Q1434.35 77.1516 1432.59 81.1686 Q1430.82 85.2265 1429.1 87.153 Q1427.38 89.0795 1426.68 89.0795 Q1425.87 89.0795 1425.87 88.1777 Q1425.87 87.8498 1426.44 87.235 Q1432.46 80.7587 1432.51 72.8067 Q1432.51 71.5361 1432.34 71.5361 L1432.14 71.7 Q1430.7 72.8887 1428.98 72.8887 Q1426.89 72.8887 1425.7 71.5361 Z" fill="#000000" fill-rule="evenodd" fill-opacity="1" /><path clip-path="url(#clip450)" d="M1486.62 37.6379 Q1486.62 38.7856 1486.09 39.0726 Q1485.56 39.3185 1484.08 39.3185 L1476.21 39.3185 L1469.98 64.076 Q1469.49 66.2485 1469.49 68.093 Q1469.49 70.1424 1470.1 71.0442 Q1470.76 71.946 1472.11 71.946 Q1474.78 71.946 1477.64 69.5276 Q1480.56 67.1092 1483.01 61.2068 Q1483.34 60.428 1483.51 60.264 Q1483.71 60.0591 1484.24 60.0591 Q1485.27 60.0591 1485.27 60.8789 Q1485.27 61.1658 1484.69 62.4774 Q1484.16 63.7891 1482.97 65.7156 Q1481.83 67.6421 1480.31 69.4456 Q1478.83 71.2491 1476.58 72.5608 Q1474.32 73.8315 1471.91 73.8315 Q1468.5 73.8315 1466.33 71.659 Q1464.2 69.4866 1464.2 66.0845 Q1464.2 64.9778 1465.06 61.4527 Q1465.92 57.8866 1470.59 39.3185 L1463.18 39.3185 Q1462.15 39.3185 1461.74 39.2775 Q1461.37 39.2365 1461.09 39.0316 Q1460.84 38.7856 1460.84 38.2938 Q1460.84 37.515 1461.17 37.1871 Q1461.5 36.8182 1461.9 36.7772 Q1462.36 36.6952 1463.38 36.6952 L1471.25 36.6952 L1474.53 23.3737 Q1474.86 22.062 1475.68 21.3242 Q1476.54 20.5454 1477.03 20.4634 Q1477.52 20.3405 1477.89 20.3405 Q1479 20.3405 1479.65 20.9553 Q1480.31 21.5292 1480.31 22.5949 Q1480.31 23.1687 1476.87 36.6952 L1484.24 36.6952 Q1485.19 36.6952 1485.56 36.7362 Q1485.97 36.7772 1486.29 36.9821 Q1486.62 37.1871 1486.62 37.6379 Z" fill="#000000" fill-rule="evenodd" fill-opacity="1" /><path clip-path="url(#clip450)" d="M1493.19 93.0554 Q1493.19 92.6456 1494.26 91.6208 Q1507.78 77.8484 1507.78 51.9022 Q1507.78 25.874 1494.79 12.7165 Q1493.19 11.1999 1493.19 10.749 Q1493.19 9.92919 1494.01 9.92919 Q1494.59 9.92919 1496.59 11.6097 Q1498.64 13.2903 1501.72 17.1433 Q1504.83 20.9963 1507.13 25.7101 Q1512.66 37.1461 1512.66 51.9022 Q1512.66 66.0845 1507.37 77.5205 Q1505.12 82.3163 1501.96 86.3332 Q1498.81 90.3502 1496.72 92.1127 Q1494.63 93.8752 1494.01 93.8752 Q1493.19 93.8752 1493.19 93.0554 Z" fill="#000000" fill-rule="evenodd" fill-opacity="1" /><polyline clip-path="url(#clip453)" style="stroke:#009af9; stroke-linecap:round; stroke-linejoin:round; stroke-width:4; stroke-opacity:1; fill:none" points="335.514,171.488 337.473,592.403 339.431,798.928 341.39,419.213 343.348,552.07 345.307,807.831 347.265,652.899 349.224,654.605 351.182,691.224 353.141,668.231 355.099,856.716 357.058,734.793 359.016,523.94 360.975,898.333 362.933,943.367 364.892,495.84 366.85,740.775 368.809,1055.51 370.767,672.871 372.725,635.748 374.684,945.286 376.642,827.721 378.601,749.051 380.559,815.486 382.518,763.198 384.476,912.034 386.435,892.576 388.393,611.865 390.352,877.927 392.31,1085.27 394.269,636.333 396.227,695.948 398.186,1123.28 400.144,832.538 402.103,637.627 404.061,966.482 406.02,936.14 407.978,786.783 409.937,865.875 411.895,822.453 413.854,913.212 415.812,984.247 417.771,695.099 419.729,821.14 421.688,1150.23 423.646,778.091 425.605,645.579 427.563,1117.67 429.522,977.012 431.48,648.432 433.439,938.023 435.397,1021.72 437.356,822.679 439.314,882.708 441.273,874.776 443.231,903.188 445.19,1032.8 447.148,787.979 449.106,767.802 451.065,1156.6 453.023,921.454 454.982,622.198 456.94,1060.2 458.899,1101.37 460.857,688.97 462.816,880.901 464.774,1082.67 466.733,871.114 468.691,879.735 470.65,919.53 472.608,898.787 474.567,1046.91 476.525,883.293 478.484,737.403 480.442,1116.81 482.401,1052.03 484.359,639.95 486.318,969.874 488.276,1192.32 490.235,764.413 492.193,813.587 494.152,1112.14 496.11,934.853 498.069,868.926 500.027,951.114 501.986,907.429 503.944,1036.37 505.903,969.311 507.861,739.08 509.82,1046.6 511.778,1153.86 513.737,701.338 515.695,867.996 517.654,1238.34 519.612,869.616 521.571,754.633 523.529,1105.61 525.487,1009.07 527.446,862.265 529.404,964.925 531.363,929.613 533.321,1012.96 535.28,1035.45 537.238,773.242 539.197,964.366 541.155,1214.85 543.114,799.148 545.072,776.37 547.031,1234.04 548.989,991.607 550.948,720.712 552.906,1064.11 554.865,1083.6 556.823,870.193 558.782,960.11 560.74,960.449 562.699,988.718 564.657,1075.39 566.616,833.046 568.574,888.455 570.533,1229.79 572.491,918.767 574.45,713.999 576.408,1182.17 578.367,1112.56 580.325,723.811 582.284,995.158 584.242,1145.63 586.201,899.441 588.159,940.569 590.118,991.754 592.076,973.494 594.035,1088.49 595.993,906.75 597.952,834.039 599.91,1201.42 601.868,1041.45 603.827,693.912 605.785,1093.61 607.744,1213.44 609.702,768.872 611.661,912.074 613.619,1182.77 615.578,951.32 617.536,914.48 619.495,1014.65 621.453,972.987 623.412,1079.65 625.37,980.721 627.329,810.581 629.287,1139.77 631.246,1148.13 633.204,720.958 635.163,985.592 637.121,1277.87 639.08,852.625 641.038,831.802 642.997,1186.14 644.955,1021.07 646.914,892.566 648.872,1022.19 650.831,987.698 652.789,1057.85 654.748,1042.58 656.706,820.503 658.665,1059.99 660.623,1223.12 662.582,791.136 664.54,878.658 666.499,1295.43 668.457,963.958 670.416,771.761 672.374,1152.79 674.332,1098.56 676.291,885.595 678.249,1011.48 680.208,1013.15 682.166,1033.77 684.125,1083.8 686.083,859.314 688.042,979.221 690,1256.99 691.959,892.581 693.917,792.846 695.876,1263.85 697.834,1085.85 699.793,746.408 701.751,1086.84 703.71,1170.18 705.668,901.676 707.627,984.716 709.585,1041.31 711.544,1017.11 713.502,1101.31 715.461,917.138 717.419,913.204 719.378,1248.15 721.336,1008.03 723.295,744.012 725.253,1189.59 727.212,1198.52 729.17,764.22 731.129,999.293 733.087,1221.74 735.046,944.03 737.004,949.005 738.963,1062.84 740.921,1014.24 742.88,1097.75 744.838,981.258 746.797,873.321 748.755,1202.76 750.713,1118.26 752.672,740.954 754.63,1086.74 756.589,1283.17 758.547,825.757 760.506,906.191 762.464,1241.58 764.423,1009.76 766.381,914.907 768.34,1069.73 770.298,1026.73 772.257,1080.37 774.215,1039.1 776.174,864.685 778.132,1133.12 780.091,1205.79 782.049,783.919 784.008,974.407 785.966,1325.63 787.925,923.252 789.883,825.725 791.842,1223.34 793.8,1089.97 795.759,894.027 797.717,1057.59 799.676,1051.12 801.634,1058.94 803.593,1081 805.551,885.626 807.51,1054.97 809.468,1258.15 811.427,864.79 813.385,873.133 815.344,1319.12 817.302,1041.84 819.261,774.697 821.219,1167.76 823.178,1171.27 825.136,896.217 827.094,1027.09 829.053,1079.9 831.011,1043.15 832.97,1102.13 834.928,928.624 836.887,984.166 838.845,1269.95 840.804,968.867 842.762,801.058 844.721,1265.64 846.679,1162.23 848.638,765.137 850.596,1083.06 852.555,1238.35 854.513,927.007 856.472,984.219 858.43,1103.58 860.389,1040.08 862.347,1103.22 864.306,982.427 866.264,933.525 868.223,1243.59 870.181,1077.88 872.14,770.587 874.098,1175.57 876.057,1264.29 878.015,801.742 879.974,983.709 881.932,1277.22 883.891,985.881 885.849,939.211 887.808,1113.2 889.766,1052.44 891.725,1089.96 893.683,1034.85 895.642,910.506 897.6,1188.3 899.559,1173.61 901.517,786.218 903.475,1065.74 905.434,1330.88 907.392,880.708 909.351,887.927 911.309,1278.27 913.268,1065.84 915.226,904.346 917.185,1102.88 919.143,1077.85 921.102,1071.21 923.06,1075.58 925.019,916.122 926.977,1117.86 928.936,1241.3 930.894,843.939 932.853,956.242 934.811,1351.11 936.77,990.213 938.728,814.216 940.687,1238.63 942.645,1154.36 944.604,891.155 946.562,1071.65 948.521,1109.48 950.479,1056.58 952.438,1098.44 954.396,945.293 956.355,1047.6 958.313,1272.34 960.272,932.288 962.23,866.611 964.189,1322.4 966.147,1112.5 968.106,777.758 970.064,1163.19 972.023,1235.74 973.981,907.599 975.94,1024.1 977.898,1137.78 979.856,1053.79 981.815,1102.53 983.773,988.503 985.732,991.141 987.69,1265.53 989.649,1034.83 991.607,812.202 993.566,1250.98 995.524,1227.14 997.483,787.337 999.441,1064.1 1001.4,1294.13 1003.36,955.883 1005.32,969.762 1007.28,1152.95 1009.23,1066.66 1011.19,1092.05 1013.15,1034.32 1015.11,957.783 1017.07,1226.84 1019.03,1133.49 1020.98,801.444 1022.94,1150.62 1024.9,1314.87 1026.86,843.449 1028.82,958.711 1030.78,1316.93 1032.74,1031.44 1034.69,921.275 1036.65,1147.6 1038.61,1093.97 1040.57,1074.97 1042.53,1072.2 1044.49,950.92 1046.45,1167.69 1048.4,1212.14 1050.36,834.503 1052.32,1039.99 1054.28,1361.25 1056.24,938.007 1058.2,866.389 1060.15,1297.54 1062.11,1123.34 1064.07,891.622 1066.03,1118.86 1067.99,1129.71 1069.95,1060.71 1071.91,1094.95 1073.86,967.841 1075.82,1102.26 1077.78,1259.51 1079.74,903.588 1081.7,939.021 1083.66,1359.3 1085.61,1055.72 1087.57,804.842 1089.53,1237.13 1091.49,1216.15 1093.45,891.159 1095.41,1069.63 1097.37,1164.41 1099.32,1057.61 1101.28,1100.23 1103.24,1000.88 1105.2,1044.38 1107.16,1271.13 1109.12,994.795 1111.08,865.202 1113.03,1310.82 1114.99,1176.92 1116.95,786.633 1118.91,1144.79 1120.87,1292.84 1122.83,925.02 1124.78,1008.33 1126.74,1187.53 1128.7,1070.58 1130.66,1090.88 1132.62,1039.61 1134.58,1004.65 1136.54,1249.71 1138.49,1091.08 1140.45,830.357 1142.41,1225.9 1144.37,1281.19 1146.33,816.65 1148.29,1036.09 1150.24,1338.19 1152.2,991.532 1154.16,947.486 1156.12,1190.13 1158.08,1099.67 1160.04,1073.95 1162,1073.57 1163.95,988.449 1165.91,1204.02 1167.87,1175.71 1169.83,838.662 1171.79,1120.87 1173.75,1351.26 1175.71,891.021 1177.66,930.364 1179.62,1342.03 1181.58,1082.02 1183.54,901.181 1185.5,1167.36 1187.46,1139.84 1189.41,1058.66 1191.37,1094.8 1193.33,995.262 1195.29,1146.67 1197.25,1235.52 1199.21,886.199 1201.17,1015.09 1203.12,1376.16 1205.08,997.742 1207.04,847.013 1209,1301.52 1210.96,1182.1 1212.92,881.974 1214.87,1120.01 1216.83,1181.92 1218.79,1053.89 1220.75,1099.76 1222.71,1019.28 1224.67,1091.09 1226.63,1263.2 1228.58,962.121 1230.54,927.272 1232.5,1353.23 1234.46,1118.87 1236.42,801.851 1238.38,1222.1 1240.34,1274.3 1242.29,897.996 1244.25,1054.96 1246.21,1214.8 1248.17,1065.69 1250.13,1089.99 1252.09,1051.24 1254.04,1048.66 1256,1258.35 1257.96,1051.14 1259.92,871.921 1261.88,1288.44 1263.84,1233.92 1265.8,803.995 1267.75,1116.75 1269.71,1341.4 1271.67,950.814 1273.63,984.099 1275.59,1228.07 1277.55,1095.51 1279.5,1071.61 1281.46,1080.97 1283.42,1026.35 1285.38,1227 1287.34,1136.74 1289.3,856.843 1291.26,1195.05 1293.21,1323.64 1295.17,854.046 1297.13,1003.72 1299.09,1369.93 1301.05,1034.6 1303.01,922.094 1304.97,1214.72 1306.92,1139.48 1308.88,1053.6 1310.84,1099.98 1312.8,1025.57 1314.76,1179.81 1316.72,1204.56 1318.67,881.981 1320.63,1090.94 1322.59,1373.69 1324.55,943.909 1326.51,903.23 1328.47,1353.01 1330.43,1136.82 1332.38,883.374 1334.34,1173.21 1336.3,1189.01 1338.26,1045.34 1340.22,1103.64 1342.18,1042.31 1344.14,1129.4 1346.09,1245.01 1348.05,939.87 1350.01,995.052 1351.97,1377.15 1353.93,1058.3 1355.89,833.593 1357.84,1292.01 1359.8,1240.39 1361.76,878.962 1363.72,1108.37 1365.68,1232.66 1367.64,1054.06 1369.6,1092.3 1371.55,1068.53 1373.51,1087.42 1375.47,1254.91 1377.43,1017.55 1379.39,923.795 1381.35,1335.68 1383.3,1177.64 1385.26,807.757 1387.22,1196.56 1389.18,1326.81 1391.14,913.87 1393.1,1030.86 1395.06,1258.7 1397.01,1082.73 1398.97,1071.11 1400.93,1094.48 1402.89,1062.02 1404.85,1237.56 1406.81,1099.47 1408.77,888.044 1410.72,1258.95 1412.68,1281.75 1414.64,830.799 1416.6,1082.91 1418.56,1379.84 1420.52,985.614 1422.47,955.342 1424.43,1257.97 1426.39,1128.93 1428.35,1048.72 1430.31,1111.32 1432.27,1056.27 1434.23,1201.47 1436.18,1170.76 1438.14,891.378 1440.1,1162.5 1442.06,1353.64 1444.02,898.953 1445.98,971.069 1447.93,1388.74 1449.89,1084.24 1451.85,897.617 1453.81,1226.36 1455.77,1184.97 1457.73,1034.96 1459.69,1113.46 1461.64,1067.81 1463.6,1158.1 1465.56,1220.19 1467.52,929.837 1469.48,1064.63 1471.44,1382.6 1473.4,1000.35 1475.35,880.967 1477.31,1350.6 1479.27,1193.92 1481.23,871.326 1483.19,1166.19 1485.15,1239.43 1487.1,1038.28 1489.06,1100.01 1491.02,1089.85 1492.98,1118.98 1494.94,1242.17 1496.9,993.203 1498.86,982.745 1500.81,1366.04 1502.77,1117.29 1504.73,828.763 1506.69,1271.1 1508.65,1295.76 1510.61,884.939 1512.56,1086.29 1514.52,1279.5 1516.48,1063.3 1518.44,1075.14 1520.4,1113.16 1522.36,1093.05 1524.32,1237.43 1526.27,1067.48 1528.23,930.117 1530.19,1309.64 1532.15,1229.68 1534.11,823.771 1536.07,1163.65 1538.03,1371.44 1539.98,939.67 1541.94,1000.64 1543.9,1294 1545.86,1109.3 1547.82,1047.05 1549.78,1128.63 1551.73,1084.76 1553.69,1212.31 1555.65,1137.98 1557.61,913.569 1559.57,1226.02 1561.53,1318.8 1563.49,866.729 1565.44,1047.01 1567.4,1406.76 1569.36,1028.8 1571.32,925.797 1573.28,1276.1 1575.24,1169.92 1577.2,1025.93 1579.15,1129.76 1581.11,1093.26 1583.07,1176.84 1585.03,1192.43 1586.99,932.574 1588.95,1131.95 1590.9,1370.77 1592.86,949.738 1594.82,941.739 1596.78,1394.52 1598.74,1138.61 1600.7,877.547 1602.66,1225.24 1604.61,1234.12 1606.57,1021.4 1608.53,1114.44 1610.49,1112.97 1612.45,1142.11 1614.41,1223.31 1616.36,979.888 1618.32,1045 1620.28,1379 1622.24,1057.86 1624.2,866.417 1626.16,1336.1 1628.12,1250.74 1630.07,867.651 1632.03,1147.85 1633.99,1288.45 1635.95,1039.87 1637.91,1085.73 1639.87,1135.23 1641.83,1117.54 1643.78,1229.05 1645.74,1043.52 1647.7,980.052 1649.66,1345.13 1651.62,1172.05 1653.58,834.109 1655.53,1241.34 1657.49,1345.62 1659.45,901.187 1661.41,1056.52 1663.37,1319.89 1665.33,1082.59 1667.29,1051.22 1669.24,1150.73 1671.2,1108.7 1673.16,1213.84 1675.12,1109.57 1677.08,946.649 1679.04,1278.34 1680.99,1272.83 1682.95,849.987 1684.91,1126.77 1686.87,1406.21 1688.83,975.177 1690.79,967.777 1692.75,1318.92 1694.7,1144.9 1696.66,1021.31 1698.62,1152.1 1700.58,1116.11 1702.54,1186.16 1704.5,1165.3 1706.46,947.45 1708.41,1193.21 1710.37,1343.94 1712.33,910.463 1714.29,1012.58 1716.25,1421.3 1718.21,1078.79 1720.16,898.972 1722.12,1281.85 1724.08,1216.69 1726.04,1006.69 1728,1135.95 1729.96,1135.34 1731.92,1156.44 1733.87,1201.74 1735.83,978.246 1737.79,1106.61 1739.75,1375.29 1741.71,1004.03 1743.67,918.801 1745.62,1387.81 1747.58,1195.17 1749.54,864.773 1751.5,1212.19 1753.46,1284.29 1755.42,1015.61 1757.38,1104.06 1759.33,1158.35 1761.29,1134.32 1763.25,1215.33 1765.21,1029.36 1767.17,1034.29 1769.13,1364.55 1771.09,1113.63 1773.04,861.583 1775,1311.45 1776.96,1304.44 1778.92,874.08 1780.88,1120.39 1782.84,1333.27 1784.79,1051.56 1786.75,1063.2 1788.71,1175.7 1790.67,1126.27 1792.63,1208.26 1794.59,1088.15 1796.55,987.86 1798.5,1317.24 1800.46,1219.98 1802.42,850.212 1804.38,1205.71 1806.34,1387.48 1808.3,927.982 1810.25,1022.19 1812.21,1351.54 1814.17,1111.93 1816.13,1023.75 1818.09,1179.13 1820.05,1134.06 1822.01,1187.44 1823.96,1141.91 1825.92,972.79 1827.88,1245.19 1829.84,1305.34 1831.8,885.51 1833.76,1089.35 1835.72,1429.6 1837.67,1019.22 1839.63,935.714 1841.59,1332.2 1843.55,1188.11 1845.51,997.318 1847.47,1163.9 1849.42,1154.4 1851.38,1162.49 1853.34,1180.71 1855.3,987.798 1857.26,1163.86 1859.22,1356.73 1861.18,959.886 1863.13,982.879 1865.09,1423.32 1867.05,1133.29 1869.01,877.984 1870.97,1275.39 1872.93,1266.79 1874.89,993.946 1876.84,1130.35 1878.8,1179.91 1880.76,1143.06 1882.72,1199.39 1884.68,1025.68 1886.64,1089.1 1888.59,1368.2 1890.55,1059.02 1892.51,904.664 1894.47,1369.92 1896.43,1251.05 1898.39,861.462 1900.35,1188.8 1902.3,1332.6 1904.26,1019.5 1906.22,1084.13 1908.18,1201.06 1910.14,1136.38 1912.1,1198.29 1914.05,1075.37 1916.01,1033.91 1917.97,1341.55 1919.93,1164.79 1921.89,867.576 1923.85,1279.17 1925.81,1352.24 1927.76,891.419 1929.72,1086.52 1931.68,1371.25 1933.64,1073.85 1935.6,1035.29 1937.56,1208.73 1939.52,1145.37 1941.47,1182.8 1943.43,1124.68 1945.39,1006.09 1947.35,1285.51 1949.31,1258.85 1951.27,876.699 1953.22,1167.47 1955.18,1419.32 1957.14,964.649 1959.1,986.613 1961.06,1372.64 1963.02,1150.35 1964.98,996.089 1966.93,1196.77 1968.89,1167.9 1970.85,1161.63 1972.81,1163.14 1974.77,1007.07 1976.73,1213.55 1978.68,1326.13 1980.64,928.613 1982.6,1054.75 1984.56,1440.82 1986.52,1069.83 1988.48,907.717 1990.44,1333.34 1992.39,1236.75 1994.35,978.236 1996.31,1163.83 1998.27,1197.31 2000.23,1144.34 2002.19,1184.28 2004.15,1032.1 2006.1,1140.89 2008.06,1357.52 2010.02,1012.34 2011.98,960.663 2013.94,1413.48 2015.9,1189.51 2017.85,865.381 2019.81,1257.67 2021.77,1317.35 2023.73,990.025 2025.69,1114.17 2027.65,1224.06 2029.61,1138.8 2031.56,1186.87 2033.52,1071.93 2035.48,1081.29 2037.44,1351.26 2039.4,1111.72 2041.36,900.949 2043.31,1342.86 2045.27,1303.3 2047.23,868.943 2049.19,1157.3 2051.15,1376.14 2053.11,1034.09 2055.07,1057.11 2057.02,1238.27 2058.98,1149.05 2060.94,1174.84 2062.9,1115.19 2064.86,1044.33 2066.82,1312.82 2068.78,1208.73 2070.73,884.575 2072.69,1242.23 2074.65,1391.69 2076.61,919.534 2078.57,1049.33 2080.53,1400.09 2082.48,1106.3 2084.44,1005.18 2086.4,1232.25 2088.36,1174.14 2090.32,1155.95 2092.28,1151.25 2094.24,1033.78 2096.19,1253.24 2098.15,1287.01 2100.11,912.312 2102.07,1129.95 2104.03,1439.75 2105.99,1009.66 2107.95,953.119 2109.9,1382.08 2111.86,1196.08 2113.82,971.513 2115.78,1202.82 2117.74,1208.25 2119.7,1139.6 2121.65,1172.69 2123.61,1047.29 2125.57,1186.55 2127.53,1334.91 2129.49,976.911 2131.45,1025.97 2133.41,1439.88 2135.36,1124.46 2137.32,886.658 2139.28,1322.67 2141.24,1288.13 2143.2,966.76 2145.16,1152.49 2147.11,1242.01 2149.07,1134.23 2151.03,1176.88 2152.99,1077.47 2154.95,1126.61 2156.91,1347.46 2158.87,1064.85 2160.82,948.022 2162.78,1393.21 2164.74,1244.44 2166.7,862.998 2168.66,1230.4 2170.62,1365.37 2172.58,996.499 2174.53,1089.39 2176.49,1264.81 2178.45,1144.98 2180.41,1166.37 2182.37,1114.04 2184.33,1084.22 2186.28,1326.86 2188.24,1159.26 2190.2,908.4 2192.16,1309.22 2194.12,1349.13 2196.08,887.654 2198.04,1120.49 2199.99,1412.26 2201.95,1059.54 2203.91,1025.91 2205.87,1267.49 2207.83,1172.19 2209.79,1148.01 2211.74,1146.48 2213.7,1065.12 2215.66,1281.49 2217.62,1243.32 2219.58,911.853 2221.54,1203.87 2223.5,1420.87 2225.45,957.398 2227.41,1012.11 2229.37,1418.13 2231.33,1147.64 2233.29,976.177 2235.25,1244.83 2237.21,1211.04 2239.16,1130.97 2241.12,1166.69 2243.08,1069.13 2245.04,1223.7 2247,1303.55 2248.96,955.036 2250.91,1096.36 2252.87,1448.15 2254.83,1060.76 2256.79,924.815 2258.75,1379.54 2260.71,1246.69 2262.67,953.004 2264.62,1197.25 2266.58,1252.52 2268.54,1124.19 2270.5,1170.82 2272.46,1090.74 2274.42,1166.89 2276.37,1332.23 2278.33,1027.56 2280.29,1005.53 2282.25,1427.64 2284.21,1180.14 2286.17,874.83 2288.13,1301.32 2290.08,1339.25 2292.04,964.948 2294,1131.28 "/>
<polyline clip-path="url(#clip453)" style="stroke:#e26f46; stroke-linecap:round; stroke-linejoin:round; stroke-width:4; stroke-opacity:1; fill:none" points="335.514,171.488 337.473,192.236 339.431,211.909 341.39,197.216 343.348,187.872 345.307,198.414 347.265,200.361 349.224,199.592 351.182,207.981 353.141,201.112 355.099,185.549 357.058,199.403 359.016,219.535 360.975,203.042 362.933,184.068 364.892,199.757 366.85,213.464 368.809,202.84 370.767,198.358 372.725,202.036 374.684,196.334 376.642,200.574 378.601,215.625 380.559,205.059 382.518,184.502 384.476,198.861 386.435,220.202 388.393,205.862 390.352,189.198 392.31,200.34 394.269,208.291 396.227,203.024 398.186,206.104 400.144,204.66 402.103,191.284 404.061,198.914 406.02,219.602 407.978,208.029 409.937,185.134 411.895,197.864 413.854,217.451 415.812,206.724 417.771,195.458 419.729,201.867 421.688,202.014 423.646,201.268 425.605,212.535 427.563,207.865 429.522,187.884 431.48,196.653 433.439,220.609 435.397,210.099 437.356,188.119 439.314,197.894 441.273,212.527 443.231,205.751 445.19,202.232 447.148,204.734 449.106,196.198 451.065,198.303 453.023,216.978 454.982,211.139 456.94,186.893 458.899,194.907 460.857,218.859 462.816,210.692 464.774,192.995 466.733,199.538 468.691,206.602 470.65,203.04 472.608,208.487 474.567,208.598 476.525,191.935 478.484,195.011 480.442,218.914 482.401,213.666 484.359,188.401 486.318,194.531 488.276,214.976 490.235,209.379 492.193,198.858 494.152,202.864 496.11,200.858 498.069,199.094 500.027,213.237 501.986,212.713 503.944,189.891 505.903,192.356 507.861,218.305 509.82,214.633 511.778,191.965 513.737,196.06 515.695,209.895 517.654,206.156 519.612,204.612 521.571,207.464 523.529,196.333 525.487,194.734 527.446,215.85 529.404,216.124 531.363,190.227 533.321,191.229 535.28,215.576 537.238,213.523 539.197,196.735 541.155,199.581 543.114,204.707 545.072,201.457 547.031,209.268 548.989,212.523 550.948,193.729 552.906,190.97 554.865,216.145 556.823,217.933 558.782,192.591 560.74,192.233 562.699,211.543 564.657,210.229 566.616,201.69 568.574,204.689 570.533,200.418 572.491,196.116 574.45,212.127 576.408,217.031 578.367,193.273 580.325,188.771 582.284,214.434 584.242,217.5 586.201,196.244 588.159,195.521 590.118,207.206 592.076,205.143 594.035,205.853 595.993,210.572 597.952,197.737 599.91,191.19 601.868,212.939 603.827,219.978 605.785,194.717 607.744,188.837 609.702,211.423 611.661,214.624 613.619,200.234 615.578,200.756 617.536,203.521 619.495,199.08 621.453,208.52 623.412,216.159 625.37,196.952 627.329,187.73 629.287,211.929 631.246,220.614 633.204,197.402 635.163,191.441 637.121,208.025 639.08,209.611 641.038,203.633 642.997,207.142 644.955,201.198 646.914,193.124 648.872,209.402 650.831,220.361 652.789,197.869 654.748,186.562 656.706,209.713 658.665,218.608 660.623,200.457 662.582,196.331 664.54,205.151 666.499,203.225 668.457,205.752 670.416,213.596 672.374,200.534 674.332,188.411 676.291,208.666 678.249,222.298 680.208,199.907 682.166,188.083 684.125,207.143 686.083,214.15 688.042,203 690,202.784 691.959,203.479 693.917,196.557 695.876,206.286 697.834,218.956 699.793,201.383 701.751,185.876 703.71,206.879 705.668,221.502 707.627,202.243 709.585,192.176 711.544,205.078 713.502,207.925 715.461,204.365 717.419,209.726 719.378,203.315 721.336,190.787 723.295,205.385 725.253,222.234 727.212,203.192 729.17,186.062 731.129,204.845 733.087,218.026 735.046,204.034 737.004,198.209 738.963,204.177 740.921,200.982 742.88,204.255 744.838,215.962 746.797,204.515 748.755,186.957 750.713,203.587 752.672,222.82 754.63,205.172 756.589,188.994 758.547,203.398 760.506,212.437 762.464,204.635 764.423,205.168 766.381,204.732 768.34,194.523 770.298,202.814 772.257,220.416 774.215,206.542 776.174,185.741 778.132,201.683 780.091,220.613 782.049,206.495 784.008,194.171 785.966,203.182 787.925,205.711 789.883,203.754 791.842,211.859 793.8,206.598 795.759,189.656 797.717,200.584 799.676,222.35 801.634,208.605 803.593,187.315 805.551,200.504 807.51,216.049 809.468,206.513 811.427,200.667 813.385,204.486 815.344,199.028 817.302,201.544 819.261,217.151 821.219,209.226 823.178,187.174 825.136,198.367 827.094,221.52 829.053,209.862 831.011,191.321 832.97,200.706 834.928,209.994 836.887,204.937 838.845,207.328 840.804,207.16 842.762,193.531 844.721,198.561 846.679,220.209 848.638,211.802 850.596,187.39 852.555,197.022 854.513,218.21 856.472,209.644 858.43,196.951 860.389,202.591 862.347,203.573 864.306,201.914 866.264,213.009 868.223,210.636 870.181,190.094 872.14,195.64 874.098,220.654 876.057,213.443 878.015,190.092 879.974,197.243 881.932,213.166 883.891,207.629 885.849,203.121 887.808,206.016 889.766,197.924 891.725,198.021 893.683,216.808 895.642,214.063 897.6,189.149 899.559,193.691 901.517,218.634 903.475,213.425 905.434,194.599 907.392,199.374 909.351,207.424 911.309,203.952 913.268,208.709 915.226,210.403 917.185,193.966 919.143,194.132 921.102,218.248 923.06,216.494 925.019,190.616 926.977,193.477 928.936,214.763 930.894,211.371 932.853,199.924 934.811,203.304 936.77,202.087 938.728,199.189 940.687,212.787 942.645,214.856 944.604,192.217 946.562,191.226 948.521,217.352 950.479,217.126 952.438,193.937 954.396,195.416 956.355,209.98 958.313,207.367 960.272,204.996 962.23,208.461 964.189,198.084 966.147,194.252 968.106,214.809 970.064,218.364 972.023,192.702 973.981,190.157 975.94,214.618 977.898,215.495 979.856,198.232 981.815,199.456 983.773,205.323 985.732,201.969 987.69,208.89 989.649,213.925 991.607,195.979 993.566,190.189 995.524,214.708 997.483,220.021 999.441,194.976 1001.4,191.441 1003.36,210.882 1005.32,211.605 1007.28,202.493 1009.23,205.068 1011.19,201.702 1013.15,196.103 1015.11,211.031 1017.07,218.615 1019.03,195.875 1020.98,187.954 1022.94,212.883 1024.9,219.252 1026.86,198.251 1028.82,195.126 1030.78,207.111 1032.74,205.959 1034.69,205.829 1036.65,211.326 1038.61,199.7 1040.57,190.875 1042.53,211.292 1044.49,221.527 1046.45,197.409 1048.4,188.188 1050.36,210.082 1052.32,215.951 1054.28,201.593 1056.24,200.752 1058.2,204.178 1060.15,199.466 1062.11,207.66 1064.07,217.105 1066.03,199.459 1067.99,187.34 1069.95,210.004 1071.91,221.955 1073.86,199.87 1075.82,191.06 1077.78,207.207 1079.74,210.528 1081.7,204.151 1083.66,207.43 1085.61,202.659 1087.57,193.267 1089.53,207.831 1091.49,221.308 1093.45,200.672 1095.41,186.265 1097.37,207.852 1099.32,219.661 1101.28,202.384 1103.24,196.219 1105.2,205.088 1107.16,203.842 1109.12,205.358 1111.08,214.016 1113.03,202.71 1114.99,188.496 1116.95,206.638 1118.91,223.102 1120.87,202.674 1122.83,187.964 1124.78,205.686 1126.74,214.933 1128.7,204.137 1130.66,202.845 1132.62,204.285 1134.58,197.031 1136.54,205.057 1138.49,219.345 1140.45,204.048 1142.41,186.044 1144.37,204.728 1146.33,222.103 1148.29,204.631 1150.24,192.217 1152.2,204.309 1154.16,208.541 1156.12,204.58 1158.08,209.816 1160.04,204.951 1162,191.283 1163.95,203.529 1165.91,222.473 1167.87,206.028 1169.83,186.37 1171.79,202.931 1173.75,218.456 1175.71,205.75 1177.66,198.311 1179.62,204.263 1181.58,201.584 1183.54,203.562 1185.5,215.933 1187.46,206.802 1189.41,187.587 1191.37,201.419 1193.33,222.871 1195.29,207.825 1197.25,189.401 1199.21,202.037 1201.17,212.813 1203.12,205.487 1205.08,205.181 1207.04,205.697 1209,195.262 1210.96,201.37 1212.92,220.166 1214.87,209.192 1216.83,186.537 1218.79,199.557 1220.75,220.537 1222.71,208.641 1224.67,194.555 1226.63,202.593 1228.58,206.195 1230.54,203.697 1232.5,211.633 1234.46,208.318 1236.42,190.635 1238.38,198.662 1240.34,221.865 1242.29,211.273 1244.25,188.211 1246.21,198.757 1248.17,215.984 1250.13,207.92 1252.09,200.859 1254.04,204.751 1256,199.781 1257.96,200.673 1259.92,216.589 1261.88,211.458 1263.84,188.406 1265.8,196.302 1267.75,220.879 1269.71,212.217 1271.67,192.166 1273.63,199.591 1275.59,210.129 1277.55,205.499 1279.5,207.162 1281.46,208.214 1283.42,194.658 1285.38,197.097 1287.34,219.302 1289.3,214.232 1291.26,188.788 1293.21,195.145 1295.17,217.583 1297.13,211.423 1299.09,197.544 1301.05,202.237 1303.01,204.091 1304.97,201.672 1306.92,212.372 1308.88,212.291 1310.84,191.609 1312.8,193.88 1314.76,219.502 1316.72,215.748 1318.67,191.477 1320.63,195.826 1322.59,212.773 1324.55,208.689 1326.51,203.264 1328.47,206.414 1330.43,198.953 1332.38,197.138 1334.34,215.685 1336.3,216.044 1338.26,190.953 1340.22,191.949 1342.18,217.428 1344.14,215.337 1346.09,195.734 1348.05,198.579 1350.01,207.488 1351.97,204.281 1353.93,208.259 1355.89,211.417 1357.84,195.536 1359.8,192.86 1361.76,216.737 1363.72,218.508 1365.68,192.508 1367.64,192.021 1369.6,213.76 1371.55,212.721 1373.51,200.57 1375.47,203.163 1377.43,202.772 1379.39,198.901 1381.35,211.701 1383.3,216.262 1385.26,194.236 1387.22,189.844 1389.18,215.662 1391.14,218.914 1393.1,195.651 1395.06,194.42 1397.01,209.443 1398.97,208.11 1400.93,204.965 1402.89,208.884 1404.85,199.453 1406.81,193.548 1408.77,213.17 1410.72,219.903 1412.68,194.964 1414.64,188.913 1416.6,213.03 1418.56,216.884 1420.52,199.483 1422.47,198.98 1424.43,205.465 1426.39,202.177 1428.35,208.099 1430.31,214.734 1432.27,197.967 1434.23,189.309 1436.18,212.721 1438.14,221.461 1440.1,197.192 1442.06,190.506 1444.02,209.699 1445.98,212.533 1447.93,203.046 1449.89,205.052 1451.85,202.634 1453.81,195.936 1455.77,209.526 1457.73,219.592 1459.69,198.288 1461.64,187.117 1463.6,210.842 1465.56,220.432 1467.52,200.103 1469.48,194.564 1471.44,206.598 1473.4,206.475 1475.35,205.546 1477.31,211.628 1479.27,201.4 1481.23,190.535 1483.19,209.256 1485.15,222.471 1487.1,199.954 1489.06,187.544 1491.02,208.321 1492.98,216.811 1494.94,202.794 1496.9,200.521 1498.86,204.501 1500.81,199.702 1502.77,206.538 1504.73,217.542 1506.69,201.764 1508.65,187.012 1510.61,207.727 1512.56,222.73 1514.52,202.205 1516.48,190.665 1518.44,206.033 1520.4,211.11 1522.36,204.507 1524.32,207.407 1526.27,203.851 1528.23,193.393 1530.19,206.012 1532.15,221.71 1534.11,203.304 1536.07,186.074 1538.03,205.679 1539.98,220.221 1541.94,204.184 1543.9,196.028 1545.86,204.726 1547.82,204.267 1549.78,204.806 1551.73,214.04 1553.69,204.657 1555.65,188.671 1557.61,204.385 1559.57,223.361 1561.53,205.289 1563.49,187.943 1565.44,203.959 1567.4,215.332 1569.36,205.155 1571.32,202.738 1573.28,204.827 1575.24,197.455 1577.2,203.685 1579.15,219.271 1581.11,206.504 1583.07,186.365 1585.03,202.382 1586.99,222.198 1588.95,206.879 1590.9,192.304 1592.86,203.297 1594.82,208.905 1596.78,204.692 1598.74,209.638 1600.7,206.341 1602.66,191.845 1604.61,201.559 1606.57,222.214 1608.53,208.667 1610.49,186.844 1612.45,200.846 1614.41,218.461 1616.36,207.341 1618.32,198.372 1620.28,204.119 1622.24,202.07 1624.2,202.796 1626.16,215.547 1628.12,208.846 1630.07,188.367 1632.03,199.164 1633.99,222.433 1635.95,210.292 1637.91,189.943 1639.87,200.518 1641.83,212.875 1643.78,206.247 1645.74,205.051 1647.7,206.425 1649.66,196.012 1651.62,199.892 1653.58,219.499 1655.53,211.594 1657.49,187.522 1659.45,197.368 1661.41,220.019 1663.37,210.623 1665.33,195.004 1667.29,201.838 1669.24,206.492 1671.2,203.59 1673.16,211.167 1675.12,209.782 1677.08,191.722 1679.04,196.746 1680.99,220.936 1682.95,213.697 1684.91,189.288 1686.87,196.95 1688.83,215.562 1690.79,209.201 1692.75,201.024 1694.7,204.821 1696.66,200.469 1698.62,199.809 1700.58,215.708 1702.54,213.41 1704.5,189.806 1706.46,194.27 1708.41,219.814 1710.37,214.345 1712.33,193.144 1714.29,198.396 1716.25,210.012 1718.21,205.995 1720.16,206.871 1722.12,209.03 1724.08,195.825 1726.04,195.698 1728,218.031 1729.96,216.365 1731.92,190.37 1733.87,193.312 1735.83,216.587 1737.79,213.018 1739.75,198.196 1741.71,201.76 1743.67,204.47 1745.62,201.436 1747.58,211.526 1749.54,213.657 1751.5,193.235 1753.46,192.232 1755.42,217.975 1757.38,217.761 1759.33,193.022 1761.29,194.432 1763.25,212.093 1765.21,209.63 1767.17,203.38 1769.13,206.625 1771.09,199.944 1773.04,196.341 1775,214.294 1776.96,217.698 1778.92,192.904 1780.88,190.341 1782.84,215.877 1784.79,216.99 1786.75,196.979 1788.71,197.755 1790.67,207.355 1792.63,204.577 1794.59,207.702 1796.55,212.172 1798.5,197.144 1800.46,191.74 1802.42,214.932 1804.38,220.177 1806.34,194.547 1808.3,190.687 1810.25,212.466 1812.21,213.877 1814.17,201.258 1816.13,202.916 1818.09,203.349 1820.05,198.675 1822.01,210.449 1823.96,217.343 1825.92,196.339 1827.88,188.657 1829.84,213.682 1831.8,220.373 1833.76,197.483 1835.72,193.499 1837.67,208.683 1839.63,208.75 1841.59,204.911 1843.55,209.112 1845.51,200.785 1847.47,192.998 1849.42,211.331 1851.38,221.075 1853.34,197.325 1855.3,187.873 1857.26,211.183 1859.22,217.997 1861.18,200.809 1863.13,198.498 1865.09,205.452 1867.05,202.39 1869.01,207.232 1870.97,215.258 1872.93,199.964 1874.89,188.651 1876.84,210.525 1878.8,222.525 1880.76,199.497 1882.72,189.741 1884.68,208.303 1886.64,213.274 1888.59,203.626 1890.55,204.93 1892.51,203.468 1894.47,195.885 1896.43,207.914 1898.39,220.214 1900.35,200.73 1902.3,186.535 1904.26,208.606 1906.22,221.269 1908.18,202.018 1910.14,194.102 1912.1,205.916 1914.05,206.915 1916.01,205.253 1917.97,211.719 1919.93,203.039 1921.89,190.403 1923.85,207.102 1925.81,223.023 1927.76,202.528 1929.72,187.146 1931.68,206.39 1933.64,217.4 1935.6,204.032 1937.56,200.289 1939.52,204.693 1941.47,199.983 1943.43,205.385 1945.39,217.674 1947.35,204.025 1949.31,186.952 1951.27,205.337 1953.22,223.117 1955.18,204.56 1957.14,190.462 1959.1,204.717 1961.06,211.526 1963.02,204.882 1964.98,207.269 1966.93,204.932 1968.89,193.677 1970.85,204.158 1972.81,221.743 1974.77,205.894 1976.73,186.167 1978.68,203.408 1980.64,220.445 1982.6,205.994 1984.56,195.939 1986.52,204.236 1988.48,204.647 1990.44,204.271 1992.39,213.841 1994.35,206.497 1996.31,189.086 1998.27,202.106 2000.23,223.226 2002.19,207.856 2004.15,188.178 2006.1,202.144 2008.06,215.481 2010.02,206.183 2011.98,202.621 2013.94,205.243 2015.9,197.955 2017.85,202.341 2019.81,218.885 2021.77,208.848 2023.73,186.97 2025.69,200.023 2027.65,221.921 2029.61,209.078 2031.56,192.578 2033.52,202.198 2035.48,209.131 2037.44,204.831 2039.4,209.335 2041.36,207.591 2043.31,192.586 2045.27,199.637 2047.23,221.593 2049.19,211.183 2051.15,187.602 2053.11,198.754 2055.07,218.157 2057.02,208.898 2058.98,198.522 2060.94,203.868 2062.9,202.541 2064.86,202.086 2066.82,214.935 2068.78,210.726 2070.73,189.394 2072.69,196.98 2074.65,221.625 2076.61,212.636 2078.57,190.725 2080.53,198.98 2082.48,212.723 2084.44,207.004 2086.4,204.899 2088.36,207.013 2090.32,196.855 2092.28,198.51 2094.24,218.533 2096.19,213.81 2098.15,188.779 2100.11,195.259 2102.07,219.167 2104.03,212.5 2105.99,195.616 2107.95,201.031 2109.9,206.684 2111.86,203.531 2113.82,210.573 2115.78,211.06 2117.74,192.986 2119.7,194.963 2121.65,219.678 2123.61,215.922 2125.57,190.62 2127.53,195.212 2129.49,214.876 2131.45,210.419 2133.41,201.256 2135.36,204.787 2137.32,201.16 2139.28,199.053 2141.24,214.617 2143.2,215.132 2145.16,191.43 2147.11,192.397 2149.07,218.427 2151.03,216.287 2152.99,194.326 2154.95,197.232 2156.91,209.722 2158.87,206.492 2160.82,206.55 2162.78,209.676 2164.74,197.083 2166.7,194.466 2168.66,216.5 2170.62,218.24 2172.58,192.184 2174.53,191.634 2176.49,215.312 2178.45,214.468 2180.41,198.977 2182.37,201.249 2184.33,204.769 2186.28,201.28 2188.24,210.567 2190.2,214.788 2192.16,195.012 2194.12,190.795 2196.08,216.176 2198.04,219.514 2199.99,194.773 2201.95,193.16 2203.91,211.201 2205.87,210.496 2207.83,203.544 2209.79,206.72 2211.74,200.939 2213.7,195.704 2215.66,212.731 2217.62,219.064 2219.58,195.031 2221.54,188.961 2223.5,214.072 2225.45,218.413 2227.41,198.377 2229.37,196.988 2231.33,207.087 2233.29,204.891 2235.25,207.12 2237.21,212.722 2239.16,198.817 2241.12,190.851 2243.08,212.929 2245.04,221.532 2247,196.756 2248.96,189.563 2250.91,210.96 2252.87,214.869 2254.83,202.041 2256.79,202.636 2258.75,203.859 2260.71,198.568 2262.67,209.116 2264.62,218.142 2266.58,198.541 2268.54,187.744 2270.5,211.506 2272.46,221.53 2274.42,199.456 2276.37,192.732 2278.33,207.764 2280.29,209.321 2282.25,204.894 2284.21,209.202 2286.17,202.103 2288.13,192.659 2290.08,209.38 2292.04,221.912 2294,199.792 "/>
<polyline clip-path="url(#clip453)" style="stroke:#3da44d; stroke-linecap:round; stroke-linejoin:round; stroke-width:4; stroke-opacity:1; fill:none" points="335.514,171.488 337.473,172.206 339.431,172.686 341.39,172.097 343.348,172.051 345.307,172.289 347.265,172.171 349.224,172.482 351.182,172.5 353.141,171.799 355.099,172.079 357.058,172.846 359.016,172.321 360.975,171.823 362.933,172.324 364.892,172.428 366.85,172.279 368.809,172.435 370.767,172.068 372.725,171.941 374.684,172.707 376.642,172.583 378.601,171.75 380.559,172.123 382.518,172.673 384.476,172.29 386.435,172.181 388.393,172.261 390.352,172.04 392.31,172.442 394.269,172.703 396.227,171.913 398.186,171.868 400.144,172.724 402.103,172.51 404.061,171.95 406.02,172.223 407.978,172.304 409.937,172.272 411.895,172.581 413.854,172.178 415.812,171.772 417.771,172.543 419.729,172.759 421.688,171.925 423.646,171.988 425.605,172.52 427.563,172.338 429.522,172.313 431.48,172.325 433.439,171.917 435.397,172.282 437.356,172.832 439.314,172.124 441.273,171.747 443.231,172.518 445.19,172.587 447.148,172.114 449.106,172.233 451.065,172.187 453.023,172.159 454.982,172.667 456.94,172.379 458.899,171.699 460.857,172.304 462.816,172.817 464.774,172.143 466.733,171.973 468.691,172.366 470.65,172.277 472.608,172.397 474.567,172.478 476.525,171.883 478.484,172.057 480.442,172.841 482.401,172.372 484.359,171.757 486.318,172.31 488.276,172.544 490.235,172.241 492.193,172.335 494.152,172.149 496.11,171.983 498.069,172.64 500.027,172.61 501.986,171.758 503.944,172.068 505.903,172.745 507.861,172.324 509.82,172.063 511.778,172.281 513.737,172.148 515.695,172.38 517.654,172.657 519.612,171.973 521.571,171.842 523.529,172.719 525.487,172.576 527.446,171.881 529.404,172.172 531.363,172.422 533.321,172.273 535.28,172.472 537.238,172.225 539.197,171.82 541.155,172.491 543.114,172.789 545.072,171.932 547.031,171.911 548.989,172.584 550.948,172.408 552.906,172.201 554.865,172.304 556.823,172.023 558.782,172.25 560.74,172.786 562.699,172.171 564.657,171.713 566.616,172.507 568.574,172.675 570.533,172.061 572.491,172.146 574.45,172.29 576.408,172.198 578.367,172.567 580.325,172.399 582.284,171.741 584.242,172.259 586.201,172.856 588.159,172.163 590.118,171.876 592.076,172.405 594.035,172.379 595.993,172.309 597.952,172.424 599.91,171.973 601.868,172.046 603.827,172.804 605.785,172.418 607.744,171.713 609.702,172.279 611.661,172.649 613.619,172.22 615.578,172.223 617.536,172.221 619.495,172.048 621.453,172.561 623.412,172.615 625.37,171.79 627.329,172.018 629.287,172.791 631.246,172.37 633.204,171.956 635.163,172.283 637.121,172.266 639.08,172.327 641.038,172.587 642.997,172.041 644.955,171.839 646.914,172.691 648.872,172.634 650.831,171.836 652.789,172.11 654.748,172.528 656.706,172.293 658.665,172.353 660.623,172.259 662.582,171.893 664.54,172.434 666.499,172.793 668.457,171.959 670.416,171.845 672.374,172.624 674.332,172.487 676.291,172.1 678.249,172.265 680.208,172.139 682.166,172.233 684.125,172.715 686.083,172.22 688.042,171.706 690,172.479 691.959,172.75 693.917,172.03 695.876,172.052 697.834,172.38 699.793,172.256 701.751,172.46 703.71,172.401 705.668,171.808 707.627,172.217 709.585,172.867 711.544,172.196 713.502,171.793 715.461,172.423 717.419,172.485 719.378,172.233 721.336,172.351 723.295,172.07 725.253,172.056 727.212,172.743 729.17,172.458 731.129,171.698 733.087,172.237 735.046,172.738 737.004,172.218 738.963,172.107 740.921,172.279 742.88,172.133 744.838,172.478 746.797,172.597 748.755,171.844 750.713,171.978 752.672,172.809 754.63,172.423 756.589,171.865 758.547,172.266 760.506,172.388 762.464,172.289 764.423,172.495 766.381,172.109 768.34,171.862 770.298,172.643 772.257,172.677 774.215,171.818 776.174,172.044 778.132,172.618 780.091,172.33 782.049,172.231 784.008,172.277 785.966,171.987 787.925,172.379 789.883,172.77 791.842,172.002 793.8,171.796 795.759,172.639 797.717,172.566 799.676,172.016 801.634,172.209 803.593,172.256 805.551,172.234 807.51,172.622 809.468,172.262 811.427,171.727 813.385,172.438 815.344,172.805 817.302,172.022 819.261,171.959 821.219,172.453 823.178,172.33 825.136,172.351 827.094,172.383 829.053,171.896 831.011,172.183 832.97,172.85 834.928,172.238 836.887,171.731 838.845,172.421 840.804,172.59 842.762,172.175 844.721,172.261 846.679,172.166 848.638,172.088 850.596,172.664 852.555,172.485 854.513,171.711 856.472,172.19 858.43,172.804 860.389,172.234 862.347,171.994 864.306,172.319 866.264,172.234 868.223,172.397 870.181,172.554 872.14,171.914 874.098,171.954 876.057,172.8 878.015,172.477 879.974,171.796 881.932,172.233 883.891,172.506 885.849,172.268 887.808,172.386 889.766,172.174 891.725,171.91 893.683,172.582 895.642,172.701 897.6,171.825 899.559,171.98 901.517,172.686 903.475,172.38 905.434,172.113 907.392,172.277 909.351,172.098 911.309,172.331 913.268,172.72 915.226,172.056 917.185,171.77 919.143,172.631 921.102,172.642 923.06,171.954 925.019,172.139 926.977,172.369 928.936,172.255 930.894,172.514 932.853,172.295 934.811,171.776 936.77,172.39 938.728,172.837 940.687,172.034 942.645,171.873 944.604,172.506 946.562,172.416 948.521,172.248 950.479,172.344 952.438,171.997 954.396,172.164 956.355,172.805 958.313,172.284 960.272,171.695 962.23,172.401 964.189,172.686 966.147,172.136 968.106,172.161 970.064,172.255 972.023,172.142 973.981,172.571 975.94,172.494 977.898,171.751 979.856,172.144 981.815,172.845 983.773,172.265 985.732,171.891 987.69,172.341 989.649,172.346 991.607,172.325 993.566,172.489 995.524,171.995 997.483,171.95 999.441,172.765 1001.4,172.527 1003.36,171.753 1005.32,172.188 1007.28,172.612 1009.23,172.266 1011.19,172.268 1013.15,172.228 1015.11,171.982 1017.07,172.513 1019.03,172.702 1020.98,171.856 1022.94,171.924 1024.9,172.728 1026.86,172.441 1028.82,172.008 1030.78,172.259 1032.74,172.218 1034.69,172.296 1036.65,172.645 1038.61,172.114 1040.57,171.768 1042.53,172.602 1044.49,172.705 1046.45,171.916 1048.4,172.063 1050.36,172.469 1052.32,172.294 1054.28,172.397 1056.24,172.312 1058.2,171.85 1060.15,172.341 1062.11,172.841 1064.07,172.064 1066.03,171.8 1067.99,172.535 1069.95,172.508 1071.91,172.158 1073.86,172.287 1075.82,172.107 1077.78,172.162 1079.74,172.736 1081.7,172.326 1083.66,171.686 1085.61,172.367 1087.57,172.766 1089.53,172.118 1091.49,172.055 1093.45,172.331 1095.41,172.216 1097.37,172.473 1099.32,172.484 1101.28,171.814 1103.24,172.106 1105.2,172.858 1107.16,172.307 1109.12,171.805 1111.08,172.343 1113.03,172.461 1114.99,172.266 1116.95,172.404 1118.91,172.08 1120.87,171.97 1122.83,172.709 1124.78,172.565 1126.74,171.737 1128.7,172.136 1130.66,172.702 1132.62,172.282 1134.58,172.147 1136.54,172.267 1138.49,172.075 1140.45,172.443 1142.41,172.678 1144.37,171.905 1146.33,171.883 1148.29,172.744 1150.24,172.506 1152.2,171.919 1154.16,172.223 1156.12,172.34 1158.08,172.277 1160.04,172.549 1162,172.17 1163.95,171.794 1165.91,172.558 1167.87,172.752 1169.83,171.902 1171.79,171.985 1173.75,172.552 1175.71,172.349 1177.66,172.279 1179.62,172.312 1181.58,171.945 1183.54,172.298 1185.5,172.817 1187.46,172.106 1189.41,171.748 1191.37,172.543 1193.33,172.6 1195.29,172.085 1197.25,172.213 1199.21,172.216 1201.17,172.18 1203.12,172.646 1205.08,172.359 1207.04,171.707 1209,172.324 1210.96,172.825 1212.92,172.121 1214.87,171.952 1216.83,172.39 1218.79,172.305 1220.75,172.376 1222.71,172.451 1224.67,171.896 1226.63,172.079 1228.58,172.842 1230.54,172.353 1232.5,171.74 1234.46,172.327 1236.42,172.573 1238.38,172.225 1240.34,172.303 1242.29,172.162 1244.25,172.013 1246.21,172.636 1248.17,172.588 1250.13,171.749 1252.09,172.083 1254.04,172.768 1256,172.314 1257.96,172.031 1259.92,172.288 1261.88,172.184 1263.84,172.377 1265.8,172.628 1267.75,171.969 1269.71,171.861 1271.67,172.735 1273.63,172.568 1275.59,171.853 1277.55,172.173 1279.5,172.457 1281.46,172.277 1283.42,172.438 1285.38,172.218 1287.34,171.846 1289.3,172.503 1291.26,172.776 1293.21,171.912 1295.17,171.911 1297.13,172.613 1299.09,172.417 1301.05,172.167 1303.01,172.292 1304.97,172.054 1306.92,172.265 1308.88,172.766 1310.84,172.154 1312.8,171.719 1314.76,172.53 1316.72,172.684 1318.67,172.033 1320.63,172.128 1322.59,172.319 1324.55,172.219 1326.51,172.543 1328.47,172.378 1330.43,171.754 1332.38,172.279 1334.34,172.859 1336.3,172.141 1338.26,171.858 1340.22,172.429 1342.18,172.405 1344.14,172.286 1346.09,172.397 1348.05,171.99 1350.01,172.07 1351.97,172.799 1353.93,172.398 1355.89,171.702 1357.84,172.296 1359.8,172.674 1361.76,172.203 1363.72,172.191 1365.68,172.235 1367.64,172.079 1369.6,172.553 1371.55,172.59 1373.51,171.786 1375.47,172.035 1377.43,172.809 1379.39,172.358 1381.35,171.925 1383.3,172.291 1385.26,172.302 1387.22,172.322 1389.18,172.555 1391.14,172.039 1393.1,171.862 1395.06,172.702 1397.01,172.622 1398.97,171.813 1400.93,172.114 1402.89,172.562 1404.85,172.295 1406.81,172.317 1408.77,172.254 1410.72,171.923 1412.68,172.444 1414.64,172.776 1416.6,171.942 1418.56,171.85 1420.52,172.65 1422.47,172.493 1424.43,172.067 1426.39,172.254 1428.35,172.172 1430.31,172.247 1432.27,172.69 1434.23,172.204 1436.18,171.717 1438.14,172.499 1440.1,172.754 1442.06,172.004 1444.02,172.037 1445.98,172.41 1447.93,172.276 1449.89,172.432 1451.85,172.38 1453.81,171.826 1455.77,172.237 1457.73,172.865 1459.69,172.176 1461.64,171.78 1463.6,172.446 1465.56,172.509 1467.52,172.209 1469.48,172.324 1471.44,172.09 1473.4,172.082 1475.35,172.733 1477.31,172.436 1479.27,171.693 1481.23,172.255 1483.19,172.758 1485.15,172.201 1487.1,172.077 1489.06,172.295 1491.02,172.165 1492.98,172.467 1494.94,172.569 1496.9,171.845 1498.86,171.998 1500.81,172.822 1502.77,172.41 1504.73,171.838 1506.69,172.276 1508.65,172.423 1510.61,172.282 1512.56,172.461 1514.52,172.111 1516.48,171.888 1518.44,172.651 1520.4,172.662 1522.36,171.799 1524.32,172.05 1526.27,172.648 1528.23,172.33 1530.19,172.195 1532.15,172.274 1534.11,172.02 1536.07,172.386 1538.03,172.748 1539.98,171.988 1541.94,171.806 1543.9,172.662 1545.86,172.569 1547.82,171.985 1549.78,172.199 1551.73,172.291 1553.69,172.247 1555.65,172.593 1557.61,172.248 1559.57,171.744 1561.53,172.456 1563.49,172.804 1565.44,171.998 1567.4,171.947 1569.36,172.482 1571.32,172.349 1573.28,172.322 1575.24,172.362 1577.2,171.918 1579.15,172.204 1581.11,172.842 1583.07,172.218 1585.03,171.724 1586.99,172.443 1588.95,172.611 1590.9,172.151 1592.86,172.235 1594.82,172.188 1596.78,172.115 1598.74,172.649 1600.7,172.462 1602.66,171.711 1604.61,172.209 1606.57,172.82 1608.53,172.217 1610.49,171.966 1612.45,172.337 1614.41,172.266 1616.36,172.384 1618.32,172.525 1620.28,171.92 1622.24,171.976 1624.2,172.807 1626.16,172.462 1628.12,171.774 1630.07,172.244 1632.03,172.538 1633.99,172.26 1635.95,172.351 1637.91,172.178 1639.87,171.939 1641.83,172.585 1643.78,172.682 1645.74,171.811 1647.7,171.989 1649.66,172.713 1651.62,172.378 1653.58,172.079 1655.53,172.275 1657.49,172.133 1659.45,172.337 1661.41,172.693 1663.37,172.045 1665.33,171.784 1667.29,172.65 1669.24,172.64 1671.2,171.925 1673.16,172.132 1675.12,172.403 1677.08,172.266 1679.04,172.483 1680.99,172.281 1682.95,171.798 1684.91,172.407 1686.87,172.83 1688.83,172.012 1690.79,171.865 1692.75,172.534 1694.7,172.433 1696.66,172.218 1698.62,172.324 1700.58,172.023 1702.54,172.184 1704.5,172.791 1706.46,172.264 1708.41,171.693 1710.37,172.422 1712.33,172.702 1714.29,172.112 1716.25,172.136 1718.21,172.279 1720.16,172.169 1722.12,172.553 1724.08,172.47 1726.04,171.757 1728,172.165 1729.96,172.855 1731.92,172.247 1733.87,171.867 1735.83,172.359 1737.79,172.377 1739.75,172.309 1741.71,172.458 1743.67,172.004 1745.62,171.976 1747.58,172.768 1749.54,172.509 1751.5,171.736 1753.46,172.201 1755.42,172.642 1757.38,172.257 1759.33,172.233 1761.29,172.234 1763.25,172.014 1765.21,172.513 1767.17,172.679 1769.13,171.846 1771.09,171.937 1773.04,172.751 1775,172.437 1776.96,171.975 1778.92,172.258 1780.88,172.254 1782.84,172.3 1784.79,172.615 1786.75,172.105 1788.71,171.787 1790.67,172.619 1792.63,172.7 1794.59,171.89 1796.55,172.058 1798.5,172.502 1800.46,172.304 1802.42,172.364 1804.38,172.3 1806.34,171.876 1808.3,172.356 1810.25,172.829 1812.21,172.044 1814.17,171.798 1816.13,172.562 1818.09,172.522 1820.05,172.128 1822.01,172.267 1823.96,172.135 1825.92,172.183 1827.88,172.716 1829.84,172.306 1831.8,171.691 1833.76,172.388 1835.72,172.778 1837.67,172.095 1839.63,172.033 1841.59,172.356 1843.55,172.242 1845.51,172.452 1847.47,172.459 1849.42,171.825 1851.38,172.127 1853.34,172.862 1855.3,172.288 1857.26,171.785 1859.22,172.361 1861.18,172.49 1863.13,172.249 1865.09,172.372 1867.05,172.092 1869.01,171.997 1870.97,172.707 1872.93,172.545 1874.89,171.725 1876.84,172.151 1878.8,172.727 1880.76,172.272 1882.72,172.113 1884.68,172.275 1886.64,172.109 1888.59,172.44 1890.55,172.651 1892.51,171.9 1894.47,171.9 1896.43,172.763 1898.39,172.499 1900.35,171.89 1902.3,172.224 1904.26,172.376 1906.22,172.28 1908.18,172.516 1910.14,172.164 1912.1,171.817 1914.05,172.571 1916.01,172.742 1917.97,171.88 1919.93,171.983 1921.89,172.583 1923.85,172.358 1925.81,172.245 1927.76,172.3 1929.72,171.974 1931.68,172.312 1933.64,172.8 1935.6,172.088 1937.56,171.75 1939.52,172.567 1941.47,172.61 1943.43,172.056 1945.39,172.195 1947.35,172.247 1949.31,172.2 1951.27,172.623 1953.22,172.34 1955.18,171.717 1957.14,172.345 1959.1,172.831 1961.06,172.098 1963.02,171.933 1964.98,172.415 1966.93,172.331 1968.89,172.352 1970.85,172.425 1972.81,171.912 1974.77,172.102 1976.73,172.84 1978.68,172.334 1980.64,171.726 1982.6,172.346 1984.56,172.599 1986.52,172.207 1988.48,172.271 1990.44,172.177 1992.39,172.043 1994.35,172.63 1996.31,172.565 1998.27,171.743 2000.23,172.099 2002.19,172.789 2004.15,172.303 2006.1,171.999 2008.06,172.298 2010.02,172.219 2011.98,172.372 2013.94,172.598 2015.9,171.967 2017.85,171.881 2019.81,172.749 2021.77,172.558 2023.73,171.827 2025.69,172.176 2027.65,172.491 2029.61,172.277 2031.56,172.402 2033.52,172.214 2035.48,171.874 2037.44,172.513 2039.4,172.761 2041.36,171.893 2043.31,171.914 2045.27,172.642 2047.23,172.423 2049.19,172.133 2051.15,172.282 2053.11,172.087 2055.07,172.278 2057.02,172.744 2058.98,172.138 2060.94,171.727 2062.9,172.551 2064.86,172.69 2066.82,172.005 2068.78,172.112 2070.73,172.35 2072.69,172.238 2074.65,172.516 2076.61,172.359 2078.57,171.77 2080.53,172.299 2082.48,172.859 2084.44,172.12 2086.4,171.844 2088.36,172.453 2090.32,172.429 2092.28,172.261 2094.24,172.371 2096.19,172.01 2098.15,172.094 2100.11,172.792 2102.07,172.378 2104.03,171.694 2105.99,172.315 2107.95,172.697 2109.9,172.185 2111.86,172.161 2113.82,172.252 2115.78,172.11 2117.74,172.543 2119.7,172.565 2121.65,171.785 2123.61,172.053 2125.57,172.825 2127.53,172.345 2129.49,171.897 2131.45,172.302 2133.41,172.337 2135.36,172.315 2137.32,172.522 2139.28,172.041 2141.24,171.886 2143.2,172.711 2145.16,172.609 2147.11,171.791 2149.07,172.119 2151.03,172.594 2152.99,172.294 2154.95,172.281 2156.91,172.252 2158.87,171.954 2160.82,172.451 2162.78,172.756 2164.74,171.927 2166.7,171.857 2168.66,172.675 2170.62,172.496 2172.58,172.034 2174.53,172.245 2176.49,172.206 2178.45,172.259 2180.41,172.663 2182.37,172.189 2184.33,171.731 2186.28,172.519 2188.24,172.755 2190.2,171.978 2192.16,172.024 2194.12,172.441 2196.08,172.294 2198.04,172.403 2199.99,172.361 2201.95,171.847 2203.91,172.256 2205.87,172.859 2207.83,172.155 2209.79,171.771 2211.74,172.47 2213.7,172.53 2215.66,172.184 2217.62,172.298 2219.58,172.112 2221.54,172.107 2223.5,172.721 2225.45,172.415 2227.41,171.69 2229.37,172.275 2231.33,172.776 2233.29,172.182 2235.25,172.048 2237.21,172.313 2239.16,172.196 2241.12,172.453 2243.08,172.542 2245.04,171.848 2247,172.018 2248.96,172.833 2250.91,172.395 2252.87,171.814 2254.83,172.287 2256.79,172.456 2258.75,172.273 2260.71,172.427 2262.67,172.116 2264.62,171.915 2266.58,172.655 2268.54,172.645 2270.5,171.782 2272.46,172.059 2274.42,172.678 2276.37,172.327 2278.33,172.16 2280.29,172.273 2282.25,172.054 2284.21,172.391 2286.17,172.723 2288.13,171.976 2290.08,171.817 2292.04,172.684 2294,172.569 "/>
<path clip-path="url(#clip450)" d="M345.96 1441.34 L694.16 1441.34 L694.16 1233.98 L345.96 1233.98  Z" fill="#ffffff" fill-rule="evenodd" fill-opacity="1"/>
<polyline clip-path="url(#clip450)" style="stroke:#000000; stroke-linecap:round; stroke-linejoin:round; stroke-width:4; stroke-opacity:1; fill:none" points="345.96,1441.34 694.16,1441.34 694.16,1233.98 345.96,1233.98 345.96,1441.34 "/>
<polyline clip-path="url(#clip450)" style="stroke:#009af9; stroke-linecap:round; stroke-linejoin:round; stroke-width:4; stroke-opacity:1; fill:none" points="369.026,1285.82 507.426,1285.82 "/>
<path clip-path="url(#clip450)" d="M547.46 1291.04 L546.441 1285.69 Q545.4 1280.21 541.279 1280.21 Q538.178 1280.21 536.766 1282.75 Q534.983 1285.95 534.983 1290.16 Q534.983 1295.25 536.719 1297.68 Q538.479 1300.16 541.279 1300.16 Q544.381 1300.16 546.048 1295.23 L547.46 1291.04 M549.844 1283.96 L552.136 1277.17 L555.932 1277.17 L551.187 1291.22 L552.113 1296.29 Q552.321 1297.43 553.131 1298.38 Q554.08 1299.49 554.821 1299.49 L556.858 1299.49 L556.858 1303.1 L554.312 1303.1 Q552.136 1303.1 550.191 1301.15 Q549.242 1300.18 548.849 1298.15 Q547.784 1300.71 545.608 1302.73 Q544.59 1303.68 541.279 1303.68 Q535.84 1303.68 533.201 1300.16 Q530.493 1296.53 530.493 1290.16 Q530.493 1283.35 533.432 1280.16 Q536.696 1276.59 541.279 1276.59 Q548.479 1276.59 549.844 1283.96 Z" fill="#000000" fill-rule="evenodd" fill-opacity="1" /><path clip-path="url(#clip450)" d="M564.15 1281.57 L593.826 1281.57 L593.826 1285.46 L564.15 1285.46 L564.15 1281.57 M564.15 1291.02 L593.826 1291.02 L593.826 1294.95 L564.15 1294.95 L564.15 1291.02 Z" fill="#000000" fill-rule="evenodd" fill-opacity="1" /><path clip-path="url(#clip450)" d="M604.728 1299.16 L612.367 1299.16 L612.367 1272.8 L604.057 1274.47 L604.057 1270.21 L612.321 1268.54 L616.997 1268.54 L616.997 1299.16 L624.636 1299.16 L624.636 1303.1 L604.728 1303.1 L604.728 1299.16 Z" fill="#000000" fill-rule="evenodd" fill-opacity="1" /><path clip-path="url(#clip450)" d="M634.08 1297.22 L638.964 1297.22 L638.964 1303.1 L634.08 1303.1 L634.08 1297.22 Z" fill="#000000" fill-rule="evenodd" fill-opacity="1" /><path clip-path="url(#clip450)" d="M649.959 1299.16 L657.598 1299.16 L657.598 1272.8 L649.288 1274.47 L649.288 1270.21 L657.552 1268.54 L662.228 1268.54 L662.228 1299.16 L669.867 1299.16 L669.867 1303.1 L649.959 1303.1 L649.959 1299.16 Z" fill="#000000" fill-rule="evenodd" fill-opacity="1" /><polyline clip-path="url(#clip450)" style="stroke:#e26f46; stroke-linecap:round; stroke-linejoin:round; stroke-width:4; stroke-opacity:1; fill:none" points="369.026,1337.66 507.426,1337.66 "/>
<path clip-path="url(#clip450)" d="M547.46 1342.88 L546.441 1337.53 Q545.4 1332.05 541.279 1332.05 Q538.178 1332.05 536.766 1334.59 Q534.983 1337.79 534.983 1342 Q534.983 1347.09 536.719 1349.52 Q538.479 1352 541.279 1352 Q544.381 1352 546.048 1347.07 L547.46 1342.88 M549.844 1335.8 L552.136 1329.01 L555.932 1329.01 L551.187 1343.06 L552.113 1348.13 Q552.321 1349.27 553.131 1350.22 Q554.08 1351.33 554.821 1351.33 L556.858 1351.33 L556.858 1354.94 L554.312 1354.94 Q552.136 1354.94 550.191 1352.99 Q549.242 1352.02 548.849 1349.99 Q547.784 1352.55 545.608 1354.57 Q544.59 1355.52 541.279 1355.52 Q535.84 1355.52 533.201 1352 Q530.493 1348.37 530.493 1342 Q530.493 1335.19 533.432 1332 Q536.696 1328.43 541.279 1328.43 Q548.479 1328.43 549.844 1335.8 Z" fill="#000000" fill-rule="evenodd" fill-opacity="1" /><path clip-path="url(#clip450)" d="M564.15 1333.41 L593.826 1333.41 L593.826 1337.3 L564.15 1337.3 L564.15 1333.41 M564.15 1342.86 L593.826 1342.86 L593.826 1346.79 L564.15 1346.79 L564.15 1342.86 Z" fill="#000000" fill-rule="evenodd" fill-opacity="1" /><path clip-path="url(#clip450)" d="M604.728 1351 L612.367 1351 L612.367 1324.64 L604.057 1326.31 L604.057 1322.05 L612.321 1320.38 L616.997 1320.38 L616.997 1351 L624.636 1351 L624.636 1354.94 L604.728 1354.94 L604.728 1351 Z" fill="#000000" fill-rule="evenodd" fill-opacity="1" /><path clip-path="url(#clip450)" d="M634.08 1349.06 L638.964 1349.06 L638.964 1354.94 L634.08 1354.94 L634.08 1349.06 Z" fill="#000000" fill-rule="evenodd" fill-opacity="1" /><path clip-path="url(#clip450)" d="M649.196 1320.38 L667.552 1320.38 L667.552 1324.31 L653.478 1324.31 L653.478 1332.79 Q654.496 1332.44 655.515 1332.28 Q656.533 1332.09 657.552 1332.09 Q663.339 1332.09 666.719 1335.26 Q670.098 1338.43 670.098 1343.85 Q670.098 1349.43 666.626 1352.53 Q663.154 1355.61 656.834 1355.61 Q654.659 1355.61 652.39 1355.24 Q650.145 1354.87 647.737 1354.13 L647.737 1349.43 Q649.821 1350.56 652.043 1351.12 Q654.265 1351.68 656.742 1351.68 Q660.746 1351.68 663.084 1349.57 Q665.422 1347.46 665.422 1343.85 Q665.422 1340.24 663.084 1338.13 Q660.746 1336.03 656.742 1336.03 Q654.867 1336.03 652.992 1336.44 Q651.14 1336.86 649.196 1337.74 L649.196 1320.38 Z" fill="#000000" fill-rule="evenodd" fill-opacity="1" /><polyline clip-path="url(#clip450)" style="stroke:#3da44d; stroke-linecap:round; stroke-linejoin:round; stroke-width:4; stroke-opacity:1; fill:none" points="369.026,1389.5 507.426,1389.5 "/>
<path clip-path="url(#clip450)" d="M547.46 1394.72 L546.441 1389.37 Q545.4 1383.89 541.279 1383.89 Q538.178 1383.89 536.766 1386.43 Q534.983 1389.63 534.983 1393.84 Q534.983 1398.93 536.719 1401.36 Q538.479 1403.84 541.279 1403.84 Q544.381 1403.84 546.048 1398.91 L547.46 1394.72 M549.844 1387.64 L552.136 1380.85 L555.932 1380.85 L551.187 1394.9 L552.113 1399.97 Q552.321 1401.11 553.131 1402.06 Q554.08 1403.17 554.821 1403.17 L556.858 1403.17 L556.858 1406.78 L554.312 1406.78 Q552.136 1406.78 550.191 1404.83 Q549.242 1403.86 548.849 1401.83 Q547.784 1404.39 545.608 1406.41 Q544.59 1407.36 541.279 1407.36 Q535.84 1407.36 533.201 1403.84 Q530.493 1400.21 530.493 1393.84 Q530.493 1387.03 533.432 1383.84 Q536.696 1380.27 541.279 1380.27 Q548.479 1380.27 549.844 1387.64 Z" fill="#000000" fill-rule="evenodd" fill-opacity="1" /><path clip-path="url(#clip450)" d="M564.15 1385.25 L593.826 1385.25 L593.826 1389.14 L564.15 1389.14 L564.15 1385.25 M564.15 1394.7 L593.826 1394.7 L593.826 1398.63 L564.15 1398.63 L564.15 1394.7 Z" fill="#000000" fill-rule="evenodd" fill-opacity="1" /><path clip-path="url(#clip450)" d="M607.946 1402.84 L624.265 1402.84 L624.265 1406.78 L602.321 1406.78 L602.321 1402.84 Q604.983 1400.09 609.566 1395.46 Q614.173 1390.81 615.353 1389.46 Q617.599 1386.94 618.478 1385.21 Q619.381 1383.45 619.381 1381.76 Q619.381 1379 617.436 1377.27 Q615.515 1375.53 612.413 1375.53 Q610.214 1375.53 607.761 1376.29 Q605.33 1377.06 602.552 1378.61 L602.552 1373.89 Q605.376 1372.75 607.83 1372.17 Q610.284 1371.59 612.321 1371.59 Q617.691 1371.59 620.886 1374.28 Q624.08 1376.96 624.08 1381.46 Q624.08 1383.58 623.27 1385.51 Q622.483 1387.4 620.376 1390 Q619.798 1390.67 616.696 1393.89 Q613.594 1397.08 607.946 1402.84 Z" fill="#000000" fill-rule="evenodd" fill-opacity="1" /><path clip-path="url(#clip450)" d="M634.08 1400.9 L638.964 1400.9 L638.964 1406.78 L634.08 1406.78 L634.08 1400.9 Z" fill="#000000" fill-rule="evenodd" fill-opacity="1" /><path clip-path="url(#clip450)" d="M659.149 1375.3 Q655.538 1375.3 653.709 1378.86 Q651.904 1382.4 651.904 1389.53 Q651.904 1396.64 653.709 1400.21 Q655.538 1403.75 659.149 1403.75 Q662.783 1403.75 664.589 1400.21 Q666.418 1396.64 666.418 1389.53 Q666.418 1382.4 664.589 1378.86 Q662.783 1375.3 659.149 1375.3 M659.149 1371.59 Q664.959 1371.59 668.015 1376.2 Q671.094 1380.78 671.094 1389.53 Q671.094 1398.26 668.015 1402.87 Q664.959 1407.45 659.149 1407.45 Q653.339 1407.45 650.26 1402.87 Q647.205 1398.26 647.205 1389.53 Q647.205 1380.78 650.26 1376.2 Q653.339 1371.59 659.149 1371.59 Z" fill="#000000" fill-rule="evenodd" fill-opacity="1" /></svg>
