<?xml version="1.0" encoding="utf-8"?>
<svg xmlns="http://www.w3.org/2000/svg" xmlns:xlink="http://www.w3.org/1999/xlink" width="600" height="400" viewBox="0 0 2400 1600">
<defs>
  <clipPath id="clip560">
    <rect x="0" y="0" width="2400" height="1600"/>
  </clipPath>
</defs>
<path clip-path="url(#clip560)" d="M0 1600 L2400 1600 L2400 0 L0 0  Z" fill="#ffffff" fill-rule="evenodd" fill-opacity="1"/>
<defs>
  <clipPath id="clip561">
    <rect x="480" y="0" width="1681" height="1600"/>
  </clipPath>
</defs>
<path clip-path="url(#clip560)" d="M156.598 1486.45 L2352.76 1486.45 L2352.76 47.2441 L156.598 47.2441  Z" fill="#ffffff" fill-rule="evenodd" fill-opacity="1"/>
<defs>
  <clipPath id="clip562">
    <rect x="156" y="47" width="2197" height="1440"/>
  </clipPath>
</defs>
<polyline clip-path="url(#clip562)" style="stroke:#000000; stroke-linecap:round; stroke-linejoin:round; stroke-width:2; stroke-opacity:0.1; fill:none" points="218.754,1486.45 218.754,47.2441 "/>
<polyline clip-path="url(#clip562)" style="stroke:#000000; stroke-linecap:round; stroke-linejoin:round; stroke-width:2; stroke-opacity:0.1; fill:none" points="633.123,1486.45 633.123,47.2441 "/>
<polyline clip-path="url(#clip562)" style="stroke:#000000; stroke-linecap:round; stroke-linejoin:round; stroke-width:2; stroke-opacity:0.1; fill:none" points="1047.49,1486.45 1047.49,47.2441 "/>
<polyline clip-path="url(#clip562)" style="stroke:#000000; stroke-linecap:round; stroke-linejoin:round; stroke-width:2; stroke-opacity:0.1; fill:none" points="1461.86,1486.45 1461.86,47.2441 "/>
<polyline clip-path="url(#clip562)" style="stroke:#000000; stroke-linecap:round; stroke-linejoin:round; stroke-width:2; stroke-opacity:0.1; fill:none" points="1876.23,1486.45 1876.23,47.2441 "/>
<polyline clip-path="url(#clip562)" style="stroke:#000000; stroke-linecap:round; stroke-linejoin:round; stroke-width:2; stroke-opacity:0.1; fill:none" points="2290.6,1486.45 2290.6,47.2441 "/>
<polyline clip-path="url(#clip560)" style="stroke:#000000; stroke-linecap:round; stroke-linejoin:round; stroke-width:4; stroke-opacity:1; fill:none" points="156.598,1486.45 2352.76,1486.45 "/>
<polyline clip-path="url(#clip560)" style="stroke:#000000; stroke-linecap:round; stroke-linejoin:round; stroke-width:4; stroke-opacity:1; fill:none" points="218.754,1486.45 218.754,1467.55 "/>
<polyline clip-path="url(#clip560)" style="stroke:#000000; stroke-linecap:round; stroke-linejoin:round; stroke-width:4; stroke-opacity:1; fill:none" points="633.123,1486.45 633.123,1467.55 "/>
<polyline clip-path="url(#clip560)" style="stroke:#000000; stroke-linecap:round; stroke-linejoin:round; stroke-width:4; stroke-opacity:1; fill:none" points="1047.49,1486.45 1047.49,1467.55 "/>
<polyline clip-path="url(#clip560)" style="stroke:#000000; stroke-linecap:round; stroke-linejoin:round; stroke-width:4; stroke-opacity:1; fill:none" points="1461.86,1486.45 1461.86,1467.55 "/>
<polyline clip-path="url(#clip560)" style="stroke:#000000; stroke-linecap:round; stroke-linejoin:round; stroke-width:4; stroke-opacity:1; fill:none" points="1876.23,1486.45 1876.23,1467.55 "/>
<polyline clip-path="url(#clip560)" style="stroke:#000000; stroke-linecap:round; stroke-linejoin:round; stroke-width:4; stroke-opacity:1; fill:none" points="2290.6,1486.45 2290.6,1467.55 "/>
<path clip-path="url(#clip560)" d="M218.754 1517.37 Q215.143 1517.37 213.314 1520.93 Q211.508 1524.47 211.508 1531.6 Q211.508 1538.71 213.314 1542.27 Q215.143 1545.82 218.754 1545.82 Q222.388 1545.82 224.193 1542.27 Q226.022 1538.71 226.022 1531.6 Q226.022 1524.47 224.193 1520.93 Q222.388 1517.37 218.754 1517.37 M218.754 1513.66 Q224.564 1513.66 227.619 1518.27 Q230.698 1522.85 230.698 1531.6 Q230.698 1540.33 227.619 1544.94 Q224.564 1549.52 218.754 1549.52 Q212.943 1549.52 209.865 1544.94 Q206.809 1540.33 206.809 1531.6 Q206.809 1522.85 209.865 1518.27 Q212.943 1513.66 218.754 1513.66 Z" fill="#000000" fill-rule="evenodd" fill-opacity="1" /><path clip-path="url(#clip560)" d="M607.811 1544.91 L615.449 1544.91 L615.449 1518.55 L607.139 1520.21 L607.139 1515.95 L615.403 1514.29 L620.079 1514.29 L620.079 1544.91 L627.718 1544.91 L627.718 1548.85 L607.811 1548.85 L607.811 1544.91 Z" fill="#000000" fill-rule="evenodd" fill-opacity="1" /><path clip-path="url(#clip560)" d="M647.162 1517.37 Q643.551 1517.37 641.723 1520.93 Q639.917 1524.47 639.917 1531.6 Q639.917 1538.71 641.723 1542.27 Q643.551 1545.82 647.162 1545.82 Q650.797 1545.82 652.602 1542.27 Q654.431 1538.71 654.431 1531.6 Q654.431 1524.47 652.602 1520.93 Q650.797 1517.37 647.162 1517.37 M647.162 1513.66 Q652.972 1513.66 656.028 1518.27 Q659.107 1522.85 659.107 1531.6 Q659.107 1540.33 656.028 1544.94 Q652.972 1549.52 647.162 1549.52 Q641.352 1549.52 638.273 1544.94 Q635.218 1540.33 635.218 1531.6 Q635.218 1522.85 638.273 1518.27 Q641.352 1513.66 647.162 1513.66 Z" fill="#000000" fill-rule="evenodd" fill-opacity="1" /><path clip-path="url(#clip560)" d="M1026.27 1544.91 L1042.59 1544.91 L1042.59 1548.85 L1020.64 1548.85 L1020.64 1544.91 Q1023.3 1542.16 1027.89 1537.53 Q1032.49 1532.88 1033.67 1531.53 Q1035.92 1529.01 1036.8 1527.27 Q1037.7 1525.51 1037.7 1523.82 Q1037.7 1521.07 1035.76 1519.33 Q1033.84 1517.6 1030.73 1517.6 Q1028.53 1517.6 1026.08 1518.36 Q1023.65 1519.13 1020.87 1520.68 L1020.87 1515.95 Q1023.7 1514.82 1026.15 1514.24 Q1028.6 1513.66 1030.64 1513.66 Q1036.01 1513.66 1039.21 1516.35 Q1042.4 1519.03 1042.4 1523.52 Q1042.4 1525.65 1041.59 1527.57 Q1040.8 1529.47 1038.7 1532.07 Q1038.12 1532.74 1035.02 1535.95 Q1031.91 1539.15 1026.27 1544.91 Z" fill="#000000" fill-rule="evenodd" fill-opacity="1" /><path clip-path="url(#clip560)" d="M1062.4 1517.37 Q1058.79 1517.37 1056.96 1520.93 Q1055.15 1524.47 1055.15 1531.6 Q1055.15 1538.71 1056.96 1542.27 Q1058.79 1545.82 1062.4 1545.82 Q1066.03 1545.82 1067.84 1542.27 Q1069.67 1538.71 1069.67 1531.6 Q1069.67 1524.47 1067.84 1520.93 Q1066.03 1517.37 1062.4 1517.37 M1062.4 1513.66 Q1068.21 1513.66 1071.27 1518.27 Q1074.34 1522.85 1074.34 1531.6 Q1074.34 1540.33 1071.27 1544.94 Q1068.21 1549.52 1062.4 1549.52 Q1056.59 1549.52 1053.51 1544.94 Q1050.46 1540.33 1050.46 1531.6 Q1050.46 1522.85 1053.51 1518.27 Q1056.59 1513.66 1062.4 1513.66 Z" fill="#000000" fill-rule="evenodd" fill-opacity="1" /><path clip-path="url(#clip560)" d="M1450.7 1530.21 Q1454.06 1530.93 1455.94 1533.2 Q1457.83 1535.47 1457.83 1538.8 Q1457.83 1543.92 1454.32 1546.72 Q1450.8 1549.52 1444.32 1549.52 Q1442.14 1549.52 1439.82 1549.08 Q1437.53 1548.66 1435.08 1547.81 L1435.08 1543.29 Q1437.02 1544.43 1439.34 1545.01 Q1441.65 1545.58 1444.18 1545.58 Q1448.57 1545.58 1450.87 1543.85 Q1453.18 1542.11 1453.18 1538.8 Q1453.18 1535.75 1451.03 1534.03 Q1448.9 1532.3 1445.08 1532.3 L1441.05 1532.3 L1441.05 1528.45 L1445.26 1528.45 Q1448.71 1528.45 1450.54 1527.09 Q1452.37 1525.7 1452.37 1523.11 Q1452.37 1520.45 1450.47 1519.03 Q1448.6 1517.6 1445.08 1517.6 Q1443.16 1517.6 1440.96 1518.01 Q1438.76 1518.43 1436.12 1519.31 L1436.12 1515.14 Q1438.78 1514.4 1441.1 1514.03 Q1443.44 1513.66 1445.5 1513.66 Q1450.82 1513.66 1453.92 1516.09 Q1457.02 1518.5 1457.02 1522.62 Q1457.02 1525.49 1455.38 1527.48 Q1453.74 1529.45 1450.7 1530.21 Z" fill="#000000" fill-rule="evenodd" fill-opacity="1" /><path clip-path="url(#clip560)" d="M1476.7 1517.37 Q1473.09 1517.37 1471.26 1520.93 Q1469.45 1524.47 1469.45 1531.6 Q1469.45 1538.71 1471.26 1542.27 Q1473.09 1545.82 1476.7 1545.82 Q1480.33 1545.82 1482.14 1542.27 Q1483.97 1538.71 1483.97 1531.6 Q1483.97 1524.47 1482.14 1520.93 Q1480.33 1517.37 1476.7 1517.37 M1476.7 1513.66 Q1482.51 1513.66 1485.57 1518.27 Q1488.64 1522.85 1488.64 1531.6 Q1488.64 1540.33 1485.57 1544.94 Q1482.51 1549.52 1476.7 1549.52 Q1470.89 1549.52 1467.81 1544.94 Q1464.76 1540.33 1464.76 1531.6 Q1464.76 1522.85 1467.81 1518.27 Q1470.89 1513.66 1476.7 1513.66 Z" fill="#000000" fill-rule="evenodd" fill-opacity="1" /><path clip-path="url(#clip560)" d="M1864.4 1518.36 L1852.6 1536.81 L1864.4 1536.81 L1864.4 1518.36 M1863.18 1514.29 L1869.06 1514.29 L1869.06 1536.81 L1873.99 1536.81 L1873.99 1540.7 L1869.06 1540.7 L1869.06 1548.85 L1864.4 1548.85 L1864.4 1540.7 L1848.8 1540.7 L1848.8 1536.19 L1863.18 1514.29 Z" fill="#000000" fill-rule="evenodd" fill-opacity="1" /><path clip-path="url(#clip560)" d="M1891.72 1517.37 Q1888.11 1517.37 1886.28 1520.93 Q1884.47 1524.47 1884.47 1531.6 Q1884.47 1538.71 1886.28 1542.27 Q1888.11 1545.82 1891.72 1545.82 Q1895.35 1545.82 1897.16 1542.27 Q1898.99 1538.71 1898.99 1531.6 Q1898.99 1524.47 1897.16 1520.93 Q1895.35 1517.37 1891.72 1517.37 M1891.72 1513.66 Q1897.53 1513.66 1900.58 1518.27 Q1903.66 1522.85 1903.66 1531.6 Q1903.66 1540.33 1900.58 1544.94 Q1897.53 1549.52 1891.72 1549.52 Q1885.91 1549.52 1882.83 1544.94 Q1879.77 1540.33 1879.77 1531.6 Q1879.77 1522.85 1882.83 1518.27 Q1885.91 1513.66 1891.72 1513.66 Z" fill="#000000" fill-rule="evenodd" fill-opacity="1" /><path clip-path="url(#clip560)" d="M2265.3 1514.29 L2283.66 1514.29 L2283.66 1518.22 L2269.58 1518.22 L2269.58 1526.7 Q2270.6 1526.35 2271.62 1526.19 Q2272.64 1526 2273.66 1526 Q2279.44 1526 2282.82 1529.17 Q2286.2 1532.34 2286.2 1537.76 Q2286.2 1543.34 2282.73 1546.44 Q2279.26 1549.52 2272.94 1549.52 Q2270.76 1549.52 2268.49 1549.15 Q2266.25 1548.78 2263.84 1548.04 L2263.84 1543.34 Q2265.92 1544.47 2268.15 1545.03 Q2270.37 1545.58 2272.85 1545.58 Q2276.85 1545.58 2279.19 1543.48 Q2281.53 1541.37 2281.53 1537.76 Q2281.53 1534.15 2279.19 1532.04 Q2276.85 1529.94 2272.85 1529.94 Q2270.97 1529.94 2269.1 1530.35 Q2267.24 1530.77 2265.3 1531.65 L2265.3 1514.29 Z" fill="#000000" fill-rule="evenodd" fill-opacity="1" /><path clip-path="url(#clip560)" d="M2305.42 1517.37 Q2301.8 1517.37 2299.98 1520.93 Q2298.17 1524.47 2298.17 1531.6 Q2298.17 1538.71 2299.98 1542.27 Q2301.8 1545.82 2305.42 1545.82 Q2309.05 1545.82 2310.86 1542.27 Q2312.68 1538.71 2312.68 1531.6 Q2312.68 1524.47 2310.86 1520.93 Q2309.05 1517.37 2305.42 1517.37 M2305.42 1513.66 Q2311.23 1513.66 2314.28 1518.27 Q2317.36 1522.85 2317.36 1531.6 Q2317.36 1540.33 2314.28 1544.94 Q2311.23 1549.52 2305.42 1549.52 Q2299.61 1549.52 2296.53 1544.94 Q2293.47 1540.33 2293.47 1531.6 Q2293.47 1522.85 2296.53 1518.27 Q2299.61 1513.66 2305.42 1513.66 Z" fill="#000000" fill-rule="evenodd" fill-opacity="1" /><polyline clip-path="url(#clip562)" style="stroke:#000000; stroke-linecap:round; stroke-linejoin:round; stroke-width:2; stroke-opacity:0.1; fill:none" points="156.598,1165.2 2352.76,1165.2 "/>
<polyline clip-path="url(#clip562)" style="stroke:#000000; stroke-linecap:round; stroke-linejoin:round; stroke-width:2; stroke-opacity:0.1; fill:none" points="156.598,806.125 2352.76,806.125 "/>
<polyline clip-path="url(#clip562)" style="stroke:#000000; stroke-linecap:round; stroke-linejoin:round; stroke-width:2; stroke-opacity:0.1; fill:none" points="156.598,447.051 2352.76,447.051 "/>
<polyline clip-path="url(#clip562)" style="stroke:#000000; stroke-linecap:round; stroke-linejoin:round; stroke-width:2; stroke-opacity:0.1; fill:none" points="156.598,87.9763 2352.76,87.9763 "/>
<polyline clip-path="url(#clip560)" style="stroke:#000000; stroke-linecap:round; stroke-linejoin:round; stroke-width:4; stroke-opacity:1; fill:none" points="156.598,1486.45 156.598,47.2441 "/>
<polyline clip-path="url(#clip560)" style="stroke:#000000; stroke-linecap:round; stroke-linejoin:round; stroke-width:4; stroke-opacity:1; fill:none" points="156.598,1165.2 175.496,1165.2 "/>
<polyline clip-path="url(#clip560)" style="stroke:#000000; stroke-linecap:round; stroke-linejoin:round; stroke-width:4; stroke-opacity:1; fill:none" points="156.598,806.125 175.496,806.125 "/>
<polyline clip-path="url(#clip560)" style="stroke:#000000; stroke-linecap:round; stroke-linejoin:round; stroke-width:4; stroke-opacity:1; fill:none" points="156.598,447.051 175.496,447.051 "/>
<polyline clip-path="url(#clip560)" style="stroke:#000000; stroke-linecap:round; stroke-linejoin:round; stroke-width:4; stroke-opacity:1; fill:none" points="156.598,87.9763 175.496,87.9763 "/>
<path clip-path="url(#clip560)" d="M62.9365 1151 Q59.3254 1151 57.4967 1154.56 Q55.6912 1158.1 55.6912 1165.23 Q55.6912 1172.34 57.4967 1175.91 Q59.3254 1179.45 62.9365 1179.45 Q66.5707 1179.45 68.3763 1175.91 Q70.205 1172.34 70.205 1165.23 Q70.205 1158.1 68.3763 1154.56 Q66.5707 1151 62.9365 1151 M62.9365 1147.29 Q68.7467 1147.29 71.8022 1151.9 Q74.8809 1156.48 74.8809 1165.23 Q74.8809 1173.96 71.8022 1178.57 Q68.7467 1183.15 62.9365 1183.15 Q57.1264 1183.15 54.0477 1178.57 Q50.9921 1173.96 50.9921 1165.23 Q50.9921 1156.48 54.0477 1151.9 Q57.1264 1147.29 62.9365 1147.29 Z" fill="#000000" fill-rule="evenodd" fill-opacity="1" /><path clip-path="url(#clip560)" d="M83.0984 1176.6 L87.9827 1176.6 L87.9827 1182.48 L83.0984 1182.48 L83.0984 1176.6 Z" fill="#000000" fill-rule="evenodd" fill-opacity="1" /><path clip-path="url(#clip560)" d="M111.015 1151.99 L99.2095 1170.44 L111.015 1170.44 L111.015 1151.99 M109.788 1147.92 L115.668 1147.92 L115.668 1170.44 L120.598 1170.44 L120.598 1174.33 L115.668 1174.33 L115.668 1182.48 L111.015 1182.48 L111.015 1174.33 L95.4132 1174.33 L95.4132 1169.82 L109.788 1147.92 Z" fill="#000000" fill-rule="evenodd" fill-opacity="1" /><path clip-path="url(#clip560)" d="M63.2606 791.924 Q59.6495 791.924 57.8208 795.489 Q56.0152 799.03 56.0152 806.16 Q56.0152 813.266 57.8208 816.831 Q59.6495 820.373 63.2606 820.373 Q66.8948 820.373 68.7004 816.831 Q70.5291 813.266 70.5291 806.16 Q70.5291 799.03 68.7004 795.489 Q66.8948 791.924 63.2606 791.924 M63.2606 788.22 Q69.0707 788.22 72.1263 792.827 Q75.205 797.41 75.205 806.16 Q75.205 814.887 72.1263 819.493 Q69.0707 824.077 63.2606 824.077 Q57.4504 824.077 54.3717 819.493 Q51.3162 814.887 51.3162 806.16 Q51.3162 797.41 54.3717 792.827 Q57.4504 788.22 63.2606 788.22 Z" fill="#000000" fill-rule="evenodd" fill-opacity="1" /><path clip-path="url(#clip560)" d="M83.4225 817.526 L88.3067 817.526 L88.3067 823.405 L83.4225 823.405 L83.4225 817.526 Z" fill="#000000" fill-rule="evenodd" fill-opacity="1" /><path clip-path="url(#clip560)" d="M109.071 804.262 Q105.922 804.262 104.071 806.415 Q102.242 808.567 102.242 812.317 Q102.242 816.044 104.071 818.22 Q105.922 820.373 109.071 820.373 Q112.219 820.373 114.047 818.22 Q115.899 816.044 115.899 812.317 Q115.899 808.567 114.047 806.415 Q112.219 804.262 109.071 804.262 M118.353 789.609 L118.353 793.868 Q116.594 793.035 114.788 792.595 Q113.006 792.155 111.246 792.155 Q106.617 792.155 104.163 795.28 Q101.733 798.405 101.385 804.725 Q102.751 802.711 104.811 801.646 Q106.871 800.558 109.348 800.558 Q114.557 800.558 117.566 803.729 Q120.598 806.878 120.598 812.317 Q120.598 817.641 117.45 820.859 Q114.302 824.077 109.071 824.077 Q103.075 824.077 99.9039 819.493 Q96.7326 814.887 96.7326 806.16 Q96.7326 797.966 100.621 793.104 Q104.51 788.22 111.061 788.22 Q112.82 788.22 114.603 788.567 Q116.408 788.915 118.353 789.609 Z" fill="#000000" fill-rule="evenodd" fill-opacity="1" /><path clip-path="url(#clip560)" d="M63.5152 432.849 Q59.9041 432.849 58.0754 436.414 Q56.2699 439.956 56.2699 447.085 Q56.2699 454.192 58.0754 457.757 Q59.9041 461.298 63.5152 461.298 Q67.1494 461.298 68.955 457.757 Q70.7837 454.192 70.7837 447.085 Q70.7837 439.956 68.955 436.414 Q67.1494 432.849 63.5152 432.849 M63.5152 429.146 Q69.3254 429.146 72.3809 433.752 Q75.4596 438.336 75.4596 447.085 Q75.4596 455.812 72.3809 460.419 Q69.3254 465.002 63.5152 465.002 Q57.7051 465.002 54.6264 460.419 Q51.5708 455.812 51.5708 447.085 Q51.5708 438.336 54.6264 433.752 Q57.7051 429.146 63.5152 429.146 Z" fill="#000000" fill-rule="evenodd" fill-opacity="1" /><path clip-path="url(#clip560)" d="M83.6771 458.451 L88.5614 458.451 L88.5614 464.331 L83.6771 464.331 L83.6771 458.451 Z" fill="#000000" fill-rule="evenodd" fill-opacity="1" /><path clip-path="url(#clip560)" d="M108.746 447.919 Q105.413 447.919 103.492 449.701 Q101.594 451.484 101.594 454.609 Q101.594 457.734 103.492 459.516 Q105.413 461.298 108.746 461.298 Q112.08 461.298 114.001 459.516 Q115.922 457.71 115.922 454.609 Q115.922 451.484 114.001 449.701 Q112.103 447.919 108.746 447.919 M104.071 445.928 Q101.061 445.187 99.3715 443.127 Q97.7048 441.067 97.7048 438.104 Q97.7048 433.961 100.645 431.553 Q103.608 429.146 108.746 429.146 Q113.908 429.146 116.848 431.553 Q119.788 433.961 119.788 438.104 Q119.788 441.067 118.098 443.127 Q116.432 445.187 113.445 445.928 Q116.825 446.715 118.7 449.007 Q120.598 451.298 120.598 454.609 Q120.598 459.632 117.52 462.317 Q114.464 465.002 108.746 465.002 Q103.029 465.002 99.9502 462.317 Q96.8947 459.632 96.8947 454.609 Q96.8947 451.298 98.7928 449.007 Q100.691 446.715 104.071 445.928 M102.358 438.544 Q102.358 441.229 104.024 442.734 Q105.714 444.238 108.746 444.238 Q111.756 444.238 113.445 442.734 Q115.158 441.229 115.158 438.544 Q115.158 435.859 113.445 434.354 Q111.756 432.849 108.746 432.849 Q105.714 432.849 104.024 434.354 Q102.358 435.859 102.358 438.544 Z" fill="#000000" fill-rule="evenodd" fill-opacity="1" /><path clip-path="url(#clip560)" d="M54.2328 101.321 L61.8717 101.321 L61.8717 74.9555 L53.5616 76.6222 L53.5616 72.3629 L61.8254 70.6963 L66.5013 70.6963 L66.5013 101.321 L74.1402 101.321 L74.1402 105.256 L54.2328 105.256 L54.2328 101.321 Z" fill="#000000" fill-rule="evenodd" fill-opacity="1" /><path clip-path="url(#clip560)" d="M83.5845 99.3767 L88.4688 99.3767 L88.4688 105.256 L83.5845 105.256 L83.5845 99.3767 Z" fill="#000000" fill-rule="evenodd" fill-opacity="1" /><path clip-path="url(#clip560)" d="M108.654 73.775 Q105.043 73.775 103.214 77.3398 Q101.409 80.8814 101.409 88.011 Q101.409 95.1174 103.214 98.6822 Q105.043 102.224 108.654 102.224 Q112.288 102.224 114.094 98.6822 Q115.922 95.1174 115.922 88.011 Q115.922 80.8814 114.094 77.3398 Q112.288 73.775 108.654 73.775 M108.654 70.0713 Q114.464 70.0713 117.52 74.6777 Q120.598 79.261 120.598 88.011 Q120.598 96.7378 117.52 101.344 Q114.464 105.928 108.654 105.928 Q102.844 105.928 99.765 101.344 Q96.7095 96.7378 96.7095 88.011 Q96.7095 79.261 99.765 74.6777 Q102.844 70.0713 108.654 70.0713 Z" fill="#000000" fill-rule="evenodd" fill-opacity="1" /><polyline clip-path="url(#clip562)" style="stroke:#009af9; stroke-linecap:round; stroke-linejoin:round; stroke-width:4; stroke-opacity:1; fill:none" points="218.754,87.9763 220.44,88.1262 222.126,88.5754 223.812,89.3221 225.498,90.3637 227.184,91.6963 228.87,93.315 230.556,95.2141 232.242,97.3867 236.14,103.413 240.038,110.75 243.935,119.271 247.833,128.841 255.628,150.552 263.423,174.751 279.014,226.684 294.604,278.596 302.4,303.442 310.195,327.246 317.99,349.904 325.785,371.381 333.581,391.683 341.376,410.847 349.171,428.928 356.966,445.989 366.336,465.243 375.705,483.242 385.074,500.099 394.443,515.923 403.813,530.81 413.182,544.85 422.551,558.124 431.92,570.703 447.763,590.57 463.607,608.898 479.45,625.907 495.293,641.779 512.503,657.906 529.713,673.026 546.923,687.272 564.133,700.751 595.866,723.888 627.598,745.166 661.618,766.288 695.639,785.96 735.055,807.237 774.471,827.146 844.528,859.764 905.961,885.981 972.94,912.495 1040.32,937.333 1114.81,962.971 1185.69,985.829 1259.39,1008.2 1321.42,1026.06 1397.17,1046.76 1466.55,1064.76 1530.63,1080.65 1595.54,1096.06 1668.29,1112.6 1734.21,1126.95 1809.69,1142.7 1879.57,1156.68 1948.47,1169.93 2015.36,1182.33 2083.94,1194.58 2159.07,1207.5 2268.21,1225.41 2290.6,1228.97 "/>
<polyline clip-path="url(#clip562)" style="stroke:#e26f46; stroke-linecap:round; stroke-linejoin:round; stroke-width:4; stroke-opacity:1; fill:none" points="218.754,87.9763 222.126,88.2762 225.498,89.1753 228.87,90.6723 232.242,92.7648 240.038,99.8613 247.833,110.061 251.731,116.298 255.628,123.277 259.526,130.983 263.423,139.4 271.219,158.294 279.014,179.8 286.809,203.741 294.604,229.916 302.4,258.11 310.195,288.089 317.99,319.609 325.785,352.411 341.376,420.796 356.966,491.059 366.336,533.267 375.705,574.887 385.074,615.464 394.443,654.563 403.813,691.775 413.182,726.724 422.551,759.068 431.92,788.507 439.842,810.94 447.763,830.983 455.685,848.532 463.607,863.509 471.528,875.862 479.45,885.565 487.371,892.618 495.293,897.049 499.595,898.373 503.898,898.951 508.2,898.794 512.503,897.919 521.108,894.085 529.713,887.611 538.318,878.688 546.923,867.531 555.528,854.378 564.133,839.488 579.999,808.4 595.866,774.145 611.732,738.592 627.598,703.593 636.103,685.678 644.608,668.684 653.113,652.847 661.618,638.386 670.124,625.497 678.629,614.352 687.134,605.1 695.639,597.862 705.493,592.113 715.347,589.289 720.274,588.989 725.201,589.433 730.128,590.618 735.055,592.539 744.909,598.55 754.763,607.36 759.69,612.768 764.617,618.816 769.544,625.478 774.471,632.725 783.228,646.956 791.985,662.753 800.742,679.911 809.499,698.209 827.013,737.291 844.528,778.053 859.886,813.619 875.244,847.667 882.923,863.743 890.603,879.004 898.282,893.321 905.961,906.581 914.333,919.714 922.706,931.355 931.078,941.412 939.45,949.812 947.823,956.504 956.195,961.462 964.567,964.679 972.94,966.172 981.362,965.973 989.784,964.127 998.206,960.715 1006.63,955.837 1015.05,949.608 1023.47,942.162 1031.89,933.646 1040.32,924.218 1058.94,900.982 1077.56,876.045 1096.19,851.386 1114.81,828.91 1123.67,819.492 1132.53,811.124 1141.39,803.955 1150.25,798.11 1159.11,793.697 1167.97,790.802 1176.83,789.485 1185.69,789.785 1194.9,791.828 1204.11,795.623 1213.33,801.133 1222.54,808.293 1231.75,817.013 1240.96,827.18 1250.17,838.659 1259.39,851.297 1274.9,874.711 1290.41,900.028 1305.92,926.287 1321.42,952.502 1330.89,968.068 1340.36,983.047 1349.83,997.24 1359.3,1010.47 1368.76,1022.56 1378.23,1033.37 1387.7,1042.79 1397.17,1050.71 1405.84,1056.58 1414.51,1061.11 1423.18,1064.27 1431.86,1066.07 1440.53,1066.52 1449.2,1065.67 1457.88,1063.58 1466.55,1060.31 1474.56,1056.34 1482.57,1051.53 1490.58,1045.97 1498.59,1039.76 1514.61,1025.84 1530.63,1010.66 1546.86,994.993 1563.09,980 1579.31,966.624 1595.54,955.705 1604.64,950.931 1613.73,947.257 1622.82,944.767 1631.92,943.527 1641.01,943.583 1650.1,944.959 1659.2,947.662 1668.29,951.675 1676.53,956.414 1684.77,962.16 1693.01,968.86 1701.25,976.45 1709.49,984.855 1717.73,993.99 1725.97,1003.76 1734.21,1014.07 1753.08,1039.11 1771.95,1065.05 1790.82,1090.49 1809.69,1114.11 1818.42,1124.09 1827.16,1133.31 1835.9,1141.69 1844.63,1149.15 1853.37,1155.61 1862.1,1161.04 1870.84,1165.38 1879.57,1168.63 1888.18,1170.75 1896.8,1171.8 1905.41,1171.82 1914.02,1170.84 1922.63,1168.91 1931.25,1166.09 1939.86,1162.46 1948.47,1158.11 1965.19,1147.96 1981.92,1136.21 1998.64,1123.71 2015.36,1111.33 2032.51,1099.64 2049.65,1089.79 2058.22,1085.79 2066.79,1082.51 2075.37,1080.02 2083.94,1078.38 2093.33,1077.59 2102.72,1077.91 2112.11,1079.35 2121.5,1081.92 2130.9,1085.6 2140.29,1090.35 2149.68,1096.13 2159.07,1102.86 2172.71,1114.17 2186.35,1126.99 2200,1140.99 2213.64,1155.76 2240.92,1185.93 2268.21,1214.14 2273.81,1219.4 2279.41,1224.42 2285,1229.18 2290.6,1233.67 "/>
<polyline clip-path="url(#clip562)" style="stroke:#3da44d; stroke-linecap:round; stroke-linejoin:round; stroke-width:4; stroke-opacity:1; fill:none" points="-2039.56,1445.72 4548.91,1445.72 "/>
<polyline clip-path="url(#clip562)" style="stroke:#c271d2; stroke-linecap:round; stroke-linejoin:round; stroke-width:8; stroke-opacity:1; fill:none" points="-2039.56,789.295 4548.91,789.295 "/>
<polyline clip-path="url(#clip562)" style="stroke:#000000; stroke-linecap:round; stroke-linejoin:round; stroke-width:4; stroke-opacity:1; fill:none" stroke-dasharray="16, 10" points="-2039.56,485.171 4548.91,485.171 "/>
<path clip-path="url(#clip560)" d="M1444.54 406.258 L2279.55 406.258 L2279.55 95.2176 L1444.54 95.2176  Z" fill="#ffffff" fill-rule="evenodd" fill-opacity="1"/>
<polyline clip-path="url(#clip560)" style="stroke:#000000; stroke-linecap:round; stroke-linejoin:round; stroke-width:4; stroke-opacity:1; fill:none" points="1444.54,406.258 2279.55,406.258 2279.55,95.2176 1444.54,95.2176 1444.54,406.258 "/>
<polyline clip-path="url(#clip560)" style="stroke:#009af9; stroke-linecap:round; stroke-linejoin:round; stroke-width:4; stroke-opacity:1; fill:none" points="1468.95,147.058 1615.36,147.058 "/>
<path clip-path="url(#clip560)" d="M1644.43 147.833 L1644.43 160.495 L1651.93 160.495 Q1655.71 160.495 1657.51 158.944 Q1659.34 157.37 1659.34 154.152 Q1659.34 150.912 1657.51 149.384 Q1655.71 147.833 1651.93 147.833 L1644.43 147.833 M1644.43 133.62 L1644.43 144.037 L1651.36 144.037 Q1654.78 144.037 1656.45 142.764 Q1658.14 141.467 1658.14 138.828 Q1658.14 136.213 1656.45 134.916 Q1654.78 133.62 1651.36 133.62 L1644.43 133.62 M1639.76 129.778 L1651.7 129.778 Q1657.05 129.778 1659.94 132 Q1662.84 134.222 1662.84 138.319 Q1662.84 141.49 1661.36 143.365 Q1659.87 145.24 1657 145.703 Q1660.45 146.444 1662.35 148.805 Q1664.27 151.143 1664.27 154.662 Q1664.27 159.291 1661.12 161.814 Q1657.98 164.338 1652.17 164.338 L1639.76 164.338 L1639.76 129.778 Z" fill="#000000" fill-rule="evenodd" fill-opacity="1" /><path clip-path="url(#clip560)" d="M1682.14 141.398 Q1678.72 141.398 1676.73 144.083 Q1674.74 146.745 1674.74 151.398 Q1674.74 156.051 1676.7 158.736 Q1678.69 161.398 1682.14 161.398 Q1685.55 161.398 1687.54 158.713 Q1689.53 156.027 1689.53 151.398 Q1689.53 146.791 1687.54 144.106 Q1685.55 141.398 1682.14 141.398 M1682.14 137.787 Q1687.7 137.787 1690.87 141.398 Q1694.04 145.009 1694.04 151.398 Q1694.04 157.764 1690.87 161.398 Q1687.7 165.009 1682.14 165.009 Q1676.56 165.009 1673.39 161.398 Q1670.24 157.764 1670.24 151.398 Q1670.24 145.009 1673.39 141.398 Q1676.56 137.787 1682.14 137.787 Z" fill="#000000" fill-rule="evenodd" fill-opacity="1" /><path clip-path="url(#clip560)" d="M1716.12 142.393 Q1715.41 141.977 1714.55 141.791 Q1713.72 141.583 1712.7 141.583 Q1709.09 141.583 1707.14 143.944 Q1705.22 146.282 1705.22 150.68 L1705.22 164.338 L1700.94 164.338 L1700.94 138.412 L1705.22 138.412 L1705.22 142.44 Q1706.56 140.078 1708.72 138.944 Q1710.87 137.787 1713.95 137.787 Q1714.39 137.787 1714.92 137.856 Q1715.45 137.903 1716.1 138.018 L1716.12 142.393 Z" fill="#000000" fill-rule="evenodd" fill-opacity="1" /><path clip-path="url(#clip560)" d="M1741.31 148.689 L1741.31 164.338 L1737.05 164.338 L1737.05 148.828 Q1737.05 145.148 1735.61 143.319 Q1734.18 141.49 1731.31 141.49 Q1727.86 141.49 1725.87 143.69 Q1723.88 145.889 1723.88 149.685 L1723.88 164.338 L1719.6 164.338 L1719.6 138.412 L1723.88 138.412 L1723.88 142.44 Q1725.41 140.102 1727.47 138.944 Q1729.55 137.787 1732.26 137.787 Q1736.73 137.787 1739.02 140.565 Q1741.31 143.319 1741.31 148.689 Z" fill="#000000" fill-rule="evenodd" fill-opacity="1" /><path clip-path="url(#clip560)" d="M1750.89 158.458 L1755.78 158.458 L1755.78 162.439 L1751.98 169.847 L1748.99 169.847 L1750.89 162.439 L1750.89 158.458 Z" fill="#000000" fill-rule="evenodd" fill-opacity="1" /><path clip-path="url(#clip560)" d="M1780.13 129.778 L1787.1 129.778 L1795.92 153.296 L1804.78 129.778 L1811.75 129.778 L1811.75 164.338 L1807.19 164.338 L1807.19 133.99 L1798.28 157.694 L1793.58 157.694 L1784.67 133.99 L1784.67 164.338 L1780.13 164.338 L1780.13 129.778 Z" fill="#000000" fill-rule="evenodd" fill-opacity="1" /><path clip-path="url(#clip560)" d="M1843.02 150.31 L1843.02 152.393 L1823.44 152.393 Q1823.72 156.791 1826.08 159.106 Q1828.46 161.398 1832.7 161.398 Q1835.15 161.398 1837.44 160.796 Q1839.76 160.194 1842.03 158.99 L1842.03 163.018 Q1839.73 163.99 1837.33 164.5 Q1834.92 165.009 1832.44 165.009 Q1826.24 165.009 1822.6 161.398 Q1818.99 157.787 1818.99 151.629 Q1818.99 145.264 1822.42 141.537 Q1825.87 137.787 1831.7 137.787 Q1836.93 137.787 1839.97 141.166 Q1843.02 144.523 1843.02 150.31 M1838.76 149.06 Q1838.72 145.565 1836.79 143.481 Q1834.9 141.398 1831.75 141.398 Q1828.18 141.398 1826.03 143.412 Q1823.9 145.426 1823.58 149.083 L1838.76 149.06 Z" fill="#000000" fill-rule="evenodd" fill-opacity="1" /><path clip-path="url(#clip560)" d="M1861.79 151.305 Q1856.63 151.305 1854.64 152.486 Q1852.65 153.666 1852.65 156.514 Q1852.65 158.782 1854.13 160.125 Q1855.64 161.444 1858.21 161.444 Q1861.75 161.444 1863.88 158.944 Q1866.03 156.421 1866.03 152.254 L1866.03 151.305 L1861.79 151.305 M1870.29 149.546 L1870.29 164.338 L1866.03 164.338 L1866.03 160.402 Q1864.57 162.763 1862.4 163.898 Q1860.22 165.009 1857.07 165.009 Q1853.09 165.009 1850.73 162.787 Q1848.39 160.541 1848.39 156.791 Q1848.39 152.416 1851.31 150.194 Q1854.25 147.972 1860.06 147.972 L1866.03 147.972 L1866.03 147.555 Q1866.03 144.615 1864.09 143.018 Q1862.16 141.398 1858.67 141.398 Q1856.45 141.398 1854.34 141.93 Q1852.23 142.463 1850.29 143.527 L1850.29 139.592 Q1852.63 138.69 1854.83 138.25 Q1857.03 137.787 1859.11 137.787 Q1864.73 137.787 1867.51 140.703 Q1870.29 143.62 1870.29 149.546 Z" fill="#000000" fill-rule="evenodd" fill-opacity="1" /><path clip-path="url(#clip560)" d="M1900.61 148.689 L1900.61 164.338 L1896.35 164.338 L1896.35 148.828 Q1896.35 145.148 1894.92 143.319 Q1893.48 141.49 1890.61 141.49 Q1887.16 141.49 1885.17 143.69 Q1883.18 145.889 1883.18 149.685 L1883.18 164.338 L1878.9 164.338 L1878.9 138.412 L1883.18 138.412 L1883.18 142.44 Q1884.71 140.102 1886.77 138.944 Q1888.85 137.787 1891.56 137.787 Q1896.03 137.787 1898.32 140.565 Q1900.61 143.319 1900.61 148.689 Z" fill="#000000" fill-rule="evenodd" fill-opacity="1" /><polyline clip-path="url(#clip560)" style="stroke:#e26f46; stroke-linecap:round; stroke-linejoin:round; stroke-width:4; stroke-opacity:1; fill:none" points="1468.95,198.898 1615.36,198.898 "/>
<path clip-path="url(#clip560)" d="M1639.76 181.618 L1661.61 181.618 L1661.61 185.553 L1644.43 185.553 L1644.43 195.784 L1660.89 195.784 L1660.89 199.719 L1644.43 199.719 L1644.43 212.242 L1662.03 212.242 L1662.03 216.178 L1639.76 216.178 L1639.76 181.618 Z" fill="#000000" fill-rule="evenodd" fill-opacity="1" /><path clip-path="url(#clip560)" d="M1691.08 190.252 L1681.7 202.867 L1691.56 216.178 L1686.54 216.178 L1678.99 205.992 L1671.45 216.178 L1666.43 216.178 L1676.49 202.613 L1667.28 190.252 L1672.3 190.252 L1679.18 199.488 L1686.05 190.252 L1691.08 190.252 Z" fill="#000000" fill-rule="evenodd" fill-opacity="1" /><path clip-path="url(#clip560)" d="M1709.36 203.145 Q1704.2 203.145 1702.21 204.326 Q1700.22 205.506 1700.22 208.354 Q1700.22 210.622 1701.7 211.965 Q1703.21 213.284 1705.78 213.284 Q1709.32 213.284 1711.45 210.784 Q1713.6 208.261 1713.6 204.094 L1713.6 203.145 L1709.36 203.145 M1717.86 201.386 L1717.86 216.178 L1713.6 216.178 L1713.6 212.242 Q1712.14 214.603 1709.97 215.738 Q1707.79 216.849 1704.64 216.849 Q1700.66 216.849 1698.3 214.627 Q1695.96 212.381 1695.96 208.631 Q1695.96 204.256 1698.88 202.034 Q1701.82 199.812 1707.63 199.812 L1713.6 199.812 L1713.6 199.395 Q1713.6 196.455 1711.66 194.858 Q1709.74 193.238 1706.24 193.238 Q1704.02 193.238 1701.91 193.77 Q1699.8 194.303 1697.86 195.367 L1697.86 191.432 Q1700.2 190.53 1702.4 190.09 Q1704.6 189.627 1706.68 189.627 Q1712.3 189.627 1715.08 192.543 Q1717.86 195.46 1717.86 201.386 Z" fill="#000000" fill-rule="evenodd" fill-opacity="1" /><path clip-path="url(#clip560)" d="M1745.29 191.247 L1745.29 195.229 Q1743.48 194.233 1741.66 193.747 Q1739.85 193.238 1738 193.238 Q1733.86 193.238 1731.56 195.877 Q1729.27 198.492 1729.27 203.238 Q1729.27 207.983 1731.56 210.622 Q1733.86 213.238 1738 213.238 Q1739.85 213.238 1741.66 212.752 Q1743.48 212.242 1745.29 211.247 L1745.29 215.182 Q1743.51 216.016 1741.59 216.432 Q1739.69 216.849 1737.54 216.849 Q1731.68 216.849 1728.23 213.168 Q1724.78 209.488 1724.78 203.238 Q1724.78 196.895 1728.25 193.261 Q1731.75 189.627 1737.81 189.627 Q1739.78 189.627 1741.66 190.043 Q1743.53 190.437 1745.29 191.247 Z" fill="#000000" fill-rule="evenodd" fill-opacity="1" /><path clip-path="url(#clip560)" d="M1756.91 182.891 L1756.91 190.252 L1765.68 190.252 L1765.68 193.562 L1756.91 193.562 L1756.91 207.636 Q1756.91 210.807 1757.77 211.71 Q1758.65 212.613 1761.31 212.613 L1765.68 212.613 L1765.68 216.178 L1761.31 216.178 Q1756.38 216.178 1754.5 214.349 Q1752.63 212.497 1752.63 207.636 L1752.63 193.562 L1749.5 193.562 L1749.5 190.252 L1752.63 190.252 L1752.63 182.891 L1756.91 182.891 Z" fill="#000000" fill-rule="evenodd" fill-opacity="1" /><polyline clip-path="url(#clip560)" style="stroke:#3da44d; stroke-linecap:round; stroke-linejoin:round; stroke-width:4; stroke-opacity:1; fill:none" points="1468.95,250.738 1615.36,250.738 "/>
<path clip-path="url(#clip560)" d="M1639.76 233.458 L1644.43 233.458 L1644.43 264.082 L1661.26 264.082 L1661.26 268.018 L1639.76 268.018 L1639.76 233.458 Z" fill="#000000" fill-rule="evenodd" fill-opacity="1" /><path clip-path="url(#clip560)" d="M1675.2 245.078 Q1671.77 245.078 1669.78 247.763 Q1667.79 250.425 1667.79 255.078 Q1667.79 259.731 1669.76 262.416 Q1671.75 265.078 1675.2 265.078 Q1678.6 265.078 1680.59 262.393 Q1682.58 259.707 1682.58 255.078 Q1682.58 250.471 1680.59 247.786 Q1678.6 245.078 1675.2 245.078 M1675.2 241.467 Q1680.75 241.467 1683.93 245.078 Q1687.1 248.689 1687.1 255.078 Q1687.1 261.444 1683.93 265.078 Q1680.75 268.689 1675.2 268.689 Q1669.62 268.689 1666.45 265.078 Q1663.3 261.444 1663.3 255.078 Q1663.3 248.689 1666.45 245.078 Q1669.62 241.467 1675.2 241.467 Z" fill="#000000" fill-rule="evenodd" fill-opacity="1" /><path clip-path="url(#clip560)" d="M1715.71 252.369 L1715.71 268.018 L1711.45 268.018 L1711.45 252.508 Q1711.45 248.828 1710.01 246.999 Q1708.58 245.17 1705.71 245.17 Q1702.26 245.17 1700.27 247.37 Q1698.28 249.569 1698.28 253.365 L1698.28 268.018 L1693.99 268.018 L1693.99 242.092 L1698.28 242.092 L1698.28 246.12 Q1699.8 243.782 1701.86 242.624 Q1703.95 241.467 1706.66 241.467 Q1711.12 241.467 1713.42 244.245 Q1715.71 246.999 1715.71 252.369 Z" fill="#000000" fill-rule="evenodd" fill-opacity="1" /><path clip-path="url(#clip560)" d="M1741.26 254.754 Q1741.26 250.124 1739.34 247.578 Q1737.44 245.032 1733.99 245.032 Q1730.57 245.032 1728.65 247.578 Q1726.75 250.124 1726.75 254.754 Q1726.75 259.36 1728.65 261.906 Q1730.57 264.453 1733.99 264.453 Q1737.44 264.453 1739.34 261.906 Q1741.26 259.36 1741.26 254.754 M1745.52 264.8 Q1745.52 271.42 1742.58 274.638 Q1739.64 277.879 1733.58 277.879 Q1731.33 277.879 1729.34 277.531 Q1727.35 277.207 1725.48 276.513 L1725.48 272.369 Q1727.35 273.388 1729.18 273.874 Q1731.01 274.36 1732.91 274.36 Q1737.1 274.36 1739.18 272.161 Q1741.26 269.985 1741.26 265.564 L1741.26 263.457 Q1739.94 265.749 1737.88 266.883 Q1735.82 268.018 1732.95 268.018 Q1728.18 268.018 1725.27 264.383 Q1722.35 260.749 1722.35 254.754 Q1722.35 248.735 1725.27 245.101 Q1728.18 241.467 1732.95 241.467 Q1735.82 241.467 1737.88 242.601 Q1739.94 243.735 1741.26 246.027 L1741.26 242.092 L1745.52 242.092 L1745.52 264.8 Z" fill="#000000" fill-rule="evenodd" fill-opacity="1" /><path clip-path="url(#clip560)" d="M1764.76 233.458 L1793.99 233.458 L1793.99 237.393 L1781.73 237.393 L1781.73 268.018 L1777.03 268.018 L1777.03 237.393 L1764.76 237.393 L1764.76 233.458 Z" fill="#000000" fill-rule="evenodd" fill-opacity="1" /><path clip-path="url(#clip560)" d="M1796.86 242.092 L1801.12 242.092 L1801.12 268.018 L1796.86 268.018 L1796.86 242.092 M1796.86 231.999 L1801.12 231.999 L1801.12 237.393 L1796.86 237.393 L1796.86 231.999 Z" fill="#000000" fill-rule="evenodd" fill-opacity="1" /><path clip-path="url(#clip560)" d="M1830.22 247.069 Q1831.82 244.198 1834.04 242.833 Q1836.26 241.467 1839.27 241.467 Q1843.32 241.467 1845.52 244.314 Q1847.72 247.138 1847.72 252.369 L1847.72 268.018 L1843.44 268.018 L1843.44 252.508 Q1843.44 248.782 1842.12 246.976 Q1840.8 245.17 1838.09 245.17 Q1834.78 245.17 1832.86 247.37 Q1830.94 249.569 1830.94 253.365 L1830.94 268.018 L1826.66 268.018 L1826.66 252.508 Q1826.66 248.758 1825.34 246.976 Q1824.02 245.17 1821.26 245.17 Q1818 245.17 1816.08 247.393 Q1814.16 249.592 1814.16 253.365 L1814.16 268.018 L1809.87 268.018 L1809.87 242.092 L1814.16 242.092 L1814.16 246.12 Q1815.61 243.735 1817.65 242.601 Q1819.69 241.467 1822.49 241.467 Q1825.31 241.467 1827.28 242.902 Q1829.27 244.337 1830.22 247.069 Z" fill="#000000" fill-rule="evenodd" fill-opacity="1" /><path clip-path="url(#clip560)" d="M1878.39 253.99 L1878.39 256.073 L1858.81 256.073 Q1859.09 260.471 1861.45 262.786 Q1863.83 265.078 1868.07 265.078 Q1870.52 265.078 1872.81 264.476 Q1875.13 263.874 1877.4 262.67 L1877.4 266.698 Q1875.1 267.67 1872.7 268.18 Q1870.29 268.689 1867.81 268.689 Q1861.61 268.689 1857.98 265.078 Q1854.36 261.467 1854.36 255.309 Q1854.36 248.944 1857.79 245.217 Q1861.24 241.467 1867.07 241.467 Q1872.3 241.467 1875.34 244.846 Q1878.39 248.203 1878.39 253.99 M1874.13 252.74 Q1874.09 249.245 1872.16 247.161 Q1870.27 245.078 1867.12 245.078 Q1863.55 245.078 1861.4 247.092 Q1859.27 249.106 1858.95 252.763 L1874.13 252.74 Z" fill="#000000" fill-rule="evenodd" fill-opacity="1" /><path clip-path="url(#clip560)" d="M1912.19 238.064 L1905.85 255.263 L1918.55 255.263 L1912.19 238.064 M1909.55 233.458 L1914.85 233.458 L1928.02 268.018 L1923.16 268.018 L1920.01 259.152 L1904.43 259.152 L1901.29 268.018 L1896.35 268.018 L1909.55 233.458 Z" fill="#000000" fill-rule="evenodd" fill-opacity="1" /><path clip-path="url(#clip560)" d="M1927.05 242.092 L1931.56 242.092 L1939.66 263.851 L1947.77 242.092 L1952.28 242.092 L1942.56 268.018 L1936.77 268.018 L1927.05 242.092 Z" fill="#000000" fill-rule="evenodd" fill-opacity="1" /><path clip-path="url(#clip560)" d="M1980.34 253.99 L1980.34 256.073 L1960.75 256.073 Q1961.03 260.471 1963.39 262.786 Q1965.78 265.078 1970.01 265.078 Q1972.47 265.078 1974.76 264.476 Q1977.07 263.874 1979.34 262.67 L1979.34 266.698 Q1977.05 267.67 1974.64 268.18 Q1972.23 268.689 1969.76 268.689 Q1963.55 268.689 1959.92 265.078 Q1956.31 261.467 1956.31 255.309 Q1956.31 248.944 1959.73 245.217 Q1963.18 241.467 1969.02 241.467 Q1974.25 241.467 1977.28 244.846 Q1980.34 248.203 1980.34 253.99 M1976.08 252.74 Q1976.03 249.245 1974.11 247.161 Q1972.21 245.078 1969.06 245.078 Q1965.5 245.078 1963.34 247.092 Q1961.22 249.106 1960.89 252.763 L1976.08 252.74 Z" fill="#000000" fill-rule="evenodd" fill-opacity="1" /><path clip-path="url(#clip560)" d="M2002.35 246.073 Q2001.63 245.657 2000.78 245.471 Q1999.94 245.263 1998.92 245.263 Q1995.31 245.263 1993.37 247.624 Q1991.45 249.962 1991.45 254.36 L1991.45 268.018 L1987.16 268.018 L1987.16 242.092 L1991.45 242.092 L1991.45 246.12 Q1992.79 243.758 1994.94 242.624 Q1997.09 241.467 2000.17 241.467 Q2000.61 241.467 2001.15 241.536 Q2001.68 241.583 2002.33 241.698 L2002.35 246.073 Z" fill="#000000" fill-rule="evenodd" fill-opacity="1" /><path clip-path="url(#clip560)" d="M2018.6 254.985 Q2013.44 254.985 2011.45 256.166 Q2009.46 257.346 2009.46 260.194 Q2009.46 262.462 2010.94 263.805 Q2012.44 265.124 2015.01 265.124 Q2018.55 265.124 2020.68 262.624 Q2022.84 260.101 2022.84 255.934 L2022.84 254.985 L2018.6 254.985 M2027.09 253.226 L2027.09 268.018 L2022.84 268.018 L2022.84 264.082 Q2021.38 266.443 2019.2 267.578 Q2017.03 268.689 2013.88 268.689 Q2009.9 268.689 2007.53 266.467 Q2005.2 264.221 2005.2 260.471 Q2005.2 256.096 2008.11 253.874 Q2011.05 251.652 2016.86 251.652 L2022.84 251.652 L2022.84 251.235 Q2022.84 248.295 2020.89 246.698 Q2018.97 245.078 2015.47 245.078 Q2013.25 245.078 2011.15 245.61 Q2009.04 246.143 2007.09 247.207 L2007.09 243.272 Q2009.43 242.37 2011.63 241.93 Q2013.83 241.467 2015.91 241.467 Q2021.54 241.467 2024.32 244.383 Q2027.09 247.3 2027.09 253.226 Z" fill="#000000" fill-rule="evenodd" fill-opacity="1" /><path clip-path="url(#clip560)" d="M2052.93 254.754 Q2052.93 250.124 2051.01 247.578 Q2049.11 245.032 2045.66 245.032 Q2042.23 245.032 2040.31 247.578 Q2038.41 250.124 2038.41 254.754 Q2038.41 259.36 2040.31 261.906 Q2042.23 264.453 2045.66 264.453 Q2049.11 264.453 2051.01 261.906 Q2052.93 259.36 2052.93 254.754 M2057.19 264.8 Q2057.19 271.42 2054.25 274.638 Q2051.31 277.879 2045.24 277.879 Q2043 277.879 2041.01 277.531 Q2039.02 277.207 2037.14 276.513 L2037.14 272.369 Q2039.02 273.388 2040.84 273.874 Q2042.67 274.36 2044.57 274.36 Q2048.76 274.36 2050.84 272.161 Q2052.93 269.985 2052.93 265.564 L2052.93 263.457 Q2051.61 265.749 2049.55 266.883 Q2047.49 268.018 2044.62 268.018 Q2039.85 268.018 2036.93 264.383 Q2034.02 260.749 2034.02 254.754 Q2034.02 248.735 2036.93 245.101 Q2039.85 241.467 2044.62 241.467 Q2047.49 241.467 2049.55 242.601 Q2051.61 243.735 2052.93 246.027 L2052.93 242.092 L2057.19 242.092 L2057.19 264.8 Z" fill="#000000" fill-rule="evenodd" fill-opacity="1" /><path clip-path="url(#clip560)" d="M2088.14 253.99 L2088.14 256.073 L2068.55 256.073 Q2068.83 260.471 2071.19 262.786 Q2073.58 265.078 2077.81 265.078 Q2080.27 265.078 2082.56 264.476 Q2084.87 263.874 2087.14 262.67 L2087.14 266.698 Q2084.85 267.67 2082.44 268.18 Q2080.03 268.689 2077.56 268.689 Q2071.35 268.689 2067.72 265.078 Q2064.11 261.467 2064.11 255.309 Q2064.11 248.944 2067.53 245.217 Q2070.98 241.467 2076.82 241.467 Q2082.05 241.467 2085.08 244.846 Q2088.14 248.203 2088.14 253.99 M2083.88 252.74 Q2083.83 249.245 2081.91 247.161 Q2080.01 245.078 2076.86 245.078 Q2073.3 245.078 2071.15 247.092 Q2069.02 249.106 2068.69 252.763 L2083.88 252.74 Z" fill="#000000" fill-rule="evenodd" fill-opacity="1" /><path clip-path="url(#clip560)" d="M2096.21 262.138 L2101.1 262.138 L2101.1 266.119 L2097.3 273.527 L2094.32 273.527 L2096.21 266.119 L2096.21 262.138 Z" fill="#000000" fill-rule="evenodd" fill-opacity="1" /><path clip-path="url(#clip560)" d="M2125.45 233.458 L2147.3 233.458 L2147.3 237.393 L2130.13 237.393 L2130.13 247.624 L2146.58 247.624 L2146.58 251.559 L2130.13 251.559 L2130.13 264.082 L2147.72 264.082 L2147.72 268.018 L2125.45 268.018 L2125.45 233.458 Z" fill="#000000" fill-rule="evenodd" fill-opacity="1" /><path clip-path="url(#clip560)" d="M2176.77 242.092 L2167.39 254.707 L2177.26 268.018 L2172.23 268.018 L2164.69 257.832 L2157.14 268.018 L2152.12 268.018 L2162.19 254.453 L2152.97 242.092 L2158 242.092 L2164.87 251.328 L2171.75 242.092 L2176.77 242.092 Z" fill="#000000" fill-rule="evenodd" fill-opacity="1" /><path clip-path="url(#clip560)" d="M2195.06 254.985 Q2189.89 254.985 2187.9 256.166 Q2185.91 257.346 2185.91 260.194 Q2185.91 262.462 2187.39 263.805 Q2188.9 265.124 2191.47 265.124 Q2195.01 265.124 2197.14 262.624 Q2199.29 260.101 2199.29 255.934 L2199.29 254.985 L2195.06 254.985 M2203.55 253.226 L2203.55 268.018 L2199.29 268.018 L2199.29 264.082 Q2197.83 266.443 2195.66 267.578 Q2193.48 268.689 2190.33 268.689 Q2186.35 268.689 2183.99 266.467 Q2181.65 264.221 2181.65 260.471 Q2181.65 256.096 2184.57 253.874 Q2187.51 251.652 2193.32 251.652 L2199.29 251.652 L2199.29 251.235 Q2199.29 248.295 2197.35 246.698 Q2195.43 245.078 2191.93 245.078 Q2189.71 245.078 2187.6 245.61 Q2185.5 246.143 2183.55 247.207 L2183.55 243.272 Q2185.89 242.37 2188.09 241.93 Q2190.29 241.467 2192.37 241.467 Q2198 241.467 2200.77 244.383 Q2203.55 247.3 2203.55 253.226 Z" fill="#000000" fill-rule="evenodd" fill-opacity="1" /><path clip-path="url(#clip560)" d="M2230.98 243.087 L2230.98 247.069 Q2229.18 246.073 2227.35 245.587 Q2225.54 245.078 2223.69 245.078 Q2219.55 245.078 2217.26 247.717 Q2214.96 250.332 2214.96 255.078 Q2214.96 259.823 2217.26 262.462 Q2219.55 265.078 2223.69 265.078 Q2225.54 265.078 2227.35 264.592 Q2229.18 264.082 2230.98 263.087 L2230.98 267.022 Q2229.2 267.856 2227.28 268.272 Q2225.38 268.689 2223.23 268.689 Q2217.37 268.689 2213.92 265.008 Q2210.47 261.328 2210.47 255.078 Q2210.47 248.735 2213.95 245.101 Q2217.44 241.467 2223.51 241.467 Q2225.47 241.467 2227.35 241.883 Q2229.22 242.277 2230.98 243.087 Z" fill="#000000" fill-rule="evenodd" fill-opacity="1" /><path clip-path="url(#clip560)" d="M2242.6 234.731 L2242.6 242.092 L2251.38 242.092 L2251.38 245.402 L2242.6 245.402 L2242.6 259.476 Q2242.6 262.647 2243.46 263.55 Q2244.34 264.453 2247 264.453 L2251.38 264.453 L2251.38 268.018 L2247 268.018 Q2242.07 268.018 2240.2 266.189 Q2238.32 264.337 2238.32 259.476 L2238.32 245.402 L2235.2 245.402 L2235.2 242.092 L2238.32 242.092 L2238.32 234.731 L2242.6 234.731 Z" fill="#000000" fill-rule="evenodd" fill-opacity="1" /><polyline clip-path="url(#clip560)" style="stroke:#c271d2; stroke-linecap:round; stroke-linejoin:round; stroke-width:8; stroke-opacity:1; fill:none" points="1468.95,302.578 1615.36,302.578 "/>
<path clip-path="url(#clip560)" d="M1639.76 285.298 L1646.73 285.298 L1655.55 308.816 L1664.41 285.298 L1671.38 285.298 L1671.38 319.858 L1666.82 319.858 L1666.82 289.51 L1657.91 313.214 L1653.21 313.214 L1644.3 289.51 L1644.3 319.858 L1639.76 319.858 L1639.76 285.298 Z" fill="#000000" fill-rule="evenodd" fill-opacity="1" /><path clip-path="url(#clip560)" d="M1702.65 305.83 L1702.65 307.913 L1683.07 307.913 Q1683.35 312.311 1685.71 314.626 Q1688.09 316.918 1692.33 316.918 Q1694.78 316.918 1697.07 316.316 Q1699.39 315.714 1701.66 314.51 L1701.66 318.538 Q1699.36 319.51 1696.96 320.02 Q1694.55 320.529 1692.07 320.529 Q1685.87 320.529 1682.24 316.918 Q1678.62 313.307 1678.62 307.149 Q1678.62 300.784 1682.05 297.057 Q1685.5 293.307 1691.33 293.307 Q1696.56 293.307 1699.6 296.686 Q1702.65 300.043 1702.65 305.83 M1698.39 304.58 Q1698.35 301.085 1696.43 299.001 Q1694.53 296.918 1691.38 296.918 Q1687.81 296.918 1685.66 298.932 Q1683.53 300.946 1683.21 304.603 L1698.39 304.58 Z" fill="#000000" fill-rule="evenodd" fill-opacity="1" /><path clip-path="url(#clip560)" d="M1721.42 306.825 Q1716.26 306.825 1714.27 308.006 Q1712.28 309.186 1712.28 312.034 Q1712.28 314.302 1713.76 315.645 Q1715.27 316.964 1717.84 316.964 Q1721.38 316.964 1723.51 314.464 Q1725.66 311.941 1725.66 307.774 L1725.66 306.825 L1721.42 306.825 M1729.92 305.066 L1729.92 319.858 L1725.66 319.858 L1725.66 315.922 Q1724.2 318.283 1722.03 319.418 Q1719.85 320.529 1716.7 320.529 Q1712.72 320.529 1710.36 318.307 Q1708.02 316.061 1708.02 312.311 Q1708.02 307.936 1710.94 305.714 Q1713.88 303.492 1719.69 303.492 L1725.66 303.492 L1725.66 303.075 Q1725.66 300.135 1723.72 298.538 Q1721.8 296.918 1718.3 296.918 Q1716.08 296.918 1713.97 297.45 Q1711.86 297.983 1709.92 299.047 L1709.92 295.112 Q1712.26 294.21 1714.46 293.77 Q1716.66 293.307 1718.74 293.307 Q1724.36 293.307 1727.14 296.223 Q1729.92 299.14 1729.92 305.066 Z" fill="#000000" fill-rule="evenodd" fill-opacity="1" /><path clip-path="url(#clip560)" d="M1760.24 304.209 L1760.24 319.858 L1755.98 319.858 L1755.98 304.348 Q1755.98 300.668 1754.55 298.839 Q1753.11 297.01 1750.24 297.01 Q1746.8 297.01 1744.8 299.21 Q1742.81 301.409 1742.81 305.205 L1742.81 319.858 L1738.53 319.858 L1738.53 293.932 L1742.81 293.932 L1742.81 297.96 Q1744.34 295.622 1746.4 294.464 Q1748.48 293.307 1751.19 293.307 Q1755.66 293.307 1757.95 296.085 Q1760.24 298.839 1760.24 304.209 Z" fill="#000000" fill-rule="evenodd" fill-opacity="1" /><path clip-path="url(#clip560)" d="M1788.67 289.14 L1788.67 316.015 L1794.32 316.015 Q1801.47 316.015 1804.78 312.774 Q1808.11 309.534 1808.11 302.543 Q1808.11 295.598 1804.78 292.381 Q1801.47 289.14 1794.32 289.14 L1788.67 289.14 M1783.99 285.298 L1793.6 285.298 Q1803.65 285.298 1808.35 289.487 Q1813.04 293.654 1813.04 302.543 Q1813.04 311.478 1808.32 315.668 Q1803.6 319.858 1793.6 319.858 L1783.99 319.858 L1783.99 285.298 Z" fill="#000000" fill-rule="evenodd" fill-opacity="1" /><path clip-path="url(#clip560)" d="M1820.31 293.932 L1824.57 293.932 L1824.57 319.858 L1820.31 319.858 L1820.31 293.932 M1820.31 283.839 L1824.57 283.839 L1824.57 289.233 L1820.31 289.233 L1820.31 283.839 Z" fill="#000000" fill-rule="evenodd" fill-opacity="1" /><path clip-path="url(#clip560)" d="M1850.01 294.696 L1850.01 298.723 Q1848.21 297.797 1846.26 297.335 Q1844.32 296.872 1842.23 296.872 Q1839.06 296.872 1837.47 297.844 Q1835.89 298.816 1835.89 300.76 Q1835.89 302.242 1837.03 303.098 Q1838.16 303.932 1841.59 304.696 L1843.04 305.02 Q1847.58 305.992 1849.48 307.774 Q1851.4 309.534 1851.4 312.705 Q1851.4 316.316 1848.53 318.422 Q1845.68 320.529 1840.68 320.529 Q1838.6 320.529 1836.33 320.112 Q1834.09 319.719 1831.59 318.908 L1831.59 314.51 Q1833.95 315.737 1836.24 316.362 Q1838.53 316.964 1840.78 316.964 Q1843.79 316.964 1845.41 315.946 Q1847.03 314.904 1847.03 313.029 Q1847.03 311.293 1845.85 310.367 Q1844.69 309.441 1840.73 308.584 L1839.25 308.237 Q1835.29 307.404 1833.53 305.691 Q1831.77 303.955 1831.77 300.946 Q1831.77 297.288 1834.36 295.298 Q1836.96 293.307 1841.73 293.307 Q1844.09 293.307 1846.17 293.654 Q1848.25 294.001 1850.01 294.696 Z" fill="#000000" fill-rule="evenodd" fill-opacity="1" /><path clip-path="url(#clip560)" d="M1862.3 315.969 L1862.3 329.719 L1858.02 329.719 L1858.02 293.932 L1862.3 293.932 L1862.3 297.867 Q1863.65 295.552 1865.68 294.441 Q1867.74 293.307 1870.59 293.307 Q1875.31 293.307 1878.25 297.057 Q1881.22 300.807 1881.22 306.918 Q1881.22 313.029 1878.25 316.779 Q1875.31 320.529 1870.59 320.529 Q1867.74 320.529 1865.68 319.418 Q1863.65 318.283 1862.3 315.969 M1876.79 306.918 Q1876.79 302.219 1874.85 299.557 Q1872.93 296.872 1869.55 296.872 Q1866.17 296.872 1864.23 299.557 Q1862.3 302.219 1862.3 306.918 Q1862.3 311.617 1864.23 314.302 Q1866.17 316.964 1869.55 316.964 Q1872.93 316.964 1874.85 314.302 Q1876.79 311.617 1876.79 306.918 Z" fill="#000000" fill-rule="evenodd" fill-opacity="1" /><path clip-path="url(#clip560)" d="M1888.28 283.839 L1892.54 283.839 L1892.54 319.858 L1888.28 319.858 L1888.28 283.839 Z" fill="#000000" fill-rule="evenodd" fill-opacity="1" /><path clip-path="url(#clip560)" d="M1913.23 306.825 Q1908.07 306.825 1906.08 308.006 Q1904.09 309.186 1904.09 312.034 Q1904.09 314.302 1905.57 315.645 Q1907.07 316.964 1909.64 316.964 Q1913.18 316.964 1915.31 314.464 Q1917.47 311.941 1917.47 307.774 L1917.47 306.825 L1913.23 306.825 M1921.72 305.066 L1921.72 319.858 L1917.47 319.858 L1917.47 315.922 Q1916.01 318.283 1913.83 319.418 Q1911.66 320.529 1908.51 320.529 Q1904.53 320.529 1902.16 318.307 Q1899.83 316.061 1899.83 312.311 Q1899.83 307.936 1902.74 305.714 Q1905.68 303.492 1911.49 303.492 L1917.47 303.492 L1917.47 303.075 Q1917.47 300.135 1915.52 298.538 Q1913.6 296.918 1910.1 296.918 Q1907.88 296.918 1905.78 297.45 Q1903.67 297.983 1901.72 299.047 L1901.72 295.112 Q1904.06 294.21 1906.26 293.77 Q1908.46 293.307 1910.54 293.307 Q1916.17 293.307 1918.95 296.223 Q1921.72 299.14 1921.72 305.066 Z" fill="#000000" fill-rule="evenodd" fill-opacity="1" /><path clip-path="url(#clip560)" d="M1949.16 294.927 L1949.16 298.909 Q1947.35 297.913 1945.52 297.427 Q1943.72 296.918 1941.86 296.918 Q1937.72 296.918 1935.43 299.557 Q1933.14 302.172 1933.14 306.918 Q1933.14 311.663 1935.43 314.302 Q1937.72 316.918 1941.86 316.918 Q1943.72 316.918 1945.52 316.432 Q1947.35 315.922 1949.16 314.927 L1949.16 318.862 Q1947.37 319.696 1945.45 320.112 Q1943.55 320.529 1941.4 320.529 Q1935.54 320.529 1932.1 316.848 Q1928.65 313.168 1928.65 306.918 Q1928.65 300.575 1932.12 296.941 Q1935.61 293.307 1941.68 293.307 Q1943.65 293.307 1945.52 293.723 Q1947.4 294.117 1949.16 294.927 Z" fill="#000000" fill-rule="evenodd" fill-opacity="1" /><path clip-path="url(#clip560)" d="M1978.74 305.83 L1978.74 307.913 L1959.16 307.913 Q1959.43 312.311 1961.79 314.626 Q1964.18 316.918 1968.41 316.918 Q1970.87 316.918 1973.16 316.316 Q1975.47 315.714 1977.74 314.51 L1977.74 318.538 Q1975.45 319.51 1973.04 320.02 Q1970.64 320.529 1968.16 320.529 Q1961.96 320.529 1958.32 316.918 Q1954.71 313.307 1954.71 307.149 Q1954.71 300.784 1958.14 297.057 Q1961.59 293.307 1967.42 293.307 Q1972.65 293.307 1975.68 296.686 Q1978.74 300.043 1978.74 305.83 M1974.48 304.58 Q1974.43 301.085 1972.51 299.001 Q1970.61 296.918 1967.47 296.918 Q1963.9 296.918 1961.75 298.932 Q1959.62 300.946 1959.29 304.603 L1974.48 304.58 Z" fill="#000000" fill-rule="evenodd" fill-opacity="1" /><path clip-path="url(#clip560)" d="M2005.91 298.909 Q2007.51 296.038 2009.73 294.673 Q2011.96 293.307 2014.96 293.307 Q2019.02 293.307 2021.21 296.154 Q2023.41 298.978 2023.41 304.209 L2023.41 319.858 L2019.13 319.858 L2019.13 304.348 Q2019.13 300.622 2017.81 298.816 Q2016.49 297.01 2013.78 297.01 Q2010.47 297.01 2008.55 299.21 Q2006.63 301.409 2006.63 305.205 L2006.63 319.858 L2002.35 319.858 L2002.35 304.348 Q2002.35 300.598 2001.03 298.816 Q1999.71 297.01 1996.96 297.01 Q1993.69 297.01 1991.77 299.233 Q1989.85 301.432 1989.85 305.205 L1989.85 319.858 L1985.57 319.858 L1985.57 293.932 L1989.85 293.932 L1989.85 297.96 Q1991.31 295.575 1993.34 294.441 Q1995.38 293.307 1998.18 293.307 Q2001.01 293.307 2002.97 294.742 Q2004.97 296.177 2005.91 298.909 Z" fill="#000000" fill-rule="evenodd" fill-opacity="1" /><path clip-path="url(#clip560)" d="M2054.09 305.83 L2054.09 307.913 L2034.5 307.913 Q2034.78 312.311 2037.14 314.626 Q2039.53 316.918 2043.76 316.918 Q2046.21 316.918 2048.51 316.316 Q2050.82 315.714 2053.09 314.51 L2053.09 318.538 Q2050.8 319.51 2048.39 320.02 Q2045.98 320.529 2043.51 320.529 Q2037.3 320.529 2033.67 316.918 Q2030.06 313.307 2030.06 307.149 Q2030.06 300.784 2033.48 297.057 Q2036.93 293.307 2042.77 293.307 Q2048 293.307 2051.03 296.686 Q2054.09 300.043 2054.09 305.83 M2049.83 304.58 Q2049.78 301.085 2047.86 299.001 Q2045.96 296.918 2042.81 296.918 Q2039.25 296.918 2037.09 298.932 Q2034.96 300.946 2034.64 304.603 L2049.83 304.58 Z" fill="#000000" fill-rule="evenodd" fill-opacity="1" /><path clip-path="url(#clip560)" d="M2082.63 304.209 L2082.63 319.858 L2078.37 319.858 L2078.37 304.348 Q2078.37 300.668 2076.93 298.839 Q2075.5 297.01 2072.63 297.01 Q2069.18 297.01 2067.19 299.21 Q2065.2 301.409 2065.2 305.205 L2065.2 319.858 L2060.91 319.858 L2060.91 293.932 L2065.2 293.932 L2065.2 297.96 Q2066.72 295.622 2068.78 294.464 Q2070.87 293.307 2073.58 293.307 Q2078.04 293.307 2080.34 296.085 Q2082.63 298.839 2082.63 304.209 Z" fill="#000000" fill-rule="evenodd" fill-opacity="1" /><path clip-path="url(#clip560)" d="M2095.33 286.571 L2095.33 293.932 L2104.11 293.932 L2104.11 297.242 L2095.33 297.242 L2095.33 311.316 Q2095.33 314.487 2096.19 315.39 Q2097.07 316.293 2099.73 316.293 L2104.11 316.293 L2104.11 319.858 L2099.73 319.858 Q2094.8 319.858 2092.93 318.029 Q2091.05 316.177 2091.05 311.316 L2091.05 297.242 L2087.93 297.242 L2087.93 293.932 L2091.05 293.932 L2091.05 286.571 L2095.33 286.571 Z" fill="#000000" fill-rule="evenodd" fill-opacity="1" /><path clip-path="url(#clip560)" d="M2129.64 289.14 L2129.64 316.015 L2135.29 316.015 Q2142.44 316.015 2145.75 312.774 Q2149.08 309.534 2149.08 302.543 Q2149.08 295.598 2145.75 292.381 Q2142.44 289.14 2135.29 289.14 L2129.64 289.14 M2124.96 285.298 L2134.57 285.298 Q2144.62 285.298 2149.32 289.487 Q2154.02 293.654 2154.02 302.543 Q2154.02 311.478 2149.29 315.668 Q2144.57 319.858 2134.57 319.858 L2124.96 319.858 L2124.96 285.298 Z" fill="#000000" fill-rule="evenodd" fill-opacity="1" /><path clip-path="url(#clip560)" d="M2161.28 293.932 L2165.54 293.932 L2165.54 319.858 L2161.28 319.858 L2161.28 293.932 M2161.28 283.839 L2165.54 283.839 L2165.54 289.233 L2161.28 289.233 L2161.28 283.839 Z" fill="#000000" fill-rule="evenodd" fill-opacity="1" /><path clip-path="url(#clip560)" d="M2186.24 306.825 Q2181.08 306.825 2179.08 308.006 Q2177.09 309.186 2177.09 312.034 Q2177.09 314.302 2178.58 315.645 Q2180.08 316.964 2182.65 316.964 Q2186.19 316.964 2188.32 314.464 Q2190.47 311.941 2190.47 307.774 L2190.47 306.825 L2186.24 306.825 M2194.73 305.066 L2194.73 319.858 L2190.47 319.858 L2190.47 315.922 Q2189.01 318.283 2186.84 319.418 Q2184.66 320.529 2181.52 320.529 Q2177.53 320.529 2175.17 318.307 Q2172.83 316.061 2172.83 312.311 Q2172.83 307.936 2175.75 305.714 Q2178.69 303.492 2184.5 303.492 L2190.47 303.492 L2190.47 303.075 Q2190.47 300.135 2188.53 298.538 Q2186.61 296.918 2183.11 296.918 Q2180.89 296.918 2178.78 297.45 Q2176.68 297.983 2174.73 299.047 L2174.73 295.112 Q2177.07 294.21 2179.27 293.77 Q2181.47 293.307 2183.55 293.307 Q2189.18 293.307 2191.95 296.223 Q2194.73 299.14 2194.73 305.066 Z" fill="#000000" fill-rule="evenodd" fill-opacity="1" /><path clip-path="url(#clip560)" d="M2220.57 306.594 Q2220.57 301.964 2218.64 299.418 Q2216.75 296.872 2213.3 296.872 Q2209.87 296.872 2207.95 299.418 Q2206.05 301.964 2206.05 306.594 Q2206.05 311.2 2207.95 313.746 Q2209.87 316.293 2213.3 316.293 Q2216.75 316.293 2218.64 313.746 Q2220.57 311.2 2220.57 306.594 M2224.82 316.64 Q2224.82 323.26 2221.89 326.478 Q2218.95 329.719 2212.88 329.719 Q2210.64 329.719 2208.64 329.371 Q2206.65 329.047 2204.78 328.353 L2204.78 324.209 Q2206.65 325.228 2208.48 325.714 Q2210.31 326.2 2212.21 326.2 Q2216.4 326.2 2218.48 324.001 Q2220.57 321.825 2220.57 317.404 L2220.57 315.297 Q2219.25 317.589 2217.19 318.723 Q2215.13 319.858 2212.26 319.858 Q2207.49 319.858 2204.57 316.223 Q2201.65 312.589 2201.65 306.594 Q2201.65 300.575 2204.57 296.941 Q2207.49 293.307 2212.26 293.307 Q2215.13 293.307 2217.19 294.441 Q2219.25 295.575 2220.57 297.867 L2220.57 293.932 L2224.82 293.932 L2224.82 316.64 Z" fill="#000000" fill-rule="evenodd" fill-opacity="1" /><path clip-path="url(#clip560)" d="M2255.15 304.209 L2255.15 319.858 L2250.89 319.858 L2250.89 304.348 Q2250.89 300.668 2249.45 298.839 Q2248.02 297.01 2245.15 297.01 Q2241.7 297.01 2239.71 299.21 Q2237.72 301.409 2237.72 305.205 L2237.72 319.858 L2233.44 319.858 L2233.44 293.932 L2237.72 293.932 L2237.72 297.96 Q2239.25 295.622 2241.31 294.464 Q2243.39 293.307 2246.1 293.307 Q2250.57 293.307 2252.86 296.085 Q2255.15 298.839 2255.15 304.209 Z" fill="#000000" fill-rule="evenodd" fill-opacity="1" /><polyline clip-path="url(#clip560)" style="stroke:#000000; stroke-linecap:round; stroke-linejoin:round; stroke-width:4; stroke-opacity:1; fill:none" stroke-dasharray="16, 10" points="1468.95,354.418 1615.36,354.418 "/>
<path clip-path="url(#clip560)" d="M1639.76 337.138 L1646.73 337.138 L1655.55 360.656 L1664.41 337.138 L1671.38 337.138 L1671.38 371.698 L1666.82 371.698 L1666.82 341.35 L1657.91 365.054 L1653.21 365.054 L1644.3 341.35 L1644.3 371.698 L1639.76 371.698 L1639.76 337.138 Z" fill="#000000" fill-rule="evenodd" fill-opacity="1" /><path clip-path="url(#clip560)" d="M1702.65 357.67 L1702.65 359.753 L1683.07 359.753 Q1683.35 364.151 1685.71 366.466 Q1688.09 368.758 1692.33 368.758 Q1694.78 368.758 1697.07 368.156 Q1699.39 367.554 1701.66 366.35 L1701.66 370.378 Q1699.36 371.35 1696.96 371.86 Q1694.55 372.369 1692.07 372.369 Q1685.87 372.369 1682.24 368.758 Q1678.62 365.147 1678.62 358.989 Q1678.62 352.624 1682.05 348.897 Q1685.5 345.147 1691.33 345.147 Q1696.56 345.147 1699.6 348.526 Q1702.65 351.883 1702.65 357.67 M1698.39 356.42 Q1698.35 352.925 1696.43 350.841 Q1694.53 348.758 1691.38 348.758 Q1687.81 348.758 1685.66 350.772 Q1683.53 352.786 1683.21 356.443 L1698.39 356.42 Z" fill="#000000" fill-rule="evenodd" fill-opacity="1" /><path clip-path="url(#clip560)" d="M1721.42 358.665 Q1716.26 358.665 1714.27 359.846 Q1712.28 361.026 1712.28 363.874 Q1712.28 366.142 1713.76 367.485 Q1715.27 368.804 1717.84 368.804 Q1721.38 368.804 1723.51 366.304 Q1725.66 363.781 1725.66 359.614 L1725.66 358.665 L1721.42 358.665 M1729.92 356.906 L1729.92 371.698 L1725.66 371.698 L1725.66 367.762 Q1724.2 370.123 1722.03 371.258 Q1719.85 372.369 1716.7 372.369 Q1712.72 372.369 1710.36 370.147 Q1708.02 367.901 1708.02 364.151 Q1708.02 359.776 1710.94 357.554 Q1713.88 355.332 1719.69 355.332 L1725.66 355.332 L1725.66 354.915 Q1725.66 351.975 1723.72 350.378 Q1721.8 348.758 1718.3 348.758 Q1716.08 348.758 1713.97 349.29 Q1711.86 349.823 1709.92 350.887 L1709.92 346.952 Q1712.26 346.05 1714.46 345.61 Q1716.66 345.147 1718.74 345.147 Q1724.36 345.147 1727.14 348.063 Q1729.92 350.98 1729.92 356.906 Z" fill="#000000" fill-rule="evenodd" fill-opacity="1" /><path clip-path="url(#clip560)" d="M1760.24 356.049 L1760.24 371.698 L1755.98 371.698 L1755.98 356.188 Q1755.98 352.508 1754.55 350.679 Q1753.11 348.85 1750.24 348.85 Q1746.8 348.85 1744.8 351.05 Q1742.81 353.249 1742.81 357.045 L1742.81 371.698 L1738.53 371.698 L1738.53 345.772 L1742.81 345.772 L1742.81 349.8 Q1744.34 347.462 1746.4 346.304 Q1748.48 345.147 1751.19 345.147 Q1755.66 345.147 1757.95 347.925 Q1760.24 350.679 1760.24 356.049 Z" fill="#000000" fill-rule="evenodd" fill-opacity="1" /><path clip-path="url(#clip560)" d="M1788.67 340.98 L1788.67 367.855 L1794.32 367.855 Q1801.47 367.855 1804.78 364.614 Q1808.11 361.374 1808.11 354.383 Q1808.11 347.438 1804.78 344.221 Q1801.47 340.98 1794.32 340.98 L1788.67 340.98 M1783.99 337.138 L1793.6 337.138 Q1803.65 337.138 1808.35 341.327 Q1813.04 345.494 1813.04 354.383 Q1813.04 363.318 1808.32 367.508 Q1803.6 371.698 1793.6 371.698 L1783.99 371.698 L1783.99 337.138 Z" fill="#000000" fill-rule="evenodd" fill-opacity="1" /><path clip-path="url(#clip560)" d="M1820.31 345.772 L1824.57 345.772 L1824.57 371.698 L1820.31 371.698 L1820.31 345.772 M1820.31 335.679 L1824.57 335.679 L1824.57 341.073 L1820.31 341.073 L1820.31 335.679 Z" fill="#000000" fill-rule="evenodd" fill-opacity="1" /><path clip-path="url(#clip560)" d="M1850.01 346.536 L1850.01 350.563 Q1848.21 349.637 1846.26 349.175 Q1844.32 348.712 1842.23 348.712 Q1839.06 348.712 1837.47 349.684 Q1835.89 350.656 1835.89 352.6 Q1835.89 354.082 1837.03 354.938 Q1838.16 355.772 1841.59 356.536 L1843.04 356.86 Q1847.58 357.832 1849.48 359.614 Q1851.4 361.374 1851.4 364.545 Q1851.4 368.156 1848.53 370.262 Q1845.68 372.369 1840.68 372.369 Q1838.6 372.369 1836.33 371.952 Q1834.09 371.559 1831.59 370.748 L1831.59 366.35 Q1833.95 367.577 1836.24 368.202 Q1838.53 368.804 1840.78 368.804 Q1843.79 368.804 1845.41 367.786 Q1847.03 366.744 1847.03 364.869 Q1847.03 363.133 1845.85 362.207 Q1844.69 361.281 1840.73 360.424 L1839.25 360.077 Q1835.29 359.244 1833.53 357.531 Q1831.77 355.795 1831.77 352.786 Q1831.77 349.128 1834.36 347.138 Q1836.96 345.147 1841.73 345.147 Q1844.09 345.147 1846.17 345.494 Q1848.25 345.841 1850.01 346.536 Z" fill="#000000" fill-rule="evenodd" fill-opacity="1" /><path clip-path="url(#clip560)" d="M1862.3 367.809 L1862.3 381.559 L1858.02 381.559 L1858.02 345.772 L1862.3 345.772 L1862.3 349.707 Q1863.65 347.392 1865.68 346.281 Q1867.74 345.147 1870.59 345.147 Q1875.31 345.147 1878.25 348.897 Q1881.22 352.647 1881.22 358.758 Q1881.22 364.869 1878.25 368.619 Q1875.31 372.369 1870.59 372.369 Q1867.74 372.369 1865.68 371.258 Q1863.65 370.123 1862.3 367.809 M1876.79 358.758 Q1876.79 354.059 1874.85 351.397 Q1872.93 348.712 1869.55 348.712 Q1866.17 348.712 1864.23 351.397 Q1862.3 354.059 1862.3 358.758 Q1862.3 363.457 1864.23 366.142 Q1866.17 368.804 1869.55 368.804 Q1872.93 368.804 1874.85 366.142 Q1876.79 363.457 1876.79 358.758 Z" fill="#000000" fill-rule="evenodd" fill-opacity="1" /><path clip-path="url(#clip560)" d="M1888.28 335.679 L1892.54 335.679 L1892.54 371.698 L1888.28 371.698 L1888.28 335.679 Z" fill="#000000" fill-rule="evenodd" fill-opacity="1" /><path clip-path="url(#clip560)" d="M1913.23 358.665 Q1908.07 358.665 1906.08 359.846 Q1904.09 361.026 1904.09 363.874 Q1904.09 366.142 1905.57 367.485 Q1907.07 368.804 1909.64 368.804 Q1913.18 368.804 1915.31 366.304 Q1917.47 363.781 1917.47 359.614 L1917.47 358.665 L1913.23 358.665 M1921.72 356.906 L1921.72 371.698 L1917.47 371.698 L1917.47 367.762 Q1916.01 370.123 1913.83 371.258 Q1911.66 372.369 1908.51 372.369 Q1904.53 372.369 1902.16 370.147 Q1899.83 367.901 1899.83 364.151 Q1899.83 359.776 1902.74 357.554 Q1905.68 355.332 1911.49 355.332 L1917.47 355.332 L1917.47 354.915 Q1917.47 351.975 1915.52 350.378 Q1913.6 348.758 1910.1 348.758 Q1907.88 348.758 1905.78 349.29 Q1903.67 349.823 1901.72 350.887 L1901.72 346.952 Q1904.06 346.05 1906.26 345.61 Q1908.46 345.147 1910.54 345.147 Q1916.17 345.147 1918.95 348.063 Q1921.72 350.98 1921.72 356.906 Z" fill="#000000" fill-rule="evenodd" fill-opacity="1" /><path clip-path="url(#clip560)" d="M1949.16 346.767 L1949.16 350.749 Q1947.35 349.753 1945.52 349.267 Q1943.72 348.758 1941.86 348.758 Q1937.72 348.758 1935.43 351.397 Q1933.14 354.012 1933.14 358.758 Q1933.14 363.503 1935.43 366.142 Q1937.72 368.758 1941.86 368.758 Q1943.72 368.758 1945.52 368.272 Q1947.35 367.762 1949.16 366.767 L1949.16 370.702 Q1947.37 371.536 1945.45 371.952 Q1943.55 372.369 1941.4 372.369 Q1935.54 372.369 1932.1 368.688 Q1928.65 365.008 1928.65 358.758 Q1928.65 352.415 1932.12 348.781 Q1935.61 345.147 1941.68 345.147 Q1943.65 345.147 1945.52 345.563 Q1947.4 345.957 1949.16 346.767 Z" fill="#000000" fill-rule="evenodd" fill-opacity="1" /><path clip-path="url(#clip560)" d="M1978.74 357.67 L1978.74 359.753 L1959.16 359.753 Q1959.43 364.151 1961.79 366.466 Q1964.18 368.758 1968.41 368.758 Q1970.87 368.758 1973.16 368.156 Q1975.47 367.554 1977.74 366.35 L1977.74 370.378 Q1975.45 371.35 1973.04 371.86 Q1970.64 372.369 1968.16 372.369 Q1961.96 372.369 1958.32 368.758 Q1954.71 365.147 1954.71 358.989 Q1954.71 352.624 1958.14 348.897 Q1961.59 345.147 1967.42 345.147 Q1972.65 345.147 1975.68 348.526 Q1978.74 351.883 1978.74 357.67 M1974.48 356.42 Q1974.43 352.925 1972.51 350.841 Q1970.61 348.758 1967.47 348.758 Q1963.9 348.758 1961.75 350.772 Q1959.62 352.786 1959.29 356.443 L1974.48 356.42 Z" fill="#000000" fill-rule="evenodd" fill-opacity="1" /><path clip-path="url(#clip560)" d="M2005.91 350.749 Q2007.51 347.878 2009.73 346.513 Q2011.96 345.147 2014.96 345.147 Q2019.02 345.147 2021.21 347.994 Q2023.41 350.818 2023.41 356.049 L2023.41 371.698 L2019.13 371.698 L2019.13 356.188 Q2019.13 352.462 2017.81 350.656 Q2016.49 348.85 2013.78 348.85 Q2010.47 348.85 2008.55 351.05 Q2006.63 353.249 2006.63 357.045 L2006.63 371.698 L2002.35 371.698 L2002.35 356.188 Q2002.35 352.438 2001.03 350.656 Q1999.71 348.85 1996.96 348.85 Q1993.69 348.85 1991.77 351.073 Q1989.85 353.272 1989.85 357.045 L1989.85 371.698 L1985.57 371.698 L1985.57 345.772 L1989.85 345.772 L1989.85 349.8 Q1991.31 347.415 1993.34 346.281 Q1995.38 345.147 1998.18 345.147 Q2001.01 345.147 2002.97 346.582 Q2004.97 348.017 2005.91 350.749 Z" fill="#000000" fill-rule="evenodd" fill-opacity="1" /><path clip-path="url(#clip560)" d="M2054.09 357.67 L2054.09 359.753 L2034.5 359.753 Q2034.78 364.151 2037.14 366.466 Q2039.53 368.758 2043.76 368.758 Q2046.21 368.758 2048.51 368.156 Q2050.82 367.554 2053.09 366.35 L2053.09 370.378 Q2050.8 371.35 2048.39 371.86 Q2045.98 372.369 2043.51 372.369 Q2037.3 372.369 2033.67 368.758 Q2030.06 365.147 2030.06 358.989 Q2030.06 352.624 2033.48 348.897 Q2036.93 345.147 2042.77 345.147 Q2048 345.147 2051.03 348.526 Q2054.09 351.883 2054.09 357.67 M2049.83 356.42 Q2049.78 352.925 2047.86 350.841 Q2045.96 348.758 2042.81 348.758 Q2039.25 348.758 2037.09 350.772 Q2034.96 352.786 2034.64 356.443 L2049.83 356.42 Z" fill="#000000" fill-rule="evenodd" fill-opacity="1" /><path clip-path="url(#clip560)" d="M2082.63 356.049 L2082.63 371.698 L2078.37 371.698 L2078.37 356.188 Q2078.37 352.508 2076.93 350.679 Q2075.5 348.85 2072.63 348.85 Q2069.18 348.85 2067.19 351.05 Q2065.2 353.249 2065.2 357.045 L2065.2 371.698 L2060.91 371.698 L2060.91 345.772 L2065.2 345.772 L2065.2 349.8 Q2066.72 347.462 2068.78 346.304 Q2070.87 345.147 2073.58 345.147 Q2078.04 345.147 2080.34 347.925 Q2082.63 350.679 2082.63 356.049 Z" fill="#000000" fill-rule="evenodd" fill-opacity="1" /><path clip-path="url(#clip560)" d="M2095.33 338.411 L2095.33 345.772 L2104.11 345.772 L2104.11 349.082 L2095.33 349.082 L2095.33 363.156 Q2095.33 366.327 2096.19 367.23 Q2097.07 368.133 2099.73 368.133 L2104.11 368.133 L2104.11 371.698 L2099.73 371.698 Q2094.8 371.698 2092.93 369.869 Q2091.05 368.017 2091.05 363.156 L2091.05 349.082 L2087.93 349.082 L2087.93 345.772 L2091.05 345.772 L2091.05 338.411 L2095.33 338.411 Z" fill="#000000" fill-rule="evenodd" fill-opacity="1" /><path clip-path="url(#clip560)" d="M2129.64 355.193 L2129.64 367.855 L2137.14 367.855 Q2140.91 367.855 2142.72 366.304 Q2144.55 364.73 2144.55 361.512 Q2144.55 358.272 2142.72 356.744 Q2140.91 355.193 2137.14 355.193 L2129.64 355.193 M2129.64 340.98 L2129.64 351.397 L2136.56 351.397 Q2139.99 351.397 2141.65 350.124 Q2143.34 348.827 2143.34 346.188 Q2143.34 343.573 2141.65 342.276 Q2139.99 340.98 2136.56 340.98 L2129.64 340.98 M2124.96 337.138 L2136.91 337.138 Q2142.26 337.138 2145.15 339.36 Q2148.04 341.582 2148.04 345.679 Q2148.04 348.85 2146.56 350.725 Q2145.08 352.6 2142.21 353.063 Q2145.66 353.804 2147.56 356.165 Q2149.48 358.503 2149.48 362.022 Q2149.48 366.651 2146.33 369.174 Q2143.18 371.698 2137.37 371.698 L2124.96 371.698 L2124.96 337.138 Z" fill="#000000" fill-rule="evenodd" fill-opacity="1" /><path clip-path="url(#clip560)" d="M2167.35 348.758 Q2163.92 348.758 2161.93 351.443 Q2159.94 354.105 2159.94 358.758 Q2159.94 363.411 2161.91 366.096 Q2163.9 368.758 2167.35 368.758 Q2170.75 368.758 2172.74 366.073 Q2174.73 363.387 2174.73 358.758 Q2174.73 354.151 2172.74 351.466 Q2170.75 348.758 2167.35 348.758 M2167.35 345.147 Q2172.9 345.147 2176.08 348.758 Q2179.25 352.369 2179.25 358.758 Q2179.25 365.124 2176.08 368.758 Q2172.9 372.369 2167.35 372.369 Q2161.77 372.369 2158.6 368.758 Q2155.45 365.124 2155.45 358.758 Q2155.45 352.369 2158.6 348.758 Q2161.77 345.147 2167.35 345.147 Z" fill="#000000" fill-rule="evenodd" fill-opacity="1" /><path clip-path="url(#clip560)" d="M2201.33 349.753 Q2200.61 349.337 2199.76 349.151 Q2198.92 348.943 2197.9 348.943 Q2194.29 348.943 2192.35 351.304 Q2190.43 353.642 2190.43 358.04 L2190.43 371.698 L2186.14 371.698 L2186.14 345.772 L2190.43 345.772 L2190.43 349.8 Q2191.77 347.438 2193.92 346.304 Q2196.08 345.147 2199.15 345.147 Q2199.59 345.147 2200.13 345.216 Q2200.66 345.263 2201.31 345.378 L2201.33 349.753 Z" fill="#000000" fill-rule="evenodd" fill-opacity="1" /><path clip-path="url(#clip560)" d="M2226.51 356.049 L2226.51 371.698 L2222.26 371.698 L2222.26 356.188 Q2222.26 352.508 2220.82 350.679 Q2219.39 348.85 2216.51 348.85 Q2213.07 348.85 2211.08 351.05 Q2209.08 353.249 2209.08 357.045 L2209.08 371.698 L2204.8 371.698 L2204.8 345.772 L2209.08 345.772 L2209.08 349.8 Q2210.61 347.462 2212.67 346.304 Q2214.76 345.147 2217.46 345.147 Q2221.93 345.147 2224.22 347.925 Q2226.51 350.679 2226.51 356.049 Z" fill="#000000" fill-rule="evenodd" fill-opacity="1" /></svg>
