<?xml version="1.0" encoding="utf-8"?>
<svg xmlns="http://www.w3.org/2000/svg" xmlns:xlink="http://www.w3.org/1999/xlink" width="600" height="400" viewBox="0 0 2400 1600">
<defs>
  <clipPath id="clip310">
    <rect x="0" y="0" width="2400" height="1600"/>
  </clipPath>
</defs>
<path clip-path="url(#clip310)" d="M0 1600 L2400 1600 L2400 0 L0 0  Z" fill="#ffffff" fill-rule="evenodd" fill-opacity="1"/>
<defs>
  <clipPath id="clip311">
    <rect x="480" y="0" width="1681" height="1600"/>
  </clipPath>
</defs>
<path clip-path="url(#clip310)" d="M219.866 1423.18 L2352.76 1423.18 L2352.76 47.2441 L219.866 47.2441  Z" fill="#ffffff" fill-rule="evenodd" fill-opacity="1"/>
<defs>
  <clipPath id="clip312">
    <rect x="219" y="47" width="2134" height="1377"/>
  </clipPath>
</defs>
<polyline clip-path="url(#clip312)" style="stroke:#000000; stroke-linecap:round; stroke-linejoin:round; stroke-width:2; stroke-opacity:0.1; fill:none" points="396.481,1423.18 396.481,47.2441 "/>
<polyline clip-path="url(#clip312)" style="stroke:#000000; stroke-linecap:round; stroke-linejoin:round; stroke-width:2; stroke-opacity:0.1; fill:none" points="874.918,1423.18 874.918,47.2441 "/>
<polyline clip-path="url(#clip312)" style="stroke:#000000; stroke-linecap:round; stroke-linejoin:round; stroke-width:2; stroke-opacity:0.1; fill:none" points="1353.35,1423.18 1353.35,47.2441 "/>
<polyline clip-path="url(#clip312)" style="stroke:#000000; stroke-linecap:round; stroke-linejoin:round; stroke-width:2; stroke-opacity:0.1; fill:none" points="1831.79,1423.18 1831.79,47.2441 "/>
<polyline clip-path="url(#clip312)" style="stroke:#000000; stroke-linecap:round; stroke-linejoin:round; stroke-width:2; stroke-opacity:0.1; fill:none" points="2310.23,1423.18 2310.23,47.2441 "/>
<polyline clip-path="url(#clip310)" style="stroke:#000000; stroke-linecap:round; stroke-linejoin:round; stroke-width:4; stroke-opacity:1; fill:none" points="219.866,1423.18 2352.76,1423.18 "/>
<polyline clip-path="url(#clip310)" style="stroke:#000000; stroke-linecap:round; stroke-linejoin:round; stroke-width:4; stroke-opacity:1; fill:none" points="396.481,1423.18 396.481,1404.28 "/>
<polyline clip-path="url(#clip310)" style="stroke:#000000; stroke-linecap:round; stroke-linejoin:round; stroke-width:4; stroke-opacity:1; fill:none" points="874.918,1423.18 874.918,1404.28 "/>
<polyline clip-path="url(#clip310)" style="stroke:#000000; stroke-linecap:round; stroke-linejoin:round; stroke-width:4; stroke-opacity:1; fill:none" points="1353.35,1423.18 1353.35,1404.28 "/>
<polyline clip-path="url(#clip310)" style="stroke:#000000; stroke-linecap:round; stroke-linejoin:round; stroke-width:4; stroke-opacity:1; fill:none" points="1831.79,1423.18 1831.79,1404.28 "/>
<polyline clip-path="url(#clip310)" style="stroke:#000000; stroke-linecap:round; stroke-linejoin:round; stroke-width:4; stroke-opacity:1; fill:none" points="2310.23,1423.18 2310.23,1404.28 "/>
<path clip-path="url(#clip310)" d="M358.785 1454.1 Q355.174 1454.1 353.345 1457.66 Q351.539 1461.2 351.539 1468.33 Q351.539 1475.44 353.345 1479.01 Q355.174 1482.55 358.785 1482.55 Q362.419 1482.55 364.224 1479.01 Q366.053 1475.44 366.053 1468.33 Q366.053 1461.2 364.224 1457.66 Q362.419 1454.1 358.785 1454.1 M358.785 1450.39 Q364.595 1450.39 367.65 1455 Q370.729 1459.58 370.729 1468.33 Q370.729 1477.06 367.65 1481.67 Q364.595 1486.25 358.785 1486.25 Q352.975 1486.25 349.896 1481.67 Q346.84 1477.06 346.84 1468.33 Q346.84 1459.58 349.896 1455 Q352.975 1450.39 358.785 1450.39 Z" fill="#000000" fill-rule="evenodd" fill-opacity="1" /><path clip-path="url(#clip310)" d="M378.947 1479.7 L383.831 1479.7 L383.831 1485.58 L378.947 1485.58 L378.947 1479.7 Z" fill="#000000" fill-rule="evenodd" fill-opacity="1" /><path clip-path="url(#clip310)" d="M404.016 1454.1 Q400.405 1454.1 398.576 1457.66 Q396.771 1461.2 396.771 1468.33 Q396.771 1475.44 398.576 1479.01 Q400.405 1482.55 404.016 1482.55 Q407.65 1482.55 409.456 1479.01 Q411.284 1475.44 411.284 1468.33 Q411.284 1461.2 409.456 1457.66 Q407.65 1454.1 404.016 1454.1 M404.016 1450.39 Q409.826 1450.39 412.882 1455 Q415.96 1459.58 415.96 1468.33 Q415.96 1477.06 412.882 1481.67 Q409.826 1486.25 404.016 1486.25 Q398.206 1486.25 395.127 1481.67 Q392.072 1477.06 392.072 1468.33 Q392.072 1459.58 395.127 1455 Q398.206 1450.39 404.016 1450.39 Z" fill="#000000" fill-rule="evenodd" fill-opacity="1" /><path clip-path="url(#clip310)" d="M434.178 1454.1 Q430.567 1454.1 428.738 1457.66 Q426.932 1461.2 426.932 1468.33 Q426.932 1475.44 428.738 1479.01 Q430.567 1482.55 434.178 1482.55 Q437.812 1482.55 439.618 1479.01 Q441.446 1475.44 441.446 1468.33 Q441.446 1461.2 439.618 1457.66 Q437.812 1454.1 434.178 1454.1 M434.178 1450.39 Q439.988 1450.39 443.043 1455 Q446.122 1459.58 446.122 1468.33 Q446.122 1477.06 443.043 1481.67 Q439.988 1486.25 434.178 1486.25 Q428.368 1486.25 425.289 1481.67 Q422.233 1477.06 422.233 1468.33 Q422.233 1459.58 425.289 1455 Q428.368 1450.39 434.178 1450.39 Z" fill="#000000" fill-rule="evenodd" fill-opacity="1" /><path clip-path="url(#clip310)" d="M837.719 1454.1 Q834.108 1454.1 832.279 1457.66 Q830.474 1461.2 830.474 1468.33 Q830.474 1475.44 832.279 1479.01 Q834.108 1482.55 837.719 1482.55 Q841.353 1482.55 843.159 1479.01 Q844.988 1475.44 844.988 1468.33 Q844.988 1461.2 843.159 1457.66 Q841.353 1454.1 837.719 1454.1 M837.719 1450.39 Q843.529 1450.39 846.585 1455 Q849.663 1459.58 849.663 1468.33 Q849.663 1477.06 846.585 1481.67 Q843.529 1486.25 837.719 1486.25 Q831.909 1486.25 828.83 1481.67 Q825.775 1477.06 825.775 1468.33 Q825.775 1459.58 828.83 1455 Q831.909 1450.39 837.719 1450.39 Z" fill="#000000" fill-rule="evenodd" fill-opacity="1" /><path clip-path="url(#clip310)" d="M857.881 1479.7 L862.765 1479.7 L862.765 1485.58 L857.881 1485.58 L857.881 1479.7 Z" fill="#000000" fill-rule="evenodd" fill-opacity="1" /><path clip-path="url(#clip310)" d="M876.978 1481.64 L893.297 1481.64 L893.297 1485.58 L871.353 1485.58 L871.353 1481.64 Q874.015 1478.89 878.598 1474.26 Q883.205 1469.61 884.385 1468.27 Q886.631 1465.74 887.51 1464.01 Q888.413 1462.25 888.413 1460.56 Q888.413 1457.8 886.469 1456.07 Q884.548 1454.33 881.446 1454.33 Q879.247 1454.33 876.793 1455.09 Q874.362 1455.86 871.585 1457.41 L871.585 1452.69 Q874.409 1451.55 876.862 1450.97 Q879.316 1450.39 881.353 1450.39 Q886.723 1450.39 889.918 1453.08 Q893.112 1455.77 893.112 1460.26 Q893.112 1462.39 892.302 1464.31 Q891.515 1466.2 889.409 1468.8 Q888.83 1469.47 885.728 1472.69 Q882.626 1475.88 876.978 1481.64 Z" fill="#000000" fill-rule="evenodd" fill-opacity="1" /><path clip-path="url(#clip310)" d="M903.159 1451.02 L921.515 1451.02 L921.515 1454.96 L907.441 1454.96 L907.441 1463.43 Q908.459 1463.08 909.478 1462.92 Q910.496 1462.73 911.515 1462.73 Q917.302 1462.73 920.682 1465.9 Q924.061 1469.08 924.061 1474.49 Q924.061 1480.07 920.589 1483.17 Q917.117 1486.25 910.797 1486.25 Q908.621 1486.25 906.353 1485.88 Q904.108 1485.51 901.7 1484.77 L901.7 1480.07 Q903.784 1481.2 906.006 1481.76 Q908.228 1482.32 910.705 1482.32 Q914.709 1482.32 917.047 1480.21 Q919.385 1478.1 919.385 1474.49 Q919.385 1470.88 917.047 1468.77 Q914.709 1466.67 910.705 1466.67 Q908.83 1466.67 906.955 1467.08 Q905.103 1467.5 903.159 1468.38 L903.159 1451.02 Z" fill="#000000" fill-rule="evenodd" fill-opacity="1" /><path clip-path="url(#clip310)" d="M1315.66 1454.1 Q1312.05 1454.1 1310.22 1457.66 Q1308.41 1461.2 1308.41 1468.33 Q1308.41 1475.44 1310.22 1479.01 Q1312.05 1482.55 1315.66 1482.55 Q1319.29 1482.55 1321.1 1479.01 Q1322.93 1475.44 1322.93 1468.33 Q1322.93 1461.2 1321.1 1457.66 Q1319.29 1454.1 1315.66 1454.1 M1315.66 1450.39 Q1321.47 1450.39 1324.52 1455 Q1327.6 1459.58 1327.6 1468.33 Q1327.6 1477.06 1324.52 1481.67 Q1321.47 1486.25 1315.66 1486.25 Q1309.85 1486.25 1306.77 1481.67 Q1303.71 1477.06 1303.71 1468.33 Q1303.71 1459.58 1306.77 1455 Q1309.85 1450.39 1315.66 1450.39 Z" fill="#000000" fill-rule="evenodd" fill-opacity="1" /><path clip-path="url(#clip310)" d="M1335.82 1479.7 L1340.7 1479.7 L1340.7 1485.58 L1335.82 1485.58 L1335.82 1479.7 Z" fill="#000000" fill-rule="evenodd" fill-opacity="1" /><path clip-path="url(#clip310)" d="M1350.94 1451.02 L1369.29 1451.02 L1369.29 1454.96 L1355.22 1454.96 L1355.22 1463.43 Q1356.24 1463.08 1357.26 1462.92 Q1358.27 1462.73 1359.29 1462.73 Q1365.08 1462.73 1368.46 1465.9 Q1371.84 1469.08 1371.84 1474.49 Q1371.84 1480.07 1368.37 1483.17 Q1364.89 1486.25 1358.57 1486.25 Q1356.4 1486.25 1354.13 1485.88 Q1351.88 1485.51 1349.48 1484.77 L1349.48 1480.07 Q1351.56 1481.2 1353.78 1481.76 Q1356.01 1482.32 1358.48 1482.32 Q1362.49 1482.32 1364.82 1480.21 Q1367.16 1478.1 1367.16 1474.49 Q1367.16 1470.88 1364.82 1468.77 Q1362.49 1466.67 1358.48 1466.67 Q1356.61 1466.67 1354.73 1467.08 Q1352.88 1467.5 1350.94 1468.38 L1350.94 1451.02 Z" fill="#000000" fill-rule="evenodd" fill-opacity="1" /><path clip-path="url(#clip310)" d="M1391.05 1454.1 Q1387.44 1454.1 1385.61 1457.66 Q1383.81 1461.2 1383.81 1468.33 Q1383.81 1475.44 1385.61 1479.01 Q1387.44 1482.55 1391.05 1482.55 Q1394.69 1482.55 1396.49 1479.01 Q1398.32 1475.44 1398.32 1468.33 Q1398.32 1461.2 1396.49 1457.66 Q1394.69 1454.1 1391.05 1454.1 M1391.05 1450.39 Q1396.86 1450.39 1399.92 1455 Q1403 1459.58 1403 1468.33 Q1403 1477.06 1399.92 1481.67 Q1396.86 1486.25 1391.05 1486.25 Q1385.24 1486.25 1382.16 1481.67 Q1379.11 1477.06 1379.11 1468.33 Q1379.11 1459.58 1382.16 1455 Q1385.24 1450.39 1391.05 1450.39 Z" fill="#000000" fill-rule="evenodd" fill-opacity="1" /><path clip-path="url(#clip310)" d="M1794.59 1454.1 Q1790.98 1454.1 1789.15 1457.66 Q1787.35 1461.2 1787.35 1468.33 Q1787.35 1475.44 1789.15 1479.01 Q1790.98 1482.55 1794.59 1482.55 Q1798.23 1482.55 1800.03 1479.01 Q1801.86 1475.44 1801.86 1468.33 Q1801.86 1461.2 1800.03 1457.66 Q1798.23 1454.1 1794.59 1454.1 M1794.59 1450.39 Q1800.4 1450.39 1803.46 1455 Q1806.54 1459.58 1806.54 1468.33 Q1806.54 1477.06 1803.46 1481.67 Q1800.4 1486.25 1794.59 1486.25 Q1788.78 1486.25 1785.7 1481.67 Q1782.65 1477.06 1782.65 1468.33 Q1782.65 1459.58 1785.7 1455 Q1788.78 1450.39 1794.59 1450.39 Z" fill="#000000" fill-rule="evenodd" fill-opacity="1" /><path clip-path="url(#clip310)" d="M1814.75 1479.7 L1819.64 1479.7 L1819.64 1485.58 L1814.75 1485.58 L1814.75 1479.7 Z" fill="#000000" fill-rule="evenodd" fill-opacity="1" /><path clip-path="url(#clip310)" d="M1828.64 1451.02 L1850.87 1451.02 L1850.87 1453.01 L1838.32 1485.58 L1833.43 1485.58 L1845.24 1454.96 L1828.64 1454.96 L1828.64 1451.02 Z" fill="#000000" fill-rule="evenodd" fill-opacity="1" /><path clip-path="url(#clip310)" d="M1860.03 1451.02 L1878.39 1451.02 L1878.39 1454.96 L1864.31 1454.96 L1864.31 1463.43 Q1865.33 1463.08 1866.35 1462.92 Q1867.37 1462.73 1868.39 1462.73 Q1874.18 1462.73 1877.56 1465.9 Q1880.93 1469.08 1880.93 1474.49 Q1880.93 1480.07 1877.46 1483.17 Q1873.99 1486.25 1867.67 1486.25 Q1865.49 1486.25 1863.23 1485.88 Q1860.98 1485.51 1858.57 1484.77 L1858.57 1480.07 Q1860.66 1481.2 1862.88 1481.76 Q1865.1 1482.32 1867.58 1482.32 Q1871.58 1482.32 1873.92 1480.21 Q1876.26 1478.1 1876.26 1474.49 Q1876.26 1470.88 1873.92 1468.77 Q1871.58 1466.67 1867.58 1466.67 Q1865.7 1466.67 1863.83 1467.08 Q1861.98 1467.5 1860.03 1468.38 L1860.03 1451.02 Z" fill="#000000" fill-rule="evenodd" fill-opacity="1" /><path clip-path="url(#clip310)" d="M2262.3 1481.64 L2269.94 1481.64 L2269.94 1455.28 L2261.63 1456.95 L2261.63 1452.69 L2269.89 1451.02 L2274.57 1451.02 L2274.57 1481.64 L2282.21 1481.64 L2282.21 1485.58 L2262.3 1485.58 L2262.3 1481.64 Z" fill="#000000" fill-rule="evenodd" fill-opacity="1" /><path clip-path="url(#clip310)" d="M2291.65 1479.7 L2296.54 1479.7 L2296.54 1485.58 L2291.65 1485.58 L2291.65 1479.7 Z" fill="#000000" fill-rule="evenodd" fill-opacity="1" /><path clip-path="url(#clip310)" d="M2316.72 1454.1 Q2313.11 1454.1 2311.28 1457.66 Q2309.48 1461.2 2309.48 1468.33 Q2309.48 1475.44 2311.28 1479.01 Q2313.11 1482.55 2316.72 1482.55 Q2320.36 1482.55 2322.16 1479.01 Q2323.99 1475.44 2323.99 1468.33 Q2323.99 1461.2 2322.16 1457.66 Q2320.36 1454.1 2316.72 1454.1 M2316.72 1450.39 Q2322.53 1450.39 2325.59 1455 Q2328.67 1459.58 2328.67 1468.33 Q2328.67 1477.06 2325.59 1481.67 Q2322.53 1486.25 2316.72 1486.25 Q2310.91 1486.25 2307.83 1481.67 Q2304.78 1477.06 2304.78 1468.33 Q2304.78 1459.58 2307.83 1455 Q2310.91 1450.39 2316.72 1450.39 Z" fill="#000000" fill-rule="evenodd" fill-opacity="1" /><path clip-path="url(#clip310)" d="M2346.88 1454.1 Q2343.27 1454.1 2341.44 1457.66 Q2339.64 1461.2 2339.64 1468.33 Q2339.64 1475.44 2341.44 1479.01 Q2343.27 1482.55 2346.88 1482.55 Q2350.52 1482.55 2352.32 1479.01 Q2354.15 1475.44 2354.15 1468.33 Q2354.15 1461.2 2352.32 1457.66 Q2350.52 1454.1 2346.88 1454.1 M2346.88 1450.39 Q2352.69 1450.39 2355.75 1455 Q2358.83 1459.58 2358.83 1468.33 Q2358.83 1477.06 2355.75 1481.67 Q2352.69 1486.25 2346.88 1486.25 Q2341.07 1486.25 2337.99 1481.67 Q2334.94 1477.06 2334.94 1468.33 Q2334.94 1459.58 2337.99 1455 Q2341.07 1450.39 2346.88 1450.39 Z" fill="#000000" fill-rule="evenodd" fill-opacity="1" /><path clip-path="url(#clip310)" d="M1271 1520.52 L1301.05 1520.52 L1301.05 1525.93 L1277.43 1525.93 L1277.43 1540 L1300.06 1540 L1300.06 1545.41 L1277.43 1545.41 L1277.43 1562.63 L1301.62 1562.63 L1301.62 1568.04 L1271 1568.04 L1271 1520.52 Z" fill="#000000" fill-rule="evenodd" fill-opacity="1" /><polyline clip-path="url(#clip312)" style="stroke:#000000; stroke-linecap:round; stroke-linejoin:round; stroke-width:2; stroke-opacity:0.1; fill:none" points="219.866,1384.24 2352.76,1384.24 "/>
<polyline clip-path="url(#clip312)" style="stroke:#000000; stroke-linecap:round; stroke-linejoin:round; stroke-width:2; stroke-opacity:0.1; fill:none" points="219.866,1061.79 2352.76,1061.79 "/>
<polyline clip-path="url(#clip312)" style="stroke:#000000; stroke-linecap:round; stroke-linejoin:round; stroke-width:2; stroke-opacity:0.1; fill:none" points="219.866,739.332 2352.76,739.332 "/>
<polyline clip-path="url(#clip312)" style="stroke:#000000; stroke-linecap:round; stroke-linejoin:round; stroke-width:2; stroke-opacity:0.1; fill:none" points="219.866,416.879 2352.76,416.879 "/>
<polyline clip-path="url(#clip312)" style="stroke:#000000; stroke-linecap:round; stroke-linejoin:round; stroke-width:2; stroke-opacity:0.1; fill:none" points="219.866,94.4263 2352.76,94.4263 "/>
<polyline clip-path="url(#clip310)" style="stroke:#000000; stroke-linecap:round; stroke-linejoin:round; stroke-width:4; stroke-opacity:1; fill:none" points="219.866,1423.18 219.866,47.2441 "/>
<polyline clip-path="url(#clip310)" style="stroke:#000000; stroke-linecap:round; stroke-linejoin:round; stroke-width:4; stroke-opacity:1; fill:none" points="219.866,1384.24 238.764,1384.24 "/>
<polyline clip-path="url(#clip310)" style="stroke:#000000; stroke-linecap:round; stroke-linejoin:round; stroke-width:4; stroke-opacity:1; fill:none" points="219.866,1061.79 238.764,1061.79 "/>
<polyline clip-path="url(#clip310)" style="stroke:#000000; stroke-linecap:round; stroke-linejoin:round; stroke-width:4; stroke-opacity:1; fill:none" points="219.866,739.332 238.764,739.332 "/>
<polyline clip-path="url(#clip310)" style="stroke:#000000; stroke-linecap:round; stroke-linejoin:round; stroke-width:4; stroke-opacity:1; fill:none" points="219.866,416.879 238.764,416.879 "/>
<polyline clip-path="url(#clip310)" style="stroke:#000000; stroke-linecap:round; stroke-linejoin:round; stroke-width:4; stroke-opacity:1; fill:none" points="219.866,94.4263 238.764,94.4263 "/>
<path clip-path="url(#clip310)" d="M126.691 1370.04 Q123.08 1370.04 121.251 1373.6 Q119.445 1377.14 119.445 1384.27 Q119.445 1391.38 121.251 1394.94 Q123.08 1398.49 126.691 1398.49 Q130.325 1398.49 132.13 1394.94 Q133.959 1391.38 133.959 1384.27 Q133.959 1377.14 132.13 1373.6 Q130.325 1370.04 126.691 1370.04 M126.691 1366.33 Q132.501 1366.33 135.556 1370.94 Q138.635 1375.52 138.635 1384.27 Q138.635 1393 135.556 1397.61 Q132.501 1402.19 126.691 1402.19 Q120.88 1402.19 117.802 1397.61 Q114.746 1393 114.746 1384.27 Q114.746 1375.52 117.802 1370.94 Q120.88 1366.33 126.691 1366.33 Z" fill="#000000" fill-rule="evenodd" fill-opacity="1" /><path clip-path="url(#clip310)" d="M146.853 1395.64 L151.737 1395.64 L151.737 1401.52 L146.853 1401.52 L146.853 1395.64 Z" fill="#000000" fill-rule="evenodd" fill-opacity="1" /><path clip-path="url(#clip310)" d="M171.922 1370.04 Q168.311 1370.04 166.482 1373.6 Q164.677 1377.14 164.677 1384.27 Q164.677 1391.38 166.482 1394.94 Q168.311 1398.49 171.922 1398.49 Q175.556 1398.49 177.362 1394.94 Q179.19 1391.38 179.19 1384.27 Q179.19 1377.14 177.362 1373.6 Q175.556 1370.04 171.922 1370.04 M171.922 1366.33 Q177.732 1366.33 180.788 1370.94 Q183.866 1375.52 183.866 1384.27 Q183.866 1393 180.788 1397.61 Q177.732 1402.19 171.922 1402.19 Q166.112 1402.19 163.033 1397.61 Q159.978 1393 159.978 1384.27 Q159.978 1375.52 163.033 1370.94 Q166.112 1366.33 171.922 1366.33 Z" fill="#000000" fill-rule="evenodd" fill-opacity="1" /><path clip-path="url(#clip310)" d="M128.288 1047.58 Q124.677 1047.58 122.848 1051.15 Q121.043 1054.69 121.043 1061.82 Q121.043 1068.93 122.848 1072.49 Q124.677 1076.03 128.288 1076.03 Q131.922 1076.03 133.728 1072.49 Q135.556 1068.93 135.556 1061.82 Q135.556 1054.69 133.728 1051.15 Q131.922 1047.58 128.288 1047.58 M128.288 1043.88 Q134.098 1043.88 137.154 1048.49 Q140.232 1053.07 140.232 1061.82 Q140.232 1070.55 137.154 1075.15 Q134.098 1079.74 128.288 1079.74 Q122.478 1079.74 119.399 1075.15 Q116.343 1070.55 116.343 1061.82 Q116.343 1053.07 119.399 1048.49 Q122.478 1043.88 128.288 1043.88 Z" fill="#000000" fill-rule="evenodd" fill-opacity="1" /><path clip-path="url(#clip310)" d="M148.45 1073.19 L153.334 1073.19 L153.334 1079.07 L148.45 1079.07 L148.45 1073.19 Z" fill="#000000" fill-rule="evenodd" fill-opacity="1" /><path clip-path="url(#clip310)" d="M167.547 1075.13 L183.866 1075.13 L183.866 1079.07 L161.922 1079.07 L161.922 1075.13 Q164.584 1072.38 169.167 1067.75 Q173.774 1063.09 174.954 1061.75 Q177.2 1059.23 178.079 1057.49 Q178.982 1055.73 178.982 1054.04 Q178.982 1051.29 177.038 1049.55 Q175.116 1047.82 172.014 1047.82 Q169.815 1047.82 167.362 1048.58 Q164.931 1049.34 162.153 1050.89 L162.153 1046.17 Q164.977 1045.04 167.431 1044.46 Q169.885 1043.88 171.922 1043.88 Q177.292 1043.88 180.487 1046.57 Q183.681 1049.25 183.681 1053.74 Q183.681 1055.87 182.871 1057.79 Q182.084 1059.69 179.977 1062.28 Q179.399 1062.95 176.297 1066.17 Q173.195 1069.37 167.547 1075.13 Z" fill="#000000" fill-rule="evenodd" fill-opacity="1" /><path clip-path="url(#clip310)" d="M126.205 725.131 Q122.593 725.131 120.765 728.696 Q118.959 732.237 118.959 739.367 Q118.959 746.473 120.765 750.038 Q122.593 753.58 126.205 753.58 Q129.839 753.58 131.644 750.038 Q133.473 746.473 133.473 739.367 Q133.473 732.237 131.644 728.696 Q129.839 725.131 126.205 725.131 M126.205 721.427 Q132.015 721.427 135.07 726.034 Q138.149 730.617 138.149 739.367 Q138.149 748.094 135.07 752.7 Q132.015 757.284 126.205 757.284 Q120.394 757.284 117.316 752.7 Q114.26 748.094 114.26 739.367 Q114.26 730.617 117.316 726.034 Q120.394 721.427 126.205 721.427 Z" fill="#000000" fill-rule="evenodd" fill-opacity="1" /><path clip-path="url(#clip310)" d="M146.366 750.733 L151.251 750.733 L151.251 756.612 L146.366 756.612 L146.366 750.733 Z" fill="#000000" fill-rule="evenodd" fill-opacity="1" /><path clip-path="url(#clip310)" d="M174.283 726.126 L162.477 744.575 L174.283 744.575 L174.283 726.126 M173.056 722.052 L178.936 722.052 L178.936 744.575 L183.866 744.575 L183.866 748.464 L178.936 748.464 L178.936 756.612 L174.283 756.612 L174.283 748.464 L158.681 748.464 L158.681 743.95 L173.056 722.052 Z" fill="#000000" fill-rule="evenodd" fill-opacity="1" /><path clip-path="url(#clip310)" d="M126.529 402.678 Q122.918 402.678 121.089 406.243 Q119.283 409.784 119.283 416.914 Q119.283 424.02 121.089 427.585 Q122.918 431.127 126.529 431.127 Q130.163 431.127 131.968 427.585 Q133.797 424.02 133.797 416.914 Q133.797 409.784 131.968 406.243 Q130.163 402.678 126.529 402.678 M126.529 398.974 Q132.339 398.974 135.394 403.581 Q138.473 408.164 138.473 416.914 Q138.473 425.641 135.394 430.247 Q132.339 434.831 126.529 434.831 Q120.718 434.831 117.64 430.247 Q114.584 425.641 114.584 416.914 Q114.584 408.164 117.64 403.581 Q120.718 398.974 126.529 398.974 Z" fill="#000000" fill-rule="evenodd" fill-opacity="1" /><path clip-path="url(#clip310)" d="M146.691 428.28 L151.575 428.28 L151.575 434.159 L146.691 434.159 L146.691 428.28 Z" fill="#000000" fill-rule="evenodd" fill-opacity="1" /><path clip-path="url(#clip310)" d="M172.339 415.016 Q169.19 415.016 167.339 417.169 Q165.51 419.321 165.51 423.071 Q165.51 426.798 167.339 428.974 Q169.19 431.127 172.339 431.127 Q175.487 431.127 177.315 428.974 Q179.167 426.798 179.167 423.071 Q179.167 419.321 177.315 417.169 Q175.487 415.016 172.339 415.016 M181.621 400.363 L181.621 404.622 Q179.862 403.789 178.056 403.349 Q176.274 402.909 174.514 402.909 Q169.885 402.909 167.431 406.034 Q165.001 409.159 164.653 415.479 Q166.019 413.465 168.079 412.4 Q170.139 411.312 172.616 411.312 Q177.825 411.312 180.834 414.483 Q183.866 417.632 183.866 423.071 Q183.866 428.395 180.718 431.613 Q177.57 434.831 172.339 434.831 Q166.343 434.831 163.172 430.247 Q160.001 425.641 160.001 416.914 Q160.001 408.72 163.89 403.859 Q167.778 398.974 174.329 398.974 Q176.089 398.974 177.871 399.322 Q179.676 399.669 181.621 400.363 Z" fill="#000000" fill-rule="evenodd" fill-opacity="1" /><path clip-path="url(#clip310)" d="M126.783 80.225 Q123.172 80.225 121.343 83.7898 Q119.538 87.3314 119.538 94.461 Q119.538 101.567 121.343 105.132 Q123.172 108.674 126.783 108.674 Q130.417 108.674 132.223 105.132 Q134.052 101.567 134.052 94.461 Q134.052 87.3314 132.223 83.7898 Q130.417 80.225 126.783 80.225 M126.783 76.5213 Q132.593 76.5213 135.649 81.1278 Q138.728 85.7111 138.728 94.461 Q138.728 103.188 135.649 107.794 Q132.593 112.378 126.783 112.378 Q120.973 112.378 117.894 107.794 Q114.839 103.188 114.839 94.461 Q114.839 85.7111 117.894 81.1278 Q120.973 76.5213 126.783 76.5213 Z" fill="#000000" fill-rule="evenodd" fill-opacity="1" /><path clip-path="url(#clip310)" d="M146.945 105.827 L151.829 105.827 L151.829 111.706 L146.945 111.706 L146.945 105.827 Z" fill="#000000" fill-rule="evenodd" fill-opacity="1" /><path clip-path="url(#clip310)" d="M172.014 95.2944 Q168.681 95.2944 166.76 97.0768 Q164.862 98.8592 164.862 101.984 Q164.862 105.109 166.76 106.892 Q168.681 108.674 172.014 108.674 Q175.348 108.674 177.269 106.892 Q179.19 105.086 179.19 101.984 Q179.19 98.8592 177.269 97.0768 Q175.371 95.2944 172.014 95.2944 M167.339 93.3036 Q164.329 92.5629 162.64 90.5027 Q160.973 88.4426 160.973 85.4796 Q160.973 81.3361 163.913 78.9287 Q166.876 76.5213 172.014 76.5213 Q177.176 76.5213 180.116 78.9287 Q183.056 81.3361 183.056 85.4796 Q183.056 88.4426 181.366 90.5027 Q179.7 92.5629 176.714 93.3036 Q180.093 94.0907 181.968 96.3823 Q183.866 98.674 183.866 101.984 Q183.866 107.007 180.788 109.692 Q177.732 112.378 172.014 112.378 Q166.297 112.378 163.218 109.692 Q160.163 107.007 160.163 101.984 Q160.163 98.674 162.061 96.3823 Q163.959 94.0907 167.339 93.3036 M165.626 85.9194 Q165.626 88.6046 167.292 90.1092 Q168.982 91.6138 172.014 91.6138 Q175.024 91.6138 176.714 90.1092 Q178.426 88.6046 178.426 85.9194 Q178.426 83.2342 176.714 81.7296 Q175.024 80.225 172.014 80.225 Q168.982 80.225 167.292 81.7296 Q165.626 83.2342 165.626 85.9194 Z" fill="#000000" fill-rule="evenodd" fill-opacity="1" /><path clip-path="url(#clip310)" d="M20.8447 951.36 Q20.8447 958.362 26.0645 962.5 Q31.2844 966.605 40.2919 966.605 Q49.2675 966.605 54.4874 962.5 Q59.7073 958.362 59.7073 951.36 Q59.7073 944.357 54.4874 940.283 Q49.2675 936.177 40.2919 936.177 Q31.2844 936.177 26.0645 940.283 Q20.8447 944.357 20.8447 951.36 M15.6248 951.36 Q15.6248 941.365 22.3406 935.382 Q29.0246 929.398 40.2919 929.398 Q51.5274 929.398 58.2432 935.382 Q64.9272 941.365 64.9272 951.36 Q64.9272 961.386 58.2432 967.401 Q51.5592 973.385 40.2919 973.385 Q29.0246 973.385 22.3406 967.401 Q15.6248 961.386 15.6248 951.36 Z" fill="#000000" fill-rule="evenodd" fill-opacity="1" /><path clip-path="url(#clip310)" d="M28.3562 923.796 L28.3562 917.589 L58.275 906.449 L28.3562 895.309 L28.3562 889.103 L64.0042 902.471 L64.0042 910.428 L28.3562 923.796 Z" fill="#000000" fill-rule="evenodd" fill-opacity="1" /><path clip-path="url(#clip310)" d="M44.7161 850.527 L47.5806 850.527 L47.5806 877.454 Q53.6281 877.072 56.8109 873.825 Q59.9619 870.547 59.9619 864.722 Q59.9619 861.348 59.1344 858.197 Q58.3069 855.015 56.6518 851.895 L62.1899 851.895 Q63.5267 855.046 64.227 858.357 Q64.9272 861.667 64.9272 865.072 Q64.9272 873.602 59.9619 878.6 Q54.9967 883.565 46.5303 883.565 Q37.7774 883.565 32.6531 878.854 Q27.4968 874.112 27.4968 866.091 Q27.4968 858.898 32.1438 854.728 Q36.7589 850.527 44.7161 850.527 M42.9973 856.383 Q38.1912 856.447 35.3266 859.089 Q32.4621 861.699 32.4621 866.027 Q32.4621 870.929 35.2312 873.889 Q38.0002 876.817 43.0292 877.263 L42.9973 856.383 Z" fill="#000000" fill-rule="evenodd" fill-opacity="1" /><path clip-path="url(#clip310)" d="M33.8307 820.258 Q33.2578 821.244 33.0032 822.422 Q32.7167 823.568 32.7167 824.968 Q32.7167 829.934 35.9632 832.607 Q39.1779 835.249 45.2253 835.249 L64.0042 835.249 L64.0042 841.137 L28.3562 841.137 L28.3562 835.249 L33.8944 835.249 Q30.6479 833.403 29.0883 830.443 Q27.4968 827.483 27.4968 823.25 Q27.4968 822.645 27.5923 821.913 Q27.656 821.181 27.8151 820.29 L33.8307 820.258 Z" fill="#000000" fill-rule="evenodd" fill-opacity="1" /><path clip-path="url(#clip310)" d="M14.479 814.115 L14.479 808.258 L64.0042 808.258 L64.0042 814.115 L14.479 814.115 Z" fill="#000000" fill-rule="evenodd" fill-opacity="1" /><path clip-path="url(#clip310)" d="M46.0847 779.804 Q46.0847 786.902 47.7079 789.639 Q49.3312 792.376 53.2461 792.376 Q56.3653 792.376 58.2114 790.339 Q60.0256 788.27 60.0256 784.737 Q60.0256 779.867 56.5881 776.939 Q53.1188 773.979 47.3897 773.979 L46.0847 773.979 L46.0847 779.804 M43.6657 768.123 L64.0042 768.123 L64.0042 773.979 L58.5933 773.979 Q61.8398 775.984 63.3994 778.976 Q64.9272 781.968 64.9272 786.297 Q64.9272 791.771 61.8716 795.018 Q58.7843 798.232 53.6281 798.232 Q47.6125 798.232 44.5569 794.222 Q41.5014 790.18 41.5014 782.191 L41.5014 773.979 L40.9285 773.979 Q36.8862 773.979 34.6901 776.653 Q32.4621 779.294 32.4621 784.101 Q32.4621 787.156 33.1941 790.053 Q33.9262 792.949 35.3903 795.623 L29.9795 795.623 Q28.7381 792.408 28.1334 789.384 Q27.4968 786.36 27.4968 783.496 Q27.4968 775.762 31.5072 771.942 Q35.5176 768.123 43.6657 768.123 Z" fill="#000000" fill-rule="evenodd" fill-opacity="1" /><path clip-path="url(#clip310)" d="M58.657 750.394 L77.5631 750.394 L77.5631 756.282 L28.3562 756.282 L28.3562 750.394 L33.7671 750.394 Q30.5842 748.548 29.0564 745.747 Q27.4968 742.914 27.4968 739 Q27.4968 732.507 32.6531 728.464 Q37.8093 724.39 46.212 724.39 Q54.6147 724.39 59.771 728.464 Q64.9272 732.507 64.9272 739 Q64.9272 742.914 63.3994 745.747 Q61.8398 748.548 58.657 750.394 M46.212 730.47 Q39.7508 730.47 36.0905 733.143 Q32.3984 735.785 32.3984 740.432 Q32.3984 745.079 36.0905 747.752 Q39.7508 750.394 46.212 750.394 Q52.6732 750.394 56.3653 747.752 Q60.0256 745.079 60.0256 740.432 Q60.0256 735.785 56.3653 733.143 Q52.6732 730.47 46.212 730.47 Z" fill="#000000" fill-rule="evenodd" fill-opacity="1" /><path clip-path="url(#clip310)" d="M28.3562 697.368 L28.3562 691.511 L56.1743 684.191 L28.3562 676.902 L28.3562 669.995 L56.1743 662.675 L28.3562 655.386 L28.3562 649.53 L64.0042 658.855 L64.0042 665.762 L34.7856 673.433 L64.0042 681.135 L64.0042 688.042 L28.3562 697.368 Z" fill="#000000" fill-rule="evenodd" fill-opacity="1" /><path clip-path="url(#clip310)" d="M28.3562 640.649 L28.3562 634.793 L64.0042 634.793 L64.0042 640.649 L28.3562 640.649 M14.479 640.649 L14.479 634.793 L21.895 634.793 L21.895 640.649 L14.479 640.649 Z" fill="#000000" fill-rule="evenodd" fill-opacity="1" /><path clip-path="url(#clip310)" d="M18.2347 616.746 L28.3562 616.746 L28.3562 604.683 L32.9077 604.683 L32.9077 616.746 L52.2594 616.746 Q56.6199 616.746 57.8613 615.569 Q59.1026 614.359 59.1026 610.699 L59.1026 604.683 L64.0042 604.683 L64.0042 610.699 Q64.0042 617.478 61.4897 620.056 Q58.9434 622.634 52.2594 622.634 L32.9077 622.634 L32.9077 626.931 L28.3562 626.931 L28.3562 622.634 L18.2347 622.634 L18.2347 616.746 Z" fill="#000000" fill-rule="evenodd" fill-opacity="1" /><path clip-path="url(#clip310)" d="M42.4881 567.348 L64.0042 567.348 L64.0042 573.205 L42.679 573.205 Q37.6183 573.205 35.1038 575.178 Q32.5894 577.151 32.5894 581.098 Q32.5894 585.841 35.6131 588.578 Q38.6368 591.315 43.8567 591.315 L64.0042 591.315 L64.0042 597.203 L14.479 597.203 L14.479 591.315 L33.8944 591.315 Q30.6797 589.214 29.0883 586.382 Q27.4968 583.517 27.4968 579.793 Q27.4968 573.65 31.3163 570.499 Q35.1038 567.348 42.4881 567.348 Z" fill="#000000" fill-rule="evenodd" fill-opacity="1" /><path clip-path="url(#clip310)" d="M22.818 518.81 L46.4666 527.531 L46.4666 510.057 L22.818 518.81 M16.4842 522.438 L16.4842 515.149 L64.0042 497.039 L64.0042 503.723 L51.8138 508.052 L51.8138 529.472 L64.0042 533.801 L64.0042 540.58 L16.4842 522.438 Z" fill="#000000" fill-rule="evenodd" fill-opacity="1" /><path clip-path="url(#clip312)" d="M337.179 86.1857 L337.179 1384.24 L338.545 1384.24 L338.545 86.1857 L337.179 86.1857 L337.179 86.1857  Z" fill="#009af9" fill-rule="evenodd" fill-opacity="1"/>
<polyline clip-path="url(#clip312)" style="stroke:#000000; stroke-linecap:round; stroke-linejoin:round; stroke-width:4; stroke-opacity:1; fill:none" points="337.179,86.1857 337.179,1384.24 338.545,1384.24 338.545,86.1857 337.179,86.1857 "/>
<path clip-path="url(#clip312)" d="M338.886 548.894 L338.886 1384.24 L340.252 1384.24 L340.252 548.894 L338.886 548.894 L338.886 548.894  Z" fill="#009af9" fill-rule="evenodd" fill-opacity="1"/>
<polyline clip-path="url(#clip312)" style="stroke:#000000; stroke-linecap:round; stroke-linejoin:round; stroke-width:4; stroke-opacity:1; fill:none" points="338.886,548.894 338.886,1384.24 340.252,1384.24 340.252,548.894 338.886,548.894 "/>
<path clip-path="url(#clip312)" d="M357.665 1254.42 L357.665 1384.24 L359.031 1384.24 L359.031 1254.42 L357.665 1254.42 L357.665 1254.42  Z" fill="#009af9" fill-rule="evenodd" fill-opacity="1"/>
<polyline clip-path="url(#clip312)" style="stroke:#000000; stroke-linecap:round; stroke-linejoin:round; stroke-width:4; stroke-opacity:1; fill:none" points="357.665,1254.42 357.665,1384.24 359.031,1384.24 359.031,1254.42 357.665,1254.42 "/>
<path clip-path="url(#clip312)" d="M376.815 1287.24 L376.815 1384.24 L378.181 1384.24 L378.181 1287.24 L376.815 1287.24 L376.815 1287.24  Z" fill="#009af9" fill-rule="evenodd" fill-opacity="1"/>
<polyline clip-path="url(#clip312)" style="stroke:#000000; stroke-linecap:round; stroke-linejoin:round; stroke-width:4; stroke-opacity:1; fill:none" points="376.815,1287.24 376.815,1384.24 378.181,1384.24 378.181,1287.24 376.815,1287.24 "/>
<path clip-path="url(#clip312)" d="M395.97 1300.44 L395.97 1384.24 L397.335 1384.24 L397.335 1300.44 L395.97 1300.44 L395.97 1300.44  Z" fill="#009af9" fill-rule="evenodd" fill-opacity="1"/>
<polyline clip-path="url(#clip312)" style="stroke:#000000; stroke-linecap:round; stroke-linejoin:round; stroke-width:4; stroke-opacity:1; fill:none" points="395.97,1300.44 395.97,1384.24 397.335,1384.24 397.335,1300.44 395.97,1300.44 "/>
<path clip-path="url(#clip312)" d="M415.124 1308.06 L415.124 1384.24 L416.489 1384.24 L416.489 1308.06 L415.124 1308.06 L415.124 1308.06  Z" fill="#009af9" fill-rule="evenodd" fill-opacity="1"/>
<polyline clip-path="url(#clip312)" style="stroke:#000000; stroke-linecap:round; stroke-linejoin:round; stroke-width:4; stroke-opacity:1; fill:none" points="415.124,1308.06 415.124,1384.24 416.489,1384.24 416.489,1308.06 415.124,1308.06 "/>
<path clip-path="url(#clip312)" d="M434.277 1313.21 L434.277 1384.24 L435.643 1384.24 L435.643 1313.21 L434.277 1313.21 L434.277 1313.21  Z" fill="#009af9" fill-rule="evenodd" fill-opacity="1"/>
<polyline clip-path="url(#clip312)" style="stroke:#000000; stroke-linecap:round; stroke-linejoin:round; stroke-width:4; stroke-opacity:1; fill:none" points="434.277,1313.21 434.277,1384.24 435.643,1384.24 435.643,1313.21 434.277,1313.21 "/>
<path clip-path="url(#clip312)" d="M453.429 1317.01 L453.429 1384.24 L454.795 1384.24 L454.795 1317.01 L453.429 1317.01 L453.429 1317.01  Z" fill="#009af9" fill-rule="evenodd" fill-opacity="1"/>
<polyline clip-path="url(#clip312)" style="stroke:#000000; stroke-linecap:round; stroke-linejoin:round; stroke-width:4; stroke-opacity:1; fill:none" points="453.429,1317.01 453.429,1384.24 454.795,1384.24 454.795,1317.01 453.429,1317.01 "/>
<path clip-path="url(#clip312)" d="M472.58 1319.98 L472.58 1384.24 L473.946 1384.24 L473.946 1319.98 L472.58 1319.98 L472.58 1319.98  Z" fill="#009af9" fill-rule="evenodd" fill-opacity="1"/>
<polyline clip-path="url(#clip312)" style="stroke:#000000; stroke-linecap:round; stroke-linejoin:round; stroke-width:4; stroke-opacity:1; fill:none" points="472.58,1319.98 472.58,1384.24 473.946,1384.24 473.946,1319.98 472.58,1319.98 "/>
<path clip-path="url(#clip312)" d="M491.731 1322.38 L491.731 1384.24 L493.097 1384.24 L493.097 1322.38 L491.731 1322.38 L491.731 1322.38  Z" fill="#009af9" fill-rule="evenodd" fill-opacity="1"/>
<polyline clip-path="url(#clip312)" style="stroke:#000000; stroke-linecap:round; stroke-linejoin:round; stroke-width:4; stroke-opacity:1; fill:none" points="491.731,1322.38 491.731,1384.24 493.097,1384.24 493.097,1322.38 491.731,1322.38 "/>
<path clip-path="url(#clip312)" d="M510.881 1324.39 L510.881 1384.24 L512.247 1384.24 L512.247 1324.39 L510.881 1324.39 L510.881 1324.39  Z" fill="#009af9" fill-rule="evenodd" fill-opacity="1"/>
<polyline clip-path="url(#clip312)" style="stroke:#000000; stroke-linecap:round; stroke-linejoin:round; stroke-width:4; stroke-opacity:1; fill:none" points="510.881,1324.39 510.881,1384.24 512.247,1384.24 512.247,1324.39 510.881,1324.39 "/>
<path clip-path="url(#clip312)" d="M530.031 1326.1 L530.031 1384.24 L531.397 1384.24 L531.397 1326.1 L530.031 1326.1 L530.031 1326.1  Z" fill="#009af9" fill-rule="evenodd" fill-opacity="1"/>
<polyline clip-path="url(#clip312)" style="stroke:#000000; stroke-linecap:round; stroke-linejoin:round; stroke-width:4; stroke-opacity:1; fill:none" points="530.031,1326.1 530.031,1384.24 531.397,1384.24 531.397,1326.1 530.031,1326.1 "/>
<path clip-path="url(#clip312)" d="M549.18 1327.59 L549.18 1384.24 L550.546 1384.24 L550.546 1327.59 L549.18 1327.59 L549.18 1327.59  Z" fill="#009af9" fill-rule="evenodd" fill-opacity="1"/>
<polyline clip-path="url(#clip312)" style="stroke:#000000; stroke-linecap:round; stroke-linejoin:round; stroke-width:4; stroke-opacity:1; fill:none" points="549.18,1327.59 549.18,1384.24 550.546,1384.24 550.546,1327.59 549.18,1327.59 "/>
<path clip-path="url(#clip312)" d="M568.329 1328.9 L568.329 1384.24 L569.695 1384.24 L569.695 1328.9 L568.329 1328.9 L568.329 1328.9  Z" fill="#009af9" fill-rule="evenodd" fill-opacity="1"/>
<polyline clip-path="url(#clip312)" style="stroke:#000000; stroke-linecap:round; stroke-linejoin:round; stroke-width:4; stroke-opacity:1; fill:none" points="568.329,1328.9 568.329,1384.24 569.695,1384.24 569.695,1328.9 568.329,1328.9 "/>
<path clip-path="url(#clip312)" d="M587.477 1330.06 L587.477 1384.24 L588.843 1384.24 L588.843 1330.06 L587.477 1330.06 L587.477 1330.06  Z" fill="#009af9" fill-rule="evenodd" fill-opacity="1"/>
<polyline clip-path="url(#clip312)" style="stroke:#000000; stroke-linecap:round; stroke-linejoin:round; stroke-width:4; stroke-opacity:1; fill:none" points="587.477,1330.06 587.477,1384.24 588.843,1384.24 588.843,1330.06 587.477,1330.06 "/>
<path clip-path="url(#clip312)" d="M606.625 1331.11 L606.625 1384.24 L607.991 1384.24 L607.991 1331.11 L606.625 1331.11 L606.625 1331.11  Z" fill="#009af9" fill-rule="evenodd" fill-opacity="1"/>
<polyline clip-path="url(#clip312)" style="stroke:#000000; stroke-linecap:round; stroke-linejoin:round; stroke-width:4; stroke-opacity:1; fill:none" points="606.625,1331.11 606.625,1384.24 607.991,1384.24 607.991,1331.11 606.625,1331.11 "/>
<path clip-path="url(#clip312)" d="M625.773 1332.05 L625.773 1384.24 L627.139 1384.24 L627.139 1332.05 L625.773 1332.05 L625.773 1332.05  Z" fill="#009af9" fill-rule="evenodd" fill-opacity="1"/>
<polyline clip-path="url(#clip312)" style="stroke:#000000; stroke-linecap:round; stroke-linejoin:round; stroke-width:4; stroke-opacity:1; fill:none" points="625.773,1332.05 625.773,1384.24 627.139,1384.24 627.139,1332.05 625.773,1332.05 "/>
<path clip-path="url(#clip312)" d="M644.92 1332.91 L644.92 1384.24 L646.286 1384.24 L646.286 1332.91 L644.92 1332.91 L644.92 1332.91  Z" fill="#009af9" fill-rule="evenodd" fill-opacity="1"/>
<polyline clip-path="url(#clip312)" style="stroke:#000000; stroke-linecap:round; stroke-linejoin:round; stroke-width:4; stroke-opacity:1; fill:none" points="644.92,1332.91 644.92,1384.24 646.286,1384.24 646.286,1332.91 644.92,1332.91 "/>
<path clip-path="url(#clip312)" d="M664.068 1333.7 L664.068 1384.24 L665.433 1384.24 L665.433 1333.7 L664.068 1333.7 L664.068 1333.7  Z" fill="#009af9" fill-rule="evenodd" fill-opacity="1"/>
<polyline clip-path="url(#clip312)" style="stroke:#000000; stroke-linecap:round; stroke-linejoin:round; stroke-width:4; stroke-opacity:1; fill:none" points="664.068,1333.7 664.068,1384.24 665.433,1384.24 665.433,1333.7 664.068,1333.7 "/>
<path clip-path="url(#clip312)" d="M683.215 1334.42 L683.215 1384.24 L684.58 1384.24 L684.58 1334.42 L683.215 1334.42 L683.215 1334.42  Z" fill="#009af9" fill-rule="evenodd" fill-opacity="1"/>
<polyline clip-path="url(#clip312)" style="stroke:#000000; stroke-linecap:round; stroke-linejoin:round; stroke-width:4; stroke-opacity:1; fill:none" points="683.215,1334.42 683.215,1384.24 684.58,1384.24 684.58,1334.42 683.215,1334.42 "/>
<path clip-path="url(#clip312)" d="M702.361 1335.1 L702.361 1384.24 L703.727 1384.24 L703.727 1335.1 L702.361 1335.1 L702.361 1335.1  Z" fill="#009af9" fill-rule="evenodd" fill-opacity="1"/>
<polyline clip-path="url(#clip312)" style="stroke:#000000; stroke-linecap:round; stroke-linejoin:round; stroke-width:4; stroke-opacity:1; fill:none" points="702.361,1335.1 702.361,1384.24 703.727,1384.24 703.727,1335.1 702.361,1335.1 "/>
<path clip-path="url(#clip312)" d="M721.508 1335.72 L721.508 1384.24 L722.874 1384.24 L722.874 1335.72 L721.508 1335.72 L721.508 1335.72  Z" fill="#009af9" fill-rule="evenodd" fill-opacity="1"/>
<polyline clip-path="url(#clip312)" style="stroke:#000000; stroke-linecap:round; stroke-linejoin:round; stroke-width:4; stroke-opacity:1; fill:none" points="721.508,1335.72 721.508,1384.24 722.874,1384.24 722.874,1335.72 721.508,1335.72 "/>
<path clip-path="url(#clip312)" d="M740.654 1336.3 L740.654 1384.24 L742.02 1384.24 L742.02 1336.3 L740.654 1336.3 L740.654 1336.3  Z" fill="#009af9" fill-rule="evenodd" fill-opacity="1"/>
<polyline clip-path="url(#clip312)" style="stroke:#000000; stroke-linecap:round; stroke-linejoin:round; stroke-width:4; stroke-opacity:1; fill:none" points="740.654,1336.3 740.654,1384.24 742.02,1384.24 742.02,1336.3 740.654,1336.3 "/>
<path clip-path="url(#clip312)" d="M759.8 1336.85 L759.8 1384.24 L761.166 1384.24 L761.166 1336.85 L759.8 1336.85 L759.8 1336.85  Z" fill="#009af9" fill-rule="evenodd" fill-opacity="1"/>
<polyline clip-path="url(#clip312)" style="stroke:#000000; stroke-linecap:round; stroke-linejoin:round; stroke-width:4; stroke-opacity:1; fill:none" points="759.8,1336.85 759.8,1384.24 761.166,1384.24 761.166,1336.85 759.8,1336.85 "/>
<path clip-path="url(#clip312)" d="M778.947 1337.36 L778.947 1384.24 L780.312 1384.24 L780.312 1337.36 L778.947 1337.36 L778.947 1337.36  Z" fill="#009af9" fill-rule="evenodd" fill-opacity="1"/>
<polyline clip-path="url(#clip312)" style="stroke:#000000; stroke-linecap:round; stroke-linejoin:round; stroke-width:4; stroke-opacity:1; fill:none" points="778.947,1337.36 778.947,1384.24 780.312,1384.24 780.312,1337.36 778.947,1337.36 "/>
<path clip-path="url(#clip312)" d="M798.092 1337.84 L798.092 1384.24 L799.458 1384.24 L799.458 1337.84 L798.092 1337.84 L798.092 1337.84  Z" fill="#009af9" fill-rule="evenodd" fill-opacity="1"/>
<polyline clip-path="url(#clip312)" style="stroke:#000000; stroke-linecap:round; stroke-linejoin:round; stroke-width:4; stroke-opacity:1; fill:none" points="798.092,1337.84 798.092,1384.24 799.458,1384.24 799.458,1337.84 798.092,1337.84 "/>
<path clip-path="url(#clip312)" d="M817.238 1338.29 L817.238 1384.24 L818.604 1384.24 L818.604 1338.29 L817.238 1338.29 L817.238 1338.29  Z" fill="#009af9" fill-rule="evenodd" fill-opacity="1"/>
<polyline clip-path="url(#clip312)" style="stroke:#000000; stroke-linecap:round; stroke-linejoin:round; stroke-width:4; stroke-opacity:1; fill:none" points="817.238,1338.29 817.238,1384.24 818.604,1384.24 818.604,1338.29 817.238,1338.29 "/>
<path clip-path="url(#clip312)" d="M836.384 1338.72 L836.384 1384.24 L837.75 1384.24 L837.75 1338.72 L836.384 1338.72 L836.384 1338.72  Z" fill="#009af9" fill-rule="evenodd" fill-opacity="1"/>
<polyline clip-path="url(#clip312)" style="stroke:#000000; stroke-linecap:round; stroke-linejoin:round; stroke-width:4; stroke-opacity:1; fill:none" points="836.384,1338.72 836.384,1384.24 837.75,1384.24 837.75,1338.72 836.384,1338.72 "/>
<path clip-path="url(#clip312)" d="M855.529 1339.13 L855.529 1384.24 L856.895 1384.24 L856.895 1339.13 L855.529 1339.13 L855.529 1339.13  Z" fill="#009af9" fill-rule="evenodd" fill-opacity="1"/>
<polyline clip-path="url(#clip312)" style="stroke:#000000; stroke-linecap:round; stroke-linejoin:round; stroke-width:4; stroke-opacity:1; fill:none" points="855.529,1339.13 855.529,1384.24 856.895,1384.24 856.895,1339.13 855.529,1339.13 "/>
<path clip-path="url(#clip312)" d="M874.675 1339.51 L874.675 1384.24 L876.041 1384.24 L876.041 1339.51 L874.675 1339.51 L874.675 1339.51  Z" fill="#009af9" fill-rule="evenodd" fill-opacity="1"/>
<polyline clip-path="url(#clip312)" style="stroke:#000000; stroke-linecap:round; stroke-linejoin:round; stroke-width:4; stroke-opacity:1; fill:none" points="874.675,1339.51 874.675,1384.24 876.041,1384.24 876.041,1339.51 874.675,1339.51 "/>
<path clip-path="url(#clip312)" d="M893.82 1339.88 L893.82 1384.24 L895.186 1384.24 L895.186 1339.88 L893.82 1339.88 L893.82 1339.88  Z" fill="#009af9" fill-rule="evenodd" fill-opacity="1"/>
<polyline clip-path="url(#clip312)" style="stroke:#000000; stroke-linecap:round; stroke-linejoin:round; stroke-width:4; stroke-opacity:1; fill:none" points="893.82,1339.88 893.82,1384.24 895.186,1384.24 895.186,1339.88 893.82,1339.88 "/>
<path clip-path="url(#clip312)" d="M912.965 1340.22 L912.965 1384.24 L914.331 1384.24 L914.331 1340.22 L912.965 1340.22 L912.965 1340.22  Z" fill="#009af9" fill-rule="evenodd" fill-opacity="1"/>
<polyline clip-path="url(#clip312)" style="stroke:#000000; stroke-linecap:round; stroke-linejoin:round; stroke-width:4; stroke-opacity:1; fill:none" points="912.965,1340.22 912.965,1384.24 914.331,1384.24 914.331,1340.22 912.965,1340.22 "/>
<path clip-path="url(#clip312)" d="M932.111 1340.55 L932.111 1384.24 L933.476 1384.24 L933.476 1340.55 L932.111 1340.55 L932.111 1340.55  Z" fill="#009af9" fill-rule="evenodd" fill-opacity="1"/>
<polyline clip-path="url(#clip312)" style="stroke:#000000; stroke-linecap:round; stroke-linejoin:round; stroke-width:4; stroke-opacity:1; fill:none" points="932.111,1340.55 932.111,1384.24 933.476,1384.24 933.476,1340.55 932.111,1340.55 "/>
<path clip-path="url(#clip312)" d="M951.256 1340.87 L951.256 1384.24 L952.621 1384.24 L952.621 1340.87 L951.256 1340.87 L951.256 1340.87  Z" fill="#009af9" fill-rule="evenodd" fill-opacity="1"/>
<polyline clip-path="url(#clip312)" style="stroke:#000000; stroke-linecap:round; stroke-linejoin:round; stroke-width:4; stroke-opacity:1; fill:none" points="951.256,1340.87 951.256,1384.24 952.621,1384.24 952.621,1340.87 951.256,1340.87 "/>
<path clip-path="url(#clip312)" d="M970.401 1341.17 L970.401 1384.24 L971.766 1384.24 L971.766 1341.17 L970.401 1341.17 L970.401 1341.17  Z" fill="#009af9" fill-rule="evenodd" fill-opacity="1"/>
<polyline clip-path="url(#clip312)" style="stroke:#000000; stroke-linecap:round; stroke-linejoin:round; stroke-width:4; stroke-opacity:1; fill:none" points="970.401,1341.17 970.401,1384.24 971.766,1384.24 971.766,1341.17 970.401,1341.17 "/>
<path clip-path="url(#clip312)" d="M989.545 1341.46 L989.545 1384.24 L990.911 1384.24 L990.911 1341.46 L989.545 1341.46 L989.545 1341.46  Z" fill="#009af9" fill-rule="evenodd" fill-opacity="1"/>
<polyline clip-path="url(#clip312)" style="stroke:#000000; stroke-linecap:round; stroke-linejoin:round; stroke-width:4; stroke-opacity:1; fill:none" points="989.545,1341.46 989.545,1384.24 990.911,1384.24 990.911,1341.46 989.545,1341.46 "/>
<path clip-path="url(#clip312)" d="M1008.69 1341.73 L1008.69 1384.24 L1010.06 1384.24 L1010.06 1341.73 L1008.69 1341.73 L1008.69 1341.73  Z" fill="#009af9" fill-rule="evenodd" fill-opacity="1"/>
<polyline clip-path="url(#clip312)" style="stroke:#000000; stroke-linecap:round; stroke-linejoin:round; stroke-width:4; stroke-opacity:1; fill:none" points="1008.69,1341.73 1008.69,1384.24 1010.06,1384.24 1010.06,1341.73 1008.69,1341.73 "/>
<path clip-path="url(#clip312)" d="M1027.83 1342 L1027.83 1384.24 L1029.2 1384.24 L1029.2 1342 L1027.83 1342 L1027.83 1342  Z" fill="#009af9" fill-rule="evenodd" fill-opacity="1"/>
<polyline clip-path="url(#clip312)" style="stroke:#000000; stroke-linecap:round; stroke-linejoin:round; stroke-width:4; stroke-opacity:1; fill:none" points="1027.83,1342 1027.83,1384.24 1029.2,1384.24 1029.2,1342 1027.83,1342 "/>
<path clip-path="url(#clip312)" d="M1046.98 1342.25 L1046.98 1384.24 L1048.35 1384.24 L1048.35 1342.25 L1046.98 1342.25 L1046.98 1342.25  Z" fill="#009af9" fill-rule="evenodd" fill-opacity="1"/>
<polyline clip-path="url(#clip312)" style="stroke:#000000; stroke-linecap:round; stroke-linejoin:round; stroke-width:4; stroke-opacity:1; fill:none" points="1046.98,1342.25 1046.98,1384.24 1048.35,1384.24 1048.35,1342.25 1046.98,1342.25 "/>
<path clip-path="url(#clip312)" d="M1066.12 1342.5 L1066.12 1384.24 L1067.49 1384.24 L1067.49 1342.5 L1066.12 1342.5 L1066.12 1342.5  Z" fill="#009af9" fill-rule="evenodd" fill-opacity="1"/>
<polyline clip-path="url(#clip312)" style="stroke:#000000; stroke-linecap:round; stroke-linejoin:round; stroke-width:4; stroke-opacity:1; fill:none" points="1066.12,1342.5 1066.12,1384.24 1067.49,1384.24 1067.49,1342.5 1066.12,1342.5 "/>
<path clip-path="url(#clip312)" d="M1085.27 1342.73 L1085.27 1384.24 L1086.63 1384.24 L1086.63 1342.73 L1085.27 1342.73 L1085.27 1342.73  Z" fill="#009af9" fill-rule="evenodd" fill-opacity="1"/>
<polyline clip-path="url(#clip312)" style="stroke:#000000; stroke-linecap:round; stroke-linejoin:round; stroke-width:4; stroke-opacity:1; fill:none" points="1085.27,1342.73 1085.27,1384.24 1086.63,1384.24 1086.63,1342.73 1085.27,1342.73 "/>
<path clip-path="url(#clip312)" d="M1104.41 1342.95 L1104.41 1384.24 L1105.78 1384.24 L1105.78 1342.95 L1104.41 1342.95 L1104.41 1342.95  Z" fill="#009af9" fill-rule="evenodd" fill-opacity="1"/>
<polyline clip-path="url(#clip312)" style="stroke:#000000; stroke-linecap:round; stroke-linejoin:round; stroke-width:4; stroke-opacity:1; fill:none" points="1104.41,1342.95 1104.41,1384.24 1105.78,1384.24 1105.78,1342.95 1104.41,1342.95 "/>
<path clip-path="url(#clip312)" d="M1123.56 1343.17 L1123.56 1384.24 L1124.92 1384.24 L1124.92 1343.17 L1123.56 1343.17 L1123.56 1343.17  Z" fill="#009af9" fill-rule="evenodd" fill-opacity="1"/>
<polyline clip-path="url(#clip312)" style="stroke:#000000; stroke-linecap:round; stroke-linejoin:round; stroke-width:4; stroke-opacity:1; fill:none" points="1123.56,1343.17 1123.56,1384.24 1124.92,1384.24 1124.92,1343.17 1123.56,1343.17 "/>
<path clip-path="url(#clip312)" d="M1142.7 1343.38 L1142.7 1384.24 L1144.07 1384.24 L1144.07 1343.38 L1142.7 1343.38 L1142.7 1343.38  Z" fill="#009af9" fill-rule="evenodd" fill-opacity="1"/>
<polyline clip-path="url(#clip312)" style="stroke:#000000; stroke-linecap:round; stroke-linejoin:round; stroke-width:4; stroke-opacity:1; fill:none" points="1142.7,1343.38 1142.7,1384.24 1144.07,1384.24 1144.07,1343.38 1142.7,1343.38 "/>
<path clip-path="url(#clip312)" d="M1161.85 1343.57 L1161.85 1384.24 L1163.21 1384.24 L1163.21 1343.57 L1161.85 1343.57 L1161.85 1343.57  Z" fill="#009af9" fill-rule="evenodd" fill-opacity="1"/>
<polyline clip-path="url(#clip312)" style="stroke:#000000; stroke-linecap:round; stroke-linejoin:round; stroke-width:4; stroke-opacity:1; fill:none" points="1161.85,1343.57 1161.85,1384.24 1163.21,1384.24 1163.21,1343.57 1161.85,1343.57 "/>
<path clip-path="url(#clip312)" d="M1180.99 1343.77 L1180.99 1384.24 L1182.36 1384.24 L1182.36 1343.77 L1180.99 1343.77 L1180.99 1343.77  Z" fill="#009af9" fill-rule="evenodd" fill-opacity="1"/>
<polyline clip-path="url(#clip312)" style="stroke:#000000; stroke-linecap:round; stroke-linejoin:round; stroke-width:4; stroke-opacity:1; fill:none" points="1180.99,1343.77 1180.99,1384.24 1182.36,1384.24 1182.36,1343.77 1180.99,1343.77 "/>
<path clip-path="url(#clip312)" d="M1200.13 1343.95 L1200.13 1384.24 L1201.5 1384.24 L1201.5 1343.95 L1200.13 1343.95 L1200.13 1343.95  Z" fill="#009af9" fill-rule="evenodd" fill-opacity="1"/>
<polyline clip-path="url(#clip312)" style="stroke:#000000; stroke-linecap:round; stroke-linejoin:round; stroke-width:4; stroke-opacity:1; fill:none" points="1200.13,1343.95 1200.13,1384.24 1201.5,1384.24 1201.5,1343.95 1200.13,1343.95 "/>
<path clip-path="url(#clip312)" d="M1219.28 1344.13 L1219.28 1384.24 L1220.65 1384.24 L1220.65 1344.13 L1219.28 1344.13 L1219.28 1344.13  Z" fill="#009af9" fill-rule="evenodd" fill-opacity="1"/>
<polyline clip-path="url(#clip312)" style="stroke:#000000; stroke-linecap:round; stroke-linejoin:round; stroke-width:4; stroke-opacity:1; fill:none" points="1219.28,1344.13 1219.28,1384.24 1220.65,1384.24 1220.65,1344.13 1219.28,1344.13 "/>
<path clip-path="url(#clip312)" d="M1238.42 1344.3 L1238.42 1384.24 L1239.79 1384.24 L1239.79 1344.3 L1238.42 1344.3 L1238.42 1344.3  Z" fill="#009af9" fill-rule="evenodd" fill-opacity="1"/>
<polyline clip-path="url(#clip312)" style="stroke:#000000; stroke-linecap:round; stroke-linejoin:round; stroke-width:4; stroke-opacity:1; fill:none" points="1238.42,1344.3 1238.42,1384.24 1239.79,1384.24 1239.79,1344.3 1238.42,1344.3 "/>
<path clip-path="url(#clip312)" d="M1257.57 1344.46 L1257.57 1384.24 L1258.93 1384.24 L1258.93 1344.46 L1257.57 1344.46 L1257.57 1344.46  Z" fill="#009af9" fill-rule="evenodd" fill-opacity="1"/>
<polyline clip-path="url(#clip312)" style="stroke:#000000; stroke-linecap:round; stroke-linejoin:round; stroke-width:4; stroke-opacity:1; fill:none" points="1257.57,1344.46 1257.57,1384.24 1258.93,1384.24 1258.93,1344.46 1257.57,1344.46 "/>
<path clip-path="url(#clip312)" d="M1276.71 1344.62 L1276.71 1384.24 L1278.08 1384.24 L1278.08 1344.62 L1276.71 1344.62 L1276.71 1344.62  Z" fill="#009af9" fill-rule="evenodd" fill-opacity="1"/>
<polyline clip-path="url(#clip312)" style="stroke:#000000; stroke-linecap:round; stroke-linejoin:round; stroke-width:4; stroke-opacity:1; fill:none" points="1276.71,1344.62 1276.71,1384.24 1278.08,1384.24 1278.08,1344.62 1276.71,1344.62 "/>
<path clip-path="url(#clip312)" d="M1295.86 1344.78 L1295.86 1384.24 L1297.22 1384.24 L1297.22 1344.78 L1295.86 1344.78 L1295.86 1344.78  Z" fill="#009af9" fill-rule="evenodd" fill-opacity="1"/>
<polyline clip-path="url(#clip312)" style="stroke:#000000; stroke-linecap:round; stroke-linejoin:round; stroke-width:4; stroke-opacity:1; fill:none" points="1295.86,1344.78 1295.86,1384.24 1297.22,1384.24 1297.22,1344.78 1295.86,1344.78 "/>
<path clip-path="url(#clip312)" d="M1315 1344.92 L1315 1384.24 L1316.37 1384.24 L1316.37 1344.92 L1315 1344.92 L1315 1344.92  Z" fill="#009af9" fill-rule="evenodd" fill-opacity="1"/>
<polyline clip-path="url(#clip312)" style="stroke:#000000; stroke-linecap:round; stroke-linejoin:round; stroke-width:4; stroke-opacity:1; fill:none" points="1315,1344.92 1315,1384.24 1316.37,1384.24 1316.37,1344.92 1315,1344.92 "/>
<path clip-path="url(#clip312)" d="M1334.14 1345.07 L1334.14 1384.24 L1335.51 1384.24 L1335.51 1345.07 L1334.14 1345.07 L1334.14 1345.07  Z" fill="#009af9" fill-rule="evenodd" fill-opacity="1"/>
<polyline clip-path="url(#clip312)" style="stroke:#000000; stroke-linecap:round; stroke-linejoin:round; stroke-width:4; stroke-opacity:1; fill:none" points="1334.14,1345.07 1334.14,1384.24 1335.51,1384.24 1335.51,1345.07 1334.14,1345.07 "/>
<path clip-path="url(#clip312)" d="M1353.29 1345.2 L1353.29 1384.24 L1354.65 1384.24 L1354.65 1345.2 L1353.29 1345.2 L1353.29 1345.2  Z" fill="#009af9" fill-rule="evenodd" fill-opacity="1"/>
<polyline clip-path="url(#clip312)" style="stroke:#000000; stroke-linecap:round; stroke-linejoin:round; stroke-width:4; stroke-opacity:1; fill:none" points="1353.29,1345.2 1353.29,1384.24 1354.65,1384.24 1354.65,1345.2 1353.29,1345.2 "/>
<path clip-path="url(#clip312)" d="M1372.43 1345.34 L1372.43 1384.24 L1373.8 1384.24 L1373.8 1345.34 L1372.43 1345.34 L1372.43 1345.34  Z" fill="#009af9" fill-rule="evenodd" fill-opacity="1"/>
<polyline clip-path="url(#clip312)" style="stroke:#000000; stroke-linecap:round; stroke-linejoin:round; stroke-width:4; stroke-opacity:1; fill:none" points="1372.43,1345.34 1372.43,1384.24 1373.8,1384.24 1373.8,1345.34 1372.43,1345.34 "/>
<path clip-path="url(#clip312)" d="M1391.58 1345.46 L1391.58 1384.24 L1392.94 1384.24 L1392.94 1345.46 L1391.58 1345.46 L1391.58 1345.46  Z" fill="#009af9" fill-rule="evenodd" fill-opacity="1"/>
<polyline clip-path="url(#clip312)" style="stroke:#000000; stroke-linecap:round; stroke-linejoin:round; stroke-width:4; stroke-opacity:1; fill:none" points="1391.58,1345.46 1391.58,1384.24 1392.94,1384.24 1392.94,1345.46 1391.58,1345.46 "/>
<path clip-path="url(#clip312)" d="M1410.72 1345.58 L1410.72 1384.24 L1412.09 1384.24 L1412.09 1345.58 L1410.72 1345.58 L1410.72 1345.58  Z" fill="#009af9" fill-rule="evenodd" fill-opacity="1"/>
<polyline clip-path="url(#clip312)" style="stroke:#000000; stroke-linecap:round; stroke-linejoin:round; stroke-width:4; stroke-opacity:1; fill:none" points="1410.72,1345.58 1410.72,1384.24 1412.09,1384.24 1412.09,1345.58 1410.72,1345.58 "/>
<path clip-path="url(#clip312)" d="M1429.86 1345.7 L1429.86 1384.24 L1431.23 1384.24 L1431.23 1345.7 L1429.86 1345.7 L1429.86 1345.7  Z" fill="#009af9" fill-rule="evenodd" fill-opacity="1"/>
<polyline clip-path="url(#clip312)" style="stroke:#000000; stroke-linecap:round; stroke-linejoin:round; stroke-width:4; stroke-opacity:1; fill:none" points="1429.86,1345.7 1429.86,1384.24 1431.23,1384.24 1431.23,1345.7 1429.86,1345.7 "/>
<path clip-path="url(#clip312)" d="M1449.01 1345.81 L1449.01 1384.24 L1450.37 1384.24 L1450.37 1345.81 L1449.01 1345.81 L1449.01 1345.81  Z" fill="#009af9" fill-rule="evenodd" fill-opacity="1"/>
<polyline clip-path="url(#clip312)" style="stroke:#000000; stroke-linecap:round; stroke-linejoin:round; stroke-width:4; stroke-opacity:1; fill:none" points="1449.01,1345.81 1449.01,1384.24 1450.37,1384.24 1450.37,1345.81 1449.01,1345.81 "/>
<path clip-path="url(#clip312)" d="M1468.15 1345.92 L1468.15 1384.24 L1469.52 1384.24 L1469.52 1345.92 L1468.15 1345.92 L1468.15 1345.92  Z" fill="#009af9" fill-rule="evenodd" fill-opacity="1"/>
<polyline clip-path="url(#clip312)" style="stroke:#000000; stroke-linecap:round; stroke-linejoin:round; stroke-width:4; stroke-opacity:1; fill:none" points="1468.15,1345.92 1468.15,1384.24 1469.52,1384.24 1469.52,1345.92 1468.15,1345.92 "/>
<path clip-path="url(#clip312)" d="M1487.3 1346.03 L1487.3 1384.24 L1488.66 1384.24 L1488.66 1346.03 L1487.3 1346.03 L1487.3 1346.03  Z" fill="#009af9" fill-rule="evenodd" fill-opacity="1"/>
<polyline clip-path="url(#clip312)" style="stroke:#000000; stroke-linecap:round; stroke-linejoin:round; stroke-width:4; stroke-opacity:1; fill:none" points="1487.3,1346.03 1487.3,1384.24 1488.66,1384.24 1488.66,1346.03 1487.3,1346.03 "/>
<path clip-path="url(#clip312)" d="M1506.44 1346.12 L1506.44 1384.24 L1507.81 1384.24 L1507.81 1346.12 L1506.44 1346.12 L1506.44 1346.12  Z" fill="#009af9" fill-rule="evenodd" fill-opacity="1"/>
<polyline clip-path="url(#clip312)" style="stroke:#000000; stroke-linecap:round; stroke-linejoin:round; stroke-width:4; stroke-opacity:1; fill:none" points="1506.44,1346.12 1506.44,1384.24 1507.81,1384.24 1507.81,1346.12 1506.44,1346.12 "/>
<path clip-path="url(#clip312)" d="M1525.58 1346.22 L1525.58 1384.24 L1526.95 1384.24 L1526.95 1346.22 L1525.58 1346.22 L1525.58 1346.22  Z" fill="#009af9" fill-rule="evenodd" fill-opacity="1"/>
<polyline clip-path="url(#clip312)" style="stroke:#000000; stroke-linecap:round; stroke-linejoin:round; stroke-width:4; stroke-opacity:1; fill:none" points="1525.58,1346.22 1525.58,1384.24 1526.95,1384.24 1526.95,1346.22 1525.58,1346.22 "/>
<path clip-path="url(#clip312)" d="M1544.73 1346.31 L1544.73 1384.24 L1546.09 1384.24 L1546.09 1346.31 L1544.73 1346.31 L1544.73 1346.31  Z" fill="#009af9" fill-rule="evenodd" fill-opacity="1"/>
<polyline clip-path="url(#clip312)" style="stroke:#000000; stroke-linecap:round; stroke-linejoin:round; stroke-width:4; stroke-opacity:1; fill:none" points="1544.73,1346.31 1544.73,1384.24 1546.09,1384.24 1546.09,1346.31 1544.73,1346.31 "/>
<path clip-path="url(#clip312)" d="M1563.87 1346.4 L1563.87 1384.24 L1565.24 1384.24 L1565.24 1346.4 L1563.87 1346.4 L1563.87 1346.4  Z" fill="#009af9" fill-rule="evenodd" fill-opacity="1"/>
<polyline clip-path="url(#clip312)" style="stroke:#000000; stroke-linecap:round; stroke-linejoin:round; stroke-width:4; stroke-opacity:1; fill:none" points="1563.87,1346.4 1563.87,1384.24 1565.24,1384.24 1565.24,1346.4 1563.87,1346.4 "/>
<path clip-path="url(#clip312)" d="M1583.02 1346.48 L1583.02 1384.24 L1584.38 1384.24 L1584.38 1346.48 L1583.02 1346.48 L1583.02 1346.48  Z" fill="#009af9" fill-rule="evenodd" fill-opacity="1"/>
<polyline clip-path="url(#clip312)" style="stroke:#000000; stroke-linecap:round; stroke-linejoin:round; stroke-width:4; stroke-opacity:1; fill:none" points="1583.02,1346.48 1583.02,1384.24 1584.38,1384.24 1584.38,1346.48 1583.02,1346.48 "/>
<path clip-path="url(#clip312)" d="M1602.16 1346.56 L1602.16 1384.24 L1603.53 1384.24 L1603.53 1346.56 L1602.16 1346.56 L1602.16 1346.56  Z" fill="#009af9" fill-rule="evenodd" fill-opacity="1"/>
<polyline clip-path="url(#clip312)" style="stroke:#000000; stroke-linecap:round; stroke-linejoin:round; stroke-width:4; stroke-opacity:1; fill:none" points="1602.16,1346.56 1602.16,1384.24 1603.53,1384.24 1603.53,1346.56 1602.16,1346.56 "/>
<path clip-path="url(#clip312)" d="M1621.3 1346.63 L1621.3 1384.24 L1622.67 1384.24 L1622.67 1346.63 L1621.3 1346.63 L1621.3 1346.63  Z" fill="#009af9" fill-rule="evenodd" fill-opacity="1"/>
<polyline clip-path="url(#clip312)" style="stroke:#000000; stroke-linecap:round; stroke-linejoin:round; stroke-width:4; stroke-opacity:1; fill:none" points="1621.3,1346.63 1621.3,1384.24 1622.67,1384.24 1622.67,1346.63 1621.3,1346.63 "/>
<path clip-path="url(#clip312)" d="M1640.45 1346.7 L1640.45 1384.24 L1641.81 1384.24 L1641.81 1346.7 L1640.45 1346.7 L1640.45 1346.7  Z" fill="#009af9" fill-rule="evenodd" fill-opacity="1"/>
<polyline clip-path="url(#clip312)" style="stroke:#000000; stroke-linecap:round; stroke-linejoin:round; stroke-width:4; stroke-opacity:1; fill:none" points="1640.45,1346.7 1640.45,1384.24 1641.81,1384.24 1641.81,1346.7 1640.45,1346.7 "/>
<path clip-path="url(#clip312)" d="M1659.59 1346.77 L1659.59 1384.24 L1660.96 1384.24 L1660.96 1346.77 L1659.59 1346.77 L1659.59 1346.77  Z" fill="#009af9" fill-rule="evenodd" fill-opacity="1"/>
<polyline clip-path="url(#clip312)" style="stroke:#000000; stroke-linecap:round; stroke-linejoin:round; stroke-width:4; stroke-opacity:1; fill:none" points="1659.59,1346.77 1659.59,1384.24 1660.96,1384.24 1660.96,1346.77 1659.59,1346.77 "/>
<path clip-path="url(#clip312)" d="M1678.74 1346.83 L1678.74 1384.24 L1680.1 1384.24 L1680.1 1346.83 L1678.74 1346.83 L1678.74 1346.83  Z" fill="#009af9" fill-rule="evenodd" fill-opacity="1"/>
<polyline clip-path="url(#clip312)" style="stroke:#000000; stroke-linecap:round; stroke-linejoin:round; stroke-width:4; stroke-opacity:1; fill:none" points="1678.74,1346.83 1678.74,1384.24 1680.1,1384.24 1680.1,1346.83 1678.74,1346.83 "/>
<path clip-path="url(#clip312)" d="M1697.88 1346.88 L1697.88 1384.24 L1699.25 1384.24 L1699.25 1346.88 L1697.88 1346.88 L1697.88 1346.88  Z" fill="#009af9" fill-rule="evenodd" fill-opacity="1"/>
<polyline clip-path="url(#clip312)" style="stroke:#000000; stroke-linecap:round; stroke-linejoin:round; stroke-width:4; stroke-opacity:1; fill:none" points="1697.88,1346.88 1697.88,1384.24 1699.25,1384.24 1699.25,1346.88 1697.88,1346.88 "/>
<path clip-path="url(#clip312)" d="M1717.02 1346.94 L1717.02 1384.24 L1718.39 1384.24 L1718.39 1346.94 L1717.02 1346.94 L1717.02 1346.94  Z" fill="#009af9" fill-rule="evenodd" fill-opacity="1"/>
<polyline clip-path="url(#clip312)" style="stroke:#000000; stroke-linecap:round; stroke-linejoin:round; stroke-width:4; stroke-opacity:1; fill:none" points="1717.02,1346.94 1717.02,1384.24 1718.39,1384.24 1718.39,1346.94 1717.02,1346.94 "/>
<path clip-path="url(#clip312)" d="M1736.17 1346.98 L1736.17 1384.24 L1737.53 1384.24 L1737.53 1346.98 L1736.17 1346.98 L1736.17 1346.98  Z" fill="#009af9" fill-rule="evenodd" fill-opacity="1"/>
<polyline clip-path="url(#clip312)" style="stroke:#000000; stroke-linecap:round; stroke-linejoin:round; stroke-width:4; stroke-opacity:1; fill:none" points="1736.17,1346.98 1736.17,1384.24 1737.53,1384.24 1737.53,1346.98 1736.17,1346.98 "/>
<path clip-path="url(#clip312)" d="M1755.31 1347.03 L1755.31 1384.24 L1756.68 1384.24 L1756.68 1347.03 L1755.31 1347.03 L1755.31 1347.03  Z" fill="#009af9" fill-rule="evenodd" fill-opacity="1"/>
<polyline clip-path="url(#clip312)" style="stroke:#000000; stroke-linecap:round; stroke-linejoin:round; stroke-width:4; stroke-opacity:1; fill:none" points="1755.31,1347.03 1755.31,1384.24 1756.68,1384.24 1756.68,1347.03 1755.31,1347.03 "/>
<path clip-path="url(#clip312)" d="M1774.46 1347.06 L1774.46 1384.24 L1775.82 1384.24 L1775.82 1347.06 L1774.46 1347.06 L1774.46 1347.06  Z" fill="#009af9" fill-rule="evenodd" fill-opacity="1"/>
<polyline clip-path="url(#clip312)" style="stroke:#000000; stroke-linecap:round; stroke-linejoin:round; stroke-width:4; stroke-opacity:1; fill:none" points="1774.46,1347.06 1774.46,1384.24 1775.82,1384.24 1775.82,1347.06 1774.46,1347.06 "/>
<path clip-path="url(#clip312)" d="M1793.6 1347.1 L1793.6 1384.24 L1794.97 1384.24 L1794.97 1347.1 L1793.6 1347.1 L1793.6 1347.1  Z" fill="#009af9" fill-rule="evenodd" fill-opacity="1"/>
<polyline clip-path="url(#clip312)" style="stroke:#000000; stroke-linecap:round; stroke-linejoin:round; stroke-width:4; stroke-opacity:1; fill:none" points="1793.6,1347.1 1793.6,1384.24 1794.97,1384.24 1794.97,1347.1 1793.6,1347.1 "/>
<path clip-path="url(#clip312)" d="M1812.75 1347.13 L1812.75 1384.24 L1814.11 1384.24 L1814.11 1347.13 L1812.75 1347.13 L1812.75 1347.13  Z" fill="#009af9" fill-rule="evenodd" fill-opacity="1"/>
<polyline clip-path="url(#clip312)" style="stroke:#000000; stroke-linecap:round; stroke-linejoin:round; stroke-width:4; stroke-opacity:1; fill:none" points="1812.75,1347.13 1812.75,1384.24 1814.11,1384.24 1814.11,1347.13 1812.75,1347.13 "/>
<path clip-path="url(#clip312)" d="M1831.89 1347.15 L1831.89 1384.24 L1833.26 1384.24 L1833.26 1347.15 L1831.89 1347.15 L1831.89 1347.15  Z" fill="#009af9" fill-rule="evenodd" fill-opacity="1"/>
<polyline clip-path="url(#clip312)" style="stroke:#000000; stroke-linecap:round; stroke-linejoin:round; stroke-width:4; stroke-opacity:1; fill:none" points="1831.89,1347.15 1831.89,1384.24 1833.26,1384.24 1833.26,1347.15 1831.89,1347.15 "/>
<path clip-path="url(#clip312)" d="M1851.03 1347.16 L1851.03 1384.24 L1852.4 1384.24 L1852.4 1347.16 L1851.03 1347.16 L1851.03 1347.16  Z" fill="#009af9" fill-rule="evenodd" fill-opacity="1"/>
<polyline clip-path="url(#clip312)" style="stroke:#000000; stroke-linecap:round; stroke-linejoin:round; stroke-width:4; stroke-opacity:1; fill:none" points="1851.03,1347.16 1851.03,1384.24 1852.4,1384.24 1852.4,1347.16 1851.03,1347.16 "/>
<path clip-path="url(#clip312)" d="M1870.18 1347.17 L1870.18 1384.24 L1871.54 1384.24 L1871.54 1347.17 L1870.18 1347.17 L1870.18 1347.17  Z" fill="#009af9" fill-rule="evenodd" fill-opacity="1"/>
<polyline clip-path="url(#clip312)" style="stroke:#000000; stroke-linecap:round; stroke-linejoin:round; stroke-width:4; stroke-opacity:1; fill:none" points="1870.18,1347.17 1870.18,1384.24 1871.54,1384.24 1871.54,1347.17 1870.18,1347.17 "/>
<path clip-path="url(#clip312)" d="M1889.32 1347.18 L1889.32 1384.24 L1890.69 1384.24 L1890.69 1347.18 L1889.32 1347.18 L1889.32 1347.18  Z" fill="#009af9" fill-rule="evenodd" fill-opacity="1"/>
<polyline clip-path="url(#clip312)" style="stroke:#000000; stroke-linecap:round; stroke-linejoin:round; stroke-width:4; stroke-opacity:1; fill:none" points="1889.32,1347.18 1889.32,1384.24 1890.69,1384.24 1890.69,1347.18 1889.32,1347.18 "/>
<path clip-path="url(#clip312)" d="M1908.47 1347.17 L1908.47 1384.24 L1909.83 1384.24 L1909.83 1347.17 L1908.47 1347.17 L1908.47 1347.17  Z" fill="#009af9" fill-rule="evenodd" fill-opacity="1"/>
<polyline clip-path="url(#clip312)" style="stroke:#000000; stroke-linecap:round; stroke-linejoin:round; stroke-width:4; stroke-opacity:1; fill:none" points="1908.47,1347.17 1908.47,1384.24 1909.83,1384.24 1909.83,1347.17 1908.47,1347.17 "/>
<path clip-path="url(#clip312)" d="M1927.61 1347.16 L1927.61 1384.24 L1928.98 1384.24 L1928.98 1347.16 L1927.61 1347.16 L1927.61 1347.16  Z" fill="#009af9" fill-rule="evenodd" fill-opacity="1"/>
<polyline clip-path="url(#clip312)" style="stroke:#000000; stroke-linecap:round; stroke-linejoin:round; stroke-width:4; stroke-opacity:1; fill:none" points="1927.61,1347.16 1927.61,1384.24 1928.98,1384.24 1928.98,1347.16 1927.61,1347.16 "/>
<path clip-path="url(#clip312)" d="M1946.76 1347.14 L1946.76 1384.24 L1948.13 1384.24 L1948.13 1347.14 L1946.76 1347.14 L1946.76 1347.14  Z" fill="#009af9" fill-rule="evenodd" fill-opacity="1"/>
<polyline clip-path="url(#clip312)" style="stroke:#000000; stroke-linecap:round; stroke-linejoin:round; stroke-width:4; stroke-opacity:1; fill:none" points="1946.76,1347.14 1946.76,1384.24 1948.13,1384.24 1948.13,1347.14 1946.76,1347.14 "/>
<path clip-path="url(#clip312)" d="M1965.9 1347.11 L1965.9 1384.24 L1967.27 1384.24 L1967.27 1347.11 L1965.9 1347.11 L1965.9 1347.11  Z" fill="#009af9" fill-rule="evenodd" fill-opacity="1"/>
<polyline clip-path="url(#clip312)" style="stroke:#000000; stroke-linecap:round; stroke-linejoin:round; stroke-width:4; stroke-opacity:1; fill:none" points="1965.9,1347.11 1965.9,1384.24 1967.27,1384.24 1967.27,1347.11 1965.9,1347.11 "/>
<path clip-path="url(#clip312)" d="M1985.05 1347.07 L1985.05 1384.24 L1986.42 1384.24 L1986.42 1347.07 L1985.05 1347.07 L1985.05 1347.07  Z" fill="#009af9" fill-rule="evenodd" fill-opacity="1"/>
<polyline clip-path="url(#clip312)" style="stroke:#000000; stroke-linecap:round; stroke-linejoin:round; stroke-width:4; stroke-opacity:1; fill:none" points="1985.05,1347.07 1985.05,1384.24 1986.42,1384.24 1986.42,1347.07 1985.05,1347.07 "/>
<path clip-path="url(#clip312)" d="M2004.2 1347.02 L2004.2 1384.24 L2005.56 1384.24 L2005.56 1347.02 L2004.2 1347.02 L2004.2 1347.02  Z" fill="#009af9" fill-rule="evenodd" fill-opacity="1"/>
<polyline clip-path="url(#clip312)" style="stroke:#000000; stroke-linecap:round; stroke-linejoin:round; stroke-width:4; stroke-opacity:1; fill:none" points="2004.2,1347.02 2004.2,1384.24 2005.56,1384.24 2005.56,1347.02 2004.2,1347.02 "/>
<path clip-path="url(#clip312)" d="M2023.34 1346.95 L2023.34 1384.24 L2024.71 1384.24 L2024.71 1346.95 L2023.34 1346.95 L2023.34 1346.95  Z" fill="#009af9" fill-rule="evenodd" fill-opacity="1"/>
<polyline clip-path="url(#clip312)" style="stroke:#000000; stroke-linecap:round; stroke-linejoin:round; stroke-width:4; stroke-opacity:1; fill:none" points="2023.34,1346.95 2023.34,1384.24 2024.71,1384.24 2024.71,1346.95 2023.34,1346.95 "/>
<path clip-path="url(#clip312)" d="M2042.49 1346.87 L2042.49 1384.24 L2043.86 1384.24 L2043.86 1346.87 L2042.49 1346.87 L2042.49 1346.87  Z" fill="#009af9" fill-rule="evenodd" fill-opacity="1"/>
<polyline clip-path="url(#clip312)" style="stroke:#000000; stroke-linecap:round; stroke-linejoin:round; stroke-width:4; stroke-opacity:1; fill:none" points="2042.49,1346.87 2042.49,1384.24 2043.86,1384.24 2043.86,1346.87 2042.49,1346.87 "/>
<path clip-path="url(#clip312)" d="M2061.64 1346.77 L2061.64 1384.24 L2063 1384.24 L2063 1346.77 L2061.64 1346.77 L2061.64 1346.77  Z" fill="#009af9" fill-rule="evenodd" fill-opacity="1"/>
<polyline clip-path="url(#clip312)" style="stroke:#000000; stroke-linecap:round; stroke-linejoin:round; stroke-width:4; stroke-opacity:1; fill:none" points="2061.64,1346.77 2061.64,1384.24 2063,1384.24 2063,1346.77 2061.64,1346.77 "/>
<path clip-path="url(#clip312)" d="M2080.78 1346.64 L2080.78 1384.24 L2082.15 1384.24 L2082.15 1346.64 L2080.78 1346.64 L2080.78 1346.64  Z" fill="#009af9" fill-rule="evenodd" fill-opacity="1"/>
<polyline clip-path="url(#clip312)" style="stroke:#000000; stroke-linecap:round; stroke-linejoin:round; stroke-width:4; stroke-opacity:1; fill:none" points="2080.78,1346.64 2080.78,1384.24 2082.15,1384.24 2082.15,1346.64 2080.78,1346.64 "/>
<path clip-path="url(#clip312)" d="M2099.93 1346.49 L2099.93 1384.24 L2101.3 1384.24 L2101.3 1346.49 L2099.93 1346.49 L2099.93 1346.49  Z" fill="#009af9" fill-rule="evenodd" fill-opacity="1"/>
<polyline clip-path="url(#clip312)" style="stroke:#000000; stroke-linecap:round; stroke-linejoin:round; stroke-width:4; stroke-opacity:1; fill:none" points="2099.93,1346.49 2099.93,1384.24 2101.3,1384.24 2101.3,1346.49 2099.93,1346.49 "/>
<path clip-path="url(#clip312)" d="M2119.08 1346.29 L2119.08 1384.24 L2120.45 1384.24 L2120.45 1346.29 L2119.08 1346.29 L2119.08 1346.29  Z" fill="#009af9" fill-rule="evenodd" fill-opacity="1"/>
<polyline clip-path="url(#clip312)" style="stroke:#000000; stroke-linecap:round; stroke-linejoin:round; stroke-width:4; stroke-opacity:1; fill:none" points="2119.08,1346.29 2119.08,1384.24 2120.45,1384.24 2120.45,1346.29 2119.08,1346.29 "/>
<path clip-path="url(#clip312)" d="M2138.23 1346.05 L2138.23 1384.24 L2139.6 1384.24 L2139.6 1346.05 L2138.23 1346.05 L2138.23 1346.05  Z" fill="#009af9" fill-rule="evenodd" fill-opacity="1"/>
<polyline clip-path="url(#clip312)" style="stroke:#000000; stroke-linecap:round; stroke-linejoin:round; stroke-width:4; stroke-opacity:1; fill:none" points="2138.23,1346.05 2138.23,1384.24 2139.6,1384.24 2139.6,1346.05 2138.23,1346.05 "/>
<path clip-path="url(#clip312)" d="M2157.39 1345.73 L2157.39 1384.24 L2158.75 1384.24 L2158.75 1345.73 L2157.39 1345.73 L2157.39 1345.73  Z" fill="#009af9" fill-rule="evenodd" fill-opacity="1"/>
<polyline clip-path="url(#clip312)" style="stroke:#000000; stroke-linecap:round; stroke-linejoin:round; stroke-width:4; stroke-opacity:1; fill:none" points="2157.39,1345.73 2157.39,1384.24 2158.75,1384.24 2158.75,1345.73 2157.39,1345.73 "/>
<path clip-path="url(#clip312)" d="M2176.54 1345.3 L2176.54 1384.24 L2177.91 1384.24 L2177.91 1345.3 L2176.54 1345.3 L2176.54 1345.3  Z" fill="#009af9" fill-rule="evenodd" fill-opacity="1"/>
<polyline clip-path="url(#clip312)" style="stroke:#000000; stroke-linecap:round; stroke-linejoin:round; stroke-width:4; stroke-opacity:1; fill:none" points="2176.54,1345.3 2176.54,1384.24 2177.91,1384.24 2177.91,1345.3 2176.54,1345.3 "/>
<path clip-path="url(#clip312)" d="M2195.7 1344.68 L2195.7 1384.24 L2197.07 1384.24 L2197.07 1344.68 L2195.7 1344.68 L2195.7 1344.68  Z" fill="#009af9" fill-rule="evenodd" fill-opacity="1"/>
<polyline clip-path="url(#clip312)" style="stroke:#000000; stroke-linecap:round; stroke-linejoin:round; stroke-width:4; stroke-opacity:1; fill:none" points="2195.7,1344.68 2195.7,1384.24 2197.07,1384.24 2197.07,1344.68 2195.7,1344.68 "/>
<path clip-path="url(#clip312)" d="M2214.87 1343.65 L2214.87 1384.24 L2216.24 1384.24 L2216.24 1343.65 L2214.87 1343.65 L2214.87 1343.65  Z" fill="#009af9" fill-rule="evenodd" fill-opacity="1"/>
<polyline clip-path="url(#clip312)" style="stroke:#000000; stroke-linecap:round; stroke-linejoin:round; stroke-width:4; stroke-opacity:1; fill:none" points="2214.87,1343.65 2214.87,1384.24 2216.24,1384.24 2216.24,1343.65 2214.87,1343.65 "/>
<path clip-path="url(#clip312)" d="M2234.08 1341.22 L2234.08 1384.24 L2235.44 1384.24 L2235.44 1341.22 L2234.08 1341.22 L2234.08 1341.22  Z" fill="#009af9" fill-rule="evenodd" fill-opacity="1"/>
<polyline clip-path="url(#clip312)" style="stroke:#000000; stroke-linecap:round; stroke-linejoin:round; stroke-width:4; stroke-opacity:1; fill:none" points="2234.08,1341.22 2234.08,1384.24 2235.44,1384.24 2235.44,1341.22 2234.08,1341.22 "/>
<circle clip-path="url(#clip312)" style="fill:#009af9; stroke:none; fill-opacity:0" cx="337.862" cy="86.1857" r="2"/>
<circle clip-path="url(#clip312)" style="fill:#009af9; stroke:none; fill-opacity:0" cx="339.569" cy="548.894" r="2"/>
<circle clip-path="url(#clip312)" style="fill:#009af9; stroke:none; fill-opacity:0" cx="358.348" cy="1254.42" r="2"/>
<circle clip-path="url(#clip312)" style="fill:#009af9; stroke:none; fill-opacity:0" cx="377.498" cy="1287.24" r="2"/>
<circle clip-path="url(#clip312)" style="fill:#009af9; stroke:none; fill-opacity:0" cx="396.652" cy="1300.44" r="2"/>
<circle clip-path="url(#clip312)" style="fill:#009af9; stroke:none; fill-opacity:0" cx="415.807" cy="1308.06" r="2"/>
<circle clip-path="url(#clip312)" style="fill:#009af9; stroke:none; fill-opacity:0" cx="434.96" cy="1313.21" r="2"/>
<circle clip-path="url(#clip312)" style="fill:#009af9; stroke:none; fill-opacity:0" cx="454.112" cy="1317.01" r="2"/>
<circle clip-path="url(#clip312)" style="fill:#009af9; stroke:none; fill-opacity:0" cx="473.263" cy="1319.98" r="2"/>
<circle clip-path="url(#clip312)" style="fill:#009af9; stroke:none; fill-opacity:0" cx="492.414" cy="1322.38" r="2"/>
<circle clip-path="url(#clip312)" style="fill:#009af9; stroke:none; fill-opacity:0" cx="511.564" cy="1324.39" r="2"/>
<circle clip-path="url(#clip312)" style="fill:#009af9; stroke:none; fill-opacity:0" cx="530.714" cy="1326.1" r="2"/>
<circle clip-path="url(#clip312)" style="fill:#009af9; stroke:none; fill-opacity:0" cx="549.863" cy="1327.59" r="2"/>
<circle clip-path="url(#clip312)" style="fill:#009af9; stroke:none; fill-opacity:0" cx="569.012" cy="1328.9" r="2"/>
<circle clip-path="url(#clip312)" style="fill:#009af9; stroke:none; fill-opacity:0" cx="588.16" cy="1330.06" r="2"/>
<circle clip-path="url(#clip312)" style="fill:#009af9; stroke:none; fill-opacity:0" cx="607.308" cy="1331.11" r="2"/>
<circle clip-path="url(#clip312)" style="fill:#009af9; stroke:none; fill-opacity:0" cx="626.456" cy="1332.05" r="2"/>
<circle clip-path="url(#clip312)" style="fill:#009af9; stroke:none; fill-opacity:0" cx="645.603" cy="1332.91" r="2"/>
<circle clip-path="url(#clip312)" style="fill:#009af9; stroke:none; fill-opacity:0" cx="664.75" cy="1333.7" r="2"/>
<circle clip-path="url(#clip312)" style="fill:#009af9; stroke:none; fill-opacity:0" cx="683.897" cy="1334.42" r="2"/>
<circle clip-path="url(#clip312)" style="fill:#009af9; stroke:none; fill-opacity:0" cx="703.044" cy="1335.1" r="2"/>
<circle clip-path="url(#clip312)" style="fill:#009af9; stroke:none; fill-opacity:0" cx="722.191" cy="1335.72" r="2"/>
<circle clip-path="url(#clip312)" style="fill:#009af9; stroke:none; fill-opacity:0" cx="741.337" cy="1336.3" r="2"/>
<circle clip-path="url(#clip312)" style="fill:#009af9; stroke:none; fill-opacity:0" cx="760.483" cy="1336.85" r="2"/>
<circle clip-path="url(#clip312)" style="fill:#009af9; stroke:none; fill-opacity:0" cx="779.629" cy="1337.36" r="2"/>
<circle clip-path="url(#clip312)" style="fill:#009af9; stroke:none; fill-opacity:0" cx="798.775" cy="1337.84" r="2"/>
<circle clip-path="url(#clip312)" style="fill:#009af9; stroke:none; fill-opacity:0" cx="817.921" cy="1338.29" r="2"/>
<circle clip-path="url(#clip312)" style="fill:#009af9; stroke:none; fill-opacity:0" cx="837.067" cy="1338.72" r="2"/>
<circle clip-path="url(#clip312)" style="fill:#009af9; stroke:none; fill-opacity:0" cx="856.212" cy="1339.13" r="2"/>
<circle clip-path="url(#clip312)" style="fill:#009af9; stroke:none; fill-opacity:0" cx="875.358" cy="1339.51" r="2"/>
<circle clip-path="url(#clip312)" style="fill:#009af9; stroke:none; fill-opacity:0" cx="894.503" cy="1339.88" r="2"/>
<circle clip-path="url(#clip312)" style="fill:#009af9; stroke:none; fill-opacity:0" cx="913.648" cy="1340.22" r="2"/>
<circle clip-path="url(#clip312)" style="fill:#009af9; stroke:none; fill-opacity:0" cx="932.793" cy="1340.55" r="2"/>
<circle clip-path="url(#clip312)" style="fill:#009af9; stroke:none; fill-opacity:0" cx="951.939" cy="1340.87" r="2"/>
<circle clip-path="url(#clip312)" style="fill:#009af9; stroke:none; fill-opacity:0" cx="971.083" cy="1341.17" r="2"/>
<circle clip-path="url(#clip312)" style="fill:#009af9; stroke:none; fill-opacity:0" cx="990.228" cy="1341.46" r="2"/>
<circle clip-path="url(#clip312)" style="fill:#009af9; stroke:none; fill-opacity:0" cx="1009.37" cy="1341.73" r="2"/>
<circle clip-path="url(#clip312)" style="fill:#009af9; stroke:none; fill-opacity:0" cx="1028.52" cy="1342" r="2"/>
<circle clip-path="url(#clip312)" style="fill:#009af9; stroke:none; fill-opacity:0" cx="1047.66" cy="1342.25" r="2"/>
<circle clip-path="url(#clip312)" style="fill:#009af9; stroke:none; fill-opacity:0" cx="1066.81" cy="1342.5" r="2"/>
<circle clip-path="url(#clip312)" style="fill:#009af9; stroke:none; fill-opacity:0" cx="1085.95" cy="1342.73" r="2"/>
<circle clip-path="url(#clip312)" style="fill:#009af9; stroke:none; fill-opacity:0" cx="1105.1" cy="1342.95" r="2"/>
<circle clip-path="url(#clip312)" style="fill:#009af9; stroke:none; fill-opacity:0" cx="1124.24" cy="1343.17" r="2"/>
<circle clip-path="url(#clip312)" style="fill:#009af9; stroke:none; fill-opacity:0" cx="1143.39" cy="1343.38" r="2"/>
<circle clip-path="url(#clip312)" style="fill:#009af9; stroke:none; fill-opacity:0" cx="1162.53" cy="1343.57" r="2"/>
<circle clip-path="url(#clip312)" style="fill:#009af9; stroke:none; fill-opacity:0" cx="1181.67" cy="1343.77" r="2"/>
<circle clip-path="url(#clip312)" style="fill:#009af9; stroke:none; fill-opacity:0" cx="1200.82" cy="1343.95" r="2"/>
<circle clip-path="url(#clip312)" style="fill:#009af9; stroke:none; fill-opacity:0" cx="1219.96" cy="1344.13" r="2"/>
<circle clip-path="url(#clip312)" style="fill:#009af9; stroke:none; fill-opacity:0" cx="1239.11" cy="1344.3" r="2"/>
<circle clip-path="url(#clip312)" style="fill:#009af9; stroke:none; fill-opacity:0" cx="1258.25" cy="1344.46" r="2"/>
<circle clip-path="url(#clip312)" style="fill:#009af9; stroke:none; fill-opacity:0" cx="1277.39" cy="1344.62" r="2"/>
<circle clip-path="url(#clip312)" style="fill:#009af9; stroke:none; fill-opacity:0" cx="1296.54" cy="1344.78" r="2"/>
<circle clip-path="url(#clip312)" style="fill:#009af9; stroke:none; fill-opacity:0" cx="1315.68" cy="1344.92" r="2"/>
<circle clip-path="url(#clip312)" style="fill:#009af9; stroke:none; fill-opacity:0" cx="1334.83" cy="1345.07" r="2"/>
<circle clip-path="url(#clip312)" style="fill:#009af9; stroke:none; fill-opacity:0" cx="1353.97" cy="1345.2" r="2"/>
<circle clip-path="url(#clip312)" style="fill:#009af9; stroke:none; fill-opacity:0" cx="1373.11" cy="1345.34" r="2"/>
<circle clip-path="url(#clip312)" style="fill:#009af9; stroke:none; fill-opacity:0" cx="1392.26" cy="1345.46" r="2"/>
<circle clip-path="url(#clip312)" style="fill:#009af9; stroke:none; fill-opacity:0" cx="1411.4" cy="1345.58" r="2"/>
<circle clip-path="url(#clip312)" style="fill:#009af9; stroke:none; fill-opacity:0" cx="1430.55" cy="1345.7" r="2"/>
<circle clip-path="url(#clip312)" style="fill:#009af9; stroke:none; fill-opacity:0" cx="1449.69" cy="1345.81" r="2"/>
<circle clip-path="url(#clip312)" style="fill:#009af9; stroke:none; fill-opacity:0" cx="1468.83" cy="1345.92" r="2"/>
<circle clip-path="url(#clip312)" style="fill:#009af9; stroke:none; fill-opacity:0" cx="1487.98" cy="1346.03" r="2"/>
<circle clip-path="url(#clip312)" style="fill:#009af9; stroke:none; fill-opacity:0" cx="1507.12" cy="1346.12" r="2"/>
<circle clip-path="url(#clip312)" style="fill:#009af9; stroke:none; fill-opacity:0" cx="1526.27" cy="1346.22" r="2"/>
<circle clip-path="url(#clip312)" style="fill:#009af9; stroke:none; fill-opacity:0" cx="1545.41" cy="1346.31" r="2"/>
<circle clip-path="url(#clip312)" style="fill:#009af9; stroke:none; fill-opacity:0" cx="1564.55" cy="1346.4" r="2"/>
<circle clip-path="url(#clip312)" style="fill:#009af9; stroke:none; fill-opacity:0" cx="1583.7" cy="1346.48" r="2"/>
<circle clip-path="url(#clip312)" style="fill:#009af9; stroke:none; fill-opacity:0" cx="1602.84" cy="1346.56" r="2"/>
<circle clip-path="url(#clip312)" style="fill:#009af9; stroke:none; fill-opacity:0" cx="1621.99" cy="1346.63" r="2"/>
<circle clip-path="url(#clip312)" style="fill:#009af9; stroke:none; fill-opacity:0" cx="1641.13" cy="1346.7" r="2"/>
<circle clip-path="url(#clip312)" style="fill:#009af9; stroke:none; fill-opacity:0" cx="1660.27" cy="1346.77" r="2"/>
<circle clip-path="url(#clip312)" style="fill:#009af9; stroke:none; fill-opacity:0" cx="1679.42" cy="1346.83" r="2"/>
<circle clip-path="url(#clip312)" style="fill:#009af9; stroke:none; fill-opacity:0" cx="1698.56" cy="1346.88" r="2"/>
<circle clip-path="url(#clip312)" style="fill:#009af9; stroke:none; fill-opacity:0" cx="1717.71" cy="1346.94" r="2"/>
<circle clip-path="url(#clip312)" style="fill:#009af9; stroke:none; fill-opacity:0" cx="1736.85" cy="1346.98" r="2"/>
<circle clip-path="url(#clip312)" style="fill:#009af9; stroke:none; fill-opacity:0" cx="1755.99" cy="1347.03" r="2"/>
<circle clip-path="url(#clip312)" style="fill:#009af9; stroke:none; fill-opacity:0" cx="1775.14" cy="1347.06" r="2"/>
<circle clip-path="url(#clip312)" style="fill:#009af9; stroke:none; fill-opacity:0" cx="1794.28" cy="1347.1" r="2"/>
<circle clip-path="url(#clip312)" style="fill:#009af9; stroke:none; fill-opacity:0" cx="1813.43" cy="1347.13" r="2"/>
<circle clip-path="url(#clip312)" style="fill:#009af9; stroke:none; fill-opacity:0" cx="1832.57" cy="1347.15" r="2"/>
<circle clip-path="url(#clip312)" style="fill:#009af9; stroke:none; fill-opacity:0" cx="1851.72" cy="1347.16" r="2"/>
<circle clip-path="url(#clip312)" style="fill:#009af9; stroke:none; fill-opacity:0" cx="1870.86" cy="1347.17" r="2"/>
<circle clip-path="url(#clip312)" style="fill:#009af9; stroke:none; fill-opacity:0" cx="1890.01" cy="1347.18" r="2"/>
<circle clip-path="url(#clip312)" style="fill:#009af9; stroke:none; fill-opacity:0" cx="1909.15" cy="1347.17" r="2"/>
<circle clip-path="url(#clip312)" style="fill:#009af9; stroke:none; fill-opacity:0" cx="1928.3" cy="1347.16" r="2"/>
<circle clip-path="url(#clip312)" style="fill:#009af9; stroke:none; fill-opacity:0" cx="1947.44" cy="1347.14" r="2"/>
<circle clip-path="url(#clip312)" style="fill:#009af9; stroke:none; fill-opacity:0" cx="1966.59" cy="1347.11" r="2"/>
<circle clip-path="url(#clip312)" style="fill:#009af9; stroke:none; fill-opacity:0" cx="1985.73" cy="1347.07" r="2"/>
<circle clip-path="url(#clip312)" style="fill:#009af9; stroke:none; fill-opacity:0" cx="2004.88" cy="1347.02" r="2"/>
<circle clip-path="url(#clip312)" style="fill:#009af9; stroke:none; fill-opacity:0" cx="2024.03" cy="1346.95" r="2"/>
<circle clip-path="url(#clip312)" style="fill:#009af9; stroke:none; fill-opacity:0" cx="2043.17" cy="1346.87" r="2"/>
<circle clip-path="url(#clip312)" style="fill:#009af9; stroke:none; fill-opacity:0" cx="2062.32" cy="1346.77" r="2"/>
<circle clip-path="url(#clip312)" style="fill:#009af9; stroke:none; fill-opacity:0" cx="2081.47" cy="1346.64" r="2"/>
<circle clip-path="url(#clip312)" style="fill:#009af9; stroke:none; fill-opacity:0" cx="2100.62" cy="1346.49" r="2"/>
<circle clip-path="url(#clip312)" style="fill:#009af9; stroke:none; fill-opacity:0" cx="2119.77" cy="1346.29" r="2"/>
<circle clip-path="url(#clip312)" style="fill:#009af9; stroke:none; fill-opacity:0" cx="2138.92" cy="1346.05" r="2"/>
<circle clip-path="url(#clip312)" style="fill:#009af9; stroke:none; fill-opacity:0" cx="2158.07" cy="1345.73" r="2"/>
<circle clip-path="url(#clip312)" style="fill:#009af9; stroke:none; fill-opacity:0" cx="2177.22" cy="1345.3" r="2"/>
<circle clip-path="url(#clip312)" style="fill:#009af9; stroke:none; fill-opacity:0" cx="2196.38" cy="1344.68" r="2"/>
<circle clip-path="url(#clip312)" style="fill:#009af9; stroke:none; fill-opacity:0" cx="2215.56" cy="1343.65" r="2"/>
<circle clip-path="url(#clip312)" style="fill:#009af9; stroke:none; fill-opacity:0" cx="2234.76" cy="1341.22" r="2"/>
<path clip-path="url(#clip310)" d="M2015.94 196.789 L2281.66 196.789 L2281.66 93.1086 L2015.94 93.1086  Z" fill="#ffffff" fill-rule="evenodd" fill-opacity="1"/>
<polyline clip-path="url(#clip310)" style="stroke:#000000; stroke-linecap:round; stroke-linejoin:round; stroke-width:4; stroke-opacity:1; fill:none" points="2015.94,196.789 2281.66,196.789 2281.66,93.1086 2015.94,93.1086 2015.94,196.789 "/>
<path clip-path="url(#clip310)" d="M2039.64 165.685 L2181.83 165.685 L2181.83 124.213 L2039.64 124.213 L2039.64 165.685  Z" fill="#009af9" fill-rule="evenodd" fill-opacity="1"/>
<polyline clip-path="url(#clip310)" style="stroke:#000000; stroke-linecap:round; stroke-linejoin:round; stroke-width:4; stroke-opacity:1; fill:none" points="2039.64,165.685 2181.83,165.685 2181.83,124.213 2039.64,124.213 2039.64,165.685 "/>
<path clip-path="url(#clip310)" d="M2219.37 164.636 Q2217.57 169.266 2215.85 170.678 Q2214.14 172.09 2211.27 172.09 L2207.87 172.09 L2207.87 168.525 L2210.37 168.525 Q2212.13 168.525 2213.1 167.692 Q2214.07 166.858 2215.25 163.756 L2216.02 161.812 L2205.53 136.303 L2210.04 136.303 L2218.15 156.581 L2226.25 136.303 L2230.76 136.303 L2219.37 164.636 Z" fill="#000000" fill-rule="evenodd" fill-opacity="1" /><path clip-path="url(#clip310)" d="M2238.05 158.293 L2245.69 158.293 L2245.69 131.928 L2237.38 133.595 L2237.38 129.335 L2245.65 127.669 L2250.32 127.669 L2250.32 158.293 L2257.96 158.293 L2257.96 162.229 L2238.05 162.229 L2238.05 158.293 Z" fill="#000000" fill-rule="evenodd" fill-opacity="1" /></svg>
