<?xml version="1.0" encoding="utf-8"?>
<svg xmlns="http://www.w3.org/2000/svg" xmlns:xlink="http://www.w3.org/1999/xlink" width="600" height="400" viewBox="0 0 2400 1600">
<defs>
  <clipPath id="clip090">
    <rect x="0" y="0" width="2400" height="1600"/>
  </clipPath>
</defs>
<path clip-path="url(#clip090)" d="M0 1600 L2400 1600 L2400 0 L0 0  Z" fill="#ffffff" fill-rule="evenodd" fill-opacity="1"/>
<defs>
  <clipPath id="clip091">
    <rect x="480" y="0" width="1681" height="1600"/>
  </clipPath>
</defs>
<path clip-path="url(#clip090)" d="M112.177 1423.18 L2352.76 1423.18 L2352.76 47.2441 L112.177 47.2441  Z" fill="#ffffff" fill-rule="evenodd" fill-opacity="1"/>
<defs>
  <clipPath id="clip092">
    <rect x="112" y="47" width="2242" height="1377"/>
  </clipPath>
</defs>
<polyline clip-path="url(#clip092)" style="stroke:#000000; stroke-linecap:round; stroke-linejoin:round; stroke-width:2; stroke-opacity:0.1; fill:none" points="175.59,1423.18 175.59,47.2441 "/>
<polyline clip-path="url(#clip092)" style="stroke:#000000; stroke-linecap:round; stroke-linejoin:round; stroke-width:2; stroke-opacity:0.1; fill:none" points="512.004,1423.18 512.004,47.2441 "/>
<polyline clip-path="url(#clip092)" style="stroke:#000000; stroke-linecap:round; stroke-linejoin:round; stroke-width:2; stroke-opacity:0.1; fill:none" points="848.418,1423.18 848.418,47.2441 "/>
<polyline clip-path="url(#clip092)" style="stroke:#000000; stroke-linecap:round; stroke-linejoin:round; stroke-width:2; stroke-opacity:0.1; fill:none" points="1184.83,1423.18 1184.83,47.2441 "/>
<polyline clip-path="url(#clip092)" style="stroke:#000000; stroke-linecap:round; stroke-linejoin:round; stroke-width:2; stroke-opacity:0.1; fill:none" points="1521.25,1423.18 1521.25,47.2441 "/>
<polyline clip-path="url(#clip092)" style="stroke:#000000; stroke-linecap:round; stroke-linejoin:round; stroke-width:2; stroke-opacity:0.1; fill:none" points="1857.66,1423.18 1857.66,47.2441 "/>
<polyline clip-path="url(#clip092)" style="stroke:#000000; stroke-linecap:round; stroke-linejoin:round; stroke-width:2; stroke-opacity:0.1; fill:none" points="2194.08,1423.18 2194.08,47.2441 "/>
<polyline clip-path="url(#clip090)" style="stroke:#000000; stroke-linecap:round; stroke-linejoin:round; stroke-width:4; stroke-opacity:1; fill:none" points="112.177,1423.18 2352.76,1423.18 "/>
<polyline clip-path="url(#clip090)" style="stroke:#000000; stroke-linecap:round; stroke-linejoin:round; stroke-width:4; stroke-opacity:1; fill:none" points="175.59,1423.18 175.59,1404.28 "/>
<polyline clip-path="url(#clip090)" style="stroke:#000000; stroke-linecap:round; stroke-linejoin:round; stroke-width:4; stroke-opacity:1; fill:none" points="512.004,1423.18 512.004,1404.28 "/>
<polyline clip-path="url(#clip090)" style="stroke:#000000; stroke-linecap:round; stroke-linejoin:round; stroke-width:4; stroke-opacity:1; fill:none" points="848.418,1423.18 848.418,1404.28 "/>
<polyline clip-path="url(#clip090)" style="stroke:#000000; stroke-linecap:round; stroke-linejoin:round; stroke-width:4; stroke-opacity:1; fill:none" points="1184.83,1423.18 1184.83,1404.28 "/>
<polyline clip-path="url(#clip090)" style="stroke:#000000; stroke-linecap:round; stroke-linejoin:round; stroke-width:4; stroke-opacity:1; fill:none" points="1521.25,1423.18 1521.25,1404.28 "/>
<polyline clip-path="url(#clip090)" style="stroke:#000000; stroke-linecap:round; stroke-linejoin:round; stroke-width:4; stroke-opacity:1; fill:none" points="1857.66,1423.18 1857.66,1404.28 "/>
<polyline clip-path="url(#clip090)" style="stroke:#000000; stroke-linecap:round; stroke-linejoin:round; stroke-width:4; stroke-opacity:1; fill:none" points="2194.08,1423.18 2194.08,1404.28 "/>
<path clip-path="url(#clip090)" d="M175.59 1454.1 Q171.979 1454.1 170.15 1457.66 Q168.344 1461.2 168.344 1468.33 Q168.344 1475.44 170.15 1479.01 Q171.979 1482.55 175.59 1482.55 Q179.224 1482.55 181.03 1479.01 Q182.858 1475.44 182.858 1468.33 Q182.858 1461.2 181.03 1457.66 Q179.224 1454.1 175.59 1454.1 M175.59 1450.39 Q181.4 1450.39 184.455 1455 Q187.534 1459.58 187.534 1468.33 Q187.534 1477.06 184.455 1481.67 Q181.4 1486.25 175.59 1486.25 Q169.78 1486.25 166.701 1481.67 Q163.645 1477.06 163.645 1468.33 Q163.645 1459.58 166.701 1455 Q169.78 1450.39 175.59 1450.39 Z" fill="#000000" fill-rule="evenodd" fill-opacity="1" /><path clip-path="url(#clip090)" d="M502.386 1481.64 L510.025 1481.64 L510.025 1455.28 L501.715 1456.95 L501.715 1452.69 L509.979 1451.02 L514.655 1451.02 L514.655 1481.64 L522.293 1481.64 L522.293 1485.58 L502.386 1485.58 L502.386 1481.64 Z" fill="#000000" fill-rule="evenodd" fill-opacity="1" /><path clip-path="url(#clip090)" d="M843.071 1481.64 L859.391 1481.64 L859.391 1485.58 L837.446 1485.58 L837.446 1481.64 Q840.108 1478.89 844.692 1474.26 Q849.298 1469.61 850.479 1468.27 Q852.724 1465.74 853.604 1464.01 Q854.506 1462.25 854.506 1460.56 Q854.506 1457.8 852.562 1456.07 Q850.641 1454.33 847.539 1454.33 Q845.34 1454.33 842.886 1455.09 Q840.456 1455.86 837.678 1457.41 L837.678 1452.69 Q840.502 1451.55 842.955 1450.97 Q845.409 1450.39 847.446 1450.39 Q852.817 1450.39 856.011 1453.08 Q859.205 1455.77 859.205 1460.26 Q859.205 1462.39 858.395 1464.31 Q857.608 1466.2 855.502 1468.8 Q854.923 1469.47 851.821 1472.69 Q848.719 1475.88 843.071 1481.64 Z" fill="#000000" fill-rule="evenodd" fill-opacity="1" /><path clip-path="url(#clip090)" d="M1189.08 1466.95 Q1192.44 1467.66 1194.31 1469.93 Q1196.21 1472.2 1196.21 1475.53 Q1196.21 1480.65 1192.69 1483.45 Q1189.17 1486.25 1182.69 1486.25 Q1180.52 1486.25 1178.2 1485.81 Q1175.91 1485.39 1173.46 1484.54 L1173.46 1480.02 Q1175.4 1481.16 1177.71 1481.74 Q1180.03 1482.32 1182.55 1482.32 Q1186.95 1482.32 1189.24 1480.58 Q1191.56 1478.84 1191.56 1475.53 Q1191.56 1472.48 1189.4 1470.77 Q1187.27 1469.03 1183.46 1469.03 L1179.43 1469.03 L1179.43 1465.19 L1183.64 1465.19 Q1187.09 1465.19 1188.92 1463.82 Q1190.75 1462.43 1190.75 1459.84 Q1190.75 1457.18 1188.85 1455.77 Q1186.97 1454.33 1183.46 1454.33 Q1181.53 1454.33 1179.34 1454.75 Q1177.14 1455.16 1174.5 1456.04 L1174.5 1451.88 Q1177.16 1451.14 1179.47 1450.77 Q1181.81 1450.39 1183.87 1450.39 Q1189.2 1450.39 1192.3 1452.83 Q1195.4 1455.23 1195.4 1459.35 Q1195.4 1462.22 1193.76 1464.21 Q1192.11 1466.18 1189.08 1466.95 Z" fill="#000000" fill-rule="evenodd" fill-opacity="1" /><path clip-path="url(#clip090)" d="M1524.26 1455.09 L1512.45 1473.54 L1524.26 1473.54 L1524.26 1455.09 M1523.03 1451.02 L1528.91 1451.02 L1528.91 1473.54 L1533.84 1473.54 L1533.84 1477.43 L1528.91 1477.43 L1528.91 1485.58 L1524.26 1485.58 L1524.26 1477.43 L1508.65 1477.43 L1508.65 1472.92 L1523.03 1451.02 Z" fill="#000000" fill-rule="evenodd" fill-opacity="1" /><path clip-path="url(#clip090)" d="M1847.94 1451.02 L1866.3 1451.02 L1866.3 1454.96 L1852.22 1454.96 L1852.22 1463.43 Q1853.24 1463.08 1854.26 1462.92 Q1855.28 1462.73 1856.3 1462.73 Q1862.08 1462.73 1865.46 1465.9 Q1868.84 1469.08 1868.84 1474.49 Q1868.84 1480.07 1865.37 1483.17 Q1861.9 1486.25 1855.58 1486.25 Q1853.4 1486.25 1851.13 1485.88 Q1848.89 1485.51 1846.48 1484.77 L1846.48 1480.07 Q1848.56 1481.2 1850.79 1481.76 Q1853.01 1482.32 1855.49 1482.32 Q1859.49 1482.32 1861.83 1480.21 Q1864.17 1478.1 1864.17 1474.49 Q1864.17 1470.88 1861.83 1468.77 Q1859.49 1466.67 1855.49 1466.67 Q1853.61 1466.67 1851.74 1467.08 Q1849.88 1467.5 1847.94 1468.38 L1847.94 1451.02 Z" fill="#000000" fill-rule="evenodd" fill-opacity="1" /><path clip-path="url(#clip090)" d="M2194.48 1466.44 Q2191.33 1466.44 2189.48 1468.59 Q2187.65 1470.74 2187.65 1474.49 Q2187.65 1478.22 2189.48 1480.39 Q2191.33 1482.55 2194.48 1482.55 Q2197.63 1482.55 2199.46 1480.39 Q2201.31 1478.22 2201.31 1474.49 Q2201.31 1470.74 2199.46 1468.59 Q2197.63 1466.44 2194.48 1466.44 M2203.76 1451.78 L2203.76 1456.04 Q2202 1455.21 2200.2 1454.77 Q2198.42 1454.33 2196.66 1454.33 Q2192.03 1454.33 2189.57 1457.45 Q2187.14 1460.58 2186.8 1466.9 Q2188.16 1464.89 2190.22 1463.82 Q2192.28 1462.73 2194.76 1462.73 Q2199.97 1462.73 2202.98 1465.9 Q2206.01 1469.05 2206.01 1474.49 Q2206.01 1479.82 2202.86 1483.03 Q2199.71 1486.25 2194.48 1486.25 Q2188.49 1486.25 2185.31 1481.67 Q2182.14 1477.06 2182.14 1468.33 Q2182.14 1460.14 2186.03 1455.28 Q2189.92 1450.39 2196.47 1450.39 Q2198.23 1450.39 2200.01 1450.74 Q2201.82 1451.09 2203.76 1451.78 Z" fill="#000000" fill-rule="evenodd" fill-opacity="1" /><path clip-path="url(#clip090)" d="M1216.65 1518.52 L1222.54 1518.52 L1222.54 1547.77 L1240.01 1532.4 L1247.49 1532.4 L1228.58 1549.07 L1248.29 1568.04 L1240.65 1568.04 L1222.54 1550.63 L1222.54 1568.04 L1216.65 1568.04 L1216.65 1518.52 Z" fill="#000000" fill-rule="evenodd" fill-opacity="1" /><polyline clip-path="url(#clip092)" style="stroke:#000000; stroke-linecap:round; stroke-linejoin:round; stroke-width:2; stroke-opacity:0.1; fill:none" points="112.177,1222.04 2352.76,1222.04 "/>
<polyline clip-path="url(#clip092)" style="stroke:#000000; stroke-linecap:round; stroke-linejoin:round; stroke-width:2; stroke-opacity:0.1; fill:none" points="112.177,897.51 2352.76,897.51 "/>
<polyline clip-path="url(#clip092)" style="stroke:#000000; stroke-linecap:round; stroke-linejoin:round; stroke-width:2; stroke-opacity:0.1; fill:none" points="112.177,572.98 2352.76,572.98 "/>
<polyline clip-path="url(#clip092)" style="stroke:#000000; stroke-linecap:round; stroke-linejoin:round; stroke-width:2; stroke-opacity:0.1; fill:none" points="112.177,248.451 2352.76,248.451 "/>
<polyline clip-path="url(#clip090)" style="stroke:#000000; stroke-linecap:round; stroke-linejoin:round; stroke-width:4; stroke-opacity:1; fill:none" points="112.177,1423.18 112.177,47.2441 "/>
<polyline clip-path="url(#clip090)" style="stroke:#000000; stroke-linecap:round; stroke-linejoin:round; stroke-width:4; stroke-opacity:1; fill:none" points="112.177,1222.04 131.075,1222.04 "/>
<polyline clip-path="url(#clip090)" style="stroke:#000000; stroke-linecap:round; stroke-linejoin:round; stroke-width:4; stroke-opacity:1; fill:none" points="112.177,897.51 131.075,897.51 "/>
<polyline clip-path="url(#clip090)" style="stroke:#000000; stroke-linecap:round; stroke-linejoin:round; stroke-width:4; stroke-opacity:1; fill:none" points="112.177,572.98 131.075,572.98 "/>
<polyline clip-path="url(#clip090)" style="stroke:#000000; stroke-linecap:round; stroke-linejoin:round; stroke-width:4; stroke-opacity:1; fill:none" points="112.177,248.451 131.075,248.451 "/>
<path clip-path="url(#clip090)" d="M59.8578 1235.38 L76.1772 1235.38 L76.1772 1239.32 L54.2328 1239.32 L54.2328 1235.38 Q56.8949 1232.63 61.4782 1228 Q66.0846 1223.35 67.2652 1222 Q69.5105 1219.48 70.3902 1217.75 Q71.2929 1215.99 71.2929 1214.3 Q71.2929 1211.54 69.3485 1209.81 Q67.4272 1208.07 64.3254 1208.07 Q62.1263 1208.07 59.6726 1208.83 Q57.2421 1209.6 54.4643 1211.15 L54.4643 1206.43 Q57.2884 1205.29 59.7421 1204.71 Q62.1958 1204.13 64.2328 1204.13 Q69.6031 1204.13 72.7976 1206.82 Q75.992 1209.5 75.992 1214 Q75.992 1216.13 75.1818 1218.05 Q74.3948 1219.94 72.2883 1222.54 Q71.7096 1223.21 68.6078 1226.43 Q65.5059 1229.62 59.8578 1235.38 Z" fill="#000000" fill-rule="evenodd" fill-opacity="1" /><path clip-path="url(#clip090)" d="M66.5939 884.304 L54.7884 902.753 L66.5939 902.753 L66.5939 884.304 M65.367 880.23 L71.2466 880.23 L71.2466 902.753 L76.1772 902.753 L76.1772 906.642 L71.2466 906.642 L71.2466 914.79 L66.5939 914.79 L66.5939 906.642 L50.9921 906.642 L50.9921 902.128 L65.367 880.23 Z" fill="#000000" fill-rule="evenodd" fill-opacity="1" /><path clip-path="url(#clip090)" d="M64.6495 571.117 Q61.5013 571.117 59.6495 573.27 Q57.8208 575.422 57.8208 579.172 Q57.8208 582.899 59.6495 585.075 Q61.5013 587.228 64.6495 587.228 Q67.7976 587.228 69.6263 585.075 Q71.4781 582.899 71.4781 579.172 Q71.4781 575.422 69.6263 573.27 Q67.7976 571.117 64.6495 571.117 M73.9318 556.464 L73.9318 560.723 Q72.1726 559.89 70.367 559.45 Q68.5846 559.01 66.8254 559.01 Q62.1958 559.01 59.7421 562.135 Q57.3115 565.26 56.9643 571.58 Q58.33 569.566 60.3902 568.501 Q62.4504 567.413 64.9272 567.413 Q70.1355 567.413 73.1448 570.584 Q76.1772 573.733 76.1772 579.172 Q76.1772 584.496 73.029 587.714 Q69.8809 590.932 64.6495 590.932 Q58.6541 590.932 55.4828 586.348 Q52.3116 581.742 52.3116 573.015 Q52.3116 564.821 56.2004 559.959 Q60.0893 555.075 66.6402 555.075 Q68.3994 555.075 70.1818 555.422 Q71.9874 555.77 73.9318 556.464 Z" fill="#000000" fill-rule="evenodd" fill-opacity="1" /><path clip-path="url(#clip090)" d="M64.3254 249.319 Q60.9921 249.319 59.0708 251.101 Q57.1726 252.883 57.1726 256.008 Q57.1726 259.133 59.0708 260.916 Q60.9921 262.698 64.3254 262.698 Q67.6587 262.698 69.58 260.916 Q71.5013 259.11 71.5013 256.008 Q71.5013 252.883 69.58 251.101 Q67.6819 249.319 64.3254 249.319 M59.6495 247.328 Q56.6402 246.587 54.9504 244.527 Q53.2838 242.467 53.2838 239.504 Q53.2838 235.36 56.2236 232.953 Q59.1865 230.546 64.3254 230.546 Q69.4874 230.546 72.4272 232.953 Q75.367 235.36 75.367 239.504 Q75.367 242.467 73.6772 244.527 Q72.0105 246.587 69.0244 247.328 Q72.404 248.115 74.279 250.407 Q76.1772 252.698 76.1772 256.008 Q76.1772 261.031 73.0985 263.717 Q70.0429 266.402 64.3254 266.402 Q58.6078 266.402 55.5291 263.717 Q52.4736 261.031 52.4736 256.008 Q52.4736 252.698 54.3717 250.407 Q56.2699 248.115 59.6495 247.328 M57.9365 239.944 Q57.9365 242.629 59.6032 244.133 Q61.293 245.638 64.3254 245.638 Q67.3346 245.638 69.0244 244.133 Q70.7374 242.629 70.7374 239.944 Q70.7374 237.258 69.0244 235.754 Q67.3346 234.249 64.3254 234.249 Q61.293 234.249 59.6032 235.754 Q57.9365 237.258 57.9365 239.944 Z" fill="#000000" fill-rule="evenodd" fill-opacity="1" /><polyline clip-path="url(#clip092)" style="stroke:#009af9; stroke-linecap:round; stroke-linejoin:round; stroke-width:4; stroke-opacity:1; fill:none" points="175.59,1058.74 179.03,1058.74 182.471,1058.76 185.911,1058.79 189.351,1058.83 221.163,1059.73 252.975,1061.59 268.881,1062.89 284.786,1064.42 300.692,1066.18 316.598,1068.19 335.716,1070.91 354.833,1073.96 373.951,1077.35 393.068,1081.07 409.232,1084.46 425.395,1088.09 441.559,1091.94 457.722,1096.01 475.281,1100.69 492.839,1105.62 510.397,1110.79 527.955,1116.22 560.329,1126.84 592.704,1138.23 627.412,1151.24 662.121,1165.04 682.227,1173.36 702.334,1181.9 722.441,1190.66 742.547,1199.6 814.021,1232.66 876.697,1262.68 910.864,1279.12 945.031,1295.39 979.4,1311.37 1013.77,1326.68 1032.77,1334.74 1051.77,1342.43 1070.77,1349.69 1089.77,1356.44 1107.85,1362.32 1125.93,1367.59 1144.01,1372.2 1162.08,1376.06 1171.48,1377.75 1180.88,1379.21 1190.28,1380.45 1199.68,1381.44 1209.08,1382.19 1218.47,1382.69 1227.87,1382.94 1237.27,1382.94 1253.09,1382.36 1268.92,1381.08 1284.74,1379.12 1300.56,1376.49 1319.88,1372.44 1339.2,1367.54 1358.52,1361.87 1377.84,1355.52 1395.53,1349.18 1413.23,1342.4 1430.93,1335.25 1448.62,1327.77 1481.31,1313.29 1514,1298.17 1547.11,1282.45 1580.23,1266.54 1617.34,1248.68 1654.45,1230.99 1688.07,1215.26 1721.7,1199.91 1740.95,1191.34 1760.2,1182.94 1779.45,1174.73 1798.7,1166.72 1834.35,1152.47 1870,1139.04 1887.57,1132.73 1905.15,1126.65 1922.72,1120.8 1940.29,1115.17 1957.35,1109.95 1974.42,1104.95 1991.48,1100.19 2008.54,1095.67 2026.03,1091.29 2043.52,1087.17 2061.01,1083.32 2078.5,1079.74 2097.66,1076.13 2116.83,1072.85 2135.99,1069.91 2155.15,1067.3 2182.99,1064.13 2210.83,1061.68 2238.66,1059.96 2266.5,1058.99 2272.21,1058.88 2277.92,1058.8 2283.63,1058.75 2289.34,1058.74 "/>
<polyline clip-path="url(#clip092)" style="stroke:#e26f46; stroke-linecap:round; stroke-linejoin:round; stroke-width:4; stroke-opacity:1; fill:none" points="175.59,86.1857 179.03,86.2196 182.471,86.3214 185.911,86.4911 189.351,86.7287 205.257,88.7079 221.163,92.1322 237.069,96.9939 252.975,103.282 268.881,110.983 284.786,120.079 300.692,130.549 316.598,142.372 335.716,158.332 354.833,176.155 373.951,195.783 393.068,217.152 409.232,236.528 425.395,257.054 441.559,278.684 457.722,301.368 475.281,327.142 492.839,354.028 510.397,381.952 527.955,410.838 560.329,466.355 592.704,524.36 662.121,654.6 742.547,809.4 778.284,877.35 814.021,943.698 845.359,999.971 876.697,1053.95 893.78,1082.24 910.864,1109.63 927.947,1136.06 945.031,1161.46 962.215,1185.9 979.4,1209.16 996.585,1231.19 1013.77,1251.92 1032.77,1273.27 1051.77,1292.91 1070.77,1310.76 1089.77,1326.79 1107.85,1340.28 1125.93,1352.03 1144.01,1361.99 1162.08,1370.15 1180.88,1376.69 1199.68,1381.22 1218.47,1383.74 1237.27,1384.24 1253.09,1383.08 1268.92,1380.5 1284.74,1376.48 1300.56,1371.05 1319.88,1362.52 1339.2,1351.91 1358.52,1339.27 1377.84,1324.64 1395.53,1309.54 1413.23,1292.84 1430.93,1274.6 1448.62,1254.87 1464.97,1235.37 1481.31,1214.69 1497.66,1192.87 1514,1169.98 1530.56,1145.74 1547.11,1120.51 1563.67,1094.35 1580.23,1067.32 1617.34,1003.91 1654.45,937.229 1688.07,874.666 1721.7,810.711 1798.7,662.471 1870,528.43 1905.15,465.401 1940.29,405.315 1957.35,377.403 1974.42,350.412 1991.48,324.41 2008.54,299.465 2026.03,275.057 2043.52,251.893 2061.01,230.034 2078.5,209.541 2097.66,188.722 2116.83,169.675 2135.99,152.463 2155.15,137.141 2169.07,127.226 2182.99,118.352 2196.91,110.533 2210.83,103.784 2238.66,93.537 2266.5,87.6814 2272.21,87.0272 2277.92,86.5597 2283.63,86.2792 2289.34,86.1857 "/>
<path clip-path="url(#clip090)" d="M186.863 1377.32 L641.244 1377.32 L641.244 1221.8 L186.863 1221.8  Z" fill="#ffffff" fill-rule="evenodd" fill-opacity="1"/>
<polyline clip-path="url(#clip090)" style="stroke:#000000; stroke-linecap:round; stroke-linejoin:round; stroke-width:4; stroke-opacity:1; fill:none" points="186.863,1377.32 641.244,1377.32 641.244,1221.8 186.863,1221.8 186.863,1377.32 "/>
<polyline clip-path="url(#clip090)" style="stroke:#009af9; stroke-linecap:round; stroke-linejoin:round; stroke-width:4; stroke-opacity:1; fill:none" points="211.758,1273.64 361.13,1273.64 "/>
<path clip-path="url(#clip090)" d="M386.026 1254.9 L390.285 1254.9 L390.285 1290.92 L386.026 1290.92 L386.026 1254.9 Z" fill="#000000" fill-rule="evenodd" fill-opacity="1" /><path clip-path="url(#clip090)" d="M410.979 1277.88 Q405.817 1277.88 403.827 1279.06 Q401.836 1280.24 401.836 1283.09 Q401.836 1285.36 403.317 1286.7 Q404.822 1288.02 407.391 1288.02 Q410.933 1288.02 413.063 1285.52 Q415.215 1283 415.215 1278.83 L415.215 1277.88 L410.979 1277.88 M419.475 1276.12 L419.475 1290.92 L415.215 1290.92 L415.215 1286.98 Q413.757 1289.34 411.581 1290.48 Q409.405 1291.59 406.257 1291.59 Q402.276 1291.59 399.915 1289.36 Q397.577 1287.12 397.577 1283.37 Q397.577 1278.99 400.493 1276.77 Q403.433 1274.55 409.243 1274.55 L415.215 1274.55 L415.215 1274.13 Q415.215 1271.19 413.271 1269.6 Q411.35 1267.98 407.854 1267.98 Q405.632 1267.98 403.526 1268.51 Q401.419 1269.04 399.475 1270.11 L399.475 1266.17 Q401.813 1265.27 404.012 1264.83 Q406.211 1264.36 408.294 1264.36 Q413.919 1264.36 416.697 1267.28 Q419.475 1270.2 419.475 1276.12 Z" fill="#000000" fill-rule="evenodd" fill-opacity="1" /><path clip-path="url(#clip090)" d="M448.433 1269.97 Q450.03 1267.1 452.252 1265.73 Q454.474 1264.36 457.484 1264.36 Q461.535 1264.36 463.734 1267.21 Q465.933 1270.04 465.933 1275.27 L465.933 1290.92 L461.65 1290.92 L461.65 1275.41 Q461.65 1271.68 460.331 1269.87 Q459.011 1268.07 456.303 1268.07 Q452.993 1268.07 451.072 1270.27 Q449.15 1272.47 449.15 1276.26 L449.15 1290.92 L444.868 1290.92 L444.868 1275.41 Q444.868 1271.66 443.549 1269.87 Q442.229 1268.07 439.474 1268.07 Q436.211 1268.07 434.289 1270.29 Q432.368 1272.49 432.368 1276.26 L432.368 1290.92 L428.086 1290.92 L428.086 1264.99 L432.368 1264.99 L432.368 1269.02 Q433.826 1266.63 435.863 1265.5 Q437.9 1264.36 440.701 1264.36 Q443.525 1264.36 445.493 1265.8 Q447.484 1267.23 448.433 1269.97 Z" fill="#000000" fill-rule="evenodd" fill-opacity="1" /><path clip-path="url(#clip090)" d="M493.039 1277.98 Q493.039 1273.28 491.095 1270.61 Q489.173 1267.93 485.794 1267.93 Q482.414 1267.93 480.47 1270.61 Q478.548 1273.28 478.548 1277.98 Q478.548 1282.67 480.47 1285.36 Q482.414 1288.02 485.794 1288.02 Q489.173 1288.02 491.095 1285.36 Q493.039 1282.67 493.039 1277.98 M478.548 1268.92 Q479.891 1266.61 481.928 1265.5 Q483.988 1264.36 486.835 1264.36 Q491.558 1264.36 494.497 1268.11 Q497.46 1271.86 497.46 1277.98 Q497.46 1284.09 494.497 1287.84 Q491.558 1291.59 486.835 1291.59 Q483.988 1291.59 481.928 1290.48 Q479.891 1289.34 478.548 1287.03 L478.548 1290.92 L474.266 1290.92 L474.266 1254.9 L478.548 1254.9 L478.548 1268.92 Z" fill="#000000" fill-rule="evenodd" fill-opacity="1" /><path clip-path="url(#clip090)" d="M536.117 1265.75 L536.117 1269.78 Q534.312 1268.86 532.367 1268.39 Q530.423 1267.93 528.34 1267.93 Q525.168 1267.93 523.571 1268.9 Q521.997 1269.87 521.997 1271.82 Q521.997 1273.3 523.131 1274.16 Q524.266 1274.99 527.692 1275.75 L529.15 1276.08 Q533.687 1277.05 535.585 1278.83 Q537.506 1280.59 537.506 1283.76 Q537.506 1287.37 534.636 1289.48 Q531.789 1291.59 526.789 1291.59 Q524.706 1291.59 522.437 1291.17 Q520.192 1290.78 517.692 1289.97 L517.692 1285.57 Q520.053 1286.79 522.344 1287.42 Q524.636 1288.02 526.881 1288.02 Q529.891 1288.02 531.511 1287 Q533.131 1285.96 533.131 1284.09 Q533.131 1282.35 531.951 1281.42 Q530.793 1280.5 526.835 1279.64 L525.354 1279.3 Q521.395 1278.46 519.636 1276.75 Q517.877 1275.01 517.877 1272 Q517.877 1268.35 520.469 1266.36 Q523.062 1264.36 527.83 1264.36 Q530.192 1264.36 532.275 1264.71 Q534.358 1265.06 536.117 1265.75 Z" fill="#000000" fill-rule="evenodd" fill-opacity="1" /><path clip-path="url(#clip090)" d="M565.84 1275.27 L565.84 1290.92 L561.58 1290.92 L561.58 1275.41 Q561.58 1271.73 560.145 1269.9 Q558.71 1268.07 555.84 1268.07 Q552.391 1268.07 550.4 1270.27 Q548.409 1272.47 548.409 1276.26 L548.409 1290.92 L544.127 1290.92 L544.127 1254.9 L548.409 1254.9 L548.409 1269.02 Q549.937 1266.68 551.997 1265.52 Q554.08 1264.36 556.789 1264.36 Q561.256 1264.36 563.548 1267.14 Q565.84 1269.9 565.84 1275.27 Z" fill="#000000" fill-rule="evenodd" fill-opacity="1" /><path clip-path="url(#clip090)" d="M574.335 1264.99 L578.594 1264.99 L578.594 1290.92 L574.335 1290.92 L574.335 1264.99 M574.335 1254.9 L578.594 1254.9 L578.594 1260.29 L574.335 1260.29 L574.335 1254.9 Z" fill="#000000" fill-rule="evenodd" fill-opacity="1" /><path clip-path="url(#clip090)" d="M600.631 1254.9 L600.631 1258.44 L596.557 1258.44 Q594.265 1258.44 593.363 1259.36 Q592.483 1260.29 592.483 1262.7 L592.483 1264.99 L599.497 1264.99 L599.497 1268.3 L592.483 1268.3 L592.483 1290.92 L588.201 1290.92 L588.201 1268.3 L584.126 1268.3 L584.126 1264.99 L588.201 1264.99 L588.201 1263.18 Q588.201 1258.86 590.214 1256.89 Q592.228 1254.9 596.603 1254.9 L600.631 1254.9 Z" fill="#000000" fill-rule="evenodd" fill-opacity="1" /><path clip-path="url(#clip090)" d="M607.575 1257.63 L607.575 1264.99 L616.349 1264.99 L616.349 1268.3 L607.575 1268.3 L607.575 1282.37 Q607.575 1285.54 608.432 1286.45 Q609.312 1287.35 611.974 1287.35 L616.349 1287.35 L616.349 1290.92 L611.974 1290.92 Q607.043 1290.92 605.168 1289.09 Q603.293 1287.23 603.293 1282.37 L603.293 1268.3 L600.168 1268.3 L600.168 1264.99 L603.293 1264.99 L603.293 1257.63 L607.575 1257.63 Z" fill="#000000" fill-rule="evenodd" fill-opacity="1" /><polyline clip-path="url(#clip090)" style="stroke:#e26f46; stroke-linecap:round; stroke-linejoin:round; stroke-width:4; stroke-opacity:1; fill:none" points="211.758,1325.48 361.13,1325.48 "/>
<path clip-path="url(#clip090)" d="M386.026 1316.83 L390.54 1316.83 L398.641 1338.59 L406.743 1316.83 L411.257 1316.83 L401.535 1342.76 L395.748 1342.76 L386.026 1316.83 Z" fill="#000000" fill-rule="evenodd" fill-opacity="1" /><path clip-path="url(#clip090)" d="M427.368 1306.78 Q424.266 1312.11 422.762 1317.32 Q421.257 1322.52 421.257 1327.87 Q421.257 1333.22 422.762 1338.47 Q424.289 1343.7 427.368 1349.01 L423.664 1349.01 Q420.192 1343.57 418.456 1338.31 Q416.743 1333.06 416.743 1327.87 Q416.743 1322.71 418.456 1317.48 Q420.169 1312.25 423.664 1306.78 L427.368 1306.78 Z" fill="#000000" fill-rule="evenodd" fill-opacity="1" /><path clip-path="url(#clip090)" d="M435.47 1306.74 L439.752 1306.74 L439.752 1328.01 L452.461 1316.83 L457.9 1316.83 L444.15 1328.96 L458.479 1342.76 L452.923 1342.76 L439.752 1330.09 L439.752 1342.76 L435.47 1342.76 L435.47 1306.74 Z" fill="#000000" fill-rule="evenodd" fill-opacity="1" /><path clip-path="url(#clip090)" d="M462.414 1306.78 L466.118 1306.78 Q469.59 1312.25 471.303 1317.48 Q473.039 1322.71 473.039 1327.87 Q473.039 1333.06 471.303 1338.31 Q469.59 1343.57 466.118 1349.01 L462.414 1349.01 Q465.493 1343.7 466.997 1338.47 Q468.525 1333.22 468.525 1327.87 Q468.525 1322.52 466.997 1317.32 Q465.493 1312.11 462.414 1306.78 Z" fill="#000000" fill-rule="evenodd" fill-opacity="1" /></svg>
