<?xml version="1.0" encoding="utf-8"?>
<svg xmlns="http://www.w3.org/2000/svg" xmlns:xlink="http://www.w3.org/1999/xlink" width="600" height="400" viewBox="0 0 2400 1600">
<defs>
  <clipPath id="clip760">
    <rect x="0" y="0" width="2400" height="1600"/>
  </clipPath>
</defs>
<path clip-path="url(#clip760)" d="M0 1600 L2400 1600 L2400 0 L0 0  Z" fill="#ffffff" fill-rule="evenodd" fill-opacity="1"/>
<defs>
  <clipPath id="clip761">
    <rect x="480" y="0" width="1681" height="1600"/>
  </clipPath>
</defs>
<path clip-path="url(#clip760)" d="M279.866 1423.18 L2352.76 1423.18 L2352.76 47.2441 L279.866 47.2441  Z" fill="#ffffff" fill-rule="evenodd" fill-opacity="1"/>
<defs>
  <clipPath id="clip762">
    <rect x="279" y="47" width="2074" height="1377"/>
  </clipPath>
</defs>
<polyline clip-path="url(#clip762)" style="stroke:#000000; stroke-linecap:round; stroke-linejoin:round; stroke-width:2; stroke-opacity:0.1; fill:none" points="298.623,1423.18 298.623,47.2441 "/>
<polyline clip-path="url(#clip762)" style="stroke:#000000; stroke-linecap:round; stroke-linejoin:round; stroke-width:2; stroke-opacity:0.1; fill:none" points="697.717,1423.18 697.717,47.2441 "/>
<polyline clip-path="url(#clip762)" style="stroke:#000000; stroke-linecap:round; stroke-linejoin:round; stroke-width:2; stroke-opacity:0.1; fill:none" points="1096.81,1423.18 1096.81,47.2441 "/>
<polyline clip-path="url(#clip762)" style="stroke:#000000; stroke-linecap:round; stroke-linejoin:round; stroke-width:2; stroke-opacity:0.1; fill:none" points="1495.9,1423.18 1495.9,47.2441 "/>
<polyline clip-path="url(#clip762)" style="stroke:#000000; stroke-linecap:round; stroke-linejoin:round; stroke-width:2; stroke-opacity:0.1; fill:none" points="1895,1423.18 1895,47.2441 "/>
<polyline clip-path="url(#clip762)" style="stroke:#000000; stroke-linecap:round; stroke-linejoin:round; stroke-width:2; stroke-opacity:0.1; fill:none" points="2294.09,1423.18 2294.09,47.2441 "/>
<polyline clip-path="url(#clip760)" style="stroke:#000000; stroke-linecap:round; stroke-linejoin:round; stroke-width:4; stroke-opacity:1; fill:none" points="279.866,1423.18 2352.76,1423.18 "/>
<polyline clip-path="url(#clip760)" style="stroke:#000000; stroke-linecap:round; stroke-linejoin:round; stroke-width:4; stroke-opacity:1; fill:none" points="298.623,1423.18 298.623,1404.28 "/>
<polyline clip-path="url(#clip760)" style="stroke:#000000; stroke-linecap:round; stroke-linejoin:round; stroke-width:4; stroke-opacity:1; fill:none" points="697.717,1423.18 697.717,1404.28 "/>
<polyline clip-path="url(#clip760)" style="stroke:#000000; stroke-linecap:round; stroke-linejoin:round; stroke-width:4; stroke-opacity:1; fill:none" points="1096.81,1423.18 1096.81,1404.28 "/>
<polyline clip-path="url(#clip760)" style="stroke:#000000; stroke-linecap:round; stroke-linejoin:round; stroke-width:4; stroke-opacity:1; fill:none" points="1495.9,1423.18 1495.9,1404.28 "/>
<polyline clip-path="url(#clip760)" style="stroke:#000000; stroke-linecap:round; stroke-linejoin:round; stroke-width:4; stroke-opacity:1; fill:none" points="1895,1423.18 1895,1404.28 "/>
<polyline clip-path="url(#clip760)" style="stroke:#000000; stroke-linecap:round; stroke-linejoin:round; stroke-width:4; stroke-opacity:1; fill:none" points="2294.09,1423.18 2294.09,1404.28 "/>
<path clip-path="url(#clip760)" d="M298.623 1454.1 Q295.012 1454.1 293.184 1457.66 Q291.378 1461.2 291.378 1468.33 Q291.378 1475.44 293.184 1479.01 Q295.012 1482.55 298.623 1482.55 Q302.258 1482.55 304.063 1479.01 Q305.892 1475.44 305.892 1468.33 Q305.892 1461.2 304.063 1457.66 Q302.258 1454.1 298.623 1454.1 M298.623 1450.39 Q304.433 1450.39 307.489 1455 Q310.568 1459.58 310.568 1468.33 Q310.568 1477.06 307.489 1481.67 Q304.433 1486.25 298.623 1486.25 Q292.813 1486.25 289.734 1481.67 Q286.679 1477.06 286.679 1468.33 Q286.679 1459.58 289.734 1455 Q292.813 1450.39 298.623 1450.39 Z" fill="#000000" fill-rule="evenodd" fill-opacity="1" /><path clip-path="url(#clip760)" d="M657.323 1481.64 L664.962 1481.64 L664.962 1455.28 L656.652 1456.95 L656.652 1452.69 L664.916 1451.02 L669.592 1451.02 L669.592 1481.64 L677.23 1481.64 L677.23 1485.58 L657.323 1485.58 L657.323 1481.64 Z" fill="#000000" fill-rule="evenodd" fill-opacity="1" /><path clip-path="url(#clip760)" d="M696.675 1454.1 Q693.064 1454.1 691.235 1457.66 Q689.43 1461.2 689.43 1468.33 Q689.43 1475.44 691.235 1479.01 Q693.064 1482.55 696.675 1482.55 Q700.309 1482.55 702.115 1479.01 Q703.943 1475.44 703.943 1468.33 Q703.943 1461.2 702.115 1457.66 Q700.309 1454.1 696.675 1454.1 M696.675 1450.39 Q702.485 1450.39 705.541 1455 Q708.619 1459.58 708.619 1468.33 Q708.619 1477.06 705.541 1481.67 Q702.485 1486.25 696.675 1486.25 Q690.865 1486.25 687.786 1481.67 Q684.73 1477.06 684.73 1468.33 Q684.73 1459.58 687.786 1455 Q690.865 1450.39 696.675 1450.39 Z" fill="#000000" fill-rule="evenodd" fill-opacity="1" /><path clip-path="url(#clip760)" d="M726.837 1454.1 Q723.226 1454.1 721.397 1457.66 Q719.591 1461.2 719.591 1468.33 Q719.591 1475.44 721.397 1479.01 Q723.226 1482.55 726.837 1482.55 Q730.471 1482.55 732.277 1479.01 Q734.105 1475.44 734.105 1468.33 Q734.105 1461.2 732.277 1457.66 Q730.471 1454.1 726.837 1454.1 M726.837 1450.39 Q732.647 1450.39 735.702 1455 Q738.781 1459.58 738.781 1468.33 Q738.781 1477.06 735.702 1481.67 Q732.647 1486.25 726.837 1486.25 Q721.027 1486.25 717.948 1481.67 Q714.892 1477.06 714.892 1468.33 Q714.892 1459.58 717.948 1455 Q721.027 1450.39 726.837 1450.39 Z" fill="#000000" fill-rule="evenodd" fill-opacity="1" /><path clip-path="url(#clip760)" d="M1060.5 1481.64 L1076.82 1481.64 L1076.82 1485.58 L1054.88 1485.58 L1054.88 1481.64 Q1057.54 1478.89 1062.12 1474.26 Q1066.73 1469.61 1067.91 1468.27 Q1070.15 1465.74 1071.03 1464.01 Q1071.94 1462.25 1071.94 1460.56 Q1071.94 1457.8 1069.99 1456.07 Q1068.07 1454.33 1064.97 1454.33 Q1062.77 1454.33 1060.32 1455.09 Q1057.89 1455.86 1055.11 1457.41 L1055.11 1452.69 Q1057.93 1451.55 1060.39 1450.97 Q1062.84 1450.39 1064.88 1450.39 Q1070.25 1450.39 1073.44 1453.08 Q1076.64 1455.77 1076.64 1460.26 Q1076.64 1462.39 1075.83 1464.31 Q1075.04 1466.2 1072.93 1468.8 Q1072.35 1469.47 1069.25 1472.69 Q1066.15 1475.88 1060.5 1481.64 Z" fill="#000000" fill-rule="evenodd" fill-opacity="1" /><path clip-path="url(#clip760)" d="M1096.64 1454.1 Q1093.02 1454.1 1091.2 1457.66 Q1089.39 1461.2 1089.39 1468.33 Q1089.39 1475.44 1091.2 1479.01 Q1093.02 1482.55 1096.64 1482.55 Q1100.27 1482.55 1102.08 1479.01 Q1103.9 1475.44 1103.9 1468.33 Q1103.9 1461.2 1102.08 1457.66 Q1100.27 1454.1 1096.64 1454.1 M1096.64 1450.39 Q1102.45 1450.39 1105.5 1455 Q1108.58 1459.58 1108.58 1468.33 Q1108.58 1477.06 1105.5 1481.67 Q1102.45 1486.25 1096.64 1486.25 Q1090.83 1486.25 1087.75 1481.67 Q1084.69 1477.06 1084.69 1468.33 Q1084.69 1459.58 1087.75 1455 Q1090.83 1450.39 1096.64 1450.39 Z" fill="#000000" fill-rule="evenodd" fill-opacity="1" /><path clip-path="url(#clip760)" d="M1126.8 1454.1 Q1123.19 1454.1 1121.36 1457.66 Q1119.55 1461.2 1119.55 1468.33 Q1119.55 1475.44 1121.36 1479.01 Q1123.19 1482.55 1126.8 1482.55 Q1130.43 1482.55 1132.24 1479.01 Q1134.07 1475.44 1134.07 1468.33 Q1134.07 1461.2 1132.24 1457.66 Q1130.43 1454.1 1126.8 1454.1 M1126.8 1450.39 Q1132.61 1450.39 1135.66 1455 Q1138.74 1459.58 1138.74 1468.33 Q1138.74 1477.06 1135.66 1481.67 Q1132.61 1486.25 1126.8 1486.25 Q1120.99 1486.25 1117.91 1481.67 Q1114.85 1477.06 1114.85 1468.33 Q1114.85 1459.58 1117.91 1455 Q1120.99 1450.39 1126.8 1450.39 Z" fill="#000000" fill-rule="evenodd" fill-opacity="1" /><path clip-path="url(#clip760)" d="M1469.66 1466.95 Q1473.02 1467.66 1474.9 1469.93 Q1476.79 1472.2 1476.79 1475.53 Q1476.79 1480.65 1473.28 1483.45 Q1469.76 1486.25 1463.28 1486.25 Q1461.1 1486.25 1458.78 1485.81 Q1456.49 1485.39 1454.04 1484.54 L1454.04 1480.02 Q1455.98 1481.16 1458.3 1481.74 Q1460.61 1482.32 1463.14 1482.32 Q1467.53 1482.32 1469.83 1480.58 Q1472.14 1478.84 1472.14 1475.53 Q1472.14 1472.48 1469.99 1470.77 Q1467.86 1469.03 1464.04 1469.03 L1460.01 1469.03 L1460.01 1465.19 L1464.22 1465.19 Q1467.67 1465.19 1469.5 1463.82 Q1471.33 1462.43 1471.33 1459.84 Q1471.33 1457.18 1469.43 1455.77 Q1467.56 1454.33 1464.04 1454.33 Q1462.12 1454.33 1459.92 1454.75 Q1457.72 1455.16 1455.08 1456.04 L1455.08 1451.88 Q1457.74 1451.14 1460.06 1450.77 Q1462.4 1450.39 1464.46 1450.39 Q1469.78 1450.39 1472.88 1452.83 Q1475.98 1455.23 1475.98 1459.35 Q1475.98 1462.22 1474.34 1464.21 Q1472.7 1466.18 1469.66 1466.95 Z" fill="#000000" fill-rule="evenodd" fill-opacity="1" /><path clip-path="url(#clip760)" d="M1495.66 1454.1 Q1492.05 1454.1 1490.22 1457.66 Q1488.41 1461.2 1488.41 1468.33 Q1488.41 1475.44 1490.22 1479.01 Q1492.05 1482.55 1495.66 1482.55 Q1499.29 1482.55 1501.1 1479.01 Q1502.93 1475.44 1502.93 1468.33 Q1502.93 1461.2 1501.1 1457.66 Q1499.29 1454.1 1495.66 1454.1 M1495.66 1450.39 Q1501.47 1450.39 1504.53 1455 Q1507.6 1459.58 1507.6 1468.33 Q1507.6 1477.06 1504.53 1481.67 Q1501.47 1486.25 1495.66 1486.25 Q1489.85 1486.25 1486.77 1481.67 Q1483.72 1477.06 1483.72 1468.33 Q1483.72 1459.58 1486.77 1455 Q1489.85 1450.39 1495.66 1450.39 Z" fill="#000000" fill-rule="evenodd" fill-opacity="1" /><path clip-path="url(#clip760)" d="M1525.82 1454.1 Q1522.21 1454.1 1520.38 1457.66 Q1518.58 1461.2 1518.58 1468.33 Q1518.58 1475.44 1520.38 1479.01 Q1522.21 1482.55 1525.82 1482.55 Q1529.46 1482.55 1531.26 1479.01 Q1533.09 1475.44 1533.09 1468.33 Q1533.09 1461.2 1531.26 1457.66 Q1529.46 1454.1 1525.82 1454.1 M1525.82 1450.39 Q1531.63 1450.39 1534.69 1455 Q1537.77 1459.58 1537.77 1468.33 Q1537.77 1477.06 1534.69 1481.67 Q1531.63 1486.25 1525.82 1486.25 Q1520.01 1486.25 1516.93 1481.67 Q1513.88 1477.06 1513.88 1468.33 Q1513.88 1459.58 1516.93 1455 Q1520.01 1450.39 1525.82 1450.39 Z" fill="#000000" fill-rule="evenodd" fill-opacity="1" /><path clip-path="url(#clip760)" d="M1868.09 1455.09 L1856.28 1473.54 L1868.09 1473.54 L1868.09 1455.09 M1866.86 1451.02 L1872.74 1451.02 L1872.74 1473.54 L1877.67 1473.54 L1877.67 1477.43 L1872.74 1477.43 L1872.74 1485.58 L1868.09 1485.58 L1868.09 1477.43 L1852.48 1477.43 L1852.48 1472.92 L1866.86 1451.02 Z" fill="#000000" fill-rule="evenodd" fill-opacity="1" /><path clip-path="url(#clip760)" d="M1895.4 1454.1 Q1891.79 1454.1 1889.96 1457.66 Q1888.16 1461.2 1888.16 1468.33 Q1888.16 1475.44 1889.96 1479.01 Q1891.79 1482.55 1895.4 1482.55 Q1899.04 1482.55 1900.84 1479.01 Q1902.67 1475.44 1902.67 1468.33 Q1902.67 1461.2 1900.84 1457.66 Q1899.04 1454.1 1895.4 1454.1 M1895.4 1450.39 Q1901.21 1450.39 1904.27 1455 Q1907.35 1459.58 1907.35 1468.33 Q1907.35 1477.06 1904.27 1481.67 Q1901.21 1486.25 1895.4 1486.25 Q1889.59 1486.25 1886.51 1481.67 Q1883.46 1477.06 1883.46 1468.33 Q1883.46 1459.58 1886.51 1455 Q1889.59 1450.39 1895.4 1450.39 Z" fill="#000000" fill-rule="evenodd" fill-opacity="1" /><path clip-path="url(#clip760)" d="M1925.56 1454.1 Q1921.95 1454.1 1920.12 1457.66 Q1918.32 1461.2 1918.32 1468.33 Q1918.32 1475.44 1920.12 1479.01 Q1921.95 1482.55 1925.56 1482.55 Q1929.2 1482.55 1931 1479.01 Q1932.83 1475.44 1932.83 1468.33 Q1932.83 1461.2 1931 1457.66 Q1929.2 1454.1 1925.56 1454.1 M1925.56 1450.39 Q1931.37 1450.39 1934.43 1455 Q1937.51 1459.58 1937.51 1468.33 Q1937.51 1477.06 1934.43 1481.67 Q1931.37 1486.25 1925.56 1486.25 Q1919.75 1486.25 1916.67 1481.67 Q1913.62 1477.06 1913.62 1468.33 Q1913.62 1459.58 1916.67 1455 Q1919.75 1450.39 1925.56 1450.39 Z" fill="#000000" fill-rule="evenodd" fill-opacity="1" /><path clip-path="url(#clip760)" d="M2253.71 1451.02 L2272.06 1451.02 L2272.06 1454.96 L2257.99 1454.96 L2257.99 1463.43 Q2259.01 1463.08 2260.03 1462.92 Q2261.05 1462.73 2262.06 1462.73 Q2267.85 1462.73 2271.23 1465.9 Q2274.61 1469.08 2274.61 1474.49 Q2274.61 1480.07 2271.14 1483.17 Q2267.67 1486.25 2261.35 1486.25 Q2259.17 1486.25 2256.9 1485.88 Q2254.66 1485.51 2252.25 1484.77 L2252.25 1480.07 Q2254.33 1481.2 2256.55 1481.76 Q2258.78 1482.32 2261.25 1482.32 Q2265.26 1482.32 2267.6 1480.21 Q2269.93 1478.1 2269.93 1474.49 Q2269.93 1470.88 2267.6 1468.77 Q2265.26 1466.67 2261.25 1466.67 Q2259.38 1466.67 2257.5 1467.08 Q2255.65 1467.5 2253.71 1468.38 L2253.71 1451.02 Z" fill="#000000" fill-rule="evenodd" fill-opacity="1" /><path clip-path="url(#clip760)" d="M2293.82 1454.1 Q2290.21 1454.1 2288.38 1457.66 Q2286.58 1461.2 2286.58 1468.33 Q2286.58 1475.44 2288.38 1479.01 Q2290.21 1482.55 2293.82 1482.55 Q2297.46 1482.55 2299.26 1479.01 Q2301.09 1475.44 2301.09 1468.33 Q2301.09 1461.2 2299.26 1457.66 Q2297.46 1454.1 2293.82 1454.1 M2293.82 1450.39 Q2299.63 1450.39 2302.69 1455 Q2305.77 1459.58 2305.77 1468.33 Q2305.77 1477.06 2302.69 1481.67 Q2299.63 1486.25 2293.82 1486.25 Q2288.01 1486.25 2284.93 1481.67 Q2281.88 1477.06 2281.88 1468.33 Q2281.88 1459.58 2284.93 1455 Q2288.01 1450.39 2293.82 1450.39 Z" fill="#000000" fill-rule="evenodd" fill-opacity="1" /><path clip-path="url(#clip760)" d="M2323.98 1454.1 Q2320.37 1454.1 2318.55 1457.66 Q2316.74 1461.2 2316.74 1468.33 Q2316.74 1475.44 2318.55 1479.01 Q2320.37 1482.55 2323.98 1482.55 Q2327.62 1482.55 2329.42 1479.01 Q2331.25 1475.44 2331.25 1468.33 Q2331.25 1461.2 2329.42 1457.66 Q2327.62 1454.1 2323.98 1454.1 M2323.98 1450.39 Q2329.8 1450.39 2332.85 1455 Q2335.93 1459.58 2335.93 1468.33 Q2335.93 1477.06 2332.85 1481.67 Q2329.8 1486.25 2323.98 1486.25 Q2318.17 1486.25 2315.1 1481.67 Q2312.04 1477.06 2312.04 1468.33 Q2312.04 1459.58 2315.1 1455 Q2318.17 1450.39 2323.98 1450.39 Z" fill="#000000" fill-rule="evenodd" fill-opacity="1" /><path clip-path="url(#clip760)" d="M1298.33 1520.52 L1306.99 1520.52 L1328.06 1560.28 L1328.06 1520.52 L1334.29 1520.52 L1334.29 1568.04 L1325.64 1568.04 L1304.57 1528.29 L1304.57 1568.04 L1298.33 1568.04 L1298.33 1520.52 Z" fill="#000000" fill-rule="evenodd" fill-opacity="1" /><polyline clip-path="url(#clip762)" style="stroke:#000000; stroke-linecap:round; stroke-linejoin:round; stroke-width:2; stroke-opacity:0.1; fill:none" points="279.866,1358.62 2352.76,1358.62 "/>
<polyline clip-path="url(#clip762)" style="stroke:#000000; stroke-linecap:round; stroke-linejoin:round; stroke-width:2; stroke-opacity:0.1; fill:none" points="279.866,1040.51 2352.76,1040.51 "/>
<polyline clip-path="url(#clip762)" style="stroke:#000000; stroke-linecap:round; stroke-linejoin:round; stroke-width:2; stroke-opacity:0.1; fill:none" points="279.866,722.405 2352.76,722.405 "/>
<polyline clip-path="url(#clip762)" style="stroke:#000000; stroke-linecap:round; stroke-linejoin:round; stroke-width:2; stroke-opacity:0.1; fill:none" points="279.866,404.295 2352.76,404.295 "/>
<polyline clip-path="url(#clip762)" style="stroke:#000000; stroke-linecap:round; stroke-linejoin:round; stroke-width:2; stroke-opacity:0.1; fill:none" points="279.866,86.1857 2352.76,86.1857 "/>
<polyline clip-path="url(#clip760)" style="stroke:#000000; stroke-linecap:round; stroke-linejoin:round; stroke-width:4; stroke-opacity:1; fill:none" points="279.866,1423.18 279.866,47.2441 "/>
<polyline clip-path="url(#clip760)" style="stroke:#000000; stroke-linecap:round; stroke-linejoin:round; stroke-width:4; stroke-opacity:1; fill:none" points="279.866,1358.62 298.764,1358.62 "/>
<polyline clip-path="url(#clip760)" style="stroke:#000000; stroke-linecap:round; stroke-linejoin:round; stroke-width:4; stroke-opacity:1; fill:none" points="279.866,1040.51 298.764,1040.51 "/>
<polyline clip-path="url(#clip760)" style="stroke:#000000; stroke-linecap:round; stroke-linejoin:round; stroke-width:4; stroke-opacity:1; fill:none" points="279.866,722.405 298.764,722.405 "/>
<polyline clip-path="url(#clip760)" style="stroke:#000000; stroke-linecap:round; stroke-linejoin:round; stroke-width:4; stroke-opacity:1; fill:none" points="279.866,404.295 298.764,404.295 "/>
<polyline clip-path="url(#clip760)" style="stroke:#000000; stroke-linecap:round; stroke-linejoin:round; stroke-width:4; stroke-opacity:1; fill:none" points="279.866,86.1857 298.764,86.1857 "/>
<path clip-path="url(#clip760)" d="M126.205 1344.42 Q122.593 1344.42 120.765 1347.99 Q118.959 1351.53 118.959 1358.66 Q118.959 1365.76 120.765 1369.33 Q122.593 1372.87 126.205 1372.87 Q129.839 1372.87 131.644 1369.33 Q133.473 1365.76 133.473 1358.66 Q133.473 1351.53 131.644 1347.99 Q129.839 1344.42 126.205 1344.42 M126.205 1340.72 Q132.015 1340.72 135.07 1345.33 Q138.149 1349.91 138.149 1358.66 Q138.149 1367.39 135.07 1371.99 Q132.015 1376.57 126.205 1376.57 Q120.394 1376.57 117.316 1371.99 Q114.26 1367.39 114.26 1358.66 Q114.26 1349.91 117.316 1345.33 Q120.394 1340.72 126.205 1340.72 Z" fill="#000000" fill-rule="evenodd" fill-opacity="1" /><path clip-path="url(#clip760)" d="M146.366 1370.02 L151.251 1370.02 L151.251 1375.9 L146.366 1375.9 L146.366 1370.02 Z" fill="#000000" fill-rule="evenodd" fill-opacity="1" /><path clip-path="url(#clip760)" d="M161.575 1375.19 L161.575 1370.93 Q163.334 1371.76 165.14 1372.2 Q166.945 1372.64 168.681 1372.64 Q173.311 1372.64 175.741 1369.54 Q178.195 1366.41 178.542 1360.07 Q177.2 1362.06 175.139 1363.13 Q173.079 1364.19 170.579 1364.19 Q165.394 1364.19 162.362 1361.07 Q159.353 1357.92 159.353 1352.48 Q159.353 1347.15 162.501 1343.94 Q165.649 1340.72 170.88 1340.72 Q176.876 1340.72 180.024 1345.33 Q183.195 1349.91 183.195 1358.66 Q183.195 1366.83 179.306 1371.71 Q175.44 1376.57 168.889 1376.57 Q167.13 1376.57 165.325 1376.23 Q163.519 1375.88 161.575 1375.19 M170.88 1360.53 Q174.028 1360.53 175.857 1358.38 Q177.709 1356.23 177.709 1352.48 Q177.709 1348.75 175.857 1346.6 Q174.028 1344.42 170.88 1344.42 Q167.732 1344.42 165.88 1346.6 Q164.052 1348.75 164.052 1352.48 Q164.052 1356.23 165.88 1358.38 Q167.732 1360.53 170.88 1360.53 Z" fill="#000000" fill-rule="evenodd" fill-opacity="1" /><path clip-path="url(#clip760)" d="M191.737 1375.19 L191.737 1370.93 Q193.496 1371.76 195.301 1372.2 Q197.107 1372.64 198.843 1372.64 Q203.473 1372.64 205.903 1369.54 Q208.357 1366.41 208.704 1360.07 Q207.362 1362.06 205.301 1363.13 Q203.241 1364.19 200.741 1364.19 Q195.556 1364.19 192.524 1361.07 Q189.514 1357.92 189.514 1352.48 Q189.514 1347.15 192.663 1343.94 Q195.811 1340.72 201.042 1340.72 Q207.037 1340.72 210.186 1345.33 Q213.357 1349.91 213.357 1358.66 Q213.357 1366.83 209.468 1371.71 Q205.602 1376.57 199.051 1376.57 Q197.292 1376.57 195.487 1376.23 Q193.681 1375.88 191.737 1375.19 M201.042 1360.53 Q204.19 1360.53 206.019 1358.38 Q207.871 1356.23 207.871 1352.48 Q207.871 1348.75 206.019 1346.6 Q204.19 1344.42 201.042 1344.42 Q197.894 1344.42 196.042 1346.6 Q194.213 1348.75 194.213 1352.48 Q194.213 1356.23 196.042 1358.38 Q197.894 1360.53 201.042 1360.53 Z" fill="#000000" fill-rule="evenodd" fill-opacity="1" /><path clip-path="url(#clip760)" d="M232.338 1356.76 Q229.19 1356.76 227.338 1358.91 Q225.51 1361.07 225.51 1364.82 Q225.51 1368.54 227.338 1370.72 Q229.19 1372.87 232.338 1372.87 Q235.486 1372.87 237.315 1370.72 Q239.167 1368.54 239.167 1364.82 Q239.167 1361.07 237.315 1358.91 Q235.486 1356.76 232.338 1356.76 M241.621 1342.11 L241.621 1346.37 Q239.861 1345.53 238.056 1345.09 Q236.273 1344.65 234.514 1344.65 Q229.885 1344.65 227.431 1347.78 Q225 1350.9 224.653 1357.22 Q226.019 1355.21 228.079 1354.14 Q230.139 1353.06 232.616 1353.06 Q237.824 1353.06 240.834 1356.23 Q243.866 1359.38 243.866 1364.82 Q243.866 1370.14 240.718 1373.36 Q237.57 1376.57 232.338 1376.57 Q226.343 1376.57 223.172 1371.99 Q220 1367.39 220 1358.66 Q220 1350.46 223.889 1345.6 Q227.778 1340.72 234.329 1340.72 Q236.088 1340.72 237.871 1341.07 Q239.676 1341.41 241.621 1342.11 Z" fill="#000000" fill-rule="evenodd" fill-opacity="1" /><path clip-path="url(#clip760)" d="M127.269 1026.31 Q123.658 1026.31 121.83 1029.88 Q120.024 1033.42 120.024 1040.55 Q120.024 1047.66 121.83 1051.22 Q123.658 1054.76 127.269 1054.76 Q130.904 1054.76 132.709 1051.22 Q134.538 1047.66 134.538 1040.55 Q134.538 1033.42 132.709 1029.88 Q130.904 1026.31 127.269 1026.31 M127.269 1022.61 Q133.08 1022.61 136.135 1027.22 Q139.214 1031.8 139.214 1040.55 Q139.214 1049.28 136.135 1053.88 Q133.08 1058.47 127.269 1058.47 Q121.459 1058.47 118.381 1053.88 Q115.325 1049.28 115.325 1040.55 Q115.325 1031.8 118.381 1027.22 Q121.459 1022.61 127.269 1022.61 Z" fill="#000000" fill-rule="evenodd" fill-opacity="1" /><path clip-path="url(#clip760)" d="M147.431 1051.91 L152.316 1051.91 L152.316 1057.79 L147.431 1057.79 L147.431 1051.91 Z" fill="#000000" fill-rule="evenodd" fill-opacity="1" /><path clip-path="url(#clip760)" d="M162.64 1057.08 L162.64 1052.82 Q164.399 1053.65 166.204 1054.09 Q168.01 1054.53 169.746 1054.53 Q174.376 1054.53 176.806 1051.43 Q179.26 1048.3 179.607 1041.96 Q178.264 1043.95 176.204 1045.02 Q174.144 1046.08 171.644 1046.08 Q166.459 1046.08 163.427 1042.96 Q160.417 1039.81 160.417 1034.37 Q160.417 1029.04 163.565 1025.83 Q166.714 1022.61 171.945 1022.61 Q177.94 1022.61 181.089 1027.22 Q184.26 1031.8 184.26 1040.55 Q184.26 1048.72 180.371 1053.6 Q176.505 1058.47 169.954 1058.47 Q168.195 1058.47 166.39 1058.12 Q164.584 1057.77 162.64 1057.08 M171.945 1042.42 Q175.093 1042.42 176.922 1040.27 Q178.774 1038.12 178.774 1034.37 Q178.774 1030.64 176.922 1028.49 Q175.093 1026.31 171.945 1026.31 Q168.797 1026.31 166.945 1028.49 Q165.116 1030.64 165.116 1034.37 Q165.116 1038.12 166.945 1040.27 Q168.797 1042.42 171.945 1042.42 Z" fill="#000000" fill-rule="evenodd" fill-opacity="1" /><path clip-path="url(#clip760)" d="M192.801 1057.08 L192.801 1052.82 Q194.561 1053.65 196.366 1054.09 Q198.172 1054.53 199.908 1054.53 Q204.537 1054.53 206.968 1051.43 Q209.422 1048.3 209.769 1041.96 Q208.426 1043.95 206.366 1045.02 Q204.306 1046.08 201.806 1046.08 Q196.621 1046.08 193.588 1042.96 Q190.579 1039.81 190.579 1034.37 Q190.579 1029.04 193.727 1025.83 Q196.875 1022.61 202.107 1022.61 Q208.102 1022.61 211.25 1027.22 Q214.422 1031.8 214.422 1040.55 Q214.422 1048.72 210.533 1053.6 Q206.667 1058.47 200.116 1058.47 Q198.357 1058.47 196.551 1058.12 Q194.746 1057.77 192.801 1057.08 M202.107 1042.42 Q205.255 1042.42 207.084 1040.27 Q208.936 1038.12 208.936 1034.37 Q208.936 1030.64 207.084 1028.49 Q205.255 1026.31 202.107 1026.31 Q198.959 1026.31 197.107 1028.49 Q195.278 1030.64 195.278 1034.37 Q195.278 1038.12 197.107 1040.27 Q198.959 1042.42 202.107 1042.42 Z" fill="#000000" fill-rule="evenodd" fill-opacity="1" /><path clip-path="url(#clip760)" d="M221.644 1023.23 L243.866 1023.23 L243.866 1025.22 L231.32 1057.79 L226.435 1057.79 L238.241 1027.17 L221.644 1027.17 L221.644 1023.23 Z" fill="#000000" fill-rule="evenodd" fill-opacity="1" /><path clip-path="url(#clip760)" d="M126.459 708.203 Q122.848 708.203 121.019 711.768 Q119.214 715.31 119.214 722.439 Q119.214 729.546 121.019 733.111 Q122.848 736.652 126.459 736.652 Q130.093 736.652 131.899 733.111 Q133.728 729.546 133.728 722.439 Q133.728 715.31 131.899 711.768 Q130.093 708.203 126.459 708.203 M126.459 704.5 Q132.269 704.5 135.325 709.106 Q138.404 713.689 138.404 722.439 Q138.404 731.166 135.325 735.773 Q132.269 740.356 126.459 740.356 Q120.649 740.356 117.57 735.773 Q114.515 731.166 114.515 722.439 Q114.515 713.689 117.57 709.106 Q120.649 704.5 126.459 704.5 Z" fill="#000000" fill-rule="evenodd" fill-opacity="1" /><path clip-path="url(#clip760)" d="M146.621 733.805 L151.505 733.805 L151.505 739.685 L146.621 739.685 L146.621 733.805 Z" fill="#000000" fill-rule="evenodd" fill-opacity="1" /><path clip-path="url(#clip760)" d="M161.829 738.967 L161.829 734.708 Q163.589 735.541 165.394 735.981 Q167.2 736.421 168.936 736.421 Q173.565 736.421 175.996 733.319 Q178.45 730.194 178.797 723.851 Q177.454 725.842 175.394 726.907 Q173.334 727.972 170.834 727.972 Q165.649 727.972 162.616 724.847 Q159.607 721.699 159.607 716.259 Q159.607 710.935 162.755 707.717 Q165.903 704.5 171.135 704.5 Q177.13 704.5 180.278 709.106 Q183.45 713.689 183.45 722.439 Q183.45 730.611 179.561 735.495 Q175.695 740.356 169.144 740.356 Q167.385 740.356 165.579 740.009 Q163.774 739.661 161.829 738.967 M171.135 724.314 Q174.283 724.314 176.112 722.162 Q177.964 720.009 177.964 716.259 Q177.964 712.532 176.112 710.379 Q174.283 708.203 171.135 708.203 Q167.987 708.203 166.135 710.379 Q164.306 712.532 164.306 716.259 Q164.306 720.009 166.135 722.162 Q167.987 724.314 171.135 724.314 Z" fill="#000000" fill-rule="evenodd" fill-opacity="1" /><path clip-path="url(#clip760)" d="M191.991 738.967 L191.991 734.708 Q193.75 735.541 195.556 735.981 Q197.362 736.421 199.098 736.421 Q203.727 736.421 206.158 733.319 Q208.612 730.194 208.959 723.851 Q207.616 725.842 205.556 726.907 Q203.496 727.972 200.996 727.972 Q195.811 727.972 192.778 724.847 Q189.769 721.699 189.769 716.259 Q189.769 710.935 192.917 707.717 Q196.065 704.5 201.297 704.5 Q207.292 704.5 210.44 709.106 Q213.611 713.689 213.611 722.439 Q213.611 730.611 209.723 735.495 Q205.857 740.356 199.306 740.356 Q197.547 740.356 195.741 740.009 Q193.936 739.661 191.991 738.967 M201.297 724.314 Q204.445 724.314 206.274 722.162 Q208.125 720.009 208.125 716.259 Q208.125 712.532 206.274 710.379 Q204.445 708.203 201.297 708.203 Q198.149 708.203 196.297 710.379 Q194.468 712.532 194.468 716.259 Q194.468 720.009 196.297 722.162 Q198.149 724.314 201.297 724.314 Z" fill="#000000" fill-rule="evenodd" fill-opacity="1" /><path clip-path="url(#clip760)" d="M232.014 723.273 Q228.681 723.273 226.76 725.055 Q224.861 726.837 224.861 729.962 Q224.861 733.087 226.76 734.87 Q228.681 736.652 232.014 736.652 Q235.347 736.652 237.269 734.87 Q239.19 733.064 239.19 729.962 Q239.19 726.837 237.269 725.055 Q235.371 723.273 232.014 723.273 M227.338 721.282 Q224.329 720.541 222.639 718.481 Q220.973 716.421 220.973 713.458 Q220.973 709.314 223.912 706.907 Q226.875 704.5 232.014 704.5 Q237.176 704.5 240.116 706.907 Q243.056 709.314 243.056 713.458 Q243.056 716.421 241.366 718.481 Q239.699 720.541 236.713 721.282 Q240.093 722.069 241.968 724.361 Q243.866 726.652 243.866 729.962 Q243.866 734.986 240.787 737.671 Q237.732 740.356 232.014 740.356 Q226.297 740.356 223.218 737.671 Q220.162 734.986 220.162 729.962 Q220.162 726.652 222.061 724.361 Q223.959 722.069 227.338 721.282 M225.625 713.898 Q225.625 716.583 227.292 718.088 Q228.982 719.592 232.014 719.592 Q235.023 719.592 236.713 718.088 Q238.426 716.583 238.426 713.898 Q238.426 711.213 236.713 709.708 Q235.023 708.203 232.014 708.203 Q228.982 708.203 227.292 709.708 Q225.625 711.213 225.625 713.898 Z" fill="#000000" fill-rule="evenodd" fill-opacity="1" /><path clip-path="url(#clip760)" d="M126.552 390.094 Q122.941 390.094 121.112 393.659 Q119.306 397.2 119.306 404.33 Q119.306 411.436 121.112 415.001 Q122.941 418.543 126.552 418.543 Q130.186 418.543 131.992 415.001 Q133.82 411.436 133.82 404.33 Q133.82 397.2 131.992 393.659 Q130.186 390.094 126.552 390.094 M126.552 386.39 Q132.362 386.39 135.417 390.997 Q138.496 395.58 138.496 404.33 Q138.496 413.057 135.417 417.663 Q132.362 422.246 126.552 422.246 Q120.742 422.246 117.663 417.663 Q114.607 413.057 114.607 404.33 Q114.607 395.58 117.663 390.997 Q120.742 386.39 126.552 386.39 Z" fill="#000000" fill-rule="evenodd" fill-opacity="1" /><path clip-path="url(#clip760)" d="M146.714 415.696 L151.598 415.696 L151.598 421.575 L146.714 421.575 L146.714 415.696 Z" fill="#000000" fill-rule="evenodd" fill-opacity="1" /><path clip-path="url(#clip760)" d="M161.922 420.858 L161.922 416.598 Q163.681 417.432 165.487 417.871 Q167.292 418.311 169.028 418.311 Q173.658 418.311 176.089 415.209 Q178.542 412.084 178.889 405.742 Q177.547 407.733 175.487 408.797 Q173.427 409.862 170.927 409.862 Q165.741 409.862 162.709 406.737 Q159.7 403.589 159.7 398.149 Q159.7 392.825 162.848 389.608 Q165.996 386.39 171.227 386.39 Q177.223 386.39 180.371 390.997 Q183.542 395.58 183.542 404.33 Q183.542 412.501 179.653 417.385 Q175.788 422.246 169.237 422.246 Q167.477 422.246 165.672 421.899 Q163.866 421.552 161.922 420.858 M171.227 406.205 Q174.376 406.205 176.204 404.052 Q178.056 401.899 178.056 398.149 Q178.056 394.423 176.204 392.27 Q174.376 390.094 171.227 390.094 Q168.079 390.094 166.227 392.27 Q164.399 394.423 164.399 398.149 Q164.399 401.899 166.227 404.052 Q168.079 406.205 171.227 406.205 Z" fill="#000000" fill-rule="evenodd" fill-opacity="1" /><path clip-path="url(#clip760)" d="M192.084 420.858 L192.084 416.598 Q193.843 417.432 195.649 417.871 Q197.454 418.311 199.19 418.311 Q203.82 418.311 206.25 415.209 Q208.704 412.084 209.051 405.742 Q207.709 407.733 205.649 408.797 Q203.588 409.862 201.088 409.862 Q195.903 409.862 192.871 406.737 Q189.862 403.589 189.862 398.149 Q189.862 392.825 193.01 389.608 Q196.158 386.39 201.389 386.39 Q207.385 386.39 210.533 390.997 Q213.704 395.58 213.704 404.33 Q213.704 412.501 209.815 417.385 Q205.949 422.246 199.399 422.246 Q197.639 422.246 195.834 421.899 Q194.028 421.552 192.084 420.858 M201.389 406.205 Q204.537 406.205 206.366 404.052 Q208.218 401.899 208.218 398.149 Q208.218 394.423 206.366 392.27 Q204.537 390.094 201.389 390.094 Q198.241 390.094 196.389 392.27 Q194.561 394.423 194.561 398.149 Q194.561 401.899 196.389 404.052 Q198.241 406.205 201.389 406.205 Z" fill="#000000" fill-rule="evenodd" fill-opacity="1" /><path clip-path="url(#clip760)" d="M222.246 420.858 L222.246 416.598 Q224.005 417.432 225.81 417.871 Q227.616 418.311 229.352 418.311 Q233.982 418.311 236.412 415.209 Q238.866 412.084 239.213 405.742 Q237.871 407.733 235.81 408.797 Q233.75 409.862 231.25 409.862 Q226.065 409.862 223.033 406.737 Q220.023 403.589 220.023 398.149 Q220.023 392.825 223.172 389.608 Q226.32 386.39 231.551 386.39 Q237.547 386.39 240.695 390.997 Q243.866 395.58 243.866 404.33 Q243.866 412.501 239.977 417.385 Q236.111 422.246 229.56 422.246 Q227.801 422.246 225.996 421.899 Q224.19 421.552 222.246 420.858 M231.551 406.205 Q234.699 406.205 236.528 404.052 Q238.38 401.899 238.38 398.149 Q238.38 394.423 236.528 392.27 Q234.699 390.094 231.551 390.094 Q228.403 390.094 226.551 392.27 Q224.723 394.423 224.723 398.149 Q224.723 401.899 226.551 404.052 Q228.403 406.205 231.551 406.205 Z" fill="#000000" fill-rule="evenodd" fill-opacity="1" /><path clip-path="url(#clip760)" d="M117.177 99.5305 L124.816 99.5305 L124.816 73.1649 L116.506 74.8316 L116.506 70.5723 L124.769 68.9057 L129.445 68.9057 L129.445 99.5305 L137.084 99.5305 L137.084 103.466 L117.177 103.466 L117.177 99.5305 Z" fill="#000000" fill-rule="evenodd" fill-opacity="1" /><path clip-path="url(#clip760)" d="M146.529 97.5861 L151.413 97.5861 L151.413 103.466 L146.529 103.466 L146.529 97.5861 Z" fill="#000000" fill-rule="evenodd" fill-opacity="1" /><path clip-path="url(#clip760)" d="M171.598 71.9844 Q167.987 71.9844 166.158 75.5492 Q164.352 79.0908 164.352 86.2204 Q164.352 93.3268 166.158 96.8916 Q167.987 100.433 171.598 100.433 Q175.232 100.433 177.038 96.8916 Q178.866 93.3268 178.866 86.2204 Q178.866 79.0908 177.038 75.5492 Q175.232 71.9844 171.598 71.9844 M171.598 68.2807 Q177.408 68.2807 180.464 72.8871 Q183.542 77.4704 183.542 86.2204 Q183.542 94.9472 180.464 99.5537 Q177.408 104.137 171.598 104.137 Q165.788 104.137 162.709 99.5537 Q159.653 94.9472 159.653 86.2204 Q159.653 77.4704 162.709 72.8871 Q165.788 68.2807 171.598 68.2807 Z" fill="#000000" fill-rule="evenodd" fill-opacity="1" /><path clip-path="url(#clip760)" d="M201.76 71.9844 Q198.149 71.9844 196.32 75.5492 Q194.514 79.0908 194.514 86.2204 Q194.514 93.3268 196.32 96.8916 Q198.149 100.433 201.76 100.433 Q205.394 100.433 207.199 96.8916 Q209.028 93.3268 209.028 86.2204 Q209.028 79.0908 207.199 75.5492 Q205.394 71.9844 201.76 71.9844 M201.76 68.2807 Q207.57 68.2807 210.625 72.8871 Q213.704 77.4704 213.704 86.2204 Q213.704 94.9472 210.625 99.5537 Q207.57 104.137 201.76 104.137 Q195.95 104.137 192.871 99.5537 Q189.815 94.9472 189.815 86.2204 Q189.815 77.4704 192.871 72.8871 Q195.95 68.2807 201.76 68.2807 Z" fill="#000000" fill-rule="evenodd" fill-opacity="1" /><path clip-path="url(#clip760)" d="M231.922 71.9844 Q228.31 71.9844 226.482 75.5492 Q224.676 79.0908 224.676 86.2204 Q224.676 93.3268 226.482 96.8916 Q228.31 100.433 231.922 100.433 Q235.556 100.433 237.361 96.8916 Q239.19 93.3268 239.19 86.2204 Q239.19 79.0908 237.361 75.5492 Q235.556 71.9844 231.922 71.9844 M231.922 68.2807 Q237.732 68.2807 240.787 72.8871 Q243.866 77.4704 243.866 86.2204 Q243.866 94.9472 240.787 99.5537 Q237.732 104.137 231.922 104.137 Q226.111 104.137 223.033 99.5537 Q219.977 94.9472 219.977 86.2204 Q219.977 77.4704 223.033 72.8871 Q226.111 68.2807 231.922 68.2807 Z" fill="#000000" fill-rule="evenodd" fill-opacity="1" /><path clip-path="url(#clip760)" d="M14.479 893.559 L14.479 887.702 L64.0042 887.702 L64.0042 893.559 L14.479 893.559 Z" fill="#000000" fill-rule="evenodd" fill-opacity="1" /><path clip-path="url(#clip760)" d="M46.0847 859.248 Q46.0847 866.346 47.7079 869.083 Q49.3312 871.82 53.2461 871.82 Q56.3653 871.82 58.2114 869.783 Q60.0256 867.714 60.0256 864.181 Q60.0256 859.311 56.5881 856.383 Q53.1188 853.423 47.3897 853.423 L46.0847 853.423 L46.0847 859.248 M43.6657 847.567 L64.0042 847.567 L64.0042 853.423 L58.5933 853.423 Q61.8398 855.428 63.3994 858.42 Q64.9272 861.412 64.9272 865.741 Q64.9272 871.215 61.8716 874.462 Q58.7843 877.676 53.6281 877.676 Q47.6125 877.676 44.5569 873.666 Q41.5014 869.624 41.5014 861.635 L41.5014 853.423 L40.9285 853.423 Q36.8862 853.423 34.6901 856.097 Q32.4621 858.739 32.4621 863.545 Q32.4621 866.6 33.1941 869.497 Q33.9262 872.393 35.3903 875.067 L29.9795 875.067 Q28.7381 871.852 28.1334 868.828 Q27.4968 865.804 27.4968 862.94 Q27.4968 855.206 31.5072 851.386 Q35.5176 847.567 43.6657 847.567 Z" fill="#000000" fill-rule="evenodd" fill-opacity="1" /><path clip-path="url(#clip760)" d="M35.1993 807.749 Q31.2526 805.553 29.3747 802.497 Q27.4968 799.442 27.4968 795.304 Q27.4968 789.734 31.4117 786.711 Q35.2948 783.687 42.4881 783.687 L64.0042 783.687 L64.0042 789.575 L42.679 789.575 Q37.5546 789.575 35.072 791.389 Q32.5894 793.204 32.5894 796.927 Q32.5894 801.479 35.6131 804.121 Q38.6368 806.763 43.8567 806.763 L64.0042 806.763 L64.0042 812.651 L42.679 812.651 Q37.5228 812.651 35.072 814.465 Q32.5894 816.279 32.5894 820.067 Q32.5894 824.555 35.6449 827.196 Q38.6686 829.838 43.8567 829.838 L64.0042 829.838 L64.0042 835.726 L28.3562 835.726 L28.3562 829.838 L33.8944 829.838 Q30.616 827.833 29.0564 825.032 Q27.4968 822.231 27.4968 818.38 Q27.4968 814.497 29.4702 811.791 Q31.4436 809.054 35.1993 807.749 Z" fill="#000000" fill-rule="evenodd" fill-opacity="1" /><path clip-path="url(#clip760)" d="M46.212 746.416 Q39.7508 746.416 36.0905 749.089 Q32.3984 751.731 32.3984 756.378 Q32.3984 761.025 36.0905 763.699 Q39.7508 766.34 46.212 766.34 Q52.6732 766.34 56.3653 763.699 Q60.0256 761.025 60.0256 756.378 Q60.0256 751.731 56.3653 749.089 Q52.6732 746.416 46.212 746.416 M33.7671 766.34 Q30.5842 764.494 29.0564 761.693 Q27.4968 758.861 27.4968 754.946 Q27.4968 748.453 32.6531 744.41 Q37.8093 740.336 46.212 740.336 Q54.6147 740.336 59.771 744.41 Q64.9272 748.453 64.9272 754.946 Q64.9272 758.861 63.3994 761.693 Q61.8398 764.494 58.657 766.34 L64.0042 766.34 L64.0042 772.229 L14.479 772.229 L14.479 766.34 L33.7671 766.34 Z" fill="#000000" fill-rule="evenodd" fill-opacity="1" /><path clip-path="url(#clip760)" d="M29.4065 687.183 L34.9447 687.183 Q33.6716 689.665 33.035 692.339 Q32.3984 695.013 32.3984 697.877 Q32.3984 702.238 33.7352 704.434 Q35.072 706.598 37.7456 706.598 Q39.7826 706.598 40.9603 705.039 Q42.1061 703.479 43.1565 698.768 L43.6021 696.763 Q44.9389 690.525 47.3897 687.915 Q49.8086 685.273 54.1691 685.273 Q59.1344 685.273 62.0308 689.22 Q64.9272 693.135 64.9272 700.01 Q64.9272 702.874 64.3543 705.993 Q63.8132 709.081 62.6992 712.518 L56.6518 712.518 Q58.3387 709.272 59.198 706.121 Q60.0256 702.97 60.0256 699.882 Q60.0256 695.745 58.6251 693.517 Q57.1929 691.289 54.6147 691.289 Q52.2276 691.289 50.9545 692.912 Q49.6813 694.503 48.5037 699.946 L48.0262 701.983 Q46.8804 707.426 44.5251 709.845 Q42.138 712.264 38.0002 712.264 Q32.9713 712.264 30.2341 708.699 Q27.4968 705.134 27.4968 698.577 Q27.4968 695.331 27.9743 692.466 Q28.4517 689.602 29.4065 687.183 Z" fill="#000000" fill-rule="evenodd" fill-opacity="1" /><path clip-path="url(#clip760)" d="M42.4881 646.315 L64.0042 646.315 L64.0042 652.171 L42.679 652.171 Q37.6183 652.171 35.1038 654.145 Q32.5894 656.118 32.5894 660.065 Q32.5894 664.807 35.6131 667.545 Q38.6368 670.282 43.8567 670.282 L64.0042 670.282 L64.0042 676.17 L14.479 676.17 L14.479 670.282 L33.8944 670.282 Q30.6797 668.181 29.0883 665.348 Q27.4968 662.484 27.4968 658.76 Q27.4968 652.617 31.3163 649.466 Q35.1038 646.315 42.4881 646.315 Z" fill="#000000" fill-rule="evenodd" fill-opacity="1" /><path clip-path="url(#clip760)" d="M28.3562 634.634 L28.3562 628.777 L64.0042 628.777 L64.0042 634.634 L28.3562 634.634 M14.479 634.634 L14.479 628.777 L21.895 628.777 L21.895 634.634 L14.479 634.634 Z" fill="#000000" fill-rule="evenodd" fill-opacity="1" /><path clip-path="url(#clip760)" d="M14.479 598.477 L19.3487 598.477 L19.3487 604.078 Q19.3487 607.229 20.6219 608.471 Q21.895 609.68 25.2052 609.68 L28.3562 609.68 L28.3562 600.036 L32.9077 600.036 L32.9077 609.68 L64.0042 609.68 L64.0042 615.569 L32.9077 615.569 L32.9077 621.17 L28.3562 621.17 L28.3562 615.569 L25.8736 615.569 Q19.9216 615.569 17.2162 612.799 Q14.479 610.03 14.479 604.015 L14.479 598.477 Z" fill="#000000" fill-rule="evenodd" fill-opacity="1" /><path clip-path="url(#clip760)" d="M18.2347 588.928 L28.3562 588.928 L28.3562 576.865 L32.9077 576.865 L32.9077 588.928 L52.2594 588.928 Q56.6199 588.928 57.8613 587.75 Q59.1026 586.541 59.1026 582.881 L59.1026 576.865 L64.0042 576.865 L64.0042 582.881 Q64.0042 589.66 61.4897 592.238 Q58.9434 594.816 52.2594 594.816 L32.9077 594.816 L32.9077 599.113 L28.3562 599.113 L28.3562 594.816 L18.2347 594.816 L18.2347 588.928 Z" fill="#000000" fill-rule="evenodd" fill-opacity="1" /><polyline clip-path="url(#clip762)" style="stroke:#009af9; stroke-linecap:round; stroke-linejoin:round; stroke-width:4; stroke-opacity:1; fill:none" points="338.533,86.1857 342.524,217.634 346.515,325.562 350.505,415.738 354.496,492.192 358.487,557.82 362.478,614.761 366.469,664.625 370.46,708.649 374.451,747.797 378.442,782.834 382.433,814.372 386.424,842.907 390.415,868.849 394.406,892.532 398.397,914.239 402.388,934.206 406.378,952.633 410.369,969.692 414.36,985.528 418.351,1000.27 422.342,1014.02 426.333,1026.88 430.324,1038.94 434.315,1050.26 438.306,1060.91 442.297,1070.95 446.288,1080.42 450.279,1089.39 454.27,1097.87 458.261,1105.92 462.252,1113.57 466.242,1120.84 470.233,1127.76 474.224,1134.36 478.215,1140.65 482.206,1146.67 486.197,1152.42 490.188,1157.92 494.179,1163.19 498.17,1168.25 502.161,1173.1 506.152,1177.76 510.143,1182.24 514.134,1186.55 518.125,1190.7 522.116,1194.69 526.106,1198.54 530.097,1202.26 534.088,1205.85 538.079,1209.31 542.07,1212.66 546.061,1215.9 550.052,1219.03 554.043,1222.06 558.034,1225 562.025,1227.84 566.016,1230.6 570.007,1233.28 573.998,1235.87 577.989,1238.39 581.979,1240.84 585.97,1243.22 589.961,1245.53 593.952,1247.77 597.943,1249.96 601.934,1252.09 605.925,1254.16 609.916,1256.17 613.907,1258.14 617.898,1260.05 621.889,1261.92 625.88,1263.74 629.871,1265.51 633.862,1267.24 637.853,1268.93 641.843,1270.58 645.834,1272.19 649.825,1273.77 653.816,1275.3 657.807,1276.81 661.798,1278.28 665.789,1279.71 669.78,1281.12 673.771,1282.49 677.762,1283.84 681.753,1285.15 685.744,1286.44 689.735,1287.7 693.726,1288.94 697.717,1290.15 701.707,1291.34 705.698,1292.5 709.689,1293.64 713.68,1294.76 717.671,1295.85 721.662,1296.93 725.653,1297.98 729.644,1299.01 733.635,1300.03 737.626,1301.03 741.617,1302 745.608,1302.96 749.599,1303.91 753.59,1304.83 757.58,1305.74 761.571,1306.63 765.562,1307.51 769.553,1308.38 773.544,1309.22 777.535,1310.06 781.526,1310.88 785.517,1311.68 789.508,1312.47 793.499,1313.25 797.49,1314.02 801.481,1314.78 805.472,1315.52 809.463,1316.25 813.454,1316.97 817.444,1317.68 821.435,1318.37 825.426,1319.06 829.417,1319.74 833.408,1320.4 837.399,1321.06 841.39,1321.7 845.381,1322.34 849.372,1322.96 853.363,1323.58 857.354,1324.19 861.345,1324.79 865.336,1325.38 869.327,1325.96 873.317,1326.54 877.308,1327.11 881.299,1327.66 885.29,1328.21 889.281,1328.76 893.272,1329.29 897.263,1329.82 901.254,1330.34 905.245,1330.86 909.236,1331.37 913.227,1331.87 917.218,1332.36 921.209,1332.85 925.2,1333.33 929.191,1333.81 933.181,1334.28 937.172,1334.74 941.163,1335.2 945.154,1335.65 949.145,1336.1 953.136,1336.54 957.127,1336.97 961.118,1337.4 965.109,1337.83 969.1,1338.25 973.091,1338.66 977.082,1339.07 981.073,1339.48 985.064,1339.88 989.055,1340.27 993.045,1340.66 997.036,1341.05 1001.03,1341.43 1005.02,1341.81 1009.01,1342.18 1013,1342.55 1016.99,1342.91 1020.98,1343.27 1024.97,1343.63 1028.96,1343.98 1032.95,1344.33 1036.95,1344.68 1040.94,1345.02 1044.93,1345.36 1048.92,1345.69 1052.91,1346.02 1056.9,1346.35 1060.89,1346.67 1064.88,1346.99 1068.87,1347.31 1072.86,1347.62 1076.86,1347.93 1080.85,1348.24 1084.84,1348.54 1088.83,1348.84 1092.82,1349.14 1096.81,1349.43 1100.8,1349.72 1104.79,1350.01 1108.78,1350.3 1112.77,1350.58 1116.76,1350.86 1120.76,1351.14 1124.75,1351.41 1128.74,1351.68 1132.73,1351.95 1136.72,1352.22 1140.71,1352.48 1144.7,1352.74 1148.69,1353 1152.68,1353.26 1156.67,1353.51 1160.66,1353.77 1164.66,1354.02 1168.65,1354.26 1172.64,1354.51 1176.63,1354.75 1180.62,1354.99 1184.61,1355.23 1188.6,1355.46 1192.59,1355.7 1196.58,1355.93 1200.57,1356.16 1204.56,1356.39 1208.56,1356.61 1212.55,1356.84 1216.54,1357.06 1220.53,1357.28 1224.52,1357.49 1228.51,1357.71 1232.5,1357.92 1236.49,1358.14 1240.48,1358.35 1244.47,1358.56 1248.47,1358.76 1252.46,1358.97 1256.45,1359.17 1260.44,1359.37 1264.43,1359.57 1268.42,1359.77 1272.41,1359.97 1276.4,1360.16 1280.39,1360.35 1284.38,1360.55 1288.37,1360.74 1292.37,1360.93 1296.36,1361.11 1300.35,1361.3 1304.34,1361.48 1308.33,1361.66 1312.32,1361.85 1316.31,1362.03 1320.3,1362.2 1324.29,1362.38 1328.28,1362.56 1332.27,1362.73 1336.27,1362.9 1340.26,1363.07 1344.25,1363.24 1348.24,1363.41 1352.23,1363.58 1356.22,1363.75 1360.21,1363.91 1364.2,1364.08 1368.19,1364.24 1372.18,1364.4 1376.17,1364.56 1380.17,1364.72 1384.16,1364.88 1388.15,1365.03 1392.14,1365.19 1396.13,1365.34 1400.12,1365.49 1404.11,1365.65 1408.1,1365.8 1412.09,1365.95 1416.08,1366.1 1420.08,1366.24 1424.07,1366.39 1428.06,1366.54 1432.05,1366.68 1436.04,1366.82 1440.03,1366.97 1444.02,1367.11 1448.01,1367.25 1452,1367.39 1455.99,1367.53 1459.98,1367.66 1463.98,1367.8 1467.97,1367.94 1471.96,1368.07 1475.95,1368.2 1479.94,1368.34 1483.93,1368.47 1487.92,1368.6 1491.91,1368.73 1495.9,1368.86 1499.89,1368.99 1503.88,1369.11 1507.88,1369.24 1511.87,1369.37 1515.86,1369.49 1519.85,1369.62 1523.84,1369.74 1527.83,1369.86 1531.82,1369.98 1535.81,1370.1 1539.8,1370.23 1543.79,1370.34 1547.78,1370.46 1551.78,1370.58 1555.77,1370.7 1559.76,1370.81 1563.75,1370.93 1567.74,1371.04 1571.73,1371.16 1575.72,1371.27 1579.71,1371.39 1583.7,1371.5 1587.69,1371.61 1591.69,1371.72 1595.68,1371.83 1599.67,1371.94 1603.66,1372.05 1607.65,1372.15 1611.64,1372.26 1615.63,1372.37 1619.62,1372.47 1623.61,1372.58 1627.6,1372.68 1631.59,1372.79 1635.59,1372.89 1639.58,1372.99 1643.57,1373.1 1647.56,1373.2 1651.55,1373.3 1655.54,1373.4 1659.53,1373.5 1663.52,1373.6 1667.51,1373.7 1671.5,1373.79 1675.49,1373.89 1679.49,1373.99 1683.48,1374.08 1687.47,1374.18 1691.46,1374.28 1695.45,1374.37 1699.44,1374.46 1703.43,1374.56 1707.42,1374.65 1711.41,1374.74 1715.4,1374.84 1719.4,1374.93 1723.39,1375.02 1727.38,1375.11 1731.37,1375.2 1735.36,1375.29 1739.35,1375.38 1743.34,1375.46 1747.33,1375.55 1751.32,1375.64 1755.31,1375.73 1759.3,1375.81 1763.3,1375.9 1767.29,1375.98 1771.28,1376.07 1775.27,1376.15 1779.26,1376.24 1783.25,1376.32 1787.24,1376.4 1791.23,1376.49 1795.22,1376.57 1799.21,1376.65 1803.2,1376.73 1807.2,1376.81 1811.19,1376.89 1815.18,1376.97 1819.17,1377.05 1823.16,1377.13 1827.15,1377.21 1831.14,1377.29 1835.13,1377.37 1839.12,1377.45 1843.11,1377.52 1847.1,1377.6 1851.1,1377.68 1855.09,1377.75 1859.08,1377.83 1863.07,1377.9 1867.06,1377.98 1871.05,1378.05 1875.04,1378.13 1879.03,1378.2 1883.02,1378.27 1887.01,1378.35 1891.01,1378.42 1895,1378.49 1898.99,1378.56 1902.98,1378.63 1906.97,1378.7 1910.96,1378.78 1914.95,1378.85 1918.94,1378.92 1922.93,1378.99 1926.92,1379.06 1930.91,1379.12 1934.91,1379.19 1938.9,1379.26 1942.89,1379.33 1946.88,1379.4 1950.87,1379.46 1954.86,1379.53 1958.85,1379.6 1962.84,1379.66 1966.83,1379.73 1970.82,1379.8 1974.81,1379.86 1978.81,1379.93 1982.8,1379.99 1986.79,1380.06 1990.78,1380.12 1994.77,1380.18 1998.76,1380.25 2002.75,1380.31 2006.74,1380.37 2010.73,1380.44 2014.72,1380.5 2018.71,1380.56 2022.71,1380.62 2026.7,1380.68 2030.69,1380.75 2034.68,1380.81 2038.67,1380.87 2042.66,1380.93 2046.65,1380.99 2050.64,1381.05 2054.63,1381.11 2058.62,1381.17 2062.62,1381.22 2066.61,1381.28 2070.6,1381.34 2074.59,1381.4 2078.58,1381.46 2082.57,1381.52 2086.56,1381.57 2090.55,1381.63 2094.54,1381.69 2098.53,1381.74 2102.52,1381.8 2106.52,1381.86 2110.51,1381.91 2114.5,1381.97 2118.49,1382.02 2122.48,1382.08 2126.47,1382.13 2130.46,1382.19 2134.45,1382.24 2138.44,1382.3 2142.43,1382.35 2146.42,1382.4 2150.42,1382.46 2154.41,1382.51 2158.4,1382.56 2162.39,1382.62 2166.38,1382.67 2170.37,1382.72 2174.36,1382.77 2178.35,1382.83 2182.34,1382.88 2186.33,1382.93 2190.32,1382.98 2194.32,1383.03 2198.31,1383.08 2202.3,1383.13 2206.29,1383.18 2210.28,1383.23 2214.27,1383.28 2218.26,1383.33 2222.25,1383.38 2226.24,1383.43 2230.23,1383.48 2234.23,1383.53 2238.22,1383.58 2242.21,1383.63 2246.2,1383.67 2250.19,1383.72 2254.18,1383.77 2258.17,1383.82 2262.16,1383.87 2266.15,1383.91 2270.14,1383.96 2274.13,1384.01 2278.13,1384.05 2282.12,1384.1 2286.11,1384.15 2290.1,1384.19 2294.09,1384.24 "/>
<path clip-path="url(#clip760)" d="M2023.94 196.789 L2283.66 196.789 L2283.66 93.1086 L2023.94 93.1086  Z" fill="#ffffff" fill-rule="evenodd" fill-opacity="1"/>
<polyline clip-path="url(#clip760)" style="stroke:#000000; stroke-linecap:round; stroke-linejoin:round; stroke-width:4; stroke-opacity:1; fill:none" points="2023.94,196.789 2283.66,196.789 2283.66,93.1086 2023.94,93.1086 2023.94,196.789 "/>
<polyline clip-path="url(#clip760)" style="stroke:#009af9; stroke-linecap:round; stroke-linejoin:round; stroke-width:4; stroke-opacity:1; fill:none" points="2046.97,144.949 2185.17,144.949 "/>
<path clip-path="url(#clip760)" d="M2222.04 164.636 Q2220.23 169.266 2218.52 170.678 Q2216.81 172.09 2213.94 172.09 L2210.54 172.09 L2210.54 168.525 L2213.04 168.525 Q2214.79 168.525 2215.77 167.692 Q2216.74 166.858 2217.92 163.756 L2218.68 161.812 L2208.2 136.303 L2212.71 136.303 L2220.81 156.581 L2228.91 136.303 L2233.43 136.303 L2222.04 164.636 Z" fill="#000000" fill-rule="evenodd" fill-opacity="1" /><path clip-path="url(#clip760)" d="M2240.72 158.293 L2248.36 158.293 L2248.36 131.928 L2240.05 133.595 L2240.05 129.335 L2248.31 127.669 L2252.99 127.669 L2252.99 158.293 L2260.63 158.293 L2260.63 162.229 L2240.72 162.229 L2240.72 158.293 Z" fill="#000000" fill-rule="evenodd" fill-opacity="1" /></svg>
