<?xml version="1.0" encoding="utf-8"?>
<svg xmlns="http://www.w3.org/2000/svg" xmlns:xlink="http://www.w3.org/1999/xlink" width="600" height="400" viewBox="0 0 2400 1600">
<defs>
  <clipPath id="clip370">
    <rect x="0" y="0" width="2400" height="1600"/>
  </clipPath>
</defs>
<path clip-path="url(#clip370)" d="M0 1600 L2400 1600 L2400 0 L0 0  Z" fill="#ffffff" fill-rule="evenodd" fill-opacity="1"/>
<defs>
  <clipPath id="clip371">
    <rect x="480" y="0" width="1681" height="1600"/>
  </clipPath>
</defs>
<defs>
  <clipPath id="clip372">
    <rect x="156" y="47" width="2197" height="1440"/>
  </clipPath>
</defs>
<path clip-path="url(#clip370)" d="M156.598 1486.45 L2352.76 1486.45 L2352.76 47.2441 L156.598 47.2441  Z" fill="#ffffff" fill-rule="evenodd" fill-opacity="1"/>
<polyline clip-path="url(#clip372)" style="stroke:#000000; stroke-linecap:round; stroke-linejoin:round; stroke-width:2; stroke-opacity:0.1; fill:none" points="218.754,1486.45 218.754,47.2441 "/>
<polyline clip-path="url(#clip372)" style="stroke:#000000; stroke-linecap:round; stroke-linejoin:round; stroke-width:2; stroke-opacity:0.1; fill:none" points="736.715,1486.45 736.715,47.2441 "/>
<polyline clip-path="url(#clip372)" style="stroke:#000000; stroke-linecap:round; stroke-linejoin:round; stroke-width:2; stroke-opacity:0.1; fill:none" points="1254.68,1486.45 1254.68,47.2441 "/>
<polyline clip-path="url(#clip372)" style="stroke:#000000; stroke-linecap:round; stroke-linejoin:round; stroke-width:2; stroke-opacity:0.1; fill:none" points="1772.64,1486.45 1772.64,47.2441 "/>
<polyline clip-path="url(#clip372)" style="stroke:#000000; stroke-linecap:round; stroke-linejoin:round; stroke-width:2; stroke-opacity:0.1; fill:none" points="2290.6,1486.45 2290.6,47.2441 "/>
<polyline clip-path="url(#clip370)" style="stroke:#000000; stroke-linecap:round; stroke-linejoin:round; stroke-width:4; stroke-opacity:1; fill:none" points="156.598,1486.45 2352.76,1486.45 "/>
<polyline clip-path="url(#clip370)" style="stroke:#000000; stroke-linecap:round; stroke-linejoin:round; stroke-width:4; stroke-opacity:1; fill:none" points="218.754,1486.45 218.754,1467.55 "/>
<polyline clip-path="url(#clip370)" style="stroke:#000000; stroke-linecap:round; stroke-linejoin:round; stroke-width:4; stroke-opacity:1; fill:none" points="736.715,1486.45 736.715,1467.55 "/>
<polyline clip-path="url(#clip370)" style="stroke:#000000; stroke-linecap:round; stroke-linejoin:round; stroke-width:4; stroke-opacity:1; fill:none" points="1254.68,1486.45 1254.68,1467.55 "/>
<polyline clip-path="url(#clip370)" style="stroke:#000000; stroke-linecap:round; stroke-linejoin:round; stroke-width:4; stroke-opacity:1; fill:none" points="1772.64,1486.45 1772.64,1467.55 "/>
<polyline clip-path="url(#clip370)" style="stroke:#000000; stroke-linecap:round; stroke-linejoin:round; stroke-width:4; stroke-opacity:1; fill:none" points="2290.6,1486.45 2290.6,1467.55 "/>
<path clip-path="url(#clip370)" d="M218.754 1517.37 Q215.143 1517.37 213.314 1520.93 Q211.508 1524.47 211.508 1531.6 Q211.508 1538.71 213.314 1542.27 Q215.143 1545.82 218.754 1545.82 Q222.388 1545.82 224.193 1542.27 Q226.022 1538.71 226.022 1531.6 Q226.022 1524.47 224.193 1520.93 Q222.388 1517.37 218.754 1517.37 M218.754 1513.66 Q224.564 1513.66 227.619 1518.27 Q230.698 1522.85 230.698 1531.6 Q230.698 1540.33 227.619 1544.94 Q224.564 1549.52 218.754 1549.52 Q212.943 1549.52 209.865 1544.94 Q206.809 1540.33 206.809 1531.6 Q206.809 1522.85 209.865 1518.27 Q212.943 1513.66 218.754 1513.66 Z" fill="#000000" fill-rule="evenodd" fill-opacity="1" /><path clip-path="url(#clip370)" d="M715.986 1544.91 L732.306 1544.91 L732.306 1548.85 L710.361 1548.85 L710.361 1544.91 Q713.023 1542.16 717.607 1537.53 Q722.213 1532.88 723.394 1531.53 Q725.639 1529.01 726.519 1527.27 Q727.421 1525.51 727.421 1523.82 Q727.421 1521.07 725.477 1519.33 Q723.556 1517.6 720.454 1517.6 Q718.255 1517.6 715.801 1518.36 Q713.371 1519.13 710.593 1520.68 L710.593 1515.95 Q713.417 1514.82 715.871 1514.24 Q718.324 1513.66 720.361 1513.66 Q725.732 1513.66 728.926 1516.35 Q732.12 1519.03 732.12 1523.52 Q732.12 1525.65 731.31 1527.57 Q730.523 1529.47 728.417 1532.07 Q727.838 1532.74 724.736 1535.95 Q721.634 1539.15 715.986 1544.91 Z" fill="#000000" fill-rule="evenodd" fill-opacity="1" /><path clip-path="url(#clip370)" d="M742.167 1514.29 L760.523 1514.29 L760.523 1518.22 L746.449 1518.22 L746.449 1526.7 Q747.468 1526.35 748.486 1526.19 Q749.505 1526 750.523 1526 Q756.31 1526 759.69 1529.17 Q763.069 1532.34 763.069 1537.76 Q763.069 1543.34 759.597 1546.44 Q756.125 1549.52 749.806 1549.52 Q747.63 1549.52 745.361 1549.15 Q743.116 1548.78 740.708 1548.04 L740.708 1543.34 Q742.792 1544.47 745.014 1545.03 Q747.236 1545.58 749.713 1545.58 Q753.718 1545.58 756.056 1543.48 Q758.393 1541.37 758.393 1537.76 Q758.393 1534.15 756.056 1532.04 Q753.718 1529.94 749.713 1529.94 Q747.838 1529.94 745.963 1530.35 Q744.111 1530.77 742.167 1531.65 L742.167 1514.29 Z" fill="#000000" fill-rule="evenodd" fill-opacity="1" /><path clip-path="url(#clip370)" d="M1229.38 1514.29 L1247.73 1514.29 L1247.73 1518.22 L1233.66 1518.22 L1233.66 1526.7 Q1234.68 1526.35 1235.7 1526.19 Q1236.71 1526 1237.73 1526 Q1243.52 1526 1246.9 1529.17 Q1250.28 1532.34 1250.28 1537.76 Q1250.28 1543.34 1246.81 1546.44 Q1243.33 1549.52 1237.02 1549.52 Q1234.84 1549.52 1232.57 1549.15 Q1230.33 1548.78 1227.92 1548.04 L1227.92 1543.34 Q1230 1544.47 1232.22 1545.03 Q1234.45 1545.58 1236.92 1545.58 Q1240.93 1545.58 1243.27 1543.48 Q1245.6 1541.37 1245.6 1537.76 Q1245.6 1534.15 1243.27 1532.04 Q1240.93 1529.94 1236.92 1529.94 Q1235.05 1529.94 1233.17 1530.35 Q1231.32 1530.77 1229.38 1531.65 L1229.38 1514.29 Z" fill="#000000" fill-rule="evenodd" fill-opacity="1" /><path clip-path="url(#clip370)" d="M1269.49 1517.37 Q1265.88 1517.37 1264.05 1520.93 Q1262.25 1524.47 1262.25 1531.6 Q1262.25 1538.71 1264.05 1542.27 Q1265.88 1545.82 1269.49 1545.82 Q1273.13 1545.82 1274.93 1542.27 Q1276.76 1538.71 1276.76 1531.6 Q1276.76 1524.47 1274.93 1520.93 Q1273.13 1517.37 1269.49 1517.37 M1269.49 1513.66 Q1275.3 1513.66 1278.36 1518.27 Q1281.44 1522.85 1281.44 1531.6 Q1281.44 1540.33 1278.36 1544.94 Q1275.3 1549.52 1269.49 1549.52 Q1263.68 1549.52 1260.6 1544.94 Q1257.55 1540.33 1257.55 1531.6 Q1257.55 1522.85 1260.6 1518.27 Q1263.68 1513.66 1269.49 1513.66 Z" fill="#000000" fill-rule="evenodd" fill-opacity="1" /><path clip-path="url(#clip370)" d="M1746.49 1514.29 L1768.72 1514.29 L1768.72 1516.28 L1756.17 1548.85 L1751.28 1548.85 L1763.09 1518.22 L1746.49 1518.22 L1746.49 1514.29 Z" fill="#000000" fill-rule="evenodd" fill-opacity="1" /><path clip-path="url(#clip370)" d="M1777.88 1514.29 L1796.24 1514.29 L1796.24 1518.22 L1782.16 1518.22 L1782.16 1526.7 Q1783.18 1526.35 1784.2 1526.19 Q1785.22 1526 1786.24 1526 Q1792.03 1526 1795.4 1529.17 Q1798.78 1532.34 1798.78 1537.76 Q1798.78 1543.34 1795.31 1546.44 Q1791.84 1549.52 1785.52 1549.52 Q1783.34 1549.52 1781.08 1549.15 Q1778.83 1548.78 1776.42 1548.04 L1776.42 1543.34 Q1778.51 1544.47 1780.73 1545.03 Q1782.95 1545.58 1785.43 1545.58 Q1789.43 1545.58 1791.77 1543.48 Q1794.11 1541.37 1794.11 1537.76 Q1794.11 1534.15 1791.77 1532.04 Q1789.43 1529.94 1785.43 1529.94 Q1783.55 1529.94 1781.68 1530.35 Q1779.83 1530.77 1777.88 1531.65 L1777.88 1514.29 Z" fill="#000000" fill-rule="evenodd" fill-opacity="1" /><path clip-path="url(#clip370)" d="M2250.21 1544.91 L2257.85 1544.91 L2257.85 1518.55 L2249.54 1520.21 L2249.54 1515.95 L2257.8 1514.29 L2262.48 1514.29 L2262.48 1544.91 L2270.11 1544.91 L2270.11 1548.85 L2250.21 1548.85 L2250.21 1544.91 Z" fill="#000000" fill-rule="evenodd" fill-opacity="1" /><path clip-path="url(#clip370)" d="M2289.56 1517.37 Q2285.95 1517.37 2284.12 1520.93 Q2282.31 1524.47 2282.31 1531.6 Q2282.31 1538.71 2284.12 1542.27 Q2285.95 1545.82 2289.56 1545.82 Q2293.19 1545.82 2295 1542.27 Q2296.83 1538.71 2296.83 1531.6 Q2296.83 1524.47 2295 1520.93 Q2293.19 1517.37 2289.56 1517.37 M2289.56 1513.66 Q2295.37 1513.66 2298.42 1518.27 Q2301.5 1522.85 2301.5 1531.6 Q2301.5 1540.33 2298.42 1544.94 Q2295.37 1549.52 2289.56 1549.52 Q2283.75 1549.52 2280.67 1544.94 Q2277.61 1540.33 2277.61 1531.6 Q2277.61 1522.85 2280.67 1518.27 Q2283.75 1513.66 2289.56 1513.66 Z" fill="#000000" fill-rule="evenodd" fill-opacity="1" /><path clip-path="url(#clip370)" d="M2319.72 1517.37 Q2316.11 1517.37 2314.28 1520.93 Q2312.48 1524.47 2312.48 1531.6 Q2312.48 1538.71 2314.28 1542.27 Q2316.11 1545.82 2319.72 1545.82 Q2323.35 1545.82 2325.16 1542.27 Q2326.99 1538.71 2326.99 1531.6 Q2326.99 1524.47 2325.16 1520.93 Q2323.35 1517.37 2319.72 1517.37 M2319.72 1513.66 Q2325.53 1513.66 2328.59 1518.27 Q2331.67 1522.85 2331.67 1531.6 Q2331.67 1540.33 2328.59 1544.94 Q2325.53 1549.52 2319.72 1549.52 Q2313.91 1549.52 2310.83 1544.94 Q2307.78 1540.33 2307.78 1531.6 Q2307.78 1522.85 2310.83 1518.27 Q2313.91 1513.66 2319.72 1513.66 Z" fill="#000000" fill-rule="evenodd" fill-opacity="1" /><polyline clip-path="url(#clip372)" style="stroke:#000000; stroke-linecap:round; stroke-linejoin:round; stroke-width:2; stroke-opacity:0.1; fill:none" points="156.598,1486.45 2352.76,1486.45 "/>
<polyline clip-path="url(#clip372)" style="stroke:#000000; stroke-linecap:round; stroke-linejoin:round; stroke-width:2; stroke-opacity:0.1; fill:none" points="156.598,1198.61 2352.76,1198.61 "/>
<polyline clip-path="url(#clip372)" style="stroke:#000000; stroke-linecap:round; stroke-linejoin:round; stroke-width:2; stroke-opacity:0.1; fill:none" points="156.598,910.766 2352.76,910.766 "/>
<polyline clip-path="url(#clip372)" style="stroke:#000000; stroke-linecap:round; stroke-linejoin:round; stroke-width:2; stroke-opacity:0.1; fill:none" points="156.598,622.926 2352.76,622.926 "/>
<polyline clip-path="url(#clip372)" style="stroke:#000000; stroke-linecap:round; stroke-linejoin:round; stroke-width:2; stroke-opacity:0.1; fill:none" points="156.598,335.085 2352.76,335.085 "/>
<polyline clip-path="url(#clip372)" style="stroke:#000000; stroke-linecap:round; stroke-linejoin:round; stroke-width:2; stroke-opacity:0.1; fill:none" points="156.598,47.2441 2352.76,47.2441 "/>
<polyline clip-path="url(#clip370)" style="stroke:#000000; stroke-linecap:round; stroke-linejoin:round; stroke-width:4; stroke-opacity:1; fill:none" points="156.598,1486.45 156.598,47.2441 "/>
<polyline clip-path="url(#clip370)" style="stroke:#000000; stroke-linecap:round; stroke-linejoin:round; stroke-width:4; stroke-opacity:1; fill:none" points="156.598,1486.45 175.496,1486.45 "/>
<polyline clip-path="url(#clip370)" style="stroke:#000000; stroke-linecap:round; stroke-linejoin:round; stroke-width:4; stroke-opacity:1; fill:none" points="156.598,1198.61 175.496,1198.61 "/>
<polyline clip-path="url(#clip370)" style="stroke:#000000; stroke-linecap:round; stroke-linejoin:round; stroke-width:4; stroke-opacity:1; fill:none" points="156.598,910.766 175.496,910.766 "/>
<polyline clip-path="url(#clip370)" style="stroke:#000000; stroke-linecap:round; stroke-linejoin:round; stroke-width:4; stroke-opacity:1; fill:none" points="156.598,622.926 175.496,622.926 "/>
<polyline clip-path="url(#clip370)" style="stroke:#000000; stroke-linecap:round; stroke-linejoin:round; stroke-width:4; stroke-opacity:1; fill:none" points="156.598,335.085 175.496,335.085 "/>
<polyline clip-path="url(#clip370)" style="stroke:#000000; stroke-linecap:round; stroke-linejoin:round; stroke-width:4; stroke-opacity:1; fill:none" points="156.598,47.2441 175.496,47.2441 "/>
<path clip-path="url(#clip370)" d="M63.4226 1472.25 Q59.8115 1472.25 57.9828 1475.81 Q56.1773 1479.35 56.1773 1486.48 Q56.1773 1493.59 57.9828 1497.15 Q59.8115 1500.7 63.4226 1500.7 Q67.0569 1500.7 68.8624 1497.15 Q70.6911 1493.59 70.6911 1486.48 Q70.6911 1479.35 68.8624 1475.81 Q67.0569 1472.25 63.4226 1472.25 M63.4226 1468.54 Q69.2328 1468.54 72.2883 1473.15 Q75.367 1477.73 75.367 1486.48 Q75.367 1495.21 72.2883 1499.82 Q69.2328 1504.4 63.4226 1504.4 Q57.6125 1504.4 54.5338 1499.82 Q51.4782 1495.21 51.4782 1486.48 Q51.4782 1477.73 54.5338 1473.15 Q57.6125 1468.54 63.4226 1468.54 Z" fill="#000000" fill-rule="evenodd" fill-opacity="1" /><path clip-path="url(#clip370)" d="M83.5845 1497.85 L88.4688 1497.85 L88.4688 1503.73 L83.5845 1503.73 L83.5845 1497.85 Z" fill="#000000" fill-rule="evenodd" fill-opacity="1" /><path clip-path="url(#clip370)" d="M108.654 1472.25 Q105.043 1472.25 103.214 1475.81 Q101.409 1479.35 101.409 1486.48 Q101.409 1493.59 103.214 1497.15 Q105.043 1500.7 108.654 1500.7 Q112.288 1500.7 114.094 1497.15 Q115.922 1493.59 115.922 1486.48 Q115.922 1479.35 114.094 1475.81 Q112.288 1472.25 108.654 1472.25 M108.654 1468.54 Q114.464 1468.54 117.52 1473.15 Q120.598 1477.73 120.598 1486.48 Q120.598 1495.21 117.52 1499.82 Q114.464 1504.4 108.654 1504.4 Q102.844 1504.4 99.765 1499.82 Q96.7095 1495.21 96.7095 1486.48 Q96.7095 1477.73 99.765 1473.15 Q102.844 1468.54 108.654 1468.54 Z" fill="#000000" fill-rule="evenodd" fill-opacity="1" /><path clip-path="url(#clip370)" d="M65.0198 1184.41 Q61.4087 1184.41 59.58 1187.97 Q57.7745 1191.51 57.7745 1198.64 Q57.7745 1205.75 59.58 1209.31 Q61.4087 1212.85 65.0198 1212.85 Q68.6541 1212.85 70.4596 1209.31 Q72.2883 1205.75 72.2883 1198.64 Q72.2883 1191.51 70.4596 1187.97 Q68.6541 1184.41 65.0198 1184.41 M65.0198 1180.7 Q70.83 1180.7 73.8855 1185.31 Q76.9642 1189.89 76.9642 1198.64 Q76.9642 1207.37 73.8855 1211.98 Q70.83 1216.56 65.0198 1216.56 Q59.2097 1216.56 56.131 1211.98 Q53.0754 1207.37 53.0754 1198.64 Q53.0754 1189.89 56.131 1185.31 Q59.2097 1180.7 65.0198 1180.7 Z" fill="#000000" fill-rule="evenodd" fill-opacity="1" /><path clip-path="url(#clip370)" d="M85.1818 1210.01 L90.066 1210.01 L90.066 1215.89 L85.1818 1215.89 L85.1818 1210.01 Z" fill="#000000" fill-rule="evenodd" fill-opacity="1" /><path clip-path="url(#clip370)" d="M104.279 1211.95 L120.598 1211.95 L120.598 1215.89 L98.6539 1215.89 L98.6539 1211.95 Q101.316 1209.2 105.899 1204.57 Q110.506 1199.91 111.686 1198.57 Q113.932 1196.05 114.811 1194.31 Q115.714 1192.55 115.714 1190.86 Q115.714 1188.11 113.77 1186.37 Q111.848 1184.64 108.746 1184.64 Q106.547 1184.64 104.094 1185.4 Q101.663 1186.17 98.8854 1187.72 L98.8854 1182.99 Q101.709 1181.86 104.163 1181.28 Q106.617 1180.7 108.654 1180.7 Q114.024 1180.7 117.219 1183.39 Q120.413 1186.07 120.413 1190.56 Q120.413 1192.69 119.603 1194.61 Q118.816 1196.51 116.709 1199.1 Q116.131 1199.78 113.029 1202.99 Q109.927 1206.19 104.279 1211.95 Z" fill="#000000" fill-rule="evenodd" fill-opacity="1" /><path clip-path="url(#clip370)" d="M62.9365 896.565 Q59.3254 896.565 57.4967 900.13 Q55.6912 903.671 55.6912 910.801 Q55.6912 917.908 57.4967 921.472 Q59.3254 925.014 62.9365 925.014 Q66.5707 925.014 68.3763 921.472 Q70.205 917.908 70.205 910.801 Q70.205 903.671 68.3763 900.13 Q66.5707 896.565 62.9365 896.565 M62.9365 892.861 Q68.7467 892.861 71.8022 897.468 Q74.8809 902.051 74.8809 910.801 Q74.8809 919.528 71.8022 924.134 Q68.7467 928.718 62.9365 928.718 Q57.1264 928.718 54.0477 924.134 Q50.9921 919.528 50.9921 910.801 Q50.9921 902.051 54.0477 897.468 Q57.1264 892.861 62.9365 892.861 Z" fill="#000000" fill-rule="evenodd" fill-opacity="1" /><path clip-path="url(#clip370)" d="M83.0984 922.167 L87.9827 922.167 L87.9827 928.046 L83.0984 928.046 L83.0984 922.167 Z" fill="#000000" fill-rule="evenodd" fill-opacity="1" /><path clip-path="url(#clip370)" d="M111.015 897.56 L99.2095 916.009 L111.015 916.009 L111.015 897.56 M109.788 893.486 L115.668 893.486 L115.668 916.009 L120.598 916.009 L120.598 919.898 L115.668 919.898 L115.668 928.046 L111.015 928.046 L111.015 919.898 L95.4132 919.898 L95.4132 915.384 L109.788 893.486 Z" fill="#000000" fill-rule="evenodd" fill-opacity="1" /><path clip-path="url(#clip370)" d="M63.2606 608.724 Q59.6495 608.724 57.8208 612.289 Q56.0152 615.831 56.0152 622.96 Q56.0152 630.067 57.8208 633.632 Q59.6495 637.173 63.2606 637.173 Q66.8948 637.173 68.7004 633.632 Q70.5291 630.067 70.5291 622.96 Q70.5291 615.831 68.7004 612.289 Q66.8948 608.724 63.2606 608.724 M63.2606 605.021 Q69.0707 605.021 72.1263 609.627 Q75.205 614.21 75.205 622.96 Q75.205 631.687 72.1263 636.294 Q69.0707 640.877 63.2606 640.877 Q57.4504 640.877 54.3717 636.294 Q51.3162 631.687 51.3162 622.96 Q51.3162 614.21 54.3717 609.627 Q57.4504 605.021 63.2606 605.021 Z" fill="#000000" fill-rule="evenodd" fill-opacity="1" /><path clip-path="url(#clip370)" d="M83.4225 634.326 L88.3067 634.326 L88.3067 640.206 L83.4225 640.206 L83.4225 634.326 Z" fill="#000000" fill-rule="evenodd" fill-opacity="1" /><path clip-path="url(#clip370)" d="M109.071 621.062 Q105.922 621.062 104.071 623.215 Q102.242 625.368 102.242 629.118 Q102.242 632.845 104.071 635.02 Q105.922 637.173 109.071 637.173 Q112.219 637.173 114.047 635.02 Q115.899 632.845 115.899 629.118 Q115.899 625.368 114.047 623.215 Q112.219 621.062 109.071 621.062 M118.353 606.409 L118.353 610.669 Q116.594 609.835 114.788 609.396 Q113.006 608.956 111.246 608.956 Q106.617 608.956 104.163 612.081 Q101.733 615.206 101.385 621.525 Q102.751 619.511 104.811 618.446 Q106.871 617.359 109.348 617.359 Q114.557 617.359 117.566 620.53 Q120.598 623.678 120.598 629.118 Q120.598 634.442 117.45 637.659 Q114.302 640.877 109.071 640.877 Q103.075 640.877 99.9039 636.294 Q96.7326 631.687 96.7326 622.96 Q96.7326 614.766 100.621 609.905 Q104.51 605.021 111.061 605.021 Q112.82 605.021 114.603 605.368 Q116.408 605.715 118.353 606.409 Z" fill="#000000" fill-rule="evenodd" fill-opacity="1" /><path clip-path="url(#clip370)" d="M63.5152 320.884 Q59.9041 320.884 58.0754 324.448 Q56.2699 327.99 56.2699 335.12 Q56.2699 342.226 58.0754 345.791 Q59.9041 349.332 63.5152 349.332 Q67.1494 349.332 68.955 345.791 Q70.7837 342.226 70.7837 335.12 Q70.7837 327.99 68.955 324.448 Q67.1494 320.884 63.5152 320.884 M63.5152 317.18 Q69.3254 317.18 72.3809 321.786 Q75.4596 326.37 75.4596 335.12 Q75.4596 343.846 72.3809 348.453 Q69.3254 353.036 63.5152 353.036 Q57.7051 353.036 54.6264 348.453 Q51.5708 343.846 51.5708 335.12 Q51.5708 326.37 54.6264 321.786 Q57.7051 317.18 63.5152 317.18 Z" fill="#000000" fill-rule="evenodd" fill-opacity="1" /><path clip-path="url(#clip370)" d="M83.6771 346.485 L88.5614 346.485 L88.5614 352.365 L83.6771 352.365 L83.6771 346.485 Z" fill="#000000" fill-rule="evenodd" fill-opacity="1" /><path clip-path="url(#clip370)" d="M108.746 335.953 Q105.413 335.953 103.492 337.735 Q101.594 339.518 101.594 342.643 Q101.594 345.768 103.492 347.55 Q105.413 349.332 108.746 349.332 Q112.08 349.332 114.001 347.55 Q115.922 345.745 115.922 342.643 Q115.922 339.518 114.001 337.735 Q112.103 335.953 108.746 335.953 M104.071 333.962 Q101.061 333.221 99.3715 331.161 Q97.7048 329.101 97.7048 326.138 Q97.7048 321.995 100.645 319.587 Q103.608 317.18 108.746 317.18 Q113.908 317.18 116.848 319.587 Q119.788 321.995 119.788 326.138 Q119.788 329.101 118.098 331.161 Q116.432 333.221 113.445 333.962 Q116.825 334.749 118.7 337.041 Q120.598 339.333 120.598 342.643 Q120.598 347.666 117.52 350.351 Q114.464 353.036 108.746 353.036 Q103.029 353.036 99.9502 350.351 Q96.8947 347.666 96.8947 342.643 Q96.8947 339.333 98.7928 337.041 Q100.691 334.749 104.071 333.962 M102.358 326.578 Q102.358 329.263 104.024 330.768 Q105.714 332.272 108.746 332.272 Q111.756 332.272 113.445 330.768 Q115.158 329.263 115.158 326.578 Q115.158 323.893 113.445 322.388 Q111.756 320.884 108.746 320.884 Q105.714 320.884 104.024 322.388 Q102.358 323.893 102.358 326.578 Z" fill="#000000" fill-rule="evenodd" fill-opacity="1" /><path clip-path="url(#clip370)" d="M54.2328 60.5889 L61.8717 60.5889 L61.8717 34.2233 L53.5616 35.89 L53.5616 31.6308 L61.8254 29.9641 L66.5013 29.9641 L66.5013 60.5889 L74.1402 60.5889 L74.1402 64.5241 L54.2328 64.5241 L54.2328 60.5889 Z" fill="#000000" fill-rule="evenodd" fill-opacity="1" /><path clip-path="url(#clip370)" d="M83.5845 58.6445 L88.4688 58.6445 L88.4688 64.5241 L83.5845 64.5241 L83.5845 58.6445 Z" fill="#000000" fill-rule="evenodd" fill-opacity="1" /><path clip-path="url(#clip370)" d="M108.654 33.0428 Q105.043 33.0428 103.214 36.6076 Q101.409 40.1492 101.409 47.2788 Q101.409 54.3853 103.214 57.9501 Q105.043 61.4917 108.654 61.4917 Q112.288 61.4917 114.094 57.9501 Q115.922 54.3853 115.922 47.2788 Q115.922 40.1492 114.094 36.6076 Q112.288 33.0428 108.654 33.0428 M108.654 29.3391 Q114.464 29.3391 117.52 33.9456 Q120.598 38.5289 120.598 47.2788 Q120.598 56.0056 117.52 60.6121 Q114.464 65.1954 108.654 65.1954 Q102.844 65.1954 99.765 60.6121 Q96.7095 56.0056 96.7095 47.2788 Q96.7095 38.5289 99.765 33.9456 Q102.844 29.3391 108.654 29.3391 Z" fill="#000000" fill-rule="evenodd" fill-opacity="1" /><polyline clip-path="url(#clip372)" style="stroke:#009af9; stroke-linecap:round; stroke-linejoin:round; stroke-width:4; stroke-opacity:1; fill:none" points="218.754,47.2441 222.126,48.544 225.498,52.4392 228.87,58.9154 232.242,67.9494 236.14,81.5341 240.038,98.4262 243.935,118.544 247.833,141.79 251.731,168.053 255.628,197.206 259.526,229.107 263.423,263.603 267.321,300.528 271.219,339.703 275.116,380.938 279.014,424.036 282.912,468.788 286.809,514.978 290.707,562.382 294.604,610.773 302.4,709.575 310.195,809.479 317.99,908.557 325.785,1004.9 329.683,1051.46 333.581,1096.65 337.478,1140.24 341.376,1182.03 345.274,1221.82 349.171,1259.41 353.069,1294.62 356.966,1327.28 359.309,1345.62 361.651,1362.95 363.993,1379.24 366.336,1394.46 371.02,1421.59 375.705,1444.15 378.047,1453.68 380.39,1462 382.732,1469.11 385.074,1475 387.416,1479.65 389.759,1483.06 392.101,1485.22 394.443,1486.12 396.786,1485.77 399.128,1484.17 401.47,1481.32 403.813,1477.22 406.155,1471.89 408.497,1465.32 410.84,1457.54 413.182,1448.55 417.866,1427.03 422.551,1400.91 424.893,1386.17 427.236,1370.36 429.578,1353.5 431.92,1335.61 435.881,1303.13 439.842,1267.97 443.803,1230.31 447.763,1190.35 451.724,1148.28 455.685,1104.31 459.646,1058.66 463.607,1011.55 471.528,913.927 479.45,813.382 487.371,711.921 495.293,611.562 499.595,558.229 503.898,506.126 508.2,455.559 512.503,406.827 516.805,360.216 521.108,316 525.411,274.44 529.713,235.78 534.016,200.248 538.318,168.052 540.469,153.265 542.621,139.382 544.772,126.423 546.923,114.407 549.074,103.352 551.226,93.2736 553.377,84.1872 555.528,76.1061 557.679,69.042 559.831,63.0055 561.982,58.0054 564.133,54.049 566.117,51.3314 568.1,49.5092 570.083,48.5847 572.066,48.5591 576.033,51.2038 579.999,57.4298 583.966,67.2061 587.933,80.4838 591.899,97.1965 595.866,117.261 599.832,140.576 603.799,167.025 607.765,196.477 611.732,228.784 615.698,263.784 619.665,301.302 623.631,341.151 627.598,383.131 631.851,430.267 636.103,479.34 640.356,530.069 644.608,582.161 653.113,689.234 661.618,798.099 670.124,906.257 678.629,1011.23 682.881,1061.76 687.134,1110.59 691.386,1157.46 695.639,1202.08 698.102,1226.8 700.566,1250.64 703.029,1273.54 705.493,1295.47 707.956,1316.37 710.42,1336.22 712.883,1354.97 715.347,1372.59 717.81,1389.03 720.274,1404.28 722.737,1418.3 725.201,1431.06 727.664,1442.54 730.128,1452.72 732.591,1461.57 735.055,1469.09 737.518,1475.25 739.982,1480.05 742.445,1483.46 744.909,1485.5 747.372,1486.15 749.836,1485.42 752.299,1483.29 754.763,1479.79 757.226,1474.91 759.69,1468.66 762.153,1461.06 764.617,1452.13 767.08,1441.86 769.544,1430.3 772.007,1417.46 774.471,1403.36 778.849,1375.3 783.228,1343.52 787.607,1308.23 791.985,1269.65 796.364,1228 800.742,1183.54 805.121,1136.54 809.499,1087.29 813.878,1036.09 818.256,983.243 822.635,929.08 827.013,873.928 835.77,762.003 844.528,650.192 852.207,554.386 859.886,462.553 863.725,418.667 867.565,376.412 871.405,335.984 875.244,297.575 879.084,261.363 882.923,227.518 886.763,196.198 890.603,167.551 894.442,141.711 898.282,118.798 902.121,98.9207 905.961,82.1711 908.054,74.3864 910.147,67.5658 912.24,61.7186 914.333,56.853 918.519,50.0926 922.706,47.3222 924.799,47.4389 926.892,48.5571 928.985,50.6753 931.078,53.7906 933.171,57.8985 935.264,62.9933 937.357,69.0681 939.45,76.1143 941.543,84.122 943.636,93.0802 945.73,102.976 947.823,113.797 952.009,138.149 956.195,166 960.381,197.196 964.567,231.563 968.754,268.909 972.94,309.027 977.151,351.954 981.362,397.218 985.573,444.563 989.784,493.723 998.206,596.372 1006.63,702.853 1015.05,810.771 1023.47,917.696 1027.68,970.032 1031.89,1021.22 1036.11,1070.98 1040.32,1119.02 1042.64,1144.75 1044.97,1169.82 1047.3,1194.2 1049.63,1217.84 1054.28,1262.75 1058.94,1304.25 1061.27,1323.62 1063.6,1342.04 1065.92,1359.47 1068.25,1375.87 1070.58,1391.23 1072.91,1405.51 1075.24,1418.69 1077.56,1430.75 1079.89,1441.67 1082.22,1451.42 1084.55,1459.99 1086.88,1467.37 1089.2,1473.54 1091.53,1478.5 1093.86,1482.23 1096.19,1484.73 1098.51,1485.99 1100.84,1486.01 1103.17,1484.79 1105.5,1482.34 1107.83,1478.66 1110.15,1473.74 1112.48,1467.62 1114.81,1460.28 1117.03,1452.19 1119.24,1443.03 1121.46,1432.82 1123.67,1421.57 1125.89,1409.3 1128.1,1396.03 1130.32,1381.78 1132.53,1366.57 1136.96,1333.36 1141.39,1296.63 1145.82,1256.59 1150.25,1213.51 1154.68,1167.64 1159.11,1119.27 1163.54,1068.71 1167.97,1016.26 1176.83,907.056 1185.69,794.368 1194.9,676.524 1204.11,561.124 1208.72,505.317 1213.33,451.277 1217.93,399.367 1222.54,349.939 1227.14,303.326 1231.75,259.84 1234.05,239.364 1236.36,219.777 1238.66,201.114 1240.96,183.406 1243.27,166.683 1245.57,150.972 1247.87,136.301 1250.17,122.695 1252.48,110.175 1254.78,98.7634 1257.08,88.4794 1259.39,79.3403 1263.26,66.5818 1267.14,57.172 1271.02,51.1559 1274.9,48.5623 1278.77,49.4034 1282.65,53.6754 1286.53,61.3577 1290.41,72.4138 1294.28,86.7906 1298.16,104.42 1302.04,125.217 1305.92,149.082 1309.79,175.902 1313.67,205.548 1317.55,237.879 1321.42,272.74 1326.16,318.488 1330.89,367.432 1335.63,419.225 1340.36,473.496 1345.09,529.861 1349.83,587.916 1354.56,647.249 1359.3,707.437 1368.76,828.661 1378.23,948.141 1382.96,1006.16 1387.7,1062.48 1392.43,1116.69 1397.17,1168.42 1401.5,1213.31 1405.84,1255.53 1410.18,1294.83 1414.51,1330.98 1418.85,1363.76 1423.18,1392.98 1425.35,1406.19 1427.52,1418.45 1429.69,1429.74 1431.86,1440.04 1434.03,1449.33 1436.19,1457.6 1438.36,1464.84 1440.53,1471.03 1442.7,1476.18 1444.87,1480.26 1447.04,1483.28 1449.2,1485.22 1451.37,1486.1 1453.54,1485.9 1455.71,1484.62 1457.88,1482.28 1460.04,1478.86 1462.21,1474.38 1464.38,1468.84 1466.55,1462.25 1470.55,1447.36 1474.56,1429 1478.56,1407.27 1482.57,1382.27 1486.57,1354.13 1490.58,1323 1494.58,1289.04 1498.59,1252.41 1502.59,1213.31 1506.6,1171.93 1510.61,1128.49 1514.61,1083.2 1518.62,1036.3 1522.62,988.023 1526.63,938.62 1530.63,888.341 1538.74,784.849 1546.86,680.979 1554.97,578.899 1563.09,480.742 1567.14,433.78 1571.2,388.559 1575.26,345.315 1579.31,304.276 1583.37,265.654 1587.43,229.653 1591.49,196.46 1595.54,166.25 1597.82,150.685 1600.09,136.131 1602.36,122.614 1604.64,110.154 1606.91,98.773 1609.18,88.4891 1611.46,79.3192 1613.73,71.2784 1616,64.38 1618.28,58.6352 1620.55,54.0535 1622.82,50.6425 1625.1,48.4077 1627.37,47.3528 1629.64,47.4795 1631.92,48.7877 1634.19,51.2751 1636.46,54.9378 1638.74,59.7696 1641.01,65.7627 1643.28,72.9071 1645.56,81.1913 1647.83,90.6014 1650.1,101.122 1652.38,112.736 1654.65,125.425 1656.92,139.166 1659.2,153.939 1661.47,169.718 1663.74,186.478 1666.02,204.19 1668.29,222.827 1672.41,258.858 1676.53,297.627 1680.65,338.927 1684.77,382.533 1688.89,428.212 1693.01,475.717 1697.13,524.79 1701.25,575.169 1709.49,678.747 1717.73,784.221 1725.97,889.316 1734.21,991.77 1738.93,1048.38 1743.65,1102.99 1748.36,1155.23 1753.08,1204.72 1757.8,1251.12 1762.52,1294.09 1764.87,1314.19 1767.23,1333.33 1769.59,1351.47 1771.95,1368.57 1774.31,1384.6 1776.67,1399.55 1779.03,1413.38 1781.39,1426.06 1783.74,1437.58 1786.1,1447.91 1788.46,1457.04 1790.82,1464.94 1793.18,1471.61 1795.54,1477.04 1797.9,1481.21 1800.25,1484.12 1802.61,1485.76 1804.97,1486.13 1807.33,1485.22 1809.69,1483.05 1811.87,1479.91 1814.06,1475.68 1816.24,1470.39 1818.42,1464.02 1820.61,1456.6 1822.79,1448.14 1824.98,1438.64 1827.16,1428.12 1829.34,1416.6 1831.53,1404.1 1833.71,1390.63 1835.9,1376.22 1840.26,1344.64 1844.63,1309.56 1849,1271.2 1853.37,1229.78 1857.73,1185.55 1862.1,1138.79 1866.47,1089.78 1870.84,1038.81 1875.2,986.191 1879.57,932.248 1888.18,823.271 1896.8,712.977 1905.41,603.961 1914.02,498.791 1918.33,448.427 1922.63,399.942 1926.94,353.622 1931.25,309.74 1935.55,268.555 1939.86,230.31 1944.16,195.229 1948.47,163.52 1952.65,136.136 1956.83,112.259 1958.92,101.678 1961.01,92.0214 1963.1,83.3033 1965.19,75.5355 1967.28,68.7289 1969.37,62.893 1971.46,58.0358 1973.55,54.1641 1975.65,51.2833 1977.74,49.3973 1979.83,48.5089 1981.92,48.6192 1984.01,49.728 1986.1,51.8339 1988.19,54.9339 1990.28,59.0238 1992.37,64.0977 1994.46,70.1487 1996.55,77.1684 1998.64,85.147 2000.73,94.0734 2002.82,103.935 2004.91,114.719 2007,126.409 2011.18,152.444 2015.36,181.895 2019.65,215.46 2023.94,252.247 2028.22,292.042 2032.51,334.611 2036.79,379.706 2041.08,427.065 2045.36,476.41 2049.65,527.454 2058.22,633.436 2066.79,742.54 2075.37,852.222 2083.94,959.923 2088.63,1017.18 2093.33,1072.68 2098.03,1126.04 2102.72,1176.89 2107.42,1224.86 2112.11,1269.63 2114.46,1290.72 2116.81,1310.88 2119.16,1330.1 2121.5,1348.32 2123.85,1365.53 2126.2,1381.69 2128.55,1396.77 2130.9,1410.75 2133.24,1423.6 2135.59,1435.31 2137.94,1445.84 2140.29,1455.18 2142.63,1463.31 2144.98,1470.23 2147.33,1475.91 2149.68,1480.35 2152.03,1483.54 2154.37,1485.47 2156.72,1486.15 2159.07,1485.57 2162.48,1482.47 2165.89,1476.74 2169.3,1468.38 2172.71,1457.42 2176.12,1443.92 2179.53,1427.91 2182.94,1409.45 2186.35,1388.62 2189.77,1365.49 2193.18,1340.15 2196.59,1312.69 2200,1283.21 2203.41,1251.82 2206.82,1218.64 2210.23,1183.79 2213.64,1147.39 2217.05,1109.59 2220.46,1070.52 2223.87,1030.33 2227.28,989.166 2234.1,904.522 2240.92,817.842 2247.75,730.407 2254.57,643.507 2261.39,558.428 2268.21,476.425 2271.01,443.952 2273.81,412.283 2276.61,381.497 2279.41,351.669 2282.2,322.875 2285,295.185 2287.8,268.67 2290.6,243.394 "/>
<polyline clip-path="url(#clip372)" style="stroke:#e26f46; stroke-linecap:round; stroke-linejoin:round; stroke-width:4; stroke-opacity:1; fill:none" points="218.754,-7556.34 218.859,-137546 218.964,-68389.3 219.07,-45337.2 219.175,-33811.2 219.281,-26895.5 219.386,-22285.1 219.491,-18991.9 219.597,-16522.1 219.702,-14601.1 219.807,-13064.3 219.913,-11806.9 220.018,-10759.1 220.124,-9872.43 220.229,-9112.47 220.334,-8453.84 220.44,-7877.54 220.545,-7369.04 220.651,-6917.03 220.756,-6512.61 220.861,-6148.63 221.072,-5519.94 221.283,-4996.02 221.494,-4552.71 221.704,-4172.73 221.915,-3843.42 222.126,-3555.27 222.337,-3301.02 222.547,-3075.02 222.758,-2872.8 222.969,-2690.81 223.39,-2376.47 223.812,-2114.51 224.233,-1892.86 224.655,-1702.87 225.077,-1538.21 225.498,-1394.13 225.92,-1267.01 226.341,-1154.01 226.763,-1052.9 227.184,-961.905 228.027,-804.732 228.87,-673.754 229.713,-562.927 230.556,-467.932 230.978,-425.348 231.399,-385.603 231.821,-348.422 232.242,-313.565 236.14,-71.3281 240.038,82.1901 243.935,188.185 247.833,265.767 255.628,371.727 263.423,440.706 271.219,489.187 279.014,525.125 286.809,552.83 294.604,574.841 310.195,607.604 325.785,630.822 341.376,648.137 356.966,661.545 394.443,684.04 431.92,698.626 463.607,707.475 495.293,714.295 564.133,724.801 627.598,731.352 695.639,736.438 774.471,740.774 844.528,743.71 905.961,745.793 972.94,747.676 1040.32,749.261 1114.81,750.736 1185.69,751.929 1259.39,752.996 1321.42,753.784 1397.17,754.634 1466.55,755.322 1530.63,755.892 1595.54,756.416 1668.29,756.947 1734.21,757.385 1809.69,757.841 1879.57,758.226 1948.47,758.576 2015.36,758.89 2083.94,759.188 2159.07,759.491 2268.21,759.891 2290.6,759.968 "/>
<polyline clip-path="url(#clip372)" style="stroke:#3da44d; stroke-linecap:round; stroke-linejoin:round; stroke-width:4; stroke-opacity:1; fill:none" points="218.754,9090.03 218.859,140943 218.964,70854.5 219.07,47491.7 219.175,35810.3 219.281,28801.5 219.386,24129 219.491,20791.4 219.597,18288.3 219.702,16341.4 219.807,14783.9 219.913,13509.5 220.018,12447.6 220.124,11549 220.229,10778.8 220.334,10111.3 220.44,9527.25 220.545,9011.9 220.651,8553.8 220.756,8143.93 220.861,7775.04 221.072,7137.88 221.283,6606.91 221.494,6157.62 221.704,5772.52 221.915,5438.77 222.126,5146.74 222.337,4889.06 222.547,4660.01 222.758,4455.08 222.969,4270.63 223.39,3952.05 223.812,3686.56 224.233,3461.92 224.655,3269.37 225.077,3102.5 225.498,2956.48 225.92,2827.64 226.341,2713.12 226.763,2610.65 227.184,2518.43 228.027,2359.14 228.87,2226.39 229.713,2114.07 230.556,2017.8 230.978,1974.64 231.399,1934.36 231.821,1896.68 232.242,1861.35 236.14,1615.85 240.038,1460.26 243.935,1352.84 247.833,1274.21 255.628,1166.82 263.423,1096.91 271.219,1047.78 279.014,1011.36 286.809,983.279 294.604,960.972 310.195,927.767 325.785,904.236 341.376,886.688 356.966,873.1 394.443,850.301 431.92,835.519 463.607,826.551 495.293,819.638 564.133,808.991 627.598,802.352 695.639,797.197 774.471,792.803 844.528,789.827 905.961,787.716 972.94,785.807 1040.32,784.201 1114.81,782.706 1185.69,781.498 1259.39,780.416 1321.42,779.617 1397.17,778.756 1466.55,778.059 1530.63,777.481 1595.54,776.95 1668.29,776.411 1734.21,775.968 1809.69,775.506 1879.57,775.115 1948.47,774.761 2015.36,774.443 2083.94,774.14 2159.07,773.834 2268.21,773.428 2290.6,773.35 "/>
<polyline clip-path="url(#clip372)" style="stroke:#c271d2; stroke-linecap:round; stroke-linejoin:round; stroke-width:4; stroke-opacity:1; fill:none" points="218.754,1486.45 222.126,1457.61 225.498,1428.78 228.87,1399.98 232.242,1371.21 247.833,1238.99 263.423,1108.89 279.014,982.028 294.604,859.492 302.4,800.177 310.195,742.335 317.99,686.088 325.785,631.559 333.581,578.864 341.376,528.116 349.171,479.424 356.966,432.892 366.336,379.964 375.705,330.466 385.074,284.549 394.443,242.357 403.813,204.021 413.182,169.659 422.551,139.377 431.92,113.27 439.842,94.5144 447.763,78.8421 455.685,66.2883 463.607,56.8809 471.528,50.6405 479.45,47.5811 487.371,47.7095 495.293,51.0253 503.898,58.2303 512.503,69.1689 521.108,83.8125 529.713,102.123 538.318,124.052 546.923,149.543 555.528,178.528 564.133,210.933 572.066,243.763 579.999,279.355 587.933,317.628 595.866,358.499 603.799,401.875 611.732,447.662 619.665,495.757 627.598,546.052 636.103,602.293 644.608,660.791 653.113,721.398 661.618,783.958 670.124,848.313 678.629,914.297 687.134,981.742 695.639,1050.48 735.055,1380.71 774.471,1716.72 791.985,1863.06 809.499,2005.33 827.013,2141.98 844.528,2271.54 852.207,2325.75 859.886,2378.21 867.565,2428.81 875.244,2477.45 882.923,2524.02 890.603,2568.44 898.282,2610.6 905.961,2650.43 914.333,2691.08 922.706,2728.76 931.078,2763.35 939.45,2794.79 947.823,2822.99 956.195,2847.89 964.567,2869.41 972.94,2887.51 981.362,2902.22 989.784,2913.39 998.206,2920.98 1006.63,2924.98 1015.05,2925.38 1023.47,2922.17 1031.89,2915.37 1040.32,2904.99 1049.63,2889.38 1058.94,2869.48 1068.25,2845.34 1077.56,2817.04 1086.88,2784.67 1096.19,2748.33 1105.5,2708.12 1114.81,2664.17 1123.67,2619.01 1132.53,2570.71 1141.39,2519.4 1150.25,2465.23 1159.11,2408.35 1167.97,2348.92 1176.83,2287.09 1185.69,2223.04 1204.11,2083.53 1222.54,1936.88 1240.96,1784.82 1259.39,1629.2 1290.41,1364.3 1321.42,1103.53 1330.89,1026.13 1340.36,950.182 1349.83,875.931 1359.3,803.612 1368.76,733.453 1378.23,665.678 1387.7,600.5 1397.17,538.125 1405.84,483.614 1414.51,431.767 1423.18,382.721 1431.86,336.605 1440.53,293.543 1449.2,253.649 1457.88,217.029 1466.55,183.78 1474.56,156.142 1482.57,131.519 1490.58,109.964 1498.59,91.5276 1506.6,76.2511 1514.61,64.169 1522.62,55.3088 1530.63,49.6904 1538.74,47.3175 1546.86,48.2896 1554.97,52.6046 1563.09,60.2524 1571.2,71.2152 1579.31,85.4676 1587.43,102.976 1595.54,123.701 1604.64,150.689 1613.73,181.576 1622.82,216.273 1631.92,254.678 1641.01,296.679 1650.1,342.153 1659.2,390.968 1668.29,442.98 1676.53,492.748 1684.77,544.897 1693.01,599.303 1701.25,655.836 1709.49,714.36 1717.73,774.735 1725.97,836.816 1734.21,900.455 1753.08,1051.22 1771.95,1207.44 1790.82,1367.18 1809.69,1528.41 1827.16,1677.27 1844.63,1824.07 1862.1,1967.24 1879.57,2105.23 1888.18,2170.89 1896.8,2234.76 1905.41,2296.67 1914.02,2356.45 1922.63,2413.96 1931.25,2469.04 1939.86,2521.55 1948.47,2571.34 1956.83,2616.97 1965.19,2659.81 1973.55,2699.76 1981.92,2736.71 1990.28,2770.57 1998.64,2801.26 2007,2828.71 2015.36,2852.84 2023.94,2874.08 2032.51,2891.72 2041.08,2905.72 2049.65,2916.03 2058.22,2922.64 2066.79,2925.51 2075.37,2924.66 2083.94,2920.08 2093.33,2910.78 2102.72,2897.06 2112.11,2878.94 2121.5,2856.48 2130.9,2829.76 2140.29,2798.86 2149.68,2763.87 2159.07,2724.91 2172.71,2661.47 2186.35,2590.31 2200,2511.9 2213.64,2426.75 2227.28,2335.43 2240.92,2238.54 2254.57,2136.7 2268.21,2030.59 2273.81,1985.98 2279.41,1940.81 2285,1895.15 2290.6,1849.03 "/>
<polyline clip-path="url(#clip372)" style="stroke:#ac8d18; stroke-linecap:round; stroke-linejoin:round; stroke-width:4; stroke-opacity:1; fill:none" points="218.754,47.2441 225.498,47.2463 232.242,47.2529 294.604,47.5229 356.966,48.1695 394.443,48.739 431.92,49.444 463.607,50.1458 495.293,50.944 564.133,53.01 627.598,55.3153 661.618,56.7084 695.639,58.2108 735.055,60.0877 774.471,62.1099 844.528,66.0602 905.961,69.8961 972.94,74.4695 1040.32,79.4765 1114.81,85.4798 1185.69,91.6399 1259.39,98.4994 1321.42,104.626 1397.17,112.532 1466.55,120.178 1530.63,127.573 1595.54,135.382 1668.29,144.503 1734.21,153.096 1809.69,163.304 1879.57,173.096 1948.47,183.056 2015.36,193.007 2083.94,203.482 2159.07,215.263 2268.21,232.908 2290.6,236.602 "/>
<polyline clip-path="url(#clip372)" style="stroke:#00a9ad; stroke-linecap:round; stroke-linejoin:round; stroke-width:4; stroke-opacity:1; fill:none" points="218.754,-7556.34 218.859,-96925.2 218.964,-48191.1 219.07,-31946.4 219.175,-23824.1 219.281,-18950.6 219.386,-15701.7 219.491,-13381 219.597,-11640.5 219.702,-10286.8 219.807,-9203.82 219.913,-8317.74 220.018,-7579.34 220.124,-6954.55 220.229,-6419.01 220.334,-5954.87 220.44,-5548.76 220.545,-5190.42 220.651,-4871.89 220.756,-4586.9 220.861,-4330.4 221.072,-3887.37 221.283,-3518.17 221.494,-3205.77 221.704,-2938 221.915,-2705.93 222.126,-2502.87 222.337,-2323.7 222.547,-2164.44 222.758,-2021.94 222.969,-1893.7 223.39,-1672.18 223.812,-1487.58 224.233,-1331.38 224.655,-1197.49 225.077,-1081.46 225.498,-979.931 225.92,-890.347 226.341,-810.716 226.763,-739.467 227.184,-675.343 228.027,-564.584 228.87,-472.284 229.713,-394.185 230.556,-327.242 230.978,-297.234 231.399,-269.225 231.821,-243.024 232.242,-218.461 236.14,-47.7576 240.038,60.426 243.935,135.12 247.833,189.791 255.628,264.461 263.423,313.07 271.219,347.235 279.014,372.56 286.809,392.084 294.604,407.595 310.195,430.683 325.785,447.045 341.376,459.246 356.966,468.694 394.443,484.547 431.92,494.825 463.607,501.061 495.293,505.868 564.133,513.271 627.598,517.887 695.639,521.472 774.471,524.527 844.528,526.596 905.961,528.064 972.94,529.391 1040.32,530.508 1114.81,531.547 1185.69,532.387 1259.39,533.14 1321.42,533.695 1397.17,534.294 1466.55,534.778 1530.63,535.181 1595.54,535.55 1668.29,535.924 1734.21,536.232 1809.69,536.554 1879.57,536.826 1948.47,537.072 2015.36,537.293 2083.94,537.503 2159.07,537.716 2268.21,537.998 2290.6,538.052 "/>
<polyline clip-path="url(#clip372)" style="stroke:#ed5d92; stroke-linecap:round; stroke-linejoin:round; stroke-width:4; stroke-opacity:1; fill:none" points="218.754,9090.03 218.859,61434 218.964,31307 219.07,21264.6 219.175,16243.5 219.281,13230.8 219.386,11222.3 219.491,9787.69 219.597,8711.73 219.702,7874.86 219.807,7205.37 219.913,6657.61 220.018,6201.14 220.124,5814.9 220.229,5483.83 220.334,5196.91 220.44,4945.85 220.545,4724.33 220.651,4527.42 220.756,4351.24 220.861,4192.67 221.072,3918.79 221.283,3690.56 221.494,3497.43 221.704,3331.9 221.915,3188.44 222.126,3062.91 222.337,2952.15 222.547,2853.69 222.758,2765.6 222.969,2686.32 223.39,2549.38 223.812,2435.26 224.233,2338.7 224.655,2255.94 225.077,2184.2 225.498,2121.44 225.92,2066.06 226.341,2016.83 226.763,1972.79 227.184,1933.15 228.027,1864.68 228.87,1807.62 229.713,1759.34 230.556,1717.95 230.978,1699.4 231.399,1682.09 231.821,1665.89 232.242,1650.71 236.14,1545.18 240.038,1478.3 243.935,1432.12 247.833,1398.33 255.628,1352.17 263.423,1322.12 271.219,1301 279.014,1285.34 286.809,1273.27 294.604,1263.68 325.785,1239.3 356.966,1225.91 394.443,1216.11 431.92,1209.76 463.607,1205.9 495.293,1202.93 564.133,1198.36 627.598,1195.5 695.639,1193.29 774.471,1191.4 844.528,1190.12 905.961,1189.21 972.94,1188.39 1040.32,1187.7 1114.81,1187.06 1185.69,1186.54 1259.39,1186.07 1321.42,1185.73 1397.17,1185.36 1466.55,1185.06 1530.63,1184.81 1595.54,1184.58 1668.29,1184.35 1734.21,1184.16 1809.69,1183.96 1879.57,1183.79 1948.47,1183.64 2015.36,1183.51 2083.94,1183.38 2159.07,1183.24 2268.21,1183.07 2290.6,1183.04 "/>
<path clip-path="url(#clip370)" d="M1824.02 509.938 L2279.55 509.938 L2279.55 95.2176 L1824.02 95.2176  Z" fill="#ffffff" fill-rule="evenodd" fill-opacity="1"/>
<polyline clip-path="url(#clip370)" style="stroke:#000000; stroke-linecap:round; stroke-linejoin:round; stroke-width:4; stroke-opacity:1; fill:none" points="1824.02,509.938 2279.55,509.938 2279.55,95.2176 1824.02,95.2176 1824.02,509.938 "/>
<polyline clip-path="url(#clip370)" style="stroke:#009af9; stroke-linecap:round; stroke-linejoin:round; stroke-width:4; stroke-opacity:1; fill:none" points="1848.42,147.058 1994.83,147.058 "/>
<path clip-path="url(#clip370)" d="M2041.88 131.911 Q2041.88 135.377 2040.1 138.633 Q2038.35 141.888 2035.58 143.856 Q2032.84 145.823 2030.08 145.823 Q2026.96 145.823 2025.35 142.591 Q2022.42 154.326 2022.25 154.63 Q2021.57 155.637 2020.59 155.637 Q2019.98 155.637 2019.61 155.263 Q2019.23 154.911 2019.23 154.349 Q2019.26 154.162 2019.4 153.576 L2024.08 134.721 Q2025.16 130.341 2028.41 127.226 Q2031.69 124.087 2035.21 124.087 Q2037.99 124.087 2039.94 126.172 Q2041.88 128.257 2041.88 131.911 M2038.44 129.849 Q2038.44 127.507 2037.5 126.336 Q2036.57 125.141 2035.11 125.141 Q2033.78 125.141 2032.16 126.219 Q2030.57 127.296 2029.16 129.685 Q2028.41 131.067 2027.88 132.777 Q2027.34 134.487 2026.28 138.703 Q2025.91 140.389 2025.91 140.483 Q2025.91 140.671 2026 141.092 Q2026.12 141.514 2026.4 142.17 Q2026.7 142.802 2027.13 143.364 Q2027.55 143.926 2028.32 144.348 Q2029.09 144.746 2030.03 144.746 Q2031.48 144.746 2033.03 143.575 Q2034.6 142.38 2035.75 140.202 Q2036.71 138.445 2037.57 135.143 Q2038.44 131.817 2038.44 129.849 Z" fill="#000000" fill-rule="evenodd" fill-opacity="1" /><path clip-path="url(#clip370)" d="M2069.81 169.143 Q2069.81 169.454 2069.68 169.618 Q2069.56 169.766 2069.45 169.798 Q2069.35 169.815 2069.2 169.815 Q2068.78 169.815 2067.3 169.766 Q2065.83 169.716 2065.4 169.716 Q2064.71 169.716 2063.3 169.766 Q2061.89 169.815 2061.2 169.815 Q2060.74 169.815 2060.74 169.438 Q2060.74 169.192 2060.79 169.061 Q2060.84 168.913 2060.97 168.864 Q2061.12 168.798 2061.2 168.798 Q2061.3 168.782 2061.55 168.782 Q2061.87 168.782 2062.22 168.749 Q2062.56 168.7 2062.99 168.601 Q2063.42 168.503 2063.68 168.257 Q2063.96 168.011 2063.96 167.667 Q2063.96 167.519 2063.84 166.306 Q2063.73 165.093 2063.58 163.683 Q2063.43 162.256 2063.42 162.06 L2054.99 162.06 Q2054.22 163.388 2053.68 164.306 Q2053.14 165.224 2052.94 165.535 Q2052.74 165.847 2052.63 166.044 Q2052.51 166.24 2052.45 166.355 Q2051.97 167.224 2051.97 167.601 Q2051.97 168.651 2053.55 168.782 Q2054.09 168.782 2054.09 169.175 Q2054.09 169.47 2053.96 169.634 Q2053.82 169.782 2053.71 169.798 Q2053.61 169.815 2053.45 169.815 Q2052.91 169.815 2051.78 169.766 Q2050.64 169.716 2050.09 169.716 Q2049.61 169.716 2048.63 169.766 Q2047.64 169.815 2047.2 169.815 Q2047 169.815 2046.89 169.7 Q2046.77 169.585 2046.77 169.438 Q2046.77 169.208 2046.81 169.077 Q2046.86 168.946 2046.99 168.88 Q2047.12 168.815 2047.18 168.815 Q2047.25 168.798 2047.48 168.782 Q2048.73 168.7 2049.69 168.11 Q2050.68 167.503 2051.61 165.945 L2063.28 146.336 Q2063.4 146.139 2063.48 146.041 Q2063.56 145.943 2063.73 145.861 Q2063.91 145.779 2064.17 145.779 Q2064.58 145.779 2064.66 145.91 Q2064.74 146.025 2064.79 146.582 L2066.84 167.569 Q2066.89 168.011 2066.92 168.192 Q2066.97 168.356 2067.19 168.536 Q2067.42 168.7 2067.83 168.749 Q2068.25 168.782 2069.04 168.782 Q2069.33 168.782 2069.45 168.798 Q2069.56 168.798 2069.68 168.88 Q2069.81 168.962 2069.81 169.143 M2063.32 161.01 L2062.25 149.943 L2055.63 161.01 L2063.32 161.01 Z" fill="#000000" fill-rule="evenodd" fill-opacity="1" /><path clip-path="url(#clip370)" d="M2109.35 133.225 L2108.33 127.877 Q2107.29 122.391 2103.17 122.391 Q2100.07 122.391 2098.66 124.938 Q2096.87 128.132 2096.87 132.345 Q2096.87 137.438 2098.61 139.868 Q2100.37 142.345 2103.17 142.345 Q2106.27 142.345 2107.94 137.414 L2109.35 133.225 M2111.74 126.141 L2114.03 119.359 L2117.82 119.359 L2113.08 133.41 L2114 138.479 Q2114.21 139.613 2115.02 140.563 Q2115.97 141.674 2116.71 141.674 L2118.75 141.674 L2118.75 145.285 L2116.2 145.285 Q2114.03 145.285 2112.08 143.34 Q2111.13 142.368 2110.74 140.331 Q2109.68 142.9 2107.5 144.914 Q2106.48 145.863 2103.17 145.863 Q2097.73 145.863 2095.09 142.345 Q2092.38 138.711 2092.38 132.345 Q2092.38 125.539 2095.32 122.345 Q2098.59 118.78 2103.17 118.78 Q2110.37 118.78 2111.74 126.141 Z" fill="#000000" fill-rule="evenodd" fill-opacity="1" /><path clip-path="url(#clip370)" d="M2126.04 123.757 L2155.72 123.757 L2155.72 127.646 L2126.04 127.646 L2126.04 123.757 M2126.04 133.201 L2155.72 133.201 L2155.72 137.137 L2126.04 137.137 L2126.04 133.201 Z" fill="#000000" fill-rule="evenodd" fill-opacity="1" /><path clip-path="url(#clip370)" d="M2175.81 113.803 Q2172.2 113.803 2170.37 117.368 Q2168.56 120.91 2168.56 128.039 Q2168.56 135.146 2170.37 138.711 Q2172.2 142.252 2175.81 142.252 Q2179.44 142.252 2181.25 138.711 Q2183.08 135.146 2183.08 128.039 Q2183.08 120.91 2181.25 117.368 Q2179.44 113.803 2175.81 113.803 M2175.81 110.1 Q2181.62 110.1 2184.68 114.706 Q2187.75 119.29 2187.75 128.039 Q2187.75 136.766 2184.68 141.373 Q2181.62 145.956 2175.81 145.956 Q2170 145.956 2166.92 141.373 Q2163.87 136.766 2163.87 128.039 Q2163.87 119.29 2166.92 114.706 Q2170 110.1 2175.81 110.1 Z" fill="#000000" fill-rule="evenodd" fill-opacity="1" /><path clip-path="url(#clip370)" d="M2195.97 139.405 L2200.86 139.405 L2200.86 145.285 L2195.97 145.285 L2195.97 139.405 Z" fill="#000000" fill-rule="evenodd" fill-opacity="1" /><path clip-path="url(#clip370)" d="M2211.09 110.725 L2229.44 110.725 L2229.44 114.66 L2215.37 114.66 L2215.37 123.132 Q2216.39 122.785 2217.41 122.623 Q2218.43 122.438 2219.44 122.438 Q2225.23 122.438 2228.61 125.609 Q2231.99 128.78 2231.99 134.197 Q2231.99 139.776 2228.52 142.877 Q2225.05 145.956 2218.73 145.956 Q2216.55 145.956 2214.28 145.586 Q2212.04 145.215 2209.63 144.475 L2209.63 139.776 Q2211.71 140.91 2213.93 141.465 Q2216.16 142.021 2218.63 142.021 Q2222.64 142.021 2224.98 139.914 Q2227.31 137.808 2227.31 134.197 Q2227.31 130.586 2224.98 128.479 Q2222.64 126.373 2218.63 126.373 Q2216.76 126.373 2214.88 126.789 Q2213.03 127.206 2211.09 128.086 L2211.09 110.725 Z" fill="#000000" fill-rule="evenodd" fill-opacity="1" /><polyline clip-path="url(#clip370)" style="stroke:#e26f46; stroke-linecap:round; stroke-linejoin:round; stroke-width:4; stroke-opacity:1; fill:none" points="1848.42,198.898 1994.83,198.898 "/>
<path clip-path="url(#clip370)" d="M2040.59 173.9 L2028.47 173.9 L2028.47 172.85 L2040.59 172.85 L2040.59 173.9 Z" fill="#000000" fill-rule="evenodd" fill-opacity="1" /><path clip-path="url(#clip370)" d="M2042.88 186.83 Q2042.88 190.297 2041.1 193.552 Q2039.35 196.808 2036.58 198.776 Q2033.84 200.743 2031.08 200.743 Q2027.96 200.743 2026.35 197.511 Q2023.42 209.245 2023.25 209.55 Q2022.57 210.557 2021.59 210.557 Q2020.98 210.557 2020.61 210.182 Q2020.23 209.831 2020.23 209.269 Q2020.26 209.081 2020.4 208.496 L2025.08 189.641 Q2026.16 185.261 2029.41 182.146 Q2032.69 179.007 2036.21 179.007 Q2038.99 179.007 2040.94 181.092 Q2042.88 183.176 2042.88 186.83 M2039.44 184.769 Q2039.44 182.427 2038.5 181.256 Q2037.57 180.061 2036.11 180.061 Q2034.78 180.061 2033.16 181.138 Q2031.57 182.216 2030.16 184.605 Q2029.41 185.987 2028.88 187.697 Q2028.34 189.407 2027.28 193.623 Q2026.91 195.309 2026.91 195.403 Q2026.91 195.59 2027 196.012 Q2027.12 196.433 2027.4 197.089 Q2027.7 197.721 2028.13 198.284 Q2028.55 198.846 2029.32 199.267 Q2030.09 199.666 2031.03 199.666 Q2032.48 199.666 2034.03 198.494 Q2035.6 197.3 2036.75 195.122 Q2037.71 193.365 2038.57 190.062 Q2039.44 186.736 2039.44 184.769 Z" fill="#000000" fill-rule="evenodd" fill-opacity="1" /><path clip-path="url(#clip370)" d="M2071.38 224.062 Q2071.38 224.374 2071.25 224.538 Q2071.14 224.685 2071.02 224.718 Q2070.92 224.734 2070.78 224.734 Q2070.35 224.734 2068.87 224.685 Q2067.4 224.636 2066.97 224.636 Q2066.28 224.636 2064.87 224.685 Q2063.46 224.734 2062.77 224.734 Q2062.32 224.734 2062.32 224.357 Q2062.32 224.111 2062.37 223.98 Q2062.41 223.833 2062.55 223.783 Q2062.69 223.718 2062.77 223.718 Q2062.87 223.701 2063.12 223.701 Q2063.45 223.701 2063.79 223.669 Q2064.14 223.619 2064.56 223.521 Q2064.99 223.423 2065.25 223.177 Q2065.53 222.931 2065.53 222.586 Q2065.53 222.439 2065.41 221.226 Q2065.3 220.012 2065.15 218.602 Q2065 217.176 2064.99 216.979 L2056.56 216.979 Q2055.79 218.307 2055.25 219.225 Q2054.71 220.143 2054.51 220.455 Q2054.31 220.767 2054.2 220.963 Q2054.09 221.16 2054.02 221.275 Q2053.54 222.144 2053.54 222.521 Q2053.54 223.57 2055.12 223.701 Q2055.66 223.701 2055.66 224.095 Q2055.66 224.39 2055.53 224.554 Q2055.4 224.701 2055.28 224.718 Q2055.18 224.734 2055.02 224.734 Q2054.48 224.734 2053.35 224.685 Q2052.22 224.636 2051.66 224.636 Q2051.18 224.636 2050.2 224.685 Q2049.22 224.734 2048.77 224.734 Q2048.58 224.734 2048.46 224.62 Q2048.35 224.505 2048.35 224.357 Q2048.35 224.128 2048.38 223.996 Q2048.43 223.865 2048.56 223.8 Q2048.69 223.734 2048.76 223.734 Q2048.82 223.718 2049.05 223.701 Q2050.3 223.619 2051.27 223.029 Q2052.25 222.422 2053.18 220.865 L2064.86 201.256 Q2064.97 201.059 2065.05 200.96 Q2065.14 200.862 2065.3 200.78 Q2065.48 200.698 2065.74 200.698 Q2066.15 200.698 2066.23 200.829 Q2066.32 200.944 2066.37 201.502 L2068.42 222.488 Q2068.46 222.931 2068.5 223.111 Q2068.55 223.275 2068.76 223.455 Q2068.99 223.619 2069.4 223.669 Q2069.83 223.701 2070.61 223.701 Q2070.91 223.701 2071.02 223.718 Q2071.14 223.718 2071.25 223.8 Q2071.38 223.882 2071.38 224.062 M2064.89 215.93 L2063.82 204.863 L2057.2 215.93 L2064.89 215.93 Z" fill="#000000" fill-rule="evenodd" fill-opacity="1" /><path clip-path="url(#clip370)" d="M2110.92 188.144 L2109.91 182.797 Q2108.86 177.311 2104.74 177.311 Q2101.64 177.311 2100.23 179.857 Q2098.45 183.052 2098.45 187.265 Q2098.45 192.357 2100.18 194.788 Q2101.94 197.264 2104.74 197.264 Q2107.85 197.264 2109.51 192.334 L2110.92 188.144 M2113.31 181.061 L2115.6 174.278 L2119.4 174.278 L2114.65 188.329 L2115.58 193.399 Q2115.79 194.533 2116.6 195.482 Q2117.54 196.593 2118.29 196.593 L2120.32 196.593 L2120.32 200.204 L2117.78 200.204 Q2115.6 200.204 2113.66 198.26 Q2112.71 197.288 2112.31 195.251 Q2111.25 197.82 2109.07 199.834 Q2108.05 200.783 2104.74 200.783 Q2099.3 200.783 2096.66 197.264 Q2093.96 193.63 2093.96 187.265 Q2093.96 180.459 2096.9 177.265 Q2100.16 173.7 2104.74 173.7 Q2111.94 173.7 2113.31 181.061 Z" fill="#000000" fill-rule="evenodd" fill-opacity="1" /><path clip-path="url(#clip370)" d="M2127.61 178.677 L2157.29 178.677 L2157.29 182.565 L2127.61 182.565 L2127.61 178.677 M2127.61 188.121 L2157.29 188.121 L2157.29 192.056 L2127.61 192.056 L2127.61 188.121 Z" fill="#000000" fill-rule="evenodd" fill-opacity="1" /><path clip-path="url(#clip370)" d="M2177.38 168.723 Q2173.77 168.723 2171.94 172.288 Q2170.14 175.829 2170.14 182.959 Q2170.14 190.065 2171.94 193.63 Q2173.77 197.172 2177.38 197.172 Q2181.02 197.172 2182.82 193.63 Q2184.65 190.065 2184.65 182.959 Q2184.65 175.829 2182.82 172.288 Q2181.02 168.723 2177.38 168.723 M2177.38 165.019 Q2183.19 165.019 2186.25 169.626 Q2189.33 174.209 2189.33 182.959 Q2189.33 191.686 2186.25 196.292 Q2183.19 200.876 2177.38 200.876 Q2171.57 200.876 2168.49 196.292 Q2165.44 191.686 2165.44 182.959 Q2165.44 174.209 2168.49 169.626 Q2171.57 165.019 2177.38 165.019 Z" fill="#000000" fill-rule="evenodd" fill-opacity="1" /><path clip-path="url(#clip370)" d="M2197.54 194.325 L2202.43 194.325 L2202.43 200.204 L2197.54 200.204 L2197.54 194.325 Z" fill="#000000" fill-rule="evenodd" fill-opacity="1" /><path clip-path="url(#clip370)" d="M2212.66 165.644 L2231.02 165.644 L2231.02 169.579 L2216.94 169.579 L2216.94 178.052 Q2217.96 177.704 2218.98 177.542 Q2220 177.357 2221.02 177.357 Q2226.8 177.357 2230.18 180.528 Q2233.56 183.7 2233.56 189.116 Q2233.56 194.695 2230.09 197.797 Q2226.62 200.876 2220.3 200.876 Q2218.12 200.876 2215.85 200.505 Q2213.61 200.135 2211.2 199.394 L2211.2 194.695 Q2213.28 195.829 2215.51 196.385 Q2217.73 196.94 2220.21 196.94 Q2224.21 196.94 2226.55 194.834 Q2228.89 192.727 2228.89 189.116 Q2228.89 185.505 2226.55 183.399 Q2224.21 181.292 2220.21 181.292 Q2218.33 181.292 2216.46 181.709 Q2214.6 182.126 2212.66 183.005 L2212.66 165.644 Z" fill="#000000" fill-rule="evenodd" fill-opacity="1" /><polyline clip-path="url(#clip370)" style="stroke:#3da44d; stroke-linecap:round; stroke-linejoin:round; stroke-width:4; stroke-opacity:1; fill:none" points="1848.42,250.738 1994.83,250.738 "/>
<path clip-path="url(#clip370)" d="M2030.08 273.645 Q2030.08 274.043 2029.8 274.324 Q2029.52 274.605 2029.12 274.605 Q2028.44 274.605 2028.2 273.972 L2019.28 250.948 Q2019.23 250.854 2019.23 250.62 Q2019.23 250.386 2019.28 250.292 L2028.2 227.268 Q2028.44 226.636 2029.12 226.636 Q2029.52 226.636 2029.8 226.917 Q2030.08 227.198 2030.08 227.596 Q2030.08 227.83 2030.03 227.924 L2021.2 250.62 L2030.03 273.317 Q2030.08 273.41 2030.08 273.645 Z" fill="#000000" fill-rule="evenodd" fill-opacity="1" /><path clip-path="url(#clip370)" d="M2077 255.75 Q2077 255.937 2076.79 256.663 Q2076.58 257.389 2076.06 258.514 Q2075.57 259.638 2074.87 260.668 Q2074.19 261.676 2073.06 262.425 Q2071.96 263.151 2070.7 263.151 Q2069.01 263.151 2067.89 262.027 Q2066.76 260.903 2066.76 259.216 Q2066.76 258.303 2067.39 256.57 Q2070.37 248.653 2070.37 245.819 Q2070.37 242.469 2067.77 242.469 Q2066.29 242.469 2064.96 243.078 Q2063.62 243.687 2062.76 244.53 Q2061.89 245.374 2061.21 246.334 Q2060.53 247.294 2060.23 247.927 Q2059.95 248.559 2059.88 248.84 L2056.99 260.411 Q2056.76 261.395 2056.6 261.863 Q2056.43 262.331 2055.99 262.73 Q2055.54 263.151 2054.84 263.151 Q2054.25 263.151 2053.83 262.8 Q2053.43 262.449 2053.43 261.84 Q2053.43 261.746 2053.55 261.254 Q2053.67 260.762 2053.83 260.083 Q2054 259.404 2054.07 259.005 Q2054.91 255.82 2055.03 255.375 L2056.36 249.8 Q2057.09 247.037 2057.09 245.819 Q2057.09 242.469 2054.49 242.469 Q2053.2 242.469 2051.98 242.961 Q2050.79 243.43 2049.97 244.085 Q2049.15 244.741 2048.4 245.655 Q2047.67 246.545 2047.3 247.154 Q2046.95 247.739 2046.67 248.325 L2046.06 250.714 Q2045.92 251.37 2045.24 253.923 L2044.18 258.256 Q2043.43 261.488 2043.27 261.793 Q2043.03 262.449 2042.52 262.8 Q2042 263.151 2041.49 263.151 Q2040.9 263.151 2040.51 262.8 Q2040.11 262.449 2040.11 261.84 Q2040.11 261.746 2040.18 261.395 Q2040.25 261.043 2040.36 260.551 Q2040.48 260.06 2040.53 259.778 L2043.32 248.7 Q2043.83 246.685 2043.95 246.053 Q2044.09 245.397 2044.09 244.671 Q2044.09 242.469 2042.59 242.469 Q2041.37 242.469 2040.58 243.921 Q2039.78 245.374 2039.1 248.184 Q2038.89 248.957 2038.75 249.121 Q2038.63 249.285 2038.28 249.285 Q2037.69 249.262 2037.69 248.793 Q2037.69 248.676 2037.88 247.927 Q2038.07 247.177 2038.42 246.053 Q2038.8 244.905 2039.19 244.156 Q2039.43 243.664 2039.64 243.336 Q2039.85 243.008 2040.27 242.493 Q2040.69 241.977 2041.32 241.696 Q2041.96 241.415 2042.73 241.415 Q2044.44 241.415 2045.7 242.516 Q2046.99 243.617 2047.16 245.584 Q2050.27 241.415 2054.63 241.415 Q2057.09 241.415 2058.56 242.657 Q2059.95 243.851 2060.11 246.053 Q2063.34 241.415 2067.93 241.415 Q2070.58 241.415 2072.01 242.797 Q2073.44 244.156 2073.44 246.545 Q2073.44 247.786 2072.8 250.152 Q2072.17 252.494 2071.75 253.665 Q2071.33 254.836 2070.51 257.085 Q2069.64 259.24 2069.64 260.505 Q2069.64 261.324 2069.92 261.699 Q2070.2 262.074 2070.81 262.074 Q2071.75 262.074 2072.57 261.535 Q2073.39 260.973 2073.98 260.06 Q2074.58 259.123 2074.98 258.186 Q2075.38 257.225 2075.69 256.148 Q2075.87 255.562 2075.97 255.422 Q2076.08 255.281 2076.41 255.281 Q2077 255.281 2077 255.75 Z" fill="#000000" fill-rule="evenodd" fill-opacity="1" /><path clip-path="url(#clip370)" d="M2090.17 250.292 Q2090.22 250.386 2090.22 250.62 Q2090.22 250.854 2090.17 250.948 L2081.25 273.972 Q2081.01 274.605 2080.36 274.605 Q2079.96 274.605 2079.68 274.324 Q2079.4 274.043 2079.4 273.645 Q2079.4 273.41 2079.44 273.317 L2088.25 250.62 L2079.44 227.924 Q2079.4 227.83 2079.4 227.596 Q2079.4 227.198 2079.68 226.917 Q2079.96 226.636 2080.36 226.636 Q2081.01 226.636 2081.25 227.268 L2090.17 250.292 Z" fill="#000000" fill-rule="evenodd" fill-opacity="1" /><path clip-path="url(#clip370)" d="M2132.51 250.552 L2131.49 245.205 Q2130.45 239.719 2126.33 239.719 Q2123.23 239.719 2121.82 242.265 Q2120.03 245.46 2120.03 249.673 Q2120.03 254.765 2121.77 257.196 Q2123.53 259.673 2126.33 259.673 Q2129.43 259.673 2131.1 254.742 L2132.51 250.552 M2134.89 243.469 L2137.19 236.687 L2140.98 236.687 L2136.24 250.738 L2137.16 255.807 Q2137.37 256.941 2138.18 257.89 Q2139.13 259.001 2139.87 259.001 L2141.91 259.001 L2141.91 262.613 L2139.36 262.613 Q2137.19 262.613 2135.24 260.668 Q2134.29 259.696 2133.9 257.659 Q2132.83 260.228 2130.66 262.242 Q2129.64 263.191 2126.33 263.191 Q2120.89 263.191 2118.25 259.673 Q2115.54 256.039 2115.54 249.673 Q2115.54 242.867 2118.48 239.673 Q2121.75 236.108 2126.33 236.108 Q2133.53 236.108 2134.89 243.469 Z" fill="#000000" fill-rule="evenodd" fill-opacity="1" /><path clip-path="url(#clip370)" d="M2149.2 241.085 L2178.88 241.085 L2178.88 244.974 L2149.2 244.974 L2149.2 241.085 M2149.2 250.529 L2178.88 250.529 L2178.88 254.464 L2149.2 254.464 L2149.2 250.529 Z" fill="#000000" fill-rule="evenodd" fill-opacity="1" /><path clip-path="url(#clip370)" d="M2198.97 231.131 Q2195.36 231.131 2193.53 234.696 Q2191.72 238.238 2191.72 245.367 Q2191.72 252.474 2193.53 256.039 Q2195.36 259.58 2198.97 259.58 Q2202.6 259.58 2204.41 256.039 Q2206.24 252.474 2206.24 245.367 Q2206.24 238.238 2204.41 234.696 Q2202.6 231.131 2198.97 231.131 M2198.97 227.428 Q2204.78 227.428 2207.83 232.034 Q2210.91 236.617 2210.91 245.367 Q2210.91 254.094 2207.83 258.701 Q2204.78 263.284 2198.97 263.284 Q2193.16 263.284 2190.08 258.701 Q2187.02 254.094 2187.02 245.367 Q2187.02 236.617 2190.08 232.034 Q2193.16 227.428 2198.97 227.428 Z" fill="#000000" fill-rule="evenodd" fill-opacity="1" /><path clip-path="url(#clip370)" d="M2219.13 256.733 L2224.01 256.733 L2224.01 262.613 L2219.13 262.613 L2219.13 256.733 Z" fill="#000000" fill-rule="evenodd" fill-opacity="1" /><path clip-path="url(#clip370)" d="M2234.25 228.053 L2252.6 228.053 L2252.6 231.988 L2238.53 231.988 L2238.53 240.46 Q2239.55 240.113 2240.57 239.951 Q2241.58 239.765 2242.6 239.765 Q2248.39 239.765 2251.77 242.937 Q2255.15 246.108 2255.15 251.525 Q2255.15 257.103 2251.68 260.205 Q2248.2 263.284 2241.89 263.284 Q2239.71 263.284 2237.44 262.913 Q2235.2 262.543 2232.79 261.802 L2232.79 257.103 Q2234.87 258.238 2237.09 258.793 Q2239.32 259.349 2241.79 259.349 Q2245.8 259.349 2248.14 257.242 Q2250.47 255.136 2250.47 251.525 Q2250.47 247.914 2248.14 245.807 Q2245.8 243.701 2241.79 243.701 Q2239.92 243.701 2238.04 244.117 Q2236.19 244.534 2234.25 245.414 L2234.25 228.053 Z" fill="#000000" fill-rule="evenodd" fill-opacity="1" /><polyline clip-path="url(#clip370)" style="stroke:#c271d2; stroke-linecap:round; stroke-linejoin:round; stroke-width:4; stroke-opacity:1; fill:none" points="1848.42,302.578 1994.83,302.578 "/>
<path clip-path="url(#clip370)" d="M2033.08 322.265 Q2031.27 326.895 2029.56 328.307 Q2027.84 329.719 2024.97 329.719 L2021.57 329.719 L2021.57 326.154 L2024.07 326.154 Q2025.83 326.154 2026.8 325.32 Q2027.77 324.487 2028.95 321.385 L2029.72 319.441 L2019.23 293.932 L2023.75 293.932 L2031.85 314.209 L2039.95 293.932 L2044.46 293.932 L2033.08 322.265 Z" fill="#000000" fill-rule="evenodd" fill-opacity="1" /><path clip-path="url(#clip370)" d="M2063.79 289.372 L2051.99 307.821 L2063.79 307.821 L2063.79 289.372 M2062.57 285.298 L2068.45 285.298 L2068.45 307.821 L2073.38 307.821 L2073.38 311.709 L2068.45 311.709 L2068.45 319.858 L2063.79 319.858 L2063.79 311.709 L2048.19 311.709 L2048.19 307.196 L2062.57 285.298 Z" fill="#000000" fill-rule="evenodd" fill-opacity="1" /><polyline clip-path="url(#clip370)" style="stroke:#ac8d18; stroke-linecap:round; stroke-linejoin:round; stroke-width:4; stroke-opacity:1; fill:none" points="1848.42,354.418 1994.83,354.418 "/>
<path clip-path="url(#clip370)" d="M2041.88 339.271 Q2041.88 342.737 2040.1 345.993 Q2038.35 349.248 2035.58 351.216 Q2032.84 353.183 2030.08 353.183 Q2026.96 353.183 2025.35 349.951 Q2022.42 361.686 2022.25 361.99 Q2021.57 362.997 2020.59 362.997 Q2019.98 362.997 2019.61 362.623 Q2019.23 362.271 2019.23 361.709 Q2019.26 361.522 2019.4 360.936 L2024.08 342.081 Q2025.16 337.701 2028.41 334.586 Q2031.69 331.447 2035.21 331.447 Q2037.99 331.447 2039.94 333.532 Q2041.88 335.617 2041.88 339.271 M2038.44 337.209 Q2038.44 334.867 2037.5 333.696 Q2036.57 332.501 2035.11 332.501 Q2033.78 332.501 2032.16 333.579 Q2030.57 334.656 2029.16 337.045 Q2028.41 338.427 2027.88 340.137 Q2027.34 341.847 2026.28 346.063 Q2025.91 347.749 2025.91 347.843 Q2025.91 348.031 2026 348.452 Q2026.12 348.874 2026.4 349.53 Q2026.7 350.162 2027.13 350.724 Q2027.55 351.286 2028.32 351.708 Q2029.09 352.106 2030.03 352.106 Q2031.48 352.106 2033.03 350.935 Q2034.6 349.74 2035.75 347.562 Q2036.71 345.805 2037.57 342.503 Q2038.44 339.177 2038.44 337.209 Z" fill="#000000" fill-rule="evenodd" fill-opacity="1" /><path clip-path="url(#clip370)" d="M2069.81 376.503 Q2069.81 376.814 2069.68 376.978 Q2069.56 377.126 2069.45 377.158 Q2069.35 377.175 2069.2 377.175 Q2068.78 377.175 2067.3 377.126 Q2065.83 377.076 2065.4 377.076 Q2064.71 377.076 2063.3 377.126 Q2061.89 377.175 2061.2 377.175 Q2060.74 377.175 2060.74 376.798 Q2060.74 376.552 2060.79 376.421 Q2060.84 376.273 2060.97 376.224 Q2061.12 376.158 2061.2 376.158 Q2061.3 376.142 2061.55 376.142 Q2061.87 376.142 2062.22 376.109 Q2062.56 376.06 2062.99 375.961 Q2063.42 375.863 2063.68 375.617 Q2063.96 375.371 2063.96 375.027 Q2063.96 374.879 2063.84 373.666 Q2063.73 372.453 2063.58 371.043 Q2063.43 369.616 2063.42 369.42 L2054.99 369.42 Q2054.22 370.748 2053.68 371.666 Q2053.14 372.584 2052.94 372.895 Q2052.74 373.207 2052.63 373.404 Q2052.51 373.6 2052.45 373.715 Q2051.97 374.584 2051.97 374.961 Q2051.97 376.011 2053.55 376.142 Q2054.09 376.142 2054.09 376.535 Q2054.09 376.83 2053.96 376.994 Q2053.82 377.142 2053.71 377.158 Q2053.61 377.175 2053.45 377.175 Q2052.91 377.175 2051.78 377.126 Q2050.64 377.076 2050.09 377.076 Q2049.61 377.076 2048.63 377.126 Q2047.64 377.175 2047.2 377.175 Q2047 377.175 2046.89 377.06 Q2046.77 376.945 2046.77 376.798 Q2046.77 376.568 2046.81 376.437 Q2046.86 376.306 2046.99 376.24 Q2047.12 376.175 2047.18 376.175 Q2047.25 376.158 2047.48 376.142 Q2048.73 376.06 2049.69 375.47 Q2050.68 374.863 2051.61 373.305 L2063.28 353.696 Q2063.4 353.499 2063.48 353.401 Q2063.56 353.303 2063.73 353.221 Q2063.91 353.139 2064.17 353.139 Q2064.58 353.139 2064.66 353.27 Q2064.74 353.385 2064.79 353.942 L2066.84 374.929 Q2066.89 375.371 2066.92 375.552 Q2066.97 375.716 2067.19 375.896 Q2067.42 376.06 2067.83 376.109 Q2068.25 376.142 2069.04 376.142 Q2069.33 376.142 2069.45 376.158 Q2069.56 376.158 2069.68 376.24 Q2069.81 376.322 2069.81 376.503 M2063.32 368.37 L2062.25 357.303 L2055.63 368.37 L2063.32 368.37 Z" fill="#000000" fill-rule="evenodd" fill-opacity="1" /><path clip-path="url(#clip370)" d="M2109.35 340.585 L2108.33 335.237 Q2107.29 329.751 2103.17 329.751 Q2100.07 329.751 2098.66 332.298 Q2096.87 335.492 2096.87 339.705 Q2096.87 344.798 2098.61 347.228 Q2100.37 349.705 2103.17 349.705 Q2106.27 349.705 2107.94 344.774 L2109.35 340.585 M2111.74 333.501 L2114.03 326.719 L2117.82 326.719 L2113.08 340.77 L2114 345.839 Q2114.21 346.973 2115.02 347.923 Q2115.97 349.034 2116.71 349.034 L2118.75 349.034 L2118.75 352.645 L2116.2 352.645 Q2114.03 352.645 2112.08 350.7 Q2111.13 349.728 2110.74 347.691 Q2109.68 350.26 2107.5 352.274 Q2106.48 353.223 2103.17 353.223 Q2097.73 353.223 2095.09 349.705 Q2092.38 346.071 2092.38 339.705 Q2092.38 332.899 2095.32 329.705 Q2098.59 326.14 2103.17 326.14 Q2110.37 326.14 2111.74 333.501 Z" fill="#000000" fill-rule="evenodd" fill-opacity="1" /><path clip-path="url(#clip370)" d="M2126.04 331.117 L2155.72 331.117 L2155.72 335.006 L2126.04 335.006 L2126.04 331.117 M2126.04 340.561 L2155.72 340.561 L2155.72 344.497 L2126.04 344.497 L2126.04 340.561 Z" fill="#000000" fill-rule="evenodd" fill-opacity="1" /><path clip-path="url(#clip370)" d="M2169.84 348.71 L2186.16 348.71 L2186.16 352.645 L2164.21 352.645 L2164.21 348.71 Q2166.87 345.955 2171.46 341.325 Q2176.06 336.673 2177.24 335.33 Q2179.49 332.807 2180.37 331.071 Q2181.27 329.312 2181.27 327.622 Q2181.27 324.867 2179.33 323.131 Q2177.41 321.395 2174.31 321.395 Q2172.11 321.395 2169.65 322.159 Q2167.22 322.923 2164.44 324.474 L2164.44 319.751 Q2167.27 318.617 2169.72 318.038 Q2172.18 317.46 2174.21 317.46 Q2179.58 317.46 2182.78 320.145 Q2185.97 322.83 2185.97 327.321 Q2185.97 329.45 2185.16 331.372 Q2184.37 333.27 2182.27 335.862 Q2181.69 336.534 2178.59 339.751 Q2175.49 342.946 2169.84 348.71 Z" fill="#000000" fill-rule="evenodd" fill-opacity="1" /><polyline clip-path="url(#clip370)" style="stroke:#00a9ad; stroke-linecap:round; stroke-linejoin:round; stroke-width:4; stroke-opacity:1; fill:none" points="1848.42,406.258 1994.83,406.258 "/>
<path clip-path="url(#clip370)" d="M2040.59 381.26 L2028.47 381.26 L2028.47 380.21 L2040.59 380.21 L2040.59 381.26 Z" fill="#000000" fill-rule="evenodd" fill-opacity="1" /><path clip-path="url(#clip370)" d="M2042.88 394.19 Q2042.88 397.657 2041.1 400.912 Q2039.35 404.168 2036.58 406.136 Q2033.84 408.103 2031.08 408.103 Q2027.96 408.103 2026.35 404.871 Q2023.42 416.605 2023.25 416.91 Q2022.57 417.917 2021.59 417.917 Q2020.98 417.917 2020.61 417.542 Q2020.23 417.191 2020.23 416.629 Q2020.26 416.441 2020.4 415.856 L2025.08 397.001 Q2026.16 392.621 2029.41 389.506 Q2032.69 386.367 2036.21 386.367 Q2038.99 386.367 2040.94 388.452 Q2042.88 390.536 2042.88 394.19 M2039.44 392.129 Q2039.44 389.787 2038.5 388.616 Q2037.57 387.421 2036.11 387.421 Q2034.78 387.421 2033.16 388.498 Q2031.57 389.576 2030.16 391.965 Q2029.41 393.347 2028.88 395.057 Q2028.34 396.767 2027.28 400.983 Q2026.91 402.669 2026.91 402.763 Q2026.91 402.95 2027 403.372 Q2027.12 403.793 2027.4 404.449 Q2027.7 405.081 2028.13 405.644 Q2028.55 406.206 2029.32 406.627 Q2030.09 407.026 2031.03 407.026 Q2032.48 407.026 2034.03 405.854 Q2035.6 404.66 2036.75 402.482 Q2037.71 400.725 2038.57 397.422 Q2039.44 394.096 2039.44 392.129 Z" fill="#000000" fill-rule="evenodd" fill-opacity="1" /><path clip-path="url(#clip370)" d="M2071.38 431.422 Q2071.38 431.734 2071.25 431.898 Q2071.14 432.045 2071.02 432.078 Q2070.92 432.094 2070.78 432.094 Q2070.35 432.094 2068.87 432.045 Q2067.4 431.996 2066.97 431.996 Q2066.28 431.996 2064.87 432.045 Q2063.46 432.094 2062.77 432.094 Q2062.32 432.094 2062.32 431.717 Q2062.32 431.471 2062.37 431.34 Q2062.41 431.193 2062.55 431.143 Q2062.69 431.078 2062.77 431.078 Q2062.87 431.061 2063.12 431.061 Q2063.45 431.061 2063.79 431.029 Q2064.14 430.979 2064.56 430.881 Q2064.99 430.783 2065.25 430.537 Q2065.53 430.291 2065.53 429.946 Q2065.53 429.799 2065.41 428.586 Q2065.3 427.372 2065.15 425.962 Q2065 424.536 2064.99 424.339 L2056.56 424.339 Q2055.79 425.667 2055.25 426.585 Q2054.71 427.503 2054.51 427.815 Q2054.31 428.127 2054.2 428.323 Q2054.09 428.52 2054.02 428.635 Q2053.54 429.504 2053.54 429.881 Q2053.54 430.93 2055.12 431.061 Q2055.66 431.061 2055.66 431.455 Q2055.66 431.75 2055.53 431.914 Q2055.4 432.061 2055.28 432.078 Q2055.18 432.094 2055.02 432.094 Q2054.48 432.094 2053.35 432.045 Q2052.22 431.996 2051.66 431.996 Q2051.18 431.996 2050.2 432.045 Q2049.22 432.094 2048.77 432.094 Q2048.58 432.094 2048.46 431.98 Q2048.35 431.865 2048.35 431.717 Q2048.35 431.488 2048.38 431.356 Q2048.43 431.225 2048.56 431.16 Q2048.69 431.094 2048.76 431.094 Q2048.82 431.078 2049.05 431.061 Q2050.3 430.979 2051.27 430.389 Q2052.25 429.782 2053.18 428.225 L2064.86 408.616 Q2064.97 408.419 2065.05 408.32 Q2065.14 408.222 2065.3 408.14 Q2065.48 408.058 2065.74 408.058 Q2066.15 408.058 2066.23 408.189 Q2066.32 408.304 2066.37 408.862 L2068.42 429.848 Q2068.46 430.291 2068.5 430.471 Q2068.55 430.635 2068.76 430.815 Q2068.99 430.979 2069.4 431.029 Q2069.83 431.061 2070.61 431.061 Q2070.91 431.061 2071.02 431.078 Q2071.14 431.078 2071.25 431.16 Q2071.38 431.242 2071.38 431.422 M2064.89 423.29 L2063.82 412.223 L2057.2 423.29 L2064.89 423.29 Z" fill="#000000" fill-rule="evenodd" fill-opacity="1" /><path clip-path="url(#clip370)" d="M2110.92 395.504 L2109.91 390.157 Q2108.86 384.671 2104.74 384.671 Q2101.64 384.671 2100.23 387.217 Q2098.45 390.412 2098.45 394.625 Q2098.45 399.717 2100.18 402.148 Q2101.94 404.624 2104.74 404.624 Q2107.85 404.624 2109.51 399.694 L2110.92 395.504 M2113.31 388.421 L2115.6 381.638 L2119.4 381.638 L2114.65 395.689 L2115.58 400.759 Q2115.79 401.893 2116.6 402.842 Q2117.54 403.953 2118.29 403.953 L2120.32 403.953 L2120.32 407.564 L2117.78 407.564 Q2115.6 407.564 2113.66 405.62 Q2112.71 404.648 2112.31 402.611 Q2111.25 405.18 2109.07 407.194 Q2108.05 408.143 2104.74 408.143 Q2099.3 408.143 2096.66 404.624 Q2093.96 400.99 2093.96 394.625 Q2093.96 387.819 2096.9 384.625 Q2100.16 381.06 2104.74 381.06 Q2111.94 381.06 2113.31 388.421 Z" fill="#000000" fill-rule="evenodd" fill-opacity="1" /><path clip-path="url(#clip370)" d="M2127.61 386.037 L2157.29 386.037 L2157.29 389.925 L2127.61 389.925 L2127.61 386.037 M2127.61 395.481 L2157.29 395.481 L2157.29 399.416 L2127.61 399.416 L2127.61 395.481 Z" fill="#000000" fill-rule="evenodd" fill-opacity="1" /><path clip-path="url(#clip370)" d="M2171.41 403.629 L2187.73 403.629 L2187.73 407.564 L2165.78 407.564 L2165.78 403.629 Q2168.45 400.874 2173.03 396.245 Q2177.64 391.592 2178.82 390.25 Q2181.06 387.726 2181.94 385.99 Q2182.84 384.231 2182.84 382.541 Q2182.84 379.787 2180.9 378.051 Q2178.98 376.314 2175.88 376.314 Q2173.68 376.314 2171.22 377.078 Q2168.79 377.842 2166.02 379.393 L2166.02 374.671 Q2168.84 373.537 2171.29 372.958 Q2173.75 372.379 2175.78 372.379 Q2181.16 372.379 2184.35 375.064 Q2187.54 377.75 2187.54 382.24 Q2187.54 384.37 2186.73 386.291 Q2185.95 388.189 2183.84 390.782 Q2183.26 391.453 2180.16 394.671 Q2177.06 397.865 2171.41 403.629 Z" fill="#000000" fill-rule="evenodd" fill-opacity="1" /><polyline clip-path="url(#clip370)" style="stroke:#ed5d92; stroke-linecap:round; stroke-linejoin:round; stroke-width:4; stroke-opacity:1; fill:none" points="1848.42,458.098 1994.83,458.098 "/>
<path clip-path="url(#clip370)" d="M2030.08 481.005 Q2030.08 481.403 2029.8 481.684 Q2029.52 481.965 2029.12 481.965 Q2028.44 481.965 2028.2 481.332 L2019.28 458.308 Q2019.23 458.214 2019.23 457.98 Q2019.23 457.746 2019.28 457.652 L2028.2 434.628 Q2028.44 433.996 2029.12 433.996 Q2029.52 433.996 2029.8 434.277 Q2030.08 434.558 2030.08 434.956 Q2030.08 435.19 2030.03 435.284 L2021.2 457.98 L2030.03 480.677 Q2030.08 480.77 2030.08 481.005 Z" fill="#000000" fill-rule="evenodd" fill-opacity="1" /><path clip-path="url(#clip370)" d="M2077 463.11 Q2077 463.297 2076.79 464.023 Q2076.58 464.749 2076.06 465.874 Q2075.57 466.998 2074.87 468.028 Q2074.19 469.036 2073.06 469.785 Q2071.96 470.511 2070.7 470.511 Q2069.01 470.511 2067.89 469.387 Q2066.76 468.263 2066.76 466.576 Q2066.76 465.663 2067.39 463.93 Q2070.37 456.013 2070.37 453.179 Q2070.37 449.829 2067.77 449.829 Q2066.29 449.829 2064.96 450.438 Q2063.62 451.047 2062.76 451.89 Q2061.89 452.734 2061.21 453.694 Q2060.53 454.654 2060.23 455.287 Q2059.95 455.919 2059.88 456.2 L2056.99 467.771 Q2056.76 468.755 2056.6 469.223 Q2056.43 469.691 2055.99 470.09 Q2055.54 470.511 2054.84 470.511 Q2054.25 470.511 2053.83 470.16 Q2053.43 469.809 2053.43 469.2 Q2053.43 469.106 2053.55 468.614 Q2053.67 468.122 2053.83 467.443 Q2054 466.764 2054.07 466.365 Q2054.91 463.18 2055.03 462.735 L2056.36 457.16 Q2057.09 454.397 2057.09 453.179 Q2057.09 449.829 2054.49 449.829 Q2053.2 449.829 2051.98 450.321 Q2050.79 450.79 2049.97 451.445 Q2049.15 452.101 2048.4 453.015 Q2047.67 453.905 2047.3 454.514 Q2046.95 455.099 2046.67 455.685 L2046.06 458.074 Q2045.92 458.73 2045.24 461.283 L2044.18 465.616 Q2043.43 468.848 2043.27 469.153 Q2043.03 469.809 2042.52 470.16 Q2042 470.511 2041.49 470.511 Q2040.9 470.511 2040.51 470.16 Q2040.11 469.809 2040.11 469.2 Q2040.11 469.106 2040.18 468.755 Q2040.25 468.403 2040.36 467.911 Q2040.48 467.42 2040.53 467.138 L2043.32 456.06 Q2043.83 454.045 2043.95 453.413 Q2044.09 452.757 2044.09 452.031 Q2044.09 449.829 2042.59 449.829 Q2041.37 449.829 2040.58 451.281 Q2039.78 452.734 2039.1 455.544 Q2038.89 456.317 2038.75 456.481 Q2038.63 456.645 2038.28 456.645 Q2037.69 456.622 2037.69 456.153 Q2037.69 456.036 2037.88 455.287 Q2038.07 454.537 2038.42 453.413 Q2038.8 452.265 2039.19 451.516 Q2039.43 451.024 2039.64 450.696 Q2039.85 450.368 2040.27 449.853 Q2040.69 449.337 2041.32 449.056 Q2041.96 448.775 2042.73 448.775 Q2044.44 448.775 2045.7 449.876 Q2046.99 450.977 2047.16 452.944 Q2050.27 448.775 2054.63 448.775 Q2057.09 448.775 2058.56 450.017 Q2059.95 451.211 2060.11 453.413 Q2063.34 448.775 2067.93 448.775 Q2070.58 448.775 2072.01 450.157 Q2073.44 451.516 2073.44 453.905 Q2073.44 455.146 2072.8 457.512 Q2072.17 459.854 2071.75 461.025 Q2071.33 462.196 2070.51 464.445 Q2069.64 466.6 2069.64 467.865 Q2069.64 468.684 2069.92 469.059 Q2070.2 469.434 2070.81 469.434 Q2071.75 469.434 2072.57 468.895 Q2073.39 468.333 2073.98 467.42 Q2074.58 466.483 2074.98 465.546 Q2075.38 464.585 2075.69 463.508 Q2075.87 462.922 2075.97 462.782 Q2076.08 462.641 2076.41 462.641 Q2077 462.641 2077 463.11 Z" fill="#000000" fill-rule="evenodd" fill-opacity="1" /><path clip-path="url(#clip370)" d="M2090.17 457.652 Q2090.22 457.746 2090.22 457.98 Q2090.22 458.214 2090.17 458.308 L2081.25 481.332 Q2081.01 481.965 2080.36 481.965 Q2079.96 481.965 2079.68 481.684 Q2079.4 481.403 2079.4 481.005 Q2079.4 480.77 2079.44 480.677 L2088.25 457.98 L2079.44 435.284 Q2079.4 435.19 2079.4 434.956 Q2079.4 434.558 2079.68 434.277 Q2079.96 433.996 2080.36 433.996 Q2081.01 433.996 2081.25 434.628 L2090.17 457.652 Z" fill="#000000" fill-rule="evenodd" fill-opacity="1" /><path clip-path="url(#clip370)" d="M2132.51 457.912 L2131.49 452.565 Q2130.45 447.079 2126.33 447.079 Q2123.23 447.079 2121.82 449.625 Q2120.03 452.82 2120.03 457.033 Q2120.03 462.125 2121.77 464.556 Q2123.53 467.033 2126.33 467.033 Q2129.43 467.033 2131.1 462.102 L2132.51 457.912 M2134.89 450.829 L2137.19 444.047 L2140.98 444.047 L2136.24 458.098 L2137.16 463.167 Q2137.37 464.301 2138.18 465.25 Q2139.13 466.361 2139.87 466.361 L2141.91 466.361 L2141.91 469.973 L2139.36 469.973 Q2137.19 469.973 2135.24 468.028 Q2134.29 467.056 2133.9 465.019 Q2132.83 467.588 2130.66 469.602 Q2129.64 470.551 2126.33 470.551 Q2120.89 470.551 2118.25 467.033 Q2115.54 463.399 2115.54 457.033 Q2115.54 450.227 2118.48 447.033 Q2121.75 443.468 2126.33 443.468 Q2133.53 443.468 2134.89 450.829 Z" fill="#000000" fill-rule="evenodd" fill-opacity="1" /><path clip-path="url(#clip370)" d="M2149.2 448.445 L2178.88 448.445 L2178.88 452.334 L2149.2 452.334 L2149.2 448.445 M2149.2 457.889 L2178.88 457.889 L2178.88 461.824 L2149.2 461.824 L2149.2 457.889 Z" fill="#000000" fill-rule="evenodd" fill-opacity="1" /><path clip-path="url(#clip370)" d="M2193 466.037 L2209.32 466.037 L2209.32 469.973 L2187.37 469.973 L2187.37 466.037 Q2190.03 463.283 2194.62 458.653 Q2199.22 454 2200.4 452.658 Q2202.65 450.135 2203.53 448.399 Q2204.43 446.639 2204.43 444.95 Q2204.43 442.195 2202.49 440.459 Q2200.57 438.723 2197.46 438.723 Q2195.26 438.723 2192.81 439.487 Q2190.38 440.25 2187.6 441.801 L2187.6 437.079 Q2190.43 435.945 2192.88 435.366 Q2195.33 434.788 2197.37 434.788 Q2202.74 434.788 2205.94 437.473 Q2209.13 440.158 2209.13 444.649 Q2209.13 446.778 2208.32 448.7 Q2207.53 450.598 2205.43 453.19 Q2204.85 453.862 2201.75 457.079 Q2198.64 460.274 2193 466.037 Z" fill="#000000" fill-rule="evenodd" fill-opacity="1" /></svg>
