<?xml version="1.0" encoding="utf-8"?>
<svg xmlns="http://www.w3.org/2000/svg" xmlns:xlink="http://www.w3.org/1999/xlink" width="600" height="400" viewBox="0 0 2400 1600">
<defs>
  <clipPath id="clip040">
    <rect x="0" y="0" width="2400" height="1600"/>
  </clipPath>
</defs>
<path clip-path="url(#clip040)" d="M0 1600 L2400 1600 L2400 0 L0 0  Z" fill="#ffffff" fill-rule="evenodd" fill-opacity="1"/>
<defs>
  <clipPath id="clip041">
    <rect x="480" y="0" width="1681" height="1600"/>
  </clipPath>
</defs>
<path clip-path="url(#clip040)" d="M141.853 1486.45 L2352.76 1486.45 L2352.76 47.2441 L141.853 47.2441  Z" fill="#ffffff" fill-rule="evenodd" fill-opacity="1"/>
<defs>
  <clipPath id="clip042">
    <rect x="141" y="47" width="2212" height="1440"/>
  </clipPath>
</defs>
<polyline clip-path="url(#clip042)" style="stroke:#000000; stroke-linecap:round; stroke-linejoin:round; stroke-width:2; stroke-opacity:0.1; fill:none" points="167.177,1486.45 167.177,47.2441 "/>
<polyline clip-path="url(#clip042)" style="stroke:#000000; stroke-linecap:round; stroke-linejoin:round; stroke-width:2; stroke-opacity:0.1; fill:none" points="628.199,1486.45 628.199,47.2441 "/>
<polyline clip-path="url(#clip042)" style="stroke:#000000; stroke-linecap:round; stroke-linejoin:round; stroke-width:2; stroke-opacity:0.1; fill:none" points="1089.22,1486.45 1089.22,47.2441 "/>
<polyline clip-path="url(#clip042)" style="stroke:#000000; stroke-linecap:round; stroke-linejoin:round; stroke-width:2; stroke-opacity:0.1; fill:none" points="1550.24,1486.45 1550.24,47.2441 "/>
<polyline clip-path="url(#clip042)" style="stroke:#000000; stroke-linecap:round; stroke-linejoin:round; stroke-width:2; stroke-opacity:0.1; fill:none" points="2011.26,1486.45 2011.26,47.2441 "/>
<polyline clip-path="url(#clip040)" style="stroke:#000000; stroke-linecap:round; stroke-linejoin:round; stroke-width:4; stroke-opacity:1; fill:none" points="141.853,1486.45 2352.76,1486.45 "/>
<polyline clip-path="url(#clip040)" style="stroke:#000000; stroke-linecap:round; stroke-linejoin:round; stroke-width:4; stroke-opacity:1; fill:none" points="167.177,1486.45 167.177,1467.55 "/>
<polyline clip-path="url(#clip040)" style="stroke:#000000; stroke-linecap:round; stroke-linejoin:round; stroke-width:4; stroke-opacity:1; fill:none" points="628.199,1486.45 628.199,1467.55 "/>
<polyline clip-path="url(#clip040)" style="stroke:#000000; stroke-linecap:round; stroke-linejoin:round; stroke-width:4; stroke-opacity:1; fill:none" points="1089.22,1486.45 1089.22,1467.55 "/>
<polyline clip-path="url(#clip040)" style="stroke:#000000; stroke-linecap:round; stroke-linejoin:round; stroke-width:4; stroke-opacity:1; fill:none" points="1550.24,1486.45 1550.24,1467.55 "/>
<polyline clip-path="url(#clip040)" style="stroke:#000000; stroke-linecap:round; stroke-linejoin:round; stroke-width:4; stroke-opacity:1; fill:none" points="2011.26,1486.45 2011.26,1467.55 "/>
<path clip-path="url(#clip040)" d="M136.935 1532.02 L166.61 1532.02 L166.61 1535.95 L136.935 1535.95 L136.935 1532.02 Z" fill="#000000" fill-rule="evenodd" fill-opacity="1" /><path clip-path="url(#clip040)" d="M177.513 1544.91 L185.152 1544.91 L185.152 1518.55 L176.842 1520.21 L176.842 1515.95 L185.106 1514.29 L189.781 1514.29 L189.781 1544.91 L197.42 1544.91 L197.42 1548.85 L177.513 1548.85 L177.513 1544.91 Z" fill="#000000" fill-rule="evenodd" fill-opacity="1" /><path clip-path="url(#clip040)" d="M628.199 1517.37 Q624.588 1517.37 622.76 1520.93 Q620.954 1524.47 620.954 1531.6 Q620.954 1538.71 622.76 1542.27 Q624.588 1545.82 628.199 1545.82 Q631.834 1545.82 633.639 1542.27 Q635.468 1538.71 635.468 1531.6 Q635.468 1524.47 633.639 1520.93 Q631.834 1517.37 628.199 1517.37 M628.199 1513.66 Q634.009 1513.66 637.065 1518.27 Q640.144 1522.85 640.144 1531.6 Q640.144 1540.33 637.065 1544.94 Q634.009 1549.52 628.199 1549.52 Q622.389 1549.52 619.31 1544.94 Q616.255 1540.33 616.255 1531.6 Q616.255 1522.85 619.31 1518.27 Q622.389 1513.66 628.199 1513.66 Z" fill="#000000" fill-rule="evenodd" fill-opacity="1" /><path clip-path="url(#clip040)" d="M1079.6 1544.91 L1087.24 1544.91 L1087.24 1518.55 L1078.93 1520.21 L1078.93 1515.95 L1087.2 1514.29 L1091.87 1514.29 L1091.87 1544.91 L1099.51 1544.91 L1099.51 1548.85 L1079.6 1548.85 L1079.6 1544.91 Z" fill="#000000" fill-rule="evenodd" fill-opacity="1" /><path clip-path="url(#clip040)" d="M1544.9 1544.91 L1561.22 1544.91 L1561.22 1548.85 L1539.27 1548.85 L1539.27 1544.91 Q1541.93 1542.16 1546.52 1537.53 Q1551.12 1532.88 1552.3 1531.53 Q1554.55 1529.01 1555.43 1527.27 Q1556.33 1525.51 1556.33 1523.82 Q1556.33 1521.07 1554.39 1519.33 Q1552.47 1517.6 1549.36 1517.6 Q1547.16 1517.6 1544.71 1518.36 Q1542.28 1519.13 1539.5 1520.68 L1539.5 1515.95 Q1542.33 1514.82 1544.78 1514.24 Q1547.23 1513.66 1549.27 1513.66 Q1554.64 1513.66 1557.84 1516.35 Q1561.03 1519.03 1561.03 1523.52 Q1561.03 1525.65 1560.22 1527.57 Q1559.43 1529.47 1557.33 1532.07 Q1556.75 1532.74 1553.65 1535.95 Q1550.54 1539.15 1544.9 1544.91 Z" fill="#000000" fill-rule="evenodd" fill-opacity="1" /><path clip-path="url(#clip040)" d="M2015.51 1530.21 Q2018.87 1530.93 2020.74 1533.2 Q2022.64 1535.47 2022.64 1538.8 Q2022.64 1543.92 2019.12 1546.72 Q2015.61 1549.52 2009.12 1549.52 Q2006.95 1549.52 2004.63 1549.08 Q2002.34 1548.66 1999.89 1547.81 L1999.89 1543.29 Q2001.83 1544.43 2004.15 1545.01 Q2006.46 1545.58 2008.98 1545.58 Q2013.38 1545.58 2015.67 1543.85 Q2017.99 1542.11 2017.99 1538.8 Q2017.99 1535.75 2015.84 1534.03 Q2013.71 1532.3 2009.89 1532.3 L2005.86 1532.3 L2005.86 1528.45 L2010.07 1528.45 Q2013.52 1528.45 2015.35 1527.09 Q2017.18 1525.7 2017.18 1523.11 Q2017.18 1520.45 2015.28 1519.03 Q2013.41 1517.6 2009.89 1517.6 Q2007.97 1517.6 2005.77 1518.01 Q2003.57 1518.43 2000.93 1519.31 L2000.93 1515.14 Q2003.59 1514.4 2005.91 1514.03 Q2008.24 1513.66 2010.3 1513.66 Q2015.63 1513.66 2018.73 1516.09 Q2021.83 1518.5 2021.83 1522.62 Q2021.83 1525.49 2020.19 1527.48 Q2018.54 1529.45 2015.51 1530.21 Z" fill="#000000" fill-rule="evenodd" fill-opacity="1" /><polyline clip-path="url(#clip042)" style="stroke:#000000; stroke-linecap:round; stroke-linejoin:round; stroke-width:2; stroke-opacity:0.1; fill:none" points="141.853,1445.72 2352.76,1445.72 "/>
<polyline clip-path="url(#clip042)" style="stroke:#000000; stroke-linecap:round; stroke-linejoin:round; stroke-width:2; stroke-opacity:0.1; fill:none" points="141.853,1211.62 2352.76,1211.62 "/>
<polyline clip-path="url(#clip042)" style="stroke:#000000; stroke-linecap:round; stroke-linejoin:round; stroke-width:2; stroke-opacity:0.1; fill:none" points="141.853,977.53 2352.76,977.53 "/>
<polyline clip-path="url(#clip042)" style="stroke:#000000; stroke-linecap:round; stroke-linejoin:round; stroke-width:2; stroke-opacity:0.1; fill:none" points="141.853,743.437 2352.76,743.437 "/>
<polyline clip-path="url(#clip042)" style="stroke:#000000; stroke-linecap:round; stroke-linejoin:round; stroke-width:2; stroke-opacity:0.1; fill:none" points="141.853,509.344 2352.76,509.344 "/>
<polyline clip-path="url(#clip042)" style="stroke:#000000; stroke-linecap:round; stroke-linejoin:round; stroke-width:2; stroke-opacity:0.1; fill:none" points="141.853,275.251 2352.76,275.251 "/>
<polyline clip-path="url(#clip040)" style="stroke:#000000; stroke-linecap:round; stroke-linejoin:round; stroke-width:4; stroke-opacity:1; fill:none" points="141.853,1486.45 141.853,47.2441 "/>
<polyline clip-path="url(#clip040)" style="stroke:#000000; stroke-linecap:round; stroke-linejoin:round; stroke-width:4; stroke-opacity:1; fill:none" points="141.853,1445.72 160.751,1445.72 "/>
<polyline clip-path="url(#clip040)" style="stroke:#000000; stroke-linecap:round; stroke-linejoin:round; stroke-width:4; stroke-opacity:1; fill:none" points="141.853,1211.62 160.751,1211.62 "/>
<polyline clip-path="url(#clip040)" style="stroke:#000000; stroke-linecap:round; stroke-linejoin:round; stroke-width:4; stroke-opacity:1; fill:none" points="141.853,977.53 160.751,977.53 "/>
<polyline clip-path="url(#clip040)" style="stroke:#000000; stroke-linecap:round; stroke-linejoin:round; stroke-width:4; stroke-opacity:1; fill:none" points="141.853,743.437 160.751,743.437 "/>
<polyline clip-path="url(#clip040)" style="stroke:#000000; stroke-linecap:round; stroke-linejoin:round; stroke-width:4; stroke-opacity:1; fill:none" points="141.853,509.344 160.751,509.344 "/>
<polyline clip-path="url(#clip040)" style="stroke:#000000; stroke-linecap:round; stroke-linejoin:round; stroke-width:4; stroke-opacity:1; fill:none" points="141.853,275.251 160.751,275.251 "/>
<path clip-path="url(#clip040)" d="M93.9086 1431.51 Q90.2975 1431.51 88.4688 1435.08 Q86.6632 1438.62 86.6632 1445.75 Q86.6632 1452.86 88.4688 1456.42 Q90.2975 1459.96 93.9086 1459.96 Q97.5428 1459.96 99.3483 1456.42 Q101.177 1452.86 101.177 1445.75 Q101.177 1438.62 99.3483 1435.08 Q97.5428 1431.51 93.9086 1431.51 M93.9086 1427.81 Q99.7187 1427.81 102.774 1432.42 Q105.853 1437 105.853 1445.75 Q105.853 1454.48 102.774 1459.08 Q99.7187 1463.67 93.9086 1463.67 Q88.0984 1463.67 85.0197 1459.08 Q81.9642 1454.48 81.9642 1445.75 Q81.9642 1437 85.0197 1432.42 Q88.0984 1427.81 93.9086 1427.81 Z" fill="#000000" fill-rule="evenodd" fill-opacity="1" /><path clip-path="url(#clip040)" d="M54.5569 1224.97 L62.1958 1224.97 L62.1958 1198.6 L53.8856 1200.27 L53.8856 1196.01 L62.1495 1194.34 L66.8254 1194.34 L66.8254 1224.97 L74.4642 1224.97 L74.4642 1228.9 L54.5569 1228.9 L54.5569 1224.97 Z" fill="#000000" fill-rule="evenodd" fill-opacity="1" /><path clip-path="url(#clip040)" d="M93.9086 1197.42 Q90.2975 1197.42 88.4688 1200.99 Q86.6632 1204.53 86.6632 1211.66 Q86.6632 1218.76 88.4688 1222.33 Q90.2975 1225.87 93.9086 1225.87 Q97.5428 1225.87 99.3483 1222.33 Q101.177 1218.76 101.177 1211.66 Q101.177 1204.53 99.3483 1200.99 Q97.5428 1197.42 93.9086 1197.42 M93.9086 1193.72 Q99.7187 1193.72 102.774 1198.32 Q105.853 1202.91 105.853 1211.66 Q105.853 1220.38 102.774 1224.99 Q99.7187 1229.57 93.9086 1229.57 Q88.0984 1229.57 85.0197 1224.99 Q81.9642 1220.38 81.9642 1211.66 Q81.9642 1202.91 85.0197 1198.32 Q88.0984 1193.72 93.9086 1193.72 Z" fill="#000000" fill-rule="evenodd" fill-opacity="1" /><path clip-path="url(#clip040)" d="M57.7745 990.875 L74.0939 990.875 L74.0939 994.81 L52.1495 994.81 L52.1495 990.875 Q54.8115 988.12 59.3949 983.49 Q64.0013 978.838 65.1819 977.495 Q67.4272 974.972 68.3068 973.236 Q69.2096 971.476 69.2096 969.787 Q69.2096 967.032 67.2652 965.296 Q65.3439 963.56 62.2421 963.56 Q60.043 963.56 57.5893 964.324 Q55.1588 965.088 52.381 966.639 L52.381 961.916 Q55.2051 960.782 57.6588 960.203 Q60.1124 959.625 62.1495 959.625 Q67.5198 959.625 70.7142 962.31 Q73.9087 964.995 73.9087 969.486 Q73.9087 971.615 73.0985 973.537 Q72.3115 975.435 70.205 978.027 Q69.6263 978.699 66.5245 981.916 Q63.4226 985.111 57.7745 990.875 Z" fill="#000000" fill-rule="evenodd" fill-opacity="1" /><path clip-path="url(#clip040)" d="M93.9086 963.328 Q90.2975 963.328 88.4688 966.893 Q86.6632 970.435 86.6632 977.564 Q86.6632 984.671 88.4688 988.236 Q90.2975 991.777 93.9086 991.777 Q97.5428 991.777 99.3483 988.236 Q101.177 984.671 101.177 977.564 Q101.177 970.435 99.3483 966.893 Q97.5428 963.328 93.9086 963.328 M93.9086 959.625 Q99.7187 959.625 102.774 964.231 Q105.853 968.814 105.853 977.564 Q105.853 986.291 102.774 990.898 Q99.7187 995.481 93.9086 995.481 Q88.0984 995.481 85.0197 990.898 Q81.9642 986.291 81.9642 977.564 Q81.9642 968.814 85.0197 964.231 Q88.0984 959.625 93.9086 959.625 Z" fill="#000000" fill-rule="evenodd" fill-opacity="1" /><path clip-path="url(#clip040)" d="M67.9133 742.083 Q71.2698 742.8 73.1448 745.069 Q75.0429 747.337 75.0429 750.67 Q75.0429 755.786 71.5244 758.587 Q68.0059 761.388 61.5245 761.388 Q59.3486 761.388 57.0338 760.948 Q54.7421 760.531 52.2884 759.675 L52.2884 755.161 Q54.2328 756.295 56.5477 756.874 Q58.8625 757.453 61.3856 757.453 Q65.7837 757.453 68.0754 755.717 Q70.3902 753.981 70.3902 750.67 Q70.3902 747.615 68.2374 745.902 Q66.1078 744.166 62.2884 744.166 L58.2606 744.166 L58.2606 740.323 L62.4735 740.323 Q65.9226 740.323 67.7513 738.958 Q69.58 737.569 69.58 734.976 Q69.58 732.314 67.6819 730.902 Q65.8069 729.467 62.2884 729.467 Q60.3671 729.467 58.168 729.884 Q55.969 730.3 53.3301 731.18 L53.3301 727.013 Q55.9921 726.272 58.3069 725.902 Q60.6449 725.532 62.705 725.532 Q68.0291 725.532 71.1309 727.962 Q74.2327 730.37 74.2327 734.49 Q74.2327 737.36 72.5892 739.351 Q70.9457 741.319 67.9133 742.083 Z" fill="#000000" fill-rule="evenodd" fill-opacity="1" /><path clip-path="url(#clip040)" d="M93.9086 729.235 Q90.2975 729.235 88.4688 732.8 Q86.6632 736.342 86.6632 743.471 Q86.6632 750.578 88.4688 754.143 Q90.2975 757.684 93.9086 757.684 Q97.5428 757.684 99.3483 754.143 Q101.177 750.578 101.177 743.471 Q101.177 736.342 99.3483 732.8 Q97.5428 729.235 93.9086 729.235 M93.9086 725.532 Q99.7187 725.532 102.774 730.138 Q105.853 734.721 105.853 743.471 Q105.853 752.198 102.774 756.805 Q99.7187 761.388 93.9086 761.388 Q88.0984 761.388 85.0197 756.805 Q81.9642 752.198 81.9642 743.471 Q81.9642 734.721 85.0197 730.138 Q88.0984 725.532 93.9086 725.532 Z" fill="#000000" fill-rule="evenodd" fill-opacity="1" /><path clip-path="url(#clip040)" d="M66.5939 496.138 L54.7884 514.587 L66.5939 514.587 L66.5939 496.138 M65.367 492.064 L71.2466 492.064 L71.2466 514.587 L76.1772 514.587 L76.1772 518.476 L71.2466 518.476 L71.2466 526.624 L66.5939 526.624 L66.5939 518.476 L50.9921 518.476 L50.9921 513.962 L65.367 492.064 Z" fill="#000000" fill-rule="evenodd" fill-opacity="1" /><path clip-path="url(#clip040)" d="M93.9086 495.142 Q90.2975 495.142 88.4688 498.707 Q86.6632 502.249 86.6632 509.378 Q86.6632 516.485 88.4688 520.05 Q90.2975 523.591 93.9086 523.591 Q97.5428 523.591 99.3483 520.05 Q101.177 516.485 101.177 509.378 Q101.177 502.249 99.3483 498.707 Q97.5428 495.142 93.9086 495.142 M93.9086 491.439 Q99.7187 491.439 102.774 496.045 Q105.853 500.628 105.853 509.378 Q105.853 518.105 102.774 522.712 Q99.7187 527.295 93.9086 527.295 Q88.0984 527.295 85.0197 522.712 Q81.9642 518.105 81.9642 509.378 Q81.9642 500.628 85.0197 496.045 Q88.0984 491.439 93.9086 491.439 Z" fill="#000000" fill-rule="evenodd" fill-opacity="1" /><path clip-path="url(#clip040)" d="M53.793 257.971 L72.1494 257.971 L72.1494 261.906 L58.0754 261.906 L58.0754 270.378 Q59.0939 270.031 60.1124 269.869 Q61.131 269.684 62.1495 269.684 Q67.9365 269.684 71.3161 272.855 Q74.6957 276.026 74.6957 281.443 Q74.6957 287.021 71.2235 290.123 Q67.7513 293.202 61.4319 293.202 Q59.256 293.202 56.9875 292.832 Q54.7421 292.461 52.3347 291.72 L52.3347 287.021 Q54.418 288.156 56.6402 288.711 Q58.8625 289.267 61.3393 289.267 Q65.3439 289.267 67.6819 287.16 Q70.0198 285.054 70.0198 281.443 Q70.0198 277.832 67.6819 275.725 Q65.3439 273.619 61.3393 273.619 Q59.4643 273.619 57.5893 274.035 Q55.7375 274.452 53.793 275.332 L53.793 257.971 Z" fill="#000000" fill-rule="evenodd" fill-opacity="1" /><path clip-path="url(#clip040)" d="M93.9086 261.049 Q90.2975 261.049 88.4688 264.614 Q86.6632 268.156 86.6632 275.285 Q86.6632 282.392 88.4688 285.957 Q90.2975 289.498 93.9086 289.498 Q97.5428 289.498 99.3483 285.957 Q101.177 282.392 101.177 275.285 Q101.177 268.156 99.3483 264.614 Q97.5428 261.049 93.9086 261.049 M93.9086 257.346 Q99.7187 257.346 102.774 261.952 Q105.853 266.535 105.853 275.285 Q105.853 284.012 102.774 288.619 Q99.7187 293.202 93.9086 293.202 Q88.0984 293.202 85.0197 288.619 Q81.9642 284.012 81.9642 275.285 Q81.9642 266.535 85.0197 261.952 Q88.0984 257.346 93.9086 257.346 Z" fill="#000000" fill-rule="evenodd" fill-opacity="1" /><path clip-path="url(#clip042)" d="M628.199 87.9763 L628.199 1445.72 L858.71 1445.72 L858.71 87.9763 L628.199 87.9763 L628.199 87.9763  Z" fill="#009af9" fill-rule="evenodd" fill-opacity="1"/>
<polyline clip-path="url(#clip042)" style="stroke:#000000; stroke-linecap:round; stroke-linejoin:round; stroke-width:4; stroke-opacity:1; fill:none" points="628.199,87.9763 628.199,1445.72 858.71,1445.72 858.71,87.9763 628.199,87.9763 "/>
<path clip-path="url(#clip042)" d="M858.71 860.483 L858.71 1445.72 L1089.22 1445.72 L1089.22 860.483 L858.71 860.483 L858.71 860.483  Z" fill="#009af9" fill-rule="evenodd" fill-opacity="1"/>
<polyline clip-path="url(#clip042)" style="stroke:#000000; stroke-linecap:round; stroke-linejoin:round; stroke-width:4; stroke-opacity:1; fill:none" points="858.71,860.483 858.71,1445.72 1089.22,1445.72 1089.22,860.483 858.71,860.483 "/>
<path clip-path="url(#clip042)" d="M1089.22 1211.62 L1089.22 1445.72 L1319.73 1445.72 L1319.73 1211.62 L1089.22 1211.62 L1089.22 1211.62  Z" fill="#009af9" fill-rule="evenodd" fill-opacity="1"/>
<polyline clip-path="url(#clip042)" style="stroke:#000000; stroke-linecap:round; stroke-linejoin:round; stroke-width:4; stroke-opacity:1; fill:none" points="1089.22,1211.62 1089.22,1445.72 1319.73,1445.72 1319.73,1211.62 1089.22,1211.62 "/>
<path clip-path="url(#clip042)" d="M1319.73 1352.08 L1319.73 1445.72 L1550.24 1445.72 L1550.24 1352.08 L1319.73 1352.08 L1319.73 1352.08  Z" fill="#009af9" fill-rule="evenodd" fill-opacity="1"/>
<polyline clip-path="url(#clip042)" style="stroke:#000000; stroke-linecap:round; stroke-linejoin:round; stroke-width:4; stroke-opacity:1; fill:none" points="1319.73,1352.08 1319.73,1445.72 1550.24,1445.72 1550.24,1352.08 1319.73,1352.08 "/>
<path clip-path="url(#clip042)" d="M1550.24 1422.31 L1550.24 1445.72 L1780.75 1445.72 L1780.75 1422.31 L1550.24 1422.31 L1550.24 1422.31  Z" fill="#009af9" fill-rule="evenodd" fill-opacity="1"/>
<polyline clip-path="url(#clip042)" style="stroke:#000000; stroke-linecap:round; stroke-linejoin:round; stroke-width:4; stroke-opacity:1; fill:none" points="1550.24,1422.31 1550.24,1445.72 1780.75,1445.72 1780.75,1422.31 1550.24,1422.31 "/>
<path clip-path="url(#clip042)" d="M1780.75 1422.31 L1780.75 1445.72 L2011.26 1445.72 L2011.26 1422.31 L1780.75 1422.31 L1780.75 1422.31  Z" fill="#009af9" fill-rule="evenodd" fill-opacity="1"/>
<polyline clip-path="url(#clip042)" style="stroke:#000000; stroke-linecap:round; stroke-linejoin:round; stroke-width:4; stroke-opacity:1; fill:none" points="1780.75,1422.31 1780.75,1445.72 2011.26,1445.72 2011.26,1422.31 1780.75,1422.31 "/>
<path clip-path="url(#clip042)" d="M2011.26 1422.31 L2011.26 1445.72 L2241.78 1445.72 L2241.78 1422.31 L2011.26 1422.31 L2011.26 1422.31  Z" fill="#009af9" fill-rule="evenodd" fill-opacity="1"/>
<polyline clip-path="url(#clip042)" style="stroke:#000000; stroke-linecap:round; stroke-linejoin:round; stroke-width:4; stroke-opacity:1; fill:none" points="2011.26,1422.31 2011.26,1445.72 2241.78,1445.72 2241.78,1422.31 2011.26,1422.31 "/>
<circle clip-path="url(#clip042)" style="fill:#009af9; stroke:none; fill-opacity:0" cx="743.455" cy="87.9763" r="2"/>
<circle clip-path="url(#clip042)" style="fill:#009af9; stroke:none; fill-opacity:0" cx="973.966" cy="860.483" r="2"/>
<circle clip-path="url(#clip042)" style="fill:#009af9; stroke:none; fill-opacity:0" cx="1204.48" cy="1211.62" r="2"/>
<circle clip-path="url(#clip042)" style="fill:#009af9; stroke:none; fill-opacity:0" cx="1434.99" cy="1352.08" r="2"/>
<circle clip-path="url(#clip042)" style="fill:#009af9; stroke:none; fill-opacity:0" cx="1665.5" cy="1422.31" r="2"/>
<circle clip-path="url(#clip042)" style="fill:#009af9; stroke:none; fill-opacity:0" cx="1896.01" cy="1422.31" r="2"/>
<circle clip-path="url(#clip042)" style="fill:#009af9; stroke:none; fill-opacity:0" cx="2126.52" cy="1422.31" r="2"/>
<polyline clip-path="url(#clip042)" style="stroke:#e26f46; stroke-linecap:round; stroke-linejoin:round; stroke-width:8; stroke-opacity:1; fill:none" points="204.426,2925.65 204.426,-1391.96 "/>
<polyline clip-path="url(#clip042)" style="stroke:#e26f46; stroke-linecap:round; stroke-linejoin:round; stroke-width:8; stroke-opacity:1; fill:none" points="629.547,2925.65 629.547,-1391.96 "/>
<path clip-path="url(#clip040)" d="M1804.43 250.738 L2279.06 250.738 L2279.06 95.2176 L1804.43 95.2176  Z" fill="#ffffff" fill-rule="evenodd" fill-opacity="1"/>
<polyline clip-path="url(#clip040)" style="stroke:#000000; stroke-linecap:round; stroke-linejoin:round; stroke-width:4; stroke-opacity:1; fill:none" points="1804.43,250.738 2279.06,250.738 2279.06,95.2176 1804.43,95.2176 1804.43,250.738 "/>
<path clip-path="url(#clip040)" d="M1828.99 167.794 L1976.39 167.794 L1976.39 126.322 L1828.99 126.322 L1828.99 167.794  Z" fill="#009af9" fill-rule="evenodd" fill-opacity="1"/>
<polyline clip-path="url(#clip040)" style="stroke:#000000; stroke-linecap:round; stroke-linejoin:round; stroke-width:4; stroke-opacity:1; fill:none" points="1828.99,167.794 1976.39,167.794 1976.39,126.322 1828.99,126.322 1828.99,167.794 "/>
<path clip-path="url(#clip040)" d="M2028.82 132.44 L2028.82 137.37 Q2026.46 135.171 2023.78 134.083 Q2021.12 132.995 2018.11 132.995 Q2012.18 132.995 2009.03 136.629 Q2005.88 140.24 2005.88 147.092 Q2005.88 153.921 2009.03 157.555 Q2012.18 161.166 2018.11 161.166 Q2021.12 161.166 2023.78 160.078 Q2026.46 158.99 2028.82 156.791 L2028.82 161.676 Q2026.37 163.342 2023.62 164.176 Q2020.88 165.009 2017.83 165.009 Q2009.98 165.009 2005.47 160.217 Q2000.95 155.402 2000.95 147.092 Q2000.95 138.759 2005.47 133.967 Q2009.98 129.153 2017.83 129.153 Q2020.93 129.153 2023.66 129.986 Q2026.42 130.796 2028.82 132.44 Z" fill="#000000" fill-rule="evenodd" fill-opacity="1" /><path clip-path="url(#clip040)" d="M2045.91 141.398 Q2042.48 141.398 2040.49 144.083 Q2038.5 146.745 2038.5 151.398 Q2038.5 156.051 2040.47 158.736 Q2042.46 161.398 2045.91 161.398 Q2049.31 161.398 2051.3 158.713 Q2053.29 156.027 2053.29 151.398 Q2053.29 146.791 2051.3 144.106 Q2049.31 141.398 2045.91 141.398 M2045.91 137.787 Q2051.46 137.787 2054.63 141.398 Q2057.8 145.009 2057.8 151.398 Q2057.8 157.764 2054.63 161.398 Q2051.46 165.009 2045.91 165.009 Q2040.33 165.009 2037.16 161.398 Q2034.01 157.764 2034.01 151.398 Q2034.01 145.009 2037.16 141.398 Q2040.33 137.787 2045.91 137.787 Z" fill="#000000" fill-rule="evenodd" fill-opacity="1" /><path clip-path="url(#clip040)" d="M2086.42 148.689 L2086.42 164.338 L2082.16 164.338 L2082.16 148.828 Q2082.16 145.148 2080.72 143.319 Q2079.29 141.49 2076.42 141.49 Q2072.97 141.49 2070.98 143.69 Q2068.99 145.889 2068.99 149.685 L2068.99 164.338 L2064.7 164.338 L2064.7 138.412 L2068.99 138.412 L2068.99 142.44 Q2070.51 140.102 2072.57 138.944 Q2074.66 137.787 2077.36 137.787 Q2081.83 137.787 2084.12 140.565 Q2086.42 143.319 2086.42 148.689 Z" fill="#000000" fill-rule="evenodd" fill-opacity="1" /><path clip-path="url(#clip040)" d="M2099.12 131.051 L2099.12 138.412 L2107.9 138.412 L2107.9 141.722 L2099.12 141.722 L2099.12 155.796 Q2099.12 158.967 2099.98 159.87 Q2100.86 160.773 2103.52 160.773 L2107.9 160.773 L2107.9 164.338 L2103.52 164.338 Q2098.59 164.338 2096.72 162.509 Q2094.84 160.657 2094.84 155.796 L2094.84 141.722 L2091.72 141.722 L2091.72 138.412 L2094.84 138.412 L2094.84 131.051 L2099.12 131.051 Z" fill="#000000" fill-rule="evenodd" fill-opacity="1" /><path clip-path="url(#clip040)" d="M2113.5 138.412 L2117.76 138.412 L2117.76 164.338 L2113.5 164.338 L2113.5 138.412 M2113.5 128.319 L2117.76 128.319 L2117.76 133.713 L2113.5 133.713 L2113.5 128.319 Z" fill="#000000" fill-rule="evenodd" fill-opacity="1" /><path clip-path="url(#clip040)" d="M2148.22 148.689 L2148.22 164.338 L2143.96 164.338 L2143.96 148.828 Q2143.96 145.148 2142.53 143.319 Q2141.09 141.49 2138.22 141.49 Q2134.77 141.49 2132.78 143.69 Q2130.79 145.889 2130.79 149.685 L2130.79 164.338 L2126.51 164.338 L2126.51 138.412 L2130.79 138.412 L2130.79 142.44 Q2132.32 140.102 2134.38 138.944 Q2136.46 137.787 2139.17 137.787 Q2143.64 137.787 2145.93 140.565 Q2148.22 143.319 2148.22 148.689 Z" fill="#000000" fill-rule="evenodd" fill-opacity="1" /><path clip-path="url(#clip040)" d="M2156.28 154.106 L2156.28 138.412 L2160.54 138.412 L2160.54 153.944 Q2160.54 157.625 2161.97 159.476 Q2163.41 161.305 2166.28 161.305 Q2169.73 161.305 2171.72 159.106 Q2173.73 156.907 2173.73 153.111 L2173.73 138.412 L2177.99 138.412 L2177.99 164.338 L2173.73 164.338 L2173.73 160.356 Q2172.18 162.717 2170.12 163.875 Q2168.08 165.009 2165.37 165.009 Q2160.91 165.009 2158.59 162.231 Q2156.28 159.453 2156.28 154.106 M2166.99 137.787 L2166.99 137.787 Z" fill="#000000" fill-rule="evenodd" fill-opacity="1" /><path clip-path="url(#clip040)" d="M2186.32 154.106 L2186.32 138.412 L2190.58 138.412 L2190.58 153.944 Q2190.58 157.625 2192.02 159.476 Q2193.45 161.305 2196.32 161.305 Q2199.77 161.305 2201.76 159.106 Q2203.78 156.907 2203.78 153.111 L2203.78 138.412 L2208.04 138.412 L2208.04 164.338 L2203.78 164.338 L2203.78 160.356 Q2202.23 162.717 2200.17 163.875 Q2198.13 165.009 2195.42 165.009 Q2190.95 165.009 2188.64 162.231 Q2186.32 159.453 2186.32 154.106 M2197.04 137.787 L2197.04 137.787 Z" fill="#000000" fill-rule="evenodd" fill-opacity="1" /><path clip-path="url(#clip040)" d="M2236.99 143.389 Q2238.59 140.518 2240.81 139.153 Q2243.04 137.787 2246.04 137.787 Q2250.1 137.787 2252.29 140.634 Q2254.49 143.458 2254.49 148.689 L2254.49 164.338 L2250.21 164.338 L2250.21 148.828 Q2250.21 145.102 2248.89 143.296 Q2247.57 141.49 2244.86 141.49 Q2241.55 141.49 2239.63 143.69 Q2237.71 145.889 2237.71 149.685 L2237.71 164.338 L2233.43 164.338 L2233.43 148.828 Q2233.43 145.078 2232.11 143.296 Q2230.79 141.49 2228.04 141.49 Q2224.77 141.49 2222.85 143.713 Q2220.93 145.912 2220.93 149.685 L2220.93 164.338 L2216.65 164.338 L2216.65 138.412 L2220.93 138.412 L2220.93 142.44 Q2222.39 140.055 2224.42 138.921 Q2226.46 137.787 2229.26 137.787 Q2232.09 137.787 2234.05 139.222 Q2236.04 140.657 2236.99 143.389 Z" fill="#000000" fill-rule="evenodd" fill-opacity="1" /><polyline clip-path="url(#clip040)" style="stroke:#e26f46; stroke-linecap:round; stroke-linejoin:round; stroke-width:8; stroke-opacity:1; fill:none" points="1828.99,198.898 1976.39,198.898 "/>
<path clip-path="url(#clip040)" d="M2000.95 181.618 L2005.63 181.618 L2005.63 216.178 L2000.95 216.178 L2000.95 181.618 Z" fill="#000000" fill-rule="evenodd" fill-opacity="1" /><path clip-path="url(#clip040)" d="M2031.28 191.016 L2031.28 195.043 Q2029.47 194.117 2027.53 193.655 Q2025.58 193.192 2023.5 193.192 Q2020.33 193.192 2018.73 194.164 Q2017.16 195.136 2017.16 197.08 Q2017.16 198.562 2018.29 199.418 Q2019.43 200.252 2022.85 201.016 L2024.31 201.34 Q2028.85 202.312 2030.74 204.094 Q2032.67 205.854 2032.67 209.025 Q2032.67 212.636 2029.8 214.742 Q2026.95 216.849 2021.95 216.849 Q2019.87 216.849 2017.6 216.432 Q2015.35 216.039 2012.85 215.228 L2012.85 210.83 Q2015.21 212.057 2017.5 212.682 Q2019.8 213.284 2022.04 213.284 Q2025.05 213.284 2026.67 212.266 Q2028.29 211.224 2028.29 209.349 Q2028.29 207.613 2027.11 206.687 Q2025.95 205.761 2021.99 204.904 L2020.51 204.557 Q2016.56 203.724 2014.8 202.011 Q2013.04 200.275 2013.04 197.266 Q2013.04 193.608 2015.63 191.618 Q2018.22 189.627 2022.99 189.627 Q2025.35 189.627 2027.43 189.974 Q2029.52 190.321 2031.28 191.016 Z" fill="#000000" fill-rule="evenodd" fill-opacity="1" /><path clip-path="url(#clip040)" d="M2049.49 193.238 Q2046.07 193.238 2044.08 195.923 Q2042.09 198.585 2042.09 203.238 Q2042.09 207.891 2044.05 210.576 Q2046.05 213.238 2049.49 213.238 Q2052.9 213.238 2054.89 210.553 Q2056.88 207.867 2056.88 203.238 Q2056.88 198.631 2054.89 195.946 Q2052.9 193.238 2049.49 193.238 M2049.49 189.627 Q2055.05 189.627 2058.22 193.238 Q2061.39 196.849 2061.39 203.238 Q2061.39 209.604 2058.22 213.238 Q2055.05 216.849 2049.49 216.849 Q2043.92 216.849 2040.74 213.238 Q2037.6 209.604 2037.6 203.238 Q2037.6 196.849 2040.74 193.238 Q2043.92 189.627 2049.49 189.627 Z" fill="#000000" fill-rule="evenodd" fill-opacity="1" /><path clip-path="url(#clip040)" d="M2068.45 180.159 L2072.71 180.159 L2072.71 216.178 L2068.45 216.178 L2068.45 180.159 Z" fill="#000000" fill-rule="evenodd" fill-opacity="1" /><path clip-path="url(#clip040)" d="M2093.41 203.145 Q2088.24 203.145 2086.25 204.326 Q2084.26 205.506 2084.26 208.354 Q2084.26 210.622 2085.74 211.965 Q2087.25 213.284 2089.82 213.284 Q2093.36 213.284 2095.49 210.784 Q2097.64 208.261 2097.64 204.094 L2097.64 203.145 L2093.41 203.145 M2101.9 201.386 L2101.9 216.178 L2097.64 216.178 L2097.64 212.242 Q2096.18 214.603 2094.01 215.738 Q2091.83 216.849 2088.68 216.849 Q2084.7 216.849 2082.34 214.627 Q2080 212.381 2080 208.631 Q2080 204.256 2082.92 202.034 Q2085.86 199.812 2091.67 199.812 L2097.64 199.812 L2097.64 199.395 Q2097.64 196.455 2095.7 194.858 Q2093.78 193.238 2090.28 193.238 Q2088.06 193.238 2085.95 193.77 Q2083.85 194.303 2081.9 195.367 L2081.9 191.432 Q2084.24 190.53 2086.44 190.09 Q2088.64 189.627 2090.72 189.627 Q2096.35 189.627 2099.12 192.543 Q2101.9 195.46 2101.9 201.386 Z" fill="#000000" fill-rule="evenodd" fill-opacity="1" /><path clip-path="url(#clip040)" d="M2114.89 182.891 L2114.89 190.252 L2123.66 190.252 L2123.66 193.562 L2114.89 193.562 L2114.89 207.636 Q2114.89 210.807 2115.74 211.71 Q2116.62 212.613 2119.29 212.613 L2123.66 212.613 L2123.66 216.178 L2119.29 216.178 Q2114.36 216.178 2112.48 214.349 Q2110.61 212.497 2110.61 207.636 L2110.61 193.562 L2107.48 193.562 L2107.48 190.252 L2110.61 190.252 L2110.61 182.891 L2114.89 182.891 Z" fill="#000000" fill-rule="evenodd" fill-opacity="1" /><path clip-path="url(#clip040)" d="M2151.44 202.15 L2151.44 204.233 L2131.86 204.233 Q2132.13 208.631 2134.49 210.946 Q2136.88 213.238 2141.11 213.238 Q2143.57 213.238 2145.86 212.636 Q2148.17 212.034 2150.44 210.83 L2150.44 214.858 Q2148.15 215.83 2145.74 216.34 Q2143.34 216.849 2140.86 216.849 Q2134.66 216.849 2131.02 213.238 Q2127.41 209.627 2127.41 203.469 Q2127.41 197.104 2130.84 193.377 Q2134.29 189.627 2140.12 189.627 Q2145.35 189.627 2148.38 193.006 Q2151.44 196.363 2151.44 202.15 M2147.18 200.9 Q2147.13 197.405 2145.21 195.321 Q2143.31 193.238 2140.17 193.238 Q2136.6 193.238 2134.45 195.252 Q2132.32 197.266 2131.99 200.923 L2147.18 200.9 Z" fill="#000000" fill-rule="evenodd" fill-opacity="1" /><path clip-path="url(#clip040)" d="M2175.49 194.187 L2175.49 180.159 L2179.75 180.159 L2179.75 216.178 L2175.49 216.178 L2175.49 212.289 Q2174.15 214.603 2172.09 215.738 Q2170.05 216.849 2167.18 216.849 Q2162.48 216.849 2159.52 213.099 Q2156.58 209.349 2156.58 203.238 Q2156.58 197.127 2159.52 193.377 Q2162.48 189.627 2167.18 189.627 Q2170.05 189.627 2172.09 190.761 Q2174.15 191.872 2175.49 194.187 M2160.98 203.238 Q2160.98 207.937 2162.9 210.622 Q2164.84 213.284 2168.22 213.284 Q2171.6 213.284 2173.54 210.622 Q2175.49 207.937 2175.49 203.238 Q2175.49 198.539 2173.54 195.877 Q2171.6 193.192 2168.22 193.192 Q2164.84 193.192 2162.9 195.877 Q2160.98 198.539 2160.98 203.238 Z" fill="#000000" fill-rule="evenodd" fill-opacity="1" /></svg>
