<?xml version="1.0" encoding="utf-8"?>
<svg xmlns="http://www.w3.org/2000/svg" xmlns:xlink="http://www.w3.org/1999/xlink" width="600" height="400" viewBox="0 0 2400 1600">
<defs>
  <clipPath id="clip650">
    <rect x="0" y="0" width="2400" height="1600"/>
  </clipPath>
</defs>
<path clip-path="url(#clip650)" d="M0 1600 L2400 1600 L2400 0 L0 0  Z" fill="#ffffff" fill-rule="evenodd" fill-opacity="1"/>
<defs>
  <clipPath id="clip651">
    <rect x="480" y="0" width="1681" height="1600"/>
  </clipPath>
</defs>
<path clip-path="url(#clip650)" d="M219.866 1423.18 L2352.76 1423.18 L2352.76 47.2441 L219.866 47.2441  Z" fill="#ffffff" fill-rule="evenodd" fill-opacity="1"/>
<defs>
  <clipPath id="clip652">
    <rect x="219" y="47" width="2134" height="1377"/>
  </clipPath>
</defs>
<polyline clip-path="url(#clip652)" style="stroke:#000000; stroke-linecap:round; stroke-linejoin:round; stroke-width:2; stroke-opacity:0.1; fill:none" points="583.902,1423.18 583.902,47.2441 "/>
<polyline clip-path="url(#clip652)" style="stroke:#000000; stroke-linecap:round; stroke-linejoin:round; stroke-width:2; stroke-opacity:0.1; fill:none" points="995.932,1423.18 995.932,47.2441 "/>
<polyline clip-path="url(#clip652)" style="stroke:#000000; stroke-linecap:round; stroke-linejoin:round; stroke-width:2; stroke-opacity:0.1; fill:none" points="1407.96,1423.18 1407.96,47.2441 "/>
<polyline clip-path="url(#clip652)" style="stroke:#000000; stroke-linecap:round; stroke-linejoin:round; stroke-width:2; stroke-opacity:0.1; fill:none" points="1819.99,1423.18 1819.99,47.2441 "/>
<polyline clip-path="url(#clip652)" style="stroke:#000000; stroke-linecap:round; stroke-linejoin:round; stroke-width:2; stroke-opacity:0.1; fill:none" points="2232.02,1423.18 2232.02,47.2441 "/>
<polyline clip-path="url(#clip650)" style="stroke:#000000; stroke-linecap:round; stroke-linejoin:round; stroke-width:4; stroke-opacity:1; fill:none" points="219.866,1423.18 2352.76,1423.18 "/>
<polyline clip-path="url(#clip650)" style="stroke:#000000; stroke-linecap:round; stroke-linejoin:round; stroke-width:4; stroke-opacity:1; fill:none" points="583.902,1423.18 583.902,1404.28 "/>
<polyline clip-path="url(#clip650)" style="stroke:#000000; stroke-linecap:round; stroke-linejoin:round; stroke-width:4; stroke-opacity:1; fill:none" points="995.932,1423.18 995.932,1404.28 "/>
<polyline clip-path="url(#clip650)" style="stroke:#000000; stroke-linecap:round; stroke-linejoin:round; stroke-width:4; stroke-opacity:1; fill:none" points="1407.96,1423.18 1407.96,1404.28 "/>
<polyline clip-path="url(#clip650)" style="stroke:#000000; stroke-linecap:round; stroke-linejoin:round; stroke-width:4; stroke-opacity:1; fill:none" points="1819.99,1423.18 1819.99,1404.28 "/>
<polyline clip-path="url(#clip650)" style="stroke:#000000; stroke-linecap:round; stroke-linejoin:round; stroke-width:4; stroke-opacity:1; fill:none" points="2232.02,1423.18 2232.02,1404.28 "/>
<path clip-path="url(#clip650)" d="M546.206 1454.1 Q542.595 1454.1 540.766 1457.66 Q538.96 1461.2 538.96 1468.33 Q538.96 1475.44 540.766 1479.01 Q542.595 1482.55 546.206 1482.55 Q549.84 1482.55 551.645 1479.01 Q553.474 1475.44 553.474 1468.33 Q553.474 1461.2 551.645 1457.66 Q549.84 1454.1 546.206 1454.1 M546.206 1450.39 Q552.016 1450.39 555.071 1455 Q558.15 1459.58 558.15 1468.33 Q558.15 1477.06 555.071 1481.67 Q552.016 1486.25 546.206 1486.25 Q540.395 1486.25 537.317 1481.67 Q534.261 1477.06 534.261 1468.33 Q534.261 1459.58 537.317 1455 Q540.395 1450.39 546.206 1450.39 Z" fill="#000000" fill-rule="evenodd" fill-opacity="1" /><path clip-path="url(#clip650)" d="M566.368 1479.7 L571.252 1479.7 L571.252 1485.58 L566.368 1485.58 L566.368 1479.7 Z" fill="#000000" fill-rule="evenodd" fill-opacity="1" /><path clip-path="url(#clip650)" d="M591.437 1454.1 Q587.826 1454.1 585.997 1457.66 Q584.192 1461.2 584.192 1468.33 Q584.192 1475.44 585.997 1479.01 Q587.826 1482.55 591.437 1482.55 Q595.071 1482.55 596.877 1479.01 Q598.705 1475.44 598.705 1468.33 Q598.705 1461.2 596.877 1457.66 Q595.071 1454.1 591.437 1454.1 M591.437 1450.39 Q597.247 1450.39 600.303 1455 Q603.381 1459.58 603.381 1468.33 Q603.381 1477.06 600.303 1481.67 Q597.247 1486.25 591.437 1486.25 Q585.627 1486.25 582.548 1481.67 Q579.493 1477.06 579.493 1468.33 Q579.493 1459.58 582.548 1455 Q585.627 1450.39 591.437 1450.39 Z" fill="#000000" fill-rule="evenodd" fill-opacity="1" /><path clip-path="url(#clip650)" d="M621.599 1454.1 Q617.988 1454.1 616.159 1457.66 Q614.353 1461.2 614.353 1468.33 Q614.353 1475.44 616.159 1479.01 Q617.988 1482.55 621.599 1482.55 Q625.233 1482.55 627.039 1479.01 Q628.867 1475.44 628.867 1468.33 Q628.867 1461.2 627.039 1457.66 Q625.233 1454.1 621.599 1454.1 M621.599 1450.39 Q627.409 1450.39 630.464 1455 Q633.543 1459.58 633.543 1468.33 Q633.543 1477.06 630.464 1481.67 Q627.409 1486.25 621.599 1486.25 Q615.789 1486.25 612.71 1481.67 Q609.654 1477.06 609.654 1468.33 Q609.654 1459.58 612.71 1455 Q615.789 1450.39 621.599 1450.39 Z" fill="#000000" fill-rule="evenodd" fill-opacity="1" /><path clip-path="url(#clip650)" d="M958.733 1454.1 Q955.122 1454.1 953.293 1457.66 Q951.488 1461.2 951.488 1468.33 Q951.488 1475.44 953.293 1479.01 Q955.122 1482.55 958.733 1482.55 Q962.367 1482.55 964.173 1479.01 Q966.002 1475.44 966.002 1468.33 Q966.002 1461.2 964.173 1457.66 Q962.367 1454.1 958.733 1454.1 M958.733 1450.39 Q964.543 1450.39 967.599 1455 Q970.677 1459.58 970.677 1468.33 Q970.677 1477.06 967.599 1481.67 Q964.543 1486.25 958.733 1486.25 Q952.923 1486.25 949.844 1481.67 Q946.789 1477.06 946.789 1468.33 Q946.789 1459.58 949.844 1455 Q952.923 1450.39 958.733 1450.39 Z" fill="#000000" fill-rule="evenodd" fill-opacity="1" /><path clip-path="url(#clip650)" d="M978.895 1479.7 L983.779 1479.7 L983.779 1485.58 L978.895 1485.58 L978.895 1479.7 Z" fill="#000000" fill-rule="evenodd" fill-opacity="1" /><path clip-path="url(#clip650)" d="M997.992 1481.64 L1014.31 1481.64 L1014.31 1485.58 L992.367 1485.58 L992.367 1481.64 Q995.029 1478.89 999.613 1474.26 Q1004.22 1469.61 1005.4 1468.27 Q1007.64 1465.74 1008.52 1464.01 Q1009.43 1462.25 1009.43 1460.56 Q1009.43 1457.8 1007.48 1456.07 Q1005.56 1454.33 1002.46 1454.33 Q1000.26 1454.33 997.807 1455.09 Q995.376 1455.86 992.599 1457.41 L992.599 1452.69 Q995.423 1451.55 997.876 1450.97 Q1000.33 1450.39 1002.37 1450.39 Q1007.74 1450.39 1010.93 1453.08 Q1014.13 1455.77 1014.13 1460.26 Q1014.13 1462.39 1013.32 1464.31 Q1012.53 1466.2 1010.42 1468.8 Q1009.84 1469.47 1006.74 1472.69 Q1003.64 1475.88 997.992 1481.64 Z" fill="#000000" fill-rule="evenodd" fill-opacity="1" /><path clip-path="url(#clip650)" d="M1024.17 1451.02 L1042.53 1451.02 L1042.53 1454.96 L1028.45 1454.96 L1028.45 1463.43 Q1029.47 1463.08 1030.49 1462.92 Q1031.51 1462.73 1032.53 1462.73 Q1038.32 1462.73 1041.7 1465.9 Q1045.08 1469.08 1045.08 1474.49 Q1045.08 1480.07 1041.6 1483.17 Q1038.13 1486.25 1031.81 1486.25 Q1029.64 1486.25 1027.37 1485.88 Q1025.12 1485.51 1022.71 1484.77 L1022.71 1480.07 Q1024.8 1481.2 1027.02 1481.76 Q1029.24 1482.32 1031.72 1482.32 Q1035.72 1482.32 1038.06 1480.21 Q1040.4 1478.1 1040.4 1474.49 Q1040.4 1470.88 1038.06 1468.77 Q1035.72 1466.67 1031.72 1466.67 Q1029.84 1466.67 1027.97 1467.08 Q1026.12 1467.5 1024.17 1468.38 L1024.17 1451.02 Z" fill="#000000" fill-rule="evenodd" fill-opacity="1" /><path clip-path="url(#clip650)" d="M1370.27 1454.1 Q1366.65 1454.1 1364.83 1457.66 Q1363.02 1461.2 1363.02 1468.33 Q1363.02 1475.44 1364.83 1479.01 Q1366.65 1482.55 1370.27 1482.55 Q1373.9 1482.55 1375.7 1479.01 Q1377.53 1475.44 1377.53 1468.33 Q1377.53 1461.2 1375.7 1457.66 Q1373.9 1454.1 1370.27 1454.1 M1370.27 1450.39 Q1376.08 1450.39 1379.13 1455 Q1382.21 1459.58 1382.21 1468.33 Q1382.21 1477.06 1379.13 1481.67 Q1376.08 1486.25 1370.27 1486.25 Q1364.46 1486.25 1361.38 1481.67 Q1358.32 1477.06 1358.32 1468.33 Q1358.32 1459.58 1361.38 1455 Q1364.46 1450.39 1370.27 1450.39 Z" fill="#000000" fill-rule="evenodd" fill-opacity="1" /><path clip-path="url(#clip650)" d="M1390.43 1479.7 L1395.31 1479.7 L1395.31 1485.58 L1390.43 1485.58 L1390.43 1479.7 Z" fill="#000000" fill-rule="evenodd" fill-opacity="1" /><path clip-path="url(#clip650)" d="M1405.54 1451.02 L1423.9 1451.02 L1423.9 1454.96 L1409.83 1454.96 L1409.83 1463.43 Q1410.84 1463.08 1411.86 1462.92 Q1412.88 1462.73 1413.9 1462.73 Q1419.69 1462.73 1423.07 1465.9 Q1426.45 1469.08 1426.45 1474.49 Q1426.45 1480.07 1422.97 1483.17 Q1419.5 1486.25 1413.18 1486.25 Q1411.01 1486.25 1408.74 1485.88 Q1406.49 1485.51 1404.08 1484.77 L1404.08 1480.07 Q1406.17 1481.2 1408.39 1481.76 Q1410.61 1482.32 1413.09 1482.32 Q1417.09 1482.32 1419.43 1480.21 Q1421.77 1478.1 1421.77 1474.49 Q1421.77 1470.88 1419.43 1468.77 Q1417.09 1466.67 1413.09 1466.67 Q1411.21 1466.67 1409.34 1467.08 Q1407.49 1467.5 1405.54 1468.38 L1405.54 1451.02 Z" fill="#000000" fill-rule="evenodd" fill-opacity="1" /><path clip-path="url(#clip650)" d="M1445.66 1454.1 Q1442.05 1454.1 1440.22 1457.66 Q1438.41 1461.2 1438.41 1468.33 Q1438.41 1475.44 1440.22 1479.01 Q1442.05 1482.55 1445.66 1482.55 Q1449.29 1482.55 1451.1 1479.01 Q1452.93 1475.44 1452.93 1468.33 Q1452.93 1461.2 1451.1 1457.66 Q1449.29 1454.1 1445.66 1454.1 M1445.66 1450.39 Q1451.47 1450.39 1454.52 1455 Q1457.6 1459.58 1457.6 1468.33 Q1457.6 1477.06 1454.52 1481.67 Q1451.47 1486.25 1445.66 1486.25 Q1439.85 1486.25 1436.77 1481.67 Q1433.71 1477.06 1433.71 1468.33 Q1433.71 1459.58 1436.77 1455 Q1439.85 1450.39 1445.66 1450.39 Z" fill="#000000" fill-rule="evenodd" fill-opacity="1" /><path clip-path="url(#clip650)" d="M1782.79 1454.1 Q1779.18 1454.1 1777.35 1457.66 Q1775.55 1461.2 1775.55 1468.33 Q1775.55 1475.44 1777.35 1479.01 Q1779.18 1482.55 1782.79 1482.55 Q1786.43 1482.55 1788.23 1479.01 Q1790.06 1475.44 1790.06 1468.33 Q1790.06 1461.2 1788.23 1457.66 Q1786.43 1454.1 1782.79 1454.1 M1782.79 1450.39 Q1788.6 1450.39 1791.66 1455 Q1794.74 1459.58 1794.74 1468.33 Q1794.74 1477.06 1791.66 1481.67 Q1788.6 1486.25 1782.79 1486.25 Q1776.98 1486.25 1773.9 1481.67 Q1770.85 1477.06 1770.85 1468.33 Q1770.85 1459.58 1773.9 1455 Q1776.98 1450.39 1782.79 1450.39 Z" fill="#000000" fill-rule="evenodd" fill-opacity="1" /><path clip-path="url(#clip650)" d="M1802.95 1479.7 L1807.84 1479.7 L1807.84 1485.58 L1802.95 1485.58 L1802.95 1479.7 Z" fill="#000000" fill-rule="evenodd" fill-opacity="1" /><path clip-path="url(#clip650)" d="M1816.84 1451.02 L1839.07 1451.02 L1839.07 1453.01 L1826.52 1485.58 L1821.64 1485.58 L1833.44 1454.96 L1816.84 1454.96 L1816.84 1451.02 Z" fill="#000000" fill-rule="evenodd" fill-opacity="1" /><path clip-path="url(#clip650)" d="M1848.23 1451.02 L1866.59 1451.02 L1866.59 1454.96 L1852.51 1454.96 L1852.51 1463.43 Q1853.53 1463.08 1854.55 1462.92 Q1855.57 1462.73 1856.59 1462.73 Q1862.38 1462.73 1865.76 1465.9 Q1869.13 1469.08 1869.13 1474.49 Q1869.13 1480.07 1865.66 1483.17 Q1862.19 1486.25 1855.87 1486.25 Q1853.7 1486.25 1851.43 1485.88 Q1849.18 1485.51 1846.77 1484.77 L1846.77 1480.07 Q1848.86 1481.2 1851.08 1481.76 Q1853.3 1482.32 1855.78 1482.32 Q1859.78 1482.32 1862.12 1480.21 Q1864.46 1478.1 1864.46 1474.49 Q1864.46 1470.88 1862.12 1468.77 Q1859.78 1466.67 1855.78 1466.67 Q1853.9 1466.67 1852.03 1467.08 Q1850.18 1467.5 1848.23 1468.38 L1848.23 1451.02 Z" fill="#000000" fill-rule="evenodd" fill-opacity="1" /><path clip-path="url(#clip650)" d="M2184.09 1481.64 L2191.73 1481.64 L2191.73 1455.28 L2183.42 1456.95 L2183.42 1452.69 L2191.69 1451.02 L2196.36 1451.02 L2196.36 1481.64 L2204 1481.64 L2204 1485.58 L2184.09 1485.58 L2184.09 1481.64 Z" fill="#000000" fill-rule="evenodd" fill-opacity="1" /><path clip-path="url(#clip650)" d="M2213.45 1479.7 L2218.33 1479.7 L2218.33 1485.58 L2213.45 1485.58 L2213.45 1479.7 Z" fill="#000000" fill-rule="evenodd" fill-opacity="1" /><path clip-path="url(#clip650)" d="M2238.51 1454.1 Q2234.9 1454.1 2233.07 1457.66 Q2231.27 1461.2 2231.27 1468.33 Q2231.27 1475.44 2233.07 1479.01 Q2234.9 1482.55 2238.51 1482.55 Q2242.15 1482.55 2243.95 1479.01 Q2245.78 1475.44 2245.78 1468.33 Q2245.78 1461.2 2243.95 1457.66 Q2242.15 1454.1 2238.51 1454.1 M2238.51 1450.39 Q2244.32 1450.39 2247.38 1455 Q2250.46 1459.58 2250.46 1468.33 Q2250.46 1477.06 2247.38 1481.67 Q2244.32 1486.25 2238.51 1486.25 Q2232.7 1486.25 2229.63 1481.67 Q2226.57 1477.06 2226.57 1468.33 Q2226.57 1459.58 2229.63 1455 Q2232.7 1450.39 2238.51 1450.39 Z" fill="#000000" fill-rule="evenodd" fill-opacity="1" /><path clip-path="url(#clip650)" d="M2268.68 1454.1 Q2265.07 1454.1 2263.24 1457.66 Q2261.43 1461.2 2261.43 1468.33 Q2261.43 1475.44 2263.24 1479.01 Q2265.07 1482.55 2268.68 1482.55 Q2272.31 1482.55 2274.12 1479.01 Q2275.94 1475.44 2275.94 1468.33 Q2275.94 1461.2 2274.12 1457.66 Q2272.31 1454.1 2268.68 1454.1 M2268.68 1450.39 Q2274.49 1450.39 2277.54 1455 Q2280.62 1459.58 2280.62 1468.33 Q2280.62 1477.06 2277.54 1481.67 Q2274.49 1486.25 2268.68 1486.25 Q2262.87 1486.25 2259.79 1481.67 Q2256.73 1477.06 2256.73 1468.33 Q2256.73 1459.58 2259.79 1455 Q2262.87 1450.39 2268.68 1450.39 Z" fill="#000000" fill-rule="evenodd" fill-opacity="1" /><path clip-path="url(#clip650)" d="M1271 1520.52 L1301.05 1520.52 L1301.05 1525.93 L1277.43 1525.93 L1277.43 1540 L1300.06 1540 L1300.06 1545.41 L1277.43 1545.41 L1277.43 1562.63 L1301.62 1562.63 L1301.62 1568.04 L1271 1568.04 L1271 1520.52 Z" fill="#000000" fill-rule="evenodd" fill-opacity="1" /><polyline clip-path="url(#clip652)" style="stroke:#000000; stroke-linecap:round; stroke-linejoin:round; stroke-width:2; stroke-opacity:0.1; fill:none" points="219.866,1384.24 2352.76,1384.24 "/>
<polyline clip-path="url(#clip652)" style="stroke:#000000; stroke-linecap:round; stroke-linejoin:round; stroke-width:2; stroke-opacity:0.1; fill:none" points="219.866,1087.23 2352.76,1087.23 "/>
<polyline clip-path="url(#clip652)" style="stroke:#000000; stroke-linecap:round; stroke-linejoin:round; stroke-width:2; stroke-opacity:0.1; fill:none" points="219.866,790.23 2352.76,790.23 "/>
<polyline clip-path="url(#clip652)" style="stroke:#000000; stroke-linecap:round; stroke-linejoin:round; stroke-width:2; stroke-opacity:0.1; fill:none" points="219.866,493.225 2352.76,493.225 "/>
<polyline clip-path="url(#clip652)" style="stroke:#000000; stroke-linecap:round; stroke-linejoin:round; stroke-width:2; stroke-opacity:0.1; fill:none" points="219.866,196.221 2352.76,196.221 "/>
<polyline clip-path="url(#clip650)" style="stroke:#000000; stroke-linecap:round; stroke-linejoin:round; stroke-width:4; stroke-opacity:1; fill:none" points="219.866,1423.18 219.866,47.2441 "/>
<polyline clip-path="url(#clip650)" style="stroke:#000000; stroke-linecap:round; stroke-linejoin:round; stroke-width:4; stroke-opacity:1; fill:none" points="219.866,1384.24 238.764,1384.24 "/>
<polyline clip-path="url(#clip650)" style="stroke:#000000; stroke-linecap:round; stroke-linejoin:round; stroke-width:4; stroke-opacity:1; fill:none" points="219.866,1087.23 238.764,1087.23 "/>
<polyline clip-path="url(#clip650)" style="stroke:#000000; stroke-linecap:round; stroke-linejoin:round; stroke-width:4; stroke-opacity:1; fill:none" points="219.866,790.23 238.764,790.23 "/>
<polyline clip-path="url(#clip650)" style="stroke:#000000; stroke-linecap:round; stroke-linejoin:round; stroke-width:4; stroke-opacity:1; fill:none" points="219.866,493.225 238.764,493.225 "/>
<polyline clip-path="url(#clip650)" style="stroke:#000000; stroke-linecap:round; stroke-linejoin:round; stroke-width:4; stroke-opacity:1; fill:none" points="219.866,196.221 238.764,196.221 "/>
<path clip-path="url(#clip650)" d="M126.691 1370.04 Q123.08 1370.04 121.251 1373.6 Q119.445 1377.14 119.445 1384.27 Q119.445 1391.38 121.251 1394.94 Q123.08 1398.49 126.691 1398.49 Q130.325 1398.49 132.13 1394.94 Q133.959 1391.38 133.959 1384.27 Q133.959 1377.14 132.13 1373.6 Q130.325 1370.04 126.691 1370.04 M126.691 1366.33 Q132.501 1366.33 135.556 1370.94 Q138.635 1375.52 138.635 1384.27 Q138.635 1393 135.556 1397.61 Q132.501 1402.19 126.691 1402.19 Q120.88 1402.19 117.802 1397.61 Q114.746 1393 114.746 1384.27 Q114.746 1375.52 117.802 1370.94 Q120.88 1366.33 126.691 1366.33 Z" fill="#000000" fill-rule="evenodd" fill-opacity="1" /><path clip-path="url(#clip650)" d="M146.853 1395.64 L151.737 1395.64 L151.737 1401.52 L146.853 1401.52 L146.853 1395.64 Z" fill="#000000" fill-rule="evenodd" fill-opacity="1" /><path clip-path="url(#clip650)" d="M171.922 1370.04 Q168.311 1370.04 166.482 1373.6 Q164.677 1377.14 164.677 1384.27 Q164.677 1391.38 166.482 1394.94 Q168.311 1398.49 171.922 1398.49 Q175.556 1398.49 177.362 1394.94 Q179.19 1391.38 179.19 1384.27 Q179.19 1377.14 177.362 1373.6 Q175.556 1370.04 171.922 1370.04 M171.922 1366.33 Q177.732 1366.33 180.788 1370.94 Q183.866 1375.52 183.866 1384.27 Q183.866 1393 180.788 1397.61 Q177.732 1402.19 171.922 1402.19 Q166.112 1402.19 163.033 1397.61 Q159.978 1393 159.978 1384.27 Q159.978 1375.52 163.033 1370.94 Q166.112 1366.33 171.922 1366.33 Z" fill="#000000" fill-rule="evenodd" fill-opacity="1" /><path clip-path="url(#clip650)" d="M128.288 1073.03 Q124.677 1073.03 122.848 1076.6 Q121.043 1080.14 121.043 1087.27 Q121.043 1094.38 122.848 1097.94 Q124.677 1101.48 128.288 1101.48 Q131.922 1101.48 133.728 1097.94 Q135.556 1094.38 135.556 1087.27 Q135.556 1080.14 133.728 1076.6 Q131.922 1073.03 128.288 1073.03 M128.288 1069.33 Q134.098 1069.33 137.154 1073.94 Q140.232 1078.52 140.232 1087.27 Q140.232 1096 137.154 1100.6 Q134.098 1105.19 128.288 1105.19 Q122.478 1105.19 119.399 1100.6 Q116.343 1096 116.343 1087.27 Q116.343 1078.52 119.399 1073.94 Q122.478 1069.33 128.288 1069.33 Z" fill="#000000" fill-rule="evenodd" fill-opacity="1" /><path clip-path="url(#clip650)" d="M148.45 1098.63 L153.334 1098.63 L153.334 1104.51 L148.45 1104.51 L148.45 1098.63 Z" fill="#000000" fill-rule="evenodd" fill-opacity="1" /><path clip-path="url(#clip650)" d="M167.547 1100.58 L183.866 1100.58 L183.866 1104.51 L161.922 1104.51 L161.922 1100.58 Q164.584 1097.82 169.167 1093.19 Q173.774 1088.54 174.954 1087.2 Q177.2 1084.68 178.079 1082.94 Q178.982 1081.18 178.982 1079.49 Q178.982 1076.74 177.038 1075 Q175.116 1073.26 172.014 1073.26 Q169.815 1073.26 167.362 1074.03 Q164.931 1074.79 162.153 1076.34 L162.153 1071.62 Q164.977 1070.49 167.431 1069.91 Q169.885 1069.33 171.922 1069.33 Q177.292 1069.33 180.487 1072.01 Q183.681 1074.7 183.681 1079.19 Q183.681 1081.32 182.871 1083.24 Q182.084 1085.14 179.977 1087.73 Q179.399 1088.4 176.297 1091.62 Q173.195 1094.81 167.547 1100.58 Z" fill="#000000" fill-rule="evenodd" fill-opacity="1" /><path clip-path="url(#clip650)" d="M126.205 776.028 Q122.593 776.028 120.765 779.593 Q118.959 783.135 118.959 790.264 Q118.959 797.371 120.765 800.936 Q122.593 804.477 126.205 804.477 Q129.839 804.477 131.644 800.936 Q133.473 797.371 133.473 790.264 Q133.473 783.135 131.644 779.593 Q129.839 776.028 126.205 776.028 M126.205 772.325 Q132.015 772.325 135.07 776.931 Q138.149 781.514 138.149 790.264 Q138.149 798.991 135.07 803.598 Q132.015 808.181 126.205 808.181 Q120.394 808.181 117.316 803.598 Q114.26 798.991 114.26 790.264 Q114.26 781.514 117.316 776.931 Q120.394 772.325 126.205 772.325 Z" fill="#000000" fill-rule="evenodd" fill-opacity="1" /><path clip-path="url(#clip650)" d="M146.366 801.63 L151.251 801.63 L151.251 807.51 L146.366 807.51 L146.366 801.63 Z" fill="#000000" fill-rule="evenodd" fill-opacity="1" /><path clip-path="url(#clip650)" d="M174.283 777.024 L162.477 795.473 L174.283 795.473 L174.283 777.024 M173.056 772.95 L178.936 772.95 L178.936 795.473 L183.866 795.473 L183.866 799.361 L178.936 799.361 L178.936 807.51 L174.283 807.51 L174.283 799.361 L158.681 799.361 L158.681 794.848 L173.056 772.95 Z" fill="#000000" fill-rule="evenodd" fill-opacity="1" /><path clip-path="url(#clip650)" d="M126.529 479.024 Q122.918 479.024 121.089 482.589 Q119.283 486.13 119.283 493.26 Q119.283 500.366 121.089 503.931 Q122.918 507.473 126.529 507.473 Q130.163 507.473 131.968 503.931 Q133.797 500.366 133.797 493.26 Q133.797 486.13 131.968 482.589 Q130.163 479.024 126.529 479.024 M126.529 475.32 Q132.339 475.32 135.394 479.927 Q138.473 484.51 138.473 493.26 Q138.473 501.987 135.394 506.593 Q132.339 511.177 126.529 511.177 Q120.718 511.177 117.64 506.593 Q114.584 501.987 114.584 493.26 Q114.584 484.51 117.64 479.927 Q120.718 475.32 126.529 475.32 Z" fill="#000000" fill-rule="evenodd" fill-opacity="1" /><path clip-path="url(#clip650)" d="M146.691 504.626 L151.575 504.626 L151.575 510.505 L146.691 510.505 L146.691 504.626 Z" fill="#000000" fill-rule="evenodd" fill-opacity="1" /><path clip-path="url(#clip650)" d="M172.339 491.362 Q169.19 491.362 167.339 493.515 Q165.51 495.667 165.51 499.417 Q165.51 503.144 167.339 505.32 Q169.19 507.473 172.339 507.473 Q175.487 507.473 177.315 505.32 Q179.167 503.144 179.167 499.417 Q179.167 495.667 177.315 493.515 Q175.487 491.362 172.339 491.362 M181.621 476.709 L181.621 480.968 Q179.862 480.135 178.056 479.695 Q176.274 479.255 174.514 479.255 Q169.885 479.255 167.431 482.38 Q165.001 485.505 164.653 491.825 Q166.019 489.811 168.079 488.746 Q170.139 487.658 172.616 487.658 Q177.825 487.658 180.834 490.829 Q183.866 493.978 183.866 499.417 Q183.866 504.741 180.718 507.959 Q177.57 511.177 172.339 511.177 Q166.343 511.177 163.172 506.593 Q160.001 501.987 160.001 493.26 Q160.001 485.066 163.89 480.204 Q167.778 475.32 174.329 475.32 Q176.089 475.32 177.871 475.667 Q179.676 476.015 181.621 476.709 Z" fill="#000000" fill-rule="evenodd" fill-opacity="1" /><path clip-path="url(#clip650)" d="M126.783 182.02 Q123.172 182.02 121.343 185.584 Q119.538 189.126 119.538 196.256 Q119.538 203.362 121.343 206.927 Q123.172 210.468 126.783 210.468 Q130.417 210.468 132.223 206.927 Q134.052 203.362 134.052 196.256 Q134.052 189.126 132.223 185.584 Q130.417 182.02 126.783 182.02 M126.783 178.316 Q132.593 178.316 135.649 182.922 Q138.728 187.506 138.728 196.256 Q138.728 204.982 135.649 209.589 Q132.593 214.172 126.783 214.172 Q120.973 214.172 117.894 209.589 Q114.839 204.982 114.839 196.256 Q114.839 187.506 117.894 182.922 Q120.973 178.316 126.783 178.316 Z" fill="#000000" fill-rule="evenodd" fill-opacity="1" /><path clip-path="url(#clip650)" d="M146.945 207.621 L151.829 207.621 L151.829 213.501 L146.945 213.501 L146.945 207.621 Z" fill="#000000" fill-rule="evenodd" fill-opacity="1" /><path clip-path="url(#clip650)" d="M172.014 197.089 Q168.681 197.089 166.76 198.871 Q164.862 200.654 164.862 203.779 Q164.862 206.904 166.76 208.686 Q168.681 210.468 172.014 210.468 Q175.348 210.468 177.269 208.686 Q179.19 206.881 179.19 203.779 Q179.19 200.654 177.269 198.871 Q175.371 197.089 172.014 197.089 M167.339 195.098 Q164.329 194.357 162.64 192.297 Q160.973 190.237 160.973 187.274 Q160.973 183.131 163.913 180.723 Q166.876 178.316 172.014 178.316 Q177.176 178.316 180.116 180.723 Q183.056 183.131 183.056 187.274 Q183.056 190.237 181.366 192.297 Q179.7 194.357 176.714 195.098 Q180.093 195.885 181.968 198.177 Q183.866 200.469 183.866 203.779 Q183.866 208.802 180.788 211.487 Q177.732 214.172 172.014 214.172 Q166.297 214.172 163.218 211.487 Q160.163 208.802 160.163 203.779 Q160.163 200.469 162.061 198.177 Q163.959 195.885 167.339 195.098 M165.626 187.714 Q165.626 190.399 167.292 191.904 Q168.982 193.408 172.014 193.408 Q175.024 193.408 176.714 191.904 Q178.426 190.399 178.426 187.714 Q178.426 185.029 176.714 183.524 Q175.024 182.02 172.014 182.02 Q168.982 182.02 167.292 183.524 Q165.626 185.029 165.626 187.714 Z" fill="#000000" fill-rule="evenodd" fill-opacity="1" /><path clip-path="url(#clip650)" d="M20.8447 951.36 Q20.8447 958.362 26.0645 962.5 Q31.2844 966.605 40.2919 966.605 Q49.2675 966.605 54.4874 962.5 Q59.7073 958.362 59.7073 951.36 Q59.7073 944.357 54.4874 940.283 Q49.2675 936.177 40.2919 936.177 Q31.2844 936.177 26.0645 940.283 Q20.8447 944.357 20.8447 951.36 M15.6248 951.36 Q15.6248 941.365 22.3406 935.382 Q29.0246 929.398 40.2919 929.398 Q51.5274 929.398 58.2432 935.382 Q64.9272 941.365 64.9272 951.36 Q64.9272 961.386 58.2432 967.401 Q51.5592 973.385 40.2919 973.385 Q29.0246 973.385 22.3406 967.401 Q15.6248 961.386 15.6248 951.36 Z" fill="#000000" fill-rule="evenodd" fill-opacity="1" /><path clip-path="url(#clip650)" d="M28.3562 923.796 L28.3562 917.589 L58.275 906.449 L28.3562 895.309 L28.3562 889.103 L64.0042 902.471 L64.0042 910.428 L28.3562 923.796 Z" fill="#000000" fill-rule="evenodd" fill-opacity="1" /><path clip-path="url(#clip650)" d="M44.7161 850.527 L47.5806 850.527 L47.5806 877.454 Q53.6281 877.072 56.8109 873.825 Q59.9619 870.547 59.9619 864.722 Q59.9619 861.348 59.1344 858.197 Q58.3069 855.015 56.6518 851.895 L62.1899 851.895 Q63.5267 855.046 64.227 858.357 Q64.9272 861.667 64.9272 865.072 Q64.9272 873.602 59.9619 878.6 Q54.9967 883.565 46.5303 883.565 Q37.7774 883.565 32.6531 878.854 Q27.4968 874.112 27.4968 866.091 Q27.4968 858.898 32.1438 854.728 Q36.7589 850.527 44.7161 850.527 M42.9973 856.383 Q38.1912 856.447 35.3266 859.089 Q32.4621 861.699 32.4621 866.027 Q32.4621 870.929 35.2312 873.889 Q38.0002 876.817 43.0292 877.263 L42.9973 856.383 Z" fill="#000000" fill-rule="evenodd" fill-opacity="1" /><path clip-path="url(#clip650)" d="M33.8307 820.258 Q33.2578 821.244 33.0032 822.422 Q32.7167 823.568 32.7167 824.968 Q32.7167 829.934 35.9632 832.607 Q39.1779 835.249 45.2253 835.249 L64.0042 835.249 L64.0042 841.137 L28.3562 841.137 L28.3562 835.249 L33.8944 835.249 Q30.6479 833.403 29.0883 830.443 Q27.4968 827.483 27.4968 823.25 Q27.4968 822.645 27.5923 821.913 Q27.656 821.181 27.8151 820.29 L33.8307 820.258 Z" fill="#000000" fill-rule="evenodd" fill-opacity="1" /><path clip-path="url(#clip650)" d="M14.479 814.115 L14.479 808.258 L64.0042 808.258 L64.0042 814.115 L14.479 814.115 Z" fill="#000000" fill-rule="evenodd" fill-opacity="1" /><path clip-path="url(#clip650)" d="M46.0847 779.804 Q46.0847 786.902 47.7079 789.639 Q49.3312 792.376 53.2461 792.376 Q56.3653 792.376 58.2114 790.339 Q60.0256 788.27 60.0256 784.737 Q60.0256 779.867 56.5881 776.939 Q53.1188 773.979 47.3897 773.979 L46.0847 773.979 L46.0847 779.804 M43.6657 768.123 L64.0042 768.123 L64.0042 773.979 L58.5933 773.979 Q61.8398 775.984 63.3994 778.976 Q64.9272 781.968 64.9272 786.297 Q64.9272 791.771 61.8716 795.018 Q58.7843 798.232 53.6281 798.232 Q47.6125 798.232 44.5569 794.222 Q41.5014 790.18 41.5014 782.191 L41.5014 773.979 L40.9285 773.979 Q36.8862 773.979 34.6901 776.653 Q32.4621 779.294 32.4621 784.101 Q32.4621 787.156 33.1941 790.053 Q33.9262 792.949 35.3903 795.623 L29.9795 795.623 Q28.7381 792.408 28.1334 789.384 Q27.4968 786.36 27.4968 783.496 Q27.4968 775.762 31.5072 771.942 Q35.5176 768.123 43.6657 768.123 Z" fill="#000000" fill-rule="evenodd" fill-opacity="1" /><path clip-path="url(#clip650)" d="M58.657 750.394 L77.5631 750.394 L77.5631 756.282 L28.3562 756.282 L28.3562 750.394 L33.7671 750.394 Q30.5842 748.548 29.0564 745.747 Q27.4968 742.914 27.4968 739 Q27.4968 732.507 32.6531 728.464 Q37.8093 724.39 46.212 724.39 Q54.6147 724.39 59.771 728.464 Q64.9272 732.507 64.9272 739 Q64.9272 742.914 63.3994 745.747 Q61.8398 748.548 58.657 750.394 M46.212 730.47 Q39.7508 730.47 36.0905 733.143 Q32.3984 735.785 32.3984 740.432 Q32.3984 745.079 36.0905 747.752 Q39.7508 750.394 46.212 750.394 Q52.6732 750.394 56.3653 747.752 Q60.0256 745.079 60.0256 740.432 Q60.0256 735.785 56.3653 733.143 Q52.6732 730.47 46.212 730.47 Z" fill="#000000" fill-rule="evenodd" fill-opacity="1" /><path clip-path="url(#clip650)" d="M28.3562 697.368 L28.3562 691.511 L56.1743 684.191 L28.3562 676.902 L28.3562 669.995 L56.1743 662.675 L28.3562 655.386 L28.3562 649.53 L64.0042 658.855 L64.0042 665.762 L34.7856 673.433 L64.0042 681.135 L64.0042 688.042 L28.3562 697.368 Z" fill="#000000" fill-rule="evenodd" fill-opacity="1" /><path clip-path="url(#clip650)" d="M28.3562 640.649 L28.3562 634.793 L64.0042 634.793 L64.0042 640.649 L28.3562 640.649 M14.479 640.649 L14.479 634.793 L21.895 634.793 L21.895 640.649 L14.479 640.649 Z" fill="#000000" fill-rule="evenodd" fill-opacity="1" /><path clip-path="url(#clip650)" d="M18.2347 616.746 L28.3562 616.746 L28.3562 604.683 L32.9077 604.683 L32.9077 616.746 L52.2594 616.746 Q56.6199 616.746 57.8613 615.569 Q59.1026 614.359 59.1026 610.699 L59.1026 604.683 L64.0042 604.683 L64.0042 610.699 Q64.0042 617.478 61.4897 620.056 Q58.9434 622.634 52.2594 622.634 L32.9077 622.634 L32.9077 626.931 L28.3562 626.931 L28.3562 622.634 L18.2347 622.634 L18.2347 616.746 Z" fill="#000000" fill-rule="evenodd" fill-opacity="1" /><path clip-path="url(#clip650)" d="M42.4881 567.348 L64.0042 567.348 L64.0042 573.205 L42.679 573.205 Q37.6183 573.205 35.1038 575.178 Q32.5894 577.151 32.5894 581.098 Q32.5894 585.841 35.6131 588.578 Q38.6368 591.315 43.8567 591.315 L64.0042 591.315 L64.0042 597.203 L14.479 597.203 L14.479 591.315 L33.8944 591.315 Q30.6797 589.214 29.0883 586.382 Q27.4968 583.517 27.4968 579.793 Q27.4968 573.65 31.3163 570.499 Q35.1038 567.348 42.4881 567.348 Z" fill="#000000" fill-rule="evenodd" fill-opacity="1" /><path clip-path="url(#clip650)" d="M22.818 518.81 L46.4666 527.531 L46.4666 510.057 L22.818 518.81 M16.4842 522.438 L16.4842 515.149 L64.0042 497.039 L64.0042 503.723 L51.8138 508.052 L51.8138 529.472 L64.0042 533.801 L64.0042 540.58 L16.4842 522.438 Z" fill="#000000" fill-rule="evenodd" fill-opacity="1" /><path clip-path="url(#clip652)" d="M337.179 86.1857 L337.179 1384.24 L350.365 1384.24 L350.365 86.1857 L337.179 86.1857 L337.179 86.1857  Z" fill="#009af9" fill-rule="evenodd" fill-opacity="1"/>
<polyline clip-path="url(#clip652)" style="stroke:#000000; stroke-linecap:round; stroke-linejoin:round; stroke-width:4; stroke-opacity:1; fill:none" points="337.179,86.1857 337.179,1384.24 350.365,1384.24 350.365,86.1857 337.179,86.1857 "/>
<path clip-path="url(#clip652)" d="M586.112 1330.99 L586.112 1384.24 L599.298 1384.24 L599.298 1330.99 L586.112 1330.99 L586.112 1330.99  Z" fill="#009af9" fill-rule="evenodd" fill-opacity="1"/>
<polyline clip-path="url(#clip652)" style="stroke:#000000; stroke-linecap:round; stroke-linejoin:round; stroke-width:4; stroke-opacity:1; fill:none" points="586.112,1330.99 586.112,1384.24 599.298,1384.24 599.298,1330.99 586.112,1330.99 "/>
<path clip-path="url(#clip652)" d="M603.003 1316.43 L603.003 1384.24 L616.189 1384.24 L616.189 1316.43 L603.003 1316.43 L603.003 1316.43  Z" fill="#009af9" fill-rule="evenodd" fill-opacity="1"/>
<polyline clip-path="url(#clip652)" style="stroke:#000000; stroke-linecap:round; stroke-linejoin:round; stroke-width:4; stroke-opacity:1; fill:none" points="603.003,1316.43 603.003,1384.24 616.189,1384.24 616.189,1316.43 603.003,1316.43 "/>
<path clip-path="url(#clip652)" d="M619.724 1310.16 L619.724 1384.24 L632.911 1384.24 L632.911 1310.16 L619.724 1310.16 L619.724 1310.16  Z" fill="#009af9" fill-rule="evenodd" fill-opacity="1"/>
<polyline clip-path="url(#clip652)" style="stroke:#000000; stroke-linecap:round; stroke-linejoin:round; stroke-width:4; stroke-opacity:1; fill:none" points="619.724,1310.16 619.724,1384.24 632.911,1384.24 632.911,1310.16 619.724,1310.16 "/>
<path clip-path="url(#clip652)" d="M636.382 1306.5 L636.382 1384.24 L649.568 1384.24 L649.568 1306.5 L636.382 1306.5 L636.382 1306.5  Z" fill="#009af9" fill-rule="evenodd" fill-opacity="1"/>
<polyline clip-path="url(#clip652)" style="stroke:#000000; stroke-linecap:round; stroke-linejoin:round; stroke-width:4; stroke-opacity:1; fill:none" points="636.382,1306.5 636.382,1384.24 649.568,1384.24 649.568,1306.5 636.382,1306.5 "/>
<path clip-path="url(#clip652)" d="M653.001 1304.19 L653.001 1384.24 L666.187 1384.24 L666.187 1304.19 L653.001 1304.19 L653.001 1304.19  Z" fill="#009af9" fill-rule="evenodd" fill-opacity="1"/>
<polyline clip-path="url(#clip652)" style="stroke:#000000; stroke-linecap:round; stroke-linejoin:round; stroke-width:4; stroke-opacity:1; fill:none" points="653.001,1304.19 653.001,1384.24 666.187,1384.24 666.187,1304.19 653.001,1304.19 "/>
<path clip-path="url(#clip652)" d="M669.595 1302.68 L669.595 1384.24 L682.781 1384.24 L682.781 1302.68 L669.595 1302.68 L669.595 1302.68  Z" fill="#009af9" fill-rule="evenodd" fill-opacity="1"/>
<polyline clip-path="url(#clip652)" style="stroke:#000000; stroke-linecap:round; stroke-linejoin:round; stroke-width:4; stroke-opacity:1; fill:none" points="669.595,1302.68 669.595,1384.24 682.781,1384.24 682.781,1302.68 669.595,1302.68 "/>
<path clip-path="url(#clip652)" d="M686.17 1301.7 L686.17 1384.24 L699.356 1384.24 L699.356 1301.7 L686.17 1301.7 L686.17 1301.7  Z" fill="#009af9" fill-rule="evenodd" fill-opacity="1"/>
<polyline clip-path="url(#clip652)" style="stroke:#000000; stroke-linecap:round; stroke-linejoin:round; stroke-width:4; stroke-opacity:1; fill:none" points="686.17,1301.7 686.17,1384.24 699.356,1384.24 699.356,1301.7 686.17,1301.7 "/>
<path clip-path="url(#clip652)" d="M702.731 1301.09 L702.731 1384.24 L715.917 1384.24 L715.917 1301.09 L702.731 1301.09 L702.731 1301.09  Z" fill="#009af9" fill-rule="evenodd" fill-opacity="1"/>
<polyline clip-path="url(#clip652)" style="stroke:#000000; stroke-linecap:round; stroke-linejoin:round; stroke-width:4; stroke-opacity:1; fill:none" points="702.731,1301.09 702.731,1384.24 715.917,1384.24 715.917,1301.09 702.731,1301.09 "/>
<path clip-path="url(#clip652)" d="M719.28 1300.75 L719.28 1384.24 L732.466 1384.24 L732.466 1300.75 L719.28 1300.75 L719.28 1300.75  Z" fill="#009af9" fill-rule="evenodd" fill-opacity="1"/>
<polyline clip-path="url(#clip652)" style="stroke:#000000; stroke-linecap:round; stroke-linejoin:round; stroke-width:4; stroke-opacity:1; fill:none" points="719.28,1300.75 719.28,1384.24 732.466,1384.24 732.466,1300.75 719.28,1300.75 "/>
<path clip-path="url(#clip652)" d="M735.82 1300.61 L735.82 1384.24 L749.006 1384.24 L749.006 1300.61 L735.82 1300.61 L735.82 1300.61  Z" fill="#009af9" fill-rule="evenodd" fill-opacity="1"/>
<polyline clip-path="url(#clip652)" style="stroke:#000000; stroke-linecap:round; stroke-linejoin:round; stroke-width:4; stroke-opacity:1; fill:none" points="735.82,1300.61 735.82,1384.24 749.006,1384.24 749.006,1300.61 735.82,1300.61 "/>
<path clip-path="url(#clip652)" d="M752.353 1300.61 L752.353 1384.24 L765.539 1384.24 L765.539 1300.61 L752.353 1300.61 L752.353 1300.61  Z" fill="#009af9" fill-rule="evenodd" fill-opacity="1"/>
<polyline clip-path="url(#clip652)" style="stroke:#000000; stroke-linecap:round; stroke-linejoin:round; stroke-width:4; stroke-opacity:1; fill:none" points="752.353,1300.61 752.353,1384.24 765.539,1384.24 765.539,1300.61 752.353,1300.61 "/>
<path clip-path="url(#clip652)" d="M768.879 1300.73 L768.879 1384.24 L782.066 1384.24 L782.066 1300.73 L768.879 1300.73 L768.879 1300.73  Z" fill="#009af9" fill-rule="evenodd" fill-opacity="1"/>
<polyline clip-path="url(#clip652)" style="stroke:#000000; stroke-linecap:round; stroke-linejoin:round; stroke-width:4; stroke-opacity:1; fill:none" points="768.879,1300.73 768.879,1384.24 782.066,1384.24 782.066,1300.73 768.879,1300.73 "/>
<path clip-path="url(#clip652)" d="M785.401 1300.93 L785.401 1384.24 L798.587 1384.24 L798.587 1300.93 L785.401 1300.93 L785.401 1300.93  Z" fill="#009af9" fill-rule="evenodd" fill-opacity="1"/>
<polyline clip-path="url(#clip652)" style="stroke:#000000; stroke-linecap:round; stroke-linejoin:round; stroke-width:4; stroke-opacity:1; fill:none" points="785.401,1300.93 785.401,1384.24 798.587,1384.24 798.587,1300.93 785.401,1300.93 "/>
<path clip-path="url(#clip652)" d="M801.917 1301.2 L801.917 1384.24 L815.103 1384.24 L815.103 1301.2 L801.917 1301.2 L801.917 1301.2  Z" fill="#009af9" fill-rule="evenodd" fill-opacity="1"/>
<polyline clip-path="url(#clip652)" style="stroke:#000000; stroke-linecap:round; stroke-linejoin:round; stroke-width:4; stroke-opacity:1; fill:none" points="801.917,1301.2 801.917,1384.24 815.103,1384.24 815.103,1301.2 801.917,1301.2 "/>
<path clip-path="url(#clip652)" d="M818.43 1301.52 L818.43 1384.24 L831.616 1384.24 L831.616 1301.52 L818.43 1301.52 L818.43 1301.52  Z" fill="#009af9" fill-rule="evenodd" fill-opacity="1"/>
<polyline clip-path="url(#clip652)" style="stroke:#000000; stroke-linecap:round; stroke-linejoin:round; stroke-width:4; stroke-opacity:1; fill:none" points="818.43,1301.52 818.43,1384.24 831.616,1384.24 831.616,1301.52 818.43,1301.52 "/>
<path clip-path="url(#clip652)" d="M834.939 1301.88 L834.939 1384.24 L848.125 1384.24 L848.125 1301.88 L834.939 1301.88 L834.939 1301.88  Z" fill="#009af9" fill-rule="evenodd" fill-opacity="1"/>
<polyline clip-path="url(#clip652)" style="stroke:#000000; stroke-linecap:round; stroke-linejoin:round; stroke-width:4; stroke-opacity:1; fill:none" points="834.939,1301.88 834.939,1384.24 848.125,1384.24 848.125,1301.88 834.939,1301.88 "/>
<path clip-path="url(#clip652)" d="M851.445 1302.27 L851.445 1384.24 L864.632 1384.24 L864.632 1302.27 L851.445 1302.27 L851.445 1302.27  Z" fill="#009af9" fill-rule="evenodd" fill-opacity="1"/>
<polyline clip-path="url(#clip652)" style="stroke:#000000; stroke-linecap:round; stroke-linejoin:round; stroke-width:4; stroke-opacity:1; fill:none" points="851.445,1302.27 851.445,1384.24 864.632,1384.24 864.632,1302.27 851.445,1302.27 "/>
<path clip-path="url(#clip652)" d="M867.949 1302.69 L867.949 1384.24 L881.135 1384.24 L881.135 1302.69 L867.949 1302.69 L867.949 1302.69  Z" fill="#009af9" fill-rule="evenodd" fill-opacity="1"/>
<polyline clip-path="url(#clip652)" style="stroke:#000000; stroke-linecap:round; stroke-linejoin:round; stroke-width:4; stroke-opacity:1; fill:none" points="867.949,1302.69 867.949,1384.24 881.135,1384.24 881.135,1302.69 867.949,1302.69 "/>
<path clip-path="url(#clip652)" d="M884.451 1303.12 L884.451 1384.24 L897.637 1384.24 L897.637 1303.12 L884.451 1303.12 L884.451 1303.12  Z" fill="#009af9" fill-rule="evenodd" fill-opacity="1"/>
<polyline clip-path="url(#clip652)" style="stroke:#000000; stroke-linecap:round; stroke-linejoin:round; stroke-width:4; stroke-opacity:1; fill:none" points="884.451,1303.12 884.451,1384.24 897.637,1384.24 897.637,1303.12 884.451,1303.12 "/>
<path clip-path="url(#clip652)" d="M900.95 1303.57 L900.95 1384.24 L914.136 1384.24 L914.136 1303.57 L900.95 1303.57 L900.95 1303.57  Z" fill="#009af9" fill-rule="evenodd" fill-opacity="1"/>
<polyline clip-path="url(#clip652)" style="stroke:#000000; stroke-linecap:round; stroke-linejoin:round; stroke-width:4; stroke-opacity:1; fill:none" points="900.95,1303.57 900.95,1384.24 914.136,1384.24 914.136,1303.57 900.95,1303.57 "/>
<path clip-path="url(#clip652)" d="M917.448 1304.03 L917.448 1384.24 L930.634 1384.24 L930.634 1304.03 L917.448 1304.03 L917.448 1304.03  Z" fill="#009af9" fill-rule="evenodd" fill-opacity="1"/>
<polyline clip-path="url(#clip652)" style="stroke:#000000; stroke-linecap:round; stroke-linejoin:round; stroke-width:4; stroke-opacity:1; fill:none" points="917.448,1304.03 917.448,1384.24 930.634,1384.24 930.634,1304.03 917.448,1304.03 "/>
<path clip-path="url(#clip652)" d="M933.944 1304.49 L933.944 1384.24 L947.13 1384.24 L947.13 1304.49 L933.944 1304.49 L933.944 1304.49  Z" fill="#009af9" fill-rule="evenodd" fill-opacity="1"/>
<polyline clip-path="url(#clip652)" style="stroke:#000000; stroke-linecap:round; stroke-linejoin:round; stroke-width:4; stroke-opacity:1; fill:none" points="933.944,1304.49 933.944,1384.24 947.13,1384.24 947.13,1304.49 933.944,1304.49 "/>
<path clip-path="url(#clip652)" d="M950.438 1304.96 L950.438 1384.24 L963.624 1384.24 L963.624 1304.96 L950.438 1304.96 L950.438 1304.96  Z" fill="#009af9" fill-rule="evenodd" fill-opacity="1"/>
<polyline clip-path="url(#clip652)" style="stroke:#000000; stroke-linecap:round; stroke-linejoin:round; stroke-width:4; stroke-opacity:1; fill:none" points="950.438,1304.96 950.438,1384.24 963.624,1384.24 963.624,1304.96 950.438,1304.96 "/>
<path clip-path="url(#clip652)" d="M966.932 1305.43 L966.932 1384.24 L980.118 1384.24 L980.118 1305.43 L966.932 1305.43 L966.932 1305.43  Z" fill="#009af9" fill-rule="evenodd" fill-opacity="1"/>
<polyline clip-path="url(#clip652)" style="stroke:#000000; stroke-linecap:round; stroke-linejoin:round; stroke-width:4; stroke-opacity:1; fill:none" points="966.932,1305.43 966.932,1384.24 980.118,1384.24 980.118,1305.43 966.932,1305.43 "/>
<path clip-path="url(#clip652)" d="M983.424 1305.9 L983.424 1384.24 L996.61 1384.24 L996.61 1305.9 L983.424 1305.9 L983.424 1305.9  Z" fill="#009af9" fill-rule="evenodd" fill-opacity="1"/>
<polyline clip-path="url(#clip652)" style="stroke:#000000; stroke-linecap:round; stroke-linejoin:round; stroke-width:4; stroke-opacity:1; fill:none" points="983.424,1305.9 983.424,1384.24 996.61,1384.24 996.61,1305.9 983.424,1305.9 "/>
<path clip-path="url(#clip652)" d="M999.915 1306.37 L999.915 1384.24 L1013.1 1384.24 L1013.1 1306.37 L999.915 1306.37 L999.915 1306.37  Z" fill="#009af9" fill-rule="evenodd" fill-opacity="1"/>
<polyline clip-path="url(#clip652)" style="stroke:#000000; stroke-linecap:round; stroke-linejoin:round; stroke-width:4; stroke-opacity:1; fill:none" points="999.915,1306.37 999.915,1384.24 1013.1,1384.24 1013.1,1306.37 999.915,1306.37 "/>
<path clip-path="url(#clip652)" d="M1016.41 1306.84 L1016.41 1384.24 L1029.59 1384.24 L1029.59 1306.84 L1016.41 1306.84 L1016.41 1306.84  Z" fill="#009af9" fill-rule="evenodd" fill-opacity="1"/>
<polyline clip-path="url(#clip652)" style="stroke:#000000; stroke-linecap:round; stroke-linejoin:round; stroke-width:4; stroke-opacity:1; fill:none" points="1016.41,1306.84 1016.41,1384.24 1029.59,1384.24 1029.59,1306.84 1016.41,1306.84 "/>
<path clip-path="url(#clip652)" d="M1032.89 1307.3 L1032.89 1384.24 L1046.08 1384.24 L1046.08 1307.3 L1032.89 1307.3 L1032.89 1307.3  Z" fill="#009af9" fill-rule="evenodd" fill-opacity="1"/>
<polyline clip-path="url(#clip652)" style="stroke:#000000; stroke-linecap:round; stroke-linejoin:round; stroke-width:4; stroke-opacity:1; fill:none" points="1032.89,1307.3 1032.89,1384.24 1046.08,1384.24 1046.08,1307.3 1032.89,1307.3 "/>
<path clip-path="url(#clip652)" d="M1049.38 1307.76 L1049.38 1384.24 L1062.57 1384.24 L1062.57 1307.76 L1049.38 1307.76 L1049.38 1307.76  Z" fill="#009af9" fill-rule="evenodd" fill-opacity="1"/>
<polyline clip-path="url(#clip652)" style="stroke:#000000; stroke-linecap:round; stroke-linejoin:round; stroke-width:4; stroke-opacity:1; fill:none" points="1049.38,1307.76 1049.38,1384.24 1062.57,1384.24 1062.57,1307.76 1049.38,1307.76 "/>
<path clip-path="url(#clip652)" d="M1065.87 1308.21 L1065.87 1384.24 L1079.06 1384.24 L1079.06 1308.21 L1065.87 1308.21 L1065.87 1308.21  Z" fill="#009af9" fill-rule="evenodd" fill-opacity="1"/>
<polyline clip-path="url(#clip652)" style="stroke:#000000; stroke-linecap:round; stroke-linejoin:round; stroke-width:4; stroke-opacity:1; fill:none" points="1065.87,1308.21 1065.87,1384.24 1079.06,1384.24 1079.06,1308.21 1065.87,1308.21 "/>
<path clip-path="url(#clip652)" d="M1082.36 1308.66 L1082.36 1384.24 L1095.54 1384.24 L1095.54 1308.66 L1082.36 1308.66 L1082.36 1308.66  Z" fill="#009af9" fill-rule="evenodd" fill-opacity="1"/>
<polyline clip-path="url(#clip652)" style="stroke:#000000; stroke-linecap:round; stroke-linejoin:round; stroke-width:4; stroke-opacity:1; fill:none" points="1082.36,1308.66 1082.36,1384.24 1095.54,1384.24 1095.54,1308.66 1082.36,1308.66 "/>
<path clip-path="url(#clip652)" d="M1098.84 1309.11 L1098.84 1384.24 L1112.03 1384.24 L1112.03 1309.11 L1098.84 1309.11 L1098.84 1309.11  Z" fill="#009af9" fill-rule="evenodd" fill-opacity="1"/>
<polyline clip-path="url(#clip652)" style="stroke:#000000; stroke-linecap:round; stroke-linejoin:round; stroke-width:4; stroke-opacity:1; fill:none" points="1098.84,1309.11 1098.84,1384.24 1112.03,1384.24 1112.03,1309.11 1098.84,1309.11 "/>
<path clip-path="url(#clip652)" d="M1115.33 1309.55 L1115.33 1384.24 L1128.52 1384.24 L1128.52 1309.55 L1115.33 1309.55 L1115.33 1309.55  Z" fill="#009af9" fill-rule="evenodd" fill-opacity="1"/>
<polyline clip-path="url(#clip652)" style="stroke:#000000; stroke-linecap:round; stroke-linejoin:round; stroke-width:4; stroke-opacity:1; fill:none" points="1115.33,1309.55 1115.33,1384.24 1128.52,1384.24 1128.52,1309.55 1115.33,1309.55 "/>
<path clip-path="url(#clip652)" d="M1131.82 1309.98 L1131.82 1384.24 L1145 1384.24 L1145 1309.98 L1131.82 1309.98 L1131.82 1309.98  Z" fill="#009af9" fill-rule="evenodd" fill-opacity="1"/>
<polyline clip-path="url(#clip652)" style="stroke:#000000; stroke-linecap:round; stroke-linejoin:round; stroke-width:4; stroke-opacity:1; fill:none" points="1131.82,1309.98 1131.82,1384.24 1145,1384.24 1145,1309.98 1131.82,1309.98 "/>
<path clip-path="url(#clip652)" d="M1148.3 1310.4 L1148.3 1384.24 L1161.49 1384.24 L1161.49 1310.4 L1148.3 1310.4 L1148.3 1310.4  Z" fill="#009af9" fill-rule="evenodd" fill-opacity="1"/>
<polyline clip-path="url(#clip652)" style="stroke:#000000; stroke-linecap:round; stroke-linejoin:round; stroke-width:4; stroke-opacity:1; fill:none" points="1148.3,1310.4 1148.3,1384.24 1161.49,1384.24 1161.49,1310.4 1148.3,1310.4 "/>
<path clip-path="url(#clip652)" d="M1164.79 1310.82 L1164.79 1384.24 L1177.97 1384.24 L1177.97 1310.82 L1164.79 1310.82 L1164.79 1310.82  Z" fill="#009af9" fill-rule="evenodd" fill-opacity="1"/>
<polyline clip-path="url(#clip652)" style="stroke:#000000; stroke-linecap:round; stroke-linejoin:round; stroke-width:4; stroke-opacity:1; fill:none" points="1164.79,1310.82 1164.79,1384.24 1177.97,1384.24 1177.97,1310.82 1164.79,1310.82 "/>
<path clip-path="url(#clip652)" d="M1181.27 1311.23 L1181.27 1384.24 L1194.46 1384.24 L1194.46 1311.23 L1181.27 1311.23 L1181.27 1311.23  Z" fill="#009af9" fill-rule="evenodd" fill-opacity="1"/>
<polyline clip-path="url(#clip652)" style="stroke:#000000; stroke-linecap:round; stroke-linejoin:round; stroke-width:4; stroke-opacity:1; fill:none" points="1181.27,1311.23 1181.27,1384.24 1194.46,1384.24 1194.46,1311.23 1181.27,1311.23 "/>
<path clip-path="url(#clip652)" d="M1197.76 1311.63 L1197.76 1384.24 L1210.94 1384.24 L1210.94 1311.63 L1197.76 1311.63 L1197.76 1311.63  Z" fill="#009af9" fill-rule="evenodd" fill-opacity="1"/>
<polyline clip-path="url(#clip652)" style="stroke:#000000; stroke-linecap:round; stroke-linejoin:round; stroke-width:4; stroke-opacity:1; fill:none" points="1197.76,1311.63 1197.76,1384.24 1210.94,1384.24 1210.94,1311.63 1197.76,1311.63 "/>
<path clip-path="url(#clip652)" d="M1214.24 1312.03 L1214.24 1384.24 L1227.43 1384.24 L1227.43 1312.03 L1214.24 1312.03 L1214.24 1312.03  Z" fill="#009af9" fill-rule="evenodd" fill-opacity="1"/>
<polyline clip-path="url(#clip652)" style="stroke:#000000; stroke-linecap:round; stroke-linejoin:round; stroke-width:4; stroke-opacity:1; fill:none" points="1214.24,1312.03 1214.24,1384.24 1227.43,1384.24 1227.43,1312.03 1214.24,1312.03 "/>
<path clip-path="url(#clip652)" d="M1230.72 1312.42 L1230.72 1384.24 L1243.91 1384.24 L1243.91 1312.42 L1230.72 1312.42 L1230.72 1312.42  Z" fill="#009af9" fill-rule="evenodd" fill-opacity="1"/>
<polyline clip-path="url(#clip652)" style="stroke:#000000; stroke-linecap:round; stroke-linejoin:round; stroke-width:4; stroke-opacity:1; fill:none" points="1230.72,1312.42 1230.72,1384.24 1243.91,1384.24 1243.91,1312.42 1230.72,1312.42 "/>
<path clip-path="url(#clip652)" d="M1247.21 1312.8 L1247.21 1384.24 L1260.39 1384.24 L1260.39 1312.8 L1247.21 1312.8 L1247.21 1312.8  Z" fill="#009af9" fill-rule="evenodd" fill-opacity="1"/>
<polyline clip-path="url(#clip652)" style="stroke:#000000; stroke-linecap:round; stroke-linejoin:round; stroke-width:4; stroke-opacity:1; fill:none" points="1247.21,1312.8 1247.21,1384.24 1260.39,1384.24 1260.39,1312.8 1247.21,1312.8 "/>
<path clip-path="url(#clip652)" d="M1263.69 1313.17 L1263.69 1384.24 L1276.88 1384.24 L1276.88 1313.17 L1263.69 1313.17 L1263.69 1313.17  Z" fill="#009af9" fill-rule="evenodd" fill-opacity="1"/>
<polyline clip-path="url(#clip652)" style="stroke:#000000; stroke-linecap:round; stroke-linejoin:round; stroke-width:4; stroke-opacity:1; fill:none" points="1263.69,1313.17 1263.69,1384.24 1276.88,1384.24 1276.88,1313.17 1263.69,1313.17 "/>
<path clip-path="url(#clip652)" d="M1280.17 1313.54 L1280.17 1384.24 L1293.36 1384.24 L1293.36 1313.54 L1280.17 1313.54 L1280.17 1313.54  Z" fill="#009af9" fill-rule="evenodd" fill-opacity="1"/>
<polyline clip-path="url(#clip652)" style="stroke:#000000; stroke-linecap:round; stroke-linejoin:round; stroke-width:4; stroke-opacity:1; fill:none" points="1280.17,1313.54 1280.17,1384.24 1293.36,1384.24 1293.36,1313.54 1280.17,1313.54 "/>
<path clip-path="url(#clip652)" d="M1296.66 1313.9 L1296.66 1384.24 L1309.84 1384.24 L1309.84 1313.9 L1296.66 1313.9 L1296.66 1313.9  Z" fill="#009af9" fill-rule="evenodd" fill-opacity="1"/>
<polyline clip-path="url(#clip652)" style="stroke:#000000; stroke-linecap:round; stroke-linejoin:round; stroke-width:4; stroke-opacity:1; fill:none" points="1296.66,1313.9 1296.66,1384.24 1309.84,1384.24 1309.84,1313.9 1296.66,1313.9 "/>
<path clip-path="url(#clip652)" d="M1313.14 1314.25 L1313.14 1384.24 L1326.33 1384.24 L1326.33 1314.25 L1313.14 1314.25 L1313.14 1314.25  Z" fill="#009af9" fill-rule="evenodd" fill-opacity="1"/>
<polyline clip-path="url(#clip652)" style="stroke:#000000; stroke-linecap:round; stroke-linejoin:round; stroke-width:4; stroke-opacity:1; fill:none" points="1313.14,1314.25 1313.14,1384.24 1326.33,1384.24 1326.33,1314.25 1313.14,1314.25 "/>
<path clip-path="url(#clip652)" d="M1329.62 1314.59 L1329.62 1384.24 L1342.81 1384.24 L1342.81 1314.59 L1329.62 1314.59 L1329.62 1314.59  Z" fill="#009af9" fill-rule="evenodd" fill-opacity="1"/>
<polyline clip-path="url(#clip652)" style="stroke:#000000; stroke-linecap:round; stroke-linejoin:round; stroke-width:4; stroke-opacity:1; fill:none" points="1329.62,1314.59 1329.62,1384.24 1342.81,1384.24 1342.81,1314.59 1329.62,1314.59 "/>
<path clip-path="url(#clip652)" d="M1346.11 1314.92 L1346.11 1384.24 L1359.29 1384.24 L1359.29 1314.92 L1346.11 1314.92 L1346.11 1314.92  Z" fill="#009af9" fill-rule="evenodd" fill-opacity="1"/>
<polyline clip-path="url(#clip652)" style="stroke:#000000; stroke-linecap:round; stroke-linejoin:round; stroke-width:4; stroke-opacity:1; fill:none" points="1346.11,1314.92 1346.11,1384.24 1359.29,1384.24 1359.29,1314.92 1346.11,1314.92 "/>
<path clip-path="url(#clip652)" d="M1362.59 1315.25 L1362.59 1384.24 L1375.77 1384.24 L1375.77 1315.25 L1362.59 1315.25 L1362.59 1315.25  Z" fill="#009af9" fill-rule="evenodd" fill-opacity="1"/>
<polyline clip-path="url(#clip652)" style="stroke:#000000; stroke-linecap:round; stroke-linejoin:round; stroke-width:4; stroke-opacity:1; fill:none" points="1362.59,1315.25 1362.59,1384.24 1375.77,1384.24 1375.77,1315.25 1362.59,1315.25 "/>
<path clip-path="url(#clip652)" d="M1379.07 1315.57 L1379.07 1384.24 L1392.26 1384.24 L1392.26 1315.57 L1379.07 1315.57 L1379.07 1315.57  Z" fill="#009af9" fill-rule="evenodd" fill-opacity="1"/>
<polyline clip-path="url(#clip652)" style="stroke:#000000; stroke-linecap:round; stroke-linejoin:round; stroke-width:4; stroke-opacity:1; fill:none" points="1379.07,1315.57 1379.07,1384.24 1392.26,1384.24 1392.26,1315.57 1379.07,1315.57 "/>
<path clip-path="url(#clip652)" d="M1395.55 1315.88 L1395.55 1384.24 L1408.74 1384.24 L1408.74 1315.88 L1395.55 1315.88 L1395.55 1315.88  Z" fill="#009af9" fill-rule="evenodd" fill-opacity="1"/>
<polyline clip-path="url(#clip652)" style="stroke:#000000; stroke-linecap:round; stroke-linejoin:round; stroke-width:4; stroke-opacity:1; fill:none" points="1395.55,1315.88 1395.55,1384.24 1408.74,1384.24 1408.74,1315.88 1395.55,1315.88 "/>
<path clip-path="url(#clip652)" d="M1412.04 1316.19 L1412.04 1384.24 L1425.22 1384.24 L1425.22 1316.19 L1412.04 1316.19 L1412.04 1316.19  Z" fill="#009af9" fill-rule="evenodd" fill-opacity="1"/>
<polyline clip-path="url(#clip652)" style="stroke:#000000; stroke-linecap:round; stroke-linejoin:round; stroke-width:4; stroke-opacity:1; fill:none" points="1412.04,1316.19 1412.04,1384.24 1425.22,1384.24 1425.22,1316.19 1412.04,1316.19 "/>
<path clip-path="url(#clip652)" d="M1428.52 1316.48 L1428.52 1384.24 L1441.7 1384.24 L1441.7 1316.48 L1428.52 1316.48 L1428.52 1316.48  Z" fill="#009af9" fill-rule="evenodd" fill-opacity="1"/>
<polyline clip-path="url(#clip652)" style="stroke:#000000; stroke-linecap:round; stroke-linejoin:round; stroke-width:4; stroke-opacity:1; fill:none" points="1428.52,1316.48 1428.52,1384.24 1441.7,1384.24 1441.7,1316.48 1428.52,1316.48 "/>
<path clip-path="url(#clip652)" d="M1445 1316.77 L1445 1384.24 L1458.19 1384.24 L1458.19 1316.77 L1445 1316.77 L1445 1316.77  Z" fill="#009af9" fill-rule="evenodd" fill-opacity="1"/>
<polyline clip-path="url(#clip652)" style="stroke:#000000; stroke-linecap:round; stroke-linejoin:round; stroke-width:4; stroke-opacity:1; fill:none" points="1445,1316.77 1445,1384.24 1458.19,1384.24 1458.19,1316.77 1445,1316.77 "/>
<path clip-path="url(#clip652)" d="M1461.48 1317.05 L1461.48 1384.24 L1474.67 1384.24 L1474.67 1317.05 L1461.48 1317.05 L1461.48 1317.05  Z" fill="#009af9" fill-rule="evenodd" fill-opacity="1"/>
<polyline clip-path="url(#clip652)" style="stroke:#000000; stroke-linecap:round; stroke-linejoin:round; stroke-width:4; stroke-opacity:1; fill:none" points="1461.48,1317.05 1461.48,1384.24 1474.67,1384.24 1474.67,1317.05 1461.48,1317.05 "/>
<path clip-path="url(#clip652)" d="M1477.97 1317.32 L1477.97 1384.24 L1491.15 1384.24 L1491.15 1317.32 L1477.97 1317.32 L1477.97 1317.32  Z" fill="#009af9" fill-rule="evenodd" fill-opacity="1"/>
<polyline clip-path="url(#clip652)" style="stroke:#000000; stroke-linecap:round; stroke-linejoin:round; stroke-width:4; stroke-opacity:1; fill:none" points="1477.97,1317.32 1477.97,1384.24 1491.15,1384.24 1491.15,1317.32 1477.97,1317.32 "/>
<path clip-path="url(#clip652)" d="M1494.45 1317.59 L1494.45 1384.24 L1507.64 1384.24 L1507.64 1317.59 L1494.45 1317.59 L1494.45 1317.59  Z" fill="#009af9" fill-rule="evenodd" fill-opacity="1"/>
<polyline clip-path="url(#clip652)" style="stroke:#000000; stroke-linecap:round; stroke-linejoin:round; stroke-width:4; stroke-opacity:1; fill:none" points="1494.45,1317.59 1494.45,1384.24 1507.64,1384.24 1507.64,1317.59 1494.45,1317.59 "/>
<path clip-path="url(#clip652)" d="M1510.93 1317.84 L1510.93 1384.24 L1524.12 1384.24 L1524.12 1317.84 L1510.93 1317.84 L1510.93 1317.84  Z" fill="#009af9" fill-rule="evenodd" fill-opacity="1"/>
<polyline clip-path="url(#clip652)" style="stroke:#000000; stroke-linecap:round; stroke-linejoin:round; stroke-width:4; stroke-opacity:1; fill:none" points="1510.93,1317.84 1510.93,1384.24 1524.12,1384.24 1524.12,1317.84 1510.93,1317.84 "/>
<path clip-path="url(#clip652)" d="M1527.41 1318.09 L1527.41 1384.24 L1540.6 1384.24 L1540.6 1318.09 L1527.41 1318.09 L1527.41 1318.09  Z" fill="#009af9" fill-rule="evenodd" fill-opacity="1"/>
<polyline clip-path="url(#clip652)" style="stroke:#000000; stroke-linecap:round; stroke-linejoin:round; stroke-width:4; stroke-opacity:1; fill:none" points="1527.41,1318.09 1527.41,1384.24 1540.6,1384.24 1540.6,1318.09 1527.41,1318.09 "/>
<path clip-path="url(#clip652)" d="M1543.9 1318.33 L1543.9 1384.24 L1557.08 1384.24 L1557.08 1318.33 L1543.9 1318.33 L1543.9 1318.33  Z" fill="#009af9" fill-rule="evenodd" fill-opacity="1"/>
<polyline clip-path="url(#clip652)" style="stroke:#000000; stroke-linecap:round; stroke-linejoin:round; stroke-width:4; stroke-opacity:1; fill:none" points="1543.9,1318.33 1543.9,1384.24 1557.08,1384.24 1557.08,1318.33 1543.9,1318.33 "/>
<path clip-path="url(#clip652)" d="M1560.38 1318.56 L1560.38 1384.24 L1573.57 1384.24 L1573.57 1318.56 L1560.38 1318.56 L1560.38 1318.56  Z" fill="#009af9" fill-rule="evenodd" fill-opacity="1"/>
<polyline clip-path="url(#clip652)" style="stroke:#000000; stroke-linecap:round; stroke-linejoin:round; stroke-width:4; stroke-opacity:1; fill:none" points="1560.38,1318.56 1560.38,1384.24 1573.57,1384.24 1573.57,1318.56 1560.38,1318.56 "/>
<path clip-path="url(#clip652)" d="M1576.86 1318.78 L1576.86 1384.24 L1590.05 1384.24 L1590.05 1318.78 L1576.86 1318.78 L1576.86 1318.78  Z" fill="#009af9" fill-rule="evenodd" fill-opacity="1"/>
<polyline clip-path="url(#clip652)" style="stroke:#000000; stroke-linecap:round; stroke-linejoin:round; stroke-width:4; stroke-opacity:1; fill:none" points="1576.86,1318.78 1576.86,1384.24 1590.05,1384.24 1590.05,1318.78 1576.86,1318.78 "/>
<path clip-path="url(#clip652)" d="M1593.35 1318.99 L1593.35 1384.24 L1606.53 1384.24 L1606.53 1318.99 L1593.35 1318.99 L1593.35 1318.99  Z" fill="#009af9" fill-rule="evenodd" fill-opacity="1"/>
<polyline clip-path="url(#clip652)" style="stroke:#000000; stroke-linecap:round; stroke-linejoin:round; stroke-width:4; stroke-opacity:1; fill:none" points="1593.35,1318.99 1593.35,1384.24 1606.53,1384.24 1606.53,1318.99 1593.35,1318.99 "/>
<path clip-path="url(#clip652)" d="M1609.83 1319.2 L1609.83 1384.24 L1623.02 1384.24 L1623.02 1319.2 L1609.83 1319.2 L1609.83 1319.2  Z" fill="#009af9" fill-rule="evenodd" fill-opacity="1"/>
<polyline clip-path="url(#clip652)" style="stroke:#000000; stroke-linecap:round; stroke-linejoin:round; stroke-width:4; stroke-opacity:1; fill:none" points="1609.83,1319.2 1609.83,1384.24 1623.02,1384.24 1623.02,1319.2 1609.83,1319.2 "/>
<path clip-path="url(#clip652)" d="M1626.31 1319.39 L1626.31 1384.24 L1639.5 1384.24 L1639.5 1319.39 L1626.31 1319.39 L1626.31 1319.39  Z" fill="#009af9" fill-rule="evenodd" fill-opacity="1"/>
<polyline clip-path="url(#clip652)" style="stroke:#000000; stroke-linecap:round; stroke-linejoin:round; stroke-width:4; stroke-opacity:1; fill:none" points="1626.31,1319.39 1626.31,1384.24 1639.5,1384.24 1639.5,1319.39 1626.31,1319.39 "/>
<path clip-path="url(#clip652)" d="M1642.8 1319.58 L1642.8 1384.24 L1655.98 1384.24 L1655.98 1319.58 L1642.8 1319.58 L1642.8 1319.58  Z" fill="#009af9" fill-rule="evenodd" fill-opacity="1"/>
<polyline clip-path="url(#clip652)" style="stroke:#000000; stroke-linecap:round; stroke-linejoin:round; stroke-width:4; stroke-opacity:1; fill:none" points="1642.8,1319.58 1642.8,1384.24 1655.98,1384.24 1655.98,1319.58 1642.8,1319.58 "/>
<path clip-path="url(#clip652)" d="M1659.28 1319.75 L1659.28 1384.24 L1672.47 1384.24 L1672.47 1319.75 L1659.28 1319.75 L1659.28 1319.75  Z" fill="#009af9" fill-rule="evenodd" fill-opacity="1"/>
<polyline clip-path="url(#clip652)" style="stroke:#000000; stroke-linecap:round; stroke-linejoin:round; stroke-width:4; stroke-opacity:1; fill:none" points="1659.28,1319.75 1659.28,1384.24 1672.47,1384.24 1672.47,1319.75 1659.28,1319.75 "/>
<path clip-path="url(#clip652)" d="M1675.77 1319.92 L1675.77 1384.24 L1688.95 1384.24 L1688.95 1319.92 L1675.77 1319.92 L1675.77 1319.92  Z" fill="#009af9" fill-rule="evenodd" fill-opacity="1"/>
<polyline clip-path="url(#clip652)" style="stroke:#000000; stroke-linecap:round; stroke-linejoin:round; stroke-width:4; stroke-opacity:1; fill:none" points="1675.77,1319.92 1675.77,1384.24 1688.95,1384.24 1688.95,1319.92 1675.77,1319.92 "/>
<path clip-path="url(#clip652)" d="M1692.25 1320.07 L1692.25 1384.24 L1705.44 1384.24 L1705.44 1320.07 L1692.25 1320.07 L1692.25 1320.07  Z" fill="#009af9" fill-rule="evenodd" fill-opacity="1"/>
<polyline clip-path="url(#clip652)" style="stroke:#000000; stroke-linecap:round; stroke-linejoin:round; stroke-width:4; stroke-opacity:1; fill:none" points="1692.25,1320.07 1692.25,1384.24 1705.44,1384.24 1705.44,1320.07 1692.25,1320.07 "/>
<path clip-path="url(#clip652)" d="M1708.74 1320.22 L1708.74 1384.24 L1721.92 1384.24 L1721.92 1320.22 L1708.74 1320.22 L1708.74 1320.22  Z" fill="#009af9" fill-rule="evenodd" fill-opacity="1"/>
<polyline clip-path="url(#clip652)" style="stroke:#000000; stroke-linecap:round; stroke-linejoin:round; stroke-width:4; stroke-opacity:1; fill:none" points="1708.74,1320.22 1708.74,1384.24 1721.92,1384.24 1721.92,1320.22 1708.74,1320.22 "/>
<path clip-path="url(#clip652)" d="M1725.22 1320.35 L1725.22 1384.24 L1738.41 1384.24 L1738.41 1320.35 L1725.22 1320.35 L1725.22 1320.35  Z" fill="#009af9" fill-rule="evenodd" fill-opacity="1"/>
<polyline clip-path="url(#clip652)" style="stroke:#000000; stroke-linecap:round; stroke-linejoin:round; stroke-width:4; stroke-opacity:1; fill:none" points="1725.22,1320.35 1725.22,1384.24 1738.41,1384.24 1738.41,1320.35 1725.22,1320.35 "/>
<path clip-path="url(#clip652)" d="M1741.71 1320.47 L1741.71 1384.24 L1754.89 1384.24 L1754.89 1320.47 L1741.71 1320.47 L1741.71 1320.47  Z" fill="#009af9" fill-rule="evenodd" fill-opacity="1"/>
<polyline clip-path="url(#clip652)" style="stroke:#000000; stroke-linecap:round; stroke-linejoin:round; stroke-width:4; stroke-opacity:1; fill:none" points="1741.71,1320.47 1741.71,1384.24 1754.89,1384.24 1754.89,1320.47 1741.71,1320.47 "/>
<path clip-path="url(#clip652)" d="M1758.19 1320.58 L1758.19 1384.24 L1771.38 1384.24 L1771.38 1320.58 L1758.19 1320.58 L1758.19 1320.58  Z" fill="#009af9" fill-rule="evenodd" fill-opacity="1"/>
<polyline clip-path="url(#clip652)" style="stroke:#000000; stroke-linecap:round; stroke-linejoin:round; stroke-width:4; stroke-opacity:1; fill:none" points="1758.19,1320.58 1758.19,1384.24 1771.38,1384.24 1771.38,1320.58 1758.19,1320.58 "/>
<path clip-path="url(#clip652)" d="M1774.68 1320.68 L1774.68 1384.24 L1787.87 1384.24 L1787.87 1320.68 L1774.68 1320.68 L1774.68 1320.68  Z" fill="#009af9" fill-rule="evenodd" fill-opacity="1"/>
<polyline clip-path="url(#clip652)" style="stroke:#000000; stroke-linecap:round; stroke-linejoin:round; stroke-width:4; stroke-opacity:1; fill:none" points="1774.68,1320.68 1774.68,1384.24 1787.87,1384.24 1787.87,1320.68 1774.68,1320.68 "/>
<path clip-path="url(#clip652)" d="M1791.17 1320.76 L1791.17 1384.24 L1804.35 1384.24 L1804.35 1320.76 L1791.17 1320.76 L1791.17 1320.76  Z" fill="#009af9" fill-rule="evenodd" fill-opacity="1"/>
<polyline clip-path="url(#clip652)" style="stroke:#000000; stroke-linecap:round; stroke-linejoin:round; stroke-width:4; stroke-opacity:1; fill:none" points="1791.17,1320.76 1791.17,1384.24 1804.35,1384.24 1804.35,1320.76 1791.17,1320.76 "/>
<path clip-path="url(#clip652)" d="M1807.65 1320.83 L1807.65 1384.24 L1820.84 1384.24 L1820.84 1320.83 L1807.65 1320.83 L1807.65 1320.83  Z" fill="#009af9" fill-rule="evenodd" fill-opacity="1"/>
<polyline clip-path="url(#clip652)" style="stroke:#000000; stroke-linecap:round; stroke-linejoin:round; stroke-width:4; stroke-opacity:1; fill:none" points="1807.65,1320.83 1807.65,1384.24 1820.84,1384.24 1820.84,1320.83 1807.65,1320.83 "/>
<path clip-path="url(#clip652)" d="M1824.14 1320.88 L1824.14 1384.24 L1837.33 1384.24 L1837.33 1320.88 L1824.14 1320.88 L1824.14 1320.88  Z" fill="#009af9" fill-rule="evenodd" fill-opacity="1"/>
<polyline clip-path="url(#clip652)" style="stroke:#000000; stroke-linecap:round; stroke-linejoin:round; stroke-width:4; stroke-opacity:1; fill:none" points="1824.14,1320.88 1824.14,1384.24 1837.33,1384.24 1837.33,1320.88 1824.14,1320.88 "/>
<path clip-path="url(#clip652)" d="M1840.63 1320.92 L1840.63 1384.24 L1853.82 1384.24 L1853.82 1320.92 L1840.63 1320.92 L1840.63 1320.92  Z" fill="#009af9" fill-rule="evenodd" fill-opacity="1"/>
<polyline clip-path="url(#clip652)" style="stroke:#000000; stroke-linecap:round; stroke-linejoin:round; stroke-width:4; stroke-opacity:1; fill:none" points="1840.63,1320.92 1840.63,1384.24 1853.82,1384.24 1853.82,1320.92 1840.63,1320.92 "/>
<path clip-path="url(#clip652)" d="M1857.12 1320.94 L1857.12 1384.24 L1870.31 1384.24 L1870.31 1320.94 L1857.12 1320.94 L1857.12 1320.94  Z" fill="#009af9" fill-rule="evenodd" fill-opacity="1"/>
<polyline clip-path="url(#clip652)" style="stroke:#000000; stroke-linecap:round; stroke-linejoin:round; stroke-width:4; stroke-opacity:1; fill:none" points="1857.12,1320.94 1857.12,1384.24 1870.31,1384.24 1870.31,1320.94 1857.12,1320.94 "/>
<path clip-path="url(#clip652)" d="M1873.61 1320.94 L1873.61 1384.24 L1886.8 1384.24 L1886.8 1320.94 L1873.61 1320.94 L1873.61 1320.94  Z" fill="#009af9" fill-rule="evenodd" fill-opacity="1"/>
<polyline clip-path="url(#clip652)" style="stroke:#000000; stroke-linecap:round; stroke-linejoin:round; stroke-width:4; stroke-opacity:1; fill:none" points="1873.61,1320.94 1873.61,1384.24 1886.8,1384.24 1886.8,1320.94 1873.61,1320.94 "/>
<path clip-path="url(#clip652)" d="M1890.1 1320.92 L1890.1 1384.24 L1903.29 1384.24 L1903.29 1320.92 L1890.1 1320.92 L1890.1 1320.92  Z" fill="#009af9" fill-rule="evenodd" fill-opacity="1"/>
<polyline clip-path="url(#clip652)" style="stroke:#000000; stroke-linecap:round; stroke-linejoin:round; stroke-width:4; stroke-opacity:1; fill:none" points="1890.1,1320.92 1890.1,1384.24 1903.29,1384.24 1903.29,1320.92 1890.1,1320.92 "/>
<path clip-path="url(#clip652)" d="M1906.59 1320.87 L1906.59 1384.24 L1919.78 1384.24 L1919.78 1320.87 L1906.59 1320.87 L1906.59 1320.87  Z" fill="#009af9" fill-rule="evenodd" fill-opacity="1"/>
<polyline clip-path="url(#clip652)" style="stroke:#000000; stroke-linecap:round; stroke-linejoin:round; stroke-width:4; stroke-opacity:1; fill:none" points="1906.59,1320.87 1906.59,1384.24 1919.78,1384.24 1919.78,1320.87 1906.59,1320.87 "/>
<path clip-path="url(#clip652)" d="M1923.08 1320.8 L1923.08 1384.24 L1936.27 1384.24 L1936.27 1320.8 L1923.08 1320.8 L1923.08 1320.8  Z" fill="#009af9" fill-rule="evenodd" fill-opacity="1"/>
<polyline clip-path="url(#clip652)" style="stroke:#000000; stroke-linecap:round; stroke-linejoin:round; stroke-width:4; stroke-opacity:1; fill:none" points="1923.08,1320.8 1923.08,1384.24 1936.27,1384.24 1936.27,1320.8 1923.08,1320.8 "/>
<path clip-path="url(#clip652)" d="M1939.58 1320.71 L1939.58 1384.24 L1952.76 1384.24 L1952.76 1320.71 L1939.58 1320.71 L1939.58 1320.71  Z" fill="#009af9" fill-rule="evenodd" fill-opacity="1"/>
<polyline clip-path="url(#clip652)" style="stroke:#000000; stroke-linecap:round; stroke-linejoin:round; stroke-width:4; stroke-opacity:1; fill:none" points="1939.58,1320.71 1939.58,1384.24 1952.76,1384.24 1952.76,1320.71 1939.58,1320.71 "/>
<path clip-path="url(#clip652)" d="M1956.07 1320.58 L1956.07 1384.24 L1969.26 1384.24 L1969.26 1320.58 L1956.07 1320.58 L1956.07 1320.58  Z" fill="#009af9" fill-rule="evenodd" fill-opacity="1"/>
<polyline clip-path="url(#clip652)" style="stroke:#000000; stroke-linecap:round; stroke-linejoin:round; stroke-width:4; stroke-opacity:1; fill:none" points="1956.07,1320.58 1956.07,1384.24 1969.26,1384.24 1969.26,1320.58 1956.07,1320.58 "/>
<path clip-path="url(#clip652)" d="M1972.57 1320.41 L1972.57 1384.24 L1985.76 1384.24 L1985.76 1320.41 L1972.57 1320.41 L1972.57 1320.41  Z" fill="#009af9" fill-rule="evenodd" fill-opacity="1"/>
<polyline clip-path="url(#clip652)" style="stroke:#000000; stroke-linecap:round; stroke-linejoin:round; stroke-width:4; stroke-opacity:1; fill:none" points="1972.57,1320.41 1972.57,1384.24 1985.76,1384.24 1985.76,1320.41 1972.57,1320.41 "/>
<path clip-path="url(#clip652)" d="M1989.07 1320.21 L1989.07 1384.24 L2002.25 1384.24 L2002.25 1320.21 L1989.07 1320.21 L1989.07 1320.21  Z" fill="#009af9" fill-rule="evenodd" fill-opacity="1"/>
<polyline clip-path="url(#clip652)" style="stroke:#000000; stroke-linecap:round; stroke-linejoin:round; stroke-width:4; stroke-opacity:1; fill:none" points="1989.07,1320.21 1989.07,1384.24 2002.25,1384.24 2002.25,1320.21 1989.07,1320.21 "/>
<path clip-path="url(#clip652)" d="M2005.57 1319.96 L2005.57 1384.24 L2018.76 1384.24 L2018.76 1319.96 L2005.57 1319.96 L2005.57 1319.96  Z" fill="#009af9" fill-rule="evenodd" fill-opacity="1"/>
<polyline clip-path="url(#clip652)" style="stroke:#000000; stroke-linecap:round; stroke-linejoin:round; stroke-width:4; stroke-opacity:1; fill:none" points="2005.57,1319.96 2005.57,1384.24 2018.76,1384.24 2018.76,1319.96 2005.57,1319.96 "/>
<path clip-path="url(#clip652)" d="M2022.07 1319.65 L2022.07 1384.24 L2035.26 1384.24 L2035.26 1319.65 L2022.07 1319.65 L2022.07 1319.65  Z" fill="#009af9" fill-rule="evenodd" fill-opacity="1"/>
<polyline clip-path="url(#clip652)" style="stroke:#000000; stroke-linecap:round; stroke-linejoin:round; stroke-width:4; stroke-opacity:1; fill:none" points="2022.07,1319.65 2022.07,1384.24 2035.26,1384.24 2035.26,1319.65 2022.07,1319.65 "/>
<path clip-path="url(#clip652)" d="M2038.58 1319.28 L2038.58 1384.24 L2051.76 1384.24 L2051.76 1319.28 L2038.58 1319.28 L2038.58 1319.28  Z" fill="#009af9" fill-rule="evenodd" fill-opacity="1"/>
<polyline clip-path="url(#clip652)" style="stroke:#000000; stroke-linecap:round; stroke-linejoin:round; stroke-width:4; stroke-opacity:1; fill:none" points="2038.58,1319.28 2038.58,1384.24 2051.76,1384.24 2051.76,1319.28 2038.58,1319.28 "/>
<path clip-path="url(#clip652)" d="M2055.09 1318.82 L2055.09 1384.24 L2068.27 1384.24 L2068.27 1318.82 L2055.09 1318.82 L2055.09 1318.82  Z" fill="#009af9" fill-rule="evenodd" fill-opacity="1"/>
<polyline clip-path="url(#clip652)" style="stroke:#000000; stroke-linecap:round; stroke-linejoin:round; stroke-width:4; stroke-opacity:1; fill:none" points="2055.09,1318.82 2055.09,1384.24 2068.27,1384.24 2068.27,1318.82 2055.09,1318.82 "/>
<path clip-path="url(#clip652)" d="M2071.6 1318.28 L2071.6 1384.24 L2084.79 1384.24 L2084.79 1318.28 L2071.6 1318.28 L2071.6 1318.28  Z" fill="#009af9" fill-rule="evenodd" fill-opacity="1"/>
<polyline clip-path="url(#clip652)" style="stroke:#000000; stroke-linecap:round; stroke-linejoin:round; stroke-width:4; stroke-opacity:1; fill:none" points="2071.6,1318.28 2071.6,1384.24 2084.79,1384.24 2084.79,1318.28 2071.6,1318.28 "/>
<path clip-path="url(#clip652)" d="M2088.12 1317.61 L2088.12 1384.24 L2101.31 1384.24 L2101.31 1317.61 L2088.12 1317.61 L2088.12 1317.61  Z" fill="#009af9" fill-rule="evenodd" fill-opacity="1"/>
<polyline clip-path="url(#clip652)" style="stroke:#000000; stroke-linecap:round; stroke-linejoin:round; stroke-width:4; stroke-opacity:1; fill:none" points="2088.12,1317.61 2088.12,1384.24 2101.31,1384.24 2101.31,1317.61 2088.12,1317.61 "/>
<path clip-path="url(#clip652)" d="M2104.65 1316.78 L2104.65 1384.24 L2117.84 1384.24 L2117.84 1316.78 L2104.65 1316.78 L2104.65 1316.78  Z" fill="#009af9" fill-rule="evenodd" fill-opacity="1"/>
<polyline clip-path="url(#clip652)" style="stroke:#000000; stroke-linecap:round; stroke-linejoin:round; stroke-width:4; stroke-opacity:1; fill:none" points="2104.65,1316.78 2104.65,1384.24 2117.84,1384.24 2117.84,1316.78 2104.65,1316.78 "/>
<path clip-path="url(#clip652)" d="M2121.19 1315.74 L2121.19 1384.24 L2134.37 1384.24 L2134.37 1315.74 L2121.19 1315.74 L2121.19 1315.74  Z" fill="#009af9" fill-rule="evenodd" fill-opacity="1"/>
<polyline clip-path="url(#clip652)" style="stroke:#000000; stroke-linecap:round; stroke-linejoin:round; stroke-width:4; stroke-opacity:1; fill:none" points="2121.19,1315.74 2121.19,1384.24 2134.37,1384.24 2134.37,1315.74 2121.19,1315.74 "/>
<path clip-path="url(#clip652)" d="M2137.74 1314.4 L2137.74 1384.24 L2150.92 1384.24 L2150.92 1314.4 L2137.74 1314.4 L2137.74 1314.4  Z" fill="#009af9" fill-rule="evenodd" fill-opacity="1"/>
<polyline clip-path="url(#clip652)" style="stroke:#000000; stroke-linecap:round; stroke-linejoin:round; stroke-width:4; stroke-opacity:1; fill:none" points="2137.74,1314.4 2137.74,1384.24 2150.92,1384.24 2150.92,1314.4 2137.74,1314.4 "/>
<path clip-path="url(#clip652)" d="M2154.31 1312.62 L2154.31 1384.24 L2167.5 1384.24 L2167.5 1312.62 L2154.31 1312.62 L2154.31 1312.62  Z" fill="#009af9" fill-rule="evenodd" fill-opacity="1"/>
<polyline clip-path="url(#clip652)" style="stroke:#000000; stroke-linecap:round; stroke-linejoin:round; stroke-width:4; stroke-opacity:1; fill:none" points="2154.31,1312.62 2154.31,1384.24 2167.5,1384.24 2167.5,1312.62 2154.31,1312.62 "/>
<path clip-path="url(#clip652)" d="M2170.92 1310.11 L2170.92 1384.24 L2184.1 1384.24 L2184.1 1310.11 L2170.92 1310.11 L2170.92 1310.11  Z" fill="#009af9" fill-rule="evenodd" fill-opacity="1"/>
<polyline clip-path="url(#clip652)" style="stroke:#000000; stroke-linecap:round; stroke-linejoin:round; stroke-width:4; stroke-opacity:1; fill:none" points="2170.92,1310.11 2170.92,1384.24 2184.1,1384.24 2184.1,1310.11 2170.92,1310.11 "/>
<path clip-path="url(#clip652)" d="M2187.59 1306.2 L2187.59 1384.24 L2200.78 1384.24 L2200.78 1306.2 L2187.59 1306.2 L2187.59 1306.2  Z" fill="#009af9" fill-rule="evenodd" fill-opacity="1"/>
<polyline clip-path="url(#clip652)" style="stroke:#000000; stroke-linecap:round; stroke-linejoin:round; stroke-width:4; stroke-opacity:1; fill:none" points="2187.59,1306.2 2187.59,1384.24 2200.78,1384.24 2200.78,1306.2 2187.59,1306.2 "/>
<path clip-path="url(#clip652)" d="M2204.43 1298.74 L2204.43 1384.24 L2217.62 1384.24 L2217.62 1298.74 L2204.43 1298.74 L2204.43 1298.74  Z" fill="#009af9" fill-rule="evenodd" fill-opacity="1"/>
<polyline clip-path="url(#clip652)" style="stroke:#000000; stroke-linecap:round; stroke-linejoin:round; stroke-width:4; stroke-opacity:1; fill:none" points="2204.43,1298.74 2204.43,1384.24 2217.62,1384.24 2217.62,1298.74 2204.43,1298.74 "/>
<path clip-path="url(#clip652)" d="M2222.26 1266.11 L2222.26 1384.24 L2235.44 1384.24 L2235.44 1266.11 L2222.26 1266.11 L2222.26 1266.11  Z" fill="#009af9" fill-rule="evenodd" fill-opacity="1"/>
<polyline clip-path="url(#clip652)" style="stroke:#000000; stroke-linecap:round; stroke-linejoin:round; stroke-width:4; stroke-opacity:1; fill:none" points="2222.26,1266.11 2222.26,1384.24 2235.44,1384.24 2235.44,1266.11 2222.26,1266.11 "/>
<circle clip-path="url(#clip652)" style="fill:#009af9; stroke:none; fill-opacity:0" cx="343.772" cy="86.1857" r="2"/>
<circle clip-path="url(#clip652)" style="fill:#009af9; stroke:none; fill-opacity:0" cx="592.705" cy="1330.99" r="2"/>
<circle clip-path="url(#clip652)" style="fill:#009af9; stroke:none; fill-opacity:0" cx="609.596" cy="1316.43" r="2"/>
<circle clip-path="url(#clip652)" style="fill:#009af9; stroke:none; fill-opacity:0" cx="626.318" cy="1310.16" r="2"/>
<circle clip-path="url(#clip652)" style="fill:#009af9; stroke:none; fill-opacity:0" cx="642.975" cy="1306.5" r="2"/>
<circle clip-path="url(#clip652)" style="fill:#009af9; stroke:none; fill-opacity:0" cx="659.594" cy="1304.19" r="2"/>
<circle clip-path="url(#clip652)" style="fill:#009af9; stroke:none; fill-opacity:0" cx="676.188" cy="1302.68" r="2"/>
<circle clip-path="url(#clip652)" style="fill:#009af9; stroke:none; fill-opacity:0" cx="692.763" cy="1301.7" r="2"/>
<circle clip-path="url(#clip652)" style="fill:#009af9; stroke:none; fill-opacity:0" cx="709.324" cy="1301.09" r="2"/>
<circle clip-path="url(#clip652)" style="fill:#009af9; stroke:none; fill-opacity:0" cx="725.873" cy="1300.75" r="2"/>
<circle clip-path="url(#clip652)" style="fill:#009af9; stroke:none; fill-opacity:0" cx="742.413" cy="1300.61" r="2"/>
<circle clip-path="url(#clip652)" style="fill:#009af9; stroke:none; fill-opacity:0" cx="758.946" cy="1300.61" r="2"/>
<circle clip-path="url(#clip652)" style="fill:#009af9; stroke:none; fill-opacity:0" cx="775.472" cy="1300.73" r="2"/>
<circle clip-path="url(#clip652)" style="fill:#009af9; stroke:none; fill-opacity:0" cx="791.994" cy="1300.93" r="2"/>
<circle clip-path="url(#clip652)" style="fill:#009af9; stroke:none; fill-opacity:0" cx="808.51" cy="1301.2" r="2"/>
<circle clip-path="url(#clip652)" style="fill:#009af9; stroke:none; fill-opacity:0" cx="825.023" cy="1301.52" r="2"/>
<circle clip-path="url(#clip652)" style="fill:#009af9; stroke:none; fill-opacity:0" cx="841.532" cy="1301.88" r="2"/>
<circle clip-path="url(#clip652)" style="fill:#009af9; stroke:none; fill-opacity:0" cx="858.039" cy="1302.27" r="2"/>
<circle clip-path="url(#clip652)" style="fill:#009af9; stroke:none; fill-opacity:0" cx="874.542" cy="1302.69" r="2"/>
<circle clip-path="url(#clip652)" style="fill:#009af9; stroke:none; fill-opacity:0" cx="891.044" cy="1303.12" r="2"/>
<circle clip-path="url(#clip652)" style="fill:#009af9; stroke:none; fill-opacity:0" cx="907.543" cy="1303.57" r="2"/>
<circle clip-path="url(#clip652)" style="fill:#009af9; stroke:none; fill-opacity:0" cx="924.041" cy="1304.03" r="2"/>
<circle clip-path="url(#clip652)" style="fill:#009af9; stroke:none; fill-opacity:0" cx="940.537" cy="1304.49" r="2"/>
<circle clip-path="url(#clip652)" style="fill:#009af9; stroke:none; fill-opacity:0" cx="957.031" cy="1304.96" r="2"/>
<circle clip-path="url(#clip652)" style="fill:#009af9; stroke:none; fill-opacity:0" cx="973.525" cy="1305.43" r="2"/>
<circle clip-path="url(#clip652)" style="fill:#009af9; stroke:none; fill-opacity:0" cx="990.017" cy="1305.9" r="2"/>
<circle clip-path="url(#clip652)" style="fill:#009af9; stroke:none; fill-opacity:0" cx="1006.51" cy="1306.37" r="2"/>
<circle clip-path="url(#clip652)" style="fill:#009af9; stroke:none; fill-opacity:0" cx="1023" cy="1306.84" r="2"/>
<circle clip-path="url(#clip652)" style="fill:#009af9; stroke:none; fill-opacity:0" cx="1039.49" cy="1307.3" r="2"/>
<circle clip-path="url(#clip652)" style="fill:#009af9; stroke:none; fill-opacity:0" cx="1055.98" cy="1307.76" r="2"/>
<circle clip-path="url(#clip652)" style="fill:#009af9; stroke:none; fill-opacity:0" cx="1072.46" cy="1308.21" r="2"/>
<circle clip-path="url(#clip652)" style="fill:#009af9; stroke:none; fill-opacity:0" cx="1088.95" cy="1308.66" r="2"/>
<circle clip-path="url(#clip652)" style="fill:#009af9; stroke:none; fill-opacity:0" cx="1105.44" cy="1309.11" r="2"/>
<circle clip-path="url(#clip652)" style="fill:#009af9; stroke:none; fill-opacity:0" cx="1121.92" cy="1309.55" r="2"/>
<circle clip-path="url(#clip652)" style="fill:#009af9; stroke:none; fill-opacity:0" cx="1138.41" cy="1309.98" r="2"/>
<circle clip-path="url(#clip652)" style="fill:#009af9; stroke:none; fill-opacity:0" cx="1154.89" cy="1310.4" r="2"/>
<circle clip-path="url(#clip652)" style="fill:#009af9; stroke:none; fill-opacity:0" cx="1171.38" cy="1310.82" r="2"/>
<circle clip-path="url(#clip652)" style="fill:#009af9; stroke:none; fill-opacity:0" cx="1187.86" cy="1311.23" r="2"/>
<circle clip-path="url(#clip652)" style="fill:#009af9; stroke:none; fill-opacity:0" cx="1204.35" cy="1311.63" r="2"/>
<circle clip-path="url(#clip652)" style="fill:#009af9; stroke:none; fill-opacity:0" cx="1220.83" cy="1312.03" r="2"/>
<circle clip-path="url(#clip652)" style="fill:#009af9; stroke:none; fill-opacity:0" cx="1237.32" cy="1312.42" r="2"/>
<circle clip-path="url(#clip652)" style="fill:#009af9; stroke:none; fill-opacity:0" cx="1253.8" cy="1312.8" r="2"/>
<circle clip-path="url(#clip652)" style="fill:#009af9; stroke:none; fill-opacity:0" cx="1270.28" cy="1313.17" r="2"/>
<circle clip-path="url(#clip652)" style="fill:#009af9; stroke:none; fill-opacity:0" cx="1286.77" cy="1313.54" r="2"/>
<circle clip-path="url(#clip652)" style="fill:#009af9; stroke:none; fill-opacity:0" cx="1303.25" cy="1313.9" r="2"/>
<circle clip-path="url(#clip652)" style="fill:#009af9; stroke:none; fill-opacity:0" cx="1319.73" cy="1314.25" r="2"/>
<circle clip-path="url(#clip652)" style="fill:#009af9; stroke:none; fill-opacity:0" cx="1336.22" cy="1314.59" r="2"/>
<circle clip-path="url(#clip652)" style="fill:#009af9; stroke:none; fill-opacity:0" cx="1352.7" cy="1314.92" r="2"/>
<circle clip-path="url(#clip652)" style="fill:#009af9; stroke:none; fill-opacity:0" cx="1369.18" cy="1315.25" r="2"/>
<circle clip-path="url(#clip652)" style="fill:#009af9; stroke:none; fill-opacity:0" cx="1385.66" cy="1315.57" r="2"/>
<circle clip-path="url(#clip652)" style="fill:#009af9; stroke:none; fill-opacity:0" cx="1402.15" cy="1315.88" r="2"/>
<circle clip-path="url(#clip652)" style="fill:#009af9; stroke:none; fill-opacity:0" cx="1418.63" cy="1316.19" r="2"/>
<circle clip-path="url(#clip652)" style="fill:#009af9; stroke:none; fill-opacity:0" cx="1435.11" cy="1316.48" r="2"/>
<circle clip-path="url(#clip652)" style="fill:#009af9; stroke:none; fill-opacity:0" cx="1451.59" cy="1316.77" r="2"/>
<circle clip-path="url(#clip652)" style="fill:#009af9; stroke:none; fill-opacity:0" cx="1468.08" cy="1317.05" r="2"/>
<circle clip-path="url(#clip652)" style="fill:#009af9; stroke:none; fill-opacity:0" cx="1484.56" cy="1317.32" r="2"/>
<circle clip-path="url(#clip652)" style="fill:#009af9; stroke:none; fill-opacity:0" cx="1501.04" cy="1317.59" r="2"/>
<circle clip-path="url(#clip652)" style="fill:#009af9; stroke:none; fill-opacity:0" cx="1517.52" cy="1317.84" r="2"/>
<circle clip-path="url(#clip652)" style="fill:#009af9; stroke:none; fill-opacity:0" cx="1534.01" cy="1318.09" r="2"/>
<circle clip-path="url(#clip652)" style="fill:#009af9; stroke:none; fill-opacity:0" cx="1550.49" cy="1318.33" r="2"/>
<circle clip-path="url(#clip652)" style="fill:#009af9; stroke:none; fill-opacity:0" cx="1566.97" cy="1318.56" r="2"/>
<circle clip-path="url(#clip652)" style="fill:#009af9; stroke:none; fill-opacity:0" cx="1583.46" cy="1318.78" r="2"/>
<circle clip-path="url(#clip652)" style="fill:#009af9; stroke:none; fill-opacity:0" cx="1599.94" cy="1318.99" r="2"/>
<circle clip-path="url(#clip652)" style="fill:#009af9; stroke:none; fill-opacity:0" cx="1616.42" cy="1319.2" r="2"/>
<circle clip-path="url(#clip652)" style="fill:#009af9; stroke:none; fill-opacity:0" cx="1632.91" cy="1319.39" r="2"/>
<circle clip-path="url(#clip652)" style="fill:#009af9; stroke:none; fill-opacity:0" cx="1649.39" cy="1319.58" r="2"/>
<circle clip-path="url(#clip652)" style="fill:#009af9; stroke:none; fill-opacity:0" cx="1665.88" cy="1319.75" r="2"/>
<circle clip-path="url(#clip652)" style="fill:#009af9; stroke:none; fill-opacity:0" cx="1682.36" cy="1319.92" r="2"/>
<circle clip-path="url(#clip652)" style="fill:#009af9; stroke:none; fill-opacity:0" cx="1698.84" cy="1320.07" r="2"/>
<circle clip-path="url(#clip652)" style="fill:#009af9; stroke:none; fill-opacity:0" cx="1715.33" cy="1320.22" r="2"/>
<circle clip-path="url(#clip652)" style="fill:#009af9; stroke:none; fill-opacity:0" cx="1731.81" cy="1320.35" r="2"/>
<circle clip-path="url(#clip652)" style="fill:#009af9; stroke:none; fill-opacity:0" cx="1748.3" cy="1320.47" r="2"/>
<circle clip-path="url(#clip652)" style="fill:#009af9; stroke:none; fill-opacity:0" cx="1764.79" cy="1320.58" r="2"/>
<circle clip-path="url(#clip652)" style="fill:#009af9; stroke:none; fill-opacity:0" cx="1781.27" cy="1320.68" r="2"/>
<circle clip-path="url(#clip652)" style="fill:#009af9; stroke:none; fill-opacity:0" cx="1797.76" cy="1320.76" r="2"/>
<circle clip-path="url(#clip652)" style="fill:#009af9; stroke:none; fill-opacity:0" cx="1814.25" cy="1320.83" r="2"/>
<circle clip-path="url(#clip652)" style="fill:#009af9; stroke:none; fill-opacity:0" cx="1830.73" cy="1320.88" r="2"/>
<circle clip-path="url(#clip652)" style="fill:#009af9; stroke:none; fill-opacity:0" cx="1847.22" cy="1320.92" r="2"/>
<circle clip-path="url(#clip652)" style="fill:#009af9; stroke:none; fill-opacity:0" cx="1863.71" cy="1320.94" r="2"/>
<circle clip-path="url(#clip652)" style="fill:#009af9; stroke:none; fill-opacity:0" cx="1880.2" cy="1320.94" r="2"/>
<circle clip-path="url(#clip652)" style="fill:#009af9; stroke:none; fill-opacity:0" cx="1896.69" cy="1320.92" r="2"/>
<circle clip-path="url(#clip652)" style="fill:#009af9; stroke:none; fill-opacity:0" cx="1913.18" cy="1320.87" r="2"/>
<circle clip-path="url(#clip652)" style="fill:#009af9; stroke:none; fill-opacity:0" cx="1929.68" cy="1320.8" r="2"/>
<circle clip-path="url(#clip652)" style="fill:#009af9; stroke:none; fill-opacity:0" cx="1946.17" cy="1320.71" r="2"/>
<circle clip-path="url(#clip652)" style="fill:#009af9; stroke:none; fill-opacity:0" cx="1962.67" cy="1320.58" r="2"/>
<circle clip-path="url(#clip652)" style="fill:#009af9; stroke:none; fill-opacity:0" cx="1979.16" cy="1320.41" r="2"/>
<circle clip-path="url(#clip652)" style="fill:#009af9; stroke:none; fill-opacity:0" cx="1995.66" cy="1320.21" r="2"/>
<circle clip-path="url(#clip652)" style="fill:#009af9; stroke:none; fill-opacity:0" cx="2012.16" cy="1319.96" r="2"/>
<circle clip-path="url(#clip652)" style="fill:#009af9; stroke:none; fill-opacity:0" cx="2028.67" cy="1319.65" r="2"/>
<circle clip-path="url(#clip652)" style="fill:#009af9; stroke:none; fill-opacity:0" cx="2045.17" cy="1319.28" r="2"/>
<circle clip-path="url(#clip652)" style="fill:#009af9; stroke:none; fill-opacity:0" cx="2061.68" cy="1318.82" r="2"/>
<circle clip-path="url(#clip652)" style="fill:#009af9; stroke:none; fill-opacity:0" cx="2078.2" cy="1318.28" r="2"/>
<circle clip-path="url(#clip652)" style="fill:#009af9; stroke:none; fill-opacity:0" cx="2094.72" cy="1317.61" r="2"/>
<circle clip-path="url(#clip652)" style="fill:#009af9; stroke:none; fill-opacity:0" cx="2111.24" cy="1316.78" r="2"/>
<circle clip-path="url(#clip652)" style="fill:#009af9; stroke:none; fill-opacity:0" cx="2127.78" cy="1315.74" r="2"/>
<circle clip-path="url(#clip652)" style="fill:#009af9; stroke:none; fill-opacity:0" cx="2144.33" cy="1314.4" r="2"/>
<circle clip-path="url(#clip652)" style="fill:#009af9; stroke:none; fill-opacity:0" cx="2160.9" cy="1312.62" r="2"/>
<circle clip-path="url(#clip652)" style="fill:#009af9; stroke:none; fill-opacity:0" cx="2177.51" cy="1310.11" r="2"/>
<circle clip-path="url(#clip652)" style="fill:#009af9; stroke:none; fill-opacity:0" cx="2194.19" cy="1306.2" r="2"/>
<circle clip-path="url(#clip652)" style="fill:#009af9; stroke:none; fill-opacity:0" cx="2211.03" cy="1298.74" r="2"/>
<circle clip-path="url(#clip652)" style="fill:#009af9; stroke:none; fill-opacity:0" cx="2228.85" cy="1266.11" r="2"/>
<path clip-path="url(#clip650)" d="M2015.94 196.789 L2281.66 196.789 L2281.66 93.1086 L2015.94 93.1086  Z" fill="#ffffff" fill-rule="evenodd" fill-opacity="1"/>
<polyline clip-path="url(#clip650)" style="stroke:#000000; stroke-linecap:round; stroke-linejoin:round; stroke-width:4; stroke-opacity:1; fill:none" points="2015.94,196.789 2281.66,196.789 2281.66,93.1086 2015.94,93.1086 2015.94,196.789 "/>
<path clip-path="url(#clip650)" d="M2039.64 165.685 L2181.83 165.685 L2181.83 124.213 L2039.64 124.213 L2039.64 165.685  Z" fill="#009af9" fill-rule="evenodd" fill-opacity="1"/>
<polyline clip-path="url(#clip650)" style="stroke:#000000; stroke-linecap:round; stroke-linejoin:round; stroke-width:4; stroke-opacity:1; fill:none" points="2039.64,165.685 2181.83,165.685 2181.83,124.213 2039.64,124.213 2039.64,165.685 "/>
<path clip-path="url(#clip650)" d="M2219.37 164.636 Q2217.57 169.266 2215.85 170.678 Q2214.14 172.09 2211.27 172.09 L2207.87 172.09 L2207.87 168.525 L2210.37 168.525 Q2212.13 168.525 2213.1 167.692 Q2214.07 166.858 2215.25 163.756 L2216.02 161.812 L2205.53 136.303 L2210.04 136.303 L2218.15 156.581 L2226.25 136.303 L2230.76 136.303 L2219.37 164.636 Z" fill="#000000" fill-rule="evenodd" fill-opacity="1" /><path clip-path="url(#clip650)" d="M2238.05 158.293 L2245.69 158.293 L2245.69 131.928 L2237.38 133.595 L2237.38 129.335 L2245.65 127.669 L2250.32 127.669 L2250.32 158.293 L2257.96 158.293 L2257.96 162.229 L2238.05 162.229 L2238.05 158.293 Z" fill="#000000" fill-rule="evenodd" fill-opacity="1" /></svg>
