<?xml version="1.0" encoding="utf-8"?>
<svg xmlns="http://www.w3.org/2000/svg" xmlns:xlink="http://www.w3.org/1999/xlink" width="600" height="400" viewBox="0 0 2400 1600">
<defs>
  <clipPath id="clip330">
    <rect x="0" y="0" width="2400" height="1600"/>
  </clipPath>
</defs>
<path clip-path="url(#clip330)" d="M0 1600 L2400 1600 L2400 0 L0 0  Z" fill="#ffffff" fill-rule="evenodd" fill-opacity="1"/>
<defs>
  <clipPath id="clip331">
    <rect x="480" y="0" width="1681" height="1600"/>
  </clipPath>
</defs>
<path clip-path="url(#clip330)" d="M219.866 1423.18 L2352.76 1423.18 L2352.76 47.2441 L219.866 47.2441  Z" fill="#ffffff" fill-rule="evenodd" fill-opacity="1"/>
<defs>
  <clipPath id="clip332">
    <rect x="219" y="47" width="2134" height="1377"/>
  </clipPath>
</defs>
<polyline clip-path="url(#clip332)" style="stroke:#000000; stroke-linecap:round; stroke-linejoin:round; stroke-width:2; stroke-opacity:0.1; fill:none" points="433.347,1423.18 433.347,47.2441 "/>
<polyline clip-path="url(#clip332)" style="stroke:#000000; stroke-linecap:round; stroke-linejoin:round; stroke-width:2; stroke-opacity:0.1; fill:none" points="902.985,1423.18 902.985,47.2441 "/>
<polyline clip-path="url(#clip332)" style="stroke:#000000; stroke-linecap:round; stroke-linejoin:round; stroke-width:2; stroke-opacity:0.1; fill:none" points="1372.62,1423.18 1372.62,47.2441 "/>
<polyline clip-path="url(#clip332)" style="stroke:#000000; stroke-linecap:round; stroke-linejoin:round; stroke-width:2; stroke-opacity:0.1; fill:none" points="1842.26,1423.18 1842.26,47.2441 "/>
<polyline clip-path="url(#clip332)" style="stroke:#000000; stroke-linecap:round; stroke-linejoin:round; stroke-width:2; stroke-opacity:0.1; fill:none" points="2311.9,1423.18 2311.9,47.2441 "/>
<polyline clip-path="url(#clip330)" style="stroke:#000000; stroke-linecap:round; stroke-linejoin:round; stroke-width:4; stroke-opacity:1; fill:none" points="219.866,1423.18 2352.76,1423.18 "/>
<polyline clip-path="url(#clip330)" style="stroke:#000000; stroke-linecap:round; stroke-linejoin:round; stroke-width:4; stroke-opacity:1; fill:none" points="433.347,1423.18 433.347,1404.28 "/>
<polyline clip-path="url(#clip330)" style="stroke:#000000; stroke-linecap:round; stroke-linejoin:round; stroke-width:4; stroke-opacity:1; fill:none" points="902.985,1423.18 902.985,1404.28 "/>
<polyline clip-path="url(#clip330)" style="stroke:#000000; stroke-linecap:round; stroke-linejoin:round; stroke-width:4; stroke-opacity:1; fill:none" points="1372.62,1423.18 1372.62,1404.28 "/>
<polyline clip-path="url(#clip330)" style="stroke:#000000; stroke-linecap:round; stroke-linejoin:round; stroke-width:4; stroke-opacity:1; fill:none" points="1842.26,1423.18 1842.26,1404.28 "/>
<polyline clip-path="url(#clip330)" style="stroke:#000000; stroke-linecap:round; stroke-linejoin:round; stroke-width:4; stroke-opacity:1; fill:none" points="2311.9,1423.18 2311.9,1404.28 "/>
<path clip-path="url(#clip330)" d="M395.65 1454.1 Q392.039 1454.1 390.21 1457.66 Q388.405 1461.2 388.405 1468.33 Q388.405 1475.44 390.21 1479.01 Q392.039 1482.55 395.65 1482.55 Q399.285 1482.55 401.09 1479.01 Q402.919 1475.44 402.919 1468.33 Q402.919 1461.2 401.09 1457.66 Q399.285 1454.1 395.65 1454.1 M395.65 1450.39 Q401.46 1450.39 404.516 1455 Q407.595 1459.58 407.595 1468.33 Q407.595 1477.06 404.516 1481.67 Q401.46 1486.25 395.65 1486.25 Q389.84 1486.25 386.761 1481.67 Q383.706 1477.06 383.706 1468.33 Q383.706 1459.58 386.761 1455 Q389.84 1450.39 395.65 1450.39 Z" fill="#000000" fill-rule="evenodd" fill-opacity="1" /><path clip-path="url(#clip330)" d="M415.812 1479.7 L420.696 1479.7 L420.696 1485.58 L415.812 1485.58 L415.812 1479.7 Z" fill="#000000" fill-rule="evenodd" fill-opacity="1" /><path clip-path="url(#clip330)" d="M440.882 1454.1 Q437.27 1454.1 435.442 1457.66 Q433.636 1461.2 433.636 1468.33 Q433.636 1475.44 435.442 1479.01 Q437.27 1482.55 440.882 1482.55 Q444.516 1482.55 446.321 1479.01 Q448.15 1475.44 448.15 1468.33 Q448.15 1461.2 446.321 1457.66 Q444.516 1454.1 440.882 1454.1 M440.882 1450.39 Q446.692 1450.39 449.747 1455 Q452.826 1459.58 452.826 1468.33 Q452.826 1477.06 449.747 1481.67 Q446.692 1486.25 440.882 1486.25 Q435.071 1486.25 431.993 1481.67 Q428.937 1477.06 428.937 1468.33 Q428.937 1459.58 431.993 1455 Q435.071 1450.39 440.882 1450.39 Z" fill="#000000" fill-rule="evenodd" fill-opacity="1" /><path clip-path="url(#clip330)" d="M471.043 1454.1 Q467.432 1454.1 465.604 1457.66 Q463.798 1461.2 463.798 1468.33 Q463.798 1475.44 465.604 1479.01 Q467.432 1482.55 471.043 1482.55 Q474.678 1482.55 476.483 1479.01 Q478.312 1475.44 478.312 1468.33 Q478.312 1461.2 476.483 1457.66 Q474.678 1454.1 471.043 1454.1 M471.043 1450.39 Q476.854 1450.39 479.909 1455 Q482.988 1459.58 482.988 1468.33 Q482.988 1477.06 479.909 1481.67 Q476.854 1486.25 471.043 1486.25 Q465.233 1486.25 462.155 1481.67 Q459.099 1477.06 459.099 1468.33 Q459.099 1459.58 462.155 1455 Q465.233 1450.39 471.043 1450.39 Z" fill="#000000" fill-rule="evenodd" fill-opacity="1" /><path clip-path="url(#clip330)" d="M865.786 1454.1 Q862.175 1454.1 860.346 1457.66 Q858.54 1461.2 858.54 1468.33 Q858.54 1475.44 860.346 1479.01 Q862.175 1482.55 865.786 1482.55 Q869.42 1482.55 871.225 1479.01 Q873.054 1475.44 873.054 1468.33 Q873.054 1461.2 871.225 1457.66 Q869.42 1454.1 865.786 1454.1 M865.786 1450.39 Q871.596 1450.39 874.651 1455 Q877.73 1459.58 877.73 1468.33 Q877.73 1477.06 874.651 1481.67 Q871.596 1486.25 865.786 1486.25 Q859.976 1486.25 856.897 1481.67 Q853.841 1477.06 853.841 1468.33 Q853.841 1459.58 856.897 1455 Q859.976 1450.39 865.786 1450.39 Z" fill="#000000" fill-rule="evenodd" fill-opacity="1" /><path clip-path="url(#clip330)" d="M885.948 1479.7 L890.832 1479.7 L890.832 1485.58 L885.948 1485.58 L885.948 1479.7 Z" fill="#000000" fill-rule="evenodd" fill-opacity="1" /><path clip-path="url(#clip330)" d="M905.045 1481.64 L921.364 1481.64 L921.364 1485.58 L899.42 1485.58 L899.42 1481.64 Q902.082 1478.89 906.665 1474.26 Q911.272 1469.61 912.452 1468.27 Q914.697 1465.74 915.577 1464.01 Q916.48 1462.25 916.48 1460.56 Q916.48 1457.8 914.535 1456.07 Q912.614 1454.33 909.512 1454.33 Q907.313 1454.33 904.86 1455.09 Q902.429 1455.86 899.651 1457.41 L899.651 1452.69 Q902.475 1451.55 904.929 1450.97 Q907.383 1450.39 909.42 1450.39 Q914.79 1450.39 917.984 1453.08 Q921.179 1455.77 921.179 1460.26 Q921.179 1462.39 920.369 1464.31 Q919.582 1466.2 917.475 1468.8 Q916.897 1469.47 913.795 1472.69 Q910.693 1475.88 905.045 1481.64 Z" fill="#000000" fill-rule="evenodd" fill-opacity="1" /><path clip-path="url(#clip330)" d="M931.225 1451.02 L949.582 1451.02 L949.582 1454.96 L935.508 1454.96 L935.508 1463.43 Q936.526 1463.08 937.545 1462.92 Q938.563 1462.73 939.582 1462.73 Q945.369 1462.73 948.748 1465.9 Q952.128 1469.08 952.128 1474.49 Q952.128 1480.07 948.656 1483.17 Q945.183 1486.25 938.864 1486.25 Q936.688 1486.25 934.42 1485.88 Q932.174 1485.51 929.767 1484.77 L929.767 1480.07 Q931.85 1481.2 934.072 1481.76 Q936.295 1482.32 938.771 1482.32 Q942.776 1482.32 945.114 1480.21 Q947.452 1478.1 947.452 1474.49 Q947.452 1470.88 945.114 1468.77 Q942.776 1466.67 938.771 1466.67 Q936.896 1466.67 935.021 1467.08 Q933.17 1467.5 931.225 1468.38 L931.225 1451.02 Z" fill="#000000" fill-rule="evenodd" fill-opacity="1" /><path clip-path="url(#clip330)" d="M1334.93 1454.1 Q1331.31 1454.1 1329.49 1457.66 Q1327.68 1461.2 1327.68 1468.33 Q1327.68 1475.44 1329.49 1479.01 Q1331.31 1482.55 1334.93 1482.55 Q1338.56 1482.55 1340.37 1479.01 Q1342.19 1475.44 1342.19 1468.33 Q1342.19 1461.2 1340.37 1457.66 Q1338.56 1454.1 1334.93 1454.1 M1334.93 1450.39 Q1340.74 1450.39 1343.79 1455 Q1346.87 1459.58 1346.87 1468.33 Q1346.87 1477.06 1343.79 1481.67 Q1340.74 1486.25 1334.93 1486.25 Q1329.12 1486.25 1326.04 1481.67 Q1322.98 1477.06 1322.98 1468.33 Q1322.98 1459.58 1326.04 1455 Q1329.12 1450.39 1334.93 1450.39 Z" fill="#000000" fill-rule="evenodd" fill-opacity="1" /><path clip-path="url(#clip330)" d="M1355.09 1479.7 L1359.97 1479.7 L1359.97 1485.58 L1355.09 1485.58 L1355.09 1479.7 Z" fill="#000000" fill-rule="evenodd" fill-opacity="1" /><path clip-path="url(#clip330)" d="M1370.2 1451.02 L1388.56 1451.02 L1388.56 1454.96 L1374.49 1454.96 L1374.49 1463.43 Q1375.5 1463.08 1376.52 1462.92 Q1377.54 1462.73 1378.56 1462.73 Q1384.35 1462.73 1387.73 1465.9 Q1391.11 1469.08 1391.11 1474.49 Q1391.11 1480.07 1387.63 1483.17 Q1384.16 1486.25 1377.84 1486.25 Q1375.67 1486.25 1373.4 1485.88 Q1371.15 1485.51 1368.74 1484.77 L1368.74 1480.07 Q1370.83 1481.2 1373.05 1481.76 Q1375.27 1482.32 1377.75 1482.32 Q1381.75 1482.32 1384.09 1480.21 Q1386.43 1478.1 1386.43 1474.49 Q1386.43 1470.88 1384.09 1468.77 Q1381.75 1466.67 1377.75 1466.67 Q1375.87 1466.67 1374 1467.08 Q1372.15 1467.5 1370.2 1468.38 L1370.2 1451.02 Z" fill="#000000" fill-rule="evenodd" fill-opacity="1" /><path clip-path="url(#clip330)" d="M1410.32 1454.1 Q1406.71 1454.1 1404.88 1457.66 Q1403.07 1461.2 1403.07 1468.33 Q1403.07 1475.44 1404.88 1479.01 Q1406.71 1482.55 1410.32 1482.55 Q1413.95 1482.55 1415.76 1479.01 Q1417.59 1475.44 1417.59 1468.33 Q1417.59 1461.2 1415.76 1457.66 Q1413.95 1454.1 1410.32 1454.1 M1410.32 1450.39 Q1416.13 1450.39 1419.18 1455 Q1422.26 1459.58 1422.26 1468.33 Q1422.26 1477.06 1419.18 1481.67 Q1416.13 1486.25 1410.32 1486.25 Q1404.51 1486.25 1401.43 1481.67 Q1398.37 1477.06 1398.37 1468.33 Q1398.37 1459.58 1401.43 1455 Q1404.51 1450.39 1410.32 1450.39 Z" fill="#000000" fill-rule="evenodd" fill-opacity="1" /><path clip-path="url(#clip330)" d="M1805.06 1454.1 Q1801.45 1454.1 1799.62 1457.66 Q1797.82 1461.2 1797.82 1468.33 Q1797.82 1475.44 1799.62 1479.01 Q1801.45 1482.55 1805.06 1482.55 Q1808.7 1482.55 1810.5 1479.01 Q1812.33 1475.44 1812.33 1468.33 Q1812.33 1461.2 1810.5 1457.66 Q1808.7 1454.1 1805.06 1454.1 M1805.06 1450.39 Q1810.87 1450.39 1813.93 1455 Q1817.01 1459.58 1817.01 1468.33 Q1817.01 1477.06 1813.93 1481.67 Q1810.87 1486.25 1805.06 1486.25 Q1799.25 1486.25 1796.17 1481.67 Q1793.12 1477.06 1793.12 1468.33 Q1793.12 1459.58 1796.17 1455 Q1799.25 1450.39 1805.06 1450.39 Z" fill="#000000" fill-rule="evenodd" fill-opacity="1" /><path clip-path="url(#clip330)" d="M1825.22 1479.7 L1830.11 1479.7 L1830.11 1485.58 L1825.22 1485.58 L1825.22 1479.7 Z" fill="#000000" fill-rule="evenodd" fill-opacity="1" /><path clip-path="url(#clip330)" d="M1839.11 1451.02 L1861.33 1451.02 L1861.33 1453.01 L1848.79 1485.58 L1843.9 1485.58 L1855.71 1454.96 L1839.11 1454.96 L1839.11 1451.02 Z" fill="#000000" fill-rule="evenodd" fill-opacity="1" /><path clip-path="url(#clip330)" d="M1870.5 1451.02 L1888.86 1451.02 L1888.86 1454.96 L1874.78 1454.96 L1874.78 1463.43 Q1875.8 1463.08 1876.82 1462.92 Q1877.84 1462.73 1878.86 1462.73 Q1884.64 1462.73 1888.02 1465.9 Q1891.4 1469.08 1891.4 1474.49 Q1891.4 1480.07 1887.93 1483.17 Q1884.46 1486.25 1878.14 1486.25 Q1875.96 1486.25 1873.69 1485.88 Q1871.45 1485.51 1869.04 1484.77 L1869.04 1480.07 Q1871.13 1481.2 1873.35 1481.76 Q1875.57 1482.32 1878.05 1482.32 Q1882.05 1482.32 1884.39 1480.21 Q1886.73 1478.1 1886.73 1474.49 Q1886.73 1470.88 1884.39 1468.77 Q1882.05 1466.67 1878.05 1466.67 Q1876.17 1466.67 1874.3 1467.08 Q1872.44 1467.5 1870.5 1468.38 L1870.5 1451.02 Z" fill="#000000" fill-rule="evenodd" fill-opacity="1" /><path clip-path="url(#clip330)" d="M2263.97 1481.64 L2271.61 1481.64 L2271.61 1455.28 L2263.3 1456.95 L2263.3 1452.69 L2271.56 1451.02 L2276.24 1451.02 L2276.24 1481.64 L2283.88 1481.64 L2283.88 1485.58 L2263.97 1485.58 L2263.97 1481.64 Z" fill="#000000" fill-rule="evenodd" fill-opacity="1" /><path clip-path="url(#clip330)" d="M2293.32 1479.7 L2298.21 1479.7 L2298.21 1485.58 L2293.32 1485.58 L2293.32 1479.7 Z" fill="#000000" fill-rule="evenodd" fill-opacity="1" /><path clip-path="url(#clip330)" d="M2318.39 1454.1 Q2314.78 1454.1 2312.95 1457.66 Q2311.15 1461.2 2311.15 1468.33 Q2311.15 1475.44 2312.95 1479.01 Q2314.78 1482.55 2318.39 1482.55 Q2322.02 1482.55 2323.83 1479.01 Q2325.66 1475.44 2325.66 1468.33 Q2325.66 1461.2 2323.83 1457.66 Q2322.02 1454.1 2318.39 1454.1 M2318.39 1450.39 Q2324.2 1450.39 2327.26 1455 Q2330.34 1459.58 2330.34 1468.33 Q2330.34 1477.06 2327.26 1481.67 Q2324.2 1486.25 2318.39 1486.25 Q2312.58 1486.25 2309.5 1481.67 Q2306.45 1477.06 2306.45 1468.33 Q2306.45 1459.58 2309.5 1455 Q2312.58 1450.39 2318.39 1450.39 Z" fill="#000000" fill-rule="evenodd" fill-opacity="1" /><path clip-path="url(#clip330)" d="M2348.55 1454.1 Q2344.94 1454.1 2343.11 1457.66 Q2341.31 1461.2 2341.31 1468.33 Q2341.31 1475.44 2343.11 1479.01 Q2344.94 1482.55 2348.55 1482.55 Q2352.19 1482.55 2353.99 1479.01 Q2355.82 1475.44 2355.82 1468.33 Q2355.82 1461.2 2353.99 1457.66 Q2352.19 1454.1 2348.55 1454.1 M2348.55 1450.39 Q2354.36 1450.39 2357.42 1455 Q2360.5 1459.58 2360.5 1468.33 Q2360.5 1477.06 2357.42 1481.67 Q2354.36 1486.25 2348.55 1486.25 Q2342.74 1486.25 2339.66 1481.67 Q2336.61 1477.06 2336.61 1468.33 Q2336.61 1459.58 2339.66 1455 Q2342.74 1450.39 2348.55 1450.39 Z" fill="#000000" fill-rule="evenodd" fill-opacity="1" /><path clip-path="url(#clip330)" d="M1271 1520.52 L1301.05 1520.52 L1301.05 1525.93 L1277.43 1525.93 L1277.43 1540 L1300.06 1540 L1300.06 1545.41 L1277.43 1545.41 L1277.43 1562.63 L1301.62 1562.63 L1301.62 1568.04 L1271 1568.04 L1271 1520.52 Z" fill="#000000" fill-rule="evenodd" fill-opacity="1" /><polyline clip-path="url(#clip332)" style="stroke:#000000; stroke-linecap:round; stroke-linejoin:round; stroke-width:2; stroke-opacity:0.1; fill:none" points="219.866,1384.24 2352.76,1384.24 "/>
<polyline clip-path="url(#clip332)" style="stroke:#000000; stroke-linecap:round; stroke-linejoin:round; stroke-width:2; stroke-opacity:0.1; fill:none" points="219.866,1072.2 2352.76,1072.2 "/>
<polyline clip-path="url(#clip332)" style="stroke:#000000; stroke-linecap:round; stroke-linejoin:round; stroke-width:2; stroke-opacity:0.1; fill:none" points="219.866,760.156 2352.76,760.156 "/>
<polyline clip-path="url(#clip332)" style="stroke:#000000; stroke-linecap:round; stroke-linejoin:round; stroke-width:2; stroke-opacity:0.1; fill:none" points="219.866,448.115 2352.76,448.115 "/>
<polyline clip-path="url(#clip332)" style="stroke:#000000; stroke-linecap:round; stroke-linejoin:round; stroke-width:2; stroke-opacity:0.1; fill:none" points="219.866,136.074 2352.76,136.074 "/>
<polyline clip-path="url(#clip330)" style="stroke:#000000; stroke-linecap:round; stroke-linejoin:round; stroke-width:4; stroke-opacity:1; fill:none" points="219.866,1423.18 219.866,47.2441 "/>
<polyline clip-path="url(#clip330)" style="stroke:#000000; stroke-linecap:round; stroke-linejoin:round; stroke-width:4; stroke-opacity:1; fill:none" points="219.866,1384.24 238.764,1384.24 "/>
<polyline clip-path="url(#clip330)" style="stroke:#000000; stroke-linecap:round; stroke-linejoin:round; stroke-width:4; stroke-opacity:1; fill:none" points="219.866,1072.2 238.764,1072.2 "/>
<polyline clip-path="url(#clip330)" style="stroke:#000000; stroke-linecap:round; stroke-linejoin:round; stroke-width:4; stroke-opacity:1; fill:none" points="219.866,760.156 238.764,760.156 "/>
<polyline clip-path="url(#clip330)" style="stroke:#000000; stroke-linecap:round; stroke-linejoin:round; stroke-width:4; stroke-opacity:1; fill:none" points="219.866,448.115 238.764,448.115 "/>
<polyline clip-path="url(#clip330)" style="stroke:#000000; stroke-linecap:round; stroke-linejoin:round; stroke-width:4; stroke-opacity:1; fill:none" points="219.866,136.074 238.764,136.074 "/>
<path clip-path="url(#clip330)" d="M126.691 1370.04 Q123.08 1370.04 121.251 1373.6 Q119.445 1377.14 119.445 1384.27 Q119.445 1391.38 121.251 1394.94 Q123.08 1398.49 126.691 1398.49 Q130.325 1398.49 132.13 1394.94 Q133.959 1391.38 133.959 1384.27 Q133.959 1377.14 132.13 1373.6 Q130.325 1370.04 126.691 1370.04 M126.691 1366.33 Q132.501 1366.33 135.556 1370.94 Q138.635 1375.52 138.635 1384.27 Q138.635 1393 135.556 1397.61 Q132.501 1402.19 126.691 1402.19 Q120.88 1402.19 117.802 1397.61 Q114.746 1393 114.746 1384.27 Q114.746 1375.52 117.802 1370.94 Q120.88 1366.33 126.691 1366.33 Z" fill="#000000" fill-rule="evenodd" fill-opacity="1" /><path clip-path="url(#clip330)" d="M146.853 1395.64 L151.737 1395.64 L151.737 1401.52 L146.853 1401.52 L146.853 1395.64 Z" fill="#000000" fill-rule="evenodd" fill-opacity="1" /><path clip-path="url(#clip330)" d="M171.922 1370.04 Q168.311 1370.04 166.482 1373.6 Q164.677 1377.14 164.677 1384.27 Q164.677 1391.38 166.482 1394.94 Q168.311 1398.49 171.922 1398.49 Q175.556 1398.49 177.362 1394.94 Q179.19 1391.38 179.19 1384.27 Q179.19 1377.14 177.362 1373.6 Q175.556 1370.04 171.922 1370.04 M171.922 1366.33 Q177.732 1366.33 180.788 1370.94 Q183.866 1375.52 183.866 1384.27 Q183.866 1393 180.788 1397.61 Q177.732 1402.19 171.922 1402.19 Q166.112 1402.19 163.033 1397.61 Q159.978 1393 159.978 1384.27 Q159.978 1375.52 163.033 1370.94 Q166.112 1366.33 171.922 1366.33 Z" fill="#000000" fill-rule="evenodd" fill-opacity="1" /><path clip-path="url(#clip330)" d="M128.288 1058 Q124.677 1058 122.848 1061.56 Q121.043 1065.1 121.043 1072.23 Q121.043 1079.34 122.848 1082.9 Q124.677 1086.44 128.288 1086.44 Q131.922 1086.44 133.728 1082.9 Q135.556 1079.34 135.556 1072.23 Q135.556 1065.1 133.728 1061.56 Q131.922 1058 128.288 1058 M128.288 1054.29 Q134.098 1054.29 137.154 1058.9 Q140.232 1063.48 140.232 1072.23 Q140.232 1080.96 137.154 1085.57 Q134.098 1090.15 128.288 1090.15 Q122.478 1090.15 119.399 1085.57 Q116.343 1080.96 116.343 1072.23 Q116.343 1063.48 119.399 1058.9 Q122.478 1054.29 128.288 1054.29 Z" fill="#000000" fill-rule="evenodd" fill-opacity="1" /><path clip-path="url(#clip330)" d="M148.45 1083.6 L153.334 1083.6 L153.334 1089.48 L148.45 1089.48 L148.45 1083.6 Z" fill="#000000" fill-rule="evenodd" fill-opacity="1" /><path clip-path="url(#clip330)" d="M167.547 1085.54 L183.866 1085.54 L183.866 1089.48 L161.922 1089.48 L161.922 1085.54 Q164.584 1082.79 169.167 1078.16 Q173.774 1073.51 174.954 1072.16 Q177.2 1069.64 178.079 1067.9 Q178.982 1066.14 178.982 1064.45 Q178.982 1061.7 177.038 1059.96 Q175.116 1058.23 172.014 1058.23 Q169.815 1058.23 167.362 1058.99 Q164.931 1059.76 162.153 1061.31 L162.153 1056.58 Q164.977 1055.45 167.431 1054.87 Q169.885 1054.29 171.922 1054.29 Q177.292 1054.29 180.487 1056.98 Q183.681 1059.66 183.681 1064.15 Q183.681 1066.28 182.871 1068.2 Q182.084 1070.1 179.977 1072.69 Q179.399 1073.37 176.297 1076.58 Q173.195 1079.78 167.547 1085.54 Z" fill="#000000" fill-rule="evenodd" fill-opacity="1" /><path clip-path="url(#clip330)" d="M126.205 745.955 Q122.593 745.955 120.765 749.52 Q118.959 753.061 118.959 760.191 Q118.959 767.297 120.765 770.862 Q122.593 774.404 126.205 774.404 Q129.839 774.404 131.644 770.862 Q133.473 767.297 133.473 760.191 Q133.473 753.061 131.644 749.52 Q129.839 745.955 126.205 745.955 M126.205 742.251 Q132.015 742.251 135.07 746.858 Q138.149 751.441 138.149 760.191 Q138.149 768.918 135.07 773.524 Q132.015 778.108 126.205 778.108 Q120.394 778.108 117.316 773.524 Q114.26 768.918 114.26 760.191 Q114.26 751.441 117.316 746.858 Q120.394 742.251 126.205 742.251 Z" fill="#000000" fill-rule="evenodd" fill-opacity="1" /><path clip-path="url(#clip330)" d="M146.366 771.557 L151.251 771.557 L151.251 777.436 L146.366 777.436 L146.366 771.557 Z" fill="#000000" fill-rule="evenodd" fill-opacity="1" /><path clip-path="url(#clip330)" d="M174.283 746.95 L162.477 765.399 L174.283 765.399 L174.283 746.95 M173.056 742.876 L178.936 742.876 L178.936 765.399 L183.866 765.399 L183.866 769.288 L178.936 769.288 L178.936 777.436 L174.283 777.436 L174.283 769.288 L158.681 769.288 L158.681 764.774 L173.056 742.876 Z" fill="#000000" fill-rule="evenodd" fill-opacity="1" /><path clip-path="url(#clip330)" d="M126.529 433.914 Q122.918 433.914 121.089 437.479 Q119.283 441.02 119.283 448.15 Q119.283 455.256 121.089 458.821 Q122.918 462.363 126.529 462.363 Q130.163 462.363 131.968 458.821 Q133.797 455.256 133.797 448.15 Q133.797 441.02 131.968 437.479 Q130.163 433.914 126.529 433.914 M126.529 430.21 Q132.339 430.21 135.394 434.817 Q138.473 439.4 138.473 448.15 Q138.473 456.877 135.394 461.483 Q132.339 466.067 126.529 466.067 Q120.718 466.067 117.64 461.483 Q114.584 456.877 114.584 448.15 Q114.584 439.4 117.64 434.817 Q120.718 430.21 126.529 430.21 Z" fill="#000000" fill-rule="evenodd" fill-opacity="1" /><path clip-path="url(#clip330)" d="M146.691 459.516 L151.575 459.516 L151.575 465.395 L146.691 465.395 L146.691 459.516 Z" fill="#000000" fill-rule="evenodd" fill-opacity="1" /><path clip-path="url(#clip330)" d="M172.339 446.252 Q169.19 446.252 167.339 448.405 Q165.51 450.557 165.51 454.307 Q165.51 458.034 167.339 460.21 Q169.19 462.363 172.339 462.363 Q175.487 462.363 177.315 460.21 Q179.167 458.034 179.167 454.307 Q179.167 450.557 177.315 448.405 Q175.487 446.252 172.339 446.252 M181.621 431.599 L181.621 435.858 Q179.862 435.025 178.056 434.585 Q176.274 434.145 174.514 434.145 Q169.885 434.145 167.431 437.27 Q165.001 440.395 164.653 446.715 Q166.019 444.701 168.079 443.636 Q170.139 442.548 172.616 442.548 Q177.825 442.548 180.834 445.719 Q183.866 448.868 183.866 454.307 Q183.866 459.631 180.718 462.849 Q177.57 466.067 172.339 466.067 Q166.343 466.067 163.172 461.483 Q160.001 456.877 160.001 448.15 Q160.001 439.956 163.89 435.094 Q167.778 430.21 174.329 430.21 Q176.089 430.21 177.871 430.557 Q179.676 430.905 181.621 431.599 Z" fill="#000000" fill-rule="evenodd" fill-opacity="1" /><path clip-path="url(#clip330)" d="M126.783 121.873 Q123.172 121.873 121.343 125.438 Q119.538 128.979 119.538 136.109 Q119.538 143.215 121.343 146.78 Q123.172 150.322 126.783 150.322 Q130.417 150.322 132.223 146.78 Q134.052 143.215 134.052 136.109 Q134.052 128.979 132.223 125.438 Q130.417 121.873 126.783 121.873 M126.783 118.169 Q132.593 118.169 135.649 122.776 Q138.728 127.359 138.728 136.109 Q138.728 144.836 135.649 149.442 Q132.593 154.026 126.783 154.026 Q120.973 154.026 117.894 149.442 Q114.839 144.836 114.839 136.109 Q114.839 127.359 117.894 122.776 Q120.973 118.169 126.783 118.169 Z" fill="#000000" fill-rule="evenodd" fill-opacity="1" /><path clip-path="url(#clip330)" d="M146.945 147.475 L151.829 147.475 L151.829 153.354 L146.945 153.354 L146.945 147.475 Z" fill="#000000" fill-rule="evenodd" fill-opacity="1" /><path clip-path="url(#clip330)" d="M172.014 136.942 Q168.681 136.942 166.76 138.725 Q164.862 140.507 164.862 143.632 Q164.862 146.757 166.76 148.539 Q168.681 150.322 172.014 150.322 Q175.348 150.322 177.269 148.539 Q179.19 146.734 179.19 143.632 Q179.19 140.507 177.269 138.725 Q175.371 136.942 172.014 136.942 M167.339 134.952 Q164.329 134.211 162.64 132.151 Q160.973 130.09 160.973 127.128 Q160.973 122.984 163.913 120.577 Q166.876 118.169 172.014 118.169 Q177.176 118.169 180.116 120.577 Q183.056 122.984 183.056 127.128 Q183.056 130.09 181.366 132.151 Q179.7 134.211 176.714 134.952 Q180.093 135.739 181.968 138.03 Q183.866 140.322 183.866 143.632 Q183.866 148.655 180.788 151.34 Q177.732 154.026 172.014 154.026 Q166.297 154.026 163.218 151.34 Q160.163 148.655 160.163 143.632 Q160.163 140.322 162.061 138.03 Q163.959 135.739 167.339 134.952 M165.626 127.567 Q165.626 130.253 167.292 131.757 Q168.982 133.262 172.014 133.262 Q175.024 133.262 176.714 131.757 Q178.426 130.253 178.426 127.567 Q178.426 124.882 176.714 123.378 Q175.024 121.873 172.014 121.873 Q168.982 121.873 167.292 123.378 Q165.626 124.882 165.626 127.567 Z" fill="#000000" fill-rule="evenodd" fill-opacity="1" /><path clip-path="url(#clip330)" d="M20.8447 951.36 Q20.8447 958.362 26.0645 962.5 Q31.2844 966.605 40.2919 966.605 Q49.2675 966.605 54.4874 962.5 Q59.7073 958.362 59.7073 951.36 Q59.7073 944.357 54.4874 940.283 Q49.2675 936.177 40.2919 936.177 Q31.2844 936.177 26.0645 940.283 Q20.8447 944.357 20.8447 951.36 M15.6248 951.36 Q15.6248 941.365 22.3406 935.382 Q29.0246 929.398 40.2919 929.398 Q51.5274 929.398 58.2432 935.382 Q64.9272 941.365 64.9272 951.36 Q64.9272 961.386 58.2432 967.401 Q51.5592 973.385 40.2919 973.385 Q29.0246 973.385 22.3406 967.401 Q15.6248 961.386 15.6248 951.36 Z" fill="#000000" fill-rule="evenodd" fill-opacity="1" /><path clip-path="url(#clip330)" d="M28.3562 923.796 L28.3562 917.589 L58.275 906.449 L28.3562 895.309 L28.3562 889.103 L64.0042 902.471 L64.0042 910.428 L28.3562 923.796 Z" fill="#000000" fill-rule="evenodd" fill-opacity="1" /><path clip-path="url(#clip330)" d="M44.7161 850.527 L47.5806 850.527 L47.5806 877.454 Q53.6281 877.072 56.8109 873.825 Q59.9619 870.547 59.9619 864.722 Q59.9619 861.348 59.1344 858.197 Q58.3069 855.015 56.6518 851.895 L62.1899 851.895 Q63.5267 855.046 64.227 858.357 Q64.9272 861.667 64.9272 865.072 Q64.9272 873.602 59.9619 878.6 Q54.9967 883.565 46.5303 883.565 Q37.7774 883.565 32.6531 878.854 Q27.4968 874.112 27.4968 866.091 Q27.4968 858.898 32.1438 854.728 Q36.7589 850.527 44.7161 850.527 M42.9973 856.383 Q38.1912 856.447 35.3266 859.089 Q32.4621 861.699 32.4621 866.027 Q32.4621 870.929 35.2312 873.889 Q38.0002 876.817 43.0292 877.263 L42.9973 856.383 Z" fill="#000000" fill-rule="evenodd" fill-opacity="1" /><path clip-path="url(#clip330)" d="M33.8307 820.258 Q33.2578 821.244 33.0032 822.422 Q32.7167 823.568 32.7167 824.968 Q32.7167 829.934 35.9632 832.607 Q39.1779 835.249 45.2253 835.249 L64.0042 835.249 L64.0042 841.137 L28.3562 841.137 L28.3562 835.249 L33.8944 835.249 Q30.6479 833.403 29.0883 830.443 Q27.4968 827.483 27.4968 823.25 Q27.4968 822.645 27.5923 821.913 Q27.656 821.181 27.8151 820.29 L33.8307 820.258 Z" fill="#000000" fill-rule="evenodd" fill-opacity="1" /><path clip-path="url(#clip330)" d="M14.479 814.115 L14.479 808.258 L64.0042 808.258 L64.0042 814.115 L14.479 814.115 Z" fill="#000000" fill-rule="evenodd" fill-opacity="1" /><path clip-path="url(#clip330)" d="M46.0847 779.804 Q46.0847 786.902 47.7079 789.639 Q49.3312 792.376 53.2461 792.376 Q56.3653 792.376 58.2114 790.339 Q60.0256 788.27 60.0256 784.737 Q60.0256 779.867 56.5881 776.939 Q53.1188 773.979 47.3897 773.979 L46.0847 773.979 L46.0847 779.804 M43.6657 768.123 L64.0042 768.123 L64.0042 773.979 L58.5933 773.979 Q61.8398 775.984 63.3994 778.976 Q64.9272 781.968 64.9272 786.297 Q64.9272 791.771 61.8716 795.018 Q58.7843 798.232 53.6281 798.232 Q47.6125 798.232 44.5569 794.222 Q41.5014 790.18 41.5014 782.191 L41.5014 773.979 L40.9285 773.979 Q36.8862 773.979 34.6901 776.653 Q32.4621 779.294 32.4621 784.101 Q32.4621 787.156 33.1941 790.053 Q33.9262 792.949 35.3903 795.623 L29.9795 795.623 Q28.7381 792.408 28.1334 789.384 Q27.4968 786.36 27.4968 783.496 Q27.4968 775.762 31.5072 771.942 Q35.5176 768.123 43.6657 768.123 Z" fill="#000000" fill-rule="evenodd" fill-opacity="1" /><path clip-path="url(#clip330)" d="M58.657 750.394 L77.5631 750.394 L77.5631 756.282 L28.3562 756.282 L28.3562 750.394 L33.7671 750.394 Q30.5842 748.548 29.0564 745.747 Q27.4968 742.914 27.4968 739 Q27.4968 732.507 32.6531 728.464 Q37.8093 724.39 46.212 724.39 Q54.6147 724.39 59.771 728.464 Q64.9272 732.507 64.9272 739 Q64.9272 742.914 63.3994 745.747 Q61.8398 748.548 58.657 750.394 M46.212 730.47 Q39.7508 730.47 36.0905 733.143 Q32.3984 735.785 32.3984 740.432 Q32.3984 745.079 36.0905 747.752 Q39.7508 750.394 46.212 750.394 Q52.6732 750.394 56.3653 747.752 Q60.0256 745.079 60.0256 740.432 Q60.0256 735.785 56.3653 733.143 Q52.6732 730.47 46.212 730.47 Z" fill="#000000" fill-rule="evenodd" fill-opacity="1" /><path clip-path="url(#clip330)" d="M28.3562 697.368 L28.3562 691.511 L56.1743 684.191 L28.3562 676.902 L28.3562 669.995 L56.1743 662.675 L28.3562 655.386 L28.3562 649.53 L64.0042 658.855 L64.0042 665.762 L34.7856 673.433 L64.0042 681.135 L64.0042 688.042 L28.3562 697.368 Z" fill="#000000" fill-rule="evenodd" fill-opacity="1" /><path clip-path="url(#clip330)" d="M28.3562 640.649 L28.3562 634.793 L64.0042 634.793 L64.0042 640.649 L28.3562 640.649 M14.479 640.649 L14.479 634.793 L21.895 634.793 L21.895 640.649 L14.479 640.649 Z" fill="#000000" fill-rule="evenodd" fill-opacity="1" /><path clip-path="url(#clip330)" d="M18.2347 616.746 L28.3562 616.746 L28.3562 604.683 L32.9077 604.683 L32.9077 616.746 L52.2594 616.746 Q56.6199 616.746 57.8613 615.569 Q59.1026 614.359 59.1026 610.699 L59.1026 604.683 L64.0042 604.683 L64.0042 610.699 Q64.0042 617.478 61.4897 620.056 Q58.9434 622.634 52.2594 622.634 L32.9077 622.634 L32.9077 626.931 L28.3562 626.931 L28.3562 622.634 L18.2347 622.634 L18.2347 616.746 Z" fill="#000000" fill-rule="evenodd" fill-opacity="1" /><path clip-path="url(#clip330)" d="M42.4881 567.348 L64.0042 567.348 L64.0042 573.205 L42.679 573.205 Q37.6183 573.205 35.1038 575.178 Q32.5894 577.151 32.5894 581.098 Q32.5894 585.841 35.6131 588.578 Q38.6368 591.315 43.8567 591.315 L64.0042 591.315 L64.0042 597.203 L14.479 597.203 L14.479 591.315 L33.8944 591.315 Q30.6797 589.214 29.0883 586.382 Q27.4968 583.517 27.4968 579.793 Q27.4968 573.65 31.3163 570.499 Q35.1038 567.348 42.4881 567.348 Z" fill="#000000" fill-rule="evenodd" fill-opacity="1" /><path clip-path="url(#clip330)" d="M22.818 518.81 L46.4666 527.531 L46.4666 510.057 L22.818 518.81 M16.4842 522.438 L16.4842 515.149 L64.0042 497.039 L64.0042 503.723 L51.8138 508.052 L51.8138 529.472 L64.0042 533.801 L64.0042 540.58 L16.4842 522.438 Z" fill="#000000" fill-rule="evenodd" fill-opacity="1" /><path clip-path="url(#clip332)" d="M337.179 86.1857 L337.179 1384.24 L352.126 1384.24 L352.126 86.1857 L337.179 86.1857 L337.179 86.1857  Z" fill="#009af9" fill-rule="evenodd" fill-opacity="1"/>
<polyline clip-path="url(#clip332)" style="stroke:#000000; stroke-linecap:round; stroke-linejoin:round; stroke-width:4; stroke-opacity:1; fill:none" points="337.179,86.1857 337.179,1384.24 352.126,1384.24 352.126,86.1857 337.179,86.1857 "/>
<path clip-path="url(#clip332)" d="M361.983 1037.23 L361.983 1384.24 L376.93 1384.24 L376.93 1037.23 L361.983 1037.23 L361.983 1037.23  Z" fill="#009af9" fill-rule="evenodd" fill-opacity="1"/>
<polyline clip-path="url(#clip332)" style="stroke:#000000; stroke-linecap:round; stroke-linejoin:round; stroke-width:4; stroke-opacity:1; fill:none" points="361.983,1037.23 361.983,1384.24 376.93,1384.24 376.93,1037.23 361.983,1037.23 "/>
<path clip-path="url(#clip332)" d="M381.012 1091.62 L381.012 1384.24 L395.959 1384.24 L395.959 1091.62 L381.012 1091.62 L381.012 1091.62  Z" fill="#009af9" fill-rule="evenodd" fill-opacity="1"/>
<polyline clip-path="url(#clip332)" style="stroke:#000000; stroke-linecap:round; stroke-linejoin:round; stroke-width:4; stroke-opacity:1; fill:none" points="381.012,1091.62 381.012,1384.24 395.959,1384.24 395.959,1091.62 381.012,1091.62 "/>
<path clip-path="url(#clip332)" d="M399.729 1133.83 L399.729 1384.24 L414.676 1384.24 L414.676 1133.83 L399.729 1133.83 L399.729 1133.83  Z" fill="#009af9" fill-rule="evenodd" fill-opacity="1"/>
<polyline clip-path="url(#clip332)" style="stroke:#000000; stroke-linecap:round; stroke-linejoin:round; stroke-width:4; stroke-opacity:1; fill:none" points="399.729,1133.83 399.729,1384.24 414.676,1384.24 414.676,1133.83 399.729,1133.83 "/>
<path clip-path="url(#clip332)" d="M418.412 1164.53 L418.412 1384.24 L433.359 1384.24 L433.359 1164.53 L418.412 1164.53 L418.412 1164.53  Z" fill="#009af9" fill-rule="evenodd" fill-opacity="1"/>
<polyline clip-path="url(#clip332)" style="stroke:#000000; stroke-linecap:round; stroke-linejoin:round; stroke-width:4; stroke-opacity:1; fill:none" points="418.412,1164.53 418.412,1384.24 433.359,1384.24 433.359,1164.53 418.412,1164.53 "/>
<path clip-path="url(#clip332)" d="M437.099 1187.78 L437.099 1384.24 L452.045 1384.24 L452.045 1187.78 L437.099 1187.78 L437.099 1187.78  Z" fill="#009af9" fill-rule="evenodd" fill-opacity="1"/>
<polyline clip-path="url(#clip332)" style="stroke:#000000; stroke-linecap:round; stroke-linejoin:round; stroke-width:4; stroke-opacity:1; fill:none" points="437.099,1187.78 437.099,1384.24 452.045,1384.24 452.045,1187.78 437.099,1187.78 "/>
<path clip-path="url(#clip332)" d="M455.794 1206.03 L455.794 1384.24 L470.741 1384.24 L470.741 1206.03 L455.794 1206.03 L455.794 1206.03  Z" fill="#009af9" fill-rule="evenodd" fill-opacity="1"/>
<polyline clip-path="url(#clip332)" style="stroke:#000000; stroke-linecap:round; stroke-linejoin:round; stroke-width:4; stroke-opacity:1; fill:none" points="455.794,1206.03 455.794,1384.24 470.741,1384.24 470.741,1206.03 455.794,1206.03 "/>
<path clip-path="url(#clip332)" d="M474.5 1220.78 L474.5 1384.24 L489.447 1384.24 L489.447 1220.78 L474.5 1220.78 L474.5 1220.78  Z" fill="#009af9" fill-rule="evenodd" fill-opacity="1"/>
<polyline clip-path="url(#clip332)" style="stroke:#000000; stroke-linecap:round; stroke-linejoin:round; stroke-width:4; stroke-opacity:1; fill:none" points="474.5,1220.78 474.5,1384.24 489.447,1384.24 489.447,1220.78 474.5,1220.78 "/>
<path clip-path="url(#clip332)" d="M493.215 1232.96 L493.215 1384.24 L508.162 1384.24 L508.162 1232.96 L493.215 1232.96 L493.215 1232.96  Z" fill="#009af9" fill-rule="evenodd" fill-opacity="1"/>
<polyline clip-path="url(#clip332)" style="stroke:#000000; stroke-linecap:round; stroke-linejoin:round; stroke-width:4; stroke-opacity:1; fill:none" points="493.215,1232.96 493.215,1384.24 508.162,1384.24 508.162,1232.96 493.215,1232.96 "/>
<path clip-path="url(#clip332)" d="M511.937 1243.22 L511.937 1384.24 L526.884 1384.24 L526.884 1243.22 L511.937 1243.22 L511.937 1243.22  Z" fill="#009af9" fill-rule="evenodd" fill-opacity="1"/>
<polyline clip-path="url(#clip332)" style="stroke:#000000; stroke-linecap:round; stroke-linejoin:round; stroke-width:4; stroke-opacity:1; fill:none" points="511.937,1243.22 511.937,1384.24 526.884,1384.24 526.884,1243.22 511.937,1243.22 "/>
<path clip-path="url(#clip332)" d="M530.666 1251.99 L530.666 1384.24 L545.613 1384.24 L545.613 1251.99 L530.666 1251.99 L530.666 1251.99  Z" fill="#009af9" fill-rule="evenodd" fill-opacity="1"/>
<polyline clip-path="url(#clip332)" style="stroke:#000000; stroke-linecap:round; stroke-linejoin:round; stroke-width:4; stroke-opacity:1; fill:none" points="530.666,1251.99 530.666,1384.24 545.613,1384.24 545.613,1251.99 530.666,1251.99 "/>
<path clip-path="url(#clip332)" d="M549.401 1259.58 L549.401 1384.24 L564.348 1384.24 L564.348 1259.58 L549.401 1259.58 L549.401 1259.58  Z" fill="#009af9" fill-rule="evenodd" fill-opacity="1"/>
<polyline clip-path="url(#clip332)" style="stroke:#000000; stroke-linecap:round; stroke-linejoin:round; stroke-width:4; stroke-opacity:1; fill:none" points="549.401,1259.58 549.401,1384.24 564.348,1384.24 564.348,1259.58 549.401,1259.58 "/>
<path clip-path="url(#clip332)" d="M568.14 1266.23 L568.14 1384.24 L583.087 1384.24 L583.087 1266.23 L568.14 1266.23 L568.14 1266.23  Z" fill="#009af9" fill-rule="evenodd" fill-opacity="1"/>
<polyline clip-path="url(#clip332)" style="stroke:#000000; stroke-linecap:round; stroke-linejoin:round; stroke-width:4; stroke-opacity:1; fill:none" points="568.14,1266.23 568.14,1384.24 583.087,1384.24 583.087,1266.23 568.14,1266.23 "/>
<path clip-path="url(#clip332)" d="M586.884 1272.1 L586.884 1384.24 L601.831 1384.24 L601.831 1272.1 L586.884 1272.1 L586.884 1272.1  Z" fill="#009af9" fill-rule="evenodd" fill-opacity="1"/>
<polyline clip-path="url(#clip332)" style="stroke:#000000; stroke-linecap:round; stroke-linejoin:round; stroke-width:4; stroke-opacity:1; fill:none" points="586.884,1272.1 586.884,1384.24 601.831,1384.24 601.831,1272.1 586.884,1272.1 "/>
<path clip-path="url(#clip332)" d="M605.631 1277.33 L605.631 1384.24 L620.578 1384.24 L620.578 1277.33 L605.631 1277.33 L605.631 1277.33  Z" fill="#009af9" fill-rule="evenodd" fill-opacity="1"/>
<polyline clip-path="url(#clip332)" style="stroke:#000000; stroke-linecap:round; stroke-linejoin:round; stroke-width:4; stroke-opacity:1; fill:none" points="605.631,1277.33 605.631,1384.24 620.578,1384.24 620.578,1277.33 605.631,1277.33 "/>
<path clip-path="url(#clip332)" d="M624.381 1282.02 L624.381 1384.24 L639.328 1384.24 L639.328 1282.02 L624.381 1282.02 L624.381 1282.02  Z" fill="#009af9" fill-rule="evenodd" fill-opacity="1"/>
<polyline clip-path="url(#clip332)" style="stroke:#000000; stroke-linecap:round; stroke-linejoin:round; stroke-width:4; stroke-opacity:1; fill:none" points="624.381,1282.02 624.381,1384.24 639.328,1384.24 639.328,1282.02 624.381,1282.02 "/>
<path clip-path="url(#clip332)" d="M643.134 1286.26 L643.134 1384.24 L658.081 1384.24 L658.081 1286.26 L643.134 1286.26 L643.134 1286.26  Z" fill="#009af9" fill-rule="evenodd" fill-opacity="1"/>
<polyline clip-path="url(#clip332)" style="stroke:#000000; stroke-linecap:round; stroke-linejoin:round; stroke-width:4; stroke-opacity:1; fill:none" points="643.134,1286.26 643.134,1384.24 658.081,1384.24 658.081,1286.26 643.134,1286.26 "/>
<path clip-path="url(#clip332)" d="M661.889 1290.11 L661.889 1384.24 L676.836 1384.24 L676.836 1290.11 L661.889 1290.11 L661.889 1290.11  Z" fill="#009af9" fill-rule="evenodd" fill-opacity="1"/>
<polyline clip-path="url(#clip332)" style="stroke:#000000; stroke-linecap:round; stroke-linejoin:round; stroke-width:4; stroke-opacity:1; fill:none" points="661.889,1290.11 661.889,1384.24 676.836,1384.24 676.836,1290.11 661.889,1290.11 "/>
<path clip-path="url(#clip332)" d="M680.647 1293.62 L680.647 1384.24 L695.594 1384.24 L695.594 1293.62 L680.647 1293.62 L680.647 1293.62  Z" fill="#009af9" fill-rule="evenodd" fill-opacity="1"/>
<polyline clip-path="url(#clip332)" style="stroke:#000000; stroke-linecap:round; stroke-linejoin:round; stroke-width:4; stroke-opacity:1; fill:none" points="680.647,1293.62 680.647,1384.24 695.594,1384.24 695.594,1293.62 680.647,1293.62 "/>
<path clip-path="url(#clip332)" d="M699.406 1296.83 L699.406 1384.24 L714.353 1384.24 L714.353 1296.83 L699.406 1296.83 L699.406 1296.83  Z" fill="#009af9" fill-rule="evenodd" fill-opacity="1"/>
<polyline clip-path="url(#clip332)" style="stroke:#000000; stroke-linecap:round; stroke-linejoin:round; stroke-width:4; stroke-opacity:1; fill:none" points="699.406,1296.83 699.406,1384.24 714.353,1384.24 714.353,1296.83 699.406,1296.83 "/>
<path clip-path="url(#clip332)" d="M718.167 1299.79 L718.167 1384.24 L733.114 1384.24 L733.114 1299.79 L718.167 1299.79 L718.167 1299.79  Z" fill="#009af9" fill-rule="evenodd" fill-opacity="1"/>
<polyline clip-path="url(#clip332)" style="stroke:#000000; stroke-linecap:round; stroke-linejoin:round; stroke-width:4; stroke-opacity:1; fill:none" points="718.167,1299.79 718.167,1384.24 733.114,1384.24 733.114,1299.79 718.167,1299.79 "/>
<path clip-path="url(#clip332)" d="M736.93 1302.53 L736.93 1384.24 L751.876 1384.24 L751.876 1302.53 L736.93 1302.53 L736.93 1302.53  Z" fill="#009af9" fill-rule="evenodd" fill-opacity="1"/>
<polyline clip-path="url(#clip332)" style="stroke:#000000; stroke-linecap:round; stroke-linejoin:round; stroke-width:4; stroke-opacity:1; fill:none" points="736.93,1302.53 736.93,1384.24 751.876,1384.24 751.876,1302.53 736.93,1302.53 "/>
<path clip-path="url(#clip332)" d="M755.693 1305.06 L755.693 1384.24 L770.64 1384.24 L770.64 1305.06 L755.693 1305.06 L755.693 1305.06  Z" fill="#009af9" fill-rule="evenodd" fill-opacity="1"/>
<polyline clip-path="url(#clip332)" style="stroke:#000000; stroke-linecap:round; stroke-linejoin:round; stroke-width:4; stroke-opacity:1; fill:none" points="755.693,1305.06 755.693,1384.24 770.64,1384.24 770.64,1305.06 755.693,1305.06 "/>
<path clip-path="url(#clip332)" d="M774.459 1307.42 L774.459 1384.24 L789.406 1384.24 L789.406 1307.42 L774.459 1307.42 L774.459 1307.42  Z" fill="#009af9" fill-rule="evenodd" fill-opacity="1"/>
<polyline clip-path="url(#clip332)" style="stroke:#000000; stroke-linecap:round; stroke-linejoin:round; stroke-width:4; stroke-opacity:1; fill:none" points="774.459,1307.42 774.459,1384.24 789.406,1384.24 789.406,1307.42 774.459,1307.42 "/>
<path clip-path="url(#clip332)" d="M793.225 1309.62 L793.225 1384.24 L808.172 1384.24 L808.172 1309.62 L793.225 1309.62 L793.225 1309.62  Z" fill="#009af9" fill-rule="evenodd" fill-opacity="1"/>
<polyline clip-path="url(#clip332)" style="stroke:#000000; stroke-linecap:round; stroke-linejoin:round; stroke-width:4; stroke-opacity:1; fill:none" points="793.225,1309.62 793.225,1384.24 808.172,1384.24 808.172,1309.62 793.225,1309.62 "/>
<path clip-path="url(#clip332)" d="M811.992 1311.67 L811.992 1384.24 L826.939 1384.24 L826.939 1311.67 L811.992 1311.67 L811.992 1311.67  Z" fill="#009af9" fill-rule="evenodd" fill-opacity="1"/>
<polyline clip-path="url(#clip332)" style="stroke:#000000; stroke-linecap:round; stroke-linejoin:round; stroke-width:4; stroke-opacity:1; fill:none" points="811.992,1311.67 811.992,1384.24 826.939,1384.24 826.939,1311.67 811.992,1311.67 "/>
<path clip-path="url(#clip332)" d="M830.761 1313.6 L830.761 1384.24 L845.707 1384.24 L845.707 1313.6 L830.761 1313.6 L830.761 1313.6  Z" fill="#009af9" fill-rule="evenodd" fill-opacity="1"/>
<polyline clip-path="url(#clip332)" style="stroke:#000000; stroke-linecap:round; stroke-linejoin:round; stroke-width:4; stroke-opacity:1; fill:none" points="830.761,1313.6 830.761,1384.24 845.707,1384.24 845.707,1313.6 830.761,1313.6 "/>
<path clip-path="url(#clip332)" d="M849.53 1315.41 L849.53 1384.24 L864.477 1384.24 L864.477 1315.41 L849.53 1315.41 L849.53 1315.41  Z" fill="#009af9" fill-rule="evenodd" fill-opacity="1"/>
<polyline clip-path="url(#clip332)" style="stroke:#000000; stroke-linecap:round; stroke-linejoin:round; stroke-width:4; stroke-opacity:1; fill:none" points="849.53,1315.41 849.53,1384.24 864.477,1384.24 864.477,1315.41 849.53,1315.41 "/>
<path clip-path="url(#clip332)" d="M868.3 1317.11 L868.3 1384.24 L883.246 1384.24 L883.246 1317.11 L868.3 1317.11 L868.3 1317.11  Z" fill="#009af9" fill-rule="evenodd" fill-opacity="1"/>
<polyline clip-path="url(#clip332)" style="stroke:#000000; stroke-linecap:round; stroke-linejoin:round; stroke-width:4; stroke-opacity:1; fill:none" points="868.3,1317.11 868.3,1384.24 883.246,1384.24 883.246,1317.11 868.3,1317.11 "/>
<path clip-path="url(#clip332)" d="M887.07 1318.72 L887.07 1384.24 L902.017 1384.24 L902.017 1318.72 L887.07 1318.72 L887.07 1318.72  Z" fill="#009af9" fill-rule="evenodd" fill-opacity="1"/>
<polyline clip-path="url(#clip332)" style="stroke:#000000; stroke-linecap:round; stroke-linejoin:round; stroke-width:4; stroke-opacity:1; fill:none" points="887.07,1318.72 887.07,1384.24 902.017,1384.24 902.017,1318.72 887.07,1318.72 "/>
<path clip-path="url(#clip332)" d="M905.842 1320.24 L905.842 1384.24 L920.788 1384.24 L920.788 1320.24 L905.842 1320.24 L905.842 1320.24  Z" fill="#009af9" fill-rule="evenodd" fill-opacity="1"/>
<polyline clip-path="url(#clip332)" style="stroke:#000000; stroke-linecap:round; stroke-linejoin:round; stroke-width:4; stroke-opacity:1; fill:none" points="905.842,1320.24 905.842,1384.24 920.788,1384.24 920.788,1320.24 905.842,1320.24 "/>
<path clip-path="url(#clip332)" d="M924.614 1321.68 L924.614 1384.24 L939.56 1384.24 L939.56 1321.68 L924.614 1321.68 L924.614 1321.68  Z" fill="#009af9" fill-rule="evenodd" fill-opacity="1"/>
<polyline clip-path="url(#clip332)" style="stroke:#000000; stroke-linecap:round; stroke-linejoin:round; stroke-width:4; stroke-opacity:1; fill:none" points="924.614,1321.68 924.614,1384.24 939.56,1384.24 939.56,1321.68 924.614,1321.68 "/>
<path clip-path="url(#clip332)" d="M943.386 1323.04 L943.386 1384.24 L958.333 1384.24 L958.333 1323.04 L943.386 1323.04 L943.386 1323.04  Z" fill="#009af9" fill-rule="evenodd" fill-opacity="1"/>
<polyline clip-path="url(#clip332)" style="stroke:#000000; stroke-linecap:round; stroke-linejoin:round; stroke-width:4; stroke-opacity:1; fill:none" points="943.386,1323.04 943.386,1384.24 958.333,1384.24 958.333,1323.04 943.386,1323.04 "/>
<path clip-path="url(#clip332)" d="M962.159 1324.34 L962.159 1384.24 L977.106 1384.24 L977.106 1324.34 L962.159 1324.34 L962.159 1324.34  Z" fill="#009af9" fill-rule="evenodd" fill-opacity="1"/>
<polyline clip-path="url(#clip332)" style="stroke:#000000; stroke-linecap:round; stroke-linejoin:round; stroke-width:4; stroke-opacity:1; fill:none" points="962.159,1324.34 962.159,1384.24 977.106,1384.24 977.106,1324.34 962.159,1324.34 "/>
<path clip-path="url(#clip332)" d="M980.933 1325.57 L980.933 1384.24 L995.88 1384.24 L995.88 1325.57 L980.933 1325.57 L980.933 1325.57  Z" fill="#009af9" fill-rule="evenodd" fill-opacity="1"/>
<polyline clip-path="url(#clip332)" style="stroke:#000000; stroke-linecap:round; stroke-linejoin:round; stroke-width:4; stroke-opacity:1; fill:none" points="980.933,1325.57 980.933,1384.24 995.88,1384.24 995.88,1325.57 980.933,1325.57 "/>
<path clip-path="url(#clip332)" d="M999.707 1326.74 L999.707 1384.24 L1014.65 1384.24 L1014.65 1326.74 L999.707 1326.74 L999.707 1326.74  Z" fill="#009af9" fill-rule="evenodd" fill-opacity="1"/>
<polyline clip-path="url(#clip332)" style="stroke:#000000; stroke-linecap:round; stroke-linejoin:round; stroke-width:4; stroke-opacity:1; fill:none" points="999.707,1326.74 999.707,1384.24 1014.65,1384.24 1014.65,1326.74 999.707,1326.74 "/>
<path clip-path="url(#clip332)" d="M1018.48 1327.86 L1018.48 1384.24 L1033.43 1384.24 L1033.43 1327.86 L1018.48 1327.86 L1018.48 1327.86  Z" fill="#009af9" fill-rule="evenodd" fill-opacity="1"/>
<polyline clip-path="url(#clip332)" style="stroke:#000000; stroke-linecap:round; stroke-linejoin:round; stroke-width:4; stroke-opacity:1; fill:none" points="1018.48,1327.86 1018.48,1384.24 1033.43,1384.24 1033.43,1327.86 1018.48,1327.86 "/>
<path clip-path="url(#clip332)" d="M1037.26 1328.92 L1037.26 1384.24 L1052.2 1384.24 L1052.2 1328.92 L1037.26 1328.92 L1037.26 1328.92  Z" fill="#009af9" fill-rule="evenodd" fill-opacity="1"/>
<polyline clip-path="url(#clip332)" style="stroke:#000000; stroke-linecap:round; stroke-linejoin:round; stroke-width:4; stroke-opacity:1; fill:none" points="1037.26,1328.92 1037.26,1384.24 1052.2,1384.24 1052.2,1328.92 1037.26,1328.92 "/>
<path clip-path="url(#clip332)" d="M1056.03 1329.95 L1056.03 1384.24 L1070.98 1384.24 L1070.98 1329.95 L1056.03 1329.95 L1056.03 1329.95  Z" fill="#009af9" fill-rule="evenodd" fill-opacity="1"/>
<polyline clip-path="url(#clip332)" style="stroke:#000000; stroke-linecap:round; stroke-linejoin:round; stroke-width:4; stroke-opacity:1; fill:none" points="1056.03,1329.95 1056.03,1384.24 1070.98,1384.24 1070.98,1329.95 1056.03,1329.95 "/>
<path clip-path="url(#clip332)" d="M1074.81 1330.92 L1074.81 1384.24 L1089.75 1384.24 L1089.75 1330.92 L1074.81 1330.92 L1074.81 1330.92  Z" fill="#009af9" fill-rule="evenodd" fill-opacity="1"/>
<polyline clip-path="url(#clip332)" style="stroke:#000000; stroke-linecap:round; stroke-linejoin:round; stroke-width:4; stroke-opacity:1; fill:none" points="1074.81,1330.92 1074.81,1384.24 1089.75,1384.24 1089.75,1330.92 1074.81,1330.92 "/>
<path clip-path="url(#clip332)" d="M1093.58 1331.86 L1093.58 1384.24 L1108.53 1384.24 L1108.53 1331.86 L1093.58 1331.86 L1093.58 1331.86  Z" fill="#009af9" fill-rule="evenodd" fill-opacity="1"/>
<polyline clip-path="url(#clip332)" style="stroke:#000000; stroke-linecap:round; stroke-linejoin:round; stroke-width:4; stroke-opacity:1; fill:none" points="1093.58,1331.86 1093.58,1384.24 1108.53,1384.24 1108.53,1331.86 1093.58,1331.86 "/>
<path clip-path="url(#clip332)" d="M1112.36 1332.75 L1112.36 1384.24 L1127.31 1384.24 L1127.31 1332.75 L1112.36 1332.75 L1112.36 1332.75  Z" fill="#009af9" fill-rule="evenodd" fill-opacity="1"/>
<polyline clip-path="url(#clip332)" style="stroke:#000000; stroke-linecap:round; stroke-linejoin:round; stroke-width:4; stroke-opacity:1; fill:none" points="1112.36,1332.75 1112.36,1384.24 1127.31,1384.24 1127.31,1332.75 1112.36,1332.75 "/>
<path clip-path="url(#clip332)" d="M1131.14 1333.61 L1131.14 1384.24 L1146.08 1384.24 L1146.08 1333.61 L1131.14 1333.61 L1131.14 1333.61  Z" fill="#009af9" fill-rule="evenodd" fill-opacity="1"/>
<polyline clip-path="url(#clip332)" style="stroke:#000000; stroke-linecap:round; stroke-linejoin:round; stroke-width:4; stroke-opacity:1; fill:none" points="1131.14,1333.61 1131.14,1384.24 1146.08,1384.24 1146.08,1333.61 1131.14,1333.61 "/>
<path clip-path="url(#clip332)" d="M1149.91 1334.44 L1149.91 1384.24 L1164.86 1384.24 L1164.86 1334.44 L1149.91 1334.44 L1149.91 1334.44  Z" fill="#009af9" fill-rule="evenodd" fill-opacity="1"/>
<polyline clip-path="url(#clip332)" style="stroke:#000000; stroke-linecap:round; stroke-linejoin:round; stroke-width:4; stroke-opacity:1; fill:none" points="1149.91,1334.44 1149.91,1384.24 1164.86,1384.24 1164.86,1334.44 1149.91,1334.44 "/>
<path clip-path="url(#clip332)" d="M1168.69 1335.23 L1168.69 1384.24 L1183.64 1384.24 L1183.64 1335.23 L1168.69 1335.23 L1168.69 1335.23  Z" fill="#009af9" fill-rule="evenodd" fill-opacity="1"/>
<polyline clip-path="url(#clip332)" style="stroke:#000000; stroke-linecap:round; stroke-linejoin:round; stroke-width:4; stroke-opacity:1; fill:none" points="1168.69,1335.23 1168.69,1384.24 1183.64,1384.24 1183.64,1335.23 1168.69,1335.23 "/>
<path clip-path="url(#clip332)" d="M1187.47 1336 L1187.47 1384.24 L1202.42 1384.24 L1202.42 1336 L1187.47 1336 L1187.47 1336  Z" fill="#009af9" fill-rule="evenodd" fill-opacity="1"/>
<polyline clip-path="url(#clip332)" style="stroke:#000000; stroke-linecap:round; stroke-linejoin:round; stroke-width:4; stroke-opacity:1; fill:none" points="1187.47,1336 1187.47,1384.24 1202.42,1384.24 1202.42,1336 1187.47,1336 "/>
<path clip-path="url(#clip332)" d="M1206.25 1336.74 L1206.25 1384.24 L1221.19 1384.24 L1221.19 1336.74 L1206.25 1336.74 L1206.25 1336.74  Z" fill="#009af9" fill-rule="evenodd" fill-opacity="1"/>
<polyline clip-path="url(#clip332)" style="stroke:#000000; stroke-linecap:round; stroke-linejoin:round; stroke-width:4; stroke-opacity:1; fill:none" points="1206.25,1336.74 1206.25,1384.24 1221.19,1384.24 1221.19,1336.74 1206.25,1336.74 "/>
<path clip-path="url(#clip332)" d="M1225.02 1337.44 L1225.02 1384.24 L1239.97 1384.24 L1239.97 1337.44 L1225.02 1337.44 L1225.02 1337.44  Z" fill="#009af9" fill-rule="evenodd" fill-opacity="1"/>
<polyline clip-path="url(#clip332)" style="stroke:#000000; stroke-linecap:round; stroke-linejoin:round; stroke-width:4; stroke-opacity:1; fill:none" points="1225.02,1337.44 1225.02,1384.24 1239.97,1384.24 1239.97,1337.44 1225.02,1337.44 "/>
<path clip-path="url(#clip332)" d="M1243.8 1338.13 L1243.8 1384.24 L1258.75 1384.24 L1258.75 1338.13 L1243.8 1338.13 L1243.8 1338.13  Z" fill="#009af9" fill-rule="evenodd" fill-opacity="1"/>
<polyline clip-path="url(#clip332)" style="stroke:#000000; stroke-linecap:round; stroke-linejoin:round; stroke-width:4; stroke-opacity:1; fill:none" points="1243.8,1338.13 1243.8,1384.24 1258.75,1384.24 1258.75,1338.13 1243.8,1338.13 "/>
<path clip-path="url(#clip332)" d="M1262.58 1338.79 L1262.58 1384.24 L1277.53 1384.24 L1277.53 1338.79 L1262.58 1338.79 L1262.58 1338.79  Z" fill="#009af9" fill-rule="evenodd" fill-opacity="1"/>
<polyline clip-path="url(#clip332)" style="stroke:#000000; stroke-linecap:round; stroke-linejoin:round; stroke-width:4; stroke-opacity:1; fill:none" points="1262.58,1338.79 1262.58,1384.24 1277.53,1384.24 1277.53,1338.79 1262.58,1338.79 "/>
<path clip-path="url(#clip332)" d="M1281.36 1339.43 L1281.36 1384.24 L1296.31 1384.24 L1296.31 1339.43 L1281.36 1339.43 L1281.36 1339.43  Z" fill="#009af9" fill-rule="evenodd" fill-opacity="1"/>
<polyline clip-path="url(#clip332)" style="stroke:#000000; stroke-linecap:round; stroke-linejoin:round; stroke-width:4; stroke-opacity:1; fill:none" points="1281.36,1339.43 1281.36,1384.24 1296.31,1384.24 1296.31,1339.43 1281.36,1339.43 "/>
<path clip-path="url(#clip332)" d="M1300.14 1340.04 L1300.14 1384.24 L1315.09 1384.24 L1315.09 1340.04 L1300.14 1340.04 L1300.14 1340.04  Z" fill="#009af9" fill-rule="evenodd" fill-opacity="1"/>
<polyline clip-path="url(#clip332)" style="stroke:#000000; stroke-linecap:round; stroke-linejoin:round; stroke-width:4; stroke-opacity:1; fill:none" points="1300.14,1340.04 1300.14,1384.24 1315.09,1384.24 1315.09,1340.04 1300.14,1340.04 "/>
<path clip-path="url(#clip332)" d="M1318.92 1340.64 L1318.92 1384.24 L1333.86 1384.24 L1333.86 1340.64 L1318.92 1340.64 L1318.92 1340.64  Z" fill="#009af9" fill-rule="evenodd" fill-opacity="1"/>
<polyline clip-path="url(#clip332)" style="stroke:#000000; stroke-linecap:round; stroke-linejoin:round; stroke-width:4; stroke-opacity:1; fill:none" points="1318.92,1340.64 1318.92,1384.24 1333.86,1384.24 1333.86,1340.64 1318.92,1340.64 "/>
<path clip-path="url(#clip332)" d="M1337.7 1341.21 L1337.7 1384.24 L1352.64 1384.24 L1352.64 1341.21 L1337.7 1341.21 L1337.7 1341.21  Z" fill="#009af9" fill-rule="evenodd" fill-opacity="1"/>
<polyline clip-path="url(#clip332)" style="stroke:#000000; stroke-linecap:round; stroke-linejoin:round; stroke-width:4; stroke-opacity:1; fill:none" points="1337.7,1341.21 1337.7,1384.24 1352.64,1384.24 1352.64,1341.21 1337.7,1341.21 "/>
<path clip-path="url(#clip332)" d="M1356.48 1341.77 L1356.48 1384.24 L1371.42 1384.24 L1371.42 1341.77 L1356.48 1341.77 L1356.48 1341.77  Z" fill="#009af9" fill-rule="evenodd" fill-opacity="1"/>
<polyline clip-path="url(#clip332)" style="stroke:#000000; stroke-linecap:round; stroke-linejoin:round; stroke-width:4; stroke-opacity:1; fill:none" points="1356.48,1341.77 1356.48,1384.24 1371.42,1384.24 1371.42,1341.77 1356.48,1341.77 "/>
<path clip-path="url(#clip332)" d="M1375.26 1342.31 L1375.26 1384.24 L1390.2 1384.24 L1390.2 1342.31 L1375.26 1342.31 L1375.26 1342.31  Z" fill="#009af9" fill-rule="evenodd" fill-opacity="1"/>
<polyline clip-path="url(#clip332)" style="stroke:#000000; stroke-linecap:round; stroke-linejoin:round; stroke-width:4; stroke-opacity:1; fill:none" points="1375.26,1342.31 1375.26,1384.24 1390.2,1384.24 1390.2,1342.31 1375.26,1342.31 "/>
<path clip-path="url(#clip332)" d="M1394.04 1342.83 L1394.04 1384.24 L1408.98 1384.24 L1408.98 1342.83 L1394.04 1342.83 L1394.04 1342.83  Z" fill="#009af9" fill-rule="evenodd" fill-opacity="1"/>
<polyline clip-path="url(#clip332)" style="stroke:#000000; stroke-linecap:round; stroke-linejoin:round; stroke-width:4; stroke-opacity:1; fill:none" points="1394.04,1342.83 1394.04,1384.24 1408.98,1384.24 1408.98,1342.83 1394.04,1342.83 "/>
<path clip-path="url(#clip332)" d="M1412.82 1343.34 L1412.82 1384.24 L1427.76 1384.24 L1427.76 1343.34 L1412.82 1343.34 L1412.82 1343.34  Z" fill="#009af9" fill-rule="evenodd" fill-opacity="1"/>
<polyline clip-path="url(#clip332)" style="stroke:#000000; stroke-linecap:round; stroke-linejoin:round; stroke-width:4; stroke-opacity:1; fill:none" points="1412.82,1343.34 1412.82,1384.24 1427.76,1384.24 1427.76,1343.34 1412.82,1343.34 "/>
<path clip-path="url(#clip332)" d="M1431.6 1343.83 L1431.6 1384.24 L1446.54 1384.24 L1446.54 1343.83 L1431.6 1343.83 L1431.6 1343.83  Z" fill="#009af9" fill-rule="evenodd" fill-opacity="1"/>
<polyline clip-path="url(#clip332)" style="stroke:#000000; stroke-linecap:round; stroke-linejoin:round; stroke-width:4; stroke-opacity:1; fill:none" points="1431.6,1343.83 1431.6,1384.24 1446.54,1384.24 1446.54,1343.83 1431.6,1343.83 "/>
<path clip-path="url(#clip332)" d="M1450.38 1344.31 L1450.38 1384.24 L1465.32 1384.24 L1465.32 1344.31 L1450.38 1344.31 L1450.38 1344.31  Z" fill="#009af9" fill-rule="evenodd" fill-opacity="1"/>
<polyline clip-path="url(#clip332)" style="stroke:#000000; stroke-linecap:round; stroke-linejoin:round; stroke-width:4; stroke-opacity:1; fill:none" points="1450.38,1344.31 1450.38,1384.24 1465.32,1384.24 1465.32,1344.31 1450.38,1344.31 "/>
<path clip-path="url(#clip332)" d="M1469.16 1344.77 L1469.16 1384.24 L1484.1 1384.24 L1484.1 1344.77 L1469.16 1344.77 L1469.16 1344.77  Z" fill="#009af9" fill-rule="evenodd" fill-opacity="1"/>
<polyline clip-path="url(#clip332)" style="stroke:#000000; stroke-linecap:round; stroke-linejoin:round; stroke-width:4; stroke-opacity:1; fill:none" points="1469.16,1344.77 1469.16,1384.24 1484.1,1384.24 1484.1,1344.77 1469.16,1344.77 "/>
<path clip-path="url(#clip332)" d="M1487.94 1345.22 L1487.94 1384.24 L1502.88 1384.24 L1502.88 1345.22 L1487.94 1345.22 L1487.94 1345.22  Z" fill="#009af9" fill-rule="evenodd" fill-opacity="1"/>
<polyline clip-path="url(#clip332)" style="stroke:#000000; stroke-linecap:round; stroke-linejoin:round; stroke-width:4; stroke-opacity:1; fill:none" points="1487.94,1345.22 1487.94,1384.24 1502.88,1384.24 1502.88,1345.22 1487.94,1345.22 "/>
<path clip-path="url(#clip332)" d="M1506.72 1345.65 L1506.72 1384.24 L1521.66 1384.24 L1521.66 1345.65 L1506.72 1345.65 L1506.72 1345.65  Z" fill="#009af9" fill-rule="evenodd" fill-opacity="1"/>
<polyline clip-path="url(#clip332)" style="stroke:#000000; stroke-linecap:round; stroke-linejoin:round; stroke-width:4; stroke-opacity:1; fill:none" points="1506.72,1345.65 1506.72,1384.24 1521.66,1384.24 1521.66,1345.65 1506.72,1345.65 "/>
<path clip-path="url(#clip332)" d="M1525.5 1346.07 L1525.5 1384.24 L1540.45 1384.24 L1540.45 1346.07 L1525.5 1346.07 L1525.5 1346.07  Z" fill="#009af9" fill-rule="evenodd" fill-opacity="1"/>
<polyline clip-path="url(#clip332)" style="stroke:#000000; stroke-linecap:round; stroke-linejoin:round; stroke-width:4; stroke-opacity:1; fill:none" points="1525.5,1346.07 1525.5,1384.24 1540.45,1384.24 1540.45,1346.07 1525.5,1346.07 "/>
<path clip-path="url(#clip332)" d="M1544.28 1346.49 L1544.28 1384.24 L1559.23 1384.24 L1559.23 1346.49 L1544.28 1346.49 L1544.28 1346.49  Z" fill="#009af9" fill-rule="evenodd" fill-opacity="1"/>
<polyline clip-path="url(#clip332)" style="stroke:#000000; stroke-linecap:round; stroke-linejoin:round; stroke-width:4; stroke-opacity:1; fill:none" points="1544.28,1346.49 1544.28,1384.24 1559.23,1384.24 1559.23,1346.49 1544.28,1346.49 "/>
<path clip-path="url(#clip332)" d="M1563.06 1346.88 L1563.06 1384.24 L1578.01 1384.24 L1578.01 1346.88 L1563.06 1346.88 L1563.06 1346.88  Z" fill="#009af9" fill-rule="evenodd" fill-opacity="1"/>
<polyline clip-path="url(#clip332)" style="stroke:#000000; stroke-linecap:round; stroke-linejoin:round; stroke-width:4; stroke-opacity:1; fill:none" points="1563.06,1346.88 1563.06,1384.24 1578.01,1384.24 1578.01,1346.88 1563.06,1346.88 "/>
<path clip-path="url(#clip332)" d="M1581.84 1347.27 L1581.84 1384.24 L1596.79 1384.24 L1596.79 1347.27 L1581.84 1347.27 L1581.84 1347.27  Z" fill="#009af9" fill-rule="evenodd" fill-opacity="1"/>
<polyline clip-path="url(#clip332)" style="stroke:#000000; stroke-linecap:round; stroke-linejoin:round; stroke-width:4; stroke-opacity:1; fill:none" points="1581.84,1347.27 1581.84,1384.24 1596.79,1384.24 1596.79,1347.27 1581.84,1347.27 "/>
<path clip-path="url(#clip332)" d="M1600.62 1347.65 L1600.62 1384.24 L1615.57 1384.24 L1615.57 1347.65 L1600.62 1347.65 L1600.62 1347.65  Z" fill="#009af9" fill-rule="evenodd" fill-opacity="1"/>
<polyline clip-path="url(#clip332)" style="stroke:#000000; stroke-linecap:round; stroke-linejoin:round; stroke-width:4; stroke-opacity:1; fill:none" points="1600.62,1347.65 1600.62,1384.24 1615.57,1384.24 1615.57,1347.65 1600.62,1347.65 "/>
<path clip-path="url(#clip332)" d="M1619.4 1348.02 L1619.4 1384.24 L1634.35 1384.24 L1634.35 1348.02 L1619.4 1348.02 L1619.4 1348.02  Z" fill="#009af9" fill-rule="evenodd" fill-opacity="1"/>
<polyline clip-path="url(#clip332)" style="stroke:#000000; stroke-linecap:round; stroke-linejoin:round; stroke-width:4; stroke-opacity:1; fill:none" points="1619.4,1348.02 1619.4,1384.24 1634.35,1384.24 1634.35,1348.02 1619.4,1348.02 "/>
<path clip-path="url(#clip332)" d="M1638.19 1348.37 L1638.19 1384.24 L1653.13 1384.24 L1653.13 1348.37 L1638.19 1348.37 L1638.19 1348.37  Z" fill="#009af9" fill-rule="evenodd" fill-opacity="1"/>
<polyline clip-path="url(#clip332)" style="stroke:#000000; stroke-linecap:round; stroke-linejoin:round; stroke-width:4; stroke-opacity:1; fill:none" points="1638.19,1348.37 1638.19,1384.24 1653.13,1384.24 1653.13,1348.37 1638.19,1348.37 "/>
<path clip-path="url(#clip332)" d="M1656.97 1348.72 L1656.97 1384.24 L1671.91 1384.24 L1671.91 1348.72 L1656.97 1348.72 L1656.97 1348.72  Z" fill="#009af9" fill-rule="evenodd" fill-opacity="1"/>
<polyline clip-path="url(#clip332)" style="stroke:#000000; stroke-linecap:round; stroke-linejoin:round; stroke-width:4; stroke-opacity:1; fill:none" points="1656.97,1348.72 1656.97,1384.24 1671.91,1384.24 1671.91,1348.72 1656.97,1348.72 "/>
<path clip-path="url(#clip332)" d="M1675.75 1349.06 L1675.75 1384.24 L1690.7 1384.24 L1690.7 1349.06 L1675.75 1349.06 L1675.75 1349.06  Z" fill="#009af9" fill-rule="evenodd" fill-opacity="1"/>
<polyline clip-path="url(#clip332)" style="stroke:#000000; stroke-linecap:round; stroke-linejoin:round; stroke-width:4; stroke-opacity:1; fill:none" points="1675.75,1349.06 1675.75,1384.24 1690.7,1384.24 1690.7,1349.06 1675.75,1349.06 "/>
<path clip-path="url(#clip332)" d="M1694.53 1349.39 L1694.53 1384.24 L1709.48 1384.24 L1709.48 1349.39 L1694.53 1349.39 L1694.53 1349.39  Z" fill="#009af9" fill-rule="evenodd" fill-opacity="1"/>
<polyline clip-path="url(#clip332)" style="stroke:#000000; stroke-linecap:round; stroke-linejoin:round; stroke-width:4; stroke-opacity:1; fill:none" points="1694.53,1349.39 1694.53,1384.24 1709.48,1384.24 1709.48,1349.39 1694.53,1349.39 "/>
<path clip-path="url(#clip332)" d="M1713.31 1349.71 L1713.31 1384.24 L1728.26 1384.24 L1728.26 1349.71 L1713.31 1349.71 L1713.31 1349.71  Z" fill="#009af9" fill-rule="evenodd" fill-opacity="1"/>
<polyline clip-path="url(#clip332)" style="stroke:#000000; stroke-linecap:round; stroke-linejoin:round; stroke-width:4; stroke-opacity:1; fill:none" points="1713.31,1349.71 1713.31,1384.24 1728.26,1384.24 1728.26,1349.71 1713.31,1349.71 "/>
<path clip-path="url(#clip332)" d="M1732.09 1350.02 L1732.09 1384.24 L1747.04 1384.24 L1747.04 1350.02 L1732.09 1350.02 L1732.09 1350.02  Z" fill="#009af9" fill-rule="evenodd" fill-opacity="1"/>
<polyline clip-path="url(#clip332)" style="stroke:#000000; stroke-linecap:round; stroke-linejoin:round; stroke-width:4; stroke-opacity:1; fill:none" points="1732.09,1350.02 1732.09,1384.24 1747.04,1384.24 1747.04,1350.02 1732.09,1350.02 "/>
<path clip-path="url(#clip332)" d="M1750.88 1350.32 L1750.88 1384.24 L1765.82 1384.24 L1765.82 1350.32 L1750.88 1350.32 L1750.88 1350.32  Z" fill="#009af9" fill-rule="evenodd" fill-opacity="1"/>
<polyline clip-path="url(#clip332)" style="stroke:#000000; stroke-linecap:round; stroke-linejoin:round; stroke-width:4; stroke-opacity:1; fill:none" points="1750.88,1350.32 1750.88,1384.24 1765.82,1384.24 1765.82,1350.32 1750.88,1350.32 "/>
<path clip-path="url(#clip332)" d="M1769.66 1350.62 L1769.66 1384.24 L1784.61 1384.24 L1784.61 1350.62 L1769.66 1350.62 L1769.66 1350.62  Z" fill="#009af9" fill-rule="evenodd" fill-opacity="1"/>
<polyline clip-path="url(#clip332)" style="stroke:#000000; stroke-linecap:round; stroke-linejoin:round; stroke-width:4; stroke-opacity:1; fill:none" points="1769.66,1350.62 1769.66,1384.24 1784.61,1384.24 1784.61,1350.62 1769.66,1350.62 "/>
<path clip-path="url(#clip332)" d="M1788.44 1350.9 L1788.44 1384.24 L1803.39 1384.24 L1803.39 1350.9 L1788.44 1350.9 L1788.44 1350.9  Z" fill="#009af9" fill-rule="evenodd" fill-opacity="1"/>
<polyline clip-path="url(#clip332)" style="stroke:#000000; stroke-linecap:round; stroke-linejoin:round; stroke-width:4; stroke-opacity:1; fill:none" points="1788.44,1350.9 1788.44,1384.24 1803.39,1384.24 1803.39,1350.9 1788.44,1350.9 "/>
<path clip-path="url(#clip332)" d="M1807.22 1351.18 L1807.22 1384.24 L1822.17 1384.24 L1822.17 1351.18 L1807.22 1351.18 L1807.22 1351.18  Z" fill="#009af9" fill-rule="evenodd" fill-opacity="1"/>
<polyline clip-path="url(#clip332)" style="stroke:#000000; stroke-linecap:round; stroke-linejoin:round; stroke-width:4; stroke-opacity:1; fill:none" points="1807.22,1351.18 1807.22,1384.24 1822.17,1384.24 1822.17,1351.18 1807.22,1351.18 "/>
<path clip-path="url(#clip332)" d="M1826.01 1351.45 L1826.01 1384.24 L1840.95 1384.24 L1840.95 1351.45 L1826.01 1351.45 L1826.01 1351.45  Z" fill="#009af9" fill-rule="evenodd" fill-opacity="1"/>
<polyline clip-path="url(#clip332)" style="stroke:#000000; stroke-linecap:round; stroke-linejoin:round; stroke-width:4; stroke-opacity:1; fill:none" points="1826.01,1351.45 1826.01,1384.24 1840.95,1384.24 1840.95,1351.45 1826.01,1351.45 "/>
<path clip-path="url(#clip332)" d="M1844.79 1351.71 L1844.79 1384.24 L1859.73 1384.24 L1859.73 1351.71 L1844.79 1351.71 L1844.79 1351.71  Z" fill="#009af9" fill-rule="evenodd" fill-opacity="1"/>
<polyline clip-path="url(#clip332)" style="stroke:#000000; stroke-linecap:round; stroke-linejoin:round; stroke-width:4; stroke-opacity:1; fill:none" points="1844.79,1351.71 1844.79,1384.24 1859.73,1384.24 1859.73,1351.71 1844.79,1351.71 "/>
<path clip-path="url(#clip332)" d="M1863.57 1351.97 L1863.57 1384.24 L1878.52 1384.24 L1878.52 1351.97 L1863.57 1351.97 L1863.57 1351.97  Z" fill="#009af9" fill-rule="evenodd" fill-opacity="1"/>
<polyline clip-path="url(#clip332)" style="stroke:#000000; stroke-linecap:round; stroke-linejoin:round; stroke-width:4; stroke-opacity:1; fill:none" points="1863.57,1351.97 1863.57,1384.24 1878.52,1384.24 1878.52,1351.97 1863.57,1351.97 "/>
<path clip-path="url(#clip332)" d="M1882.35 1352.21 L1882.35 1384.24 L1897.3 1384.24 L1897.3 1352.21 L1882.35 1352.21 L1882.35 1352.21  Z" fill="#009af9" fill-rule="evenodd" fill-opacity="1"/>
<polyline clip-path="url(#clip332)" style="stroke:#000000; stroke-linecap:round; stroke-linejoin:round; stroke-width:4; stroke-opacity:1; fill:none" points="1882.35,1352.21 1882.35,1384.24 1897.3,1384.24 1897.3,1352.21 1882.35,1352.21 "/>
<path clip-path="url(#clip332)" d="M1901.14 1352.45 L1901.14 1384.24 L1916.08 1384.24 L1916.08 1352.45 L1901.14 1352.45 L1901.14 1352.45  Z" fill="#009af9" fill-rule="evenodd" fill-opacity="1"/>
<polyline clip-path="url(#clip332)" style="stroke:#000000; stroke-linecap:round; stroke-linejoin:round; stroke-width:4; stroke-opacity:1; fill:none" points="1901.14,1352.45 1901.14,1384.24 1916.08,1384.24 1916.08,1352.45 1901.14,1352.45 "/>
<path clip-path="url(#clip332)" d="M1919.92 1352.68 L1919.92 1384.24 L1934.87 1384.24 L1934.87 1352.68 L1919.92 1352.68 L1919.92 1352.68  Z" fill="#009af9" fill-rule="evenodd" fill-opacity="1"/>
<polyline clip-path="url(#clip332)" style="stroke:#000000; stroke-linecap:round; stroke-linejoin:round; stroke-width:4; stroke-opacity:1; fill:none" points="1919.92,1352.68 1919.92,1384.24 1934.87,1384.24 1934.87,1352.68 1919.92,1352.68 "/>
<path clip-path="url(#clip332)" d="M1938.7 1352.91 L1938.7 1384.24 L1953.65 1384.24 L1953.65 1352.91 L1938.7 1352.91 L1938.7 1352.91  Z" fill="#009af9" fill-rule="evenodd" fill-opacity="1"/>
<polyline clip-path="url(#clip332)" style="stroke:#000000; stroke-linecap:round; stroke-linejoin:round; stroke-width:4; stroke-opacity:1; fill:none" points="1938.7,1352.91 1938.7,1384.24 1953.65,1384.24 1953.65,1352.91 1938.7,1352.91 "/>
<path clip-path="url(#clip332)" d="M1957.49 1353.12 L1957.49 1384.24 L1972.43 1384.24 L1972.43 1353.12 L1957.49 1353.12 L1957.49 1353.12  Z" fill="#009af9" fill-rule="evenodd" fill-opacity="1"/>
<polyline clip-path="url(#clip332)" style="stroke:#000000; stroke-linecap:round; stroke-linejoin:round; stroke-width:4; stroke-opacity:1; fill:none" points="1957.49,1353.12 1957.49,1384.24 1972.43,1384.24 1972.43,1353.12 1957.49,1353.12 "/>
<path clip-path="url(#clip332)" d="M1976.27 1353.33 L1976.27 1384.24 L1991.22 1384.24 L1991.22 1353.33 L1976.27 1353.33 L1976.27 1353.33  Z" fill="#009af9" fill-rule="evenodd" fill-opacity="1"/>
<polyline clip-path="url(#clip332)" style="stroke:#000000; stroke-linecap:round; stroke-linejoin:round; stroke-width:4; stroke-opacity:1; fill:none" points="1976.27,1353.33 1976.27,1384.24 1991.22,1384.24 1991.22,1353.33 1976.27,1353.33 "/>
<path clip-path="url(#clip332)" d="M1995.05 1353.52 L1995.05 1384.24 L2010 1384.24 L2010 1353.52 L1995.05 1353.52 L1995.05 1353.52  Z" fill="#009af9" fill-rule="evenodd" fill-opacity="1"/>
<polyline clip-path="url(#clip332)" style="stroke:#000000; stroke-linecap:round; stroke-linejoin:round; stroke-width:4; stroke-opacity:1; fill:none" points="1995.05,1353.52 1995.05,1384.24 2010,1384.24 2010,1353.52 1995.05,1353.52 "/>
<path clip-path="url(#clip332)" d="M2013.84 1353.71 L2013.84 1384.24 L2028.78 1384.24 L2028.78 1353.71 L2013.84 1353.71 L2013.84 1353.71  Z" fill="#009af9" fill-rule="evenodd" fill-opacity="1"/>
<polyline clip-path="url(#clip332)" style="stroke:#000000; stroke-linecap:round; stroke-linejoin:round; stroke-width:4; stroke-opacity:1; fill:none" points="2013.84,1353.71 2013.84,1384.24 2028.78,1384.24 2028.78,1353.71 2013.84,1353.71 "/>
<path clip-path="url(#clip332)" d="M2032.62 1353.89 L2032.62 1384.24 L2047.57 1384.24 L2047.57 1353.89 L2032.62 1353.89 L2032.62 1353.89  Z" fill="#009af9" fill-rule="evenodd" fill-opacity="1"/>
<polyline clip-path="url(#clip332)" style="stroke:#000000; stroke-linecap:round; stroke-linejoin:round; stroke-width:4; stroke-opacity:1; fill:none" points="2032.62,1353.89 2032.62,1384.24 2047.57,1384.24 2047.57,1353.89 2032.62,1353.89 "/>
<path clip-path="url(#clip332)" d="M2051.4 1354.05 L2051.4 1384.24 L2066.35 1384.24 L2066.35 1354.05 L2051.4 1354.05 L2051.4 1354.05  Z" fill="#009af9" fill-rule="evenodd" fill-opacity="1"/>
<polyline clip-path="url(#clip332)" style="stroke:#000000; stroke-linecap:round; stroke-linejoin:round; stroke-width:4; stroke-opacity:1; fill:none" points="2051.4,1354.05 2051.4,1384.24 2066.35,1384.24 2066.35,1354.05 2051.4,1354.05 "/>
<path clip-path="url(#clip332)" d="M2070.19 1354.2 L2070.19 1384.24 L2085.13 1384.24 L2085.13 1354.2 L2070.19 1354.2 L2070.19 1354.2  Z" fill="#009af9" fill-rule="evenodd" fill-opacity="1"/>
<polyline clip-path="url(#clip332)" style="stroke:#000000; stroke-linecap:round; stroke-linejoin:round; stroke-width:4; stroke-opacity:1; fill:none" points="2070.19,1354.2 2070.19,1384.24 2085.13,1384.24 2085.13,1354.2 2070.19,1354.2 "/>
<path clip-path="url(#clip332)" d="M2088.97 1354.34 L2088.97 1384.24 L2103.92 1384.24 L2103.92 1354.34 L2088.97 1354.34 L2088.97 1354.34  Z" fill="#009af9" fill-rule="evenodd" fill-opacity="1"/>
<polyline clip-path="url(#clip332)" style="stroke:#000000; stroke-linecap:round; stroke-linejoin:round; stroke-width:4; stroke-opacity:1; fill:none" points="2088.97,1354.34 2088.97,1384.24 2103.92,1384.24 2103.92,1354.34 2088.97,1354.34 "/>
<path clip-path="url(#clip332)" d="M2107.76 1354.45 L2107.76 1384.24 L2122.7 1384.24 L2122.7 1354.45 L2107.76 1354.45 L2107.76 1354.45  Z" fill="#009af9" fill-rule="evenodd" fill-opacity="1"/>
<polyline clip-path="url(#clip332)" style="stroke:#000000; stroke-linecap:round; stroke-linejoin:round; stroke-width:4; stroke-opacity:1; fill:none" points="2107.76,1354.45 2107.76,1384.24 2122.7,1384.24 2122.7,1354.45 2107.76,1354.45 "/>
<path clip-path="url(#clip332)" d="M2126.54 1354.55 L2126.54 1384.24 L2141.49 1384.24 L2141.49 1354.55 L2126.54 1354.55 L2126.54 1354.55  Z" fill="#009af9" fill-rule="evenodd" fill-opacity="1"/>
<polyline clip-path="url(#clip332)" style="stroke:#000000; stroke-linecap:round; stroke-linejoin:round; stroke-width:4; stroke-opacity:1; fill:none" points="2126.54,1354.55 2126.54,1384.24 2141.49,1384.24 2141.49,1354.55 2126.54,1354.55 "/>
<path clip-path="url(#clip332)" d="M2145.33 1354.61 L2145.33 1384.24 L2160.27 1384.24 L2160.27 1354.61 L2145.33 1354.61 L2145.33 1354.61  Z" fill="#009af9" fill-rule="evenodd" fill-opacity="1"/>
<polyline clip-path="url(#clip332)" style="stroke:#000000; stroke-linecap:round; stroke-linejoin:round; stroke-width:4; stroke-opacity:1; fill:none" points="2145.33,1354.61 2145.33,1384.24 2160.27,1384.24 2160.27,1354.61 2145.33,1354.61 "/>
<path clip-path="url(#clip332)" d="M2164.11 1354.62 L2164.11 1384.24 L2179.06 1384.24 L2179.06 1354.62 L2164.11 1354.62 L2164.11 1354.62  Z" fill="#009af9" fill-rule="evenodd" fill-opacity="1"/>
<polyline clip-path="url(#clip332)" style="stroke:#000000; stroke-linecap:round; stroke-linejoin:round; stroke-width:4; stroke-opacity:1; fill:none" points="2164.11,1354.62 2164.11,1384.24 2179.06,1384.24 2179.06,1354.62 2164.11,1354.62 "/>
<path clip-path="url(#clip332)" d="M2182.9 1354.55 L2182.9 1384.24 L2197.85 1384.24 L2197.85 1354.55 L2182.9 1354.55 L2182.9 1354.55  Z" fill="#009af9" fill-rule="evenodd" fill-opacity="1"/>
<polyline clip-path="url(#clip332)" style="stroke:#000000; stroke-linecap:round; stroke-linejoin:round; stroke-width:4; stroke-opacity:1; fill:none" points="2182.9,1354.55 2182.9,1384.24 2197.85,1384.24 2197.85,1354.55 2182.9,1354.55 "/>
<path clip-path="url(#clip332)" d="M2201.69 1354.32 L2201.69 1384.24 L2216.64 1384.24 L2216.64 1354.32 L2201.69 1354.32 L2201.69 1354.32  Z" fill="#009af9" fill-rule="evenodd" fill-opacity="1"/>
<polyline clip-path="url(#clip332)" style="stroke:#000000; stroke-linecap:round; stroke-linejoin:round; stroke-width:4; stroke-opacity:1; fill:none" points="2201.69,1354.32 2201.69,1384.24 2216.64,1384.24 2216.64,1354.32 2201.69,1354.32 "/>
<path clip-path="url(#clip332)" d="M2220.5 1353.56 L2220.5 1384.24 L2235.44 1384.24 L2235.44 1353.56 L2220.5 1353.56 L2220.5 1353.56  Z" fill="#009af9" fill-rule="evenodd" fill-opacity="1"/>
<polyline clip-path="url(#clip332)" style="stroke:#000000; stroke-linecap:round; stroke-linejoin:round; stroke-width:4; stroke-opacity:1; fill:none" points="2220.5,1353.56 2220.5,1384.24 2235.44,1384.24 2235.44,1353.56 2220.5,1353.56 "/>
<circle clip-path="url(#clip332)" style="fill:#009af9; stroke:none; fill-opacity:0" cx="344.652" cy="86.1857" r="2"/>
<circle clip-path="url(#clip332)" style="fill:#009af9; stroke:none; fill-opacity:0" cx="369.456" cy="1037.23" r="2"/>
<circle clip-path="url(#clip332)" style="fill:#009af9; stroke:none; fill-opacity:0" cx="388.486" cy="1091.62" r="2"/>
<circle clip-path="url(#clip332)" style="fill:#009af9; stroke:none; fill-opacity:0" cx="407.202" cy="1133.83" r="2"/>
<circle clip-path="url(#clip332)" style="fill:#009af9; stroke:none; fill-opacity:0" cx="425.886" cy="1164.53" r="2"/>
<circle clip-path="url(#clip332)" style="fill:#009af9; stroke:none; fill-opacity:0" cx="444.572" cy="1187.78" r="2"/>
<circle clip-path="url(#clip332)" style="fill:#009af9; stroke:none; fill-opacity:0" cx="463.268" cy="1206.03" r="2"/>
<circle clip-path="url(#clip332)" style="fill:#009af9; stroke:none; fill-opacity:0" cx="481.973" cy="1220.78" r="2"/>
<circle clip-path="url(#clip332)" style="fill:#009af9; stroke:none; fill-opacity:0" cx="500.688" cy="1232.96" r="2"/>
<circle clip-path="url(#clip332)" style="fill:#009af9; stroke:none; fill-opacity:0" cx="519.411" cy="1243.22" r="2"/>
<circle clip-path="url(#clip332)" style="fill:#009af9; stroke:none; fill-opacity:0" cx="538.14" cy="1251.99" r="2"/>
<circle clip-path="url(#clip332)" style="fill:#009af9; stroke:none; fill-opacity:0" cx="556.874" cy="1259.58" r="2"/>
<circle clip-path="url(#clip332)" style="fill:#009af9; stroke:none; fill-opacity:0" cx="575.614" cy="1266.23" r="2"/>
<circle clip-path="url(#clip332)" style="fill:#009af9; stroke:none; fill-opacity:0" cx="594.357" cy="1272.1" r="2"/>
<circle clip-path="url(#clip332)" style="fill:#009af9; stroke:none; fill-opacity:0" cx="613.104" cy="1277.33" r="2"/>
<circle clip-path="url(#clip332)" style="fill:#009af9; stroke:none; fill-opacity:0" cx="631.854" cy="1282.02" r="2"/>
<circle clip-path="url(#clip332)" style="fill:#009af9; stroke:none; fill-opacity:0" cx="650.607" cy="1286.26" r="2"/>
<circle clip-path="url(#clip332)" style="fill:#009af9; stroke:none; fill-opacity:0" cx="669.363" cy="1290.11" r="2"/>
<circle clip-path="url(#clip332)" style="fill:#009af9; stroke:none; fill-opacity:0" cx="688.12" cy="1293.62" r="2"/>
<circle clip-path="url(#clip332)" style="fill:#009af9; stroke:none; fill-opacity:0" cx="706.879" cy="1296.83" r="2"/>
<circle clip-path="url(#clip332)" style="fill:#009af9; stroke:none; fill-opacity:0" cx="725.64" cy="1299.79" r="2"/>
<circle clip-path="url(#clip332)" style="fill:#009af9; stroke:none; fill-opacity:0" cx="744.403" cy="1302.53" r="2"/>
<circle clip-path="url(#clip332)" style="fill:#009af9; stroke:none; fill-opacity:0" cx="763.167" cy="1305.06" r="2"/>
<circle clip-path="url(#clip332)" style="fill:#009af9; stroke:none; fill-opacity:0" cx="781.932" cy="1307.42" r="2"/>
<circle clip-path="url(#clip332)" style="fill:#009af9; stroke:none; fill-opacity:0" cx="800.698" cy="1309.62" r="2"/>
<circle clip-path="url(#clip332)" style="fill:#009af9; stroke:none; fill-opacity:0" cx="819.466" cy="1311.67" r="2"/>
<circle clip-path="url(#clip332)" style="fill:#009af9; stroke:none; fill-opacity:0" cx="838.234" cy="1313.6" r="2"/>
<circle clip-path="url(#clip332)" style="fill:#009af9; stroke:none; fill-opacity:0" cx="857.003" cy="1315.41" r="2"/>
<circle clip-path="url(#clip332)" style="fill:#009af9; stroke:none; fill-opacity:0" cx="875.773" cy="1317.11" r="2"/>
<circle clip-path="url(#clip332)" style="fill:#009af9; stroke:none; fill-opacity:0" cx="894.544" cy="1318.72" r="2"/>
<circle clip-path="url(#clip332)" style="fill:#009af9; stroke:none; fill-opacity:0" cx="913.315" cy="1320.24" r="2"/>
<circle clip-path="url(#clip332)" style="fill:#009af9; stroke:none; fill-opacity:0" cx="932.087" cy="1321.68" r="2"/>
<circle clip-path="url(#clip332)" style="fill:#009af9; stroke:none; fill-opacity:0" cx="950.86" cy="1323.04" r="2"/>
<circle clip-path="url(#clip332)" style="fill:#009af9; stroke:none; fill-opacity:0" cx="969.633" cy="1324.34" r="2"/>
<circle clip-path="url(#clip332)" style="fill:#009af9; stroke:none; fill-opacity:0" cx="988.406" cy="1325.57" r="2"/>
<circle clip-path="url(#clip332)" style="fill:#009af9; stroke:none; fill-opacity:0" cx="1007.18" cy="1326.74" r="2"/>
<circle clip-path="url(#clip332)" style="fill:#009af9; stroke:none; fill-opacity:0" cx="1025.95" cy="1327.86" r="2"/>
<circle clip-path="url(#clip332)" style="fill:#009af9; stroke:none; fill-opacity:0" cx="1044.73" cy="1328.92" r="2"/>
<circle clip-path="url(#clip332)" style="fill:#009af9; stroke:none; fill-opacity:0" cx="1063.51" cy="1329.95" r="2"/>
<circle clip-path="url(#clip332)" style="fill:#009af9; stroke:none; fill-opacity:0" cx="1082.28" cy="1330.92" r="2"/>
<circle clip-path="url(#clip332)" style="fill:#009af9; stroke:none; fill-opacity:0" cx="1101.06" cy="1331.86" r="2"/>
<circle clip-path="url(#clip332)" style="fill:#009af9; stroke:none; fill-opacity:0" cx="1119.83" cy="1332.75" r="2"/>
<circle clip-path="url(#clip332)" style="fill:#009af9; stroke:none; fill-opacity:0" cx="1138.61" cy="1333.61" r="2"/>
<circle clip-path="url(#clip332)" style="fill:#009af9; stroke:none; fill-opacity:0" cx="1157.39" cy="1334.44" r="2"/>
<circle clip-path="url(#clip332)" style="fill:#009af9; stroke:none; fill-opacity:0" cx="1176.16" cy="1335.23" r="2"/>
<circle clip-path="url(#clip332)" style="fill:#009af9; stroke:none; fill-opacity:0" cx="1194.94" cy="1336" r="2"/>
<circle clip-path="url(#clip332)" style="fill:#009af9; stroke:none; fill-opacity:0" cx="1213.72" cy="1336.74" r="2"/>
<circle clip-path="url(#clip332)" style="fill:#009af9; stroke:none; fill-opacity:0" cx="1232.5" cy="1337.44" r="2"/>
<circle clip-path="url(#clip332)" style="fill:#009af9; stroke:none; fill-opacity:0" cx="1251.28" cy="1338.13" r="2"/>
<circle clip-path="url(#clip332)" style="fill:#009af9; stroke:none; fill-opacity:0" cx="1270.05" cy="1338.79" r="2"/>
<circle clip-path="url(#clip332)" style="fill:#009af9; stroke:none; fill-opacity:0" cx="1288.83" cy="1339.43" r="2"/>
<circle clip-path="url(#clip332)" style="fill:#009af9; stroke:none; fill-opacity:0" cx="1307.61" cy="1340.04" r="2"/>
<circle clip-path="url(#clip332)" style="fill:#009af9; stroke:none; fill-opacity:0" cx="1326.39" cy="1340.64" r="2"/>
<circle clip-path="url(#clip332)" style="fill:#009af9; stroke:none; fill-opacity:0" cx="1345.17" cy="1341.21" r="2"/>
<circle clip-path="url(#clip332)" style="fill:#009af9; stroke:none; fill-opacity:0" cx="1363.95" cy="1341.77" r="2"/>
<circle clip-path="url(#clip332)" style="fill:#009af9; stroke:none; fill-opacity:0" cx="1382.73" cy="1342.31" r="2"/>
<circle clip-path="url(#clip332)" style="fill:#009af9; stroke:none; fill-opacity:0" cx="1401.51" cy="1342.83" r="2"/>
<circle clip-path="url(#clip332)" style="fill:#009af9; stroke:none; fill-opacity:0" cx="1420.29" cy="1343.34" r="2"/>
<circle clip-path="url(#clip332)" style="fill:#009af9; stroke:none; fill-opacity:0" cx="1439.07" cy="1343.83" r="2"/>
<circle clip-path="url(#clip332)" style="fill:#009af9; stroke:none; fill-opacity:0" cx="1457.85" cy="1344.31" r="2"/>
<circle clip-path="url(#clip332)" style="fill:#009af9; stroke:none; fill-opacity:0" cx="1476.63" cy="1344.77" r="2"/>
<circle clip-path="url(#clip332)" style="fill:#009af9; stroke:none; fill-opacity:0" cx="1495.41" cy="1345.22" r="2"/>
<circle clip-path="url(#clip332)" style="fill:#009af9; stroke:none; fill-opacity:0" cx="1514.19" cy="1345.65" r="2"/>
<circle clip-path="url(#clip332)" style="fill:#009af9; stroke:none; fill-opacity:0" cx="1532.97" cy="1346.07" r="2"/>
<circle clip-path="url(#clip332)" style="fill:#009af9; stroke:none; fill-opacity:0" cx="1551.75" cy="1346.49" r="2"/>
<circle clip-path="url(#clip332)" style="fill:#009af9; stroke:none; fill-opacity:0" cx="1570.53" cy="1346.88" r="2"/>
<circle clip-path="url(#clip332)" style="fill:#009af9; stroke:none; fill-opacity:0" cx="1589.32" cy="1347.27" r="2"/>
<circle clip-path="url(#clip332)" style="fill:#009af9; stroke:none; fill-opacity:0" cx="1608.1" cy="1347.65" r="2"/>
<circle clip-path="url(#clip332)" style="fill:#009af9; stroke:none; fill-opacity:0" cx="1626.88" cy="1348.02" r="2"/>
<circle clip-path="url(#clip332)" style="fill:#009af9; stroke:none; fill-opacity:0" cx="1645.66" cy="1348.37" r="2"/>
<circle clip-path="url(#clip332)" style="fill:#009af9; stroke:none; fill-opacity:0" cx="1664.44" cy="1348.72" r="2"/>
<circle clip-path="url(#clip332)" style="fill:#009af9; stroke:none; fill-opacity:0" cx="1683.22" cy="1349.06" r="2"/>
<circle clip-path="url(#clip332)" style="fill:#009af9; stroke:none; fill-opacity:0" cx="1702" cy="1349.39" r="2"/>
<circle clip-path="url(#clip332)" style="fill:#009af9; stroke:none; fill-opacity:0" cx="1720.79" cy="1349.71" r="2"/>
<circle clip-path="url(#clip332)" style="fill:#009af9; stroke:none; fill-opacity:0" cx="1739.57" cy="1350.02" r="2"/>
<circle clip-path="url(#clip332)" style="fill:#009af9; stroke:none; fill-opacity:0" cx="1758.35" cy="1350.32" r="2"/>
<circle clip-path="url(#clip332)" style="fill:#009af9; stroke:none; fill-opacity:0" cx="1777.13" cy="1350.62" r="2"/>
<circle clip-path="url(#clip332)" style="fill:#009af9; stroke:none; fill-opacity:0" cx="1795.91" cy="1350.9" r="2"/>
<circle clip-path="url(#clip332)" style="fill:#009af9; stroke:none; fill-opacity:0" cx="1814.7" cy="1351.18" r="2"/>
<circle clip-path="url(#clip332)" style="fill:#009af9; stroke:none; fill-opacity:0" cx="1833.48" cy="1351.45" r="2"/>
<circle clip-path="url(#clip332)" style="fill:#009af9; stroke:none; fill-opacity:0" cx="1852.26" cy="1351.71" r="2"/>
<circle clip-path="url(#clip332)" style="fill:#009af9; stroke:none; fill-opacity:0" cx="1871.04" cy="1351.97" r="2"/>
<circle clip-path="url(#clip332)" style="fill:#009af9; stroke:none; fill-opacity:0" cx="1889.83" cy="1352.21" r="2"/>
<circle clip-path="url(#clip332)" style="fill:#009af9; stroke:none; fill-opacity:0" cx="1908.61" cy="1352.45" r="2"/>
<circle clip-path="url(#clip332)" style="fill:#009af9; stroke:none; fill-opacity:0" cx="1927.39" cy="1352.68" r="2"/>
<circle clip-path="url(#clip332)" style="fill:#009af9; stroke:none; fill-opacity:0" cx="1946.18" cy="1352.91" r="2"/>
<circle clip-path="url(#clip332)" style="fill:#009af9; stroke:none; fill-opacity:0" cx="1964.96" cy="1353.12" r="2"/>
<circle clip-path="url(#clip332)" style="fill:#009af9; stroke:none; fill-opacity:0" cx="1983.74" cy="1353.33" r="2"/>
<circle clip-path="url(#clip332)" style="fill:#009af9; stroke:none; fill-opacity:0" cx="2002.53" cy="1353.52" r="2"/>
<circle clip-path="url(#clip332)" style="fill:#009af9; stroke:none; fill-opacity:0" cx="2021.31" cy="1353.71" r="2"/>
<circle clip-path="url(#clip332)" style="fill:#009af9; stroke:none; fill-opacity:0" cx="2040.09" cy="1353.89" r="2"/>
<circle clip-path="url(#clip332)" style="fill:#009af9; stroke:none; fill-opacity:0" cx="2058.88" cy="1354.05" r="2"/>
<circle clip-path="url(#clip332)" style="fill:#009af9; stroke:none; fill-opacity:0" cx="2077.66" cy="1354.2" r="2"/>
<circle clip-path="url(#clip332)" style="fill:#009af9; stroke:none; fill-opacity:0" cx="2096.45" cy="1354.34" r="2"/>
<circle clip-path="url(#clip332)" style="fill:#009af9; stroke:none; fill-opacity:0" cx="2115.23" cy="1354.45" r="2"/>
<circle clip-path="url(#clip332)" style="fill:#009af9; stroke:none; fill-opacity:0" cx="2134.02" cy="1354.55" r="2"/>
<circle clip-path="url(#clip332)" style="fill:#009af9; stroke:none; fill-opacity:0" cx="2152.8" cy="1354.61" r="2"/>
<circle clip-path="url(#clip332)" style="fill:#009af9; stroke:none; fill-opacity:0" cx="2171.59" cy="1354.62" r="2"/>
<circle clip-path="url(#clip332)" style="fill:#009af9; stroke:none; fill-opacity:0" cx="2190.38" cy="1354.55" r="2"/>
<circle clip-path="url(#clip332)" style="fill:#009af9; stroke:none; fill-opacity:0" cx="2209.17" cy="1354.32" r="2"/>
<circle clip-path="url(#clip332)" style="fill:#009af9; stroke:none; fill-opacity:0" cx="2227.97" cy="1353.56" r="2"/>
<path clip-path="url(#clip330)" d="M2015.94 196.789 L2281.66 196.789 L2281.66 93.1086 L2015.94 93.1086  Z" fill="#ffffff" fill-rule="evenodd" fill-opacity="1"/>
<polyline clip-path="url(#clip330)" style="stroke:#000000; stroke-linecap:round; stroke-linejoin:round; stroke-width:4; stroke-opacity:1; fill:none" points="2015.94,196.789 2281.66,196.789 2281.66,93.1086 2015.94,93.1086 2015.94,196.789 "/>
<path clip-path="url(#clip330)" d="M2039.64 165.685 L2181.83 165.685 L2181.83 124.213 L2039.64 124.213 L2039.64 165.685  Z" fill="#009af9" fill-rule="evenodd" fill-opacity="1"/>
<polyline clip-path="url(#clip330)" style="stroke:#000000; stroke-linecap:round; stroke-linejoin:round; stroke-width:4; stroke-opacity:1; fill:none" points="2039.64,165.685 2181.83,165.685 2181.83,124.213 2039.64,124.213 2039.64,165.685 "/>
<path clip-path="url(#clip330)" d="M2219.37 164.636 Q2217.57 169.266 2215.85 170.678 Q2214.14 172.09 2211.27 172.09 L2207.87 172.09 L2207.87 168.525 L2210.37 168.525 Q2212.13 168.525 2213.1 167.692 Q2214.07 166.858 2215.25 163.756 L2216.02 161.812 L2205.53 136.303 L2210.04 136.303 L2218.15 156.581 L2226.25 136.303 L2230.76 136.303 L2219.37 164.636 Z" fill="#000000" fill-rule="evenodd" fill-opacity="1" /><path clip-path="url(#clip330)" d="M2238.05 158.293 L2245.69 158.293 L2245.69 131.928 L2237.38 133.595 L2237.38 129.335 L2245.65 127.669 L2250.32 127.669 L2250.32 158.293 L2257.96 158.293 L2257.96 162.229 L2238.05 162.229 L2238.05 158.293 Z" fill="#000000" fill-rule="evenodd" fill-opacity="1" /></svg>
