<?xml version="1.0" encoding="utf-8"?>
<svg xmlns="http://www.w3.org/2000/svg" xmlns:xlink="http://www.w3.org/1999/xlink" width="600" height="400" viewBox="0 0 2400 1600">
<defs>
  <clipPath id="clip640">
    <rect x="0" y="0" width="2400" height="1600"/>
  </clipPath>
</defs>
<path clip-path="url(#clip640)" d="M0 1600 L2400 1600 L2400 0 L0 0  Z" fill="#ffffff" fill-rule="evenodd" fill-opacity="1"/>
<defs>
  <clipPath id="clip641">
    <rect x="480" y="0" width="1681" height="1600"/>
  </clipPath>
</defs>
<path clip-path="url(#clip640)" d="M212.459 1423.18 L2352.76 1423.18 L2352.76 47.2441 L212.459 47.2441  Z" fill="#ffffff" fill-rule="evenodd" fill-opacity="1"/>
<defs>
  <clipPath id="clip642">
    <rect x="212" y="47" width="2141" height="1377"/>
  </clipPath>
</defs>
<polyline clip-path="url(#clip642)" style="stroke:#000000; stroke-linecap:round; stroke-linejoin:round; stroke-width:2; stroke-opacity:0.1; fill:none" points="273.033,1423.18 273.033,47.2441 "/>
<polyline clip-path="url(#clip642)" style="stroke:#000000; stroke-linecap:round; stroke-linejoin:round; stroke-width:2; stroke-opacity:0.1; fill:none" points="668.945,1423.18 668.945,47.2441 "/>
<polyline clip-path="url(#clip642)" style="stroke:#000000; stroke-linecap:round; stroke-linejoin:round; stroke-width:2; stroke-opacity:0.1; fill:none" points="1064.86,1423.18 1064.86,47.2441 "/>
<polyline clip-path="url(#clip642)" style="stroke:#000000; stroke-linecap:round; stroke-linejoin:round; stroke-width:2; stroke-opacity:0.1; fill:none" points="1460.77,1423.18 1460.77,47.2441 "/>
<polyline clip-path="url(#clip642)" style="stroke:#000000; stroke-linecap:round; stroke-linejoin:round; stroke-width:2; stroke-opacity:0.1; fill:none" points="1856.68,1423.18 1856.68,47.2441 "/>
<polyline clip-path="url(#clip642)" style="stroke:#000000; stroke-linecap:round; stroke-linejoin:round; stroke-width:2; stroke-opacity:0.1; fill:none" points="2252.59,1423.18 2252.59,47.2441 "/>
<polyline clip-path="url(#clip640)" style="stroke:#000000; stroke-linecap:round; stroke-linejoin:round; stroke-width:4; stroke-opacity:1; fill:none" points="212.459,1423.18 2352.76,1423.18 "/>
<polyline clip-path="url(#clip640)" style="stroke:#000000; stroke-linecap:round; stroke-linejoin:round; stroke-width:4; stroke-opacity:1; fill:none" points="273.033,1423.18 273.033,1404.28 "/>
<polyline clip-path="url(#clip640)" style="stroke:#000000; stroke-linecap:round; stroke-linejoin:round; stroke-width:4; stroke-opacity:1; fill:none" points="668.945,1423.18 668.945,1404.28 "/>
<polyline clip-path="url(#clip640)" style="stroke:#000000; stroke-linecap:round; stroke-linejoin:round; stroke-width:4; stroke-opacity:1; fill:none" points="1064.86,1423.18 1064.86,1404.28 "/>
<polyline clip-path="url(#clip640)" style="stroke:#000000; stroke-linecap:round; stroke-linejoin:round; stroke-width:4; stroke-opacity:1; fill:none" points="1460.77,1423.18 1460.77,1404.28 "/>
<polyline clip-path="url(#clip640)" style="stroke:#000000; stroke-linecap:round; stroke-linejoin:round; stroke-width:4; stroke-opacity:1; fill:none" points="1856.68,1423.18 1856.68,1404.28 "/>
<polyline clip-path="url(#clip640)" style="stroke:#000000; stroke-linecap:round; stroke-linejoin:round; stroke-width:4; stroke-opacity:1; fill:none" points="2252.59,1423.18 2252.59,1404.28 "/>
<path clip-path="url(#clip640)" d="M220.059 1468.75 L249.735 1468.75 L249.735 1472.69 L220.059 1472.69 L220.059 1468.75 Z" fill="#000000" fill-rule="evenodd" fill-opacity="1" /><path clip-path="url(#clip640)" d="M269.827 1454.1 Q266.216 1454.1 264.388 1457.66 Q262.582 1461.2 262.582 1468.33 Q262.582 1475.44 264.388 1479.01 Q266.216 1482.55 269.827 1482.55 Q273.462 1482.55 275.267 1479.01 Q277.096 1475.44 277.096 1468.33 Q277.096 1461.2 275.267 1457.66 Q273.462 1454.1 269.827 1454.1 M269.827 1450.39 Q275.637 1450.39 278.693 1455 Q281.772 1459.58 281.772 1468.33 Q281.772 1477.06 278.693 1481.67 Q275.637 1486.25 269.827 1486.25 Q264.017 1486.25 260.938 1481.67 Q257.883 1477.06 257.883 1468.33 Q257.883 1459.58 260.938 1455 Q264.017 1450.39 269.827 1450.39 Z" fill="#000000" fill-rule="evenodd" fill-opacity="1" /><path clip-path="url(#clip640)" d="M289.989 1479.7 L294.874 1479.7 L294.874 1485.58 L289.989 1485.58 L289.989 1479.7 Z" fill="#000000" fill-rule="evenodd" fill-opacity="1" /><path clip-path="url(#clip640)" d="M305.105 1451.02 L323.461 1451.02 L323.461 1454.96 L309.387 1454.96 L309.387 1463.43 Q310.406 1463.08 311.424 1462.92 Q312.443 1462.73 313.461 1462.73 Q319.248 1462.73 322.628 1465.9 Q326.008 1469.08 326.008 1474.49 Q326.008 1480.07 322.535 1483.17 Q319.063 1486.25 312.744 1486.25 Q310.568 1486.25 308.299 1485.88 Q306.054 1485.51 303.647 1484.77 L303.647 1480.07 Q305.73 1481.2 307.952 1481.76 Q310.174 1482.32 312.651 1482.32 Q316.656 1482.32 318.994 1480.21 Q321.332 1478.1 321.332 1474.49 Q321.332 1470.88 318.994 1468.77 Q316.656 1466.67 312.651 1466.67 Q310.776 1466.67 308.901 1467.08 Q307.049 1467.5 305.105 1468.38 L305.105 1451.02 Z" fill="#000000" fill-rule="evenodd" fill-opacity="1" /><path clip-path="url(#clip640)" d="M615.23 1468.75 L644.906 1468.75 L644.906 1472.69 L615.23 1472.69 L615.23 1468.75 Z" fill="#000000" fill-rule="evenodd" fill-opacity="1" /><path clip-path="url(#clip640)" d="M664.998 1454.1 Q661.387 1454.1 659.558 1457.66 Q657.753 1461.2 657.753 1468.33 Q657.753 1475.44 659.558 1479.01 Q661.387 1482.55 664.998 1482.55 Q668.632 1482.55 670.438 1479.01 Q672.266 1475.44 672.266 1468.33 Q672.266 1461.2 670.438 1457.66 Q668.632 1454.1 664.998 1454.1 M664.998 1450.39 Q670.808 1450.39 673.864 1455 Q676.942 1459.58 676.942 1468.33 Q676.942 1477.06 673.864 1481.67 Q670.808 1486.25 664.998 1486.25 Q659.188 1486.25 656.109 1481.67 Q653.054 1477.06 653.054 1468.33 Q653.054 1459.58 656.109 1455 Q659.188 1450.39 664.998 1450.39 Z" fill="#000000" fill-rule="evenodd" fill-opacity="1" /><path clip-path="url(#clip640)" d="M685.16 1479.7 L690.044 1479.7 L690.044 1485.58 L685.16 1485.58 L685.16 1479.7 Z" fill="#000000" fill-rule="evenodd" fill-opacity="1" /><path clip-path="url(#clip640)" d="M713.076 1455.09 L701.271 1473.54 L713.076 1473.54 L713.076 1455.09 M711.85 1451.02 L717.729 1451.02 L717.729 1473.54 L722.66 1473.54 L722.66 1477.43 L717.729 1477.43 L717.729 1485.58 L713.076 1485.58 L713.076 1477.43 L697.475 1477.43 L697.475 1472.92 L711.85 1451.02 Z" fill="#000000" fill-rule="evenodd" fill-opacity="1" /><path clip-path="url(#clip640)" d="M1011.71 1468.75 L1041.38 1468.75 L1041.38 1472.69 L1011.71 1472.69 L1011.71 1468.75 Z" fill="#000000" fill-rule="evenodd" fill-opacity="1" /><path clip-path="url(#clip640)" d="M1061.48 1454.1 Q1057.87 1454.1 1056.04 1457.66 Q1054.23 1461.2 1054.23 1468.33 Q1054.23 1475.44 1056.04 1479.01 Q1057.87 1482.55 1061.48 1482.55 Q1065.11 1482.55 1066.92 1479.01 Q1068.75 1475.44 1068.75 1468.33 Q1068.75 1461.2 1066.92 1457.66 Q1065.11 1454.1 1061.48 1454.1 M1061.48 1450.39 Q1067.29 1450.39 1070.34 1455 Q1073.42 1459.58 1073.42 1468.33 Q1073.42 1477.06 1070.34 1481.67 Q1067.29 1486.25 1061.48 1486.25 Q1055.67 1486.25 1052.59 1481.67 Q1049.53 1477.06 1049.53 1468.33 Q1049.53 1459.58 1052.59 1455 Q1055.67 1450.39 1061.48 1450.39 Z" fill="#000000" fill-rule="evenodd" fill-opacity="1" /><path clip-path="url(#clip640)" d="M1081.64 1479.7 L1086.52 1479.7 L1086.52 1485.58 L1081.64 1485.58 L1081.64 1479.7 Z" fill="#000000" fill-rule="evenodd" fill-opacity="1" /><path clip-path="url(#clip640)" d="M1110.87 1466.95 Q1114.23 1467.66 1116.11 1469.93 Q1118 1472.2 1118 1475.53 Q1118 1480.65 1114.49 1483.45 Q1110.97 1486.25 1104.49 1486.25 Q1102.31 1486.25 1099.99 1485.81 Q1097.7 1485.39 1095.25 1484.54 L1095.25 1480.02 Q1097.19 1481.16 1099.51 1481.74 Q1101.82 1482.32 1104.35 1482.32 Q1108.74 1482.32 1111.04 1480.58 Q1113.35 1478.84 1113.35 1475.53 Q1113.35 1472.48 1111.2 1470.77 Q1109.07 1469.03 1105.25 1469.03 L1101.22 1469.03 L1101.22 1465.19 L1105.43 1465.19 Q1108.88 1465.19 1110.71 1463.82 Q1112.54 1462.43 1112.54 1459.84 Q1112.54 1457.18 1110.64 1455.77 Q1108.77 1454.33 1105.25 1454.33 Q1103.33 1454.33 1101.13 1454.75 Q1098.93 1455.16 1096.29 1456.04 L1096.29 1451.88 Q1098.95 1451.14 1101.27 1450.77 Q1103.61 1450.39 1105.67 1450.39 Q1110.99 1450.39 1114.09 1452.83 Q1117.19 1455.23 1117.19 1459.35 Q1117.19 1462.22 1115.55 1464.21 Q1113.91 1466.18 1110.87 1466.95 Z" fill="#000000" fill-rule="evenodd" fill-opacity="1" /><path clip-path="url(#clip640)" d="M1408.09 1468.75 L1437.77 1468.75 L1437.77 1472.69 L1408.09 1472.69 L1408.09 1468.75 Z" fill="#000000" fill-rule="evenodd" fill-opacity="1" /><path clip-path="url(#clip640)" d="M1457.86 1454.1 Q1454.25 1454.1 1452.42 1457.66 Q1450.62 1461.2 1450.62 1468.33 Q1450.62 1475.44 1452.42 1479.01 Q1454.25 1482.55 1457.86 1482.55 Q1461.5 1482.55 1463.3 1479.01 Q1465.13 1475.44 1465.13 1468.33 Q1465.13 1461.2 1463.3 1457.66 Q1461.5 1454.1 1457.86 1454.1 M1457.86 1450.39 Q1463.67 1450.39 1466.73 1455 Q1469.81 1459.58 1469.81 1468.33 Q1469.81 1477.06 1466.73 1481.67 Q1463.67 1486.25 1457.86 1486.25 Q1452.05 1486.25 1448.97 1481.67 Q1445.92 1477.06 1445.92 1468.33 Q1445.92 1459.58 1448.97 1455 Q1452.05 1450.39 1457.86 1450.39 Z" fill="#000000" fill-rule="evenodd" fill-opacity="1" /><path clip-path="url(#clip640)" d="M1478.02 1479.7 L1482.91 1479.7 L1482.91 1485.58 L1478.02 1485.58 L1478.02 1479.7 Z" fill="#000000" fill-rule="evenodd" fill-opacity="1" /><path clip-path="url(#clip640)" d="M1497.12 1481.64 L1513.44 1481.64 L1513.44 1485.58 L1491.5 1485.58 L1491.5 1481.64 Q1494.16 1478.89 1498.74 1474.26 Q1503.35 1469.61 1504.53 1468.27 Q1506.77 1465.74 1507.65 1464.01 Q1508.56 1462.25 1508.56 1460.56 Q1508.56 1457.8 1506.61 1456.07 Q1504.69 1454.33 1501.59 1454.33 Q1499.39 1454.33 1496.94 1455.09 Q1494.51 1455.86 1491.73 1457.41 L1491.73 1452.69 Q1494.55 1451.55 1497.01 1450.97 Q1499.46 1450.39 1501.5 1450.39 Q1506.87 1450.39 1510.06 1453.08 Q1513.26 1455.77 1513.26 1460.26 Q1513.26 1462.39 1512.45 1464.31 Q1511.66 1466.2 1509.55 1468.8 Q1508.97 1469.47 1505.87 1472.69 Q1502.77 1475.88 1497.12 1481.64 Z" fill="#000000" fill-rule="evenodd" fill-opacity="1" /><path clip-path="url(#clip640)" d="M1803.82 1468.75 L1833.5 1468.75 L1833.5 1472.69 L1803.82 1472.69 L1803.82 1468.75 Z" fill="#000000" fill-rule="evenodd" fill-opacity="1" /><path clip-path="url(#clip640)" d="M1853.59 1454.1 Q1849.98 1454.1 1848.15 1457.66 Q1846.34 1461.2 1846.34 1468.33 Q1846.34 1475.44 1848.15 1479.01 Q1849.98 1482.55 1853.59 1482.55 Q1857.22 1482.55 1859.03 1479.01 Q1860.86 1475.44 1860.86 1468.33 Q1860.86 1461.2 1859.03 1457.66 Q1857.22 1454.1 1853.59 1454.1 M1853.59 1450.39 Q1859.4 1450.39 1862.45 1455 Q1865.53 1459.58 1865.53 1468.33 Q1865.53 1477.06 1862.45 1481.67 Q1859.4 1486.25 1853.59 1486.25 Q1847.78 1486.25 1844.7 1481.67 Q1841.64 1477.06 1841.64 1468.33 Q1841.64 1459.58 1844.7 1455 Q1847.78 1450.39 1853.59 1450.39 Z" fill="#000000" fill-rule="evenodd" fill-opacity="1" /><path clip-path="url(#clip640)" d="M1873.75 1479.7 L1878.63 1479.7 L1878.63 1485.58 L1873.75 1485.58 L1873.75 1479.7 Z" fill="#000000" fill-rule="evenodd" fill-opacity="1" /><path clip-path="url(#clip640)" d="M1889.63 1481.64 L1897.27 1481.64 L1897.27 1455.28 L1888.96 1456.95 L1888.96 1452.69 L1897.22 1451.02 L1901.9 1451.02 L1901.9 1481.64 L1909.54 1481.64 L1909.54 1485.58 L1889.63 1485.58 L1889.63 1481.64 Z" fill="#000000" fill-rule="evenodd" fill-opacity="1" /><path clip-path="url(#clip640)" d="M2229.97 1454.1 Q2226.36 1454.1 2224.53 1457.66 Q2222.73 1461.2 2222.73 1468.33 Q2222.73 1475.44 2224.53 1479.01 Q2226.36 1482.55 2229.97 1482.55 Q2233.61 1482.55 2235.41 1479.01 Q2237.24 1475.44 2237.24 1468.33 Q2237.24 1461.2 2235.41 1457.66 Q2233.61 1454.1 2229.97 1454.1 M2229.97 1450.39 Q2235.78 1450.39 2238.84 1455 Q2241.92 1459.58 2241.92 1468.33 Q2241.92 1477.06 2238.84 1481.67 Q2235.78 1486.25 2229.97 1486.25 Q2224.16 1486.25 2221.09 1481.67 Q2218.03 1477.06 2218.03 1468.33 Q2218.03 1459.58 2221.09 1455 Q2224.16 1450.39 2229.97 1450.39 Z" fill="#000000" fill-rule="evenodd" fill-opacity="1" /><path clip-path="url(#clip640)" d="M2250.14 1479.7 L2255.02 1479.7 L2255.02 1485.58 L2250.14 1485.58 L2250.14 1479.7 Z" fill="#000000" fill-rule="evenodd" fill-opacity="1" /><path clip-path="url(#clip640)" d="M2275.21 1454.1 Q2271.59 1454.1 2269.77 1457.66 Q2267.96 1461.2 2267.96 1468.33 Q2267.96 1475.44 2269.77 1479.01 Q2271.59 1482.55 2275.21 1482.55 Q2278.84 1482.55 2280.65 1479.01 Q2282.47 1475.44 2282.47 1468.33 Q2282.47 1461.2 2280.65 1457.66 Q2278.84 1454.1 2275.21 1454.1 M2275.21 1450.39 Q2281.02 1450.39 2284.07 1455 Q2287.15 1459.58 2287.15 1468.33 Q2287.15 1477.06 2284.07 1481.67 Q2281.02 1486.25 2275.21 1486.25 Q2269.4 1486.25 2266.32 1481.67 Q2263.26 1477.06 2263.26 1468.33 Q2263.26 1459.58 2266.32 1455 Q2269.4 1450.39 2275.21 1450.39 Z" fill="#000000" fill-rule="evenodd" fill-opacity="1" /><path clip-path="url(#clip640)" d="M1195.49 1548.82 Q1191.93 1548.06 1190.02 1545.99 Q1188.11 1543.95 1188.11 1540.99 Q1188.11 1536.5 1191.74 1533.99 Q1195.33 1531.5 1201.57 1531.5 Q1203.99 1531.5 1206.7 1531.89 Q1209.4 1532.27 1212.52 1533.03 L1212.52 1538.35 Q1209.43 1537.42 1206.89 1537.01 Q1204.31 1536.6 1202.05 1536.6 Q1198.26 1536.6 1196.07 1538.06 Q1193.84 1539.53 1193.84 1541.56 Q1193.84 1543.79 1196 1545.22 Q1198.13 1546.62 1201.83 1546.62 L1206.76 1546.62 L1206.76 1551.46 L1202.05 1551.46 Q1197.69 1551.46 1195.4 1553.08 Q1192.91 1554.87 1192.91 1557.67 Q1192.91 1560.53 1195.59 1562.31 Q1198.29 1564.1 1203.1 1564.1 Q1206.06 1564.1 1208.77 1563.52 Q1211.47 1562.92 1213.73 1561.74 L1213.73 1567.18 Q1210.87 1568.08 1208.19 1568.52 Q1205.49 1568.97 1202.94 1568.97 Q1195.37 1568.97 1191.26 1566.07 Q1187.15 1563.17 1187.15 1557.67 Q1187.15 1554.23 1189.35 1551.91 Q1191.55 1549.58 1195.49 1548.82 Z" fill="#000000" fill-rule="evenodd" fill-opacity="1" /><path clip-path="url(#clip640)" d="M1267.74 1533.45 L1267.74 1538.98 Q1265.26 1537.71 1262.59 1537.07 Q1259.91 1536.44 1257.05 1536.44 Q1252.69 1536.44 1250.49 1537.77 Q1248.33 1539.11 1248.33 1541.79 Q1248.33 1543.82 1249.89 1545 Q1251.45 1546.15 1256.16 1547.2 L1258.16 1547.64 Q1264.4 1548.98 1267.01 1551.43 Q1269.65 1553.85 1269.65 1558.21 Q1269.65 1563.17 1265.71 1566.07 Q1261.79 1568.97 1254.92 1568.97 Q1252.05 1568.97 1248.93 1568.39 Q1245.85 1567.85 1242.41 1566.74 L1242.41 1560.69 Q1245.65 1562.38 1248.81 1563.24 Q1251.96 1564.07 1255.04 1564.07 Q1259.18 1564.07 1261.41 1562.66 Q1263.64 1561.23 1263.64 1558.65 Q1263.64 1556.27 1262.01 1554.99 Q1260.42 1553.72 1254.98 1552.54 L1252.94 1552.07 Q1247.5 1550.92 1245.08 1548.56 Q1242.66 1546.18 1242.66 1542.04 Q1242.66 1537.01 1246.23 1534.27 Q1249.79 1531.54 1256.35 1531.54 Q1259.6 1531.54 1262.46 1532.01 Q1265.32 1532.49 1267.74 1533.45 Z" fill="#000000" fill-rule="evenodd" fill-opacity="1" /><path clip-path="url(#clip640)" d="M1308.61 1546.53 L1308.61 1568.04 L1302.75 1568.04 L1302.75 1546.72 Q1302.75 1541.66 1300.78 1539.14 Q1298.81 1536.63 1294.86 1536.63 Q1290.12 1536.63 1287.38 1539.65 Q1284.64 1542.68 1284.64 1547.9 L1284.64 1568.04 L1278.76 1568.04 L1278.76 1518.52 L1284.64 1518.52 L1284.64 1537.93 Q1286.75 1534.72 1289.58 1533.13 Q1292.44 1531.54 1296.17 1531.54 Q1302.31 1531.54 1305.46 1535.36 Q1308.61 1539.14 1308.61 1546.53 Z" fill="#000000" fill-rule="evenodd" fill-opacity="1" /><path clip-path="url(#clip640)" d="M1320.29 1532.4 L1326.15 1532.4 L1326.15 1568.04 L1320.29 1568.04 L1320.29 1532.4 M1320.29 1518.52 L1326.15 1518.52 L1326.15 1525.93 L1320.29 1525.93 L1320.29 1518.52 Z" fill="#000000" fill-rule="evenodd" fill-opacity="1" /><path clip-path="url(#clip640)" d="M1356.45 1518.52 L1356.45 1523.39 L1350.85 1523.39 Q1347.7 1523.39 1346.46 1524.66 Q1345.25 1525.93 1345.25 1529.24 L1345.25 1532.4 L1354.89 1532.4 L1354.89 1536.95 L1345.25 1536.95 L1345.25 1568.04 L1339.36 1568.04 L1339.36 1536.95 L1333.76 1536.95 L1333.76 1532.4 L1339.36 1532.4 L1339.36 1529.91 Q1339.36 1523.96 1342.13 1521.26 Q1344.9 1518.52 1350.91 1518.52 L1356.45 1518.52 Z" fill="#000000" fill-rule="evenodd" fill-opacity="1" /><path clip-path="url(#clip640)" d="M1366 1522.27 L1366 1532.4 L1378.06 1532.4 L1378.06 1536.95 L1366 1536.95 L1366 1556.3 Q1366 1560.66 1367.18 1561.9 Q1368.39 1563.14 1372.05 1563.14 L1378.06 1563.14 L1378.06 1568.04 L1372.05 1568.04 Q1365.27 1568.04 1362.69 1565.53 Q1360.11 1562.98 1360.11 1556.3 L1360.11 1536.95 L1355.81 1536.95 L1355.81 1532.4 L1360.11 1532.4 L1360.11 1522.27 L1366 1522.27 Z" fill="#000000" fill-rule="evenodd" fill-opacity="1" /><polyline clip-path="url(#clip642)" style="stroke:#000000; stroke-linecap:round; stroke-linejoin:round; stroke-width:2; stroke-opacity:0.1; fill:none" points="212.459,1269.59 2352.76,1269.59 "/>
<polyline clip-path="url(#clip642)" style="stroke:#000000; stroke-linecap:round; stroke-linejoin:round; stroke-width:2; stroke-opacity:0.1; fill:none" points="212.459,1012.24 2352.76,1012.24 "/>
<polyline clip-path="url(#clip642)" style="stroke:#000000; stroke-linecap:round; stroke-linejoin:round; stroke-width:2; stroke-opacity:0.1; fill:none" points="212.459,754.882 2352.76,754.882 "/>
<polyline clip-path="url(#clip642)" style="stroke:#000000; stroke-linecap:round; stroke-linejoin:round; stroke-width:2; stroke-opacity:0.1; fill:none" points="212.459,497.529 2352.76,497.529 "/>
<polyline clip-path="url(#clip642)" style="stroke:#000000; stroke-linecap:round; stroke-linejoin:round; stroke-width:2; stroke-opacity:0.1; fill:none" points="212.459,240.175 2352.76,240.175 "/>
<polyline clip-path="url(#clip640)" style="stroke:#000000; stroke-linecap:round; stroke-linejoin:round; stroke-width:4; stroke-opacity:1; fill:none" points="212.459,1423.18 212.459,47.2441 "/>
<polyline clip-path="url(#clip640)" style="stroke:#000000; stroke-linecap:round; stroke-linejoin:round; stroke-width:4; stroke-opacity:1; fill:none" points="212.459,1269.59 231.357,1269.59 "/>
<polyline clip-path="url(#clip640)" style="stroke:#000000; stroke-linecap:round; stroke-linejoin:round; stroke-width:4; stroke-opacity:1; fill:none" points="212.459,1012.24 231.357,1012.24 "/>
<polyline clip-path="url(#clip640)" style="stroke:#000000; stroke-linecap:round; stroke-linejoin:round; stroke-width:4; stroke-opacity:1; fill:none" points="212.459,754.882 231.357,754.882 "/>
<polyline clip-path="url(#clip640)" style="stroke:#000000; stroke-linecap:round; stroke-linejoin:round; stroke-width:4; stroke-opacity:1; fill:none" points="212.459,497.529 231.357,497.529 "/>
<polyline clip-path="url(#clip640)" style="stroke:#000000; stroke-linecap:round; stroke-linejoin:round; stroke-width:4; stroke-opacity:1; fill:none" points="212.459,240.175 231.357,240.175 "/>
<path clip-path="url(#clip640)" d="M114.839 1270.04 L144.515 1270.04 L144.515 1273.98 L114.839 1273.98 L114.839 1270.04 Z" fill="#000000" fill-rule="evenodd" fill-opacity="1" /><path clip-path="url(#clip640)" d="M164.607 1270.46 Q161.274 1270.46 159.353 1272.24 Q157.454 1274.02 157.454 1277.15 Q157.454 1280.27 159.353 1282.05 Q161.274 1283.84 164.607 1283.84 Q167.94 1283.84 169.862 1282.05 Q171.783 1280.25 171.783 1277.15 Q171.783 1274.02 169.862 1272.24 Q167.964 1270.46 164.607 1270.46 M159.931 1268.47 Q156.922 1267.73 155.232 1265.67 Q153.566 1263.61 153.566 1260.64 Q153.566 1256.5 156.505 1254.09 Q159.468 1251.68 164.607 1251.68 Q169.769 1251.68 172.709 1254.09 Q175.649 1256.5 175.649 1260.64 Q175.649 1263.61 173.959 1265.67 Q172.292 1267.73 169.306 1268.47 Q172.686 1269.25 174.561 1271.55 Q176.459 1273.84 176.459 1277.15 Q176.459 1282.17 173.38 1284.86 Q170.325 1287.54 164.607 1287.54 Q158.89 1287.54 155.811 1284.86 Q152.755 1282.17 152.755 1277.15 Q152.755 1273.84 154.653 1271.55 Q156.552 1269.25 159.931 1268.47 M158.218 1261.08 Q158.218 1263.77 159.885 1265.27 Q161.575 1266.78 164.607 1266.78 Q167.616 1266.78 169.306 1265.27 Q171.019 1263.77 171.019 1261.08 Q171.019 1258.4 169.306 1256.89 Q167.616 1255.39 164.607 1255.39 Q161.575 1255.39 159.885 1256.89 Q158.218 1258.4 158.218 1261.08 Z" fill="#000000" fill-rule="evenodd" fill-opacity="1" /><path clip-path="url(#clip640)" d="M114.584 1012.69 L144.26 1012.69 L144.26 1016.62 L114.584 1016.62 L114.584 1012.69 Z" fill="#000000" fill-rule="evenodd" fill-opacity="1" /><path clip-path="url(#clip640)" d="M164.931 1010.37 Q161.783 1010.37 159.931 1012.52 Q158.103 1014.68 158.103 1018.43 Q158.103 1022.15 159.931 1024.33 Q161.783 1026.48 164.931 1026.48 Q168.079 1026.48 169.908 1024.33 Q171.76 1022.15 171.76 1018.43 Q171.76 1014.68 169.908 1012.52 Q168.079 1010.37 164.931 1010.37 M174.214 995.719 L174.214 999.979 Q172.454 999.145 170.649 998.706 Q168.866 998.266 167.107 998.266 Q162.477 998.266 160.024 1001.39 Q157.593 1004.52 157.246 1010.84 Q158.612 1008.82 160.672 1007.76 Q162.732 1006.67 165.209 1006.67 Q170.417 1006.67 173.427 1009.84 Q176.459 1012.99 176.459 1018.43 Q176.459 1023.75 173.311 1026.97 Q170.163 1030.19 164.931 1030.19 Q158.936 1030.19 155.765 1025.6 Q152.593 1021 152.593 1012.27 Q152.593 1004.08 156.482 999.215 Q160.371 994.331 166.922 994.331 Q168.681 994.331 170.464 994.678 Q172.269 995.025 174.214 995.719 Z" fill="#000000" fill-rule="evenodd" fill-opacity="1" /><path clip-path="url(#clip640)" d="M114.26 755.333 L143.936 755.333 L143.936 759.269 L114.26 759.269 L114.26 755.333 Z" fill="#000000" fill-rule="evenodd" fill-opacity="1" /><path clip-path="url(#clip640)" d="M166.876 741.676 L155.07 760.125 L166.876 760.125 L166.876 741.676 M165.649 737.602 L171.528 737.602 L171.528 760.125 L176.459 760.125 L176.459 764.014 L171.528 764.014 L171.528 772.162 L166.876 772.162 L166.876 764.014 L151.274 764.014 L151.274 759.5 L165.649 737.602 Z" fill="#000000" fill-rule="evenodd" fill-opacity="1" /><path clip-path="url(#clip640)" d="M116.343 497.98 L146.019 497.98 L146.019 501.915 L116.343 501.915 L116.343 497.98 Z" fill="#000000" fill-rule="evenodd" fill-opacity="1" /><path clip-path="url(#clip640)" d="M160.14 510.873 L176.459 510.873 L176.459 514.809 L154.515 514.809 L154.515 510.873 Q157.177 508.119 161.76 503.489 Q166.366 498.836 167.547 497.494 Q169.792 494.971 170.672 493.235 Q171.575 491.475 171.575 489.785 Q171.575 487.031 169.63 485.295 Q167.709 483.559 164.607 483.559 Q162.408 483.559 159.954 484.323 Q157.524 485.086 154.746 486.637 L154.746 481.915 Q157.57 480.781 160.024 480.202 Q162.477 479.624 164.515 479.624 Q169.885 479.624 173.079 482.309 Q176.274 484.994 176.274 489.485 Q176.274 491.614 175.464 493.535 Q174.677 495.434 172.57 498.026 Q171.991 498.697 168.889 501.915 Q165.788 505.109 160.14 510.873 Z" fill="#000000" fill-rule="evenodd" fill-opacity="1" /><path clip-path="url(#clip640)" d="M164.515 225.974 Q160.903 225.974 159.075 229.538 Q157.269 233.08 157.269 240.21 Q157.269 247.316 159.075 250.881 Q160.903 254.423 164.515 254.423 Q168.149 254.423 169.954 250.881 Q171.783 247.316 171.783 240.21 Q171.783 233.08 169.954 229.538 Q168.149 225.974 164.515 225.974 M164.515 222.27 Q170.325 222.27 173.38 226.876 Q176.459 231.46 176.459 240.21 Q176.459 248.937 173.38 253.543 Q170.325 258.126 164.515 258.126 Q158.704 258.126 155.626 253.543 Q152.57 248.937 152.57 240.21 Q152.57 231.46 155.626 226.876 Q158.704 222.27 164.515 222.27 Z" fill="#000000" fill-rule="evenodd" fill-opacity="1" /><path clip-path="url(#clip640)" d="M33.8307 1006.09 Q33.2578 1007.08 33.0032 1008.25 Q32.7167 1009.4 32.7167 1010.8 Q32.7167 1015.76 35.9632 1018.44 Q39.1779 1021.08 45.2253 1021.08 L64.0042 1021.08 L64.0042 1026.97 L28.3562 1026.97 L28.3562 1021.08 L33.8944 1021.08 Q30.6479 1019.23 29.0883 1016.27 Q27.4968 1013.31 27.4968 1009.08 Q27.4968 1008.48 27.5923 1007.74 Q27.656 1007.01 27.8151 1006.12 L33.8307 1006.09 Z" fill="#000000" fill-rule="evenodd" fill-opacity="1" /><path clip-path="url(#clip640)" d="M44.7161 970.886 L47.5806 970.886 L47.5806 997.813 Q53.6281 997.431 56.8109 994.185 Q59.9619 990.906 59.9619 985.082 Q59.9619 981.708 59.1344 978.557 Q58.3069 975.374 56.6518 972.255 L62.1899 972.255 Q63.5267 975.406 64.227 978.716 Q64.9272 982.026 64.9272 985.432 Q64.9272 993.962 59.9619 998.959 Q54.9967 1003.92 46.5303 1003.92 Q37.7774 1003.92 32.6531 999.214 Q27.4968 994.471 27.4968 986.45 Q27.4968 979.257 32.1438 975.088 Q36.7589 970.886 44.7161 970.886 M42.9973 976.743 Q38.1912 976.806 35.3266 979.448 Q32.4621 982.058 32.4621 986.387 Q32.4621 991.288 35.2312 994.248 Q38.0002 997.177 43.0292 997.622 L42.9973 976.743 Z" fill="#000000" fill-rule="evenodd" fill-opacity="1" /><path clip-path="url(#clip640)" d="M14.479 961.274 L14.479 955.418 L64.0042 955.418 L64.0042 961.274 L14.479 961.274 Z" fill="#000000" fill-rule="evenodd" fill-opacity="1" /><path clip-path="url(#clip640)" d="M46.0847 926.963 Q46.0847 934.061 47.7079 936.798 Q49.3312 939.535 53.2461 939.535 Q56.3653 939.535 58.2114 937.498 Q60.0256 935.429 60.0256 931.896 Q60.0256 927.027 56.5881 924.098 Q53.1188 921.138 47.3897 921.138 L46.0847 921.138 L46.0847 926.963 M43.6657 915.282 L64.0042 915.282 L64.0042 921.138 L58.5933 921.138 Q61.8398 923.144 63.3994 926.135 Q64.9272 929.127 64.9272 933.456 Q64.9272 938.93 61.8716 942.177 Q58.7843 945.392 53.6281 945.392 Q47.6125 945.392 44.5569 941.381 Q41.5014 937.339 41.5014 929.35 L41.5014 921.138 L40.9285 921.138 Q36.8862 921.138 34.6901 923.812 Q32.4621 926.454 32.4621 931.26 Q32.4621 934.315 33.1941 937.212 Q33.9262 940.108 35.3903 942.782 L29.9795 942.782 Q28.7381 939.567 28.1334 936.543 Q27.4968 933.52 27.4968 930.655 Q27.4968 922.921 31.5072 919.101 Q35.5176 915.282 43.6657 915.282 Z" fill="#000000" fill-rule="evenodd" fill-opacity="1" /><path clip-path="url(#clip640)" d="M18.2347 897.426 L28.3562 897.426 L28.3562 885.363 L32.9077 885.363 L32.9077 897.426 L52.2594 897.426 Q56.6199 897.426 57.8613 896.248 Q59.1026 895.039 59.1026 891.379 L59.1026 885.363 L64.0042 885.363 L64.0042 891.379 Q64.0042 898.158 61.4897 900.736 Q58.9434 903.314 52.2594 903.314 L32.9077 903.314 L32.9077 907.611 L28.3562 907.611 L28.3562 903.314 L18.2347 903.314 L18.2347 897.426 Z" fill="#000000" fill-rule="evenodd" fill-opacity="1" /><path clip-path="url(#clip640)" d="M28.3562 877.661 L28.3562 871.804 L64.0042 871.804 L64.0042 877.661 L28.3562 877.661 M14.479 877.661 L14.479 871.804 L21.895 871.804 L21.895 877.661 L14.479 877.661 Z" fill="#000000" fill-rule="evenodd" fill-opacity="1" /><path clip-path="url(#clip640)" d="M28.3562 863.751 L28.3562 857.545 L58.275 846.405 L28.3562 835.265 L28.3562 829.058 L64.0042 842.426 L64.0042 850.384 L28.3562 863.751 Z" fill="#000000" fill-rule="evenodd" fill-opacity="1" /><path clip-path="url(#clip640)" d="M44.7161 790.482 L47.5806 790.482 L47.5806 817.409 Q53.6281 817.027 56.8109 813.781 Q59.9619 810.502 59.9619 804.678 Q59.9619 801.304 59.1344 798.153 Q58.3069 794.97 56.6518 791.851 L62.1899 791.851 Q63.5267 795.002 64.227 798.312 Q64.9272 801.622 64.9272 805.028 Q64.9272 813.558 59.9619 818.555 Q54.9967 823.52 46.5303 823.52 Q37.7774 823.52 32.6531 818.81 Q27.4968 814.067 27.4968 806.046 Q27.4968 798.853 32.1438 794.684 Q36.7589 790.482 44.7161 790.482 M42.9973 796.339 Q38.1912 796.402 35.3266 799.044 Q32.4621 801.654 32.4621 805.983 Q32.4621 810.884 35.2312 813.844 Q38.0002 816.773 43.0292 817.218 L42.9973 796.339 Z" fill="#000000" fill-rule="evenodd" fill-opacity="1" /><path clip-path="url(#clip640)" d="M14.479 760.15 L14.479 754.293 L64.0042 754.293 L64.0042 760.15 L14.479 760.15 Z" fill="#000000" fill-rule="evenodd" fill-opacity="1" /><path clip-path="url(#clip640)" d="M46.0847 725.838 Q46.0847 732.936 47.7079 735.673 Q49.3312 738.411 53.2461 738.411 Q56.3653 738.411 58.2114 736.374 Q60.0256 734.305 60.0256 730.772 Q60.0256 725.902 56.5881 722.974 Q53.1188 720.014 47.3897 720.014 L46.0847 720.014 L46.0847 725.838 M43.6657 714.157 L64.0042 714.157 L64.0042 720.014 L58.5933 720.014 Q61.8398 722.019 63.3994 725.011 Q64.9272 728.003 64.9272 732.331 Q64.9272 737.806 61.8716 741.053 Q58.7843 744.267 53.6281 744.267 Q47.6125 744.267 44.5569 740.257 Q41.5014 736.215 41.5014 728.226 L41.5014 720.014 L40.9285 720.014 Q36.8862 720.014 34.6901 722.687 Q32.4621 725.329 32.4621 730.135 Q32.4621 733.191 33.1941 736.087 Q33.9262 738.984 35.3903 741.657 L29.9795 741.657 Q28.7381 738.443 28.1334 735.419 Q27.4968 732.395 27.4968 729.531 Q27.4968 721.796 31.5072 717.977 Q35.5176 714.157 43.6657 714.157 Z" fill="#000000" fill-rule="evenodd" fill-opacity="1" /><path clip-path="url(#clip640)" d="M35.1993 674.34 Q31.2526 672.144 29.3747 669.088 Q27.4968 666.033 27.4968 661.895 Q27.4968 656.325 31.4117 653.301 Q35.2948 650.278 42.4881 650.278 L64.0042 650.278 L64.0042 656.166 L42.679 656.166 Q37.5546 656.166 35.072 657.98 Q32.5894 659.794 32.5894 663.518 Q32.5894 668.07 35.6131 670.711 Q38.6368 673.353 43.8567 673.353 L64.0042 673.353 L64.0042 679.241 L42.679 679.241 Q37.5228 679.241 35.072 681.056 Q32.5894 682.87 32.5894 686.658 Q32.5894 691.145 35.6449 693.787 Q38.6686 696.429 43.8567 696.429 L64.0042 696.429 L64.0042 702.317 L28.3562 702.317 L28.3562 696.429 L33.8944 696.429 Q30.616 694.424 29.0564 691.623 Q27.4968 688.822 27.4968 684.971 Q27.4968 681.088 29.4702 678.382 Q31.4436 675.645 35.1993 674.34 Z" fill="#000000" fill-rule="evenodd" fill-opacity="1" /><path clip-path="url(#clip640)" d="M46.212 613.006 Q39.7508 613.006 36.0905 615.68 Q32.3984 618.322 32.3984 622.969 Q32.3984 627.616 36.0905 630.289 Q39.7508 632.931 46.212 632.931 Q52.6732 632.931 56.3653 630.289 Q60.0256 627.616 60.0256 622.969 Q60.0256 618.322 56.3653 615.68 Q52.6732 613.006 46.212 613.006 M33.7671 632.931 Q30.5842 631.085 29.0564 628.284 Q27.4968 625.451 27.4968 621.536 Q27.4968 615.043 32.6531 611.001 Q37.8093 606.927 46.212 606.927 Q54.6147 606.927 59.771 611.001 Q64.9272 615.043 64.9272 621.536 Q64.9272 625.451 63.3994 628.284 Q61.8398 631.085 58.657 632.931 L64.0042 632.931 L64.0042 638.819 L14.479 638.819 L14.479 632.931 L33.7671 632.931 Z" fill="#000000" fill-rule="evenodd" fill-opacity="1" /><path clip-path="url(#clip640)" d="M29.4065 553.773 L34.9447 553.773 Q33.6716 556.256 33.035 558.93 Q32.3984 561.603 32.3984 564.468 Q32.3984 568.828 33.7352 571.024 Q35.072 573.189 37.7456 573.189 Q39.7826 573.189 40.9603 571.629 Q42.1061 570.07 43.1565 565.359 L43.6021 563.354 Q44.9389 557.115 47.3897 554.505 Q49.8086 551.864 54.1691 551.864 Q59.1344 551.864 62.0308 555.81 Q64.9272 559.725 64.9272 566.6 Q64.9272 569.465 64.3543 572.584 Q63.8132 575.671 62.6992 579.109 L56.6518 579.109 Q58.3387 575.862 59.198 572.711 Q60.0256 569.56 60.0256 566.473 Q60.0256 562.335 58.6251 560.107 Q57.1929 557.879 54.6147 557.879 Q52.2276 557.879 50.9545 559.503 Q49.6813 561.094 48.5037 566.537 L48.0262 568.574 Q46.8804 574.016 44.5251 576.435 Q42.138 578.854 38.0002 578.854 Q32.9713 578.854 30.2341 575.29 Q27.4968 571.725 27.4968 565.168 Q27.4968 561.922 27.9743 559.057 Q28.4517 556.192 29.4065 553.773 Z" fill="#000000" fill-rule="evenodd" fill-opacity="1" /><path clip-path="url(#clip640)" d="M42.4881 512.906 L64.0042 512.906 L64.0042 518.762 L42.679 518.762 Q37.6183 518.762 35.1038 520.735 Q32.5894 522.709 32.5894 526.656 Q32.5894 531.398 35.6131 534.135 Q38.6368 536.872 43.8567 536.872 L64.0042 536.872 L64.0042 542.761 L14.479 542.761 L14.479 536.872 L33.8944 536.872 Q30.6797 534.772 29.0883 531.939 Q27.4968 529.074 27.4968 525.351 Q27.4968 519.208 31.3163 516.057 Q35.1038 512.906 42.4881 512.906 Z" fill="#000000" fill-rule="evenodd" fill-opacity="1" /><path clip-path="url(#clip640)" d="M28.3562 501.225 L28.3562 495.368 L64.0042 495.368 L64.0042 501.225 L28.3562 501.225 M14.479 501.225 L14.479 495.368 L21.895 495.368 L21.895 501.225 L14.479 501.225 Z" fill="#000000" fill-rule="evenodd" fill-opacity="1" /><path clip-path="url(#clip640)" d="M14.479 465.067 L19.3487 465.067 L19.3487 470.669 Q19.3487 473.82 20.6219 475.061 Q21.895 476.271 25.2052 476.271 L28.3562 476.271 L28.3562 466.627 L32.9077 466.627 L32.9077 476.271 L64.0042 476.271 L64.0042 482.159 L32.9077 482.159 L32.9077 487.761 L28.3562 487.761 L28.3562 482.159 L25.8736 482.159 Q19.9216 482.159 17.2162 479.39 Q14.479 476.621 14.479 470.605 L14.479 465.067 Z" fill="#000000" fill-rule="evenodd" fill-opacity="1" /><path clip-path="url(#clip640)" d="M18.2347 455.519 L28.3562 455.519 L28.3562 443.456 L32.9077 443.456 L32.9077 455.519 L52.2594 455.519 Q56.6199 455.519 57.8613 454.341 Q59.1026 453.132 59.1026 449.471 L59.1026 443.456 L64.0042 443.456 L64.0042 449.471 Q64.0042 456.251 61.4897 458.829 Q58.9434 461.407 52.2594 461.407 L32.9077 461.407 L32.9077 465.704 L28.3562 465.704 L28.3562 461.407 L18.2347 461.407 L18.2347 455.519 Z" fill="#000000" fill-rule="evenodd" fill-opacity="1" /><polyline clip-path="url(#clip642)" style="stroke:#009af9; stroke-linecap:round; stroke-linejoin:round; stroke-width:4; stroke-opacity:1; fill:none" points="273.033,691.34 276.32,691.32 279.606,691.3 282.893,691.281 286.179,691.262 316.567,691.113 346.955,691.008 362.149,690.973 377.343,690.949 384.94,690.941 392.537,690.937 394.436,690.936 396.335,690.935 397.285,690.935 398.234,690.935 399.184,690.935 400.134,690.935 401.083,690.934 402.033,202.303 402.982,202.29 403.932,202.276 405.831,202.249 407.731,202.222 410.013,202.189 412.296,202.156 414.579,202.122 416.862,202.089 421.427,202.021 425.992,201.952 435.123,201.813 444.254,201.67 462.516,201.374 480.778,201.065 511.658,200.512 542.539,199.918 609.628,198.488 671.478,196.995 737.789,195.208 814.616,192.893 882.89,190.619 942.761,188.459 1008.04,185.933 1073.7,183.215 1146.3,180.013 1215.37,176.78 1287.2,173.236 1347.66,170.114 1421.47,166.14 1489.09,162.348 1551.54,158.725 1614.8,154.942 1685.7,150.573 1749.95,146.502 1823.5,141.717 1891.61,137.174 1958.75,132.595 2023.95,128.058 2090.78,123.319 2164,118.029 2270.36,110.172 2292.18,108.536 "/>
<polyline clip-path="url(#clip642)" style="stroke:#009af9; stroke-linecap:round; stroke-linejoin:round; stroke-width:4; stroke-opacity:1; fill:none" stroke-dasharray="16, 10" points="401.539,2799.12 401.539,-1328.69 "/>
<polyline clip-path="url(#clip642)" style="stroke:#e26f46; stroke-linecap:round; stroke-linejoin:round; stroke-width:4; stroke-opacity:1; fill:none" points="273.033,842.09 276.32,841.702 279.606,841.316 282.893,840.93 286.179,840.545 301.373,838.784 316.567,837.051 331.761,835.35 346.955,833.686 354.552,832.868 362.149,832.06 364.048,831.86 365.947,831.66 366.897,831.561 367.847,831.461 368.796,831.362 369.746,831.263 370.695,739.007 371.645,738.908 372.595,738.809 373.544,738.71 375.443,738.51 377.343,738.31 381.141,737.908 384.94,737.502 388.738,737.093 392.537,736.682 400.134,735.849 407.731,735.004 425.992,732.928 444.254,730.79 462.516,728.597 480.778,726.354 511.658,722.47 542.539,718.507 576.083,714.161 609.628,709.832 640.553,705.906 671.478,702.088 688.056,700.1 704.634,698.16 712.922,697.21 721.211,696.274 725.356,695.811 729.5,695.352 731.572,695.124 733.644,694.897 734.68,694.783 735.716,694.67 736.235,694.614 736.753,694.557 737.271,605.949 737.789,605.893 738.389,605.827 738.989,605.762 739.589,605.696 740.19,605.63 741.39,605.499 742.59,605.366 744.991,605.101 747.392,604.834 752.194,604.296 756.995,603.751 766.599,602.645 776.202,601.517 795.409,599.194 814.616,596.789 882.89,587.711 942.761,579.364 975.399,574.809 1008.04,570.337 1024.45,568.14 1040.87,565.988 1057.28,563.89 1073.7,561.851 1082.77,560.752 1091.85,559.674 1096.39,559.143 1100.92,558.617 1102.06,558.487 1103.19,558.357 1104.33,558.227 1105.46,558.098 1106.03,558.033 1106.6,557.969 1107.16,474.14 1107.73,474.076 1108.3,474.011 1108.86,473.946 1109.43,473.881 1110,473.816 1112.27,473.556 1114.54,473.293 1116.8,473.029 1119.07,472.763 1123.61,472.227 1128.15,471.684 1137.22,470.578 1146.3,469.448 1180.84,464.927 1215.37,460.099 1287.2,449.39 1347.66,440.176 1384.56,434.723 1421.47,429.564 1438.38,427.334 1455.28,425.202 1459.51,424.686 1463.73,424.177 1467.96,423.674 1472.19,423.179 1474.3,422.934 1476.41,422.691 1477.47,422.571 1478.53,422.45 1479.05,422.39 1479.58,422.33 1480.11,422.271 1480.64,345.738 1481.17,345.678 1481.69,345.618 1482.22,345.559 1482.75,345.499 1483.81,345.378 1484.86,345.258 1486.98,345.015 1489.09,344.77 1504.7,342.91 1520.32,340.959 1535.93,338.92 1551.54,336.799 1583.17,332.287 1614.8,327.555 1685.7,316.724 1749.95,307.783 1786.72,303.677 1823.5,300.743 1832.02,300.268 1840.53,299.877 1849.04,299.575 1857.56,299.364 1861.81,299.293 1866.07,299.246 1867.13,299.238 1868.2,299.231 1869.26,299.226 1870.32,299.223 1870.86,299.222 1871.39,299.221 1871.92,299.22 1872.45,181.13 1872.99,181.129 1873.52,181.129 1874.05,181.128 1874.58,181.126 1876.71,181.116 1878.84,181.101 1880.97,181.079 1883.09,181.051 1887.35,180.977 1891.61,180.878 1908.39,180.247 1925.18,179.237 1941.97,177.857 1958.75,176.124 1991.35,171.831 2023.95,166.469 2057.36,160.055 2090.78,152.888 2127.39,144.349 2164,135.239 2217.18,121.227 2270.36,106.518 2281.27,103.432 2292.18,100.325 "/>
<polyline clip-path="url(#clip642)" style="stroke:#e26f46; stroke-linecap:round; stroke-linejoin:round; stroke-width:4; stroke-opacity:1; fill:none" stroke-dasharray="16, 10" points="1872.29,2799.12 1872.29,-1328.69 "/>
<polyline clip-path="url(#clip642)" style="stroke:#3da44d; stroke-linecap:round; stroke-linejoin:round; stroke-width:4; stroke-opacity:1; fill:none" points="273.033,1276.28 279.606,1273.03 286.179,1269.78 346.955,1240.31 407.731,1213.59 416.862,1210.03 425.992,1206.63 435.123,1203.41 444.254,1200.39 448.82,1198.95 453.385,1197.56 455.668,1196.88 457.951,1196.22 459.092,1195.9 460.233,1195.57 460.804,1195.41 461.375,1195.26 461.945,1134.48 462.516,1134.32 463.087,1134.16 463.658,1134 464.228,1133.84 464.799,1133.68 465.94,1133.35 467.082,1133.02 469.364,1132.35 471.647,1131.67 476.213,1130.27 480.778,1128.82 496.218,1123.53 511.658,1117.73 527.098,1111.47 542.539,1104.84 609.628,1073.24 671.478,1042.33 704.634,1025.75 737.789,1009.51 776.202,991.65 814.616,975.71 823.15,972.552 831.684,969.565 835.951,968.138 840.219,966.759 844.486,965.427 848.753,964.143 849.82,963.83 850.886,963.52 851.953,963.212 853.02,962.908 853.553,962.758 854.087,962.607 854.62,962.458 855.154,905.224 855.687,905.075 856.22,904.925 856.754,904.774 857.287,904.622 859.421,904.008 861.554,903.381 863.688,902.742 865.822,902.091 874.356,899.365 882.89,896.451 897.858,890.919 912.826,884.911 927.793,878.505 942.761,871.775 1008.04,840.071 1073.7,806.584 1110,788.148 1146.3,770.236 1180.84,754.229 1215.37,740.083 1224.35,736.845 1233.33,733.823 1237.82,732.398 1242.31,731.032 1243.43,730.699 1244.55,730.371 1245.67,730.046 1246.8,729.725 1247.36,729.566 1247.92,729.408 1248.48,676.603 1249.04,676.445 1249.6,676.286 1250.16,676.126 1250.72,675.965 1251.29,675.803 1253.53,675.146 1255.77,674.475 1258.02,673.788 1260.26,673.086 1264.75,671.639 1269.24,670.134 1278.22,666.957 1287.2,663.571 1317.43,650.89 1347.66,636.781 1421.47,599.405 1489.09,564.088 1520.32,548.003 1551.54,532.419 1583.17,517.632 1614.8,504.678 1623.67,501.526 1632.53,498.624 1634.74,497.939 1636.96,497.271 1638.07,496.944 1639.17,496.62 1639.73,496.46 1640.28,496.301 1640.84,496.143 1641.39,495.986 1641.94,495.831 1642.5,449.2 1643.05,449.043 1643.61,448.885 1644.71,448.567 1645.82,448.244 1648.04,447.585 1650.25,446.91 1654.68,445.509 1659.11,444.043 1663.55,442.513 1667.98,440.922 1676.84,437.566 1685.7,433.999 1717.82,419.686 1749.95,403.954 1823.5,365.68 1891.61,329.809 1925.18,312.694 1958.75,296.68 1975.05,289.665 1991.35,283.499 2007.65,278.604 2023.95,275.523 2028.12,275.091 2032.3,274.819 2033.34,274.776 2034.39,274.744 2034.91,274.732 2035.43,274.722 2035.95,274.715 2036.48,274.711 2037,274.709 2037.52,205.641 2038.04,205.637 2038.56,205.631 2039.61,205.612 2040.65,205.582 2042.74,205.492 2044.83,205.361 2046.92,205.189 2049.01,204.977 2053.18,204.438 2057.36,203.748 2074.07,199.668 2090.78,193.928 2127.39,177.919 2164,159.537 2217.18,131.045 2270.36,101.586 2281.27,95.4749 2292.18,89.3462 "/>
<polyline clip-path="url(#clip642)" style="stroke:#3da44d; stroke-linecap:round; stroke-linejoin:round; stroke-width:4; stroke-opacity:1; fill:none" stroke-dasharray="16, 10" points="2037.15,2799.12 2037.15,-1328.69 "/>
<polyline clip-path="url(#clip642)" style="stroke:#c271d2; stroke-linecap:round; stroke-linejoin:round; stroke-width:4; stroke-opacity:1; fill:none" points="273.033,1384.24 279.606,1380.09 286.179,1375.94 346.955,1337.68 407.731,1300.16 425.992,1289.42 444.254,1279.43 448.82,1277.13 453.385,1274.96 457.951,1272.93 462.516,1271.06 464.799,1270.2 467.082,1269.38 467.652,1269.18 468.223,1268.99 468.794,1268.8 469.364,1268.61 469.935,1268.43 470.506,1246.65 471.076,1246.47 471.647,1246.28 472.788,1245.89 473.93,1245.49 475.071,1245.08 476.213,1244.66 478.495,1243.77 480.778,1242.85 488.498,1239.41 496.218,1235.59 503.938,1231.49 511.658,1227.18 527.098,1218.19 542.539,1208.89 609.628,1167.14 671.478,1128.1 737.789,1086.24 814.616,1038.81 823.15,1033.83 831.684,1029 840.219,1024.41 848.753,1020.17 853.02,1018.23 857.287,1016.43 859.421,1015.6 861.554,1014.8 862.621,1014.42 863.688,1014.06 864.221,1013.88 864.755,1013.7 865.288,1013.52 865.822,993.077 866.355,992.905 866.888,992.729 867.422,992.551 867.955,992.37 869.022,991.999 870.089,991.617 872.222,990.819 874.356,989.979 878.623,988.176 882.89,986.228 897.858,978.535 912.826,970.028 927.793,961.111 942.761,951.975 1008.04,911.143 1073.7,869.587 1146.3,823.688 1215.37,781.062 1224.35,775.842 1233.33,770.836 1242.31,766.167 1251.29,762.019 1253.53,761.09 1255.77,760.211 1256.9,759.791 1258.02,759.384 1258.58,759.186 1259.14,758.991 1259.7,758.799 1260.26,758.611 1260.82,758.427 1261.39,739.607 1261.95,739.425 1262.51,739.24 1263.63,738.861 1264.75,738.467 1267,737.639 1269.24,736.759 1273.73,734.853 1278.22,732.774 1282.71,730.551 1287.2,728.212 1302.31,719.754 1317.43,710.782 1332.54,701.553 1347.66,692.184 1421.47,645.662 1489.09,602.732 1551.54,563.173 1614.8,524.002 1623.67,518.82 1632.53,513.864 1636.96,511.515 1641.39,509.285 1645.82,507.209 1650.25,505.32 1652.47,504.457 1654.68,503.653 1655.24,503.461 1655.79,503.273 1656.34,503.089 1656.9,502.909 1657.45,486.343 1658.01,486.161 1658.56,485.976 1659.11,485.786 1660.22,485.396 1661.33,484.991 1662.44,484.571 1663.55,484.136 1665.76,483.226 1667.98,482.263 1676.84,477.979 1685.7,473.201 1717.82,454.108 1749.95,434.092 1823.5,387.514 1891.61,344.208 1925.18,322.905 1958.75,301.717 1991.35,281.447 2023.95,262.343 2032.3,258.1 2040.65,254.617 2042.74,253.936 2044.83,253.355 2046.92,252.89 2049.01,252.553 2050.05,252.436 2051.1,252.354 2051.62,252.327 2052.14,252.309 2052.66,252.3 2053.18,228.049 2053.71,228.039 2054.23,228.02 2054.75,227.992 2055.27,227.955 2056.32,227.853 2057.36,227.716 2061.54,226.843 2065.71,225.526 2069.89,223.871 2074.07,221.971 2082.42,217.69 2090.78,213.024 2127.39,190.886 2164,167.891 2217.18,134.099 2270.36,100.141 2281.27,93.1648 2292.18,86.1857 "/>
<polyline clip-path="url(#clip642)" style="stroke:#c271d2; stroke-linecap:round; stroke-linejoin:round; stroke-width:4; stroke-opacity:1; fill:none" stroke-dasharray="16, 10" points="2052.9,2799.12 2052.9,-1328.69 "/>
<path clip-path="url(#clip640)" d="M1735.09 1377.32 L2281.41 1377.32 L2281.41 1118.12 L1735.09 1118.12  Z" fill="#ffffff" fill-rule="evenodd" fill-opacity="1"/>
<polyline clip-path="url(#clip640)" style="stroke:#000000; stroke-linecap:round; stroke-linejoin:round; stroke-width:4; stroke-opacity:1; fill:none" points="1735.09,1377.32 2281.41,1377.32 2281.41,1118.12 1735.09,1118.12 1735.09,1377.32 "/>
<polyline clip-path="url(#clip640)" style="stroke:#009af9; stroke-linecap:round; stroke-linejoin:round; stroke-width:4; stroke-opacity:1; fill:none" points="1758.87,1169.96 1901.56,1169.96 "/>
<path clip-path="url(#clip640)" d="M1932.45 1152.68 L1937.12 1152.68 L1937.12 1184.83 Q1937.12 1191.08 1934.74 1193.9 Q1932.38 1196.73 1927.12 1196.73 L1925.34 1196.73 L1925.34 1192.79 L1926.8 1192.79 Q1929.9 1192.79 1931.18 1191.05 Q1932.45 1189.32 1932.45 1184.83 L1932.45 1152.68 Z" fill="#000000" fill-rule="evenodd" fill-opacity="1" /><path clip-path="url(#clip640)" d="M1965.94 1195.11 L1965.94 1198.42 L1941.31 1198.42 L1941.31 1195.11 L1965.94 1195.11 Z" fill="#000000" fill-rule="evenodd" fill-opacity="1" /><path clip-path="url(#clip640)" d="M1984.97 1165.29 Q1984.25 1164.87 1983.4 1164.69 Q1982.56 1164.48 1981.55 1164.48 Q1977.93 1164.48 1975.99 1166.84 Q1974.07 1169.18 1974.07 1173.58 L1974.07 1187.24 L1969.79 1187.24 L1969.79 1161.31 L1974.07 1161.31 L1974.07 1165.34 Q1975.41 1162.98 1977.56 1161.84 Q1979.72 1160.68 1982.8 1160.68 Q1983.23 1160.68 1983.77 1160.75 Q1984.3 1160.8 1984.95 1160.92 L1984.97 1165.29 Z" fill="#000000" fill-rule="evenodd" fill-opacity="1" /><path clip-path="url(#clip640)" d="M2010.57 1173.21 L2010.57 1175.29 L1990.99 1175.29 Q1991.27 1179.69 1993.63 1182 Q1996.01 1184.3 2000.25 1184.3 Q2002.7 1184.3 2004.99 1183.69 Q2007.31 1183.09 2009.58 1181.89 L2009.58 1185.92 Q2007.29 1186.89 2004.88 1187.4 Q2002.47 1187.91 1999.99 1187.91 Q1993.79 1187.91 1990.16 1184.3 Q1986.55 1180.68 1986.55 1174.53 Q1986.55 1168.16 1989.97 1164.43 Q1993.42 1160.68 1999.25 1160.68 Q2004.48 1160.68 2007.52 1164.06 Q2010.57 1167.42 2010.57 1173.21 M2006.31 1171.96 Q2006.27 1168.46 2004.35 1166.38 Q2002.45 1164.3 1999.3 1164.3 Q1995.73 1164.3 1993.58 1166.31 Q1991.45 1168.32 1991.13 1171.98 L2006.31 1171.96 Z" fill="#000000" fill-rule="evenodd" fill-opacity="1" /><path clip-path="url(#clip640)" d="M2017.56 1151.22 L2021.82 1151.22 L2021.82 1187.24 L2017.56 1187.24 L2017.56 1151.22 Z" fill="#000000" fill-rule="evenodd" fill-opacity="1" /><path clip-path="url(#clip640)" d="M2046.36 1165.71 L2076.04 1165.71 L2076.04 1169.6 L2046.36 1169.6 L2046.36 1165.71 M2046.36 1175.15 L2076.04 1175.15 L2076.04 1179.09 L2046.36 1179.09 L2046.36 1175.15 Z" fill="#000000" fill-rule="evenodd" fill-opacity="1" /><path clip-path="url(#clip640)" d="M2111.2 1155.75 Q2107.59 1155.75 2105.76 1159.32 Q2103.95 1162.86 2103.95 1169.99 Q2103.95 1177.1 2105.76 1180.66 Q2107.59 1184.2 2111.2 1184.2 Q2114.83 1184.2 2116.64 1180.66 Q2118.47 1177.1 2118.47 1169.99 Q2118.47 1162.86 2116.64 1159.32 Q2114.83 1155.75 2111.2 1155.75 M2111.2 1152.05 Q2117.01 1152.05 2120.06 1156.66 Q2123.14 1161.24 2123.14 1169.99 Q2123.14 1178.72 2120.06 1183.32 Q2117.01 1187.91 2111.2 1187.91 Q2105.39 1187.91 2102.31 1183.32 Q2099.25 1178.72 2099.25 1169.99 Q2099.25 1161.24 2102.31 1156.66 Q2105.39 1152.05 2111.2 1152.05 Z" fill="#000000" fill-rule="evenodd" fill-opacity="1" /><path clip-path="url(#clip640)" d="M2131.36 1181.36 L2136.24 1181.36 L2136.24 1187.24 L2131.36 1187.24 L2131.36 1181.36 Z" fill="#000000" fill-rule="evenodd" fill-opacity="1" /><path clip-path="url(#clip640)" d="M2147.24 1183.3 L2154.88 1183.3 L2154.88 1156.93 L2146.57 1158.6 L2146.57 1154.34 L2154.83 1152.68 L2159.51 1152.68 L2159.51 1183.3 L2167.15 1183.3 L2167.15 1187.24 L2147.24 1187.24 L2147.24 1183.3 Z" fill="#000000" fill-rule="evenodd" fill-opacity="1" /><polyline clip-path="url(#clip640)" style="stroke:#e26f46; stroke-linecap:round; stroke-linejoin:round; stroke-width:4; stroke-opacity:1; fill:none" points="1758.87,1221.8 1901.56,1221.8 "/>
<path clip-path="url(#clip640)" d="M1932.45 1204.52 L1937.12 1204.52 L1937.12 1236.67 Q1937.12 1242.92 1934.74 1245.74 Q1932.38 1248.57 1927.12 1248.57 L1925.34 1248.57 L1925.34 1244.63 L1926.8 1244.63 Q1929.9 1244.63 1931.18 1242.89 Q1932.45 1241.16 1932.45 1236.67 L1932.45 1204.52 Z" fill="#000000" fill-rule="evenodd" fill-opacity="1" /><path clip-path="url(#clip640)" d="M1965.94 1246.95 L1965.94 1250.26 L1941.31 1250.26 L1941.31 1246.95 L1965.94 1246.95 Z" fill="#000000" fill-rule="evenodd" fill-opacity="1" /><path clip-path="url(#clip640)" d="M1984.97 1217.13 Q1984.25 1216.71 1983.4 1216.53 Q1982.56 1216.32 1981.55 1216.32 Q1977.93 1216.32 1975.99 1218.68 Q1974.07 1221.02 1974.07 1225.42 L1974.07 1239.08 L1969.79 1239.08 L1969.79 1213.15 L1974.07 1213.15 L1974.07 1217.18 Q1975.41 1214.82 1977.56 1213.68 Q1979.72 1212.52 1982.8 1212.52 Q1983.23 1212.52 1983.77 1212.59 Q1984.3 1212.64 1984.95 1212.76 L1984.97 1217.13 Z" fill="#000000" fill-rule="evenodd" fill-opacity="1" /><path clip-path="url(#clip640)" d="M2010.57 1225.05 L2010.57 1227.13 L1990.99 1227.13 Q1991.27 1231.53 1993.63 1233.84 Q1996.01 1236.14 2000.25 1236.14 Q2002.7 1236.14 2004.99 1235.53 Q2007.31 1234.93 2009.58 1233.73 L2009.58 1237.76 Q2007.29 1238.73 2004.88 1239.24 Q2002.47 1239.75 1999.99 1239.75 Q1993.79 1239.75 1990.16 1236.14 Q1986.55 1232.52 1986.55 1226.37 Q1986.55 1220 1989.97 1216.27 Q1993.42 1212.52 1999.25 1212.52 Q2004.48 1212.52 2007.52 1215.9 Q2010.57 1219.26 2010.57 1225.05 M2006.31 1223.8 Q2006.27 1220.3 2004.35 1218.22 Q2002.45 1216.14 1999.3 1216.14 Q1995.73 1216.14 1993.58 1218.15 Q1991.45 1220.16 1991.13 1223.82 L2006.31 1223.8 Z" fill="#000000" fill-rule="evenodd" fill-opacity="1" /><path clip-path="url(#clip640)" d="M2017.56 1203.06 L2021.82 1203.06 L2021.82 1239.08 L2017.56 1239.08 L2017.56 1203.06 Z" fill="#000000" fill-rule="evenodd" fill-opacity="1" /><path clip-path="url(#clip640)" d="M2046.36 1217.55 L2076.04 1217.55 L2076.04 1221.44 L2046.36 1221.44 L2046.36 1217.55 M2046.36 1226.99 L2076.04 1226.99 L2076.04 1230.93 L2046.36 1230.93 L2046.36 1226.99 Z" fill="#000000" fill-rule="evenodd" fill-opacity="1" /><path clip-path="url(#clip640)" d="M2111.2 1207.59 Q2107.59 1207.59 2105.76 1211.16 Q2103.95 1214.7 2103.95 1221.83 Q2103.95 1228.94 2105.76 1232.5 Q2107.59 1236.04 2111.2 1236.04 Q2114.83 1236.04 2116.64 1232.5 Q2118.47 1228.94 2118.47 1221.83 Q2118.47 1214.7 2116.64 1211.16 Q2114.83 1207.59 2111.2 1207.59 M2111.2 1203.89 Q2117.01 1203.89 2120.06 1208.5 Q2123.14 1213.08 2123.14 1221.83 Q2123.14 1230.56 2120.06 1235.16 Q2117.01 1239.75 2111.2 1239.75 Q2105.39 1239.75 2102.31 1235.16 Q2099.25 1230.56 2099.25 1221.83 Q2099.25 1213.08 2102.31 1208.5 Q2105.39 1203.89 2111.2 1203.89 Z" fill="#000000" fill-rule="evenodd" fill-opacity="1" /><path clip-path="url(#clip640)" d="M2131.36 1233.2 L2136.24 1233.2 L2136.24 1239.08 L2131.36 1239.08 L2131.36 1233.2 Z" fill="#000000" fill-rule="evenodd" fill-opacity="1" /><path clip-path="url(#clip640)" d="M2156.43 1207.59 Q2152.82 1207.59 2150.99 1211.16 Q2149.18 1214.7 2149.18 1221.83 Q2149.18 1228.94 2150.99 1232.5 Q2152.82 1236.04 2156.43 1236.04 Q2160.06 1236.04 2161.87 1232.5 Q2163.7 1228.94 2163.7 1221.83 Q2163.7 1214.7 2161.87 1211.16 Q2160.06 1207.59 2156.43 1207.59 M2156.43 1203.89 Q2162.24 1203.89 2165.29 1208.5 Q2168.37 1213.08 2168.37 1221.83 Q2168.37 1230.56 2165.29 1235.16 Q2162.24 1239.75 2156.43 1239.75 Q2150.62 1239.75 2147.54 1235.16 Q2144.48 1230.56 2144.48 1221.83 Q2144.48 1213.08 2147.54 1208.5 Q2150.62 1203.89 2156.43 1203.89 Z" fill="#000000" fill-rule="evenodd" fill-opacity="1" /><path clip-path="url(#clip640)" d="M2177.4 1235.14 L2185.04 1235.14 L2185.04 1208.77 L2176.73 1210.44 L2176.73 1206.18 L2184.99 1204.52 L2189.67 1204.52 L2189.67 1235.14 L2197.31 1235.14 L2197.31 1239.08 L2177.4 1239.08 L2177.4 1235.14 Z" fill="#000000" fill-rule="evenodd" fill-opacity="1" /><polyline clip-path="url(#clip640)" style="stroke:#3da44d; stroke-linecap:round; stroke-linejoin:round; stroke-width:4; stroke-opacity:1; fill:none" points="1758.87,1273.64 1901.56,1273.64 "/>
<path clip-path="url(#clip640)" d="M1932.45 1256.36 L1937.12 1256.36 L1937.12 1288.51 Q1937.12 1294.76 1934.74 1297.58 Q1932.38 1300.41 1927.12 1300.41 L1925.34 1300.41 L1925.34 1296.47 L1926.8 1296.47 Q1929.9 1296.47 1931.18 1294.73 Q1932.45 1293 1932.45 1288.51 L1932.45 1256.36 Z" fill="#000000" fill-rule="evenodd" fill-opacity="1" /><path clip-path="url(#clip640)" d="M1965.94 1298.79 L1965.94 1302.1 L1941.31 1302.1 L1941.31 1298.79 L1965.94 1298.79 Z" fill="#000000" fill-rule="evenodd" fill-opacity="1" /><path clip-path="url(#clip640)" d="M1984.97 1268.97 Q1984.25 1268.55 1983.4 1268.37 Q1982.56 1268.16 1981.55 1268.16 Q1977.93 1268.16 1975.99 1270.52 Q1974.07 1272.86 1974.07 1277.26 L1974.07 1290.92 L1969.79 1290.92 L1969.79 1264.99 L1974.07 1264.99 L1974.07 1269.02 Q1975.41 1266.66 1977.56 1265.52 Q1979.72 1264.36 1982.8 1264.36 Q1983.23 1264.36 1983.77 1264.43 Q1984.3 1264.48 1984.95 1264.6 L1984.97 1268.97 Z" fill="#000000" fill-rule="evenodd" fill-opacity="1" /><path clip-path="url(#clip640)" d="M2010.57 1276.89 L2010.57 1278.97 L1990.99 1278.97 Q1991.27 1283.37 1993.63 1285.68 Q1996.01 1287.98 2000.25 1287.98 Q2002.7 1287.98 2004.99 1287.37 Q2007.31 1286.77 2009.58 1285.57 L2009.58 1289.6 Q2007.29 1290.57 2004.88 1291.08 Q2002.47 1291.59 1999.99 1291.59 Q1993.79 1291.59 1990.16 1287.98 Q1986.55 1284.36 1986.55 1278.21 Q1986.55 1271.84 1989.97 1268.11 Q1993.42 1264.36 1999.25 1264.36 Q2004.48 1264.36 2007.52 1267.74 Q2010.57 1271.1 2010.57 1276.89 M2006.31 1275.64 Q2006.27 1272.14 2004.35 1270.06 Q2002.45 1267.98 1999.3 1267.98 Q1995.73 1267.98 1993.58 1269.99 Q1991.45 1272 1991.13 1275.66 L2006.31 1275.64 Z" fill="#000000" fill-rule="evenodd" fill-opacity="1" /><path clip-path="url(#clip640)" d="M2017.56 1254.9 L2021.82 1254.9 L2021.82 1290.92 L2017.56 1290.92 L2017.56 1254.9 Z" fill="#000000" fill-rule="evenodd" fill-opacity="1" /><path clip-path="url(#clip640)" d="M2046.36 1269.39 L2076.04 1269.39 L2076.04 1273.28 L2046.36 1273.28 L2046.36 1269.39 M2046.36 1278.83 L2076.04 1278.83 L2076.04 1282.77 L2046.36 1282.77 L2046.36 1278.83 Z" fill="#000000" fill-rule="evenodd" fill-opacity="1" /><path clip-path="url(#clip640)" d="M2111.2 1259.43 Q2107.59 1259.43 2105.76 1263 Q2103.95 1266.54 2103.95 1273.67 Q2103.95 1280.78 2105.76 1284.34 Q2107.59 1287.88 2111.2 1287.88 Q2114.83 1287.88 2116.64 1284.34 Q2118.47 1280.78 2118.47 1273.67 Q2118.47 1266.54 2116.64 1263 Q2114.83 1259.43 2111.2 1259.43 M2111.2 1255.73 Q2117.01 1255.73 2120.06 1260.34 Q2123.14 1264.92 2123.14 1273.67 Q2123.14 1282.4 2120.06 1287 Q2117.01 1291.59 2111.2 1291.59 Q2105.39 1291.59 2102.31 1287 Q2099.25 1282.4 2099.25 1273.67 Q2099.25 1264.92 2102.31 1260.34 Q2105.39 1255.73 2111.2 1255.73 Z" fill="#000000" fill-rule="evenodd" fill-opacity="1" /><path clip-path="url(#clip640)" d="M2131.36 1285.04 L2136.24 1285.04 L2136.24 1290.92 L2131.36 1290.92 L2131.36 1285.04 Z" fill="#000000" fill-rule="evenodd" fill-opacity="1" /><path clip-path="url(#clip640)" d="M2156.43 1259.43 Q2152.82 1259.43 2150.99 1263 Q2149.18 1266.54 2149.18 1273.67 Q2149.18 1280.78 2150.99 1284.34 Q2152.82 1287.88 2156.43 1287.88 Q2160.06 1287.88 2161.87 1284.34 Q2163.7 1280.78 2163.7 1273.67 Q2163.7 1266.54 2161.87 1263 Q2160.06 1259.43 2156.43 1259.43 M2156.43 1255.73 Q2162.24 1255.73 2165.29 1260.34 Q2168.37 1264.92 2168.37 1273.67 Q2168.37 1282.4 2165.29 1287 Q2162.24 1291.59 2156.43 1291.59 Q2150.62 1291.59 2147.54 1287 Q2144.48 1282.4 2144.48 1273.67 Q2144.48 1264.92 2147.54 1260.34 Q2150.62 1255.73 2156.43 1255.73 Z" fill="#000000" fill-rule="evenodd" fill-opacity="1" /><path clip-path="url(#clip640)" d="M2186.59 1259.43 Q2182.98 1259.43 2181.15 1263 Q2179.34 1266.54 2179.34 1273.67 Q2179.34 1280.78 2181.15 1284.34 Q2182.98 1287.88 2186.59 1287.88 Q2190.22 1287.88 2192.03 1284.34 Q2193.86 1280.78 2193.86 1273.67 Q2193.86 1266.54 2192.03 1263 Q2190.22 1259.43 2186.59 1259.43 M2186.59 1255.73 Q2192.4 1255.73 2195.46 1260.34 Q2198.53 1264.92 2198.53 1273.67 Q2198.53 1282.4 2195.46 1287 Q2192.4 1291.59 2186.59 1291.59 Q2180.78 1291.59 2177.7 1287 Q2174.65 1282.4 2174.65 1273.67 Q2174.65 1264.92 2177.7 1260.34 Q2180.78 1255.73 2186.59 1255.73 Z" fill="#000000" fill-rule="evenodd" fill-opacity="1" /><path clip-path="url(#clip640)" d="M2207.56 1286.98 L2215.2 1286.98 L2215.2 1260.61 L2206.89 1262.28 L2206.89 1258.02 L2215.15 1256.36 L2219.83 1256.36 L2219.83 1286.98 L2227.47 1286.98 L2227.47 1290.92 L2207.56 1290.92 L2207.56 1286.98 Z" fill="#000000" fill-rule="evenodd" fill-opacity="1" /><polyline clip-path="url(#clip640)" style="stroke:#c271d2; stroke-linecap:round; stroke-linejoin:round; stroke-width:4; stroke-opacity:1; fill:none" points="1758.87,1325.48 1901.56,1325.48 "/>
<path clip-path="url(#clip640)" d="M1932.45 1308.2 L1937.12 1308.2 L1937.12 1340.35 Q1937.12 1346.6 1934.74 1349.42 Q1932.38 1352.25 1927.12 1352.25 L1925.34 1352.25 L1925.34 1348.31 L1926.8 1348.31 Q1929.9 1348.31 1931.18 1346.57 Q1932.45 1344.84 1932.45 1340.35 L1932.45 1308.2 Z" fill="#000000" fill-rule="evenodd" fill-opacity="1" /><path clip-path="url(#clip640)" d="M1965.94 1350.63 L1965.94 1353.94 L1941.31 1353.94 L1941.31 1350.63 L1965.94 1350.63 Z" fill="#000000" fill-rule="evenodd" fill-opacity="1" /><path clip-path="url(#clip640)" d="M1984.97 1320.81 Q1984.25 1320.39 1983.4 1320.21 Q1982.56 1320 1981.55 1320 Q1977.93 1320 1975.99 1322.36 Q1974.07 1324.7 1974.07 1329.1 L1974.07 1342.76 L1969.79 1342.76 L1969.79 1316.83 L1974.07 1316.83 L1974.07 1320.86 Q1975.41 1318.5 1977.56 1317.36 Q1979.72 1316.2 1982.8 1316.2 Q1983.23 1316.2 1983.77 1316.27 Q1984.3 1316.32 1984.95 1316.44 L1984.97 1320.81 Z" fill="#000000" fill-rule="evenodd" fill-opacity="1" /><path clip-path="url(#clip640)" d="M2010.57 1328.73 L2010.57 1330.81 L1990.99 1330.81 Q1991.27 1335.21 1993.63 1337.52 Q1996.01 1339.82 2000.25 1339.82 Q2002.7 1339.82 2004.99 1339.21 Q2007.31 1338.61 2009.58 1337.41 L2009.58 1341.44 Q2007.29 1342.41 2004.88 1342.92 Q2002.47 1343.43 1999.99 1343.43 Q1993.79 1343.43 1990.16 1339.82 Q1986.55 1336.2 1986.55 1330.05 Q1986.55 1323.68 1989.97 1319.95 Q1993.42 1316.2 1999.25 1316.2 Q2004.48 1316.2 2007.52 1319.58 Q2010.57 1322.94 2010.57 1328.73 M2006.31 1327.48 Q2006.27 1323.98 2004.35 1321.9 Q2002.45 1319.82 1999.3 1319.82 Q1995.73 1319.82 1993.58 1321.83 Q1991.45 1323.84 1991.13 1327.5 L2006.31 1327.48 Z" fill="#000000" fill-rule="evenodd" fill-opacity="1" /><path clip-path="url(#clip640)" d="M2017.56 1306.74 L2021.82 1306.74 L2021.82 1342.76 L2017.56 1342.76 L2017.56 1306.74 Z" fill="#000000" fill-rule="evenodd" fill-opacity="1" /><path clip-path="url(#clip640)" d="M2046.36 1321.23 L2076.04 1321.23 L2076.04 1325.12 L2046.36 1325.12 L2046.36 1321.23 M2046.36 1330.67 L2076.04 1330.67 L2076.04 1334.61 L2046.36 1334.61 L2046.36 1330.67 Z" fill="#000000" fill-rule="evenodd" fill-opacity="1" /><path clip-path="url(#clip640)" d="M2111.2 1311.27 Q2107.59 1311.27 2105.76 1314.84 Q2103.95 1318.38 2103.95 1325.51 Q2103.95 1332.62 2105.76 1336.18 Q2107.59 1339.72 2111.2 1339.72 Q2114.83 1339.72 2116.64 1336.18 Q2118.47 1332.62 2118.47 1325.51 Q2118.47 1318.38 2116.64 1314.84 Q2114.83 1311.27 2111.2 1311.27 M2111.2 1307.57 Q2117.01 1307.57 2120.06 1312.18 Q2123.14 1316.76 2123.14 1325.51 Q2123.14 1334.24 2120.06 1338.84 Q2117.01 1343.43 2111.2 1343.43 Q2105.39 1343.43 2102.31 1338.84 Q2099.25 1334.24 2099.25 1325.51 Q2099.25 1316.76 2102.31 1312.18 Q2105.39 1307.57 2111.2 1307.57 Z" fill="#000000" fill-rule="evenodd" fill-opacity="1" /><path clip-path="url(#clip640)" d="M2131.36 1336.88 L2136.24 1336.88 L2136.24 1342.76 L2131.36 1342.76 L2131.36 1336.88 Z" fill="#000000" fill-rule="evenodd" fill-opacity="1" /><path clip-path="url(#clip640)" d="M2156.43 1311.27 Q2152.82 1311.27 2150.99 1314.84 Q2149.18 1318.38 2149.18 1325.51 Q2149.18 1332.62 2150.99 1336.18 Q2152.82 1339.72 2156.43 1339.72 Q2160.06 1339.72 2161.87 1336.18 Q2163.7 1332.62 2163.7 1325.51 Q2163.7 1318.38 2161.87 1314.84 Q2160.06 1311.27 2156.43 1311.27 M2156.43 1307.57 Q2162.24 1307.57 2165.29 1312.18 Q2168.37 1316.76 2168.37 1325.51 Q2168.37 1334.24 2165.29 1338.84 Q2162.24 1343.43 2156.43 1343.43 Q2150.62 1343.43 2147.54 1338.84 Q2144.48 1334.24 2144.48 1325.51 Q2144.48 1316.76 2147.54 1312.18 Q2150.62 1307.57 2156.43 1307.57 Z" fill="#000000" fill-rule="evenodd" fill-opacity="1" /><path clip-path="url(#clip640)" d="M2186.59 1311.27 Q2182.98 1311.27 2181.15 1314.84 Q2179.34 1318.38 2179.34 1325.51 Q2179.34 1332.62 2181.15 1336.18 Q2182.98 1339.72 2186.59 1339.72 Q2190.22 1339.72 2192.03 1336.18 Q2193.86 1332.62 2193.86 1325.51 Q2193.86 1318.38 2192.03 1314.84 Q2190.22 1311.27 2186.59 1311.27 M2186.59 1307.57 Q2192.4 1307.57 2195.46 1312.18 Q2198.53 1316.76 2198.53 1325.51 Q2198.53 1334.24 2195.46 1338.84 Q2192.4 1343.43 2186.59 1343.43 Q2180.78 1343.43 2177.7 1338.84 Q2174.65 1334.24 2174.65 1325.51 Q2174.65 1316.76 2177.7 1312.18 Q2180.78 1307.57 2186.59 1307.57 Z" fill="#000000" fill-rule="evenodd" fill-opacity="1" /><path clip-path="url(#clip640)" d="M2216.75 1311.27 Q2213.14 1311.27 2211.31 1314.84 Q2209.51 1318.38 2209.51 1325.51 Q2209.51 1332.62 2211.31 1336.18 Q2213.14 1339.72 2216.75 1339.72 Q2220.39 1339.72 2222.19 1336.18 Q2224.02 1332.62 2224.02 1325.51 Q2224.02 1318.38 2222.19 1314.84 Q2220.39 1311.27 2216.75 1311.27 M2216.75 1307.57 Q2222.56 1307.57 2225.62 1312.18 Q2228.7 1316.76 2228.7 1325.51 Q2228.7 1334.24 2225.62 1338.84 Q2222.56 1343.43 2216.75 1343.43 Q2210.94 1343.43 2207.86 1338.84 Q2204.81 1334.24 2204.81 1325.51 Q2204.81 1316.76 2207.86 1312.18 Q2210.94 1307.57 2216.75 1307.57 Z" fill="#000000" fill-rule="evenodd" fill-opacity="1" /><path clip-path="url(#clip640)" d="M2237.72 1338.82 L2245.36 1338.82 L2245.36 1312.45 L2237.05 1314.12 L2237.05 1309.86 L2245.32 1308.2 L2249.99 1308.2 L2249.99 1338.82 L2257.63 1338.82 L2257.63 1342.76 L2237.72 1342.76 L2237.72 1338.82 Z" fill="#000000" fill-rule="evenodd" fill-opacity="1" /></svg>
