<?xml version="1.0" encoding="utf-8"?>
<svg xmlns="http://www.w3.org/2000/svg" xmlns:xlink="http://www.w3.org/1999/xlink" width="600" height="400" viewBox="0 0 2400 1600">
<defs>
  <clipPath id="clip210">
    <rect x="0" y="0" width="2400" height="1600"/>
  </clipPath>
</defs>
<path clip-path="url(#clip210)" d="M0 1600 L2400 1600 L2400 0 L0 0  Z" fill="#ffffff" fill-rule="evenodd" fill-opacity="1"/>
<defs>
  <clipPath id="clip211">
    <rect x="480" y="0" width="1681" height="1600"/>
  </clipPath>
</defs>
<path clip-path="url(#clip210)" d="M156.598 1486.45 L2352.76 1486.45 L2352.76 47.2441 L156.598 47.2441  Z" fill="#ffffff" fill-rule="evenodd" fill-opacity="1"/>
<defs>
  <clipPath id="clip212">
    <rect x="156" y="47" width="2197" height="1440"/>
  </clipPath>
</defs>
<polyline clip-path="url(#clip212)" style="stroke:#000000; stroke-linecap:round; stroke-linejoin:round; stroke-width:2; stroke-opacity:0.1; fill:none" points="218.754,1486.45 218.754,47.2441 "/>
<polyline clip-path="url(#clip212)" style="stroke:#000000; stroke-linecap:round; stroke-linejoin:round; stroke-width:2; stroke-opacity:0.1; fill:none" points="736.715,1486.45 736.715,47.2441 "/>
<polyline clip-path="url(#clip212)" style="stroke:#000000; stroke-linecap:round; stroke-linejoin:round; stroke-width:2; stroke-opacity:0.1; fill:none" points="1254.68,1486.45 1254.68,47.2441 "/>
<polyline clip-path="url(#clip212)" style="stroke:#000000; stroke-linecap:round; stroke-linejoin:round; stroke-width:2; stroke-opacity:0.1; fill:none" points="1772.64,1486.45 1772.64,47.2441 "/>
<polyline clip-path="url(#clip212)" style="stroke:#000000; stroke-linecap:round; stroke-linejoin:round; stroke-width:2; stroke-opacity:0.1; fill:none" points="2290.6,1486.45 2290.6,47.2441 "/>
<polyline clip-path="url(#clip210)" style="stroke:#000000; stroke-linecap:round; stroke-linejoin:round; stroke-width:4; stroke-opacity:1; fill:none" points="156.598,1486.45 2352.76,1486.45 "/>
<polyline clip-path="url(#clip210)" style="stroke:#000000; stroke-linecap:round; stroke-linejoin:round; stroke-width:4; stroke-opacity:1; fill:none" points="218.754,1486.45 218.754,1467.55 "/>
<polyline clip-path="url(#clip210)" style="stroke:#000000; stroke-linecap:round; stroke-linejoin:round; stroke-width:4; stroke-opacity:1; fill:none" points="736.715,1486.45 736.715,1467.55 "/>
<polyline clip-path="url(#clip210)" style="stroke:#000000; stroke-linecap:round; stroke-linejoin:round; stroke-width:4; stroke-opacity:1; fill:none" points="1254.68,1486.45 1254.68,1467.55 "/>
<polyline clip-path="url(#clip210)" style="stroke:#000000; stroke-linecap:round; stroke-linejoin:round; stroke-width:4; stroke-opacity:1; fill:none" points="1772.64,1486.45 1772.64,1467.55 "/>
<polyline clip-path="url(#clip210)" style="stroke:#000000; stroke-linecap:round; stroke-linejoin:round; stroke-width:4; stroke-opacity:1; fill:none" points="2290.6,1486.45 2290.6,1467.55 "/>
<path clip-path="url(#clip210)" d="M196.138 1517.37 Q192.527 1517.37 190.698 1520.93 Q188.893 1524.47 188.893 1531.6 Q188.893 1538.71 190.698 1542.27 Q192.527 1545.82 196.138 1545.82 Q199.772 1545.82 201.578 1542.27 Q203.407 1538.71 203.407 1531.6 Q203.407 1524.47 201.578 1520.93 Q199.772 1517.37 196.138 1517.37 M196.138 1513.66 Q201.948 1513.66 205.004 1518.27 Q208.082 1522.85 208.082 1531.6 Q208.082 1540.33 205.004 1544.94 Q201.948 1549.52 196.138 1549.52 Q190.328 1549.52 187.249 1544.94 Q184.194 1540.33 184.194 1531.6 Q184.194 1522.85 187.249 1518.27 Q190.328 1513.66 196.138 1513.66 Z" fill="#000000" fill-rule="evenodd" fill-opacity="1" /><path clip-path="url(#clip210)" d="M216.3 1542.97 L221.184 1542.97 L221.184 1548.85 L216.3 1548.85 L216.3 1542.97 Z" fill="#000000" fill-rule="evenodd" fill-opacity="1" /><path clip-path="url(#clip210)" d="M241.369 1517.37 Q237.758 1517.37 235.929 1520.93 Q234.124 1524.47 234.124 1531.6 Q234.124 1538.71 235.929 1542.27 Q237.758 1545.82 241.369 1545.82 Q245.003 1545.82 246.809 1542.27 Q248.638 1538.71 248.638 1531.6 Q248.638 1524.47 246.809 1520.93 Q245.003 1517.37 241.369 1517.37 M241.369 1513.66 Q247.179 1513.66 250.235 1518.27 Q253.314 1522.85 253.314 1531.6 Q253.314 1540.33 250.235 1544.94 Q247.179 1549.52 241.369 1549.52 Q235.559 1549.52 232.48 1544.94 Q229.425 1540.33 229.425 1531.6 Q229.425 1522.85 232.48 1518.27 Q235.559 1513.66 241.369 1513.66 Z" fill="#000000" fill-rule="evenodd" fill-opacity="1" /><path clip-path="url(#clip210)" d="M708.452 1544.91 L724.771 1544.91 L724.771 1548.85 L702.827 1548.85 L702.827 1544.91 Q705.489 1542.16 710.072 1537.53 Q714.678 1532.88 715.859 1531.53 Q718.104 1529.01 718.984 1527.27 Q719.887 1525.51 719.887 1523.82 Q719.887 1521.07 717.942 1519.33 Q716.021 1517.6 712.919 1517.6 Q710.72 1517.6 708.266 1518.36 Q705.836 1519.13 703.058 1520.68 L703.058 1515.95 Q705.882 1514.82 708.336 1514.24 Q710.79 1513.66 712.827 1513.66 Q718.197 1513.66 721.391 1516.35 Q724.586 1519.03 724.586 1523.52 Q724.586 1525.65 723.776 1527.57 Q722.989 1529.47 720.882 1532.07 Q720.303 1532.74 717.202 1535.95 Q714.1 1539.15 708.452 1544.91 Z" fill="#000000" fill-rule="evenodd" fill-opacity="1" /><path clip-path="url(#clip210)" d="M734.586 1542.97 L739.47 1542.97 L739.47 1548.85 L734.586 1548.85 L734.586 1542.97 Z" fill="#000000" fill-rule="evenodd" fill-opacity="1" /><path clip-path="url(#clip210)" d="M749.701 1514.29 L768.058 1514.29 L768.058 1518.22 L753.984 1518.22 L753.984 1526.7 Q755.002 1526.35 756.021 1526.19 Q757.039 1526 758.058 1526 Q763.845 1526 767.224 1529.17 Q770.604 1532.34 770.604 1537.76 Q770.604 1543.34 767.132 1546.44 Q763.66 1549.52 757.34 1549.52 Q755.164 1549.52 752.896 1549.15 Q750.65 1548.78 748.243 1548.04 L748.243 1543.34 Q750.326 1544.47 752.549 1545.03 Q754.771 1545.58 757.248 1545.58 Q761.252 1545.58 763.59 1543.48 Q765.928 1541.37 765.928 1537.76 Q765.928 1534.15 763.59 1532.04 Q761.252 1529.94 757.248 1529.94 Q755.373 1529.94 753.498 1530.35 Q751.646 1530.77 749.701 1531.65 L749.701 1514.29 Z" fill="#000000" fill-rule="evenodd" fill-opacity="1" /><path clip-path="url(#clip210)" d="M1221.84 1514.29 L1240.2 1514.29 L1240.2 1518.22 L1226.12 1518.22 L1226.12 1526.7 Q1227.14 1526.35 1228.16 1526.19 Q1229.18 1526 1230.2 1526 Q1235.99 1526 1239.36 1529.17 Q1242.74 1532.34 1242.74 1537.76 Q1242.74 1543.34 1239.27 1546.44 Q1235.8 1549.52 1229.48 1549.52 Q1227.3 1549.52 1225.04 1549.15 Q1222.79 1548.78 1220.38 1548.04 L1220.38 1543.34 Q1222.47 1544.47 1224.69 1545.03 Q1226.91 1545.58 1229.39 1545.58 Q1233.39 1545.58 1235.73 1543.48 Q1238.07 1541.37 1238.07 1537.76 Q1238.07 1534.15 1235.73 1532.04 Q1233.39 1529.94 1229.39 1529.94 Q1227.51 1529.94 1225.64 1530.35 Q1223.79 1530.77 1221.84 1531.65 L1221.84 1514.29 Z" fill="#000000" fill-rule="evenodd" fill-opacity="1" /><path clip-path="url(#clip210)" d="M1251.96 1542.97 L1256.84 1542.97 L1256.84 1548.85 L1251.96 1548.85 L1251.96 1542.97 Z" fill="#000000" fill-rule="evenodd" fill-opacity="1" /><path clip-path="url(#clip210)" d="M1277.03 1517.37 Q1273.42 1517.37 1271.59 1520.93 Q1269.78 1524.47 1269.78 1531.6 Q1269.78 1538.71 1271.59 1542.27 Q1273.42 1545.82 1277.03 1545.82 Q1280.66 1545.82 1282.47 1542.27 Q1284.29 1538.71 1284.29 1531.6 Q1284.29 1524.47 1282.47 1520.93 Q1280.66 1517.37 1277.03 1517.37 M1277.03 1513.66 Q1282.84 1513.66 1285.89 1518.27 Q1288.97 1522.85 1288.97 1531.6 Q1288.97 1540.33 1285.89 1544.94 Q1282.84 1549.52 1277.03 1549.52 Q1271.22 1549.52 1268.14 1544.94 Q1265.08 1540.33 1265.08 1531.6 Q1265.08 1522.85 1268.14 1518.27 Q1271.22 1513.66 1277.03 1513.66 Z" fill="#000000" fill-rule="evenodd" fill-opacity="1" /><path clip-path="url(#clip210)" d="M1738.96 1514.29 L1761.18 1514.29 L1761.18 1516.28 L1748.63 1548.85 L1743.75 1548.85 L1755.56 1518.22 L1738.96 1518.22 L1738.96 1514.29 Z" fill="#000000" fill-rule="evenodd" fill-opacity="1" /><path clip-path="url(#clip210)" d="M1770.3 1542.97 L1775.19 1542.97 L1775.19 1548.85 L1770.3 1548.85 L1770.3 1542.97 Z" fill="#000000" fill-rule="evenodd" fill-opacity="1" /><path clip-path="url(#clip210)" d="M1785.42 1514.29 L1803.77 1514.29 L1803.77 1518.22 L1789.7 1518.22 L1789.7 1526.7 Q1790.72 1526.35 1791.74 1526.19 Q1792.75 1526 1793.77 1526 Q1799.56 1526 1802.94 1529.17 Q1806.32 1532.34 1806.32 1537.76 Q1806.32 1543.34 1802.85 1546.44 Q1799.37 1549.52 1793.06 1549.52 Q1790.88 1549.52 1788.61 1549.15 Q1786.37 1548.78 1783.96 1548.04 L1783.96 1543.34 Q1786.04 1544.47 1788.26 1545.03 Q1790.49 1545.58 1792.96 1545.58 Q1796.97 1545.58 1799.31 1543.48 Q1801.64 1541.37 1801.64 1537.76 Q1801.64 1534.15 1799.31 1532.04 Q1796.97 1529.94 1792.96 1529.94 Q1791.09 1529.94 1789.21 1530.35 Q1787.36 1530.77 1785.42 1531.65 L1785.42 1514.29 Z" fill="#000000" fill-rule="evenodd" fill-opacity="1" /><path clip-path="url(#clip210)" d="M2242.67 1544.91 L2250.31 1544.91 L2250.31 1518.55 L2242 1520.21 L2242 1515.95 L2250.27 1514.29 L2254.94 1514.29 L2254.94 1544.91 L2262.58 1544.91 L2262.58 1548.85 L2242.67 1548.85 L2242.67 1544.91 Z" fill="#000000" fill-rule="evenodd" fill-opacity="1" /><path clip-path="url(#clip210)" d="M2282.02 1517.37 Q2278.41 1517.37 2276.58 1520.93 Q2274.78 1524.47 2274.78 1531.6 Q2274.78 1538.71 2276.58 1542.27 Q2278.41 1545.82 2282.02 1545.82 Q2285.66 1545.82 2287.46 1542.27 Q2289.29 1538.71 2289.29 1531.6 Q2289.29 1524.47 2287.46 1520.93 Q2285.66 1517.37 2282.02 1517.37 M2282.02 1513.66 Q2287.83 1513.66 2290.89 1518.27 Q2293.97 1522.85 2293.97 1531.6 Q2293.97 1540.33 2290.89 1544.94 Q2287.83 1549.52 2282.02 1549.52 Q2276.21 1549.52 2273.14 1544.94 Q2270.08 1540.33 2270.08 1531.6 Q2270.08 1522.85 2273.14 1518.27 Q2276.21 1513.66 2282.02 1513.66 Z" fill="#000000" fill-rule="evenodd" fill-opacity="1" /><path clip-path="url(#clip210)" d="M2302.19 1542.97 L2307.07 1542.97 L2307.07 1548.85 L2302.19 1548.85 L2302.19 1542.97 Z" fill="#000000" fill-rule="evenodd" fill-opacity="1" /><path clip-path="url(#clip210)" d="M2327.26 1517.37 Q2323.64 1517.37 2321.82 1520.93 Q2320.01 1524.47 2320.01 1531.6 Q2320.01 1538.71 2321.82 1542.27 Q2323.64 1545.82 2327.26 1545.82 Q2330.89 1545.82 2332.7 1542.27 Q2334.52 1538.71 2334.52 1531.6 Q2334.52 1524.47 2332.7 1520.93 Q2330.89 1517.37 2327.26 1517.37 M2327.26 1513.66 Q2333.07 1513.66 2336.12 1518.27 Q2339.2 1522.85 2339.2 1531.6 Q2339.2 1540.33 2336.12 1544.94 Q2333.07 1549.52 2327.26 1549.52 Q2321.45 1549.52 2318.37 1544.94 Q2315.31 1540.33 2315.31 1531.6 Q2315.31 1522.85 2318.37 1518.27 Q2321.45 1513.66 2327.26 1513.66 Z" fill="#000000" fill-rule="evenodd" fill-opacity="1" /><polyline clip-path="url(#clip212)" style="stroke:#000000; stroke-linecap:round; stroke-linejoin:round; stroke-width:2; stroke-opacity:0.1; fill:none" points="156.598,1445.72 2352.76,1445.72 "/>
<polyline clip-path="url(#clip212)" style="stroke:#000000; stroke-linecap:round; stroke-linejoin:round; stroke-width:2; stroke-opacity:0.1; fill:none" points="156.598,1233.69 2352.76,1233.69 "/>
<polyline clip-path="url(#clip212)" style="stroke:#000000; stroke-linecap:round; stroke-linejoin:round; stroke-width:2; stroke-opacity:0.1; fill:none" points="156.598,1021.66 2352.76,1021.66 "/>
<polyline clip-path="url(#clip212)" style="stroke:#000000; stroke-linecap:round; stroke-linejoin:round; stroke-width:2; stroke-opacity:0.1; fill:none" points="156.598,809.637 2352.76,809.637 "/>
<polyline clip-path="url(#clip212)" style="stroke:#000000; stroke-linecap:round; stroke-linejoin:round; stroke-width:2; stroke-opacity:0.1; fill:none" points="156.598,597.611 2352.76,597.611 "/>
<polyline clip-path="url(#clip212)" style="stroke:#000000; stroke-linecap:round; stroke-linejoin:round; stroke-width:2; stroke-opacity:0.1; fill:none" points="156.598,385.584 2352.76,385.584 "/>
<polyline clip-path="url(#clip212)" style="stroke:#000000; stroke-linecap:round; stroke-linejoin:round; stroke-width:2; stroke-opacity:0.1; fill:none" points="156.598,173.558 2352.76,173.558 "/>
<polyline clip-path="url(#clip210)" style="stroke:#000000; stroke-linecap:round; stroke-linejoin:round; stroke-width:4; stroke-opacity:1; fill:none" points="156.598,1486.45 156.598,47.2441 "/>
<polyline clip-path="url(#clip210)" style="stroke:#000000; stroke-linecap:round; stroke-linejoin:round; stroke-width:4; stroke-opacity:1; fill:none" points="156.598,1445.72 175.496,1445.72 "/>
<polyline clip-path="url(#clip210)" style="stroke:#000000; stroke-linecap:round; stroke-linejoin:round; stroke-width:4; stroke-opacity:1; fill:none" points="156.598,1233.69 175.496,1233.69 "/>
<polyline clip-path="url(#clip210)" style="stroke:#000000; stroke-linecap:round; stroke-linejoin:round; stroke-width:4; stroke-opacity:1; fill:none" points="156.598,1021.66 175.496,1021.66 "/>
<polyline clip-path="url(#clip210)" style="stroke:#000000; stroke-linecap:round; stroke-linejoin:round; stroke-width:4; stroke-opacity:1; fill:none" points="156.598,809.637 175.496,809.637 "/>
<polyline clip-path="url(#clip210)" style="stroke:#000000; stroke-linecap:round; stroke-linejoin:round; stroke-width:4; stroke-opacity:1; fill:none" points="156.598,597.611 175.496,597.611 "/>
<polyline clip-path="url(#clip210)" style="stroke:#000000; stroke-linecap:round; stroke-linejoin:round; stroke-width:4; stroke-opacity:1; fill:none" points="156.598,385.584 175.496,385.584 "/>
<polyline clip-path="url(#clip210)" style="stroke:#000000; stroke-linecap:round; stroke-linejoin:round; stroke-width:4; stroke-opacity:1; fill:none" points="156.598,173.558 175.496,173.558 "/>
<path clip-path="url(#clip210)" d="M63.4226 1431.51 Q59.8115 1431.51 57.9828 1435.08 Q56.1773 1438.62 56.1773 1445.75 Q56.1773 1452.86 57.9828 1456.42 Q59.8115 1459.96 63.4226 1459.96 Q67.0569 1459.96 68.8624 1456.42 Q70.6911 1452.86 70.6911 1445.75 Q70.6911 1438.62 68.8624 1435.08 Q67.0569 1431.51 63.4226 1431.51 M63.4226 1427.81 Q69.2328 1427.81 72.2883 1432.42 Q75.367 1437 75.367 1445.75 Q75.367 1454.48 72.2883 1459.08 Q69.2328 1463.67 63.4226 1463.67 Q57.6125 1463.67 54.5338 1459.08 Q51.4782 1454.48 51.4782 1445.75 Q51.4782 1437 54.5338 1432.42 Q57.6125 1427.81 63.4226 1427.81 Z" fill="#000000" fill-rule="evenodd" fill-opacity="1" /><path clip-path="url(#clip210)" d="M83.5845 1457.12 L88.4688 1457.12 L88.4688 1463 L83.5845 1463 L83.5845 1457.12 Z" fill="#000000" fill-rule="evenodd" fill-opacity="1" /><path clip-path="url(#clip210)" d="M108.654 1431.51 Q105.043 1431.51 103.214 1435.08 Q101.409 1438.62 101.409 1445.75 Q101.409 1452.86 103.214 1456.42 Q105.043 1459.96 108.654 1459.96 Q112.288 1459.96 114.094 1456.42 Q115.922 1452.86 115.922 1445.75 Q115.922 1438.62 114.094 1435.08 Q112.288 1431.51 108.654 1431.51 M108.654 1427.81 Q114.464 1427.81 117.52 1432.42 Q120.598 1437 120.598 1445.75 Q120.598 1454.48 117.52 1459.08 Q114.464 1463.67 108.654 1463.67 Q102.844 1463.67 99.765 1459.08 Q96.7095 1454.48 96.7095 1445.75 Q96.7095 1437 99.765 1432.42 Q102.844 1427.81 108.654 1427.81 Z" fill="#000000" fill-rule="evenodd" fill-opacity="1" /><path clip-path="url(#clip210)" d="M65.0198 1219.49 Q61.4087 1219.49 59.58 1223.05 Q57.7745 1226.59 57.7745 1233.72 Q57.7745 1240.83 59.58 1244.4 Q61.4087 1247.94 65.0198 1247.94 Q68.6541 1247.94 70.4596 1244.4 Q72.2883 1240.83 72.2883 1233.72 Q72.2883 1226.59 70.4596 1223.05 Q68.6541 1219.49 65.0198 1219.49 M65.0198 1215.78 Q70.83 1215.78 73.8855 1220.39 Q76.9642 1224.97 76.9642 1233.72 Q76.9642 1242.45 73.8855 1247.06 Q70.83 1251.64 65.0198 1251.64 Q59.2097 1251.64 56.131 1247.06 Q53.0754 1242.45 53.0754 1233.72 Q53.0754 1224.97 56.131 1220.39 Q59.2097 1215.78 65.0198 1215.78 Z" fill="#000000" fill-rule="evenodd" fill-opacity="1" /><path clip-path="url(#clip210)" d="M85.1818 1245.09 L90.066 1245.09 L90.066 1250.97 L85.1818 1250.97 L85.1818 1245.09 Z" fill="#000000" fill-rule="evenodd" fill-opacity="1" /><path clip-path="url(#clip210)" d="M104.279 1247.03 L120.598 1247.03 L120.598 1250.97 L98.6539 1250.97 L98.6539 1247.03 Q101.316 1244.28 105.899 1239.65 Q110.506 1235 111.686 1233.65 Q113.932 1231.13 114.811 1229.4 Q115.714 1227.64 115.714 1225.95 Q115.714 1223.19 113.77 1221.46 Q111.848 1219.72 108.746 1219.72 Q106.547 1219.72 104.094 1220.48 Q101.663 1221.25 98.8854 1222.8 L98.8854 1218.08 Q101.709 1216.94 104.163 1216.36 Q106.617 1215.78 108.654 1215.78 Q114.024 1215.78 117.219 1218.47 Q120.413 1221.15 120.413 1225.65 Q120.413 1227.78 119.603 1229.7 Q118.816 1231.59 116.709 1234.19 Q116.131 1234.86 113.029 1238.08 Q109.927 1241.27 104.279 1247.03 Z" fill="#000000" fill-rule="evenodd" fill-opacity="1" /><path clip-path="url(#clip210)" d="M62.9365 1007.46 Q59.3254 1007.46 57.4967 1011.03 Q55.6912 1014.57 55.6912 1021.7 Q55.6912 1028.8 57.4967 1032.37 Q59.3254 1035.91 62.9365 1035.91 Q66.5707 1035.91 68.3763 1032.37 Q70.205 1028.8 70.205 1021.7 Q70.205 1014.57 68.3763 1011.03 Q66.5707 1007.46 62.9365 1007.46 M62.9365 1003.76 Q68.7467 1003.76 71.8022 1008.36 Q74.8809 1012.95 74.8809 1021.7 Q74.8809 1030.42 71.8022 1035.03 Q68.7467 1039.61 62.9365 1039.61 Q57.1264 1039.61 54.0477 1035.03 Q50.9921 1030.42 50.9921 1021.7 Q50.9921 1012.95 54.0477 1008.36 Q57.1264 1003.76 62.9365 1003.76 Z" fill="#000000" fill-rule="evenodd" fill-opacity="1" /><path clip-path="url(#clip210)" d="M83.0984 1033.06 L87.9827 1033.06 L87.9827 1038.94 L83.0984 1038.94 L83.0984 1033.06 Z" fill="#000000" fill-rule="evenodd" fill-opacity="1" /><path clip-path="url(#clip210)" d="M111.015 1008.46 L99.2095 1026.91 L111.015 1026.91 L111.015 1008.46 M109.788 1004.38 L115.668 1004.38 L115.668 1026.91 L120.598 1026.91 L120.598 1030.8 L115.668 1030.8 L115.668 1038.94 L111.015 1038.94 L111.015 1030.8 L95.4132 1030.8 L95.4132 1026.28 L109.788 1004.38 Z" fill="#000000" fill-rule="evenodd" fill-opacity="1" /><path clip-path="url(#clip210)" d="M63.2606 795.436 Q59.6495 795.436 57.8208 799 Q56.0152 802.542 56.0152 809.672 Q56.0152 816.778 57.8208 820.343 Q59.6495 823.884 63.2606 823.884 Q66.8948 823.884 68.7004 820.343 Q70.5291 816.778 70.5291 809.672 Q70.5291 802.542 68.7004 799 Q66.8948 795.436 63.2606 795.436 M63.2606 791.732 Q69.0707 791.732 72.1263 796.338 Q75.205 800.922 75.205 809.672 Q75.205 818.398 72.1263 823.005 Q69.0707 827.588 63.2606 827.588 Q57.4504 827.588 54.3717 823.005 Q51.3162 818.398 51.3162 809.672 Q51.3162 800.922 54.3717 796.338 Q57.4504 791.732 63.2606 791.732 Z" fill="#000000" fill-rule="evenodd" fill-opacity="1" /><path clip-path="url(#clip210)" d="M83.4225 821.037 L88.3067 821.037 L88.3067 826.917 L83.4225 826.917 L83.4225 821.037 Z" fill="#000000" fill-rule="evenodd" fill-opacity="1" /><path clip-path="url(#clip210)" d="M109.071 807.773 Q105.922 807.773 104.071 809.926 Q102.242 812.079 102.242 815.829 Q102.242 819.556 104.071 821.732 Q105.922 823.884 109.071 823.884 Q112.219 823.884 114.047 821.732 Q115.899 819.556 115.899 815.829 Q115.899 812.079 114.047 809.926 Q112.219 807.773 109.071 807.773 M118.353 793.121 L118.353 797.38 Q116.594 796.547 114.788 796.107 Q113.006 795.667 111.246 795.667 Q106.617 795.667 104.163 798.792 Q101.733 801.917 101.385 808.236 Q102.751 806.223 104.811 805.158 Q106.871 804.07 109.348 804.07 Q114.557 804.07 117.566 807.241 Q120.598 810.389 120.598 815.829 Q120.598 821.153 117.45 824.371 Q114.302 827.588 109.071 827.588 Q103.075 827.588 99.9039 823.005 Q96.7326 818.398 96.7326 809.672 Q96.7326 801.477 100.621 796.616 Q104.51 791.732 111.061 791.732 Q112.82 791.732 114.603 792.079 Q116.408 792.426 118.353 793.121 Z" fill="#000000" fill-rule="evenodd" fill-opacity="1" /><path clip-path="url(#clip210)" d="M63.5152 583.409 Q59.9041 583.409 58.0754 586.974 Q56.2699 590.516 56.2699 597.645 Q56.2699 604.752 58.0754 608.317 Q59.9041 611.858 63.5152 611.858 Q67.1494 611.858 68.955 608.317 Q70.7837 604.752 70.7837 597.645 Q70.7837 590.516 68.955 586.974 Q67.1494 583.409 63.5152 583.409 M63.5152 579.706 Q69.3254 579.706 72.3809 584.312 Q75.4596 588.895 75.4596 597.645 Q75.4596 606.372 72.3809 610.979 Q69.3254 615.562 63.5152 615.562 Q57.7051 615.562 54.6264 610.979 Q51.5708 606.372 51.5708 597.645 Q51.5708 588.895 54.6264 584.312 Q57.7051 579.706 63.5152 579.706 Z" fill="#000000" fill-rule="evenodd" fill-opacity="1" /><path clip-path="url(#clip210)" d="M83.6771 609.011 L88.5614 609.011 L88.5614 614.891 L83.6771 614.891 L83.6771 609.011 Z" fill="#000000" fill-rule="evenodd" fill-opacity="1" /><path clip-path="url(#clip210)" d="M108.746 598.479 Q105.413 598.479 103.492 600.261 Q101.594 602.043 101.594 605.168 Q101.594 608.293 103.492 610.076 Q105.413 611.858 108.746 611.858 Q112.08 611.858 114.001 610.076 Q115.922 608.27 115.922 605.168 Q115.922 602.043 114.001 600.261 Q112.103 598.479 108.746 598.479 M104.071 596.488 Q101.061 595.747 99.3715 593.687 Q97.7048 591.627 97.7048 588.664 Q97.7048 584.52 100.645 582.113 Q103.608 579.706 108.746 579.706 Q113.908 579.706 116.848 582.113 Q119.788 584.52 119.788 588.664 Q119.788 591.627 118.098 593.687 Q116.432 595.747 113.445 596.488 Q116.825 597.275 118.7 599.567 Q120.598 601.858 120.598 605.168 Q120.598 610.192 117.52 612.877 Q114.464 615.562 108.746 615.562 Q103.029 615.562 99.9502 612.877 Q96.8947 610.192 96.8947 605.168 Q96.8947 601.858 98.7928 599.567 Q100.691 597.275 104.071 596.488 M102.358 589.104 Q102.358 591.789 104.024 593.293 Q105.714 594.798 108.746 594.798 Q111.756 594.798 113.445 593.293 Q115.158 591.789 115.158 589.104 Q115.158 586.419 113.445 584.914 Q111.756 583.409 108.746 583.409 Q105.714 583.409 104.024 584.914 Q102.358 586.419 102.358 589.104 Z" fill="#000000" fill-rule="evenodd" fill-opacity="1" /><path clip-path="url(#clip210)" d="M54.2328 398.929 L61.8717 398.929 L61.8717 372.564 L53.5616 374.23 L53.5616 369.971 L61.8254 368.304 L66.5013 368.304 L66.5013 398.929 L74.1402 398.929 L74.1402 402.864 L54.2328 402.864 L54.2328 398.929 Z" fill="#000000" fill-rule="evenodd" fill-opacity="1" /><path clip-path="url(#clip210)" d="M83.5845 396.985 L88.4688 396.985 L88.4688 402.864 L83.5845 402.864 L83.5845 396.985 Z" fill="#000000" fill-rule="evenodd" fill-opacity="1" /><path clip-path="url(#clip210)" d="M108.654 371.383 Q105.043 371.383 103.214 374.948 Q101.409 378.489 101.409 385.619 Q101.409 392.725 103.214 396.29 Q105.043 399.832 108.654 399.832 Q112.288 399.832 114.094 396.29 Q115.922 392.725 115.922 385.619 Q115.922 378.489 114.094 374.948 Q112.288 371.383 108.654 371.383 M108.654 367.679 Q114.464 367.679 117.52 372.286 Q120.598 376.869 120.598 385.619 Q120.598 394.346 117.52 398.952 Q114.464 403.536 108.654 403.536 Q102.844 403.536 99.765 398.952 Q96.7095 394.346 96.7095 385.619 Q96.7095 376.869 99.765 372.286 Q102.844 367.679 108.654 367.679 Z" fill="#000000" fill-rule="evenodd" fill-opacity="1" /><path clip-path="url(#clip210)" d="M55.8301 186.903 L63.4689 186.903 L63.4689 160.537 L55.1588 162.204 L55.1588 157.945 L63.4226 156.278 L68.0985 156.278 L68.0985 186.903 L75.7374 186.903 L75.7374 190.838 L55.8301 190.838 L55.8301 186.903 Z" fill="#000000" fill-rule="evenodd" fill-opacity="1" /><path clip-path="url(#clip210)" d="M85.1818 184.958 L90.066 184.958 L90.066 190.838 L85.1818 190.838 L85.1818 184.958 Z" fill="#000000" fill-rule="evenodd" fill-opacity="1" /><path clip-path="url(#clip210)" d="M104.279 186.903 L120.598 186.903 L120.598 190.838 L98.6539 190.838 L98.6539 186.903 Q101.316 184.148 105.899 179.519 Q110.506 174.866 111.686 173.523 Q113.932 171 114.811 169.264 Q115.714 167.505 115.714 165.815 Q115.714 163.06 113.77 161.324 Q111.848 159.588 108.746 159.588 Q106.547 159.588 104.094 160.352 Q101.663 161.116 98.8854 162.667 L98.8854 157.945 Q101.709 156.81 104.163 156.232 Q106.617 155.653 108.654 155.653 Q114.024 155.653 117.219 158.338 Q120.413 161.023 120.413 165.514 Q120.413 167.644 119.603 169.565 Q118.816 171.463 116.709 174.056 Q116.131 174.727 113.029 177.945 Q109.927 181.139 104.279 186.903 Z" fill="#000000" fill-rule="evenodd" fill-opacity="1" /><polyline clip-path="url(#clip212)" style="stroke:#009af9; stroke-linecap:round; stroke-linejoin:round; stroke-width:4; stroke-opacity:1; fill:none" points="218.754,1445.72 225.498,1445.72 232.242,1445.72 294.604,1445.7 356.966,1445.67 394.443,1445.64 431.92,1445.6 463.607,1445.57 495.293,1445.53 529.713,1445.48 564.133,1445.42 595.866,1445.37 627.598,1445.31 661.618,1445.24 695.639,1445.17 735.055,1445.08 774.471,1444.98 809.499,1444.89 844.528,1444.79 875.244,1444.7 905.961,1444.61 972.94,1444.4 1040.32,1444.17 1114.81,1443.9 1185.69,1443.64 1259.39,1443.35 1321.42,1443.1 1397.17,1442.78 1466.55,1442.49 1530.63,1442.21 1595.54,1441.93 1668.29,1441.62 1734.21,1441.34 1809.69,1441.02 1879.57,1440.73 1948.47,1440.46 2015.36,1440.19 2083.94,1439.94 2159.07,1439.67 2268.21,1439.31 2290.6,1439.24 "/>
<polyline clip-path="url(#clip212)" style="stroke:#e26f46; stroke-linecap:round; stroke-linejoin:round; stroke-width:4; stroke-opacity:1; fill:none" points="218.754,1445.72 222.126,1445.7 225.498,1445.67 228.87,1445.61 232.242,1445.54 263.423,1443.75 294.604,1440.04 325.785,1434.43 356.966,1426.94 394.443,1415.47 431.92,1401.37 463.607,1387.43 495.293,1371.69 529.713,1352.62 564.133,1331.56 595.866,1310.45 627.598,1287.78 661.618,1261.83 695.639,1234.27 735.055,1200.45 774.471,1164.76 809.499,1131.61 844.528,1097.25 875.244,1066.22 905.961,1034.44 972.94,963.009 1040.32,888.981 1114.81,805.793 1185.69,726.519 1259.39,645.196 1321.42,578.494 1359.3,538.882 1397.17,500.289 1431.86,465.948 1466.55,432.682 1498.59,402.996 1530.63,374.379 1563.09,346.548 1595.54,319.946 1631.92,291.662 1668.29,265.067 1701.25,242.478 1734.21,221.367 1771.95,199.054 1809.69,178.765 1844.63,161.807 1879.57,146.622 1914.02,133.393 1948.47,121.891 1981.92,112.366 2015.36,104.443 2049.65,97.9616 2083.94,93.109 2121.5,89.6173 2159.07,87.9763 2213.64,88.7475 2268.21,93.0383 2279.41,94.3294 2290.6,95.7545 "/>
<path clip-path="url(#clip210)" d="M229.803 250.738 L501.85 250.738 L501.85 95.2176 L229.803 95.2176  Z" fill="#ffffff" fill-rule="evenodd" fill-opacity="1"/>
<polyline clip-path="url(#clip210)" style="stroke:#000000; stroke-linecap:round; stroke-linejoin:round; stroke-width:4; stroke-opacity:1; fill:none" points="229.803,250.738 501.85,250.738 501.85,95.2176 229.803,95.2176 229.803,250.738 "/>
<polyline clip-path="url(#clip210)" style="stroke:#009af9; stroke-linecap:round; stroke-linejoin:round; stroke-width:4; stroke-opacity:1; fill:none" points="254.205,147.058 400.616,147.058 "/>
<path clip-path="url(#clip210)" d="M438.86 166.745 Q437.054 171.375 435.342 172.787 Q433.629 174.199 430.758 174.199 L427.355 174.199 L427.355 170.634 L429.855 170.634 Q431.615 170.634 432.587 169.8 Q433.559 168.967 434.74 165.865 L435.504 163.921 L425.018 138.412 L429.531 138.412 L437.633 158.689 L445.735 138.412 L450.249 138.412 L438.86 166.745 Z" fill="#000000" fill-rule="evenodd" fill-opacity="1" /><path clip-path="url(#clip210)" d="M457.54 160.402 L465.179 160.402 L465.179 134.037 L456.869 135.703 L456.869 131.444 L465.133 129.778 L469.809 129.778 L469.809 160.402 L477.448 160.402 L477.448 164.338 L457.54 164.338 L457.54 160.402 Z" fill="#000000" fill-rule="evenodd" fill-opacity="1" /><polyline clip-path="url(#clip210)" style="stroke:#e26f46; stroke-linecap:round; stroke-linejoin:round; stroke-width:4; stroke-opacity:1; fill:none" points="254.205,198.898 400.616,198.898 "/>
<path clip-path="url(#clip210)" d="M438.86 218.585 Q437.054 223.215 435.342 224.627 Q433.629 226.039 430.758 226.039 L427.355 226.039 L427.355 222.474 L429.855 222.474 Q431.615 222.474 432.587 221.64 Q433.559 220.807 434.74 217.705 L435.504 215.761 L425.018 190.252 L429.531 190.252 L437.633 210.529 L445.735 190.252 L450.249 190.252 L438.86 218.585 Z" fill="#000000" fill-rule="evenodd" fill-opacity="1" /><path clip-path="url(#clip210)" d="M460.758 212.242 L477.077 212.242 L477.077 216.178 L455.133 216.178 L455.133 212.242 Q457.795 209.488 462.378 204.858 Q466.985 200.205 468.165 198.863 Q470.411 196.34 471.29 194.604 Q472.193 192.844 472.193 191.155 Q472.193 188.4 470.249 186.664 Q468.327 184.928 465.226 184.928 Q463.027 184.928 460.573 185.692 Q458.142 186.455 455.365 188.006 L455.365 183.284 Q458.189 182.15 460.642 181.571 Q463.096 180.993 465.133 180.993 Q470.503 180.993 473.698 183.678 Q476.892 186.363 476.892 190.854 Q476.892 192.983 476.082 194.905 Q475.295 196.803 473.189 199.395 Q472.61 200.067 469.508 203.284 Q466.406 206.479 460.758 212.242 Z" fill="#000000" fill-rule="evenodd" fill-opacity="1" /></svg>
