<?xml version="1.0" encoding="utf-8"?>
<svg xmlns="http://www.w3.org/2000/svg" xmlns:xlink="http://www.w3.org/1999/xlink" width="600" height="400" viewBox="0 0 2400 1600">
<defs>
  <clipPath id="clip170">
    <rect x="0" y="0" width="2400" height="1600"/>
  </clipPath>
</defs>
<path clip-path="url(#clip170)" d="M0 1600 L2400 1600 L2400 0 L0 0  Z" fill="#ffffff" fill-rule="evenodd" fill-opacity="1"/>
<defs>
  <clipPath id="clip171">
    <rect x="480" y="0" width="1681" height="1600"/>
  </clipPath>
</defs>
<defs>
  <clipPath id="clip172">
    <rect x="219" y="47" width="2134" height="1377"/>
  </clipPath>
</defs>
<path clip-path="url(#clip170)" d="M219.866 1423.18 L2352.76 1423.18 L2352.76 47.2441 L219.866 47.2441  Z" fill="#ffffff" fill-rule="evenodd" fill-opacity="1"/>
<polyline clip-path="url(#clip172)" style="stroke:#000000; stroke-linecap:round; stroke-linejoin:round; stroke-width:2; stroke-opacity:0.1; fill:none" points="280.231,1423.18 280.231,47.2441 "/>
<polyline clip-path="url(#clip172)" style="stroke:#000000; stroke-linecap:round; stroke-linejoin:round; stroke-width:2; stroke-opacity:0.1; fill:none" points="783.271,1423.18 783.271,47.2441 "/>
<polyline clip-path="url(#clip172)" style="stroke:#000000; stroke-linecap:round; stroke-linejoin:round; stroke-width:2; stroke-opacity:0.1; fill:none" points="1286.31,1423.18 1286.31,47.2441 "/>
<polyline clip-path="url(#clip172)" style="stroke:#000000; stroke-linecap:round; stroke-linejoin:round; stroke-width:2; stroke-opacity:0.1; fill:none" points="1789.35,1423.18 1789.35,47.2441 "/>
<polyline clip-path="url(#clip172)" style="stroke:#000000; stroke-linecap:round; stroke-linejoin:round; stroke-width:2; stroke-opacity:0.1; fill:none" points="2292.39,1423.18 2292.39,47.2441 "/>
<polyline clip-path="url(#clip170)" style="stroke:#000000; stroke-linecap:round; stroke-linejoin:round; stroke-width:4; stroke-opacity:1; fill:none" points="219.866,1423.18 2352.76,1423.18 "/>
<polyline clip-path="url(#clip170)" style="stroke:#000000; stroke-linecap:round; stroke-linejoin:round; stroke-width:4; stroke-opacity:1; fill:none" points="280.231,1423.18 280.231,1404.28 "/>
<polyline clip-path="url(#clip170)" style="stroke:#000000; stroke-linecap:round; stroke-linejoin:round; stroke-width:4; stroke-opacity:1; fill:none" points="783.271,1423.18 783.271,1404.28 "/>
<polyline clip-path="url(#clip170)" style="stroke:#000000; stroke-linecap:round; stroke-linejoin:round; stroke-width:4; stroke-opacity:1; fill:none" points="1286.31,1423.18 1286.31,1404.28 "/>
<polyline clip-path="url(#clip170)" style="stroke:#000000; stroke-linecap:round; stroke-linejoin:round; stroke-width:4; stroke-opacity:1; fill:none" points="1789.35,1423.18 1789.35,1404.28 "/>
<polyline clip-path="url(#clip170)" style="stroke:#000000; stroke-linecap:round; stroke-linejoin:round; stroke-width:4; stroke-opacity:1; fill:none" points="2292.39,1423.18 2292.39,1404.28 "/>
<path clip-path="url(#clip170)" d="M257.615 1454.1 Q254.004 1454.1 252.176 1457.66 Q250.37 1461.2 250.37 1468.33 Q250.37 1475.44 252.176 1479.01 Q254.004 1482.55 257.615 1482.55 Q261.25 1482.55 263.055 1479.01 Q264.884 1475.44 264.884 1468.33 Q264.884 1461.2 263.055 1457.66 Q261.25 1454.1 257.615 1454.1 M257.615 1450.39 Q263.426 1450.39 266.481 1455 Q269.56 1459.58 269.56 1468.33 Q269.56 1477.06 266.481 1481.67 Q263.426 1486.25 257.615 1486.25 Q251.805 1486.25 248.727 1481.67 Q245.671 1477.06 245.671 1468.33 Q245.671 1459.58 248.727 1455 Q251.805 1450.39 257.615 1450.39 Z" fill="#000000" fill-rule="evenodd" fill-opacity="1" /><path clip-path="url(#clip170)" d="M277.777 1479.7 L282.662 1479.7 L282.662 1485.58 L277.777 1485.58 L277.777 1479.7 Z" fill="#000000" fill-rule="evenodd" fill-opacity="1" /><path clip-path="url(#clip170)" d="M302.847 1454.1 Q299.236 1454.1 297.407 1457.66 Q295.601 1461.2 295.601 1468.33 Q295.601 1475.44 297.407 1479.01 Q299.236 1482.55 302.847 1482.55 Q306.481 1482.55 308.286 1479.01 Q310.115 1475.44 310.115 1468.33 Q310.115 1461.2 308.286 1457.66 Q306.481 1454.1 302.847 1454.1 M302.847 1450.39 Q308.657 1450.39 311.712 1455 Q314.791 1459.58 314.791 1468.33 Q314.791 1477.06 311.712 1481.67 Q308.657 1486.25 302.847 1486.25 Q297.037 1486.25 293.958 1481.67 Q290.902 1477.06 290.902 1468.33 Q290.902 1459.58 293.958 1455 Q297.037 1450.39 302.847 1450.39 Z" fill="#000000" fill-rule="evenodd" fill-opacity="1" /><path clip-path="url(#clip170)" d="M761.153 1454.1 Q757.542 1454.1 755.713 1457.66 Q753.908 1461.2 753.908 1468.33 Q753.908 1475.44 755.713 1479.01 Q757.542 1482.55 761.153 1482.55 Q764.787 1482.55 766.593 1479.01 Q768.422 1475.44 768.422 1468.33 Q768.422 1461.2 766.593 1457.66 Q764.787 1454.1 761.153 1454.1 M761.153 1450.39 Q766.963 1450.39 770.019 1455 Q773.098 1459.58 773.098 1468.33 Q773.098 1477.06 770.019 1481.67 Q766.963 1486.25 761.153 1486.25 Q755.343 1486.25 752.264 1481.67 Q749.209 1477.06 749.209 1468.33 Q749.209 1459.58 752.264 1455 Q755.343 1450.39 761.153 1450.39 Z" fill="#000000" fill-rule="evenodd" fill-opacity="1" /><path clip-path="url(#clip170)" d="M781.315 1479.7 L786.199 1479.7 L786.199 1485.58 L781.315 1485.58 L781.315 1479.7 Z" fill="#000000" fill-rule="evenodd" fill-opacity="1" /><path clip-path="url(#clip170)" d="M796.431 1451.02 L814.787 1451.02 L814.787 1454.96 L800.713 1454.96 L800.713 1463.43 Q801.732 1463.08 802.75 1462.92 Q803.769 1462.73 804.787 1462.73 Q810.574 1462.73 813.954 1465.9 Q817.333 1469.08 817.333 1474.49 Q817.333 1480.07 813.861 1483.17 Q810.389 1486.25 804.07 1486.25 Q801.894 1486.25 799.625 1485.88 Q797.38 1485.51 794.972 1484.77 L794.972 1480.07 Q797.056 1481.2 799.278 1481.76 Q801.5 1482.32 803.977 1482.32 Q807.982 1482.32 810.32 1480.21 Q812.657 1478.1 812.657 1474.49 Q812.657 1470.88 810.32 1468.77 Q807.982 1466.67 803.977 1466.67 Q802.102 1466.67 800.227 1467.08 Q798.375 1467.5 796.431 1468.38 L796.431 1451.02 Z" fill="#000000" fill-rule="evenodd" fill-opacity="1" /><path clip-path="url(#clip170)" d="M1253.46 1481.64 L1261.1 1481.64 L1261.1 1455.28 L1252.79 1456.95 L1252.79 1452.69 L1261.06 1451.02 L1265.73 1451.02 L1265.73 1481.64 L1273.37 1481.64 L1273.37 1485.58 L1253.46 1485.58 L1253.46 1481.64 Z" fill="#000000" fill-rule="evenodd" fill-opacity="1" /><path clip-path="url(#clip170)" d="M1282.82 1479.7 L1287.7 1479.7 L1287.7 1485.58 L1282.82 1485.58 L1282.82 1479.7 Z" fill="#000000" fill-rule="evenodd" fill-opacity="1" /><path clip-path="url(#clip170)" d="M1307.89 1454.1 Q1304.27 1454.1 1302.45 1457.66 Q1300.64 1461.2 1300.64 1468.33 Q1300.64 1475.44 1302.45 1479.01 Q1304.27 1482.55 1307.89 1482.55 Q1311.52 1482.55 1313.32 1479.01 Q1315.15 1475.44 1315.15 1468.33 Q1315.15 1461.2 1313.32 1457.66 Q1311.52 1454.1 1307.89 1454.1 M1307.89 1450.39 Q1313.7 1450.39 1316.75 1455 Q1319.83 1459.58 1319.83 1468.33 Q1319.83 1477.06 1316.75 1481.67 Q1313.7 1486.25 1307.89 1486.25 Q1302.07 1486.25 1299 1481.67 Q1295.94 1477.06 1295.94 1468.33 Q1295.94 1459.58 1299 1455 Q1302.07 1450.39 1307.89 1450.39 Z" fill="#000000" fill-rule="evenodd" fill-opacity="1" /><path clip-path="url(#clip170)" d="M1757 1481.64 L1764.64 1481.64 L1764.64 1455.28 L1756.33 1456.95 L1756.33 1452.69 L1764.59 1451.02 L1769.27 1451.02 L1769.27 1481.64 L1776.91 1481.64 L1776.91 1485.58 L1757 1485.58 L1757 1481.64 Z" fill="#000000" fill-rule="evenodd" fill-opacity="1" /><path clip-path="url(#clip170)" d="M1786.35 1479.7 L1791.24 1479.7 L1791.24 1485.58 L1786.35 1485.58 L1786.35 1479.7 Z" fill="#000000" fill-rule="evenodd" fill-opacity="1" /><path clip-path="url(#clip170)" d="M1801.47 1451.02 L1819.83 1451.02 L1819.83 1454.96 L1805.75 1454.96 L1805.75 1463.43 Q1806.77 1463.08 1807.79 1462.92 Q1808.81 1462.73 1809.83 1462.73 Q1815.61 1462.73 1818.99 1465.9 Q1822.37 1469.08 1822.37 1474.49 Q1822.37 1480.07 1818.9 1483.17 Q1815.43 1486.25 1809.11 1486.25 Q1806.93 1486.25 1804.66 1485.88 Q1802.42 1485.51 1800.01 1484.77 L1800.01 1480.07 Q1802.09 1481.2 1804.32 1481.76 Q1806.54 1482.32 1809.02 1482.32 Q1813.02 1482.32 1815.36 1480.21 Q1817.7 1478.1 1817.7 1474.49 Q1817.7 1470.88 1815.36 1468.77 Q1813.02 1466.67 1809.02 1466.67 Q1807.14 1466.67 1805.27 1467.08 Q1803.41 1467.5 1801.47 1468.38 L1801.47 1451.02 Z" fill="#000000" fill-rule="evenodd" fill-opacity="1" /><path clip-path="url(#clip170)" d="M2263.63 1481.64 L2279.95 1481.64 L2279.95 1485.58 L2258 1485.58 L2258 1481.64 Q2260.67 1478.89 2265.25 1474.26 Q2269.86 1469.61 2271.04 1468.27 Q2273.28 1465.74 2274.16 1464.01 Q2275.06 1462.25 2275.06 1460.56 Q2275.06 1457.8 2273.12 1456.07 Q2271.2 1454.33 2268.1 1454.33 Q2265.9 1454.33 2263.44 1455.09 Q2261.01 1455.86 2258.24 1457.41 L2258.24 1452.69 Q2261.06 1451.55 2263.51 1450.97 Q2265.97 1450.39 2268 1450.39 Q2273.38 1450.39 2276.57 1453.08 Q2279.76 1455.77 2279.76 1460.26 Q2279.76 1462.39 2278.95 1464.31 Q2278.17 1466.2 2276.06 1468.8 Q2275.48 1469.47 2272.38 1472.69 Q2269.28 1475.88 2263.63 1481.64 Z" fill="#000000" fill-rule="evenodd" fill-opacity="1" /><path clip-path="url(#clip170)" d="M2289.76 1479.7 L2294.65 1479.7 L2294.65 1485.58 L2289.76 1485.58 L2289.76 1479.7 Z" fill="#000000" fill-rule="evenodd" fill-opacity="1" /><path clip-path="url(#clip170)" d="M2314.83 1454.1 Q2311.22 1454.1 2309.39 1457.66 Q2307.59 1461.2 2307.59 1468.33 Q2307.59 1475.44 2309.39 1479.01 Q2311.22 1482.55 2314.83 1482.55 Q2318.47 1482.55 2320.27 1479.01 Q2322.1 1475.44 2322.1 1468.33 Q2322.1 1461.2 2320.27 1457.66 Q2318.47 1454.1 2314.83 1454.1 M2314.83 1450.39 Q2320.64 1450.39 2323.7 1455 Q2326.78 1459.58 2326.78 1468.33 Q2326.78 1477.06 2323.7 1481.67 Q2320.64 1486.25 2314.83 1486.25 Q2309.02 1486.25 2305.94 1481.67 Q2302.89 1477.06 2302.89 1468.33 Q2302.89 1459.58 2305.94 1455 Q2309.02 1450.39 2314.83 1450.39 Z" fill="#000000" fill-rule="evenodd" fill-opacity="1" /><path clip-path="url(#clip170)" d="M1291.52 1551.46 L1290.11 1544.11 Q1288.68 1536.57 1283.02 1536.57 Q1278.75 1536.57 1276.81 1540.07 Q1274.36 1544.46 1274.36 1550.25 Q1274.36 1557.25 1276.75 1560.6 Q1279.17 1564 1283.02 1564 Q1287.28 1564 1289.57 1557.22 L1291.52 1551.46 M1294.79 1541.72 L1297.94 1532.4 L1303.16 1532.4 L1296.64 1551.72 L1297.91 1558.69 Q1298.2 1560.25 1299.31 1561.55 Q1300.62 1563.08 1301.64 1563.08 L1304.44 1563.08 L1304.44 1568.04 L1300.94 1568.04 Q1297.94 1568.04 1295.27 1565.37 Q1293.97 1564.03 1293.42 1561.23 Q1291.96 1564.77 1288.97 1567.53 Q1287.57 1568.84 1283.02 1568.84 Q1275.54 1568.84 1271.91 1564 Q1268.18 1559 1268.18 1550.25 Q1268.18 1540.89 1272.23 1536.5 Q1276.71 1531.6 1283.02 1531.6 Q1292.92 1531.6 1294.79 1541.72 Z" fill="#000000" fill-rule="evenodd" fill-opacity="1" /><polyline clip-path="url(#clip172)" style="stroke:#000000; stroke-linecap:round; stroke-linejoin:round; stroke-width:2; stroke-opacity:0.1; fill:none" points="219.866,1247.22 2352.76,1247.22 "/>
<polyline clip-path="url(#clip172)" style="stroke:#000000; stroke-linecap:round; stroke-linejoin:round; stroke-width:2; stroke-opacity:0.1; fill:none" points="219.866,956.883 2352.76,956.883 "/>
<polyline clip-path="url(#clip172)" style="stroke:#000000; stroke-linecap:round; stroke-linejoin:round; stroke-width:2; stroke-opacity:0.1; fill:none" points="219.866,666.551 2352.76,666.551 "/>
<polyline clip-path="url(#clip172)" style="stroke:#000000; stroke-linecap:round; stroke-linejoin:round; stroke-width:2; stroke-opacity:0.1; fill:none" points="219.866,376.218 2352.76,376.218 "/>
<polyline clip-path="url(#clip172)" style="stroke:#000000; stroke-linecap:round; stroke-linejoin:round; stroke-width:2; stroke-opacity:0.1; fill:none" points="219.866,85.8857 2352.76,85.8857 "/>
<polyline clip-path="url(#clip170)" style="stroke:#000000; stroke-linecap:round; stroke-linejoin:round; stroke-width:4; stroke-opacity:1; fill:none" points="219.866,1423.18 219.866,47.2441 "/>
<polyline clip-path="url(#clip170)" style="stroke:#000000; stroke-linecap:round; stroke-linejoin:round; stroke-width:4; stroke-opacity:1; fill:none" points="219.866,1247.22 238.764,1247.22 "/>
<polyline clip-path="url(#clip170)" style="stroke:#000000; stroke-linecap:round; stroke-linejoin:round; stroke-width:4; stroke-opacity:1; fill:none" points="219.866,956.883 238.764,956.883 "/>
<polyline clip-path="url(#clip170)" style="stroke:#000000; stroke-linecap:round; stroke-linejoin:round; stroke-width:4; stroke-opacity:1; fill:none" points="219.866,666.551 238.764,666.551 "/>
<polyline clip-path="url(#clip170)" style="stroke:#000000; stroke-linecap:round; stroke-linejoin:round; stroke-width:4; stroke-opacity:1; fill:none" points="219.866,376.218 238.764,376.218 "/>
<polyline clip-path="url(#clip170)" style="stroke:#000000; stroke-linecap:round; stroke-linejoin:round; stroke-width:4; stroke-opacity:1; fill:none" points="219.866,85.8857 238.764,85.8857 "/>
<path clip-path="url(#clip170)" d="M128.288 1233.01 Q124.677 1233.01 122.848 1236.58 Q121.043 1240.12 121.043 1247.25 Q121.043 1254.36 122.848 1257.92 Q124.677 1261.46 128.288 1261.46 Q131.922 1261.46 133.728 1257.92 Q135.556 1254.36 135.556 1247.25 Q135.556 1240.12 133.728 1236.58 Q131.922 1233.01 128.288 1233.01 M128.288 1229.31 Q134.098 1229.31 137.154 1233.92 Q140.232 1238.5 140.232 1247.25 Q140.232 1255.98 137.154 1260.58 Q134.098 1265.17 128.288 1265.17 Q122.478 1265.17 119.399 1260.58 Q116.343 1255.98 116.343 1247.25 Q116.343 1238.5 119.399 1233.92 Q122.478 1229.31 128.288 1229.31 Z" fill="#000000" fill-rule="evenodd" fill-opacity="1" /><path clip-path="url(#clip170)" d="M148.45 1258.62 L153.334 1258.62 L153.334 1264.5 L148.45 1264.5 L148.45 1258.62 Z" fill="#000000" fill-rule="evenodd" fill-opacity="1" /><path clip-path="url(#clip170)" d="M167.547 1260.56 L183.866 1260.56 L183.866 1264.5 L161.922 1264.5 L161.922 1260.56 Q164.584 1257.81 169.167 1253.18 Q173.774 1248.52 174.954 1247.18 Q177.2 1244.66 178.079 1242.92 Q178.982 1241.16 178.982 1239.47 Q178.982 1236.72 177.038 1234.98 Q175.116 1233.25 172.014 1233.25 Q169.815 1233.25 167.362 1234.01 Q164.931 1234.77 162.153 1236.32 L162.153 1231.6 Q164.977 1230.47 167.431 1229.89 Q169.885 1229.31 171.922 1229.31 Q177.292 1229.31 180.487 1232 Q183.681 1234.68 183.681 1239.17 Q183.681 1241.3 182.871 1243.22 Q182.084 1245.12 179.977 1247.71 Q179.399 1248.38 176.297 1251.6 Q173.195 1254.8 167.547 1260.56 Z" fill="#000000" fill-rule="evenodd" fill-opacity="1" /><path clip-path="url(#clip170)" d="M126.205 942.682 Q122.593 942.682 120.765 946.247 Q118.959 949.788 118.959 956.918 Q118.959 964.025 120.765 967.589 Q122.593 971.131 126.205 971.131 Q129.839 971.131 131.644 967.589 Q133.473 964.025 133.473 956.918 Q133.473 949.788 131.644 946.247 Q129.839 942.682 126.205 942.682 M126.205 938.978 Q132.015 938.978 135.07 943.585 Q138.149 948.168 138.149 956.918 Q138.149 965.645 135.07 970.251 Q132.015 974.835 126.205 974.835 Q120.394 974.835 117.316 970.251 Q114.26 965.645 114.26 956.918 Q114.26 948.168 117.316 943.585 Q120.394 938.978 126.205 938.978 Z" fill="#000000" fill-rule="evenodd" fill-opacity="1" /><path clip-path="url(#clip170)" d="M146.366 968.284 L151.251 968.284 L151.251 974.163 L146.366 974.163 L146.366 968.284 Z" fill="#000000" fill-rule="evenodd" fill-opacity="1" /><path clip-path="url(#clip170)" d="M174.283 943.677 L162.477 962.126 L174.283 962.126 L174.283 943.677 M173.056 939.603 L178.936 939.603 L178.936 962.126 L183.866 962.126 L183.866 966.015 L178.936 966.015 L178.936 974.163 L174.283 974.163 L174.283 966.015 L158.681 966.015 L158.681 961.501 L173.056 939.603 Z" fill="#000000" fill-rule="evenodd" fill-opacity="1" /><path clip-path="url(#clip170)" d="M126.529 652.35 Q122.918 652.35 121.089 655.914 Q119.283 659.456 119.283 666.586 Q119.283 673.692 121.089 677.257 Q122.918 680.798 126.529 680.798 Q130.163 680.798 131.968 677.257 Q133.797 673.692 133.797 666.586 Q133.797 659.456 131.968 655.914 Q130.163 652.35 126.529 652.35 M126.529 648.646 Q132.339 648.646 135.394 653.252 Q138.473 657.836 138.473 666.586 Q138.473 675.312 135.394 679.919 Q132.339 684.502 126.529 684.502 Q120.718 684.502 117.64 679.919 Q114.584 675.312 114.584 666.586 Q114.584 657.836 117.64 653.252 Q120.718 648.646 126.529 648.646 Z" fill="#000000" fill-rule="evenodd" fill-opacity="1" /><path clip-path="url(#clip170)" d="M146.691 677.951 L151.575 677.951 L151.575 683.831 L146.691 683.831 L146.691 677.951 Z" fill="#000000" fill-rule="evenodd" fill-opacity="1" /><path clip-path="url(#clip170)" d="M172.339 664.687 Q169.19 664.687 167.339 666.84 Q165.51 668.993 165.51 672.743 Q165.51 676.47 167.339 678.646 Q169.19 680.798 172.339 680.798 Q175.487 680.798 177.315 678.646 Q179.167 676.47 179.167 672.743 Q179.167 668.993 177.315 666.84 Q175.487 664.687 172.339 664.687 M181.621 650.035 L181.621 654.294 Q179.862 653.461 178.056 653.021 Q176.274 652.581 174.514 652.581 Q169.885 652.581 167.431 655.706 Q165.001 658.831 164.653 665.15 Q166.019 663.136 168.079 662.072 Q170.139 660.984 172.616 660.984 Q177.825 660.984 180.834 664.155 Q183.866 667.303 183.866 672.743 Q183.866 678.067 180.718 681.285 Q177.57 684.502 172.339 684.502 Q166.343 684.502 163.172 679.919 Q160.001 675.312 160.001 666.586 Q160.001 658.391 163.89 653.53 Q167.778 648.646 174.329 648.646 Q176.089 648.646 177.871 648.993 Q179.676 649.34 181.621 650.035 Z" fill="#000000" fill-rule="evenodd" fill-opacity="1" /><path clip-path="url(#clip170)" d="M126.783 362.017 Q123.172 362.017 121.343 365.582 Q119.538 369.123 119.538 376.253 Q119.538 383.359 121.343 386.924 Q123.172 390.466 126.783 390.466 Q130.417 390.466 132.223 386.924 Q134.052 383.359 134.052 376.253 Q134.052 369.123 132.223 365.582 Q130.417 362.017 126.783 362.017 M126.783 358.313 Q132.593 358.313 135.649 362.92 Q138.728 367.503 138.728 376.253 Q138.728 384.98 135.649 389.586 Q132.593 394.17 126.783 394.17 Q120.973 394.17 117.894 389.586 Q114.839 384.98 114.839 376.253 Q114.839 367.503 117.894 362.92 Q120.973 358.313 126.783 358.313 Z" fill="#000000" fill-rule="evenodd" fill-opacity="1" /><path clip-path="url(#clip170)" d="M146.945 387.619 L151.829 387.619 L151.829 393.498 L146.945 393.498 L146.945 387.619 Z" fill="#000000" fill-rule="evenodd" fill-opacity="1" /><path clip-path="url(#clip170)" d="M172.014 377.086 Q168.681 377.086 166.76 378.869 Q164.862 380.651 164.862 383.776 Q164.862 386.901 166.76 388.683 Q168.681 390.466 172.014 390.466 Q175.348 390.466 177.269 388.683 Q179.19 386.878 179.19 383.776 Q179.19 380.651 177.269 378.869 Q175.371 377.086 172.014 377.086 M167.339 375.096 Q164.329 374.355 162.64 372.295 Q160.973 370.235 160.973 367.272 Q160.973 363.128 163.913 360.721 Q166.876 358.313 172.014 358.313 Q177.176 358.313 180.116 360.721 Q183.056 363.128 183.056 367.272 Q183.056 370.235 181.366 372.295 Q179.7 374.355 176.714 375.096 Q180.093 375.883 181.968 378.174 Q183.866 380.466 183.866 383.776 Q183.866 388.799 180.788 391.484 Q177.732 394.17 172.014 394.17 Q166.297 394.17 163.218 391.484 Q160.163 388.799 160.163 383.776 Q160.163 380.466 162.061 378.174 Q163.959 375.883 167.339 375.096 M165.626 367.711 Q165.626 370.397 167.292 371.901 Q168.982 373.406 172.014 373.406 Q175.024 373.406 176.714 371.901 Q178.426 370.397 178.426 367.711 Q178.426 365.026 176.714 363.522 Q175.024 362.017 172.014 362.017 Q168.982 362.017 167.292 363.522 Q165.626 365.026 165.626 367.711 Z" fill="#000000" fill-rule="evenodd" fill-opacity="1" /><path clip-path="url(#clip170)" d="M117.501 99.2306 L125.14 99.2306 L125.14 72.865 L116.83 74.5316 L116.83 70.2724 L125.093 68.6057 L129.769 68.6057 L129.769 99.2306 L137.408 99.2306 L137.408 103.166 L117.501 103.166 L117.501 99.2306 Z" fill="#000000" fill-rule="evenodd" fill-opacity="1" /><path clip-path="url(#clip170)" d="M146.853 97.2861 L151.737 97.2861 L151.737 103.166 L146.853 103.166 L146.853 97.2861 Z" fill="#000000" fill-rule="evenodd" fill-opacity="1" /><path clip-path="url(#clip170)" d="M171.922 71.6844 Q168.311 71.6844 166.482 75.2492 Q164.677 78.7909 164.677 85.9205 Q164.677 93.0269 166.482 96.5917 Q168.311 100.133 171.922 100.133 Q175.556 100.133 177.362 96.5917 Q179.19 93.0269 179.19 85.9205 Q179.19 78.7909 177.362 75.2492 Q175.556 71.6844 171.922 71.6844 M171.922 67.9807 Q177.732 67.9807 180.788 72.5872 Q183.866 77.1705 183.866 85.9205 Q183.866 94.6473 180.788 99.2537 Q177.732 103.837 171.922 103.837 Q166.112 103.837 163.033 99.2537 Q159.978 94.6473 159.978 85.9205 Q159.978 77.1705 163.033 72.5872 Q166.112 67.9807 171.922 67.9807 Z" fill="#000000" fill-rule="evenodd" fill-opacity="1" /><path clip-path="url(#clip170)" d="M81.2531 824.183 Q81.8006 824.183 82.187 824.57 Q82.5735 824.956 82.5735 825.504 Q82.5735 826.438 81.7039 826.76 L50.0456 839.03 Q49.9168 839.095 49.5947 839.095 Q49.2726 839.095 49.1438 839.03 L17.4855 826.76 Q16.6159 826.438 16.6159 825.504 Q16.6159 824.956 17.0024 824.57 Q17.3888 824.183 17.9363 824.183 Q18.2584 824.183 18.3872 824.248 L49.5947 836.389 L80.8022 824.248 Q80.931 824.183 81.2531 824.183 Z" fill="#000000" fill-rule="evenodd" fill-opacity="1" /><path clip-path="url(#clip170)" d="M56.6478 759.662 Q56.9054 759.662 57.9038 759.952 Q58.9022 760.242 60.4481 760.95 Q61.994 761.627 63.411 762.593 Q64.7959 763.527 65.8264 765.073 Q66.8248 766.586 66.8248 768.325 Q66.8248 770.644 65.2789 772.19 Q63.7331 773.736 61.4142 773.736 Q60.1582 773.736 57.775 772.866 Q46.8894 768.776 42.9925 768.776 Q38.3871 768.776 38.3871 772.351 Q38.3871 774.38 39.2244 776.216 Q40.0618 778.052 41.2212 779.243 Q42.3806 780.435 43.701 781.369 Q45.0215 782.303 45.891 782.721 Q46.7606 783.108 47.147 783.204 L63.0567 787.166 Q64.4094 787.488 65.0535 787.713 Q65.6976 787.939 66.2451 788.551 Q66.8248 789.163 66.8248 790.129 Q66.8248 790.934 66.3417 791.514 Q65.8587 792.061 65.0213 792.061 Q64.8925 792.061 64.2162 791.9 Q63.5398 791.739 62.6059 791.514 Q61.6719 791.288 61.1244 791.192 Q56.7444 790.032 56.1325 789.871 L48.4675 788.035 Q44.6672 787.037 42.9925 787.037 Q38.3871 787.037 38.3871 790.612 Q38.3871 792.383 39.0634 794.058 Q39.7075 795.7 40.6093 796.828 Q41.511 797.955 42.7671 798.985 Q43.9909 799.984 44.8282 800.499 Q45.6334 800.982 46.4385 801.369 L49.7235 802.206 Q50.6253 802.399 54.1357 803.333 L60.0938 804.782 Q64.5382 805.813 64.9569 806.038 Q65.8587 806.36 66.3417 807.069 Q66.8248 807.778 66.8248 808.486 Q66.8248 809.291 66.3417 809.839 Q65.8587 810.386 65.0213 810.386 Q64.8925 810.386 64.4094 810.29 Q63.9263 810.193 63.25 810.032 Q62.5737 809.871 62.1872 809.807 L46.9538 805.974 Q44.1841 805.265 43.3146 805.104 Q42.4128 804.911 41.4144 804.911 Q38.3871 804.911 38.3871 806.972 Q38.3871 808.647 40.3838 809.742 Q42.3806 810.837 46.2453 811.771 Q47.3081 812.061 47.5335 812.254 Q47.759 812.415 47.759 812.898 Q47.7268 813.703 47.0826 813.703 Q46.9216 813.703 45.891 813.446 Q44.8604 813.188 43.3146 812.705 Q41.7365 812.19 40.7059 811.642 Q40.0296 811.32 39.5787 811.03 Q39.1278 810.74 38.4193 810.161 Q37.7107 809.581 37.3243 808.712 Q36.9378 807.842 36.9378 806.779 Q36.9378 804.428 38.4515 802.689 Q39.9651 800.918 42.6704 800.692 Q36.9378 796.409 36.9378 790.419 Q36.9378 787.037 38.6447 785.008 Q40.2872 783.108 43.3146 782.882 Q36.9378 778.438 36.9378 772.126 Q36.9378 768.486 38.8379 766.522 Q40.7059 764.557 43.9909 764.557 Q45.6978 764.557 48.9506 765.427 Q52.1712 766.296 53.7815 766.876 Q55.3917 767.456 58.4835 768.583 Q61.4465 769.775 63.1856 769.775 Q64.3128 769.775 64.8281 769.388 Q65.3434 769.002 65.3434 768.164 Q65.3434 766.876 64.6026 765.749 Q63.8297 764.622 62.5737 763.817 Q61.2854 762.979 59.9972 762.432 Q58.6767 761.884 57.1953 761.466 Q56.3901 761.208 56.1969 761.079 Q56.0037 760.918 56.0037 760.467 Q56.0037 759.662 56.6478 759.662 Z" fill="#000000" fill-rule="evenodd" fill-opacity="1" /><path clip-path="url(#clip170)" d="M49.5947 751.598 Q38.4515 751.598 29.466 747.443 Q25.6979 745.672 22.5418 743.192 Q19.3856 740.712 18.0007 739.07 Q16.6159 737.427 16.6159 736.976 Q16.6159 736.332 17.26 736.3 Q17.5821 736.3 18.3872 737.17 Q29.2084 747.798 49.5947 747.765 Q70.0454 747.765 80.4479 737.427 Q81.5751 736.3 81.9294 736.3 Q82.5735 736.3 82.5735 736.976 Q82.5735 737.427 81.2531 739.005 Q79.9326 740.584 76.9053 743.031 Q73.8779 745.479 70.1742 747.25 Q61.1888 751.598 49.5947 751.598 Z" fill="#000000" fill-rule="evenodd" fill-opacity="1" /><path clip-path="url(#clip170)" d="M22.1553 686.424 Q22.7672 686.424 23.2825 686.553 L34.7478 688.356 Q35.6174 688.453 35.9394 688.646 Q36.2615 688.807 36.2615 689.322 Q36.2615 690.127 35.4241 690.127 Q34.941 690.127 34.1681 689.934 Q30.5288 689.387 28.8863 689.387 Q27.7913 689.387 26.9862 689.612 Q26.1488 689.805 25.5691 690.127 Q24.9894 690.417 24.6029 691.094 Q24.2165 691.77 23.991 692.414 Q23.7656 693.058 23.669 694.218 Q23.5402 695.377 23.5079 696.375 Q23.4757 697.374 23.4757 699.016 Q23.4757 702.591 23.6046 703.171 Q23.7656 703.783 24.2487 704.105 Q24.6996 704.395 26.0522 704.717 L61.06 713.477 L62.4448 713.734 Q63.2178 713.734 63.4754 713.251 Q63.7331 712.768 63.8941 711.287 Q64.0551 709.161 64.0551 707.068 Q64.0551 707.003 64.0551 706.874 Q64.0551 706.166 64.0873 705.876 Q64.0873 705.586 64.1517 705.296 Q64.2162 705.007 64.3772 704.942 Q64.506 704.846 64.7637 704.846 Q65.3756 704.846 65.6976 705.103 Q65.9875 705.361 66.0519 705.618 Q66.0841 705.844 66.0841 706.295 Q66.0841 707.197 66.0197 709.129 Q65.9553 711.061 65.9553 712.027 L65.8909 717.502 L65.9553 723.106 Q65.9553 723.976 66.0197 725.812 Q66.0841 727.647 66.0841 728.517 Q66.0841 729.644 65.2789 729.644 Q64.3772 729.644 64.2162 729.225 Q64.0551 728.774 64.0551 726.874 Q64.0551 724.201 63.9263 722.752 Q63.7975 721.303 63.3466 720.53 Q62.8957 719.725 62.4448 719.499 Q61.9617 719.274 60.8667 719.016 L25.6657 710.159 Q24.8928 709.902 24.2809 709.902 Q23.9588 709.902 23.83 709.998 Q23.7012 710.063 23.6046 710.482 Q23.4757 710.9 23.4757 711.77 L23.4757 714.346 Q23.4757 716.987 23.6046 718.63 Q23.7012 720.24 24.1843 721.786 Q24.6674 723.299 25.3437 724.201 Q26.02 725.071 27.4049 726.037 Q28.7897 727.003 30.4644 727.712 Q32.1391 728.388 34.8766 729.354 Q35.7784 729.676 36.036 729.869 Q36.2615 730.03 36.2615 730.481 Q36.2615 730.803 36.0682 731.061 Q35.8428 731.287 35.5529 731.287 Q34.4901 730.964 34.3613 730.9 L22.735 726.939 Q21.801 726.617 21.64 726.327 Q21.4468 726.005 21.4468 724.813 L21.4468 688.227 Q21.4468 687.648 21.4468 687.454 Q21.4468 687.261 21.5112 686.939 Q21.5756 686.617 21.7366 686.52 Q21.8977 686.424 22.1553 686.424 Z" fill="#000000" fill-rule="evenodd" fill-opacity="1" /><path clip-path="url(#clip170)" d="M81.9294 682.048 Q81.6073 682.048 80.8022 681.211 Q69.981 670.583 49.5947 670.583 Q29.144 670.583 18.8059 680.792 Q17.6143 682.048 17.26 682.048 Q16.6159 682.048 16.6159 681.404 Q16.6159 680.953 17.9363 679.375 Q19.2568 677.765 22.2841 675.349 Q25.3115 672.901 29.0151 671.098 Q38.0006 666.75 49.5947 666.75 Q60.7379 666.75 69.7234 670.905 Q73.4914 672.676 76.6476 675.156 Q79.8038 677.636 81.1886 679.278 Q82.5735 680.921 82.5735 681.404 Q82.5735 682.048 81.9294 682.048 Z" fill="#000000" fill-rule="evenodd" fill-opacity="1" /><path clip-path="url(#clip170)" d="M49.1438 641.906 Q49.2726 641.841 49.5947 641.841 Q49.9168 641.841 50.0456 641.906 L81.7039 654.176 Q82.5735 654.498 82.5735 655.4 Q82.5735 655.948 82.187 656.334 Q81.8006 656.721 81.2531 656.721 Q80.931 656.721 80.8022 656.656 L49.5947 644.547 L18.3872 656.656 Q18.2584 656.721 17.9363 656.721 Q17.3888 656.721 17.0024 656.334 Q16.6159 655.948 16.6159 655.4 Q16.6159 654.498 17.4855 654.176 L49.1438 641.906 Z" fill="#000000" fill-rule="evenodd" fill-opacity="1" /><polyline clip-path="url(#clip172)" style="stroke:#009af9; stroke-linecap:round; stroke-linejoin:round; stroke-width:4; stroke-opacity:1; fill:none" points="280.231,86.1857 503.804,90.0364 727.378,162.101 950.951,239.667 1174.52,300.547 1398.1,401.306 1621.67,668.383 1845.24,1013.68 2068.82,1257.18 2292.39,1384.24 "/>
</svg>
