<?xml version="1.0" encoding="utf-8"?>
<svg xmlns="http://www.w3.org/2000/svg" xmlns:xlink="http://www.w3.org/1999/xlink" width="600" height="400" viewBox="0 0 2400 1600">
<defs>
  <clipPath id="clip090">
    <rect x="0" y="0" width="2400" height="1600"/>
  </clipPath>
</defs>
<path clip-path="url(#clip090)" d="M0 1600 L2400 1600 L2400 0 L0 0  Z" fill="#ffffff" fill-rule="evenodd" fill-opacity="1"/>
<defs>
  <clipPath id="clip091">
    <rect x="480" y="0" width="1681" height="1600"/>
  </clipPath>
</defs>
<path clip-path="url(#clip090)" d="M186.274 1486.45 L2352.76 1486.45 L2352.76 47.2441 L186.274 47.2441  Z" fill="#ffffff" fill-rule="evenodd" fill-opacity="1"/>
<defs>
  <clipPath id="clip092">
    <rect x="186" y="47" width="2167" height="1440"/>
  </clipPath>
</defs>
<polyline clip-path="url(#clip092)" style="stroke:#000000; stroke-linecap:round; stroke-linejoin:round; stroke-width:2; stroke-opacity:0.1; fill:none" points="523.863,1486.45 523.863,47.2441 "/>
<polyline clip-path="url(#clip092)" style="stroke:#000000; stroke-linecap:round; stroke-linejoin:round; stroke-width:2; stroke-opacity:0.1; fill:none" points="995.711,1486.45 995.711,47.2441 "/>
<polyline clip-path="url(#clip092)" style="stroke:#000000; stroke-linecap:round; stroke-linejoin:round; stroke-width:2; stroke-opacity:0.1; fill:none" points="1467.56,1486.45 1467.56,47.2441 "/>
<polyline clip-path="url(#clip092)" style="stroke:#000000; stroke-linecap:round; stroke-linejoin:round; stroke-width:2; stroke-opacity:0.1; fill:none" points="1939.41,1486.45 1939.41,47.2441 "/>
<polyline clip-path="url(#clip090)" style="stroke:#000000; stroke-linecap:round; stroke-linejoin:round; stroke-width:4; stroke-opacity:1; fill:none" points="186.274,1486.45 2352.76,1486.45 "/>
<polyline clip-path="url(#clip090)" style="stroke:#000000; stroke-linecap:round; stroke-linejoin:round; stroke-width:4; stroke-opacity:1; fill:none" points="523.863,1486.45 523.863,1467.55 "/>
<polyline clip-path="url(#clip090)" style="stroke:#000000; stroke-linecap:round; stroke-linejoin:round; stroke-width:4; stroke-opacity:1; fill:none" points="995.711,1486.45 995.711,1467.55 "/>
<polyline clip-path="url(#clip090)" style="stroke:#000000; stroke-linecap:round; stroke-linejoin:round; stroke-width:4; stroke-opacity:1; fill:none" points="1467.56,1486.45 1467.56,1467.55 "/>
<polyline clip-path="url(#clip090)" style="stroke:#000000; stroke-linecap:round; stroke-linejoin:round; stroke-width:4; stroke-opacity:1; fill:none" points="1939.41,1486.45 1939.41,1467.55 "/>
<path clip-path="url(#clip090)" d="M453.308 1544.91 L460.947 1544.91 L460.947 1518.55 L452.637 1520.21 L452.637 1515.95 L460.901 1514.29 L465.576 1514.29 L465.576 1544.91 L473.215 1544.91 L473.215 1548.85 L453.308 1548.85 L453.308 1544.91 Z" fill="#000000" fill-rule="evenodd" fill-opacity="1" /><path clip-path="url(#clip090)" d="M486.687 1544.91 L503.007 1544.91 L503.007 1548.85 L481.062 1548.85 L481.062 1544.91 Q483.724 1542.16 488.308 1537.53 Q492.914 1532.88 494.095 1531.53 Q496.34 1529.01 497.22 1527.27 Q498.123 1525.51 498.123 1523.82 Q498.123 1521.07 496.178 1519.33 Q494.257 1517.6 491.155 1517.6 Q488.956 1517.6 486.502 1518.36 Q484.072 1519.13 481.294 1520.68 L481.294 1515.95 Q484.118 1514.82 486.572 1514.24 Q489.025 1513.66 491.062 1513.66 Q496.433 1513.66 499.627 1516.35 Q502.822 1519.03 502.822 1523.52 Q502.822 1525.65 502.011 1527.57 Q501.224 1529.47 499.118 1532.07 Q498.539 1532.74 495.437 1535.95 Q492.336 1539.15 486.687 1544.91 Z" fill="#000000" fill-rule="evenodd" fill-opacity="1" /><path clip-path="url(#clip090)" d="M522.821 1517.37 Q519.21 1517.37 517.382 1520.93 Q515.576 1524.47 515.576 1531.6 Q515.576 1538.71 517.382 1542.27 Q519.21 1545.82 522.821 1545.82 Q526.456 1545.82 528.261 1542.27 Q530.09 1538.71 530.09 1531.6 Q530.09 1524.47 528.261 1520.93 Q526.456 1517.37 522.821 1517.37 M522.821 1513.66 Q528.632 1513.66 531.687 1518.27 Q534.766 1522.85 534.766 1531.6 Q534.766 1540.33 531.687 1544.94 Q528.632 1549.52 522.821 1549.52 Q517.011 1549.52 513.933 1544.94 Q510.877 1540.33 510.877 1531.6 Q510.877 1522.85 513.933 1518.27 Q517.011 1513.66 522.821 1513.66 Z" fill="#000000" fill-rule="evenodd" fill-opacity="1" /><path clip-path="url(#clip090)" d="M552.983 1517.37 Q549.372 1517.37 547.544 1520.93 Q545.738 1524.47 545.738 1531.6 Q545.738 1538.71 547.544 1542.27 Q549.372 1545.82 552.983 1545.82 Q556.618 1545.82 558.423 1542.27 Q560.252 1538.71 560.252 1531.6 Q560.252 1524.47 558.423 1520.93 Q556.618 1517.37 552.983 1517.37 M552.983 1513.66 Q558.794 1513.66 561.849 1518.27 Q564.928 1522.85 564.928 1531.6 Q564.928 1540.33 561.849 1544.94 Q558.794 1549.52 552.983 1549.52 Q547.173 1549.52 544.095 1544.94 Q541.039 1540.33 541.039 1531.6 Q541.039 1522.85 544.095 1518.27 Q547.173 1513.66 552.983 1513.66 Z" fill="#000000" fill-rule="evenodd" fill-opacity="1" /><path clip-path="url(#clip090)" d="M583.145 1517.37 Q579.534 1517.37 577.705 1520.93 Q575.9 1524.47 575.9 1531.6 Q575.9 1538.71 577.705 1542.27 Q579.534 1545.82 583.145 1545.82 Q586.779 1545.82 588.585 1542.27 Q590.414 1538.71 590.414 1531.6 Q590.414 1524.47 588.585 1520.93 Q586.779 1517.37 583.145 1517.37 M583.145 1513.66 Q588.955 1513.66 592.011 1518.27 Q595.09 1522.85 595.09 1531.6 Q595.09 1540.33 592.011 1544.94 Q588.955 1549.52 583.145 1549.52 Q577.335 1549.52 574.256 1544.94 Q571.201 1540.33 571.201 1531.6 Q571.201 1522.85 574.256 1518.27 Q577.335 1513.66 583.145 1513.66 Z" fill="#000000" fill-rule="evenodd" fill-opacity="1" /><path clip-path="url(#clip090)" d="M925.156 1544.91 L932.795 1544.91 L932.795 1518.55 L924.485 1520.21 L924.485 1515.95 L932.748 1514.29 L937.424 1514.29 L937.424 1544.91 L945.063 1544.91 L945.063 1548.85 L925.156 1548.85 L925.156 1544.91 Z" fill="#000000" fill-rule="evenodd" fill-opacity="1" /><path clip-path="url(#clip090)" d="M967.355 1518.36 L955.549 1536.81 L967.355 1536.81 L967.355 1518.36 M966.128 1514.29 L972.007 1514.29 L972.007 1536.81 L976.938 1536.81 L976.938 1540.7 L972.007 1540.7 L972.007 1548.85 L967.355 1548.85 L967.355 1540.7 L951.753 1540.7 L951.753 1536.19 L966.128 1514.29 Z" fill="#000000" fill-rule="evenodd" fill-opacity="1" /><path clip-path="url(#clip090)" d="M994.669 1517.37 Q991.058 1517.37 989.23 1520.93 Q987.424 1524.47 987.424 1531.6 Q987.424 1538.71 989.23 1542.27 Q991.058 1545.82 994.669 1545.82 Q998.304 1545.82 1000.11 1542.27 Q1001.94 1538.71 1001.94 1531.6 Q1001.94 1524.47 1000.11 1520.93 Q998.304 1517.37 994.669 1517.37 M994.669 1513.66 Q1000.48 1513.66 1003.54 1518.27 Q1006.61 1522.85 1006.61 1531.6 Q1006.61 1540.33 1003.54 1544.94 Q1000.48 1549.52 994.669 1549.52 Q988.859 1549.52 985.781 1544.94 Q982.725 1540.33 982.725 1531.6 Q982.725 1522.85 985.781 1518.27 Q988.859 1513.66 994.669 1513.66 Z" fill="#000000" fill-rule="evenodd" fill-opacity="1" /><path clip-path="url(#clip090)" d="M1024.83 1517.37 Q1021.22 1517.37 1019.39 1520.93 Q1017.59 1524.47 1017.59 1531.6 Q1017.59 1538.71 1019.39 1542.27 Q1021.22 1545.82 1024.83 1545.82 Q1028.47 1545.82 1030.27 1542.27 Q1032.1 1538.71 1032.1 1531.6 Q1032.1 1524.47 1030.27 1520.93 Q1028.47 1517.37 1024.83 1517.37 M1024.83 1513.66 Q1030.64 1513.66 1033.7 1518.27 Q1036.78 1522.85 1036.78 1531.6 Q1036.78 1540.33 1033.7 1544.94 Q1030.64 1549.52 1024.83 1549.52 Q1019.02 1549.52 1015.94 1544.94 Q1012.89 1540.33 1012.89 1531.6 Q1012.89 1522.85 1015.94 1518.27 Q1019.02 1513.66 1024.83 1513.66 Z" fill="#000000" fill-rule="evenodd" fill-opacity="1" /><path clip-path="url(#clip090)" d="M1054.99 1517.37 Q1051.38 1517.37 1049.55 1520.93 Q1047.75 1524.47 1047.75 1531.6 Q1047.75 1538.71 1049.55 1542.27 Q1051.38 1545.82 1054.99 1545.82 Q1058.63 1545.82 1060.43 1542.27 Q1062.26 1538.71 1062.26 1531.6 Q1062.26 1524.47 1060.43 1520.93 Q1058.63 1517.37 1054.99 1517.37 M1054.99 1513.66 Q1060.8 1513.66 1063.86 1518.27 Q1066.94 1522.85 1066.94 1531.6 Q1066.94 1540.33 1063.86 1544.94 Q1060.8 1549.52 1054.99 1549.52 Q1049.18 1549.52 1046.1 1544.94 Q1043.05 1540.33 1043.05 1531.6 Q1043.05 1522.85 1046.1 1518.27 Q1049.18 1513.66 1054.99 1513.66 Z" fill="#000000" fill-rule="evenodd" fill-opacity="1" /><path clip-path="url(#clip090)" d="M1397 1544.91 L1404.64 1544.91 L1404.64 1518.55 L1396.33 1520.21 L1396.33 1515.95 L1404.6 1514.29 L1409.27 1514.29 L1409.27 1544.91 L1416.91 1544.91 L1416.91 1548.85 L1397 1548.85 L1397 1544.91 Z" fill="#000000" fill-rule="evenodd" fill-opacity="1" /><path clip-path="url(#clip090)" d="M1436.93 1529.7 Q1433.79 1529.7 1431.93 1531.86 Q1430.11 1534.01 1430.11 1537.76 Q1430.11 1541.49 1431.93 1543.66 Q1433.79 1545.82 1436.93 1545.82 Q1440.08 1545.82 1441.91 1543.66 Q1443.76 1541.49 1443.76 1537.76 Q1443.76 1534.01 1441.91 1531.86 Q1440.08 1529.7 1436.93 1529.7 M1446.22 1515.05 L1446.22 1519.31 Q1444.46 1518.48 1442.65 1518.04 Q1440.87 1517.6 1439.11 1517.6 Q1434.48 1517.6 1432.03 1520.72 Q1429.6 1523.85 1429.25 1530.17 Q1430.61 1528.15 1432.67 1527.09 Q1434.73 1526 1437.21 1526 Q1442.42 1526 1445.43 1529.17 Q1448.46 1532.32 1448.46 1537.76 Q1448.46 1543.08 1445.31 1546.3 Q1442.17 1549.52 1436.93 1549.52 Q1430.94 1549.52 1427.77 1544.94 Q1424.6 1540.33 1424.6 1531.6 Q1424.6 1523.41 1428.49 1518.55 Q1432.37 1513.66 1438.92 1513.66 Q1440.68 1513.66 1442.47 1514.01 Q1444.27 1514.36 1446.22 1515.05 Z" fill="#000000" fill-rule="evenodd" fill-opacity="1" /><path clip-path="url(#clip090)" d="M1466.52 1517.37 Q1462.91 1517.37 1461.08 1520.93 Q1459.27 1524.47 1459.27 1531.6 Q1459.27 1538.71 1461.08 1542.27 Q1462.91 1545.82 1466.52 1545.82 Q1470.15 1545.82 1471.96 1542.27 Q1473.79 1538.71 1473.79 1531.6 Q1473.79 1524.47 1471.96 1520.93 Q1470.15 1517.37 1466.52 1517.37 M1466.52 1513.66 Q1472.33 1513.66 1475.38 1518.27 Q1478.46 1522.85 1478.46 1531.6 Q1478.46 1540.33 1475.38 1544.94 Q1472.33 1549.52 1466.52 1549.52 Q1460.71 1549.52 1457.63 1544.94 Q1454.57 1540.33 1454.57 1531.6 Q1454.57 1522.85 1457.63 1518.27 Q1460.71 1513.66 1466.52 1513.66 Z" fill="#000000" fill-rule="evenodd" fill-opacity="1" /><path clip-path="url(#clip090)" d="M1496.68 1517.37 Q1493.07 1517.37 1491.24 1520.93 Q1489.43 1524.47 1489.43 1531.6 Q1489.43 1538.71 1491.24 1542.27 Q1493.07 1545.82 1496.68 1545.82 Q1500.31 1545.82 1502.12 1542.27 Q1503.95 1538.71 1503.95 1531.6 Q1503.95 1524.47 1502.12 1520.93 Q1500.31 1517.37 1496.68 1517.37 M1496.68 1513.66 Q1502.49 1513.66 1505.54 1518.27 Q1508.62 1522.85 1508.62 1531.6 Q1508.62 1540.33 1505.54 1544.94 Q1502.49 1549.52 1496.68 1549.52 Q1490.87 1549.52 1487.79 1544.94 Q1484.73 1540.33 1484.73 1531.6 Q1484.73 1522.85 1487.79 1518.27 Q1490.87 1513.66 1496.68 1513.66 Z" fill="#000000" fill-rule="evenodd" fill-opacity="1" /><path clip-path="url(#clip090)" d="M1526.84 1517.37 Q1523.23 1517.37 1521.4 1520.93 Q1519.6 1524.47 1519.6 1531.6 Q1519.6 1538.71 1521.4 1542.27 Q1523.23 1545.82 1526.84 1545.82 Q1530.48 1545.82 1532.28 1542.27 Q1534.11 1538.71 1534.11 1531.6 Q1534.11 1524.47 1532.28 1520.93 Q1530.48 1517.37 1526.84 1517.37 M1526.84 1513.66 Q1532.65 1513.66 1535.71 1518.27 Q1538.79 1522.85 1538.79 1531.6 Q1538.79 1540.33 1535.71 1544.94 Q1532.65 1549.52 1526.84 1549.52 Q1521.03 1549.52 1517.95 1544.94 Q1514.9 1540.33 1514.9 1531.6 Q1514.9 1522.85 1517.95 1518.27 Q1521.03 1513.66 1526.84 1513.66 Z" fill="#000000" fill-rule="evenodd" fill-opacity="1" /><path clip-path="url(#clip090)" d="M1868.85 1544.91 L1876.49 1544.91 L1876.49 1518.55 L1868.18 1520.21 L1868.18 1515.95 L1876.44 1514.29 L1881.12 1514.29 L1881.12 1544.91 L1888.76 1544.91 L1888.76 1548.85 L1868.85 1548.85 L1868.85 1544.91 Z" fill="#000000" fill-rule="evenodd" fill-opacity="1" /><path clip-path="url(#clip090)" d="M1908.2 1532.44 Q1904.87 1532.44 1902.95 1534.22 Q1901.05 1536 1901.05 1539.13 Q1901.05 1542.25 1902.95 1544.03 Q1904.87 1545.82 1908.2 1545.82 Q1911.54 1545.82 1913.46 1544.03 Q1915.38 1542.23 1915.38 1539.13 Q1915.38 1536 1913.46 1534.22 Q1911.56 1532.44 1908.2 1532.44 M1903.53 1530.45 Q1900.52 1529.7 1898.83 1527.64 Q1897.16 1525.58 1897.16 1522.62 Q1897.16 1518.48 1900.1 1516.07 Q1903.06 1513.66 1908.2 1513.66 Q1913.37 1513.66 1916.31 1516.07 Q1919.24 1518.48 1919.24 1522.62 Q1919.24 1525.58 1917.55 1527.64 Q1915.89 1529.7 1912.9 1530.45 Q1916.28 1531.23 1918.16 1533.52 Q1920.05 1535.82 1920.05 1539.13 Q1920.05 1544.15 1916.98 1546.83 Q1913.92 1549.52 1908.2 1549.52 Q1902.49 1549.52 1899.41 1546.83 Q1896.35 1544.15 1896.35 1539.13 Q1896.35 1535.82 1898.25 1533.52 Q1900.15 1531.23 1903.53 1530.45 M1901.81 1523.06 Q1901.81 1525.75 1903.48 1527.25 Q1905.17 1528.76 1908.2 1528.76 Q1911.21 1528.76 1912.9 1527.25 Q1914.62 1525.75 1914.62 1523.06 Q1914.62 1520.38 1912.9 1518.87 Q1911.21 1517.37 1908.2 1517.37 Q1905.17 1517.37 1903.48 1518.87 Q1901.81 1520.38 1901.81 1523.06 Z" fill="#000000" fill-rule="evenodd" fill-opacity="1" /><path clip-path="url(#clip090)" d="M1938.37 1517.37 Q1934.75 1517.37 1932.93 1520.93 Q1931.12 1524.47 1931.12 1531.6 Q1931.12 1538.71 1932.93 1542.27 Q1934.75 1545.82 1938.37 1545.82 Q1942 1545.82 1943.8 1542.27 Q1945.63 1538.71 1945.63 1531.6 Q1945.63 1524.47 1943.8 1520.93 Q1942 1517.37 1938.37 1517.37 M1938.37 1513.66 Q1944.18 1513.66 1947.23 1518.27 Q1950.31 1522.85 1950.31 1531.6 Q1950.31 1540.33 1947.23 1544.94 Q1944.18 1549.52 1938.37 1549.52 Q1932.55 1549.52 1929.48 1544.94 Q1926.42 1540.33 1926.42 1531.6 Q1926.42 1522.85 1929.48 1518.27 Q1932.55 1513.66 1938.37 1513.66 Z" fill="#000000" fill-rule="evenodd" fill-opacity="1" /><path clip-path="url(#clip090)" d="M1968.53 1517.37 Q1964.92 1517.37 1963.09 1520.93 Q1961.28 1524.47 1961.28 1531.6 Q1961.28 1538.71 1963.09 1542.27 Q1964.92 1545.82 1968.53 1545.82 Q1972.16 1545.82 1973.97 1542.27 Q1975.8 1538.71 1975.8 1531.6 Q1975.8 1524.47 1973.97 1520.93 Q1972.16 1517.37 1968.53 1517.37 M1968.53 1513.66 Q1974.34 1513.66 1977.39 1518.27 Q1980.47 1522.85 1980.47 1531.6 Q1980.47 1540.33 1977.39 1544.94 Q1974.34 1549.52 1968.53 1549.52 Q1962.72 1549.52 1959.64 1544.94 Q1956.58 1540.33 1956.58 1531.6 Q1956.58 1522.85 1959.64 1518.27 Q1962.72 1513.66 1968.53 1513.66 Z" fill="#000000" fill-rule="evenodd" fill-opacity="1" /><path clip-path="url(#clip090)" d="M1998.69 1517.37 Q1995.08 1517.37 1993.25 1520.93 Q1991.44 1524.47 1991.44 1531.6 Q1991.44 1538.71 1993.25 1542.27 Q1995.08 1545.82 1998.69 1545.82 Q2002.32 1545.82 2004.13 1542.27 Q2005.96 1538.71 2005.96 1531.6 Q2005.96 1524.47 2004.13 1520.93 Q2002.32 1517.37 1998.69 1517.37 M1998.69 1513.66 Q2004.5 1513.66 2007.55 1518.27 Q2010.63 1522.85 2010.63 1531.6 Q2010.63 1540.33 2007.55 1544.94 Q2004.5 1549.52 1998.69 1549.52 Q1992.88 1549.52 1989.8 1544.94 Q1986.74 1540.33 1986.74 1531.6 Q1986.74 1522.85 1989.8 1518.27 Q1992.88 1513.66 1998.69 1513.66 Z" fill="#000000" fill-rule="evenodd" fill-opacity="1" /><polyline clip-path="url(#clip092)" style="stroke:#000000; stroke-linecap:round; stroke-linejoin:round; stroke-width:2; stroke-opacity:0.1; fill:none" points="186.274,1299.58 2352.76,1299.58 "/>
<polyline clip-path="url(#clip092)" style="stroke:#000000; stroke-linecap:round; stroke-linejoin:round; stroke-width:2; stroke-opacity:0.1; fill:none" points="186.274,996.681 2352.76,996.681 "/>
<polyline clip-path="url(#clip092)" style="stroke:#000000; stroke-linecap:round; stroke-linejoin:round; stroke-width:2; stroke-opacity:0.1; fill:none" points="186.274,693.779 2352.76,693.779 "/>
<polyline clip-path="url(#clip092)" style="stroke:#000000; stroke-linecap:round; stroke-linejoin:round; stroke-width:2; stroke-opacity:0.1; fill:none" points="186.274,390.878 2352.76,390.878 "/>
<polyline clip-path="url(#clip092)" style="stroke:#000000; stroke-linecap:round; stroke-linejoin:round; stroke-width:2; stroke-opacity:0.1; fill:none" points="186.274,87.9763 2352.76,87.9763 "/>
<polyline clip-path="url(#clip090)" style="stroke:#000000; stroke-linecap:round; stroke-linejoin:round; stroke-width:4; stroke-opacity:1; fill:none" points="186.274,1486.45 186.274,47.2441 "/>
<polyline clip-path="url(#clip090)" style="stroke:#000000; stroke-linecap:round; stroke-linejoin:round; stroke-width:4; stroke-opacity:1; fill:none" points="186.274,1299.58 205.172,1299.58 "/>
<polyline clip-path="url(#clip090)" style="stroke:#000000; stroke-linecap:round; stroke-linejoin:round; stroke-width:4; stroke-opacity:1; fill:none" points="186.274,996.681 205.172,996.681 "/>
<polyline clip-path="url(#clip090)" style="stroke:#000000; stroke-linecap:round; stroke-linejoin:round; stroke-width:4; stroke-opacity:1; fill:none" points="186.274,693.779 205.172,693.779 "/>
<polyline clip-path="url(#clip090)" style="stroke:#000000; stroke-linecap:round; stroke-linejoin:round; stroke-width:4; stroke-opacity:1; fill:none" points="186.274,390.878 205.172,390.878 "/>
<polyline clip-path="url(#clip090)" style="stroke:#000000; stroke-linecap:round; stroke-linejoin:round; stroke-width:4; stroke-opacity:1; fill:none" points="186.274,87.9763 205.172,87.9763 "/>
<path clip-path="url(#clip090)" d="M62.9365 1285.38 Q59.3254 1285.38 57.4967 1288.95 Q55.6912 1292.49 55.6912 1299.62 Q55.6912 1306.72 57.4967 1310.29 Q59.3254 1313.83 62.9365 1313.83 Q66.5707 1313.83 68.3763 1310.29 Q70.205 1306.72 70.205 1299.62 Q70.205 1292.49 68.3763 1288.95 Q66.5707 1285.38 62.9365 1285.38 M62.9365 1281.68 Q68.7467 1281.68 71.8022 1286.28 Q74.8809 1290.87 74.8809 1299.62 Q74.8809 1308.34 71.8022 1312.95 Q68.7467 1317.53 62.9365 1317.53 Q57.1264 1317.53 54.0477 1312.95 Q50.9921 1308.34 50.9921 1299.62 Q50.9921 1290.87 54.0477 1286.28 Q57.1264 1281.68 62.9365 1281.68 Z" fill="#000000" fill-rule="evenodd" fill-opacity="1" /><path clip-path="url(#clip090)" d="M83.0984 1310.98 L87.9827 1310.98 L87.9827 1316.86 L83.0984 1316.86 L83.0984 1310.98 Z" fill="#000000" fill-rule="evenodd" fill-opacity="1" /><path clip-path="url(#clip090)" d="M108.168 1300.45 Q104.834 1300.45 102.913 1302.23 Q101.015 1304.02 101.015 1307.14 Q101.015 1310.26 102.913 1312.05 Q104.834 1313.83 108.168 1313.83 Q111.501 1313.83 113.422 1312.05 Q115.344 1310.24 115.344 1307.14 Q115.344 1304.02 113.422 1302.23 Q111.524 1300.45 108.168 1300.45 M103.492 1298.46 Q100.483 1297.72 98.7928 1295.66 Q97.1261 1293.6 97.1261 1290.64 Q97.1261 1286.49 100.066 1284.08 Q103.029 1281.68 108.168 1281.68 Q113.33 1281.68 116.27 1284.08 Q119.209 1286.49 119.209 1290.64 Q119.209 1293.6 117.52 1295.66 Q115.853 1297.72 112.867 1298.46 Q116.246 1299.25 118.121 1301.54 Q120.02 1303.83 120.02 1307.14 Q120.02 1312.16 116.941 1314.85 Q113.885 1317.53 108.168 1317.53 Q102.45 1317.53 99.3715 1314.85 Q96.316 1312.16 96.316 1307.14 Q96.316 1303.83 98.2141 1301.54 Q100.112 1299.25 103.492 1298.46 M101.779 1291.08 Q101.779 1293.76 103.446 1295.27 Q105.135 1296.77 108.168 1296.77 Q111.177 1296.77 112.867 1295.27 Q114.58 1293.76 114.58 1291.08 Q114.58 1288.39 112.867 1286.89 Q111.177 1285.38 108.168 1285.38 Q105.135 1285.38 103.446 1286.89 Q101.779 1288.39 101.779 1291.08 Z" fill="#000000" fill-rule="evenodd" fill-opacity="1" /><path clip-path="url(#clip090)" d="M138.33 1285.38 Q134.719 1285.38 132.89 1288.95 Q131.084 1292.49 131.084 1299.62 Q131.084 1306.72 132.89 1310.29 Q134.719 1313.83 138.33 1313.83 Q141.964 1313.83 143.769 1310.29 Q145.598 1306.72 145.598 1299.62 Q145.598 1292.49 143.769 1288.95 Q141.964 1285.38 138.33 1285.38 M138.33 1281.68 Q144.14 1281.68 147.195 1286.28 Q150.274 1290.87 150.274 1299.62 Q150.274 1308.34 147.195 1312.95 Q144.14 1317.53 138.33 1317.53 Q132.519 1317.53 129.441 1312.95 Q126.385 1308.34 126.385 1299.62 Q126.385 1290.87 129.441 1286.28 Q132.519 1281.68 138.33 1281.68 Z" fill="#000000" fill-rule="evenodd" fill-opacity="1" /><path clip-path="url(#clip090)" d="M63.9319 982.479 Q60.3208 982.479 58.4921 986.044 Q56.6865 989.586 56.6865 996.715 Q56.6865 1003.82 58.4921 1007.39 Q60.3208 1010.93 63.9319 1010.93 Q67.5661 1010.93 69.3717 1007.39 Q71.2004 1003.82 71.2004 996.715 Q71.2004 989.586 69.3717 986.044 Q67.5661 982.479 63.9319 982.479 M63.9319 978.776 Q69.742 978.776 72.7976 983.382 Q75.8763 987.965 75.8763 996.715 Q75.8763 1005.44 72.7976 1010.05 Q69.742 1014.63 63.9319 1014.63 Q58.1217 1014.63 55.043 1010.05 Q51.9875 1005.44 51.9875 996.715 Q51.9875 987.965 55.043 983.382 Q58.1217 978.776 63.9319 978.776 Z" fill="#000000" fill-rule="evenodd" fill-opacity="1" /><path clip-path="url(#clip090)" d="M84.0938 1008.08 L88.978 1008.08 L88.978 1013.96 L84.0938 1013.96 L84.0938 1008.08 Z" fill="#000000" fill-rule="evenodd" fill-opacity="1" /><path clip-path="url(#clip090)" d="M109.163 997.549 Q105.83 997.549 103.909 999.331 Q102.01 1001.11 102.01 1004.24 Q102.01 1007.36 103.909 1009.15 Q105.83 1010.93 109.163 1010.93 Q112.496 1010.93 114.418 1009.15 Q116.339 1007.34 116.339 1004.24 Q116.339 1001.11 114.418 999.331 Q112.52 997.549 109.163 997.549 M104.487 995.558 Q101.478 994.817 99.7882 992.757 Q98.1215 990.697 98.1215 987.734 Q98.1215 983.59 101.061 981.183 Q104.024 978.776 109.163 978.776 Q114.325 978.776 117.265 981.183 Q120.205 983.59 120.205 987.734 Q120.205 990.697 118.515 992.757 Q116.848 994.817 113.862 995.558 Q117.242 996.345 119.117 998.637 Q121.015 1000.93 121.015 1004.24 Q121.015 1009.26 117.936 1011.95 Q114.881 1014.63 109.163 1014.63 Q103.446 1014.63 100.367 1011.95 Q97.3113 1009.26 97.3113 1004.24 Q97.3113 1000.93 99.2095 998.637 Q101.108 996.345 104.487 995.558 M102.774 988.174 Q102.774 990.859 104.441 992.364 Q106.131 993.868 109.163 993.868 Q112.172 993.868 113.862 992.364 Q115.575 990.859 115.575 988.174 Q115.575 985.489 113.862 983.984 Q112.172 982.479 109.163 982.479 Q106.131 982.479 104.441 983.984 Q102.774 985.489 102.774 988.174 Z" fill="#000000" fill-rule="evenodd" fill-opacity="1" /><path clip-path="url(#clip090)" d="M129.371 979.401 L147.728 979.401 L147.728 983.336 L133.654 983.336 L133.654 991.808 Q134.672 991.461 135.691 991.299 Q136.709 991.114 137.728 991.114 Q143.515 991.114 146.894 994.285 Q150.274 997.456 150.274 1002.87 Q150.274 1008.45 146.802 1011.55 Q143.33 1014.63 137.01 1014.63 Q134.834 1014.63 132.566 1014.26 Q130.32 1013.89 127.913 1013.15 L127.913 1008.45 Q129.996 1009.59 132.219 1010.14 Q134.441 1010.7 136.918 1010.7 Q140.922 1010.7 143.26 1008.59 Q145.598 1006.48 145.598 1002.87 Q145.598 999.262 143.26 997.155 Q140.922 995.049 136.918 995.049 Q135.043 995.049 133.168 995.465 Q131.316 995.882 129.371 996.762 L129.371 979.401 Z" fill="#000000" fill-rule="evenodd" fill-opacity="1" /><path clip-path="url(#clip090)" d="M62.9365 679.578 Q59.3254 679.578 57.4967 683.143 Q55.6912 686.684 55.6912 693.814 Q55.6912 700.92 57.4967 704.485 Q59.3254 708.027 62.9365 708.027 Q66.5707 708.027 68.3763 704.485 Q70.205 700.92 70.205 693.814 Q70.205 686.684 68.3763 683.143 Q66.5707 679.578 62.9365 679.578 M62.9365 675.874 Q68.7467 675.874 71.8022 680.481 Q74.8809 685.064 74.8809 693.814 Q74.8809 702.541 71.8022 707.147 Q68.7467 711.731 62.9365 711.731 Q57.1264 711.731 54.0477 707.147 Q50.9921 702.541 50.9921 693.814 Q50.9921 685.064 54.0477 680.481 Q57.1264 675.874 62.9365 675.874 Z" fill="#000000" fill-rule="evenodd" fill-opacity="1" /><path clip-path="url(#clip090)" d="M83.0984 705.18 L87.9827 705.18 L87.9827 711.059 L83.0984 711.059 L83.0984 705.18 Z" fill="#000000" fill-rule="evenodd" fill-opacity="1" /><path clip-path="url(#clip090)" d="M98.3067 710.342 L98.3067 706.082 Q100.066 706.916 101.871 707.356 Q103.677 707.795 105.413 707.795 Q110.043 707.795 112.473 704.694 Q114.927 701.569 115.274 695.226 Q113.932 697.217 111.871 698.282 Q109.811 699.346 107.311 699.346 Q102.126 699.346 99.0937 696.221 Q96.0845 693.073 96.0845 687.633 Q96.0845 682.309 99.2326 679.092 Q102.381 675.874 107.612 675.874 Q113.608 675.874 116.756 680.481 Q119.927 685.064 119.927 693.814 Q119.927 701.985 116.038 706.869 Q112.172 711.731 105.621 711.731 Q103.862 711.731 102.057 711.383 Q100.251 711.036 98.3067 710.342 M107.612 695.689 Q110.76 695.689 112.589 693.536 Q114.441 691.383 114.441 687.633 Q114.441 683.907 112.589 681.754 Q110.76 679.578 107.612 679.578 Q104.464 679.578 102.612 681.754 Q100.784 683.907 100.784 687.633 Q100.784 691.383 102.612 693.536 Q104.464 695.689 107.612 695.689 Z" fill="#000000" fill-rule="evenodd" fill-opacity="1" /><path clip-path="url(#clip090)" d="M138.33 679.578 Q134.719 679.578 132.89 683.143 Q131.084 686.684 131.084 693.814 Q131.084 700.92 132.89 704.485 Q134.719 708.027 138.33 708.027 Q141.964 708.027 143.769 704.485 Q145.598 700.92 145.598 693.814 Q145.598 686.684 143.769 683.143 Q141.964 679.578 138.33 679.578 M138.33 675.874 Q144.14 675.874 147.195 680.481 Q150.274 685.064 150.274 693.814 Q150.274 702.541 147.195 707.147 Q144.14 711.731 138.33 711.731 Q132.519 711.731 129.441 707.147 Q126.385 702.541 126.385 693.814 Q126.385 685.064 129.441 680.481 Q132.519 675.874 138.33 675.874 Z" fill="#000000" fill-rule="evenodd" fill-opacity="1" /><path clip-path="url(#clip090)" d="M63.9319 376.676 Q60.3208 376.676 58.4921 380.241 Q56.6865 383.783 56.6865 390.912 Q56.6865 398.019 58.4921 401.584 Q60.3208 405.125 63.9319 405.125 Q67.5661 405.125 69.3717 401.584 Q71.2004 398.019 71.2004 390.912 Q71.2004 383.783 69.3717 380.241 Q67.5661 376.676 63.9319 376.676 M63.9319 372.973 Q69.742 372.973 72.7976 377.579 Q75.8763 382.163 75.8763 390.912 Q75.8763 399.639 72.7976 404.246 Q69.742 408.829 63.9319 408.829 Q58.1217 408.829 55.043 404.246 Q51.9875 399.639 51.9875 390.912 Q51.9875 382.163 55.043 377.579 Q58.1217 372.973 63.9319 372.973 Z" fill="#000000" fill-rule="evenodd" fill-opacity="1" /><path clip-path="url(#clip090)" d="M84.0938 402.278 L88.978 402.278 L88.978 408.158 L84.0938 408.158 L84.0938 402.278 Z" fill="#000000" fill-rule="evenodd" fill-opacity="1" /><path clip-path="url(#clip090)" d="M99.3021 407.44 L99.3021 403.181 Q101.061 404.014 102.867 404.454 Q104.672 404.894 106.408 404.894 Q111.038 404.894 113.469 401.792 Q115.922 398.667 116.27 392.325 Q114.927 394.315 112.867 395.38 Q110.807 396.445 108.307 396.445 Q103.121 396.445 100.089 393.32 Q97.0798 390.172 97.0798 384.732 Q97.0798 379.408 100.228 376.19 Q103.376 372.973 108.608 372.973 Q114.603 372.973 117.751 377.579 Q120.922 382.163 120.922 390.912 Q120.922 399.084 117.033 403.968 Q113.168 408.829 106.617 408.829 Q104.858 408.829 103.052 408.482 Q101.246 408.135 99.3021 407.44 M108.608 392.787 Q111.756 392.787 113.584 390.635 Q115.436 388.482 115.436 384.732 Q115.436 381.005 113.584 378.852 Q111.756 376.676 108.608 376.676 Q105.459 376.676 103.608 378.852 Q101.779 381.005 101.779 384.732 Q101.779 388.482 103.608 390.635 Q105.459 392.787 108.608 392.787 Z" fill="#000000" fill-rule="evenodd" fill-opacity="1" /><path clip-path="url(#clip090)" d="M129.371 373.598 L147.728 373.598 L147.728 377.533 L133.654 377.533 L133.654 386.005 Q134.672 385.658 135.691 385.496 Q136.709 385.311 137.728 385.311 Q143.515 385.311 146.894 388.482 Q150.274 391.653 150.274 397.07 Q150.274 402.649 146.802 405.75 Q143.33 408.829 137.01 408.829 Q134.834 408.829 132.566 408.459 Q130.32 408.088 127.913 407.348 L127.913 402.649 Q129.996 403.783 132.219 404.338 Q134.441 404.894 136.918 404.894 Q140.922 404.894 143.26 402.787 Q145.598 400.681 145.598 397.07 Q145.598 393.459 143.26 391.352 Q140.922 389.246 136.918 389.246 Q135.043 389.246 133.168 389.662 Q131.316 390.079 129.371 390.959 L129.371 373.598 Z" fill="#000000" fill-rule="evenodd" fill-opacity="1" /><path clip-path="url(#clip090)" d="M53.7467 101.321 L61.3856 101.321 L61.3856 74.9555 L53.0754 76.6222 L53.0754 72.3629 L61.3393 70.6963 L66.0152 70.6963 L66.0152 101.321 L73.654 101.321 L73.654 105.256 L53.7467 105.256 L53.7467 101.321 Z" fill="#000000" fill-rule="evenodd" fill-opacity="1" /><path clip-path="url(#clip090)" d="M83.0984 99.3767 L87.9827 99.3767 L87.9827 105.256 L83.0984 105.256 L83.0984 99.3767 Z" fill="#000000" fill-rule="evenodd" fill-opacity="1" /><path clip-path="url(#clip090)" d="M108.168 73.775 Q104.557 73.775 102.728 77.3398 Q100.922 80.8814 100.922 88.011 Q100.922 95.1174 102.728 98.6822 Q104.557 102.224 108.168 102.224 Q111.802 102.224 113.608 98.6822 Q115.436 95.1174 115.436 88.011 Q115.436 80.8814 113.608 77.3398 Q111.802 73.775 108.168 73.775 M108.168 70.0713 Q113.978 70.0713 117.033 74.6777 Q120.112 79.261 120.112 88.011 Q120.112 96.7378 117.033 101.344 Q113.978 105.928 108.168 105.928 Q102.358 105.928 99.2789 101.344 Q96.2234 96.7378 96.2234 88.011 Q96.2234 79.261 99.2789 74.6777 Q102.358 70.0713 108.168 70.0713 Z" fill="#000000" fill-rule="evenodd" fill-opacity="1" /><path clip-path="url(#clip090)" d="M138.33 73.775 Q134.719 73.775 132.89 77.3398 Q131.084 80.8814 131.084 88.011 Q131.084 95.1174 132.89 98.6822 Q134.719 102.224 138.33 102.224 Q141.964 102.224 143.769 98.6822 Q145.598 95.1174 145.598 88.011 Q145.598 80.8814 143.769 77.3398 Q141.964 73.775 138.33 73.775 M138.33 70.0713 Q144.14 70.0713 147.195 74.6777 Q150.274 79.261 150.274 88.011 Q150.274 96.7378 147.195 101.344 Q144.14 105.928 138.33 105.928 Q132.519 105.928 129.441 101.344 Q126.385 96.7378 126.385 88.011 Q126.385 79.261 129.441 74.6777 Q132.519 70.0713 138.33 70.0713 Z" fill="#000000" fill-rule="evenodd" fill-opacity="1" /><polyline clip-path="url(#clip092)" style="stroke:#009af9; stroke-linecap:round; stroke-linejoin:round; stroke-width:4; stroke-opacity:1; fill:none" points="247.59,1208.04 928.873,1174.08 1610.16,1160 2291.44,1445.72 "/>
<polyline clip-path="url(#clip092)" style="stroke:#e26f46; stroke-linecap:round; stroke-linejoin:round; stroke-width:4; stroke-opacity:1; fill:none" points="-1980.21,87.9763 4519.24,87.9763 "/>
<path clip-path="url(#clip090)" d="M258.49 1438.47 L938.701 1438.47 L938.701 1334.79 L258.49 1334.79  Z" fill="#ffffff" fill-rule="evenodd" fill-opacity="1"/>
<polyline clip-path="url(#clip090)" style="stroke:#000000; stroke-linecap:round; stroke-linejoin:round; stroke-width:4; stroke-opacity:1; fill:none" points="258.49,1438.47 938.701,1438.47 938.701,1334.79 258.49,1334.79 258.49,1438.47 "/>
<polyline clip-path="url(#clip090)" style="stroke:#009af9; stroke-linecap:round; stroke-linejoin:round; stroke-width:4; stroke-opacity:1; fill:none" points="282.562,1386.63 426.994,1386.63 "/>
<path clip-path="url(#clip090)" d="M471.413 1382.97 Q473.011 1380.1 475.233 1378.73 Q477.455 1377.36 480.464 1377.36 Q484.515 1377.36 486.714 1380.21 Q488.913 1383.03 488.913 1388.27 L488.913 1403.91 L484.631 1403.91 L484.631 1388.41 Q484.631 1384.68 483.311 1382.87 Q481.992 1381.07 479.284 1381.07 Q475.974 1381.07 474.052 1383.27 Q472.131 1385.47 472.131 1389.26 L472.131 1403.91 L467.849 1403.91 L467.849 1388.41 Q467.849 1384.66 466.529 1382.87 Q465.21 1381.07 462.455 1381.07 Q459.191 1381.07 457.27 1383.29 Q455.349 1385.49 455.349 1389.26 L455.349 1403.91 L451.066 1403.91 L451.066 1377.99 L455.349 1377.99 L455.349 1382.02 Q456.807 1379.63 458.844 1378.5 Q460.881 1377.36 463.682 1377.36 Q466.506 1377.36 468.474 1378.8 Q470.464 1380.23 471.413 1382.97 Z" fill="#000000" fill-rule="evenodd" fill-opacity="1" /><path clip-path="url(#clip090)" d="M519.584 1389.89 L519.584 1391.97 L500.001 1391.97 Q500.279 1396.37 502.64 1398.68 Q505.024 1400.97 509.26 1400.97 Q511.714 1400.97 514.006 1400.37 Q516.321 1399.77 518.589 1398.57 L518.589 1402.59 Q516.297 1403.57 513.89 1404.08 Q511.483 1404.59 509.006 1404.59 Q502.802 1404.59 499.168 1400.97 Q495.557 1397.36 495.557 1391.21 Q495.557 1384.84 498.983 1381.11 Q502.432 1377.36 508.265 1377.36 Q513.496 1377.36 516.529 1380.74 Q519.584 1384.1 519.584 1389.89 M515.325 1388.64 Q515.279 1385.14 513.358 1383.06 Q511.459 1380.97 508.311 1380.97 Q504.747 1380.97 502.594 1382.99 Q500.464 1385 500.14 1388.66 L515.325 1388.64 Z" fill="#000000" fill-rule="evenodd" fill-opacity="1" /><path clip-path="url(#clip090)" d="M538.357 1390.88 Q533.195 1390.88 531.205 1392.06 Q529.214 1393.24 529.214 1396.09 Q529.214 1398.36 530.695 1399.7 Q532.2 1401.02 534.769 1401.02 Q538.311 1401.02 540.441 1398.52 Q542.594 1396 542.594 1391.83 L542.594 1390.88 L538.357 1390.88 M546.853 1389.12 L546.853 1403.91 L542.594 1403.91 L542.594 1399.98 Q541.135 1402.34 538.959 1403.47 Q536.783 1404.59 533.635 1404.59 Q529.654 1404.59 527.293 1402.36 Q524.955 1400.12 524.955 1396.37 Q524.955 1391.99 527.871 1389.77 Q530.811 1387.55 536.621 1387.55 L542.594 1387.55 L542.594 1387.13 Q542.594 1384.19 540.649 1382.6 Q538.728 1380.97 535.232 1380.97 Q533.01 1380.97 530.904 1381.51 Q528.797 1382.04 526.853 1383.1 L526.853 1379.17 Q529.191 1378.27 531.39 1377.83 Q533.589 1377.36 535.672 1377.36 Q541.297 1377.36 544.075 1380.28 Q546.853 1383.2 546.853 1389.12 Z" fill="#000000" fill-rule="evenodd" fill-opacity="1" /><path clip-path="url(#clip090)" d="M577.177 1388.27 L577.177 1403.91 L572.917 1403.91 L572.917 1388.41 Q572.917 1384.72 571.482 1382.9 Q570.047 1381.07 567.177 1381.07 Q563.728 1381.07 561.737 1383.27 Q559.746 1385.47 559.746 1389.26 L559.746 1403.91 L555.464 1403.91 L555.464 1377.99 L559.746 1377.99 L559.746 1382.02 Q561.274 1379.68 563.334 1378.52 Q565.417 1377.36 568.126 1377.36 Q572.593 1377.36 574.885 1380.14 Q577.177 1382.9 577.177 1388.27 Z" fill="#000000" fill-rule="evenodd" fill-opacity="1" /><path clip-path="url(#clip090)" d="M617.801 1381.92 L617.801 1367.9 L622.061 1367.9 L622.061 1403.91 L617.801 1403.91 L617.801 1400.03 Q616.459 1402.34 614.399 1403.47 Q612.362 1404.59 609.491 1404.59 Q604.792 1404.59 601.829 1400.84 Q598.89 1397.09 598.89 1390.97 Q598.89 1384.86 601.829 1381.11 Q604.792 1377.36 609.491 1377.36 Q612.362 1377.36 614.399 1378.5 Q616.459 1379.61 617.801 1381.92 M603.288 1390.97 Q603.288 1395.67 605.209 1398.36 Q607.153 1401.02 610.533 1401.02 Q613.913 1401.02 615.857 1398.36 Q617.801 1395.67 617.801 1390.97 Q617.801 1386.28 615.857 1383.61 Q613.913 1380.93 610.533 1380.93 Q607.153 1380.93 605.209 1383.61 Q603.288 1386.28 603.288 1390.97 Z" fill="#000000" fill-rule="evenodd" fill-opacity="1" /><path clip-path="url(#clip090)" d="M630.834 1377.99 L635.093 1377.99 L635.093 1403.91 L630.834 1403.91 L630.834 1377.99 M630.834 1367.9 L635.093 1367.9 L635.093 1373.29 L630.834 1373.29 L630.834 1367.9 Z" fill="#000000" fill-rule="evenodd" fill-opacity="1" /><path clip-path="url(#clip090)" d="M660.533 1378.75 L660.533 1382.78 Q658.727 1381.85 656.783 1381.39 Q654.838 1380.93 652.755 1380.93 Q649.584 1380.93 647.986 1381.9 Q646.412 1382.87 646.412 1384.82 Q646.412 1386.3 647.547 1387.16 Q648.681 1387.99 652.107 1388.75 L653.565 1389.08 Q658.102 1390.05 660 1391.83 Q661.922 1393.59 661.922 1396.76 Q661.922 1400.37 659.051 1402.48 Q656.204 1404.59 651.204 1404.59 Q649.121 1404.59 646.852 1404.17 Q644.607 1403.78 642.107 1402.97 L642.107 1398.57 Q644.468 1399.79 646.76 1400.42 Q649.051 1401.02 651.297 1401.02 Q654.306 1401.02 655.926 1400 Q657.547 1398.96 657.547 1397.09 Q657.547 1395.35 656.366 1394.42 Q655.209 1393.5 651.25 1392.64 L649.769 1392.29 Q645.811 1391.46 644.051 1389.75 Q642.292 1388.01 642.292 1385 Q642.292 1381.35 644.885 1379.35 Q647.477 1377.36 652.246 1377.36 Q654.607 1377.36 656.69 1377.71 Q658.773 1378.06 660.533 1378.75 Z" fill="#000000" fill-rule="evenodd" fill-opacity="1" /><path clip-path="url(#clip090)" d="M672.824 1400.03 L672.824 1413.78 L668.542 1413.78 L668.542 1377.99 L672.824 1377.99 L672.824 1381.92 Q674.167 1379.61 676.204 1378.5 Q678.264 1377.36 681.111 1377.36 Q685.833 1377.36 688.773 1381.11 Q691.736 1384.86 691.736 1390.97 Q691.736 1397.09 688.773 1400.84 Q685.833 1404.59 681.111 1404.59 Q678.264 1404.59 676.204 1403.47 Q674.167 1402.34 672.824 1400.03 M687.315 1390.97 Q687.315 1386.28 685.371 1383.61 Q683.449 1380.93 680.07 1380.93 Q676.69 1380.93 674.746 1383.61 Q672.824 1386.28 672.824 1390.97 Q672.824 1395.67 674.746 1398.36 Q676.69 1401.02 680.07 1401.02 Q683.449 1401.02 685.371 1398.36 Q687.315 1395.67 687.315 1390.97 Z" fill="#000000" fill-rule="evenodd" fill-opacity="1" /><path clip-path="url(#clip090)" d="M698.796 1367.9 L703.056 1367.9 L703.056 1403.91 L698.796 1403.91 L698.796 1367.9 Z" fill="#000000" fill-rule="evenodd" fill-opacity="1" /><path clip-path="url(#clip090)" d="M723.75 1390.88 Q718.588 1390.88 716.597 1392.06 Q714.606 1393.24 714.606 1396.09 Q714.606 1398.36 716.088 1399.7 Q717.593 1401.02 720.162 1401.02 Q723.704 1401.02 725.833 1398.52 Q727.986 1396 727.986 1391.83 L727.986 1390.88 L723.75 1390.88 M732.245 1389.12 L732.245 1403.91 L727.986 1403.91 L727.986 1399.98 Q726.528 1402.34 724.352 1403.47 Q722.176 1404.59 719.028 1404.59 Q715.046 1404.59 712.685 1402.36 Q710.347 1400.12 710.347 1396.37 Q710.347 1391.99 713.264 1389.77 Q716.204 1387.55 722.014 1387.55 L727.986 1387.55 L727.986 1387.13 Q727.986 1384.19 726.042 1382.6 Q724.12 1380.97 720.625 1380.97 Q718.403 1380.97 716.296 1381.51 Q714.19 1382.04 712.245 1383.1 L712.245 1379.17 Q714.583 1378.27 716.782 1377.83 Q718.981 1377.36 721.065 1377.36 Q726.69 1377.36 729.468 1380.28 Q732.245 1383.2 732.245 1389.12 Z" fill="#000000" fill-rule="evenodd" fill-opacity="1" /><path clip-path="url(#clip090)" d="M759.676 1378.98 L759.676 1382.97 Q757.87 1381.97 756.041 1381.48 Q754.236 1380.97 752.384 1380.97 Q748.241 1380.97 745.949 1383.61 Q743.657 1386.23 743.657 1390.97 Q743.657 1395.72 745.949 1398.36 Q748.241 1400.97 752.384 1400.97 Q754.236 1400.97 756.041 1400.49 Q757.87 1399.98 759.676 1398.98 L759.676 1402.92 Q757.893 1403.75 755.972 1404.17 Q754.074 1404.59 751.921 1404.59 Q746.065 1404.59 742.616 1400.91 Q739.167 1397.22 739.167 1390.97 Q739.167 1384.63 742.639 1381 Q746.134 1377.36 752.199 1377.36 Q754.166 1377.36 756.041 1377.78 Q757.916 1378.17 759.676 1378.98 Z" fill="#000000" fill-rule="evenodd" fill-opacity="1" /><path clip-path="url(#clip090)" d="M789.259 1389.89 L789.259 1391.97 L769.676 1391.97 Q769.953 1396.37 772.315 1398.68 Q774.699 1400.97 778.935 1400.97 Q781.389 1400.97 783.68 1400.37 Q785.995 1399.77 788.264 1398.57 L788.264 1402.59 Q785.972 1403.57 783.564 1404.08 Q781.157 1404.59 778.68 1404.59 Q772.477 1404.59 768.842 1400.97 Q765.231 1397.36 765.231 1391.21 Q765.231 1384.84 768.657 1381.11 Q772.106 1377.36 777.939 1377.36 Q783.171 1377.36 786.203 1380.74 Q789.259 1384.1 789.259 1389.89 M785 1388.64 Q784.953 1385.14 783.032 1383.06 Q781.134 1380.97 777.986 1380.97 Q774.421 1380.97 772.268 1382.99 Q770.139 1385 769.815 1388.66 L785 1388.64 Z" fill="#000000" fill-rule="evenodd" fill-opacity="1" /><path clip-path="url(#clip090)" d="M816.435 1382.97 Q818.032 1380.1 820.254 1378.73 Q822.476 1377.36 825.486 1377.36 Q829.536 1377.36 831.735 1380.21 Q833.935 1383.03 833.935 1388.27 L833.935 1403.91 L829.652 1403.91 L829.652 1388.41 Q829.652 1384.68 828.333 1382.87 Q827.013 1381.07 824.305 1381.07 Q820.995 1381.07 819.074 1383.27 Q817.152 1385.47 817.152 1389.26 L817.152 1403.91 L812.87 1403.91 L812.87 1388.41 Q812.87 1384.66 811.55 1382.87 Q810.231 1381.07 807.476 1381.07 Q804.212 1381.07 802.291 1383.29 Q800.37 1385.49 800.37 1389.26 L800.37 1403.91 L796.088 1403.91 L796.088 1377.99 L800.37 1377.99 L800.37 1382.02 Q801.828 1379.63 803.865 1378.5 Q805.902 1377.36 808.703 1377.36 Q811.527 1377.36 813.495 1378.8 Q815.486 1380.23 816.435 1382.97 Z" fill="#000000" fill-rule="evenodd" fill-opacity="1" /><path clip-path="url(#clip090)" d="M864.606 1389.89 L864.606 1391.97 L845.022 1391.97 Q845.3 1396.37 847.661 1398.68 Q850.046 1400.97 854.282 1400.97 Q856.735 1400.97 859.027 1400.37 Q861.342 1399.77 863.61 1398.57 L863.61 1402.59 Q861.319 1403.57 858.911 1404.08 Q856.504 1404.59 854.027 1404.59 Q847.823 1404.59 844.189 1400.97 Q840.578 1397.36 840.578 1391.21 Q840.578 1384.84 844.004 1381.11 Q847.453 1377.36 853.286 1377.36 Q858.518 1377.36 861.55 1380.74 Q864.606 1384.1 864.606 1389.89 M860.346 1388.64 Q860.3 1385.14 858.379 1383.06 Q856.481 1380.97 853.333 1380.97 Q849.768 1380.97 847.615 1382.99 Q845.485 1385 845.161 1388.66 L860.346 1388.64 Z" fill="#000000" fill-rule="evenodd" fill-opacity="1" /><path clip-path="url(#clip090)" d="M893.147 1388.27 L893.147 1403.91 L888.888 1403.91 L888.888 1388.41 Q888.888 1384.72 887.453 1382.9 Q886.018 1381.07 883.147 1381.07 Q879.698 1381.07 877.707 1383.27 Q875.717 1385.47 875.717 1389.26 L875.717 1403.91 L871.434 1403.91 L871.434 1377.99 L875.717 1377.99 L875.717 1382.02 Q877.245 1379.68 879.305 1378.52 Q881.388 1377.36 884.096 1377.36 Q888.564 1377.36 890.856 1380.14 Q893.147 1382.9 893.147 1388.27 Z" fill="#000000" fill-rule="evenodd" fill-opacity="1" /><path clip-path="url(#clip090)" d="M905.855 1370.63 L905.855 1377.99 L914.629 1377.99 L914.629 1381.3 L905.855 1381.3 L905.855 1395.37 Q905.855 1398.54 906.712 1399.45 Q907.592 1400.35 910.254 1400.35 L914.629 1400.35 L914.629 1403.91 L910.254 1403.91 Q905.323 1403.91 903.448 1402.09 Q901.573 1400.23 901.573 1395.37 L901.573 1381.3 L898.448 1381.3 L898.448 1377.99 L901.573 1377.99 L901.573 1370.63 L905.855 1370.63 Z" fill="#000000" fill-rule="evenodd" fill-opacity="1" /></svg>
