<?xml version="1.0" encoding="utf-8"?>
<svg xmlns="http://www.w3.org/2000/svg" xmlns:xlink="http://www.w3.org/1999/xlink" width="600" height="400" viewBox="0 0 2400 1600">
<defs>
  <clipPath id="clip500">
    <rect x="0" y="0" width="2400" height="1600"/>
  </clipPath>
</defs>
<path clip-path="url(#clip500)" d="M0 1600 L2400 1600 L2400 0 L0 0  Z" fill="#ffffff" fill-rule="evenodd" fill-opacity="1"/>
<defs>
  <clipPath id="clip501">
    <rect x="480" y="0" width="1681" height="1600"/>
  </clipPath>
</defs>
<path clip-path="url(#clip500)" d="M156.598 1486.45 L2352.76 1486.45 L2352.76 47.2441 L156.598 47.2441  Z" fill="#ffffff" fill-rule="evenodd" fill-opacity="1"/>
<defs>
  <clipPath id="clip502">
    <rect x="156" y="47" width="2197" height="1440"/>
  </clipPath>
</defs>
<polyline clip-path="url(#clip502)" style="stroke:#000000; stroke-linecap:round; stroke-linejoin:round; stroke-width:2; stroke-opacity:0.1; fill:none" points="265.443,1486.45 265.443,47.2441 "/>
<polyline clip-path="url(#clip502)" style="stroke:#000000; stroke-linecap:round; stroke-linejoin:round; stroke-width:2; stroke-opacity:0.1; fill:none" points="595.188,1486.45 595.188,47.2441 "/>
<polyline clip-path="url(#clip502)" style="stroke:#000000; stroke-linecap:round; stroke-linejoin:round; stroke-width:2; stroke-opacity:0.1; fill:none" points="924.932,1486.45 924.932,47.2441 "/>
<polyline clip-path="url(#clip502)" style="stroke:#000000; stroke-linecap:round; stroke-linejoin:round; stroke-width:2; stroke-opacity:0.1; fill:none" points="1254.68,1486.45 1254.68,47.2441 "/>
<polyline clip-path="url(#clip502)" style="stroke:#000000; stroke-linecap:round; stroke-linejoin:round; stroke-width:2; stroke-opacity:0.1; fill:none" points="1584.42,1486.45 1584.42,47.2441 "/>
<polyline clip-path="url(#clip502)" style="stroke:#000000; stroke-linecap:round; stroke-linejoin:round; stroke-width:2; stroke-opacity:0.1; fill:none" points="1914.17,1486.45 1914.17,47.2441 "/>
<polyline clip-path="url(#clip502)" style="stroke:#000000; stroke-linecap:round; stroke-linejoin:round; stroke-width:2; stroke-opacity:0.1; fill:none" points="2243.91,1486.45 2243.91,47.2441 "/>
<polyline clip-path="url(#clip500)" style="stroke:#000000; stroke-linecap:round; stroke-linejoin:round; stroke-width:4; stroke-opacity:1; fill:none" points="156.598,1486.45 2352.76,1486.45 "/>
<polyline clip-path="url(#clip500)" style="stroke:#000000; stroke-linecap:round; stroke-linejoin:round; stroke-width:4; stroke-opacity:1; fill:none" points="265.443,1486.45 265.443,1467.55 "/>
<polyline clip-path="url(#clip500)" style="stroke:#000000; stroke-linecap:round; stroke-linejoin:round; stroke-width:4; stroke-opacity:1; fill:none" points="595.188,1486.45 595.188,1467.55 "/>
<polyline clip-path="url(#clip500)" style="stroke:#000000; stroke-linecap:round; stroke-linejoin:round; stroke-width:4; stroke-opacity:1; fill:none" points="924.932,1486.45 924.932,1467.55 "/>
<polyline clip-path="url(#clip500)" style="stroke:#000000; stroke-linecap:round; stroke-linejoin:round; stroke-width:4; stroke-opacity:1; fill:none" points="1254.68,1486.45 1254.68,1467.55 "/>
<polyline clip-path="url(#clip500)" style="stroke:#000000; stroke-linecap:round; stroke-linejoin:round; stroke-width:4; stroke-opacity:1; fill:none" points="1584.42,1486.45 1584.42,1467.55 "/>
<polyline clip-path="url(#clip500)" style="stroke:#000000; stroke-linecap:round; stroke-linejoin:round; stroke-width:4; stroke-opacity:1; fill:none" points="1914.17,1486.45 1914.17,1467.55 "/>
<polyline clip-path="url(#clip500)" style="stroke:#000000; stroke-linecap:round; stroke-linejoin:round; stroke-width:4; stroke-opacity:1; fill:none" points="2243.91,1486.45 2243.91,1467.55 "/>
<path clip-path="url(#clip500)" d="M234.911 1532.02 L264.587 1532.02 L264.587 1535.95 L234.911 1535.95 L234.911 1532.02 Z" fill="#000000" fill-rule="evenodd" fill-opacity="1" /><path clip-path="url(#clip500)" d="M288.846 1530.21 Q292.202 1530.93 294.077 1533.2 Q295.975 1535.47 295.975 1538.8 Q295.975 1543.92 292.457 1546.72 Q288.938 1549.52 282.457 1549.52 Q280.281 1549.52 277.966 1549.08 Q275.674 1548.66 273.221 1547.81 L273.221 1543.29 Q275.165 1544.43 277.48 1545.01 Q279.795 1545.58 282.318 1545.58 Q286.716 1545.58 289.008 1543.85 Q291.323 1542.11 291.323 1538.8 Q291.323 1535.75 289.17 1534.03 Q287.04 1532.3 283.221 1532.3 L279.193 1532.3 L279.193 1528.45 L283.406 1528.45 Q286.855 1528.45 288.684 1527.09 Q290.512 1525.7 290.512 1523.11 Q290.512 1520.45 288.614 1519.03 Q286.739 1517.6 283.221 1517.6 Q281.299 1517.6 279.1 1518.01 Q276.901 1518.43 274.262 1519.31 L274.262 1515.14 Q276.924 1514.4 279.239 1514.03 Q281.577 1513.66 283.637 1513.66 Q288.961 1513.66 292.063 1516.09 Q295.165 1518.5 295.165 1522.62 Q295.165 1525.49 293.522 1527.48 Q291.878 1529.45 288.846 1530.21 Z" fill="#000000" fill-rule="evenodd" fill-opacity="1" /><path clip-path="url(#clip500)" d="M565.13 1532.02 L594.806 1532.02 L594.806 1535.95 L565.13 1535.95 L565.13 1532.02 Z" fill="#000000" fill-rule="evenodd" fill-opacity="1" /><path clip-path="url(#clip500)" d="M608.926 1544.91 L625.245 1544.91 L625.245 1548.85 L603.301 1548.85 L603.301 1544.91 Q605.963 1542.16 610.546 1537.53 Q615.153 1532.88 616.333 1531.53 Q618.579 1529.01 619.458 1527.27 Q620.361 1525.51 620.361 1523.82 Q620.361 1521.07 618.417 1519.33 Q616.495 1517.6 613.394 1517.6 Q611.195 1517.6 608.741 1518.36 Q606.31 1519.13 603.533 1520.68 L603.533 1515.95 Q606.357 1514.82 608.81 1514.24 Q611.264 1513.66 613.301 1513.66 Q618.671 1513.66 621.866 1516.35 Q625.06 1519.03 625.06 1523.52 Q625.06 1525.65 624.25 1527.57 Q623.463 1529.47 621.357 1532.07 Q620.778 1532.74 617.676 1535.95 Q614.574 1539.15 608.926 1544.91 Z" fill="#000000" fill-rule="evenodd" fill-opacity="1" /><path clip-path="url(#clip500)" d="M894.69 1532.02 L924.365 1532.02 L924.365 1535.95 L894.69 1535.95 L894.69 1532.02 Z" fill="#000000" fill-rule="evenodd" fill-opacity="1" /><path clip-path="url(#clip500)" d="M935.268 1544.91 L942.907 1544.91 L942.907 1518.55 L934.597 1520.21 L934.597 1515.95 L942.861 1514.29 L947.536 1514.29 L947.536 1544.91 L955.175 1544.91 L955.175 1548.85 L935.268 1548.85 L935.268 1544.91 Z" fill="#000000" fill-rule="evenodd" fill-opacity="1" /><path clip-path="url(#clip500)" d="M1254.68 1517.37 Q1251.07 1517.37 1249.24 1520.93 Q1247.43 1524.47 1247.43 1531.6 Q1247.43 1538.71 1249.24 1542.27 Q1251.07 1545.82 1254.68 1545.82 Q1258.31 1545.82 1260.12 1542.27 Q1261.95 1538.71 1261.95 1531.6 Q1261.95 1524.47 1260.12 1520.93 Q1258.31 1517.37 1254.68 1517.37 M1254.68 1513.66 Q1260.49 1513.66 1263.54 1518.27 Q1266.62 1522.85 1266.62 1531.6 Q1266.62 1540.33 1263.54 1544.94 Q1260.49 1549.52 1254.68 1549.52 Q1248.87 1549.52 1245.79 1544.94 Q1242.73 1540.33 1242.73 1531.6 Q1242.73 1522.85 1245.79 1518.27 Q1248.87 1513.66 1254.68 1513.66 Z" fill="#000000" fill-rule="evenodd" fill-opacity="1" /><path clip-path="url(#clip500)" d="M1574.8 1544.91 L1582.44 1544.91 L1582.44 1518.55 L1574.13 1520.21 L1574.13 1515.95 L1582.4 1514.29 L1587.07 1514.29 L1587.07 1544.91 L1594.71 1544.91 L1594.71 1548.85 L1574.8 1548.85 L1574.8 1544.91 Z" fill="#000000" fill-rule="evenodd" fill-opacity="1" /><path clip-path="url(#clip500)" d="M1908.82 1544.91 L1925.14 1544.91 L1925.14 1548.85 L1903.19 1548.85 L1903.19 1544.91 Q1905.86 1542.16 1910.44 1537.53 Q1915.05 1532.88 1916.23 1531.53 Q1918.47 1529.01 1919.35 1527.27 Q1920.25 1525.51 1920.25 1523.82 Q1920.25 1521.07 1918.31 1519.33 Q1916.39 1517.6 1913.29 1517.6 Q1911.09 1517.6 1908.63 1518.36 Q1906.2 1519.13 1903.43 1520.68 L1903.43 1515.95 Q1906.25 1514.82 1908.7 1514.24 Q1911.16 1513.66 1913.19 1513.66 Q1918.56 1513.66 1921.76 1516.35 Q1924.95 1519.03 1924.95 1523.52 Q1924.95 1525.65 1924.14 1527.57 Q1923.36 1529.47 1921.25 1532.07 Q1920.67 1532.74 1917.57 1535.95 Q1914.47 1539.15 1908.82 1544.91 Z" fill="#000000" fill-rule="evenodd" fill-opacity="1" /><path clip-path="url(#clip500)" d="M2248.16 1530.21 Q2251.52 1530.93 2253.39 1533.2 Q2255.29 1535.47 2255.29 1538.8 Q2255.29 1543.92 2251.77 1546.72 Q2248.25 1549.52 2241.77 1549.52 Q2239.59 1549.52 2237.28 1549.08 Q2234.99 1548.66 2232.53 1547.81 L2232.53 1543.29 Q2234.48 1544.43 2236.79 1545.01 Q2239.11 1545.58 2241.63 1545.58 Q2246.03 1545.58 2248.32 1543.85 Q2250.64 1542.11 2250.64 1538.8 Q2250.64 1535.75 2248.48 1534.03 Q2246.35 1532.3 2242.53 1532.3 L2238.51 1532.3 L2238.51 1528.45 L2242.72 1528.45 Q2246.17 1528.45 2248 1527.09 Q2249.83 1525.7 2249.83 1523.11 Q2249.83 1520.45 2247.93 1519.03 Q2246.05 1517.6 2242.53 1517.6 Q2240.61 1517.6 2238.41 1518.01 Q2236.21 1518.43 2233.58 1519.31 L2233.58 1515.14 Q2236.24 1514.4 2238.55 1514.03 Q2240.89 1513.66 2242.95 1513.66 Q2248.27 1513.66 2251.38 1516.09 Q2254.48 1518.5 2254.48 1522.62 Q2254.48 1525.49 2252.83 1527.48 Q2251.19 1529.45 2248.16 1530.21 Z" fill="#000000" fill-rule="evenodd" fill-opacity="1" /><polyline clip-path="url(#clip502)" style="stroke:#000000; stroke-linecap:round; stroke-linejoin:round; stroke-width:2; stroke-opacity:0.1; fill:none" points="156.598,1372.6 2352.76,1372.6 "/>
<polyline clip-path="url(#clip502)" style="stroke:#000000; stroke-linecap:round; stroke-linejoin:round; stroke-width:2; stroke-opacity:0.1; fill:none" points="156.598,1101.05 2352.76,1101.05 "/>
<polyline clip-path="url(#clip502)" style="stroke:#000000; stroke-linecap:round; stroke-linejoin:round; stroke-width:2; stroke-opacity:0.1; fill:none" points="156.598,829.506 2352.76,829.506 "/>
<polyline clip-path="url(#clip502)" style="stroke:#000000; stroke-linecap:round; stroke-linejoin:round; stroke-width:2; stroke-opacity:0.1; fill:none" points="156.598,557.958 2352.76,557.958 "/>
<polyline clip-path="url(#clip502)" style="stroke:#000000; stroke-linecap:round; stroke-linejoin:round; stroke-width:2; stroke-opacity:0.1; fill:none" points="156.598,286.41 2352.76,286.41 "/>
<polyline clip-path="url(#clip500)" style="stroke:#000000; stroke-linecap:round; stroke-linejoin:round; stroke-width:4; stroke-opacity:1; fill:none" points="156.598,1486.45 156.598,47.2441 "/>
<polyline clip-path="url(#clip500)" style="stroke:#000000; stroke-linecap:round; stroke-linejoin:round; stroke-width:4; stroke-opacity:1; fill:none" points="156.598,1372.6 175.496,1372.6 "/>
<polyline clip-path="url(#clip500)" style="stroke:#000000; stroke-linecap:round; stroke-linejoin:round; stroke-width:4; stroke-opacity:1; fill:none" points="156.598,1101.05 175.496,1101.05 "/>
<polyline clip-path="url(#clip500)" style="stroke:#000000; stroke-linecap:round; stroke-linejoin:round; stroke-width:4; stroke-opacity:1; fill:none" points="156.598,829.506 175.496,829.506 "/>
<polyline clip-path="url(#clip500)" style="stroke:#000000; stroke-linecap:round; stroke-linejoin:round; stroke-width:4; stroke-opacity:1; fill:none" points="156.598,557.958 175.496,557.958 "/>
<polyline clip-path="url(#clip500)" style="stroke:#000000; stroke-linecap:round; stroke-linejoin:round; stroke-width:4; stroke-opacity:1; fill:none" points="156.598,286.41 175.496,286.41 "/>
<path clip-path="url(#clip500)" d="M65.0198 1358.4 Q61.4087 1358.4 59.58 1361.97 Q57.7745 1365.51 57.7745 1372.64 Q57.7745 1379.74 59.58 1383.31 Q61.4087 1386.85 65.0198 1386.85 Q68.6541 1386.85 70.4596 1383.31 Q72.2883 1379.74 72.2883 1372.64 Q72.2883 1365.51 70.4596 1361.97 Q68.6541 1358.4 65.0198 1358.4 M65.0198 1354.7 Q70.83 1354.7 73.8855 1359.3 Q76.9642 1363.89 76.9642 1372.64 Q76.9642 1381.36 73.8855 1385.97 Q70.83 1390.55 65.0198 1390.55 Q59.2097 1390.55 56.131 1385.97 Q53.0754 1381.36 53.0754 1372.64 Q53.0754 1363.89 56.131 1359.3 Q59.2097 1354.7 65.0198 1354.7 Z" fill="#000000" fill-rule="evenodd" fill-opacity="1" /><path clip-path="url(#clip500)" d="M85.1818 1384 L90.066 1384 L90.066 1389.88 L85.1818 1389.88 L85.1818 1384 Z" fill="#000000" fill-rule="evenodd" fill-opacity="1" /><path clip-path="url(#clip500)" d="M104.279 1385.95 L120.598 1385.95 L120.598 1389.88 L98.6539 1389.88 L98.6539 1385.95 Q101.316 1383.19 105.899 1378.56 Q110.506 1373.91 111.686 1372.57 Q113.932 1370.04 114.811 1368.31 Q115.714 1366.55 115.714 1364.86 Q115.714 1362.1 113.77 1360.37 Q111.848 1358.63 108.746 1358.63 Q106.547 1358.63 104.094 1359.4 Q101.663 1360.16 98.8854 1361.71 L98.8854 1356.99 Q101.709 1355.85 104.163 1355.28 Q106.617 1354.7 108.654 1354.7 Q114.024 1354.7 117.219 1357.38 Q120.413 1360.07 120.413 1364.56 Q120.413 1366.69 119.603 1368.61 Q118.816 1370.51 116.709 1373.1 Q116.131 1373.77 113.029 1376.99 Q109.927 1380.18 104.279 1385.95 Z" fill="#000000" fill-rule="evenodd" fill-opacity="1" /><path clip-path="url(#clip500)" d="M62.9365 1086.85 Q59.3254 1086.85 57.4967 1090.42 Q55.6912 1093.96 55.6912 1101.09 Q55.6912 1108.19 57.4967 1111.76 Q59.3254 1115.3 62.9365 1115.3 Q66.5707 1115.3 68.3763 1111.76 Q70.205 1108.19 70.205 1101.09 Q70.205 1093.96 68.3763 1090.42 Q66.5707 1086.85 62.9365 1086.85 M62.9365 1083.15 Q68.7467 1083.15 71.8022 1087.76 Q74.8809 1092.34 74.8809 1101.09 Q74.8809 1109.82 71.8022 1114.42 Q68.7467 1119.01 62.9365 1119.01 Q57.1264 1119.01 54.0477 1114.42 Q50.9921 1109.82 50.9921 1101.09 Q50.9921 1092.34 54.0477 1087.76 Q57.1264 1083.15 62.9365 1083.15 Z" fill="#000000" fill-rule="evenodd" fill-opacity="1" /><path clip-path="url(#clip500)" d="M83.0984 1112.45 L87.9827 1112.45 L87.9827 1118.33 L83.0984 1118.33 L83.0984 1112.45 Z" fill="#000000" fill-rule="evenodd" fill-opacity="1" /><path clip-path="url(#clip500)" d="M111.015 1087.85 L99.2095 1106.3 L111.015 1106.3 L111.015 1087.85 M109.788 1083.77 L115.668 1083.77 L115.668 1106.3 L120.598 1106.3 L120.598 1110.19 L115.668 1110.19 L115.668 1118.33 L111.015 1118.33 L111.015 1110.19 L95.4132 1110.19 L95.4132 1105.67 L109.788 1083.77 Z" fill="#000000" fill-rule="evenodd" fill-opacity="1" /><path clip-path="url(#clip500)" d="M63.2606 815.305 Q59.6495 815.305 57.8208 818.869 Q56.0152 822.411 56.0152 829.541 Q56.0152 836.647 57.8208 840.212 Q59.6495 843.753 63.2606 843.753 Q66.8948 843.753 68.7004 840.212 Q70.5291 836.647 70.5291 829.541 Q70.5291 822.411 68.7004 818.869 Q66.8948 815.305 63.2606 815.305 M63.2606 811.601 Q69.0707 811.601 72.1263 816.207 Q75.205 820.791 75.205 829.541 Q75.205 838.267 72.1263 842.874 Q69.0707 847.457 63.2606 847.457 Q57.4504 847.457 54.3717 842.874 Q51.3162 838.267 51.3162 829.541 Q51.3162 820.791 54.3717 816.207 Q57.4504 811.601 63.2606 811.601 Z" fill="#000000" fill-rule="evenodd" fill-opacity="1" /><path clip-path="url(#clip500)" d="M83.4225 840.906 L88.3067 840.906 L88.3067 846.786 L83.4225 846.786 L83.4225 840.906 Z" fill="#000000" fill-rule="evenodd" fill-opacity="1" /><path clip-path="url(#clip500)" d="M109.071 827.642 Q105.922 827.642 104.071 829.795 Q102.242 831.948 102.242 835.698 Q102.242 839.425 104.071 841.601 Q105.922 843.753 109.071 843.753 Q112.219 843.753 114.047 841.601 Q115.899 839.425 115.899 835.698 Q115.899 831.948 114.047 829.795 Q112.219 827.642 109.071 827.642 M118.353 812.99 L118.353 817.249 Q116.594 816.416 114.788 815.976 Q113.006 815.536 111.246 815.536 Q106.617 815.536 104.163 818.661 Q101.733 821.786 101.385 828.105 Q102.751 826.091 104.811 825.027 Q106.871 823.939 109.348 823.939 Q114.557 823.939 117.566 827.11 Q120.598 830.258 120.598 835.698 Q120.598 841.022 117.45 844.24 Q114.302 847.457 109.071 847.457 Q103.075 847.457 99.9039 842.874 Q96.7326 838.267 96.7326 829.541 Q96.7326 821.346 100.621 816.485 Q104.51 811.601 111.061 811.601 Q112.82 811.601 114.603 811.948 Q116.408 812.295 118.353 812.99 Z" fill="#000000" fill-rule="evenodd" fill-opacity="1" /><path clip-path="url(#clip500)" d="M63.5152 543.757 Q59.9041 543.757 58.0754 547.321 Q56.2699 550.863 56.2699 557.993 Q56.2699 565.099 58.0754 568.664 Q59.9041 572.206 63.5152 572.206 Q67.1494 572.206 68.955 568.664 Q70.7837 565.099 70.7837 557.993 Q70.7837 550.863 68.955 547.321 Q67.1494 543.757 63.5152 543.757 M63.5152 540.053 Q69.3254 540.053 72.3809 544.659 Q75.4596 549.243 75.4596 557.993 Q75.4596 566.719 72.3809 571.326 Q69.3254 575.909 63.5152 575.909 Q57.7051 575.909 54.6264 571.326 Q51.5708 566.719 51.5708 557.993 Q51.5708 549.243 54.6264 544.659 Q57.7051 540.053 63.5152 540.053 Z" fill="#000000" fill-rule="evenodd" fill-opacity="1" /><path clip-path="url(#clip500)" d="M83.6771 569.358 L88.5614 569.358 L88.5614 575.238 L83.6771 575.238 L83.6771 569.358 Z" fill="#000000" fill-rule="evenodd" fill-opacity="1" /><path clip-path="url(#clip500)" d="M108.746 558.826 Q105.413 558.826 103.492 560.608 Q101.594 562.391 101.594 565.516 Q101.594 568.641 103.492 570.423 Q105.413 572.206 108.746 572.206 Q112.08 572.206 114.001 570.423 Q115.922 568.618 115.922 565.516 Q115.922 562.391 114.001 560.608 Q112.103 558.826 108.746 558.826 M104.071 556.835 Q101.061 556.095 99.3715 554.034 Q97.7048 551.974 97.7048 549.011 Q97.7048 544.868 100.645 542.46 Q103.608 540.053 108.746 540.053 Q113.908 540.053 116.848 542.46 Q119.788 544.868 119.788 549.011 Q119.788 551.974 118.098 554.034 Q116.432 556.095 113.445 556.835 Q116.825 557.622 118.7 559.914 Q120.598 562.206 120.598 565.516 Q120.598 570.539 117.52 573.224 Q114.464 575.909 108.746 575.909 Q103.029 575.909 99.9502 573.224 Q96.8947 570.539 96.8947 565.516 Q96.8947 562.206 98.7928 559.914 Q100.691 557.622 104.071 556.835 M102.358 549.451 Q102.358 552.136 104.024 553.641 Q105.714 555.145 108.746 555.145 Q111.756 555.145 113.445 553.641 Q115.158 552.136 115.158 549.451 Q115.158 546.766 113.445 545.261 Q111.756 543.757 108.746 543.757 Q105.714 543.757 104.024 545.261 Q102.358 546.766 102.358 549.451 Z" fill="#000000" fill-rule="evenodd" fill-opacity="1" /><path clip-path="url(#clip500)" d="M54.2328 299.755 L61.8717 299.755 L61.8717 273.389 L53.5616 275.056 L53.5616 270.797 L61.8254 269.13 L66.5013 269.13 L66.5013 299.755 L74.1402 299.755 L74.1402 303.69 L54.2328 303.69 L54.2328 299.755 Z" fill="#000000" fill-rule="evenodd" fill-opacity="1" /><path clip-path="url(#clip500)" d="M83.5845 297.81 L88.4688 297.81 L88.4688 303.69 L83.5845 303.69 L83.5845 297.81 Z" fill="#000000" fill-rule="evenodd" fill-opacity="1" /><path clip-path="url(#clip500)" d="M108.654 272.209 Q105.043 272.209 103.214 275.774 Q101.409 279.315 101.409 286.445 Q101.409 293.551 103.214 297.116 Q105.043 300.658 108.654 300.658 Q112.288 300.658 114.094 297.116 Q115.922 293.551 115.922 286.445 Q115.922 279.315 114.094 275.774 Q112.288 272.209 108.654 272.209 M108.654 268.505 Q114.464 268.505 117.52 273.112 Q120.598 277.695 120.598 286.445 Q120.598 295.172 117.52 299.778 Q114.464 304.361 108.654 304.361 Q102.844 304.361 99.765 299.778 Q96.7095 295.172 96.7095 286.445 Q96.7095 277.695 99.765 273.112 Q102.844 268.505 108.654 268.505 Z" fill="#000000" fill-rule="evenodd" fill-opacity="1" /><polyline clip-path="url(#clip502)" style="stroke:#009af9; stroke-linecap:round; stroke-linejoin:round; stroke-width:4; stroke-opacity:1; fill:none" points="218.754,1445.72 232.242,1445.72 356.966,1445.72 431.92,1445.72 495.293,1445.72 564.133,1445.72 627.598,1445.72 695.639,1445.72 774.471,1445.72 844.528,1445.72 905.961,1445.72 972.94,1445.72 1040.32,1445.72 1114.81,1445.72 1185.69,1445.72 1259.39,1445.72 1321.42,1445.72 1397.17,1445.72 1466.55,1445.72 1530.63,1445.72 1595.54,1445.72 1668.29,1445.72 1734.21,1445.72 1809.69,1445.72 1879.57,1445.72 1948.47,1445.72 2015.36,1445.72 2083.94,1445.72 2159.07,1445.72 2268.21,1445.72 2290.6,1445.72 "/>
<path clip-path="url(#clip500)" d="M2007.5 198.898 L2279.55 198.898 L2279.55 95.2176 L2007.5 95.2176  Z" fill="#ffffff" fill-rule="evenodd" fill-opacity="1"/>
<polyline clip-path="url(#clip500)" style="stroke:#000000; stroke-linecap:round; stroke-linejoin:round; stroke-width:4; stroke-opacity:1; fill:none" points="2007.5,198.898 2279.55,198.898 2279.55,95.2176 2007.5,95.2176 2007.5,198.898 "/>
<polyline clip-path="url(#clip500)" style="stroke:#009af9; stroke-linecap:round; stroke-linejoin:round; stroke-width:4; stroke-opacity:1; fill:none" points="2031.91,147.058 2178.32,147.058 "/>
<path clip-path="url(#clip500)" d="M2216.56 166.745 Q2214.76 171.375 2213.04 172.787 Q2211.33 174.199 2208.46 174.199 L2205.06 174.199 L2205.06 170.634 L2207.56 170.634 Q2209.32 170.634 2210.29 169.8 Q2211.26 168.967 2212.44 165.865 L2213.2 163.921 L2202.72 138.412 L2207.23 138.412 L2215.33 158.689 L2223.44 138.412 L2227.95 138.412 L2216.56 166.745 Z" fill="#000000" fill-rule="evenodd" fill-opacity="1" /><path clip-path="url(#clip500)" d="M2235.24 160.402 L2242.88 160.402 L2242.88 134.037 L2234.57 135.703 L2234.57 131.444 L2242.83 129.778 L2247.51 129.778 L2247.51 160.402 L2255.15 160.402 L2255.15 164.338 L2235.24 164.338 L2235.24 160.402 Z" fill="#000000" fill-rule="evenodd" fill-opacity="1" /></svg>
