<?xml version="1.0" encoding="utf-8"?>
<svg xmlns="http://www.w3.org/2000/svg" xmlns:xlink="http://www.w3.org/1999/xlink" width="600" height="400" viewBox="0 0 2400 1600">
<defs>
  <clipPath id="clip270">
    <rect x="0" y="0" width="2400" height="1600"/>
  </clipPath>
</defs>
<path clip-path="url(#clip270)" d="M0 1600 L2400 1600 L2400 0 L0 0  Z" fill="#ffffff" fill-rule="evenodd" fill-opacity="1"/>
<defs>
  <clipPath id="clip271">
    <rect x="480" y="0" width="1681" height="1600"/>
  </clipPath>
</defs>
<path clip-path="url(#clip270)" d="M155.765 1423.18 L2352.76 1423.18 L2352.76 47.2441 L155.765 47.2441  Z" fill="#ffffff" fill-rule="evenodd" fill-opacity="1"/>
<defs>
  <clipPath id="clip272">
    <rect x="155" y="47" width="2198" height="1377"/>
  </clipPath>
</defs>
<polyline clip-path="url(#clip272)" style="stroke:#000000; stroke-linecap:round; stroke-linejoin:round; stroke-width:2; stroke-opacity:0.1; fill:none" points="217.944,1423.18 217.944,47.2441 "/>
<polyline clip-path="url(#clip272)" style="stroke:#000000; stroke-linecap:round; stroke-linejoin:round; stroke-width:2; stroke-opacity:0.1; fill:none" points="547.814,1423.18 547.814,47.2441 "/>
<polyline clip-path="url(#clip272)" style="stroke:#000000; stroke-linecap:round; stroke-linejoin:round; stroke-width:2; stroke-opacity:0.1; fill:none" points="877.683,1423.18 877.683,47.2441 "/>
<polyline clip-path="url(#clip272)" style="stroke:#000000; stroke-linecap:round; stroke-linejoin:round; stroke-width:2; stroke-opacity:0.1; fill:none" points="1207.55,1423.18 1207.55,47.2441 "/>
<polyline clip-path="url(#clip272)" style="stroke:#000000; stroke-linecap:round; stroke-linejoin:round; stroke-width:2; stroke-opacity:0.1; fill:none" points="1537.42,1423.18 1537.42,47.2441 "/>
<polyline clip-path="url(#clip272)" style="stroke:#000000; stroke-linecap:round; stroke-linejoin:round; stroke-width:2; stroke-opacity:0.1; fill:none" points="1867.29,1423.18 1867.29,47.2441 "/>
<polyline clip-path="url(#clip272)" style="stroke:#000000; stroke-linecap:round; stroke-linejoin:round; stroke-width:2; stroke-opacity:0.1; fill:none" points="2197.16,1423.18 2197.16,47.2441 "/>
<polyline clip-path="url(#clip270)" style="stroke:#000000; stroke-linecap:round; stroke-linejoin:round; stroke-width:4; stroke-opacity:1; fill:none" points="155.765,1423.18 2352.76,1423.18 "/>
<polyline clip-path="url(#clip270)" style="stroke:#000000; stroke-linecap:round; stroke-linejoin:round; stroke-width:4; stroke-opacity:1; fill:none" points="217.944,1423.18 217.944,1404.28 "/>
<polyline clip-path="url(#clip270)" style="stroke:#000000; stroke-linecap:round; stroke-linejoin:round; stroke-width:4; stroke-opacity:1; fill:none" points="547.814,1423.18 547.814,1404.28 "/>
<polyline clip-path="url(#clip270)" style="stroke:#000000; stroke-linecap:round; stroke-linejoin:round; stroke-width:4; stroke-opacity:1; fill:none" points="877.683,1423.18 877.683,1404.28 "/>
<polyline clip-path="url(#clip270)" style="stroke:#000000; stroke-linecap:round; stroke-linejoin:round; stroke-width:4; stroke-opacity:1; fill:none" points="1207.55,1423.18 1207.55,1404.28 "/>
<polyline clip-path="url(#clip270)" style="stroke:#000000; stroke-linecap:round; stroke-linejoin:round; stroke-width:4; stroke-opacity:1; fill:none" points="1537.42,1423.18 1537.42,1404.28 "/>
<polyline clip-path="url(#clip270)" style="stroke:#000000; stroke-linecap:round; stroke-linejoin:round; stroke-width:4; stroke-opacity:1; fill:none" points="1867.29,1423.18 1867.29,1404.28 "/>
<polyline clip-path="url(#clip270)" style="stroke:#000000; stroke-linecap:round; stroke-linejoin:round; stroke-width:4; stroke-opacity:1; fill:none" points="2197.16,1423.18 2197.16,1404.28 "/>
<path clip-path="url(#clip270)" d="M217.944 1454.1 Q214.333 1454.1 212.504 1457.66 Q210.699 1461.2 210.699 1468.33 Q210.699 1475.44 212.504 1479.01 Q214.333 1482.55 217.944 1482.55 Q221.578 1482.55 223.384 1479.01 Q225.212 1475.44 225.212 1468.33 Q225.212 1461.2 223.384 1457.66 Q221.578 1454.1 217.944 1454.1 M217.944 1450.39 Q223.754 1450.39 226.81 1455 Q229.888 1459.58 229.888 1468.33 Q229.888 1477.06 226.81 1481.67 Q223.754 1486.25 217.944 1486.25 Q212.134 1486.25 209.055 1481.67 Q206 1477.06 206 1468.33 Q206 1459.58 209.055 1455 Q212.134 1450.39 217.944 1450.39 Z" fill="#000000" fill-rule="evenodd" fill-opacity="1" /><path clip-path="url(#clip270)" d="M538.196 1481.64 L545.835 1481.64 L545.835 1455.28 L537.524 1456.95 L537.524 1452.69 L545.788 1451.02 L550.464 1451.02 L550.464 1481.64 L558.103 1481.64 L558.103 1485.58 L538.196 1485.58 L538.196 1481.64 Z" fill="#000000" fill-rule="evenodd" fill-opacity="1" /><path clip-path="url(#clip270)" d="M872.336 1481.64 L888.656 1481.64 L888.656 1485.58 L866.711 1485.58 L866.711 1481.64 Q869.373 1478.89 873.957 1474.26 Q878.563 1469.61 879.744 1468.27 Q881.989 1465.74 882.869 1464.01 Q883.771 1462.25 883.771 1460.56 Q883.771 1457.8 881.827 1456.07 Q879.906 1454.33 876.804 1454.33 Q874.605 1454.33 872.151 1455.09 Q869.721 1455.86 866.943 1457.41 L866.943 1452.69 Q869.767 1451.55 872.221 1450.97 Q874.674 1450.39 876.711 1450.39 Q882.082 1450.39 885.276 1453.08 Q888.47 1455.77 888.47 1460.26 Q888.47 1462.39 887.66 1464.31 Q886.873 1466.2 884.767 1468.8 Q884.188 1469.47 881.086 1472.69 Q877.984 1475.88 872.336 1481.64 Z" fill="#000000" fill-rule="evenodd" fill-opacity="1" /><path clip-path="url(#clip270)" d="M1211.8 1466.95 Q1215.16 1467.66 1217.03 1469.93 Q1218.93 1472.2 1218.93 1475.53 Q1218.93 1480.65 1215.41 1483.45 Q1211.89 1486.25 1205.41 1486.25 Q1203.24 1486.25 1200.92 1485.81 Q1198.63 1485.39 1196.18 1484.54 L1196.18 1480.02 Q1198.12 1481.16 1200.44 1481.74 Q1202.75 1482.32 1205.27 1482.32 Q1209.67 1482.32 1211.96 1480.58 Q1214.28 1478.84 1214.28 1475.53 Q1214.28 1472.48 1212.13 1470.77 Q1210 1469.03 1206.18 1469.03 L1202.15 1469.03 L1202.15 1465.19 L1206.36 1465.19 Q1209.81 1465.19 1211.64 1463.82 Q1213.47 1462.43 1213.47 1459.84 Q1213.47 1457.18 1211.57 1455.77 Q1209.69 1454.33 1206.18 1454.33 Q1204.25 1454.33 1202.06 1454.75 Q1199.86 1455.16 1197.22 1456.04 L1197.22 1451.88 Q1199.88 1451.14 1202.19 1450.77 Q1204.53 1450.39 1206.59 1450.39 Q1211.92 1450.39 1215.02 1452.83 Q1218.12 1455.23 1218.12 1459.35 Q1218.12 1462.22 1216.48 1464.21 Q1214.83 1466.18 1211.8 1466.95 Z" fill="#000000" fill-rule="evenodd" fill-opacity="1" /><path clip-path="url(#clip270)" d="M1540.43 1455.09 L1528.63 1473.54 L1540.43 1473.54 L1540.43 1455.09 M1539.21 1451.02 L1545.09 1451.02 L1545.09 1473.54 L1550.02 1473.54 L1550.02 1477.43 L1545.09 1477.43 L1545.09 1485.58 L1540.43 1485.58 L1540.43 1477.43 L1524.83 1477.43 L1524.83 1472.92 L1539.21 1451.02 Z" fill="#000000" fill-rule="evenodd" fill-opacity="1" /><path clip-path="url(#clip270)" d="M1857.57 1451.02 L1875.93 1451.02 L1875.93 1454.96 L1861.85 1454.96 L1861.85 1463.43 Q1862.87 1463.08 1863.89 1462.92 Q1864.91 1462.73 1865.93 1462.73 Q1871.71 1462.73 1875.09 1465.9 Q1878.47 1469.08 1878.47 1474.49 Q1878.47 1480.07 1875 1483.17 Q1871.53 1486.25 1865.21 1486.25 Q1863.03 1486.25 1860.77 1485.88 Q1858.52 1485.51 1856.11 1484.77 L1856.11 1480.07 Q1858.2 1481.2 1860.42 1481.76 Q1862.64 1482.32 1865.12 1482.32 Q1869.12 1482.32 1871.46 1480.21 Q1873.8 1478.1 1873.8 1474.49 Q1873.8 1470.88 1871.46 1468.77 Q1869.12 1466.67 1865.12 1466.67 Q1863.24 1466.67 1861.37 1467.08 Q1859.52 1467.5 1857.57 1468.38 L1857.57 1451.02 Z" fill="#000000" fill-rule="evenodd" fill-opacity="1" /><path clip-path="url(#clip270)" d="M2197.57 1466.44 Q2194.42 1466.44 2192.57 1468.59 Q2190.74 1470.74 2190.74 1474.49 Q2190.74 1478.22 2192.57 1480.39 Q2194.42 1482.55 2197.57 1482.55 Q2200.72 1482.55 2202.54 1480.39 Q2204.4 1478.22 2204.4 1474.49 Q2204.4 1470.74 2202.54 1468.59 Q2200.72 1466.44 2197.57 1466.44 M2206.85 1451.78 L2206.85 1456.04 Q2205.09 1455.21 2203.29 1454.77 Q2201.5 1454.33 2199.74 1454.33 Q2195.11 1454.33 2192.66 1457.45 Q2190.23 1460.58 2189.88 1466.9 Q2191.25 1464.89 2193.31 1463.82 Q2195.37 1462.73 2197.85 1462.73 Q2203.05 1462.73 2206.06 1465.9 Q2209.1 1469.05 2209.1 1474.49 Q2209.1 1479.82 2205.95 1483.03 Q2202.8 1486.25 2197.57 1486.25 Q2191.57 1486.25 2188.4 1481.67 Q2185.23 1477.06 2185.23 1468.33 Q2185.23 1460.14 2189.12 1455.28 Q2193.01 1450.39 2199.56 1450.39 Q2201.32 1450.39 2203.1 1450.74 Q2204.91 1451.09 2206.85 1451.78 Z" fill="#000000" fill-rule="evenodd" fill-opacity="1" /><path clip-path="url(#clip270)" d="M1238.44 1518.52 L1244.33 1518.52 L1244.33 1547.77 L1261.8 1532.4 L1269.28 1532.4 L1250.38 1549.07 L1270.08 1568.04 L1262.44 1568.04 L1244.33 1550.63 L1244.33 1568.04 L1238.44 1568.04 L1238.44 1518.52 Z" fill="#000000" fill-rule="evenodd" fill-opacity="1" /><polyline clip-path="url(#clip272)" style="stroke:#000000; stroke-linecap:round; stroke-linejoin:round; stroke-width:2; stroke-opacity:0.1; fill:none" points="155.765,1205.61 2352.76,1205.61 "/>
<polyline clip-path="url(#clip272)" style="stroke:#000000; stroke-linecap:round; stroke-linejoin:round; stroke-width:2; stroke-opacity:0.1; fill:none" points="155.765,982.294 2352.76,982.294 "/>
<polyline clip-path="url(#clip272)" style="stroke:#000000; stroke-linecap:round; stroke-linejoin:round; stroke-width:2; stroke-opacity:0.1; fill:none" points="155.765,758.981 2352.76,758.981 "/>
<polyline clip-path="url(#clip272)" style="stroke:#000000; stroke-linecap:round; stroke-linejoin:round; stroke-width:2; stroke-opacity:0.1; fill:none" points="155.765,535.668 2352.76,535.668 "/>
<polyline clip-path="url(#clip272)" style="stroke:#000000; stroke-linecap:round; stroke-linejoin:round; stroke-width:2; stroke-opacity:0.1; fill:none" points="155.765,312.355 2352.76,312.355 "/>
<polyline clip-path="url(#clip272)" style="stroke:#000000; stroke-linecap:round; stroke-linejoin:round; stroke-width:2; stroke-opacity:0.1; fill:none" points="155.765,89.0424 2352.76,89.0424 "/>
<polyline clip-path="url(#clip270)" style="stroke:#000000; stroke-linecap:round; stroke-linejoin:round; stroke-width:4; stroke-opacity:1; fill:none" points="155.765,1423.18 155.765,47.2441 "/>
<polyline clip-path="url(#clip270)" style="stroke:#000000; stroke-linecap:round; stroke-linejoin:round; stroke-width:4; stroke-opacity:1; fill:none" points="155.765,1205.61 174.663,1205.61 "/>
<polyline clip-path="url(#clip270)" style="stroke:#000000; stroke-linecap:round; stroke-linejoin:round; stroke-width:4; stroke-opacity:1; fill:none" points="155.765,982.294 174.663,982.294 "/>
<polyline clip-path="url(#clip270)" style="stroke:#000000; stroke-linecap:round; stroke-linejoin:round; stroke-width:4; stroke-opacity:1; fill:none" points="155.765,758.981 174.663,758.981 "/>
<polyline clip-path="url(#clip270)" style="stroke:#000000; stroke-linecap:round; stroke-linejoin:round; stroke-width:4; stroke-opacity:1; fill:none" points="155.765,535.668 174.663,535.668 "/>
<polyline clip-path="url(#clip270)" style="stroke:#000000; stroke-linecap:round; stroke-linejoin:round; stroke-width:4; stroke-opacity:1; fill:none" points="155.765,312.355 174.663,312.355 "/>
<polyline clip-path="url(#clip270)" style="stroke:#000000; stroke-linecap:round; stroke-linejoin:round; stroke-width:4; stroke-opacity:1; fill:none" points="155.765,89.0424 174.663,89.0424 "/>
<path clip-path="url(#clip270)" d="M63.5847 1191.4 Q59.9736 1191.4 58.1449 1194.97 Q56.3393 1198.51 56.3393 1205.64 Q56.3393 1212.75 58.1449 1216.31 Q59.9736 1219.85 63.5847 1219.85 Q67.2189 1219.85 69.0244 1216.31 Q70.8531 1212.75 70.8531 1205.64 Q70.8531 1198.51 69.0244 1194.97 Q67.2189 1191.4 63.5847 1191.4 M63.5847 1187.7 Q69.3948 1187.7 72.4503 1192.31 Q75.529 1196.89 75.529 1205.64 Q75.529 1214.37 72.4503 1218.97 Q69.3948 1223.56 63.5847 1223.56 Q57.7745 1223.56 54.6958 1218.97 Q51.6403 1214.37 51.6403 1205.64 Q51.6403 1196.89 54.6958 1192.31 Q57.7745 1187.7 63.5847 1187.7 Z" fill="#000000" fill-rule="evenodd" fill-opacity="1" /><path clip-path="url(#clip270)" d="M83.7466 1217.01 L88.6308 1217.01 L88.6308 1222.89 L83.7466 1222.89 L83.7466 1217.01 Z" fill="#000000" fill-rule="evenodd" fill-opacity="1" /><path clip-path="url(#clip270)" d="M98.8622 1188.33 L117.219 1188.33 L117.219 1192.26 L103.145 1192.26 L103.145 1200.73 Q104.163 1200.39 105.182 1200.22 Q106.2 1200.04 107.219 1200.04 Q113.006 1200.04 116.385 1203.21 Q119.765 1206.38 119.765 1211.8 Q119.765 1217.38 116.293 1220.48 Q112.82 1223.56 106.501 1223.56 Q104.325 1223.56 102.057 1223.19 Q99.8113 1222.82 97.4039 1222.08 L97.4039 1217.38 Q99.4872 1218.51 101.709 1219.07 Q103.932 1219.62 106.408 1219.62 Q110.413 1219.62 112.751 1217.52 Q115.089 1215.41 115.089 1211.8 Q115.089 1208.19 112.751 1206.08 Q110.413 1203.97 106.408 1203.97 Q104.534 1203.97 102.659 1204.39 Q100.807 1204.81 98.8622 1205.69 L98.8622 1188.33 Z" fill="#000000" fill-rule="evenodd" fill-opacity="1" /><path clip-path="url(#clip270)" d="M53.3995 995.638 L61.0384 995.638 L61.0384 969.273 L52.7282 970.939 L52.7282 966.68 L60.9921 965.014 L65.668 965.014 L65.668 995.638 L73.3068 995.638 L73.3068 999.574 L53.3995 999.574 L53.3995 995.638 Z" fill="#000000" fill-rule="evenodd" fill-opacity="1" /><path clip-path="url(#clip270)" d="M82.7512 993.694 L87.6354 993.694 L87.6354 999.574 L82.7512 999.574 L82.7512 993.694 Z" fill="#000000" fill-rule="evenodd" fill-opacity="1" /><path clip-path="url(#clip270)" d="M107.821 968.092 Q104.209 968.092 102.381 971.657 Q100.575 975.199 100.575 982.328 Q100.575 989.435 102.381 992.999 Q104.209 996.541 107.821 996.541 Q111.455 996.541 113.26 992.999 Q115.089 989.435 115.089 982.328 Q115.089 975.199 113.26 971.657 Q111.455 968.092 107.821 968.092 M107.821 964.389 Q113.631 964.389 116.686 968.995 Q119.765 973.578 119.765 982.328 Q119.765 991.055 116.686 995.661 Q113.631 1000.24 107.821 1000.24 Q102.01 1000.24 98.9317 995.661 Q95.8761 991.055 95.8761 982.328 Q95.8761 973.578 98.9317 968.995 Q102.01 964.389 107.821 964.389 Z" fill="#000000" fill-rule="evenodd" fill-opacity="1" /><path clip-path="url(#clip270)" d="M54.3949 772.326 L62.0337 772.326 L62.0337 745.96 L53.7236 747.627 L53.7236 743.367 L61.9874 741.701 L66.6633 741.701 L66.6633 772.326 L74.3022 772.326 L74.3022 776.261 L54.3949 776.261 L54.3949 772.326 Z" fill="#000000" fill-rule="evenodd" fill-opacity="1" /><path clip-path="url(#clip270)" d="M83.7466 770.381 L88.6308 770.381 L88.6308 776.261 L83.7466 776.261 L83.7466 770.381 Z" fill="#000000" fill-rule="evenodd" fill-opacity="1" /><path clip-path="url(#clip270)" d="M98.8622 741.701 L117.219 741.701 L117.219 745.636 L103.145 745.636 L103.145 754.108 Q104.163 753.761 105.182 753.599 Q106.2 753.414 107.219 753.414 Q113.006 753.414 116.385 756.585 Q119.765 759.756 119.765 765.173 Q119.765 770.751 116.293 773.853 Q112.82 776.932 106.501 776.932 Q104.325 776.932 102.057 776.562 Q99.8113 776.191 97.4039 775.451 L97.4039 770.751 Q99.4872 771.886 101.709 772.441 Q103.932 772.997 106.408 772.997 Q110.413 772.997 112.751 770.89 Q115.089 768.784 115.089 765.173 Q115.089 761.562 112.751 759.455 Q110.413 757.349 106.408 757.349 Q104.534 757.349 102.659 757.765 Q100.807 758.182 98.8622 759.062 L98.8622 741.701 Z" fill="#000000" fill-rule="evenodd" fill-opacity="1" /><path clip-path="url(#clip270)" d="M56.6171 549.013 L72.9365 549.013 L72.9365 552.948 L50.9921 552.948 L50.9921 549.013 Q53.6541 546.258 58.2375 541.629 Q62.8439 536.976 64.0245 535.633 Q66.2698 533.11 67.1494 531.374 Q68.0522 529.615 68.0522 527.925 Q68.0522 525.17 66.1078 523.434 Q64.1865 521.698 61.0847 521.698 Q58.8856 521.698 56.4319 522.462 Q54.0014 523.226 51.2236 524.777 L51.2236 520.055 Q54.0477 518.92 56.5014 518.342 Q58.955 517.763 60.9921 517.763 Q66.3624 517.763 69.5568 520.448 Q72.7513 523.133 72.7513 527.624 Q72.7513 529.754 71.9411 531.675 Q71.1541 533.573 69.0476 536.166 Q68.4689 536.837 65.367 540.055 Q62.2652 543.249 56.6171 549.013 Z" fill="#000000" fill-rule="evenodd" fill-opacity="1" /><path clip-path="url(#clip270)" d="M82.7512 547.068 L87.6354 547.068 L87.6354 552.948 L82.7512 552.948 L82.7512 547.068 Z" fill="#000000" fill-rule="evenodd" fill-opacity="1" /><path clip-path="url(#clip270)" d="M107.821 521.467 Q104.209 521.467 102.381 525.031 Q100.575 528.573 100.575 535.703 Q100.575 542.809 102.381 546.374 Q104.209 549.916 107.821 549.916 Q111.455 549.916 113.26 546.374 Q115.089 542.809 115.089 535.703 Q115.089 528.573 113.26 525.031 Q111.455 521.467 107.821 521.467 M107.821 517.763 Q113.631 517.763 116.686 522.369 Q119.765 526.953 119.765 535.703 Q119.765 544.429 116.686 549.036 Q113.631 553.619 107.821 553.619 Q102.01 553.619 98.9317 549.036 Q95.8761 544.429 95.8761 535.703 Q95.8761 526.953 98.9317 522.369 Q102.01 517.763 107.821 517.763 Z" fill="#000000" fill-rule="evenodd" fill-opacity="1" /><path clip-path="url(#clip270)" d="M57.6125 325.7 L73.9318 325.7 L73.9318 329.635 L51.9875 329.635 L51.9875 325.7 Q54.6495 322.945 59.2328 318.316 Q63.8393 313.663 65.0198 312.32 Q67.2652 309.797 68.1448 308.061 Q69.0476 306.302 69.0476 304.612 Q69.0476 301.858 67.1032 300.121 Q65.1819 298.385 62.08 298.385 Q59.881 298.385 57.4273 299.149 Q54.9967 299.913 52.219 301.464 L52.219 296.742 Q55.043 295.608 57.4967 295.029 Q59.9504 294.45 61.9874 294.45 Q67.3578 294.45 70.5522 297.135 Q73.7466 299.821 73.7466 304.311 Q73.7466 306.441 72.9365 308.362 Q72.1494 310.26 70.0429 312.853 Q69.4642 313.524 66.3624 316.742 Q63.2606 319.936 57.6125 325.7 Z" fill="#000000" fill-rule="evenodd" fill-opacity="1" /><path clip-path="url(#clip270)" d="M83.7466 323.756 L88.6308 323.756 L88.6308 329.635 L83.7466 329.635 L83.7466 323.756 Z" fill="#000000" fill-rule="evenodd" fill-opacity="1" /><path clip-path="url(#clip270)" d="M98.8622 295.075 L117.219 295.075 L117.219 299.01 L103.145 299.01 L103.145 307.483 Q104.163 307.135 105.182 306.973 Q106.2 306.788 107.219 306.788 Q113.006 306.788 116.385 309.959 Q119.765 313.131 119.765 318.547 Q119.765 324.126 116.293 327.228 Q112.82 330.306 106.501 330.306 Q104.325 330.306 102.057 329.936 Q99.8113 329.566 97.4039 328.825 L97.4039 324.126 Q99.4872 325.26 101.709 325.816 Q103.932 326.371 106.408 326.371 Q110.413 326.371 112.751 324.265 Q115.089 322.158 115.089 318.547 Q115.089 314.936 112.751 312.83 Q110.413 310.723 106.408 310.723 Q104.534 310.723 102.659 311.14 Q100.807 311.557 98.8622 312.436 L98.8622 295.075 Z" fill="#000000" fill-rule="evenodd" fill-opacity="1" /><path clip-path="url(#clip270)" d="M66.7559 87.6883 Q70.1124 88.4058 71.9874 90.6744 Q73.8855 92.9429 73.8855 96.2762 Q73.8855 101.392 70.367 104.193 Q66.8485 106.994 60.3671 106.994 Q58.1912 106.994 55.8764 106.554 Q53.5847 106.137 51.131 105.281 L51.131 100.767 Q53.0754 101.901 55.3903 102.48 Q57.7051 103.059 60.2282 103.059 Q64.6263 103.059 66.918 101.322 Q69.2328 99.5863 69.2328 96.2762 Q69.2328 93.2206 67.08 91.5077 Q64.9504 89.7716 61.131 89.7716 L57.1032 89.7716 L57.1032 85.929 L61.3161 85.929 Q64.7652 85.929 66.5939 84.5633 Q68.4226 83.1744 68.4226 80.5818 Q68.4226 77.9198 66.5245 76.5078 Q64.6495 75.0726 61.131 75.0726 Q59.2097 75.0726 57.0106 75.4892 Q54.8115 75.9059 52.1727 76.7855 L52.1727 72.6189 Q54.8347 71.8782 57.1495 71.5078 Q59.4875 71.1374 61.5476 71.1374 Q66.8717 71.1374 69.9735 73.568 Q73.0753 75.9754 73.0753 80.0957 Q73.0753 82.9661 71.4318 84.9568 Q69.7883 86.9244 66.7559 87.6883 Z" fill="#000000" fill-rule="evenodd" fill-opacity="1" /><path clip-path="url(#clip270)" d="M82.7512 100.443 L87.6354 100.443 L87.6354 106.322 L82.7512 106.322 L82.7512 100.443 Z" fill="#000000" fill-rule="evenodd" fill-opacity="1" /><path clip-path="url(#clip270)" d="M107.821 74.8411 Q104.209 74.8411 102.381 78.4059 Q100.575 81.9475 100.575 89.0771 Q100.575 96.1836 102.381 99.7484 Q104.209 103.29 107.821 103.29 Q111.455 103.29 113.26 99.7484 Q115.089 96.1836 115.089 89.0771 Q115.089 81.9475 113.26 78.4059 Q111.455 74.8411 107.821 74.8411 M107.821 71.1374 Q113.631 71.1374 116.686 75.7439 Q119.765 80.3272 119.765 89.0771 Q119.765 97.8039 116.686 102.41 Q113.631 106.994 107.821 106.994 Q102.01 106.994 98.9317 102.41 Q95.8761 97.8039 95.8761 89.0771 Q95.8761 80.3272 98.9317 75.7439 Q102.01 71.1374 107.821 71.1374 Z" fill="#000000" fill-rule="evenodd" fill-opacity="1" /><polyline clip-path="url(#clip272)" style="stroke:#009af9; stroke-linecap:round; stroke-linejoin:round; stroke-width:4; stroke-opacity:1; fill:none" points="217.944,86.1857 221.317,86.2012 224.691,86.2479 228.064,86.3257 231.438,86.4347 262.631,88.9153 293.823,94.0485 309.42,97.6053 325.016,101.819 340.613,106.686 356.209,112.203 374.955,119.688 393.7,128.097 412.446,137.422 431.191,147.651 447.041,156.997 462.89,166.974 478.739,177.574 494.588,188.787 511.805,201.653 529.021,215.219 546.238,229.472 563.455,244.397 595.199,273.624 626.943,304.974 660.977,340.807 695.01,378.778 714.726,401.68 734.441,425.198 754.157,449.29 773.872,473.909 843.955,564.911 905.412,647.526 938.914,692.782 972.416,737.57 1006.12,781.538 1039.82,823.672 1058.45,845.856 1077.08,867.035 1095.71,887.017 1114.34,905.599 1132.07,921.78 1149.79,936.301 1167.52,948.969 1185.25,959.592 1194.46,964.249 1203.68,968.284 1212.89,971.678 1222.11,974.413 1231.33,976.475 1240.54,977.853 1249.76,978.54 1258.97,978.533 1274.49,976.951 1290,973.426 1305.52,968.01 1321.03,960.781 1339.98,949.64 1358.92,936.154 1377.86,920.553 1396.8,903.076 1414.16,885.619 1431.51,866.961 1448.86,847.266 1466.21,826.688 1498.27,786.826 1530.32,745.215 1562.79,701.955 1595.26,658.148 1631.64,608.992 1668.03,560.308 1701,516.995 1733.98,474.755 1752.85,451.157 1771.73,428.04 1790.61,405.443 1809.48,383.405 1844.44,344.187 1879.39,307.207 1896.62,289.857 1913.85,273.115 1931.09,257 1948.32,241.529 1965.05,227.139 1981.78,213.386 1998.51,200.283 2015.24,187.843 2032.39,175.79 2049.54,164.458 2066.69,153.858 2083.84,143.999 2102.63,134.06 2121.42,125.034 2140.21,116.93 2159,109.759 2186.29,101.018 2213.59,94.2799 2240.88,89.5609 2268.18,86.8717 2273.78,86.5716 2279.38,86.3572 2284.98,86.2286 2290.58,86.1857 "/>
<polyline clip-path="url(#clip272)" style="stroke:#e26f46; stroke-linecap:round; stroke-linejoin:round; stroke-width:4; stroke-opacity:1; fill:none" points="217.944,1026.96 221.317,1026.97 224.691,1026.99 228.064,1027.04 231.438,1027.11 247.034,1027.65 262.631,1028.59 278.227,1029.93 293.823,1031.66 309.42,1033.78 325.016,1036.28 340.613,1039.17 356.209,1042.42 374.955,1046.81 393.7,1051.72 412.446,1057.12 431.191,1063 447.041,1068.34 462.89,1073.99 478.739,1079.94 494.588,1086.18 511.805,1093.28 529.021,1100.68 546.238,1108.36 563.455,1116.31 595.199,1131.6 626.943,1147.56 695.01,1183.41 773.872,1226.02 808.914,1244.72 843.955,1262.98 874.684,1278.47 905.412,1293.33 922.163,1301.11 938.914,1308.65 955.665,1315.93 972.416,1322.92 989.267,1329.65 1006.12,1336.05 1022.97,1342.11 1039.82,1347.82 1058.45,1353.7 1077.08,1359.1 1095.71,1364.01 1114.34,1368.42 1132.07,1372.14 1149.79,1375.37 1167.52,1378.12 1185.25,1380.36 1203.68,1382.16 1222.11,1383.41 1240.54,1384.1 1258.97,1384.24 1274.49,1383.92 1290,1383.21 1305.52,1382.1 1321.03,1380.61 1339.98,1378.26 1358.92,1375.34 1377.86,1371.86 1396.8,1367.84 1414.16,1363.68 1431.51,1359.08 1448.86,1354.06 1466.21,1348.63 1482.24,1343.26 1498.27,1337.57 1514.29,1331.57 1530.32,1325.26 1546.55,1318.59 1562.79,1311.65 1579.02,1304.45 1595.26,1297.01 1631.64,1279.55 1668.03,1261.2 1701,1243.98 1733.98,1226.38 1809.48,1185.58 1879.39,1148.68 1913.85,1131.33 1948.32,1114.79 1965.05,1107.11 1981.78,1099.68 1998.51,1092.53 2015.24,1085.66 2032.39,1078.94 2049.54,1072.57 2066.69,1066.55 2083.84,1060.91 2102.63,1055.18 2121.42,1049.94 2140.21,1045.2 2159,1040.98 2172.64,1038.25 2186.29,1035.81 2199.94,1033.66 2213.59,1031.8 2240.88,1028.98 2268.18,1027.37 2273.78,1027.19 2279.38,1027.06 2284.98,1026.98 2290.58,1026.96 "/>
<path clip-path="url(#clip270)" d="M1829.5 1377.32 L2279.52 1377.32 L2279.52 1221.8 L1829.5 1221.8  Z" fill="#ffffff" fill-rule="evenodd" fill-opacity="1"/>
<polyline clip-path="url(#clip270)" style="stroke:#000000; stroke-linecap:round; stroke-linejoin:round; stroke-width:4; stroke-opacity:1; fill:none" points="1829.5,1377.32 2279.52,1377.32 2279.52,1221.8 1829.5,1221.8 1829.5,1377.32 "/>
<polyline clip-path="url(#clip270)" style="stroke:#009af9; stroke-linecap:round; stroke-linejoin:round; stroke-width:4; stroke-opacity:1; fill:none" points="1853.91,1273.64 2000.38,1273.64 "/>
<path clip-path="url(#clip270)" d="M2024.79 1254.9 L2029.05 1254.9 L2029.05 1290.92 L2024.79 1290.92 L2024.79 1254.9 Z" fill="#000000" fill-rule="evenodd" fill-opacity="1" /><path clip-path="url(#clip270)" d="M2049.74 1277.88 Q2044.58 1277.88 2042.59 1279.06 Q2040.6 1280.24 2040.6 1283.09 Q2040.6 1285.36 2042.08 1286.7 Q2043.59 1288.02 2046.15 1288.02 Q2049.7 1288.02 2051.83 1285.52 Q2053.98 1283 2053.98 1278.83 L2053.98 1277.88 L2049.74 1277.88 M2058.24 1276.12 L2058.24 1290.92 L2053.98 1290.92 L2053.98 1286.98 Q2052.52 1289.34 2050.34 1290.48 Q2048.17 1291.59 2045.02 1291.59 Q2041.04 1291.59 2038.68 1289.36 Q2036.34 1287.12 2036.34 1283.37 Q2036.34 1278.99 2039.26 1276.77 Q2042.2 1274.55 2048.01 1274.55 L2053.98 1274.55 L2053.98 1274.13 Q2053.98 1271.19 2052.03 1269.6 Q2050.11 1267.98 2046.62 1267.98 Q2044.4 1267.98 2042.29 1268.51 Q2040.18 1269.04 2038.24 1270.11 L2038.24 1266.17 Q2040.58 1265.27 2042.78 1264.83 Q2044.97 1264.36 2047.06 1264.36 Q2052.68 1264.36 2055.46 1267.28 Q2058.24 1270.2 2058.24 1276.12 Z" fill="#000000" fill-rule="evenodd" fill-opacity="1" /><path clip-path="url(#clip270)" d="M2087.2 1269.97 Q2088.79 1267.1 2091.02 1265.73 Q2093.24 1264.36 2096.25 1264.36 Q2100.3 1264.36 2102.5 1267.21 Q2104.7 1270.04 2104.7 1275.27 L2104.7 1290.92 L2100.41 1290.92 L2100.41 1275.41 Q2100.41 1271.68 2099.09 1269.87 Q2097.77 1268.07 2095.07 1268.07 Q2091.76 1268.07 2089.83 1270.27 Q2087.91 1272.47 2087.91 1276.26 L2087.91 1290.92 L2083.63 1290.92 L2083.63 1275.41 Q2083.63 1271.66 2082.31 1269.87 Q2080.99 1268.07 2078.24 1268.07 Q2074.97 1268.07 2073.05 1270.29 Q2071.13 1272.49 2071.13 1276.26 L2071.13 1290.92 L2066.85 1290.92 L2066.85 1264.99 L2071.13 1264.99 L2071.13 1269.02 Q2072.59 1266.63 2074.63 1265.5 Q2076.66 1264.36 2079.46 1264.36 Q2082.29 1264.36 2084.26 1265.8 Q2086.25 1267.23 2087.2 1269.97 Z" fill="#000000" fill-rule="evenodd" fill-opacity="1" /><path clip-path="url(#clip270)" d="M2131.8 1277.98 Q2131.8 1273.28 2129.86 1270.61 Q2127.94 1267.93 2124.56 1267.93 Q2121.18 1267.93 2119.23 1270.61 Q2117.31 1273.28 2117.31 1277.98 Q2117.31 1282.67 2119.23 1285.36 Q2121.18 1288.02 2124.56 1288.02 Q2127.94 1288.02 2129.86 1285.36 Q2131.8 1282.67 2131.8 1277.98 M2117.31 1268.92 Q2118.65 1266.61 2120.69 1265.5 Q2122.75 1264.36 2125.6 1264.36 Q2130.32 1264.36 2133.26 1268.11 Q2136.22 1271.86 2136.22 1277.98 Q2136.22 1284.09 2133.26 1287.84 Q2130.32 1291.59 2125.6 1291.59 Q2122.75 1291.59 2120.69 1290.48 Q2118.65 1289.34 2117.31 1287.03 L2117.31 1290.92 L2113.03 1290.92 L2113.03 1254.9 L2117.31 1254.9 L2117.31 1268.92 Z" fill="#000000" fill-rule="evenodd" fill-opacity="1" /><path clip-path="url(#clip270)" d="M2174.88 1265.75 L2174.88 1269.78 Q2173.08 1268.86 2171.13 1268.39 Q2169.19 1267.93 2167.1 1267.93 Q2163.93 1267.93 2162.33 1268.9 Q2160.76 1269.87 2160.76 1271.82 Q2160.76 1273.3 2161.89 1274.16 Q2163.03 1274.99 2166.45 1275.75 L2167.91 1276.08 Q2172.45 1277.05 2174.35 1278.83 Q2176.27 1280.59 2176.27 1283.76 Q2176.27 1287.37 2173.4 1289.48 Q2170.55 1291.59 2165.55 1291.59 Q2163.47 1291.59 2161.2 1291.17 Q2158.95 1290.78 2156.45 1289.97 L2156.45 1285.57 Q2158.82 1286.79 2161.11 1287.42 Q2163.4 1288.02 2165.64 1288.02 Q2168.65 1288.02 2170.27 1287 Q2171.89 1285.96 2171.89 1284.09 Q2171.89 1282.35 2170.71 1281.42 Q2169.56 1280.5 2165.6 1279.64 L2164.12 1279.3 Q2160.16 1278.46 2158.4 1276.75 Q2156.64 1275.01 2156.64 1272 Q2156.64 1268.35 2159.23 1266.36 Q2161.83 1264.36 2166.59 1264.36 Q2168.95 1264.36 2171.04 1264.71 Q2173.12 1265.06 2174.88 1265.75 Z" fill="#000000" fill-rule="evenodd" fill-opacity="1" /><path clip-path="url(#clip270)" d="M2204.6 1275.27 L2204.6 1290.92 L2200.34 1290.92 L2200.34 1275.41 Q2200.34 1271.73 2198.91 1269.9 Q2197.47 1268.07 2194.6 1268.07 Q2191.15 1268.07 2189.16 1270.27 Q2187.17 1272.47 2187.17 1276.26 L2187.17 1290.92 L2182.89 1290.92 L2182.89 1254.9 L2187.17 1254.9 L2187.17 1269.02 Q2188.7 1266.68 2190.76 1265.52 Q2192.84 1264.36 2195.55 1264.36 Q2200.02 1264.36 2202.31 1267.14 Q2204.6 1269.9 2204.6 1275.27 Z" fill="#000000" fill-rule="evenodd" fill-opacity="1" /><path clip-path="url(#clip270)" d="M2213.1 1264.99 L2217.36 1264.99 L2217.36 1290.92 L2213.1 1290.92 L2213.1 1264.99 M2213.1 1254.9 L2217.36 1254.9 L2217.36 1260.29 L2213.1 1260.29 L2213.1 1254.9 Z" fill="#000000" fill-rule="evenodd" fill-opacity="1" /><path clip-path="url(#clip270)" d="M2239.39 1254.9 L2239.39 1258.44 L2235.32 1258.44 Q2233.03 1258.44 2232.13 1259.36 Q2231.25 1260.29 2231.25 1262.7 L2231.25 1264.99 L2238.26 1264.99 L2238.26 1268.3 L2231.25 1268.3 L2231.25 1290.92 L2226.96 1290.92 L2226.96 1268.3 L2222.89 1268.3 L2222.89 1264.99 L2226.96 1264.99 L2226.96 1263.18 Q2226.96 1258.86 2228.98 1256.89 Q2230.99 1254.9 2235.37 1254.9 L2239.39 1254.9 Z" fill="#000000" fill-rule="evenodd" fill-opacity="1" /><path clip-path="url(#clip270)" d="M2246.34 1257.63 L2246.34 1264.99 L2255.11 1264.99 L2255.11 1268.3 L2246.34 1268.3 L2246.34 1282.37 Q2246.34 1285.54 2247.2 1286.45 Q2248.07 1287.35 2250.74 1287.35 L2255.11 1287.35 L2255.11 1290.92 L2250.74 1290.92 Q2245.81 1290.92 2243.93 1289.09 Q2242.06 1287.23 2242.06 1282.37 L2242.06 1268.3 L2238.93 1268.3 L2238.93 1264.99 L2242.06 1264.99 L2242.06 1257.63 L2246.34 1257.63 Z" fill="#000000" fill-rule="evenodd" fill-opacity="1" /><polyline clip-path="url(#clip270)" style="stroke:#e26f46; stroke-linecap:round; stroke-linejoin:round; stroke-width:4; stroke-opacity:1; fill:none" points="1853.91,1325.48 2000.38,1325.48 "/>
<path clip-path="url(#clip270)" d="M2024.79 1316.83 L2029.3 1316.83 L2037.4 1338.59 L2045.51 1316.83 L2050.02 1316.83 L2040.3 1342.76 L2034.51 1342.76 L2024.79 1316.83 Z" fill="#000000" fill-rule="evenodd" fill-opacity="1" /><path clip-path="url(#clip270)" d="M2066.13 1306.78 Q2063.03 1312.11 2061.52 1317.32 Q2060.02 1322.52 2060.02 1327.87 Q2060.02 1333.22 2061.52 1338.47 Q2063.05 1343.7 2066.13 1349.01 L2062.43 1349.01 Q2058.96 1343.57 2057.22 1338.31 Q2055.51 1333.06 2055.51 1327.87 Q2055.51 1322.71 2057.22 1317.48 Q2058.93 1312.25 2062.43 1306.78 L2066.13 1306.78 Z" fill="#000000" fill-rule="evenodd" fill-opacity="1" /><path clip-path="url(#clip270)" d="M2074.23 1306.74 L2078.52 1306.74 L2078.52 1328.01 L2091.22 1316.83 L2096.66 1316.83 L2082.91 1328.96 L2097.24 1342.76 L2091.69 1342.76 L2078.52 1330.09 L2078.52 1342.76 L2074.23 1342.76 L2074.23 1306.74 Z" fill="#000000" fill-rule="evenodd" fill-opacity="1" /><path clip-path="url(#clip270)" d="M2101.18 1306.78 L2104.88 1306.78 Q2108.35 1312.25 2110.07 1317.48 Q2111.8 1322.71 2111.8 1327.87 Q2111.8 1333.06 2110.07 1338.31 Q2108.35 1343.57 2104.88 1349.01 L2101.18 1349.01 Q2104.26 1343.7 2105.76 1338.47 Q2107.29 1333.22 2107.29 1327.87 Q2107.29 1322.52 2105.76 1317.32 Q2104.26 1312.11 2101.18 1306.78 Z" fill="#000000" fill-rule="evenodd" fill-opacity="1" /></svg>
