<?xml version="1.0" encoding="utf-8"?>
<svg xmlns="http://www.w3.org/2000/svg" xmlns:xlink="http://www.w3.org/1999/xlink" width="600" height="400" viewBox="0 0 2400 1600">
<defs>
  <clipPath id="clip750">
    <rect x="0" y="0" width="2400" height="1600"/>
  </clipPath>
</defs>
<path clip-path="url(#clip750)" d="M0 1600 L2400 1600 L2400 0 L0 0  Z" fill="#ffffff" fill-rule="evenodd" fill-opacity="1"/>
<defs>
  <clipPath id="clip751">
    <rect x="480" y="0" width="1681" height="1600"/>
  </clipPath>
</defs>
<defs>
  <clipPath id="clip752">
    <rect x="250" y="47" width="2104" height="1377"/>
  </clipPath>
</defs>
<path clip-path="url(#clip750)" d="M250.028 1423.18 L2352.76 1423.18 L2352.76 47.2441 L250.028 47.2441  Z" fill="#ffffff" fill-rule="evenodd" fill-opacity="1"/>
<polyline clip-path="url(#clip752)" style="stroke:#000000; stroke-linecap:round; stroke-linejoin:round; stroke-width:2; stroke-opacity:0.1; fill:none" points="309.539,1423.18 309.539,47.2441 "/>
<polyline clip-path="url(#clip752)" style="stroke:#000000; stroke-linecap:round; stroke-linejoin:round; stroke-width:2; stroke-opacity:0.1; fill:none" points="970.774,1423.18 970.774,47.2441 "/>
<polyline clip-path="url(#clip752)" style="stroke:#000000; stroke-linecap:round; stroke-linejoin:round; stroke-width:2; stroke-opacity:0.1; fill:none" points="1632.01,1423.18 1632.01,47.2441 "/>
<polyline clip-path="url(#clip752)" style="stroke:#000000; stroke-linecap:round; stroke-linejoin:round; stroke-width:2; stroke-opacity:0.1; fill:none" points="2293.24,1423.18 2293.24,47.2441 "/>
<polyline clip-path="url(#clip750)" style="stroke:#000000; stroke-linecap:round; stroke-linejoin:round; stroke-width:4; stroke-opacity:1; fill:none" points="250.028,1423.18 2352.76,1423.18 "/>
<polyline clip-path="url(#clip750)" style="stroke:#000000; stroke-linecap:round; stroke-linejoin:round; stroke-width:4; stroke-opacity:1; fill:none" points="309.539,1423.18 309.539,1404.28 "/>
<polyline clip-path="url(#clip750)" style="stroke:#000000; stroke-linecap:round; stroke-linejoin:round; stroke-width:4; stroke-opacity:1; fill:none" points="970.774,1423.18 970.774,1404.28 "/>
<polyline clip-path="url(#clip750)" style="stroke:#000000; stroke-linecap:round; stroke-linejoin:round; stroke-width:4; stroke-opacity:1; fill:none" points="1632.01,1423.18 1632.01,1404.28 "/>
<polyline clip-path="url(#clip750)" style="stroke:#000000; stroke-linecap:round; stroke-linejoin:round; stroke-width:4; stroke-opacity:1; fill:none" points="2293.24,1423.18 2293.24,1404.28 "/>
<path clip-path="url(#clip750)" d="M309.539 1454.1 Q305.928 1454.1 304.1 1457.66 Q302.294 1461.2 302.294 1468.33 Q302.294 1475.44 304.1 1479.01 Q305.928 1482.55 309.539 1482.55 Q313.174 1482.55 314.979 1479.01 Q316.808 1475.44 316.808 1468.33 Q316.808 1461.2 314.979 1457.66 Q313.174 1454.1 309.539 1454.1 M309.539 1450.39 Q315.349 1450.39 318.405 1455 Q321.484 1459.58 321.484 1468.33 Q321.484 1477.06 318.405 1481.67 Q315.349 1486.25 309.539 1486.25 Q303.729 1486.25 300.65 1481.67 Q297.595 1477.06 297.595 1468.33 Q297.595 1459.58 300.65 1455 Q303.729 1450.39 309.539 1450.39 Z" fill="#000000" fill-rule="evenodd" fill-opacity="1" /><path clip-path="url(#clip750)" d="M930.393 1451.02 L948.749 1451.02 L948.749 1454.96 L934.675 1454.96 L934.675 1463.43 Q935.694 1463.08 936.712 1462.92 Q937.731 1462.73 938.749 1462.73 Q944.536 1462.73 947.916 1465.9 Q951.295 1469.08 951.295 1474.49 Q951.295 1480.07 947.823 1483.17 Q944.351 1486.25 938.032 1486.25 Q935.856 1486.25 933.587 1485.88 Q931.342 1485.51 928.934 1484.77 L928.934 1480.07 Q931.018 1481.2 933.24 1481.76 Q935.462 1482.32 937.939 1482.32 Q941.944 1482.32 944.282 1480.21 Q946.619 1478.1 946.619 1474.49 Q946.619 1470.88 944.282 1468.77 Q941.944 1466.67 937.939 1466.67 Q936.064 1466.67 934.189 1467.08 Q932.337 1467.5 930.393 1468.38 L930.393 1451.02 Z" fill="#000000" fill-rule="evenodd" fill-opacity="1" /><path clip-path="url(#clip750)" d="M970.508 1454.1 Q966.897 1454.1 965.068 1457.66 Q963.263 1461.2 963.263 1468.33 Q963.263 1475.44 965.068 1479.01 Q966.897 1482.55 970.508 1482.55 Q974.142 1482.55 975.948 1479.01 Q977.777 1475.44 977.777 1468.33 Q977.777 1461.2 975.948 1457.66 Q974.142 1454.1 970.508 1454.1 M970.508 1450.39 Q976.318 1450.39 979.374 1455 Q982.453 1459.58 982.453 1468.33 Q982.453 1477.06 979.374 1481.67 Q976.318 1486.25 970.508 1486.25 Q964.698 1486.25 961.619 1481.67 Q958.564 1477.06 958.564 1468.33 Q958.564 1459.58 961.619 1455 Q964.698 1450.39 970.508 1450.39 Z" fill="#000000" fill-rule="evenodd" fill-opacity="1" /><path clip-path="url(#clip750)" d="M1000.67 1454.1 Q997.059 1454.1 995.23 1457.66 Q993.425 1461.2 993.425 1468.33 Q993.425 1475.44 995.23 1479.01 Q997.059 1482.55 1000.67 1482.55 Q1004.3 1482.55 1006.11 1479.01 Q1007.94 1475.44 1007.94 1468.33 Q1007.94 1461.2 1006.11 1457.66 Q1004.3 1454.1 1000.67 1454.1 M1000.67 1450.39 Q1006.48 1450.39 1009.54 1455 Q1012.61 1459.58 1012.61 1468.33 Q1012.61 1477.06 1009.54 1481.67 Q1006.48 1486.25 1000.67 1486.25 Q994.86 1486.25 991.781 1481.67 Q988.726 1477.06 988.726 1468.33 Q988.726 1459.58 991.781 1455 Q994.86 1450.39 1000.67 1450.39 Z" fill="#000000" fill-rule="evenodd" fill-opacity="1" /><path clip-path="url(#clip750)" d="M1576.54 1481.64 L1584.17 1481.64 L1584.17 1455.28 L1575.86 1456.95 L1575.86 1452.69 L1584.13 1451.02 L1588.8 1451.02 L1588.8 1481.64 L1596.44 1481.64 L1596.44 1485.58 L1576.54 1485.58 L1576.54 1481.64 Z" fill="#000000" fill-rule="evenodd" fill-opacity="1" /><path clip-path="url(#clip750)" d="M1615.89 1454.1 Q1612.28 1454.1 1610.45 1457.66 Q1608.64 1461.2 1608.64 1468.33 Q1608.64 1475.44 1610.45 1479.01 Q1612.28 1482.55 1615.89 1482.55 Q1619.52 1482.55 1621.33 1479.01 Q1623.16 1475.44 1623.16 1468.33 Q1623.16 1461.2 1621.33 1457.66 Q1619.52 1454.1 1615.89 1454.1 M1615.89 1450.39 Q1621.7 1450.39 1624.75 1455 Q1627.83 1459.58 1627.83 1468.33 Q1627.83 1477.06 1624.75 1481.67 Q1621.7 1486.25 1615.89 1486.25 Q1610.08 1486.25 1607 1481.67 Q1603.94 1477.06 1603.94 1468.33 Q1603.94 1459.58 1607 1455 Q1610.08 1450.39 1615.89 1450.39 Z" fill="#000000" fill-rule="evenodd" fill-opacity="1" /><path clip-path="url(#clip750)" d="M1646.05 1454.1 Q1642.44 1454.1 1640.61 1457.66 Q1638.8 1461.2 1638.8 1468.33 Q1638.8 1475.44 1640.61 1479.01 Q1642.44 1482.55 1646.05 1482.55 Q1649.68 1482.55 1651.49 1479.01 Q1653.32 1475.44 1653.32 1468.33 Q1653.32 1461.2 1651.49 1457.66 Q1649.68 1454.1 1646.05 1454.1 M1646.05 1450.39 Q1651.86 1450.39 1654.91 1455 Q1657.99 1459.58 1657.99 1468.33 Q1657.99 1477.06 1654.91 1481.67 Q1651.86 1486.25 1646.05 1486.25 Q1640.24 1486.25 1637.16 1481.67 Q1634.1 1477.06 1634.1 1468.33 Q1634.1 1459.58 1637.16 1455 Q1640.24 1450.39 1646.05 1450.39 Z" fill="#000000" fill-rule="evenodd" fill-opacity="1" /><path clip-path="url(#clip750)" d="M1676.21 1454.1 Q1672.6 1454.1 1670.77 1457.66 Q1668.97 1461.2 1668.97 1468.33 Q1668.97 1475.44 1670.77 1479.01 Q1672.6 1482.55 1676.21 1482.55 Q1679.84 1482.55 1681.65 1479.01 Q1683.48 1475.44 1683.48 1468.33 Q1683.48 1461.2 1681.65 1457.66 Q1679.84 1454.1 1676.21 1454.1 M1676.21 1450.39 Q1682.02 1450.39 1685.08 1455 Q1688.16 1459.58 1688.16 1468.33 Q1688.16 1477.06 1685.08 1481.67 Q1682.02 1486.25 1676.21 1486.25 Q1670.4 1486.25 1667.32 1481.67 Q1664.27 1477.06 1664.27 1468.33 Q1664.27 1459.58 1667.32 1455 Q1670.4 1450.39 1676.21 1450.39 Z" fill="#000000" fill-rule="evenodd" fill-opacity="1" /><path clip-path="url(#clip750)" d="M2237.77 1481.64 L2245.41 1481.64 L2245.41 1455.28 L2237.1 1456.95 L2237.1 1452.69 L2245.36 1451.02 L2250.04 1451.02 L2250.04 1481.64 L2257.68 1481.64 L2257.68 1485.58 L2237.77 1485.58 L2237.77 1481.64 Z" fill="#000000" fill-rule="evenodd" fill-opacity="1" /><path clip-path="url(#clip750)" d="M2267.17 1451.02 L2285.52 1451.02 L2285.52 1454.96 L2271.45 1454.96 L2271.45 1463.43 Q2272.47 1463.08 2273.49 1462.92 Q2274.51 1462.73 2275.52 1462.73 Q2281.31 1462.73 2284.69 1465.9 Q2288.07 1469.08 2288.07 1474.49 Q2288.07 1480.07 2284.6 1483.17 Q2281.13 1486.25 2274.81 1486.25 Q2272.63 1486.25 2270.36 1485.88 Q2268.12 1485.51 2265.71 1484.77 L2265.71 1480.07 Q2267.79 1481.2 2270.02 1481.76 Q2272.24 1482.32 2274.71 1482.32 Q2278.72 1482.32 2281.06 1480.21 Q2283.4 1478.1 2283.4 1474.49 Q2283.4 1470.88 2281.06 1468.77 Q2278.72 1466.67 2274.71 1466.67 Q2272.84 1466.67 2270.96 1467.08 Q2269.11 1467.5 2267.17 1468.38 L2267.17 1451.02 Z" fill="#000000" fill-rule="evenodd" fill-opacity="1" /><path clip-path="url(#clip750)" d="M2307.28 1454.1 Q2303.67 1454.1 2301.84 1457.66 Q2300.04 1461.2 2300.04 1468.33 Q2300.04 1475.44 2301.84 1479.01 Q2303.67 1482.55 2307.28 1482.55 Q2310.92 1482.55 2312.72 1479.01 Q2314.55 1475.44 2314.55 1468.33 Q2314.55 1461.2 2312.72 1457.66 Q2310.92 1454.1 2307.28 1454.1 M2307.28 1450.39 Q2313.09 1450.39 2316.15 1455 Q2319.23 1459.58 2319.23 1468.33 Q2319.23 1477.06 2316.15 1481.67 Q2313.09 1486.25 2307.28 1486.25 Q2301.47 1486.25 2298.4 1481.67 Q2295.34 1477.06 2295.34 1468.33 Q2295.34 1459.58 2298.4 1455 Q2301.47 1450.39 2307.28 1450.39 Z" fill="#000000" fill-rule="evenodd" fill-opacity="1" /><path clip-path="url(#clip750)" d="M2337.45 1454.1 Q2333.83 1454.1 2332.01 1457.66 Q2330.2 1461.2 2330.2 1468.33 Q2330.2 1475.44 2332.01 1479.01 Q2333.83 1482.55 2337.45 1482.55 Q2341.08 1482.55 2342.89 1479.01 Q2344.71 1475.44 2344.71 1468.33 Q2344.71 1461.2 2342.89 1457.66 Q2341.08 1454.1 2337.45 1454.1 M2337.45 1450.39 Q2343.26 1450.39 2346.31 1455 Q2349.39 1459.58 2349.39 1468.33 Q2349.39 1477.06 2346.31 1481.67 Q2343.26 1486.25 2337.45 1486.25 Q2331.64 1486.25 2328.56 1481.67 Q2325.5 1477.06 2325.5 1468.33 Q2325.5 1459.58 2328.56 1455 Q2331.64 1450.39 2337.45 1450.39 Z" fill="#000000" fill-rule="evenodd" fill-opacity="1" /><path clip-path="url(#clip750)" d="M1300.45 1522.27 L1300.45 1532.4 L1312.52 1532.4 L1312.52 1536.95 L1300.45 1536.95 L1300.45 1556.3 Q1300.45 1560.66 1301.63 1561.9 Q1302.84 1563.14 1306.5 1563.14 L1312.52 1563.14 L1312.52 1568.04 L1306.5 1568.04 Q1299.72 1568.04 1297.14 1565.53 Q1294.56 1562.98 1294.56 1556.3 L1294.56 1536.95 L1290.27 1536.95 L1290.27 1532.4 L1294.56 1532.4 L1294.56 1522.27 L1300.45 1522.27 Z" fill="#000000" fill-rule="evenodd" fill-opacity="1" /><polyline clip-path="url(#clip752)" style="stroke:#000000; stroke-linecap:round; stroke-linejoin:round; stroke-width:2; stroke-opacity:0.1; fill:none" points="250.028,1095.79 2352.76,1095.79 "/>
<polyline clip-path="url(#clip752)" style="stroke:#000000; stroke-linecap:round; stroke-linejoin:round; stroke-width:2; stroke-opacity:0.1; fill:none" points="250.028,754.449 2352.76,754.449 "/>
<polyline clip-path="url(#clip752)" style="stroke:#000000; stroke-linecap:round; stroke-linejoin:round; stroke-width:2; stroke-opacity:0.1; fill:none" points="250.028,413.106 2352.76,413.106 "/>
<polyline clip-path="url(#clip752)" style="stroke:#000000; stroke-linecap:round; stroke-linejoin:round; stroke-width:2; stroke-opacity:0.1; fill:none" points="250.028,71.763 2352.76,71.763 "/>
<polyline clip-path="url(#clip750)" style="stroke:#000000; stroke-linecap:round; stroke-linejoin:round; stroke-width:4; stroke-opacity:1; fill:none" points="250.028,1423.18 250.028,47.2441 "/>
<polyline clip-path="url(#clip750)" style="stroke:#000000; stroke-linecap:round; stroke-linejoin:round; stroke-width:4; stroke-opacity:1; fill:none" points="250.028,1095.79 268.926,1095.79 "/>
<polyline clip-path="url(#clip750)" style="stroke:#000000; stroke-linecap:round; stroke-linejoin:round; stroke-width:4; stroke-opacity:1; fill:none" points="250.028,754.449 268.926,754.449 "/>
<polyline clip-path="url(#clip750)" style="stroke:#000000; stroke-linecap:round; stroke-linejoin:round; stroke-width:4; stroke-opacity:1; fill:none" points="250.028,413.106 268.926,413.106 "/>
<polyline clip-path="url(#clip750)" style="stroke:#000000; stroke-linecap:round; stroke-linejoin:round; stroke-width:4; stroke-opacity:1; fill:none" points="250.028,71.763 268.926,71.763 "/>
<path clip-path="url(#clip750)" d="M126.691 1081.59 Q123.08 1081.59 121.251 1085.16 Q119.445 1088.7 119.445 1095.83 Q119.445 1102.93 121.251 1106.5 Q123.08 1110.04 126.691 1110.04 Q130.325 1110.04 132.13 1106.5 Q133.959 1102.93 133.959 1095.83 Q133.959 1088.7 132.13 1085.16 Q130.325 1081.59 126.691 1081.59 M126.691 1077.89 Q132.501 1077.89 135.556 1082.49 Q138.635 1087.08 138.635 1095.83 Q138.635 1104.55 135.556 1109.16 Q132.501 1113.74 126.691 1113.74 Q120.88 1113.74 117.802 1109.16 Q114.746 1104.55 114.746 1095.83 Q114.746 1087.08 117.802 1082.49 Q120.88 1077.89 126.691 1077.89 Z" fill="#000000" fill-rule="evenodd" fill-opacity="1" /><path clip-path="url(#clip750)" d="M146.853 1107.19 L151.737 1107.19 L151.737 1113.07 L146.853 1113.07 L146.853 1107.19 Z" fill="#000000" fill-rule="evenodd" fill-opacity="1" /><path clip-path="url(#clip750)" d="M162.732 1109.14 L170.371 1109.14 L170.371 1082.77 L162.061 1084.44 L162.061 1080.18 L170.325 1078.51 L175.001 1078.51 L175.001 1109.14 L182.639 1109.14 L182.639 1113.07 L162.732 1113.07 L162.732 1109.14 Z" fill="#000000" fill-rule="evenodd" fill-opacity="1" /><path clip-path="url(#clip750)" d="M202.084 1081.59 Q198.473 1081.59 196.644 1085.16 Q194.838 1088.7 194.838 1095.83 Q194.838 1102.93 196.644 1106.5 Q198.473 1110.04 202.084 1110.04 Q205.718 1110.04 207.524 1106.5 Q209.352 1102.93 209.352 1095.83 Q209.352 1088.7 207.524 1085.16 Q205.718 1081.59 202.084 1081.59 M202.084 1077.89 Q207.894 1077.89 210.949 1082.49 Q214.028 1087.08 214.028 1095.83 Q214.028 1104.55 210.949 1109.16 Q207.894 1113.74 202.084 1113.74 Q196.274 1113.74 193.195 1109.16 Q190.139 1104.55 190.139 1095.83 Q190.139 1087.08 193.195 1082.49 Q196.274 1077.89 202.084 1077.89 Z" fill="#000000" fill-rule="evenodd" fill-opacity="1" /><path clip-path="url(#clip750)" d="M128.288 740.248 Q124.677 740.248 122.848 743.813 Q121.043 747.354 121.043 754.484 Q121.043 761.59 122.848 765.155 Q124.677 768.697 128.288 768.697 Q131.922 768.697 133.728 765.155 Q135.556 761.59 135.556 754.484 Q135.556 747.354 133.728 743.813 Q131.922 740.248 128.288 740.248 M128.288 736.544 Q134.098 736.544 137.154 741.15 Q140.232 745.734 140.232 754.484 Q140.232 763.211 137.154 767.817 Q134.098 772.4 128.288 772.4 Q122.478 772.4 119.399 767.817 Q116.343 763.211 116.343 754.484 Q116.343 745.734 119.399 741.15 Q122.478 736.544 128.288 736.544 Z" fill="#000000" fill-rule="evenodd" fill-opacity="1" /><path clip-path="url(#clip750)" d="M148.45 765.849 L153.334 765.849 L153.334 771.729 L148.45 771.729 L148.45 765.849 Z" fill="#000000" fill-rule="evenodd" fill-opacity="1" /><path clip-path="url(#clip750)" d="M164.329 767.794 L171.968 767.794 L171.968 741.428 L163.658 743.095 L163.658 738.836 L171.922 737.169 L176.598 737.169 L176.598 767.794 L184.237 767.794 L184.237 771.729 L164.329 771.729 L164.329 767.794 Z" fill="#000000" fill-rule="evenodd" fill-opacity="1" /><path clip-path="url(#clip750)" d="M197.709 767.794 L214.028 767.794 L214.028 771.729 L192.084 771.729 L192.084 767.794 Q194.746 765.039 199.329 760.41 Q203.936 755.757 205.116 754.414 Q207.362 751.891 208.241 750.155 Q209.144 748.396 209.144 746.706 Q209.144 743.951 207.199 742.215 Q205.278 740.479 202.176 740.479 Q199.977 740.479 197.524 741.243 Q195.093 742.007 192.315 743.558 L192.315 738.836 Q195.139 737.701 197.593 737.123 Q200.047 736.544 202.084 736.544 Q207.454 736.544 210.649 739.229 Q213.843 741.914 213.843 746.405 Q213.843 748.535 213.033 750.456 Q212.246 752.354 210.139 754.947 Q209.561 755.618 206.459 758.836 Q203.357 762.03 197.709 767.794 Z" fill="#000000" fill-rule="evenodd" fill-opacity="1" /><path clip-path="url(#clip750)" d="M126.205 398.905 Q122.593 398.905 120.765 402.469 Q118.959 406.011 118.959 413.141 Q118.959 420.247 120.765 423.812 Q122.593 427.354 126.205 427.354 Q129.839 427.354 131.644 423.812 Q133.473 420.247 133.473 413.141 Q133.473 406.011 131.644 402.469 Q129.839 398.905 126.205 398.905 M126.205 395.201 Q132.015 395.201 135.07 399.807 Q138.149 404.391 138.149 413.141 Q138.149 421.868 135.07 426.474 Q132.015 431.057 126.205 431.057 Q120.394 431.057 117.316 426.474 Q114.26 421.868 114.26 413.141 Q114.26 404.391 117.316 399.807 Q120.394 395.201 126.205 395.201 Z" fill="#000000" fill-rule="evenodd" fill-opacity="1" /><path clip-path="url(#clip750)" d="M146.366 424.506 L151.251 424.506 L151.251 430.386 L146.366 430.386 L146.366 424.506 Z" fill="#000000" fill-rule="evenodd" fill-opacity="1" /><path clip-path="url(#clip750)" d="M162.246 426.451 L169.885 426.451 L169.885 400.085 L161.575 401.752 L161.575 397.493 L169.839 395.826 L174.514 395.826 L174.514 426.451 L182.153 426.451 L182.153 430.386 L162.246 430.386 L162.246 426.451 Z" fill="#000000" fill-rule="evenodd" fill-opacity="1" /><path clip-path="url(#clip750)" d="M204.445 399.9 L192.639 418.349 L204.445 418.349 L204.445 399.9 M203.218 395.826 L209.098 395.826 L209.098 418.349 L214.028 418.349 L214.028 422.238 L209.098 422.238 L209.098 430.386 L204.445 430.386 L204.445 422.238 L188.843 422.238 L188.843 417.724 L203.218 395.826 Z" fill="#000000" fill-rule="evenodd" fill-opacity="1" /><path clip-path="url(#clip750)" d="M126.529 57.5616 Q122.918 57.5616 121.089 61.1264 Q119.283 64.6681 119.283 71.7977 Q119.283 78.9041 121.089 82.4689 Q122.918 86.0106 126.529 86.0106 Q130.163 86.0106 131.968 82.4689 Q133.797 78.9041 133.797 71.7977 Q133.797 64.6681 131.968 61.1264 Q130.163 57.5616 126.529 57.5616 M126.529 53.858 Q132.339 53.858 135.394 58.4644 Q138.473 63.0477 138.473 71.7977 Q138.473 80.5245 135.394 85.1309 Q132.339 89.7143 126.529 89.7143 Q120.718 89.7143 117.64 85.1309 Q114.584 80.5245 114.584 71.7977 Q114.584 63.0477 117.64 58.4644 Q120.718 53.858 126.529 53.858 Z" fill="#000000" fill-rule="evenodd" fill-opacity="1" /><path clip-path="url(#clip750)" d="M146.691 83.1634 L151.575 83.1634 L151.575 89.043 L146.691 89.043 L146.691 83.1634 Z" fill="#000000" fill-rule="evenodd" fill-opacity="1" /><path clip-path="url(#clip750)" d="M162.57 85.1078 L170.209 85.1078 L170.209 58.7422 L161.899 60.4089 L161.899 56.1496 L170.163 54.483 L174.839 54.483 L174.839 85.1078 L182.477 85.1078 L182.477 89.043 L162.57 89.043 L162.57 85.1078 Z" fill="#000000" fill-rule="evenodd" fill-opacity="1" /><path clip-path="url(#clip750)" d="M202.5 69.8995 Q199.352 69.8995 197.5 72.0523 Q195.672 74.2051 195.672 77.9551 Q195.672 81.6819 197.5 83.8578 Q199.352 86.0106 202.5 86.0106 Q205.649 86.0106 207.477 83.8578 Q209.329 81.6819 209.329 77.9551 Q209.329 74.2051 207.477 72.0523 Q205.649 69.8995 202.5 69.8995 M211.783 55.2468 L211.783 59.5061 Q210.024 58.6728 208.218 58.2329 Q206.436 57.7931 204.676 57.7931 Q200.047 57.7931 197.593 60.9181 Q195.163 64.0431 194.815 70.3625 Q196.181 68.3486 198.241 67.2838 Q200.301 66.1959 202.778 66.1959 Q207.987 66.1959 210.996 69.3671 Q214.028 72.5153 214.028 77.9551 Q214.028 83.2791 210.88 86.4967 Q207.732 89.7143 202.5 89.7143 Q196.505 89.7143 193.334 85.1309 Q190.163 80.5245 190.163 71.7977 Q190.163 63.6033 194.051 58.7422 Q197.94 53.858 204.491 53.858 Q206.25 53.858 208.033 54.2052 Q209.838 54.5524 211.783 55.2468 Z" fill="#000000" fill-rule="evenodd" fill-opacity="1" /><path clip-path="url(#clip750)" d="M28.9285 742.215 Q33.6949 742.215 38.1715 744.663 Q42.6482 747.078 45.3534 750.879 Q48.0587 754.647 48.0587 758.447 Q48.0587 762.73 43.6143 764.952 Q59.7495 768.978 60.1681 769.204 Q61.553 770.138 61.553 771.49 Q61.553 772.328 61.0377 772.843 Q60.5546 773.358 59.7817 773.358 Q59.524 773.326 58.7189 773.133 L32.7932 766.692 Q26.7707 765.21 22.4873 760.734 Q18.1717 756.225 18.1717 751.394 Q18.1717 747.561 21.038 744.888 Q23.9043 742.215 28.9285 742.215 M26.0943 746.949 Q22.8738 746.949 21.2635 748.238 Q19.621 749.526 19.621 751.523 Q19.621 753.358 21.1024 755.581 Q22.5839 757.771 25.8689 759.703 Q27.769 760.734 30.1201 761.474 Q32.4711 762.215 38.2682 763.664 Q40.587 764.18 40.7158 764.18 Q40.9734 764.18 41.5532 764.051 Q42.1329 763.89 43.0346 763.503 Q43.9042 763.085 44.6771 762.505 Q45.4501 761.925 46.0298 760.862 Q46.5773 759.8 46.5773 758.511 Q46.5773 756.515 44.967 754.389 Q43.3245 752.231 40.3293 750.653 Q37.9139 749.333 33.3729 748.141 Q28.7996 746.949 26.0943 746.949 Z" fill="#000000" fill-rule="evenodd" fill-opacity="1" /><path clip-path="url(#clip750)" d="M80.129 703.8 Q80.5573 703.8 80.7828 703.98 Q80.9857 704.138 81.0308 704.296 Q81.0533 704.431 81.0533 704.634 Q81.0533 705.22 80.9857 707.249 Q80.918 709.278 80.918 709.864 Q80.918 710.811 80.9857 712.75 Q81.0533 714.689 81.0533 715.636 Q81.0533 716.267 80.5348 716.267 Q80.1966 716.267 80.0163 716.199 Q79.8134 716.132 79.7458 715.951 Q79.6556 715.748 79.6556 715.636 Q79.633 715.5 79.633 715.162 Q79.633 714.711 79.5879 714.238 Q79.5203 713.764 79.3851 713.178 Q79.2498 712.592 78.9116 712.231 Q78.5735 711.848 78.1 711.848 Q77.8971 711.848 76.2289 712.006 Q74.5606 712.164 72.6218 712.367 Q70.6605 712.57 70.39 712.592 L70.39 724.18 Q72.216 725.239 73.4785 725.983 Q74.741 726.727 75.1693 726.998 Q75.5976 727.268 75.8682 727.426 Q76.1387 727.584 76.2965 727.674 Q77.4913 728.328 78.0099 728.328 Q79.4527 728.328 79.633 726.164 Q79.633 725.42 80.1741 725.42 Q80.5799 725.42 80.8053 725.6 Q81.0082 725.781 81.0308 725.938 Q81.0533 726.074 81.0533 726.299 Q81.0533 727.043 80.9857 728.599 Q80.918 730.154 80.918 730.921 Q80.918 731.574 80.9857 732.927 Q81.0533 734.28 81.0533 734.888 Q81.0533 735.159 80.8955 735.317 Q80.7377 735.474 80.5348 735.474 Q80.2192 735.474 80.0388 735.429 Q79.8585 735.362 79.7683 735.181 Q79.6781 735.001 79.6781 734.911 Q79.6556 734.821 79.633 734.505 Q79.5203 732.792 78.7087 731.462 Q77.8746 730.109 75.7329 728.824 L48.7702 712.773 Q48.4996 712.615 48.3644 712.502 Q48.2291 712.389 48.1164 712.164 Q48.0037 711.916 48.0037 711.555 Q48.0037 710.992 48.184 710.879 Q48.3418 710.766 49.1083 710.698 L77.9648 707.88 Q78.5735 707.813 78.8214 707.768 Q79.0469 707.7 79.2949 707.407 Q79.5203 707.091 79.5879 706.528 Q79.633 705.942 79.633 704.86 Q79.633 704.454 79.6556 704.296 Q79.6556 704.138 79.7683 703.98 Q79.881 703.8 80.129 703.8 M68.9471 712.727 L53.7299 714.193 L68.9471 723.301 L68.9471 712.727 Z" fill="#000000" fill-rule="evenodd" fill-opacity="1" /><polyline clip-path="url(#clip752)" style="stroke:#009af9; stroke-linecap:round; stroke-linejoin:round; stroke-width:4; stroke-opacity:1; fill:none" points="309.539,86.1857 309.741,87.323 309.943,90.7218 310.145,96.3425 310.346,104.12 310.548,113.965 310.75,125.764 310.952,139.384 311.154,154.671 311.355,171.456 311.557,189.555 311.759,208.772 311.961,228.906 312.364,271.088 312.768,314.439 313.172,357.365 313.575,398.436 313.777,417.893 313.979,436.461 314.181,454.037 314.382,470.54 314.584,485.909 314.786,500.105 314.988,513.109 315.19,524.925 315.391,535.572 315.593,545.092 315.795,553.54 315.997,560.988 316.4,573.226 316.804,582.587 317.208,589.942 317.611,596.176 318.015,602.12 318.418,608.485 318.822,615.818 319.226,624.473 319.629,634.595 320.033,646.131 320.436,658.853 320.84,672.393 321.244,686.291 321.647,700.046 321.849,706.715 322.051,713.168 322.253,719.353 322.454,725.224 323.387,747.384 324.32,760.806 325.253,767.638 326.186,772.278 327.119,779.08 328.052,790.332 328.985,805.417 329.918,821.439 330.851,834.882 331.784,843.414 332.717,846.961 333.65,847.583 334.583,848.323 335.516,851.655 336.449,858.325 337.382,867.116 338.314,875.606 339.247,881.456 340.18,883.589 341.113,882.66 342.046,880.642 342.979,879.778 343.912,881.455 344.845,885.568 345.778,890.656 346.711,894.712 347.644,896.222 348.577,894.91 349.51,891.829 350.443,888.775 351.376,887.358 352.309,888.209 353.242,890.703 354.175,893.335 355.108,894.516 356.041,893.381 356.974,890.204 357.906,886.223 358.839,882.981 359.772,881.54 360.705,881.967 361.638,883.335 362.571,884.228 363.504,883.477 364.437,880.747 365.37,876.682 366.303,872.553 367.236,869.595 374.7,854.993 382.163,839.473 389.627,824.185 397.09,809.884 404.554,797.05 412.018,785.973 419.481,776.814 426.945,769.646 434.409,764.476 441.872,761.255 450.843,761.468 459.813,763.102 468.784,765.766 477.755,769.43 495.696,779.863 513.637,792.07 528.806,798.123 543.976,801.54 559.145,802.364 574.314,800.978 607.27,791.727 640.226,782.644 655.417,779.811 670.608,778.869 685.799,779.819 700.99,782.36 733.564,789.493 766.137,796.82 785.006,799.63 803.876,800.071 822.745,795.119 841.615,790.49 858.384,784.564 875.153,778.673 883.538,776.206 891.922,774.327 900.307,773.23 908.691,773.087 923.396,776.917 938.101,783.348 952.806,791.923 967.511,802.274 975.527,808.421 983.543,814.01 991.56,818.565 999.576,821.589 1001.58,824.229 1003.58,825.297 1005.59,823.266 1007.59,822.586 1009.6,824.772 1011.6,825.226 1013.6,822.424 1015.61,821.088 1017.61,822.729 1019.62,822.465 1021.62,818.776 1023.62,816.69 1025.63,817.72 1027.63,816.659 1029.64,811.986 1031.64,809.086 1032.65,809.155 1033.66,809.478 1034.66,809.123 1035.67,807.52 1037.69,801.75 1039.7,798.082 1041.72,797.87 1043.74,794.942 1045.75,788.07 1047.77,783.711 1048.78,783.264 1049.78,782.975 1050.79,781.782 1051.8,779.119 1052.81,775.263 1053.82,771.188 1054.82,767.997 1055.83,766.259 1056.84,765.657 1057.85,765.161 1058.86,763.63 1059.86,760.496 1060.87,756.126 1061.88,751.618 1062.89,748.164 1063.9,746.333 1064.9,745.716 1065.91,745.147 1066.92,743.39 1067.93,739.881 1068.94,735.089 1069.94,730.259 1070.95,726.691 1071.96,724.954 1072.97,724.53 1073.98,724.091 1074.98,722.287 1075.99,718.554 1077,713.484 1078.01,708.503 1079.02,705.042 1080.02,703.673 1081.03,703.744 1082.04,703.733 1083.05,702.143 1084.06,698.408 1085.06,693.273 1086.07,688.389 1087.08,685.353 1088.09,684.746 1089.1,685.749 1090.1,686.592 1091.11,685.591 1092.12,682.174 1093.13,677.278 1094.13,672.844 1095.14,670.69 1096.15,671.415 1097.27,674.285 1098.38,676.565 1099.49,675.884 1100.61,672.089 1101.72,667.491 1102.84,665.308 1103.95,667.366 1105.07,672.695 1106.18,678.097 1107.3,680.391 1108.41,678.767 1109.52,675.558 1110.08,674.614 1110.64,674.743 1111.2,676.233 1111.75,679.146 1112.87,688.3 1113.98,698.58 1114.54,702.731 1115.1,705.682 1115.65,707.313 1116.21,707.788 1116.77,707.53 1117.33,707.156 1117.88,707.369 1118.44,708.827 1119,712.023 1119.55,717.177 1120.11,724.192 1120.67,732.652 1121.23,741.892 1121.78,751.111 1122.34,759.522 1122.9,766.506 1123.45,771.738 1124.01,775.275 1124.57,777.562 1125.13,779.384 1125.68,781.734 1126.24,785.645 1126.8,792.001 1127.36,801.36 1127.91,813.833 1128.47,829.032 1129.03,846.112 1129.58,863.901 1130.14,881.101 1130.7,896.534 1131.26,909.386 1131.81,919.409 1132.37,927.046 1132.93,933.441 1133.48,940.334 1134.04,949.838 1134.6,964.132 1135.16,985.112 1135.71,1014.04 1136.27,1051.28 1136.83,1096.1 1137.39,1146.65 1137.94,1200.12 1138.5,1252.94 1139.06,1301.23 1139.61,1341.21 1140.17,1369.64 1140.73,1384.24 1141.29,1383.92 1141.84,1368.97 1142.4,1340.95 1142.96,1302.53 1143.51,1257.13 1144.07,1208.5 1144.63,1160.3 1145.19,1115.66 1145.74,1076.87 1146.3,1045.21 1146.86,1020.88 1147.42,1003.13 1147.97,990.482 1148.53,981.036 1149.09,972.806 1149.64,964.04 1150.2,953.467 1150.76,940.442 1151.32,924.982 1151.87,907.684 1152.43,889.559 1152.99,871.813 1153.54,855.607 1154.1,841.847 1154.66,831.043 1155.22,823.231 1155.77,818 1156.33,814.586 1156.89,812.027 1157.45,809.343 1158,805.71 1158.56,800.59 1159.12,793.816 1159.67,785.59 1160.23,776.431 1160.79,767.057 1161.35,758.242 1161.9,750.673 1162.46,744.824 1163.02,740.88 1163.58,738.709 1164.13,737.906 1164.69,737.867 1165.25,737.917 1165.8,737.423 1166.36,735.916 1166.92,733.164 1167.48,729.205 1168.54,719.53 1169.6,710.11 1170.13,706.619 1170.66,704.319 1171.19,703.268 1171.72,703.331 1172.78,705.493 1173.84,707.525 1174.9,706.662 1175.96,702.361 1177.02,696.496 1178.08,692.032 1179.14,691.066 1180.2,693.528 1181.26,697.325 1182.32,699.758 1182.85,699.894 1183.38,699.259 1183.91,697.987 1184.44,696.327 1185.5,693.107 1186.56,691.941 1187.62,693.855 1188.68,697.952 1189.74,702.06 1190.8,704.167 1191.86,703.693 1192.92,701.803 1193.98,700.588 1195.05,701.682 1196.11,705.23 1197.17,709.842 1198.23,713.538 1199.29,715.033 1200.35,714.537 1201.41,713.565 1202.47,713.919 1203.53,716.512 1204.59,720.809 1205.65,725.216 1206.71,728.132 1207.77,728.981 1208.83,728.548 1209.89,728.434 1210.95,729.992 1212.01,733.465 1213.07,737.858 1214.13,741.609 1215.19,743.615 1216.25,743.928 1217.31,743.689 1218.37,744.362 1226.86,759.985 1235.34,774.383 1244.16,787.857 1252.98,798.979 1261.8,807.171 1270.62,812.205 1279.44,814.253 1288.26,813.823 1297.08,811.625 1305.9,808.388 1335.6,796.641 1365.3,783.554 1383.43,779.379 1401.56,776.719 1419.69,778.62 1437.82,783.794 1471.03,792.587 1504.25,798.092 1519.59,799.28 1534.93,798.775 1550.27,796.575 1565.61,792.934 1581.14,788.424 1596.68,783.761 1612.22,779.771 1627.76,777.285 1636.46,777.45 1645.17,778.36 1653.88,779.91 1662.58,781.991 1680,787.442 1697.41,794.291 1713.19,801.438 1728.97,806.774 1736.86,808.22 1744.75,808.598 1752.64,807.767 1760.53,805.638 1778.59,794.692 1796.66,780.951 1805.69,773.185 1814.73,764.907 1823.76,756.786 1832.79,750.14 1834.88,748.499 1836.97,750.206 1839.06,750.124 1841.16,747.245 1843.25,747.013 1845.34,749.702 1847.43,749.692 1849.52,747.538 1851.61,748.965 1853.7,752.591 1855.79,752.734 1857.88,751.661 1859.97,754.916 1862.07,759.37 1864.16,759.764 1866.25,760.101 1868.34,765.245 1870.43,770.353 1872.52,771.095 1874.61,773.117 1876.7,780.082 1878.79,785.592 1879.84,786.39 1880.88,786.765 1881.93,787.932 1882.98,790.658 1885.07,799.215 1887.16,804.788 1888.2,805.621 1889.25,806.441 1890.29,808.485 1891.34,812.259 1892.38,817.197 1893.43,821.996 1894.48,825.444 1895.52,827.194 1896.57,828.013 1897.61,829.308 1898.66,832.234 1899.7,836.937 1907.95,862.389 1916.19,886.771 1920.32,896.648 1924.44,906.68 1925.47,911.298 1926.5,913.501 1927.53,912.835 1928.56,910.544 1929.59,908.84 1930.62,909.537 1931.66,912.871 1932.69,917.26 1933.72,920.218 1934.75,919.88 1935.78,916.209 1936.81,911.11 1937.84,907.306 1938.87,906.631 1939.9,908.794 1940.93,911.419 1941.45,911.912 1941.96,911.415 1942.48,909.748 1942.99,906.899 1944.02,898.459 1945.05,888.94 1945.57,884.882 1946.09,881.752 1946.6,879.706 1947.12,878.7 1948.15,878.661 1949.18,878.039 1949.69,876.202 1950.21,872.833 1950.72,867.787 1951.24,861.156 1952.27,844.622 1953.3,827.611 1953.82,820.43 1954.33,814.674 1954.85,810.44 1955.36,807.53 1955.88,805.464 1956.39,803.536 1956.91,800.914 1957.42,796.765 1957.94,790.388 1958.45,781.335 1958.97,769.503 1959.48,755.169 1960,738.973 1960.52,721.841 1961.03,704.85 1961.55,689.062 1962.06,675.342 1962.58,664.185 1963.09,655.592 1963.61,648.993 1964.12,643.261 1964.64,636.795 1965.15,627.695 1965.67,613.982 1966.17,594.551 1966.67,567.834 1967.17,533.186 1967.67,490.705 1968.17,441.305 1968.67,386.706 1969.17,329.332 1969.67,272.123 1970.17,218.291 1970.67,171.033 1971.17,133.234 1971.67,107.202 1972.17,94.4448 1972.67,95.5343 1973.17,110.059 1973.68,136.675 1974.18,173.249 1974.68,217.074 1975.18,265.135 1975.68,314.4 1976.18,362.09 1976.68,405.915 1977.18,444.247 1977.68,476.205 1978.18,501.661 1978.68,521.165 1979.18,535.796 1979.68,546.978 1980.18,556.259 1980.68,565.115 1981.18,574.766 1981.68,586.051 1982.18,599.365 1982.68,614.651 1983.18,631.461 1983.68,649.061 1984.18,666.564 1984.68,683.076 1985.18,697.828 1985.68,710.286 1986.18,720.209 1986.68,727.674 1987.19,733.045 1987.69,736.905 1988.69,742.942 1989.69,751.047 1990.19,756.878 1990.69,763.963 1991.19,772.06 1991.69,780.746 1992.19,789.492 1992.69,797.743 1993.19,805.01 1993.69,810.936 1994.19,815.348 1994.69,818.274 1995.19,819.933 1995.69,820.693 1996.69,821.384 1997.69,823.855 1998.69,829.967 1999.69,839.039 2000.7,848.436 2001.7,855.229 2002.7,857.895 2003.7,857.115 2004.7,855.271 2005.7,855.004 2006.7,857.71 2007.7,862.825 2008.7,868.269 2009.7,871.726 2010.7,871.996 2011.7,869.638 2012.7,866.571 2013.71,864.921 2014.71,865.8 2015.71,868.715 2016.71,871.932 2017.71,873.531 2018.71,872.527 2019.71,869.404 2020.71,865.783 2021.71,863.451 2022.71,863.326 2023.71,864.968 2024.71,866.878 2025.71,867.414 2026.71,865.742 2027.72,862.295 2028.72,858.485 2029.72,855.858 2037.92,844.842 2046.13,832.625 2054.34,820.401 2062.55,808.922 2070.75,798.654 2078.96,789.875 2087.17,782.723 2095.37,777.232 2104.37,774.063 2113.36,772.227 2122.35,771.136 2131.34,770.687 2140.33,771.153 2149.33,772.879 2158.32,775.954 2167.31,780.044 2180.37,785.118 2193.43,791.465 2206.5,793.491 2219.56,797.519 2232.62,799.681 2245.68,798.554 2258.74,799.488 2271.81,797.136 2277.17,795.3 2282.53,795.801 2287.89,794.005 2293.24,791.808 "/>
<polyline clip-path="url(#clip752)" style="stroke:#e26f46; stroke-linecap:round; stroke-linejoin:round; stroke-width:4; stroke-opacity:1; fill:none" points="309.539,86.1857 309.741,87.175 309.943,90.1316 310.145,95.0218 310.346,101.79 310.548,110.36 310.75,120.635 310.952,132.5 311.154,145.826 311.355,160.466 311.557,176.263 311.759,193.051 311.961,210.656 312.364,247.6 312.768,285.666 313.172,323.482 313.575,359.81 313.777,377.082 313.979,393.611 314.181,409.307 314.382,424.096 314.584,437.924 314.786,450.753 314.988,462.565 315.19,473.36 315.391,483.151 315.593,491.97 315.795,499.863 315.997,506.887 316.199,513.112 316.4,518.617 316.602,523.486 316.804,527.811 317.208,535.208 317.611,541.562 318.015,547.588 318.418,553.906 318.822,561.001 319.226,569.194 319.629,578.63 320.033,589.288 320.436,600.99 320.84,613.437 321.244,626.246 321.647,638.993 321.849,645.211 322.051,651.256 322.152,654.2 322.253,657.085 322.353,659.905 322.454,662.656 323.387,684.225 324.32,698.257 325.253,706.364 326.186,712.196 327.119,719.545 328.052,730.574 328.985,744.998 329.918,760.5 330.851,774.069 331.784,783.548 332.717,788.631 333.65,790.886 334.583,792.863 335.516,796.796 336.449,803.552 337.382,812.312 338.314,821.11 339.247,827.882 340.18,831.503 341.113,832.299 342.046,831.808 342.979,831.962 343.912,834.117 344.845,838.42 345.778,843.809 346.711,848.606 347.644,851.393 348.577,851.705 349.51,850.231 350.443,848.417 351.376,847.721 352.309,848.888 353.242,851.616 354.175,854.753 355.108,856.909 356.041,857.169 356.974,855.533 357.906,852.886 358.839,850.525 359.772,849.502 360.705,850.101 361.638,851.734 362.571,853.263 363.504,853.591 364.437,852.219 365.37,849.474 366.303,846.326 367.236,843.879 368.169,842.819 369.102,843.08 370.035,843.904 370.968,844.242 371.901,843.293 372.834,840.9 373.767,837.614 374.7,834.4 375.633,832.142 376.566,831.2 377.498,831.246 378.431,831.445 379.364,830.893 380.297,829.073 381.23,826.106 382.163,822.68 383.096,819.688 384.029,817.775 384.962,817.022 385.895,816.914 386.828,816.618 387.761,815.411 388.694,813.038 389.627,809.838 390.56,806.558 391.493,803.969 392.426,802.477 393.359,801.928 394.292,801.694 395.225,801.005 396.158,799.336 397.09,796.671 404.554,783.761 412.018,771.55 419.481,760.384 426.945,750.54 428.811,748.437 430.677,744.376 431.61,742.82 432.543,742.065 433.476,742.015 434.409,742.234 438.14,738.19 441.872,735.617 446.358,732.48 450.843,731.633 453.085,730.766 455.328,728.015 456.449,727.628 457.571,728.162 458.692,729.025 459.813,729.419 468.784,728.579 477.755,728.999 486.725,730.749 495.696,733.892 504.667,738.304 513.637,743.593 528.806,751.29 543.976,758.55 559.145,764.527 574.314,768.59 582.553,769.419 590.792,769.619 599.031,769.235 607.27,768.326 623.748,765.23 640.226,760.991 670.608,753.279 700.99,747.413 717.277,745.705 733.564,745.545 749.85,746.994 766.137,749.939 775.571,751.532 785.006,753.696 794.441,756.869 803.876,760.605 822.745,766.172 841.615,769.103 850,770.132 858.384,770.572 866.769,770.339 875.153,769.37 883.538,767.627 891.922,765.106 900.307,761.839 908.691,757.9 923.396,748.601 938.101,738.948 945.454,734.712 952.806,731.192 960.159,728.553 967.511,726.895 975.527,725.699 983.543,726.053 987.551,726.131 991.56,728.191 992.562,727.586 993.564,727.359 994.566,727.899 995.568,729.169 997.572,731.954 999.576,732.298 1000.58,731.901 1001.58,731.89 1002.58,732.68 1003.58,734.24 1005.59,737.644 1007.59,738.495 1008.59,738.309 1009.6,738.519 1010.6,739.565 1011.6,741.424 1013.6,745.464 1015.61,746.819 1016.61,746.835 1017.61,747.256 1018.61,748.552 1019.62,750.706 1021.62,755.374 1023.62,757.2 1024.63,757.394 1025.63,758 1026.63,759.523 1027.63,761.955 1028.63,764.766 1029.64,767.212 1030.64,768.769 1031.64,769.441 1032.65,769.771 1033.66,770.529 1034.66,772.267 1035.67,774.971 1036.68,778.069 1037.69,780.753 1038.7,782.462 1039.7,783.215 1040.71,783.612 1041.72,784.484 1042.73,786.402 1043.74,789.333 1044.74,792.644 1045.75,795.473 1046.76,797.233 1047.77,797.967 1048.78,798.335 1049.78,799.229 1050.79,801.246 1051.8,804.326 1052.81,807.771 1053.82,810.649 1054.82,812.346 1055.83,812.932 1056.84,813.14 1057.85,813.933 1058.86,815.939 1059.86,819.064 1060.87,822.532 1061.88,825.332 1062.89,826.813 1063.9,827.082 1064.4,827 1064.9,826.955 1065.41,827.08 1065.91,827.484 1066.92,829.333 1067.93,832.368 1068.94,835.716 1069.94,838.269 1070.95,839.334 1071.96,839.061 1072.97,838.37 1073.98,838.423 1074.98,839.926 1075.99,842.695 1077,845.74 1078.01,847.828 1079.02,848.215 1080.02,847.104 1081.03,845.549 1082.04,844.846 1083.05,845.758 1084.06,848.04 1085.06,850.546 1086.07,851.885 1087.08,851.246 1088.09,848.9 1089.1,846.075 1090.1,844.245 1091.11,844.249 1092.12,845.758 1093.13,847.42 1094.13,847.633 1095.14,845.493 1096.15,841.362 1096.71,838.735 1097.27,836.254 1097.82,834.201 1098.38,832.768 1099.49,831.894 1100.61,832.55 1101.17,832.685 1101.72,832.252 1102.28,831.009 1102.84,828.846 1103.95,822.097 1105.07,813.957 1105.62,810.271 1106.18,807.249 1106.74,805.044 1107.3,803.635 1108.41,802.295 1109.52,800.352 1110.08,798.163 1110.64,794.829 1111.2,790.324 1111.75,784.818 1112.87,772.285 1113.98,760.815 1114.54,756.415 1115.1,753.067 1115.65,750.614 1116.21,748.689 1116.77,746.771 1117.33,744.283 1117.88,740.69 1118.44,735.609 1119,728.881 1119.55,720.618 1120.11,711.188 1120.67,701.162 1121.23,691.211 1121.78,681.986 1122.34,673.985 1122.9,667.453 1123.45,662.314 1124.01,658.162 1124.57,654.316 1125.13,649.925 1125.68,644.117 1126.24,636.159 1126.8,625.603 1127.36,612.389 1127.91,596.883 1128.47,579.84 1129.03,562.291 1129.58,545.363 1130.14,530.073 1130.7,517.112 1131.26,506.673 1131.81,498.344 1132.37,491.1 1132.93,483.399 1133.48,473.377 1134.04,459.122 1134.6,438.986 1135.16,411.891 1135.71,377.584 1136.27,336.797 1136.83,291.277 1137.39,243.681 1137.94,197.337 1138.5,155.903 1139.06,122.954 1139.61,101.572 1140.17,93.9743 1140.73,101.238 1141.29,123.165 1141.84,158.298 1142.4,204.09 1142.96,257.199 1143.51,313.878 1144.07,370.395 1144.63,423.438 1145.19,470.442 1145.74,509.812 1146.3,540.999 1146.86,564.447 1147.42,581.407 1147.97,593.673 1148.53,603.258 1149.09,612.083 1149.64,621.711 1150.2,633.158 1150.76,646.812 1151.32,662.458 1151.87,679.392 1152.43,696.603 1152.99,712.993 1153.54,727.581 1154.1,739.674 1154.66,748.974 1155.22,755.605 1155.77,760.065 1156.33,763.117 1156.89,765.641 1157.45,768.473 1158,772.265 1158.56,777.384 1159.12,783.869 1159.67,791.447 1160.23,799.604 1160.79,807.695 1161.35,815.07 1161.9,821.197 1162.46,825.752 1163.02,828.669 1163.58,830.146 1164.13,830.593 1164.69,830.552 1165.25,830.595 1165.8,831.218 1166.36,832.755 1166.92,835.331 1167.48,838.841 1168.54,846.919 1169.6,854.203 1170.13,856.671 1170.66,858.108 1171.19,858.523 1171.72,858.075 1172.78,855.804 1173.84,854.063 1174.37,854.1 1174.9,854.897 1175.43,856.392 1175.96,858.398 1177.02,862.783 1178.08,865.634 1178.61,865.956 1179.14,865.481 1179.67,864.322 1180.2,862.692 1181.26,859.154 1182.32,857.014 1183.38,857.313 1184.44,859.386 1185.5,861.371 1186.56,861.457 1187.62,859.037 1188.68,855.052 1189.74,851.335 1190.8,849.406 1191.86,849.53 1192.92,850.595 1193.98,850.881 1195.05,849.185 1196.11,845.573 1197.17,841.299 1198.23,837.963 1199.29,836.483 1199.82,836.383 1200.35,836.531 1200.88,836.733 1201.41,836.789 1202.47,835.827 1203.53,833.022 1204.59,828.936 1205.65,824.922 1206.71,822.238 1207.77,821.242 1208.83,821.195 1209.89,820.764 1210.95,818.898 1212.01,815.492 1213.07,811.434 1214.13,808.008 1215.19,806.064 1216.25,805.482 1217.31,805.277 1218.37,804.254 1219.43,801.78 1220.49,798.177 1221.55,794.498 1222.61,791.829 1223.68,790.596 1224.74,790.304 1225.8,789.878 1226.86,788.368 1227.92,785.556 1228.98,782.081 1230.04,779.012 1231.1,777.152 1232.16,776.525 1233.22,776.382 1234.28,775.693 1235.34,773.822 1236.44,770.795 1237.54,767.601 1238.65,765.3 1239.75,764.337 1240.85,764.244 1241.95,763.985 1243.06,762.682 1244.16,760.223 1248.57,753.844 1252.98,748.795 1254.08,746.561 1255.18,745.379 1256.29,745.292 1257.39,745.609 1258.49,745.396 1259.6,744.125 1260.7,742.037 1261.8,739.96 1262.9,738.726 1264.01,738.595 1265.11,739.081 1266.21,739.304 1267.31,738.602 1268.42,736.989 1269.52,735.136 1270.62,733.892 1272.83,734.277 1275.03,734.67 1276.13,733.547 1277.24,731.971 1278.34,730.761 1279.44,730.492 1280.54,731.099 1281.65,731.932 1282.75,732.21 1283.85,731.572 1286.06,729.179 1288.26,729.413 1297.08,730.146 1305.9,732.133 1320.75,735.72 1335.6,741.392 1350.45,748.497 1365.3,755.911 1383.43,761.779 1401.56,767.102 1410.62,768.769 1419.69,769.331 1428.75,768.798 1437.82,767.491 1471.03,760.895 1504.25,752.261 1519.59,748.55 1534.93,745.872 1550.27,744.532 1565.61,744.694 1581.14,746.317 1596.68,749.452 1612.22,753.83 1627.76,758.976 1645.17,764.782 1662.58,769.125 1671.29,770.587 1680,771.512 1688.7,771.835 1697.41,771.46 1705.3,770.002 1713.19,767.729 1721.08,764.661 1728.97,760.858 1744.75,751.48 1760.53,740.882 1769.56,735.237 1778.59,730.683 1787.63,727.276 1796.66,725.004 1798.92,723.287 1801.18,722.117 1803.43,723.736 1805.69,724.029 1806.82,723.141 1807.95,722.332 1809.08,722.277 1810.21,723.131 1812.47,725.352 1814.73,724.84 1815.85,724.226 1816.98,724.34 1818.11,725.422 1819.24,727.036 1820.37,728.379 1821.5,728.872 1822.63,728.583 1823.76,728.19 1824.89,728.488 1826.02,729.806 1827.15,731.761 1828.28,733.529 1830.53,734.497 1832.79,734.823 1834.88,738.309 1836.97,741.924 1839.06,742.641 1841.16,743.931 1843.25,748.441 1845.34,752.251 1846.38,752.881 1847.43,753.149 1848.47,753.823 1849.52,755.445 1851.61,760.836 1853.7,764.65 1854.75,765.266 1855.79,765.742 1856.84,766.871 1857.88,769.058 1858.93,772.055 1859.97,775.108 1861.02,777.431 1862.07,778.702 1863.11,779.278 1864.16,779.978 1865.2,781.563 1866.25,784.254 1874.61,800.279 1882.98,816.109 1887.16,823.155 1891.34,830.422 1892.38,833.4 1893.43,835.105 1894.48,835.351 1895.52,834.85 1896.57,834.768 1897.61,835.991 1898.66,838.545 1899.7,841.555 1900.73,843.761 1901.76,844.408 1902.8,843.599 1903.83,842.296 1904.86,841.739 1905.89,842.674 1906.92,844.872 1907.95,847.24 1908.98,848.474 1910.01,847.869 1911.04,845.772 1912.07,843.397 1913.1,842.088 1914.13,842.478 1915.16,844.065 1916.19,845.485 1917.23,845.331 1918.26,843.032 1919.29,839.239 1920.32,835.454 1921.35,833.118 1922.38,832.699 1923.41,833.351 1924.44,833.393 1924.96,832.679 1925.47,831.321 1925.99,829.318 1926.5,826.762 1927.53,820.749 1928.56,815.131 1929.59,811.439 1930.62,809.9 1931.66,809.224 1932.69,807.337 1933.2,805.389 1933.72,802.643 1934.23,799.144 1934.75,795.05 1935.78,786.104 1936.81,778.093 1937.32,775.007 1937.84,772.638 1938.36,770.908 1938.87,769.615 1939.39,768.465 1939.9,767.117 1940.42,765.236 1940.93,762.545 1941.45,758.875 1941.96,754.196 1942.48,748.62 1942.99,742.398 1943.51,735.872 1944.02,729.432 1944.54,723.449 1945.05,718.213 1945.57,713.887 1946.09,710.468 1946.6,707.788 1947.12,705.528 1947.63,703.266 1948.15,700.541 1948.66,696.923 1949.18,692.087 1949.69,685.868 1950.21,678.295 1950.72,669.595 1951.24,660.164 1951.75,650.511 1952.27,641.181 1952.79,632.665 1953.3,625.32 1953.82,619.298 1954.33,614.512 1954.85,610.633 1955.36,607.128 1955.88,603.336 1956.39,598.556 1956.91,592.169 1957.42,583.73 1957.94,573.061 1958.45,560.288 1958.97,545.849 1959.48,530.44 1960,514.922 1960.52,500.196 1961.03,487.053 1961.55,476.037 1962.06,467.325 1962.58,460.658 1963.09,455.327 1963.61,450.226 1964.12,443.969 1964.64,435.061 1965.15,422.098 1965.67,403.983 1966.17,380.895 1966.67,352.418 1967.17,319.232 1967.67,282.664 1968.17,244.618 1968.67,207.432 1969.17,173.687 1969.67,145.97 1970.17,126.631 1970.67,117.557 1971.17,119.976 1971.67,134.335 1972.17,160.243 1972.67,196.502 1973.17,241.218 1973.68,291.97 1974.18,346.041 1974.68,400.66 1975.18,453.246 1975.68,501.627 1976.18,544.197 1976.68,580.02 1977.18,608.848 1977.68,631.077 1978.18,647.633 1978.68,659.813 1979.18,669.096 1979.68,676.959 1980.18,684.707 1980.68,693.335 1981.18,703.451 1981.68,715.245 1982.68,742.769 1983.68,771.267 1984.18,783.987 1984.68,794.859 1985.18,803.532 1985.68,809.925 1986.18,814.228 1986.68,816.857 1987.19,818.383 1987.69,819.447 1988.19,820.663 1988.69,822.536 1989.19,825.396 1989.69,829.367 1990.69,840.093 1991.69,852.1 1992.19,857.437 1992.69,861.794 1993.19,864.921 1993.69,866.735 1994.19,867.326 1994.69,866.937 1995.19,865.92 1995.69,864.688 1996.19,863.643 1996.69,863.128 1997.19,863.37 1997.69,864.46 1998.69,868.822 1999.69,874.386 2000.19,876.791 2000.7,878.548 2001.2,879.464 2001.7,879.467 2002.7,877.076 2003.7,873.02 2004.7,869.642 2005.7,868.633 2006.7,870.118 2007.7,872.692 2008.2,873.737 2008.7,874.302 2009.2,874.23 2009.7,873.459 2010.7,870.066 2011.7,865.41 2012.2,863.204 2012.7,861.373 2013.2,860.065 2013.71,859.341 2014.71,859.44 2015.71,860.526 2016.71,860.898 2017.71,859.297 2018.71,855.609 2019.71,850.893 2020.71,846.728 2021.71,844.299 2022.71,843.734 2023.71,844.073 2024.71,843.86 2025.71,841.994 2026.71,838.353 2027.72,833.83 2028.72,829.794 2029.72,827.285 2030.74,826.432 2031.77,826.425 2032.79,825.891 2033.82,823.821 2034.85,820.165 2035.87,815.839 2036.9,812.143 2037.92,809.97 2038.95,809.283 2039.98,809.159 2041,808.375 2042.03,806.151 2043.05,802.608 2044.08,798.675 2045.11,795.508 2046.13,793.787 2047.16,793.319 2048.18,793.176 2049.21,792.275 2050.23,790.03 2051.26,786.7 2052.29,783.211 2053.31,780.582 2054.34,779.308 2055.36,779.075 2056.39,778.965 2057.42,778.025 2058.44,775.843 2059.47,772.785 2060.49,769.759 2061.52,767.655 2062.55,766.806 2063.57,766.803 2064.6,766.749 2065.62,765.818 2066.65,763.75 2067.68,760.996 2068.7,758.434 2069.73,756.83 2070.75,756.375 2071.78,756.582 2072.8,756.592 2073.83,755.699 2074.86,753.777 2075.88,751.342 2076.91,749.233 2077.93,748.095 2078.96,747.995 2079.99,748.388 2081.01,748.459 2082.04,747.62 2083.06,745.862 2084.09,743.751 2085.12,742.075 2086.14,741.365 2087.17,741.577 2088.19,742.127 2089.22,742.251 2090.24,741.473 2091.27,739.888 2092.3,738.095 2093.32,736.827 2094.35,736.505 2095.37,736.986 2104.37,734.67 2113.36,733.62 2122.35,733.348 2131.34,733.747 2140.33,734.984 2149.33,737.265 2158.32,740.615 2167.31,744.762 2180.37,750.223 2193.43,756.45 2199.96,757.855 2206.5,759.133 2213.03,761.23 2219.56,763.811 2232.62,766.225 2245.68,766.473 2252.21,767.474 2258.74,768.206 2265.28,767.778 2271.81,766.414 2277.17,765.597 2282.53,766.116 2287.89,764.234 2293.24,763.005 "/>
<polyline clip-path="url(#clip752)" style="stroke:#3da44d; stroke-linecap:round; stroke-linejoin:round; stroke-width:4; stroke-opacity:1; fill:none" points="309.539,86.1857 309.741,86.8176 309.943,88.7064 310.145,91.8315 310.346,96.1592 310.548,101.643 310.75,108.223 310.952,115.831 311.154,124.385 311.355,133.798 311.557,143.973 311.759,154.807 311.961,166.193 312.364,190.181 312.768,215.053 313.172,239.951 313.575,264.097 313.979,286.828 314.382,307.628 314.584,317.188 314.786,326.147 314.988,334.49 315.19,342.212 315.391,349.316 315.593,355.817 315.795,361.739 315.997,367.114 316.4,376.381 316.804,383.998 317.208,390.399 317.611,396.044 318.418,406.791 319.226,419.047 319.629,426.236 320.033,434.19 320.436,442.83 320.84,451.999 321.244,461.477 321.647,471.012 321.849,475.719 322.051,480.344 322.253,484.856 322.454,489.229 323.387,507.03 324.32,520.186 325.253,529.329 326.186,536.506 327.119,544.103 328.052,553.735 328.985,565.592 329.918,578.523 330.851,590.718 331.784,600.64 332.717,607.746 333.65,612.676 334.583,616.868 335.516,621.819 336.449,628.382 337.382,636.411 338.314,644.907 339.247,652.564 340.18,658.426 341.113,662.331 342.046,664.95 342.979,667.418 343.912,670.767 344.845,675.434 345.778,681.09 346.711,686.84 347.644,691.696 348.577,695.06 349.51,697.005 350.443,698.208 351.376,699.598 352.309,701.894 354.175,709.287 356.041,716.098 356.974,717.793 357.906,718.457 358.839,718.754 359.772,719.446 361.638,723.455 363.504,728.748 364.437,730.332 365.37,730.865 366.303,730.675 367.236,730.39 369.102,731.681 370.968,735.296 371.901,736.73 372.834,737.307 373.767,737.023 374.7,736.267 378.431,737.412 382.163,738.167 383.096,737.051 384.029,736.193 384.962,735.951 385.895,736.35 387.761,737.646 389.627,736.919 391.493,734.356 393.359,733.048 395.225,733.594 397.09,733.194 398.956,730.597 400.822,728.199 402.688,727.809 404.554,727.58 406.42,725.323 408.286,722.292 409.219,721.344 410.152,720.919 411.085,720.797 412.018,720.606 419.481,712.758 426.945,704.467 434.409,696.098 441.872,687.938 450.843,679.046 459.813,670.794 468.784,663.135 477.755,656.028 486.725,649.498 495.696,643.658 504.667,638.673 513.637,634.707 521.222,632.52 528.806,630.985 536.391,630.03 543.976,629.579 559.145,629.922 574.314,631.58 590.792,635.065 607.27,639.587 623.748,644.723 640.226,650.097 670.608,659.126 700.99,666.52 717.277,669.546 733.564,671.591 749.85,672.532 766.137,672.268 775.571,671.736 785.006,670.989 794.441,669.62 803.876,667.399 822.745,661.332 841.615,655.093 875.153,641.051 908.691,627.562 923.396,623.275 938.101,620.388 945.454,619.916 952.806,620.338 960.159,621.779 967.511,624.287 975.527,627.792 983.543,632.483 991.56,638.414 999.576,645.62 1007.59,654.113 1015.61,663.871 1023.62,674.836 1031.64,686.902 1039.7,699.948 1047.77,713.7 1055.83,727.826 1063.9,741.872 1064.9,742.507 1065.91,743.369 1066.92,744.95 1067.93,747.327 1068.94,750.104 1069.94,752.627 1070.95,754.366 1071.96,755.224 1072.97,755.605 1073.98,756.189 1074.98,757.543 1075.99,759.78 1077,762.48 1078.01,764.92 1079.02,766.488 1080.02,767.044 1081.03,767.016 1082.04,767.162 1083.05,768.138 1084.06,770.106 1085.06,772.615 1086.07,774.853 1087.08,776.103 1088.09,776.17 1089.1,775.511 1090.1,774.988 1091.11,775.375 1092.12,776.891 1093.13,779.05 1094.13,780.917 1095.14,781.636 1096.15,780.938 1097.27,779.135 1098.38,777.568 1099.49,777.384 1100.61,778.689 1101.72,780.412 1102.84,781 1103.95,779.501 1105.07,776.272 1106.18,772.795 1107.3,770.668 1108.41,770.449 1109.52,771.172 1110.08,771.293 1110.64,770.927 1111.2,769.906 1111.75,768.16 1112.87,762.808 1113.98,756.443 1114.54,753.582 1115.1,751.248 1115.65,749.548 1116.21,748.459 1117.33,747.357 1118.44,745.584 1119,743.628 1119.55,740.677 1120.11,736.697 1120.67,731.821 1121.78,720.591 1122.9,710.026 1123.45,705.827 1124.01,702.52 1124.57,699.986 1125.13,697.908 1125.68,695.816 1126.24,693.159 1126.8,689.397 1127.36,684.103 1127.91,677.047 1128.47,668.248 1129.03,657.995 1129.58,646.808 1130.14,635.36 1130.7,624.362 1131.26,614.425 1131.81,605.929 1132.37,598.911 1132.93,593.003 1133.48,587.426 1134.04,581.051 1134.6,572.522 1135.16,560.431 1135.71,543.517 1136.27,520.867 1136.83,492.086 1137.39,457.412 1137.94,417.761 1138.5,374.679 1139.06,330.218 1139.61,286.741 1140.17,246.677 1140.73,212.271 1141.29,185.335 1141.84,167.068 1142.4,157.928 1142.96,157.608 1143.51,165.095 1144.07,178.811 1144.63,196.815 1145.19,217.039 1145.74,237.525 1146.3,256.633 1146.86,273.192 1147.42,286.582 1147.97,296.738 1148.53,304.077 1149.09,309.371 1149.64,313.584 1150.2,317.699 1150.76,322.558 1151.32,328.746 1151.87,336.521 1152.43,345.808 1152.99,356.243 1153.54,367.263 1154.1,378.217 1154.66,388.489 1155.22,397.596 1155.77,405.268 1156.33,411.472 1156.89,416.409 1157.45,420.459 1158,424.106 1158.56,427.851 1159.12,432.117 1159.67,437.19 1160.23,443.172 1160.79,449.975 1161.9,464.937 1163.02,479.189 1163.58,485.218 1164.13,490.298 1164.69,494.456 1165.25,497.863 1166.36,503.601 1167.48,510.038 1168.54,518.295 1169.6,528.426 1170.66,538.89 1171.72,547.875 1172.78,554.427 1173.84,558.988 1174.9,563.037 1175.96,568.125 1177.02,574.923 1178.08,582.866 1179.14,590.578 1180.2,596.772 1182.32,604.08 1184.44,611.43 1185.5,617.034 1186.56,623.244 1187.62,628.866 1188.68,633.026 1189.74,635.704 1190.8,637.711 1191.86,640.153 1192.92,643.732 1193.98,648.328 1195.05,653.11 1196.11,657.083 1197.17,659.719 1198.23,661.272 1199.29,662.589 1200.35,664.567 1201.41,667.589 1202.47,671.305 1203.53,674.88 1204.59,677.53 1205.65,679.018 1207.77,680.648 1209.89,684.828 1214.13,692.516 1218.37,696.811 1222.61,701.431 1226.86,704.589 1231.1,706.713 1235.34,708.993 1237.54,710.232 1239.75,709.029 1241.95,709.147 1244.16,710.906 1246.36,710.632 1248.57,709.014 1250.77,709.424 1252.98,710.316 1255.18,708.87 1257.39,707.347 1259.6,707.882 1261.8,707.735 1264.01,705.588 1266.21,704.458 1268.42,704.828 1270.62,703.659 1288.26,692.864 1305.9,681.019 1320.75,671.673 1335.6,663.191 1350.45,655.325 1365.3,648.135 1383.43,642.009 1401.56,637.139 1410.62,635.488 1419.69,634.541 1428.75,634.306 1437.82,634.666 1454.43,635.896 1471.03,638.267 1487.64,641.57 1504.25,645.599 1534.93,653.705 1565.61,662.453 1581.14,666.767 1596.68,670.619 1612.22,673.692 1627.76,675.655 1645.17,675.604 1662.58,673.611 1671.29,671.903 1680,669.724 1688.7,667.068 1697.41,663.923 1713.19,656.387 1728.97,647.479 1744.75,637.734 1760.53,627.898 1769.56,622.718 1778.59,618.243 1787.63,614.536 1796.66,611.623 1805.69,609.592 1814.73,608.671 1819.24,608.547 1823.76,609.248 1828.28,611.154 1832.79,611.827 1834.88,613.048 1836.97,615.406 1839.06,616.348 1841.16,616.522 1843.25,618.495 1845.34,621.363 1847.43,622.577 1849.52,623.315 1851.61,626.094 1853.7,629.467 1855.79,630.982 1857.88,632.367 1859.97,635.994 1862.07,639.856 1864.16,641.697 1866.25,643.809 1868.34,648.31 1870.43,652.628 1872.52,654.815 1874.61,657.724 1876.7,663.106 1878.79,667.829 1880.88,670.373 1882.98,674.139 1885.07,680.384 1887.16,685.435 1888.2,686.945 1889.25,688.334 1890.29,690.235 1891.34,693.001 1892.38,696.469 1893.43,700.057 1894.48,703.115 1895.52,705.329 1896.57,706.931 1897.61,708.56 1898.66,710.878 1899.7,714.149 1900.73,718.009 1901.76,721.825 1902.8,724.952 1903.83,727.163 1904.86,728.804 1905.89,730.594 1906.92,733.197 1907.95,736.814 1908.98,741.043 1910.01,745.11 1911.04,748.329 1912.07,750.523 1913.1,752.151 1914.13,754.04 1915.16,756.897 1916.19,760.865 1917.23,765.416 1918.26,769.653 1919.29,772.842 1920.32,774.874 1921.35,776.345 1922.38,778.222 1923.41,781.258 1924.44,785.519 1925.47,790.315 1926.5,794.592 1927.53,797.562 1928.56,799.2 1929.59,800.29 1930.62,801.976 1931.66,805.07 1932.69,809.532 1933.2,812.015 1933.72,814.452 1934.23,816.68 1934.75,818.561 1935.78,820.999 1936.81,821.864 1937.84,822.198 1938.87,823.395 1939.9,826.349 1940.93,830.866 1941.96,835.707 1942.99,839.29 1944.02,840.641 1945.05,840.041 1946.09,838.932 1947.12,839.1 1948.15,841.572 1949.18,845.899 1949.69,848.231 1950.21,850.302 1950.72,851.843 1951.24,852.651 1951.75,852.619 1952.27,851.76 1952.79,850.211 1953.3,848.214 1953.82,846.086 1954.33,844.17 1954.85,842.779 1955.36,842.149 1955.88,842.388 1956.39,843.455 1956.91,845.157 1957.42,847.161 1957.94,849.046 1958.45,850.352 1958.97,850.66 1959.48,849.651 1960,847.17 1960.52,843.258 1961.03,838.165 1961.55,832.323 1962.06,826.296 1962.58,820.7 1963.09,816.105 1963.61,812.941 1964.12,811.4 1964.64,811.375 1965.15,812.425 1965.67,813.781 1966.17,814.4 1966.67,813.199 1967.17,808.994 1967.67,800.667 1968.17,787.285 1968.67,768.221 1969.17,743.235 1969.67,712.536 1970.17,676.784 1970.67,637.066 1971.17,594.811 1971.67,551.681 1972.17,509.432 1972.67,469.767 1973.17,434.194 1973.68,403.9 1974.18,379.663 1974.68,361.799 1975.18,350.163 1975.68,344.183 1976.18,342.946 1976.68,345.304 1977.18,350.001 1977.68,355.8 1978.18,361.606 1978.68,366.55 1979.18,370.06 1979.68,371.879 1980.18,372.053 1980.68,370.885 1981.18,368.864 1981.68,366.577 1982.18,364.618 1982.68,363.503 1983.18,363.609 1983.68,365.13 1984.18,368.061 1984.68,372.217 1985.18,377.265 1985.68,382.784 1986.18,388.324 1986.68,393.469 1987.19,397.896 1987.69,401.408 1988.19,403.956 1988.69,405.636 1989.19,406.663 1989.69,407.34 1990.19,408.005 1990.69,408.979 1991.19,410.529 1991.69,412.823 1992.19,415.917 1992.69,419.751 1993.19,424.159 1993.69,428.901 1994.69,438.283 1995.69,445.939 1996.69,450.991 1997.69,454.026 1998.69,456.659 1999.69,460.573 2000.7,466.594 2001.7,474.297 2002.7,482.319 2003.7,489.165 2004.7,494.037 2005.7,497.227 2006.7,499.892 2007.7,503.366 2008.7,508.413 2009.7,514.839 2010.7,521.643 2011.7,527.62 2012.7,532.034 2013.71,535.005 2014.71,537.4 2015.71,540.32 2016.71,544.475 2017.71,549.808 2018.71,555.562 2019.71,560.73 2020.71,564.626 2021.71,567.26 2022.71,569.298 2023.71,571.671 2024.71,575.042 2025.71,579.448 2026.71,584.303 2027.72,588.749 2028.72,592.144 2029.72,594.419 2030.74,596.133 2031.77,598.076 2032.79,600.9 2033.82,604.676 2034.85,608.871 2035.87,612.681 2036.9,615.515 2037.92,617.334 2038.95,618.66 2039.98,620.25 2041,622.646 2042.03,625.864 2044.08,632.529 2046.13,636.131 2050.23,643.13 2054.34,651.345 2058.44,657.005 2062.55,663.458 2066.65,667.955 2070.75,672.894 2074.86,676.388 2078.96,680.026 2087.17,685.182 2095.37,688.649 2104.37,690.345 2113.36,690.894 2122.35,690.624 2131.34,689.674 2140.33,688.055 2149.33,685.736 2158.32,682.727 2167.31,679.137 2193.43,667.736 2219.56,657.212 2232.62,653.334 2245.68,648.978 2258.74,644.953 2271.81,642.76 2277.17,640.962 2282.53,640.122 2287.89,639.905 2293.24,638.419 "/>
<polyline clip-path="url(#clip752)" style="stroke:#c271d2; stroke-linecap:round; stroke-linejoin:round; stroke-width:4; stroke-opacity:1; fill:none" points="309.539,86.1857 309.741,86.4601 309.943,87.2806 310.145,88.6387 310.346,90.5204 310.548,92.9062 310.75,95.772 310.952,99.0888 311.154,102.823 311.557,111.394 311.961,121.156 312.364,131.746 312.768,142.794 313.575,164.843 314.382,184.855 314.786,193.574 315.19,201.292 315.593,207.993 315.997,213.723 316.804,222.73 317.611,229.567 318.418,235.701 319.226,242.354 320.033,250.193 320.84,259.23 321.244,264.044 321.647,268.928 321.849,271.362 322.051,273.773 322.253,276.148 322.454,278.474 323.387,288.316 324.32,296.263 325.253,302.422 326.186,307.546 327.119,312.636 328.052,318.47 328.985,325.284 329.918,332.726 330.851,340.081 331.784,346.64 332.717,352.033 333.65,356.374 334.583,360.18 335.516,364.101 336.449,368.611 337.382,373.806 338.314,379.386 339.247,384.827 340.18,389.641 341.113,393.61 342.979,399.839 344.845,406.629 346.711,415.184 348.577,423.094 350.443,428.656 352.309,433.618 354.175,440.052 356.041,446.967 357.906,452.214 359.772,456.139 363.504,466.613 367.236,475.033 370.968,483.007 374.7,490.869 378.431,496.847 382.163,504.074 384.029,506.21 385.895,508.632 387.761,511.933 389.627,515.011 391.493,516.995 393.359,518.702 395.225,521.2 397.09,524.014 404.554,531.399 412.018,537.451 419.481,542.419 426.945,546.495 434.409,549.814 441.872,552.455 450.843,554.452 459.813,555.697 468.784,556.295 477.755,556.309 486.725,555.777 495.696,554.727 504.667,553.196 513.637,551.239 543.976,542.7 574.314,532.283 640.226,508.325 700.99,487.446 733.564,476.995 766.137,467.43 785.006,462.501 803.876,457.68 822.745,453.828 841.615,450.864 858.384,448.749 875.153,447.473 891.922,447.202 908.691,448.132 923.396,450.246 938.101,453.282 952.806,457.789 967.511,464.358 975.527,468.674 983.543,473.598 991.56,479.172 999.576,485.441 1007.59,492.452 1015.61,500.257 1023.62,508.91 1031.64,518.47 1039.7,529.059 1047.77,540.706 1055.83,553.491 1063.9,567.507 1071.96,582.857 1080.02,599.661 1082.04,603.349 1084.06,607.078 1086.07,612.44 1088.09,618.065 1090.1,622.169 1092.12,626.119 1094.13,631.928 1096.15,638.25 1098.38,643.227 1100.61,648.107 1102.84,655.637 1105.07,662.913 1106.18,665.466 1107.3,667.696 1108.41,670.333 1109.52,673.9 1110.64,678.33 1111.75,682.977 1112.87,687.027 1113.98,690.061 1115.1,692.386 1116.21,694.878 1117.33,698.412 1118.44,703.237 1119.55,708.747 1120.67,713.821 1121.78,717.579 1122.9,720.033 1124.01,722.193 1125.13,725.468 1126.24,730.706 1127.36,737.503 1128.47,744.296 1129.58,749.308 1130.7,751.806 1131.81,752.873 1132.37,753.641 1132.93,755.047 1133.48,757.393 1134.04,760.857 1134.6,765.442 1135.16,770.949 1135.71,776.968 1136.27,782.905 1136.83,788.033 1137.39,791.568 1137.94,792.751 1138.5,790.945 1139.06,785.708 1139.61,776.858 1140.17,764.505 1140.73,749.044 1141.29,731.128 1141.84,711.595 1142.4,691.387 1142.96,671.45 1143.51,652.642 1144.07,635.647 1144.63,620.92 1145.19,608.654 1145.74,598.788 1146.3,591.037 1146.86,584.952 1147.42,579.993 1148.53,571.308 1149.64,561.608 1150.76,549.77 1151.87,536.894 1152.43,530.732 1152.99,525.095 1153.54,520.152 1154.1,515.969 1155.22,509.641 1156.33,504.859 1157.45,499.916 1158.56,493.745 1159.67,486.473 1160.79,479.179 1161.9,473.077 1163.02,468.708 1164.13,465.636 1165.25,462.81 1166.36,459.281 1167.48,454.795 1168.54,450.127 1169.6,445.869 1170.66,442.616 1171.72,440.423 1172.78,438.8 1173.84,437.035 1174.9,434.632 1175.96,431.587 1178.08,425.567 1180.2,422.388 1182.32,420.321 1184.44,416.371 1188.68,410.618 1192.92,406.528 1197.17,403.208 1201.41,400.498 1205.65,398.954 1209.89,397.266 1214.13,397.044 1218.37,396.134 1222.61,396.902 1226.86,396.599 1228.98,396.943 1231.1,398.109 1233.22,398.487 1235.34,398.291 1244.16,401.016 1252.98,404.59 1261.8,408.801 1270.62,413.467 1288.26,423.579 1305.9,434.011 1335.6,450.819 1365.3,467.317 1383.43,476.193 1401.56,484.684 1419.69,492.674 1437.82,499.809 1454.43,505.658 1471.03,510.953 1487.64,515.709 1504.25,519.94 1534.93,526.409 1565.61,530.829 1581.14,532.432 1596.68,533.574 1612.22,534.187 1627.76,534.172 1645.17,533.063 1662.58,530.988 1680,527.908 1697.41,523.742 1713.19,518.735 1728.97,512.625 1744.75,505.345 1760.53,496.828 1778.59,485.163 1796.66,472.067 1814.73,457.349 1832.79,440.637 1849.52,423.808 1866.25,405.992 1882.98,387.665 1899.7,369.613 1907.95,361.26 1916.19,353.546 1924.44,346.821 1932.69,341.594 1936.81,339.984 1940.93,338.672 1945.05,338.847 1949.18,339.448 1950.21,338.489 1951.24,338.562 1952.27,340.1 1953.3,342.751 1954.33,345.515 1955.36,347.292 1956.39,347.553 1957.42,346.754 1958.45,346.198 1959.48,347.378 1960.52,351.093 1961.55,356.862 1962.58,362.992 1963.61,367.415 1964.12,368.543 1964.64,368.928 1965.15,368.727 1965.67,368.247 1966.17,367.923 1966.67,368.229 1967.17,369.69 1967.67,372.826 1968.17,378.099 1968.67,385.86 1969.17,396.309 1969.67,409.468 1970.17,425.164 1970.67,443.037 1971.17,462.564 1971.67,483.096 1972.17,503.913 1972.67,524.28 1973.17,543.505 1973.68,560.999 1974.18,576.314 1974.68,589.179 1975.18,599.507 1975.68,607.393 1976.18,613.091 1976.68,616.979 1977.18,619.509 1977.68,621.164 1978.68,623.626 1979.68,627.105 1980.68,632.615 1981.68,639.497 1982.68,646.163 1983.68,651.098 1984.18,652.666 1984.68,653.643 1985.18,654.117 1985.68,654.229 1986.68,654.03 1987.69,654.29 1988.69,655.698 1989.69,658.117 1990.69,660.762 1991.69,662.697 1992.69,663.347 1993.69,662.782 1994.69,661.626 1995.69,660.687 1996.69,660.52 1997.69,661.158 1998.69,662.139 1999.69,662.795 2000.7,662.632 2001.7,661.582 2003.7,658.532 2005.7,657.326 2007.7,657.432 2009.7,655.609 2011.7,652.137 2013.71,650.004 2021.71,640.842 2029.72,630.749 2046.13,609.219 2062.55,588.178 2078.96,568.612 2095.37,550.892 2104.37,542.133 2113.36,534.005 2122.35,526.428 2131.34,519.329 2149.33,506.404 2167.31,495.187 2180.37,488.643 2193.43,482.213 2206.5,477.416 2219.56,472.582 2245.68,465.622 2271.81,460.675 2277.17,459.604 2282.53,458.882 2287.89,458.516 2293.24,457.629 "/>
<polyline clip-path="url(#clip752)" style="stroke:#ac8d18; stroke-linecap:round; stroke-linejoin:round; stroke-width:4; stroke-opacity:1; fill:none" points="309.539,86.1857 309.943,86.6899 310.346,88.1824 310.75,90.603 311.154,93.8561 311.557,97.8154 311.961,102.332 312.364,107.242 312.768,112.376 313.575,122.675 314.382,132.106 314.786,136.253 315.19,139.954 315.593,143.196 315.997,146 316.804,150.487 317.611,153.969 318.418,157.106 319.226,160.46 320.033,164.35 320.84,168.801 321.244,171.173 321.647,173.585 322.051,175.99 322.454,178.339 323.387,183.333 324.32,187.485 325.253,190.814 326.186,193.639 328.052,199.503 329.918,206.915 330.851,210.789 331.784,214.341 332.717,217.375 333.65,219.915 335.516,224.447 337.382,229.814 338.314,232.87 339.247,235.91 340.18,238.699 341.113,241.112 342.979,245.076 344.845,249.163 346.711,254.102 348.577,258.909 350.443,262.657 352.309,265.984 354.175,269.935 356.041,274.248 357.906,277.898 359.772,280.837 363.504,287.741 367.236,294.057 370.968,299.814 374.7,305.873 376.566,308.183 378.431,310.765 380.297,313.739 382.163,316.464 384.029,318.641 385.895,320.794 387.761,323.366 389.627,325.993 393.359,330.025 397.09,334.619 404.554,342.491 412.018,349.739 419.481,356.466 426.945,362.74 434.409,368.599 441.872,374.055 450.843,379.898 459.813,385.258 468.784,390.191 477.755,394.736 486.725,398.919 495.696,402.755 504.667,406.253 513.637,409.426 528.806,414.023 543.976,417.91 559.145,421.256 574.314,424.136 590.792,426.632 607.27,428.607 623.748,430.114 640.226,431.196 655.417,431.914 670.608,432.257 685.799,432.236 700.99,431.921 717.277,431.345 733.564,430.456 749.85,429.252 766.137,427.725 785.006,425.627 803.876,423.011 822.745,419.685 841.615,415.896 858.384,412.018 875.153,407.588 891.922,402.546 908.691,396.822 923.396,391.056 938.101,384.81 952.806,377.915 967.511,370.046 975.527,365.373 983.543,360.407 991.56,355.129 999.576,349.514 1007.59,343.538 1015.61,337.173 1023.62,330.385 1031.64,323.138 1039.7,315.344 1047.77,306.985 1055.83,297.998 1063.9,288.302 1065.91,286.082 1067.93,283.749 1069.94,280.793 1071.96,277.8 1073.98,275.353 1075.99,272.873 1078.01,269.691 1080.02,266.363 1082.04,263.642 1084.06,260.989 1086.07,257.548 1088.09,253.822 1090.1,250.763 1092.12,247.9 1094.13,244.155 1096.15,239.94 1098.38,236.131 1100.61,232.57 1102.84,227.681 1105.07,222.509 1106.18,220.403 1107.3,218.528 1108.41,216.546 1109.52,214.139 1111.75,208.037 1113.98,202.353 1115.1,200.145 1116.21,197.995 1117.33,195.423 1118.44,192.146 1119.55,188.299 1120.67,184.372 1121.78,180.904 1122.9,178.102 1124.01,175.643 1125.13,172.831 1125.68,171.078 1126.24,169.03 1126.8,166.691 1127.36,164.113 1128.47,158.63 1129.58,153.515 1130.7,149.469 1131.81,146.383 1132.37,144.893 1132.93,143.182 1133.48,141.043 1134.04,138.296 1134.6,134.819 1135.16,130.579 1135.71,125.648 1136.27,120.212 1136.83,114.558 1137.39,109.058 1137.94,104.13 1138.5,100.198 1139.06,97.642 1139.61,96.7633 1140.17,97.7427 1140.73,100.622 1141.29,105.297 1141.84,111.526 1142.4,118.96 1142.96,127.174 1143.51,135.715 1144.07,144.149 1144.63,152.102 1145.19,159.291 1145.74,165.552 1146.3,170.836 1146.86,175.207 1147.42,178.818 1147.97,181.88 1148.53,184.629 1149.09,187.288 1149.64,190.041 1150.76,196.246 1151.87,203.396 1152.99,210.779 1154.1,217.439 1154.66,220.298 1155.22,222.823 1155.77,225.056 1156.33,227.073 1157.45,230.857 1158.56,234.901 1159.67,239.547 1160.79,244.59 1161.9,249.488 1163.02,253.743 1165.25,260.223 1167.48,266.607 1168.54,270.193 1169.6,273.879 1170.66,277.312 1171.72,280.26 1173.84,285.031 1175.96,290.099 1177.02,293.038 1178.08,296.008 1179.14,298.738 1180.2,301.083 1182.32,305.007 1184.44,309.341 1186.56,314.282 1188.68,318.431 1190.8,321.742 1192.92,325.519 1195.05,329.724 1197.17,333.177 1199.29,336.022 1201.41,339.357 1205.65,345.882 1209.89,351.335 1214.13,356.938 1218.37,361.792 1226.86,370.98 1235.34,379.09 1244.16,386.588 1252.98,393.198 1261.8,399.024 1270.62,404.158 1279.44,408.681 1288.26,412.666 1297.08,416.178 1305.9,419.273 1320.75,423.889 1335.6,427.442 1350.45,430.097 1365.3,432.151 1383.43,434.025 1401.56,435.212 1419.69,435.678 1437.82,435.497 1454.43,434.986 1471.03,434.112 1487.64,432.904 1504.25,431.382 1519.59,429.784 1534.93,427.903 1550.27,425.714 1565.61,423.234 1581.14,420.477 1596.68,417.479 1612.22,414.238 1627.76,410.724 1645.17,406.285 1662.58,401.427 1680,396.127 1697.41,390.341 1713.19,384.531 1728.97,378.235 1744.75,371.418 1760.53,364.027 1778.59,354.626 1796.66,344.41 1805.69,338.95 1814.73,333.206 1823.76,327.134 1832.79,320.697 1841.16,314.434 1849.52,307.858 1857.88,300.947 1866.25,293.675 1874.61,286.012 1882.98,277.923 1891.34,269.364 1899.7,260.281 1903.83,255.238 1907.95,250.771 1912.07,245.355 1916.19,240.606 1918.26,237.384 1920.32,234.746 1922.38,232.577 1924.44,229.668 1926.5,226.125 1928.56,223.261 1930.62,220.966 1932.69,217.789 1933.72,215.804 1934.75,213.825 1935.78,212.084 1936.81,210.674 1937.84,209.48 1938.87,208.238 1939.9,206.683 1940.93,204.705 1941.96,202.427 1942.99,200.145 1944.02,198.162 1945.05,196.606 1946.09,195.339 1947.12,194.016 1948.15,192.279 1949.18,189.963 1950.21,187.221 1951.24,184.452 1952.27,182.087 1953.3,180.327 1954.33,178.993 1955.36,177.59 1956.39,175.562 1957.42,172.624 1958.45,168.968 1959.48,165.215 1960.52,162.096 1961.55,160.015 1962.58,158.725 1963.61,157.323 1964.12,156.205 1964.64,154.629 1965.15,152.506 1965.67,149.813 1966.17,146.698 1966.67,143.207 1967.17,139.524 1967.67,135.889 1968.17,132.582 1968.67,129.9 1969.17,128.13 1969.67,127.525 1970.17,128.28 1970.67,130.511 1971.17,134.245 1971.67,139.413 1972.17,145.858 1972.67,153.343 1973.17,161.575 1973.68,170.226 1974.18,178.963 1974.68,187.472 1975.18,195.486 1975.68,202.799 1976.18,209.285 1976.68,214.893 1977.18,219.652 1977.68,223.657 1978.18,227.049 1978.68,230.003 1979.18,232.699 1979.68,235.306 1980.68,240.771 1981.68,246.995 1982.68,253.855 1983.68,260.737 1984.18,263.961 1984.68,266.945 1985.18,269.652 1985.68,272.074 1986.68,276.186 1987.69,279.73 1988.69,283.279 1989.69,287.23 1990.69,291.634 1991.69,296.21 1992.69,300.536 1993.69,304.283 1995.69,310.06 1997.69,315.502 1999.69,322.077 2001.7,328.346 2003.7,332.98 2005.7,337.162 2007.7,342.23 2009.7,347.308 2011.7,351.159 2013.71,354.486 2015.71,358.502 2017.71,362.712 2019.71,365.99 2021.71,368.7 2023.71,371.933 2025.71,375.473 2027.72,378.309 2029.72,380.557 2031.77,383.257 2033.82,386.327 2035.87,388.821 2037.92,390.749 2042.03,395.626 2046.13,399.375 2054.34,406.713 2062.55,412.975 2070.75,418.327 2078.96,422.899 2087.17,426.799 2095.37,430.113 2104.37,433.086 2113.36,435.57 2122.35,437.632 2131.34,439.317 2140.33,440.651 2149.33,441.656 2158.32,442.349 2167.31,442.753 2180.37,442.738 2193.43,442.637 2206.5,442.03 2219.56,441.076 2245.68,438.502 2271.81,435.172 2277.17,434.393 2282.53,433.703 2287.89,432.72 2293.24,431.91 "/>
<path clip-path="url(#clip750)" d="M1907.3 1377.32 L2282.66 1377.32 L2282.66 1066.28 L1907.3 1066.28  Z" fill="#ffffff" fill-rule="evenodd" fill-opacity="1"/>
<polyline clip-path="url(#clip750)" style="stroke:#000000; stroke-linecap:round; stroke-linejoin:round; stroke-width:4; stroke-opacity:1; fill:none" points="1907.3,1377.32 2282.66,1377.32 2282.66,1066.28 1907.3,1066.28 1907.3,1377.32 "/>
<polyline clip-path="url(#clip750)" style="stroke:#009af9; stroke-linecap:round; stroke-linejoin:round; stroke-width:4; stroke-opacity:1; fill:none" points="1930.66,1118.12 2070.85,1118.12 "/>
<path clip-path="url(#clip750)" d="M2094.21 1099.38 L2098.49 1099.38 L2098.49 1120.65 L2111.2 1109.47 L2116.64 1109.47 L2102.89 1121.6 L2117.22 1135.4 L2111.66 1135.4 L2098.49 1122.73 L2098.49 1135.4 L2094.21 1135.4 L2094.21 1099.38 Z" fill="#000000" fill-rule="evenodd" fill-opacity="1" /><path clip-path="url(#clip750)" d="M2122.38 1113.87 L2152.06 1113.87 L2152.06 1117.76 L2122.38 1117.76 L2122.38 1113.87 M2122.38 1123.31 L2152.06 1123.31 L2152.06 1127.25 L2122.38 1127.25 L2122.38 1123.31 Z" fill="#000000" fill-rule="evenodd" fill-opacity="1" /><path clip-path="url(#clip750)" d="M2172.15 1103.91 Q2168.54 1103.91 2166.71 1107.48 Q2164.9 1111.02 2164.9 1118.15 Q2164.9 1125.26 2166.71 1128.82 Q2168.54 1132.36 2172.15 1132.36 Q2175.78 1132.36 2177.59 1128.82 Q2179.42 1125.26 2179.42 1118.15 Q2179.42 1111.02 2177.59 1107.48 Q2175.78 1103.91 2172.15 1103.91 M2172.15 1100.21 Q2177.96 1100.21 2181.01 1104.82 Q2184.09 1109.4 2184.09 1118.15 Q2184.09 1126.88 2181.01 1131.48 Q2177.96 1136.07 2172.15 1136.07 Q2166.34 1136.07 2163.26 1131.48 Q2160.2 1126.88 2160.2 1118.15 Q2160.2 1109.4 2163.26 1104.82 Q2166.34 1100.21 2172.15 1100.21 Z" fill="#000000" fill-rule="evenodd" fill-opacity="1" /><path clip-path="url(#clip750)" d="M2192.31 1129.52 L2197.2 1129.52 L2197.2 1135.4 L2192.31 1135.4 L2192.31 1129.52 Z" fill="#000000" fill-rule="evenodd" fill-opacity="1" /><path clip-path="url(#clip750)" d="M2217.38 1103.91 Q2213.77 1103.91 2211.94 1107.48 Q2210.13 1111.02 2210.13 1118.15 Q2210.13 1125.26 2211.94 1128.82 Q2213.77 1132.36 2217.38 1132.36 Q2221.01 1132.36 2222.82 1128.82 Q2224.65 1125.26 2224.65 1118.15 Q2224.65 1111.02 2222.82 1107.48 Q2221.01 1103.91 2217.38 1103.91 M2217.38 1100.21 Q2223.19 1100.21 2226.25 1104.82 Q2229.32 1109.4 2229.32 1118.15 Q2229.32 1126.88 2226.25 1131.48 Q2223.19 1136.07 2217.38 1136.07 Q2211.57 1136.07 2208.49 1131.48 Q2205.44 1126.88 2205.44 1118.15 Q2205.44 1109.4 2208.49 1104.82 Q2211.57 1100.21 2217.38 1100.21 Z" fill="#000000" fill-rule="evenodd" fill-opacity="1" /><polyline clip-path="url(#clip750)" style="stroke:#e26f46; stroke-linecap:round; stroke-linejoin:round; stroke-width:4; stroke-opacity:1; fill:none" points="1930.66,1169.96 2070.85,1169.96 "/>
<path clip-path="url(#clip750)" d="M2094.21 1151.22 L2098.49 1151.22 L2098.49 1172.49 L2111.2 1161.31 L2116.64 1161.31 L2102.89 1173.44 L2117.22 1187.24 L2111.66 1187.24 L2098.49 1174.57 L2098.49 1187.24 L2094.21 1187.24 L2094.21 1151.22 Z" fill="#000000" fill-rule="evenodd" fill-opacity="1" /><path clip-path="url(#clip750)" d="M2122.38 1165.71 L2152.06 1165.71 L2152.06 1169.6 L2122.38 1169.6 L2122.38 1165.71 M2122.38 1175.15 L2152.06 1175.15 L2152.06 1179.09 L2122.38 1179.09 L2122.38 1175.15 Z" fill="#000000" fill-rule="evenodd" fill-opacity="1" /><path clip-path="url(#clip750)" d="M2172.15 1155.75 Q2168.54 1155.75 2166.71 1159.32 Q2164.9 1162.86 2164.9 1169.99 Q2164.9 1177.1 2166.71 1180.66 Q2168.54 1184.2 2172.15 1184.2 Q2175.78 1184.2 2177.59 1180.66 Q2179.42 1177.1 2179.42 1169.99 Q2179.42 1162.86 2177.59 1159.32 Q2175.78 1155.75 2172.15 1155.75 M2172.15 1152.05 Q2177.96 1152.05 2181.01 1156.66 Q2184.09 1161.24 2184.09 1169.99 Q2184.09 1178.72 2181.01 1183.32 Q2177.96 1187.91 2172.15 1187.91 Q2166.34 1187.91 2163.26 1183.32 Q2160.2 1178.72 2160.2 1169.99 Q2160.2 1161.24 2163.26 1156.66 Q2166.34 1152.05 2172.15 1152.05 Z" fill="#000000" fill-rule="evenodd" fill-opacity="1" /><path clip-path="url(#clip750)" d="M2192.31 1181.36 L2197.2 1181.36 L2197.2 1187.24 L2192.31 1187.24 L2192.31 1181.36 Z" fill="#000000" fill-rule="evenodd" fill-opacity="1" /><path clip-path="url(#clip750)" d="M2206.2 1152.68 L2228.42 1152.68 L2228.42 1154.67 L2215.88 1187.24 L2210.99 1187.24 L2222.8 1156.61 L2206.2 1156.61 L2206.2 1152.68 Z" fill="#000000" fill-rule="evenodd" fill-opacity="1" /><path clip-path="url(#clip750)" d="M2237.68 1186.52 L2237.68 1182.26 Q2239.44 1183.09 2241.25 1183.53 Q2243.05 1183.97 2244.79 1183.97 Q2249.42 1183.97 2251.85 1180.87 Q2254.3 1177.74 2254.65 1171.4 Q2253.31 1173.39 2251.25 1174.46 Q2249.19 1175.52 2246.69 1175.52 Q2241.5 1175.52 2238.47 1172.4 Q2235.46 1169.25 2235.46 1163.81 Q2235.46 1158.49 2238.61 1155.27 Q2241.76 1152.05 2246.99 1152.05 Q2252.98 1152.05 2256.13 1156.66 Q2259.3 1161.24 2259.3 1169.99 Q2259.3 1178.16 2255.41 1183.05 Q2251.55 1187.91 2245 1187.91 Q2243.24 1187.91 2241.43 1187.56 Q2239.63 1187.21 2237.68 1186.52 M2246.99 1171.87 Q2250.13 1171.87 2251.96 1169.71 Q2253.82 1167.56 2253.82 1163.81 Q2253.82 1160.08 2251.96 1157.93 Q2250.13 1155.75 2246.99 1155.75 Q2243.84 1155.75 2241.99 1157.93 Q2240.16 1160.08 2240.16 1163.81 Q2240.16 1167.56 2241.99 1169.71 Q2243.84 1171.87 2246.99 1171.87 Z" fill="#000000" fill-rule="evenodd" fill-opacity="1" /><polyline clip-path="url(#clip750)" style="stroke:#3da44d; stroke-linecap:round; stroke-linejoin:round; stroke-width:4; stroke-opacity:1; fill:none" points="1930.66,1221.8 2070.85,1221.8 "/>
<path clip-path="url(#clip750)" d="M2094.21 1203.06 L2098.49 1203.06 L2098.49 1224.33 L2111.2 1213.15 L2116.64 1213.15 L2102.89 1225.28 L2117.22 1239.08 L2111.66 1239.08 L2098.49 1226.41 L2098.49 1239.08 L2094.21 1239.08 L2094.21 1203.06 Z" fill="#000000" fill-rule="evenodd" fill-opacity="1" /><path clip-path="url(#clip750)" d="M2122.38 1217.55 L2152.06 1217.55 L2152.06 1221.44 L2122.38 1221.44 L2122.38 1217.55 M2122.38 1226.99 L2152.06 1226.99 L2152.06 1230.93 L2122.38 1230.93 L2122.38 1226.99 Z" fill="#000000" fill-rule="evenodd" fill-opacity="1" /><path clip-path="url(#clip750)" d="M2162.96 1235.14 L2170.6 1235.14 L2170.6 1208.77 L2162.29 1210.44 L2162.29 1206.18 L2170.55 1204.52 L2175.23 1204.52 L2175.23 1235.14 L2182.87 1235.14 L2182.87 1239.08 L2162.96 1239.08 L2162.96 1235.14 Z" fill="#000000" fill-rule="evenodd" fill-opacity="1" /><path clip-path="url(#clip750)" d="M2192.31 1233.2 L2197.2 1233.2 L2197.2 1239.08 L2192.31 1239.08 L2192.31 1233.2 Z" fill="#000000" fill-rule="evenodd" fill-opacity="1" /><path clip-path="url(#clip750)" d="M2217.96 1219.93 Q2214.81 1219.93 2212.96 1222.08 Q2211.13 1224.24 2211.13 1227.99 Q2211.13 1231.71 2212.96 1233.89 Q2214.81 1236.04 2217.96 1236.04 Q2221.11 1236.04 2222.94 1233.89 Q2224.79 1231.71 2224.79 1227.99 Q2224.79 1224.24 2222.94 1222.08 Q2221.11 1219.93 2217.96 1219.93 M2227.24 1205.28 L2227.24 1209.54 Q2225.48 1208.71 2223.68 1208.27 Q2221.89 1207.83 2220.13 1207.83 Q2215.51 1207.83 2213.05 1210.95 Q2210.62 1214.08 2210.27 1220.39 Q2211.64 1218.38 2213.7 1217.32 Q2215.76 1216.23 2218.24 1216.23 Q2223.45 1216.23 2226.45 1219.4 Q2229.49 1222.55 2229.49 1227.99 Q2229.49 1233.31 2226.34 1236.53 Q2223.19 1239.75 2217.96 1239.75 Q2211.96 1239.75 2208.79 1235.16 Q2205.62 1230.56 2205.62 1221.83 Q2205.62 1213.64 2209.51 1208.77 Q2213.4 1203.89 2219.95 1203.89 Q2221.71 1203.89 2223.49 1204.24 Q2225.3 1204.58 2227.24 1205.28 Z" fill="#000000" fill-rule="evenodd" fill-opacity="1" /><polyline clip-path="url(#clip750)" style="stroke:#c271d2; stroke-linecap:round; stroke-linejoin:round; stroke-width:4; stroke-opacity:1; fill:none" points="1930.66,1273.64 2070.85,1273.64 "/>
<path clip-path="url(#clip750)" d="M2094.21 1254.9 L2098.49 1254.9 L2098.49 1276.17 L2111.2 1264.99 L2116.64 1264.99 L2102.89 1277.12 L2117.22 1290.92 L2111.66 1290.92 L2098.49 1278.25 L2098.49 1290.92 L2094.21 1290.92 L2094.21 1254.9 Z" fill="#000000" fill-rule="evenodd" fill-opacity="1" /><path clip-path="url(#clip750)" d="M2122.38 1269.39 L2152.06 1269.39 L2152.06 1273.28 L2122.38 1273.28 L2122.38 1269.39 M2122.38 1278.83 L2152.06 1278.83 L2152.06 1282.77 L2122.38 1282.77 L2122.38 1278.83 Z" fill="#000000" fill-rule="evenodd" fill-opacity="1" /><path clip-path="url(#clip750)" d="M2166.18 1286.98 L2182.5 1286.98 L2182.5 1290.92 L2160.55 1290.92 L2160.55 1286.98 Q2163.21 1284.23 2167.8 1279.6 Q2172.4 1274.94 2173.58 1273.6 Q2175.83 1271.08 2176.71 1269.34 Q2177.61 1267.58 2177.61 1265.89 Q2177.61 1263.14 2175.67 1261.4 Q2173.75 1259.67 2170.64 1259.67 Q2168.45 1259.67 2165.99 1260.43 Q2163.56 1261.19 2160.78 1262.74 L2160.78 1258.02 Q2163.61 1256.89 2166.06 1256.31 Q2168.51 1255.73 2170.55 1255.73 Q2175.92 1255.73 2179.12 1258.42 Q2182.31 1261.1 2182.31 1265.59 Q2182.31 1267.72 2181.5 1269.64 Q2180.71 1271.54 2178.61 1274.13 Q2178.03 1274.8 2174.93 1278.02 Q2171.82 1281.22 2166.18 1286.98 Z" fill="#000000" fill-rule="evenodd" fill-opacity="1" /><path clip-path="url(#clip750)" d="M2192.31 1285.04 L2197.2 1285.04 L2197.2 1290.92 L2192.31 1290.92 L2192.31 1285.04 Z" fill="#000000" fill-rule="evenodd" fill-opacity="1" /><path clip-path="url(#clip750)" d="M2220.23 1260.43 L2208.42 1278.88 L2220.23 1278.88 L2220.23 1260.43 M2219 1256.36 L2224.88 1256.36 L2224.88 1278.88 L2229.81 1278.88 L2229.81 1282.77 L2224.88 1282.77 L2224.88 1290.92 L2220.23 1290.92 L2220.23 1282.77 L2204.63 1282.77 L2204.63 1278.25 L2219 1256.36 Z" fill="#000000" fill-rule="evenodd" fill-opacity="1" /><polyline clip-path="url(#clip750)" style="stroke:#ac8d18; stroke-linecap:round; stroke-linejoin:round; stroke-width:4; stroke-opacity:1; fill:none" points="1930.66,1325.48 2070.85,1325.48 "/>
<path clip-path="url(#clip750)" d="M2094.21 1306.74 L2098.49 1306.74 L2098.49 1328.01 L2111.2 1316.83 L2116.64 1316.83 L2102.89 1328.96 L2117.22 1342.76 L2111.66 1342.76 L2098.49 1330.09 L2098.49 1342.76 L2094.21 1342.76 L2094.21 1306.74 Z" fill="#000000" fill-rule="evenodd" fill-opacity="1" /><path clip-path="url(#clip750)" d="M2122.38 1321.23 L2152.06 1321.23 L2152.06 1325.12 L2122.38 1325.12 L2122.38 1321.23 M2122.38 1330.67 L2152.06 1330.67 L2152.06 1334.61 L2122.38 1334.61 L2122.38 1330.67 Z" fill="#000000" fill-rule="evenodd" fill-opacity="1" /><path clip-path="url(#clip750)" d="M2176.32 1324.12 Q2179.67 1324.84 2181.55 1327.11 Q2183.45 1329.38 2183.45 1332.71 Q2183.45 1337.82 2179.93 1340.63 Q2176.41 1343.43 2169.93 1343.43 Q2167.75 1343.43 2165.44 1342.99 Q2163.14 1342.57 2160.69 1341.71 L2160.69 1337.2 Q2162.64 1338.33 2164.95 1338.91 Q2167.26 1339.49 2169.79 1339.49 Q2174.19 1339.49 2176.48 1337.76 Q2178.79 1336.02 2178.79 1332.71 Q2178.79 1329.65 2176.64 1327.94 Q2174.51 1326.2 2170.69 1326.2 L2166.66 1326.2 L2166.66 1322.36 L2170.88 1322.36 Q2174.32 1322.36 2176.15 1321 Q2177.98 1319.61 2177.98 1317.01 Q2177.98 1314.35 2176.08 1312.94 Q2174.21 1311.51 2170.69 1311.51 Q2168.77 1311.51 2166.57 1311.92 Q2164.37 1312.34 2161.73 1313.22 L2161.73 1309.05 Q2164.39 1308.31 2166.71 1307.94 Q2169.05 1307.57 2171.11 1307.57 Q2176.43 1307.57 2179.53 1310 Q2182.64 1312.41 2182.64 1316.53 Q2182.64 1319.4 2180.99 1321.39 Q2179.35 1323.36 2176.32 1324.12 Z" fill="#000000" fill-rule="evenodd" fill-opacity="1" /><path clip-path="url(#clip750)" d="M2192.31 1336.88 L2197.2 1336.88 L2197.2 1342.76 L2192.31 1342.76 L2192.31 1336.88 Z" fill="#000000" fill-rule="evenodd" fill-opacity="1" /><path clip-path="url(#clip750)" d="M2208.19 1338.82 L2215.83 1338.82 L2215.83 1312.45 L2207.52 1314.12 L2207.52 1309.86 L2215.78 1308.2 L2220.46 1308.2 L2220.46 1338.82 L2228.1 1338.82 L2228.1 1342.76 L2208.19 1342.76 L2208.19 1338.82 Z" fill="#000000" fill-rule="evenodd" fill-opacity="1" /></svg>
