<?xml version="1.0" encoding="utf-8"?>
<svg xmlns="http://www.w3.org/2000/svg" xmlns:xlink="http://www.w3.org/1999/xlink" width="600" height="400" viewBox="0 0 2400 1600">
<defs>
  <clipPath id="clip310">
    <rect x="0" y="0" width="2400" height="1600"/>
  </clipPath>
</defs>
<path clip-path="url(#clip310)" d="M0 1600 L2400 1600 L2400 0 L0 0  Z" fill="#ffffff" fill-rule="evenodd" fill-opacity="1"/>
<defs>
  <clipPath id="clip311">
    <rect x="480" y="0" width="1681" height="1600"/>
  </clipPath>
</defs>
<path clip-path="url(#clip310)" d="M169.121 1486.45 L2352.76 1486.45 L2352.76 47.2441 L169.121 47.2441  Z" fill="#ffffff" fill-rule="evenodd" fill-opacity="1"/>
<defs>
  <clipPath id="clip312">
    <rect x="169" y="47" width="2185" height="1440"/>
  </clipPath>
</defs>
<polyline clip-path="url(#clip312)" style="stroke:#000000; stroke-linecap:round; stroke-linejoin:round; stroke-width:2; stroke-opacity:0.1; fill:none" points="230.922,1486.45 230.922,47.2441 "/>
<polyline clip-path="url(#clip312)" style="stroke:#000000; stroke-linecap:round; stroke-linejoin:round; stroke-width:2; stroke-opacity:0.1; fill:none" points="699.112,1486.45 699.112,47.2441 "/>
<polyline clip-path="url(#clip312)" style="stroke:#000000; stroke-linecap:round; stroke-linejoin:round; stroke-width:2; stroke-opacity:0.1; fill:none" points="1167.3,1486.45 1167.3,47.2441 "/>
<polyline clip-path="url(#clip312)" style="stroke:#000000; stroke-linecap:round; stroke-linejoin:round; stroke-width:2; stroke-opacity:0.1; fill:none" points="1635.49,1486.45 1635.49,47.2441 "/>
<polyline clip-path="url(#clip312)" style="stroke:#000000; stroke-linecap:round; stroke-linejoin:round; stroke-width:2; stroke-opacity:0.1; fill:none" points="2103.68,1486.45 2103.68,47.2441 "/>
<polyline clip-path="url(#clip310)" style="stroke:#000000; stroke-linecap:round; stroke-linejoin:round; stroke-width:4; stroke-opacity:1; fill:none" points="169.121,1486.45 2352.76,1486.45 "/>
<polyline clip-path="url(#clip310)" style="stroke:#000000; stroke-linecap:round; stroke-linejoin:round; stroke-width:4; stroke-opacity:1; fill:none" points="230.922,1486.45 230.922,1467.55 "/>
<polyline clip-path="url(#clip310)" style="stroke:#000000; stroke-linecap:round; stroke-linejoin:round; stroke-width:4; stroke-opacity:1; fill:none" points="699.112,1486.45 699.112,1467.55 "/>
<polyline clip-path="url(#clip310)" style="stroke:#000000; stroke-linecap:round; stroke-linejoin:round; stroke-width:4; stroke-opacity:1; fill:none" points="1167.3,1486.45 1167.3,1467.55 "/>
<polyline clip-path="url(#clip310)" style="stroke:#000000; stroke-linecap:round; stroke-linejoin:round; stroke-width:4; stroke-opacity:1; fill:none" points="1635.49,1486.45 1635.49,1467.55 "/>
<polyline clip-path="url(#clip310)" style="stroke:#000000; stroke-linecap:round; stroke-linejoin:round; stroke-width:4; stroke-opacity:1; fill:none" points="2103.68,1486.45 2103.68,1467.55 "/>
<path clip-path="url(#clip310)" d="M208.307 1517.37 Q204.696 1517.37 202.867 1520.93 Q201.061 1524.47 201.061 1531.6 Q201.061 1538.71 202.867 1542.27 Q204.696 1545.82 208.307 1545.82 Q211.941 1545.82 213.746 1542.27 Q215.575 1538.71 215.575 1531.6 Q215.575 1524.47 213.746 1520.93 Q211.941 1517.37 208.307 1517.37 M208.307 1513.66 Q214.117 1513.66 217.172 1518.27 Q220.251 1522.85 220.251 1531.6 Q220.251 1540.33 217.172 1544.94 Q214.117 1549.52 208.307 1549.52 Q202.497 1549.52 199.418 1544.94 Q196.362 1540.33 196.362 1531.6 Q196.362 1522.85 199.418 1518.27 Q202.497 1513.66 208.307 1513.66 Z" fill="#000000" fill-rule="evenodd" fill-opacity="1" /><path clip-path="url(#clip310)" d="M228.469 1542.97 L233.353 1542.97 L233.353 1548.85 L228.469 1548.85 L228.469 1542.97 Z" fill="#000000" fill-rule="evenodd" fill-opacity="1" /><path clip-path="url(#clip310)" d="M253.538 1517.37 Q249.927 1517.37 248.098 1520.93 Q246.293 1524.47 246.293 1531.6 Q246.293 1538.71 248.098 1542.27 Q249.927 1545.82 253.538 1545.82 Q257.172 1545.82 258.978 1542.27 Q260.806 1538.71 260.806 1531.6 Q260.806 1524.47 258.978 1520.93 Q257.172 1517.37 253.538 1517.37 M253.538 1513.66 Q259.348 1513.66 262.404 1518.27 Q265.482 1522.85 265.482 1531.6 Q265.482 1540.33 262.404 1544.94 Q259.348 1549.52 253.538 1549.52 Q247.728 1549.52 244.649 1544.94 Q241.594 1540.33 241.594 1531.6 Q241.594 1522.85 244.649 1518.27 Q247.728 1513.66 253.538 1513.66 Z" fill="#000000" fill-rule="evenodd" fill-opacity="1" /><path clip-path="url(#clip310)" d="M670.848 1544.91 L687.167 1544.91 L687.167 1548.85 L665.223 1548.85 L665.223 1544.91 Q667.885 1542.16 672.468 1537.53 Q677.075 1532.88 678.255 1531.53 Q680.501 1529.01 681.38 1527.27 Q682.283 1525.51 682.283 1523.82 Q682.283 1521.07 680.338 1519.33 Q678.417 1517.6 675.315 1517.6 Q673.116 1517.6 670.663 1518.36 Q668.232 1519.13 665.454 1520.68 L665.454 1515.95 Q668.278 1514.82 670.732 1514.24 Q673.186 1513.66 675.223 1513.66 Q680.593 1513.66 683.788 1516.35 Q686.982 1519.03 686.982 1523.52 Q686.982 1525.65 686.172 1527.57 Q685.385 1529.47 683.278 1532.07 Q682.7 1532.74 679.598 1535.95 Q676.496 1539.15 670.848 1544.91 Z" fill="#000000" fill-rule="evenodd" fill-opacity="1" /><path clip-path="url(#clip310)" d="M696.982 1542.97 L701.866 1542.97 L701.866 1548.85 L696.982 1548.85 L696.982 1542.97 Z" fill="#000000" fill-rule="evenodd" fill-opacity="1" /><path clip-path="url(#clip310)" d="M712.098 1514.29 L730.454 1514.29 L730.454 1518.22 L716.38 1518.22 L716.38 1526.7 Q717.398 1526.35 718.417 1526.19 Q719.435 1526 720.454 1526 Q726.241 1526 729.621 1529.17 Q733 1532.34 733 1537.76 Q733 1543.34 729.528 1546.44 Q726.056 1549.52 719.736 1549.52 Q717.561 1549.52 715.292 1549.15 Q713.047 1548.78 710.639 1548.04 L710.639 1543.34 Q712.723 1544.47 714.945 1545.03 Q717.167 1545.58 719.644 1545.58 Q723.648 1545.58 725.986 1543.48 Q728.324 1541.37 728.324 1537.76 Q728.324 1534.15 725.986 1532.04 Q723.648 1529.94 719.644 1529.94 Q717.769 1529.94 715.894 1530.35 Q714.042 1530.77 712.098 1531.65 L712.098 1514.29 Z" fill="#000000" fill-rule="evenodd" fill-opacity="1" /><path clip-path="url(#clip310)" d="M1134.47 1514.29 L1152.82 1514.29 L1152.82 1518.22 L1138.75 1518.22 L1138.75 1526.7 Q1139.77 1526.35 1140.78 1526.19 Q1141.8 1526 1142.82 1526 Q1148.61 1526 1151.99 1529.17 Q1155.37 1532.34 1155.37 1537.76 Q1155.37 1543.34 1151.9 1546.44 Q1148.42 1549.52 1142.1 1549.52 Q1139.93 1549.52 1137.66 1549.15 Q1135.41 1548.78 1133.01 1548.04 L1133.01 1543.34 Q1135.09 1544.47 1137.31 1545.03 Q1139.53 1545.58 1142.01 1545.58 Q1146.02 1545.58 1148.35 1543.48 Q1150.69 1541.37 1150.69 1537.76 Q1150.69 1534.15 1148.35 1532.04 Q1146.02 1529.94 1142.01 1529.94 Q1140.14 1529.94 1138.26 1530.35 Q1136.41 1530.77 1134.47 1531.65 L1134.47 1514.29 Z" fill="#000000" fill-rule="evenodd" fill-opacity="1" /><path clip-path="url(#clip310)" d="M1164.58 1542.97 L1169.47 1542.97 L1169.47 1548.85 L1164.58 1548.85 L1164.58 1542.97 Z" fill="#000000" fill-rule="evenodd" fill-opacity="1" /><path clip-path="url(#clip310)" d="M1189.65 1517.37 Q1186.04 1517.37 1184.21 1520.93 Q1182.4 1524.47 1182.4 1531.6 Q1182.4 1538.71 1184.21 1542.27 Q1186.04 1545.82 1189.65 1545.82 Q1193.28 1545.82 1195.09 1542.27 Q1196.92 1538.71 1196.92 1531.6 Q1196.92 1524.47 1195.09 1520.93 Q1193.28 1517.37 1189.65 1517.37 M1189.65 1513.66 Q1195.46 1513.66 1198.52 1518.27 Q1201.59 1522.85 1201.59 1531.6 Q1201.59 1540.33 1198.52 1544.94 Q1195.46 1549.52 1189.65 1549.52 Q1183.84 1549.52 1180.76 1544.94 Q1177.71 1540.33 1177.71 1531.6 Q1177.71 1522.85 1180.76 1518.27 Q1183.84 1513.66 1189.65 1513.66 Z" fill="#000000" fill-rule="evenodd" fill-opacity="1" /><path clip-path="url(#clip310)" d="M1601.81 1514.29 L1624.03 1514.29 L1624.03 1516.28 L1611.49 1548.85 L1606.6 1548.85 L1618.41 1518.22 L1601.81 1518.22 L1601.81 1514.29 Z" fill="#000000" fill-rule="evenodd" fill-opacity="1" /><path clip-path="url(#clip310)" d="M1633.15 1542.97 L1638.04 1542.97 L1638.04 1548.85 L1633.15 1548.85 L1633.15 1542.97 Z" fill="#000000" fill-rule="evenodd" fill-opacity="1" /><path clip-path="url(#clip310)" d="M1648.27 1514.29 L1666.62 1514.29 L1666.62 1518.22 L1652.55 1518.22 L1652.55 1526.7 Q1653.57 1526.35 1654.59 1526.19 Q1655.61 1526 1656.62 1526 Q1662.41 1526 1665.79 1529.17 Q1669.17 1532.34 1669.17 1537.76 Q1669.17 1543.34 1665.7 1546.44 Q1662.23 1549.52 1655.91 1549.52 Q1653.73 1549.52 1651.46 1549.15 Q1649.22 1548.78 1646.81 1548.04 L1646.81 1543.34 Q1648.89 1544.47 1651.11 1545.03 Q1653.34 1545.58 1655.81 1545.58 Q1659.82 1545.58 1662.16 1543.48 Q1664.49 1541.37 1664.49 1537.76 Q1664.49 1534.15 1662.16 1532.04 Q1659.82 1529.94 1655.81 1529.94 Q1653.94 1529.94 1652.06 1530.35 Q1650.21 1530.77 1648.27 1531.65 L1648.27 1514.29 Z" fill="#000000" fill-rule="evenodd" fill-opacity="1" /><path clip-path="url(#clip310)" d="M2055.75 1544.91 L2063.39 1544.91 L2063.39 1518.55 L2055.08 1520.21 L2055.08 1515.95 L2063.34 1514.29 L2068.02 1514.29 L2068.02 1544.91 L2075.66 1544.91 L2075.66 1548.85 L2055.75 1548.85 L2055.75 1544.91 Z" fill="#000000" fill-rule="evenodd" fill-opacity="1" /><path clip-path="url(#clip310)" d="M2095.1 1517.37 Q2091.49 1517.37 2089.66 1520.93 Q2087.86 1524.47 2087.86 1531.6 Q2087.86 1538.71 2089.66 1542.27 Q2091.49 1545.82 2095.1 1545.82 Q2098.74 1545.82 2100.54 1542.27 Q2102.37 1538.71 2102.37 1531.6 Q2102.37 1524.47 2100.54 1520.93 Q2098.74 1517.37 2095.1 1517.37 M2095.1 1513.66 Q2100.91 1513.66 2103.97 1518.27 Q2107.05 1522.85 2107.05 1531.6 Q2107.05 1540.33 2103.97 1544.94 Q2100.91 1549.52 2095.1 1549.52 Q2089.29 1549.52 2086.21 1544.94 Q2083.16 1540.33 2083.16 1531.6 Q2083.16 1522.85 2086.21 1518.27 Q2089.29 1513.66 2095.1 1513.66 Z" fill="#000000" fill-rule="evenodd" fill-opacity="1" /><path clip-path="url(#clip310)" d="M2115.26 1542.97 L2120.15 1542.97 L2120.15 1548.85 L2115.26 1548.85 L2115.26 1542.97 Z" fill="#000000" fill-rule="evenodd" fill-opacity="1" /><path clip-path="url(#clip310)" d="M2140.33 1517.37 Q2136.72 1517.37 2134.89 1520.93 Q2133.09 1524.47 2133.09 1531.6 Q2133.09 1538.71 2134.89 1542.27 Q2136.72 1545.82 2140.33 1545.82 Q2143.97 1545.82 2145.77 1542.27 Q2147.6 1538.71 2147.6 1531.6 Q2147.6 1524.47 2145.77 1520.93 Q2143.97 1517.37 2140.33 1517.37 M2140.33 1513.66 Q2146.14 1513.66 2149.2 1518.27 Q2152.28 1522.85 2152.28 1531.6 Q2152.28 1540.33 2149.2 1544.94 Q2146.14 1549.52 2140.33 1549.52 Q2134.52 1549.52 2131.45 1544.94 Q2128.39 1540.33 2128.39 1531.6 Q2128.39 1522.85 2131.45 1518.27 Q2134.52 1513.66 2140.33 1513.66 Z" fill="#000000" fill-rule="evenodd" fill-opacity="1" /><polyline clip-path="url(#clip312)" style="stroke:#000000; stroke-linecap:round; stroke-linejoin:round; stroke-width:2; stroke-opacity:0.1; fill:none" points="169.121,1445.72 2352.76,1445.72 "/>
<polyline clip-path="url(#clip312)" style="stroke:#000000; stroke-linecap:round; stroke-linejoin:round; stroke-width:2; stroke-opacity:0.1; fill:none" points="169.121,1106.24 2352.76,1106.24 "/>
<polyline clip-path="url(#clip312)" style="stroke:#000000; stroke-linecap:round; stroke-linejoin:round; stroke-width:2; stroke-opacity:0.1; fill:none" points="169.121,766.762 2352.76,766.762 "/>
<polyline clip-path="url(#clip312)" style="stroke:#000000; stroke-linecap:round; stroke-linejoin:round; stroke-width:2; stroke-opacity:0.1; fill:none" points="169.121,427.285 2352.76,427.285 "/>
<polyline clip-path="url(#clip312)" style="stroke:#000000; stroke-linecap:round; stroke-linejoin:round; stroke-width:2; stroke-opacity:0.1; fill:none" points="169.121,87.8078 2352.76,87.8078 "/>
<polyline clip-path="url(#clip310)" style="stroke:#000000; stroke-linecap:round; stroke-linejoin:round; stroke-width:4; stroke-opacity:1; fill:none" points="169.121,1486.45 169.121,47.2441 "/>
<polyline clip-path="url(#clip310)" style="stroke:#000000; stroke-linecap:round; stroke-linejoin:round; stroke-width:4; stroke-opacity:1; fill:none" points="169.121,1445.72 188.019,1445.72 "/>
<polyline clip-path="url(#clip310)" style="stroke:#000000; stroke-linecap:round; stroke-linejoin:round; stroke-width:4; stroke-opacity:1; fill:none" points="169.121,1106.24 188.019,1106.24 "/>
<polyline clip-path="url(#clip310)" style="stroke:#000000; stroke-linecap:round; stroke-linejoin:round; stroke-width:4; stroke-opacity:1; fill:none" points="169.121,766.762 188.019,766.762 "/>
<polyline clip-path="url(#clip310)" style="stroke:#000000; stroke-linecap:round; stroke-linejoin:round; stroke-width:4; stroke-opacity:1; fill:none" points="169.121,427.285 188.019,427.285 "/>
<polyline clip-path="url(#clip310)" style="stroke:#000000; stroke-linecap:round; stroke-linejoin:round; stroke-width:4; stroke-opacity:1; fill:none" points="169.121,87.8078 188.019,87.8078 "/>
<path clip-path="url(#clip310)" d="M121.177 1431.51 Q117.566 1431.51 115.737 1435.08 Q113.932 1438.62 113.932 1445.75 Q113.932 1452.86 115.737 1456.42 Q117.566 1459.96 121.177 1459.96 Q124.811 1459.96 126.617 1456.42 Q128.445 1452.86 128.445 1445.75 Q128.445 1438.62 126.617 1435.08 Q124.811 1431.51 121.177 1431.51 M121.177 1427.81 Q126.987 1427.81 130.043 1432.42 Q133.121 1437 133.121 1445.75 Q133.121 1454.48 130.043 1459.08 Q126.987 1463.67 121.177 1463.67 Q115.367 1463.67 112.288 1459.08 Q109.233 1454.48 109.233 1445.75 Q109.233 1437 112.288 1432.42 Q115.367 1427.81 121.177 1427.81 Z" fill="#000000" fill-rule="evenodd" fill-opacity="1" /><path clip-path="url(#clip310)" d="M86.0382 1119.58 L102.358 1119.58 L102.358 1123.52 L80.4133 1123.52 L80.4133 1119.58 Q83.0753 1116.83 87.6586 1112.2 Q92.2651 1107.55 93.4456 1106.2 Q95.691 1103.68 96.5706 1101.94 Q97.4734 1100.19 97.4734 1098.5 Q97.4734 1095.74 95.5289 1094 Q93.6076 1092.27 90.5058 1092.27 Q88.3067 1092.27 85.8531 1093.03 Q83.4225 1093.8 80.6447 1095.35 L80.6447 1090.63 Q83.4688 1089.49 85.9225 1088.91 Q88.3762 1088.33 90.4132 1088.33 Q95.7836 1088.33 98.978 1091.02 Q102.172 1093.7 102.172 1098.19 Q102.172 1100.32 101.362 1102.25 Q100.575 1104.14 98.4687 1106.74 Q97.89 1107.41 94.7882 1110.63 Q91.6864 1113.82 86.0382 1119.58 Z" fill="#000000" fill-rule="evenodd" fill-opacity="1" /><path clip-path="url(#clip310)" d="M112.219 1088.96 L130.575 1088.96 L130.575 1092.89 L116.501 1092.89 L116.501 1101.37 Q117.52 1101.02 118.538 1100.86 Q119.557 1100.67 120.575 1100.67 Q126.362 1100.67 129.742 1103.84 Q133.121 1107.01 133.121 1112.43 Q133.121 1118.01 129.649 1121.11 Q126.177 1124.19 119.857 1124.19 Q117.682 1124.19 115.413 1123.82 Q113.168 1123.45 110.76 1122.71 L110.76 1118.01 Q112.844 1119.14 115.066 1119.7 Q117.288 1120.25 119.765 1120.25 Q123.77 1120.25 126.107 1118.15 Q128.445 1116.04 128.445 1112.43 Q128.445 1108.82 126.107 1106.71 Q123.77 1104.61 119.765 1104.61 Q117.89 1104.61 116.015 1105.02 Q114.163 1105.44 112.219 1106.32 L112.219 1088.96 Z" fill="#000000" fill-rule="evenodd" fill-opacity="1" /><path clip-path="url(#clip310)" d="M81.0614 749.482 L99.4178 749.482 L99.4178 753.417 L85.3438 753.417 L85.3438 761.889 Q86.3623 761.542 87.3808 761.38 Q88.3993 761.195 89.4178 761.195 Q95.2049 761.195 98.5845 764.366 Q101.964 767.537 101.964 772.954 Q101.964 778.532 98.4919 781.634 Q95.0197 784.713 88.7003 784.713 Q86.5243 784.713 84.2558 784.343 Q82.0105 783.972 79.6031 783.232 L79.6031 778.532 Q81.6864 779.667 83.9086 780.222 Q86.1308 780.778 88.6077 780.778 Q92.6123 780.778 94.9502 778.671 Q97.2882 776.565 97.2882 772.954 Q97.2882 769.343 94.9502 767.236 Q92.6123 765.13 88.6077 765.13 Q86.7327 765.13 84.8577 765.546 Q83.0058 765.963 81.0614 766.843 L81.0614 749.482 Z" fill="#000000" fill-rule="evenodd" fill-opacity="1" /><path clip-path="url(#clip310)" d="M121.177 752.56 Q117.566 752.56 115.737 756.125 Q113.932 759.667 113.932 766.796 Q113.932 773.903 115.737 777.468 Q117.566 781.009 121.177 781.009 Q124.811 781.009 126.617 777.468 Q128.445 773.903 128.445 766.796 Q128.445 759.667 126.617 756.125 Q124.811 752.56 121.177 752.56 M121.177 748.857 Q126.987 748.857 130.043 753.463 Q133.121 758.046 133.121 766.796 Q133.121 775.523 130.043 780.13 Q126.987 784.713 121.177 784.713 Q115.367 784.713 112.288 780.13 Q109.233 775.523 109.233 766.796 Q109.233 758.046 112.288 753.463 Q115.367 748.857 121.177 748.857 Z" fill="#000000" fill-rule="evenodd" fill-opacity="1" /><path clip-path="url(#clip310)" d="M80.8299 410.005 L103.052 410.005 L103.052 411.995 L90.5058 444.565 L85.6216 444.565 L97.4271 413.94 L80.8299 413.94 L80.8299 410.005 Z" fill="#000000" fill-rule="evenodd" fill-opacity="1" /><path clip-path="url(#clip310)" d="M112.219 410.005 L130.575 410.005 L130.575 413.94 L116.501 413.94 L116.501 422.412 Q117.52 422.065 118.538 421.903 Q119.557 421.718 120.575 421.718 Q126.362 421.718 129.742 424.889 Q133.121 428.06 133.121 433.477 Q133.121 439.056 129.649 442.157 Q126.177 445.236 119.857 445.236 Q117.682 445.236 115.413 444.866 Q113.168 444.495 110.76 443.755 L110.76 439.056 Q112.844 440.19 115.066 440.745 Q117.288 441.301 119.765 441.301 Q123.77 441.301 126.107 439.194 Q128.445 437.088 128.445 433.477 Q128.445 429.866 126.107 427.759 Q123.77 425.653 119.765 425.653 Q117.89 425.653 116.015 426.069 Q114.163 426.486 112.219 427.366 L112.219 410.005 Z" fill="#000000" fill-rule="evenodd" fill-opacity="1" /><path clip-path="url(#clip310)" d="M51.6634 101.153 L59.3023 101.153 L59.3023 74.787 L50.9921 76.4537 L50.9921 72.1944 L59.256 70.5278 L63.9319 70.5278 L63.9319 101.153 L71.5707 101.153 L71.5707 105.088 L51.6634 105.088 L51.6634 101.153 Z" fill="#000000" fill-rule="evenodd" fill-opacity="1" /><path clip-path="url(#clip310)" d="M91.0151 73.6064 Q87.404 73.6064 85.5753 77.1712 Q83.7697 80.7129 83.7697 87.8425 Q83.7697 94.9489 85.5753 98.5137 Q87.404 102.055 91.0151 102.055 Q94.6493 102.055 96.4548 98.5137 Q98.2835 94.9489 98.2835 87.8425 Q98.2835 80.7129 96.4548 77.1712 Q94.6493 73.6064 91.0151 73.6064 M91.0151 69.9028 Q96.8252 69.9028 99.8808 74.5092 Q102.959 79.0925 102.959 87.8425 Q102.959 96.5693 99.8808 101.176 Q96.8252 105.759 91.0151 105.759 Q85.2049 105.759 82.1262 101.176 Q79.0707 96.5693 79.0707 87.8425 Q79.0707 79.0925 82.1262 74.5092 Q85.2049 69.9028 91.0151 69.9028 Z" fill="#000000" fill-rule="evenodd" fill-opacity="1" /><path clip-path="url(#clip310)" d="M121.177 73.6064 Q117.566 73.6064 115.737 77.1712 Q113.932 80.7129 113.932 87.8425 Q113.932 94.9489 115.737 98.5137 Q117.566 102.055 121.177 102.055 Q124.811 102.055 126.617 98.5137 Q128.445 94.9489 128.445 87.8425 Q128.445 80.7129 126.617 77.1712 Q124.811 73.6064 121.177 73.6064 M121.177 69.9028 Q126.987 69.9028 130.043 74.5092 Q133.121 79.0925 133.121 87.8425 Q133.121 96.5693 130.043 101.176 Q126.987 105.759 121.177 105.759 Q115.367 105.759 112.288 101.176 Q109.233 96.5693 109.233 87.8425 Q109.233 79.0925 112.288 74.5092 Q115.367 69.9028 121.177 69.9028 Z" fill="#000000" fill-rule="evenodd" fill-opacity="1" /><polyline clip-path="url(#clip312)" style="stroke:#009af9; stroke-linecap:round; stroke-linejoin:round; stroke-width:4; stroke-opacity:1; fill:none" points="230.922,1445.72 237.628,1445.7 244.334,1445.65 306.341,1443.51 368.347,1438.4 405.61,1433.9 442.873,1428.32 474.379,1422.77 505.885,1416.44 574.332,1400.06 637.435,1381.73 671.262,1370.64 705.088,1358.67 744.279,1343.68 783.471,1327.51 853.128,1295.82 914.211,1264.95 980.808,1228 1047.8,1187.36 1084.83,1163.4 1121.87,1138.38 1157.11,1113.59 1192.34,1087.84 1265.62,1031.2 1327.31,980.309 1364.96,947.792 1402.61,914.177 1437.11,882.42 1471.6,849.742 1503.46,818.742 1535.32,786.957 1567.59,753.958 1599.86,720.153 1672.19,641.451 1737.74,566.635 1775.26,522.308 1812.79,476.891 1847.53,433.867 1882.27,389.908 1950.78,300.493 2017.29,210.201 2034.33,186.509 2051.38,162.593 2059.9,150.55 2068.43,138.451 2076.95,126.296 2085.47,114.085 2090.14,107.371 2094.81,100.641 2097.14,97.2695 2099.48,93.8939 2100.64,92.2044 2101.81,90.514 2102.4,89.6683 2102.98,88.8224 2103.56,87.9763 2104.15,1445.72 2104.73,1445.72 2105.31,1445.72 2105.9,1445.72 2106.48,1445.72 2107.65,1445.72 2108.82,1445.72 2111.15,1445.72 2113.48,1445.72 2118.15,1445.72 2122.82,1445.72 2141.5,1445.72 2160.17,1445.72 2214.43,1445.72 2268.69,1445.72 2279.82,1445.72 2290.95,1445.72 "/>
<circle clip-path="url(#clip312)" cx="231.11" cy="1445.72" r="14.4" fill="#e26f46" fill-rule="evenodd" fill-opacity="1" stroke="#000000" stroke-opacity="1" stroke-width="3.2"/>
<circle clip-path="url(#clip312)" cx="511.836" cy="1415.16" r="14.4" fill="#e26f46" fill-rule="evenodd" fill-opacity="1" stroke="#000000" stroke-opacity="1" stroke-width="3.2"/>
<circle clip-path="url(#clip312)" cx="699.112" cy="1360.85" r="14.4" fill="#e26f46" fill-rule="evenodd" fill-opacity="1" stroke="#000000" stroke-opacity="1" stroke-width="3.2"/>
<circle clip-path="url(#clip312)" cx="886.387" cy="1279.37" r="14.4" fill="#e26f46" fill-rule="evenodd" fill-opacity="1" stroke="#000000" stroke-opacity="1" stroke-width="3.2"/>
<circle clip-path="url(#clip312)" cx="1073.66" cy="1170.74" r="14.4" fill="#e26f46" fill-rule="evenodd" fill-opacity="1" stroke="#000000" stroke-opacity="1" stroke-width="3.2"/>
<circle clip-path="url(#clip312)" cx="1260.94" cy="1034.95" r="14.4" fill="#e26f46" fill-rule="evenodd" fill-opacity="1" stroke="#000000" stroke-opacity="1" stroke-width="3.2"/>
<circle clip-path="url(#clip312)" cx="1448.21" cy="872" r="14.4" fill="#e26f46" fill-rule="evenodd" fill-opacity="1" stroke="#000000" stroke-opacity="1" stroke-width="3.2"/>
<circle clip-path="url(#clip312)" cx="1635.49" cy="681.892" r="14.4" fill="#e26f46" fill-rule="evenodd" fill-opacity="1" stroke="#000000" stroke-opacity="1" stroke-width="3.2"/>
<circle clip-path="url(#clip312)" cx="1822.77" cy="464.627" r="14.4" fill="#e26f46" fill-rule="evenodd" fill-opacity="1" stroke="#000000" stroke-opacity="1" stroke-width="3.2"/>
<circle clip-path="url(#clip312)" cx="2010.04" cy="220.204" r="14.4" fill="#e26f46" fill-rule="evenodd" fill-opacity="1" stroke="#000000" stroke-opacity="1" stroke-width="3.2"/>
<path clip-path="url(#clip310)" d="M241.909 250.738 L512.703 250.738 L512.703 95.2176 L241.909 95.2176  Z" fill="#ffffff" fill-rule="evenodd" fill-opacity="1"/>
<polyline clip-path="url(#clip310)" style="stroke:#000000; stroke-linecap:round; stroke-linejoin:round; stroke-width:4; stroke-opacity:1; fill:none" points="241.909,250.738 512.703,250.738 512.703,95.2176 241.909,95.2176 241.909,250.738 "/>
<polyline clip-path="url(#clip310)" style="stroke:#009af9; stroke-linecap:round; stroke-linejoin:round; stroke-width:4; stroke-opacity:1; fill:none" points="266.172,147.058 411.747,147.058 "/>
<path clip-path="url(#clip310)" d="M449.853 166.745 Q448.047 171.375 446.334 172.787 Q444.621 174.199 441.751 174.199 L438.348 174.199 L438.348 170.634 L440.848 170.634 Q442.607 170.634 443.579 169.8 Q444.552 168.967 445.732 165.865 L446.496 163.921 L436.01 138.412 L440.524 138.412 L448.626 158.689 L456.727 138.412 L461.241 138.412 L449.853 166.745 Z" fill="#000000" fill-rule="evenodd" fill-opacity="1" /><path clip-path="url(#clip310)" d="M468.533 160.402 L476.172 160.402 L476.172 134.037 L467.862 135.703 L467.862 131.444 L476.126 129.778 L480.801 129.778 L480.801 160.402 L488.44 160.402 L488.44 164.338 L468.533 164.338 L468.533 160.402 Z" fill="#000000" fill-rule="evenodd" fill-opacity="1" /><circle clip-path="url(#clip310)" cx="338.96" cy="198.898" r="23.04" fill="#e26f46" fill-rule="evenodd" fill-opacity="1" stroke="#000000" stroke-opacity="1" stroke-width="5.12"/>
<path clip-path="url(#clip310)" d="M449.853 218.585 Q448.047 223.215 446.334 224.627 Q444.621 226.039 441.751 226.039 L438.348 226.039 L438.348 222.474 L440.848 222.474 Q442.607 222.474 443.579 221.64 Q444.552 220.807 445.732 217.705 L446.496 215.761 L436.01 190.252 L440.524 190.252 L448.626 210.529 L456.727 190.252 L461.241 190.252 L449.853 218.585 Z" fill="#000000" fill-rule="evenodd" fill-opacity="1" /><path clip-path="url(#clip310)" d="M471.751 212.242 L488.07 212.242 L488.07 216.178 L466.126 216.178 L466.126 212.242 Q468.788 209.488 473.371 204.858 Q477.977 200.205 479.158 198.863 Q481.403 196.34 482.283 194.604 Q483.186 192.844 483.186 191.155 Q483.186 188.4 481.241 186.664 Q479.32 184.928 476.218 184.928 Q474.019 184.928 471.565 185.692 Q469.135 186.455 466.357 188.006 L466.357 183.284 Q469.181 182.15 471.635 181.571 Q474.088 180.993 476.126 180.993 Q481.496 180.993 484.69 183.678 Q487.885 186.363 487.885 190.854 Q487.885 192.983 487.075 194.905 Q486.287 196.803 484.181 199.395 Q483.602 200.067 480.5 203.284 Q477.399 206.479 471.751 212.242 Z" fill="#000000" fill-rule="evenodd" fill-opacity="1" /></svg>
