<?xml version="1.0" encoding="utf-8"?>
<svg xmlns="http://www.w3.org/2000/svg" xmlns:xlink="http://www.w3.org/1999/xlink" width="600" height="400" viewBox="0 0 2400 1600">
<defs>
  <clipPath id="clip630">
    <rect x="0" y="0" width="2400" height="1600"/>
  </clipPath>
</defs>
<path clip-path="url(#clip630)" d="M0 1600 L2400 1600 L2400 0 L0 0  Z" fill="#ffffff" fill-rule="evenodd" fill-opacity="1"/>
<defs>
  <clipPath id="clip631">
    <rect x="480" y="0" width="1681" height="1600"/>
  </clipPath>
</defs>
<defs>
  <clipPath id="clip632">
    <rect x="186" y="123" width="2167" height="1301"/>
  </clipPath>
</defs>
<path clip-path="url(#clip630)" d="M186.274 1423.18 L2352.76 1423.18 L2352.76 123.472 L186.274 123.472  Z" fill="#ffffff" fill-rule="evenodd" fill-opacity="1"/>
<polyline clip-path="url(#clip632)" style="stroke:#000000; stroke-linecap:round; stroke-linejoin:round; stroke-width:2; stroke-opacity:0.1; fill:none" points="247.453,1423.18 247.453,123.472 "/>
<polyline clip-path="url(#clip632)" style="stroke:#000000; stroke-linecap:round; stroke-linejoin:round; stroke-width:2; stroke-opacity:0.1; fill:none" points="928.782,1423.18 928.782,123.472 "/>
<polyline clip-path="url(#clip632)" style="stroke:#000000; stroke-linecap:round; stroke-linejoin:round; stroke-width:2; stroke-opacity:0.1; fill:none" points="1610.11,1423.18 1610.11,123.472 "/>
<polyline clip-path="url(#clip632)" style="stroke:#000000; stroke-linecap:round; stroke-linejoin:round; stroke-width:2; stroke-opacity:0.1; fill:none" points="2291.44,1423.18 2291.44,123.472 "/>
<polyline clip-path="url(#clip630)" style="stroke:#000000; stroke-linecap:round; stroke-linejoin:round; stroke-width:4; stroke-opacity:1; fill:none" points="186.274,1423.18 2352.76,1423.18 "/>
<polyline clip-path="url(#clip630)" style="stroke:#000000; stroke-linecap:round; stroke-linejoin:round; stroke-width:4; stroke-opacity:1; fill:none" points="247.453,1423.18 247.453,1404.28 "/>
<polyline clip-path="url(#clip630)" style="stroke:#000000; stroke-linecap:round; stroke-linejoin:round; stroke-width:4; stroke-opacity:1; fill:none" points="928.782,1423.18 928.782,1404.28 "/>
<polyline clip-path="url(#clip630)" style="stroke:#000000; stroke-linecap:round; stroke-linejoin:round; stroke-width:4; stroke-opacity:1; fill:none" points="1610.11,1423.18 1610.11,1404.28 "/>
<polyline clip-path="url(#clip630)" style="stroke:#000000; stroke-linecap:round; stroke-linejoin:round; stroke-width:4; stroke-opacity:1; fill:none" points="2291.44,1423.18 2291.44,1404.28 "/>
<path clip-path="url(#clip630)" d="M247.453 1454.1 Q243.842 1454.1 242.013 1457.66 Q240.208 1461.2 240.208 1468.33 Q240.208 1475.44 242.013 1479.01 Q243.842 1482.55 247.453 1482.55 Q251.088 1482.55 252.893 1479.01 Q254.722 1475.44 254.722 1468.33 Q254.722 1461.2 252.893 1457.66 Q251.088 1454.1 247.453 1454.1 M247.453 1450.39 Q253.263 1450.39 256.319 1455 Q259.398 1459.58 259.398 1468.33 Q259.398 1477.06 256.319 1481.67 Q253.263 1486.25 247.453 1486.25 Q241.643 1486.25 238.564 1481.67 Q235.509 1477.06 235.509 1468.33 Q235.509 1459.58 238.564 1455 Q241.643 1450.39 247.453 1450.39 Z" fill="#000000" fill-rule="evenodd" fill-opacity="1" /><path clip-path="url(#clip630)" d="M888.401 1451.02 L906.757 1451.02 L906.757 1454.96 L892.683 1454.96 L892.683 1463.43 Q893.701 1463.08 894.72 1462.92 Q895.738 1462.73 896.757 1462.73 Q902.544 1462.73 905.924 1465.9 Q909.303 1469.08 909.303 1474.49 Q909.303 1480.07 905.831 1483.17 Q902.359 1486.25 896.039 1486.25 Q893.864 1486.25 891.595 1485.88 Q889.35 1485.51 886.942 1484.77 L886.942 1480.07 Q889.026 1481.2 891.248 1481.76 Q893.47 1482.32 895.947 1482.32 Q899.951 1482.32 902.289 1480.21 Q904.627 1478.1 904.627 1474.49 Q904.627 1470.88 902.289 1468.77 Q899.951 1466.67 895.947 1466.67 Q894.072 1466.67 892.197 1467.08 Q890.345 1467.5 888.401 1468.38 L888.401 1451.02 Z" fill="#000000" fill-rule="evenodd" fill-opacity="1" /><path clip-path="url(#clip630)" d="M928.516 1454.1 Q924.905 1454.1 923.076 1457.66 Q921.271 1461.2 921.271 1468.33 Q921.271 1475.44 923.076 1479.01 Q924.905 1482.55 928.516 1482.55 Q932.15 1482.55 933.956 1479.01 Q935.785 1475.44 935.785 1468.33 Q935.785 1461.2 933.956 1457.66 Q932.15 1454.1 928.516 1454.1 M928.516 1450.39 Q934.326 1450.39 937.382 1455 Q940.46 1459.58 940.46 1468.33 Q940.46 1477.06 937.382 1481.67 Q934.326 1486.25 928.516 1486.25 Q922.706 1486.25 919.627 1481.67 Q916.572 1477.06 916.572 1468.33 Q916.572 1459.58 919.627 1455 Q922.706 1450.39 928.516 1450.39 Z" fill="#000000" fill-rule="evenodd" fill-opacity="1" /><path clip-path="url(#clip630)" d="M958.678 1454.1 Q955.067 1454.1 953.238 1457.66 Q951.433 1461.2 951.433 1468.33 Q951.433 1475.44 953.238 1479.01 Q955.067 1482.55 958.678 1482.55 Q962.312 1482.55 964.118 1479.01 Q965.946 1475.44 965.946 1468.33 Q965.946 1461.2 964.118 1457.66 Q962.312 1454.1 958.678 1454.1 M958.678 1450.39 Q964.488 1450.39 967.544 1455 Q970.622 1459.58 970.622 1468.33 Q970.622 1477.06 967.544 1481.67 Q964.488 1486.25 958.678 1486.25 Q952.868 1486.25 949.789 1481.67 Q946.734 1477.06 946.734 1468.33 Q946.734 1459.58 949.789 1455 Q952.868 1450.39 958.678 1450.39 Z" fill="#000000" fill-rule="evenodd" fill-opacity="1" /><path clip-path="url(#clip630)" d="M1554.64 1481.64 L1562.28 1481.64 L1562.28 1455.28 L1553.97 1456.95 L1553.97 1452.69 L1562.23 1451.02 L1566.91 1451.02 L1566.91 1481.64 L1574.54 1481.64 L1574.54 1485.58 L1554.64 1485.58 L1554.64 1481.64 Z" fill="#000000" fill-rule="evenodd" fill-opacity="1" /><path clip-path="url(#clip630)" d="M1593.99 1454.1 Q1590.38 1454.1 1588.55 1457.66 Q1586.74 1461.2 1586.74 1468.33 Q1586.74 1475.44 1588.55 1479.01 Q1590.38 1482.55 1593.99 1482.55 Q1597.62 1482.55 1599.43 1479.01 Q1601.26 1475.44 1601.26 1468.33 Q1601.26 1461.2 1599.43 1457.66 Q1597.62 1454.1 1593.99 1454.1 M1593.99 1450.39 Q1599.8 1450.39 1602.85 1455 Q1605.93 1459.58 1605.93 1468.33 Q1605.93 1477.06 1602.85 1481.67 Q1599.8 1486.25 1593.99 1486.25 Q1588.18 1486.25 1585.1 1481.67 Q1582.04 1477.06 1582.04 1468.33 Q1582.04 1459.58 1585.1 1455 Q1588.18 1450.39 1593.99 1450.39 Z" fill="#000000" fill-rule="evenodd" fill-opacity="1" /><path clip-path="url(#clip630)" d="M1624.15 1454.1 Q1620.54 1454.1 1618.71 1457.66 Q1616.91 1461.2 1616.91 1468.33 Q1616.91 1475.44 1618.71 1479.01 Q1620.54 1482.55 1624.15 1482.55 Q1627.78 1482.55 1629.59 1479.01 Q1631.42 1475.44 1631.42 1468.33 Q1631.42 1461.2 1629.59 1457.66 Q1627.78 1454.1 1624.15 1454.1 M1624.15 1450.39 Q1629.96 1450.39 1633.02 1455 Q1636.09 1459.58 1636.09 1468.33 Q1636.09 1477.06 1633.02 1481.67 Q1629.96 1486.25 1624.15 1486.25 Q1618.34 1486.25 1615.26 1481.67 Q1612.21 1477.06 1612.21 1468.33 Q1612.21 1459.58 1615.26 1455 Q1618.34 1450.39 1624.15 1450.39 Z" fill="#000000" fill-rule="evenodd" fill-opacity="1" /><path clip-path="url(#clip630)" d="M1654.31 1454.1 Q1650.7 1454.1 1648.87 1457.66 Q1647.07 1461.2 1647.07 1468.33 Q1647.07 1475.44 1648.87 1479.01 Q1650.7 1482.55 1654.31 1482.55 Q1657.95 1482.55 1659.75 1479.01 Q1661.58 1475.44 1661.58 1468.33 Q1661.58 1461.2 1659.75 1457.66 Q1657.95 1454.1 1654.31 1454.1 M1654.31 1450.39 Q1660.12 1450.39 1663.18 1455 Q1666.26 1459.58 1666.26 1468.33 Q1666.26 1477.06 1663.18 1481.67 Q1660.12 1486.25 1654.31 1486.25 Q1648.5 1486.25 1645.42 1481.67 Q1642.37 1477.06 1642.37 1468.33 Q1642.37 1459.58 1645.42 1455 Q1648.5 1450.39 1654.31 1450.39 Z" fill="#000000" fill-rule="evenodd" fill-opacity="1" /><path clip-path="url(#clip630)" d="M2235.97 1481.64 L2243.6 1481.64 L2243.6 1455.28 L2235.29 1456.95 L2235.29 1452.69 L2243.56 1451.02 L2248.23 1451.02 L2248.23 1481.64 L2255.87 1481.64 L2255.87 1485.58 L2235.97 1485.58 L2235.97 1481.64 Z" fill="#000000" fill-rule="evenodd" fill-opacity="1" /><path clip-path="url(#clip630)" d="M2265.36 1451.02 L2283.72 1451.02 L2283.72 1454.96 L2269.65 1454.96 L2269.65 1463.43 Q2270.67 1463.08 2271.68 1462.92 Q2272.7 1462.73 2273.72 1462.73 Q2279.51 1462.73 2282.89 1465.9 Q2286.27 1469.08 2286.27 1474.49 Q2286.27 1480.07 2282.79 1483.17 Q2279.32 1486.25 2273 1486.25 Q2270.83 1486.25 2268.56 1485.88 Q2266.31 1485.51 2263.91 1484.77 L2263.91 1480.07 Q2265.99 1481.2 2268.21 1481.76 Q2270.43 1482.32 2272.91 1482.32 Q2276.91 1482.32 2279.25 1480.21 Q2281.59 1478.1 2281.59 1474.49 Q2281.59 1470.88 2279.25 1468.77 Q2276.91 1466.67 2272.91 1466.67 Q2271.04 1466.67 2269.16 1467.08 Q2267.31 1467.5 2265.36 1468.38 L2265.36 1451.02 Z" fill="#000000" fill-rule="evenodd" fill-opacity="1" /><path clip-path="url(#clip630)" d="M2305.48 1454.1 Q2301.87 1454.1 2300.04 1457.66 Q2298.23 1461.2 2298.23 1468.33 Q2298.23 1475.44 2300.04 1479.01 Q2301.87 1482.55 2305.48 1482.55 Q2309.11 1482.55 2310.92 1479.01 Q2312.75 1475.44 2312.75 1468.33 Q2312.75 1461.2 2310.92 1457.66 Q2309.11 1454.1 2305.48 1454.1 M2305.48 1450.39 Q2311.29 1450.39 2314.35 1455 Q2317.42 1459.58 2317.42 1468.33 Q2317.42 1477.06 2314.35 1481.67 Q2311.29 1486.25 2305.48 1486.25 Q2299.67 1486.25 2296.59 1481.67 Q2293.54 1477.06 2293.54 1468.33 Q2293.54 1459.58 2296.59 1455 Q2299.67 1450.39 2305.48 1450.39 Z" fill="#000000" fill-rule="evenodd" fill-opacity="1" /><path clip-path="url(#clip630)" d="M2335.64 1454.1 Q2332.03 1454.1 2330.2 1457.66 Q2328.4 1461.2 2328.4 1468.33 Q2328.4 1475.44 2330.2 1479.01 Q2332.03 1482.55 2335.64 1482.55 Q2339.28 1482.55 2341.08 1479.01 Q2342.91 1475.44 2342.91 1468.33 Q2342.91 1461.2 2341.08 1457.66 Q2339.28 1454.1 2335.64 1454.1 M2335.64 1450.39 Q2341.45 1450.39 2344.51 1455 Q2347.59 1459.58 2347.59 1468.33 Q2347.59 1477.06 2344.51 1481.67 Q2341.45 1486.25 2335.64 1486.25 Q2329.83 1486.25 2326.75 1481.67 Q2323.7 1477.06 2323.7 1468.33 Q2323.7 1459.58 2326.75 1455 Q2329.83 1450.39 2335.64 1450.39 Z" fill="#000000" fill-rule="evenodd" fill-opacity="1" /><path clip-path="url(#clip630)" d="M1268.58 1522.27 L1268.58 1532.4 L1280.64 1532.4 L1280.64 1536.95 L1268.58 1536.95 L1268.58 1556.3 Q1268.58 1560.66 1269.75 1561.9 Q1270.96 1563.14 1274.62 1563.14 L1280.64 1563.14 L1280.64 1568.04 L1274.62 1568.04 Q1267.84 1568.04 1265.27 1565.53 Q1262.69 1562.98 1262.69 1556.3 L1262.69 1536.95 L1258.39 1536.95 L1258.39 1532.4 L1262.69 1532.4 L1262.69 1522.27 L1268.58 1522.27 Z" fill="#000000" fill-rule="evenodd" fill-opacity="1" /><polyline clip-path="url(#clip632)" style="stroke:#000000; stroke-linecap:round; stroke-linejoin:round; stroke-width:2; stroke-opacity:0.1; fill:none" points="186.274,1386.43 2352.76,1386.43 "/>
<polyline clip-path="url(#clip632)" style="stroke:#000000; stroke-linecap:round; stroke-linejoin:round; stroke-width:2; stroke-opacity:0.1; fill:none" points="186.274,1079.83 2352.76,1079.83 "/>
<polyline clip-path="url(#clip632)" style="stroke:#000000; stroke-linecap:round; stroke-linejoin:round; stroke-width:2; stroke-opacity:0.1; fill:none" points="186.274,773.232 2352.76,773.232 "/>
<polyline clip-path="url(#clip632)" style="stroke:#000000; stroke-linecap:round; stroke-linejoin:round; stroke-width:2; stroke-opacity:0.1; fill:none" points="186.274,466.634 2352.76,466.634 "/>
<polyline clip-path="url(#clip632)" style="stroke:#000000; stroke-linecap:round; stroke-linejoin:round; stroke-width:2; stroke-opacity:0.1; fill:none" points="186.274,160.036 2352.76,160.036 "/>
<polyline clip-path="url(#clip630)" style="stroke:#000000; stroke-linecap:round; stroke-linejoin:round; stroke-width:4; stroke-opacity:1; fill:none" points="186.274,1423.18 186.274,123.472 "/>
<polyline clip-path="url(#clip630)" style="stroke:#000000; stroke-linecap:round; stroke-linejoin:round; stroke-width:4; stroke-opacity:1; fill:none" points="186.274,1386.43 205.172,1386.43 "/>
<polyline clip-path="url(#clip630)" style="stroke:#000000; stroke-linecap:round; stroke-linejoin:round; stroke-width:4; stroke-opacity:1; fill:none" points="186.274,1079.83 205.172,1079.83 "/>
<polyline clip-path="url(#clip630)" style="stroke:#000000; stroke-linecap:round; stroke-linejoin:round; stroke-width:4; stroke-opacity:1; fill:none" points="186.274,773.232 205.172,773.232 "/>
<polyline clip-path="url(#clip630)" style="stroke:#000000; stroke-linecap:round; stroke-linejoin:round; stroke-width:4; stroke-opacity:1; fill:none" points="186.274,466.634 205.172,466.634 "/>
<polyline clip-path="url(#clip630)" style="stroke:#000000; stroke-linecap:round; stroke-linejoin:round; stroke-width:4; stroke-opacity:1; fill:none" points="186.274,160.036 205.172,160.036 "/>
<path clip-path="url(#clip630)" d="M62.9365 1372.23 Q59.3254 1372.23 57.4967 1375.79 Q55.6912 1379.33 55.6912 1386.46 Q55.6912 1393.57 57.4967 1397.13 Q59.3254 1400.68 62.9365 1400.68 Q66.5707 1400.68 68.3763 1397.13 Q70.205 1393.57 70.205 1386.46 Q70.205 1379.33 68.3763 1375.79 Q66.5707 1372.23 62.9365 1372.23 M62.9365 1368.52 Q68.7467 1368.52 71.8022 1373.13 Q74.8809 1377.71 74.8809 1386.46 Q74.8809 1395.19 71.8022 1399.8 Q68.7467 1404.38 62.9365 1404.38 Q57.1264 1404.38 54.0477 1399.8 Q50.9921 1395.19 50.9921 1386.46 Q50.9921 1377.71 54.0477 1373.13 Q57.1264 1368.52 62.9365 1368.52 Z" fill="#000000" fill-rule="evenodd" fill-opacity="1" /><path clip-path="url(#clip630)" d="M83.0984 1397.83 L87.9827 1397.83 L87.9827 1403.71 L83.0984 1403.71 L83.0984 1397.83 Z" fill="#000000" fill-rule="evenodd" fill-opacity="1" /><path clip-path="url(#clip630)" d="M108.168 1372.23 Q104.557 1372.23 102.728 1375.79 Q100.922 1379.33 100.922 1386.46 Q100.922 1393.57 102.728 1397.13 Q104.557 1400.68 108.168 1400.68 Q111.802 1400.68 113.608 1397.13 Q115.436 1393.57 115.436 1386.46 Q115.436 1379.33 113.608 1375.79 Q111.802 1372.23 108.168 1372.23 M108.168 1368.52 Q113.978 1368.52 117.033 1373.13 Q120.112 1377.71 120.112 1386.46 Q120.112 1395.19 117.033 1399.8 Q113.978 1404.38 108.168 1404.38 Q102.358 1404.38 99.2789 1399.8 Q96.2234 1395.19 96.2234 1386.46 Q96.2234 1377.71 99.2789 1373.13 Q102.358 1368.52 108.168 1368.52 Z" fill="#000000" fill-rule="evenodd" fill-opacity="1" /><path clip-path="url(#clip630)" d="M138.33 1372.23 Q134.719 1372.23 132.89 1375.79 Q131.084 1379.33 131.084 1386.46 Q131.084 1393.57 132.89 1397.13 Q134.719 1400.68 138.33 1400.68 Q141.964 1400.68 143.769 1397.13 Q145.598 1393.57 145.598 1386.46 Q145.598 1379.33 143.769 1375.79 Q141.964 1372.23 138.33 1372.23 M138.33 1368.52 Q144.14 1368.52 147.195 1373.13 Q150.274 1377.71 150.274 1386.46 Q150.274 1395.19 147.195 1399.8 Q144.14 1404.38 138.33 1404.38 Q132.519 1404.38 129.441 1399.8 Q126.385 1395.19 126.385 1386.46 Q126.385 1377.71 129.441 1373.13 Q132.519 1368.52 138.33 1368.52 Z" fill="#000000" fill-rule="evenodd" fill-opacity="1" /><path clip-path="url(#clip630)" d="M63.9319 1065.63 Q60.3208 1065.63 58.4921 1069.19 Q56.6865 1072.74 56.6865 1079.86 Q56.6865 1086.97 58.4921 1090.54 Q60.3208 1094.08 63.9319 1094.08 Q67.5661 1094.08 69.3717 1090.54 Q71.2004 1086.97 71.2004 1079.86 Q71.2004 1072.74 69.3717 1069.19 Q67.5661 1065.63 63.9319 1065.63 M63.9319 1061.93 Q69.742 1061.93 72.7976 1066.53 Q75.8763 1071.11 75.8763 1079.86 Q75.8763 1088.59 72.7976 1093.2 Q69.742 1097.78 63.9319 1097.78 Q58.1217 1097.78 55.043 1093.2 Q51.9875 1088.59 51.9875 1079.86 Q51.9875 1071.11 55.043 1066.53 Q58.1217 1061.93 63.9319 1061.93 Z" fill="#000000" fill-rule="evenodd" fill-opacity="1" /><path clip-path="url(#clip630)" d="M84.0938 1091.23 L88.978 1091.23 L88.978 1097.11 L84.0938 1097.11 L84.0938 1091.23 Z" fill="#000000" fill-rule="evenodd" fill-opacity="1" /><path clip-path="url(#clip630)" d="M103.191 1093.18 L119.51 1093.18 L119.51 1097.11 L97.566 1097.11 L97.566 1093.18 Q100.228 1090.42 104.811 1085.79 Q109.418 1081.14 110.598 1079.8 Q112.844 1077.27 113.723 1075.54 Q114.626 1073.78 114.626 1072.09 Q114.626 1069.33 112.682 1067.6 Q110.76 1065.86 107.658 1065.86 Q105.459 1065.86 103.006 1066.62 Q100.575 1067.39 97.7974 1068.94 L97.7974 1064.22 Q100.621 1063.08 103.075 1062.5 Q105.529 1061.93 107.566 1061.93 Q112.936 1061.93 116.131 1064.61 Q119.325 1067.3 119.325 1071.79 Q119.325 1073.92 118.515 1075.84 Q117.728 1077.74 115.621 1080.33 Q115.043 1081 111.941 1084.22 Q108.839 1087.41 103.191 1093.18 Z" fill="#000000" fill-rule="evenodd" fill-opacity="1" /><path clip-path="url(#clip630)" d="M129.371 1062.55 L147.728 1062.55 L147.728 1066.49 L133.654 1066.49 L133.654 1074.96 Q134.672 1074.61 135.691 1074.45 Q136.709 1074.26 137.728 1074.26 Q143.515 1074.26 146.894 1077.43 Q150.274 1080.61 150.274 1086.02 Q150.274 1091.6 146.802 1094.7 Q143.33 1097.78 137.01 1097.78 Q134.834 1097.78 132.566 1097.41 Q130.32 1097.04 127.913 1096.3 L127.913 1091.6 Q129.996 1092.74 132.219 1093.29 Q134.441 1093.85 136.918 1093.85 Q140.922 1093.85 143.26 1091.74 Q145.598 1089.63 145.598 1086.02 Q145.598 1082.41 143.26 1080.3 Q140.922 1078.2 136.918 1078.2 Q135.043 1078.2 133.168 1078.61 Q131.316 1079.03 129.371 1079.91 L129.371 1062.55 Z" fill="#000000" fill-rule="evenodd" fill-opacity="1" /><path clip-path="url(#clip630)" d="M62.9365 759.031 Q59.3254 759.031 57.4967 762.595 Q55.6912 766.137 55.6912 773.267 Q55.6912 780.373 57.4967 783.938 Q59.3254 787.48 62.9365 787.48 Q66.5707 787.48 68.3763 783.938 Q70.205 780.373 70.205 773.267 Q70.205 766.137 68.3763 762.595 Q66.5707 759.031 62.9365 759.031 M62.9365 755.327 Q68.7467 755.327 71.8022 759.933 Q74.8809 764.517 74.8809 773.267 Q74.8809 781.994 71.8022 786.6 Q68.7467 791.183 62.9365 791.183 Q57.1264 791.183 54.0477 786.6 Q50.9921 781.994 50.9921 773.267 Q50.9921 764.517 54.0477 759.933 Q57.1264 755.327 62.9365 755.327 Z" fill="#000000" fill-rule="evenodd" fill-opacity="1" /><path clip-path="url(#clip630)" d="M83.0984 784.632 L87.9827 784.632 L87.9827 790.512 L83.0984 790.512 L83.0984 784.632 Z" fill="#000000" fill-rule="evenodd" fill-opacity="1" /><path clip-path="url(#clip630)" d="M98.2141 755.952 L116.57 755.952 L116.57 759.887 L102.496 759.887 L102.496 768.359 Q103.515 768.012 104.534 767.85 Q105.552 767.665 106.571 767.665 Q112.358 767.665 115.737 770.836 Q119.117 774.007 119.117 779.424 Q119.117 785.003 115.645 788.105 Q112.172 791.183 105.853 791.183 Q103.677 791.183 101.409 790.813 Q99.1632 790.443 96.7558 789.702 L96.7558 785.003 Q98.8391 786.137 101.061 786.693 Q103.284 787.248 105.76 787.248 Q109.765 787.248 112.103 785.142 Q114.441 783.035 114.441 779.424 Q114.441 775.813 112.103 773.707 Q109.765 771.6 105.76 771.6 Q103.885 771.6 102.01 772.017 Q100.159 772.433 98.2141 773.313 L98.2141 755.952 Z" fill="#000000" fill-rule="evenodd" fill-opacity="1" /><path clip-path="url(#clip630)" d="M138.33 759.031 Q134.719 759.031 132.89 762.595 Q131.084 766.137 131.084 773.267 Q131.084 780.373 132.89 783.938 Q134.719 787.48 138.33 787.48 Q141.964 787.48 143.769 783.938 Q145.598 780.373 145.598 773.267 Q145.598 766.137 143.769 762.595 Q141.964 759.031 138.33 759.031 M138.33 755.327 Q144.14 755.327 147.195 759.933 Q150.274 764.517 150.274 773.267 Q150.274 781.994 147.195 786.6 Q144.14 791.183 138.33 791.183 Q132.519 791.183 129.441 786.6 Q126.385 781.994 126.385 773.267 Q126.385 764.517 129.441 759.933 Q132.519 755.327 138.33 755.327 Z" fill="#000000" fill-rule="evenodd" fill-opacity="1" /><path clip-path="url(#clip630)" d="M63.9319 452.433 Q60.3208 452.433 58.4921 455.997 Q56.6865 459.539 56.6865 466.669 Q56.6865 473.775 58.4921 477.34 Q60.3208 480.881 63.9319 480.881 Q67.5661 480.881 69.3717 477.34 Q71.2004 473.775 71.2004 466.669 Q71.2004 459.539 69.3717 455.997 Q67.5661 452.433 63.9319 452.433 M63.9319 448.729 Q69.742 448.729 72.7976 453.335 Q75.8763 457.919 75.8763 466.669 Q75.8763 475.395 72.7976 480.002 Q69.742 484.585 63.9319 484.585 Q58.1217 484.585 55.043 480.002 Q51.9875 475.395 51.9875 466.669 Q51.9875 457.919 55.043 453.335 Q58.1217 448.729 63.9319 448.729 Z" fill="#000000" fill-rule="evenodd" fill-opacity="1" /><path clip-path="url(#clip630)" d="M84.0938 478.034 L88.978 478.034 L88.978 483.914 L84.0938 483.914 L84.0938 478.034 Z" fill="#000000" fill-rule="evenodd" fill-opacity="1" /><path clip-path="url(#clip630)" d="M97.9826 449.354 L120.205 449.354 L120.205 451.345 L107.658 483.914 L102.774 483.914 L114.58 453.289 L97.9826 453.289 L97.9826 449.354 Z" fill="#000000" fill-rule="evenodd" fill-opacity="1" /><path clip-path="url(#clip630)" d="M129.371 449.354 L147.728 449.354 L147.728 453.289 L133.654 453.289 L133.654 461.761 Q134.672 461.414 135.691 461.252 Q136.709 461.067 137.728 461.067 Q143.515 461.067 146.894 464.238 Q150.274 467.409 150.274 472.826 Q150.274 478.405 146.802 481.506 Q143.33 484.585 137.01 484.585 Q134.834 484.585 132.566 484.215 Q130.32 483.844 127.913 483.104 L127.913 478.405 Q129.996 479.539 132.219 480.094 Q134.441 480.65 136.918 480.65 Q140.922 480.65 143.26 478.543 Q145.598 476.437 145.598 472.826 Q145.598 469.215 143.26 467.108 Q140.922 465.002 136.918 465.002 Q135.043 465.002 133.168 465.419 Q131.316 465.835 129.371 466.715 L129.371 449.354 Z" fill="#000000" fill-rule="evenodd" fill-opacity="1" /><path clip-path="url(#clip630)" d="M53.7467 173.38 L61.3856 173.38 L61.3856 147.015 L53.0754 148.682 L53.0754 144.422 L61.3393 142.756 L66.0152 142.756 L66.0152 173.38 L73.654 173.38 L73.654 177.316 L53.7467 177.316 L53.7467 173.38 Z" fill="#000000" fill-rule="evenodd" fill-opacity="1" /><path clip-path="url(#clip630)" d="M83.0984 171.436 L87.9827 171.436 L87.9827 177.316 L83.0984 177.316 L83.0984 171.436 Z" fill="#000000" fill-rule="evenodd" fill-opacity="1" /><path clip-path="url(#clip630)" d="M108.168 145.834 Q104.557 145.834 102.728 149.399 Q100.922 152.941 100.922 160.07 Q100.922 167.177 102.728 170.742 Q104.557 174.283 108.168 174.283 Q111.802 174.283 113.608 170.742 Q115.436 167.177 115.436 160.07 Q115.436 152.941 113.608 149.399 Q111.802 145.834 108.168 145.834 M108.168 142.131 Q113.978 142.131 117.033 146.737 Q120.112 151.32 120.112 160.07 Q120.112 168.797 117.033 173.404 Q113.978 177.987 108.168 177.987 Q102.358 177.987 99.2789 173.404 Q96.2234 168.797 96.2234 160.07 Q96.2234 151.32 99.2789 146.737 Q102.358 142.131 108.168 142.131 Z" fill="#000000" fill-rule="evenodd" fill-opacity="1" /><path clip-path="url(#clip630)" d="M138.33 145.834 Q134.719 145.834 132.89 149.399 Q131.084 152.941 131.084 160.07 Q131.084 167.177 132.89 170.742 Q134.719 174.283 138.33 174.283 Q141.964 174.283 143.769 170.742 Q145.598 167.177 145.598 160.07 Q145.598 152.941 143.769 149.399 Q141.964 145.834 138.33 145.834 M138.33 142.131 Q144.14 142.131 147.195 146.737 Q150.274 151.32 150.274 160.07 Q150.274 168.797 147.195 173.404 Q144.14 177.987 138.33 177.987 Q132.519 177.987 129.441 173.404 Q126.385 168.797 126.385 160.07 Q126.385 151.32 129.441 146.737 Q132.519 142.131 138.33 142.131 Z" fill="#000000" fill-rule="evenodd" fill-opacity="1" /><path clip-path="url(#clip630)" d="M888.973 54.671 L888.973 27.2059 L896.427 27.2059 L896.427 54.3874 Q896.427 60.8284 898.938 64.0691 Q901.45 67.2693 906.473 67.2693 Q912.509 67.2693 915.993 63.421 Q919.517 59.5726 919.517 52.9291 L919.517 27.2059 L926.97 27.2059 L926.97 72.576 L919.517 72.576 L919.517 65.6084 Q916.803 69.7404 913.197 71.7658 Q909.633 73.7508 904.893 73.7508 Q897.075 73.7508 893.024 68.8897 Q888.973 64.0286 888.973 54.671 M907.729 26.1121 L907.729 26.1121 Z" fill="#000000" fill-rule="evenodd" fill-opacity="1" /><path clip-path="url(#clip630)" d="M943.296 34.9026 L995.228 34.9026 L995.228 41.7081 L943.296 41.7081 L943.296 34.9026 M943.296 51.4303 L995.228 51.4303 L995.228 58.3168 L943.296 58.3168 L943.296 51.4303 Z" fill="#000000" fill-rule="evenodd" fill-opacity="1" /><path clip-path="url(#clip630)" d="M1019.94 65.6895 L1048.5 65.6895 L1048.5 72.576 L1010.1 72.576 L1010.1 65.6895 Q1014.75 60.8689 1022.77 52.7671 Q1030.84 44.6248 1032.9 42.2752 Q1036.83 37.8598 1038.37 34.8216 Q1039.95 31.7429 1039.95 28.7857 Q1039.95 23.9651 1036.55 20.927 Q1033.19 17.8888 1027.76 17.8888 Q1023.91 17.8888 1019.61 19.2256 Q1015.36 20.5624 1010.5 23.2765 L1010.5 15.0127 Q1015.44 13.0277 1019.74 12.015 Q1024.03 11.0023 1027.59 11.0023 Q1036.99 11.0023 1042.58 15.7013 Q1048.17 20.4004 1048.17 28.2591 Q1048.17 31.9859 1046.76 35.3482 Q1045.38 38.6699 1041.69 43.2069 Q1040.68 44.3817 1035.25 50.0125 Q1029.82 55.6027 1019.94 65.6895 Z" fill="#000000" fill-rule="evenodd" fill-opacity="1" /><path clip-path="url(#clip630)" d="M1066.52 62.2867 L1075.07 62.2867 L1075.07 69.2543 L1068.43 82.2172 L1063.2 82.2172 L1066.52 69.2543 L1066.52 62.2867 Z" fill="#000000" fill-rule="evenodd" fill-opacity="1" /><path clip-path="url(#clip630)" d="M1143.82 51.4708 L1142.03 42.1132 Q1140.21 32.5126 1133 32.5126 Q1127.57 32.5126 1125.1 36.9686 Q1121.98 42.5588 1121.98 49.9314 Q1121.98 58.8434 1125.02 63.0969 Q1128.1 67.4314 1133 67.4314 Q1138.43 67.4314 1141.34 58.8029 L1143.82 51.4708 M1147.99 39.075 L1152 27.2059 L1158.64 27.2059 L1150.34 51.7949 L1151.96 60.6663 Q1152.32 62.6513 1153.74 64.3122 Q1155.4 66.2566 1156.7 66.2566 L1160.26 66.2566 L1160.26 72.576 L1155.81 72.576 Q1152 72.576 1148.6 69.1732 Q1146.93 67.4719 1146.25 63.9071 Q1144.38 68.4036 1140.57 71.9279 Q1138.79 73.5887 1133 73.5887 Q1123.48 73.5887 1118.86 67.4314 Q1114.12 61.0714 1114.12 49.9314 Q1114.12 38.0218 1119.27 32.4315 Q1124.98 26.1931 1133 26.1931 Q1145.6 26.1931 1147.99 39.075 Z" fill="#000000" fill-rule="evenodd" fill-opacity="1" /><path clip-path="url(#clip630)" d="M1173.02 34.9026 L1224.96 34.9026 L1224.96 41.7081 L1173.02 41.7081 L1173.02 34.9026 M1173.02 51.4303 L1224.96 51.4303 L1224.96 58.3168 L1173.02 58.3168 L1173.02 51.4303 Z" fill="#000000" fill-rule="evenodd" fill-opacity="1" /><path clip-path="url(#clip630)" d="M1260.12 17.4837 Q1253.8 17.4837 1250.6 23.7221 Q1247.44 29.92 1247.44 42.3968 Q1247.44 54.833 1250.6 61.0714 Q1253.8 67.2693 1260.12 67.2693 Q1266.48 67.2693 1269.64 61.0714 Q1272.84 54.833 1272.84 42.3968 Q1272.84 29.92 1269.64 23.7221 Q1266.48 17.4837 1260.12 17.4837 M1260.12 11.0023 Q1270.28 11.0023 1275.63 19.0636 Q1281.02 27.0843 1281.02 42.3968 Q1281.02 57.6687 1275.63 65.73 Q1270.28 73.7508 1260.12 73.7508 Q1249.95 73.7508 1244.56 65.73 Q1239.21 57.6687 1239.21 42.3968 Q1239.21 27.0843 1244.56 19.0636 Q1249.95 11.0023 1260.12 11.0023 Z" fill="#000000" fill-rule="evenodd" fill-opacity="1" /><path clip-path="url(#clip630)" d="M1295.4 62.2867 L1303.95 62.2867 L1303.95 72.576 L1295.4 72.576 L1295.4 62.2867 Z" fill="#000000" fill-rule="evenodd" fill-opacity="1" /><path clip-path="url(#clip630)" d="M1321.85 12.096 L1353.98 12.096 L1353.98 18.9825 L1329.35 18.9825 L1329.35 33.8088 Q1331.13 33.2012 1332.91 32.9176 Q1334.69 32.5936 1336.48 32.5936 Q1346.6 32.5936 1352.52 38.1433 Q1358.43 43.6931 1358.43 53.1722 Q1358.43 62.9348 1352.36 68.3631 Q1346.28 73.7508 1335.22 73.7508 Q1331.41 73.7508 1327.44 73.1026 Q1323.51 72.4545 1319.3 71.1582 L1319.3 62.9348 Q1322.95 64.9198 1326.84 65.892 Q1330.72 66.8642 1335.06 66.8642 Q1342.07 66.8642 1346.16 63.1779 Q1350.25 59.4916 1350.25 53.1722 Q1350.25 46.8528 1346.16 43.1664 Q1342.07 39.4801 1335.06 39.4801 Q1331.78 39.4801 1328.5 40.2093 Q1325.26 40.9384 1321.85 42.4778 L1321.85 12.096 Z" fill="#000000" fill-rule="evenodd" fill-opacity="1" /><path clip-path="url(#clip630)" d="M1375.41 62.2867 L1383.95 62.2867 L1383.95 69.2543 L1377.31 82.2172 L1372.08 82.2172 L1375.41 69.2543 L1375.41 62.2867 Z" fill="#000000" fill-rule="evenodd" fill-opacity="1" /><path clip-path="url(#clip630)" d="M1426.57 12.096 L1437.59 12.096 L1464.4 62.6918 L1464.4 12.096 L1472.34 12.096 L1472.34 72.576 L1461.33 72.576 L1434.51 21.9802 L1434.51 72.576 L1426.57 72.576 L1426.57 12.096 Z" fill="#000000" fill-rule="evenodd" fill-opacity="1" /><path clip-path="url(#clip630)" d="M1489.28 34.9026 L1541.21 34.9026 L1541.21 41.7081 L1489.28 41.7081 L1489.28 34.9026 M1489.28 51.4303 L1541.21 51.4303 L1541.21 58.3168 L1489.28 58.3168 L1489.28 51.4303 Z" fill="#000000" fill-rule="evenodd" fill-opacity="1" /><path clip-path="url(#clip630)" d="M1558.95 12.096 L1591.08 12.096 L1591.08 18.9825 L1566.45 18.9825 L1566.45 33.8088 Q1568.23 33.2012 1570.01 32.9176 Q1571.79 32.5936 1573.58 32.5936 Q1583.7 32.5936 1589.62 38.1433 Q1595.53 43.6931 1595.53 53.1722 Q1595.53 62.9348 1589.46 68.3631 Q1583.38 73.7508 1572.32 73.7508 Q1568.51 73.7508 1564.54 73.1026 Q1560.61 72.4545 1556.4 71.1582 L1556.4 62.9348 Q1560.05 64.9198 1563.93 65.892 Q1567.82 66.8642 1572.16 66.8642 Q1579.17 66.8642 1583.26 63.1779 Q1587.35 59.4916 1587.35 53.1722 Q1587.35 46.8528 1583.26 43.1664 Q1579.17 39.4801 1572.16 39.4801 Q1568.88 39.4801 1565.6 40.2093 Q1562.35 40.9384 1558.95 42.4778 L1558.95 12.096 Z" fill="#000000" fill-rule="evenodd" fill-opacity="1" /><path clip-path="url(#clip630)" d="M1629.15 17.4837 Q1622.83 17.4837 1619.63 23.7221 Q1616.47 29.92 1616.47 42.3968 Q1616.47 54.833 1619.63 61.0714 Q1622.83 67.2693 1629.15 67.2693 Q1635.51 67.2693 1638.67 61.0714 Q1641.87 54.833 1641.87 42.3968 Q1641.87 29.92 1638.67 23.7221 Q1635.51 17.4837 1629.15 17.4837 M1629.15 11.0023 Q1639.32 11.0023 1644.67 19.0636 Q1650.06 27.0843 1650.06 42.3968 Q1650.06 57.6687 1644.67 65.73 Q1639.32 73.7508 1629.15 73.7508 Q1618.99 73.7508 1613.6 65.73 Q1608.25 57.6687 1608.25 42.3968 Q1608.25 27.0843 1613.6 19.0636 Q1618.99 11.0023 1629.15 11.0023 Z" fill="#000000" fill-rule="evenodd" fill-opacity="1" /><polyline clip-path="url(#clip632)" style="stroke:#009af9; stroke-linecap:round; stroke-linejoin:round; stroke-width:4; stroke-opacity:1; fill:none" points="247.59,1386.33 248.421,1381.57 249.253,1370.35 250.085,1354.38 250.916,1335.9 251.748,1317.17 252.579,1300.02 253.411,1285.54 254.243,1273.93 255.074,1264.72 255.906,1257.02 256.738,1249.89 257.569,1242.65 258.401,1235.02 259.233,1227.09 260.064,1219.2 260.896,1211.67 262.819,1196.09 264.741,1180.57 266.664,1162.99 268.586,1147.28 269.547,1141.7 270.509,1137.5 271.47,1133.75 272.431,1129.25 273.392,1123 274.353,1114.73 275.315,1105.06 276.276,1095.31 277.237,1086.96 278.198,1081.06 279.16,1077.71 280.121,1076.01 281.082,1074.38 282.043,1071.19 283.005,1065.41 283.966,1057.08 284.927,1047.24 285.888,1037.53 286.85,1029.54 287.811,1024.17 288.772,1021.32 289.733,1019.95 290.695,1018.54 291.656,1015.72 292.617,1010.77 293.578,1003.84 294.539,995.794 295.501,987.807 296.462,980.854 297.423,975.374 298.384,971.191 299.346,967.714 301.268,960.436 303.191,951.611 305.113,942.806 307.036,933.628 308.958,921.592 310.881,908.218 311.842,902.925 312.803,899.408 313.764,897.616 314.725,896.818 315.687,895.815 316.648,893.376 317.609,888.714 318.57,881.813 319.532,873.467 320.493,865 321.454,857.783 322.415,852.746 323.377,850.053 324.338,849.087 325.299,848.714 326.26,847.722 327.222,845.242 328.183,841.002 329.144,835.326 330.105,828.925 332.028,816.855 333.95,807.876 335.873,801.053 337.795,795.178 339.718,790.005 341.64,784.032 343.563,774.989 345.485,763.685 346.446,758.506 347.408,754.355 348.369,751.399 349.33,749.402 351.253,745.957 353.175,739.747 355.098,730.716 357.02,722.293 358.942,716.082 360.865,710.208 362.787,703.054 364.71,695.825 366.632,690.181 368.555,685.382 372.4,672.305 376.245,658.957 380.09,648.353 383.935,638.827 393.177,613.368 402.42,586.366 407.041,576.235 411.663,564.729 416.284,554.234 420.905,542.377 423.216,535.826 425.527,533.903 426.682,533.734 427.837,532.812 428.993,530.474 430.148,526.734 432.459,517.952 434.769,512.163 437.08,508.937 439.391,505.13 444.012,499.049 448.633,489.28 453.254,478.709 457.876,470.645 465.69,459.325 473.505,448.738 481.319,435.727 489.134,425.495 504.763,405.191 520.392,386.169 537.37,366.77 554.347,349.868 571.325,334.664 588.302,321.793 603.954,311.245 619.606,299.718 635.258,290.346 650.909,281.499 684.47,265.964 718.031,250.859 737.472,243.457 756.914,236.477 776.356,230.4 795.798,226.085 864.908,209.884 925.511,198.911 991.585,189.699 1058.05,183.335 1131.54,177.76 1201.46,174.185 1274.16,170.418 1335.36,169.138 1410.08,166.613 1478.52,166.125 1541.74,165.361 1605.77,165.798 1623.72,167.563 1641.66,169.891 1659.6,168.858 1677.54,168.678 1710.06,172.23 1742.57,173.631 1751.88,175.074 1761.18,177.458 1770.49,177.427 1779.8,175.914 1789.11,178.665 1798.41,180.984 1807.72,183.863 1817.03,187.045 1821.34,189.696 1825.64,192.33 1829.95,194.037 1834.26,193.084 1842.88,195.073 1851.5,197.449 1860.11,205.068 1868.73,213.555 1873.04,214.618 1877.35,216.839 1881.66,219.227 1885.97,223.699 1894.46,228.428 1902.96,233.628 1911.45,242.679 1919.95,249.473 1924.2,254.103 1928.45,260.201 1930.57,262.839 1932.69,265.843 1934.82,270.023 1936.94,274.691 1945.44,285.136 1953.93,294.824 1962.18,303.632 1970.43,317.876 1978.68,332.699 1986.93,350.006 2003.43,384.227 2019.92,420.414 2028.38,436.541 2036.83,456.476 2045.29,477.068 2053.75,498.725 2062.2,516.546 2070.66,532.422 2079.11,551.833 2087.57,569.278 2089.89,575.583 2092.2,579.236 2094.52,581.586 2096.83,583.827 2099.15,586.211 2101.47,590.115 2103.78,596.608 2106.1,603.928 2108.42,609.68 2110.73,613.779 2113.05,617.008 2115.36,619.491 2120,625.368 2124.63,628.186 2126.94,627.702 2129.26,630.124 2131.58,635.282 2133.89,640 2136.21,642.642 2138.53,643.801 2140.84,644.505 2143.16,646.058 2147.79,653.203 2152.42,661.858 2154.74,667.751 2157.05,671.775 2159.37,671.662 2161.69,670.403 2165.05,673.467 2168.42,678.518 2171.78,681.745 2175.14,682.742 2181.87,681.828 2188.6,682.182 2195.33,684.273 2202.06,687.169 2203.74,685.92 2205.43,684.92 2207.11,685.037 2208.79,685.938 2212.15,687.535 2215.52,688.549 2217.2,687.981 2218.88,687.059 2220.57,687.108 2222.25,689.053 2223.93,692.735 2225.61,695.907 2227.3,696.476 2228.98,694.649 2230.66,692.564 2232.34,692.981 2234.02,695.213 2235.71,697.661 2237.39,698.783 2239.07,698.509 2240.75,697.553 2242.44,696.174 2245.8,691.505 2249.17,688.46 2252.53,688.471 2255.89,686.407 2262.62,684.916 2269.35,684.702 2272.11,682.832 2274.87,679.628 2277.64,679.432 2280.4,678.839 2283.16,677.448 2285.92,677.35 2288.68,677.44 2291.44,676.795 "/>
<polyline clip-path="url(#clip632)" style="stroke:#e26f46; stroke-linecap:round; stroke-linejoin:round; stroke-width:4; stroke-opacity:1; fill:none" points="247.59,1386.4 249.253,1380.93 250.916,1367.98 252.579,1351.58 254.243,1335.52 255.906,1321.64 257.569,1309.84 258.401,1304.45 259.233,1299.26 260.064,1294.24 260.896,1289.37 264.741,1268.62 268.586,1249.46 272.431,1232.27 276.276,1216.47 283.966,1186.91 291.656,1159.49 299.346,1134.32 307.036,1110.72 314.725,1087.88 322.415,1066.44 330.105,1045.82 337.795,1025.68 345.485,1006.59 353.175,987.946 368.555,952.657 383.935,919.73 393.177,900.948 402.42,882.953 411.663,865.681 420.905,849.075 439.391,817.765 457.876,788.847 473.505,766.136 489.134,744.826 504.763,724.735 520.392,705.817 537.37,686.5 554.347,668.363 571.325,651.282 588.302,635.216 603.954,621.179 619.606,607.896 635.258,595.299 650.909,583.264 684.47,559.445 718.031,537.911 756.914,515.443 795.798,495.283 830.353,479.024 864.908,464.149 895.209,452.106 925.511,440.906 991.585,419.025 1058.05,399.983 1131.54,381.743 1201.46,366.666 1274.16,352.912 1335.36,342.62 1410.08,331.379 1478.52,322.247 1541.74,314.579 1605.77,307.531 1677.54,300.514 1742.57,294.894 1817.03,289.38 1885.97,285.714 1919.95,284.689 1953.93,284.457 1986.93,285.117 2019.92,286.977 2053.75,290.158 2087.57,294.625 2124.63,300.693 2161.69,307.446 2215.52,317.712 2269.35,327.608 2280.4,329.558 2291.44,331.438 "/>
<polyline clip-path="url(#clip632)" style="stroke:#3da44d; stroke-linecap:round; stroke-linejoin:round; stroke-width:4; stroke-opacity:1; fill:none" points="-1980.21,341.033 4519.24,341.033 "/>
<polyline clip-path="url(#clip632)" style="stroke:#3da44d; stroke-linecap:round; stroke-linejoin:round; stroke-width:4; stroke-opacity:1; fill:none" points="-1980.21,341.033 4519.24,341.033 "/>
<polyline clip-path="url(#clip632)" style="stroke:#3da44d; stroke-linecap:round; stroke-linejoin:round; stroke-width:4; stroke-opacity:1; fill:none" points="-1980.21,341.033 4519.24,341.033 "/>
<polyline clip-path="url(#clip632)" style="stroke:#3da44d; stroke-linecap:round; stroke-linejoin:round; stroke-width:4; stroke-opacity:1; fill:none" points="-1980.21,341.033 4519.24,341.033 "/>
<polyline clip-path="url(#clip632)" style="stroke:#3da44d; stroke-linecap:round; stroke-linejoin:round; stroke-width:4; stroke-opacity:1; fill:none" points="-1980.21,341.033 4519.24,341.033 "/>
<polyline clip-path="url(#clip632)" style="stroke:#3da44d; stroke-linecap:round; stroke-linejoin:round; stroke-width:4; stroke-opacity:1; fill:none" points="-1980.21,341.033 4519.24,341.033 "/>
<polyline clip-path="url(#clip632)" style="stroke:#3da44d; stroke-linecap:round; stroke-linejoin:round; stroke-width:4; stroke-opacity:1; fill:none" points="-1980.21,341.033 4519.24,341.033 "/>
<polyline clip-path="url(#clip632)" style="stroke:#3da44d; stroke-linecap:round; stroke-linejoin:round; stroke-width:4; stroke-opacity:1; fill:none" points="-1980.21,341.033 4519.24,341.033 "/>
<polyline clip-path="url(#clip632)" style="stroke:#3da44d; stroke-linecap:round; stroke-linejoin:round; stroke-width:4; stroke-opacity:1; fill:none" points="-1980.21,341.033 4519.24,341.033 "/>
<polyline clip-path="url(#clip632)" style="stroke:#3da44d; stroke-linecap:round; stroke-linejoin:round; stroke-width:4; stroke-opacity:1; fill:none" points="-1980.21,341.033 4519.24,341.033 "/>
<polyline clip-path="url(#clip632)" style="stroke:#3da44d; stroke-linecap:round; stroke-linejoin:round; stroke-width:4; stroke-opacity:1; fill:none" points="-1980.21,341.033 4519.24,341.033 "/>
<polyline clip-path="url(#clip632)" style="stroke:#3da44d; stroke-linecap:round; stroke-linejoin:round; stroke-width:4; stroke-opacity:1; fill:none" points="-1980.21,341.033 4519.24,341.033 "/>
<polyline clip-path="url(#clip632)" style="stroke:#3da44d; stroke-linecap:round; stroke-linejoin:round; stroke-width:4; stroke-opacity:1; fill:none" points="-1980.21,341.033 4519.24,341.033 "/>
<polyline clip-path="url(#clip632)" style="stroke:#3da44d; stroke-linecap:round; stroke-linejoin:round; stroke-width:4; stroke-opacity:1; fill:none" points="-1980.21,341.033 4519.24,341.033 "/>
<polyline clip-path="url(#clip632)" style="stroke:#3da44d; stroke-linecap:round; stroke-linejoin:round; stroke-width:4; stroke-opacity:1; fill:none" points="-1980.21,341.033 4519.24,341.033 "/>
<polyline clip-path="url(#clip632)" style="stroke:#3da44d; stroke-linecap:round; stroke-linejoin:round; stroke-width:4; stroke-opacity:1; fill:none" points="-1980.21,341.033 4519.24,341.033 "/>
<polyline clip-path="url(#clip632)" style="stroke:#3da44d; stroke-linecap:round; stroke-linejoin:round; stroke-width:4; stroke-opacity:1; fill:none" points="-1980.21,341.033 4519.24,341.033 "/>
<polyline clip-path="url(#clip632)" style="stroke:#3da44d; stroke-linecap:round; stroke-linejoin:round; stroke-width:4; stroke-opacity:1; fill:none" points="-1980.21,341.033 4519.24,341.033 "/>
<polyline clip-path="url(#clip632)" style="stroke:#3da44d; stroke-linecap:round; stroke-linejoin:round; stroke-width:4; stroke-opacity:1; fill:none" points="-1980.21,341.033 4519.24,341.033 "/>
<polyline clip-path="url(#clip632)" style="stroke:#3da44d; stroke-linecap:round; stroke-linejoin:round; stroke-width:4; stroke-opacity:1; fill:none" points="-1980.21,341.033 4519.24,341.033 "/>
<polyline clip-path="url(#clip632)" style="stroke:#3da44d; stroke-linecap:round; stroke-linejoin:round; stroke-width:4; stroke-opacity:1; fill:none" points="-1980.21,341.033 4519.24,341.033 "/>
<polyline clip-path="url(#clip632)" style="stroke:#3da44d; stroke-linecap:round; stroke-linejoin:round; stroke-width:4; stroke-opacity:1; fill:none" points="-1980.21,341.033 4519.24,341.033 "/>
<polyline clip-path="url(#clip632)" style="stroke:#3da44d; stroke-linecap:round; stroke-linejoin:round; stroke-width:4; stroke-opacity:1; fill:none" points="-1980.21,341.033 4519.24,341.033 "/>
<polyline clip-path="url(#clip632)" style="stroke:#3da44d; stroke-linecap:round; stroke-linejoin:round; stroke-width:4; stroke-opacity:1; fill:none" points="-1980.21,341.033 4519.24,341.033 "/>
<polyline clip-path="url(#clip632)" style="stroke:#3da44d; stroke-linecap:round; stroke-linejoin:round; stroke-width:4; stroke-opacity:1; fill:none" points="-1980.21,341.033 4519.24,341.033 "/>
<polyline clip-path="url(#clip632)" style="stroke:#3da44d; stroke-linecap:round; stroke-linejoin:round; stroke-width:4; stroke-opacity:1; fill:none" points="-1980.21,341.033 4519.24,341.033 "/>
<polyline clip-path="url(#clip632)" style="stroke:#3da44d; stroke-linecap:round; stroke-linejoin:round; stroke-width:4; stroke-opacity:1; fill:none" points="-1980.21,341.033 4519.24,341.033 "/>
<polyline clip-path="url(#clip632)" style="stroke:#3da44d; stroke-linecap:round; stroke-linejoin:round; stroke-width:4; stroke-opacity:1; fill:none" points="-1980.21,341.033 4519.24,341.033 "/>
<polyline clip-path="url(#clip632)" style="stroke:#3da44d; stroke-linecap:round; stroke-linejoin:round; stroke-width:4; stroke-opacity:1; fill:none" points="-1980.21,341.033 4519.24,341.033 "/>
<polyline clip-path="url(#clip632)" style="stroke:#3da44d; stroke-linecap:round; stroke-linejoin:round; stroke-width:4; stroke-opacity:1; fill:none" points="-1980.21,341.033 4519.24,341.033 "/>
<polyline clip-path="url(#clip632)" style="stroke:#3da44d; stroke-linecap:round; stroke-linejoin:round; stroke-width:4; stroke-opacity:1; fill:none" points="-1980.21,341.033 4519.24,341.033 "/>
<polyline clip-path="url(#clip632)" style="stroke:#c271d2; stroke-linecap:round; stroke-linejoin:round; stroke-width:4; stroke-opacity:1; fill:none" points="247.59,160.256 247.797,161.441 248.005,163.637 248.213,166.822 248.421,170.962 248.629,176.014 248.837,181.925 249.045,188.636 249.253,196.076 249.669,212.849 250.085,231.596 250.5,251.628 250.916,272.259 251.332,292.835 251.748,312.78 252.164,331.617 252.579,348.989 252.995,364.67 253.411,378.565 253.827,390.7 254.243,401.207 255.074,418.247 255.906,431.889 256.738,444.347 257.569,457.161 259.233,485.205 260.896,512.449 262.819,538.52 264.741,564.453 265.702,579.084 266.664,593.838 267.625,606.959 268.586,616.884 269.547,623.187 270.509,627.036 271.47,630.86 272.431,637.333 273.392,648.115 274.353,662.945 275.315,679.577 276.276,694.624 277.237,705.01 278.198,709.363 279.16,708.741 280.121,706.296 281.082,706.02 282.043,711.063 283.005,722.385 283.966,738.31 284.927,755.203 285.888,768.972 286.85,776.761 287.811,778.098 288.772,775.025 289.733,771.185 290.695,770.291 291.656,774.636 292.617,784.284 293.578,797.231 294.539,810.403 295.501,820.993 296.462,827.541 297.423,830.314 298.384,830.899 299.346,831.289 301.268,836.279 303.191,845.554 305.113,854.655 307.036,866.952 307.997,875.57 308.958,884.795 309.919,892.65 310.881,897.038 311.842,896.801 312.803,892.516 313.764,886.589 314.725,882.517 315.687,883.552 316.648,891.314 317.609,904.965 318.57,921.349 319.532,936.085 320.493,945.204 321.454,946.669 322.415,941.153 323.377,931.768 324.338,922.861 325.299,918.381 326.26,920.496 327.222,928.968 328.183,941.487 329.144,954.743 330.105,965.725 331.067,972.706 332.028,975.556 332.989,975.369 333.95,973.693 335.873,970.283 337.795,968.777 338.756,969.187 339.718,971.322 340.679,976.115 341.64,983.986 342.601,994.292 343.563,1005.19 344.524,1014.11 345.485,1018.67 346.446,1017.73 347.408,1011.99 348.369,1003.94 349.33,997.025 350.291,994.352 351.253,997.505 352.214,1005.93 353.175,1017.19 354.136,1027.96 355.098,1035.39 356.059,1038.18 357.02,1036.98 357.981,1033.98 358.942,1031.8 359.904,1032.33 360.865,1035.94 361.826,1041.44 362.787,1046.71 363.749,1049.78 364.71,1049.76 365.671,1047.26 366.632,1044.1 367.594,1042.47 368.555,1043.97 369.516,1048.96 370.477,1056.43 371.439,1064.56 372.4,1071.48 373.361,1076.01 374.322,1077.97 375.284,1078.01 376.245,1077.08 378.167,1074.43 380.09,1070.29 381.051,1067.81 382.012,1066.35 382.973,1067.51 383.935,1072.63 384.512,1077.78 385.09,1084.27 385.668,1091.67 386.245,1099.37 386.823,1106.67 387.401,1112.8 387.978,1117.11 388.556,1119.1 389.134,1118.53 389.711,1115.46 390.289,1110.26 390.867,1103.57 391.444,1096.19 392.022,1089.06 392.6,1083.04 393.177,1078.88 393.755,1077.08 394.333,1077.85 394.91,1081.09 395.488,1086.42 396.643,1100.76 397.799,1115.06 398.376,1120.59 398.954,1124.54 399.532,1126.82 400.109,1127.57 401.265,1125.75 402.42,1122.25 403.575,1119.75 404.731,1119.13 405.886,1119.7 407.041,1120.43 409.352,1122.26 411.663,1129.14 412.818,1133.51 413.973,1136.28 415.129,1136.53 416.284,1135.14 417.439,1134.58 418.595,1137.34 419.75,1144.09 420.905,1152.79 421.483,1156.65 422.061,1159.48 422.638,1160.85 423.216,1160.51 423.794,1158.44 424.371,1154.85 424.949,1150.16 425.527,1144.98 426.104,1139.99 426.682,1135.86 427.26,1133.17 427.837,1132.31 428.415,1133.45 428.993,1136.48 429.57,1141.1 430.148,1146.81 430.726,1152.98 431.303,1159 431.881,1164.32 432.459,1168.52 433.036,1171.38 433.614,1172.87 434.192,1173.17 434.769,1172.56 435.925,1170.14 437.08,1168.32 438.235,1168.23 439.391,1169.08 440.546,1169.18 441.701,1167.46 442.856,1164.51 444.012,1162.21 445.167,1162.5 446.322,1166.05 447.478,1171.89 448.633,1178.08 450.944,1186.51 453.254,1192.09 454.41,1194.85 455.565,1195.96 456.143,1195.28 456.72,1193.56 457.298,1190.77 457.876,1187.07 458.853,1179.65 459.829,1172.83 460.318,1170.48 460.806,1169.23 461.295,1169.28 461.783,1170.73 462.271,1173.56 462.76,1177.63 463.248,1182.7 463.737,1188.4 464.713,1200.09 465.69,1209.42 466.179,1212.38 466.667,1213.96 467.156,1214.14 467.644,1213.02 468.621,1207.82 469.598,1200.92 470.574,1195.2 471.551,1192.73 472.528,1194.13 473.505,1198.53 474.482,1204.12 475.458,1209 476.435,1211.88 477.412,1212.47 479.366,1209.07 481.319,1204.58 482.296,1202.81 483.273,1201.58 484.25,1201.33 485.227,1202.78 486.203,1206.65 487.18,1213.14 488.157,1221.51 489.134,1230.08 489.622,1233.75 490.111,1236.62 490.599,1238.46 491.088,1239.11 491.576,1238.49 492.064,1236.63 492.553,1233.64 493.041,1229.76 494.018,1220.58 494.995,1211.9 495.483,1208.59 495.972,1206.3 496.46,1205.16 496.948,1205.19 497.925,1208.34 498.902,1214.14 499.879,1220.36 500.856,1225.1 501.832,1227.56 502.809,1228.21 503.786,1228.42 504.763,1229.64 505.74,1232.63 506.717,1237.08 507.693,1241.72 508.67,1244.92 509.647,1245.46 510.624,1243.09 511.601,1238.62 512.577,1233.57 513.554,1229.49 514.531,1227.39 515.508,1227.41 516.485,1228.98 518.438,1233.55 520.392,1238.02 522.514,1244.63 524.636,1250.2 525.697,1250.19 526.759,1248.12 527.82,1245.22 528.881,1243.44 529.942,1244.4 531.003,1248.45 532.064,1254.26 533.125,1259.3 533.656,1260.69 534.186,1261.02 534.717,1260.16 535.247,1258.15 536.308,1251.44 537.37,1243.44 537.9,1239.98 538.431,1237.38 538.961,1235.92 539.492,1235.75 540.022,1236.88 540.553,1239.18 541.083,1242.43 541.614,1246.29 542.675,1254.4 543.736,1260.86 544.797,1264.17 545.858,1264.43 546.919,1263.01 547.98,1261.65 549.042,1261.49 550.103,1262.67 552.225,1266.04 554.347,1266.59 555.408,1265.93 556.469,1265 557.53,1263.63 558.591,1261.34 559.653,1257.87 560.714,1253.67 561.775,1250.17 562.836,1249.29 563.366,1250.36 563.897,1252.6 564.427,1255.98 564.958,1260.37 566.019,1271.07 567.08,1281.77 567.611,1286.08 568.141,1289.23 568.672,1290.99 569.202,1291.26 569.733,1290.09 570.264,1287.65 570.794,1284.25 571.325,1280.25 572.386,1272.1 573.447,1266.13 573.977,1264.52 574.508,1263.9 575.038,1264.2 575.569,1265.22 576.63,1268.48 577.691,1271.7 578.752,1273.56 579.813,1273.92 584.058,1277.12 588.302,1278.82 589.28,1278.08 590.259,1278.4 591.237,1280.09 592.215,1282.85 594.172,1288.34 596.128,1290.1 598.085,1289.94 600.041,1290.59 601.019,1290.11 601.997,1287.94 602.976,1283.72 603.954,1278 604.932,1272.24 605.91,1268.37 606.4,1267.71 606.889,1268.09 607.378,1269.56 607.867,1272.09 608.845,1279.72 609.823,1289.12 610.802,1297.87 611.78,1303.81 612.269,1305.34 612.758,1305.86 613.247,1305.45 613.736,1304.25 614.715,1300.39 615.693,1296.16 616.671,1293.19 617.649,1292.29 618.627,1293.27 619.606,1295.24 621.562,1297.94 623.519,1296.31 625.475,1292.73 627.432,1289.42 628.41,1287.93 629.388,1286.83 630.366,1286.72 631.345,1288.28 632.323,1291.91 633.301,1297.39 634.279,1303.7 635.258,1309.3 636.236,1312.65 637.214,1312.81 638.192,1309.92 639.17,1305.17 640.149,1300.43 641.127,1297.52 642.105,1297.47 643.083,1300.17 644.062,1304.4 645.04,1308.42 646.018,1310.64 646.996,1310.3 647.975,1307.71 648.953,1304.02 649.931,1300.67 650.909,1298.79 653.007,1300.32 655.104,1303.51 657.202,1303.46 659.299,1304.26 661.397,1308.9 663.495,1313.61 665.592,1316.46 667.69,1319.98 668.738,1321.58 669.787,1321.88 670.836,1319.97 671.885,1315.72 672.934,1309.99 673.982,1304.45 675.031,1300.84 676.08,1300.22 677.129,1302.43 678.177,1306.2 679.226,1309.76 680.275,1311.76 681.324,1311.89 682.372,1311.06 683.421,1310.82 684.47,1312.53 685.519,1316.56 686.568,1322.07 687.616,1327.31 688.665,1330.46 689.714,1330.43 690.763,1327.37 691.811,1322.48 692.86,1317.49 693.909,1313.89 694.958,1312.43 696.007,1313.05 697.055,1315.14 699.153,1321.01 701.25,1326.27 702.299,1327.6 703.348,1327.17 704.397,1324.45 705.446,1319.53 706.494,1313.4 707.543,1307.86 708.067,1305.94 708.592,1304.89 709.116,1304.84 709.641,1305.88 710.689,1310.95 711.738,1318.77 712.787,1327.02 713.836,1333.34 714.36,1335.25 714.884,1336.22 715.409,1336.3 715.933,1335.62 716.982,1332.77 718.031,1329.58 719.246,1327.52 720.461,1328 721.676,1329.99 722.891,1331.58 724.106,1331.41 725.321,1329.46 726.537,1326.88 727.752,1324.92 730.182,1323.7 732.612,1321.88 733.827,1320.69 735.042,1320.6 736.257,1322.26 737.472,1325.36 739.903,1331.41 742.333,1334.34 743.548,1336.35 744.763,1339.25 745.978,1342.02 747.193,1342.86 748.408,1340.53 749.624,1335.38 750.839,1329.49 752.054,1325.63 752.661,1325.1 753.269,1325.6 753.876,1327.03 754.484,1329.14 755.699,1334.06 756.914,1337.56 758.129,1337.91 759.344,1335.33 760.56,1331.68 761.775,1329.11 762.99,1328.78 764.205,1330.37 765.42,1332.56 766.635,1334.14 769.065,1334.84 771.495,1336.01 773.926,1338.33 776.356,1341.48 777.571,1344.54 778.786,1348.4 780.001,1351.57 781.216,1352.05 781.824,1350.8 782.431,1348.51 783.039,1345.3 783.647,1341.43 784.862,1333.16 786.077,1326.91 786.684,1325.33 787.292,1324.97 787.899,1325.77 788.507,1327.55 789.722,1332.7 790.937,1337.55 792.152,1339.97 793.367,1339.63 794.582,1337.94 795.798,1336.84 797.957,1339.42 800.117,1344.78 802.277,1347.77 804.436,1348.83 806.596,1348.92 808.756,1346.28 809.836,1344.36 810.915,1343.08 811.995,1343.13 813.075,1344.63 814.155,1346.94 815.235,1348.9 816.315,1349.43 817.394,1348.11 818.474,1345.44 819.554,1342.59 820.634,1340.75 821.714,1340.53 822.794,1341.58 823.874,1342.83 824.953,1343.16 826.033,1342.02 827.113,1339.88 828.193,1337.96 829.273,1337.68 830.353,1339.81 831.432,1344.11 832.512,1349.35 833.592,1353.91 834.672,1356.51 835.752,1356.73 836.832,1355.13 837.911,1352.81 838.991,1350.88 841.151,1350.2 843.311,1352.56 845.47,1355.51 847.63,1356.9 848.71,1355.64 849.79,1352.34 850.87,1347.1 851.949,1340.93 853.029,1335.46 854.109,1332.47 854.649,1332.28 855.189,1333.04 855.729,1334.68 856.269,1337.06 857.349,1343.22 858.429,1349.5 859.508,1354.06 860.588,1356.01 861.668,1355.63 862.748,1354.13 863.828,1352.91 864.908,1352.87 866.801,1355.2 868.695,1356.73 870.589,1355.04 872.483,1352.88 874.377,1353.46 876.271,1356.04 878.165,1358.28 880.058,1359.82 881.952,1360.76 883.846,1358.97 885.74,1352.85 887.634,1345.79 888.581,1343.88 889.528,1343.72 890.475,1345.15 891.421,1347.54 893.315,1351.69 895.209,1351.85 897.103,1350.8 898.997,1353.62 899.944,1356.55 900.891,1359.66 901.838,1362.13 902.785,1363.4 904.678,1362.44 906.572,1360.47 908.466,1361.34 910.36,1363.73 912.254,1364 914.148,1361.51 916.042,1358.32 917.935,1355.54 919.829,1353.19 921.723,1352.87 923.617,1356.32 925.511,1361.06 926.543,1362.02 927.576,1360.91 928.608,1357.88 929.64,1353.89 930.673,1350.4 931.705,1348.79 932.738,1349.77 933.77,1353.1 934.802,1357.71 935.835,1362.11 936.867,1365.07 937.9,1366.01 939.964,1363.4 942.029,1360.77 944.094,1361.79 946.159,1364.56 948.224,1367.25 950.288,1369.49 952.353,1369.23 954.418,1364.85 956.483,1359.61 958.548,1357.97 960.612,1358.43 962.677,1356.34 963.71,1354.42 964.742,1352.92 965.774,1352.69 966.807,1354.1 967.839,1356.87 968.872,1360.18 969.904,1362.99 970.937,1364.56 973.001,1364.19 975.066,1363.82 977.131,1367.12 979.196,1370.41 981.261,1369.23 983.325,1365.46 985.39,1363.61 987.455,1364.66 989.52,1367.36 991.585,1371.06 992.623,1372.75 993.662,1373.6 994.7,1373.03 995.739,1370.8 996.777,1367.2 997.816,1363.07 998.854,1359.55 999.893,1357.58 1000.93,1357.52 1001.97,1358.98 1003.01,1360.98 1004.05,1362.43 1005.09,1362.57 1006.12,1361.4 1007.16,1359.56 1008.2,1358.1 1009.24,1357.91 1010.28,1359.35 1011.32,1362.09 1012.36,1365.27 1014.43,1369.51 1016.51,1369.16 1018.59,1367.5 1020.66,1367.63 1022.74,1369.46 1024.82,1372.62 1025.86,1374.57 1026.89,1376.34 1027.93,1377.34 1028.97,1377.03 1030.01,1375.14 1031.05,1371.96 1032.09,1368.26 1033.13,1365.07 1034.16,1363.27 1035.2,1363.19 1036.24,1364.54 1037.28,1366.51 1039.36,1368.94 1041.43,1367.97 1043.51,1367.36 1045.59,1368.87 1047.67,1368.72 1049.74,1364.92 1051.82,1361.73 1053.9,1363.11 1055.97,1366.94 1058.05,1369.26 1062.64,1370.33 1067.24,1372.29 1068.39,1374.53 1069.53,1377.39 1070.68,1379.91 1071.83,1381 1072.98,1379.99 1074.13,1377.09 1075.27,1373.35 1076.42,1370.22 1077.57,1368.76 1078.72,1369.16 1079.87,1370.66 1081.02,1372 1082.16,1372.17 1083.31,1370.88 1084.46,1368.66 1085.61,1366.49 1087.91,1365.21 1090.2,1367.59 1092.5,1370.19 1094.79,1372 1097.09,1372.03 1099.39,1368.82 1100.54,1366.92 1101.68,1365.91 1102.83,1366.37 1103.98,1368.22 1106.28,1372.84 1108.57,1373.88 1110.87,1373.42 1113.17,1376.38 1115.46,1379.82 1117.76,1378.82 1120.06,1376.23 1122.35,1376.57 1126.95,1376.74 1131.54,1373.43 1133.72,1371.02 1135.91,1368.75 1138.09,1368.52 1140.28,1368.46 1142.46,1366.54 1144.65,1366.21 1145.74,1368.09 1146.83,1371.15 1147.93,1374.53 1149.02,1377.13 1150.11,1378.14 1151.2,1377.43 1152.3,1375.59 1153.39,1373.65 1155.57,1372.83 1157.76,1376.08 1159.94,1378.43 1162.13,1377.64 1164.31,1376.14 1166.5,1375.94 1168.68,1377.43 1170.87,1380.81 1171.96,1382.67 1173.05,1383.89 1174.15,1383.88 1175.24,1382.36 1176.33,1379.61 1177.42,1376.38 1178.52,1373.6 1179.61,1372.02 1181.79,1372.58 1183.98,1373.99 1186.16,1372.8 1188.35,1371.67 1190.53,1372.89 1192.72,1373.33 1194.9,1370.76 1197.09,1368.75 1199.27,1370.72 1201.46,1374.72 1203.73,1377.68 1206,1379.13 1208.28,1378.97 1210.55,1376.77 1212.82,1375.48 1215.09,1378.15 1217.36,1381.72 1219.63,1381.74 1224.18,1381.68 1228.72,1381.64 1230.99,1378.37 1233.27,1377.71 1235.54,1379.08 1237.81,1379.82 1240.08,1379.03 1242.35,1375.88 1244.63,1370.54 1246.9,1367.33 1248.03,1367.93 1249.17,1369.78 1250.31,1372.07 1251.44,1373.82 1253.71,1373.92 1255.99,1372.59 1258.26,1375.27 1260.53,1380.11 1262.8,1381.7 1265.07,1380.28 1269.62,1379.36 1274.16,1379.49 1277.99,1382.68 1281.81,1383.92 1285.64,1384.28 1289.46,1381.63 1291.37,1382.16 1293.29,1382.79 1295.2,1380.69 1297.11,1375.98 1299.02,1372.46 1300.94,1373.08 1302.85,1376.45 1304.76,1378.92 1306.67,1378.71 1308.59,1376.71 1310.5,1374.22 1312.41,1372.05 1314.32,1371.47 1316.24,1373.75 1318.15,1377.88 1320.06,1380.64 1321.97,1380.25 1323.89,1378.67 1325.8,1378.91 1327.71,1380.94 1331.54,1381.33 1335.36,1381 1340.03,1383.99 1344.7,1384.43 1349.37,1385.36 1354.04,1384.34 1358.71,1380.5 1363.38,1379.3 1364.55,1377.57 1365.71,1375.93 1366.88,1375.12 1368.05,1375.48 1370.38,1378.24 1372.72,1378.94 1375.05,1376.51 1377.39,1375.69 1379.72,1378.29 1382.06,1381.23 1384.39,1382.18 1386.73,1380.49 1389.06,1376.01 1391.4,1371.93 1392.57,1371.78 1393.73,1373.27 1394.9,1375.99 1396.07,1379.05 1398.4,1382.87 1400.74,1382.79 1405.41,1384.43 1410.08,1384.86 1418.63,1386.19 1427.19,1382.65 1435.75,1380.66 1444.3,1378.07 1446.44,1378.62 1448.58,1380.81 1450.72,1381.63 1452.86,1380.65 1455,1378.81 1457.13,1376.4 1459.27,1374.4 1461.41,1374.74 1463.55,1377.02 1465.69,1378.11 1467.83,1376.96 1469.97,1376.73 1472.11,1379.72 1474.25,1383.44 1476.39,1384.48 1478.52,1383.43 1486.43,1385.97 1494.33,1385.5 1502.23,1386.18 1510.13,1384.53 1525.94,1381.48 1541.74,1379.25 1549.74,1381.34 1557.75,1381.87 1565.75,1380.62 1573.76,1381.92 1581.76,1385.14 1589.77,1386.38 1597.77,1384.92 1605.77,1385.23 1677.54,1382.31 1742.57,1379.18 1744.9,1378.68 1747.22,1378.46 1749.55,1378.84 1751.88,1379.59 1754.2,1378.05 1756.53,1373.88 1757.69,1372.32 1758.86,1372.08 1760.02,1373.36 1761.18,1375.7 1762.35,1378.19 1763.51,1379.83 1764.67,1380.02 1765.84,1378.8 1767,1376.82 1768.17,1374.95 1769.33,1373.94 1770.49,1374.06 1772.82,1376.77 1775.15,1379.98 1777.47,1382.23 1779.8,1382.81 1782.13,1380.62 1784.45,1377.23 1786.78,1376.12 1789.11,1376.89 1791.43,1376.07 1793.76,1374.32 1794.92,1374.45 1796.09,1375.53 1797.25,1377.15 1798.41,1378.56 1800.74,1378.3 1803.07,1374.84 1805.39,1373.45 1807.72,1375.36 1812.37,1375.91 1817.03,1373.43 1819.18,1371.35 1821.34,1370.16 1823.49,1371.23 1825.64,1372.57 1827.8,1372 1829.95,1371.75 1832.11,1375.13 1834.26,1380.01 1835.34,1381.14 1836.42,1380.75 1837.49,1379.02 1838.57,1376.61 1840.72,1373.08 1842.88,1374.01 1845.03,1377.26 1847.19,1379.14 1849.34,1378.72 1851.5,1376.28 1853.65,1371.9 1855.81,1367.74 1857.96,1367.09 1860.11,1369.22 1862.27,1369.3 1864.42,1365.93 1865.5,1364.42 1866.58,1364.06 1867.65,1365.13 1868.73,1367.36 1870.89,1372.24 1873.04,1373.55 1875.19,1372.18 1877.35,1371.94 1881.66,1370.84 1885.97,1367.04 1887.03,1367.92 1888.09,1369.31 1889.15,1370.88 1890.21,1372.4 1892.34,1375.23 1894.46,1377.68 1896.59,1377.76 1898.71,1373.92 1899.77,1371.39 1900.83,1369.47 1901.9,1368.78 1902.96,1369.51 1904.02,1371.26 1905.08,1373.21 1906.14,1374.43 1907.21,1374.33 1909.33,1370.57 1911.45,1366.97 1913.58,1368.16 1915.7,1372.12 1917.83,1374.3 1919.95,1373.7 1922.07,1371.74 1924.2,1368.76 1926.32,1365.35 1928.45,1364.05 1930.57,1365.65 1932.69,1366.51 1933.76,1365.53 1934.82,1363.8 1935.88,1362 1936.94,1360.99 1938,1361.38 1939.07,1363.27 1940.13,1366.13 1941.19,1369.09 1942.25,1371.23 1943.31,1372.03 1944.38,1371.52 1945.44,1370.26 1947.56,1368.6 1949.68,1370.49 1951.81,1373.65 1953.93,1375.09 1955.99,1375.3 1958.06,1375.11 1960.12,1373.07 1962.18,1368.6 1966.31,1361.99 1970.43,1358.66 1972.49,1358.79 1974.55,1362.97 1975.59,1365.41 1976.62,1366.75 1977.65,1366.14 1978.68,1363.35 1979.71,1358.89 1980.74,1353.92 1981.77,1349.81 1982.8,1347.66 1983.83,1347.91 1984.87,1350.19 1985.9,1353.55 1986.93,1356.79 1987.96,1358.98 1988.99,1359.66 1990.02,1358.89 1991.05,1357.08 1993.11,1352.16 1995.18,1347.1 1996.21,1344.91 1997.24,1343.37 1998.27,1342.9 1999.3,1343.78 2000.33,1345.85 2001.36,1348.51 2002.39,1350.82 2003.43,1351.84 2004.46,1351.08 2005.49,1348.74 2006.52,1345.69 2007.55,1343.15 2008.58,1342.13 2009.61,1342.98 2010.64,1345.24 2011.67,1347.78 2012.7,1349.36 2013.74,1349.15 2014.77,1347.1 2015.8,1343.99 2016.83,1341 2017.86,1339.22 2018.89,1339.12 2019.92,1340.43 2020.98,1342.29 2022.04,1343.61 2023.09,1343.66 2024.15,1342.4 2026.26,1338.29 2028.38,1335.34 2032.61,1325.64 2036.83,1314.74 2038.95,1309.83 2041.06,1303.03 2042.12,1300.93 2043.18,1301.01 2044.23,1303.38 2045.29,1307.07 2046.35,1310.27 2047.4,1311.12 2048.46,1308.56 2049.52,1302.9 2050.58,1295.77 2051.63,1289.5 2052.16,1287.35 2052.69,1286.07 2053.22,1285.74 2053.75,1286.31 2054.8,1289.55 2055.86,1294.05 2056.92,1297.78 2057.97,1299.4 2059.03,1298.69 2060.09,1296.56 2061.15,1294.45 2062.2,1293.57 2063.26,1294.38 2064.32,1296.55 2065.37,1299.26 2066.43,1301.73 2067.49,1303.54 2068.54,1304.66 2069.6,1305.1 2070.66,1304.67 2071.72,1302.84 2072.77,1299.06 2073.83,1293.2 2074.89,1286 2075.94,1279.03 2077,1274.21 2077.53,1273.06 2078.06,1272.87 2078.59,1273.58 2079.11,1275.06 2080.17,1279.25 2081.23,1282.83 2081.76,1283.54 2082.29,1283.18 2082.81,1281.62 2083.34,1278.83 2084.4,1270.16 2085.46,1259.34 2085.98,1254.09 2086.51,1249.45 2087.04,1245.73 2087.57,1243.15 2088.15,1241.75 2088.73,1241.83 2089.31,1243.19 2089.89,1245.53 2091.04,1251.68 2092.2,1257.47 2093.36,1261.25 2094.52,1262.99 2095.68,1263.65 2096.83,1264.01 2097.99,1263.9 2099.15,1262.28 2100.31,1258.06 2101.47,1251.07 2102.63,1242.49 2103.78,1234.22 2104.94,1227.84 2106.1,1223.72 2108.42,1218.32 2110.73,1212.12 2111.89,1210.74 2113.05,1212.21 2114.21,1216.3 2115.36,1221.13 2116.52,1224.15 2117.68,1223.74 2118.84,1220.48 2120,1217.05 2120.58,1216.36 2121.15,1216.84 2121.73,1218.69 2122.31,1221.91 2123.47,1231.5 2124.63,1242.14 2125.21,1246.41 2125.79,1249.27 2126.37,1250.37 2126.94,1249.56 2127.52,1246.88 2128.1,1242.61 2128.68,1237.16 2129.26,1231.06 2129.84,1224.89 2130.42,1219.18 2131,1214.36 2131.58,1210.74 2132.16,1208.45 2132.73,1207.48 2133.31,1207.68 2133.89,1208.82 2136.21,1217.32 2138.53,1224.2 2139.68,1225.85 2140.84,1225.49 2141.42,1224.24 2142,1222.13 2142.58,1219.12 2143.16,1215.26 2144.32,1205.7 2145.47,1195.67 2146.05,1191.33 2146.63,1187.82 2147.21,1185.3 2147.79,1183.77 2148.95,1182.92 2150.11,1182.68 2150.68,1181.77 2151.26,1179.9 2151.84,1176.95 2152.42,1172.96 2153.58,1163.03 2154.74,1153.81 2155.32,1150.85 2155.9,1149.56 2156.48,1150.18 2157.05,1152.69 2158.21,1162.18 2159.37,1173.88 2159.95,1178.9 2160.53,1182.58 2161.11,1184.53 2161.69,1184.57 2162.53,1181.38 2163.37,1175.24 2164.21,1167.64 2165.05,1160.18 2165.89,1154.16 2166.73,1150.25 2167.57,1148.46 2168.42,1148.31 2170.1,1150.38 2171.78,1153.52 2173.46,1158.97 2175.14,1167.43 2175.99,1171.69 2176.83,1174.95 2177.67,1176.63 2178.51,1176.55 2180.19,1172.9 2181.87,1169.93 2183.56,1170.91 2185.24,1171.52 2186.08,1169.49 2186.92,1165.43 2187.76,1159.87 2188.6,1153.95 2189.44,1149.09 2190.29,1146.54 2191.13,1146.94 2191.97,1150.07 2192.81,1154.83 2193.65,1159.62 2194.49,1162.78 2195.33,1163.12 2196.17,1160.36 2197.01,1155.15 2197.86,1148.94 2198.7,1143.49 2199.54,1140.32 2200.38,1140.27 2201.22,1143.21 2202.06,1148.13 2202.9,1153.48 2203.74,1157.61 2204.58,1159.28 2205.43,1157.97 2206.27,1153.93 2207.11,1148.05 2207.95,1141.5 2208.79,1135.35 2209.63,1130.32 2210.47,1126.68 2211.31,1124.34 2212.15,1123.04 2213.84,1122.81 2215.52,1125.72 2216.36,1128.15 2217.2,1130.54 2218.04,1131.88 2218.88,1131.02 2219.73,1127.03 2220.57,1119.55 2221.41,1109.11 2222.25,1097.13 2223.09,1085.73 2223.93,1077.16 2224.77,1073.22 2225.61,1074.74 2226.45,1081.25 2227.3,1091.11 2228.14,1101.87 2228.98,1110.94 2229.82,1116.28 2230.66,1116.93 2231.5,1113.19 2232.34,1106.46 2233.18,1098.79 2234.02,1092.25 2234.87,1088.39 2235.71,1087.88 2236.55,1090.49 2237.39,1095.32 2238.23,1101.24 2239.07,1107.28 2240.75,1118.2 2242.44,1129.07 2244.12,1141.57 2245.8,1152.06 2246.64,1154.54 2247.48,1154.56 2248.32,1152.28 2249.17,1148.37 2252.53,1131.26 2255.89,1110.94 2256.74,1104.12 2257.58,1098.18 2258.42,1094.37 2259.26,1093.59 2260.1,1095.98 2260.94,1100.78 2261.78,1106.45 2262.62,1111.1 2263.46,1113.02 2264.31,1111.25 2265.15,1105.93 2265.99,1098.25 2266.83,1090.14 2267.67,1083.69 2268.51,1080.53 2269.35,1081.34 2270.04,1084.67 2270.73,1089.64 2271.42,1095.2 2272.11,1100.26 2272.8,1103.89 2273.49,1105.52 2274.18,1104.98 2274.87,1102.55 2276.25,1094.57 2277.64,1087.34 2278.33,1085.24 2279.02,1084.22 2279.71,1084.01 2280.4,1084.17 2281.78,1083.83 2283.16,1081.19 2284.54,1077 2285.92,1073.15 2287.3,1070.13 2288.68,1066.66 2290.06,1062.06 2291.44,1058.71 "/>
<path clip-path="url(#clip630)" d="M1813.1 467.571 L2280.54 467.571 L2280.54 166.796 L1813.1 166.796  Z" fill="#ffffff" fill-rule="evenodd" fill-opacity="1"/>
<polyline clip-path="url(#clip630)" style="stroke:#000000; stroke-linecap:round; stroke-linejoin:round; stroke-width:4; stroke-opacity:1; fill:none" points="1813.1,467.571 2280.54,467.571 2280.54,166.796 1813.1,166.796 1813.1,467.571 "/>
<polyline clip-path="url(#clip630)" style="stroke:#009af9; stroke-linecap:round; stroke-linejoin:round; stroke-width:4; stroke-opacity:1; fill:none" points="1837.17,226.951 1981.6,226.951 "/>
<path clip-path="url(#clip630)" d="M2016.52 249.858 Q2016.52 250.256 2016.24 250.537 Q2015.95 250.818 2015.56 250.818 Q2014.88 250.818 2014.64 250.186 L2005.72 227.161 Q2005.67 227.068 2005.67 226.833 Q2005.67 226.599 2005.72 226.506 L2014.64 203.481 Q2014.88 202.849 2015.56 202.849 Q2015.95 202.849 2016.24 203.13 Q2016.52 203.411 2016.52 203.809 Q2016.52 204.043 2016.47 204.137 L2007.64 226.833 L2016.47 249.53 Q2016.52 249.623 2016.52 249.858 Z" fill="#000000" fill-rule="evenodd" fill-opacity="1" /><path clip-path="url(#clip630)" d="M2063.44 231.963 Q2063.44 232.15 2063.23 232.876 Q2063.01 233.603 2062.5 234.727 Q2062.01 235.851 2061.3 236.882 Q2060.63 237.889 2059.5 238.638 Q2058.4 239.364 2057.14 239.364 Q2055.45 239.364 2054.33 238.24 Q2053.2 237.116 2053.2 235.429 Q2053.2 234.516 2053.83 232.783 Q2056.81 224.866 2056.81 222.032 Q2056.81 218.682 2054.21 218.682 Q2052.73 218.682 2051.4 219.291 Q2050.06 219.9 2049.2 220.744 Q2048.33 221.587 2047.65 222.547 Q2046.97 223.507 2046.67 224.14 Q2046.38 224.772 2046.31 225.053 L2043.43 236.624 Q2043.2 237.608 2043.04 238.076 Q2042.87 238.545 2042.43 238.943 Q2041.98 239.364 2041.28 239.364 Q2040.69 239.364 2040.27 239.013 Q2039.87 238.662 2039.87 238.053 Q2039.87 237.959 2039.99 237.467 Q2040.11 236.975 2040.27 236.296 Q2040.44 235.617 2040.51 235.219 Q2041.35 232.033 2041.47 231.588 L2042.8 226.014 Q2043.53 223.25 2043.53 222.032 Q2043.53 218.682 2040.93 218.682 Q2039.64 218.682 2038.42 219.174 Q2037.23 219.643 2036.41 220.299 Q2035.59 220.954 2034.84 221.868 Q2034.11 222.758 2033.74 223.367 Q2033.39 223.952 2033.1 224.538 L2032.5 226.927 Q2032.35 227.583 2031.68 230.136 L2030.62 234.469 Q2029.87 237.701 2029.71 238.006 Q2029.47 238.662 2028.96 239.013 Q2028.44 239.364 2027.93 239.364 Q2027.34 239.364 2026.94 239.013 Q2026.55 238.662 2026.55 238.053 Q2026.55 237.959 2026.62 237.608 Q2026.69 237.256 2026.8 236.765 Q2026.92 236.273 2026.97 235.992 L2029.75 224.913 Q2030.27 222.898 2030.39 222.266 Q2030.53 221.61 2030.53 220.884 Q2030.53 218.682 2029.03 218.682 Q2027.81 218.682 2027.01 220.135 Q2026.22 221.587 2025.54 224.397 Q2025.33 225.17 2025.19 225.334 Q2025.07 225.498 2024.72 225.498 Q2024.13 225.475 2024.13 225.006 Q2024.13 224.889 2024.32 224.14 Q2024.51 223.39 2024.86 222.266 Q2025.23 221.118 2025.63 220.369 Q2025.87 219.877 2026.08 219.549 Q2026.29 219.221 2026.71 218.706 Q2027.13 218.191 2027.76 217.909 Q2028.4 217.628 2029.17 217.628 Q2030.88 217.628 2032.14 218.729 Q2033.43 219.83 2033.6 221.798 Q2036.71 217.628 2041.07 217.628 Q2043.53 217.628 2045 218.87 Q2046.38 220.064 2046.55 222.266 Q2049.78 217.628 2054.37 217.628 Q2057.02 217.628 2058.45 219.01 Q2059.88 220.369 2059.88 222.758 Q2059.88 223.999 2059.24 226.365 Q2058.61 228.707 2058.19 229.878 Q2057.77 231.049 2056.95 233.298 Q2056.08 235.453 2056.08 236.718 Q2056.08 237.537 2056.36 237.912 Q2056.64 238.287 2057.25 238.287 Q2058.19 238.287 2059.01 237.748 Q2059.83 237.186 2060.41 236.273 Q2061.02 235.336 2061.42 234.399 Q2061.82 233.439 2062.12 232.361 Q2062.31 231.776 2062.41 231.635 Q2062.52 231.494 2062.85 231.494 Q2063.44 231.494 2063.44 231.963 Z" fill="#000000" fill-rule="evenodd" fill-opacity="1" /><path clip-path="url(#clip630)" d="M2076.61 226.506 Q2076.66 226.599 2076.66 226.833 Q2076.66 227.068 2076.61 227.161 L2067.69 250.186 Q2067.45 250.818 2066.8 250.818 Q2066.4 250.818 2066.12 250.537 Q2065.84 250.256 2065.84 249.858 Q2065.84 249.623 2065.88 249.53 L2074.69 226.833 L2065.88 204.137 Q2065.84 204.043 2065.84 203.809 Q2065.84 203.411 2066.12 203.13 Q2066.4 202.849 2066.8 202.849 Q2067.45 202.849 2067.69 203.481 L2076.61 226.506 Z" fill="#000000" fill-rule="evenodd" fill-opacity="1" /><polyline clip-path="url(#clip630)" style="stroke:#e26f46; stroke-linecap:round; stroke-linejoin:round; stroke-width:4; stroke-opacity:1; fill:none" points="1837.17,287.106 1981.6,287.106 "/>
<path clip-path="url(#clip630)" d="M2005.67 260.847 L2084.3 260.847 L2084.3 258.287 L2005.67 258.287  Z" fill="#000000" fill-rule="evenodd" fill-opacity="1"/>
<path clip-path="url(#clip630)" d="M2016.52 315.504 Q2016.52 315.902 2016.24 316.183 Q2015.95 316.464 2015.56 316.464 Q2014.88 316.464 2014.64 315.832 L2005.72 292.808 Q2005.67 292.714 2005.67 292.48 Q2005.67 292.245 2005.72 292.152 L2014.64 269.127 Q2014.88 268.495 2015.56 268.495 Q2015.95 268.495 2016.24 268.776 Q2016.52 269.057 2016.52 269.455 Q2016.52 269.69 2016.47 269.783 L2007.64 292.48 L2016.47 315.176 Q2016.52 315.27 2016.52 315.504 Z" fill="#000000" fill-rule="evenodd" fill-opacity="1" /><path clip-path="url(#clip630)" d="M2063.44 297.609 Q2063.44 297.797 2063.23 298.523 Q2063.01 299.249 2062.5 300.373 Q2062.01 301.497 2061.3 302.528 Q2060.63 303.535 2059.5 304.285 Q2058.4 305.011 2057.14 305.011 Q2055.45 305.011 2054.33 303.886 Q2053.2 302.762 2053.2 301.076 Q2053.2 300.162 2053.83 298.429 Q2056.81 290.512 2056.81 287.678 Q2056.81 284.329 2054.21 284.329 Q2052.73 284.329 2051.4 284.938 Q2050.06 285.547 2049.2 286.39 Q2048.33 287.233 2047.65 288.193 Q2046.97 289.154 2046.67 289.786 Q2046.38 290.418 2046.31 290.7 L2043.43 302.27 Q2043.2 303.254 2043.04 303.722 Q2042.87 304.191 2042.43 304.589 Q2041.98 305.011 2041.28 305.011 Q2040.69 305.011 2040.27 304.659 Q2039.87 304.308 2039.87 303.699 Q2039.87 303.605 2039.99 303.113 Q2040.11 302.622 2040.27 301.942 Q2040.44 301.263 2040.51 300.865 Q2041.35 297.679 2041.47 297.234 L2042.8 291.66 Q2043.53 288.896 2043.53 287.678 Q2043.53 284.329 2040.93 284.329 Q2039.64 284.329 2038.42 284.82 Q2037.23 285.289 2036.41 285.945 Q2035.59 286.601 2034.84 287.514 Q2034.11 288.404 2033.74 289.013 Q2033.39 289.599 2033.1 290.184 L2032.5 292.573 Q2032.35 293.229 2031.68 295.782 L2030.62 300.115 Q2029.87 303.348 2029.71 303.652 Q2029.47 304.308 2028.96 304.659 Q2028.44 305.011 2027.93 305.011 Q2027.34 305.011 2026.94 304.659 Q2026.55 304.308 2026.55 303.699 Q2026.55 303.605 2026.62 303.254 Q2026.69 302.903 2026.8 302.411 Q2026.92 301.919 2026.97 301.638 L2029.75 290.559 Q2030.27 288.545 2030.39 287.912 Q2030.53 287.256 2030.53 286.53 Q2030.53 284.329 2029.03 284.329 Q2027.81 284.329 2027.01 285.781 Q2026.22 287.233 2025.54 290.044 Q2025.33 290.817 2025.19 290.981 Q2025.07 291.145 2024.72 291.145 Q2024.13 291.121 2024.13 290.653 Q2024.13 290.536 2024.32 289.786 Q2024.51 289.037 2024.86 287.912 Q2025.23 286.765 2025.63 286.015 Q2025.87 285.523 2026.08 285.195 Q2026.29 284.867 2026.71 284.352 Q2027.13 283.837 2027.76 283.556 Q2028.4 283.275 2029.17 283.275 Q2030.88 283.275 2032.14 284.375 Q2033.43 285.476 2033.6 287.444 Q2036.71 283.275 2041.07 283.275 Q2043.53 283.275 2045 284.516 Q2046.38 285.711 2046.55 287.912 Q2049.78 283.275 2054.37 283.275 Q2057.02 283.275 2058.45 284.657 Q2059.88 286.015 2059.88 288.404 Q2059.88 289.646 2059.24 292.011 Q2058.61 294.353 2058.19 295.525 Q2057.77 296.696 2056.95 298.944 Q2056.08 301.099 2056.08 302.364 Q2056.08 303.184 2056.36 303.558 Q2056.64 303.933 2057.25 303.933 Q2058.19 303.933 2059.01 303.394 Q2059.83 302.832 2060.41 301.919 Q2061.02 300.982 2061.42 300.045 Q2061.82 299.085 2062.12 298.007 Q2062.31 297.422 2062.41 297.281 Q2062.52 297.141 2062.85 297.141 Q2063.44 297.141 2063.44 297.609 Z" fill="#000000" fill-rule="evenodd" fill-opacity="1" /><path clip-path="url(#clip630)" d="M2076.61 292.152 Q2076.66 292.245 2076.66 292.48 Q2076.66 292.714 2076.61 292.808 L2067.69 315.832 Q2067.45 316.464 2066.8 316.464 Q2066.4 316.464 2066.12 316.183 Q2065.84 315.902 2065.84 315.504 Q2065.84 315.27 2065.88 315.176 L2074.69 292.48 L2065.88 269.783 Q2065.84 269.69 2065.84 269.455 Q2065.84 269.057 2066.12 268.776 Q2066.4 268.495 2066.8 268.495 Q2067.45 268.495 2067.69 269.127 L2076.61 292.152 Z" fill="#000000" fill-rule="evenodd" fill-opacity="1" /><polyline clip-path="url(#clip630)" style="stroke:#3da44d; stroke-linecap:round; stroke-linejoin:round; stroke-width:4; stroke-opacity:1; fill:none" points="1837.17,347.261 1981.6,347.261 "/>
<path clip-path="url(#clip630)" d="M2005.67 321.002 L2084.3 321.002 L2084.3 318.442 L2005.67 318.442  Z" fill="#000000" fill-rule="evenodd" fill-opacity="1"/>
<path clip-path="url(#clip630)" d="M2016.52 375.659 Q2016.52 376.057 2016.24 376.338 Q2015.95 376.619 2015.56 376.619 Q2014.88 376.619 2014.64 375.987 L2005.72 352.963 Q2005.67 352.869 2005.67 352.635 Q2005.67 352.4 2005.72 352.307 L2014.64 329.282 Q2014.88 328.65 2015.56 328.65 Q2015.95 328.65 2016.24 328.931 Q2016.52 329.212 2016.52 329.61 Q2016.52 329.845 2016.47 329.938 L2007.64 352.635 L2016.47 375.331 Q2016.52 375.425 2016.52 375.659 Z" fill="#000000" fill-rule="evenodd" fill-opacity="1" /><path clip-path="url(#clip630)" d="M2063.44 357.764 Q2063.44 357.952 2063.23 358.678 Q2063.01 359.404 2062.5 360.528 Q2062.01 361.652 2061.3 362.683 Q2060.63 363.69 2059.5 364.44 Q2058.4 365.166 2057.14 365.166 Q2055.45 365.166 2054.33 364.041 Q2053.2 362.917 2053.2 361.231 Q2053.2 360.317 2053.83 358.584 Q2056.81 350.667 2056.81 347.833 Q2056.81 344.484 2054.21 344.484 Q2052.73 344.484 2051.4 345.093 Q2050.06 345.702 2049.2 346.545 Q2048.33 347.388 2047.65 348.348 Q2046.97 349.309 2046.67 349.941 Q2046.38 350.573 2046.31 350.855 L2043.43 362.425 Q2043.2 363.409 2043.04 363.877 Q2042.87 364.346 2042.43 364.744 Q2041.98 365.166 2041.28 365.166 Q2040.69 365.166 2040.27 364.814 Q2039.87 364.463 2039.87 363.854 Q2039.87 363.76 2039.99 363.268 Q2040.11 362.777 2040.27 362.097 Q2040.44 361.418 2040.51 361.02 Q2041.35 357.834 2041.47 357.389 L2042.8 351.815 Q2043.53 349.051 2043.53 347.833 Q2043.53 344.484 2040.93 344.484 Q2039.64 344.484 2038.42 344.975 Q2037.23 345.444 2036.41 346.1 Q2035.59 346.756 2034.84 347.669 Q2034.11 348.559 2033.74 349.168 Q2033.39 349.754 2033.1 350.339 L2032.5 352.728 Q2032.35 353.384 2031.68 355.937 L2030.62 360.27 Q2029.87 363.503 2029.71 363.807 Q2029.47 364.463 2028.96 364.814 Q2028.44 365.166 2027.93 365.166 Q2027.34 365.166 2026.94 364.814 Q2026.55 364.463 2026.55 363.854 Q2026.55 363.76 2026.62 363.409 Q2026.69 363.058 2026.8 362.566 Q2026.92 362.074 2026.97 361.793 L2029.75 350.714 Q2030.27 348.7 2030.39 348.067 Q2030.53 347.411 2030.53 346.685 Q2030.53 344.484 2029.03 344.484 Q2027.81 344.484 2027.01 345.936 Q2026.22 347.388 2025.54 350.199 Q2025.33 350.972 2025.19 351.136 Q2025.07 351.3 2024.72 351.3 Q2024.13 351.276 2024.13 350.808 Q2024.13 350.691 2024.32 349.941 Q2024.51 349.192 2024.86 348.067 Q2025.23 346.92 2025.63 346.17 Q2025.87 345.678 2026.08 345.35 Q2026.29 345.022 2026.71 344.507 Q2027.13 343.992 2027.76 343.711 Q2028.4 343.43 2029.17 343.43 Q2030.88 343.43 2032.14 344.53 Q2033.43 345.631 2033.6 347.599 Q2036.71 343.43 2041.07 343.43 Q2043.53 343.43 2045 344.671 Q2046.38 345.866 2046.55 348.067 Q2049.78 343.43 2054.37 343.43 Q2057.02 343.43 2058.45 344.812 Q2059.88 346.17 2059.88 348.559 Q2059.88 349.801 2059.24 352.166 Q2058.61 354.508 2058.19 355.68 Q2057.77 356.851 2056.95 359.099 Q2056.08 361.254 2056.08 362.519 Q2056.08 363.339 2056.36 363.713 Q2056.64 364.088 2057.25 364.088 Q2058.19 364.088 2059.01 363.549 Q2059.83 362.987 2060.41 362.074 Q2061.02 361.137 2061.42 360.2 Q2061.82 359.24 2062.12 358.162 Q2062.31 357.577 2062.41 357.436 Q2062.52 357.296 2062.85 357.296 Q2063.44 357.296 2063.44 357.764 Z" fill="#000000" fill-rule="evenodd" fill-opacity="1" /><path clip-path="url(#clip630)" d="M2076.61 352.307 Q2076.66 352.4 2076.66 352.635 Q2076.66 352.869 2076.61 352.963 L2067.69 375.987 Q2067.45 376.619 2066.8 376.619 Q2066.4 376.619 2066.12 376.338 Q2065.84 376.057 2065.84 375.659 Q2065.84 375.425 2065.88 375.331 L2074.69 352.635 L2065.88 329.938 Q2065.84 329.845 2065.84 329.61 Q2065.84 329.212 2066.12 328.931 Q2066.4 328.65 2066.8 328.65 Q2067.45 328.65 2067.69 329.282 L2076.61 352.307 Z" fill="#000000" fill-rule="evenodd" fill-opacity="1" /><path clip-path="url(#clip630)" d="M2084.3 352.212 Q2084.3 344.108 2087.32 337.573 Q2088.61 334.833 2090.41 332.537 Q2092.21 330.242 2093.41 329.235 Q2094.6 328.228 2094.93 328.228 Q2095.4 328.228 2095.42 328.696 Q2095.42 328.93 2094.79 329.516 Q2087.06 337.386 2087.08 352.212 Q2087.08 367.085 2094.6 374.651 Q2095.42 375.471 2095.42 375.728 Q2095.42 376.197 2094.93 376.197 Q2094.6 376.197 2093.46 375.236 Q2092.31 374.276 2090.53 372.074 Q2088.75 369.873 2087.46 367.179 Q2084.3 360.644 2084.3 352.212 Z" fill="#000000" fill-rule="evenodd" fill-opacity="1" /><path clip-path="url(#clip630)" d="M2131.69 332.256 Q2131.69 332.701 2131.6 333.076 L2130.29 341.414 Q2130.22 342.047 2130.08 342.281 Q2129.96 342.515 2129.58 342.515 Q2129 342.515 2129 341.906 Q2129 341.555 2129.14 340.993 Q2129.54 338.346 2129.54 337.152 Q2129.54 336.355 2129.37 335.77 Q2129.23 335.161 2129 334.739 Q2128.79 334.317 2128.3 334.036 Q2127.8 333.755 2127.34 333.591 Q2126.87 333.427 2126.02 333.357 Q2125.18 333.263 2124.45 333.24 Q2123.73 333.217 2122.53 333.217 Q2119.93 333.217 2119.51 333.31 Q2119.07 333.427 2118.83 333.779 Q2118.62 334.107 2118.39 335.09 L2112.02 360.551 L2111.83 361.558 Q2111.83 362.12 2112.18 362.307 Q2112.53 362.495 2113.61 362.612 Q2115.16 362.729 2116.68 362.729 Q2116.73 362.729 2116.82 362.729 Q2117.33 362.729 2117.54 362.752 Q2117.76 362.752 2117.97 362.799 Q2118.18 362.846 2118.22 362.963 Q2118.29 363.057 2118.29 363.244 Q2118.29 363.689 2118.11 363.923 Q2117.92 364.134 2117.73 364.181 Q2117.57 364.205 2117.24 364.205 Q2116.58 364.205 2115.18 364.158 Q2113.77 364.111 2113.07 364.111 L2109.09 364.064 L2105.01 364.111 Q2104.38 364.111 2103.05 364.158 Q2101.71 364.205 2101.08 364.205 Q2100.26 364.205 2100.26 363.619 Q2100.26 362.963 2100.56 362.846 Q2100.89 362.729 2102.27 362.729 Q2104.22 362.729 2105.27 362.635 Q2106.33 362.542 2106.89 362.214 Q2107.47 361.886 2107.64 361.558 Q2107.8 361.206 2107.99 360.41 L2114.43 334.809 Q2114.62 334.247 2114.62 333.802 Q2114.62 333.568 2114.55 333.474 Q2114.5 333.381 2114.2 333.31 Q2113.89 333.217 2113.26 333.217 L2111.38 333.217 Q2109.46 333.217 2108.27 333.31 Q2107.1 333.381 2105.97 333.732 Q2104.87 334.083 2104.22 334.575 Q2103.59 335.067 2102.88 336.074 Q2102.18 337.081 2101.66 338.299 Q2101.17 339.517 2100.47 341.508 Q2100.24 342.164 2100.1 342.351 Q2099.98 342.515 2099.65 342.515 Q2099.42 342.515 2099.23 342.375 Q2099.06 342.211 2099.06 342 Q2099.3 341.227 2099.35 341.133 L2102.23 332.678 Q2102.46 331.999 2102.67 331.882 Q2102.91 331.741 2103.77 331.741 L2130.38 331.741 Q2130.8 331.741 2130.94 331.741 Q2131.08 331.741 2131.32 331.788 Q2131.55 331.835 2131.62 331.952 Q2131.69 332.069 2131.69 332.256 Z" fill="#000000" fill-rule="evenodd" fill-opacity="1" /><path clip-path="url(#clip630)" d="M2140.11 356.92 Q2140.16 356.335 2141.07 356.335 L2170.46 356.335 Q2171.85 356.335 2171.87 356.873 Q2171.87 357.459 2170.56 357.435 L2141.4 357.435 Q2140.11 357.459 2140.11 356.92 M2140.11 347.551 Q2140.11 346.966 2141.12 346.989 L2170.42 346.989 Q2171.85 346.989 2171.87 347.551 Q2171.87 348.09 2170.65 348.09 L2141.07 348.09 Q2140.11 348.09 2140.11 347.551 Z" fill="#000000" fill-rule="evenodd" fill-opacity="1" /><path clip-path="url(#clip630)" d="M2232.9 353.852 Q2232.9 356.709 2231.77 359.192 Q2230.67 361.651 2228.52 363.197 Q2226.38 364.743 2223.69 364.743 Q2219.52 364.743 2215.54 361.417 Q2214.74 360.738 2214.18 360.106 Q2213.62 359.473 2211.23 356.569 Q2210.83 357.248 2210.41 357.88 Q2209.99 358.489 2208.79 359.871 Q2207.6 361.253 2206.36 362.214 Q2205.14 363.174 2203.24 363.97 Q2201.37 364.743 2199.42 364.743 Q2197.36 364.743 2195.61 363.806 Q2193.87 362.846 2192.73 361.324 Q2191.6 359.778 2190.97 357.857 Q2190.36 355.913 2190.36 353.899 Q2190.36 351.041 2191.46 348.582 Q2192.59 346.099 2194.72 344.553 Q2196.87 343.007 2199.57 343.007 Q2203.76 343.007 2207.72 346.31 Q2208.51 346.989 2209.07 347.621 Q2209.64 348.254 2212.03 351.158 Q2212.33 350.643 2212.66 350.174 Q2212.99 349.683 2213.81 348.605 Q2214.63 347.528 2215.59 346.661 Q2216.57 345.794 2217.81 344.904 Q2219.05 344.014 2220.62 343.522 Q2222.19 343.007 2223.83 343.007 Q2225.89 343.007 2227.63 343.968 Q2229.38 344.904 2230.51 346.45 Q2231.65 347.973 2232.26 349.917 Q2232.9 351.837 2232.9 353.852 M2231.84 353.852 Q2231.84 352.189 2231.35 350.573 Q2230.86 348.957 2229.92 347.598 Q2229.01 346.216 2227.51 345.373 Q2226.01 344.53 2224.18 344.53 Q2222.26 344.53 2220.48 345.349 Q2218.72 346.146 2217.34 347.504 Q2215.98 348.863 2215.05 350.128 Q2214.11 351.392 2213.29 352.845 Q2213.71 353.36 2215.52 355.749 Q2217.34 358.138 2218.12 358.981 Q2221.28 362.424 2224.46 362.424 Q2227.51 362.424 2229.66 359.942 Q2231.84 357.435 2231.84 353.852 M2209.96 354.906 Q2209.57 354.414 2207.72 352.025 Q2205.89 349.612 2205.12 348.769 Q2201.93 345.303 2198.79 345.303 Q2195.75 345.303 2193.57 347.809 Q2191.41 350.315 2191.41 353.899 Q2191.41 355.562 2191.91 357.178 Q2192.4 358.794 2193.31 360.152 Q2194.25 361.511 2195.75 362.354 Q2197.25 363.197 2199.07 363.197 Q2200.62 363.197 2202.09 362.635 Q2203.59 362.073 2204.72 361.23 Q2205.84 360.387 2206.9 359.216 Q2207.95 358.044 2208.63 357.037 Q2209.33 356.03 2209.96 354.906 Z" fill="#000000" fill-rule="evenodd" fill-opacity="1" /><path clip-path="url(#clip630)" d="M2238.05 375.728 Q2238.05 375.494 2238.66 374.909 Q2246.39 367.039 2246.39 352.212 Q2246.39 337.339 2238.97 329.82 Q2238.05 328.954 2238.05 328.696 Q2238.05 328.228 2238.52 328.228 Q2238.85 328.228 2240 329.188 Q2241.17 330.148 2242.92 332.35 Q2244.7 334.552 2246.02 337.245 Q2249.18 343.78 2249.18 352.212 Q2249.18 360.316 2246.16 366.851 Q2244.87 369.592 2243.06 371.887 Q2241.26 374.182 2240.07 375.19 Q2238.87 376.197 2238.52 376.197 Q2238.05 376.197 2238.05 375.728 Z" fill="#000000" fill-rule="evenodd" fill-opacity="1" /><polyline clip-path="url(#clip630)" style="stroke:#c271d2; stroke-linecap:round; stroke-linejoin:round; stroke-width:4; stroke-opacity:1; fill:none" points="1837.17,407.416 1981.6,407.416 "/>
<path clip-path="url(#clip630)" d="M2028.32 399.589 Q2028.32 403.056 2026.54 406.311 Q2024.78 409.567 2022.02 411.534 Q2019.28 413.502 2016.52 413.502 Q2013.4 413.502 2011.78 410.27 Q2008.86 422.004 2008.69 422.309 Q2008.01 423.316 2007.03 423.316 Q2006.42 423.316 2006.05 422.941 Q2005.67 422.59 2005.67 422.028 Q2005.7 421.84 2005.84 421.255 L2010.52 402.4 Q2011.6 398.02 2014.85 394.905 Q2018.13 391.766 2021.65 391.766 Q2024.43 391.766 2026.38 393.851 Q2028.32 395.935 2028.32 399.589 M2024.88 397.528 Q2024.88 395.186 2023.94 394.014 Q2023 392.82 2021.55 392.82 Q2020.22 392.82 2018.6 393.897 Q2017.01 394.975 2015.6 397.364 Q2014.85 398.746 2014.31 400.456 Q2013.78 402.165 2012.72 406.382 Q2012.35 408.068 2012.35 408.162 Q2012.35 408.349 2012.44 408.771 Q2012.56 409.192 2012.84 409.848 Q2013.14 410.48 2013.56 411.043 Q2013.99 411.605 2014.76 412.026 Q2015.53 412.425 2016.47 412.425 Q2017.92 412.425 2019.47 411.253 Q2021.04 410.059 2022.18 407.881 Q2023.14 406.124 2024.01 402.821 Q2024.88 399.495 2024.88 397.528 Z" fill="#000000" fill-rule="evenodd" fill-opacity="1" /><path clip-path="url(#clip630)" d="M2056.25 436.821 Q2056.25 437.133 2056.12 437.296 Q2056 437.444 2055.89 437.477 Q2055.79 437.493 2055.64 437.493 Q2055.22 437.493 2053.74 437.444 Q2052.27 437.395 2051.84 437.395 Q2051.15 437.395 2049.74 437.444 Q2048.33 437.493 2047.64 437.493 Q2047.18 437.493 2047.18 437.116 Q2047.18 436.87 2047.23 436.739 Q2047.28 436.591 2047.41 436.542 Q2047.56 436.477 2047.64 436.477 Q2047.74 436.46 2047.99 436.46 Q2048.31 436.46 2048.66 436.427 Q2049 436.378 2049.43 436.28 Q2049.86 436.182 2050.12 435.936 Q2050.4 435.69 2050.4 435.345 Q2050.4 435.198 2050.28 433.985 Q2050.17 432.771 2050.02 431.361 Q2049.87 429.935 2049.86 429.738 L2041.43 429.738 Q2040.66 431.066 2040.12 431.984 Q2039.58 432.902 2039.38 433.214 Q2039.18 433.525 2039.07 433.722 Q2038.95 433.919 2038.89 434.034 Q2038.41 434.903 2038.41 435.28 Q2038.41 436.329 2039.98 436.46 Q2040.53 436.46 2040.53 436.854 Q2040.53 437.149 2040.39 437.313 Q2040.26 437.46 2040.15 437.477 Q2040.05 437.493 2039.89 437.493 Q2039.35 437.493 2038.21 437.444 Q2037.08 437.395 2036.53 437.395 Q2036.05 437.395 2035.07 437.444 Q2034.08 437.493 2033.64 437.493 Q2033.44 437.493 2033.33 437.378 Q2033.21 437.264 2033.21 437.116 Q2033.21 436.887 2033.25 436.755 Q2033.3 436.624 2033.43 436.559 Q2033.56 436.493 2033.62 436.493 Q2033.69 436.477 2033.92 436.46 Q2035.16 436.378 2036.13 435.788 Q2037.12 435.181 2038.05 433.624 L2049.72 414.015 Q2049.84 413.818 2049.92 413.719 Q2050 413.621 2050.17 413.539 Q2050.35 413.457 2050.61 413.457 Q2051.02 413.457 2051.1 413.588 Q2051.18 413.703 2051.23 414.26 L2053.28 435.247 Q2053.33 435.69 2053.36 435.87 Q2053.41 436.034 2053.63 436.214 Q2053.86 436.378 2054.27 436.427 Q2054.69 436.46 2055.48 436.46 Q2055.77 436.46 2055.89 436.477 Q2056 436.477 2056.12 436.559 Q2056.25 436.641 2056.25 436.821 M2049.76 428.689 L2048.69 417.622 L2042.07 428.689 L2049.76 428.689 Z" fill="#000000" fill-rule="evenodd" fill-opacity="1" /><path clip-path="url(#clip630)" d="M2061.14 400.971 Q2061.14 392.867 2064.16 386.332 Q2065.45 383.591 2067.25 381.296 Q2069.05 379.001 2070.25 377.994 Q2071.44 376.986 2071.77 376.986 Q2072.24 376.986 2072.26 377.455 Q2072.26 377.689 2071.63 378.275 Q2063.9 386.145 2063.93 400.971 Q2063.93 415.844 2071.44 423.41 Q2072.26 424.229 2072.26 424.487 Q2072.26 424.956 2071.77 424.956 Q2071.44 424.956 2070.3 423.995 Q2069.15 423.035 2067.37 420.833 Q2065.59 418.631 2064.3 415.938 Q2061.14 409.403 2061.14 400.971 Z" fill="#000000" fill-rule="evenodd" fill-opacity="1" /><path clip-path="url(#clip630)" d="M2098.39 394.787 Q2098.39 396.122 2097.57 396.919 Q2096.77 397.715 2095.76 397.715 Q2094.87 397.715 2094.4 397.2 Q2093.94 396.685 2093.94 396.029 Q2093.94 395.748 2094.05 395.396 Q2094.17 395.022 2094.43 394.577 Q2094.71 394.132 2095.29 393.804 Q2095.88 393.476 2096.68 393.429 Q2096.51 393.265 2096.47 393.242 Q2096.11 392.96 2095.46 392.867 Q2095.36 392.82 2095.04 392.82 Q2093.42 392.82 2091.78 394.014 Q2090.17 395.186 2088.17 397.411 Q2085.67 400.011 2084.05 400.971 Q2091.15 401.908 2091.15 406.007 Q2091.15 406.686 2090.96 407.506 Q2090.59 409.052 2090.59 410.176 Q2090.59 412.425 2092.11 412.425 Q2093.58 412.425 2094.52 410.925 Q2095.48 409.426 2096.28 406.499 Q2096.4 405.96 2096.51 405.796 Q2096.63 405.632 2096.96 405.632 Q2097.54 405.632 2097.54 406.1 Q2097 408.841 2095.81 410.949 Q2094.29 413.502 2092.02 413.502 Q2090.12 413.502 2088.85 412.19 Q2087.61 410.855 2087.61 408.747 Q2087.61 408.232 2087.8 407.061 Q2087.94 406.592 2087.94 406.054 Q2087.94 404.953 2087.33 404.133 Q2086.72 403.29 2085.74 402.868 Q2084.75 402.447 2083.93 402.259 Q2083.14 402.048 2082.37 401.978 Q2080.02 411.886 2079.7 412.495 Q2079.48 412.916 2079.02 413.197 Q2078.55 413.502 2078.06 413.502 Q2077.59 413.502 2077.12 413.174 Q2076.67 412.87 2076.67 412.143 Q2076.67 411.769 2076.86 411.089 L2083.82 383.451 L2083.96 382.514 Q2083.96 382.233 2083.84 382.092 Q2083.75 381.928 2083.19 381.811 Q2082.65 381.694 2081.57 381.694 Q2081.12 381.694 2080.91 381.671 Q2080.73 381.647 2080.56 381.53 Q2080.4 381.39 2080.4 381.109 Q2080.4 380.711 2080.56 380.5 Q2080.75 380.265 2080.89 380.219 Q2081.03 380.172 2081.31 380.148 Q2081.71 380.125 2083.04 380.008 Q2084.38 379.867 2085.53 379.774 Q2086.68 379.68 2087.17 379.68 Q2087.45 379.68 2087.59 379.82 Q2087.75 379.938 2087.78 380.078 L2087.8 380.195 L2082.81 400.432 Q2084.87 399.612 2088.13 395.982 Q2091.9 391.766 2095.13 391.766 Q2096.65 391.766 2097.52 392.703 Q2098.39 393.616 2098.39 394.787 Z" fill="#000000" fill-rule="evenodd" fill-opacity="1" /><path clip-path="url(#clip630)" d="M2114.73 405.679 Q2114.77 405.093 2115.69 405.093 L2145.08 405.093 Q2146.46 405.093 2146.49 405.632 Q2146.49 406.218 2145.17 406.194 L2116.01 406.194 Q2114.73 406.218 2114.73 405.679 M2114.73 396.31 Q2114.73 395.724 2115.73 395.748 L2145.03 395.748 Q2146.46 395.748 2146.49 396.31 Q2146.49 396.849 2145.27 396.849 L2115.69 396.849 Q2114.73 396.849 2114.73 396.31 Z" fill="#000000" fill-rule="evenodd" fill-opacity="1" /><path clip-path="url(#clip630)" d="M2164.98 397.622 Q2164.98 390.571 2166.76 386.73 Q2169.24 381.015 2175.1 381.015 Q2176.34 381.015 2177.63 381.366 Q2178.94 381.694 2180.58 382.982 Q2182.24 384.271 2183.25 386.379 Q2185.17 390.454 2185.17 397.622 Q2185.17 404.625 2183.39 408.443 Q2180.79 414.017 2175.05 414.017 Q2172.89 414.017 2170.69 412.916 Q2168.51 411.816 2167.13 409.169 Q2164.98 405.21 2164.98 397.622 M2168.96 397.036 Q2168.96 404.273 2169.47 407.154 Q2170.06 410.27 2171.65 411.628 Q2173.27 412.963 2175.05 412.963 Q2176.97 412.963 2178.56 411.534 Q2180.18 410.082 2180.67 406.967 Q2181.21 403.899 2181.19 397.036 Q2181.19 390.361 2180.72 387.69 Q2180.08 384.575 2178.4 383.334 Q2176.74 382.069 2175.05 382.069 Q2174.42 382.069 2173.74 382.256 Q2173.08 382.444 2172.12 382.982 Q2171.16 383.521 2170.41 384.856 Q2169.69 386.191 2169.33 388.206 Q2168.96 390.806 2168.96 397.036 Z" fill="#000000" fill-rule="evenodd" fill-opacity="1" /><path clip-path="url(#clip630)" d="M2189.88 424.487 Q2189.88 424.253 2190.49 423.667 Q2198.22 415.797 2198.22 400.971 Q2198.22 386.098 2190.79 378.579 Q2189.88 377.712 2189.88 377.455 Q2189.88 376.986 2190.35 376.986 Q2190.68 376.986 2191.82 377.947 Q2192.99 378.907 2194.75 381.109 Q2196.53 383.31 2197.84 386.004 Q2201.01 392.539 2201.01 400.971 Q2201.01 409.075 2197.98 415.61 Q2196.7 418.35 2194.89 420.646 Q2193.09 422.941 2191.89 423.948 Q2190.7 424.956 2190.35 424.956 Q2189.88 424.956 2189.88 424.487 Z" fill="#000000" fill-rule="evenodd" fill-opacity="1" /></svg>
