<?xml version="1.0" encoding="utf-8"?>
<svg xmlns="http://www.w3.org/2000/svg" xmlns:xlink="http://www.w3.org/1999/xlink" width="600" height="400" viewBox="0 0 2400 1600">
<defs>
  <clipPath id="clip310">
    <rect x="0" y="0" width="2400" height="1600"/>
  </clipPath>
</defs>
<path clip-path="url(#clip310)" d="M0 1600 L2400 1600 L2400 0 L0 0  Z" fill="#ffffff" fill-rule="evenodd" fill-opacity="1"/>
<defs>
  <clipPath id="clip311">
    <rect x="480" y="0" width="1681" height="1600"/>
  </clipPath>
</defs>
<path clip-path="url(#clip310)" d="M219.866 1423.18 L2352.76 1423.18 L2352.76 47.2441 L219.866 47.2441  Z" fill="#ffffff" fill-rule="evenodd" fill-opacity="1"/>
<defs>
  <clipPath id="clip312">
    <rect x="219" y="47" width="2134" height="1377"/>
  </clipPath>
</defs>
<polyline clip-path="url(#clip312)" style="stroke:#000000; stroke-linecap:round; stroke-linejoin:round; stroke-width:2; stroke-opacity:0.1; fill:none" points="415.991,1423.18 415.991,47.2441 "/>
<polyline clip-path="url(#clip312)" style="stroke:#000000; stroke-linecap:round; stroke-linejoin:round; stroke-width:2; stroke-opacity:0.1; fill:none" points="871.17,1423.18 871.17,47.2441 "/>
<polyline clip-path="url(#clip312)" style="stroke:#000000; stroke-linecap:round; stroke-linejoin:round; stroke-width:2; stroke-opacity:0.1; fill:none" points="1326.35,1423.18 1326.35,47.2441 "/>
<polyline clip-path="url(#clip312)" style="stroke:#000000; stroke-linecap:round; stroke-linejoin:round; stroke-width:2; stroke-opacity:0.1; fill:none" points="1781.53,1423.18 1781.53,47.2441 "/>
<polyline clip-path="url(#clip312)" style="stroke:#000000; stroke-linecap:round; stroke-linejoin:round; stroke-width:2; stroke-opacity:0.1; fill:none" points="2236.71,1423.18 2236.71,47.2441 "/>
<polyline clip-path="url(#clip310)" style="stroke:#000000; stroke-linecap:round; stroke-linejoin:round; stroke-width:4; stroke-opacity:1; fill:none" points="219.866,1423.18 2352.76,1423.18 "/>
<polyline clip-path="url(#clip310)" style="stroke:#000000; stroke-linecap:round; stroke-linejoin:round; stroke-width:4; stroke-opacity:1; fill:none" points="415.991,1423.18 415.991,1404.28 "/>
<polyline clip-path="url(#clip310)" style="stroke:#000000; stroke-linecap:round; stroke-linejoin:round; stroke-width:4; stroke-opacity:1; fill:none" points="871.17,1423.18 871.17,1404.28 "/>
<polyline clip-path="url(#clip310)" style="stroke:#000000; stroke-linecap:round; stroke-linejoin:round; stroke-width:4; stroke-opacity:1; fill:none" points="1326.35,1423.18 1326.35,1404.28 "/>
<polyline clip-path="url(#clip310)" style="stroke:#000000; stroke-linecap:round; stroke-linejoin:round; stroke-width:4; stroke-opacity:1; fill:none" points="1781.53,1423.18 1781.53,1404.28 "/>
<polyline clip-path="url(#clip310)" style="stroke:#000000; stroke-linecap:round; stroke-linejoin:round; stroke-width:4; stroke-opacity:1; fill:none" points="2236.71,1423.18 2236.71,1404.28 "/>
<path clip-path="url(#clip310)" d="M378.294 1454.1 Q374.683 1454.1 372.854 1457.66 Q371.049 1461.2 371.049 1468.33 Q371.049 1475.44 372.854 1479.01 Q374.683 1482.55 378.294 1482.55 Q381.928 1482.55 383.734 1479.01 Q385.563 1475.44 385.563 1468.33 Q385.563 1461.2 383.734 1457.66 Q381.928 1454.1 378.294 1454.1 M378.294 1450.39 Q384.104 1450.39 387.16 1455 Q390.239 1459.58 390.239 1468.33 Q390.239 1477.06 387.16 1481.67 Q384.104 1486.25 378.294 1486.25 Q372.484 1486.25 369.405 1481.67 Q366.35 1477.06 366.35 1468.33 Q366.35 1459.58 369.405 1455 Q372.484 1450.39 378.294 1450.39 Z" fill="#000000" fill-rule="evenodd" fill-opacity="1" /><path clip-path="url(#clip310)" d="M398.456 1479.7 L403.34 1479.7 L403.34 1485.58 L398.456 1485.58 L398.456 1479.7 Z" fill="#000000" fill-rule="evenodd" fill-opacity="1" /><path clip-path="url(#clip310)" d="M423.525 1454.1 Q419.914 1454.1 418.086 1457.66 Q416.28 1461.2 416.28 1468.33 Q416.28 1475.44 418.086 1479.01 Q419.914 1482.55 423.525 1482.55 Q427.16 1482.55 428.965 1479.01 Q430.794 1475.44 430.794 1468.33 Q430.794 1461.2 428.965 1457.66 Q427.16 1454.1 423.525 1454.1 M423.525 1450.39 Q429.336 1450.39 432.391 1455 Q435.47 1459.58 435.47 1468.33 Q435.47 1477.06 432.391 1481.67 Q429.336 1486.25 423.525 1486.25 Q417.715 1486.25 414.637 1481.67 Q411.581 1477.06 411.581 1468.33 Q411.581 1459.58 414.637 1455 Q417.715 1450.39 423.525 1450.39 Z" fill="#000000" fill-rule="evenodd" fill-opacity="1" /><path clip-path="url(#clip310)" d="M453.687 1454.1 Q450.076 1454.1 448.248 1457.66 Q446.442 1461.2 446.442 1468.33 Q446.442 1475.44 448.248 1479.01 Q450.076 1482.55 453.687 1482.55 Q457.322 1482.55 459.127 1479.01 Q460.956 1475.44 460.956 1468.33 Q460.956 1461.2 459.127 1457.66 Q457.322 1454.1 453.687 1454.1 M453.687 1450.39 Q459.498 1450.39 462.553 1455 Q465.632 1459.58 465.632 1468.33 Q465.632 1477.06 462.553 1481.67 Q459.498 1486.25 453.687 1486.25 Q447.877 1486.25 444.799 1481.67 Q441.743 1477.06 441.743 1468.33 Q441.743 1459.58 444.799 1455 Q447.877 1450.39 453.687 1450.39 Z" fill="#000000" fill-rule="evenodd" fill-opacity="1" /><path clip-path="url(#clip310)" d="M833.971 1454.1 Q830.36 1454.1 828.532 1457.66 Q826.726 1461.2 826.726 1468.33 Q826.726 1475.44 828.532 1479.01 Q830.36 1482.55 833.971 1482.55 Q837.606 1482.55 839.411 1479.01 Q841.24 1475.44 841.24 1468.33 Q841.24 1461.2 839.411 1457.66 Q837.606 1454.1 833.971 1454.1 M833.971 1450.39 Q839.781 1450.39 842.837 1455 Q845.916 1459.58 845.916 1468.33 Q845.916 1477.06 842.837 1481.67 Q839.781 1486.25 833.971 1486.25 Q828.161 1486.25 825.082 1481.67 Q822.027 1477.06 822.027 1468.33 Q822.027 1459.58 825.082 1455 Q828.161 1450.39 833.971 1450.39 Z" fill="#000000" fill-rule="evenodd" fill-opacity="1" /><path clip-path="url(#clip310)" d="M854.133 1479.7 L859.017 1479.7 L859.017 1485.58 L854.133 1485.58 L854.133 1479.7 Z" fill="#000000" fill-rule="evenodd" fill-opacity="1" /><path clip-path="url(#clip310)" d="M873.23 1481.64 L889.55 1481.64 L889.55 1485.58 L867.605 1485.58 L867.605 1481.64 Q870.267 1478.89 874.851 1474.26 Q879.457 1469.61 880.638 1468.27 Q882.883 1465.74 883.763 1464.01 Q884.665 1462.25 884.665 1460.56 Q884.665 1457.8 882.721 1456.07 Q880.8 1454.33 877.698 1454.33 Q875.499 1454.33 873.045 1455.09 Q870.615 1455.86 867.837 1457.41 L867.837 1452.69 Q870.661 1451.55 873.115 1450.97 Q875.568 1450.39 877.605 1450.39 Q882.976 1450.39 886.17 1453.08 Q889.365 1455.77 889.365 1460.26 Q889.365 1462.39 888.554 1464.31 Q887.767 1466.2 885.661 1468.8 Q885.082 1469.47 881.98 1472.69 Q878.878 1475.88 873.23 1481.64 Z" fill="#000000" fill-rule="evenodd" fill-opacity="1" /><path clip-path="url(#clip310)" d="M899.411 1451.02 L917.767 1451.02 L917.767 1454.96 L903.693 1454.96 L903.693 1463.43 Q904.712 1463.08 905.73 1462.92 Q906.749 1462.73 907.767 1462.73 Q913.554 1462.73 916.934 1465.9 Q920.313 1469.08 920.313 1474.49 Q920.313 1480.07 916.841 1483.17 Q913.369 1486.25 907.05 1486.25 Q904.874 1486.25 902.605 1485.88 Q900.36 1485.51 897.952 1484.77 L897.952 1480.07 Q900.036 1481.2 902.258 1481.76 Q904.48 1482.32 906.957 1482.32 Q910.962 1482.32 913.3 1480.21 Q915.638 1478.1 915.638 1474.49 Q915.638 1470.88 913.3 1468.77 Q910.962 1466.67 906.957 1466.67 Q905.082 1466.67 903.207 1467.08 Q901.355 1467.5 899.411 1468.38 L899.411 1451.02 Z" fill="#000000" fill-rule="evenodd" fill-opacity="1" /><path clip-path="url(#clip310)" d="M1288.65 1454.1 Q1285.04 1454.1 1283.21 1457.66 Q1281.41 1461.2 1281.41 1468.33 Q1281.41 1475.44 1283.21 1479.01 Q1285.04 1482.55 1288.65 1482.55 Q1292.29 1482.55 1294.09 1479.01 Q1295.92 1475.44 1295.92 1468.33 Q1295.92 1461.2 1294.09 1457.66 Q1292.29 1454.1 1288.65 1454.1 M1288.65 1450.39 Q1294.46 1450.39 1297.52 1455 Q1300.6 1459.58 1300.6 1468.33 Q1300.6 1477.06 1297.52 1481.67 Q1294.46 1486.25 1288.65 1486.25 Q1282.84 1486.25 1279.76 1481.67 Q1276.71 1477.06 1276.71 1468.33 Q1276.71 1459.58 1279.76 1455 Q1282.84 1450.39 1288.65 1450.39 Z" fill="#000000" fill-rule="evenodd" fill-opacity="1" /><path clip-path="url(#clip310)" d="M1308.81 1479.7 L1313.7 1479.7 L1313.7 1485.58 L1308.81 1485.58 L1308.81 1479.7 Z" fill="#000000" fill-rule="evenodd" fill-opacity="1" /><path clip-path="url(#clip310)" d="M1323.93 1451.02 L1342.29 1451.02 L1342.29 1454.96 L1328.21 1454.96 L1328.21 1463.43 Q1329.23 1463.08 1330.25 1462.92 Q1331.27 1462.73 1332.29 1462.73 Q1338.07 1462.73 1341.45 1465.9 Q1344.83 1469.08 1344.83 1474.49 Q1344.83 1480.07 1341.36 1483.17 Q1337.89 1486.25 1331.57 1486.25 Q1329.39 1486.25 1327.13 1485.88 Q1324.88 1485.51 1322.47 1484.77 L1322.47 1480.07 Q1324.56 1481.2 1326.78 1481.76 Q1329 1482.32 1331.48 1482.32 Q1335.48 1482.32 1337.82 1480.21 Q1340.16 1478.1 1340.16 1474.49 Q1340.16 1470.88 1337.82 1468.77 Q1335.48 1466.67 1331.48 1466.67 Q1329.6 1466.67 1327.73 1467.08 Q1325.88 1467.5 1323.93 1468.38 L1323.93 1451.02 Z" fill="#000000" fill-rule="evenodd" fill-opacity="1" /><path clip-path="url(#clip310)" d="M1364.05 1454.1 Q1360.44 1454.1 1358.61 1457.66 Q1356.8 1461.2 1356.8 1468.33 Q1356.8 1475.44 1358.61 1479.01 Q1360.44 1482.55 1364.05 1482.55 Q1367.68 1482.55 1369.49 1479.01 Q1371.31 1475.44 1371.31 1468.33 Q1371.31 1461.2 1369.49 1457.66 Q1367.68 1454.1 1364.05 1454.1 M1364.05 1450.39 Q1369.86 1450.39 1372.91 1455 Q1375.99 1459.58 1375.99 1468.33 Q1375.99 1477.06 1372.91 1481.67 Q1369.86 1486.25 1364.05 1486.25 Q1358.24 1486.25 1355.16 1481.67 Q1352.1 1477.06 1352.1 1468.33 Q1352.1 1459.58 1355.16 1455 Q1358.24 1450.39 1364.05 1450.39 Z" fill="#000000" fill-rule="evenodd" fill-opacity="1" /><path clip-path="url(#clip310)" d="M1744.33 1454.1 Q1740.72 1454.1 1738.89 1457.66 Q1737.08 1461.2 1737.08 1468.33 Q1737.08 1475.44 1738.89 1479.01 Q1740.72 1482.55 1744.33 1482.55 Q1747.96 1482.55 1749.77 1479.01 Q1751.6 1475.44 1751.6 1468.33 Q1751.6 1461.2 1749.77 1457.66 Q1747.96 1454.1 1744.33 1454.1 M1744.33 1450.39 Q1750.14 1450.39 1753.2 1455 Q1756.27 1459.58 1756.27 1468.33 Q1756.27 1477.06 1753.2 1481.67 Q1750.14 1486.25 1744.33 1486.25 Q1738.52 1486.25 1735.44 1481.67 Q1732.39 1477.06 1732.39 1468.33 Q1732.39 1459.58 1735.44 1455 Q1738.52 1450.39 1744.33 1450.39 Z" fill="#000000" fill-rule="evenodd" fill-opacity="1" /><path clip-path="url(#clip310)" d="M1764.49 1479.7 L1769.38 1479.7 L1769.38 1485.58 L1764.49 1485.58 L1764.49 1479.7 Z" fill="#000000" fill-rule="evenodd" fill-opacity="1" /><path clip-path="url(#clip310)" d="M1778.38 1451.02 L1800.6 1451.02 L1800.6 1453.01 L1788.06 1485.58 L1783.17 1485.58 L1794.98 1454.96 L1778.38 1454.96 L1778.38 1451.02 Z" fill="#000000" fill-rule="evenodd" fill-opacity="1" /><path clip-path="url(#clip310)" d="M1809.77 1451.02 L1828.13 1451.02 L1828.13 1454.96 L1814.05 1454.96 L1814.05 1463.43 Q1815.07 1463.08 1816.09 1462.92 Q1817.11 1462.73 1818.13 1462.73 Q1823.91 1462.73 1827.29 1465.9 Q1830.67 1469.08 1830.67 1474.49 Q1830.67 1480.07 1827.2 1483.17 Q1823.73 1486.25 1817.41 1486.25 Q1815.23 1486.25 1812.96 1485.88 Q1810.72 1485.51 1808.31 1484.77 L1808.31 1480.07 Q1810.39 1481.2 1812.62 1481.76 Q1814.84 1482.32 1817.32 1482.32 Q1821.32 1482.32 1823.66 1480.21 Q1826 1478.1 1826 1474.49 Q1826 1470.88 1823.66 1468.77 Q1821.32 1466.67 1817.32 1466.67 Q1815.44 1466.67 1813.57 1467.08 Q1811.71 1467.5 1809.77 1468.38 L1809.77 1451.02 Z" fill="#000000" fill-rule="evenodd" fill-opacity="1" /><path clip-path="url(#clip310)" d="M2188.78 1481.64 L2196.42 1481.64 L2196.42 1455.28 L2188.11 1456.95 L2188.11 1452.69 L2196.37 1451.02 L2201.05 1451.02 L2201.05 1481.64 L2208.69 1481.64 L2208.69 1485.58 L2188.78 1485.58 L2188.78 1481.64 Z" fill="#000000" fill-rule="evenodd" fill-opacity="1" /><path clip-path="url(#clip310)" d="M2218.13 1479.7 L2223.02 1479.7 L2223.02 1485.58 L2218.13 1485.58 L2218.13 1479.7 Z" fill="#000000" fill-rule="evenodd" fill-opacity="1" /><path clip-path="url(#clip310)" d="M2243.2 1454.1 Q2239.59 1454.1 2237.76 1457.66 Q2235.96 1461.2 2235.96 1468.33 Q2235.96 1475.44 2237.76 1479.01 Q2239.59 1482.55 2243.2 1482.55 Q2246.84 1482.55 2248.64 1479.01 Q2250.47 1475.44 2250.47 1468.33 Q2250.47 1461.2 2248.64 1457.66 Q2246.84 1454.1 2243.2 1454.1 M2243.2 1450.39 Q2249.01 1450.39 2252.07 1455 Q2255.15 1459.58 2255.15 1468.33 Q2255.15 1477.06 2252.07 1481.67 Q2249.01 1486.25 2243.2 1486.25 Q2237.39 1486.25 2234.31 1481.67 Q2231.26 1477.06 2231.26 1468.33 Q2231.26 1459.58 2234.31 1455 Q2237.39 1450.39 2243.2 1450.39 Z" fill="#000000" fill-rule="evenodd" fill-opacity="1" /><path clip-path="url(#clip310)" d="M2273.36 1454.1 Q2269.75 1454.1 2267.92 1457.66 Q2266.12 1461.2 2266.12 1468.33 Q2266.12 1475.44 2267.92 1479.01 Q2269.75 1482.55 2273.36 1482.55 Q2277 1482.55 2278.8 1479.01 Q2280.63 1475.44 2280.63 1468.33 Q2280.63 1461.2 2278.8 1457.66 Q2277 1454.1 2273.36 1454.1 M2273.36 1450.39 Q2279.17 1450.39 2282.23 1455 Q2285.31 1459.58 2285.31 1468.33 Q2285.31 1477.06 2282.23 1481.67 Q2279.17 1486.25 2273.36 1486.25 Q2267.55 1486.25 2264.47 1481.67 Q2261.42 1477.06 2261.42 1468.33 Q2261.42 1459.58 2264.47 1455 Q2267.55 1450.39 2273.36 1450.39 Z" fill="#000000" fill-rule="evenodd" fill-opacity="1" /><path clip-path="url(#clip310)" d="M1271 1520.52 L1301.05 1520.52 L1301.05 1525.93 L1277.43 1525.93 L1277.43 1540 L1300.06 1540 L1300.06 1545.41 L1277.43 1545.41 L1277.43 1562.63 L1301.62 1562.63 L1301.62 1568.04 L1271 1568.04 L1271 1520.52 Z" fill="#000000" fill-rule="evenodd" fill-opacity="1" /><polyline clip-path="url(#clip312)" style="stroke:#000000; stroke-linecap:round; stroke-linejoin:round; stroke-width:2; stroke-opacity:0.1; fill:none" points="219.866,1384.24 2352.76,1384.24 "/>
<polyline clip-path="url(#clip312)" style="stroke:#000000; stroke-linecap:round; stroke-linejoin:round; stroke-width:2; stroke-opacity:0.1; fill:none" points="219.866,1104.44 2352.76,1104.44 "/>
<polyline clip-path="url(#clip312)" style="stroke:#000000; stroke-linecap:round; stroke-linejoin:round; stroke-width:2; stroke-opacity:0.1; fill:none" points="219.866,824.638 2352.76,824.638 "/>
<polyline clip-path="url(#clip312)" style="stroke:#000000; stroke-linecap:round; stroke-linejoin:round; stroke-width:2; stroke-opacity:0.1; fill:none" points="219.866,544.838 2352.76,544.838 "/>
<polyline clip-path="url(#clip312)" style="stroke:#000000; stroke-linecap:round; stroke-linejoin:round; stroke-width:2; stroke-opacity:0.1; fill:none" points="219.866,265.038 2352.76,265.038 "/>
<polyline clip-path="url(#clip310)" style="stroke:#000000; stroke-linecap:round; stroke-linejoin:round; stroke-width:4; stroke-opacity:1; fill:none" points="219.866,1423.18 219.866,47.2441 "/>
<polyline clip-path="url(#clip310)" style="stroke:#000000; stroke-linecap:round; stroke-linejoin:round; stroke-width:4; stroke-opacity:1; fill:none" points="219.866,1384.24 238.764,1384.24 "/>
<polyline clip-path="url(#clip310)" style="stroke:#000000; stroke-linecap:round; stroke-linejoin:round; stroke-width:4; stroke-opacity:1; fill:none" points="219.866,1104.44 238.764,1104.44 "/>
<polyline clip-path="url(#clip310)" style="stroke:#000000; stroke-linecap:round; stroke-linejoin:round; stroke-width:4; stroke-opacity:1; fill:none" points="219.866,824.638 238.764,824.638 "/>
<polyline clip-path="url(#clip310)" style="stroke:#000000; stroke-linecap:round; stroke-linejoin:round; stroke-width:4; stroke-opacity:1; fill:none" points="219.866,544.838 238.764,544.838 "/>
<polyline clip-path="url(#clip310)" style="stroke:#000000; stroke-linecap:round; stroke-linejoin:round; stroke-width:4; stroke-opacity:1; fill:none" points="219.866,265.038 238.764,265.038 "/>
<path clip-path="url(#clip310)" d="M126.691 1370.04 Q123.08 1370.04 121.251 1373.6 Q119.445 1377.14 119.445 1384.27 Q119.445 1391.38 121.251 1394.94 Q123.08 1398.49 126.691 1398.49 Q130.325 1398.49 132.13 1394.94 Q133.959 1391.38 133.959 1384.27 Q133.959 1377.14 132.13 1373.6 Q130.325 1370.04 126.691 1370.04 M126.691 1366.33 Q132.501 1366.33 135.556 1370.94 Q138.635 1375.52 138.635 1384.27 Q138.635 1393 135.556 1397.61 Q132.501 1402.19 126.691 1402.19 Q120.88 1402.19 117.802 1397.61 Q114.746 1393 114.746 1384.27 Q114.746 1375.52 117.802 1370.94 Q120.88 1366.33 126.691 1366.33 Z" fill="#000000" fill-rule="evenodd" fill-opacity="1" /><path clip-path="url(#clip310)" d="M146.853 1395.64 L151.737 1395.64 L151.737 1401.52 L146.853 1401.52 L146.853 1395.64 Z" fill="#000000" fill-rule="evenodd" fill-opacity="1" /><path clip-path="url(#clip310)" d="M171.922 1370.04 Q168.311 1370.04 166.482 1373.6 Q164.677 1377.14 164.677 1384.27 Q164.677 1391.38 166.482 1394.94 Q168.311 1398.49 171.922 1398.49 Q175.556 1398.49 177.362 1394.94 Q179.19 1391.38 179.19 1384.27 Q179.19 1377.14 177.362 1373.6 Q175.556 1370.04 171.922 1370.04 M171.922 1366.33 Q177.732 1366.33 180.788 1370.94 Q183.866 1375.52 183.866 1384.27 Q183.866 1393 180.788 1397.61 Q177.732 1402.19 171.922 1402.19 Q166.112 1402.19 163.033 1397.61 Q159.978 1393 159.978 1384.27 Q159.978 1375.52 163.033 1370.94 Q166.112 1366.33 171.922 1366.33 Z" fill="#000000" fill-rule="evenodd" fill-opacity="1" /><path clip-path="url(#clip310)" d="M128.288 1090.24 Q124.677 1090.24 122.848 1093.8 Q121.043 1097.34 121.043 1104.47 Q121.043 1111.58 122.848 1115.14 Q124.677 1118.69 128.288 1118.69 Q131.922 1118.69 133.728 1115.14 Q135.556 1111.58 135.556 1104.47 Q135.556 1097.34 133.728 1093.8 Q131.922 1090.24 128.288 1090.24 M128.288 1086.53 Q134.098 1086.53 137.154 1091.14 Q140.232 1095.72 140.232 1104.47 Q140.232 1113.2 137.154 1117.81 Q134.098 1122.39 128.288 1122.39 Q122.478 1122.39 119.399 1117.81 Q116.343 1113.2 116.343 1104.47 Q116.343 1095.72 119.399 1091.14 Q122.478 1086.53 128.288 1086.53 Z" fill="#000000" fill-rule="evenodd" fill-opacity="1" /><path clip-path="url(#clip310)" d="M148.45 1115.84 L153.334 1115.84 L153.334 1121.72 L148.45 1121.72 L148.45 1115.84 Z" fill="#000000" fill-rule="evenodd" fill-opacity="1" /><path clip-path="url(#clip310)" d="M167.547 1117.78 L183.866 1117.78 L183.866 1121.72 L161.922 1121.72 L161.922 1117.78 Q164.584 1115.03 169.167 1110.4 Q173.774 1105.75 174.954 1104.4 Q177.2 1101.88 178.079 1100.14 Q178.982 1098.38 178.982 1096.7 Q178.982 1093.94 177.038 1092.2 Q175.116 1090.47 172.014 1090.47 Q169.815 1090.47 167.362 1091.23 Q164.931 1092 162.153 1093.55 L162.153 1088.82 Q164.977 1087.69 167.431 1087.11 Q169.885 1086.53 171.922 1086.53 Q177.292 1086.53 180.487 1089.22 Q183.681 1091.9 183.681 1096.39 Q183.681 1098.52 182.871 1100.45 Q182.084 1102.34 179.977 1104.94 Q179.399 1105.61 176.297 1108.82 Q173.195 1112.02 167.547 1117.78 Z" fill="#000000" fill-rule="evenodd" fill-opacity="1" /><path clip-path="url(#clip310)" d="M126.205 810.437 Q122.593 810.437 120.765 814.002 Q118.959 817.543 118.959 824.673 Q118.959 831.779 120.765 835.344 Q122.593 838.886 126.205 838.886 Q129.839 838.886 131.644 835.344 Q133.473 831.779 133.473 824.673 Q133.473 817.543 131.644 814.002 Q129.839 810.437 126.205 810.437 M126.205 806.733 Q132.015 806.733 135.07 811.339 Q138.149 815.923 138.149 824.673 Q138.149 833.4 135.07 838.006 Q132.015 842.589 126.205 842.589 Q120.394 842.589 117.316 838.006 Q114.26 833.4 114.26 824.673 Q114.26 815.923 117.316 811.339 Q120.394 806.733 126.205 806.733 Z" fill="#000000" fill-rule="evenodd" fill-opacity="1" /><path clip-path="url(#clip310)" d="M146.366 836.038 L151.251 836.038 L151.251 841.918 L146.366 841.918 L146.366 836.038 Z" fill="#000000" fill-rule="evenodd" fill-opacity="1" /><path clip-path="url(#clip310)" d="M174.283 811.432 L162.477 829.881 L174.283 829.881 L174.283 811.432 M173.056 807.358 L178.936 807.358 L178.936 829.881 L183.866 829.881 L183.866 833.77 L178.936 833.77 L178.936 841.918 L174.283 841.918 L174.283 833.77 L158.681 833.77 L158.681 829.256 L173.056 807.358 Z" fill="#000000" fill-rule="evenodd" fill-opacity="1" /><path clip-path="url(#clip310)" d="M126.529 530.637 Q122.918 530.637 121.089 534.201 Q119.283 537.743 119.283 544.873 Q119.283 551.979 121.089 555.544 Q122.918 559.086 126.529 559.086 Q130.163 559.086 131.968 555.544 Q133.797 551.979 133.797 544.873 Q133.797 537.743 131.968 534.201 Q130.163 530.637 126.529 530.637 M126.529 526.933 Q132.339 526.933 135.394 531.539 Q138.473 536.123 138.473 544.873 Q138.473 553.599 135.394 558.206 Q132.339 562.789 126.529 562.789 Q120.718 562.789 117.64 558.206 Q114.584 553.599 114.584 544.873 Q114.584 536.123 117.64 531.539 Q120.718 526.933 126.529 526.933 Z" fill="#000000" fill-rule="evenodd" fill-opacity="1" /><path clip-path="url(#clip310)" d="M146.691 556.238 L151.575 556.238 L151.575 562.118 L146.691 562.118 L146.691 556.238 Z" fill="#000000" fill-rule="evenodd" fill-opacity="1" /><path clip-path="url(#clip310)" d="M172.339 542.975 Q169.19 542.975 167.339 545.127 Q165.51 547.28 165.51 551.03 Q165.51 554.757 167.339 556.933 Q169.19 559.086 172.339 559.086 Q175.487 559.086 177.315 556.933 Q179.167 554.757 179.167 551.03 Q179.167 547.28 177.315 545.127 Q175.487 542.975 172.339 542.975 M181.621 528.322 L181.621 532.581 Q179.862 531.748 178.056 531.308 Q176.274 530.868 174.514 530.868 Q169.885 530.868 167.431 533.993 Q165.001 537.118 164.653 543.437 Q166.019 541.424 168.079 540.359 Q170.139 539.271 172.616 539.271 Q177.825 539.271 180.834 542.442 Q183.866 545.59 183.866 551.03 Q183.866 556.354 180.718 559.572 Q177.57 562.789 172.339 562.789 Q166.343 562.789 163.172 558.206 Q160.001 553.599 160.001 544.873 Q160.001 536.678 163.89 531.817 Q167.778 526.933 174.329 526.933 Q176.089 526.933 177.871 527.28 Q179.676 527.627 181.621 528.322 Z" fill="#000000" fill-rule="evenodd" fill-opacity="1" /><path clip-path="url(#clip310)" d="M126.783 250.836 Q123.172 250.836 121.343 254.401 Q119.538 257.943 119.538 265.073 Q119.538 272.179 121.343 275.744 Q123.172 279.285 126.783 279.285 Q130.417 279.285 132.223 275.744 Q134.052 272.179 134.052 265.073 Q134.052 257.943 132.223 254.401 Q130.417 250.836 126.783 250.836 M126.783 247.133 Q132.593 247.133 135.649 251.739 Q138.728 256.323 138.728 265.073 Q138.728 273.799 135.649 278.406 Q132.593 282.989 126.783 282.989 Q120.973 282.989 117.894 278.406 Q114.839 273.799 114.839 265.073 Q114.839 256.323 117.894 251.739 Q120.973 247.133 126.783 247.133 Z" fill="#000000" fill-rule="evenodd" fill-opacity="1" /><path clip-path="url(#clip310)" d="M146.945 276.438 L151.829 276.438 L151.829 282.318 L146.945 282.318 L146.945 276.438 Z" fill="#000000" fill-rule="evenodd" fill-opacity="1" /><path clip-path="url(#clip310)" d="M172.014 265.906 Q168.681 265.906 166.76 267.688 Q164.862 269.471 164.862 272.596 Q164.862 275.721 166.76 277.503 Q168.681 279.285 172.014 279.285 Q175.348 279.285 177.269 277.503 Q179.19 275.697 179.19 272.596 Q179.19 269.471 177.269 267.688 Q175.371 265.906 172.014 265.906 M167.339 263.915 Q164.329 263.174 162.64 261.114 Q160.973 259.054 160.973 256.091 Q160.973 251.948 163.913 249.54 Q166.876 247.133 172.014 247.133 Q177.176 247.133 180.116 249.54 Q183.056 251.948 183.056 256.091 Q183.056 259.054 181.366 261.114 Q179.7 263.174 176.714 263.915 Q180.093 264.702 181.968 266.994 Q183.866 269.285 183.866 272.596 Q183.866 277.619 180.788 280.304 Q177.732 282.989 172.014 282.989 Q166.297 282.989 163.218 280.304 Q160.163 277.619 160.163 272.596 Q160.163 269.285 162.061 266.994 Q163.959 264.702 167.339 263.915 M165.626 256.531 Q165.626 259.216 167.292 260.721 Q168.982 262.225 172.014 262.225 Q175.024 262.225 176.714 260.721 Q178.426 259.216 178.426 256.531 Q178.426 253.846 176.714 252.341 Q175.024 250.836 172.014 250.836 Q168.982 250.836 167.292 252.341 Q165.626 253.846 165.626 256.531 Z" fill="#000000" fill-rule="evenodd" fill-opacity="1" /><path clip-path="url(#clip310)" d="M20.8447 951.36 Q20.8447 958.362 26.0645 962.5 Q31.2844 966.605 40.2919 966.605 Q49.2675 966.605 54.4874 962.5 Q59.7073 958.362 59.7073 951.36 Q59.7073 944.357 54.4874 940.283 Q49.2675 936.177 40.2919 936.177 Q31.2844 936.177 26.0645 940.283 Q20.8447 944.357 20.8447 951.36 M15.6248 951.36 Q15.6248 941.365 22.3406 935.382 Q29.0246 929.398 40.2919 929.398 Q51.5274 929.398 58.2432 935.382 Q64.9272 941.365 64.9272 951.36 Q64.9272 961.386 58.2432 967.401 Q51.5592 973.385 40.2919 973.385 Q29.0246 973.385 22.3406 967.401 Q15.6248 961.386 15.6248 951.36 Z" fill="#000000" fill-rule="evenodd" fill-opacity="1" /><path clip-path="url(#clip310)" d="M28.3562 923.796 L28.3562 917.589 L58.275 906.449 L28.3562 895.309 L28.3562 889.103 L64.0042 902.471 L64.0042 910.428 L28.3562 923.796 Z" fill="#000000" fill-rule="evenodd" fill-opacity="1" /><path clip-path="url(#clip310)" d="M44.7161 850.527 L47.5806 850.527 L47.5806 877.454 Q53.6281 877.072 56.8109 873.825 Q59.9619 870.547 59.9619 864.722 Q59.9619 861.348 59.1344 858.197 Q58.3069 855.015 56.6518 851.895 L62.1899 851.895 Q63.5267 855.046 64.227 858.357 Q64.9272 861.667 64.9272 865.072 Q64.9272 873.602 59.9619 878.6 Q54.9967 883.565 46.5303 883.565 Q37.7774 883.565 32.6531 878.854 Q27.4968 874.112 27.4968 866.091 Q27.4968 858.898 32.1438 854.728 Q36.7589 850.527 44.7161 850.527 M42.9973 856.383 Q38.1912 856.447 35.3266 859.089 Q32.4621 861.699 32.4621 866.027 Q32.4621 870.929 35.2312 873.889 Q38.0002 876.817 43.0292 877.263 L42.9973 856.383 Z" fill="#000000" fill-rule="evenodd" fill-opacity="1" /><path clip-path="url(#clip310)" d="M33.8307 820.258 Q33.2578 821.244 33.0032 822.422 Q32.7167 823.568 32.7167 824.968 Q32.7167 829.934 35.9632 832.607 Q39.1779 835.249 45.2253 835.249 L64.0042 835.249 L64.0042 841.137 L28.3562 841.137 L28.3562 835.249 L33.8944 835.249 Q30.6479 833.403 29.0883 830.443 Q27.4968 827.483 27.4968 823.25 Q27.4968 822.645 27.5923 821.913 Q27.656 821.181 27.8151 820.29 L33.8307 820.258 Z" fill="#000000" fill-rule="evenodd" fill-opacity="1" /><path clip-path="url(#clip310)" d="M14.479 814.115 L14.479 808.258 L64.0042 808.258 L64.0042 814.115 L14.479 814.115 Z" fill="#000000" fill-rule="evenodd" fill-opacity="1" /><path clip-path="url(#clip310)" d="M46.0847 779.804 Q46.0847 786.902 47.7079 789.639 Q49.3312 792.376 53.2461 792.376 Q56.3653 792.376 58.2114 790.339 Q60.0256 788.27 60.0256 784.737 Q60.0256 779.867 56.5881 776.939 Q53.1188 773.979 47.3897 773.979 L46.0847 773.979 L46.0847 779.804 M43.6657 768.123 L64.0042 768.123 L64.0042 773.979 L58.5933 773.979 Q61.8398 775.984 63.3994 778.976 Q64.9272 781.968 64.9272 786.297 Q64.9272 791.771 61.8716 795.018 Q58.7843 798.232 53.6281 798.232 Q47.6125 798.232 44.5569 794.222 Q41.5014 790.18 41.5014 782.191 L41.5014 773.979 L40.9285 773.979 Q36.8862 773.979 34.6901 776.653 Q32.4621 779.294 32.4621 784.101 Q32.4621 787.156 33.1941 790.053 Q33.9262 792.949 35.3903 795.623 L29.9795 795.623 Q28.7381 792.408 28.1334 789.384 Q27.4968 786.36 27.4968 783.496 Q27.4968 775.762 31.5072 771.942 Q35.5176 768.123 43.6657 768.123 Z" fill="#000000" fill-rule="evenodd" fill-opacity="1" /><path clip-path="url(#clip310)" d="M58.657 750.394 L77.5631 750.394 L77.5631 756.282 L28.3562 756.282 L28.3562 750.394 L33.7671 750.394 Q30.5842 748.548 29.0564 745.747 Q27.4968 742.914 27.4968 739 Q27.4968 732.507 32.6531 728.464 Q37.8093 724.39 46.212 724.39 Q54.6147 724.39 59.771 728.464 Q64.9272 732.507 64.9272 739 Q64.9272 742.914 63.3994 745.747 Q61.8398 748.548 58.657 750.394 M46.212 730.47 Q39.7508 730.47 36.0905 733.143 Q32.3984 735.785 32.3984 740.432 Q32.3984 745.079 36.0905 747.752 Q39.7508 750.394 46.212 750.394 Q52.6732 750.394 56.3653 747.752 Q60.0256 745.079 60.0256 740.432 Q60.0256 735.785 56.3653 733.143 Q52.6732 730.47 46.212 730.47 Z" fill="#000000" fill-rule="evenodd" fill-opacity="1" /><path clip-path="url(#clip310)" d="M28.3562 697.368 L28.3562 691.511 L56.1743 684.191 L28.3562 676.902 L28.3562 669.995 L56.1743 662.675 L28.3562 655.386 L28.3562 649.53 L64.0042 658.855 L64.0042 665.762 L34.7856 673.433 L64.0042 681.135 L64.0042 688.042 L28.3562 697.368 Z" fill="#000000" fill-rule="evenodd" fill-opacity="1" /><path clip-path="url(#clip310)" d="M28.3562 640.649 L28.3562 634.793 L64.0042 634.793 L64.0042 640.649 L28.3562 640.649 M14.479 640.649 L14.479 634.793 L21.895 634.793 L21.895 640.649 L14.479 640.649 Z" fill="#000000" fill-rule="evenodd" fill-opacity="1" /><path clip-path="url(#clip310)" d="M18.2347 616.746 L28.3562 616.746 L28.3562 604.683 L32.9077 604.683 L32.9077 616.746 L52.2594 616.746 Q56.6199 616.746 57.8613 615.569 Q59.1026 614.359 59.1026 610.699 L59.1026 604.683 L64.0042 604.683 L64.0042 610.699 Q64.0042 617.478 61.4897 620.056 Q58.9434 622.634 52.2594 622.634 L32.9077 622.634 L32.9077 626.931 L28.3562 626.931 L28.3562 622.634 L18.2347 622.634 L18.2347 616.746 Z" fill="#000000" fill-rule="evenodd" fill-opacity="1" /><path clip-path="url(#clip310)" d="M42.4881 567.348 L64.0042 567.348 L64.0042 573.205 L42.679 573.205 Q37.6183 573.205 35.1038 575.178 Q32.5894 577.151 32.5894 581.098 Q32.5894 585.841 35.6131 588.578 Q38.6368 591.315 43.8567 591.315 L64.0042 591.315 L64.0042 597.203 L14.479 597.203 L14.479 591.315 L33.8944 591.315 Q30.6797 589.214 29.0883 586.382 Q27.4968 583.517 27.4968 579.793 Q27.4968 573.65 31.3163 570.499 Q35.1038 567.348 42.4881 567.348 Z" fill="#000000" fill-rule="evenodd" fill-opacity="1" /><path clip-path="url(#clip310)" d="M22.818 518.81 L46.4666 527.531 L46.4666 510.057 L22.818 518.81 M16.4842 522.438 L16.4842 515.149 L64.0042 497.039 L64.0042 503.723 L51.8138 508.052 L51.8138 529.472 L64.0042 533.801 L64.0042 540.58 L16.4842 522.438 Z" fill="#000000" fill-rule="evenodd" fill-opacity="1" /><path clip-path="url(#clip312)" d="M337.179 86.1857 L337.179 1384.24 L351.733 1384.24 L351.733 86.1857 L337.179 86.1857 L337.179 86.1857  Z" fill="#009af9" fill-rule="evenodd" fill-opacity="1"/>
<polyline clip-path="url(#clip312)" style="stroke:#000000; stroke-linecap:round; stroke-linejoin:round; stroke-width:4; stroke-opacity:1; fill:none" points="337.179,86.1857 337.179,1384.24 351.733,1384.24 351.733,86.1857 337.179,86.1857 "/>
<path clip-path="url(#clip312)" d="M418.392 1280.58 L418.392 1384.24 L432.947 1384.24 L432.947 1280.58 L418.392 1280.58 L418.392 1280.58  Z" fill="#009af9" fill-rule="evenodd" fill-opacity="1"/>
<polyline clip-path="url(#clip312)" style="stroke:#000000; stroke-linecap:round; stroke-linejoin:round; stroke-width:4; stroke-opacity:1; fill:none" points="418.392,1280.58 418.392,1384.24 432.947,1384.24 432.947,1280.58 418.392,1280.58 "/>
<path clip-path="url(#clip312)" d="M436.905 1267.18 L436.905 1384.24 L451.459 1384.24 L451.459 1267.18 L436.905 1267.18 L436.905 1267.18  Z" fill="#009af9" fill-rule="evenodd" fill-opacity="1"/>
<polyline clip-path="url(#clip312)" style="stroke:#000000; stroke-linecap:round; stroke-linejoin:round; stroke-width:4; stroke-opacity:1; fill:none" points="436.905,1267.18 436.905,1384.24 451.459,1384.24 451.459,1267.18 436.905,1267.18 "/>
<path clip-path="url(#clip312)" d="M455.226 1268.22 L455.226 1384.24 L469.78 1384.24 L469.78 1268.22 L455.226 1268.22 L455.226 1268.22  Z" fill="#009af9" fill-rule="evenodd" fill-opacity="1"/>
<polyline clip-path="url(#clip312)" style="stroke:#000000; stroke-linecap:round; stroke-linejoin:round; stroke-width:4; stroke-opacity:1; fill:none" points="455.226,1268.22 455.226,1384.24 469.78,1384.24 469.78,1268.22 455.226,1268.22 "/>
<path clip-path="url(#clip312)" d="M473.485 1272.1 L473.485 1384.24 L488.039 1384.24 L488.039 1272.1 L473.485 1272.1 L473.485 1272.1  Z" fill="#009af9" fill-rule="evenodd" fill-opacity="1"/>
<polyline clip-path="url(#clip312)" style="stroke:#000000; stroke-linecap:round; stroke-linejoin:round; stroke-width:4; stroke-opacity:1; fill:none" points="473.485,1272.1 473.485,1384.24 488.039,1384.24 488.039,1272.1 473.485,1272.1 "/>
<path clip-path="url(#clip312)" d="M491.714 1276.67 L491.714 1384.24 L506.269 1384.24 L506.269 1276.67 L491.714 1276.67 L491.714 1276.67  Z" fill="#009af9" fill-rule="evenodd" fill-opacity="1"/>
<polyline clip-path="url(#clip312)" style="stroke:#000000; stroke-linecap:round; stroke-linejoin:round; stroke-width:4; stroke-opacity:1; fill:none" points="491.714,1276.67 491.714,1384.24 506.269,1384.24 506.269,1276.67 491.714,1276.67 "/>
<path clip-path="url(#clip312)" d="M509.928 1281.27 L509.928 1384.24 L524.483 1384.24 L524.483 1281.27 L509.928 1281.27 L509.928 1281.27  Z" fill="#009af9" fill-rule="evenodd" fill-opacity="1"/>
<polyline clip-path="url(#clip312)" style="stroke:#000000; stroke-linecap:round; stroke-linejoin:round; stroke-width:4; stroke-opacity:1; fill:none" points="509.928,1281.27 509.928,1384.24 524.483,1384.24 524.483,1281.27 509.928,1281.27 "/>
<path clip-path="url(#clip312)" d="M528.133 1285.66 L528.133 1384.24 L542.688 1384.24 L542.688 1285.66 L528.133 1285.66 L528.133 1285.66  Z" fill="#009af9" fill-rule="evenodd" fill-opacity="1"/>
<polyline clip-path="url(#clip312)" style="stroke:#000000; stroke-linecap:round; stroke-linejoin:round; stroke-width:4; stroke-opacity:1; fill:none" points="528.133,1285.66 528.133,1384.24 542.688,1384.24 542.688,1285.66 528.133,1285.66 "/>
<path clip-path="url(#clip312)" d="M546.333 1289.77 L546.333 1384.24 L560.887 1384.24 L560.887 1289.77 L546.333 1289.77 L546.333 1289.77  Z" fill="#009af9" fill-rule="evenodd" fill-opacity="1"/>
<polyline clip-path="url(#clip312)" style="stroke:#000000; stroke-linecap:round; stroke-linejoin:round; stroke-width:4; stroke-opacity:1; fill:none" points="546.333,1289.77 546.333,1384.24 560.887,1384.24 560.887,1289.77 546.333,1289.77 "/>
<path clip-path="url(#clip312)" d="M564.529 1293.57 L564.529 1384.24 L579.084 1384.24 L579.084 1293.57 L564.529 1293.57 L564.529 1293.57  Z" fill="#009af9" fill-rule="evenodd" fill-opacity="1"/>
<polyline clip-path="url(#clip312)" style="stroke:#000000; stroke-linecap:round; stroke-linejoin:round; stroke-width:4; stroke-opacity:1; fill:none" points="564.529,1293.57 564.529,1384.24 579.084,1384.24 579.084,1293.57 564.529,1293.57 "/>
<path clip-path="url(#clip312)" d="M582.724 1297.09 L582.724 1384.24 L597.278 1384.24 L597.278 1297.09 L582.724 1297.09 L582.724 1297.09  Z" fill="#009af9" fill-rule="evenodd" fill-opacity="1"/>
<polyline clip-path="url(#clip312)" style="stroke:#000000; stroke-linecap:round; stroke-linejoin:round; stroke-width:4; stroke-opacity:1; fill:none" points="582.724,1297.09 582.724,1384.24 597.278,1384.24 597.278,1297.09 582.724,1297.09 "/>
<path clip-path="url(#clip312)" d="M600.918 1300.33 L600.918 1384.24 L615.472 1384.24 L615.472 1300.33 L600.918 1300.33 L600.918 1300.33  Z" fill="#009af9" fill-rule="evenodd" fill-opacity="1"/>
<polyline clip-path="url(#clip312)" style="stroke:#000000; stroke-linecap:round; stroke-linejoin:round; stroke-width:4; stroke-opacity:1; fill:none" points="600.918,1300.33 600.918,1384.24 615.472,1384.24 615.472,1300.33 600.918,1300.33 "/>
<path clip-path="url(#clip312)" d="M619.111 1303.33 L619.111 1384.24 L633.665 1384.24 L633.665 1303.33 L619.111 1303.33 L619.111 1303.33  Z" fill="#009af9" fill-rule="evenodd" fill-opacity="1"/>
<polyline clip-path="url(#clip312)" style="stroke:#000000; stroke-linecap:round; stroke-linejoin:round; stroke-width:4; stroke-opacity:1; fill:none" points="619.111,1303.33 619.111,1384.24 633.665,1384.24 633.665,1303.33 619.111,1303.33 "/>
<path clip-path="url(#clip312)" d="M637.303 1306.11 L637.303 1384.24 L651.857 1384.24 L651.857 1306.11 L637.303 1306.11 L637.303 1306.11  Z" fill="#009af9" fill-rule="evenodd" fill-opacity="1"/>
<polyline clip-path="url(#clip312)" style="stroke:#000000; stroke-linecap:round; stroke-linejoin:round; stroke-width:4; stroke-opacity:1; fill:none" points="637.303,1306.11 637.303,1384.24 651.857,1384.24 651.857,1306.11 637.303,1306.11 "/>
<path clip-path="url(#clip312)" d="M655.496 1308.68 L655.496 1384.24 L670.05 1384.24 L670.05 1308.68 L655.496 1308.68 L655.496 1308.68  Z" fill="#009af9" fill-rule="evenodd" fill-opacity="1"/>
<polyline clip-path="url(#clip312)" style="stroke:#000000; stroke-linecap:round; stroke-linejoin:round; stroke-width:4; stroke-opacity:1; fill:none" points="655.496,1308.68 655.496,1384.24 670.05,1384.24 670.05,1308.68 655.496,1308.68 "/>
<path clip-path="url(#clip312)" d="M673.689 1311.07 L673.689 1384.24 L688.243 1384.24 L688.243 1311.07 L673.689 1311.07 L673.689 1311.07  Z" fill="#009af9" fill-rule="evenodd" fill-opacity="1"/>
<polyline clip-path="url(#clip312)" style="stroke:#000000; stroke-linecap:round; stroke-linejoin:round; stroke-width:4; stroke-opacity:1; fill:none" points="673.689,1311.07 673.689,1384.24 688.243,1384.24 688.243,1311.07 673.689,1311.07 "/>
<path clip-path="url(#clip312)" d="M691.882 1313.3 L691.882 1384.24 L706.437 1384.24 L706.437 1313.3 L691.882 1313.3 L691.882 1313.3  Z" fill="#009af9" fill-rule="evenodd" fill-opacity="1"/>
<polyline clip-path="url(#clip312)" style="stroke:#000000; stroke-linecap:round; stroke-linejoin:round; stroke-width:4; stroke-opacity:1; fill:none" points="691.882,1313.3 691.882,1384.24 706.437,1384.24 706.437,1313.3 691.882,1313.3 "/>
<path clip-path="url(#clip312)" d="M710.076 1315.38 L710.076 1384.24 L724.63 1384.24 L724.63 1315.38 L710.076 1315.38 L710.076 1315.38  Z" fill="#009af9" fill-rule="evenodd" fill-opacity="1"/>
<polyline clip-path="url(#clip312)" style="stroke:#000000; stroke-linecap:round; stroke-linejoin:round; stroke-width:4; stroke-opacity:1; fill:none" points="710.076,1315.38 710.076,1384.24 724.63,1384.24 724.63,1315.38 710.076,1315.38 "/>
<path clip-path="url(#clip312)" d="M728.27 1317.32 L728.27 1384.24 L742.824 1384.24 L742.824 1317.32 L728.27 1317.32 L728.27 1317.32  Z" fill="#009af9" fill-rule="evenodd" fill-opacity="1"/>
<polyline clip-path="url(#clip312)" style="stroke:#000000; stroke-linecap:round; stroke-linejoin:round; stroke-width:4; stroke-opacity:1; fill:none" points="728.27,1317.32 728.27,1384.24 742.824,1384.24 742.824,1317.32 728.27,1317.32 "/>
<path clip-path="url(#clip312)" d="M746.464 1319.15 L746.464 1384.24 L761.018 1384.24 L761.018 1319.15 L746.464 1319.15 L746.464 1319.15  Z" fill="#009af9" fill-rule="evenodd" fill-opacity="1"/>
<polyline clip-path="url(#clip312)" style="stroke:#000000; stroke-linecap:round; stroke-linejoin:round; stroke-width:4; stroke-opacity:1; fill:none" points="746.464,1319.15 746.464,1384.24 761.018,1384.24 761.018,1319.15 746.464,1319.15 "/>
<path clip-path="url(#clip312)" d="M764.659 1320.86 L764.659 1384.24 L779.213 1384.24 L779.213 1320.86 L764.659 1320.86 L764.659 1320.86  Z" fill="#009af9" fill-rule="evenodd" fill-opacity="1"/>
<polyline clip-path="url(#clip312)" style="stroke:#000000; stroke-linecap:round; stroke-linejoin:round; stroke-width:4; stroke-opacity:1; fill:none" points="764.659,1320.86 764.659,1384.24 779.213,1384.24 779.213,1320.86 764.659,1320.86 "/>
<path clip-path="url(#clip312)" d="M782.854 1322.47 L782.854 1384.24 L797.408 1384.24 L797.408 1322.47 L782.854 1322.47 L782.854 1322.47  Z" fill="#009af9" fill-rule="evenodd" fill-opacity="1"/>
<polyline clip-path="url(#clip312)" style="stroke:#000000; stroke-linecap:round; stroke-linejoin:round; stroke-width:4; stroke-opacity:1; fill:none" points="782.854,1322.47 782.854,1384.24 797.408,1384.24 797.408,1322.47 782.854,1322.47 "/>
<path clip-path="url(#clip312)" d="M801.049 1323.99 L801.049 1384.24 L815.604 1384.24 L815.604 1323.99 L801.049 1323.99 L801.049 1323.99  Z" fill="#009af9" fill-rule="evenodd" fill-opacity="1"/>
<polyline clip-path="url(#clip312)" style="stroke:#000000; stroke-linecap:round; stroke-linejoin:round; stroke-width:4; stroke-opacity:1; fill:none" points="801.049,1323.99 801.049,1384.24 815.604,1384.24 815.604,1323.99 801.049,1323.99 "/>
<path clip-path="url(#clip312)" d="M819.245 1325.43 L819.245 1384.24 L833.8 1384.24 L833.8 1325.43 L819.245 1325.43 L819.245 1325.43  Z" fill="#009af9" fill-rule="evenodd" fill-opacity="1"/>
<polyline clip-path="url(#clip312)" style="stroke:#000000; stroke-linecap:round; stroke-linejoin:round; stroke-width:4; stroke-opacity:1; fill:none" points="819.245,1325.43 819.245,1384.24 833.8,1384.24 833.8,1325.43 819.245,1325.43 "/>
<path clip-path="url(#clip312)" d="M837.442 1326.79 L837.442 1384.24 L851.996 1384.24 L851.996 1326.79 L837.442 1326.79 L837.442 1326.79  Z" fill="#009af9" fill-rule="evenodd" fill-opacity="1"/>
<polyline clip-path="url(#clip312)" style="stroke:#000000; stroke-linecap:round; stroke-linejoin:round; stroke-width:4; stroke-opacity:1; fill:none" points="837.442,1326.79 837.442,1384.24 851.996,1384.24 851.996,1326.79 837.442,1326.79 "/>
<path clip-path="url(#clip312)" d="M855.638 1328.07 L855.638 1384.24 L870.192 1384.24 L870.192 1328.07 L855.638 1328.07 L855.638 1328.07  Z" fill="#009af9" fill-rule="evenodd" fill-opacity="1"/>
<polyline clip-path="url(#clip312)" style="stroke:#000000; stroke-linecap:round; stroke-linejoin:round; stroke-width:4; stroke-opacity:1; fill:none" points="855.638,1328.07 855.638,1384.24 870.192,1384.24 870.192,1328.07 855.638,1328.07 "/>
<path clip-path="url(#clip312)" d="M873.835 1329.3 L873.835 1384.24 L888.389 1384.24 L888.389 1329.3 L873.835 1329.3 L873.835 1329.3  Z" fill="#009af9" fill-rule="evenodd" fill-opacity="1"/>
<polyline clip-path="url(#clip312)" style="stroke:#000000; stroke-linecap:round; stroke-linejoin:round; stroke-width:4; stroke-opacity:1; fill:none" points="873.835,1329.3 873.835,1384.24 888.389,1384.24 888.389,1329.3 873.835,1329.3 "/>
<path clip-path="url(#clip312)" d="M892.032 1330.46 L892.032 1384.24 L906.587 1384.24 L906.587 1330.46 L892.032 1330.46 L892.032 1330.46  Z" fill="#009af9" fill-rule="evenodd" fill-opacity="1"/>
<polyline clip-path="url(#clip312)" style="stroke:#000000; stroke-linecap:round; stroke-linejoin:round; stroke-width:4; stroke-opacity:1; fill:none" points="892.032,1330.46 892.032,1384.24 906.587,1384.24 906.587,1330.46 892.032,1330.46 "/>
<path clip-path="url(#clip312)" d="M910.23 1331.56 L910.23 1384.24 L924.784 1384.24 L924.784 1331.56 L910.23 1331.56 L910.23 1331.56  Z" fill="#009af9" fill-rule="evenodd" fill-opacity="1"/>
<polyline clip-path="url(#clip312)" style="stroke:#000000; stroke-linecap:round; stroke-linejoin:round; stroke-width:4; stroke-opacity:1; fill:none" points="910.23,1331.56 910.23,1384.24 924.784,1384.24 924.784,1331.56 910.23,1331.56 "/>
<path clip-path="url(#clip312)" d="M928.428 1332.62 L928.428 1384.24 L942.982 1384.24 L942.982 1332.62 L928.428 1332.62 L928.428 1332.62  Z" fill="#009af9" fill-rule="evenodd" fill-opacity="1"/>
<polyline clip-path="url(#clip312)" style="stroke:#000000; stroke-linecap:round; stroke-linejoin:round; stroke-width:4; stroke-opacity:1; fill:none" points="928.428,1332.62 928.428,1384.24 942.982,1384.24 942.982,1332.62 928.428,1332.62 "/>
<path clip-path="url(#clip312)" d="M946.626 1333.62 L946.626 1384.24 L961.18 1384.24 L961.18 1333.62 L946.626 1333.62 L946.626 1333.62  Z" fill="#009af9" fill-rule="evenodd" fill-opacity="1"/>
<polyline clip-path="url(#clip312)" style="stroke:#000000; stroke-linecap:round; stroke-linejoin:round; stroke-width:4; stroke-opacity:1; fill:none" points="946.626,1333.62 946.626,1384.24 961.18,1384.24 961.18,1333.62 946.626,1333.62 "/>
<path clip-path="url(#clip312)" d="M964.825 1334.58 L964.825 1384.24 L979.379 1384.24 L979.379 1334.58 L964.825 1334.58 L964.825 1334.58  Z" fill="#009af9" fill-rule="evenodd" fill-opacity="1"/>
<polyline clip-path="url(#clip312)" style="stroke:#000000; stroke-linecap:round; stroke-linejoin:round; stroke-width:4; stroke-opacity:1; fill:none" points="964.825,1334.58 964.825,1384.24 979.379,1384.24 979.379,1334.58 964.825,1334.58 "/>
<path clip-path="url(#clip312)" d="M983.023 1335.5 L983.023 1384.24 L997.578 1384.24 L997.578 1335.5 L983.023 1335.5 L983.023 1335.5  Z" fill="#009af9" fill-rule="evenodd" fill-opacity="1"/>
<polyline clip-path="url(#clip312)" style="stroke:#000000; stroke-linecap:round; stroke-linejoin:round; stroke-width:4; stroke-opacity:1; fill:none" points="983.023,1335.5 983.023,1384.24 997.578,1384.24 997.578,1335.5 983.023,1335.5 "/>
<path clip-path="url(#clip312)" d="M1001.22 1336.38 L1001.22 1384.24 L1015.78 1384.24 L1015.78 1336.38 L1001.22 1336.38 L1001.22 1336.38  Z" fill="#009af9" fill-rule="evenodd" fill-opacity="1"/>
<polyline clip-path="url(#clip312)" style="stroke:#000000; stroke-linecap:round; stroke-linejoin:round; stroke-width:4; stroke-opacity:1; fill:none" points="1001.22,1336.38 1001.22,1384.24 1015.78,1384.24 1015.78,1336.38 1001.22,1336.38 "/>
<path clip-path="url(#clip312)" d="M1019.42 1337.22 L1019.42 1384.24 L1033.98 1384.24 L1033.98 1337.22 L1019.42 1337.22 L1019.42 1337.22  Z" fill="#009af9" fill-rule="evenodd" fill-opacity="1"/>
<polyline clip-path="url(#clip312)" style="stroke:#000000; stroke-linecap:round; stroke-linejoin:round; stroke-width:4; stroke-opacity:1; fill:none" points="1019.42,1337.22 1019.42,1384.24 1033.98,1384.24 1033.98,1337.22 1019.42,1337.22 "/>
<path clip-path="url(#clip312)" d="M1037.62 1338.03 L1037.62 1384.24 L1052.18 1384.24 L1052.18 1338.03 L1037.62 1338.03 L1037.62 1338.03  Z" fill="#009af9" fill-rule="evenodd" fill-opacity="1"/>
<polyline clip-path="url(#clip312)" style="stroke:#000000; stroke-linecap:round; stroke-linejoin:round; stroke-width:4; stroke-opacity:1; fill:none" points="1037.62,1338.03 1037.62,1384.24 1052.18,1384.24 1052.18,1338.03 1037.62,1338.03 "/>
<path clip-path="url(#clip312)" d="M1055.82 1338.8 L1055.82 1384.24 L1070.38 1384.24 L1070.38 1338.8 L1055.82 1338.8 L1055.82 1338.8  Z" fill="#009af9" fill-rule="evenodd" fill-opacity="1"/>
<polyline clip-path="url(#clip312)" style="stroke:#000000; stroke-linecap:round; stroke-linejoin:round; stroke-width:4; stroke-opacity:1; fill:none" points="1055.82,1338.8 1055.82,1384.24 1070.38,1384.24 1070.38,1338.8 1055.82,1338.8 "/>
<path clip-path="url(#clip312)" d="M1074.02 1339.55 L1074.02 1384.24 L1088.58 1384.24 L1088.58 1339.55 L1074.02 1339.55 L1074.02 1339.55  Z" fill="#009af9" fill-rule="evenodd" fill-opacity="1"/>
<polyline clip-path="url(#clip312)" style="stroke:#000000; stroke-linecap:round; stroke-linejoin:round; stroke-width:4; stroke-opacity:1; fill:none" points="1074.02,1339.55 1074.02,1384.24 1088.58,1384.24 1088.58,1339.55 1074.02,1339.55 "/>
<path clip-path="url(#clip312)" d="M1092.22 1340.27 L1092.22 1384.24 L1106.78 1384.24 L1106.78 1340.27 L1092.22 1340.27 L1092.22 1340.27  Z" fill="#009af9" fill-rule="evenodd" fill-opacity="1"/>
<polyline clip-path="url(#clip312)" style="stroke:#000000; stroke-linecap:round; stroke-linejoin:round; stroke-width:4; stroke-opacity:1; fill:none" points="1092.22,1340.27 1092.22,1384.24 1106.78,1384.24 1106.78,1340.27 1092.22,1340.27 "/>
<path clip-path="url(#clip312)" d="M1110.42 1340.95 L1110.42 1384.24 L1124.98 1384.24 L1124.98 1340.95 L1110.42 1340.95 L1110.42 1340.95  Z" fill="#009af9" fill-rule="evenodd" fill-opacity="1"/>
<polyline clip-path="url(#clip312)" style="stroke:#000000; stroke-linecap:round; stroke-linejoin:round; stroke-width:4; stroke-opacity:1; fill:none" points="1110.42,1340.95 1110.42,1384.24 1124.98,1384.24 1124.98,1340.95 1110.42,1340.95 "/>
<path clip-path="url(#clip312)" d="M1128.62 1341.62 L1128.62 1384.24 L1143.18 1384.24 L1143.18 1341.62 L1128.62 1341.62 L1128.62 1341.62  Z" fill="#009af9" fill-rule="evenodd" fill-opacity="1"/>
<polyline clip-path="url(#clip312)" style="stroke:#000000; stroke-linecap:round; stroke-linejoin:round; stroke-width:4; stroke-opacity:1; fill:none" points="1128.62,1341.62 1128.62,1384.24 1143.18,1384.24 1143.18,1341.62 1128.62,1341.62 "/>
<path clip-path="url(#clip312)" d="M1146.82 1342.26 L1146.82 1384.24 L1161.38 1384.24 L1161.38 1342.26 L1146.82 1342.26 L1146.82 1342.26  Z" fill="#009af9" fill-rule="evenodd" fill-opacity="1"/>
<polyline clip-path="url(#clip312)" style="stroke:#000000; stroke-linecap:round; stroke-linejoin:round; stroke-width:4; stroke-opacity:1; fill:none" points="1146.82,1342.26 1146.82,1384.24 1161.38,1384.24 1161.38,1342.26 1146.82,1342.26 "/>
<path clip-path="url(#clip312)" d="M1165.02 1342.88 L1165.02 1384.24 L1179.58 1384.24 L1179.58 1342.88 L1165.02 1342.88 L1165.02 1342.88  Z" fill="#009af9" fill-rule="evenodd" fill-opacity="1"/>
<polyline clip-path="url(#clip312)" style="stroke:#000000; stroke-linecap:round; stroke-linejoin:round; stroke-width:4; stroke-opacity:1; fill:none" points="1165.02,1342.88 1165.02,1384.24 1179.58,1384.24 1179.58,1342.88 1165.02,1342.88 "/>
<path clip-path="url(#clip312)" d="M1183.22 1343.47 L1183.22 1384.24 L1197.78 1384.24 L1197.78 1343.47 L1183.22 1343.47 L1183.22 1343.47  Z" fill="#009af9" fill-rule="evenodd" fill-opacity="1"/>
<polyline clip-path="url(#clip312)" style="stroke:#000000; stroke-linecap:round; stroke-linejoin:round; stroke-width:4; stroke-opacity:1; fill:none" points="1183.22,1343.47 1183.22,1384.24 1197.78,1384.24 1197.78,1343.47 1183.22,1343.47 "/>
<path clip-path="url(#clip312)" d="M1201.43 1344.05 L1201.43 1384.24 L1215.98 1384.24 L1215.98 1344.05 L1201.43 1344.05 L1201.43 1344.05  Z" fill="#009af9" fill-rule="evenodd" fill-opacity="1"/>
<polyline clip-path="url(#clip312)" style="stroke:#000000; stroke-linecap:round; stroke-linejoin:round; stroke-width:4; stroke-opacity:1; fill:none" points="1201.43,1344.05 1201.43,1384.24 1215.98,1384.24 1215.98,1344.05 1201.43,1344.05 "/>
<path clip-path="url(#clip312)" d="M1219.63 1344.6 L1219.63 1384.24 L1234.18 1384.24 L1234.18 1344.6 L1219.63 1344.6 L1219.63 1344.6  Z" fill="#009af9" fill-rule="evenodd" fill-opacity="1"/>
<polyline clip-path="url(#clip312)" style="stroke:#000000; stroke-linecap:round; stroke-linejoin:round; stroke-width:4; stroke-opacity:1; fill:none" points="1219.63,1344.6 1219.63,1384.24 1234.18,1384.24 1234.18,1344.6 1219.63,1344.6 "/>
<path clip-path="url(#clip312)" d="M1237.83 1345.14 L1237.83 1384.24 L1252.38 1384.24 L1252.38 1345.14 L1237.83 1345.14 L1237.83 1345.14  Z" fill="#009af9" fill-rule="evenodd" fill-opacity="1"/>
<polyline clip-path="url(#clip312)" style="stroke:#000000; stroke-linecap:round; stroke-linejoin:round; stroke-width:4; stroke-opacity:1; fill:none" points="1237.83,1345.14 1237.83,1384.24 1252.38,1384.24 1252.38,1345.14 1237.83,1345.14 "/>
<path clip-path="url(#clip312)" d="M1256.03 1345.66 L1256.03 1384.24 L1270.58 1384.24 L1270.58 1345.66 L1256.03 1345.66 L1256.03 1345.66  Z" fill="#009af9" fill-rule="evenodd" fill-opacity="1"/>
<polyline clip-path="url(#clip312)" style="stroke:#000000; stroke-linecap:round; stroke-linejoin:round; stroke-width:4; stroke-opacity:1; fill:none" points="1256.03,1345.66 1256.03,1384.24 1270.58,1384.24 1270.58,1345.66 1256.03,1345.66 "/>
<path clip-path="url(#clip312)" d="M1274.23 1346.16 L1274.23 1384.24 L1288.79 1384.24 L1288.79 1346.16 L1274.23 1346.16 L1274.23 1346.16  Z" fill="#009af9" fill-rule="evenodd" fill-opacity="1"/>
<polyline clip-path="url(#clip312)" style="stroke:#000000; stroke-linecap:round; stroke-linejoin:round; stroke-width:4; stroke-opacity:1; fill:none" points="1274.23,1346.16 1274.23,1384.24 1288.79,1384.24 1288.79,1346.16 1274.23,1346.16 "/>
<path clip-path="url(#clip312)" d="M1292.43 1346.65 L1292.43 1384.24 L1306.99 1384.24 L1306.99 1346.65 L1292.43 1346.65 L1292.43 1346.65  Z" fill="#009af9" fill-rule="evenodd" fill-opacity="1"/>
<polyline clip-path="url(#clip312)" style="stroke:#000000; stroke-linecap:round; stroke-linejoin:round; stroke-width:4; stroke-opacity:1; fill:none" points="1292.43,1346.65 1292.43,1384.24 1306.99,1384.24 1306.99,1346.65 1292.43,1346.65 "/>
<path clip-path="url(#clip312)" d="M1310.64 1347.12 L1310.64 1384.24 L1325.19 1384.24 L1325.19 1347.12 L1310.64 1347.12 L1310.64 1347.12  Z" fill="#009af9" fill-rule="evenodd" fill-opacity="1"/>
<polyline clip-path="url(#clip312)" style="stroke:#000000; stroke-linecap:round; stroke-linejoin:round; stroke-width:4; stroke-opacity:1; fill:none" points="1310.64,1347.12 1310.64,1384.24 1325.19,1384.24 1325.19,1347.12 1310.64,1347.12 "/>
<path clip-path="url(#clip312)" d="M1328.84 1347.58 L1328.84 1384.24 L1343.39 1384.24 L1343.39 1347.58 L1328.84 1347.58 L1328.84 1347.58  Z" fill="#009af9" fill-rule="evenodd" fill-opacity="1"/>
<polyline clip-path="url(#clip312)" style="stroke:#000000; stroke-linecap:round; stroke-linejoin:round; stroke-width:4; stroke-opacity:1; fill:none" points="1328.84,1347.58 1328.84,1384.24 1343.39,1384.24 1343.39,1347.58 1328.84,1347.58 "/>
<path clip-path="url(#clip312)" d="M1347.04 1348.03 L1347.04 1384.24 L1361.6 1384.24 L1361.6 1348.03 L1347.04 1348.03 L1347.04 1348.03  Z" fill="#009af9" fill-rule="evenodd" fill-opacity="1"/>
<polyline clip-path="url(#clip312)" style="stroke:#000000; stroke-linecap:round; stroke-linejoin:round; stroke-width:4; stroke-opacity:1; fill:none" points="1347.04,1348.03 1347.04,1384.24 1361.6,1384.24 1361.6,1348.03 1347.04,1348.03 "/>
<path clip-path="url(#clip312)" d="M1365.24 1348.46 L1365.24 1384.24 L1379.8 1384.24 L1379.8 1348.46 L1365.24 1348.46 L1365.24 1348.46  Z" fill="#009af9" fill-rule="evenodd" fill-opacity="1"/>
<polyline clip-path="url(#clip312)" style="stroke:#000000; stroke-linecap:round; stroke-linejoin:round; stroke-width:4; stroke-opacity:1; fill:none" points="1365.24,1348.46 1365.24,1384.24 1379.8,1384.24 1379.8,1348.46 1365.24,1348.46 "/>
<path clip-path="url(#clip312)" d="M1383.45 1348.88 L1383.45 1384.24 L1398 1384.24 L1398 1348.88 L1383.45 1348.88 L1383.45 1348.88  Z" fill="#009af9" fill-rule="evenodd" fill-opacity="1"/>
<polyline clip-path="url(#clip312)" style="stroke:#000000; stroke-linecap:round; stroke-linejoin:round; stroke-width:4; stroke-opacity:1; fill:none" points="1383.45,1348.88 1383.45,1384.24 1398,1384.24 1398,1348.88 1383.45,1348.88 "/>
<path clip-path="url(#clip312)" d="M1401.65 1349.28 L1401.65 1384.24 L1416.2 1384.24 L1416.2 1349.28 L1401.65 1349.28 L1401.65 1349.28  Z" fill="#009af9" fill-rule="evenodd" fill-opacity="1"/>
<polyline clip-path="url(#clip312)" style="stroke:#000000; stroke-linecap:round; stroke-linejoin:round; stroke-width:4; stroke-opacity:1; fill:none" points="1401.65,1349.28 1401.65,1384.24 1416.2,1384.24 1416.2,1349.28 1401.65,1349.28 "/>
<path clip-path="url(#clip312)" d="M1419.85 1349.68 L1419.85 1384.24 L1434.41 1384.24 L1434.41 1349.68 L1419.85 1349.68 L1419.85 1349.68  Z" fill="#009af9" fill-rule="evenodd" fill-opacity="1"/>
<polyline clip-path="url(#clip312)" style="stroke:#000000; stroke-linecap:round; stroke-linejoin:round; stroke-width:4; stroke-opacity:1; fill:none" points="1419.85,1349.68 1419.85,1384.24 1434.41,1384.24 1434.41,1349.68 1419.85,1349.68 "/>
<path clip-path="url(#clip312)" d="M1438.05 1350.06 L1438.05 1384.24 L1452.61 1384.24 L1452.61 1350.06 L1438.05 1350.06 L1438.05 1350.06  Z" fill="#009af9" fill-rule="evenodd" fill-opacity="1"/>
<polyline clip-path="url(#clip312)" style="stroke:#000000; stroke-linecap:round; stroke-linejoin:round; stroke-width:4; stroke-opacity:1; fill:none" points="1438.05,1350.06 1438.05,1384.24 1452.61,1384.24 1452.61,1350.06 1438.05,1350.06 "/>
<path clip-path="url(#clip312)" d="M1456.26 1350.43 L1456.26 1384.24 L1470.81 1384.24 L1470.81 1350.43 L1456.26 1350.43 L1456.26 1350.43  Z" fill="#009af9" fill-rule="evenodd" fill-opacity="1"/>
<polyline clip-path="url(#clip312)" style="stroke:#000000; stroke-linecap:round; stroke-linejoin:round; stroke-width:4; stroke-opacity:1; fill:none" points="1456.26,1350.43 1456.26,1384.24 1470.81,1384.24 1470.81,1350.43 1456.26,1350.43 "/>
<path clip-path="url(#clip312)" d="M1474.46 1350.8 L1474.46 1384.24 L1489.01 1384.24 L1489.01 1350.8 L1474.46 1350.8 L1474.46 1350.8  Z" fill="#009af9" fill-rule="evenodd" fill-opacity="1"/>
<polyline clip-path="url(#clip312)" style="stroke:#000000; stroke-linecap:round; stroke-linejoin:round; stroke-width:4; stroke-opacity:1; fill:none" points="1474.46,1350.8 1474.46,1384.24 1489.01,1384.24 1489.01,1350.8 1474.46,1350.8 "/>
<path clip-path="url(#clip312)" d="M1492.66 1351.15 L1492.66 1384.24 L1507.22 1384.24 L1507.22 1351.15 L1492.66 1351.15 L1492.66 1351.15  Z" fill="#009af9" fill-rule="evenodd" fill-opacity="1"/>
<polyline clip-path="url(#clip312)" style="stroke:#000000; stroke-linecap:round; stroke-linejoin:round; stroke-width:4; stroke-opacity:1; fill:none" points="1492.66,1351.15 1492.66,1384.24 1507.22,1384.24 1507.22,1351.15 1492.66,1351.15 "/>
<path clip-path="url(#clip312)" d="M1510.87 1351.49 L1510.87 1384.24 L1525.42 1384.24 L1525.42 1351.49 L1510.87 1351.49 L1510.87 1351.49  Z" fill="#009af9" fill-rule="evenodd" fill-opacity="1"/>
<polyline clip-path="url(#clip312)" style="stroke:#000000; stroke-linecap:round; stroke-linejoin:round; stroke-width:4; stroke-opacity:1; fill:none" points="1510.87,1351.49 1510.87,1384.24 1525.42,1384.24 1525.42,1351.49 1510.87,1351.49 "/>
<path clip-path="url(#clip312)" d="M1529.07 1351.83 L1529.07 1384.24 L1543.62 1384.24 L1543.62 1351.83 L1529.07 1351.83 L1529.07 1351.83  Z" fill="#009af9" fill-rule="evenodd" fill-opacity="1"/>
<polyline clip-path="url(#clip312)" style="stroke:#000000; stroke-linecap:round; stroke-linejoin:round; stroke-width:4; stroke-opacity:1; fill:none" points="1529.07,1351.83 1529.07,1384.24 1543.62,1384.24 1543.62,1351.83 1529.07,1351.83 "/>
<path clip-path="url(#clip312)" d="M1547.27 1352.15 L1547.27 1384.24 L1561.83 1384.24 L1561.83 1352.15 L1547.27 1352.15 L1547.27 1352.15  Z" fill="#009af9" fill-rule="evenodd" fill-opacity="1"/>
<polyline clip-path="url(#clip312)" style="stroke:#000000; stroke-linecap:round; stroke-linejoin:round; stroke-width:4; stroke-opacity:1; fill:none" points="1547.27,1352.15 1547.27,1384.24 1561.83,1384.24 1561.83,1352.15 1547.27,1352.15 "/>
<path clip-path="url(#clip312)" d="M1565.48 1352.47 L1565.48 1384.24 L1580.03 1384.24 L1580.03 1352.47 L1565.48 1352.47 L1565.48 1352.47  Z" fill="#009af9" fill-rule="evenodd" fill-opacity="1"/>
<polyline clip-path="url(#clip312)" style="stroke:#000000; stroke-linecap:round; stroke-linejoin:round; stroke-width:4; stroke-opacity:1; fill:none" points="1565.48,1352.47 1565.48,1384.24 1580.03,1384.24 1580.03,1352.47 1565.48,1352.47 "/>
<path clip-path="url(#clip312)" d="M1583.68 1352.78 L1583.68 1384.24 L1598.23 1384.24 L1598.23 1352.78 L1583.68 1352.78 L1583.68 1352.78  Z" fill="#009af9" fill-rule="evenodd" fill-opacity="1"/>
<polyline clip-path="url(#clip312)" style="stroke:#000000; stroke-linecap:round; stroke-linejoin:round; stroke-width:4; stroke-opacity:1; fill:none" points="1583.68,1352.78 1583.68,1384.24 1598.23,1384.24 1598.23,1352.78 1583.68,1352.78 "/>
<path clip-path="url(#clip312)" d="M1601.88 1353.08 L1601.88 1384.24 L1616.44 1384.24 L1616.44 1353.08 L1601.88 1353.08 L1601.88 1353.08  Z" fill="#009af9" fill-rule="evenodd" fill-opacity="1"/>
<polyline clip-path="url(#clip312)" style="stroke:#000000; stroke-linecap:round; stroke-linejoin:round; stroke-width:4; stroke-opacity:1; fill:none" points="1601.88,1353.08 1601.88,1384.24 1616.44,1384.24 1616.44,1353.08 1601.88,1353.08 "/>
<path clip-path="url(#clip312)" d="M1620.09 1353.37 L1620.09 1384.24 L1634.64 1384.24 L1634.64 1353.37 L1620.09 1353.37 L1620.09 1353.37  Z" fill="#009af9" fill-rule="evenodd" fill-opacity="1"/>
<polyline clip-path="url(#clip312)" style="stroke:#000000; stroke-linecap:round; stroke-linejoin:round; stroke-width:4; stroke-opacity:1; fill:none" points="1620.09,1353.37 1620.09,1384.24 1634.64,1384.24 1634.64,1353.37 1620.09,1353.37 "/>
<path clip-path="url(#clip312)" d="M1638.29 1353.65 L1638.29 1384.24 L1652.85 1384.24 L1652.85 1353.65 L1638.29 1353.65 L1638.29 1353.65  Z" fill="#009af9" fill-rule="evenodd" fill-opacity="1"/>
<polyline clip-path="url(#clip312)" style="stroke:#000000; stroke-linecap:round; stroke-linejoin:round; stroke-width:4; stroke-opacity:1; fill:none" points="1638.29,1353.65 1638.29,1384.24 1652.85,1384.24 1652.85,1353.65 1638.29,1353.65 "/>
<path clip-path="url(#clip312)" d="M1656.5 1353.93 L1656.5 1384.24 L1671.05 1384.24 L1671.05 1353.93 L1656.5 1353.93 L1656.5 1353.93  Z" fill="#009af9" fill-rule="evenodd" fill-opacity="1"/>
<polyline clip-path="url(#clip312)" style="stroke:#000000; stroke-linecap:round; stroke-linejoin:round; stroke-width:4; stroke-opacity:1; fill:none" points="1656.5,1353.93 1656.5,1384.24 1671.05,1384.24 1671.05,1353.93 1656.5,1353.93 "/>
<path clip-path="url(#clip312)" d="M1674.7 1354.2 L1674.7 1384.24 L1689.25 1384.24 L1689.25 1354.2 L1674.7 1354.2 L1674.7 1354.2  Z" fill="#009af9" fill-rule="evenodd" fill-opacity="1"/>
<polyline clip-path="url(#clip312)" style="stroke:#000000; stroke-linecap:round; stroke-linejoin:round; stroke-width:4; stroke-opacity:1; fill:none" points="1674.7,1354.2 1674.7,1384.24 1689.25,1384.24 1689.25,1354.2 1674.7,1354.2 "/>
<path clip-path="url(#clip312)" d="M1692.9 1354.47 L1692.9 1384.24 L1707.46 1384.24 L1707.46 1354.47 L1692.9 1354.47 L1692.9 1354.47  Z" fill="#009af9" fill-rule="evenodd" fill-opacity="1"/>
<polyline clip-path="url(#clip312)" style="stroke:#000000; stroke-linecap:round; stroke-linejoin:round; stroke-width:4; stroke-opacity:1; fill:none" points="1692.9,1354.47 1692.9,1384.24 1707.46,1384.24 1707.46,1354.47 1692.9,1354.47 "/>
<path clip-path="url(#clip312)" d="M1711.11 1354.72 L1711.11 1384.24 L1725.66 1384.24 L1725.66 1354.72 L1711.11 1354.72 L1711.11 1354.72  Z" fill="#009af9" fill-rule="evenodd" fill-opacity="1"/>
<polyline clip-path="url(#clip312)" style="stroke:#000000; stroke-linecap:round; stroke-linejoin:round; stroke-width:4; stroke-opacity:1; fill:none" points="1711.11,1354.72 1711.11,1384.24 1725.66,1384.24 1725.66,1354.72 1711.11,1354.72 "/>
<path clip-path="url(#clip312)" d="M1729.31 1354.97 L1729.31 1384.24 L1743.87 1384.24 L1743.87 1354.97 L1729.31 1354.97 L1729.31 1354.97  Z" fill="#009af9" fill-rule="evenodd" fill-opacity="1"/>
<polyline clip-path="url(#clip312)" style="stroke:#000000; stroke-linecap:round; stroke-linejoin:round; stroke-width:4; stroke-opacity:1; fill:none" points="1729.31,1354.97 1729.31,1384.24 1743.87,1384.24 1743.87,1354.97 1729.31,1354.97 "/>
<path clip-path="url(#clip312)" d="M1747.52 1355.22 L1747.52 1384.24 L1762.07 1384.24 L1762.07 1355.22 L1747.52 1355.22 L1747.52 1355.22  Z" fill="#009af9" fill-rule="evenodd" fill-opacity="1"/>
<polyline clip-path="url(#clip312)" style="stroke:#000000; stroke-linecap:round; stroke-linejoin:round; stroke-width:4; stroke-opacity:1; fill:none" points="1747.52,1355.22 1747.52,1384.24 1762.07,1384.24 1762.07,1355.22 1747.52,1355.22 "/>
<path clip-path="url(#clip312)" d="M1765.72 1355.46 L1765.72 1384.24 L1780.28 1384.24 L1780.28 1355.46 L1765.72 1355.46 L1765.72 1355.46  Z" fill="#009af9" fill-rule="evenodd" fill-opacity="1"/>
<polyline clip-path="url(#clip312)" style="stroke:#000000; stroke-linecap:round; stroke-linejoin:round; stroke-width:4; stroke-opacity:1; fill:none" points="1765.72,1355.46 1765.72,1384.24 1780.28,1384.24 1780.28,1355.46 1765.72,1355.46 "/>
<path clip-path="url(#clip312)" d="M1783.93 1355.69 L1783.93 1384.24 L1798.48 1384.24 L1798.48 1355.69 L1783.93 1355.69 L1783.93 1355.69  Z" fill="#009af9" fill-rule="evenodd" fill-opacity="1"/>
<polyline clip-path="url(#clip312)" style="stroke:#000000; stroke-linecap:round; stroke-linejoin:round; stroke-width:4; stroke-opacity:1; fill:none" points="1783.93,1355.69 1783.93,1384.24 1798.48,1384.24 1798.48,1355.69 1783.93,1355.69 "/>
<path clip-path="url(#clip312)" d="M1802.13 1355.91 L1802.13 1384.24 L1816.68 1384.24 L1816.68 1355.91 L1802.13 1355.91 L1802.13 1355.91  Z" fill="#009af9" fill-rule="evenodd" fill-opacity="1"/>
<polyline clip-path="url(#clip312)" style="stroke:#000000; stroke-linecap:round; stroke-linejoin:round; stroke-width:4; stroke-opacity:1; fill:none" points="1802.13,1355.91 1802.13,1384.24 1816.68,1384.24 1816.68,1355.91 1802.13,1355.91 "/>
<path clip-path="url(#clip312)" d="M1820.33 1356.13 L1820.33 1384.24 L1834.89 1384.24 L1834.89 1356.13 L1820.33 1356.13 L1820.33 1356.13  Z" fill="#009af9" fill-rule="evenodd" fill-opacity="1"/>
<polyline clip-path="url(#clip312)" style="stroke:#000000; stroke-linecap:round; stroke-linejoin:round; stroke-width:4; stroke-opacity:1; fill:none" points="1820.33,1356.13 1820.33,1384.24 1834.89,1384.24 1834.89,1356.13 1820.33,1356.13 "/>
<path clip-path="url(#clip312)" d="M1838.54 1356.35 L1838.54 1384.24 L1853.09 1384.24 L1853.09 1356.35 L1838.54 1356.35 L1838.54 1356.35  Z" fill="#009af9" fill-rule="evenodd" fill-opacity="1"/>
<polyline clip-path="url(#clip312)" style="stroke:#000000; stroke-linecap:round; stroke-linejoin:round; stroke-width:4; stroke-opacity:1; fill:none" points="1838.54,1356.35 1838.54,1384.24 1853.09,1384.24 1853.09,1356.35 1838.54,1356.35 "/>
<path clip-path="url(#clip312)" d="M1856.74 1356.55 L1856.74 1384.24 L1871.3 1384.24 L1871.3 1356.55 L1856.74 1356.55 L1856.74 1356.55  Z" fill="#009af9" fill-rule="evenodd" fill-opacity="1"/>
<polyline clip-path="url(#clip312)" style="stroke:#000000; stroke-linecap:round; stroke-linejoin:round; stroke-width:4; stroke-opacity:1; fill:none" points="1856.74,1356.55 1856.74,1384.24 1871.3,1384.24 1871.3,1356.55 1856.74,1356.55 "/>
<path clip-path="url(#clip312)" d="M1874.95 1356.75 L1874.95 1384.24 L1889.5 1384.24 L1889.5 1356.75 L1874.95 1356.75 L1874.95 1356.75  Z" fill="#009af9" fill-rule="evenodd" fill-opacity="1"/>
<polyline clip-path="url(#clip312)" style="stroke:#000000; stroke-linecap:round; stroke-linejoin:round; stroke-width:4; stroke-opacity:1; fill:none" points="1874.95,1356.75 1874.95,1384.24 1889.5,1384.24 1889.5,1356.75 1874.95,1356.75 "/>
<path clip-path="url(#clip312)" d="M1893.15 1356.95 L1893.15 1384.24 L1907.71 1384.24 L1907.71 1356.95 L1893.15 1356.95 L1893.15 1356.95  Z" fill="#009af9" fill-rule="evenodd" fill-opacity="1"/>
<polyline clip-path="url(#clip312)" style="stroke:#000000; stroke-linecap:round; stroke-linejoin:round; stroke-width:4; stroke-opacity:1; fill:none" points="1893.15,1356.95 1893.15,1384.24 1907.71,1384.24 1907.71,1356.95 1893.15,1356.95 "/>
<path clip-path="url(#clip312)" d="M1911.36 1357.14 L1911.36 1384.24 L1925.91 1384.24 L1925.91 1357.14 L1911.36 1357.14 L1911.36 1357.14  Z" fill="#009af9" fill-rule="evenodd" fill-opacity="1"/>
<polyline clip-path="url(#clip312)" style="stroke:#000000; stroke-linecap:round; stroke-linejoin:round; stroke-width:4; stroke-opacity:1; fill:none" points="1911.36,1357.14 1911.36,1384.24 1925.91,1384.24 1925.91,1357.14 1911.36,1357.14 "/>
<path clip-path="url(#clip312)" d="M1929.56 1357.32 L1929.56 1384.24 L1944.12 1384.24 L1944.12 1357.32 L1929.56 1357.32 L1929.56 1357.32  Z" fill="#009af9" fill-rule="evenodd" fill-opacity="1"/>
<polyline clip-path="url(#clip312)" style="stroke:#000000; stroke-linecap:round; stroke-linejoin:round; stroke-width:4; stroke-opacity:1; fill:none" points="1929.56,1357.32 1929.56,1384.24 1944.12,1384.24 1944.12,1357.32 1929.56,1357.32 "/>
<path clip-path="url(#clip312)" d="M1947.77 1357.5 L1947.77 1384.24 L1962.32 1384.24 L1962.32 1357.5 L1947.77 1357.5 L1947.77 1357.5  Z" fill="#009af9" fill-rule="evenodd" fill-opacity="1"/>
<polyline clip-path="url(#clip312)" style="stroke:#000000; stroke-linecap:round; stroke-linejoin:round; stroke-width:4; stroke-opacity:1; fill:none" points="1947.77,1357.5 1947.77,1384.24 1962.32,1384.24 1962.32,1357.5 1947.77,1357.5 "/>
<path clip-path="url(#clip312)" d="M1965.97 1357.67 L1965.97 1384.24 L1980.53 1384.24 L1980.53 1357.67 L1965.97 1357.67 L1965.97 1357.67  Z" fill="#009af9" fill-rule="evenodd" fill-opacity="1"/>
<polyline clip-path="url(#clip312)" style="stroke:#000000; stroke-linecap:round; stroke-linejoin:round; stroke-width:4; stroke-opacity:1; fill:none" points="1965.97,1357.67 1965.97,1384.24 1980.53,1384.24 1980.53,1357.67 1965.97,1357.67 "/>
<path clip-path="url(#clip312)" d="M1984.18 1357.83 L1984.18 1384.24 L1998.73 1384.24 L1998.73 1357.83 L1984.18 1357.83 L1984.18 1357.83  Z" fill="#009af9" fill-rule="evenodd" fill-opacity="1"/>
<polyline clip-path="url(#clip312)" style="stroke:#000000; stroke-linecap:round; stroke-linejoin:round; stroke-width:4; stroke-opacity:1; fill:none" points="1984.18,1357.83 1984.18,1384.24 1998.73,1384.24 1998.73,1357.83 1984.18,1357.83 "/>
<path clip-path="url(#clip312)" d="M2002.39 1357.99 L2002.39 1384.24 L2016.94 1384.24 L2016.94 1357.99 L2002.39 1357.99 L2002.39 1357.99  Z" fill="#009af9" fill-rule="evenodd" fill-opacity="1"/>
<polyline clip-path="url(#clip312)" style="stroke:#000000; stroke-linecap:round; stroke-linejoin:round; stroke-width:4; stroke-opacity:1; fill:none" points="2002.39,1357.99 2002.39,1384.24 2016.94,1384.24 2016.94,1357.99 2002.39,1357.99 "/>
<path clip-path="url(#clip312)" d="M2020.59 1358.14 L2020.59 1384.24 L2035.15 1384.24 L2035.15 1358.14 L2020.59 1358.14 L2020.59 1358.14  Z" fill="#009af9" fill-rule="evenodd" fill-opacity="1"/>
<polyline clip-path="url(#clip312)" style="stroke:#000000; stroke-linecap:round; stroke-linejoin:round; stroke-width:4; stroke-opacity:1; fill:none" points="2020.59,1358.14 2020.59,1384.24 2035.15,1384.24 2035.15,1358.14 2020.59,1358.14 "/>
<path clip-path="url(#clip312)" d="M2038.8 1358.28 L2038.8 1384.24 L2053.35 1384.24 L2053.35 1358.28 L2038.8 1358.28 L2038.8 1358.28  Z" fill="#009af9" fill-rule="evenodd" fill-opacity="1"/>
<polyline clip-path="url(#clip312)" style="stroke:#000000; stroke-linecap:round; stroke-linejoin:round; stroke-width:4; stroke-opacity:1; fill:none" points="2038.8,1358.28 2038.8,1384.24 2053.35,1384.24 2053.35,1358.28 2038.8,1358.28 "/>
<path clip-path="url(#clip312)" d="M2057 1358.41 L2057 1384.24 L2071.56 1384.24 L2071.56 1358.41 L2057 1358.41 L2057 1358.41  Z" fill="#009af9" fill-rule="evenodd" fill-opacity="1"/>
<polyline clip-path="url(#clip312)" style="stroke:#000000; stroke-linecap:round; stroke-linejoin:round; stroke-width:4; stroke-opacity:1; fill:none" points="2057,1358.41 2057,1384.24 2071.56,1384.24 2071.56,1358.41 2057,1358.41 "/>
<path clip-path="url(#clip312)" d="M2075.21 1358.53 L2075.21 1384.24 L2089.76 1384.24 L2089.76 1358.53 L2075.21 1358.53 L2075.21 1358.53  Z" fill="#009af9" fill-rule="evenodd" fill-opacity="1"/>
<polyline clip-path="url(#clip312)" style="stroke:#000000; stroke-linecap:round; stroke-linejoin:round; stroke-width:4; stroke-opacity:1; fill:none" points="2075.21,1358.53 2075.21,1384.24 2089.76,1384.24 2089.76,1358.53 2075.21,1358.53 "/>
<path clip-path="url(#clip312)" d="M2093.42 1358.64 L2093.42 1384.24 L2107.97 1384.24 L2107.97 1358.64 L2093.42 1358.64 L2093.42 1358.64  Z" fill="#009af9" fill-rule="evenodd" fill-opacity="1"/>
<polyline clip-path="url(#clip312)" style="stroke:#000000; stroke-linecap:round; stroke-linejoin:round; stroke-width:4; stroke-opacity:1; fill:none" points="2093.42,1358.64 2093.42,1384.24 2107.97,1384.24 2107.97,1358.64 2093.42,1358.64 "/>
<path clip-path="url(#clip312)" d="M2111.62 1358.73 L2111.62 1384.24 L2126.18 1384.24 L2126.18 1358.73 L2111.62 1358.73 L2111.62 1358.73  Z" fill="#009af9" fill-rule="evenodd" fill-opacity="1"/>
<polyline clip-path="url(#clip312)" style="stroke:#000000; stroke-linecap:round; stroke-linejoin:round; stroke-width:4; stroke-opacity:1; fill:none" points="2111.62,1358.73 2111.62,1384.24 2126.18,1384.24 2126.18,1358.73 2111.62,1358.73 "/>
<path clip-path="url(#clip312)" d="M2129.83 1358.8 L2129.83 1384.24 L2144.38 1384.24 L2144.38 1358.8 L2129.83 1358.8 L2129.83 1358.8  Z" fill="#009af9" fill-rule="evenodd" fill-opacity="1"/>
<polyline clip-path="url(#clip312)" style="stroke:#000000; stroke-linecap:round; stroke-linejoin:round; stroke-width:4; stroke-opacity:1; fill:none" points="2129.83,1358.8 2129.83,1384.24 2144.38,1384.24 2144.38,1358.8 2129.83,1358.8 "/>
<path clip-path="url(#clip312)" d="M2148.04 1358.85 L2148.04 1384.24 L2162.59 1384.24 L2162.59 1358.85 L2148.04 1358.85 L2148.04 1358.85  Z" fill="#009af9" fill-rule="evenodd" fill-opacity="1"/>
<polyline clip-path="url(#clip312)" style="stroke:#000000; stroke-linecap:round; stroke-linejoin:round; stroke-width:4; stroke-opacity:1; fill:none" points="2148.04,1358.85 2148.04,1384.24 2162.59,1384.24 2162.59,1358.85 2148.04,1358.85 "/>
<path clip-path="url(#clip312)" d="M2166.24 1358.86 L2166.24 1384.24 L2180.8 1384.24 L2180.8 1358.86 L2166.24 1358.86 L2166.24 1358.86  Z" fill="#009af9" fill-rule="evenodd" fill-opacity="1"/>
<polyline clip-path="url(#clip312)" style="stroke:#000000; stroke-linecap:round; stroke-linejoin:round; stroke-width:4; stroke-opacity:1; fill:none" points="2166.24,1358.86 2166.24,1384.24 2180.8,1384.24 2180.8,1358.86 2166.24,1358.86 "/>
<path clip-path="url(#clip312)" d="M2184.45 1358.8 L2184.45 1384.24 L2199.01 1384.24 L2199.01 1358.8 L2184.45 1358.8 L2184.45 1358.8  Z" fill="#009af9" fill-rule="evenodd" fill-opacity="1"/>
<polyline clip-path="url(#clip312)" style="stroke:#000000; stroke-linecap:round; stroke-linejoin:round; stroke-width:4; stroke-opacity:1; fill:none" points="2184.45,1358.8 2184.45,1384.24 2199.01,1384.24 2199.01,1358.8 2184.45,1358.8 "/>
<path clip-path="url(#clip312)" d="M2202.67 1358.61 L2202.67 1384.24 L2217.22 1384.24 L2217.22 1358.61 L2202.67 1358.61 L2202.67 1358.61  Z" fill="#009af9" fill-rule="evenodd" fill-opacity="1"/>
<polyline clip-path="url(#clip312)" style="stroke:#000000; stroke-linecap:round; stroke-linejoin:round; stroke-width:4; stroke-opacity:1; fill:none" points="2202.67,1358.61 2202.67,1384.24 2217.22,1384.24 2217.22,1358.61 2202.67,1358.61 "/>
<path clip-path="url(#clip312)" d="M2220.89 1357.98 L2220.89 1384.24 L2235.44 1384.24 L2235.44 1357.98 L2220.89 1357.98 L2220.89 1357.98  Z" fill="#009af9" fill-rule="evenodd" fill-opacity="1"/>
<polyline clip-path="url(#clip312)" style="stroke:#000000; stroke-linecap:round; stroke-linejoin:round; stroke-width:4; stroke-opacity:1; fill:none" points="2220.89,1357.98 2220.89,1384.24 2235.44,1384.24 2235.44,1357.98 2220.89,1357.98 "/>
<circle clip-path="url(#clip312)" style="fill:#009af9; stroke:none; fill-opacity:0" cx="344.456" cy="86.1857" r="2"/>
<circle clip-path="url(#clip312)" style="fill:#009af9; stroke:none; fill-opacity:0" cx="425.67" cy="1280.58" r="2"/>
<circle clip-path="url(#clip312)" style="fill:#009af9; stroke:none; fill-opacity:0" cx="444.182" cy="1267.18" r="2"/>
<circle clip-path="url(#clip312)" style="fill:#009af9; stroke:none; fill-opacity:0" cx="462.503" cy="1268.22" r="2"/>
<circle clip-path="url(#clip312)" style="fill:#009af9; stroke:none; fill-opacity:0" cx="480.762" cy="1272.1" r="2"/>
<circle clip-path="url(#clip312)" style="fill:#009af9; stroke:none; fill-opacity:0" cx="498.991" cy="1276.67" r="2"/>
<circle clip-path="url(#clip312)" style="fill:#009af9; stroke:none; fill-opacity:0" cx="517.205" cy="1281.27" r="2"/>
<circle clip-path="url(#clip312)" style="fill:#009af9; stroke:none; fill-opacity:0" cx="535.41" cy="1285.66" r="2"/>
<circle clip-path="url(#clip312)" style="fill:#009af9; stroke:none; fill-opacity:0" cx="553.61" cy="1289.77" r="2"/>
<circle clip-path="url(#clip312)" style="fill:#009af9; stroke:none; fill-opacity:0" cx="571.807" cy="1293.57" r="2"/>
<circle clip-path="url(#clip312)" style="fill:#009af9; stroke:none; fill-opacity:0" cx="590.001" cy="1297.09" r="2"/>
<circle clip-path="url(#clip312)" style="fill:#009af9; stroke:none; fill-opacity:0" cx="608.195" cy="1300.33" r="2"/>
<circle clip-path="url(#clip312)" style="fill:#009af9; stroke:none; fill-opacity:0" cx="626.388" cy="1303.33" r="2"/>
<circle clip-path="url(#clip312)" style="fill:#009af9; stroke:none; fill-opacity:0" cx="644.58" cy="1306.11" r="2"/>
<circle clip-path="url(#clip312)" style="fill:#009af9; stroke:none; fill-opacity:0" cx="662.773" cy="1308.68" r="2"/>
<circle clip-path="url(#clip312)" style="fill:#009af9; stroke:none; fill-opacity:0" cx="680.966" cy="1311.07" r="2"/>
<circle clip-path="url(#clip312)" style="fill:#009af9; stroke:none; fill-opacity:0" cx="699.159" cy="1313.3" r="2"/>
<circle clip-path="url(#clip312)" style="fill:#009af9; stroke:none; fill-opacity:0" cx="717.353" cy="1315.38" r="2"/>
<circle clip-path="url(#clip312)" style="fill:#009af9; stroke:none; fill-opacity:0" cx="735.547" cy="1317.32" r="2"/>
<circle clip-path="url(#clip312)" style="fill:#009af9; stroke:none; fill-opacity:0" cx="753.741" cy="1319.15" r="2"/>
<circle clip-path="url(#clip312)" style="fill:#009af9; stroke:none; fill-opacity:0" cx="771.936" cy="1320.86" r="2"/>
<circle clip-path="url(#clip312)" style="fill:#009af9; stroke:none; fill-opacity:0" cx="790.131" cy="1322.47" r="2"/>
<circle clip-path="url(#clip312)" style="fill:#009af9; stroke:none; fill-opacity:0" cx="808.327" cy="1323.99" r="2"/>
<circle clip-path="url(#clip312)" style="fill:#009af9; stroke:none; fill-opacity:0" cx="826.522" cy="1325.43" r="2"/>
<circle clip-path="url(#clip312)" style="fill:#009af9; stroke:none; fill-opacity:0" cx="844.719" cy="1326.79" r="2"/>
<circle clip-path="url(#clip312)" style="fill:#009af9; stroke:none; fill-opacity:0" cx="862.915" cy="1328.07" r="2"/>
<circle clip-path="url(#clip312)" style="fill:#009af9; stroke:none; fill-opacity:0" cx="881.112" cy="1329.3" r="2"/>
<circle clip-path="url(#clip312)" style="fill:#009af9; stroke:none; fill-opacity:0" cx="899.31" cy="1330.46" r="2"/>
<circle clip-path="url(#clip312)" style="fill:#009af9; stroke:none; fill-opacity:0" cx="917.507" cy="1331.56" r="2"/>
<circle clip-path="url(#clip312)" style="fill:#009af9; stroke:none; fill-opacity:0" cx="935.705" cy="1332.62" r="2"/>
<circle clip-path="url(#clip312)" style="fill:#009af9; stroke:none; fill-opacity:0" cx="953.903" cy="1333.62" r="2"/>
<circle clip-path="url(#clip312)" style="fill:#009af9; stroke:none; fill-opacity:0" cx="972.102" cy="1334.58" r="2"/>
<circle clip-path="url(#clip312)" style="fill:#009af9; stroke:none; fill-opacity:0" cx="990.3" cy="1335.5" r="2"/>
<circle clip-path="url(#clip312)" style="fill:#009af9; stroke:none; fill-opacity:0" cx="1008.5" cy="1336.38" r="2"/>
<circle clip-path="url(#clip312)" style="fill:#009af9; stroke:none; fill-opacity:0" cx="1026.7" cy="1337.22" r="2"/>
<circle clip-path="url(#clip312)" style="fill:#009af9; stroke:none; fill-opacity:0" cx="1044.9" cy="1338.03" r="2"/>
<circle clip-path="url(#clip312)" style="fill:#009af9; stroke:none; fill-opacity:0" cx="1063.1" cy="1338.8" r="2"/>
<circle clip-path="url(#clip312)" style="fill:#009af9; stroke:none; fill-opacity:0" cx="1081.3" cy="1339.55" r="2"/>
<circle clip-path="url(#clip312)" style="fill:#009af9; stroke:none; fill-opacity:0" cx="1099.5" cy="1340.27" r="2"/>
<circle clip-path="url(#clip312)" style="fill:#009af9; stroke:none; fill-opacity:0" cx="1117.7" cy="1340.95" r="2"/>
<circle clip-path="url(#clip312)" style="fill:#009af9; stroke:none; fill-opacity:0" cx="1135.9" cy="1341.62" r="2"/>
<circle clip-path="url(#clip312)" style="fill:#009af9; stroke:none; fill-opacity:0" cx="1154.1" cy="1342.26" r="2"/>
<circle clip-path="url(#clip312)" style="fill:#009af9; stroke:none; fill-opacity:0" cx="1172.3" cy="1342.88" r="2"/>
<circle clip-path="url(#clip312)" style="fill:#009af9; stroke:none; fill-opacity:0" cx="1190.5" cy="1343.47" r="2"/>
<circle clip-path="url(#clip312)" style="fill:#009af9; stroke:none; fill-opacity:0" cx="1208.7" cy="1344.05" r="2"/>
<circle clip-path="url(#clip312)" style="fill:#009af9; stroke:none; fill-opacity:0" cx="1226.9" cy="1344.6" r="2"/>
<circle clip-path="url(#clip312)" style="fill:#009af9; stroke:none; fill-opacity:0" cx="1245.11" cy="1345.14" r="2"/>
<circle clip-path="url(#clip312)" style="fill:#009af9; stroke:none; fill-opacity:0" cx="1263.31" cy="1345.66" r="2"/>
<circle clip-path="url(#clip312)" style="fill:#009af9; stroke:none; fill-opacity:0" cx="1281.51" cy="1346.16" r="2"/>
<circle clip-path="url(#clip312)" style="fill:#009af9; stroke:none; fill-opacity:0" cx="1299.71" cy="1346.65" r="2"/>
<circle clip-path="url(#clip312)" style="fill:#009af9; stroke:none; fill-opacity:0" cx="1317.91" cy="1347.12" r="2"/>
<circle clip-path="url(#clip312)" style="fill:#009af9; stroke:none; fill-opacity:0" cx="1336.12" cy="1347.58" r="2"/>
<circle clip-path="url(#clip312)" style="fill:#009af9; stroke:none; fill-opacity:0" cx="1354.32" cy="1348.03" r="2"/>
<circle clip-path="url(#clip312)" style="fill:#009af9; stroke:none; fill-opacity:0" cx="1372.52" cy="1348.46" r="2"/>
<circle clip-path="url(#clip312)" style="fill:#009af9; stroke:none; fill-opacity:0" cx="1390.72" cy="1348.88" r="2"/>
<circle clip-path="url(#clip312)" style="fill:#009af9; stroke:none; fill-opacity:0" cx="1408.93" cy="1349.28" r="2"/>
<circle clip-path="url(#clip312)" style="fill:#009af9; stroke:none; fill-opacity:0" cx="1427.13" cy="1349.68" r="2"/>
<circle clip-path="url(#clip312)" style="fill:#009af9; stroke:none; fill-opacity:0" cx="1445.33" cy="1350.06" r="2"/>
<circle clip-path="url(#clip312)" style="fill:#009af9; stroke:none; fill-opacity:0" cx="1463.53" cy="1350.43" r="2"/>
<circle clip-path="url(#clip312)" style="fill:#009af9; stroke:none; fill-opacity:0" cx="1481.74" cy="1350.8" r="2"/>
<circle clip-path="url(#clip312)" style="fill:#009af9; stroke:none; fill-opacity:0" cx="1499.94" cy="1351.15" r="2"/>
<circle clip-path="url(#clip312)" style="fill:#009af9; stroke:none; fill-opacity:0" cx="1518.14" cy="1351.49" r="2"/>
<circle clip-path="url(#clip312)" style="fill:#009af9; stroke:none; fill-opacity:0" cx="1536.35" cy="1351.83" r="2"/>
<circle clip-path="url(#clip312)" style="fill:#009af9; stroke:none; fill-opacity:0" cx="1554.55" cy="1352.15" r="2"/>
<circle clip-path="url(#clip312)" style="fill:#009af9; stroke:none; fill-opacity:0" cx="1572.75" cy="1352.47" r="2"/>
<circle clip-path="url(#clip312)" style="fill:#009af9; stroke:none; fill-opacity:0" cx="1590.96" cy="1352.78" r="2"/>
<circle clip-path="url(#clip312)" style="fill:#009af9; stroke:none; fill-opacity:0" cx="1609.16" cy="1353.08" r="2"/>
<circle clip-path="url(#clip312)" style="fill:#009af9; stroke:none; fill-opacity:0" cx="1627.37" cy="1353.37" r="2"/>
<circle clip-path="url(#clip312)" style="fill:#009af9; stroke:none; fill-opacity:0" cx="1645.57" cy="1353.65" r="2"/>
<circle clip-path="url(#clip312)" style="fill:#009af9; stroke:none; fill-opacity:0" cx="1663.77" cy="1353.93" r="2"/>
<circle clip-path="url(#clip312)" style="fill:#009af9; stroke:none; fill-opacity:0" cx="1681.98" cy="1354.2" r="2"/>
<circle clip-path="url(#clip312)" style="fill:#009af9; stroke:none; fill-opacity:0" cx="1700.18" cy="1354.47" r="2"/>
<circle clip-path="url(#clip312)" style="fill:#009af9; stroke:none; fill-opacity:0" cx="1718.39" cy="1354.72" r="2"/>
<circle clip-path="url(#clip312)" style="fill:#009af9; stroke:none; fill-opacity:0" cx="1736.59" cy="1354.97" r="2"/>
<circle clip-path="url(#clip312)" style="fill:#009af9; stroke:none; fill-opacity:0" cx="1754.79" cy="1355.22" r="2"/>
<circle clip-path="url(#clip312)" style="fill:#009af9; stroke:none; fill-opacity:0" cx="1773" cy="1355.46" r="2"/>
<circle clip-path="url(#clip312)" style="fill:#009af9; stroke:none; fill-opacity:0" cx="1791.2" cy="1355.69" r="2"/>
<circle clip-path="url(#clip312)" style="fill:#009af9; stroke:none; fill-opacity:0" cx="1809.41" cy="1355.91" r="2"/>
<circle clip-path="url(#clip312)" style="fill:#009af9; stroke:none; fill-opacity:0" cx="1827.61" cy="1356.13" r="2"/>
<circle clip-path="url(#clip312)" style="fill:#009af9; stroke:none; fill-opacity:0" cx="1845.82" cy="1356.35" r="2"/>
<circle clip-path="url(#clip312)" style="fill:#009af9; stroke:none; fill-opacity:0" cx="1864.02" cy="1356.55" r="2"/>
<circle clip-path="url(#clip312)" style="fill:#009af9; stroke:none; fill-opacity:0" cx="1882.23" cy="1356.75" r="2"/>
<circle clip-path="url(#clip312)" style="fill:#009af9; stroke:none; fill-opacity:0" cx="1900.43" cy="1356.95" r="2"/>
<circle clip-path="url(#clip312)" style="fill:#009af9; stroke:none; fill-opacity:0" cx="1918.64" cy="1357.14" r="2"/>
<circle clip-path="url(#clip312)" style="fill:#009af9; stroke:none; fill-opacity:0" cx="1936.84" cy="1357.32" r="2"/>
<circle clip-path="url(#clip312)" style="fill:#009af9; stroke:none; fill-opacity:0" cx="1955.05" cy="1357.5" r="2"/>
<circle clip-path="url(#clip312)" style="fill:#009af9; stroke:none; fill-opacity:0" cx="1973.25" cy="1357.67" r="2"/>
<circle clip-path="url(#clip312)" style="fill:#009af9; stroke:none; fill-opacity:0" cx="1991.46" cy="1357.83" r="2"/>
<circle clip-path="url(#clip312)" style="fill:#009af9; stroke:none; fill-opacity:0" cx="2009.66" cy="1357.99" r="2"/>
<circle clip-path="url(#clip312)" style="fill:#009af9; stroke:none; fill-opacity:0" cx="2027.87" cy="1358.14" r="2"/>
<circle clip-path="url(#clip312)" style="fill:#009af9; stroke:none; fill-opacity:0" cx="2046.07" cy="1358.28" r="2"/>
<circle clip-path="url(#clip312)" style="fill:#009af9; stroke:none; fill-opacity:0" cx="2064.28" cy="1358.41" r="2"/>
<circle clip-path="url(#clip312)" style="fill:#009af9; stroke:none; fill-opacity:0" cx="2082.49" cy="1358.53" r="2"/>
<circle clip-path="url(#clip312)" style="fill:#009af9; stroke:none; fill-opacity:0" cx="2100.69" cy="1358.64" r="2"/>
<circle clip-path="url(#clip312)" style="fill:#009af9; stroke:none; fill-opacity:0" cx="2118.9" cy="1358.73" r="2"/>
<circle clip-path="url(#clip312)" style="fill:#009af9; stroke:none; fill-opacity:0" cx="2137.11" cy="1358.8" r="2"/>
<circle clip-path="url(#clip312)" style="fill:#009af9; stroke:none; fill-opacity:0" cx="2155.31" cy="1358.85" r="2"/>
<circle clip-path="url(#clip312)" style="fill:#009af9; stroke:none; fill-opacity:0" cx="2173.52" cy="1358.86" r="2"/>
<circle clip-path="url(#clip312)" style="fill:#009af9; stroke:none; fill-opacity:0" cx="2191.73" cy="1358.8" r="2"/>
<circle clip-path="url(#clip312)" style="fill:#009af9; stroke:none; fill-opacity:0" cx="2209.94" cy="1358.61" r="2"/>
<circle clip-path="url(#clip312)" style="fill:#009af9; stroke:none; fill-opacity:0" cx="2228.17" cy="1357.98" r="2"/>
<path clip-path="url(#clip310)" d="M2015.94 196.789 L2281.66 196.789 L2281.66 93.1086 L2015.94 93.1086  Z" fill="#ffffff" fill-rule="evenodd" fill-opacity="1"/>
<polyline clip-path="url(#clip310)" style="stroke:#000000; stroke-linecap:round; stroke-linejoin:round; stroke-width:4; stroke-opacity:1; fill:none" points="2015.94,196.789 2281.66,196.789 2281.66,93.1086 2015.94,93.1086 2015.94,196.789 "/>
<path clip-path="url(#clip310)" d="M2039.64 165.685 L2181.83 165.685 L2181.83 124.213 L2039.64 124.213 L2039.64 165.685  Z" fill="#009af9" fill-rule="evenodd" fill-opacity="1"/>
<polyline clip-path="url(#clip310)" style="stroke:#000000; stroke-linecap:round; stroke-linejoin:round; stroke-width:4; stroke-opacity:1; fill:none" points="2039.64,165.685 2181.83,165.685 2181.83,124.213 2039.64,124.213 2039.64,165.685 "/>
<path clip-path="url(#clip310)" d="M2219.37 164.636 Q2217.57 169.266 2215.85 170.678 Q2214.14 172.09 2211.27 172.09 L2207.87 172.09 L2207.87 168.525 L2210.37 168.525 Q2212.13 168.525 2213.1 167.692 Q2214.07 166.858 2215.25 163.756 L2216.02 161.812 L2205.53 136.303 L2210.04 136.303 L2218.15 156.581 L2226.25 136.303 L2230.76 136.303 L2219.37 164.636 Z" fill="#000000" fill-rule="evenodd" fill-opacity="1" /><path clip-path="url(#clip310)" d="M2238.05 158.293 L2245.69 158.293 L2245.69 131.928 L2237.38 133.595 L2237.38 129.335 L2245.65 127.669 L2250.32 127.669 L2250.32 158.293 L2257.96 158.293 L2257.96 162.229 L2238.05 162.229 L2238.05 158.293 Z" fill="#000000" fill-rule="evenodd" fill-opacity="1" /></svg>
