<?xml version="1.0" encoding="utf-8"?>
<svg xmlns="http://www.w3.org/2000/svg" xmlns:xlink="http://www.w3.org/1999/xlink" width="600" height="400" viewBox="0 0 2400 1600">
<defs>
  <clipPath id="clip990">
    <rect x="0" y="0" width="2400" height="1600"/>
  </clipPath>
</defs>
<path clip-path="url(#clip990)" d="M0 1600 L2400 1600 L2400 0 L0 0  Z" fill="#ffffff" fill-rule="evenodd" fill-opacity="1"/>
<defs>
  <clipPath id="clip991">
    <rect x="480" y="0" width="1681" height="1600"/>
  </clipPath>
</defs>
<defs>
  <clipPath id="clip992">
    <rect x="250" y="47" width="2104" height="1377"/>
  </clipPath>
</defs>
<path clip-path="url(#clip990)" d="M250.028 1423.18 L2352.76 1423.18 L2352.76 47.2441 L250.028 47.2441  Z" fill="#ffffff" fill-rule="evenodd" fill-opacity="1"/>
<polyline clip-path="url(#clip992)" style="stroke:#000000; stroke-linecap:round; stroke-linejoin:round; stroke-width:2; stroke-opacity:0.1; fill:none" points="309.539,1423.18 309.539,47.2441 "/>
<polyline clip-path="url(#clip992)" style="stroke:#000000; stroke-linecap:round; stroke-linejoin:round; stroke-width:2; stroke-opacity:0.1; fill:none" points="970.774,1423.18 970.774,47.2441 "/>
<polyline clip-path="url(#clip992)" style="stroke:#000000; stroke-linecap:round; stroke-linejoin:round; stroke-width:2; stroke-opacity:0.1; fill:none" points="1632.01,1423.18 1632.01,47.2441 "/>
<polyline clip-path="url(#clip992)" style="stroke:#000000; stroke-linecap:round; stroke-linejoin:round; stroke-width:2; stroke-opacity:0.1; fill:none" points="2293.24,1423.18 2293.24,47.2441 "/>
<polyline clip-path="url(#clip990)" style="stroke:#000000; stroke-linecap:round; stroke-linejoin:round; stroke-width:4; stroke-opacity:1; fill:none" points="250.028,1423.18 2352.76,1423.18 "/>
<polyline clip-path="url(#clip990)" style="stroke:#000000; stroke-linecap:round; stroke-linejoin:round; stroke-width:4; stroke-opacity:1; fill:none" points="309.539,1423.18 309.539,1404.28 "/>
<polyline clip-path="url(#clip990)" style="stroke:#000000; stroke-linecap:round; stroke-linejoin:round; stroke-width:4; stroke-opacity:1; fill:none" points="970.774,1423.18 970.774,1404.28 "/>
<polyline clip-path="url(#clip990)" style="stroke:#000000; stroke-linecap:round; stroke-linejoin:round; stroke-width:4; stroke-opacity:1; fill:none" points="1632.01,1423.18 1632.01,1404.28 "/>
<polyline clip-path="url(#clip990)" style="stroke:#000000; stroke-linecap:round; stroke-linejoin:round; stroke-width:4; stroke-opacity:1; fill:none" points="2293.24,1423.18 2293.24,1404.28 "/>
<path clip-path="url(#clip990)" d="M309.539 1454.1 Q305.928 1454.1 304.1 1457.66 Q302.294 1461.2 302.294 1468.33 Q302.294 1475.44 304.1 1479.01 Q305.928 1482.55 309.539 1482.55 Q313.174 1482.55 314.979 1479.01 Q316.808 1475.44 316.808 1468.33 Q316.808 1461.2 314.979 1457.66 Q313.174 1454.1 309.539 1454.1 M309.539 1450.39 Q315.349 1450.39 318.405 1455 Q321.484 1459.58 321.484 1468.33 Q321.484 1477.06 318.405 1481.67 Q315.349 1486.25 309.539 1486.25 Q303.729 1486.25 300.65 1481.67 Q297.595 1477.06 297.595 1468.33 Q297.595 1459.58 300.65 1455 Q303.729 1450.39 309.539 1450.39 Z" fill="#000000" fill-rule="evenodd" fill-opacity="1" /><path clip-path="url(#clip990)" d="M930.393 1451.02 L948.749 1451.02 L948.749 1454.96 L934.675 1454.96 L934.675 1463.43 Q935.694 1463.08 936.712 1462.92 Q937.731 1462.73 938.749 1462.73 Q944.536 1462.73 947.916 1465.9 Q951.295 1469.08 951.295 1474.49 Q951.295 1480.07 947.823 1483.17 Q944.351 1486.25 938.032 1486.25 Q935.856 1486.25 933.587 1485.88 Q931.342 1485.51 928.934 1484.77 L928.934 1480.07 Q931.018 1481.2 933.24 1481.76 Q935.462 1482.32 937.939 1482.32 Q941.944 1482.32 944.282 1480.21 Q946.619 1478.1 946.619 1474.49 Q946.619 1470.88 944.282 1468.77 Q941.944 1466.67 937.939 1466.67 Q936.064 1466.67 934.189 1467.08 Q932.337 1467.5 930.393 1468.38 L930.393 1451.02 Z" fill="#000000" fill-rule="evenodd" fill-opacity="1" /><path clip-path="url(#clip990)" d="M970.508 1454.1 Q966.897 1454.1 965.068 1457.66 Q963.263 1461.2 963.263 1468.33 Q963.263 1475.44 965.068 1479.01 Q966.897 1482.55 970.508 1482.55 Q974.142 1482.55 975.948 1479.01 Q977.777 1475.44 977.777 1468.33 Q977.777 1461.2 975.948 1457.66 Q974.142 1454.1 970.508 1454.1 M970.508 1450.39 Q976.318 1450.39 979.374 1455 Q982.453 1459.58 982.453 1468.33 Q982.453 1477.06 979.374 1481.67 Q976.318 1486.25 970.508 1486.25 Q964.698 1486.25 961.619 1481.67 Q958.564 1477.06 958.564 1468.33 Q958.564 1459.58 961.619 1455 Q964.698 1450.39 970.508 1450.39 Z" fill="#000000" fill-rule="evenodd" fill-opacity="1" /><path clip-path="url(#clip990)" d="M1000.67 1454.1 Q997.059 1454.1 995.23 1457.66 Q993.425 1461.2 993.425 1468.33 Q993.425 1475.44 995.23 1479.01 Q997.059 1482.55 1000.67 1482.55 Q1004.3 1482.55 1006.11 1479.01 Q1007.94 1475.44 1007.94 1468.33 Q1007.94 1461.2 1006.11 1457.66 Q1004.3 1454.1 1000.67 1454.1 M1000.67 1450.39 Q1006.48 1450.39 1009.54 1455 Q1012.61 1459.58 1012.61 1468.33 Q1012.61 1477.06 1009.54 1481.67 Q1006.48 1486.25 1000.67 1486.25 Q994.86 1486.25 991.781 1481.67 Q988.726 1477.06 988.726 1468.33 Q988.726 1459.58 991.781 1455 Q994.86 1450.39 1000.67 1450.39 Z" fill="#000000" fill-rule="evenodd" fill-opacity="1" /><path clip-path="url(#clip990)" d="M1576.54 1481.64 L1584.17 1481.64 L1584.17 1455.28 L1575.86 1456.95 L1575.86 1452.69 L1584.13 1451.02 L1588.8 1451.02 L1588.8 1481.64 L1596.44 1481.64 L1596.44 1485.58 L1576.54 1485.58 L1576.54 1481.64 Z" fill="#000000" fill-rule="evenodd" fill-opacity="1" /><path clip-path="url(#clip990)" d="M1615.89 1454.1 Q1612.28 1454.1 1610.45 1457.66 Q1608.64 1461.2 1608.64 1468.33 Q1608.64 1475.44 1610.45 1479.01 Q1612.28 1482.55 1615.89 1482.55 Q1619.52 1482.55 1621.33 1479.01 Q1623.16 1475.44 1623.16 1468.33 Q1623.16 1461.2 1621.33 1457.66 Q1619.52 1454.1 1615.89 1454.1 M1615.89 1450.39 Q1621.7 1450.39 1624.75 1455 Q1627.83 1459.58 1627.83 1468.33 Q1627.83 1477.06 1624.75 1481.67 Q1621.7 1486.25 1615.89 1486.25 Q1610.08 1486.25 1607 1481.67 Q1603.94 1477.06 1603.94 1468.33 Q1603.94 1459.58 1607 1455 Q1610.08 1450.39 1615.89 1450.39 Z" fill="#000000" fill-rule="evenodd" fill-opacity="1" /><path clip-path="url(#clip990)" d="M1646.05 1454.1 Q1642.44 1454.1 1640.61 1457.66 Q1638.8 1461.2 1638.8 1468.33 Q1638.8 1475.44 1640.61 1479.01 Q1642.44 1482.55 1646.05 1482.55 Q1649.68 1482.55 1651.49 1479.01 Q1653.32 1475.44 1653.32 1468.33 Q1653.32 1461.2 1651.49 1457.66 Q1649.68 1454.1 1646.05 1454.1 M1646.05 1450.39 Q1651.86 1450.39 1654.91 1455 Q1657.99 1459.58 1657.99 1468.33 Q1657.99 1477.06 1654.91 1481.67 Q1651.86 1486.25 1646.05 1486.25 Q1640.24 1486.25 1637.16 1481.67 Q1634.1 1477.06 1634.1 1468.33 Q1634.1 1459.58 1637.16 1455 Q1640.24 1450.39 1646.05 1450.39 Z" fill="#000000" fill-rule="evenodd" fill-opacity="1" /><path clip-path="url(#clip990)" d="M1676.21 1454.1 Q1672.6 1454.1 1670.77 1457.66 Q1668.97 1461.2 1668.97 1468.33 Q1668.97 1475.44 1670.77 1479.01 Q1672.6 1482.55 1676.21 1482.55 Q1679.84 1482.55 1681.65 1479.01 Q1683.48 1475.44 1683.48 1468.33 Q1683.48 1461.2 1681.65 1457.66 Q1679.84 1454.1 1676.21 1454.1 M1676.21 1450.39 Q1682.02 1450.39 1685.08 1455 Q1688.16 1459.58 1688.16 1468.33 Q1688.16 1477.06 1685.08 1481.67 Q1682.02 1486.25 1676.21 1486.25 Q1670.4 1486.25 1667.32 1481.67 Q1664.27 1477.06 1664.27 1468.33 Q1664.27 1459.58 1667.32 1455 Q1670.4 1450.39 1676.21 1450.39 Z" fill="#000000" fill-rule="evenodd" fill-opacity="1" /><path clip-path="url(#clip990)" d="M2237.77 1481.64 L2245.41 1481.64 L2245.41 1455.28 L2237.1 1456.95 L2237.1 1452.69 L2245.36 1451.02 L2250.04 1451.02 L2250.04 1481.64 L2257.68 1481.64 L2257.68 1485.58 L2237.77 1485.58 L2237.77 1481.64 Z" fill="#000000" fill-rule="evenodd" fill-opacity="1" /><path clip-path="url(#clip990)" d="M2267.17 1451.02 L2285.52 1451.02 L2285.52 1454.96 L2271.45 1454.96 L2271.45 1463.43 Q2272.47 1463.08 2273.49 1462.92 Q2274.51 1462.73 2275.52 1462.73 Q2281.31 1462.73 2284.69 1465.9 Q2288.07 1469.08 2288.07 1474.49 Q2288.07 1480.07 2284.6 1483.17 Q2281.13 1486.25 2274.81 1486.25 Q2272.63 1486.25 2270.36 1485.88 Q2268.12 1485.51 2265.71 1484.77 L2265.71 1480.07 Q2267.79 1481.2 2270.02 1481.76 Q2272.24 1482.32 2274.71 1482.32 Q2278.72 1482.32 2281.06 1480.21 Q2283.4 1478.1 2283.4 1474.49 Q2283.4 1470.88 2281.06 1468.77 Q2278.72 1466.67 2274.71 1466.67 Q2272.84 1466.67 2270.96 1467.08 Q2269.11 1467.5 2267.17 1468.38 L2267.17 1451.02 Z" fill="#000000" fill-rule="evenodd" fill-opacity="1" /><path clip-path="url(#clip990)" d="M2307.28 1454.1 Q2303.67 1454.1 2301.84 1457.66 Q2300.04 1461.2 2300.04 1468.33 Q2300.04 1475.44 2301.84 1479.01 Q2303.67 1482.55 2307.28 1482.55 Q2310.92 1482.55 2312.72 1479.01 Q2314.55 1475.44 2314.55 1468.33 Q2314.55 1461.2 2312.72 1457.66 Q2310.92 1454.1 2307.28 1454.1 M2307.28 1450.39 Q2313.09 1450.39 2316.15 1455 Q2319.23 1459.58 2319.23 1468.33 Q2319.23 1477.06 2316.15 1481.67 Q2313.09 1486.25 2307.28 1486.25 Q2301.47 1486.25 2298.4 1481.67 Q2295.34 1477.06 2295.34 1468.33 Q2295.34 1459.58 2298.4 1455 Q2301.47 1450.39 2307.28 1450.39 Z" fill="#000000" fill-rule="evenodd" fill-opacity="1" /><path clip-path="url(#clip990)" d="M2337.45 1454.1 Q2333.83 1454.1 2332.01 1457.66 Q2330.2 1461.2 2330.2 1468.33 Q2330.2 1475.44 2332.01 1479.01 Q2333.83 1482.55 2337.45 1482.55 Q2341.08 1482.55 2342.89 1479.01 Q2344.71 1475.44 2344.71 1468.33 Q2344.71 1461.2 2342.89 1457.66 Q2341.08 1454.1 2337.45 1454.1 M2337.45 1450.39 Q2343.26 1450.39 2346.31 1455 Q2349.39 1459.58 2349.39 1468.33 Q2349.39 1477.06 2346.31 1481.67 Q2343.26 1486.25 2337.45 1486.25 Q2331.64 1486.25 2328.56 1481.67 Q2325.5 1477.06 2325.5 1468.33 Q2325.5 1459.58 2328.56 1455 Q2331.64 1450.39 2337.45 1450.39 Z" fill="#000000" fill-rule="evenodd" fill-opacity="1" /><path clip-path="url(#clip990)" d="M1300.45 1522.27 L1300.45 1532.4 L1312.52 1532.4 L1312.52 1536.95 L1300.45 1536.95 L1300.45 1556.3 Q1300.45 1560.66 1301.63 1561.9 Q1302.84 1563.14 1306.5 1563.14 L1312.52 1563.14 L1312.52 1568.04 L1306.5 1568.04 Q1299.72 1568.04 1297.14 1565.53 Q1294.56 1562.98 1294.56 1556.3 L1294.56 1536.95 L1290.27 1536.95 L1290.27 1532.4 L1294.56 1532.4 L1294.56 1522.27 L1300.45 1522.27 Z" fill="#000000" fill-rule="evenodd" fill-opacity="1" /><polyline clip-path="url(#clip992)" style="stroke:#000000; stroke-linecap:round; stroke-linejoin:round; stroke-width:2; stroke-opacity:0.1; fill:none" points="250.028,1195.66 2352.76,1195.66 "/>
<polyline clip-path="url(#clip992)" style="stroke:#000000; stroke-linecap:round; stroke-linejoin:round; stroke-width:2; stroke-opacity:0.1; fill:none" points="250.028,820.552 2352.76,820.552 "/>
<polyline clip-path="url(#clip992)" style="stroke:#000000; stroke-linecap:round; stroke-linejoin:round; stroke-width:2; stroke-opacity:0.1; fill:none" points="250.028,445.444 2352.76,445.444 "/>
<polyline clip-path="url(#clip992)" style="stroke:#000000; stroke-linecap:round; stroke-linejoin:round; stroke-width:2; stroke-opacity:0.1; fill:none" points="250.028,70.3363 2352.76,70.3363 "/>
<polyline clip-path="url(#clip990)" style="stroke:#000000; stroke-linecap:round; stroke-linejoin:round; stroke-width:4; stroke-opacity:1; fill:none" points="250.028,1423.18 250.028,47.2441 "/>
<polyline clip-path="url(#clip990)" style="stroke:#000000; stroke-linecap:round; stroke-linejoin:round; stroke-width:4; stroke-opacity:1; fill:none" points="250.028,1195.66 268.926,1195.66 "/>
<polyline clip-path="url(#clip990)" style="stroke:#000000; stroke-linecap:round; stroke-linejoin:round; stroke-width:4; stroke-opacity:1; fill:none" points="250.028,820.552 268.926,820.552 "/>
<polyline clip-path="url(#clip990)" style="stroke:#000000; stroke-linecap:round; stroke-linejoin:round; stroke-width:4; stroke-opacity:1; fill:none" points="250.028,445.444 268.926,445.444 "/>
<polyline clip-path="url(#clip990)" style="stroke:#000000; stroke-linecap:round; stroke-linejoin:round; stroke-width:4; stroke-opacity:1; fill:none" points="250.028,70.3363 268.926,70.3363 "/>
<path clip-path="url(#clip990)" d="M126.691 1181.46 Q123.08 1181.46 121.251 1185.02 Q119.445 1188.57 119.445 1195.7 Q119.445 1202.8 121.251 1206.37 Q123.08 1209.91 126.691 1209.91 Q130.325 1209.91 132.13 1206.37 Q133.959 1202.8 133.959 1195.7 Q133.959 1188.57 132.13 1185.02 Q130.325 1181.46 126.691 1181.46 M126.691 1177.76 Q132.501 1177.76 135.556 1182.36 Q138.635 1186.95 138.635 1195.7 Q138.635 1204.42 135.556 1209.03 Q132.501 1213.61 126.691 1213.61 Q120.88 1213.61 117.802 1209.03 Q114.746 1204.42 114.746 1195.7 Q114.746 1186.95 117.802 1182.36 Q120.88 1177.76 126.691 1177.76 Z" fill="#000000" fill-rule="evenodd" fill-opacity="1" /><path clip-path="url(#clip990)" d="M146.853 1207.06 L151.737 1207.06 L151.737 1212.94 L146.853 1212.94 L146.853 1207.06 Z" fill="#000000" fill-rule="evenodd" fill-opacity="1" /><path clip-path="url(#clip990)" d="M162.732 1209.01 L170.371 1209.01 L170.371 1182.64 L162.061 1184.31 L162.061 1180.05 L170.325 1178.38 L175.001 1178.38 L175.001 1209.01 L182.639 1209.01 L182.639 1212.94 L162.732 1212.94 L162.732 1209.01 Z" fill="#000000" fill-rule="evenodd" fill-opacity="1" /><path clip-path="url(#clip990)" d="M202.084 1181.46 Q198.473 1181.46 196.644 1185.02 Q194.838 1188.57 194.838 1195.7 Q194.838 1202.8 196.644 1206.37 Q198.473 1209.91 202.084 1209.91 Q205.718 1209.91 207.524 1206.37 Q209.352 1202.8 209.352 1195.7 Q209.352 1188.57 207.524 1185.02 Q205.718 1181.46 202.084 1181.46 M202.084 1177.76 Q207.894 1177.76 210.949 1182.36 Q214.028 1186.95 214.028 1195.7 Q214.028 1204.42 210.949 1209.03 Q207.894 1213.61 202.084 1213.61 Q196.274 1213.61 193.195 1209.03 Q190.139 1204.42 190.139 1195.7 Q190.139 1186.95 193.195 1182.36 Q196.274 1177.76 202.084 1177.76 Z" fill="#000000" fill-rule="evenodd" fill-opacity="1" /><path clip-path="url(#clip990)" d="M128.288 806.351 Q124.677 806.351 122.848 809.916 Q121.043 813.458 121.043 820.587 Q121.043 827.694 122.848 831.258 Q124.677 834.8 128.288 834.8 Q131.922 834.8 133.728 831.258 Q135.556 827.694 135.556 820.587 Q135.556 813.458 133.728 809.916 Q131.922 806.351 128.288 806.351 M128.288 802.647 Q134.098 802.647 137.154 807.254 Q140.232 811.837 140.232 820.587 Q140.232 829.314 137.154 833.92 Q134.098 838.504 128.288 838.504 Q122.478 838.504 119.399 833.92 Q116.343 829.314 116.343 820.587 Q116.343 811.837 119.399 807.254 Q122.478 802.647 128.288 802.647 Z" fill="#000000" fill-rule="evenodd" fill-opacity="1" /><path clip-path="url(#clip990)" d="M148.45 831.953 L153.334 831.953 L153.334 837.832 L148.45 837.832 L148.45 831.953 Z" fill="#000000" fill-rule="evenodd" fill-opacity="1" /><path clip-path="url(#clip990)" d="M164.329 833.897 L171.968 833.897 L171.968 807.532 L163.658 809.198 L163.658 804.939 L171.922 803.272 L176.598 803.272 L176.598 833.897 L184.237 833.897 L184.237 837.832 L164.329 837.832 L164.329 833.897 Z" fill="#000000" fill-rule="evenodd" fill-opacity="1" /><path clip-path="url(#clip990)" d="M197.709 833.897 L214.028 833.897 L214.028 837.832 L192.084 837.832 L192.084 833.897 Q194.746 831.143 199.329 826.513 Q203.936 821.86 205.116 820.518 Q207.362 817.995 208.241 816.259 Q209.144 814.499 209.144 812.809 Q209.144 810.055 207.199 808.319 Q205.278 806.583 202.176 806.583 Q199.977 806.583 197.524 807.347 Q195.093 808.11 192.315 809.661 L192.315 804.939 Q195.139 803.805 197.593 803.226 Q200.047 802.647 202.084 802.647 Q207.454 802.647 210.649 805.333 Q213.843 808.018 213.843 812.509 Q213.843 814.638 213.033 816.559 Q212.246 818.458 210.139 821.05 Q209.561 821.721 206.459 824.939 Q203.357 828.133 197.709 833.897 Z" fill="#000000" fill-rule="evenodd" fill-opacity="1" /><path clip-path="url(#clip990)" d="M126.205 431.243 Q122.593 431.243 120.765 434.808 Q118.959 438.35 118.959 445.479 Q118.959 452.586 120.765 456.15 Q122.593 459.692 126.205 459.692 Q129.839 459.692 131.644 456.15 Q133.473 452.586 133.473 445.479 Q133.473 438.35 131.644 434.808 Q129.839 431.243 126.205 431.243 M126.205 427.539 Q132.015 427.539 135.07 432.146 Q138.149 436.729 138.149 445.479 Q138.149 454.206 135.07 458.812 Q132.015 463.396 126.205 463.396 Q120.394 463.396 117.316 458.812 Q114.26 454.206 114.26 445.479 Q114.26 436.729 117.316 432.146 Q120.394 427.539 126.205 427.539 Z" fill="#000000" fill-rule="evenodd" fill-opacity="1" /><path clip-path="url(#clip990)" d="M146.366 456.845 L151.251 456.845 L151.251 462.724 L146.366 462.724 L146.366 456.845 Z" fill="#000000" fill-rule="evenodd" fill-opacity="1" /><path clip-path="url(#clip990)" d="M162.246 458.789 L169.885 458.789 L169.885 432.424 L161.575 434.09 L161.575 429.831 L169.839 428.164 L174.514 428.164 L174.514 458.789 L182.153 458.789 L182.153 462.724 L162.246 462.724 L162.246 458.789 Z" fill="#000000" fill-rule="evenodd" fill-opacity="1" /><path clip-path="url(#clip990)" d="M204.445 432.238 L192.639 450.687 L204.445 450.687 L204.445 432.238 M203.218 428.164 L209.098 428.164 L209.098 450.687 L214.028 450.687 L214.028 454.576 L209.098 454.576 L209.098 462.724 L204.445 462.724 L204.445 454.576 L188.843 454.576 L188.843 450.062 L203.218 428.164 Z" fill="#000000" fill-rule="evenodd" fill-opacity="1" /><path clip-path="url(#clip990)" d="M126.529 56.135 Q122.918 56.135 121.089 59.6998 Q119.283 63.2414 119.283 70.371 Q119.283 77.4775 121.089 81.0422 Q122.918 84.5839 126.529 84.5839 Q130.163 84.5839 131.968 81.0422 Q133.797 77.4775 133.797 70.371 Q133.797 63.2414 131.968 59.6998 Q130.163 56.135 126.529 56.135 M126.529 52.4313 Q132.339 52.4313 135.394 57.0377 Q138.473 61.6211 138.473 70.371 Q138.473 79.0978 135.394 83.7043 Q132.339 88.2876 126.529 88.2876 Q120.718 88.2876 117.64 83.7043 Q114.584 79.0978 114.584 70.371 Q114.584 61.6211 117.64 57.0377 Q120.718 52.4313 126.529 52.4313 Z" fill="#000000" fill-rule="evenodd" fill-opacity="1" /><path clip-path="url(#clip990)" d="M146.691 81.7367 L151.575 81.7367 L151.575 87.6163 L146.691 87.6163 L146.691 81.7367 Z" fill="#000000" fill-rule="evenodd" fill-opacity="1" /><path clip-path="url(#clip990)" d="M162.57 83.6811 L170.209 83.6811 L170.209 57.3155 L161.899 58.9822 L161.899 54.7229 L170.163 53.0563 L174.839 53.0563 L174.839 83.6811 L182.477 83.6811 L182.477 87.6163 L162.57 87.6163 L162.57 83.6811 Z" fill="#000000" fill-rule="evenodd" fill-opacity="1" /><path clip-path="url(#clip990)" d="M202.5 68.4729 Q199.352 68.4729 197.5 70.6256 Q195.672 72.7784 195.672 76.5284 Q195.672 80.2552 197.5 82.4311 Q199.352 84.5839 202.5 84.5839 Q205.649 84.5839 207.477 82.4311 Q209.329 80.2552 209.329 76.5284 Q209.329 72.7784 207.477 70.6256 Q205.649 68.4729 202.5 68.4729 M211.783 53.8202 L211.783 58.0794 Q210.024 57.2461 208.218 56.8063 Q206.436 56.3665 204.676 56.3665 Q200.047 56.3665 197.593 59.4914 Q195.163 62.6164 194.815 68.9358 Q196.181 66.922 198.241 65.8571 Q200.301 64.7692 202.778 64.7692 Q207.987 64.7692 210.996 67.9405 Q214.028 71.0886 214.028 76.5284 Q214.028 81.8524 210.88 85.07 Q207.732 88.2876 202.5 88.2876 Q196.505 88.2876 193.334 83.7043 Q190.163 79.0978 190.163 70.371 Q190.163 62.1766 194.051 57.3155 Q197.94 52.4313 204.491 52.4313 Q206.25 52.4313 208.033 52.7785 Q209.838 53.1257 211.783 53.8202 Z" fill="#000000" fill-rule="evenodd" fill-opacity="1" /><path clip-path="url(#clip990)" d="M28.9285 742.215 Q33.6949 742.215 38.1715 744.663 Q42.6482 747.078 45.3534 750.879 Q48.0587 754.647 48.0587 758.447 Q48.0587 762.73 43.6143 764.952 Q59.7495 768.978 60.1681 769.204 Q61.553 770.138 61.553 771.49 Q61.553 772.328 61.0377 772.843 Q60.5546 773.358 59.7817 773.358 Q59.524 773.326 58.7189 773.133 L32.7932 766.692 Q26.7707 765.21 22.4873 760.734 Q18.1717 756.225 18.1717 751.394 Q18.1717 747.561 21.038 744.888 Q23.9043 742.215 28.9285 742.215 M26.0943 746.949 Q22.8738 746.949 21.2635 748.238 Q19.621 749.526 19.621 751.523 Q19.621 753.358 21.1024 755.581 Q22.5839 757.771 25.8689 759.703 Q27.769 760.734 30.1201 761.474 Q32.4711 762.215 38.2682 763.664 Q40.587 764.18 40.7158 764.18 Q40.9734 764.18 41.5532 764.051 Q42.1329 763.89 43.0346 763.503 Q43.9042 763.085 44.6771 762.505 Q45.4501 761.925 46.0298 760.862 Q46.5773 759.8 46.5773 758.511 Q46.5773 756.515 44.967 754.389 Q43.3245 752.231 40.3293 750.653 Q37.9139 749.333 33.3729 748.141 Q28.7996 746.949 26.0943 746.949 Z" fill="#000000" fill-rule="evenodd" fill-opacity="1" /><path clip-path="url(#clip990)" d="M80.129 703.8 Q80.5573 703.8 80.7828 703.98 Q80.9857 704.138 81.0308 704.296 Q81.0533 704.431 81.0533 704.634 Q81.0533 705.22 80.9857 707.249 Q80.918 709.278 80.918 709.864 Q80.918 710.811 80.9857 712.75 Q81.0533 714.689 81.0533 715.636 Q81.0533 716.267 80.5348 716.267 Q80.1966 716.267 80.0163 716.199 Q79.8134 716.132 79.7458 715.951 Q79.6556 715.748 79.6556 715.636 Q79.633 715.5 79.633 715.162 Q79.633 714.711 79.5879 714.238 Q79.5203 713.764 79.3851 713.178 Q79.2498 712.592 78.9116 712.231 Q78.5735 711.848 78.1 711.848 Q77.8971 711.848 76.2289 712.006 Q74.5606 712.164 72.6218 712.367 Q70.6605 712.57 70.39 712.592 L70.39 724.18 Q72.216 725.239 73.4785 725.983 Q74.741 726.727 75.1693 726.998 Q75.5976 727.268 75.8682 727.426 Q76.1387 727.584 76.2965 727.674 Q77.4913 728.328 78.0099 728.328 Q79.4527 728.328 79.633 726.164 Q79.633 725.42 80.1741 725.42 Q80.5799 725.42 80.8053 725.6 Q81.0082 725.781 81.0308 725.938 Q81.0533 726.074 81.0533 726.299 Q81.0533 727.043 80.9857 728.599 Q80.918 730.154 80.918 730.921 Q80.918 731.574 80.9857 732.927 Q81.0533 734.28 81.0533 734.888 Q81.0533 735.159 80.8955 735.317 Q80.7377 735.474 80.5348 735.474 Q80.2192 735.474 80.0388 735.429 Q79.8585 735.362 79.7683 735.181 Q79.6781 735.001 79.6781 734.911 Q79.6556 734.821 79.633 734.505 Q79.5203 732.792 78.7087 731.462 Q77.8746 730.109 75.7329 728.824 L48.7702 712.773 Q48.4996 712.615 48.3644 712.502 Q48.2291 712.389 48.1164 712.164 Q48.0037 711.916 48.0037 711.555 Q48.0037 710.992 48.184 710.879 Q48.3418 710.766 49.1083 710.698 L77.9648 707.88 Q78.5735 707.813 78.8214 707.768 Q79.0469 707.7 79.2949 707.407 Q79.5203 707.091 79.5879 706.528 Q79.633 705.942 79.633 704.86 Q79.633 704.454 79.6556 704.296 Q79.6556 704.138 79.7683 703.98 Q79.881 703.8 80.129 703.8 M68.9471 712.727 L53.7299 714.193 L68.9471 723.301 L68.9471 712.727 Z" fill="#000000" fill-rule="evenodd" fill-opacity="1" /><polyline clip-path="url(#clip992)" style="stroke:#009af9; stroke-linecap:round; stroke-linejoin:round; stroke-width:4; stroke-opacity:1; fill:none" points="309.539,86.1857 309.741,87.4353 309.943,91.1675 310.145,97.3319 310.346,105.846 310.548,116.596 310.75,129.439 310.952,144.204 311.154,160.697 311.355,178.704 311.557,197.991 311.759,218.312 311.961,239.41 312.364,282.89 312.768,326.34 312.97,347.426 313.172,367.774 313.373,387.172 313.575,405.428 313.777,422.372 313.979,437.862 314.181,451.781 314.382,464.039 314.584,474.578 314.786,483.367 314.988,490.405 315.19,495.719 315.391,499.361 315.593,501.41 315.795,501.967 315.997,501.155 316.199,499.114 316.4,495.996 316.602,491.968 316.804,487.205 317.208,476.184 317.611,464.357 318.015,453.066 318.418,443.474 318.822,436.496 319.226,432.747 319.427,432.187 319.629,432.514 319.831,433.716 320.033,435.757 320.436,442.136 320.84,451.059 321.244,461.747 321.647,473.309 321.849,479.13 322.051,484.827 322.152,487.596 322.253,490.294 322.353,492.91 322.454,495.433 323.387,512.671 324.32,516.259 325.253,507.475 326.186,492.775 327.119,480.47 328.052,476.927 328.985,483.956 329.918,498.42 330.851,514.05 331.784,524.497 332.717,526.185 333.65,519.716 334.583,509.306 335.516,500.643 336.449,498.222 337.382,503.382 338.314,513.896 339.247,525.199 340.18,532.597 341.113,533.425 342.046,528.149 342.979,520 343.912,513.347 344.845,511.643 345.778,515.884 346.711,524.268 347.644,533.149 348.577,538.801 349.51,539.135 350.443,534.599 351.376,527.862 352.309,522.496 353.242,521.29 354.175,524.99 355.108,532.033 356.041,539.356 356.974,543.867 357.906,543.882 358.839,539.853 359.772,534.09 360.705,529.627 361.638,528.787 362.571,532.131 363.504,538.249 364.437,544.479 365.37,548.183 366.303,547.971 367.236,544.314 368.169,539.269 369.102,535.479 370.035,534.922 370.968,538.014 371.901,543.452 372.834,548.87 373.767,551.969 374.7,551.588 375.633,548.217 376.566,543.726 377.498,540.459 378.431,540.13 379.364,543.034 380.297,547.948 381.23,552.735 382.163,555.362 383.096,554.85 384.029,551.707 384.962,547.659 385.895,544.813 386.828,544.67 387.761,547.429 388.694,551.927 389.627,556.208 390.56,558.454 391.493,557.837 392.426,554.881 393.359,551.196 394.292,548.699 395.225,548.713 396.158,551.356 397.09,555.513 398.023,559.376 398.956,561.309 399.889,560.605 400.822,557.807 401.755,554.427 402.688,552.224 403.621,552.371 404.554,554.92 405.487,558.791 406.42,562.304 407.353,563.972 408.286,563.195 409.219,560.532 410.152,557.414 411.085,555.463 412.018,555.727 412.951,558.196 413.884,561.824 414.817,565.037 415.75,566.477 416.682,565.639 417.615,563.093 418.548,560.202 419.481,558.471 420.414,558.837 421.347,561.238 422.28,564.656 423.213,567.609 424.146,568.852 425.079,567.96 426.012,565.517 426.945,562.827 427.878,561.29 428.811,561.747 429.744,564.089 430.677,567.323 431.61,570.046 432.543,571.116 433.476,570.178 434.409,567.827 435.342,565.315 436.274,563.951 437.207,564.49 438.14,566.78 439.073,569.85 440.006,572.37 440.939,573.285 441.872,572.306 450.843,573.082 459.813,573.695 468.784,574.511 477.755,575.803 495.696,580.245 513.637,586.514 528.806,587.549 543.976,591.642 559.145,597.475 574.314,601.801 640.226,613.524 700.99,623.752 766.137,636.139 841.615,648.858 908.691,659.409 967.511,667.317 983.543,669.879 999.576,671.425 1007.59,671.736 1015.61,671.711 1016.11,672.76 1016.61,673.294 1017.11,673.239 1017.61,672.603 1018.61,670.016 1019.62,666.95 1020.62,665.099 1021.62,665.519 1022.62,668.04 1023.62,671.34 1024.63,673.652 1025.63,673.724 1026.63,671.504 1027.63,668.193 1028.63,665.601 1029.64,665.175 1030.64,667.197 1031.64,670.616 1032.14,672.29 1032.65,673.613 1033.15,674.395 1033.66,674.521 1034.66,672.815 1035.67,669.408 1036.68,666.163 1037.69,664.885 1038.7,666.319 1039.7,669.722 1040.21,671.603 1040.71,673.248 1041.22,674.422 1041.72,674.952 1042.73,673.857 1043.74,670.517 1044.74,666.735 1045.75,664.589 1046.76,665.288 1047.77,668.488 1048.27,670.515 1048.78,672.452 1049.28,674.019 1049.78,674.987 1050.79,674.646 1051.8,671.542 1052.81,667.32 1053.82,664.27 1054.82,664.079 1055.83,666.885 1056.84,671.163 1057.85,674.541 1058.86,675.093 1059.86,672.413 1060.87,667.873 1061.88,663.904 1062.89,662.671 1063.9,664.868 1064.4,666.944 1064.9,669.303 1065.41,671.604 1065.91,673.51 1066.92,675.09 1067.93,673.037 1068.94,668.334 1069.94,663.452 1070.45,661.801 1070.95,661.019 1071.46,661.217 1071.96,662.369 1072.97,666.765 1073.98,671.757 1074.48,673.556 1074.98,674.494 1075.49,674.412 1075.99,673.295 1077,668.614 1078.01,662.845 1079.02,659.048 1080.02,659.273 1080.53,660.947 1081.03,663.388 1081.54,666.242 1082.04,669.088 1082.54,671.503 1083.05,673.114 1083.55,673.659 1084.06,673.025 1085.06,668.589 1086.07,661.974 1086.58,658.927 1087.08,656.626 1087.58,655.391 1088.09,655.392 1089.1,658.918 1090.1,665.214 1090.61,668.283 1091.11,670.666 1091.62,671.981 1092.12,671.991 1093.13,668.073 1094.13,660.666 1095.14,653.527 1096.15,650.4 1096.71,651.12 1097.27,653.494 1097.82,657.095 1098.38,661.271 1098.94,665.252 1099.49,668.283 1100.05,669.753 1100.61,669.311 1101.17,666.926 1101.72,662.907 1102.28,657.854 1102.84,652.562 1103.39,647.886 1103.95,644.596 1104.51,643.238 1105.07,644.031 1105.62,646.826 1106.18,651.113 1106.74,656.107 1107.3,660.871 1107.85,664.479 1108.41,666.175 1108.97,665.514 1109.52,662.444 1110.08,657.331 1110.64,650.907 1111.2,644.157 1111.75,638.15 1112.31,633.861 1112.87,631.995 1113.42,632.854 1113.98,636.267 1114.54,641.609 1115.1,647.884 1115.65,653.892 1116.21,658.423 1116.77,660.472 1117.33,659.42 1117.88,655.158 1118.44,648.13 1119,639.275 1119.55,629.892 1120.11,621.425 1120.67,615.222 1121.23,612.292 1121.78,613.113 1122.34,617.523 1122.9,624.707 1123.45,633.31 1124.01,641.629 1124.57,647.897 1125.13,650.576 1125.68,648.638 1126.24,641.774 1126.8,630.494 1127.36,616.095 1127.91,600.491 1128.47,585.932 1129.03,574.643 1129.58,568.44 1130.14,568.384 1130.7,574.526 1131.26,585.8 1131.81,600.078 1132.37,614.399 1132.93,625.341 1133.48,629.497 1134.04,623.983 1134.6,606.906 1135.16,577.733 1135.71,537.479 1136.27,488.709 1136.83,435.316 1137.39,382.116 1137.94,334.304 1138.5,296.837 1139.06,273.824 1139.61,268.016 1140.17,280.454 1140.73,310.322 1141.29,355.04 1141.84,410.568 1142.4,471.894 1142.96,533.631 1143.51,590.645 1144.07,638.646 1144.63,674.634 1145.19,697.185 1145.74,706.511 1146.3,704.313 1146.86,693.453 1147.42,677.491 1147.97,660.165 1148.53,644.878 1149.09,634.274 1149.64,629.945 1150.2,632.313 1150.76,640.685 1151.32,653.462 1151.87,668.473 1152.43,683.359 1152.99,695.96 1153.54,704.645 1154.1,708.527 1154.66,707.557 1155.22,702.475 1155.77,694.634 1156.33,685.747 1156.89,677.583 1157.45,671.675 1158,669.088 1158.56,670.265 1159.12,674.993 1159.67,682.47 1160.23,691.475 1160.79,700.584 1161.35,708.424 1161.9,713.892 1162.46,716.336 1163.02,715.634 1163.58,712.197 1164.13,706.877 1164.69,700.801 1165.25,695.179 1165.8,691.088 1166.36,689.303 1166.92,690.178 1167.48,693.597 1168.54,704.921 1169.6,717.002 1170.13,721.249 1170.66,723.545 1171.19,723.698 1171.72,721.854 1172.78,714.186 1173.84,706.139 1174.37,703.79 1174.9,703.196 1175.43,704.494 1175.96,707.527 1177.02,716.905 1178.08,726.236 1178.61,729.279 1179.14,730.698 1179.67,730.399 1180.2,728.556 1181.26,722.033 1182.32,715.82 1182.85,714.262 1183.38,714.199 1183.91,715.689 1184.44,718.546 1185.5,726.643 1186.56,734.14 1187.09,736.377 1187.62,737.212 1188.15,736.619 1188.68,734.794 1189.74,729.104 1190.8,724.206 1191.33,723.216 1191.86,723.533 1192.39,725.158 1192.92,727.884 1193.98,735.042 1195.05,741.198 1195.58,742.848 1196.11,743.262 1196.64,742.465 1197.17,740.671 1198.23,735.641 1199.29,731.756 1199.82,731.199 1200.35,731.803 1200.88,733.523 1201.41,736.139 1202.47,742.555 1203.53,747.667 1204.06,748.866 1204.59,748.963 1205.12,748.022 1205.65,746.27 1206.71,741.791 1207.77,738.727 1208.83,739.341 1209.89,743.644 1210.95,749.441 1212.01,753.704 1213.07,754.392 1214.13,751.648 1215.19,747.652 1216.25,745.274 1216.78,745.343 1217.31,746.348 1217.84,748.178 1218.37,750.598 1219.43,755.858 1220.49,759.408 1221.55,759.606 1222.61,756.85 1223.68,753.288 1224.74,751.501 1225.8,752.95 1226.86,757.13 1227.92,761.912 1228.98,764.848 1230.04,764.645 1231.1,761.909 1232.16,758.747 1233.22,757.477 1233.75,757.979 1234.28,759.237 1234.81,761.102 1235.34,763.33 1236.44,767.819 1237.54,770.141 1238.65,769.3 1239.75,766.354 1240.85,763.694 1241.95,763.48 1243.06,766.255 1244.16,770.625 1245.26,774.191 1246.36,775.114 1247.47,773.288 1248.57,770.38 1249.67,768.725 1250.77,769.807 1251.33,771.35 1251.88,773.319 1252.43,775.434 1252.98,777.392 1254.08,779.825 1255.18,779.506 1256.29,777.119 1257.39,774.666 1258.49,774.16 1259.6,776.326 1260.7,780.15 1261.8,783.566 1262.9,784.798 1264.01,783.507 1265.11,780.985 1266.21,779.299 1267.31,779.945 1268.42,782.892 1269.52,786.62 1270.62,789.129 1271.72,789.23 1272.83,787.305 1273.93,785.039 1275.03,784.312 1276.13,785.985 1277.24,789.356 1278.34,792.634 1279.44,794.112 1280.54,793.265 1281.65,791.077 1282.75,789.385 1283.85,789.681 1284.95,792.154 1286.06,795.582 1287.16,798.14 1288.26,798.588 1297.08,802.668 1305.9,806.484 1335.6,821.173 1365.3,835.769 1401.56,853.605 1437.82,874.989 1471.03,890.993 1504.25,906.781 1565.61,933.141 1627.76,962.455 1662.58,980.121 1697.41,995.715 1728.97,1009.39 1760.53,1019.77 1778.59,1029.98 1796.66,1039.21 1814.73,1045.39 1832.79,1048.93 1841.16,1051.86 1849.52,1054.67 1857.88,1057.34 1866.25,1059.84 1866.77,1058.53 1867.29,1057.71 1867.82,1057.54 1868.34,1058.06 1869.38,1060.92 1870.43,1064.82 1871.47,1067.66 1872.52,1067.91 1873.57,1065.56 1874.61,1062.14 1875.66,1059.82 1876.7,1060.19 1877.75,1063.24 1878.79,1067.39 1879.84,1070.36 1880.88,1070.54 1881.93,1067.93 1882.98,1064.17 1883.5,1062.62 1884.02,1061.65 1884.54,1061.43 1885.07,1062.02 1886.11,1065.29 1887.16,1069.73 1888.2,1072.87 1889.25,1072.97 1890.29,1070.04 1891.34,1065.89 1892.38,1063.09 1893.43,1063.48 1894.48,1067.01 1895.52,1071.8 1896.57,1075.15 1897.61,1075.14 1898.66,1071.82 1899.7,1067.18 1900.22,1065.29 1900.73,1064.08 1901.25,1063.75 1901.76,1064.37 1902.8,1068.08 1903.83,1073.24 1904.86,1076.97 1905.89,1077.15 1906.92,1073.66 1907.95,1068.48 1908.98,1064.62 1910.01,1064.42 1911.04,1068.15 1912.07,1073.81 1912.59,1076.37 1913.1,1078.22 1913.62,1079.07 1914.13,1078.8 1915.16,1075.12 1916.19,1069.19 1916.71,1066.43 1917.23,1064.38 1917.74,1063.36 1918.26,1063.53 1919.29,1067.26 1920.32,1073.54 1920.83,1076.52 1921.35,1078.78 1921.86,1079.97 1922.38,1079.87 1923.41,1075.95 1924.44,1069.06 1924.96,1065.68 1925.47,1063.02 1925.99,1061.47 1926.5,1061.29 1927.53,1064.96 1928.56,1072.01 1929.08,1075.55 1929.59,1078.35 1930.11,1079.97 1930.62,1080.1 1931.14,1078.68 1931.66,1075.87 1932.17,1072.02 1932.69,1067.66 1933.2,1063.41 1933.72,1059.89 1934.23,1057.6 1934.75,1056.89 1935.26,1057.88 1935.78,1060.43 1936.29,1064.16 1936.81,1068.51 1937.32,1072.8 1937.84,1076.36 1938.36,1078.57 1938.87,1079.03 1939.39,1077.58 1939.9,1074.32 1940.42,1069.64 1940.93,1064.15 1941.45,1058.6 1941.96,1053.75 1942.48,1050.3 1942.99,1048.76 1943.51,1049.34 1944.02,1051.97 1944.54,1056.25 1945.05,1061.52 1945.57,1066.94 1946.09,1071.63 1946.6,1074.76 1947.12,1075.72 1947.63,1074.17 1948.15,1070.17 1948.66,1064.09 1949.18,1056.67 1949.69,1048.86 1950.21,1041.68 1950.72,1036.13 1951.24,1032.99 1951.75,1032.7 1952.27,1035.31 1952.79,1040.41 1953.3,1047.2 1953.82,1054.57 1954.33,1061.26 1954.85,1066.03 1955.36,1067.85 1955.88,1066.05 1956.39,1060.44 1956.91,1051.39 1957.42,1039.77 1957.94,1026.9 1958.45,1014.33 1958.97,1003.68 1959.48,996.362 1960,993.403 1960.52,995.228 1961.03,1001.57 1961.55,1011.42 1962.06,1023.14 1962.58,1034.58 1963.09,1043.37 1963.61,1047.17 1964.12,1043.98 1964.64,1032.47 1965.15,1012.14 1965.67,983.494 1966.17,949.168 1966.67,910.661 1967.17,870.837 1967.67,832.943 1968.17,800.299 1968.67,775.975 1969.17,762.476 1969.67,761.483 1970.17,773.671 1970.67,798.629 1971.17,834.883 1971.67,880.036 1972.17,930.988 1972.67,984.239 1973.17,1036.22 1973.68,1083.61 1974.18,1123.67 1974.68,1154.44 1975.18,1174.92 1975.68,1185.08 1976.18,1185.83 1976.68,1178.85 1977.18,1166.38 1977.68,1150.94 1978.18,1135.05 1978.68,1120.97 1979.18,1110.46 1979.68,1104.65 1980.18,1103.96 1980.68,1108.12 1981.18,1116.25 1981.68,1127.07 1982.18,1139.01 1982.68,1150.53 1983.18,1160.21 1983.68,1167.02 1984.18,1170.34 1984.68,1170.09 1985.18,1166.64 1985.68,1160.77 1986.18,1153.54 1986.68,1146.11 1987.19,1139.61 1987.69,1134.99 1988.19,1132.86 1988.69,1133.5 1989.19,1136.77 1989.69,1142.19 1990.69,1156.34 1991.69,1168.83 1992.19,1172.55 1992.69,1174.02 1993.19,1173.24 1993.69,1170.49 1994.69,1161.42 1995.69,1152.62 1996.19,1150.05 1996.69,1149.3 1997.19,1150.48 1997.69,1153.46 1998.69,1163.03 1999.69,1173.26 2000.19,1177.04 2000.7,1179.33 2001.2,1179.93 2001.7,1178.89 2002.7,1173.13 2003.7,1165.97 2004.2,1163.3 2004.7,1161.83 2005.2,1161.82 2005.7,1163.3 2006.7,1169.88 2007.7,1178.39 2008.2,1182.08 2008.7,1184.78 2009.2,1186.23 2009.7,1186.31 2010.7,1182.94 2011.7,1177.19 2012.2,1174.59 2012.7,1172.76 2013.2,1172 2013.71,1172.46 2021.71,1181.22 2029.72,1189.71 2046.13,1205.38 2062.55,1219.9 2078.96,1233.66 2095.37,1246.88 2113.36,1258.44 2131.34,1272.44 2149.33,1287.58 2167.31,1301.7 2193.43,1319.22 2219.56,1335.29 2232.62,1343.46 2245.68,1350.88 2252.21,1357.52 2258.74,1361.81 2265.28,1363.72 2271.81,1366.94 2273.15,1368.27 2274.49,1370.84 2275.83,1373.05 2277.17,1373.65 2278.51,1372.89 2279.85,1372.28 2281.19,1373.19 2282.53,1375.57 2283.87,1377.99 2285.21,1379 2286.55,1378.46 2287.89,1377.67 2289.23,1378.18 2290.56,1380.3 2291.9,1382.84 2293.24,1384.24 "/>
<polyline clip-path="url(#clip992)" style="stroke:#e26f46; stroke-linecap:round; stroke-linejoin:round; stroke-width:4; stroke-opacity:1; fill:none" points="309.539,86.1857 309.741,87.2727 309.943,90.5193 310.145,95.8826 310.346,103.292 310.548,112.649 310.75,123.833 310.952,136.697 311.154,151.074 311.355,166.78 311.557,183.616 311.759,201.37 311.961,219.821 312.364,257.912 312.768,296.088 312.97,314.664 313.172,332.629 313.373,349.799 313.575,366.005 313.777,381.1 313.979,394.956 314.181,407.469 314.382,418.56 314.584,428.174 314.786,436.278 314.988,442.869 315.19,447.965 315.391,451.606 315.593,453.857 315.795,454.799 315.997,454.535 316.199,453.18 316.4,450.865 316.602,447.728 316.804,443.919 317.208,434.89 317.611,424.999 318.015,415.404 318.418,407.127 318.62,403.746 318.822,400.98 319.024,398.893 319.226,397.528 319.427,396.912 319.629,397.055 319.831,397.95 320.033,399.571 320.436,404.825 320.84,412.342 321.244,421.483 321.647,431.503 321.849,436.598 322.051,441.62 322.152,444.074 322.253,446.477 322.353,448.817 322.454,451.084 323.387,467.11 324.32,471.651 325.253,465.339 326.186,453.351 327.119,442.724 328.052,439.134 328.985,444.552 329.918,456.724 330.851,470.529 331.784,480.479 332.717,483.191 333.65,478.739 334.583,470.373 335.516,462.854 336.449,460.216 337.382,464.005 338.314,472.737 339.247,482.753 340.18,490 341.113,491.889 342.046,488.391 342.979,481.916 343.912,476.091 344.845,474.052 345.778,477.041 346.711,483.929 347.644,491.842 348.577,497.554 349.51,498.976 350.443,496.066 351.376,490.761 352.309,486.009 353.242,484.379 354.175,486.896 355.108,492.633 356.041,499.205 356.974,503.924 357.906,505.046 358.839,502.536 359.772,498.03 360.705,494.022 361.638,492.689 362.571,494.897 363.504,499.845 364.437,505.485 365.37,509.51 366.303,510.422 367.236,508.203 368.169,504.278 369.102,500.818 370.035,499.711 370.968,501.701 371.901,506.075 372.834,511.031 373.767,514.541 374.7,515.298 375.633,513.3 376.566,509.819 377.498,506.779 378.431,505.85 379.364,507.68 380.297,511.617 381.23,516.047 382.163,519.161 383.096,519.799 384.029,517.975 384.962,514.843 385.895,512.137 386.828,511.353 387.761,513.059 388.694,516.653 389.627,520.668 390.56,523.466 391.493,524.009 392.426,522.326 393.359,519.477 394.292,517.043 395.225,516.378 396.158,517.987 397.09,521.305 398.023,524.981 398.956,527.523 399.889,527.989 400.822,526.422 401.755,523.808 402.688,521.599 403.621,521.036 404.554,522.566 405.487,525.656 406.42,529.053 407.353,531.381 408.286,531.783 409.219,530.314 410.152,527.896 411.085,525.878 412.018,525.401 412.951,526.867 413.884,529.767 414.817,532.929 415.75,535.077 416.682,535.425 417.615,534.038 418.548,531.788 419.481,529.934 420.414,529.532 421.347,530.945 422.28,533.683 423.213,536.644 424.146,538.638 425.079,538.94 426.012,537.625 426.945,535.519 427.878,533.807 428.811,533.471 429.744,534.839 430.677,537.438 431.61,540.226 432.543,542.087 433.476,542.348 434.409,541.095 435.342,539.116 436.274,537.527 437.207,537.25 438.14,538.581 439.073,541.059 440.006,543.697 440.939,545.44 441.872,545.667 442.994,544.111 444.115,541.897 445.236,540.802 446.358,541.838 447.479,544.593 448.6,547.52 449.721,548.98 450.843,548.324 451.964,546.311 453.085,544.589 454.207,544.59 455.328,546.586 456.449,549.524 457.571,551.74 458.131,552.167 458.692,552.067 459.253,551.5 459.813,550.604 460.935,548.631 462.056,547.751 463.177,548.823 464.299,551.402 465.42,554.048 466.541,555.295 467.663,554.617 468.784,552.772 469.345,551.884 469.905,551.279 470.466,551.098 471.027,551.407 472.148,553.336 473.269,556.051 474.391,558.024 475.512,558.238 476.073,557.685 476.633,556.848 477.194,555.912 477.755,555.074 478.876,554.374 479.997,555.48 481.119,557.917 482.24,560.333 483.361,561.404 484.483,560.709 485.604,559.001 486.725,557.699 487.847,557.936 488.968,559.814 490.089,562.345 491.211,564.117 492.332,564.235 493.453,562.907 494.575,561.299 495.696,560.752 504.667,564.247 513.637,568.109 543.976,580.264 574.314,592.007 607.27,602.278 640.226,612.384 655.417,615.811 670.608,621.258 685.799,628.073 700.99,633.951 766.137,653.3 841.615,677.088 908.691,697.749 967.511,715.895 983.543,719.289 999.576,722.663 1007.59,724.489 1015.61,726.489 1023.62,728.725 1031.64,731.255 1032.65,731.858 1033.66,734.346 1034.66,737.569 1035.67,739.952 1036.68,740.36 1037.69,738.72 1038.7,736.085 1039.7,734.072 1040.71,733.986 1041.72,736.097 1042.73,739.473 1043.74,742.473 1044.74,743.634 1045.75,742.477 1046.76,739.789 1047.77,737.213 1048.78,736.363 1049.78,737.936 1050.79,741.313 1051.8,744.871 1052.81,746.859 1053.82,746.353 1054.82,743.784 1055.83,740.728 1056.84,739.061 1057.85,739.939 1058.86,743.141 1059.86,747.167 1060.87,750.031 1061.88,750.346 1062.89,748.096 1063.9,744.68 1064.4,743.187 1064.9,742.172 1065.41,741.813 1065.91,742.197 1066.92,745.027 1067.93,749.397 1068.94,753.165 1069.94,754.471 1070.95,752.767 1071.96,749.151 1072.97,745.806 1073.98,744.828 1074.98,747.065 1075.99,751.62 1077,756.295 1078.01,758.768 1079.02,757.869 1080.02,754.258 1080.53,752.086 1081.03,750.116 1081.54,748.666 1082.04,747.986 1082.54,748.22 1083.05,749.384 1083.55,751.363 1084.06,753.926 1085.06,759.488 1086.07,763.316 1086.58,763.922 1087.08,763.529 1087.58,762.214 1088.09,760.187 1089.1,755.325 1090.1,751.893 1090.61,751.492 1091.11,752.166 1091.62,753.881 1092.12,756.454 1093.13,762.866 1094.13,768.27 1094.64,769.69 1095.14,769.978 1095.65,769.117 1096.15,767.252 1096.71,764.379 1097.27,761.185 1097.82,758.283 1098.38,756.253 1098.94,755.535 1099.49,756.356 1100.05,758.682 1100.61,762.216 1101.17,766.447 1101.72,770.731 1102.28,774.399 1102.84,776.872 1103.39,777.766 1103.95,776.962 1104.51,774.634 1105.07,771.227 1105.62,767.389 1106.18,763.861 1106.74,761.356 1107.3,760.43 1107.85,761.386 1108.41,764.208 1108.97,768.56 1109.52,773.829 1110.08,779.227 1110.64,783.919 1111.2,787.168 1111.75,788.464 1112.31,787.625 1112.87,784.832 1113.42,780.621 1113.98,775.795 1114.54,771.298 1115.1,768.057 1115.65,766.823 1116.21,768.03 1116.77,771.71 1117.33,777.471 1117.88,784.544 1118.44,791.907 1119,798.443 1119.55,803.134 1120.11,805.242 1120.67,804.448 1121.23,800.929 1121.78,795.357 1122.34,788.802 1122.9,782.577 1123.45,778.022 1124.01,776.273 1124.57,778.063 1125.13,783.565 1125.68,792.333 1126.24,803.337 1126.8,815.106 1127.36,825.943 1127.91,834.207 1128.47,838.596 1129.03,838.397 1129.58,833.658 1130.14,825.249 1130.7,814.794 1131.26,804.48 1131.81,796.753 1132.37,793.958 1132.93,797.961 1133.48,809.808 1134.04,829.481 1134.6,855.799 1135.16,886.458 1135.71,918.254 1136.27,947.427 1136.83,970.108 1137.39,982.806 1137.94,982.868 1138.5,968.843 1139.06,940.713 1139.61,899.948 1140.17,849.364 1140.73,792.829 1141.29,734.82 1141.84,679.91 1142.4,632.252 1142.96,595.11 1143.51,570.516 1144.07,559.084 1144.63,560.007 1145.19,571.23 1145.74,589.769 1146.3,612.14 1146.86,634.817 1147.42,654.678 1147.97,669.366 1148.53,677.523 1149.09,678.881 1149.64,674.187 1150.2,665.002 1150.76,653.399 1151.32,641.609 1151.87,631.675 1152.43,625.154 1152.99,622.923 1153.54,625.095 1154.1,631.058 1154.66,639.627 1155.22,649.273 1155.77,658.389 1156.33,665.553 1156.89,669.748 1157.45,670.499 1158,667.92 1158.56,662.662 1159.12,655.781 1159.67,648.537 1160.23,642.184 1160.79,637.763 1161.35,635.939 1161.9,636.914 1162.46,640.412 1163.02,645.748 1163.58,651.961 1164.13,657.982 1164.69,662.819 1165.25,665.718 1165.8,666.277 1166.36,664.503 1166.92,660.79 1167.48,655.843 1168.01,650.797 1168.54,646.221 1169.07,642.802 1169.6,641.029 1170.13,641.12 1170.66,643.005 1171.19,646.339 1171.72,650.566 1172.25,655.011 1172.78,658.984 1173.31,661.89 1173.84,663.311 1174.37,663.07 1174.9,661.248 1175.43,658.167 1175.96,654.332 1176.49,650.351 1177.02,646.837 1177.55,644.315 1178.08,643.145 1178.61,643.47 1179.14,645.198 1179.67,648.026 1180.2,651.488 1180.73,655.031 1181.26,658.103 1181.79,660.238 1182.32,661.123 1182.85,660.645 1183.38,658.904 1183.91,656.191 1184.44,652.941 1184.97,649.66 1185.5,646.852 1186.03,644.933 1186.56,644.176 1187.09,644.67 1187.62,646.306 1188.15,648.805 1188.68,651.757 1189.21,654.692 1189.74,657.152 1190.27,658.76 1190.8,659.278 1191.33,658.641 1191.86,656.962 1192.39,654.514 1192.92,651.683 1193.45,648.909 1193.98,646.612 1194.51,645.133 1195.05,644.681 1195.58,645.302 1196.11,646.875 1196.64,649.136 1197.17,651.717 1197.7,654.207 1198.23,656.217 1198.76,657.438 1199.29,657.686 1199.82,656.934 1200.35,655.308 1200.88,653.066 1201.41,650.558 1201.94,648.172 1202.47,646.269 1203,645.129 1203.53,644.912 1204.59,647.157 1205.65,651.527 1206.18,653.671 1206.71,655.332 1207.24,656.252 1207.77,656.294 1208.83,653.877 1209.89,649.557 1210.42,647.484 1210.95,645.896 1211.48,645.028 1212.01,644.998 1213.07,647.28 1214.13,651.265 1215.19,654.508 1216.25,655.064 1216.78,654.163 1217.31,652.627 1217.84,650.696 1218.37,648.669 1219.43,645.53 1220.49,645.01 1221.55,647.316 1222.61,650.976 1223.68,653.749 1224.74,653.972 1225.8,651.527 1226.86,647.884 1227.92,645.191 1228.98,644.988 1230.04,647.307 1231.1,650.682 1232.16,653.053 1233.22,652.996 1233.75,652.009 1234.28,650.556 1234.81,648.865 1235.34,647.194 1236.44,644.841 1237.54,645.069 1238.65,647.644 1239.75,650.837 1240.85,652.559 1241.95,651.699 1243.06,648.82 1244.16,645.764 1245.26,644.455 1246.36,645.665 1247.47,648.542 1248.57,651.182 1249.67,651.869 1250.77,650.162 1251.88,647.165 1252.98,644.784 1254.08,644.505 1255.18,646.44 1256.29,649.287 1257.39,651.178 1258.49,650.889 1259.6,648.611 1260.7,645.805 1261.8,644.251 1262.9,644.898 1264.01,647.272 1265.11,649.801 1266.21,650.838 1267.31,649.714 1268.42,647.156 1269.52,644.801 1270.62,644.131 1279.44,644.362 1288.26,644.864 1297.08,645.543 1305.9,646.301 1335.6,645.786 1365.3,647.239 1383.43,648.402 1401.56,647.646 1419.69,645.968 1437.82,645.173 1471.03,645.889 1504.25,646.72 1565.61,649.174 1627.76,651.801 1662.58,650.987 1697.41,650.645 1728.97,653.884 1760.53,657.082 1769.56,657.349 1778.59,657.107 1787.63,656.48 1796.66,655.698 1797.22,654.758 1797.79,654.135 1798.35,653.947 1798.92,654.234 1800.05,655.989 1801.18,658.271 1802.31,659.582 1803.43,659.068 1804.56,657.103 1805.69,655.051 1806.82,654.349 1807.95,655.535 1809.08,657.872 1810.21,659.835 1811.34,660.137 1812.47,658.601 1813.6,656.299 1814.73,654.832 1815.85,655.257 1816.98,657.357 1818.11,659.778 1819.24,660.932 1820.37,660.073 1821.5,657.811 1822.63,655.717 1823.76,655.269 1824.89,656.846 1826.02,659.456 1827.15,661.397 1828.28,661.396 1829.4,659.486 1830.53,656.995 1831.66,655.665 1832.79,656.471 1833.31,657.493 1833.84,658.746 1834.36,660.045 1834.88,661.201 1835.93,662.445 1836.97,661.781 1838.02,659.622 1839.06,657.265 1840.11,656.141 1841.16,656.977 1842.2,659.359 1843.25,661.96 1844.29,663.306 1845.34,662.642 1846.38,660.382 1847.43,657.883 1848.47,656.664 1849.52,657.514 1850.04,658.631 1850.57,660.018 1851.09,661.474 1851.61,662.784 1852.66,664.246 1853.7,663.581 1854.75,661.205 1855.79,658.545 1856.84,657.218 1857.88,658.084 1858.93,660.727 1859.97,663.681 1861.02,665.275 1862.07,664.61 1863.11,662.1 1864.16,659.254 1865.2,657.802 1866.25,658.685 1866.77,659.926 1867.29,661.489 1867.82,663.149 1868.34,664.662 1869.38,666.408 1870.43,665.741 1871.47,663.076 1872.52,660.013 1873.57,658.414 1874.61,659.318 1875.66,662.309 1876.7,665.736 1877.75,667.661 1878.79,666.991 1879.84,664.143 1880.88,660.824 1881.93,659.052 1882.98,659.979 1884.02,663.19 1885.07,666.918 1885.59,668.295 1886.11,669.054 1886.63,669.084 1887.16,668.382 1888.2,665.315 1889.25,661.688 1889.77,660.377 1890.29,659.708 1890.82,659.801 1891.34,660.661 1892.38,664.136 1893.43,668.226 1893.95,669.755 1894.48,670.616 1895,670.68 1895.52,669.94 1896.57,666.607 1897.61,662.605 1898.13,661.138 1898.66,660.369 1899.18,660.436 1899.7,661.351 1900.22,662.971 1900.73,665.083 1901.25,667.39 1901.76,669.566 1902.28,671.297 1902.8,672.333 1903.31,672.52 1903.83,671.833 1904.86,668.356 1905.89,663.91 1906.4,662.16 1906.92,661.116 1907.43,660.955 1907.95,661.725 1908.98,665.579 1910.01,670.651 1910.53,672.758 1911.04,674.154 1911.56,674.631 1912.07,674.118 1913.1,670.551 1914.13,665.496 1914.65,663.347 1915.16,661.917 1915.68,661.445 1916.19,662.03 1916.71,663.615 1917.23,665.996 1917.74,668.847 1918.26,671.765 1918.77,674.333 1919.29,676.176 1919.8,677.022 1920.32,676.74 1920.83,675.366 1921.35,673.097 1921.86,670.267 1922.38,667.301 1922.89,664.651 1923.41,662.729 1923.92,661.851 1924.44,662.182 1924.96,663.71 1925.47,666.249 1925.99,669.454 1926.5,672.879 1927.02,676.034 1927.53,678.458 1928.05,679.791 1928.56,679.826 1929.08,678.543 1929.59,676.12 1930.11,672.905 1930.62,669.375 1931.14,666.063 1931.66,663.48 1932.17,662.045 1932.69,662.013 1933.2,663.439 1933.72,666.162 1934.23,669.825 1934.75,673.922 1935.26,677.871 1935.78,681.094 1936.29,683.11 1936.81,683.6 1937.32,682.466 1937.84,679.848 1938.36,676.11 1938.87,671.792 1939.39,667.538 1939.9,663.998 1940.42,661.737 1940.93,661.149 1941.45,662.388 1941.96,665.344 1942.48,669.647 1942.99,674.716 1943.51,679.836 1944.02,684.261 1944.54,687.322 1945.05,688.53 1945.57,687.654 1946.09,684.763 1946.6,680.228 1947.12,674.68 1947.63,668.922 1948.15,663.821 1948.66,660.182 1949.18,658.625 1949.69,659.487 1950.21,662.76 1950.72,668.077 1951.24,674.751 1951.75,681.862 1952.27,688.379 1952.79,693.31 1953.3,695.846 1953.82,695.492 1954.33,692.153 1954.85,686.173 1955.36,678.302 1955.88,669.617 1956.39,661.377 1956.91,654.853 1957.42,651.145 1957.94,651.009 1958.45,654.725 1958.97,662.024 1959.48,672.091 1960,683.633 1960.52,695.036 1961.03,704.565 1961.55,710.594 1962.06,711.852 1962.58,707.621 1963.09,697.895 1963.61,683.442 1964.12,665.784 1964.64,647.074 1965.15,629.891 1965.67,616.966 1966.17,610.936 1966.67,613.302 1967.17,625.37 1967.67,647.631 1968.17,679.664 1968.67,720.132 1969.17,766.877 1969.67,817.097 1970.17,867.597 1970.67,915.08 1971.17,956.455 1971.67,989.122 1972.17,1011.22 1972.67,1021.76 1973.17,1020.76 1973.68,1009.16 1974.18,988.719 1974.68,961.843 1975.18,931.304 1975.68,899.968 1976.18,870.514 1976.68,845.183 1977.18,825.587 1977.68,812.596 1978.18,806.306 1978.68,806.093 1979.18,810.745 1979.68,818.641 1980.18,827.973 1980.68,836.968 1981.18,844.095 1981.68,848.22 1982.18,848.714 1982.68,845.489 1983.18,838.963 1983.68,829.971 1984.18,819.624 1984.68,809.15 1985.18,799.727 1985.68,792.329 1986.18,787.615 1986.68,785.859 1987.19,786.935 1987.69,790.354 1988.69,800.995 1989.69,810.478 1990.19,812.79 1990.69,812.888 1991.19,810.715 1991.69,806.532 1992.69,794.407 1993.69,782.271 1994.19,777.974 1994.69,775.486 1995.19,774.966 1995.69,776.305 1996.69,782.945 1997.69,790.786 1998.19,793.564 1998.69,794.939 1999.19,794.678 1999.69,792.778 2000.7,785.147 2001.7,775.712 2002.2,771.735 2002.7,768.884 2003.2,767.443 2003.7,767.494 2004.2,768.914 2004.7,771.398 2005.2,774.506 2005.7,777.723 2006.2,780.533 2006.7,782.494 2007.2,783.288 2007.7,782.77 2008.2,780.976 2008.7,778.121 2009.2,774.559 2009.7,770.735 2010.2,767.119 2010.7,764.145 2011.2,762.147 2011.7,761.322 2012.2,761.697 2012.7,763.139 2013.2,765.37 2013.71,768.008 2014.21,770.628 2014.71,772.813 2015.21,774.217 2015.71,774.609 2016.21,773.902 2016.71,772.163 2017.21,769.601 2017.71,766.533 2018.71,760.422 2019.71,756.694 2020.21,756.276 2020.71,756.858 2021.21,758.295 2021.71,760.326 2022.71,764.791 2023.71,767.507 2024.21,767.601 2024.71,766.752 2025.21,765.049 2025.71,762.697 2026.71,757.262 2027.72,753.037 2028.22,752.024 2028.72,751.898 2029.22,752.619 2029.72,754.035 2030.74,758.004 2031.77,761.197 2032.28,761.797 2032.79,761.536 2033.31,760.424 2033.82,758.592 2034.85,753.773 2035.87,749.497 2036.39,748.253 2036.9,747.813 2037.41,748.19 2037.92,749.28 2038.95,752.692 2039.98,755.801 2040.49,756.565 2041,756.584 2041.51,755.826 2042.03,754.372 2043.05,750.178 2044.08,746.098 2044.59,744.759 2045.11,744.115 2045.62,744.215 2046.13,744.999 2047.16,747.91 2048.18,750.9 2049.21,752.026 2050.23,750.427 2051.26,746.785 2052.29,742.906 2053.31,740.69 2054.34,741.071 2055.36,743.52 2056.39,746.365 2057.42,747.751 2058.44,746.677 2059.47,743.534 2060.49,739.862 2061.52,737.469 2062.55,737.412 2070.75,733.964 2078.96,730.684 2087.17,727.541 2095.37,724.508 2113.36,719.201 2131.34,715.102 2140.33,712.854 2149.33,710.209 2158.32,707.08 2167.31,703.483 2168.13,702.141 2168.94,700.47 2169.76,698.973 2170.57,698.088 2172.21,698.702 2173.84,700.714 2175.47,700.706 2177.11,697.955 2178.74,695.348 2180.37,695.554 2181.19,696.524 2182,697.518 2182.82,698.072 2183.64,697.884 2185.27,695.432 2186.9,692.66 2188.54,692.461 2190.17,694.318 2191.8,695.015 2193.43,692.894 2195.07,690.017 2196.7,689.423 2198.33,691.12 2199.96,692.103 2201.6,690.334 2203.23,687.412 2204.86,686.44 2206.5,687.929 2208.13,689.148 2209.76,687.745 2211.39,684.837 2213.03,683.513 2214.66,684.753 2216.29,686.155 2217.93,685.123 2219.56,682.285 2220.37,681.144 2221.19,680.641 2222.01,680.853 2222.82,681.597 2224.46,683.127 2226.09,682.464 2227.72,679.748 2229.35,677.821 2230.17,677.848 2230.99,678.467 2231.8,679.349 2232.62,680.07 2234.25,679.765 2235.89,677.218 2237.52,675.052 2239.15,675.368 2239.97,676.203 2240.78,676.988 2241.6,677.338 2242.42,677.023 2244.05,674.689 2245.68,672.329 2247.32,672.305 2248.95,673.889 2250.58,674.238 2252.21,672.154 2253.85,669.649 2255.48,669.281 2257.11,670.777 2258.74,671.41 2260.38,669.606 2262.01,667.008 2263.64,666.3 2265.28,667.659 2266.91,668.54 2268.54,667.038 2270.17,664.4 2271.81,663.364 2272.48,663.665 2273.15,664.249 2273.82,664.913 2274.49,665.436 2275.83,665.395 2277.17,663.74 2278.51,661.58 2279.85,660.488 2281.19,661.043 2282.53,662.297 2283.87,662.657 2285.21,661.365 2286.55,659.194 2287.89,657.728 2289.23,657.895 2290.56,659.107 2291.9,659.81 2293.24,658.926 "/>
<polyline clip-path="url(#clip992)" style="stroke:#3da44d; stroke-linecap:round; stroke-linejoin:round; stroke-width:4; stroke-opacity:1; fill:none" points="309.539,86.1857 309.741,86.88 309.943,88.954 310.145,92.3815 310.346,97.119 310.548,103.107 310.75,110.269 310.952,118.517 311.154,127.747 311.557,148.692 311.961,172.09 312.364,196.84 312.768,221.816 313.172,245.939 313.575,268.233 313.979,287.885 314.382,304.281 314.584,311.129 314.786,317.039 314.988,321.999 315.19,326.014 315.391,329.103 315.593,331.3 315.795,332.648 315.997,333.205 316.4,332.222 316.804,328.978 317.208,324.191 317.611,318.61 318.015,312.961 318.418,307.901 318.822,303.973 319.226,301.575 319.629,300.946 320.033,302.151 320.436,305.098 320.84,309.55 321.244,315.158 321.647,321.491 321.849,324.785 322.051,328.085 322.253,331.333 322.454,334.474 323.387,346.259 324.32,351.386 325.253,349.555 326.186,343.388 327.119,337.019 328.052,334.196 328.985,336.722 329.918,343.868 330.851,352.917 331.784,360.509 332.717,364.158 333.65,363.273 334.583,359.276 335.516,354.839 336.449,352.624 337.382,354.112 338.314,359.028 339.247,365.574 340.18,371.315 341.113,374.301 342.046,373.909 342.979,371.043 343.912,367.655 344.845,365.819 345.778,366.799 346.711,370.523 347.644,375.684 348.577,380.378 349.51,382.991 350.443,382.908 351.376,380.745 352.309,378.024 353.242,376.448 354.175,377.128 355.108,380.109 356.041,384.387 356.974,388.406 357.906,390.781 358.839,390.912 359.772,389.233 360.705,386.978 361.638,385.593 362.571,386.078 363.504,388.549 364.437,392.213 365.37,395.76 366.303,397.968 367.236,398.259 368.169,396.938 369.102,395.03 370.035,393.793 370.968,394.141 372.834,399.451 374.7,404.734 375.633,405.15 376.566,404.106 377.498,402.468 378.431,401.35 379.364,401.598 380.297,403.412 381.23,406.275 382.163,409.199 383.096,411.193 384.029,411.71 384.962,410.888 385.895,409.47 387.761,408.623 389.627,412.797 391.493,417.424 393.359,417.387 395.225,415.217 397.09,416.737 404.554,421.796 412.018,428.053 426.945,441.69 441.872,452.309 459.813,464.585 477.755,475.866 495.696,486.738 513.637,497.835 528.806,509.443 543.976,520.232 559.145,529.274 574.314,538.12 640.226,581.95 700.99,621.407 766.137,664.317 841.615,712.715 908.691,754.903 967.511,790.735 999.576,808.965 1031.64,824.325 1047.77,831.812 1063.9,839.534 1071.96,843.607 1080.02,847.899 1081.03,847.176 1082.04,848.404 1083.05,851.247 1084.06,854.48 1085.06,856.627 1086.07,856.751 1087.08,854.984 1088.09,852.488 1089.1,850.865 1090.1,851.3 1091.11,853.902 1092.12,857.607 1093.13,860.709 1094.13,861.763 1095.14,860.384 1096.15,857.495 1096.71,855.893 1097.27,854.701 1097.82,854.18 1098.38,854.483 1099.49,857.486 1100.61,862.26 1101.72,866.107 1102.84,866.805 1103.95,864.098 1105.07,859.981 1105.62,858.359 1106.18,857.505 1106.74,857.64 1107.3,858.824 1108.41,863.709 1109.52,869.552 1110.08,871.734 1110.64,872.937 1111.2,872.976 1111.75,871.859 1112.87,867.155 1113.98,862.16 1114.54,860.797 1115.1,860.681 1115.65,861.948 1116.21,864.503 1117.33,872.028 1118.44,879.053 1119,880.969 1119.55,881.336 1120.11,880.087 1120.67,877.432 1121.78,869.951 1122.9,864.253 1123.45,863.707 1124.01,865.182 1124.57,868.655 1125.13,873.765 1125.68,879.85 1126.24,886.042 1126.8,891.394 1127.36,895.041 1127.91,896.346 1128.47,895.028 1129.03,891.239 1129.58,885.577 1130.14,879.029 1130.7,872.846 1131.26,868.369 1131.81,866.821 1132.37,869.106 1132.93,875.629 1133.48,886.182 1134.04,899.905 1134.6,915.34 1135.16,930.563 1135.71,943.401 1136.27,951.691 1136.83,953.55 1137.39,947.633 1137.94,933.327 1138.5,910.867 1139.06,881.344 1139.61,846.62 1140.17,809.131 1140.73,771.633 1141.29,736.895 1141.84,707.399 1142.4,685.066 1142.96,671.062 1143.51,665.688 1144.07,668.381 1144.63,677.816 1145.19,692.099 1145.74,709.014 1146.3,726.305 1146.86,741.939 1147.42,754.337 1147.97,762.522 1148.53,766.186 1149.09,765.664 1149.64,761.83 1150.2,755.917 1150.76,749.318 1151.32,743.367 1151.87,739.155 1152.43,737.39 1152.99,738.326 1153.54,741.763 1154.1,747.114 1154.66,753.525 1155.22,760.031 1155.77,765.71 1156.33,769.829 1156.89,771.946 1157.45,771.962 1158,770.116 1158.56,766.928 1159.67,759.393 1160.79,754.963 1161.35,755.041 1161.9,756.735 1162.46,759.778 1163.02,763.69 1164.13,771.704 1165.25,776.34 1165.8,776.624 1166.36,775.587 1166.92,773.527 1167.48,770.894 1168.54,766.188 1169.6,764.439 1170.66,766.877 1171.72,772.269 1172.78,777.777 1173.84,780.661 1174.37,780.691 1174.9,779.831 1175.43,778.289 1175.96,776.366 1177.02,772.781 1178.08,771.516 1179.14,773.55 1180.2,777.922 1181.26,782.377 1182.32,784.718 1182.85,784.749 1183.38,784.061 1183.91,782.823 1184.44,781.28 1188.68,783.029 1192.92,785.963 1197.17,787.888 1201.41,790.557 1218.37,799.711 1235.34,808.957 1305.9,847.525 1365.3,881.288 1437.82,921.739 1504.25,956.08 1565.61,984.352 1627.76,1011.93 1697.41,1042.23 1760.53,1065.2 1796.66,1077.8 1832.79,1092.74 1866.25,1104.51 1899.7,1117.32 1903.83,1118.11 1907.95,1120.6 1912.07,1122.48 1916.19,1124.09 1916.71,1125.77 1917.23,1127.33 1917.74,1128.58 1918.26,1129.37 1919.29,1129.3 1920.32,1127.4 1921.35,1125.01 1922.38,1123.78 1923.41,1124.8 1924.44,1127.9 1925.47,1131.76 1926.5,1134.55 1927.53,1135.01 1928.56,1133.12 1929.59,1130.23 1930.62,1128.32 1931.66,1128.9 1932.69,1132.18 1933.2,1134.45 1933.72,1136.81 1934.23,1138.96 1934.75,1140.64 1935.78,1141.86 1936.81,1140.07 1937.84,1136.58 1938.87,1133.75 1939.9,1133.72 1940.93,1137.18 1941.96,1142.88 1942.99,1148.22 1943.51,1149.92 1944.02,1150.66 1944.54,1150.37 1945.05,1149.14 1946.09,1144.85 1947.12,1140.67 1947.63,1139.62 1948.15,1139.67 1948.66,1140.94 1949.18,1143.39 1950.21,1150.8 1951.24,1158.7 1951.75,1161.63 1952.27,1163.34 1952.79,1163.63 1953.3,1162.51 1954.33,1156.99 1955.36,1150.45 1955.88,1148.31 1956.39,1147.64 1956.91,1148.78 1957.42,1151.85 1957.94,1156.67 1958.45,1162.83 1958.97,1169.69 1959.48,1176.48 1960,1182.36 1960.52,1186.58 1961.03,1188.59 1961.55,1188.09 1962.06,1185.16 1962.58,1180.21 1963.09,1174.04 1963.61,1167.73 1964.12,1162.52 1964.64,1159.7 1965.15,1160.47 1965.67,1165.73 1966.17,1175.64 1966.67,1190.35 1967.17,1209.44 1967.67,1232.03 1968.17,1256.85 1968.67,1282.33 1969.17,1306.76 1969.67,1328.38 1970.17,1345.61 1970.67,1357.19 1971.17,1362.25 1971.67,1360.45 1972.17,1351.97 1972.67,1337.51 1973.17,1318.25 1973.68,1295.66 1974.18,1271.43 1974.68,1247.29 1975.18,1224.82 1975.68,1205.39 1976.18,1189.94 1976.68,1179.02 1977.18,1172.7 1977.68,1170.61 1978.18,1172.02 1978.68,1175.96 1979.18,1181.29 1979.68,1186.87 1980.18,1191.69 1980.68,1194.93 1981.18,1196.08 1981.68,1194.93 1982.18,1191.61 1982.68,1186.49 1983.18,1180.16 1983.68,1173.35 1984.18,1166.77 1984.68,1161.08 1985.18,1156.78 1985.68,1154.16 1986.18,1153.29 1986.68,1154.02 1987.19,1155.99 1987.69,1158.71 1988.69,1164.23 1989.69,1166.64 1990.19,1165.97 1990.69,1164.01 1991.19,1160.95 1991.69,1157.12 1992.69,1148.86 1993.69,1142.59 1994.19,1140.94 1994.69,1140.41 1995.19,1140.93 1995.69,1142.26 1996.69,1146.05 1997.69,1148.92 1998.69,1148.67 1999.69,1144.88 2000.7,1138.96 2001.7,1133.32 2002.7,1130.11 2003.7,1130.14 2004.7,1132.51 2005.7,1135.21 2006.7,1136.16 2007.7,1134.32 2008.7,1130.13 2009.7,1125.22 2010.7,1121.53 2011.7,1120.29 2012.2,1120.62 2012.7,1121.42 2013.2,1122.5 2013.71,1123.63 2014.71,1125.14 2015.71,1124.62 2016.71,1121.83 2017.71,1117.74 2018.71,1113.95 2019.71,1111.83 2020.71,1111.88 2021.71,1113.42 2022.71,1115.07 2023.71,1115.42 2024.71,1113.79 2025.71,1110.57 2026.71,1106.94 2027.72,1104.28 2028.22,1103.61 2028.72,1103.41 2029.22,1103.65 2029.72,1104.21 2037.92,1095.95 2046.13,1088.11 2054.34,1080.6 2062.55,1073.34 2078.96,1059.39 2095.37,1045.98 2131.34,1017.67 2167.31,990.17 2219.56,947.728 2271.81,905.005 2282.53,895.976 2293.24,888.84 "/>
<polyline clip-path="url(#clip992)" style="stroke:#c271d2; stroke-linecap:round; stroke-linejoin:round; stroke-width:4; stroke-opacity:1; fill:none" points="309.539,86.1857 322.454,201.684 441.872,290.715 477.755,313.519 513.637,335.522 543.976,353.898 574.314,372.794 640.226,413.488 700.99,449.951 766.137,488.058 841.615,531.654 908.691,570.193 967.511,603.984 999.576,622.846 1031.64,640.088 1047.77,648.047 1063.9,655.695 1080.02,663.247 1096.15,670.941 1096.71,670.618 1097.27,670.571 1097.82,670.856 1098.38,671.476 1099.49,673.452 1100.61,675.586 1101.72,676.812 1102.84,676.592 1103.95,675.299 1105.07,674.026 1106.18,673.918 1107.3,675.428 1108.41,677.984 1109.52,680.287 1110.64,681.115 1111.75,680.119 1112.87,678.124 1113.98,676.67 1115.1,677.073 1116.21,679.536 1117.33,682.926 1118.44,685.396 1119.55,685.525 1120.67,683.3 1121.78,680.272 1122.9,678.712 1124.01,680.205 1125.13,684.522 1126.24,689.531 1127.36,692.332 1127.91,692.233 1128.47,691.054 1129.03,688.957 1129.58,686.275 1130.14,683.476 1130.7,681.102 1131.26,679.687 1131.81,679.677 1132.37,681.346 1132.93,684.74 1133.48,689.642 1134.04,695.57 1134.6,701.817 1135.16,707.518 1135.71,711.752 1136.27,713.645 1136.83,712.486 1137.39,707.823 1137.94,699.533 1138.5,687.855 1139.06,673.38 1139.61,657.002 1140.17,639.826 1140.73,623.056 1141.29,607.867 1141.84,595.278 1142.4,586.05 1142.96,580.61 1143.51,579.01 1144.07,580.944 1144.63,585.789 1145.19,592.695 1145.74,600.691 1146.3,608.801 1146.86,616.153 1147.42,622.074 1147.97,626.149 1148.53,628.247 1149.09,628.508 1149.64,627.299 1150.76,622.631 1151.87,618.725 1152.43,618.122 1152.99,618.655 1153.54,620.263 1154.1,622.72 1155.22,628.752 1156.33,633.714 1157.45,635.555 1158.56,634.266 1159.67,631.64 1160.79,630.029 1161.9,630.907 1163.02,634.098 1164.13,638.041 1165.25,640.856 1165.8,641.458 1166.36,641.493 1166.92,641.051 1167.48,640.295 1175.96,646.635 1184.44,652.755 1192.92,658.815 1201.41,664.878 1218.37,677.095 1235.34,689.442 1305.9,740.203 1365.3,782.886 1437.82,832.786 1504.25,875.256 1565.61,913.478 1627.76,950.426 1697.41,989.576 1760.53,1023.24 1796.66,1042.51 1832.79,1060.7 1866.25,1076.87 1899.7,1092.6 1916.19,1100.32 1932.69,1108.46 1936.81,1110.68 1940.93,1113.01 1941.96,1115.6 1942.99,1117.43 1944.02,1117.8 1945.05,1116.8 1946.09,1115.32 1947.12,1114.6 1948.15,1115.57 1949.18,1118.29 1949.69,1120.05 1950.21,1121.86 1950.72,1123.51 1951.24,1124.83 1952.27,1125.97 1953.3,1124.99 1954.33,1122.81 1955.36,1121.16 1956.39,1121.75 1957.42,1125.25 1958.45,1130.85 1959.48,1136.44 1960,1138.46 1960.52,1139.65 1961.03,1139.87 1961.55,1139.15 1962.58,1135.61 1963.61,1131.76 1964.12,1130.92 1964.64,1131.44 1965.15,1133.7 1965.67,1137.91 1966.17,1143.91 1966.67,1151.64 1967.17,1160.76 1967.67,1170.77 1968.17,1181.05 1968.67,1190.88 1969.17,1199.56 1969.67,1206.39 1970.17,1210.84 1970.67,1212.51 1971.17,1211.19 1971.67,1206.93 1972.17,1199.98 1972.67,1190.78 1973.17,1179.93 1973.68,1168.16 1974.18,1156.21 1974.68,1144.8 1975.18,1134.57 1975.68,1126.02 1976.18,1119.48 1976.68,1115.06 1977.18,1112.71 1977.68,1112.18 1978.68,1115 1979.68,1119.75 1980.18,1121.69 1980.68,1122.87 1981.18,1123.11 1981.68,1122.36 1982.68,1118.26 1983.68,1112.33 1984.68,1106.91 1985.68,1103.84 1986.68,1103.63 1987.69,1105.41 1988.69,1107.51 1989.69,1108.29 1990.69,1106.97 1991.69,1103.88 1992.69,1100.18 1993.69,1097.26 1994.69,1096.01 1995.69,1096.45 1996.69,1097.76 1997.69,1098.79 1998.69,1098.6 1999.69,1096.94 2000.7,1094.32 2001.7,1091.69 2002.7,1089.97 2003.7,1089.56 2004.7,1090.19 2005.7,1091.1 2007.7,1090.67 2009.7,1086.65 2010.7,1084.75 2011.7,1083.77 2012.7,1083.8 2013.71,1084.42 2021.71,1078.42 2029.72,1072.94 2046.13,1062.92 2062.55,1053.51 2078.96,1044.41 2095.37,1035.43 2131.34,1014.7 2167.31,994.549 2219.56,964.553 2271.81,934.337 2282.53,927.842 2293.24,921.232 "/>
<polyline clip-path="url(#clip992)" style="stroke:#ac8d18; stroke-linecap:round; stroke-linejoin:round; stroke-width:4; stroke-opacity:1; fill:none" points="309.539,86.1857 310.346,88.3745 311.154,94.5314 311.557,98.7658 311.961,103.524 312.364,108.594 312.768,113.76 313.172,118.811 313.575,123.553 313.979,127.823 314.382,131.492 314.786,134.473 315.19,136.724 315.593,138.248 315.997,139.089 316.4,139.327 316.804,139.073 317.208,138.455 317.611,137.614 318.418,135.808 319.226,134.613 319.629,134.448 320.033,134.619 320.436,135.128 320.84,135.944 321.244,137.015 321.647,138.27 321.849,138.941 322.051,139.626 322.253,140.315 322.454,140.998 323.387,143.786 324.32,145.464 325.253,145.796 326.186,145.114 327.119,144.117 328.052,143.549 328.985,143.889 329.918,145.176 330.851,147.036 331.784,148.875 332.717,150.15 333.65,150.596 334.583,150.315 335.516,149.708 336.449,149.283 337.382,149.429 339.247,151.581 341.113,154.084 342.046,154.592 342.979,154.529 343.912,154.146 344.845,153.82 345.778,153.88 346.711,154.469 347.644,155.487 348.577,156.653 349.51,157.631 350.443,158.18 351.376,158.258 352.309,158.028 354.175,157.798 356.041,159.058 357.906,160.958 359.772,161.716 361.638,161.418 363.504,161.755 365.37,163.314 367.236,164.751 369.102,164.988 370.968,164.856 372.834,165.701 374.7,167.273 378.431,168.189 382.163,169.597 412.018,180.953 441.872,191.702 459.813,198.56 477.755,205.401 495.696,212.187 513.637,218.901 543.976,229.86 574.314,241.513 640.226,265.807 700.99,288.113 766.137,311.475 841.615,338.811 908.691,363.005 967.511,383.825 999.576,394.602 1031.64,405.44 1047.77,411.246 1063.9,417.335 1080.02,423.677 1096.15,430.239 1097.27,430.639 1098.38,430.5 1099.49,430.183 1100.61,430.18 1101.72,430.814 1102.84,432.015 1103.95,433.345 1105.07,434.261 1106.18,434.455 1107.3,434.073 1108.41,433.644 1109.52,433.77 1110.64,434.737 1111.75,436.31 1112.87,437.846 1113.98,438.679 1115.1,438.551 1116.21,437.815 1117.33,437.257 1118.44,437.628 1119.55,439.15 1120.67,441.321 1121.78,443.161 1122.9,443.802 1124.01,443.068 1125.13,441.677 1125.68,441.129 1126.24,440.896 1126.8,441.098 1127.36,441.793 1127.91,442.963 1128.47,444.51 1129.03,446.266 1129.58,448.011 1130.14,449.51 1130.7,450.541 1131.26,450.937 1131.81,450.616 1132.37,449.605 1132.93,448.047 1133.48,446.196 1134.04,444.391 1134.6,443.025 1135.16,442.494 1135.71,443.149 1136.27,445.248 1136.83,448.918 1137.39,454.128 1137.94,460.683 1138.5,468.237 1139.06,476.323 1139.61,484.4 1140.17,491.909 1140.73,498.33 1141.29,503.239 1141.84,506.352 1142.4,507.551 1142.96,506.898 1143.51,504.618 1144.07,501.07 1144.63,496.709 1145.19,492.023 1145.74,487.486 1146.3,483.502 1146.86,480.37 1147.42,478.253 1147.97,477.179 1148.53,477.044 1149.09,477.642 1149.64,478.7 1150.2,479.919 1150.76,481.019 1151.32,481.774 1151.87,482.037 1152.43,481.752 1152.99,480.959 1153.54,479.771 1154.1,478.357 1155.22,475.618 1156.33,474.041 1156.89,473.88 1157.45,474.111 1158,474.637 1158.56,475.326 1163.02,474.456 1167.48,473.572 1184.44,470.746 1201.41,468.533 1218.37,466.4 1235.34,464.214 1305.9,454.806 1365.3,445.975 1437.82,435.22 1504.25,425.724 1565.61,416.612 1627.76,407.186 1697.41,396.759 1760.53,387.737 1796.66,382.42 1832.79,376.76 1866.25,371.887 1899.7,366.741 1907.95,365.434 1916.19,364.083 1924.44,362.684 1932.69,361.249 1933.72,360.832 1934.75,359.921 1935.78,358.881 1936.81,358.17 1937.84,358.089 1938.87,358.608 1939.9,359.358 1940.93,359.818 1941.96,359.597 1942.99,358.654 1944.02,357.355 1945.05,356.29 1946.09,355.966 1947.12,356.516 1948.15,357.595 1949.18,358.533 1950.21,358.68 1951.24,357.772 1952.27,356.121 1953.3,354.496 1953.82,353.967 1954.33,353.743 1954.85,353.864 1955.36,354.325 1956.39,356.011 1957.42,357.924 1957.94,358.608 1958.45,358.942 1958.97,358.846 1959.48,358.297 1960.52,356.064 1961.55,353.274 1962.06,352.168 1962.58,351.532 1963.09,351.53 1963.61,352.265 1964.12,353.757 1964.64,355.93 1965.15,358.614 1965.67,361.552 1966.17,364.342 1966.67,366.74 1967.17,368.415 1967.67,369.065 1968.17,368.447 1968.67,366.406 1969.17,362.889 1969.67,357.959 1970.17,351.791 1970.67,344.662 1971.17,336.928 1971.67,328.996 1972.17,321.288 1972.67,314.209 1973.17,308.109 1973.68,303.256 1974.18,299.818 1974.68,297.846 1975.18,297.281 1975.68,297.958 1976.18,299.631 1976.68,301.994 1977.18,304.719 1977.68,307.479 1978.18,309.984 1978.68,312.005 1979.18,313.387 1979.68,314.061 1980.18,314.043 1980.68,313.421 1981.18,312.342 1981.68,310.991 1982.68,308.248 1983.68,306.517 1984.18,306.264 1984.68,306.43 1985.18,306.959 1985.68,307.75 1986.68,309.606 1987.69,310.977 1988.19,311.246 1988.69,311.185 1989.19,310.811 1989.69,310.177 1990.69,308.478 1991.69,306.888 1992.69,306.074 1993.69,306.261 1994.69,307.165 1995.69,308.178 1996.69,308.683 1997.69,308.36 2005.7,306.288 2013.71,304.16 2021.71,302.062 2029.72,300.043 2046.13,296.437 2062.55,293.198 2078.96,290.25 2095.37,287.518 2131.34,281.766 2167.31,276.218 2219.56,267.754 2271.81,259.237 2282.53,257.3 2293.24,255.417 "/>
<path clip-path="url(#clip990)" d="M320.119 1377.32 L695.484 1377.32 L695.484 1066.28 L320.119 1066.28  Z" fill="#ffffff" fill-rule="evenodd" fill-opacity="1"/>
<polyline clip-path="url(#clip990)" style="stroke:#000000; stroke-linecap:round; stroke-linejoin:round; stroke-width:4; stroke-opacity:1; fill:none" points="320.119,1377.32 695.484,1377.32 695.484,1066.28 320.119,1066.28 320.119,1377.32 "/>
<polyline clip-path="url(#clip990)" style="stroke:#009af9; stroke-linecap:round; stroke-linejoin:round; stroke-width:4; stroke-opacity:1; fill:none" points="343.483,1118.12 483.665,1118.12 "/>
<path clip-path="url(#clip990)" d="M507.028 1099.38 L511.311 1099.38 L511.311 1120.65 L524.019 1109.47 L529.459 1109.47 L515.709 1121.6 L530.037 1135.4 L524.482 1135.4 L511.311 1122.73 L511.311 1135.4 L507.028 1135.4 L507.028 1099.38 Z" fill="#000000" fill-rule="evenodd" fill-opacity="1" /><path clip-path="url(#clip990)" d="M535.199 1113.87 L564.875 1113.87 L564.875 1117.76 L535.199 1117.76 L535.199 1113.87 M535.199 1123.31 L564.875 1123.31 L564.875 1127.25 L535.199 1127.25 L535.199 1123.31 Z" fill="#000000" fill-rule="evenodd" fill-opacity="1" /><path clip-path="url(#clip990)" d="M584.968 1103.91 Q581.357 1103.91 579.528 1107.48 Q577.722 1111.02 577.722 1118.15 Q577.722 1125.26 579.528 1128.82 Q581.357 1132.36 584.968 1132.36 Q588.602 1132.36 590.407 1128.82 Q592.236 1125.26 592.236 1118.15 Q592.236 1111.02 590.407 1107.48 Q588.602 1103.91 584.968 1103.91 M584.968 1100.21 Q590.778 1100.21 593.833 1104.82 Q596.912 1109.4 596.912 1118.15 Q596.912 1126.88 593.833 1131.48 Q590.778 1136.07 584.968 1136.07 Q579.157 1136.07 576.079 1131.48 Q573.023 1126.88 573.023 1118.15 Q573.023 1109.4 576.079 1104.82 Q579.157 1100.21 584.968 1100.21 Z" fill="#000000" fill-rule="evenodd" fill-opacity="1" /><path clip-path="url(#clip990)" d="M605.13 1129.52 L610.014 1129.52 L610.014 1135.4 L605.13 1135.4 L605.13 1129.52 Z" fill="#000000" fill-rule="evenodd" fill-opacity="1" /><path clip-path="url(#clip990)" d="M630.199 1103.91 Q626.588 1103.91 624.759 1107.48 Q622.954 1111.02 622.954 1118.15 Q622.954 1125.26 624.759 1128.82 Q626.588 1132.36 630.199 1132.36 Q633.833 1132.36 635.639 1128.82 Q637.467 1125.26 637.467 1118.15 Q637.467 1111.02 635.639 1107.48 Q633.833 1103.91 630.199 1103.91 M630.199 1100.21 Q636.009 1100.21 639.065 1104.82 Q642.143 1109.4 642.143 1118.15 Q642.143 1126.88 639.065 1131.48 Q636.009 1136.07 630.199 1136.07 Q624.389 1136.07 621.31 1131.48 Q618.254 1126.88 618.254 1118.15 Q618.254 1109.4 621.31 1104.82 Q624.389 1100.21 630.199 1100.21 Z" fill="#000000" fill-rule="evenodd" fill-opacity="1" /><polyline clip-path="url(#clip990)" style="stroke:#e26f46; stroke-linecap:round; stroke-linejoin:round; stroke-width:4; stroke-opacity:1; fill:none" points="343.483,1169.96 483.665,1169.96 "/>
<path clip-path="url(#clip990)" d="M507.028 1151.22 L511.311 1151.22 L511.311 1172.49 L524.019 1161.31 L529.459 1161.31 L515.709 1173.44 L530.037 1187.24 L524.482 1187.24 L511.311 1174.57 L511.311 1187.24 L507.028 1187.24 L507.028 1151.22 Z" fill="#000000" fill-rule="evenodd" fill-opacity="1" /><path clip-path="url(#clip990)" d="M535.199 1165.71 L564.875 1165.71 L564.875 1169.6 L535.199 1169.6 L535.199 1165.71 M535.199 1175.15 L564.875 1175.15 L564.875 1179.09 L535.199 1179.09 L535.199 1175.15 Z" fill="#000000" fill-rule="evenodd" fill-opacity="1" /><path clip-path="url(#clip990)" d="M584.968 1155.75 Q581.357 1155.75 579.528 1159.32 Q577.722 1162.86 577.722 1169.99 Q577.722 1177.1 579.528 1180.66 Q581.357 1184.2 584.968 1184.2 Q588.602 1184.2 590.407 1180.66 Q592.236 1177.1 592.236 1169.99 Q592.236 1162.86 590.407 1159.32 Q588.602 1155.75 584.968 1155.75 M584.968 1152.05 Q590.778 1152.05 593.833 1156.66 Q596.912 1161.24 596.912 1169.99 Q596.912 1178.72 593.833 1183.32 Q590.778 1187.91 584.968 1187.91 Q579.157 1187.91 576.079 1183.32 Q573.023 1178.72 573.023 1169.99 Q573.023 1161.24 576.079 1156.66 Q579.157 1152.05 584.968 1152.05 Z" fill="#000000" fill-rule="evenodd" fill-opacity="1" /><path clip-path="url(#clip990)" d="M605.13 1181.36 L610.014 1181.36 L610.014 1187.24 L605.13 1187.24 L605.13 1181.36 Z" fill="#000000" fill-rule="evenodd" fill-opacity="1" /><path clip-path="url(#clip990)" d="M619.018 1152.68 L641.24 1152.68 L641.24 1154.67 L628.694 1187.24 L623.81 1187.24 L635.615 1156.61 L619.018 1156.61 L619.018 1152.68 Z" fill="#000000" fill-rule="evenodd" fill-opacity="1" /><path clip-path="url(#clip990)" d="M650.5 1186.52 L650.5 1182.26 Q652.259 1183.09 654.064 1183.53 Q655.87 1183.97 657.606 1183.97 Q662.236 1183.97 664.666 1180.87 Q667.12 1177.74 667.467 1171.4 Q666.125 1173.39 664.064 1174.46 Q662.004 1175.52 659.504 1175.52 Q654.319 1175.52 651.287 1172.4 Q648.277 1169.25 648.277 1163.81 Q648.277 1158.49 651.426 1155.27 Q654.574 1152.05 659.805 1152.05 Q665.8 1152.05 668.949 1156.66 Q672.12 1161.24 672.12 1169.99 Q672.12 1178.16 668.231 1183.05 Q664.365 1187.91 657.814 1187.91 Q656.055 1187.91 654.25 1187.56 Q652.444 1187.21 650.5 1186.52 M659.805 1171.87 Q662.953 1171.87 664.782 1169.71 Q666.634 1167.56 666.634 1163.81 Q666.634 1160.08 664.782 1157.93 Q662.953 1155.75 659.805 1155.75 Q656.657 1155.75 654.805 1157.93 Q652.976 1160.08 652.976 1163.81 Q652.976 1167.56 654.805 1169.71 Q656.657 1171.87 659.805 1171.87 Z" fill="#000000" fill-rule="evenodd" fill-opacity="1" /><polyline clip-path="url(#clip990)" style="stroke:#3da44d; stroke-linecap:round; stroke-linejoin:round; stroke-width:4; stroke-opacity:1; fill:none" points="343.483,1221.8 483.665,1221.8 "/>
<path clip-path="url(#clip990)" d="M507.028 1203.06 L511.311 1203.06 L511.311 1224.33 L524.019 1213.15 L529.459 1213.15 L515.709 1225.28 L530.037 1239.08 L524.482 1239.08 L511.311 1226.41 L511.311 1239.08 L507.028 1239.08 L507.028 1203.06 Z" fill="#000000" fill-rule="evenodd" fill-opacity="1" /><path clip-path="url(#clip990)" d="M535.199 1217.55 L564.875 1217.55 L564.875 1221.44 L535.199 1221.44 L535.199 1217.55 M535.199 1226.99 L564.875 1226.99 L564.875 1230.93 L535.199 1230.93 L535.199 1226.99 Z" fill="#000000" fill-rule="evenodd" fill-opacity="1" /><path clip-path="url(#clip990)" d="M575.778 1235.14 L583.417 1235.14 L583.417 1208.77 L575.107 1210.44 L575.107 1206.18 L583.37 1204.52 L588.046 1204.52 L588.046 1235.14 L595.685 1235.14 L595.685 1239.08 L575.778 1239.08 L575.778 1235.14 Z" fill="#000000" fill-rule="evenodd" fill-opacity="1" /><path clip-path="url(#clip990)" d="M605.13 1233.2 L610.014 1233.2 L610.014 1239.08 L605.13 1239.08 L605.13 1233.2 Z" fill="#000000" fill-rule="evenodd" fill-opacity="1" /><path clip-path="url(#clip990)" d="M630.778 1219.93 Q627.629 1219.93 625.778 1222.08 Q623.949 1224.24 623.949 1227.99 Q623.949 1231.71 625.778 1233.89 Q627.629 1236.04 630.778 1236.04 Q633.926 1236.04 635.754 1233.89 Q637.606 1231.71 637.606 1227.99 Q637.606 1224.24 635.754 1222.08 Q633.926 1219.93 630.778 1219.93 M640.06 1205.28 L640.06 1209.54 Q638.301 1208.71 636.495 1208.27 Q634.713 1207.83 632.953 1207.83 Q628.324 1207.83 625.87 1210.95 Q623.44 1214.08 623.092 1220.39 Q624.458 1218.38 626.518 1217.32 Q628.578 1216.23 631.055 1216.23 Q636.264 1216.23 639.273 1219.4 Q642.305 1222.55 642.305 1227.99 Q642.305 1233.31 639.157 1236.53 Q636.009 1239.75 630.778 1239.75 Q624.782 1239.75 621.611 1235.16 Q618.44 1230.56 618.44 1221.83 Q618.44 1213.64 622.329 1208.77 Q626.217 1203.89 632.768 1203.89 Q634.528 1203.89 636.31 1204.24 Q638.115 1204.58 640.06 1205.28 Z" fill="#000000" fill-rule="evenodd" fill-opacity="1" /><polyline clip-path="url(#clip990)" style="stroke:#c271d2; stroke-linecap:round; stroke-linejoin:round; stroke-width:4; stroke-opacity:1; fill:none" points="343.483,1273.64 483.665,1273.64 "/>
<path clip-path="url(#clip990)" d="M507.028 1254.9 L511.311 1254.9 L511.311 1276.17 L524.019 1264.99 L529.459 1264.99 L515.709 1277.12 L530.037 1290.92 L524.482 1290.92 L511.311 1278.25 L511.311 1290.92 L507.028 1290.92 L507.028 1254.9 Z" fill="#000000" fill-rule="evenodd" fill-opacity="1" /><path clip-path="url(#clip990)" d="M535.199 1269.39 L564.875 1269.39 L564.875 1273.28 L535.199 1273.28 L535.199 1269.39 M535.199 1278.83 L564.875 1278.83 L564.875 1282.77 L535.199 1282.77 L535.199 1278.83 Z" fill="#000000" fill-rule="evenodd" fill-opacity="1" /><path clip-path="url(#clip990)" d="M578.995 1286.98 L595.315 1286.98 L595.315 1290.92 L573.37 1290.92 L573.37 1286.98 Q576.032 1284.23 580.616 1279.6 Q585.222 1274.94 586.403 1273.6 Q588.648 1271.08 589.528 1269.34 Q590.431 1267.58 590.431 1265.89 Q590.431 1263.14 588.486 1261.4 Q586.565 1259.67 583.463 1259.67 Q581.264 1259.67 578.81 1260.43 Q576.38 1261.19 573.602 1262.74 L573.602 1258.02 Q576.426 1256.89 578.88 1256.31 Q581.333 1255.73 583.37 1255.73 Q588.741 1255.73 591.935 1258.42 Q595.13 1261.1 595.13 1265.59 Q595.13 1267.72 594.319 1269.64 Q593.532 1271.54 591.426 1274.13 Q590.847 1274.8 587.745 1278.02 Q584.644 1281.22 578.995 1286.98 Z" fill="#000000" fill-rule="evenodd" fill-opacity="1" /><path clip-path="url(#clip990)" d="M605.13 1285.04 L610.014 1285.04 L610.014 1290.92 L605.13 1290.92 L605.13 1285.04 Z" fill="#000000" fill-rule="evenodd" fill-opacity="1" /><path clip-path="url(#clip990)" d="M633.046 1260.43 L621.241 1278.88 L633.046 1278.88 L633.046 1260.43 M631.819 1256.36 L637.699 1256.36 L637.699 1278.88 L642.629 1278.88 L642.629 1282.77 L637.699 1282.77 L637.699 1290.92 L633.046 1290.92 L633.046 1282.77 L617.444 1282.77 L617.444 1278.25 L631.819 1256.36 Z" fill="#000000" fill-rule="evenodd" fill-opacity="1" /><polyline clip-path="url(#clip990)" style="stroke:#ac8d18; stroke-linecap:round; stroke-linejoin:round; stroke-width:4; stroke-opacity:1; fill:none" points="343.483,1325.48 483.665,1325.48 "/>
<path clip-path="url(#clip990)" d="M507.028 1306.74 L511.311 1306.74 L511.311 1328.01 L524.019 1316.83 L529.459 1316.83 L515.709 1328.96 L530.037 1342.76 L524.482 1342.76 L511.311 1330.09 L511.311 1342.76 L507.028 1342.76 L507.028 1306.74 Z" fill="#000000" fill-rule="evenodd" fill-opacity="1" /><path clip-path="url(#clip990)" d="M535.199 1321.23 L564.875 1321.23 L564.875 1325.12 L535.199 1325.12 L535.199 1321.23 M535.199 1330.67 L564.875 1330.67 L564.875 1334.61 L535.199 1334.61 L535.199 1330.67 Z" fill="#000000" fill-rule="evenodd" fill-opacity="1" /><path clip-path="url(#clip990)" d="M589.134 1324.12 Q592.491 1324.84 594.366 1327.11 Q596.264 1329.38 596.264 1332.71 Q596.264 1337.82 592.745 1340.63 Q589.227 1343.43 582.745 1343.43 Q580.569 1343.43 578.255 1342.99 Q575.963 1342.57 573.509 1341.71 L573.509 1337.2 Q575.454 1338.33 577.769 1338.91 Q580.083 1339.49 582.607 1339.49 Q587.005 1339.49 589.296 1337.76 Q591.611 1336.02 591.611 1332.71 Q591.611 1329.65 589.458 1327.94 Q587.329 1326.2 583.509 1326.2 L579.482 1326.2 L579.482 1322.36 L583.694 1322.36 Q587.144 1322.36 588.972 1321 Q590.801 1319.61 590.801 1317.01 Q590.801 1314.35 588.903 1312.94 Q587.028 1311.51 583.509 1311.51 Q581.588 1311.51 579.389 1311.92 Q577.19 1312.34 574.551 1313.22 L574.551 1309.05 Q577.213 1308.31 579.528 1307.94 Q581.866 1307.57 583.926 1307.57 Q589.25 1307.57 592.352 1310 Q595.454 1312.41 595.454 1316.53 Q595.454 1319.4 593.81 1321.39 Q592.167 1323.36 589.134 1324.12 Z" fill="#000000" fill-rule="evenodd" fill-opacity="1" /><path clip-path="url(#clip990)" d="M605.13 1336.88 L610.014 1336.88 L610.014 1342.76 L605.13 1342.76 L605.13 1336.88 Z" fill="#000000" fill-rule="evenodd" fill-opacity="1" /><path clip-path="url(#clip990)" d="M621.009 1338.82 L628.648 1338.82 L628.648 1312.45 L620.338 1314.12 L620.338 1309.86 L628.602 1308.2 L633.278 1308.2 L633.278 1338.82 L640.916 1338.82 L640.916 1342.76 L621.009 1342.76 L621.009 1338.82 Z" fill="#000000" fill-rule="evenodd" fill-opacity="1" /></svg>
