<?xml version="1.0" encoding="utf-8"?>
<svg xmlns="http://www.w3.org/2000/svg" xmlns:xlink="http://www.w3.org/1999/xlink" width="600" height="400" viewBox="0 0 2400 1600">
<defs>
  <clipPath id="clip340">
    <rect x="0" y="0" width="2400" height="1600"/>
  </clipPath>
</defs>
<path clip-path="url(#clip340)" d="M0 1600 L2400 1600 L2400 0 L0 0  Z" fill="#ffffff" fill-rule="evenodd" fill-opacity="1"/>
<defs>
  <clipPath id="clip341">
    <rect x="480" y="0" width="1681" height="1600"/>
  </clipPath>
</defs>
<path clip-path="url(#clip340)" d="M186.274 1486.45 L2352.76 1486.45 L2352.76 47.2441 L186.274 47.2441  Z" fill="#ffffff" fill-rule="evenodd" fill-opacity="1"/>
<defs>
  <clipPath id="clip342">
    <rect x="186" y="47" width="2167" height="1440"/>
  </clipPath>
</defs>
<polyline clip-path="url(#clip342)" style="stroke:#000000; stroke-linecap:round; stroke-linejoin:round; stroke-width:2; stroke-opacity:0.1; fill:none" points="247.59,1486.45 247.59,47.2441 "/>
<polyline clip-path="url(#clip342)" style="stroke:#000000; stroke-linecap:round; stroke-linejoin:round; stroke-width:2; stroke-opacity:0.1; fill:none" points="656.36,1486.45 656.36,47.2441 "/>
<polyline clip-path="url(#clip342)" style="stroke:#000000; stroke-linecap:round; stroke-linejoin:round; stroke-width:2; stroke-opacity:0.1; fill:none" points="1065.13,1486.45 1065.13,47.2441 "/>
<polyline clip-path="url(#clip342)" style="stroke:#000000; stroke-linecap:round; stroke-linejoin:round; stroke-width:2; stroke-opacity:0.1; fill:none" points="1473.9,1486.45 1473.9,47.2441 "/>
<polyline clip-path="url(#clip342)" style="stroke:#000000; stroke-linecap:round; stroke-linejoin:round; stroke-width:2; stroke-opacity:0.1; fill:none" points="1882.67,1486.45 1882.67,47.2441 "/>
<polyline clip-path="url(#clip342)" style="stroke:#000000; stroke-linecap:round; stroke-linejoin:round; stroke-width:2; stroke-opacity:0.1; fill:none" points="2291.44,1486.45 2291.44,47.2441 "/>
<polyline clip-path="url(#clip340)" style="stroke:#000000; stroke-linecap:round; stroke-linejoin:round; stroke-width:4; stroke-opacity:1; fill:none" points="186.274,1486.45 2352.76,1486.45 "/>
<polyline clip-path="url(#clip340)" style="stroke:#000000; stroke-linecap:round; stroke-linejoin:round; stroke-width:4; stroke-opacity:1; fill:none" points="247.59,1486.45 247.59,1467.55 "/>
<polyline clip-path="url(#clip340)" style="stroke:#000000; stroke-linecap:round; stroke-linejoin:round; stroke-width:4; stroke-opacity:1; fill:none" points="656.36,1486.45 656.36,1467.55 "/>
<polyline clip-path="url(#clip340)" style="stroke:#000000; stroke-linecap:round; stroke-linejoin:round; stroke-width:4; stroke-opacity:1; fill:none" points="1065.13,1486.45 1065.13,1467.55 "/>
<polyline clip-path="url(#clip340)" style="stroke:#000000; stroke-linecap:round; stroke-linejoin:round; stroke-width:4; stroke-opacity:1; fill:none" points="1473.9,1486.45 1473.9,1467.55 "/>
<polyline clip-path="url(#clip340)" style="stroke:#000000; stroke-linecap:round; stroke-linejoin:round; stroke-width:4; stroke-opacity:1; fill:none" points="1882.67,1486.45 1882.67,1467.55 "/>
<polyline clip-path="url(#clip340)" style="stroke:#000000; stroke-linecap:round; stroke-linejoin:round; stroke-width:4; stroke-opacity:1; fill:none" points="2291.44,1486.45 2291.44,1467.55 "/>
<path clip-path="url(#clip340)" d="M247.59 1517.37 Q243.978 1517.37 242.15 1520.93 Q240.344 1524.47 240.344 1531.6 Q240.344 1538.71 242.15 1542.27 Q243.978 1545.82 247.59 1545.82 Q251.224 1545.82 253.029 1542.27 Q254.858 1538.71 254.858 1531.6 Q254.858 1524.47 253.029 1520.93 Q251.224 1517.37 247.59 1517.37 M247.59 1513.66 Q253.4 1513.66 256.455 1518.27 Q259.534 1522.85 259.534 1531.6 Q259.534 1540.33 256.455 1544.94 Q253.4 1549.52 247.59 1549.52 Q241.779 1549.52 238.701 1544.94 Q235.645 1540.33 235.645 1531.6 Q235.645 1522.85 238.701 1518.27 Q241.779 1513.66 247.59 1513.66 Z" fill="#000000" fill-rule="evenodd" fill-opacity="1" /><path clip-path="url(#clip340)" d="M631.047 1544.91 L638.686 1544.91 L638.686 1518.55 L630.376 1520.21 L630.376 1515.95 L638.64 1514.29 L643.316 1514.29 L643.316 1544.91 L650.955 1544.91 L650.955 1548.85 L631.047 1548.85 L631.047 1544.91 Z" fill="#000000" fill-rule="evenodd" fill-opacity="1" /><path clip-path="url(#clip340)" d="M670.399 1517.37 Q666.788 1517.37 664.959 1520.93 Q663.154 1524.47 663.154 1531.6 Q663.154 1538.71 664.959 1542.27 Q666.788 1545.82 670.399 1545.82 Q674.033 1545.82 675.839 1542.27 Q677.667 1538.71 677.667 1531.6 Q677.667 1524.47 675.839 1520.93 Q674.033 1517.37 670.399 1517.37 M670.399 1513.66 Q676.209 1513.66 679.265 1518.27 Q682.343 1522.85 682.343 1531.6 Q682.343 1540.33 679.265 1544.94 Q676.209 1549.52 670.399 1549.52 Q664.589 1549.52 661.51 1544.94 Q658.455 1540.33 658.455 1531.6 Q658.455 1522.85 661.51 1518.27 Q664.589 1513.66 670.399 1513.66 Z" fill="#000000" fill-rule="evenodd" fill-opacity="1" /><path clip-path="url(#clip340)" d="M1043.9 1544.91 L1060.22 1544.91 L1060.22 1548.85 L1038.28 1548.85 L1038.28 1544.91 Q1040.94 1542.16 1045.52 1537.53 Q1050.13 1532.88 1051.31 1531.53 Q1053.56 1529.01 1054.44 1527.27 Q1055.34 1525.51 1055.34 1523.82 Q1055.34 1521.07 1053.39 1519.33 Q1051.47 1517.6 1048.37 1517.6 Q1046.17 1517.6 1043.72 1518.36 Q1041.29 1519.13 1038.51 1520.68 L1038.51 1515.95 Q1041.33 1514.82 1043.79 1514.24 Q1046.24 1513.66 1048.28 1513.66 Q1053.65 1513.66 1056.84 1516.35 Q1060.04 1519.03 1060.04 1523.52 Q1060.04 1525.65 1059.23 1527.57 Q1058.44 1529.47 1056.33 1532.07 Q1055.75 1532.74 1052.65 1535.95 Q1049.55 1539.15 1043.9 1544.91 Z" fill="#000000" fill-rule="evenodd" fill-opacity="1" /><path clip-path="url(#clip340)" d="M1080.04 1517.37 Q1076.43 1517.37 1074.6 1520.93 Q1072.79 1524.47 1072.79 1531.6 Q1072.79 1538.71 1074.6 1542.27 Q1076.43 1545.82 1080.04 1545.82 Q1083.67 1545.82 1085.48 1542.27 Q1087.31 1538.71 1087.31 1531.6 Q1087.31 1524.47 1085.48 1520.93 Q1083.67 1517.37 1080.04 1517.37 M1080.04 1513.66 Q1085.85 1513.66 1088.9 1518.27 Q1091.98 1522.85 1091.98 1531.6 Q1091.98 1540.33 1088.9 1544.94 Q1085.85 1549.52 1080.04 1549.52 Q1074.23 1549.52 1071.15 1544.94 Q1068.09 1540.33 1068.09 1531.6 Q1068.09 1522.85 1071.15 1518.27 Q1074.23 1513.66 1080.04 1513.66 Z" fill="#000000" fill-rule="evenodd" fill-opacity="1" /><path clip-path="url(#clip340)" d="M1462.74 1530.21 Q1466.1 1530.93 1467.97 1533.2 Q1469.87 1535.47 1469.87 1538.8 Q1469.87 1543.92 1466.35 1546.72 Q1462.84 1549.52 1456.35 1549.52 Q1454.18 1549.52 1451.86 1549.08 Q1449.57 1548.66 1447.12 1547.81 L1447.12 1543.29 Q1449.06 1544.43 1451.38 1545.01 Q1453.69 1545.58 1456.21 1545.58 Q1460.61 1545.58 1462.9 1543.85 Q1465.22 1542.11 1465.22 1538.8 Q1465.22 1535.75 1463.07 1534.03 Q1460.94 1532.3 1457.12 1532.3 L1453.09 1532.3 L1453.09 1528.45 L1457.3 1528.45 Q1460.75 1528.45 1462.58 1527.09 Q1464.41 1525.7 1464.41 1523.11 Q1464.41 1520.45 1462.51 1519.03 Q1460.64 1517.6 1457.12 1517.6 Q1455.2 1517.6 1453 1518.01 Q1450.8 1518.43 1448.16 1519.31 L1448.16 1515.14 Q1450.82 1514.4 1453.14 1514.03 Q1455.47 1513.66 1457.53 1513.66 Q1462.86 1513.66 1465.96 1516.09 Q1469.06 1518.5 1469.06 1522.62 Q1469.06 1525.49 1467.42 1527.48 Q1465.78 1529.45 1462.74 1530.21 Z" fill="#000000" fill-rule="evenodd" fill-opacity="1" /><path clip-path="url(#clip340)" d="M1488.74 1517.37 Q1485.13 1517.37 1483.3 1520.93 Q1481.49 1524.47 1481.49 1531.6 Q1481.49 1538.71 1483.3 1542.27 Q1485.13 1545.82 1488.74 1545.82 Q1492.37 1545.82 1494.18 1542.27 Q1496.01 1538.71 1496.01 1531.6 Q1496.01 1524.47 1494.18 1520.93 Q1492.37 1517.37 1488.74 1517.37 M1488.74 1513.66 Q1494.55 1513.66 1497.6 1518.27 Q1500.68 1522.85 1500.68 1531.6 Q1500.68 1540.33 1497.6 1544.94 Q1494.55 1549.52 1488.74 1549.52 Q1482.93 1549.52 1479.85 1544.94 Q1476.79 1540.33 1476.79 1531.6 Q1476.79 1522.85 1479.85 1518.27 Q1482.93 1513.66 1488.74 1513.66 Z" fill="#000000" fill-rule="evenodd" fill-opacity="1" /><path clip-path="url(#clip340)" d="M1870.84 1518.36 L1859.04 1536.81 L1870.84 1536.81 L1870.84 1518.36 M1869.61 1514.29 L1875.49 1514.29 L1875.49 1536.81 L1880.42 1536.81 L1880.42 1540.7 L1875.49 1540.7 L1875.49 1548.85 L1870.84 1548.85 L1870.84 1540.7 L1855.24 1540.7 L1855.24 1536.19 L1869.61 1514.29 Z" fill="#000000" fill-rule="evenodd" fill-opacity="1" /><path clip-path="url(#clip340)" d="M1898.16 1517.37 Q1894.55 1517.37 1892.72 1520.93 Q1890.91 1524.47 1890.91 1531.6 Q1890.91 1538.71 1892.72 1542.27 Q1894.55 1545.82 1898.16 1545.82 Q1901.79 1545.82 1903.6 1542.27 Q1905.42 1538.71 1905.42 1531.6 Q1905.42 1524.47 1903.6 1520.93 Q1901.79 1517.37 1898.16 1517.37 M1898.16 1513.66 Q1903.97 1513.66 1907.02 1518.27 Q1910.1 1522.85 1910.1 1531.6 Q1910.1 1540.33 1907.02 1544.94 Q1903.97 1549.52 1898.16 1549.52 Q1892.35 1549.52 1889.27 1544.94 Q1886.21 1540.33 1886.21 1531.6 Q1886.21 1522.85 1889.27 1518.27 Q1892.35 1513.66 1898.16 1513.66 Z" fill="#000000" fill-rule="evenodd" fill-opacity="1" /><path clip-path="url(#clip340)" d="M2266.14 1514.29 L2284.5 1514.29 L2284.5 1518.22 L2270.42 1518.22 L2270.42 1526.7 Q2271.44 1526.35 2272.46 1526.19 Q2273.48 1526 2274.5 1526 Q2280.28 1526 2283.66 1529.17 Q2287.04 1532.34 2287.04 1537.76 Q2287.04 1543.34 2283.57 1546.44 Q2280.1 1549.52 2273.78 1549.52 Q2271.6 1549.52 2269.33 1549.15 Q2267.09 1548.78 2264.68 1548.04 L2264.68 1543.34 Q2266.76 1544.47 2268.99 1545.03 Q2271.21 1545.58 2273.69 1545.58 Q2277.69 1545.58 2280.03 1543.48 Q2282.37 1541.37 2282.37 1537.76 Q2282.37 1534.15 2280.03 1532.04 Q2277.69 1529.94 2273.69 1529.94 Q2271.81 1529.94 2269.94 1530.35 Q2268.08 1530.77 2266.14 1531.65 L2266.14 1514.29 Z" fill="#000000" fill-rule="evenodd" fill-opacity="1" /><path clip-path="url(#clip340)" d="M2306.26 1517.37 Q2302.64 1517.37 2300.82 1520.93 Q2299.01 1524.47 2299.01 1531.6 Q2299.01 1538.71 2300.82 1542.27 Q2302.64 1545.82 2306.26 1545.82 Q2309.89 1545.82 2311.69 1542.27 Q2313.52 1538.71 2313.52 1531.6 Q2313.52 1524.47 2311.69 1520.93 Q2309.89 1517.37 2306.26 1517.37 M2306.26 1513.66 Q2312.07 1513.66 2315.12 1518.27 Q2318.2 1522.85 2318.2 1531.6 Q2318.2 1540.33 2315.12 1544.94 Q2312.07 1549.52 2306.26 1549.52 Q2300.44 1549.52 2297.37 1544.94 Q2294.31 1540.33 2294.31 1531.6 Q2294.31 1522.85 2297.37 1518.27 Q2300.44 1513.66 2306.26 1513.66 Z" fill="#000000" fill-rule="evenodd" fill-opacity="1" /><polyline clip-path="url(#clip342)" style="stroke:#000000; stroke-linecap:round; stroke-linejoin:round; stroke-width:2; stroke-opacity:0.1; fill:none" points="186.274,1445.72 2352.76,1445.72 "/>
<polyline clip-path="url(#clip342)" style="stroke:#000000; stroke-linecap:round; stroke-linejoin:round; stroke-width:2; stroke-opacity:0.1; fill:none" points="186.274,1119.81 2352.76,1119.81 "/>
<polyline clip-path="url(#clip342)" style="stroke:#000000; stroke-linecap:round; stroke-linejoin:round; stroke-width:2; stroke-opacity:0.1; fill:none" points="186.274,793.899 2352.76,793.899 "/>
<polyline clip-path="url(#clip342)" style="stroke:#000000; stroke-linecap:round; stroke-linejoin:round; stroke-width:2; stroke-opacity:0.1; fill:none" points="186.274,467.991 2352.76,467.991 "/>
<polyline clip-path="url(#clip342)" style="stroke:#000000; stroke-linecap:round; stroke-linejoin:round; stroke-width:2; stroke-opacity:0.1; fill:none" points="186.274,142.082 2352.76,142.082 "/>
<polyline clip-path="url(#clip340)" style="stroke:#000000; stroke-linecap:round; stroke-linejoin:round; stroke-width:4; stroke-opacity:1; fill:none" points="186.274,1486.45 186.274,47.2441 "/>
<polyline clip-path="url(#clip340)" style="stroke:#000000; stroke-linecap:round; stroke-linejoin:round; stroke-width:4; stroke-opacity:1; fill:none" points="186.274,1445.72 205.172,1445.72 "/>
<polyline clip-path="url(#clip340)" style="stroke:#000000; stroke-linecap:round; stroke-linejoin:round; stroke-width:4; stroke-opacity:1; fill:none" points="186.274,1119.81 205.172,1119.81 "/>
<polyline clip-path="url(#clip340)" style="stroke:#000000; stroke-linecap:round; stroke-linejoin:round; stroke-width:4; stroke-opacity:1; fill:none" points="186.274,793.899 205.172,793.899 "/>
<polyline clip-path="url(#clip340)" style="stroke:#000000; stroke-linecap:round; stroke-linejoin:round; stroke-width:4; stroke-opacity:1; fill:none" points="186.274,467.991 205.172,467.991 "/>
<polyline clip-path="url(#clip340)" style="stroke:#000000; stroke-linecap:round; stroke-linejoin:round; stroke-width:4; stroke-opacity:1; fill:none" points="186.274,142.082 205.172,142.082 "/>
<path clip-path="url(#clip340)" d="M62.9365 1431.51 Q59.3254 1431.51 57.4967 1435.08 Q55.6912 1438.62 55.6912 1445.75 Q55.6912 1452.86 57.4967 1456.42 Q59.3254 1459.96 62.9365 1459.96 Q66.5707 1459.96 68.3763 1456.42 Q70.205 1452.86 70.205 1445.75 Q70.205 1438.62 68.3763 1435.08 Q66.5707 1431.51 62.9365 1431.51 M62.9365 1427.81 Q68.7467 1427.81 71.8022 1432.42 Q74.8809 1437 74.8809 1445.75 Q74.8809 1454.48 71.8022 1459.08 Q68.7467 1463.67 62.9365 1463.67 Q57.1264 1463.67 54.0477 1459.08 Q50.9921 1454.48 50.9921 1445.75 Q50.9921 1437 54.0477 1432.42 Q57.1264 1427.81 62.9365 1427.81 Z" fill="#000000" fill-rule="evenodd" fill-opacity="1" /><path clip-path="url(#clip340)" d="M83.0984 1457.12 L87.9827 1457.12 L87.9827 1463 L83.0984 1463 L83.0984 1457.12 Z" fill="#000000" fill-rule="evenodd" fill-opacity="1" /><path clip-path="url(#clip340)" d="M108.168 1431.51 Q104.557 1431.51 102.728 1435.08 Q100.922 1438.62 100.922 1445.75 Q100.922 1452.86 102.728 1456.42 Q104.557 1459.96 108.168 1459.96 Q111.802 1459.96 113.608 1456.42 Q115.436 1452.86 115.436 1445.75 Q115.436 1438.62 113.608 1435.08 Q111.802 1431.51 108.168 1431.51 M108.168 1427.81 Q113.978 1427.81 117.033 1432.42 Q120.112 1437 120.112 1445.75 Q120.112 1454.48 117.033 1459.08 Q113.978 1463.67 108.168 1463.67 Q102.358 1463.67 99.2789 1459.08 Q96.2234 1454.48 96.2234 1445.75 Q96.2234 1437 99.2789 1432.42 Q102.358 1427.81 108.168 1427.81 Z" fill="#000000" fill-rule="evenodd" fill-opacity="1" /><path clip-path="url(#clip340)" d="M138.33 1431.51 Q134.719 1431.51 132.89 1435.08 Q131.084 1438.62 131.084 1445.75 Q131.084 1452.86 132.89 1456.42 Q134.719 1459.96 138.33 1459.96 Q141.964 1459.96 143.769 1456.42 Q145.598 1452.86 145.598 1445.75 Q145.598 1438.62 143.769 1435.08 Q141.964 1431.51 138.33 1431.51 M138.33 1427.81 Q144.14 1427.81 147.195 1432.42 Q150.274 1437 150.274 1445.75 Q150.274 1454.48 147.195 1459.08 Q144.14 1463.67 138.33 1463.67 Q132.519 1463.67 129.441 1459.08 Q126.385 1454.48 126.385 1445.75 Q126.385 1437 129.441 1432.42 Q132.519 1427.81 138.33 1427.81 Z" fill="#000000" fill-rule="evenodd" fill-opacity="1" /><path clip-path="url(#clip340)" d="M63.9319 1105.61 Q60.3208 1105.61 58.4921 1109.17 Q56.6865 1112.71 56.6865 1119.84 Q56.6865 1126.95 58.4921 1130.51 Q60.3208 1134.05 63.9319 1134.05 Q67.5661 1134.05 69.3717 1130.51 Q71.2004 1126.95 71.2004 1119.84 Q71.2004 1112.71 69.3717 1109.17 Q67.5661 1105.61 63.9319 1105.61 M63.9319 1101.9 Q69.742 1101.9 72.7976 1106.51 Q75.8763 1111.09 75.8763 1119.84 Q75.8763 1128.57 72.7976 1133.18 Q69.742 1137.76 63.9319 1137.76 Q58.1217 1137.76 55.043 1133.18 Q51.9875 1128.57 51.9875 1119.84 Q51.9875 1111.09 55.043 1106.51 Q58.1217 1101.9 63.9319 1101.9 Z" fill="#000000" fill-rule="evenodd" fill-opacity="1" /><path clip-path="url(#clip340)" d="M84.0938 1131.21 L88.978 1131.21 L88.978 1137.09 L84.0938 1137.09 L84.0938 1131.21 Z" fill="#000000" fill-rule="evenodd" fill-opacity="1" /><path clip-path="url(#clip340)" d="M103.191 1133.15 L119.51 1133.15 L119.51 1137.09 L97.566 1137.09 L97.566 1133.15 Q100.228 1130.4 104.811 1125.77 Q109.418 1121.12 110.598 1119.77 Q112.844 1117.25 113.723 1115.51 Q114.626 1113.75 114.626 1112.06 Q114.626 1109.31 112.682 1107.57 Q110.76 1105.84 107.658 1105.84 Q105.459 1105.84 103.006 1106.6 Q100.575 1107.37 97.7974 1108.92 L97.7974 1104.19 Q100.621 1103.06 103.075 1102.48 Q105.529 1101.9 107.566 1101.9 Q112.936 1101.9 116.131 1104.59 Q119.325 1107.27 119.325 1111.76 Q119.325 1113.89 118.515 1115.81 Q117.728 1117.71 115.621 1120.31 Q115.043 1120.98 111.941 1124.19 Q108.839 1127.39 103.191 1133.15 Z" fill="#000000" fill-rule="evenodd" fill-opacity="1" /><path clip-path="url(#clip340)" d="M129.371 1102.53 L147.728 1102.53 L147.728 1106.46 L133.654 1106.46 L133.654 1114.93 Q134.672 1114.59 135.691 1114.43 Q136.709 1114.24 137.728 1114.24 Q143.515 1114.24 146.894 1117.41 Q150.274 1120.58 150.274 1126 Q150.274 1131.58 146.802 1134.68 Q143.33 1137.76 137.01 1137.76 Q134.834 1137.76 132.566 1137.39 Q130.32 1137.02 127.913 1136.28 L127.913 1131.58 Q129.996 1132.71 132.219 1133.27 Q134.441 1133.82 136.918 1133.82 Q140.922 1133.82 143.26 1131.72 Q145.598 1129.61 145.598 1126 Q145.598 1122.39 143.26 1120.28 Q140.922 1118.18 136.918 1118.18 Q135.043 1118.18 133.168 1118.59 Q131.316 1119.01 129.371 1119.89 L129.371 1102.53 Z" fill="#000000" fill-rule="evenodd" fill-opacity="1" /><path clip-path="url(#clip340)" d="M62.9365 779.698 Q59.3254 779.698 57.4967 783.263 Q55.6912 786.804 55.6912 793.934 Q55.6912 801.04 57.4967 804.605 Q59.3254 808.147 62.9365 808.147 Q66.5707 808.147 68.3763 804.605 Q70.205 801.04 70.205 793.934 Q70.205 786.804 68.3763 783.263 Q66.5707 779.698 62.9365 779.698 M62.9365 775.994 Q68.7467 775.994 71.8022 780.6 Q74.8809 785.184 74.8809 793.934 Q74.8809 802.661 71.8022 807.267 Q68.7467 811.85 62.9365 811.85 Q57.1264 811.85 54.0477 807.267 Q50.9921 802.661 50.9921 793.934 Q50.9921 785.184 54.0477 780.6 Q57.1264 775.994 62.9365 775.994 Z" fill="#000000" fill-rule="evenodd" fill-opacity="1" /><path clip-path="url(#clip340)" d="M83.0984 805.299 L87.9827 805.299 L87.9827 811.179 L83.0984 811.179 L83.0984 805.299 Z" fill="#000000" fill-rule="evenodd" fill-opacity="1" /><path clip-path="url(#clip340)" d="M98.2141 776.619 L116.57 776.619 L116.57 780.554 L102.496 780.554 L102.496 789.026 Q103.515 788.679 104.534 788.517 Q105.552 788.332 106.571 788.332 Q112.358 788.332 115.737 791.503 Q119.117 794.674 119.117 800.091 Q119.117 805.67 115.645 808.772 Q112.172 811.85 105.853 811.85 Q103.677 811.85 101.409 811.48 Q99.1632 811.11 96.7558 810.369 L96.7558 805.67 Q98.8391 806.804 101.061 807.36 Q103.284 807.915 105.76 807.915 Q109.765 807.915 112.103 805.809 Q114.441 803.702 114.441 800.091 Q114.441 796.48 112.103 794.374 Q109.765 792.267 105.76 792.267 Q103.885 792.267 102.01 792.684 Q100.159 793.1 98.2141 793.98 L98.2141 776.619 Z" fill="#000000" fill-rule="evenodd" fill-opacity="1" /><path clip-path="url(#clip340)" d="M138.33 779.698 Q134.719 779.698 132.89 783.263 Q131.084 786.804 131.084 793.934 Q131.084 801.04 132.89 804.605 Q134.719 808.147 138.33 808.147 Q141.964 808.147 143.769 804.605 Q145.598 801.04 145.598 793.934 Q145.598 786.804 143.769 783.263 Q141.964 779.698 138.33 779.698 M138.33 775.994 Q144.14 775.994 147.195 780.6 Q150.274 785.184 150.274 793.934 Q150.274 802.661 147.195 807.267 Q144.14 811.85 138.33 811.85 Q132.519 811.85 129.441 807.267 Q126.385 802.661 126.385 793.934 Q126.385 785.184 129.441 780.6 Q132.519 775.994 138.33 775.994 Z" fill="#000000" fill-rule="evenodd" fill-opacity="1" /><path clip-path="url(#clip340)" d="M63.9319 453.789 Q60.3208 453.789 58.4921 457.354 Q56.6865 460.896 56.6865 468.025 Q56.6865 475.132 58.4921 478.697 Q60.3208 482.238 63.9319 482.238 Q67.5661 482.238 69.3717 478.697 Q71.2004 475.132 71.2004 468.025 Q71.2004 460.896 69.3717 457.354 Q67.5661 453.789 63.9319 453.789 M63.9319 450.086 Q69.742 450.086 72.7976 454.692 Q75.8763 459.275 75.8763 468.025 Q75.8763 476.752 72.7976 481.359 Q69.742 485.942 63.9319 485.942 Q58.1217 485.942 55.043 481.359 Q51.9875 476.752 51.9875 468.025 Q51.9875 459.275 55.043 454.692 Q58.1217 450.086 63.9319 450.086 Z" fill="#000000" fill-rule="evenodd" fill-opacity="1" /><path clip-path="url(#clip340)" d="M84.0938 479.391 L88.978 479.391 L88.978 485.271 L84.0938 485.271 L84.0938 479.391 Z" fill="#000000" fill-rule="evenodd" fill-opacity="1" /><path clip-path="url(#clip340)" d="M97.9826 450.711 L120.205 450.711 L120.205 452.701 L107.658 485.271 L102.774 485.271 L114.58 454.646 L97.9826 454.646 L97.9826 450.711 Z" fill="#000000" fill-rule="evenodd" fill-opacity="1" /><path clip-path="url(#clip340)" d="M129.371 450.711 L147.728 450.711 L147.728 454.646 L133.654 454.646 L133.654 463.118 Q134.672 462.771 135.691 462.609 Q136.709 462.424 137.728 462.424 Q143.515 462.424 146.894 465.595 Q150.274 468.766 150.274 474.183 Q150.274 479.761 146.802 482.863 Q143.33 485.942 137.01 485.942 Q134.834 485.942 132.566 485.572 Q130.32 485.201 127.913 484.461 L127.913 479.761 Q129.996 480.896 132.219 481.451 Q134.441 482.007 136.918 482.007 Q140.922 482.007 143.26 479.9 Q145.598 477.794 145.598 474.183 Q145.598 470.572 143.26 468.465 Q140.922 466.359 136.918 466.359 Q135.043 466.359 133.168 466.775 Q131.316 467.192 129.371 468.072 L129.371 450.711 Z" fill="#000000" fill-rule="evenodd" fill-opacity="1" /><path clip-path="url(#clip340)" d="M53.7467 155.427 L61.3856 155.427 L61.3856 129.062 L53.0754 130.728 L53.0754 126.469 L61.3393 124.802 L66.0152 124.802 L66.0152 155.427 L73.654 155.427 L73.654 159.362 L53.7467 159.362 L53.7467 155.427 Z" fill="#000000" fill-rule="evenodd" fill-opacity="1" /><path clip-path="url(#clip340)" d="M83.0984 153.483 L87.9827 153.483 L87.9827 159.362 L83.0984 159.362 L83.0984 153.483 Z" fill="#000000" fill-rule="evenodd" fill-opacity="1" /><path clip-path="url(#clip340)" d="M108.168 127.881 Q104.557 127.881 102.728 131.446 Q100.922 134.987 100.922 142.117 Q100.922 149.224 102.728 152.788 Q104.557 156.33 108.168 156.33 Q111.802 156.33 113.608 152.788 Q115.436 149.224 115.436 142.117 Q115.436 134.987 113.608 131.446 Q111.802 127.881 108.168 127.881 M108.168 124.177 Q113.978 124.177 117.033 128.784 Q120.112 133.367 120.112 142.117 Q120.112 150.844 117.033 155.45 Q113.978 160.034 108.168 160.034 Q102.358 160.034 99.2789 155.45 Q96.2234 150.844 96.2234 142.117 Q96.2234 133.367 99.2789 128.784 Q102.358 124.177 108.168 124.177 Z" fill="#000000" fill-rule="evenodd" fill-opacity="1" /><path clip-path="url(#clip340)" d="M138.33 127.881 Q134.719 127.881 132.89 131.446 Q131.084 134.987 131.084 142.117 Q131.084 149.224 132.89 152.788 Q134.719 156.33 138.33 156.33 Q141.964 156.33 143.769 152.788 Q145.598 149.224 145.598 142.117 Q145.598 134.987 143.769 131.446 Q141.964 127.881 138.33 127.881 M138.33 124.177 Q144.14 124.177 147.195 128.784 Q150.274 133.367 150.274 142.117 Q150.274 150.844 147.195 155.45 Q144.14 160.034 138.33 160.034 Q132.519 160.034 129.441 155.45 Q126.385 150.844 126.385 142.117 Q126.385 133.367 129.441 128.784 Q132.519 124.177 138.33 124.177 Z" fill="#000000" fill-rule="evenodd" fill-opacity="1" /><polyline clip-path="url(#clip342)" style="stroke:#009af9; stroke-linecap:round; stroke-linejoin:round; stroke-width:4; stroke-opacity:1; fill:none" points="247.59,1445.72 656.36,1444.59 1065.13,1442.39 1473.9,1440.32 1882.67,1439.06 2291.44,1438.51 "/>
<polyline clip-path="url(#clip342)" style="stroke:#e26f46; stroke-linecap:round; stroke-linejoin:round; stroke-width:4; stroke-opacity:1; fill:none" points="247.59,1445.72 656.36,1024.15 1065.13,422.932 1473.9,147.885 1882.67,151.337 2291.44,87.9763 "/>
<path clip-path="url(#clip340)" d="M258.49 250.738 L527.569 250.738 L527.569 95.2176 L258.49 95.2176  Z" fill="#ffffff" fill-rule="evenodd" fill-opacity="1"/>
<polyline clip-path="url(#clip340)" style="stroke:#000000; stroke-linecap:round; stroke-linejoin:round; stroke-width:4; stroke-opacity:1; fill:none" points="258.49,250.738 527.569,250.738 527.569,95.2176 258.49,95.2176 258.49,250.738 "/>
<polyline clip-path="url(#clip340)" style="stroke:#009af9; stroke-linecap:round; stroke-linejoin:round; stroke-width:4; stroke-opacity:1; fill:none" points="282.562,147.058 426.994,147.058 "/>
<path clip-path="url(#clip340)" d="M464.909 166.745 Q463.103 171.375 461.39 172.787 Q459.677 174.199 456.807 174.199 L453.404 174.199 L453.404 170.634 L455.904 170.634 Q457.663 170.634 458.636 169.8 Q459.608 168.967 460.788 165.865 L461.552 163.921 L451.066 138.412 L455.58 138.412 L463.682 158.689 L471.784 138.412 L476.298 138.412 L464.909 166.745 Z" fill="#000000" fill-rule="evenodd" fill-opacity="1" /><path clip-path="url(#clip340)" d="M483.589 160.402 L491.228 160.402 L491.228 134.037 L482.918 135.703 L482.918 131.444 L491.182 129.778 L495.858 129.778 L495.858 160.402 L503.497 160.402 L503.497 164.338 L483.589 164.338 L483.589 160.402 Z" fill="#000000" fill-rule="evenodd" fill-opacity="1" /><polyline clip-path="url(#clip340)" style="stroke:#e26f46; stroke-linecap:round; stroke-linejoin:round; stroke-width:4; stroke-opacity:1; fill:none" points="282.562,198.898 426.994,198.898 "/>
<path clip-path="url(#clip340)" d="M464.909 218.585 Q463.103 223.215 461.39 224.627 Q459.677 226.039 456.807 226.039 L453.404 226.039 L453.404 222.474 L455.904 222.474 Q457.663 222.474 458.636 221.64 Q459.608 220.807 460.788 217.705 L461.552 215.761 L451.066 190.252 L455.58 190.252 L463.682 210.529 L471.784 190.252 L476.298 190.252 L464.909 218.585 Z" fill="#000000" fill-rule="evenodd" fill-opacity="1" /><path clip-path="url(#clip340)" d="M486.807 212.242 L503.126 212.242 L503.126 216.178 L481.182 216.178 L481.182 212.242 Q483.844 209.488 488.427 204.858 Q493.034 200.205 494.214 198.863 Q496.46 196.34 497.339 194.604 Q498.242 192.844 498.242 191.155 Q498.242 188.4 496.297 186.664 Q494.376 184.928 491.274 184.928 Q489.075 184.928 486.622 185.692 Q484.191 186.455 481.413 188.006 L481.413 183.284 Q484.237 182.15 486.691 181.571 Q489.145 180.993 491.182 180.993 Q496.552 180.993 499.747 183.678 Q502.941 186.363 502.941 190.854 Q502.941 192.983 502.131 194.905 Q501.344 196.803 499.237 199.395 Q498.659 200.067 495.557 203.284 Q492.455 206.479 486.807 212.242 Z" fill="#000000" fill-rule="evenodd" fill-opacity="1" /></svg>
