<?xml version="1.0" encoding="utf-8"?>
<svg xmlns="http://www.w3.org/2000/svg" xmlns:xlink="http://www.w3.org/1999/xlink" width="600" height="400" viewBox="0 0 2400 1600">
<defs>
  <clipPath id="clip680">
    <rect x="0" y="0" width="2400" height="1600"/>
  </clipPath>
</defs>
<path clip-path="url(#clip680)" d="M0 1600 L2400 1600 L2400 0 L0 0  Z" fill="#ffffff" fill-rule="evenodd" fill-opacity="1"/>
<defs>
  <clipPath id="clip681">
    <rect x="480" y="0" width="1681" height="1600"/>
  </clipPath>
</defs>
<path clip-path="url(#clip680)" d="M155.765 1423.18 L2352.76 1423.18 L2352.76 47.2441 L155.765 47.2441  Z" fill="#ffffff" fill-rule="evenodd" fill-opacity="1"/>
<defs>
  <clipPath id="clip682">
    <rect x="155" y="47" width="2198" height="1377"/>
  </clipPath>
</defs>
<polyline clip-path="url(#clip682)" style="stroke:#000000; stroke-linecap:round; stroke-linejoin:round; stroke-width:2; stroke-opacity:0.1; fill:none" points="217.944,1423.18 217.944,47.2441 "/>
<polyline clip-path="url(#clip682)" style="stroke:#000000; stroke-linecap:round; stroke-linejoin:round; stroke-width:2; stroke-opacity:0.1; fill:none" points="547.814,1423.18 547.814,47.2441 "/>
<polyline clip-path="url(#clip682)" style="stroke:#000000; stroke-linecap:round; stroke-linejoin:round; stroke-width:2; stroke-opacity:0.1; fill:none" points="877.683,1423.18 877.683,47.2441 "/>
<polyline clip-path="url(#clip682)" style="stroke:#000000; stroke-linecap:round; stroke-linejoin:round; stroke-width:2; stroke-opacity:0.1; fill:none" points="1207.55,1423.18 1207.55,47.2441 "/>
<polyline clip-path="url(#clip682)" style="stroke:#000000; stroke-linecap:round; stroke-linejoin:round; stroke-width:2; stroke-opacity:0.1; fill:none" points="1537.42,1423.18 1537.42,47.2441 "/>
<polyline clip-path="url(#clip682)" style="stroke:#000000; stroke-linecap:round; stroke-linejoin:round; stroke-width:2; stroke-opacity:0.1; fill:none" points="1867.29,1423.18 1867.29,47.2441 "/>
<polyline clip-path="url(#clip682)" style="stroke:#000000; stroke-linecap:round; stroke-linejoin:round; stroke-width:2; stroke-opacity:0.1; fill:none" points="2197.16,1423.18 2197.16,47.2441 "/>
<polyline clip-path="url(#clip680)" style="stroke:#000000; stroke-linecap:round; stroke-linejoin:round; stroke-width:4; stroke-opacity:1; fill:none" points="155.765,1423.18 2352.76,1423.18 "/>
<polyline clip-path="url(#clip680)" style="stroke:#000000; stroke-linecap:round; stroke-linejoin:round; stroke-width:4; stroke-opacity:1; fill:none" points="217.944,1423.18 217.944,1404.28 "/>
<polyline clip-path="url(#clip680)" style="stroke:#000000; stroke-linecap:round; stroke-linejoin:round; stroke-width:4; stroke-opacity:1; fill:none" points="547.814,1423.18 547.814,1404.28 "/>
<polyline clip-path="url(#clip680)" style="stroke:#000000; stroke-linecap:round; stroke-linejoin:round; stroke-width:4; stroke-opacity:1; fill:none" points="877.683,1423.18 877.683,1404.28 "/>
<polyline clip-path="url(#clip680)" style="stroke:#000000; stroke-linecap:round; stroke-linejoin:round; stroke-width:4; stroke-opacity:1; fill:none" points="1207.55,1423.18 1207.55,1404.28 "/>
<polyline clip-path="url(#clip680)" style="stroke:#000000; stroke-linecap:round; stroke-linejoin:round; stroke-width:4; stroke-opacity:1; fill:none" points="1537.42,1423.18 1537.42,1404.28 "/>
<polyline clip-path="url(#clip680)" style="stroke:#000000; stroke-linecap:round; stroke-linejoin:round; stroke-width:4; stroke-opacity:1; fill:none" points="1867.29,1423.18 1867.29,1404.28 "/>
<polyline clip-path="url(#clip680)" style="stroke:#000000; stroke-linecap:round; stroke-linejoin:round; stroke-width:4; stroke-opacity:1; fill:none" points="2197.16,1423.18 2197.16,1404.28 "/>
<path clip-path="url(#clip680)" d="M217.944 1454.1 Q214.333 1454.1 212.504 1457.66 Q210.699 1461.2 210.699 1468.33 Q210.699 1475.44 212.504 1479.01 Q214.333 1482.55 217.944 1482.55 Q221.578 1482.55 223.384 1479.01 Q225.212 1475.44 225.212 1468.33 Q225.212 1461.2 223.384 1457.66 Q221.578 1454.1 217.944 1454.1 M217.944 1450.39 Q223.754 1450.39 226.81 1455 Q229.888 1459.58 229.888 1468.33 Q229.888 1477.06 226.81 1481.67 Q223.754 1486.25 217.944 1486.25 Q212.134 1486.25 209.055 1481.67 Q206 1477.06 206 1468.33 Q206 1459.58 209.055 1455 Q212.134 1450.39 217.944 1450.39 Z" fill="#000000" fill-rule="evenodd" fill-opacity="1" /><path clip-path="url(#clip680)" d="M538.196 1481.64 L545.835 1481.64 L545.835 1455.28 L537.524 1456.95 L537.524 1452.69 L545.788 1451.02 L550.464 1451.02 L550.464 1481.64 L558.103 1481.64 L558.103 1485.58 L538.196 1485.58 L538.196 1481.64 Z" fill="#000000" fill-rule="evenodd" fill-opacity="1" /><path clip-path="url(#clip680)" d="M872.336 1481.64 L888.656 1481.64 L888.656 1485.58 L866.711 1485.58 L866.711 1481.64 Q869.373 1478.89 873.957 1474.26 Q878.563 1469.61 879.744 1468.27 Q881.989 1465.74 882.869 1464.01 Q883.771 1462.25 883.771 1460.56 Q883.771 1457.8 881.827 1456.07 Q879.906 1454.33 876.804 1454.33 Q874.605 1454.33 872.151 1455.09 Q869.721 1455.86 866.943 1457.41 L866.943 1452.69 Q869.767 1451.55 872.221 1450.97 Q874.674 1450.39 876.711 1450.39 Q882.082 1450.39 885.276 1453.08 Q888.47 1455.77 888.47 1460.26 Q888.47 1462.39 887.66 1464.31 Q886.873 1466.2 884.767 1468.8 Q884.188 1469.47 881.086 1472.69 Q877.984 1475.88 872.336 1481.64 Z" fill="#000000" fill-rule="evenodd" fill-opacity="1" /><path clip-path="url(#clip680)" d="M1211.8 1466.95 Q1215.16 1467.66 1217.03 1469.93 Q1218.93 1472.2 1218.93 1475.53 Q1218.93 1480.65 1215.41 1483.45 Q1211.89 1486.25 1205.41 1486.25 Q1203.24 1486.25 1200.92 1485.81 Q1198.63 1485.39 1196.18 1484.54 L1196.18 1480.02 Q1198.12 1481.16 1200.44 1481.74 Q1202.75 1482.32 1205.27 1482.32 Q1209.67 1482.32 1211.96 1480.58 Q1214.28 1478.84 1214.28 1475.53 Q1214.28 1472.48 1212.13 1470.77 Q1210 1469.03 1206.18 1469.03 L1202.15 1469.03 L1202.15 1465.19 L1206.36 1465.19 Q1209.81 1465.19 1211.64 1463.82 Q1213.47 1462.43 1213.47 1459.84 Q1213.47 1457.18 1211.57 1455.77 Q1209.69 1454.33 1206.18 1454.33 Q1204.25 1454.33 1202.06 1454.75 Q1199.86 1455.16 1197.22 1456.04 L1197.22 1451.88 Q1199.88 1451.14 1202.19 1450.77 Q1204.53 1450.39 1206.59 1450.39 Q1211.92 1450.39 1215.02 1452.83 Q1218.12 1455.23 1218.12 1459.35 Q1218.12 1462.22 1216.48 1464.21 Q1214.83 1466.18 1211.8 1466.95 Z" fill="#000000" fill-rule="evenodd" fill-opacity="1" /><path clip-path="url(#clip680)" d="M1540.43 1455.09 L1528.63 1473.54 L1540.43 1473.54 L1540.43 1455.09 M1539.21 1451.02 L1545.09 1451.02 L1545.09 1473.54 L1550.02 1473.54 L1550.02 1477.43 L1545.09 1477.43 L1545.09 1485.58 L1540.43 1485.58 L1540.43 1477.43 L1524.83 1477.43 L1524.83 1472.92 L1539.21 1451.02 Z" fill="#000000" fill-rule="evenodd" fill-opacity="1" /><path clip-path="url(#clip680)" d="M1857.57 1451.02 L1875.93 1451.02 L1875.93 1454.96 L1861.85 1454.96 L1861.85 1463.43 Q1862.87 1463.08 1863.89 1462.92 Q1864.91 1462.73 1865.93 1462.73 Q1871.71 1462.73 1875.09 1465.9 Q1878.47 1469.08 1878.47 1474.49 Q1878.47 1480.07 1875 1483.17 Q1871.53 1486.25 1865.21 1486.25 Q1863.03 1486.25 1860.77 1485.88 Q1858.52 1485.51 1856.11 1484.77 L1856.11 1480.07 Q1858.2 1481.2 1860.42 1481.76 Q1862.64 1482.32 1865.12 1482.32 Q1869.12 1482.32 1871.46 1480.21 Q1873.8 1478.1 1873.8 1474.49 Q1873.8 1470.88 1871.46 1468.77 Q1869.12 1466.67 1865.12 1466.67 Q1863.24 1466.67 1861.37 1467.08 Q1859.52 1467.5 1857.57 1468.38 L1857.57 1451.02 Z" fill="#000000" fill-rule="evenodd" fill-opacity="1" /><path clip-path="url(#clip680)" d="M2197.57 1466.44 Q2194.42 1466.44 2192.57 1468.59 Q2190.74 1470.74 2190.74 1474.49 Q2190.74 1478.22 2192.57 1480.39 Q2194.42 1482.55 2197.57 1482.55 Q2200.72 1482.55 2202.54 1480.39 Q2204.4 1478.22 2204.4 1474.49 Q2204.4 1470.74 2202.54 1468.59 Q2200.72 1466.44 2197.57 1466.44 M2206.85 1451.78 L2206.85 1456.04 Q2205.09 1455.21 2203.29 1454.77 Q2201.5 1454.33 2199.74 1454.33 Q2195.11 1454.33 2192.66 1457.45 Q2190.23 1460.58 2189.88 1466.9 Q2191.25 1464.89 2193.31 1463.82 Q2195.37 1462.73 2197.85 1462.73 Q2203.05 1462.73 2206.06 1465.9 Q2209.1 1469.05 2209.1 1474.49 Q2209.1 1479.82 2205.95 1483.03 Q2202.8 1486.25 2197.57 1486.25 Q2191.57 1486.25 2188.4 1481.67 Q2185.23 1477.06 2185.23 1468.33 Q2185.23 1460.14 2189.12 1455.28 Q2193.01 1450.39 2199.56 1450.39 Q2201.32 1450.39 2203.1 1450.74 Q2204.91 1451.09 2206.85 1451.78 Z" fill="#000000" fill-rule="evenodd" fill-opacity="1" /><path clip-path="url(#clip680)" d="M1238.44 1518.52 L1244.33 1518.52 L1244.33 1547.77 L1261.8 1532.4 L1269.28 1532.4 L1250.38 1549.07 L1270.08 1568.04 L1262.44 1568.04 L1244.33 1550.63 L1244.33 1568.04 L1238.44 1568.04 L1238.44 1518.52 Z" fill="#000000" fill-rule="evenodd" fill-opacity="1" /><polyline clip-path="url(#clip682)" style="stroke:#000000; stroke-linecap:round; stroke-linejoin:round; stroke-width:2; stroke-opacity:0.1; fill:none" points="155.765,1247.52 2352.76,1247.52 "/>
<polyline clip-path="url(#clip682)" style="stroke:#000000; stroke-linecap:round; stroke-linejoin:round; stroke-width:2; stroke-opacity:0.1; fill:none" points="155.765,973.984 2352.76,973.984 "/>
<polyline clip-path="url(#clip682)" style="stroke:#000000; stroke-linecap:round; stroke-linejoin:round; stroke-width:2; stroke-opacity:0.1; fill:none" points="155.765,700.444 2352.76,700.444 "/>
<polyline clip-path="url(#clip682)" style="stroke:#000000; stroke-linecap:round; stroke-linejoin:round; stroke-width:2; stroke-opacity:0.1; fill:none" points="155.765,426.904 2352.76,426.904 "/>
<polyline clip-path="url(#clip682)" style="stroke:#000000; stroke-linecap:round; stroke-linejoin:round; stroke-width:2; stroke-opacity:0.1; fill:none" points="155.765,153.364 2352.76,153.364 "/>
<polyline clip-path="url(#clip680)" style="stroke:#000000; stroke-linecap:round; stroke-linejoin:round; stroke-width:4; stroke-opacity:1; fill:none" points="155.765,1423.18 155.765,47.2441 "/>
<polyline clip-path="url(#clip680)" style="stroke:#000000; stroke-linecap:round; stroke-linejoin:round; stroke-width:4; stroke-opacity:1; fill:none" points="155.765,1247.52 174.663,1247.52 "/>
<polyline clip-path="url(#clip680)" style="stroke:#000000; stroke-linecap:round; stroke-linejoin:round; stroke-width:4; stroke-opacity:1; fill:none" points="155.765,973.984 174.663,973.984 "/>
<polyline clip-path="url(#clip680)" style="stroke:#000000; stroke-linecap:round; stroke-linejoin:round; stroke-width:4; stroke-opacity:1; fill:none" points="155.765,700.444 174.663,700.444 "/>
<polyline clip-path="url(#clip680)" style="stroke:#000000; stroke-linecap:round; stroke-linejoin:round; stroke-width:4; stroke-opacity:1; fill:none" points="155.765,426.904 174.663,426.904 "/>
<polyline clip-path="url(#clip680)" style="stroke:#000000; stroke-linecap:round; stroke-linejoin:round; stroke-width:4; stroke-opacity:1; fill:none" points="155.765,153.364 174.663,153.364 "/>
<path clip-path="url(#clip680)" d="M63.5847 1233.32 Q59.9736 1233.32 58.1449 1236.89 Q56.3393 1240.43 56.3393 1247.56 Q56.3393 1254.67 58.1449 1258.23 Q59.9736 1261.77 63.5847 1261.77 Q67.2189 1261.77 69.0244 1258.23 Q70.8531 1254.67 70.8531 1247.56 Q70.8531 1240.43 69.0244 1236.89 Q67.2189 1233.32 63.5847 1233.32 M63.5847 1229.62 Q69.3948 1229.62 72.4503 1234.23 Q75.529 1238.81 75.529 1247.56 Q75.529 1256.29 72.4503 1260.89 Q69.3948 1265.48 63.5847 1265.48 Q57.7745 1265.48 54.6958 1260.89 Q51.6403 1256.29 51.6403 1247.56 Q51.6403 1238.81 54.6958 1234.23 Q57.7745 1229.62 63.5847 1229.62 Z" fill="#000000" fill-rule="evenodd" fill-opacity="1" /><path clip-path="url(#clip680)" d="M83.7466 1258.92 L88.6308 1258.92 L88.6308 1264.8 L83.7466 1264.8 L83.7466 1258.92 Z" fill="#000000" fill-rule="evenodd" fill-opacity="1" /><path clip-path="url(#clip680)" d="M98.8622 1230.24 L117.219 1230.24 L117.219 1234.18 L103.145 1234.18 L103.145 1242.65 Q104.163 1242.3 105.182 1242.14 Q106.2 1241.96 107.219 1241.96 Q113.006 1241.96 116.385 1245.13 Q119.765 1248.3 119.765 1253.72 Q119.765 1259.29 116.293 1262.4 Q112.82 1265.48 106.501 1265.48 Q104.325 1265.48 102.057 1265.1 Q99.8113 1264.73 97.4039 1263.99 L97.4039 1259.29 Q99.4872 1260.43 101.709 1260.98 Q103.932 1261.54 106.408 1261.54 Q110.413 1261.54 112.751 1259.43 Q115.089 1257.33 115.089 1253.72 Q115.089 1250.11 112.751 1248 Q110.413 1245.89 106.408 1245.89 Q104.534 1245.89 102.659 1246.31 Q100.807 1246.73 98.8622 1247.61 L98.8622 1230.24 Z" fill="#000000" fill-rule="evenodd" fill-opacity="1" /><path clip-path="url(#clip680)" d="M53.3995 987.329 L61.0384 987.329 L61.0384 960.963 L52.7282 962.63 L52.7282 958.371 L60.9921 956.704 L65.668 956.704 L65.668 987.329 L73.3068 987.329 L73.3068 991.264 L53.3995 991.264 L53.3995 987.329 Z" fill="#000000" fill-rule="evenodd" fill-opacity="1" /><path clip-path="url(#clip680)" d="M82.7512 985.384 L87.6354 985.384 L87.6354 991.264 L82.7512 991.264 L82.7512 985.384 Z" fill="#000000" fill-rule="evenodd" fill-opacity="1" /><path clip-path="url(#clip680)" d="M107.821 959.783 Q104.209 959.783 102.381 963.348 Q100.575 966.889 100.575 974.019 Q100.575 981.125 102.381 984.69 Q104.209 988.232 107.821 988.232 Q111.455 988.232 113.26 984.69 Q115.089 981.125 115.089 974.019 Q115.089 966.889 113.26 963.348 Q111.455 959.783 107.821 959.783 M107.821 956.079 Q113.631 956.079 116.686 960.685 Q119.765 965.269 119.765 974.019 Q119.765 982.746 116.686 987.352 Q113.631 991.935 107.821 991.935 Q102.01 991.935 98.9317 987.352 Q95.8761 982.746 95.8761 974.019 Q95.8761 965.269 98.9317 960.685 Q102.01 956.079 107.821 956.079 Z" fill="#000000" fill-rule="evenodd" fill-opacity="1" /><path clip-path="url(#clip680)" d="M54.3949 713.789 L62.0337 713.789 L62.0337 687.423 L53.7236 689.09 L53.7236 684.831 L61.9874 683.164 L66.6633 683.164 L66.6633 713.789 L74.3022 713.789 L74.3022 717.724 L54.3949 717.724 L54.3949 713.789 Z" fill="#000000" fill-rule="evenodd" fill-opacity="1" /><path clip-path="url(#clip680)" d="M83.7466 711.844 L88.6308 711.844 L88.6308 717.724 L83.7466 717.724 L83.7466 711.844 Z" fill="#000000" fill-rule="evenodd" fill-opacity="1" /><path clip-path="url(#clip680)" d="M98.8622 683.164 L117.219 683.164 L117.219 687.099 L103.145 687.099 L103.145 695.571 Q104.163 695.224 105.182 695.062 Q106.2 694.877 107.219 694.877 Q113.006 694.877 116.385 698.048 Q119.765 701.219 119.765 706.636 Q119.765 712.215 116.293 715.317 Q112.82 718.395 106.501 718.395 Q104.325 718.395 102.057 718.025 Q99.8113 717.655 97.4039 716.914 L97.4039 712.215 Q99.4872 713.349 101.709 713.905 Q103.932 714.46 106.408 714.46 Q110.413 714.46 112.751 712.354 Q115.089 710.247 115.089 706.636 Q115.089 703.025 112.751 700.919 Q110.413 698.812 106.408 698.812 Q104.534 698.812 102.659 699.229 Q100.807 699.645 98.8622 700.525 L98.8622 683.164 Z" fill="#000000" fill-rule="evenodd" fill-opacity="1" /><path clip-path="url(#clip680)" d="M56.6171 440.249 L72.9365 440.249 L72.9365 444.184 L50.9921 444.184 L50.9921 440.249 Q53.6541 437.494 58.2375 432.865 Q62.8439 428.212 64.0245 426.869 Q66.2698 424.346 67.1494 422.61 Q68.0522 420.851 68.0522 419.161 Q68.0522 416.406 66.1078 414.67 Q64.1865 412.934 61.0847 412.934 Q58.8856 412.934 56.4319 413.698 Q54.0014 414.462 51.2236 416.013 L51.2236 411.291 Q54.0477 410.156 56.5014 409.578 Q58.955 408.999 60.9921 408.999 Q66.3624 408.999 69.5568 411.684 Q72.7513 414.369 72.7513 418.86 Q72.7513 420.99 71.9411 422.911 Q71.1541 424.809 69.0476 427.402 Q68.4689 428.073 65.367 431.291 Q62.2652 434.485 56.6171 440.249 Z" fill="#000000" fill-rule="evenodd" fill-opacity="1" /><path clip-path="url(#clip680)" d="M82.7512 438.304 L87.6354 438.304 L87.6354 444.184 L82.7512 444.184 L82.7512 438.304 Z" fill="#000000" fill-rule="evenodd" fill-opacity="1" /><path clip-path="url(#clip680)" d="M107.821 412.703 Q104.209 412.703 102.381 416.267 Q100.575 419.809 100.575 426.939 Q100.575 434.045 102.381 437.61 Q104.209 441.152 107.821 441.152 Q111.455 441.152 113.26 437.61 Q115.089 434.045 115.089 426.939 Q115.089 419.809 113.26 416.267 Q111.455 412.703 107.821 412.703 M107.821 408.999 Q113.631 408.999 116.686 413.605 Q119.765 418.189 119.765 426.939 Q119.765 435.666 116.686 440.272 Q113.631 444.855 107.821 444.855 Q102.01 444.855 98.9317 440.272 Q95.8761 435.666 95.8761 426.939 Q95.8761 418.189 98.9317 413.605 Q102.01 408.999 107.821 408.999 Z" fill="#000000" fill-rule="evenodd" fill-opacity="1" /><path clip-path="url(#clip680)" d="M57.6125 166.709 L73.9318 166.709 L73.9318 170.644 L51.9875 170.644 L51.9875 166.709 Q54.6495 163.954 59.2328 159.325 Q63.8393 154.672 65.0198 153.329 Q67.2652 150.806 68.1448 149.07 Q69.0476 147.311 69.0476 145.621 Q69.0476 142.866 67.1032 141.13 Q65.1819 139.394 62.08 139.394 Q59.881 139.394 57.4273 140.158 Q54.9967 140.922 52.219 142.473 L52.219 137.751 Q55.043 136.616 57.4967 136.038 Q59.9504 135.459 61.9874 135.459 Q67.3578 135.459 70.5522 138.144 Q73.7466 140.829 73.7466 145.32 Q73.7466 147.45 72.9365 149.371 Q72.1494 151.269 70.0429 153.862 Q69.4642 154.533 66.3624 157.751 Q63.2606 160.945 57.6125 166.709 Z" fill="#000000" fill-rule="evenodd" fill-opacity="1" /><path clip-path="url(#clip680)" d="M83.7466 164.764 L88.6308 164.764 L88.6308 170.644 L83.7466 170.644 L83.7466 164.764 Z" fill="#000000" fill-rule="evenodd" fill-opacity="1" /><path clip-path="url(#clip680)" d="M98.8622 136.084 L117.219 136.084 L117.219 140.019 L103.145 140.019 L103.145 148.491 Q104.163 148.144 105.182 147.982 Q106.2 147.797 107.219 147.797 Q113.006 147.797 116.385 150.968 Q119.765 154.139 119.765 159.556 Q119.765 165.135 116.293 168.237 Q112.82 171.315 106.501 171.315 Q104.325 171.315 102.057 170.945 Q99.8113 170.575 97.4039 169.834 L97.4039 165.135 Q99.4872 166.269 101.709 166.825 Q103.932 167.38 106.408 167.38 Q110.413 167.38 112.751 165.274 Q115.089 163.167 115.089 159.556 Q115.089 155.945 112.751 153.839 Q110.413 151.732 106.408 151.732 Q104.534 151.732 102.659 152.149 Q100.807 152.565 98.8622 153.445 L98.8622 136.084 Z" fill="#000000" fill-rule="evenodd" fill-opacity="1" /><polyline clip-path="url(#clip682)" style="stroke:#009af9; stroke-linecap:round; stroke-linejoin:round; stroke-width:4; stroke-opacity:1; fill:none" points="217.944,86.1857 221.317,86.1922 224.691,86.2116 228.064,86.244 231.438,86.2893 247.034,86.6673 262.631,87.3215 278.227,88.251 293.823,89.4545 309.42,90.9301 325.016,92.6758 340.613,94.6889 356.209,96.9666 374.955,100.049 393.7,103.503 412.446,107.319 431.191,111.49 447.041,115.286 462.89,119.324 478.739,123.595 494.588,128.095 511.805,133.231 529.021,138.617 546.238,144.242 563.455,150.095 595.199,161.442 626.943,173.44 660.977,186.927 695.01,200.943 734.441,217.676 773.872,234.734 808.914,249.979 843.955,265.128 874.684,278.19 905.412,290.915 922.163,297.665 938.914,304.255 955.665,310.665 972.416,316.873 989.267,322.895 1006.12,328.672 1022.97,334.183 1039.82,339.408 1058.45,344.829 1077.08,349.851 1095.71,354.45 1114.34,358.604 1132.07,362.124 1149.79,365.205 1167.52,367.832 1185.25,369.991 1203.68,371.728 1222.11,372.937 1240.54,373.609 1258.97,373.742 1274.49,373.433 1290,372.743 1305.52,371.674 1321.03,370.23 1339.98,367.97 1358.92,365.174 1377.86,361.861 1396.8,358.047 1414.16,354.133 1431.51,349.833 1448.86,345.168 1466.21,340.154 1482.24,335.234 1498.27,330.051 1514.29,324.623 1530.32,318.968 1562.79,306.887 1595.26,294.098 1631.64,279.111 1668.03,263.639 1701,249.372 1733.98,235.025 1771.73,218.686 1809.48,202.632 1844.44,188.186 1879.39,174.288 1896.62,167.677 1913.85,161.246 1931.09,155.007 1948.32,148.973 1965.05,143.324 1981.78,137.891 1998.51,132.685 2015.24,127.716 2032.39,122.878 2049.54,118.307 2066.69,114.013 2083.84,110.002 2102.63,105.944 2121.42,102.246 2140.21,98.9146 2159,95.9583 2172.64,94.0496 2186.29,92.3442 2199.94,90.8439 2213.59,89.5505 2240.88,87.59 2268.18,86.4713 2273.78,86.3463 2279.38,86.2571 2284.98,86.2035 2290.58,86.1857 "/>
<polyline clip-path="url(#clip682)" style="stroke:#e26f46; stroke-linecap:round; stroke-linejoin:round; stroke-width:4; stroke-opacity:1; fill:none" points="217.944,290.134 221.317,290.163 224.691,290.248 228.064,290.391 231.438,290.592 247.034,292.26 262.631,295.146 278.227,299.244 293.823,304.544 309.42,311.035 325.016,318.702 340.613,327.527 356.209,337.492 374.955,350.945 393.7,365.967 412.446,382.511 431.191,400.523 447.041,416.854 462.89,434.156 478.739,452.387 494.588,471.507 511.805,493.232 529.021,515.893 546.238,539.43 563.455,563.777 595.199,610.572 626.943,659.463 695.01,769.24 773.872,899.718 808.914,956.992 843.955,1012.92 874.684,1060.35 905.412,1105.84 922.163,1129.69 938.914,1152.78 955.665,1175.06 972.416,1196.46 989.267,1217.06 1006.12,1236.67 1022.97,1255.23 1039.82,1272.71 1058.45,1290.71 1077.08,1307.26 1095.71,1322.31 1114.34,1335.81 1132.07,1347.19 1149.79,1357.09 1167.52,1365.49 1185.25,1372.36 1203.68,1377.87 1222.11,1381.7 1240.54,1383.82 1258.97,1384.24 1274.49,1383.27 1290,1381.09 1305.52,1377.7 1321.03,1373.12 1339.98,1365.93 1358.92,1356.99 1377.86,1346.34 1396.8,1334.01 1414.16,1321.27 1431.51,1307.2 1448.86,1291.83 1466.21,1275.2 1482.24,1258.76 1498.27,1241.33 1514.29,1222.94 1530.32,1203.64 1546.55,1183.21 1562.79,1161.95 1579.02,1139.9 1595.26,1117.11 1631.64,1063.66 1668.03,1007.46 1701,954.729 1733.98,900.823 1809.48,775.874 1879.39,662.893 1913.85,609.768 1948.32,559.122 1965.05,535.596 1981.78,512.845 1998.51,490.929 2015.24,469.903 2032.39,449.33 2049.54,429.805 2066.69,411.381 2083.84,394.108 2102.63,376.56 2121.42,360.506 2140.21,345.998 2159,333.083 2172.64,324.726 2186.29,317.246 2199.94,310.656 2213.59,304.967 2240.88,296.33 2268.18,291.395 2273.78,290.843 2279.38,290.449 2284.98,290.213 2290.58,290.134 "/>
<path clip-path="url(#clip680)" d="M1829.5 1377.32 L2279.52 1377.32 L2279.52 1221.8 L1829.5 1221.8  Z" fill="#ffffff" fill-rule="evenodd" fill-opacity="1"/>
<polyline clip-path="url(#clip680)" style="stroke:#000000; stroke-linecap:round; stroke-linejoin:round; stroke-width:4; stroke-opacity:1; fill:none" points="1829.5,1377.32 2279.52,1377.32 2279.52,1221.8 1829.5,1221.8 1829.5,1377.32 "/>
<polyline clip-path="url(#clip680)" style="stroke:#009af9; stroke-linecap:round; stroke-linejoin:round; stroke-width:4; stroke-opacity:1; fill:none" points="1853.91,1273.64 2000.38,1273.64 "/>
<path clip-path="url(#clip680)" d="M2024.79 1254.9 L2029.05 1254.9 L2029.05 1290.92 L2024.79 1290.92 L2024.79 1254.9 Z" fill="#000000" fill-rule="evenodd" fill-opacity="1" /><path clip-path="url(#clip680)" d="M2049.74 1277.88 Q2044.58 1277.88 2042.59 1279.06 Q2040.6 1280.24 2040.6 1283.09 Q2040.6 1285.36 2042.08 1286.7 Q2043.59 1288.02 2046.15 1288.02 Q2049.7 1288.02 2051.83 1285.52 Q2053.98 1283 2053.98 1278.83 L2053.98 1277.88 L2049.74 1277.88 M2058.24 1276.12 L2058.24 1290.92 L2053.98 1290.92 L2053.98 1286.98 Q2052.52 1289.34 2050.34 1290.48 Q2048.17 1291.59 2045.02 1291.59 Q2041.04 1291.59 2038.68 1289.36 Q2036.34 1287.12 2036.34 1283.37 Q2036.34 1278.99 2039.26 1276.77 Q2042.2 1274.55 2048.01 1274.55 L2053.98 1274.55 L2053.98 1274.13 Q2053.98 1271.19 2052.03 1269.6 Q2050.11 1267.98 2046.62 1267.98 Q2044.4 1267.98 2042.29 1268.51 Q2040.18 1269.04 2038.24 1270.11 L2038.24 1266.17 Q2040.58 1265.27 2042.78 1264.83 Q2044.97 1264.36 2047.06 1264.36 Q2052.68 1264.36 2055.46 1267.28 Q2058.24 1270.2 2058.24 1276.12 Z" fill="#000000" fill-rule="evenodd" fill-opacity="1" /><path clip-path="url(#clip680)" d="M2087.2 1269.97 Q2088.79 1267.1 2091.02 1265.73 Q2093.24 1264.36 2096.25 1264.36 Q2100.3 1264.36 2102.5 1267.21 Q2104.7 1270.04 2104.7 1275.27 L2104.7 1290.92 L2100.41 1290.92 L2100.41 1275.41 Q2100.41 1271.68 2099.09 1269.87 Q2097.77 1268.07 2095.07 1268.07 Q2091.76 1268.07 2089.83 1270.27 Q2087.91 1272.47 2087.91 1276.26 L2087.91 1290.92 L2083.63 1290.92 L2083.63 1275.41 Q2083.63 1271.66 2082.31 1269.87 Q2080.99 1268.07 2078.24 1268.07 Q2074.97 1268.07 2073.05 1270.29 Q2071.13 1272.49 2071.13 1276.26 L2071.13 1290.92 L2066.85 1290.92 L2066.85 1264.99 L2071.13 1264.99 L2071.13 1269.02 Q2072.59 1266.63 2074.63 1265.5 Q2076.66 1264.36 2079.46 1264.36 Q2082.29 1264.36 2084.26 1265.8 Q2086.25 1267.23 2087.2 1269.97 Z" fill="#000000" fill-rule="evenodd" fill-opacity="1" /><path clip-path="url(#clip680)" d="M2131.8 1277.98 Q2131.8 1273.28 2129.86 1270.61 Q2127.94 1267.93 2124.56 1267.93 Q2121.18 1267.93 2119.23 1270.61 Q2117.31 1273.28 2117.31 1277.98 Q2117.31 1282.67 2119.23 1285.36 Q2121.18 1288.02 2124.56 1288.02 Q2127.94 1288.02 2129.86 1285.36 Q2131.8 1282.67 2131.8 1277.98 M2117.31 1268.92 Q2118.65 1266.61 2120.69 1265.5 Q2122.75 1264.36 2125.6 1264.36 Q2130.32 1264.36 2133.26 1268.11 Q2136.22 1271.86 2136.22 1277.98 Q2136.22 1284.09 2133.26 1287.84 Q2130.32 1291.59 2125.6 1291.59 Q2122.75 1291.59 2120.69 1290.48 Q2118.65 1289.34 2117.31 1287.03 L2117.31 1290.92 L2113.03 1290.92 L2113.03 1254.9 L2117.31 1254.9 L2117.31 1268.92 Z" fill="#000000" fill-rule="evenodd" fill-opacity="1" /><path clip-path="url(#clip680)" d="M2174.88 1265.75 L2174.88 1269.78 Q2173.08 1268.86 2171.13 1268.39 Q2169.19 1267.93 2167.1 1267.93 Q2163.93 1267.93 2162.33 1268.9 Q2160.76 1269.87 2160.76 1271.82 Q2160.76 1273.3 2161.89 1274.16 Q2163.03 1274.99 2166.45 1275.75 L2167.91 1276.08 Q2172.45 1277.05 2174.35 1278.83 Q2176.27 1280.59 2176.27 1283.76 Q2176.27 1287.37 2173.4 1289.48 Q2170.55 1291.59 2165.55 1291.59 Q2163.47 1291.59 2161.2 1291.17 Q2158.95 1290.78 2156.45 1289.97 L2156.45 1285.57 Q2158.82 1286.79 2161.11 1287.42 Q2163.4 1288.02 2165.64 1288.02 Q2168.65 1288.02 2170.27 1287 Q2171.89 1285.96 2171.89 1284.09 Q2171.89 1282.35 2170.71 1281.42 Q2169.56 1280.5 2165.6 1279.64 L2164.12 1279.3 Q2160.16 1278.46 2158.4 1276.75 Q2156.64 1275.01 2156.64 1272 Q2156.64 1268.35 2159.23 1266.36 Q2161.83 1264.36 2166.59 1264.36 Q2168.95 1264.36 2171.04 1264.71 Q2173.12 1265.06 2174.88 1265.75 Z" fill="#000000" fill-rule="evenodd" fill-opacity="1" /><path clip-path="url(#clip680)" d="M2204.6 1275.27 L2204.6 1290.92 L2200.34 1290.92 L2200.34 1275.41 Q2200.34 1271.73 2198.91 1269.9 Q2197.47 1268.07 2194.6 1268.07 Q2191.15 1268.07 2189.16 1270.27 Q2187.17 1272.47 2187.17 1276.26 L2187.17 1290.92 L2182.89 1290.92 L2182.89 1254.9 L2187.17 1254.9 L2187.17 1269.02 Q2188.7 1266.68 2190.76 1265.52 Q2192.84 1264.36 2195.55 1264.36 Q2200.02 1264.36 2202.31 1267.14 Q2204.6 1269.9 2204.6 1275.27 Z" fill="#000000" fill-rule="evenodd" fill-opacity="1" /><path clip-path="url(#clip680)" d="M2213.1 1264.99 L2217.36 1264.99 L2217.36 1290.92 L2213.1 1290.92 L2213.1 1264.99 M2213.1 1254.9 L2217.36 1254.9 L2217.36 1260.29 L2213.1 1260.29 L2213.1 1254.9 Z" fill="#000000" fill-rule="evenodd" fill-opacity="1" /><path clip-path="url(#clip680)" d="M2239.39 1254.9 L2239.39 1258.44 L2235.32 1258.44 Q2233.03 1258.44 2232.13 1259.36 Q2231.25 1260.29 2231.25 1262.7 L2231.25 1264.99 L2238.26 1264.99 L2238.26 1268.3 L2231.25 1268.3 L2231.25 1290.92 L2226.96 1290.92 L2226.96 1268.3 L2222.89 1268.3 L2222.89 1264.99 L2226.96 1264.99 L2226.96 1263.18 Q2226.96 1258.86 2228.98 1256.89 Q2230.99 1254.9 2235.37 1254.9 L2239.39 1254.9 Z" fill="#000000" fill-rule="evenodd" fill-opacity="1" /><path clip-path="url(#clip680)" d="M2246.34 1257.63 L2246.34 1264.99 L2255.11 1264.99 L2255.11 1268.3 L2246.34 1268.3 L2246.34 1282.37 Q2246.34 1285.54 2247.2 1286.45 Q2248.07 1287.35 2250.74 1287.35 L2255.11 1287.35 L2255.11 1290.92 L2250.74 1290.92 Q2245.81 1290.92 2243.93 1289.09 Q2242.06 1287.23 2242.06 1282.37 L2242.06 1268.3 L2238.93 1268.3 L2238.93 1264.99 L2242.06 1264.99 L2242.06 1257.63 L2246.34 1257.63 Z" fill="#000000" fill-rule="evenodd" fill-opacity="1" /><polyline clip-path="url(#clip680)" style="stroke:#e26f46; stroke-linecap:round; stroke-linejoin:round; stroke-width:4; stroke-opacity:1; fill:none" points="1853.91,1325.48 2000.38,1325.48 "/>
<path clip-path="url(#clip680)" d="M2024.79 1316.83 L2029.3 1316.83 L2037.4 1338.59 L2045.51 1316.83 L2050.02 1316.83 L2040.3 1342.76 L2034.51 1342.76 L2024.79 1316.83 Z" fill="#000000" fill-rule="evenodd" fill-opacity="1" /><path clip-path="url(#clip680)" d="M2066.13 1306.78 Q2063.03 1312.11 2061.52 1317.32 Q2060.02 1322.52 2060.02 1327.87 Q2060.02 1333.22 2061.52 1338.47 Q2063.05 1343.7 2066.13 1349.01 L2062.43 1349.01 Q2058.96 1343.57 2057.22 1338.31 Q2055.51 1333.06 2055.51 1327.87 Q2055.51 1322.71 2057.22 1317.48 Q2058.93 1312.25 2062.43 1306.78 L2066.13 1306.78 Z" fill="#000000" fill-rule="evenodd" fill-opacity="1" /><path clip-path="url(#clip680)" d="M2074.23 1306.74 L2078.52 1306.74 L2078.52 1328.01 L2091.22 1316.83 L2096.66 1316.83 L2082.91 1328.96 L2097.24 1342.76 L2091.69 1342.76 L2078.52 1330.09 L2078.52 1342.76 L2074.23 1342.76 L2074.23 1306.74 Z" fill="#000000" fill-rule="evenodd" fill-opacity="1" /><path clip-path="url(#clip680)" d="M2101.18 1306.78 L2104.88 1306.78 Q2108.35 1312.25 2110.07 1317.48 Q2111.8 1322.71 2111.8 1327.87 Q2111.8 1333.06 2110.07 1338.31 Q2108.35 1343.57 2104.88 1349.01 L2101.18 1349.01 Q2104.26 1343.7 2105.76 1338.47 Q2107.29 1333.22 2107.29 1327.87 Q2107.29 1322.52 2105.76 1317.32 Q2104.26 1312.11 2101.18 1306.78 Z" fill="#000000" fill-rule="evenodd" fill-opacity="1" /></svg>
