<?xml version="1.0" encoding="utf-8"?>
<svg xmlns="http://www.w3.org/2000/svg" xmlns:xlink="http://www.w3.org/1999/xlink" width="600" height="400" viewBox="0 0 2400 1600">
<defs>
  <clipPath id="clip420">
    <rect x="0" y="0" width="2400" height="1600"/>
  </clipPath>
</defs>
<path clip-path="url(#clip420)" d="M0 1600 L2400 1600 L2400 0 L0 0  Z" fill="#ffffff" fill-rule="evenodd" fill-opacity="1"/>
<defs>
  <clipPath id="clip421">
    <rect x="480" y="0" width="1681" height="1600"/>
  </clipPath>
</defs>
<path clip-path="url(#clip420)" d="M186.274 1486.45 L2352.76 1486.45 L2352.76 47.2441 L186.274 47.2441  Z" fill="#ffffff" fill-rule="evenodd" fill-opacity="1"/>
<defs>
  <clipPath id="clip422">
    <rect x="186" y="47" width="2167" height="1440"/>
  </clipPath>
</defs>
<polyline clip-path="url(#clip422)" style="stroke:#000000; stroke-linecap:round; stroke-linejoin:round; stroke-width:2; stroke-opacity:0.1; fill:none" points="247.59,1486.45 247.59,47.2441 "/>
<polyline clip-path="url(#clip422)" style="stroke:#000000; stroke-linecap:round; stroke-linejoin:round; stroke-width:2; stroke-opacity:0.1; fill:none" points="656.36,1486.45 656.36,47.2441 "/>
<polyline clip-path="url(#clip422)" style="stroke:#000000; stroke-linecap:round; stroke-linejoin:round; stroke-width:2; stroke-opacity:0.1; fill:none" points="1065.13,1486.45 1065.13,47.2441 "/>
<polyline clip-path="url(#clip422)" style="stroke:#000000; stroke-linecap:round; stroke-linejoin:round; stroke-width:2; stroke-opacity:0.1; fill:none" points="1473.9,1486.45 1473.9,47.2441 "/>
<polyline clip-path="url(#clip422)" style="stroke:#000000; stroke-linecap:round; stroke-linejoin:round; stroke-width:2; stroke-opacity:0.1; fill:none" points="1882.67,1486.45 1882.67,47.2441 "/>
<polyline clip-path="url(#clip422)" style="stroke:#000000; stroke-linecap:round; stroke-linejoin:round; stroke-width:2; stroke-opacity:0.1; fill:none" points="2291.44,1486.45 2291.44,47.2441 "/>
<polyline clip-path="url(#clip420)" style="stroke:#000000; stroke-linecap:round; stroke-linejoin:round; stroke-width:4; stroke-opacity:1; fill:none" points="186.274,1486.45 2352.76,1486.45 "/>
<polyline clip-path="url(#clip420)" style="stroke:#000000; stroke-linecap:round; stroke-linejoin:round; stroke-width:4; stroke-opacity:1; fill:none" points="247.59,1486.45 247.59,1467.55 "/>
<polyline clip-path="url(#clip420)" style="stroke:#000000; stroke-linecap:round; stroke-linejoin:round; stroke-width:4; stroke-opacity:1; fill:none" points="656.36,1486.45 656.36,1467.55 "/>
<polyline clip-path="url(#clip420)" style="stroke:#000000; stroke-linecap:round; stroke-linejoin:round; stroke-width:4; stroke-opacity:1; fill:none" points="1065.13,1486.45 1065.13,1467.55 "/>
<polyline clip-path="url(#clip420)" style="stroke:#000000; stroke-linecap:round; stroke-linejoin:round; stroke-width:4; stroke-opacity:1; fill:none" points="1473.9,1486.45 1473.9,1467.55 "/>
<polyline clip-path="url(#clip420)" style="stroke:#000000; stroke-linecap:round; stroke-linejoin:round; stroke-width:4; stroke-opacity:1; fill:none" points="1882.67,1486.45 1882.67,1467.55 "/>
<polyline clip-path="url(#clip420)" style="stroke:#000000; stroke-linecap:round; stroke-linejoin:round; stroke-width:4; stroke-opacity:1; fill:none" points="2291.44,1486.45 2291.44,1467.55 "/>
<path clip-path="url(#clip420)" d="M247.59 1517.37 Q243.978 1517.37 242.15 1520.93 Q240.344 1524.47 240.344 1531.6 Q240.344 1538.71 242.15 1542.27 Q243.978 1545.82 247.59 1545.82 Q251.224 1545.82 253.029 1542.27 Q254.858 1538.71 254.858 1531.6 Q254.858 1524.47 253.029 1520.93 Q251.224 1517.37 247.59 1517.37 M247.59 1513.66 Q253.4 1513.66 256.455 1518.27 Q259.534 1522.85 259.534 1531.6 Q259.534 1540.33 256.455 1544.94 Q253.4 1549.52 247.59 1549.52 Q241.779 1549.52 238.701 1544.94 Q235.645 1540.33 235.645 1531.6 Q235.645 1522.85 238.701 1518.27 Q241.779 1513.66 247.59 1513.66 Z" fill="#000000" fill-rule="evenodd" fill-opacity="1" /><path clip-path="url(#clip420)" d="M631.047 1544.91 L638.686 1544.91 L638.686 1518.55 L630.376 1520.21 L630.376 1515.95 L638.64 1514.29 L643.316 1514.29 L643.316 1544.91 L650.955 1544.91 L650.955 1548.85 L631.047 1548.85 L631.047 1544.91 Z" fill="#000000" fill-rule="evenodd" fill-opacity="1" /><path clip-path="url(#clip420)" d="M670.399 1517.37 Q666.788 1517.37 664.959 1520.93 Q663.154 1524.47 663.154 1531.6 Q663.154 1538.71 664.959 1542.27 Q666.788 1545.82 670.399 1545.82 Q674.033 1545.82 675.839 1542.27 Q677.667 1538.71 677.667 1531.6 Q677.667 1524.47 675.839 1520.93 Q674.033 1517.37 670.399 1517.37 M670.399 1513.66 Q676.209 1513.66 679.265 1518.27 Q682.343 1522.85 682.343 1531.6 Q682.343 1540.33 679.265 1544.94 Q676.209 1549.52 670.399 1549.52 Q664.589 1549.52 661.51 1544.94 Q658.455 1540.33 658.455 1531.6 Q658.455 1522.85 661.51 1518.27 Q664.589 1513.66 670.399 1513.66 Z" fill="#000000" fill-rule="evenodd" fill-opacity="1" /><path clip-path="url(#clip420)" d="M1043.9 1544.91 L1060.22 1544.91 L1060.22 1548.85 L1038.28 1548.85 L1038.28 1544.91 Q1040.94 1542.16 1045.52 1537.53 Q1050.13 1532.88 1051.31 1531.53 Q1053.56 1529.01 1054.44 1527.27 Q1055.34 1525.51 1055.34 1523.82 Q1055.34 1521.07 1053.39 1519.33 Q1051.47 1517.6 1048.37 1517.6 Q1046.17 1517.6 1043.72 1518.36 Q1041.29 1519.13 1038.51 1520.68 L1038.51 1515.95 Q1041.33 1514.82 1043.79 1514.24 Q1046.24 1513.66 1048.28 1513.66 Q1053.65 1513.66 1056.84 1516.35 Q1060.04 1519.03 1060.04 1523.52 Q1060.04 1525.65 1059.23 1527.57 Q1058.44 1529.47 1056.33 1532.07 Q1055.75 1532.74 1052.65 1535.95 Q1049.55 1539.15 1043.9 1544.91 Z" fill="#000000" fill-rule="evenodd" fill-opacity="1" /><path clip-path="url(#clip420)" d="M1080.04 1517.37 Q1076.43 1517.37 1074.6 1520.93 Q1072.79 1524.47 1072.79 1531.6 Q1072.79 1538.71 1074.6 1542.27 Q1076.43 1545.82 1080.04 1545.82 Q1083.67 1545.82 1085.48 1542.27 Q1087.31 1538.71 1087.31 1531.6 Q1087.31 1524.47 1085.48 1520.93 Q1083.67 1517.37 1080.04 1517.37 M1080.04 1513.66 Q1085.85 1513.66 1088.9 1518.27 Q1091.98 1522.85 1091.98 1531.6 Q1091.98 1540.33 1088.9 1544.94 Q1085.85 1549.52 1080.04 1549.52 Q1074.23 1549.52 1071.15 1544.94 Q1068.09 1540.33 1068.09 1531.6 Q1068.09 1522.85 1071.15 1518.27 Q1074.23 1513.66 1080.04 1513.66 Z" fill="#000000" fill-rule="evenodd" fill-opacity="1" /><path clip-path="url(#clip420)" d="M1462.74 1530.21 Q1466.1 1530.93 1467.97 1533.2 Q1469.87 1535.47 1469.87 1538.8 Q1469.87 1543.92 1466.35 1546.72 Q1462.84 1549.52 1456.35 1549.52 Q1454.18 1549.52 1451.86 1549.08 Q1449.57 1548.66 1447.12 1547.81 L1447.12 1543.29 Q1449.06 1544.43 1451.38 1545.01 Q1453.69 1545.58 1456.21 1545.58 Q1460.61 1545.58 1462.9 1543.85 Q1465.22 1542.11 1465.22 1538.8 Q1465.22 1535.75 1463.07 1534.03 Q1460.94 1532.3 1457.12 1532.3 L1453.09 1532.3 L1453.09 1528.45 L1457.3 1528.45 Q1460.75 1528.45 1462.58 1527.09 Q1464.41 1525.7 1464.41 1523.11 Q1464.41 1520.45 1462.51 1519.03 Q1460.64 1517.6 1457.12 1517.6 Q1455.2 1517.6 1453 1518.01 Q1450.8 1518.43 1448.16 1519.31 L1448.16 1515.14 Q1450.82 1514.4 1453.14 1514.03 Q1455.47 1513.66 1457.53 1513.66 Q1462.86 1513.66 1465.96 1516.09 Q1469.06 1518.5 1469.06 1522.62 Q1469.06 1525.49 1467.42 1527.48 Q1465.78 1529.45 1462.74 1530.21 Z" fill="#000000" fill-rule="evenodd" fill-opacity="1" /><path clip-path="url(#clip420)" d="M1488.74 1517.37 Q1485.13 1517.37 1483.3 1520.93 Q1481.49 1524.47 1481.49 1531.6 Q1481.49 1538.71 1483.3 1542.27 Q1485.13 1545.82 1488.74 1545.82 Q1492.37 1545.82 1494.18 1542.27 Q1496.01 1538.71 1496.01 1531.6 Q1496.01 1524.47 1494.18 1520.93 Q1492.37 1517.37 1488.74 1517.37 M1488.74 1513.66 Q1494.55 1513.66 1497.6 1518.27 Q1500.68 1522.85 1500.68 1531.6 Q1500.68 1540.33 1497.6 1544.94 Q1494.55 1549.52 1488.74 1549.52 Q1482.93 1549.52 1479.85 1544.94 Q1476.79 1540.33 1476.79 1531.6 Q1476.79 1522.85 1479.85 1518.27 Q1482.93 1513.66 1488.74 1513.66 Z" fill="#000000" fill-rule="evenodd" fill-opacity="1" /><path clip-path="url(#clip420)" d="M1870.84 1518.36 L1859.04 1536.81 L1870.84 1536.81 L1870.84 1518.36 M1869.61 1514.29 L1875.49 1514.29 L1875.49 1536.81 L1880.42 1536.81 L1880.42 1540.7 L1875.49 1540.7 L1875.49 1548.85 L1870.84 1548.85 L1870.84 1540.7 L1855.24 1540.7 L1855.24 1536.19 L1869.61 1514.29 Z" fill="#000000" fill-rule="evenodd" fill-opacity="1" /><path clip-path="url(#clip420)" d="M1898.16 1517.37 Q1894.55 1517.37 1892.72 1520.93 Q1890.91 1524.47 1890.91 1531.6 Q1890.91 1538.71 1892.72 1542.27 Q1894.55 1545.82 1898.16 1545.82 Q1901.79 1545.82 1903.6 1542.27 Q1905.42 1538.71 1905.42 1531.6 Q1905.42 1524.47 1903.6 1520.93 Q1901.79 1517.37 1898.16 1517.37 M1898.16 1513.66 Q1903.97 1513.66 1907.02 1518.27 Q1910.1 1522.85 1910.1 1531.6 Q1910.1 1540.33 1907.02 1544.94 Q1903.97 1549.52 1898.16 1549.52 Q1892.35 1549.52 1889.27 1544.94 Q1886.21 1540.33 1886.21 1531.6 Q1886.21 1522.85 1889.27 1518.27 Q1892.35 1513.66 1898.16 1513.66 Z" fill="#000000" fill-rule="evenodd" fill-opacity="1" /><path clip-path="url(#clip420)" d="M2266.14 1514.29 L2284.5 1514.29 L2284.5 1518.22 L2270.42 1518.22 L2270.42 1526.7 Q2271.44 1526.35 2272.46 1526.19 Q2273.48 1526 2274.5 1526 Q2280.28 1526 2283.66 1529.17 Q2287.04 1532.34 2287.04 1537.76 Q2287.04 1543.34 2283.57 1546.44 Q2280.1 1549.52 2273.78 1549.52 Q2271.6 1549.52 2269.33 1549.15 Q2267.09 1548.78 2264.68 1548.04 L2264.68 1543.34 Q2266.76 1544.47 2268.99 1545.03 Q2271.21 1545.58 2273.69 1545.58 Q2277.69 1545.58 2280.03 1543.48 Q2282.37 1541.37 2282.37 1537.76 Q2282.37 1534.15 2280.03 1532.04 Q2277.69 1529.94 2273.69 1529.94 Q2271.81 1529.94 2269.94 1530.35 Q2268.08 1530.77 2266.14 1531.65 L2266.14 1514.29 Z" fill="#000000" fill-rule="evenodd" fill-opacity="1" /><path clip-path="url(#clip420)" d="M2306.26 1517.37 Q2302.64 1517.37 2300.82 1520.93 Q2299.01 1524.47 2299.01 1531.6 Q2299.01 1538.71 2300.82 1542.27 Q2302.64 1545.82 2306.26 1545.82 Q2309.89 1545.82 2311.69 1542.27 Q2313.52 1538.71 2313.52 1531.6 Q2313.52 1524.47 2311.69 1520.93 Q2309.89 1517.37 2306.26 1517.37 M2306.26 1513.66 Q2312.07 1513.66 2315.12 1518.27 Q2318.2 1522.85 2318.2 1531.6 Q2318.2 1540.33 2315.12 1544.94 Q2312.07 1549.52 2306.26 1549.52 Q2300.44 1549.52 2297.37 1544.94 Q2294.31 1540.33 2294.31 1531.6 Q2294.31 1522.85 2297.37 1518.27 Q2300.44 1513.66 2306.26 1513.66 Z" fill="#000000" fill-rule="evenodd" fill-opacity="1" /><polyline clip-path="url(#clip422)" style="stroke:#000000; stroke-linecap:round; stroke-linejoin:round; stroke-width:2; stroke-opacity:0.1; fill:none" points="186.274,1445.72 2352.76,1445.72 "/>
<polyline clip-path="url(#clip422)" style="stroke:#000000; stroke-linecap:round; stroke-linejoin:round; stroke-width:2; stroke-opacity:0.1; fill:none" points="186.274,1106.28 2352.76,1106.28 "/>
<polyline clip-path="url(#clip422)" style="stroke:#000000; stroke-linecap:round; stroke-linejoin:round; stroke-width:2; stroke-opacity:0.1; fill:none" points="186.274,766.847 2352.76,766.847 "/>
<polyline clip-path="url(#clip422)" style="stroke:#000000; stroke-linecap:round; stroke-linejoin:round; stroke-width:2; stroke-opacity:0.1; fill:none" points="186.274,427.412 2352.76,427.412 "/>
<polyline clip-path="url(#clip422)" style="stroke:#000000; stroke-linecap:round; stroke-linejoin:round; stroke-width:2; stroke-opacity:0.1; fill:none" points="186.274,87.9763 2352.76,87.9763 "/>
<polyline clip-path="url(#clip420)" style="stroke:#000000; stroke-linecap:round; stroke-linejoin:round; stroke-width:4; stroke-opacity:1; fill:none" points="186.274,1486.45 186.274,47.2441 "/>
<polyline clip-path="url(#clip420)" style="stroke:#000000; stroke-linecap:round; stroke-linejoin:round; stroke-width:4; stroke-opacity:1; fill:none" points="186.274,1445.72 205.172,1445.72 "/>
<polyline clip-path="url(#clip420)" style="stroke:#000000; stroke-linecap:round; stroke-linejoin:round; stroke-width:4; stroke-opacity:1; fill:none" points="186.274,1106.28 205.172,1106.28 "/>
<polyline clip-path="url(#clip420)" style="stroke:#000000; stroke-linecap:round; stroke-linejoin:round; stroke-width:4; stroke-opacity:1; fill:none" points="186.274,766.847 205.172,766.847 "/>
<polyline clip-path="url(#clip420)" style="stroke:#000000; stroke-linecap:round; stroke-linejoin:round; stroke-width:4; stroke-opacity:1; fill:none" points="186.274,427.412 205.172,427.412 "/>
<polyline clip-path="url(#clip420)" style="stroke:#000000; stroke-linecap:round; stroke-linejoin:round; stroke-width:4; stroke-opacity:1; fill:none" points="186.274,87.9763 205.172,87.9763 "/>
<path clip-path="url(#clip420)" d="M62.9365 1431.52 Q59.3254 1431.52 57.4967 1435.08 Q55.6912 1438.62 55.6912 1445.75 Q55.6912 1452.86 57.4967 1456.42 Q59.3254 1459.96 62.9365 1459.96 Q66.5707 1459.96 68.3763 1456.42 Q70.205 1452.86 70.205 1445.75 Q70.205 1438.62 68.3763 1435.08 Q66.5707 1431.52 62.9365 1431.52 M62.9365 1427.81 Q68.7467 1427.81 71.8022 1432.42 Q74.8809 1437 74.8809 1445.75 Q74.8809 1454.48 71.8022 1459.09 Q68.7467 1463.67 62.9365 1463.67 Q57.1264 1463.67 54.0477 1459.09 Q50.9921 1454.48 50.9921 1445.75 Q50.9921 1437 54.0477 1432.42 Q57.1264 1427.81 62.9365 1427.81 Z" fill="#000000" fill-rule="evenodd" fill-opacity="1" /><path clip-path="url(#clip420)" d="M83.0984 1457.12 L87.9827 1457.12 L87.9827 1463 L83.0984 1463 L83.0984 1457.12 Z" fill="#000000" fill-rule="evenodd" fill-opacity="1" /><path clip-path="url(#clip420)" d="M108.168 1431.52 Q104.557 1431.52 102.728 1435.08 Q100.922 1438.62 100.922 1445.75 Q100.922 1452.86 102.728 1456.42 Q104.557 1459.96 108.168 1459.96 Q111.802 1459.96 113.608 1456.42 Q115.436 1452.86 115.436 1445.75 Q115.436 1438.62 113.608 1435.08 Q111.802 1431.52 108.168 1431.52 M108.168 1427.81 Q113.978 1427.81 117.033 1432.42 Q120.112 1437 120.112 1445.75 Q120.112 1454.48 117.033 1459.09 Q113.978 1463.67 108.168 1463.67 Q102.358 1463.67 99.2789 1459.09 Q96.2234 1454.48 96.2234 1445.75 Q96.2234 1437 99.2789 1432.42 Q102.358 1427.81 108.168 1427.81 Z" fill="#000000" fill-rule="evenodd" fill-opacity="1" /><path clip-path="url(#clip420)" d="M138.33 1431.52 Q134.719 1431.52 132.89 1435.08 Q131.084 1438.62 131.084 1445.75 Q131.084 1452.86 132.89 1456.42 Q134.719 1459.96 138.33 1459.96 Q141.964 1459.96 143.769 1456.42 Q145.598 1452.86 145.598 1445.75 Q145.598 1438.62 143.769 1435.08 Q141.964 1431.52 138.33 1431.52 M138.33 1427.81 Q144.14 1427.81 147.195 1432.42 Q150.274 1437 150.274 1445.75 Q150.274 1454.48 147.195 1459.09 Q144.14 1463.67 138.33 1463.67 Q132.519 1463.67 129.441 1459.09 Q126.385 1454.48 126.385 1445.75 Q126.385 1437 129.441 1432.42 Q132.519 1427.81 138.33 1427.81 Z" fill="#000000" fill-rule="evenodd" fill-opacity="1" /><path clip-path="url(#clip420)" d="M63.9319 1092.08 Q60.3208 1092.08 58.4921 1095.65 Q56.6865 1099.19 56.6865 1106.32 Q56.6865 1113.42 58.4921 1116.99 Q60.3208 1120.53 63.9319 1120.53 Q67.5661 1120.53 69.3717 1116.99 Q71.2004 1113.42 71.2004 1106.32 Q71.2004 1099.19 69.3717 1095.65 Q67.5661 1092.08 63.9319 1092.08 M63.9319 1088.38 Q69.742 1088.38 72.7976 1092.98 Q75.8763 1097.57 75.8763 1106.32 Q75.8763 1115.04 72.7976 1119.65 Q69.742 1124.23 63.9319 1124.23 Q58.1217 1124.23 55.043 1119.65 Q51.9875 1115.04 51.9875 1106.32 Q51.9875 1097.57 55.043 1092.98 Q58.1217 1088.38 63.9319 1088.38 Z" fill="#000000" fill-rule="evenodd" fill-opacity="1" /><path clip-path="url(#clip420)" d="M84.0938 1117.68 L88.978 1117.68 L88.978 1123.56 L84.0938 1123.56 L84.0938 1117.68 Z" fill="#000000" fill-rule="evenodd" fill-opacity="1" /><path clip-path="url(#clip420)" d="M103.191 1119.63 L119.51 1119.63 L119.51 1123.56 L97.566 1123.56 L97.566 1119.63 Q100.228 1116.87 104.811 1112.24 Q109.418 1107.59 110.598 1106.25 Q112.844 1103.72 113.723 1101.99 Q114.626 1100.23 114.626 1098.54 Q114.626 1095.78 112.682 1094.05 Q110.76 1092.31 107.658 1092.31 Q105.459 1092.31 103.006 1093.08 Q100.575 1093.84 97.7974 1095.39 L97.7974 1090.67 Q100.621 1089.53 103.075 1088.96 Q105.529 1088.38 107.566 1088.38 Q112.936 1088.38 116.131 1091.06 Q119.325 1093.75 119.325 1098.24 Q119.325 1100.37 118.515 1102.29 Q117.728 1104.19 115.621 1106.78 Q115.043 1107.45 111.941 1110.67 Q108.839 1113.86 103.191 1119.63 Z" fill="#000000" fill-rule="evenodd" fill-opacity="1" /><path clip-path="url(#clip420)" d="M129.371 1089 L147.728 1089 L147.728 1092.94 L133.654 1092.94 L133.654 1101.41 Q134.672 1101.06 135.691 1100.9 Q136.709 1100.71 137.728 1100.71 Q143.515 1100.71 146.894 1103.89 Q150.274 1107.06 150.274 1112.47 Q150.274 1118.05 146.802 1121.15 Q143.33 1124.23 137.01 1124.23 Q134.834 1124.23 132.566 1123.86 Q130.32 1123.49 127.913 1122.75 L127.913 1118.05 Q129.996 1119.19 132.219 1119.74 Q134.441 1120.3 136.918 1120.3 Q140.922 1120.3 143.26 1118.19 Q145.598 1116.09 145.598 1112.47 Q145.598 1108.86 143.26 1106.76 Q140.922 1104.65 136.918 1104.65 Q135.043 1104.65 133.168 1105.07 Q131.316 1105.48 129.371 1106.36 L129.371 1089 Z" fill="#000000" fill-rule="evenodd" fill-opacity="1" /><path clip-path="url(#clip420)" d="M62.9365 752.645 Q59.3254 752.645 57.4967 756.21 Q55.6912 759.752 55.6912 766.881 Q55.6912 773.988 57.4967 777.553 Q59.3254 781.094 62.9365 781.094 Q66.5707 781.094 68.3763 777.553 Q70.205 773.988 70.205 766.881 Q70.205 759.752 68.3763 756.21 Q66.5707 752.645 62.9365 752.645 M62.9365 748.942 Q68.7467 748.942 71.8022 753.548 Q74.8809 758.132 74.8809 766.881 Q74.8809 775.608 71.8022 780.215 Q68.7467 784.798 62.9365 784.798 Q57.1264 784.798 54.0477 780.215 Q50.9921 775.608 50.9921 766.881 Q50.9921 758.132 54.0477 753.548 Q57.1264 748.942 62.9365 748.942 Z" fill="#000000" fill-rule="evenodd" fill-opacity="1" /><path clip-path="url(#clip420)" d="M83.0984 778.247 L87.9827 778.247 L87.9827 784.127 L83.0984 784.127 L83.0984 778.247 Z" fill="#000000" fill-rule="evenodd" fill-opacity="1" /><path clip-path="url(#clip420)" d="M98.2141 749.567 L116.57 749.567 L116.57 753.502 L102.496 753.502 L102.496 761.974 Q103.515 761.627 104.534 761.465 Q105.552 761.28 106.571 761.28 Q112.358 761.28 115.737 764.451 Q119.117 767.622 119.117 773.039 Q119.117 778.618 115.645 781.719 Q112.172 784.798 105.853 784.798 Q103.677 784.798 101.409 784.428 Q99.1632 784.057 96.7558 783.317 L96.7558 778.618 Q98.8391 779.752 101.061 780.307 Q103.284 780.863 105.76 780.863 Q109.765 780.863 112.103 778.756 Q114.441 776.65 114.441 773.039 Q114.441 769.428 112.103 767.321 Q109.765 765.215 105.76 765.215 Q103.885 765.215 102.01 765.631 Q100.159 766.048 98.2141 766.928 L98.2141 749.567 Z" fill="#000000" fill-rule="evenodd" fill-opacity="1" /><path clip-path="url(#clip420)" d="M138.33 752.645 Q134.719 752.645 132.89 756.21 Q131.084 759.752 131.084 766.881 Q131.084 773.988 132.89 777.553 Q134.719 781.094 138.33 781.094 Q141.964 781.094 143.769 777.553 Q145.598 773.988 145.598 766.881 Q145.598 759.752 143.769 756.21 Q141.964 752.645 138.33 752.645 M138.33 748.942 Q144.14 748.942 147.195 753.548 Q150.274 758.132 150.274 766.881 Q150.274 775.608 147.195 780.215 Q144.14 784.798 138.33 784.798 Q132.519 784.798 129.441 780.215 Q126.385 775.608 126.385 766.881 Q126.385 758.132 129.441 753.548 Q132.519 748.942 138.33 748.942 Z" fill="#000000" fill-rule="evenodd" fill-opacity="1" /><path clip-path="url(#clip420)" d="M63.9319 413.21 Q60.3208 413.21 58.4921 416.775 Q56.6865 420.317 56.6865 427.446 Q56.6865 434.553 58.4921 438.117 Q60.3208 441.659 63.9319 441.659 Q67.5661 441.659 69.3717 438.117 Q71.2004 434.553 71.2004 427.446 Q71.2004 420.317 69.3717 416.775 Q67.5661 413.21 63.9319 413.21 M63.9319 409.507 Q69.742 409.507 72.7976 414.113 Q75.8763 418.696 75.8763 427.446 Q75.8763 436.173 72.7976 440.78 Q69.742 445.363 63.9319 445.363 Q58.1217 445.363 55.043 440.78 Q51.9875 436.173 51.9875 427.446 Q51.9875 418.696 55.043 414.113 Q58.1217 409.507 63.9319 409.507 Z" fill="#000000" fill-rule="evenodd" fill-opacity="1" /><path clip-path="url(#clip420)" d="M84.0938 438.812 L88.978 438.812 L88.978 444.692 L84.0938 444.692 L84.0938 438.812 Z" fill="#000000" fill-rule="evenodd" fill-opacity="1" /><path clip-path="url(#clip420)" d="M97.9826 410.132 L120.205 410.132 L120.205 412.122 L107.658 444.692 L102.774 444.692 L114.58 414.067 L97.9826 414.067 L97.9826 410.132 Z" fill="#000000" fill-rule="evenodd" fill-opacity="1" /><path clip-path="url(#clip420)" d="M129.371 410.132 L147.728 410.132 L147.728 414.067 L133.654 414.067 L133.654 422.539 Q134.672 422.192 135.691 422.03 Q136.709 421.844 137.728 421.844 Q143.515 421.844 146.894 425.016 Q150.274 428.187 150.274 433.604 Q150.274 439.182 146.802 442.284 Q143.33 445.363 137.01 445.363 Q134.834 445.363 132.566 444.992 Q130.32 444.622 127.913 443.881 L127.913 439.182 Q129.996 440.317 132.219 440.872 Q134.441 441.428 136.918 441.428 Q140.922 441.428 143.26 439.321 Q145.598 437.215 145.598 433.604 Q145.598 429.993 143.26 427.886 Q140.922 425.78 136.918 425.78 Q135.043 425.78 133.168 426.196 Q131.316 426.613 129.371 427.493 L129.371 410.132 Z" fill="#000000" fill-rule="evenodd" fill-opacity="1" /><path clip-path="url(#clip420)" d="M53.7467 101.321 L61.3856 101.321 L61.3856 74.9555 L53.0754 76.6222 L53.0754 72.3629 L61.3393 70.6963 L66.0152 70.6963 L66.0152 101.321 L73.654 101.321 L73.654 105.256 L53.7467 105.256 L53.7467 101.321 Z" fill="#000000" fill-rule="evenodd" fill-opacity="1" /><path clip-path="url(#clip420)" d="M83.0984 99.3767 L87.9827 99.3767 L87.9827 105.256 L83.0984 105.256 L83.0984 99.3767 Z" fill="#000000" fill-rule="evenodd" fill-opacity="1" /><path clip-path="url(#clip420)" d="M108.168 73.775 Q104.557 73.775 102.728 77.3398 Q100.922 80.8814 100.922 88.011 Q100.922 95.1174 102.728 98.6822 Q104.557 102.224 108.168 102.224 Q111.802 102.224 113.608 98.6822 Q115.436 95.1174 115.436 88.011 Q115.436 80.8814 113.608 77.3398 Q111.802 73.775 108.168 73.775 M108.168 70.0713 Q113.978 70.0713 117.033 74.6777 Q120.112 79.261 120.112 88.011 Q120.112 96.7378 117.033 101.344 Q113.978 105.928 108.168 105.928 Q102.358 105.928 99.2789 101.344 Q96.2234 96.7378 96.2234 88.011 Q96.2234 79.261 99.2789 74.6777 Q102.358 70.0713 108.168 70.0713 Z" fill="#000000" fill-rule="evenodd" fill-opacity="1" /><path clip-path="url(#clip420)" d="M138.33 73.775 Q134.719 73.775 132.89 77.3398 Q131.084 80.8814 131.084 88.011 Q131.084 95.1174 132.89 98.6822 Q134.719 102.224 138.33 102.224 Q141.964 102.224 143.769 98.6822 Q145.598 95.1174 145.598 88.011 Q145.598 80.8814 143.769 77.3398 Q141.964 73.775 138.33 73.775 M138.33 70.0713 Q144.14 70.0713 147.195 74.6777 Q150.274 79.261 150.274 88.011 Q150.274 96.7378 147.195 101.344 Q144.14 105.928 138.33 105.928 Q132.519 105.928 129.441 101.344 Q126.385 96.7378 126.385 88.011 Q126.385 79.261 129.441 74.6777 Q132.519 70.0713 138.33 70.0713 Z" fill="#000000" fill-rule="evenodd" fill-opacity="1" /><polyline clip-path="url(#clip422)" style="stroke:#009af9; stroke-linecap:round; stroke-linejoin:round; stroke-width:4; stroke-opacity:1; fill:none" points="247.59,87.9763 249.253,88.3808 250.916,89.593 252.579,91.6084 254.243,94.42 255.906,98.0177 257.569,102.389 258.401,104.86 259.233,107.519 260.064,110.362 260.896,113.389 264.741,129.68 268.586,149.53 272.431,172.602 276.276,198.526 280.121,226.908 283.966,257.346 287.811,289.444 291.656,322.815 299.346,391.956 307.036,462.22 314.725,531.589 322.415,598.583 326.26,630.862 330.105,662.209 333.95,692.559 337.795,721.871 341.64,750.117 345.485,777.285 349.33,803.374 353.175,828.391 357.02,852.354 360.865,875.283 364.71,897.207 368.555,918.156 376.245,957.261 383.935,992.879 388.556,1012.73 393.177,1031.48 397.799,1049.21 402.42,1065.96 411.663,1096.77 420.905,1124.34 430.148,1149.04 439.391,1171.22 448.633,1191.17 457.876,1209.16 465.69,1223.01 473.505,1235.74 481.319,1247.46 489.134,1258.28 504.763,1277.51 520.392,1294.02 537.37,1309.41 554.347,1322.63 571.325,1334.06 588.302,1343.98 619.606,1359.15 650.909,1371.19 684.47,1381.51 718.031,1389.82 756.914,1397.57 795.798,1403.8 864.908,1412.21 925.511,1417.64 991.585,1422.15 1058.05,1425.64 1131.54,1428.65 1201.46,1430.91 1274.16,1432.79 1335.36,1434.1 1410.08,1435.43 1478.52,1436.45 1541.74,1437.26 1605.77,1437.97 1677.54,1438.65 1742.57,1439.19 1817.03,1439.73 1885.97,1440.17 1953.93,1440.56 2019.92,1440.89 2087.57,1441.2 2161.69,1441.5 2269.35,1441.88 2291.44,1441.95 "/>
<polyline clip-path="url(#clip422)" style="stroke:#e26f46; stroke-linecap:round; stroke-linejoin:round; stroke-width:4; stroke-opacity:1; fill:none" points="247.59,87.9763 250.916,88.7854 254.243,91.2109 257.569,95.247 260.896,100.884 264.741,109.376 268.586,119.962 272.431,132.607 276.276,147.272 280.121,163.91 283.966,182.467 287.811,202.886 291.656,225.099 295.501,249.038 299.346,274.625 303.191,301.78 307.036,330.414 310.881,360.439 314.725,391.757 318.57,424.268 322.415,457.87 330.105,527.915 337.795,600.997 345.485,676.187 353.175,752.528 360.865,829.047 368.555,904.772 376.245,978.737 383.935,1050 388.556,1091.15 393.177,1130.8 397.799,1168.78 402.42,1204.91 407.041,1239.03 411.663,1270.97 416.284,1300.59 420.905,1327.76 425.527,1352.34 430.148,1374.23 434.769,1393.33 439.391,1409.55 444.012,1422.81 448.633,1433.05 453.254,1440.23 457.876,1444.32 461.783,1445.34 465.69,1444.13 469.598,1440.7 473.505,1435.06 477.412,1427.21 481.319,1417.2 485.227,1405.06 489.134,1390.81 493.041,1374.52 496.948,1356.23 500.856,1336.01 504.763,1313.92 508.67,1290.03 512.577,1264.43 516.485,1237.2 520.392,1208.42 524.636,1175.53 528.881,1141.06 533.125,1105.14 537.37,1067.92 541.614,1029.53 545.858,990.137 550.103,949.885 554.347,908.931 571.325,741.318 588.302,575.458 592.215,538.573 596.128,502.451 600.041,467.213 603.954,432.975 607.867,399.85 611.78,367.946 615.693,337.371 619.606,308.224 623.519,280.603 627.432,254.598 631.345,230.295 635.258,207.775 639.17,187.112 643.083,168.375 646.996,151.625 650.909,136.917 655.104,123.474 659.299,112.485 663.495,103.992 667.69,98.0283 671.885,94.6159 676.08,93.7678 680.275,95.4873 684.47,99.7678 688.665,106.593 692.86,115.937 697.055,127.765 701.25,142.03 705.446,158.68 709.641,177.651 713.836,198.871 718.031,222.26 722.891,251.951 727.752,284.282 732.612,319.088 737.472,356.192 742.333,395.403 747.193,436.523 752.054,479.341 756.914,523.639 766.635,615.767 776.356,711.028 786.077,807.483 795.798,903.166 800.117,944.923 804.436,985.974 808.756,1026.15 813.075,1065.3 817.394,1103.25 821.714,1139.86 826.033,1174.98 830.353,1208.47 834.672,1240.18 838.991,1270 843.311,1297.81 847.63,1323.48 851.949,1346.93 856.269,1368.05 860.588,1386.75 864.908,1402.97 868.695,1415.09 872.483,1425.22 876.271,1433.31 880.058,1439.34 883.846,1443.29 887.634,1445.16 891.421,1444.93 895.209,1442.61 898.997,1438.2 902.785,1431.72 906.572,1423.18 910.36,1412.62 914.148,1400.06 917.935,1385.54 921.723,1369.11 925.511,1350.82 929.64,1328.83 933.77,1304.77 937.9,1278.74 942.029,1250.82 946.159,1221.13 950.288,1189.77 954.418,1156.85 958.548,1122.51 962.677,1086.85 966.807,1050.02 970.937,1012.15 975.066,973.376 983.325,893.699 991.585,812.158 999.893,729.463 1008.2,647.323 1016.51,566.958 1024.82,489.563 1028.97,452.34 1033.13,416.287 1037.28,381.537 1041.43,348.22 1045.59,316.46 1049.74,286.374 1053.9,258.074 1058.05,231.667 1062.64,204.79 1067.24,180.468 1071.83,158.812 1076.42,139.919 1081.02,123.875 1085.61,110.755 1090.2,100.616 1094.79,93.5059 1099.39,89.4563 1103.98,88.4857 1108.57,90.5987 1113.17,95.7855 1117.76,104.023 1122.35,115.273 1126.95,129.484 1131.54,146.593 1135.91,165.491 1140.28,186.863 1144.65,210.622 1149.02,236.669 1153.39,264.899 1157.76,295.194 1162.13,327.43 1166.5,361.474 1170.87,397.187 1175.24,434.42 1179.61,473.022 1183.98,512.832 1192.72,595.421 1201.46,680.828 1210.55,771.111 1219.63,861.318 1228.72,949.845 1237.81,1035.12 1242.35,1076.06 1246.9,1115.63 1251.44,1153.64 1255.99,1189.94 1260.53,1224.35 1265.07,1256.73 1269.62,1286.92 1274.16,1314.81 1277.99,1336.4 1281.81,1356.2 1285.64,1374.13 1289.46,1390.16 1293.29,1404.22 1297.11,1416.27 1300.94,1426.27 1304.76,1434.2 1308.59,1440.03 1312.41,1443.73 1316.24,1445.3 1320.06,1444.74 1323.89,1442.04 1327.71,1437.21 1331.54,1430.27 1335.36,1421.25 1340.03,1407.44 1344.7,1390.62 1349.37,1370.88 1354.04,1348.3 1358.71,1323 1363.38,1295.09 1368.05,1264.7 1372.72,1231.99 1377.39,1197.09 1382.06,1160.18 1386.73,1121.42 1391.4,1081.01 1396.07,1039.14 1400.74,995.987 1405.41,951.771 1410.08,906.695 1418.63,822.587 1427.19,737.636 1435.75,653.183 1444.3,570.561 1448.58,530.346 1452.86,491.075 1457.13,452.902 1461.41,415.978 1465.69,380.449 1469.97,346.456 1474.25,314.132 1478.52,283.605 1482.48,257.113 1486.43,232.345 1490.38,209.386 1494.33,188.314 1498.28,169.198 1502.23,152.103 1506.18,137.088 1510.13,124.202 1514.08,113.488 1518.03,104.984 1521.98,98.7176 1525.94,94.7098 1529.89,92.9742 1533.84,93.5166 1537.79,96.3353 1541.74,101.421 1545.74,108.866 1549.74,118.593 1553.75,130.569 1557.75,144.753 1561.75,161.096 1565.75,179.54 1569.75,200.023 1573.76,222.473 1577.76,246.813 1581.76,272.958 1585.76,300.819 1589.77,330.299 1593.77,361.296 1597.77,393.703 1601.77,427.408 1605.77,462.294 1614.75,544.156 1623.72,629.922 1632.69,718.103 1641.66,807.169 1650.63,895.576 1659.6,981.789 1664.08,1023.6 1668.57,1064.31 1673.05,1103.74 1677.54,1141.72 1681.6,1174.73 1685.67,1206.31 1689.73,1236.32 1693.8,1264.67 1697.86,1291.25 1701.93,1315.96 1705.99,1338.73 1710.06,1359.47 1714.12,1378.1 1718.18,1394.56 1722.25,1408.78 1726.31,1420.73 1730.38,1430.35 1734.44,1437.62 1738.51,1442.5 1742.57,1444.97 1747.22,1444.85 1751.88,1441.56 1756.53,1435.13 1761.18,1425.58 1765.84,1412.97 1770.49,1397.34 1775.15,1378.77 1779.8,1357.35 1784.45,1333.18 1789.11,1306.36 1793.76,1277.04 1798.41,1245.33 1803.07,1211.39 1807.72,1175.38 1812.37,1137.47 1817.03,1097.83 1821.34,1059.74 1825.64,1020.49 1829.95,980.224 1834.26,939.107 1842.88,854.976 1851.5,769.445 1860.11,683.88 1868.73,599.651 1873.04,558.458 1877.35,518.102 1881.66,478.744 1885.97,440.54 1890.21,404.155 1894.46,369.183 1898.71,335.76 1902.96,304.016 1907.21,274.074 1911.45,246.051 1915.7,220.055 1919.95,196.189 1924.2,174.544 1928.45,155.205 1932.69,138.248 1936.94,123.738 1941.19,111.731 1945.44,102.275 1949.68,95.4058 1953.93,91.1507 1958.06,89.5361 1962.18,90.4071 1966.31,93.7606 1970.43,99.5844 1974.55,107.857 1978.68,118.548 1982.8,131.618 1986.93,147.02 1991.05,164.697 1995.18,184.583 1999.3,206.607 2003.43,230.688 2007.55,256.736 2011.67,284.657 2015.8,314.348 2019.92,345.701 2024.15,379.445 2028.38,414.685 2032.61,451.283 2036.83,489.1 2045.29,567.801 2053.75,649.576 2062.2,733.165 2070.66,817.282 2079.11,900.63 2087.57,981.927 2092.2,1025.14 2096.83,1067.16 2101.47,1107.8 2106.1,1146.86 2110.73,1184.16 2115.36,1219.54 2120,1252.83 2124.63,1283.87 2129.26,1312.52 2133.89,1338.66 2138.53,1362.15 2143.16,1382.89 2147.79,1400.79 2152.42,1415.75 2154.74,1422.12 2157.05,1427.72 2159.37,1432.57 2161.69,1436.64 2165.05,1441.18 2168.42,1444.07 2171.78,1445.32 2175.14,1444.91 2178.51,1442.84 2181.87,1439.13 2185.24,1433.78 2188.6,1426.81 2191.97,1418.23 2195.33,1408.06 2198.7,1396.33 2202.06,1383.06 2205.43,1368.29 2208.79,1352.06 2212.15,1334.4 2215.52,1315.36 2218.88,1294.99 2222.25,1273.33 2225.61,1250.43 2228.98,1226.36 2232.34,1201.17 2235.71,1174.92 2239.07,1147.68 2242.44,1119.52 2249.17,1060.69 2255.89,999.004 2262.62,935.071 2269.35,869.511 2274.87,814.948 2280.4,760.08 2285.92,705.267 2291.44,650.872 "/>
<polyline clip-path="url(#clip422)" style="stroke:#3da44d; stroke-linecap:round; stroke-linejoin:round; stroke-width:4; stroke-opacity:1; fill:none" points="-1980.21,768.126 4519.24,768.126 "/>
<polyline clip-path="url(#clip422)" style="stroke:#c271d2; stroke-linecap:round; stroke-linejoin:round; stroke-width:4; stroke-opacity:1; fill:none" points="-1980.21,1445.72 4519.24,1445.72 "/>
<polyline clip-path="url(#clip422)" style="stroke:#ac8d18; stroke-linecap:round; stroke-linejoin:round; stroke-width:4; stroke-opacity:1; fill:none" points="-1980.21,761.285 4519.24,761.285 "/>
<path clip-path="url(#clip420)" d="M1452.27 406.258 L2280.54 406.258 L2280.54 95.2176 L1452.27 95.2176  Z" fill="#ffffff" fill-rule="evenodd" fill-opacity="1"/>
<polyline clip-path="url(#clip420)" style="stroke:#000000; stroke-linecap:round; stroke-linejoin:round; stroke-width:4; stroke-opacity:1; fill:none" points="1452.27,406.258 2280.54,406.258 2280.54,95.2176 1452.27,95.2176 1452.27,406.258 "/>
<polyline clip-path="url(#clip420)" style="stroke:#009af9; stroke-linecap:round; stroke-linejoin:round; stroke-width:4; stroke-opacity:1; fill:none" points="1476.35,147.058 1620.78,147.058 "/>
<path clip-path="url(#clip420)" d="M1649.53 147.833 L1649.53 160.495 L1657.03 160.495 Q1660.8 160.495 1662.61 158.944 Q1664.43 157.37 1664.43 154.152 Q1664.43 150.912 1662.61 149.384 Q1660.8 147.833 1657.03 147.833 L1649.53 147.833 M1649.53 133.62 L1649.53 144.037 L1656.45 144.037 Q1659.87 144.037 1661.54 142.764 Q1663.23 141.467 1663.23 138.828 Q1663.23 136.213 1661.54 134.916 Q1659.87 133.62 1656.45 133.62 L1649.53 133.62 M1644.85 129.778 L1656.8 129.778 Q1662.14 129.778 1665.04 132 Q1667.93 134.222 1667.93 138.319 Q1667.93 141.49 1666.45 143.365 Q1664.97 145.24 1662.1 145.703 Q1665.55 146.444 1667.44 148.805 Q1669.36 151.143 1669.36 154.662 Q1669.36 159.291 1666.22 161.814 Q1663.07 164.338 1657.26 164.338 L1644.85 164.338 L1644.85 129.778 Z" fill="#000000" fill-rule="evenodd" fill-opacity="1" /><path clip-path="url(#clip420)" d="M1687.23 141.398 Q1683.81 141.398 1681.82 144.083 Q1679.83 146.745 1679.83 151.398 Q1679.83 156.051 1681.79 158.736 Q1683.79 161.398 1687.23 161.398 Q1690.64 161.398 1692.63 158.713 Q1694.62 156.027 1694.62 151.398 Q1694.62 146.791 1692.63 144.106 Q1690.64 141.398 1687.23 141.398 M1687.23 137.787 Q1692.79 137.787 1695.96 141.398 Q1699.13 145.009 1699.13 151.398 Q1699.13 157.764 1695.96 161.398 Q1692.79 165.009 1687.23 165.009 Q1681.66 165.009 1678.48 161.398 Q1675.34 157.764 1675.34 151.398 Q1675.34 145.009 1678.48 141.398 Q1681.66 137.787 1687.23 137.787 Z" fill="#000000" fill-rule="evenodd" fill-opacity="1" /><path clip-path="url(#clip420)" d="M1721.22 142.393 Q1720.5 141.977 1719.64 141.791 Q1718.81 141.583 1717.79 141.583 Q1714.18 141.583 1712.23 143.944 Q1710.31 146.282 1710.31 150.68 L1710.31 164.338 L1706.03 164.338 L1706.03 138.412 L1710.31 138.412 L1710.31 142.44 Q1711.66 140.078 1713.81 138.944 Q1715.96 137.787 1719.04 137.787 Q1719.48 137.787 1720.01 137.856 Q1720.54 137.903 1721.19 138.018 L1721.22 142.393 Z" fill="#000000" fill-rule="evenodd" fill-opacity="1" /><path clip-path="url(#clip420)" d="M1746.4 148.689 L1746.4 164.338 L1742.14 164.338 L1742.14 148.828 Q1742.14 145.148 1740.71 143.319 Q1739.27 141.49 1736.4 141.49 Q1732.95 141.49 1730.96 143.69 Q1728.97 145.889 1728.97 149.685 L1728.97 164.338 L1724.69 164.338 L1724.69 138.412 L1728.97 138.412 L1728.97 142.44 Q1730.5 140.102 1732.56 138.944 Q1734.64 137.787 1737.35 137.787 Q1741.82 137.787 1744.11 140.565 Q1746.4 143.319 1746.4 148.689 Z" fill="#000000" fill-rule="evenodd" fill-opacity="1" /><path clip-path="url(#clip420)" d="M1755.98 158.458 L1760.87 158.458 L1760.87 162.439 L1757.07 169.847 L1754.09 169.847 L1755.98 162.439 L1755.98 158.458 Z" fill="#000000" fill-rule="evenodd" fill-opacity="1" /><path clip-path="url(#clip420)" d="M1785.22 129.778 L1792.19 129.778 L1801.01 153.296 L1809.87 129.778 L1816.84 129.778 L1816.84 164.338 L1812.28 164.338 L1812.28 133.99 L1803.37 157.694 L1798.67 157.694 L1789.76 133.99 L1789.76 164.338 L1785.22 164.338 L1785.22 129.778 Z" fill="#000000" fill-rule="evenodd" fill-opacity="1" /><path clip-path="url(#clip420)" d="M1848.11 150.31 L1848.11 152.393 L1828.53 152.393 Q1828.81 156.791 1831.17 159.106 Q1833.55 161.398 1837.79 161.398 Q1840.24 161.398 1842.53 160.796 Q1844.85 160.194 1847.12 158.99 L1847.12 163.018 Q1844.83 163.99 1842.42 164.5 Q1840.01 165.009 1837.53 165.009 Q1831.33 165.009 1827.7 161.398 Q1824.09 157.787 1824.09 151.629 Q1824.09 145.264 1827.51 141.537 Q1830.96 137.787 1836.79 137.787 Q1842.03 137.787 1845.06 141.166 Q1848.11 144.523 1848.11 150.31 M1843.85 149.06 Q1843.81 145.565 1841.89 143.481 Q1839.99 141.398 1836.84 141.398 Q1833.28 141.398 1831.12 143.412 Q1828.99 145.426 1828.67 149.083 L1843.85 149.06 Z" fill="#000000" fill-rule="evenodd" fill-opacity="1" /><path clip-path="url(#clip420)" d="M1866.89 151.305 Q1861.72 151.305 1859.73 152.486 Q1857.74 153.666 1857.74 156.514 Q1857.74 158.782 1859.22 160.125 Q1860.73 161.444 1863.3 161.444 Q1866.84 161.444 1868.97 158.944 Q1871.12 156.421 1871.12 152.254 L1871.12 151.305 L1866.89 151.305 M1875.38 149.546 L1875.38 164.338 L1871.12 164.338 L1871.12 160.402 Q1869.66 162.763 1867.49 163.898 Q1865.31 165.009 1862.16 165.009 Q1858.18 165.009 1855.82 162.787 Q1853.48 160.541 1853.48 156.791 Q1853.48 152.416 1856.4 150.194 Q1859.34 147.972 1865.15 147.972 L1871.12 147.972 L1871.12 147.555 Q1871.12 144.615 1869.18 143.018 Q1867.26 141.398 1863.76 141.398 Q1861.54 141.398 1859.43 141.93 Q1857.33 142.463 1855.38 143.527 L1855.38 139.592 Q1857.72 138.69 1859.92 138.25 Q1862.12 137.787 1864.2 137.787 Q1869.83 137.787 1872.6 140.703 Q1875.38 143.62 1875.38 149.546 Z" fill="#000000" fill-rule="evenodd" fill-opacity="1" /><path clip-path="url(#clip420)" d="M1905.71 148.689 L1905.71 164.338 L1901.45 164.338 L1901.45 148.828 Q1901.45 145.148 1900.01 143.319 Q1898.58 141.49 1895.71 141.49 Q1892.26 141.49 1890.27 143.69 Q1888.28 145.889 1888.28 149.685 L1888.28 164.338 L1883.99 164.338 L1883.99 138.412 L1888.28 138.412 L1888.28 142.44 Q1889.8 140.102 1891.86 138.944 Q1893.95 137.787 1896.65 137.787 Q1901.12 137.787 1903.41 140.565 Q1905.71 143.319 1905.71 148.689 Z" fill="#000000" fill-rule="evenodd" fill-opacity="1" /><polyline clip-path="url(#clip420)" style="stroke:#e26f46; stroke-linecap:round; stroke-linejoin:round; stroke-width:4; stroke-opacity:1; fill:none" points="1476.35,198.898 1620.78,198.898 "/>
<path clip-path="url(#clip420)" d="M1644.85 181.618 L1666.7 181.618 L1666.7 185.553 L1649.53 185.553 L1649.53 195.784 L1665.98 195.784 L1665.98 199.719 L1649.53 199.719 L1649.53 212.242 L1667.12 212.242 L1667.12 216.178 L1644.85 216.178 L1644.85 181.618 Z" fill="#000000" fill-rule="evenodd" fill-opacity="1" /><path clip-path="url(#clip420)" d="M1696.17 190.252 L1686.79 202.867 L1696.66 216.178 L1691.63 216.178 L1684.09 205.992 L1676.54 216.178 L1671.52 216.178 L1681.59 202.613 L1672.37 190.252 L1677.4 190.252 L1684.27 199.488 L1691.15 190.252 L1696.17 190.252 Z" fill="#000000" fill-rule="evenodd" fill-opacity="1" /><path clip-path="url(#clip420)" d="M1714.46 203.145 Q1709.29 203.145 1707.3 204.326 Q1705.31 205.506 1705.31 208.354 Q1705.31 210.622 1706.79 211.965 Q1708.3 213.284 1710.87 213.284 Q1714.41 213.284 1716.54 210.784 Q1718.69 208.261 1718.69 204.094 L1718.69 203.145 L1714.46 203.145 M1722.95 201.386 L1722.95 216.178 L1718.69 216.178 L1718.69 212.242 Q1717.23 214.603 1715.06 215.738 Q1712.88 216.849 1709.73 216.849 Q1705.75 216.849 1703.39 214.627 Q1701.05 212.381 1701.05 208.631 Q1701.05 204.256 1703.97 202.034 Q1706.91 199.812 1712.72 199.812 L1718.69 199.812 L1718.69 199.395 Q1718.69 196.455 1716.75 194.858 Q1714.83 193.238 1711.33 193.238 Q1709.11 193.238 1707 193.77 Q1704.9 194.303 1702.95 195.367 L1702.95 191.432 Q1705.29 190.53 1707.49 190.09 Q1709.69 189.627 1711.77 189.627 Q1717.4 189.627 1720.17 192.543 Q1722.95 195.46 1722.95 201.386 Z" fill="#000000" fill-rule="evenodd" fill-opacity="1" /><path clip-path="url(#clip420)" d="M1750.38 191.247 L1750.38 195.229 Q1748.58 194.233 1746.75 193.747 Q1744.94 193.238 1743.09 193.238 Q1738.95 193.238 1736.66 195.877 Q1734.36 198.492 1734.36 203.238 Q1734.36 207.983 1736.66 210.622 Q1738.95 213.238 1743.09 213.238 Q1744.94 213.238 1746.75 212.752 Q1748.58 212.242 1750.38 211.247 L1750.38 215.182 Q1748.6 216.016 1746.68 216.432 Q1744.78 216.849 1742.63 216.849 Q1736.77 216.849 1733.32 213.168 Q1729.87 209.488 1729.87 203.238 Q1729.87 196.895 1733.35 193.261 Q1736.84 189.627 1742.91 189.627 Q1744.87 189.627 1746.75 190.043 Q1748.62 190.437 1750.38 191.247 Z" fill="#000000" fill-rule="evenodd" fill-opacity="1" /><path clip-path="url(#clip420)" d="M1762 182.891 L1762 190.252 L1770.78 190.252 L1770.78 193.562 L1762 193.562 L1762 207.636 Q1762 210.807 1762.86 211.71 Q1763.74 212.613 1766.4 212.613 L1770.78 212.613 L1770.78 216.178 L1766.4 216.178 Q1761.47 216.178 1759.6 214.349 Q1757.72 212.497 1757.72 207.636 L1757.72 193.562 L1754.6 193.562 L1754.6 190.252 L1757.72 190.252 L1757.72 182.891 L1762 182.891 Z" fill="#000000" fill-rule="evenodd" fill-opacity="1" /><polyline clip-path="url(#clip420)" style="stroke:#3da44d; stroke-linecap:round; stroke-linejoin:round; stroke-width:4; stroke-opacity:1; fill:none" points="1476.35,250.738 1620.78,250.738 "/>
<path clip-path="url(#clip420)" d="M1644.85 233.458 L1649.53 233.458 L1649.53 264.082 L1666.36 264.082 L1666.36 268.018 L1644.85 268.018 L1644.85 233.458 Z" fill="#000000" fill-rule="evenodd" fill-opacity="1" /><path clip-path="url(#clip420)" d="M1680.29 245.078 Q1676.86 245.078 1674.87 247.763 Q1672.88 250.425 1672.88 255.078 Q1672.88 259.731 1674.85 262.416 Q1676.84 265.078 1680.29 265.078 Q1683.69 265.078 1685.68 262.393 Q1687.67 259.707 1687.67 255.078 Q1687.67 250.471 1685.68 247.786 Q1683.69 245.078 1680.29 245.078 M1680.29 241.467 Q1685.85 241.467 1689.02 245.078 Q1692.19 248.689 1692.19 255.078 Q1692.19 261.444 1689.02 265.078 Q1685.85 268.689 1680.29 268.689 Q1674.71 268.689 1671.54 265.078 Q1668.39 261.444 1668.39 255.078 Q1668.39 248.689 1671.54 245.078 Q1674.71 241.467 1680.29 241.467 Z" fill="#000000" fill-rule="evenodd" fill-opacity="1" /><path clip-path="url(#clip420)" d="M1720.8 252.369 L1720.8 268.018 L1716.54 268.018 L1716.54 252.508 Q1716.54 248.828 1715.1 246.999 Q1713.67 245.17 1710.8 245.17 Q1707.35 245.17 1705.36 247.37 Q1703.37 249.569 1703.37 253.365 L1703.37 268.018 L1699.09 268.018 L1699.09 242.092 L1703.37 242.092 L1703.37 246.12 Q1704.9 243.782 1706.96 242.624 Q1709.04 241.467 1711.75 241.467 Q1716.22 241.467 1718.51 244.245 Q1720.8 246.999 1720.8 252.369 Z" fill="#000000" fill-rule="evenodd" fill-opacity="1" /><path clip-path="url(#clip420)" d="M1746.35 254.754 Q1746.35 250.124 1744.43 247.578 Q1742.54 245.032 1739.09 245.032 Q1735.66 245.032 1733.74 247.578 Q1731.84 250.124 1731.84 254.754 Q1731.84 259.36 1733.74 261.906 Q1735.66 264.453 1739.09 264.453 Q1742.54 264.453 1744.43 261.906 Q1746.35 259.36 1746.35 254.754 M1750.61 264.8 Q1750.61 271.42 1747.67 274.638 Q1744.73 277.879 1738.67 277.879 Q1736.42 277.879 1734.43 277.531 Q1732.44 277.207 1730.57 276.513 L1730.57 272.369 Q1732.44 273.388 1734.27 273.874 Q1736.1 274.36 1738 274.36 Q1742.19 274.36 1744.27 272.161 Q1746.35 269.985 1746.35 265.564 L1746.35 263.457 Q1745.04 265.749 1742.98 266.883 Q1740.92 268.018 1738.04 268.018 Q1733.28 268.018 1730.36 264.383 Q1727.44 260.749 1727.44 254.754 Q1727.44 248.735 1730.36 245.101 Q1733.28 241.467 1738.04 241.467 Q1740.92 241.467 1742.98 242.601 Q1745.04 243.735 1746.35 246.027 L1746.35 242.092 L1750.61 242.092 L1750.61 264.8 Z" fill="#000000" fill-rule="evenodd" fill-opacity="1" /><path clip-path="url(#clip420)" d="M1769.85 233.458 L1799.09 233.458 L1799.09 237.393 L1786.82 237.393 L1786.82 268.018 L1782.12 268.018 L1782.12 237.393 L1769.85 237.393 L1769.85 233.458 Z" fill="#000000" fill-rule="evenodd" fill-opacity="1" /><path clip-path="url(#clip420)" d="M1801.96 242.092 L1806.22 242.092 L1806.22 268.018 L1801.96 268.018 L1801.96 242.092 M1801.96 231.999 L1806.22 231.999 L1806.22 237.393 L1801.96 237.393 L1801.96 231.999 Z" fill="#000000" fill-rule="evenodd" fill-opacity="1" /><path clip-path="url(#clip420)" d="M1835.31 247.069 Q1836.91 244.198 1839.13 242.833 Q1841.35 241.467 1844.36 241.467 Q1848.41 241.467 1850.61 244.314 Q1852.81 247.138 1852.81 252.369 L1852.81 268.018 L1848.53 268.018 L1848.53 252.508 Q1848.53 248.782 1847.21 246.976 Q1845.89 245.17 1843.18 245.17 Q1839.87 245.17 1837.95 247.37 Q1836.03 249.569 1836.03 253.365 L1836.03 268.018 L1831.75 268.018 L1831.75 252.508 Q1831.75 248.758 1830.43 246.976 Q1829.11 245.17 1826.35 245.17 Q1823.09 245.17 1821.17 247.393 Q1819.25 249.592 1819.25 253.365 L1819.25 268.018 L1814.97 268.018 L1814.97 242.092 L1819.25 242.092 L1819.25 246.12 Q1820.71 243.735 1822.74 242.601 Q1824.78 241.467 1827.58 241.467 Q1830.41 241.467 1832.37 242.902 Q1834.36 244.337 1835.31 247.069 Z" fill="#000000" fill-rule="evenodd" fill-opacity="1" /><path clip-path="url(#clip420)" d="M1883.48 253.99 L1883.48 256.073 L1863.9 256.073 Q1864.18 260.471 1866.54 262.786 Q1868.92 265.078 1873.16 265.078 Q1875.61 265.078 1877.91 264.476 Q1880.22 263.874 1882.49 262.67 L1882.49 266.698 Q1880.2 267.67 1877.79 268.18 Q1875.38 268.689 1872.91 268.689 Q1866.7 268.689 1863.07 265.078 Q1859.46 261.467 1859.46 255.309 Q1859.46 248.944 1862.88 245.217 Q1866.33 241.467 1872.16 241.467 Q1877.4 241.467 1880.43 244.846 Q1883.48 248.203 1883.48 253.99 M1879.22 252.74 Q1879.18 249.245 1877.26 247.161 Q1875.36 245.078 1872.21 245.078 Q1868.65 245.078 1866.49 247.092 Q1864.36 249.106 1864.04 252.763 L1879.22 252.74 Z" fill="#000000" fill-rule="evenodd" fill-opacity="1" /><path clip-path="url(#clip420)" d="M1917.28 238.064 L1910.94 255.263 L1923.65 255.263 L1917.28 238.064 M1914.64 233.458 L1919.94 233.458 L1933.11 268.018 L1928.25 268.018 L1925.1 259.152 L1909.53 259.152 L1906.38 268.018 L1901.45 268.018 L1914.64 233.458 Z" fill="#000000" fill-rule="evenodd" fill-opacity="1" /><path clip-path="url(#clip420)" d="M1932.14 242.092 L1936.65 242.092 L1944.76 263.851 L1952.86 242.092 L1957.37 242.092 L1947.65 268.018 L1941.86 268.018 L1932.14 242.092 Z" fill="#000000" fill-rule="evenodd" fill-opacity="1" /><path clip-path="url(#clip420)" d="M1985.43 253.99 L1985.43 256.073 L1965.84 256.073 Q1966.12 260.471 1968.48 262.786 Q1970.87 265.078 1975.1 265.078 Q1977.56 265.078 1979.85 264.476 Q1982.16 263.874 1984.43 262.67 L1984.43 266.698 Q1982.14 267.67 1979.73 268.18 Q1977.33 268.689 1974.85 268.689 Q1968.65 268.689 1965.01 265.078 Q1961.4 261.467 1961.4 255.309 Q1961.4 248.944 1964.83 245.217 Q1968.27 241.467 1974.11 241.467 Q1979.34 241.467 1982.37 244.846 Q1985.43 248.203 1985.43 253.99 M1981.17 252.74 Q1981.12 249.245 1979.2 247.161 Q1977.3 245.078 1974.15 245.078 Q1970.59 245.078 1968.44 247.092 Q1966.31 249.106 1965.98 252.763 L1981.17 252.74 Z" fill="#000000" fill-rule="evenodd" fill-opacity="1" /><path clip-path="url(#clip420)" d="M2007.44 246.073 Q2006.72 245.657 2005.87 245.471 Q2005.03 245.263 2004.02 245.263 Q2000.4 245.263 1998.46 247.624 Q1996.54 249.962 1996.54 254.36 L1996.54 268.018 L1992.26 268.018 L1992.26 242.092 L1996.54 242.092 L1996.54 246.12 Q1997.88 243.758 2000.03 242.624 Q2002.19 241.467 2005.27 241.467 Q2005.71 241.467 2006.24 241.536 Q2006.77 241.583 2007.42 241.698 L2007.44 246.073 Z" fill="#000000" fill-rule="evenodd" fill-opacity="1" /><path clip-path="url(#clip420)" d="M2023.69 254.985 Q2018.53 254.985 2016.54 256.166 Q2014.55 257.346 2014.55 260.194 Q2014.55 262.462 2016.03 263.805 Q2017.53 265.124 2020.1 265.124 Q2023.64 265.124 2025.77 262.624 Q2027.93 260.101 2027.93 255.934 L2027.93 254.985 L2023.69 254.985 M2032.19 253.226 L2032.19 268.018 L2027.93 268.018 L2027.93 264.082 Q2026.47 266.443 2024.29 267.578 Q2022.12 268.689 2018.97 268.689 Q2014.99 268.689 2012.63 266.467 Q2010.29 264.221 2010.29 260.471 Q2010.29 256.096 2013.21 253.874 Q2016.15 251.652 2021.96 251.652 L2027.93 251.652 L2027.93 251.235 Q2027.93 248.295 2025.98 246.698 Q2024.06 245.078 2020.57 245.078 Q2018.34 245.078 2016.24 245.61 Q2014.13 246.143 2012.19 247.207 L2012.19 243.272 Q2014.52 242.37 2016.72 241.93 Q2018.92 241.467 2021.01 241.467 Q2026.63 241.467 2029.41 244.383 Q2032.19 247.3 2032.19 253.226 Z" fill="#000000" fill-rule="evenodd" fill-opacity="1" /><path clip-path="url(#clip420)" d="M2058.02 254.754 Q2058.02 250.124 2056.1 247.578 Q2054.2 245.032 2050.75 245.032 Q2047.33 245.032 2045.4 247.578 Q2043.51 250.124 2043.51 254.754 Q2043.51 259.36 2045.4 261.906 Q2047.33 264.453 2050.75 264.453 Q2054.2 264.453 2056.1 261.906 Q2058.02 259.36 2058.02 254.754 M2062.28 264.8 Q2062.28 271.42 2059.34 274.638 Q2056.4 277.879 2050.33 277.879 Q2048.09 277.879 2046.1 277.531 Q2044.11 277.207 2042.23 276.513 L2042.23 272.369 Q2044.11 273.388 2045.94 273.874 Q2047.77 274.36 2049.66 274.36 Q2053.85 274.36 2055.94 272.161 Q2058.02 269.985 2058.02 265.564 L2058.02 263.457 Q2056.7 265.749 2054.64 266.883 Q2052.58 268.018 2049.71 268.018 Q2044.94 268.018 2042.02 264.383 Q2039.11 260.749 2039.11 254.754 Q2039.11 248.735 2042.02 245.101 Q2044.94 241.467 2049.71 241.467 Q2052.58 241.467 2054.64 242.601 Q2056.7 243.735 2058.02 246.027 L2058.02 242.092 L2062.28 242.092 L2062.28 264.8 Z" fill="#000000" fill-rule="evenodd" fill-opacity="1" /><path clip-path="url(#clip420)" d="M2093.23 253.99 L2093.23 256.073 L2073.64 256.073 Q2073.92 260.471 2076.28 262.786 Q2078.67 265.078 2082.9 265.078 Q2085.36 265.078 2087.65 264.476 Q2089.96 263.874 2092.23 262.67 L2092.23 266.698 Q2089.94 267.67 2087.53 268.18 Q2085.13 268.689 2082.65 268.689 Q2076.45 268.689 2072.81 265.078 Q2069.2 261.467 2069.2 255.309 Q2069.2 248.944 2072.63 245.217 Q2076.08 241.467 2081.91 241.467 Q2087.14 241.467 2090.17 244.846 Q2093.23 248.203 2093.23 253.99 M2088.97 252.74 Q2088.92 249.245 2087 247.161 Q2085.1 245.078 2081.95 245.078 Q2078.39 245.078 2076.24 247.092 Q2074.11 249.106 2073.78 252.763 L2088.97 252.74 Z" fill="#000000" fill-rule="evenodd" fill-opacity="1" /><path clip-path="url(#clip420)" d="M2101.31 262.138 L2106.19 262.138 L2106.19 266.119 L2102.39 273.527 L2099.41 273.527 L2101.31 266.119 L2101.31 262.138 Z" fill="#000000" fill-rule="evenodd" fill-opacity="1" /><path clip-path="url(#clip420)" d="M2130.54 233.458 L2152.39 233.458 L2152.39 237.393 L2135.22 237.393 L2135.22 247.624 L2151.68 247.624 L2151.68 251.559 L2135.22 251.559 L2135.22 264.082 L2152.81 264.082 L2152.81 268.018 L2130.54 268.018 L2130.54 233.458 Z" fill="#000000" fill-rule="evenodd" fill-opacity="1" /><path clip-path="url(#clip420)" d="M2181.86 242.092 L2172.49 254.707 L2182.35 268.018 L2177.32 268.018 L2169.78 257.832 L2162.23 268.018 L2157.21 268.018 L2167.28 254.453 L2158.07 242.092 L2163.09 242.092 L2169.96 251.328 L2176.84 242.092 L2181.86 242.092 Z" fill="#000000" fill-rule="evenodd" fill-opacity="1" /><path clip-path="url(#clip420)" d="M2200.15 254.985 Q2194.99 254.985 2193 256.166 Q2191.01 257.346 2191.01 260.194 Q2191.01 262.462 2192.49 263.805 Q2193.99 265.124 2196.56 265.124 Q2200.1 265.124 2202.23 262.624 Q2204.38 260.101 2204.38 255.934 L2204.38 254.985 L2200.15 254.985 M2208.64 253.226 L2208.64 268.018 L2204.38 268.018 L2204.38 264.082 Q2202.93 266.443 2200.75 267.578 Q2198.57 268.689 2195.43 268.689 Q2191.45 268.689 2189.08 266.467 Q2186.75 264.221 2186.75 260.471 Q2186.75 256.096 2189.66 253.874 Q2192.6 251.652 2198.41 251.652 L2204.38 251.652 L2204.38 251.235 Q2204.38 248.295 2202.44 246.698 Q2200.52 245.078 2197.02 245.078 Q2194.8 245.078 2192.7 245.61 Q2190.59 246.143 2188.64 247.207 L2188.64 243.272 Q2190.98 242.37 2193.18 241.93 Q2195.38 241.467 2197.46 241.467 Q2203.09 241.467 2205.87 244.383 Q2208.64 247.3 2208.64 253.226 Z" fill="#000000" fill-rule="evenodd" fill-opacity="1" /><path clip-path="url(#clip420)" d="M2236.07 243.087 L2236.07 247.069 Q2234.27 246.073 2232.44 245.587 Q2230.63 245.078 2228.78 245.078 Q2224.64 245.078 2222.35 247.717 Q2220.06 250.332 2220.06 255.078 Q2220.06 259.823 2222.35 262.462 Q2224.64 265.078 2228.78 265.078 Q2230.63 265.078 2232.44 264.592 Q2234.27 264.082 2236.07 263.087 L2236.07 267.022 Q2234.29 267.856 2232.37 268.272 Q2230.47 268.689 2228.32 268.689 Q2222.46 268.689 2219.01 265.008 Q2215.57 261.328 2215.57 255.078 Q2215.57 248.735 2219.04 245.101 Q2222.53 241.467 2228.6 241.467 Q2230.57 241.467 2232.44 241.883 Q2234.32 242.277 2236.07 243.087 Z" fill="#000000" fill-rule="evenodd" fill-opacity="1" /><path clip-path="url(#clip420)" d="M2247.69 234.731 L2247.69 242.092 L2256.47 242.092 L2256.47 245.402 L2247.69 245.402 L2247.69 259.476 Q2247.69 262.647 2248.55 263.55 Q2249.43 264.453 2252.09 264.453 L2256.47 264.453 L2256.47 268.018 L2252.09 268.018 Q2247.16 268.018 2245.29 266.189 Q2243.41 264.337 2243.41 259.476 L2243.41 245.402 L2240.29 245.402 L2240.29 242.092 L2243.41 242.092 L2243.41 234.731 L2247.69 234.731 Z" fill="#000000" fill-rule="evenodd" fill-opacity="1" /><polyline clip-path="url(#clip420)" style="stroke:#c271d2; stroke-linecap:round; stroke-linejoin:round; stroke-width:4; stroke-opacity:1; fill:none" points="1476.35,302.578 1620.78,302.578 "/>
<path clip-path="url(#clip420)" d="M1644.85 285.298 L1649.53 285.298 L1649.53 315.922 L1666.36 315.922 L1666.36 319.858 L1644.85 319.858 L1644.85 285.298 Z" fill="#000000" fill-rule="evenodd" fill-opacity="1" /><path clip-path="url(#clip420)" d="M1680.29 296.918 Q1676.86 296.918 1674.87 299.603 Q1672.88 302.265 1672.88 306.918 Q1672.88 311.571 1674.85 314.256 Q1676.84 316.918 1680.29 316.918 Q1683.69 316.918 1685.68 314.233 Q1687.67 311.547 1687.67 306.918 Q1687.67 302.311 1685.68 299.626 Q1683.69 296.918 1680.29 296.918 M1680.29 293.307 Q1685.85 293.307 1689.02 296.918 Q1692.19 300.529 1692.19 306.918 Q1692.19 313.284 1689.02 316.918 Q1685.85 320.529 1680.29 320.529 Q1674.71 320.529 1671.54 316.918 Q1668.39 313.284 1668.39 306.918 Q1668.39 300.529 1671.54 296.918 Q1674.71 293.307 1680.29 293.307 Z" fill="#000000" fill-rule="evenodd" fill-opacity="1" /><path clip-path="url(#clip420)" d="M1720.8 304.209 L1720.8 319.858 L1716.54 319.858 L1716.54 304.348 Q1716.54 300.668 1715.1 298.839 Q1713.67 297.01 1710.8 297.01 Q1707.35 297.01 1705.36 299.21 Q1703.37 301.409 1703.37 305.205 L1703.37 319.858 L1699.09 319.858 L1699.09 293.932 L1703.37 293.932 L1703.37 297.96 Q1704.9 295.622 1706.96 294.464 Q1709.04 293.307 1711.75 293.307 Q1716.22 293.307 1718.51 296.085 Q1720.8 298.839 1720.8 304.209 Z" fill="#000000" fill-rule="evenodd" fill-opacity="1" /><path clip-path="url(#clip420)" d="M1746.35 306.594 Q1746.35 301.964 1744.43 299.418 Q1742.54 296.872 1739.09 296.872 Q1735.66 296.872 1733.74 299.418 Q1731.84 301.964 1731.84 306.594 Q1731.84 311.2 1733.74 313.746 Q1735.66 316.293 1739.09 316.293 Q1742.54 316.293 1744.43 313.746 Q1746.35 311.2 1746.35 306.594 M1750.61 316.64 Q1750.61 323.26 1747.67 326.478 Q1744.73 329.719 1738.67 329.719 Q1736.42 329.719 1734.43 329.371 Q1732.44 329.047 1730.57 328.353 L1730.57 324.209 Q1732.44 325.228 1734.27 325.714 Q1736.1 326.2 1738 326.2 Q1742.19 326.2 1744.27 324.001 Q1746.35 321.825 1746.35 317.404 L1746.35 315.297 Q1745.04 317.589 1742.98 318.723 Q1740.92 319.858 1738.04 319.858 Q1733.28 319.858 1730.36 316.223 Q1727.44 312.589 1727.44 306.594 Q1727.44 300.575 1730.36 296.941 Q1733.28 293.307 1738.04 293.307 Q1740.92 293.307 1742.98 294.441 Q1745.04 295.575 1746.35 297.867 L1746.35 293.932 L1750.61 293.932 L1750.61 316.64 Z" fill="#000000" fill-rule="evenodd" fill-opacity="1" /><path clip-path="url(#clip420)" d="M1769.85 285.298 L1799.09 285.298 L1799.09 289.233 L1786.82 289.233 L1786.82 319.858 L1782.12 319.858 L1782.12 289.233 L1769.85 289.233 L1769.85 285.298 Z" fill="#000000" fill-rule="evenodd" fill-opacity="1" /><path clip-path="url(#clip420)" d="M1801.96 293.932 L1806.22 293.932 L1806.22 319.858 L1801.96 319.858 L1801.96 293.932 M1801.96 283.839 L1806.22 283.839 L1806.22 289.233 L1801.96 289.233 L1801.96 283.839 Z" fill="#000000" fill-rule="evenodd" fill-opacity="1" /><path clip-path="url(#clip420)" d="M1835.31 298.909 Q1836.91 296.038 1839.13 294.673 Q1841.35 293.307 1844.36 293.307 Q1848.41 293.307 1850.61 296.154 Q1852.81 298.978 1852.81 304.209 L1852.81 319.858 L1848.53 319.858 L1848.53 304.348 Q1848.53 300.622 1847.21 298.816 Q1845.89 297.01 1843.18 297.01 Q1839.87 297.01 1837.95 299.21 Q1836.03 301.409 1836.03 305.205 L1836.03 319.858 L1831.75 319.858 L1831.75 304.348 Q1831.75 300.598 1830.43 298.816 Q1829.11 297.01 1826.35 297.01 Q1823.09 297.01 1821.17 299.233 Q1819.25 301.432 1819.25 305.205 L1819.25 319.858 L1814.97 319.858 L1814.97 293.932 L1819.25 293.932 L1819.25 297.96 Q1820.71 295.575 1822.74 294.441 Q1824.78 293.307 1827.58 293.307 Q1830.41 293.307 1832.37 294.742 Q1834.36 296.177 1835.31 298.909 Z" fill="#000000" fill-rule="evenodd" fill-opacity="1" /><path clip-path="url(#clip420)" d="M1883.48 305.83 L1883.48 307.913 L1863.9 307.913 Q1864.18 312.311 1866.54 314.626 Q1868.92 316.918 1873.16 316.918 Q1875.61 316.918 1877.91 316.316 Q1880.22 315.714 1882.49 314.51 L1882.49 318.538 Q1880.2 319.51 1877.79 320.02 Q1875.38 320.529 1872.91 320.529 Q1866.7 320.529 1863.07 316.918 Q1859.46 313.307 1859.46 307.149 Q1859.46 300.784 1862.88 297.057 Q1866.33 293.307 1872.16 293.307 Q1877.4 293.307 1880.43 296.686 Q1883.48 300.043 1883.48 305.83 M1879.22 304.58 Q1879.18 301.085 1877.26 299.001 Q1875.36 296.918 1872.21 296.918 Q1868.65 296.918 1866.49 298.932 Q1864.36 300.946 1864.04 304.603 L1879.22 304.58 Z" fill="#000000" fill-rule="evenodd" fill-opacity="1" /><path clip-path="url(#clip420)" d="M1917.28 289.904 L1910.94 307.103 L1923.65 307.103 L1917.28 289.904 M1914.64 285.298 L1919.94 285.298 L1933.11 319.858 L1928.25 319.858 L1925.1 310.992 L1909.53 310.992 L1906.38 319.858 L1901.45 319.858 L1914.64 285.298 Z" fill="#000000" fill-rule="evenodd" fill-opacity="1" /><path clip-path="url(#clip420)" d="M1932.14 293.932 L1936.65 293.932 L1944.76 315.691 L1952.86 293.932 L1957.37 293.932 L1947.65 319.858 L1941.86 319.858 L1932.14 293.932 Z" fill="#000000" fill-rule="evenodd" fill-opacity="1" /><path clip-path="url(#clip420)" d="M1985.43 305.83 L1985.43 307.913 L1965.84 307.913 Q1966.12 312.311 1968.48 314.626 Q1970.87 316.918 1975.1 316.918 Q1977.56 316.918 1979.85 316.316 Q1982.16 315.714 1984.43 314.51 L1984.43 318.538 Q1982.14 319.51 1979.73 320.02 Q1977.33 320.529 1974.85 320.529 Q1968.65 320.529 1965.01 316.918 Q1961.4 313.307 1961.4 307.149 Q1961.4 300.784 1964.83 297.057 Q1968.27 293.307 1974.11 293.307 Q1979.34 293.307 1982.37 296.686 Q1985.43 300.043 1985.43 305.83 M1981.17 304.58 Q1981.12 301.085 1979.2 299.001 Q1977.3 296.918 1974.15 296.918 Q1970.59 296.918 1968.44 298.932 Q1966.31 300.946 1965.98 304.603 L1981.17 304.58 Z" fill="#000000" fill-rule="evenodd" fill-opacity="1" /><path clip-path="url(#clip420)" d="M2007.44 297.913 Q2006.72 297.497 2005.87 297.311 Q2005.03 297.103 2004.02 297.103 Q2000.4 297.103 1998.46 299.464 Q1996.54 301.802 1996.54 306.2 L1996.54 319.858 L1992.26 319.858 L1992.26 293.932 L1996.54 293.932 L1996.54 297.96 Q1997.88 295.598 2000.03 294.464 Q2002.19 293.307 2005.27 293.307 Q2005.71 293.307 2006.24 293.376 Q2006.77 293.423 2007.42 293.538 L2007.44 297.913 Z" fill="#000000" fill-rule="evenodd" fill-opacity="1" /><path clip-path="url(#clip420)" d="M2023.69 306.825 Q2018.53 306.825 2016.54 308.006 Q2014.55 309.186 2014.55 312.034 Q2014.55 314.302 2016.03 315.645 Q2017.53 316.964 2020.1 316.964 Q2023.64 316.964 2025.77 314.464 Q2027.93 311.941 2027.93 307.774 L2027.93 306.825 L2023.69 306.825 M2032.19 305.066 L2032.19 319.858 L2027.93 319.858 L2027.93 315.922 Q2026.47 318.283 2024.29 319.418 Q2022.12 320.529 2018.97 320.529 Q2014.99 320.529 2012.63 318.307 Q2010.29 316.061 2010.29 312.311 Q2010.29 307.936 2013.21 305.714 Q2016.15 303.492 2021.96 303.492 L2027.93 303.492 L2027.93 303.075 Q2027.93 300.135 2025.98 298.538 Q2024.06 296.918 2020.57 296.918 Q2018.34 296.918 2016.24 297.45 Q2014.13 297.983 2012.19 299.047 L2012.19 295.112 Q2014.52 294.21 2016.72 293.77 Q2018.92 293.307 2021.01 293.307 Q2026.63 293.307 2029.41 296.223 Q2032.19 299.14 2032.19 305.066 Z" fill="#000000" fill-rule="evenodd" fill-opacity="1" /><path clip-path="url(#clip420)" d="M2058.02 306.594 Q2058.02 301.964 2056.1 299.418 Q2054.2 296.872 2050.75 296.872 Q2047.33 296.872 2045.4 299.418 Q2043.51 301.964 2043.51 306.594 Q2043.51 311.2 2045.4 313.746 Q2047.33 316.293 2050.75 316.293 Q2054.2 316.293 2056.1 313.746 Q2058.02 311.2 2058.02 306.594 M2062.28 316.64 Q2062.28 323.26 2059.34 326.478 Q2056.4 329.719 2050.33 329.719 Q2048.09 329.719 2046.1 329.371 Q2044.11 329.047 2042.23 328.353 L2042.23 324.209 Q2044.11 325.228 2045.94 325.714 Q2047.77 326.2 2049.66 326.2 Q2053.85 326.2 2055.94 324.001 Q2058.02 321.825 2058.02 317.404 L2058.02 315.297 Q2056.7 317.589 2054.64 318.723 Q2052.58 319.858 2049.71 319.858 Q2044.94 319.858 2042.02 316.223 Q2039.11 312.589 2039.11 306.594 Q2039.11 300.575 2042.02 296.941 Q2044.94 293.307 2049.71 293.307 Q2052.58 293.307 2054.64 294.441 Q2056.7 295.575 2058.02 297.867 L2058.02 293.932 L2062.28 293.932 L2062.28 316.64 Z" fill="#000000" fill-rule="evenodd" fill-opacity="1" /><path clip-path="url(#clip420)" d="M2093.23 305.83 L2093.23 307.913 L2073.64 307.913 Q2073.92 312.311 2076.28 314.626 Q2078.67 316.918 2082.9 316.918 Q2085.36 316.918 2087.65 316.316 Q2089.96 315.714 2092.23 314.51 L2092.23 318.538 Q2089.94 319.51 2087.53 320.02 Q2085.13 320.529 2082.65 320.529 Q2076.45 320.529 2072.81 316.918 Q2069.2 313.307 2069.2 307.149 Q2069.2 300.784 2072.63 297.057 Q2076.08 293.307 2081.91 293.307 Q2087.14 293.307 2090.17 296.686 Q2093.23 300.043 2093.23 305.83 M2088.97 304.58 Q2088.92 301.085 2087 299.001 Q2085.1 296.918 2081.95 296.918 Q2078.39 296.918 2076.24 298.932 Q2074.11 300.946 2073.78 304.603 L2088.97 304.58 Z" fill="#000000" fill-rule="evenodd" fill-opacity="1" /><path clip-path="url(#clip420)" d="M2101.31 313.978 L2106.19 313.978 L2106.19 317.959 L2102.39 325.367 L2099.41 325.367 L2101.31 317.959 L2101.31 313.978 Z" fill="#000000" fill-rule="evenodd" fill-opacity="1" /><path clip-path="url(#clip420)" d="M2135.22 303.353 L2135.22 316.015 L2142.72 316.015 Q2146.49 316.015 2148.3 314.464 Q2150.13 312.89 2150.13 309.672 Q2150.13 306.432 2148.3 304.904 Q2146.49 303.353 2142.72 303.353 L2135.22 303.353 M2135.22 289.14 L2135.22 299.557 L2142.14 299.557 Q2145.57 299.557 2147.23 298.284 Q2148.92 296.987 2148.92 294.348 Q2148.92 291.733 2147.23 290.436 Q2145.57 289.14 2142.14 289.14 L2135.22 289.14 M2130.54 285.298 L2142.49 285.298 Q2147.83 285.298 2150.73 287.52 Q2153.62 289.742 2153.62 293.839 Q2153.62 297.01 2152.14 298.885 Q2150.66 300.76 2147.79 301.223 Q2151.24 301.964 2153.14 304.325 Q2155.06 306.663 2155.06 310.182 Q2155.06 314.811 2151.91 317.334 Q2148.76 319.858 2142.95 319.858 L2130.54 319.858 L2130.54 285.298 Z" fill="#000000" fill-rule="evenodd" fill-opacity="1" /><path clip-path="url(#clip420)" d="M2172.93 296.918 Q2169.5 296.918 2167.51 299.603 Q2165.52 302.265 2165.52 306.918 Q2165.52 311.571 2167.49 314.256 Q2169.48 316.918 2172.93 316.918 Q2176.33 316.918 2178.32 314.233 Q2180.31 311.547 2180.31 306.918 Q2180.31 302.311 2178.32 299.626 Q2176.33 296.918 2172.93 296.918 M2172.93 293.307 Q2178.48 293.307 2181.65 296.918 Q2184.82 300.529 2184.82 306.918 Q2184.82 313.284 2181.65 316.918 Q2178.48 320.529 2172.93 320.529 Q2167.35 320.529 2164.18 316.918 Q2161.03 313.284 2161.03 306.918 Q2161.03 300.529 2164.18 296.918 Q2167.35 293.307 2172.93 293.307 Z" fill="#000000" fill-rule="evenodd" fill-opacity="1" /><path clip-path="url(#clip420)" d="M2206.91 297.913 Q2206.19 297.497 2205.33 297.311 Q2204.5 297.103 2203.48 297.103 Q2199.87 297.103 2197.93 299.464 Q2196.01 301.802 2196.01 306.2 L2196.01 319.858 L2191.72 319.858 L2191.72 293.932 L2196.01 293.932 L2196.01 297.96 Q2197.35 295.598 2199.5 294.464 Q2201.65 293.307 2204.73 293.307 Q2205.17 293.307 2205.7 293.376 Q2206.24 293.423 2206.88 293.538 L2206.91 297.913 Z" fill="#000000" fill-rule="evenodd" fill-opacity="1" /><path clip-path="url(#clip420)" d="M2232.09 304.209 L2232.09 319.858 L2227.83 319.858 L2227.83 304.348 Q2227.83 300.668 2226.4 298.839 Q2224.96 297.01 2222.09 297.01 Q2218.64 297.01 2216.65 299.21 Q2214.66 301.409 2214.66 305.205 L2214.66 319.858 L2210.38 319.858 L2210.38 293.932 L2214.66 293.932 L2214.66 297.96 Q2216.19 295.622 2218.25 294.464 Q2220.33 293.307 2223.04 293.307 Q2227.51 293.307 2229.8 296.085 Q2232.09 298.839 2232.09 304.209 Z" fill="#000000" fill-rule="evenodd" fill-opacity="1" /><polyline clip-path="url(#clip420)" style="stroke:#ac8d18; stroke-linecap:round; stroke-linejoin:round; stroke-width:4; stroke-opacity:1; fill:none" points="1476.35,354.418 1620.78,354.418 "/>
<path clip-path="url(#clip420)" d="M1658.69 374.105 Q1656.89 378.735 1655.17 380.147 Q1653.46 381.559 1650.59 381.559 L1647.19 381.559 L1647.19 377.994 L1649.69 377.994 Q1651.45 377.994 1652.42 377.16 Q1653.39 376.327 1654.57 373.225 L1655.34 371.281 L1644.85 345.772 L1649.36 345.772 L1657.47 366.049 L1665.57 345.772 L1670.08 345.772 L1658.69 374.105 Z" fill="#000000" fill-rule="evenodd" fill-opacity="1" /><path clip-path="url(#clip420)" d="M1676.61 337.138 L1694.97 337.138 L1694.97 341.073 L1680.89 341.073 L1680.89 349.545 Q1681.91 349.198 1682.93 349.036 Q1683.95 348.85 1684.97 348.85 Q1690.75 348.85 1694.13 352.022 Q1697.51 355.193 1697.51 360.61 Q1697.51 366.188 1694.04 369.29 Q1690.57 372.369 1684.25 372.369 Q1682.07 372.369 1679.8 371.998 Q1677.56 371.628 1675.15 370.887 L1675.15 366.188 Q1677.23 367.323 1679.46 367.878 Q1681.68 368.434 1684.16 368.434 Q1688.16 368.434 1690.5 366.327 Q1692.84 364.221 1692.84 360.61 Q1692.84 356.999 1690.5 354.892 Q1688.16 352.786 1684.16 352.786 Q1682.28 352.786 1680.41 353.202 Q1678.55 353.619 1676.61 354.499 L1676.61 337.138 Z" fill="#000000" fill-rule="evenodd" fill-opacity="1" /></svg>
