<?xml version="1.0" encoding="utf-8"?>
<svg xmlns="http://www.w3.org/2000/svg" xmlns:xlink="http://www.w3.org/1999/xlink" width="600" height="400" viewBox="0 0 2400 1600">
<defs>
  <clipPath id="clip910">
    <rect x="0" y="0" width="2400" height="1600"/>
  </clipPath>
</defs>
<path clip-path="url(#clip910)" d="M0 1600 L2400 1600 L2400 0 L0 0  Z" fill="#ffffff" fill-rule="evenodd" fill-opacity="1"/>
<defs>
  <clipPath id="clip911">
    <rect x="480" y="0" width="1681" height="1600"/>
  </clipPath>
</defs>
<path clip-path="url(#clip910)" d="M186.76 1423.18 L2352.76 1423.18 L2352.76 47.2441 L186.76 47.2441  Z" fill="#ffffff" fill-rule="evenodd" fill-opacity="1"/>
<defs>
  <clipPath id="clip912">
    <rect x="186" y="47" width="2167" height="1377"/>
  </clipPath>
</defs>
<polyline clip-path="url(#clip912)" style="stroke:#000000; stroke-linecap:round; stroke-linejoin:round; stroke-width:2; stroke-opacity:0.1; fill:none" points="248.062,1423.18 248.062,47.2441 "/>
<polyline clip-path="url(#clip912)" style="stroke:#000000; stroke-linecap:round; stroke-linejoin:round; stroke-width:2; stroke-opacity:0.1; fill:none" points="573.278,1423.18 573.278,47.2441 "/>
<polyline clip-path="url(#clip912)" style="stroke:#000000; stroke-linecap:round; stroke-linejoin:round; stroke-width:2; stroke-opacity:0.1; fill:none" points="898.494,1423.18 898.494,47.2441 "/>
<polyline clip-path="url(#clip912)" style="stroke:#000000; stroke-linecap:round; stroke-linejoin:round; stroke-width:2; stroke-opacity:0.1; fill:none" points="1223.71,1423.18 1223.71,47.2441 "/>
<polyline clip-path="url(#clip912)" style="stroke:#000000; stroke-linecap:round; stroke-linejoin:round; stroke-width:2; stroke-opacity:0.1; fill:none" points="1548.93,1423.18 1548.93,47.2441 "/>
<polyline clip-path="url(#clip912)" style="stroke:#000000; stroke-linecap:round; stroke-linejoin:round; stroke-width:2; stroke-opacity:0.1; fill:none" points="1874.14,1423.18 1874.14,47.2441 "/>
<polyline clip-path="url(#clip912)" style="stroke:#000000; stroke-linecap:round; stroke-linejoin:round; stroke-width:2; stroke-opacity:0.1; fill:none" points="2199.36,1423.18 2199.36,47.2441 "/>
<polyline clip-path="url(#clip910)" style="stroke:#000000; stroke-linecap:round; stroke-linejoin:round; stroke-width:4; stroke-opacity:1; fill:none" points="186.76,1423.18 2352.76,1423.18 "/>
<polyline clip-path="url(#clip910)" style="stroke:#000000; stroke-linecap:round; stroke-linejoin:round; stroke-width:4; stroke-opacity:1; fill:none" points="248.062,1423.18 248.062,1404.28 "/>
<polyline clip-path="url(#clip910)" style="stroke:#000000; stroke-linecap:round; stroke-linejoin:round; stroke-width:4; stroke-opacity:1; fill:none" points="573.278,1423.18 573.278,1404.28 "/>
<polyline clip-path="url(#clip910)" style="stroke:#000000; stroke-linecap:round; stroke-linejoin:round; stroke-width:4; stroke-opacity:1; fill:none" points="898.494,1423.18 898.494,1404.28 "/>
<polyline clip-path="url(#clip910)" style="stroke:#000000; stroke-linecap:round; stroke-linejoin:round; stroke-width:4; stroke-opacity:1; fill:none" points="1223.71,1423.18 1223.71,1404.28 "/>
<polyline clip-path="url(#clip910)" style="stroke:#000000; stroke-linecap:round; stroke-linejoin:round; stroke-width:4; stroke-opacity:1; fill:none" points="1548.93,1423.18 1548.93,1404.28 "/>
<polyline clip-path="url(#clip910)" style="stroke:#000000; stroke-linecap:round; stroke-linejoin:round; stroke-width:4; stroke-opacity:1; fill:none" points="1874.14,1423.18 1874.14,1404.28 "/>
<polyline clip-path="url(#clip910)" style="stroke:#000000; stroke-linecap:round; stroke-linejoin:round; stroke-width:4; stroke-opacity:1; fill:none" points="2199.36,1423.18 2199.36,1404.28 "/>
<path clip-path="url(#clip910)" d="M248.062 1454.1 Q244.451 1454.1 242.622 1457.66 Q240.817 1461.2 240.817 1468.33 Q240.817 1475.44 242.622 1479.01 Q244.451 1482.55 248.062 1482.55 Q251.696 1482.55 253.502 1479.01 Q255.33 1475.44 255.33 1468.33 Q255.33 1461.2 253.502 1457.66 Q251.696 1454.1 248.062 1454.1 M248.062 1450.39 Q253.872 1450.39 256.928 1455 Q260.006 1459.58 260.006 1468.33 Q260.006 1477.06 256.928 1481.67 Q253.872 1486.25 248.062 1486.25 Q242.252 1486.25 239.173 1481.67 Q236.117 1477.06 236.117 1468.33 Q236.117 1459.58 239.173 1455 Q242.252 1450.39 248.062 1450.39 Z" fill="#000000" fill-rule="evenodd" fill-opacity="1" /><path clip-path="url(#clip910)" d="M563.66 1481.64 L571.299 1481.64 L571.299 1455.28 L562.989 1456.95 L562.989 1452.69 L571.252 1451.02 L575.928 1451.02 L575.928 1481.64 L583.567 1481.64 L583.567 1485.58 L563.66 1485.58 L563.66 1481.64 Z" fill="#000000" fill-rule="evenodd" fill-opacity="1" /><path clip-path="url(#clip910)" d="M893.147 1481.64 L909.466 1481.64 L909.466 1485.58 L887.522 1485.58 L887.522 1481.64 Q890.184 1478.89 894.767 1474.26 Q899.373 1469.61 900.554 1468.27 Q902.799 1465.74 903.679 1464.01 Q904.582 1462.25 904.582 1460.56 Q904.582 1457.8 902.637 1456.07 Q900.716 1454.33 897.614 1454.33 Q895.415 1454.33 892.961 1455.09 Q890.531 1455.86 887.753 1457.41 L887.753 1452.69 Q890.577 1451.55 893.031 1450.97 Q895.485 1450.39 897.522 1450.39 Q902.892 1450.39 906.086 1453.08 Q909.281 1455.77 909.281 1460.26 Q909.281 1462.39 908.471 1464.31 Q907.684 1466.2 905.577 1468.8 Q904.998 1469.47 901.897 1472.69 Q898.795 1475.88 893.147 1481.64 Z" fill="#000000" fill-rule="evenodd" fill-opacity="1" /><path clip-path="url(#clip910)" d="M1227.96 1466.95 Q1231.31 1467.66 1233.19 1469.93 Q1235.09 1472.2 1235.09 1475.53 Q1235.09 1480.65 1231.57 1483.45 Q1228.05 1486.25 1221.57 1486.25 Q1219.39 1486.25 1217.08 1485.81 Q1214.79 1485.39 1212.33 1484.54 L1212.33 1480.02 Q1214.28 1481.16 1216.59 1481.74 Q1218.91 1482.32 1221.43 1482.32 Q1225.83 1482.32 1228.12 1480.58 Q1230.43 1478.84 1230.43 1475.53 Q1230.43 1472.48 1228.28 1470.77 Q1226.15 1469.03 1222.33 1469.03 L1218.3 1469.03 L1218.3 1465.19 L1222.52 1465.19 Q1225.97 1465.19 1227.8 1463.82 Q1229.62 1462.43 1229.62 1459.84 Q1229.62 1457.18 1227.73 1455.77 Q1225.85 1454.33 1222.33 1454.33 Q1220.41 1454.33 1218.21 1454.75 Q1216.01 1455.16 1213.37 1456.04 L1213.37 1451.88 Q1216.04 1451.14 1218.35 1450.77 Q1220.69 1450.39 1222.75 1450.39 Q1228.07 1450.39 1231.18 1452.83 Q1234.28 1455.23 1234.28 1459.35 Q1234.28 1462.22 1232.63 1464.21 Q1230.99 1466.18 1227.96 1466.95 Z" fill="#000000" fill-rule="evenodd" fill-opacity="1" /><path clip-path="url(#clip910)" d="M1551.94 1455.09 L1540.13 1473.54 L1551.94 1473.54 L1551.94 1455.09 M1550.71 1451.02 L1556.59 1451.02 L1556.59 1473.54 L1561.52 1473.54 L1561.52 1477.43 L1556.59 1477.43 L1556.59 1485.58 L1551.94 1485.58 L1551.94 1477.43 L1536.33 1477.43 L1536.33 1472.92 L1550.71 1451.02 Z" fill="#000000" fill-rule="evenodd" fill-opacity="1" /><path clip-path="url(#clip910)" d="M1864.42 1451.02 L1882.78 1451.02 L1882.78 1454.96 L1868.7 1454.96 L1868.7 1463.43 Q1869.72 1463.08 1870.74 1462.92 Q1871.76 1462.73 1872.78 1462.73 Q1878.56 1462.73 1881.94 1465.9 Q1885.32 1469.08 1885.32 1474.49 Q1885.32 1480.07 1881.85 1483.17 Q1878.38 1486.25 1872.06 1486.25 Q1869.88 1486.25 1867.61 1485.88 Q1865.37 1485.51 1862.96 1484.77 L1862.96 1480.07 Q1865.04 1481.2 1867.27 1481.76 Q1869.49 1482.32 1871.97 1482.32 Q1875.97 1482.32 1878.31 1480.21 Q1880.65 1478.1 1880.65 1474.49 Q1880.65 1470.88 1878.31 1468.77 Q1875.97 1466.67 1871.97 1466.67 Q1870.09 1466.67 1868.22 1467.08 Q1866.36 1467.5 1864.42 1468.38 L1864.42 1451.02 Z" fill="#000000" fill-rule="evenodd" fill-opacity="1" /><path clip-path="url(#clip910)" d="M2199.76 1466.44 Q2196.61 1466.44 2194.76 1468.59 Q2192.93 1470.74 2192.93 1474.49 Q2192.93 1478.22 2194.76 1480.39 Q2196.61 1482.55 2199.76 1482.55 Q2202.91 1482.55 2204.74 1480.39 Q2206.59 1478.22 2206.59 1474.49 Q2206.59 1470.74 2204.74 1468.59 Q2202.91 1466.44 2199.76 1466.44 M2209.05 1451.78 L2209.05 1456.04 Q2207.29 1455.21 2205.48 1454.77 Q2203.7 1454.33 2201.94 1454.33 Q2197.31 1454.33 2194.86 1457.45 Q2192.42 1460.58 2192.08 1466.9 Q2193.44 1464.89 2195.5 1463.82 Q2197.56 1462.73 2200.04 1462.73 Q2205.25 1462.73 2208.26 1465.9 Q2211.29 1469.05 2211.29 1474.49 Q2211.29 1479.82 2208.14 1483.03 Q2204.99 1486.25 2199.76 1486.25 Q2193.77 1486.25 2190.6 1481.67 Q2187.42 1477.06 2187.42 1468.33 Q2187.42 1460.14 2191.31 1455.28 Q2195.2 1450.39 2201.75 1450.39 Q2203.51 1450.39 2205.3 1450.74 Q2207.1 1451.09 2209.05 1451.78 Z" fill="#000000" fill-rule="evenodd" fill-opacity="1" /><path clip-path="url(#clip910)" d="M1253.94 1518.52 L1259.83 1518.52 L1259.83 1547.77 L1277.3 1532.4 L1284.78 1532.4 L1265.87 1549.07 L1285.58 1568.04 L1277.94 1568.04 L1259.83 1550.63 L1259.83 1568.04 L1253.94 1568.04 L1253.94 1518.52 Z" fill="#000000" fill-rule="evenodd" fill-opacity="1" /><polyline clip-path="url(#clip912)" style="stroke:#000000; stroke-linecap:round; stroke-linejoin:round; stroke-width:2; stroke-opacity:0.1; fill:none" points="186.76,1222.04 2352.76,1222.04 "/>
<polyline clip-path="url(#clip912)" style="stroke:#000000; stroke-linecap:round; stroke-linejoin:round; stroke-width:2; stroke-opacity:0.1; fill:none" points="186.76,897.51 2352.76,897.51 "/>
<polyline clip-path="url(#clip912)" style="stroke:#000000; stroke-linecap:round; stroke-linejoin:round; stroke-width:2; stroke-opacity:0.1; fill:none" points="186.76,572.98 2352.76,572.98 "/>
<polyline clip-path="url(#clip912)" style="stroke:#000000; stroke-linecap:round; stroke-linejoin:round; stroke-width:2; stroke-opacity:0.1; fill:none" points="186.76,248.451 2352.76,248.451 "/>
<polyline clip-path="url(#clip910)" style="stroke:#000000; stroke-linecap:round; stroke-linejoin:round; stroke-width:4; stroke-opacity:1; fill:none" points="186.76,1423.18 186.76,47.2441 "/>
<polyline clip-path="url(#clip910)" style="stroke:#000000; stroke-linecap:round; stroke-linejoin:round; stroke-width:4; stroke-opacity:1; fill:none" points="186.76,1222.04 205.658,1222.04 "/>
<polyline clip-path="url(#clip910)" style="stroke:#000000; stroke-linecap:round; stroke-linejoin:round; stroke-width:4; stroke-opacity:1; fill:none" points="186.76,897.51 205.658,897.51 "/>
<polyline clip-path="url(#clip910)" style="stroke:#000000; stroke-linecap:round; stroke-linejoin:round; stroke-width:4; stroke-opacity:1; fill:none" points="186.76,572.98 205.658,572.98 "/>
<polyline clip-path="url(#clip910)" style="stroke:#000000; stroke-linecap:round; stroke-linejoin:round; stroke-width:4; stroke-opacity:1; fill:none" points="186.76,248.451 205.658,248.451 "/>
<path clip-path="url(#clip910)" d="M65.0198 1207.84 Q61.4087 1207.84 59.58 1211.4 Q57.7745 1214.94 57.7745 1222.07 Q57.7745 1229.18 59.58 1232.75 Q61.4087 1236.29 65.0198 1236.29 Q68.6541 1236.29 70.4596 1232.75 Q72.2883 1229.18 72.2883 1222.07 Q72.2883 1214.94 70.4596 1211.4 Q68.6541 1207.84 65.0198 1207.84 M65.0198 1204.13 Q70.83 1204.13 73.8855 1208.74 Q76.9642 1213.32 76.9642 1222.07 Q76.9642 1230.8 73.8855 1235.41 Q70.83 1239.99 65.0198 1239.99 Q59.2097 1239.99 56.131 1235.41 Q53.0754 1230.8 53.0754 1222.07 Q53.0754 1213.32 56.131 1208.74 Q59.2097 1204.13 65.0198 1204.13 Z" fill="#000000" fill-rule="evenodd" fill-opacity="1" /><path clip-path="url(#clip910)" d="M85.1818 1233.44 L90.066 1233.44 L90.066 1239.32 L85.1818 1239.32 L85.1818 1233.44 Z" fill="#000000" fill-rule="evenodd" fill-opacity="1" /><path clip-path="url(#clip910)" d="M110.251 1207.84 Q106.64 1207.84 104.811 1211.4 Q103.006 1214.94 103.006 1222.07 Q103.006 1229.18 104.811 1232.75 Q106.64 1236.29 110.251 1236.29 Q113.885 1236.29 115.691 1232.75 Q117.52 1229.18 117.52 1222.07 Q117.52 1214.94 115.691 1211.4 Q113.885 1207.84 110.251 1207.84 M110.251 1204.13 Q116.061 1204.13 119.117 1208.74 Q122.195 1213.32 122.195 1222.07 Q122.195 1230.8 119.117 1235.41 Q116.061 1239.99 110.251 1239.99 Q104.441 1239.99 101.362 1235.41 Q98.3067 1230.8 98.3067 1222.07 Q98.3067 1213.32 101.362 1208.74 Q104.441 1204.13 110.251 1204.13 Z" fill="#000000" fill-rule="evenodd" fill-opacity="1" /><path clip-path="url(#clip910)" d="M134.441 1235.38 L150.76 1235.38 L150.76 1239.32 L128.816 1239.32 L128.816 1235.38 Q131.478 1232.63 136.061 1228 Q140.668 1223.35 141.848 1222 Q144.093 1219.48 144.973 1217.75 Q145.876 1215.99 145.876 1214.3 Q145.876 1211.54 143.931 1209.81 Q142.01 1208.07 138.908 1208.07 Q136.709 1208.07 134.256 1208.83 Q131.825 1209.6 129.047 1211.15 L129.047 1206.43 Q131.871 1205.29 134.325 1204.71 Q136.779 1204.13 138.816 1204.13 Q144.186 1204.13 147.38 1206.82 Q150.575 1209.5 150.575 1214 Q150.575 1216.13 149.765 1218.05 Q148.978 1219.94 146.871 1222.54 Q146.293 1223.21 143.191 1226.43 Q140.089 1229.62 134.441 1235.38 Z" fill="#000000" fill-rule="evenodd" fill-opacity="1" /><path clip-path="url(#clip910)" d="M62.9365 883.309 Q59.3254 883.309 57.4967 886.873 Q55.6912 890.415 55.6912 897.545 Q55.6912 904.651 57.4967 908.216 Q59.3254 911.758 62.9365 911.758 Q66.5707 911.758 68.3763 908.216 Q70.205 904.651 70.205 897.545 Q70.205 890.415 68.3763 886.873 Q66.5707 883.309 62.9365 883.309 M62.9365 879.605 Q68.7467 879.605 71.8022 884.211 Q74.8809 888.795 74.8809 897.545 Q74.8809 906.271 71.8022 910.878 Q68.7467 915.461 62.9365 915.461 Q57.1264 915.461 54.0477 910.878 Q50.9921 906.271 50.9921 897.545 Q50.9921 888.795 54.0477 884.211 Q57.1264 879.605 62.9365 879.605 Z" fill="#000000" fill-rule="evenodd" fill-opacity="1" /><path clip-path="url(#clip910)" d="M83.0984 908.91 L87.9827 908.91 L87.9827 914.79 L83.0984 914.79 L83.0984 908.91 Z" fill="#000000" fill-rule="evenodd" fill-opacity="1" /><path clip-path="url(#clip910)" d="M108.168 883.309 Q104.557 883.309 102.728 886.873 Q100.922 890.415 100.922 897.545 Q100.922 904.651 102.728 908.216 Q104.557 911.758 108.168 911.758 Q111.802 911.758 113.608 908.216 Q115.436 904.651 115.436 897.545 Q115.436 890.415 113.608 886.873 Q111.802 883.309 108.168 883.309 M108.168 879.605 Q113.978 879.605 117.033 884.211 Q120.112 888.795 120.112 897.545 Q120.112 906.271 117.033 910.878 Q113.978 915.461 108.168 915.461 Q102.358 915.461 99.2789 910.878 Q96.2234 906.271 96.2234 897.545 Q96.2234 888.795 99.2789 884.211 Q102.358 879.605 108.168 879.605 Z" fill="#000000" fill-rule="evenodd" fill-opacity="1" /><path clip-path="url(#clip910)" d="M141.177 884.304 L129.371 902.753 L141.177 902.753 L141.177 884.304 M139.95 880.23 L145.83 880.23 L145.83 902.753 L150.76 902.753 L150.76 906.642 L145.83 906.642 L145.83 914.79 L141.177 914.79 L141.177 906.642 L125.575 906.642 L125.575 902.128 L139.95 880.23 Z" fill="#000000" fill-rule="evenodd" fill-opacity="1" /><path clip-path="url(#clip910)" d="M63.2606 558.779 Q59.6495 558.779 57.8208 562.344 Q56.0152 565.885 56.0152 573.015 Q56.0152 580.121 57.8208 583.686 Q59.6495 587.228 63.2606 587.228 Q66.8948 587.228 68.7004 583.686 Q70.5291 580.121 70.5291 573.015 Q70.5291 565.885 68.7004 562.344 Q66.8948 558.779 63.2606 558.779 M63.2606 555.075 Q69.0707 555.075 72.1263 559.682 Q75.205 564.265 75.205 573.015 Q75.205 581.742 72.1263 586.348 Q69.0707 590.932 63.2606 590.932 Q57.4504 590.932 54.3717 586.348 Q51.3162 581.742 51.3162 573.015 Q51.3162 564.265 54.3717 559.682 Q57.4504 555.075 63.2606 555.075 Z" fill="#000000" fill-rule="evenodd" fill-opacity="1" /><path clip-path="url(#clip910)" d="M83.4225 584.381 L88.3067 584.381 L88.3067 590.26 L83.4225 590.26 L83.4225 584.381 Z" fill="#000000" fill-rule="evenodd" fill-opacity="1" /><path clip-path="url(#clip910)" d="M108.492 558.779 Q104.881 558.779 103.052 562.344 Q101.246 565.885 101.246 573.015 Q101.246 580.121 103.052 583.686 Q104.881 587.228 108.492 587.228 Q112.126 587.228 113.932 583.686 Q115.76 580.121 115.76 573.015 Q115.76 565.885 113.932 562.344 Q112.126 558.779 108.492 558.779 M108.492 555.075 Q114.302 555.075 117.358 559.682 Q120.436 564.265 120.436 573.015 Q120.436 581.742 117.358 586.348 Q114.302 590.932 108.492 590.932 Q102.682 590.932 99.603 586.348 Q96.5474 581.742 96.5474 573.015 Q96.5474 564.265 99.603 559.682 Q102.682 555.075 108.492 555.075 Z" fill="#000000" fill-rule="evenodd" fill-opacity="1" /><path clip-path="url(#clip910)" d="M139.232 571.117 Q136.084 571.117 134.232 573.27 Q132.404 575.422 132.404 579.172 Q132.404 582.899 134.232 585.075 Q136.084 587.228 139.232 587.228 Q142.381 587.228 144.209 585.075 Q146.061 582.899 146.061 579.172 Q146.061 575.422 144.209 573.27 Q142.381 571.117 139.232 571.117 M148.515 556.464 L148.515 560.723 Q146.756 559.89 144.95 559.45 Q143.168 559.01 141.408 559.01 Q136.779 559.01 134.325 562.135 Q131.894 565.26 131.547 571.58 Q132.913 569.566 134.973 568.501 Q137.033 567.413 139.51 567.413 Q144.718 567.413 147.728 570.584 Q150.76 573.733 150.76 579.172 Q150.76 584.496 147.612 587.714 Q144.464 590.932 139.232 590.932 Q133.237 590.932 130.066 586.348 Q126.894 581.742 126.894 573.015 Q126.894 564.821 130.783 559.959 Q134.672 555.075 141.223 555.075 Q142.982 555.075 144.765 555.422 Q146.57 555.77 148.515 556.464 Z" fill="#000000" fill-rule="evenodd" fill-opacity="1" /><path clip-path="url(#clip910)" d="M63.5152 234.249 Q59.9041 234.249 58.0754 237.814 Q56.2699 241.356 56.2699 248.485 Q56.2699 255.592 58.0754 259.156 Q59.9041 262.698 63.5152 262.698 Q67.1494 262.698 68.955 259.156 Q70.7837 255.592 70.7837 248.485 Q70.7837 241.356 68.955 237.814 Q67.1494 234.249 63.5152 234.249 M63.5152 230.546 Q69.3254 230.546 72.3809 235.152 Q75.4596 239.735 75.4596 248.485 Q75.4596 257.212 72.3809 261.819 Q69.3254 266.402 63.5152 266.402 Q57.7051 266.402 54.6264 261.819 Q51.5708 257.212 51.5708 248.485 Q51.5708 239.735 54.6264 235.152 Q57.7051 230.546 63.5152 230.546 Z" fill="#000000" fill-rule="evenodd" fill-opacity="1" /><path clip-path="url(#clip910)" d="M83.6771 259.851 L88.5614 259.851 L88.5614 265.731 L83.6771 265.731 L83.6771 259.851 Z" fill="#000000" fill-rule="evenodd" fill-opacity="1" /><path clip-path="url(#clip910)" d="M108.746 234.249 Q105.135 234.249 103.307 237.814 Q101.501 241.356 101.501 248.485 Q101.501 255.592 103.307 259.156 Q105.135 262.698 108.746 262.698 Q112.381 262.698 114.186 259.156 Q116.015 255.592 116.015 248.485 Q116.015 241.356 114.186 237.814 Q112.381 234.249 108.746 234.249 M108.746 230.546 Q114.557 230.546 117.612 235.152 Q120.691 239.735 120.691 248.485 Q120.691 257.212 117.612 261.819 Q114.557 266.402 108.746 266.402 Q102.936 266.402 99.8576 261.819 Q96.8021 257.212 96.8021 248.485 Q96.8021 239.735 99.8576 235.152 Q102.936 230.546 108.746 230.546 Z" fill="#000000" fill-rule="evenodd" fill-opacity="1" /><path clip-path="url(#clip910)" d="M138.908 249.319 Q135.575 249.319 133.654 251.101 Q131.756 252.883 131.756 256.008 Q131.756 259.133 133.654 260.916 Q135.575 262.698 138.908 262.698 Q142.242 262.698 144.163 260.916 Q146.084 259.11 146.084 256.008 Q146.084 252.883 144.163 251.101 Q142.265 249.319 138.908 249.319 M134.232 247.328 Q131.223 246.587 129.533 244.527 Q127.867 242.467 127.867 239.504 Q127.867 235.36 130.807 232.953 Q133.769 230.546 138.908 230.546 Q144.07 230.546 147.01 232.953 Q149.95 235.36 149.95 239.504 Q149.95 242.467 148.26 244.527 Q146.593 246.587 143.607 247.328 Q146.987 248.115 148.862 250.407 Q150.76 252.698 150.76 256.008 Q150.76 261.031 147.681 263.717 Q144.626 266.402 138.908 266.402 Q133.191 266.402 130.112 263.717 Q127.057 261.031 127.057 256.008 Q127.057 252.698 128.955 250.407 Q130.853 248.115 134.232 247.328 M132.519 239.944 Q132.519 242.629 134.186 244.133 Q135.876 245.638 138.908 245.638 Q141.918 245.638 143.607 244.133 Q145.32 242.629 145.32 239.944 Q145.32 237.258 143.607 235.754 Q141.918 234.249 138.908 234.249 Q135.876 234.249 134.186 235.754 Q132.519 237.258 132.519 239.944 Z" fill="#000000" fill-rule="evenodd" fill-opacity="1" /><polyline clip-path="url(#clip912)" style="stroke:#009af9; stroke-linecap:round; stroke-linejoin:round; stroke-width:4; stroke-opacity:1; fill:none" points="248.062,822.784 251.388,822.797 254.714,822.835 258.04,822.899 261.365,822.988 276.742,823.733 292.118,825.022 307.495,826.853 322.871,829.223 338.247,832.127 353.624,835.563 369,839.523 384.376,844.001 402.858,850.058 421.339,856.839 439.82,864.326 458.301,872.502 473.926,879.937 489.552,887.838 505.178,896.189 520.803,904.976 537.777,914.998 554.751,925.494 571.724,936.443 588.698,947.821 619.995,969.839 651.291,993.064 684.844,1019.1 718.398,1046.09 757.272,1078.21 796.147,1110.85 830.694,1139.96 865.241,1168.81 895.536,1193.66 925.831,1217.84 942.346,1230.65 958.861,1243.17 975.375,1255.34 991.89,1267.13 1008.5,1278.57 1025.12,1289.55 1041.73,1300.04 1058.34,1309.98 1076.71,1320.32 1095.08,1329.9 1113.44,1338.69 1131.81,1346.64 1149.29,1353.38 1166.76,1359.29 1184.24,1364.33 1201.72,1368.48 1219.89,1371.82 1238.06,1374.14 1256.23,1375.43 1274.4,1375.69 1289.7,1375.1 1305,1373.77 1320.29,1371.71 1335.59,1368.94 1354.26,1364.6 1372.94,1359.23 1391.61,1352.88 1410.29,1345.57 1427.4,1338.08 1444.51,1329.87 1461.61,1320.96 1478.72,1311.41 1494.52,1302.04 1510.32,1292.17 1526.12,1281.85 1541.92,1271.11 1573.93,1248.16 1605.94,1223.88 1641.82,1195.41 1677.69,1165.98 1710.2,1138.8 1742.71,1111.41 1779.93,1080.14 1817.15,1049.33 1851.61,1021.53 1886.07,994.702 1903.06,981.916 1920.05,969.459 1937.03,957.358 1954.02,945.641 1987.01,924.08 2020,904.238 2036.91,894.787 2053.81,885.849 2070.72,877.443 2087.63,869.587 2106.15,861.63 2124.68,854.372 2143.2,847.829 2161.73,842.019 2175.18,838.265 2188.64,834.91 2202.1,831.958 2215.55,829.412 2242.46,825.551 2269.37,823.347 2274.89,823.101 2280.41,822.925 2285.93,822.819 2291.45,822.784 "/>
<polyline clip-path="url(#clip912)" style="stroke:#e26f46; stroke-linecap:round; stroke-linejoin:round; stroke-width:4; stroke-opacity:1; fill:none" points="248.062,86.1857 251.388,86.2196 254.714,86.3214 258.04,86.4911 261.365,86.7287 276.742,88.7079 292.118,92.1322 307.495,96.9939 322.871,103.282 338.247,110.983 353.624,120.079 369,130.549 384.376,142.372 402.858,158.332 421.339,176.155 439.82,195.783 458.301,217.152 473.926,236.528 489.552,257.054 505.178,278.684 520.803,301.368 537.777,327.142 554.751,354.028 571.724,381.952 588.698,410.838 619.995,466.355 651.291,524.36 718.398,654.6 796.147,809.4 830.694,877.35 865.241,943.698 895.536,999.971 925.831,1053.95 942.346,1082.24 958.861,1109.63 975.375,1136.06 991.89,1161.46 1008.5,1185.9 1025.12,1209.16 1041.73,1231.19 1058.34,1251.92 1076.71,1273.27 1095.08,1292.91 1113.44,1310.76 1131.81,1326.79 1149.29,1340.28 1166.76,1352.03 1184.24,1361.99 1201.72,1370.15 1219.89,1376.69 1238.06,1381.22 1256.23,1383.74 1274.4,1384.24 1289.7,1383.08 1305,1380.5 1320.29,1376.48 1335.59,1371.05 1354.26,1362.52 1372.94,1351.91 1391.61,1339.27 1410.29,1324.64 1427.4,1309.54 1444.51,1292.84 1461.61,1274.6 1478.72,1254.87 1494.52,1235.37 1510.32,1214.69 1526.12,1192.87 1541.92,1169.98 1557.93,1145.74 1573.93,1120.51 1589.94,1094.35 1605.94,1067.32 1641.82,1003.91 1677.69,937.229 1710.2,874.666 1742.71,810.711 1817.15,662.471 1886.07,528.43 1920.05,465.401 1954.02,405.315 1970.52,377.403 1987.01,350.412 2003.5,324.41 2020,299.465 2036.91,275.057 2053.81,251.893 2070.72,230.034 2087.63,209.541 2106.15,188.722 2124.68,169.675 2143.2,152.463 2161.73,137.141 2175.18,127.226 2188.64,118.352 2202.1,110.533 2215.55,103.784 2242.46,93.537 2269.37,87.6814 2274.89,87.0272 2280.41,86.5597 2285.93,86.2792 2291.45,86.1857 "/>
<path clip-path="url(#clip910)" d="M1833.63 1377.32 L2280.56 1377.32 L2280.56 1221.8 L1833.63 1221.8  Z" fill="#ffffff" fill-rule="evenodd" fill-opacity="1"/>
<polyline clip-path="url(#clip910)" style="stroke:#000000; stroke-linecap:round; stroke-linejoin:round; stroke-width:4; stroke-opacity:1; fill:none" points="1833.63,1377.32 2280.56,1377.32 2280.56,1221.8 1833.63,1221.8 1833.63,1377.32 "/>
<polyline clip-path="url(#clip910)" style="stroke:#009af9; stroke-linecap:round; stroke-linejoin:round; stroke-width:4; stroke-opacity:1; fill:none" points="1857.7,1273.64 2002.1,1273.64 "/>
<path clip-path="url(#clip910)" d="M2026.17 1254.9 L2030.43 1254.9 L2030.43 1290.92 L2026.17 1290.92 L2026.17 1254.9 Z" fill="#000000" fill-rule="evenodd" fill-opacity="1" /><path clip-path="url(#clip910)" d="M2051.12 1277.88 Q2045.96 1277.88 2043.97 1279.06 Q2041.98 1280.24 2041.98 1283.09 Q2041.98 1285.36 2043.46 1286.7 Q2044.96 1288.02 2047.53 1288.02 Q2051.07 1288.02 2053.2 1285.52 Q2055.36 1283 2055.36 1278.83 L2055.36 1277.88 L2051.12 1277.88 M2059.62 1276.12 L2059.62 1290.92 L2055.36 1290.92 L2055.36 1286.98 Q2053.9 1289.34 2051.72 1290.48 Q2049.55 1291.59 2046.4 1291.59 Q2042.42 1291.59 2040.06 1289.36 Q2037.72 1287.12 2037.72 1283.37 Q2037.72 1278.99 2040.63 1276.77 Q2043.57 1274.55 2049.38 1274.55 L2055.36 1274.55 L2055.36 1274.13 Q2055.36 1271.19 2053.41 1269.6 Q2051.49 1267.98 2048 1267.98 Q2045.77 1267.98 2043.67 1268.51 Q2041.56 1269.04 2039.62 1270.11 L2039.62 1266.17 Q2041.95 1265.27 2044.15 1264.83 Q2046.35 1264.36 2048.43 1264.36 Q2054.06 1264.36 2056.84 1267.28 Q2059.62 1270.2 2059.62 1276.12 Z" fill="#000000" fill-rule="evenodd" fill-opacity="1" /><path clip-path="url(#clip910)" d="M2088.57 1269.97 Q2090.17 1267.1 2092.39 1265.73 Q2094.62 1264.36 2097.62 1264.36 Q2101.68 1264.36 2103.87 1267.21 Q2106.07 1270.04 2106.07 1275.27 L2106.07 1290.92 L2101.79 1290.92 L2101.79 1275.41 Q2101.79 1271.68 2100.47 1269.87 Q2099.15 1268.07 2096.44 1268.07 Q2093.13 1268.07 2091.21 1270.27 Q2089.29 1272.47 2089.29 1276.26 L2089.29 1290.92 L2085.01 1290.92 L2085.01 1275.41 Q2085.01 1271.66 2083.69 1269.87 Q2082.37 1268.07 2079.62 1268.07 Q2076.35 1268.07 2074.43 1270.29 Q2072.51 1272.49 2072.51 1276.26 L2072.51 1290.92 L2068.23 1290.92 L2068.23 1264.99 L2072.51 1264.99 L2072.51 1269.02 Q2073.97 1266.63 2076 1265.5 Q2078.04 1264.36 2080.84 1264.36 Q2083.67 1264.36 2085.63 1265.8 Q2087.62 1267.23 2088.57 1269.97 Z" fill="#000000" fill-rule="evenodd" fill-opacity="1" /><path clip-path="url(#clip910)" d="M2133.18 1277.98 Q2133.18 1273.28 2131.24 1270.61 Q2129.31 1267.93 2125.93 1267.93 Q2122.55 1267.93 2120.61 1270.61 Q2118.69 1273.28 2118.69 1277.98 Q2118.69 1282.67 2120.61 1285.36 Q2122.55 1288.02 2125.93 1288.02 Q2129.31 1288.02 2131.24 1285.36 Q2133.18 1282.67 2133.18 1277.98 M2118.69 1268.92 Q2120.03 1266.61 2122.07 1265.5 Q2124.13 1264.36 2126.98 1264.36 Q2131.7 1264.36 2134.64 1268.11 Q2137.6 1271.86 2137.6 1277.98 Q2137.6 1284.09 2134.64 1287.84 Q2131.7 1291.59 2126.98 1291.59 Q2124.13 1291.59 2122.07 1290.48 Q2120.03 1289.34 2118.69 1287.03 L2118.69 1290.92 L2114.41 1290.92 L2114.41 1254.9 L2118.69 1254.9 L2118.69 1268.92 Z" fill="#000000" fill-rule="evenodd" fill-opacity="1" /><path clip-path="url(#clip910)" d="M2176.26 1265.75 L2176.26 1269.78 Q2174.45 1268.86 2172.51 1268.39 Q2170.56 1267.93 2168.48 1267.93 Q2165.31 1267.93 2163.71 1268.9 Q2162.14 1269.87 2162.14 1271.82 Q2162.14 1273.3 2163.27 1274.16 Q2164.41 1274.99 2167.83 1275.75 L2169.29 1276.08 Q2173.83 1277.05 2175.73 1278.83 Q2177.65 1280.59 2177.65 1283.76 Q2177.65 1287.37 2174.78 1289.48 Q2171.93 1291.59 2166.93 1291.59 Q2164.85 1291.59 2162.58 1291.17 Q2160.33 1290.78 2157.83 1289.97 L2157.83 1285.57 Q2160.19 1286.79 2162.49 1287.42 Q2164.78 1288.02 2167.02 1288.02 Q2170.03 1288.02 2171.65 1287 Q2173.27 1285.96 2173.27 1284.09 Q2173.27 1282.35 2172.09 1281.42 Q2170.93 1280.5 2166.98 1279.64 L2165.49 1279.3 Q2161.54 1278.46 2159.78 1276.75 Q2158.02 1275.01 2158.02 1272 Q2158.02 1268.35 2160.61 1266.36 Q2163.2 1264.36 2167.97 1264.36 Q2170.33 1264.36 2172.42 1264.71 Q2174.5 1265.06 2176.26 1265.75 Z" fill="#000000" fill-rule="evenodd" fill-opacity="1" /><path clip-path="url(#clip910)" d="M2205.98 1275.27 L2205.98 1290.92 L2201.72 1290.92 L2201.72 1275.41 Q2201.72 1271.73 2200.29 1269.9 Q2198.85 1268.07 2195.98 1268.07 Q2192.53 1268.07 2190.54 1270.27 Q2188.55 1272.47 2188.55 1276.26 L2188.55 1290.92 L2184.27 1290.92 L2184.27 1254.9 L2188.55 1254.9 L2188.55 1269.02 Q2190.08 1266.68 2192.14 1265.52 Q2194.22 1264.36 2196.93 1264.36 Q2201.4 1264.36 2203.69 1267.14 Q2205.98 1269.9 2205.98 1275.27 Z" fill="#000000" fill-rule="evenodd" fill-opacity="1" /><path clip-path="url(#clip910)" d="M2214.48 1264.99 L2218.73 1264.99 L2218.73 1290.92 L2214.48 1290.92 L2214.48 1264.99 M2214.48 1254.9 L2218.73 1254.9 L2218.73 1260.29 L2214.48 1260.29 L2214.48 1254.9 Z" fill="#000000" fill-rule="evenodd" fill-opacity="1" /><path clip-path="url(#clip910)" d="M2240.77 1254.9 L2240.77 1258.44 L2236.7 1258.44 Q2234.41 1258.44 2233.5 1259.36 Q2232.62 1260.29 2232.62 1262.7 L2232.62 1264.99 L2239.64 1264.99 L2239.64 1268.3 L2232.62 1268.3 L2232.62 1290.92 L2228.34 1290.92 L2228.34 1268.3 L2224.27 1268.3 L2224.27 1264.99 L2228.34 1264.99 L2228.34 1263.18 Q2228.34 1258.86 2230.36 1256.89 Q2232.37 1254.9 2236.74 1254.9 L2240.77 1254.9 Z" fill="#000000" fill-rule="evenodd" fill-opacity="1" /><path clip-path="url(#clip910)" d="M2247.72 1257.63 L2247.72 1264.99 L2256.49 1264.99 L2256.49 1268.3 L2247.72 1268.3 L2247.72 1282.37 Q2247.72 1285.54 2248.57 1286.45 Q2249.45 1287.35 2252.11 1287.35 L2256.49 1287.35 L2256.49 1290.92 L2252.11 1290.92 Q2247.18 1290.92 2245.31 1289.09 Q2243.43 1287.23 2243.43 1282.37 L2243.43 1268.3 L2240.31 1268.3 L2240.31 1264.99 L2243.43 1264.99 L2243.43 1257.63 L2247.72 1257.63 Z" fill="#000000" fill-rule="evenodd" fill-opacity="1" /><polyline clip-path="url(#clip910)" style="stroke:#e26f46; stroke-linecap:round; stroke-linejoin:round; stroke-width:4; stroke-opacity:1; fill:none" points="1857.7,1325.48 2002.1,1325.48 "/>
<path clip-path="url(#clip910)" d="M2026.17 1316.83 L2030.68 1316.83 L2038.78 1338.59 L2046.88 1316.83 L2051.4 1316.83 L2041.68 1342.76 L2035.89 1342.76 L2026.17 1316.83 Z" fill="#000000" fill-rule="evenodd" fill-opacity="1" /><path clip-path="url(#clip910)" d="M2067.51 1306.78 Q2064.41 1312.11 2062.9 1317.32 Q2061.4 1322.52 2061.4 1327.87 Q2061.4 1333.22 2062.9 1338.47 Q2064.43 1343.7 2067.51 1349.01 L2063.81 1349.01 Q2060.33 1343.57 2058.6 1338.31 Q2056.88 1333.06 2056.88 1327.87 Q2056.88 1322.71 2058.6 1317.48 Q2060.31 1312.25 2063.81 1306.78 L2067.51 1306.78 Z" fill="#000000" fill-rule="evenodd" fill-opacity="1" /><path clip-path="url(#clip910)" d="M2075.61 1306.74 L2079.89 1306.74 L2079.89 1328.01 L2092.6 1316.83 L2098.04 1316.83 L2084.29 1328.96 L2098.62 1342.76 L2093.06 1342.76 L2079.89 1330.09 L2079.89 1342.76 L2075.61 1342.76 L2075.61 1306.74 Z" fill="#000000" fill-rule="evenodd" fill-opacity="1" /><path clip-path="url(#clip910)" d="M2102.56 1306.78 L2106.26 1306.78 Q2109.73 1312.25 2111.44 1317.48 Q2113.18 1322.71 2113.18 1327.87 Q2113.18 1333.06 2111.44 1338.31 Q2109.73 1343.57 2106.26 1349.01 L2102.56 1349.01 Q2105.63 1343.7 2107.14 1338.47 Q2108.67 1333.22 2108.67 1327.87 Q2108.67 1322.52 2107.14 1317.32 Q2105.63 1312.11 2102.56 1306.78 Z" fill="#000000" fill-rule="evenodd" fill-opacity="1" /></svg>
