<?xml version="1.0" encoding="utf-8"?>
<svg xmlns="http://www.w3.org/2000/svg" xmlns:xlink="http://www.w3.org/1999/xlink" width="600" height="400" viewBox="0 0 2400 1600">
<defs>
  <clipPath id="clip720">
    <rect x="0" y="0" width="2400" height="1600"/>
  </clipPath>
</defs>
<path clip-path="url(#clip720)" d="M0 1600 L2400 1600 L2400 0 L0 0  Z" fill="#ffffff" fill-rule="evenodd" fill-opacity="1"/>
<defs>
  <clipPath id="clip721">
    <rect x="480" y="0" width="1681" height="1600"/>
  </clipPath>
</defs>
<path clip-path="url(#clip720)" d="M309.866 1423.18 L2352.76 1423.18 L2352.76 47.2441 L309.866 47.2441  Z" fill="#ffffff" fill-rule="evenodd" fill-opacity="1"/>
<defs>
  <clipPath id="clip722">
    <rect x="309" y="47" width="2044" height="1377"/>
  </clipPath>
</defs>
<polyline clip-path="url(#clip722)" style="stroke:#000000; stroke-linecap:round; stroke-linejoin:round; stroke-width:2; stroke-opacity:0.1; fill:none" points="367.683,1423.18 367.683,47.2441 "/>
<polyline clip-path="url(#clip722)" style="stroke:#000000; stroke-linecap:round; stroke-linejoin:round; stroke-width:2; stroke-opacity:0.1; fill:none" points="849.497,1423.18 849.497,47.2441 "/>
<polyline clip-path="url(#clip722)" style="stroke:#000000; stroke-linecap:round; stroke-linejoin:round; stroke-width:2; stroke-opacity:0.1; fill:none" points="1331.31,1423.18 1331.31,47.2441 "/>
<polyline clip-path="url(#clip722)" style="stroke:#000000; stroke-linecap:round; stroke-linejoin:round; stroke-width:2; stroke-opacity:0.1; fill:none" points="1813.12,1423.18 1813.12,47.2441 "/>
<polyline clip-path="url(#clip722)" style="stroke:#000000; stroke-linecap:round; stroke-linejoin:round; stroke-width:2; stroke-opacity:0.1; fill:none" points="2294.94,1423.18 2294.94,47.2441 "/>
<polyline clip-path="url(#clip720)" style="stroke:#000000; stroke-linecap:round; stroke-linejoin:round; stroke-width:4; stroke-opacity:1; fill:none" points="309.866,1423.18 2352.76,1423.18 "/>
<polyline clip-path="url(#clip720)" style="stroke:#000000; stroke-linecap:round; stroke-linejoin:round; stroke-width:4; stroke-opacity:1; fill:none" points="367.683,1423.18 367.683,1404.28 "/>
<polyline clip-path="url(#clip720)" style="stroke:#000000; stroke-linecap:round; stroke-linejoin:round; stroke-width:4; stroke-opacity:1; fill:none" points="849.497,1423.18 849.497,1404.28 "/>
<polyline clip-path="url(#clip720)" style="stroke:#000000; stroke-linecap:round; stroke-linejoin:round; stroke-width:4; stroke-opacity:1; fill:none" points="1331.31,1423.18 1331.31,1404.28 "/>
<polyline clip-path="url(#clip720)" style="stroke:#000000; stroke-linecap:round; stroke-linejoin:round; stroke-width:4; stroke-opacity:1; fill:none" points="1813.12,1423.18 1813.12,1404.28 "/>
<polyline clip-path="url(#clip720)" style="stroke:#000000; stroke-linecap:round; stroke-linejoin:round; stroke-width:4; stroke-opacity:1; fill:none" points="2294.94,1423.18 2294.94,1404.28 "/>
<path clip-path="url(#clip720)" d="M367.683 1454.1 Q364.072 1454.1 362.244 1457.66 Q360.438 1461.2 360.438 1468.33 Q360.438 1475.44 362.244 1479.01 Q364.072 1482.55 367.683 1482.55 Q371.318 1482.55 373.123 1479.01 Q374.952 1475.44 374.952 1468.33 Q374.952 1461.2 373.123 1457.66 Q371.318 1454.1 367.683 1454.1 M367.683 1450.39 Q373.494 1450.39 376.549 1455 Q379.628 1459.58 379.628 1468.33 Q379.628 1477.06 376.549 1481.67 Q373.494 1486.25 367.683 1486.25 Q361.873 1486.25 358.795 1481.67 Q355.739 1477.06 355.739 1468.33 Q355.739 1459.58 358.795 1455 Q361.873 1450.39 367.683 1450.39 Z" fill="#000000" fill-rule="evenodd" fill-opacity="1" /><path clip-path="url(#clip720)" d="M839.879 1481.64 L847.518 1481.64 L847.518 1455.28 L839.208 1456.95 L839.208 1452.69 L847.472 1451.02 L852.148 1451.02 L852.148 1481.64 L859.786 1481.64 L859.786 1485.58 L839.879 1485.58 L839.879 1481.64 Z" fill="#000000" fill-rule="evenodd" fill-opacity="1" /><path clip-path="url(#clip720)" d="M1325.96 1481.64 L1342.28 1481.64 L1342.28 1485.58 L1320.34 1485.58 L1320.34 1481.64 Q1323 1478.89 1327.58 1474.26 Q1332.19 1469.61 1333.37 1468.27 Q1335.62 1465.74 1336.5 1464.01 Q1337.4 1462.25 1337.4 1460.56 Q1337.4 1457.8 1335.45 1456.07 Q1333.53 1454.33 1330.43 1454.33 Q1328.23 1454.33 1325.78 1455.09 Q1323.35 1455.86 1320.57 1457.41 L1320.57 1452.69 Q1323.39 1451.55 1325.85 1450.97 Q1328.3 1450.39 1330.34 1450.39 Q1335.71 1450.39 1338.9 1453.08 Q1342.1 1455.77 1342.1 1460.26 Q1342.1 1462.39 1341.29 1464.31 Q1340.5 1466.2 1338.39 1468.8 Q1337.82 1469.47 1334.71 1472.69 Q1331.61 1475.88 1325.96 1481.64 Z" fill="#000000" fill-rule="evenodd" fill-opacity="1" /><path clip-path="url(#clip720)" d="M1817.37 1466.95 Q1820.73 1467.66 1822.6 1469.93 Q1824.5 1472.2 1824.5 1475.53 Q1824.5 1480.65 1820.98 1483.45 Q1817.46 1486.25 1810.98 1486.25 Q1808.81 1486.25 1806.49 1485.81 Q1804.2 1485.39 1801.75 1484.54 L1801.75 1480.02 Q1803.69 1481.16 1806.01 1481.74 Q1808.32 1482.32 1810.84 1482.32 Q1815.24 1482.32 1817.53 1480.58 Q1819.85 1478.84 1819.85 1475.53 Q1819.85 1472.48 1817.7 1470.77 Q1815.57 1469.03 1811.75 1469.03 L1807.72 1469.03 L1807.72 1465.19 L1811.93 1465.19 Q1815.38 1465.19 1817.21 1463.82 Q1819.04 1462.43 1819.04 1459.84 Q1819.04 1457.18 1817.14 1455.77 Q1815.27 1454.33 1811.75 1454.33 Q1809.83 1454.33 1807.63 1454.75 Q1805.43 1455.16 1802.79 1456.04 L1802.79 1451.88 Q1805.45 1451.14 1807.77 1450.77 Q1810.1 1450.39 1812.16 1450.39 Q1817.49 1450.39 1820.59 1452.83 Q1823.69 1455.23 1823.69 1459.35 Q1823.69 1462.22 1822.05 1464.21 Q1820.4 1466.18 1817.37 1466.95 Z" fill="#000000" fill-rule="evenodd" fill-opacity="1" /><path clip-path="url(#clip720)" d="M2297.95 1455.09 L2286.14 1473.54 L2297.95 1473.54 L2297.95 1455.09 M2296.72 1451.02 L2302.6 1451.02 L2302.6 1473.54 L2307.53 1473.54 L2307.53 1477.43 L2302.6 1477.43 L2302.6 1485.58 L2297.95 1485.58 L2297.95 1477.43 L2282.35 1477.43 L2282.35 1472.92 L2296.72 1451.02 Z" fill="#000000" fill-rule="evenodd" fill-opacity="1" /><path clip-path="url(#clip720)" d="M1336.51 1551.46 L1335.11 1544.11 Q1333.68 1536.57 1328.02 1536.57 Q1323.75 1536.57 1321.81 1540.07 Q1319.36 1544.46 1319.36 1550.25 Q1319.36 1557.25 1321.75 1560.6 Q1324.17 1564 1328.02 1564 Q1332.28 1564 1334.57 1557.22 L1336.51 1551.46 M1339.79 1541.72 L1342.94 1532.4 L1348.16 1532.4 L1341.64 1551.72 L1342.91 1558.69 Q1343.2 1560.25 1344.31 1561.55 Q1345.62 1563.08 1346.64 1563.08 L1349.44 1563.08 L1349.44 1568.04 L1345.94 1568.04 Q1342.94 1568.04 1340.27 1565.37 Q1338.97 1564.03 1338.42 1561.23 Q1336.96 1564.77 1333.97 1567.53 Q1332.57 1568.84 1328.02 1568.84 Q1320.54 1568.84 1316.91 1564 Q1313.18 1559 1313.18 1550.25 Q1313.18 1540.89 1317.23 1536.5 Q1321.71 1531.6 1328.02 1531.6 Q1337.92 1531.6 1339.79 1541.72 Z" fill="#000000" fill-rule="evenodd" fill-opacity="1" /><polyline clip-path="url(#clip722)" style="stroke:#000000; stroke-linecap:round; stroke-linejoin:round; stroke-width:2; stroke-opacity:0.1; fill:none" points="309.866,1188.62 2352.76,1188.62 "/>
<polyline clip-path="url(#clip722)" style="stroke:#000000; stroke-linecap:round; stroke-linejoin:round; stroke-width:2; stroke-opacity:0.1; fill:none" points="309.866,913.012 2352.76,913.012 "/>
<polyline clip-path="url(#clip722)" style="stroke:#000000; stroke-linecap:round; stroke-linejoin:round; stroke-width:2; stroke-opacity:0.1; fill:none" points="309.866,637.403 2352.76,637.403 "/>
<polyline clip-path="url(#clip722)" style="stroke:#000000; stroke-linecap:round; stroke-linejoin:round; stroke-width:2; stroke-opacity:0.1; fill:none" points="309.866,361.795 2352.76,361.795 "/>
<polyline clip-path="url(#clip722)" style="stroke:#000000; stroke-linecap:round; stroke-linejoin:round; stroke-width:2; stroke-opacity:0.1; fill:none" points="309.866,86.1857 2352.76,86.1857 "/>
<polyline clip-path="url(#clip720)" style="stroke:#000000; stroke-linecap:round; stroke-linejoin:round; stroke-width:4; stroke-opacity:1; fill:none" points="309.866,1423.18 309.866,47.2441 "/>
<polyline clip-path="url(#clip720)" style="stroke:#000000; stroke-linecap:round; stroke-linejoin:round; stroke-width:4; stroke-opacity:1; fill:none" points="309.866,1188.62 328.763,1188.62 "/>
<polyline clip-path="url(#clip720)" style="stroke:#000000; stroke-linecap:round; stroke-linejoin:round; stroke-width:4; stroke-opacity:1; fill:none" points="309.866,913.012 328.763,913.012 "/>
<polyline clip-path="url(#clip720)" style="stroke:#000000; stroke-linecap:round; stroke-linejoin:round; stroke-width:4; stroke-opacity:1; fill:none" points="309.866,637.403 328.763,637.403 "/>
<polyline clip-path="url(#clip720)" style="stroke:#000000; stroke-linecap:round; stroke-linejoin:round; stroke-width:4; stroke-opacity:1; fill:none" points="309.866,361.795 328.763,361.795 "/>
<polyline clip-path="url(#clip720)" style="stroke:#000000; stroke-linecap:round; stroke-linejoin:round; stroke-width:4; stroke-opacity:1; fill:none" points="309.866,86.1857 328.763,86.1857 "/>
<path clip-path="url(#clip720)" d="M126.205 1174.42 Q122.593 1174.42 120.765 1177.98 Q118.959 1181.53 118.959 1188.66 Q118.959 1195.76 120.765 1199.33 Q122.593 1202.87 126.205 1202.87 Q129.839 1202.87 131.644 1199.33 Q133.473 1195.76 133.473 1188.66 Q133.473 1181.53 131.644 1177.98 Q129.839 1174.42 126.205 1174.42 M126.205 1170.72 Q132.015 1170.72 135.07 1175.32 Q138.149 1179.91 138.149 1188.66 Q138.149 1197.38 135.07 1201.99 Q132.015 1206.57 126.205 1206.57 Q120.394 1206.57 117.316 1201.99 Q114.26 1197.38 114.26 1188.66 Q114.26 1179.91 117.316 1175.32 Q120.394 1170.72 126.205 1170.72 Z" fill="#000000" fill-rule="evenodd" fill-opacity="1" /><path clip-path="url(#clip720)" d="M146.366 1200.02 L151.251 1200.02 L151.251 1205.9 L146.366 1205.9 L146.366 1200.02 Z" fill="#000000" fill-rule="evenodd" fill-opacity="1" /><path clip-path="url(#clip720)" d="M161.575 1205.18 L161.575 1200.92 Q163.334 1201.76 165.14 1202.2 Q166.945 1202.64 168.681 1202.64 Q173.311 1202.64 175.741 1199.54 Q178.195 1196.41 178.542 1190.07 Q177.2 1192.06 175.139 1193.12 Q173.079 1194.19 170.579 1194.19 Q165.394 1194.19 162.362 1191.06 Q159.353 1187.92 159.353 1182.48 Q159.353 1177.15 162.501 1173.93 Q165.649 1170.72 170.88 1170.72 Q176.876 1170.72 180.024 1175.32 Q183.195 1179.91 183.195 1188.66 Q183.195 1196.83 179.306 1201.71 Q175.44 1206.57 168.889 1206.57 Q167.13 1206.57 165.325 1206.23 Q163.519 1205.88 161.575 1205.18 M170.88 1190.53 Q174.028 1190.53 175.857 1188.38 Q177.709 1186.23 177.709 1182.48 Q177.709 1178.75 175.857 1176.6 Q174.028 1174.42 170.88 1174.42 Q167.732 1174.42 165.88 1176.6 Q164.052 1178.75 164.052 1182.48 Q164.052 1186.23 165.88 1188.38 Q167.732 1190.53 170.88 1190.53 Z" fill="#000000" fill-rule="evenodd" fill-opacity="1" /><path clip-path="url(#clip720)" d="M191.737 1205.18 L191.737 1200.92 Q193.496 1201.76 195.301 1202.2 Q197.107 1202.64 198.843 1202.64 Q203.473 1202.64 205.903 1199.54 Q208.357 1196.41 208.704 1190.07 Q207.362 1192.06 205.301 1193.12 Q203.241 1194.19 200.741 1194.19 Q195.556 1194.19 192.524 1191.06 Q189.514 1187.92 189.514 1182.48 Q189.514 1177.15 192.663 1173.93 Q195.811 1170.72 201.042 1170.72 Q207.037 1170.72 210.186 1175.32 Q213.357 1179.91 213.357 1188.66 Q213.357 1196.83 209.468 1201.71 Q205.602 1206.57 199.051 1206.57 Q197.292 1206.57 195.487 1206.23 Q193.681 1205.88 191.737 1205.18 M201.042 1190.53 Q204.19 1190.53 206.019 1188.38 Q207.871 1186.23 207.871 1182.48 Q207.871 1178.75 206.019 1176.6 Q204.19 1174.42 201.042 1174.42 Q197.894 1174.42 196.042 1176.6 Q194.213 1178.75 194.213 1182.48 Q194.213 1186.23 196.042 1188.38 Q197.894 1190.53 201.042 1190.53 Z" fill="#000000" fill-rule="evenodd" fill-opacity="1" /><path clip-path="url(#clip720)" d="M231.76 1174.42 Q228.148 1174.42 226.32 1177.98 Q224.514 1181.53 224.514 1188.66 Q224.514 1195.76 226.32 1199.33 Q228.148 1202.87 231.76 1202.87 Q235.394 1202.87 237.199 1199.33 Q239.028 1195.76 239.028 1188.66 Q239.028 1181.53 237.199 1177.98 Q235.394 1174.42 231.76 1174.42 M231.76 1170.72 Q237.57 1170.72 240.625 1175.32 Q243.704 1179.91 243.704 1188.66 Q243.704 1197.38 240.625 1201.99 Q237.57 1206.57 231.76 1206.57 Q225.949 1206.57 222.871 1201.99 Q219.815 1197.38 219.815 1188.66 Q219.815 1179.91 222.871 1175.32 Q225.949 1170.72 231.76 1170.72 Z" fill="#000000" fill-rule="evenodd" fill-opacity="1" /><path clip-path="url(#clip720)" d="M261.921 1174.42 Q258.31 1174.42 256.482 1177.98 Q254.676 1181.53 254.676 1188.66 Q254.676 1195.76 256.482 1199.33 Q258.31 1202.87 261.921 1202.87 Q265.556 1202.87 267.361 1199.33 Q269.19 1195.76 269.19 1188.66 Q269.19 1181.53 267.361 1177.98 Q265.556 1174.42 261.921 1174.42 M261.921 1170.72 Q267.732 1170.72 270.787 1175.32 Q273.866 1179.91 273.866 1188.66 Q273.866 1197.38 270.787 1201.99 Q267.732 1206.57 261.921 1206.57 Q256.111 1206.57 253.033 1201.99 Q249.977 1197.38 249.977 1188.66 Q249.977 1179.91 253.033 1175.32 Q256.111 1170.72 261.921 1170.72 Z" fill="#000000" fill-rule="evenodd" fill-opacity="1" /><path clip-path="url(#clip720)" d="M127.2 898.811 Q123.589 898.811 121.76 902.376 Q119.955 905.917 119.955 913.047 Q119.955 920.153 121.76 923.718 Q123.589 927.26 127.2 927.26 Q130.834 927.26 132.64 923.718 Q134.468 920.153 134.468 913.047 Q134.468 905.917 132.64 902.376 Q130.834 898.811 127.2 898.811 M127.2 895.107 Q133.01 895.107 136.066 899.714 Q139.144 904.297 139.144 913.047 Q139.144 921.774 136.066 926.38 Q133.01 930.964 127.2 930.964 Q121.39 930.964 118.311 926.38 Q115.256 921.774 115.256 913.047 Q115.256 904.297 118.311 899.714 Q121.39 895.107 127.2 895.107 Z" fill="#000000" fill-rule="evenodd" fill-opacity="1" /><path clip-path="url(#clip720)" d="M147.362 924.413 L152.246 924.413 L152.246 930.292 L147.362 930.292 L147.362 924.413 Z" fill="#000000" fill-rule="evenodd" fill-opacity="1" /><path clip-path="url(#clip720)" d="M162.57 929.575 L162.57 925.315 Q164.329 926.149 166.135 926.589 Q167.94 927.028 169.677 927.028 Q174.306 927.028 176.737 923.927 Q179.19 920.802 179.538 914.459 Q178.195 916.45 176.135 917.515 Q174.075 918.579 171.575 918.579 Q166.39 918.579 163.357 915.454 Q160.348 912.306 160.348 906.866 Q160.348 901.542 163.496 898.325 Q166.644 895.107 171.876 895.107 Q177.871 895.107 181.019 899.714 Q184.19 904.297 184.19 913.047 Q184.19 921.218 180.301 926.102 Q176.436 930.964 169.885 930.964 Q168.126 930.964 166.32 930.616 Q164.515 930.269 162.57 929.575 M171.876 914.922 Q175.024 914.922 176.852 912.769 Q178.704 910.616 178.704 906.866 Q178.704 903.14 176.852 900.987 Q175.024 898.811 171.876 898.811 Q168.727 898.811 166.876 900.987 Q165.047 903.14 165.047 906.866 Q165.047 910.616 166.876 912.769 Q168.727 914.922 171.876 914.922 Z" fill="#000000" fill-rule="evenodd" fill-opacity="1" /><path clip-path="url(#clip720)" d="M192.732 929.575 L192.732 925.315 Q194.491 926.149 196.297 926.589 Q198.102 927.028 199.838 927.028 Q204.468 927.028 206.899 923.927 Q209.352 920.802 209.699 914.459 Q208.357 916.45 206.297 917.515 Q204.237 918.579 201.737 918.579 Q196.551 918.579 193.519 915.454 Q190.51 912.306 190.51 906.866 Q190.51 901.542 193.658 898.325 Q196.806 895.107 202.037 895.107 Q208.033 895.107 211.181 899.714 Q214.352 904.297 214.352 913.047 Q214.352 921.218 210.463 926.102 Q206.598 930.964 200.047 930.964 Q198.287 930.964 196.482 930.616 Q194.676 930.269 192.732 929.575 M202.037 914.922 Q205.186 914.922 207.014 912.769 Q208.866 910.616 208.866 906.866 Q208.866 903.14 207.014 900.987 Q205.186 898.811 202.037 898.811 Q198.889 898.811 197.037 900.987 Q195.209 903.14 195.209 906.866 Q195.209 910.616 197.037 912.769 Q198.889 914.922 202.037 914.922 Z" fill="#000000" fill-rule="evenodd" fill-opacity="1" /><path clip-path="url(#clip720)" d="M226.783 926.357 L243.102 926.357 L243.102 930.292 L221.158 930.292 L221.158 926.357 Q223.82 923.603 228.403 918.973 Q233.01 914.32 234.19 912.978 Q236.435 910.454 237.315 908.718 Q238.218 906.959 238.218 905.269 Q238.218 902.515 236.273 900.779 Q234.352 899.042 231.25 899.042 Q229.051 899.042 226.598 899.806 Q224.167 900.57 221.389 902.121 L221.389 897.399 Q224.213 896.265 226.667 895.686 Q229.121 895.107 231.158 895.107 Q236.528 895.107 239.722 897.792 Q242.917 900.478 242.917 904.968 Q242.917 907.098 242.107 909.019 Q241.32 910.917 239.213 913.51 Q238.634 914.181 235.533 917.399 Q232.431 920.593 226.783 926.357 Z" fill="#000000" fill-rule="evenodd" fill-opacity="1" /><path clip-path="url(#clip720)" d="M252.963 895.732 L271.32 895.732 L271.32 899.667 L257.246 899.667 L257.246 908.14 Q258.264 907.792 259.283 907.63 Q260.301 907.445 261.32 907.445 Q267.107 907.445 270.486 910.616 Q273.866 913.788 273.866 919.204 Q273.866 924.783 270.394 927.885 Q266.921 930.964 260.602 930.964 Q258.426 930.964 256.158 930.593 Q253.912 930.223 251.505 929.482 L251.505 924.783 Q253.588 925.917 255.81 926.473 Q258.033 927.028 260.509 927.028 Q264.514 927.028 266.852 924.922 Q269.19 922.815 269.19 919.204 Q269.19 915.593 266.852 913.487 Q264.514 911.38 260.509 911.38 Q258.634 911.38 256.759 911.797 Q254.908 912.214 252.963 913.093 L252.963 895.732 Z" fill="#000000" fill-rule="evenodd" fill-opacity="1" /><path clip-path="url(#clip720)" d="M126.205 623.202 Q122.593 623.202 120.765 626.767 Q118.959 630.309 118.959 637.438 Q118.959 644.545 120.765 648.109 Q122.593 651.651 126.205 651.651 Q129.839 651.651 131.644 648.109 Q133.473 644.545 133.473 637.438 Q133.473 630.309 131.644 626.767 Q129.839 623.202 126.205 623.202 M126.205 619.498 Q132.015 619.498 135.07 624.105 Q138.149 628.688 138.149 637.438 Q138.149 646.165 135.07 650.771 Q132.015 655.355 126.205 655.355 Q120.394 655.355 117.316 650.771 Q114.26 646.165 114.26 637.438 Q114.26 628.688 117.316 624.105 Q120.394 619.498 126.205 619.498 Z" fill="#000000" fill-rule="evenodd" fill-opacity="1" /><path clip-path="url(#clip720)" d="M146.366 648.804 L151.251 648.804 L151.251 654.683 L146.366 654.683 L146.366 648.804 Z" fill="#000000" fill-rule="evenodd" fill-opacity="1" /><path clip-path="url(#clip720)" d="M161.575 653.966 L161.575 649.707 Q163.334 650.54 165.14 650.98 Q166.945 651.42 168.681 651.42 Q173.311 651.42 175.741 648.318 Q178.195 645.193 178.542 638.85 Q177.2 640.841 175.139 641.906 Q173.079 642.971 170.579 642.971 Q165.394 642.971 162.362 639.846 Q159.353 636.697 159.353 631.258 Q159.353 625.934 162.501 622.716 Q165.649 619.498 170.88 619.498 Q176.876 619.498 180.024 624.105 Q183.195 628.688 183.195 637.438 Q183.195 645.609 179.306 650.494 Q175.44 655.355 168.889 655.355 Q167.13 655.355 165.325 655.007 Q163.519 654.66 161.575 653.966 M170.88 639.313 Q174.028 639.313 175.857 637.16 Q177.709 635.008 177.709 631.258 Q177.709 627.531 175.857 625.378 Q174.028 623.202 170.88 623.202 Q167.732 623.202 165.88 625.378 Q164.052 627.531 164.052 631.258 Q164.052 635.008 165.88 637.16 Q167.732 639.313 170.88 639.313 Z" fill="#000000" fill-rule="evenodd" fill-opacity="1" /><path clip-path="url(#clip720)" d="M191.737 653.966 L191.737 649.707 Q193.496 650.54 195.301 650.98 Q197.107 651.42 198.843 651.42 Q203.473 651.42 205.903 648.318 Q208.357 645.193 208.704 638.85 Q207.362 640.841 205.301 641.906 Q203.241 642.971 200.741 642.971 Q195.556 642.971 192.524 639.846 Q189.514 636.697 189.514 631.258 Q189.514 625.934 192.663 622.716 Q195.811 619.498 201.042 619.498 Q207.037 619.498 210.186 624.105 Q213.357 628.688 213.357 637.438 Q213.357 645.609 209.468 650.494 Q205.602 655.355 199.051 655.355 Q197.292 655.355 195.487 655.007 Q193.681 654.66 191.737 653.966 M201.042 639.313 Q204.19 639.313 206.019 637.16 Q207.871 635.008 207.871 631.258 Q207.871 627.531 206.019 625.378 Q204.19 623.202 201.042 623.202 Q197.894 623.202 196.042 625.378 Q194.213 627.531 194.213 631.258 Q194.213 635.008 196.042 637.16 Q197.894 639.313 201.042 639.313 Z" fill="#000000" fill-rule="evenodd" fill-opacity="1" /><path clip-path="url(#clip720)" d="M221.806 620.123 L240.162 620.123 L240.162 624.059 L226.088 624.059 L226.088 632.531 Q227.107 632.184 228.125 632.021 Q229.144 631.836 230.162 631.836 Q235.949 631.836 239.329 635.008 Q242.709 638.179 242.709 643.596 Q242.709 649.174 239.236 652.276 Q235.764 655.355 229.445 655.355 Q227.269 655.355 225 654.984 Q222.755 654.614 220.348 653.873 L220.348 649.174 Q222.431 650.308 224.653 650.864 Q226.875 651.42 229.352 651.42 Q233.357 651.42 235.695 649.313 Q238.033 647.207 238.033 643.596 Q238.033 639.984 235.695 637.878 Q233.357 635.771 229.352 635.771 Q227.477 635.771 225.602 636.188 Q223.75 636.605 221.806 637.484 L221.806 620.123 Z" fill="#000000" fill-rule="evenodd" fill-opacity="1" /><path clip-path="url(#clip720)" d="M261.921 623.202 Q258.31 623.202 256.482 626.767 Q254.676 630.309 254.676 637.438 Q254.676 644.545 256.482 648.109 Q258.31 651.651 261.921 651.651 Q265.556 651.651 267.361 648.109 Q269.19 644.545 269.19 637.438 Q269.19 630.309 267.361 626.767 Q265.556 623.202 261.921 623.202 M261.921 619.498 Q267.732 619.498 270.787 624.105 Q273.866 628.688 273.866 637.438 Q273.866 646.165 270.787 650.771 Q267.732 655.355 261.921 655.355 Q256.111 655.355 253.033 650.771 Q249.977 646.165 249.977 637.438 Q249.977 628.688 253.033 624.105 Q256.111 619.498 261.921 619.498 Z" fill="#000000" fill-rule="evenodd" fill-opacity="1" /><path clip-path="url(#clip720)" d="M127.2 347.593 Q123.589 347.593 121.76 351.158 Q119.955 354.7 119.955 361.829 Q119.955 368.936 121.76 372.501 Q123.589 376.042 127.2 376.042 Q130.834 376.042 132.64 372.501 Q134.468 368.936 134.468 361.829 Q134.468 354.7 132.64 351.158 Q130.834 347.593 127.2 347.593 M127.2 343.89 Q133.01 343.89 136.066 348.496 Q139.144 353.079 139.144 361.829 Q139.144 370.556 136.066 375.163 Q133.01 379.746 127.2 379.746 Q121.39 379.746 118.311 375.163 Q115.256 370.556 115.256 361.829 Q115.256 353.079 118.311 348.496 Q121.39 343.89 127.2 343.89 Z" fill="#000000" fill-rule="evenodd" fill-opacity="1" /><path clip-path="url(#clip720)" d="M147.362 373.195 L152.246 373.195 L152.246 379.075 L147.362 379.075 L147.362 373.195 Z" fill="#000000" fill-rule="evenodd" fill-opacity="1" /><path clip-path="url(#clip720)" d="M162.57 378.357 L162.57 374.098 Q164.329 374.931 166.135 375.371 Q167.94 375.811 169.677 375.811 Q174.306 375.811 176.737 372.709 Q179.19 369.584 179.538 363.241 Q178.195 365.232 176.135 366.297 Q174.075 367.362 171.575 367.362 Q166.39 367.362 163.357 364.237 Q160.348 361.089 160.348 355.649 Q160.348 350.325 163.496 347.107 Q166.644 343.89 171.876 343.89 Q177.871 343.89 181.019 348.496 Q184.19 353.079 184.19 361.829 Q184.19 370.001 180.301 374.885 Q176.436 379.746 169.885 379.746 Q168.126 379.746 166.32 379.399 Q164.515 379.051 162.57 378.357 M171.876 363.704 Q175.024 363.704 176.852 361.551 Q178.704 359.399 178.704 355.649 Q178.704 351.922 176.852 349.769 Q175.024 347.593 171.876 347.593 Q168.727 347.593 166.876 349.769 Q165.047 351.922 165.047 355.649 Q165.047 359.399 166.876 361.551 Q168.727 363.704 171.876 363.704 Z" fill="#000000" fill-rule="evenodd" fill-opacity="1" /><path clip-path="url(#clip720)" d="M192.732 378.357 L192.732 374.098 Q194.491 374.931 196.297 375.371 Q198.102 375.811 199.838 375.811 Q204.468 375.811 206.899 372.709 Q209.352 369.584 209.699 363.241 Q208.357 365.232 206.297 366.297 Q204.237 367.362 201.737 367.362 Q196.551 367.362 193.519 364.237 Q190.51 361.089 190.51 355.649 Q190.51 350.325 193.658 347.107 Q196.806 343.89 202.037 343.89 Q208.033 343.89 211.181 348.496 Q214.352 353.079 214.352 361.829 Q214.352 370.001 210.463 374.885 Q206.598 379.746 200.047 379.746 Q198.287 379.746 196.482 379.399 Q194.676 379.051 192.732 378.357 M202.037 363.704 Q205.186 363.704 207.014 361.551 Q208.866 359.399 208.866 355.649 Q208.866 351.922 207.014 349.769 Q205.186 347.593 202.037 347.593 Q198.889 347.593 197.037 349.769 Q195.209 351.922 195.209 355.649 Q195.209 359.399 197.037 361.551 Q198.889 363.704 202.037 363.704 Z" fill="#000000" fill-rule="evenodd" fill-opacity="1" /><path clip-path="url(#clip720)" d="M221.574 344.515 L243.797 344.515 L243.797 346.505 L231.25 379.075 L226.366 379.075 L238.172 348.45 L221.574 348.45 L221.574 344.515 Z" fill="#000000" fill-rule="evenodd" fill-opacity="1" /><path clip-path="url(#clip720)" d="M252.963 344.515 L271.32 344.515 L271.32 348.45 L257.246 348.45 L257.246 356.922 Q258.264 356.575 259.283 356.413 Q260.301 356.227 261.32 356.227 Q267.107 356.227 270.486 359.399 Q273.866 362.57 273.866 367.987 Q273.866 373.565 270.394 376.667 Q266.921 379.746 260.602 379.746 Q258.426 379.746 256.158 379.375 Q253.912 379.005 251.505 378.264 L251.505 373.565 Q253.588 374.7 255.81 375.255 Q258.033 375.811 260.509 375.811 Q264.514 375.811 266.852 373.704 Q269.19 371.598 269.19 367.987 Q269.19 364.376 266.852 362.269 Q264.514 360.163 260.509 360.163 Q258.634 360.163 256.759 360.579 Q254.908 360.996 252.963 361.876 L252.963 344.515 Z" fill="#000000" fill-rule="evenodd" fill-opacity="1" /><path clip-path="url(#clip720)" d="M117.015 99.5305 L124.654 99.5305 L124.654 73.1649 L116.343 74.8316 L116.343 70.5723 L124.607 68.9057 L129.283 68.9057 L129.283 99.5305 L136.922 99.5305 L136.922 103.466 L117.015 103.466 L117.015 99.5305 Z" fill="#000000" fill-rule="evenodd" fill-opacity="1" /><path clip-path="url(#clip720)" d="M146.366 97.5861 L151.251 97.5861 L151.251 103.466 L146.366 103.466 L146.366 97.5861 Z" fill="#000000" fill-rule="evenodd" fill-opacity="1" /><path clip-path="url(#clip720)" d="M171.436 71.9844 Q167.825 71.9844 165.996 75.5492 Q164.19 79.0908 164.19 86.2204 Q164.19 93.3268 165.996 96.8916 Q167.825 100.433 171.436 100.433 Q175.07 100.433 176.876 96.8916 Q178.704 93.3268 178.704 86.2204 Q178.704 79.0908 176.876 75.5492 Q175.07 71.9844 171.436 71.9844 M171.436 68.2807 Q177.246 68.2807 180.301 72.8871 Q183.38 77.4704 183.38 86.2204 Q183.38 94.9472 180.301 99.5537 Q177.246 104.137 171.436 104.137 Q165.626 104.137 162.547 99.5537 Q159.491 94.9472 159.491 86.2204 Q159.491 77.4704 162.547 72.8871 Q165.626 68.2807 171.436 68.2807 Z" fill="#000000" fill-rule="evenodd" fill-opacity="1" /><path clip-path="url(#clip720)" d="M201.598 71.9844 Q197.987 71.9844 196.158 75.5492 Q194.352 79.0908 194.352 86.2204 Q194.352 93.3268 196.158 96.8916 Q197.987 100.433 201.598 100.433 Q205.232 100.433 207.037 96.8916 Q208.866 93.3268 208.866 86.2204 Q208.866 79.0908 207.037 75.5492 Q205.232 71.9844 201.598 71.9844 M201.598 68.2807 Q207.408 68.2807 210.463 72.8871 Q213.542 77.4704 213.542 86.2204 Q213.542 94.9472 210.463 99.5537 Q207.408 104.137 201.598 104.137 Q195.787 104.137 192.709 99.5537 Q189.653 94.9472 189.653 86.2204 Q189.653 77.4704 192.709 72.8871 Q195.787 68.2807 201.598 68.2807 Z" fill="#000000" fill-rule="evenodd" fill-opacity="1" /><path clip-path="url(#clip720)" d="M231.76 71.9844 Q228.148 71.9844 226.32 75.5492 Q224.514 79.0908 224.514 86.2204 Q224.514 93.3268 226.32 96.8916 Q228.148 100.433 231.76 100.433 Q235.394 100.433 237.199 96.8916 Q239.028 93.3268 239.028 86.2204 Q239.028 79.0908 237.199 75.5492 Q235.394 71.9844 231.76 71.9844 M231.76 68.2807 Q237.57 68.2807 240.625 72.8871 Q243.704 77.4704 243.704 86.2204 Q243.704 94.9472 240.625 99.5537 Q237.57 104.137 231.76 104.137 Q225.949 104.137 222.871 99.5537 Q219.815 94.9472 219.815 86.2204 Q219.815 77.4704 222.871 72.8871 Q225.949 68.2807 231.76 68.2807 Z" fill="#000000" fill-rule="evenodd" fill-opacity="1" /><path clip-path="url(#clip720)" d="M261.921 71.9844 Q258.31 71.9844 256.482 75.5492 Q254.676 79.0908 254.676 86.2204 Q254.676 93.3268 256.482 96.8916 Q258.31 100.433 261.921 100.433 Q265.556 100.433 267.361 96.8916 Q269.19 93.3268 269.19 86.2204 Q269.19 79.0908 267.361 75.5492 Q265.556 71.9844 261.921 71.9844 M261.921 68.2807 Q267.732 68.2807 270.787 72.8871 Q273.866 77.4704 273.866 86.2204 Q273.866 94.9472 270.787 99.5537 Q267.732 104.137 261.921 104.137 Q256.111 104.137 253.033 99.5537 Q249.977 94.9472 249.977 86.2204 Q249.977 77.4704 253.033 72.8871 Q256.111 68.2807 261.921 68.2807 Z" fill="#000000" fill-rule="evenodd" fill-opacity="1" /><path clip-path="url(#clip720)" d="M14.479 1108.43 L14.479 1102.58 L64.0042 1102.58 L64.0042 1108.43 L14.479 1108.43 Z" fill="#000000" fill-rule="evenodd" fill-opacity="1" /><path clip-path="url(#clip720)" d="M46.0847 1074.12 Q46.0847 1081.22 47.7079 1083.96 Q49.3312 1086.69 53.2461 1086.69 Q56.3653 1086.69 58.2114 1084.66 Q60.0256 1082.59 60.0256 1079.06 Q60.0256 1074.19 56.5881 1071.26 Q53.1188 1068.3 47.3897 1068.3 L46.0847 1068.3 L46.0847 1074.12 M43.6657 1062.44 L64.0042 1062.44 L64.0042 1068.3 L58.5933 1068.3 Q61.8398 1070.3 63.3994 1073.29 Q64.9272 1076.29 64.9272 1080.62 Q64.9272 1086.09 61.8716 1089.34 Q58.7843 1092.55 53.6281 1092.55 Q47.6125 1092.55 44.5569 1088.54 Q41.5014 1084.5 41.5014 1076.51 L41.5014 1068.3 L40.9285 1068.3 Q36.8862 1068.3 34.6901 1070.97 Q32.4621 1073.61 32.4621 1078.42 Q32.4621 1081.47 33.1941 1084.37 Q33.9262 1087.27 35.3903 1089.94 L29.9795 1089.94 Q28.7381 1086.73 28.1334 1083.7 Q27.4968 1080.68 27.4968 1077.81 Q27.4968 1070.08 31.5072 1066.26 Q35.5176 1062.44 43.6657 1062.44 Z" fill="#000000" fill-rule="evenodd" fill-opacity="1" /><path clip-path="url(#clip720)" d="M35.1993 1022.62 Q31.2526 1020.43 29.3747 1017.37 Q27.4968 1014.32 27.4968 1010.18 Q27.4968 1004.61 31.4117 1001.58 Q35.2948 998.561 42.4881 998.561 L64.0042 998.561 L64.0042 1004.45 L42.679 1004.45 Q37.5546 1004.45 35.072 1006.26 Q32.5894 1008.08 32.5894 1011.8 Q32.5894 1016.35 35.6131 1019 Q38.6368 1021.64 43.8567 1021.64 L64.0042 1021.64 L64.0042 1027.53 L42.679 1027.53 Q37.5228 1027.53 35.072 1029.34 Q32.5894 1031.15 32.5894 1034.94 Q32.5894 1039.43 35.6449 1042.07 Q38.6686 1044.71 43.8567 1044.71 L64.0042 1044.71 L64.0042 1050.6 L28.3562 1050.6 L28.3562 1044.71 L33.8944 1044.71 Q30.616 1042.71 29.0564 1039.91 Q27.4968 1037.11 27.4968 1033.25 Q27.4968 1029.37 29.4702 1026.67 Q31.4436 1023.93 35.1993 1022.62 Z" fill="#000000" fill-rule="evenodd" fill-opacity="1" /><path clip-path="url(#clip720)" d="M46.212 961.29 Q39.7508 961.29 36.0905 963.964 Q32.3984 966.605 32.3984 971.252 Q32.3984 975.899 36.0905 978.573 Q39.7508 981.215 46.212 981.215 Q52.6732 981.215 56.3653 978.573 Q60.0256 975.899 60.0256 971.252 Q60.0256 966.605 56.3653 963.964 Q52.6732 961.29 46.212 961.29 M33.7671 981.215 Q30.5842 979.369 29.0564 976.568 Q27.4968 973.735 27.4968 969.82 Q27.4968 963.327 32.6531 959.285 Q37.8093 955.211 46.212 955.211 Q54.6147 955.211 59.771 959.285 Q64.9272 963.327 64.9272 969.82 Q64.9272 973.735 63.3994 976.568 Q61.8398 979.369 58.657 981.215 L64.0042 981.215 L64.0042 987.103 L14.479 987.103 L14.479 981.215 L33.7671 981.215 Z" fill="#000000" fill-rule="evenodd" fill-opacity="1" /><path clip-path="url(#clip720)" d="M29.4065 902.057 L34.9447 902.057 Q33.6716 904.54 33.035 907.213 Q32.3984 909.887 32.3984 912.752 Q32.3984 917.112 33.7352 919.308 Q35.072 921.473 37.7456 921.473 Q39.7826 921.473 40.9603 919.913 Q42.1061 918.353 43.1565 913.643 L43.6021 911.638 Q44.9389 905.399 47.3897 902.789 Q49.8086 900.147 54.1691 900.147 Q59.1344 900.147 62.0308 904.094 Q64.9272 908.009 64.9272 914.884 Q64.9272 917.749 64.3543 920.868 Q63.8132 923.955 62.6992 927.393 L56.6518 927.393 Q58.3387 924.146 59.198 920.995 Q60.0256 917.844 60.0256 914.757 Q60.0256 910.619 58.6251 908.391 Q57.1929 906.163 54.6147 906.163 Q52.2276 906.163 50.9545 907.786 Q49.6813 909.378 48.5037 914.82 L48.0262 916.857 Q46.8804 922.3 44.5251 924.719 Q42.138 927.138 38.0002 927.138 Q32.9713 927.138 30.2341 923.573 Q27.4968 920.008 27.4968 913.452 Q27.4968 910.205 27.9743 907.341 Q28.4517 904.476 29.4065 902.057 Z" fill="#000000" fill-rule="evenodd" fill-opacity="1" /><path clip-path="url(#clip720)" d="M42.4881 861.189 L64.0042 861.189 L64.0042 867.046 L42.679 867.046 Q37.6183 867.046 35.1038 869.019 Q32.5894 870.992 32.5894 874.939 Q32.5894 879.682 35.6131 882.419 Q38.6368 885.156 43.8567 885.156 L64.0042 885.156 L64.0042 891.044 L14.479 891.044 L14.479 885.156 L33.8944 885.156 Q30.6797 883.056 29.0883 880.223 Q27.4968 877.358 27.4968 873.634 Q27.4968 867.491 31.3163 864.34 Q35.1038 861.189 42.4881 861.189 Z" fill="#000000" fill-rule="evenodd" fill-opacity="1" /><path clip-path="url(#clip720)" d="M28.3562 849.508 L28.3562 843.652 L64.0042 843.652 L64.0042 849.508 L28.3562 849.508 M14.479 849.508 L14.479 843.652 L21.895 843.652 L21.895 849.508 L14.479 849.508 Z" fill="#000000" fill-rule="evenodd" fill-opacity="1" /><path clip-path="url(#clip720)" d="M14.479 813.351 L19.3487 813.351 L19.3487 818.953 Q19.3487 822.104 20.6219 823.345 Q21.895 824.555 25.2052 824.555 L28.3562 824.555 L28.3562 814.911 L32.9077 814.911 L32.9077 824.555 L64.0042 824.555 L64.0042 830.443 L32.9077 830.443 L32.9077 836.045 L28.3562 836.045 L28.3562 830.443 L25.8736 830.443 Q19.9216 830.443 17.2162 827.674 Q14.479 824.905 14.479 818.889 L14.479 813.351 Z" fill="#000000" fill-rule="evenodd" fill-opacity="1" /><path clip-path="url(#clip720)" d="M18.2347 803.802 L28.3562 803.802 L28.3562 791.739 L32.9077 791.739 L32.9077 803.802 L52.2594 803.802 Q56.6199 803.802 57.8613 802.625 Q59.1026 801.415 59.1026 797.755 L59.1026 791.739 L64.0042 791.739 L64.0042 797.755 Q64.0042 804.535 61.4897 807.113 Q58.9434 809.691 52.2594 809.691 L32.9077 809.691 L32.9077 813.988 L28.3562 813.988 L28.3562 809.691 L18.2347 809.691 L18.2347 803.802 Z" fill="#000000" fill-rule="evenodd" fill-opacity="1" /><path clip-path="url(#clip720)" d="M14.5426 749.248 Q21.8632 753.513 29.0246 755.582 Q36.186 757.651 43.5384 757.651 Q50.8908 757.651 58.1159 755.582 Q65.3091 753.482 72.5979 749.248 L72.5979 754.341 Q65.1182 759.115 57.8931 761.502 Q50.668 763.858 43.5384 763.858 Q36.4406 763.858 29.2474 761.502 Q22.0542 759.147 14.5426 754.341 L14.5426 749.248 Z" fill="#000000" fill-rule="evenodd" fill-opacity="1" /><path clip-path="url(#clip720)" d="M42.4881 708.253 L64.0042 708.253 L64.0042 714.11 L42.679 714.11 Q37.6183 714.11 35.1038 716.083 Q32.5894 718.056 32.5894 722.003 Q32.5894 726.746 35.6131 729.483 Q38.6368 732.22 43.8567 732.22 L64.0042 732.22 L64.0042 738.108 L28.3562 738.108 L28.3562 732.22 L33.8944 732.22 Q30.6797 730.119 29.0883 727.287 Q27.4968 724.422 27.4968 720.698 Q27.4968 714.555 31.3163 711.404 Q35.1038 708.253 42.4881 708.253 Z" fill="#000000" fill-rule="evenodd" fill-opacity="1" /><path clip-path="url(#clip720)" d="M32.4621 682.759 Q32.4621 687.469 36.1542 690.206 Q39.8145 692.944 46.212 692.944 Q52.6095 692.944 56.3017 690.238 Q59.9619 687.501 59.9619 682.759 Q59.9619 678.08 56.2698 675.342 Q52.5777 672.605 46.212 672.605 Q39.8781 672.605 36.186 675.342 Q32.4621 678.08 32.4621 682.759 M27.4968 682.759 Q27.4968 675.12 32.4621 670.759 Q37.4273 666.399 46.212 666.399 Q54.9649 666.399 59.9619 670.759 Q64.9272 675.12 64.9272 682.759 Q64.9272 690.429 59.9619 694.79 Q54.9649 699.118 46.212 699.118 Q37.4273 699.118 32.4621 694.79 Q27.4968 690.429 27.4968 682.759 Z" fill="#000000" fill-rule="evenodd" fill-opacity="1" /><path clip-path="url(#clip720)" d="M33.8307 636.034 Q33.2578 637.021 33.0032 638.199 Q32.7167 639.344 32.7167 640.745 Q32.7167 645.71 35.9632 648.384 Q39.1779 651.025 45.2253 651.025 L64.0042 651.025 L64.0042 656.914 L28.3562 656.914 L28.3562 651.025 L33.8944 651.025 Q30.6479 649.179 29.0883 646.219 Q27.4968 643.259 27.4968 639.026 Q27.4968 638.421 27.5923 637.689 Q27.656 636.957 27.8151 636.066 L33.8307 636.034 Z" fill="#000000" fill-rule="evenodd" fill-opacity="1" /><path clip-path="url(#clip720)" d="M35.1993 603.283 Q31.2526 601.087 29.3747 598.031 Q27.4968 594.975 27.4968 590.838 Q27.4968 585.268 31.4117 582.244 Q35.2948 579.22 42.4881 579.22 L64.0042 579.22 L64.0042 585.109 L42.679 585.109 Q37.5546 585.109 35.072 586.923 Q32.5894 588.737 32.5894 592.461 Q32.5894 597.012 35.6131 599.654 Q38.6368 602.296 43.8567 602.296 L64.0042 602.296 L64.0042 608.184 L42.679 608.184 Q37.5228 608.184 35.072 609.999 Q32.5894 611.813 32.5894 615.6 Q32.5894 620.088 35.6449 622.73 Q38.6686 625.372 43.8567 625.372 L64.0042 625.372 L64.0042 631.26 L28.3562 631.26 L28.3562 625.372 L33.8944 625.372 Q30.616 623.367 29.0564 620.566 Q27.4968 617.765 27.4968 613.913 Q27.4968 610.03 29.4702 607.325 Q31.4436 604.588 35.1993 603.283 Z" fill="#000000" fill-rule="evenodd" fill-opacity="1" /><path clip-path="url(#clip720)" d="M46.0847 551.339 Q46.0847 558.436 47.7079 561.174 Q49.3312 563.911 53.2461 563.911 Q56.3653 563.911 58.2114 561.874 Q60.0256 559.805 60.0256 556.272 Q60.0256 551.402 56.5881 548.474 Q53.1188 545.514 47.3897 545.514 L46.0847 545.514 L46.0847 551.339 M43.6657 539.657 L64.0042 539.657 L64.0042 545.514 L58.5933 545.514 Q61.8398 547.519 63.3994 550.511 Q64.9272 553.503 64.9272 557.832 Q64.9272 563.306 61.8716 566.553 Q58.7843 569.767 53.6281 569.767 Q47.6125 569.767 44.5569 565.757 Q41.5014 561.715 41.5014 553.726 L41.5014 545.514 L40.9285 545.514 Q36.8862 545.514 34.6901 548.188 Q32.4621 550.829 32.4621 555.635 Q32.4621 558.691 33.1941 561.587 Q33.9262 564.484 35.3903 567.157 L29.9795 567.157 Q28.7381 563.943 28.1334 560.919 Q27.4968 557.895 27.4968 555.031 Q27.4968 547.296 31.5072 543.477 Q35.5176 539.657 43.6657 539.657 Z" fill="#000000" fill-rule="evenodd" fill-opacity="1" /><path clip-path="url(#clip720)" d="M14.479 527.594 L14.479 521.738 L64.0042 521.738 L64.0042 527.594 L14.479 527.594 Z" fill="#000000" fill-rule="evenodd" fill-opacity="1" /><path clip-path="url(#clip720)" d="M28.3562 509.484 L28.3562 503.628 L64.0042 503.628 L64.0042 509.484 L28.3562 509.484 M14.479 509.484 L14.479 503.628 L21.895 503.628 L21.895 509.484 L14.479 509.484 Z" fill="#000000" fill-rule="evenodd" fill-opacity="1" /><path clip-path="url(#clip720)" d="M28.3562 493.92 L28.3562 466.102 L33.7034 466.102 L59.3254 488.127 L59.3254 466.102 L64.0042 466.102 L64.0042 494.716 L58.657 494.716 L33.035 472.69 L33.035 493.92 L28.3562 493.92 Z" fill="#000000" fill-rule="evenodd" fill-opacity="1" /><path clip-path="url(#clip720)" d="M44.7161 426.666 L47.5806 426.666 L47.5806 453.593 Q53.6281 453.211 56.8109 449.965 Q59.9619 446.686 59.9619 440.862 Q59.9619 437.488 59.1344 434.337 Q58.3069 431.154 56.6518 428.035 L62.1899 428.035 Q63.5267 431.186 64.227 434.496 Q64.9272 437.806 64.9272 441.212 Q64.9272 449.742 59.9619 454.739 Q54.9967 459.704 46.5303 459.704 Q37.7774 459.704 32.6531 454.994 Q27.4968 450.251 27.4968 442.23 Q27.4968 435.037 32.1438 430.868 Q36.7589 426.666 44.7161 426.666 M42.9973 432.523 Q38.1912 432.586 35.3266 435.228 Q32.4621 437.838 32.4621 442.167 Q32.4621 447.068 35.2312 450.028 Q38.0002 452.957 43.0292 453.402 L42.9973 432.523 Z" fill="#000000" fill-rule="evenodd" fill-opacity="1" /><path clip-path="url(#clip720)" d="M33.7671 393.596 L14.479 393.596 L14.479 387.74 L64.0042 387.74 L64.0042 393.596 L58.657 393.596 Q61.8398 395.442 63.3994 398.275 Q64.9272 401.076 64.9272 405.023 Q64.9272 411.484 59.771 415.558 Q54.6147 419.6 46.212 419.6 Q37.8093 419.6 32.6531 415.558 Q27.4968 411.484 27.4968 405.023 Q27.4968 401.076 29.0564 398.275 Q30.5842 395.442 33.7671 393.596 M46.212 413.553 Q52.6732 413.553 56.3653 410.911 Q60.0256 408.237 60.0256 403.59 Q60.0256 398.944 56.3653 396.27 Q52.6732 393.596 46.212 393.596 Q39.7508 393.596 36.0905 396.27 Q32.3984 398.944 32.3984 403.59 Q32.3984 408.237 36.0905 410.911 Q39.7508 413.553 46.212 413.553 Z" fill="#000000" fill-rule="evenodd" fill-opacity="1" /><path clip-path="url(#clip720)" d="M14.5426 376.6 L14.5426 371.507 Q22.0542 366.733 29.2474 364.378 Q36.4406 361.991 43.5384 361.991 Q50.668 361.991 57.8931 364.378 Q65.1182 366.733 72.5979 371.507 L72.5979 376.6 Q65.3091 372.367 58.1159 370.298 Q50.8908 368.197 43.5384 368.197 Q36.186 368.197 29.0246 370.298 Q21.8632 372.367 14.5426 376.6 Z" fill="#000000" fill-rule="evenodd" fill-opacity="1" /><polyline clip-path="url(#clip722)" style="stroke:#009af9; stroke-linecap:round; stroke-linejoin:round; stroke-width:4; stroke-opacity:1; fill:none" points="367.683,86.1857 370.82,92.376 373.957,98.5267 377.094,104.638 380.231,110.711 409.236,165.081 438.241,216.429 467.246,264.999 496.25,311.013 513.681,337.521 531.112,363.218 548.543,388.142 565.973,412.328 595.448,451.64 624.923,489.085 656.941,527.801 688.959,564.626 718.477,597.021 747.995,628.026 779.641,659.825 811.287,690.231 847.953,723.837 884.618,755.826 917.201,782.991 949.785,809.045 978.358,831.032 1006.93,852.26 1069.24,896.102 1131.91,937.119 1201.21,979.25 1267.14,1016.53 1335.69,1052.69 1393.4,1081.26 1463.86,1114.06 1528.4,1142.28 1588.01,1166.91 1648.39,1190.58 1716.06,1215.7 1777.38,1237.27 1847.59,1260.7 1912.6,1281.27 1976.68,1300.57 2038.91,1318.45 2102.7,1335.96 2172.59,1354.25 2274.11,1379.31 2294.94,1384.24 "/>
<polyline clip-path="url(#clip722)" style="stroke:#e26f46; stroke-linecap:round; stroke-linejoin:round; stroke-width:4; stroke-opacity:1; fill:none" points="367.683,86.1857 370.82,90.5555 373.957,94.8972 377.094,99.2113 380.231,103.498 409.236,141.876 438.241,178.118 467.246,212.399 496.25,244.874 513.681,263.582 531.112,281.717 548.543,299.307 565.973,316.376 595.448,344.12 624.923,370.546 656.941,397.869 688.959,423.858 718.477,446.72 747.995,468.602 779.641,491.045 811.287,512.506 847.953,536.226 884.618,558.805 917.201,577.98 949.785,596.372 978.358,611.893 1006.93,626.879 1069.24,657.831 1131.91,686.791 1201.21,716.541 1267.14,742.866 1335.69,768.404 1393.4,788.588 1463.86,811.758 1528.4,831.687 1588.01,849.09 1648.39,865.815 1716.06,883.564 1777.38,898.81 1847.59,915.366 1912.6,929.904 1976.68,943.548 2038.91,956.188 2102.7,968.566 2172.59,981.501 2274.11,999.215 2294.94,1002.7 "/>
<path clip-path="url(#clip720)" d="M1883.8 248.629 L2284.66 248.629 L2284.66 93.1086 L1883.8 93.1086  Z" fill="#ffffff" fill-rule="evenodd" fill-opacity="1"/>
<polyline clip-path="url(#clip720)" style="stroke:#000000; stroke-linecap:round; stroke-linejoin:round; stroke-width:4; stroke-opacity:1; fill:none" points="1883.8,248.629 2284.66,248.629 2284.66,93.1086 1883.8,93.1086 1883.8,248.629 "/>
<polyline clip-path="url(#clip720)" style="stroke:#009af9; stroke-linecap:round; stroke-linejoin:round; stroke-width:4; stroke-opacity:1; fill:none" points="1906.5,144.949 2042.69,144.949 "/>
<path clip-path="url(#clip720)" d="M2072.49 127.669 L2077.17 127.669 L2077.17 159.821 Q2077.17 166.071 2074.79 168.895 Q2072.42 171.719 2067.17 171.719 L2065.39 171.719 L2065.39 167.784 L2066.85 167.784 Q2069.95 167.784 2071.22 166.048 Q2072.49 164.312 2072.49 159.821 L2072.49 127.669 Z" fill="#000000" fill-rule="evenodd" fill-opacity="1" /><path clip-path="url(#clip720)" d="M2105.99 170.099 L2105.99 173.409 L2081.36 173.409 L2081.36 170.099 L2105.99 170.099 Z" fill="#000000" fill-rule="evenodd" fill-opacity="1" /><path clip-path="url(#clip720)" d="M2125.02 140.284 Q2124.3 139.868 2123.44 139.682 Q2122.61 139.474 2121.59 139.474 Q2117.98 139.474 2116.04 141.835 Q2114.11 144.173 2114.11 148.571 L2114.11 162.229 L2109.83 162.229 L2109.83 136.303 L2114.11 136.303 L2114.11 140.331 Q2115.46 137.969 2117.61 136.835 Q2119.76 135.678 2122.84 135.678 Q2123.28 135.678 2123.81 135.747 Q2124.35 135.794 2124.99 135.909 L2125.02 140.284 Z" fill="#000000" fill-rule="evenodd" fill-opacity="1" /><path clip-path="url(#clip720)" d="M2150.62 148.201 L2150.62 150.284 L2131.04 150.284 Q2131.31 154.682 2133.67 156.997 Q2136.06 159.289 2140.29 159.289 Q2142.75 159.289 2145.04 158.687 Q2147.35 158.085 2149.62 156.881 L2149.62 160.909 Q2147.33 161.881 2144.92 162.391 Q2142.52 162.9 2140.04 162.9 Q2133.84 162.9 2130.2 159.289 Q2126.59 155.678 2126.59 149.52 Q2126.59 143.155 2130.02 139.428 Q2133.47 135.678 2139.3 135.678 Q2144.53 135.678 2147.56 139.057 Q2150.62 142.414 2150.62 148.201 M2146.36 146.951 Q2146.31 143.456 2144.39 141.372 Q2142.49 139.289 2139.35 139.289 Q2135.78 139.289 2133.63 141.303 Q2131.5 143.317 2131.17 146.974 L2146.36 146.951 Z" fill="#000000" fill-rule="evenodd" fill-opacity="1" /><path clip-path="url(#clip720)" d="M2157.61 126.21 L2161.87 126.21 L2161.87 162.229 L2157.61 162.229 L2157.61 126.21 Z" fill="#000000" fill-rule="evenodd" fill-opacity="1" /><path clip-path="url(#clip720)" d="M2186.41 140.701 L2216.08 140.701 L2216.08 144.59 L2186.41 144.59 L2186.41 140.701 M2186.41 150.145 L2216.08 150.145 L2216.08 154.081 L2186.41 154.081 L2186.41 150.145 Z" fill="#000000" fill-rule="evenodd" fill-opacity="1" /><path clip-path="url(#clip720)" d="M2242.05 158.293 L2249.69 158.293 L2249.69 131.928 L2241.38 133.595 L2241.38 129.335 L2249.65 127.669 L2254.32 127.669 L2254.32 158.293 L2261.96 158.293 L2261.96 162.229 L2242.05 162.229 L2242.05 158.293 Z" fill="#000000" fill-rule="evenodd" fill-opacity="1" /><polyline clip-path="url(#clip720)" style="stroke:#e26f46; stroke-linecap:round; stroke-linejoin:round; stroke-width:4; stroke-opacity:1; fill:none" points="1906.5,196.789 2042.69,196.789 "/>
<path clip-path="url(#clip720)" d="M2072.49 179.509 L2077.17 179.509 L2077.17 211.661 Q2077.17 217.911 2074.79 220.735 Q2072.42 223.559 2067.17 223.559 L2065.39 223.559 L2065.39 219.624 L2066.85 219.624 Q2069.95 219.624 2071.22 217.888 Q2072.49 216.152 2072.49 211.661 L2072.49 179.509 Z" fill="#000000" fill-rule="evenodd" fill-opacity="1" /><path clip-path="url(#clip720)" d="M2105.99 221.939 L2105.99 225.249 L2081.36 225.249 L2081.36 221.939 L2105.99 221.939 Z" fill="#000000" fill-rule="evenodd" fill-opacity="1" /><path clip-path="url(#clip720)" d="M2125.02 192.124 Q2124.3 191.708 2123.44 191.522 Q2122.61 191.314 2121.59 191.314 Q2117.98 191.314 2116.04 193.675 Q2114.11 196.013 2114.11 200.411 L2114.11 214.069 L2109.83 214.069 L2109.83 188.143 L2114.11 188.143 L2114.11 192.171 Q2115.46 189.809 2117.61 188.675 Q2119.76 187.518 2122.84 187.518 Q2123.28 187.518 2123.81 187.587 Q2124.35 187.634 2124.99 187.749 L2125.02 192.124 Z" fill="#000000" fill-rule="evenodd" fill-opacity="1" /><path clip-path="url(#clip720)" d="M2150.62 200.041 L2150.62 202.124 L2131.04 202.124 Q2131.31 206.522 2133.67 208.837 Q2136.06 211.129 2140.29 211.129 Q2142.75 211.129 2145.04 210.527 Q2147.35 209.925 2149.62 208.721 L2149.62 212.749 Q2147.33 213.721 2144.92 214.231 Q2142.52 214.74 2140.04 214.74 Q2133.84 214.74 2130.2 211.129 Q2126.59 207.518 2126.59 201.36 Q2126.59 194.995 2130.02 191.268 Q2133.47 187.518 2139.3 187.518 Q2144.53 187.518 2147.56 190.897 Q2150.62 194.254 2150.62 200.041 M2146.36 198.791 Q2146.31 195.296 2144.39 193.212 Q2142.49 191.129 2139.35 191.129 Q2135.78 191.129 2133.63 193.143 Q2131.5 195.157 2131.17 198.814 L2146.36 198.791 Z" fill="#000000" fill-rule="evenodd" fill-opacity="1" /><path clip-path="url(#clip720)" d="M2157.61 178.05 L2161.87 178.05 L2161.87 214.069 L2157.61 214.069 L2157.61 178.05 Z" fill="#000000" fill-rule="evenodd" fill-opacity="1" /><path clip-path="url(#clip720)" d="M2186.41 192.541 L2216.08 192.541 L2216.08 196.43 L2186.41 196.43 L2186.41 192.541 M2186.41 201.985 L2216.08 201.985 L2216.08 205.921 L2186.41 205.921 L2186.41 201.985 Z" fill="#000000" fill-rule="evenodd" fill-opacity="1" /><path clip-path="url(#clip720)" d="M2245.27 210.133 L2261.59 210.133 L2261.59 214.069 L2239.65 214.069 L2239.65 210.133 Q2242.31 207.379 2246.89 202.749 Q2251.5 198.096 2252.68 196.754 Q2254.92 194.231 2255.8 192.495 Q2256.71 190.735 2256.71 189.046 Q2256.71 186.291 2254.76 184.555 Q2252.84 182.819 2249.74 182.819 Q2247.54 182.819 2245.09 183.583 Q2242.66 184.347 2239.88 185.897 L2239.88 181.175 Q2242.7 180.041 2245.16 179.462 Q2247.61 178.884 2249.65 178.884 Q2255.02 178.884 2258.21 181.569 Q2261.41 184.254 2261.41 188.745 Q2261.41 190.874 2260.6 192.796 Q2259.81 194.694 2257.7 197.286 Q2257.12 197.958 2254.02 201.175 Q2250.92 204.37 2245.27 210.133 Z" fill="#000000" fill-rule="evenodd" fill-opacity="1" /></svg>
