<?xml version="1.0" encoding="utf-8"?>
<svg xmlns="http://www.w3.org/2000/svg" xmlns:xlink="http://www.w3.org/1999/xlink" width="600" height="400" viewBox="0 0 2400 1600">
<defs>
  <clipPath id="clip050">
    <rect x="0" y="0" width="2400" height="1600"/>
  </clipPath>
</defs>
<path clip-path="url(#clip050)" d="M0 1600 L2400 1600 L2400 0 L0 0  Z" fill="#ffffff" fill-rule="evenodd" fill-opacity="1"/>
<defs>
  <clipPath id="clip051">
    <rect x="480" y="0" width="1681" height="1600"/>
  </clipPath>
</defs>
<path clip-path="url(#clip050)" d="M112.177 1423.18 L2352.76 1423.18 L2352.76 47.2441 L112.177 47.2441  Z" fill="#ffffff" fill-rule="evenodd" fill-opacity="1"/>
<defs>
  <clipPath id="clip052">
    <rect x="112" y="47" width="2242" height="1377"/>
  </clipPath>
</defs>
<polyline clip-path="url(#clip052)" style="stroke:#000000; stroke-linecap:round; stroke-linejoin:round; stroke-width:2; stroke-opacity:0.1; fill:none" points="175.59,1423.18 175.59,47.2441 "/>
<polyline clip-path="url(#clip052)" style="stroke:#000000; stroke-linecap:round; stroke-linejoin:round; stroke-width:2; stroke-opacity:0.1; fill:none" points="512.004,1423.18 512.004,47.2441 "/>
<polyline clip-path="url(#clip052)" style="stroke:#000000; stroke-linecap:round; stroke-linejoin:round; stroke-width:2; stroke-opacity:0.1; fill:none" points="848.418,1423.18 848.418,47.2441 "/>
<polyline clip-path="url(#clip052)" style="stroke:#000000; stroke-linecap:round; stroke-linejoin:round; stroke-width:2; stroke-opacity:0.1; fill:none" points="1184.83,1423.18 1184.83,47.2441 "/>
<polyline clip-path="url(#clip052)" style="stroke:#000000; stroke-linecap:round; stroke-linejoin:round; stroke-width:2; stroke-opacity:0.1; fill:none" points="1521.25,1423.18 1521.25,47.2441 "/>
<polyline clip-path="url(#clip052)" style="stroke:#000000; stroke-linecap:round; stroke-linejoin:round; stroke-width:2; stroke-opacity:0.1; fill:none" points="1857.66,1423.18 1857.66,47.2441 "/>
<polyline clip-path="url(#clip052)" style="stroke:#000000; stroke-linecap:round; stroke-linejoin:round; stroke-width:2; stroke-opacity:0.1; fill:none" points="2194.08,1423.18 2194.08,47.2441 "/>
<polyline clip-path="url(#clip050)" style="stroke:#000000; stroke-linecap:round; stroke-linejoin:round; stroke-width:4; stroke-opacity:1; fill:none" points="112.177,1423.18 2352.76,1423.18 "/>
<polyline clip-path="url(#clip050)" style="stroke:#000000; stroke-linecap:round; stroke-linejoin:round; stroke-width:4; stroke-opacity:1; fill:none" points="175.59,1423.18 175.59,1404.28 "/>
<polyline clip-path="url(#clip050)" style="stroke:#000000; stroke-linecap:round; stroke-linejoin:round; stroke-width:4; stroke-opacity:1; fill:none" points="512.004,1423.18 512.004,1404.28 "/>
<polyline clip-path="url(#clip050)" style="stroke:#000000; stroke-linecap:round; stroke-linejoin:round; stroke-width:4; stroke-opacity:1; fill:none" points="848.418,1423.18 848.418,1404.28 "/>
<polyline clip-path="url(#clip050)" style="stroke:#000000; stroke-linecap:round; stroke-linejoin:round; stroke-width:4; stroke-opacity:1; fill:none" points="1184.83,1423.18 1184.83,1404.28 "/>
<polyline clip-path="url(#clip050)" style="stroke:#000000; stroke-linecap:round; stroke-linejoin:round; stroke-width:4; stroke-opacity:1; fill:none" points="1521.25,1423.18 1521.25,1404.28 "/>
<polyline clip-path="url(#clip050)" style="stroke:#000000; stroke-linecap:round; stroke-linejoin:round; stroke-width:4; stroke-opacity:1; fill:none" points="1857.66,1423.18 1857.66,1404.28 "/>
<polyline clip-path="url(#clip050)" style="stroke:#000000; stroke-linecap:round; stroke-linejoin:round; stroke-width:4; stroke-opacity:1; fill:none" points="2194.08,1423.18 2194.08,1404.28 "/>
<path clip-path="url(#clip050)" d="M175.59 1454.1 Q171.979 1454.1 170.15 1457.66 Q168.344 1461.2 168.344 1468.33 Q168.344 1475.44 170.15 1479.01 Q171.979 1482.55 175.59 1482.55 Q179.224 1482.55 181.03 1479.01 Q182.858 1475.44 182.858 1468.33 Q182.858 1461.2 181.03 1457.66 Q179.224 1454.1 175.59 1454.1 M175.59 1450.39 Q181.4 1450.39 184.455 1455 Q187.534 1459.58 187.534 1468.33 Q187.534 1477.06 184.455 1481.67 Q181.4 1486.25 175.59 1486.25 Q169.78 1486.25 166.701 1481.67 Q163.645 1477.06 163.645 1468.33 Q163.645 1459.58 166.701 1455 Q169.78 1450.39 175.59 1450.39 Z" fill="#000000" fill-rule="evenodd" fill-opacity="1" /><path clip-path="url(#clip050)" d="M502.386 1481.64 L510.025 1481.64 L510.025 1455.28 L501.715 1456.95 L501.715 1452.69 L509.979 1451.02 L514.655 1451.02 L514.655 1481.64 L522.293 1481.64 L522.293 1485.58 L502.386 1485.58 L502.386 1481.64 Z" fill="#000000" fill-rule="evenodd" fill-opacity="1" /><path clip-path="url(#clip050)" d="M843.071 1481.64 L859.391 1481.64 L859.391 1485.58 L837.446 1485.58 L837.446 1481.64 Q840.108 1478.89 844.692 1474.26 Q849.298 1469.61 850.479 1468.27 Q852.724 1465.74 853.604 1464.01 Q854.506 1462.25 854.506 1460.56 Q854.506 1457.8 852.562 1456.07 Q850.641 1454.33 847.539 1454.33 Q845.34 1454.33 842.886 1455.09 Q840.456 1455.86 837.678 1457.41 L837.678 1452.69 Q840.502 1451.55 842.955 1450.97 Q845.409 1450.39 847.446 1450.39 Q852.817 1450.39 856.011 1453.08 Q859.205 1455.77 859.205 1460.26 Q859.205 1462.39 858.395 1464.31 Q857.608 1466.2 855.502 1468.8 Q854.923 1469.47 851.821 1472.69 Q848.719 1475.88 843.071 1481.64 Z" fill="#000000" fill-rule="evenodd" fill-opacity="1" /><path clip-path="url(#clip050)" d="M1189.08 1466.95 Q1192.44 1467.66 1194.31 1469.93 Q1196.21 1472.2 1196.21 1475.53 Q1196.21 1480.65 1192.69 1483.45 Q1189.17 1486.25 1182.69 1486.25 Q1180.52 1486.25 1178.2 1485.81 Q1175.91 1485.39 1173.46 1484.54 L1173.46 1480.02 Q1175.4 1481.16 1177.71 1481.74 Q1180.03 1482.32 1182.55 1482.32 Q1186.95 1482.32 1189.24 1480.58 Q1191.56 1478.84 1191.56 1475.53 Q1191.56 1472.48 1189.4 1470.77 Q1187.27 1469.03 1183.46 1469.03 L1179.43 1469.03 L1179.43 1465.19 L1183.64 1465.19 Q1187.09 1465.19 1188.92 1463.82 Q1190.75 1462.43 1190.75 1459.84 Q1190.75 1457.18 1188.85 1455.77 Q1186.97 1454.33 1183.46 1454.33 Q1181.53 1454.33 1179.34 1454.75 Q1177.14 1455.16 1174.5 1456.04 L1174.5 1451.88 Q1177.16 1451.14 1179.47 1450.77 Q1181.81 1450.39 1183.87 1450.39 Q1189.2 1450.39 1192.3 1452.83 Q1195.4 1455.23 1195.4 1459.35 Q1195.4 1462.22 1193.76 1464.21 Q1192.11 1466.18 1189.08 1466.95 Z" fill="#000000" fill-rule="evenodd" fill-opacity="1" /><path clip-path="url(#clip050)" d="M1524.26 1455.09 L1512.45 1473.54 L1524.26 1473.54 L1524.26 1455.09 M1523.03 1451.02 L1528.91 1451.02 L1528.91 1473.54 L1533.84 1473.54 L1533.84 1477.43 L1528.91 1477.43 L1528.91 1485.58 L1524.26 1485.58 L1524.26 1477.43 L1508.65 1477.43 L1508.65 1472.92 L1523.03 1451.02 Z" fill="#000000" fill-rule="evenodd" fill-opacity="1" /><path clip-path="url(#clip050)" d="M1847.94 1451.02 L1866.3 1451.02 L1866.3 1454.96 L1852.22 1454.96 L1852.22 1463.43 Q1853.24 1463.08 1854.26 1462.92 Q1855.28 1462.73 1856.3 1462.73 Q1862.08 1462.73 1865.46 1465.9 Q1868.84 1469.08 1868.84 1474.49 Q1868.84 1480.07 1865.37 1483.17 Q1861.9 1486.25 1855.58 1486.25 Q1853.4 1486.25 1851.13 1485.88 Q1848.89 1485.51 1846.48 1484.77 L1846.48 1480.07 Q1848.56 1481.2 1850.79 1481.76 Q1853.01 1482.32 1855.49 1482.32 Q1859.49 1482.32 1861.83 1480.21 Q1864.17 1478.1 1864.17 1474.49 Q1864.17 1470.88 1861.83 1468.77 Q1859.49 1466.67 1855.49 1466.67 Q1853.61 1466.67 1851.74 1467.08 Q1849.88 1467.5 1847.94 1468.38 L1847.94 1451.02 Z" fill="#000000" fill-rule="evenodd" fill-opacity="1" /><path clip-path="url(#clip050)" d="M2194.48 1466.44 Q2191.33 1466.44 2189.48 1468.59 Q2187.65 1470.74 2187.65 1474.49 Q2187.65 1478.22 2189.48 1480.39 Q2191.33 1482.55 2194.48 1482.55 Q2197.63 1482.55 2199.46 1480.39 Q2201.31 1478.22 2201.31 1474.49 Q2201.31 1470.74 2199.46 1468.59 Q2197.63 1466.44 2194.48 1466.44 M2203.76 1451.78 L2203.76 1456.04 Q2202 1455.21 2200.2 1454.77 Q2198.42 1454.33 2196.66 1454.33 Q2192.03 1454.33 2189.57 1457.45 Q2187.14 1460.58 2186.8 1466.9 Q2188.16 1464.89 2190.22 1463.82 Q2192.28 1462.73 2194.76 1462.73 Q2199.97 1462.73 2202.98 1465.9 Q2206.01 1469.05 2206.01 1474.49 Q2206.01 1479.82 2202.86 1483.03 Q2199.71 1486.25 2194.48 1486.25 Q2188.49 1486.25 2185.31 1481.67 Q2182.14 1477.06 2182.14 1468.33 Q2182.14 1460.14 2186.03 1455.28 Q2189.92 1450.39 2196.47 1450.39 Q2198.23 1450.39 2200.01 1450.74 Q2201.82 1451.09 2203.76 1451.78 Z" fill="#000000" fill-rule="evenodd" fill-opacity="1" /><path clip-path="url(#clip050)" d="M1216.65 1518.52 L1222.54 1518.52 L1222.54 1547.77 L1240.01 1532.4 L1247.49 1532.4 L1228.58 1549.07 L1248.29 1568.04 L1240.65 1568.04 L1222.54 1550.63 L1222.54 1568.04 L1216.65 1568.04 L1216.65 1518.52 Z" fill="#000000" fill-rule="evenodd" fill-opacity="1" /><polyline clip-path="url(#clip052)" style="stroke:#000000; stroke-linecap:round; stroke-linejoin:round; stroke-width:2; stroke-opacity:0.1; fill:none" points="112.177,1126.77 2352.76,1126.77 "/>
<polyline clip-path="url(#clip052)" style="stroke:#000000; stroke-linecap:round; stroke-linejoin:round; stroke-width:2; stroke-opacity:0.1; fill:none" points="112.177,829.463 2352.76,829.463 "/>
<polyline clip-path="url(#clip052)" style="stroke:#000000; stroke-linecap:round; stroke-linejoin:round; stroke-width:2; stroke-opacity:0.1; fill:none" points="112.177,532.152 2352.76,532.152 "/>
<polyline clip-path="url(#clip052)" style="stroke:#000000; stroke-linecap:round; stroke-linejoin:round; stroke-width:2; stroke-opacity:0.1; fill:none" points="112.177,234.841 2352.76,234.841 "/>
<polyline clip-path="url(#clip050)" style="stroke:#000000; stroke-linecap:round; stroke-linejoin:round; stroke-width:4; stroke-opacity:1; fill:none" points="112.177,1423.18 112.177,47.2441 "/>
<polyline clip-path="url(#clip050)" style="stroke:#000000; stroke-linecap:round; stroke-linejoin:round; stroke-width:4; stroke-opacity:1; fill:none" points="112.177,1126.77 131.075,1126.77 "/>
<polyline clip-path="url(#clip050)" style="stroke:#000000; stroke-linecap:round; stroke-linejoin:round; stroke-width:4; stroke-opacity:1; fill:none" points="112.177,829.463 131.075,829.463 "/>
<polyline clip-path="url(#clip050)" style="stroke:#000000; stroke-linecap:round; stroke-linejoin:round; stroke-width:4; stroke-opacity:1; fill:none" points="112.177,532.152 131.075,532.152 "/>
<polyline clip-path="url(#clip050)" style="stroke:#000000; stroke-linecap:round; stroke-linejoin:round; stroke-width:4; stroke-opacity:1; fill:none" points="112.177,234.841 131.075,234.841 "/>
<path clip-path="url(#clip050)" d="M59.8578 1140.12 L76.1772 1140.12 L76.1772 1144.05 L54.2328 1144.05 L54.2328 1140.12 Q56.8949 1137.36 61.4782 1132.73 Q66.0846 1128.08 67.2652 1126.74 Q69.5105 1124.22 70.3902 1122.48 Q71.2929 1120.72 71.2929 1119.03 Q71.2929 1116.28 69.3485 1114.54 Q67.4272 1112.8 64.3254 1112.8 Q62.1263 1112.8 59.6726 1113.57 Q57.2421 1114.33 54.4643 1115.88 L54.4643 1111.16 Q57.2884 1110.03 59.7421 1109.45 Q62.1958 1108.87 64.2328 1108.87 Q69.6031 1108.87 72.7976 1111.55 Q75.992 1114.24 75.992 1118.73 Q75.992 1120.86 75.1818 1122.78 Q74.3948 1124.68 72.2883 1127.27 Q71.7096 1127.94 68.6078 1131.16 Q65.5059 1134.35 59.8578 1140.12 Z" fill="#000000" fill-rule="evenodd" fill-opacity="1" /><path clip-path="url(#clip050)" d="M66.5939 816.257 L54.7884 834.706 L66.5939 834.706 L66.5939 816.257 M65.367 812.183 L71.2466 812.183 L71.2466 834.706 L76.1772 834.706 L76.1772 838.595 L71.2466 838.595 L71.2466 846.743 L66.5939 846.743 L66.5939 838.595 L50.9921 838.595 L50.9921 834.081 L65.367 812.183 Z" fill="#000000" fill-rule="evenodd" fill-opacity="1" /><path clip-path="url(#clip050)" d="M64.6495 530.289 Q61.5013 530.289 59.6495 532.441 Q57.8208 534.594 57.8208 538.344 Q57.8208 542.071 59.6495 544.247 Q61.5013 546.4 64.6495 546.4 Q67.7976 546.4 69.6263 544.247 Q71.4781 542.071 71.4781 538.344 Q71.4781 534.594 69.6263 532.441 Q67.7976 530.289 64.6495 530.289 M73.9318 515.636 L73.9318 519.895 Q72.1726 519.062 70.367 518.622 Q68.5846 518.182 66.8254 518.182 Q62.1958 518.182 59.7421 521.307 Q57.3115 524.432 56.9643 530.751 Q58.33 528.738 60.3902 527.673 Q62.4504 526.585 64.9272 526.585 Q70.1355 526.585 73.1448 529.756 Q76.1772 532.904 76.1772 538.344 Q76.1772 543.668 73.029 546.886 Q69.8809 550.103 64.6495 550.103 Q58.6541 550.103 55.4828 545.52 Q52.3116 540.913 52.3116 532.187 Q52.3116 523.992 56.2004 519.131 Q60.0893 514.247 66.6402 514.247 Q68.3994 514.247 70.1818 514.594 Q71.9874 514.941 73.9318 515.636 Z" fill="#000000" fill-rule="evenodd" fill-opacity="1" /><path clip-path="url(#clip050)" d="M64.3254 235.709 Q60.9921 235.709 59.0708 237.492 Q57.1726 239.274 57.1726 242.399 Q57.1726 245.524 59.0708 247.306 Q60.9921 249.089 64.3254 249.089 Q67.6587 249.089 69.58 247.306 Q71.5013 245.501 71.5013 242.399 Q71.5013 239.274 69.58 237.492 Q67.6819 235.709 64.3254 235.709 M59.6495 233.718 Q56.6402 232.978 54.9504 230.918 Q53.2838 228.857 53.2838 225.894 Q53.2838 221.751 56.2236 219.343 Q59.1865 216.936 64.3254 216.936 Q69.4874 216.936 72.4272 219.343 Q75.367 221.751 75.367 225.894 Q75.367 228.857 73.6772 230.918 Q72.0105 232.978 69.0244 233.718 Q72.404 234.505 74.279 236.797 Q76.1772 239.089 76.1772 242.399 Q76.1772 247.422 73.0985 250.107 Q70.0429 252.792 64.3254 252.792 Q58.6078 252.792 55.5291 250.107 Q52.4736 247.422 52.4736 242.399 Q52.4736 239.089 54.3717 236.797 Q56.2699 234.505 59.6495 233.718 M57.9365 226.334 Q57.9365 229.019 59.6032 230.524 Q61.293 232.029 64.3254 232.029 Q67.3346 232.029 69.0244 230.524 Q70.7374 229.019 70.7374 226.334 Q70.7374 223.649 69.0244 222.144 Q67.3346 220.64 64.3254 220.64 Q61.293 220.64 59.6032 222.144 Q57.9365 223.649 57.9365 226.334 Z" fill="#000000" fill-rule="evenodd" fill-opacity="1" /><polyline clip-path="url(#clip052)" style="stroke:#009af9; stroke-linecap:round; stroke-linejoin:round; stroke-width:4; stroke-opacity:1; fill:none" points="175.59,1260.94 179.03,1260.94 182.471,1260.95 185.911,1260.96 189.351,1260.98 221.163,1261.34 252.975,1262.08 268.881,1262.59 284.786,1263.19 300.692,1263.9 316.598,1264.69 335.716,1265.77 354.833,1266.98 373.951,1268.32 393.068,1269.79 409.232,1271.13 425.395,1272.57 441.559,1274.09 457.722,1275.7 475.281,1277.54 492.839,1279.49 510.397,1281.53 527.955,1283.67 560.329,1287.84 592.704,1292.32 627.412,1297.42 662.121,1302.81 682.227,1306.05 702.334,1309.38 722.441,1312.78 742.547,1316.24 814.021,1328.98 876.697,1340.42 910.864,1346.62 945.031,1352.71 979.4,1358.64 1013.77,1364.26 1032.77,1367.19 1051.77,1369.97 1070.77,1372.57 1089.77,1374.98 1107.85,1377.06 1125.93,1378.91 1144.01,1380.52 1162.08,1381.86 1171.48,1382.45 1180.88,1382.96 1190.28,1383.38 1199.68,1383.72 1209.08,1383.98 1218.47,1384.15 1227.87,1384.24 1237.27,1384.24 1253.09,1384.04 1268.92,1383.6 1284.74,1382.92 1300.56,1382.01 1319.88,1380.61 1339.2,1378.89 1358.52,1376.9 1377.84,1374.65 1395.53,1372.39 1413.23,1369.96 1430.93,1367.37 1448.62,1364.66 1481.31,1359.35 1514,1353.75 1547.11,1347.88 1580.23,1341.88 1654.45,1328.34 1721.7,1316.36 1760.2,1309.78 1798.7,1303.46 1834.35,1297.9 1870,1292.63 1887.57,1290.16 1905.15,1287.77 1922.72,1285.47 1940.29,1283.26 1957.35,1281.2 1974.42,1279.23 1991.48,1277.35 2008.54,1275.56 2026.03,1273.83 2043.52,1272.21 2061.01,1270.68 2078.5,1269.27 2097.66,1267.84 2116.83,1266.54 2135.99,1265.37 2155.15,1264.34 2182.99,1263.08 2210.83,1262.11 2238.66,1261.43 2266.5,1261.04 2272.21,1261 2277.92,1260.97 2283.63,1260.95 2289.34,1260.94 "/>
<polyline clip-path="url(#clip052)" style="stroke:#e26f46; stroke-linecap:round; stroke-linejoin:round; stroke-width:4; stroke-opacity:1; fill:none" points="175.59,86.1857 179.03,86.2168 182.471,86.31 185.911,86.4655 189.351,86.6831 205.257,88.4964 221.163,91.6335 237.069,96.0874 252.975,101.848 268.881,108.903 284.786,117.236 300.692,126.828 316.598,137.659 335.716,152.281 354.833,168.609 373.951,186.59 393.068,206.168 409.232,223.918 425.395,242.723 441.559,262.539 457.722,283.321 475.281,306.933 492.839,331.564 510.397,357.145 527.955,383.609 560.329,434.469 592.704,487.61 662.121,606.926 742.547,748.742 778.284,810.994 814.021,871.777 845.359,923.33 876.697,972.78 893.78,998.696 910.864,1023.79 927.947,1048.01 945.031,1071.27 962.215,1093.66 979.4,1114.97 996.585,1135.15 1013.77,1154.15 1032.77,1173.71 1051.77,1191.7 1070.77,1208.06 1089.77,1222.73 1107.85,1235.1 1125.93,1245.86 1144.01,1254.99 1162.08,1262.46 1180.88,1268.45 1199.68,1272.61 1218.47,1274.91 1237.27,1275.37 1253.09,1274.31 1268.92,1271.94 1284.74,1268.26 1300.56,1263.29 1319.88,1255.47 1339.2,1245.75 1358.52,1234.17 1377.84,1220.77 1395.53,1206.93 1413.23,1191.64 1430.93,1174.93 1448.62,1156.85 1464.97,1138.98 1481.31,1120.04 1497.66,1100.05 1514,1079.08 1530.56,1056.88 1547.11,1033.76 1563.67,1009.79 1580.23,985.028 1617.34,926.936 1654.45,865.851 1688.07,808.535 1721.7,749.944 1798.7,614.137 1870,491.338 1905.15,433.596 1940.29,378.549 1957.35,352.978 1974.42,328.251 1991.48,304.43 2008.54,281.577 2026.03,259.216 2043.52,237.995 2061.01,217.97 2078.5,199.195 2097.66,180.122 2116.83,162.673 2135.99,146.904 2155.15,132.867 2169.07,123.784 2182.99,115.654 2196.91,108.491 2210.83,102.308 2238.66,92.9204 2266.5,87.556 2272.21,86.9566 2277.92,86.5283 2283.63,86.2713 2289.34,86.1857 "/>
<path clip-path="url(#clip050)" d="M1823.69 1377.32 L2278.07 1377.32 L2278.07 1221.8 L1823.69 1221.8  Z" fill="#ffffff" fill-rule="evenodd" fill-opacity="1"/>
<polyline clip-path="url(#clip050)" style="stroke:#000000; stroke-linecap:round; stroke-linejoin:round; stroke-width:4; stroke-opacity:1; fill:none" points="1823.69,1377.32 2278.07,1377.32 2278.07,1221.8 1823.69,1221.8 1823.69,1377.32 "/>
<polyline clip-path="url(#clip050)" style="stroke:#009af9; stroke-linecap:round; stroke-linejoin:round; stroke-width:4; stroke-opacity:1; fill:none" points="1848.58,1273.64 1997.96,1273.64 "/>
<path clip-path="url(#clip050)" d="M2022.85 1254.9 L2027.11 1254.9 L2027.11 1290.92 L2022.85 1290.92 L2022.85 1254.9 Z" fill="#000000" fill-rule="evenodd" fill-opacity="1" /><path clip-path="url(#clip050)" d="M2047.81 1277.88 Q2042.64 1277.88 2040.65 1279.06 Q2038.66 1280.24 2038.66 1283.09 Q2038.66 1285.36 2040.14 1286.7 Q2041.65 1288.02 2044.22 1288.02 Q2047.76 1288.02 2049.89 1285.52 Q2052.04 1283 2052.04 1278.83 L2052.04 1277.88 L2047.81 1277.88 M2056.3 1276.12 L2056.3 1290.92 L2052.04 1290.92 L2052.04 1286.98 Q2050.58 1289.34 2048.41 1290.48 Q2046.23 1291.59 2043.08 1291.59 Q2039.1 1291.59 2036.74 1289.36 Q2034.4 1287.12 2034.4 1283.37 Q2034.4 1278.99 2037.32 1276.77 Q2040.26 1274.55 2046.07 1274.55 L2052.04 1274.55 L2052.04 1274.13 Q2052.04 1271.19 2050.1 1269.6 Q2048.18 1267.98 2044.68 1267.98 Q2042.46 1267.98 2040.35 1268.51 Q2038.25 1269.04 2036.3 1270.11 L2036.3 1266.17 Q2038.64 1265.27 2040.84 1264.83 Q2043.04 1264.36 2045.12 1264.36 Q2050.75 1264.36 2053.52 1267.28 Q2056.3 1270.2 2056.3 1276.12 Z" fill="#000000" fill-rule="evenodd" fill-opacity="1" /><path clip-path="url(#clip050)" d="M2085.26 1269.97 Q2086.86 1267.1 2089.08 1265.73 Q2091.3 1264.36 2094.31 1264.36 Q2098.36 1264.36 2100.56 1267.21 Q2102.76 1270.04 2102.76 1275.27 L2102.76 1290.92 L2098.48 1290.92 L2098.48 1275.41 Q2098.48 1271.68 2097.16 1269.87 Q2095.84 1268.07 2093.13 1268.07 Q2089.82 1268.07 2087.9 1270.27 Q2085.98 1272.47 2085.98 1276.26 L2085.98 1290.92 L2081.69 1290.92 L2081.69 1275.41 Q2081.69 1271.66 2080.37 1269.87 Q2079.06 1268.07 2076.3 1268.07 Q2073.04 1268.07 2071.12 1270.29 Q2069.19 1272.49 2069.19 1276.26 L2069.19 1290.92 L2064.91 1290.92 L2064.91 1264.99 L2069.19 1264.99 L2069.19 1269.02 Q2070.65 1266.63 2072.69 1265.5 Q2074.73 1264.36 2077.53 1264.36 Q2080.35 1264.36 2082.32 1265.8 Q2084.31 1267.23 2085.26 1269.97 Z" fill="#000000" fill-rule="evenodd" fill-opacity="1" /><path clip-path="url(#clip050)" d="M2129.87 1277.98 Q2129.87 1273.28 2127.92 1270.61 Q2126 1267.93 2122.62 1267.93 Q2119.24 1267.93 2117.3 1270.61 Q2115.37 1273.28 2115.37 1277.98 Q2115.37 1282.67 2117.3 1285.36 Q2119.24 1288.02 2122.62 1288.02 Q2126 1288.02 2127.92 1285.36 Q2129.87 1282.67 2129.87 1277.98 M2115.37 1268.92 Q2116.72 1266.61 2118.75 1265.5 Q2120.81 1264.36 2123.66 1264.36 Q2128.38 1264.36 2131.32 1268.11 Q2134.29 1271.86 2134.29 1277.98 Q2134.29 1284.09 2131.32 1287.84 Q2128.38 1291.59 2123.66 1291.59 Q2120.81 1291.59 2118.75 1290.48 Q2116.72 1289.34 2115.37 1287.03 L2115.37 1290.92 L2111.09 1290.92 L2111.09 1254.9 L2115.37 1254.9 L2115.37 1268.92 Z" fill="#000000" fill-rule="evenodd" fill-opacity="1" /><path clip-path="url(#clip050)" d="M2172.94 1265.75 L2172.94 1269.78 Q2171.14 1268.86 2169.19 1268.39 Q2167.25 1267.93 2165.17 1267.93 Q2161.99 1267.93 2160.4 1268.9 Q2158.82 1269.87 2158.82 1271.82 Q2158.82 1273.3 2159.96 1274.16 Q2161.09 1274.99 2164.52 1275.75 L2165.98 1276.08 Q2170.51 1277.05 2172.41 1278.83 Q2174.33 1280.59 2174.33 1283.76 Q2174.33 1287.37 2171.46 1289.48 Q2168.61 1291.59 2163.61 1291.59 Q2161.53 1291.59 2159.26 1291.17 Q2157.02 1290.78 2154.52 1289.97 L2154.52 1285.57 Q2156.88 1286.79 2159.17 1287.42 Q2161.46 1288.02 2163.71 1288.02 Q2166.72 1288.02 2168.34 1287 Q2169.96 1285.96 2169.96 1284.09 Q2169.96 1282.35 2168.78 1281.42 Q2167.62 1280.5 2163.66 1279.64 L2162.18 1279.3 Q2158.22 1278.46 2156.46 1276.75 Q2154.7 1275.01 2154.7 1272 Q2154.7 1268.35 2157.3 1266.36 Q2159.89 1264.36 2164.66 1264.36 Q2167.02 1264.36 2169.1 1264.71 Q2171.18 1265.06 2172.94 1265.75 Z" fill="#000000" fill-rule="evenodd" fill-opacity="1" /><path clip-path="url(#clip050)" d="M2202.67 1275.27 L2202.67 1290.92 L2198.41 1290.92 L2198.41 1275.41 Q2198.41 1271.73 2196.97 1269.9 Q2195.54 1268.07 2192.67 1268.07 Q2189.22 1268.07 2187.23 1270.27 Q2185.24 1272.47 2185.24 1276.26 L2185.24 1290.92 L2180.95 1290.92 L2180.95 1254.9 L2185.24 1254.9 L2185.24 1269.02 Q2186.76 1266.68 2188.82 1265.52 Q2190.91 1264.36 2193.61 1264.36 Q2198.08 1264.36 2200.37 1267.14 Q2202.67 1269.9 2202.67 1275.27 Z" fill="#000000" fill-rule="evenodd" fill-opacity="1" /><path clip-path="url(#clip050)" d="M2211.16 1264.99 L2215.42 1264.99 L2215.42 1290.92 L2211.16 1290.92 L2211.16 1264.99 M2211.16 1254.9 L2215.42 1254.9 L2215.42 1260.29 L2211.16 1260.29 L2211.16 1254.9 Z" fill="#000000" fill-rule="evenodd" fill-opacity="1" /><path clip-path="url(#clip050)" d="M2237.46 1254.9 L2237.46 1258.44 L2233.38 1258.44 Q2231.09 1258.44 2230.19 1259.36 Q2229.31 1260.29 2229.31 1262.7 L2229.31 1264.99 L2236.32 1264.99 L2236.32 1268.3 L2229.31 1268.3 L2229.31 1290.92 L2225.03 1290.92 L2225.03 1268.3 L2220.95 1268.3 L2220.95 1264.99 L2225.03 1264.99 L2225.03 1263.18 Q2225.03 1258.86 2227.04 1256.89 Q2229.05 1254.9 2233.43 1254.9 L2237.46 1254.9 Z" fill="#000000" fill-rule="evenodd" fill-opacity="1" /><path clip-path="url(#clip050)" d="M2244.4 1257.63 L2244.4 1264.99 L2253.17 1264.99 L2253.17 1268.3 L2244.4 1268.3 L2244.4 1282.37 Q2244.4 1285.54 2245.26 1286.45 Q2246.14 1287.35 2248.8 1287.35 L2253.17 1287.35 L2253.17 1290.92 L2248.8 1290.92 Q2243.87 1290.92 2241.99 1289.09 Q2240.12 1287.23 2240.12 1282.37 L2240.12 1268.3 L2236.99 1268.3 L2236.99 1264.99 L2240.12 1264.99 L2240.12 1257.63 L2244.4 1257.63 Z" fill="#000000" fill-rule="evenodd" fill-opacity="1" /><polyline clip-path="url(#clip050)" style="stroke:#e26f46; stroke-linecap:round; stroke-linejoin:round; stroke-width:4; stroke-opacity:1; fill:none" points="1848.58,1325.48 1997.96,1325.48 "/>
<path clip-path="url(#clip050)" d="M2022.85 1316.83 L2027.37 1316.83 L2035.47 1338.59 L2043.57 1316.83 L2048.08 1316.83 L2038.36 1342.76 L2032.57 1342.76 L2022.85 1316.83 Z" fill="#000000" fill-rule="evenodd" fill-opacity="1" /><path clip-path="url(#clip050)" d="M2064.19 1306.78 Q2061.09 1312.11 2059.59 1317.32 Q2058.08 1322.52 2058.08 1327.87 Q2058.08 1333.22 2059.59 1338.47 Q2061.12 1343.7 2064.19 1349.01 L2060.49 1349.01 Q2057.02 1343.57 2055.28 1338.31 Q2053.57 1333.06 2053.57 1327.87 Q2053.57 1322.71 2055.28 1317.48 Q2057 1312.25 2060.49 1306.78 L2064.19 1306.78 Z" fill="#000000" fill-rule="evenodd" fill-opacity="1" /><path clip-path="url(#clip050)" d="M2072.3 1306.74 L2076.58 1306.74 L2076.58 1328.01 L2089.29 1316.83 L2094.73 1316.83 L2080.98 1328.96 L2095.31 1342.76 L2089.75 1342.76 L2076.58 1330.09 L2076.58 1342.76 L2072.3 1342.76 L2072.3 1306.74 Z" fill="#000000" fill-rule="evenodd" fill-opacity="1" /><path clip-path="url(#clip050)" d="M2099.24 1306.78 L2102.94 1306.78 Q2106.42 1312.25 2108.13 1317.48 Q2109.87 1322.71 2109.87 1327.87 Q2109.87 1333.06 2108.13 1338.31 Q2106.42 1343.57 2102.94 1349.01 L2099.24 1349.01 Q2102.32 1343.7 2103.82 1338.47 Q2105.35 1333.22 2105.35 1327.87 Q2105.35 1322.52 2103.82 1317.32 Q2102.32 1312.11 2099.24 1306.78 Z" fill="#000000" fill-rule="evenodd" fill-opacity="1" /></svg>
