<?xml version="1.0" encoding="utf-8"?>
<svg xmlns="http://www.w3.org/2000/svg" xmlns:xlink="http://www.w3.org/1999/xlink" width="600" height="400" viewBox="0 0 2400 1600">
<defs>
  <clipPath id="clip660">
    <rect x="0" y="0" width="2400" height="1600"/>
  </clipPath>
</defs>
<path clip-path="url(#clip660)" d="M0 1600 L2400 1600 L2400 0 L0 0  Z" fill="#ffffff" fill-rule="evenodd" fill-opacity="1"/>
<defs>
  <clipPath id="clip661">
    <rect x="480" y="0" width="1681" height="1600"/>
  </clipPath>
</defs>
<path clip-path="url(#clip660)" d="M186.274 1474.16 L2352.76 1474.16 L2352.76 47.2441 L186.274 47.2441  Z" fill="#ffffff" fill-rule="evenodd" fill-opacity="1"/>
<defs>
  <clipPath id="clip662">
    <rect x="186" y="47" width="2167" height="1428"/>
  </clipPath>
</defs>
<polyline clip-path="url(#clip662)" style="stroke:#000000; stroke-linecap:round; stroke-linejoin:round; stroke-width:2; stroke-opacity:0.1; fill:none" points="247.59,1474.16 247.59,47.2441 "/>
<polyline clip-path="url(#clip662)" style="stroke:#000000; stroke-linecap:round; stroke-linejoin:round; stroke-width:2; stroke-opacity:0.1; fill:none" points="758.552,1474.16 758.552,47.2441 "/>
<polyline clip-path="url(#clip662)" style="stroke:#000000; stroke-linecap:round; stroke-linejoin:round; stroke-width:2; stroke-opacity:0.1; fill:none" points="1269.51,1474.16 1269.51,47.2441 "/>
<polyline clip-path="url(#clip662)" style="stroke:#000000; stroke-linecap:round; stroke-linejoin:round; stroke-width:2; stroke-opacity:0.1; fill:none" points="1780.48,1474.16 1780.48,47.2441 "/>
<polyline clip-path="url(#clip662)" style="stroke:#000000; stroke-linecap:round; stroke-linejoin:round; stroke-width:2; stroke-opacity:0.1; fill:none" points="2291.44,1474.16 2291.44,47.2441 "/>
<polyline clip-path="url(#clip660)" style="stroke:#000000; stroke-linecap:round; stroke-linejoin:round; stroke-width:4; stroke-opacity:1; fill:none" points="186.274,1474.16 2352.76,1474.16 "/>
<polyline clip-path="url(#clip660)" style="stroke:#000000; stroke-linecap:round; stroke-linejoin:round; stroke-width:4; stroke-opacity:1; fill:none" points="247.59,1474.16 247.59,1455.27 "/>
<polyline clip-path="url(#clip660)" style="stroke:#000000; stroke-linecap:round; stroke-linejoin:round; stroke-width:4; stroke-opacity:1; fill:none" points="758.552,1474.16 758.552,1455.27 "/>
<polyline clip-path="url(#clip660)" style="stroke:#000000; stroke-linecap:round; stroke-linejoin:round; stroke-width:4; stroke-opacity:1; fill:none" points="1269.51,1474.16 1269.51,1455.27 "/>
<polyline clip-path="url(#clip660)" style="stroke:#000000; stroke-linecap:round; stroke-linejoin:round; stroke-width:4; stroke-opacity:1; fill:none" points="1780.48,1474.16 1780.48,1455.27 "/>
<polyline clip-path="url(#clip660)" style="stroke:#000000; stroke-linecap:round; stroke-linejoin:round; stroke-width:4; stroke-opacity:1; fill:none" points="2291.44,1474.16 2291.44,1455.27 "/>
<path clip-path="url(#clip660)" d="M247.59 1505.08 Q243.978 1505.08 242.15 1508.65 Q240.344 1512.19 240.344 1519.32 Q240.344 1526.43 242.15 1529.99 Q243.978 1533.53 247.59 1533.53 Q251.224 1533.53 253.029 1529.99 Q254.858 1526.43 254.858 1519.32 Q254.858 1512.19 253.029 1508.65 Q251.224 1505.08 247.59 1505.08 M247.59 1501.38 Q253.4 1501.38 256.455 1505.99 Q259.534 1510.57 259.534 1519.32 Q259.534 1528.05 256.455 1532.65 Q253.4 1537.24 247.59 1537.24 Q241.779 1537.24 238.701 1532.65 Q235.645 1528.05 235.645 1519.32 Q235.645 1510.57 238.701 1505.99 Q241.779 1501.38 247.59 1501.38 Z" fill="#000000" fill-rule="evenodd" fill-opacity="1" /><path clip-path="url(#clip660)" d="M651.369 1517.66 L669.725 1517.66 L669.725 1521.6 L655.651 1521.6 L655.651 1530.07 Q656.67 1529.72 657.688 1529.56 Q658.707 1529.38 659.725 1529.38 Q665.512 1529.38 668.892 1532.55 Q672.272 1535.72 672.272 1541.14 Q672.272 1546.72 668.799 1549.82 Q665.327 1552.9 659.008 1552.9 Q656.832 1552.9 654.563 1552.53 Q652.318 1552.16 649.911 1551.41 L649.911 1546.72 Q651.994 1547.85 654.216 1548.41 Q656.438 1548.96 658.915 1548.96 Q662.92 1548.96 665.258 1546.85 Q667.596 1544.75 667.596 1541.14 Q667.596 1537.53 665.258 1535.42 Q662.92 1533.31 658.915 1533.31 Q657.04 1533.31 655.165 1533.73 Q653.313 1534.15 651.369 1535.03 L651.369 1517.66 Z" fill="#000000" fill-rule="evenodd" fill-opacity="1" /><path clip-path="url(#clip660)" d="M681.485 1546.35 L686.369 1546.35 L686.369 1552.22 L681.485 1552.22 L681.485 1546.35 Z" fill="#000000" fill-rule="evenodd" fill-opacity="1" /><path clip-path="url(#clip660)" d="M706.554 1520.74 Q702.943 1520.74 701.114 1524.31 Q699.308 1527.85 699.308 1534.98 Q699.308 1542.09 701.114 1545.65 Q702.943 1549.19 706.554 1549.19 Q710.188 1549.19 711.994 1545.65 Q713.822 1542.09 713.822 1534.98 Q713.822 1527.85 711.994 1524.31 Q710.188 1520.74 706.554 1520.74 M706.554 1517.04 Q712.364 1517.04 715.42 1521.65 Q718.498 1526.23 718.498 1534.98 Q718.498 1543.71 715.42 1548.31 Q712.364 1552.9 706.554 1552.9 Q700.744 1552.9 697.665 1548.31 Q694.609 1543.71 694.609 1534.98 Q694.609 1526.23 697.665 1521.65 Q700.744 1517.04 706.554 1517.04 Z" fill="#000000" fill-rule="evenodd" fill-opacity="1" /><path clip-path="url(#clip660)" d="M736.716 1520.74 Q733.105 1520.74 731.276 1524.31 Q729.47 1527.85 729.47 1534.98 Q729.47 1542.09 731.276 1545.65 Q733.105 1549.19 736.716 1549.19 Q740.35 1549.19 742.155 1545.65 Q743.984 1542.09 743.984 1534.98 Q743.984 1527.85 742.155 1524.31 Q740.35 1520.74 736.716 1520.74 M736.716 1517.04 Q742.526 1517.04 745.581 1521.65 Q748.66 1526.23 748.66 1534.98 Q748.66 1543.71 745.581 1548.31 Q742.526 1552.9 736.716 1552.9 Q730.906 1552.9 727.827 1548.31 Q724.771 1543.71 724.771 1534.98 Q724.771 1526.23 727.827 1521.65 Q730.906 1517.04 736.716 1517.04 Z" fill="#000000" fill-rule="evenodd" fill-opacity="1" /><path clip-path="url(#clip660)" d="M785.049 1526.76 L774.47 1537.39 L785.049 1547.97 L782.294 1550.77 L771.669 1540.14 L761.044 1550.77 L758.313 1547.97 L768.868 1537.39 L758.313 1526.76 L761.044 1523.96 L771.669 1534.59 L782.294 1523.96 L785.049 1526.76 Z" fill="#000000" fill-rule="evenodd" fill-opacity="1" /><path clip-path="url(#clip660)" d="M797.41 1548.29 L805.049 1548.29 L805.049 1521.92 L796.739 1523.59 L796.739 1519.33 L805.002 1517.66 L809.678 1517.66 L809.678 1548.29 L817.317 1548.29 L817.317 1552.22 L797.41 1552.22 L797.41 1548.29 Z" fill="#000000" fill-rule="evenodd" fill-opacity="1" /><path clip-path="url(#clip660)" d="M836.761 1520.74 Q833.15 1520.74 831.322 1524.31 Q829.516 1527.85 829.516 1534.98 Q829.516 1542.09 831.322 1545.65 Q833.15 1549.19 836.761 1549.19 Q840.396 1549.19 842.201 1545.65 Q844.03 1542.09 844.03 1534.98 Q844.03 1527.85 842.201 1524.31 Q840.396 1520.74 836.761 1520.74 M836.761 1517.04 Q842.572 1517.04 845.627 1521.65 Q848.706 1526.23 848.706 1534.98 Q848.706 1543.71 845.627 1548.31 Q842.572 1552.9 836.761 1552.9 Q830.951 1552.9 827.873 1548.31 Q824.817 1543.71 824.817 1534.98 Q824.817 1526.23 827.873 1521.65 Q830.951 1517.04 836.761 1517.04 Z" fill="#000000" fill-rule="evenodd" fill-opacity="1" /><path clip-path="url(#clip660)" d="M861.401 1509.67 Q864.128 1510.26 865.652 1512.1 Q867.194 1513.94 867.194 1516.65 Q867.194 1520.81 864.335 1523.08 Q861.476 1525.36 856.21 1525.36 Q854.442 1525.36 852.561 1525 Q850.699 1524.66 848.706 1523.97 L848.706 1520.3 Q850.286 1521.22 852.166 1521.69 Q854.047 1522.16 856.097 1522.16 Q859.671 1522.16 861.533 1520.75 Q863.414 1519.34 863.414 1516.65 Q863.414 1514.17 861.664 1512.78 Q859.934 1511.37 856.831 1511.37 L853.558 1511.37 L853.558 1508.24 L856.981 1508.24 Q859.784 1508.24 861.269 1507.13 Q862.755 1506.01 862.755 1503.9 Q862.755 1501.74 861.213 1500.59 Q859.69 1499.42 856.831 1499.42 Q855.27 1499.42 853.483 1499.76 Q851.696 1500.1 849.552 1500.82 L849.552 1497.43 Q851.715 1496.83 853.596 1496.53 Q855.495 1496.23 857.169 1496.23 Q861.495 1496.23 864.015 1498.2 Q866.536 1500.16 866.536 1503.51 Q866.536 1505.84 865.2 1507.45 Q863.865 1509.05 861.401 1509.67 Z" fill="#000000" fill-rule="evenodd" fill-opacity="1" /><path clip-path="url(#clip660)" d="M1161.33 1548.29 L1168.97 1548.29 L1168.97 1521.92 L1160.66 1523.59 L1160.66 1519.33 L1168.93 1517.66 L1173.6 1517.66 L1173.6 1548.29 L1181.24 1548.29 L1181.24 1552.22 L1161.33 1552.22 L1161.33 1548.29 Z" fill="#000000" fill-rule="evenodd" fill-opacity="1" /><path clip-path="url(#clip660)" d="M1190.68 1546.35 L1195.57 1546.35 L1195.57 1552.22 L1190.68 1552.22 L1190.68 1546.35 Z" fill="#000000" fill-rule="evenodd" fill-opacity="1" /><path clip-path="url(#clip660)" d="M1215.75 1520.74 Q1212.14 1520.74 1210.31 1524.31 Q1208.51 1527.85 1208.51 1534.98 Q1208.51 1542.09 1210.31 1545.65 Q1212.14 1549.19 1215.75 1549.19 Q1219.39 1549.19 1221.19 1545.65 Q1223.02 1542.09 1223.02 1534.98 Q1223.02 1527.85 1221.19 1524.31 Q1219.39 1520.74 1215.75 1520.74 M1215.75 1517.04 Q1221.56 1517.04 1224.62 1521.65 Q1227.7 1526.23 1227.7 1534.98 Q1227.7 1543.71 1224.62 1548.31 Q1221.56 1552.9 1215.75 1552.9 Q1209.94 1552.9 1206.86 1548.31 Q1203.81 1543.71 1203.81 1534.98 Q1203.81 1526.23 1206.86 1521.65 Q1209.94 1517.04 1215.75 1517.04 Z" fill="#000000" fill-rule="evenodd" fill-opacity="1" /><path clip-path="url(#clip660)" d="M1245.92 1520.74 Q1242.3 1520.74 1240.48 1524.31 Q1238.67 1527.85 1238.67 1534.98 Q1238.67 1542.09 1240.48 1545.65 Q1242.3 1549.19 1245.92 1549.19 Q1249.55 1549.19 1251.36 1545.65 Q1253.18 1542.09 1253.18 1534.98 Q1253.18 1527.85 1251.36 1524.31 Q1249.55 1520.74 1245.92 1520.74 M1245.92 1517.04 Q1251.73 1517.04 1254.78 1521.65 Q1257.86 1526.23 1257.86 1534.98 Q1257.86 1543.71 1254.78 1548.31 Q1251.73 1552.9 1245.92 1552.9 Q1240.11 1552.9 1237.03 1548.31 Q1233.97 1543.71 1233.97 1534.98 Q1233.97 1526.23 1237.03 1521.65 Q1240.11 1517.04 1245.92 1517.04 Z" fill="#000000" fill-rule="evenodd" fill-opacity="1" /><path clip-path="url(#clip660)" d="M1294.25 1526.76 L1283.67 1537.39 L1294.25 1547.97 L1291.49 1550.77 L1280.87 1540.14 L1270.24 1550.77 L1267.51 1547.97 L1278.07 1537.39 L1267.51 1526.76 L1270.24 1523.96 L1280.87 1534.59 L1291.49 1523.96 L1294.25 1526.76 Z" fill="#000000" fill-rule="evenodd" fill-opacity="1" /><path clip-path="url(#clip660)" d="M1306.61 1548.29 L1314.25 1548.29 L1314.25 1521.92 L1305.94 1523.59 L1305.94 1519.33 L1314.2 1517.66 L1318.88 1517.66 L1318.88 1548.29 L1326.52 1548.29 L1326.52 1552.22 L1306.61 1552.22 L1306.61 1548.29 Z" fill="#000000" fill-rule="evenodd" fill-opacity="1" /><path clip-path="url(#clip660)" d="M1345.96 1520.74 Q1342.35 1520.74 1340.52 1524.31 Q1338.72 1527.85 1338.72 1534.98 Q1338.72 1542.09 1340.52 1545.65 Q1342.35 1549.19 1345.96 1549.19 Q1349.6 1549.19 1351.4 1545.65 Q1353.23 1542.09 1353.23 1534.98 Q1353.23 1527.85 1351.4 1524.31 Q1349.6 1520.74 1345.96 1520.74 M1345.96 1517.04 Q1351.77 1517.04 1354.83 1521.65 Q1357.91 1526.23 1357.91 1534.98 Q1357.91 1543.71 1354.83 1548.31 Q1351.77 1552.9 1345.96 1552.9 Q1340.15 1552.9 1337.07 1548.31 Q1334.02 1543.71 1334.02 1534.98 Q1334.02 1526.23 1337.07 1521.65 Q1340.15 1517.04 1345.96 1517.04 Z" fill="#000000" fill-rule="evenodd" fill-opacity="1" /><path clip-path="url(#clip660)" d="M1370.58 1500.04 L1360.99 1515.03 L1370.58 1515.03 L1370.58 1500.04 M1369.59 1496.73 L1374.36 1496.73 L1374.36 1515.03 L1378.37 1515.03 L1378.37 1518.19 L1374.36 1518.19 L1374.36 1524.81 L1370.58 1524.81 L1370.58 1518.19 L1357.91 1518.19 L1357.91 1514.53 L1369.59 1496.73 Z" fill="#000000" fill-rule="evenodd" fill-opacity="1" /><path clip-path="url(#clip660)" d="M1672.3 1548.29 L1679.93 1548.29 L1679.93 1521.92 L1671.62 1523.59 L1671.62 1519.33 L1679.89 1517.66 L1684.56 1517.66 L1684.56 1548.29 L1692.2 1548.29 L1692.2 1552.22 L1672.3 1552.22 L1672.3 1548.29 Z" fill="#000000" fill-rule="evenodd" fill-opacity="1" /><path clip-path="url(#clip660)" d="M1701.65 1546.35 L1706.53 1546.35 L1706.53 1552.22 L1701.65 1552.22 L1701.65 1546.35 Z" fill="#000000" fill-rule="evenodd" fill-opacity="1" /><path clip-path="url(#clip660)" d="M1716.76 1517.66 L1735.12 1517.66 L1735.12 1521.6 L1721.05 1521.6 L1721.05 1530.07 Q1722.06 1529.72 1723.08 1529.56 Q1724.1 1529.38 1725.12 1529.38 Q1730.91 1529.38 1734.29 1532.55 Q1737.67 1535.72 1737.67 1541.14 Q1737.67 1546.72 1734.19 1549.82 Q1730.72 1552.9 1724.4 1552.9 Q1722.23 1552.9 1719.96 1552.53 Q1717.71 1552.16 1715.3 1551.41 L1715.3 1546.72 Q1717.39 1547.85 1719.61 1548.41 Q1721.83 1548.96 1724.31 1548.96 Q1728.31 1548.96 1730.65 1546.85 Q1732.99 1544.75 1732.99 1541.14 Q1732.99 1537.53 1730.65 1535.42 Q1728.31 1533.31 1724.31 1533.31 Q1722.43 1533.31 1720.56 1533.73 Q1718.71 1534.15 1716.76 1535.03 L1716.76 1517.66 Z" fill="#000000" fill-rule="evenodd" fill-opacity="1" /><path clip-path="url(#clip660)" d="M1756.88 1520.74 Q1753.27 1520.74 1751.44 1524.31 Q1749.63 1527.85 1749.63 1534.98 Q1749.63 1542.09 1751.44 1545.65 Q1753.27 1549.19 1756.88 1549.19 Q1760.51 1549.19 1762.32 1545.65 Q1764.15 1542.09 1764.15 1534.98 Q1764.15 1527.85 1762.32 1524.31 Q1760.51 1520.74 1756.88 1520.74 M1756.88 1517.04 Q1762.69 1517.04 1765.74 1521.65 Q1768.82 1526.23 1768.82 1534.98 Q1768.82 1543.71 1765.74 1548.31 Q1762.69 1552.9 1756.88 1552.9 Q1751.07 1552.9 1747.99 1548.31 Q1744.93 1543.71 1744.93 1534.98 Q1744.93 1526.23 1747.99 1521.65 Q1751.07 1517.04 1756.88 1517.04 Z" fill="#000000" fill-rule="evenodd" fill-opacity="1" /><path clip-path="url(#clip660)" d="M1805.21 1526.76 L1794.63 1537.39 L1805.21 1547.97 L1802.46 1550.77 L1791.83 1540.14 L1781.21 1550.77 L1778.48 1547.97 L1789.03 1537.39 L1778.48 1526.76 L1781.21 1523.96 L1791.83 1534.59 L1802.46 1523.96 L1805.21 1526.76 Z" fill="#000000" fill-rule="evenodd" fill-opacity="1" /><path clip-path="url(#clip660)" d="M1817.57 1548.29 L1825.21 1548.29 L1825.21 1521.92 L1816.9 1523.59 L1816.9 1519.33 L1825.16 1517.66 L1829.84 1517.66 L1829.84 1548.29 L1837.48 1548.29 L1837.48 1552.22 L1817.57 1552.22 L1817.57 1548.29 Z" fill="#000000" fill-rule="evenodd" fill-opacity="1" /><path clip-path="url(#clip660)" d="M1856.92 1520.74 Q1853.31 1520.74 1851.48 1524.31 Q1849.68 1527.85 1849.68 1534.98 Q1849.68 1542.09 1851.48 1545.65 Q1853.31 1549.19 1856.92 1549.19 Q1860.56 1549.19 1862.36 1545.65 Q1864.19 1542.09 1864.19 1534.98 Q1864.19 1527.85 1862.36 1524.31 Q1860.56 1520.74 1856.92 1520.74 M1856.92 1517.04 Q1862.73 1517.04 1865.79 1521.65 Q1868.87 1526.23 1868.87 1534.98 Q1868.87 1543.71 1865.79 1548.31 Q1862.73 1552.9 1856.92 1552.9 Q1851.11 1552.9 1848.04 1548.31 Q1844.98 1543.71 1844.98 1534.98 Q1844.98 1526.23 1848.04 1521.65 Q1851.11 1517.04 1856.92 1517.04 Z" fill="#000000" fill-rule="evenodd" fill-opacity="1" /><path clip-path="url(#clip660)" d="M1881.54 1500.04 L1871.95 1515.03 L1881.54 1515.03 L1881.54 1500.04 M1880.55 1496.73 L1885.33 1496.73 L1885.33 1515.03 L1889.33 1515.03 L1889.33 1518.19 L1885.33 1518.19 L1885.33 1524.81 L1881.54 1524.81 L1881.54 1518.19 L1868.87 1518.19 L1868.87 1514.53 L1880.55 1496.73 Z" fill="#000000" fill-rule="evenodd" fill-opacity="1" /><path clip-path="url(#clip660)" d="M2187.34 1548.29 L2203.66 1548.29 L2203.66 1552.22 L2181.72 1552.22 L2181.72 1548.29 Q2184.38 1545.53 2188.96 1540.91 Q2193.57 1536.25 2194.75 1534.91 Q2197 1532.39 2197.88 1530.65 Q2198.78 1528.89 2198.78 1527.2 Q2198.78 1524.45 2196.83 1522.71 Q2194.91 1520.97 2191.81 1520.97 Q2189.61 1520.97 2187.16 1521.74 Q2184.73 1522.5 2181.95 1524.05 L2181.95 1519.33 Q2184.77 1518.2 2187.23 1517.62 Q2189.68 1517.04 2191.72 1517.04 Q2197.09 1517.04 2200.28 1519.72 Q2203.48 1522.41 2203.48 1526.9 Q2203.48 1529.03 2202.67 1530.95 Q2201.88 1532.85 2199.77 1535.44 Q2199.2 1536.11 2196.09 1539.33 Q2192.99 1542.53 2187.34 1548.29 Z" fill="#000000" fill-rule="evenodd" fill-opacity="1" /><path clip-path="url(#clip660)" d="M2213.48 1546.35 L2218.36 1546.35 L2218.36 1552.22 L2213.48 1552.22 L2213.48 1546.35 Z" fill="#000000" fill-rule="evenodd" fill-opacity="1" /><path clip-path="url(#clip660)" d="M2238.55 1520.74 Q2234.94 1520.74 2233.11 1524.31 Q2231.3 1527.85 2231.3 1534.98 Q2231.3 1542.09 2233.11 1545.65 Q2234.94 1549.19 2238.55 1549.19 Q2242.18 1549.19 2243.99 1545.65 Q2245.82 1542.09 2245.82 1534.98 Q2245.82 1527.85 2243.99 1524.31 Q2242.18 1520.74 2238.55 1520.74 M2238.55 1517.04 Q2244.36 1517.04 2247.41 1521.65 Q2250.49 1526.23 2250.49 1534.98 Q2250.49 1543.71 2247.41 1548.31 Q2244.36 1552.9 2238.55 1552.9 Q2232.74 1552.9 2229.66 1548.31 Q2226.6 1543.71 2226.6 1534.98 Q2226.6 1526.23 2229.66 1521.65 Q2232.74 1517.04 2238.55 1517.04 Z" fill="#000000" fill-rule="evenodd" fill-opacity="1" /><path clip-path="url(#clip660)" d="M2268.71 1520.74 Q2265.1 1520.74 2263.27 1524.31 Q2261.46 1527.85 2261.46 1534.98 Q2261.46 1542.09 2263.27 1545.65 Q2265.1 1549.19 2268.71 1549.19 Q2272.34 1549.19 2274.15 1545.65 Q2275.98 1542.09 2275.98 1534.98 Q2275.98 1527.85 2274.15 1524.31 Q2272.34 1520.74 2268.71 1520.74 M2268.71 1517.04 Q2274.52 1517.04 2277.57 1521.65 Q2280.65 1526.23 2280.65 1534.98 Q2280.65 1543.71 2277.57 1548.31 Q2274.52 1552.9 2268.71 1552.9 Q2262.9 1552.9 2259.82 1548.31 Q2256.76 1543.71 2256.76 1534.98 Q2256.76 1526.23 2259.82 1521.65 Q2262.9 1517.04 2268.71 1517.04 Z" fill="#000000" fill-rule="evenodd" fill-opacity="1" /><path clip-path="url(#clip660)" d="M2317.04 1526.76 L2306.46 1537.39 L2317.04 1547.97 L2314.29 1550.77 L2303.66 1540.14 L2293.04 1550.77 L2290.31 1547.97 L2300.86 1537.39 L2290.31 1526.76 L2293.04 1523.96 L2303.66 1534.59 L2314.29 1523.96 L2317.04 1526.76 Z" fill="#000000" fill-rule="evenodd" fill-opacity="1" /><path clip-path="url(#clip660)" d="M2329.4 1548.29 L2337.04 1548.29 L2337.04 1521.92 L2328.73 1523.59 L2328.73 1519.33 L2337 1517.66 L2341.67 1517.66 L2341.67 1548.29 L2349.31 1548.29 L2349.31 1552.22 L2329.4 1552.22 L2329.4 1548.29 Z" fill="#000000" fill-rule="evenodd" fill-opacity="1" /><path clip-path="url(#clip660)" d="M2368.75 1520.74 Q2365.14 1520.74 2363.31 1524.31 Q2361.51 1527.85 2361.51 1534.98 Q2361.51 1542.09 2363.31 1545.65 Q2365.14 1549.19 2368.75 1549.19 Q2372.39 1549.19 2374.19 1545.65 Q2376.02 1542.09 2376.02 1534.98 Q2376.02 1527.85 2374.19 1524.31 Q2372.39 1520.74 2368.75 1520.74 M2368.75 1517.04 Q2374.56 1517.04 2377.62 1521.65 Q2380.7 1526.23 2380.7 1534.98 Q2380.7 1543.71 2377.62 1548.31 Q2374.56 1552.9 2368.75 1552.9 Q2362.94 1552.9 2359.87 1548.31 Q2356.81 1543.71 2356.81 1534.98 Q2356.81 1526.23 2359.87 1521.65 Q2362.94 1517.04 2368.75 1517.04 Z" fill="#000000" fill-rule="evenodd" fill-opacity="1" /><path clip-path="url(#clip660)" d="M2393.38 1500.04 L2383.78 1515.03 L2393.38 1515.03 L2393.38 1500.04 M2392.38 1496.73 L2397.16 1496.73 L2397.16 1515.03 L2401.16 1515.03 L2401.16 1518.19 L2397.16 1518.19 L2397.16 1524.81 L2393.38 1524.81 L2393.38 1518.19 L2380.7 1518.19 L2380.7 1514.53 L2392.38 1496.73 Z" fill="#000000" fill-rule="evenodd" fill-opacity="1" /><polyline clip-path="url(#clip662)" style="stroke:#000000; stroke-linecap:round; stroke-linejoin:round; stroke-width:2; stroke-opacity:0.1; fill:none" points="186.274,1433.78 2352.76,1433.78 "/>
<polyline clip-path="url(#clip662)" style="stroke:#000000; stroke-linecap:round; stroke-linejoin:round; stroke-width:2; stroke-opacity:0.1; fill:none" points="186.274,1097.24 2352.76,1097.24 "/>
<polyline clip-path="url(#clip662)" style="stroke:#000000; stroke-linecap:round; stroke-linejoin:round; stroke-width:2; stroke-opacity:0.1; fill:none" points="186.274,760.704 2352.76,760.704 "/>
<polyline clip-path="url(#clip662)" style="stroke:#000000; stroke-linecap:round; stroke-linejoin:round; stroke-width:2; stroke-opacity:0.1; fill:none" points="186.274,424.167 2352.76,424.167 "/>
<polyline clip-path="url(#clip662)" style="stroke:#000000; stroke-linecap:round; stroke-linejoin:round; stroke-width:2; stroke-opacity:0.1; fill:none" points="186.274,87.6286 2352.76,87.6286 "/>
<polyline clip-path="url(#clip660)" style="stroke:#000000; stroke-linecap:round; stroke-linejoin:round; stroke-width:4; stroke-opacity:1; fill:none" points="186.274,1474.16 186.274,47.2441 "/>
<polyline clip-path="url(#clip660)" style="stroke:#000000; stroke-linecap:round; stroke-linejoin:round; stroke-width:4; stroke-opacity:1; fill:none" points="186.274,1433.78 205.172,1433.78 "/>
<polyline clip-path="url(#clip660)" style="stroke:#000000; stroke-linecap:round; stroke-linejoin:round; stroke-width:4; stroke-opacity:1; fill:none" points="186.274,1097.24 205.172,1097.24 "/>
<polyline clip-path="url(#clip660)" style="stroke:#000000; stroke-linecap:round; stroke-linejoin:round; stroke-width:4; stroke-opacity:1; fill:none" points="186.274,760.704 205.172,760.704 "/>
<polyline clip-path="url(#clip660)" style="stroke:#000000; stroke-linecap:round; stroke-linejoin:round; stroke-width:4; stroke-opacity:1; fill:none" points="186.274,424.167 205.172,424.167 "/>
<polyline clip-path="url(#clip660)" style="stroke:#000000; stroke-linecap:round; stroke-linejoin:round; stroke-width:4; stroke-opacity:1; fill:none" points="186.274,87.6286 205.172,87.6286 "/>
<path clip-path="url(#clip660)" d="M62.9365 1419.58 Q59.3254 1419.58 57.4967 1423.14 Q55.6912 1426.69 55.6912 1433.81 Q55.6912 1440.92 57.4967 1444.49 Q59.3254 1448.03 62.9365 1448.03 Q66.5707 1448.03 68.3763 1444.49 Q70.205 1440.92 70.205 1433.81 Q70.205 1426.69 68.3763 1423.14 Q66.5707 1419.58 62.9365 1419.58 M62.9365 1415.88 Q68.7467 1415.88 71.8022 1420.48 Q74.8809 1425.06 74.8809 1433.81 Q74.8809 1442.54 71.8022 1447.15 Q68.7467 1451.73 62.9365 1451.73 Q57.1264 1451.73 54.0477 1447.15 Q50.9921 1442.54 50.9921 1433.81 Q50.9921 1425.06 54.0477 1420.48 Q57.1264 1415.88 62.9365 1415.88 Z" fill="#000000" fill-rule="evenodd" fill-opacity="1" /><path clip-path="url(#clip660)" d="M83.0984 1445.18 L87.9827 1445.18 L87.9827 1451.06 L83.0984 1451.06 L83.0984 1445.18 Z" fill="#000000" fill-rule="evenodd" fill-opacity="1" /><path clip-path="url(#clip660)" d="M108.168 1419.58 Q104.557 1419.58 102.728 1423.14 Q100.922 1426.69 100.922 1433.81 Q100.922 1440.92 102.728 1444.49 Q104.557 1448.03 108.168 1448.03 Q111.802 1448.03 113.608 1444.49 Q115.436 1440.92 115.436 1433.81 Q115.436 1426.69 113.608 1423.14 Q111.802 1419.58 108.168 1419.58 M108.168 1415.88 Q113.978 1415.88 117.033 1420.48 Q120.112 1425.06 120.112 1433.81 Q120.112 1442.54 117.033 1447.15 Q113.978 1451.73 108.168 1451.73 Q102.358 1451.73 99.2789 1447.15 Q96.2234 1442.54 96.2234 1433.81 Q96.2234 1425.06 99.2789 1420.48 Q102.358 1415.88 108.168 1415.88 Z" fill="#000000" fill-rule="evenodd" fill-opacity="1" /><path clip-path="url(#clip660)" d="M138.33 1419.58 Q134.719 1419.58 132.89 1423.14 Q131.084 1426.69 131.084 1433.81 Q131.084 1440.92 132.89 1444.49 Q134.719 1448.03 138.33 1448.03 Q141.964 1448.03 143.769 1444.49 Q145.598 1440.92 145.598 1433.81 Q145.598 1426.69 143.769 1423.14 Q141.964 1419.58 138.33 1419.58 M138.33 1415.88 Q144.14 1415.88 147.195 1420.48 Q150.274 1425.06 150.274 1433.81 Q150.274 1442.54 147.195 1447.15 Q144.14 1451.73 138.33 1451.73 Q132.519 1451.73 129.441 1447.15 Q126.385 1442.54 126.385 1433.81 Q126.385 1425.06 129.441 1420.48 Q132.519 1415.88 138.33 1415.88 Z" fill="#000000" fill-rule="evenodd" fill-opacity="1" /><path clip-path="url(#clip660)" d="M63.9319 1083.04 Q60.3208 1083.04 58.4921 1086.61 Q56.6865 1090.15 56.6865 1097.28 Q56.6865 1104.38 58.4921 1107.95 Q60.3208 1111.49 63.9319 1111.49 Q67.5661 1111.49 69.3717 1107.95 Q71.2004 1104.38 71.2004 1097.28 Q71.2004 1090.15 69.3717 1086.61 Q67.5661 1083.04 63.9319 1083.04 M63.9319 1079.34 Q69.742 1079.34 72.7976 1083.94 Q75.8763 1088.53 75.8763 1097.28 Q75.8763 1106 72.7976 1110.61 Q69.742 1115.19 63.9319 1115.19 Q58.1217 1115.19 55.043 1110.61 Q51.9875 1106 51.9875 1097.28 Q51.9875 1088.53 55.043 1083.94 Q58.1217 1079.34 63.9319 1079.34 Z" fill="#000000" fill-rule="evenodd" fill-opacity="1" /><path clip-path="url(#clip660)" d="M84.0938 1108.64 L88.978 1108.64 L88.978 1114.52 L84.0938 1114.52 L84.0938 1108.64 Z" fill="#000000" fill-rule="evenodd" fill-opacity="1" /><path clip-path="url(#clip660)" d="M103.191 1110.59 L119.51 1110.59 L119.51 1114.52 L97.566 1114.52 L97.566 1110.59 Q100.228 1107.83 104.811 1103.2 Q109.418 1098.55 110.598 1097.21 Q112.844 1094.68 113.723 1092.95 Q114.626 1091.19 114.626 1089.5 Q114.626 1086.74 112.682 1085.01 Q110.76 1083.27 107.658 1083.27 Q105.459 1083.27 103.006 1084.04 Q100.575 1084.8 97.7974 1086.35 L97.7974 1081.63 Q100.621 1080.49 103.075 1079.92 Q105.529 1079.34 107.566 1079.34 Q112.936 1079.34 116.131 1082.02 Q119.325 1084.71 119.325 1089.2 Q119.325 1091.33 118.515 1093.25 Q117.728 1095.15 115.621 1097.74 Q115.043 1098.41 111.941 1101.63 Q108.839 1104.82 103.191 1110.59 Z" fill="#000000" fill-rule="evenodd" fill-opacity="1" /><path clip-path="url(#clip660)" d="M129.371 1079.96 L147.728 1079.96 L147.728 1083.9 L133.654 1083.9 L133.654 1092.37 Q134.672 1092.02 135.691 1091.86 Q136.709 1091.68 137.728 1091.68 Q143.515 1091.68 146.894 1094.85 Q150.274 1098.02 150.274 1103.43 Q150.274 1109.01 146.802 1112.11 Q143.33 1115.19 137.01 1115.19 Q134.834 1115.19 132.566 1114.82 Q130.32 1114.45 127.913 1113.71 L127.913 1109.01 Q129.996 1110.15 132.219 1110.7 Q134.441 1111.26 136.918 1111.26 Q140.922 1111.26 143.26 1109.15 Q145.598 1107.05 145.598 1103.43 Q145.598 1099.82 143.26 1097.72 Q140.922 1095.61 136.918 1095.61 Q135.043 1095.61 133.168 1096.03 Q131.316 1096.44 129.371 1097.32 L129.371 1079.96 Z" fill="#000000" fill-rule="evenodd" fill-opacity="1" /><path clip-path="url(#clip660)" d="M62.9365 746.503 Q59.3254 746.503 57.4967 750.068 Q55.6912 753.61 55.6912 760.739 Q55.6912 767.846 57.4967 771.41 Q59.3254 774.952 62.9365 774.952 Q66.5707 774.952 68.3763 771.41 Q70.205 767.846 70.205 760.739 Q70.205 753.61 68.3763 750.068 Q66.5707 746.503 62.9365 746.503 M62.9365 742.799 Q68.7467 742.799 71.8022 747.406 Q74.8809 751.989 74.8809 760.739 Q74.8809 769.466 71.8022 774.072 Q68.7467 778.656 62.9365 778.656 Q57.1264 778.656 54.0477 774.072 Q50.9921 769.466 50.9921 760.739 Q50.9921 751.989 54.0477 747.406 Q57.1264 742.799 62.9365 742.799 Z" fill="#000000" fill-rule="evenodd" fill-opacity="1" /><path clip-path="url(#clip660)" d="M83.0984 772.105 L87.9827 772.105 L87.9827 777.984 L83.0984 777.984 L83.0984 772.105 Z" fill="#000000" fill-rule="evenodd" fill-opacity="1" /><path clip-path="url(#clip660)" d="M98.2141 743.424 L116.57 743.424 L116.57 747.36 L102.496 747.36 L102.496 755.832 Q103.515 755.485 104.534 755.322 Q105.552 755.137 106.571 755.137 Q112.358 755.137 115.737 758.309 Q119.117 761.48 119.117 766.896 Q119.117 772.475 115.645 775.577 Q112.172 778.656 105.853 778.656 Q103.677 778.656 101.409 778.285 Q99.1632 777.915 96.7558 777.174 L96.7558 772.475 Q98.8391 773.609 101.061 774.165 Q103.284 774.721 105.76 774.721 Q109.765 774.721 112.103 772.614 Q114.441 770.508 114.441 766.896 Q114.441 763.285 112.103 761.179 Q109.765 759.072 105.76 759.072 Q103.885 759.072 102.01 759.489 Q100.159 759.906 98.2141 760.785 L98.2141 743.424 Z" fill="#000000" fill-rule="evenodd" fill-opacity="1" /><path clip-path="url(#clip660)" d="M138.33 746.503 Q134.719 746.503 132.89 750.068 Q131.084 753.61 131.084 760.739 Q131.084 767.846 132.89 771.41 Q134.719 774.952 138.33 774.952 Q141.964 774.952 143.769 771.41 Q145.598 767.846 145.598 760.739 Q145.598 753.61 143.769 750.068 Q141.964 746.503 138.33 746.503 M138.33 742.799 Q144.14 742.799 147.195 747.406 Q150.274 751.989 150.274 760.739 Q150.274 769.466 147.195 774.072 Q144.14 778.656 138.33 778.656 Q132.519 778.656 129.441 774.072 Q126.385 769.466 126.385 760.739 Q126.385 751.989 129.441 747.406 Q132.519 742.799 138.33 742.799 Z" fill="#000000" fill-rule="evenodd" fill-opacity="1" /><path clip-path="url(#clip660)" d="M63.9319 409.965 Q60.3208 409.965 58.4921 413.53 Q56.6865 417.072 56.6865 424.201 Q56.6865 431.308 58.4921 434.872 Q60.3208 438.414 63.9319 438.414 Q67.5661 438.414 69.3717 434.872 Q71.2004 431.308 71.2004 424.201 Q71.2004 417.072 69.3717 413.53 Q67.5661 409.965 63.9319 409.965 M63.9319 406.262 Q69.742 406.262 72.7976 410.868 Q75.8763 415.451 75.8763 424.201 Q75.8763 432.928 72.7976 437.534 Q69.742 442.118 63.9319 442.118 Q58.1217 442.118 55.043 437.534 Q51.9875 432.928 51.9875 424.201 Q51.9875 415.451 55.043 410.868 Q58.1217 406.262 63.9319 406.262 Z" fill="#000000" fill-rule="evenodd" fill-opacity="1" /><path clip-path="url(#clip660)" d="M84.0938 435.567 L88.978 435.567 L88.978 441.447 L84.0938 441.447 L84.0938 435.567 Z" fill="#000000" fill-rule="evenodd" fill-opacity="1" /><path clip-path="url(#clip660)" d="M97.9826 406.887 L120.205 406.887 L120.205 408.877 L107.658 441.447 L102.774 441.447 L114.58 410.822 L97.9826 410.822 L97.9826 406.887 Z" fill="#000000" fill-rule="evenodd" fill-opacity="1" /><path clip-path="url(#clip660)" d="M129.371 406.887 L147.728 406.887 L147.728 410.822 L133.654 410.822 L133.654 419.294 Q134.672 418.947 135.691 418.785 Q136.709 418.599 137.728 418.599 Q143.515 418.599 146.894 421.771 Q150.274 424.942 150.274 430.359 Q150.274 435.937 146.802 439.039 Q143.33 442.118 137.01 442.118 Q134.834 442.118 132.566 441.747 Q130.32 441.377 127.913 440.636 L127.913 435.937 Q129.996 437.072 132.219 437.627 Q134.441 438.183 136.918 438.183 Q140.922 438.183 143.26 436.076 Q145.598 433.97 145.598 430.359 Q145.598 426.748 143.26 424.641 Q140.922 422.535 136.918 422.535 Q135.043 422.535 133.168 422.951 Q131.316 423.368 129.371 424.248 L129.371 406.887 Z" fill="#000000" fill-rule="evenodd" fill-opacity="1" /><path clip-path="url(#clip660)" d="M53.7467 100.973 L61.3856 100.973 L61.3856 74.6079 L53.0754 76.2745 L53.0754 72.0153 L61.3393 70.3486 L66.0152 70.3486 L66.0152 100.973 L73.654 100.973 L73.654 104.909 L53.7467 104.909 L53.7467 100.973 Z" fill="#000000" fill-rule="evenodd" fill-opacity="1" /><path clip-path="url(#clip660)" d="M83.0984 99.029 L87.9827 99.029 L87.9827 104.909 L83.0984 104.909 L83.0984 99.029 Z" fill="#000000" fill-rule="evenodd" fill-opacity="1" /><path clip-path="url(#clip660)" d="M108.168 73.4273 Q104.557 73.4273 102.728 76.9921 Q100.922 80.5338 100.922 87.6634 Q100.922 94.7698 102.728 98.3346 Q104.557 101.876 108.168 101.876 Q111.802 101.876 113.608 98.3346 Q115.436 94.7698 115.436 87.6634 Q115.436 80.5338 113.608 76.9921 Q111.802 73.4273 108.168 73.4273 M108.168 69.7236 Q113.978 69.7236 117.033 74.3301 Q120.112 78.9134 120.112 87.6634 Q120.112 96.3902 117.033 100.997 Q113.978 105.58 108.168 105.58 Q102.358 105.58 99.2789 100.997 Q96.2234 96.3902 96.2234 87.6634 Q96.2234 78.9134 99.2789 74.3301 Q102.358 69.7236 108.168 69.7236 Z" fill="#000000" fill-rule="evenodd" fill-opacity="1" /><path clip-path="url(#clip660)" d="M138.33 73.4273 Q134.719 73.4273 132.89 76.9921 Q131.084 80.5338 131.084 87.6634 Q131.084 94.7698 132.89 98.3346 Q134.719 101.876 138.33 101.876 Q141.964 101.876 143.769 98.3346 Q145.598 94.7698 145.598 87.6634 Q145.598 80.5338 143.769 76.9921 Q141.964 73.4273 138.33 73.4273 M138.33 69.7236 Q144.14 69.7236 147.195 74.3301 Q150.274 78.9134 150.274 87.6634 Q150.274 96.3902 147.195 100.997 Q144.14 105.58 138.33 105.58 Q132.519 105.58 129.441 100.997 Q126.385 96.3902 126.385 87.6634 Q126.385 78.9134 129.441 74.3301 Q132.519 69.7236 138.33 69.7236 Z" fill="#000000" fill-rule="evenodd" fill-opacity="1" /><polyline clip-path="url(#clip662)" style="stroke:#009af9; stroke-linecap:round; stroke-linejoin:round; stroke-width:4; stroke-opacity:1; fill:none" points="247.59,1433.78 260.896,1433.78 383.935,1433.78 457.876,1433.78 520.392,1433.78 588.302,1433.78 650.909,1433.78 718.031,1433.78 795.798,1433.78 864.908,1433.78 925.511,1433.78 991.585,1433.78 1058.05,1433.78 1131.54,1433.78 1201.46,1433.78 1274.16,1433.78 1335.36,1433.78 1410.08,1433.78 1478.52,1433.78 1541.74,1433.78 1605.77,1433.78 1677.54,1433.78 1742.57,1433.78 1817.03,1433.78 1885.97,1433.78 1953.93,1433.78 2019.92,1433.78 2087.57,1433.78 2161.69,1433.78 2269.35,1433.78 2291.44,1433.78 "/>
<polyline clip-path="url(#clip662)" style="stroke:#e26f46; stroke-linecap:round; stroke-linejoin:round; stroke-width:4; stroke-opacity:1; fill:none" points="-1980.21,87.6286 4519.24,87.6286 "/>
<polyline clip-path="url(#clip662)" style="stroke:#3da44d; stroke-linecap:round; stroke-linejoin:round; stroke-width:4; stroke-opacity:1; fill:none" points="247.59,1433.78 247.693,1431.76 247.797,1427.2 247.901,1421.94 248.005,1416.78 248.109,1412 248.213,1407.65 248.317,1403.73 248.421,1400.2 248.525,1397.01 248.629,1394.13 248.733,1391.51 248.837,1389.12 248.941,1386.94 249.045,1384.94 249.149,1383.09 249.253,1381.39 249.357,1379.81 249.461,1378.34 249.565,1376.98 249.669,1375.7 249.773,1374.51 249.877,1373.39 249.981,1372.34 250.085,1371.35 250.292,1369.53 250.5,1367.9 250.708,1366.44 250.916,1365.11 251.124,1363.9 251.332,1362.79 251.54,1361.78 251.748,1360.84 252.164,1359.17 252.579,1357.73 252.995,1356.47 253.411,1355.36 253.827,1354.37 254.243,1353.49 254.659,1352.69 255.074,1351.97 255.49,1351.32 255.906,1350.72 256.738,1349.67 257.569,1348.77 258.401,1347.99 259.233,1347.32 259.649,1347.01 260.064,1346.72 260.48,1346.45 260.896,1346.19 262.819,1345.17 264.741,1344.36 266.664,1343.7 268.586,1343.15 272.431,1342.29 276.276,1341.65 280.121,1341.15 283.966,1340.75 287.811,1340.43 291.656,1340.15 299.346,1339.72 307.036,1339.4 314.725,1339.14 322.415,1338.94 337.795,1338.62 353.175,1338.39 368.555,1338.21 383.935,1338.06 420.905,1337.8 457.876,1337.61 489.134,1337.49 520.392,1337.4 588.302,1337.25 650.909,1337.16 718.031,1337.1 795.798,1337.05 864.908,1337.01 925.511,1336.99 991.585,1336.98 1058.05,1336.96 1131.54,1336.95 1201.46,1336.94 1274.16,1336.93 1335.36,1336.93 1410.08,1336.92 1478.52,1336.92 1541.74,1336.91 1605.77,1336.91 1677.54,1336.91 1742.57,1336.9 1817.03,1336.9 1885.97,1336.9 1953.93,1336.9 2019.92,1336.9 2087.57,1336.9 2161.69,1336.9 2269.35,1336.89 2291.44,1336.89 "/>
<path clip-path="url(#clip660)" d="M2010.88 302.168 L2280.54 302.168 L2280.54 94.8081 L2010.88 94.8081  Z" fill="#ffffff" fill-rule="evenodd" fill-opacity="1"/>
<polyline clip-path="url(#clip660)" style="stroke:#000000; stroke-linecap:round; stroke-linejoin:round; stroke-width:4; stroke-opacity:1; fill:none" points="2010.88,302.168 2280.54,302.168 2280.54,94.8081 2010.88,94.8081 2010.88,302.168 "/>
<polyline clip-path="url(#clip660)" style="stroke:#009af9; stroke-linecap:round; stroke-linejoin:round; stroke-width:4; stroke-opacity:1; fill:none" points="2034.95,146.648 2179.39,146.648 "/>
<path clip-path="url(#clip660)" d="M2217.3 166.336 Q2215.5 170.965 2213.78 172.377 Q2212.07 173.789 2209.2 173.789 L2205.8 173.789 L2205.8 170.224 L2208.3 170.224 Q2210.06 170.224 2211.03 169.391 Q2212 168.558 2213.18 165.456 L2213.94 163.511 L2203.46 138.002 L2207.97 138.002 L2216.07 158.28 L2224.18 138.002 L2228.69 138.002 L2217.3 166.336 Z" fill="#000000" fill-rule="evenodd" fill-opacity="1" /><path clip-path="url(#clip660)" d="M2235.98 159.993 L2243.62 159.993 L2243.62 133.627 L2235.31 135.294 L2235.31 131.035 L2243.57 129.368 L2248.25 129.368 L2248.25 159.993 L2255.89 159.993 L2255.89 163.928 L2235.98 163.928 L2235.98 159.993 Z" fill="#000000" fill-rule="evenodd" fill-opacity="1" /><polyline clip-path="url(#clip660)" style="stroke:#e26f46; stroke-linecap:round; stroke-linejoin:round; stroke-width:4; stroke-opacity:1; fill:none" points="2034.95,198.488 2179.39,198.488 "/>
<path clip-path="url(#clip660)" d="M2217.3 218.176 Q2215.5 222.805 2213.78 224.217 Q2212.07 225.629 2209.2 225.629 L2205.8 225.629 L2205.8 222.064 L2208.3 222.064 Q2210.06 222.064 2211.03 221.231 Q2212 220.398 2213.18 217.296 L2213.94 215.351 L2203.46 189.842 L2207.97 189.842 L2216.07 210.12 L2224.18 189.842 L2228.69 189.842 L2217.3 218.176 Z" fill="#000000" fill-rule="evenodd" fill-opacity="1" /><path clip-path="url(#clip660)" d="M2239.2 211.833 L2255.52 211.833 L2255.52 215.768 L2233.57 215.768 L2233.57 211.833 Q2236.24 209.078 2240.82 204.449 Q2245.43 199.796 2246.61 198.453 Q2248.85 195.93 2249.73 194.194 Q2250.63 192.435 2250.63 190.745 Q2250.63 187.99 2248.69 186.254 Q2246.77 184.518 2243.67 184.518 Q2241.47 184.518 2239.01 185.282 Q2236.58 186.046 2233.81 187.597 L2233.81 182.875 Q2236.63 181.741 2239.08 181.162 Q2241.54 180.583 2243.57 180.583 Q2248.94 180.583 2252.14 183.268 Q2255.33 185.953 2255.33 190.444 Q2255.33 192.574 2254.52 194.495 Q2253.74 196.393 2251.63 198.986 Q2251.05 199.657 2247.95 202.875 Q2244.85 206.069 2239.2 211.833 Z" fill="#000000" fill-rule="evenodd" fill-opacity="1" /><polyline clip-path="url(#clip660)" style="stroke:#3da44d; stroke-linecap:round; stroke-linejoin:round; stroke-width:4; stroke-opacity:1; fill:none" points="2034.95,250.328 2179.39,250.328 "/>
<path clip-path="url(#clip660)" d="M2217.3 270.016 Q2215.5 274.645 2213.78 276.057 Q2212.07 277.469 2209.2 277.469 L2205.8 277.469 L2205.8 273.904 L2208.3 273.904 Q2210.06 273.904 2211.03 273.071 Q2212 272.238 2213.18 269.136 L2213.94 267.191 L2203.46 241.682 L2207.97 241.682 L2216.07 261.96 L2224.18 241.682 L2228.69 241.682 L2217.3 270.016 Z" fill="#000000" fill-rule="evenodd" fill-opacity="1" /><path clip-path="url(#clip660)" d="M2249.34 248.974 Q2252.69 249.692 2254.57 251.96 Q2256.47 254.229 2256.47 257.562 Q2256.47 262.678 2252.95 265.478 Q2249.43 268.279 2242.95 268.279 Q2240.77 268.279 2238.46 267.84 Q2236.17 267.423 2233.71 266.566 L2233.71 262.053 Q2235.66 263.187 2237.97 263.766 Q2240.29 264.344 2242.81 264.344 Q2247.21 264.344 2249.5 262.608 Q2251.82 260.872 2251.82 257.562 Q2251.82 254.506 2249.66 252.793 Q2247.53 251.057 2243.71 251.057 L2239.69 251.057 L2239.69 247.215 L2243.9 247.215 Q2247.35 247.215 2249.18 245.849 Q2251 244.46 2251 241.868 Q2251 239.205 2249.11 237.793 Q2247.23 236.358 2243.71 236.358 Q2241.79 236.358 2239.59 236.775 Q2237.39 237.192 2234.75 238.071 L2234.75 233.905 Q2237.42 233.164 2239.73 232.793 Q2242.07 232.423 2244.13 232.423 Q2249.45 232.423 2252.56 234.854 Q2255.66 237.261 2255.66 241.381 Q2255.66 244.252 2254.01 246.242 Q2252.37 248.21 2249.34 248.974 Z" fill="#000000" fill-rule="evenodd" fill-opacity="1" /></svg>
