<?xml version="1.0" encoding="utf-8"?>
<svg xmlns="http://www.w3.org/2000/svg" xmlns:xlink="http://www.w3.org/1999/xlink" width="600" height="400" viewBox="0 0 2400 1600">
<defs>
  <clipPath id="clip380">
    <rect x="0" y="0" width="2400" height="1600"/>
  </clipPath>
</defs>
<path clip-path="url(#clip380)" d="M0 1600 L2400 1600 L2400 0 L0 0  Z" fill="#ffffff" fill-rule="evenodd" fill-opacity="1"/>
<defs>
  <clipPath id="clip381">
    <rect x="480" y="0" width="1681" height="1600"/>
  </clipPath>
</defs>
<path clip-path="url(#clip380)" d="M219.866 1423.18 L2352.76 1423.18 L2352.76 47.2441 L219.866 47.2441  Z" fill="#ffffff" fill-rule="evenodd" fill-opacity="1"/>
<defs>
  <clipPath id="clip382">
    <rect x="219" y="47" width="2134" height="1377"/>
  </clipPath>
</defs>
<polyline clip-path="url(#clip382)" style="stroke:#000000; stroke-linecap:round; stroke-linejoin:round; stroke-width:2; stroke-opacity:0.1; fill:none" points="436.832,1423.18 436.832,47.2441 "/>
<polyline clip-path="url(#clip382)" style="stroke:#000000; stroke-linecap:round; stroke-linejoin:round; stroke-width:2; stroke-opacity:0.1; fill:none" points="908.025,1423.18 908.025,47.2441 "/>
<polyline clip-path="url(#clip382)" style="stroke:#000000; stroke-linecap:round; stroke-linejoin:round; stroke-width:2; stroke-opacity:0.1; fill:none" points="1379.22,1423.18 1379.22,47.2441 "/>
<polyline clip-path="url(#clip382)" style="stroke:#000000; stroke-linecap:round; stroke-linejoin:round; stroke-width:2; stroke-opacity:0.1; fill:none" points="1850.41,1423.18 1850.41,47.2441 "/>
<polyline clip-path="url(#clip382)" style="stroke:#000000; stroke-linecap:round; stroke-linejoin:round; stroke-width:2; stroke-opacity:0.1; fill:none" points="2321.6,1423.18 2321.6,47.2441 "/>
<polyline clip-path="url(#clip380)" style="stroke:#000000; stroke-linecap:round; stroke-linejoin:round; stroke-width:4; stroke-opacity:1; fill:none" points="219.866,1423.18 2352.76,1423.18 "/>
<polyline clip-path="url(#clip380)" style="stroke:#000000; stroke-linecap:round; stroke-linejoin:round; stroke-width:4; stroke-opacity:1; fill:none" points="436.832,1423.18 436.832,1404.28 "/>
<polyline clip-path="url(#clip380)" style="stroke:#000000; stroke-linecap:round; stroke-linejoin:round; stroke-width:4; stroke-opacity:1; fill:none" points="908.025,1423.18 908.025,1404.28 "/>
<polyline clip-path="url(#clip380)" style="stroke:#000000; stroke-linecap:round; stroke-linejoin:round; stroke-width:4; stroke-opacity:1; fill:none" points="1379.22,1423.18 1379.22,1404.28 "/>
<polyline clip-path="url(#clip380)" style="stroke:#000000; stroke-linecap:round; stroke-linejoin:round; stroke-width:4; stroke-opacity:1; fill:none" points="1850.41,1423.18 1850.41,1404.28 "/>
<polyline clip-path="url(#clip380)" style="stroke:#000000; stroke-linecap:round; stroke-linejoin:round; stroke-width:4; stroke-opacity:1; fill:none" points="2321.6,1423.18 2321.6,1404.28 "/>
<path clip-path="url(#clip380)" d="M399.135 1454.1 Q395.524 1454.1 393.695 1457.66 Q391.89 1461.2 391.89 1468.33 Q391.89 1475.44 393.695 1479.01 Q395.524 1482.55 399.135 1482.55 Q402.769 1482.55 404.575 1479.01 Q406.404 1475.44 406.404 1468.33 Q406.404 1461.2 404.575 1457.66 Q402.769 1454.1 399.135 1454.1 M399.135 1450.39 Q404.945 1450.39 408.001 1455 Q411.079 1459.58 411.079 1468.33 Q411.079 1477.06 408.001 1481.67 Q404.945 1486.25 399.135 1486.25 Q393.325 1486.25 390.246 1481.67 Q387.191 1477.06 387.191 1468.33 Q387.191 1459.58 390.246 1455 Q393.325 1450.39 399.135 1450.39 Z" fill="#000000" fill-rule="evenodd" fill-opacity="1" /><path clip-path="url(#clip380)" d="M419.297 1479.7 L424.181 1479.7 L424.181 1485.58 L419.297 1485.58 L419.297 1479.7 Z" fill="#000000" fill-rule="evenodd" fill-opacity="1" /><path clip-path="url(#clip380)" d="M444.366 1454.1 Q440.755 1454.1 438.927 1457.66 Q437.121 1461.2 437.121 1468.33 Q437.121 1475.44 438.927 1479.01 Q440.755 1482.55 444.366 1482.55 Q448.001 1482.55 449.806 1479.01 Q451.635 1475.44 451.635 1468.33 Q451.635 1461.2 449.806 1457.66 Q448.001 1454.1 444.366 1454.1 M444.366 1450.39 Q450.176 1450.39 453.232 1455 Q456.311 1459.58 456.311 1468.33 Q456.311 1477.06 453.232 1481.67 Q450.176 1486.25 444.366 1486.25 Q438.556 1486.25 435.478 1481.67 Q432.422 1477.06 432.422 1468.33 Q432.422 1459.58 435.478 1455 Q438.556 1450.39 444.366 1450.39 Z" fill="#000000" fill-rule="evenodd" fill-opacity="1" /><path clip-path="url(#clip380)" d="M474.528 1454.1 Q470.917 1454.1 469.088 1457.66 Q467.283 1461.2 467.283 1468.33 Q467.283 1475.44 469.088 1479.01 Q470.917 1482.55 474.528 1482.55 Q478.162 1482.55 479.968 1479.01 Q481.797 1475.44 481.797 1468.33 Q481.797 1461.2 479.968 1457.66 Q478.162 1454.1 474.528 1454.1 M474.528 1450.39 Q480.338 1450.39 483.394 1455 Q486.473 1459.58 486.473 1468.33 Q486.473 1477.06 483.394 1481.67 Q480.338 1486.25 474.528 1486.25 Q468.718 1486.25 465.639 1481.67 Q462.584 1477.06 462.584 1468.33 Q462.584 1459.58 465.639 1455 Q468.718 1450.39 474.528 1450.39 Z" fill="#000000" fill-rule="evenodd" fill-opacity="1" /><path clip-path="url(#clip380)" d="M870.826 1454.1 Q867.215 1454.1 865.386 1457.66 Q863.58 1461.2 863.58 1468.33 Q863.58 1475.44 865.386 1479.01 Q867.215 1482.55 870.826 1482.55 Q874.46 1482.55 876.265 1479.01 Q878.094 1475.44 878.094 1468.33 Q878.094 1461.2 876.265 1457.66 Q874.46 1454.1 870.826 1454.1 M870.826 1450.39 Q876.636 1450.39 879.691 1455 Q882.77 1459.58 882.77 1468.33 Q882.77 1477.06 879.691 1481.67 Q876.636 1486.25 870.826 1486.25 Q865.016 1486.25 861.937 1481.67 Q858.881 1477.06 858.881 1468.33 Q858.881 1459.58 861.937 1455 Q865.016 1450.39 870.826 1450.39 Z" fill="#000000" fill-rule="evenodd" fill-opacity="1" /><path clip-path="url(#clip380)" d="M890.988 1479.7 L895.872 1479.7 L895.872 1485.58 L890.988 1485.58 L890.988 1479.7 Z" fill="#000000" fill-rule="evenodd" fill-opacity="1" /><path clip-path="url(#clip380)" d="M910.085 1481.64 L926.404 1481.64 L926.404 1485.58 L904.46 1485.58 L904.46 1481.64 Q907.122 1478.89 911.705 1474.26 Q916.312 1469.61 917.492 1468.27 Q919.737 1465.74 920.617 1464.01 Q921.52 1462.25 921.52 1460.56 Q921.52 1457.8 919.575 1456.07 Q917.654 1454.33 914.552 1454.33 Q912.353 1454.33 909.9 1455.09 Q907.469 1455.86 904.691 1457.41 L904.691 1452.69 Q907.515 1451.55 909.969 1450.97 Q912.423 1450.39 914.46 1450.39 Q919.83 1450.39 923.025 1453.08 Q926.219 1455.77 926.219 1460.26 Q926.219 1462.39 925.409 1464.31 Q924.622 1466.2 922.515 1468.8 Q921.937 1469.47 918.835 1472.69 Q915.733 1475.88 910.085 1481.64 Z" fill="#000000" fill-rule="evenodd" fill-opacity="1" /><path clip-path="url(#clip380)" d="M936.265 1451.02 L954.622 1451.02 L954.622 1454.96 L940.548 1454.96 L940.548 1463.43 Q941.566 1463.08 942.585 1462.92 Q943.603 1462.73 944.622 1462.73 Q950.409 1462.73 953.788 1465.9 Q957.168 1469.08 957.168 1474.49 Q957.168 1480.07 953.696 1483.17 Q950.223 1486.25 943.904 1486.25 Q941.728 1486.25 939.46 1485.88 Q937.214 1485.51 934.807 1484.77 L934.807 1480.07 Q936.89 1481.2 939.112 1481.76 Q941.335 1482.32 943.811 1482.32 Q947.816 1482.32 950.154 1480.21 Q952.492 1478.1 952.492 1474.49 Q952.492 1470.88 950.154 1468.77 Q947.816 1466.67 943.811 1466.67 Q941.936 1466.67 940.061 1467.08 Q938.21 1467.5 936.265 1468.38 L936.265 1451.02 Z" fill="#000000" fill-rule="evenodd" fill-opacity="1" /><path clip-path="url(#clip380)" d="M1341.52 1454.1 Q1337.91 1454.1 1336.08 1457.66 Q1334.28 1461.2 1334.28 1468.33 Q1334.28 1475.44 1336.08 1479.01 Q1337.91 1482.55 1341.52 1482.55 Q1345.16 1482.55 1346.96 1479.01 Q1348.79 1475.44 1348.79 1468.33 Q1348.79 1461.2 1346.96 1457.66 Q1345.16 1454.1 1341.52 1454.1 M1341.52 1450.39 Q1347.33 1450.39 1350.39 1455 Q1353.47 1459.58 1353.47 1468.33 Q1353.47 1477.06 1350.39 1481.67 Q1347.33 1486.25 1341.52 1486.25 Q1335.71 1486.25 1332.63 1481.67 Q1329.58 1477.06 1329.58 1468.33 Q1329.58 1459.58 1332.63 1455 Q1335.71 1450.39 1341.52 1450.39 Z" fill="#000000" fill-rule="evenodd" fill-opacity="1" /><path clip-path="url(#clip380)" d="M1361.68 1479.7 L1366.57 1479.7 L1366.57 1485.58 L1361.68 1485.58 L1361.68 1479.7 Z" fill="#000000" fill-rule="evenodd" fill-opacity="1" /><path clip-path="url(#clip380)" d="M1376.8 1451.02 L1395.15 1451.02 L1395.15 1454.96 L1381.08 1454.96 L1381.08 1463.43 Q1382.1 1463.08 1383.12 1462.92 Q1384.14 1462.73 1385.15 1462.73 Q1390.94 1462.73 1394.32 1465.9 Q1397.7 1469.08 1397.7 1474.49 Q1397.7 1480.07 1394.23 1483.17 Q1390.76 1486.25 1384.44 1486.25 Q1382.26 1486.25 1379.99 1485.88 Q1377.75 1485.51 1375.34 1484.77 L1375.34 1480.07 Q1377.42 1481.2 1379.65 1481.76 Q1381.87 1482.32 1384.34 1482.32 Q1388.35 1482.32 1390.69 1480.21 Q1393.03 1478.1 1393.03 1474.49 Q1393.03 1470.88 1390.69 1468.77 Q1388.35 1466.67 1384.34 1466.67 Q1382.47 1466.67 1380.59 1467.08 Q1378.74 1467.5 1376.8 1468.38 L1376.8 1451.02 Z" fill="#000000" fill-rule="evenodd" fill-opacity="1" /><path clip-path="url(#clip380)" d="M1416.91 1454.1 Q1413.3 1454.1 1411.47 1457.66 Q1409.67 1461.2 1409.67 1468.33 Q1409.67 1475.44 1411.47 1479.01 Q1413.3 1482.55 1416.91 1482.55 Q1420.55 1482.55 1422.35 1479.01 Q1424.18 1475.44 1424.18 1468.33 Q1424.18 1461.2 1422.35 1457.66 Q1420.55 1454.1 1416.91 1454.1 M1416.91 1450.39 Q1422.72 1450.39 1425.78 1455 Q1428.86 1459.58 1428.86 1468.33 Q1428.86 1477.06 1425.78 1481.67 Q1422.72 1486.25 1416.91 1486.25 Q1411.1 1486.25 1408.03 1481.67 Q1404.97 1477.06 1404.97 1468.33 Q1404.97 1459.58 1408.03 1455 Q1411.1 1450.39 1416.91 1450.39 Z" fill="#000000" fill-rule="evenodd" fill-opacity="1" /><path clip-path="url(#clip380)" d="M1813.21 1454.1 Q1809.6 1454.1 1807.77 1457.66 Q1805.97 1461.2 1805.97 1468.33 Q1805.97 1475.44 1807.77 1479.01 Q1809.6 1482.55 1813.21 1482.55 Q1816.85 1482.55 1818.65 1479.01 Q1820.48 1475.44 1820.48 1468.33 Q1820.48 1461.2 1818.65 1457.66 Q1816.85 1454.1 1813.21 1454.1 M1813.21 1450.39 Q1819.02 1450.39 1822.08 1455 Q1825.16 1459.58 1825.16 1468.33 Q1825.16 1477.06 1822.08 1481.67 Q1819.02 1486.25 1813.21 1486.25 Q1807.4 1486.25 1804.32 1481.67 Q1801.27 1477.06 1801.27 1468.33 Q1801.27 1459.58 1804.32 1455 Q1807.4 1450.39 1813.21 1450.39 Z" fill="#000000" fill-rule="evenodd" fill-opacity="1" /><path clip-path="url(#clip380)" d="M1833.37 1479.7 L1838.26 1479.7 L1838.26 1485.58 L1833.37 1485.58 L1833.37 1479.7 Z" fill="#000000" fill-rule="evenodd" fill-opacity="1" /><path clip-path="url(#clip380)" d="M1847.26 1451.02 L1869.48 1451.02 L1869.48 1453.01 L1856.94 1485.58 L1852.05 1485.58 L1863.86 1454.96 L1847.26 1454.96 L1847.26 1451.02 Z" fill="#000000" fill-rule="evenodd" fill-opacity="1" /><path clip-path="url(#clip380)" d="M1878.65 1451.02 L1897.01 1451.02 L1897.01 1454.96 L1882.93 1454.96 L1882.93 1463.43 Q1883.95 1463.08 1884.97 1462.92 Q1885.99 1462.73 1887.01 1462.73 Q1892.79 1462.73 1896.17 1465.9 Q1899.55 1469.08 1899.55 1474.49 Q1899.55 1480.07 1896.08 1483.17 Q1892.61 1486.25 1886.29 1486.25 Q1884.11 1486.25 1881.85 1485.88 Q1879.6 1485.51 1877.19 1484.77 L1877.19 1480.07 Q1879.28 1481.2 1881.5 1481.76 Q1883.72 1482.32 1886.2 1482.32 Q1890.2 1482.32 1892.54 1480.21 Q1894.88 1478.1 1894.88 1474.49 Q1894.88 1470.88 1892.54 1468.77 Q1890.2 1466.67 1886.2 1466.67 Q1884.32 1466.67 1882.45 1467.08 Q1880.6 1467.5 1878.65 1468.38 L1878.65 1451.02 Z" fill="#000000" fill-rule="evenodd" fill-opacity="1" /><path clip-path="url(#clip380)" d="M2273.68 1481.64 L2281.31 1481.64 L2281.31 1455.28 L2273 1456.95 L2273 1452.69 L2281.27 1451.02 L2285.94 1451.02 L2285.94 1481.64 L2293.58 1481.64 L2293.58 1485.58 L2273.68 1485.58 L2273.68 1481.64 Z" fill="#000000" fill-rule="evenodd" fill-opacity="1" /><path clip-path="url(#clip380)" d="M2303.03 1479.7 L2307.91 1479.7 L2307.91 1485.58 L2303.03 1485.58 L2303.03 1479.7 Z" fill="#000000" fill-rule="evenodd" fill-opacity="1" /><path clip-path="url(#clip380)" d="M2328.1 1454.1 Q2324.49 1454.1 2322.66 1457.66 Q2320.85 1461.2 2320.85 1468.33 Q2320.85 1475.44 2322.66 1479.01 Q2324.49 1482.55 2328.1 1482.55 Q2331.73 1482.55 2333.54 1479.01 Q2335.36 1475.44 2335.36 1468.33 Q2335.36 1461.2 2333.54 1457.66 Q2331.73 1454.1 2328.1 1454.1 M2328.1 1450.39 Q2333.91 1450.39 2336.96 1455 Q2340.04 1459.58 2340.04 1468.33 Q2340.04 1477.06 2336.96 1481.67 Q2333.91 1486.25 2328.1 1486.25 Q2322.29 1486.25 2319.21 1481.67 Q2316.15 1477.06 2316.15 1468.33 Q2316.15 1459.58 2319.21 1455 Q2322.29 1450.39 2328.1 1450.39 Z" fill="#000000" fill-rule="evenodd" fill-opacity="1" /><path clip-path="url(#clip380)" d="M2358.26 1454.1 Q2354.65 1454.1 2352.82 1457.66 Q2351.01 1461.2 2351.01 1468.33 Q2351.01 1475.44 2352.82 1479.01 Q2354.65 1482.55 2358.26 1482.55 Q2361.89 1482.55 2363.7 1479.01 Q2365.53 1475.44 2365.53 1468.33 Q2365.53 1461.2 2363.7 1457.66 Q2361.89 1454.1 2358.26 1454.1 M2358.26 1450.39 Q2364.07 1450.39 2367.12 1455 Q2370.2 1459.58 2370.2 1468.33 Q2370.2 1477.06 2367.12 1481.67 Q2364.07 1486.25 2358.26 1486.25 Q2352.45 1486.25 2349.37 1481.67 Q2346.31 1477.06 2346.31 1468.33 Q2346.31 1459.58 2349.37 1455 Q2352.45 1450.39 2358.26 1450.39 Z" fill="#000000" fill-rule="evenodd" fill-opacity="1" /><path clip-path="url(#clip380)" d="M1271 1520.52 L1301.05 1520.52 L1301.05 1525.93 L1277.43 1525.93 L1277.43 1540 L1300.06 1540 L1300.06 1545.41 L1277.43 1545.41 L1277.43 1562.63 L1301.62 1562.63 L1301.62 1568.04 L1271 1568.04 L1271 1520.52 Z" fill="#000000" fill-rule="evenodd" fill-opacity="1" /><polyline clip-path="url(#clip382)" style="stroke:#000000; stroke-linecap:round; stroke-linejoin:round; stroke-width:2; stroke-opacity:0.1; fill:none" points="219.866,1384.24 2352.76,1384.24 "/>
<polyline clip-path="url(#clip382)" style="stroke:#000000; stroke-linecap:round; stroke-linejoin:round; stroke-width:2; stroke-opacity:0.1; fill:none" points="219.866,1055.59 2352.76,1055.59 "/>
<polyline clip-path="url(#clip382)" style="stroke:#000000; stroke-linecap:round; stroke-linejoin:round; stroke-width:2; stroke-opacity:0.1; fill:none" points="219.866,726.946 2352.76,726.946 "/>
<polyline clip-path="url(#clip382)" style="stroke:#000000; stroke-linecap:round; stroke-linejoin:round; stroke-width:2; stroke-opacity:0.1; fill:none" points="219.866,398.3 2352.76,398.3 "/>
<polyline clip-path="url(#clip382)" style="stroke:#000000; stroke-linecap:round; stroke-linejoin:round; stroke-width:2; stroke-opacity:0.1; fill:none" points="219.866,69.6534 2352.76,69.6534 "/>
<polyline clip-path="url(#clip380)" style="stroke:#000000; stroke-linecap:round; stroke-linejoin:round; stroke-width:4; stroke-opacity:1; fill:none" points="219.866,1423.18 219.866,47.2441 "/>
<polyline clip-path="url(#clip380)" style="stroke:#000000; stroke-linecap:round; stroke-linejoin:round; stroke-width:4; stroke-opacity:1; fill:none" points="219.866,1384.24 238.764,1384.24 "/>
<polyline clip-path="url(#clip380)" style="stroke:#000000; stroke-linecap:round; stroke-linejoin:round; stroke-width:4; stroke-opacity:1; fill:none" points="219.866,1055.59 238.764,1055.59 "/>
<polyline clip-path="url(#clip380)" style="stroke:#000000; stroke-linecap:round; stroke-linejoin:round; stroke-width:4; stroke-opacity:1; fill:none" points="219.866,726.946 238.764,726.946 "/>
<polyline clip-path="url(#clip380)" style="stroke:#000000; stroke-linecap:round; stroke-linejoin:round; stroke-width:4; stroke-opacity:1; fill:none" points="219.866,398.3 238.764,398.3 "/>
<polyline clip-path="url(#clip380)" style="stroke:#000000; stroke-linecap:round; stroke-linejoin:round; stroke-width:4; stroke-opacity:1; fill:none" points="219.866,69.6534 238.764,69.6534 "/>
<path clip-path="url(#clip380)" d="M126.691 1370.04 Q123.08 1370.04 121.251 1373.6 Q119.445 1377.14 119.445 1384.27 Q119.445 1391.38 121.251 1394.94 Q123.08 1398.49 126.691 1398.49 Q130.325 1398.49 132.13 1394.94 Q133.959 1391.38 133.959 1384.27 Q133.959 1377.14 132.13 1373.6 Q130.325 1370.04 126.691 1370.04 M126.691 1366.33 Q132.501 1366.33 135.556 1370.94 Q138.635 1375.52 138.635 1384.27 Q138.635 1393 135.556 1397.61 Q132.501 1402.19 126.691 1402.19 Q120.88 1402.19 117.802 1397.61 Q114.746 1393 114.746 1384.27 Q114.746 1375.52 117.802 1370.94 Q120.88 1366.33 126.691 1366.33 Z" fill="#000000" fill-rule="evenodd" fill-opacity="1" /><path clip-path="url(#clip380)" d="M146.853 1395.64 L151.737 1395.64 L151.737 1401.52 L146.853 1401.52 L146.853 1395.64 Z" fill="#000000" fill-rule="evenodd" fill-opacity="1" /><path clip-path="url(#clip380)" d="M171.922 1370.04 Q168.311 1370.04 166.482 1373.6 Q164.677 1377.14 164.677 1384.27 Q164.677 1391.38 166.482 1394.94 Q168.311 1398.49 171.922 1398.49 Q175.556 1398.49 177.362 1394.94 Q179.19 1391.38 179.19 1384.27 Q179.19 1377.14 177.362 1373.6 Q175.556 1370.04 171.922 1370.04 M171.922 1366.33 Q177.732 1366.33 180.788 1370.94 Q183.866 1375.52 183.866 1384.27 Q183.866 1393 180.788 1397.61 Q177.732 1402.19 171.922 1402.19 Q166.112 1402.19 163.033 1397.61 Q159.978 1393 159.978 1384.27 Q159.978 1375.52 163.033 1370.94 Q166.112 1366.33 171.922 1366.33 Z" fill="#000000" fill-rule="evenodd" fill-opacity="1" /><path clip-path="url(#clip380)" d="M128.288 1041.39 Q124.677 1041.39 122.848 1044.96 Q121.043 1048.5 121.043 1055.63 Q121.043 1062.73 122.848 1066.3 Q124.677 1069.84 128.288 1069.84 Q131.922 1069.84 133.728 1066.3 Q135.556 1062.73 135.556 1055.63 Q135.556 1048.5 133.728 1044.96 Q131.922 1041.39 128.288 1041.39 M128.288 1037.69 Q134.098 1037.69 137.154 1042.29 Q140.232 1046.88 140.232 1055.63 Q140.232 1064.35 137.154 1068.96 Q134.098 1073.54 128.288 1073.54 Q122.478 1073.54 119.399 1068.96 Q116.343 1064.35 116.343 1055.63 Q116.343 1046.88 119.399 1042.29 Q122.478 1037.69 128.288 1037.69 Z" fill="#000000" fill-rule="evenodd" fill-opacity="1" /><path clip-path="url(#clip380)" d="M148.45 1066.99 L153.334 1066.99 L153.334 1072.87 L148.45 1072.87 L148.45 1066.99 Z" fill="#000000" fill-rule="evenodd" fill-opacity="1" /><path clip-path="url(#clip380)" d="M167.547 1068.94 L183.866 1068.94 L183.866 1072.87 L161.922 1072.87 L161.922 1068.94 Q164.584 1066.18 169.167 1061.55 Q173.774 1056.9 174.954 1055.56 Q177.2 1053.03 178.079 1051.3 Q178.982 1049.54 178.982 1047.85 Q178.982 1045.09 177.038 1043.36 Q175.116 1041.62 172.014 1041.62 Q169.815 1041.62 167.362 1042.39 Q164.931 1043.15 162.153 1044.7 L162.153 1039.98 Q164.977 1038.84 167.431 1038.27 Q169.885 1037.69 171.922 1037.69 Q177.292 1037.69 180.487 1040.37 Q183.681 1043.06 183.681 1047.55 Q183.681 1049.68 182.871 1051.6 Q182.084 1053.5 179.977 1056.09 Q179.399 1056.76 176.297 1059.98 Q173.195 1063.17 167.547 1068.94 Z" fill="#000000" fill-rule="evenodd" fill-opacity="1" /><path clip-path="url(#clip380)" d="M126.205 712.745 Q122.593 712.745 120.765 716.309 Q118.959 719.851 118.959 726.981 Q118.959 734.087 120.765 737.652 Q122.593 741.193 126.205 741.193 Q129.839 741.193 131.644 737.652 Q133.473 734.087 133.473 726.981 Q133.473 719.851 131.644 716.309 Q129.839 712.745 126.205 712.745 M126.205 709.041 Q132.015 709.041 135.07 713.647 Q138.149 718.231 138.149 726.981 Q138.149 735.707 135.07 740.314 Q132.015 744.897 126.205 744.897 Q120.394 744.897 117.316 740.314 Q114.26 735.707 114.26 726.981 Q114.26 718.231 117.316 713.647 Q120.394 709.041 126.205 709.041 Z" fill="#000000" fill-rule="evenodd" fill-opacity="1" /><path clip-path="url(#clip380)" d="M146.366 738.346 L151.251 738.346 L151.251 744.226 L146.366 744.226 L146.366 738.346 Z" fill="#000000" fill-rule="evenodd" fill-opacity="1" /><path clip-path="url(#clip380)" d="M174.283 713.74 L162.477 732.189 L174.283 732.189 L174.283 713.74 M173.056 709.666 L178.936 709.666 L178.936 732.189 L183.866 732.189 L183.866 736.078 L178.936 736.078 L178.936 744.226 L174.283 744.226 L174.283 736.078 L158.681 736.078 L158.681 731.564 L173.056 709.666 Z" fill="#000000" fill-rule="evenodd" fill-opacity="1" /><path clip-path="url(#clip380)" d="M126.529 384.098 Q122.918 384.098 121.089 387.663 Q119.283 391.205 119.283 398.334 Q119.283 405.441 121.089 409.006 Q122.918 412.547 126.529 412.547 Q130.163 412.547 131.968 409.006 Q133.797 405.441 133.797 398.334 Q133.797 391.205 131.968 387.663 Q130.163 384.098 126.529 384.098 M126.529 380.395 Q132.339 380.395 135.394 385.001 Q138.473 389.584 138.473 398.334 Q138.473 407.061 135.394 411.668 Q132.339 416.251 126.529 416.251 Q120.718 416.251 117.64 411.668 Q114.584 407.061 114.584 398.334 Q114.584 389.584 117.64 385.001 Q120.718 380.395 126.529 380.395 Z" fill="#000000" fill-rule="evenodd" fill-opacity="1" /><path clip-path="url(#clip380)" d="M146.691 409.7 L151.575 409.7 L151.575 415.58 L146.691 415.58 L146.691 409.7 Z" fill="#000000" fill-rule="evenodd" fill-opacity="1" /><path clip-path="url(#clip380)" d="M172.339 396.436 Q169.19 396.436 167.339 398.589 Q165.51 400.742 165.51 404.492 Q165.51 408.219 167.339 410.394 Q169.19 412.547 172.339 412.547 Q175.487 412.547 177.315 410.394 Q179.167 408.219 179.167 404.492 Q179.167 400.742 177.315 398.589 Q175.487 396.436 172.339 396.436 M181.621 381.784 L181.621 386.043 Q179.862 385.209 178.056 384.77 Q176.274 384.33 174.514 384.33 Q169.885 384.33 167.431 387.455 Q165.001 390.58 164.653 396.899 Q166.019 394.885 168.079 393.821 Q170.139 392.733 172.616 392.733 Q177.825 392.733 180.834 395.904 Q183.866 399.052 183.866 404.492 Q183.866 409.816 180.718 413.033 Q177.57 416.251 172.339 416.251 Q166.343 416.251 163.172 411.668 Q160.001 407.061 160.001 398.334 Q160.001 390.14 163.89 385.279 Q167.778 380.395 174.329 380.395 Q176.089 380.395 177.871 380.742 Q179.676 381.089 181.621 381.784 Z" fill="#000000" fill-rule="evenodd" fill-opacity="1" /><path clip-path="url(#clip380)" d="M126.783 55.4521 Q123.172 55.4521 121.343 59.0169 Q119.538 62.5586 119.538 69.6882 Q119.538 76.7946 121.343 80.3594 Q123.172 83.901 126.783 83.901 Q130.417 83.901 132.223 80.3594 Q134.052 76.7946 134.052 69.6882 Q134.052 62.5586 132.223 59.0169 Q130.417 55.4521 126.783 55.4521 M126.783 51.7484 Q132.593 51.7484 135.649 56.3549 Q138.728 60.9382 138.728 69.6882 Q138.728 78.415 135.649 83.0214 Q132.593 87.6047 126.783 87.6047 Q120.973 87.6047 117.894 83.0214 Q114.839 78.415 114.839 69.6882 Q114.839 60.9382 117.894 56.3549 Q120.973 51.7484 126.783 51.7484 Z" fill="#000000" fill-rule="evenodd" fill-opacity="1" /><path clip-path="url(#clip380)" d="M146.945 81.0538 L151.829 81.0538 L151.829 86.9334 L146.945 86.9334 L146.945 81.0538 Z" fill="#000000" fill-rule="evenodd" fill-opacity="1" /><path clip-path="url(#clip380)" d="M172.014 70.5215 Q168.681 70.5215 166.76 72.3039 Q164.862 74.0863 164.862 77.2113 Q164.862 80.3363 166.76 82.1186 Q168.681 83.901 172.014 83.901 Q175.348 83.901 177.269 82.1186 Q179.19 80.3131 179.19 77.2113 Q179.19 74.0863 177.269 72.3039 Q175.371 70.5215 172.014 70.5215 M167.339 68.5308 Q164.329 67.79 162.64 65.7298 Q160.973 63.6697 160.973 60.7067 Q160.973 56.5632 163.913 54.1558 Q166.876 51.7484 172.014 51.7484 Q177.176 51.7484 180.116 54.1558 Q183.056 56.5632 183.056 60.7067 Q183.056 63.6697 181.366 65.7298 Q179.7 67.79 176.714 68.5308 Q180.093 69.3178 181.968 71.6094 Q183.866 73.9011 183.866 77.2113 Q183.866 82.2344 180.788 84.9196 Q177.732 87.6047 172.014 87.6047 Q166.297 87.6047 163.218 84.9196 Q160.163 82.2344 160.163 77.2113 Q160.163 73.9011 162.061 71.6094 Q163.959 69.3178 167.339 68.5308 M165.626 61.1465 Q165.626 63.8317 167.292 65.3363 Q168.982 66.841 172.014 66.841 Q175.024 66.841 176.714 65.3363 Q178.426 63.8317 178.426 61.1465 Q178.426 58.4614 176.714 56.9567 Q175.024 55.4521 172.014 55.4521 Q168.982 55.4521 167.292 56.9567 Q165.626 58.4614 165.626 61.1465 Z" fill="#000000" fill-rule="evenodd" fill-opacity="1" /><path clip-path="url(#clip380)" d="M20.8447 951.36 Q20.8447 958.362 26.0645 962.5 Q31.2844 966.605 40.2919 966.605 Q49.2675 966.605 54.4874 962.5 Q59.7073 958.362 59.7073 951.36 Q59.7073 944.357 54.4874 940.283 Q49.2675 936.177 40.2919 936.177 Q31.2844 936.177 26.0645 940.283 Q20.8447 944.357 20.8447 951.36 M15.6248 951.36 Q15.6248 941.365 22.3406 935.382 Q29.0246 929.398 40.2919 929.398 Q51.5274 929.398 58.2432 935.382 Q64.9272 941.365 64.9272 951.36 Q64.9272 961.386 58.2432 967.401 Q51.5592 973.385 40.2919 973.385 Q29.0246 973.385 22.3406 967.401 Q15.6248 961.386 15.6248 951.36 Z" fill="#000000" fill-rule="evenodd" fill-opacity="1" /><path clip-path="url(#clip380)" d="M28.3562 923.796 L28.3562 917.589 L58.275 906.449 L28.3562 895.309 L28.3562 889.103 L64.0042 902.471 L64.0042 910.428 L28.3562 923.796 Z" fill="#000000" fill-rule="evenodd" fill-opacity="1" /><path clip-path="url(#clip380)" d="M44.7161 850.527 L47.5806 850.527 L47.5806 877.454 Q53.6281 877.072 56.8109 873.825 Q59.9619 870.547 59.9619 864.722 Q59.9619 861.348 59.1344 858.197 Q58.3069 855.015 56.6518 851.895 L62.1899 851.895 Q63.5267 855.046 64.227 858.357 Q64.9272 861.667 64.9272 865.072 Q64.9272 873.602 59.9619 878.6 Q54.9967 883.565 46.5303 883.565 Q37.7774 883.565 32.6531 878.854 Q27.4968 874.112 27.4968 866.091 Q27.4968 858.898 32.1438 854.728 Q36.7589 850.527 44.7161 850.527 M42.9973 856.383 Q38.1912 856.447 35.3266 859.089 Q32.4621 861.699 32.4621 866.027 Q32.4621 870.929 35.2312 873.889 Q38.0002 876.817 43.0292 877.263 L42.9973 856.383 Z" fill="#000000" fill-rule="evenodd" fill-opacity="1" /><path clip-path="url(#clip380)" d="M33.8307 820.258 Q33.2578 821.244 33.0032 822.422 Q32.7167 823.568 32.7167 824.968 Q32.7167 829.934 35.9632 832.607 Q39.1779 835.249 45.2253 835.249 L64.0042 835.249 L64.0042 841.137 L28.3562 841.137 L28.3562 835.249 L33.8944 835.249 Q30.6479 833.403 29.0883 830.443 Q27.4968 827.483 27.4968 823.25 Q27.4968 822.645 27.5923 821.913 Q27.656 821.181 27.8151 820.29 L33.8307 820.258 Z" fill="#000000" fill-rule="evenodd" fill-opacity="1" /><path clip-path="url(#clip380)" d="M14.479 814.115 L14.479 808.258 L64.0042 808.258 L64.0042 814.115 L14.479 814.115 Z" fill="#000000" fill-rule="evenodd" fill-opacity="1" /><path clip-path="url(#clip380)" d="M46.0847 779.804 Q46.0847 786.902 47.7079 789.639 Q49.3312 792.376 53.2461 792.376 Q56.3653 792.376 58.2114 790.339 Q60.0256 788.27 60.0256 784.737 Q60.0256 779.867 56.5881 776.939 Q53.1188 773.979 47.3897 773.979 L46.0847 773.979 L46.0847 779.804 M43.6657 768.123 L64.0042 768.123 L64.0042 773.979 L58.5933 773.979 Q61.8398 775.984 63.3994 778.976 Q64.9272 781.968 64.9272 786.297 Q64.9272 791.771 61.8716 795.018 Q58.7843 798.232 53.6281 798.232 Q47.6125 798.232 44.5569 794.222 Q41.5014 790.18 41.5014 782.191 L41.5014 773.979 L40.9285 773.979 Q36.8862 773.979 34.6901 776.653 Q32.4621 779.294 32.4621 784.101 Q32.4621 787.156 33.1941 790.053 Q33.9262 792.949 35.3903 795.623 L29.9795 795.623 Q28.7381 792.408 28.1334 789.384 Q27.4968 786.36 27.4968 783.496 Q27.4968 775.762 31.5072 771.942 Q35.5176 768.123 43.6657 768.123 Z" fill="#000000" fill-rule="evenodd" fill-opacity="1" /><path clip-path="url(#clip380)" d="M58.657 750.394 L77.5631 750.394 L77.5631 756.282 L28.3562 756.282 L28.3562 750.394 L33.7671 750.394 Q30.5842 748.548 29.0564 745.747 Q27.4968 742.914 27.4968 739 Q27.4968 732.507 32.6531 728.464 Q37.8093 724.39 46.212 724.39 Q54.6147 724.39 59.771 728.464 Q64.9272 732.507 64.9272 739 Q64.9272 742.914 63.3994 745.747 Q61.8398 748.548 58.657 750.394 M46.212 730.47 Q39.7508 730.47 36.0905 733.143 Q32.3984 735.785 32.3984 740.432 Q32.3984 745.079 36.0905 747.752 Q39.7508 750.394 46.212 750.394 Q52.6732 750.394 56.3653 747.752 Q60.0256 745.079 60.0256 740.432 Q60.0256 735.785 56.3653 733.143 Q52.6732 730.47 46.212 730.47 Z" fill="#000000" fill-rule="evenodd" fill-opacity="1" /><path clip-path="url(#clip380)" d="M28.3562 697.368 L28.3562 691.511 L56.1743 684.191 L28.3562 676.902 L28.3562 669.995 L56.1743 662.675 L28.3562 655.386 L28.3562 649.53 L64.0042 658.855 L64.0042 665.762 L34.7856 673.433 L64.0042 681.135 L64.0042 688.042 L28.3562 697.368 Z" fill="#000000" fill-rule="evenodd" fill-opacity="1" /><path clip-path="url(#clip380)" d="M28.3562 640.649 L28.3562 634.793 L64.0042 634.793 L64.0042 640.649 L28.3562 640.649 M14.479 640.649 L14.479 634.793 L21.895 634.793 L21.895 640.649 L14.479 640.649 Z" fill="#000000" fill-rule="evenodd" fill-opacity="1" /><path clip-path="url(#clip380)" d="M18.2347 616.746 L28.3562 616.746 L28.3562 604.683 L32.9077 604.683 L32.9077 616.746 L52.2594 616.746 Q56.6199 616.746 57.8613 615.569 Q59.1026 614.359 59.1026 610.699 L59.1026 604.683 L64.0042 604.683 L64.0042 610.699 Q64.0042 617.478 61.4897 620.056 Q58.9434 622.634 52.2594 622.634 L32.9077 622.634 L32.9077 626.931 L28.3562 626.931 L28.3562 622.634 L18.2347 622.634 L18.2347 616.746 Z" fill="#000000" fill-rule="evenodd" fill-opacity="1" /><path clip-path="url(#clip380)" d="M42.4881 567.348 L64.0042 567.348 L64.0042 573.205 L42.679 573.205 Q37.6183 573.205 35.1038 575.178 Q32.5894 577.151 32.5894 581.098 Q32.5894 585.841 35.6131 588.578 Q38.6368 591.315 43.8567 591.315 L64.0042 591.315 L64.0042 597.203 L14.479 597.203 L14.479 591.315 L33.8944 591.315 Q30.6797 589.214 29.0883 586.382 Q27.4968 583.517 27.4968 579.793 Q27.4968 573.65 31.3163 570.499 Q35.1038 567.348 42.4881 567.348 Z" fill="#000000" fill-rule="evenodd" fill-opacity="1" /><path clip-path="url(#clip380)" d="M22.818 518.81 L46.4666 527.531 L46.4666 510.057 L22.818 518.81 M16.4842 522.438 L16.4842 515.149 L64.0042 497.039 L64.0042 503.723 L51.8138 508.052 L51.8138 529.472 L64.0042 533.801 L64.0042 540.58 L16.4842 522.438 Z" fill="#000000" fill-rule="evenodd" fill-opacity="1" /><path clip-path="url(#clip382)" d="M337.179 86.1857 L337.179 1384.24 L352.111 1384.24 L352.111 86.1857 L337.179 86.1857 L337.179 86.1857  Z" fill="#009af9" fill-rule="evenodd" fill-opacity="1"/>
<polyline clip-path="url(#clip382)" style="stroke:#000000; stroke-linecap:round; stroke-linejoin:round; stroke-width:4; stroke-opacity:1; fill:none" points="337.179,86.1857 337.179,1384.24 352.111,1384.24 352.111,86.1857 337.179,86.1857 "/>
<path clip-path="url(#clip382)" d="M356.437 917.827 L356.437 1384.24 L371.369 1384.24 L371.369 917.827 L356.437 917.827 L356.437 917.827  Z" fill="#009af9" fill-rule="evenodd" fill-opacity="1"/>
<polyline clip-path="url(#clip382)" style="stroke:#000000; stroke-linecap:round; stroke-linejoin:round; stroke-width:4; stroke-opacity:1; fill:none" points="356.437,917.827 356.437,1384.24 371.369,1384.24 371.369,917.827 356.437,917.827 "/>
<path clip-path="url(#clip382)" d="M375.319 1025.19 L375.319 1384.24 L390.251 1384.24 L390.251 1025.19 L375.319 1025.19 L375.319 1025.19  Z" fill="#009af9" fill-rule="evenodd" fill-opacity="1"/>
<polyline clip-path="url(#clip382)" style="stroke:#000000; stroke-linecap:round; stroke-linejoin:round; stroke-width:4; stroke-opacity:1; fill:none" points="375.319,1025.19 375.319,1384.24 390.251,1384.24 390.251,1025.19 375.319,1025.19 "/>
<path clip-path="url(#clip382)" d="M393.983 1087.97 L393.983 1384.24 L408.915 1384.24 L408.915 1087.97 L393.983 1087.97 L393.983 1087.97  Z" fill="#009af9" fill-rule="evenodd" fill-opacity="1"/>
<polyline clip-path="url(#clip382)" style="stroke:#000000; stroke-linecap:round; stroke-linejoin:round; stroke-width:4; stroke-opacity:1; fill:none" points="393.983,1087.97 393.983,1384.24 408.915,1384.24 408.915,1087.97 393.983,1087.97 "/>
<path clip-path="url(#clip382)" d="M412.662 1129.86 L412.662 1384.24 L427.593 1384.24 L427.593 1129.86 L412.662 1129.86 L412.662 1129.86  Z" fill="#009af9" fill-rule="evenodd" fill-opacity="1"/>
<polyline clip-path="url(#clip382)" style="stroke:#000000; stroke-linecap:round; stroke-linejoin:round; stroke-width:4; stroke-opacity:1; fill:none" points="412.662,1129.86 412.662,1384.24 427.593,1384.24 427.593,1129.86 412.662,1129.86 "/>
<path clip-path="url(#clip382)" d="M431.366 1160.08 L431.366 1384.24 L446.298 1384.24 L446.298 1160.08 L431.366 1160.08 L431.366 1160.08  Z" fill="#009af9" fill-rule="evenodd" fill-opacity="1"/>
<polyline clip-path="url(#clip382)" style="stroke:#000000; stroke-linecap:round; stroke-linejoin:round; stroke-width:4; stroke-opacity:1; fill:none" points="431.366,1160.08 431.366,1384.24 446.298,1384.24 446.298,1160.08 431.366,1160.08 "/>
<path clip-path="url(#clip382)" d="M450.094 1183.05 L450.094 1384.24 L465.026 1384.24 L465.026 1183.05 L450.094 1183.05 L450.094 1183.05  Z" fill="#009af9" fill-rule="evenodd" fill-opacity="1"/>
<polyline clip-path="url(#clip382)" style="stroke:#000000; stroke-linecap:round; stroke-linejoin:round; stroke-width:4; stroke-opacity:1; fill:none" points="450.094,1183.05 450.094,1384.24 465.026,1384.24 465.026,1183.05 450.094,1183.05 "/>
<path clip-path="url(#clip382)" d="M468.84 1201.19 L468.84 1384.24 L483.771 1384.24 L483.771 1201.19 L468.84 1201.19 L468.84 1201.19  Z" fill="#009af9" fill-rule="evenodd" fill-opacity="1"/>
<polyline clip-path="url(#clip382)" style="stroke:#000000; stroke-linecap:round; stroke-linejoin:round; stroke-width:4; stroke-opacity:1; fill:none" points="468.84,1201.19 468.84,1384.24 483.771,1384.24 483.771,1201.19 468.84,1201.19 "/>
<path clip-path="url(#clip382)" d="M487.6 1215.91 L487.6 1384.24 L502.532 1384.24 L502.532 1215.91 L487.6 1215.91 L487.6 1215.91  Z" fill="#009af9" fill-rule="evenodd" fill-opacity="1"/>
<polyline clip-path="url(#clip382)" style="stroke:#000000; stroke-linecap:round; stroke-linejoin:round; stroke-width:4; stroke-opacity:1; fill:none" points="487.6,1215.91 487.6,1384.24 502.532,1384.24 502.532,1215.91 487.6,1215.91 "/>
<path clip-path="url(#clip382)" d="M506.372 1228.13 L506.372 1384.24 L521.303 1384.24 L521.303 1228.13 L506.372 1228.13 L506.372 1228.13  Z" fill="#009af9" fill-rule="evenodd" fill-opacity="1"/>
<polyline clip-path="url(#clip382)" style="stroke:#000000; stroke-linecap:round; stroke-linejoin:round; stroke-width:4; stroke-opacity:1; fill:none" points="506.372,1228.13 506.372,1384.24 521.303,1384.24 521.303,1228.13 506.372,1228.13 "/>
<path clip-path="url(#clip382)" d="M525.153 1238.47 L525.153 1384.24 L540.084 1384.24 L540.084 1238.47 L525.153 1238.47 L525.153 1238.47  Z" fill="#009af9" fill-rule="evenodd" fill-opacity="1"/>
<polyline clip-path="url(#clip382)" style="stroke:#000000; stroke-linecap:round; stroke-linejoin:round; stroke-width:4; stroke-opacity:1; fill:none" points="525.153,1238.47 525.153,1384.24 540.084,1384.24 540.084,1238.47 525.153,1238.47 "/>
<path clip-path="url(#clip382)" d="M543.941 1247.33 L543.941 1384.24 L558.873 1384.24 L558.873 1247.33 L543.941 1247.33 L543.941 1247.33  Z" fill="#009af9" fill-rule="evenodd" fill-opacity="1"/>
<polyline clip-path="url(#clip382)" style="stroke:#000000; stroke-linecap:round; stroke-linejoin:round; stroke-width:4; stroke-opacity:1; fill:none" points="543.941,1247.33 543.941,1384.24 558.873,1384.24 558.873,1247.33 543.941,1247.33 "/>
<path clip-path="url(#clip382)" d="M562.736 1255.02 L562.736 1384.24 L577.668 1384.24 L577.668 1255.02 L562.736 1255.02 L562.736 1255.02  Z" fill="#009af9" fill-rule="evenodd" fill-opacity="1"/>
<polyline clip-path="url(#clip382)" style="stroke:#000000; stroke-linecap:round; stroke-linejoin:round; stroke-width:4; stroke-opacity:1; fill:none" points="562.736,1255.02 562.736,1384.24 577.668,1384.24 577.668,1255.02 562.736,1255.02 "/>
<path clip-path="url(#clip382)" d="M581.536 1261.78 L581.536 1384.24 L596.468 1384.24 L596.468 1261.78 L581.536 1261.78 L581.536 1261.78  Z" fill="#009af9" fill-rule="evenodd" fill-opacity="1"/>
<polyline clip-path="url(#clip382)" style="stroke:#000000; stroke-linecap:round; stroke-linejoin:round; stroke-width:4; stroke-opacity:1; fill:none" points="581.536,1261.78 581.536,1384.24 596.468,1384.24 596.468,1261.78 581.536,1261.78 "/>
<path clip-path="url(#clip382)" d="M600.34 1267.76 L600.34 1384.24 L615.272 1384.24 L615.272 1267.76 L600.34 1267.76 L600.34 1267.76  Z" fill="#009af9" fill-rule="evenodd" fill-opacity="1"/>
<polyline clip-path="url(#clip382)" style="stroke:#000000; stroke-linecap:round; stroke-linejoin:round; stroke-width:4; stroke-opacity:1; fill:none" points="600.34,1267.76 600.34,1384.24 615.272,1384.24 615.272,1267.76 600.34,1267.76 "/>
<path clip-path="url(#clip382)" d="M619.149 1273.1 L619.149 1384.24 L634.08 1384.24 L634.08 1273.1 L619.149 1273.1 L619.149 1273.1  Z" fill="#009af9" fill-rule="evenodd" fill-opacity="1"/>
<polyline clip-path="url(#clip382)" style="stroke:#000000; stroke-linecap:round; stroke-linejoin:round; stroke-width:4; stroke-opacity:1; fill:none" points="619.149,1273.1 619.149,1384.24 634.08,1384.24 634.08,1273.1 619.149,1273.1 "/>
<path clip-path="url(#clip382)" d="M637.96 1277.9 L637.96 1384.24 L652.892 1384.24 L652.892 1277.9 L637.96 1277.9 L637.96 1277.9  Z" fill="#009af9" fill-rule="evenodd" fill-opacity="1"/>
<polyline clip-path="url(#clip382)" style="stroke:#000000; stroke-linecap:round; stroke-linejoin:round; stroke-width:4; stroke-opacity:1; fill:none" points="637.96,1277.9 637.96,1384.24 652.892,1384.24 652.892,1277.9 637.96,1277.9 "/>
<path clip-path="url(#clip382)" d="M656.775 1282.24 L656.775 1384.24 L671.706 1384.24 L671.706 1282.24 L656.775 1282.24 L656.775 1282.24  Z" fill="#009af9" fill-rule="evenodd" fill-opacity="1"/>
<polyline clip-path="url(#clip382)" style="stroke:#000000; stroke-linecap:round; stroke-linejoin:round; stroke-width:4; stroke-opacity:1; fill:none" points="656.775,1282.24 656.775,1384.24 671.706,1384.24 671.706,1282.24 656.775,1282.24 "/>
<path clip-path="url(#clip382)" d="M675.592 1286.18 L675.592 1384.24 L690.523 1384.24 L690.523 1286.18 L675.592 1286.18 L675.592 1286.18  Z" fill="#009af9" fill-rule="evenodd" fill-opacity="1"/>
<polyline clip-path="url(#clip382)" style="stroke:#000000; stroke-linecap:round; stroke-linejoin:round; stroke-width:4; stroke-opacity:1; fill:none" points="675.592,1286.18 675.592,1384.24 690.523,1384.24 690.523,1286.18 675.592,1286.18 "/>
<path clip-path="url(#clip382)" d="M694.411 1289.78 L694.411 1384.24 L709.342 1384.24 L709.342 1289.78 L694.411 1289.78 L694.411 1289.78  Z" fill="#009af9" fill-rule="evenodd" fill-opacity="1"/>
<polyline clip-path="url(#clip382)" style="stroke:#000000; stroke-linecap:round; stroke-linejoin:round; stroke-width:4; stroke-opacity:1; fill:none" points="694.411,1289.78 694.411,1384.24 709.342,1384.24 709.342,1289.78 694.411,1289.78 "/>
<path clip-path="url(#clip382)" d="M713.232 1293.09 L713.232 1384.24 L728.164 1384.24 L728.164 1293.09 L713.232 1293.09 L713.232 1293.09  Z" fill="#009af9" fill-rule="evenodd" fill-opacity="1"/>
<polyline clip-path="url(#clip382)" style="stroke:#000000; stroke-linecap:round; stroke-linejoin:round; stroke-width:4; stroke-opacity:1; fill:none" points="713.232,1293.09 713.232,1384.24 728.164,1384.24 728.164,1293.09 713.232,1293.09 "/>
<path clip-path="url(#clip382)" d="M732.055 1296.14 L732.055 1384.24 L746.986 1384.24 L746.986 1296.14 L732.055 1296.14 L732.055 1296.14  Z" fill="#009af9" fill-rule="evenodd" fill-opacity="1"/>
<polyline clip-path="url(#clip382)" style="stroke:#000000; stroke-linecap:round; stroke-linejoin:round; stroke-width:4; stroke-opacity:1; fill:none" points="732.055,1296.14 732.055,1384.24 746.986,1384.24 746.986,1296.14 732.055,1296.14 "/>
<path clip-path="url(#clip382)" d="M750.879 1298.96 L750.879 1384.24 L765.811 1384.24 L765.811 1298.96 L750.879 1298.96 L750.879 1298.96  Z" fill="#009af9" fill-rule="evenodd" fill-opacity="1"/>
<polyline clip-path="url(#clip382)" style="stroke:#000000; stroke-linecap:round; stroke-linejoin:round; stroke-width:4; stroke-opacity:1; fill:none" points="750.879,1298.96 750.879,1384.24 765.811,1384.24 765.811,1298.96 750.879,1298.96 "/>
<path clip-path="url(#clip382)" d="M769.705 1301.57 L769.705 1384.24 L784.637 1384.24 L784.637 1301.57 L769.705 1301.57 L769.705 1301.57  Z" fill="#009af9" fill-rule="evenodd" fill-opacity="1"/>
<polyline clip-path="url(#clip382)" style="stroke:#000000; stroke-linecap:round; stroke-linejoin:round; stroke-width:4; stroke-opacity:1; fill:none" points="769.705,1301.57 769.705,1384.24 784.637,1384.24 784.637,1301.57 769.705,1301.57 "/>
<path clip-path="url(#clip382)" d="M788.532 1304 L788.532 1384.24 L803.464 1384.24 L803.464 1304 L788.532 1304 L788.532 1304  Z" fill="#009af9" fill-rule="evenodd" fill-opacity="1"/>
<polyline clip-path="url(#clip382)" style="stroke:#000000; stroke-linecap:round; stroke-linejoin:round; stroke-width:4; stroke-opacity:1; fill:none" points="788.532,1304 788.532,1384.24 803.464,1384.24 803.464,1304 788.532,1304 "/>
<path clip-path="url(#clip382)" d="M807.36 1306.27 L807.36 1384.24 L822.292 1384.24 L822.292 1306.27 L807.36 1306.27 L807.36 1306.27  Z" fill="#009af9" fill-rule="evenodd" fill-opacity="1"/>
<polyline clip-path="url(#clip382)" style="stroke:#000000; stroke-linecap:round; stroke-linejoin:round; stroke-width:4; stroke-opacity:1; fill:none" points="807.36,1306.27 807.36,1384.24 822.292,1384.24 822.292,1306.27 807.36,1306.27 "/>
<path clip-path="url(#clip382)" d="M826.19 1308.4 L826.19 1384.24 L841.121 1384.24 L841.121 1308.4 L826.19 1308.4 L826.19 1308.4  Z" fill="#009af9" fill-rule="evenodd" fill-opacity="1"/>
<polyline clip-path="url(#clip382)" style="stroke:#000000; stroke-linecap:round; stroke-linejoin:round; stroke-width:4; stroke-opacity:1; fill:none" points="826.19,1308.4 826.19,1384.24 841.121,1384.24 841.121,1308.4 826.19,1308.4 "/>
<path clip-path="url(#clip382)" d="M845.02 1310.39 L845.02 1384.24 L859.952 1384.24 L859.952 1310.39 L845.02 1310.39 L845.02 1310.39  Z" fill="#009af9" fill-rule="evenodd" fill-opacity="1"/>
<polyline clip-path="url(#clip382)" style="stroke:#000000; stroke-linecap:round; stroke-linejoin:round; stroke-width:4; stroke-opacity:1; fill:none" points="845.02,1310.39 845.02,1384.24 859.952,1384.24 859.952,1310.39 845.02,1310.39 "/>
<path clip-path="url(#clip382)" d="M863.851 1312.26 L863.851 1384.24 L878.783 1384.24 L878.783 1312.26 L863.851 1312.26 L863.851 1312.26  Z" fill="#009af9" fill-rule="evenodd" fill-opacity="1"/>
<polyline clip-path="url(#clip382)" style="stroke:#000000; stroke-linecap:round; stroke-linejoin:round; stroke-width:4; stroke-opacity:1; fill:none" points="863.851,1312.26 863.851,1384.24 878.783,1384.24 878.783,1312.26 863.851,1312.26 "/>
<path clip-path="url(#clip382)" d="M882.683 1314.03 L882.683 1384.24 L897.615 1384.24 L897.615 1314.03 L882.683 1314.03 L882.683 1314.03  Z" fill="#009af9" fill-rule="evenodd" fill-opacity="1"/>
<polyline clip-path="url(#clip382)" style="stroke:#000000; stroke-linecap:round; stroke-linejoin:round; stroke-width:4; stroke-opacity:1; fill:none" points="882.683,1314.03 882.683,1384.24 897.615,1384.24 897.615,1314.03 882.683,1314.03 "/>
<path clip-path="url(#clip382)" d="M901.516 1315.69 L901.516 1384.24 L916.447 1384.24 L916.447 1315.69 L901.516 1315.69 L901.516 1315.69  Z" fill="#009af9" fill-rule="evenodd" fill-opacity="1"/>
<polyline clip-path="url(#clip382)" style="stroke:#000000; stroke-linecap:round; stroke-linejoin:round; stroke-width:4; stroke-opacity:1; fill:none" points="901.516,1315.69 901.516,1384.24 916.447,1384.24 916.447,1315.69 901.516,1315.69 "/>
<path clip-path="url(#clip382)" d="M920.349 1317.26 L920.349 1384.24 L935.281 1384.24 L935.281 1317.26 L920.349 1317.26 L920.349 1317.26  Z" fill="#009af9" fill-rule="evenodd" fill-opacity="1"/>
<polyline clip-path="url(#clip382)" style="stroke:#000000; stroke-linecap:round; stroke-linejoin:round; stroke-width:4; stroke-opacity:1; fill:none" points="920.349,1317.26 920.349,1384.24 935.281,1384.24 935.281,1317.26 920.349,1317.26 "/>
<path clip-path="url(#clip382)" d="M939.183 1318.76 L939.183 1384.24 L954.115 1384.24 L954.115 1318.76 L939.183 1318.76 L939.183 1318.76  Z" fill="#009af9" fill-rule="evenodd" fill-opacity="1"/>
<polyline clip-path="url(#clip382)" style="stroke:#000000; stroke-linecap:round; stroke-linejoin:round; stroke-width:4; stroke-opacity:1; fill:none" points="939.183,1318.76 939.183,1384.24 954.115,1384.24 954.115,1318.76 939.183,1318.76 "/>
<path clip-path="url(#clip382)" d="M958.018 1320.17 L958.018 1384.24 L972.95 1384.24 L972.95 1320.17 L958.018 1320.17 L958.018 1320.17  Z" fill="#009af9" fill-rule="evenodd" fill-opacity="1"/>
<polyline clip-path="url(#clip382)" style="stroke:#000000; stroke-linecap:round; stroke-linejoin:round; stroke-width:4; stroke-opacity:1; fill:none" points="958.018,1320.17 958.018,1384.24 972.95,1384.24 972.95,1320.17 958.018,1320.17 "/>
<path clip-path="url(#clip382)" d="M976.853 1321.51 L976.853 1384.24 L991.785 1384.24 L991.785 1321.51 L976.853 1321.51 L976.853 1321.51  Z" fill="#009af9" fill-rule="evenodd" fill-opacity="1"/>
<polyline clip-path="url(#clip382)" style="stroke:#000000; stroke-linecap:round; stroke-linejoin:round; stroke-width:4; stroke-opacity:1; fill:none" points="976.853,1321.51 976.853,1384.24 991.785,1384.24 991.785,1321.51 976.853,1321.51 "/>
<path clip-path="url(#clip382)" d="M995.689 1322.79 L995.689 1384.24 L1010.62 1384.24 L1010.62 1322.79 L995.689 1322.79 L995.689 1322.79  Z" fill="#009af9" fill-rule="evenodd" fill-opacity="1"/>
<polyline clip-path="url(#clip382)" style="stroke:#000000; stroke-linecap:round; stroke-linejoin:round; stroke-width:4; stroke-opacity:1; fill:none" points="995.689,1322.79 995.689,1384.24 1010.62,1384.24 1010.62,1322.79 995.689,1322.79 "/>
<path clip-path="url(#clip382)" d="M1014.52 1324.01 L1014.52 1384.24 L1029.46 1384.24 L1029.46 1324.01 L1014.52 1324.01 L1014.52 1324.01  Z" fill="#009af9" fill-rule="evenodd" fill-opacity="1"/>
<polyline clip-path="url(#clip382)" style="stroke:#000000; stroke-linecap:round; stroke-linejoin:round; stroke-width:4; stroke-opacity:1; fill:none" points="1014.52,1324.01 1014.52,1384.24 1029.46,1384.24 1029.46,1324.01 1014.52,1324.01 "/>
<path clip-path="url(#clip382)" d="M1033.36 1325.17 L1033.36 1384.24 L1048.29 1384.24 L1048.29 1325.17 L1033.36 1325.17 L1033.36 1325.17  Z" fill="#009af9" fill-rule="evenodd" fill-opacity="1"/>
<polyline clip-path="url(#clip382)" style="stroke:#000000; stroke-linecap:round; stroke-linejoin:round; stroke-width:4; stroke-opacity:1; fill:none" points="1033.36,1325.17 1033.36,1384.24 1048.29,1384.24 1048.29,1325.17 1033.36,1325.17 "/>
<path clip-path="url(#clip382)" d="M1052.2 1326.28 L1052.2 1384.24 L1067.13 1384.24 L1067.13 1326.28 L1052.2 1326.28 L1052.2 1326.28  Z" fill="#009af9" fill-rule="evenodd" fill-opacity="1"/>
<polyline clip-path="url(#clip382)" style="stroke:#000000; stroke-linecap:round; stroke-linejoin:round; stroke-width:4; stroke-opacity:1; fill:none" points="1052.2,1326.28 1052.2,1384.24 1067.13,1384.24 1067.13,1326.28 1052.2,1326.28 "/>
<path clip-path="url(#clip382)" d="M1071.04 1327.34 L1071.04 1384.24 L1085.97 1384.24 L1085.97 1327.34 L1071.04 1327.34 L1071.04 1327.34  Z" fill="#009af9" fill-rule="evenodd" fill-opacity="1"/>
<polyline clip-path="url(#clip382)" style="stroke:#000000; stroke-linecap:round; stroke-linejoin:round; stroke-width:4; stroke-opacity:1; fill:none" points="1071.04,1327.34 1071.04,1384.24 1085.97,1384.24 1085.97,1327.34 1071.04,1327.34 "/>
<path clip-path="url(#clip382)" d="M1089.87 1328.36 L1089.87 1384.24 L1104.81 1384.24 L1104.81 1328.36 L1089.87 1328.36 L1089.87 1328.36  Z" fill="#009af9" fill-rule="evenodd" fill-opacity="1"/>
<polyline clip-path="url(#clip382)" style="stroke:#000000; stroke-linecap:round; stroke-linejoin:round; stroke-width:4; stroke-opacity:1; fill:none" points="1089.87,1328.36 1089.87,1384.24 1104.81,1384.24 1104.81,1328.36 1089.87,1328.36 "/>
<path clip-path="url(#clip382)" d="M1108.71 1329.33 L1108.71 1384.24 L1123.64 1384.24 L1123.64 1329.33 L1108.71 1329.33 L1108.71 1329.33  Z" fill="#009af9" fill-rule="evenodd" fill-opacity="1"/>
<polyline clip-path="url(#clip382)" style="stroke:#000000; stroke-linecap:round; stroke-linejoin:round; stroke-width:4; stroke-opacity:1; fill:none" points="1108.71,1329.33 1108.71,1384.24 1123.64,1384.24 1123.64,1329.33 1108.71,1329.33 "/>
<path clip-path="url(#clip382)" d="M1127.55 1330.26 L1127.55 1384.24 L1142.48 1384.24 L1142.48 1330.26 L1127.55 1330.26 L1127.55 1330.26  Z" fill="#009af9" fill-rule="evenodd" fill-opacity="1"/>
<polyline clip-path="url(#clip382)" style="stroke:#000000; stroke-linecap:round; stroke-linejoin:round; stroke-width:4; stroke-opacity:1; fill:none" points="1127.55,1330.26 1127.55,1384.24 1142.48,1384.24 1142.48,1330.26 1127.55,1330.26 "/>
<path clip-path="url(#clip382)" d="M1146.39 1331.16 L1146.39 1384.24 L1161.32 1384.24 L1161.32 1331.16 L1146.39 1331.16 L1146.39 1331.16  Z" fill="#009af9" fill-rule="evenodd" fill-opacity="1"/>
<polyline clip-path="url(#clip382)" style="stroke:#000000; stroke-linecap:round; stroke-linejoin:round; stroke-width:4; stroke-opacity:1; fill:none" points="1146.39,1331.16 1146.39,1384.24 1161.32,1384.24 1161.32,1331.16 1146.39,1331.16 "/>
<path clip-path="url(#clip382)" d="M1165.23 1332.02 L1165.23 1384.24 L1180.16 1384.24 L1180.16 1332.02 L1165.23 1332.02 L1165.23 1332.02  Z" fill="#009af9" fill-rule="evenodd" fill-opacity="1"/>
<polyline clip-path="url(#clip382)" style="stroke:#000000; stroke-linecap:round; stroke-linejoin:round; stroke-width:4; stroke-opacity:1; fill:none" points="1165.23,1332.02 1165.23,1384.24 1180.16,1384.24 1180.16,1332.02 1165.23,1332.02 "/>
<path clip-path="url(#clip382)" d="M1184.07 1332.85 L1184.07 1384.24 L1199 1384.24 L1199 1332.85 L1184.07 1332.85 L1184.07 1332.85  Z" fill="#009af9" fill-rule="evenodd" fill-opacity="1"/>
<polyline clip-path="url(#clip382)" style="stroke:#000000; stroke-linecap:round; stroke-linejoin:round; stroke-width:4; stroke-opacity:1; fill:none" points="1184.07,1332.85 1184.07,1384.24 1199,1384.24 1199,1332.85 1184.07,1332.85 "/>
<path clip-path="url(#clip382)" d="M1202.91 1333.64 L1202.91 1384.24 L1217.84 1384.24 L1217.84 1333.64 L1202.91 1333.64 L1202.91 1333.64  Z" fill="#009af9" fill-rule="evenodd" fill-opacity="1"/>
<polyline clip-path="url(#clip382)" style="stroke:#000000; stroke-linecap:round; stroke-linejoin:round; stroke-width:4; stroke-opacity:1; fill:none" points="1202.91,1333.64 1202.91,1384.24 1217.84,1384.24 1217.84,1333.64 1202.91,1333.64 "/>
<path clip-path="url(#clip382)" d="M1221.75 1334.41 L1221.75 1384.24 L1236.68 1384.24 L1236.68 1334.41 L1221.75 1334.41 L1221.75 1334.41  Z" fill="#009af9" fill-rule="evenodd" fill-opacity="1"/>
<polyline clip-path="url(#clip382)" style="stroke:#000000; stroke-linecap:round; stroke-linejoin:round; stroke-width:4; stroke-opacity:1; fill:none" points="1221.75,1334.41 1221.75,1384.24 1236.68,1384.24 1236.68,1334.41 1221.75,1334.41 "/>
<path clip-path="url(#clip382)" d="M1240.59 1335.15 L1240.59 1384.24 L1255.52 1384.24 L1255.52 1335.15 L1240.59 1335.15 L1240.59 1335.15  Z" fill="#009af9" fill-rule="evenodd" fill-opacity="1"/>
<polyline clip-path="url(#clip382)" style="stroke:#000000; stroke-linecap:round; stroke-linejoin:round; stroke-width:4; stroke-opacity:1; fill:none" points="1240.59,1335.15 1240.59,1384.24 1255.52,1384.24 1255.52,1335.15 1240.59,1335.15 "/>
<path clip-path="url(#clip382)" d="M1259.43 1335.86 L1259.43 1384.24 L1274.36 1384.24 L1274.36 1335.86 L1259.43 1335.86 L1259.43 1335.86  Z" fill="#009af9" fill-rule="evenodd" fill-opacity="1"/>
<polyline clip-path="url(#clip382)" style="stroke:#000000; stroke-linecap:round; stroke-linejoin:round; stroke-width:4; stroke-opacity:1; fill:none" points="1259.43,1335.86 1259.43,1384.24 1274.36,1384.24 1274.36,1335.86 1259.43,1335.86 "/>
<path clip-path="url(#clip382)" d="M1278.27 1336.55 L1278.27 1384.24 L1293.2 1384.24 L1293.2 1336.55 L1278.27 1336.55 L1278.27 1336.55  Z" fill="#009af9" fill-rule="evenodd" fill-opacity="1"/>
<polyline clip-path="url(#clip382)" style="stroke:#000000; stroke-linecap:round; stroke-linejoin:round; stroke-width:4; stroke-opacity:1; fill:none" points="1278.27,1336.55 1278.27,1384.24 1293.2,1384.24 1293.2,1336.55 1278.27,1336.55 "/>
<path clip-path="url(#clip382)" d="M1297.11 1337.21 L1297.11 1384.24 L1312.04 1384.24 L1312.04 1337.21 L1297.11 1337.21 L1297.11 1337.21  Z" fill="#009af9" fill-rule="evenodd" fill-opacity="1"/>
<polyline clip-path="url(#clip382)" style="stroke:#000000; stroke-linecap:round; stroke-linejoin:round; stroke-width:4; stroke-opacity:1; fill:none" points="1297.11,1337.21 1297.11,1384.24 1312.04,1384.24 1312.04,1337.21 1297.11,1337.21 "/>
<path clip-path="url(#clip382)" d="M1315.95 1337.86 L1315.95 1384.24 L1330.88 1384.24 L1330.88 1337.86 L1315.95 1337.86 L1315.95 1337.86  Z" fill="#009af9" fill-rule="evenodd" fill-opacity="1"/>
<polyline clip-path="url(#clip382)" style="stroke:#000000; stroke-linecap:round; stroke-linejoin:round; stroke-width:4; stroke-opacity:1; fill:none" points="1315.95,1337.86 1315.95,1384.24 1330.88,1384.24 1330.88,1337.86 1315.95,1337.86 "/>
<path clip-path="url(#clip382)" d="M1334.79 1338.48 L1334.79 1384.24 L1349.72 1384.24 L1349.72 1338.48 L1334.79 1338.48 L1334.79 1338.48  Z" fill="#009af9" fill-rule="evenodd" fill-opacity="1"/>
<polyline clip-path="url(#clip382)" style="stroke:#000000; stroke-linecap:round; stroke-linejoin:round; stroke-width:4; stroke-opacity:1; fill:none" points="1334.79,1338.48 1334.79,1384.24 1349.72,1384.24 1349.72,1338.48 1334.79,1338.48 "/>
<path clip-path="url(#clip382)" d="M1353.63 1339.08 L1353.63 1384.24 L1368.57 1384.24 L1368.57 1339.08 L1353.63 1339.08 L1353.63 1339.08  Z" fill="#009af9" fill-rule="evenodd" fill-opacity="1"/>
<polyline clip-path="url(#clip382)" style="stroke:#000000; stroke-linecap:round; stroke-linejoin:round; stroke-width:4; stroke-opacity:1; fill:none" points="1353.63,1339.08 1353.63,1384.24 1368.57,1384.24 1368.57,1339.08 1353.63,1339.08 "/>
<path clip-path="url(#clip382)" d="M1372.48 1339.66 L1372.48 1384.24 L1387.41 1384.24 L1387.41 1339.66 L1372.48 1339.66 L1372.48 1339.66  Z" fill="#009af9" fill-rule="evenodd" fill-opacity="1"/>
<polyline clip-path="url(#clip382)" style="stroke:#000000; stroke-linecap:round; stroke-linejoin:round; stroke-width:4; stroke-opacity:1; fill:none" points="1372.48,1339.66 1372.48,1384.24 1387.41,1384.24 1387.41,1339.66 1372.48,1339.66 "/>
<path clip-path="url(#clip382)" d="M1391.32 1340.22 L1391.32 1384.24 L1406.25 1384.24 L1406.25 1340.22 L1391.32 1340.22 L1391.32 1340.22  Z" fill="#009af9" fill-rule="evenodd" fill-opacity="1"/>
<polyline clip-path="url(#clip382)" style="stroke:#000000; stroke-linecap:round; stroke-linejoin:round; stroke-width:4; stroke-opacity:1; fill:none" points="1391.32,1340.22 1391.32,1384.24 1406.25,1384.24 1406.25,1340.22 1391.32,1340.22 "/>
<path clip-path="url(#clip382)" d="M1410.16 1340.76 L1410.16 1384.24 L1425.09 1384.24 L1425.09 1340.76 L1410.16 1340.76 L1410.16 1340.76  Z" fill="#009af9" fill-rule="evenodd" fill-opacity="1"/>
<polyline clip-path="url(#clip382)" style="stroke:#000000; stroke-linecap:round; stroke-linejoin:round; stroke-width:4; stroke-opacity:1; fill:none" points="1410.16,1340.76 1410.16,1384.24 1425.09,1384.24 1425.09,1340.76 1410.16,1340.76 "/>
<path clip-path="url(#clip382)" d="M1429 1341.29 L1429 1384.24 L1443.93 1384.24 L1443.93 1341.29 L1429 1341.29 L1429 1341.29  Z" fill="#009af9" fill-rule="evenodd" fill-opacity="1"/>
<polyline clip-path="url(#clip382)" style="stroke:#000000; stroke-linecap:round; stroke-linejoin:round; stroke-width:4; stroke-opacity:1; fill:none" points="1429,1341.29 1429,1384.24 1443.93,1384.24 1443.93,1341.29 1429,1341.29 "/>
<path clip-path="url(#clip382)" d="M1447.84 1341.81 L1447.84 1384.24 L1462.78 1384.24 L1462.78 1341.81 L1447.84 1341.81 L1447.84 1341.81  Z" fill="#009af9" fill-rule="evenodd" fill-opacity="1"/>
<polyline clip-path="url(#clip382)" style="stroke:#000000; stroke-linecap:round; stroke-linejoin:round; stroke-width:4; stroke-opacity:1; fill:none" points="1447.84,1341.81 1447.84,1384.24 1462.78,1384.24 1462.78,1341.81 1447.84,1341.81 "/>
<path clip-path="url(#clip382)" d="M1466.69 1342.3 L1466.69 1384.24 L1481.62 1384.24 L1481.62 1342.3 L1466.69 1342.3 L1466.69 1342.3  Z" fill="#009af9" fill-rule="evenodd" fill-opacity="1"/>
<polyline clip-path="url(#clip382)" style="stroke:#000000; stroke-linecap:round; stroke-linejoin:round; stroke-width:4; stroke-opacity:1; fill:none" points="1466.69,1342.3 1466.69,1384.24 1481.62,1384.24 1481.62,1342.3 1466.69,1342.3 "/>
<path clip-path="url(#clip382)" d="M1485.53 1342.78 L1485.53 1384.24 L1500.46 1384.24 L1500.46 1342.78 L1485.53 1342.78 L1485.53 1342.78  Z" fill="#009af9" fill-rule="evenodd" fill-opacity="1"/>
<polyline clip-path="url(#clip382)" style="stroke:#000000; stroke-linecap:round; stroke-linejoin:round; stroke-width:4; stroke-opacity:1; fill:none" points="1485.53,1342.78 1485.53,1384.24 1500.46,1384.24 1500.46,1342.78 1485.53,1342.78 "/>
<path clip-path="url(#clip382)" d="M1504.37 1343.25 L1504.37 1384.24 L1519.3 1384.24 L1519.3 1343.25 L1504.37 1343.25 L1504.37 1343.25  Z" fill="#009af9" fill-rule="evenodd" fill-opacity="1"/>
<polyline clip-path="url(#clip382)" style="stroke:#000000; stroke-linecap:round; stroke-linejoin:round; stroke-width:4; stroke-opacity:1; fill:none" points="1504.37,1343.25 1504.37,1384.24 1519.3,1384.24 1519.3,1343.25 1504.37,1343.25 "/>
<path clip-path="url(#clip382)" d="M1523.21 1343.71 L1523.21 1384.24 L1538.15 1384.24 L1538.15 1343.71 L1523.21 1343.71 L1523.21 1343.71  Z" fill="#009af9" fill-rule="evenodd" fill-opacity="1"/>
<polyline clip-path="url(#clip382)" style="stroke:#000000; stroke-linecap:round; stroke-linejoin:round; stroke-width:4; stroke-opacity:1; fill:none" points="1523.21,1343.71 1523.21,1384.24 1538.15,1384.24 1538.15,1343.71 1523.21,1343.71 "/>
<path clip-path="url(#clip382)" d="M1542.06 1344.15 L1542.06 1384.24 L1556.99 1384.24 L1556.99 1344.15 L1542.06 1344.15 L1542.06 1344.15  Z" fill="#009af9" fill-rule="evenodd" fill-opacity="1"/>
<polyline clip-path="url(#clip382)" style="stroke:#000000; stroke-linecap:round; stroke-linejoin:round; stroke-width:4; stroke-opacity:1; fill:none" points="1542.06,1344.15 1542.06,1384.24 1556.99,1384.24 1556.99,1344.15 1542.06,1344.15 "/>
<path clip-path="url(#clip382)" d="M1560.9 1344.58 L1560.9 1384.24 L1575.83 1384.24 L1575.83 1344.58 L1560.9 1344.58 L1560.9 1344.58  Z" fill="#009af9" fill-rule="evenodd" fill-opacity="1"/>
<polyline clip-path="url(#clip382)" style="stroke:#000000; stroke-linecap:round; stroke-linejoin:round; stroke-width:4; stroke-opacity:1; fill:none" points="1560.9,1344.58 1560.9,1384.24 1575.83,1384.24 1575.83,1344.58 1560.9,1344.58 "/>
<path clip-path="url(#clip382)" d="M1579.74 1344.99 L1579.74 1384.24 L1594.68 1384.24 L1594.68 1344.99 L1579.74 1344.99 L1579.74 1344.99  Z" fill="#009af9" fill-rule="evenodd" fill-opacity="1"/>
<polyline clip-path="url(#clip382)" style="stroke:#000000; stroke-linecap:round; stroke-linejoin:round; stroke-width:4; stroke-opacity:1; fill:none" points="1579.74,1344.99 1579.74,1384.24 1594.68,1384.24 1594.68,1344.99 1579.74,1344.99 "/>
<path clip-path="url(#clip382)" d="M1598.59 1345.4 L1598.59 1384.24 L1613.52 1384.24 L1613.52 1345.4 L1598.59 1345.4 L1598.59 1345.4  Z" fill="#009af9" fill-rule="evenodd" fill-opacity="1"/>
<polyline clip-path="url(#clip382)" style="stroke:#000000; stroke-linecap:round; stroke-linejoin:round; stroke-width:4; stroke-opacity:1; fill:none" points="1598.59,1345.4 1598.59,1384.24 1613.52,1384.24 1613.52,1345.4 1598.59,1345.4 "/>
<path clip-path="url(#clip382)" d="M1617.43 1345.79 L1617.43 1384.24 L1632.36 1384.24 L1632.36 1345.79 L1617.43 1345.79 L1617.43 1345.79  Z" fill="#009af9" fill-rule="evenodd" fill-opacity="1"/>
<polyline clip-path="url(#clip382)" style="stroke:#000000; stroke-linecap:round; stroke-linejoin:round; stroke-width:4; stroke-opacity:1; fill:none" points="1617.43,1345.79 1617.43,1384.24 1632.36,1384.24 1632.36,1345.79 1617.43,1345.79 "/>
<path clip-path="url(#clip382)" d="M1636.27 1346.18 L1636.27 1384.24 L1651.21 1384.24 L1651.21 1346.18 L1636.27 1346.18 L1636.27 1346.18  Z" fill="#009af9" fill-rule="evenodd" fill-opacity="1"/>
<polyline clip-path="url(#clip382)" style="stroke:#000000; stroke-linecap:round; stroke-linejoin:round; stroke-width:4; stroke-opacity:1; fill:none" points="1636.27,1346.18 1636.27,1384.24 1651.21,1384.24 1651.21,1346.18 1636.27,1346.18 "/>
<path clip-path="url(#clip382)" d="M1655.12 1346.55 L1655.12 1384.24 L1670.05 1384.24 L1670.05 1346.55 L1655.12 1346.55 L1655.12 1346.55  Z" fill="#009af9" fill-rule="evenodd" fill-opacity="1"/>
<polyline clip-path="url(#clip382)" style="stroke:#000000; stroke-linecap:round; stroke-linejoin:round; stroke-width:4; stroke-opacity:1; fill:none" points="1655.12,1346.55 1655.12,1384.24 1670.05,1384.24 1670.05,1346.55 1655.12,1346.55 "/>
<path clip-path="url(#clip382)" d="M1673.96 1346.91 L1673.96 1384.24 L1688.89 1384.24 L1688.89 1346.91 L1673.96 1346.91 L1673.96 1346.91  Z" fill="#009af9" fill-rule="evenodd" fill-opacity="1"/>
<polyline clip-path="url(#clip382)" style="stroke:#000000; stroke-linecap:round; stroke-linejoin:round; stroke-width:4; stroke-opacity:1; fill:none" points="1673.96,1346.91 1673.96,1384.24 1688.89,1384.24 1688.89,1346.91 1673.96,1346.91 "/>
<path clip-path="url(#clip382)" d="M1692.81 1347.26 L1692.81 1384.24 L1707.74 1384.24 L1707.74 1347.26 L1692.81 1347.26 L1692.81 1347.26  Z" fill="#009af9" fill-rule="evenodd" fill-opacity="1"/>
<polyline clip-path="url(#clip382)" style="stroke:#000000; stroke-linecap:round; stroke-linejoin:round; stroke-width:4; stroke-opacity:1; fill:none" points="1692.81,1347.26 1692.81,1384.24 1707.74,1384.24 1707.74,1347.26 1692.81,1347.26 "/>
<path clip-path="url(#clip382)" d="M1711.65 1347.61 L1711.65 1384.24 L1726.58 1384.24 L1726.58 1347.61 L1711.65 1347.61 L1711.65 1347.61  Z" fill="#009af9" fill-rule="evenodd" fill-opacity="1"/>
<polyline clip-path="url(#clip382)" style="stroke:#000000; stroke-linecap:round; stroke-linejoin:round; stroke-width:4; stroke-opacity:1; fill:none" points="1711.65,1347.61 1711.65,1384.24 1726.58,1384.24 1726.58,1347.61 1711.65,1347.61 "/>
<path clip-path="url(#clip382)" d="M1730.49 1347.94 L1730.49 1384.24 L1745.42 1384.24 L1745.42 1347.94 L1730.49 1347.94 L1730.49 1347.94  Z" fill="#009af9" fill-rule="evenodd" fill-opacity="1"/>
<polyline clip-path="url(#clip382)" style="stroke:#000000; stroke-linecap:round; stroke-linejoin:round; stroke-width:4; stroke-opacity:1; fill:none" points="1730.49,1347.94 1730.49,1384.24 1745.42,1384.24 1745.42,1347.94 1730.49,1347.94 "/>
<path clip-path="url(#clip382)" d="M1749.34 1348.26 L1749.34 1384.24 L1764.27 1384.24 L1764.27 1348.26 L1749.34 1348.26 L1749.34 1348.26  Z" fill="#009af9" fill-rule="evenodd" fill-opacity="1"/>
<polyline clip-path="url(#clip382)" style="stroke:#000000; stroke-linecap:round; stroke-linejoin:round; stroke-width:4; stroke-opacity:1; fill:none" points="1749.34,1348.26 1749.34,1384.24 1764.27,1384.24 1764.27,1348.26 1749.34,1348.26 "/>
<path clip-path="url(#clip382)" d="M1768.18 1348.58 L1768.18 1384.24 L1783.11 1384.24 L1783.11 1348.58 L1768.18 1348.58 L1768.18 1348.58  Z" fill="#009af9" fill-rule="evenodd" fill-opacity="1"/>
<polyline clip-path="url(#clip382)" style="stroke:#000000; stroke-linecap:round; stroke-linejoin:round; stroke-width:4; stroke-opacity:1; fill:none" points="1768.18,1348.58 1768.18,1384.24 1783.11,1384.24 1783.11,1348.58 1768.18,1348.58 "/>
<path clip-path="url(#clip382)" d="M1787.03 1348.88 L1787.03 1384.24 L1801.96 1384.24 L1801.96 1348.88 L1787.03 1348.88 L1787.03 1348.88  Z" fill="#009af9" fill-rule="evenodd" fill-opacity="1"/>
<polyline clip-path="url(#clip382)" style="stroke:#000000; stroke-linecap:round; stroke-linejoin:round; stroke-width:4; stroke-opacity:1; fill:none" points="1787.03,1348.88 1787.03,1384.24 1801.96,1384.24 1801.96,1348.88 1787.03,1348.88 "/>
<path clip-path="url(#clip382)" d="M1805.87 1349.18 L1805.87 1384.24 L1820.8 1384.24 L1820.8 1349.18 L1805.87 1349.18 L1805.87 1349.18  Z" fill="#009af9" fill-rule="evenodd" fill-opacity="1"/>
<polyline clip-path="url(#clip382)" style="stroke:#000000; stroke-linecap:round; stroke-linejoin:round; stroke-width:4; stroke-opacity:1; fill:none" points="1805.87,1349.18 1805.87,1384.24 1820.8,1384.24 1820.8,1349.18 1805.87,1349.18 "/>
<path clip-path="url(#clip382)" d="M1824.71 1349.47 L1824.71 1384.24 L1839.65 1384.24 L1839.65 1349.47 L1824.71 1349.47 L1824.71 1349.47  Z" fill="#009af9" fill-rule="evenodd" fill-opacity="1"/>
<polyline clip-path="url(#clip382)" style="stroke:#000000; stroke-linecap:round; stroke-linejoin:round; stroke-width:4; stroke-opacity:1; fill:none" points="1824.71,1349.47 1824.71,1384.24 1839.65,1384.24 1839.65,1349.47 1824.71,1349.47 "/>
<path clip-path="url(#clip382)" d="M1843.56 1349.75 L1843.56 1384.24 L1858.49 1384.24 L1858.49 1349.75 L1843.56 1349.75 L1843.56 1349.75  Z" fill="#009af9" fill-rule="evenodd" fill-opacity="1"/>
<polyline clip-path="url(#clip382)" style="stroke:#000000; stroke-linecap:round; stroke-linejoin:round; stroke-width:4; stroke-opacity:1; fill:none" points="1843.56,1349.75 1843.56,1384.24 1858.49,1384.24 1858.49,1349.75 1843.56,1349.75 "/>
<path clip-path="url(#clip382)" d="M1862.4 1350.02 L1862.4 1384.24 L1877.34 1384.24 L1877.34 1350.02 L1862.4 1350.02 L1862.4 1350.02  Z" fill="#009af9" fill-rule="evenodd" fill-opacity="1"/>
<polyline clip-path="url(#clip382)" style="stroke:#000000; stroke-linecap:round; stroke-linejoin:round; stroke-width:4; stroke-opacity:1; fill:none" points="1862.4,1350.02 1862.4,1384.24 1877.34,1384.24 1877.34,1350.02 1862.4,1350.02 "/>
<path clip-path="url(#clip382)" d="M1881.25 1350.29 L1881.25 1384.24 L1896.18 1384.24 L1896.18 1350.29 L1881.25 1350.29 L1881.25 1350.29  Z" fill="#009af9" fill-rule="evenodd" fill-opacity="1"/>
<polyline clip-path="url(#clip382)" style="stroke:#000000; stroke-linecap:round; stroke-linejoin:round; stroke-width:4; stroke-opacity:1; fill:none" points="1881.25,1350.29 1881.25,1384.24 1896.18,1384.24 1896.18,1350.29 1881.25,1350.29 "/>
<path clip-path="url(#clip382)" d="M1900.09 1350.54 L1900.09 1384.24 L1915.03 1384.24 L1915.03 1350.54 L1900.09 1350.54 L1900.09 1350.54  Z" fill="#009af9" fill-rule="evenodd" fill-opacity="1"/>
<polyline clip-path="url(#clip382)" style="stroke:#000000; stroke-linecap:round; stroke-linejoin:round; stroke-width:4; stroke-opacity:1; fill:none" points="1900.09,1350.54 1900.09,1384.24 1915.03,1384.24 1915.03,1350.54 1900.09,1350.54 "/>
<path clip-path="url(#clip382)" d="M1918.94 1350.79 L1918.94 1384.24 L1933.87 1384.24 L1933.87 1350.79 L1918.94 1350.79 L1918.94 1350.79  Z" fill="#009af9" fill-rule="evenodd" fill-opacity="1"/>
<polyline clip-path="url(#clip382)" style="stroke:#000000; stroke-linecap:round; stroke-linejoin:round; stroke-width:4; stroke-opacity:1; fill:none" points="1918.94,1350.79 1918.94,1384.24 1933.87,1384.24 1933.87,1350.79 1918.94,1350.79 "/>
<path clip-path="url(#clip382)" d="M1937.78 1351.03 L1937.78 1384.24 L1952.72 1384.24 L1952.72 1351.03 L1937.78 1351.03 L1937.78 1351.03  Z" fill="#009af9" fill-rule="evenodd" fill-opacity="1"/>
<polyline clip-path="url(#clip382)" style="stroke:#000000; stroke-linecap:round; stroke-linejoin:round; stroke-width:4; stroke-opacity:1; fill:none" points="1937.78,1351.03 1937.78,1384.24 1952.72,1384.24 1952.72,1351.03 1937.78,1351.03 "/>
<path clip-path="url(#clip382)" d="M1956.63 1351.26 L1956.63 1384.24 L1971.56 1384.24 L1971.56 1351.26 L1956.63 1351.26 L1956.63 1351.26  Z" fill="#009af9" fill-rule="evenodd" fill-opacity="1"/>
<polyline clip-path="url(#clip382)" style="stroke:#000000; stroke-linecap:round; stroke-linejoin:round; stroke-width:4; stroke-opacity:1; fill:none" points="1956.63,1351.26 1956.63,1384.24 1971.56,1384.24 1971.56,1351.26 1956.63,1351.26 "/>
<path clip-path="url(#clip382)" d="M1975.48 1351.48 L1975.48 1384.24 L1990.41 1384.24 L1990.41 1351.48 L1975.48 1351.48 L1975.48 1351.48  Z" fill="#009af9" fill-rule="evenodd" fill-opacity="1"/>
<polyline clip-path="url(#clip382)" style="stroke:#000000; stroke-linecap:round; stroke-linejoin:round; stroke-width:4; stroke-opacity:1; fill:none" points="1975.48,1351.48 1975.48,1384.24 1990.41,1384.24 1990.41,1351.48 1975.48,1351.48 "/>
<path clip-path="url(#clip382)" d="M1994.32 1351.69 L1994.32 1384.24 L2009.25 1384.24 L2009.25 1351.69 L1994.32 1351.69 L1994.32 1351.69  Z" fill="#009af9" fill-rule="evenodd" fill-opacity="1"/>
<polyline clip-path="url(#clip382)" style="stroke:#000000; stroke-linecap:round; stroke-linejoin:round; stroke-width:4; stroke-opacity:1; fill:none" points="1994.32,1351.69 1994.32,1384.24 2009.25,1384.24 2009.25,1351.69 1994.32,1351.69 "/>
<path clip-path="url(#clip382)" d="M2013.17 1351.89 L2013.17 1384.24 L2028.1 1384.24 L2028.1 1351.89 L2013.17 1351.89 L2013.17 1351.89  Z" fill="#009af9" fill-rule="evenodd" fill-opacity="1"/>
<polyline clip-path="url(#clip382)" style="stroke:#000000; stroke-linecap:round; stroke-linejoin:round; stroke-width:4; stroke-opacity:1; fill:none" points="2013.17,1351.89 2013.17,1384.24 2028.1,1384.24 2028.1,1351.89 2013.17,1351.89 "/>
<path clip-path="url(#clip382)" d="M2032.01 1352.08 L2032.01 1384.24 L2046.94 1384.24 L2046.94 1352.08 L2032.01 1352.08 L2032.01 1352.08  Z" fill="#009af9" fill-rule="evenodd" fill-opacity="1"/>
<polyline clip-path="url(#clip382)" style="stroke:#000000; stroke-linecap:round; stroke-linejoin:round; stroke-width:4; stroke-opacity:1; fill:none" points="2032.01,1352.08 2032.01,1384.24 2046.94,1384.24 2046.94,1352.08 2032.01,1352.08 "/>
<path clip-path="url(#clip382)" d="M2050.86 1352.25 L2050.86 1384.24 L2065.79 1384.24 L2065.79 1352.25 L2050.86 1352.25 L2050.86 1352.25  Z" fill="#009af9" fill-rule="evenodd" fill-opacity="1"/>
<polyline clip-path="url(#clip382)" style="stroke:#000000; stroke-linecap:round; stroke-linejoin:round; stroke-width:4; stroke-opacity:1; fill:none" points="2050.86,1352.25 2050.86,1384.24 2065.79,1384.24 2065.79,1352.25 2050.86,1352.25 "/>
<path clip-path="url(#clip382)" d="M2069.7 1352.41 L2069.7 1384.24 L2084.64 1384.24 L2084.64 1352.41 L2069.7 1352.41 L2069.7 1352.41  Z" fill="#009af9" fill-rule="evenodd" fill-opacity="1"/>
<polyline clip-path="url(#clip382)" style="stroke:#000000; stroke-linecap:round; stroke-linejoin:round; stroke-width:4; stroke-opacity:1; fill:none" points="2069.7,1352.41 2069.7,1384.24 2084.64,1384.24 2084.64,1352.41 2069.7,1352.41 "/>
<path clip-path="url(#clip382)" d="M2088.55 1352.56 L2088.55 1384.24 L2103.48 1384.24 L2103.48 1352.56 L2088.55 1352.56 L2088.55 1352.56  Z" fill="#009af9" fill-rule="evenodd" fill-opacity="1"/>
<polyline clip-path="url(#clip382)" style="stroke:#000000; stroke-linecap:round; stroke-linejoin:round; stroke-width:4; stroke-opacity:1; fill:none" points="2088.55,1352.56 2088.55,1384.24 2103.48,1384.24 2103.48,1352.56 2088.55,1352.56 "/>
<path clip-path="url(#clip382)" d="M2107.4 1352.68 L2107.4 1384.24 L2122.33 1384.24 L2122.33 1352.68 L2107.4 1352.68 L2107.4 1352.68  Z" fill="#009af9" fill-rule="evenodd" fill-opacity="1"/>
<polyline clip-path="url(#clip382)" style="stroke:#000000; stroke-linecap:round; stroke-linejoin:round; stroke-width:4; stroke-opacity:1; fill:none" points="2107.4,1352.68 2107.4,1384.24 2122.33,1384.24 2122.33,1352.68 2107.4,1352.68 "/>
<path clip-path="url(#clip382)" d="M2126.25 1352.78 L2126.25 1384.24 L2141.18 1384.24 L2141.18 1352.78 L2126.25 1352.78 L2126.25 1352.78  Z" fill="#009af9" fill-rule="evenodd" fill-opacity="1"/>
<polyline clip-path="url(#clip382)" style="stroke:#000000; stroke-linecap:round; stroke-linejoin:round; stroke-width:4; stroke-opacity:1; fill:none" points="2126.25,1352.78 2126.25,1384.24 2141.18,1384.24 2141.18,1352.78 2126.25,1352.78 "/>
<path clip-path="url(#clip382)" d="M2145.09 1352.85 L2145.09 1384.24 L2160.03 1384.24 L2160.03 1352.85 L2145.09 1352.85 L2145.09 1352.85  Z" fill="#009af9" fill-rule="evenodd" fill-opacity="1"/>
<polyline clip-path="url(#clip382)" style="stroke:#000000; stroke-linecap:round; stroke-linejoin:round; stroke-width:4; stroke-opacity:1; fill:none" points="2145.09,1352.85 2145.09,1384.24 2160.03,1384.24 2160.03,1352.85 2145.09,1352.85 "/>
<path clip-path="url(#clip382)" d="M2163.94 1352.86 L2163.94 1384.24 L2178.87 1384.24 L2178.87 1352.86 L2163.94 1352.86 L2163.94 1352.86  Z" fill="#009af9" fill-rule="evenodd" fill-opacity="1"/>
<polyline clip-path="url(#clip382)" style="stroke:#000000; stroke-linecap:round; stroke-linejoin:round; stroke-width:4; stroke-opacity:1; fill:none" points="2163.94,1352.86 2163.94,1384.24 2178.87,1384.24 2178.87,1352.86 2163.94,1352.86 "/>
<path clip-path="url(#clip382)" d="M2182.79 1352.79 L2182.79 1384.24 L2197.73 1384.24 L2197.73 1352.79 L2182.79 1352.79 L2182.79 1352.79  Z" fill="#009af9" fill-rule="evenodd" fill-opacity="1"/>
<polyline clip-path="url(#clip382)" style="stroke:#000000; stroke-linecap:round; stroke-linejoin:round; stroke-width:4; stroke-opacity:1; fill:none" points="2182.79,1352.79 2182.79,1384.24 2197.73,1384.24 2197.73,1352.79 2182.79,1352.79 "/>
<path clip-path="url(#clip382)" d="M2201.65 1352.54 L2201.65 1384.24 L2216.58 1384.24 L2216.58 1352.54 L2201.65 1352.54 L2201.65 1352.54  Z" fill="#009af9" fill-rule="evenodd" fill-opacity="1"/>
<polyline clip-path="url(#clip382)" style="stroke:#000000; stroke-linecap:round; stroke-linejoin:round; stroke-width:4; stroke-opacity:1; fill:none" points="2201.65,1352.54 2201.65,1384.24 2216.58,1384.24 2216.58,1352.54 2201.65,1352.54 "/>
<path clip-path="url(#clip382)" d="M2220.51 1351.73 L2220.51 1384.24 L2235.44 1384.24 L2235.44 1351.73 L2220.51 1351.73 L2220.51 1351.73  Z" fill="#009af9" fill-rule="evenodd" fill-opacity="1"/>
<polyline clip-path="url(#clip382)" style="stroke:#000000; stroke-linecap:round; stroke-linejoin:round; stroke-width:4; stroke-opacity:1; fill:none" points="2220.51,1351.73 2220.51,1384.24 2235.44,1384.24 2235.44,1351.73 2220.51,1351.73 "/>
<circle clip-path="url(#clip382)" style="fill:#009af9; stroke:none; fill-opacity:0" cx="344.645" cy="86.1857" r="2"/>
<circle clip-path="url(#clip382)" style="fill:#009af9; stroke:none; fill-opacity:0" cx="363.903" cy="917.827" r="2"/>
<circle clip-path="url(#clip382)" style="fill:#009af9; stroke:none; fill-opacity:0" cx="382.785" cy="1025.19" r="2"/>
<circle clip-path="url(#clip382)" style="fill:#009af9; stroke:none; fill-opacity:0" cx="401.449" cy="1087.97" r="2"/>
<circle clip-path="url(#clip382)" style="fill:#009af9; stroke:none; fill-opacity:0" cx="420.127" cy="1129.86" r="2"/>
<circle clip-path="url(#clip382)" style="fill:#009af9; stroke:none; fill-opacity:0" cx="438.832" cy="1160.08" r="2"/>
<circle clip-path="url(#clip382)" style="fill:#009af9; stroke:none; fill-opacity:0" cx="457.56" cy="1183.05" r="2"/>
<circle clip-path="url(#clip382)" style="fill:#009af9; stroke:none; fill-opacity:0" cx="476.305" cy="1201.19" r="2"/>
<circle clip-path="url(#clip382)" style="fill:#009af9; stroke:none; fill-opacity:0" cx="495.066" cy="1215.91" r="2"/>
<circle clip-path="url(#clip382)" style="fill:#009af9; stroke:none; fill-opacity:0" cx="513.837" cy="1228.13" r="2"/>
<circle clip-path="url(#clip382)" style="fill:#009af9; stroke:none; fill-opacity:0" cx="532.618" cy="1238.47" r="2"/>
<circle clip-path="url(#clip382)" style="fill:#009af9; stroke:none; fill-opacity:0" cx="551.407" cy="1247.33" r="2"/>
<circle clip-path="url(#clip382)" style="fill:#009af9; stroke:none; fill-opacity:0" cx="570.202" cy="1255.02" r="2"/>
<circle clip-path="url(#clip382)" style="fill:#009af9; stroke:none; fill-opacity:0" cx="589.002" cy="1261.78" r="2"/>
<circle clip-path="url(#clip382)" style="fill:#009af9; stroke:none; fill-opacity:0" cx="607.806" cy="1267.76" r="2"/>
<circle clip-path="url(#clip382)" style="fill:#009af9; stroke:none; fill-opacity:0" cx="626.614" cy="1273.1" r="2"/>
<circle clip-path="url(#clip382)" style="fill:#009af9; stroke:none; fill-opacity:0" cx="645.426" cy="1277.9" r="2"/>
<circle clip-path="url(#clip382)" style="fill:#009af9; stroke:none; fill-opacity:0" cx="664.24" cy="1282.24" r="2"/>
<circle clip-path="url(#clip382)" style="fill:#009af9; stroke:none; fill-opacity:0" cx="683.057" cy="1286.18" r="2"/>
<circle clip-path="url(#clip382)" style="fill:#009af9; stroke:none; fill-opacity:0" cx="701.877" cy="1289.78" r="2"/>
<circle clip-path="url(#clip382)" style="fill:#009af9; stroke:none; fill-opacity:0" cx="720.698" cy="1293.09" r="2"/>
<circle clip-path="url(#clip382)" style="fill:#009af9; stroke:none; fill-opacity:0" cx="739.521" cy="1296.14" r="2"/>
<circle clip-path="url(#clip382)" style="fill:#009af9; stroke:none; fill-opacity:0" cx="758.345" cy="1298.96" r="2"/>
<circle clip-path="url(#clip382)" style="fill:#009af9; stroke:none; fill-opacity:0" cx="777.171" cy="1301.57" r="2"/>
<circle clip-path="url(#clip382)" style="fill:#009af9; stroke:none; fill-opacity:0" cx="795.998" cy="1304" r="2"/>
<circle clip-path="url(#clip382)" style="fill:#009af9; stroke:none; fill-opacity:0" cx="814.826" cy="1306.27" r="2"/>
<circle clip-path="url(#clip382)" style="fill:#009af9; stroke:none; fill-opacity:0" cx="833.655" cy="1308.4" r="2"/>
<circle clip-path="url(#clip382)" style="fill:#009af9; stroke:none; fill-opacity:0" cx="852.486" cy="1310.39" r="2"/>
<circle clip-path="url(#clip382)" style="fill:#009af9; stroke:none; fill-opacity:0" cx="871.317" cy="1312.26" r="2"/>
<circle clip-path="url(#clip382)" style="fill:#009af9; stroke:none; fill-opacity:0" cx="890.149" cy="1314.03" r="2"/>
<circle clip-path="url(#clip382)" style="fill:#009af9; stroke:none; fill-opacity:0" cx="908.982" cy="1315.69" r="2"/>
<circle clip-path="url(#clip382)" style="fill:#009af9; stroke:none; fill-opacity:0" cx="927.815" cy="1317.26" r="2"/>
<circle clip-path="url(#clip382)" style="fill:#009af9; stroke:none; fill-opacity:0" cx="946.649" cy="1318.76" r="2"/>
<circle clip-path="url(#clip382)" style="fill:#009af9; stroke:none; fill-opacity:0" cx="965.484" cy="1320.17" r="2"/>
<circle clip-path="url(#clip382)" style="fill:#009af9; stroke:none; fill-opacity:0" cx="984.319" cy="1321.51" r="2"/>
<circle clip-path="url(#clip382)" style="fill:#009af9; stroke:none; fill-opacity:0" cx="1003.15" cy="1322.79" r="2"/>
<circle clip-path="url(#clip382)" style="fill:#009af9; stroke:none; fill-opacity:0" cx="1021.99" cy="1324.01" r="2"/>
<circle clip-path="url(#clip382)" style="fill:#009af9; stroke:none; fill-opacity:0" cx="1040.83" cy="1325.17" r="2"/>
<circle clip-path="url(#clip382)" style="fill:#009af9; stroke:none; fill-opacity:0" cx="1059.66" cy="1326.28" r="2"/>
<circle clip-path="url(#clip382)" style="fill:#009af9; stroke:none; fill-opacity:0" cx="1078.5" cy="1327.34" r="2"/>
<circle clip-path="url(#clip382)" style="fill:#009af9; stroke:none; fill-opacity:0" cx="1097.34" cy="1328.36" r="2"/>
<circle clip-path="url(#clip382)" style="fill:#009af9; stroke:none; fill-opacity:0" cx="1116.18" cy="1329.33" r="2"/>
<circle clip-path="url(#clip382)" style="fill:#009af9; stroke:none; fill-opacity:0" cx="1135.02" cy="1330.26" r="2"/>
<circle clip-path="url(#clip382)" style="fill:#009af9; stroke:none; fill-opacity:0" cx="1153.86" cy="1331.16" r="2"/>
<circle clip-path="url(#clip382)" style="fill:#009af9; stroke:none; fill-opacity:0" cx="1172.69" cy="1332.02" r="2"/>
<circle clip-path="url(#clip382)" style="fill:#009af9; stroke:none; fill-opacity:0" cx="1191.53" cy="1332.85" r="2"/>
<circle clip-path="url(#clip382)" style="fill:#009af9; stroke:none; fill-opacity:0" cx="1210.37" cy="1333.64" r="2"/>
<circle clip-path="url(#clip382)" style="fill:#009af9; stroke:none; fill-opacity:0" cx="1229.21" cy="1334.41" r="2"/>
<circle clip-path="url(#clip382)" style="fill:#009af9; stroke:none; fill-opacity:0" cx="1248.05" cy="1335.15" r="2"/>
<circle clip-path="url(#clip382)" style="fill:#009af9; stroke:none; fill-opacity:0" cx="1266.89" cy="1335.86" r="2"/>
<circle clip-path="url(#clip382)" style="fill:#009af9; stroke:none; fill-opacity:0" cx="1285.74" cy="1336.55" r="2"/>
<circle clip-path="url(#clip382)" style="fill:#009af9; stroke:none; fill-opacity:0" cx="1304.58" cy="1337.21" r="2"/>
<circle clip-path="url(#clip382)" style="fill:#009af9; stroke:none; fill-opacity:0" cx="1323.42" cy="1337.86" r="2"/>
<circle clip-path="url(#clip382)" style="fill:#009af9; stroke:none; fill-opacity:0" cx="1342.26" cy="1338.48" r="2"/>
<circle clip-path="url(#clip382)" style="fill:#009af9; stroke:none; fill-opacity:0" cx="1361.1" cy="1339.08" r="2"/>
<circle clip-path="url(#clip382)" style="fill:#009af9; stroke:none; fill-opacity:0" cx="1379.94" cy="1339.66" r="2"/>
<circle clip-path="url(#clip382)" style="fill:#009af9; stroke:none; fill-opacity:0" cx="1398.78" cy="1340.22" r="2"/>
<circle clip-path="url(#clip382)" style="fill:#009af9; stroke:none; fill-opacity:0" cx="1417.63" cy="1340.76" r="2"/>
<circle clip-path="url(#clip382)" style="fill:#009af9; stroke:none; fill-opacity:0" cx="1436.47" cy="1341.29" r="2"/>
<circle clip-path="url(#clip382)" style="fill:#009af9; stroke:none; fill-opacity:0" cx="1455.31" cy="1341.81" r="2"/>
<circle clip-path="url(#clip382)" style="fill:#009af9; stroke:none; fill-opacity:0" cx="1474.15" cy="1342.3" r="2"/>
<circle clip-path="url(#clip382)" style="fill:#009af9; stroke:none; fill-opacity:0" cx="1492.99" cy="1342.78" r="2"/>
<circle clip-path="url(#clip382)" style="fill:#009af9; stroke:none; fill-opacity:0" cx="1511.84" cy="1343.25" r="2"/>
<circle clip-path="url(#clip382)" style="fill:#009af9; stroke:none; fill-opacity:0" cx="1530.68" cy="1343.71" r="2"/>
<circle clip-path="url(#clip382)" style="fill:#009af9; stroke:none; fill-opacity:0" cx="1549.52" cy="1344.15" r="2"/>
<circle clip-path="url(#clip382)" style="fill:#009af9; stroke:none; fill-opacity:0" cx="1568.37" cy="1344.58" r="2"/>
<circle clip-path="url(#clip382)" style="fill:#009af9; stroke:none; fill-opacity:0" cx="1587.21" cy="1344.99" r="2"/>
<circle clip-path="url(#clip382)" style="fill:#009af9; stroke:none; fill-opacity:0" cx="1606.05" cy="1345.4" r="2"/>
<circle clip-path="url(#clip382)" style="fill:#009af9; stroke:none; fill-opacity:0" cx="1624.9" cy="1345.79" r="2"/>
<circle clip-path="url(#clip382)" style="fill:#009af9; stroke:none; fill-opacity:0" cx="1643.74" cy="1346.18" r="2"/>
<circle clip-path="url(#clip382)" style="fill:#009af9; stroke:none; fill-opacity:0" cx="1662.58" cy="1346.55" r="2"/>
<circle clip-path="url(#clip382)" style="fill:#009af9; stroke:none; fill-opacity:0" cx="1681.43" cy="1346.91" r="2"/>
<circle clip-path="url(#clip382)" style="fill:#009af9; stroke:none; fill-opacity:0" cx="1700.27" cy="1347.26" r="2"/>
<circle clip-path="url(#clip382)" style="fill:#009af9; stroke:none; fill-opacity:0" cx="1719.11" cy="1347.61" r="2"/>
<circle clip-path="url(#clip382)" style="fill:#009af9; stroke:none; fill-opacity:0" cx="1737.96" cy="1347.94" r="2"/>
<circle clip-path="url(#clip382)" style="fill:#009af9; stroke:none; fill-opacity:0" cx="1756.8" cy="1348.26" r="2"/>
<circle clip-path="url(#clip382)" style="fill:#009af9; stroke:none; fill-opacity:0" cx="1775.65" cy="1348.58" r="2"/>
<circle clip-path="url(#clip382)" style="fill:#009af9; stroke:none; fill-opacity:0" cx="1794.49" cy="1348.88" r="2"/>
<circle clip-path="url(#clip382)" style="fill:#009af9; stroke:none; fill-opacity:0" cx="1813.34" cy="1349.18" r="2"/>
<circle clip-path="url(#clip382)" style="fill:#009af9; stroke:none; fill-opacity:0" cx="1832.18" cy="1349.47" r="2"/>
<circle clip-path="url(#clip382)" style="fill:#009af9; stroke:none; fill-opacity:0" cx="1851.03" cy="1349.75" r="2"/>
<circle clip-path="url(#clip382)" style="fill:#009af9; stroke:none; fill-opacity:0" cx="1869.87" cy="1350.02" r="2"/>
<circle clip-path="url(#clip382)" style="fill:#009af9; stroke:none; fill-opacity:0" cx="1888.72" cy="1350.29" r="2"/>
<circle clip-path="url(#clip382)" style="fill:#009af9; stroke:none; fill-opacity:0" cx="1907.56" cy="1350.54" r="2"/>
<circle clip-path="url(#clip382)" style="fill:#009af9; stroke:none; fill-opacity:0" cx="1926.41" cy="1350.79" r="2"/>
<circle clip-path="url(#clip382)" style="fill:#009af9; stroke:none; fill-opacity:0" cx="1945.25" cy="1351.03" r="2"/>
<circle clip-path="url(#clip382)" style="fill:#009af9; stroke:none; fill-opacity:0" cx="1964.1" cy="1351.26" r="2"/>
<circle clip-path="url(#clip382)" style="fill:#009af9; stroke:none; fill-opacity:0" cx="1982.94" cy="1351.48" r="2"/>
<circle clip-path="url(#clip382)" style="fill:#009af9; stroke:none; fill-opacity:0" cx="2001.79" cy="1351.69" r="2"/>
<circle clip-path="url(#clip382)" style="fill:#009af9; stroke:none; fill-opacity:0" cx="2020.63" cy="1351.89" r="2"/>
<circle clip-path="url(#clip382)" style="fill:#009af9; stroke:none; fill-opacity:0" cx="2039.48" cy="1352.08" r="2"/>
<circle clip-path="url(#clip382)" style="fill:#009af9; stroke:none; fill-opacity:0" cx="2058.32" cy="1352.25" r="2"/>
<circle clip-path="url(#clip382)" style="fill:#009af9; stroke:none; fill-opacity:0" cx="2077.17" cy="1352.41" r="2"/>
<circle clip-path="url(#clip382)" style="fill:#009af9; stroke:none; fill-opacity:0" cx="2096.02" cy="1352.56" r="2"/>
<circle clip-path="url(#clip382)" style="fill:#009af9; stroke:none; fill-opacity:0" cx="2114.86" cy="1352.68" r="2"/>
<circle clip-path="url(#clip382)" style="fill:#009af9; stroke:none; fill-opacity:0" cx="2133.71" cy="1352.78" r="2"/>
<circle clip-path="url(#clip382)" style="fill:#009af9; stroke:none; fill-opacity:0" cx="2152.56" cy="1352.85" r="2"/>
<circle clip-path="url(#clip382)" style="fill:#009af9; stroke:none; fill-opacity:0" cx="2171.41" cy="1352.86" r="2"/>
<circle clip-path="url(#clip382)" style="fill:#009af9; stroke:none; fill-opacity:0" cx="2190.26" cy="1352.79" r="2"/>
<circle clip-path="url(#clip382)" style="fill:#009af9; stroke:none; fill-opacity:0" cx="2209.11" cy="1352.54" r="2"/>
<circle clip-path="url(#clip382)" style="fill:#009af9; stroke:none; fill-opacity:0" cx="2227.98" cy="1351.73" r="2"/>
<path clip-path="url(#clip380)" d="M2015.94 196.789 L2281.66 196.789 L2281.66 93.1086 L2015.94 93.1086  Z" fill="#ffffff" fill-rule="evenodd" fill-opacity="1"/>
<polyline clip-path="url(#clip380)" style="stroke:#000000; stroke-linecap:round; stroke-linejoin:round; stroke-width:4; stroke-opacity:1; fill:none" points="2015.94,196.789 2281.66,196.789 2281.66,93.1086 2015.94,93.1086 2015.94,196.789 "/>
<path clip-path="url(#clip380)" d="M2039.64 165.685 L2181.83 165.685 L2181.83 124.213 L2039.64 124.213 L2039.64 165.685  Z" fill="#009af9" fill-rule="evenodd" fill-opacity="1"/>
<polyline clip-path="url(#clip380)" style="stroke:#000000; stroke-linecap:round; stroke-linejoin:round; stroke-width:4; stroke-opacity:1; fill:none" points="2039.64,165.685 2181.83,165.685 2181.83,124.213 2039.64,124.213 2039.64,165.685 "/>
<path clip-path="url(#clip380)" d="M2219.37 164.636 Q2217.57 169.266 2215.85 170.678 Q2214.14 172.09 2211.27 172.09 L2207.87 172.09 L2207.87 168.525 L2210.37 168.525 Q2212.13 168.525 2213.1 167.692 Q2214.07 166.858 2215.25 163.756 L2216.02 161.812 L2205.53 136.303 L2210.04 136.303 L2218.15 156.581 L2226.25 136.303 L2230.76 136.303 L2219.37 164.636 Z" fill="#000000" fill-rule="evenodd" fill-opacity="1" /><path clip-path="url(#clip380)" d="M2238.05 158.293 L2245.69 158.293 L2245.69 131.928 L2237.38 133.595 L2237.38 129.335 L2245.65 127.669 L2250.32 127.669 L2250.32 158.293 L2257.96 158.293 L2257.96 162.229 L2238.05 162.229 L2238.05 158.293 Z" fill="#000000" fill-rule="evenodd" fill-opacity="1" /></svg>
