<?xml version="1.0" encoding="utf-8"?>
<svg xmlns="http://www.w3.org/2000/svg" xmlns:xlink="http://www.w3.org/1999/xlink" width="600" height="400" viewBox="0 0 2400 1600">
<defs>
  <clipPath id="clip890">
    <rect x="0" y="0" width="2400" height="1600"/>
  </clipPath>
</defs>
<path clip-path="url(#clip890)" d="M0 1600 L2400 1600 L2400 0 L0 0  Z" fill="#ffffff" fill-rule="evenodd" fill-opacity="1"/>
<defs>
  <clipPath id="clip891">
    <rect x="480" y="0" width="1681" height="1600"/>
  </clipPath>
</defs>
<path clip-path="url(#clip890)" d="M249.704 1423.18 L2352.76 1423.18 L2352.76 47.2441 L249.704 47.2441  Z" fill="#ffffff" fill-rule="evenodd" fill-opacity="1"/>
<defs>
  <clipPath id="clip892">
    <rect x="249" y="47" width="2104" height="1377"/>
  </clipPath>
</defs>
<polyline clip-path="url(#clip892)" style="stroke:#000000; stroke-linecap:round; stroke-linejoin:round; stroke-width:2; stroke-opacity:0.1; fill:none" points="309.224,1423.18 309.224,47.2441 "/>
<polyline clip-path="url(#clip892)" style="stroke:#000000; stroke-linecap:round; stroke-linejoin:round; stroke-width:2; stroke-opacity:0.1; fill:none" points="805.227,1423.18 805.227,47.2441 "/>
<polyline clip-path="url(#clip892)" style="stroke:#000000; stroke-linecap:round; stroke-linejoin:round; stroke-width:2; stroke-opacity:0.1; fill:none" points="1301.23,1423.18 1301.23,47.2441 "/>
<polyline clip-path="url(#clip892)" style="stroke:#000000; stroke-linecap:round; stroke-linejoin:round; stroke-width:2; stroke-opacity:0.1; fill:none" points="1797.23,1423.18 1797.23,47.2441 "/>
<polyline clip-path="url(#clip892)" style="stroke:#000000; stroke-linecap:round; stroke-linejoin:round; stroke-width:2; stroke-opacity:0.1; fill:none" points="2293.24,1423.18 2293.24,47.2441 "/>
<polyline clip-path="url(#clip890)" style="stroke:#000000; stroke-linecap:round; stroke-linejoin:round; stroke-width:4; stroke-opacity:1; fill:none" points="249.704,1423.18 2352.76,1423.18 "/>
<polyline clip-path="url(#clip890)" style="stroke:#000000; stroke-linecap:round; stroke-linejoin:round; stroke-width:4; stroke-opacity:1; fill:none" points="309.224,1423.18 309.224,1404.28 "/>
<polyline clip-path="url(#clip890)" style="stroke:#000000; stroke-linecap:round; stroke-linejoin:round; stroke-width:4; stroke-opacity:1; fill:none" points="805.227,1423.18 805.227,1404.28 "/>
<polyline clip-path="url(#clip890)" style="stroke:#000000; stroke-linecap:round; stroke-linejoin:round; stroke-width:4; stroke-opacity:1; fill:none" points="1301.23,1423.18 1301.23,1404.28 "/>
<polyline clip-path="url(#clip890)" style="stroke:#000000; stroke-linecap:round; stroke-linejoin:round; stroke-width:4; stroke-opacity:1; fill:none" points="1797.23,1423.18 1797.23,1404.28 "/>
<polyline clip-path="url(#clip890)" style="stroke:#000000; stroke-linecap:round; stroke-linejoin:round; stroke-width:4; stroke-opacity:1; fill:none" points="2293.24,1423.18 2293.24,1404.28 "/>
<path clip-path="url(#clip890)" d="M309.224 1454.1 Q305.613 1454.1 303.785 1457.66 Q301.979 1461.2 301.979 1468.33 Q301.979 1475.44 303.785 1479.01 Q305.613 1482.55 309.224 1482.55 Q312.859 1482.55 314.664 1479.01 Q316.493 1475.44 316.493 1468.33 Q316.493 1461.2 314.664 1457.66 Q312.859 1454.1 309.224 1454.1 M309.224 1450.39 Q315.035 1450.39 318.09 1455 Q321.169 1459.58 321.169 1468.33 Q321.169 1477.06 318.09 1481.67 Q315.035 1486.25 309.224 1486.25 Q303.414 1486.25 300.336 1481.67 Q297.28 1477.06 297.28 1468.33 Q297.28 1459.58 300.336 1455 Q303.414 1450.39 309.224 1450.39 Z" fill="#000000" fill-rule="evenodd" fill-opacity="1" /><path clip-path="url(#clip890)" d="M795.609 1481.64 L803.248 1481.64 L803.248 1455.28 L794.938 1456.95 L794.938 1452.69 L803.202 1451.02 L807.878 1451.02 L807.878 1481.64 L815.516 1481.64 L815.516 1485.58 L795.609 1485.58 L795.609 1481.64 Z" fill="#000000" fill-rule="evenodd" fill-opacity="1" /><path clip-path="url(#clip890)" d="M1295.88 1481.64 L1312.2 1481.64 L1312.2 1485.58 L1290.26 1485.58 L1290.26 1481.64 Q1292.92 1478.89 1297.5 1474.26 Q1302.11 1469.61 1303.29 1468.27 Q1305.54 1465.74 1306.42 1464.01 Q1307.32 1462.25 1307.32 1460.56 Q1307.32 1457.8 1305.37 1456.07 Q1303.45 1454.33 1300.35 1454.33 Q1298.15 1454.33 1295.7 1455.09 Q1293.27 1455.86 1290.49 1457.41 L1290.49 1452.69 Q1293.31 1451.55 1295.77 1450.97 Q1298.22 1450.39 1300.26 1450.39 Q1305.63 1450.39 1308.82 1453.08 Q1312.02 1455.77 1312.02 1460.26 Q1312.02 1462.39 1311.21 1464.31 Q1310.42 1466.2 1308.31 1468.8 Q1307.73 1469.47 1304.63 1472.69 Q1301.53 1475.88 1295.88 1481.64 Z" fill="#000000" fill-rule="evenodd" fill-opacity="1" /><path clip-path="url(#clip890)" d="M1801.48 1466.95 Q1804.84 1467.66 1806.71 1469.93 Q1808.61 1472.2 1808.61 1475.53 Q1808.61 1480.65 1805.09 1483.45 Q1801.57 1486.25 1795.09 1486.25 Q1792.92 1486.25 1790.6 1485.81 Q1788.31 1485.39 1785.86 1484.54 L1785.86 1480.02 Q1787.8 1481.16 1790.11 1481.74 Q1792.43 1482.32 1794.95 1482.32 Q1799.35 1482.32 1801.64 1480.58 Q1803.96 1478.84 1803.96 1475.53 Q1803.96 1472.48 1801.8 1470.77 Q1799.67 1469.03 1795.86 1469.03 L1791.83 1469.03 L1791.83 1465.19 L1796.04 1465.19 Q1799.49 1465.19 1801.32 1463.82 Q1803.15 1462.43 1803.15 1459.84 Q1803.15 1457.18 1801.25 1455.77 Q1799.37 1454.33 1795.86 1454.33 Q1793.93 1454.33 1791.74 1454.75 Q1789.54 1455.16 1786.9 1456.04 L1786.9 1451.88 Q1789.56 1451.14 1791.87 1450.77 Q1794.21 1450.39 1796.27 1450.39 Q1801.6 1450.39 1804.7 1452.83 Q1807.8 1455.23 1807.8 1459.35 Q1807.8 1462.22 1806.16 1464.21 Q1804.51 1466.18 1801.48 1466.95 Z" fill="#000000" fill-rule="evenodd" fill-opacity="1" /><path clip-path="url(#clip890)" d="M2296.24 1455.09 L2284.44 1473.54 L2296.24 1473.54 L2296.24 1455.09 M2295.02 1451.02 L2300.9 1451.02 L2300.9 1473.54 L2305.83 1473.54 L2305.83 1477.43 L2300.9 1477.43 L2300.9 1485.58 L2296.24 1485.58 L2296.24 1477.43 L2280.64 1477.43 L2280.64 1472.92 L2295.02 1451.02 Z" fill="#000000" fill-rule="evenodd" fill-opacity="1" /><path clip-path="url(#clip890)" d="M1306.43 1551.46 L1305.03 1544.11 Q1303.6 1536.57 1297.94 1536.57 Q1293.67 1536.57 1291.73 1540.07 Q1289.28 1544.46 1289.28 1550.25 Q1289.28 1557.25 1291.67 1560.6 Q1294.08 1564 1297.94 1564 Q1302.2 1564 1304.49 1557.22 L1306.43 1551.46 M1309.71 1541.72 L1312.86 1532.4 L1318.08 1532.4 L1311.56 1551.72 L1312.83 1558.69 Q1313.12 1560.25 1314.23 1561.55 Q1315.54 1563.08 1316.56 1563.08 L1319.36 1563.08 L1319.36 1568.04 L1315.86 1568.04 Q1312.86 1568.04 1310.19 1565.37 Q1308.88 1564.03 1308.34 1561.23 Q1306.88 1564.77 1303.89 1567.53 Q1302.49 1568.84 1297.94 1568.84 Q1290.46 1568.84 1286.83 1564 Q1283.1 1559 1283.1 1550.25 Q1283.1 1540.89 1287.15 1536.5 Q1291.63 1531.6 1297.94 1531.6 Q1307.83 1531.6 1309.71 1541.72 Z" fill="#000000" fill-rule="evenodd" fill-opacity="1" /><polyline clip-path="url(#clip892)" style="stroke:#000000; stroke-linecap:round; stroke-linejoin:round; stroke-width:2; stroke-opacity:0.1; fill:none" points="249.704,1218.98 2352.76,1218.98 "/>
<polyline clip-path="url(#clip892)" style="stroke:#000000; stroke-linecap:round; stroke-linejoin:round; stroke-width:2; stroke-opacity:0.1; fill:none" points="249.704,992.421 2352.76,992.421 "/>
<polyline clip-path="url(#clip892)" style="stroke:#000000; stroke-linecap:round; stroke-linejoin:round; stroke-width:2; stroke-opacity:0.1; fill:none" points="249.704,765.862 2352.76,765.862 "/>
<polyline clip-path="url(#clip892)" style="stroke:#000000; stroke-linecap:round; stroke-linejoin:round; stroke-width:2; stroke-opacity:0.1; fill:none" points="249.704,539.303 2352.76,539.303 "/>
<polyline clip-path="url(#clip892)" style="stroke:#000000; stroke-linecap:round; stroke-linejoin:round; stroke-width:2; stroke-opacity:0.1; fill:none" points="249.704,312.744 2352.76,312.744 "/>
<polyline clip-path="url(#clip892)" style="stroke:#000000; stroke-linecap:round; stroke-linejoin:round; stroke-width:2; stroke-opacity:0.1; fill:none" points="249.704,86.1857 2352.76,86.1857 "/>
<polyline clip-path="url(#clip890)" style="stroke:#000000; stroke-linecap:round; stroke-linejoin:round; stroke-width:4; stroke-opacity:1; fill:none" points="249.704,1423.18 249.704,47.2441 "/>
<polyline clip-path="url(#clip890)" style="stroke:#000000; stroke-linecap:round; stroke-linejoin:round; stroke-width:4; stroke-opacity:1; fill:none" points="249.704,1218.98 268.602,1218.98 "/>
<polyline clip-path="url(#clip890)" style="stroke:#000000; stroke-linecap:round; stroke-linejoin:round; stroke-width:4; stroke-opacity:1; fill:none" points="249.704,992.421 268.602,992.421 "/>
<polyline clip-path="url(#clip890)" style="stroke:#000000; stroke-linecap:round; stroke-linejoin:round; stroke-width:4; stroke-opacity:1; fill:none" points="249.704,765.862 268.602,765.862 "/>
<polyline clip-path="url(#clip890)" style="stroke:#000000; stroke-linecap:round; stroke-linejoin:round; stroke-width:4; stroke-opacity:1; fill:none" points="249.704,539.303 268.602,539.303 "/>
<polyline clip-path="url(#clip890)" style="stroke:#000000; stroke-linecap:round; stroke-linejoin:round; stroke-width:4; stroke-opacity:1; fill:none" points="249.704,312.744 268.602,312.744 "/>
<polyline clip-path="url(#clip890)" style="stroke:#000000; stroke-linecap:round; stroke-linejoin:round; stroke-width:4; stroke-opacity:1; fill:none" points="249.704,86.1857 268.602,86.1857 "/>
<path clip-path="url(#clip890)" d="M127.362 1204.78 Q123.751 1204.78 121.922 1208.34 Q120.117 1211.88 120.117 1219.01 Q120.117 1226.12 121.922 1229.69 Q123.751 1233.23 127.362 1233.23 Q130.996 1233.23 132.802 1229.69 Q134.63 1226.12 134.63 1219.01 Q134.63 1211.88 132.802 1208.34 Q130.996 1204.78 127.362 1204.78 M127.362 1201.07 Q133.172 1201.07 136.228 1205.68 Q139.306 1210.26 139.306 1219.01 Q139.306 1227.74 136.228 1232.35 Q133.172 1236.93 127.362 1236.93 Q121.552 1236.93 118.473 1232.35 Q115.418 1227.74 115.418 1219.01 Q115.418 1210.26 118.473 1205.68 Q121.552 1201.07 127.362 1201.07 Z" fill="#000000" fill-rule="evenodd" fill-opacity="1" /><path clip-path="url(#clip890)" d="M147.524 1230.38 L152.408 1230.38 L152.408 1236.26 L147.524 1236.26 L147.524 1230.38 Z" fill="#000000" fill-rule="evenodd" fill-opacity="1" /><path clip-path="url(#clip890)" d="M162.732 1235.54 L162.732 1231.28 Q164.491 1232.12 166.297 1232.56 Q168.102 1233 169.839 1233 Q174.468 1233 176.899 1229.89 Q179.352 1226.77 179.7 1220.43 Q178.357 1222.42 176.297 1223.48 Q174.237 1224.55 171.737 1224.55 Q166.552 1224.55 163.519 1221.42 Q160.51 1218.27 160.51 1212.83 Q160.51 1207.51 163.658 1204.29 Q166.806 1201.07 172.038 1201.07 Q178.033 1201.07 181.181 1205.68 Q184.352 1210.26 184.352 1219.01 Q184.352 1227.19 180.464 1232.07 Q176.598 1236.93 170.047 1236.93 Q168.288 1236.93 166.482 1236.58 Q164.677 1236.24 162.732 1235.54 M172.038 1220.89 Q175.186 1220.89 177.014 1218.74 Q178.866 1216.58 178.866 1212.83 Q178.866 1209.11 177.014 1206.95 Q175.186 1204.78 172.038 1204.78 Q168.889 1204.78 167.038 1206.95 Q165.209 1209.11 165.209 1212.83 Q165.209 1216.58 167.038 1218.74 Q168.889 1220.89 172.038 1220.89 Z" fill="#000000" fill-rule="evenodd" fill-opacity="1" /><path clip-path="url(#clip890)" d="M192.801 1201.7 L211.158 1201.7 L211.158 1205.63 L197.084 1205.63 L197.084 1214.11 Q198.102 1213.76 199.121 1213.6 Q200.139 1213.41 201.158 1213.41 Q206.945 1213.41 210.324 1216.58 Q213.704 1219.76 213.704 1225.17 Q213.704 1230.75 210.232 1233.85 Q206.76 1236.93 200.44 1236.93 Q198.264 1236.93 195.996 1236.56 Q193.75 1236.19 191.343 1235.45 L191.343 1230.75 Q193.426 1231.88 195.649 1232.44 Q197.871 1233 200.348 1233 Q204.352 1233 206.69 1230.89 Q209.028 1228.78 209.028 1225.17 Q209.028 1221.56 206.69 1219.45 Q204.352 1217.35 200.348 1217.35 Q198.473 1217.35 196.598 1217.76 Q194.746 1218.18 192.801 1219.06 L192.801 1201.7 Z" fill="#000000" fill-rule="evenodd" fill-opacity="1" /><path clip-path="url(#clip890)" d="M126.205 978.22 Q122.593 978.22 120.765 981.784 Q118.959 985.326 118.959 992.456 Q118.959 999.562 120.765 1003.13 Q122.593 1006.67 126.205 1006.67 Q129.839 1006.67 131.644 1003.13 Q133.473 999.562 133.473 992.456 Q133.473 985.326 131.644 981.784 Q129.839 978.22 126.205 978.22 M126.205 974.516 Q132.015 974.516 135.07 979.122 Q138.149 983.706 138.149 992.456 Q138.149 1001.18 135.07 1005.79 Q132.015 1010.37 126.205 1010.37 Q120.394 1010.37 117.316 1005.79 Q114.26 1001.18 114.26 992.456 Q114.26 983.706 117.316 979.122 Q120.394 974.516 126.205 974.516 Z" fill="#000000" fill-rule="evenodd" fill-opacity="1" /><path clip-path="url(#clip890)" d="M146.366 1003.82 L151.251 1003.82 L151.251 1009.7 L146.366 1009.7 L146.366 1003.82 Z" fill="#000000" fill-rule="evenodd" fill-opacity="1" /><path clip-path="url(#clip890)" d="M161.575 1008.98 L161.575 1004.72 Q163.334 1005.56 165.14 1006 Q166.945 1006.44 168.681 1006.44 Q173.311 1006.44 175.741 1003.34 Q178.195 1000.21 178.542 993.868 Q177.2 995.858 175.139 996.923 Q173.079 997.988 170.579 997.988 Q165.394 997.988 162.362 994.863 Q159.353 991.715 159.353 986.275 Q159.353 980.951 162.501 977.733 Q165.649 974.516 170.88 974.516 Q176.876 974.516 180.024 979.122 Q183.195 983.706 183.195 992.456 Q183.195 1000.63 179.306 1005.51 Q175.44 1010.37 168.889 1010.37 Q167.13 1010.37 165.325 1010.02 Q163.519 1009.68 161.575 1008.98 M170.88 994.331 Q174.028 994.331 175.857 992.178 Q177.709 990.025 177.709 986.275 Q177.709 982.548 175.857 980.395 Q174.028 978.22 170.88 978.22 Q167.732 978.22 165.88 980.395 Q164.052 982.548 164.052 986.275 Q164.052 990.025 165.88 992.178 Q167.732 994.331 170.88 994.331 Z" fill="#000000" fill-rule="evenodd" fill-opacity="1" /><path clip-path="url(#clip890)" d="M202.176 990.557 Q199.028 990.557 197.176 992.71 Q195.348 994.863 195.348 998.613 Q195.348 1002.34 197.176 1004.52 Q199.028 1006.67 202.176 1006.67 Q205.324 1006.67 207.153 1004.52 Q209.005 1002.34 209.005 998.613 Q209.005 994.863 207.153 992.71 Q205.324 990.557 202.176 990.557 M211.459 975.905 L211.459 980.164 Q209.699 979.331 207.894 978.891 Q206.112 978.451 204.352 978.451 Q199.723 978.451 197.269 981.576 Q194.838 984.701 194.491 991.02 Q195.857 989.007 197.917 987.942 Q199.977 986.854 202.454 986.854 Q207.662 986.854 210.672 990.025 Q213.704 993.173 213.704 998.613 Q213.704 1003.94 210.556 1007.15 Q207.408 1010.37 202.176 1010.37 Q196.181 1010.37 193.01 1005.79 Q189.838 1001.18 189.838 992.456 Q189.838 984.261 193.727 979.4 Q197.616 974.516 204.167 974.516 Q205.926 974.516 207.709 974.863 Q209.514 975.21 211.459 975.905 Z" fill="#000000" fill-rule="evenodd" fill-opacity="1" /><path clip-path="url(#clip890)" d="M127.269 751.661 Q123.658 751.661 121.83 755.226 Q120.024 758.767 120.024 765.897 Q120.024 773.003 121.83 776.568 Q123.658 780.11 127.269 780.11 Q130.904 780.11 132.709 776.568 Q134.538 773.003 134.538 765.897 Q134.538 758.767 132.709 755.226 Q130.904 751.661 127.269 751.661 M127.269 747.957 Q133.08 747.957 136.135 752.564 Q139.214 757.147 139.214 765.897 Q139.214 774.624 136.135 779.23 Q133.08 783.813 127.269 783.813 Q121.459 783.813 118.381 779.23 Q115.325 774.624 115.325 765.897 Q115.325 757.147 118.381 752.564 Q121.459 747.957 127.269 747.957 Z" fill="#000000" fill-rule="evenodd" fill-opacity="1" /><path clip-path="url(#clip890)" d="M147.431 777.262 L152.316 777.262 L152.316 783.142 L147.431 783.142 L147.431 777.262 Z" fill="#000000" fill-rule="evenodd" fill-opacity="1" /><path clip-path="url(#clip890)" d="M162.64 782.424 L162.64 778.165 Q164.399 778.999 166.204 779.438 Q168.01 779.878 169.746 779.878 Q174.376 779.878 176.806 776.776 Q179.26 773.651 179.607 767.309 Q178.264 769.3 176.204 770.364 Q174.144 771.429 171.644 771.429 Q166.459 771.429 163.427 768.304 Q160.417 765.156 160.417 759.716 Q160.417 754.392 163.565 751.175 Q166.714 747.957 171.945 747.957 Q177.94 747.957 181.089 752.564 Q184.26 757.147 184.26 765.897 Q184.26 774.068 180.371 778.952 Q176.505 783.813 169.954 783.813 Q168.195 783.813 166.39 783.466 Q164.584 783.119 162.64 782.424 M171.945 767.772 Q175.093 767.772 176.922 765.619 Q178.774 763.466 178.774 759.716 Q178.774 755.989 176.922 753.837 Q175.093 751.661 171.945 751.661 Q168.797 751.661 166.945 753.837 Q165.116 755.989 165.116 759.716 Q165.116 763.466 166.945 765.619 Q168.797 767.772 171.945 767.772 Z" fill="#000000" fill-rule="evenodd" fill-opacity="1" /><path clip-path="url(#clip890)" d="M191.482 748.582 L213.704 748.582 L213.704 750.573 L201.158 783.142 L196.274 783.142 L208.079 752.517 L191.482 752.517 L191.482 748.582 Z" fill="#000000" fill-rule="evenodd" fill-opacity="1" /><path clip-path="url(#clip890)" d="M126.459 525.102 Q122.848 525.102 121.019 528.667 Q119.214 532.208 119.214 539.338 Q119.214 546.444 121.019 550.009 Q122.848 553.551 126.459 553.551 Q130.093 553.551 131.899 550.009 Q133.728 546.444 133.728 539.338 Q133.728 532.208 131.899 528.667 Q130.093 525.102 126.459 525.102 M126.459 521.398 Q132.269 521.398 135.325 526.005 Q138.404 530.588 138.404 539.338 Q138.404 548.065 135.325 552.671 Q132.269 557.255 126.459 557.255 Q120.649 557.255 117.57 552.671 Q114.515 548.065 114.515 539.338 Q114.515 530.588 117.57 526.005 Q120.649 521.398 126.459 521.398 Z" fill="#000000" fill-rule="evenodd" fill-opacity="1" /><path clip-path="url(#clip890)" d="M146.621 550.704 L151.505 550.704 L151.505 556.583 L146.621 556.583 L146.621 550.704 Z" fill="#000000" fill-rule="evenodd" fill-opacity="1" /><path clip-path="url(#clip890)" d="M161.829 555.866 L161.829 551.606 Q163.589 552.44 165.394 552.88 Q167.2 553.319 168.936 553.319 Q173.565 553.319 175.996 550.218 Q178.45 547.093 178.797 540.75 Q177.454 542.741 175.394 543.806 Q173.334 544.87 170.834 544.87 Q165.649 544.87 162.616 541.745 Q159.607 538.597 159.607 533.157 Q159.607 527.833 162.755 524.616 Q165.903 521.398 171.135 521.398 Q177.13 521.398 180.278 526.005 Q183.45 530.588 183.45 539.338 Q183.45 547.509 179.561 552.393 Q175.695 557.255 169.144 557.255 Q167.385 557.255 165.579 556.907 Q163.774 556.56 161.829 555.866 M171.135 541.213 Q174.283 541.213 176.112 539.06 Q177.964 536.907 177.964 533.157 Q177.964 529.431 176.112 527.278 Q174.283 525.102 171.135 525.102 Q167.987 525.102 166.135 527.278 Q164.306 529.431 164.306 533.157 Q164.306 536.907 166.135 539.06 Q167.987 541.213 171.135 541.213 Z" fill="#000000" fill-rule="evenodd" fill-opacity="1" /><path clip-path="url(#clip890)" d="M201.852 540.171 Q198.519 540.171 196.598 541.954 Q194.7 543.736 194.7 546.861 Q194.7 549.986 196.598 551.768 Q198.519 553.551 201.852 553.551 Q205.186 553.551 207.107 551.768 Q209.028 549.963 209.028 546.861 Q209.028 543.736 207.107 541.954 Q205.209 540.171 201.852 540.171 M197.176 538.181 Q194.167 537.44 192.477 535.38 Q190.811 533.32 190.811 530.357 Q190.811 526.213 193.75 523.806 Q196.713 521.398 201.852 521.398 Q207.014 521.398 209.954 523.806 Q212.894 526.213 212.894 530.357 Q212.894 533.32 211.204 535.38 Q209.537 537.44 206.551 538.181 Q209.931 538.968 211.806 541.259 Q213.704 543.551 213.704 546.861 Q213.704 551.884 210.625 554.569 Q207.57 557.255 201.852 557.255 Q196.135 557.255 193.056 554.569 Q190 551.884 190 546.861 Q190 543.551 191.899 541.259 Q193.797 538.968 197.176 538.181 M195.463 530.796 Q195.463 533.482 197.13 534.986 Q198.82 536.491 201.852 536.491 Q204.862 536.491 206.551 534.986 Q208.264 533.482 208.264 530.796 Q208.264 528.111 206.551 526.607 Q204.862 525.102 201.852 525.102 Q198.82 525.102 197.13 526.607 Q195.463 528.111 195.463 530.796 Z" fill="#000000" fill-rule="evenodd" fill-opacity="1" /><path clip-path="url(#clip890)" d="M126.552 298.543 Q122.941 298.543 121.112 302.108 Q119.306 305.65 119.306 312.779 Q119.306 319.886 121.112 323.45 Q122.941 326.992 126.552 326.992 Q130.186 326.992 131.992 323.45 Q133.82 319.886 133.82 312.779 Q133.82 305.65 131.992 302.108 Q130.186 298.543 126.552 298.543 M126.552 294.839 Q132.362 294.839 135.417 299.446 Q138.496 304.029 138.496 312.779 Q138.496 321.506 135.417 326.112 Q132.362 330.696 126.552 330.696 Q120.742 330.696 117.663 326.112 Q114.607 321.506 114.607 312.779 Q114.607 304.029 117.663 299.446 Q120.742 294.839 126.552 294.839 Z" fill="#000000" fill-rule="evenodd" fill-opacity="1" /><path clip-path="url(#clip890)" d="M146.714 324.145 L151.598 324.145 L151.598 330.024 L146.714 330.024 L146.714 324.145 Z" fill="#000000" fill-rule="evenodd" fill-opacity="1" /><path clip-path="url(#clip890)" d="M161.922 329.307 L161.922 325.048 Q163.681 325.881 165.487 326.321 Q167.292 326.761 169.028 326.761 Q173.658 326.761 176.089 323.659 Q178.542 320.534 178.889 314.191 Q177.547 316.182 175.487 317.247 Q173.427 318.312 170.927 318.312 Q165.741 318.312 162.709 315.187 Q159.7 312.038 159.7 306.599 Q159.7 301.275 162.848 298.057 Q165.996 294.839 171.227 294.839 Q177.223 294.839 180.371 299.446 Q183.542 304.029 183.542 312.779 Q183.542 320.95 179.653 325.835 Q175.788 330.696 169.237 330.696 Q167.477 330.696 165.672 330.349 Q163.866 330.001 161.922 329.307 M171.227 314.654 Q174.376 314.654 176.204 312.501 Q178.056 310.349 178.056 306.599 Q178.056 302.872 176.204 300.719 Q174.376 298.543 171.227 298.543 Q168.079 298.543 166.227 300.719 Q164.399 302.872 164.399 306.599 Q164.399 310.349 166.227 312.501 Q168.079 314.654 171.227 314.654 Z" fill="#000000" fill-rule="evenodd" fill-opacity="1" /><path clip-path="url(#clip890)" d="M192.084 329.307 L192.084 325.048 Q193.843 325.881 195.649 326.321 Q197.454 326.761 199.19 326.761 Q203.82 326.761 206.25 323.659 Q208.704 320.534 209.051 314.191 Q207.709 316.182 205.649 317.247 Q203.588 318.312 201.088 318.312 Q195.903 318.312 192.871 315.187 Q189.862 312.038 189.862 306.599 Q189.862 301.275 193.01 298.057 Q196.158 294.839 201.389 294.839 Q207.385 294.839 210.533 299.446 Q213.704 304.029 213.704 312.779 Q213.704 320.95 209.815 325.835 Q205.949 330.696 199.399 330.696 Q197.639 330.696 195.834 330.349 Q194.028 330.001 192.084 329.307 M201.389 314.654 Q204.537 314.654 206.366 312.501 Q208.218 310.349 208.218 306.599 Q208.218 302.872 206.366 300.719 Q204.537 298.543 201.389 298.543 Q198.241 298.543 196.389 300.719 Q194.561 302.872 194.561 306.599 Q194.561 310.349 196.389 312.501 Q198.241 314.654 201.389 314.654 Z" fill="#000000" fill-rule="evenodd" fill-opacity="1" /><path clip-path="url(#clip890)" d="M117.177 99.5305 L124.816 99.5305 L124.816 73.1649 L116.506 74.8316 L116.506 70.5723 L124.769 68.9057 L129.445 68.9057 L129.445 99.5305 L137.084 99.5305 L137.084 103.466 L117.177 103.466 L117.177 99.5305 Z" fill="#000000" fill-rule="evenodd" fill-opacity="1" /><path clip-path="url(#clip890)" d="M146.529 97.5861 L151.413 97.5861 L151.413 103.466 L146.529 103.466 L146.529 97.5861 Z" fill="#000000" fill-rule="evenodd" fill-opacity="1" /><path clip-path="url(#clip890)" d="M171.598 71.9844 Q167.987 71.9844 166.158 75.5492 Q164.352 79.0908 164.352 86.2204 Q164.352 93.3268 166.158 96.8916 Q167.987 100.433 171.598 100.433 Q175.232 100.433 177.038 96.8916 Q178.866 93.3268 178.866 86.2204 Q178.866 79.0908 177.038 75.5492 Q175.232 71.9844 171.598 71.9844 M171.598 68.2807 Q177.408 68.2807 180.464 72.8871 Q183.542 77.4704 183.542 86.2204 Q183.542 94.9472 180.464 99.5537 Q177.408 104.137 171.598 104.137 Q165.788 104.137 162.709 99.5537 Q159.653 94.9472 159.653 86.2204 Q159.653 77.4704 162.709 72.8871 Q165.788 68.2807 171.598 68.2807 Z" fill="#000000" fill-rule="evenodd" fill-opacity="1" /><path clip-path="url(#clip890)" d="M201.76 71.9844 Q198.149 71.9844 196.32 75.5492 Q194.514 79.0908 194.514 86.2204 Q194.514 93.3268 196.32 96.8916 Q198.149 100.433 201.76 100.433 Q205.394 100.433 207.199 96.8916 Q209.028 93.3268 209.028 86.2204 Q209.028 79.0908 207.199 75.5492 Q205.394 71.9844 201.76 71.9844 M201.76 68.2807 Q207.57 68.2807 210.625 72.8871 Q213.704 77.4704 213.704 86.2204 Q213.704 94.9472 210.625 99.5537 Q207.57 104.137 201.76 104.137 Q195.95 104.137 192.871 99.5537 Q189.815 94.9472 189.815 86.2204 Q189.815 77.4704 192.871 72.8871 Q195.95 68.2807 201.76 68.2807 Z" fill="#000000" fill-rule="evenodd" fill-opacity="1" /><path clip-path="url(#clip890)" d="M14.479 1108.43 L14.479 1102.58 L64.0042 1102.58 L64.0042 1108.43 L14.479 1108.43 Z" fill="#000000" fill-rule="evenodd" fill-opacity="1" /><path clip-path="url(#clip890)" d="M46.0847 1074.12 Q46.0847 1081.22 47.7079 1083.96 Q49.3312 1086.69 53.2461 1086.69 Q56.3653 1086.69 58.2114 1084.66 Q60.0256 1082.59 60.0256 1079.06 Q60.0256 1074.19 56.5881 1071.26 Q53.1188 1068.3 47.3897 1068.3 L46.0847 1068.3 L46.0847 1074.12 M43.6657 1062.44 L64.0042 1062.44 L64.0042 1068.3 L58.5933 1068.3 Q61.8398 1070.3 63.3994 1073.29 Q64.9272 1076.29 64.9272 1080.62 Q64.9272 1086.09 61.8716 1089.34 Q58.7843 1092.55 53.6281 1092.55 Q47.6125 1092.55 44.5569 1088.54 Q41.5014 1084.5 41.5014 1076.51 L41.5014 1068.3 L40.9285 1068.3 Q36.8862 1068.3 34.6901 1070.97 Q32.4621 1073.61 32.4621 1078.42 Q32.4621 1081.47 33.1941 1084.37 Q33.9262 1087.27 35.3903 1089.94 L29.9795 1089.94 Q28.7381 1086.73 28.1334 1083.7 Q27.4968 1080.68 27.4968 1077.81 Q27.4968 1070.08 31.5072 1066.26 Q35.5176 1062.44 43.6657 1062.44 Z" fill="#000000" fill-rule="evenodd" fill-opacity="1" /><path clip-path="url(#clip890)" d="M35.1993 1022.62 Q31.2526 1020.43 29.3747 1017.37 Q27.4968 1014.32 27.4968 1010.18 Q27.4968 1004.61 31.4117 1001.58 Q35.2948 998.561 42.4881 998.561 L64.0042 998.561 L64.0042 1004.45 L42.679 1004.45 Q37.5546 1004.45 35.072 1006.26 Q32.5894 1008.08 32.5894 1011.8 Q32.5894 1016.35 35.6131 1019 Q38.6368 1021.64 43.8567 1021.64 L64.0042 1021.64 L64.0042 1027.53 L42.679 1027.53 Q37.5228 1027.53 35.072 1029.34 Q32.5894 1031.15 32.5894 1034.94 Q32.5894 1039.43 35.6449 1042.07 Q38.6686 1044.71 43.8567 1044.71 L64.0042 1044.71 L64.0042 1050.6 L28.3562 1050.6 L28.3562 1044.71 L33.8944 1044.71 Q30.616 1042.71 29.0564 1039.91 Q27.4968 1037.11 27.4968 1033.25 Q27.4968 1029.37 29.4702 1026.67 Q31.4436 1023.93 35.1993 1022.62 Z" fill="#000000" fill-rule="evenodd" fill-opacity="1" /><path clip-path="url(#clip890)" d="M46.212 961.29 Q39.7508 961.29 36.0905 963.964 Q32.3984 966.605 32.3984 971.252 Q32.3984 975.899 36.0905 978.573 Q39.7508 981.215 46.212 981.215 Q52.6732 981.215 56.3653 978.573 Q60.0256 975.899 60.0256 971.252 Q60.0256 966.605 56.3653 963.964 Q52.6732 961.29 46.212 961.29 M33.7671 981.215 Q30.5842 979.369 29.0564 976.568 Q27.4968 973.735 27.4968 969.82 Q27.4968 963.327 32.6531 959.285 Q37.8093 955.211 46.212 955.211 Q54.6147 955.211 59.771 959.285 Q64.9272 963.327 64.9272 969.82 Q64.9272 973.735 63.3994 976.568 Q61.8398 979.369 58.657 981.215 L64.0042 981.215 L64.0042 987.103 L14.479 987.103 L14.479 981.215 L33.7671 981.215 Z" fill="#000000" fill-rule="evenodd" fill-opacity="1" /><path clip-path="url(#clip890)" d="M29.4065 902.057 L34.9447 902.057 Q33.6716 904.54 33.035 907.213 Q32.3984 909.887 32.3984 912.752 Q32.3984 917.112 33.7352 919.308 Q35.072 921.473 37.7456 921.473 Q39.7826 921.473 40.9603 919.913 Q42.1061 918.353 43.1565 913.643 L43.6021 911.638 Q44.9389 905.399 47.3897 902.789 Q49.8086 900.147 54.1691 900.147 Q59.1344 900.147 62.0308 904.094 Q64.9272 908.009 64.9272 914.884 Q64.9272 917.749 64.3543 920.868 Q63.8132 923.955 62.6992 927.393 L56.6518 927.393 Q58.3387 924.146 59.198 920.995 Q60.0256 917.844 60.0256 914.757 Q60.0256 910.619 58.6251 908.391 Q57.1929 906.163 54.6147 906.163 Q52.2276 906.163 50.9545 907.786 Q49.6813 909.378 48.5037 914.82 L48.0262 916.857 Q46.8804 922.3 44.5251 924.719 Q42.138 927.138 38.0002 927.138 Q32.9713 927.138 30.2341 923.573 Q27.4968 920.008 27.4968 913.452 Q27.4968 910.205 27.9743 907.341 Q28.4517 904.476 29.4065 902.057 Z" fill="#000000" fill-rule="evenodd" fill-opacity="1" /><path clip-path="url(#clip890)" d="M42.4881 861.189 L64.0042 861.189 L64.0042 867.046 L42.679 867.046 Q37.6183 867.046 35.1038 869.019 Q32.5894 870.992 32.5894 874.939 Q32.5894 879.682 35.6131 882.419 Q38.6368 885.156 43.8567 885.156 L64.0042 885.156 L64.0042 891.044 L14.479 891.044 L14.479 885.156 L33.8944 885.156 Q30.6797 883.056 29.0883 880.223 Q27.4968 877.358 27.4968 873.634 Q27.4968 867.491 31.3163 864.34 Q35.1038 861.189 42.4881 861.189 Z" fill="#000000" fill-rule="evenodd" fill-opacity="1" /><path clip-path="url(#clip890)" d="M28.3562 849.508 L28.3562 843.652 L64.0042 843.652 L64.0042 849.508 L28.3562 849.508 M14.479 849.508 L14.479 843.652 L21.895 843.652 L21.895 849.508 L14.479 849.508 Z" fill="#000000" fill-rule="evenodd" fill-opacity="1" /><path clip-path="url(#clip890)" d="M14.479 813.351 L19.3487 813.351 L19.3487 818.953 Q19.3487 822.104 20.6219 823.345 Q21.895 824.555 25.2052 824.555 L28.3562 824.555 L28.3562 814.911 L32.9077 814.911 L32.9077 824.555 L64.0042 824.555 L64.0042 830.443 L32.9077 830.443 L32.9077 836.045 L28.3562 836.045 L28.3562 830.443 L25.8736 830.443 Q19.9216 830.443 17.2162 827.674 Q14.479 824.905 14.479 818.889 L14.479 813.351 Z" fill="#000000" fill-rule="evenodd" fill-opacity="1" /><path clip-path="url(#clip890)" d="M18.2347 803.802 L28.3562 803.802 L28.3562 791.739 L32.9077 791.739 L32.9077 803.802 L52.2594 803.802 Q56.6199 803.802 57.8613 802.625 Q59.1026 801.415 59.1026 797.755 L59.1026 791.739 L64.0042 791.739 L64.0042 797.755 Q64.0042 804.535 61.4897 807.113 Q58.9434 809.691 52.2594 809.691 L32.9077 809.691 L32.9077 813.988 L28.3562 813.988 L28.3562 809.691 L18.2347 809.691 L18.2347 803.802 Z" fill="#000000" fill-rule="evenodd" fill-opacity="1" /><path clip-path="url(#clip890)" d="M14.5426 749.248 Q21.8632 753.513 29.0246 755.582 Q36.186 757.651 43.5384 757.651 Q50.8908 757.651 58.1159 755.582 Q65.3091 753.482 72.5979 749.248 L72.5979 754.341 Q65.1182 759.115 57.8931 761.502 Q50.668 763.858 43.5384 763.858 Q36.4406 763.858 29.2474 761.502 Q22.0542 759.147 14.5426 754.341 L14.5426 749.248 Z" fill="#000000" fill-rule="evenodd" fill-opacity="1" /><path clip-path="url(#clip890)" d="M42.4881 708.253 L64.0042 708.253 L64.0042 714.11 L42.679 714.11 Q37.6183 714.11 35.1038 716.083 Q32.5894 718.056 32.5894 722.003 Q32.5894 726.746 35.6131 729.483 Q38.6368 732.22 43.8567 732.22 L64.0042 732.22 L64.0042 738.108 L28.3562 738.108 L28.3562 732.22 L33.8944 732.22 Q30.6797 730.119 29.0883 727.287 Q27.4968 724.422 27.4968 720.698 Q27.4968 714.555 31.3163 711.404 Q35.1038 708.253 42.4881 708.253 Z" fill="#000000" fill-rule="evenodd" fill-opacity="1" /><path clip-path="url(#clip890)" d="M32.4621 682.759 Q32.4621 687.469 36.1542 690.206 Q39.8145 692.944 46.212 692.944 Q52.6095 692.944 56.3017 690.238 Q59.9619 687.501 59.9619 682.759 Q59.9619 678.08 56.2698 675.342 Q52.5777 672.605 46.212 672.605 Q39.8781 672.605 36.186 675.342 Q32.4621 678.08 32.4621 682.759 M27.4968 682.759 Q27.4968 675.12 32.4621 670.759 Q37.4273 666.399 46.212 666.399 Q54.9649 666.399 59.9619 670.759 Q64.9272 675.12 64.9272 682.759 Q64.9272 690.429 59.9619 694.79 Q54.9649 699.118 46.212 699.118 Q37.4273 699.118 32.4621 694.79 Q27.4968 690.429 27.4968 682.759 Z" fill="#000000" fill-rule="evenodd" fill-opacity="1" /><path clip-path="url(#clip890)" d="M33.8307 636.034 Q33.2578 637.021 33.0032 638.199 Q32.7167 639.344 32.7167 640.745 Q32.7167 645.71 35.9632 648.384 Q39.1779 651.025 45.2253 651.025 L64.0042 651.025 L64.0042 656.914 L28.3562 656.914 L28.3562 651.025 L33.8944 651.025 Q30.6479 649.179 29.0883 646.219 Q27.4968 643.259 27.4968 639.026 Q27.4968 638.421 27.5923 637.689 Q27.656 636.957 27.8151 636.066 L33.8307 636.034 Z" fill="#000000" fill-rule="evenodd" fill-opacity="1" /><path clip-path="url(#clip890)" d="M35.1993 603.283 Q31.2526 601.087 29.3747 598.031 Q27.4968 594.975 27.4968 590.838 Q27.4968 585.268 31.4117 582.244 Q35.2948 579.22 42.4881 579.22 L64.0042 579.22 L64.0042 585.109 L42.679 585.109 Q37.5546 585.109 35.072 586.923 Q32.5894 588.737 32.5894 592.461 Q32.5894 597.012 35.6131 599.654 Q38.6368 602.296 43.8567 602.296 L64.0042 602.296 L64.0042 608.184 L42.679 608.184 Q37.5228 608.184 35.072 609.999 Q32.5894 611.813 32.5894 615.6 Q32.5894 620.088 35.6449 622.73 Q38.6686 625.372 43.8567 625.372 L64.0042 625.372 L64.0042 631.26 L28.3562 631.26 L28.3562 625.372 L33.8944 625.372 Q30.616 623.367 29.0564 620.566 Q27.4968 617.765 27.4968 613.913 Q27.4968 610.03 29.4702 607.325 Q31.4436 604.588 35.1993 603.283 Z" fill="#000000" fill-rule="evenodd" fill-opacity="1" /><path clip-path="url(#clip890)" d="M46.0847 551.339 Q46.0847 558.436 47.7079 561.174 Q49.3312 563.911 53.2461 563.911 Q56.3653 563.911 58.2114 561.874 Q60.0256 559.805 60.0256 556.272 Q60.0256 551.402 56.5881 548.474 Q53.1188 545.514 47.3897 545.514 L46.0847 545.514 L46.0847 551.339 M43.6657 539.657 L64.0042 539.657 L64.0042 545.514 L58.5933 545.514 Q61.8398 547.519 63.3994 550.511 Q64.9272 553.503 64.9272 557.832 Q64.9272 563.306 61.8716 566.553 Q58.7843 569.767 53.6281 569.767 Q47.6125 569.767 44.5569 565.757 Q41.5014 561.715 41.5014 553.726 L41.5014 545.514 L40.9285 545.514 Q36.8862 545.514 34.6901 548.188 Q32.4621 550.829 32.4621 555.635 Q32.4621 558.691 33.1941 561.587 Q33.9262 564.484 35.3903 567.157 L29.9795 567.157 Q28.7381 563.943 28.1334 560.919 Q27.4968 557.895 27.4968 555.031 Q27.4968 547.296 31.5072 543.477 Q35.5176 539.657 43.6657 539.657 Z" fill="#000000" fill-rule="evenodd" fill-opacity="1" /><path clip-path="url(#clip890)" d="M14.479 527.594 L14.479 521.738 L64.0042 521.738 L64.0042 527.594 L14.479 527.594 Z" fill="#000000" fill-rule="evenodd" fill-opacity="1" /><path clip-path="url(#clip890)" d="M28.3562 509.484 L28.3562 503.628 L64.0042 503.628 L64.0042 509.484 L28.3562 509.484 M14.479 509.484 L14.479 503.628 L21.895 503.628 L21.895 509.484 L14.479 509.484 Z" fill="#000000" fill-rule="evenodd" fill-opacity="1" /><path clip-path="url(#clip890)" d="M28.3562 493.92 L28.3562 466.102 L33.7034 466.102 L59.3254 488.127 L59.3254 466.102 L64.0042 466.102 L64.0042 494.716 L58.657 494.716 L33.035 472.69 L33.035 493.92 L28.3562 493.92 Z" fill="#000000" fill-rule="evenodd" fill-opacity="1" /><path clip-path="url(#clip890)" d="M44.7161 426.666 L47.5806 426.666 L47.5806 453.593 Q53.6281 453.211 56.8109 449.965 Q59.9619 446.686 59.9619 440.862 Q59.9619 437.488 59.1344 434.337 Q58.3069 431.154 56.6518 428.035 L62.1899 428.035 Q63.5267 431.186 64.227 434.496 Q64.9272 437.806 64.9272 441.212 Q64.9272 449.742 59.9619 454.739 Q54.9967 459.704 46.5303 459.704 Q37.7774 459.704 32.6531 454.994 Q27.4968 450.251 27.4968 442.23 Q27.4968 435.037 32.1438 430.868 Q36.7589 426.666 44.7161 426.666 M42.9973 432.523 Q38.1912 432.586 35.3266 435.228 Q32.4621 437.838 32.4621 442.167 Q32.4621 447.068 35.2312 450.028 Q38.0002 452.957 43.0292 453.402 L42.9973 432.523 Z" fill="#000000" fill-rule="evenodd" fill-opacity="1" /><path clip-path="url(#clip890)" d="M33.7671 393.596 L14.479 393.596 L14.479 387.74 L64.0042 387.74 L64.0042 393.596 L58.657 393.596 Q61.8398 395.442 63.3994 398.275 Q64.9272 401.076 64.9272 405.023 Q64.9272 411.484 59.771 415.558 Q54.6147 419.6 46.212 419.6 Q37.8093 419.6 32.6531 415.558 Q27.4968 411.484 27.4968 405.023 Q27.4968 401.076 29.0564 398.275 Q30.5842 395.442 33.7671 393.596 M46.212 413.553 Q52.6732 413.553 56.3653 410.911 Q60.0256 408.237 60.0256 403.59 Q60.0256 398.944 56.3653 396.27 Q52.6732 393.596 46.212 393.596 Q39.7508 393.596 36.0905 396.27 Q32.3984 398.944 32.3984 403.59 Q32.3984 408.237 36.0905 410.911 Q39.7508 413.553 46.212 413.553 Z" fill="#000000" fill-rule="evenodd" fill-opacity="1" /><path clip-path="url(#clip890)" d="M14.5426 376.6 L14.5426 371.507 Q22.0542 366.733 29.2474 364.378 Q36.4406 361.991 43.5384 361.991 Q50.668 361.991 57.8931 364.378 Q65.1182 366.733 72.5979 371.507 L72.5979 376.6 Q65.3091 372.367 58.1159 370.298 Q50.8908 368.197 43.5384 368.197 Q36.186 368.197 29.0246 370.298 Q21.8632 372.367 14.5426 376.6 Z" fill="#000000" fill-rule="evenodd" fill-opacity="1" /><polyline clip-path="url(#clip892)" style="stroke:#009af9; stroke-linecap:round; stroke-linejoin:round; stroke-width:4; stroke-opacity:1; fill:none" points="309.224,86.1857 312.454,92.7352 315.683,99.241 318.912,105.704 322.141,112.124 352,169.521 381.86,223.572 411.719,274.539 441.578,322.663 459.522,350.308 477.466,377.052 495.41,402.936 513.354,428.001 543.697,468.626 574.04,507.187 607.001,546.915 639.962,584.567 670.349,617.581 700.736,649.083 733.314,681.295 765.892,712.005 803.637,745.843 841.382,777.952 874.925,805.14 908.469,831.149 937.883,853.046 967.298,874.141 1031.44,917.564 1095.96,958.005 1167.29,999.353 1235.17,1035.77 1305.74,1070.92 1365.15,1098.59 1437.68,1130.21 1504.12,1157.29 1565.48,1180.84 1627.64,1203.38 1697.31,1227.2 1760.44,1247.58 1832.71,1269.62 1899.63,1288.9 1965.61,1306.92 2029.67,1323.55 2095.33,1339.78 2167.28,1356.68 2271.79,1379.72 2293.24,1384.24 "/>
<polyline clip-path="url(#clip892)" style="stroke:#e26f46; stroke-linecap:round; stroke-linejoin:round; stroke-width:4; stroke-opacity:1; fill:none" points="309.224,86.1857 312.454,90.7896 315.683,95.3628 318.912,99.9055 322.141,104.418 352,144.758 381.86,182.74 411.719,218.552 441.578,252.363 459.522,271.786 477.466,290.576 495.41,308.762 513.354,326.373 543.697,354.918 574.04,382.015 607.001,409.935 639.962,436.401 670.349,459.61 700.736,481.759 733.314,504.412 765.892,526.013 803.637,549.82 841.382,572.416 874.925,591.555 908.469,609.868 937.883,625.289 967.298,640.149 1031.44,670.749 1095.96,699.263 1167.29,728.433 1235.17,754.137 1305.74,778.969 1365.15,798.522 1437.68,820.882 1504.12,840.038 1565.48,856.706 1627.64,872.669 1697.31,889.549 1760.44,903.998 1832.71,919.632 1899.63,933.311 1965.61,946.107 2029.67,957.923 2095.33,969.458 2167.28,981.473 2271.79,997.864 2293.24,1001.08 "/>
<path clip-path="url(#clip890)" d="M1875.78 248.629 L2282.65 248.629 L2282.65 93.1086 L1875.78 93.1086  Z" fill="#ffffff" fill-rule="evenodd" fill-opacity="1"/>
<polyline clip-path="url(#clip890)" style="stroke:#000000; stroke-linecap:round; stroke-linejoin:round; stroke-width:4; stroke-opacity:1; fill:none" points="1875.78,248.629 2282.65,248.629 2282.65,93.1086 1875.78,93.1086 1875.78,248.629 "/>
<polyline clip-path="url(#clip890)" style="stroke:#009af9; stroke-linecap:round; stroke-linejoin:round; stroke-width:4; stroke-opacity:1; fill:none" points="1899.14,144.949 2039.35,144.949 "/>
<path clip-path="url(#clip890)" d="M2069.82 127.669 L2074.5 127.669 L2074.5 159.821 Q2074.5 166.071 2072.11 168.895 Q2069.75 171.719 2064.5 171.719 L2062.71 171.719 L2062.71 167.784 L2064.17 167.784 Q2067.27 167.784 2068.55 166.048 Q2069.82 164.312 2069.82 159.821 L2069.82 127.669 Z" fill="#000000" fill-rule="evenodd" fill-opacity="1" /><path clip-path="url(#clip890)" d="M2103.32 170.099 L2103.32 173.409 L2078.69 173.409 L2078.69 170.099 L2103.32 170.099 Z" fill="#000000" fill-rule="evenodd" fill-opacity="1" /><path clip-path="url(#clip890)" d="M2122.34 140.284 Q2121.63 139.868 2120.77 139.682 Q2119.94 139.474 2118.92 139.474 Q2115.31 139.474 2113.36 141.835 Q2111.44 144.173 2111.44 148.571 L2111.44 162.229 L2107.16 162.229 L2107.16 136.303 L2111.44 136.303 L2111.44 140.331 Q2112.78 137.969 2114.94 136.835 Q2117.09 135.678 2120.17 135.678 Q2120.61 135.678 2121.14 135.747 Q2121.67 135.794 2122.32 135.909 L2122.34 140.284 Z" fill="#000000" fill-rule="evenodd" fill-opacity="1" /><path clip-path="url(#clip890)" d="M2147.94 148.201 L2147.94 150.284 L2128.36 150.284 Q2128.64 154.682 2131 156.997 Q2133.38 159.289 2137.62 159.289 Q2140.07 159.289 2142.37 158.687 Q2144.68 158.085 2146.95 156.881 L2146.95 160.909 Q2144.66 161.881 2142.25 162.391 Q2139.84 162.9 2137.37 162.9 Q2131.16 162.9 2127.53 159.289 Q2123.92 155.678 2123.92 149.52 Q2123.92 143.155 2127.34 139.428 Q2130.79 135.678 2136.63 135.678 Q2141.86 135.678 2144.89 139.057 Q2147.94 142.414 2147.94 148.201 M2143.69 146.951 Q2143.64 143.456 2141.72 141.372 Q2139.82 139.289 2136.67 139.289 Q2133.11 139.289 2130.95 141.303 Q2128.82 143.317 2128.5 146.974 L2143.69 146.951 Z" fill="#000000" fill-rule="evenodd" fill-opacity="1" /><path clip-path="url(#clip890)" d="M2154.94 126.21 L2159.19 126.21 L2159.19 162.229 L2154.94 162.229 L2154.94 126.21 Z" fill="#000000" fill-rule="evenodd" fill-opacity="1" /><path clip-path="url(#clip890)" d="M2183.73 140.701 L2213.41 140.701 L2213.41 144.59 L2183.73 144.59 L2183.73 140.701 M2183.73 150.145 L2213.41 150.145 L2213.41 154.081 L2183.73 154.081 L2183.73 150.145 Z" fill="#000000" fill-rule="evenodd" fill-opacity="1" /><path clip-path="url(#clip890)" d="M2239.38 158.293 L2247.02 158.293 L2247.02 131.928 L2238.71 133.595 L2238.71 129.335 L2246.97 127.669 L2251.65 127.669 L2251.65 158.293 L2259.29 158.293 L2259.29 162.229 L2239.38 162.229 L2239.38 158.293 Z" fill="#000000" fill-rule="evenodd" fill-opacity="1" /><polyline clip-path="url(#clip890)" style="stroke:#e26f46; stroke-linecap:round; stroke-linejoin:round; stroke-width:4; stroke-opacity:1; fill:none" points="1899.14,196.789 2039.35,196.789 "/>
<path clip-path="url(#clip890)" d="M2069.82 179.509 L2074.5 179.509 L2074.5 211.661 Q2074.5 217.911 2072.11 220.735 Q2069.75 223.559 2064.5 223.559 L2062.71 223.559 L2062.71 219.624 L2064.17 219.624 Q2067.27 219.624 2068.55 217.888 Q2069.82 216.152 2069.82 211.661 L2069.82 179.509 Z" fill="#000000" fill-rule="evenodd" fill-opacity="1" /><path clip-path="url(#clip890)" d="M2103.32 221.939 L2103.32 225.249 L2078.69 225.249 L2078.69 221.939 L2103.32 221.939 Z" fill="#000000" fill-rule="evenodd" fill-opacity="1" /><path clip-path="url(#clip890)" d="M2122.34 192.124 Q2121.63 191.708 2120.77 191.522 Q2119.94 191.314 2118.92 191.314 Q2115.31 191.314 2113.36 193.675 Q2111.44 196.013 2111.44 200.411 L2111.44 214.069 L2107.16 214.069 L2107.16 188.143 L2111.44 188.143 L2111.44 192.171 Q2112.78 189.809 2114.94 188.675 Q2117.09 187.518 2120.17 187.518 Q2120.61 187.518 2121.14 187.587 Q2121.67 187.634 2122.32 187.749 L2122.34 192.124 Z" fill="#000000" fill-rule="evenodd" fill-opacity="1" /><path clip-path="url(#clip890)" d="M2147.94 200.041 L2147.94 202.124 L2128.36 202.124 Q2128.64 206.522 2131 208.837 Q2133.38 211.129 2137.62 211.129 Q2140.07 211.129 2142.37 210.527 Q2144.68 209.925 2146.95 208.721 L2146.95 212.749 Q2144.66 213.721 2142.25 214.231 Q2139.84 214.74 2137.37 214.74 Q2131.16 214.74 2127.53 211.129 Q2123.92 207.518 2123.92 201.36 Q2123.92 194.995 2127.34 191.268 Q2130.79 187.518 2136.63 187.518 Q2141.86 187.518 2144.89 190.897 Q2147.94 194.254 2147.94 200.041 M2143.69 198.791 Q2143.64 195.296 2141.72 193.212 Q2139.82 191.129 2136.67 191.129 Q2133.11 191.129 2130.95 193.143 Q2128.82 195.157 2128.5 198.814 L2143.69 198.791 Z" fill="#000000" fill-rule="evenodd" fill-opacity="1" /><path clip-path="url(#clip890)" d="M2154.94 178.05 L2159.19 178.05 L2159.19 214.069 L2154.94 214.069 L2154.94 178.05 Z" fill="#000000" fill-rule="evenodd" fill-opacity="1" /><path clip-path="url(#clip890)" d="M2183.73 192.541 L2213.41 192.541 L2213.41 196.43 L2183.73 196.43 L2183.73 192.541 M2183.73 201.985 L2213.41 201.985 L2213.41 205.921 L2183.73 205.921 L2183.73 201.985 Z" fill="#000000" fill-rule="evenodd" fill-opacity="1" /><path clip-path="url(#clip890)" d="M2242.6 210.133 L2258.92 210.133 L2258.92 214.069 L2236.97 214.069 L2236.97 210.133 Q2239.63 207.379 2244.22 202.749 Q2248.82 198.096 2250 196.754 Q2252.25 194.231 2253.13 192.495 Q2254.03 190.735 2254.03 189.046 Q2254.03 186.291 2252.09 184.555 Q2250.17 182.819 2247.06 182.819 Q2244.87 182.819 2242.41 183.583 Q2239.98 184.347 2237.2 185.897 L2237.2 181.175 Q2240.03 180.041 2242.48 179.462 Q2244.94 178.884 2246.97 178.884 Q2252.34 178.884 2255.54 181.569 Q2258.73 184.254 2258.73 188.745 Q2258.73 190.874 2257.92 192.796 Q2257.13 194.694 2255.03 197.286 Q2254.45 197.958 2251.35 201.175 Q2248.25 204.37 2242.6 210.133 Z" fill="#000000" fill-rule="evenodd" fill-opacity="1" /></svg>
