<?xml version="1.0" encoding="utf-8"?>
<svg xmlns="http://www.w3.org/2000/svg" xmlns:xlink="http://www.w3.org/1999/xlink" width="600" height="400" viewBox="0 0 2400 1600">
<defs>
  <clipPath id="clip950">
    <rect x="0" y="0" width="2400" height="1600"/>
  </clipPath>
</defs>
<path clip-path="url(#clip950)" d="M0 1600 L2400 1600 L2400 0 L0 0  Z" fill="#ffffff" fill-rule="evenodd" fill-opacity="1"/>
<defs>
  <clipPath id="clip951">
    <rect x="480" y="0" width="1681" height="1600"/>
  </clipPath>
</defs>
<path clip-path="url(#clip950)" d="M256.209 1423.18 L2352.76 1423.18 L2352.76 47.2441 L256.209 47.2441  Z" fill="#ffffff" fill-rule="evenodd" fill-opacity="1"/>
<defs>
  <clipPath id="clip952">
    <rect x="256" y="47" width="2098" height="1377"/>
  </clipPath>
</defs>
<polyline clip-path="url(#clip952)" style="stroke:#000000; stroke-linecap:round; stroke-linejoin:round; stroke-width:2; stroke-opacity:0.1; fill:none" points="315.545,1423.18 315.545,47.2441 "/>
<polyline clip-path="url(#clip952)" style="stroke:#000000; stroke-linecap:round; stroke-linejoin:round; stroke-width:2; stroke-opacity:0.1; fill:none" points="933.631,1423.18 933.631,47.2441 "/>
<polyline clip-path="url(#clip952)" style="stroke:#000000; stroke-linecap:round; stroke-linejoin:round; stroke-width:2; stroke-opacity:0.1; fill:none" points="1551.72,1423.18 1551.72,47.2441 "/>
<polyline clip-path="url(#clip952)" style="stroke:#000000; stroke-linecap:round; stroke-linejoin:round; stroke-width:2; stroke-opacity:0.1; fill:none" points="2169.8,1423.18 2169.8,47.2441 "/>
<polyline clip-path="url(#clip950)" style="stroke:#000000; stroke-linecap:round; stroke-linejoin:round; stroke-width:4; stroke-opacity:1; fill:none" points="256.209,1423.18 2352.76,1423.18 "/>
<polyline clip-path="url(#clip950)" style="stroke:#000000; stroke-linecap:round; stroke-linejoin:round; stroke-width:4; stroke-opacity:1; fill:none" points="315.545,1423.18 315.545,1404.28 "/>
<polyline clip-path="url(#clip950)" style="stroke:#000000; stroke-linecap:round; stroke-linejoin:round; stroke-width:4; stroke-opacity:1; fill:none" points="933.631,1423.18 933.631,1404.28 "/>
<polyline clip-path="url(#clip950)" style="stroke:#000000; stroke-linecap:round; stroke-linejoin:round; stroke-width:4; stroke-opacity:1; fill:none" points="1551.72,1423.18 1551.72,1404.28 "/>
<polyline clip-path="url(#clip950)" style="stroke:#000000; stroke-linecap:round; stroke-linejoin:round; stroke-width:4; stroke-opacity:1; fill:none" points="2169.8,1423.18 2169.8,1404.28 "/>
<path clip-path="url(#clip950)" d="M247.49 1468.75 L277.165 1468.75 L277.165 1472.69 L247.49 1472.69 L247.49 1468.75 Z" fill="#000000" fill-rule="evenodd" fill-opacity="1" /><path clip-path="url(#clip950)" d="M297.258 1454.1 Q293.647 1454.1 291.818 1457.66 Q290.013 1461.2 290.013 1468.33 Q290.013 1475.44 291.818 1479.01 Q293.647 1482.55 297.258 1482.55 Q300.892 1482.55 302.698 1479.01 Q304.526 1475.44 304.526 1468.33 Q304.526 1461.2 302.698 1457.66 Q300.892 1454.1 297.258 1454.1 M297.258 1450.39 Q303.068 1450.39 306.124 1455 Q309.202 1459.58 309.202 1468.33 Q309.202 1477.06 306.124 1481.67 Q303.068 1486.25 297.258 1486.25 Q291.448 1486.25 288.369 1481.67 Q285.314 1477.06 285.314 1468.33 Q285.314 1459.58 288.369 1455 Q291.448 1450.39 297.258 1450.39 Z" fill="#000000" fill-rule="evenodd" fill-opacity="1" /><path clip-path="url(#clip950)" d="M317.42 1479.7 L322.304 1479.7 L322.304 1485.58 L317.42 1485.58 L317.42 1479.7 Z" fill="#000000" fill-rule="evenodd" fill-opacity="1" /><path clip-path="url(#clip950)" d="M333.299 1481.64 L340.938 1481.64 L340.938 1455.28 L332.628 1456.95 L332.628 1452.69 L340.892 1451.02 L345.568 1451.02 L345.568 1481.64 L353.207 1481.64 L353.207 1485.58 L333.299 1485.58 L333.299 1481.64 Z" fill="#000000" fill-rule="evenodd" fill-opacity="1" /><path clip-path="url(#clip950)" d="M362.697 1451.02 L381.054 1451.02 L381.054 1454.96 L366.98 1454.96 L366.98 1463.43 Q367.998 1463.08 369.017 1462.92 Q370.035 1462.73 371.054 1462.73 Q376.841 1462.73 380.22 1465.9 Q383.6 1469.08 383.6 1474.49 Q383.6 1480.07 380.128 1483.17 Q376.656 1486.25 370.336 1486.25 Q368.16 1486.25 365.892 1485.88 Q363.647 1485.51 361.239 1484.77 L361.239 1480.07 Q363.322 1481.2 365.545 1481.76 Q367.767 1482.32 370.244 1482.32 Q374.248 1482.32 376.586 1480.21 Q378.924 1478.1 378.924 1474.49 Q378.924 1470.88 376.586 1468.77 Q374.248 1466.67 370.244 1466.67 Q368.369 1466.67 366.494 1467.08 Q364.642 1467.5 362.697 1468.38 L362.697 1451.02 Z" fill="#000000" fill-rule="evenodd" fill-opacity="1" /><path clip-path="url(#clip950)" d="M865.078 1468.75 L894.754 1468.75 L894.754 1472.69 L865.078 1472.69 L865.078 1468.75 Z" fill="#000000" fill-rule="evenodd" fill-opacity="1" /><path clip-path="url(#clip950)" d="M914.846 1454.1 Q911.235 1454.1 909.406 1457.66 Q907.601 1461.2 907.601 1468.33 Q907.601 1475.44 909.406 1479.01 Q911.235 1482.55 914.846 1482.55 Q918.48 1482.55 920.286 1479.01 Q922.115 1475.44 922.115 1468.33 Q922.115 1461.2 920.286 1457.66 Q918.48 1454.1 914.846 1454.1 M914.846 1450.39 Q920.656 1450.39 923.712 1455 Q926.791 1459.58 926.791 1468.33 Q926.791 1477.06 923.712 1481.67 Q920.656 1486.25 914.846 1486.25 Q909.036 1486.25 905.957 1481.67 Q902.902 1477.06 902.902 1468.33 Q902.902 1459.58 905.957 1455 Q909.036 1450.39 914.846 1450.39 Z" fill="#000000" fill-rule="evenodd" fill-opacity="1" /><path clip-path="url(#clip950)" d="M935.008 1479.7 L939.892 1479.7 L939.892 1485.58 L935.008 1485.58 L935.008 1479.7 Z" fill="#000000" fill-rule="evenodd" fill-opacity="1" /><path clip-path="url(#clip950)" d="M950.888 1481.64 L958.526 1481.64 L958.526 1455.28 L950.216 1456.95 L950.216 1452.69 L958.48 1451.02 L963.156 1451.02 L963.156 1481.64 L970.795 1481.64 L970.795 1485.58 L950.888 1485.58 L950.888 1481.64 Z" fill="#000000" fill-rule="evenodd" fill-opacity="1" /><path clip-path="url(#clip950)" d="M990.239 1454.1 Q986.628 1454.1 984.799 1457.66 Q982.994 1461.2 982.994 1468.33 Q982.994 1475.44 984.799 1479.01 Q986.628 1482.55 990.239 1482.55 Q993.874 1482.55 995.679 1479.01 Q997.508 1475.44 997.508 1468.33 Q997.508 1461.2 995.679 1457.66 Q993.874 1454.1 990.239 1454.1 M990.239 1450.39 Q996.049 1450.39 999.105 1455 Q1002.18 1459.58 1002.18 1468.33 Q1002.18 1477.06 999.105 1481.67 Q996.049 1486.25 990.239 1486.25 Q984.429 1486.25 981.35 1481.67 Q978.295 1477.06 978.295 1468.33 Q978.295 1459.58 981.35 1455 Q984.429 1450.39 990.239 1450.39 Z" fill="#000000" fill-rule="evenodd" fill-opacity="1" /><path clip-path="url(#clip950)" d="M1483.66 1468.75 L1513.34 1468.75 L1513.34 1472.69 L1483.66 1472.69 L1483.66 1468.75 Z" fill="#000000" fill-rule="evenodd" fill-opacity="1" /><path clip-path="url(#clip950)" d="M1533.43 1454.1 Q1529.82 1454.1 1527.99 1457.66 Q1526.18 1461.2 1526.18 1468.33 Q1526.18 1475.44 1527.99 1479.01 Q1529.82 1482.55 1533.43 1482.55 Q1537.06 1482.55 1538.87 1479.01 Q1540.7 1475.44 1540.7 1468.33 Q1540.7 1461.2 1538.87 1457.66 Q1537.06 1454.1 1533.43 1454.1 M1533.43 1450.39 Q1539.24 1450.39 1542.3 1455 Q1545.37 1459.58 1545.37 1468.33 Q1545.37 1477.06 1542.3 1481.67 Q1539.24 1486.25 1533.43 1486.25 Q1527.62 1486.25 1524.54 1481.67 Q1521.49 1477.06 1521.49 1468.33 Q1521.49 1459.58 1524.54 1455 Q1527.62 1450.39 1533.43 1450.39 Z" fill="#000000" fill-rule="evenodd" fill-opacity="1" /><path clip-path="url(#clip950)" d="M1553.59 1479.7 L1558.48 1479.7 L1558.48 1485.58 L1553.59 1485.58 L1553.59 1479.7 Z" fill="#000000" fill-rule="evenodd" fill-opacity="1" /><path clip-path="url(#clip950)" d="M1578.66 1454.1 Q1575.05 1454.1 1573.22 1457.66 Q1571.42 1461.2 1571.42 1468.33 Q1571.42 1475.44 1573.22 1479.01 Q1575.05 1482.55 1578.66 1482.55 Q1582.3 1482.55 1584.1 1479.01 Q1585.93 1475.44 1585.93 1468.33 Q1585.93 1461.2 1584.1 1457.66 Q1582.3 1454.1 1578.66 1454.1 M1578.66 1450.39 Q1584.47 1450.39 1587.53 1455 Q1590.61 1459.58 1590.61 1468.33 Q1590.61 1477.06 1587.53 1481.67 Q1584.47 1486.25 1578.66 1486.25 Q1572.85 1486.25 1569.77 1481.67 Q1566.72 1477.06 1566.72 1468.33 Q1566.72 1459.58 1569.77 1455 Q1572.85 1450.39 1578.66 1450.39 Z" fill="#000000" fill-rule="evenodd" fill-opacity="1" /><path clip-path="url(#clip950)" d="M1598.87 1451.02 L1617.23 1451.02 L1617.23 1454.96 L1603.15 1454.96 L1603.15 1463.43 Q1604.17 1463.08 1605.19 1462.92 Q1606.21 1462.73 1607.23 1462.73 Q1613.01 1462.73 1616.39 1465.9 Q1619.77 1469.08 1619.77 1474.49 Q1619.77 1480.07 1616.3 1483.17 Q1612.83 1486.25 1606.51 1486.25 Q1604.33 1486.25 1602.06 1485.88 Q1599.82 1485.51 1597.41 1484.77 L1597.41 1480.07 Q1599.49 1481.2 1601.72 1481.76 Q1603.94 1482.32 1606.42 1482.32 Q1610.42 1482.32 1612.76 1480.21 Q1615.1 1478.1 1615.1 1474.49 Q1615.1 1470.88 1612.76 1468.77 Q1610.42 1466.67 1606.42 1466.67 Q1604.54 1466.67 1602.67 1467.08 Q1600.81 1467.5 1598.87 1468.38 L1598.87 1451.02 Z" fill="#000000" fill-rule="evenodd" fill-opacity="1" /><path clip-path="url(#clip950)" d="M2132.11 1454.1 Q2128.49 1454.1 2126.67 1457.66 Q2124.86 1461.2 2124.86 1468.33 Q2124.86 1475.44 2126.67 1479.01 Q2128.49 1482.55 2132.11 1482.55 Q2135.74 1482.55 2137.55 1479.01 Q2139.37 1475.44 2139.37 1468.33 Q2139.37 1461.2 2137.55 1457.66 Q2135.74 1454.1 2132.11 1454.1 M2132.11 1450.39 Q2137.92 1450.39 2140.97 1455 Q2144.05 1459.58 2144.05 1468.33 Q2144.05 1477.06 2140.97 1481.67 Q2137.92 1486.25 2132.11 1486.25 Q2126.3 1486.25 2123.22 1481.67 Q2120.16 1477.06 2120.16 1468.33 Q2120.16 1459.58 2123.22 1455 Q2126.3 1450.39 2132.11 1450.39 Z" fill="#000000" fill-rule="evenodd" fill-opacity="1" /><path clip-path="url(#clip950)" d="M2152.27 1479.7 L2157.15 1479.7 L2157.15 1485.58 L2152.27 1485.58 L2152.27 1479.7 Z" fill="#000000" fill-rule="evenodd" fill-opacity="1" /><path clip-path="url(#clip950)" d="M2177.34 1454.1 Q2173.73 1454.1 2171.9 1457.66 Q2170.09 1461.2 2170.09 1468.33 Q2170.09 1475.44 2171.9 1479.01 Q2173.73 1482.55 2177.34 1482.55 Q2180.97 1482.55 2182.78 1479.01 Q2184.61 1475.44 2184.61 1468.33 Q2184.61 1461.2 2182.78 1457.66 Q2180.97 1454.1 2177.34 1454.1 M2177.34 1450.39 Q2183.15 1450.39 2186.2 1455 Q2189.28 1459.58 2189.28 1468.33 Q2189.28 1477.06 2186.2 1481.67 Q2183.15 1486.25 2177.34 1486.25 Q2171.53 1486.25 2168.45 1481.67 Q2165.39 1477.06 2165.39 1468.33 Q2165.39 1459.58 2168.45 1455 Q2171.53 1450.39 2177.34 1450.39 Z" fill="#000000" fill-rule="evenodd" fill-opacity="1" /><path clip-path="url(#clip950)" d="M2207.5 1454.1 Q2203.89 1454.1 2202.06 1457.66 Q2200.25 1461.2 2200.25 1468.33 Q2200.25 1475.44 2202.06 1479.01 Q2203.89 1482.55 2207.5 1482.55 Q2211.13 1482.55 2212.94 1479.01 Q2214.77 1475.44 2214.77 1468.33 Q2214.77 1461.2 2212.94 1457.66 Q2211.13 1454.1 2207.5 1454.1 M2207.5 1450.39 Q2213.31 1450.39 2216.36 1455 Q2219.44 1459.58 2219.44 1468.33 Q2219.44 1477.06 2216.36 1481.67 Q2213.31 1486.25 2207.5 1486.25 Q2201.69 1486.25 2198.61 1481.67 Q2195.55 1477.06 2195.55 1468.33 Q2195.55 1459.58 2198.61 1455 Q2201.69 1450.39 2207.5 1450.39 Z" fill="#000000" fill-rule="evenodd" fill-opacity="1" /><path clip-path="url(#clip950)" d="M1217.37 1548.82 Q1213.8 1548.06 1211.89 1545.99 Q1209.98 1543.95 1209.98 1540.99 Q1209.98 1536.5 1213.61 1533.99 Q1217.21 1531.5 1223.45 1531.5 Q1225.87 1531.5 1228.57 1531.89 Q1231.28 1532.27 1234.4 1533.03 L1234.4 1538.35 Q1231.31 1537.42 1228.76 1537.01 Q1226.18 1536.6 1223.92 1536.6 Q1220.14 1536.6 1217.94 1538.06 Q1215.71 1539.53 1215.71 1541.56 Q1215.71 1543.79 1217.88 1545.22 Q1220.01 1546.62 1223.7 1546.62 L1228.63 1546.62 L1228.63 1551.46 L1223.92 1551.46 Q1219.56 1551.46 1217.27 1553.08 Q1214.79 1554.87 1214.79 1557.67 Q1214.79 1560.53 1217.46 1562.31 Q1220.17 1564.1 1224.97 1564.1 Q1227.93 1564.1 1230.64 1563.52 Q1233.35 1562.92 1235.61 1561.74 L1235.61 1567.18 Q1232.74 1568.08 1230.07 1568.52 Q1227.36 1568.97 1224.82 1568.97 Q1217.24 1568.97 1213.13 1566.07 Q1209.03 1563.17 1209.03 1557.67 Q1209.03 1554.23 1211.22 1551.91 Q1213.42 1549.58 1217.37 1548.82 Z" fill="#000000" fill-rule="evenodd" fill-opacity="1" /><path clip-path="url(#clip950)" d="M1289.62 1533.45 L1289.62 1538.98 Q1287.14 1537.71 1284.46 1537.07 Q1281.79 1536.44 1278.92 1536.44 Q1274.56 1536.44 1272.37 1537.77 Q1270.2 1539.11 1270.2 1541.79 Q1270.2 1543.82 1271.76 1545 Q1273.32 1546.15 1278.03 1547.2 L1280.04 1547.64 Q1286.28 1548.98 1288.89 1551.43 Q1291.53 1553.85 1291.53 1558.21 Q1291.53 1563.17 1287.58 1566.07 Q1283.67 1568.97 1276.79 1568.97 Q1273.93 1568.97 1270.81 1568.39 Q1267.72 1567.85 1264.28 1566.74 L1264.28 1560.69 Q1267.53 1562.38 1270.68 1563.24 Q1273.83 1564.07 1276.92 1564.07 Q1281.06 1564.07 1283.28 1562.66 Q1285.51 1561.23 1285.51 1558.65 Q1285.51 1556.27 1283.89 1554.99 Q1282.3 1553.72 1276.86 1552.54 L1274.82 1552.07 Q1269.38 1550.92 1266.96 1548.56 Q1264.54 1546.18 1264.54 1542.04 Q1264.54 1537.01 1268.1 1534.27 Q1271.67 1531.54 1278.22 1531.54 Q1281.47 1531.54 1284.33 1532.01 Q1287.2 1532.49 1289.62 1533.45 Z" fill="#000000" fill-rule="evenodd" fill-opacity="1" /><path clip-path="url(#clip950)" d="M1330.49 1546.53 L1330.49 1568.04 L1324.63 1568.04 L1324.63 1546.72 Q1324.63 1541.66 1322.66 1539.14 Q1320.68 1536.63 1316.74 1536.63 Q1311.99 1536.63 1309.26 1539.65 Q1306.52 1542.68 1306.52 1547.9 L1306.52 1568.04 L1300.63 1568.04 L1300.63 1518.52 L1306.52 1518.52 L1306.52 1537.93 Q1308.62 1534.72 1311.45 1533.13 Q1314.32 1531.54 1318.04 1531.54 Q1324.18 1531.54 1327.34 1535.36 Q1330.49 1539.14 1330.49 1546.53 Z" fill="#000000" fill-rule="evenodd" fill-opacity="1" /><path clip-path="url(#clip950)" d="M1342.17 1532.4 L1348.02 1532.4 L1348.02 1568.04 L1342.17 1568.04 L1342.17 1532.4 M1342.17 1518.52 L1348.02 1518.52 L1348.02 1525.93 L1342.17 1525.93 L1342.17 1518.52 Z" fill="#000000" fill-rule="evenodd" fill-opacity="1" /><path clip-path="url(#clip950)" d="M1378.32 1518.52 L1378.32 1523.39 L1372.72 1523.39 Q1369.57 1523.39 1368.33 1524.66 Q1367.12 1525.93 1367.12 1529.24 L1367.12 1532.4 L1376.76 1532.4 L1376.76 1536.95 L1367.12 1536.95 L1367.12 1568.04 L1361.23 1568.04 L1361.23 1536.95 L1355.63 1536.95 L1355.63 1532.4 L1361.23 1532.4 L1361.23 1529.91 Q1361.23 1523.96 1364 1521.26 Q1366.77 1518.52 1372.79 1518.52 L1378.32 1518.52 Z" fill="#000000" fill-rule="evenodd" fill-opacity="1" /><path clip-path="url(#clip950)" d="M1387.87 1522.27 L1387.87 1532.4 L1399.94 1532.4 L1399.94 1536.95 L1387.87 1536.95 L1387.87 1556.3 Q1387.87 1560.66 1389.05 1561.9 Q1390.26 1563.14 1393.92 1563.14 L1399.94 1563.14 L1399.94 1568.04 L1393.92 1568.04 Q1387.14 1568.04 1384.56 1565.53 Q1381.98 1562.98 1381.98 1556.3 L1381.98 1536.95 L1377.69 1536.95 L1377.69 1532.4 L1381.98 1532.4 L1381.98 1522.27 L1387.87 1522.27 Z" fill="#000000" fill-rule="evenodd" fill-opacity="1" /><polyline clip-path="url(#clip952)" style="stroke:#000000; stroke-linecap:round; stroke-linejoin:round; stroke-width:2; stroke-opacity:0.1; fill:none" points="256.209,1155.94 2352.76,1155.94 "/>
<polyline clip-path="url(#clip952)" style="stroke:#000000; stroke-linecap:round; stroke-linejoin:round; stroke-width:2; stroke-opacity:0.1; fill:none" points="256.209,826.865 2352.76,826.865 "/>
<polyline clip-path="url(#clip952)" style="stroke:#000000; stroke-linecap:round; stroke-linejoin:round; stroke-width:2; stroke-opacity:0.1; fill:none" points="256.209,497.787 2352.76,497.787 "/>
<polyline clip-path="url(#clip952)" style="stroke:#000000; stroke-linecap:round; stroke-linejoin:round; stroke-width:2; stroke-opacity:0.1; fill:none" points="256.209,168.71 2352.76,168.71 "/>
<polyline clip-path="url(#clip950)" style="stroke:#000000; stroke-linecap:round; stroke-linejoin:round; stroke-width:4; stroke-opacity:1; fill:none" points="256.209,1423.18 256.209,47.2441 "/>
<polyline clip-path="url(#clip950)" style="stroke:#000000; stroke-linecap:round; stroke-linejoin:round; stroke-width:4; stroke-opacity:1; fill:none" points="256.209,1155.94 275.106,1155.94 "/>
<polyline clip-path="url(#clip950)" style="stroke:#000000; stroke-linecap:round; stroke-linejoin:round; stroke-width:4; stroke-opacity:1; fill:none" points="256.209,826.865 275.106,826.865 "/>
<polyline clip-path="url(#clip950)" style="stroke:#000000; stroke-linecap:round; stroke-linejoin:round; stroke-width:4; stroke-opacity:1; fill:none" points="256.209,497.787 275.106,497.787 "/>
<polyline clip-path="url(#clip950)" style="stroke:#000000; stroke-linecap:round; stroke-linejoin:round; stroke-width:4; stroke-opacity:1; fill:none" points="256.209,168.71 275.106,168.71 "/>
<path clip-path="url(#clip950)" d="M114.26 1156.39 L143.936 1156.39 L143.936 1160.33 L114.26 1160.33 L114.26 1156.39 Z" fill="#000000" fill-rule="evenodd" fill-opacity="1" /><path clip-path="url(#clip950)" d="M164.028 1141.74 Q160.417 1141.74 158.589 1145.31 Q156.783 1148.85 156.783 1155.98 Q156.783 1163.08 158.589 1166.65 Q160.417 1170.19 164.028 1170.19 Q167.663 1170.19 169.468 1166.65 Q171.297 1163.08 171.297 1155.98 Q171.297 1148.85 169.468 1145.31 Q167.663 1141.74 164.028 1141.74 M164.028 1138.04 Q169.839 1138.04 172.894 1142.64 Q175.973 1147.23 175.973 1155.98 Q175.973 1164.7 172.894 1169.31 Q169.839 1173.89 164.028 1173.89 Q158.218 1173.89 155.14 1169.31 Q152.084 1164.7 152.084 1155.98 Q152.084 1147.23 155.14 1142.64 Q158.218 1138.04 164.028 1138.04 Z" fill="#000000" fill-rule="evenodd" fill-opacity="1" /><path clip-path="url(#clip950)" d="M184.19 1167.34 L189.075 1167.34 L189.075 1173.22 L184.19 1173.22 L184.19 1167.34 Z" fill="#000000" fill-rule="evenodd" fill-opacity="1" /><path clip-path="url(#clip950)" d="M199.306 1138.66 L217.662 1138.66 L217.662 1142.6 L203.588 1142.6 L203.588 1151.07 Q204.607 1150.72 205.625 1150.56 Q206.644 1150.38 207.662 1150.38 Q213.449 1150.38 216.829 1153.55 Q220.209 1156.72 220.209 1162.13 Q220.209 1167.71 216.736 1170.82 Q213.264 1173.89 206.945 1173.89 Q204.769 1173.89 202.5 1173.52 Q200.255 1173.15 197.848 1172.41 L197.848 1167.71 Q199.931 1168.85 202.153 1169.4 Q204.375 1169.96 206.852 1169.96 Q210.857 1169.96 213.195 1167.85 Q215.533 1165.75 215.533 1162.13 Q215.533 1158.52 213.195 1156.42 Q210.857 1154.31 206.852 1154.31 Q204.977 1154.31 203.102 1154.73 Q201.25 1155.14 199.306 1156.02 L199.306 1138.66 Z" fill="#000000" fill-rule="evenodd" fill-opacity="1" /><path clip-path="url(#clip950)" d="M163.033 812.664 Q159.422 812.664 157.593 816.229 Q155.788 819.77 155.788 826.9 Q155.788 834.006 157.593 837.571 Q159.422 841.113 163.033 841.113 Q166.667 841.113 168.473 837.571 Q170.302 834.006 170.302 826.9 Q170.302 819.77 168.473 816.229 Q166.667 812.664 163.033 812.664 M163.033 808.96 Q168.843 808.96 171.899 813.567 Q174.977 818.15 174.977 826.9 Q174.977 835.627 171.899 840.233 Q168.843 844.816 163.033 844.816 Q157.223 844.816 154.144 840.233 Q151.089 835.627 151.089 826.9 Q151.089 818.15 154.144 813.567 Q157.223 808.96 163.033 808.96 Z" fill="#000000" fill-rule="evenodd" fill-opacity="1" /><path clip-path="url(#clip950)" d="M183.195 838.265 L188.079 838.265 L188.079 844.145 L183.195 844.145 L183.195 838.265 Z" fill="#000000" fill-rule="evenodd" fill-opacity="1" /><path clip-path="url(#clip950)" d="M208.264 812.664 Q204.653 812.664 202.824 816.229 Q201.019 819.77 201.019 826.9 Q201.019 834.006 202.824 837.571 Q204.653 841.113 208.264 841.113 Q211.899 841.113 213.704 837.571 Q215.533 834.006 215.533 826.9 Q215.533 819.77 213.704 816.229 Q211.899 812.664 208.264 812.664 M208.264 808.96 Q214.074 808.96 217.13 813.567 Q220.209 818.15 220.209 826.9 Q220.209 835.627 217.13 840.233 Q214.074 844.816 208.264 844.816 Q202.454 844.816 199.375 840.233 Q196.32 835.627 196.32 826.9 Q196.32 818.15 199.375 813.567 Q202.454 808.96 208.264 808.96 Z" fill="#000000" fill-rule="evenodd" fill-opacity="1" /><path clip-path="url(#clip950)" d="M164.028 483.586 Q160.417 483.586 158.589 487.151 Q156.783 490.692 156.783 497.822 Q156.783 504.928 158.589 508.493 Q160.417 512.035 164.028 512.035 Q167.663 512.035 169.468 508.493 Q171.297 504.928 171.297 497.822 Q171.297 490.692 169.468 487.151 Q167.663 483.586 164.028 483.586 M164.028 479.882 Q169.839 479.882 172.894 484.489 Q175.973 489.072 175.973 497.822 Q175.973 506.549 172.894 511.155 Q169.839 515.739 164.028 515.739 Q158.218 515.739 155.14 511.155 Q152.084 506.549 152.084 497.822 Q152.084 489.072 155.14 484.489 Q158.218 479.882 164.028 479.882 Z" fill="#000000" fill-rule="evenodd" fill-opacity="1" /><path clip-path="url(#clip950)" d="M184.19 509.188 L189.075 509.188 L189.075 515.067 L184.19 515.067 L184.19 509.188 Z" fill="#000000" fill-rule="evenodd" fill-opacity="1" /><path clip-path="url(#clip950)" d="M199.306 480.507 L217.662 480.507 L217.662 484.442 L203.588 484.442 L203.588 492.915 Q204.607 492.567 205.625 492.405 Q206.644 492.22 207.662 492.22 Q213.449 492.22 216.829 495.391 Q220.209 498.563 220.209 503.979 Q220.209 509.558 216.736 512.66 Q213.264 515.739 206.945 515.739 Q204.769 515.739 202.5 515.368 Q200.255 514.998 197.848 514.257 L197.848 509.558 Q199.931 510.692 202.153 511.248 Q204.375 511.803 206.852 511.803 Q210.857 511.803 213.195 509.697 Q215.533 507.59 215.533 503.979 Q215.533 500.368 213.195 498.262 Q210.857 496.155 206.852 496.155 Q204.977 496.155 203.102 496.572 Q201.25 496.989 199.306 497.868 L199.306 480.507 Z" fill="#000000" fill-rule="evenodd" fill-opacity="1" /><path clip-path="url(#clip950)" d="M153.843 182.054 L161.482 182.054 L161.482 155.689 L153.172 157.355 L153.172 153.096 L161.436 151.43 L166.112 151.43 L166.112 182.054 L173.751 182.054 L173.751 185.99 L153.843 185.99 L153.843 182.054 Z" fill="#000000" fill-rule="evenodd" fill-opacity="1" /><path clip-path="url(#clip950)" d="M183.195 180.11 L188.079 180.11 L188.079 185.99 L183.195 185.99 L183.195 180.11 Z" fill="#000000" fill-rule="evenodd" fill-opacity="1" /><path clip-path="url(#clip950)" d="M208.264 154.508 Q204.653 154.508 202.824 158.073 Q201.019 161.615 201.019 168.744 Q201.019 175.851 202.824 179.416 Q204.653 182.957 208.264 182.957 Q211.899 182.957 213.704 179.416 Q215.533 175.851 215.533 168.744 Q215.533 161.615 213.704 158.073 Q211.899 154.508 208.264 154.508 M208.264 150.805 Q214.074 150.805 217.13 155.411 Q220.209 159.994 220.209 168.744 Q220.209 177.471 217.13 182.078 Q214.074 186.661 208.264 186.661 Q202.454 186.661 199.375 182.078 Q196.32 177.471 196.32 168.744 Q196.32 159.994 199.375 155.411 Q202.454 150.805 208.264 150.805 Z" fill="#000000" fill-rule="evenodd" fill-opacity="1" /><path clip-path="url(#clip950)" d="M33.8307 1006.09 Q33.2578 1007.08 33.0032 1008.25 Q32.7167 1009.4 32.7167 1010.8 Q32.7167 1015.76 35.9632 1018.44 Q39.1779 1021.08 45.2253 1021.08 L64.0042 1021.08 L64.0042 1026.97 L28.3562 1026.97 L28.3562 1021.08 L33.8944 1021.08 Q30.6479 1019.23 29.0883 1016.27 Q27.4968 1013.31 27.4968 1009.08 Q27.4968 1008.48 27.5923 1007.74 Q27.656 1007.01 27.8151 1006.12 L33.8307 1006.09 Z" fill="#000000" fill-rule="evenodd" fill-opacity="1" /><path clip-path="url(#clip950)" d="M44.7161 970.886 L47.5806 970.886 L47.5806 997.813 Q53.6281 997.431 56.8109 994.185 Q59.9619 990.906 59.9619 985.082 Q59.9619 981.708 59.1344 978.557 Q58.3069 975.374 56.6518 972.255 L62.1899 972.255 Q63.5267 975.406 64.227 978.716 Q64.9272 982.026 64.9272 985.432 Q64.9272 993.962 59.9619 998.959 Q54.9967 1003.92 46.5303 1003.92 Q37.7774 1003.92 32.6531 999.214 Q27.4968 994.471 27.4968 986.45 Q27.4968 979.257 32.1438 975.088 Q36.7589 970.886 44.7161 970.886 M42.9973 976.743 Q38.1912 976.806 35.3266 979.448 Q32.4621 982.058 32.4621 986.387 Q32.4621 991.288 35.2312 994.248 Q38.0002 997.177 43.0292 997.622 L42.9973 976.743 Z" fill="#000000" fill-rule="evenodd" fill-opacity="1" /><path clip-path="url(#clip950)" d="M14.479 961.274 L14.479 955.418 L64.0042 955.418 L64.0042 961.274 L14.479 961.274 Z" fill="#000000" fill-rule="evenodd" fill-opacity="1" /><path clip-path="url(#clip950)" d="M46.0847 926.963 Q46.0847 934.061 47.7079 936.798 Q49.3312 939.535 53.2461 939.535 Q56.3653 939.535 58.2114 937.498 Q60.0256 935.429 60.0256 931.896 Q60.0256 927.027 56.5881 924.098 Q53.1188 921.138 47.3897 921.138 L46.0847 921.138 L46.0847 926.963 M43.6657 915.282 L64.0042 915.282 L64.0042 921.138 L58.5933 921.138 Q61.8398 923.144 63.3994 926.135 Q64.9272 929.127 64.9272 933.456 Q64.9272 938.93 61.8716 942.177 Q58.7843 945.392 53.6281 945.392 Q47.6125 945.392 44.5569 941.381 Q41.5014 937.339 41.5014 929.35 L41.5014 921.138 L40.9285 921.138 Q36.8862 921.138 34.6901 923.812 Q32.4621 926.454 32.4621 931.26 Q32.4621 934.315 33.1941 937.212 Q33.9262 940.108 35.3903 942.782 L29.9795 942.782 Q28.7381 939.567 28.1334 936.543 Q27.4968 933.52 27.4968 930.655 Q27.4968 922.921 31.5072 919.101 Q35.5176 915.282 43.6657 915.282 Z" fill="#000000" fill-rule="evenodd" fill-opacity="1" /><path clip-path="url(#clip950)" d="M18.2347 897.426 L28.3562 897.426 L28.3562 885.363 L32.9077 885.363 L32.9077 897.426 L52.2594 897.426 Q56.6199 897.426 57.8613 896.248 Q59.1026 895.039 59.1026 891.379 L59.1026 885.363 L64.0042 885.363 L64.0042 891.379 Q64.0042 898.158 61.4897 900.736 Q58.9434 903.314 52.2594 903.314 L32.9077 903.314 L32.9077 907.611 L28.3562 907.611 L28.3562 903.314 L18.2347 903.314 L18.2347 897.426 Z" fill="#000000" fill-rule="evenodd" fill-opacity="1" /><path clip-path="url(#clip950)" d="M28.3562 877.661 L28.3562 871.804 L64.0042 871.804 L64.0042 877.661 L28.3562 877.661 M14.479 877.661 L14.479 871.804 L21.895 871.804 L21.895 877.661 L14.479 877.661 Z" fill="#000000" fill-rule="evenodd" fill-opacity="1" /><path clip-path="url(#clip950)" d="M28.3562 863.751 L28.3562 857.545 L58.275 846.405 L28.3562 835.265 L28.3562 829.058 L64.0042 842.426 L64.0042 850.384 L28.3562 863.751 Z" fill="#000000" fill-rule="evenodd" fill-opacity="1" /><path clip-path="url(#clip950)" d="M44.7161 790.482 L47.5806 790.482 L47.5806 817.409 Q53.6281 817.027 56.8109 813.781 Q59.9619 810.502 59.9619 804.678 Q59.9619 801.304 59.1344 798.153 Q58.3069 794.97 56.6518 791.851 L62.1899 791.851 Q63.5267 795.002 64.227 798.312 Q64.9272 801.622 64.9272 805.028 Q64.9272 813.558 59.9619 818.555 Q54.9967 823.52 46.5303 823.52 Q37.7774 823.52 32.6531 818.81 Q27.4968 814.067 27.4968 806.046 Q27.4968 798.853 32.1438 794.684 Q36.7589 790.482 44.7161 790.482 M42.9973 796.339 Q38.1912 796.402 35.3266 799.044 Q32.4621 801.654 32.4621 805.983 Q32.4621 810.884 35.2312 813.844 Q38.0002 816.773 43.0292 817.218 L42.9973 796.339 Z" fill="#000000" fill-rule="evenodd" fill-opacity="1" /><path clip-path="url(#clip950)" d="M14.479 760.15 L14.479 754.293 L64.0042 754.293 L64.0042 760.15 L14.479 760.15 Z" fill="#000000" fill-rule="evenodd" fill-opacity="1" /><path clip-path="url(#clip950)" d="M46.0847 725.838 Q46.0847 732.936 47.7079 735.673 Q49.3312 738.411 53.2461 738.411 Q56.3653 738.411 58.2114 736.374 Q60.0256 734.305 60.0256 730.772 Q60.0256 725.902 56.5881 722.974 Q53.1188 720.014 47.3897 720.014 L46.0847 720.014 L46.0847 725.838 M43.6657 714.157 L64.0042 714.157 L64.0042 720.014 L58.5933 720.014 Q61.8398 722.019 63.3994 725.011 Q64.9272 728.003 64.9272 732.331 Q64.9272 737.806 61.8716 741.053 Q58.7843 744.267 53.6281 744.267 Q47.6125 744.267 44.5569 740.257 Q41.5014 736.215 41.5014 728.226 L41.5014 720.014 L40.9285 720.014 Q36.8862 720.014 34.6901 722.687 Q32.4621 725.329 32.4621 730.135 Q32.4621 733.191 33.1941 736.087 Q33.9262 738.984 35.3903 741.657 L29.9795 741.657 Q28.7381 738.443 28.1334 735.419 Q27.4968 732.395 27.4968 729.531 Q27.4968 721.796 31.5072 717.977 Q35.5176 714.157 43.6657 714.157 Z" fill="#000000" fill-rule="evenodd" fill-opacity="1" /><path clip-path="url(#clip950)" d="M35.1993 674.34 Q31.2526 672.144 29.3747 669.088 Q27.4968 666.033 27.4968 661.895 Q27.4968 656.325 31.4117 653.301 Q35.2948 650.278 42.4881 650.278 L64.0042 650.278 L64.0042 656.166 L42.679 656.166 Q37.5546 656.166 35.072 657.98 Q32.5894 659.794 32.5894 663.518 Q32.5894 668.07 35.6131 670.711 Q38.6368 673.353 43.8567 673.353 L64.0042 673.353 L64.0042 679.241 L42.679 679.241 Q37.5228 679.241 35.072 681.056 Q32.5894 682.87 32.5894 686.658 Q32.5894 691.145 35.6449 693.787 Q38.6686 696.429 43.8567 696.429 L64.0042 696.429 L64.0042 702.317 L28.3562 702.317 L28.3562 696.429 L33.8944 696.429 Q30.616 694.424 29.0564 691.623 Q27.4968 688.822 27.4968 684.971 Q27.4968 681.088 29.4702 678.382 Q31.4436 675.645 35.1993 674.34 Z" fill="#000000" fill-rule="evenodd" fill-opacity="1" /><path clip-path="url(#clip950)" d="M46.212 613.006 Q39.7508 613.006 36.0905 615.68 Q32.3984 618.322 32.3984 622.969 Q32.3984 627.616 36.0905 630.289 Q39.7508 632.931 46.212 632.931 Q52.6732 632.931 56.3653 630.289 Q60.0256 627.616 60.0256 622.969 Q60.0256 618.322 56.3653 615.68 Q52.6732 613.006 46.212 613.006 M33.7671 632.931 Q30.5842 631.085 29.0564 628.284 Q27.4968 625.451 27.4968 621.536 Q27.4968 615.043 32.6531 611.001 Q37.8093 606.927 46.212 606.927 Q54.6147 606.927 59.771 611.001 Q64.9272 615.043 64.9272 621.536 Q64.9272 625.451 63.3994 628.284 Q61.8398 631.085 58.657 632.931 L64.0042 632.931 L64.0042 638.819 L14.479 638.819 L14.479 632.931 L33.7671 632.931 Z" fill="#000000" fill-rule="evenodd" fill-opacity="1" /><path clip-path="url(#clip950)" d="M29.4065 553.773 L34.9447 553.773 Q33.6716 556.256 33.035 558.93 Q32.3984 561.603 32.3984 564.468 Q32.3984 568.828 33.7352 571.024 Q35.072 573.189 37.7456 573.189 Q39.7826 573.189 40.9603 571.629 Q42.1061 570.07 43.1565 565.359 L43.6021 563.354 Q44.9389 557.115 47.3897 554.505 Q49.8086 551.864 54.1691 551.864 Q59.1344 551.864 62.0308 555.81 Q64.9272 559.725 64.9272 566.6 Q64.9272 569.465 64.3543 572.584 Q63.8132 575.671 62.6992 579.109 L56.6518 579.109 Q58.3387 575.862 59.198 572.711 Q60.0256 569.56 60.0256 566.473 Q60.0256 562.335 58.6251 560.107 Q57.1929 557.879 54.6147 557.879 Q52.2276 557.879 50.9545 559.503 Q49.6813 561.094 48.5037 566.537 L48.0262 568.574 Q46.8804 574.016 44.5251 576.435 Q42.138 578.854 38.0002 578.854 Q32.9713 578.854 30.2341 575.29 Q27.4968 571.725 27.4968 565.168 Q27.4968 561.922 27.9743 559.057 Q28.4517 556.192 29.4065 553.773 Z" fill="#000000" fill-rule="evenodd" fill-opacity="1" /><path clip-path="url(#clip950)" d="M42.4881 512.906 L64.0042 512.906 L64.0042 518.762 L42.679 518.762 Q37.6183 518.762 35.1038 520.735 Q32.5894 522.709 32.5894 526.656 Q32.5894 531.398 35.6131 534.135 Q38.6368 536.872 43.8567 536.872 L64.0042 536.872 L64.0042 542.761 L14.479 542.761 L14.479 536.872 L33.8944 536.872 Q30.6797 534.772 29.0883 531.939 Q27.4968 529.074 27.4968 525.351 Q27.4968 519.208 31.3163 516.057 Q35.1038 512.906 42.4881 512.906 Z" fill="#000000" fill-rule="evenodd" fill-opacity="1" /><path clip-path="url(#clip950)" d="M28.3562 501.225 L28.3562 495.368 L64.0042 495.368 L64.0042 501.225 L28.3562 501.225 M14.479 501.225 L14.479 495.368 L21.895 495.368 L21.895 501.225 L14.479 501.225 Z" fill="#000000" fill-rule="evenodd" fill-opacity="1" /><path clip-path="url(#clip950)" d="M14.479 465.067 L19.3487 465.067 L19.3487 470.669 Q19.3487 473.82 20.6219 475.061 Q21.895 476.271 25.2052 476.271 L28.3562 476.271 L28.3562 466.627 L32.9077 466.627 L32.9077 476.271 L64.0042 476.271 L64.0042 482.159 L32.9077 482.159 L32.9077 487.761 L28.3562 487.761 L28.3562 482.159 L25.8736 482.159 Q19.9216 482.159 17.2162 479.39 Q14.479 476.621 14.479 470.605 L14.479 465.067 Z" fill="#000000" fill-rule="evenodd" fill-opacity="1" /><path clip-path="url(#clip950)" d="M18.2347 455.519 L28.3562 455.519 L28.3562 443.456 L32.9077 443.456 L32.9077 455.519 L52.2594 455.519 Q56.6199 455.519 57.8613 454.341 Q59.1026 453.132 59.1026 449.471 L59.1026 443.456 L64.0042 443.456 L64.0042 449.471 Q64.0042 456.251 61.4897 458.829 Q58.9434 461.407 52.2594 461.407 L32.9077 461.407 L32.9077 465.704 L28.3562 465.704 L28.3562 461.407 L18.2347 461.407 L18.2347 455.519 Z" fill="#000000" fill-rule="evenodd" fill-opacity="1" /><polyline clip-path="url(#clip952)" style="stroke:#009af9; stroke-linecap:round; stroke-linejoin:round; stroke-width:4; stroke-opacity:1; fill:none" points="315.545,1262.17 328.422,1261.24 447.489,1253.33 519.043,1249.4 579.541,1246.68 645.259,1244.45 705.845,1243.14 722.084,1242.92 738.323,1242.75 746.442,1242.7 754.561,1242.65 758.621,1242.64 762.681,1242.62 764.711,1242.62 766.741,1242.61 768.77,1242.61 770.8,1242.61 771.388,1242.61 771.976,1242.61 772.564,1242.61 773.152,1242.61 773.74,1242.61 774.328,411.122 774.916,411.122 775.504,411.122 776.68,411.122 777.855,411.121 779.031,411.119 780.207,411.118 784.911,411.108 789.614,411.094 799.021,411.049 808.428,410.982 827.243,410.785 846.057,410.5 879.496,409.774 912.936,408.759 942.259,407.627 971.583,406.265 1035.52,402.481 1099.84,397.532 1170.96,390.713 1238.62,382.916 1308.98,373.477 1368.2,364.504 1440.51,352.317 1506.74,340.012 1567.92,327.725 1629.89,314.419 1699.34,298.537 1762.27,283.312 1834.32,264.971 1901.03,247.181 1966.81,228.937 2030.67,210.598 2096.13,191.203 2167.85,169.313 2272.04,136.422 2293.42,129.526 "/>
<polyline clip-path="url(#clip952)" style="stroke:#009af9; stroke-linecap:round; stroke-linejoin:round; stroke-width:4; stroke-opacity:1; fill:none" stroke-dasharray="16, 10" points="774.064,2799.12 774.064,-1328.69 "/>
<polyline clip-path="url(#clip952)" style="stroke:#e26f46; stroke-linecap:round; stroke-linejoin:round; stroke-width:4; stroke-opacity:1; fill:none" points="315.545,1239.34 328.422,1236.11 447.489,1206.83 519.043,1190.18 579.541,1176.98 645.259,1163.86 705.845,1153.18 770.8,1143.54 846.057,1135.14 879.496,1132.48 912.936,1130.53 927.597,1129.91 942.259,1129.43 949.59,1129.24 956.921,1129.1 964.252,1128.98 971.583,1128.91 973.581,1128.9 975.579,1128.89 977.577,1128.88 979.575,1128.87 980.075,1128.87 980.574,1128.87 981.074,1128.87 981.573,1128.87 982.073,1128.87 982.573,524.86 983.072,524.86 983.572,524.859 984.571,524.858 985.57,524.856 986.569,524.854 987.568,524.85 991.564,524.83 995.561,524.798 999.557,524.755 1003.55,524.701 1019.54,524.371 1035.52,523.86 1067.68,522.278 1099.84,519.959 1135.4,516.544 1170.96,512.251 1204.79,507.373 1238.62,501.744 1308.98,487.771 1368.2,473.811 1440.51,454.335 1506.74,434.421 1567.92,414.486 1629.89,392.97 1699.34,367.476 1762.27,343.274 1834.32,314.453 1901.03,286.847 1966.81,258.874 2030.67,231.083 2096.13,202.024 2167.85,169.598 2272.04,121.545 2293.42,111.562 "/>
<polyline clip-path="url(#clip952)" style="stroke:#e26f46; stroke-linecap:round; stroke-linejoin:round; stroke-width:4; stroke-opacity:1; fill:none" stroke-dasharray="16, 10" points="982.376,2799.12 982.376,-1328.69 "/>
<polyline clip-path="url(#clip952)" style="stroke:#3da44d; stroke-linecap:round; stroke-linejoin:round; stroke-width:4; stroke-opacity:1; fill:none" points="315.545,1273.37 328.422,1268.01 447.489,1217.77 519.043,1187.48 579.541,1162.19 645.259,1135.38 705.845,1111.68 770.8,1087.89 846.057,1063.36 879.496,1053.85 912.936,1045.39 942.259,1038.97 971.583,1033.57 1003.55,1028.98 1035.52,1025.84 1043.56,1025.29 1051.6,1024.84 1059.64,1024.48 1067.68,1024.23 1071.7,1024.14 1075.72,1024.08 1077.73,1024.06 1079.74,1024.04 1080.75,1024.04 1081.75,1024.04 1082.26,1024.03 1082.76,1024.03 1083.26,1024.03 1083.76,629.697 1084.27,629.697 1084.77,629.696 1085.27,629.695 1085.77,629.693 1086.78,629.689 1087.78,629.683 1089.79,629.667 1091.8,629.644 1095.82,629.579 1099.84,629.489 1117.62,628.784 1135.4,627.583 1153.18,625.892 1170.96,623.721 1204.79,618.313 1238.62,611.33 1273.8,602.542 1308.98,592.357 1338.59,582.82 1368.2,572.501 1440.51,544.526 1506.74,516.132 1567.92,488.111 1629.89,458.349 1699.34,423.695 1762.27,391.348 1834.32,353.427 1901.03,317.63 1966.81,281.806 2030.67,246.597 2096.13,210.132 2167.85,169.81 2272.04,110.653 2293.42,98.4415 "/>
<polyline clip-path="url(#clip952)" style="stroke:#3da44d; stroke-linecap:round; stroke-linejoin:round; stroke-width:4; stroke-opacity:1; fill:none" stroke-dasharray="16, 10" points="1083.62,2799.12 1083.62,-1328.69 "/>
<polyline clip-path="url(#clip952)" style="stroke:#c271d2; stroke-linecap:round; stroke-linejoin:round; stroke-width:4; stroke-opacity:1; fill:none" points="315.545,1331.14 328.422,1324.4 447.489,1260.84 519.043,1221.89 579.541,1188.75 645.259,1152.75 705.845,1119.78 770.8,1084.96 846.057,1045.95 879.496,1029.37 912.936,1013.45 942.259,1000.2 971.583,987.822 1003.55,975.579 1035.52,965.006 1067.68,956.491 1099.84,950.566 1108.73,949.442 1117.62,948.555 1126.51,947.91 1135.4,947.511 1137.62,947.45 1139.85,947.405 1140.96,947.388 1142.07,947.375 1142.62,947.37 1143.18,947.366 1143.74,947.363 1144.29,947.361 1144.85,947.36 1145.4,706.37 1145.96,706.369 1146.51,706.367 1147.62,706.36 1148.74,706.35 1150.96,706.317 1153.18,706.268 1157.63,706.123 1162.07,705.916 1166.51,705.647 1170.96,705.316 1187.88,703.501 1204.79,700.834 1221.71,697.366 1238.62,693.157 1273.8,682.317 1308.98,669.142 1338.59,656.626 1368.2,643.081 1440.51,606.859 1506.74,571.021 1567.92,536.465 1629.89,500.474 1699.34,459.291 1762.27,421.396 1834.32,377.502 1901.03,336.479 1966.81,295.748 2030.67,255.977 2096.13,215.012 2167.85,169.936 2272.04,104.154 2293.42,90.6191 "/>
<polyline clip-path="url(#clip952)" style="stroke:#c271d2; stroke-linecap:round; stroke-linejoin:round; stroke-width:4; stroke-opacity:1; fill:none" stroke-dasharray="16, 10" points="1145.17,2799.12 1145.17,-1328.69 "/>
<polyline clip-path="url(#clip952)" style="stroke:#ac8d18; stroke-linecap:round; stroke-linejoin:round; stroke-width:4; stroke-opacity:1; fill:none" points="315.545,1384.24 328.422,1376.63 447.489,1305.01 519.043,1261.18 579.541,1223.82 645.259,1183.04 705.845,1145.36 770.8,1105 846.057,1058.52 912.936,1017.84 971.583,983.164 1003.55,964.97 1035.52,947.591 1067.68,931.364 1099.84,917.098 1117.62,910.435 1135.4,904.939 1144.29,902.712 1153.18,900.876 1162.07,899.461 1170.96,898.493 1175.19,898.195 1179.42,898.004 1180.47,897.973 1181.53,897.949 1182.59,897.932 1183.65,897.921 1184.18,897.918 1184.7,897.917 1185.23,755.813 1185.76,755.81 1186.29,755.806 1186.82,755.801 1187.35,755.793 1187.88,755.784 1189.99,755.731 1192.1,755.652 1194.22,755.545 1196.33,755.411 1200.56,755.064 1204.79,754.612 1221.71,751.797 1238.62,747.511 1256.21,741.731 1273.8,734.852 1291.39,727.097 1308.98,718.652 1338.59,703.271 1368.2,686.842 1440.51,644.081 1506.74,603.052 1567.92,564.293 1629.89,524.497 1699.34,479.463 1762.27,438.371 1834.32,391.076 1901.03,347.102 1966.81,303.608 2030.67,261.268 2096.13,217.767 2167.85,170.008 2272.04,100.472 2293.42,86.1857 "/>
<polyline clip-path="url(#clip952)" style="stroke:#ac8d18; stroke-linecap:round; stroke-linejoin:round; stroke-width:4; stroke-opacity:1; fill:none" stroke-dasharray="16, 10" points="1184.86,2799.12 1184.86,-1328.69 "/>
<path clip-path="url(#clip950)" d="M1902.48 1377.32 L2282.87 1377.32 L2282.87 1066.28 L1902.48 1066.28  Z" fill="#ffffff" fill-rule="evenodd" fill-opacity="1"/>
<polyline clip-path="url(#clip950)" style="stroke:#000000; stroke-linecap:round; stroke-linejoin:round; stroke-width:4; stroke-opacity:1; fill:none" points="1902.48,1377.32 2282.87,1377.32 2282.87,1066.28 1902.48,1066.28 1902.48,1377.32 "/>
<polyline clip-path="url(#clip950)" style="stroke:#009af9; stroke-linecap:round; stroke-linejoin:round; stroke-width:4; stroke-opacity:1; fill:none" points="1925.77,1118.12 2065.54,1118.12 "/>
<path clip-path="url(#clip950)" d="M2105.8 1123.34 L2104.79 1117.99 Q2103.74 1112.5 2099.62 1112.5 Q2096.52 1112.5 2095.11 1115.05 Q2093.33 1118.24 2093.33 1122.46 Q2093.33 1127.55 2095.06 1129.98 Q2096.82 1132.46 2099.62 1132.46 Q2102.73 1132.46 2104.39 1127.52 L2105.8 1123.34 M2108.19 1116.25 L2110.48 1109.47 L2114.28 1109.47 L2109.53 1123.52 L2110.46 1128.59 Q2110.66 1129.72 2111.47 1130.67 Q2112.42 1131.78 2113.16 1131.78 L2115.2 1131.78 L2115.2 1135.4 L2112.66 1135.4 Q2110.48 1135.4 2108.54 1133.45 Q2107.59 1132.48 2107.19 1130.44 Q2106.13 1133.01 2103.95 1135.02 Q2102.93 1135.97 2099.62 1135.97 Q2094.18 1135.97 2091.54 1132.46 Q2088.84 1128.82 2088.84 1122.46 Q2088.84 1115.65 2091.78 1112.46 Q2095.04 1108.89 2099.62 1108.89 Q2106.82 1108.89 2108.19 1116.25 Z" fill="#000000" fill-rule="evenodd" fill-opacity="1" /><path clip-path="url(#clip950)" d="M2137.56 1113.87 L2167.24 1113.87 L2167.24 1117.76 L2137.56 1117.76 L2137.56 1113.87 M2137.56 1123.31 L2167.24 1123.31 L2167.24 1127.25 L2137.56 1127.25 L2137.56 1123.31 Z" fill="#000000" fill-rule="evenodd" fill-opacity="1" /><path clip-path="url(#clip950)" d="M2202.4 1103.91 Q2198.79 1103.91 2196.96 1107.48 Q2195.16 1111.02 2195.16 1118.15 Q2195.16 1125.26 2196.96 1128.82 Q2198.79 1132.36 2202.4 1132.36 Q2206.03 1132.36 2207.84 1128.82 Q2209.67 1125.26 2209.67 1118.15 Q2209.67 1111.02 2207.84 1107.48 Q2206.03 1103.91 2202.4 1103.91 M2202.4 1100.21 Q2208.21 1100.21 2211.27 1104.82 Q2214.34 1109.4 2214.34 1118.15 Q2214.34 1126.88 2211.27 1131.48 Q2208.21 1136.07 2202.4 1136.07 Q2196.59 1136.07 2193.51 1131.48 Q2190.46 1126.88 2190.46 1118.15 Q2190.46 1109.4 2193.51 1104.82 Q2196.59 1100.21 2202.4 1100.21 Z" fill="#000000" fill-rule="evenodd" fill-opacity="1" /><path clip-path="url(#clip950)" d="M2222.56 1129.52 L2227.45 1129.52 L2227.45 1135.4 L2222.56 1135.4 L2222.56 1129.52 Z" fill="#000000" fill-rule="evenodd" fill-opacity="1" /><path clip-path="url(#clip950)" d="M2247.63 1103.91 Q2244.02 1103.91 2242.19 1107.48 Q2240.39 1111.02 2240.39 1118.15 Q2240.39 1125.26 2242.19 1128.82 Q2244.02 1132.36 2247.63 1132.36 Q2251.27 1132.36 2253.07 1128.82 Q2254.9 1125.26 2254.9 1118.15 Q2254.9 1111.02 2253.07 1107.48 Q2251.27 1103.91 2247.63 1103.91 M2247.63 1100.21 Q2253.44 1100.21 2256.5 1104.82 Q2259.58 1109.4 2259.58 1118.15 Q2259.58 1126.88 2256.5 1131.48 Q2253.44 1136.07 2247.63 1136.07 Q2241.82 1136.07 2238.74 1131.48 Q2235.69 1126.88 2235.69 1118.15 Q2235.69 1109.4 2238.74 1104.82 Q2241.82 1100.21 2247.63 1100.21 Z" fill="#000000" fill-rule="evenodd" fill-opacity="1" /><polyline clip-path="url(#clip950)" style="stroke:#e26f46; stroke-linecap:round; stroke-linejoin:round; stroke-width:4; stroke-opacity:1; fill:none" points="1925.77,1169.96 2065.54,1169.96 "/>
<path clip-path="url(#clip950)" d="M2105.8 1175.18 L2104.79 1169.83 Q2103.74 1164.34 2099.62 1164.34 Q2096.52 1164.34 2095.11 1166.89 Q2093.33 1170.08 2093.33 1174.3 Q2093.33 1179.39 2095.06 1181.82 Q2096.82 1184.3 2099.62 1184.3 Q2102.73 1184.3 2104.39 1179.36 L2105.8 1175.18 M2108.19 1168.09 L2110.48 1161.31 L2114.28 1161.31 L2109.53 1175.36 L2110.46 1180.43 Q2110.66 1181.56 2111.47 1182.51 Q2112.42 1183.62 2113.16 1183.62 L2115.2 1183.62 L2115.2 1187.24 L2112.66 1187.24 Q2110.48 1187.24 2108.54 1185.29 Q2107.59 1184.32 2107.19 1182.28 Q2106.13 1184.85 2103.95 1186.86 Q2102.93 1187.81 2099.62 1187.81 Q2094.18 1187.81 2091.54 1184.3 Q2088.84 1180.66 2088.84 1174.3 Q2088.84 1167.49 2091.78 1164.3 Q2095.04 1160.73 2099.62 1160.73 Q2106.82 1160.73 2108.19 1168.09 Z" fill="#000000" fill-rule="evenodd" fill-opacity="1" /><path clip-path="url(#clip950)" d="M2137.56 1165.71 L2167.24 1165.71 L2167.24 1169.6 L2137.56 1169.6 L2137.56 1165.71 M2137.56 1175.15 L2167.24 1175.15 L2167.24 1179.09 L2137.56 1179.09 L2137.56 1175.15 Z" fill="#000000" fill-rule="evenodd" fill-opacity="1" /><path clip-path="url(#clip950)" d="M2202.4 1155.75 Q2198.79 1155.75 2196.96 1159.32 Q2195.16 1162.86 2195.16 1169.99 Q2195.16 1177.1 2196.96 1180.66 Q2198.79 1184.2 2202.4 1184.2 Q2206.03 1184.2 2207.84 1180.66 Q2209.67 1177.1 2209.67 1169.99 Q2209.67 1162.86 2207.84 1159.32 Q2206.03 1155.75 2202.4 1155.75 M2202.4 1152.05 Q2208.21 1152.05 2211.27 1156.66 Q2214.34 1161.24 2214.34 1169.99 Q2214.34 1178.72 2211.27 1183.32 Q2208.21 1187.91 2202.4 1187.91 Q2196.59 1187.91 2193.51 1183.32 Q2190.46 1178.72 2190.46 1169.99 Q2190.46 1161.24 2193.51 1156.66 Q2196.59 1152.05 2202.4 1152.05 Z" fill="#000000" fill-rule="evenodd" fill-opacity="1" /><path clip-path="url(#clip950)" d="M2222.56 1181.36 L2227.45 1181.36 L2227.45 1187.24 L2222.56 1187.24 L2222.56 1181.36 Z" fill="#000000" fill-rule="evenodd" fill-opacity="1" /><path clip-path="url(#clip950)" d="M2237.68 1152.68 L2256.03 1152.68 L2256.03 1156.61 L2241.96 1156.61 L2241.96 1165.08 Q2242.98 1164.74 2244 1164.57 Q2245.02 1164.39 2246.03 1164.39 Q2251.82 1164.39 2255.2 1167.56 Q2258.58 1170.73 2258.58 1176.15 Q2258.58 1181.73 2255.11 1184.83 Q2251.64 1187.91 2245.32 1187.91 Q2243.14 1187.91 2240.87 1187.54 Q2238.63 1187.17 2236.22 1186.43 L2236.22 1181.73 Q2238.3 1182.86 2240.53 1183.42 Q2242.75 1183.97 2245.22 1183.97 Q2249.23 1183.97 2251.57 1181.86 Q2253.9 1179.76 2253.9 1176.15 Q2253.9 1172.54 2251.57 1170.43 Q2249.23 1168.32 2245.22 1168.32 Q2243.35 1168.32 2241.47 1168.74 Q2239.62 1169.16 2237.68 1170.04 L2237.68 1152.68 Z" fill="#000000" fill-rule="evenodd" fill-opacity="1" /><polyline clip-path="url(#clip950)" style="stroke:#3da44d; stroke-linecap:round; stroke-linejoin:round; stroke-width:4; stroke-opacity:1; fill:none" points="1925.77,1221.8 2065.54,1221.8 "/>
<path clip-path="url(#clip950)" d="M2105.8 1227.02 L2104.79 1221.67 Q2103.74 1216.18 2099.62 1216.18 Q2096.52 1216.18 2095.11 1218.73 Q2093.33 1221.92 2093.33 1226.14 Q2093.33 1231.23 2095.06 1233.66 Q2096.82 1236.14 2099.62 1236.14 Q2102.73 1236.14 2104.39 1231.2 L2105.8 1227.02 M2108.19 1219.93 L2110.48 1213.15 L2114.28 1213.15 L2109.53 1227.2 L2110.46 1232.27 Q2110.66 1233.4 2111.47 1234.35 Q2112.42 1235.46 2113.16 1235.46 L2115.2 1235.46 L2115.2 1239.08 L2112.66 1239.08 Q2110.48 1239.08 2108.54 1237.13 Q2107.59 1236.16 2107.19 1234.12 Q2106.13 1236.69 2103.95 1238.7 Q2102.93 1239.65 2099.62 1239.65 Q2094.18 1239.65 2091.54 1236.14 Q2088.84 1232.5 2088.84 1226.14 Q2088.84 1219.33 2091.78 1216.14 Q2095.04 1212.57 2099.62 1212.57 Q2106.82 1212.57 2108.19 1219.93 Z" fill="#000000" fill-rule="evenodd" fill-opacity="1" /><path clip-path="url(#clip950)" d="M2137.56 1217.55 L2167.24 1217.55 L2167.24 1221.44 L2137.56 1221.44 L2137.56 1217.55 M2137.56 1226.99 L2167.24 1226.99 L2167.24 1230.93 L2137.56 1230.93 L2137.56 1226.99 Z" fill="#000000" fill-rule="evenodd" fill-opacity="1" /><path clip-path="url(#clip950)" d="M2193.21 1235.14 L2200.85 1235.14 L2200.85 1208.77 L2192.54 1210.44 L2192.54 1206.18 L2200.8 1204.52 L2205.48 1204.52 L2205.48 1235.14 L2213.12 1235.14 L2213.12 1239.08 L2193.21 1239.08 L2193.21 1235.14 Z" fill="#000000" fill-rule="evenodd" fill-opacity="1" /><path clip-path="url(#clip950)" d="M2222.56 1233.2 L2227.45 1233.2 L2227.45 1239.08 L2222.56 1239.08 L2222.56 1233.2 Z" fill="#000000" fill-rule="evenodd" fill-opacity="1" /><path clip-path="url(#clip950)" d="M2247.63 1207.59 Q2244.02 1207.59 2242.19 1211.16 Q2240.39 1214.7 2240.39 1221.83 Q2240.39 1228.94 2242.19 1232.5 Q2244.02 1236.04 2247.63 1236.04 Q2251.27 1236.04 2253.07 1232.5 Q2254.9 1228.94 2254.9 1221.83 Q2254.9 1214.7 2253.07 1211.16 Q2251.27 1207.59 2247.63 1207.59 M2247.63 1203.89 Q2253.44 1203.89 2256.5 1208.5 Q2259.58 1213.08 2259.58 1221.83 Q2259.58 1230.56 2256.5 1235.16 Q2253.44 1239.75 2247.63 1239.75 Q2241.82 1239.75 2238.74 1235.16 Q2235.69 1230.56 2235.69 1221.83 Q2235.69 1213.08 2238.74 1208.5 Q2241.82 1203.89 2247.63 1203.89 Z" fill="#000000" fill-rule="evenodd" fill-opacity="1" /><polyline clip-path="url(#clip950)" style="stroke:#c271d2; stroke-linecap:round; stroke-linejoin:round; stroke-width:4; stroke-opacity:1; fill:none" points="1925.77,1273.64 2065.54,1273.64 "/>
<path clip-path="url(#clip950)" d="M2105.8 1278.86 L2104.79 1273.51 Q2103.74 1268.02 2099.62 1268.02 Q2096.52 1268.02 2095.11 1270.57 Q2093.33 1273.76 2093.33 1277.98 Q2093.33 1283.07 2095.06 1285.5 Q2096.82 1287.98 2099.62 1287.98 Q2102.73 1287.98 2104.39 1283.04 L2105.8 1278.86 M2108.19 1271.77 L2110.48 1264.99 L2114.28 1264.99 L2109.53 1279.04 L2110.46 1284.11 Q2110.66 1285.24 2111.47 1286.19 Q2112.42 1287.3 2113.16 1287.3 L2115.2 1287.3 L2115.2 1290.92 L2112.66 1290.92 Q2110.48 1290.92 2108.54 1288.97 Q2107.59 1288 2107.19 1285.96 Q2106.13 1288.53 2103.95 1290.54 Q2102.93 1291.49 2099.62 1291.49 Q2094.18 1291.49 2091.54 1287.98 Q2088.84 1284.34 2088.84 1277.98 Q2088.84 1271.17 2091.78 1267.98 Q2095.04 1264.41 2099.62 1264.41 Q2106.82 1264.41 2108.19 1271.77 Z" fill="#000000" fill-rule="evenodd" fill-opacity="1" /><path clip-path="url(#clip950)" d="M2137.56 1269.39 L2167.24 1269.39 L2167.24 1273.28 L2137.56 1273.28 L2137.56 1269.39 M2137.56 1278.83 L2167.24 1278.83 L2167.24 1282.77 L2137.56 1282.77 L2137.56 1278.83 Z" fill="#000000" fill-rule="evenodd" fill-opacity="1" /><path clip-path="url(#clip950)" d="M2193.21 1286.98 L2200.85 1286.98 L2200.85 1260.61 L2192.54 1262.28 L2192.54 1258.02 L2200.8 1256.36 L2205.48 1256.36 L2205.48 1286.98 L2213.12 1286.98 L2213.12 1290.92 L2193.21 1290.92 L2193.21 1286.98 Z" fill="#000000" fill-rule="evenodd" fill-opacity="1" /><path clip-path="url(#clip950)" d="M2222.56 1285.04 L2227.45 1285.04 L2227.45 1290.92 L2222.56 1290.92 L2222.56 1285.04 Z" fill="#000000" fill-rule="evenodd" fill-opacity="1" /><path clip-path="url(#clip950)" d="M2237.68 1256.36 L2256.03 1256.36 L2256.03 1260.29 L2241.96 1260.29 L2241.96 1268.76 Q2242.98 1268.42 2244 1268.25 Q2245.02 1268.07 2246.03 1268.07 Q2251.82 1268.07 2255.2 1271.24 Q2258.58 1274.41 2258.58 1279.83 Q2258.58 1285.41 2255.11 1288.51 Q2251.64 1291.59 2245.32 1291.59 Q2243.14 1291.59 2240.87 1291.22 Q2238.63 1290.85 2236.22 1290.11 L2236.22 1285.41 Q2238.3 1286.54 2240.53 1287.1 Q2242.75 1287.65 2245.22 1287.65 Q2249.23 1287.65 2251.57 1285.54 Q2253.9 1283.44 2253.9 1279.83 Q2253.9 1276.22 2251.57 1274.11 Q2249.23 1272 2245.22 1272 Q2243.35 1272 2241.47 1272.42 Q2239.62 1272.84 2237.68 1273.72 L2237.68 1256.36 Z" fill="#000000" fill-rule="evenodd" fill-opacity="1" /><polyline clip-path="url(#clip950)" style="stroke:#ac8d18; stroke-linecap:round; stroke-linejoin:round; stroke-width:4; stroke-opacity:1; fill:none" points="1925.77,1325.48 2065.54,1325.48 "/>
<path clip-path="url(#clip950)" d="M2105.8 1330.7 L2104.79 1325.35 Q2103.74 1319.86 2099.62 1319.86 Q2096.52 1319.86 2095.11 1322.41 Q2093.33 1325.6 2093.33 1329.82 Q2093.33 1334.91 2095.06 1337.34 Q2096.82 1339.82 2099.62 1339.82 Q2102.73 1339.82 2104.39 1334.88 L2105.8 1330.7 M2108.19 1323.61 L2110.48 1316.83 L2114.28 1316.83 L2109.53 1330.88 L2110.46 1335.95 Q2110.66 1337.08 2111.47 1338.03 Q2112.42 1339.14 2113.16 1339.14 L2115.2 1339.14 L2115.2 1342.76 L2112.66 1342.76 Q2110.48 1342.76 2108.54 1340.81 Q2107.59 1339.84 2107.19 1337.8 Q2106.13 1340.37 2103.95 1342.38 Q2102.93 1343.33 2099.62 1343.33 Q2094.18 1343.33 2091.54 1339.82 Q2088.84 1336.18 2088.84 1329.82 Q2088.84 1323.01 2091.78 1319.82 Q2095.04 1316.25 2099.62 1316.25 Q2106.82 1316.25 2108.19 1323.61 Z" fill="#000000" fill-rule="evenodd" fill-opacity="1" /><path clip-path="url(#clip950)" d="M2137.56 1321.23 L2167.24 1321.23 L2167.24 1325.12 L2137.56 1325.12 L2137.56 1321.23 M2137.56 1330.67 L2167.24 1330.67 L2167.24 1334.61 L2137.56 1334.61 L2137.56 1330.67 Z" fill="#000000" fill-rule="evenodd" fill-opacity="1" /><path clip-path="url(#clip950)" d="M2196.43 1338.82 L2212.75 1338.82 L2212.75 1342.76 L2190.8 1342.76 L2190.8 1338.82 Q2193.47 1336.07 2198.05 1331.44 Q2202.66 1326.78 2203.84 1325.44 Q2206.08 1322.92 2206.96 1321.18 Q2207.86 1319.42 2207.86 1317.73 Q2207.86 1314.98 2205.92 1313.24 Q2204 1311.51 2200.9 1311.51 Q2198.7 1311.51 2196.24 1312.27 Q2193.81 1313.03 2191.03 1314.58 L2191.03 1309.86 Q2193.86 1308.73 2196.31 1308.15 Q2198.77 1307.57 2200.8 1307.57 Q2206.17 1307.57 2209.37 1310.26 Q2212.56 1312.94 2212.56 1317.43 Q2212.56 1319.56 2211.75 1321.48 Q2210.97 1323.38 2208.86 1325.97 Q2208.28 1326.64 2205.18 1329.86 Q2202.08 1333.06 2196.43 1338.82 Z" fill="#000000" fill-rule="evenodd" fill-opacity="1" /><path clip-path="url(#clip950)" d="M2222.56 1336.88 L2227.45 1336.88 L2227.45 1342.76 L2222.56 1342.76 L2222.56 1336.88 Z" fill="#000000" fill-rule="evenodd" fill-opacity="1" /><path clip-path="url(#clip950)" d="M2247.63 1311.27 Q2244.02 1311.27 2242.19 1314.84 Q2240.39 1318.38 2240.39 1325.51 Q2240.39 1332.62 2242.19 1336.18 Q2244.02 1339.72 2247.63 1339.72 Q2251.27 1339.72 2253.07 1336.18 Q2254.9 1332.62 2254.9 1325.51 Q2254.9 1318.38 2253.07 1314.84 Q2251.27 1311.27 2247.63 1311.27 M2247.63 1307.57 Q2253.44 1307.57 2256.5 1312.18 Q2259.58 1316.76 2259.58 1325.51 Q2259.58 1334.24 2256.5 1338.84 Q2253.44 1343.43 2247.63 1343.43 Q2241.82 1343.43 2238.74 1338.84 Q2235.69 1334.24 2235.69 1325.51 Q2235.69 1316.76 2238.74 1312.18 Q2241.82 1307.57 2247.63 1307.57 Z" fill="#000000" fill-rule="evenodd" fill-opacity="1" /></svg>
