<?xml version="1.0" encoding="utf-8"?>
<svg xmlns="http://www.w3.org/2000/svg" xmlns:xlink="http://www.w3.org/1999/xlink" width="600" height="400" viewBox="0 0 2400 1600">
<defs>
  <clipPath id="clip170">
    <rect x="0" y="0" width="2400" height="1600"/>
  </clipPath>
</defs>
<path clip-path="url(#clip170)" d="M0 1600 L2400 1600 L2400 0 L0 0  Z" fill="#ffffff" fill-rule="evenodd" fill-opacity="1"/>
<defs>
  <clipPath id="clip171">
    <rect x="480" y="0" width="1681" height="1600"/>
  </clipPath>
</defs>
<path clip-path="url(#clip170)" d="M219.542 1423.18 L2352.76 1423.18 L2352.76 47.2441 L219.542 47.2441  Z" fill="#ffffff" fill-rule="evenodd" fill-opacity="1"/>
<defs>
  <clipPath id="clip172">
    <rect x="219" y="47" width="2134" height="1377"/>
  </clipPath>
</defs>
<polyline clip-path="url(#clip172)" style="stroke:#000000; stroke-linecap:round; stroke-linejoin:round; stroke-width:2; stroke-opacity:0.1; fill:none" points="238.845,1423.18 238.845,47.2441 "/>
<polyline clip-path="url(#clip172)" style="stroke:#000000; stroke-linecap:round; stroke-linejoin:round; stroke-width:2; stroke-opacity:0.1; fill:none" points="649.553,1423.18 649.553,47.2441 "/>
<polyline clip-path="url(#clip172)" style="stroke:#000000; stroke-linecap:round; stroke-linejoin:round; stroke-width:2; stroke-opacity:0.1; fill:none" points="1060.26,1423.18 1060.26,47.2441 "/>
<polyline clip-path="url(#clip172)" style="stroke:#000000; stroke-linecap:round; stroke-linejoin:round; stroke-width:2; stroke-opacity:0.1; fill:none" points="1470.97,1423.18 1470.97,47.2441 "/>
<polyline clip-path="url(#clip172)" style="stroke:#000000; stroke-linecap:round; stroke-linejoin:round; stroke-width:2; stroke-opacity:0.1; fill:none" points="1881.67,1423.18 1881.67,47.2441 "/>
<polyline clip-path="url(#clip172)" style="stroke:#000000; stroke-linecap:round; stroke-linejoin:round; stroke-width:2; stroke-opacity:0.1; fill:none" points="2292.38,1423.18 2292.38,47.2441 "/>
<polyline clip-path="url(#clip170)" style="stroke:#000000; stroke-linecap:round; stroke-linejoin:round; stroke-width:4; stroke-opacity:1; fill:none" points="219.542,1423.18 2352.76,1423.18 "/>
<polyline clip-path="url(#clip170)" style="stroke:#000000; stroke-linecap:round; stroke-linejoin:round; stroke-width:4; stroke-opacity:1; fill:none" points="238.845,1423.18 238.845,1404.28 "/>
<polyline clip-path="url(#clip170)" style="stroke:#000000; stroke-linecap:round; stroke-linejoin:round; stroke-width:4; stroke-opacity:1; fill:none" points="649.553,1423.18 649.553,1404.28 "/>
<polyline clip-path="url(#clip170)" style="stroke:#000000; stroke-linecap:round; stroke-linejoin:round; stroke-width:4; stroke-opacity:1; fill:none" points="1060.26,1423.18 1060.26,1404.28 "/>
<polyline clip-path="url(#clip170)" style="stroke:#000000; stroke-linecap:round; stroke-linejoin:round; stroke-width:4; stroke-opacity:1; fill:none" points="1470.97,1423.18 1470.97,1404.28 "/>
<polyline clip-path="url(#clip170)" style="stroke:#000000; stroke-linecap:round; stroke-linejoin:round; stroke-width:4; stroke-opacity:1; fill:none" points="1881.67,1423.18 1881.67,1404.28 "/>
<polyline clip-path="url(#clip170)" style="stroke:#000000; stroke-linecap:round; stroke-linejoin:round; stroke-width:4; stroke-opacity:1; fill:none" points="2292.38,1423.18 2292.38,1404.28 "/>
<path clip-path="url(#clip170)" d="M238.845 1454.1 Q235.234 1454.1 233.406 1457.66 Q231.6 1461.2 231.6 1468.33 Q231.6 1475.44 233.406 1479.01 Q235.234 1482.55 238.845 1482.55 Q242.48 1482.55 244.285 1479.01 Q246.114 1475.44 246.114 1468.33 Q246.114 1461.2 244.285 1457.66 Q242.48 1454.1 238.845 1454.1 M238.845 1450.39 Q244.656 1450.39 247.711 1455 Q250.79 1459.58 250.79 1468.33 Q250.79 1477.06 247.711 1481.67 Q244.656 1486.25 238.845 1486.25 Q233.035 1486.25 229.957 1481.67 Q226.901 1477.06 226.901 1468.33 Q226.901 1459.58 229.957 1455 Q233.035 1450.39 238.845 1450.39 Z" fill="#000000" fill-rule="evenodd" fill-opacity="1" /><path clip-path="url(#clip170)" d="M609.159 1481.64 L616.798 1481.64 L616.798 1455.28 L608.488 1456.95 L608.488 1452.69 L616.752 1451.02 L621.428 1451.02 L621.428 1481.64 L629.067 1481.64 L629.067 1485.58 L609.159 1485.58 L609.159 1481.64 Z" fill="#000000" fill-rule="evenodd" fill-opacity="1" /><path clip-path="url(#clip170)" d="M648.511 1454.1 Q644.9 1454.1 643.071 1457.66 Q641.266 1461.2 641.266 1468.33 Q641.266 1475.44 643.071 1479.01 Q644.9 1482.55 648.511 1482.55 Q652.145 1482.55 653.951 1479.01 Q655.78 1475.44 655.78 1468.33 Q655.78 1461.2 653.951 1457.66 Q652.145 1454.1 648.511 1454.1 M648.511 1450.39 Q654.321 1450.39 657.377 1455 Q660.455 1459.58 660.455 1468.33 Q660.455 1477.06 657.377 1481.67 Q654.321 1486.25 648.511 1486.25 Q642.701 1486.25 639.622 1481.67 Q636.567 1477.06 636.567 1468.33 Q636.567 1459.58 639.622 1455 Q642.701 1450.39 648.511 1450.39 Z" fill="#000000" fill-rule="evenodd" fill-opacity="1" /><path clip-path="url(#clip170)" d="M678.673 1454.1 Q675.062 1454.1 673.233 1457.66 Q671.428 1461.2 671.428 1468.33 Q671.428 1475.44 673.233 1479.01 Q675.062 1482.55 678.673 1482.55 Q682.307 1482.55 684.113 1479.01 Q685.941 1475.44 685.941 1468.33 Q685.941 1461.2 684.113 1457.66 Q682.307 1454.1 678.673 1454.1 M678.673 1450.39 Q684.483 1450.39 687.539 1455 Q690.617 1459.58 690.617 1468.33 Q690.617 1477.06 687.539 1481.67 Q684.483 1486.25 678.673 1486.25 Q672.863 1486.25 669.784 1481.67 Q666.729 1477.06 666.729 1468.33 Q666.729 1459.58 669.784 1455 Q672.863 1450.39 678.673 1450.39 Z" fill="#000000" fill-rule="evenodd" fill-opacity="1" /><path clip-path="url(#clip170)" d="M1023.95 1481.64 L1040.27 1481.64 L1040.27 1485.58 L1018.33 1485.58 L1018.33 1481.64 Q1020.99 1478.89 1025.57 1474.26 Q1030.18 1469.61 1031.36 1468.27 Q1033.61 1465.74 1034.48 1464.01 Q1035.39 1462.25 1035.39 1460.56 Q1035.39 1457.8 1033.44 1456.07 Q1031.52 1454.33 1028.42 1454.33 Q1026.22 1454.33 1023.77 1455.09 Q1021.34 1455.86 1018.56 1457.41 L1018.56 1452.69 Q1021.38 1451.55 1023.84 1450.97 Q1026.29 1450.39 1028.33 1450.39 Q1033.7 1450.39 1036.89 1453.08 Q1040.09 1455.77 1040.09 1460.26 Q1040.09 1462.39 1039.28 1464.31 Q1038.49 1466.2 1036.38 1468.8 Q1035.8 1469.47 1032.7 1472.69 Q1029.6 1475.88 1023.95 1481.64 Z" fill="#000000" fill-rule="evenodd" fill-opacity="1" /><path clip-path="url(#clip170)" d="M1060.09 1454.1 Q1056.48 1454.1 1054.65 1457.66 Q1052.84 1461.2 1052.84 1468.33 Q1052.84 1475.44 1054.65 1479.01 Q1056.48 1482.55 1060.09 1482.55 Q1063.72 1482.55 1065.53 1479.01 Q1067.35 1475.44 1067.35 1468.33 Q1067.35 1461.2 1065.53 1457.66 Q1063.72 1454.1 1060.09 1454.1 M1060.09 1450.39 Q1065.9 1450.39 1068.95 1455 Q1072.03 1459.58 1072.03 1468.33 Q1072.03 1477.06 1068.95 1481.67 Q1065.9 1486.25 1060.09 1486.25 Q1054.28 1486.25 1051.2 1481.67 Q1048.14 1477.06 1048.14 1468.33 Q1048.14 1459.58 1051.2 1455 Q1054.28 1450.39 1060.09 1450.39 Z" fill="#000000" fill-rule="evenodd" fill-opacity="1" /><path clip-path="url(#clip170)" d="M1090.25 1454.1 Q1086.64 1454.1 1084.81 1457.66 Q1083 1461.2 1083 1468.33 Q1083 1475.44 1084.81 1479.01 Q1086.64 1482.55 1090.25 1482.55 Q1093.88 1482.55 1095.69 1479.01 Q1097.52 1475.44 1097.52 1468.33 Q1097.52 1461.2 1095.69 1457.66 Q1093.88 1454.1 1090.25 1454.1 M1090.25 1450.39 Q1096.06 1450.39 1099.11 1455 Q1102.19 1459.58 1102.19 1468.33 Q1102.19 1477.06 1099.11 1481.67 Q1096.06 1486.25 1090.25 1486.25 Q1084.44 1486.25 1081.36 1481.67 Q1078.3 1477.06 1078.3 1468.33 Q1078.3 1459.58 1081.36 1455 Q1084.44 1450.39 1090.25 1450.39 Z" fill="#000000" fill-rule="evenodd" fill-opacity="1" /><path clip-path="url(#clip170)" d="M1444.73 1466.95 Q1448.09 1467.66 1449.96 1469.93 Q1451.86 1472.2 1451.86 1475.53 Q1451.86 1480.65 1448.34 1483.45 Q1444.82 1486.25 1438.34 1486.25 Q1436.16 1486.25 1433.85 1485.81 Q1431.56 1485.39 1429.1 1484.54 L1429.1 1480.02 Q1431.05 1481.16 1433.36 1481.74 Q1435.68 1482.32 1438.2 1482.32 Q1442.6 1482.32 1444.89 1480.58 Q1447.21 1478.84 1447.21 1475.53 Q1447.21 1472.48 1445.05 1470.77 Q1442.92 1469.03 1439.1 1469.03 L1435.08 1469.03 L1435.08 1465.19 L1439.29 1465.19 Q1442.74 1465.19 1444.57 1463.82 Q1446.4 1462.43 1446.4 1459.84 Q1446.4 1457.18 1444.5 1455.77 Q1442.62 1454.33 1439.1 1454.33 Q1437.18 1454.33 1434.98 1454.75 Q1432.78 1455.16 1430.15 1456.04 L1430.15 1451.88 Q1432.81 1451.14 1435.12 1450.77 Q1437.46 1450.39 1439.52 1450.39 Q1444.84 1450.39 1447.95 1452.83 Q1451.05 1455.23 1451.05 1459.35 Q1451.05 1462.22 1449.4 1464.21 Q1447.76 1466.18 1444.73 1466.95 Z" fill="#000000" fill-rule="evenodd" fill-opacity="1" /><path clip-path="url(#clip170)" d="M1470.72 1454.1 Q1467.11 1454.1 1465.28 1457.66 Q1463.48 1461.2 1463.48 1468.33 Q1463.48 1475.44 1465.28 1479.01 Q1467.11 1482.55 1470.72 1482.55 Q1474.36 1482.55 1476.16 1479.01 Q1477.99 1475.44 1477.99 1468.33 Q1477.99 1461.2 1476.16 1457.66 Q1474.36 1454.1 1470.72 1454.1 M1470.72 1450.39 Q1476.53 1450.39 1479.59 1455 Q1482.67 1459.58 1482.67 1468.33 Q1482.67 1477.06 1479.59 1481.67 Q1476.53 1486.25 1470.72 1486.25 Q1464.91 1486.25 1461.84 1481.67 Q1458.78 1477.06 1458.78 1468.33 Q1458.78 1459.58 1461.84 1455 Q1464.91 1450.39 1470.72 1450.39 Z" fill="#000000" fill-rule="evenodd" fill-opacity="1" /><path clip-path="url(#clip170)" d="M1500.89 1454.1 Q1497.28 1454.1 1495.45 1457.66 Q1493.64 1461.2 1493.64 1468.33 Q1493.64 1475.44 1495.45 1479.01 Q1497.28 1482.55 1500.89 1482.55 Q1504.52 1482.55 1506.33 1479.01 Q1508.15 1475.44 1508.15 1468.33 Q1508.15 1461.2 1506.33 1457.66 Q1504.52 1454.1 1500.89 1454.1 M1500.89 1450.39 Q1506.7 1450.39 1509.75 1455 Q1512.83 1459.58 1512.83 1468.33 Q1512.83 1477.06 1509.75 1481.67 Q1506.7 1486.25 1500.89 1486.25 Q1495.08 1486.25 1492 1481.67 Q1488.94 1477.06 1488.94 1468.33 Q1488.94 1459.58 1492 1455 Q1495.08 1450.39 1500.89 1450.39 Z" fill="#000000" fill-rule="evenodd" fill-opacity="1" /><path clip-path="url(#clip170)" d="M1854.77 1455.09 L1842.96 1473.54 L1854.77 1473.54 L1854.77 1455.09 M1853.54 1451.02 L1859.42 1451.02 L1859.42 1473.54 L1864.35 1473.54 L1864.35 1477.43 L1859.42 1477.43 L1859.42 1485.58 L1854.77 1485.58 L1854.77 1477.43 L1839.16 1477.43 L1839.16 1472.92 L1853.54 1451.02 Z" fill="#000000" fill-rule="evenodd" fill-opacity="1" /><path clip-path="url(#clip170)" d="M1882.08 1454.1 Q1878.47 1454.1 1876.64 1457.66 Q1874.83 1461.2 1874.83 1468.33 Q1874.83 1475.44 1876.64 1479.01 Q1878.47 1482.55 1882.08 1482.55 Q1885.71 1482.55 1887.52 1479.01 Q1889.35 1475.44 1889.35 1468.33 Q1889.35 1461.2 1887.52 1457.66 Q1885.71 1454.1 1882.08 1454.1 M1882.08 1450.39 Q1887.89 1450.39 1890.95 1455 Q1894.02 1459.58 1894.02 1468.33 Q1894.02 1477.06 1890.95 1481.67 Q1887.89 1486.25 1882.08 1486.25 Q1876.27 1486.25 1873.19 1481.67 Q1870.14 1477.06 1870.14 1468.33 Q1870.14 1459.58 1873.19 1455 Q1876.27 1450.39 1882.08 1450.39 Z" fill="#000000" fill-rule="evenodd" fill-opacity="1" /><path clip-path="url(#clip170)" d="M1912.24 1454.1 Q1908.63 1454.1 1906.8 1457.66 Q1905 1461.2 1905 1468.33 Q1905 1475.44 1906.8 1479.01 Q1908.63 1482.55 1912.24 1482.55 Q1915.88 1482.55 1917.68 1479.01 Q1919.51 1475.44 1919.51 1468.33 Q1919.51 1461.2 1917.68 1457.66 Q1915.88 1454.1 1912.24 1454.1 M1912.24 1450.39 Q1918.05 1450.39 1921.11 1455 Q1924.19 1459.58 1924.19 1468.33 Q1924.19 1477.06 1921.11 1481.67 Q1918.05 1486.25 1912.24 1486.25 Q1906.43 1486.25 1903.35 1481.67 Q1900.3 1477.06 1900.3 1468.33 Q1900.3 1459.58 1903.35 1455 Q1906.43 1450.39 1912.24 1450.39 Z" fill="#000000" fill-rule="evenodd" fill-opacity="1" /><path clip-path="url(#clip170)" d="M2252 1451.02 L2270.36 1451.02 L2270.36 1454.96 L2256.28 1454.96 L2256.28 1463.43 Q2257.3 1463.08 2258.32 1462.92 Q2259.34 1462.73 2260.36 1462.73 Q2266.14 1462.73 2269.52 1465.9 Q2272.9 1469.08 2272.9 1474.49 Q2272.9 1480.07 2269.43 1483.17 Q2265.96 1486.25 2259.64 1486.25 Q2257.46 1486.25 2255.19 1485.88 Q2252.95 1485.51 2250.54 1484.77 L2250.54 1480.07 Q2252.63 1481.2 2254.85 1481.76 Q2257.07 1482.32 2259.55 1482.32 Q2263.55 1482.32 2265.89 1480.21 Q2268.23 1478.1 2268.23 1474.49 Q2268.23 1470.88 2265.89 1468.77 Q2263.55 1466.67 2259.55 1466.67 Q2257.67 1466.67 2255.8 1467.08 Q2253.94 1467.5 2252 1468.38 L2252 1451.02 Z" fill="#000000" fill-rule="evenodd" fill-opacity="1" /><path clip-path="url(#clip170)" d="M2292.12 1454.1 Q2288.5 1454.1 2286.68 1457.66 Q2284.87 1461.2 2284.87 1468.33 Q2284.87 1475.44 2286.68 1479.01 Q2288.5 1482.55 2292.12 1482.55 Q2295.75 1482.55 2297.56 1479.01 Q2299.38 1475.44 2299.38 1468.33 Q2299.38 1461.2 2297.56 1457.66 Q2295.75 1454.1 2292.12 1454.1 M2292.12 1450.39 Q2297.93 1450.39 2300.98 1455 Q2304.06 1459.58 2304.06 1468.33 Q2304.06 1477.06 2300.98 1481.67 Q2297.93 1486.25 2292.12 1486.25 Q2286.31 1486.25 2283.23 1481.67 Q2280.17 1477.06 2280.17 1468.33 Q2280.17 1459.58 2283.23 1455 Q2286.31 1450.39 2292.12 1450.39 Z" fill="#000000" fill-rule="evenodd" fill-opacity="1" /><path clip-path="url(#clip170)" d="M2322.28 1454.1 Q2318.67 1454.1 2316.84 1457.66 Q2315.03 1461.2 2315.03 1468.33 Q2315.03 1475.44 2316.84 1479.01 Q2318.67 1482.55 2322.28 1482.55 Q2325.91 1482.55 2327.72 1479.01 Q2329.55 1475.44 2329.55 1468.33 Q2329.55 1461.2 2327.72 1457.66 Q2325.91 1454.1 2322.28 1454.1 M2322.28 1450.39 Q2328.09 1450.39 2331.14 1455 Q2334.22 1459.58 2334.22 1468.33 Q2334.22 1477.06 2331.14 1481.67 Q2328.09 1486.25 2322.28 1486.25 Q2316.47 1486.25 2313.39 1481.67 Q2310.33 1477.06 2310.33 1468.33 Q2310.33 1459.58 2313.39 1455 Q2316.47 1450.39 2322.28 1450.39 Z" fill="#000000" fill-rule="evenodd" fill-opacity="1" /><path clip-path="url(#clip170)" d="M1268.17 1520.52 L1276.82 1520.52 L1297.89 1560.28 L1297.89 1520.52 L1304.13 1520.52 L1304.13 1568.04 L1295.47 1568.04 L1274.4 1528.29 L1274.4 1568.04 L1268.17 1568.04 L1268.17 1520.52 Z" fill="#000000" fill-rule="evenodd" fill-opacity="1" /><polyline clip-path="url(#clip172)" style="stroke:#000000; stroke-linecap:round; stroke-linejoin:round; stroke-width:2; stroke-opacity:0.1; fill:none" points="219.542,1214.06 2352.76,1214.06 "/>
<polyline clip-path="url(#clip172)" style="stroke:#000000; stroke-linecap:round; stroke-linejoin:round; stroke-width:2; stroke-opacity:0.1; fill:none" points="219.542,988.484 2352.76,988.484 "/>
<polyline clip-path="url(#clip172)" style="stroke:#000000; stroke-linecap:round; stroke-linejoin:round; stroke-width:2; stroke-opacity:0.1; fill:none" points="219.542,762.91 2352.76,762.91 "/>
<polyline clip-path="url(#clip172)" style="stroke:#000000; stroke-linecap:round; stroke-linejoin:round; stroke-width:2; stroke-opacity:0.1; fill:none" points="219.542,537.335 2352.76,537.335 "/>
<polyline clip-path="url(#clip172)" style="stroke:#000000; stroke-linecap:round; stroke-linejoin:round; stroke-width:2; stroke-opacity:0.1; fill:none" points="219.542,311.76 2352.76,311.76 "/>
<polyline clip-path="url(#clip172)" style="stroke:#000000; stroke-linecap:round; stroke-linejoin:round; stroke-width:2; stroke-opacity:0.1; fill:none" points="219.542,86.1857 2352.76,86.1857 "/>
<polyline clip-path="url(#clip170)" style="stroke:#000000; stroke-linecap:round; stroke-linejoin:round; stroke-width:4; stroke-opacity:1; fill:none" points="219.542,1423.18 219.542,47.2441 "/>
<polyline clip-path="url(#clip170)" style="stroke:#000000; stroke-linecap:round; stroke-linejoin:round; stroke-width:4; stroke-opacity:1; fill:none" points="219.542,1214.06 238.44,1214.06 "/>
<polyline clip-path="url(#clip170)" style="stroke:#000000; stroke-linecap:round; stroke-linejoin:round; stroke-width:4; stroke-opacity:1; fill:none" points="219.542,988.484 238.44,988.484 "/>
<polyline clip-path="url(#clip170)" style="stroke:#000000; stroke-linecap:round; stroke-linejoin:round; stroke-width:4; stroke-opacity:1; fill:none" points="219.542,762.91 238.44,762.91 "/>
<polyline clip-path="url(#clip170)" style="stroke:#000000; stroke-linecap:round; stroke-linejoin:round; stroke-width:4; stroke-opacity:1; fill:none" points="219.542,537.335 238.44,537.335 "/>
<polyline clip-path="url(#clip170)" style="stroke:#000000; stroke-linecap:round; stroke-linejoin:round; stroke-width:4; stroke-opacity:1; fill:none" points="219.542,311.76 238.44,311.76 "/>
<polyline clip-path="url(#clip170)" style="stroke:#000000; stroke-linecap:round; stroke-linejoin:round; stroke-width:4; stroke-opacity:1; fill:none" points="219.542,86.1857 238.44,86.1857 "/>
<path clip-path="url(#clip170)" d="M127.362 1199.86 Q123.751 1199.86 121.922 1203.42 Q120.117 1206.96 120.117 1214.09 Q120.117 1221.2 121.922 1224.76 Q123.751 1228.31 127.362 1228.31 Q130.996 1228.31 132.802 1224.76 Q134.63 1221.2 134.63 1214.09 Q134.63 1206.96 132.802 1203.42 Q130.996 1199.86 127.362 1199.86 M127.362 1196.15 Q133.172 1196.15 136.228 1200.76 Q139.306 1205.34 139.306 1214.09 Q139.306 1222.82 136.228 1227.43 Q133.172 1232.01 127.362 1232.01 Q121.552 1232.01 118.473 1227.43 Q115.418 1222.82 115.418 1214.09 Q115.418 1205.34 118.473 1200.76 Q121.552 1196.15 127.362 1196.15 Z" fill="#000000" fill-rule="evenodd" fill-opacity="1" /><path clip-path="url(#clip170)" d="M147.524 1225.46 L152.408 1225.46 L152.408 1231.34 L147.524 1231.34 L147.524 1225.46 Z" fill="#000000" fill-rule="evenodd" fill-opacity="1" /><path clip-path="url(#clip170)" d="M162.64 1196.78 L180.996 1196.78 L180.996 1200.71 L166.922 1200.71 L166.922 1209.19 Q167.94 1208.84 168.959 1208.68 Q169.977 1208.49 170.996 1208.49 Q176.783 1208.49 180.163 1211.66 Q183.542 1214.83 183.542 1220.25 Q183.542 1225.83 180.07 1228.93 Q176.598 1232.01 170.278 1232.01 Q168.102 1232.01 165.834 1231.64 Q163.589 1231.27 161.181 1230.53 L161.181 1225.83 Q163.265 1226.96 165.487 1227.52 Q167.709 1228.08 170.186 1228.08 Q174.19 1228.08 176.528 1225.97 Q178.866 1223.86 178.866 1220.25 Q178.866 1216.64 176.528 1214.53 Q174.19 1212.43 170.186 1212.43 Q168.311 1212.43 166.436 1212.84 Q164.584 1213.26 162.64 1214.14 L162.64 1196.78 Z" fill="#000000" fill-rule="evenodd" fill-opacity="1" /><path clip-path="url(#clip170)" d="M126.205 974.283 Q122.593 974.283 120.765 977.848 Q118.959 981.389 118.959 988.519 Q118.959 995.625 120.765 999.19 Q122.593 1002.73 126.205 1002.73 Q129.839 1002.73 131.644 999.19 Q133.473 995.625 133.473 988.519 Q133.473 981.389 131.644 977.848 Q129.839 974.283 126.205 974.283 M126.205 970.579 Q132.015 970.579 135.07 975.186 Q138.149 979.769 138.149 988.519 Q138.149 997.246 135.07 1001.85 Q132.015 1006.44 126.205 1006.44 Q120.394 1006.44 117.316 1001.85 Q114.26 997.246 114.26 988.519 Q114.26 979.769 117.316 975.186 Q120.394 970.579 126.205 970.579 Z" fill="#000000" fill-rule="evenodd" fill-opacity="1" /><path clip-path="url(#clip170)" d="M146.366 999.885 L151.251 999.885 L151.251 1005.76 L146.366 1005.76 L146.366 999.885 Z" fill="#000000" fill-rule="evenodd" fill-opacity="1" /><path clip-path="url(#clip170)" d="M172.014 986.621 Q168.866 986.621 167.015 988.774 Q165.186 990.926 165.186 994.676 Q165.186 998.403 167.015 1000.58 Q168.866 1002.73 172.014 1002.73 Q175.163 1002.73 176.991 1000.58 Q178.843 998.403 178.843 994.676 Q178.843 990.926 176.991 988.774 Q175.163 986.621 172.014 986.621 M181.297 971.968 L181.297 976.227 Q179.538 975.394 177.732 974.954 Q175.95 974.514 174.19 974.514 Q169.561 974.514 167.107 977.639 Q164.677 980.764 164.329 987.084 Q165.695 985.07 167.755 984.005 Q169.815 982.917 172.292 982.917 Q177.501 982.917 180.51 986.088 Q183.542 989.237 183.542 994.676 Q183.542 1000 180.394 1003.22 Q177.246 1006.44 172.014 1006.44 Q166.019 1006.44 162.848 1001.85 Q159.677 997.246 159.677 988.519 Q159.677 980.325 163.565 975.463 Q167.454 970.579 174.005 970.579 Q175.764 970.579 177.547 970.926 Q179.352 971.274 181.297 971.968 Z" fill="#000000" fill-rule="evenodd" fill-opacity="1" /><path clip-path="url(#clip170)" d="M127.269 748.708 Q123.658 748.708 121.83 752.273 Q120.024 755.815 120.024 762.944 Q120.024 770.051 121.83 773.616 Q123.658 777.157 127.269 777.157 Q130.904 777.157 132.709 773.616 Q134.538 770.051 134.538 762.944 Q134.538 755.815 132.709 752.273 Q130.904 748.708 127.269 748.708 M127.269 745.005 Q133.08 745.005 136.135 749.611 Q139.214 754.194 139.214 762.944 Q139.214 771.671 136.135 776.278 Q133.08 780.861 127.269 780.861 Q121.459 780.861 118.381 776.278 Q115.325 771.671 115.325 762.944 Q115.325 754.194 118.381 749.611 Q121.459 745.005 127.269 745.005 Z" fill="#000000" fill-rule="evenodd" fill-opacity="1" /><path clip-path="url(#clip170)" d="M147.431 774.31 L152.316 774.31 L152.316 780.19 L147.431 780.19 L147.431 774.31 Z" fill="#000000" fill-rule="evenodd" fill-opacity="1" /><path clip-path="url(#clip170)" d="M161.32 745.63 L183.542 745.63 L183.542 747.62 L170.996 780.19 L166.112 780.19 L177.917 749.565 L161.32 749.565 L161.32 745.63 Z" fill="#000000" fill-rule="evenodd" fill-opacity="1" /><path clip-path="url(#clip170)" d="M126.459 523.134 Q122.848 523.134 121.019 526.698 Q119.214 530.24 119.214 537.37 Q119.214 544.476 121.019 548.041 Q122.848 551.583 126.459 551.583 Q130.093 551.583 131.899 548.041 Q133.728 544.476 133.728 537.37 Q133.728 530.24 131.899 526.698 Q130.093 523.134 126.459 523.134 M126.459 519.43 Q132.269 519.43 135.325 524.036 Q138.404 528.62 138.404 537.37 Q138.404 546.096 135.325 550.703 Q132.269 555.286 126.459 555.286 Q120.649 555.286 117.57 550.703 Q114.515 546.096 114.515 537.37 Q114.515 528.62 117.57 524.036 Q120.649 519.43 126.459 519.43 Z" fill="#000000" fill-rule="evenodd" fill-opacity="1" /><path clip-path="url(#clip170)" d="M146.621 548.735 L151.505 548.735 L151.505 554.615 L146.621 554.615 L146.621 548.735 Z" fill="#000000" fill-rule="evenodd" fill-opacity="1" /><path clip-path="url(#clip170)" d="M171.69 538.203 Q168.357 538.203 166.436 539.985 Q164.538 541.768 164.538 544.893 Q164.538 548.018 166.436 549.8 Q168.357 551.583 171.69 551.583 Q175.024 551.583 176.945 549.8 Q178.866 547.995 178.866 544.893 Q178.866 541.768 176.945 539.985 Q175.047 538.203 171.69 538.203 M167.015 536.212 Q164.005 535.472 162.315 533.411 Q160.649 531.351 160.649 528.388 Q160.649 524.245 163.589 521.837 Q166.552 519.43 171.69 519.43 Q176.852 519.43 179.792 521.837 Q182.732 524.245 182.732 528.388 Q182.732 531.351 181.042 533.411 Q179.376 535.472 176.389 536.212 Q179.769 536.999 181.644 539.291 Q183.542 541.583 183.542 544.893 Q183.542 549.916 180.464 552.601 Q177.408 555.286 171.69 555.286 Q165.973 555.286 162.894 552.601 Q159.839 549.916 159.839 544.893 Q159.839 541.583 161.737 539.291 Q163.635 536.999 167.015 536.212 M165.302 528.828 Q165.302 531.513 166.968 533.018 Q168.658 534.522 171.69 534.522 Q174.7 534.522 176.389 533.018 Q178.102 531.513 178.102 528.828 Q178.102 526.143 176.389 524.638 Q174.7 523.134 171.69 523.134 Q168.658 523.134 166.968 524.638 Q165.302 526.143 165.302 528.828 Z" fill="#000000" fill-rule="evenodd" fill-opacity="1" /><path clip-path="url(#clip170)" d="M126.552 297.559 Q122.941 297.559 121.112 301.124 Q119.306 304.665 119.306 311.795 Q119.306 318.901 121.112 322.466 Q122.941 326.008 126.552 326.008 Q130.186 326.008 131.992 322.466 Q133.82 318.901 133.82 311.795 Q133.82 304.665 131.992 301.124 Q130.186 297.559 126.552 297.559 M126.552 293.855 Q132.362 293.855 135.417 298.462 Q138.496 303.045 138.496 311.795 Q138.496 320.522 135.417 325.128 Q132.362 329.712 126.552 329.712 Q120.742 329.712 117.663 325.128 Q114.607 320.522 114.607 311.795 Q114.607 303.045 117.663 298.462 Q120.742 293.855 126.552 293.855 Z" fill="#000000" fill-rule="evenodd" fill-opacity="1" /><path clip-path="url(#clip170)" d="M146.714 323.161 L151.598 323.161 L151.598 329.04 L146.714 329.04 L146.714 323.161 Z" fill="#000000" fill-rule="evenodd" fill-opacity="1" /><path clip-path="url(#clip170)" d="M161.922 328.323 L161.922 324.063 Q163.681 324.897 165.487 325.337 Q167.292 325.776 169.028 325.776 Q173.658 325.776 176.089 322.675 Q178.542 319.55 178.889 313.207 Q177.547 315.198 175.487 316.263 Q173.427 317.327 170.927 317.327 Q165.741 317.327 162.709 314.202 Q159.7 311.054 159.7 305.615 Q159.7 300.29 162.848 297.073 Q165.996 293.855 171.227 293.855 Q177.223 293.855 180.371 298.462 Q183.542 303.045 183.542 311.795 Q183.542 319.966 179.653 324.851 Q175.788 329.712 169.237 329.712 Q167.477 329.712 165.672 329.364 Q163.866 329.017 161.922 328.323 M171.227 313.67 Q174.376 313.67 176.204 311.517 Q178.056 309.364 178.056 305.615 Q178.056 301.888 176.204 299.735 Q174.376 297.559 171.227 297.559 Q168.079 297.559 166.227 299.735 Q164.399 301.888 164.399 305.615 Q164.399 309.364 166.227 311.517 Q168.079 313.67 171.227 313.67 Z" fill="#000000" fill-rule="evenodd" fill-opacity="1" /><path clip-path="url(#clip170)" d="M117.177 99.5305 L124.816 99.5305 L124.816 73.1649 L116.506 74.8316 L116.506 70.5723 L124.769 68.9057 L129.445 68.9057 L129.445 99.5305 L137.084 99.5305 L137.084 103.466 L117.177 103.466 L117.177 99.5305 Z" fill="#000000" fill-rule="evenodd" fill-opacity="1" /><path clip-path="url(#clip170)" d="M146.529 97.5861 L151.413 97.5861 L151.413 103.466 L146.529 103.466 L146.529 97.5861 Z" fill="#000000" fill-rule="evenodd" fill-opacity="1" /><path clip-path="url(#clip170)" d="M171.598 71.9844 Q167.987 71.9844 166.158 75.5492 Q164.352 79.0908 164.352 86.2204 Q164.352 93.3268 166.158 96.8916 Q167.987 100.433 171.598 100.433 Q175.232 100.433 177.038 96.8916 Q178.866 93.3268 178.866 86.2204 Q178.866 79.0908 177.038 75.5492 Q175.232 71.9844 171.598 71.9844 M171.598 68.2807 Q177.408 68.2807 180.464 72.8871 Q183.542 77.4704 183.542 86.2204 Q183.542 94.9472 180.464 99.5537 Q177.408 104.137 171.598 104.137 Q165.788 104.137 162.709 99.5537 Q159.653 94.9472 159.653 86.2204 Q159.653 77.4704 162.709 72.8871 Q165.788 68.2807 171.598 68.2807 Z" fill="#000000" fill-rule="evenodd" fill-opacity="1" /><path clip-path="url(#clip170)" d="M14.479 893.559 L14.479 887.702 L64.0042 887.702 L64.0042 893.559 L14.479 893.559 Z" fill="#000000" fill-rule="evenodd" fill-opacity="1" /><path clip-path="url(#clip170)" d="M46.0847 859.248 Q46.0847 866.346 47.7079 869.083 Q49.3312 871.82 53.2461 871.82 Q56.3653 871.82 58.2114 869.783 Q60.0256 867.714 60.0256 864.181 Q60.0256 859.311 56.5881 856.383 Q53.1188 853.423 47.3897 853.423 L46.0847 853.423 L46.0847 859.248 M43.6657 847.567 L64.0042 847.567 L64.0042 853.423 L58.5933 853.423 Q61.8398 855.428 63.3994 858.42 Q64.9272 861.412 64.9272 865.741 Q64.9272 871.215 61.8716 874.462 Q58.7843 877.676 53.6281 877.676 Q47.6125 877.676 44.5569 873.666 Q41.5014 869.624 41.5014 861.635 L41.5014 853.423 L40.9285 853.423 Q36.8862 853.423 34.6901 856.097 Q32.4621 858.739 32.4621 863.545 Q32.4621 866.6 33.1941 869.497 Q33.9262 872.393 35.3903 875.067 L29.9795 875.067 Q28.7381 871.852 28.1334 868.828 Q27.4968 865.804 27.4968 862.94 Q27.4968 855.206 31.5072 851.386 Q35.5176 847.567 43.6657 847.567 Z" fill="#000000" fill-rule="evenodd" fill-opacity="1" /><path clip-path="url(#clip170)" d="M35.1993 807.749 Q31.2526 805.553 29.3747 802.497 Q27.4968 799.442 27.4968 795.304 Q27.4968 789.734 31.4117 786.711 Q35.2948 783.687 42.4881 783.687 L64.0042 783.687 L64.0042 789.575 L42.679 789.575 Q37.5546 789.575 35.072 791.389 Q32.5894 793.204 32.5894 796.927 Q32.5894 801.479 35.6131 804.121 Q38.6368 806.763 43.8567 806.763 L64.0042 806.763 L64.0042 812.651 L42.679 812.651 Q37.5228 812.651 35.072 814.465 Q32.5894 816.279 32.5894 820.067 Q32.5894 824.555 35.6449 827.196 Q38.6686 829.838 43.8567 829.838 L64.0042 829.838 L64.0042 835.726 L28.3562 835.726 L28.3562 829.838 L33.8944 829.838 Q30.616 827.833 29.0564 825.032 Q27.4968 822.231 27.4968 818.38 Q27.4968 814.497 29.4702 811.791 Q31.4436 809.054 35.1993 807.749 Z" fill="#000000" fill-rule="evenodd" fill-opacity="1" /><path clip-path="url(#clip170)" d="M46.212 746.416 Q39.7508 746.416 36.0905 749.089 Q32.3984 751.731 32.3984 756.378 Q32.3984 761.025 36.0905 763.699 Q39.7508 766.34 46.212 766.34 Q52.6732 766.34 56.3653 763.699 Q60.0256 761.025 60.0256 756.378 Q60.0256 751.731 56.3653 749.089 Q52.6732 746.416 46.212 746.416 M33.7671 766.34 Q30.5842 764.494 29.0564 761.693 Q27.4968 758.861 27.4968 754.946 Q27.4968 748.453 32.6531 744.41 Q37.8093 740.336 46.212 740.336 Q54.6147 740.336 59.771 744.41 Q64.9272 748.453 64.9272 754.946 Q64.9272 758.861 63.3994 761.693 Q61.8398 764.494 58.657 766.34 L64.0042 766.34 L64.0042 772.229 L14.479 772.229 L14.479 766.34 L33.7671 766.34 Z" fill="#000000" fill-rule="evenodd" fill-opacity="1" /><path clip-path="url(#clip170)" d="M29.4065 687.183 L34.9447 687.183 Q33.6716 689.665 33.035 692.339 Q32.3984 695.013 32.3984 697.877 Q32.3984 702.238 33.7352 704.434 Q35.072 706.598 37.7456 706.598 Q39.7826 706.598 40.9603 705.039 Q42.1061 703.479 43.1565 698.768 L43.6021 696.763 Q44.9389 690.525 47.3897 687.915 Q49.8086 685.273 54.1691 685.273 Q59.1344 685.273 62.0308 689.22 Q64.9272 693.135 64.9272 700.01 Q64.9272 702.874 64.3543 705.993 Q63.8132 709.081 62.6992 712.518 L56.6518 712.518 Q58.3387 709.272 59.198 706.121 Q60.0256 702.97 60.0256 699.882 Q60.0256 695.745 58.6251 693.517 Q57.1929 691.289 54.6147 691.289 Q52.2276 691.289 50.9545 692.912 Q49.6813 694.503 48.5037 699.946 L48.0262 701.983 Q46.8804 707.426 44.5251 709.845 Q42.138 712.264 38.0002 712.264 Q32.9713 712.264 30.2341 708.699 Q27.4968 705.134 27.4968 698.577 Q27.4968 695.331 27.9743 692.466 Q28.4517 689.602 29.4065 687.183 Z" fill="#000000" fill-rule="evenodd" fill-opacity="1" /><path clip-path="url(#clip170)" d="M42.4881 646.315 L64.0042 646.315 L64.0042 652.171 L42.679 652.171 Q37.6183 652.171 35.1038 654.145 Q32.5894 656.118 32.5894 660.065 Q32.5894 664.807 35.6131 667.545 Q38.6368 670.282 43.8567 670.282 L64.0042 670.282 L64.0042 676.17 L14.479 676.17 L14.479 670.282 L33.8944 670.282 Q30.6797 668.181 29.0883 665.348 Q27.4968 662.484 27.4968 658.76 Q27.4968 652.617 31.3163 649.466 Q35.1038 646.315 42.4881 646.315 Z" fill="#000000" fill-rule="evenodd" fill-opacity="1" /><path clip-path="url(#clip170)" d="M28.3562 634.634 L28.3562 628.777 L64.0042 628.777 L64.0042 634.634 L28.3562 634.634 M14.479 634.634 L14.479 628.777 L21.895 628.777 L21.895 634.634 L14.479 634.634 Z" fill="#000000" fill-rule="evenodd" fill-opacity="1" /><path clip-path="url(#clip170)" d="M14.479 598.477 L19.3487 598.477 L19.3487 604.078 Q19.3487 607.229 20.6219 608.471 Q21.895 609.68 25.2052 609.68 L28.3562 609.68 L28.3562 600.036 L32.9077 600.036 L32.9077 609.68 L64.0042 609.68 L64.0042 615.569 L32.9077 615.569 L32.9077 621.17 L28.3562 621.17 L28.3562 615.569 L25.8736 615.569 Q19.9216 615.569 17.2162 612.799 Q14.479 610.03 14.479 604.015 L14.479 598.477 Z" fill="#000000" fill-rule="evenodd" fill-opacity="1" /><path clip-path="url(#clip170)" d="M18.2347 588.928 L28.3562 588.928 L28.3562 576.865 L32.9077 576.865 L32.9077 588.928 L52.2594 588.928 Q56.6199 588.928 57.8613 587.75 Q59.1026 586.541 59.1026 582.881 L59.1026 576.865 L64.0042 576.865 L64.0042 582.881 Q64.0042 589.66 61.4897 592.238 Q58.9434 594.816 52.2594 594.816 L32.9077 594.816 L32.9077 599.113 L28.3562 599.113 L28.3562 594.816 L18.2347 594.816 L18.2347 588.928 Z" fill="#000000" fill-rule="evenodd" fill-opacity="1" /><polyline clip-path="url(#clip172)" style="stroke:#009af9; stroke-linecap:round; stroke-linejoin:round; stroke-width:4; stroke-opacity:1; fill:none" points="279.916,86.1857 284.023,206.18 288.13,306.454 292.237,391.496 296.344,464.53 300.452,527.925 304.559,583.467 308.666,632.526 312.773,676.171 316.88,715.246 320.987,750.431 325.094,782.277 329.201,811.234 333.308,837.678 337.415,861.918 341.522,884.219 345.629,904.802 349.736,923.858 353.843,941.549 357.951,958.016 362.058,973.38 366.165,987.749 370.272,1001.22 374.379,1013.86 378.486,1025.76 382.593,1036.97 386.7,1047.55 390.807,1057.56 394.914,1067.04 399.021,1076.03 403.128,1084.56 407.235,1092.67 411.343,1100.4 415.45,1107.76 419.557,1114.78 423.664,1121.49 427.771,1127.9 431.878,1134.03 435.985,1139.91 440.092,1145.55 444.199,1150.95 448.306,1156.15 452.413,1161.14 456.52,1165.94 460.627,1170.56 464.734,1175.01 468.842,1179.29 472.949,1183.43 477.056,1187.42 481.163,1191.28 485.27,1195 489.377,1198.6 493.484,1202.08 497.591,1205.45 501.698,1208.72 505.805,1211.88 509.912,1214.94 514.019,1217.91 518.126,1220.8 522.233,1223.6 526.341,1226.31 530.448,1228.95 534.555,1231.52 538.662,1234.01 542.769,1236.44 546.876,1238.8 550.983,1241.09 555.09,1243.33 559.197,1245.51 563.304,1247.63 567.411,1249.7 571.518,1251.71 575.625,1253.68 579.732,1255.6 583.84,1257.47 587.947,1259.3 592.054,1261.08 596.161,1262.82 600.268,1264.53 604.375,1266.19 608.482,1267.82 612.589,1269.41 616.696,1270.96 620.803,1272.48 624.91,1273.97 629.017,1275.42 633.124,1276.85 637.232,1278.24 641.339,1279.61 645.446,1280.95 649.553,1282.26 653.66,1283.54 657.767,1284.8 661.874,1286.04 665.981,1287.25 670.088,1288.43 674.195,1289.6 678.302,1290.74 682.409,1291.86 686.516,1292.96 690.623,1294.04 694.731,1295.1 698.838,1296.14 702.945,1297.16 707.052,1298.16 711.159,1299.15 715.266,1300.12 719.373,1301.07 723.48,1302 727.587,1302.92 731.694,1303.83 735.801,1304.72 739.908,1305.59 744.015,1306.45 748.122,1307.29 752.23,1308.12 756.337,1308.94 760.444,1309.75 764.551,1310.54 768.658,1311.32 772.765,1312.09 776.872,1312.84 780.979,1313.59 785.086,1314.32 789.193,1315.04 793.3,1315.75 797.407,1316.45 801.514,1317.14 805.622,1317.82 809.729,1318.49 813.836,1319.15 817.943,1319.8 822.05,1320.44 826.157,1321.07 830.264,1321.7 834.371,1322.31 838.478,1322.92 842.585,1323.51 846.692,1324.1 850.799,1324.68 854.906,1325.26 859.013,1325.82 863.121,1326.38 867.228,1326.93 871.335,1327.48 875.442,1328.01 879.549,1328.54 883.656,1329.06 887.763,1329.58 891.87,1330.09 895.977,1330.59 900.084,1331.09 904.191,1331.58 908.298,1332.06 912.405,1332.54 916.512,1333.01 920.62,1333.48 924.727,1333.94 928.834,1334.39 932.941,1334.84 937.048,1335.29 941.155,1335.73 945.262,1336.16 949.369,1336.59 953.476,1337.01 957.583,1337.43 961.69,1337.85 965.797,1338.26 969.904,1338.66 974.012,1339.06 978.119,1339.46 982.226,1339.85 986.333,1340.23 990.44,1340.62 994.547,1340.99 998.654,1341.37 1002.76,1341.74 1006.87,1342.1 1010.98,1342.47 1015.08,1342.82 1019.19,1343.18 1023.3,1343.53 1027.4,1343.88 1031.51,1344.22 1035.62,1344.56 1039.72,1344.89 1043.83,1345.23 1047.94,1345.56 1052.05,1345.88 1056.15,1346.2 1060.26,1346.52 1064.37,1346.84 1068.47,1347.15 1072.58,1347.46 1076.69,1347.77 1080.8,1348.07 1084.9,1348.37 1089.01,1348.67 1093.12,1348.96 1097.22,1349.26 1101.33,1349.55 1105.44,1349.83 1109.54,1350.12 1113.65,1350.4 1117.76,1350.67 1121.87,1350.95 1125.97,1351.22 1130.08,1351.49 1134.19,1351.76 1138.29,1352.03 1142.4,1352.29 1146.51,1352.55 1150.62,1352.81 1154.72,1353.06 1158.83,1353.32 1162.94,1353.57 1167.04,1353.82 1171.15,1354.06 1175.26,1354.31 1179.37,1354.55 1183.47,1354.79 1187.58,1355.03 1191.69,1355.27 1195.79,1355.5 1199.9,1355.73 1204.01,1355.96 1208.11,1356.19 1212.22,1356.42 1216.33,1356.64 1220.44,1356.86 1224.54,1357.08 1228.65,1357.3 1232.76,1357.52 1236.86,1357.73 1240.97,1357.94 1245.08,1358.16 1249.19,1358.37 1253.29,1358.57 1257.4,1358.78 1261.51,1358.98 1265.61,1359.19 1269.72,1359.39 1273.83,1359.59 1277.93,1359.79 1282.04,1359.98 1286.15,1360.18 1290.26,1360.37 1294.36,1360.56 1298.47,1360.75 1302.58,1360.94 1306.68,1361.13 1310.79,1361.31 1314.9,1361.5 1319.01,1361.68 1323.11,1361.86 1327.22,1362.04 1331.33,1362.22 1335.43,1362.4 1339.54,1362.57 1343.65,1362.75 1347.76,1362.92 1351.86,1363.1 1355.97,1363.27 1360.08,1363.44 1364.18,1363.6 1368.29,1363.77 1372.4,1363.94 1376.5,1364.1 1380.61,1364.27 1384.72,1364.43 1388.83,1364.59 1392.93,1364.75 1397.04,1364.91 1401.15,1365.06 1405.25,1365.22 1409.36,1365.38 1413.47,1365.53 1417.58,1365.68 1421.68,1365.84 1425.79,1365.99 1429.9,1366.14 1434,1366.29 1438.11,1366.43 1442.22,1366.58 1446.32,1366.73 1450.43,1366.87 1454.54,1367.02 1458.65,1367.16 1462.75,1367.3 1466.86,1367.44 1470.97,1367.58 1475.07,1367.72 1479.18,1367.86 1483.29,1368 1487.4,1368.13 1491.5,1368.27 1495.61,1368.4 1499.72,1368.54 1503.82,1368.67 1507.93,1368.8 1512.04,1368.93 1516.15,1369.06 1520.25,1369.19 1524.36,1369.32 1528.47,1369.45 1532.57,1369.58 1536.68,1369.7 1540.79,1369.83 1544.89,1369.95 1549,1370.07 1553.11,1370.2 1557.22,1370.32 1561.32,1370.44 1565.43,1370.56 1569.54,1370.68 1573.64,1370.8 1577.75,1370.92 1581.86,1371.04 1585.97,1371.15 1590.07,1371.27 1594.18,1371.38 1598.29,1371.5 1602.39,1371.61 1606.5,1371.73 1610.61,1371.84 1614.71,1371.95 1618.82,1372.06 1622.93,1372.17 1627.04,1372.28 1631.14,1372.39 1635.25,1372.5 1639.36,1372.61 1643.46,1372.72 1647.57,1372.82 1651.68,1372.93 1655.79,1373.03 1659.89,1373.14 1664,1373.24 1668.11,1373.35 1672.21,1373.45 1676.32,1373.55 1680.43,1373.66 1684.54,1373.76 1688.64,1373.86 1692.75,1373.96 1696.86,1374.06 1700.96,1374.16 1705.07,1374.25 1709.18,1374.35 1713.28,1374.45 1717.39,1374.55 1721.5,1374.64 1725.61,1374.74 1729.71,1374.83 1733.82,1374.93 1737.93,1375.02 1742.03,1375.12 1746.14,1375.21 1750.25,1375.3 1754.36,1375.39 1758.46,1375.48 1762.57,1375.58 1766.68,1375.67 1770.78,1375.76 1774.89,1375.85 1779,1375.93 1783.1,1376.02 1787.21,1376.11 1791.32,1376.2 1795.43,1376.29 1799.53,1376.37 1803.64,1376.46 1807.75,1376.55 1811.85,1376.63 1815.96,1376.72 1820.07,1376.8 1824.18,1376.88 1828.28,1376.97 1832.39,1377.05 1836.5,1377.13 1840.6,1377.22 1844.71,1377.3 1848.82,1377.38 1852.93,1377.46 1857.03,1377.54 1861.14,1377.62 1865.25,1377.7 1869.35,1377.78 1873.46,1377.86 1877.57,1377.94 1881.67,1378.02 1885.78,1378.09 1889.89,1378.17 1894,1378.25 1898.1,1378.32 1902.21,1378.4 1906.32,1378.48 1910.42,1378.55 1914.53,1378.63 1918.64,1378.7 1922.75,1378.78 1926.85,1378.85 1930.96,1378.92 1935.07,1379 1939.17,1379.07 1943.28,1379.14 1947.39,1379.21 1951.49,1379.29 1955.6,1379.36 1959.71,1379.43 1963.82,1379.5 1967.92,1379.57 1972.03,1379.64 1976.14,1379.71 1980.24,1379.78 1984.35,1379.85 1988.46,1379.92 1992.57,1379.99 1996.67,1380.05 2000.78,1380.12 2004.89,1380.19 2008.99,1380.26 2013.1,1380.32 2017.21,1380.39 2021.32,1380.46 2025.42,1380.52 2029.53,1380.59 2033.64,1380.65 2037.74,1380.72 2041.85,1380.78 2045.96,1380.85 2050.06,1380.91 2054.17,1380.98 2058.28,1381.04 2062.39,1381.1 2066.49,1381.17 2070.6,1381.23 2074.71,1381.29 2078.81,1381.35 2082.92,1381.41 2087.03,1381.48 2091.14,1381.54 2095.24,1381.6 2099.35,1381.66 2103.46,1381.72 2107.56,1381.78 2111.67,1381.84 2115.78,1381.9 2119.88,1381.96 2123.99,1382.02 2128.1,1382.08 2132.21,1382.14 2136.31,1382.19 2140.42,1382.25 2144.53,1382.31 2148.63,1382.37 2152.74,1382.43 2156.85,1382.48 2160.96,1382.54 2165.06,1382.6 2169.17,1382.65 2173.28,1382.71 2177.38,1382.76 2181.49,1382.82 2185.6,1382.88 2189.71,1382.93 2193.81,1382.99 2197.92,1383.04 2202.03,1383.1 2206.13,1383.15 2210.24,1383.2 2214.35,1383.26 2218.45,1383.31 2222.56,1383.36 2226.67,1383.42 2230.78,1383.47 2234.88,1383.52 2238.99,1383.58 2243.1,1383.63 2247.2,1383.68 2251.31,1383.73 2255.42,1383.78 2259.53,1383.83 2263.63,1383.89 2267.74,1383.94 2271.85,1383.99 2275.95,1384.04 2280.06,1384.09 2284.17,1384.14 2288.27,1384.19 2292.38,1384.24 "/>
<path clip-path="url(#clip170)" d="M2015.9 196.789 L2281.65 196.789 L2281.65 93.1086 L2015.9 93.1086  Z" fill="#ffffff" fill-rule="evenodd" fill-opacity="1"/>
<polyline clip-path="url(#clip170)" style="stroke:#000000; stroke-linecap:round; stroke-linejoin:round; stroke-width:4; stroke-opacity:1; fill:none" points="2015.9,196.789 2281.65,196.789 2281.65,93.1086 2015.9,93.1086 2015.9,196.789 "/>
<polyline clip-path="url(#clip170)" style="stroke:#009af9; stroke-linecap:round; stroke-linejoin:round; stroke-width:4; stroke-opacity:1; fill:none" points="2039.6,144.949 2181.81,144.949 "/>
<path clip-path="url(#clip170)" d="M2219.36 164.636 Q2217.55 169.266 2215.84 170.678 Q2214.13 172.09 2211.26 172.09 L2207.85 172.09 L2207.85 168.525 L2210.35 168.525 Q2212.11 168.525 2213.09 167.692 Q2214.06 166.858 2215.24 163.756 L2216 161.812 L2205.52 136.303 L2210.03 136.303 L2218.13 156.581 L2226.23 136.303 L2230.75 136.303 L2219.36 164.636 Z" fill="#000000" fill-rule="evenodd" fill-opacity="1" /><path clip-path="url(#clip170)" d="M2238.04 158.293 L2245.68 158.293 L2245.68 131.928 L2237.37 133.595 L2237.37 129.335 L2245.63 127.669 L2250.31 127.669 L2250.31 158.293 L2257.95 158.293 L2257.95 162.229 L2238.04 162.229 L2238.04 158.293 Z" fill="#000000" fill-rule="evenodd" fill-opacity="1" /></svg>
