<?xml version="1.0" encoding="utf-8"?>
<svg xmlns="http://www.w3.org/2000/svg" xmlns:xlink="http://www.w3.org/1999/xlink" width="600" height="400" viewBox="0 0 2400 1600">
<defs>
  <clipPath id="clip930">
    <rect x="0" y="0" width="2400" height="1600"/>
  </clipPath>
</defs>
<path clip-path="url(#clip930)" d="M0 1600 L2400 1600 L2400 0 L0 0  Z" fill="#ffffff" fill-rule="evenodd" fill-opacity="1"/>
<defs>
  <clipPath id="clip931">
    <rect x="480" y="0" width="1681" height="1600"/>
  </clipPath>
</defs>
<path clip-path="url(#clip930)" d="M249.542 1423.18 L2352.76 1423.18 L2352.76 47.2441 L249.542 47.2441  Z" fill="#ffffff" fill-rule="evenodd" fill-opacity="1"/>
<defs>
  <clipPath id="clip932">
    <rect x="249" y="47" width="2104" height="1377"/>
  </clipPath>
</defs>
<polyline clip-path="url(#clip932)" style="stroke:#000000; stroke-linecap:round; stroke-linejoin:round; stroke-width:2; stroke-opacity:0.1; fill:none" points="474.751,1423.18 474.751,47.2441 "/>
<polyline clip-path="url(#clip932)" style="stroke:#000000; stroke-linecap:round; stroke-linejoin:round; stroke-width:2; stroke-opacity:0.1; fill:none" points="943.52,1423.18 943.52,47.2441 "/>
<polyline clip-path="url(#clip932)" style="stroke:#000000; stroke-linecap:round; stroke-linejoin:round; stroke-width:2; stroke-opacity:0.1; fill:none" points="1412.29,1423.18 1412.29,47.2441 "/>
<polyline clip-path="url(#clip932)" style="stroke:#000000; stroke-linecap:round; stroke-linejoin:round; stroke-width:2; stroke-opacity:0.1; fill:none" points="1881.06,1423.18 1881.06,47.2441 "/>
<polyline clip-path="url(#clip932)" style="stroke:#000000; stroke-linecap:round; stroke-linejoin:round; stroke-width:2; stroke-opacity:0.1; fill:none" points="2349.83,1423.18 2349.83,47.2441 "/>
<polyline clip-path="url(#clip930)" style="stroke:#000000; stroke-linecap:round; stroke-linejoin:round; stroke-width:4; stroke-opacity:1; fill:none" points="249.542,1423.18 2352.76,1423.18 "/>
<polyline clip-path="url(#clip930)" style="stroke:#000000; stroke-linecap:round; stroke-linejoin:round; stroke-width:4; stroke-opacity:1; fill:none" points="474.751,1423.18 474.751,1404.28 "/>
<polyline clip-path="url(#clip930)" style="stroke:#000000; stroke-linecap:round; stroke-linejoin:round; stroke-width:4; stroke-opacity:1; fill:none" points="943.52,1423.18 943.52,1404.28 "/>
<polyline clip-path="url(#clip930)" style="stroke:#000000; stroke-linecap:round; stroke-linejoin:round; stroke-width:4; stroke-opacity:1; fill:none" points="1412.29,1423.18 1412.29,1404.28 "/>
<polyline clip-path="url(#clip930)" style="stroke:#000000; stroke-linecap:round; stroke-linejoin:round; stroke-width:4; stroke-opacity:1; fill:none" points="1881.06,1423.18 1881.06,1404.28 "/>
<polyline clip-path="url(#clip930)" style="stroke:#000000; stroke-linecap:round; stroke-linejoin:round; stroke-width:4; stroke-opacity:1; fill:none" points="2349.83,1423.18 2349.83,1404.28 "/>
<path clip-path="url(#clip930)" d="M437.054 1454.1 Q433.443 1454.1 431.614 1457.66 Q429.809 1461.2 429.809 1468.33 Q429.809 1475.44 431.614 1479.01 Q433.443 1482.55 437.054 1482.55 Q440.688 1482.55 442.494 1479.01 Q444.323 1475.44 444.323 1468.33 Q444.323 1461.2 442.494 1457.66 Q440.688 1454.1 437.054 1454.1 M437.054 1450.39 Q442.864 1450.39 445.92 1455 Q448.999 1459.58 448.999 1468.33 Q448.999 1477.06 445.92 1481.67 Q442.864 1486.25 437.054 1486.25 Q431.244 1486.25 428.165 1481.67 Q425.11 1477.06 425.11 1468.33 Q425.11 1459.58 428.165 1455 Q431.244 1450.39 437.054 1450.39 Z" fill="#000000" fill-rule="evenodd" fill-opacity="1" /><path clip-path="url(#clip930)" d="M457.216 1479.7 L462.1 1479.7 L462.1 1485.58 L457.216 1485.58 L457.216 1479.7 Z" fill="#000000" fill-rule="evenodd" fill-opacity="1" /><path clip-path="url(#clip930)" d="M482.285 1454.1 Q478.674 1454.1 476.846 1457.66 Q475.04 1461.2 475.04 1468.33 Q475.04 1475.44 476.846 1479.01 Q478.674 1482.55 482.285 1482.55 Q485.92 1482.55 487.725 1479.01 Q489.554 1475.44 489.554 1468.33 Q489.554 1461.2 487.725 1457.66 Q485.92 1454.1 482.285 1454.1 M482.285 1450.39 Q488.096 1450.39 491.151 1455 Q494.23 1459.58 494.23 1468.33 Q494.23 1477.06 491.151 1481.67 Q488.096 1486.25 482.285 1486.25 Q476.475 1486.25 473.397 1481.67 Q470.341 1477.06 470.341 1468.33 Q470.341 1459.58 473.397 1455 Q476.475 1450.39 482.285 1450.39 Z" fill="#000000" fill-rule="evenodd" fill-opacity="1" /><path clip-path="url(#clip930)" d="M512.447 1454.1 Q508.836 1454.1 507.007 1457.66 Q505.202 1461.2 505.202 1468.33 Q505.202 1475.44 507.007 1479.01 Q508.836 1482.55 512.447 1482.55 Q516.082 1482.55 517.887 1479.01 Q519.716 1475.44 519.716 1468.33 Q519.716 1461.2 517.887 1457.66 Q516.082 1454.1 512.447 1454.1 M512.447 1450.39 Q518.257 1450.39 521.313 1455 Q524.392 1459.58 524.392 1468.33 Q524.392 1477.06 521.313 1481.67 Q518.257 1486.25 512.447 1486.25 Q506.637 1486.25 503.558 1481.67 Q500.503 1477.06 500.503 1468.33 Q500.503 1459.58 503.558 1455 Q506.637 1450.39 512.447 1450.39 Z" fill="#000000" fill-rule="evenodd" fill-opacity="1" /><path clip-path="url(#clip930)" d="M906.321 1454.1 Q902.71 1454.1 900.881 1457.66 Q899.076 1461.2 899.076 1468.33 Q899.076 1475.44 900.881 1479.01 Q902.71 1482.55 906.321 1482.55 Q909.955 1482.55 911.761 1479.01 Q913.59 1475.44 913.59 1468.33 Q913.59 1461.2 911.761 1457.66 Q909.955 1454.1 906.321 1454.1 M906.321 1450.39 Q912.131 1450.39 915.187 1455 Q918.265 1459.58 918.265 1468.33 Q918.265 1477.06 915.187 1481.67 Q912.131 1486.25 906.321 1486.25 Q900.511 1486.25 897.432 1481.67 Q894.377 1477.06 894.377 1468.33 Q894.377 1459.58 897.432 1455 Q900.511 1450.39 906.321 1450.39 Z" fill="#000000" fill-rule="evenodd" fill-opacity="1" /><path clip-path="url(#clip930)" d="M926.483 1479.7 L931.367 1479.7 L931.367 1485.58 L926.483 1485.58 L926.483 1479.7 Z" fill="#000000" fill-rule="evenodd" fill-opacity="1" /><path clip-path="url(#clip930)" d="M945.58 1481.64 L961.899 1481.64 L961.899 1485.58 L939.955 1485.58 L939.955 1481.64 Q942.617 1478.89 947.2 1474.26 Q951.807 1469.61 952.987 1468.27 Q955.233 1465.74 956.112 1464.01 Q957.015 1462.25 957.015 1460.56 Q957.015 1457.8 955.071 1456.07 Q953.15 1454.33 950.048 1454.33 Q947.849 1454.33 945.395 1455.09 Q942.964 1455.86 940.187 1457.41 L940.187 1452.69 Q943.011 1451.55 945.464 1450.97 Q947.918 1450.39 949.955 1450.39 Q955.325 1450.39 958.52 1453.08 Q961.714 1455.77 961.714 1460.26 Q961.714 1462.39 960.904 1464.31 Q960.117 1466.2 958.011 1468.8 Q957.432 1469.47 954.33 1472.69 Q951.228 1475.88 945.58 1481.64 Z" fill="#000000" fill-rule="evenodd" fill-opacity="1" /><path clip-path="url(#clip930)" d="M971.761 1451.02 L990.117 1451.02 L990.117 1454.96 L976.043 1454.96 L976.043 1463.43 Q977.061 1463.08 978.08 1462.92 Q979.098 1462.73 980.117 1462.73 Q985.904 1462.73 989.284 1465.9 Q992.663 1469.08 992.663 1474.49 Q992.663 1480.07 989.191 1483.17 Q985.719 1486.25 979.399 1486.25 Q977.223 1486.25 974.955 1485.88 Q972.71 1485.51 970.302 1484.77 L970.302 1480.07 Q972.386 1481.2 974.608 1481.76 Q976.83 1482.32 979.307 1482.32 Q983.311 1482.32 985.649 1480.21 Q987.987 1478.1 987.987 1474.49 Q987.987 1470.88 985.649 1468.77 Q983.311 1466.67 979.307 1466.67 Q977.432 1466.67 975.557 1467.08 Q973.705 1467.5 971.761 1468.38 L971.761 1451.02 Z" fill="#000000" fill-rule="evenodd" fill-opacity="1" /><path clip-path="url(#clip930)" d="M1374.59 1454.1 Q1370.98 1454.1 1369.15 1457.66 Q1367.35 1461.2 1367.35 1468.33 Q1367.35 1475.44 1369.15 1479.01 Q1370.98 1482.55 1374.59 1482.55 Q1378.23 1482.55 1380.03 1479.01 Q1381.86 1475.44 1381.86 1468.33 Q1381.86 1461.2 1380.03 1457.66 Q1378.23 1454.1 1374.59 1454.1 M1374.59 1450.39 Q1380.4 1450.39 1383.46 1455 Q1386.54 1459.58 1386.54 1468.33 Q1386.54 1477.06 1383.46 1481.67 Q1380.4 1486.25 1374.59 1486.25 Q1368.78 1486.25 1365.7 1481.67 Q1362.65 1477.06 1362.65 1468.33 Q1362.65 1459.58 1365.7 1455 Q1368.78 1450.39 1374.59 1450.39 Z" fill="#000000" fill-rule="evenodd" fill-opacity="1" /><path clip-path="url(#clip930)" d="M1394.75 1479.7 L1399.64 1479.7 L1399.64 1485.58 L1394.75 1485.58 L1394.75 1479.7 Z" fill="#000000" fill-rule="evenodd" fill-opacity="1" /><path clip-path="url(#clip930)" d="M1409.87 1451.02 L1428.23 1451.02 L1428.23 1454.96 L1414.15 1454.96 L1414.15 1463.43 Q1415.17 1463.08 1416.19 1462.92 Q1417.21 1462.73 1418.23 1462.73 Q1424.01 1462.73 1427.39 1465.9 Q1430.77 1469.08 1430.77 1474.49 Q1430.77 1480.07 1427.3 1483.17 Q1423.83 1486.25 1417.51 1486.25 Q1415.33 1486.25 1413.06 1485.88 Q1410.82 1485.51 1408.41 1484.77 L1408.41 1480.07 Q1410.5 1481.2 1412.72 1481.76 Q1414.94 1482.32 1417.42 1482.32 Q1421.42 1482.32 1423.76 1480.21 Q1426.1 1478.1 1426.1 1474.49 Q1426.1 1470.88 1423.76 1468.77 Q1421.42 1466.67 1417.42 1466.67 Q1415.54 1466.67 1413.67 1467.08 Q1411.81 1467.5 1409.87 1468.38 L1409.87 1451.02 Z" fill="#000000" fill-rule="evenodd" fill-opacity="1" /><path clip-path="url(#clip930)" d="M1449.99 1454.1 Q1446.37 1454.1 1444.55 1457.66 Q1442.74 1461.2 1442.74 1468.33 Q1442.74 1475.44 1444.55 1479.01 Q1446.37 1482.55 1449.99 1482.55 Q1453.62 1482.55 1455.43 1479.01 Q1457.25 1475.44 1457.25 1468.33 Q1457.25 1461.2 1455.43 1457.66 Q1453.62 1454.1 1449.99 1454.1 M1449.99 1450.39 Q1455.8 1450.39 1458.85 1455 Q1461.93 1459.58 1461.93 1468.33 Q1461.93 1477.06 1458.85 1481.67 Q1455.8 1486.25 1449.99 1486.25 Q1444.18 1486.25 1441.1 1481.67 Q1438.04 1477.06 1438.04 1468.33 Q1438.04 1459.58 1441.1 1455 Q1444.18 1450.39 1449.99 1450.39 Z" fill="#000000" fill-rule="evenodd" fill-opacity="1" /><path clip-path="url(#clip930)" d="M1843.86 1454.1 Q1840.25 1454.1 1838.42 1457.66 Q1836.61 1461.2 1836.61 1468.33 Q1836.61 1475.44 1838.42 1479.01 Q1840.25 1482.55 1843.86 1482.55 Q1847.49 1482.55 1849.3 1479.01 Q1851.13 1475.44 1851.13 1468.33 Q1851.13 1461.2 1849.3 1457.66 Q1847.49 1454.1 1843.86 1454.1 M1843.86 1450.39 Q1849.67 1450.39 1852.73 1455 Q1855.8 1459.58 1855.8 1468.33 Q1855.8 1477.06 1852.73 1481.67 Q1849.67 1486.25 1843.86 1486.25 Q1838.05 1486.25 1834.97 1481.67 Q1831.92 1477.06 1831.92 1468.33 Q1831.92 1459.58 1834.97 1455 Q1838.05 1450.39 1843.86 1450.39 Z" fill="#000000" fill-rule="evenodd" fill-opacity="1" /><path clip-path="url(#clip930)" d="M1864.02 1479.7 L1868.91 1479.7 L1868.91 1485.58 L1864.02 1485.58 L1864.02 1479.7 Z" fill="#000000" fill-rule="evenodd" fill-opacity="1" /><path clip-path="url(#clip930)" d="M1877.91 1451.02 L1900.13 1451.02 L1900.13 1453.01 L1887.59 1485.58 L1882.7 1485.58 L1894.51 1454.96 L1877.91 1454.96 L1877.91 1451.02 Z" fill="#000000" fill-rule="evenodd" fill-opacity="1" /><path clip-path="url(#clip930)" d="M1909.3 1451.02 L1927.66 1451.02 L1927.66 1454.96 L1913.58 1454.96 L1913.58 1463.43 Q1914.6 1463.08 1915.62 1462.92 Q1916.64 1462.73 1917.66 1462.73 Q1923.44 1462.73 1926.82 1465.9 Q1930.2 1469.08 1930.2 1474.49 Q1930.2 1480.07 1926.73 1483.17 Q1923.26 1486.25 1916.94 1486.25 Q1914.76 1486.25 1912.49 1485.88 Q1910.25 1485.51 1907.84 1484.77 L1907.84 1480.07 Q1909.92 1481.2 1912.15 1481.76 Q1914.37 1482.32 1916.85 1482.32 Q1920.85 1482.32 1923.19 1480.21 Q1925.53 1478.1 1925.53 1474.49 Q1925.53 1470.88 1923.19 1468.77 Q1920.85 1466.67 1916.85 1466.67 Q1914.97 1466.67 1913.1 1467.08 Q1911.24 1467.5 1909.3 1468.38 L1909.3 1451.02 Z" fill="#000000" fill-rule="evenodd" fill-opacity="1" /><path clip-path="url(#clip930)" d="M2301.9 1481.64 L2309.54 1481.64 L2309.54 1455.28 L2301.23 1456.95 L2301.23 1452.69 L2309.49 1451.02 L2314.17 1451.02 L2314.17 1481.64 L2321.81 1481.64 L2321.81 1485.58 L2301.9 1485.58 L2301.9 1481.64 Z" fill="#000000" fill-rule="evenodd" fill-opacity="1" /><path clip-path="url(#clip930)" d="M2331.25 1479.7 L2336.14 1479.7 L2336.14 1485.58 L2331.25 1485.58 L2331.25 1479.7 Z" fill="#000000" fill-rule="evenodd" fill-opacity="1" /><path clip-path="url(#clip930)" d="M2356.32 1454.1 Q2352.71 1454.1 2350.88 1457.66 Q2349.08 1461.2 2349.08 1468.33 Q2349.08 1475.44 2350.88 1479.01 Q2352.71 1482.55 2356.32 1482.55 Q2359.95 1482.55 2361.76 1479.01 Q2363.59 1475.44 2363.59 1468.33 Q2363.59 1461.2 2361.76 1457.66 Q2359.95 1454.1 2356.32 1454.1 M2356.32 1450.39 Q2362.13 1450.39 2365.19 1455 Q2368.26 1459.58 2368.26 1468.33 Q2368.26 1477.06 2365.19 1481.67 Q2362.13 1486.25 2356.32 1486.25 Q2350.51 1486.25 2347.43 1481.67 Q2344.38 1477.06 2344.38 1468.33 Q2344.38 1459.58 2347.43 1455 Q2350.51 1450.39 2356.32 1450.39 Z" fill="#000000" fill-rule="evenodd" fill-opacity="1" /><path clip-path="url(#clip930)" d="M2386.48 1454.1 Q2382.87 1454.1 2381.04 1457.66 Q2379.24 1461.2 2379.24 1468.33 Q2379.24 1475.44 2381.04 1479.01 Q2382.87 1482.55 2386.48 1482.55 Q2390.12 1482.55 2391.92 1479.01 Q2393.75 1475.44 2393.75 1468.33 Q2393.75 1461.2 2391.92 1457.66 Q2390.12 1454.1 2386.48 1454.1 M2386.48 1450.39 Q2392.29 1450.39 2395.35 1455 Q2398.43 1459.58 2398.43 1468.33 Q2398.43 1477.06 2395.35 1481.67 Q2392.29 1486.25 2386.48 1486.25 Q2380.67 1486.25 2377.59 1481.67 Q2374.54 1477.06 2374.54 1468.33 Q2374.54 1459.58 2377.59 1455 Q2380.67 1450.39 2386.48 1450.39 Z" fill="#000000" fill-rule="evenodd" fill-opacity="1" /><path clip-path="url(#clip930)" d="M1285.84 1520.52 L1315.89 1520.52 L1315.89 1525.93 L1292.27 1525.93 L1292.27 1540 L1314.9 1540 L1314.9 1545.41 L1292.27 1545.41 L1292.27 1562.63 L1316.46 1562.63 L1316.46 1568.04 L1285.84 1568.04 L1285.84 1520.52 Z" fill="#000000" fill-rule="evenodd" fill-opacity="1" /><polyline clip-path="url(#clip932)" style="stroke:#000000; stroke-linecap:round; stroke-linejoin:round; stroke-width:2; stroke-opacity:0.1; fill:none" points="249.542,1384.24 2352.76,1384.24 "/>
<polyline clip-path="url(#clip932)" style="stroke:#000000; stroke-linecap:round; stroke-linejoin:round; stroke-width:2; stroke-opacity:0.1; fill:none" points="249.542,1142.15 2352.76,1142.15 "/>
<polyline clip-path="url(#clip932)" style="stroke:#000000; stroke-linecap:round; stroke-linejoin:round; stroke-width:2; stroke-opacity:0.1; fill:none" points="249.542,900.068 2352.76,900.068 "/>
<polyline clip-path="url(#clip932)" style="stroke:#000000; stroke-linecap:round; stroke-linejoin:round; stroke-width:2; stroke-opacity:0.1; fill:none" points="249.542,657.983 2352.76,657.983 "/>
<polyline clip-path="url(#clip932)" style="stroke:#000000; stroke-linecap:round; stroke-linejoin:round; stroke-width:2; stroke-opacity:0.1; fill:none" points="249.542,415.898 2352.76,415.898 "/>
<polyline clip-path="url(#clip932)" style="stroke:#000000; stroke-linecap:round; stroke-linejoin:round; stroke-width:2; stroke-opacity:0.1; fill:none" points="249.542,173.813 2352.76,173.813 "/>
<polyline clip-path="url(#clip930)" style="stroke:#000000; stroke-linecap:round; stroke-linejoin:round; stroke-width:4; stroke-opacity:1; fill:none" points="249.542,1423.18 249.542,47.2441 "/>
<polyline clip-path="url(#clip930)" style="stroke:#000000; stroke-linecap:round; stroke-linejoin:round; stroke-width:4; stroke-opacity:1; fill:none" points="249.542,1384.24 268.44,1384.24 "/>
<polyline clip-path="url(#clip930)" style="stroke:#000000; stroke-linecap:round; stroke-linejoin:round; stroke-width:4; stroke-opacity:1; fill:none" points="249.542,1142.15 268.44,1142.15 "/>
<polyline clip-path="url(#clip930)" style="stroke:#000000; stroke-linecap:round; stroke-linejoin:round; stroke-width:4; stroke-opacity:1; fill:none" points="249.542,900.068 268.44,900.068 "/>
<polyline clip-path="url(#clip930)" style="stroke:#000000; stroke-linecap:round; stroke-linejoin:round; stroke-width:4; stroke-opacity:1; fill:none" points="249.542,657.983 268.44,657.983 "/>
<polyline clip-path="url(#clip930)" style="stroke:#000000; stroke-linecap:round; stroke-linejoin:round; stroke-width:4; stroke-opacity:1; fill:none" points="249.542,415.898 268.44,415.898 "/>
<polyline clip-path="url(#clip930)" style="stroke:#000000; stroke-linecap:round; stroke-linejoin:round; stroke-width:4; stroke-opacity:1; fill:none" points="249.542,173.813 268.44,173.813 "/>
<path clip-path="url(#clip930)" d="M126.205 1370.04 Q122.593 1370.04 120.765 1373.6 Q118.959 1377.14 118.959 1384.27 Q118.959 1391.38 120.765 1394.94 Q122.593 1398.49 126.205 1398.49 Q129.839 1398.49 131.644 1394.94 Q133.473 1391.38 133.473 1384.27 Q133.473 1377.14 131.644 1373.6 Q129.839 1370.04 126.205 1370.04 M126.205 1366.33 Q132.015 1366.33 135.07 1370.94 Q138.149 1375.52 138.149 1384.27 Q138.149 1393 135.07 1397.61 Q132.015 1402.19 126.205 1402.19 Q120.394 1402.19 117.316 1397.61 Q114.26 1393 114.26 1384.27 Q114.26 1375.52 117.316 1370.94 Q120.394 1366.33 126.205 1366.33 Z" fill="#000000" fill-rule="evenodd" fill-opacity="1" /><path clip-path="url(#clip930)" d="M146.366 1395.64 L151.251 1395.64 L151.251 1401.52 L146.366 1401.52 L146.366 1395.64 Z" fill="#000000" fill-rule="evenodd" fill-opacity="1" /><path clip-path="url(#clip930)" d="M171.436 1370.04 Q167.825 1370.04 165.996 1373.6 Q164.19 1377.14 164.19 1384.27 Q164.19 1391.38 165.996 1394.94 Q167.825 1398.49 171.436 1398.49 Q175.07 1398.49 176.876 1394.94 Q178.704 1391.38 178.704 1384.27 Q178.704 1377.14 176.876 1373.6 Q175.07 1370.04 171.436 1370.04 M171.436 1366.33 Q177.246 1366.33 180.301 1370.94 Q183.38 1375.52 183.38 1384.27 Q183.38 1393 180.301 1397.61 Q177.246 1402.19 171.436 1402.19 Q165.626 1402.19 162.547 1397.61 Q159.491 1393 159.491 1384.27 Q159.491 1375.52 162.547 1370.94 Q165.626 1366.33 171.436 1366.33 Z" fill="#000000" fill-rule="evenodd" fill-opacity="1" /><path clip-path="url(#clip930)" d="M201.598 1370.04 Q197.987 1370.04 196.158 1373.6 Q194.352 1377.14 194.352 1384.27 Q194.352 1391.38 196.158 1394.94 Q197.987 1398.49 201.598 1398.49 Q205.232 1398.49 207.037 1394.94 Q208.866 1391.38 208.866 1384.27 Q208.866 1377.14 207.037 1373.6 Q205.232 1370.04 201.598 1370.04 M201.598 1366.33 Q207.408 1366.33 210.463 1370.94 Q213.542 1375.52 213.542 1384.27 Q213.542 1393 210.463 1397.61 Q207.408 1402.19 201.598 1402.19 Q195.787 1402.19 192.709 1397.61 Q189.653 1393 189.653 1384.27 Q189.653 1375.52 192.709 1370.94 Q195.787 1366.33 201.598 1366.33 Z" fill="#000000" fill-rule="evenodd" fill-opacity="1" /><path clip-path="url(#clip930)" d="M127.2 1127.95 Q123.589 1127.95 121.76 1131.52 Q119.955 1135.06 119.955 1142.19 Q119.955 1149.29 121.76 1152.86 Q123.589 1156.4 127.2 1156.4 Q130.834 1156.4 132.64 1152.86 Q134.468 1149.29 134.468 1142.19 Q134.468 1135.06 132.64 1131.52 Q130.834 1127.95 127.2 1127.95 M127.2 1124.25 Q133.01 1124.25 136.066 1128.85 Q139.144 1133.44 139.144 1142.19 Q139.144 1150.91 136.066 1155.52 Q133.01 1160.1 127.2 1160.1 Q121.39 1160.1 118.311 1155.52 Q115.256 1150.91 115.256 1142.19 Q115.256 1133.44 118.311 1128.85 Q121.39 1124.25 127.2 1124.25 Z" fill="#000000" fill-rule="evenodd" fill-opacity="1" /><path clip-path="url(#clip930)" d="M147.362 1153.55 L152.246 1153.55 L152.246 1159.43 L147.362 1159.43 L147.362 1153.55 Z" fill="#000000" fill-rule="evenodd" fill-opacity="1" /><path clip-path="url(#clip930)" d="M172.431 1127.95 Q168.82 1127.95 166.991 1131.52 Q165.186 1135.06 165.186 1142.19 Q165.186 1149.29 166.991 1152.86 Q168.82 1156.4 172.431 1156.4 Q176.065 1156.4 177.871 1152.86 Q179.7 1149.29 179.7 1142.19 Q179.7 1135.06 177.871 1131.52 Q176.065 1127.95 172.431 1127.95 M172.431 1124.25 Q178.241 1124.25 181.297 1128.85 Q184.376 1133.44 184.376 1142.19 Q184.376 1150.91 181.297 1155.52 Q178.241 1160.1 172.431 1160.1 Q166.621 1160.1 163.542 1155.52 Q160.487 1150.91 160.487 1142.19 Q160.487 1133.44 163.542 1128.85 Q166.621 1124.25 172.431 1124.25 Z" fill="#000000" fill-rule="evenodd" fill-opacity="1" /><path clip-path="url(#clip930)" d="M192.639 1124.87 L210.996 1124.87 L210.996 1128.81 L196.922 1128.81 L196.922 1137.28 Q197.94 1136.93 198.959 1136.77 Q199.977 1136.59 200.996 1136.59 Q206.783 1136.59 210.162 1139.76 Q213.542 1142.93 213.542 1148.35 Q213.542 1153.92 210.07 1157.03 Q206.598 1160.1 200.278 1160.1 Q198.102 1160.1 195.834 1159.73 Q193.588 1159.36 191.181 1158.62 L191.181 1153.92 Q193.264 1155.06 195.487 1155.61 Q197.709 1156.17 200.186 1156.17 Q204.19 1156.17 206.528 1154.06 Q208.866 1151.96 208.866 1148.35 Q208.866 1144.73 206.528 1142.63 Q204.19 1140.52 200.186 1140.52 Q198.311 1140.52 196.436 1140.94 Q194.584 1141.35 192.639 1142.23 L192.639 1124.87 Z" fill="#000000" fill-rule="evenodd" fill-opacity="1" /><path clip-path="url(#clip930)" d="M126.205 885.867 Q122.593 885.867 120.765 889.432 Q118.959 892.973 118.959 900.103 Q118.959 907.209 120.765 910.774 Q122.593 914.316 126.205 914.316 Q129.839 914.316 131.644 910.774 Q133.473 907.209 133.473 900.103 Q133.473 892.973 131.644 889.432 Q129.839 885.867 126.205 885.867 M126.205 882.163 Q132.015 882.163 135.07 886.77 Q138.149 891.353 138.149 900.103 Q138.149 908.83 135.07 913.436 Q132.015 918.019 126.205 918.019 Q120.394 918.019 117.316 913.436 Q114.26 908.83 114.26 900.103 Q114.26 891.353 117.316 886.77 Q120.394 882.163 126.205 882.163 Z" fill="#000000" fill-rule="evenodd" fill-opacity="1" /><path clip-path="url(#clip930)" d="M146.366 911.469 L151.251 911.469 L151.251 917.348 L146.366 917.348 L146.366 911.469 Z" fill="#000000" fill-rule="evenodd" fill-opacity="1" /><path clip-path="url(#clip930)" d="M162.246 913.413 L169.885 913.413 L169.885 887.047 L161.575 888.714 L161.575 884.455 L169.839 882.788 L174.514 882.788 L174.514 913.413 L182.153 913.413 L182.153 917.348 L162.246 917.348 L162.246 913.413 Z" fill="#000000" fill-rule="evenodd" fill-opacity="1" /><path clip-path="url(#clip930)" d="M201.598 885.867 Q197.987 885.867 196.158 889.432 Q194.352 892.973 194.352 900.103 Q194.352 907.209 196.158 910.774 Q197.987 914.316 201.598 914.316 Q205.232 914.316 207.037 910.774 Q208.866 907.209 208.866 900.103 Q208.866 892.973 207.037 889.432 Q205.232 885.867 201.598 885.867 M201.598 882.163 Q207.408 882.163 210.463 886.77 Q213.542 891.353 213.542 900.103 Q213.542 908.83 210.463 913.436 Q207.408 918.019 201.598 918.019 Q195.787 918.019 192.709 913.436 Q189.653 908.83 189.653 900.103 Q189.653 891.353 192.709 886.77 Q195.787 882.163 201.598 882.163 Z" fill="#000000" fill-rule="evenodd" fill-opacity="1" /><path clip-path="url(#clip930)" d="M127.2 643.782 Q123.589 643.782 121.76 647.347 Q119.955 650.888 119.955 658.018 Q119.955 665.124 121.76 668.689 Q123.589 672.231 127.2 672.231 Q130.834 672.231 132.64 668.689 Q134.468 665.124 134.468 658.018 Q134.468 650.888 132.64 647.347 Q130.834 643.782 127.2 643.782 M127.2 640.078 Q133.01 640.078 136.066 644.685 Q139.144 649.268 139.144 658.018 Q139.144 666.745 136.066 671.351 Q133.01 675.934 127.2 675.934 Q121.39 675.934 118.311 671.351 Q115.256 666.745 115.256 658.018 Q115.256 649.268 118.311 644.685 Q121.39 640.078 127.2 640.078 Z" fill="#000000" fill-rule="evenodd" fill-opacity="1" /><path clip-path="url(#clip930)" d="M147.362 669.384 L152.246 669.384 L152.246 675.263 L147.362 675.263 L147.362 669.384 Z" fill="#000000" fill-rule="evenodd" fill-opacity="1" /><path clip-path="url(#clip930)" d="M163.241 671.328 L170.88 671.328 L170.88 644.962 L162.57 646.629 L162.57 642.37 L170.834 640.703 L175.51 640.703 L175.51 671.328 L183.149 671.328 L183.149 675.263 L163.241 675.263 L163.241 671.328 Z" fill="#000000" fill-rule="evenodd" fill-opacity="1" /><path clip-path="url(#clip930)" d="M192.639 640.703 L210.996 640.703 L210.996 644.638 L196.922 644.638 L196.922 653.11 Q197.94 652.763 198.959 652.601 Q199.977 652.416 200.996 652.416 Q206.783 652.416 210.162 655.587 Q213.542 658.759 213.542 664.175 Q213.542 669.754 210.07 672.856 Q206.598 675.934 200.278 675.934 Q198.102 675.934 195.834 675.564 Q193.588 675.194 191.181 674.453 L191.181 669.754 Q193.264 670.888 195.487 671.444 Q197.709 671.999 200.186 671.999 Q204.19 671.999 206.528 669.893 Q208.866 667.786 208.866 664.175 Q208.866 660.564 206.528 658.458 Q204.19 656.351 200.186 656.351 Q198.311 656.351 196.436 656.768 Q194.584 657.185 192.639 658.064 L192.639 640.703 Z" fill="#000000" fill-rule="evenodd" fill-opacity="1" /><path clip-path="url(#clip930)" d="M126.205 401.697 Q122.593 401.697 120.765 405.262 Q118.959 408.803 118.959 415.933 Q118.959 423.039 120.765 426.604 Q122.593 430.146 126.205 430.146 Q129.839 430.146 131.644 426.604 Q133.473 423.039 133.473 415.933 Q133.473 408.803 131.644 405.262 Q129.839 401.697 126.205 401.697 M126.205 397.993 Q132.015 397.993 135.07 402.6 Q138.149 407.183 138.149 415.933 Q138.149 424.66 135.07 429.266 Q132.015 433.849 126.205 433.849 Q120.394 433.849 117.316 429.266 Q114.26 424.66 114.26 415.933 Q114.26 407.183 117.316 402.6 Q120.394 397.993 126.205 397.993 Z" fill="#000000" fill-rule="evenodd" fill-opacity="1" /><path clip-path="url(#clip930)" d="M146.366 427.298 L151.251 427.298 L151.251 433.178 L146.366 433.178 L146.366 427.298 Z" fill="#000000" fill-rule="evenodd" fill-opacity="1" /><path clip-path="url(#clip930)" d="M165.464 429.243 L181.783 429.243 L181.783 433.178 L159.839 433.178 L159.839 429.243 Q162.501 426.488 167.084 421.859 Q171.69 417.206 172.871 415.863 Q175.116 413.34 175.996 411.604 Q176.899 409.845 176.899 408.155 Q176.899 405.4 174.954 403.664 Q173.033 401.928 169.931 401.928 Q167.732 401.928 165.278 402.692 Q162.848 403.456 160.07 405.007 L160.07 400.285 Q162.894 399.151 165.348 398.572 Q167.802 397.993 169.839 397.993 Q175.209 397.993 178.403 400.678 Q181.598 403.363 181.598 407.854 Q181.598 409.984 180.788 411.905 Q180.001 413.803 177.894 416.396 Q177.315 417.067 174.214 420.285 Q171.112 423.479 165.464 429.243 Z" fill="#000000" fill-rule="evenodd" fill-opacity="1" /><path clip-path="url(#clip930)" d="M201.598 401.697 Q197.987 401.697 196.158 405.262 Q194.352 408.803 194.352 415.933 Q194.352 423.039 196.158 426.604 Q197.987 430.146 201.598 430.146 Q205.232 430.146 207.037 426.604 Q208.866 423.039 208.866 415.933 Q208.866 408.803 207.037 405.262 Q205.232 401.697 201.598 401.697 M201.598 397.993 Q207.408 397.993 210.463 402.6 Q213.542 407.183 213.542 415.933 Q213.542 424.66 210.463 429.266 Q207.408 433.849 201.598 433.849 Q195.787 433.849 192.709 429.266 Q189.653 424.66 189.653 415.933 Q189.653 407.183 192.709 402.6 Q195.787 397.993 201.598 397.993 Z" fill="#000000" fill-rule="evenodd" fill-opacity="1" /><path clip-path="url(#clip930)" d="M127.2 159.612 Q123.589 159.612 121.76 163.177 Q119.955 166.718 119.955 173.848 Q119.955 180.954 121.76 184.519 Q123.589 188.061 127.2 188.061 Q130.834 188.061 132.64 184.519 Q134.468 180.954 134.468 173.848 Q134.468 166.718 132.64 163.177 Q130.834 159.612 127.2 159.612 M127.2 155.908 Q133.01 155.908 136.066 160.515 Q139.144 165.098 139.144 173.848 Q139.144 182.575 136.066 187.181 Q133.01 191.764 127.2 191.764 Q121.39 191.764 118.311 187.181 Q115.256 182.575 115.256 173.848 Q115.256 165.098 118.311 160.515 Q121.39 155.908 127.2 155.908 Z" fill="#000000" fill-rule="evenodd" fill-opacity="1" /><path clip-path="url(#clip930)" d="M147.362 185.213 L152.246 185.213 L152.246 191.093 L147.362 191.093 L147.362 185.213 Z" fill="#000000" fill-rule="evenodd" fill-opacity="1" /><path clip-path="url(#clip930)" d="M166.459 187.158 L182.778 187.158 L182.778 191.093 L160.834 191.093 L160.834 187.158 Q163.496 184.403 168.079 179.774 Q172.686 175.121 173.866 173.778 Q176.112 171.255 176.991 169.519 Q177.894 167.76 177.894 166.07 Q177.894 163.315 175.95 161.579 Q174.028 159.843 170.927 159.843 Q168.727 159.843 166.274 160.607 Q163.843 161.371 161.065 162.922 L161.065 158.2 Q163.89 157.065 166.343 156.487 Q168.797 155.908 170.834 155.908 Q176.204 155.908 179.399 158.593 Q182.593 161.278 182.593 165.769 Q182.593 167.899 181.783 169.82 Q180.996 171.718 178.889 174.311 Q178.311 174.982 175.209 178.2 Q172.107 181.394 166.459 187.158 Z" fill="#000000" fill-rule="evenodd" fill-opacity="1" /><path clip-path="url(#clip930)" d="M192.639 156.533 L210.996 156.533 L210.996 160.468 L196.922 160.468 L196.922 168.94 Q197.94 168.593 198.959 168.431 Q199.977 168.246 200.996 168.246 Q206.783 168.246 210.162 171.417 Q213.542 174.589 213.542 180.005 Q213.542 185.584 210.07 188.686 Q206.598 191.764 200.278 191.764 Q198.102 191.764 195.834 191.394 Q193.588 191.024 191.181 190.283 L191.181 185.584 Q193.264 186.718 195.487 187.274 Q197.709 187.829 200.186 187.829 Q204.19 187.829 206.528 185.723 Q208.866 183.616 208.866 180.005 Q208.866 176.394 206.528 174.288 Q204.19 172.181 200.186 172.181 Q198.311 172.181 196.436 172.598 Q194.584 173.014 192.639 173.894 L192.639 156.533 Z" fill="#000000" fill-rule="evenodd" fill-opacity="1" /><path clip-path="url(#clip930)" d="M20.8447 951.36 Q20.8447 958.362 26.0645 962.5 Q31.2844 966.605 40.2919 966.605 Q49.2675 966.605 54.4874 962.5 Q59.7073 958.362 59.7073 951.36 Q59.7073 944.357 54.4874 940.283 Q49.2675 936.177 40.2919 936.177 Q31.2844 936.177 26.0645 940.283 Q20.8447 944.357 20.8447 951.36 M15.6248 951.36 Q15.6248 941.365 22.3406 935.382 Q29.0246 929.398 40.2919 929.398 Q51.5274 929.398 58.2432 935.382 Q64.9272 941.365 64.9272 951.36 Q64.9272 961.386 58.2432 967.401 Q51.5592 973.385 40.2919 973.385 Q29.0246 973.385 22.3406 967.401 Q15.6248 961.386 15.6248 951.36 Z" fill="#000000" fill-rule="evenodd" fill-opacity="1" /><path clip-path="url(#clip930)" d="M28.3562 923.796 L28.3562 917.589 L58.275 906.449 L28.3562 895.309 L28.3562 889.103 L64.0042 902.471 L64.0042 910.428 L28.3562 923.796 Z" fill="#000000" fill-rule="evenodd" fill-opacity="1" /><path clip-path="url(#clip930)" d="M44.7161 850.527 L47.5806 850.527 L47.5806 877.454 Q53.6281 877.072 56.8109 873.825 Q59.9619 870.547 59.9619 864.722 Q59.9619 861.348 59.1344 858.197 Q58.3069 855.015 56.6518 851.895 L62.1899 851.895 Q63.5267 855.046 64.227 858.357 Q64.9272 861.667 64.9272 865.072 Q64.9272 873.602 59.9619 878.6 Q54.9967 883.565 46.5303 883.565 Q37.7774 883.565 32.6531 878.854 Q27.4968 874.112 27.4968 866.091 Q27.4968 858.898 32.1438 854.728 Q36.7589 850.527 44.7161 850.527 M42.9973 856.383 Q38.1912 856.447 35.3266 859.089 Q32.4621 861.699 32.4621 866.027 Q32.4621 870.929 35.2312 873.889 Q38.0002 876.817 43.0292 877.263 L42.9973 856.383 Z" fill="#000000" fill-rule="evenodd" fill-opacity="1" /><path clip-path="url(#clip930)" d="M33.8307 820.258 Q33.2578 821.244 33.0032 822.422 Q32.7167 823.568 32.7167 824.968 Q32.7167 829.934 35.9632 832.607 Q39.1779 835.249 45.2253 835.249 L64.0042 835.249 L64.0042 841.137 L28.3562 841.137 L28.3562 835.249 L33.8944 835.249 Q30.6479 833.403 29.0883 830.443 Q27.4968 827.483 27.4968 823.25 Q27.4968 822.645 27.5923 821.913 Q27.656 821.181 27.8151 820.29 L33.8307 820.258 Z" fill="#000000" fill-rule="evenodd" fill-opacity="1" /><path clip-path="url(#clip930)" d="M14.479 814.115 L14.479 808.258 L64.0042 808.258 L64.0042 814.115 L14.479 814.115 Z" fill="#000000" fill-rule="evenodd" fill-opacity="1" /><path clip-path="url(#clip930)" d="M46.0847 779.804 Q46.0847 786.902 47.7079 789.639 Q49.3312 792.376 53.2461 792.376 Q56.3653 792.376 58.2114 790.339 Q60.0256 788.27 60.0256 784.737 Q60.0256 779.867 56.5881 776.939 Q53.1188 773.979 47.3897 773.979 L46.0847 773.979 L46.0847 779.804 M43.6657 768.123 L64.0042 768.123 L64.0042 773.979 L58.5933 773.979 Q61.8398 775.984 63.3994 778.976 Q64.9272 781.968 64.9272 786.297 Q64.9272 791.771 61.8716 795.018 Q58.7843 798.232 53.6281 798.232 Q47.6125 798.232 44.5569 794.222 Q41.5014 790.18 41.5014 782.191 L41.5014 773.979 L40.9285 773.979 Q36.8862 773.979 34.6901 776.653 Q32.4621 779.294 32.4621 784.101 Q32.4621 787.156 33.1941 790.053 Q33.9262 792.949 35.3903 795.623 L29.9795 795.623 Q28.7381 792.408 28.1334 789.384 Q27.4968 786.36 27.4968 783.496 Q27.4968 775.762 31.5072 771.942 Q35.5176 768.123 43.6657 768.123 Z" fill="#000000" fill-rule="evenodd" fill-opacity="1" /><path clip-path="url(#clip930)" d="M58.657 750.394 L77.5631 750.394 L77.5631 756.282 L28.3562 756.282 L28.3562 750.394 L33.7671 750.394 Q30.5842 748.548 29.0564 745.747 Q27.4968 742.914 27.4968 739 Q27.4968 732.507 32.6531 728.464 Q37.8093 724.39 46.212 724.39 Q54.6147 724.39 59.771 728.464 Q64.9272 732.507 64.9272 739 Q64.9272 742.914 63.3994 745.747 Q61.8398 748.548 58.657 750.394 M46.212 730.47 Q39.7508 730.47 36.0905 733.143 Q32.3984 735.785 32.3984 740.432 Q32.3984 745.079 36.0905 747.752 Q39.7508 750.394 46.212 750.394 Q52.6732 750.394 56.3653 747.752 Q60.0256 745.079 60.0256 740.432 Q60.0256 735.785 56.3653 733.143 Q52.6732 730.47 46.212 730.47 Z" fill="#000000" fill-rule="evenodd" fill-opacity="1" /><path clip-path="url(#clip930)" d="M28.3562 697.368 L28.3562 691.511 L56.1743 684.191 L28.3562 676.902 L28.3562 669.995 L56.1743 662.675 L28.3562 655.386 L28.3562 649.53 L64.0042 658.855 L64.0042 665.762 L34.7856 673.433 L64.0042 681.135 L64.0042 688.042 L28.3562 697.368 Z" fill="#000000" fill-rule="evenodd" fill-opacity="1" /><path clip-path="url(#clip930)" d="M28.3562 640.649 L28.3562 634.793 L64.0042 634.793 L64.0042 640.649 L28.3562 640.649 M14.479 640.649 L14.479 634.793 L21.895 634.793 L21.895 640.649 L14.479 640.649 Z" fill="#000000" fill-rule="evenodd" fill-opacity="1" /><path clip-path="url(#clip930)" d="M18.2347 616.746 L28.3562 616.746 L28.3562 604.683 L32.9077 604.683 L32.9077 616.746 L52.2594 616.746 Q56.6199 616.746 57.8613 615.569 Q59.1026 614.359 59.1026 610.699 L59.1026 604.683 L64.0042 604.683 L64.0042 610.699 Q64.0042 617.478 61.4897 620.056 Q58.9434 622.634 52.2594 622.634 L32.9077 622.634 L32.9077 626.931 L28.3562 626.931 L28.3562 622.634 L18.2347 622.634 L18.2347 616.746 Z" fill="#000000" fill-rule="evenodd" fill-opacity="1" /><path clip-path="url(#clip930)" d="M42.4881 567.348 L64.0042 567.348 L64.0042 573.205 L42.679 573.205 Q37.6183 573.205 35.1038 575.178 Q32.5894 577.151 32.5894 581.098 Q32.5894 585.841 35.6131 588.578 Q38.6368 591.315 43.8567 591.315 L64.0042 591.315 L64.0042 597.203 L14.479 597.203 L14.479 591.315 L33.8944 591.315 Q30.6797 589.214 29.0883 586.382 Q27.4968 583.517 27.4968 579.793 Q27.4968 573.65 31.3163 570.499 Q35.1038 567.348 42.4881 567.348 Z" fill="#000000" fill-rule="evenodd" fill-opacity="1" /><path clip-path="url(#clip930)" d="M22.818 518.81 L46.4666 527.531 L46.4666 510.057 L22.818 518.81 M16.4842 522.438 L16.4842 515.149 L64.0042 497.039 L64.0042 503.723 L51.8138 508.052 L51.8138 529.472 L64.0042 533.801 L64.0042 540.58 L16.4842 522.438 Z" fill="#000000" fill-rule="evenodd" fill-opacity="1" /><path clip-path="url(#clip932)" d="M365.223 86.1857 L365.223 1384.24 L374.74 1384.24 L374.74 86.1857 L365.223 86.1857 L365.223 86.1857  Z" fill="#009af9" fill-rule="evenodd" fill-opacity="1"/>
<polyline clip-path="url(#clip932)" style="stroke:#000000; stroke-linecap:round; stroke-linejoin:round; stroke-width:4; stroke-opacity:1; fill:none" points="365.223,86.1857 365.223,1384.24 374.74,1384.24 374.74,86.1857 365.223,86.1857 "/>
<path clip-path="url(#clip932)" d="M377.119 95.3001 L377.119 1384.24 L386.636 1384.24 L386.636 95.3001 L377.119 95.3001 L377.119 95.3001  Z" fill="#009af9" fill-rule="evenodd" fill-opacity="1"/>
<polyline clip-path="url(#clip932)" style="stroke:#000000; stroke-linecap:round; stroke-linejoin:round; stroke-width:4; stroke-opacity:1; fill:none" points="377.119,95.3001 377.119,1384.24 386.636,1384.24 386.636,95.3001 377.119,95.3001 "/>
<path clip-path="url(#clip932)" d="M393.734 808.324 L393.734 1384.24 L403.251 1384.24 L403.251 808.324 L393.734 808.324 L393.734 808.324  Z" fill="#009af9" fill-rule="evenodd" fill-opacity="1"/>
<polyline clip-path="url(#clip932)" style="stroke:#000000; stroke-linecap:round; stroke-linejoin:round; stroke-width:4; stroke-opacity:1; fill:none" points="393.734,808.324 393.734,1384.24 403.251,1384.24 403.251,808.324 393.734,808.324 "/>
<path clip-path="url(#clip932)" d="M411.552 1066.56 L411.552 1384.24 L421.069 1384.24 L421.069 1066.56 L411.552 1066.56 L411.552 1066.56  Z" fill="#009af9" fill-rule="evenodd" fill-opacity="1"/>
<polyline clip-path="url(#clip932)" style="stroke:#000000; stroke-linecap:round; stroke-linejoin:round; stroke-width:4; stroke-opacity:1; fill:none" points="411.552,1066.56 411.552,1384.24 421.069,1384.24 421.069,1066.56 411.552,1066.56 "/>
<path clip-path="url(#clip932)" d="M429.776 1180.05 L429.776 1384.24 L439.293 1384.24 L439.293 1180.05 L429.776 1180.05 L429.776 1180.05  Z" fill="#009af9" fill-rule="evenodd" fill-opacity="1"/>
<polyline clip-path="url(#clip932)" style="stroke:#000000; stroke-linecap:round; stroke-linejoin:round; stroke-width:4; stroke-opacity:1; fill:none" points="429.776,1180.05 429.776,1384.24 439.293,1384.24 439.293,1180.05 429.776,1180.05 "/>
<path clip-path="url(#clip932)" d="M448.182 1239.88 L448.182 1384.24 L457.699 1384.24 L457.699 1239.88 L448.182 1239.88 L448.182 1239.88  Z" fill="#009af9" fill-rule="evenodd" fill-opacity="1"/>
<polyline clip-path="url(#clip932)" style="stroke:#000000; stroke-linecap:round; stroke-linejoin:round; stroke-width:4; stroke-opacity:1; fill:none" points="448.182,1239.88 448.182,1384.24 457.699,1384.24 457.699,1239.88 448.182,1239.88 "/>
<path clip-path="url(#clip932)" d="M466.685 1275.56 L466.685 1384.24 L476.202 1384.24 L476.202 1275.56 L466.685 1275.56 L466.685 1275.56  Z" fill="#009af9" fill-rule="evenodd" fill-opacity="1"/>
<polyline clip-path="url(#clip932)" style="stroke:#000000; stroke-linecap:round; stroke-linejoin:round; stroke-width:4; stroke-opacity:1; fill:none" points="466.685,1275.56 466.685,1384.24 476.202,1384.24 476.202,1275.56 466.685,1275.56 "/>
<path clip-path="url(#clip932)" d="M485.248 1298.73 L485.248 1384.24 L494.765 1384.24 L494.765 1298.73 L485.248 1298.73 L485.248 1298.73  Z" fill="#009af9" fill-rule="evenodd" fill-opacity="1"/>
<polyline clip-path="url(#clip932)" style="stroke:#000000; stroke-linecap:round; stroke-linejoin:round; stroke-width:4; stroke-opacity:1; fill:none" points="485.248,1298.73 485.248,1384.24 494.765,1384.24 494.765,1298.73 485.248,1298.73 "/>
<path clip-path="url(#clip932)" d="M503.85 1314.74 L503.85 1384.24 L513.367 1384.24 L513.367 1314.74 L503.85 1314.74 L503.85 1314.74  Z" fill="#009af9" fill-rule="evenodd" fill-opacity="1"/>
<polyline clip-path="url(#clip932)" style="stroke:#000000; stroke-linecap:round; stroke-linejoin:round; stroke-width:4; stroke-opacity:1; fill:none" points="503.85,1314.74 503.85,1384.24 513.367,1384.24 513.367,1314.74 503.85,1314.74 "/>
<path clip-path="url(#clip932)" d="M522.479 1326.33 L522.479 1384.24 L531.996 1384.24 L531.996 1326.33 L522.479 1326.33 L522.479 1326.33  Z" fill="#009af9" fill-rule="evenodd" fill-opacity="1"/>
<polyline clip-path="url(#clip932)" style="stroke:#000000; stroke-linecap:round; stroke-linejoin:round; stroke-width:4; stroke-opacity:1; fill:none" points="522.479,1326.33 522.479,1384.24 531.996,1384.24 531.996,1326.33 522.479,1326.33 "/>
<path clip-path="url(#clip932)" d="M541.128 1335.03 L541.128 1384.24 L550.645 1384.24 L550.645 1335.03 L541.128 1335.03 L541.128 1335.03  Z" fill="#009af9" fill-rule="evenodd" fill-opacity="1"/>
<polyline clip-path="url(#clip932)" style="stroke:#000000; stroke-linecap:round; stroke-linejoin:round; stroke-width:4; stroke-opacity:1; fill:none" points="541.128,1335.03 541.128,1384.24 550.645,1384.24 550.645,1335.03 541.128,1335.03 "/>
<path clip-path="url(#clip932)" d="M559.792 1341.76 L559.792 1384.24 L569.309 1384.24 L569.309 1341.76 L559.792 1341.76 L559.792 1341.76  Z" fill="#009af9" fill-rule="evenodd" fill-opacity="1"/>
<polyline clip-path="url(#clip932)" style="stroke:#000000; stroke-linecap:round; stroke-linejoin:round; stroke-width:4; stroke-opacity:1; fill:none" points="559.792,1341.76 559.792,1384.24 569.309,1384.24 569.309,1341.76 559.792,1341.76 "/>
<path clip-path="url(#clip932)" d="M578.468 1347.08 L578.468 1384.24 L587.985 1384.24 L587.985 1347.08 L578.468 1347.08 L578.468 1347.08  Z" fill="#009af9" fill-rule="evenodd" fill-opacity="1"/>
<polyline clip-path="url(#clip932)" style="stroke:#000000; stroke-linecap:round; stroke-linejoin:round; stroke-width:4; stroke-opacity:1; fill:none" points="578.468,1347.08 578.468,1384.24 587.985,1384.24 587.985,1347.08 578.468,1347.08 "/>
<path clip-path="url(#clip932)" d="M597.153 1351.38 L597.153 1384.24 L606.67 1384.24 L606.67 1351.38 L597.153 1351.38 L597.153 1351.38  Z" fill="#009af9" fill-rule="evenodd" fill-opacity="1"/>
<polyline clip-path="url(#clip932)" style="stroke:#000000; stroke-linecap:round; stroke-linejoin:round; stroke-width:4; stroke-opacity:1; fill:none" points="597.153,1351.38 597.153,1384.24 606.67,1384.24 606.67,1351.38 597.153,1351.38 "/>
<path clip-path="url(#clip932)" d="M615.846 1354.91 L615.846 1384.24 L625.363 1384.24 L625.363 1354.91 L615.846 1354.91 L615.846 1354.91  Z" fill="#009af9" fill-rule="evenodd" fill-opacity="1"/>
<polyline clip-path="url(#clip932)" style="stroke:#000000; stroke-linecap:round; stroke-linejoin:round; stroke-width:4; stroke-opacity:1; fill:none" points="615.846,1354.91 615.846,1384.24 625.363,1384.24 625.363,1354.91 615.846,1354.91 "/>
<path clip-path="url(#clip932)" d="M634.544 1357.85 L634.544 1384.24 L644.062 1384.24 L644.062 1357.85 L634.544 1357.85 L634.544 1357.85  Z" fill="#009af9" fill-rule="evenodd" fill-opacity="1"/>
<polyline clip-path="url(#clip932)" style="stroke:#000000; stroke-linecap:round; stroke-linejoin:round; stroke-width:4; stroke-opacity:1; fill:none" points="634.544,1357.85 634.544,1384.24 644.062,1384.24 644.062,1357.85 634.544,1357.85 "/>
<path clip-path="url(#clip932)" d="M653.248 1360.33 L653.248 1384.24 L662.766 1384.24 L662.766 1360.33 L653.248 1360.33 L653.248 1360.33  Z" fill="#009af9" fill-rule="evenodd" fill-opacity="1"/>
<polyline clip-path="url(#clip932)" style="stroke:#000000; stroke-linecap:round; stroke-linejoin:round; stroke-width:4; stroke-opacity:1; fill:none" points="653.248,1360.33 653.248,1384.24 662.766,1384.24 662.766,1360.33 653.248,1360.33 "/>
<path clip-path="url(#clip932)" d="M671.957 1362.44 L671.957 1384.24 L681.474 1384.24 L681.474 1362.44 L671.957 1362.44 L671.957 1362.44  Z" fill="#009af9" fill-rule="evenodd" fill-opacity="1"/>
<polyline clip-path="url(#clip932)" style="stroke:#000000; stroke-linecap:round; stroke-linejoin:round; stroke-width:4; stroke-opacity:1; fill:none" points="671.957,1362.44 671.957,1384.24 681.474,1384.24 681.474,1362.44 671.957,1362.44 "/>
<path clip-path="url(#clip932)" d="M690.669 1364.26 L690.669 1384.24 L700.186 1384.24 L700.186 1364.26 L690.669 1364.26 L690.669 1364.26  Z" fill="#009af9" fill-rule="evenodd" fill-opacity="1"/>
<polyline clip-path="url(#clip932)" style="stroke:#000000; stroke-linecap:round; stroke-linejoin:round; stroke-width:4; stroke-opacity:1; fill:none" points="690.669,1364.26 690.669,1384.24 700.186,1384.24 700.186,1364.26 690.669,1364.26 "/>
<path clip-path="url(#clip932)" d="M709.384 1365.84 L709.384 1384.24 L718.901 1384.24 L718.901 1365.84 L709.384 1365.84 L709.384 1365.84  Z" fill="#009af9" fill-rule="evenodd" fill-opacity="1"/>
<polyline clip-path="url(#clip932)" style="stroke:#000000; stroke-linecap:round; stroke-linejoin:round; stroke-width:4; stroke-opacity:1; fill:none" points="709.384,1365.84 709.384,1384.24 718.901,1384.24 718.901,1365.84 709.384,1365.84 "/>
<path clip-path="url(#clip932)" d="M728.102 1367.22 L728.102 1384.24 L737.619 1384.24 L737.619 1367.22 L728.102 1367.22 L728.102 1367.22  Z" fill="#009af9" fill-rule="evenodd" fill-opacity="1"/>
<polyline clip-path="url(#clip932)" style="stroke:#000000; stroke-linecap:round; stroke-linejoin:round; stroke-width:4; stroke-opacity:1; fill:none" points="728.102,1367.22 728.102,1384.24 737.619,1384.24 737.619,1367.22 728.102,1367.22 "/>
<path clip-path="url(#clip932)" d="M746.823 1368.43 L746.823 1384.24 L756.34 1384.24 L756.34 1368.43 L746.823 1368.43 L746.823 1368.43  Z" fill="#009af9" fill-rule="evenodd" fill-opacity="1"/>
<polyline clip-path="url(#clip932)" style="stroke:#000000; stroke-linecap:round; stroke-linejoin:round; stroke-width:4; stroke-opacity:1; fill:none" points="746.823,1368.43 746.823,1384.24 756.34,1384.24 756.34,1368.43 746.823,1368.43 "/>
<path clip-path="url(#clip932)" d="M765.545 1369.51 L765.545 1384.24 L775.063 1384.24 L775.063 1369.51 L765.545 1369.51 L765.545 1369.51  Z" fill="#009af9" fill-rule="evenodd" fill-opacity="1"/>
<polyline clip-path="url(#clip932)" style="stroke:#000000; stroke-linecap:round; stroke-linejoin:round; stroke-width:4; stroke-opacity:1; fill:none" points="765.545,1369.51 765.545,1384.24 775.063,1384.24 775.063,1369.51 765.545,1369.51 "/>
<path clip-path="url(#clip932)" d="M784.27 1370.47 L784.27 1384.24 L793.787 1384.24 L793.787 1370.47 L784.27 1370.47 L784.27 1370.47  Z" fill="#009af9" fill-rule="evenodd" fill-opacity="1"/>
<polyline clip-path="url(#clip932)" style="stroke:#000000; stroke-linecap:round; stroke-linejoin:round; stroke-width:4; stroke-opacity:1; fill:none" points="784.27,1370.47 784.27,1384.24 793.787,1384.24 793.787,1370.47 784.27,1370.47 "/>
<path clip-path="url(#clip932)" d="M802.996 1371.33 L802.996 1384.24 L812.513 1384.24 L812.513 1371.33 L802.996 1371.33 L802.996 1371.33  Z" fill="#009af9" fill-rule="evenodd" fill-opacity="1"/>
<polyline clip-path="url(#clip932)" style="stroke:#000000; stroke-linecap:round; stroke-linejoin:round; stroke-width:4; stroke-opacity:1; fill:none" points="802.996,1371.33 802.996,1384.24 812.513,1384.24 812.513,1371.33 802.996,1371.33 "/>
<path clip-path="url(#clip932)" d="M821.724 1372.1 L821.724 1384.24 L831.241 1384.24 L831.241 1372.1 L821.724 1372.1 L821.724 1372.1  Z" fill="#009af9" fill-rule="evenodd" fill-opacity="1"/>
<polyline clip-path="url(#clip932)" style="stroke:#000000; stroke-linecap:round; stroke-linejoin:round; stroke-width:4; stroke-opacity:1; fill:none" points="821.724,1372.1 821.724,1384.24 831.241,1384.24 831.241,1372.1 821.724,1372.1 "/>
<path clip-path="url(#clip932)" d="M840.453 1372.8 L840.453 1384.24 L849.971 1384.24 L849.971 1372.8 L840.453 1372.8 L840.453 1372.8  Z" fill="#009af9" fill-rule="evenodd" fill-opacity="1"/>
<polyline clip-path="url(#clip932)" style="stroke:#000000; stroke-linecap:round; stroke-linejoin:round; stroke-width:4; stroke-opacity:1; fill:none" points="840.453,1372.8 840.453,1384.24 849.971,1384.24 849.971,1372.8 840.453,1372.8 "/>
<path clip-path="url(#clip932)" d="M859.184 1373.43 L859.184 1384.24 L868.701 1384.24 L868.701 1373.43 L859.184 1373.43 L859.184 1373.43  Z" fill="#009af9" fill-rule="evenodd" fill-opacity="1"/>
<polyline clip-path="url(#clip932)" style="stroke:#000000; stroke-linecap:round; stroke-linejoin:round; stroke-width:4; stroke-opacity:1; fill:none" points="859.184,1373.43 859.184,1384.24 868.701,1384.24 868.701,1373.43 859.184,1373.43 "/>
<path clip-path="url(#clip932)" d="M877.915 1374.01 L877.915 1384.24 L887.433 1384.24 L887.433 1374.01 L877.915 1374.01 L877.915 1374.01  Z" fill="#009af9" fill-rule="evenodd" fill-opacity="1"/>
<polyline clip-path="url(#clip932)" style="stroke:#000000; stroke-linecap:round; stroke-linejoin:round; stroke-width:4; stroke-opacity:1; fill:none" points="877.915,1374.01 877.915,1384.24 887.433,1384.24 887.433,1374.01 877.915,1374.01 "/>
<path clip-path="url(#clip932)" d="M896.648 1374.54 L896.648 1384.24 L906.165 1384.24 L906.165 1374.54 L896.648 1374.54 L896.648 1374.54  Z" fill="#009af9" fill-rule="evenodd" fill-opacity="1"/>
<polyline clip-path="url(#clip932)" style="stroke:#000000; stroke-linecap:round; stroke-linejoin:round; stroke-width:4; stroke-opacity:1; fill:none" points="896.648,1374.54 896.648,1384.24 906.165,1384.24 906.165,1374.54 896.648,1374.54 "/>
<path clip-path="url(#clip932)" d="M915.382 1375.02 L915.382 1384.24 L924.899 1384.24 L924.899 1375.02 L915.382 1375.02 L915.382 1375.02  Z" fill="#009af9" fill-rule="evenodd" fill-opacity="1"/>
<polyline clip-path="url(#clip932)" style="stroke:#000000; stroke-linecap:round; stroke-linejoin:round; stroke-width:4; stroke-opacity:1; fill:none" points="915.382,1375.02 915.382,1384.24 924.899,1384.24 924.899,1375.02 915.382,1375.02 "/>
<path clip-path="url(#clip932)" d="M934.116 1375.46 L934.116 1384.24 L943.633 1384.24 L943.633 1375.46 L934.116 1375.46 L934.116 1375.46  Z" fill="#009af9" fill-rule="evenodd" fill-opacity="1"/>
<polyline clip-path="url(#clip932)" style="stroke:#000000; stroke-linecap:round; stroke-linejoin:round; stroke-width:4; stroke-opacity:1; fill:none" points="934.116,1375.46 934.116,1384.24 943.633,1384.24 943.633,1375.46 934.116,1375.46 "/>
<path clip-path="url(#clip932)" d="M952.851 1375.87 L952.851 1384.24 L962.369 1384.24 L962.369 1375.87 L952.851 1375.87 L952.851 1375.87  Z" fill="#009af9" fill-rule="evenodd" fill-opacity="1"/>
<polyline clip-path="url(#clip932)" style="stroke:#000000; stroke-linecap:round; stroke-linejoin:round; stroke-width:4; stroke-opacity:1; fill:none" points="952.851,1375.87 952.851,1384.24 962.369,1384.24 962.369,1375.87 952.851,1375.87 "/>
<path clip-path="url(#clip932)" d="M971.587 1376.25 L971.587 1384.24 L981.105 1384.24 L981.105 1376.25 L971.587 1376.25 L971.587 1376.25  Z" fill="#009af9" fill-rule="evenodd" fill-opacity="1"/>
<polyline clip-path="url(#clip932)" style="stroke:#000000; stroke-linecap:round; stroke-linejoin:round; stroke-width:4; stroke-opacity:1; fill:none" points="971.587,1376.25 971.587,1384.24 981.105,1384.24 981.105,1376.25 971.587,1376.25 "/>
<path clip-path="url(#clip932)" d="M990.324 1376.6 L990.324 1384.24 L999.841 1384.24 L999.841 1376.6 L990.324 1376.6 L990.324 1376.6  Z" fill="#009af9" fill-rule="evenodd" fill-opacity="1"/>
<polyline clip-path="url(#clip932)" style="stroke:#000000; stroke-linecap:round; stroke-linejoin:round; stroke-width:4; stroke-opacity:1; fill:none" points="990.324,1376.6 990.324,1384.24 999.841,1384.24 999.841,1376.6 990.324,1376.6 "/>
<path clip-path="url(#clip932)" d="M1009.06 1376.92 L1009.06 1384.24 L1018.58 1384.24 L1018.58 1376.92 L1009.06 1376.92 L1009.06 1376.92  Z" fill="#009af9" fill-rule="evenodd" fill-opacity="1"/>
<polyline clip-path="url(#clip932)" style="stroke:#000000; stroke-linecap:round; stroke-linejoin:round; stroke-width:4; stroke-opacity:1; fill:none" points="1009.06,1376.92 1009.06,1384.24 1018.58,1384.24 1018.58,1376.92 1009.06,1376.92 "/>
<path clip-path="url(#clip932)" d="M1027.8 1377.22 L1027.8 1384.24 L1037.32 1384.24 L1037.32 1377.22 L1027.8 1377.22 L1027.8 1377.22  Z" fill="#009af9" fill-rule="evenodd" fill-opacity="1"/>
<polyline clip-path="url(#clip932)" style="stroke:#000000; stroke-linecap:round; stroke-linejoin:round; stroke-width:4; stroke-opacity:1; fill:none" points="1027.8,1377.22 1027.8,1384.24 1037.32,1384.24 1037.32,1377.22 1027.8,1377.22 "/>
<path clip-path="url(#clip932)" d="M1046.54 1377.5 L1046.54 1384.24 L1056.05 1384.24 L1056.05 1377.5 L1046.54 1377.5 L1046.54 1377.5  Z" fill="#009af9" fill-rule="evenodd" fill-opacity="1"/>
<polyline clip-path="url(#clip932)" style="stroke:#000000; stroke-linecap:round; stroke-linejoin:round; stroke-width:4; stroke-opacity:1; fill:none" points="1046.54,1377.5 1046.54,1384.24 1056.05,1384.24 1056.05,1377.5 1046.54,1377.5 "/>
<path clip-path="url(#clip932)" d="M1065.28 1377.77 L1065.28 1384.24 L1074.79 1384.24 L1074.79 1377.77 L1065.28 1377.77 L1065.28 1377.77  Z" fill="#009af9" fill-rule="evenodd" fill-opacity="1"/>
<polyline clip-path="url(#clip932)" style="stroke:#000000; stroke-linecap:round; stroke-linejoin:round; stroke-width:4; stroke-opacity:1; fill:none" points="1065.28,1377.77 1065.28,1384.24 1074.79,1384.24 1074.79,1377.77 1065.28,1377.77 "/>
<path clip-path="url(#clip932)" d="M1084.02 1378.01 L1084.02 1384.24 L1093.53 1384.24 L1093.53 1378.01 L1084.02 1378.01 L1084.02 1378.01  Z" fill="#009af9" fill-rule="evenodd" fill-opacity="1"/>
<polyline clip-path="url(#clip932)" style="stroke:#000000; stroke-linecap:round; stroke-linejoin:round; stroke-width:4; stroke-opacity:1; fill:none" points="1084.02,1378.01 1084.02,1384.24 1093.53,1384.24 1093.53,1378.01 1084.02,1378.01 "/>
<path clip-path="url(#clip932)" d="M1102.76 1378.24 L1102.76 1384.24 L1112.27 1384.24 L1112.27 1378.24 L1102.76 1378.24 L1102.76 1378.24  Z" fill="#009af9" fill-rule="evenodd" fill-opacity="1"/>
<polyline clip-path="url(#clip932)" style="stroke:#000000; stroke-linecap:round; stroke-linejoin:round; stroke-width:4; stroke-opacity:1; fill:none" points="1102.76,1378.24 1102.76,1384.24 1112.27,1384.24 1112.27,1378.24 1102.76,1378.24 "/>
<path clip-path="url(#clip932)" d="M1121.5 1378.46 L1121.5 1384.24 L1131.01 1384.24 L1131.01 1378.46 L1121.5 1378.46 L1121.5 1378.46  Z" fill="#009af9" fill-rule="evenodd" fill-opacity="1"/>
<polyline clip-path="url(#clip932)" style="stroke:#000000; stroke-linecap:round; stroke-linejoin:round; stroke-width:4; stroke-opacity:1; fill:none" points="1121.5,1378.46 1121.5,1384.24 1131.01,1384.24 1131.01,1378.46 1121.5,1378.46 "/>
<path clip-path="url(#clip932)" d="M1140.24 1378.66 L1140.24 1384.24 L1149.75 1384.24 L1149.75 1378.66 L1140.24 1378.66 L1140.24 1378.66  Z" fill="#009af9" fill-rule="evenodd" fill-opacity="1"/>
<polyline clip-path="url(#clip932)" style="stroke:#000000; stroke-linecap:round; stroke-linejoin:round; stroke-width:4; stroke-opacity:1; fill:none" points="1140.24,1378.66 1140.24,1384.24 1149.75,1384.24 1149.75,1378.66 1140.24,1378.66 "/>
<path clip-path="url(#clip932)" d="M1158.98 1378.85 L1158.98 1384.24 L1168.5 1384.24 L1168.5 1378.85 L1158.98 1378.85 L1158.98 1378.85  Z" fill="#009af9" fill-rule="evenodd" fill-opacity="1"/>
<polyline clip-path="url(#clip932)" style="stroke:#000000; stroke-linecap:round; stroke-linejoin:round; stroke-width:4; stroke-opacity:1; fill:none" points="1158.98,1378.85 1158.98,1384.24 1168.5,1384.24 1168.5,1378.85 1158.98,1378.85 "/>
<path clip-path="url(#clip932)" d="M1177.72 1379.03 L1177.72 1384.24 L1187.24 1384.24 L1187.24 1379.03 L1177.72 1379.03 L1177.72 1379.03  Z" fill="#009af9" fill-rule="evenodd" fill-opacity="1"/>
<polyline clip-path="url(#clip932)" style="stroke:#000000; stroke-linecap:round; stroke-linejoin:round; stroke-width:4; stroke-opacity:1; fill:none" points="1177.72,1379.03 1177.72,1384.24 1187.24,1384.24 1187.24,1379.03 1177.72,1379.03 "/>
<path clip-path="url(#clip932)" d="M1196.46 1379.21 L1196.46 1384.24 L1205.98 1384.24 L1205.98 1379.21 L1196.46 1379.21 L1196.46 1379.21  Z" fill="#009af9" fill-rule="evenodd" fill-opacity="1"/>
<polyline clip-path="url(#clip932)" style="stroke:#000000; stroke-linecap:round; stroke-linejoin:round; stroke-width:4; stroke-opacity:1; fill:none" points="1196.46,1379.21 1196.46,1384.24 1205.98,1384.24 1205.98,1379.21 1196.46,1379.21 "/>
<path clip-path="url(#clip932)" d="M1215.2 1379.37 L1215.2 1384.24 L1224.72 1384.24 L1224.72 1379.37 L1215.2 1379.37 L1215.2 1379.37  Z" fill="#009af9" fill-rule="evenodd" fill-opacity="1"/>
<polyline clip-path="url(#clip932)" style="stroke:#000000; stroke-linecap:round; stroke-linejoin:round; stroke-width:4; stroke-opacity:1; fill:none" points="1215.2,1379.37 1215.2,1384.24 1224.72,1384.24 1224.72,1379.37 1215.2,1379.37 "/>
<path clip-path="url(#clip932)" d="M1233.95 1379.52 L1233.95 1384.24 L1243.46 1384.24 L1243.46 1379.52 L1233.95 1379.52 L1233.95 1379.52  Z" fill="#009af9" fill-rule="evenodd" fill-opacity="1"/>
<polyline clip-path="url(#clip932)" style="stroke:#000000; stroke-linecap:round; stroke-linejoin:round; stroke-width:4; stroke-opacity:1; fill:none" points="1233.95,1379.52 1233.95,1384.24 1243.46,1384.24 1243.46,1379.52 1233.95,1379.52 "/>
<path clip-path="url(#clip932)" d="M1252.69 1379.66 L1252.69 1384.24 L1262.21 1384.24 L1262.21 1379.66 L1252.69 1379.66 L1252.69 1379.66  Z" fill="#009af9" fill-rule="evenodd" fill-opacity="1"/>
<polyline clip-path="url(#clip932)" style="stroke:#000000; stroke-linecap:round; stroke-linejoin:round; stroke-width:4; stroke-opacity:1; fill:none" points="1252.69,1379.66 1252.69,1384.24 1262.21,1384.24 1262.21,1379.66 1252.69,1379.66 "/>
<path clip-path="url(#clip932)" d="M1271.43 1379.8 L1271.43 1384.24 L1280.95 1384.24 L1280.95 1379.8 L1271.43 1379.8 L1271.43 1379.8  Z" fill="#009af9" fill-rule="evenodd" fill-opacity="1"/>
<polyline clip-path="url(#clip932)" style="stroke:#000000; stroke-linecap:round; stroke-linejoin:round; stroke-width:4; stroke-opacity:1; fill:none" points="1271.43,1379.8 1271.43,1384.24 1280.95,1384.24 1280.95,1379.8 1271.43,1379.8 "/>
<path clip-path="url(#clip932)" d="M1290.17 1379.93 L1290.17 1384.24 L1299.69 1384.24 L1299.69 1379.93 L1290.17 1379.93 L1290.17 1379.93  Z" fill="#009af9" fill-rule="evenodd" fill-opacity="1"/>
<polyline clip-path="url(#clip932)" style="stroke:#000000; stroke-linecap:round; stroke-linejoin:round; stroke-width:4; stroke-opacity:1; fill:none" points="1290.17,1379.93 1290.17,1384.24 1299.69,1384.24 1299.69,1379.93 1290.17,1379.93 "/>
<path clip-path="url(#clip932)" d="M1308.92 1380.05 L1308.92 1384.24 L1318.43 1384.24 L1318.43 1380.05 L1308.92 1380.05 L1308.92 1380.05  Z" fill="#009af9" fill-rule="evenodd" fill-opacity="1"/>
<polyline clip-path="url(#clip932)" style="stroke:#000000; stroke-linecap:round; stroke-linejoin:round; stroke-width:4; stroke-opacity:1; fill:none" points="1308.92,1380.05 1308.92,1384.24 1318.43,1384.24 1318.43,1380.05 1308.92,1380.05 "/>
<path clip-path="url(#clip932)" d="M1327.66 1380.17 L1327.66 1384.24 L1337.18 1384.24 L1337.18 1380.17 L1327.66 1380.17 L1327.66 1380.17  Z" fill="#009af9" fill-rule="evenodd" fill-opacity="1"/>
<polyline clip-path="url(#clip932)" style="stroke:#000000; stroke-linecap:round; stroke-linejoin:round; stroke-width:4; stroke-opacity:1; fill:none" points="1327.66,1380.17 1327.66,1384.24 1337.18,1384.24 1337.18,1380.17 1327.66,1380.17 "/>
<path clip-path="url(#clip932)" d="M1346.4 1380.28 L1346.4 1384.24 L1355.92 1384.24 L1355.92 1380.28 L1346.4 1380.28 L1346.4 1380.28  Z" fill="#009af9" fill-rule="evenodd" fill-opacity="1"/>
<polyline clip-path="url(#clip932)" style="stroke:#000000; stroke-linecap:round; stroke-linejoin:round; stroke-width:4; stroke-opacity:1; fill:none" points="1346.4,1380.28 1346.4,1384.24 1355.92,1384.24 1355.92,1380.28 1346.4,1380.28 "/>
<path clip-path="url(#clip932)" d="M1365.15 1380.39 L1365.15 1384.24 L1374.67 1384.24 L1374.67 1380.39 L1365.15 1380.39 L1365.15 1380.39  Z" fill="#009af9" fill-rule="evenodd" fill-opacity="1"/>
<polyline clip-path="url(#clip932)" style="stroke:#000000; stroke-linecap:round; stroke-linejoin:round; stroke-width:4; stroke-opacity:1; fill:none" points="1365.15,1380.39 1365.15,1384.24 1374.67,1384.24 1374.67,1380.39 1365.15,1380.39 "/>
<path clip-path="url(#clip932)" d="M1383.89 1380.49 L1383.89 1384.24 L1393.41 1384.24 L1393.41 1380.49 L1383.89 1380.49 L1383.89 1380.49  Z" fill="#009af9" fill-rule="evenodd" fill-opacity="1"/>
<polyline clip-path="url(#clip932)" style="stroke:#000000; stroke-linecap:round; stroke-linejoin:round; stroke-width:4; stroke-opacity:1; fill:none" points="1383.89,1380.49 1383.89,1384.24 1393.41,1384.24 1393.41,1380.49 1383.89,1380.49 "/>
<path clip-path="url(#clip932)" d="M1402.64 1380.59 L1402.64 1384.24 L1412.15 1384.24 L1412.15 1380.59 L1402.64 1380.59 L1402.64 1380.59  Z" fill="#009af9" fill-rule="evenodd" fill-opacity="1"/>
<polyline clip-path="url(#clip932)" style="stroke:#000000; stroke-linecap:round; stroke-linejoin:round; stroke-width:4; stroke-opacity:1; fill:none" points="1402.64,1380.59 1402.64,1384.24 1412.15,1384.24 1412.15,1380.59 1402.64,1380.59 "/>
<path clip-path="url(#clip932)" d="M1421.38 1380.68 L1421.38 1384.24 L1430.9 1384.24 L1430.9 1380.68 L1421.38 1380.68 L1421.38 1380.68  Z" fill="#009af9" fill-rule="evenodd" fill-opacity="1"/>
<polyline clip-path="url(#clip932)" style="stroke:#000000; stroke-linecap:round; stroke-linejoin:round; stroke-width:4; stroke-opacity:1; fill:none" points="1421.38,1380.68 1421.38,1384.24 1430.9,1384.24 1430.9,1380.68 1421.38,1380.68 "/>
<path clip-path="url(#clip932)" d="M1440.13 1380.77 L1440.13 1384.24 L1449.64 1384.24 L1449.64 1380.77 L1440.13 1380.77 L1440.13 1380.77  Z" fill="#009af9" fill-rule="evenodd" fill-opacity="1"/>
<polyline clip-path="url(#clip932)" style="stroke:#000000; stroke-linecap:round; stroke-linejoin:round; stroke-width:4; stroke-opacity:1; fill:none" points="1440.13,1380.77 1440.13,1384.24 1449.64,1384.24 1449.64,1380.77 1440.13,1380.77 "/>
<path clip-path="url(#clip932)" d="M1458.87 1380.85 L1458.87 1384.24 L1468.39 1384.24 L1468.39 1380.85 L1458.87 1380.85 L1458.87 1380.85  Z" fill="#009af9" fill-rule="evenodd" fill-opacity="1"/>
<polyline clip-path="url(#clip932)" style="stroke:#000000; stroke-linecap:round; stroke-linejoin:round; stroke-width:4; stroke-opacity:1; fill:none" points="1458.87,1380.85 1458.87,1384.24 1468.39,1384.24 1468.39,1380.85 1458.87,1380.85 "/>
<path clip-path="url(#clip932)" d="M1477.62 1380.94 L1477.62 1384.24 L1487.13 1384.24 L1487.13 1380.94 L1477.62 1380.94 L1477.62 1380.94  Z" fill="#009af9" fill-rule="evenodd" fill-opacity="1"/>
<polyline clip-path="url(#clip932)" style="stroke:#000000; stroke-linecap:round; stroke-linejoin:round; stroke-width:4; stroke-opacity:1; fill:none" points="1477.62,1380.94 1477.62,1384.24 1487.13,1384.24 1487.13,1380.94 1477.62,1380.94 "/>
<path clip-path="url(#clip932)" d="M1496.36 1381.01 L1496.36 1384.24 L1505.88 1384.24 L1505.88 1381.01 L1496.36 1381.01 L1496.36 1381.01  Z" fill="#009af9" fill-rule="evenodd" fill-opacity="1"/>
<polyline clip-path="url(#clip932)" style="stroke:#000000; stroke-linecap:round; stroke-linejoin:round; stroke-width:4; stroke-opacity:1; fill:none" points="1496.36,1381.01 1496.36,1384.24 1505.88,1384.24 1505.88,1381.01 1496.36,1381.01 "/>
<path clip-path="url(#clip932)" d="M1515.11 1381.09 L1515.11 1384.24 L1524.62 1384.24 L1524.62 1381.09 L1515.11 1381.09 L1515.11 1381.09  Z" fill="#009af9" fill-rule="evenodd" fill-opacity="1"/>
<polyline clip-path="url(#clip932)" style="stroke:#000000; stroke-linecap:round; stroke-linejoin:round; stroke-width:4; stroke-opacity:1; fill:none" points="1515.11,1381.09 1515.11,1384.24 1524.62,1384.24 1524.62,1381.09 1515.11,1381.09 "/>
<path clip-path="url(#clip932)" d="M1533.85 1381.16 L1533.85 1384.24 L1543.37 1384.24 L1543.37 1381.16 L1533.85 1381.16 L1533.85 1381.16  Z" fill="#009af9" fill-rule="evenodd" fill-opacity="1"/>
<polyline clip-path="url(#clip932)" style="stroke:#000000; stroke-linecap:round; stroke-linejoin:round; stroke-width:4; stroke-opacity:1; fill:none" points="1533.85,1381.16 1533.85,1384.24 1543.37,1384.24 1543.37,1381.16 1533.85,1381.16 "/>
<path clip-path="url(#clip932)" d="M1552.6 1381.23 L1552.6 1384.24 L1562.12 1384.24 L1562.12 1381.23 L1552.6 1381.23 L1552.6 1381.23  Z" fill="#009af9" fill-rule="evenodd" fill-opacity="1"/>
<polyline clip-path="url(#clip932)" style="stroke:#000000; stroke-linecap:round; stroke-linejoin:round; stroke-width:4; stroke-opacity:1; fill:none" points="1552.6,1381.23 1552.6,1384.24 1562.12,1384.24 1562.12,1381.23 1552.6,1381.23 "/>
<path clip-path="url(#clip932)" d="M1571.34 1381.29 L1571.34 1384.24 L1580.86 1384.24 L1580.86 1381.29 L1571.34 1381.29 L1571.34 1381.29  Z" fill="#009af9" fill-rule="evenodd" fill-opacity="1"/>
<polyline clip-path="url(#clip932)" style="stroke:#000000; stroke-linecap:round; stroke-linejoin:round; stroke-width:4; stroke-opacity:1; fill:none" points="1571.34,1381.29 1571.34,1384.24 1580.86,1384.24 1580.86,1381.29 1571.34,1381.29 "/>
<path clip-path="url(#clip932)" d="M1590.09 1381.36 L1590.09 1384.24 L1599.61 1384.24 L1599.61 1381.36 L1590.09 1381.36 L1590.09 1381.36  Z" fill="#009af9" fill-rule="evenodd" fill-opacity="1"/>
<polyline clip-path="url(#clip932)" style="stroke:#000000; stroke-linecap:round; stroke-linejoin:round; stroke-width:4; stroke-opacity:1; fill:none" points="1590.09,1381.36 1590.09,1384.24 1599.61,1384.24 1599.61,1381.36 1590.09,1381.36 "/>
<path clip-path="url(#clip932)" d="M1608.84 1381.42 L1608.84 1384.24 L1618.35 1384.24 L1618.35 1381.42 L1608.84 1381.42 L1608.84 1381.42  Z" fill="#009af9" fill-rule="evenodd" fill-opacity="1"/>
<polyline clip-path="url(#clip932)" style="stroke:#000000; stroke-linecap:round; stroke-linejoin:round; stroke-width:4; stroke-opacity:1; fill:none" points="1608.84,1381.42 1608.84,1384.24 1618.35,1384.24 1618.35,1381.42 1608.84,1381.42 "/>
<path clip-path="url(#clip932)" d="M1627.58 1381.48 L1627.58 1384.24 L1637.1 1384.24 L1637.1 1381.48 L1627.58 1381.48 L1627.58 1381.48  Z" fill="#009af9" fill-rule="evenodd" fill-opacity="1"/>
<polyline clip-path="url(#clip932)" style="stroke:#000000; stroke-linecap:round; stroke-linejoin:round; stroke-width:4; stroke-opacity:1; fill:none" points="1627.58,1381.48 1627.58,1384.24 1637.1,1384.24 1637.1,1381.48 1627.58,1381.48 "/>
<path clip-path="url(#clip932)" d="M1646.33 1381.53 L1646.33 1384.24 L1655.85 1384.24 L1655.85 1381.53 L1646.33 1381.53 L1646.33 1381.53  Z" fill="#009af9" fill-rule="evenodd" fill-opacity="1"/>
<polyline clip-path="url(#clip932)" style="stroke:#000000; stroke-linecap:round; stroke-linejoin:round; stroke-width:4; stroke-opacity:1; fill:none" points="1646.33,1381.53 1646.33,1384.24 1655.85,1384.24 1655.85,1381.53 1646.33,1381.53 "/>
<path clip-path="url(#clip932)" d="M1665.08 1381.59 L1665.08 1384.24 L1674.59 1384.24 L1674.59 1381.59 L1665.08 1381.59 L1665.08 1381.59  Z" fill="#009af9" fill-rule="evenodd" fill-opacity="1"/>
<polyline clip-path="url(#clip932)" style="stroke:#000000; stroke-linecap:round; stroke-linejoin:round; stroke-width:4; stroke-opacity:1; fill:none" points="1665.08,1381.59 1665.08,1384.24 1674.59,1384.24 1674.59,1381.59 1665.08,1381.59 "/>
<path clip-path="url(#clip932)" d="M1683.82 1381.64 L1683.82 1384.24 L1693.34 1384.24 L1693.34 1381.64 L1683.82 1381.64 L1683.82 1381.64  Z" fill="#009af9" fill-rule="evenodd" fill-opacity="1"/>
<polyline clip-path="url(#clip932)" style="stroke:#000000; stroke-linecap:round; stroke-linejoin:round; stroke-width:4; stroke-opacity:1; fill:none" points="1683.82,1381.64 1683.82,1384.24 1693.34,1384.24 1693.34,1381.64 1683.82,1381.64 "/>
<path clip-path="url(#clip932)" d="M1702.57 1381.69 L1702.57 1384.24 L1712.09 1384.24 L1712.09 1381.69 L1702.57 1381.69 L1702.57 1381.69  Z" fill="#009af9" fill-rule="evenodd" fill-opacity="1"/>
<polyline clip-path="url(#clip932)" style="stroke:#000000; stroke-linecap:round; stroke-linejoin:round; stroke-width:4; stroke-opacity:1; fill:none" points="1702.57,1381.69 1702.57,1384.24 1712.09,1384.24 1712.09,1381.69 1702.57,1381.69 "/>
<path clip-path="url(#clip932)" d="M1721.32 1381.74 L1721.32 1384.24 L1730.83 1384.24 L1730.83 1381.74 L1721.32 1381.74 L1721.32 1381.74  Z" fill="#009af9" fill-rule="evenodd" fill-opacity="1"/>
<polyline clip-path="url(#clip932)" style="stroke:#000000; stroke-linecap:round; stroke-linejoin:round; stroke-width:4; stroke-opacity:1; fill:none" points="1721.32,1381.74 1721.32,1384.24 1730.83,1384.24 1730.83,1381.74 1721.32,1381.74 "/>
<path clip-path="url(#clip932)" d="M1740.06 1381.78 L1740.06 1384.24 L1749.58 1384.24 L1749.58 1381.78 L1740.06 1381.78 L1740.06 1381.78  Z" fill="#009af9" fill-rule="evenodd" fill-opacity="1"/>
<polyline clip-path="url(#clip932)" style="stroke:#000000; stroke-linecap:round; stroke-linejoin:round; stroke-width:4; stroke-opacity:1; fill:none" points="1740.06,1381.78 1740.06,1384.24 1749.58,1384.24 1749.58,1381.78 1740.06,1381.78 "/>
<path clip-path="url(#clip932)" d="M1758.81 1381.83 L1758.81 1384.24 L1768.33 1384.24 L1768.33 1381.83 L1758.81 1381.83 L1758.81 1381.83  Z" fill="#009af9" fill-rule="evenodd" fill-opacity="1"/>
<polyline clip-path="url(#clip932)" style="stroke:#000000; stroke-linecap:round; stroke-linejoin:round; stroke-width:4; stroke-opacity:1; fill:none" points="1758.81,1381.83 1758.81,1384.24 1768.33,1384.24 1768.33,1381.83 1758.81,1381.83 "/>
<path clip-path="url(#clip932)" d="M1777.56 1381.87 L1777.56 1384.24 L1787.07 1384.24 L1787.07 1381.87 L1777.56 1381.87 L1777.56 1381.87  Z" fill="#009af9" fill-rule="evenodd" fill-opacity="1"/>
<polyline clip-path="url(#clip932)" style="stroke:#000000; stroke-linecap:round; stroke-linejoin:round; stroke-width:4; stroke-opacity:1; fill:none" points="1777.56,1381.87 1777.56,1384.24 1787.07,1384.24 1787.07,1381.87 1777.56,1381.87 "/>
<path clip-path="url(#clip932)" d="M1796.3 1381.91 L1796.3 1384.24 L1805.82 1384.24 L1805.82 1381.91 L1796.3 1381.91 L1796.3 1381.91  Z" fill="#009af9" fill-rule="evenodd" fill-opacity="1"/>
<polyline clip-path="url(#clip932)" style="stroke:#000000; stroke-linecap:round; stroke-linejoin:round; stroke-width:4; stroke-opacity:1; fill:none" points="1796.3,1381.91 1796.3,1384.24 1805.82,1384.24 1805.82,1381.91 1796.3,1381.91 "/>
<path clip-path="url(#clip932)" d="M1815.05 1381.95 L1815.05 1384.24 L1824.57 1384.24 L1824.57 1381.95 L1815.05 1381.95 L1815.05 1381.95  Z" fill="#009af9" fill-rule="evenodd" fill-opacity="1"/>
<polyline clip-path="url(#clip932)" style="stroke:#000000; stroke-linecap:round; stroke-linejoin:round; stroke-width:4; stroke-opacity:1; fill:none" points="1815.05,1381.95 1815.05,1384.24 1824.57,1384.24 1824.57,1381.95 1815.05,1381.95 "/>
<path clip-path="url(#clip932)" d="M1833.8 1381.99 L1833.8 1384.24 L1843.32 1384.24 L1843.32 1381.99 L1833.8 1381.99 L1833.8 1381.99  Z" fill="#009af9" fill-rule="evenodd" fill-opacity="1"/>
<polyline clip-path="url(#clip932)" style="stroke:#000000; stroke-linecap:round; stroke-linejoin:round; stroke-width:4; stroke-opacity:1; fill:none" points="1833.8,1381.99 1833.8,1384.24 1843.32,1384.24 1843.32,1381.99 1833.8,1381.99 "/>
<path clip-path="url(#clip932)" d="M1852.55 1382.03 L1852.55 1384.24 L1862.06 1384.24 L1862.06 1382.03 L1852.55 1382.03 L1852.55 1382.03  Z" fill="#009af9" fill-rule="evenodd" fill-opacity="1"/>
<polyline clip-path="url(#clip932)" style="stroke:#000000; stroke-linecap:round; stroke-linejoin:round; stroke-width:4; stroke-opacity:1; fill:none" points="1852.55,1382.03 1852.55,1384.24 1862.06,1384.24 1862.06,1382.03 1852.55,1382.03 "/>
<path clip-path="url(#clip932)" d="M1871.29 1382.06 L1871.29 1384.24 L1880.81 1384.24 L1880.81 1382.06 L1871.29 1382.06 L1871.29 1382.06  Z" fill="#009af9" fill-rule="evenodd" fill-opacity="1"/>
<polyline clip-path="url(#clip932)" style="stroke:#000000; stroke-linecap:round; stroke-linejoin:round; stroke-width:4; stroke-opacity:1; fill:none" points="1871.29,1382.06 1871.29,1384.24 1880.81,1384.24 1880.81,1382.06 1871.29,1382.06 "/>
<path clip-path="url(#clip932)" d="M1890.04 1382.1 L1890.04 1384.24 L1899.56 1384.24 L1899.56 1382.1 L1890.04 1382.1 L1890.04 1382.1  Z" fill="#009af9" fill-rule="evenodd" fill-opacity="1"/>
<polyline clip-path="url(#clip932)" style="stroke:#000000; stroke-linecap:round; stroke-linejoin:round; stroke-width:4; stroke-opacity:1; fill:none" points="1890.04,1382.1 1890.04,1384.24 1899.56,1384.24 1899.56,1382.1 1890.04,1382.1 "/>
<path clip-path="url(#clip932)" d="M1908.79 1382.13 L1908.79 1384.24 L1918.31 1384.24 L1918.31 1382.13 L1908.79 1382.13 L1908.79 1382.13  Z" fill="#009af9" fill-rule="evenodd" fill-opacity="1"/>
<polyline clip-path="url(#clip932)" style="stroke:#000000; stroke-linecap:round; stroke-linejoin:round; stroke-width:4; stroke-opacity:1; fill:none" points="1908.79,1382.13 1908.79,1384.24 1918.31,1384.24 1918.31,1382.13 1908.79,1382.13 "/>
<path clip-path="url(#clip932)" d="M1927.54 1382.16 L1927.54 1384.24 L1937.05 1384.24 L1937.05 1382.16 L1927.54 1382.16 L1927.54 1382.16  Z" fill="#009af9" fill-rule="evenodd" fill-opacity="1"/>
<polyline clip-path="url(#clip932)" style="stroke:#000000; stroke-linecap:round; stroke-linejoin:round; stroke-width:4; stroke-opacity:1; fill:none" points="1927.54,1382.16 1927.54,1384.24 1937.05,1384.24 1937.05,1382.16 1927.54,1382.16 "/>
<path clip-path="url(#clip932)" d="M1946.29 1382.19 L1946.29 1384.24 L1955.8 1384.24 L1955.8 1382.19 L1946.29 1382.19 L1946.29 1382.19  Z" fill="#009af9" fill-rule="evenodd" fill-opacity="1"/>
<polyline clip-path="url(#clip932)" style="stroke:#000000; stroke-linecap:round; stroke-linejoin:round; stroke-width:4; stroke-opacity:1; fill:none" points="1946.29,1382.19 1946.29,1384.24 1955.8,1384.24 1955.8,1382.19 1946.29,1382.19 "/>
<path clip-path="url(#clip932)" d="M1965.03 1382.22 L1965.03 1384.24 L1974.55 1384.24 L1974.55 1382.22 L1965.03 1382.22 L1965.03 1382.22  Z" fill="#009af9" fill-rule="evenodd" fill-opacity="1"/>
<polyline clip-path="url(#clip932)" style="stroke:#000000; stroke-linecap:round; stroke-linejoin:round; stroke-width:4; stroke-opacity:1; fill:none" points="1965.03,1382.22 1965.03,1384.24 1974.55,1384.24 1974.55,1382.22 1965.03,1382.22 "/>
<path clip-path="url(#clip932)" d="M1983.78 1382.25 L1983.78 1384.24 L1993.3 1384.24 L1993.3 1382.25 L1983.78 1382.25 L1983.78 1382.25  Z" fill="#009af9" fill-rule="evenodd" fill-opacity="1"/>
<polyline clip-path="url(#clip932)" style="stroke:#000000; stroke-linecap:round; stroke-linejoin:round; stroke-width:4; stroke-opacity:1; fill:none" points="1983.78,1382.25 1983.78,1384.24 1993.3,1384.24 1993.3,1382.25 1983.78,1382.25 "/>
<path clip-path="url(#clip932)" d="M2002.53 1382.28 L2002.53 1384.24 L2012.05 1384.24 L2012.05 1382.28 L2002.53 1382.28 L2002.53 1382.28  Z" fill="#009af9" fill-rule="evenodd" fill-opacity="1"/>
<polyline clip-path="url(#clip932)" style="stroke:#000000; stroke-linecap:round; stroke-linejoin:round; stroke-width:4; stroke-opacity:1; fill:none" points="2002.53,1382.28 2002.53,1384.24 2012.05,1384.24 2012.05,1382.28 2002.53,1382.28 "/>
<path clip-path="url(#clip932)" d="M2021.28 1382.3 L2021.28 1384.24 L2030.8 1384.24 L2030.8 1382.3 L2021.28 1382.3 L2021.28 1382.3  Z" fill="#009af9" fill-rule="evenodd" fill-opacity="1"/>
<polyline clip-path="url(#clip932)" style="stroke:#000000; stroke-linecap:round; stroke-linejoin:round; stroke-width:4; stroke-opacity:1; fill:none" points="2021.28,1382.3 2021.28,1384.24 2030.8,1384.24 2030.8,1382.3 2021.28,1382.3 "/>
<path clip-path="url(#clip932)" d="M2040.03 1382.32 L2040.03 1384.24 L2049.55 1384.24 L2049.55 1382.32 L2040.03 1382.32 L2040.03 1382.32  Z" fill="#009af9" fill-rule="evenodd" fill-opacity="1"/>
<polyline clip-path="url(#clip932)" style="stroke:#000000; stroke-linecap:round; stroke-linejoin:round; stroke-width:4; stroke-opacity:1; fill:none" points="2040.03,1382.32 2040.03,1384.24 2049.55,1384.24 2049.55,1382.32 2040.03,1382.32 "/>
<path clip-path="url(#clip932)" d="M2058.78 1382.34 L2058.78 1384.24 L2068.29 1384.24 L2068.29 1382.34 L2058.78 1382.34 L2058.78 1382.34  Z" fill="#009af9" fill-rule="evenodd" fill-opacity="1"/>
<polyline clip-path="url(#clip932)" style="stroke:#000000; stroke-linecap:round; stroke-linejoin:round; stroke-width:4; stroke-opacity:1; fill:none" points="2058.78,1382.34 2058.78,1384.24 2068.29,1384.24 2068.29,1382.34 2058.78,1382.34 "/>
<path clip-path="url(#clip932)" d="M2077.53 1382.36 L2077.53 1384.24 L2087.04 1384.24 L2087.04 1382.36 L2077.53 1382.36 L2077.53 1382.36  Z" fill="#009af9" fill-rule="evenodd" fill-opacity="1"/>
<polyline clip-path="url(#clip932)" style="stroke:#000000; stroke-linecap:round; stroke-linejoin:round; stroke-width:4; stroke-opacity:1; fill:none" points="2077.53,1382.36 2077.53,1384.24 2087.04,1384.24 2087.04,1382.36 2077.53,1382.36 "/>
<path clip-path="url(#clip932)" d="M2096.28 1382.38 L2096.28 1384.24 L2105.79 1384.24 L2105.79 1382.38 L2096.28 1382.38 L2096.28 1382.38  Z" fill="#009af9" fill-rule="evenodd" fill-opacity="1"/>
<polyline clip-path="url(#clip932)" style="stroke:#000000; stroke-linecap:round; stroke-linejoin:round; stroke-width:4; stroke-opacity:1; fill:none" points="2096.28,1382.38 2096.28,1384.24 2105.79,1384.24 2105.79,1382.38 2096.28,1382.38 "/>
<path clip-path="url(#clip932)" d="M2115.03 1382.4 L2115.03 1384.24 L2124.54 1384.24 L2124.54 1382.4 L2115.03 1382.4 L2115.03 1382.4  Z" fill="#009af9" fill-rule="evenodd" fill-opacity="1"/>
<polyline clip-path="url(#clip932)" style="stroke:#000000; stroke-linecap:round; stroke-linejoin:round; stroke-width:4; stroke-opacity:1; fill:none" points="2115.03,1382.4 2115.03,1384.24 2124.54,1384.24 2124.54,1382.4 2115.03,1382.4 "/>
<path clip-path="url(#clip932)" d="M2133.78 1382.41 L2133.78 1384.24 L2143.29 1384.24 L2143.29 1382.41 L2133.78 1382.41 L2133.78 1382.41  Z" fill="#009af9" fill-rule="evenodd" fill-opacity="1"/>
<polyline clip-path="url(#clip932)" style="stroke:#000000; stroke-linecap:round; stroke-linejoin:round; stroke-width:4; stroke-opacity:1; fill:none" points="2133.78,1382.41 2133.78,1384.24 2143.29,1384.24 2143.29,1382.41 2133.78,1382.41 "/>
<path clip-path="url(#clip932)" d="M2152.53 1382.42 L2152.53 1384.24 L2162.05 1384.24 L2162.05 1382.42 L2152.53 1382.42 L2152.53 1382.42  Z" fill="#009af9" fill-rule="evenodd" fill-opacity="1"/>
<polyline clip-path="url(#clip932)" style="stroke:#000000; stroke-linecap:round; stroke-linejoin:round; stroke-width:4; stroke-opacity:1; fill:none" points="2152.53,1382.42 2152.53,1384.24 2162.05,1384.24 2162.05,1382.42 2152.53,1382.42 "/>
<path clip-path="url(#clip932)" d="M2171.28 1382.42 L2171.28 1384.24 L2180.8 1384.24 L2180.8 1382.42 L2171.28 1382.42 L2171.28 1382.42  Z" fill="#009af9" fill-rule="evenodd" fill-opacity="1"/>
<polyline clip-path="url(#clip932)" style="stroke:#000000; stroke-linecap:round; stroke-linejoin:round; stroke-width:4; stroke-opacity:1; fill:none" points="2171.28,1382.42 2171.28,1384.24 2180.8,1384.24 2180.8,1382.42 2171.28,1382.42 "/>
<path clip-path="url(#clip932)" d="M2190.03 1382.41 L2190.03 1384.24 L2199.55 1384.24 L2199.55 1382.41 L2190.03 1382.41 L2190.03 1382.41  Z" fill="#009af9" fill-rule="evenodd" fill-opacity="1"/>
<polyline clip-path="url(#clip932)" style="stroke:#000000; stroke-linecap:round; stroke-linejoin:round; stroke-width:4; stroke-opacity:1; fill:none" points="2190.03,1382.41 2190.03,1384.24 2199.55,1384.24 2199.55,1382.41 2190.03,1382.41 "/>
<path clip-path="url(#clip932)" d="M2208.79 1382.38 L2208.79 1384.24 L2218.31 1384.24 L2218.31 1382.38 L2208.79 1382.38 L2208.79 1382.38  Z" fill="#009af9" fill-rule="evenodd" fill-opacity="1"/>
<polyline clip-path="url(#clip932)" style="stroke:#000000; stroke-linecap:round; stroke-linejoin:round; stroke-width:4; stroke-opacity:1; fill:none" points="2208.79,1382.38 2208.79,1384.24 2218.31,1384.24 2218.31,1382.38 2208.79,1382.38 "/>
<path clip-path="url(#clip932)" d="M2227.56 1382.28 L2227.56 1384.24 L2237.08 1384.24 L2237.08 1382.28 L2227.56 1382.28 L2227.56 1382.28  Z" fill="#009af9" fill-rule="evenodd" fill-opacity="1"/>
<polyline clip-path="url(#clip932)" style="stroke:#000000; stroke-linecap:round; stroke-linejoin:round; stroke-width:4; stroke-opacity:1; fill:none" points="2227.56,1382.28 2227.56,1384.24 2237.08,1384.24 2237.08,1382.28 2227.56,1382.28 "/>
<circle clip-path="url(#clip932)" style="fill:#009af9; stroke:none; fill-opacity:0" cx="369.981" cy="86.1857" r="2"/>
<circle clip-path="url(#clip932)" style="fill:#009af9; stroke:none; fill-opacity:0" cx="381.878" cy="95.3001" r="2"/>
<circle clip-path="url(#clip932)" style="fill:#009af9; stroke:none; fill-opacity:0" cx="398.492" cy="808.324" r="2"/>
<circle clip-path="url(#clip932)" style="fill:#009af9; stroke:none; fill-opacity:0" cx="416.311" cy="1066.56" r="2"/>
<circle clip-path="url(#clip932)" style="fill:#009af9; stroke:none; fill-opacity:0" cx="434.535" cy="1180.05" r="2"/>
<circle clip-path="url(#clip932)" style="fill:#009af9; stroke:none; fill-opacity:0" cx="452.94" cy="1239.88" r="2"/>
<circle clip-path="url(#clip932)" style="fill:#009af9; stroke:none; fill-opacity:0" cx="471.444" cy="1275.56" r="2"/>
<circle clip-path="url(#clip932)" style="fill:#009af9; stroke:none; fill-opacity:0" cx="490.007" cy="1298.73" r="2"/>
<circle clip-path="url(#clip932)" style="fill:#009af9; stroke:none; fill-opacity:0" cx="508.609" cy="1314.74" r="2"/>
<circle clip-path="url(#clip932)" style="fill:#009af9; stroke:none; fill-opacity:0" cx="527.238" cy="1326.33" r="2"/>
<circle clip-path="url(#clip932)" style="fill:#009af9; stroke:none; fill-opacity:0" cx="545.887" cy="1335.03" r="2"/>
<circle clip-path="url(#clip932)" style="fill:#009af9; stroke:none; fill-opacity:0" cx="564.551" cy="1341.76" r="2"/>
<circle clip-path="url(#clip932)" style="fill:#009af9; stroke:none; fill-opacity:0" cx="583.227" cy="1347.08" r="2"/>
<circle clip-path="url(#clip932)" style="fill:#009af9; stroke:none; fill-opacity:0" cx="601.912" cy="1351.38" r="2"/>
<circle clip-path="url(#clip932)" style="fill:#009af9; stroke:none; fill-opacity:0" cx="620.604" cy="1354.91" r="2"/>
<circle clip-path="url(#clip932)" style="fill:#009af9; stroke:none; fill-opacity:0" cx="639.303" cy="1357.85" r="2"/>
<circle clip-path="url(#clip932)" style="fill:#009af9; stroke:none; fill-opacity:0" cx="658.007" cy="1360.33" r="2"/>
<circle clip-path="url(#clip932)" style="fill:#009af9; stroke:none; fill-opacity:0" cx="676.715" cy="1362.44" r="2"/>
<circle clip-path="url(#clip932)" style="fill:#009af9; stroke:none; fill-opacity:0" cx="695.427" cy="1364.26" r="2"/>
<circle clip-path="url(#clip932)" style="fill:#009af9; stroke:none; fill-opacity:0" cx="714.143" cy="1365.84" r="2"/>
<circle clip-path="url(#clip932)" style="fill:#009af9; stroke:none; fill-opacity:0" cx="732.861" cy="1367.22" r="2"/>
<circle clip-path="url(#clip932)" style="fill:#009af9; stroke:none; fill-opacity:0" cx="751.581" cy="1368.43" r="2"/>
<circle clip-path="url(#clip932)" style="fill:#009af9; stroke:none; fill-opacity:0" cx="770.304" cy="1369.51" r="2"/>
<circle clip-path="url(#clip932)" style="fill:#009af9; stroke:none; fill-opacity:0" cx="789.029" cy="1370.47" r="2"/>
<circle clip-path="url(#clip932)" style="fill:#009af9; stroke:none; fill-opacity:0" cx="807.755" cy="1371.33" r="2"/>
<circle clip-path="url(#clip932)" style="fill:#009af9; stroke:none; fill-opacity:0" cx="826.483" cy="1372.1" r="2"/>
<circle clip-path="url(#clip932)" style="fill:#009af9; stroke:none; fill-opacity:0" cx="845.212" cy="1372.8" r="2"/>
<circle clip-path="url(#clip932)" style="fill:#009af9; stroke:none; fill-opacity:0" cx="863.942" cy="1373.43" r="2"/>
<circle clip-path="url(#clip932)" style="fill:#009af9; stroke:none; fill-opacity:0" cx="882.674" cy="1374.01" r="2"/>
<circle clip-path="url(#clip932)" style="fill:#009af9; stroke:none; fill-opacity:0" cx="901.407" cy="1374.54" r="2"/>
<circle clip-path="url(#clip932)" style="fill:#009af9; stroke:none; fill-opacity:0" cx="920.14" cy="1375.02" r="2"/>
<circle clip-path="url(#clip932)" style="fill:#009af9; stroke:none; fill-opacity:0" cx="938.875" cy="1375.46" r="2"/>
<circle clip-path="url(#clip932)" style="fill:#009af9; stroke:none; fill-opacity:0" cx="957.61" cy="1375.87" r="2"/>
<circle clip-path="url(#clip932)" style="fill:#009af9; stroke:none; fill-opacity:0" cx="976.346" cy="1376.25" r="2"/>
<circle clip-path="url(#clip932)" style="fill:#009af9; stroke:none; fill-opacity:0" cx="995.083" cy="1376.6" r="2"/>
<circle clip-path="url(#clip932)" style="fill:#009af9; stroke:none; fill-opacity:0" cx="1013.82" cy="1376.92" r="2"/>
<circle clip-path="url(#clip932)" style="fill:#009af9; stroke:none; fill-opacity:0" cx="1032.56" cy="1377.22" r="2"/>
<circle clip-path="url(#clip932)" style="fill:#009af9; stroke:none; fill-opacity:0" cx="1051.3" cy="1377.5" r="2"/>
<circle clip-path="url(#clip932)" style="fill:#009af9; stroke:none; fill-opacity:0" cx="1070.04" cy="1377.77" r="2"/>
<circle clip-path="url(#clip932)" style="fill:#009af9; stroke:none; fill-opacity:0" cx="1088.77" cy="1378.01" r="2"/>
<circle clip-path="url(#clip932)" style="fill:#009af9; stroke:none; fill-opacity:0" cx="1107.51" cy="1378.24" r="2"/>
<circle clip-path="url(#clip932)" style="fill:#009af9; stroke:none; fill-opacity:0" cx="1126.25" cy="1378.46" r="2"/>
<circle clip-path="url(#clip932)" style="fill:#009af9; stroke:none; fill-opacity:0" cx="1145" cy="1378.66" r="2"/>
<circle clip-path="url(#clip932)" style="fill:#009af9; stroke:none; fill-opacity:0" cx="1163.74" cy="1378.85" r="2"/>
<circle clip-path="url(#clip932)" style="fill:#009af9; stroke:none; fill-opacity:0" cx="1182.48" cy="1379.03" r="2"/>
<circle clip-path="url(#clip932)" style="fill:#009af9; stroke:none; fill-opacity:0" cx="1201.22" cy="1379.21" r="2"/>
<circle clip-path="url(#clip932)" style="fill:#009af9; stroke:none; fill-opacity:0" cx="1219.96" cy="1379.37" r="2"/>
<circle clip-path="url(#clip932)" style="fill:#009af9; stroke:none; fill-opacity:0" cx="1238.7" cy="1379.52" r="2"/>
<circle clip-path="url(#clip932)" style="fill:#009af9; stroke:none; fill-opacity:0" cx="1257.45" cy="1379.66" r="2"/>
<circle clip-path="url(#clip932)" style="fill:#009af9; stroke:none; fill-opacity:0" cx="1276.19" cy="1379.8" r="2"/>
<circle clip-path="url(#clip932)" style="fill:#009af9; stroke:none; fill-opacity:0" cx="1294.93" cy="1379.93" r="2"/>
<circle clip-path="url(#clip932)" style="fill:#009af9; stroke:none; fill-opacity:0" cx="1313.68" cy="1380.05" r="2"/>
<circle clip-path="url(#clip932)" style="fill:#009af9; stroke:none; fill-opacity:0" cx="1332.42" cy="1380.17" r="2"/>
<circle clip-path="url(#clip932)" style="fill:#009af9; stroke:none; fill-opacity:0" cx="1351.16" cy="1380.28" r="2"/>
<circle clip-path="url(#clip932)" style="fill:#009af9; stroke:none; fill-opacity:0" cx="1369.91" cy="1380.39" r="2"/>
<circle clip-path="url(#clip932)" style="fill:#009af9; stroke:none; fill-opacity:0" cx="1388.65" cy="1380.49" r="2"/>
<circle clip-path="url(#clip932)" style="fill:#009af9; stroke:none; fill-opacity:0" cx="1407.4" cy="1380.59" r="2"/>
<circle clip-path="url(#clip932)" style="fill:#009af9; stroke:none; fill-opacity:0" cx="1426.14" cy="1380.68" r="2"/>
<circle clip-path="url(#clip932)" style="fill:#009af9; stroke:none; fill-opacity:0" cx="1444.89" cy="1380.77" r="2"/>
<circle clip-path="url(#clip932)" style="fill:#009af9; stroke:none; fill-opacity:0" cx="1463.63" cy="1380.85" r="2"/>
<circle clip-path="url(#clip932)" style="fill:#009af9; stroke:none; fill-opacity:0" cx="1482.38" cy="1380.94" r="2"/>
<circle clip-path="url(#clip932)" style="fill:#009af9; stroke:none; fill-opacity:0" cx="1501.12" cy="1381.01" r="2"/>
<circle clip-path="url(#clip932)" style="fill:#009af9; stroke:none; fill-opacity:0" cx="1519.87" cy="1381.09" r="2"/>
<circle clip-path="url(#clip932)" style="fill:#009af9; stroke:none; fill-opacity:0" cx="1538.61" cy="1381.16" r="2"/>
<circle clip-path="url(#clip932)" style="fill:#009af9; stroke:none; fill-opacity:0" cx="1557.36" cy="1381.23" r="2"/>
<circle clip-path="url(#clip932)" style="fill:#009af9; stroke:none; fill-opacity:0" cx="1576.1" cy="1381.29" r="2"/>
<circle clip-path="url(#clip932)" style="fill:#009af9; stroke:none; fill-opacity:0" cx="1594.85" cy="1381.36" r="2"/>
<circle clip-path="url(#clip932)" style="fill:#009af9; stroke:none; fill-opacity:0" cx="1613.6" cy="1381.42" r="2"/>
<circle clip-path="url(#clip932)" style="fill:#009af9; stroke:none; fill-opacity:0" cx="1632.34" cy="1381.48" r="2"/>
<circle clip-path="url(#clip932)" style="fill:#009af9; stroke:none; fill-opacity:0" cx="1651.09" cy="1381.53" r="2"/>
<circle clip-path="url(#clip932)" style="fill:#009af9; stroke:none; fill-opacity:0" cx="1669.83" cy="1381.59" r="2"/>
<circle clip-path="url(#clip932)" style="fill:#009af9; stroke:none; fill-opacity:0" cx="1688.58" cy="1381.64" r="2"/>
<circle clip-path="url(#clip932)" style="fill:#009af9; stroke:none; fill-opacity:0" cx="1707.33" cy="1381.69" r="2"/>
<circle clip-path="url(#clip932)" style="fill:#009af9; stroke:none; fill-opacity:0" cx="1726.07" cy="1381.74" r="2"/>
<circle clip-path="url(#clip932)" style="fill:#009af9; stroke:none; fill-opacity:0" cx="1744.82" cy="1381.78" r="2"/>
<circle clip-path="url(#clip932)" style="fill:#009af9; stroke:none; fill-opacity:0" cx="1763.57" cy="1381.83" r="2"/>
<circle clip-path="url(#clip932)" style="fill:#009af9; stroke:none; fill-opacity:0" cx="1782.32" cy="1381.87" r="2"/>
<circle clip-path="url(#clip932)" style="fill:#009af9; stroke:none; fill-opacity:0" cx="1801.06" cy="1381.91" r="2"/>
<circle clip-path="url(#clip932)" style="fill:#009af9; stroke:none; fill-opacity:0" cx="1819.81" cy="1381.95" r="2"/>
<circle clip-path="url(#clip932)" style="fill:#009af9; stroke:none; fill-opacity:0" cx="1838.56" cy="1381.99" r="2"/>
<circle clip-path="url(#clip932)" style="fill:#009af9; stroke:none; fill-opacity:0" cx="1857.31" cy="1382.03" r="2"/>
<circle clip-path="url(#clip932)" style="fill:#009af9; stroke:none; fill-opacity:0" cx="1876.05" cy="1382.06" r="2"/>
<circle clip-path="url(#clip932)" style="fill:#009af9; stroke:none; fill-opacity:0" cx="1894.8" cy="1382.1" r="2"/>
<circle clip-path="url(#clip932)" style="fill:#009af9; stroke:none; fill-opacity:0" cx="1913.55" cy="1382.13" r="2"/>
<circle clip-path="url(#clip932)" style="fill:#009af9; stroke:none; fill-opacity:0" cx="1932.3" cy="1382.16" r="2"/>
<circle clip-path="url(#clip932)" style="fill:#009af9; stroke:none; fill-opacity:0" cx="1951.04" cy="1382.19" r="2"/>
<circle clip-path="url(#clip932)" style="fill:#009af9; stroke:none; fill-opacity:0" cx="1969.79" cy="1382.22" r="2"/>
<circle clip-path="url(#clip932)" style="fill:#009af9; stroke:none; fill-opacity:0" cx="1988.54" cy="1382.25" r="2"/>
<circle clip-path="url(#clip932)" style="fill:#009af9; stroke:none; fill-opacity:0" cx="2007.29" cy="1382.28" r="2"/>
<circle clip-path="url(#clip932)" style="fill:#009af9; stroke:none; fill-opacity:0" cx="2026.04" cy="1382.3" r="2"/>
<circle clip-path="url(#clip932)" style="fill:#009af9; stroke:none; fill-opacity:0" cx="2044.79" cy="1382.32" r="2"/>
<circle clip-path="url(#clip932)" style="fill:#009af9; stroke:none; fill-opacity:0" cx="2063.54" cy="1382.34" r="2"/>
<circle clip-path="url(#clip932)" style="fill:#009af9; stroke:none; fill-opacity:0" cx="2082.29" cy="1382.36" r="2"/>
<circle clip-path="url(#clip932)" style="fill:#009af9; stroke:none; fill-opacity:0" cx="2101.04" cy="1382.38" r="2"/>
<circle clip-path="url(#clip932)" style="fill:#009af9; stroke:none; fill-opacity:0" cx="2119.79" cy="1382.4" r="2"/>
<circle clip-path="url(#clip932)" style="fill:#009af9; stroke:none; fill-opacity:0" cx="2138.54" cy="1382.41" r="2"/>
<circle clip-path="url(#clip932)" style="fill:#009af9; stroke:none; fill-opacity:0" cx="2157.29" cy="1382.42" r="2"/>
<circle clip-path="url(#clip932)" style="fill:#009af9; stroke:none; fill-opacity:0" cx="2176.04" cy="1382.42" r="2"/>
<circle clip-path="url(#clip932)" style="fill:#009af9; stroke:none; fill-opacity:0" cx="2194.79" cy="1382.41" r="2"/>
<circle clip-path="url(#clip932)" style="fill:#009af9; stroke:none; fill-opacity:0" cx="2213.55" cy="1382.38" r="2"/>
<circle clip-path="url(#clip932)" style="fill:#009af9; stroke:none; fill-opacity:0" cx="2232.32" cy="1382.28" r="2"/>
<path clip-path="url(#clip930)" d="M2019.9 196.789 L2282.65 196.789 L2282.65 93.1086 L2019.9 93.1086  Z" fill="#ffffff" fill-rule="evenodd" fill-opacity="1"/>
<polyline clip-path="url(#clip930)" style="stroke:#000000; stroke-linecap:round; stroke-linejoin:round; stroke-width:4; stroke-opacity:1; fill:none" points="2019.9,196.789 2282.65,196.789 2282.65,93.1086 2019.9,93.1086 2019.9,196.789 "/>
<path clip-path="url(#clip930)" d="M2043.27 165.685 L2183.48 165.685 L2183.48 124.213 L2043.27 124.213 L2043.27 165.685  Z" fill="#009af9" fill-rule="evenodd" fill-opacity="1"/>
<polyline clip-path="url(#clip930)" style="stroke:#000000; stroke-linecap:round; stroke-linejoin:round; stroke-width:4; stroke-opacity:1; fill:none" points="2043.27,165.685 2183.48,165.685 2183.48,124.213 2043.27,124.213 2043.27,165.685 "/>
<path clip-path="url(#clip930)" d="M2220.69 164.636 Q2218.89 169.266 2217.17 170.678 Q2215.46 172.09 2212.59 172.09 L2209.19 172.09 L2209.19 168.525 L2211.69 168.525 Q2213.45 168.525 2214.42 167.692 Q2215.39 166.858 2216.57 163.756 L2217.34 161.812 L2206.85 136.303 L2211.36 136.303 L2219.47 156.581 L2227.57 136.303 L2232.08 136.303 L2220.69 164.636 Z" fill="#000000" fill-rule="evenodd" fill-opacity="1" /><path clip-path="url(#clip930)" d="M2239.37 158.293 L2247.01 158.293 L2247.01 131.928 L2238.7 133.595 L2238.7 129.335 L2246.96 127.669 L2251.64 127.669 L2251.64 158.293 L2259.28 158.293 L2259.28 162.229 L2239.37 162.229 L2239.37 158.293 Z" fill="#000000" fill-rule="evenodd" fill-opacity="1" /></svg>
