<?xml version="1.0" encoding="utf-8"?>
<svg xmlns="http://www.w3.org/2000/svg" xmlns:xlink="http://www.w3.org/1999/xlink" width="600" height="400" viewBox="0 0 2400 1600">
<defs>
  <clipPath id="clip680">
    <rect x="0" y="0" width="2400" height="1600"/>
  </clipPath>
</defs>
<path clip-path="url(#clip680)" d="M0 1600 L2400 1600 L2400 0 L0 0  Z" fill="#ffffff" fill-rule="evenodd" fill-opacity="1"/>
<defs>
  <clipPath id="clip681">
    <rect x="480" y="0" width="1681" height="1600"/>
  </clipPath>
</defs>
<path clip-path="url(#clip680)" d="M155.765 1423.18 L2352.76 1423.18 L2352.76 47.2441 L155.765 47.2441  Z" fill="#ffffff" fill-rule="evenodd" fill-opacity="1"/>
<defs>
  <clipPath id="clip682">
    <rect x="155" y="47" width="2198" height="1377"/>
  </clipPath>
</defs>
<polyline clip-path="url(#clip682)" style="stroke:#000000; stroke-linecap:round; stroke-linejoin:round; stroke-width:2; stroke-opacity:0.1; fill:none" points="217.944,1423.18 217.944,47.2441 "/>
<polyline clip-path="url(#clip682)" style="stroke:#000000; stroke-linecap:round; stroke-linejoin:round; stroke-width:2; stroke-opacity:0.1; fill:none" points="547.814,1423.18 547.814,47.2441 "/>
<polyline clip-path="url(#clip682)" style="stroke:#000000; stroke-linecap:round; stroke-linejoin:round; stroke-width:2; stroke-opacity:0.1; fill:none" points="877.683,1423.18 877.683,47.2441 "/>
<polyline clip-path="url(#clip682)" style="stroke:#000000; stroke-linecap:round; stroke-linejoin:round; stroke-width:2; stroke-opacity:0.1; fill:none" points="1207.55,1423.18 1207.55,47.2441 "/>
<polyline clip-path="url(#clip682)" style="stroke:#000000; stroke-linecap:round; stroke-linejoin:round; stroke-width:2; stroke-opacity:0.1; fill:none" points="1537.42,1423.18 1537.42,47.2441 "/>
<polyline clip-path="url(#clip682)" style="stroke:#000000; stroke-linecap:round; stroke-linejoin:round; stroke-width:2; stroke-opacity:0.1; fill:none" points="1867.29,1423.18 1867.29,47.2441 "/>
<polyline clip-path="url(#clip682)" style="stroke:#000000; stroke-linecap:round; stroke-linejoin:round; stroke-width:2; stroke-opacity:0.1; fill:none" points="2197.16,1423.18 2197.16,47.2441 "/>
<polyline clip-path="url(#clip680)" style="stroke:#000000; stroke-linecap:round; stroke-linejoin:round; stroke-width:4; stroke-opacity:1; fill:none" points="155.765,1423.18 2352.76,1423.18 "/>
<polyline clip-path="url(#clip680)" style="stroke:#000000; stroke-linecap:round; stroke-linejoin:round; stroke-width:4; stroke-opacity:1; fill:none" points="217.944,1423.18 217.944,1404.28 "/>
<polyline clip-path="url(#clip680)" style="stroke:#000000; stroke-linecap:round; stroke-linejoin:round; stroke-width:4; stroke-opacity:1; fill:none" points="547.814,1423.18 547.814,1404.28 "/>
<polyline clip-path="url(#clip680)" style="stroke:#000000; stroke-linecap:round; stroke-linejoin:round; stroke-width:4; stroke-opacity:1; fill:none" points="877.683,1423.18 877.683,1404.28 "/>
<polyline clip-path="url(#clip680)" style="stroke:#000000; stroke-linecap:round; stroke-linejoin:round; stroke-width:4; stroke-opacity:1; fill:none" points="1207.55,1423.18 1207.55,1404.28 "/>
<polyline clip-path="url(#clip680)" style="stroke:#000000; stroke-linecap:round; stroke-linejoin:round; stroke-width:4; stroke-opacity:1; fill:none" points="1537.42,1423.18 1537.42,1404.28 "/>
<polyline clip-path="url(#clip680)" style="stroke:#000000; stroke-linecap:round; stroke-linejoin:round; stroke-width:4; stroke-opacity:1; fill:none" points="1867.29,1423.18 1867.29,1404.28 "/>
<polyline clip-path="url(#clip680)" style="stroke:#000000; stroke-linecap:round; stroke-linejoin:round; stroke-width:4; stroke-opacity:1; fill:none" points="2197.16,1423.18 2197.16,1404.28 "/>
<path clip-path="url(#clip680)" d="M217.944 1454.1 Q214.333 1454.1 212.504 1457.66 Q210.699 1461.2 210.699 1468.33 Q210.699 1475.44 212.504 1479.01 Q214.333 1482.55 217.944 1482.55 Q221.578 1482.55 223.384 1479.01 Q225.212 1475.44 225.212 1468.33 Q225.212 1461.2 223.384 1457.66 Q221.578 1454.1 217.944 1454.1 M217.944 1450.39 Q223.754 1450.39 226.81 1455 Q229.888 1459.58 229.888 1468.33 Q229.888 1477.06 226.81 1481.67 Q223.754 1486.25 217.944 1486.25 Q212.134 1486.25 209.055 1481.67 Q206 1477.06 206 1468.33 Q206 1459.58 209.055 1455 Q212.134 1450.39 217.944 1450.39 Z" fill="#000000" fill-rule="evenodd" fill-opacity="1" /><path clip-path="url(#clip680)" d="M538.196 1481.64 L545.835 1481.64 L545.835 1455.28 L537.524 1456.95 L537.524 1452.69 L545.788 1451.02 L550.464 1451.02 L550.464 1481.64 L558.103 1481.64 L558.103 1485.58 L538.196 1485.58 L538.196 1481.64 Z" fill="#000000" fill-rule="evenodd" fill-opacity="1" /><path clip-path="url(#clip680)" d="M872.336 1481.64 L888.656 1481.64 L888.656 1485.58 L866.711 1485.58 L866.711 1481.64 Q869.373 1478.89 873.957 1474.26 Q878.563 1469.61 879.744 1468.27 Q881.989 1465.74 882.869 1464.01 Q883.771 1462.25 883.771 1460.56 Q883.771 1457.8 881.827 1456.07 Q879.906 1454.33 876.804 1454.33 Q874.605 1454.33 872.151 1455.09 Q869.721 1455.86 866.943 1457.41 L866.943 1452.69 Q869.767 1451.55 872.221 1450.97 Q874.674 1450.39 876.711 1450.39 Q882.082 1450.39 885.276 1453.08 Q888.47 1455.77 888.47 1460.26 Q888.47 1462.39 887.66 1464.31 Q886.873 1466.2 884.767 1468.8 Q884.188 1469.47 881.086 1472.69 Q877.984 1475.88 872.336 1481.64 Z" fill="#000000" fill-rule="evenodd" fill-opacity="1" /><path clip-path="url(#clip680)" d="M1211.8 1466.95 Q1215.16 1467.66 1217.03 1469.93 Q1218.93 1472.2 1218.93 1475.53 Q1218.93 1480.65 1215.41 1483.45 Q1211.89 1486.25 1205.41 1486.25 Q1203.24 1486.25 1200.92 1485.81 Q1198.63 1485.39 1196.18 1484.54 L1196.18 1480.02 Q1198.12 1481.16 1200.44 1481.74 Q1202.75 1482.32 1205.27 1482.32 Q1209.67 1482.32 1211.96 1480.58 Q1214.28 1478.84 1214.28 1475.53 Q1214.28 1472.48 1212.13 1470.77 Q1210 1469.03 1206.18 1469.03 L1202.15 1469.03 L1202.15 1465.19 L1206.36 1465.19 Q1209.81 1465.19 1211.64 1463.82 Q1213.47 1462.43 1213.47 1459.84 Q1213.47 1457.18 1211.57 1455.77 Q1209.69 1454.33 1206.18 1454.33 Q1204.25 1454.33 1202.06 1454.75 Q1199.86 1455.16 1197.22 1456.04 L1197.22 1451.88 Q1199.88 1451.14 1202.19 1450.77 Q1204.53 1450.39 1206.59 1450.39 Q1211.92 1450.39 1215.02 1452.83 Q1218.12 1455.23 1218.12 1459.35 Q1218.12 1462.22 1216.48 1464.21 Q1214.83 1466.18 1211.8 1466.95 Z" fill="#000000" fill-rule="evenodd" fill-opacity="1" /><path clip-path="url(#clip680)" d="M1540.43 1455.09 L1528.63 1473.54 L1540.43 1473.54 L1540.43 1455.09 M1539.21 1451.02 L1545.09 1451.02 L1545.09 1473.54 L1550.02 1473.54 L1550.02 1477.43 L1545.09 1477.43 L1545.09 1485.58 L1540.43 1485.58 L1540.43 1477.43 L1524.83 1477.43 L1524.83 1472.92 L1539.21 1451.02 Z" fill="#000000" fill-rule="evenodd" fill-opacity="1" /><path clip-path="url(#clip680)" d="M1857.57 1451.02 L1875.93 1451.02 L1875.93 1454.96 L1861.85 1454.96 L1861.85 1463.43 Q1862.87 1463.08 1863.89 1462.92 Q1864.91 1462.73 1865.93 1462.73 Q1871.71 1462.73 1875.09 1465.9 Q1878.47 1469.08 1878.47 1474.49 Q1878.47 1480.07 1875 1483.17 Q1871.53 1486.25 1865.21 1486.25 Q1863.03 1486.25 1860.77 1485.88 Q1858.52 1485.51 1856.11 1484.77 L1856.11 1480.07 Q1858.2 1481.2 1860.42 1481.76 Q1862.64 1482.32 1865.12 1482.32 Q1869.12 1482.32 1871.46 1480.21 Q1873.8 1478.1 1873.8 1474.49 Q1873.8 1470.88 1871.46 1468.77 Q1869.12 1466.67 1865.12 1466.67 Q1863.24 1466.67 1861.37 1467.08 Q1859.52 1467.5 1857.57 1468.38 L1857.57 1451.02 Z" fill="#000000" fill-rule="evenodd" fill-opacity="1" /><path clip-path="url(#clip680)" d="M2197.57 1466.44 Q2194.42 1466.44 2192.57 1468.59 Q2190.74 1470.74 2190.74 1474.49 Q2190.74 1478.22 2192.57 1480.39 Q2194.42 1482.55 2197.57 1482.55 Q2200.72 1482.55 2202.54 1480.39 Q2204.4 1478.22 2204.4 1474.49 Q2204.4 1470.74 2202.54 1468.59 Q2200.72 1466.44 2197.57 1466.44 M2206.85 1451.78 L2206.85 1456.04 Q2205.09 1455.21 2203.29 1454.77 Q2201.5 1454.33 2199.74 1454.33 Q2195.11 1454.33 2192.66 1457.45 Q2190.23 1460.58 2189.88 1466.9 Q2191.25 1464.89 2193.31 1463.82 Q2195.37 1462.73 2197.85 1462.73 Q2203.05 1462.73 2206.06 1465.9 Q2209.1 1469.05 2209.1 1474.49 Q2209.1 1479.82 2205.95 1483.03 Q2202.8 1486.25 2197.57 1486.25 Q2191.57 1486.25 2188.4 1481.67 Q2185.23 1477.06 2185.23 1468.33 Q2185.23 1460.14 2189.12 1455.28 Q2193.01 1450.39 2199.56 1450.39 Q2201.32 1450.39 2203.1 1450.74 Q2204.91 1451.09 2206.85 1451.78 Z" fill="#000000" fill-rule="evenodd" fill-opacity="1" /><path clip-path="url(#clip680)" d="M1238.44 1518.52 L1244.33 1518.52 L1244.33 1547.77 L1261.8 1532.4 L1269.28 1532.4 L1250.38 1549.07 L1270.08 1568.04 L1262.44 1568.04 L1244.33 1550.63 L1244.33 1568.04 L1238.44 1568.04 L1238.44 1518.52 Z" fill="#000000" fill-rule="evenodd" fill-opacity="1" /><polyline clip-path="url(#clip682)" style="stroke:#000000; stroke-linecap:round; stroke-linejoin:round; stroke-width:2; stroke-opacity:0.1; fill:none" points="155.765,1277.44 2352.76,1277.44 "/>
<polyline clip-path="url(#clip682)" style="stroke:#000000; stroke-linecap:round; stroke-linejoin:round; stroke-width:2; stroke-opacity:0.1; fill:none" points="155.765,1063.76 2352.76,1063.76 "/>
<polyline clip-path="url(#clip682)" style="stroke:#000000; stroke-linecap:round; stroke-linejoin:round; stroke-width:2; stroke-opacity:0.1; fill:none" points="155.765,850.076 2352.76,850.076 "/>
<polyline clip-path="url(#clip682)" style="stroke:#000000; stroke-linecap:round; stroke-linejoin:round; stroke-width:2; stroke-opacity:0.1; fill:none" points="155.765,636.394 2352.76,636.394 "/>
<polyline clip-path="url(#clip682)" style="stroke:#000000; stroke-linecap:round; stroke-linejoin:round; stroke-width:2; stroke-opacity:0.1; fill:none" points="155.765,422.712 2352.76,422.712 "/>
<polyline clip-path="url(#clip682)" style="stroke:#000000; stroke-linecap:round; stroke-linejoin:round; stroke-width:2; stroke-opacity:0.1; fill:none" points="155.765,209.029 2352.76,209.029 "/>
<polyline clip-path="url(#clip680)" style="stroke:#000000; stroke-linecap:round; stroke-linejoin:round; stroke-width:4; stroke-opacity:1; fill:none" points="155.765,1423.18 155.765,47.2441 "/>
<polyline clip-path="url(#clip680)" style="stroke:#000000; stroke-linecap:round; stroke-linejoin:round; stroke-width:4; stroke-opacity:1; fill:none" points="155.765,1277.44 174.663,1277.44 "/>
<polyline clip-path="url(#clip680)" style="stroke:#000000; stroke-linecap:round; stroke-linejoin:round; stroke-width:4; stroke-opacity:1; fill:none" points="155.765,1063.76 174.663,1063.76 "/>
<polyline clip-path="url(#clip680)" style="stroke:#000000; stroke-linecap:round; stroke-linejoin:round; stroke-width:4; stroke-opacity:1; fill:none" points="155.765,850.076 174.663,850.076 "/>
<polyline clip-path="url(#clip680)" style="stroke:#000000; stroke-linecap:round; stroke-linejoin:round; stroke-width:4; stroke-opacity:1; fill:none" points="155.765,636.394 174.663,636.394 "/>
<polyline clip-path="url(#clip680)" style="stroke:#000000; stroke-linecap:round; stroke-linejoin:round; stroke-width:4; stroke-opacity:1; fill:none" points="155.765,422.712 174.663,422.712 "/>
<polyline clip-path="url(#clip680)" style="stroke:#000000; stroke-linecap:round; stroke-linejoin:round; stroke-width:4; stroke-opacity:1; fill:none" points="155.765,209.029 174.663,209.029 "/>
<path clip-path="url(#clip680)" d="M63.5847 1263.24 Q59.9736 1263.24 58.1449 1266.8 Q56.3393 1270.35 56.3393 1277.48 Q56.3393 1284.58 58.1449 1288.15 Q59.9736 1291.69 63.5847 1291.69 Q67.2189 1291.69 69.0244 1288.15 Q70.8531 1284.58 70.8531 1277.48 Q70.8531 1270.35 69.0244 1266.8 Q67.2189 1263.24 63.5847 1263.24 M63.5847 1259.54 Q69.3948 1259.54 72.4503 1264.14 Q75.529 1268.73 75.529 1277.48 Q75.529 1286.2 72.4503 1290.81 Q69.3948 1295.39 63.5847 1295.39 Q57.7745 1295.39 54.6958 1290.81 Q51.6403 1286.2 51.6403 1277.48 Q51.6403 1268.73 54.6958 1264.14 Q57.7745 1259.54 63.5847 1259.54 Z" fill="#000000" fill-rule="evenodd" fill-opacity="1" /><path clip-path="url(#clip680)" d="M83.7466 1288.84 L88.6308 1288.84 L88.6308 1294.72 L83.7466 1294.72 L83.7466 1288.84 Z" fill="#000000" fill-rule="evenodd" fill-opacity="1" /><path clip-path="url(#clip680)" d="M98.8622 1260.16 L117.219 1260.16 L117.219 1264.1 L103.145 1264.1 L103.145 1272.57 Q104.163 1272.22 105.182 1272.06 Q106.2 1271.87 107.219 1271.87 Q113.006 1271.87 116.385 1275.04 Q119.765 1278.22 119.765 1283.63 Q119.765 1289.21 116.293 1292.31 Q112.82 1295.39 106.501 1295.39 Q104.325 1295.39 102.057 1295.02 Q99.8113 1294.65 97.4039 1293.91 L97.4039 1289.21 Q99.4872 1290.35 101.709 1290.9 Q103.932 1291.46 106.408 1291.46 Q110.413 1291.46 112.751 1289.35 Q115.089 1287.24 115.089 1283.63 Q115.089 1280.02 112.751 1277.92 Q110.413 1275.81 106.408 1275.81 Q104.534 1275.81 102.659 1276.23 Q100.807 1276.64 98.8622 1277.52 L98.8622 1260.16 Z" fill="#000000" fill-rule="evenodd" fill-opacity="1" /><path clip-path="url(#clip680)" d="M53.3995 1077.1 L61.0384 1077.1 L61.0384 1050.74 L52.7282 1052.4 L52.7282 1048.15 L60.9921 1046.48 L65.668 1046.48 L65.668 1077.1 L73.3068 1077.1 L73.3068 1081.04 L53.3995 1081.04 L53.3995 1077.1 Z" fill="#000000" fill-rule="evenodd" fill-opacity="1" /><path clip-path="url(#clip680)" d="M82.7512 1075.16 L87.6354 1075.16 L87.6354 1081.04 L82.7512 1081.04 L82.7512 1075.16 Z" fill="#000000" fill-rule="evenodd" fill-opacity="1" /><path clip-path="url(#clip680)" d="M107.821 1049.56 Q104.209 1049.56 102.381 1053.12 Q100.575 1056.66 100.575 1063.79 Q100.575 1070.9 102.381 1074.46 Q104.209 1078.01 107.821 1078.01 Q111.455 1078.01 113.26 1074.46 Q115.089 1070.9 115.089 1063.79 Q115.089 1056.66 113.26 1053.12 Q111.455 1049.56 107.821 1049.56 M107.821 1045.85 Q113.631 1045.85 116.686 1050.46 Q119.765 1055.04 119.765 1063.79 Q119.765 1072.52 116.686 1077.13 Q113.631 1081.71 107.821 1081.71 Q102.01 1081.71 98.9317 1077.13 Q95.8761 1072.52 95.8761 1063.79 Q95.8761 1055.04 98.9317 1050.46 Q102.01 1045.85 107.821 1045.85 Z" fill="#000000" fill-rule="evenodd" fill-opacity="1" /><path clip-path="url(#clip680)" d="M54.3949 863.421 L62.0337 863.421 L62.0337 837.055 L53.7236 838.722 L53.7236 834.463 L61.9874 832.796 L66.6633 832.796 L66.6633 863.421 L74.3022 863.421 L74.3022 867.356 L54.3949 867.356 L54.3949 863.421 Z" fill="#000000" fill-rule="evenodd" fill-opacity="1" /><path clip-path="url(#clip680)" d="M83.7466 861.477 L88.6308 861.477 L88.6308 867.356 L83.7466 867.356 L83.7466 861.477 Z" fill="#000000" fill-rule="evenodd" fill-opacity="1" /><path clip-path="url(#clip680)" d="M98.8622 832.796 L117.219 832.796 L117.219 836.731 L103.145 836.731 L103.145 845.203 Q104.163 844.856 105.182 844.694 Q106.2 844.509 107.219 844.509 Q113.006 844.509 116.385 847.68 Q119.765 850.852 119.765 856.268 Q119.765 861.847 116.293 864.949 Q112.82 868.027 106.501 868.027 Q104.325 868.027 102.057 867.657 Q99.8113 867.287 97.4039 866.546 L97.4039 861.847 Q99.4872 862.981 101.709 863.537 Q103.932 864.092 106.408 864.092 Q110.413 864.092 112.751 861.986 Q115.089 859.879 115.089 856.268 Q115.089 852.657 112.751 850.551 Q110.413 848.444 106.408 848.444 Q104.534 848.444 102.659 848.861 Q100.807 849.278 98.8622 850.157 L98.8622 832.796 Z" fill="#000000" fill-rule="evenodd" fill-opacity="1" /><path clip-path="url(#clip680)" d="M56.6171 649.739 L72.9365 649.739 L72.9365 653.674 L50.9921 653.674 L50.9921 649.739 Q53.6541 646.984 58.2375 642.354 Q62.8439 637.702 64.0245 636.359 Q66.2698 633.836 67.1494 632.1 Q68.0522 630.341 68.0522 628.651 Q68.0522 625.896 66.1078 624.16 Q64.1865 622.424 61.0847 622.424 Q58.8856 622.424 56.4319 623.188 Q54.0014 623.952 51.2236 625.503 L51.2236 620.781 Q54.0477 619.646 56.5014 619.068 Q58.955 618.489 60.9921 618.489 Q66.3624 618.489 69.5568 621.174 Q72.7513 623.859 72.7513 628.35 Q72.7513 630.48 71.9411 632.401 Q71.1541 634.299 69.0476 636.892 Q68.4689 637.563 65.367 640.78 Q62.2652 643.975 56.6171 649.739 Z" fill="#000000" fill-rule="evenodd" fill-opacity="1" /><path clip-path="url(#clip680)" d="M82.7512 647.794 L87.6354 647.794 L87.6354 653.674 L82.7512 653.674 L82.7512 647.794 Z" fill="#000000" fill-rule="evenodd" fill-opacity="1" /><path clip-path="url(#clip680)" d="M107.821 622.193 Q104.209 622.193 102.381 625.757 Q100.575 629.299 100.575 636.429 Q100.575 643.535 102.381 647.1 Q104.209 650.641 107.821 650.641 Q111.455 650.641 113.26 647.1 Q115.089 643.535 115.089 636.429 Q115.089 629.299 113.26 625.757 Q111.455 622.193 107.821 622.193 M107.821 618.489 Q113.631 618.489 116.686 623.095 Q119.765 627.679 119.765 636.429 Q119.765 645.155 116.686 649.762 Q113.631 654.345 107.821 654.345 Q102.01 654.345 98.9317 649.762 Q95.8761 645.155 95.8761 636.429 Q95.8761 627.679 98.9317 623.095 Q102.01 618.489 107.821 618.489 Z" fill="#000000" fill-rule="evenodd" fill-opacity="1" /><path clip-path="url(#clip680)" d="M57.6125 436.056 L73.9318 436.056 L73.9318 439.992 L51.9875 439.992 L51.9875 436.056 Q54.6495 433.302 59.2328 428.672 Q63.8393 424.019 65.0198 422.677 Q67.2652 420.154 68.1448 418.418 Q69.0476 416.658 69.0476 414.969 Q69.0476 412.214 67.1032 410.478 Q65.1819 408.742 62.08 408.742 Q59.881 408.742 57.4273 409.506 Q54.9967 410.27 52.219 411.82 L52.219 407.098 Q55.043 405.964 57.4967 405.385 Q59.9504 404.807 61.9874 404.807 Q67.3578 404.807 70.5522 407.492 Q73.7466 410.177 73.7466 414.668 Q73.7466 416.797 72.9365 418.719 Q72.1494 420.617 70.0429 423.209 Q69.4642 423.881 66.3624 427.098 Q63.2606 430.293 57.6125 436.056 Z" fill="#000000" fill-rule="evenodd" fill-opacity="1" /><path clip-path="url(#clip680)" d="M83.7466 434.112 L88.6308 434.112 L88.6308 439.992 L83.7466 439.992 L83.7466 434.112 Z" fill="#000000" fill-rule="evenodd" fill-opacity="1" /><path clip-path="url(#clip680)" d="M98.8622 405.432 L117.219 405.432 L117.219 409.367 L103.145 409.367 L103.145 417.839 Q104.163 417.492 105.182 417.33 Q106.2 417.144 107.219 417.144 Q113.006 417.144 116.385 420.316 Q119.765 423.487 119.765 428.904 Q119.765 434.482 116.293 437.584 Q112.82 440.663 106.501 440.663 Q104.325 440.663 102.057 440.292 Q99.8113 439.922 97.4039 439.181 L97.4039 434.482 Q99.4872 435.617 101.709 436.172 Q103.932 436.728 106.408 436.728 Q110.413 436.728 112.751 434.621 Q115.089 432.515 115.089 428.904 Q115.089 425.293 112.751 423.186 Q110.413 421.08 106.408 421.08 Q104.534 421.08 102.659 421.496 Q100.807 421.913 98.8622 422.793 L98.8622 405.432 Z" fill="#000000" fill-rule="evenodd" fill-opacity="1" /><path clip-path="url(#clip680)" d="M66.7559 207.675 Q70.1124 208.393 71.9874 210.661 Q73.8855 212.93 73.8855 216.263 Q73.8855 221.379 70.367 224.18 Q66.8485 226.981 60.3671 226.981 Q58.1912 226.981 55.8764 226.541 Q53.5847 226.124 51.131 225.268 L51.131 220.754 Q53.0754 221.888 55.3903 222.467 Q57.7051 223.045 60.2282 223.045 Q64.6263 223.045 66.918 221.309 Q69.2328 219.573 69.2328 216.263 Q69.2328 213.208 67.08 211.495 Q64.9504 209.758 61.131 209.758 L57.1032 209.758 L57.1032 205.916 L61.3161 205.916 Q64.7652 205.916 66.5939 204.55 Q68.4226 203.161 68.4226 200.569 Q68.4226 197.907 66.5245 196.495 Q64.6495 195.059 61.131 195.059 Q59.2097 195.059 57.0106 195.476 Q54.8115 195.893 52.1727 196.772 L52.1727 192.606 Q54.8347 191.865 57.1495 191.495 Q59.4875 191.124 61.5476 191.124 Q66.8717 191.124 69.9735 193.555 Q73.0753 195.962 73.0753 200.083 Q73.0753 202.953 71.4318 204.944 Q69.7883 206.911 66.7559 207.675 Z" fill="#000000" fill-rule="evenodd" fill-opacity="1" /><path clip-path="url(#clip680)" d="M82.7512 220.43 L87.6354 220.43 L87.6354 226.309 L82.7512 226.309 L82.7512 220.43 Z" fill="#000000" fill-rule="evenodd" fill-opacity="1" /><path clip-path="url(#clip680)" d="M107.821 194.828 Q104.209 194.828 102.381 198.393 Q100.575 201.934 100.575 209.064 Q100.575 216.17 102.381 219.735 Q104.209 223.277 107.821 223.277 Q111.455 223.277 113.26 219.735 Q115.089 216.17 115.089 209.064 Q115.089 201.934 113.26 198.393 Q111.455 194.828 107.821 194.828 M107.821 191.124 Q113.631 191.124 116.686 195.731 Q119.765 200.314 119.765 209.064 Q119.765 217.791 116.686 222.397 Q113.631 226.981 107.821 226.981 Q102.01 226.981 98.9317 222.397 Q95.8761 217.791 95.8761 209.064 Q95.8761 200.314 98.9317 195.731 Q102.01 191.124 107.821 191.124 Z" fill="#000000" fill-rule="evenodd" fill-opacity="1" /><polyline clip-path="url(#clip682)" style="stroke:#009af9; stroke-linecap:round; stroke-linejoin:round; stroke-width:4; stroke-opacity:1; fill:none" points="217.944,86.1857 221.317,86.1893 224.691,86.2002 228.064,86.2183 231.438,86.2436 247.034,86.4548 262.631,86.8202 278.227,87.3392 293.823,88.0108 309.42,88.8337 325.016,89.8066 340.613,90.9274 356.209,92.1942 374.955,93.9066 393.7,95.8217 412.446,97.9343 431.191,100.239 447.041,102.332 462.89,104.554 478.739,106.9 494.588,109.365 511.805,112.172 529.021,115.108 546.238,118.165 563.455,121.335 595.199,127.454 626.943,133.883 660.977,141.057 695.01,148.453 734.441,157.202 773.872,166.028 808.914,173.836 843.955,181.518 874.684,188.082 905.412,194.423 922.163,197.765 938.914,201.015 955.665,204.164 972.416,207.203 989.267,210.142 1006.12,212.954 1022.97,215.631 1039.82,218.167 1058.45,220.797 1077.08,223.236 1095.71,225.475 1114.34,227.502 1132.07,229.227 1149.79,230.741 1167.52,232.038 1185.25,233.106 1203.68,233.968 1222.11,234.569 1240.54,234.903 1258.97,234.969 1274.49,234.816 1290,234.472 1305.52,233.941 1321.03,233.225 1339.98,232.106 1358.92,230.726 1377.86,229.097 1396.8,227.23 1414.16,225.32 1431.51,223.228 1448.86,220.962 1466.21,218.529 1482.24,216.141 1498.27,213.624 1514.29,210.984 1530.32,208.226 1546.55,205.321 1562.79,202.31 1579.02,199.201 1595.26,196.001 1631.64,188.543 1668.03,180.767 1701,173.526 1733.98,166.178 1771.73,157.727 1809.48,149.34 1844.44,141.724 1879.39,134.335 1913.85,127.349 1948.32,120.728 1965.05,117.666 1981.78,114.712 1998.51,111.874 2015.24,109.158 2032.39,106.506 2049.54,103.995 2066.69,101.63 2083.84,99.4175 2102.63,97.1739 2121.42,95.1251 2140.21,93.2766 2159,91.6336 2172.64,90.5716 2186.29,89.6218 2199.94,88.7857 2213.59,88.0644 2240.88,86.9701 2268.18,86.3452 2273.78,86.2754 2279.38,86.2256 2284.98,86.1956 2290.58,86.1857 "/>
<polyline clip-path="url(#clip682)" style="stroke:#e26f46; stroke-linecap:round; stroke-linejoin:round; stroke-width:4; stroke-opacity:1; fill:none" points="217.944,529.553 221.317,529.575 224.691,529.642 228.064,529.754 231.438,529.91 247.034,531.213 262.631,533.468 278.227,536.669 293.823,540.81 309.42,545.88 325.016,551.869 340.613,558.763 356.209,566.548 374.955,577.056 393.7,588.792 412.446,601.715 431.191,615.786 447.041,628.543 462.89,642.059 478.739,656.301 494.588,671.237 511.805,688.208 529.021,705.91 546.238,724.296 563.455,743.316 595.199,779.87 626.943,818.063 695.01,903.818 773.872,1005.74 808.914,1050.48 843.955,1094.17 874.684,1131.22 905.412,1166.76 922.163,1185.39 938.914,1203.43 955.665,1220.83 972.416,1237.55 989.267,1253.64 1006.12,1268.96 1022.97,1283.46 1039.82,1297.11 1058.45,1311.17 1077.08,1324.1 1095.71,1335.86 1114.34,1346.41 1132.07,1355.29 1149.79,1363.03 1167.52,1369.59 1185.25,1374.96 1203.68,1379.27 1222.11,1382.25 1240.54,1383.91 1258.97,1384.24 1274.49,1383.48 1290,1381.78 1305.52,1379.13 1321.03,1375.56 1339.98,1369.94 1358.92,1362.95 1377.86,1354.63 1396.8,1345 1414.16,1335.05 1431.51,1324.06 1448.86,1312.05 1466.21,1299.06 1482.24,1286.22 1498.27,1272.6 1514.29,1258.24 1530.32,1243.16 1546.55,1227.2 1562.79,1210.59 1579.02,1193.37 1595.26,1175.57 1631.64,1133.81 1668.03,1089.91 1701,1048.72 1733.98,1006.61 1809.48,909 1879.39,820.743 1913.85,779.242 1948.32,739.679 1965.05,721.301 1981.78,703.529 1998.51,686.409 2015.24,669.984 2032.39,653.913 2049.54,638.66 2066.69,624.268 2083.84,610.775 2102.63,597.066 2121.42,584.525 2140.21,573.192 2159,563.104 2172.64,556.575 2186.29,550.732 2199.94,545.584 2213.59,541.14 2240.88,534.393 2268.18,530.538 2273.78,530.107 2279.38,529.799 2284.98,529.614 2290.58,529.553 "/>
<path clip-path="url(#clip680)" d="M1829.5 1377.32 L2279.52 1377.32 L2279.52 1221.8 L1829.5 1221.8  Z" fill="#ffffff" fill-rule="evenodd" fill-opacity="1"/>
<polyline clip-path="url(#clip680)" style="stroke:#000000; stroke-linecap:round; stroke-linejoin:round; stroke-width:4; stroke-opacity:1; fill:none" points="1829.5,1377.32 2279.52,1377.32 2279.52,1221.8 1829.5,1221.8 1829.5,1377.32 "/>
<polyline clip-path="url(#clip680)" style="stroke:#009af9; stroke-linecap:round; stroke-linejoin:round; stroke-width:4; stroke-opacity:1; fill:none" points="1853.91,1273.64 2000.38,1273.64 "/>
<path clip-path="url(#clip680)" d="M2024.79 1254.9 L2029.05 1254.9 L2029.05 1290.92 L2024.79 1290.92 L2024.79 1254.9 Z" fill="#000000" fill-rule="evenodd" fill-opacity="1" /><path clip-path="url(#clip680)" d="M2049.74 1277.88 Q2044.58 1277.88 2042.59 1279.06 Q2040.6 1280.24 2040.6 1283.09 Q2040.6 1285.36 2042.08 1286.7 Q2043.59 1288.02 2046.15 1288.02 Q2049.7 1288.02 2051.83 1285.52 Q2053.98 1283 2053.98 1278.83 L2053.98 1277.88 L2049.74 1277.88 M2058.24 1276.12 L2058.24 1290.92 L2053.98 1290.92 L2053.98 1286.98 Q2052.52 1289.34 2050.34 1290.48 Q2048.17 1291.59 2045.02 1291.59 Q2041.04 1291.59 2038.68 1289.36 Q2036.34 1287.12 2036.34 1283.37 Q2036.34 1278.99 2039.26 1276.77 Q2042.2 1274.55 2048.01 1274.55 L2053.98 1274.55 L2053.98 1274.13 Q2053.98 1271.19 2052.03 1269.6 Q2050.11 1267.98 2046.62 1267.98 Q2044.4 1267.98 2042.29 1268.51 Q2040.18 1269.04 2038.24 1270.11 L2038.24 1266.17 Q2040.58 1265.27 2042.78 1264.83 Q2044.97 1264.36 2047.06 1264.36 Q2052.68 1264.36 2055.46 1267.28 Q2058.24 1270.2 2058.24 1276.12 Z" fill="#000000" fill-rule="evenodd" fill-opacity="1" /><path clip-path="url(#clip680)" d="M2087.2 1269.97 Q2088.79 1267.1 2091.02 1265.73 Q2093.24 1264.36 2096.25 1264.36 Q2100.3 1264.36 2102.5 1267.21 Q2104.7 1270.04 2104.7 1275.27 L2104.7 1290.92 L2100.41 1290.92 L2100.41 1275.41 Q2100.41 1271.68 2099.09 1269.87 Q2097.77 1268.07 2095.07 1268.07 Q2091.76 1268.07 2089.83 1270.27 Q2087.91 1272.47 2087.91 1276.26 L2087.91 1290.92 L2083.63 1290.92 L2083.63 1275.41 Q2083.63 1271.66 2082.31 1269.87 Q2080.99 1268.07 2078.24 1268.07 Q2074.97 1268.07 2073.05 1270.29 Q2071.13 1272.49 2071.13 1276.26 L2071.13 1290.92 L2066.85 1290.92 L2066.85 1264.99 L2071.13 1264.99 L2071.13 1269.02 Q2072.59 1266.63 2074.63 1265.5 Q2076.66 1264.36 2079.46 1264.36 Q2082.29 1264.36 2084.26 1265.8 Q2086.25 1267.23 2087.2 1269.97 Z" fill="#000000" fill-rule="evenodd" fill-opacity="1" /><path clip-path="url(#clip680)" d="M2131.8 1277.98 Q2131.8 1273.28 2129.86 1270.61 Q2127.94 1267.93 2124.56 1267.93 Q2121.18 1267.93 2119.23 1270.61 Q2117.31 1273.28 2117.31 1277.98 Q2117.31 1282.67 2119.23 1285.36 Q2121.18 1288.02 2124.56 1288.02 Q2127.94 1288.02 2129.86 1285.36 Q2131.8 1282.67 2131.8 1277.98 M2117.31 1268.92 Q2118.65 1266.61 2120.69 1265.5 Q2122.75 1264.36 2125.6 1264.36 Q2130.32 1264.36 2133.26 1268.11 Q2136.22 1271.86 2136.22 1277.98 Q2136.22 1284.09 2133.26 1287.84 Q2130.32 1291.59 2125.6 1291.59 Q2122.75 1291.59 2120.69 1290.48 Q2118.65 1289.34 2117.31 1287.03 L2117.31 1290.92 L2113.03 1290.92 L2113.03 1254.9 L2117.31 1254.9 L2117.31 1268.92 Z" fill="#000000" fill-rule="evenodd" fill-opacity="1" /><path clip-path="url(#clip680)" d="M2174.88 1265.75 L2174.88 1269.78 Q2173.08 1268.86 2171.13 1268.39 Q2169.19 1267.93 2167.1 1267.93 Q2163.93 1267.93 2162.33 1268.9 Q2160.76 1269.87 2160.76 1271.82 Q2160.76 1273.3 2161.89 1274.16 Q2163.03 1274.99 2166.45 1275.75 L2167.91 1276.08 Q2172.45 1277.05 2174.35 1278.83 Q2176.27 1280.59 2176.27 1283.76 Q2176.27 1287.37 2173.4 1289.48 Q2170.55 1291.59 2165.55 1291.59 Q2163.47 1291.59 2161.2 1291.17 Q2158.95 1290.78 2156.45 1289.97 L2156.45 1285.57 Q2158.82 1286.79 2161.11 1287.42 Q2163.4 1288.02 2165.64 1288.02 Q2168.65 1288.02 2170.27 1287 Q2171.89 1285.96 2171.89 1284.09 Q2171.89 1282.35 2170.71 1281.42 Q2169.56 1280.5 2165.6 1279.64 L2164.12 1279.3 Q2160.16 1278.46 2158.4 1276.75 Q2156.64 1275.01 2156.64 1272 Q2156.64 1268.35 2159.23 1266.36 Q2161.83 1264.36 2166.59 1264.36 Q2168.95 1264.36 2171.04 1264.71 Q2173.12 1265.06 2174.88 1265.75 Z" fill="#000000" fill-rule="evenodd" fill-opacity="1" /><path clip-path="url(#clip680)" d="M2204.6 1275.27 L2204.6 1290.92 L2200.34 1290.92 L2200.34 1275.41 Q2200.34 1271.73 2198.91 1269.9 Q2197.47 1268.07 2194.6 1268.07 Q2191.15 1268.07 2189.16 1270.27 Q2187.17 1272.47 2187.17 1276.26 L2187.17 1290.92 L2182.89 1290.92 L2182.89 1254.9 L2187.17 1254.9 L2187.17 1269.02 Q2188.7 1266.68 2190.76 1265.52 Q2192.84 1264.36 2195.55 1264.36 Q2200.02 1264.36 2202.31 1267.14 Q2204.6 1269.9 2204.6 1275.27 Z" fill="#000000" fill-rule="evenodd" fill-opacity="1" /><path clip-path="url(#clip680)" d="M2213.1 1264.99 L2217.36 1264.99 L2217.36 1290.92 L2213.1 1290.92 L2213.1 1264.99 M2213.1 1254.9 L2217.36 1254.9 L2217.36 1260.29 L2213.1 1260.29 L2213.1 1254.9 Z" fill="#000000" fill-rule="evenodd" fill-opacity="1" /><path clip-path="url(#clip680)" d="M2239.39 1254.9 L2239.39 1258.44 L2235.32 1258.44 Q2233.03 1258.44 2232.13 1259.36 Q2231.25 1260.29 2231.25 1262.7 L2231.25 1264.99 L2238.26 1264.99 L2238.26 1268.3 L2231.25 1268.3 L2231.25 1290.92 L2226.96 1290.92 L2226.96 1268.3 L2222.89 1268.3 L2222.89 1264.99 L2226.96 1264.99 L2226.96 1263.18 Q2226.96 1258.86 2228.98 1256.89 Q2230.99 1254.9 2235.37 1254.9 L2239.39 1254.9 Z" fill="#000000" fill-rule="evenodd" fill-opacity="1" /><path clip-path="url(#clip680)" d="M2246.34 1257.63 L2246.34 1264.99 L2255.11 1264.99 L2255.11 1268.3 L2246.34 1268.3 L2246.34 1282.37 Q2246.34 1285.54 2247.2 1286.45 Q2248.07 1287.35 2250.74 1287.35 L2255.11 1287.35 L2255.11 1290.92 L2250.74 1290.92 Q2245.81 1290.92 2243.93 1289.09 Q2242.06 1287.23 2242.06 1282.37 L2242.06 1268.3 L2238.93 1268.3 L2238.93 1264.99 L2242.06 1264.99 L2242.06 1257.63 L2246.34 1257.63 Z" fill="#000000" fill-rule="evenodd" fill-opacity="1" /><polyline clip-path="url(#clip680)" style="stroke:#e26f46; stroke-linecap:round; stroke-linejoin:round; stroke-width:4; stroke-opacity:1; fill:none" points="1853.91,1325.48 2000.38,1325.48 "/>
<path clip-path="url(#clip680)" d="M2024.79 1316.83 L2029.3 1316.83 L2037.4 1338.59 L2045.51 1316.83 L2050.02 1316.83 L2040.3 1342.76 L2034.51 1342.76 L2024.79 1316.83 Z" fill="#000000" fill-rule="evenodd" fill-opacity="1" /><path clip-path="url(#clip680)" d="M2066.13 1306.78 Q2063.03 1312.11 2061.52 1317.32 Q2060.02 1322.52 2060.02 1327.87 Q2060.02 1333.22 2061.52 1338.47 Q2063.05 1343.7 2066.13 1349.01 L2062.43 1349.01 Q2058.96 1343.57 2057.22 1338.31 Q2055.51 1333.06 2055.51 1327.87 Q2055.51 1322.71 2057.22 1317.48 Q2058.93 1312.25 2062.43 1306.78 L2066.13 1306.78 Z" fill="#000000" fill-rule="evenodd" fill-opacity="1" /><path clip-path="url(#clip680)" d="M2074.23 1306.74 L2078.52 1306.74 L2078.52 1328.01 L2091.22 1316.83 L2096.66 1316.83 L2082.91 1328.96 L2097.24 1342.76 L2091.69 1342.76 L2078.52 1330.09 L2078.52 1342.76 L2074.23 1342.76 L2074.23 1306.74 Z" fill="#000000" fill-rule="evenodd" fill-opacity="1" /><path clip-path="url(#clip680)" d="M2101.18 1306.78 L2104.88 1306.78 Q2108.35 1312.25 2110.07 1317.48 Q2111.8 1322.71 2111.8 1327.87 Q2111.8 1333.06 2110.07 1338.31 Q2108.35 1343.57 2104.88 1349.01 L2101.18 1349.01 Q2104.26 1343.7 2105.76 1338.47 Q2107.29 1333.22 2107.29 1327.87 Q2107.29 1322.52 2105.76 1317.32 Q2104.26 1312.11 2101.18 1306.78 Z" fill="#000000" fill-rule="evenodd" fill-opacity="1" /></svg>
