<?xml version="1.0" encoding="utf-8"?>
<svg xmlns="http://www.w3.org/2000/svg" xmlns:xlink="http://www.w3.org/1999/xlink" width="600" height="400" viewBox="0 0 2400 1600">
<defs>
  <clipPath id="clip480">
    <rect x="0" y="0" width="2400" height="1600"/>
  </clipPath>
</defs>
<path clip-path="url(#clip480)" d="M0 1600 L2400 1600 L2400 0 L0 0  Z" fill="#ffffff" fill-rule="evenodd" fill-opacity="1"/>
<defs>
  <clipPath id="clip481">
    <rect x="480" y="0" width="1681" height="1600"/>
  </clipPath>
</defs>
<path clip-path="url(#clip480)" d="M156.598 1486.45 L2352.76 1486.45 L2352.76 47.2441 L156.598 47.2441  Z" fill="#ffffff" fill-rule="evenodd" fill-opacity="1"/>
<defs>
  <clipPath id="clip482">
    <rect x="156" y="47" width="2197" height="1440"/>
  </clipPath>
</defs>
<polyline clip-path="url(#clip482)" style="stroke:#000000; stroke-linecap:round; stroke-linejoin:round; stroke-width:2; stroke-opacity:0.1; fill:none" points="425.938,1486.45 425.938,47.2441 "/>
<polyline clip-path="url(#clip482)" style="stroke:#000000; stroke-linecap:round; stroke-linejoin:round; stroke-width:2; stroke-opacity:0.1; fill:none" points="840.308,1486.45 840.308,47.2441 "/>
<polyline clip-path="url(#clip482)" style="stroke:#000000; stroke-linecap:round; stroke-linejoin:round; stroke-width:2; stroke-opacity:0.1; fill:none" points="1254.68,1486.45 1254.68,47.2441 "/>
<polyline clip-path="url(#clip482)" style="stroke:#000000; stroke-linecap:round; stroke-linejoin:round; stroke-width:2; stroke-opacity:0.1; fill:none" points="1669.05,1486.45 1669.05,47.2441 "/>
<polyline clip-path="url(#clip482)" style="stroke:#000000; stroke-linecap:round; stroke-linejoin:round; stroke-width:2; stroke-opacity:0.1; fill:none" points="2083.42,1486.45 2083.42,47.2441 "/>
<polyline clip-path="url(#clip480)" style="stroke:#000000; stroke-linecap:round; stroke-linejoin:round; stroke-width:4; stroke-opacity:1; fill:none" points="156.598,1486.45 2352.76,1486.45 "/>
<polyline clip-path="url(#clip480)" style="stroke:#000000; stroke-linecap:round; stroke-linejoin:round; stroke-width:4; stroke-opacity:1; fill:none" points="425.938,1486.45 425.938,1467.55 "/>
<polyline clip-path="url(#clip480)" style="stroke:#000000; stroke-linecap:round; stroke-linejoin:round; stroke-width:4; stroke-opacity:1; fill:none" points="840.308,1486.45 840.308,1467.55 "/>
<polyline clip-path="url(#clip480)" style="stroke:#000000; stroke-linecap:round; stroke-linejoin:round; stroke-width:4; stroke-opacity:1; fill:none" points="1254.68,1486.45 1254.68,1467.55 "/>
<polyline clip-path="url(#clip480)" style="stroke:#000000; stroke-linecap:round; stroke-linejoin:round; stroke-width:4; stroke-opacity:1; fill:none" points="1669.05,1486.45 1669.05,1467.55 "/>
<polyline clip-path="url(#clip480)" style="stroke:#000000; stroke-linecap:round; stroke-linejoin:round; stroke-width:4; stroke-opacity:1; fill:none" points="2083.42,1486.45 2083.42,1467.55 "/>
<path clip-path="url(#clip480)" d="M394.839 1532.02 L424.515 1532.02 L424.515 1535.95 L394.839 1535.95 L394.839 1532.02 Z" fill="#000000" fill-rule="evenodd" fill-opacity="1" /><path clip-path="url(#clip480)" d="M447.454 1518.36 L435.649 1536.81 L447.454 1536.81 L447.454 1518.36 M446.228 1514.29 L452.107 1514.29 L452.107 1536.81 L457.038 1536.81 L457.038 1540.7 L452.107 1540.7 L452.107 1548.85 L447.454 1548.85 L447.454 1540.7 L431.853 1540.7 L431.853 1536.19 L446.228 1514.29 Z" fill="#000000" fill-rule="evenodd" fill-opacity="1" /><path clip-path="url(#clip480)" d="M810.25 1532.02 L839.926 1532.02 L839.926 1535.95 L810.25 1535.95 L810.25 1532.02 Z" fill="#000000" fill-rule="evenodd" fill-opacity="1" /><path clip-path="url(#clip480)" d="M854.046 1544.91 L870.365 1544.91 L870.365 1548.85 L848.421 1548.85 L848.421 1544.91 Q851.083 1542.16 855.666 1537.53 Q860.273 1532.88 861.453 1531.53 Q863.699 1529.01 864.578 1527.27 Q865.481 1525.51 865.481 1523.82 Q865.481 1521.07 863.537 1519.33 Q861.615 1517.6 858.514 1517.6 Q856.315 1517.6 853.861 1518.36 Q851.43 1519.13 848.653 1520.68 L848.653 1515.95 Q851.477 1514.82 853.93 1514.24 Q856.384 1513.66 858.421 1513.66 Q863.791 1513.66 866.986 1516.35 Q870.18 1519.03 870.18 1523.52 Q870.18 1525.65 869.37 1527.57 Q868.583 1529.47 866.477 1532.07 Q865.898 1532.74 862.796 1535.95 Q859.694 1539.15 854.046 1544.91 Z" fill="#000000" fill-rule="evenodd" fill-opacity="1" /><path clip-path="url(#clip480)" d="M1254.68 1517.37 Q1251.07 1517.37 1249.24 1520.93 Q1247.43 1524.47 1247.43 1531.6 Q1247.43 1538.71 1249.24 1542.27 Q1251.07 1545.82 1254.68 1545.82 Q1258.31 1545.82 1260.12 1542.27 Q1261.95 1538.71 1261.95 1531.6 Q1261.95 1524.47 1260.12 1520.93 Q1258.31 1517.37 1254.68 1517.37 M1254.68 1513.66 Q1260.49 1513.66 1263.54 1518.27 Q1266.62 1522.85 1266.62 1531.6 Q1266.62 1540.33 1263.54 1544.94 Q1260.49 1549.52 1254.68 1549.52 Q1248.87 1549.52 1245.79 1544.94 Q1242.73 1540.33 1242.73 1531.6 Q1242.73 1522.85 1245.79 1518.27 Q1248.87 1513.66 1254.68 1513.66 Z" fill="#000000" fill-rule="evenodd" fill-opacity="1" /><path clip-path="url(#clip480)" d="M1663.7 1544.91 L1680.02 1544.91 L1680.02 1548.85 L1658.07 1548.85 L1658.07 1544.91 Q1660.74 1542.16 1665.32 1537.53 Q1669.93 1532.88 1671.11 1531.53 Q1673.35 1529.01 1674.23 1527.27 Q1675.13 1525.51 1675.13 1523.82 Q1675.13 1521.07 1673.19 1519.33 Q1671.27 1517.6 1668.17 1517.6 Q1665.97 1517.6 1663.51 1518.36 Q1661.08 1519.13 1658.31 1520.68 L1658.31 1515.95 Q1661.13 1514.82 1663.58 1514.24 Q1666.04 1513.66 1668.07 1513.66 Q1673.44 1513.66 1676.64 1516.35 Q1679.83 1519.03 1679.83 1523.52 Q1679.83 1525.65 1679.02 1527.57 Q1678.24 1529.47 1676.13 1532.07 Q1675.55 1532.74 1672.45 1535.95 Q1669.35 1539.15 1663.7 1544.91 Z" fill="#000000" fill-rule="evenodd" fill-opacity="1" /><path clip-path="url(#clip480)" d="M2086.43 1518.36 L2074.62 1536.81 L2086.43 1536.81 L2086.43 1518.36 M2085.2 1514.29 L2091.08 1514.29 L2091.08 1536.81 L2096.01 1536.81 L2096.01 1540.7 L2091.08 1540.7 L2091.08 1548.85 L2086.43 1548.85 L2086.43 1540.7 L2070.82 1540.7 L2070.82 1536.19 L2085.2 1514.29 Z" fill="#000000" fill-rule="evenodd" fill-opacity="1" /><polyline clip-path="url(#clip482)" style="stroke:#000000; stroke-linecap:round; stroke-linejoin:round; stroke-width:2; stroke-opacity:0.1; fill:none" points="156.598,1486.45 2352.76,1486.45 "/>
<polyline clip-path="url(#clip482)" style="stroke:#000000; stroke-linecap:round; stroke-linejoin:round; stroke-width:2; stroke-opacity:0.1; fill:none" points="156.598,1198.61 2352.76,1198.61 "/>
<polyline clip-path="url(#clip482)" style="stroke:#000000; stroke-linecap:round; stroke-linejoin:round; stroke-width:2; stroke-opacity:0.1; fill:none" points="156.598,910.766 2352.76,910.766 "/>
<polyline clip-path="url(#clip482)" style="stroke:#000000; stroke-linecap:round; stroke-linejoin:round; stroke-width:2; stroke-opacity:0.1; fill:none" points="156.598,622.926 2352.76,622.926 "/>
<polyline clip-path="url(#clip482)" style="stroke:#000000; stroke-linecap:round; stroke-linejoin:round; stroke-width:2; stroke-opacity:0.1; fill:none" points="156.598,335.085 2352.76,335.085 "/>
<polyline clip-path="url(#clip482)" style="stroke:#000000; stroke-linecap:round; stroke-linejoin:round; stroke-width:2; stroke-opacity:0.1; fill:none" points="156.598,47.2441 2352.76,47.2441 "/>
<polyline clip-path="url(#clip480)" style="stroke:#000000; stroke-linecap:round; stroke-linejoin:round; stroke-width:4; stroke-opacity:1; fill:none" points="156.598,1486.45 156.598,47.2441 "/>
<polyline clip-path="url(#clip480)" style="stroke:#000000; stroke-linecap:round; stroke-linejoin:round; stroke-width:4; stroke-opacity:1; fill:none" points="156.598,1486.45 175.496,1486.45 "/>
<polyline clip-path="url(#clip480)" style="stroke:#000000; stroke-linecap:round; stroke-linejoin:round; stroke-width:4; stroke-opacity:1; fill:none" points="156.598,1198.61 175.496,1198.61 "/>
<polyline clip-path="url(#clip480)" style="stroke:#000000; stroke-linecap:round; stroke-linejoin:round; stroke-width:4; stroke-opacity:1; fill:none" points="156.598,910.766 175.496,910.766 "/>
<polyline clip-path="url(#clip480)" style="stroke:#000000; stroke-linecap:round; stroke-linejoin:round; stroke-width:4; stroke-opacity:1; fill:none" points="156.598,622.926 175.496,622.926 "/>
<polyline clip-path="url(#clip480)" style="stroke:#000000; stroke-linecap:round; stroke-linejoin:round; stroke-width:4; stroke-opacity:1; fill:none" points="156.598,335.085 175.496,335.085 "/>
<polyline clip-path="url(#clip480)" style="stroke:#000000; stroke-linecap:round; stroke-linejoin:round; stroke-width:4; stroke-opacity:1; fill:none" points="156.598,47.2441 175.496,47.2441 "/>
<path clip-path="url(#clip480)" d="M63.4226 1472.25 Q59.8115 1472.25 57.9828 1475.81 Q56.1773 1479.35 56.1773 1486.48 Q56.1773 1493.59 57.9828 1497.15 Q59.8115 1500.7 63.4226 1500.7 Q67.0569 1500.7 68.8624 1497.15 Q70.6911 1493.59 70.6911 1486.48 Q70.6911 1479.35 68.8624 1475.81 Q67.0569 1472.25 63.4226 1472.25 M63.4226 1468.54 Q69.2328 1468.54 72.2883 1473.15 Q75.367 1477.73 75.367 1486.48 Q75.367 1495.21 72.2883 1499.82 Q69.2328 1504.4 63.4226 1504.4 Q57.6125 1504.4 54.5338 1499.82 Q51.4782 1495.21 51.4782 1486.48 Q51.4782 1477.73 54.5338 1473.15 Q57.6125 1468.54 63.4226 1468.54 Z" fill="#000000" fill-rule="evenodd" fill-opacity="1" /><path clip-path="url(#clip480)" d="M83.5845 1497.85 L88.4688 1497.85 L88.4688 1503.73 L83.5845 1503.73 L83.5845 1497.85 Z" fill="#000000" fill-rule="evenodd" fill-opacity="1" /><path clip-path="url(#clip480)" d="M108.654 1472.25 Q105.043 1472.25 103.214 1475.81 Q101.409 1479.35 101.409 1486.48 Q101.409 1493.59 103.214 1497.15 Q105.043 1500.7 108.654 1500.7 Q112.288 1500.7 114.094 1497.15 Q115.922 1493.59 115.922 1486.48 Q115.922 1479.35 114.094 1475.81 Q112.288 1472.25 108.654 1472.25 M108.654 1468.54 Q114.464 1468.54 117.52 1473.15 Q120.598 1477.73 120.598 1486.48 Q120.598 1495.21 117.52 1499.82 Q114.464 1504.4 108.654 1504.4 Q102.844 1504.4 99.765 1499.82 Q96.7095 1495.21 96.7095 1486.48 Q96.7095 1477.73 99.765 1473.15 Q102.844 1468.54 108.654 1468.54 Z" fill="#000000" fill-rule="evenodd" fill-opacity="1" /><path clip-path="url(#clip480)" d="M65.0198 1184.41 Q61.4087 1184.41 59.58 1187.97 Q57.7745 1191.51 57.7745 1198.64 Q57.7745 1205.75 59.58 1209.31 Q61.4087 1212.85 65.0198 1212.85 Q68.6541 1212.85 70.4596 1209.31 Q72.2883 1205.75 72.2883 1198.64 Q72.2883 1191.51 70.4596 1187.97 Q68.6541 1184.41 65.0198 1184.41 M65.0198 1180.7 Q70.83 1180.7 73.8855 1185.31 Q76.9642 1189.89 76.9642 1198.64 Q76.9642 1207.37 73.8855 1211.98 Q70.83 1216.56 65.0198 1216.56 Q59.2097 1216.56 56.131 1211.98 Q53.0754 1207.37 53.0754 1198.64 Q53.0754 1189.89 56.131 1185.31 Q59.2097 1180.7 65.0198 1180.7 Z" fill="#000000" fill-rule="evenodd" fill-opacity="1" /><path clip-path="url(#clip480)" d="M85.1818 1210.01 L90.066 1210.01 L90.066 1215.89 L85.1818 1215.89 L85.1818 1210.01 Z" fill="#000000" fill-rule="evenodd" fill-opacity="1" /><path clip-path="url(#clip480)" d="M104.279 1211.95 L120.598 1211.95 L120.598 1215.89 L98.6539 1215.89 L98.6539 1211.95 Q101.316 1209.2 105.899 1204.57 Q110.506 1199.91 111.686 1198.57 Q113.932 1196.05 114.811 1194.31 Q115.714 1192.55 115.714 1190.86 Q115.714 1188.11 113.77 1186.37 Q111.848 1184.64 108.746 1184.64 Q106.547 1184.64 104.094 1185.4 Q101.663 1186.17 98.8854 1187.72 L98.8854 1182.99 Q101.709 1181.86 104.163 1181.28 Q106.617 1180.7 108.654 1180.7 Q114.024 1180.7 117.219 1183.39 Q120.413 1186.07 120.413 1190.56 Q120.413 1192.69 119.603 1194.61 Q118.816 1196.51 116.709 1199.1 Q116.131 1199.78 113.029 1202.99 Q109.927 1206.19 104.279 1211.95 Z" fill="#000000" fill-rule="evenodd" fill-opacity="1" /><path clip-path="url(#clip480)" d="M62.9365 896.565 Q59.3254 896.565 57.4967 900.13 Q55.6912 903.671 55.6912 910.801 Q55.6912 917.908 57.4967 921.472 Q59.3254 925.014 62.9365 925.014 Q66.5707 925.014 68.3763 921.472 Q70.205 917.908 70.205 910.801 Q70.205 903.671 68.3763 900.13 Q66.5707 896.565 62.9365 896.565 M62.9365 892.861 Q68.7467 892.861 71.8022 897.468 Q74.8809 902.051 74.8809 910.801 Q74.8809 919.528 71.8022 924.134 Q68.7467 928.718 62.9365 928.718 Q57.1264 928.718 54.0477 924.134 Q50.9921 919.528 50.9921 910.801 Q50.9921 902.051 54.0477 897.468 Q57.1264 892.861 62.9365 892.861 Z" fill="#000000" fill-rule="evenodd" fill-opacity="1" /><path clip-path="url(#clip480)" d="M83.0984 922.167 L87.9827 922.167 L87.9827 928.046 L83.0984 928.046 L83.0984 922.167 Z" fill="#000000" fill-rule="evenodd" fill-opacity="1" /><path clip-path="url(#clip480)" d="M111.015 897.56 L99.2095 916.009 L111.015 916.009 L111.015 897.56 M109.788 893.486 L115.668 893.486 L115.668 916.009 L120.598 916.009 L120.598 919.898 L115.668 919.898 L115.668 928.046 L111.015 928.046 L111.015 919.898 L95.4132 919.898 L95.4132 915.384 L109.788 893.486 Z" fill="#000000" fill-rule="evenodd" fill-opacity="1" /><path clip-path="url(#clip480)" d="M63.2606 608.724 Q59.6495 608.724 57.8208 612.289 Q56.0152 615.831 56.0152 622.96 Q56.0152 630.067 57.8208 633.632 Q59.6495 637.173 63.2606 637.173 Q66.8948 637.173 68.7004 633.632 Q70.5291 630.067 70.5291 622.96 Q70.5291 615.831 68.7004 612.289 Q66.8948 608.724 63.2606 608.724 M63.2606 605.021 Q69.0707 605.021 72.1263 609.627 Q75.205 614.21 75.205 622.96 Q75.205 631.687 72.1263 636.294 Q69.0707 640.877 63.2606 640.877 Q57.4504 640.877 54.3717 636.294 Q51.3162 631.687 51.3162 622.96 Q51.3162 614.21 54.3717 609.627 Q57.4504 605.021 63.2606 605.021 Z" fill="#000000" fill-rule="evenodd" fill-opacity="1" /><path clip-path="url(#clip480)" d="M83.4225 634.326 L88.3067 634.326 L88.3067 640.206 L83.4225 640.206 L83.4225 634.326 Z" fill="#000000" fill-rule="evenodd" fill-opacity="1" /><path clip-path="url(#clip480)" d="M109.071 621.062 Q105.922 621.062 104.071 623.215 Q102.242 625.368 102.242 629.118 Q102.242 632.845 104.071 635.02 Q105.922 637.173 109.071 637.173 Q112.219 637.173 114.047 635.02 Q115.899 632.845 115.899 629.118 Q115.899 625.368 114.047 623.215 Q112.219 621.062 109.071 621.062 M118.353 606.409 L118.353 610.669 Q116.594 609.835 114.788 609.396 Q113.006 608.956 111.246 608.956 Q106.617 608.956 104.163 612.081 Q101.733 615.206 101.385 621.525 Q102.751 619.511 104.811 618.446 Q106.871 617.359 109.348 617.359 Q114.557 617.359 117.566 620.53 Q120.598 623.678 120.598 629.118 Q120.598 634.442 117.45 637.659 Q114.302 640.877 109.071 640.877 Q103.075 640.877 99.9039 636.294 Q96.7326 631.687 96.7326 622.96 Q96.7326 614.766 100.621 609.905 Q104.51 605.021 111.061 605.021 Q112.82 605.021 114.603 605.368 Q116.408 605.715 118.353 606.409 Z" fill="#000000" fill-rule="evenodd" fill-opacity="1" /><path clip-path="url(#clip480)" d="M63.5152 320.884 Q59.9041 320.884 58.0754 324.448 Q56.2699 327.99 56.2699 335.12 Q56.2699 342.226 58.0754 345.791 Q59.9041 349.332 63.5152 349.332 Q67.1494 349.332 68.955 345.791 Q70.7837 342.226 70.7837 335.12 Q70.7837 327.99 68.955 324.448 Q67.1494 320.884 63.5152 320.884 M63.5152 317.18 Q69.3254 317.18 72.3809 321.786 Q75.4596 326.37 75.4596 335.12 Q75.4596 343.846 72.3809 348.453 Q69.3254 353.036 63.5152 353.036 Q57.7051 353.036 54.6264 348.453 Q51.5708 343.846 51.5708 335.12 Q51.5708 326.37 54.6264 321.786 Q57.7051 317.18 63.5152 317.18 Z" fill="#000000" fill-rule="evenodd" fill-opacity="1" /><path clip-path="url(#clip480)" d="M83.6771 346.485 L88.5614 346.485 L88.5614 352.365 L83.6771 352.365 L83.6771 346.485 Z" fill="#000000" fill-rule="evenodd" fill-opacity="1" /><path clip-path="url(#clip480)" d="M108.746 335.953 Q105.413 335.953 103.492 337.735 Q101.594 339.518 101.594 342.643 Q101.594 345.768 103.492 347.55 Q105.413 349.332 108.746 349.332 Q112.08 349.332 114.001 347.55 Q115.922 345.745 115.922 342.643 Q115.922 339.518 114.001 337.735 Q112.103 335.953 108.746 335.953 M104.071 333.962 Q101.061 333.221 99.3715 331.161 Q97.7048 329.101 97.7048 326.138 Q97.7048 321.995 100.645 319.587 Q103.608 317.18 108.746 317.18 Q113.908 317.18 116.848 319.587 Q119.788 321.995 119.788 326.138 Q119.788 329.101 118.098 331.161 Q116.432 333.221 113.445 333.962 Q116.825 334.749 118.7 337.041 Q120.598 339.333 120.598 342.643 Q120.598 347.666 117.52 350.351 Q114.464 353.036 108.746 353.036 Q103.029 353.036 99.9502 350.351 Q96.8947 347.666 96.8947 342.643 Q96.8947 339.333 98.7928 337.041 Q100.691 334.749 104.071 333.962 M102.358 326.578 Q102.358 329.263 104.024 330.768 Q105.714 332.272 108.746 332.272 Q111.756 332.272 113.445 330.768 Q115.158 329.263 115.158 326.578 Q115.158 323.893 113.445 322.388 Q111.756 320.884 108.746 320.884 Q105.714 320.884 104.024 322.388 Q102.358 323.893 102.358 326.578 Z" fill="#000000" fill-rule="evenodd" fill-opacity="1" /><path clip-path="url(#clip480)" d="M54.2328 60.5889 L61.8717 60.5889 L61.8717 34.2233 L53.5616 35.89 L53.5616 31.6308 L61.8254 29.9641 L66.5013 29.9641 L66.5013 60.5889 L74.1402 60.5889 L74.1402 64.5241 L54.2328 64.5241 L54.2328 60.5889 Z" fill="#000000" fill-rule="evenodd" fill-opacity="1" /><path clip-path="url(#clip480)" d="M83.5845 58.6445 L88.4688 58.6445 L88.4688 64.5241 L83.5845 64.5241 L83.5845 58.6445 Z" fill="#000000" fill-rule="evenodd" fill-opacity="1" /><path clip-path="url(#clip480)" d="M108.654 33.0428 Q105.043 33.0428 103.214 36.6076 Q101.409 40.1492 101.409 47.2788 Q101.409 54.3853 103.214 57.9501 Q105.043 61.4917 108.654 61.4917 Q112.288 61.4917 114.094 57.9501 Q115.922 54.3853 115.922 47.2788 Q115.922 40.1492 114.094 36.6076 Q112.288 33.0428 108.654 33.0428 M108.654 29.3391 Q114.464 29.3391 117.52 33.9456 Q120.598 38.5289 120.598 47.2788 Q120.598 56.0056 117.52 60.6121 Q114.464 65.1954 108.654 65.1954 Q102.844 65.1954 99.765 60.6121 Q96.7095 56.0056 96.7095 47.2788 Q96.7095 38.5289 99.765 33.9456 Q102.844 29.3391 108.654 29.3391 Z" fill="#000000" fill-rule="evenodd" fill-opacity="1" /><polyline clip-path="url(#clip482)" style="stroke:#009af9; stroke-linecap:round; stroke-linejoin:round; stroke-width:4; stroke-opacity:1; fill:none" points="218.754,377.085 225.498,376.067 232.242,375.026 294.604,364.658 356.966,353.483 394.443,346.317 431.92,339.057 463.607,332.609 495.293,325.524 529.713,317.278 564.133,309.024 595.866,301.38 627.598,293.135 661.618,283.367 695.639,273.16 735.055,261.258 774.471,248.546 809.499,236.099 844.528,223.012 875.244,211.244 905.961,198.904 939.45,184.458 972.94,169.148 1006.63,153.184 1040.32,136.559 1077.56,117.266 1114.81,97.5814 1132.53,88.3737 1150.25,79.439 1167.97,70.9551 1185.69,63.1898 1194.9,59.5565 1204.11,56.2782 1213.33,53.419 1222.54,51.0416 1231.75,49.2033 1240.96,47.9517 1250.17,47.3207 1259.39,47.3279 1267.14,47.8291 1274.9,48.7728 1282.65,50.1406 1290.41,51.9069 1298.16,54.0402 1305.92,56.5049 1313.67,59.2633 1321.42,62.2771 1340.36,70.4835 1359.3,79.5333 1378.23,89.0965 1397.17,98.9589 1431.86,117.302 1466.55,135.298 1498.59,151.184 1530.63,166.444 1563.09,181.399 1595.54,195.613 1631.92,210.387 1668.29,224.321 1701.25,236.612 1734.21,248.318 1771.95,260.534 1809.69,271.951 1844.63,282.443 1879.57,292.534 1914.02,301.512 1948.47,309.797 1981.92,317.829 2015.36,325.828 2049.65,333.434 2083.94,340.329 2121.5,347.588 2159.07,354.734 2213.64,364.467 2268.21,373.617 2279.41,375.383 2290.6,377.085 "/>
<polyline clip-path="url(#clip482)" style="stroke:#e26f46; stroke-linecap:round; stroke-linejoin:round; stroke-width:4; stroke-opacity:1; fill:none" stroke-dasharray="16, 10" points="218.754,486.341 232.242,487.23 356.966,496.708 431.92,503.787 495.293,510.862 564.133,520.019 627.598,530.242 695.639,543.78 774.471,564.263 844.528,589.074 905.961,619.034 939.45,640.285 972.94,666.587 1006.63,700.212 1040.32,744.405 1058.94,775.365 1077.56,812.836 1096.19,859.113 1114.81,917.714 1132.53,990.061 1150.25,1086.96 1159.11,1148.88 1167.97,1223.46 1176.83,1315.02 1185.69,1430.09 1190.3,1502.43 1194.9,1585.91 1199.51,1683.34 1204.11,1798.51 1208.72,1936.78 1213.33,2105.84 1215.63,2205.33 1217.93,2317.29 1220.24,2444.22 1222.54,2589.35 1224.84,2756.88 1227.14,2952.44 1229.45,3183.69 1231.75,3461.41 1234.05,3801.16 1236.36,4226.33 1237.51,4481.68 1238.66,4773.75 1239.81,5111.07 1240.96,5505.04 1242.11,5971.23 1243.27,6531.5 1244.42,7217.54 1245.57,8077.04 1246.14,8593.79 1246.72,9185.32 1247.3,9869.14 1247.87,10668.7 1248.45,11616 1249.02,12756.2 1249.6,14155.1 1250.17,15911.7 1250.75,18183.4 1251.33,21235.9 1251.9,25555 1252.48,32135.6 1253.05,43383.9 1253.63,66995 1254.21,148216 1254.78,-7556.34 1255.36,-7556.34 1255.93,-7556.34 1256.51,-7556.34 1257.08,-7556.34 1258.24,-7556.34 1259.39,-7556.34 1260.36,-7556.34 1261.33,-7556.34 1262.3,-7556.34 1263.26,-7556.34 1263.75,-7269.79 1264.23,-6879.85 1264.72,-6527.55 1265.2,-6207.69 1266.17,-5648.9 1267.14,-5177.01 1268.11,-4773.23 1269.08,-4423.79 1270.05,-4118.42 1271.02,-3849.28 1272.96,-3396.63 1274.9,-3030.77 1276.84,-2728.94 1278.77,-2475.68 1280.71,-2260.13 1282.65,-2074.46 1284.59,-1912.85 1286.53,-1770.92 1288.47,-1645.28 1290.41,-1533.27 1294.28,-1342.14 1298.16,-1185.1 1302.04,-1053.78 1305.92,-942.327 1313.67,-763.377 1321.42,-626.008 1330.89,-496.194 1340.36,-395.068 1349.83,-314.066 1359.3,-247.725 1378.23,-145.544 1397.17,-70.5212 1414.51,-17.3955 1431.86,25.3282 1449.2,60.4326 1466.55,89.789 1498.59,133.035 1530.63,166.239 1563.09,192.84 1595.54,214.375 1668.29,250.367 1734.21,273.55 1809.69,293.331 1879.57,307.385 1948.47,318.47 2015.36,327.311 2083.94,334.894 2159.07,341.882 2268.21,350.187 2290.6,351.674 "/>
<path clip-path="url(#clip480)" d="M1452.53 1438.47 L2279.55 1438.47 L2279.55 1282.95 L1452.53 1282.95  Z" fill="#ffffff" fill-rule="evenodd" fill-opacity="1"/>
<polyline clip-path="url(#clip480)" style="stroke:#000000; stroke-linecap:round; stroke-linejoin:round; stroke-width:4; stroke-opacity:1; fill:none" points="1452.53,1438.47 2279.55,1438.47 2279.55,1282.95 1452.53,1282.95 1452.53,1438.47 "/>
<polyline clip-path="url(#clip480)" style="stroke:#009af9; stroke-linecap:round; stroke-linejoin:round; stroke-width:4; stroke-opacity:1; fill:none" points="1476.93,1334.79 1623.34,1334.79 "/>
<path clip-path="url(#clip480)" d="M1647.74 1317.51 L1669.6 1317.51 L1669.6 1321.45 L1652.42 1321.45 L1652.42 1331.68 L1668.88 1331.68 L1668.88 1335.62 L1652.42 1335.62 L1652.42 1348.14 L1670.01 1348.14 L1670.01 1352.07 L1647.74 1352.07 L1647.74 1317.51 Z" fill="#000000" fill-rule="evenodd" fill-opacity="1" /><path clip-path="url(#clip480)" d="M1699.06 1326.15 L1689.69 1338.76 L1699.55 1352.07 L1694.53 1352.07 L1686.98 1341.89 L1679.43 1352.07 L1674.41 1352.07 L1684.48 1338.51 L1675.27 1326.15 L1680.29 1326.15 L1687.17 1335.38 L1694.04 1326.15 L1699.06 1326.15 Z" fill="#000000" fill-rule="evenodd" fill-opacity="1" /><path clip-path="url(#clip480)" d="M1717.35 1339.04 Q1712.19 1339.04 1710.2 1340.22 Q1708.21 1341.4 1708.21 1344.25 Q1708.21 1346.52 1709.69 1347.86 Q1711.19 1349.18 1713.76 1349.18 Q1717.3 1349.18 1719.43 1346.68 Q1721.59 1344.16 1721.59 1339.99 L1721.59 1339.04 L1717.35 1339.04 M1725.85 1337.28 L1725.85 1352.07 L1721.59 1352.07 L1721.59 1348.14 Q1720.13 1350.5 1717.95 1351.63 Q1715.78 1352.75 1712.63 1352.75 Q1708.65 1352.75 1706.29 1350.52 Q1703.95 1348.28 1703.95 1344.53 Q1703.95 1340.15 1706.86 1337.93 Q1709.8 1335.71 1715.61 1335.71 L1721.59 1335.71 L1721.59 1335.29 Q1721.59 1332.35 1719.64 1330.76 Q1717.72 1329.13 1714.23 1329.13 Q1712 1329.13 1709.9 1329.67 Q1707.79 1330.2 1705.85 1331.26 L1705.85 1327.33 Q1708.18 1326.43 1710.38 1325.99 Q1712.58 1325.52 1714.67 1325.52 Q1720.29 1325.52 1723.07 1328.44 Q1725.85 1331.36 1725.85 1337.28 Z" fill="#000000" fill-rule="evenodd" fill-opacity="1" /><path clip-path="url(#clip480)" d="M1753.28 1327.14 L1753.28 1331.13 Q1751.47 1330.13 1749.64 1329.64 Q1747.84 1329.13 1745.98 1329.13 Q1741.84 1329.13 1739.55 1331.77 Q1737.26 1334.39 1737.26 1339.13 Q1737.26 1343.88 1739.55 1346.52 Q1741.84 1349.13 1745.98 1349.13 Q1747.84 1349.13 1749.64 1348.65 Q1751.47 1348.14 1753.28 1347.14 L1753.28 1351.08 Q1751.49 1351.91 1749.57 1352.33 Q1747.67 1352.75 1745.52 1352.75 Q1739.67 1352.75 1736.22 1349.07 Q1732.77 1345.38 1732.77 1339.13 Q1732.77 1332.79 1736.24 1329.16 Q1739.73 1325.52 1745.8 1325.52 Q1747.77 1325.52 1749.64 1325.94 Q1751.52 1326.33 1753.28 1327.14 Z" fill="#000000" fill-rule="evenodd" fill-opacity="1" /><path clip-path="url(#clip480)" d="M1764.9 1318.79 L1764.9 1326.15 L1773.67 1326.15 L1773.67 1329.46 L1764.9 1329.46 L1764.9 1343.53 Q1764.9 1346.7 1765.75 1347.61 Q1766.63 1348.51 1769.3 1348.51 L1773.67 1348.51 L1773.67 1352.07 L1769.3 1352.07 Q1764.36 1352.07 1762.49 1350.25 Q1760.61 1348.39 1760.61 1343.53 L1760.61 1329.46 L1757.49 1329.46 L1757.49 1326.15 L1760.61 1326.15 L1760.61 1318.79 L1764.9 1318.79 Z" fill="#000000" fill-rule="evenodd" fill-opacity="1" /><polyline clip-path="url(#clip480)" style="stroke:#e26f46; stroke-linecap:round; stroke-linejoin:round; stroke-width:4; stroke-opacity:1; fill:none" stroke-dasharray="16, 10" points="1476.93,1386.63 1623.34,1386.63 "/>
<path clip-path="url(#clip480)" d="M1647.74 1369.35 L1669.6 1369.35 L1669.6 1373.29 L1652.42 1373.29 L1652.42 1383.52 L1668.88 1383.52 L1668.88 1387.46 L1652.42 1387.46 L1652.42 1399.98 L1670.01 1399.98 L1670.01 1403.91 L1647.74 1403.91 L1647.74 1369.35 Z" fill="#000000" fill-rule="evenodd" fill-opacity="1" /><path clip-path="url(#clip480)" d="M1699.06 1377.99 L1689.69 1390.6 L1699.55 1403.91 L1694.53 1403.91 L1686.98 1393.73 L1679.43 1403.91 L1674.41 1403.91 L1684.48 1390.35 L1675.27 1377.99 L1680.29 1377.99 L1687.17 1387.22 L1694.04 1377.99 L1699.06 1377.99 Z" fill="#000000" fill-rule="evenodd" fill-opacity="1" /><path clip-path="url(#clip480)" d="M1717.35 1390.88 Q1712.19 1390.88 1710.2 1392.06 Q1708.21 1393.24 1708.21 1396.09 Q1708.21 1398.36 1709.69 1399.7 Q1711.19 1401.02 1713.76 1401.02 Q1717.3 1401.02 1719.43 1398.52 Q1721.59 1396 1721.59 1391.83 L1721.59 1390.88 L1717.35 1390.88 M1725.85 1389.12 L1725.85 1403.91 L1721.59 1403.91 L1721.59 1399.98 Q1720.13 1402.34 1717.95 1403.47 Q1715.78 1404.59 1712.63 1404.59 Q1708.65 1404.59 1706.29 1402.36 Q1703.95 1400.12 1703.95 1396.37 Q1703.95 1391.99 1706.86 1389.77 Q1709.8 1387.55 1715.61 1387.55 L1721.59 1387.55 L1721.59 1387.13 Q1721.59 1384.19 1719.64 1382.6 Q1717.72 1380.97 1714.23 1380.97 Q1712 1380.97 1709.9 1381.51 Q1707.79 1382.04 1705.85 1383.1 L1705.85 1379.17 Q1708.18 1378.27 1710.38 1377.83 Q1712.58 1377.36 1714.67 1377.36 Q1720.29 1377.36 1723.07 1380.28 Q1725.85 1383.2 1725.85 1389.12 Z" fill="#000000" fill-rule="evenodd" fill-opacity="1" /><path clip-path="url(#clip480)" d="M1753.28 1378.98 L1753.28 1382.97 Q1751.47 1381.97 1749.64 1381.48 Q1747.84 1380.97 1745.98 1380.97 Q1741.84 1380.97 1739.55 1383.61 Q1737.26 1386.23 1737.26 1390.97 Q1737.26 1395.72 1739.55 1398.36 Q1741.84 1400.97 1745.98 1400.97 Q1747.84 1400.97 1749.64 1400.49 Q1751.47 1399.98 1753.28 1398.98 L1753.28 1402.92 Q1751.49 1403.75 1749.57 1404.17 Q1747.67 1404.59 1745.52 1404.59 Q1739.67 1404.59 1736.22 1400.91 Q1732.77 1397.22 1732.77 1390.97 Q1732.77 1384.63 1736.24 1381 Q1739.73 1377.36 1745.8 1377.36 Q1747.77 1377.36 1749.64 1377.78 Q1751.52 1378.17 1753.28 1378.98 Z" fill="#000000" fill-rule="evenodd" fill-opacity="1" /><path clip-path="url(#clip480)" d="M1764.9 1370.63 L1764.9 1377.99 L1773.67 1377.99 L1773.67 1381.3 L1764.9 1381.3 L1764.9 1395.37 Q1764.9 1398.54 1765.75 1399.45 Q1766.63 1400.35 1769.3 1400.35 L1773.67 1400.35 L1773.67 1403.91 L1769.3 1403.91 Q1764.36 1403.91 1762.49 1402.09 Q1760.61 1400.23 1760.61 1395.37 L1760.61 1381.3 L1757.49 1381.3 L1757.49 1377.99 L1760.61 1377.99 L1760.61 1370.63 L1764.9 1370.63 Z" fill="#000000" fill-rule="evenodd" fill-opacity="1" /><path clip-path="url(#clip480)" d="M1794.53 1369.35 L1801.49 1369.35 L1810.31 1392.87 L1819.18 1369.35 L1826.15 1369.35 L1826.15 1403.91 L1821.59 1403.91 L1821.59 1373.57 L1812.67 1397.27 L1807.98 1397.27 L1799.06 1373.57 L1799.06 1403.91 L1794.53 1403.91 L1794.53 1369.35 Z" fill="#000000" fill-rule="evenodd" fill-opacity="1" /><path clip-path="url(#clip480)" d="M1857.42 1389.89 L1857.42 1391.97 L1837.84 1391.97 Q1838.11 1396.37 1840.48 1398.68 Q1842.86 1400.97 1847.1 1400.97 Q1849.55 1400.97 1851.84 1400.37 Q1854.16 1399.77 1856.42 1398.57 L1856.42 1402.59 Q1854.13 1403.57 1851.73 1404.08 Q1849.32 1404.59 1846.84 1404.59 Q1840.64 1404.59 1837 1400.97 Q1833.39 1397.36 1833.39 1391.21 Q1833.39 1384.84 1836.82 1381.11 Q1840.27 1377.36 1846.1 1377.36 Q1851.33 1377.36 1854.36 1380.74 Q1857.42 1384.1 1857.42 1389.89 M1853.16 1388.64 Q1853.11 1385.14 1851.19 1383.06 Q1849.29 1380.97 1846.15 1380.97 Q1842.58 1380.97 1840.43 1382.99 Q1838.3 1385 1837.98 1388.66 L1853.16 1388.64 Z" fill="#000000" fill-rule="evenodd" fill-opacity="1" /><path clip-path="url(#clip480)" d="M1876.19 1390.88 Q1871.03 1390.88 1869.04 1392.06 Q1867.05 1393.24 1867.05 1396.09 Q1867.05 1398.36 1868.53 1399.7 Q1870.04 1401.02 1872.6 1401.02 Q1876.15 1401.02 1878.28 1398.52 Q1880.43 1396 1880.43 1391.83 L1880.43 1390.88 L1876.19 1390.88 M1884.69 1389.12 L1884.69 1403.91 L1880.43 1403.91 L1880.43 1399.98 Q1878.97 1402.34 1876.79 1403.47 Q1874.62 1404.59 1871.47 1404.59 Q1867.49 1404.59 1865.13 1402.36 Q1862.79 1400.12 1862.79 1396.37 Q1862.79 1391.99 1865.71 1389.77 Q1868.65 1387.55 1874.46 1387.55 L1880.43 1387.55 L1880.43 1387.13 Q1880.43 1384.19 1878.48 1382.6 Q1876.56 1380.97 1873.07 1380.97 Q1870.85 1380.97 1868.74 1381.51 Q1866.63 1382.04 1864.69 1383.1 L1864.69 1379.17 Q1867.03 1378.27 1869.23 1377.83 Q1871.42 1377.36 1873.51 1377.36 Q1879.13 1377.36 1881.91 1380.28 Q1884.69 1383.2 1884.69 1389.12 Z" fill="#000000" fill-rule="evenodd" fill-opacity="1" /><path clip-path="url(#clip480)" d="M1915.01 1388.27 L1915.01 1403.91 L1910.75 1403.91 L1910.75 1388.41 Q1910.75 1384.72 1909.32 1382.9 Q1907.88 1381.07 1905.01 1381.07 Q1901.56 1381.07 1899.57 1383.27 Q1897.58 1385.47 1897.58 1389.26 L1897.58 1403.91 L1893.3 1403.91 L1893.3 1377.99 L1897.58 1377.99 L1897.58 1382.02 Q1899.11 1379.68 1901.17 1378.52 Q1903.25 1377.36 1905.96 1377.36 Q1910.43 1377.36 1912.72 1380.14 Q1915.01 1382.9 1915.01 1388.27 Z" fill="#000000" fill-rule="evenodd" fill-opacity="1" /><path clip-path="url(#clip480)" d="M1938.14 1393.68 L1938.14 1377.99 L1942.4 1377.99 L1942.4 1393.52 Q1942.4 1397.2 1943.83 1399.05 Q1945.27 1400.88 1948.14 1400.88 Q1951.59 1400.88 1953.58 1398.68 Q1955.59 1396.48 1955.59 1392.69 L1955.59 1377.99 L1959.85 1377.99 L1959.85 1403.91 L1955.59 1403.91 L1955.59 1399.93 Q1954.04 1402.29 1951.98 1403.45 Q1949.94 1404.59 1947.23 1404.59 Q1942.77 1404.59 1940.45 1401.81 Q1938.14 1399.03 1938.14 1393.68 M1948.85 1377.36 L1948.85 1377.36 Z" fill="#000000" fill-rule="evenodd" fill-opacity="1" /><path clip-path="url(#clip480)" d="M1985.15 1378.75 L1985.15 1382.78 Q1983.34 1381.85 1981.4 1381.39 Q1979.46 1380.93 1977.37 1380.93 Q1974.2 1380.93 1972.6 1381.9 Q1971.03 1382.87 1971.03 1384.82 Q1971.03 1386.3 1972.16 1387.16 Q1973.3 1387.99 1976.72 1388.75 L1978.18 1389.08 Q1982.72 1390.05 1984.62 1391.83 Q1986.54 1393.59 1986.54 1396.76 Q1986.54 1400.37 1983.67 1402.48 Q1980.82 1404.59 1975.82 1404.59 Q1973.74 1404.59 1971.47 1404.17 Q1969.22 1403.78 1966.72 1402.97 L1966.72 1398.57 Q1969.09 1399.79 1971.38 1400.42 Q1973.67 1401.02 1975.91 1401.02 Q1978.92 1401.02 1980.54 1400 Q1982.16 1398.96 1982.16 1397.09 Q1982.16 1395.35 1980.98 1394.42 Q1979.83 1393.5 1975.87 1392.64 L1974.39 1392.29 Q1970.43 1391.46 1968.67 1389.75 Q1966.91 1388.01 1966.91 1385 Q1966.91 1381.35 1969.5 1379.35 Q1972.09 1377.36 1976.86 1377.36 Q1979.22 1377.36 1981.31 1377.71 Q1983.39 1378.06 1985.15 1378.75 Z" fill="#000000" fill-rule="evenodd" fill-opacity="1" /><path clip-path="url(#clip480)" d="M1993.32 1377.99 L1997.58 1377.99 L1997.58 1403.91 L1993.32 1403.91 L1993.32 1377.99 M1993.32 1367.9 L1997.58 1367.9 L1997.58 1373.29 L1993.32 1373.29 L1993.32 1367.9 Z" fill="#000000" fill-rule="evenodd" fill-opacity="1" /><path clip-path="url(#clip480)" d="M2028.04 1388.27 L2028.04 1403.91 L2023.78 1403.91 L2023.78 1388.41 Q2023.78 1384.72 2022.35 1382.9 Q2020.91 1381.07 2018.04 1381.07 Q2014.59 1381.07 2012.6 1383.27 Q2010.61 1385.47 2010.61 1389.26 L2010.61 1403.91 L2006.33 1403.91 L2006.33 1377.99 L2010.61 1377.99 L2010.61 1382.02 Q2012.14 1379.68 2014.2 1378.52 Q2016.28 1377.36 2018.99 1377.36 Q2023.46 1377.36 2025.75 1380.14 Q2028.04 1382.9 2028.04 1388.27 Z" fill="#000000" fill-rule="evenodd" fill-opacity="1" /><path clip-path="url(#clip480)" d="M2053.6 1390.65 Q2053.6 1386.02 2051.68 1383.47 Q2049.78 1380.93 2046.33 1380.93 Q2042.9 1380.93 2040.98 1383.47 Q2039.09 1386.02 2039.09 1390.65 Q2039.09 1395.26 2040.98 1397.8 Q2042.9 1400.35 2046.33 1400.35 Q2049.78 1400.35 2051.68 1397.8 Q2053.6 1395.26 2053.6 1390.65 M2057.86 1400.7 Q2057.86 1407.32 2054.92 1410.53 Q2051.98 1413.78 2045.91 1413.78 Q2043.67 1413.78 2041.68 1413.43 Q2039.69 1413.1 2037.81 1412.41 L2037.81 1408.27 Q2039.69 1409.28 2041.52 1409.77 Q2043.34 1410.26 2045.24 1410.26 Q2049.43 1410.26 2051.52 1408.06 Q2053.6 1405.88 2053.6 1401.46 L2053.6 1399.35 Q2052.28 1401.65 2050.22 1402.78 Q2048.16 1403.91 2045.29 1403.91 Q2040.52 1403.91 2037.6 1400.28 Q2034.69 1396.65 2034.69 1390.65 Q2034.69 1384.63 2037.6 1381 Q2040.52 1377.36 2045.29 1377.36 Q2048.16 1377.36 2050.22 1378.5 Q2052.28 1379.63 2053.6 1381.92 L2053.6 1377.99 L2057.86 1377.99 L2057.86 1400.7 Z" fill="#000000" fill-rule="evenodd" fill-opacity="1" /><path clip-path="url(#clip480)" d="M2098.76 1381.92 L2098.76 1367.9 L2103.02 1367.9 L2103.02 1403.91 L2098.76 1403.91 L2098.76 1400.03 Q2097.42 1402.34 2095.36 1403.47 Q2093.32 1404.59 2090.45 1404.59 Q2085.75 1404.59 2082.79 1400.84 Q2079.85 1397.09 2079.85 1390.97 Q2079.85 1384.86 2082.79 1381.11 Q2085.75 1377.36 2090.45 1377.36 Q2093.32 1377.36 2095.36 1378.5 Q2097.42 1379.61 2098.76 1381.92 M2084.25 1390.97 Q2084.25 1395.67 2086.17 1398.36 Q2088.11 1401.02 2091.49 1401.02 Q2094.87 1401.02 2096.82 1398.36 Q2098.76 1395.67 2098.76 1390.97 Q2098.76 1386.28 2096.82 1383.61 Q2094.87 1380.93 2091.49 1380.93 Q2088.11 1380.93 2086.17 1383.61 Q2084.25 1386.28 2084.25 1390.97 Z" fill="#000000" fill-rule="evenodd" fill-opacity="1" /><path clip-path="url(#clip480)" d="M2111.79 1377.99 L2116.05 1377.99 L2116.05 1403.91 L2111.79 1403.91 L2111.79 1377.99 M2111.79 1367.9 L2116.05 1367.9 L2116.05 1373.29 L2111.79 1373.29 L2111.79 1367.9 Z" fill="#000000" fill-rule="evenodd" fill-opacity="1" /><path clip-path="url(#clip480)" d="M2136.75 1390.88 Q2131.58 1390.88 2129.59 1392.06 Q2127.6 1393.24 2127.6 1396.09 Q2127.6 1398.36 2129.08 1399.7 Q2130.59 1401.02 2133.16 1401.02 Q2136.7 1401.02 2138.83 1398.52 Q2140.98 1396 2140.98 1391.83 L2140.98 1390.88 L2136.75 1390.88 M2145.24 1389.12 L2145.24 1403.91 L2140.98 1403.91 L2140.98 1399.98 Q2139.52 1402.34 2137.35 1403.47 Q2135.17 1404.59 2132.02 1404.59 Q2128.04 1404.59 2125.68 1402.36 Q2123.34 1400.12 2123.34 1396.37 Q2123.34 1391.99 2126.26 1389.77 Q2129.2 1387.55 2135.01 1387.55 L2140.98 1387.55 L2140.98 1387.13 Q2140.98 1384.19 2139.04 1382.6 Q2137.12 1380.97 2133.62 1380.97 Q2131.4 1380.97 2129.29 1381.51 Q2127.19 1382.04 2125.24 1383.1 L2125.24 1379.17 Q2127.58 1378.27 2129.78 1377.83 Q2131.98 1377.36 2134.06 1377.36 Q2139.69 1377.36 2142.46 1380.28 Q2145.24 1383.2 2145.24 1389.12 Z" fill="#000000" fill-rule="evenodd" fill-opacity="1" /><path clip-path="url(#clip480)" d="M2171.08 1390.65 Q2171.08 1386.02 2169.15 1383.47 Q2167.26 1380.93 2163.81 1380.93 Q2160.38 1380.93 2158.46 1383.47 Q2156.56 1386.02 2156.56 1390.65 Q2156.56 1395.26 2158.46 1397.8 Q2160.38 1400.35 2163.81 1400.35 Q2167.26 1400.35 2169.15 1397.8 Q2171.08 1395.26 2171.08 1390.65 M2175.33 1400.7 Q2175.33 1407.32 2172.39 1410.53 Q2169.45 1413.78 2163.39 1413.78 Q2161.14 1413.78 2159.15 1413.43 Q2157.16 1413.1 2155.29 1412.41 L2155.29 1408.27 Q2157.16 1409.28 2158.99 1409.77 Q2160.82 1410.26 2162.72 1410.26 Q2166.91 1410.26 2168.99 1408.06 Q2171.08 1405.88 2171.08 1401.46 L2171.08 1399.35 Q2169.76 1401.65 2167.7 1402.78 Q2165.64 1403.91 2162.77 1403.91 Q2158 1403.91 2155.08 1400.28 Q2152.16 1396.65 2152.16 1390.65 Q2152.16 1384.63 2155.08 1381 Q2158 1377.36 2162.77 1377.36 Q2165.64 1377.36 2167.7 1378.5 Q2169.76 1379.63 2171.08 1381.92 L2171.08 1377.99 L2175.33 1377.99 L2175.33 1400.7 Z" fill="#000000" fill-rule="evenodd" fill-opacity="1" /><path clip-path="url(#clip480)" d="M2205.66 1388.27 L2205.66 1403.91 L2201.4 1403.91 L2201.4 1388.41 Q2201.4 1384.72 2199.96 1382.9 Q2198.53 1381.07 2195.66 1381.07 Q2192.21 1381.07 2190.22 1383.27 Q2188.23 1385.47 2188.23 1389.26 L2188.23 1403.91 L2183.95 1403.91 L2183.95 1377.99 L2188.23 1377.99 L2188.23 1382.02 Q2189.76 1379.68 2191.82 1378.52 Q2193.9 1377.36 2196.61 1377.36 Q2201.08 1377.36 2203.37 1380.14 Q2205.66 1382.9 2205.66 1388.27 Z" fill="#000000" fill-rule="evenodd" fill-opacity="1" /><path clip-path="url(#clip480)" d="M2230.31 1398.03 L2235.2 1398.03 L2235.2 1403.91 L2230.31 1403.91 L2230.31 1398.03 M2230.31 1379.4 L2235.2 1379.4 L2235.2 1385.28 L2230.31 1385.28 L2230.31 1379.4 Z" fill="#000000" fill-rule="evenodd" fill-opacity="1" /><path clip-path="url(#clip480)" d="M2244.52 1367.94 L2248.23 1367.94 Q2251.7 1373.41 2253.41 1378.64 Q2255.15 1383.87 2255.15 1389.03 Q2255.15 1394.22 2253.41 1399.47 Q2251.7 1404.72 2248.23 1410.16 L2244.52 1410.16 Q2247.6 1404.86 2249.11 1399.63 Q2250.64 1394.38 2250.64 1389.03 Q2250.64 1383.68 2249.11 1378.47 Q2247.6 1373.27 2244.52 1367.94 Z" fill="#000000" fill-rule="evenodd" fill-opacity="1" /></svg>
