<?xml version="1.0" encoding="utf-8"?>
<svg xmlns="http://www.w3.org/2000/svg" xmlns:xlink="http://www.w3.org/1999/xlink" width="600" height="400" viewBox="0 0 2400 1600">
<defs>
  <clipPath id="clip390">
    <rect x="0" y="0" width="2400" height="1600"/>
  </clipPath>
</defs>
<path clip-path="url(#clip390)" d="M0 1600 L2400 1600 L2400 0 L0 0  Z" fill="#ffffff" fill-rule="evenodd" fill-opacity="1"/>
<defs>
  <clipPath id="clip391">
    <rect x="480" y="0" width="1681" height="1600"/>
  </clipPath>
</defs>
<defs>
  <clipPath id="clip392">
    <rect x="216" y="123" width="2137" height="1301"/>
  </clipPath>
</defs>
<path clip-path="url(#clip390)" d="M186.274 1423.18 L2352.76 1423.18 L2352.76 123.472 L186.274 123.472  Z" fill="#ffffff" fill-rule="evenodd" fill-opacity="1"/>
<defs>
  <clipPath id="clip393">
    <rect x="186" y="123" width="2167" height="1301"/>
  </clipPath>
</defs>
<polyline clip-path="url(#clip393)" style="stroke:#000000; stroke-linecap:round; stroke-linejoin:round; stroke-width:2; stroke-opacity:0.1; fill:none" points="247.59,1423.18 247.59,123.472 "/>
<polyline clip-path="url(#clip393)" style="stroke:#000000; stroke-linecap:round; stroke-linejoin:round; stroke-width:2; stroke-opacity:0.1; fill:none" points="789.738,1423.18 789.738,123.472 "/>
<polyline clip-path="url(#clip393)" style="stroke:#000000; stroke-linecap:round; stroke-linejoin:round; stroke-width:2; stroke-opacity:0.1; fill:none" points="1331.89,1423.18 1331.89,123.472 "/>
<polyline clip-path="url(#clip393)" style="stroke:#000000; stroke-linecap:round; stroke-linejoin:round; stroke-width:2; stroke-opacity:0.1; fill:none" points="1874.03,1423.18 1874.03,123.472 "/>
<polyline clip-path="url(#clip390)" style="stroke:#000000; stroke-linecap:round; stroke-linejoin:round; stroke-width:4; stroke-opacity:1; fill:none" points="186.274,1423.18 2352.76,1423.18 "/>
<polyline clip-path="url(#clip390)" style="stroke:#000000; stroke-linecap:round; stroke-linejoin:round; stroke-width:4; stroke-opacity:1; fill:none" points="247.59,1423.18 247.59,1404.28 "/>
<polyline clip-path="url(#clip390)" style="stroke:#000000; stroke-linecap:round; stroke-linejoin:round; stroke-width:4; stroke-opacity:1; fill:none" points="789.738,1423.18 789.738,1404.28 "/>
<polyline clip-path="url(#clip390)" style="stroke:#000000; stroke-linecap:round; stroke-linejoin:round; stroke-width:4; stroke-opacity:1; fill:none" points="1331.89,1423.18 1331.89,1404.28 "/>
<polyline clip-path="url(#clip390)" style="stroke:#000000; stroke-linecap:round; stroke-linejoin:round; stroke-width:4; stroke-opacity:1; fill:none" points="1874.03,1423.18 1874.03,1404.28 "/>
<path clip-path="url(#clip390)" d="M247.59 1454.1 Q243.978 1454.1 242.15 1457.66 Q240.344 1461.2 240.344 1468.33 Q240.344 1475.44 242.15 1479.01 Q243.978 1482.55 247.59 1482.55 Q251.224 1482.55 253.029 1479.01 Q254.858 1475.44 254.858 1468.33 Q254.858 1461.2 253.029 1457.66 Q251.224 1454.1 247.59 1454.1 M247.59 1450.39 Q253.4 1450.39 256.455 1455 Q259.534 1459.58 259.534 1468.33 Q259.534 1477.06 256.455 1481.67 Q253.4 1486.25 247.59 1486.25 Q241.779 1486.25 238.701 1481.67 Q235.645 1477.06 235.645 1468.33 Q235.645 1459.58 238.701 1455 Q241.779 1450.39 247.59 1450.39 Z" fill="#000000" fill-rule="evenodd" fill-opacity="1" /><path clip-path="url(#clip390)" d="M753.43 1481.64 L769.749 1481.64 L769.749 1485.58 L747.805 1485.58 L747.805 1481.64 Q750.467 1478.89 755.05 1474.26 Q759.657 1469.61 760.837 1468.27 Q763.083 1465.74 763.962 1464.01 Q764.865 1462.25 764.865 1460.56 Q764.865 1457.8 762.921 1456.07 Q761 1454.33 757.898 1454.33 Q755.699 1454.33 753.245 1455.09 Q750.814 1455.86 748.037 1457.41 L748.037 1452.69 Q750.861 1451.55 753.314 1450.97 Q755.768 1450.39 757.805 1450.39 Q763.175 1450.39 766.37 1453.08 Q769.564 1455.77 769.564 1460.26 Q769.564 1462.39 768.754 1464.31 Q767.967 1466.2 765.861 1468.8 Q765.282 1469.47 762.18 1472.69 Q759.078 1475.88 753.43 1481.64 Z" fill="#000000" fill-rule="evenodd" fill-opacity="1" /><path clip-path="url(#clip390)" d="M789.564 1454.1 Q785.953 1454.1 784.124 1457.66 Q782.319 1461.2 782.319 1468.33 Q782.319 1475.44 784.124 1479.01 Q785.953 1482.55 789.564 1482.55 Q793.198 1482.55 795.004 1479.01 Q796.833 1475.44 796.833 1468.33 Q796.833 1461.2 795.004 1457.66 Q793.198 1454.1 789.564 1454.1 M789.564 1450.39 Q795.374 1450.39 798.43 1455 Q801.509 1459.58 801.509 1468.33 Q801.509 1477.06 798.43 1481.67 Q795.374 1486.25 789.564 1486.25 Q783.754 1486.25 780.675 1481.67 Q777.62 1477.06 777.62 1468.33 Q777.62 1459.58 780.675 1455 Q783.754 1450.39 789.564 1450.39 Z" fill="#000000" fill-rule="evenodd" fill-opacity="1" /><path clip-path="url(#clip390)" d="M819.726 1454.1 Q816.115 1454.1 814.286 1457.66 Q812.481 1461.2 812.481 1468.33 Q812.481 1475.44 814.286 1479.01 Q816.115 1482.55 819.726 1482.55 Q823.36 1482.55 825.166 1479.01 Q826.995 1475.44 826.995 1468.33 Q826.995 1461.2 825.166 1457.66 Q823.36 1454.1 819.726 1454.1 M819.726 1450.39 Q825.536 1450.39 828.592 1455 Q831.67 1459.58 831.67 1468.33 Q831.67 1477.06 828.592 1481.67 Q825.536 1486.25 819.726 1486.25 Q813.916 1486.25 810.837 1481.67 Q807.782 1477.06 807.782 1468.33 Q807.782 1459.58 810.837 1455 Q813.916 1450.39 819.726 1450.39 Z" fill="#000000" fill-rule="evenodd" fill-opacity="1" /><path clip-path="url(#clip390)" d="M1304.98 1455.09 L1293.17 1473.54 L1304.98 1473.54 L1304.98 1455.09 M1303.75 1451.02 L1309.63 1451.02 L1309.63 1473.54 L1314.56 1473.54 L1314.56 1477.43 L1309.63 1477.43 L1309.63 1485.58 L1304.98 1485.58 L1304.98 1477.43 L1289.37 1477.43 L1289.37 1472.92 L1303.75 1451.02 Z" fill="#000000" fill-rule="evenodd" fill-opacity="1" /><path clip-path="url(#clip390)" d="M1332.29 1454.1 Q1328.68 1454.1 1326.85 1457.66 Q1325.05 1461.2 1325.05 1468.33 Q1325.05 1475.44 1326.85 1479.01 Q1328.68 1482.55 1332.29 1482.55 Q1335.93 1482.55 1337.73 1479.01 Q1339.56 1475.44 1339.56 1468.33 Q1339.56 1461.2 1337.73 1457.66 Q1335.93 1454.1 1332.29 1454.1 M1332.29 1450.39 Q1338.1 1450.39 1341.16 1455 Q1344.24 1459.58 1344.24 1468.33 Q1344.24 1477.06 1341.16 1481.67 Q1338.1 1486.25 1332.29 1486.25 Q1326.48 1486.25 1323.4 1481.67 Q1320.35 1477.06 1320.35 1468.33 Q1320.35 1459.58 1323.4 1455 Q1326.48 1450.39 1332.29 1450.39 Z" fill="#000000" fill-rule="evenodd" fill-opacity="1" /><path clip-path="url(#clip390)" d="M1362.45 1454.1 Q1358.84 1454.1 1357.01 1457.66 Q1355.21 1461.2 1355.21 1468.33 Q1355.21 1475.44 1357.01 1479.01 Q1358.84 1482.55 1362.45 1482.55 Q1366.09 1482.55 1367.89 1479.01 Q1369.72 1475.44 1369.72 1468.33 Q1369.72 1461.2 1367.89 1457.66 Q1366.09 1454.1 1362.45 1454.1 M1362.45 1450.39 Q1368.26 1450.39 1371.32 1455 Q1374.4 1459.58 1374.4 1468.33 Q1374.4 1477.06 1371.32 1481.67 Q1368.26 1486.25 1362.45 1486.25 Q1356.64 1486.25 1353.56 1481.67 Q1350.51 1477.06 1350.51 1468.33 Q1350.51 1459.58 1353.56 1455 Q1356.64 1450.39 1362.45 1450.39 Z" fill="#000000" fill-rule="evenodd" fill-opacity="1" /><path clip-path="url(#clip390)" d="M1844.36 1466.44 Q1841.21 1466.44 1839.36 1468.59 Q1837.53 1470.74 1837.53 1474.49 Q1837.53 1478.22 1839.36 1480.39 Q1841.21 1482.55 1844.36 1482.55 Q1847.51 1482.55 1849.34 1480.39 Q1851.19 1478.22 1851.19 1474.49 Q1851.19 1470.74 1849.34 1468.59 Q1847.51 1466.44 1844.36 1466.44 M1853.64 1451.78 L1853.64 1456.04 Q1851.88 1455.21 1850.08 1454.77 Q1848.29 1454.33 1846.53 1454.33 Q1841.9 1454.33 1839.45 1457.45 Q1837.02 1460.58 1836.67 1466.9 Q1838.04 1464.89 1840.1 1463.82 Q1842.16 1462.73 1844.64 1462.73 Q1849.84 1462.73 1852.85 1465.9 Q1855.89 1469.05 1855.89 1474.49 Q1855.89 1479.82 1852.74 1483.03 Q1849.59 1486.25 1844.36 1486.25 Q1838.36 1486.25 1835.19 1481.67 Q1832.02 1477.06 1832.02 1468.33 Q1832.02 1460.14 1835.91 1455.28 Q1839.8 1450.39 1846.35 1450.39 Q1848.11 1450.39 1849.89 1450.74 Q1851.7 1451.09 1853.64 1451.78 Z" fill="#000000" fill-rule="evenodd" fill-opacity="1" /><path clip-path="url(#clip390)" d="M1873.94 1454.1 Q1870.33 1454.1 1868.5 1457.66 Q1866.7 1461.2 1866.7 1468.33 Q1866.7 1475.44 1868.5 1479.01 Q1870.33 1482.55 1873.94 1482.55 Q1877.58 1482.55 1879.38 1479.01 Q1881.21 1475.44 1881.21 1468.33 Q1881.21 1461.2 1879.38 1457.66 Q1877.58 1454.1 1873.94 1454.1 M1873.94 1450.39 Q1879.75 1450.39 1882.81 1455 Q1885.89 1459.58 1885.89 1468.33 Q1885.89 1477.06 1882.81 1481.67 Q1879.75 1486.25 1873.94 1486.25 Q1868.13 1486.25 1865.05 1481.67 Q1862 1477.06 1862 1468.33 Q1862 1459.58 1865.05 1455 Q1868.13 1450.39 1873.94 1450.39 Z" fill="#000000" fill-rule="evenodd" fill-opacity="1" /><path clip-path="url(#clip390)" d="M1904.1 1454.1 Q1900.49 1454.1 1898.66 1457.66 Q1896.86 1461.2 1896.86 1468.33 Q1896.86 1475.44 1898.66 1479.01 Q1900.49 1482.55 1904.1 1482.55 Q1907.74 1482.55 1909.54 1479.01 Q1911.37 1475.44 1911.37 1468.33 Q1911.37 1461.2 1909.54 1457.66 Q1907.74 1454.1 1904.1 1454.1 M1904.1 1450.39 Q1909.91 1450.39 1912.97 1455 Q1916.05 1459.58 1916.05 1468.33 Q1916.05 1477.06 1912.97 1481.67 Q1909.91 1486.25 1904.1 1486.25 Q1898.29 1486.25 1895.21 1481.67 Q1892.16 1477.06 1892.16 1468.33 Q1892.16 1459.58 1895.21 1455 Q1898.29 1450.39 1904.1 1450.39 Z" fill="#000000" fill-rule="evenodd" fill-opacity="1" /><path clip-path="url(#clip390)" d="M1268.58 1522.27 L1268.58 1532.4 L1280.64 1532.4 L1280.64 1536.95 L1268.58 1536.95 L1268.58 1556.3 Q1268.58 1560.66 1269.75 1561.9 Q1270.96 1563.14 1274.62 1563.14 L1280.64 1563.14 L1280.64 1568.04 L1274.62 1568.04 Q1267.84 1568.04 1265.27 1565.53 Q1262.69 1562.98 1262.69 1556.3 L1262.69 1536.95 L1258.39 1536.95 L1258.39 1532.4 L1262.69 1532.4 L1262.69 1522.27 L1268.58 1522.27 Z" fill="#000000" fill-rule="evenodd" fill-opacity="1" /><polyline clip-path="url(#clip393)" style="stroke:#000000; stroke-linecap:round; stroke-linejoin:round; stroke-width:2; stroke-opacity:0.1; fill:none" points="186.274,1401.1 2352.76,1401.1 "/>
<polyline clip-path="url(#clip393)" style="stroke:#000000; stroke-linecap:round; stroke-linejoin:round; stroke-width:2; stroke-opacity:0.1; fill:none" points="186.274,1011.28 2352.76,1011.28 "/>
<polyline clip-path="url(#clip393)" style="stroke:#000000; stroke-linecap:round; stroke-linejoin:round; stroke-width:2; stroke-opacity:0.1; fill:none" points="186.274,621.456 2352.76,621.456 "/>
<polyline clip-path="url(#clip393)" style="stroke:#000000; stroke-linecap:round; stroke-linejoin:round; stroke-width:2; stroke-opacity:0.1; fill:none" points="186.274,231.633 2352.76,231.633 "/>
<polyline clip-path="url(#clip390)" style="stroke:#000000; stroke-linecap:round; stroke-linejoin:round; stroke-width:4; stroke-opacity:1; fill:none" points="186.274,1423.18 186.274,123.472 "/>
<polyline clip-path="url(#clip390)" style="stroke:#000000; stroke-linecap:round; stroke-linejoin:round; stroke-width:4; stroke-opacity:1; fill:none" points="186.274,1401.1 205.172,1401.1 "/>
<polyline clip-path="url(#clip390)" style="stroke:#000000; stroke-linecap:round; stroke-linejoin:round; stroke-width:4; stroke-opacity:1; fill:none" points="186.274,1011.28 205.172,1011.28 "/>
<polyline clip-path="url(#clip390)" style="stroke:#000000; stroke-linecap:round; stroke-linejoin:round; stroke-width:4; stroke-opacity:1; fill:none" points="186.274,621.456 205.172,621.456 "/>
<polyline clip-path="url(#clip390)" style="stroke:#000000; stroke-linecap:round; stroke-linejoin:round; stroke-width:4; stroke-opacity:1; fill:none" points="186.274,231.633 205.172,231.633 "/>
<path clip-path="url(#clip390)" d="M62.9365 1386.9 Q59.3254 1386.9 57.4967 1390.47 Q55.6912 1394.01 55.6912 1401.14 Q55.6912 1408.24 57.4967 1411.81 Q59.3254 1415.35 62.9365 1415.35 Q66.5707 1415.35 68.3763 1411.81 Q70.205 1408.24 70.205 1401.14 Q70.205 1394.01 68.3763 1390.47 Q66.5707 1386.9 62.9365 1386.9 M62.9365 1383.2 Q68.7467 1383.2 71.8022 1387.81 Q74.8809 1392.39 74.8809 1401.14 Q74.8809 1409.87 71.8022 1414.47 Q68.7467 1419.06 62.9365 1419.06 Q57.1264 1419.06 54.0477 1414.47 Q50.9921 1409.87 50.9921 1401.14 Q50.9921 1392.39 54.0477 1387.81 Q57.1264 1383.2 62.9365 1383.2 Z" fill="#000000" fill-rule="evenodd" fill-opacity="1" /><path clip-path="url(#clip390)" d="M83.0984 1412.5 L87.9827 1412.5 L87.9827 1418.38 L83.0984 1418.38 L83.0984 1412.5 Z" fill="#000000" fill-rule="evenodd" fill-opacity="1" /><path clip-path="url(#clip390)" d="M108.168 1386.9 Q104.557 1386.9 102.728 1390.47 Q100.922 1394.01 100.922 1401.14 Q100.922 1408.24 102.728 1411.81 Q104.557 1415.35 108.168 1415.35 Q111.802 1415.35 113.608 1411.81 Q115.436 1408.24 115.436 1401.14 Q115.436 1394.01 113.608 1390.47 Q111.802 1386.9 108.168 1386.9 M108.168 1383.2 Q113.978 1383.2 117.033 1387.81 Q120.112 1392.39 120.112 1401.14 Q120.112 1409.87 117.033 1414.47 Q113.978 1419.06 108.168 1419.06 Q102.358 1419.06 99.2789 1414.47 Q96.2234 1409.87 96.2234 1401.14 Q96.2234 1392.39 99.2789 1387.81 Q102.358 1383.2 108.168 1383.2 Z" fill="#000000" fill-rule="evenodd" fill-opacity="1" /><path clip-path="url(#clip390)" d="M138.33 1386.9 Q134.719 1386.9 132.89 1390.47 Q131.084 1394.01 131.084 1401.14 Q131.084 1408.24 132.89 1411.81 Q134.719 1415.35 138.33 1415.35 Q141.964 1415.35 143.769 1411.81 Q145.598 1408.24 145.598 1401.14 Q145.598 1394.01 143.769 1390.47 Q141.964 1386.9 138.33 1386.9 M138.33 1383.2 Q144.14 1383.2 147.195 1387.81 Q150.274 1392.39 150.274 1401.14 Q150.274 1409.87 147.195 1414.47 Q144.14 1419.06 138.33 1419.06 Q132.519 1419.06 129.441 1414.47 Q126.385 1409.87 126.385 1401.14 Q126.385 1392.39 129.441 1387.81 Q132.519 1383.2 138.33 1383.2 Z" fill="#000000" fill-rule="evenodd" fill-opacity="1" /><path clip-path="url(#clip390)" d="M63.9319 997.079 Q60.3208 997.079 58.4921 1000.64 Q56.6865 1004.19 56.6865 1011.31 Q56.6865 1018.42 58.4921 1021.99 Q60.3208 1025.53 63.9319 1025.53 Q67.5661 1025.53 69.3717 1021.99 Q71.2004 1018.42 71.2004 1011.31 Q71.2004 1004.19 69.3717 1000.64 Q67.5661 997.079 63.9319 997.079 M63.9319 993.375 Q69.742 993.375 72.7976 997.982 Q75.8763 1002.56 75.8763 1011.31 Q75.8763 1020.04 72.7976 1024.65 Q69.742 1029.23 63.9319 1029.23 Q58.1217 1029.23 55.043 1024.65 Q51.9875 1020.04 51.9875 1011.31 Q51.9875 1002.56 55.043 997.982 Q58.1217 993.375 63.9319 993.375 Z" fill="#000000" fill-rule="evenodd" fill-opacity="1" /><path clip-path="url(#clip390)" d="M84.0938 1022.68 L88.978 1022.68 L88.978 1028.56 L84.0938 1028.56 L84.0938 1022.68 Z" fill="#000000" fill-rule="evenodd" fill-opacity="1" /><path clip-path="url(#clip390)" d="M109.163 997.079 Q105.552 997.079 103.723 1000.64 Q101.918 1004.19 101.918 1011.31 Q101.918 1018.42 103.723 1021.99 Q105.552 1025.53 109.163 1025.53 Q112.797 1025.53 114.603 1021.99 Q116.432 1018.42 116.432 1011.31 Q116.432 1004.19 114.603 1000.64 Q112.797 997.079 109.163 997.079 M109.163 993.375 Q114.973 993.375 118.029 997.982 Q121.107 1002.56 121.107 1011.31 Q121.107 1020.04 118.029 1024.65 Q114.973 1029.23 109.163 1029.23 Q103.353 1029.23 100.274 1024.65 Q97.2187 1020.04 97.2187 1011.31 Q97.2187 1002.56 100.274 997.982 Q103.353 993.375 109.163 993.375 Z" fill="#000000" fill-rule="evenodd" fill-opacity="1" /><path clip-path="url(#clip390)" d="M129.371 994 L147.728 994 L147.728 997.935 L133.654 997.935 L133.654 1006.41 Q134.672 1006.06 135.691 1005.9 Q136.709 1005.71 137.728 1005.71 Q143.515 1005.71 146.894 1008.88 Q150.274 1012.06 150.274 1017.47 Q150.274 1023.05 146.802 1026.15 Q143.33 1029.23 137.01 1029.23 Q134.834 1029.23 132.566 1028.86 Q130.32 1028.49 127.913 1027.75 L127.913 1023.05 Q129.996 1024.19 132.219 1024.74 Q134.441 1025.3 136.918 1025.3 Q140.922 1025.3 143.26 1023.19 Q145.598 1021.08 145.598 1017.47 Q145.598 1013.86 143.26 1011.75 Q140.922 1009.65 136.918 1009.65 Q135.043 1009.65 133.168 1010.06 Q131.316 1010.48 129.371 1011.36 L129.371 994 Z" fill="#000000" fill-rule="evenodd" fill-opacity="1" /><path clip-path="url(#clip390)" d="M62.9365 607.255 Q59.3254 607.255 57.4967 610.82 Q55.6912 614.361 55.6912 621.491 Q55.6912 628.597 57.4967 632.162 Q59.3254 635.704 62.9365 635.704 Q66.5707 635.704 68.3763 632.162 Q70.205 628.597 70.205 621.491 Q70.205 614.361 68.3763 610.82 Q66.5707 607.255 62.9365 607.255 M62.9365 603.551 Q68.7467 603.551 71.8022 608.158 Q74.8809 612.741 74.8809 621.491 Q74.8809 630.218 71.8022 634.824 Q68.7467 639.408 62.9365 639.408 Q57.1264 639.408 54.0477 634.824 Q50.9921 630.218 50.9921 621.491 Q50.9921 612.741 54.0477 608.158 Q57.1264 603.551 62.9365 603.551 Z" fill="#000000" fill-rule="evenodd" fill-opacity="1" /><path clip-path="url(#clip390)" d="M83.0984 632.857 L87.9827 632.857 L87.9827 638.736 L83.0984 638.736 L83.0984 632.857 Z" fill="#000000" fill-rule="evenodd" fill-opacity="1" /><path clip-path="url(#clip390)" d="M98.978 634.801 L106.617 634.801 L106.617 608.436 L98.3067 610.102 L98.3067 605.843 L106.571 604.176 L111.246 604.176 L111.246 634.801 L118.885 634.801 L118.885 638.736 L98.978 638.736 L98.978 634.801 Z" fill="#000000" fill-rule="evenodd" fill-opacity="1" /><path clip-path="url(#clip390)" d="M138.33 607.255 Q134.719 607.255 132.89 610.82 Q131.084 614.361 131.084 621.491 Q131.084 628.597 132.89 632.162 Q134.719 635.704 138.33 635.704 Q141.964 635.704 143.769 632.162 Q145.598 628.597 145.598 621.491 Q145.598 614.361 143.769 610.82 Q141.964 607.255 138.33 607.255 M138.33 603.551 Q144.14 603.551 147.195 608.158 Q150.274 612.741 150.274 621.491 Q150.274 630.218 147.195 634.824 Q144.14 639.408 138.33 639.408 Q132.519 639.408 129.441 634.824 Q126.385 630.218 126.385 621.491 Q126.385 612.741 129.441 608.158 Q132.519 603.551 138.33 603.551 Z" fill="#000000" fill-rule="evenodd" fill-opacity="1" /><path clip-path="url(#clip390)" d="M63.9319 217.431 Q60.3208 217.431 58.4921 220.996 Q56.6865 224.538 56.6865 231.667 Q56.6865 238.774 58.4921 242.339 Q60.3208 245.88 63.9319 245.88 Q67.5661 245.88 69.3717 242.339 Q71.2004 238.774 71.2004 231.667 Q71.2004 224.538 69.3717 220.996 Q67.5661 217.431 63.9319 217.431 M63.9319 213.728 Q69.742 213.728 72.7976 218.334 Q75.8763 222.917 75.8763 231.667 Q75.8763 240.394 72.7976 245.001 Q69.742 249.584 63.9319 249.584 Q58.1217 249.584 55.043 245.001 Q51.9875 240.394 51.9875 231.667 Q51.9875 222.917 55.043 218.334 Q58.1217 213.728 63.9319 213.728 Z" fill="#000000" fill-rule="evenodd" fill-opacity="1" /><path clip-path="url(#clip390)" d="M84.0938 243.033 L88.978 243.033 L88.978 248.913 L84.0938 248.913 L84.0938 243.033 Z" fill="#000000" fill-rule="evenodd" fill-opacity="1" /><path clip-path="url(#clip390)" d="M99.9733 244.977 L107.612 244.977 L107.612 218.612 L99.3021 220.278 L99.3021 216.019 L107.566 214.353 L112.242 214.353 L112.242 244.977 L119.881 244.977 L119.881 248.913 L99.9733 248.913 L99.9733 244.977 Z" fill="#000000" fill-rule="evenodd" fill-opacity="1" /><path clip-path="url(#clip390)" d="M129.371 214.353 L147.728 214.353 L147.728 218.288 L133.654 218.288 L133.654 226.76 Q134.672 226.413 135.691 226.251 Q136.709 226.065 137.728 226.065 Q143.515 226.065 146.894 229.237 Q150.274 232.408 150.274 237.825 Q150.274 243.403 146.802 246.505 Q143.33 249.584 137.01 249.584 Q134.834 249.584 132.566 249.214 Q130.32 248.843 127.913 248.102 L127.913 243.403 Q129.996 244.538 132.219 245.093 Q134.441 245.649 136.918 245.649 Q140.922 245.649 143.26 243.542 Q145.598 241.436 145.598 237.825 Q145.598 234.214 143.26 232.107 Q140.922 230.001 136.918 230.001 Q135.043 230.001 133.168 230.417 Q131.316 230.834 129.371 231.714 L129.371 214.353 Z" fill="#000000" fill-rule="evenodd" fill-opacity="1" /><path clip-path="url(#clip390)" d="M873.406 49.0698 Q873.324 49.4797 873.16 50.2175 Q872.996 50.9144 872.258 53.1278 Q871.521 55.3412 870.537 57.5956 Q869.594 59.809 867.75 62.9242 Q865.946 65.9984 863.733 68.7857 Q863.118 69.5235 862.995 69.9744 Q862.913 70.3843 862.913 71.7369 Q862.913 80.2627 865.495 80.2627 Q865.618 80.2627 865.823 80.2627 Q866.069 80.2217 866.684 80.0167 Q867.34 79.7708 867.913 79.4019 Q868.487 78.992 869.143 78.1722 Q869.799 77.3115 870.209 76.1638 Q870.578 75.344 871.316 75.344 Q872.299 75.344 872.299 76.1638 Q872.299 77.6394 870.25 79.8938 Q868.2 82.1482 865.249 82.1482 Q862.421 82.1482 860.412 80.3037 Q858.445 78.4182 857.625 75.057 Q848.771 82.1482 839.918 82.1482 Q833.687 82.1482 829.998 78.0903 Q826.309 73.9913 826.309 67.9249 Q826.309 62.1044 829.507 56.5709 Q832.745 51.0373 837.991 47.5942 Q843.279 44.1101 848.894 44.1101 Q850.862 44.1101 852.747 44.643 Q854.633 45.1349 856.518 46.4055 Q858.404 47.6762 859.798 49.6027 Q861.191 51.5292 862.052 54.5624 Q862.913 57.5956 862.913 61.4076 L862.913 66.6133 Q868.323 59.768 871.152 49.9716 Q871.562 48.496 871.807 48.332 Q871.971 48.2091 872.381 48.2091 Q872.791 48.2091 873.037 48.455 Q873.324 48.66 873.365 48.8649 L873.406 49.0698 M857.297 72.8846 Q857.133 71.45 857.133 63.4981 Q857.133 61.9815 857.133 61.1617 Q857.133 60.3009 857.051 58.6613 Q856.969 57.0218 856.805 55.997 Q856.682 54.9723 856.395 53.4967 Q856.109 52.0211 855.699 51.0783 Q855.289 50.1356 854.633 49.0698 Q854.018 48.0041 853.198 47.3893 Q852.42 46.7744 851.272 46.3646 Q850.165 45.9547 848.812 45.9547 Q847.132 45.9547 845.369 46.5695 Q843.648 47.1433 841.434 48.9879 Q839.221 50.7914 837.376 53.6606 Q835.45 56.6938 833.974 62.2684 Q832.54 67.8019 832.54 71.1221 Q832.54 75.303 834.466 77.8033 Q836.393 80.2627 840.082 80.2627 Q848.894 80.2627 857.297 72.8846 Z" fill="#000000" fill-rule="evenodd" fill-opacity="1" /><path clip-path="url(#clip390)" d="M902.781 68.4578 Q902.863 67.433 904.461 67.433 L955.903 67.433 Q958.321 67.433 958.362 68.3758 Q958.362 69.4005 956.067 69.3595 L905.035 69.3595 Q902.781 69.4005 902.781 68.4578 M902.781 52.0621 Q902.781 51.0373 904.543 51.0783 L955.821 51.0783 Q958.321 51.0783 958.362 52.0621 Q958.362 53.0048 956.231 53.0048 L904.461 53.0048 Q902.781 53.0048 902.781 52.0621 Z" fill="#000000" fill-rule="evenodd" fill-opacity="1" /><path clip-path="url(#clip390)" d="M990.741 54.3575 Q990.741 42.0197 993.856 35.2974 Q998.201 25.2961 1008.45 25.2961 Q1010.62 25.2961 1012.87 25.9109 Q1015.17 26.4848 1018.04 28.7392 Q1020.95 30.9936 1022.71 34.6826 Q1026.07 41.8147 1026.07 54.3575 Q1026.07 66.6133 1022.96 73.2945 Q1018.41 83.05 1008.37 83.05 Q1004.59 83.05 1000.74 81.1235 Q996.93 79.197 994.512 74.5652 Q990.741 67.638 990.741 54.3575 M997.709 53.3327 Q997.709 65.9984 998.611 71.0401 Q999.635 76.4917 1002.42 78.869 Q1005.25 81.2054 1008.37 81.2054 Q1011.73 81.2054 1014.51 78.7051 Q1017.34 76.1638 1018.2 70.7122 Q1019.15 65.3426 1019.11 53.3327 Q1019.11 41.6508 1018.29 36.978 Q1017.18 31.5264 1014.23 29.354 Q1011.32 27.1406 1008.37 27.1406 Q1007.26 27.1406 1006.07 27.4685 Q1004.92 27.7964 1003.24 28.7392 Q1001.56 29.6819 1000.25 32.0183 Q998.979 34.3547 998.365 37.8798 Q997.709 42.4296 997.709 53.3327 Z" fill="#000000" fill-rule="evenodd" fill-opacity="1" /><path clip-path="url(#clip390)" d="M1033.58 79.8528 Q1032.31 78.5001 1032.31 76.7376 Q1032.31 74.9751 1033.58 73.7044 Q1034.85 72.3927 1036.78 72.3927 Q1038.62 72.3927 1039.85 73.6224 Q1041.12 74.8111 1041.12 76.7786 Q1041.12 78.7051 1039.77 79.9758 Q1038.46 81.2054 1036.78 81.2054 Q1034.85 81.2054 1033.58 79.8528 Z" fill="#000000" fill-rule="evenodd" fill-opacity="1" /><path clip-path="url(#clip390)" d="M1055.41 44.1921 Q1055.41 39.7243 1056.72 36.6911 Q1058.03 33.6169 1060.78 30.5837 Q1065.82 25.2961 1073.12 25.2961 Q1076.23 25.2961 1078.98 26.6077 Q1081.77 27.9194 1084.39 30.9116 Q1087.05 33.8628 1088.65 39.7243 Q1090.25 45.5448 1090.25 53.5787 Q1090.25 66.5723 1083.94 74.8111 Q1077.67 83.05 1069.18 83.05 Q1063.81 83.05 1060.66 80.6316 Q1057.5 78.1722 1057.5 73.9913 Q1057.5 71.8189 1058.73 70.9171 Q1059.96 69.9744 1061.35 69.9744 Q1062.87 69.9744 1064.06 70.9991 Q1065.25 71.9828 1065.25 73.8274 Q1065.25 75.344 1064.26 76.5327 Q1063.32 77.6804 1060.86 77.6804 Q1063.28 80.7136 1069.1 80.7136 Q1071.19 80.7136 1073.28 79.7708 Q1075.37 78.7871 1077.63 76.4507 Q1079.92 74.0733 1081.32 69.1136 Q1082.71 64.1539 1082.71 57.1857 L1082.71 54.5214 Q1079.35 62.9242 1072.22 62.9242 Q1065.17 62.9242 1060.29 57.5136 Q1055.41 52.1031 1055.41 44.1921 M1062.95 44.2741 Q1062.95 52.5949 1064.47 55.6691 Q1067.05 60.9567 1072.3 60.9567 Q1077.42 60.9567 1079.96 56.4069 Q1082.54 51.8161 1082.54 45.8727 Q1082.54 37.6338 1081.19 34.0268 Q1078.69 27.3865 1073.12 27.3865 Q1067.58 27.3865 1064.71 32.6741 Q1062.95 35.7893 1062.95 44.2741 Z" fill="#000000" fill-rule="evenodd" fill-opacity="1" /><path clip-path="url(#clip390)" d="M1100.3 70.9161 L1108.85 70.9161 L1108.85 77.8837 L1102.21 90.8466 L1096.98 90.8466 L1100.3 77.8837 L1100.3 70.9161 Z" fill="#000000" fill-rule="evenodd" fill-opacity="1" /><path clip-path="url(#clip390)" d="M1181.32 42.957 Q1181.32 45.2934 1179.89 46.687 Q1178.49 48.0806 1176.73 48.0806 Q1175.17 48.0806 1174.35 47.1789 Q1173.53 46.2771 1173.53 45.1294 Q1173.53 44.6375 1173.74 44.0227 Q1173.94 43.3669 1174.39 42.5881 Q1174.88 41.8093 1175.91 41.2354 Q1176.93 40.6616 1178.33 40.5796 Q1178.04 40.2927 1177.96 40.2517 Q1177.34 39.7598 1176.2 39.5959 Q1176.03 39.5139 1175.46 39.5139 Q1172.63 39.5139 1169.76 41.6043 Q1166.93 43.6538 1163.45 47.5478 Q1159.06 52.0976 1156.23 53.7781 Q1168.65 55.4177 1168.65 62.5908 Q1168.65 63.7795 1168.33 65.2142 Q1167.67 67.9194 1167.67 69.8869 Q1167.67 73.8219 1170.33 73.8219 Q1172.92 73.8219 1174.56 71.1986 Q1176.24 68.5753 1177.63 63.4516 Q1177.84 62.5089 1178.04 62.2219 Q1178.25 61.935 1178.82 61.935 Q1179.84 61.935 1179.84 62.7548 Q1178.9 67.5505 1176.81 71.2396 Q1174.15 75.7074 1170.17 75.7074 Q1166.85 75.7074 1164.64 73.412 Q1162.46 71.0756 1162.46 67.3866 Q1162.46 66.4848 1162.79 64.4354 Q1163.04 63.6156 1163.04 62.6728 Q1163.04 60.7463 1161.97 59.3117 Q1160.91 57.8361 1159.19 57.0983 Q1157.46 56.3605 1156.03 56.0326 Q1154.64 55.6637 1153.28 55.5407 Q1149.18 72.8791 1148.61 73.9449 Q1148.24 74.6827 1147.42 75.1745 Q1146.6 75.7074 1145.74 75.7074 Q1144.92 75.7074 1144.1 75.1336 Q1143.32 74.6007 1143.32 73.33 Q1143.32 72.6742 1143.65 71.4855 L1155.82 23.1182 L1156.07 21.4786 Q1156.07 20.9867 1155.87 20.7408 Q1155.7 20.4539 1154.72 20.2489 Q1153.77 20.044 1151.89 20.044 Q1151.11 20.044 1150.74 20.003 Q1150.41 19.962 1150.13 19.757 Q1149.84 19.5111 1149.84 19.0192 Q1149.84 18.3224 1150.13 17.9535 Q1150.45 17.5436 1150.7 17.4616 Q1150.95 17.3797 1151.44 17.3387 Q1152.14 17.2977 1154.47 17.0927 Q1156.81 16.8468 1158.82 16.6828 Q1160.83 16.5189 1161.69 16.5189 Q1162.18 16.5189 1162.42 16.7648 Q1162.71 16.9698 1162.75 17.2157 L1162.79 17.4207 L1154.06 52.8354 Q1157.67 51.4008 1163.37 45.0474 Q1169.97 37.6694 1175.62 37.6694 Q1178.29 37.6694 1179.8 39.3089 Q1181.32 40.9075 1181.32 42.957 Z" fill="#000000" fill-rule="evenodd" fill-opacity="1" /><path clip-path="url(#clip390)" d="M1211.54 70.2138 Q1211.54 71.8205 1210.74 72.6813 Q1209.94 73.5134 1208.84 73.5134 Q1207.96 73.5134 1207.47 72.9969 Q1207.01 72.4805 1207.01 71.7919 Q1207.01 70.7876 1207.81 69.9842 Q1208.64 69.1808 1209.85 69.1521 Q1209.45 68.0905 1208.39 67.4593 Q1207.32 66.7994 1206.38 66.6272 Q1205.46 66.455 1204.54 66.455 Q1202.73 66.455 1201.36 67.0289 Q1199.98 67.6027 1199.29 68.4922 Q1198.6 69.353 1198.29 70.1851 Q1197.97 71.0172 1197.97 71.7345 Q1197.97 72.3657 1198.11 72.8822 Q1198.29 73.3699 1198.69 73.7429 Q1199.09 74.0873 1199.38 74.3168 Q1199.69 74.5463 1200.38 74.7472 Q1201.07 74.948 1201.36 75.0341 Q1201.64 75.0915 1202.45 75.2636 Q1204.11 75.608 1204.86 75.8088 Q1205.6 75.981 1206.58 76.4687 Q1207.58 76.9565 1208.33 77.7312 Q1210.14 79.5388 1210.14 82.0351 Q1210.14 82.9532 1209.82 84.0722 Q1209.53 85.1912 1208.7 86.5972 Q1207.87 88.0031 1206.61 89.1221 Q1205.34 90.2411 1203.16 91.0158 Q1201.01 91.7905 1198.31 91.7905 Q1194.56 91.7905 1192.23 90.2124 Q1189.91 88.6057 1189.91 86.0807 Q1189.91 84.2444 1190.91 83.2402 Q1191.92 82.2072 1193.21 82.2072 Q1194.18 82.2072 1194.79 82.7524 Q1195.39 83.2689 1195.39 84.2444 Q1195.39 85.5642 1194.33 86.5685 Q1193.26 87.5727 1191.69 87.3719 Q1193.04 90.4707 1198.37 90.4707 Q1200.38 90.4707 1201.93 89.9542 Q1203.51 89.409 1204.37 88.663 Q1205.26 87.8883 1205.83 86.9415 Q1206.41 85.9946 1206.58 85.2773 Q1206.78 84.56 1206.78 84.0149 Q1206.78 83.068 1206.41 82.3507 Q1206.03 81.6334 1205.52 81.2317 Q1205.03 80.8013 1204.08 80.457 Q1203.16 80.084 1202.5 79.9405 Q1201.84 79.7971 1200.67 79.5675 Q1200.12 79.4527 1199.78 79.3954 Q1199.43 79.3093 1198.72 79.0797 Q1198.03 78.8215 1197.54 78.5633 Q1197.08 78.305 1196.48 77.846 Q1195.88 77.3869 1195.5 76.8417 Q1195.13 76.2966 1194.87 75.4932 Q1194.61 74.6898 1194.61 73.7429 Q1194.61 72.8822 1194.87 71.8492 Q1195.16 70.8163 1195.88 69.6112 Q1196.62 68.4061 1197.68 67.4306 Q1198.74 66.455 1200.52 65.8238 Q1202.33 65.1639 1204.54 65.1639 Q1207.75 65.1639 1209.65 66.6559 Q1211.54 68.1192 1211.54 70.2138 Z" fill="#000000" fill-rule="evenodd" fill-opacity="1" /><path clip-path="url(#clip390)" d="M1243.58 62.017 Q1243.67 60.9923 1245.27 60.9923 L1296.71 60.9923 Q1299.13 60.9923 1299.17 61.935 Q1299.17 62.9597 1296.87 62.9188 L1245.84 62.9188 Q1243.58 62.9597 1243.58 62.017 M1243.58 45.6213 Q1243.58 44.5965 1245.35 44.6375 L1296.62 44.6375 Q1299.13 44.6375 1299.17 45.6213 Q1299.17 46.564 1297.03 46.564 L1245.27 46.564 Q1243.58 46.564 1243.58 45.6213 Z" fill="#000000" fill-rule="evenodd" fill-opacity="1" /><path clip-path="url(#clip390)" d="M1331.54 47.9167 Q1331.54 35.5789 1334.66 28.8567 Q1339 18.8553 1349.25 18.8553 Q1351.42 18.8553 1353.68 19.4701 Q1355.97 20.044 1358.84 22.2984 Q1361.75 24.5528 1363.52 28.2418 Q1366.88 35.374 1366.88 47.9167 Q1366.88 60.1725 1363.76 66.8537 Q1359.21 76.6092 1349.17 76.6092 Q1345.4 76.6092 1341.55 74.6827 Q1337.73 72.7562 1335.32 68.1244 Q1331.54 61.1972 1331.54 47.9167 M1338.51 46.8919 Q1338.51 59.5576 1339.41 64.5993 Q1340.44 70.0509 1343.23 72.4283 Q1346.05 74.7647 1349.17 74.7647 Q1352.53 74.7647 1355.32 72.2643 Q1358.15 69.723 1359.01 64.2714 Q1359.95 58.9018 1359.91 46.8919 Q1359.91 35.21 1359.09 30.5372 Q1357.98 25.0857 1355.03 22.9132 Q1352.12 20.6998 1349.17 20.6998 Q1348.06 20.6998 1346.87 21.0277 Q1345.73 21.3556 1344.05 22.2984 Q1342.37 23.2411 1341.05 25.5775 Q1339.78 27.9139 1339.17 31.439 Q1338.51 35.9888 1338.51 46.8919 Z" fill="#000000" fill-rule="evenodd" fill-opacity="1" /><path clip-path="url(#clip390)" d="M1376.44 70.9161 L1384.98 70.9161 L1384.98 77.8837 L1378.34 90.8466 L1373.11 90.8466 L1376.44 77.8837 L1376.44 70.9161 Z" fill="#000000" fill-rule="evenodd" fill-opacity="1" /><path clip-path="url(#clip390)" d="M1490.12 25.5151 Q1490.12 27.1957 1488.69 27.1957 Q1484.06 27.3596 1482.17 28.9172 Q1480.33 30.4338 1479.63 33.3851 L1467.91 80.1538 Q1467.5 81.6295 1467.25 81.7934 Q1467 81.9164 1466.55 81.9164 Q1465.98 81.9164 1465.65 81.6295 Q1465.37 81.3425 1464.96 80.3178 L1444.05 30.8847 Q1443.89 30.5568 1443.68 30.1059 Q1443.48 29.655 1443.31 29.3681 L1432.2 73.6775 Q1431.88 74.9482 1431.88 75.604 Q1431.88 77.2026 1432.98 78.2273 Q1434.13 79.2111 1437.41 79.3341 Q1439.09 79.3341 1439.09 80.2358 Q1439.09 81.9164 1437.57 81.9164 Q1436.18 81.9164 1433.27 81.7934 Q1430.36 81.6704 1428.93 81.6704 Q1427.53 81.6704 1424.7 81.7934 Q1421.88 81.9164 1420.52 81.9164 Q1419.46 81.9164 1419.46 80.9736 Q1419.46 80.2358 1419.74 79.8669 Q1420.03 79.457 1420.28 79.416 Q1420.52 79.3341 1420.89 79.3341 Q1423.35 79.2521 1425.03 78.7602 Q1426.71 78.2683 1427.66 77.3256 Q1428.64 76.3828 1429.09 75.4401 Q1429.58 74.4563 1429.95 73.0217 L1441.18 27.9335 Q1441.18 27.1957 1435.48 27.1957 Q1434.5 27.1957 1434.09 27.1547 Q1433.72 27.1137 1433.43 26.9088 Q1433.15 26.7038 1433.15 26.2529 Q1433.15 25.1052 1433.64 24.8593 Q1434.13 24.5724 1435.57 24.5724 L1446.84 24.5724 Q1448.27 24.5724 1448.64 24.8183 Q1449.01 25.0233 1449.5 26.171 L1468.07 69.9885 L1477.46 32.6473 Q1477.7 31.9095 1477.7 30.8847 Q1477.7 29.2452 1476.47 28.2614 Q1475.28 27.2367 1472.01 27.1957 Q1470.49 27.1957 1470.49 26.2529 Q1470.49 25.4741 1470.78 25.1052 Q1471.1 24.6953 1471.35 24.6544 Q1471.64 24.5724 1472.01 24.5724 Q1473.4 24.5724 1476.27 24.6953 Q1479.14 24.8183 1480.57 24.8183 Q1481.97 24.8183 1484.79 24.6953 Q1487.66 24.5724 1489.06 24.5724 Q1489.55 24.5724 1489.79 24.8183 Q1490.08 25.0233 1490.12 25.2692 L1490.12 25.5151 Z" fill="#000000" fill-rule="evenodd" fill-opacity="1" /><path clip-path="url(#clip390)" d="M1509.49 69.1687 Q1509.57 68.144 1511.17 68.144 L1562.61 68.144 Q1565.03 68.144 1565.07 69.0867 Q1565.07 70.1115 1562.77 70.0705 L1511.74 70.0705 Q1509.49 70.1115 1509.49 69.1687 M1509.49 52.773 Q1509.49 51.7483 1511.25 51.7893 L1562.53 51.7893 Q1565.03 51.7893 1565.07 52.773 Q1565.07 53.7158 1562.94 53.7158 L1511.17 53.7158 Q1509.49 53.7158 1509.49 52.773 Z" fill="#000000" fill-rule="evenodd" fill-opacity="1" /><path clip-path="url(#clip390)" d="M1597.45 33.9999 L1597.45 31.3766 Q1607.53 31.3766 1612.74 26.007 Q1614.17 26.007 1614.42 26.3349 Q1614.66 26.6628 1614.66 28.1794 L1614.66 75.2761 Q1614.66 77.7765 1615.89 78.5553 Q1617.12 79.3341 1622.49 79.3341 L1625.16 79.3341 L1625.16 81.9164 Q1622.21 81.6704 1611.55 81.6704 Q1600.89 81.6704 1597.98 81.9164 L1597.98 79.3341 L1600.64 79.3341 Q1605.93 79.3341 1607.2 78.5962 Q1608.47 77.8174 1608.47 75.2761 L1608.47 31.7865 Q1604.09 33.9999 1597.45 33.9999 Z" fill="#000000" fill-rule="evenodd" fill-opacity="1" /><path clip-path="url(#clip390)" d="M1629.24 55.0684 Q1629.24 42.7306 1632.36 36.0084 Q1636.7 26.007 1646.95 26.007 Q1649.12 26.007 1651.38 26.6218 Q1653.67 27.1957 1656.54 29.4501 Q1659.45 31.7045 1661.22 35.3935 Q1664.58 42.5257 1664.58 55.0684 Q1664.58 67.3242 1661.46 74.0054 Q1656.91 83.7609 1646.87 83.7609 Q1643.1 83.7609 1639.25 81.8344 Q1635.43 79.9079 1633.01 75.2761 Q1629.24 68.3489 1629.24 55.0684 M1636.21 54.0437 Q1636.21 66.7094 1637.11 71.751 Q1638.14 77.2026 1640.93 79.58 Q1643.75 81.9164 1646.87 81.9164 Q1650.23 81.9164 1653.02 79.416 Q1655.85 76.8747 1656.71 71.4231 Q1657.65 66.0535 1657.61 54.0437 Q1657.61 42.3617 1656.79 37.6889 Q1655.68 32.2374 1652.73 30.0649 Q1649.82 27.8515 1646.87 27.8515 Q1645.76 27.8515 1644.57 28.1794 Q1643.43 28.5073 1641.75 29.4501 Q1640.07 30.3929 1638.75 32.7292 Q1637.48 35.0656 1636.87 38.5907 Q1636.21 43.1405 1636.21 54.0437 Z" fill="#000000" fill-rule="evenodd" fill-opacity="1" /><path clip-path="url(#clip390)" d="M1671.15 55.0684 Q1671.15 42.7306 1674.27 36.0084 Q1678.61 26.007 1688.86 26.007 Q1691.03 26.007 1693.28 26.6218 Q1695.58 27.1957 1698.45 29.4501 Q1701.36 31.7045 1703.12 35.3935 Q1706.48 42.5257 1706.48 55.0684 Q1706.48 67.3242 1703.37 74.0054 Q1698.82 83.7609 1688.78 83.7609 Q1685 83.7609 1681.15 81.8344 Q1677.34 79.9079 1674.92 75.2761 Q1671.15 68.3489 1671.15 55.0684 M1678.12 54.0437 Q1678.12 66.7094 1679.02 71.751 Q1680.04 77.2026 1682.83 79.58 Q1685.66 81.9164 1688.78 81.9164 Q1692.14 81.9164 1694.92 79.416 Q1697.75 76.8747 1698.61 71.4231 Q1699.56 66.0535 1699.51 54.0437 Q1699.51 42.3617 1698.7 37.6889 Q1697.59 32.2374 1694.64 30.0649 Q1691.73 27.8515 1688.78 27.8515 Q1687.67 27.8515 1686.48 28.1794 Q1685.33 28.5073 1683.65 29.4501 Q1681.97 30.3929 1680.66 32.7292 Q1679.39 35.0656 1678.77 38.5907 Q1678.12 43.1405 1678.12 54.0437 Z" fill="#000000" fill-rule="evenodd" fill-opacity="1" /><polyline clip-path="url(#clip393)" style="stroke:#009af9; stroke-linecap:round; stroke-linejoin:round; stroke-width:4; stroke-opacity:1; fill:none" points="247.59,160.256 248.005,160.781 248.421,162.351 248.837,164.946 249.253,168.538 249.669,173.087 250.085,178.54 250.5,184.836 250.916,191.906 251.748,208.049 252.579,226.274 253.411,245.821 254.243,265.91 255.074,285.784 255.906,304.752 256.738,322.222 257.569,337.733 258.401,350.971 259.233,361.782 259.649,366.272 260.064,370.167 260.48,373.489 260.896,376.27 261.857,380.842 262.819,383.305 263.78,384.338 264.741,384.654 265.702,384.93 266.664,385.748 267.625,387.543 268.586,390.58 269.547,394.939 270.509,400.526 271.47,407.099 272.431,414.306 274.353,428.965 276.276,441.371 277.237,446.047 278.198,449.57 279.16,451.996 280.121,453.492 282.043,454.773 283.966,455.887 285.888,459.008 287.811,465.108 289.733,473.664 291.656,483.031 293.578,491.266 295.501,497.015 297.423,500.072 299.346,501.383 301.268,502.547 303.191,505.065 305.113,509.678 307.036,516.095 308.958,523.191 310.881,529.564 312.803,534.185 314.725,536.841 316.648,538.183 318.57,539.388 320.493,541.605 322.415,545.433 326.26,556.519 330.105,565.809 333.95,569.601 337.795,572.877 339.718,576.222 341.64,580.745 343.563,585.772 345.485,590.408 347.408,593.958 349.33,596.232 351.253,597.62 353.175,598.884 357.02,603.822 360.865,612.312 364.71,619.722 368.555,623.294 372.4,626.417 376.245,632.851 380.09,640.714 383.935,645.831 402.42,669.367 420.905,691.73 439.391,713.23 457.876,734.079 489.134,769.692 520.392,802.763 554.347,836.26 588.302,868.137 619.606,895.575 650.909,922.083 684.47,949.752 718.031,976.153 756.914,1005.07 795.798,1032.78 830.353,1055.39 864.908,1076.71 895.209,1093.86 925.511,1110.63 958.548,1128.06 991.585,1144.47 1024.82,1159.93 1058.05,1174.4 1094.79,1189.2 1131.54,1202.93 1166.5,1215.3 1201.46,1226.92 1274.16,1248.77 1335.36,1265.81 1410.08,1283.46 1478.52,1298.21 1541.74,1310.58 1605.77,1320.88 1677.54,1331.2 1742.57,1337.78 1779.8,1340.81 1817.03,1343.01 1851.5,1343.31 1885.97,1341.57 1894.46,1339.94 1902.96,1339.3 1911.45,1336.94 1919.95,1335.25 1922.07,1336.12 1924.2,1335.95 1926.32,1334.18 1928.45,1331.06 1930.57,1327.67 1932.69,1325.42 1934.82,1325.25 1936.94,1326.93 1939.07,1328.77 1941.19,1328.12 1942.25,1325.99 1943.31,1322.29 1944.38,1316.88 1945.44,1309.76 1946.5,1301.06 1947.56,1291.07 1948.62,1280.18 1949.68,1268.9 1950.75,1257.76 1951.81,1247.32 1952.87,1238.1 1953.93,1230.49 1954.96,1224.95 1955.99,1221.34 1957.03,1219.67 1958.06,1219.78 1959.09,1221.41 1960.12,1224.2 1961.15,1227.73 1962.18,1231.58 1964.24,1238.65 1966.31,1243.02 1968.37,1243.85 1970.43,1241.9 1972.49,1238.95 1974.55,1236.83 1976.62,1236.67 1978.68,1238.49 1980.74,1241.35 1982.8,1243.9 1984.87,1245.1 1986.93,1244.64 1991.05,1241.29 1995.18,1240.75 1999.3,1243.95 2003.43,1245.35 2007.55,1243.1 2011.67,1241.64 2015.8,1243.41 2019.92,1245 2036.83,1243.94 2053.75,1242.28 2070.66,1240.04 2087.57,1237.25 2124.63,1229.88 2161.69,1219.61 2215.52,1200.68 2269.35,1177.77 2280.4,1173.16 2291.44,1167.13 "/>
<polyline clip-path="url(#clip393)" style="stroke:#e26f46; stroke-linecap:round; stroke-linejoin:round; stroke-width:4; stroke-opacity:1; fill:none" points="247.59,160.256 248.421,161.885 249.253,166.701 250.085,174.493 250.916,184.922 251.748,197.546 252.579,211.838 253.411,227.223 254.243,243.107 255.074,258.91 255.906,274.099 256.738,288.215 257.569,300.891 258.401,311.874 259.233,321.025 259.649,324.904 260.064,328.326 260.48,331.306 260.896,333.865 261.857,338.323 262.819,341.092 263.78,342.673 264.741,343.6 266.664,345.497 268.586,349.948 270.509,358.225 272.431,369.586 274.353,381.926 276.276,392.859 278.198,400.751 280.121,405.327 282.043,407.635 283.966,409.472 285.888,412.557 287.811,417.817 289.733,425.073 291.656,433.232 293.578,440.84 295.501,446.746 297.423,450.585 299.346,452.877 301.268,454.738 303.191,457.351 305.113,461.451 307.036,467.028 308.958,473.392 310.881,479.513 312.803,484.506 314.725,488.009 318.57,492.215 322.415,498.099 337.795,527.721 353.175,556.036 368.555,582.784 383.935,607.767 402.42,635.597 420.905,662.382 439.391,688.315 457.876,713.527 489.134,756.017 520.392,795.402 554.347,836.137 588.302,874.694 619.606,908.021 650.909,940.177 684.47,972.483 718.031,1002.63 756.914,1034.37 795.798,1063.94 830.353,1088.13 864.908,1110.51 895.209,1128.92 925.511,1146.28 958.548,1163.59 991.585,1179.6 1024.82,1194.58 1058.05,1208.55 1094.79,1223.11 1131.54,1236.6 1166.5,1248.39 1201.46,1259.34 1274.16,1279.68 1335.36,1294.02 1410.08,1309.56 1478.52,1321.54 1541.74,1331.39 1605.77,1340.65 1677.54,1350.02 1742.57,1357.75 1779.8,1362.07 1817.03,1365.82 1851.5,1368.6 1885.97,1370.06 1902.96,1369.77 1919.95,1368.03 1924.2,1366.64 1928.45,1363.2 1932.69,1361.72 1936.94,1362.57 1939.07,1361.71 1941.19,1358.48 1943.31,1352.35 1945.44,1343.67 1947.56,1333.75 1949.68,1324.53 1950.75,1320.78 1951.81,1317.89 1952.87,1315.99 1953.93,1315.15 1955.99,1316.45 1958.06,1320.9 1960.12,1327.03 1962.18,1333.19 1964.24,1338.06 1966.31,1341 1968.37,1342.13 1970.43,1342.17 1974.55,1342.44 1978.68,1345.69 1982.8,1349.61 1986.93,1351.02 2003.43,1355.48 2019.92,1357.37 2036.83,1357.36 2053.75,1355.71 2070.66,1352.6 2087.57,1348.16 2106.1,1342.11 2124.63,1334.69 2143.16,1326.01 2161.69,1316.17 2188.6,1299.43 2215.52,1282.06 2242.44,1261.99 2269.35,1242 2274.87,1237.17 2280.4,1232.85 2285.92,1228.91 2291.44,1224.08 "/>
<polyline clip-path="url(#clip393)" style="stroke:#3da44d; stroke-linecap:round; stroke-linejoin:round; stroke-width:4; stroke-opacity:1; fill:none" points="247.59,160.256 249.253,163.021 250.916,170.87 252.579,182.566 254.243,196.348 255.906,210.315 257.569,222.808 258.401,228.129 259.233,232.723 260.064,236.564 260.896,239.672 262.819,244.442 264.741,246.985 266.664,248.946 268.586,251.705 270.509,255.956 272.431,261.589 274.353,267.877 276.276,273.86 278.198,278.771 280.121,282.322 282.043,284.771 283.966,286.758 285.888,289.011 287.811,292.043 289.733,295.96 291.656,300.465 307.036,324.927 322.415,348.804 353.175,395.429 383.935,439.362 420.905,490.823 457.876,540.752 489.134,581.347 520.392,620.177 554.347,660.759 588.302,699.2 619.606,732.92 650.909,764.584 684.47,796.585 718.031,826.879 756.914,860.351 795.798,891.828 830.353,918.283 864.908,943.409 895.209,964.226 925.511,984.327 958.548,1005.23 991.585,1025.04 1024.82,1043.87 1058.05,1061.71 1094.79,1080.49 1131.54,1098.24 1166.5,1114.18 1201.46,1129.28 1274.16,1158.2 1335.36,1179.95 1410.08,1203.96 1478.52,1223.89 1541.74,1240.76 1605.77,1255.83 1677.54,1270.76 1742.57,1282.76 1817.03,1295.45 1885.97,1308.97 1902.96,1312.81 1919.95,1316.81 1924.2,1316.59 1928.45,1317.5 1932.69,1319.8 1936.94,1320.54 1941.19,1318.16 1945.44,1316.58 1947.56,1318.05 1949.68,1321.56 1951.81,1326.86 1953.93,1333.22 1955.99,1339.5 1958.06,1345.05 1960.12,1349.34 1962.18,1352.25 1966.31,1355.28 1970.43,1357.76 1978.68,1364.86 1986.93,1368.75 2003.43,1376.11 2019.92,1381.16 2036.83,1384.46 2053.75,1386.14 2070.66,1386.4 2087.57,1385.34 2106.1,1382.76 2124.63,1378.85 2143.16,1373.72 2161.69,1367.48 2188.6,1356.79 2215.52,1343.95 2242.44,1329.88 2269.35,1314.23 2274.87,1311.06 2280.4,1307.67 2285.92,1304.17 2291.44,1300.87 "/>
<polyline clip-path="url(#clip393)" style="stroke:#c271d2; stroke-linecap:round; stroke-linejoin:round; stroke-width:4; stroke-opacity:1; fill:none" points="247.59,160.256 260.896,187.6 383.935,274.951 457.876,325.681 520.392,367.211 588.302,410.438 650.909,448.193 718.031,487.168 795.798,530.607 864.908,567.431 925.511,598.488 991.585,630.836 1058.05,662.176 1131.54,695.314 1201.46,725.496 1274.16,755.506 1335.36,779.772 1410.08,808.134 1478.52,832.807 1541.74,854.825 1605.77,876.378 1677.54,899.558 1742.57,919.221 1779.8,929.902 1817.03,940.391 1851.5,950.304 1885.97,960.963 1902.96,966.754 1919.95,973.074 1928.45,976.09 1936.94,980.1 1939.07,980.003 1941.19,979.872 1943.31,980.312 1945.44,981.92 1947.56,985.061 1949.68,989.713 1951.81,995.443 1953.93,1001.53 1955.99,1007.02 1958.06,1011.54 1960.12,1014.84 1962.18,1016.99 1966.31,1019.48 1970.43,1022.27 1978.68,1029.89 1986.93,1034.58 2003.43,1044.88 2019.92,1054.05 2053.75,1070.56 2087.57,1085.05 2124.63,1099.21 2161.69,1111.92 2215.52,1127.97 2269.35,1141.16 2280.4,1143.52 2291.44,1145.7 "/>
<polyline clip-path="url(#clip393)" style="stroke:#ac8d18; stroke-linecap:round; stroke-linejoin:round; stroke-width:4; stroke-opacity:1; fill:none" points="1865.64,2722.89 1865.64,-1176.24 "/>
<path clip-path="url(#clip390)" d="M258.49 1379.86 L767.061 1379.86 L767.061 1079.08 L258.49 1079.08  Z" fill="#ffffff" fill-rule="evenodd" fill-opacity="1"/>
<polyline clip-path="url(#clip390)" style="stroke:#000000; stroke-linecap:round; stroke-linejoin:round; stroke-width:4; stroke-opacity:1; fill:none" points="258.49,1379.86 767.061,1379.86 767.061,1079.08 258.49,1079.08 258.49,1379.86 "/>
<polyline clip-path="url(#clip390)" style="stroke:#009af9; stroke-linecap:round; stroke-linejoin:round; stroke-width:4; stroke-opacity:1; fill:none" points="282.562,1139.24 426.994,1139.24 "/>
<path clip-path="url(#clip390)" d="M473.716 1131.41 Q473.716 1134.88 471.936 1138.13 Q470.179 1141.39 467.415 1143.35 Q464.675 1145.32 461.911 1145.32 Q458.796 1145.32 457.179 1142.09 Q454.252 1153.82 454.088 1154.13 Q453.408 1155.14 452.425 1155.14 Q451.816 1155.14 451.441 1154.76 Q451.066 1154.41 451.066 1153.85 Q451.09 1153.66 451.23 1153.08 L455.915 1134.22 Q456.992 1129.84 460.248 1126.73 Q463.527 1123.59 467.04 1123.59 Q469.828 1123.59 471.772 1125.67 Q473.716 1127.76 473.716 1131.41 M470.273 1129.35 Q470.273 1127.01 469.336 1125.83 Q468.399 1124.64 466.947 1124.64 Q465.612 1124.64 463.995 1125.72 Q462.403 1126.8 460.997 1129.18 Q460.248 1130.57 459.709 1132.28 Q459.17 1133.99 458.116 1138.2 Q457.742 1139.89 457.742 1139.98 Q457.742 1140.17 457.835 1140.59 Q457.952 1141.01 458.234 1141.67 Q458.538 1142.3 458.96 1142.86 Q459.381 1143.43 460.154 1143.85 Q460.927 1144.25 461.864 1144.25 Q463.316 1144.25 464.862 1143.07 Q466.431 1141.88 467.579 1139.7 Q468.539 1137.94 469.406 1134.64 Q470.273 1131.32 470.273 1129.35 Z" fill="#000000" fill-rule="evenodd" fill-opacity="1" /><path clip-path="url(#clip390)" d="M501.644 1168.64 Q501.644 1168.95 501.513 1169.12 Q501.398 1169.26 501.283 1169.3 Q501.185 1169.31 501.037 1169.31 Q500.611 1169.31 499.136 1169.26 Q497.66 1169.22 497.234 1169.22 Q496.545 1169.22 495.135 1169.26 Q493.725 1169.31 493.036 1169.31 Q492.577 1169.31 492.577 1168.94 Q492.577 1168.69 492.626 1168.56 Q492.676 1168.41 492.807 1168.36 Q492.954 1168.3 493.036 1168.3 Q493.135 1168.28 493.381 1168.28 Q493.709 1168.28 494.053 1168.25 Q494.397 1168.2 494.823 1168.1 Q495.25 1168 495.512 1167.76 Q495.791 1167.51 495.791 1167.17 Q495.791 1167.02 495.676 1165.81 Q495.561 1164.59 495.414 1163.18 Q495.266 1161.76 495.25 1161.56 L486.822 1161.56 Q486.052 1162.89 485.511 1163.8 Q484.97 1164.72 484.773 1165.03 Q484.576 1165.35 484.461 1165.54 Q484.347 1165.74 484.281 1165.85 Q483.806 1166.72 483.806 1167.1 Q483.806 1168.15 485.38 1168.28 Q485.921 1168.28 485.921 1168.67 Q485.921 1168.97 485.789 1169.13 Q485.658 1169.28 485.543 1169.3 Q485.445 1169.31 485.281 1169.31 Q484.74 1169.31 483.609 1169.26 Q482.477 1169.22 481.92 1169.22 Q481.445 1169.22 480.461 1169.26 Q479.477 1169.31 479.034 1169.31 Q478.838 1169.31 478.723 1169.2 Q478.608 1169.08 478.608 1168.94 Q478.608 1168.71 478.641 1168.58 Q478.69 1168.44 478.821 1168.38 Q478.952 1168.31 479.018 1168.31 Q479.084 1168.3 479.313 1168.28 Q480.559 1168.2 481.527 1167.61 Q482.51 1167 483.445 1165.44 L495.119 1145.84 Q495.233 1145.64 495.315 1145.54 Q495.397 1145.44 495.561 1145.36 Q495.742 1145.28 496.004 1145.28 Q496.414 1145.28 496.496 1145.41 Q496.578 1145.52 496.627 1146.08 L498.676 1167.07 Q498.726 1167.51 498.758 1167.69 Q498.808 1167.85 499.021 1168.03 Q499.25 1168.2 499.66 1168.25 Q500.086 1168.28 500.873 1168.28 Q501.169 1168.28 501.283 1168.3 Q501.398 1168.3 501.513 1168.38 Q501.644 1168.46 501.644 1168.64 M495.151 1160.51 L494.086 1149.44 L487.462 1160.51 L495.151 1160.51 Z" fill="#000000" fill-rule="evenodd" fill-opacity="1" /><path clip-path="url(#clip390)" d="M506.533 1132.79 Q506.533 1124.69 509.554 1118.15 Q510.843 1115.41 512.646 1113.12 Q514.45 1110.82 515.644 1109.81 Q516.839 1108.81 517.167 1108.81 Q517.635 1108.81 517.658 1109.28 Q517.658 1109.51 517.026 1110.1 Q509.297 1117.97 509.32 1132.79 Q509.32 1147.66 516.839 1155.23 Q517.658 1156.05 517.658 1156.31 Q517.658 1156.78 517.167 1156.78 Q516.839 1156.78 515.691 1155.82 Q514.543 1154.86 512.763 1152.65 Q510.983 1150.45 509.695 1147.76 Q506.533 1141.22 506.533 1132.79 Z" fill="#000000" fill-rule="evenodd" fill-opacity="1" /><path clip-path="url(#clip390)" d="M543.781 1126.61 Q543.781 1127.94 542.961 1128.74 Q542.165 1129.54 541.158 1129.54 Q540.268 1129.54 539.799 1129.02 Q539.331 1128.51 539.331 1127.85 Q539.331 1127.57 539.448 1127.22 Q539.565 1126.84 539.823 1126.4 Q540.104 1125.95 540.689 1125.62 Q541.275 1125.3 542.071 1125.25 Q541.907 1125.09 541.86 1125.06 Q541.509 1124.78 540.853 1124.69 Q540.759 1124.64 540.432 1124.64 Q538.815 1124.64 537.176 1125.83 Q535.56 1127.01 533.569 1129.23 Q531.063 1131.83 529.446 1132.79 Q536.543 1133.73 536.543 1137.83 Q536.543 1138.51 536.356 1139.33 Q535.981 1140.87 535.981 1142 Q535.981 1144.25 537.504 1144.25 Q538.979 1144.25 539.916 1142.75 Q540.877 1141.25 541.673 1138.32 Q541.79 1137.78 541.907 1137.62 Q542.024 1137.45 542.352 1137.45 Q542.938 1137.45 542.938 1137.92 Q542.399 1140.66 541.204 1142.77 Q539.682 1145.32 537.41 1145.32 Q535.513 1145.32 534.248 1144.01 Q533.007 1142.68 533.007 1140.57 Q533.007 1140.05 533.194 1138.88 Q533.335 1138.41 533.335 1137.87 Q533.335 1136.77 532.726 1135.95 Q532.117 1135.11 531.133 1134.69 Q530.149 1134.27 529.329 1134.08 Q528.533 1133.87 527.76 1133.8 Q525.418 1143.71 525.09 1144.32 Q524.879 1144.74 524.411 1145.02 Q523.942 1145.32 523.45 1145.32 Q522.982 1145.32 522.513 1144.99 Q522.068 1144.69 522.068 1143.96 Q522.068 1143.59 522.256 1142.91 L529.212 1115.27 L529.353 1114.33 Q529.353 1114.05 529.236 1113.91 Q529.142 1113.75 528.58 1113.63 Q528.041 1113.51 526.964 1113.51 Q526.519 1113.51 526.308 1113.49 Q526.12 1113.47 525.956 1113.35 Q525.792 1113.21 525.792 1112.93 Q525.792 1112.53 525.956 1112.32 Q526.144 1112.09 526.284 1112.04 Q526.425 1111.99 526.706 1111.97 Q527.104 1111.95 528.439 1111.83 Q529.774 1111.69 530.922 1111.59 Q532.07 1111.5 532.562 1111.5 Q532.843 1111.5 532.983 1111.64 Q533.147 1111.76 533.171 1111.9 L533.194 1112.02 L528.205 1132.25 Q530.266 1131.43 533.522 1127.8 Q537.293 1123.59 540.525 1123.59 Q542.048 1123.59 542.914 1124.52 Q543.781 1125.44 543.781 1126.61 Z" fill="#000000" fill-rule="evenodd" fill-opacity="1" /><path clip-path="url(#clip390)" d="M560.12 1137.5 Q560.167 1136.91 561.081 1136.91 L590.476 1136.91 Q591.858 1136.91 591.881 1137.45 Q591.881 1138.04 590.57 1138.01 L561.409 1138.01 Q560.12 1138.04 560.12 1137.5 M560.12 1128.13 Q560.12 1127.54 561.128 1127.57 L590.429 1127.57 Q591.858 1127.57 591.881 1128.13 Q591.881 1128.67 590.663 1128.67 L561.081 1128.67 Q560.12 1128.67 560.12 1128.13 Z" fill="#000000" fill-rule="evenodd" fill-opacity="1" /><path clip-path="url(#clip390)" d="M610.372 1129.44 Q610.372 1122.39 612.152 1118.55 Q614.635 1112.84 620.491 1112.84 Q621.732 1112.84 623.02 1113.19 Q624.332 1113.51 625.971 1114.8 Q627.634 1116.09 628.642 1118.2 Q630.562 1122.27 630.562 1129.44 Q630.562 1136.45 628.782 1140.26 Q626.182 1145.84 620.444 1145.84 Q618.289 1145.84 616.087 1144.74 Q613.909 1143.64 612.527 1140.99 Q610.372 1137.03 610.372 1129.44 M614.354 1128.86 Q614.354 1136.09 614.869 1138.97 Q615.455 1142.09 617.047 1143.45 Q618.664 1144.78 620.444 1144.78 Q622.364 1144.78 623.957 1143.35 Q625.573 1141.9 626.065 1138.79 Q626.604 1135.72 626.58 1128.86 Q626.58 1122.18 626.112 1119.51 Q625.48 1116.4 623.793 1115.15 Q622.13 1113.89 620.444 1113.89 Q619.811 1113.89 619.132 1114.08 Q618.476 1114.26 617.516 1114.8 Q616.556 1115.34 615.806 1116.68 Q615.08 1118.01 614.729 1120.03 Q614.354 1122.63 614.354 1128.86 Z" fill="#000000" fill-rule="evenodd" fill-opacity="1" /><path clip-path="url(#clip390)" d="M634.848 1144.01 Q634.122 1143.24 634.122 1142.23 Q634.122 1141.22 634.848 1140.5 Q635.574 1139.75 636.675 1139.75 Q637.729 1139.75 638.432 1140.45 Q639.158 1141.13 639.158 1142.25 Q639.158 1143.35 638.385 1144.08 Q637.635 1144.78 636.675 1144.78 Q635.574 1144.78 634.848 1144.01 Z" fill="#000000" fill-rule="evenodd" fill-opacity="1" /><path clip-path="url(#clip390)" d="M647.319 1129.44 Q647.319 1122.39 649.099 1118.55 Q651.582 1112.84 657.438 1112.84 Q658.679 1112.84 659.967 1113.19 Q661.279 1113.51 662.918 1114.8 Q664.581 1116.09 665.589 1118.2 Q667.509 1122.27 667.509 1129.44 Q667.509 1136.45 665.729 1140.26 Q663.129 1145.84 657.391 1145.84 Q655.236 1145.84 653.034 1144.74 Q650.856 1143.64 649.474 1140.99 Q647.319 1137.03 647.319 1129.44 M651.301 1128.86 Q651.301 1136.09 651.816 1138.97 Q652.402 1142.09 653.994 1143.45 Q655.611 1144.78 657.391 1144.78 Q659.311 1144.78 660.904 1143.35 Q662.52 1141.9 663.012 1138.79 Q663.551 1135.72 663.527 1128.86 Q663.527 1122.18 663.059 1119.51 Q662.427 1116.4 660.74 1115.15 Q659.077 1113.89 657.391 1113.89 Q656.758 1113.89 656.079 1114.08 Q655.423 1114.26 654.463 1114.8 Q653.503 1115.34 652.753 1116.68 Q652.027 1118.01 651.676 1120.03 Q651.301 1122.63 651.301 1128.86 Z" fill="#000000" fill-rule="evenodd" fill-opacity="1" /><path clip-path="url(#clip390)" d="M696.206 1125.25 Q696.206 1126.89 693.864 1126.89 L688.383 1126.89 Q687.54 1130.78 687.54 1134.52 Q687.54 1139 688.922 1142.44 Q689.203 1143.12 689.203 1143.5 Q689.203 1144.2 688.571 1144.76 Q687.962 1145.32 687.236 1145.32 Q686.627 1145.32 686.228 1144.85 Q685.854 1144.39 685.526 1142.91 Q685.127 1141.18 685.127 1139.26 Q685.127 1136.96 685.502 1134.76 Q685.877 1132.53 687.142 1126.89 L681.731 1126.89 L679.038 1137.5 Q678.077 1141.08 677.749 1142.18 Q677.539 1142.84 677.468 1143.05 Q677.398 1143.26 677.187 1143.78 Q677 1144.27 676.859 1144.46 Q676.719 1144.62 676.485 1144.88 Q676.25 1145.16 675.969 1145.23 Q675.688 1145.32 675.337 1145.32 Q674.798 1145.32 674.377 1144.97 Q673.955 1144.64 673.955 1144.01 Q673.955 1143.59 674.33 1142.86 Q678.78 1133.26 680.466 1126.89 L677.749 1126.89 Q674.002 1126.89 671.66 1130.59 Q671.285 1131.08 671.074 1131.13 Q670.98 1131.15 670.887 1131.15 Q670.629 1131.15 670.465 1131.03 Q670.325 1130.92 670.325 1130.8 L670.301 1130.68 Q670.301 1130.54 670.652 1129.91 Q671.027 1129.25 671.73 1128.25 Q672.456 1127.24 673.229 1126.37 Q673.978 1125.58 674.704 1125.09 Q675.454 1124.57 676.157 1124.38 Q676.859 1124.2 677.258 1124.15 Q677.656 1124.1 678.218 1124.1 L694.286 1124.1 Q694.895 1124.1 695.223 1124.15 Q695.55 1124.17 695.878 1124.45 Q696.206 1124.71 696.206 1125.25 Z" fill="#000000" fill-rule="evenodd" fill-opacity="1" /><path clip-path="url(#clip390)" d="M700.632 1156.31 Q700.632 1156.07 701.241 1155.49 Q708.97 1147.62 708.97 1132.79 Q708.97 1117.92 701.545 1110.4 Q700.632 1109.53 700.632 1109.28 Q700.632 1108.81 701.1 1108.81 Q701.428 1108.81 702.576 1109.77 Q703.747 1110.73 705.504 1112.93 Q707.284 1115.13 708.595 1117.82 Q711.757 1124.36 711.757 1132.79 Q711.757 1140.9 708.736 1147.43 Q707.448 1150.17 705.644 1152.47 Q703.841 1154.76 702.646 1155.77 Q701.452 1156.78 701.1 1156.78 Q700.632 1156.78 700.632 1156.31 Z" fill="#000000" fill-rule="evenodd" fill-opacity="1" /><polyline clip-path="url(#clip390)" style="stroke:#e26f46; stroke-linecap:round; stroke-linejoin:round; stroke-width:4; stroke-opacity:1; fill:none" points="282.562,1199.39 426.994,1199.39 "/>
<path clip-path="url(#clip390)" d="M473.716 1191.56 Q473.716 1195.03 471.936 1198.29 Q470.179 1201.54 467.415 1203.51 Q464.675 1205.48 461.911 1205.48 Q458.796 1205.48 457.179 1202.25 Q454.252 1213.98 454.088 1214.28 Q453.408 1215.29 452.425 1215.29 Q451.816 1215.29 451.441 1214.92 Q451.066 1214.57 451.066 1214 Q451.09 1213.82 451.23 1213.23 L455.915 1194.38 Q456.992 1190 460.248 1186.88 Q463.527 1183.74 467.04 1183.74 Q469.828 1183.74 471.772 1185.83 Q473.716 1187.91 473.716 1191.56 M470.273 1189.5 Q470.273 1187.16 469.336 1185.99 Q468.399 1184.8 466.947 1184.8 Q465.612 1184.8 463.995 1185.87 Q462.403 1186.95 460.997 1189.34 Q460.248 1190.72 459.709 1192.43 Q459.17 1194.14 458.116 1198.36 Q457.742 1200.04 457.742 1200.14 Q457.742 1200.32 457.835 1200.75 Q457.952 1201.17 458.234 1201.82 Q458.538 1202.46 458.96 1203.02 Q459.381 1203.58 460.154 1204 Q460.927 1204.4 461.864 1204.4 Q463.316 1204.4 464.862 1203.23 Q466.431 1202.03 467.579 1199.86 Q468.539 1198.1 469.406 1194.8 Q470.273 1191.47 470.273 1189.5 Z" fill="#000000" fill-rule="evenodd" fill-opacity="1" /><path clip-path="url(#clip390)" d="M501.644 1228.8 Q501.644 1229.11 501.513 1229.27 Q501.398 1229.42 501.283 1229.45 Q501.185 1229.47 501.037 1229.47 Q500.611 1229.47 499.136 1229.42 Q497.66 1229.37 497.234 1229.37 Q496.545 1229.37 495.135 1229.42 Q493.725 1229.47 493.036 1229.47 Q492.577 1229.47 492.577 1229.09 Q492.577 1228.85 492.626 1228.71 Q492.676 1228.57 492.807 1228.52 Q492.954 1228.45 493.036 1228.45 Q493.135 1228.44 493.381 1228.44 Q493.709 1228.44 494.053 1228.4 Q494.397 1228.35 494.823 1228.26 Q495.25 1228.16 495.512 1227.91 Q495.791 1227.67 495.791 1227.32 Q495.791 1227.17 495.676 1225.96 Q495.561 1224.75 495.414 1223.34 Q495.266 1221.91 495.25 1221.71 L486.822 1221.71 Q486.052 1223.04 485.511 1223.96 Q484.97 1224.88 484.773 1225.19 Q484.576 1225.5 484.461 1225.7 Q484.347 1225.89 484.281 1226.01 Q483.806 1226.88 483.806 1227.26 Q483.806 1228.3 485.38 1228.44 Q485.921 1228.44 485.921 1228.83 Q485.921 1229.12 485.789 1229.29 Q485.658 1229.44 485.543 1229.45 Q485.445 1229.47 485.281 1229.47 Q484.74 1229.47 483.609 1229.42 Q482.477 1229.37 481.92 1229.37 Q481.445 1229.37 480.461 1229.42 Q479.477 1229.47 479.034 1229.47 Q478.838 1229.47 478.723 1229.35 Q478.608 1229.24 478.608 1229.09 Q478.608 1228.86 478.641 1228.73 Q478.69 1228.6 478.821 1228.53 Q478.952 1228.47 479.018 1228.47 Q479.084 1228.45 479.313 1228.44 Q480.559 1228.35 481.527 1227.76 Q482.51 1227.16 483.445 1225.6 L495.119 1205.99 Q495.233 1205.79 495.315 1205.69 Q495.397 1205.6 495.561 1205.51 Q495.742 1205.43 496.004 1205.43 Q496.414 1205.43 496.496 1205.56 Q496.578 1205.68 496.627 1206.24 L498.676 1227.22 Q498.726 1227.67 498.758 1227.85 Q498.808 1228.01 499.021 1228.19 Q499.25 1228.35 499.66 1228.4 Q500.086 1228.44 500.873 1228.44 Q501.169 1228.44 501.283 1228.45 Q501.398 1228.45 501.513 1228.53 Q501.644 1228.62 501.644 1228.8 M495.151 1220.66 L494.086 1209.6 L487.462 1220.66 L495.151 1220.66 Z" fill="#000000" fill-rule="evenodd" fill-opacity="1" /><path clip-path="url(#clip390)" d="M506.533 1192.95 Q506.533 1184.84 509.554 1178.31 Q510.843 1175.57 512.646 1173.27 Q514.45 1170.98 515.644 1169.97 Q516.839 1168.96 517.167 1168.96 Q517.635 1168.96 517.658 1169.43 Q517.658 1169.66 517.026 1170.25 Q509.297 1178.12 509.32 1192.95 Q509.32 1207.82 516.839 1215.39 Q517.658 1216.2 517.658 1216.46 Q517.658 1216.93 517.167 1216.93 Q516.839 1216.93 515.691 1215.97 Q514.543 1215.01 512.763 1212.81 Q510.983 1210.61 509.695 1207.91 Q506.533 1201.38 506.533 1192.95 Z" fill="#000000" fill-rule="evenodd" fill-opacity="1" /><path clip-path="url(#clip390)" d="M543.781 1186.76 Q543.781 1188.1 542.961 1188.89 Q542.165 1189.69 541.158 1189.69 Q540.268 1189.69 539.799 1189.18 Q539.331 1188.66 539.331 1188 Q539.331 1187.72 539.448 1187.37 Q539.565 1187 539.823 1186.55 Q540.104 1186.11 540.689 1185.78 Q541.275 1185.45 542.071 1185.4 Q541.907 1185.24 541.86 1185.22 Q541.509 1184.94 540.853 1184.84 Q540.759 1184.8 540.432 1184.8 Q538.815 1184.8 537.176 1185.99 Q535.56 1187.16 533.569 1189.39 Q531.063 1191.99 529.446 1192.95 Q536.543 1193.88 536.543 1197.98 Q536.543 1198.66 536.356 1199.48 Q535.981 1201.03 535.981 1202.15 Q535.981 1204.4 537.504 1204.4 Q538.979 1204.4 539.916 1202.9 Q540.877 1201.4 541.673 1198.47 Q541.79 1197.94 541.907 1197.77 Q542.024 1197.61 542.352 1197.61 Q542.938 1197.61 542.938 1198.08 Q542.399 1200.82 541.204 1202.92 Q539.682 1205.48 537.41 1205.48 Q535.513 1205.48 534.248 1204.17 Q533.007 1202.83 533.007 1200.72 Q533.007 1200.21 533.194 1199.04 Q533.335 1198.57 533.335 1198.03 Q533.335 1196.93 532.726 1196.11 Q532.117 1195.27 531.133 1194.84 Q530.149 1194.42 529.329 1194.23 Q528.533 1194.02 527.76 1193.95 Q525.418 1203.86 525.09 1204.47 Q524.879 1204.89 524.411 1205.17 Q523.942 1205.48 523.45 1205.48 Q522.982 1205.48 522.513 1205.15 Q522.068 1204.85 522.068 1204.12 Q522.068 1203.74 522.256 1203.06 L529.212 1175.43 L529.353 1174.49 Q529.353 1174.21 529.236 1174.07 Q529.142 1173.9 528.58 1173.79 Q528.041 1173.67 526.964 1173.67 Q526.519 1173.67 526.308 1173.65 Q526.12 1173.62 525.956 1173.51 Q525.792 1173.37 525.792 1173.08 Q525.792 1172.69 525.956 1172.48 Q526.144 1172.24 526.284 1172.19 Q526.425 1172.15 526.706 1172.12 Q527.104 1172.1 528.439 1171.98 Q529.774 1171.84 530.922 1171.75 Q532.07 1171.66 532.562 1171.66 Q532.843 1171.66 532.983 1171.8 Q533.147 1171.91 533.171 1172.05 L533.194 1172.17 L528.205 1192.41 Q530.266 1191.59 533.522 1187.96 Q537.293 1183.74 540.525 1183.74 Q542.048 1183.74 542.914 1184.68 Q543.781 1185.59 543.781 1186.76 Z" fill="#000000" fill-rule="evenodd" fill-opacity="1" /><path clip-path="url(#clip390)" d="M560.12 1197.65 Q560.167 1197.07 561.081 1197.07 L590.476 1197.07 Q591.858 1197.07 591.881 1197.61 Q591.881 1198.19 590.57 1198.17 L561.409 1198.17 Q560.12 1198.19 560.12 1197.65 M560.12 1188.29 Q560.12 1187.7 561.128 1187.72 L590.429 1187.72 Q591.858 1187.72 591.881 1188.29 Q591.881 1188.82 590.663 1188.82 L561.081 1188.82 Q560.12 1188.82 560.12 1188.29 Z" fill="#000000" fill-rule="evenodd" fill-opacity="1" /><path clip-path="url(#clip390)" d="M610.372 1189.6 Q610.372 1182.55 612.152 1178.71 Q614.635 1172.99 620.491 1172.99 Q621.732 1172.99 623.02 1173.34 Q624.332 1173.67 625.971 1174.96 Q627.634 1176.25 628.642 1178.35 Q630.562 1182.43 630.562 1189.6 Q630.562 1196.6 628.782 1200.42 Q626.182 1205.99 620.444 1205.99 Q618.289 1205.99 616.087 1204.89 Q613.909 1203.79 612.527 1201.14 Q610.372 1197.19 610.372 1189.6 M614.354 1189.01 Q614.354 1196.25 614.869 1199.13 Q615.455 1202.25 617.047 1203.6 Q618.664 1204.94 620.444 1204.94 Q622.364 1204.94 623.957 1203.51 Q625.573 1202.06 626.065 1198.94 Q626.604 1195.87 626.58 1189.01 Q626.58 1182.34 626.112 1179.67 Q625.48 1176.55 623.793 1175.31 Q622.13 1174.04 620.444 1174.04 Q619.811 1174.04 619.132 1174.23 Q618.476 1174.42 617.516 1174.96 Q616.556 1175.5 615.806 1176.83 Q615.08 1178.17 614.729 1180.18 Q614.354 1182.78 614.354 1189.01 Z" fill="#000000" fill-rule="evenodd" fill-opacity="1" /><path clip-path="url(#clip390)" d="M634.848 1204.17 Q634.122 1203.39 634.122 1202.39 Q634.122 1201.38 634.848 1200.65 Q635.574 1199.9 636.675 1199.9 Q637.729 1199.9 638.432 1200.61 Q639.158 1201.28 639.158 1202.41 Q639.158 1203.51 638.385 1204.24 Q637.635 1204.94 636.675 1204.94 Q635.574 1204.94 634.848 1204.17 Z" fill="#000000" fill-rule="evenodd" fill-opacity="1" /><path clip-path="url(#clip390)" d="M647.319 1198.47 Q647.319 1197.05 648.139 1196.37 Q648.959 1195.69 650.013 1195.69 Q651.114 1195.69 651.886 1196.41 Q652.683 1197.12 652.683 1198.36 Q652.683 1199.69 651.746 1200.44 Q650.832 1201.19 649.521 1201 Q650.668 1202.92 652.777 1203.79 Q654.908 1204.66 656.875 1204.66 Q658.937 1204.66 660.6 1202.88 Q662.286 1201.1 662.286 1196.74 Q662.286 1193.04 660.834 1190.91 Q659.405 1188.78 656.571 1188.78 L654.463 1188.78 Q653.737 1188.78 653.526 1188.71 Q653.315 1188.64 653.315 1188.24 Q653.315 1187.77 654.041 1187.68 Q654.767 1187.68 655.915 1187.54 Q658.702 1187.44 660.178 1185.03 Q661.513 1182.78 661.513 1179.57 Q661.513 1176.64 660.108 1175.43 Q658.726 1174.19 656.922 1174.19 Q655.236 1174.19 653.385 1174.89 Q651.535 1175.59 650.528 1177.16 Q653.503 1177.16 653.503 1179.57 Q653.503 1180.63 652.823 1181.33 Q652.168 1182.01 651.067 1182.01 Q650.013 1182.01 649.31 1181.35 Q648.607 1180.67 648.607 1179.53 Q648.607 1176.78 651.043 1174.89 Q653.503 1172.99 657.11 1172.99 Q660.67 1172.99 663.293 1174.86 Q665.94 1176.74 665.94 1179.62 Q665.94 1182.45 664.066 1184.77 Q662.192 1187.09 659.218 1188.05 Q662.872 1188.78 665.05 1191.26 Q667.228 1193.72 667.228 1196.74 Q667.228 1200.49 664.277 1203.25 Q661.326 1205.99 657.016 1205.99 Q653.034 1205.99 650.177 1203.84 Q647.319 1201.68 647.319 1198.47 Z" fill="#000000" fill-rule="evenodd" fill-opacity="1" /><path clip-path="url(#clip390)" d="M671.261 1198.47 Q671.261 1197.05 672.081 1196.37 Q672.901 1195.69 673.955 1195.69 Q675.056 1195.69 675.828 1196.41 Q676.625 1197.12 676.625 1198.36 Q676.625 1199.69 675.688 1200.44 Q674.774 1201.19 673.463 1201 Q674.61 1202.92 676.719 1203.79 Q678.85 1204.66 680.817 1204.66 Q682.879 1204.66 684.542 1202.88 Q686.228 1201.1 686.228 1196.74 Q686.228 1193.04 684.776 1190.91 Q683.347 1188.78 680.513 1188.78 L678.405 1188.78 Q677.679 1188.78 677.468 1188.71 Q677.257 1188.64 677.257 1188.24 Q677.257 1187.77 677.983 1187.68 Q678.709 1187.68 679.857 1187.54 Q682.644 1187.44 684.12 1185.03 Q685.455 1182.78 685.455 1179.57 Q685.455 1176.64 684.05 1175.43 Q682.668 1174.19 680.864 1174.19 Q679.178 1174.19 677.327 1174.89 Q675.477 1175.59 674.47 1177.16 Q677.445 1177.16 677.445 1179.57 Q677.445 1180.63 676.765 1181.33 Q676.11 1182.01 675.009 1182.01 Q673.955 1182.01 673.252 1181.35 Q672.549 1180.67 672.549 1179.53 Q672.549 1176.78 674.985 1174.89 Q677.445 1172.99 681.052 1172.99 Q684.612 1172.99 687.235 1174.86 Q689.882 1176.74 689.882 1179.62 Q689.882 1182.45 688.008 1184.77 Q686.134 1187.09 683.16 1188.05 Q686.814 1188.78 688.992 1191.26 Q691.17 1193.72 691.17 1196.74 Q691.17 1200.49 688.219 1203.25 Q685.268 1205.99 680.958 1205.99 Q676.976 1205.99 674.119 1203.84 Q671.261 1201.68 671.261 1198.47 Z" fill="#000000" fill-rule="evenodd" fill-opacity="1" /><path clip-path="url(#clip390)" d="M720.148 1185.4 Q720.148 1187.04 717.806 1187.04 L712.325 1187.04 Q711.482 1190.93 711.482 1194.68 Q711.482 1199.15 712.864 1202.6 Q713.145 1203.28 713.145 1203.65 Q713.145 1204.35 712.513 1204.92 Q711.904 1205.48 711.178 1205.48 Q710.569 1205.48 710.17 1205.01 Q709.796 1204.54 709.468 1203.06 Q709.069 1201.33 709.069 1199.41 Q709.069 1197.12 709.444 1194.91 Q709.819 1192.69 711.084 1187.04 L705.673 1187.04 L702.98 1197.65 Q702.019 1201.24 701.691 1202.34 Q701.481 1202.99 701.41 1203.21 Q701.34 1203.42 701.129 1203.93 Q700.942 1204.42 700.801 1204.61 Q700.661 1204.77 700.427 1205.03 Q700.192 1205.31 699.911 1205.38 Q699.63 1205.48 699.279 1205.48 Q698.74 1205.48 698.319 1205.13 Q697.897 1204.8 697.897 1204.17 Q697.897 1203.74 698.272 1203.02 Q702.722 1193.41 704.408 1187.04 L701.691 1187.04 Q697.944 1187.04 695.602 1190.74 Q695.227 1191.24 695.016 1191.28 Q694.922 1191.31 694.829 1191.31 Q694.571 1191.31 694.407 1191.19 Q694.267 1191.07 694.267 1190.96 L694.243 1190.84 Q694.243 1190.7 694.594 1190.07 Q694.969 1189.41 695.672 1188.4 Q696.398 1187.4 697.171 1186.53 Q697.92 1185.73 698.646 1185.24 Q699.396 1184.73 700.099 1184.54 Q700.801 1184.35 701.2 1184.3 Q701.598 1184.26 702.16 1184.26 L718.228 1184.26 Q718.837 1184.26 719.165 1184.3 Q719.492 1184.33 719.82 1184.61 Q720.148 1184.87 720.148 1185.4 Z" fill="#000000" fill-rule="evenodd" fill-opacity="1" /><path clip-path="url(#clip390)" d="M724.574 1216.46 Q724.574 1216.23 725.183 1215.64 Q732.912 1207.77 732.912 1192.95 Q732.912 1178.07 725.487 1170.55 Q724.574 1169.69 724.574 1169.43 Q724.574 1168.96 725.042 1168.96 Q725.37 1168.96 726.518 1169.92 Q727.689 1170.88 729.446 1173.08 Q731.226 1175.29 732.537 1177.98 Q735.699 1184.51 735.699 1192.95 Q735.699 1201.05 732.678 1207.59 Q731.39 1210.33 729.586 1212.62 Q727.783 1214.92 726.588 1215.92 Q725.394 1216.93 725.042 1216.93 Q724.574 1216.93 724.574 1216.46 Z" fill="#000000" fill-rule="evenodd" fill-opacity="1" /><polyline clip-path="url(#clip390)" style="stroke:#3da44d; stroke-linecap:round; stroke-linejoin:round; stroke-width:4; stroke-opacity:1; fill:none" points="282.562,1259.55 426.994,1259.55 "/>
<path clip-path="url(#clip390)" d="M473.716 1251.72 Q473.716 1255.19 471.936 1258.44 Q470.179 1261.7 467.415 1263.66 Q464.675 1265.63 461.911 1265.63 Q458.796 1265.63 457.179 1262.4 Q454.252 1274.13 454.088 1274.44 Q453.408 1275.45 452.425 1275.45 Q451.816 1275.45 451.441 1275.07 Q451.066 1274.72 451.066 1274.16 Q451.09 1273.97 451.23 1273.39 L455.915 1254.53 Q456.992 1250.15 460.248 1247.04 Q463.527 1243.9 467.04 1243.9 Q469.828 1243.9 471.772 1245.98 Q473.716 1248.07 473.716 1251.72 M470.273 1249.66 Q470.273 1247.32 469.336 1246.14 Q468.399 1244.95 466.947 1244.95 Q465.612 1244.95 463.995 1246.03 Q462.403 1247.11 460.997 1249.49 Q460.248 1250.88 459.709 1252.59 Q459.17 1254.3 458.116 1258.51 Q457.742 1260.2 457.742 1260.29 Q457.742 1260.48 457.835 1260.9 Q457.952 1261.32 458.234 1261.98 Q458.538 1262.61 458.96 1263.17 Q459.381 1263.74 460.154 1264.16 Q460.927 1264.56 461.864 1264.56 Q463.316 1264.56 464.862 1263.38 Q466.431 1262.19 467.579 1260.01 Q468.539 1258.25 469.406 1254.95 Q470.273 1251.63 470.273 1249.66 Z" fill="#000000" fill-rule="evenodd" fill-opacity="1" /><path clip-path="url(#clip390)" d="M501.644 1288.95 Q501.644 1289.26 501.513 1289.43 Q501.398 1289.57 501.283 1289.61 Q501.185 1289.62 501.037 1289.62 Q500.611 1289.62 499.136 1289.57 Q497.66 1289.53 497.234 1289.53 Q496.545 1289.53 495.135 1289.57 Q493.725 1289.62 493.036 1289.62 Q492.577 1289.62 492.577 1289.25 Q492.577 1289 492.626 1288.87 Q492.676 1288.72 492.807 1288.67 Q492.954 1288.61 493.036 1288.61 Q493.135 1288.59 493.381 1288.59 Q493.709 1288.59 494.053 1288.56 Q494.397 1288.51 494.823 1288.41 Q495.25 1288.31 495.512 1288.07 Q495.791 1287.82 495.791 1287.48 Q495.791 1287.33 495.676 1286.12 Q495.561 1284.9 495.414 1283.49 Q495.266 1282.07 495.25 1281.87 L486.822 1281.87 Q486.052 1283.2 485.511 1284.11 Q484.97 1285.03 484.773 1285.34 Q484.576 1285.66 484.461 1285.85 Q484.347 1286.05 484.281 1286.16 Q483.806 1287.03 483.806 1287.41 Q483.806 1288.46 485.38 1288.59 Q485.921 1288.59 485.921 1288.98 Q485.921 1289.28 485.789 1289.44 Q485.658 1289.59 485.543 1289.61 Q485.445 1289.62 485.281 1289.62 Q484.74 1289.62 483.609 1289.57 Q482.477 1289.53 481.92 1289.53 Q481.445 1289.53 480.461 1289.57 Q479.477 1289.62 479.034 1289.62 Q478.838 1289.62 478.723 1289.51 Q478.608 1289.39 478.608 1289.25 Q478.608 1289.02 478.641 1288.89 Q478.69 1288.75 478.821 1288.69 Q478.952 1288.62 479.018 1288.62 Q479.084 1288.61 479.313 1288.59 Q480.559 1288.51 481.527 1287.92 Q482.51 1287.31 483.445 1285.75 L495.119 1266.15 Q495.233 1265.95 495.315 1265.85 Q495.397 1265.75 495.561 1265.67 Q495.742 1265.59 496.004 1265.59 Q496.414 1265.59 496.496 1265.72 Q496.578 1265.83 496.627 1266.39 L498.676 1287.38 Q498.726 1287.82 498.758 1288 Q498.808 1288.16 499.021 1288.34 Q499.25 1288.51 499.66 1288.56 Q500.086 1288.59 500.873 1288.59 Q501.169 1288.59 501.283 1288.61 Q501.398 1288.61 501.513 1288.69 Q501.644 1288.77 501.644 1288.95 M495.151 1280.82 L494.086 1269.75 L487.462 1280.82 L495.151 1280.82 Z" fill="#000000" fill-rule="evenodd" fill-opacity="1" /><path clip-path="url(#clip390)" d="M506.533 1253.1 Q506.533 1245 509.554 1238.46 Q510.843 1235.72 512.646 1233.43 Q514.45 1231.13 515.644 1230.12 Q516.839 1229.12 517.167 1229.12 Q517.635 1229.12 517.658 1229.59 Q517.658 1229.82 517.026 1230.41 Q509.297 1238.28 509.32 1253.1 Q509.32 1267.97 516.839 1275.54 Q517.658 1276.36 517.658 1276.62 Q517.658 1277.09 517.167 1277.09 Q516.839 1277.09 515.691 1276.13 Q514.543 1275.17 512.763 1272.96 Q510.983 1270.76 509.695 1268.07 Q506.533 1261.53 506.533 1253.1 Z" fill="#000000" fill-rule="evenodd" fill-opacity="1" /><path clip-path="url(#clip390)" d="M543.781 1246.92 Q543.781 1248.25 542.961 1249.05 Q542.165 1249.85 541.158 1249.85 Q540.268 1249.85 539.799 1249.33 Q539.331 1248.82 539.331 1248.16 Q539.331 1247.88 539.448 1247.53 Q539.565 1247.15 539.823 1246.71 Q540.104 1246.26 540.689 1245.93 Q541.275 1245.61 542.071 1245.56 Q541.907 1245.4 541.86 1245.37 Q541.509 1245.09 540.853 1245 Q540.759 1244.95 540.432 1244.95 Q538.815 1244.95 537.176 1246.14 Q535.56 1247.32 533.569 1249.54 Q531.063 1252.14 529.446 1253.1 Q536.543 1254.04 536.543 1258.14 Q536.543 1258.82 536.356 1259.64 Q535.981 1261.18 535.981 1262.31 Q535.981 1264.56 537.504 1264.56 Q538.979 1264.56 539.916 1263.06 Q540.877 1261.56 541.673 1258.63 Q541.79 1258.09 541.907 1257.93 Q542.024 1257.76 542.352 1257.76 Q542.938 1257.76 542.938 1258.23 Q542.399 1260.97 541.204 1263.08 Q539.682 1265.63 537.41 1265.63 Q535.513 1265.63 534.248 1264.32 Q533.007 1262.99 533.007 1260.88 Q533.007 1260.36 533.194 1259.19 Q533.335 1258.72 533.335 1258.18 Q533.335 1257.08 532.726 1256.26 Q532.117 1255.42 531.133 1255 Q530.149 1254.58 529.329 1254.39 Q528.533 1254.18 527.76 1254.11 Q525.418 1264.02 525.09 1264.63 Q524.879 1265.05 524.411 1265.33 Q523.942 1265.63 523.45 1265.63 Q522.982 1265.63 522.513 1265.3 Q522.068 1265 522.068 1264.27 Q522.068 1263.9 522.256 1263.22 L529.212 1235.58 L529.353 1234.64 Q529.353 1234.36 529.236 1234.22 Q529.142 1234.06 528.58 1233.94 Q528.041 1233.82 526.964 1233.82 Q526.519 1233.82 526.308 1233.8 Q526.12 1233.78 525.956 1233.66 Q525.792 1233.52 525.792 1233.24 Q525.792 1232.84 525.956 1232.63 Q526.144 1232.4 526.284 1232.35 Q526.425 1232.3 526.706 1232.28 Q527.104 1232.26 528.439 1232.14 Q529.774 1232 530.922 1231.9 Q532.07 1231.81 532.562 1231.81 Q532.843 1231.81 532.983 1231.95 Q533.147 1232.07 533.171 1232.21 L533.194 1232.33 L528.205 1252.56 Q530.266 1251.74 533.522 1248.11 Q537.293 1243.9 540.525 1243.9 Q542.048 1243.9 542.914 1244.83 Q543.781 1245.75 543.781 1246.92 Z" fill="#000000" fill-rule="evenodd" fill-opacity="1" /><path clip-path="url(#clip390)" d="M560.12 1257.81 Q560.167 1257.22 561.081 1257.22 L590.476 1257.22 Q591.858 1257.22 591.881 1257.76 Q591.881 1258.35 590.57 1258.32 L561.409 1258.32 Q560.12 1258.35 560.12 1257.81 M560.12 1248.44 Q560.12 1247.85 561.128 1247.88 L590.429 1247.88 Q591.858 1247.88 591.881 1248.44 Q591.881 1248.98 590.663 1248.98 L561.081 1248.98 Q560.12 1248.98 560.12 1248.44 Z" fill="#000000" fill-rule="evenodd" fill-opacity="1" /><path clip-path="url(#clip390)" d="M610.372 1249.75 Q610.372 1242.7 612.152 1238.86 Q614.635 1233.15 620.491 1233.15 Q621.732 1233.15 623.02 1233.5 Q624.332 1233.82 625.971 1235.11 Q627.634 1236.4 628.642 1238.51 Q630.562 1242.58 630.562 1249.75 Q630.562 1256.76 628.782 1260.57 Q626.182 1266.15 620.444 1266.15 Q618.289 1266.15 616.087 1265.05 Q613.909 1263.95 612.527 1261.3 Q610.372 1257.34 610.372 1249.75 M614.354 1249.17 Q614.354 1256.4 614.869 1259.28 Q615.455 1262.4 617.047 1263.76 Q618.664 1265.09 620.444 1265.09 Q622.364 1265.09 623.957 1263.66 Q625.573 1262.21 626.065 1259.1 Q626.604 1256.03 626.58 1249.17 Q626.58 1242.49 626.112 1239.82 Q625.48 1236.71 623.793 1235.46 Q622.13 1234.2 620.444 1234.2 Q619.811 1234.2 619.132 1234.39 Q618.476 1234.57 617.516 1235.11 Q616.556 1235.65 615.806 1236.99 Q615.08 1238.32 614.729 1240.34 Q614.354 1242.94 614.354 1249.17 Z" fill="#000000" fill-rule="evenodd" fill-opacity="1" /><path clip-path="url(#clip390)" d="M634.848 1264.32 Q634.122 1263.55 634.122 1262.54 Q634.122 1261.53 634.848 1260.81 Q635.574 1260.06 636.675 1260.06 Q637.729 1260.06 638.432 1260.76 Q639.158 1261.44 639.158 1262.56 Q639.158 1263.66 638.385 1264.39 Q637.635 1265.09 636.675 1265.09 Q635.574 1265.09 634.848 1264.32 Z" fill="#000000" fill-rule="evenodd" fill-opacity="1" /><path clip-path="url(#clip390)" d="M647.319 1249.94 Q647.319 1242.4 651.16 1237.78 Q655.002 1233.15 659.944 1233.15 Q662.825 1233.15 664.417 1234.62 Q666.034 1236.07 666.034 1238.32 Q666.034 1239.56 665.308 1240.1 Q664.581 1240.64 663.832 1240.64 Q662.965 1240.64 662.286 1240.06 Q661.607 1239.47 661.607 1238.42 Q661.607 1236.26 664.254 1236.26 Q663.012 1234.34 660.037 1234.34 Q659.124 1234.34 658.187 1234.62 Q657.25 1234.88 656.032 1235.77 Q654.814 1236.66 653.877 1238.06 Q652.94 1239.47 652.285 1242.12 Q651.629 1244.76 651.629 1248.21 L651.629 1249.35 Q653.596 1244.6 657.625 1244.62 Q661.654 1244.62 664.441 1247.69 Q667.228 1250.76 667.228 1255.3 Q667.228 1259.96 664.324 1263.06 Q661.419 1266.15 657.344 1266.15 Q655.517 1266.15 653.854 1265.37 Q652.214 1264.63 650.668 1262.89 Q649.146 1261.16 648.233 1257.83 Q647.319 1254.51 647.319 1249.94 M651.722 1254.25 Q651.722 1258.96 652.589 1261.21 Q652.73 1261.58 653.034 1262.1 Q653.362 1262.61 653.901 1263.29 Q654.463 1263.95 655.376 1264.39 Q656.29 1264.81 657.344 1264.81 Q660.553 1264.81 662.099 1261.7 Q662.918 1259.96 662.918 1255.26 Q662.918 1250.45 662.052 1248.7 Q660.576 1245.72 657.578 1245.72 Q655.564 1245.72 654.158 1247.11 Q652.777 1248.49 652.238 1250.34 Q651.722 1252.19 651.722 1254.25 Z" fill="#000000" fill-rule="evenodd" fill-opacity="1" /><path clip-path="url(#clip390)" d="M670.221 1242.54 L671.79 1232.68 L672.985 1232.68 Q673.125 1233.26 673.36 1233.52 Q673.617 1233.78 674.976 1233.99 Q676.358 1234.2 679.145 1234.2 L690.786 1234.2 Q690.786 1235.3 690.364 1235.89 L683.876 1245 Q681.815 1247.88 680.902 1253.2 Q680.363 1256.76 680.386 1261.07 L680.386 1263.5 Q680.386 1266.15 678.161 1266.15 Q675.96 1266.15 675.96 1263.5 Q675.96 1254.34 681.862 1245.47 Q682.494 1244.55 684.813 1241.3 Q687.156 1238.04 687.249 1237.9 L677.318 1237.9 Q672.962 1237.9 672.61 1238.18 Q672.142 1238.6 671.416 1242.54 L670.221 1242.54 Z" fill="#000000" fill-rule="evenodd" fill-opacity="1" /><path clip-path="url(#clip390)" d="M718.148 1245.56 Q718.148 1247.2 715.806 1247.2 L710.325 1247.2 Q709.482 1251.09 709.482 1254.83 Q709.482 1259.31 710.864 1262.75 Q711.145 1263.43 711.145 1263.81 Q711.145 1264.51 710.513 1265.07 Q709.904 1265.63 709.178 1265.63 Q708.569 1265.63 708.17 1265.16 Q707.796 1264.7 707.468 1263.22 Q707.069 1261.49 707.069 1259.57 Q707.069 1257.27 707.444 1255.07 Q707.819 1252.84 709.084 1247.2 L703.673 1247.2 L700.98 1257.81 Q700.019 1261.39 699.691 1262.49 Q699.481 1263.15 699.41 1263.36 Q699.34 1263.57 699.129 1264.09 Q698.942 1264.58 698.801 1264.77 Q698.661 1264.93 698.427 1265.19 Q698.192 1265.47 697.911 1265.54 Q697.63 1265.63 697.279 1265.63 Q696.74 1265.63 696.319 1265.28 Q695.897 1264.95 695.897 1264.32 Q695.897 1263.9 696.272 1263.17 Q700.722 1253.57 702.408 1247.2 L699.691 1247.2 Q695.944 1247.2 693.602 1250.9 Q693.227 1251.39 693.016 1251.44 Q692.922 1251.46 692.829 1251.46 Q692.571 1251.46 692.407 1251.34 Q692.267 1251.23 692.267 1251.11 L692.243 1250.99 Q692.243 1250.85 692.594 1250.22 Q692.969 1249.56 693.672 1248.56 Q694.398 1247.55 695.171 1246.68 Q695.92 1245.89 696.646 1245.4 Q697.396 1244.88 698.099 1244.69 Q698.801 1244.51 699.2 1244.46 Q699.598 1244.41 700.16 1244.41 L716.228 1244.41 Q716.837 1244.41 717.165 1244.46 Q717.492 1244.48 717.82 1244.76 Q718.148 1245.02 718.148 1245.56 Z" fill="#000000" fill-rule="evenodd" fill-opacity="1" /><path clip-path="url(#clip390)" d="M722.574 1276.62 Q722.574 1276.38 723.183 1275.8 Q730.912 1267.93 730.912 1253.1 Q730.912 1238.23 723.487 1230.71 Q722.574 1229.84 722.574 1229.59 Q722.574 1229.12 723.042 1229.12 Q723.37 1229.12 724.518 1230.08 Q725.689 1231.04 727.446 1233.24 Q729.226 1235.44 730.537 1238.13 Q733.699 1244.67 733.699 1253.1 Q733.699 1261.21 730.678 1267.74 Q729.39 1270.48 727.586 1272.78 Q725.783 1275.07 724.588 1276.08 Q723.394 1277.09 723.042 1277.09 Q722.574 1277.09 722.574 1276.62 Z" fill="#000000" fill-rule="evenodd" fill-opacity="1" /><polyline clip-path="url(#clip390)" style="stroke:#c271d2; stroke-linecap:round; stroke-linejoin:round; stroke-width:4; stroke-opacity:1; fill:none" points="282.562,1319.7 426.994,1319.7 "/>
<path clip-path="url(#clip390)" d="M473.716 1311.87 Q473.716 1315.34 471.936 1318.6 Q470.179 1321.85 467.415 1323.82 Q464.675 1325.79 461.911 1325.79 Q458.796 1325.79 457.179 1322.56 Q454.252 1334.29 454.088 1334.59 Q453.408 1335.6 452.425 1335.6 Q451.816 1335.6 451.441 1335.23 Q451.066 1334.88 451.066 1334.31 Q451.09 1334.13 451.23 1333.54 L455.915 1314.69 Q456.992 1310.31 460.248 1307.19 Q463.527 1304.05 467.04 1304.05 Q469.828 1304.05 471.772 1306.14 Q473.716 1308.22 473.716 1311.87 M470.273 1309.81 Q470.273 1307.47 469.336 1306.3 Q468.399 1305.11 466.947 1305.11 Q465.612 1305.11 463.995 1306.18 Q462.403 1307.26 460.997 1309.65 Q460.248 1311.03 459.709 1312.74 Q459.17 1314.45 458.116 1318.67 Q457.742 1320.35 457.742 1320.45 Q457.742 1320.63 457.835 1321.06 Q457.952 1321.48 458.234 1322.13 Q458.538 1322.77 458.96 1323.33 Q459.381 1323.89 460.154 1324.31 Q460.927 1324.71 461.864 1324.71 Q463.316 1324.71 464.862 1323.54 Q466.431 1322.34 467.579 1320.17 Q468.539 1318.41 469.406 1315.11 Q470.273 1311.78 470.273 1309.81 Z" fill="#000000" fill-rule="evenodd" fill-opacity="1" /><path clip-path="url(#clip390)" d="M501.644 1349.11 Q501.644 1349.42 501.513 1349.58 Q501.398 1349.73 501.283 1349.76 Q501.185 1349.78 501.037 1349.78 Q500.611 1349.78 499.136 1349.73 Q497.66 1349.68 497.234 1349.68 Q496.545 1349.68 495.135 1349.73 Q493.725 1349.78 493.036 1349.78 Q492.577 1349.78 492.577 1349.4 Q492.577 1349.16 492.626 1349.02 Q492.676 1348.88 492.807 1348.83 Q492.954 1348.76 493.036 1348.76 Q493.135 1348.75 493.381 1348.75 Q493.709 1348.75 494.053 1348.71 Q494.397 1348.66 494.823 1348.57 Q495.25 1348.47 495.512 1348.22 Q495.791 1347.98 495.791 1347.63 Q495.791 1347.48 495.676 1346.27 Q495.561 1345.06 495.414 1343.65 Q495.266 1342.22 495.25 1342.02 L486.822 1342.02 Q486.052 1343.35 485.511 1344.27 Q484.97 1345.19 484.773 1345.5 Q484.576 1345.81 484.461 1346.01 Q484.347 1346.2 484.281 1346.32 Q483.806 1347.19 483.806 1347.57 Q483.806 1348.61 485.38 1348.75 Q485.921 1348.75 485.921 1349.14 Q485.921 1349.43 485.789 1349.6 Q485.658 1349.75 485.543 1349.76 Q485.445 1349.78 485.281 1349.78 Q484.74 1349.78 483.609 1349.73 Q482.477 1349.68 481.92 1349.68 Q481.445 1349.68 480.461 1349.73 Q479.477 1349.78 479.034 1349.78 Q478.838 1349.78 478.723 1349.66 Q478.608 1349.55 478.608 1349.4 Q478.608 1349.17 478.641 1349.04 Q478.69 1348.91 478.821 1348.84 Q478.952 1348.78 479.018 1348.78 Q479.084 1348.76 479.313 1348.75 Q480.559 1348.66 481.527 1348.07 Q482.51 1347.47 483.445 1345.91 L495.119 1326.3 Q495.233 1326.1 495.315 1326 Q495.397 1325.91 495.561 1325.82 Q495.742 1325.74 496.004 1325.74 Q496.414 1325.74 496.496 1325.87 Q496.578 1325.99 496.627 1326.55 L498.676 1347.53 Q498.726 1347.98 498.758 1348.16 Q498.808 1348.32 499.021 1348.5 Q499.25 1348.66 499.66 1348.71 Q500.086 1348.75 500.873 1348.75 Q501.169 1348.75 501.283 1348.76 Q501.398 1348.76 501.513 1348.84 Q501.644 1348.93 501.644 1349.11 M495.151 1340.97 L494.086 1329.91 L487.462 1340.97 L495.151 1340.97 Z" fill="#000000" fill-rule="evenodd" fill-opacity="1" /><path clip-path="url(#clip390)" d="M506.533 1313.26 Q506.533 1305.15 509.554 1298.62 Q510.843 1295.88 512.646 1293.58 Q514.45 1291.29 515.644 1290.28 Q516.839 1289.27 517.167 1289.27 Q517.635 1289.27 517.658 1289.74 Q517.658 1289.97 517.026 1290.56 Q509.297 1298.43 509.32 1313.26 Q509.32 1328.13 516.839 1335.7 Q517.658 1336.51 517.658 1336.77 Q517.658 1337.24 517.167 1337.24 Q516.839 1337.24 515.691 1336.28 Q514.543 1335.32 512.763 1333.12 Q510.983 1330.92 509.695 1328.22 Q506.533 1321.69 506.533 1313.26 Z" fill="#000000" fill-rule="evenodd" fill-opacity="1" /><path clip-path="url(#clip390)" d="M543.781 1307.07 Q543.781 1308.41 542.961 1309.2 Q542.165 1310 541.158 1310 Q540.268 1310 539.799 1309.49 Q539.331 1308.97 539.331 1308.31 Q539.331 1308.03 539.448 1307.68 Q539.565 1307.31 539.823 1306.86 Q540.104 1306.42 540.689 1306.09 Q541.275 1305.76 542.071 1305.71 Q541.907 1305.55 541.86 1305.53 Q541.509 1305.25 540.853 1305.15 Q540.759 1305.11 540.432 1305.11 Q538.815 1305.11 537.176 1306.3 Q535.56 1307.47 533.569 1309.7 Q531.063 1312.3 529.446 1313.26 Q536.543 1314.19 536.543 1318.29 Q536.543 1318.97 536.356 1319.79 Q535.981 1321.34 535.981 1322.46 Q535.981 1324.71 537.504 1324.71 Q538.979 1324.71 539.916 1323.21 Q540.877 1321.71 541.673 1318.78 Q541.79 1318.25 541.907 1318.08 Q542.024 1317.92 542.352 1317.92 Q542.938 1317.92 542.938 1318.39 Q542.399 1321.13 541.204 1323.23 Q539.682 1325.79 537.41 1325.79 Q535.513 1325.79 534.248 1324.48 Q533.007 1323.14 533.007 1321.03 Q533.007 1320.52 533.194 1319.35 Q533.335 1318.88 533.335 1318.34 Q533.335 1317.24 532.726 1316.42 Q532.117 1315.58 531.133 1315.15 Q530.149 1314.73 529.329 1314.54 Q528.533 1314.33 527.76 1314.26 Q525.418 1324.17 525.09 1324.78 Q524.879 1325.2 524.411 1325.48 Q523.942 1325.79 523.45 1325.79 Q522.982 1325.79 522.513 1325.46 Q522.068 1325.16 522.068 1324.43 Q522.068 1324.05 522.256 1323.37 L529.212 1295.74 L529.353 1294.8 Q529.353 1294.52 529.236 1294.38 Q529.142 1294.21 528.58 1294.1 Q528.041 1293.98 526.964 1293.98 Q526.519 1293.98 526.308 1293.96 Q526.12 1293.93 525.956 1293.82 Q525.792 1293.68 525.792 1293.39 Q525.792 1293 525.956 1292.79 Q526.144 1292.55 526.284 1292.5 Q526.425 1292.46 526.706 1292.43 Q527.104 1292.41 528.439 1292.29 Q529.774 1292.15 530.922 1292.06 Q532.07 1291.97 532.562 1291.97 Q532.843 1291.97 532.983 1292.11 Q533.147 1292.22 533.171 1292.36 L533.194 1292.48 L528.205 1312.72 Q530.266 1311.9 533.522 1308.27 Q537.293 1304.05 540.525 1304.05 Q542.048 1304.05 542.914 1304.99 Q543.781 1305.9 543.781 1307.07 Z" fill="#000000" fill-rule="evenodd" fill-opacity="1" /><path clip-path="url(#clip390)" d="M560.12 1317.96 Q560.167 1317.38 561.081 1317.38 L590.476 1317.38 Q591.858 1317.38 591.881 1317.92 Q591.881 1318.5 590.57 1318.48 L561.409 1318.48 Q560.12 1318.5 560.12 1317.96 M560.12 1308.6 Q560.12 1308.01 561.128 1308.03 L590.429 1308.03 Q591.858 1308.03 591.881 1308.6 Q591.881 1309.13 590.663 1309.13 L561.081 1309.13 Q560.12 1309.13 560.12 1308.6 Z" fill="#000000" fill-rule="evenodd" fill-opacity="1" /><path clip-path="url(#clip390)" d="M610.372 1297.87 L610.372 1296.37 Q616.134 1296.37 619.109 1293.3 Q619.928 1293.3 620.069 1293.49 Q620.209 1293.68 620.209 1294.54 L620.209 1321.45 Q620.209 1322.88 620.912 1323.33 Q621.615 1323.77 624.683 1323.77 L626.206 1323.77 L626.206 1325.25 Q624.519 1325.11 618.429 1325.11 Q612.34 1325.11 610.677 1325.25 L610.677 1323.77 L612.199 1323.77 Q615.221 1323.77 615.947 1323.35 Q616.673 1322.91 616.673 1321.45 L616.673 1296.6 Q614.166 1297.87 610.372 1297.87 Z" fill="#000000" fill-rule="evenodd" fill-opacity="1" /><path clip-path="url(#clip390)" d="M629.973 1324.48 Q629.247 1323.7 629.247 1322.7 Q629.247 1321.69 629.973 1320.96 Q630.699 1320.21 631.8 1320.21 Q632.854 1320.21 633.557 1320.92 Q634.283 1321.59 634.283 1322.72 Q634.283 1323.82 633.51 1324.55 Q632.76 1325.25 631.8 1325.25 Q630.699 1325.25 629.973 1324.48 Z" fill="#000000" fill-rule="evenodd" fill-opacity="1" /><path clip-path="url(#clip390)" d="M642.444 1309.91 Q642.444 1302.86 644.224 1299.02 Q646.707 1293.3 652.563 1293.3 Q653.804 1293.3 655.092 1293.65 Q656.404 1293.98 658.043 1295.27 Q659.706 1296.56 660.714 1298.66 Q662.634 1302.74 662.634 1309.91 Q662.634 1316.91 660.854 1320.73 Q658.254 1326.3 652.516 1326.3 Q650.361 1326.3 648.159 1325.2 Q645.981 1324.1 644.599 1321.45 Q642.444 1317.5 642.444 1309.91 M646.426 1309.32 Q646.426 1316.56 646.941 1319.44 Q647.527 1322.56 649.119 1323.91 Q650.736 1325.25 652.516 1325.25 Q654.436 1325.25 656.029 1323.82 Q657.645 1322.37 658.137 1319.25 Q658.676 1316.18 658.652 1309.32 Q658.652 1302.65 658.184 1299.98 Q657.552 1296.86 655.865 1295.62 Q654.202 1294.35 652.516 1294.35 Q651.883 1294.35 651.204 1294.54 Q650.548 1294.73 649.588 1295.27 Q648.628 1295.81 647.878 1297.14 Q647.152 1298.48 646.801 1300.49 Q646.426 1303.09 646.426 1309.32 Z" fill="#000000" fill-rule="evenodd" fill-opacity="1" /><path clip-path="url(#clip390)" d="M691.331 1305.71 Q691.331 1307.35 688.989 1307.35 L683.508 1307.35 Q682.665 1311.24 682.665 1314.99 Q682.665 1319.46 684.047 1322.91 Q684.328 1323.59 684.328 1323.96 Q684.328 1324.66 683.696 1325.23 Q683.087 1325.79 682.361 1325.79 Q681.752 1325.79 681.353 1325.32 Q680.979 1324.85 680.651 1323.37 Q680.252 1321.64 680.252 1319.72 Q680.252 1317.43 680.627 1315.22 Q681.002 1313 682.267 1307.35 L676.856 1307.35 L674.163 1317.96 Q673.202 1321.55 672.874 1322.65 Q672.664 1323.3 672.593 1323.52 Q672.523 1323.73 672.312 1324.24 Q672.125 1324.73 671.984 1324.92 Q671.844 1325.08 671.61 1325.34 Q671.375 1325.62 671.094 1325.69 Q670.813 1325.79 670.462 1325.79 Q669.923 1325.79 669.502 1325.44 Q669.08 1325.11 669.08 1324.48 Q669.08 1324.05 669.455 1323.33 Q673.905 1313.72 675.591 1307.35 L672.874 1307.35 Q669.127 1307.35 666.785 1311.05 Q666.41 1311.55 666.199 1311.59 Q666.105 1311.62 666.012 1311.62 Q665.754 1311.62 665.59 1311.5 Q665.45 1311.38 665.45 1311.27 L665.426 1311.15 Q665.426 1311.01 665.777 1310.38 Q666.152 1309.72 666.855 1308.71 Q667.581 1307.71 668.354 1306.84 Q669.103 1306.04 669.829 1305.55 Q670.579 1305.04 671.282 1304.85 Q671.984 1304.66 672.383 1304.61 Q672.781 1304.57 673.343 1304.57 L689.411 1304.57 Q690.02 1304.57 690.348 1304.61 Q690.675 1304.64 691.003 1304.92 Q691.331 1305.18 691.331 1305.71 Z" fill="#000000" fill-rule="evenodd" fill-opacity="1" /><path clip-path="url(#clip390)" d="M695.757 1336.77 Q695.757 1336.54 696.366 1335.95 Q704.095 1328.08 704.095 1313.26 Q704.095 1298.38 696.67 1290.86 Q695.757 1290 695.757 1289.74 Q695.757 1289.27 696.225 1289.27 Q696.553 1289.27 697.701 1290.23 Q698.872 1291.19 700.629 1293.39 Q702.409 1295.6 703.72 1298.29 Q706.882 1304.82 706.882 1313.26 Q706.882 1321.36 703.861 1327.9 Q702.573 1330.64 700.769 1332.93 Q698.966 1335.23 697.771 1336.23 Q696.577 1337.24 696.225 1337.24 Q695.757 1337.24 695.757 1336.77 Z" fill="#000000" fill-rule="evenodd" fill-opacity="1" /></svg>
