<?xml version="1.0" encoding="utf-8"?>
<svg xmlns="http://www.w3.org/2000/svg" xmlns:xlink="http://www.w3.org/1999/xlink" width="600" height="400" viewBox="0 0 2400 1600">
<defs>
  <clipPath id="clip670">
    <rect x="0" y="0" width="2400" height="1600"/>
  </clipPath>
</defs>
<path clip-path="url(#clip670)" d="M0 1600 L2400 1600 L2400 0 L0 0  Z" fill="#ffffff" fill-rule="evenodd" fill-opacity="1"/>
<defs>
  <clipPath id="clip671">
    <rect x="480" y="0" width="1681" height="1600"/>
  </clipPath>
</defs>
<path clip-path="url(#clip670)" d="M175.445 1423.18 L2352.76 1423.18 L2352.76 47.2441 L175.445 47.2441  Z" fill="#ffffff" fill-rule="evenodd" fill-opacity="1"/>
<defs>
  <clipPath id="clip672">
    <rect x="175" y="47" width="2178" height="1377"/>
  </clipPath>
</defs>
<polyline clip-path="url(#clip672)" style="stroke:#000000; stroke-linecap:round; stroke-linejoin:round; stroke-width:2; stroke-opacity:0.1; fill:none" points="235.011,1423.18 235.011,47.2441 "/>
<polyline clip-path="url(#clip672)" style="stroke:#000000; stroke-linecap:round; stroke-linejoin:round; stroke-width:2; stroke-opacity:0.1; fill:none" points="749.042,1423.18 749.042,47.2441 "/>
<polyline clip-path="url(#clip672)" style="stroke:#000000; stroke-linecap:round; stroke-linejoin:round; stroke-width:2; stroke-opacity:0.1; fill:none" points="1263.07,1423.18 1263.07,47.2441 "/>
<polyline clip-path="url(#clip672)" style="stroke:#000000; stroke-linecap:round; stroke-linejoin:round; stroke-width:2; stroke-opacity:0.1; fill:none" points="1777.1,1423.18 1777.1,47.2441 "/>
<polyline clip-path="url(#clip672)" style="stroke:#000000; stroke-linecap:round; stroke-linejoin:round; stroke-width:2; stroke-opacity:0.1; fill:none" points="2291.13,1423.18 2291.13,47.2441 "/>
<polyline clip-path="url(#clip670)" style="stroke:#000000; stroke-linecap:round; stroke-linejoin:round; stroke-width:4; stroke-opacity:1; fill:none" points="175.445,1423.18 2352.76,1423.18 "/>
<polyline clip-path="url(#clip670)" style="stroke:#000000; stroke-linecap:round; stroke-linejoin:round; stroke-width:4; stroke-opacity:1; fill:none" points="235.011,1423.18 235.011,1404.28 "/>
<polyline clip-path="url(#clip670)" style="stroke:#000000; stroke-linecap:round; stroke-linejoin:round; stroke-width:4; stroke-opacity:1; fill:none" points="749.042,1423.18 749.042,1404.28 "/>
<polyline clip-path="url(#clip670)" style="stroke:#000000; stroke-linecap:round; stroke-linejoin:round; stroke-width:4; stroke-opacity:1; fill:none" points="1263.07,1423.18 1263.07,1404.28 "/>
<polyline clip-path="url(#clip670)" style="stroke:#000000; stroke-linecap:round; stroke-linejoin:round; stroke-width:4; stroke-opacity:1; fill:none" points="1777.1,1423.18 1777.1,1404.28 "/>
<polyline clip-path="url(#clip670)" style="stroke:#000000; stroke-linecap:round; stroke-linejoin:round; stroke-width:4; stroke-opacity:1; fill:none" points="2291.13,1423.18 2291.13,1404.28 "/>
<path clip-path="url(#clip670)" d="M212.395 1454.1 Q208.784 1454.1 206.956 1457.66 Q205.15 1461.2 205.15 1468.33 Q205.15 1475.44 206.956 1479.01 Q208.784 1482.55 212.395 1482.55 Q216.03 1482.55 217.835 1479.01 Q219.664 1475.44 219.664 1468.33 Q219.664 1461.2 217.835 1457.66 Q216.03 1454.1 212.395 1454.1 M212.395 1450.39 Q218.206 1450.39 221.261 1455 Q224.34 1459.58 224.34 1468.33 Q224.34 1477.06 221.261 1481.67 Q218.206 1486.25 212.395 1486.25 Q206.585 1486.25 203.507 1481.67 Q200.451 1477.06 200.451 1468.33 Q200.451 1459.58 203.507 1455 Q206.585 1450.39 212.395 1450.39 Z" fill="#000000" fill-rule="evenodd" fill-opacity="1" /><path clip-path="url(#clip670)" d="M232.557 1479.7 L237.442 1479.7 L237.442 1485.58 L232.557 1485.58 L232.557 1479.7 Z" fill="#000000" fill-rule="evenodd" fill-opacity="1" /><path clip-path="url(#clip670)" d="M257.627 1454.1 Q254.016 1454.1 252.187 1457.66 Q250.381 1461.2 250.381 1468.33 Q250.381 1475.44 252.187 1479.01 Q254.016 1482.55 257.627 1482.55 Q261.261 1482.55 263.066 1479.01 Q264.895 1475.44 264.895 1468.33 Q264.895 1461.2 263.066 1457.66 Q261.261 1454.1 257.627 1454.1 M257.627 1450.39 Q263.437 1450.39 266.492 1455 Q269.571 1459.58 269.571 1468.33 Q269.571 1477.06 266.492 1481.67 Q263.437 1486.25 257.627 1486.25 Q251.817 1486.25 248.738 1481.67 Q245.682 1477.06 245.682 1468.33 Q245.682 1459.58 248.738 1455 Q251.817 1450.39 257.627 1450.39 Z" fill="#000000" fill-rule="evenodd" fill-opacity="1" /><path clip-path="url(#clip670)" d="M720.778 1481.64 L737.097 1481.64 L737.097 1485.58 L715.153 1485.58 L715.153 1481.64 Q717.815 1478.89 722.398 1474.26 Q727.005 1469.61 728.185 1468.27 Q730.431 1465.74 731.31 1464.01 Q732.213 1462.25 732.213 1460.56 Q732.213 1457.8 730.269 1456.07 Q728.347 1454.33 725.246 1454.33 Q723.047 1454.33 720.593 1455.09 Q718.162 1455.86 715.385 1457.41 L715.385 1452.69 Q718.209 1451.55 720.662 1450.97 Q723.116 1450.39 725.153 1450.39 Q730.523 1450.39 733.718 1453.08 Q736.912 1455.77 736.912 1460.26 Q736.912 1462.39 736.102 1464.31 Q735.315 1466.2 733.209 1468.8 Q732.63 1469.47 729.528 1472.69 Q726.426 1475.88 720.778 1481.64 Z" fill="#000000" fill-rule="evenodd" fill-opacity="1" /><path clip-path="url(#clip670)" d="M746.912 1479.7 L751.796 1479.7 L751.796 1485.58 L746.912 1485.58 L746.912 1479.7 Z" fill="#000000" fill-rule="evenodd" fill-opacity="1" /><path clip-path="url(#clip670)" d="M762.028 1451.02 L780.384 1451.02 L780.384 1454.96 L766.31 1454.96 L766.31 1463.43 Q767.329 1463.08 768.347 1462.92 Q769.366 1462.73 770.384 1462.73 Q776.171 1462.73 779.551 1465.9 Q782.93 1469.08 782.93 1474.49 Q782.93 1480.07 779.458 1483.17 Q775.986 1486.25 769.667 1486.25 Q767.491 1486.25 765.222 1485.88 Q762.977 1485.51 760.57 1484.77 L760.57 1480.07 Q762.653 1481.2 764.875 1481.76 Q767.097 1482.32 769.574 1482.32 Q773.579 1482.32 775.917 1480.21 Q778.255 1478.1 778.255 1474.49 Q778.255 1470.88 775.917 1468.77 Q773.579 1466.67 769.574 1466.67 Q767.699 1466.67 765.824 1467.08 Q763.972 1467.5 762.028 1468.38 L762.028 1451.02 Z" fill="#000000" fill-rule="evenodd" fill-opacity="1" /><path clip-path="url(#clip670)" d="M1230.24 1451.02 L1248.59 1451.02 L1248.59 1454.96 L1234.52 1454.96 L1234.52 1463.43 Q1235.54 1463.08 1236.56 1462.92 Q1237.57 1462.73 1238.59 1462.73 Q1244.38 1462.73 1247.76 1465.9 Q1251.14 1469.08 1251.14 1474.49 Q1251.14 1480.07 1247.67 1483.17 Q1244.2 1486.25 1237.88 1486.25 Q1235.7 1486.25 1233.43 1485.88 Q1231.19 1485.51 1228.78 1484.77 L1228.78 1480.07 Q1230.86 1481.2 1233.08 1481.76 Q1235.31 1482.32 1237.78 1482.32 Q1241.79 1482.32 1244.13 1480.21 Q1246.46 1478.1 1246.46 1474.49 Q1246.46 1470.88 1244.13 1468.77 Q1241.79 1466.67 1237.78 1466.67 Q1235.91 1466.67 1234.03 1467.08 Q1232.18 1467.5 1230.24 1468.38 L1230.24 1451.02 Z" fill="#000000" fill-rule="evenodd" fill-opacity="1" /><path clip-path="url(#clip670)" d="M1260.35 1479.7 L1265.24 1479.7 L1265.24 1485.58 L1260.35 1485.58 L1260.35 1479.7 Z" fill="#000000" fill-rule="evenodd" fill-opacity="1" /><path clip-path="url(#clip670)" d="M1285.42 1454.1 Q1281.81 1454.1 1279.98 1457.66 Q1278.18 1461.2 1278.18 1468.33 Q1278.18 1475.44 1279.98 1479.01 Q1281.81 1482.55 1285.42 1482.55 Q1289.06 1482.55 1290.86 1479.01 Q1292.69 1475.44 1292.69 1468.33 Q1292.69 1461.2 1290.86 1457.66 Q1289.06 1454.1 1285.42 1454.1 M1285.42 1450.39 Q1291.23 1450.39 1294.29 1455 Q1297.37 1459.58 1297.37 1468.33 Q1297.37 1477.06 1294.29 1481.67 Q1291.23 1486.25 1285.42 1486.25 Q1279.61 1486.25 1276.53 1481.67 Q1273.48 1477.06 1273.48 1468.33 Q1273.48 1459.58 1276.53 1455 Q1279.61 1450.39 1285.42 1450.39 Z" fill="#000000" fill-rule="evenodd" fill-opacity="1" /><path clip-path="url(#clip670)" d="M1743.42 1451.02 L1765.64 1451.02 L1765.64 1453.01 L1753.1 1485.58 L1748.21 1485.58 L1760.02 1454.96 L1743.42 1454.96 L1743.42 1451.02 Z" fill="#000000" fill-rule="evenodd" fill-opacity="1" /><path clip-path="url(#clip670)" d="M1774.77 1479.7 L1779.65 1479.7 L1779.65 1485.58 L1774.77 1485.58 L1774.77 1479.7 Z" fill="#000000" fill-rule="evenodd" fill-opacity="1" /><path clip-path="url(#clip670)" d="M1789.88 1451.02 L1808.24 1451.02 L1808.24 1454.96 L1794.16 1454.96 L1794.16 1463.43 Q1795.18 1463.08 1796.2 1462.92 Q1797.22 1462.73 1798.24 1462.73 Q1804.02 1462.73 1807.4 1465.9 Q1810.78 1469.08 1810.78 1474.49 Q1810.78 1480.07 1807.31 1483.17 Q1803.84 1486.25 1797.52 1486.25 Q1795.34 1486.25 1793.08 1485.88 Q1790.83 1485.51 1788.42 1484.77 L1788.42 1480.07 Q1790.51 1481.2 1792.73 1481.76 Q1794.95 1482.32 1797.43 1482.32 Q1801.43 1482.32 1803.77 1480.21 Q1806.11 1478.1 1806.11 1474.49 Q1806.11 1470.88 1803.77 1468.77 Q1801.43 1466.67 1797.43 1466.67 Q1795.55 1466.67 1793.68 1467.08 Q1791.83 1467.5 1789.88 1468.38 L1789.88 1451.02 Z" fill="#000000" fill-rule="evenodd" fill-opacity="1" /><path clip-path="url(#clip670)" d="M2243.21 1481.64 L2250.84 1481.64 L2250.84 1455.28 L2242.53 1456.95 L2242.53 1452.69 L2250.8 1451.02 L2255.47 1451.02 L2255.47 1481.64 L2263.11 1481.64 L2263.11 1485.58 L2243.21 1485.58 L2243.21 1481.64 Z" fill="#000000" fill-rule="evenodd" fill-opacity="1" /><path clip-path="url(#clip670)" d="M2282.56 1454.1 Q2278.95 1454.1 2277.12 1457.66 Q2275.31 1461.2 2275.31 1468.33 Q2275.31 1475.44 2277.12 1479.01 Q2278.95 1482.55 2282.56 1482.55 Q2286.19 1482.55 2288 1479.01 Q2289.83 1475.44 2289.83 1468.33 Q2289.83 1461.2 2288 1457.66 Q2286.19 1454.1 2282.56 1454.1 M2282.56 1450.39 Q2288.37 1450.39 2291.42 1455 Q2294.5 1459.58 2294.5 1468.33 Q2294.5 1477.06 2291.42 1481.67 Q2288.37 1486.25 2282.56 1486.25 Q2276.75 1486.25 2273.67 1481.67 Q2270.61 1477.06 2270.61 1468.33 Q2270.61 1459.58 2273.67 1455 Q2276.75 1450.39 2282.56 1450.39 Z" fill="#000000" fill-rule="evenodd" fill-opacity="1" /><path clip-path="url(#clip670)" d="M2302.72 1479.7 L2307.6 1479.7 L2307.6 1485.58 L2302.72 1485.58 L2302.72 1479.7 Z" fill="#000000" fill-rule="evenodd" fill-opacity="1" /><path clip-path="url(#clip670)" d="M2327.79 1454.1 Q2324.18 1454.1 2322.35 1457.66 Q2320.54 1461.2 2320.54 1468.33 Q2320.54 1475.44 2322.35 1479.01 Q2324.18 1482.55 2327.79 1482.55 Q2331.42 1482.55 2333.23 1479.01 Q2335.06 1475.44 2335.06 1468.33 Q2335.06 1461.2 2333.23 1457.66 Q2331.42 1454.1 2327.79 1454.1 M2327.79 1450.39 Q2333.6 1450.39 2336.65 1455 Q2339.73 1459.58 2339.73 1468.33 Q2339.73 1477.06 2336.65 1481.67 Q2333.6 1486.25 2327.79 1486.25 Q2321.98 1486.25 2318.9 1481.67 Q2315.84 1477.06 2315.84 1468.33 Q2315.84 1459.58 2318.9 1455 Q2321.98 1450.39 2327.79 1450.39 Z" fill="#000000" fill-rule="evenodd" fill-opacity="1" /><path clip-path="url(#clip670)" d="M1265.77 1520.52 L1272.2 1520.52 L1272.2 1564.73 Q1272.2 1573.33 1268.92 1577.21 Q1265.68 1581.09 1258.45 1581.09 L1256 1581.09 L1256 1575.68 L1258.01 1575.68 Q1262.27 1575.68 1264.02 1573.3 Q1265.77 1570.91 1265.77 1564.73 L1265.77 1520.52 Z" fill="#000000" fill-rule="evenodd" fill-opacity="1" /><polyline clip-path="url(#clip672)" style="stroke:#000000; stroke-linecap:round; stroke-linejoin:round; stroke-width:2; stroke-opacity:0.1; fill:none" points="175.445,1420.47 2352.76,1420.47 "/>
<polyline clip-path="url(#clip672)" style="stroke:#000000; stroke-linecap:round; stroke-linejoin:round; stroke-width:2; stroke-opacity:0.1; fill:none" points="175.445,1137.64 2352.76,1137.64 "/>
<polyline clip-path="url(#clip672)" style="stroke:#000000; stroke-linecap:round; stroke-linejoin:round; stroke-width:2; stroke-opacity:0.1; fill:none" points="175.445,854.816 2352.76,854.816 "/>
<polyline clip-path="url(#clip672)" style="stroke:#000000; stroke-linecap:round; stroke-linejoin:round; stroke-width:2; stroke-opacity:0.1; fill:none" points="175.445,571.987 2352.76,571.987 "/>
<polyline clip-path="url(#clip672)" style="stroke:#000000; stroke-linecap:round; stroke-linejoin:round; stroke-width:2; stroke-opacity:0.1; fill:none" points="175.445,289.158 2352.76,289.158 "/>
<polyline clip-path="url(#clip670)" style="stroke:#000000; stroke-linecap:round; stroke-linejoin:round; stroke-width:4; stroke-opacity:1; fill:none" points="175.445,1423.18 175.445,47.2441 "/>
<polyline clip-path="url(#clip670)" style="stroke:#000000; stroke-linecap:round; stroke-linejoin:round; stroke-width:4; stroke-opacity:1; fill:none" points="175.445,1420.47 194.343,1420.47 "/>
<polyline clip-path="url(#clip670)" style="stroke:#000000; stroke-linecap:round; stroke-linejoin:round; stroke-width:4; stroke-opacity:1; fill:none" points="175.445,1137.64 194.343,1137.64 "/>
<polyline clip-path="url(#clip670)" style="stroke:#000000; stroke-linecap:round; stroke-linejoin:round; stroke-width:4; stroke-opacity:1; fill:none" points="175.445,854.816 194.343,854.816 "/>
<polyline clip-path="url(#clip670)" style="stroke:#000000; stroke-linecap:round; stroke-linejoin:round; stroke-width:4; stroke-opacity:1; fill:none" points="175.445,571.987 194.343,571.987 "/>
<polyline clip-path="url(#clip670)" style="stroke:#000000; stroke-linecap:round; stroke-linejoin:round; stroke-width:4; stroke-opacity:1; fill:none" points="175.445,289.158 194.343,289.158 "/>
<path clip-path="url(#clip670)" d="M127.501 1406.27 Q123.89 1406.27 122.061 1409.84 Q120.255 1413.38 120.255 1420.51 Q120.255 1427.61 122.061 1431.18 Q123.89 1434.72 127.501 1434.72 Q131.135 1434.72 132.941 1431.18 Q134.769 1427.61 134.769 1420.51 Q134.769 1413.38 132.941 1409.84 Q131.135 1406.27 127.501 1406.27 M127.501 1402.57 Q133.311 1402.57 136.367 1407.17 Q139.445 1411.76 139.445 1420.51 Q139.445 1429.23 136.367 1433.84 Q133.311 1438.42 127.501 1438.42 Q121.691 1438.42 118.612 1433.84 Q115.556 1429.23 115.556 1420.51 Q115.556 1411.76 118.612 1407.17 Q121.691 1402.57 127.501 1402.57 Z" fill="#000000" fill-rule="evenodd" fill-opacity="1" /><path clip-path="url(#clip670)" d="M119.538 1150.99 L127.177 1150.99 L127.177 1124.62 L118.867 1126.29 L118.867 1122.03 L127.13 1120.36 L131.806 1120.36 L131.806 1150.99 L139.445 1150.99 L139.445 1154.92 L119.538 1154.92 L119.538 1150.99 Z" fill="#000000" fill-rule="evenodd" fill-opacity="1" /><path clip-path="url(#clip670)" d="M123.126 868.16 L139.445 868.16 L139.445 872.096 L117.501 872.096 L117.501 868.16 Q120.163 865.406 124.746 860.776 Q129.353 856.123 130.533 854.781 Q132.779 852.258 133.658 850.522 Q134.561 848.762 134.561 847.073 Q134.561 844.318 132.617 842.582 Q130.695 840.846 127.593 840.846 Q125.394 840.846 122.941 841.61 Q120.51 842.373 117.732 843.924 L117.732 839.202 Q120.556 838.068 123.01 837.489 Q125.464 836.911 127.501 836.911 Q132.871 836.911 136.066 839.596 Q139.26 842.281 139.26 846.772 Q139.26 848.901 138.45 850.823 Q137.663 852.721 135.556 855.313 Q134.978 855.985 131.876 859.202 Q128.774 862.397 123.126 868.16 Z" fill="#000000" fill-rule="evenodd" fill-opacity="1" /><path clip-path="url(#clip670)" d="M132.316 570.633 Q135.672 571.35 137.547 573.619 Q139.445 575.887 139.445 579.221 Q139.445 584.336 135.927 587.137 Q132.408 589.938 125.927 589.938 Q123.751 589.938 121.436 589.498 Q119.144 589.082 116.691 588.225 L116.691 583.711 Q118.635 584.846 120.95 585.424 Q123.265 586.003 125.788 586.003 Q130.186 586.003 132.478 584.267 Q134.792 582.531 134.792 579.221 Q134.792 576.165 132.64 574.452 Q130.51 572.716 126.691 572.716 L122.663 572.716 L122.663 568.874 L126.876 568.874 Q130.325 568.874 132.154 567.508 Q133.982 566.119 133.982 563.526 Q133.982 560.864 132.084 559.452 Q130.209 558.017 126.691 558.017 Q124.769 558.017 122.57 558.434 Q120.371 558.851 117.732 559.73 L117.732 555.563 Q120.394 554.823 122.709 554.452 Q125.047 554.082 127.107 554.082 Q132.431 554.082 135.533 556.513 Q138.635 558.92 138.635 563.04 Q138.635 565.911 136.992 567.901 Q135.348 569.869 132.316 570.633 Z" fill="#000000" fill-rule="evenodd" fill-opacity="1" /><path clip-path="url(#clip670)" d="M129.862 275.953 L118.056 294.401 L129.862 294.401 L129.862 275.953 M128.635 271.878 L134.515 271.878 L134.515 294.401 L139.445 294.401 L139.445 298.29 L134.515 298.29 L134.515 306.438 L129.862 306.438 L129.862 298.29 L114.26 298.29 L114.26 293.776 L128.635 271.878 Z" fill="#000000" fill-rule="evenodd" fill-opacity="1" /><path clip-path="url(#clip670)" d="M14.479 1553.54 L14.479 1547.68 L64.0042 1547.68 L64.0042 1553.54 L14.479 1553.54 Z" fill="#000000" fill-rule="evenodd" fill-opacity="1" /><path clip-path="url(#clip670)" d="M46.0847 1519.23 Q46.0847 1526.33 47.7079 1529.06 Q49.3312 1531.8 53.2461 1531.8 Q56.3653 1531.8 58.2114 1529.76 Q60.0256 1527.69 60.0256 1524.16 Q60.0256 1519.29 56.5881 1516.36 Q53.1188 1513.4 47.3897 1513.4 L46.0847 1513.4 L46.0847 1519.23 M43.6657 1507.55 L64.0042 1507.55 L64.0042 1513.4 L58.5933 1513.4 Q61.8398 1515.41 63.3994 1518.4 Q64.9272 1521.39 64.9272 1525.72 Q64.9272 1531.2 61.8716 1534.44 Q58.7843 1537.66 53.6281 1537.66 Q47.6125 1537.66 44.5569 1533.65 Q41.5014 1529.6 41.5014 1521.62 L41.5014 1513.4 L40.9285 1513.4 Q36.8862 1513.4 34.6901 1516.08 Q32.4621 1518.72 32.4621 1523.53 Q32.4621 1526.58 33.1941 1529.48 Q33.9262 1532.37 35.3903 1535.05 L29.9795 1535.05 Q28.7381 1531.83 28.1334 1528.81 Q27.4968 1525.78 27.4968 1522.92 Q27.4968 1515.19 31.5072 1511.37 Q35.5176 1507.55 43.6657 1507.55 Z" fill="#000000" fill-rule="evenodd" fill-opacity="1" /><path clip-path="url(#clip670)" d="M35.1993 1467.73 Q31.2526 1465.53 29.3747 1462.48 Q27.4968 1459.42 27.4968 1455.28 Q27.4968 1449.71 31.4117 1446.69 Q35.2948 1443.67 42.4881 1443.67 L64.0042 1443.67 L64.0042 1449.56 L42.679 1449.56 Q37.5546 1449.56 35.072 1451.37 Q32.5894 1453.18 32.5894 1456.91 Q32.5894 1461.46 35.6131 1464.1 Q38.6368 1466.74 43.8567 1466.74 L64.0042 1466.74 L64.0042 1472.63 L42.679 1472.63 Q37.5228 1472.63 35.072 1474.45 Q32.5894 1476.26 32.5894 1480.05 Q32.5894 1484.54 35.6449 1487.18 Q38.6686 1489.82 43.8567 1489.82 L64.0042 1489.82 L64.0042 1495.71 L28.3562 1495.71 L28.3562 1489.82 L33.8944 1489.82 Q30.616 1487.81 29.0564 1485.01 Q27.4968 1482.21 27.4968 1478.36 Q27.4968 1474.48 29.4702 1471.77 Q31.4436 1469.03 35.1993 1467.73 Z" fill="#000000" fill-rule="evenodd" fill-opacity="1" /><path clip-path="url(#clip670)" d="M46.212 1406.4 Q39.7508 1406.4 36.0905 1409.07 Q32.3984 1411.71 32.3984 1416.36 Q32.3984 1421.01 36.0905 1423.68 Q39.7508 1426.32 46.212 1426.32 Q52.6732 1426.32 56.3653 1423.68 Q60.0256 1421.01 60.0256 1416.36 Q60.0256 1411.71 56.3653 1409.07 Q52.6732 1406.4 46.212 1406.4 M33.7671 1426.32 Q30.5842 1424.47 29.0564 1421.67 Q27.4968 1418.84 27.4968 1414.93 Q27.4968 1408.43 32.6531 1404.39 Q37.8093 1400.32 46.212 1400.32 Q54.6147 1400.32 59.771 1404.39 Q64.9272 1408.43 64.9272 1414.93 Q64.9272 1418.84 63.3994 1421.67 Q61.8398 1424.47 58.657 1426.32 L64.0042 1426.32 L64.0042 1432.21 L14.479 1432.21 L14.479 1426.32 L33.7671 1426.32 Z" fill="#000000" fill-rule="evenodd" fill-opacity="1" /><path clip-path="url(#clip670)" d="M29.4065 1347.16 L34.9447 1347.16 Q33.6716 1349.65 33.035 1352.32 Q32.3984 1354.99 32.3984 1357.86 Q32.3984 1362.22 33.7352 1364.41 Q35.072 1366.58 37.7456 1366.58 Q39.7826 1366.58 40.9603 1365.02 Q42.1061 1363.46 43.1565 1358.75 L43.6021 1356.74 Q44.9389 1350.51 47.3897 1347.9 Q49.8086 1345.25 54.1691 1345.25 Q59.1344 1345.25 62.0308 1349.2 Q64.9272 1353.12 64.9272 1359.99 Q64.9272 1362.85 64.3543 1365.97 Q63.8132 1369.06 62.6992 1372.5 L56.6518 1372.5 Q58.3387 1369.25 59.198 1366.1 Q60.0256 1362.95 60.0256 1359.86 Q60.0256 1355.73 58.6251 1353.5 Q57.1929 1351.27 54.6147 1351.27 Q52.2276 1351.27 50.9545 1352.89 Q49.6813 1354.48 48.5037 1359.93 L48.0262 1361.96 Q46.8804 1367.41 44.5251 1369.83 Q42.138 1372.24 38.0002 1372.24 Q32.9713 1372.24 30.2341 1368.68 Q27.4968 1365.11 27.4968 1358.56 Q27.4968 1355.31 27.9743 1352.45 Q28.4517 1349.58 29.4065 1347.16 Z" fill="#000000" fill-rule="evenodd" fill-opacity="1" /><path clip-path="url(#clip670)" d="M42.4881 1306.3 L64.0042 1306.3 L64.0042 1312.15 L42.679 1312.15 Q37.6183 1312.15 35.1038 1314.13 Q32.5894 1316.1 32.5894 1320.05 Q32.5894 1324.79 35.6131 1327.53 Q38.6368 1330.26 43.8567 1330.26 L64.0042 1330.26 L64.0042 1336.15 L14.479 1336.15 L14.479 1330.26 L33.8944 1330.26 Q30.6797 1328.16 29.0883 1325.33 Q27.4968 1322.46 27.4968 1318.74 Q27.4968 1312.6 31.3163 1309.45 Q35.1038 1306.3 42.4881 1306.3 Z" fill="#000000" fill-rule="evenodd" fill-opacity="1" /><path clip-path="url(#clip670)" d="M28.3562 1294.61 L28.3562 1288.76 L64.0042 1288.76 L64.0042 1294.61 L28.3562 1294.61 M14.479 1294.61 L14.479 1288.76 L21.895 1288.76 L21.895 1294.61 L14.479 1294.61 Z" fill="#000000" fill-rule="evenodd" fill-opacity="1" /><path clip-path="url(#clip670)" d="M14.479 1258.46 L19.3487 1258.46 L19.3487 1264.06 Q19.3487 1267.21 20.6219 1268.45 Q21.895 1269.66 25.2052 1269.66 L28.3562 1269.66 L28.3562 1260.02 L32.9077 1260.02 L32.9077 1269.66 L64.0042 1269.66 L64.0042 1275.55 L32.9077 1275.55 L32.9077 1281.15 L28.3562 1281.15 L28.3562 1275.55 L25.8736 1275.55 Q19.9216 1275.55 17.2162 1272.78 Q14.479 1270.01 14.479 1264 L14.479 1258.46 Z" fill="#000000" fill-rule="evenodd" fill-opacity="1" /><path clip-path="url(#clip670)" d="M18.2347 1248.91 L28.3562 1248.91 L28.3562 1236.85 L32.9077 1236.85 L32.9077 1248.91 L52.2594 1248.91 Q56.6199 1248.91 57.8613 1247.73 Q59.1026 1246.52 59.1026 1242.86 L59.1026 1236.85 L64.0042 1236.85 L64.0042 1242.86 Q64.0042 1249.64 61.4897 1252.22 Q58.9434 1254.8 52.2594 1254.8 L32.9077 1254.8 L32.9077 1259.09 L28.3562 1259.09 L28.3562 1254.8 L18.2347 1254.8 L18.2347 1248.91 Z" fill="#000000" fill-rule="evenodd" fill-opacity="1" /><path clip-path="url(#clip670)" d="M33.8307 1187.77 Q33.2578 1188.75 33.0032 1189.93 Q32.7167 1191.08 32.7167 1192.48 Q32.7167 1197.44 35.9632 1200.12 Q39.1779 1202.76 45.2253 1202.76 L64.0042 1202.76 L64.0042 1208.65 L28.3562 1208.65 L28.3562 1202.76 L33.8944 1202.76 Q30.6479 1200.91 29.0883 1197.95 Q27.4968 1194.99 27.4968 1190.76 Q27.4968 1190.15 27.5923 1189.42 Q27.656 1188.69 27.8151 1187.8 L33.8307 1187.77 Z" fill="#000000" fill-rule="evenodd" fill-opacity="1" /><path clip-path="url(#clip670)" d="M44.7161 1152.56 L47.5806 1152.56 L47.5806 1179.49 Q53.6281 1179.11 56.8109 1175.86 Q59.9619 1172.58 59.9619 1166.76 Q59.9619 1163.39 59.1344 1160.23 Q58.3069 1157.05 56.6518 1153.93 L62.1899 1153.93 Q63.5267 1157.08 64.227 1160.39 Q64.9272 1163.7 64.9272 1167.11 Q64.9272 1175.64 59.9619 1180.64 Q54.9967 1185.6 46.5303 1185.6 Q37.7774 1185.6 32.6531 1180.89 Q27.4968 1176.15 27.4968 1168.13 Q27.4968 1160.93 32.1438 1156.76 Q36.7589 1152.56 44.7161 1152.56 M42.9973 1158.42 Q38.1912 1158.48 35.3266 1161.13 Q32.4621 1163.74 32.4621 1168.06 Q32.4621 1172.97 35.2312 1175.93 Q38.0002 1178.85 43.0292 1179.3 L42.9973 1158.42 Z" fill="#000000" fill-rule="evenodd" fill-opacity="1" /><path clip-path="url(#clip670)" d="M14.479 1142.95 L14.479 1137.09 L64.0042 1137.09 L64.0042 1142.95 L14.479 1142.95 Z" fill="#000000" fill-rule="evenodd" fill-opacity="1" /><path clip-path="url(#clip670)" d="M46.0847 1108.64 Q46.0847 1115.74 47.7079 1118.48 Q49.3312 1121.21 53.2461 1121.21 Q56.3653 1121.21 58.2114 1119.18 Q60.0256 1117.11 60.0256 1113.57 Q60.0256 1108.7 56.5881 1105.78 Q53.1188 1102.82 47.3897 1102.82 L46.0847 1102.82 L46.0847 1108.64 M43.6657 1096.96 L64.0042 1096.96 L64.0042 1102.82 L58.5933 1102.82 Q61.8398 1104.82 63.3994 1107.81 Q64.9272 1110.8 64.9272 1115.13 Q64.9272 1120.61 61.8716 1123.85 Q58.7843 1127.07 53.6281 1127.07 Q47.6125 1127.07 44.5569 1123.06 Q41.5014 1119.02 41.5014 1111.03 L41.5014 1102.82 L40.9285 1102.82 Q36.8862 1102.82 34.6901 1105.49 Q32.4621 1108.13 32.4621 1112.94 Q32.4621 1115.99 33.1941 1118.89 Q33.9262 1121.79 35.3903 1124.46 L29.9795 1124.46 Q28.7381 1121.24 28.1334 1118.22 Q27.4968 1115.2 27.4968 1112.33 Q27.4968 1104.6 31.5072 1100.78 Q35.5176 1096.96 43.6657 1096.96 Z" fill="#000000" fill-rule="evenodd" fill-opacity="1" /><path clip-path="url(#clip670)" d="M18.2347 1079.1 L28.3562 1079.1 L28.3562 1067.04 L32.9077 1067.04 L32.9077 1079.1 L52.2594 1079.1 Q56.6199 1079.1 57.8613 1077.93 Q59.1026 1076.72 59.1026 1073.06 L59.1026 1067.04 L64.0042 1067.04 L64.0042 1073.06 Q64.0042 1079.84 61.4897 1082.41 Q58.9434 1084.99 52.2594 1084.99 L32.9077 1084.99 L32.9077 1089.29 L28.3562 1089.29 L28.3562 1084.99 L18.2347 1084.99 L18.2347 1079.1 Z" fill="#000000" fill-rule="evenodd" fill-opacity="1" /><path clip-path="url(#clip670)" d="M28.3562 1059.34 L28.3562 1053.48 L64.0042 1053.48 L64.0042 1059.34 L28.3562 1059.34 M14.479 1059.34 L14.479 1053.48 L21.895 1053.48 L21.895 1059.34 L14.479 1059.34 Z" fill="#000000" fill-rule="evenodd" fill-opacity="1" /><path clip-path="url(#clip670)" d="M28.3562 1045.43 L28.3562 1039.22 L58.275 1028.08 L28.3562 1016.94 L28.3562 1010.74 L64.0042 1024.1 L64.0042 1032.06 L28.3562 1045.43 Z" fill="#000000" fill-rule="evenodd" fill-opacity="1" /><path clip-path="url(#clip670)" d="M44.7161 972.159 L47.5806 972.159 L47.5806 999.086 Q53.6281 998.704 56.8109 995.458 Q59.9619 992.18 59.9619 986.355 Q59.9619 982.981 59.1344 979.83 Q58.3069 976.647 56.6518 973.528 L62.1899 973.528 Q63.5267 976.679 64.227 979.989 Q64.9272 983.299 64.9272 986.705 Q64.9272 995.235 59.9619 1000.23 Q54.9967 1005.2 46.5303 1005.2 Q37.7774 1005.2 32.6531 1000.49 Q27.4968 995.744 27.4968 987.724 Q27.4968 980.53 32.1438 976.361 Q36.7589 972.159 44.7161 972.159 M42.9973 978.016 Q38.1912 978.08 35.3266 980.721 Q32.4621 983.331 32.4621 987.66 Q32.4621 992.562 35.2312 995.522 Q38.0002 998.45 43.0292 998.895 L42.9973 978.016 Z" fill="#000000" fill-rule="evenodd" fill-opacity="1" /><path clip-path="url(#clip670)" d="M18.2347 936.034 L28.3562 936.034 L28.3562 923.971 L32.9077 923.971 L32.9077 936.034 L52.2594 936.034 Q56.6199 936.034 57.8613 934.856 Q59.1026 933.647 59.1026 929.987 L59.1026 923.971 L64.0042 923.971 L64.0042 929.987 Q64.0042 936.766 61.4897 939.344 Q58.9434 941.922 52.2594 941.922 L32.9077 941.922 L32.9077 946.219 L28.3562 946.219 L28.3562 941.922 L18.2347 941.922 L18.2347 936.034 Z" fill="#000000" fill-rule="evenodd" fill-opacity="1" /><path clip-path="url(#clip670)" d="M32.4621 902.455 Q32.4621 907.166 36.1542 909.903 Q39.8145 912.64 46.212 912.64 Q52.6095 912.64 56.3017 909.935 Q59.9619 907.197 59.9619 902.455 Q59.9619 897.776 56.2698 895.039 Q52.5777 892.302 46.212 892.302 Q39.8781 892.302 36.186 895.039 Q32.4621 897.776 32.4621 902.455 M27.4968 902.455 Q27.4968 894.816 32.4621 890.456 Q37.4273 886.095 46.212 886.095 Q54.9649 886.095 59.9619 890.456 Q64.9272 894.816 64.9272 902.455 Q64.9272 910.126 59.9619 914.486 Q54.9649 918.815 46.212 918.815 Q37.4273 918.815 32.4621 914.486 Q27.4968 910.126 27.4968 902.455 Z" fill="#000000" fill-rule="evenodd" fill-opacity="1" /><path clip-path="url(#clip670)" d="M35.1993 827.913 Q31.2526 825.716 29.3747 822.661 Q27.4968 819.605 27.4968 815.468 Q27.4968 809.898 31.4117 806.874 Q35.2948 803.85 42.4881 803.85 L64.0042 803.85 L64.0042 809.738 L42.679 809.738 Q37.5546 809.738 35.072 811.553 Q32.5894 813.367 32.5894 817.091 Q32.5894 821.642 35.6131 824.284 Q38.6368 826.926 43.8567 826.926 L64.0042 826.926 L64.0042 832.814 L42.679 832.814 Q37.5228 832.814 35.072 834.628 Q32.5894 836.443 32.5894 840.23 Q32.5894 844.718 35.6449 847.36 Q38.6686 850.002 43.8567 850.002 L64.0042 850.002 L64.0042 855.89 L28.3562 855.89 L28.3562 850.002 L33.8944 850.002 Q30.616 847.996 29.0564 845.195 Q27.4968 842.395 27.4968 838.543 Q27.4968 834.66 29.4702 831.955 Q31.4436 829.218 35.1993 827.913 Z" fill="#000000" fill-rule="evenodd" fill-opacity="1" /><path clip-path="url(#clip670)" d="M28.3562 792.169 L28.3562 786.313 L64.0042 786.313 L64.0042 792.169 L28.3562 792.169 M14.479 792.169 L14.479 786.313 L21.895 786.313 L21.895 792.169 L14.479 792.169 Z" fill="#000000" fill-rule="evenodd" fill-opacity="1" /><path clip-path="url(#clip670)" d="M42.4881 744.426 L64.0042 744.426 L64.0042 750.283 L42.679 750.283 Q37.6183 750.283 35.1038 752.256 Q32.5894 754.23 32.5894 758.176 Q32.5894 762.919 35.6131 765.656 Q38.6368 768.393 43.8567 768.393 L64.0042 768.393 L64.0042 774.281 L28.3562 774.281 L28.3562 768.393 L33.8944 768.393 Q30.6797 766.293 29.0883 763.46 Q27.4968 760.595 27.4968 756.871 Q27.4968 750.728 31.3163 747.577 Q35.1038 744.426 42.4881 744.426 Z" fill="#000000" fill-rule="evenodd" fill-opacity="1" /><path clip-path="url(#clip670)" d="M28.3562 732.745 L28.3562 726.889 L64.0042 726.889 L64.0042 732.745 L28.3562 732.745 M14.479 732.745 L14.479 726.889 L21.895 726.889 L21.895 732.745 L14.479 732.745 Z" fill="#000000" fill-rule="evenodd" fill-opacity="1" /><path clip-path="url(#clip670)" d="M35.1993 686.88 Q31.2526 684.684 29.3747 681.629 Q27.4968 678.573 27.4968 674.435 Q27.4968 668.865 31.4117 665.842 Q35.2948 662.818 42.4881 662.818 L64.0042 662.818 L64.0042 668.706 L42.679 668.706 Q37.5546 668.706 35.072 670.52 Q32.5894 672.335 32.5894 676.059 Q32.5894 680.61 35.6131 683.252 Q38.6368 685.894 43.8567 685.894 L64.0042 685.894 L64.0042 691.782 L42.679 691.782 Q37.5228 691.782 35.072 693.596 Q32.5894 695.41 32.5894 699.198 Q32.5894 703.686 35.6449 706.328 Q38.6686 708.969 43.8567 708.969 L64.0042 708.969 L64.0042 714.858 L28.3562 714.858 L28.3562 708.969 L33.8944 708.969 Q30.616 706.964 29.0564 704.163 Q27.4968 701.362 27.4968 697.511 Q27.4968 693.628 29.4702 690.923 Q31.4436 688.185 35.1993 686.88 Z" fill="#000000" fill-rule="evenodd" fill-opacity="1" /><path clip-path="url(#clip670)" d="M49.9359 651.742 L28.3562 651.742 L28.3562 645.885 L49.7131 645.885 Q54.7739 645.885 57.3202 643.912 Q59.8346 641.938 59.8346 637.992 Q59.8346 633.249 56.8109 630.512 Q53.7872 627.743 48.5673 627.743 L28.3562 627.743 L28.3562 621.886 L64.0042 621.886 L64.0042 627.743 L58.5296 627.743 Q61.7762 629.875 63.3676 632.708 Q64.9272 635.509 64.9272 639.233 Q64.9272 645.376 61.1078 648.559 Q57.2883 651.742 49.9359 651.742 M27.4968 637.005 L27.4968 637.005 Z" fill="#000000" fill-rule="evenodd" fill-opacity="1" /><path clip-path="url(#clip670)" d="M35.1993 582.069 Q31.2526 579.873 29.3747 576.817 Q27.4968 573.762 27.4968 569.624 Q27.4968 564.054 31.4117 561.03 Q35.2948 558.007 42.4881 558.007 L64.0042 558.007 L64.0042 563.895 L42.679 563.895 Q37.5546 563.895 35.072 565.709 Q32.5894 567.523 32.5894 571.247 Q32.5894 575.799 35.6131 578.441 Q38.6368 581.082 43.8567 581.082 L64.0042 581.082 L64.0042 586.971 L42.679 586.971 Q37.5228 586.971 35.072 588.785 Q32.5894 590.599 32.5894 594.387 Q32.5894 598.874 35.6449 601.516 Q38.6686 604.158 43.8567 604.158 L64.0042 604.158 L64.0042 610.046 L28.3562 610.046 L28.3562 604.158 L33.8944 604.158 Q30.616 602.153 29.0564 599.352 Q27.4968 596.551 27.4968 592.7 Q27.4968 588.817 29.4702 586.111 Q31.4436 583.374 35.1993 582.069 Z" fill="#000000" fill-rule="evenodd" fill-opacity="1" /><path clip-path="url(#clip670)" d="M29.7248 499.951 L35.1993 499.951 Q33.8307 502.434 33.1623 504.948 Q32.4621 507.431 32.4621 509.977 Q32.4621 515.675 36.0905 518.826 Q39.6872 521.977 46.212 521.977 Q52.7369 521.977 56.3653 518.826 Q59.9619 515.675 59.9619 509.977 Q59.9619 507.431 59.2935 504.948 Q58.5933 502.434 57.2247 499.951 L62.6355 499.951 Q63.7814 502.402 64.3543 505.044 Q64.9272 507.654 64.9272 510.614 Q64.9272 518.667 59.8664 523.409 Q54.8057 528.151 46.212 528.151 Q37.491 528.151 32.4939 523.377 Q27.4968 518.571 27.4968 510.232 Q27.4968 507.527 28.0697 504.948 Q28.6108 502.37 29.7248 499.951 Z" fill="#000000" fill-rule="evenodd" fill-opacity="1" /><path clip-path="url(#clip670)" d="M32.4621 475.953 Q32.4621 480.663 36.1542 483.401 Q39.8145 486.138 46.212 486.138 Q52.6095 486.138 56.3017 483.432 Q59.9619 480.695 59.9619 475.953 Q59.9619 471.274 56.2698 468.537 Q52.5777 465.799 46.212 465.799 Q39.8781 465.799 36.186 468.537 Q32.4621 471.274 32.4621 475.953 M27.4968 475.953 Q27.4968 468.314 32.4621 463.953 Q37.4273 459.593 46.212 459.593 Q54.9649 459.593 59.9619 463.953 Q64.9272 468.314 64.9272 475.953 Q64.9272 483.623 59.9619 487.984 Q54.9649 492.313 46.212 492.313 Q37.4273 492.313 32.4621 487.984 Q27.4968 483.623 27.4968 475.953 Z" fill="#000000" fill-rule="evenodd" fill-opacity="1" /><path clip-path="url(#clip670)" d="M42.4881 420.253 L64.0042 420.253 L64.0042 426.109 L42.679 426.109 Q37.6183 426.109 35.1038 428.083 Q32.5894 430.056 32.5894 434.003 Q32.5894 438.745 35.6131 441.482 Q38.6368 444.22 43.8567 444.22 L64.0042 444.22 L64.0042 450.108 L28.3562 450.108 L28.3562 444.22 L33.8944 444.22 Q30.6797 442.119 29.0883 439.286 Q27.4968 436.422 27.4968 432.698 Q27.4968 426.555 31.3163 423.404 Q35.1038 420.253 42.4881 420.253 Z" fill="#000000" fill-rule="evenodd" fill-opacity="1" /><path clip-path="url(#clip670)" d="M18.2347 402.779 L28.3562 402.779 L28.3562 390.716 L32.9077 390.716 L32.9077 402.779 L52.2594 402.779 Q56.6199 402.779 57.8613 401.601 Q59.1026 400.392 59.1026 396.731 L59.1026 390.716 L64.0042 390.716 L64.0042 396.731 Q64.0042 403.511 61.4897 406.089 Q58.9434 408.667 52.2594 408.667 L32.9077 408.667 L32.9077 412.964 L28.3562 412.964 L28.3562 408.667 L18.2347 408.667 L18.2347 402.779 Z" fill="#000000" fill-rule="evenodd" fill-opacity="1" /><path clip-path="url(#clip670)" d="M28.3562 383.013 L28.3562 377.157 L64.0042 377.157 L64.0042 383.013 L28.3562 383.013 M14.479 383.013 L14.479 377.157 L21.895 377.157 L21.895 383.013 L14.479 383.013 Z" fill="#000000" fill-rule="evenodd" fill-opacity="1" /><path clip-path="url(#clip670)" d="M42.4881 335.271 L64.0042 335.271 L64.0042 341.127 L42.679 341.127 Q37.6183 341.127 35.1038 343.1 Q32.5894 345.074 32.5894 349.02 Q32.5894 353.763 35.6131 356.5 Q38.6368 359.237 43.8567 359.237 L64.0042 359.237 L64.0042 365.126 L28.3562 365.126 L28.3562 359.237 L33.8944 359.237 Q30.6797 357.137 29.0883 354.304 Q27.4968 351.439 27.4968 347.715 Q27.4968 341.573 31.3163 338.422 Q35.1038 335.271 42.4881 335.271 Z" fill="#000000" fill-rule="evenodd" fill-opacity="1" /><path clip-path="url(#clip670)" d="M49.9359 324.194 L28.3562 324.194 L28.3562 318.338 L49.7131 318.338 Q54.7739 318.338 57.3202 316.364 Q59.8346 314.391 59.8346 310.444 Q59.8346 305.702 56.8109 302.965 Q53.7872 300.195 48.5673 300.195 L28.3562 300.195 L28.3562 294.339 L64.0042 294.339 L64.0042 300.195 L58.5296 300.195 Q61.7762 302.328 63.3676 305.161 Q64.9272 307.962 64.9272 311.686 Q64.9272 317.828 61.1078 321.011 Q57.2883 324.194 49.9359 324.194 M27.4968 309.458 L27.4968 309.458 Z" fill="#000000" fill-rule="evenodd" fill-opacity="1" /><path clip-path="url(#clip670)" d="M49.9359 282.881 L28.3562 282.881 L28.3562 277.024 L49.7131 277.024 Q54.7739 277.024 57.3202 275.051 Q59.8346 273.078 59.8346 269.131 Q59.8346 264.388 56.8109 261.651 Q53.7872 258.882 48.5673 258.882 L28.3562 258.882 L28.3562 253.026 L64.0042 253.026 L64.0042 258.882 L58.5296 258.882 Q61.7762 261.015 63.3676 263.847 Q64.9272 266.648 64.9272 270.372 Q64.9272 276.515 61.1078 279.698 Q57.2883 282.881 49.9359 282.881 M27.4968 268.144 L27.4968 268.144 Z" fill="#000000" fill-rule="evenodd" fill-opacity="1" /><path clip-path="url(#clip670)" d="M35.1993 213.208 Q31.2526 211.012 29.3747 207.956 Q27.4968 204.901 27.4968 200.763 Q27.4968 195.193 31.4117 192.169 Q35.2948 189.146 42.4881 189.146 L64.0042 189.146 L64.0042 195.034 L42.679 195.034 Q37.5546 195.034 35.072 196.848 Q32.5894 198.662 32.5894 202.386 Q32.5894 206.938 35.6131 209.58 Q38.6368 212.221 43.8567 212.221 L64.0042 212.221 L64.0042 218.11 L42.679 218.11 Q37.5228 218.11 35.072 219.924 Q32.5894 221.738 32.5894 225.526 Q32.5894 230.014 35.6449 232.655 Q38.6686 235.297 43.8567 235.297 L64.0042 235.297 L64.0042 241.185 L28.3562 241.185 L28.3562 235.297 L33.8944 235.297 Q30.616 233.292 29.0564 230.491 Q27.4968 227.69 27.4968 223.839 Q27.4968 219.956 29.4702 217.25 Q31.4436 214.513 35.1993 213.208 Z" fill="#000000" fill-rule="evenodd" fill-opacity="1" /><path clip-path="url(#clip670)" d="M29.4065 134.019 L34.9447 134.019 Q33.6716 136.501 33.035 139.175 Q32.3984 141.849 32.3984 144.713 Q32.3984 149.074 33.7352 151.27 Q35.072 153.434 37.7456 153.434 Q39.7826 153.434 40.9603 151.875 Q42.1061 150.315 43.1565 145.604 L43.6021 143.599 Q44.9389 137.361 47.3897 134.751 Q49.8086 132.109 54.1691 132.109 Q59.1344 132.109 62.0308 136.056 Q64.9272 139.971 64.9272 146.846 Q64.9272 149.71 64.3543 152.829 Q63.8132 155.917 62.6992 159.354 L56.6518 159.354 Q58.3387 156.108 59.198 152.957 Q60.0256 149.806 60.0256 146.718 Q60.0256 142.581 58.6251 140.353 Q57.1929 138.125 54.6147 138.125 Q52.2276 138.125 50.9545 139.748 Q49.6813 141.339 48.5037 146.782 L48.0262 148.819 Q46.8804 154.262 44.5251 156.681 Q42.138 159.1 38.0002 159.1 Q32.9713 159.1 30.2341 155.535 Q27.4968 151.97 27.4968 145.413 Q27.4968 142.167 27.9743 139.302 Q28.4517 136.438 29.4065 134.019 Z" fill="#000000" fill-rule="evenodd" fill-opacity="1" /><path clip-path="url(#clip670)" d="M58.657 117.118 L77.5631 117.118 L77.5631 123.006 L28.3562 123.006 L28.3562 117.118 L33.7671 117.118 Q30.5842 115.272 29.0564 112.471 Q27.4968 109.638 27.4968 105.723 Q27.4968 99.2301 32.6531 95.1879 Q37.8093 91.1139 46.212 91.1139 Q54.6147 91.1139 59.771 95.1879 Q64.9272 99.2301 64.9272 105.723 Q64.9272 109.638 63.3994 112.471 Q61.8398 115.272 58.657 117.118 M46.212 97.1931 Q39.7508 97.1931 36.0905 99.8667 Q32.3984 102.508 32.3984 107.155 Q32.3984 111.802 36.0905 114.476 Q39.7508 117.118 46.212 117.118 Q52.6732 117.118 56.3653 114.476 Q60.0256 111.802 60.0256 107.155 Q60.0256 102.508 56.3653 99.8667 Q52.6732 97.1931 46.212 97.1931 Z" fill="#000000" fill-rule="evenodd" fill-opacity="1" /><path clip-path="url(#clip670)" d="M46.0847 65.2054 Q46.0847 72.3032 47.7079 75.0404 Q49.3312 77.7777 53.2461 77.7777 Q56.3653 77.7777 58.2114 75.7407 Q60.0256 73.6718 60.0256 70.1389 Q60.0256 65.2691 56.5881 62.3409 Q53.1188 59.3808 47.3897 59.3808 L46.0847 59.3808 L46.0847 65.2054 M43.6657 53.5244 L64.0042 53.5244 L64.0042 59.3808 L58.5933 59.3808 Q61.8398 61.386 63.3994 64.3779 Q64.9272 67.3698 64.9272 71.6985 Q64.9272 77.173 61.8716 80.4195 Q58.7843 83.6342 53.6281 83.6342 Q47.6125 83.6342 44.5569 79.6238 Q41.5014 75.5815 41.5014 67.5926 L41.5014 59.3808 L40.9285 59.3808 Q36.8862 59.3808 34.6901 62.0544 Q32.4621 64.6962 32.4621 69.5023 Q32.4621 72.5578 33.1941 75.4542 Q33.9262 78.3506 35.3903 81.0242 L29.9795 81.0242 Q28.7381 77.8095 28.1334 74.7858 Q27.4968 71.7621 27.4968 68.8975 Q27.4968 61.1632 31.5072 57.3438 Q35.5176 53.5244 43.6657 53.5244 Z" fill="#000000" fill-rule="evenodd" fill-opacity="1" /><path clip-path="url(#clip670)" d="M29.7248 15.8075 L35.1993 15.8075 Q33.8307 18.2902 33.1623 20.8046 Q32.4621 23.2873 32.4621 25.8335 Q32.4621 31.5308 36.0905 34.6819 Q39.6872 37.8329 46.212 37.8329 Q52.7369 37.8329 56.3653 34.6819 Q59.9619 31.5308 59.9619 25.8335 Q59.9619 23.2873 59.2935 20.8046 Q58.5933 18.2902 57.2247 15.8075 L62.6355 15.8075 Q63.7814 18.2583 64.3543 20.9001 Q64.9272 23.5101 64.9272 26.4701 Q64.9272 34.5227 59.8664 39.2652 Q54.8057 44.0076 46.212 44.0076 Q37.491 44.0076 32.4939 39.2333 Q27.4968 34.4272 27.4968 26.0882 Q27.4968 23.3827 28.0697 20.8046 Q28.6108 18.2265 29.7248 15.8075 Z" fill="#000000" fill-rule="evenodd" fill-opacity="1" /><path clip-path="url(#clip670)" d="M28.3562 5.62242 L28.3562 -0.234033 L64.0042 -0.234033 L64.0042 5.62242 L28.3562 5.62242 M14.479 5.62242 L14.479 -0.234033 L21.895 -0.234033 L21.895 5.62242 L14.479 5.62242 Z" fill="#000000" fill-rule="evenodd" fill-opacity="1" /><path clip-path="url(#clip670)" d="M42.4881 -42.1204 L64.0042 -42.1204 L64.0042 -36.2639 L42.679 -36.2639 Q37.6183 -36.2639 35.1038 -34.2906 Q32.5894 -32.3172 32.5894 -28.3705 Q32.5894 -23.628 35.6131 -20.8908 Q38.6368 -18.1535 43.8567 -18.1535 L64.0042 -18.1535 L64.0042 -12.2652 L28.3562 -12.2652 L28.3562 -18.1535 L33.8944 -18.1535 Q30.6797 -20.2542 29.0883 -23.0869 Q27.4968 -25.9515 27.4968 -29.6754 Q27.4968 -35.8183 31.3163 -38.9694 Q35.1038 -42.1204 42.4881 -42.1204 Z" fill="#000000" fill-rule="evenodd" fill-opacity="1" /><path clip-path="url(#clip670)" d="M45.7664 -77.2591 Q39.4007 -77.2591 35.8996 -74.6173 Q32.3984 -72.0074 32.3984 -67.2649 Q32.3984 -62.5543 35.8996 -59.9125 Q39.4007 -57.3026 45.7664 -57.3026 Q52.1003 -57.3026 55.6014 -59.9125 Q59.1026 -62.5543 59.1026 -67.2649 Q59.1026 -72.0074 55.6014 -74.6173 Q52.1003 -77.2591 45.7664 -77.2591 M59.58 -83.1155 Q68.683 -83.1155 73.1071 -79.0733 Q77.5631 -75.0311 77.5631 -66.692 Q77.5631 -63.6046 77.0857 -60.8674 Q76.6401 -58.1301 75.6852 -55.552 L69.9879 -55.552 Q71.3884 -58.1301 72.0568 -60.6446 Q72.7252 -63.159 72.7252 -65.769 Q72.7252 -71.5299 69.7015 -74.3945 Q66.7096 -77.2591 60.6303 -77.2591 L57.7339 -77.2591 Q60.885 -75.4449 62.4446 -72.6121 Q64.0042 -69.7794 64.0042 -65.8326 Q64.0042 -59.276 59.0071 -55.2656 Q54.01 -51.2552 45.7664 -51.2552 Q37.491 -51.2552 32.4939 -55.2656 Q27.4968 -59.276 27.4968 -65.8326 Q27.4968 -69.7794 29.0564 -72.6121 Q30.616 -75.4449 33.7671 -77.2591 L28.3562 -77.2591 L28.3562 -83.1155 L59.58 -83.1155 Z" fill="#000000" fill-rule="evenodd" fill-opacity="1" /><polyline clip-path="url(#clip672)" style="stroke:#009af9; stroke-linecap:round; stroke-linejoin:round; stroke-width:4; stroke-opacity:1; fill:none" points="237.067,1384.24 238.739,1369.8 240.41,1358.31 242.082,1348.47 243.754,1339.72 245.425,1331.77 247.097,1324.43 248.769,1317.58 250.44,1311.13 254.304,1297.43 258.169,1285.05 262.033,1273.65 265.897,1263.04 273.625,1243.65 281.354,1226.12 289.082,1209.99 296.81,1194.98 304.539,1180.88 312.267,1167.54 327.724,1142.73 343.18,1119.91 358.637,1098.67 374.094,1078.72 392.672,1056.16 411.249,1034.89 429.827,1014.71 448.405,995.476 479.819,964.764 511.233,935.966 545.358,906.483 579.483,878.58 610.943,854.057 642.403,830.54 676.131,806.315 709.86,782.999 748.938,756.999 788.015,731.969 857.471,689.573 918.377,654.306 984.781,617.603 1051.58,582.288 1125.43,544.885 1195.7,510.712 1268.77,476.481 1330.28,448.593 1405.37,415.586 1474.15,386.268 1537.69,359.904 1602.04,333.846 1674.16,305.362 1739.52,280.16 1814.35,251.969 1883.63,226.457 1951.94,201.824 2018.26,178.372 2086.24,154.78 2160.73,129.423 2268.94,93.4471 2291.13,86.1857 "/>
<path clip-path="url(#clip670)" d="M248.022 196.789 L518.184 196.789 L518.184 93.1086 L248.022 93.1086  Z" fill="#ffffff" fill-rule="evenodd" fill-opacity="1"/>
<polyline clip-path="url(#clip670)" style="stroke:#000000; stroke-linecap:round; stroke-linejoin:round; stroke-width:4; stroke-opacity:1; fill:none" points="248.022,196.789 518.184,196.789 518.184,93.1086 248.022,93.1086 248.022,196.789 "/>
<polyline clip-path="url(#clip670)" style="stroke:#009af9; stroke-linecap:round; stroke-linejoin:round; stroke-width:4; stroke-opacity:1; fill:none" points="272.215,144.949 417.369,144.949 "/>
<path clip-path="url(#clip670)" d="M455.403 164.636 Q453.598 169.266 451.885 170.678 Q450.172 172.09 447.302 172.09 L443.899 172.09 L443.899 168.525 L446.399 168.525 Q448.158 168.525 449.13 167.692 Q450.103 166.858 451.283 163.756 L452.047 161.812 L441.561 136.303 L446.075 136.303 L454.177 156.581 L462.278 136.303 L466.792 136.303 L455.403 164.636 Z" fill="#000000" fill-rule="evenodd" fill-opacity="1" /><path clip-path="url(#clip670)" d="M474.084 158.293 L481.723 158.293 L481.723 131.928 L473.413 133.595 L473.413 129.335 L481.676 127.669 L486.352 127.669 L486.352 158.293 L493.991 158.293 L493.991 162.229 L474.084 162.229 L474.084 158.293 Z" fill="#000000" fill-rule="evenodd" fill-opacity="1" /></svg>
