<?xml version="1.0" encoding="utf-8"?>
<svg xmlns="http://www.w3.org/2000/svg" xmlns:xlink="http://www.w3.org/1999/xlink" width="600" height="400" viewBox="0 0 2400 1600">
<defs>
  <clipPath id="clip950">
    <rect x="0" y="0" width="2400" height="1600"/>
  </clipPath>
</defs>
<path clip-path="url(#clip950)" d="M0 1600 L2400 1600 L2400 0 L0 0  Z" fill="#ffffff" fill-rule="evenodd" fill-opacity="1"/>
<defs>
  <clipPath id="clip951">
    <rect x="480" y="0" width="1681" height="1600"/>
  </clipPath>
</defs>
<defs>
  <clipPath id="clip952">
    <rect x="186" y="123" width="2167" height="1301"/>
  </clipPath>
</defs>
<path clip-path="url(#clip950)" d="M186.274 1423.18 L2352.76 1423.18 L2352.76 123.472 L186.274 123.472  Z" fill="#ffffff" fill-rule="evenodd" fill-opacity="1"/>
<polyline clip-path="url(#clip952)" style="stroke:#000000; stroke-linecap:round; stroke-linejoin:round; stroke-width:2; stroke-opacity:0.1; fill:none" points="247.59,1423.18 247.59,123.472 "/>
<polyline clip-path="url(#clip952)" style="stroke:#000000; stroke-linecap:round; stroke-linejoin:round; stroke-width:2; stroke-opacity:0.1; fill:none" points="789.738,1423.18 789.738,123.472 "/>
<polyline clip-path="url(#clip952)" style="stroke:#000000; stroke-linecap:round; stroke-linejoin:round; stroke-width:2; stroke-opacity:0.1; fill:none" points="1331.89,1423.18 1331.89,123.472 "/>
<polyline clip-path="url(#clip952)" style="stroke:#000000; stroke-linecap:round; stroke-linejoin:round; stroke-width:2; stroke-opacity:0.1; fill:none" points="1874.03,1423.18 1874.03,123.472 "/>
<polyline clip-path="url(#clip950)" style="stroke:#000000; stroke-linecap:round; stroke-linejoin:round; stroke-width:4; stroke-opacity:1; fill:none" points="186.274,1423.18 2352.76,1423.18 "/>
<polyline clip-path="url(#clip950)" style="stroke:#000000; stroke-linecap:round; stroke-linejoin:round; stroke-width:4; stroke-opacity:1; fill:none" points="247.59,1423.18 247.59,1404.28 "/>
<polyline clip-path="url(#clip950)" style="stroke:#000000; stroke-linecap:round; stroke-linejoin:round; stroke-width:4; stroke-opacity:1; fill:none" points="789.738,1423.18 789.738,1404.28 "/>
<polyline clip-path="url(#clip950)" style="stroke:#000000; stroke-linecap:round; stroke-linejoin:round; stroke-width:4; stroke-opacity:1; fill:none" points="1331.89,1423.18 1331.89,1404.28 "/>
<polyline clip-path="url(#clip950)" style="stroke:#000000; stroke-linecap:round; stroke-linejoin:round; stroke-width:4; stroke-opacity:1; fill:none" points="1874.03,1423.18 1874.03,1404.28 "/>
<path clip-path="url(#clip950)" d="M247.59 1454.1 Q243.978 1454.1 242.15 1457.66 Q240.344 1461.2 240.344 1468.33 Q240.344 1475.44 242.15 1479.01 Q243.978 1482.55 247.59 1482.55 Q251.224 1482.55 253.029 1479.01 Q254.858 1475.44 254.858 1468.33 Q254.858 1461.2 253.029 1457.66 Q251.224 1454.1 247.59 1454.1 M247.59 1450.39 Q253.4 1450.39 256.455 1455 Q259.534 1459.58 259.534 1468.33 Q259.534 1477.06 256.455 1481.67 Q253.4 1486.25 247.59 1486.25 Q241.779 1486.25 238.701 1481.67 Q235.645 1477.06 235.645 1468.33 Q235.645 1459.58 238.701 1455 Q241.779 1450.39 247.59 1450.39 Z" fill="#000000" fill-rule="evenodd" fill-opacity="1" /><path clip-path="url(#clip950)" d="M753.43 1481.64 L769.749 1481.64 L769.749 1485.58 L747.805 1485.58 L747.805 1481.64 Q750.467 1478.89 755.05 1474.26 Q759.657 1469.61 760.837 1468.27 Q763.083 1465.74 763.962 1464.01 Q764.865 1462.25 764.865 1460.56 Q764.865 1457.8 762.921 1456.07 Q761 1454.33 757.898 1454.33 Q755.699 1454.33 753.245 1455.09 Q750.814 1455.86 748.037 1457.41 L748.037 1452.69 Q750.861 1451.55 753.314 1450.97 Q755.768 1450.39 757.805 1450.39 Q763.175 1450.39 766.37 1453.08 Q769.564 1455.77 769.564 1460.26 Q769.564 1462.39 768.754 1464.31 Q767.967 1466.2 765.861 1468.8 Q765.282 1469.47 762.18 1472.69 Q759.078 1475.88 753.43 1481.64 Z" fill="#000000" fill-rule="evenodd" fill-opacity="1" /><path clip-path="url(#clip950)" d="M789.564 1454.1 Q785.953 1454.1 784.124 1457.66 Q782.319 1461.2 782.319 1468.33 Q782.319 1475.44 784.124 1479.01 Q785.953 1482.55 789.564 1482.55 Q793.198 1482.55 795.004 1479.01 Q796.833 1475.44 796.833 1468.33 Q796.833 1461.2 795.004 1457.66 Q793.198 1454.1 789.564 1454.1 M789.564 1450.39 Q795.374 1450.39 798.43 1455 Q801.509 1459.58 801.509 1468.33 Q801.509 1477.06 798.43 1481.67 Q795.374 1486.25 789.564 1486.25 Q783.754 1486.25 780.675 1481.67 Q777.62 1477.06 777.62 1468.33 Q777.62 1459.58 780.675 1455 Q783.754 1450.39 789.564 1450.39 Z" fill="#000000" fill-rule="evenodd" fill-opacity="1" /><path clip-path="url(#clip950)" d="M819.726 1454.1 Q816.115 1454.1 814.286 1457.66 Q812.481 1461.2 812.481 1468.33 Q812.481 1475.44 814.286 1479.01 Q816.115 1482.55 819.726 1482.55 Q823.36 1482.55 825.166 1479.01 Q826.995 1475.44 826.995 1468.33 Q826.995 1461.2 825.166 1457.66 Q823.36 1454.1 819.726 1454.1 M819.726 1450.39 Q825.536 1450.39 828.592 1455 Q831.67 1459.58 831.67 1468.33 Q831.67 1477.06 828.592 1481.67 Q825.536 1486.25 819.726 1486.25 Q813.916 1486.25 810.837 1481.67 Q807.782 1477.06 807.782 1468.33 Q807.782 1459.58 810.837 1455 Q813.916 1450.39 819.726 1450.39 Z" fill="#000000" fill-rule="evenodd" fill-opacity="1" /><path clip-path="url(#clip950)" d="M1304.98 1455.09 L1293.17 1473.54 L1304.98 1473.54 L1304.98 1455.09 M1303.75 1451.02 L1309.63 1451.02 L1309.63 1473.54 L1314.56 1473.54 L1314.56 1477.43 L1309.63 1477.43 L1309.63 1485.58 L1304.98 1485.58 L1304.98 1477.43 L1289.37 1477.43 L1289.37 1472.92 L1303.75 1451.02 Z" fill="#000000" fill-rule="evenodd" fill-opacity="1" /><path clip-path="url(#clip950)" d="M1332.29 1454.1 Q1328.68 1454.1 1326.85 1457.66 Q1325.05 1461.2 1325.05 1468.33 Q1325.05 1475.44 1326.85 1479.01 Q1328.68 1482.55 1332.29 1482.55 Q1335.93 1482.55 1337.73 1479.01 Q1339.56 1475.44 1339.56 1468.33 Q1339.56 1461.2 1337.73 1457.66 Q1335.93 1454.1 1332.29 1454.1 M1332.29 1450.39 Q1338.1 1450.39 1341.16 1455 Q1344.24 1459.58 1344.24 1468.33 Q1344.24 1477.06 1341.16 1481.67 Q1338.1 1486.25 1332.29 1486.25 Q1326.48 1486.25 1323.4 1481.67 Q1320.35 1477.06 1320.35 1468.33 Q1320.35 1459.58 1323.4 1455 Q1326.48 1450.39 1332.29 1450.39 Z" fill="#000000" fill-rule="evenodd" fill-opacity="1" /><path clip-path="url(#clip950)" d="M1362.45 1454.1 Q1358.84 1454.1 1357.01 1457.66 Q1355.21 1461.2 1355.21 1468.33 Q1355.21 1475.44 1357.01 1479.01 Q1358.84 1482.55 1362.45 1482.55 Q1366.09 1482.55 1367.89 1479.01 Q1369.72 1475.44 1369.72 1468.33 Q1369.72 1461.2 1367.89 1457.66 Q1366.09 1454.1 1362.45 1454.1 M1362.45 1450.39 Q1368.26 1450.39 1371.32 1455 Q1374.4 1459.58 1374.4 1468.33 Q1374.4 1477.06 1371.32 1481.67 Q1368.26 1486.25 1362.45 1486.25 Q1356.64 1486.25 1353.56 1481.67 Q1350.51 1477.06 1350.51 1468.33 Q1350.51 1459.58 1353.56 1455 Q1356.64 1450.39 1362.45 1450.39 Z" fill="#000000" fill-rule="evenodd" fill-opacity="1" /><path clip-path="url(#clip950)" d="M1844.36 1466.44 Q1841.21 1466.44 1839.36 1468.59 Q1837.53 1470.74 1837.53 1474.49 Q1837.53 1478.22 1839.36 1480.39 Q1841.21 1482.55 1844.36 1482.55 Q1847.51 1482.55 1849.34 1480.39 Q1851.19 1478.22 1851.19 1474.49 Q1851.19 1470.74 1849.34 1468.59 Q1847.51 1466.44 1844.36 1466.44 M1853.64 1451.78 L1853.64 1456.04 Q1851.88 1455.21 1850.08 1454.77 Q1848.29 1454.33 1846.53 1454.33 Q1841.9 1454.33 1839.45 1457.45 Q1837.02 1460.58 1836.67 1466.9 Q1838.04 1464.89 1840.1 1463.82 Q1842.16 1462.73 1844.64 1462.73 Q1849.84 1462.73 1852.85 1465.9 Q1855.89 1469.05 1855.89 1474.49 Q1855.89 1479.82 1852.74 1483.03 Q1849.59 1486.25 1844.36 1486.25 Q1838.36 1486.25 1835.19 1481.67 Q1832.02 1477.06 1832.02 1468.33 Q1832.02 1460.14 1835.91 1455.28 Q1839.8 1450.39 1846.35 1450.39 Q1848.11 1450.39 1849.89 1450.74 Q1851.7 1451.09 1853.64 1451.78 Z" fill="#000000" fill-rule="evenodd" fill-opacity="1" /><path clip-path="url(#clip950)" d="M1873.94 1454.1 Q1870.33 1454.1 1868.5 1457.66 Q1866.7 1461.2 1866.7 1468.33 Q1866.7 1475.44 1868.5 1479.01 Q1870.33 1482.55 1873.94 1482.55 Q1877.58 1482.55 1879.38 1479.01 Q1881.21 1475.44 1881.21 1468.33 Q1881.21 1461.2 1879.38 1457.66 Q1877.58 1454.1 1873.94 1454.1 M1873.94 1450.39 Q1879.75 1450.39 1882.81 1455 Q1885.89 1459.58 1885.89 1468.33 Q1885.89 1477.06 1882.81 1481.67 Q1879.75 1486.25 1873.94 1486.25 Q1868.13 1486.25 1865.05 1481.67 Q1862 1477.06 1862 1468.33 Q1862 1459.58 1865.05 1455 Q1868.13 1450.39 1873.94 1450.39 Z" fill="#000000" fill-rule="evenodd" fill-opacity="1" /><path clip-path="url(#clip950)" d="M1904.1 1454.1 Q1900.49 1454.1 1898.66 1457.66 Q1896.86 1461.2 1896.86 1468.33 Q1896.86 1475.44 1898.66 1479.01 Q1900.49 1482.55 1904.1 1482.55 Q1907.74 1482.55 1909.54 1479.01 Q1911.37 1475.44 1911.37 1468.33 Q1911.37 1461.2 1909.54 1457.66 Q1907.74 1454.1 1904.1 1454.1 M1904.1 1450.39 Q1909.91 1450.39 1912.97 1455 Q1916.05 1459.58 1916.05 1468.33 Q1916.05 1477.06 1912.97 1481.67 Q1909.91 1486.25 1904.1 1486.25 Q1898.29 1486.25 1895.21 1481.67 Q1892.16 1477.06 1892.16 1468.33 Q1892.16 1459.58 1895.21 1455 Q1898.29 1450.39 1904.1 1450.39 Z" fill="#000000" fill-rule="evenodd" fill-opacity="1" /><path clip-path="url(#clip950)" d="M1268.58 1522.27 L1268.58 1532.4 L1280.64 1532.4 L1280.64 1536.95 L1268.58 1536.95 L1268.58 1556.3 Q1268.58 1560.66 1269.75 1561.9 Q1270.96 1563.14 1274.62 1563.14 L1280.64 1563.14 L1280.64 1568.04 L1274.62 1568.04 Q1267.84 1568.04 1265.27 1565.53 Q1262.69 1562.98 1262.69 1556.3 L1262.69 1536.95 L1258.39 1536.95 L1258.39 1532.4 L1262.69 1532.4 L1262.69 1522.27 L1268.58 1522.27 Z" fill="#000000" fill-rule="evenodd" fill-opacity="1" /><polyline clip-path="url(#clip952)" style="stroke:#000000; stroke-linecap:round; stroke-linejoin:round; stroke-width:2; stroke-opacity:0.1; fill:none" points="186.274,1386.68 2352.76,1386.68 "/>
<polyline clip-path="url(#clip952)" style="stroke:#000000; stroke-linecap:round; stroke-linejoin:round; stroke-width:2; stroke-opacity:0.1; fill:none" points="186.274,1001.39 2352.76,1001.39 "/>
<polyline clip-path="url(#clip952)" style="stroke:#000000; stroke-linecap:round; stroke-linejoin:round; stroke-width:2; stroke-opacity:0.1; fill:none" points="186.274,616.096 2352.76,616.096 "/>
<polyline clip-path="url(#clip952)" style="stroke:#000000; stroke-linecap:round; stroke-linejoin:round; stroke-width:2; stroke-opacity:0.1; fill:none" points="186.274,230.803 2352.76,230.803 "/>
<polyline clip-path="url(#clip950)" style="stroke:#000000; stroke-linecap:round; stroke-linejoin:round; stroke-width:4; stroke-opacity:1; fill:none" points="186.274,1423.18 186.274,123.472 "/>
<polyline clip-path="url(#clip950)" style="stroke:#000000; stroke-linecap:round; stroke-linejoin:round; stroke-width:4; stroke-opacity:1; fill:none" points="186.274,1386.68 205.172,1386.68 "/>
<polyline clip-path="url(#clip950)" style="stroke:#000000; stroke-linecap:round; stroke-linejoin:round; stroke-width:4; stroke-opacity:1; fill:none" points="186.274,1001.39 205.172,1001.39 "/>
<polyline clip-path="url(#clip950)" style="stroke:#000000; stroke-linecap:round; stroke-linejoin:round; stroke-width:4; stroke-opacity:1; fill:none" points="186.274,616.096 205.172,616.096 "/>
<polyline clip-path="url(#clip950)" style="stroke:#000000; stroke-linecap:round; stroke-linejoin:round; stroke-width:4; stroke-opacity:1; fill:none" points="186.274,230.803 205.172,230.803 "/>
<path clip-path="url(#clip950)" d="M62.9365 1372.48 Q59.3254 1372.48 57.4967 1376.04 Q55.6912 1379.59 55.6912 1386.72 Q55.6912 1393.82 57.4967 1397.39 Q59.3254 1400.93 62.9365 1400.93 Q66.5707 1400.93 68.3763 1397.39 Q70.205 1393.82 70.205 1386.72 Q70.205 1379.59 68.3763 1376.04 Q66.5707 1372.48 62.9365 1372.48 M62.9365 1368.78 Q68.7467 1368.78 71.8022 1373.38 Q74.8809 1377.97 74.8809 1386.72 Q74.8809 1395.44 71.8022 1400.05 Q68.7467 1404.63 62.9365 1404.63 Q57.1264 1404.63 54.0477 1400.05 Q50.9921 1395.44 50.9921 1386.72 Q50.9921 1377.97 54.0477 1373.38 Q57.1264 1368.78 62.9365 1368.78 Z" fill="#000000" fill-rule="evenodd" fill-opacity="1" /><path clip-path="url(#clip950)" d="M83.0984 1398.08 L87.9827 1398.08 L87.9827 1403.96 L83.0984 1403.96 L83.0984 1398.08 Z" fill="#000000" fill-rule="evenodd" fill-opacity="1" /><path clip-path="url(#clip950)" d="M108.168 1372.48 Q104.557 1372.48 102.728 1376.04 Q100.922 1379.59 100.922 1386.72 Q100.922 1393.82 102.728 1397.39 Q104.557 1400.93 108.168 1400.93 Q111.802 1400.93 113.608 1397.39 Q115.436 1393.82 115.436 1386.72 Q115.436 1379.59 113.608 1376.04 Q111.802 1372.48 108.168 1372.48 M108.168 1368.78 Q113.978 1368.78 117.033 1373.38 Q120.112 1377.97 120.112 1386.72 Q120.112 1395.44 117.033 1400.05 Q113.978 1404.63 108.168 1404.63 Q102.358 1404.63 99.2789 1400.05 Q96.2234 1395.44 96.2234 1386.72 Q96.2234 1377.97 99.2789 1373.38 Q102.358 1368.78 108.168 1368.78 Z" fill="#000000" fill-rule="evenodd" fill-opacity="1" /><path clip-path="url(#clip950)" d="M138.33 1372.48 Q134.719 1372.48 132.89 1376.04 Q131.084 1379.59 131.084 1386.72 Q131.084 1393.82 132.89 1397.39 Q134.719 1400.93 138.33 1400.93 Q141.964 1400.93 143.769 1397.39 Q145.598 1393.82 145.598 1386.72 Q145.598 1379.59 143.769 1376.04 Q141.964 1372.48 138.33 1372.48 M138.33 1368.78 Q144.14 1368.78 147.195 1373.38 Q150.274 1377.97 150.274 1386.72 Q150.274 1395.44 147.195 1400.05 Q144.14 1404.63 138.33 1404.63 Q132.519 1404.63 129.441 1400.05 Q126.385 1395.44 126.385 1386.72 Q126.385 1377.97 129.441 1373.38 Q132.519 1368.78 138.33 1368.78 Z" fill="#000000" fill-rule="evenodd" fill-opacity="1" /><path clip-path="url(#clip950)" d="M63.9319 987.187 Q60.3208 987.187 58.4921 990.752 Q56.6865 994.294 56.6865 1001.42 Q56.6865 1008.53 58.4921 1012.09 Q60.3208 1015.64 63.9319 1015.64 Q67.5661 1015.64 69.3717 1012.09 Q71.2004 1008.53 71.2004 1001.42 Q71.2004 994.294 69.3717 990.752 Q67.5661 987.187 63.9319 987.187 M63.9319 983.484 Q69.742 983.484 72.7976 988.09 Q75.8763 992.673 75.8763 1001.42 Q75.8763 1010.15 72.7976 1014.76 Q69.742 1019.34 63.9319 1019.34 Q58.1217 1019.34 55.043 1014.76 Q51.9875 1010.15 51.9875 1001.42 Q51.9875 992.673 55.043 988.09 Q58.1217 983.484 63.9319 983.484 Z" fill="#000000" fill-rule="evenodd" fill-opacity="1" /><path clip-path="url(#clip950)" d="M84.0938 1012.79 L88.978 1012.79 L88.978 1018.67 L84.0938 1018.67 L84.0938 1012.79 Z" fill="#000000" fill-rule="evenodd" fill-opacity="1" /><path clip-path="url(#clip950)" d="M109.163 987.187 Q105.552 987.187 103.723 990.752 Q101.918 994.294 101.918 1001.42 Q101.918 1008.53 103.723 1012.09 Q105.552 1015.64 109.163 1015.64 Q112.797 1015.64 114.603 1012.09 Q116.432 1008.53 116.432 1001.42 Q116.432 994.294 114.603 990.752 Q112.797 987.187 109.163 987.187 M109.163 983.484 Q114.973 983.484 118.029 988.09 Q121.107 992.673 121.107 1001.42 Q121.107 1010.15 118.029 1014.76 Q114.973 1019.34 109.163 1019.34 Q103.353 1019.34 100.274 1014.76 Q97.2187 1010.15 97.2187 1001.42 Q97.2187 992.673 100.274 988.09 Q103.353 983.484 109.163 983.484 Z" fill="#000000" fill-rule="evenodd" fill-opacity="1" /><path clip-path="url(#clip950)" d="M129.371 984.109 L147.728 984.109 L147.728 988.044 L133.654 988.044 L133.654 996.516 Q134.672 996.169 135.691 996.007 Q136.709 995.821 137.728 995.821 Q143.515 995.821 146.894 998.993 Q150.274 1002.16 150.274 1007.58 Q150.274 1013.16 146.802 1016.26 Q143.33 1019.34 137.01 1019.34 Q134.834 1019.34 132.566 1018.97 Q130.32 1018.6 127.913 1017.86 L127.913 1013.16 Q129.996 1014.29 132.219 1014.85 Q134.441 1015.4 136.918 1015.4 Q140.922 1015.4 143.26 1013.3 Q145.598 1011.19 145.598 1007.58 Q145.598 1003.97 143.26 1001.86 Q140.922 999.757 136.918 999.757 Q135.043 999.757 133.168 1000.17 Q131.316 1000.59 129.371 1001.47 L129.371 984.109 Z" fill="#000000" fill-rule="evenodd" fill-opacity="1" /><path clip-path="url(#clip950)" d="M62.9365 601.894 Q59.3254 601.894 57.4967 605.459 Q55.6912 609.001 55.6912 616.13 Q55.6912 623.237 57.4967 626.802 Q59.3254 630.343 62.9365 630.343 Q66.5707 630.343 68.3763 626.802 Q70.205 623.237 70.205 616.13 Q70.205 609.001 68.3763 605.459 Q66.5707 601.894 62.9365 601.894 M62.9365 598.191 Q68.7467 598.191 71.8022 602.797 Q74.8809 607.381 74.8809 616.13 Q74.8809 624.857 71.8022 629.464 Q68.7467 634.047 62.9365 634.047 Q57.1264 634.047 54.0477 629.464 Q50.9921 624.857 50.9921 616.13 Q50.9921 607.381 54.0477 602.797 Q57.1264 598.191 62.9365 598.191 Z" fill="#000000" fill-rule="evenodd" fill-opacity="1" /><path clip-path="url(#clip950)" d="M83.0984 627.496 L87.9827 627.496 L87.9827 633.376 L83.0984 633.376 L83.0984 627.496 Z" fill="#000000" fill-rule="evenodd" fill-opacity="1" /><path clip-path="url(#clip950)" d="M98.978 629.441 L106.617 629.441 L106.617 603.075 L98.3067 604.742 L98.3067 600.482 L106.571 598.816 L111.246 598.816 L111.246 629.441 L118.885 629.441 L118.885 633.376 L98.978 633.376 L98.978 629.441 Z" fill="#000000" fill-rule="evenodd" fill-opacity="1" /><path clip-path="url(#clip950)" d="M138.33 601.894 Q134.719 601.894 132.89 605.459 Q131.084 609.001 131.084 616.13 Q131.084 623.237 132.89 626.802 Q134.719 630.343 138.33 630.343 Q141.964 630.343 143.769 626.802 Q145.598 623.237 145.598 616.13 Q145.598 609.001 143.769 605.459 Q141.964 601.894 138.33 601.894 M138.33 598.191 Q144.14 598.191 147.195 602.797 Q150.274 607.381 150.274 616.13 Q150.274 624.857 147.195 629.464 Q144.14 634.047 138.33 634.047 Q132.519 634.047 129.441 629.464 Q126.385 624.857 126.385 616.13 Q126.385 607.381 129.441 602.797 Q132.519 598.191 138.33 598.191 Z" fill="#000000" fill-rule="evenodd" fill-opacity="1" /><path clip-path="url(#clip950)" d="M63.9319 216.602 Q60.3208 216.602 58.4921 220.166 Q56.6865 223.708 56.6865 230.838 Q56.6865 237.944 58.4921 241.509 Q60.3208 245.051 63.9319 245.051 Q67.5661 245.051 69.3717 241.509 Q71.2004 237.944 71.2004 230.838 Q71.2004 223.708 69.3717 220.166 Q67.5661 216.602 63.9319 216.602 M63.9319 212.898 Q69.742 212.898 72.7976 217.504 Q75.8763 222.088 75.8763 230.838 Q75.8763 239.565 72.7976 244.171 Q69.742 248.754 63.9319 248.754 Q58.1217 248.754 55.043 244.171 Q51.9875 239.565 51.9875 230.838 Q51.9875 222.088 55.043 217.504 Q58.1217 212.898 63.9319 212.898 Z" fill="#000000" fill-rule="evenodd" fill-opacity="1" /><path clip-path="url(#clip950)" d="M84.0938 242.203 L88.978 242.203 L88.978 248.083 L84.0938 248.083 L84.0938 242.203 Z" fill="#000000" fill-rule="evenodd" fill-opacity="1" /><path clip-path="url(#clip950)" d="M99.9733 244.148 L107.612 244.148 L107.612 217.782 L99.3021 219.449 L99.3021 215.19 L107.566 213.523 L112.242 213.523 L112.242 244.148 L119.881 244.148 L119.881 248.083 L99.9733 248.083 L99.9733 244.148 Z" fill="#000000" fill-rule="evenodd" fill-opacity="1" /><path clip-path="url(#clip950)" d="M129.371 213.523 L147.728 213.523 L147.728 217.458 L133.654 217.458 L133.654 225.93 Q134.672 225.583 135.691 225.421 Q136.709 225.236 137.728 225.236 Q143.515 225.236 146.894 228.407 Q150.274 231.578 150.274 236.995 Q150.274 242.574 146.802 245.676 Q143.33 248.754 137.01 248.754 Q134.834 248.754 132.566 248.384 Q130.32 248.014 127.913 247.273 L127.913 242.574 Q129.996 243.708 132.219 244.264 Q134.441 244.819 136.918 244.819 Q140.922 244.819 143.26 242.713 Q145.598 240.606 145.598 236.995 Q145.598 233.384 143.26 231.278 Q140.922 229.171 136.918 229.171 Q135.043 229.171 133.168 229.588 Q131.316 230.004 129.371 230.884 L129.371 213.523 Z" fill="#000000" fill-rule="evenodd" fill-opacity="1" /><path clip-path="url(#clip950)" d="M873.406 49.0698 Q873.324 49.4797 873.16 50.2175 Q872.996 50.9144 872.258 53.1278 Q871.521 55.3412 870.537 57.5956 Q869.594 59.809 867.75 62.9242 Q865.946 65.9984 863.733 68.7857 Q863.118 69.5235 862.995 69.9744 Q862.913 70.3843 862.913 71.7369 Q862.913 80.2627 865.495 80.2627 Q865.618 80.2627 865.823 80.2627 Q866.069 80.2217 866.684 80.0167 Q867.34 79.7708 867.913 79.4019 Q868.487 78.992 869.143 78.1722 Q869.799 77.3115 870.209 76.1638 Q870.578 75.344 871.316 75.344 Q872.299 75.344 872.299 76.1638 Q872.299 77.6394 870.25 79.8938 Q868.2 82.1482 865.249 82.1482 Q862.421 82.1482 860.412 80.3037 Q858.445 78.4182 857.625 75.057 Q848.771 82.1482 839.918 82.1482 Q833.687 82.1482 829.998 78.0903 Q826.309 73.9913 826.309 67.9249 Q826.309 62.1044 829.507 56.5709 Q832.745 51.0373 837.991 47.5942 Q843.279 44.1101 848.894 44.1101 Q850.862 44.1101 852.747 44.643 Q854.633 45.1349 856.518 46.4055 Q858.404 47.6762 859.798 49.6027 Q861.191 51.5292 862.052 54.5624 Q862.913 57.5956 862.913 61.4076 L862.913 66.6133 Q868.323 59.768 871.152 49.9716 Q871.562 48.496 871.807 48.332 Q871.971 48.2091 872.381 48.2091 Q872.791 48.2091 873.037 48.455 Q873.324 48.66 873.365 48.8649 L873.406 49.0698 M857.297 72.8846 Q857.133 71.45 857.133 63.4981 Q857.133 61.9815 857.133 61.1617 Q857.133 60.3009 857.051 58.6613 Q856.969 57.0218 856.805 55.997 Q856.682 54.9723 856.395 53.4967 Q856.109 52.0211 855.699 51.0783 Q855.289 50.1356 854.633 49.0698 Q854.018 48.0041 853.198 47.3893 Q852.42 46.7744 851.272 46.3646 Q850.165 45.9547 848.812 45.9547 Q847.132 45.9547 845.369 46.5695 Q843.648 47.1433 841.434 48.9879 Q839.221 50.7914 837.376 53.6606 Q835.45 56.6938 833.974 62.2684 Q832.54 67.8019 832.54 71.1221 Q832.54 75.303 834.466 77.8033 Q836.393 80.2627 840.082 80.2627 Q848.894 80.2627 857.297 72.8846 Z" fill="#000000" fill-rule="evenodd" fill-opacity="1" /><path clip-path="url(#clip950)" d="M902.781 68.4578 Q902.863 67.433 904.461 67.433 L955.903 67.433 Q958.321 67.433 958.362 68.3758 Q958.362 69.4005 956.067 69.3595 L905.035 69.3595 Q902.781 69.4005 902.781 68.4578 M902.781 52.0621 Q902.781 51.0373 904.543 51.0783 L955.821 51.0783 Q958.321 51.0783 958.362 52.0621 Q958.362 53.0048 956.231 53.0048 L904.461 53.0048 Q902.781 53.0048 902.781 52.0621 Z" fill="#000000" fill-rule="evenodd" fill-opacity="1" /><path clip-path="url(#clip950)" d="M990.741 54.3575 Q990.741 42.0197 993.856 35.2974 Q998.201 25.2961 1008.45 25.2961 Q1010.62 25.2961 1012.87 25.9109 Q1015.17 26.4848 1018.04 28.7392 Q1020.95 30.9936 1022.71 34.6826 Q1026.07 41.8147 1026.07 54.3575 Q1026.07 66.6133 1022.96 73.2945 Q1018.41 83.05 1008.37 83.05 Q1004.59 83.05 1000.74 81.1235 Q996.93 79.197 994.512 74.5652 Q990.741 67.638 990.741 54.3575 M997.709 53.3327 Q997.709 65.9984 998.611 71.0401 Q999.635 76.4917 1002.42 78.869 Q1005.25 81.2054 1008.37 81.2054 Q1011.73 81.2054 1014.51 78.7051 Q1017.34 76.1638 1018.2 70.7122 Q1019.15 65.3426 1019.11 53.3327 Q1019.11 41.6508 1018.29 36.978 Q1017.18 31.5264 1014.23 29.354 Q1011.32 27.1406 1008.37 27.1406 Q1007.26 27.1406 1006.07 27.4685 Q1004.92 27.7964 1003.24 28.7392 Q1001.56 29.6819 1000.25 32.0183 Q998.979 34.3547 998.365 37.8798 Q997.709 42.4296 997.709 53.3327 Z" fill="#000000" fill-rule="evenodd" fill-opacity="1" /><path clip-path="url(#clip950)" d="M1033.58 79.8528 Q1032.31 78.5001 1032.31 76.7376 Q1032.31 74.9751 1033.58 73.7044 Q1034.85 72.3927 1036.78 72.3927 Q1038.62 72.3927 1039.85 73.6224 Q1041.12 74.8111 1041.12 76.7786 Q1041.12 78.7051 1039.77 79.9758 Q1038.46 81.2054 1036.78 81.2054 Q1034.85 81.2054 1033.58 79.8528 Z" fill="#000000" fill-rule="evenodd" fill-opacity="1" /><path clip-path="url(#clip950)" d="M1055.41 67.679 Q1055.41 65.1786 1056.76 64.2359 Q1058.12 63.2521 1059.55 63.2521 Q1061.48 63.2521 1062.58 64.4818 Q1063.73 65.6705 1063.73 67.3511 Q1063.73 69.0316 1062.58 70.2613 Q1061.48 71.45 1059.55 71.45 Q1058.61 71.45 1058.12 71.286 Q1059.22 75.139 1062.58 77.9263 Q1065.99 80.7136 1070.45 80.7136 Q1076.07 80.7136 1079.43 75.262 Q1081.44 71.7369 1081.44 63.744 Q1081.44 56.6938 1079.92 53.1688 Q1077.59 47.7992 1072.79 47.7992 Q1065.99 47.7992 1061.97 53.6606 Q1061.48 54.3984 1060.9 54.4394 Q1060.08 54.4394 1059.88 53.9886 Q1059.71 53.4967 1059.71 52.226 L1059.71 27.3865 Q1059.71 25.378 1060.53 25.378 Q1060.86 25.378 1061.56 25.624 Q1066.85 27.9604 1072.71 28.0014 Q1078.73 28.0014 1084.14 25.542 Q1084.55 25.2961 1084.8 25.2961 Q1085.62 25.2961 1085.66 26.2388 Q1085.66 26.5667 1084.96 27.5505 Q1084.31 28.4932 1082.87 29.7639 Q1081.44 30.9936 1079.59 32.1823 Q1077.75 33.371 1075.04 34.1907 Q1072.38 34.9695 1069.43 34.9695 Q1065.9 34.9695 1062.3 33.8628 L1062.3 50.2175 Q1066.64 45.9547 1072.95 45.9547 Q1079.68 45.9547 1084.31 51.3652 Q1088.94 56.7758 1088.94 64.3179 Q1088.94 72.2288 1083.45 77.6394 Q1078 83.05 1070.62 83.05 Q1063.89 83.05 1059.63 78.2542 Q1055.41 73.4585 1055.41 67.679 Z" fill="#000000" fill-rule="evenodd" fill-opacity="1" /><path clip-path="url(#clip950)" d="M1100.3 70.9161 L1108.85 70.9161 L1108.85 77.8837 L1102.21 90.8466 L1096.98 90.8466 L1100.3 77.8837 L1100.3 70.9161 Z" fill="#000000" fill-rule="evenodd" fill-opacity="1" /><path clip-path="url(#clip950)" d="M1181.32 42.957 Q1181.32 45.2934 1179.89 46.687 Q1178.49 48.0806 1176.73 48.0806 Q1175.17 48.0806 1174.35 47.1789 Q1173.53 46.2771 1173.53 45.1294 Q1173.53 44.6375 1173.74 44.0227 Q1173.94 43.3669 1174.39 42.5881 Q1174.88 41.8093 1175.91 41.2354 Q1176.93 40.6616 1178.33 40.5796 Q1178.04 40.2927 1177.96 40.2517 Q1177.34 39.7598 1176.2 39.5959 Q1176.03 39.5139 1175.46 39.5139 Q1172.63 39.5139 1169.76 41.6043 Q1166.93 43.6538 1163.45 47.5478 Q1159.06 52.0976 1156.23 53.7781 Q1168.65 55.4177 1168.65 62.5908 Q1168.65 63.7795 1168.33 65.2142 Q1167.67 67.9194 1167.67 69.8869 Q1167.67 73.8219 1170.33 73.8219 Q1172.92 73.8219 1174.56 71.1986 Q1176.24 68.5753 1177.63 63.4516 Q1177.84 62.5089 1178.04 62.2219 Q1178.25 61.935 1178.82 61.935 Q1179.84 61.935 1179.84 62.7548 Q1178.9 67.5505 1176.81 71.2396 Q1174.15 75.7074 1170.17 75.7074 Q1166.85 75.7074 1164.64 73.412 Q1162.46 71.0756 1162.46 67.3866 Q1162.46 66.4848 1162.79 64.4354 Q1163.04 63.6156 1163.04 62.6728 Q1163.04 60.7463 1161.97 59.3117 Q1160.91 57.8361 1159.19 57.0983 Q1157.46 56.3605 1156.03 56.0326 Q1154.64 55.6637 1153.28 55.5407 Q1149.18 72.8791 1148.61 73.9449 Q1148.24 74.6827 1147.42 75.1745 Q1146.6 75.7074 1145.74 75.7074 Q1144.92 75.7074 1144.1 75.1336 Q1143.32 74.6007 1143.32 73.33 Q1143.32 72.6742 1143.65 71.4855 L1155.82 23.1182 L1156.07 21.4786 Q1156.07 20.9867 1155.87 20.7408 Q1155.7 20.4539 1154.72 20.2489 Q1153.77 20.044 1151.89 20.044 Q1151.11 20.044 1150.74 20.003 Q1150.41 19.962 1150.13 19.757 Q1149.84 19.5111 1149.84 19.0192 Q1149.84 18.3224 1150.13 17.9535 Q1150.45 17.5436 1150.7 17.4616 Q1150.95 17.3797 1151.44 17.3387 Q1152.14 17.2977 1154.47 17.0927 Q1156.81 16.8468 1158.82 16.6828 Q1160.83 16.5189 1161.69 16.5189 Q1162.18 16.5189 1162.42 16.7648 Q1162.71 16.9698 1162.75 17.2157 L1162.79 17.4207 L1154.06 52.8354 Q1157.67 51.4008 1163.37 45.0474 Q1169.97 37.6694 1175.62 37.6694 Q1178.29 37.6694 1179.8 39.3089 Q1181.32 40.9075 1181.32 42.957 Z" fill="#000000" fill-rule="evenodd" fill-opacity="1" /><path clip-path="url(#clip950)" d="M1211.54 70.2138 Q1211.54 71.8205 1210.74 72.6813 Q1209.94 73.5134 1208.84 73.5134 Q1207.96 73.5134 1207.47 72.9969 Q1207.01 72.4805 1207.01 71.7919 Q1207.01 70.7876 1207.81 69.9842 Q1208.64 69.1808 1209.85 69.1521 Q1209.45 68.0905 1208.39 67.4593 Q1207.32 66.7994 1206.38 66.6272 Q1205.46 66.455 1204.54 66.455 Q1202.73 66.455 1201.36 67.0289 Q1199.98 67.6027 1199.29 68.4922 Q1198.6 69.353 1198.29 70.1851 Q1197.97 71.0172 1197.97 71.7345 Q1197.97 72.3657 1198.11 72.8822 Q1198.29 73.3699 1198.69 73.7429 Q1199.09 74.0873 1199.38 74.3168 Q1199.69 74.5463 1200.38 74.7472 Q1201.07 74.948 1201.36 75.0341 Q1201.64 75.0915 1202.45 75.2636 Q1204.11 75.608 1204.86 75.8088 Q1205.6 75.981 1206.58 76.4687 Q1207.58 76.9565 1208.33 77.7312 Q1210.14 79.5388 1210.14 82.0351 Q1210.14 82.9532 1209.82 84.0722 Q1209.53 85.1912 1208.7 86.5972 Q1207.87 88.0031 1206.61 89.1221 Q1205.34 90.2411 1203.16 91.0158 Q1201.01 91.7905 1198.31 91.7905 Q1194.56 91.7905 1192.23 90.2124 Q1189.91 88.6057 1189.91 86.0807 Q1189.91 84.2444 1190.91 83.2402 Q1191.92 82.2072 1193.21 82.2072 Q1194.18 82.2072 1194.79 82.7524 Q1195.39 83.2689 1195.39 84.2444 Q1195.39 85.5642 1194.33 86.5685 Q1193.26 87.5727 1191.69 87.3719 Q1193.04 90.4707 1198.37 90.4707 Q1200.38 90.4707 1201.93 89.9542 Q1203.51 89.409 1204.37 88.663 Q1205.26 87.8883 1205.83 86.9415 Q1206.41 85.9946 1206.58 85.2773 Q1206.78 84.56 1206.78 84.0149 Q1206.78 83.068 1206.41 82.3507 Q1206.03 81.6334 1205.52 81.2317 Q1205.03 80.8013 1204.08 80.457 Q1203.16 80.084 1202.5 79.9405 Q1201.84 79.7971 1200.67 79.5675 Q1200.12 79.4527 1199.78 79.3954 Q1199.43 79.3093 1198.72 79.0797 Q1198.03 78.8215 1197.54 78.5633 Q1197.08 78.305 1196.48 77.846 Q1195.88 77.3869 1195.5 76.8417 Q1195.13 76.2966 1194.87 75.4932 Q1194.61 74.6898 1194.61 73.7429 Q1194.61 72.8822 1194.87 71.8492 Q1195.16 70.8163 1195.88 69.6112 Q1196.62 68.4061 1197.68 67.4306 Q1198.74 66.455 1200.52 65.8238 Q1202.33 65.1639 1204.54 65.1639 Q1207.75 65.1639 1209.65 66.6559 Q1211.54 68.1192 1211.54 70.2138 Z" fill="#000000" fill-rule="evenodd" fill-opacity="1" /><path clip-path="url(#clip950)" d="M1243.58 62.017 Q1243.67 60.9923 1245.27 60.9923 L1296.71 60.9923 Q1299.13 60.9923 1299.17 61.935 Q1299.17 62.9597 1296.87 62.9188 L1245.84 62.9188 Q1243.58 62.9597 1243.58 62.017 M1243.58 45.6213 Q1243.58 44.5965 1245.35 44.6375 L1296.62 44.6375 Q1299.13 44.6375 1299.17 45.6213 Q1299.17 46.564 1297.03 46.564 L1245.27 46.564 Q1243.58 46.564 1243.58 45.6213 Z" fill="#000000" fill-rule="evenodd" fill-opacity="1" /><path clip-path="url(#clip950)" d="M1331.54 47.9167 Q1331.54 35.5789 1334.66 28.8567 Q1339 18.8553 1349.25 18.8553 Q1351.42 18.8553 1353.68 19.4701 Q1355.97 20.044 1358.84 22.2984 Q1361.75 24.5528 1363.52 28.2418 Q1366.88 35.374 1366.88 47.9167 Q1366.88 60.1725 1363.76 66.8537 Q1359.21 76.6092 1349.17 76.6092 Q1345.4 76.6092 1341.55 74.6827 Q1337.73 72.7562 1335.32 68.1244 Q1331.54 61.1972 1331.54 47.9167 M1338.51 46.8919 Q1338.51 59.5576 1339.41 64.5993 Q1340.44 70.0509 1343.23 72.4283 Q1346.05 74.7647 1349.17 74.7647 Q1352.53 74.7647 1355.32 72.2643 Q1358.15 69.723 1359.01 64.2714 Q1359.95 58.9018 1359.91 46.8919 Q1359.91 35.21 1359.09 30.5372 Q1357.98 25.0857 1355.03 22.9132 Q1352.12 20.6998 1349.17 20.6998 Q1348.06 20.6998 1346.87 21.0277 Q1345.73 21.3556 1344.05 22.2984 Q1342.37 23.2411 1341.05 25.5775 Q1339.78 27.9139 1339.17 31.439 Q1338.51 35.9888 1338.51 46.8919 Z" fill="#000000" fill-rule="evenodd" fill-opacity="1" /><path clip-path="url(#clip950)" d="M1376.44 70.9161 L1384.98 70.9161 L1384.98 77.8837 L1378.34 90.8466 L1373.11 90.8466 L1376.44 77.8837 L1376.44 70.9161 Z" fill="#000000" fill-rule="evenodd" fill-opacity="1" /><path clip-path="url(#clip950)" d="M1490.12 25.5151 Q1490.12 27.1957 1488.69 27.1957 Q1484.06 27.3596 1482.17 28.9172 Q1480.33 30.4338 1479.63 33.3851 L1467.91 80.1538 Q1467.5 81.6295 1467.25 81.7934 Q1467 81.9164 1466.55 81.9164 Q1465.98 81.9164 1465.65 81.6295 Q1465.37 81.3425 1464.96 80.3178 L1444.05 30.8847 Q1443.89 30.5568 1443.68 30.1059 Q1443.48 29.655 1443.31 29.3681 L1432.2 73.6775 Q1431.88 74.9482 1431.88 75.604 Q1431.88 77.2026 1432.98 78.2273 Q1434.13 79.2111 1437.41 79.3341 Q1439.09 79.3341 1439.09 80.2358 Q1439.09 81.9164 1437.57 81.9164 Q1436.18 81.9164 1433.27 81.7934 Q1430.36 81.6704 1428.93 81.6704 Q1427.53 81.6704 1424.7 81.7934 Q1421.88 81.9164 1420.52 81.9164 Q1419.46 81.9164 1419.46 80.9736 Q1419.46 80.2358 1419.74 79.8669 Q1420.03 79.457 1420.28 79.416 Q1420.52 79.3341 1420.89 79.3341 Q1423.35 79.2521 1425.03 78.7602 Q1426.71 78.2683 1427.66 77.3256 Q1428.64 76.3828 1429.09 75.4401 Q1429.58 74.4563 1429.95 73.0217 L1441.18 27.9335 Q1441.18 27.1957 1435.48 27.1957 Q1434.5 27.1957 1434.09 27.1547 Q1433.72 27.1137 1433.43 26.9088 Q1433.15 26.7038 1433.15 26.2529 Q1433.15 25.1052 1433.64 24.8593 Q1434.13 24.5724 1435.57 24.5724 L1446.84 24.5724 Q1448.27 24.5724 1448.64 24.8183 Q1449.01 25.0233 1449.5 26.171 L1468.07 69.9885 L1477.46 32.6473 Q1477.7 31.9095 1477.7 30.8847 Q1477.7 29.2452 1476.47 28.2614 Q1475.28 27.2367 1472.01 27.1957 Q1470.49 27.1957 1470.49 26.2529 Q1470.49 25.4741 1470.78 25.1052 Q1471.1 24.6953 1471.35 24.6544 Q1471.64 24.5724 1472.01 24.5724 Q1473.4 24.5724 1476.27 24.6953 Q1479.14 24.8183 1480.57 24.8183 Q1481.97 24.8183 1484.79 24.6953 Q1487.66 24.5724 1489.06 24.5724 Q1489.55 24.5724 1489.79 24.8183 Q1490.08 25.0233 1490.12 25.2692 L1490.12 25.5151 Z" fill="#000000" fill-rule="evenodd" fill-opacity="1" /><path clip-path="url(#clip950)" d="M1509.49 69.1687 Q1509.57 68.144 1511.17 68.144 L1562.61 68.144 Q1565.03 68.144 1565.07 69.0867 Q1565.07 70.1115 1562.77 70.0705 L1511.74 70.0705 Q1509.49 70.1115 1509.49 69.1687 M1509.49 52.773 Q1509.49 51.7483 1511.25 51.7893 L1562.53 51.7893 Q1565.03 51.7893 1565.07 52.773 Q1565.07 53.7158 1562.94 53.7158 L1511.17 53.7158 Q1509.49 53.7158 1509.49 52.773 Z" fill="#000000" fill-rule="evenodd" fill-opacity="1" /><path clip-path="url(#clip950)" d="M1597.45 33.9999 L1597.45 31.3766 Q1607.53 31.3766 1612.74 26.007 Q1614.17 26.007 1614.42 26.3349 Q1614.66 26.6628 1614.66 28.1794 L1614.66 75.2761 Q1614.66 77.7765 1615.89 78.5553 Q1617.12 79.3341 1622.49 79.3341 L1625.16 79.3341 L1625.16 81.9164 Q1622.21 81.6704 1611.55 81.6704 Q1600.89 81.6704 1597.98 81.9164 L1597.98 79.3341 L1600.64 79.3341 Q1605.93 79.3341 1607.2 78.5962 Q1608.47 77.8174 1608.47 75.2761 L1608.47 31.7865 Q1604.09 33.9999 1597.45 33.9999 Z" fill="#000000" fill-rule="evenodd" fill-opacity="1" /><path clip-path="url(#clip950)" d="M1629.24 55.0684 Q1629.24 42.7306 1632.36 36.0084 Q1636.7 26.007 1646.95 26.007 Q1649.12 26.007 1651.38 26.6218 Q1653.67 27.1957 1656.54 29.4501 Q1659.45 31.7045 1661.22 35.3935 Q1664.58 42.5257 1664.58 55.0684 Q1664.58 67.3242 1661.46 74.0054 Q1656.91 83.7609 1646.87 83.7609 Q1643.1 83.7609 1639.25 81.8344 Q1635.43 79.9079 1633.01 75.2761 Q1629.24 68.3489 1629.24 55.0684 M1636.21 54.0437 Q1636.21 66.7094 1637.11 71.751 Q1638.14 77.2026 1640.93 79.58 Q1643.75 81.9164 1646.87 81.9164 Q1650.23 81.9164 1653.02 79.416 Q1655.85 76.8747 1656.71 71.4231 Q1657.65 66.0535 1657.61 54.0437 Q1657.61 42.3617 1656.79 37.6889 Q1655.68 32.2374 1652.73 30.0649 Q1649.82 27.8515 1646.87 27.8515 Q1645.76 27.8515 1644.57 28.1794 Q1643.43 28.5073 1641.75 29.4501 Q1640.07 30.3929 1638.75 32.7292 Q1637.48 35.0656 1636.87 38.5907 Q1636.21 43.1405 1636.21 54.0437 Z" fill="#000000" fill-rule="evenodd" fill-opacity="1" /><path clip-path="url(#clip950)" d="M1671.15 55.0684 Q1671.15 42.7306 1674.27 36.0084 Q1678.61 26.007 1688.86 26.007 Q1691.03 26.007 1693.28 26.6218 Q1695.58 27.1957 1698.45 29.4501 Q1701.36 31.7045 1703.12 35.3935 Q1706.48 42.5257 1706.48 55.0684 Q1706.48 67.3242 1703.37 74.0054 Q1698.82 83.7609 1688.78 83.7609 Q1685 83.7609 1681.15 81.8344 Q1677.34 79.9079 1674.92 75.2761 Q1671.15 68.3489 1671.15 55.0684 M1678.12 54.0437 Q1678.12 66.7094 1679.02 71.751 Q1680.04 77.2026 1682.83 79.58 Q1685.66 81.9164 1688.78 81.9164 Q1692.14 81.9164 1694.92 79.416 Q1697.75 76.8747 1698.61 71.4231 Q1699.56 66.0535 1699.51 54.0437 Q1699.51 42.3617 1698.7 37.6889 Q1697.59 32.2374 1694.64 30.0649 Q1691.73 27.8515 1688.78 27.8515 Q1687.67 27.8515 1686.48 28.1794 Q1685.33 28.5073 1683.65 29.4501 Q1681.97 30.3929 1680.66 32.7292 Q1679.39 35.0656 1678.77 38.5907 Q1678.12 43.1405 1678.12 54.0437 Z" fill="#000000" fill-rule="evenodd" fill-opacity="1" /><polyline clip-path="url(#clip952)" style="stroke:#009af9; stroke-linecap:round; stroke-linejoin:round; stroke-width:4; stroke-opacity:1; fill:none" points="247.59,160.256 248.005,160.775 248.421,162.327 248.837,164.896 249.253,168.456 249.669,172.97 250.085,178.394 250.5,184.674 250.916,191.747 251.748,207.991 252.579,226.51 253.411,246.623 254.243,267.629 255.074,288.841 255.906,309.623 256.738,329.419 257.569,347.783 258.401,364.391 259.233,379.055 259.649,385.636 260.064,391.719 260.48,397.317 260.896,402.449 261.857,412.682 262.819,420.99 263.78,427.888 264.741,433.935 266.664,445.578 268.586,459.227 270.509,476.195 272.431,495.698 274.353,515.59 276.276,533.518 277.237,541.225 278.198,547.988 279.16,553.846 280.121,558.925 282.043,567.551 283.966,575.723 285.888,585.071 287.811,596.325 289.733,609.101 291.656,622.196 293.578,634.216 295.501,644.223 297.423,652.132 299.346,658.678 303.191,672.246 307.036,690.375 308.958,700.181 310.881,709.231 312.803,716.876 314.725,723.067 318.57,733.557 322.415,746.369 326.26,761.881 330.105,775.26 333.95,784.735 337.795,794.157 341.64,806.376 345.485,818.842 349.33,828.217 353.175,835.828 360.865,856.177 368.555,872.544 376.245,888.938 383.935,905.026 393.177,921.707 402.42,938.235 411.663,953.953 420.905,967.742 439.391,994.289 457.876,1018.4 473.505,1037.19 489.134,1054.71 504.763,1071.01 520.392,1086.16 537.37,1101.21 554.347,1115.23 571.325,1128.3 588.302,1140.54 619.606,1161.2 650.909,1179.37 684.47,1196.98 718.031,1212.77 756.914,1229.47 795.798,1243.87 864.908,1266.23 925.511,1282.98 991.585,1298.32 1058.05,1311.6 1131.54,1324.49 1201.46,1334.93 1274.16,1344.29 1335.36,1351.47 1410.08,1359.14 1478.52,1365.48 1541.74,1370.88 1605.77,1375.66 1677.54,1380.57 1742.57,1384.1 1779.8,1385.64 1817.03,1386.4 1851.5,1385.83 1885.97,1382.59 1894.46,1380.96 1902.96,1378.77 1911.45,1375.79 1919.95,1371.54 1924.2,1369.76 1928.45,1365.21 1932.69,1359.08 1936.94,1355.21 1939.07,1353.54 1941.19,1350.19 1942.25,1347.28 1943.31,1343.26 1944.38,1337.95 1945.44,1331.24 1946.5,1323.15 1947.56,1313.75 1948.62,1303.26 1949.68,1291.95 1951.81,1268.39 1953.93,1246.37 1954.96,1237.16 1955.99,1229.27 1957.03,1222.88 1958.06,1218.01 1959.09,1214.63 1960.12,1212.57 1961.15,1211.62 1962.18,1211.46 1964.24,1212.3 1966.31,1212.73 1968.37,1211.18 1970.43,1207.33 1972.49,1201.99 1974.55,1196.56 1976.62,1192.34 1978.68,1189.94 1980.74,1189.07 1982.8,1188.8 1984.87,1188.02 1986.93,1186.02 1991.05,1178.85 1995.18,1172.48 1999.3,1170.26 2003.43,1168.37 2007.55,1163.13 2011.67,1157.22 2015.8,1154.36 2019.92,1152.81 2036.83,1138.65 2053.75,1125.9 2070.66,1114.38 2087.57,1103.97 2106.1,1094.13 2124.63,1085.22 2143.16,1077.15 2161.69,1069.89 2188.6,1060.3 2215.52,1053.47 2242.44,1047.86 2269.35,1042.99 2274.87,1042.38 2280.4,1042.31 2285.92,1040.97 2291.44,1040.33 "/>
<polyline clip-path="url(#clip952)" style="stroke:#e26f46; stroke-linecap:round; stroke-linejoin:round; stroke-width:4; stroke-opacity:1; fill:none" points="247.59,160.256 248.421,161.867 249.253,166.637 250.085,174.38 250.916,184.798 251.748,197.501 252.579,212.021 253.411,227.848 254.243,244.448 255.906,277.911 257.569,308.79 258.401,322.445 259.233,334.665 259.649,340.215 260.064,345.39 260.48,350.199 260.896,354.655 261.857,363.701 262.819,371.249 263.78,377.675 264.741,383.394 266.664,394.304 268.586,406.575 270.509,421.363 272.431,438.243 274.353,455.687 276.276,471.893 278.198,485.605 280.121,496.588 282.043,505.622 283.966,514.06 285.888,523.202 287.811,533.751 289.733,545.586 291.656,557.902 293.578,569.639 295.501,579.975 297.423,588.675 299.346,596.149 303.191,610.76 307.036,628.649 310.881,647.878 314.725,663.727 318.57,676.373 322.415,690.083 326.26,706.211 330.105,721.489 333.95,733.654 337.795,744.915 341.64,758.091 345.485,772.176 349.33,784.307 353.175,794.458 360.865,817.645 368.555,839.405 376.245,859.184 383.935,880.234 393.177,901.603 402.42,924.155 411.663,944.142 420.905,964.11 439.391,1000.65 457.876,1034.21 473.505,1060.82 489.134,1085.59 504.763,1108.59 520.392,1129.9 537.37,1151.35 554.347,1171.22 571.325,1189.61 588.302,1206.63 603.954,1221.1 619.606,1234.53 635.258,1247.01 650.909,1258.65 667.69,1270.24 684.47,1280.92 701.25,1290.75 718.031,1299.79 737.472,1309.33 756.914,1318.01 776.356,1325.85 795.798,1332.88 830.353,1343.57 864.908,1352.33 895.209,1358.59 925.511,1363.82 958.548,1368.53 991.585,1372.32 1024.82,1375.35 1058.05,1377.75 1131.54,1381.29 1201.46,1383.22 1274.16,1384.37 1335.36,1384.96 1410.08,1385.39 1478.52,1385.7 1541.74,1385.96 1605.77,1386.15 1677.54,1386.23 1742.57,1386.11 1779.8,1385.82 1817.03,1385.24 1851.5,1384.23 1885.97,1382.18 1902.96,1380.27 1919.95,1376.92 1928.45,1374.99 1936.94,1369.61 1939.07,1369.2 1941.19,1368.55 1943.31,1366.46 1945.44,1361.57 1946.5,1357.74 1947.56,1352.9 1948.62,1347.06 1949.68,1340.29 1951.81,1324.64 1953.93,1307.7 1955.99,1292.04 1958.06,1278.83 1960.12,1268.95 1962.18,1262.24 1964.24,1257.67 1966.31,1253.8 1968.37,1249.33 1970.43,1243.55 1974.55,1228.99 1978.68,1215.78 1982.8,1207.05 1986.93,1198.91 1991.05,1187.71 1995.18,1175.8 1999.3,1166.82 2003.43,1159.43 2007.55,1150.11 2011.67,1139.26 2015.8,1130.15 2019.92,1123.06 2036.83,1088.51 2053.75,1056.27 2070.66,1026.24 2087.57,998.393 2106.1,970.789 2124.63,945.746 2143.16,923.254 2161.69,903.3 2175.14,889.703 2188.6,877.748 2202.06,868.061 2215.52,859.738 2228.98,851.911 2242.44,845.119 2255.89,840.286 2269.35,837.151 2274.87,835.284 2280.4,834.783 2285.92,834.301 2291.44,833.025 "/>
<polyline clip-path="url(#clip952)" style="stroke:#3da44d; stroke-linecap:round; stroke-linejoin:round; stroke-width:4; stroke-opacity:1; fill:none" points="247.59,160.256 249.253,162.994 250.916,170.817 252.579,182.644 254.243,196.926 255.906,211.97 257.569,226.264 258.401,232.775 259.233,238.748 260.064,244.142 260.896,248.958 262.819,258.118 264.741,265.355 266.664,271.935 268.586,278.967 270.509,287.049 272.431,296.149 274.353,305.736 276.276,315.08 283.966,343.624 291.656,371.967 307.036,425.232 322.415,476.601 337.795,526.49 353.175,574.816 368.555,621.403 383.935,666.182 402.42,718.013 420.905,767.403 439.391,814.199 457.876,858.278 473.505,893.423 489.134,926.438 504.763,957.386 520.392,986.361 537.37,1015.72 554.347,1042.87 571.325,1067.9 588.302,1090.95 603.954,1110.6 619.606,1128.8 635.258,1145.63 650.909,1161.17 667.69,1176.58 684.47,1190.81 701.25,1204 718.031,1216.25 737.472,1229.46 756.914,1241.66 776.356,1252.94 795.798,1263.39 830.353,1280.21 864.908,1294.95 895.209,1306.26 925.511,1316.24 958.548,1325.76 991.585,1333.94 1024.82,1340.96 1058.05,1346.95 1131.54,1357.44 1201.46,1364.96 1274.16,1370.94 1335.36,1374.68 1410.08,1377.91 1478.52,1379.89 1541.74,1381.36 1605.77,1382.73 1677.54,1384.13 1742.57,1384.96 1817.03,1385.05 1885.97,1384.25 1902.96,1383.98 1919.95,1383.67 1928.45,1383.79 1936.94,1383.25 1941.19,1383.5 1945.44,1383.52 1949.68,1381.27 1953.93,1375.73 1958.06,1368.74 1962.18,1362.56 1966.31,1357.84 1970.43,1353.17 1978.68,1341.15 1986.93,1330.04 2003.43,1304.22 2019.92,1275.58 2036.83,1243.49 2053.75,1208.92 2070.66,1172.29 2087.57,1134.11 2124.63,1047.67 2161.69,962.43 2175.14,932.839 2188.6,904.678 2202.06,877.624 2215.52,851.79 2228.98,827.827 2242.44,805.961 2255.89,785.81 2269.35,767.283 2274.87,760.575 2280.4,753.723 2285.92,747.389 2291.44,741.712 "/>
<polyline clip-path="url(#clip952)" style="stroke:#c271d2; stroke-linecap:round; stroke-linejoin:round; stroke-width:4; stroke-opacity:1; fill:none" points="247.59,160.256 249.253,161.169 250.916,163.784 252.579,167.753 254.243,172.579 255.906,177.712 257.569,182.659 259.233,187.064 260.896,190.76 276.276,215.985 291.656,239.474 307.036,262.932 322.415,286.788 353.175,335.448 383.935,384.274 420.905,442.487 457.876,498.439 489.134,543.001 520.392,584.928 554.347,627.517 588.302,667.305 619.606,701.912 650.909,734.793 684.47,768.553 718.031,800.876 756.914,836.486 795.798,870.045 830.353,898.021 864.908,924.329 895.209,946.137 925.511,966.871 958.548,988.324 991.585,1008.74 1024.82,1028.33 1058.05,1047 1094.79,1066.51 1131.54,1084.85 1166.5,1101.24 1201.46,1116.68 1274.16,1146.16 1335.36,1168.74 1410.08,1193.59 1478.52,1213.47 1541.74,1229.75 1605.77,1244.98 1677.54,1261.01 1742.57,1273.81 1817.03,1285.25 1885.97,1294.23 1902.96,1297.04 1919.95,1300.66 1928.45,1303.18 1936.94,1305.97 1941.19,1307.48 1945.44,1310.69 1949.68,1315.72 1953.93,1320.7 1958.06,1323.54 1962.18,1324.27 1966.31,1324.19 1970.43,1324.33 1978.68,1324.27 1986.93,1322.89 2003.43,1319.15 2019.92,1313.68 2036.83,1306.58 2053.75,1298.14 2070.66,1288.55 2087.57,1277.92 2106.1,1265.23 2124.63,1251.63 2143.16,1237.28 2161.69,1222.34 2215.52,1176.66 2269.35,1129.31 2280.4,1119.59 2291.44,1109.73 "/>
<polyline clip-path="url(#clip952)" style="stroke:#ac8d18; stroke-linecap:round; stroke-linejoin:round; stroke-width:4; stroke-opacity:1; fill:none" points="1865.64,2722.89 1865.64,-1176.24 "/>
<path clip-path="url(#clip950)" d="M1771.97 467.571 L2280.54 467.571 L2280.54 166.796 L1771.97 166.796  Z" fill="#ffffff" fill-rule="evenodd" fill-opacity="1"/>
<polyline clip-path="url(#clip950)" style="stroke:#000000; stroke-linecap:round; stroke-linejoin:round; stroke-width:4; stroke-opacity:1; fill:none" points="1771.97,467.571 2280.54,467.571 2280.54,166.796 1771.97,166.796 1771.97,467.571 "/>
<polyline clip-path="url(#clip950)" style="stroke:#009af9; stroke-linecap:round; stroke-linejoin:round; stroke-width:4; stroke-opacity:1; fill:none" points="1796.04,226.951 1940.47,226.951 "/>
<path clip-path="url(#clip950)" d="M1987.19 219.124 Q1987.19 222.591 1985.41 225.846 Q1983.66 229.102 1980.89 231.069 Q1978.15 233.037 1975.39 233.037 Q1972.27 233.037 1970.66 229.805 Q1967.73 241.539 1967.57 241.844 Q1966.89 242.851 1965.9 242.851 Q1965.29 242.851 1964.92 242.476 Q1964.54 242.125 1964.54 241.563 Q1964.57 241.375 1964.71 240.79 L1969.39 221.935 Q1970.47 217.555 1973.73 214.44 Q1977.01 211.301 1980.52 211.301 Q1983.31 211.301 1985.25 213.386 Q1987.19 215.47 1987.19 219.124 M1983.75 217.063 Q1983.75 214.721 1982.81 213.549 Q1981.88 212.355 1980.43 212.355 Q1979.09 212.355 1977.47 213.432 Q1975.88 214.51 1974.48 216.899 Q1973.73 218.281 1973.19 219.991 Q1972.65 221.7 1971.59 225.917 Q1971.22 227.603 1971.22 227.697 Q1971.22 227.884 1971.31 228.306 Q1971.43 228.727 1971.71 229.383 Q1972.02 230.015 1972.44 230.578 Q1972.86 231.14 1973.63 231.561 Q1974.41 231.96 1975.34 231.96 Q1976.79 231.96 1978.34 230.788 Q1979.91 229.594 1981.06 227.416 Q1982.02 225.659 1982.88 222.356 Q1983.75 219.03 1983.75 217.063 Z" fill="#000000" fill-rule="evenodd" fill-opacity="1" /><path clip-path="url(#clip950)" d="M2015.12 256.356 Q2015.12 256.668 2014.99 256.831 Q2014.88 256.979 2014.76 257.012 Q2014.66 257.028 2014.52 257.028 Q2014.09 257.028 2012.61 256.979 Q2011.14 256.93 2010.71 256.93 Q2010.02 256.93 2008.61 256.979 Q2007.2 257.028 2006.51 257.028 Q2006.06 257.028 2006.06 256.651 Q2006.06 256.405 2006.11 256.274 Q2006.15 256.126 2006.29 256.077 Q2006.43 256.012 2006.51 256.012 Q2006.61 255.995 2006.86 255.995 Q2007.19 255.995 2007.53 255.962 Q2007.88 255.913 2008.3 255.815 Q2008.73 255.717 2008.99 255.471 Q2009.27 255.225 2009.27 254.88 Q2009.27 254.733 2009.15 253.52 Q2009.04 252.306 2008.89 250.896 Q2008.74 249.47 2008.73 249.273 L2000.3 249.273 Q1999.53 250.601 1998.99 251.519 Q1998.45 252.437 1998.25 252.749 Q1998.05 253.06 1997.94 253.257 Q1997.83 253.454 1997.76 253.569 Q1997.28 254.438 1997.28 254.815 Q1997.28 255.864 1998.86 255.995 Q1999.4 255.995 1999.4 256.389 Q1999.4 256.684 1999.27 256.848 Q1999.14 256.995 1999.02 257.012 Q1998.92 257.028 1998.76 257.028 Q1998.22 257.028 1997.09 256.979 Q1995.96 256.93 1995.4 256.93 Q1994.92 256.93 1993.94 256.979 Q1992.96 257.028 1992.51 257.028 Q1992.32 257.028 1992.2 256.913 Q1992.09 256.799 1992.09 256.651 Q1992.09 256.422 1992.12 256.29 Q1992.17 256.159 1992.3 256.094 Q1992.43 256.028 1992.5 256.028 Q1992.56 256.012 1992.79 255.995 Q1994.04 255.913 1995.01 255.323 Q1995.99 254.716 1996.92 253.159 L2008.6 233.55 Q2008.71 233.353 2008.79 233.254 Q2008.88 233.156 2009.04 233.074 Q2009.22 232.992 2009.48 232.992 Q2009.89 232.992 2009.97 233.123 Q2010.06 233.238 2010.11 233.795 L2012.16 254.782 Q2012.2 255.225 2012.24 255.405 Q2012.29 255.569 2012.5 255.749 Q2012.73 255.913 2013.14 255.962 Q2013.57 255.995 2014.35 255.995 Q2014.65 255.995 2014.76 256.012 Q2014.88 256.012 2014.99 256.094 Q2015.12 256.176 2015.12 256.356 M2008.63 248.224 L2007.56 237.157 L2000.94 248.224 L2008.63 248.224 Z" fill="#000000" fill-rule="evenodd" fill-opacity="1" /><path clip-path="url(#clip950)" d="M2020.01 220.506 Q2020.01 212.402 2023.03 205.867 Q2024.32 203.126 2026.12 200.831 Q2027.93 198.536 2029.12 197.529 Q2030.32 196.521 2030.65 196.521 Q2031.11 196.521 2031.14 196.99 Q2031.14 197.224 2030.5 197.81 Q2022.78 205.68 2022.8 220.506 Q2022.8 235.379 2030.32 242.945 Q2031.14 243.764 2031.14 244.022 Q2031.14 244.491 2030.65 244.491 Q2030.32 244.491 2029.17 243.53 Q2028.02 242.57 2026.24 240.368 Q2024.46 238.166 2023.17 235.473 Q2020.01 228.938 2020.01 220.506 Z" fill="#000000" fill-rule="evenodd" fill-opacity="1" /><path clip-path="url(#clip950)" d="M2057.26 214.322 Q2057.26 215.657 2056.44 216.454 Q2055.64 217.25 2054.64 217.25 Q2053.75 217.25 2053.28 216.735 Q2052.81 216.22 2052.81 215.564 Q2052.81 215.283 2052.93 214.931 Q2053.04 214.557 2053.3 214.112 Q2053.58 213.667 2054.17 213.339 Q2054.75 213.011 2055.55 212.964 Q2055.39 212.8 2055.34 212.777 Q2054.99 212.495 2054.33 212.402 Q2054.24 212.355 2053.91 212.355 Q2052.29 212.355 2050.65 213.549 Q2049.04 214.721 2047.05 216.946 Q2044.54 219.546 2042.92 220.506 Q2050.02 221.443 2050.02 225.542 Q2050.02 226.221 2049.83 227.041 Q2049.46 228.587 2049.46 229.711 Q2049.46 231.96 2050.98 231.96 Q2052.46 231.96 2053.39 230.46 Q2054.36 228.961 2055.15 226.034 Q2055.27 225.495 2055.39 225.331 Q2055.5 225.167 2055.83 225.167 Q2056.42 225.167 2056.42 225.635 Q2055.88 228.376 2054.68 230.484 Q2053.16 233.037 2050.89 233.037 Q2048.99 233.037 2047.73 231.725 Q2046.49 230.39 2046.49 228.282 Q2046.49 227.767 2046.67 226.596 Q2046.81 226.127 2046.81 225.589 Q2046.81 224.488 2046.2 223.668 Q2045.6 222.825 2044.61 222.403 Q2043.63 221.982 2042.81 221.794 Q2042.01 221.583 2041.24 221.513 Q2038.9 231.421 2038.57 232.03 Q2038.36 232.451 2037.89 232.732 Q2037.42 233.037 2036.93 233.037 Q2036.46 233.037 2035.99 232.709 Q2035.55 232.405 2035.55 231.678 Q2035.55 231.304 2035.73 230.624 L2042.69 202.986 L2042.83 202.049 Q2042.83 201.768 2042.71 201.627 Q2042.62 201.463 2042.06 201.346 Q2041.52 201.229 2040.44 201.229 Q2040 201.229 2039.79 201.206 Q2039.6 201.182 2039.44 201.065 Q2039.27 200.925 2039.27 200.644 Q2039.27 200.246 2039.44 200.035 Q2039.62 199.8 2039.76 199.754 Q2039.9 199.707 2040.18 199.683 Q2040.58 199.66 2041.92 199.543 Q2043.25 199.402 2044.4 199.309 Q2045.55 199.215 2046.04 199.215 Q2046.32 199.215 2046.46 199.355 Q2046.63 199.473 2046.65 199.613 L2046.67 199.73 L2041.68 219.967 Q2043.74 219.147 2047 215.517 Q2050.77 211.301 2054 211.301 Q2055.53 211.301 2056.39 212.238 Q2057.26 213.151 2057.26 214.322 Z" fill="#000000" fill-rule="evenodd" fill-opacity="1" /><path clip-path="url(#clip950)" d="M2073.6 225.214 Q2073.65 224.628 2074.56 224.628 L2103.95 224.628 Q2105.34 224.628 2105.36 225.167 Q2105.36 225.753 2104.05 225.729 L2074.89 225.729 Q2073.6 225.753 2073.6 225.214 M2073.6 215.845 Q2073.6 215.259 2074.61 215.283 L2103.91 215.283 Q2105.34 215.283 2105.36 215.845 Q2105.36 216.384 2104.14 216.384 L2074.56 216.384 Q2073.6 216.384 2073.6 215.845 Z" fill="#000000" fill-rule="evenodd" fill-opacity="1" /><path clip-path="url(#clip950)" d="M2123.85 217.157 Q2123.85 210.106 2125.63 206.265 Q2128.11 200.55 2133.97 200.55 Q2135.21 200.55 2136.5 200.901 Q2137.81 201.229 2139.45 202.517 Q2141.11 203.806 2142.12 205.914 Q2144.04 209.989 2144.04 217.157 Q2144.04 224.16 2142.26 227.978 Q2139.66 233.552 2133.92 233.552 Q2131.77 233.552 2129.57 232.451 Q2127.39 231.351 2126.01 228.704 Q2123.85 224.745 2123.85 217.157 M2127.83 216.571 Q2127.83 223.808 2128.35 226.689 Q2128.93 229.805 2130.53 231.163 Q2132.14 232.498 2133.92 232.498 Q2135.84 232.498 2137.44 231.069 Q2139.05 229.617 2139.54 226.502 Q2140.08 223.434 2140.06 216.571 Q2140.06 209.896 2139.59 207.225 Q2138.96 204.11 2137.27 202.869 Q2135.61 201.604 2133.92 201.604 Q2133.29 201.604 2132.61 201.791 Q2131.95 201.979 2130.99 202.517 Q2130.03 203.056 2129.28 204.391 Q2128.56 205.726 2128.21 207.741 Q2127.83 210.341 2127.83 216.571 Z" fill="#000000" fill-rule="evenodd" fill-opacity="1" /><path clip-path="url(#clip950)" d="M2148.33 231.725 Q2147.6 230.952 2147.6 229.945 Q2147.6 228.938 2148.33 228.212 Q2149.05 227.462 2150.15 227.462 Q2151.21 227.462 2151.91 228.165 Q2152.64 228.844 2152.64 229.969 Q2152.64 231.069 2151.86 231.796 Q2151.11 232.498 2150.15 232.498 Q2149.05 232.498 2148.33 231.725 Z" fill="#000000" fill-rule="evenodd" fill-opacity="1" /><path clip-path="url(#clip950)" d="M2160.8 217.157 Q2160.8 210.106 2162.58 206.265 Q2165.06 200.55 2170.92 200.55 Q2172.16 200.55 2173.45 200.901 Q2174.76 201.229 2176.4 202.517 Q2178.06 203.806 2179.07 205.914 Q2180.99 209.989 2180.99 217.157 Q2180.99 224.16 2179.21 227.978 Q2176.61 233.552 2170.87 233.552 Q2168.71 233.552 2166.51 232.451 Q2164.33 231.351 2162.95 228.704 Q2160.8 224.745 2160.8 217.157 M2164.78 216.571 Q2164.78 223.808 2165.29 226.689 Q2165.88 229.805 2167.47 231.163 Q2169.09 232.498 2170.87 232.498 Q2172.79 232.498 2174.38 231.069 Q2176 229.617 2176.49 226.502 Q2177.03 223.434 2177.01 216.571 Q2177.01 209.896 2176.54 207.225 Q2175.91 204.11 2174.22 202.869 Q2172.56 201.604 2170.87 201.604 Q2170.24 201.604 2169.56 201.791 Q2168.9 201.979 2167.94 202.517 Q2166.98 203.056 2166.23 204.391 Q2165.51 205.726 2165.15 207.741 Q2164.78 210.341 2164.78 216.571 Z" fill="#000000" fill-rule="evenodd" fill-opacity="1" /><path clip-path="url(#clip950)" d="M2209.68 212.964 Q2209.68 214.603 2207.34 214.603 L2201.86 214.603 Q2201.02 218.492 2201.02 222.239 Q2201.02 226.713 2202.4 230.156 Q2202.68 230.835 2202.68 231.21 Q2202.68 231.913 2202.05 232.475 Q2201.44 233.037 2200.71 233.037 Q2200.11 233.037 2199.71 232.568 Q2199.33 232.1 2199 230.624 Q2198.61 228.891 2198.61 226.971 Q2198.61 224.675 2198.98 222.473 Q2199.36 220.248 2200.62 214.603 L2195.21 214.603 L2192.52 225.214 Q2191.56 228.797 2191.23 229.898 Q2191.02 230.554 2190.95 230.765 Q2190.88 230.976 2190.67 231.491 Q2190.48 231.983 2190.34 232.17 Q2190.2 232.334 2189.96 232.592 Q2189.73 232.873 2189.45 232.943 Q2189.17 233.037 2188.82 233.037 Q2188.28 233.037 2187.86 232.686 Q2187.43 232.358 2187.43 231.725 Q2187.43 231.304 2187.81 230.578 Q2192.26 220.974 2193.94 214.603 L2191.23 214.603 Q2187.48 214.603 2185.14 218.304 Q2184.76 218.796 2184.55 218.843 Q2184.46 218.866 2184.37 218.866 Q2184.11 218.866 2183.94 218.749 Q2183.8 218.632 2183.8 218.515 L2183.78 218.398 Q2183.78 218.257 2184.13 217.625 Q2184.51 216.969 2185.21 215.962 Q2185.93 214.955 2186.71 214.088 Q2187.46 213.292 2188.18 212.8 Q2188.93 212.285 2189.64 212.097 Q2190.34 211.91 2190.74 211.863 Q2191.13 211.816 2191.7 211.816 L2207.76 211.816 Q2208.37 211.816 2208.7 211.863 Q2209.03 211.886 2209.36 212.168 Q2209.68 212.425 2209.68 212.964 Z" fill="#000000" fill-rule="evenodd" fill-opacity="1" /><path clip-path="url(#clip950)" d="M2214.11 244.022 Q2214.11 243.788 2214.72 243.202 Q2222.45 235.332 2222.45 220.506 Q2222.45 205.633 2215.02 198.114 Q2214.11 197.247 2214.11 196.99 Q2214.11 196.521 2214.58 196.521 Q2214.91 196.521 2216.05 197.482 Q2217.23 198.442 2218.98 200.644 Q2220.76 202.845 2222.07 205.539 Q2225.24 212.074 2225.24 220.506 Q2225.24 228.61 2222.21 235.145 Q2220.93 237.885 2219.12 240.181 Q2217.32 242.476 2216.12 243.483 Q2214.93 244.491 2214.58 244.491 Q2214.11 244.491 2214.11 244.022 Z" fill="#000000" fill-rule="evenodd" fill-opacity="1" /><polyline clip-path="url(#clip950)" style="stroke:#e26f46; stroke-linecap:round; stroke-linejoin:round; stroke-width:4; stroke-opacity:1; fill:none" points="1796.04,287.106 1940.47,287.106 "/>
<path clip-path="url(#clip950)" d="M1987.19 279.279 Q1987.19 282.746 1985.41 286.001 Q1983.66 289.257 1980.89 291.224 Q1978.15 293.192 1975.39 293.192 Q1972.27 293.192 1970.66 289.96 Q1967.73 301.694 1967.57 301.999 Q1966.89 303.006 1965.9 303.006 Q1965.29 303.006 1964.92 302.631 Q1964.54 302.28 1964.54 301.718 Q1964.57 301.53 1964.71 300.945 L1969.39 282.09 Q1970.47 277.71 1973.73 274.595 Q1977.01 271.456 1980.52 271.456 Q1983.31 271.456 1985.25 273.541 Q1987.19 275.625 1987.19 279.279 M1983.75 277.218 Q1983.75 274.876 1982.81 273.704 Q1981.88 272.51 1980.43 272.51 Q1979.09 272.51 1977.47 273.587 Q1975.88 274.665 1974.48 277.054 Q1973.73 278.436 1973.19 280.146 Q1972.65 281.855 1971.59 286.072 Q1971.22 287.758 1971.22 287.852 Q1971.22 288.039 1971.31 288.461 Q1971.43 288.882 1971.71 289.538 Q1972.02 290.17 1972.44 290.733 Q1972.86 291.295 1973.63 291.716 Q1974.41 292.115 1975.34 292.115 Q1976.79 292.115 1978.34 290.943 Q1979.91 289.749 1981.06 287.571 Q1982.02 285.814 1982.88 282.511 Q1983.75 279.185 1983.75 277.218 Z" fill="#000000" fill-rule="evenodd" fill-opacity="1" /><path clip-path="url(#clip950)" d="M2015.12 316.511 Q2015.12 316.823 2014.99 316.986 Q2014.88 317.134 2014.76 317.167 Q2014.66 317.183 2014.52 317.183 Q2014.09 317.183 2012.61 317.134 Q2011.14 317.085 2010.71 317.085 Q2010.02 317.085 2008.61 317.134 Q2007.2 317.183 2006.51 317.183 Q2006.06 317.183 2006.06 316.806 Q2006.06 316.56 2006.11 316.429 Q2006.15 316.281 2006.29 316.232 Q2006.43 316.167 2006.51 316.167 Q2006.61 316.15 2006.86 316.15 Q2007.19 316.15 2007.53 316.117 Q2007.88 316.068 2008.3 315.97 Q2008.73 315.872 2008.99 315.626 Q2009.27 315.38 2009.27 315.035 Q2009.27 314.888 2009.15 313.675 Q2009.04 312.461 2008.89 311.051 Q2008.74 309.625 2008.73 309.428 L2000.3 309.428 Q1999.53 310.756 1998.99 311.674 Q1998.45 312.592 1998.25 312.904 Q1998.05 313.215 1997.94 313.412 Q1997.83 313.609 1997.76 313.724 Q1997.28 314.593 1997.28 314.97 Q1997.28 316.019 1998.86 316.15 Q1999.4 316.15 1999.4 316.544 Q1999.4 316.839 1999.27 317.003 Q1999.14 317.15 1999.02 317.167 Q1998.92 317.183 1998.76 317.183 Q1998.22 317.183 1997.09 317.134 Q1995.96 317.085 1995.4 317.085 Q1994.92 317.085 1993.94 317.134 Q1992.96 317.183 1992.51 317.183 Q1992.32 317.183 1992.2 317.068 Q1992.09 316.954 1992.09 316.806 Q1992.09 316.577 1992.12 316.445 Q1992.17 316.314 1992.3 316.249 Q1992.43 316.183 1992.5 316.183 Q1992.56 316.167 1992.79 316.15 Q1994.04 316.068 1995.01 315.478 Q1995.99 314.871 1996.92 313.314 L2008.6 293.705 Q2008.71 293.508 2008.79 293.409 Q2008.88 293.311 2009.04 293.229 Q2009.22 293.147 2009.48 293.147 Q2009.89 293.147 2009.97 293.278 Q2010.06 293.393 2010.11 293.95 L2012.16 314.937 Q2012.2 315.38 2012.24 315.56 Q2012.29 315.724 2012.5 315.904 Q2012.73 316.068 2013.14 316.117 Q2013.57 316.15 2014.35 316.15 Q2014.65 316.15 2014.76 316.167 Q2014.88 316.167 2014.99 316.249 Q2015.12 316.331 2015.12 316.511 M2008.63 308.379 L2007.56 297.312 L2000.94 308.379 L2008.63 308.379 Z" fill="#000000" fill-rule="evenodd" fill-opacity="1" /><path clip-path="url(#clip950)" d="M2020.01 280.661 Q2020.01 272.557 2023.03 266.022 Q2024.32 263.281 2026.12 260.986 Q2027.93 258.691 2029.12 257.684 Q2030.32 256.676 2030.65 256.676 Q2031.11 256.676 2031.14 257.145 Q2031.14 257.379 2030.5 257.965 Q2022.78 265.835 2022.8 280.661 Q2022.8 295.534 2030.32 303.1 Q2031.14 303.919 2031.14 304.177 Q2031.14 304.646 2030.65 304.646 Q2030.32 304.646 2029.17 303.685 Q2028.02 302.725 2026.24 300.523 Q2024.46 298.321 2023.17 295.628 Q2020.01 289.093 2020.01 280.661 Z" fill="#000000" fill-rule="evenodd" fill-opacity="1" /><path clip-path="url(#clip950)" d="M2057.26 274.477 Q2057.26 275.812 2056.44 276.609 Q2055.64 277.405 2054.64 277.405 Q2053.75 277.405 2053.28 276.89 Q2052.81 276.375 2052.81 275.719 Q2052.81 275.438 2052.93 275.086 Q2053.04 274.712 2053.3 274.267 Q2053.58 273.822 2054.17 273.494 Q2054.75 273.166 2055.55 273.119 Q2055.39 272.955 2055.34 272.932 Q2054.99 272.65 2054.33 272.557 Q2054.24 272.51 2053.91 272.51 Q2052.29 272.51 2050.65 273.704 Q2049.04 274.876 2047.05 277.101 Q2044.54 279.701 2042.92 280.661 Q2050.02 281.598 2050.02 285.697 Q2050.02 286.376 2049.83 287.196 Q2049.46 288.742 2049.46 289.866 Q2049.46 292.115 2050.98 292.115 Q2052.46 292.115 2053.39 290.615 Q2054.36 289.116 2055.15 286.189 Q2055.27 285.65 2055.39 285.486 Q2055.5 285.322 2055.83 285.322 Q2056.42 285.322 2056.42 285.79 Q2055.88 288.531 2054.68 290.639 Q2053.16 293.192 2050.89 293.192 Q2048.99 293.192 2047.73 291.88 Q2046.49 290.545 2046.49 288.437 Q2046.49 287.922 2046.67 286.751 Q2046.81 286.282 2046.81 285.744 Q2046.81 284.643 2046.2 283.823 Q2045.6 282.98 2044.61 282.558 Q2043.63 282.137 2042.81 281.949 Q2042.01 281.738 2041.24 281.668 Q2038.9 291.576 2038.57 292.185 Q2038.36 292.606 2037.89 292.887 Q2037.42 293.192 2036.93 293.192 Q2036.46 293.192 2035.99 292.864 Q2035.55 292.56 2035.55 291.833 Q2035.55 291.459 2035.73 290.779 L2042.69 263.141 L2042.83 262.204 Q2042.83 261.923 2042.71 261.782 Q2042.62 261.618 2042.06 261.501 Q2041.52 261.384 2040.44 261.384 Q2040 261.384 2039.79 261.361 Q2039.6 261.337 2039.44 261.22 Q2039.27 261.08 2039.27 260.799 Q2039.27 260.401 2039.44 260.19 Q2039.62 259.955 2039.76 259.909 Q2039.9 259.862 2040.18 259.838 Q2040.58 259.815 2041.92 259.698 Q2043.25 259.557 2044.4 259.464 Q2045.55 259.37 2046.04 259.37 Q2046.32 259.37 2046.46 259.51 Q2046.63 259.628 2046.65 259.768 L2046.67 259.885 L2041.68 280.122 Q2043.74 279.302 2047 275.672 Q2050.77 271.456 2054 271.456 Q2055.53 271.456 2056.39 272.393 Q2057.26 273.306 2057.26 274.477 Z" fill="#000000" fill-rule="evenodd" fill-opacity="1" /><path clip-path="url(#clip950)" d="M2073.6 285.369 Q2073.65 284.783 2074.56 284.783 L2103.95 284.783 Q2105.34 284.783 2105.36 285.322 Q2105.36 285.908 2104.05 285.884 L2074.89 285.884 Q2073.6 285.908 2073.6 285.369 M2073.6 276 Q2073.6 275.414 2074.61 275.438 L2103.91 275.438 Q2105.34 275.438 2105.36 276 Q2105.36 276.539 2104.14 276.539 L2074.56 276.539 Q2073.6 276.539 2073.6 276 Z" fill="#000000" fill-rule="evenodd" fill-opacity="1" /><path clip-path="url(#clip950)" d="M2123.85 277.312 Q2123.85 270.261 2125.63 266.42 Q2128.11 260.705 2133.97 260.705 Q2135.21 260.705 2136.5 261.056 Q2137.81 261.384 2139.45 262.672 Q2141.11 263.961 2142.12 266.069 Q2144.04 270.144 2144.04 277.312 Q2144.04 284.315 2142.26 288.133 Q2139.66 293.707 2133.92 293.707 Q2131.77 293.707 2129.57 292.606 Q2127.39 291.506 2126.01 288.859 Q2123.85 284.9 2123.85 277.312 M2127.83 276.726 Q2127.83 283.963 2128.35 286.844 Q2128.93 289.96 2130.53 291.318 Q2132.14 292.653 2133.92 292.653 Q2135.84 292.653 2137.44 291.224 Q2139.05 289.772 2139.54 286.657 Q2140.08 283.589 2140.06 276.726 Q2140.06 270.051 2139.59 267.38 Q2138.96 264.265 2137.27 263.024 Q2135.61 261.759 2133.92 261.759 Q2133.29 261.759 2132.61 261.946 Q2131.95 262.134 2130.99 262.672 Q2130.03 263.211 2129.28 264.546 Q2128.56 265.881 2128.21 267.896 Q2127.83 270.496 2127.83 276.726 Z" fill="#000000" fill-rule="evenodd" fill-opacity="1" /><path clip-path="url(#clip950)" d="M2148.33 291.88 Q2147.6 291.107 2147.6 290.1 Q2147.6 289.093 2148.33 288.367 Q2149.05 287.617 2150.15 287.617 Q2151.21 287.617 2151.91 288.32 Q2152.64 288.999 2152.64 290.124 Q2152.64 291.224 2151.86 291.951 Q2151.11 292.653 2150.15 292.653 Q2149.05 292.653 2148.33 291.88 Z" fill="#000000" fill-rule="evenodd" fill-opacity="1" /><path clip-path="url(#clip950)" d="M2160.8 286.189 Q2160.8 284.76 2161.62 284.081 Q2162.44 283.401 2163.49 283.401 Q2164.59 283.401 2165.37 284.127 Q2166.16 284.83 2166.16 286.072 Q2166.16 287.407 2165.22 288.156 Q2164.31 288.906 2163 288.718 Q2164.15 290.639 2166.26 291.506 Q2168.39 292.372 2170.35 292.372 Q2172.42 292.372 2174.08 290.592 Q2175.76 288.812 2175.76 284.455 Q2175.76 280.755 2174.31 278.623 Q2172.88 276.492 2170.05 276.492 L2167.94 276.492 Q2167.22 276.492 2167 276.421 Q2166.79 276.351 2166.79 275.953 Q2166.79 275.485 2167.52 275.391 Q2168.25 275.391 2169.39 275.25 Q2172.18 275.157 2173.66 272.744 Q2174.99 270.496 2174.99 267.287 Q2174.99 264.359 2173.59 263.141 Q2172.2 261.9 2170.4 261.9 Q2168.71 261.9 2166.86 262.602 Q2165.01 263.305 2164.01 264.874 Q2166.98 264.874 2166.98 267.287 Q2166.98 268.341 2166.3 269.043 Q2165.65 269.723 2164.55 269.723 Q2163.49 269.723 2162.79 269.067 Q2162.09 268.388 2162.09 267.24 Q2162.09 264.499 2164.52 262.602 Q2166.98 260.705 2170.59 260.705 Q2174.15 260.705 2176.77 262.579 Q2179.42 264.453 2179.42 267.334 Q2179.42 270.168 2177.54 272.486 Q2175.67 274.805 2172.7 275.766 Q2176.35 276.492 2178.53 278.975 Q2180.71 281.434 2180.71 284.455 Q2180.71 288.203 2177.76 290.967 Q2174.8 293.707 2170.49 293.707 Q2166.51 293.707 2163.66 291.552 Q2160.8 289.397 2160.8 286.189 Z" fill="#000000" fill-rule="evenodd" fill-opacity="1" /><path clip-path="url(#clip950)" d="M2184.74 286.189 Q2184.74 284.76 2185.56 284.081 Q2186.38 283.401 2187.43 283.401 Q2188.53 283.401 2189.31 284.127 Q2190.1 284.83 2190.1 286.072 Q2190.1 287.407 2189.17 288.156 Q2188.25 288.906 2186.94 288.718 Q2188.09 290.639 2190.2 291.506 Q2192.33 292.372 2194.3 292.372 Q2196.36 292.372 2198.02 290.592 Q2199.71 288.812 2199.71 284.455 Q2199.71 280.755 2198.25 278.623 Q2196.83 276.492 2193.99 276.492 L2191.88 276.492 Q2191.16 276.492 2190.95 276.421 Q2190.74 276.351 2190.74 275.953 Q2190.74 275.485 2191.46 275.391 Q2192.19 275.391 2193.34 275.25 Q2196.12 275.157 2197.6 272.744 Q2198.93 270.496 2198.93 267.287 Q2198.93 264.359 2197.53 263.141 Q2196.15 261.9 2194.34 261.9 Q2192.66 261.9 2190.81 262.602 Q2188.96 263.305 2187.95 264.874 Q2190.92 264.874 2190.92 267.287 Q2190.92 268.341 2190.24 269.043 Q2189.59 269.723 2188.49 269.723 Q2187.43 269.723 2186.73 269.067 Q2186.03 268.388 2186.03 267.24 Q2186.03 264.499 2188.46 262.602 Q2190.92 260.705 2194.53 260.705 Q2198.09 260.705 2200.71 262.579 Q2203.36 264.453 2203.36 267.334 Q2203.36 270.168 2201.49 272.486 Q2199.61 274.805 2196.64 275.766 Q2200.29 276.492 2202.47 278.975 Q2204.65 281.434 2204.65 284.455 Q2204.65 288.203 2201.7 290.967 Q2198.75 293.707 2194.44 293.707 Q2190.45 293.707 2187.6 291.552 Q2184.74 289.397 2184.74 286.189 Z" fill="#000000" fill-rule="evenodd" fill-opacity="1" /><path clip-path="url(#clip950)" d="M2233.63 273.119 Q2233.63 274.758 2231.28 274.758 L2225.8 274.758 Q2224.96 278.647 2224.96 282.394 Q2224.96 286.868 2226.34 290.311 Q2226.62 290.99 2226.62 291.365 Q2226.62 292.068 2225.99 292.63 Q2225.38 293.192 2224.66 293.192 Q2224.05 293.192 2223.65 292.723 Q2223.27 292.255 2222.95 290.779 Q2222.55 289.046 2222.55 287.126 Q2222.55 284.83 2222.92 282.628 Q2223.3 280.403 2224.56 274.758 L2219.15 274.758 L2216.46 285.369 Q2215.5 288.952 2215.17 290.053 Q2214.96 290.709 2214.89 290.92 Q2214.82 291.131 2214.61 291.646 Q2214.42 292.138 2214.28 292.325 Q2214.14 292.489 2213.91 292.747 Q2213.67 293.028 2213.39 293.098 Q2213.11 293.192 2212.76 293.192 Q2212.22 293.192 2211.8 292.841 Q2211.38 292.513 2211.38 291.88 Q2211.38 291.459 2211.75 290.733 Q2216.2 281.129 2217.89 274.758 L2215.17 274.758 Q2211.42 274.758 2209.08 278.459 Q2208.71 278.951 2208.49 278.998 Q2208.4 279.021 2208.31 279.021 Q2208.05 279.021 2207.89 278.904 Q2207.75 278.787 2207.75 278.67 L2207.72 278.553 Q2207.72 278.412 2208.07 277.78 Q2208.45 277.124 2209.15 276.117 Q2209.88 275.11 2210.65 274.243 Q2211.4 273.447 2212.13 272.955 Q2212.87 272.44 2213.58 272.252 Q2214.28 272.065 2214.68 272.018 Q2215.08 271.971 2215.64 271.971 L2231.71 271.971 Q2232.32 271.971 2232.64 272.018 Q2232.97 272.041 2233.3 272.323 Q2233.63 272.58 2233.63 273.119 Z" fill="#000000" fill-rule="evenodd" fill-opacity="1" /><path clip-path="url(#clip950)" d="M2238.05 304.177 Q2238.05 303.943 2238.66 303.357 Q2246.39 295.487 2246.39 280.661 Q2246.39 265.788 2238.97 258.269 Q2238.05 257.402 2238.05 257.145 Q2238.05 256.676 2238.52 256.676 Q2238.85 256.676 2240 257.637 Q2241.17 258.597 2242.92 260.799 Q2244.7 263 2246.02 265.694 Q2249.18 272.229 2249.18 280.661 Q2249.18 288.765 2246.16 295.3 Q2244.87 298.04 2243.06 300.336 Q2241.26 302.631 2240.07 303.638 Q2238.87 304.646 2238.52 304.646 Q2238.05 304.646 2238.05 304.177 Z" fill="#000000" fill-rule="evenodd" fill-opacity="1" /><polyline clip-path="url(#clip950)" style="stroke:#3da44d; stroke-linecap:round; stroke-linejoin:round; stroke-width:4; stroke-opacity:1; fill:none" points="1796.04,347.261 1940.47,347.261 "/>
<path clip-path="url(#clip950)" d="M1987.19 339.434 Q1987.19 342.901 1985.41 346.156 Q1983.66 349.412 1980.89 351.379 Q1978.15 353.347 1975.39 353.347 Q1972.27 353.347 1970.66 350.115 Q1967.73 361.849 1967.57 362.154 Q1966.89 363.161 1965.9 363.161 Q1965.29 363.161 1964.92 362.786 Q1964.54 362.435 1964.54 361.873 Q1964.57 361.685 1964.71 361.1 L1969.39 342.245 Q1970.47 337.865 1973.73 334.75 Q1977.01 331.611 1980.52 331.611 Q1983.31 331.611 1985.25 333.696 Q1987.19 335.78 1987.19 339.434 M1983.75 337.373 Q1983.75 335.031 1982.81 333.859 Q1981.88 332.665 1980.43 332.665 Q1979.09 332.665 1977.47 333.742 Q1975.88 334.82 1974.48 337.209 Q1973.73 338.591 1973.19 340.301 Q1972.65 342.01 1971.59 346.227 Q1971.22 347.913 1971.22 348.007 Q1971.22 348.194 1971.31 348.616 Q1971.43 349.037 1971.71 349.693 Q1972.02 350.325 1972.44 350.888 Q1972.86 351.45 1973.63 351.871 Q1974.41 352.27 1975.34 352.27 Q1976.79 352.27 1978.34 351.098 Q1979.91 349.904 1981.06 347.726 Q1982.02 345.969 1982.88 342.666 Q1983.75 339.34 1983.75 337.373 Z" fill="#000000" fill-rule="evenodd" fill-opacity="1" /><path clip-path="url(#clip950)" d="M2015.12 376.666 Q2015.12 376.978 2014.99 377.141 Q2014.88 377.289 2014.76 377.322 Q2014.66 377.338 2014.52 377.338 Q2014.09 377.338 2012.61 377.289 Q2011.14 377.24 2010.71 377.24 Q2010.02 377.24 2008.61 377.289 Q2007.2 377.338 2006.51 377.338 Q2006.06 377.338 2006.06 376.961 Q2006.06 376.715 2006.11 376.584 Q2006.15 376.436 2006.29 376.387 Q2006.43 376.322 2006.51 376.322 Q2006.61 376.305 2006.86 376.305 Q2007.19 376.305 2007.53 376.272 Q2007.88 376.223 2008.3 376.125 Q2008.73 376.027 2008.99 375.781 Q2009.27 375.535 2009.27 375.19 Q2009.27 375.043 2009.15 373.83 Q2009.04 372.616 2008.89 371.206 Q2008.74 369.78 2008.73 369.583 L2000.3 369.583 Q1999.53 370.911 1998.99 371.829 Q1998.45 372.747 1998.25 373.059 Q1998.05 373.37 1997.94 373.567 Q1997.83 373.764 1997.76 373.879 Q1997.28 374.748 1997.28 375.125 Q1997.28 376.174 1998.86 376.305 Q1999.4 376.305 1999.4 376.699 Q1999.4 376.994 1999.27 377.158 Q1999.14 377.305 1999.02 377.322 Q1998.92 377.338 1998.76 377.338 Q1998.22 377.338 1997.09 377.289 Q1995.96 377.24 1995.4 377.24 Q1994.92 377.24 1993.94 377.289 Q1992.96 377.338 1992.51 377.338 Q1992.32 377.338 1992.2 377.223 Q1992.09 377.109 1992.09 376.961 Q1992.09 376.732 1992.12 376.6 Q1992.17 376.469 1992.3 376.404 Q1992.43 376.338 1992.5 376.338 Q1992.56 376.322 1992.79 376.305 Q1994.04 376.223 1995.01 375.633 Q1995.99 375.026 1996.92 373.469 L2008.6 353.86 Q2008.71 353.663 2008.79 353.564 Q2008.88 353.466 2009.04 353.384 Q2009.22 353.302 2009.48 353.302 Q2009.89 353.302 2009.97 353.433 Q2010.06 353.548 2010.11 354.105 L2012.16 375.092 Q2012.2 375.535 2012.24 375.715 Q2012.29 375.879 2012.5 376.059 Q2012.73 376.223 2013.14 376.272 Q2013.57 376.305 2014.35 376.305 Q2014.65 376.305 2014.76 376.322 Q2014.88 376.322 2014.99 376.404 Q2015.12 376.486 2015.12 376.666 M2008.63 368.534 L2007.56 357.467 L2000.94 368.534 L2008.63 368.534 Z" fill="#000000" fill-rule="evenodd" fill-opacity="1" /><path clip-path="url(#clip950)" d="M2020.01 340.816 Q2020.01 332.712 2023.03 326.177 Q2024.32 323.436 2026.12 321.141 Q2027.93 318.846 2029.12 317.839 Q2030.32 316.831 2030.65 316.831 Q2031.11 316.831 2031.14 317.3 Q2031.14 317.534 2030.5 318.12 Q2022.78 325.99 2022.8 340.816 Q2022.8 355.689 2030.32 363.255 Q2031.14 364.074 2031.14 364.332 Q2031.14 364.801 2030.65 364.801 Q2030.32 364.801 2029.17 363.84 Q2028.02 362.88 2026.24 360.678 Q2024.46 358.476 2023.17 355.783 Q2020.01 349.248 2020.01 340.816 Z" fill="#000000" fill-rule="evenodd" fill-opacity="1" /><path clip-path="url(#clip950)" d="M2057.26 334.632 Q2057.26 335.967 2056.44 336.764 Q2055.64 337.56 2054.64 337.56 Q2053.75 337.56 2053.28 337.045 Q2052.81 336.53 2052.81 335.874 Q2052.81 335.593 2052.93 335.241 Q2053.04 334.867 2053.3 334.422 Q2053.58 333.977 2054.17 333.649 Q2054.75 333.321 2055.55 333.274 Q2055.39 333.11 2055.34 333.087 Q2054.99 332.805 2054.33 332.712 Q2054.24 332.665 2053.91 332.665 Q2052.29 332.665 2050.65 333.859 Q2049.04 335.031 2047.05 337.256 Q2044.54 339.856 2042.92 340.816 Q2050.02 341.753 2050.02 345.852 Q2050.02 346.531 2049.83 347.351 Q2049.46 348.897 2049.46 350.021 Q2049.46 352.27 2050.98 352.27 Q2052.46 352.27 2053.39 350.77 Q2054.36 349.271 2055.15 346.344 Q2055.27 345.805 2055.39 345.641 Q2055.5 345.477 2055.83 345.477 Q2056.42 345.477 2056.42 345.945 Q2055.88 348.686 2054.68 350.794 Q2053.16 353.347 2050.89 353.347 Q2048.99 353.347 2047.73 352.035 Q2046.49 350.7 2046.49 348.592 Q2046.49 348.077 2046.67 346.906 Q2046.81 346.437 2046.81 345.899 Q2046.81 344.798 2046.2 343.978 Q2045.6 343.135 2044.61 342.713 Q2043.63 342.292 2042.81 342.104 Q2042.01 341.893 2041.24 341.823 Q2038.9 351.731 2038.57 352.34 Q2038.36 352.761 2037.89 353.042 Q2037.42 353.347 2036.93 353.347 Q2036.46 353.347 2035.99 353.019 Q2035.55 352.715 2035.55 351.988 Q2035.55 351.614 2035.73 350.934 L2042.69 323.296 L2042.83 322.359 Q2042.83 322.078 2042.71 321.937 Q2042.62 321.773 2042.06 321.656 Q2041.52 321.539 2040.44 321.539 Q2040 321.539 2039.79 321.516 Q2039.6 321.492 2039.44 321.375 Q2039.27 321.235 2039.27 320.954 Q2039.27 320.556 2039.44 320.345 Q2039.62 320.11 2039.76 320.064 Q2039.9 320.017 2040.18 319.993 Q2040.58 319.97 2041.92 319.853 Q2043.25 319.712 2044.4 319.619 Q2045.55 319.525 2046.04 319.525 Q2046.32 319.525 2046.46 319.665 Q2046.63 319.783 2046.65 319.923 L2046.67 320.04 L2041.68 340.277 Q2043.74 339.457 2047 335.827 Q2050.77 331.611 2054 331.611 Q2055.53 331.611 2056.39 332.548 Q2057.26 333.461 2057.26 334.632 Z" fill="#000000" fill-rule="evenodd" fill-opacity="1" /><path clip-path="url(#clip950)" d="M2073.6 345.524 Q2073.65 344.938 2074.56 344.938 L2103.95 344.938 Q2105.34 344.938 2105.36 345.477 Q2105.36 346.063 2104.05 346.039 L2074.89 346.039 Q2073.6 346.063 2073.6 345.524 M2073.6 336.155 Q2073.6 335.569 2074.61 335.593 L2103.91 335.593 Q2105.34 335.593 2105.36 336.155 Q2105.36 336.694 2104.14 336.694 L2074.56 336.694 Q2073.6 336.694 2073.6 336.155 Z" fill="#000000" fill-rule="evenodd" fill-opacity="1" /><path clip-path="url(#clip950)" d="M2123.85 337.467 Q2123.85 330.416 2125.63 326.575 Q2128.11 320.86 2133.97 320.86 Q2135.21 320.86 2136.5 321.211 Q2137.81 321.539 2139.45 322.827 Q2141.11 324.116 2142.12 326.224 Q2144.04 330.299 2144.04 337.467 Q2144.04 344.47 2142.26 348.288 Q2139.66 353.862 2133.92 353.862 Q2131.77 353.862 2129.57 352.761 Q2127.39 351.661 2126.01 349.014 Q2123.85 345.055 2123.85 337.467 M2127.83 336.881 Q2127.83 344.118 2128.35 346.999 Q2128.93 350.115 2130.53 351.473 Q2132.14 352.808 2133.92 352.808 Q2135.84 352.808 2137.44 351.379 Q2139.05 349.927 2139.54 346.812 Q2140.08 343.744 2140.06 336.881 Q2140.06 330.206 2139.59 327.535 Q2138.96 324.42 2137.27 323.179 Q2135.61 321.914 2133.92 321.914 Q2133.29 321.914 2132.61 322.101 Q2131.95 322.289 2130.99 322.827 Q2130.03 323.366 2129.28 324.701 Q2128.56 326.036 2128.21 328.051 Q2127.83 330.651 2127.83 336.881 Z" fill="#000000" fill-rule="evenodd" fill-opacity="1" /><path clip-path="url(#clip950)" d="M2148.33 352.035 Q2147.6 351.262 2147.6 350.255 Q2147.6 349.248 2148.33 348.522 Q2149.05 347.772 2150.15 347.772 Q2151.21 347.772 2151.91 348.475 Q2152.64 349.154 2152.64 350.279 Q2152.64 351.379 2151.86 352.106 Q2151.11 352.808 2150.15 352.808 Q2149.05 352.808 2148.33 352.035 Z" fill="#000000" fill-rule="evenodd" fill-opacity="1" /><path clip-path="url(#clip950)" d="M2160.8 337.654 Q2160.8 330.112 2164.64 325.498 Q2168.48 320.86 2173.42 320.86 Q2176.3 320.86 2177.9 322.336 Q2179.51 323.788 2179.51 326.036 Q2179.51 327.278 2178.79 327.816 Q2178.06 328.355 2177.31 328.355 Q2176.44 328.355 2175.76 327.77 Q2175.09 327.184 2175.09 326.13 Q2175.09 323.975 2177.73 323.975 Q2176.49 322.055 2173.52 322.055 Q2172.6 322.055 2171.67 322.336 Q2170.73 322.593 2169.51 323.483 Q2168.29 324.373 2167.36 325.779 Q2166.42 327.184 2165.76 329.831 Q2165.11 332.478 2165.11 335.921 L2165.11 337.068 Q2167.07 332.314 2171.1 332.337 Q2175.13 332.337 2177.92 335.405 Q2180.71 338.474 2180.71 343.018 Q2180.71 347.679 2177.8 350.77 Q2174.9 353.862 2170.82 353.862 Q2169 353.862 2167.33 353.089 Q2165.69 352.34 2164.15 350.607 Q2162.62 348.873 2161.71 345.547 Q2160.8 342.221 2160.8 337.654 M2165.2 341.964 Q2165.2 346.672 2166.07 348.92 Q2166.21 349.295 2166.51 349.81 Q2166.84 350.325 2167.38 351.005 Q2167.94 351.661 2168.85 352.106 Q2169.77 352.527 2170.82 352.527 Q2174.03 352.527 2175.58 349.412 Q2176.4 347.679 2176.4 342.971 Q2176.4 338.169 2175.53 336.413 Q2174.05 333.438 2171.06 333.438 Q2169.04 333.438 2167.64 334.82 Q2166.26 336.202 2165.72 338.052 Q2165.2 339.902 2165.2 341.964 Z" fill="#000000" fill-rule="evenodd" fill-opacity="1" /><path clip-path="url(#clip950)" d="M2183.7 330.252 L2185.27 320.392 L2186.46 320.392 Q2186.6 320.977 2186.84 321.235 Q2187.1 321.492 2188.45 321.703 Q2189.84 321.914 2192.62 321.914 L2204.26 321.914 Q2204.26 323.015 2203.84 323.6 L2197.35 332.712 Q2195.29 335.593 2194.38 340.91 Q2193.84 344.47 2193.86 348.78 L2193.86 351.215 Q2193.86 353.862 2191.64 353.862 Q2189.44 353.862 2189.44 351.215 Q2189.44 342.057 2195.34 333.18 Q2195.97 332.267 2198.29 329.011 Q2200.63 325.755 2200.73 325.615 L2190.8 325.615 Q2186.44 325.615 2186.09 325.896 Q2185.62 326.317 2184.89 330.252 L2183.7 330.252 Z" fill="#000000" fill-rule="evenodd" fill-opacity="1" /><path clip-path="url(#clip950)" d="M2231.63 333.274 Q2231.63 334.913 2229.28 334.913 L2223.8 334.913 Q2222.96 338.802 2222.96 342.549 Q2222.96 347.023 2224.34 350.466 Q2224.62 351.145 2224.62 351.52 Q2224.62 352.223 2223.99 352.785 Q2223.38 353.347 2222.66 353.347 Q2222.05 353.347 2221.65 352.878 Q2221.27 352.41 2220.95 350.934 Q2220.55 349.201 2220.55 347.281 Q2220.55 344.985 2220.92 342.783 Q2221.3 340.558 2222.56 334.913 L2217.15 334.913 L2214.46 345.524 Q2213.5 349.107 2213.17 350.208 Q2212.96 350.864 2212.89 351.075 Q2212.82 351.286 2212.61 351.801 Q2212.42 352.293 2212.28 352.48 Q2212.14 352.644 2211.91 352.902 Q2211.67 353.183 2211.39 353.253 Q2211.11 353.347 2210.76 353.347 Q2210.22 353.347 2209.8 352.996 Q2209.38 352.668 2209.38 352.035 Q2209.38 351.614 2209.75 350.888 Q2214.2 341.284 2215.89 334.913 L2213.17 334.913 Q2209.42 334.913 2207.08 338.614 Q2206.71 339.106 2206.49 339.153 Q2206.4 339.176 2206.31 339.176 Q2206.05 339.176 2205.89 339.059 Q2205.75 338.942 2205.75 338.825 L2205.72 338.708 Q2205.72 338.567 2206.07 337.935 Q2206.45 337.279 2207.15 336.272 Q2207.88 335.265 2208.65 334.398 Q2209.4 333.602 2210.13 333.11 Q2210.87 332.595 2211.58 332.407 Q2212.28 332.22 2212.68 332.173 Q2213.08 332.126 2213.64 332.126 L2229.71 332.126 Q2230.32 332.126 2230.64 332.173 Q2230.97 332.196 2231.3 332.478 Q2231.63 332.735 2231.63 333.274 Z" fill="#000000" fill-rule="evenodd" fill-opacity="1" /><path clip-path="url(#clip950)" d="M2236.05 364.332 Q2236.05 364.098 2236.66 363.512 Q2244.39 355.642 2244.39 340.816 Q2244.39 325.943 2236.97 318.424 Q2236.05 317.557 2236.05 317.3 Q2236.05 316.831 2236.52 316.831 Q2236.85 316.831 2238 317.792 Q2239.17 318.752 2240.92 320.954 Q2242.7 323.155 2244.02 325.849 Q2247.18 332.384 2247.18 340.816 Q2247.18 348.92 2244.16 355.455 Q2242.87 358.195 2241.06 360.491 Q2239.26 362.786 2238.07 363.793 Q2236.87 364.801 2236.52 364.801 Q2236.05 364.801 2236.05 364.332 Z" fill="#000000" fill-rule="evenodd" fill-opacity="1" /><polyline clip-path="url(#clip950)" style="stroke:#c271d2; stroke-linecap:round; stroke-linejoin:round; stroke-width:4; stroke-opacity:1; fill:none" points="1796.04,407.416 1940.47,407.416 "/>
<path clip-path="url(#clip950)" d="M1987.19 399.589 Q1987.19 403.056 1985.41 406.311 Q1983.66 409.567 1980.89 411.534 Q1978.15 413.502 1975.39 413.502 Q1972.27 413.502 1970.66 410.27 Q1967.73 422.004 1967.57 422.309 Q1966.89 423.316 1965.9 423.316 Q1965.29 423.316 1964.92 422.941 Q1964.54 422.59 1964.54 422.028 Q1964.57 421.84 1964.71 421.255 L1969.39 402.4 Q1970.47 398.02 1973.73 394.905 Q1977.01 391.766 1980.52 391.766 Q1983.31 391.766 1985.25 393.851 Q1987.19 395.935 1987.19 399.589 M1983.75 397.528 Q1983.75 395.186 1982.81 394.014 Q1981.88 392.82 1980.43 392.82 Q1979.09 392.82 1977.47 393.897 Q1975.88 394.975 1974.48 397.364 Q1973.73 398.746 1973.19 400.456 Q1972.65 402.165 1971.59 406.382 Q1971.22 408.068 1971.22 408.162 Q1971.22 408.349 1971.31 408.771 Q1971.43 409.192 1971.71 409.848 Q1972.02 410.48 1972.44 411.043 Q1972.86 411.605 1973.63 412.026 Q1974.41 412.425 1975.34 412.425 Q1976.79 412.425 1978.34 411.253 Q1979.91 410.059 1981.06 407.881 Q1982.02 406.124 1982.88 402.821 Q1983.75 399.495 1983.75 397.528 Z" fill="#000000" fill-rule="evenodd" fill-opacity="1" /><path clip-path="url(#clip950)" d="M2015.12 436.821 Q2015.12 437.133 2014.99 437.296 Q2014.88 437.444 2014.76 437.477 Q2014.66 437.493 2014.52 437.493 Q2014.09 437.493 2012.61 437.444 Q2011.14 437.395 2010.71 437.395 Q2010.02 437.395 2008.61 437.444 Q2007.2 437.493 2006.51 437.493 Q2006.06 437.493 2006.06 437.116 Q2006.06 436.87 2006.11 436.739 Q2006.15 436.591 2006.29 436.542 Q2006.43 436.477 2006.51 436.477 Q2006.61 436.46 2006.86 436.46 Q2007.19 436.46 2007.53 436.427 Q2007.88 436.378 2008.3 436.28 Q2008.73 436.182 2008.99 435.936 Q2009.27 435.69 2009.27 435.345 Q2009.27 435.198 2009.15 433.985 Q2009.04 432.771 2008.89 431.361 Q2008.74 429.935 2008.73 429.738 L2000.3 429.738 Q1999.53 431.066 1998.99 431.984 Q1998.45 432.902 1998.25 433.214 Q1998.05 433.525 1997.94 433.722 Q1997.83 433.919 1997.76 434.034 Q1997.28 434.903 1997.28 435.28 Q1997.28 436.329 1998.86 436.46 Q1999.4 436.46 1999.4 436.854 Q1999.4 437.149 1999.27 437.313 Q1999.14 437.46 1999.02 437.477 Q1998.92 437.493 1998.76 437.493 Q1998.22 437.493 1997.09 437.444 Q1995.96 437.395 1995.4 437.395 Q1994.92 437.395 1993.94 437.444 Q1992.96 437.493 1992.51 437.493 Q1992.32 437.493 1992.2 437.378 Q1992.09 437.264 1992.09 437.116 Q1992.09 436.887 1992.12 436.755 Q1992.17 436.624 1992.3 436.559 Q1992.43 436.493 1992.5 436.493 Q1992.56 436.477 1992.79 436.46 Q1994.04 436.378 1995.01 435.788 Q1995.99 435.181 1996.92 433.624 L2008.6 414.015 Q2008.71 413.818 2008.79 413.719 Q2008.88 413.621 2009.04 413.539 Q2009.22 413.457 2009.48 413.457 Q2009.89 413.457 2009.97 413.588 Q2010.06 413.703 2010.11 414.26 L2012.16 435.247 Q2012.2 435.69 2012.24 435.87 Q2012.29 436.034 2012.5 436.214 Q2012.73 436.378 2013.14 436.427 Q2013.57 436.46 2014.35 436.46 Q2014.65 436.46 2014.76 436.477 Q2014.88 436.477 2014.99 436.559 Q2015.12 436.641 2015.12 436.821 M2008.63 428.689 L2007.56 417.622 L2000.94 428.689 L2008.63 428.689 Z" fill="#000000" fill-rule="evenodd" fill-opacity="1" /><path clip-path="url(#clip950)" d="M2020.01 400.971 Q2020.01 392.867 2023.03 386.332 Q2024.32 383.591 2026.12 381.296 Q2027.93 379.001 2029.12 377.994 Q2030.32 376.986 2030.65 376.986 Q2031.11 376.986 2031.14 377.455 Q2031.14 377.689 2030.5 378.275 Q2022.78 386.145 2022.8 400.971 Q2022.8 415.844 2030.32 423.41 Q2031.14 424.229 2031.14 424.487 Q2031.14 424.956 2030.65 424.956 Q2030.32 424.956 2029.17 423.995 Q2028.02 423.035 2026.24 420.833 Q2024.46 418.631 2023.17 415.938 Q2020.01 409.403 2020.01 400.971 Z" fill="#000000" fill-rule="evenodd" fill-opacity="1" /><path clip-path="url(#clip950)" d="M2057.26 394.787 Q2057.26 396.122 2056.44 396.919 Q2055.64 397.715 2054.64 397.715 Q2053.75 397.715 2053.28 397.2 Q2052.81 396.685 2052.81 396.029 Q2052.81 395.748 2052.93 395.396 Q2053.04 395.022 2053.3 394.577 Q2053.58 394.132 2054.17 393.804 Q2054.75 393.476 2055.55 393.429 Q2055.39 393.265 2055.34 393.242 Q2054.99 392.96 2054.33 392.867 Q2054.24 392.82 2053.91 392.82 Q2052.29 392.82 2050.65 394.014 Q2049.04 395.186 2047.05 397.411 Q2044.54 400.011 2042.92 400.971 Q2050.02 401.908 2050.02 406.007 Q2050.02 406.686 2049.83 407.506 Q2049.46 409.052 2049.46 410.176 Q2049.46 412.425 2050.98 412.425 Q2052.46 412.425 2053.39 410.925 Q2054.36 409.426 2055.15 406.499 Q2055.27 405.96 2055.39 405.796 Q2055.5 405.632 2055.83 405.632 Q2056.42 405.632 2056.42 406.1 Q2055.88 408.841 2054.68 410.949 Q2053.16 413.502 2050.89 413.502 Q2048.99 413.502 2047.73 412.19 Q2046.49 410.855 2046.49 408.747 Q2046.49 408.232 2046.67 407.061 Q2046.81 406.592 2046.81 406.054 Q2046.81 404.953 2046.2 404.133 Q2045.6 403.29 2044.61 402.868 Q2043.63 402.447 2042.81 402.259 Q2042.01 402.048 2041.24 401.978 Q2038.9 411.886 2038.57 412.495 Q2038.36 412.916 2037.89 413.197 Q2037.42 413.502 2036.93 413.502 Q2036.46 413.502 2035.99 413.174 Q2035.55 412.87 2035.55 412.143 Q2035.55 411.769 2035.73 411.089 L2042.69 383.451 L2042.83 382.514 Q2042.83 382.233 2042.71 382.092 Q2042.62 381.928 2042.06 381.811 Q2041.52 381.694 2040.44 381.694 Q2040 381.694 2039.79 381.671 Q2039.6 381.647 2039.44 381.53 Q2039.27 381.39 2039.27 381.109 Q2039.27 380.711 2039.44 380.5 Q2039.62 380.265 2039.76 380.219 Q2039.9 380.172 2040.18 380.148 Q2040.58 380.125 2041.92 380.008 Q2043.25 379.867 2044.4 379.774 Q2045.55 379.68 2046.04 379.68 Q2046.32 379.68 2046.46 379.82 Q2046.63 379.938 2046.65 380.078 L2046.67 380.195 L2041.68 400.432 Q2043.74 399.612 2047 395.982 Q2050.77 391.766 2054 391.766 Q2055.53 391.766 2056.39 392.703 Q2057.26 393.616 2057.26 394.787 Z" fill="#000000" fill-rule="evenodd" fill-opacity="1" /><path clip-path="url(#clip950)" d="M2073.6 405.679 Q2073.65 405.093 2074.56 405.093 L2103.95 405.093 Q2105.34 405.093 2105.36 405.632 Q2105.36 406.218 2104.05 406.194 L2074.89 406.194 Q2073.6 406.218 2073.6 405.679 M2073.6 396.31 Q2073.6 395.724 2074.61 395.748 L2103.91 395.748 Q2105.34 395.748 2105.36 396.31 Q2105.36 396.849 2104.14 396.849 L2074.56 396.849 Q2073.6 396.849 2073.6 396.31 Z" fill="#000000" fill-rule="evenodd" fill-opacity="1" /><path clip-path="url(#clip950)" d="M2123.85 385.582 L2123.85 384.083 Q2129.61 384.083 2132.59 381.015 Q2133.41 381.015 2133.55 381.202 Q2133.69 381.39 2133.69 382.256 L2133.69 409.169 Q2133.69 410.598 2134.39 411.043 Q2135.09 411.488 2138.16 411.488 L2139.68 411.488 L2139.68 412.963 Q2138 412.823 2131.91 412.823 Q2125.82 412.823 2124.16 412.963 L2124.16 411.488 L2125.68 411.488 Q2128.7 411.488 2129.43 411.066 Q2130.15 410.621 2130.15 409.169 L2130.15 384.318 Q2127.65 385.582 2123.85 385.582 Z" fill="#000000" fill-rule="evenodd" fill-opacity="1" /><path clip-path="url(#clip950)" d="M2143.45 412.19 Q2142.73 411.417 2142.73 410.41 Q2142.73 409.403 2143.45 408.677 Q2144.18 407.927 2145.28 407.927 Q2146.33 407.927 2147.04 408.63 Q2147.76 409.309 2147.76 410.434 Q2147.76 411.534 2146.99 412.261 Q2146.24 412.963 2145.28 412.963 Q2144.18 412.963 2143.45 412.19 Z" fill="#000000" fill-rule="evenodd" fill-opacity="1" /><path clip-path="url(#clip950)" d="M2155.92 397.622 Q2155.92 390.571 2157.7 386.73 Q2160.19 381.015 2166.04 381.015 Q2167.28 381.015 2168.57 381.366 Q2169.88 381.694 2171.52 382.982 Q2173.18 384.271 2174.19 386.379 Q2176.11 390.454 2176.11 397.622 Q2176.11 404.625 2174.33 408.443 Q2171.73 414.017 2165.99 414.017 Q2163.84 414.017 2161.64 412.916 Q2159.46 411.816 2158.08 409.169 Q2155.92 405.21 2155.92 397.622 M2159.9 397.036 Q2159.9 404.273 2160.42 407.154 Q2161.01 410.27 2162.6 411.628 Q2164.21 412.963 2165.99 412.963 Q2167.91 412.963 2169.51 411.534 Q2171.12 410.082 2171.62 406.967 Q2172.15 403.899 2172.13 397.036 Q2172.13 390.361 2171.66 387.69 Q2171.03 384.575 2169.34 383.334 Q2167.68 382.069 2165.99 382.069 Q2165.36 382.069 2164.68 382.256 Q2164.03 382.444 2163.07 382.982 Q2162.11 383.521 2161.36 384.856 Q2160.63 386.191 2160.28 388.206 Q2159.9 390.806 2159.9 397.036 Z" fill="#000000" fill-rule="evenodd" fill-opacity="1" /><path clip-path="url(#clip950)" d="M2204.81 393.429 Q2204.81 395.068 2202.47 395.068 L2196.99 395.068 Q2196.14 398.957 2196.14 402.704 Q2196.14 407.178 2197.53 410.621 Q2197.81 411.3 2197.81 411.675 Q2197.81 412.378 2197.17 412.94 Q2196.57 413.502 2195.84 413.502 Q2195.23 413.502 2194.83 413.033 Q2194.46 412.565 2194.13 411.089 Q2193.73 409.356 2193.73 407.436 Q2193.73 405.14 2194.11 402.938 Q2194.48 400.713 2195.75 395.068 L2190.33 395.068 L2187.64 405.679 Q2186.68 409.262 2186.35 410.363 Q2186.14 411.019 2186.07 411.23 Q2186 411.441 2185.79 411.956 Q2185.6 412.448 2185.46 412.635 Q2185.32 412.799 2185.09 413.057 Q2184.85 413.338 2184.57 413.408 Q2184.29 413.502 2183.94 413.502 Q2183.4 413.502 2182.98 413.151 Q2182.56 412.823 2182.56 412.19 Q2182.56 411.769 2182.93 411.043 Q2187.38 401.439 2189.07 395.068 L2186.35 395.068 Q2182.61 395.068 2180.26 398.769 Q2179.89 399.261 2179.68 399.308 Q2179.58 399.331 2179.49 399.331 Q2179.23 399.331 2179.07 399.214 Q2178.93 399.097 2178.93 398.98 L2178.9 398.863 Q2178.9 398.722 2179.26 398.09 Q2179.63 397.434 2180.33 396.427 Q2181.06 395.42 2181.83 394.553 Q2182.58 393.757 2183.31 393.265 Q2184.06 392.75 2184.76 392.562 Q2185.46 392.375 2185.86 392.328 Q2186.26 392.281 2186.82 392.281 L2202.89 392.281 Q2203.5 392.281 2203.83 392.328 Q2204.15 392.351 2204.48 392.633 Q2204.81 392.89 2204.81 393.429 Z" fill="#000000" fill-rule="evenodd" fill-opacity="1" /><path clip-path="url(#clip950)" d="M2209.24 424.487 Q2209.24 424.253 2209.84 423.667 Q2217.57 415.797 2217.57 400.971 Q2217.57 386.098 2210.15 378.579 Q2209.24 377.712 2209.24 377.455 Q2209.24 376.986 2209.7 376.986 Q2210.03 376.986 2211.18 377.947 Q2212.35 378.907 2214.11 381.109 Q2215.89 383.31 2217.2 386.004 Q2220.36 392.539 2220.36 400.971 Q2220.36 409.075 2217.34 415.61 Q2216.05 418.35 2214.25 420.646 Q2212.44 422.941 2211.25 423.948 Q2210.06 424.956 2209.7 424.956 Q2209.24 424.956 2209.24 424.487 Z" fill="#000000" fill-rule="evenodd" fill-opacity="1" /></svg>
