<?xml version="1.0" encoding="utf-8"?>
<svg xmlns="http://www.w3.org/2000/svg" xmlns:xlink="http://www.w3.org/1999/xlink" width="600" height="400" viewBox="0 0 2400 1600">
<defs>
  <clipPath id="clip430">
    <rect x="0" y="0" width="2400" height="1600"/>
  </clipPath>
</defs>
<path clip-path="url(#clip430)" d="M0 1600 L2400 1600 L2400 0 L0 0  Z" fill="#ffffff" fill-rule="evenodd" fill-opacity="1"/>
<defs>
  <clipPath id="clip431">
    <rect x="480" y="0" width="1681" height="1600"/>
  </clipPath>
</defs>
<defs>
  <clipPath id="clip432">
    <rect x="186" y="123" width="2167" height="1301"/>
  </clipPath>
</defs>
<path clip-path="url(#clip430)" d="M186.274 1423.18 L2352.76 1423.18 L2352.76 123.472 L186.274 123.472  Z" fill="#ffffff" fill-rule="evenodd" fill-opacity="1"/>
<polyline clip-path="url(#clip432)" style="stroke:#000000; stroke-linecap:round; stroke-linejoin:round; stroke-width:2; stroke-opacity:0.1; fill:none" points="247.59,1423.18 247.59,123.472 "/>
<polyline clip-path="url(#clip432)" style="stroke:#000000; stroke-linecap:round; stroke-linejoin:round; stroke-width:2; stroke-opacity:0.1; fill:none" points="789.738,1423.18 789.738,123.472 "/>
<polyline clip-path="url(#clip432)" style="stroke:#000000; stroke-linecap:round; stroke-linejoin:round; stroke-width:2; stroke-opacity:0.1; fill:none" points="1331.89,1423.18 1331.89,123.472 "/>
<polyline clip-path="url(#clip432)" style="stroke:#000000; stroke-linecap:round; stroke-linejoin:round; stroke-width:2; stroke-opacity:0.1; fill:none" points="1874.03,1423.18 1874.03,123.472 "/>
<polyline clip-path="url(#clip430)" style="stroke:#000000; stroke-linecap:round; stroke-linejoin:round; stroke-width:4; stroke-opacity:1; fill:none" points="186.274,1423.18 2352.76,1423.18 "/>
<polyline clip-path="url(#clip430)" style="stroke:#000000; stroke-linecap:round; stroke-linejoin:round; stroke-width:4; stroke-opacity:1; fill:none" points="247.59,1423.18 247.59,1404.28 "/>
<polyline clip-path="url(#clip430)" style="stroke:#000000; stroke-linecap:round; stroke-linejoin:round; stroke-width:4; stroke-opacity:1; fill:none" points="789.738,1423.18 789.738,1404.28 "/>
<polyline clip-path="url(#clip430)" style="stroke:#000000; stroke-linecap:round; stroke-linejoin:round; stroke-width:4; stroke-opacity:1; fill:none" points="1331.89,1423.18 1331.89,1404.28 "/>
<polyline clip-path="url(#clip430)" style="stroke:#000000; stroke-linecap:round; stroke-linejoin:round; stroke-width:4; stroke-opacity:1; fill:none" points="1874.03,1423.18 1874.03,1404.28 "/>
<path clip-path="url(#clip430)" d="M247.59 1454.1 Q243.978 1454.1 242.15 1457.66 Q240.344 1461.2 240.344 1468.33 Q240.344 1475.44 242.15 1479.01 Q243.978 1482.55 247.59 1482.55 Q251.224 1482.55 253.029 1479.01 Q254.858 1475.44 254.858 1468.33 Q254.858 1461.2 253.029 1457.66 Q251.224 1454.1 247.59 1454.1 M247.59 1450.39 Q253.4 1450.39 256.455 1455 Q259.534 1459.58 259.534 1468.33 Q259.534 1477.06 256.455 1481.67 Q253.4 1486.25 247.59 1486.25 Q241.779 1486.25 238.701 1481.67 Q235.645 1477.06 235.645 1468.33 Q235.645 1459.58 238.701 1455 Q241.779 1450.39 247.59 1450.39 Z" fill="#000000" fill-rule="evenodd" fill-opacity="1" /><path clip-path="url(#clip430)" d="M738.349 1481.64 L754.669 1481.64 L754.669 1485.58 L732.724 1485.58 L732.724 1481.64 Q735.386 1478.89 739.97 1474.26 Q744.576 1469.61 745.757 1468.27 Q748.002 1465.74 748.882 1464.01 Q749.784 1462.25 749.784 1460.56 Q749.784 1457.8 747.84 1456.07 Q745.919 1454.33 742.817 1454.33 Q740.618 1454.33 738.164 1455.09 Q735.733 1455.86 732.956 1457.41 L732.956 1452.69 Q735.78 1451.55 738.233 1450.97 Q740.687 1450.39 742.724 1450.39 Q748.095 1450.39 751.289 1453.08 Q754.483 1455.77 754.483 1460.26 Q754.483 1462.39 753.673 1464.31 Q752.886 1466.2 750.78 1468.8 Q750.201 1469.47 747.099 1472.69 Q743.997 1475.88 738.349 1481.64 Z" fill="#000000" fill-rule="evenodd" fill-opacity="1" /><path clip-path="url(#clip430)" d="M774.483 1454.1 Q770.872 1454.1 769.043 1457.66 Q767.238 1461.2 767.238 1468.33 Q767.238 1475.44 769.043 1479.01 Q770.872 1482.55 774.483 1482.55 Q778.117 1482.55 779.923 1479.01 Q781.752 1475.44 781.752 1468.33 Q781.752 1461.2 779.923 1457.66 Q778.117 1454.1 774.483 1454.1 M774.483 1450.39 Q780.293 1450.39 783.349 1455 Q786.428 1459.58 786.428 1468.33 Q786.428 1477.06 783.349 1481.67 Q780.293 1486.25 774.483 1486.25 Q768.673 1486.25 765.594 1481.67 Q762.539 1477.06 762.539 1468.33 Q762.539 1459.58 765.594 1455 Q768.673 1450.39 774.483 1450.39 Z" fill="#000000" fill-rule="evenodd" fill-opacity="1" /><path clip-path="url(#clip430)" d="M804.645 1454.1 Q801.034 1454.1 799.205 1457.66 Q797.4 1461.2 797.4 1468.33 Q797.4 1475.44 799.205 1479.01 Q801.034 1482.55 804.645 1482.55 Q808.279 1482.55 810.085 1479.01 Q811.914 1475.44 811.914 1468.33 Q811.914 1461.2 810.085 1457.66 Q808.279 1454.1 804.645 1454.1 M804.645 1450.39 Q810.455 1450.39 813.511 1455 Q816.59 1459.58 816.59 1468.33 Q816.59 1477.06 813.511 1481.67 Q810.455 1486.25 804.645 1486.25 Q798.835 1486.25 795.756 1481.67 Q792.701 1477.06 792.701 1468.33 Q792.701 1459.58 795.756 1455 Q798.835 1450.39 804.645 1450.39 Z" fill="#000000" fill-rule="evenodd" fill-opacity="1" /><path clip-path="url(#clip430)" d="M834.807 1454.1 Q831.196 1454.1 829.367 1457.66 Q827.562 1461.2 827.562 1468.33 Q827.562 1475.44 829.367 1479.01 Q831.196 1482.55 834.807 1482.55 Q838.441 1482.55 840.247 1479.01 Q842.075 1475.44 842.075 1468.33 Q842.075 1461.2 840.247 1457.66 Q838.441 1454.1 834.807 1454.1 M834.807 1450.39 Q840.617 1450.39 843.673 1455 Q846.751 1459.58 846.751 1468.33 Q846.751 1477.06 843.673 1481.67 Q840.617 1486.25 834.807 1486.25 Q828.997 1486.25 825.918 1481.67 Q822.863 1477.06 822.863 1468.33 Q822.863 1459.58 825.918 1455 Q828.997 1450.39 834.807 1450.39 Z" fill="#000000" fill-rule="evenodd" fill-opacity="1" /><path clip-path="url(#clip430)" d="M1289.9 1455.09 L1278.09 1473.54 L1289.9 1473.54 L1289.9 1455.09 M1288.67 1451.02 L1294.55 1451.02 L1294.55 1473.54 L1299.48 1473.54 L1299.48 1477.43 L1294.55 1477.43 L1294.55 1485.58 L1289.9 1485.58 L1289.9 1477.43 L1274.29 1477.43 L1274.29 1472.92 L1288.67 1451.02 Z" fill="#000000" fill-rule="evenodd" fill-opacity="1" /><path clip-path="url(#clip430)" d="M1317.21 1454.1 Q1313.6 1454.1 1311.77 1457.66 Q1309.96 1461.2 1309.96 1468.33 Q1309.96 1475.44 1311.77 1479.01 Q1313.6 1482.55 1317.21 1482.55 Q1320.84 1482.55 1322.65 1479.01 Q1324.48 1475.44 1324.48 1468.33 Q1324.48 1461.2 1322.65 1457.66 Q1320.84 1454.1 1317.21 1454.1 M1317.21 1450.39 Q1323.02 1450.39 1326.08 1455 Q1329.15 1459.58 1329.15 1468.33 Q1329.15 1477.06 1326.08 1481.67 Q1323.02 1486.25 1317.21 1486.25 Q1311.4 1486.25 1308.32 1481.67 Q1305.27 1477.06 1305.27 1468.33 Q1305.27 1459.58 1308.32 1455 Q1311.4 1450.39 1317.21 1450.39 Z" fill="#000000" fill-rule="evenodd" fill-opacity="1" /><path clip-path="url(#clip430)" d="M1347.37 1454.1 Q1343.76 1454.1 1341.93 1457.66 Q1340.13 1461.2 1340.13 1468.33 Q1340.13 1475.44 1341.93 1479.01 Q1343.76 1482.55 1347.37 1482.55 Q1351.01 1482.55 1352.81 1479.01 Q1354.64 1475.44 1354.64 1468.33 Q1354.64 1461.2 1352.81 1457.66 Q1351.01 1454.1 1347.37 1454.1 M1347.37 1450.39 Q1353.18 1450.39 1356.24 1455 Q1359.32 1459.58 1359.32 1468.33 Q1359.32 1477.06 1356.24 1481.67 Q1353.18 1486.25 1347.37 1486.25 Q1341.56 1486.25 1338.48 1481.67 Q1335.43 1477.06 1335.43 1468.33 Q1335.43 1459.58 1338.48 1455 Q1341.56 1450.39 1347.37 1450.39 Z" fill="#000000" fill-rule="evenodd" fill-opacity="1" /><path clip-path="url(#clip430)" d="M1377.53 1454.1 Q1373.92 1454.1 1372.09 1457.66 Q1370.29 1461.2 1370.29 1468.33 Q1370.29 1475.44 1372.09 1479.01 Q1373.92 1482.55 1377.53 1482.55 Q1381.17 1482.55 1382.97 1479.01 Q1384.8 1475.44 1384.8 1468.33 Q1384.8 1461.2 1382.97 1457.66 Q1381.17 1454.1 1377.53 1454.1 M1377.53 1450.39 Q1383.34 1450.39 1386.4 1455 Q1389.48 1459.58 1389.48 1468.33 Q1389.48 1477.06 1386.4 1481.67 Q1383.34 1486.25 1377.53 1486.25 Q1371.72 1486.25 1368.65 1481.67 Q1365.59 1477.06 1365.59 1468.33 Q1365.59 1459.58 1368.65 1455 Q1371.72 1450.39 1377.53 1450.39 Z" fill="#000000" fill-rule="evenodd" fill-opacity="1" /><path clip-path="url(#clip430)" d="M1829.28 1466.44 Q1826.13 1466.44 1824.28 1468.59 Q1822.45 1470.74 1822.45 1474.49 Q1822.45 1478.22 1824.28 1480.39 Q1826.13 1482.55 1829.28 1482.55 Q1832.43 1482.55 1834.25 1480.39 Q1836.11 1478.22 1836.11 1474.49 Q1836.11 1470.74 1834.25 1468.59 Q1832.43 1466.44 1829.28 1466.44 M1838.56 1451.78 L1838.56 1456.04 Q1836.8 1455.21 1835 1454.77 Q1833.21 1454.33 1831.45 1454.33 Q1826.82 1454.33 1824.37 1457.45 Q1821.94 1460.58 1821.59 1466.9 Q1822.96 1464.89 1825.02 1463.82 Q1827.08 1462.73 1829.56 1462.73 Q1834.76 1462.73 1837.77 1465.9 Q1840.81 1469.05 1840.81 1474.49 Q1840.81 1479.82 1837.66 1483.03 Q1834.51 1486.25 1829.28 1486.25 Q1823.28 1486.25 1820.11 1481.67 Q1816.94 1477.06 1816.94 1468.33 Q1816.94 1460.14 1820.83 1455.28 Q1824.72 1450.39 1831.27 1450.39 Q1833.03 1450.39 1834.81 1450.74 Q1836.62 1451.09 1838.56 1451.78 Z" fill="#000000" fill-rule="evenodd" fill-opacity="1" /><path clip-path="url(#clip430)" d="M1858.86 1454.1 Q1855.25 1454.1 1853.42 1457.66 Q1851.62 1461.2 1851.62 1468.33 Q1851.62 1475.44 1853.42 1479.01 Q1855.25 1482.55 1858.86 1482.55 Q1862.5 1482.55 1864.3 1479.01 Q1866.13 1475.44 1866.13 1468.33 Q1866.13 1461.2 1864.3 1457.66 Q1862.5 1454.1 1858.86 1454.1 M1858.86 1450.39 Q1864.67 1450.39 1867.73 1455 Q1870.81 1459.58 1870.81 1468.33 Q1870.81 1477.06 1867.73 1481.67 Q1864.67 1486.25 1858.86 1486.25 Q1853.05 1486.25 1849.97 1481.67 Q1846.92 1477.06 1846.92 1468.33 Q1846.92 1459.58 1849.97 1455 Q1853.05 1450.39 1858.86 1450.39 Z" fill="#000000" fill-rule="evenodd" fill-opacity="1" /><path clip-path="url(#clip430)" d="M1889.02 1454.1 Q1885.41 1454.1 1883.58 1457.66 Q1881.78 1461.2 1881.78 1468.33 Q1881.78 1475.44 1883.58 1479.01 Q1885.41 1482.55 1889.02 1482.55 Q1892.66 1482.55 1894.46 1479.01 Q1896.29 1475.44 1896.29 1468.33 Q1896.29 1461.2 1894.46 1457.66 Q1892.66 1454.1 1889.02 1454.1 M1889.02 1450.39 Q1894.83 1450.39 1897.89 1455 Q1900.97 1459.58 1900.97 1468.33 Q1900.97 1477.06 1897.89 1481.67 Q1894.83 1486.25 1889.02 1486.25 Q1883.21 1486.25 1880.13 1481.67 Q1877.08 1477.06 1877.08 1468.33 Q1877.08 1459.58 1880.13 1455 Q1883.21 1450.39 1889.02 1450.39 Z" fill="#000000" fill-rule="evenodd" fill-opacity="1" /><path clip-path="url(#clip430)" d="M1919.18 1454.1 Q1915.57 1454.1 1913.74 1457.66 Q1911.94 1461.2 1911.94 1468.33 Q1911.94 1475.44 1913.74 1479.01 Q1915.57 1482.55 1919.18 1482.55 Q1922.82 1482.55 1924.62 1479.01 Q1926.45 1475.44 1926.45 1468.33 Q1926.45 1461.2 1924.62 1457.66 Q1922.82 1454.1 1919.18 1454.1 M1919.18 1450.39 Q1924.99 1450.39 1928.05 1455 Q1931.13 1459.58 1931.13 1468.33 Q1931.13 1477.06 1928.05 1481.67 Q1924.99 1486.25 1919.18 1486.25 Q1913.37 1486.25 1910.3 1481.67 Q1907.24 1477.06 1907.24 1468.33 Q1907.24 1459.58 1910.3 1455 Q1913.37 1450.39 1919.18 1450.39 Z" fill="#000000" fill-rule="evenodd" fill-opacity="1" /><path clip-path="url(#clip430)" d="M1268.58 1522.27 L1268.58 1532.4 L1280.64 1532.4 L1280.64 1536.95 L1268.58 1536.95 L1268.58 1556.3 Q1268.58 1560.66 1269.75 1561.9 Q1270.96 1563.14 1274.62 1563.14 L1280.64 1563.14 L1280.64 1568.04 L1274.62 1568.04 Q1267.84 1568.04 1265.27 1565.53 Q1262.69 1562.98 1262.69 1556.3 L1262.69 1536.95 L1258.39 1536.95 L1258.39 1532.4 L1262.69 1532.4 L1262.69 1522.27 L1268.58 1522.27 Z" fill="#000000" fill-rule="evenodd" fill-opacity="1" /><polyline clip-path="url(#clip432)" style="stroke:#000000; stroke-linecap:round; stroke-linejoin:round; stroke-width:2; stroke-opacity:0.1; fill:none" points="186.274,1386.46 2352.76,1386.46 "/>
<polyline clip-path="url(#clip432)" style="stroke:#000000; stroke-linecap:round; stroke-linejoin:round; stroke-width:2; stroke-opacity:0.1; fill:none" points="186.274,1001.23 2352.76,1001.23 "/>
<polyline clip-path="url(#clip432)" style="stroke:#000000; stroke-linecap:round; stroke-linejoin:round; stroke-width:2; stroke-opacity:0.1; fill:none" points="186.274,616.012 2352.76,616.012 "/>
<polyline clip-path="url(#clip432)" style="stroke:#000000; stroke-linecap:round; stroke-linejoin:round; stroke-width:2; stroke-opacity:0.1; fill:none" points="186.274,230.79 2352.76,230.79 "/>
<polyline clip-path="url(#clip430)" style="stroke:#000000; stroke-linecap:round; stroke-linejoin:round; stroke-width:4; stroke-opacity:1; fill:none" points="186.274,1423.18 186.274,123.472 "/>
<polyline clip-path="url(#clip430)" style="stroke:#000000; stroke-linecap:round; stroke-linejoin:round; stroke-width:4; stroke-opacity:1; fill:none" points="186.274,1386.46 205.172,1386.46 "/>
<polyline clip-path="url(#clip430)" style="stroke:#000000; stroke-linecap:round; stroke-linejoin:round; stroke-width:4; stroke-opacity:1; fill:none" points="186.274,1001.23 205.172,1001.23 "/>
<polyline clip-path="url(#clip430)" style="stroke:#000000; stroke-linecap:round; stroke-linejoin:round; stroke-width:4; stroke-opacity:1; fill:none" points="186.274,616.012 205.172,616.012 "/>
<polyline clip-path="url(#clip430)" style="stroke:#000000; stroke-linecap:round; stroke-linejoin:round; stroke-width:4; stroke-opacity:1; fill:none" points="186.274,230.79 205.172,230.79 "/>
<path clip-path="url(#clip430)" d="M62.9365 1372.26 Q59.3254 1372.26 57.4967 1375.82 Q55.6912 1379.36 55.6912 1386.49 Q55.6912 1393.6 57.4967 1397.16 Q59.3254 1400.7 62.9365 1400.7 Q66.5707 1400.7 68.3763 1397.16 Q70.205 1393.6 70.205 1386.49 Q70.205 1379.36 68.3763 1375.82 Q66.5707 1372.26 62.9365 1372.26 M62.9365 1368.55 Q68.7467 1368.55 71.8022 1373.16 Q74.8809 1377.74 74.8809 1386.49 Q74.8809 1395.22 71.8022 1399.83 Q68.7467 1404.41 62.9365 1404.41 Q57.1264 1404.41 54.0477 1399.83 Q50.9921 1395.22 50.9921 1386.49 Q50.9921 1377.74 54.0477 1373.16 Q57.1264 1368.55 62.9365 1368.55 Z" fill="#000000" fill-rule="evenodd" fill-opacity="1" /><path clip-path="url(#clip430)" d="M83.0984 1397.86 L87.9827 1397.86 L87.9827 1403.74 L83.0984 1403.74 L83.0984 1397.86 Z" fill="#000000" fill-rule="evenodd" fill-opacity="1" /><path clip-path="url(#clip430)" d="M108.168 1372.26 Q104.557 1372.26 102.728 1375.82 Q100.922 1379.36 100.922 1386.49 Q100.922 1393.6 102.728 1397.16 Q104.557 1400.7 108.168 1400.7 Q111.802 1400.7 113.608 1397.16 Q115.436 1393.6 115.436 1386.49 Q115.436 1379.36 113.608 1375.82 Q111.802 1372.26 108.168 1372.26 M108.168 1368.55 Q113.978 1368.55 117.033 1373.16 Q120.112 1377.74 120.112 1386.49 Q120.112 1395.22 117.033 1399.83 Q113.978 1404.41 108.168 1404.41 Q102.358 1404.41 99.2789 1399.83 Q96.2234 1395.22 96.2234 1386.49 Q96.2234 1377.74 99.2789 1373.16 Q102.358 1368.55 108.168 1368.55 Z" fill="#000000" fill-rule="evenodd" fill-opacity="1" /><path clip-path="url(#clip430)" d="M138.33 1372.26 Q134.719 1372.26 132.89 1375.82 Q131.084 1379.36 131.084 1386.49 Q131.084 1393.6 132.89 1397.16 Q134.719 1400.7 138.33 1400.7 Q141.964 1400.7 143.769 1397.16 Q145.598 1393.6 145.598 1386.49 Q145.598 1379.36 143.769 1375.82 Q141.964 1372.26 138.33 1372.26 M138.33 1368.55 Q144.14 1368.55 147.195 1373.16 Q150.274 1377.74 150.274 1386.49 Q150.274 1395.22 147.195 1399.83 Q144.14 1404.41 138.33 1404.41 Q132.519 1404.41 129.441 1399.83 Q126.385 1395.22 126.385 1386.49 Q126.385 1377.74 129.441 1373.16 Q132.519 1368.55 138.33 1368.55 Z" fill="#000000" fill-rule="evenodd" fill-opacity="1" /><path clip-path="url(#clip430)" d="M63.9319 987.033 Q60.3208 987.033 58.4921 990.598 Q56.6865 994.14 56.6865 1001.27 Q56.6865 1008.38 58.4921 1011.94 Q60.3208 1015.48 63.9319 1015.48 Q67.5661 1015.48 69.3717 1011.94 Q71.2004 1008.38 71.2004 1001.27 Q71.2004 994.14 69.3717 990.598 Q67.5661 987.033 63.9319 987.033 M63.9319 983.33 Q69.742 983.33 72.7976 987.936 Q75.8763 992.52 75.8763 1001.27 Q75.8763 1010 72.7976 1014.6 Q69.742 1019.19 63.9319 1019.19 Q58.1217 1019.19 55.043 1014.6 Q51.9875 1010 51.9875 1001.27 Q51.9875 992.52 55.043 987.936 Q58.1217 983.33 63.9319 983.33 Z" fill="#000000" fill-rule="evenodd" fill-opacity="1" /><path clip-path="url(#clip430)" d="M84.0938 1012.64 L88.978 1012.64 L88.978 1018.51 L84.0938 1018.51 L84.0938 1012.64 Z" fill="#000000" fill-rule="evenodd" fill-opacity="1" /><path clip-path="url(#clip430)" d="M109.163 987.033 Q105.552 987.033 103.723 990.598 Q101.918 994.14 101.918 1001.27 Q101.918 1008.38 103.723 1011.94 Q105.552 1015.48 109.163 1015.48 Q112.797 1015.48 114.603 1011.94 Q116.432 1008.38 116.432 1001.27 Q116.432 994.14 114.603 990.598 Q112.797 987.033 109.163 987.033 M109.163 983.33 Q114.973 983.33 118.029 987.936 Q121.107 992.52 121.107 1001.27 Q121.107 1010 118.029 1014.6 Q114.973 1019.19 109.163 1019.19 Q103.353 1019.19 100.274 1014.6 Q97.2187 1010 97.2187 1001.27 Q97.2187 992.52 100.274 987.936 Q103.353 983.33 109.163 983.33 Z" fill="#000000" fill-rule="evenodd" fill-opacity="1" /><path clip-path="url(#clip430)" d="M129.371 983.955 L147.728 983.955 L147.728 987.89 L133.654 987.89 L133.654 996.362 Q134.672 996.015 135.691 995.853 Q136.709 995.668 137.728 995.668 Q143.515 995.668 146.894 998.839 Q150.274 1002.01 150.274 1007.43 Q150.274 1013.01 146.802 1016.11 Q143.33 1019.19 137.01 1019.19 Q134.834 1019.19 132.566 1018.82 Q130.32 1018.45 127.913 1017.7 L127.913 1013.01 Q129.996 1014.14 132.219 1014.7 Q134.441 1015.25 136.918 1015.25 Q140.922 1015.25 143.26 1013.14 Q145.598 1011.04 145.598 1007.43 Q145.598 1003.82 143.26 1001.71 Q140.922 999.603 136.918 999.603 Q135.043 999.603 133.168 1000.02 Q131.316 1000.44 129.371 1001.32 L129.371 983.955 Z" fill="#000000" fill-rule="evenodd" fill-opacity="1" /><path clip-path="url(#clip430)" d="M62.9365 601.811 Q59.3254 601.811 57.4967 605.376 Q55.6912 608.918 55.6912 616.047 Q55.6912 623.154 57.4967 626.718 Q59.3254 630.26 62.9365 630.26 Q66.5707 630.26 68.3763 626.718 Q70.205 623.154 70.205 616.047 Q70.205 608.918 68.3763 605.376 Q66.5707 601.811 62.9365 601.811 M62.9365 598.107 Q68.7467 598.107 71.8022 602.714 Q74.8809 607.297 74.8809 616.047 Q74.8809 624.774 71.8022 629.38 Q68.7467 633.964 62.9365 633.964 Q57.1264 633.964 54.0477 629.38 Q50.9921 624.774 50.9921 616.047 Q50.9921 607.297 54.0477 602.714 Q57.1264 598.107 62.9365 598.107 Z" fill="#000000" fill-rule="evenodd" fill-opacity="1" /><path clip-path="url(#clip430)" d="M83.0984 627.413 L87.9827 627.413 L87.9827 633.292 L83.0984 633.292 L83.0984 627.413 Z" fill="#000000" fill-rule="evenodd" fill-opacity="1" /><path clip-path="url(#clip430)" d="M98.978 629.357 L106.617 629.357 L106.617 602.992 L98.3067 604.658 L98.3067 600.399 L106.571 598.732 L111.246 598.732 L111.246 629.357 L118.885 629.357 L118.885 633.292 L98.978 633.292 L98.978 629.357 Z" fill="#000000" fill-rule="evenodd" fill-opacity="1" /><path clip-path="url(#clip430)" d="M138.33 601.811 Q134.719 601.811 132.89 605.376 Q131.084 608.918 131.084 616.047 Q131.084 623.154 132.89 626.718 Q134.719 630.26 138.33 630.26 Q141.964 630.26 143.769 626.718 Q145.598 623.154 145.598 616.047 Q145.598 608.918 143.769 605.376 Q141.964 601.811 138.33 601.811 M138.33 598.107 Q144.14 598.107 147.195 602.714 Q150.274 607.297 150.274 616.047 Q150.274 624.774 147.195 629.38 Q144.14 633.964 138.33 633.964 Q132.519 633.964 129.441 629.38 Q126.385 624.774 126.385 616.047 Q126.385 607.297 129.441 602.714 Q132.519 598.107 138.33 598.107 Z" fill="#000000" fill-rule="evenodd" fill-opacity="1" /><path clip-path="url(#clip430)" d="M63.9319 216.589 Q60.3208 216.589 58.4921 220.154 Q56.6865 223.695 56.6865 230.825 Q56.6865 237.931 58.4921 241.496 Q60.3208 245.038 63.9319 245.038 Q67.5661 245.038 69.3717 241.496 Q71.2004 237.931 71.2004 230.825 Q71.2004 223.695 69.3717 220.154 Q67.5661 216.589 63.9319 216.589 M63.9319 212.885 Q69.742 212.885 72.7976 217.492 Q75.8763 222.075 75.8763 230.825 Q75.8763 239.552 72.7976 244.158 Q69.742 248.741 63.9319 248.741 Q58.1217 248.741 55.043 244.158 Q51.9875 239.552 51.9875 230.825 Q51.9875 222.075 55.043 217.492 Q58.1217 212.885 63.9319 212.885 Z" fill="#000000" fill-rule="evenodd" fill-opacity="1" /><path clip-path="url(#clip430)" d="M84.0938 242.19 L88.978 242.19 L88.978 248.07 L84.0938 248.07 L84.0938 242.19 Z" fill="#000000" fill-rule="evenodd" fill-opacity="1" /><path clip-path="url(#clip430)" d="M99.9733 244.135 L107.612 244.135 L107.612 217.769 L99.3021 219.436 L99.3021 215.177 L107.566 213.51 L112.242 213.51 L112.242 244.135 L119.881 244.135 L119.881 248.07 L99.9733 248.07 L99.9733 244.135 Z" fill="#000000" fill-rule="evenodd" fill-opacity="1" /><path clip-path="url(#clip430)" d="M129.371 213.51 L147.728 213.51 L147.728 217.445 L133.654 217.445 L133.654 225.917 Q134.672 225.57 135.691 225.408 Q136.709 225.223 137.728 225.223 Q143.515 225.223 146.894 228.394 Q150.274 231.566 150.274 236.982 Q150.274 242.561 146.802 245.663 Q143.33 248.741 137.01 248.741 Q134.834 248.741 132.566 248.371 Q130.32 248.001 127.913 247.26 L127.913 242.561 Q129.996 243.695 132.219 244.251 Q134.441 244.806 136.918 244.806 Q140.922 244.806 143.26 242.7 Q145.598 240.593 145.598 236.982 Q145.598 233.371 143.26 231.265 Q140.922 229.158 136.918 229.158 Q135.043 229.158 133.168 229.575 Q131.316 229.991 129.371 230.871 L129.371 213.51 Z" fill="#000000" fill-rule="evenodd" fill-opacity="1" /><path clip-path="url(#clip430)" d="M856.703 49.0698 Q856.621 49.4797 856.457 50.2175 Q856.293 50.9144 855.555 53.1278 Q854.817 55.3412 853.834 57.5956 Q852.891 59.809 851.046 62.9242 Q849.243 65.9984 847.029 68.7857 Q846.415 69.5235 846.292 69.9744 Q846.21 70.3843 846.21 71.7369 Q846.21 80.2627 848.792 80.2627 Q848.915 80.2627 849.12 80.2627 Q849.366 80.2217 849.981 80.0167 Q850.636 79.7708 851.21 79.4019 Q851.784 78.992 852.44 78.1722 Q853.096 77.3115 853.506 76.1638 Q853.875 75.344 854.612 75.344 Q855.596 75.344 855.596 76.1638 Q855.596 77.6394 853.547 79.8938 Q851.497 82.1482 848.546 82.1482 Q845.718 82.1482 843.709 80.3037 Q841.742 78.4182 840.922 75.057 Q832.068 82.1482 823.215 82.1482 Q816.984 82.1482 813.295 78.0903 Q809.606 73.9913 809.606 67.9249 Q809.606 62.1044 812.803 56.5709 Q816.042 51.0373 821.288 47.5942 Q826.576 44.1101 832.191 44.1101 Q834.159 44.1101 836.044 44.643 Q837.93 45.1349 839.815 46.4055 Q841.701 47.6762 843.094 49.6027 Q844.488 51.5292 845.349 54.5624 Q846.21 57.5956 846.21 61.4076 L846.21 66.6133 Q851.62 59.768 854.448 49.9716 Q854.858 48.496 855.104 48.332 Q855.268 48.2091 855.678 48.2091 Q856.088 48.2091 856.334 48.455 Q856.621 48.66 856.662 48.8649 L856.703 49.0698 M840.594 72.8846 Q840.43 71.45 840.43 63.4981 Q840.43 61.9815 840.43 61.1617 Q840.43 60.3009 840.348 58.6613 Q840.266 57.0218 840.102 55.997 Q839.979 54.9723 839.692 53.4967 Q839.405 52.0211 838.996 51.0783 Q838.586 50.1356 837.93 49.0698 Q837.315 48.0041 836.495 47.3893 Q835.716 46.7744 834.569 46.3646 Q833.462 45.9547 832.109 45.9547 Q830.429 45.9547 828.666 46.5695 Q826.945 47.1433 824.731 48.9879 Q822.518 50.7914 820.673 53.6606 Q818.747 56.6938 817.271 62.2684 Q815.837 67.8019 815.837 71.1221 Q815.837 75.303 817.763 77.8033 Q819.69 80.2627 823.379 80.2627 Q832.191 80.2627 840.594 72.8846 Z" fill="#000000" fill-rule="evenodd" fill-opacity="1" /><path clip-path="url(#clip430)" d="M886.077 68.4578 Q886.159 67.433 887.758 67.433 L939.2 67.433 Q941.618 67.433 941.659 68.3758 Q941.659 69.4005 939.364 69.3595 L888.332 69.3595 Q886.077 69.4005 886.077 68.4578 M886.077 52.0621 Q886.077 51.0373 887.84 51.0783 L939.118 51.0783 Q941.618 51.0783 941.659 52.0621 Q941.659 53.0048 939.527 53.0048 L887.758 53.0048 Q886.077 53.0048 886.077 52.0621 Z" fill="#000000" fill-rule="evenodd" fill-opacity="1" /><path clip-path="url(#clip430)" d="M974.037 33.289 L974.037 30.6657 Q984.121 30.6657 989.326 25.2961 Q990.761 25.2961 991.007 25.624 Q991.253 25.9519 991.253 27.4685 L991.253 74.5652 Q991.253 77.0655 992.483 77.8443 Q993.712 78.6231 999.082 78.6231 L1001.75 78.6231 L1001.75 81.2054 Q998.795 80.9595 988.138 80.9595 Q977.481 80.9595 974.57 81.2054 L974.57 78.6231 L977.235 78.6231 Q982.522 78.6231 983.793 77.8853 Q985.064 77.1065 985.064 74.5652 L985.064 31.0756 Q980.678 33.289 974.037 33.289 Z" fill="#000000" fill-rule="evenodd" fill-opacity="1" /><path clip-path="url(#clip430)" d="M1008.38 79.8528 Q1007.11 78.5001 1007.11 76.7376 Q1007.11 74.9751 1008.38 73.7044 Q1009.65 72.3927 1011.58 72.3927 Q1013.42 72.3927 1014.65 73.6224 Q1015.92 74.8111 1015.92 76.7786 Q1015.92 78.7051 1014.57 79.9758 Q1013.26 81.2054 1011.58 81.2054 Q1009.65 81.2054 1008.38 79.8528 Z" fill="#000000" fill-rule="evenodd" fill-opacity="1" /><path clip-path="url(#clip430)" d="M1030.21 67.679 Q1030.21 65.1786 1031.56 64.2359 Q1032.91 63.2521 1034.35 63.2521 Q1036.27 63.2521 1037.38 64.4818 Q1038.53 65.6705 1038.53 67.3511 Q1038.53 69.0316 1037.38 70.2613 Q1036.27 71.45 1034.35 71.45 Q1033.4 71.45 1032.91 71.286 Q1034.02 75.139 1037.38 77.9263 Q1040.78 80.7136 1045.25 80.7136 Q1050.87 80.7136 1054.23 75.262 Q1056.24 71.7369 1056.24 63.744 Q1056.24 56.6938 1054.72 53.1688 Q1052.38 47.7992 1047.59 47.7992 Q1040.78 47.7992 1036.77 53.6606 Q1036.27 54.3984 1035.7 54.4394 Q1034.88 54.4394 1034.67 53.9886 Q1034.51 53.4967 1034.51 52.226 L1034.51 27.3865 Q1034.51 25.378 1035.33 25.378 Q1035.66 25.378 1036.36 25.624 Q1041.64 27.9604 1047.5 28.0014 Q1053.53 28.0014 1058.94 25.542 Q1059.35 25.2961 1059.6 25.2961 Q1060.42 25.2961 1060.46 26.2388 Q1060.46 26.5667 1059.76 27.5505 Q1059.1 28.4932 1057.67 29.7639 Q1056.24 30.9936 1054.39 32.1823 Q1052.55 33.371 1049.84 34.1907 Q1047.18 34.9695 1044.23 34.9695 Q1040.7 34.9695 1037.09 33.8628 L1037.09 50.2175 Q1041.44 45.9547 1047.75 45.9547 Q1054.47 45.9547 1059.1 51.3652 Q1063.74 56.7758 1063.74 64.3179 Q1063.74 72.2288 1058.24 77.6394 Q1052.79 83.05 1045.41 83.05 Q1038.69 83.05 1034.43 78.2542 Q1030.21 73.4585 1030.21 67.679 Z" fill="#000000" fill-rule="evenodd" fill-opacity="1" /><path clip-path="url(#clip430)" d="M1075.1 70.9161 L1083.65 70.9161 L1083.65 77.8837 L1077 90.8466 L1071.78 90.8466 L1075.1 77.8837 L1075.1 70.9161 Z" fill="#000000" fill-rule="evenodd" fill-opacity="1" /><path clip-path="url(#clip430)" d="M1156.12 42.957 Q1156.12 45.2934 1154.68 46.687 Q1153.29 48.0806 1151.53 48.0806 Q1149.97 48.0806 1149.15 47.1789 Q1148.33 46.2771 1148.33 45.1294 Q1148.33 44.6375 1148.53 44.0227 Q1148.74 43.3669 1149.19 42.5881 Q1149.68 41.8093 1150.71 41.2354 Q1151.73 40.6616 1153.12 40.5796 Q1152.84 40.2927 1152.76 40.2517 Q1152.14 39.7598 1150.99 39.5959 Q1150.83 39.5139 1150.26 39.5139 Q1147.43 39.5139 1144.56 41.6043 Q1141.73 43.6538 1138.25 47.5478 Q1133.86 52.0976 1131.03 53.7781 Q1143.45 55.4177 1143.45 62.5908 Q1143.45 63.7795 1143.12 65.2142 Q1142.47 67.9194 1142.47 69.8869 Q1142.47 73.8219 1145.13 73.8219 Q1147.71 73.8219 1149.35 71.1986 Q1151.03 68.5753 1152.43 63.4516 Q1152.63 62.5089 1152.84 62.2219 Q1153.04 61.935 1153.62 61.935 Q1154.64 61.935 1154.64 62.7548 Q1153.7 67.5505 1151.61 71.2396 Q1148.94 75.7074 1144.97 75.7074 Q1141.65 75.7074 1139.43 73.412 Q1137.26 71.0756 1137.26 67.3866 Q1137.26 66.4848 1137.59 64.4354 Q1137.84 63.6156 1137.84 62.6728 Q1137.84 60.7463 1136.77 59.3117 Q1135.7 57.8361 1133.98 57.0983 Q1132.26 56.3605 1130.83 56.0326 Q1129.43 55.6637 1128.08 55.5407 Q1123.98 72.8791 1123.41 73.9449 Q1123.04 74.6827 1122.22 75.1745 Q1121.4 75.7074 1120.54 75.7074 Q1119.72 75.7074 1118.9 75.1336 Q1118.12 74.6007 1118.12 73.33 Q1118.12 72.6742 1118.45 71.4855 L1130.62 23.1182 L1130.87 21.4786 Q1130.87 20.9867 1130.66 20.7408 Q1130.5 20.4539 1129.51 20.2489 Q1128.57 20.044 1126.69 20.044 Q1125.91 20.044 1125.54 20.003 Q1125.21 19.962 1124.92 19.757 Q1124.64 19.5111 1124.64 19.0192 Q1124.64 18.3224 1124.92 17.9535 Q1125.25 17.5436 1125.5 17.4616 Q1125.74 17.3797 1126.24 17.3387 Q1126.93 17.2977 1129.27 17.0927 Q1131.6 16.8468 1133.61 16.6828 Q1135.62 16.5189 1136.48 16.5189 Q1136.97 16.5189 1137.22 16.7648 Q1137.51 16.9698 1137.55 17.2157 L1137.59 17.4207 L1128.86 52.8354 Q1132.47 51.4008 1138.16 45.0474 Q1144.76 37.6694 1150.42 37.6694 Q1153.08 37.6694 1154.6 39.3089 Q1156.12 40.9075 1156.12 42.957 Z" fill="#000000" fill-rule="evenodd" fill-opacity="1" /><path clip-path="url(#clip430)" d="M1186.34 70.2138 Q1186.34 71.8205 1185.54 72.6813 Q1184.73 73.5134 1183.64 73.5134 Q1182.75 73.5134 1182.26 72.9969 Q1181.81 72.4805 1181.81 71.7919 Q1181.81 70.7876 1182.61 69.9842 Q1183.44 69.1808 1184.65 69.1521 Q1184.24 68.0905 1183.18 67.4593 Q1182.12 66.7994 1181.17 66.6272 Q1180.26 66.455 1179.34 66.455 Q1177.53 66.455 1176.15 67.0289 Q1174.78 67.6027 1174.09 68.4922 Q1173.4 69.353 1173.08 70.1851 Q1172.77 71.0172 1172.77 71.7345 Q1172.77 72.3657 1172.91 72.8822 Q1173.08 73.3699 1173.48 73.7429 Q1173.89 74.0873 1174.17 74.3168 Q1174.49 74.5463 1175.18 74.7472 Q1175.87 74.948 1176.15 75.0341 Q1176.44 75.0915 1177.24 75.2636 Q1178.91 75.608 1179.65 75.8088 Q1180.4 75.981 1181.37 76.4687 Q1182.38 76.9565 1183.13 77.7312 Q1184.93 79.5388 1184.93 82.0351 Q1184.93 82.9532 1184.62 84.0722 Q1184.33 85.1912 1183.5 86.5972 Q1182.67 88.0031 1181.4 89.1221 Q1180.14 90.2411 1177.96 91.0158 Q1175.81 91.7905 1173.11 91.7905 Q1169.35 91.7905 1167.03 90.2124 Q1164.7 88.6057 1164.7 86.0807 Q1164.7 84.2444 1165.71 83.2402 Q1166.71 82.2072 1168 82.2072 Q1168.98 82.2072 1169.58 82.7524 Q1170.18 83.2689 1170.18 84.2444 Q1170.18 85.5642 1169.12 86.5685 Q1168.06 87.5727 1166.48 87.3719 Q1167.83 90.4707 1173.17 90.4707 Q1175.18 90.4707 1176.73 89.9542 Q1178.3 89.409 1179.17 88.663 Q1180.05 87.8883 1180.63 86.9415 Q1181.2 85.9946 1181.37 85.2773 Q1181.58 84.56 1181.58 84.0149 Q1181.58 83.068 1181.2 82.3507 Q1180.83 81.6334 1180.31 81.2317 Q1179.83 80.8013 1178.88 80.457 Q1177.96 80.084 1177.3 79.9405 Q1176.64 79.7971 1175.46 79.5675 Q1174.92 79.4527 1174.57 79.3954 Q1174.23 79.3093 1173.51 79.0797 Q1172.82 78.8215 1172.34 78.5633 Q1171.88 78.305 1171.28 77.846 Q1170.67 77.3869 1170.3 76.8417 Q1169.93 76.2966 1169.67 75.4932 Q1169.41 74.6898 1169.41 73.7429 Q1169.41 72.8822 1169.67 71.8492 Q1169.96 70.8163 1170.67 69.6112 Q1171.42 68.4061 1172.48 67.4306 Q1173.54 66.455 1175.32 65.8238 Q1177.13 65.1639 1179.34 65.1639 Q1182.55 65.1639 1184.44 66.6559 Q1186.34 68.1192 1186.34 70.2138 Z" fill="#000000" fill-rule="evenodd" fill-opacity="1" /><path clip-path="url(#clip430)" d="M1218.38 62.017 Q1218.46 60.9923 1220.06 60.9923 L1271.5 60.9923 Q1273.92 60.9923 1273.96 61.935 Q1273.96 62.9597 1271.67 62.9188 L1220.64 62.9188 Q1218.38 62.9597 1218.38 62.017 M1218.38 45.6213 Q1218.38 44.5965 1220.14 44.6375 L1271.42 44.6375 Q1273.92 44.6375 1273.96 45.6213 Q1273.96 46.564 1271.83 46.564 L1220.06 46.564 Q1218.38 46.564 1218.38 45.6213 Z" fill="#000000" fill-rule="evenodd" fill-opacity="1" /><path clip-path="url(#clip430)" d="M1306.34 47.9167 Q1306.34 35.5789 1309.46 28.8567 Q1313.8 18.8553 1324.05 18.8553 Q1326.22 18.8553 1328.48 19.4701 Q1330.77 20.044 1333.64 22.2984 Q1336.55 24.5528 1338.31 28.2418 Q1341.67 35.374 1341.67 47.9167 Q1341.67 60.1725 1338.56 66.8537 Q1334.01 76.6092 1323.97 76.6092 Q1320.2 76.6092 1316.34 74.6827 Q1312.53 72.7562 1310.11 68.1244 Q1306.34 61.1972 1306.34 47.9167 M1313.31 46.8919 Q1313.31 59.5576 1314.21 64.5993 Q1315.24 70.0509 1318.02 72.4283 Q1320.85 74.7647 1323.97 74.7647 Q1327.33 74.7647 1330.12 72.2643 Q1332.94 69.723 1333.8 64.2714 Q1334.75 58.9018 1334.71 46.8919 Q1334.71 35.21 1333.89 30.5372 Q1332.78 25.0857 1329.83 22.9132 Q1326.92 20.6998 1323.97 20.6998 Q1322.86 20.6998 1321.67 21.0277 Q1320.52 21.3556 1318.84 22.2984 Q1317.16 23.2411 1315.85 25.5775 Q1314.58 27.9139 1313.97 31.439 Q1313.31 35.9888 1313.31 46.8919 Z" fill="#000000" fill-rule="evenodd" fill-opacity="1" /><path clip-path="url(#clip430)" d="M1351.23 70.9161 L1359.78 70.9161 L1359.78 77.8837 L1353.14 90.8466 L1347.91 90.8466 L1351.23 77.8837 L1351.23 70.9161 Z" fill="#000000" fill-rule="evenodd" fill-opacity="1" /><path clip-path="url(#clip430)" d="M1464.92 25.5151 Q1464.92 27.1957 1463.49 27.1957 Q1458.85 27.3596 1456.97 28.9172 Q1455.12 30.4338 1454.43 33.3851 L1442.7 80.1538 Q1442.29 81.6295 1442.05 81.7934 Q1441.8 81.9164 1441.35 81.9164 Q1440.78 81.9164 1440.45 81.6295 Q1440.16 81.3425 1439.75 80.3178 L1418.85 30.8847 Q1418.68 30.5568 1418.48 30.1059 Q1418.27 29.655 1418.11 29.3681 L1407 73.6775 Q1406.67 74.9482 1406.67 75.604 Q1406.67 77.2026 1407.78 78.2273 Q1408.93 79.2111 1412.21 79.3341 Q1413.89 79.3341 1413.89 80.2358 Q1413.89 81.9164 1412.37 81.9164 Q1410.98 81.9164 1408.07 81.7934 Q1405.16 81.6704 1403.72 81.6704 Q1402.33 81.6704 1399.5 81.7934 Q1396.67 81.9164 1395.32 81.9164 Q1394.25 81.9164 1394.25 80.9736 Q1394.25 80.2358 1394.54 79.8669 Q1394.83 79.457 1395.07 79.416 Q1395.32 79.3341 1395.69 79.3341 Q1398.15 79.2521 1399.83 78.7602 Q1401.51 78.2683 1402.45 77.3256 Q1403.44 76.3828 1403.89 75.4401 Q1404.38 74.4563 1404.75 73.0217 L1415.98 27.9335 Q1415.98 27.1957 1410.28 27.1957 Q1409.3 27.1957 1408.89 27.1547 Q1408.52 27.1137 1408.23 26.9088 Q1407.94 26.7038 1407.94 26.2529 Q1407.94 25.1052 1408.44 24.8593 Q1408.93 24.5724 1410.36 24.5724 L1421.64 24.5724 Q1423.07 24.5724 1423.44 24.8183 Q1423.81 25.0233 1424.3 26.171 L1442.87 69.9885 L1452.25 32.6473 Q1452.5 31.9095 1452.5 30.8847 Q1452.5 29.2452 1451.27 28.2614 Q1450.08 27.2367 1446.8 27.1957 Q1445.29 27.1957 1445.29 26.2529 Q1445.29 25.4741 1445.57 25.1052 Q1445.9 24.6953 1446.15 24.6544 Q1446.43 24.5724 1446.8 24.5724 Q1448.2 24.5724 1451.07 24.6953 Q1453.93 24.8183 1455.37 24.8183 Q1456.76 24.8183 1459.59 24.6953 Q1462.46 24.5724 1463.85 24.5724 Q1464.35 24.5724 1464.59 24.8183 Q1464.88 25.0233 1464.92 25.2692 L1464.92 25.5151 Z" fill="#000000" fill-rule="evenodd" fill-opacity="1" /><path clip-path="url(#clip430)" d="M1484.28 69.1687 Q1484.37 68.144 1485.97 68.144 L1537.41 68.144 Q1539.82 68.144 1539.87 69.0867 Q1539.87 70.1115 1537.57 70.0705 L1486.54 70.0705 Q1484.28 70.1115 1484.28 69.1687 M1484.28 52.773 Q1484.28 51.7483 1486.05 51.7893 L1537.32 51.7893 Q1539.82 51.7893 1539.87 52.773 Q1539.87 53.7158 1537.73 53.7158 L1485.97 53.7158 Q1484.28 53.7158 1484.28 52.773 Z" fill="#000000" fill-rule="evenodd" fill-opacity="1" /><path clip-path="url(#clip430)" d="M1572.24 33.9999 L1572.24 31.3766 Q1582.33 31.3766 1587.53 26.007 Q1588.97 26.007 1589.21 26.3349 Q1589.46 26.6628 1589.46 28.1794 L1589.46 75.2761 Q1589.46 77.7765 1590.69 78.5553 Q1591.92 79.3341 1597.29 79.3341 L1599.95 79.3341 L1599.95 81.9164 Q1597 81.6704 1586.34 81.6704 Q1575.69 81.6704 1572.78 81.9164 L1572.78 79.3341 L1575.44 79.3341 Q1580.73 79.3341 1582 78.5962 Q1583.27 77.8174 1583.27 75.2761 L1583.27 31.7865 Q1578.88 33.9999 1572.24 33.9999 Z" fill="#000000" fill-rule="evenodd" fill-opacity="1" /><path clip-path="url(#clip430)" d="M1604.04 55.0684 Q1604.04 42.7306 1607.16 36.0084 Q1611.5 26.007 1621.75 26.007 Q1623.92 26.007 1626.17 26.6218 Q1628.47 27.1957 1631.34 29.4501 Q1634.25 31.7045 1636.01 35.3935 Q1639.37 42.5257 1639.37 55.0684 Q1639.37 67.3242 1636.26 74.0054 Q1631.71 83.7609 1621.67 83.7609 Q1617.9 83.7609 1614.04 81.8344 Q1610.23 79.9079 1607.81 75.2761 Q1604.04 68.3489 1604.04 55.0684 M1611.01 54.0437 Q1611.01 66.7094 1611.91 71.751 Q1612.94 77.2026 1615.72 79.58 Q1618.55 81.9164 1621.67 81.9164 Q1625.03 81.9164 1627.81 79.416 Q1630.64 76.8747 1631.5 71.4231 Q1632.45 66.0535 1632.41 54.0437 Q1632.41 42.3617 1631.59 37.6889 Q1630.48 32.2374 1627.53 30.0649 Q1624.62 27.8515 1621.67 27.8515 Q1620.56 27.8515 1619.37 28.1794 Q1618.22 28.5073 1616.54 29.4501 Q1614.86 30.3929 1613.55 32.7292 Q1612.28 35.0656 1611.66 38.5907 Q1611.01 43.1405 1611.01 54.0437 Z" fill="#000000" fill-rule="evenodd" fill-opacity="1" /><path clip-path="url(#clip430)" d="M1645.95 55.0684 Q1645.95 42.7306 1649.06 36.0084 Q1653.41 26.007 1663.65 26.007 Q1665.83 26.007 1668.08 26.6218 Q1670.38 27.1957 1673.25 29.4501 Q1676.16 31.7045 1677.92 35.3935 Q1681.28 42.5257 1681.28 55.0684 Q1681.28 67.3242 1678.16 74.0054 Q1673.61 83.7609 1663.57 83.7609 Q1659.8 83.7609 1655.95 81.8344 Q1652.14 79.9079 1649.72 75.2761 Q1645.95 68.3489 1645.95 55.0684 M1652.92 54.0437 Q1652.92 66.7094 1653.82 71.751 Q1654.84 77.2026 1657.63 79.58 Q1660.46 81.9164 1663.57 81.9164 Q1666.93 81.9164 1669.72 79.416 Q1672.55 76.8747 1673.41 71.4231 Q1674.35 66.0535 1674.31 54.0437 Q1674.31 42.3617 1673.49 37.6889 Q1672.39 32.2374 1669.43 30.0649 Q1666.52 27.8515 1663.57 27.8515 Q1662.47 27.8515 1661.28 28.1794 Q1660.13 28.5073 1658.45 29.4501 Q1656.77 30.3929 1655.46 32.7292 Q1654.19 35.0656 1653.57 38.5907 Q1652.92 43.1405 1652.92 54.0437 Z" fill="#000000" fill-rule="evenodd" fill-opacity="1" /><path clip-path="url(#clip430)" d="M1687.85 55.0684 Q1687.85 42.7306 1690.97 36.0084 Q1695.31 26.007 1705.56 26.007 Q1707.73 26.007 1709.99 26.6218 Q1712.28 27.1957 1715.15 29.4501 Q1718.06 31.7045 1719.83 35.3935 Q1723.19 42.5257 1723.19 55.0684 Q1723.19 67.3242 1720.07 74.0054 Q1715.52 83.7609 1705.48 83.7609 Q1701.71 83.7609 1697.85 81.8344 Q1694.04 79.9079 1691.62 75.2761 Q1687.85 68.3489 1687.85 55.0684 M1694.82 54.0437 Q1694.82 66.7094 1695.72 71.751 Q1696.75 77.2026 1699.54 79.58 Q1702.36 81.9164 1705.48 81.9164 Q1708.84 81.9164 1711.63 79.416 Q1714.46 76.8747 1715.32 71.4231 Q1716.26 66.0535 1716.22 54.0437 Q1716.22 42.3617 1715.4 37.6889 Q1714.29 32.2374 1711.34 30.0649 Q1708.43 27.8515 1705.48 27.8515 Q1704.37 27.8515 1703.18 28.1794 Q1702.04 28.5073 1700.36 29.4501 Q1698.67 30.3929 1697.36 32.7292 Q1696.09 35.0656 1695.48 38.5907 Q1694.82 43.1405 1694.82 54.0437 Z" fill="#000000" fill-rule="evenodd" fill-opacity="1" /><polyline clip-path="url(#clip432)" style="stroke:#009af9; stroke-linecap:round; stroke-linejoin:round; stroke-width:4; stroke-opacity:1; fill:none" points="247.59,160.256 247.693,163.481 247.797,172.894 247.901,187.744 248.005,206.86 248.109,228.767 248.213,251.829 248.317,274.405 248.421,295.004 248.525,312.411 248.629,325.793 248.733,334.753 248.837,339.339 248.941,340.01 249.045,337.557 249.149,332.996 249.253,327.442 249.357,321.981 249.461,317.553 249.565,314.863 249.669,314.316 249.773,316 249.877,319.702 249.981,324.96 250.085,331.138 250.188,337.524 250.292,343.419 250.396,348.233 250.5,351.549 250.604,353.167 250.708,353.117 250.812,351.641 250.916,349.152 251.124,343.243 251.332,339.504 251.436,339.348 251.54,340.493 251.644,342.832 251.748,346.101 251.956,353.852 252.164,360.364 252.268,362.3 252.372,363.136 252.476,362.895 252.579,361.742 252.787,357.898 252.995,354.425 253.099,353.637 253.203,353.737 253.307,354.766 253.411,356.632 253.619,361.991 253.827,367.478 253.931,369.519 254.035,370.815 254.139,371.285 254.243,370.961 254.451,368.574 254.659,365.579 254.867,364.104 255.074,365.364 255.282,369.08 255.49,373.696 255.698,377.256 255.906,378.434 256.114,377.205 256.322,374.796 256.53,372.99 256.738,373.174 256.946,375.628 257.154,379.428 257.362,382.972 257.569,384.851 257.985,382.814 258.401,380.442 258.609,381.891 258.817,384.903 259.025,388.255 259.233,390.581 259.441,391.098 259.649,389.997 259.857,388.313 260.064,387.353 260.272,388.001 260.48,390.263 260.584,391.757 260.688,393.29 260.792,394.703 260.896,395.853 262.819,402.621 264.741,408.122 266.664,412.932 268.586,417.683 272.431,428.729 276.276,441.943 283.966,465.766 291.656,486.712 307.036,531.264 322.415,574.241 337.795,614.624 353.175,652.358 368.555,688.029 383.935,722.22 402.42,761.854 420.905,798.377 439.391,832.886 457.876,865.758 473.505,891.773 489.134,916.477 504.763,939.937 520.392,962.226 537.37,985.032 554.347,1006.87 571.325,1027.58 588.302,1046.94 619.606,1080.06 650.909,1109.94 667.69,1124.73 684.47,1138.87 701.25,1152 718.031,1164.63 756.914,1191.13 795.798,1214.61 830.353,1232.97 864.908,1249.4 895.209,1262.45 925.511,1274.15 958.548,1285.69 991.585,1296.05 1024.82,1305.38 1058.05,1313.74 1094.79,1321.99 1131.54,1329.3 1166.5,1335.5 1201.46,1341.02 1274.16,1350.67 1335.36,1357.17 1410.08,1363.54 1478.52,1368.14 1541.74,1371.6 1605.77,1374.39 1677.54,1376.94 1742.57,1378.78 1817.03,1380.45 1885.97,1381.6 1902.96,1381.96 1919.95,1382.28 1928.45,1382.3 1936.94,1382.12 1941.19,1382.38 1945.44,1381.42 1946.5,1382.2 1947.56,1381.68 1948.09,1382.46 1948.62,1380.74 1949.15,1380.81 1949.68,1383.19 1950.22,1377.85 1950.75,1364.97 1951.28,1360.64 1951.81,1368.57 1952.34,1373.94 1952.87,1371.91 1953.4,1371.67 1953.93,1374.21 1955.99,1374.6 1958.06,1374.15 1960.12,1373.75 1962.18,1373.72 1966.31,1373.87 1970.43,1372.81 1978.68,1370.8 1986.93,1367.21 1995.18,1362.71 2003.43,1357.48 2011.67,1351.03 2019.92,1343.51 2036.83,1326.33 2053.75,1306.66 2070.66,1284.65 2087.57,1261.32 2124.63,1207.08 2161.69,1151.76 2188.6,1112.08 2215.52,1074.18 2242.44,1038.4 2269.35,1005.07 2274.87,998.729 2280.4,992.463 2285.92,986.202 2291.44,979.997 "/>
<polyline clip-path="url(#clip432)" style="stroke:#e26f46; stroke-linecap:round; stroke-linejoin:round; stroke-width:4; stroke-opacity:1; fill:none" points="247.59,160.256 247.693,162.765 247.797,170.093 247.901,181.674 248.005,196.619 248.109,213.809 248.213,231.998 248.317,249.929 248.421,266.449 248.525,280.607 248.629,291.734 248.733,299.488 248.837,303.86 248.941,305.159 249.045,303.949 249.149,300.976 249.253,297.079 249.357,293.086 249.461,289.735 249.565,287.593 249.669,287.017 249.773,288.123 249.877,290.801 249.981,294.743 250.085,299.5 250.292,309.353 250.5,316.498 250.604,318.292 250.708,318.809 250.812,318.188 250.916,316.7 251.124,312.637 251.332,309.725 251.436,309.449 251.54,310.136 251.644,311.753 251.748,314.144 251.956,320.172 252.164,325.744 252.372,328.799 252.579,328.683 252.787,326.371 252.995,323.856 253.203,323.071 253.411,324.924 253.619,328.906 253.827,333.442 254.035,336.762 254.243,337.812 254.451,336.749 254.659,334.792 254.867,333.543 255.074,334.147 255.282,336.728 255.49,340.382 255.698,343.691 255.906,345.475 256.114,345.388 256.322,344.062 256.53,342.731 256.738,342.574 256.946,344.11 257.154,346.954 257.362,350.058 257.569,352.276 259.233,358.551 260.896,364.512 276.276,419.716 291.656,474.883 299.346,502.001 307.036,528.037 314.725,552.2 322.415,577.173 337.795,622.864 353.175,666.389 368.555,707.9 383.935,746.824 393.177,768.849 402.42,790.107 411.663,811.042 420.905,831.179 439.391,868.826 457.876,904.389 473.505,932.402 489.134,958.751 504.763,983.537 520.392,1006.87 537.37,1030.69 554.347,1053.2 571.325,1074.11 588.302,1093.69 603.954,1110.73 619.606,1126.78 635.258,1141.91 650.909,1156.15 667.69,1170.42 684.47,1183.87 701.25,1196.49 718.031,1208.26 737.472,1221.02 756.914,1232.88 776.356,1243.9 795.798,1254.14 830.353,1270.51 864.908,1284.92 895.209,1296 925.511,1305.9 958.548,1315.46 991.585,1323.91 1024.82,1331.38 1058.05,1337.97 1131.54,1349.86 1201.46,1358.45 1274.16,1365.24 1335.36,1369.68 1410.08,1373.85 1478.52,1376.75 1541.74,1378.84 1605.77,1380.49 1677.54,1381.93 1742.57,1382.92 1817.03,1383.79 1885.97,1384.44 1902.96,1384.53 1919.95,1384.63 1936.94,1384.94 1953.93,1386.06 1962.18,1385.45 1970.43,1383.15 1978.68,1378.92 1986.93,1373.12 1995.18,1366.09 2003.43,1357.53 2011.67,1347.69 2019.92,1337.14 2036.83,1312.62 2053.75,1285.07 2070.66,1255.86 2087.57,1225.15 2124.63,1156.49 2161.69,1089.44 2175.14,1066.02 2188.6,1043.54 2202.06,1022.09 2215.52,1001.31 2228.98,981.677 2242.44,963.26 2255.89,945.682 2269.35,929.344 2274.87,922.944 2280.4,916.806 2285.92,910.902 2291.44,905.171 "/>
<polyline clip-path="url(#clip432)" style="stroke:#3da44d; stroke-linecap:round; stroke-linejoin:round; stroke-width:4; stroke-opacity:1; fill:none" points="247.59,160.256 250.916,236.605 254.243,250.596 257.569,261.566 260.896,271.919 276.276,322.35 291.656,372.036 307.036,418.3 322.415,462.96 337.795,505.613 353.175,545.944 368.555,584.767 383.935,621.672 402.42,663.766 420.905,703.495 439.391,741.2 457.876,776.652 473.505,805.22 489.134,832.406 504.763,858.266 520.392,882.943 537.37,908.528 554.347,932.696 571.325,955.747 588.302,977.536 603.954,996.684 619.606,1014.96 635.258,1032.37 650.909,1048.93 684.47,1081.9 718.031,1111.66 737.472,1127.55 756.914,1142.53 776.356,1156.64 795.798,1169.94 830.353,1191.67 864.908,1211.26 895.209,1226.79 925.511,1240.95 958.548,1254.94 991.585,1267.62 1024.82,1279.12 1058.05,1289.5 1094.79,1299.84 1131.54,1309.05 1166.5,1316.91 1201.46,1323.99 1274.16,1336.46 1335.36,1345.01 1410.08,1353.49 1478.52,1359.72 1541.74,1364.44 1605.77,1368.36 1677.54,1371.93 1742.57,1374.56 1817.03,1376.98 1885.97,1378.77 1919.95,1379.51 1953.93,1382.62 1962.18,1385.27 1970.43,1386.4 1978.68,1386.11 1986.93,1384.53 1995.18,1381.7 2003.43,1377.77 2011.67,1372.84 2019.92,1366.89 2036.83,1352.18 2053.75,1334.38 2070.66,1314.23 2087.57,1292.06 2124.63,1238.98 2161.69,1182.72 2188.6,1141.54 2215.52,1101.14 2242.44,1062.21 2269.35,1025.3 2274.87,1018.02 2280.4,1010.85 2285.92,1003.78 2291.44,996.805 "/>
<polyline clip-path="url(#clip432)" style="stroke:#c271d2; stroke-linecap:round; stroke-linejoin:round; stroke-width:4; stroke-opacity:1; fill:none" points="247.59,160.256 250.916,187.484 254.243,193.295 257.569,198.147 260.896,202.931 291.656,249.991 322.415,295.156 353.175,338.498 383.935,380.11 420.905,427.98 457.876,473.541 489.134,510.412 520.392,545.762 554.347,582.563 588.302,617.752 619.606,648.808 650.909,678.64 684.47,709.258 718.031,738.558 756.914,770.938 795.798,801.683 830.353,827.725 864.908,852.597 895.209,873.502 925.511,893.587 958.548,914.58 991.585,934.693 1024.82,954.049 1058.05,972.588 1094.79,992.148 1131.54,1010.79 1166.5,1027.71 1201.46,1043.87 1274.16,1075.17 1335.36,1099.29 1410.08,1126.23 1478.52,1148.68 1541.74,1167.68 1605.77,1185.4 1677.54,1203.54 1742.57,1218.56 1817.03,1234.26 1885.97,1247.48 1902.96,1250.55 1919.95,1253.58 1928.45,1255.12 1936.94,1256.46 1941.19,1257.27 1945.44,1257.58 1946.5,1258.24 1947.56,1257.87 1948.62,1258.84 1949.68,1259.66 1950.22,1262.33 1950.75,1261.04 1951.28,1255.76 1951.81,1252.43 1952.34,1252.84 1952.87,1253.02 1953.4,1251.77 1953.93,1251.29 1962.18,1246.42 1970.43,1241.7 1978.68,1236.72 1986.93,1231.71 2003.43,1221.1 2019.92,1209.97 2053.75,1185.84 2087.57,1160.15 2124.63,1130.61 2161.69,1100.05 2215.52,1054.6 2269.35,1008.76 2280.4,999.374 2291.44,990.021 "/>
<polyline clip-path="url(#clip432)" style="stroke:#ac8d18; stroke-linecap:round; stroke-linejoin:round; stroke-width:4; stroke-opacity:1; fill:none" points="1865.64,2722.89 1865.64,-1176.24 "/>
<path clip-path="url(#clip430)" d="M1771.97 467.571 L2280.54 467.571 L2280.54 166.796 L1771.97 166.796  Z" fill="#ffffff" fill-rule="evenodd" fill-opacity="1"/>
<polyline clip-path="url(#clip430)" style="stroke:#000000; stroke-linecap:round; stroke-linejoin:round; stroke-width:4; stroke-opacity:1; fill:none" points="1771.97,467.571 2280.54,467.571 2280.54,166.796 1771.97,166.796 1771.97,467.571 "/>
<polyline clip-path="url(#clip430)" style="stroke:#009af9; stroke-linecap:round; stroke-linejoin:round; stroke-width:4; stroke-opacity:1; fill:none" points="1796.04,226.951 1940.47,226.951 "/>
<path clip-path="url(#clip430)" d="M1987.19 219.124 Q1987.19 222.591 1985.41 225.846 Q1983.66 229.102 1980.89 231.069 Q1978.15 233.037 1975.39 233.037 Q1972.27 233.037 1970.66 229.805 Q1967.73 241.539 1967.57 241.844 Q1966.89 242.851 1965.9 242.851 Q1965.29 242.851 1964.92 242.476 Q1964.54 242.125 1964.54 241.563 Q1964.57 241.375 1964.71 240.79 L1969.39 221.935 Q1970.47 217.555 1973.73 214.44 Q1977.01 211.301 1980.52 211.301 Q1983.31 211.301 1985.25 213.386 Q1987.19 215.47 1987.19 219.124 M1983.75 217.063 Q1983.75 214.721 1982.81 213.549 Q1981.88 212.355 1980.43 212.355 Q1979.09 212.355 1977.47 213.432 Q1975.88 214.51 1974.48 216.899 Q1973.73 218.281 1973.19 219.991 Q1972.65 221.7 1971.59 225.917 Q1971.22 227.603 1971.22 227.697 Q1971.22 227.884 1971.31 228.306 Q1971.43 228.727 1971.71 229.383 Q1972.02 230.015 1972.44 230.578 Q1972.86 231.14 1973.63 231.561 Q1974.41 231.96 1975.34 231.96 Q1976.79 231.96 1978.34 230.788 Q1979.91 229.594 1981.06 227.416 Q1982.02 225.659 1982.88 222.356 Q1983.75 219.03 1983.75 217.063 Z" fill="#000000" fill-rule="evenodd" fill-opacity="1" /><path clip-path="url(#clip430)" d="M2015.12 256.356 Q2015.12 256.668 2014.99 256.831 Q2014.88 256.979 2014.76 257.012 Q2014.66 257.028 2014.52 257.028 Q2014.09 257.028 2012.61 256.979 Q2011.14 256.93 2010.71 256.93 Q2010.02 256.93 2008.61 256.979 Q2007.2 257.028 2006.51 257.028 Q2006.06 257.028 2006.06 256.651 Q2006.06 256.405 2006.11 256.274 Q2006.15 256.126 2006.29 256.077 Q2006.43 256.012 2006.51 256.012 Q2006.61 255.995 2006.86 255.995 Q2007.19 255.995 2007.53 255.962 Q2007.88 255.913 2008.3 255.815 Q2008.73 255.717 2008.99 255.471 Q2009.27 255.225 2009.27 254.88 Q2009.27 254.733 2009.15 253.52 Q2009.04 252.306 2008.89 250.896 Q2008.74 249.47 2008.73 249.273 L2000.3 249.273 Q1999.53 250.601 1998.99 251.519 Q1998.45 252.437 1998.25 252.749 Q1998.05 253.06 1997.94 253.257 Q1997.83 253.454 1997.76 253.569 Q1997.28 254.438 1997.28 254.815 Q1997.28 255.864 1998.86 255.995 Q1999.4 255.995 1999.4 256.389 Q1999.4 256.684 1999.27 256.848 Q1999.14 256.995 1999.02 257.012 Q1998.92 257.028 1998.76 257.028 Q1998.22 257.028 1997.09 256.979 Q1995.96 256.93 1995.4 256.93 Q1994.92 256.93 1993.94 256.979 Q1992.96 257.028 1992.51 257.028 Q1992.32 257.028 1992.2 256.913 Q1992.09 256.799 1992.09 256.651 Q1992.09 256.422 1992.12 256.29 Q1992.17 256.159 1992.3 256.094 Q1992.43 256.028 1992.5 256.028 Q1992.56 256.012 1992.79 255.995 Q1994.04 255.913 1995.01 255.323 Q1995.99 254.716 1996.92 253.159 L2008.6 233.55 Q2008.71 233.353 2008.79 233.254 Q2008.88 233.156 2009.04 233.074 Q2009.22 232.992 2009.48 232.992 Q2009.89 232.992 2009.97 233.123 Q2010.06 233.238 2010.11 233.795 L2012.16 254.782 Q2012.2 255.225 2012.24 255.405 Q2012.29 255.569 2012.5 255.749 Q2012.73 255.913 2013.14 255.962 Q2013.57 255.995 2014.35 255.995 Q2014.65 255.995 2014.76 256.012 Q2014.88 256.012 2014.99 256.094 Q2015.12 256.176 2015.12 256.356 M2008.63 248.224 L2007.56 237.157 L2000.94 248.224 L2008.63 248.224 Z" fill="#000000" fill-rule="evenodd" fill-opacity="1" /><path clip-path="url(#clip430)" d="M2020.01 220.506 Q2020.01 212.402 2023.03 205.867 Q2024.32 203.126 2026.12 200.831 Q2027.93 198.536 2029.12 197.529 Q2030.32 196.521 2030.65 196.521 Q2031.11 196.521 2031.14 196.99 Q2031.14 197.224 2030.5 197.81 Q2022.78 205.68 2022.8 220.506 Q2022.8 235.379 2030.32 242.945 Q2031.14 243.764 2031.14 244.022 Q2031.14 244.491 2030.65 244.491 Q2030.32 244.491 2029.17 243.53 Q2028.02 242.57 2026.24 240.368 Q2024.46 238.166 2023.17 235.473 Q2020.01 228.938 2020.01 220.506 Z" fill="#000000" fill-rule="evenodd" fill-opacity="1" /><path clip-path="url(#clip430)" d="M2057.26 214.322 Q2057.26 215.657 2056.44 216.454 Q2055.64 217.25 2054.64 217.25 Q2053.75 217.25 2053.28 216.735 Q2052.81 216.22 2052.81 215.564 Q2052.81 215.283 2052.93 214.931 Q2053.04 214.557 2053.3 214.112 Q2053.58 213.667 2054.17 213.339 Q2054.75 213.011 2055.55 212.964 Q2055.39 212.8 2055.34 212.777 Q2054.99 212.495 2054.33 212.402 Q2054.24 212.355 2053.91 212.355 Q2052.29 212.355 2050.65 213.549 Q2049.04 214.721 2047.05 216.946 Q2044.54 219.546 2042.92 220.506 Q2050.02 221.443 2050.02 225.542 Q2050.02 226.221 2049.83 227.041 Q2049.46 228.587 2049.46 229.711 Q2049.46 231.96 2050.98 231.96 Q2052.46 231.96 2053.39 230.46 Q2054.36 228.961 2055.15 226.034 Q2055.27 225.495 2055.39 225.331 Q2055.5 225.167 2055.83 225.167 Q2056.42 225.167 2056.42 225.635 Q2055.88 228.376 2054.68 230.484 Q2053.16 233.037 2050.89 233.037 Q2048.99 233.037 2047.73 231.725 Q2046.49 230.39 2046.49 228.282 Q2046.49 227.767 2046.67 226.596 Q2046.81 226.127 2046.81 225.589 Q2046.81 224.488 2046.2 223.668 Q2045.6 222.825 2044.61 222.403 Q2043.63 221.982 2042.81 221.794 Q2042.01 221.583 2041.24 221.513 Q2038.9 231.421 2038.57 232.03 Q2038.36 232.451 2037.89 232.732 Q2037.42 233.037 2036.93 233.037 Q2036.46 233.037 2035.99 232.709 Q2035.55 232.405 2035.55 231.678 Q2035.55 231.304 2035.73 230.624 L2042.69 202.986 L2042.83 202.049 Q2042.83 201.768 2042.71 201.627 Q2042.62 201.463 2042.06 201.346 Q2041.52 201.229 2040.44 201.229 Q2040 201.229 2039.79 201.206 Q2039.6 201.182 2039.44 201.065 Q2039.27 200.925 2039.27 200.644 Q2039.27 200.246 2039.44 200.035 Q2039.62 199.8 2039.76 199.754 Q2039.9 199.707 2040.18 199.683 Q2040.58 199.66 2041.92 199.543 Q2043.25 199.402 2044.4 199.309 Q2045.55 199.215 2046.04 199.215 Q2046.32 199.215 2046.46 199.355 Q2046.63 199.473 2046.65 199.613 L2046.67 199.73 L2041.68 219.967 Q2043.74 219.147 2047 215.517 Q2050.77 211.301 2054 211.301 Q2055.53 211.301 2056.39 212.238 Q2057.26 213.151 2057.26 214.322 Z" fill="#000000" fill-rule="evenodd" fill-opacity="1" /><path clip-path="url(#clip430)" d="M2073.6 225.214 Q2073.65 224.628 2074.56 224.628 L2103.95 224.628 Q2105.34 224.628 2105.36 225.167 Q2105.36 225.753 2104.05 225.729 L2074.89 225.729 Q2073.6 225.753 2073.6 225.214 M2073.6 215.845 Q2073.6 215.259 2074.61 215.283 L2103.91 215.283 Q2105.34 215.283 2105.36 215.845 Q2105.36 216.384 2104.14 216.384 L2074.56 216.384 Q2073.6 216.384 2073.6 215.845 Z" fill="#000000" fill-rule="evenodd" fill-opacity="1" /><path clip-path="url(#clip430)" d="M2123.85 217.157 Q2123.85 210.106 2125.63 206.265 Q2128.11 200.55 2133.97 200.55 Q2135.21 200.55 2136.5 200.901 Q2137.81 201.229 2139.45 202.517 Q2141.11 203.806 2142.12 205.914 Q2144.04 209.989 2144.04 217.157 Q2144.04 224.16 2142.26 227.978 Q2139.66 233.552 2133.92 233.552 Q2131.77 233.552 2129.57 232.451 Q2127.39 231.351 2126.01 228.704 Q2123.85 224.745 2123.85 217.157 M2127.83 216.571 Q2127.83 223.808 2128.35 226.689 Q2128.93 229.805 2130.53 231.163 Q2132.14 232.498 2133.92 232.498 Q2135.84 232.498 2137.44 231.069 Q2139.05 229.617 2139.54 226.502 Q2140.08 223.434 2140.06 216.571 Q2140.06 209.896 2139.59 207.225 Q2138.96 204.11 2137.27 202.869 Q2135.61 201.604 2133.92 201.604 Q2133.29 201.604 2132.61 201.791 Q2131.95 201.979 2130.99 202.517 Q2130.03 203.056 2129.28 204.391 Q2128.56 205.726 2128.21 207.741 Q2127.83 210.341 2127.83 216.571 Z" fill="#000000" fill-rule="evenodd" fill-opacity="1" /><path clip-path="url(#clip430)" d="M2148.33 231.725 Q2147.6 230.952 2147.6 229.945 Q2147.6 228.938 2148.33 228.212 Q2149.05 227.462 2150.15 227.462 Q2151.21 227.462 2151.91 228.165 Q2152.64 228.844 2152.64 229.969 Q2152.64 231.069 2151.86 231.796 Q2151.11 232.498 2150.15 232.498 Q2149.05 232.498 2148.33 231.725 Z" fill="#000000" fill-rule="evenodd" fill-opacity="1" /><path clip-path="url(#clip430)" d="M2160.8 217.157 Q2160.8 210.106 2162.58 206.265 Q2165.06 200.55 2170.92 200.55 Q2172.16 200.55 2173.45 200.901 Q2174.76 201.229 2176.4 202.517 Q2178.06 203.806 2179.07 205.914 Q2180.99 209.989 2180.99 217.157 Q2180.99 224.16 2179.21 227.978 Q2176.61 233.552 2170.87 233.552 Q2168.71 233.552 2166.51 232.451 Q2164.33 231.351 2162.95 228.704 Q2160.8 224.745 2160.8 217.157 M2164.78 216.571 Q2164.78 223.808 2165.29 226.689 Q2165.88 229.805 2167.47 231.163 Q2169.09 232.498 2170.87 232.498 Q2172.79 232.498 2174.38 231.069 Q2176 229.617 2176.49 226.502 Q2177.03 223.434 2177.01 216.571 Q2177.01 209.896 2176.54 207.225 Q2175.91 204.11 2174.22 202.869 Q2172.56 201.604 2170.87 201.604 Q2170.24 201.604 2169.56 201.791 Q2168.9 201.979 2167.94 202.517 Q2166.98 203.056 2166.23 204.391 Q2165.51 205.726 2165.15 207.741 Q2164.78 210.341 2164.78 216.571 Z" fill="#000000" fill-rule="evenodd" fill-opacity="1" /><path clip-path="url(#clip430)" d="M2209.68 212.964 Q2209.68 214.603 2207.34 214.603 L2201.86 214.603 Q2201.02 218.492 2201.02 222.239 Q2201.02 226.713 2202.4 230.156 Q2202.68 230.835 2202.68 231.21 Q2202.68 231.913 2202.05 232.475 Q2201.44 233.037 2200.71 233.037 Q2200.11 233.037 2199.71 232.568 Q2199.33 232.1 2199 230.624 Q2198.61 228.891 2198.61 226.971 Q2198.61 224.675 2198.98 222.473 Q2199.36 220.248 2200.62 214.603 L2195.21 214.603 L2192.52 225.214 Q2191.56 228.797 2191.23 229.898 Q2191.02 230.554 2190.95 230.765 Q2190.88 230.976 2190.67 231.491 Q2190.48 231.983 2190.34 232.17 Q2190.2 232.334 2189.96 232.592 Q2189.73 232.873 2189.45 232.943 Q2189.17 233.037 2188.82 233.037 Q2188.28 233.037 2187.86 232.686 Q2187.43 232.358 2187.43 231.725 Q2187.43 231.304 2187.81 230.578 Q2192.26 220.974 2193.94 214.603 L2191.23 214.603 Q2187.48 214.603 2185.14 218.304 Q2184.76 218.796 2184.55 218.843 Q2184.46 218.866 2184.37 218.866 Q2184.11 218.866 2183.94 218.749 Q2183.8 218.632 2183.8 218.515 L2183.78 218.398 Q2183.78 218.257 2184.13 217.625 Q2184.51 216.969 2185.21 215.962 Q2185.93 214.955 2186.71 214.088 Q2187.46 213.292 2188.18 212.8 Q2188.93 212.285 2189.64 212.097 Q2190.34 211.91 2190.74 211.863 Q2191.13 211.816 2191.7 211.816 L2207.76 211.816 Q2208.37 211.816 2208.7 211.863 Q2209.03 211.886 2209.36 212.168 Q2209.68 212.425 2209.68 212.964 Z" fill="#000000" fill-rule="evenodd" fill-opacity="1" /><path clip-path="url(#clip430)" d="M2214.11 244.022 Q2214.11 243.788 2214.72 243.202 Q2222.45 235.332 2222.45 220.506 Q2222.45 205.633 2215.02 198.114 Q2214.11 197.247 2214.11 196.99 Q2214.11 196.521 2214.58 196.521 Q2214.91 196.521 2216.05 197.482 Q2217.23 198.442 2218.98 200.644 Q2220.76 202.845 2222.07 205.539 Q2225.24 212.074 2225.24 220.506 Q2225.24 228.61 2222.21 235.145 Q2220.93 237.885 2219.12 240.181 Q2217.32 242.476 2216.12 243.483 Q2214.93 244.491 2214.58 244.491 Q2214.11 244.491 2214.11 244.022 Z" fill="#000000" fill-rule="evenodd" fill-opacity="1" /><polyline clip-path="url(#clip430)" style="stroke:#e26f46; stroke-linecap:round; stroke-linejoin:round; stroke-width:4; stroke-opacity:1; fill:none" points="1796.04,287.106 1940.47,287.106 "/>
<path clip-path="url(#clip430)" d="M1987.19 279.279 Q1987.19 282.746 1985.41 286.001 Q1983.66 289.257 1980.89 291.224 Q1978.15 293.192 1975.39 293.192 Q1972.27 293.192 1970.66 289.96 Q1967.73 301.694 1967.57 301.999 Q1966.89 303.006 1965.9 303.006 Q1965.29 303.006 1964.92 302.631 Q1964.54 302.28 1964.54 301.718 Q1964.57 301.53 1964.71 300.945 L1969.39 282.09 Q1970.47 277.71 1973.73 274.595 Q1977.01 271.456 1980.52 271.456 Q1983.31 271.456 1985.25 273.541 Q1987.19 275.625 1987.19 279.279 M1983.75 277.218 Q1983.75 274.876 1982.81 273.704 Q1981.88 272.51 1980.43 272.51 Q1979.09 272.51 1977.47 273.587 Q1975.88 274.665 1974.48 277.054 Q1973.73 278.436 1973.19 280.146 Q1972.65 281.855 1971.59 286.072 Q1971.22 287.758 1971.22 287.852 Q1971.22 288.039 1971.31 288.461 Q1971.43 288.882 1971.71 289.538 Q1972.02 290.17 1972.44 290.733 Q1972.86 291.295 1973.63 291.716 Q1974.41 292.115 1975.34 292.115 Q1976.79 292.115 1978.34 290.943 Q1979.91 289.749 1981.06 287.571 Q1982.02 285.814 1982.88 282.511 Q1983.75 279.185 1983.75 277.218 Z" fill="#000000" fill-rule="evenodd" fill-opacity="1" /><path clip-path="url(#clip430)" d="M2015.12 316.511 Q2015.12 316.823 2014.99 316.986 Q2014.88 317.134 2014.76 317.167 Q2014.66 317.183 2014.52 317.183 Q2014.09 317.183 2012.61 317.134 Q2011.14 317.085 2010.71 317.085 Q2010.02 317.085 2008.61 317.134 Q2007.2 317.183 2006.51 317.183 Q2006.06 317.183 2006.06 316.806 Q2006.06 316.56 2006.11 316.429 Q2006.15 316.281 2006.29 316.232 Q2006.43 316.167 2006.51 316.167 Q2006.61 316.15 2006.86 316.15 Q2007.19 316.15 2007.53 316.117 Q2007.88 316.068 2008.3 315.97 Q2008.73 315.872 2008.99 315.626 Q2009.27 315.38 2009.27 315.035 Q2009.27 314.888 2009.15 313.675 Q2009.04 312.461 2008.89 311.051 Q2008.74 309.625 2008.73 309.428 L2000.3 309.428 Q1999.53 310.756 1998.99 311.674 Q1998.45 312.592 1998.25 312.904 Q1998.05 313.215 1997.94 313.412 Q1997.83 313.609 1997.76 313.724 Q1997.28 314.593 1997.28 314.97 Q1997.28 316.019 1998.86 316.15 Q1999.4 316.15 1999.4 316.544 Q1999.4 316.839 1999.27 317.003 Q1999.14 317.15 1999.02 317.167 Q1998.92 317.183 1998.76 317.183 Q1998.22 317.183 1997.09 317.134 Q1995.96 317.085 1995.4 317.085 Q1994.92 317.085 1993.94 317.134 Q1992.96 317.183 1992.51 317.183 Q1992.32 317.183 1992.2 317.068 Q1992.09 316.954 1992.09 316.806 Q1992.09 316.577 1992.12 316.445 Q1992.17 316.314 1992.3 316.249 Q1992.43 316.183 1992.5 316.183 Q1992.56 316.167 1992.79 316.15 Q1994.04 316.068 1995.01 315.478 Q1995.99 314.871 1996.92 313.314 L2008.6 293.705 Q2008.71 293.508 2008.79 293.409 Q2008.88 293.311 2009.04 293.229 Q2009.22 293.147 2009.48 293.147 Q2009.89 293.147 2009.97 293.278 Q2010.06 293.393 2010.11 293.95 L2012.16 314.937 Q2012.2 315.38 2012.24 315.56 Q2012.29 315.724 2012.5 315.904 Q2012.73 316.068 2013.14 316.117 Q2013.57 316.15 2014.35 316.15 Q2014.65 316.15 2014.76 316.167 Q2014.88 316.167 2014.99 316.249 Q2015.12 316.331 2015.12 316.511 M2008.63 308.379 L2007.56 297.312 L2000.94 308.379 L2008.63 308.379 Z" fill="#000000" fill-rule="evenodd" fill-opacity="1" /><path clip-path="url(#clip430)" d="M2020.01 280.661 Q2020.01 272.557 2023.03 266.022 Q2024.32 263.281 2026.12 260.986 Q2027.93 258.691 2029.12 257.684 Q2030.32 256.676 2030.65 256.676 Q2031.11 256.676 2031.14 257.145 Q2031.14 257.379 2030.5 257.965 Q2022.78 265.835 2022.8 280.661 Q2022.8 295.534 2030.32 303.1 Q2031.14 303.919 2031.14 304.177 Q2031.14 304.646 2030.65 304.646 Q2030.32 304.646 2029.17 303.685 Q2028.02 302.725 2026.24 300.523 Q2024.46 298.321 2023.17 295.628 Q2020.01 289.093 2020.01 280.661 Z" fill="#000000" fill-rule="evenodd" fill-opacity="1" /><path clip-path="url(#clip430)" d="M2057.26 274.477 Q2057.26 275.812 2056.44 276.609 Q2055.64 277.405 2054.64 277.405 Q2053.75 277.405 2053.28 276.89 Q2052.81 276.375 2052.81 275.719 Q2052.81 275.438 2052.93 275.086 Q2053.04 274.712 2053.3 274.267 Q2053.58 273.822 2054.17 273.494 Q2054.75 273.166 2055.55 273.119 Q2055.39 272.955 2055.34 272.932 Q2054.99 272.65 2054.33 272.557 Q2054.24 272.51 2053.91 272.51 Q2052.29 272.51 2050.65 273.704 Q2049.04 274.876 2047.05 277.101 Q2044.54 279.701 2042.92 280.661 Q2050.02 281.598 2050.02 285.697 Q2050.02 286.376 2049.83 287.196 Q2049.46 288.742 2049.46 289.866 Q2049.46 292.115 2050.98 292.115 Q2052.46 292.115 2053.39 290.615 Q2054.36 289.116 2055.15 286.189 Q2055.27 285.65 2055.39 285.486 Q2055.5 285.322 2055.83 285.322 Q2056.42 285.322 2056.42 285.79 Q2055.88 288.531 2054.68 290.639 Q2053.16 293.192 2050.89 293.192 Q2048.99 293.192 2047.73 291.88 Q2046.49 290.545 2046.49 288.437 Q2046.49 287.922 2046.67 286.751 Q2046.81 286.282 2046.81 285.744 Q2046.81 284.643 2046.2 283.823 Q2045.6 282.98 2044.61 282.558 Q2043.63 282.137 2042.81 281.949 Q2042.01 281.738 2041.24 281.668 Q2038.9 291.576 2038.57 292.185 Q2038.36 292.606 2037.89 292.887 Q2037.42 293.192 2036.93 293.192 Q2036.46 293.192 2035.99 292.864 Q2035.55 292.56 2035.55 291.833 Q2035.55 291.459 2035.73 290.779 L2042.69 263.141 L2042.83 262.204 Q2042.83 261.923 2042.71 261.782 Q2042.62 261.618 2042.06 261.501 Q2041.52 261.384 2040.44 261.384 Q2040 261.384 2039.79 261.361 Q2039.6 261.337 2039.44 261.22 Q2039.27 261.08 2039.27 260.799 Q2039.27 260.401 2039.44 260.19 Q2039.62 259.955 2039.76 259.909 Q2039.9 259.862 2040.18 259.838 Q2040.58 259.815 2041.92 259.698 Q2043.25 259.557 2044.4 259.464 Q2045.55 259.37 2046.04 259.37 Q2046.32 259.37 2046.46 259.51 Q2046.63 259.628 2046.65 259.768 L2046.67 259.885 L2041.68 280.122 Q2043.74 279.302 2047 275.672 Q2050.77 271.456 2054 271.456 Q2055.53 271.456 2056.39 272.393 Q2057.26 273.306 2057.26 274.477 Z" fill="#000000" fill-rule="evenodd" fill-opacity="1" /><path clip-path="url(#clip430)" d="M2073.6 285.369 Q2073.65 284.783 2074.56 284.783 L2103.95 284.783 Q2105.34 284.783 2105.36 285.322 Q2105.36 285.908 2104.05 285.884 L2074.89 285.884 Q2073.6 285.908 2073.6 285.369 M2073.6 276 Q2073.6 275.414 2074.61 275.438 L2103.91 275.438 Q2105.34 275.438 2105.36 276 Q2105.36 276.539 2104.14 276.539 L2074.56 276.539 Q2073.6 276.539 2073.6 276 Z" fill="#000000" fill-rule="evenodd" fill-opacity="1" /><path clip-path="url(#clip430)" d="M2123.85 277.312 Q2123.85 270.261 2125.63 266.42 Q2128.11 260.705 2133.97 260.705 Q2135.21 260.705 2136.5 261.056 Q2137.81 261.384 2139.45 262.672 Q2141.11 263.961 2142.12 266.069 Q2144.04 270.144 2144.04 277.312 Q2144.04 284.315 2142.26 288.133 Q2139.66 293.707 2133.92 293.707 Q2131.77 293.707 2129.57 292.606 Q2127.39 291.506 2126.01 288.859 Q2123.85 284.9 2123.85 277.312 M2127.83 276.726 Q2127.83 283.963 2128.35 286.844 Q2128.93 289.96 2130.53 291.318 Q2132.14 292.653 2133.92 292.653 Q2135.84 292.653 2137.44 291.224 Q2139.05 289.772 2139.54 286.657 Q2140.08 283.589 2140.06 276.726 Q2140.06 270.051 2139.59 267.38 Q2138.96 264.265 2137.27 263.024 Q2135.61 261.759 2133.92 261.759 Q2133.29 261.759 2132.61 261.946 Q2131.95 262.134 2130.99 262.672 Q2130.03 263.211 2129.28 264.546 Q2128.56 265.881 2128.21 267.896 Q2127.83 270.496 2127.83 276.726 Z" fill="#000000" fill-rule="evenodd" fill-opacity="1" /><path clip-path="url(#clip430)" d="M2148.33 291.88 Q2147.6 291.107 2147.6 290.1 Q2147.6 289.093 2148.33 288.367 Q2149.05 287.617 2150.15 287.617 Q2151.21 287.617 2151.91 288.32 Q2152.64 288.999 2152.64 290.124 Q2152.64 291.224 2151.86 291.951 Q2151.11 292.653 2150.15 292.653 Q2149.05 292.653 2148.33 291.88 Z" fill="#000000" fill-rule="evenodd" fill-opacity="1" /><path clip-path="url(#clip430)" d="M2160.8 286.189 Q2160.8 284.76 2161.62 284.081 Q2162.44 283.401 2163.49 283.401 Q2164.59 283.401 2165.37 284.127 Q2166.16 284.83 2166.16 286.072 Q2166.16 287.407 2165.22 288.156 Q2164.31 288.906 2163 288.718 Q2164.15 290.639 2166.26 291.506 Q2168.39 292.372 2170.35 292.372 Q2172.42 292.372 2174.08 290.592 Q2175.76 288.812 2175.76 284.455 Q2175.76 280.755 2174.31 278.623 Q2172.88 276.492 2170.05 276.492 L2167.94 276.492 Q2167.22 276.492 2167 276.421 Q2166.79 276.351 2166.79 275.953 Q2166.79 275.485 2167.52 275.391 Q2168.25 275.391 2169.39 275.25 Q2172.18 275.157 2173.66 272.744 Q2174.99 270.496 2174.99 267.287 Q2174.99 264.359 2173.59 263.141 Q2172.2 261.9 2170.4 261.9 Q2168.71 261.9 2166.86 262.602 Q2165.01 263.305 2164.01 264.874 Q2166.98 264.874 2166.98 267.287 Q2166.98 268.341 2166.3 269.043 Q2165.65 269.723 2164.55 269.723 Q2163.49 269.723 2162.79 269.067 Q2162.09 268.388 2162.09 267.24 Q2162.09 264.499 2164.52 262.602 Q2166.98 260.705 2170.59 260.705 Q2174.15 260.705 2176.77 262.579 Q2179.42 264.453 2179.42 267.334 Q2179.42 270.168 2177.54 272.486 Q2175.67 274.805 2172.7 275.766 Q2176.35 276.492 2178.53 278.975 Q2180.71 281.434 2180.71 284.455 Q2180.71 288.203 2177.76 290.967 Q2174.8 293.707 2170.49 293.707 Q2166.51 293.707 2163.66 291.552 Q2160.8 289.397 2160.8 286.189 Z" fill="#000000" fill-rule="evenodd" fill-opacity="1" /><path clip-path="url(#clip430)" d="M2184.74 286.189 Q2184.74 284.76 2185.56 284.081 Q2186.38 283.401 2187.43 283.401 Q2188.53 283.401 2189.31 284.127 Q2190.1 284.83 2190.1 286.072 Q2190.1 287.407 2189.17 288.156 Q2188.25 288.906 2186.94 288.718 Q2188.09 290.639 2190.2 291.506 Q2192.33 292.372 2194.3 292.372 Q2196.36 292.372 2198.02 290.592 Q2199.71 288.812 2199.71 284.455 Q2199.71 280.755 2198.25 278.623 Q2196.83 276.492 2193.99 276.492 L2191.88 276.492 Q2191.16 276.492 2190.95 276.421 Q2190.74 276.351 2190.74 275.953 Q2190.74 275.485 2191.46 275.391 Q2192.19 275.391 2193.34 275.25 Q2196.12 275.157 2197.6 272.744 Q2198.93 270.496 2198.93 267.287 Q2198.93 264.359 2197.53 263.141 Q2196.15 261.9 2194.34 261.9 Q2192.66 261.9 2190.81 262.602 Q2188.96 263.305 2187.95 264.874 Q2190.92 264.874 2190.92 267.287 Q2190.92 268.341 2190.24 269.043 Q2189.59 269.723 2188.49 269.723 Q2187.43 269.723 2186.73 269.067 Q2186.03 268.388 2186.03 267.24 Q2186.03 264.499 2188.46 262.602 Q2190.92 260.705 2194.53 260.705 Q2198.09 260.705 2200.71 262.579 Q2203.36 264.453 2203.36 267.334 Q2203.36 270.168 2201.49 272.486 Q2199.61 274.805 2196.64 275.766 Q2200.29 276.492 2202.47 278.975 Q2204.65 281.434 2204.65 284.455 Q2204.65 288.203 2201.7 290.967 Q2198.75 293.707 2194.44 293.707 Q2190.45 293.707 2187.6 291.552 Q2184.74 289.397 2184.74 286.189 Z" fill="#000000" fill-rule="evenodd" fill-opacity="1" /><path clip-path="url(#clip430)" d="M2233.63 273.119 Q2233.63 274.758 2231.28 274.758 L2225.8 274.758 Q2224.96 278.647 2224.96 282.394 Q2224.96 286.868 2226.34 290.311 Q2226.62 290.99 2226.62 291.365 Q2226.62 292.068 2225.99 292.63 Q2225.38 293.192 2224.66 293.192 Q2224.05 293.192 2223.65 292.723 Q2223.27 292.255 2222.95 290.779 Q2222.55 289.046 2222.55 287.126 Q2222.55 284.83 2222.92 282.628 Q2223.3 280.403 2224.56 274.758 L2219.15 274.758 L2216.46 285.369 Q2215.5 288.952 2215.17 290.053 Q2214.96 290.709 2214.89 290.92 Q2214.82 291.131 2214.61 291.646 Q2214.42 292.138 2214.28 292.325 Q2214.14 292.489 2213.91 292.747 Q2213.67 293.028 2213.39 293.098 Q2213.11 293.192 2212.76 293.192 Q2212.22 293.192 2211.8 292.841 Q2211.38 292.513 2211.38 291.88 Q2211.38 291.459 2211.75 290.733 Q2216.2 281.129 2217.89 274.758 L2215.17 274.758 Q2211.42 274.758 2209.08 278.459 Q2208.71 278.951 2208.49 278.998 Q2208.4 279.021 2208.31 279.021 Q2208.05 279.021 2207.89 278.904 Q2207.75 278.787 2207.75 278.67 L2207.72 278.553 Q2207.72 278.412 2208.07 277.78 Q2208.45 277.124 2209.15 276.117 Q2209.88 275.11 2210.65 274.243 Q2211.4 273.447 2212.13 272.955 Q2212.87 272.44 2213.58 272.252 Q2214.28 272.065 2214.68 272.018 Q2215.08 271.971 2215.64 271.971 L2231.71 271.971 Q2232.32 271.971 2232.64 272.018 Q2232.97 272.041 2233.3 272.323 Q2233.63 272.58 2233.63 273.119 Z" fill="#000000" fill-rule="evenodd" fill-opacity="1" /><path clip-path="url(#clip430)" d="M2238.05 304.177 Q2238.05 303.943 2238.66 303.357 Q2246.39 295.487 2246.39 280.661 Q2246.39 265.788 2238.97 258.269 Q2238.05 257.402 2238.05 257.145 Q2238.05 256.676 2238.52 256.676 Q2238.85 256.676 2240 257.637 Q2241.17 258.597 2242.92 260.799 Q2244.7 263 2246.02 265.694 Q2249.18 272.229 2249.18 280.661 Q2249.18 288.765 2246.16 295.3 Q2244.87 298.04 2243.06 300.336 Q2241.26 302.631 2240.07 303.638 Q2238.87 304.646 2238.52 304.646 Q2238.05 304.646 2238.05 304.177 Z" fill="#000000" fill-rule="evenodd" fill-opacity="1" /><polyline clip-path="url(#clip430)" style="stroke:#3da44d; stroke-linecap:round; stroke-linejoin:round; stroke-width:4; stroke-opacity:1; fill:none" points="1796.04,347.261 1940.47,347.261 "/>
<path clip-path="url(#clip430)" d="M1987.19 339.434 Q1987.19 342.901 1985.41 346.156 Q1983.66 349.412 1980.89 351.379 Q1978.15 353.347 1975.39 353.347 Q1972.27 353.347 1970.66 350.115 Q1967.73 361.849 1967.57 362.154 Q1966.89 363.161 1965.9 363.161 Q1965.29 363.161 1964.92 362.786 Q1964.54 362.435 1964.54 361.873 Q1964.57 361.685 1964.71 361.1 L1969.39 342.245 Q1970.47 337.865 1973.73 334.75 Q1977.01 331.611 1980.52 331.611 Q1983.31 331.611 1985.25 333.696 Q1987.19 335.78 1987.19 339.434 M1983.75 337.373 Q1983.75 335.031 1982.81 333.859 Q1981.88 332.665 1980.43 332.665 Q1979.09 332.665 1977.47 333.742 Q1975.88 334.82 1974.48 337.209 Q1973.73 338.591 1973.19 340.301 Q1972.65 342.01 1971.59 346.227 Q1971.22 347.913 1971.22 348.007 Q1971.22 348.194 1971.31 348.616 Q1971.43 349.037 1971.71 349.693 Q1972.02 350.325 1972.44 350.888 Q1972.86 351.45 1973.63 351.871 Q1974.41 352.27 1975.34 352.27 Q1976.79 352.27 1978.34 351.098 Q1979.91 349.904 1981.06 347.726 Q1982.02 345.969 1982.88 342.666 Q1983.75 339.34 1983.75 337.373 Z" fill="#000000" fill-rule="evenodd" fill-opacity="1" /><path clip-path="url(#clip430)" d="M2015.12 376.666 Q2015.12 376.978 2014.99 377.141 Q2014.88 377.289 2014.76 377.322 Q2014.66 377.338 2014.52 377.338 Q2014.09 377.338 2012.61 377.289 Q2011.14 377.24 2010.71 377.24 Q2010.02 377.24 2008.61 377.289 Q2007.2 377.338 2006.51 377.338 Q2006.06 377.338 2006.06 376.961 Q2006.06 376.715 2006.11 376.584 Q2006.15 376.436 2006.29 376.387 Q2006.43 376.322 2006.51 376.322 Q2006.61 376.305 2006.86 376.305 Q2007.19 376.305 2007.53 376.272 Q2007.88 376.223 2008.3 376.125 Q2008.73 376.027 2008.99 375.781 Q2009.27 375.535 2009.27 375.19 Q2009.27 375.043 2009.15 373.83 Q2009.04 372.616 2008.89 371.206 Q2008.74 369.78 2008.73 369.583 L2000.3 369.583 Q1999.53 370.911 1998.99 371.829 Q1998.45 372.747 1998.25 373.059 Q1998.05 373.37 1997.94 373.567 Q1997.83 373.764 1997.76 373.879 Q1997.28 374.748 1997.28 375.125 Q1997.28 376.174 1998.86 376.305 Q1999.4 376.305 1999.4 376.699 Q1999.4 376.994 1999.27 377.158 Q1999.14 377.305 1999.02 377.322 Q1998.92 377.338 1998.76 377.338 Q1998.22 377.338 1997.09 377.289 Q1995.96 377.24 1995.4 377.24 Q1994.92 377.24 1993.94 377.289 Q1992.96 377.338 1992.51 377.338 Q1992.32 377.338 1992.2 377.223 Q1992.09 377.109 1992.09 376.961 Q1992.09 376.732 1992.12 376.6 Q1992.17 376.469 1992.3 376.404 Q1992.43 376.338 1992.5 376.338 Q1992.56 376.322 1992.79 376.305 Q1994.04 376.223 1995.01 375.633 Q1995.99 375.026 1996.92 373.469 L2008.6 353.86 Q2008.71 353.663 2008.79 353.564 Q2008.88 353.466 2009.04 353.384 Q2009.22 353.302 2009.48 353.302 Q2009.89 353.302 2009.97 353.433 Q2010.06 353.548 2010.11 354.105 L2012.16 375.092 Q2012.2 375.535 2012.24 375.715 Q2012.29 375.879 2012.5 376.059 Q2012.73 376.223 2013.14 376.272 Q2013.57 376.305 2014.35 376.305 Q2014.65 376.305 2014.76 376.322 Q2014.88 376.322 2014.99 376.404 Q2015.12 376.486 2015.12 376.666 M2008.63 368.534 L2007.56 357.467 L2000.94 368.534 L2008.63 368.534 Z" fill="#000000" fill-rule="evenodd" fill-opacity="1" /><path clip-path="url(#clip430)" d="M2020.01 340.816 Q2020.01 332.712 2023.03 326.177 Q2024.32 323.436 2026.12 321.141 Q2027.93 318.846 2029.12 317.839 Q2030.32 316.831 2030.65 316.831 Q2031.11 316.831 2031.14 317.3 Q2031.14 317.534 2030.5 318.12 Q2022.78 325.99 2022.8 340.816 Q2022.8 355.689 2030.32 363.255 Q2031.14 364.074 2031.14 364.332 Q2031.14 364.801 2030.65 364.801 Q2030.32 364.801 2029.17 363.84 Q2028.02 362.88 2026.24 360.678 Q2024.46 358.476 2023.17 355.783 Q2020.01 349.248 2020.01 340.816 Z" fill="#000000" fill-rule="evenodd" fill-opacity="1" /><path clip-path="url(#clip430)" d="M2057.26 334.632 Q2057.26 335.967 2056.44 336.764 Q2055.64 337.56 2054.64 337.56 Q2053.75 337.56 2053.28 337.045 Q2052.81 336.53 2052.81 335.874 Q2052.81 335.593 2052.93 335.241 Q2053.04 334.867 2053.3 334.422 Q2053.58 333.977 2054.17 333.649 Q2054.75 333.321 2055.55 333.274 Q2055.39 333.11 2055.34 333.087 Q2054.99 332.805 2054.33 332.712 Q2054.24 332.665 2053.91 332.665 Q2052.29 332.665 2050.65 333.859 Q2049.04 335.031 2047.05 337.256 Q2044.54 339.856 2042.92 340.816 Q2050.02 341.753 2050.02 345.852 Q2050.02 346.531 2049.83 347.351 Q2049.46 348.897 2049.46 350.021 Q2049.46 352.27 2050.98 352.27 Q2052.46 352.27 2053.39 350.77 Q2054.36 349.271 2055.15 346.344 Q2055.27 345.805 2055.39 345.641 Q2055.5 345.477 2055.83 345.477 Q2056.42 345.477 2056.42 345.945 Q2055.88 348.686 2054.68 350.794 Q2053.16 353.347 2050.89 353.347 Q2048.99 353.347 2047.73 352.035 Q2046.49 350.7 2046.49 348.592 Q2046.49 348.077 2046.67 346.906 Q2046.81 346.437 2046.81 345.899 Q2046.81 344.798 2046.2 343.978 Q2045.6 343.135 2044.61 342.713 Q2043.63 342.292 2042.81 342.104 Q2042.01 341.893 2041.24 341.823 Q2038.9 351.731 2038.57 352.34 Q2038.36 352.761 2037.89 353.042 Q2037.42 353.347 2036.93 353.347 Q2036.46 353.347 2035.99 353.019 Q2035.55 352.715 2035.55 351.988 Q2035.55 351.614 2035.73 350.934 L2042.69 323.296 L2042.83 322.359 Q2042.83 322.078 2042.71 321.937 Q2042.62 321.773 2042.06 321.656 Q2041.52 321.539 2040.44 321.539 Q2040 321.539 2039.79 321.516 Q2039.6 321.492 2039.44 321.375 Q2039.27 321.235 2039.27 320.954 Q2039.27 320.556 2039.44 320.345 Q2039.62 320.11 2039.76 320.064 Q2039.9 320.017 2040.18 319.993 Q2040.58 319.97 2041.92 319.853 Q2043.25 319.712 2044.4 319.619 Q2045.55 319.525 2046.04 319.525 Q2046.32 319.525 2046.46 319.665 Q2046.63 319.783 2046.65 319.923 L2046.67 320.04 L2041.68 340.277 Q2043.74 339.457 2047 335.827 Q2050.77 331.611 2054 331.611 Q2055.53 331.611 2056.39 332.548 Q2057.26 333.461 2057.26 334.632 Z" fill="#000000" fill-rule="evenodd" fill-opacity="1" /><path clip-path="url(#clip430)" d="M2073.6 345.524 Q2073.65 344.938 2074.56 344.938 L2103.95 344.938 Q2105.34 344.938 2105.36 345.477 Q2105.36 346.063 2104.05 346.039 L2074.89 346.039 Q2073.6 346.063 2073.6 345.524 M2073.6 336.155 Q2073.6 335.569 2074.61 335.593 L2103.91 335.593 Q2105.34 335.593 2105.36 336.155 Q2105.36 336.694 2104.14 336.694 L2074.56 336.694 Q2073.6 336.694 2073.6 336.155 Z" fill="#000000" fill-rule="evenodd" fill-opacity="1" /><path clip-path="url(#clip430)" d="M2123.85 337.467 Q2123.85 330.416 2125.63 326.575 Q2128.11 320.86 2133.97 320.86 Q2135.21 320.86 2136.5 321.211 Q2137.81 321.539 2139.45 322.827 Q2141.11 324.116 2142.12 326.224 Q2144.04 330.299 2144.04 337.467 Q2144.04 344.47 2142.26 348.288 Q2139.66 353.862 2133.92 353.862 Q2131.77 353.862 2129.57 352.761 Q2127.39 351.661 2126.01 349.014 Q2123.85 345.055 2123.85 337.467 M2127.83 336.881 Q2127.83 344.118 2128.35 346.999 Q2128.93 350.115 2130.53 351.473 Q2132.14 352.808 2133.92 352.808 Q2135.84 352.808 2137.44 351.379 Q2139.05 349.927 2139.54 346.812 Q2140.08 343.744 2140.06 336.881 Q2140.06 330.206 2139.59 327.535 Q2138.96 324.42 2137.27 323.179 Q2135.61 321.914 2133.92 321.914 Q2133.29 321.914 2132.61 322.101 Q2131.95 322.289 2130.99 322.827 Q2130.03 323.366 2129.28 324.701 Q2128.56 326.036 2128.21 328.051 Q2127.83 330.651 2127.83 336.881 Z" fill="#000000" fill-rule="evenodd" fill-opacity="1" /><path clip-path="url(#clip430)" d="M2148.33 352.035 Q2147.6 351.262 2147.6 350.255 Q2147.6 349.248 2148.33 348.522 Q2149.05 347.772 2150.15 347.772 Q2151.21 347.772 2151.91 348.475 Q2152.64 349.154 2152.64 350.279 Q2152.64 351.379 2151.86 352.106 Q2151.11 352.808 2150.15 352.808 Q2149.05 352.808 2148.33 352.035 Z" fill="#000000" fill-rule="evenodd" fill-opacity="1" /><path clip-path="url(#clip430)" d="M2160.8 337.654 Q2160.8 330.112 2164.64 325.498 Q2168.48 320.86 2173.42 320.86 Q2176.3 320.86 2177.9 322.336 Q2179.51 323.788 2179.51 326.036 Q2179.51 327.278 2178.79 327.816 Q2178.06 328.355 2177.31 328.355 Q2176.44 328.355 2175.76 327.77 Q2175.09 327.184 2175.09 326.13 Q2175.09 323.975 2177.73 323.975 Q2176.49 322.055 2173.52 322.055 Q2172.6 322.055 2171.67 322.336 Q2170.73 322.593 2169.51 323.483 Q2168.29 324.373 2167.36 325.779 Q2166.42 327.184 2165.76 329.831 Q2165.11 332.478 2165.11 335.921 L2165.11 337.068 Q2167.07 332.314 2171.1 332.337 Q2175.13 332.337 2177.92 335.405 Q2180.71 338.474 2180.71 343.018 Q2180.71 347.679 2177.8 350.77 Q2174.9 353.862 2170.82 353.862 Q2169 353.862 2167.33 353.089 Q2165.69 352.34 2164.15 350.607 Q2162.62 348.873 2161.71 345.547 Q2160.8 342.221 2160.8 337.654 M2165.2 341.964 Q2165.2 346.672 2166.07 348.92 Q2166.21 349.295 2166.51 349.81 Q2166.84 350.325 2167.38 351.005 Q2167.94 351.661 2168.85 352.106 Q2169.77 352.527 2170.82 352.527 Q2174.03 352.527 2175.58 349.412 Q2176.4 347.679 2176.4 342.971 Q2176.4 338.169 2175.53 336.413 Q2174.05 333.438 2171.06 333.438 Q2169.04 333.438 2167.64 334.82 Q2166.26 336.202 2165.72 338.052 Q2165.2 339.902 2165.2 341.964 Z" fill="#000000" fill-rule="evenodd" fill-opacity="1" /><path clip-path="url(#clip430)" d="M2183.7 330.252 L2185.27 320.392 L2186.46 320.392 Q2186.6 320.977 2186.84 321.235 Q2187.1 321.492 2188.45 321.703 Q2189.84 321.914 2192.62 321.914 L2204.26 321.914 Q2204.26 323.015 2203.84 323.6 L2197.35 332.712 Q2195.29 335.593 2194.38 340.91 Q2193.84 344.47 2193.86 348.78 L2193.86 351.215 Q2193.86 353.862 2191.64 353.862 Q2189.44 353.862 2189.44 351.215 Q2189.44 342.057 2195.34 333.18 Q2195.97 332.267 2198.29 329.011 Q2200.63 325.755 2200.73 325.615 L2190.8 325.615 Q2186.44 325.615 2186.09 325.896 Q2185.62 326.317 2184.89 330.252 L2183.7 330.252 Z" fill="#000000" fill-rule="evenodd" fill-opacity="1" /><path clip-path="url(#clip430)" d="M2231.63 333.274 Q2231.63 334.913 2229.28 334.913 L2223.8 334.913 Q2222.96 338.802 2222.96 342.549 Q2222.96 347.023 2224.34 350.466 Q2224.62 351.145 2224.62 351.52 Q2224.62 352.223 2223.99 352.785 Q2223.38 353.347 2222.66 353.347 Q2222.05 353.347 2221.65 352.878 Q2221.27 352.41 2220.95 350.934 Q2220.55 349.201 2220.55 347.281 Q2220.55 344.985 2220.92 342.783 Q2221.3 340.558 2222.56 334.913 L2217.15 334.913 L2214.46 345.524 Q2213.5 349.107 2213.17 350.208 Q2212.96 350.864 2212.89 351.075 Q2212.82 351.286 2212.61 351.801 Q2212.42 352.293 2212.28 352.48 Q2212.14 352.644 2211.91 352.902 Q2211.67 353.183 2211.39 353.253 Q2211.11 353.347 2210.76 353.347 Q2210.22 353.347 2209.8 352.996 Q2209.38 352.668 2209.38 352.035 Q2209.38 351.614 2209.75 350.888 Q2214.2 341.284 2215.89 334.913 L2213.17 334.913 Q2209.42 334.913 2207.08 338.614 Q2206.71 339.106 2206.49 339.153 Q2206.4 339.176 2206.31 339.176 Q2206.05 339.176 2205.89 339.059 Q2205.75 338.942 2205.75 338.825 L2205.72 338.708 Q2205.72 338.567 2206.07 337.935 Q2206.45 337.279 2207.15 336.272 Q2207.88 335.265 2208.65 334.398 Q2209.4 333.602 2210.13 333.11 Q2210.87 332.595 2211.58 332.407 Q2212.28 332.22 2212.68 332.173 Q2213.08 332.126 2213.64 332.126 L2229.71 332.126 Q2230.32 332.126 2230.64 332.173 Q2230.97 332.196 2231.3 332.478 Q2231.63 332.735 2231.63 333.274 Z" fill="#000000" fill-rule="evenodd" fill-opacity="1" /><path clip-path="url(#clip430)" d="M2236.05 364.332 Q2236.05 364.098 2236.66 363.512 Q2244.39 355.642 2244.39 340.816 Q2244.39 325.943 2236.97 318.424 Q2236.05 317.557 2236.05 317.3 Q2236.05 316.831 2236.52 316.831 Q2236.85 316.831 2238 317.792 Q2239.17 318.752 2240.92 320.954 Q2242.7 323.155 2244.02 325.849 Q2247.18 332.384 2247.18 340.816 Q2247.18 348.92 2244.16 355.455 Q2242.87 358.195 2241.06 360.491 Q2239.26 362.786 2238.07 363.793 Q2236.87 364.801 2236.52 364.801 Q2236.05 364.801 2236.05 364.332 Z" fill="#000000" fill-rule="evenodd" fill-opacity="1" /><polyline clip-path="url(#clip430)" style="stroke:#c271d2; stroke-linecap:round; stroke-linejoin:round; stroke-width:4; stroke-opacity:1; fill:none" points="1796.04,407.416 1940.47,407.416 "/>
<path clip-path="url(#clip430)" d="M1987.19 399.589 Q1987.19 403.056 1985.41 406.311 Q1983.66 409.567 1980.89 411.534 Q1978.15 413.502 1975.39 413.502 Q1972.27 413.502 1970.66 410.27 Q1967.73 422.004 1967.57 422.309 Q1966.89 423.316 1965.9 423.316 Q1965.29 423.316 1964.92 422.941 Q1964.54 422.59 1964.54 422.028 Q1964.57 421.84 1964.71 421.255 L1969.39 402.4 Q1970.47 398.02 1973.73 394.905 Q1977.01 391.766 1980.52 391.766 Q1983.31 391.766 1985.25 393.851 Q1987.19 395.935 1987.19 399.589 M1983.75 397.528 Q1983.75 395.186 1982.81 394.014 Q1981.88 392.82 1980.43 392.82 Q1979.09 392.82 1977.47 393.897 Q1975.88 394.975 1974.48 397.364 Q1973.73 398.746 1973.19 400.456 Q1972.65 402.165 1971.59 406.382 Q1971.22 408.068 1971.22 408.162 Q1971.22 408.349 1971.31 408.771 Q1971.43 409.192 1971.71 409.848 Q1972.02 410.48 1972.44 411.043 Q1972.86 411.605 1973.63 412.026 Q1974.41 412.425 1975.34 412.425 Q1976.79 412.425 1978.34 411.253 Q1979.91 410.059 1981.06 407.881 Q1982.02 406.124 1982.88 402.821 Q1983.75 399.495 1983.75 397.528 Z" fill="#000000" fill-rule="evenodd" fill-opacity="1" /><path clip-path="url(#clip430)" d="M2015.12 436.821 Q2015.12 437.133 2014.99 437.296 Q2014.88 437.444 2014.76 437.477 Q2014.66 437.493 2014.52 437.493 Q2014.09 437.493 2012.61 437.444 Q2011.14 437.395 2010.71 437.395 Q2010.02 437.395 2008.61 437.444 Q2007.2 437.493 2006.51 437.493 Q2006.06 437.493 2006.06 437.116 Q2006.06 436.87 2006.11 436.739 Q2006.15 436.591 2006.29 436.542 Q2006.43 436.477 2006.51 436.477 Q2006.61 436.46 2006.86 436.46 Q2007.19 436.46 2007.53 436.427 Q2007.88 436.378 2008.3 436.28 Q2008.73 436.182 2008.99 435.936 Q2009.27 435.69 2009.27 435.345 Q2009.27 435.198 2009.15 433.985 Q2009.04 432.771 2008.89 431.361 Q2008.74 429.935 2008.73 429.738 L2000.3 429.738 Q1999.53 431.066 1998.99 431.984 Q1998.45 432.902 1998.25 433.214 Q1998.05 433.525 1997.94 433.722 Q1997.83 433.919 1997.76 434.034 Q1997.28 434.903 1997.28 435.28 Q1997.28 436.329 1998.86 436.46 Q1999.4 436.46 1999.4 436.854 Q1999.4 437.149 1999.27 437.313 Q1999.14 437.46 1999.02 437.477 Q1998.92 437.493 1998.76 437.493 Q1998.22 437.493 1997.09 437.444 Q1995.96 437.395 1995.4 437.395 Q1994.92 437.395 1993.94 437.444 Q1992.96 437.493 1992.51 437.493 Q1992.32 437.493 1992.2 437.378 Q1992.09 437.264 1992.09 437.116 Q1992.09 436.887 1992.12 436.755 Q1992.17 436.624 1992.3 436.559 Q1992.43 436.493 1992.5 436.493 Q1992.56 436.477 1992.79 436.46 Q1994.04 436.378 1995.01 435.788 Q1995.99 435.181 1996.92 433.624 L2008.6 414.015 Q2008.71 413.818 2008.79 413.719 Q2008.88 413.621 2009.04 413.539 Q2009.22 413.457 2009.48 413.457 Q2009.89 413.457 2009.97 413.588 Q2010.06 413.703 2010.11 414.26 L2012.16 435.247 Q2012.2 435.69 2012.24 435.87 Q2012.29 436.034 2012.5 436.214 Q2012.73 436.378 2013.14 436.427 Q2013.57 436.46 2014.35 436.46 Q2014.65 436.46 2014.76 436.477 Q2014.88 436.477 2014.99 436.559 Q2015.12 436.641 2015.12 436.821 M2008.63 428.689 L2007.56 417.622 L2000.94 428.689 L2008.63 428.689 Z" fill="#000000" fill-rule="evenodd" fill-opacity="1" /><path clip-path="url(#clip430)" d="M2020.01 400.971 Q2020.01 392.867 2023.03 386.332 Q2024.32 383.591 2026.12 381.296 Q2027.93 379.001 2029.12 377.994 Q2030.32 376.986 2030.65 376.986 Q2031.11 376.986 2031.14 377.455 Q2031.14 377.689 2030.5 378.275 Q2022.78 386.145 2022.8 400.971 Q2022.8 415.844 2030.32 423.41 Q2031.14 424.229 2031.14 424.487 Q2031.14 424.956 2030.65 424.956 Q2030.32 424.956 2029.17 423.995 Q2028.02 423.035 2026.24 420.833 Q2024.46 418.631 2023.17 415.938 Q2020.01 409.403 2020.01 400.971 Z" fill="#000000" fill-rule="evenodd" fill-opacity="1" /><path clip-path="url(#clip430)" d="M2057.26 394.787 Q2057.26 396.122 2056.44 396.919 Q2055.64 397.715 2054.64 397.715 Q2053.75 397.715 2053.28 397.2 Q2052.81 396.685 2052.81 396.029 Q2052.81 395.748 2052.93 395.396 Q2053.04 395.022 2053.3 394.577 Q2053.58 394.132 2054.17 393.804 Q2054.75 393.476 2055.55 393.429 Q2055.39 393.265 2055.34 393.242 Q2054.99 392.96 2054.33 392.867 Q2054.24 392.82 2053.91 392.82 Q2052.29 392.82 2050.65 394.014 Q2049.04 395.186 2047.05 397.411 Q2044.54 400.011 2042.92 400.971 Q2050.02 401.908 2050.02 406.007 Q2050.02 406.686 2049.83 407.506 Q2049.46 409.052 2049.46 410.176 Q2049.46 412.425 2050.98 412.425 Q2052.46 412.425 2053.39 410.925 Q2054.36 409.426 2055.15 406.499 Q2055.27 405.96 2055.39 405.796 Q2055.5 405.632 2055.83 405.632 Q2056.42 405.632 2056.42 406.1 Q2055.88 408.841 2054.68 410.949 Q2053.16 413.502 2050.89 413.502 Q2048.99 413.502 2047.73 412.19 Q2046.49 410.855 2046.49 408.747 Q2046.49 408.232 2046.67 407.061 Q2046.81 406.592 2046.81 406.054 Q2046.81 404.953 2046.2 404.133 Q2045.6 403.29 2044.61 402.868 Q2043.63 402.447 2042.81 402.259 Q2042.01 402.048 2041.24 401.978 Q2038.9 411.886 2038.57 412.495 Q2038.36 412.916 2037.89 413.197 Q2037.42 413.502 2036.93 413.502 Q2036.46 413.502 2035.99 413.174 Q2035.55 412.87 2035.55 412.143 Q2035.55 411.769 2035.73 411.089 L2042.69 383.451 L2042.83 382.514 Q2042.83 382.233 2042.71 382.092 Q2042.62 381.928 2042.06 381.811 Q2041.52 381.694 2040.44 381.694 Q2040 381.694 2039.79 381.671 Q2039.6 381.647 2039.44 381.53 Q2039.27 381.39 2039.27 381.109 Q2039.27 380.711 2039.44 380.5 Q2039.62 380.265 2039.76 380.219 Q2039.9 380.172 2040.18 380.148 Q2040.58 380.125 2041.92 380.008 Q2043.25 379.867 2044.4 379.774 Q2045.55 379.68 2046.04 379.68 Q2046.32 379.68 2046.46 379.82 Q2046.63 379.938 2046.65 380.078 L2046.67 380.195 L2041.68 400.432 Q2043.74 399.612 2047 395.982 Q2050.77 391.766 2054 391.766 Q2055.53 391.766 2056.39 392.703 Q2057.26 393.616 2057.26 394.787 Z" fill="#000000" fill-rule="evenodd" fill-opacity="1" /><path clip-path="url(#clip430)" d="M2073.6 405.679 Q2073.65 405.093 2074.56 405.093 L2103.95 405.093 Q2105.34 405.093 2105.36 405.632 Q2105.36 406.218 2104.05 406.194 L2074.89 406.194 Q2073.6 406.218 2073.6 405.679 M2073.6 396.31 Q2073.6 395.724 2074.61 395.748 L2103.91 395.748 Q2105.34 395.748 2105.36 396.31 Q2105.36 396.849 2104.14 396.849 L2074.56 396.849 Q2073.6 396.849 2073.6 396.31 Z" fill="#000000" fill-rule="evenodd" fill-opacity="1" /><path clip-path="url(#clip430)" d="M2123.85 385.582 L2123.85 384.083 Q2129.61 384.083 2132.59 381.015 Q2133.41 381.015 2133.55 381.202 Q2133.69 381.39 2133.69 382.256 L2133.69 409.169 Q2133.69 410.598 2134.39 411.043 Q2135.09 411.488 2138.16 411.488 L2139.68 411.488 L2139.68 412.963 Q2138 412.823 2131.91 412.823 Q2125.82 412.823 2124.16 412.963 L2124.16 411.488 L2125.68 411.488 Q2128.7 411.488 2129.43 411.066 Q2130.15 410.621 2130.15 409.169 L2130.15 384.318 Q2127.65 385.582 2123.85 385.582 Z" fill="#000000" fill-rule="evenodd" fill-opacity="1" /><path clip-path="url(#clip430)" d="M2143.45 412.19 Q2142.73 411.417 2142.73 410.41 Q2142.73 409.403 2143.45 408.677 Q2144.18 407.927 2145.28 407.927 Q2146.33 407.927 2147.04 408.63 Q2147.76 409.309 2147.76 410.434 Q2147.76 411.534 2146.99 412.261 Q2146.24 412.963 2145.28 412.963 Q2144.18 412.963 2143.45 412.19 Z" fill="#000000" fill-rule="evenodd" fill-opacity="1" /><path clip-path="url(#clip430)" d="M2155.92 397.622 Q2155.92 390.571 2157.7 386.73 Q2160.19 381.015 2166.04 381.015 Q2167.28 381.015 2168.57 381.366 Q2169.88 381.694 2171.52 382.982 Q2173.18 384.271 2174.19 386.379 Q2176.11 390.454 2176.11 397.622 Q2176.11 404.625 2174.33 408.443 Q2171.73 414.017 2165.99 414.017 Q2163.84 414.017 2161.64 412.916 Q2159.46 411.816 2158.08 409.169 Q2155.92 405.21 2155.92 397.622 M2159.9 397.036 Q2159.9 404.273 2160.42 407.154 Q2161.01 410.27 2162.6 411.628 Q2164.21 412.963 2165.99 412.963 Q2167.91 412.963 2169.51 411.534 Q2171.12 410.082 2171.62 406.967 Q2172.15 403.899 2172.13 397.036 Q2172.13 390.361 2171.66 387.69 Q2171.03 384.575 2169.34 383.334 Q2167.68 382.069 2165.99 382.069 Q2165.36 382.069 2164.68 382.256 Q2164.03 382.444 2163.07 382.982 Q2162.11 383.521 2161.36 384.856 Q2160.63 386.191 2160.28 388.206 Q2159.9 390.806 2159.9 397.036 Z" fill="#000000" fill-rule="evenodd" fill-opacity="1" /><path clip-path="url(#clip430)" d="M2204.81 393.429 Q2204.81 395.068 2202.47 395.068 L2196.99 395.068 Q2196.14 398.957 2196.14 402.704 Q2196.14 407.178 2197.53 410.621 Q2197.81 411.3 2197.81 411.675 Q2197.81 412.378 2197.17 412.94 Q2196.57 413.502 2195.84 413.502 Q2195.23 413.502 2194.83 413.033 Q2194.46 412.565 2194.13 411.089 Q2193.73 409.356 2193.73 407.436 Q2193.73 405.14 2194.11 402.938 Q2194.48 400.713 2195.75 395.068 L2190.33 395.068 L2187.64 405.679 Q2186.68 409.262 2186.35 410.363 Q2186.14 411.019 2186.07 411.23 Q2186 411.441 2185.79 411.956 Q2185.6 412.448 2185.46 412.635 Q2185.32 412.799 2185.09 413.057 Q2184.85 413.338 2184.57 413.408 Q2184.29 413.502 2183.94 413.502 Q2183.4 413.502 2182.98 413.151 Q2182.56 412.823 2182.56 412.19 Q2182.56 411.769 2182.93 411.043 Q2187.38 401.439 2189.07 395.068 L2186.35 395.068 Q2182.61 395.068 2180.26 398.769 Q2179.89 399.261 2179.68 399.308 Q2179.58 399.331 2179.49 399.331 Q2179.23 399.331 2179.07 399.214 Q2178.93 399.097 2178.93 398.98 L2178.9 398.863 Q2178.9 398.722 2179.26 398.09 Q2179.63 397.434 2180.33 396.427 Q2181.06 395.42 2181.83 394.553 Q2182.58 393.757 2183.31 393.265 Q2184.06 392.75 2184.76 392.562 Q2185.46 392.375 2185.86 392.328 Q2186.26 392.281 2186.82 392.281 L2202.89 392.281 Q2203.5 392.281 2203.83 392.328 Q2204.15 392.351 2204.48 392.633 Q2204.81 392.89 2204.81 393.429 Z" fill="#000000" fill-rule="evenodd" fill-opacity="1" /><path clip-path="url(#clip430)" d="M2209.24 424.487 Q2209.24 424.253 2209.84 423.667 Q2217.57 415.797 2217.57 400.971 Q2217.57 386.098 2210.15 378.579 Q2209.24 377.712 2209.24 377.455 Q2209.24 376.986 2209.7 376.986 Q2210.03 376.986 2211.18 377.947 Q2212.35 378.907 2214.11 381.109 Q2215.89 383.31 2217.2 386.004 Q2220.36 392.539 2220.36 400.971 Q2220.36 409.075 2217.34 415.61 Q2216.05 418.35 2214.25 420.646 Q2212.44 422.941 2211.25 423.948 Q2210.06 424.956 2209.7 424.956 Q2209.24 424.956 2209.24 424.487 Z" fill="#000000" fill-rule="evenodd" fill-opacity="1" /></svg>
