<?xml version="1.0" encoding="utf-8"?>
<svg xmlns="http://www.w3.org/2000/svg" xmlns:xlink="http://www.w3.org/1999/xlink" width="600" height="400" viewBox="0 0 2400 1600">
<defs>
  <clipPath id="clip590">
    <rect x="0" y="0" width="2400" height="1600"/>
  </clipPath>
</defs>
<path clip-path="url(#clip590)" d="M0 1600 L2400 1600 L2400 0 L0 0  Z" fill="#ffffff" fill-rule="evenodd" fill-opacity="1"/>
<defs>
  <clipPath id="clip591">
    <rect x="480" y="0" width="1681" height="1600"/>
  </clipPath>
</defs>
<path clip-path="url(#clip590)" d="M249.542 1423.18 L2352.76 1423.18 L2352.76 47.2441 L249.542 47.2441  Z" fill="#ffffff" fill-rule="evenodd" fill-opacity="1"/>
<defs>
  <clipPath id="clip592">
    <rect x="249" y="47" width="2104" height="1377"/>
  </clipPath>
</defs>
<polyline clip-path="url(#clip592)" style="stroke:#000000; stroke-linecap:round; stroke-linejoin:round; stroke-width:2; stroke-opacity:0.1; fill:none" points="736.969,1423.18 736.969,47.2441 "/>
<polyline clip-path="url(#clip592)" style="stroke:#000000; stroke-linecap:round; stroke-linejoin:round; stroke-width:2; stroke-opacity:0.1; fill:none" points="10456.3,1423.18 10456.3,47.2441 "/>
<polyline clip-path="url(#clip592)" style="stroke:#000000; stroke-linecap:round; stroke-linejoin:round; stroke-width:2; stroke-opacity:0.1; fill:none" points="22209.6,1423.18 22209.6,47.2441 "/>
<polyline clip-path="url(#clip592)" style="stroke:#000000; stroke-linecap:round; stroke-linejoin:round; stroke-width:2; stroke-opacity:0.1; fill:none" points="10456.3,1423.18 10456.3,47.2441 "/>
<polyline clip-path="url(#clip592)" style="stroke:#000000; stroke-linecap:round; stroke-linejoin:round; stroke-width:2; stroke-opacity:0.1; fill:none" points="10858,1423.18 10858,47.2441 "/>
<polyline clip-path="url(#clip592)" style="stroke:#000000; stroke-linecap:round; stroke-linejoin:round; stroke-width:2; stroke-opacity:0.1; fill:none" points="11422.9,1423.18 11422.9,47.2441 "/>
<polyline clip-path="url(#clip592)" style="stroke:#000000; stroke-linecap:round; stroke-linejoin:round; stroke-width:2; stroke-opacity:0.1; fill:none" points="736.969,1423.18 736.969,47.2441 "/>
<polyline clip-path="url(#clip592)" style="stroke:#000000; stroke-linecap:round; stroke-linejoin:round; stroke-width:2; stroke-opacity:0.1; fill:none" points="1138.7,1423.18 1138.7,47.2441 "/>
<polyline clip-path="url(#clip592)" style="stroke:#000000; stroke-linecap:round; stroke-linejoin:round; stroke-width:2; stroke-opacity:0.1; fill:none" points="1703.59,1423.18 1703.59,47.2441 "/>
<polyline clip-path="url(#clip590)" style="stroke:#000000; stroke-linecap:round; stroke-linejoin:round; stroke-width:4; stroke-opacity:1; fill:none" points="249.542,1423.18 2352.76,1423.18 "/>
<polyline clip-path="url(#clip590)" style="stroke:#000000; stroke-linecap:round; stroke-linejoin:round; stroke-width:4; stroke-opacity:1; fill:none" points="736.969,1423.18 736.969,1404.28 "/>
<polyline clip-path="url(#clip590)" style="stroke:#000000; stroke-linecap:round; stroke-linejoin:round; stroke-width:4; stroke-opacity:1; fill:none" points="10456.3,1423.18 10456.3,1404.28 "/>
<polyline clip-path="url(#clip590)" style="stroke:#000000; stroke-linecap:round; stroke-linejoin:round; stroke-width:4; stroke-opacity:1; fill:none" points="22209.6,1423.18 22209.6,1404.28 "/>
<polyline clip-path="url(#clip590)" style="stroke:#000000; stroke-linecap:round; stroke-linejoin:round; stroke-width:4; stroke-opacity:1; fill:none" points="10456.3,1423.18 10456.3,1404.28 "/>
<polyline clip-path="url(#clip590)" style="stroke:#000000; stroke-linecap:round; stroke-linejoin:round; stroke-width:4; stroke-opacity:1; fill:none" points="10858,1423.18 10858,1404.28 "/>
<polyline clip-path="url(#clip590)" style="stroke:#000000; stroke-linecap:round; stroke-linejoin:round; stroke-width:4; stroke-opacity:1; fill:none" points="11422.9,1423.18 11422.9,1404.28 "/>
<polyline clip-path="url(#clip590)" style="stroke:#000000; stroke-linecap:round; stroke-linejoin:round; stroke-width:4; stroke-opacity:1; fill:none" points="736.969,1423.18 736.969,1404.28 "/>
<polyline clip-path="url(#clip590)" style="stroke:#000000; stroke-linecap:round; stroke-linejoin:round; stroke-width:4; stroke-opacity:1; fill:none" points="1138.7,1423.18 1138.7,1404.28 "/>
<polyline clip-path="url(#clip590)" style="stroke:#000000; stroke-linecap:round; stroke-linejoin:round; stroke-width:4; stroke-opacity:1; fill:none" points="1703.59,1423.18 1703.59,1404.28 "/>
<path clip-path="url(#clip590)" d="M688.177 1445.55 Q688.177 1445.9 687.92 1446.41 Q687.685 1446.88 687.193 1447.19 Q686.725 1447.47 686.21 1447.47 Q686.046 1447.47 685.671 1447.37 Q685.039 1447.09 684.055 1446.46 Q683.071 1445.83 682.181 1445.43 Q681.314 1445.01 680.354 1444.96 Q679.511 1444.96 678.808 1445.27 Q678.176 1445.62 677.754 1446.37 Q677.567 1446.67 677.567 1447.19 Q677.567 1447.91 677.965 1448.87 Q678.363 1449.83 679.183 1451.08 Q680.026 1452.32 680.635 1453.16 Q681.244 1453.98 682.298 1455.34 Q682.392 1455.46 682.439 1455.53 Q682.486 1455.57 682.556 1455.69 Q682.626 1455.78 682.696 1455.85 Q684.921 1458.64 685.484 1461.71 Q685.624 1462.79 685.624 1463.91 Q685.624 1466.16 684.945 1468.81 Q684.359 1471.22 683.118 1473.3 Q681.877 1475.36 680.003 1476.72 Q678.152 1478.08 676.138 1478.08 Q674.147 1478.08 672.508 1477.21 Q670.868 1476.32 669.884 1474.8 Q668.549 1472.79 668.549 1470 Q668.549 1468.43 668.924 1467.1 Q669.439 1464.96 670.657 1463 Q671.875 1461.03 673.632 1459.51 Q676.302 1457.26 679.206 1456.63 Q677.848 1454.05 677.052 1452.06 Q676.279 1450.04 676.279 1448.33 Q676.279 1446.84 676.841 1445.88 Q677.333 1444.84 678.34 1444.26 Q679.183 1443.74 680.401 1443.49 Q681.15 1443.39 681.642 1443.39 Q683.305 1443.39 687.17 1444.31 Q688.177 1444.54 688.177 1445.55 M682.322 1465.83 Q682.322 1464.4 682.087 1463.44 Q681.642 1461.1 679.862 1457.87 L679.722 1457.63 Q677.45 1458.29 675.599 1460.28 Q673.281 1462.72 672.109 1467.33 Q671.477 1469.91 671.477 1471.36 Q671.477 1472.93 672.063 1474.29 Q672.625 1475.55 673.679 1476.28 Q674.756 1477 676.185 1477 Q677.262 1477 678.199 1476.39 Q679.136 1475.76 679.815 1474.66 Q680.495 1473.56 680.963 1472.37 Q681.455 1471.15 681.83 1469.72 Q682.322 1467.8 682.322 1465.83 Z" fill="#000000" fill-rule="nonzero" fill-opacity="1" /><path clip-path="url(#clip590)" d="M734.604 1464.87 Q734.885 1465.15 734.885 1465.55 Q734.885 1465.95 734.604 1466.23 Q734.323 1466.51 733.925 1466.51 L703.897 1466.51 Q703.499 1466.51 703.218 1466.23 Q702.937 1465.95 702.937 1465.55 Q702.937 1465.15 703.218 1464.87 Q703.499 1464.59 703.897 1464.59 L733.925 1464.59 Q734.323 1464.59 734.604 1464.87 Z" fill="#000000" fill-rule="nonzero" fill-opacity="1" /><path clip-path="url(#clip590)" d="M772.535 1458.55 Q772.535 1459.04 772.114 1459.44 Q771.716 1459.84 771.224 1459.84 Q770.943 1459.84 770.263 1459.37 Q768.319 1458.01 765.86 1458.01 Q763.658 1458.01 761.62 1458.55 Q759.583 1459.09 758.201 1460.19 Q756.842 1461.26 756.842 1462.67 Q756.842 1464.43 758.763 1465.46 Q760.754 1464.54 763.213 1464.54 Q764.01 1464.54 764.548 1464.59 Q765.11 1464.64 765.649 1464.75 Q766.188 1464.87 766.445 1465.15 Q766.727 1465.41 766.727 1465.83 Q766.727 1467.33 762.838 1467.33 Q760.309 1467.33 758.716 1466.65 Q756.678 1467.66 755.554 1469.27 Q754.43 1470.89 754.43 1472.27 Q754.43 1473.47 755.086 1474.33 Q755.765 1475.2 756.866 1475.62 Q757.99 1476.04 759.091 1476.23 Q760.215 1476.39 761.456 1476.39 Q763.494 1476.39 764.923 1476.14 Q766.375 1475.86 767.172 1475.34 Q767.991 1474.83 768.319 1474.47 Q768.671 1474.1 769.022 1473.51 Q769.233 1473.19 769.514 1473.19 Q769.725 1473.19 769.865 1473.33 Q770.029 1473.44 770.029 1473.65 Q770.029 1473.91 769.701 1474.45 Q769.397 1474.99 768.647 1475.72 Q767.921 1476.42 766.914 1477.07 Q765.93 1477.71 764.361 1478.15 Q762.792 1478.6 761.011 1478.6 Q757.381 1478.6 755.273 1476.82 Q753.188 1475.04 753.188 1472.55 Q753.188 1470.82 754.336 1469.04 Q755.507 1467.24 757.568 1466.09 Q755.648 1464.66 755.648 1462.67 Q755.648 1460.89 757.147 1459.3 Q758.669 1457.7 761.129 1456.77 Q763.611 1455.81 766.328 1455.81 Q767.851 1455.81 769.35 1456.32 Q770.849 1456.81 771.692 1457.45 Q772.535 1458.08 772.535 1458.55 M765.485 1465.88 Q764.455 1465.6 763.213 1465.6 Q761.527 1465.6 760.285 1466.02 Q761.293 1466.28 762.838 1466.28 Q764.127 1466.28 764.501 1466.21 Q764.9 1466.14 765.485 1465.88 Z" fill="#000000" fill-rule="nonzero" fill-opacity="1" /><path clip-path="url(#clip590)" d="M800.501 1492.2 Q800.501 1492.51 800.369 1492.67 Q800.255 1492.82 800.14 1492.85 Q800.042 1492.87 799.894 1492.87 Q799.468 1492.87 797.992 1492.82 Q796.516 1492.77 796.09 1492.77 Q795.402 1492.77 793.991 1492.82 Q792.581 1492.87 791.893 1492.87 Q791.434 1492.87 791.434 1492.49 Q791.434 1492.25 791.483 1492.12 Q791.532 1491.97 791.663 1491.92 Q791.811 1491.85 791.893 1491.85 Q791.991 1491.84 792.237 1491.84 Q792.565 1491.84 792.909 1491.8 Q793.254 1491.75 793.68 1491.66 Q794.106 1491.56 794.369 1491.31 Q794.647 1491.07 794.647 1490.72 Q794.647 1490.57 794.533 1489.36 Q794.418 1488.15 794.27 1486.74 Q794.123 1485.31 794.106 1485.11 L785.679 1485.11 Q784.908 1486.44 784.367 1487.36 Q783.826 1488.28 783.629 1488.59 Q783.433 1488.9 783.318 1489.1 Q783.203 1489.3 783.138 1489.41 Q782.662 1490.28 782.662 1490.66 Q782.662 1491.71 784.236 1491.84 Q784.777 1491.84 784.777 1492.23 Q784.777 1492.53 784.646 1492.69 Q784.515 1492.84 784.4 1492.85 Q784.302 1492.87 784.138 1492.87 Q783.597 1492.87 782.465 1492.82 Q781.334 1492.77 780.777 1492.77 Q780.301 1492.77 779.317 1492.82 Q778.334 1492.87 777.891 1492.87 Q777.694 1492.87 777.579 1492.75 Q777.465 1492.64 777.465 1492.49 Q777.465 1492.26 777.497 1492.13 Q777.547 1492 777.678 1491.93 Q777.809 1491.87 777.875 1491.87 Q777.94 1491.85 778.17 1491.84 Q779.416 1491.75 780.383 1491.16 Q781.367 1490.56 782.301 1489 L793.975 1469.39 Q794.09 1469.19 794.172 1469.1 Q794.254 1469 794.418 1468.92 Q794.598 1468.83 794.86 1468.83 Q795.27 1468.83 795.352 1468.96 Q795.434 1469.08 795.484 1469.64 L797.533 1490.62 Q797.582 1491.07 797.615 1491.25 Q797.664 1491.41 797.877 1491.59 Q798.107 1491.75 798.517 1491.8 Q798.943 1491.84 799.73 1491.84 Q800.025 1491.84 800.14 1491.85 Q800.255 1491.85 800.369 1491.93 Q800.501 1492.02 800.501 1492.2 M794.008 1484.07 L792.942 1473 L786.318 1484.07 L794.008 1484.07 Z" fill="#000000" fill-rule="nonzero" fill-opacity="1" /><path clip-path="url(#clip590)" d="M10360.5 1450.49 L10360.5 1448.99 Q10366.2 1448.99 10369.2 1445.93 Q10370 1445.93 10370.2 1446.11 Q10370.3 1446.3 10370.3 1447.17 L10370.3 1474.08 Q10370.3 1475.51 10371 1475.95 Q10371.7 1476.4 10374.8 1476.4 L10376.3 1476.4 L10376.3 1477.87 Q10374.6 1477.73 10368.5 1477.73 Q10362.4 1477.73 10360.8 1477.87 L10360.8 1476.4 L10362.3 1476.4 Q10365.3 1476.4 10366 1475.98 Q10366.8 1475.53 10366.8 1474.08 L10366.8 1449.23 Q10364.3 1450.49 10360.5 1450.49 Z" fill="#000000" fill-rule="nonzero" fill-opacity="1" /><path clip-path="url(#clip590)" d="M10384.2 1470.1 L10385.4 1470.1 Q10386.1 1473.35 10386.4 1473.85 Q10386.9 1474.67 10388.9 1474.76 Q10389.3 1474.76 10390.1 1474.76 L10393.3 1474.76 Q10392.7 1472.56 10391.2 1470.03 Q10389.7 1467.47 10388.3 1465.58 Q10387 1463.68 10385.9 1461.1 Q10384.8 1458.5 10384.8 1456.04 Q10384.8 1451.15 10389 1447.61 Q10393.2 1444.05 10399.4 1444.05 Q10405.6 1444.05 10409.8 1447.59 Q10414.1 1451.1 10414.1 1456.04 Q10414.1 1458.48 10413 1461.06 Q10411.9 1463.63 10410.5 1465.53 Q10409.1 1467.43 10407.6 1470 Q10406.1 1472.56 10405.5 1474.76 L10408.8 1474.76 Q10411.5 1474.76 10412 1474.27 Q10412.6 1473.75 10413.1 1471.06 Q10413.2 1470.43 10413.3 1470.1 L10414.6 1470.1 L10413 1477.87 L10405.3 1477.87 Q10404.7 1477.87 10404.4 1477.69 Q10404.1 1477.5 10404.1 1476.82 Q10404.1 1473.56 10406.6 1466.56 Q10409.1 1459.56 10409.1 1456.04 Q10409.1 1450.82 10406.1 1447.96 Q10403.2 1445.11 10399.4 1445.11 Q10395.6 1445.11 10392.7 1447.94 Q10389.7 1450.77 10389.7 1456.04 Q10389.7 1459.6 10392.2 1466.58 Q10394.7 1473.56 10394.7 1476.77 Q10394.7 1477.55 10394.4 1477.71 Q10394.1 1477.87 10393.1 1477.87 L10385.8 1477.87 L10384.2 1470.1 Z" fill="#000000" fill-rule="nonzero" fill-opacity="1" /><path clip-path="url(#clip590)" d="M10443.4 1473.21 Q10443.4 1474.73 10442.3 1476.11 Q10441.3 1477.47 10439.7 1478.34 Q10438.1 1479.19 10436.3 1479.52 Q10438.7 1479.8 10440.1 1481.11 Q10441.6 1482.42 10441.6 1484.26 Q10441.6 1485.49 10440.8 1486.78 Q10440.1 1488.06 10438.9 1489.11 Q10437.7 1490.16 10435.9 1490.83 Q10434.2 1491.5 10432.3 1491.5 L10420.3 1491.5 Q10419.9 1491.5 10419.8 1491.49 Q10419.6 1491.47 10419.5 1491.39 Q10419.4 1491.31 10419.4 1491.13 Q10419.4 1490.8 10419.5 1490.65 Q10419.6 1490.5 10419.8 1490.49 Q10419.9 1490.47 10420.3 1490.47 Q10421.1 1490.47 10421.6 1490.42 Q10422.1 1490.37 10422.4 1490.31 Q10422.7 1490.23 10422.9 1490 Q10423.1 1489.77 10423.2 1489.57 Q10423.2 1489.36 10423.4 1488.88 L10427.8 1470.85 Q10428 1470.3 10428 1470.22 Q10428 1469.91 10427.8 1469.83 Q10427.6 1469.73 10427.1 1469.68 L10425.8 1469.62 Q10425.4 1469.62 10425.2 1469.6 Q10425.1 1469.58 10425 1469.5 Q10424.9 1469.42 10424.9 1469.24 Q10424.9 1468.78 10425.1 1468.68 Q10425.3 1468.57 10425.8 1468.57 L10437.1 1468.57 Q10440 1468.57 10441.7 1469.91 Q10443.4 1471.24 10443.4 1473.21 M10440.3 1473.08 Q10440.3 1472.45 10440.1 1471.9 Q10440 1471.34 10439.6 1470.8 Q10439.2 1470.26 10438.5 1469.94 Q10437.7 1469.62 10436.6 1469.62 L10432.3 1469.62 Q10431.2 1469.62 10431 1469.81 Q10430.7 1469.99 10430.5 1470.89 L10428.4 1479.21 L10433.3 1479.21 Q10434.8 1479.21 10436.1 1478.67 Q10437.5 1478.13 10438.4 1477.26 Q10439.3 1476.37 10439.8 1475.27 Q10440.3 1474.17 10440.3 1473.08 M10438.4 1483.88 Q10438.4 1483.39 10438.3 1482.91 Q10438.3 1482.44 10438 1481.88 Q10437.7 1481.32 10437.3 1480.91 Q10436.9 1480.5 10436.2 1480.22 Q10435.5 1479.95 10434.6 1479.95 L10428.2 1479.95 L10425.9 1489.32 Q10425.7 1489.93 10425.7 1490.09 Q10425.7 1490.27 10425.8 1490.34 Q10425.9 1490.39 10426.2 1490.42 Q10426.5 1490.47 10426.9 1490.47 L10431.5 1490.47 Q10432.9 1490.47 10434.2 1489.91 Q10435.5 1489.34 10436.4 1488.42 Q10437.4 1487.5 10437.9 1486.31 Q10438.4 1485.11 10438.4 1483.88 Z" fill="#000000" fill-rule="nonzero" fill-opacity="1" /><path clip-path="url(#clip590)" d="M10493.2 1465.2 Q10493.5 1465.48 10493.5 1465.88 Q10493.5 1466.28 10493.2 1466.56 Q10492.9 1466.84 10492.5 1466.84 L10462.5 1466.84 Q10462.1 1466.84 10461.8 1466.56 Q10461.5 1466.28 10461.5 1465.88 Q10461.5 1465.48 10461.8 1465.2 Q10462.1 1464.92 10462.5 1464.92 L10492.5 1464.92 Q10492.9 1464.92 10493.2 1465.2 Z" fill="#000000" fill-rule="nonzero" fill-opacity="1" /><path clip-path="url(#clip590)" d="M10531.1 1458.88 Q10531.1 1459.37 10530.7 1459.77 Q10530.3 1460.17 10529.8 1460.17 Q10529.6 1460.17 10528.9 1459.7 Q10526.9 1458.34 10524.5 1458.34 Q10522.3 1458.34 10520.2 1458.88 Q10518.2 1459.42 10516.8 1460.52 Q10515.4 1461.6 10515.4 1463 Q10515.4 1464.76 10517.4 1465.79 Q10519.4 1464.87 10521.8 1464.87 Q10522.6 1464.87 10523.2 1464.92 Q10523.7 1464.97 10524.3 1465.09 Q10524.8 1465.2 10525.1 1465.48 Q10525.3 1465.74 10525.3 1466.16 Q10525.3 1467.66 10521.4 1467.66 Q10518.9 1467.66 10517.3 1466.98 Q10515.3 1467.99 10514.2 1469.61 Q10513 1471.22 10513 1472.6 Q10513 1473.8 10513.7 1474.67 Q10514.4 1475.53 10515.5 1475.95 Q10516.6 1476.38 10517.7 1476.56 Q10518.8 1476.73 10520.1 1476.73 Q10522.1 1476.73 10523.5 1476.47 Q10525 1476.19 10525.8 1475.67 Q10526.6 1475.16 10526.9 1474.81 Q10527.3 1474.43 10527.6 1473.85 Q10527.8 1473.52 10528.1 1473.52 Q10528.3 1473.52 10528.5 1473.66 Q10528.6 1473.78 10528.6 1473.99 Q10528.6 1474.24 10528.3 1474.78 Q10528 1475.32 10527.3 1476.05 Q10526.5 1476.75 10525.5 1477.41 Q10524.5 1478.04 10523 1478.48 Q10521.4 1478.93 10519.6 1478.93 Q10516 1478.93 10513.9 1477.15 Q10511.8 1475.37 10511.8 1472.89 Q10511.8 1471.15 10512.9 1469.37 Q10514.1 1467.57 10516.2 1466.42 Q10514.3 1464.99 10514.3 1463 Q10514.3 1461.22 10515.8 1459.63 Q10517.3 1458.04 10519.7 1457.1 Q10522.2 1456.14 10524.9 1456.14 Q10526.5 1456.14 10528 1456.65 Q10529.5 1457.15 10530.3 1457.78 Q10531.1 1458.41 10531.1 1458.88 M10524.1 1466.21 Q10523.1 1465.93 10521.8 1465.93 Q10520.1 1465.93 10518.9 1466.35 Q10519.9 1466.61 10521.4 1466.61 Q10522.7 1466.61 10523.1 1466.54 Q10523.5 1466.47 10524.1 1466.21 Z" fill="#000000" fill-rule="nonzero" fill-opacity="1" /><path clip-path="url(#clip590)" d="M10536.1 1473.04 L10536.1 1471.99 Q10540.1 1471.99 10542.2 1469.85 Q10542.8 1469.85 10542.9 1469.98 Q10543 1470.11 10543 1470.72 L10543 1489.55 Q10543 1490.55 10543.5 1490.87 Q10543.9 1491.18 10546.1 1491.18 L10547.2 1491.18 L10547.2 1492.21 Q10546 1492.11 10541.7 1492.11 Q10537.4 1492.11 10536.3 1492.21 L10536.3 1491.18 L10537.4 1491.18 Q10539.5 1491.18 10540 1490.88 Q10540.5 1490.57 10540.5 1489.55 L10540.5 1472.16 Q10538.7 1473.04 10536.1 1473.04 Z" fill="#000000" fill-rule="nonzero" fill-opacity="1" /><path clip-path="url(#clip590)" d="M22112.6 1477.87 Q22112.6 1477.01 22112.6 1476.75 Q22112.7 1476.49 22113.1 1476.09 L22122.3 1465.83 Q22127.3 1460.17 22127.3 1455.22 Q22127.3 1452.02 22125.7 1449.72 Q22124 1447.42 22120.9 1447.42 Q22118.8 1447.42 22117 1448.71 Q22115.3 1450 22114.4 1452.3 Q22114.6 1452.25 22115.1 1452.25 Q22116.3 1452.25 22116.9 1453 Q22117.6 1453.75 22117.6 1454.76 Q22117.6 1456.04 22116.8 1456.68 Q22115.9 1457.29 22115.1 1457.29 Q22114.8 1457.29 22114.3 1457.22 Q22113.9 1457.15 22113.2 1456.49 Q22112.6 1455.81 22112.6 1454.62 Q22112.6 1451.27 22115.1 1448.6 Q22117.7 1445.93 22121.5 1445.93 Q22125.9 1445.93 22128.8 1448.55 Q22131.7 1451.15 22131.7 1455.22 Q22131.7 1456.65 22131.3 1457.96 Q22130.9 1459.25 22130.3 1460.26 Q22129.7 1461.27 22128.2 1462.88 Q22126.6 1464.5 22125.4 1465.65 Q22124.1 1466.8 22121.4 1469.23 L22116.3 1474.17 L22124.9 1474.17 Q22129.1 1474.17 22129.5 1473.8 Q22129.9 1473.12 22130.5 1469.54 L22131.7 1469.54 L22130.4 1477.87 L22112.6 1477.87 Z" fill="#000000" fill-rule="nonzero" fill-opacity="1" /><path clip-path="url(#clip590)" d="M22136.3 1470.1 L22137.5 1470.1 Q22138.2 1473.35 22138.5 1473.85 Q22139 1474.67 22141 1474.76 Q22141.4 1474.76 22142.2 1474.76 L22145.4 1474.76 Q22144.8 1472.56 22143.3 1470.03 Q22141.8 1467.47 22140.4 1465.58 Q22139.1 1463.68 22138 1461.1 Q22136.9 1458.5 22136.9 1456.04 Q22136.9 1451.15 22141.1 1447.61 Q22145.3 1444.05 22151.5 1444.05 Q22157.7 1444.05 22161.9 1447.59 Q22166.2 1451.1 22166.2 1456.04 Q22166.2 1458.48 22165.1 1461.06 Q22164 1463.63 22162.6 1465.53 Q22161.2 1467.43 22159.7 1470 Q22158.2 1472.56 22157.6 1474.76 L22160.9 1474.76 Q22163.6 1474.76 22164.1 1474.27 Q22164.7 1473.75 22165.2 1471.06 Q22165.3 1470.43 22165.4 1470.1 L22166.7 1470.1 L22165.1 1477.87 L22157.4 1477.87 Q22156.8 1477.87 22156.5 1477.69 Q22156.2 1477.5 22156.2 1476.82 Q22156.2 1473.56 22158.7 1466.56 Q22161.2 1459.56 22161.2 1456.04 Q22161.2 1450.82 22158.2 1447.96 Q22155.3 1445.11 22151.5 1445.11 Q22147.7 1445.11 22144.8 1447.94 Q22141.8 1450.77 22141.8 1456.04 Q22141.8 1459.6 22144.3 1466.58 Q22146.8 1473.56 22146.8 1476.77 Q22146.8 1477.55 22146.5 1477.71 Q22146.2 1477.87 22145.2 1477.87 L22137.9 1477.87 L22136.3 1470.1 Z" fill="#000000" fill-rule="nonzero" fill-opacity="1" /><path clip-path="url(#clip590)" d="M22195.5 1473.21 Q22195.5 1474.73 22194.4 1476.11 Q22193.4 1477.47 22191.8 1478.34 Q22190.2 1479.19 22188.4 1479.52 Q22190.8 1479.8 22192.2 1481.11 Q22193.7 1482.42 22193.7 1484.26 Q22193.7 1485.49 22192.9 1486.78 Q22192.2 1488.06 22191 1489.11 Q22189.8 1490.16 22188 1490.83 Q22186.3 1491.5 22184.4 1491.5 L22172.4 1491.5 Q22172 1491.5 22171.9 1491.49 Q22171.7 1491.47 22171.6 1491.39 Q22171.5 1491.31 22171.5 1491.13 Q22171.5 1490.8 22171.6 1490.65 Q22171.7 1490.5 22171.9 1490.49 Q22172 1490.47 22172.4 1490.47 Q22173.2 1490.47 22173.7 1490.42 Q22174.2 1490.37 22174.5 1490.31 Q22174.8 1490.23 22175 1490 Q22175.2 1489.77 22175.3 1489.57 Q22175.3 1489.36 22175.5 1488.88 L22179.9 1470.85 Q22180.1 1470.3 22180.1 1470.22 Q22180.1 1469.91 22179.9 1469.83 Q22179.7 1469.73 22179.2 1469.68 L22177.9 1469.62 Q22177.5 1469.62 22177.3 1469.6 Q22177.2 1469.58 22177.1 1469.5 Q22177 1469.42 22177 1469.24 Q22177 1468.78 22177.2 1468.68 Q22177.4 1468.57 22177.9 1468.57 L22189.2 1468.57 Q22192.1 1468.57 22193.8 1469.91 Q22195.5 1471.24 22195.5 1473.21 M22192.4 1473.08 Q22192.4 1472.45 22192.2 1471.9 Q22192.1 1471.34 22191.7 1470.8 Q22191.3 1470.26 22190.6 1469.94 Q22189.8 1469.62 22188.7 1469.62 L22184.4 1469.62 Q22183.3 1469.62 22183.1 1469.81 Q22182.8 1469.99 22182.6 1470.89 L22180.5 1479.21 L22185.4 1479.21 Q22186.9 1479.21 22188.2 1478.67 Q22189.6 1478.13 22190.5 1477.26 Q22191.4 1476.37 22191.9 1475.27 Q22192.4 1474.17 22192.4 1473.08 M22190.5 1483.88 Q22190.5 1483.39 22190.4 1482.91 Q22190.4 1482.44 22190.1 1481.88 Q22189.8 1481.32 22189.4 1480.91 Q22189 1480.5 22188.3 1480.22 Q22187.6 1479.95 22186.7 1479.95 L22180.3 1479.95 L22178 1489.32 Q22177.8 1489.93 22177.8 1490.09 Q22177.8 1490.27 22177.9 1490.34 Q22178 1490.39 22178.3 1490.42 Q22178.6 1490.47 22179 1490.47 L22183.6 1490.47 Q22185 1490.47 22186.3 1489.91 Q22187.6 1489.34 22188.5 1488.42 Q22189.5 1487.5 22190 1486.31 Q22190.5 1485.11 22190.5 1483.88 Z" fill="#000000" fill-rule="nonzero" fill-opacity="1" /><path clip-path="url(#clip590)" d="M22245.3 1465.2 Q22245.6 1465.48 22245.6 1465.88 Q22245.6 1466.28 22245.3 1466.56 Q22245 1466.84 22244.6 1466.84 L22214.6 1466.84 Q22214.2 1466.84 22213.9 1466.56 Q22213.6 1466.28 22213.6 1465.88 Q22213.6 1465.48 22213.9 1465.2 Q22214.2 1464.92 22214.6 1464.92 L22244.6 1464.92 Q22245 1464.92 22245.3 1465.2 Z" fill="#000000" fill-rule="nonzero" fill-opacity="1" /><path clip-path="url(#clip590)" d="M22283.2 1458.88 Q22283.2 1459.37 22282.8 1459.77 Q22282.4 1460.17 22281.9 1460.17 Q22281.7 1460.17 22281 1459.7 Q22279 1458.34 22276.6 1458.34 Q22274.4 1458.34 22272.3 1458.88 Q22270.3 1459.42 22268.9 1460.52 Q22267.5 1461.6 22267.5 1463 Q22267.5 1464.76 22269.5 1465.79 Q22271.5 1464.87 22273.9 1464.87 Q22274.7 1464.87 22275.3 1464.92 Q22275.8 1464.97 22276.4 1465.09 Q22276.9 1465.2 22277.2 1465.48 Q22277.4 1465.74 22277.4 1466.16 Q22277.4 1467.66 22273.5 1467.66 Q22271 1467.66 22269.4 1466.98 Q22267.4 1467.99 22266.3 1469.61 Q22265.1 1471.22 22265.1 1472.6 Q22265.1 1473.8 22265.8 1474.67 Q22266.5 1475.53 22267.6 1475.95 Q22268.7 1476.38 22269.8 1476.56 Q22270.9 1476.73 22272.2 1476.73 Q22274.2 1476.73 22275.6 1476.47 Q22277.1 1476.19 22277.9 1475.67 Q22278.7 1475.16 22279 1474.81 Q22279.4 1474.43 22279.7 1473.85 Q22279.9 1473.52 22280.2 1473.52 Q22280.4 1473.52 22280.6 1473.66 Q22280.7 1473.78 22280.7 1473.99 Q22280.7 1474.24 22280.4 1474.78 Q22280.1 1475.32 22279.4 1476.05 Q22278.6 1476.75 22277.6 1477.41 Q22276.6 1478.04 22275.1 1478.48 Q22273.5 1478.93 22271.7 1478.93 Q22268.1 1478.93 22266 1477.15 Q22263.9 1475.37 22263.9 1472.89 Q22263.9 1471.15 22265 1469.37 Q22266.2 1467.57 22268.3 1466.42 Q22266.4 1464.99 22266.4 1463 Q22266.4 1461.22 22267.9 1459.63 Q22269.4 1458.04 22271.8 1457.1 Q22274.3 1456.14 22277 1456.14 Q22278.6 1456.14 22280.1 1456.65 Q22281.6 1457.15 22282.4 1457.78 Q22283.2 1458.41 22283.2 1458.88 M22276.2 1466.21 Q22275.2 1465.93 22273.9 1465.93 Q22272.2 1465.93 22271 1466.35 Q22272 1466.61 22273.5 1466.61 Q22274.8 1466.61 22275.2 1466.54 Q22275.6 1466.47 22276.2 1466.21 Z" fill="#000000" fill-rule="nonzero" fill-opacity="1" /><path clip-path="url(#clip590)" d="M22288.2 1492.21 Q22288.2 1491.6 22288.2 1491.42 Q22288.3 1491.24 22288.5 1490.96 L22295 1483.78 Q22298.5 1479.81 22298.5 1476.36 Q22298.5 1474.11 22297.3 1472.5 Q22296.2 1470.9 22294 1470.9 Q22292.5 1470.9 22291.3 1471.8 Q22290.1 1472.7 22289.5 1474.31 Q22289.6 1474.27 22289.9 1474.27 Q22290.8 1474.27 22291.2 1474.8 Q22291.7 1475.32 22291.7 1476.03 Q22291.7 1476.93 22291.1 1477.37 Q22290.5 1477.8 22290 1477.8 Q22289.7 1477.8 22289.4 1477.75 Q22289.1 1477.7 22288.6 1477.24 Q22288.2 1476.77 22288.2 1475.93 Q22288.2 1473.58 22289.9 1471.72 Q22291.7 1469.85 22294.5 1469.85 Q22297.5 1469.85 22299.6 1471.68 Q22301.6 1473.5 22301.6 1476.36 Q22301.6 1477.36 22301.3 1478.27 Q22301 1479.18 22300.6 1479.88 Q22300.2 1480.59 22299.1 1481.72 Q22298 1482.85 22297.1 1483.65 Q22296.3 1484.45 22294.3 1486.16 L22290.8 1489.62 L22296.8 1489.62 Q22299.8 1489.62 22300 1489.36 Q22300.3 1488.88 22300.7 1486.37 L22301.6 1486.37 L22300.6 1492.21 L22288.2 1492.21 Z" fill="#000000" fill-rule="nonzero" fill-opacity="1" /><path clip-path="url(#clip590)" d="M1221.51 1519.69 Q1221.51 1522.69 1220 1528.48 Q1219.38 1530.99 1218.55 1533.28 Q1217.74 1535.54 1216.55 1537.73 Q1215.36 1539.92 1213.97 1541.49 Q1212.59 1543.04 1210.78 1544.01 Q1208.98 1544.97 1206.98 1544.97 Q1203.83 1544.97 1201.96 1543.1 Q1200.12 1541.2 1199.55 1537.95 Q1195.23 1544.97 1189.46 1544.97 Q1185.89 1544.97 1184.22 1542.43 Q1182.54 1539.85 1182.54 1535.54 Q1182.54 1531.9 1183.51 1528.13 Q1185.34 1520.98 1188.92 1515.99 Q1189.4 1515.41 1190.11 1515.41 Q1190.53 1515.41 1190.72 1515.54 Q1191.3 1515.89 1191.3 1516.47 Q1191.3 1516.89 1190.98 1517.31 Q1188.72 1520.43 1187.24 1523.1 Q1185.76 1525.78 1185.08 1528.48 Q1184.57 1530.8 1184.57 1532.77 Q1184.57 1536.08 1185.99 1538.14 Q1187.44 1540.21 1190.3 1540.21 Q1192.94 1540.21 1195.26 1538.56 Q1197.58 1536.89 1199.29 1534.09 Q1199.38 1531.03 1200.12 1528.13 Q1200.8 1525.04 1202.38 1525.04 Q1203.64 1525.04 1203.64 1526.74 Q1203.64 1527.32 1203.38 1528.48 Q1202.67 1531.54 1201.38 1534.28 Q1201.83 1536.95 1203.51 1538.59 Q1205.18 1540.21 1207.85 1540.21 Q1210.33 1540.21 1212.52 1538.4 Q1214.75 1536.6 1216.16 1533.96 Q1217.61 1531.28 1218.42 1528.13 Q1218.68 1527.07 1218.68 1525.71 Q1218.68 1522.11 1216.16 1519.88 Q1215.45 1519.17 1215.45 1518.24 Q1215.45 1517.15 1216.36 1516.15 Q1217.42 1515.08 1218.68 1515.08 Q1219.61 1515.08 1220.19 1515.66 Q1221.51 1516.82 1221.51 1519.69 Z" fill="#000000" fill-rule="nonzero" fill-opacity="1" /><path clip-path="url(#clip590)" d="M1256.06 1552.3 Q1256.06 1552.44 1255.88 1552.95 L1252.23 1562.92 Q1252.03 1563.5 1251.82 1563.62 Q1251.62 1563.71 1250.79 1563.71 L1229.41 1563.71 Q1228.9 1563.71 1228.69 1563.69 Q1228.49 1563.66 1228.33 1563.55 Q1228.17 1563.44 1228.17 1563.19 Q1228.17 1562.74 1228.33 1562.54 Q1228.51 1562.33 1228.72 1562.31 Q1228.92 1562.29 1229.41 1562.29 Q1230.54 1562.29 1231.22 1562.22 Q1231.89 1562.15 1232.32 1562.06 Q1232.77 1561.95 1233 1561.63 Q1233.25 1561.32 1233.36 1561.05 Q1233.47 1560.75 1233.63 1560.1 L1239.81 1535.3 Q1239.99 1534.56 1239.99 1534.45 Q1239.99 1534.02 1239.72 1533.9 Q1239.47 1533.77 1238.75 1533.7 L1236.99 1533.61 Q1236.45 1533.61 1236.22 1533.59 Q1236.02 1533.57 1235.86 1533.45 Q1235.7 1533.34 1235.7 1533.09 Q1235.7 1532.66 1235.86 1532.46 Q1236.04 1532.24 1236.18 1532.21 Q1236.34 1532.17 1236.58 1532.17 L1242.72 1532.3 L1249.55 1532.17 Q1250.29 1532.17 1250.29 1532.73 Q1250.29 1533.36 1249.97 1533.5 Q1249.66 1533.61 1248.53 1533.61 Q1246.37 1533.61 1245.38 1533.84 Q1244.41 1534.06 1244.14 1534.45 Q1243.89 1534.81 1243.64 1535.78 L1237.39 1560.71 Q1237.17 1561.54 1237.17 1561.77 Q1237.17 1562.02 1237.28 1562.11 Q1237.42 1562.17 1237.78 1562.22 Q1238.18 1562.29 1238.79 1562.29 L1243.12 1562.29 Q1244.43 1562.29 1245.58 1562.08 Q1246.73 1561.88 1247.61 1561.59 Q1248.51 1561.3 1249.32 1560.75 Q1250.13 1560.21 1250.7 1559.74 Q1251.28 1559.24 1251.85 1558.48 Q1252.43 1557.69 1252.77 1557.15 Q1253.13 1556.58 1253.54 1555.68 Q1253.94 1554.76 1254.15 1554.24 Q1254.37 1553.7 1254.71 1552.77 Q1254.91 1552.3 1254.98 1552.17 Q1255.05 1552.03 1255.16 1551.92 Q1255.29 1551.8 1255.5 1551.8 Q1255.77 1551.8 1255.9 1551.96 Q1256.06 1552.12 1256.06 1552.3 Z" fill="#000000" fill-rule="nonzero" fill-opacity="1" /><path clip-path="url(#clip590)" d="M1324.68 1526.81 Q1325.06 1527.19 1325.06 1527.74 Q1325.06 1528.29 1324.68 1528.68 Q1324.29 1529.06 1323.74 1529.06 L1282.45 1529.06 Q1281.91 1529.06 1281.52 1528.68 Q1281.13 1528.29 1281.13 1527.74 Q1281.13 1527.19 1281.52 1526.81 Q1281.91 1526.42 1282.45 1526.42 L1323.74 1526.42 Q1324.29 1526.42 1324.68 1526.81 Z" fill="#000000" fill-rule="nonzero" fill-opacity="1" /><path clip-path="url(#clip590)" d="M1389.22 1519.69 Q1389.22 1522.69 1387.71 1528.48 Q1387.09 1530.99 1386.26 1533.28 Q1385.45 1535.54 1384.26 1537.73 Q1383.07 1539.92 1381.68 1541.49 Q1380.3 1543.04 1378.5 1544.01 Q1376.69 1544.97 1374.7 1544.97 Q1371.54 1544.97 1369.67 1543.1 Q1367.84 1541.2 1367.26 1537.95 Q1362.94 1544.97 1357.18 1544.97 Q1353.6 1544.97 1351.93 1542.43 Q1350.25 1539.85 1350.25 1535.54 Q1350.25 1531.9 1351.22 1528.13 Q1353.05 1520.98 1356.63 1515.99 Q1357.11 1515.41 1357.82 1515.41 Q1358.24 1515.41 1358.43 1515.54 Q1359.01 1515.89 1359.01 1516.47 Q1359.01 1516.89 1358.69 1517.31 Q1356.43 1520.43 1354.95 1523.1 Q1353.47 1525.78 1352.8 1528.48 Q1352.28 1530.8 1352.28 1532.77 Q1352.28 1536.08 1353.7 1538.14 Q1355.15 1540.21 1358.01 1540.21 Q1360.65 1540.21 1362.97 1538.56 Q1365.29 1536.89 1367 1534.09 Q1367.09 1531.03 1367.84 1528.13 Q1368.51 1525.04 1370.09 1525.04 Q1371.35 1525.04 1371.35 1526.74 Q1371.35 1527.32 1371.09 1528.48 Q1370.38 1531.54 1369.09 1534.28 Q1369.54 1536.95 1371.22 1538.59 Q1372.89 1540.21 1375.56 1540.21 Q1378.04 1540.21 1380.23 1538.4 Q1382.46 1536.6 1383.87 1533.96 Q1385.32 1531.28 1386.13 1528.13 Q1386.39 1527.07 1386.39 1525.71 Q1386.39 1522.11 1383.87 1519.88 Q1383.17 1519.17 1383.17 1518.24 Q1383.17 1517.15 1384.07 1516.15 Q1385.13 1515.08 1386.39 1515.08 Q1387.32 1515.08 1387.9 1515.66 Q1389.22 1516.82 1389.22 1519.69 Z" fill="#000000" fill-rule="nonzero" fill-opacity="1" /><path clip-path="url(#clip590)" d="M1412.88 1540.66 Q1412.88 1541.92 1412.25 1542.6 Q1411.62 1543.25 1410.76 1543.25 Q1410.06 1543.25 1409.68 1542.84 Q1409.32 1542.44 1409.32 1541.9 Q1409.32 1541.11 1409.95 1540.48 Q1410.61 1539.85 1411.55 1539.82 Q1411.24 1538.99 1410.4 1538.49 Q1409.57 1537.98 1408.82 1537.84 Q1408.1 1537.7 1407.38 1537.7 Q1405.96 1537.7 1404.88 1538.16 Q1403.8 1538.61 1403.26 1539.31 Q1402.72 1539.98 1402.47 1540.64 Q1402.22 1541.29 1402.22 1541.85 Q1402.22 1542.35 1402.33 1542.75 Q1402.47 1543.14 1402.78 1543.43 Q1403.1 1543.7 1403.32 1543.88 Q1403.57 1544.06 1404.11 1544.22 Q1404.65 1544.38 1404.88 1544.45 Q1405.11 1544.49 1405.74 1544.63 Q1407.04 1544.9 1407.63 1545.05 Q1408.22 1545.19 1408.98 1545.57 Q1409.77 1545.96 1410.36 1546.56 Q1411.78 1547.98 1411.78 1549.95 Q1411.78 1550.67 1411.53 1551.55 Q1411.3 1552.43 1410.65 1553.53 Q1410 1554.64 1409.01 1555.51 Q1408.01 1556.39 1406.3 1557 Q1404.61 1557.61 1402.49 1557.61 Q1399.54 1557.61 1397.71 1556.37 Q1395.88 1555.11 1395.88 1553.13 Q1395.88 1551.68 1396.67 1550.89 Q1397.46 1550.08 1398.48 1550.08 Q1399.24 1550.08 1399.72 1550.51 Q1400.19 1550.92 1400.19 1551.68 Q1400.19 1552.72 1399.36 1553.51 Q1398.52 1554.3 1397.28 1554.14 Q1398.34 1556.57 1402.54 1556.57 Q1404.11 1556.57 1405.33 1556.17 Q1406.57 1555.74 1407.25 1555.15 Q1407.95 1554.55 1408.4 1553.8 Q1408.85 1553.06 1408.98 1552.49 Q1409.14 1551.93 1409.14 1551.5 Q1409.14 1550.76 1408.85 1550.19 Q1408.55 1549.63 1408.15 1549.32 Q1407.77 1548.98 1407.02 1548.71 Q1406.3 1548.41 1405.78 1548.3 Q1405.26 1548.19 1404.34 1548.01 Q1403.91 1547.92 1403.64 1547.87 Q1403.37 1547.8 1402.81 1547.62 Q1402.26 1547.42 1401.88 1547.22 Q1401.52 1547.02 1401.05 1546.65 Q1400.57 1546.29 1400.28 1545.87 Q1399.99 1545.44 1399.78 1544.81 Q1399.58 1544.18 1399.58 1543.43 Q1399.58 1542.75 1399.78 1541.94 Q1400.01 1541.13 1400.57 1540.18 Q1401.16 1539.24 1401.99 1538.47 Q1402.83 1537.7 1404.23 1537.21 Q1405.65 1536.69 1407.38 1536.69 Q1409.91 1536.69 1411.4 1537.86 Q1412.88 1539.01 1412.88 1540.66 Z" fill="#000000" fill-rule="nonzero" fill-opacity="1" /><polyline clip-path="url(#clip592)" style="stroke:#000000; stroke-linecap:round; stroke-linejoin:round; stroke-width:2; stroke-opacity:0.1; fill:none" points="249.542,1356.82 2352.76,1356.82 "/>
<polyline clip-path="url(#clip592)" style="stroke:#000000; stroke-linecap:round; stroke-linejoin:round; stroke-width:2; stroke-opacity:0.1; fill:none" points="249.542,1018.46 2352.76,1018.46 "/>
<polyline clip-path="url(#clip592)" style="stroke:#000000; stroke-linecap:round; stroke-linejoin:round; stroke-width:2; stroke-opacity:0.1; fill:none" points="249.542,680.104 2352.76,680.104 "/>
<polyline clip-path="url(#clip592)" style="stroke:#000000; stroke-linecap:round; stroke-linejoin:round; stroke-width:2; stroke-opacity:0.1; fill:none" points="249.542,341.749 2352.76,341.749 "/>
<polyline clip-path="url(#clip590)" style="stroke:#000000; stroke-linecap:round; stroke-linejoin:round; stroke-width:4; stroke-opacity:1; fill:none" points="249.542,1423.18 249.542,47.2441 "/>
<polyline clip-path="url(#clip590)" style="stroke:#000000; stroke-linecap:round; stroke-linejoin:round; stroke-width:4; stroke-opacity:1; fill:none" points="249.542,1356.82 268.44,1356.82 "/>
<polyline clip-path="url(#clip590)" style="stroke:#000000; stroke-linecap:round; stroke-linejoin:round; stroke-width:4; stroke-opacity:1; fill:none" points="249.542,1018.46 268.44,1018.46 "/>
<polyline clip-path="url(#clip590)" style="stroke:#000000; stroke-linecap:round; stroke-linejoin:round; stroke-width:4; stroke-opacity:1; fill:none" points="249.542,680.104 268.44,680.104 "/>
<polyline clip-path="url(#clip590)" style="stroke:#000000; stroke-linecap:round; stroke-linejoin:round; stroke-width:4; stroke-opacity:1; fill:none" points="249.542,341.749 268.44,341.749 "/>
<path clip-path="url(#clip590)" d="M126.205 1342.61 Q122.593 1342.61 120.765 1346.18 Q118.959 1349.72 118.959 1356.85 Q118.959 1363.96 120.765 1367.52 Q122.593 1371.06 126.205 1371.06 Q129.839 1371.06 131.644 1367.52 Q133.473 1363.96 133.473 1356.85 Q133.473 1349.72 131.644 1346.18 Q129.839 1342.61 126.205 1342.61 M126.205 1338.91 Q132.015 1338.91 135.07 1343.52 Q138.149 1348.1 138.149 1356.85 Q138.149 1365.58 135.07 1370.18 Q132.015 1374.77 126.205 1374.77 Q120.394 1374.77 117.316 1370.18 Q114.26 1365.58 114.26 1356.85 Q114.26 1348.1 117.316 1343.52 Q120.394 1338.91 126.205 1338.91 Z" fill="#000000" fill-rule="nonzero" fill-opacity="1" /><path clip-path="url(#clip590)" d="M146.366 1368.22 L151.251 1368.22 L151.251 1374.1 L146.366 1374.1 L146.366 1368.22 Z" fill="#000000" fill-rule="nonzero" fill-opacity="1" /><path clip-path="url(#clip590)" d="M161.575 1373.38 L161.575 1369.12 Q163.334 1369.95 165.14 1370.39 Q166.945 1370.83 168.681 1370.83 Q173.311 1370.83 175.741 1367.73 Q178.195 1364.61 178.542 1358.26 Q177.2 1360.25 175.139 1361.32 Q173.079 1362.38 170.579 1362.38 Q165.394 1362.38 162.362 1359.26 Q159.353 1356.11 159.353 1350.67 Q159.353 1345.35 162.501 1342.13 Q165.649 1338.91 170.88 1338.91 Q176.876 1338.91 180.024 1343.52 Q183.195 1348.1 183.195 1356.85 Q183.195 1365.02 179.306 1369.91 Q175.44 1374.77 168.889 1374.77 Q167.13 1374.77 165.325 1374.42 Q163.519 1374.07 161.575 1373.38 M170.88 1358.73 Q174.028 1358.73 175.857 1356.57 Q177.709 1354.42 177.709 1350.67 Q177.709 1346.94 175.857 1344.79 Q174.028 1342.61 170.88 1342.61 Q167.732 1342.61 165.88 1344.79 Q164.052 1346.94 164.052 1350.67 Q164.052 1354.42 165.88 1356.57 Q167.732 1358.73 170.88 1358.73 Z" fill="#000000" fill-rule="nonzero" fill-opacity="1" /><path clip-path="url(#clip590)" d="M201.598 1342.61 Q197.987 1342.61 196.158 1346.18 Q194.352 1349.72 194.352 1356.85 Q194.352 1363.96 196.158 1367.52 Q197.987 1371.06 201.598 1371.06 Q205.232 1371.06 207.037 1367.52 Q208.866 1363.96 208.866 1356.85 Q208.866 1349.72 207.037 1346.18 Q205.232 1342.61 201.598 1342.61 M201.598 1338.91 Q207.408 1338.91 210.463 1343.52 Q213.542 1348.1 213.542 1356.85 Q213.542 1365.58 210.463 1370.18 Q207.408 1374.77 201.598 1374.77 Q195.787 1374.77 192.709 1370.18 Q189.653 1365.58 189.653 1356.85 Q189.653 1348.1 192.709 1343.52 Q195.787 1338.91 201.598 1338.91 Z" fill="#000000" fill-rule="nonzero" fill-opacity="1" /><path clip-path="url(#clip590)" d="M127.2 1004.26 Q123.589 1004.26 121.76 1007.82 Q119.955 1011.37 119.955 1018.49 Q119.955 1025.6 121.76 1029.17 Q123.589 1032.71 127.2 1032.71 Q130.834 1032.71 132.64 1029.17 Q134.468 1025.6 134.468 1018.49 Q134.468 1011.37 132.64 1007.82 Q130.834 1004.26 127.2 1004.26 M127.2 1000.56 Q133.01 1000.56 136.066 1005.16 Q139.144 1009.74 139.144 1018.49 Q139.144 1027.22 136.066 1031.83 Q133.01 1036.41 127.2 1036.41 Q121.39 1036.41 118.311 1031.83 Q115.256 1027.22 115.256 1018.49 Q115.256 1009.74 118.311 1005.16 Q121.39 1000.56 127.2 1000.56 Z" fill="#000000" fill-rule="nonzero" fill-opacity="1" /><path clip-path="url(#clip590)" d="M147.362 1029.86 L152.246 1029.86 L152.246 1035.74 L147.362 1035.74 L147.362 1029.86 Z" fill="#000000" fill-rule="nonzero" fill-opacity="1" /><path clip-path="url(#clip590)" d="M162.57 1035.02 L162.57 1030.76 Q164.329 1031.6 166.135 1032.04 Q167.94 1032.48 169.677 1032.48 Q174.306 1032.48 176.737 1029.37 Q179.19 1026.25 179.538 1019.91 Q178.195 1021.9 176.135 1022.96 Q174.075 1024.03 171.575 1024.03 Q166.39 1024.03 163.357 1020.9 Q160.348 1017.75 160.348 1012.31 Q160.348 1006.99 163.496 1003.77 Q166.644 1000.56 171.876 1000.56 Q177.871 1000.56 181.019 1005.16 Q184.19 1009.74 184.19 1018.49 Q184.19 1026.67 180.301 1031.55 Q176.436 1036.41 169.885 1036.41 Q168.126 1036.41 166.32 1036.06 Q164.515 1035.72 162.57 1035.02 M171.876 1020.37 Q175.024 1020.37 176.852 1018.22 Q178.704 1016.06 178.704 1012.31 Q178.704 1008.59 176.852 1006.43 Q175.024 1004.26 171.876 1004.26 Q168.727 1004.26 166.876 1006.43 Q165.047 1008.59 165.047 1012.31 Q165.047 1016.06 166.876 1018.22 Q168.727 1020.37 171.876 1020.37 Z" fill="#000000" fill-rule="nonzero" fill-opacity="1" /><path clip-path="url(#clip590)" d="M192.639 1001.18 L210.996 1001.18 L210.996 1005.12 L196.922 1005.12 L196.922 1013.59 Q197.94 1013.24 198.959 1013.08 Q199.977 1012.89 200.996 1012.89 Q206.783 1012.89 210.162 1016.06 Q213.542 1019.24 213.542 1024.65 Q213.542 1030.23 210.07 1033.33 Q206.598 1036.41 200.278 1036.41 Q198.102 1036.41 195.834 1036.04 Q193.588 1035.67 191.181 1034.93 L191.181 1030.23 Q193.264 1031.37 195.487 1031.92 Q197.709 1032.48 200.186 1032.48 Q204.19 1032.48 206.528 1030.37 Q208.866 1028.26 208.866 1024.65 Q208.866 1021.04 206.528 1018.93 Q204.19 1016.83 200.186 1016.83 Q198.311 1016.83 196.436 1017.24 Q194.584 1017.66 192.639 1018.54 L192.639 1001.18 Z" fill="#000000" fill-rule="nonzero" fill-opacity="1" /><path clip-path="url(#clip590)" d="M117.015 693.449 L124.654 693.449 L124.654 667.084 L116.343 668.75 L116.343 664.491 L124.607 662.824 L129.283 662.824 L129.283 693.449 L136.922 693.449 L136.922 697.384 L117.015 697.384 L117.015 693.449 Z" fill="#000000" fill-rule="nonzero" fill-opacity="1" /><path clip-path="url(#clip590)" d="M146.366 691.505 L151.251 691.505 L151.251 697.384 L146.366 697.384 L146.366 691.505 Z" fill="#000000" fill-rule="nonzero" fill-opacity="1" /><path clip-path="url(#clip590)" d="M171.436 665.903 Q167.825 665.903 165.996 669.468 Q164.19 673.009 164.19 680.139 Q164.19 687.245 165.996 690.81 Q167.825 694.352 171.436 694.352 Q175.07 694.352 176.876 690.81 Q178.704 687.245 178.704 680.139 Q178.704 673.009 176.876 669.468 Q175.07 665.903 171.436 665.903 M171.436 662.199 Q177.246 662.199 180.301 666.806 Q183.38 671.389 183.38 680.139 Q183.38 688.866 180.301 693.472 Q177.246 698.056 171.436 698.056 Q165.626 698.056 162.547 693.472 Q159.491 688.866 159.491 680.139 Q159.491 671.389 162.547 666.806 Q165.626 662.199 171.436 662.199 Z" fill="#000000" fill-rule="nonzero" fill-opacity="1" /><path clip-path="url(#clip590)" d="M201.598 665.903 Q197.987 665.903 196.158 669.468 Q194.352 673.009 194.352 680.139 Q194.352 687.245 196.158 690.81 Q197.987 694.352 201.598 694.352 Q205.232 694.352 207.037 690.81 Q208.866 687.245 208.866 680.139 Q208.866 673.009 207.037 669.468 Q205.232 665.903 201.598 665.903 M201.598 662.199 Q207.408 662.199 210.463 666.806 Q213.542 671.389 213.542 680.139 Q213.542 688.866 210.463 693.472 Q207.408 698.056 201.598 698.056 Q195.787 698.056 192.709 693.472 Q189.653 688.866 189.653 680.139 Q189.653 671.389 192.709 666.806 Q195.787 662.199 201.598 662.199 Z" fill="#000000" fill-rule="nonzero" fill-opacity="1" /><path clip-path="url(#clip590)" d="M118.01 355.093 L125.649 355.093 L125.649 328.728 L117.339 330.394 L117.339 326.135 L125.603 324.469 L130.279 324.469 L130.279 355.093 L137.917 355.093 L137.917 359.029 L118.01 359.029 L118.01 355.093 Z" fill="#000000" fill-rule="nonzero" fill-opacity="1" /><path clip-path="url(#clip590)" d="M147.362 353.149 L152.246 353.149 L152.246 359.029 L147.362 359.029 L147.362 353.149 Z" fill="#000000" fill-rule="nonzero" fill-opacity="1" /><path clip-path="url(#clip590)" d="M172.431 327.547 Q168.82 327.547 166.991 331.112 Q165.186 334.654 165.186 341.783 Q165.186 348.89 166.991 352.454 Q168.82 355.996 172.431 355.996 Q176.065 355.996 177.871 352.454 Q179.7 348.89 179.7 341.783 Q179.7 334.654 177.871 331.112 Q176.065 327.547 172.431 327.547 M172.431 323.844 Q178.241 323.844 181.297 328.45 Q184.376 333.033 184.376 341.783 Q184.376 350.51 181.297 355.116 Q178.241 359.7 172.431 359.7 Q166.621 359.7 163.542 355.116 Q160.487 350.51 160.487 341.783 Q160.487 333.033 163.542 328.45 Q166.621 323.844 172.431 323.844 Z" fill="#000000" fill-rule="nonzero" fill-opacity="1" /><path clip-path="url(#clip590)" d="M192.639 324.469 L210.996 324.469 L210.996 328.404 L196.922 328.404 L196.922 336.876 Q197.94 336.529 198.959 336.367 Q199.977 336.181 200.996 336.181 Q206.783 336.181 210.162 339.353 Q213.542 342.524 213.542 347.941 Q213.542 353.519 210.07 356.621 Q206.598 359.7 200.278 359.7 Q198.102 359.7 195.834 359.329 Q193.588 358.959 191.181 358.218 L191.181 353.519 Q193.264 354.654 195.487 355.209 Q197.709 355.765 200.186 355.765 Q204.19 355.765 206.528 353.658 Q208.866 351.552 208.866 347.941 Q208.866 344.33 206.528 342.223 Q204.19 340.117 200.186 340.117 Q198.311 340.117 196.436 340.533 Q194.584 340.95 192.639 341.83 L192.639 324.469 Z" fill="#000000" fill-rule="nonzero" fill-opacity="1" /><path clip-path="url(#clip590)" d="M20.2934 767.16 Q20.9053 767.16 21.1952 767.417 Q21.4528 767.643 21.5172 767.997 Q21.5494 768.351 21.5494 769.285 Q21.5494 770.864 21.6782 771.862 Q21.7749 772.86 21.9359 773.472 Q22.0647 774.084 22.5156 774.438 Q22.9343 774.76 23.3207 774.921 Q23.7072 775.05 24.5768 775.276 L59.7134 784.1 Q60.744 784.39 61.2593 784.39 Q61.8068 784.39 62.0322 784.068 Q62.2576 783.746 62.3543 782.715 Q62.5153 781.073 62.5153 779.881 Q62.5153 778.303 62.7407 778.078 Q62.9662 777.917 63.2882 777.917 Q63.8679 777.917 64.19 778.174 Q64.4798 778.432 64.512 778.657 Q64.5443 778.851 64.5443 779.237 L64.351 788.061 L64.5443 796.725 Q64.5443 797.691 63.8035 797.691 Q63.3204 797.691 63.0628 797.627 Q62.7729 797.53 62.6763 797.208 Q62.5475 796.854 62.5475 796.596 Q62.5153 796.338 62.5153 795.598 Q62.5153 794.277 62.4831 793.408 Q62.4187 792.506 62.2576 791.862 Q62.0644 791.185 61.9034 790.863 Q61.7101 790.509 61.2915 790.251 Q60.8406 789.962 60.4863 789.865 Q60.132 789.736 59.3913 789.575 L23.836 780.686 Q23.2563 780.557 22.8055 780.557 Q21.9359 780.557 21.7427 781.588 Q21.5494 782.586 21.5494 785.098 Q21.5494 785.871 21.5172 786.193 Q21.485 786.483 21.324 786.741 Q21.163 786.966 20.8087 786.966 Q20.3578 786.966 20.068 786.838 Q19.7459 786.709 19.6493 786.483 Q19.5527 786.226 19.5205 786.065 Q19.4883 785.904 19.4883 785.646 L19.6815 776.854 L19.4883 768.158 Q19.4883 767.16 20.2934 767.16 Z" fill="#000000" fill-rule="nonzero" fill-opacity="1" /><path clip-path="url(#clip590)" d="M80.0997 768.95 Q79.7776 768.95 79.0691 768.693 L16.8474 745.408 Q16.783 745.408 16.4287 745.247 Q16.0744 745.086 15.849 744.989 Q15.5913 744.893 15.3981 744.699 Q15.2049 744.474 15.2049 744.216 Q15.2049 743.572 16.01 743.572 Q16.0744 743.572 16.8474 743.765 L79.1335 767.115 Q80.2607 767.501 80.5828 767.759 Q80.9048 767.984 80.9048 768.371 Q80.9048 768.95 80.0997 768.95 Z" fill="#000000" fill-rule="nonzero" fill-opacity="1" /><path clip-path="url(#clip590)" d="M20.2934 705.755 Q20.9053 705.755 21.1952 706.013 Q21.4528 706.238 21.5172 706.593 Q21.5494 706.947 21.5494 707.881 Q21.5494 709.459 21.6782 710.457 Q21.7749 711.456 21.9359 712.068 Q22.0647 712.679 22.5156 713.034 Q22.9343 713.356 23.3207 713.517 Q23.7072 713.646 24.5768 713.871 L59.7134 722.696 Q60.744 722.985 61.2593 722.985 Q61.8068 722.985 62.0322 722.663 Q62.2576 722.341 62.3543 721.311 Q62.5153 719.668 62.5153 718.477 Q62.5153 716.898 62.7407 716.673 Q62.9662 716.512 63.2882 716.512 Q63.8679 716.512 64.19 716.77 Q64.4798 717.027 64.512 717.253 Q64.5443 717.446 64.5443 717.832 L64.351 726.657 L64.5443 735.32 Q64.5443 736.286 63.8035 736.286 Q63.3204 736.286 63.0628 736.222 Q62.7729 736.125 62.6763 735.803 Q62.5475 735.449 62.5475 735.191 Q62.5153 734.934 62.5153 734.193 Q62.5153 732.873 62.4831 732.003 Q62.4187 731.101 62.2576 730.457 Q62.0644 729.781 61.9034 729.459 Q61.7101 729.104 61.2915 728.847 Q60.8406 728.557 60.4863 728.46 Q60.132 728.332 59.3913 728.171 L23.836 719.282 Q23.2563 719.153 22.8055 719.153 Q21.9359 719.153 21.7427 720.183 Q21.5494 721.182 21.5494 723.694 Q21.5494 724.467 21.5172 724.789 Q21.485 725.079 21.324 725.336 Q21.163 725.562 20.8087 725.562 Q20.3578 725.562 20.068 725.433 Q19.7459 725.304 19.6493 725.079 Q19.5527 724.821 19.5205 724.66 Q19.4883 724.499 19.4883 724.241 L19.6815 715.449 L19.4883 706.754 Q19.4883 705.755 20.2934 705.755 Z" fill="#000000" fill-rule="nonzero" fill-opacity="1" /><path clip-path="url(#clip590)" d="M68.0544 699.012 Q61.2687 699.012 57.5714 697.299 Q52.0707 694.909 52.0707 689.273 Q52.0707 688.078 52.4088 686.838 Q52.7244 685.576 53.9644 683.998 Q55.2043 682.397 57.2333 681.428 Q61.1559 679.579 68.0544 679.579 Q74.7951 679.579 78.4698 681.292 Q83.8353 683.795 83.8353 689.318 Q83.8353 691.392 82.7757 693.511 Q81.7162 695.608 79.1687 696.938 Q75.3587 699.012 68.0544 699.012 M67.4908 695.18 Q74.457 695.18 77.2299 694.684 Q80.2282 694.12 81.5358 692.587 Q82.8208 691.031 82.8208 689.318 Q82.8208 687.469 81.4456 685.936 Q80.0479 684.381 77.0495 683.907 Q74.0962 683.389 67.4908 683.411 Q61.0658 683.411 58.4957 683.862 Q55.4974 684.471 54.3025 686.094 Q53.0851 687.695 53.0851 689.318 Q53.0851 689.927 53.2655 690.581 Q53.4458 691.212 53.9644 692.136 Q54.4829 693.06 55.7679 693.782 Q57.0529 694.481 58.9917 694.819 Q61.4941 695.18 67.4908 695.18 Z" fill="#000000" fill-rule="nonzero" fill-opacity="1" /><polyline clip-path="url(#clip592)" style="stroke:#009af9; stroke-linecap:round; stroke-linejoin:round; stroke-width:8; stroke-opacity:1; fill:none" points="-1606.23,679.915 -1593.86,679.912 -1581.49,679.909 -1569.12,679.906 -1556.75,679.903 -1544.38,679.9 -1532,679.897 -1519.63,679.894 -1507.26,679.891 -1494.89,679.888 -1482.52,679.884 -1470.14,679.881 -1457.77,679.877 -1445.4,679.874 -1433.03,679.87 -1420.66,679.866 -1408.29,679.863 -1395.91,679.859 -1383.54,679.855 -1371.17,679.851 -1358.8,679.847 -1346.43,679.842 -1334.05,679.838 -1321.68,679.834 -1309.31,679.829 -1296.94,679.825 -1284.57,679.82 -1272.2,679.815 -1259.82,679.81 -1247.45,679.805 -1235.08,679.8 -1222.71,679.795 -1210.34,679.789 -1197.96,679.784 -1185.59,679.778 -1173.22,679.772 -1160.85,679.766 -1148.48,679.76 -1136.1,679.754 -1123.73,679.748 -1111.36,679.741 -1098.99,679.734 -1086.62,679.727 -1074.25,679.72 -1061.87,679.713 -1049.5,679.706 -1037.13,679.698 -1024.76,679.69 -1012.39,679.682 -1000.01,679.674 -987.643,679.666 -975.271,679.657 -962.899,679.648 -950.527,679.639 -938.155,679.63 -925.783,679.62 -913.412,679.61 -901.04,679.6 -888.668,679.59 -876.296,679.579 -863.924,679.568 -851.552,679.557 -839.18,679.545 -826.809,679.533 -814.437,679.521 -802.065,679.508 -789.693,679.495 -777.321,679.481 -764.949,679.467 -752.578,679.453 -740.206,679.438 -727.834,679.423 -715.462,679.408 -703.09,679.392 -690.718,679.375 -678.346,679.358 -665.975,679.34 -653.603,679.322 -641.231,679.303 -628.859,679.283 -616.487,679.263 -604.115,679.243 -591.744,679.221 -579.372,679.199 -567,679.176 -554.628,679.152 -542.256,679.128 -529.884,679.102 -517.512,679.076 -505.141,679.049 -492.769,679.02 -480.397,678.991 -468.025,678.961 -455.653,678.929 -443.281,678.897 -430.91,678.863 -418.538,678.828 -406.166,678.791 -393.794,678.753 -381.422,678.714 -369.05,678.673 -356.678,678.63 -344.307,678.586 -331.935,678.54 -319.563,678.491 -307.191,678.441 -294.819,678.389 -282.447,678.335 -270.076,678.278 -257.704,678.219 -245.332,678.157 -232.96,678.092 -220.588,678.025 -208.216,677.954 -195.844,677.88 -183.473,677.803 -171.101,677.722 -158.729,677.637 -146.357,677.548 -133.985,677.454 -121.613,677.356 -109.242,677.253 -96.8697,677.145 -84.4978,677.031 -72.126,676.911 -59.7541,676.785 -47.3823,676.652 -35.0104,676.511 -22.6386,676.363 -10.2667,676.206 2.10511,676.041 14.477,675.865 26.8488,675.68 39.2206,675.483 51.5925,675.274 63.9643,675.052 76.3362,674.817 88.708,674.566 101.08,674.298 113.452,674.014 125.824,673.709 138.195,673.384 150.567,673.036 162.939,672.664 175.311,672.264 187.683,671.834 200.055,671.372 212.426,670.875 224.798,670.338 237.17,669.757 249.542,669.13 261.914,668.449 274.286,667.709 286.658,666.905 299.029,666.028 311.401,665.07 323.773,664.021 336.145,662.87 348.517,661.605 360.889,660.209 373.26,658.667 385.632,656.957 398.004,655.057 410.376,652.938 422.748,650.568 435.12,647.908 447.492,644.911 459.863,641.524 472.235,637.679 484.607,633.296 496.979,628.277 509.351,622.504 521.723,615.831 534.094,608.077 546.466,599.022 558.838,588.388 571.21,575.835 583.582,560.937 595.954,543.173 608.326,521.906 620.697,496.383 633.069,465.752 645.441,429.132 657.813,385.797 670.185,335.526 682.557,279.224 694.929,219.765 707.3,162.768 719.672,116.48 732.044,89.8207 744.416,88.7411 756.788,113.176 769.16,157.189 781.531,212.138 793.903,270.141 806.275,325.84 818.647,376.443 831.019,421.006 843.391,459.651 855.763,493.008 868.134,521.884 880.506,547.093 892.878,569.392 905.25,589.458 917.622,607.894 929.994,625.248 942.365,642.033 954.737,658.758 967.109,675.952 979.481,694.199 991.853,714.184 1004.22,736.734 1016.6,762.892 1028.97,793.982 1041.34,831.693 1053.71,878.111 1066.08,935.628 1078.46,1006.46 1090.83,1091.35 1103.2,1186.87 1115.57,1281.68 1127.94,1355.07 1140.31,1384.24 1152.69,1359.74 1165.06,1293.16 1177.43,1207.1 1189.8,1120.65 1202.17,1043.91 1214.55,979.944 1226.92,928.183 1239.29,886.779 1251.66,853.706 1264.03,827.182 1276.41,805.766 1288.78,788.334 1301.15,774.024 1313.52,762.178 1325.89,752.292 1338.26,743.979 1350.64,736.938 1363.01,730.935 1375.38,725.788 1387.75,721.349 1400.12,717.502 1412.5,714.155 1424.87,711.232 1437.24,708.671 1449.61,706.424 1461.98,704.45 1474.35,702.717 1486.73,701.198 1499.1,699.874 1511.47,698.728 1523.84,697.752 1536.21,696.94 1548.59,696.293 1560.96,695.818 1573.33,695.532 1585.7,695.461 1598.07,695.645 1610.45,696.145 1622.82,697.04 1635.19,698.434 1647.56,700.436 1659.93,703.103 1672.3,706.3 1684.68,709.492 1697.05,711.666 1709.42,711.822 1721.79,709.815 1734.16,706.47 1746.54,702.808 1758.91,699.461 1771.28,696.649 1783.65,694.37 1796.02,692.542 1808.39,691.072 1820.77,689.878 1833.14,688.898 1845.51,688.083 1857.88,687.396 1870.25,686.81 1882.63,686.305 1895,685.866 1907.37,685.48 1919.74,685.138 1932.11,684.833 1944.48,684.559 1956.86,684.312 1969.23,684.087 1981.6,683.882 1993.97,683.694 2006.34,683.521 2018.72,683.362 2031.09,683.214 2043.46,683.076 2055.83,682.948 2068.2,682.829 2080.58,682.717 2092.95,682.612 2105.32,682.513 2117.69,682.421 2130.06,682.333 2142.43,682.25 2154.81,682.172 2167.18,682.098 2179.55,682.028 2191.92,681.962 2204.29,681.898 2216.67,681.838 2229.04,681.781 2241.41,681.726 2253.78,681.674 2266.15,681.624 2278.52,681.577 2290.9,681.532 2303.27,681.488 2315.64,681.446 2328.01,681.407 2340.38,681.368 2352.76,681.332 2365.13,681.296 2377.5,681.263 2389.87,681.23 2402.24,681.199 2414.62,681.169 2426.99,681.14 2439.36,681.112 2451.73,681.085 2464.1,681.059 2476.47,681.034 2488.85,681.01 2501.22,680.987 2513.59,680.965 2525.96,680.943 2538.33,680.922 2550.71,680.902 2563.08,680.883 2575.45,680.864 2587.82,680.846 2600.19,680.828 2612.56,680.811 2624.94,680.794 2637.31,680.778 2649.68,680.763 2662.05,680.748 2674.42,680.733 2686.8,680.719 2699.17,680.705 2711.54,680.692 2723.91,680.679 2736.28,680.666 2748.65,680.654 2761.03,680.642 2773.4,680.631 2785.77,680.62 2798.14,680.609 2810.51,680.598 2822.89,680.588 2835.26,680.578 2847.63,680.568 2860,680.559 2872.37,680.55 2884.75,680.541 2897.12,680.532 2909.49,680.523 2921.86,680.515 2934.23,680.507 2946.6,680.499 2958.98,680.492 2971.35,680.484 2983.72,680.477 2996.09,680.47 3008.46,680.463 3020.84,680.456 3033.21,680.45 3045.58,680.443 3057.95,680.437 3070.32,680.431 3082.69,680.425 3095.07,680.419 3107.44,680.413 3119.81,680.408 3132.18,680.402 3144.55,680.397 3156.93,680.392 3169.3,680.387 3181.67,680.382 3194.04,680.377 3206.41,680.372 3218.79,680.368 3231.16,680.363 3243.53,680.359 3255.9,680.354 3268.27,680.35 3280.64,680.346 3293.02,680.342 3305.39,680.338 3317.76,680.334 3330.13,680.33 3342.5,680.327 3354.88,680.323 3367.25,680.319 3379.62,680.316 3391.99,680.312 3404.36,680.309 3416.73,680.306 3429.11,680.303 3441.48,680.299 3453.85,680.296 3466.22,680.293 3478.59,680.29 3490.97,680.287 3503.34,680.285 3515.71,680.282 3528.08,680.279 3540.45,680.276 3552.82,680.274 3565.2,680.271 3577.57,680.268 3589.94,680.266 3602.31,680.264 3614.68,680.261 3627.06,680.259 3639.43,680.256 3651.8,680.254 3664.17,680.252 3676.54,680.25 3688.92,680.248 3701.29,680.245 3713.66,680.243 3726.03,680.241 3738.4,680.239 3750.77,680.237 3763.15,680.235 3775.52,680.233 3787.89,680.232 3800.26,680.23 3812.63,680.228 3825.01,680.226 3837.38,680.224 3849.75,680.223 3862.12,680.221 3874.49,680.219 3886.86,680.218 3899.24,680.216 3911.61,680.214 3923.98,680.213 3936.35,680.211 3948.72,680.21 3961.1,680.208 3973.47,680.207 3985.84,680.205 3998.21,680.204 4010.58,680.203 4022.96,680.201 4035.33,680.2 4047.7,680.198 4060.07,680.197 4072.44,680.196 4084.81,680.195 4097.19,680.193 4109.56,680.192 4121.93,680.191 4134.3,680.19 4146.67,680.188 4159.05,680.187 4171.42,680.186 4183.79,680.185 4196.16,680.184 4208.53,680.183 4220.9,680.182 4233.28,680.181 4245.65,680.179 4258.02,680.178 4270.39,680.177 4282.76,680.176 4295.14,680.175 4307.51,680.174 4319.88,680.173 4332.25,680.172 4344.62,680.171 4357,680.171 4369.37,680.17 4381.74,680.169 4394.11,680.168 4406.48,680.167 4418.85,680.166 4431.23,680.165 4443.6,680.164 4455.97,680.163 4468.34,680.163 4480.71,680.162 4493.09,680.161 4505.46,680.16 4517.83,680.159 4530.2,680.159 4542.57,680.158 4554.94,680.157 4567.32,680.156 4579.69,680.155 4592.06,680.155 4604.43,680.154 4616.8,680.153 4629.18,680.153 4641.55,680.152 4653.92,680.151 4666.29,680.15 4678.66,680.15 4691.03,680.149 4703.41,680.148 4715.78,680.148 4728.15,680.147 4740.52,680.146 4752.89,680.146 4765.27,680.145 4777.64,680.144 4790.01,680.144 4802.38,680.143 4814.75,680.143 4827.13,680.142 4839.5,680.141 4851.87,680.141 4864.24,680.14 4876.61,680.14 4888.98,680.139 4901.36,680.138 4913.73,680.138 4926.1,680.137 4938.47,680.137 4950.84,680.136 4963.22,680.136 4975.59,680.135 4987.96,680.134 5000.33,680.134 5012.7,680.133 5025.07,680.133 5037.45,680.132 5049.82,680.132 5062.19,680.131 5074.56,680.131 5086.93,680.13 5099.31,680.13 5111.68,680.129 5124.05,680.129 5136.42,680.128 5148.79,680.128 5161.17,680.127 5173.54,680.127 5185.91,680.126 5198.28,680.126 5210.65,680.125 5223.02,680.125 5235.4,680.124 5247.77,680.124 5260.14,680.123 5272.51,680.123 5284.88,680.122 5297.26,680.122 5309.63,680.121 5322,680.121 5334.37,680.121 5346.74,680.12 5359.11,680.12 5371.49,680.119 5383.86,680.119 5396.23,680.118 5408.6,680.118 5420.97,680.117 5433.35,680.117 5445.72,680.117 5458.09,680.116 5470.46,680.116 5482.83,680.115 5495.2,680.115 5507.58,680.114 5519.95,680.114 5532.32,680.114 5544.69,680.113 5557.06,680.113 5569.44,680.112 5581.81,680.112 5594.18,680.111 5606.55,680.111 5618.92,680.111 5631.3,680.11 5643.67,680.11 5656.04,680.109 5668.41,680.109 5680.78,680.108 5693.15,680.108 5705.53,680.108 5717.9,680.107 5730.27,680.107 5742.64,680.106 5755.01,680.106 5767.39,680.106 5779.76,680.105 5792.13,680.105 5804.5,680.104 5816.87,680.104 5829.24,680.104 5841.62,680.103 5853.99,680.103 5866.36,680.102 5878.73,680.102 5891.1,680.101 5903.48,680.101 5915.85,680.101 5928.22,680.1 5940.59,680.1 5952.96,680.099 5965.34,680.099 5977.71,680.099 5990.08,680.098 6002.45,680.098 6014.82,680.097 6027.19,680.097 6039.57,680.096 6051.94,680.096 6064.31,680.096 6076.68,680.095 6089.05,680.095 6101.43,680.094 6113.8,680.094 6126.17,680.093 6138.54,680.093 6150.91,680.093 6163.28,680.092 6175.66,680.092 6188.03,680.091 6200.4,680.091 6212.77,680.09 6225.14,680.09 6237.52,680.09 6249.89,680.089 6262.26,680.089 6274.63,680.088 6287,680.088 6299.37,680.087 6311.75,680.087 6324.12,680.086 6336.49,680.086 6348.86,680.085 6361.23,680.085 6373.61,680.084 6385.98,680.084 6398.35,680.084 6410.72,680.083 6423.09,680.083 6435.47,680.082 6447.84,680.082 6460.21,680.081 6472.58,680.081 6484.95,680.08 6497.32,680.08 6509.7,680.079 6522.07,680.079 6534.44,680.078 6546.81,680.078 6559.18,680.077 6571.56,680.077 6583.93,680.076 6596.3,680.075 6608.67,680.075 6621.04,680.074 6633.41,680.074 6645.79,680.073 6658.16,680.073 6670.53,680.072 6682.9,680.072 6695.27,680.071 6707.65,680.07 6720.02,680.07 6732.39,680.069 6744.76,680.069 6757.13,680.068 6769.51,680.068 6781.88,680.067 6794.25,680.066 6806.62,680.066 6818.99,680.065 6831.36,680.064 6843.74,680.064 6856.11,680.063 6868.48,680.063 6880.85,680.062 6893.22,680.061 6905.6,680.061 6917.97,680.06 6930.34,680.059 6942.71,680.059 6955.08,680.058 6967.45,680.057 6979.83,680.056 6992.2,680.056 7004.57,680.055 7016.94,680.054 7029.31,680.054 7041.69,680.053 7054.06,680.052 7066.43,680.051 7078.8,680.05 7091.17,680.05 7103.54,680.049 7115.92,680.048 7128.29,680.047 7140.66,680.046 7153.03,680.046 7165.4,680.045 7177.78,680.044 7190.15,680.043 7202.52,680.042 7214.89,680.041 7227.26,680.04 7239.64,680.039 7252.01,680.039 7264.38,680.038 7276.75,680.037 7289.12,680.036 7301.49,680.035 7313.87,680.034 7326.24,680.033 7338.61,680.032 7350.98,680.031 7363.35,680.03 7375.73,680.029 7388.1,680.028 7400.47,680.027 7412.84,680.025 7425.21,680.024 7437.58,680.023 7449.96,680.022 7462.33,680.021 7474.7,680.02 7487.07,680.019 7499.44,680.017 7511.82,680.016 7524.19,680.015 7536.56,680.014 7548.93,680.012 7561.3,680.011 7573.68,680.01 7586.05,680.008 7598.42,680.007 7610.79,680.006 7623.16,680.004 7635.53,680.003 7647.91,680.001 7660.28,680 7672.65,679.998 7685.02,679.997 7697.39,679.995 7709.77,679.994 7722.14,679.992 7734.51,679.991 7746.88,679.989 7759.25,679.987 7771.62,679.986 7784,679.984 7796.37,679.982 7808.74,679.98 7821.11,679.978 7833.48,679.977 7845.86,679.975 7858.23,679.973 7870.6,679.971 7882.97,679.969 7895.34,679.967 7907.71,679.965 7920.09,679.963 7932.46,679.961 7944.83,679.958 7957.2,679.956 7969.57,679.954 7981.95,679.952 7994.32,679.949 8006.69,679.947 8019.06,679.945 8031.43,679.942 8043.81,679.94 8056.18,679.937 8068.55,679.935 8080.92,679.932 8093.29,679.929 8105.66,679.926 8118.04,679.924 8130.41,679.921 8142.78,679.918 8155.15,679.915 8167.52,679.912 8179.9,679.909 8192.27,679.906 8204.64,679.903 8217.01,679.899 8229.38,679.896 8241.75,679.893 8254.13,679.889 8266.5,679.885 8278.87,679.882 8291.24,679.878 8303.61,679.874 8315.99,679.871 8328.36,679.867 8340.73,679.863 8353.1,679.858 8365.47,679.854 8377.85,679.85 8390.22,679.846 8402.59,679.841 8414.96,679.837 8427.33,679.832 8439.7,679.827 8452.08,679.822 8464.45,679.817 8476.82,679.812 8489.19,679.807 8501.56,679.801 8513.94,679.796 8526.31,679.79 8538.68,679.785 8551.05,679.779 8563.42,679.773 8575.79,679.766 8588.17,679.76 8600.54,679.754 8612.91,679.747 8625.28,679.74 8637.65,679.733 8650.03,679.726 8662.4,679.719 8674.77,679.711 8687.14,679.704 8699.51,679.696 8711.88,679.688 8724.26,679.679 8736.63,679.671 8749,679.662 8761.37,679.653 8773.74,679.644 8786.12,679.634 8798.49,679.625 8810.86,679.614 8823.23,679.604 8835.6,679.594 8847.98,679.583 8860.35,679.572 8872.72,679.56 8885.09,679.548 8897.46,679.536 8909.83,679.524 8922.21,679.511 8934.58,679.498 8946.95,679.484 8959.32,679.47 8971.69,679.455 8984.07,679.44 8996.44,679.425 9008.81,679.409 9021.18,679.393 9033.55,679.376 9045.92,679.359 9058.3,679.341 9070.67,679.322 9083.04,679.303 9095.41,679.283 9107.78,679.263 9120.16,679.242 9132.53,679.22 9144.9,679.197 9157.27,679.174 9169.64,679.15 9182.02,679.125 9194.39,679.099 9206.76,679.073 9219.13,679.045 9231.5,679.016 9243.87,678.987 9256.25,678.956 9268.62,678.924 9280.99,678.891 9293.36,678.856 9305.73,678.821 9318.11,678.783 9330.48,678.745 9342.85,678.705 9355.22,678.663 9367.59,678.62 9379.96,678.575 9392.34,678.528 9404.71,678.479 9417.08,678.428 9429.45,678.375 9441.82,678.32 9454.2,678.262 9466.57,678.202 9478.94,678.139 9491.31,678.073 9503.68,678.004 9516.05,677.932 9528.43,677.857 9540.8,677.778 9553.17,677.696 9565.54,677.609 9577.91,677.518 9590.29,677.423 9602.66,677.323 9615.03,677.218 9627.4,677.107 9639.77,676.991 9652.15,676.869 9664.52,676.74 9676.89,676.604 9689.26,676.46 9701.63,676.309 9714,676.148 9726.38,675.979 9738.75,675.8 9751.12,675.61 9763.49,675.408 9775.86,675.194 9788.24,674.967 9800.61,674.725 9812.98,674.468 9825.35,674.194 9837.72,673.902 9850.09,673.589 9862.47,673.255 9874.84,672.898 9887.21,672.515 9899.58,672.103 9911.95,671.661 9924.33,671.185 9936.7,670.672 9949.07,670.119 9961.44,669.52 9973.81,668.872 9986.19,668.169 9998.56,667.404 10010.9,666.572 10023.3,665.663 10035.7,664.67 10048,663.582 10060.4,662.388 10072.8,661.072 10085.2,659.62 10097.5,658.014 10109.9,656.231 10122.3,654.248 10134.6,652.033 10147,649.552 10159.4,646.764 10171.8,643.62 10184.1,640.059 10196.5,636.01 10208.9,631.386 10221.3,626.083 10233.6,619.971 10246,612.891 10258.4,604.649 10270.7,595.002 10283.1,583.649 10295.5,570.218 10307.9,554.248 10320.2,535.172 10332.6,512.308 10345,484.857 10357.3,451.944 10369.7,412.721 10382.1,366.605 10394.5,313.735 10406.8,255.691 10419.2,196.374 10431.6,142.548 10443.9,103.081 10456.3,86.1857 10468.7,95.644 10481.1,128.824 10493.4,178.247 10505.8,235.232 10518.2,292.805 10530.5,346.687 10542.9,394.924 10555.3,437.078 10567.7,473.528 10580,505.001 10592.4,532.322 10604.8,556.286 10617.1,577.62 10629.5,596.968 10641.9,614.91 10654.3,631.977 10666.6,648.677 10679,665.522 10691.4,683.061 10703.8,701.911 10716.1,722.808 10728.5,746.655 10740.9,774.599 10753.2,808.1 10765.6,849.005 10778,899.549 10790.4,962.142 10802.7,1038.64 10815.1,1128.52 10827.5,1225.68 10839.8,1314.85 10852.2,1372.98 10864.6,1380.71 10877,1337.08 10889.3,1259.99 10901.7,1171.98 10914.1,1088.66 10926.4,1016.91 10938.8,957.974 10951.2,910.582 10963.6,872.728 10975.9,842.458 10988.3,818.121 11000.7,798.409 11013,782.311 11025.4,769.051 11037.8,758.038 11050.2,748.82 11062.5,741.045 11074.9,734.442 11087.3,728.8 11099.7,723.95 11112,719.759 11124.4,716.121 11136.8,712.951 11149.1,710.179 11161.5,707.749 11173.9,705.615 11186.3,703.74 11198.6,702.095 11211,700.656 11223.4,699.404 11235.7,698.327 11248.1,697.416 11260.5,696.669 11272.9,696.089 11285.2,695.687 11297.6,695.483 11310,695.508 11322.3,695.809 11334.7,696.455 11347.1,697.536 11359.5,699.16 11371.8,701.426 11384.2,704.338 11396.6,707.626 11408.9,710.552 11421.3,712.012 11433.7,711.258 11446.1,708.588 11458.4,705.011 11470.8,701.425 11483.2,698.281 11495.6,695.689 11507.9,693.601 11520.3,691.926 11532.7,690.575 11545,689.473 11557.4,688.563 11569.8,687.803 11582.2,687.159 11594.5,686.608 11606.9,686.131 11619.3,685.714 11631.6,685.346 11644,685.02 11656.4,684.728 11668.8,684.465 11681.1,684.227 11693.5,684.011 11705.9,683.813 11718.2,683.631 11730.6,683.464 11743,683.309 11755.4,683.165 11767.7,683.032 11780.1,682.907 11792.5,682.791 11804.8,682.682 11817.2,682.579 11829.6,682.483 11842,682.393 11854.3,682.307 11866.7,682.226 11879.1,682.15 11891.4,682.077 11903.8,682.009 11916.2,681.944 11928.6,681.882 11940.9,681.823 11953.3,681.766 11965.7,681.713 11978.1,681.662 11990.4,681.613 12002.8,681.566 12015.2,681.522 12027.5,681.479 12039.9,681.438 12052.3,681.399 12064.7,681.361 12077,681.325 12089.4,681.291 12101.8,681.257 12114.1,681.225 12126.5,681.195 12138.9,681.165 12151.3,681.137 12163.6,681.109 12176,681.083 12188.4,681.057 12200.7,681.033 12213.1,681.009 12225.5,680.986 12237.9,680.964 12250.2,680.943 12262.6,680.922 12275,680.902 12287.3,680.883 12299.7,680.864 12312.1,680.846 12324.5,680.829 12336.8,680.812 12349.2,680.796 12361.6,680.78 12374,680.765 12386.3,680.75 12398.7,680.735 12411.1,680.721 12423.4,680.708 12435.8,680.695 12448.2,680.682 12460.6,680.67 12472.9,680.658 12485.3,680.646 12497.7,680.635 12510,680.624 12522.4,680.613 12534.8,680.602 12547.2,680.592 12559.5,680.582 12571.9,680.573 12584.3,680.564 12596.6,680.554 12609,680.546 12621.4,680.537 12633.8,680.529 12646.1,680.521 12658.5,680.513 12670.9,680.505 12683.2,680.497 12695.6,680.49 12708,680.483 12720.4,680.476 12732.7,680.469 12745.1,680.462 12757.5,680.456 12769.9,680.45 12782.2,680.443 12794.6,680.437 12807,680.431 12819.3,680.426 12831.7,680.42 12844.1,680.415 12856.5,680.409 12868.8,680.404 12881.2,680.399 12893.6,680.394 12905.9,680.389 12918.3,680.384 12930.7,680.38 12943.1,680.375 12955.4,680.371 12967.8,680.366 12980.2,680.362 12992.5,680.358 13004.9,680.354 13017.3,680.35 13029.7,680.346 13042,680.342 13054.4,680.338 13066.8,680.335 13079.1,680.331 13091.5,680.328 13103.9,680.324 13116.3,680.321 13128.6,680.318 13141,680.314 13153.4,680.311 13165.7,680.308 13178.1,680.305 13190.5,680.302 13202.9,680.299 13215.2,680.296 13227.6,680.294 13240,680.291 13252.4,680.288 13264.7,680.285 13277.1,680.283 13289.5,680.28 13301.8,680.278 13314.2,680.275 13326.6,680.273 13339,680.271 13351.3,680.268 13363.7,680.266 13376.1,680.264 13388.4,680.262 13400.8,680.26 13413.2,680.257 13425.6,680.255 13437.9,680.253 13450.3,680.251 13462.7,680.249 13475,680.247 13487.4,680.246 13499.8,680.244 13512.2,680.242 13524.5,680.24 13536.9,680.238 13549.3,680.237 13561.6,680.235 13574,680.233 13586.4,680.232 13598.8,680.23 13611.1,680.228 13623.5,680.227 13635.9,680.225 13648.3,680.224 13660.6,680.222 13673,680.221 13685.4,680.219 13697.7,680.218 13710.1,680.217 13722.5,680.215 13734.9,680.214 13747.2,680.213 13759.6,680.211 13772,680.21 13784.3,680.209 13796.7,680.208 13809.1,680.206 13821.5,680.205 13833.8,680.204 13846.2,680.203 13858.6,680.202 13870.9,680.201 13883.3,680.199 13895.7,680.198 13908.1,680.197 13920.4,680.196 13932.8,680.195 13945.2,680.194 13957.5,680.193 13969.9,680.192 13982.3,680.191 13994.7,680.19 14007,680.189 14019.4,680.188 14031.8,680.187 14044.2,680.187 14056.5,680.186 14068.9,680.185 14081.3,680.184 14093.6,680.183 14106,680.182 14118.4,680.181 14130.8,680.181 14143.1,680.18 14155.5,680.179 14167.9,680.178 14180.2,680.177 14192.6,680.177 14205,680.176 14217.4,680.175 14229.7,680.174 14242.1,680.174 14254.5,680.173 14266.8,680.172 14279.2,680.172 14291.6,680.171 14304,680.17 14316.3,680.17 14328.7,680.169 14341.1,680.168 14353.4,680.168 14365.8,680.167 14378.2,680.166 14390.6,680.166 14402.9,680.165 14415.3,680.165 14427.7,680.164 14440,680.163 14452.4,680.163 14464.8,680.162 14477.2,680.162 14489.5,680.161 14501.9,680.161 14514.3,680.16 14526.7,680.16 14539,680.159 14551.4,680.158 14563.8,680.158 14576.1,680.157 14588.5,680.157 14600.9,680.156 14613.3,680.156 14625.6,680.156 14638,680.155 14650.4,680.155 14662.7,680.154 14675.1,680.154 14687.5,680.153 14699.9,680.153 14712.2,680.152 14724.6,680.152 14737,680.151 14749.3,680.151 14761.7,680.151 14774.1,680.15 14786.5,680.15 14798.8,680.149 14811.2,680.149 14823.6,680.149 14835.9,680.148 14848.3,680.148 14860.7,680.147 14873.1,680.147 14885.4,680.147 14897.8,680.146 14910.2,680.146 14922.6,680.146 14934.9,680.145 14947.3,680.145 14959.7,680.145 14972,680.144 14984.4,680.144 14996.8,680.144 15009.2,680.143 15021.5,680.143 15033.9,680.143 15046.3,680.142 15058.6,680.142 15071,680.142 15083.4,680.141 15095.8,680.141 15108.1,680.141 15120.5,680.14 15132.9,680.14 15145.2,680.14 15157.6,680.14 15170,680.139 15182.4,680.139 15194.7,680.139 15207.1,680.138 15219.5,680.138 15231.8,680.138 15244.2,680.138 15256.6,680.137 15269,680.137 15281.3,680.137 15293.7,680.137 15306.1,680.136 15318.5,680.136 15330.8,680.136 15343.2,680.136 15355.6,680.135 15367.9,680.135 15380.3,680.135 15392.7,680.135 15405.1,680.134 15417.4,680.134 15429.8,680.134 15442.2,680.134 15454.5,680.133 15466.9,680.133 15479.3,680.133 15491.7,680.133 15504,680.133 15516.4,680.132 15528.8,680.132 15541.1,680.132 15553.5,680.132 15565.9,680.132 15578.3,680.131 15590.6,680.131 15603,680.131 15615.4,680.131 15627.7,680.131 15640.1,680.13 15652.5,680.13 15664.9,680.13 15677.2,680.13 15689.6,680.13 15702,680.129 15714.3,680.129 15726.7,680.129 15739.1,680.129 15751.5,680.129 15763.8,680.129 15776.2,680.128 15788.6,680.128 15801,680.128 15813.3,680.128 15825.7,680.128 15838.1,680.128 15850.4,680.127 15862.8,680.127 15875.2,680.127 15887.6,680.127 15899.9,680.127 15912.3,680.127 15924.7,680.126 15937,680.126 15949.4,680.126 15961.8,680.126 15974.2,680.126 15986.5,680.126 15998.9,680.126 16011.3,680.125 16023.6,680.125 16036,680.125 16048.4,680.125 16060.8,680.125 16073.1,680.125 16085.5,680.125 16097.9,680.124 16110.2,680.124 16122.6,680.124 16135,680.124 16147.4,680.124 16159.7,680.124 16172.1,680.124 16184.5,680.124 16196.9,680.123 16209.2,680.123 16221.6,680.123 16234,680.123 16246.3,680.123 16258.7,680.123 16271.1,680.123 16283.5,680.123 16295.8,680.122 16308.2,680.122 16320.6,680.122 16332.9,680.122 16345.3,680.122 16357.7,680.122 16370.1,680.122 16382.4,680.122 16394.8,680.122 16407.2,680.121 16419.5,680.121 16431.9,680.121 16444.3,680.121 16456.7,680.121 16469,680.121 16481.4,680.121 16493.8,680.121 16506.1,680.121 16518.5,680.12 16530.9,680.12 16543.3,680.12 16555.6,680.12 16568,680.12 16580.4,680.12 16592.8,680.12 16605.1,680.12 16617.5,680.12 16629.9,680.12 16642.2,680.12 16654.6,680.119 16667,680.119 16679.4,680.119 16691.7,680.119 16704.1,680.119 16716.5,680.119 16728.8,680.119 16741.2,680.119 16753.6,680.119 16766,680.119 16778.3,680.119 16790.7,680.118 16803.1,680.118 16815.4,680.118 16827.8,680.118 16840.2,680.118 16852.6,680.118 16864.9,680.118 16877.3,680.118 16889.7,680.118 16902,680.118 16914.4,680.118 16926.8,680.118 16939.2,680.118 16951.5,680.117 16963.9,680.117 16976.3,680.117 16988.7,680.117 17001,680.117 17013.4,680.117 17025.8,680.117 17038.1,680.117 17050.5,680.117 17062.9,680.117 17075.3,680.117 17087.6,680.117 17100,680.117 17112.4,680.117 17124.7,680.116 17137.1,680.116 17149.5,680.116 17161.9,680.116 17174.2,680.116 17186.6,680.116 17199,680.116 17211.3,680.116 17223.7,680.116 17236.1,680.116 17248.5,680.116 17260.8,680.116 17273.2,680.116 17285.6,680.116 17297.9,680.116 17310.3,680.115 17322.7,680.115 17335.1,680.115 17347.4,680.115 17359.8,680.115 17372.2,680.115 17384.5,680.115 17396.9,680.115 17409.3,680.115 17421.7,680.115 17434,680.115 17446.4,680.115 17458.8,680.115 17471.2,680.115 17483.5,680.115 17495.9,680.115 17508.3,680.115 17520.6,680.115 17533,680.114 17545.4,680.114 17557.8,680.114 17570.1,680.114 17582.5,680.114 17594.9,680.114 17607.2,680.114 17619.6,680.114 17632,680.114 17644.4,680.114 17656.7,680.114 17669.1,680.114 17681.5,680.114 17693.8,680.114 17706.2,680.114 17718.6,680.114 17731,680.114 17743.3,680.114 17755.7,680.114 17768.1,680.114 17780.4,680.113 17792.8,680.113 17805.2,680.113 17817.6,680.113 17829.9,680.113 17842.3,680.113 17854.7,680.113 17867.1,680.113 17879.4,680.113 17891.8,680.113 17904.2,680.113 17916.5,680.113 17928.9,680.113 17941.3,680.113 17953.7,680.113 17966,680.113 17978.4,680.113 17990.8,680.113 18003.1,680.113 18015.5,680.113 18027.9,680.113 18040.3,680.113 18052.6,680.113 18065,680.112 18077.4,680.112 18089.7,680.112 18102.1,680.112 18114.5,680.112 18126.9,680.112 18139.2,680.112 18151.6,680.112 18164,680.112 18176.3,680.112 18188.7,680.112 18201.1,680.112 18213.5,680.112 18225.8,680.112 18238.2,680.112 18250.6,680.112 18263,680.112 18275.3,680.112 18287.7,680.112 18300.1,680.112 18312.4,680.112 18324.8,680.112 18337.2,680.112 18349.6,680.112 18361.9,680.112 18374.3,680.112 18386.7,680.112 18399,680.112 18411.4,680.111 18423.8,680.111 18436.2,680.111 18448.5,680.111 18460.9,680.111 18473.3,680.111 18485.6,680.111 18498,680.111 18510.4,680.111 18522.8,680.111 18535.1,680.111 18547.5,680.111 18559.9,680.111 18572.2,680.111 18584.6,680.111 18597,680.111 18609.4,680.111 18621.7,680.111 18634.1,680.111 18646.5,680.111 18658.8,680.111 18671.2,680.111 18683.6,680.111 18696,680.111 18708.3,680.111 18720.7,680.111 18733.1,680.111 18745.5,680.111 18757.8,680.111 18770.2,680.111 18782.6,680.111 18794.9,680.111 18807.3,680.111 18819.7,680.11 18832.1,680.11 18844.4,680.11 18856.8,680.11 18869.2,680.11 18881.5,680.11 18893.9,680.11 18906.3,680.11 18918.7,680.11 18931,680.11 18943.4,680.11 18955.8,680.11 18968.1,680.11 18980.5,680.11 18992.9,680.11 19005.3,680.11 19017.6,680.11 19030,680.11 19042.4,680.11 19054.7,680.11 19067.1,680.11 19079.5,680.11 19091.9,680.11 19104.2,680.11 19116.6,680.11 19129,680.11 19141.4,680.11 19153.7,680.11 19166.1,680.11 19178.5,680.11 19190.8,680.11 19203.2,680.11 19215.6,680.11 19228,680.11 19240.3,680.11 19252.7,680.11 19265.1,680.11 19277.4,680.11 19289.8,680.11 19302.2,680.11 19314.6,680.11 19326.9,680.11 19339.3,680.109 19351.7,680.109 19364,680.109 19376.4,680.109 19388.8,680.109 19401.2,680.109 19413.5,680.109 19425.9,680.109 19438.3,680.109 19450.6,680.109 19463,680.109 19475.4,680.109 19487.8,680.109 19500.1,680.109 19512.5,680.109 19524.9,680.109 19537.3,680.109 19549.6,680.109 19562,680.109 19574.4,680.109 19586.7,680.109 19599.1,680.109 19611.5,680.109 19623.9,680.109 19636.2,680.109 19648.6,680.109 19661,680.109 19673.3,680.109 19685.7,680.109 19698.1,680.109 19710.5,680.109 19722.8,680.109 19735.2,680.109 19747.6,680.109 19759.9,680.109 19772.3,680.109 19784.7,680.109 19797.1,680.109 19809.4,680.109 19821.8,680.109 19834.2,680.109 19846.5,680.109 19858.9,680.109 19871.3,680.109 19883.7,680.109 19896,680.109 19908.4,680.109 19920.8,680.109 19933.1,680.109 19945.5,680.109 19957.9,680.109 19970.3,680.109 19982.6,680.109 19995,680.109 20007.4,680.108 20019.8,680.108 20032.1,680.108 20044.5,680.108 20056.9,680.108 20069.2,680.108 20081.6,680.108 20094,680.108 20106.4,680.108 20118.7,680.108 20131.1,680.108 20143.5,680.108 20155.8,680.108 20168.2,680.108 20180.6,680.108 20193,680.108 20205.3,680.108 20217.7,680.108 20230.1,680.108 20242.4,680.108 20254.8,680.108 20267.2,680.108 20279.6,680.108 20291.9,680.108 20304.3,680.108 20316.7,680.108 20329,680.108 20341.4,680.108 20353.8,680.108 20366.2,680.108 20378.5,680.108 20390.9,680.108 20403.3,680.108 20415.7,680.108 20428,680.108 20440.4,680.108 20452.8,680.108 20465.1,680.108 20477.5,680.108 20489.9,680.108 20502.3,680.108 20514.6,680.108 20527,680.108 20539.4,680.108 20551.7,680.108 20564.1,680.108 20576.5,680.108 20588.9,680.108 20601.2,680.108 20613.6,680.108 20626,680.108 20638.3,680.108 20650.7,680.108 20663.1,680.108 20675.5,680.108 20687.8,680.108 20700.2,680.108 20712.6,680.108 20724.9,680.108 20737.3,680.108 20749.7,680.108 20762.1,680.108 20774.4,680.108 20786.8,680.108 20799.2,680.108 20811.6,680.108 20823.9,680.108 20836.3,680.108 20848.7,680.108 20861,680.108 20873.4,680.108 20885.8,680.108 20898.2,680.108 20910.5,680.108 20922.9,680.108 20935.3,680.107 20947.6,680.107 20960,680.107 20972.4,680.107 20984.8,680.107 20997.1,680.107 21009.5,680.107 21021.9,680.107 21034.2,680.107 21046.6,680.107 21059,680.107 21071.4,680.107 21083.7,680.107 21096.1,680.107 21108.5,680.107 21120.8,680.107 21133.2,680.107 21145.6,680.107 21158,680.107 21170.3,680.107 21182.7,680.107 21195.1,680.107 21207.4,680.107 21219.8,680.107 21232.2,680.107 21244.6,680.107 21256.9,680.107 21269.3,680.107 21281.7,680.107 21294.1,680.107 21306.4,680.107 21318.8,680.107 21331.2,680.107 21343.5,680.107 21355.9,680.107 21368.3,680.107 21380.7,680.107 21393,680.107 21405.4,680.107 21417.8,680.107 21430.1,680.107 21442.5,680.107 21454.9,680.107 21467.3,680.107 21479.6,680.107 21492,680.107 21504.4,680.107 21516.7,680.107 21529.1,680.107 21541.5,680.107 21553.9,680.107 21566.2,680.107 21578.6,680.107 21591,680.107 21603.3,680.107 21615.7,680.107 21628.1,680.107 21640.5,680.107 21652.8,680.107 21665.2,680.107 21677.6,680.107 21690,680.107 21702.3,680.107 21714.7,680.107 21727.1,680.107 21739.4,680.107 21751.8,680.107 21764.2,680.107 21776.6,680.107 21788.9,680.107 21801.3,680.107 21813.7,680.107 21826,680.107 21838.4,680.107 21850.8,680.107 21863.2,680.107 21875.5,680.107 21887.9,680.107 21900.3,680.107 21912.6,680.107 21925,680.107 21937.4,680.107 21949.8,680.107 21962.1,680.107 21974.5,680.107 21986.9,680.107 21999.2,680.107 22011.6,680.107 22024,680.107 22036.4,680.107 22048.7,680.107 22061.1,680.107 22073.5,680.107 22085.9,680.107 22098.2,680.107 22110.6,680.107 22123,680.107 22135.3,680.107 22147.7,680.107 22160.1,680.107 22172.5,680.107 22184.8,680.107 22197.2,680.107 22209.6,680.107 22221.9,680.107 22234.3,680.107 22246.7,680.107 22259.1,680.107 22271.4,680.107 22283.8,680.107 22296.2,680.107 22308.5,680.107 22320.9,680.107 22333.3,680.107 22345.7,680.107 22358,680.107 22370.4,680.107 22382.8,680.106 22395.1,680.106 22407.5,680.106 22419.9,680.106 22432.3,680.106 22444.6,680.106 22457,680.106 22469.4,680.106 22481.7,680.106 22494.1,680.106 22506.5,680.106 22518.9,680.106 22531.2,680.106 22543.6,680.106 22556,680.106 22568.4,680.106 22580.7,680.106 22593.1,680.106 22605.5,680.106 22617.8,680.106 22630.2,680.106 22642.6,680.106 22655,680.106 22667.3,680.106 22679.7,680.106 22692.1,680.106 22704.4,680.106 22716.8,680.106 22729.2,680.106 22741.6,680.106 22753.9,680.106 22766.3,680.106 22778.7,680.106 22791,680.106 22803.4,680.106 22815.8,680.106 22828.2,680.106 22840.5,680.106 22852.9,680.106 22865.3,680.106 22877.6,680.106 22890,680.106 22902.4,680.106 22914.8,680.106 22927.1,680.106 22939.5,680.106 22951.9,680.106 22964.3,680.106 22976.6,680.106 22989,680.106 23001.4,680.106 23013.7,680.106 23026.1,680.106 23038.5,680.106 23050.9,680.106 23063.2,680.106 23075.6,680.106 23088,680.106 23100.3,680.106 23112.7,680.106 23125.1,680.106 23137.5,680.106 23149.8,680.106 23162.2,680.106 23174.6,680.106 23186.9,680.106 23199.3,680.106 23211.7,680.106 23224.1,680.106 23236.4,680.106 23248.8,680.106 23261.2,680.106 23273.5,680.106 23285.9,680.106 23298.3,680.106 23310.7,680.106 23323,680.106 23335.4,680.106 23347.8,680.106 23360.2,680.106 23372.5,680.106 23384.9,680.106 23397.3,680.106 23409.6,680.106 23422,680.106 23434.4,680.106 23446.8,680.106 23459.1,680.106 23471.5,680.106 23483.9,680.106 23496.2,680.106 23508.6,680.106 23521,680.106 23533.4,680.106 23545.7,680.106 23558.1,680.106 23570.5,680.106 23582.8,680.106 23595.2,680.106 23607.6,680.106 23620,680.106 23632.3,680.106 23644.7,680.106 23657.1,680.106 23669.4,680.106 23681.8,680.106 23694.2,680.106 23706.6,680.106 23718.9,680.106 23731.3,680.106 23743.7,680.106 23756.1,680.106 23768.4,680.106 23780.8,680.106 23793.2,680.106 23805.5,680.106 23817.9,680.106 23830.3,680.106 23842.7,680.106 23855,680.106 23867.4,680.106 23879.8,680.106 23892.1,680.106 23904.5,680.106 23916.9,680.106 23929.3,680.106 23941.6,680.106 23954,680.106 23966.4,680.106 23978.7,680.106 23991.1,680.106 24003.5,680.106 24015.9,680.106 24028.2,680.106 24040.6,680.106 24053,680.106 24065.3,680.106 24077.7,680.106 24090.1,680.106 24102.5,680.106 24114.8,680.106 24127.2,680.106 24139.6,680.106 24151.9,680.106 24164.3,680.106 24176.7,680.106 24189.1,680.106 24201.4,680.106 24213.8,680.106 24226.2,680.106 24238.6,680.106 24250.9,680.106 24263.3,680.106 24275.7,680.106 24288,680.106 24300.4,680.106 24312.8,680.106 24325.2,680.106 24337.5,680.106 24349.9,680.106 24362.3,680.106 24374.6,680.106 24387,680.106 24399.4,680.106 24411.8,680.106 24424.1,680.106 24436.5,680.106 24448.9,680.106 24461.2,680.106 24473.6,680.106 24486,680.106 24498.4,680.106 24510.7,680.106 24523.1,680.106 24535.5,680.106 24547.8,680.106 24560.2,680.106 24572.6,680.106 24585,680.106 24597.3,680.106 24609.7,680.106 24622.1,680.106 24634.5,680.106 24646.8,680.106 24659.2,680.106 24671.6,680.106 24683.9,680.106 24696.3,680.106 24708.7,680.106 24721.1,680.106 24733.4,680.106 24745.8,680.106 24758.2,680.106 24770.5,680.106 24782.9,680.106 24795.3,680.106 24807.7,680.106 24820,680.106 24832.4,680.106 24844.8,680.106 24857.1,680.106 24869.5,680.106 24881.9,680.106 24894.3,680.106 24906.6,680.106 24919,680.106 24931.4,680.106 24943.7,680.106 24956.1,680.106 24968.5,680.106 24980.9,680.106 24993.2,680.106 25005.6,680.106 25018,680.106 25030.4,680.106 25042.7,680.106 25055.1,680.106 25067.5,680.106 25079.8,680.106 25092.2,680.106 25104.6,680.106 25117,680.106 25129.3,680.106 25141.7,680.106 25154.1,680.105 25166.4,680.105 25178.8,680.105 25191.2,680.105 25203.6,680.105 25215.9,680.105 25228.3,680.105 25240.7,680.105 25253,680.105 25265.4,680.105 25277.8,680.105 25290.2,680.105 25302.5,680.105 25314.9,680.105 25327.3,680.105 25339.6,680.105 25352,680.105 25364.4,680.105 25376.8,680.105 25389.1,680.105 25401.5,680.105 25413.9,680.105 25426.2,680.105 25438.6,680.105 25451,680.105 25463.4,680.105 25475.7,680.105 25488.1,680.105 25500.5,680.105 25512.9,680.105 25525.2,680.105 25537.6,680.105 25550,680.105 25562.3,680.105 25574.7,680.105 25587.1,680.105 25599.5,680.105 25611.8,680.105 25624.2,680.105 25636.6,680.105 25648.9,680.105 25661.3,680.105 25673.7,680.105 25686.1,680.105 25698.4,680.105 25710.8,680.105 25723.2,680.105 25735.5,680.105 25747.9,680.105 25760.3,680.105 25772.7,680.105 25785,680.105 25797.4,680.105 25809.8,680.105 25822.1,680.105 25834.5,680.105 25846.9,680.105 25859.3,680.105 25871.6,680.105 25884,680.105 25896.4,680.105 25908.8,680.105 25921.1,680.105 25933.5,680.105 25945.9,680.105 25958.2,680.105 25970.6,680.105 25983,680.105 25995.4,680.105 26007.7,680.105 26020.1,680.105 26032.5,680.105 26044.8,680.105 26057.2,680.105 26069.6,680.105 26082,680.105 26094.3,680.105 26106.7,680.105 26119.1,680.105 26131.4,680.105 26143.8,680.105 26156.2,680.105 26168.6,680.105 26180.9,680.105 26193.3,680.105 26205.7,680.105 26218,680.105 26230.4,680.105 26242.8,680.105 26255.2,680.105 26267.5,680.105 26279.9,680.105 26292.3,680.105 26304.7,680.105 26317,680.105 26329.4,680.105 26341.8,680.105 26354.1,680.105 26366.5,680.105 26378.9,680.105 26391.3,680.105 26403.6,680.105 26416,680.105 26428.4,680.105 26440.7,680.105 26453.1,680.105 26465.5,680.105 26477.9,680.105 26490.2,680.105 26502.6,680.105 26515,680.105 26527.3,680.105 26539.7,680.105 26552.1,680.105 26564.5,680.105 26576.8,680.105 26589.2,680.105 26601.6,680.105 26613.9,680.105 26626.3,680.105 26638.7,680.105 26651.1,680.105 26663.4,680.105 26675.8,680.105 26688.2,680.105 26700.5,680.105 26712.9,680.105 26725.3,680.105 26737.7,680.105 26750,680.105 26762.4,680.105 26774.8,680.105 26787.2,680.105 26799.5,680.105 26811.9,680.105 26824.3,680.105 26836.6,680.105 26849,680.105 26861.4,680.105 26873.8,680.105 26886.1,680.105 26898.5,680.105 26910.9,680.105 26923.2,680.105 26935.6,680.105 26948,680.105 26960.4,680.105 26972.7,680.105 26985.1,680.105 26997.5,680.105 27009.8,680.105 27022.2,680.105 27034.6,680.105 27047,680.105 27059.3,680.105 27071.7,680.105 27084.1,680.105 27096.4,680.105 27108.8,680.105 27121.2,680.105 27133.6,680.105 27145.9,680.105 27158.3,680.105 27170.7,680.105 27183.1,680.105 27195.4,680.105 27207.8,680.105 27220.2,680.105 27232.5,680.105 27244.9,680.105 27257.3,680.105 27269.7,680.105 27282,680.105 27294.4,680.105 27306.8,680.105 27319.1,680.105 27331.5,680.105 27343.9,680.105 27356.3,680.105 27368.6,680.105 27381,680.105 27393.4,680.105 27405.7,680.105 27418.1,680.105 27430.5,680.105 27442.9,680.105 27455.2,680.105 27467.6,680.105 27480,680.105 27492.3,680.105 27504.7,680.105 27517.1,680.105 27529.5,680.105 27541.8,680.105 27554.2,680.105 27566.6,680.105 27579,680.105 27591.3,680.105 27603.7,680.105 27616.1,680.105 27628.4,680.105 27640.8,680.105 27653.2,680.105 27665.6,680.105 27677.9,680.105 27690.3,680.105 27702.7,680.105 27715,680.105 27727.4,680.105 27739.8,680.105 27752.2,680.105 27764.5,680.105 27776.9,680.105 27789.3,680.105 27801.6,680.105 27814,680.105 27826.4,680.105 27838.8,680.105 27851.1,680.105 27863.5,680.105 27875.9,680.105 27888.2,680.105 27900.6,680.105 27913,680.105 27925.4,680.105 27937.7,680.105 27950.1,680.105 27962.5,680.105 27974.8,680.105 27987.2,680.105 27999.6,680.105 28012,680.105 28024.3,680.105 28036.7,680.105 28049.1,680.105 28061.5,680.105 28073.8,680.105 28086.2,680.105 28098.6,680.105 28110.9,680.105 28123.3,680.105 28135.7,680.105 28148.1,680.105 28160.4,680.105 28172.8,680.105 28185.2,680.105 28197.5,680.105 28209.9,680.105 28222.3,680.105 28234.7,680.105 28247,680.105 28259.4,680.105 28271.8,680.105 28284.1,680.105 28296.5,680.105 28308.9,680.105 28321.3,680.105 28333.6,680.105 28346,680.105 28358.4,680.105 28370.7,680.105 28383.1,680.105 28395.5,680.105 28407.9,680.105 28420.2,680.105 28432.6,680.105 28445,680.105 28457.4,680.105 28469.7,680.105 28482.1,680.105 28494.5,680.105 28506.8,680.105 28519.2,680.105 28531.6,680.105 28544,680.105 28556.3,680.105 28568.7,680.105 28581.1,680.105 28593.4,680.105 28605.8,680.105 28618.2,680.105 28630.6,680.105 28642.9,680.105 28655.3,680.105 28667.7,680.105 28680,680.105 28692.4,680.105 28704.8,680.105 28717.2,680.105 28729.5,680.105 28741.9,680.105 28754.3,680.105 28766.6,680.105 28779,680.105 28791.4,680.105 28803.8,680.105 28816.1,680.105 28828.5,680.105 28840.9,680.105 28853.3,680.105 28865.6,680.105 28878,680.105 28890.4,680.105 28902.7,680.105 28915.1,680.105 28927.5,680.105 28939.9,680.105 28952.2,680.105 28964.6,680.105 28977,680.105 28989.3,680.105 29001.7,680.105 29014.1,680.105 29026.5,680.105 29038.8,680.105 29051.2,680.105 29063.6,680.105 29075.9,680.105 29088.3,680.105 29100.7,680.105 29113.1,680.105 29125.4,680.105 29137.8,680.105 29150.2,680.105 29162.5,680.105 29174.9,680.105 29187.3,680.105 29199.7,680.105 29212,680.105 29224.4,680.105 29236.8,680.105 29249.1,680.105 29261.5,680.105 29273.9,680.105 29286.3,680.105 29298.6,680.105 29311,680.105 29323.4,680.105 29335.8,680.105 29348.1,680.105 29360.5,680.105 29372.9,680.105 29385.2,680.105 29397.6,680.105 29410,680.105 29422.4,680.105 29434.7,680.105 29447.1,680.105 29459.5,680.105 29471.8,680.105 29484.2,680.105 29496.6,680.105 29509,680.105 29521.3,680.105 29533.7,680.105 29546.1,680.105 29558.4,680.105 29570.8,680.105 29583.2,680.105 29595.6,680.105 29607.9,680.105 29620.3,680.105 29632.7,680.105 29645,680.105 29657.4,680.105 29669.8,680.105 29682.2,680.105 29694.5,680.105 29706.9,680.105 29719.3,680.105 29731.7,680.105 29744,680.105 29756.4,680.105 29768.8,680.105 29781.1,680.105 29793.5,680.105 29805.9,680.105 29818.3,680.105 29830.6,680.105 29843,680.105 29855.4,680.105 29867.7,680.105 29880.1,680.105 29892.5,680.105 29904.9,680.105 29917.2,680.105 29929.6,680.105 29942,680.105 29954.3,680.105 29966.7,680.105 29979.1,680.105 29991.5,680.105 30003.8,680.105 30016.2,680.105 30028.6,680.105 30040.9,680.105 30053.3,680.105 30065.7,680.105 30078.1,680.105 30090.4,680.105 30102.8,680.105 30115.2,680.105 30127.6,680.105 30139.9,680.105 30152.3,680.105 30164.7,680.105 30177,680.105 30189.4,680.105 30201.8,680.105 30214.2,680.105 30226.5,680.105 30238.9,680.105 30251.3,680.105 30263.6,680.105 30276,680.105 30288.4,680.105 30300.8,680.105 30313.1,680.105 30325.5,680.105 30337.9,680.105 30350.2,680.105 30362.6,680.105 30375,680.105 30387.4,680.105 30399.7,680.105 30412.1,680.105 30424.5,680.105 30436.8,680.105 30449.2,680.105 30461.6,680.105 30474,680.105 30486.3,680.105 30498.7,680.105 30511.1,680.105 30523.4,680.105 30535.8,680.105 30548.2,680.105 30560.6,680.105 30572.9,680.105 30585.3,680.105 30597.7,680.105 30610.1,680.105 30622.4,680.105 30634.8,680.105 30647.2,680.105 30659.5,680.105 30671.9,680.105 30684.3,680.105 30696.7,680.105 30709,680.105 30721.4,680.105 30733.8,680.105 30746.1,680.105 30758.5,680.105 30770.9,680.105 30783.3,680.105 30795.6,680.105 30808,680.105 30820.4,680.105 30832.7,680.105 30845.1,680.105 30857.5,680.105 30869.9,680.105 30882.2,680.105 30894.6,680.105 30907,680.105 30919.3,680.105 30931.7,680.105 30944.1,680.105 30956.5,680.105 30968.8,680.105 30981.2,680.105 30993.6,680.105 31006,680.105 31018.3,680.105 31030.7,680.105 31043.1,680.105 31055.4,680.105 31067.8,680.105 31080.2,680.105 31092.6,680.105 31104.9,680.105 31117.3,680.105 31129.7,680.105 31142,680.105 31154.4,680.105 31166.8,680.105 31179.2,680.105 31191.5,680.105 31203.9,680.105 31216.3,680.105 31228.6,680.105 31241,680.105 31253.4,680.105 31265.8,680.105 31278.1,680.105 31290.5,680.105 31302.9,680.105 31315.2,680.105 31327.6,680.105 31340,680.105 31352.4,680.105 31364.7,680.105 31377.1,680.105 31389.5,680.105 31401.9,680.105 31414.2,680.105 31426.6,680.105 31439,680.105 31451.3,680.105 31463.7,680.105 31476.1,680.105 31488.5,680.105 31500.8,680.105 31513.2,680.105 31525.6,680.105 31537.9,680.105 31550.3,680.105 31562.7,680.105 31575.1,680.105 31587.4,680.105 31599.8,680.105 31612.2,680.105 31624.5,680.105 31636.9,680.105 31649.3,680.105 31661.7,680.105 31674,680.105 31686.4,680.105 31698.8,680.105 31711.1,680.105 31723.5,680.105 31735.9,680.105 31748.3,680.105 31760.6,680.105 31773,680.105 31785.4,680.105 31797.8,680.105 31810.1,680.105 31822.5,680.105 31834.9,680.105 31847.2,680.105 31859.6,680.105 31872,680.105 31884.4,680.105 31896.7,680.105 31909.1,680.105 31921.5,680.105 31933.8,680.105 31946.2,680.105 31958.6,680.105 31971,680.105 31983.3,680.105 31995.7,680.105 32008.1,680.105 32020.4,680.105 32032.8,680.105 32045.2,680.105 32057.6,680.105 32069.9,680.105 32082.3,680.105 32094.7,680.105 32107,680.105 32119.4,680.105 32131.8,680.105 32144.2,680.105 32156.5,680.105 32168.9,680.105 32181.3,680.105 32193.6,680.105 32206,680.105 32218.4,680.105 32230.8,680.105 32243.1,680.105 32255.5,680.105 32267.9,680.105 32280.3,680.105 32292.6,680.105 32305,680.105 32317.4,680.105 32329.7,680.105 32342.1,680.105 32354.5,680.105 32366.9,680.105 32379.2,680.105 32391.6,680.105 32404,680.105 32416.3,680.105 32428.7,680.105 32441.1,680.105 32453.5,680.105 32465.8,680.105 32478.2,680.105 32490.6,680.105 32502.9,680.105 32515.3,680.105 32527.7,680.105 32540.1,680.105 32552.4,680.105 32564.8,680.105 32577.2,680.105 32589.5,680.105 32601.9,680.105 32614.3,680.105 32626.7,680.105 32639,680.105 32651.4,680.105 32663.8,680.105 32676.2,680.105 32688.5,680.105 32700.9,680.105 32713.3,680.105 32725.6,680.105 32738,680.105 32750.4,680.105 32762.8,680.105 32775.1,680.105 32787.5,680.105 32799.9,680.105 32812.2,680.105 32824.6,680.105 32837,680.105 32849.4,680.105 32861.7,680.105 32874.1,680.105 32886.5,680.105 32898.8,680.105 32911.2,680.105 32923.6,680.105 32936,680.105 32948.3,680.105 32960.7,680.105 32973.1,680.105 32985.4,680.105 32997.8,680.105 33010.2,680.105 33022.6,680.105 33034.9,680.105 33047.3,680.105 33059.7,680.105 33072.1,680.105 33084.4,680.105 33096.8,680.105 33109.2,680.105 33121.5,680.105 33133.9,680.105 33146.3,680.105 33158.7,680.105 33171,680.105 33183.4,680.105 33195.8,680.105 33208.1,680.105 33220.5,680.105 33232.9,680.105 33245.3,680.105 33257.6,680.105 33270,680.105 33282.4,680.105 33294.7,680.105 33307.1,680.105 33319.5,680.105 33331.9,680.105 33344.2,680.105 33356.6,680.105 33369,680.105 33381.3,680.105 33393.7,680.105 33406.1,680.105 33418.5,680.105 33430.8,680.105 33443.2,680.105 33455.6,680.105 33467.9,680.105 33480.3,680.105 33492.7,680.105 33505.1,680.105 33517.4,680.105 33529.8,680.105 33542.2,680.105 33554.6,680.105 33566.9,680.105 33579.3,680.105 33591.7,680.105 33604,680.105 33616.4,680.105 33628.8,680.105 33641.2,680.105 33653.5,680.105 33665.9,680.105 33678.3,680.105 33690.6,680.105 33703,680.105 33715.4,680.105 33727.8,680.105 33740.1,680.105 33752.5,680.105 33764.9,680.105 33777.2,680.105 33789.6,680.105 33802,680.105 33814.4,680.105 33826.7,680.105 33839.1,680.105 33851.5,680.105 33863.8,680.105 33876.2,680.105 33888.6,680.105 33901,680.105 33913.3,680.105 33925.7,680.105 33938.1,680.105 33950.5,680.105 33962.8,680.105 33975.2,680.105 33987.6,680.105 33999.9,680.105 34012.3,680.105 34024.7,680.105 34037.1,680.105 34049.4,680.105 34061.8,680.105 34074.2,680.105 34086.5,680.105 34098.9,680.105 34111.3,680.105 34123.7,680.105 34136,680.105 34148.4,680.105 34160.8,680.105 34173.1,680.105 34185.5,680.105 34197.9,680.105 34210.3,680.105 34222.6,680.105 34235,680.105 34247.4,680.105 34259.7,680.105 34272.1,680.105 34284.5,680.105 34296.9,680.105 34309.2,680.105 34321.6,680.105 34334,680.105 34346.4,680.105 34358.7,680.105 34371.1,680.105 34383.5,680.105 34395.8,680.105 34408.2,680.105 34420.6,680.105 34433,680.105 34445.3,680.105 34457.7,680.105 34470.1,680.105 34482.4,680.105 34494.8,680.105 34507.2,680.105 34519.6,680.105 34531.9,680.105 34544.3,680.105 34556.7,680.105 34569,680.105 34581.4,680.105 34593.8,680.105 34606.2,680.105 34618.5,680.105 34630.9,680.105 34643.3,680.105 34655.6,680.105 34668,680.105 34680.4,680.105 34692.8,680.105 34705.1,680.105 34717.5,680.105 34729.9,680.105 34742.2,680.105 34754.6,680.105 34767,680.105 34779.4,680.105 34791.7,680.105 34804.1,680.105 34816.5,680.105 34828.9,680.105 34841.2,680.105 34853.6,680.105 34866,680.105 34878.3,680.105 34890.7,680.105 34903.1,680.105 34915.5,680.105 34927.8,680.105 34940.2,680.105 34952.6,680.105 34964.9,680.105 34977.3,680.105 34989.7,680.105 35002.1,680.105 35014.4,680.105 35026.8,680.105 35039.2,680.105 35051.5,680.105 35063.9,680.105 35076.3,680.105 35088.7,680.105 35101,680.105 35113.4,680.105 35125.8,680.105 35138.1,680.105 35150.5,680.105 35162.9,680.105 35175.3,680.105 35187.6,680.105 35200,680.105 35212.4,680.105 35224.8,680.105 35237.1,680.105 35249.5,680.105 35261.9,680.105 35274.2,680.105 35286.6,680.105 35299,680.105 35311.4,680.105 35323.7,680.105 35336.1,680.105 35348.5,680.105 35360.8,680.105 35373.2,680.105 35385.6,680.105 35398,680.105 35410.3,680.105 35422.7,680.105 35435.1,680.105 35447.4,680.105 35459.8,680.105 35472.2,680.105 35484.6,680.105 35496.9,680.105 35509.3,680.105 "/>
<polyline clip-path="url(#clip592)" style="stroke:#000000; stroke-linecap:round; stroke-linejoin:round; stroke-width:4; stroke-opacity:1; fill:none" stroke-dasharray="16, 10" points="736.969,2799.12 736.969,-1328.69 "/>
<polyline clip-path="url(#clip592)" style="stroke:#000000; stroke-linecap:round; stroke-linejoin:round; stroke-width:4; stroke-opacity:1; fill:none" stroke-dasharray="16, 10" points="10456.3,2799.12 10456.3,-1328.69 "/>
<polyline clip-path="url(#clip592)" style="stroke:#000000; stroke-linecap:round; stroke-linejoin:round; stroke-width:4; stroke-opacity:1; fill:none" stroke-dasharray="16, 10" points="22209.6,2799.12 22209.6,-1328.69 "/>
</svg>
