<?xml version="1.0" encoding="utf-8"?>
<svg xmlns="http://www.w3.org/2000/svg" xmlns:xlink="http://www.w3.org/1999/xlink" width="600" height="400" viewBox="0 0 2400 1600">
<defs>
  <clipPath id="clip430">
    <rect x="0" y="0" width="2400" height="1600"/>
  </clipPath>
</defs>
<path clip-path="url(#clip430)" d="M0 1600 L2400 1600 L2400 0 L0 0  Z" fill="#ffffff" fill-rule="evenodd" fill-opacity="1"/>
<defs>
  <clipPath id="clip431">
    <rect x="480" y="0" width="1681" height="1600"/>
  </clipPath>
</defs>
<defs>
  <clipPath id="clip432">
    <rect x="249" y="47" width="2104" height="1377"/>
  </clipPath>
</defs>
<path clip-path="url(#clip430)" d="M249.542 1423.18 L2352.76 1423.18 L2352.76 47.2441 L249.542 47.2441  Z" fill="#ffffff" fill-rule="evenodd" fill-opacity="1"/>
<polyline clip-path="url(#clip432)" style="stroke:#000000; stroke-linecap:round; stroke-linejoin:round; stroke-width:2; stroke-opacity:0.1; fill:none" points="309.067,1423.18 309.067,47.2441 "/>
<polyline clip-path="url(#clip432)" style="stroke:#000000; stroke-linecap:round; stroke-linejoin:round; stroke-width:2; stroke-opacity:0.1; fill:none" points="705.9,1423.18 705.9,47.2441 "/>
<polyline clip-path="url(#clip432)" style="stroke:#000000; stroke-linecap:round; stroke-linejoin:round; stroke-width:2; stroke-opacity:0.1; fill:none" points="1102.73,1423.18 1102.73,47.2441 "/>
<polyline clip-path="url(#clip432)" style="stroke:#000000; stroke-linecap:round; stroke-linejoin:round; stroke-width:2; stroke-opacity:0.1; fill:none" points="1499.57,1423.18 1499.57,47.2441 "/>
<polyline clip-path="url(#clip432)" style="stroke:#000000; stroke-linecap:round; stroke-linejoin:round; stroke-width:2; stroke-opacity:0.1; fill:none" points="1896.4,1423.18 1896.4,47.2441 "/>
<polyline clip-path="url(#clip432)" style="stroke:#000000; stroke-linecap:round; stroke-linejoin:round; stroke-width:2; stroke-opacity:0.1; fill:none" points="2293.23,1423.18 2293.23,47.2441 "/>
<polyline clip-path="url(#clip430)" style="stroke:#000000; stroke-linecap:round; stroke-linejoin:round; stroke-width:4; stroke-opacity:1; fill:none" points="249.542,1423.18 2352.76,1423.18 "/>
<polyline clip-path="url(#clip430)" style="stroke:#000000; stroke-linecap:round; stroke-linejoin:round; stroke-width:4; stroke-opacity:1; fill:none" points="309.067,1423.18 309.067,1404.28 "/>
<polyline clip-path="url(#clip430)" style="stroke:#000000; stroke-linecap:round; stroke-linejoin:round; stroke-width:4; stroke-opacity:1; fill:none" points="705.9,1423.18 705.9,1404.28 "/>
<polyline clip-path="url(#clip430)" style="stroke:#000000; stroke-linecap:round; stroke-linejoin:round; stroke-width:4; stroke-opacity:1; fill:none" points="1102.73,1423.18 1102.73,1404.28 "/>
<polyline clip-path="url(#clip430)" style="stroke:#000000; stroke-linecap:round; stroke-linejoin:round; stroke-width:4; stroke-opacity:1; fill:none" points="1499.57,1423.18 1499.57,1404.28 "/>
<polyline clip-path="url(#clip430)" style="stroke:#000000; stroke-linecap:round; stroke-linejoin:round; stroke-width:4; stroke-opacity:1; fill:none" points="1896.4,1423.18 1896.4,1404.28 "/>
<polyline clip-path="url(#clip430)" style="stroke:#000000; stroke-linecap:round; stroke-linejoin:round; stroke-width:4; stroke-opacity:1; fill:none" points="2293.23,1423.18 2293.23,1404.28 "/>
<path clip-path="url(#clip430)" d="M309.067 1454.1 Q305.456 1454.1 303.627 1457.66 Q301.822 1461.2 301.822 1468.33 Q301.822 1475.44 303.627 1479.01 Q305.456 1482.55 309.067 1482.55 Q312.701 1482.55 314.507 1479.01 Q316.335 1475.44 316.335 1468.33 Q316.335 1461.2 314.507 1457.66 Q312.701 1454.1 309.067 1454.1 M309.067 1450.39 Q314.877 1450.39 317.933 1455 Q321.011 1459.58 321.011 1468.33 Q321.011 1477.06 317.933 1481.67 Q314.877 1486.25 309.067 1486.25 Q303.257 1486.25 300.178 1481.67 Q297.123 1477.06 297.123 1468.33 Q297.123 1459.58 300.178 1455 Q303.257 1450.39 309.067 1450.39 Z" fill="#000000" fill-rule="evenodd" fill-opacity="1" /><path clip-path="url(#clip430)" d="M650.426 1481.64 L658.064 1481.64 L658.064 1455.28 L649.754 1456.95 L649.754 1452.69 L658.018 1451.02 L662.694 1451.02 L662.694 1481.64 L670.333 1481.64 L670.333 1485.58 L650.426 1485.58 L650.426 1481.64 Z" fill="#000000" fill-rule="evenodd" fill-opacity="1" /><path clip-path="url(#clip430)" d="M689.777 1454.1 Q686.166 1454.1 684.337 1457.66 Q682.532 1461.2 682.532 1468.33 Q682.532 1475.44 684.337 1479.01 Q686.166 1482.55 689.777 1482.55 Q693.411 1482.55 695.217 1479.01 Q697.046 1475.44 697.046 1468.33 Q697.046 1461.2 695.217 1457.66 Q693.411 1454.1 689.777 1454.1 M689.777 1450.39 Q695.587 1450.39 698.643 1455 Q701.722 1459.58 701.722 1468.33 Q701.722 1477.06 698.643 1481.67 Q695.587 1486.25 689.777 1486.25 Q683.967 1486.25 680.888 1481.67 Q677.833 1477.06 677.833 1468.33 Q677.833 1459.58 680.888 1455 Q683.967 1450.39 689.777 1450.39 Z" fill="#000000" fill-rule="evenodd" fill-opacity="1" /><path clip-path="url(#clip430)" d="M719.939 1454.1 Q716.328 1454.1 714.499 1457.66 Q712.694 1461.2 712.694 1468.33 Q712.694 1475.44 714.499 1479.01 Q716.328 1482.55 719.939 1482.55 Q723.573 1482.55 725.379 1479.01 Q727.208 1475.44 727.208 1468.33 Q727.208 1461.2 725.379 1457.66 Q723.573 1454.1 719.939 1454.1 M719.939 1450.39 Q725.749 1450.39 728.805 1455 Q731.883 1459.58 731.883 1468.33 Q731.883 1477.06 728.805 1481.67 Q725.749 1486.25 719.939 1486.25 Q714.129 1486.25 711.05 1481.67 Q707.995 1477.06 707.995 1468.33 Q707.995 1459.58 711.05 1455 Q714.129 1450.39 719.939 1450.39 Z" fill="#000000" fill-rule="evenodd" fill-opacity="1" /><path clip-path="url(#clip430)" d="M750.101 1454.1 Q746.49 1454.1 744.661 1457.66 Q742.856 1461.2 742.856 1468.33 Q742.856 1475.44 744.661 1479.01 Q746.49 1482.55 750.101 1482.55 Q753.735 1482.55 755.541 1479.01 Q757.369 1475.44 757.369 1468.33 Q757.369 1461.2 755.541 1457.66 Q753.735 1454.1 750.101 1454.1 M750.101 1450.39 Q755.911 1450.39 758.967 1455 Q762.045 1459.58 762.045 1468.33 Q762.045 1477.06 758.967 1481.67 Q755.911 1486.25 750.101 1486.25 Q744.291 1486.25 741.212 1481.67 Q738.157 1477.06 738.157 1468.33 Q738.157 1459.58 741.212 1455 Q744.291 1450.39 750.101 1450.39 Z" fill="#000000" fill-rule="evenodd" fill-opacity="1" /><path clip-path="url(#clip430)" d="M1051.34 1481.64 L1067.66 1481.64 L1067.66 1485.58 L1045.72 1485.58 L1045.72 1481.64 Q1048.38 1478.89 1052.96 1474.26 Q1057.57 1469.61 1058.75 1468.27 Q1061 1465.74 1061.88 1464.01 Q1062.78 1462.25 1062.78 1460.56 Q1062.78 1457.8 1060.83 1456.07 Q1058.91 1454.33 1055.81 1454.33 Q1053.61 1454.33 1051.16 1455.09 Q1048.73 1455.86 1045.95 1457.41 L1045.95 1452.69 Q1048.77 1451.55 1051.23 1450.97 Q1053.68 1450.39 1055.72 1450.39 Q1061.09 1450.39 1064.28 1453.08 Q1067.48 1455.77 1067.48 1460.26 Q1067.48 1462.39 1066.67 1464.31 Q1065.88 1466.2 1063.77 1468.8 Q1063.2 1469.47 1060.09 1472.69 Q1056.99 1475.88 1051.34 1481.64 Z" fill="#000000" fill-rule="evenodd" fill-opacity="1" /><path clip-path="url(#clip430)" d="M1087.48 1454.1 Q1083.87 1454.1 1082.04 1457.66 Q1080.23 1461.2 1080.23 1468.33 Q1080.23 1475.44 1082.04 1479.01 Q1083.87 1482.55 1087.48 1482.55 Q1091.11 1482.55 1092.92 1479.01 Q1094.75 1475.44 1094.75 1468.33 Q1094.75 1461.2 1092.92 1457.66 Q1091.11 1454.1 1087.48 1454.1 M1087.48 1450.39 Q1093.29 1450.39 1096.34 1455 Q1099.42 1459.58 1099.42 1468.33 Q1099.42 1477.06 1096.34 1481.67 Q1093.29 1486.25 1087.48 1486.25 Q1081.67 1486.25 1078.59 1481.67 Q1075.53 1477.06 1075.53 1468.33 Q1075.53 1459.58 1078.59 1455 Q1081.67 1450.39 1087.48 1450.39 Z" fill="#000000" fill-rule="evenodd" fill-opacity="1" /><path clip-path="url(#clip430)" d="M1117.64 1454.1 Q1114.03 1454.1 1112.2 1457.66 Q1110.39 1461.2 1110.39 1468.33 Q1110.39 1475.44 1112.2 1479.01 Q1114.03 1482.55 1117.64 1482.55 Q1121.27 1482.55 1123.08 1479.01 Q1124.91 1475.44 1124.91 1468.33 Q1124.91 1461.2 1123.08 1457.66 Q1121.27 1454.1 1117.64 1454.1 M1117.64 1450.39 Q1123.45 1450.39 1126.51 1455 Q1129.58 1459.58 1129.58 1468.33 Q1129.58 1477.06 1126.51 1481.67 Q1123.45 1486.25 1117.64 1486.25 Q1111.83 1486.25 1108.75 1481.67 Q1105.7 1477.06 1105.7 1468.33 Q1105.7 1459.58 1108.75 1455 Q1111.83 1450.39 1117.64 1450.39 Z" fill="#000000" fill-rule="evenodd" fill-opacity="1" /><path clip-path="url(#clip430)" d="M1147.8 1454.1 Q1144.19 1454.1 1142.36 1457.66 Q1140.56 1461.2 1140.56 1468.33 Q1140.56 1475.44 1142.36 1479.01 Q1144.19 1482.55 1147.8 1482.55 Q1151.44 1482.55 1153.24 1479.01 Q1155.07 1475.44 1155.07 1468.33 Q1155.07 1461.2 1153.24 1457.66 Q1151.44 1454.1 1147.8 1454.1 M1147.8 1450.39 Q1153.61 1450.39 1156.67 1455 Q1159.75 1459.58 1159.75 1468.33 Q1159.75 1477.06 1156.67 1481.67 Q1153.61 1486.25 1147.8 1486.25 Q1141.99 1486.25 1138.91 1481.67 Q1135.86 1477.06 1135.86 1468.33 Q1135.86 1459.58 1138.91 1455 Q1141.99 1450.39 1147.8 1450.39 Z" fill="#000000" fill-rule="evenodd" fill-opacity="1" /><path clip-path="url(#clip430)" d="M1458.25 1466.95 Q1461.6 1467.66 1463.48 1469.93 Q1465.38 1472.2 1465.38 1475.53 Q1465.38 1480.65 1461.86 1483.45 Q1458.34 1486.25 1451.86 1486.25 Q1449.68 1486.25 1447.37 1485.81 Q1445.07 1485.39 1442.62 1484.54 L1442.62 1480.02 Q1444.57 1481.16 1446.88 1481.74 Q1449.2 1482.32 1451.72 1482.32 Q1456.12 1482.32 1458.41 1480.58 Q1460.72 1478.84 1460.72 1475.53 Q1460.72 1472.48 1458.57 1470.77 Q1456.44 1469.03 1452.62 1469.03 L1448.59 1469.03 L1448.59 1465.19 L1452.81 1465.19 Q1456.26 1465.19 1458.08 1463.82 Q1459.91 1462.43 1459.91 1459.84 Q1459.91 1457.18 1458.01 1455.77 Q1456.14 1454.33 1452.62 1454.33 Q1450.7 1454.33 1448.5 1454.75 Q1446.3 1455.16 1443.66 1456.04 L1443.66 1451.88 Q1446.32 1451.14 1448.64 1450.77 Q1450.98 1450.39 1453.04 1450.39 Q1458.36 1450.39 1461.46 1452.83 Q1464.57 1455.23 1464.57 1459.35 Q1464.57 1462.22 1462.92 1464.21 Q1461.28 1466.18 1458.25 1466.95 Z" fill="#000000" fill-rule="evenodd" fill-opacity="1" /><path clip-path="url(#clip430)" d="M1484.24 1454.1 Q1480.63 1454.1 1478.8 1457.66 Q1477 1461.2 1477 1468.33 Q1477 1475.44 1478.8 1479.01 Q1480.63 1482.55 1484.24 1482.55 Q1487.88 1482.55 1489.68 1479.01 Q1491.51 1475.44 1491.51 1468.33 Q1491.51 1461.2 1489.68 1457.66 Q1487.88 1454.1 1484.24 1454.1 M1484.24 1450.39 Q1490.05 1450.39 1493.11 1455 Q1496.19 1459.58 1496.19 1468.33 Q1496.19 1477.06 1493.11 1481.67 Q1490.05 1486.25 1484.24 1486.25 Q1478.43 1486.25 1475.35 1481.67 Q1472.3 1477.06 1472.3 1468.33 Q1472.3 1459.58 1475.35 1455 Q1478.43 1450.39 1484.24 1450.39 Z" fill="#000000" fill-rule="evenodd" fill-opacity="1" /><path clip-path="url(#clip430)" d="M1514.4 1454.1 Q1510.79 1454.1 1508.96 1457.66 Q1507.16 1461.2 1507.16 1468.33 Q1507.16 1475.44 1508.96 1479.01 Q1510.79 1482.55 1514.4 1482.55 Q1518.04 1482.55 1519.84 1479.01 Q1521.67 1475.44 1521.67 1468.33 Q1521.67 1461.2 1519.84 1457.66 Q1518.04 1454.1 1514.4 1454.1 M1514.4 1450.39 Q1520.21 1450.39 1523.27 1455 Q1526.35 1459.58 1526.35 1468.33 Q1526.35 1477.06 1523.27 1481.67 Q1520.21 1486.25 1514.4 1486.25 Q1508.59 1486.25 1505.51 1481.67 Q1502.46 1477.06 1502.46 1468.33 Q1502.46 1459.58 1505.51 1455 Q1508.59 1450.39 1514.4 1450.39 Z" fill="#000000" fill-rule="evenodd" fill-opacity="1" /><path clip-path="url(#clip430)" d="M1544.57 1454.1 Q1540.95 1454.1 1539.13 1457.66 Q1537.32 1461.2 1537.32 1468.33 Q1537.32 1475.44 1539.13 1479.01 Q1540.95 1482.55 1544.57 1482.55 Q1548.2 1482.55 1550 1479.01 Q1551.83 1475.44 1551.83 1468.33 Q1551.83 1461.2 1550 1457.66 Q1548.2 1454.1 1544.57 1454.1 M1544.57 1450.39 Q1550.38 1450.39 1553.43 1455 Q1556.51 1459.58 1556.51 1468.33 Q1556.51 1477.06 1553.43 1481.67 Q1550.38 1486.25 1544.57 1486.25 Q1538.75 1486.25 1535.68 1481.67 Q1532.62 1477.06 1532.62 1468.33 Q1532.62 1459.58 1535.68 1455 Q1538.75 1450.39 1544.57 1450.39 Z" fill="#000000" fill-rule="evenodd" fill-opacity="1" /><path clip-path="url(#clip430)" d="M1854.41 1455.09 L1842.6 1473.54 L1854.41 1473.54 L1854.41 1455.09 M1853.18 1451.02 L1859.06 1451.02 L1859.06 1473.54 L1863.99 1473.54 L1863.99 1477.43 L1859.06 1477.43 L1859.06 1485.58 L1854.41 1485.58 L1854.41 1477.43 L1838.81 1477.43 L1838.81 1472.92 L1853.18 1451.02 Z" fill="#000000" fill-rule="evenodd" fill-opacity="1" /><path clip-path="url(#clip430)" d="M1881.72 1454.1 Q1878.11 1454.1 1876.28 1457.66 Q1874.48 1461.2 1874.48 1468.33 Q1874.48 1475.44 1876.28 1479.01 Q1878.11 1482.55 1881.72 1482.55 Q1885.36 1482.55 1887.16 1479.01 Q1888.99 1475.44 1888.99 1468.33 Q1888.99 1461.2 1887.16 1457.66 Q1885.36 1454.1 1881.72 1454.1 M1881.72 1450.39 Q1887.53 1450.39 1890.59 1455 Q1893.67 1459.58 1893.67 1468.33 Q1893.67 1477.06 1890.59 1481.67 Q1887.53 1486.25 1881.72 1486.25 Q1875.91 1486.25 1872.83 1481.67 Q1869.78 1477.06 1869.78 1468.33 Q1869.78 1459.58 1872.83 1455 Q1875.91 1450.39 1881.72 1450.39 Z" fill="#000000" fill-rule="evenodd" fill-opacity="1" /><path clip-path="url(#clip430)" d="M1911.88 1454.1 Q1908.27 1454.1 1906.44 1457.66 Q1904.64 1461.2 1904.64 1468.33 Q1904.64 1475.44 1906.44 1479.01 Q1908.27 1482.55 1911.88 1482.55 Q1915.52 1482.55 1917.32 1479.01 Q1919.15 1475.44 1919.15 1468.33 Q1919.15 1461.2 1917.32 1457.66 Q1915.52 1454.1 1911.88 1454.1 M1911.88 1450.39 Q1917.69 1450.39 1920.75 1455 Q1923.83 1459.58 1923.83 1468.33 Q1923.83 1477.06 1920.75 1481.67 Q1917.69 1486.25 1911.88 1486.25 Q1906.07 1486.25 1903 1481.67 Q1899.94 1477.06 1899.94 1468.33 Q1899.94 1459.58 1903 1455 Q1906.07 1450.39 1911.88 1450.39 Z" fill="#000000" fill-rule="evenodd" fill-opacity="1" /><path clip-path="url(#clip430)" d="M1942.05 1454.1 Q1938.43 1454.1 1936.61 1457.66 Q1934.8 1461.2 1934.8 1468.33 Q1934.8 1475.44 1936.61 1479.01 Q1938.43 1482.55 1942.05 1482.55 Q1945.68 1482.55 1947.49 1479.01 Q1949.31 1475.44 1949.31 1468.33 Q1949.31 1461.2 1947.49 1457.66 Q1945.68 1454.1 1942.05 1454.1 M1942.05 1450.39 Q1947.86 1450.39 1950.91 1455 Q1953.99 1459.58 1953.99 1468.33 Q1953.99 1477.06 1950.91 1481.67 Q1947.86 1486.25 1942.05 1486.25 Q1936.24 1486.25 1933.16 1481.67 Q1930.1 1477.06 1930.1 1468.33 Q1930.1 1459.58 1933.16 1455 Q1936.24 1450.39 1942.05 1450.39 Z" fill="#000000" fill-rule="evenodd" fill-opacity="1" /><path clip-path="url(#clip430)" d="M2237.77 1451.02 L2256.12 1451.02 L2256.12 1454.96 L2242.05 1454.96 L2242.05 1463.43 Q2243.07 1463.08 2244.09 1462.92 Q2245.11 1462.73 2246.12 1462.73 Q2251.91 1462.73 2255.29 1465.9 Q2258.67 1469.08 2258.67 1474.49 Q2258.67 1480.07 2255.2 1483.17 Q2251.73 1486.25 2245.41 1486.25 Q2243.23 1486.25 2240.96 1485.88 Q2238.72 1485.51 2236.31 1484.77 L2236.31 1480.07 Q2238.39 1481.2 2240.62 1481.76 Q2242.84 1482.32 2245.31 1482.32 Q2249.32 1482.32 2251.66 1480.21 Q2254 1478.1 2254 1474.49 Q2254 1470.88 2251.66 1468.77 Q2249.32 1466.67 2245.31 1466.67 Q2243.44 1466.67 2241.56 1467.08 Q2239.71 1467.5 2237.77 1468.38 L2237.77 1451.02 Z" fill="#000000" fill-rule="evenodd" fill-opacity="1" /><path clip-path="url(#clip430)" d="M2277.88 1454.1 Q2274.27 1454.1 2272.44 1457.66 Q2270.64 1461.2 2270.64 1468.33 Q2270.64 1475.44 2272.44 1479.01 Q2274.27 1482.55 2277.88 1482.55 Q2281.52 1482.55 2283.32 1479.01 Q2285.15 1475.44 2285.15 1468.33 Q2285.15 1461.2 2283.32 1457.66 Q2281.52 1454.1 2277.88 1454.1 M2277.88 1450.39 Q2283.69 1450.39 2286.75 1455 Q2289.83 1459.58 2289.83 1468.33 Q2289.83 1477.06 2286.75 1481.67 Q2283.69 1486.25 2277.88 1486.25 Q2272.07 1486.25 2269 1481.67 Q2265.94 1477.06 2265.94 1468.33 Q2265.94 1459.58 2269 1455 Q2272.07 1450.39 2277.88 1450.39 Z" fill="#000000" fill-rule="evenodd" fill-opacity="1" /><path clip-path="url(#clip430)" d="M2308.05 1454.1 Q2304.43 1454.1 2302.61 1457.66 Q2300.8 1461.2 2300.8 1468.33 Q2300.8 1475.44 2302.61 1479.01 Q2304.43 1482.55 2308.05 1482.55 Q2311.68 1482.55 2313.49 1479.01 Q2315.31 1475.44 2315.31 1468.33 Q2315.31 1461.2 2313.49 1457.66 Q2311.68 1454.1 2308.05 1454.1 M2308.05 1450.39 Q2313.86 1450.39 2316.91 1455 Q2319.99 1459.58 2319.99 1468.33 Q2319.99 1477.06 2316.91 1481.67 Q2313.86 1486.25 2308.05 1486.25 Q2302.24 1486.25 2299.16 1481.67 Q2296.1 1477.06 2296.1 1468.33 Q2296.1 1459.58 2299.16 1455 Q2302.24 1450.39 2308.05 1450.39 Z" fill="#000000" fill-rule="evenodd" fill-opacity="1" /><path clip-path="url(#clip430)" d="M2338.21 1454.1 Q2334.6 1454.1 2332.77 1457.66 Q2330.96 1461.2 2330.96 1468.33 Q2330.96 1475.44 2332.77 1479.01 Q2334.6 1482.55 2338.21 1482.55 Q2341.84 1482.55 2343.65 1479.01 Q2345.48 1475.44 2345.48 1468.33 Q2345.48 1461.2 2343.65 1457.66 Q2341.84 1454.1 2338.21 1454.1 M2338.21 1450.39 Q2344.02 1450.39 2347.07 1455 Q2350.15 1459.58 2350.15 1468.33 Q2350.15 1477.06 2347.07 1481.67 Q2344.02 1486.25 2338.21 1486.25 Q2332.4 1486.25 2329.32 1481.67 Q2326.26 1477.06 2326.26 1468.33 Q2326.26 1459.58 2329.32 1455 Q2332.4 1450.39 2338.21 1450.39 Z" fill="#000000" fill-rule="evenodd" fill-opacity="1" /><path clip-path="url(#clip430)" d="M1300.21 1522.27 L1300.21 1532.4 L1312.27 1532.4 L1312.27 1536.95 L1300.21 1536.95 L1300.21 1556.3 Q1300.21 1560.66 1301.39 1561.9 Q1302.6 1563.14 1306.26 1563.14 L1312.27 1563.14 L1312.27 1568.04 L1306.26 1568.04 Q1299.48 1568.04 1296.9 1565.53 Q1294.32 1562.98 1294.32 1556.3 L1294.32 1536.95 L1290.02 1536.95 L1290.02 1532.4 L1294.32 1532.4 L1294.32 1522.27 L1300.21 1522.27 Z" fill="#000000" fill-rule="evenodd" fill-opacity="1" /><polyline clip-path="url(#clip432)" style="stroke:#000000; stroke-linecap:round; stroke-linejoin:round; stroke-width:2; stroke-opacity:0.1; fill:none" points="249.542,1384.27 2352.76,1384.27 "/>
<polyline clip-path="url(#clip432)" style="stroke:#000000; stroke-linecap:round; stroke-linejoin:round; stroke-width:2; stroke-opacity:0.1; fill:none" points="249.542,976.463 2352.76,976.463 "/>
<polyline clip-path="url(#clip432)" style="stroke:#000000; stroke-linecap:round; stroke-linejoin:round; stroke-width:2; stroke-opacity:0.1; fill:none" points="249.542,568.659 2352.76,568.659 "/>
<polyline clip-path="url(#clip432)" style="stroke:#000000; stroke-linecap:round; stroke-linejoin:round; stroke-width:2; stroke-opacity:0.1; fill:none" points="249.542,160.854 2352.76,160.854 "/>
<polyline clip-path="url(#clip430)" style="stroke:#000000; stroke-linecap:round; stroke-linejoin:round; stroke-width:4; stroke-opacity:1; fill:none" points="249.542,1423.18 249.542,47.2441 "/>
<polyline clip-path="url(#clip430)" style="stroke:#000000; stroke-linecap:round; stroke-linejoin:round; stroke-width:4; stroke-opacity:1; fill:none" points="249.542,1384.27 268.44,1384.27 "/>
<polyline clip-path="url(#clip430)" style="stroke:#000000; stroke-linecap:round; stroke-linejoin:round; stroke-width:4; stroke-opacity:1; fill:none" points="249.542,976.463 268.44,976.463 "/>
<polyline clip-path="url(#clip430)" style="stroke:#000000; stroke-linecap:round; stroke-linejoin:round; stroke-width:4; stroke-opacity:1; fill:none" points="249.542,568.659 268.44,568.659 "/>
<polyline clip-path="url(#clip430)" style="stroke:#000000; stroke-linecap:round; stroke-linejoin:round; stroke-width:4; stroke-opacity:1; fill:none" points="249.542,160.854 268.44,160.854 "/>
<path clip-path="url(#clip430)" d="M126.205 1370.07 Q122.593 1370.07 120.765 1373.63 Q118.959 1377.17 118.959 1384.3 Q118.959 1391.41 120.765 1394.97 Q122.593 1398.52 126.205 1398.52 Q129.839 1398.52 131.644 1394.97 Q133.473 1391.41 133.473 1384.3 Q133.473 1377.17 131.644 1373.63 Q129.839 1370.07 126.205 1370.07 M126.205 1366.36 Q132.015 1366.36 135.07 1370.97 Q138.149 1375.55 138.149 1384.3 Q138.149 1393.03 135.07 1397.64 Q132.015 1402.22 126.205 1402.22 Q120.394 1402.22 117.316 1397.64 Q114.26 1393.03 114.26 1384.3 Q114.26 1375.55 117.316 1370.97 Q120.394 1366.36 126.205 1366.36 Z" fill="#000000" fill-rule="evenodd" fill-opacity="1" /><path clip-path="url(#clip430)" d="M146.366 1395.67 L151.251 1395.67 L151.251 1401.55 L146.366 1401.55 L146.366 1395.67 Z" fill="#000000" fill-rule="evenodd" fill-opacity="1" /><path clip-path="url(#clip430)" d="M171.436 1370.07 Q167.825 1370.07 165.996 1373.63 Q164.19 1377.17 164.19 1384.3 Q164.19 1391.41 165.996 1394.97 Q167.825 1398.52 171.436 1398.52 Q175.07 1398.52 176.876 1394.97 Q178.704 1391.41 178.704 1384.3 Q178.704 1377.17 176.876 1373.63 Q175.07 1370.07 171.436 1370.07 M171.436 1366.36 Q177.246 1366.36 180.301 1370.97 Q183.38 1375.55 183.38 1384.3 Q183.38 1393.03 180.301 1397.64 Q177.246 1402.22 171.436 1402.22 Q165.626 1402.22 162.547 1397.64 Q159.491 1393.03 159.491 1384.3 Q159.491 1375.55 162.547 1370.97 Q165.626 1366.36 171.436 1366.36 Z" fill="#000000" fill-rule="evenodd" fill-opacity="1" /><path clip-path="url(#clip430)" d="M201.598 1370.07 Q197.987 1370.07 196.158 1373.63 Q194.352 1377.17 194.352 1384.3 Q194.352 1391.41 196.158 1394.97 Q197.987 1398.52 201.598 1398.52 Q205.232 1398.52 207.037 1394.97 Q208.866 1391.41 208.866 1384.3 Q208.866 1377.17 207.037 1373.63 Q205.232 1370.07 201.598 1370.07 M201.598 1366.36 Q207.408 1366.36 210.463 1370.97 Q213.542 1375.55 213.542 1384.3 Q213.542 1393.03 210.463 1397.64 Q207.408 1402.22 201.598 1402.22 Q195.787 1402.22 192.709 1397.64 Q189.653 1393.03 189.653 1384.3 Q189.653 1375.55 192.709 1370.97 Q195.787 1366.36 201.598 1366.36 Z" fill="#000000" fill-rule="evenodd" fill-opacity="1" /><path clip-path="url(#clip430)" d="M127.2 962.262 Q123.589 962.262 121.76 965.827 Q119.955 969.368 119.955 976.498 Q119.955 983.604 121.76 987.169 Q123.589 990.711 127.2 990.711 Q130.834 990.711 132.64 987.169 Q134.468 983.604 134.468 976.498 Q134.468 969.368 132.64 965.827 Q130.834 962.262 127.2 962.262 M127.2 958.558 Q133.01 958.558 136.066 963.165 Q139.144 967.748 139.144 976.498 Q139.144 985.225 136.066 989.831 Q133.01 994.414 127.2 994.414 Q121.39 994.414 118.311 989.831 Q115.256 985.225 115.256 976.498 Q115.256 967.748 118.311 963.165 Q121.39 958.558 127.2 958.558 Z" fill="#000000" fill-rule="evenodd" fill-opacity="1" /><path clip-path="url(#clip430)" d="M147.362 987.864 L152.246 987.864 L152.246 993.743 L147.362 993.743 L147.362 987.864 Z" fill="#000000" fill-rule="evenodd" fill-opacity="1" /><path clip-path="url(#clip430)" d="M172.431 962.262 Q168.82 962.262 166.991 965.827 Q165.186 969.368 165.186 976.498 Q165.186 983.604 166.991 987.169 Q168.82 990.711 172.431 990.711 Q176.065 990.711 177.871 987.169 Q179.7 983.604 179.7 976.498 Q179.7 969.368 177.871 965.827 Q176.065 962.262 172.431 962.262 M172.431 958.558 Q178.241 958.558 181.297 963.165 Q184.376 967.748 184.376 976.498 Q184.376 985.225 181.297 989.831 Q178.241 994.414 172.431 994.414 Q166.621 994.414 163.542 989.831 Q160.487 985.225 160.487 976.498 Q160.487 967.748 163.542 963.165 Q166.621 958.558 172.431 958.558 Z" fill="#000000" fill-rule="evenodd" fill-opacity="1" /><path clip-path="url(#clip430)" d="M192.639 959.183 L210.996 959.183 L210.996 963.118 L196.922 963.118 L196.922 971.591 Q197.94 971.243 198.959 971.081 Q199.977 970.896 200.996 970.896 Q206.783 970.896 210.162 974.067 Q213.542 977.239 213.542 982.655 Q213.542 988.234 210.07 991.336 Q206.598 994.414 200.278 994.414 Q198.102 994.414 195.834 994.044 Q193.588 993.674 191.181 992.933 L191.181 988.234 Q193.264 989.368 195.487 989.924 Q197.709 990.479 200.186 990.479 Q204.19 990.479 206.528 988.373 Q208.866 986.266 208.866 982.655 Q208.866 979.044 206.528 976.938 Q204.19 974.831 200.186 974.831 Q198.311 974.831 196.436 975.248 Q194.584 975.665 192.639 976.544 L192.639 959.183 Z" fill="#000000" fill-rule="evenodd" fill-opacity="1" /><path clip-path="url(#clip430)" d="M126.205 554.457 Q122.593 554.457 120.765 558.022 Q118.959 561.564 118.959 568.693 Q118.959 575.8 120.765 579.365 Q122.593 582.906 126.205 582.906 Q129.839 582.906 131.644 579.365 Q133.473 575.8 133.473 568.693 Q133.473 561.564 131.644 558.022 Q129.839 554.457 126.205 554.457 M126.205 550.754 Q132.015 550.754 135.07 555.36 Q138.149 559.943 138.149 568.693 Q138.149 577.42 135.07 582.027 Q132.015 586.61 126.205 586.61 Q120.394 586.61 117.316 582.027 Q114.26 577.42 114.26 568.693 Q114.26 559.943 117.316 555.36 Q120.394 550.754 126.205 550.754 Z" fill="#000000" fill-rule="evenodd" fill-opacity="1" /><path clip-path="url(#clip430)" d="M146.366 580.059 L151.251 580.059 L151.251 585.939 L146.366 585.939 L146.366 580.059 Z" fill="#000000" fill-rule="evenodd" fill-opacity="1" /><path clip-path="url(#clip430)" d="M162.246 582.004 L169.885 582.004 L169.885 555.638 L161.575 557.305 L161.575 553.045 L169.839 551.379 L174.514 551.379 L174.514 582.004 L182.153 582.004 L182.153 585.939 L162.246 585.939 L162.246 582.004 Z" fill="#000000" fill-rule="evenodd" fill-opacity="1" /><path clip-path="url(#clip430)" d="M201.598 554.457 Q197.987 554.457 196.158 558.022 Q194.352 561.564 194.352 568.693 Q194.352 575.8 196.158 579.365 Q197.987 582.906 201.598 582.906 Q205.232 582.906 207.037 579.365 Q208.866 575.8 208.866 568.693 Q208.866 561.564 207.037 558.022 Q205.232 554.457 201.598 554.457 M201.598 550.754 Q207.408 550.754 210.463 555.36 Q213.542 559.943 213.542 568.693 Q213.542 577.42 210.463 582.027 Q207.408 586.61 201.598 586.61 Q195.787 586.61 192.709 582.027 Q189.653 577.42 189.653 568.693 Q189.653 559.943 192.709 555.36 Q195.787 550.754 201.598 550.754 Z" fill="#000000" fill-rule="evenodd" fill-opacity="1" /><path clip-path="url(#clip430)" d="M127.2 146.653 Q123.589 146.653 121.76 150.218 Q119.955 153.759 119.955 160.889 Q119.955 167.995 121.76 171.56 Q123.589 175.102 127.2 175.102 Q130.834 175.102 132.64 171.56 Q134.468 167.995 134.468 160.889 Q134.468 153.759 132.64 150.218 Q130.834 146.653 127.2 146.653 M127.2 142.949 Q133.01 142.949 136.066 147.556 Q139.144 152.139 139.144 160.889 Q139.144 169.616 136.066 174.222 Q133.01 178.806 127.2 178.806 Q121.39 178.806 118.311 174.222 Q115.256 169.616 115.256 160.889 Q115.256 152.139 118.311 147.556 Q121.39 142.949 127.2 142.949 Z" fill="#000000" fill-rule="evenodd" fill-opacity="1" /><path clip-path="url(#clip430)" d="M147.362 172.255 L152.246 172.255 L152.246 178.134 L147.362 178.134 L147.362 172.255 Z" fill="#000000" fill-rule="evenodd" fill-opacity="1" /><path clip-path="url(#clip430)" d="M163.241 174.199 L170.88 174.199 L170.88 147.833 L162.57 149.5 L162.57 145.241 L170.834 143.574 L175.51 143.574 L175.51 174.199 L183.149 174.199 L183.149 178.134 L163.241 178.134 L163.241 174.199 Z" fill="#000000" fill-rule="evenodd" fill-opacity="1" /><path clip-path="url(#clip430)" d="M192.639 143.574 L210.996 143.574 L210.996 147.509 L196.922 147.509 L196.922 155.982 Q197.94 155.634 198.959 155.472 Q199.977 155.287 200.996 155.287 Q206.783 155.287 210.162 158.458 Q213.542 161.63 213.542 167.046 Q213.542 172.625 210.07 175.727 Q206.598 178.806 200.278 178.806 Q198.102 178.806 195.834 178.435 Q193.588 178.065 191.181 177.324 L191.181 172.625 Q193.264 173.759 195.487 174.315 Q197.709 174.87 200.186 174.87 Q204.19 174.87 206.528 172.764 Q208.866 170.657 208.866 167.046 Q208.866 163.435 206.528 161.329 Q204.19 159.222 200.186 159.222 Q198.311 159.222 196.436 159.639 Q194.584 160.056 192.639 160.935 L192.639 143.574 Z" fill="#000000" fill-rule="evenodd" fill-opacity="1" /><path clip-path="url(#clip430)" d="M28.9285 742.215 Q33.6949 742.215 38.1715 744.663 Q42.6482 747.078 45.3534 750.879 Q48.0587 754.647 48.0587 758.447 Q48.0587 762.73 43.6143 764.952 Q59.7495 768.978 60.1681 769.204 Q61.553 770.138 61.553 771.49 Q61.553 772.328 61.0377 772.843 Q60.5546 773.358 59.7817 773.358 Q59.524 773.326 58.7189 773.133 L32.7932 766.692 Q26.7707 765.21 22.4873 760.734 Q18.1717 756.225 18.1717 751.394 Q18.1717 747.561 21.038 744.888 Q23.9043 742.215 28.9285 742.215 M26.0943 746.949 Q22.8738 746.949 21.2635 748.238 Q19.621 749.526 19.621 751.523 Q19.621 753.358 21.1024 755.581 Q22.5839 757.771 25.8689 759.703 Q27.769 760.734 30.1201 761.474 Q32.4711 762.215 38.2682 763.664 Q40.587 764.18 40.7158 764.18 Q40.9734 764.18 41.5532 764.051 Q42.1329 763.89 43.0346 763.503 Q43.9042 763.085 44.6771 762.505 Q45.4501 761.925 46.0298 760.862 Q46.5773 759.8 46.5773 758.511 Q46.5773 756.515 44.967 754.389 Q43.3245 752.231 40.3293 750.653 Q37.9139 749.333 33.3729 748.141 Q28.7996 746.949 26.0943 746.949 Z" fill="#000000" fill-rule="evenodd" fill-opacity="1" /><path clip-path="url(#clip430)" d="M80.129 703.8 Q80.5573 703.8 80.7828 703.98 Q80.9857 704.138 81.0308 704.296 Q81.0533 704.431 81.0533 704.634 Q81.0533 705.22 80.9857 707.249 Q80.918 709.278 80.918 709.864 Q80.918 710.811 80.9857 712.75 Q81.0533 714.689 81.0533 715.636 Q81.0533 716.267 80.5348 716.267 Q80.1966 716.267 80.0163 716.199 Q79.8134 716.132 79.7458 715.951 Q79.6556 715.748 79.6556 715.636 Q79.633 715.5 79.633 715.162 Q79.633 714.711 79.5879 714.238 Q79.5203 713.764 79.3851 713.178 Q79.2498 712.592 78.9116 712.231 Q78.5735 711.848 78.1 711.848 Q77.8971 711.848 76.2289 712.006 Q74.5606 712.164 72.6218 712.367 Q70.6605 712.57 70.39 712.592 L70.39 724.18 Q72.216 725.239 73.4785 725.983 Q74.741 726.727 75.1693 726.998 Q75.5976 727.268 75.8682 727.426 Q76.1387 727.584 76.2965 727.674 Q77.4913 728.328 78.0099 728.328 Q79.4527 728.328 79.633 726.164 Q79.633 725.42 80.1741 725.42 Q80.5799 725.42 80.8053 725.6 Q81.0082 725.781 81.0308 725.938 Q81.0533 726.074 81.0533 726.299 Q81.0533 727.043 80.9857 728.599 Q80.918 730.154 80.918 730.921 Q80.918 731.574 80.9857 732.927 Q81.0533 734.28 81.0533 734.888 Q81.0533 735.159 80.8955 735.317 Q80.7377 735.474 80.5348 735.474 Q80.2192 735.474 80.0388 735.429 Q79.8585 735.362 79.7683 735.181 Q79.6781 735.001 79.6781 734.911 Q79.6556 734.821 79.633 734.505 Q79.5203 732.792 78.7087 731.462 Q77.8746 730.109 75.7329 728.824 L48.7702 712.773 Q48.4996 712.615 48.3644 712.502 Q48.2291 712.389 48.1164 712.164 Q48.0037 711.916 48.0037 711.555 Q48.0037 710.992 48.184 710.879 Q48.3418 710.766 49.1083 710.698 L77.9648 707.88 Q78.5735 707.813 78.8214 707.768 Q79.0469 707.7 79.2949 707.407 Q79.5203 707.091 79.5879 706.528 Q79.633 705.942 79.633 704.86 Q79.633 704.454 79.6556 704.296 Q79.6556 704.138 79.7683 703.98 Q79.881 703.8 80.129 703.8 M68.9471 712.727 L53.7299 714.193 L68.9471 723.301 L68.9471 712.727 Z" fill="#000000" fill-rule="evenodd" fill-opacity="1" /><polyline clip-path="url(#clip432)" style="stroke:#009af9; stroke-linecap:round; stroke-linejoin:round; stroke-width:4; stroke-opacity:1; fill:none" points="309.067,86.1857 309.168,87.6932 309.269,92.172 309.37,99.4923 309.471,109.444 309.572,121.747 309.672,136.06 309.773,152 309.874,169.152 310.076,205.401 310.278,241.563 310.379,258.74 310.48,274.952 310.581,290.005 310.682,303.773 310.783,316.197 310.884,327.278 310.984,337.078 311.085,345.705 311.287,360.052 311.489,371.734 311.893,392.704 312.296,416.097 312.7,442.057 313.104,466.686 313.508,487.708 313.911,506.614 314.315,525.978 314.719,545.734 314.92,554.849 315.122,562.881 315.324,569.6 315.526,575.082 315.728,579.722 315.93,584.17 316.131,589.176 316.333,595.396 316.535,603.205 316.737,612.569 316.939,623.018 317.141,633.727 317.343,643.697 317.544,651.996 317.746,657.993 317.948,661.537 318.15,663.025 318.352,663.338 318.554,663.661 318.755,665.213 318.957,668.967 319.159,675.407 319.361,684.398 319.563,695.196 319.765,706.602 319.967,717.224 320.168,725.791 320.37,731.447 320.572,733.953 320.774,733.751 320.976,731.874 321.178,729.719 321.379,728.736 321.581,730.108 321.682,731.907 321.783,734.488 321.884,737.828 321.985,741.858 322.918,786.015 323.851,787.807 324.784,798.699 325.718,831.479 326.651,839.604 327.584,849.806 328.517,863.63 329.45,886.505 330.383,897.237 331.317,889.283 332.25,924.008 333.183,940.395 334.116,918.893 335.049,949.499 335.982,973.6 336.916,959.327 337.849,969.555 338.782,991.042 339.715,1003.02 340.648,995.787 341.581,1000.04 342.515,1032.78 343.448,1027.51 344.381,1019.84 345.314,1046.73 346.247,1048.55 347.18,1052.18 348.114,1063.86 349.047,1058.16 349.98,1073.65 350.913,1087.24 351.846,1081.09 352.779,1082.16 353.713,1093.26 354.646,1114.56 355.579,1105.41 356.512,1089.41 357.445,1124.91 358.378,1135.17 359.312,1111.61 360.245,1124.48 361.178,1139.86 362.111,1141.18 363.044,1141.88 363.977,1143.24 364.911,1152.71 365.844,1151.47 366.777,1159.78 367.71,1172.96 368.643,1155.02 369.577,1161.13 370.51,1186.41 371.443,1178.5 372.376,1174.7 373.309,1179.81 374.242,1184.71 375.176,1197.58 376.109,1195.35 377.042,1190.65 377.975,1192.61 378.908,1201.79 379.841,1218.65 380.775,1204.06 381.708,1194.39 382.641,1221.06 383.574,1220.95 384.507,1211.12 385.44,1223.79 386.374,1225.62 387.307,1220.27 388.24,1222.37 389.173,1237.63 390.106,1243.05 391.039,1221.69 391.973,1227.62 392.906,1249.63 393.839,1244.52 394.772,1243.77 395.705,1242.47 396.638,1238.85 397.572,1254.14 398.505,1258.56 399.438,1252.09 400.371,1250.86 401.304,1253.93 402.237,1263.14 403.171,1259.6 404.104,1261.33 405.037,1272.9 405.97,1259.17 406.903,1257.58 407.836,1276.99 408.77,1274.56 409.703,1270.95 410.636,1274.03 411.569,1272.01 412.502,1273.11 413.435,1278.51 414.369,1290.75 415.302,1283.74 416.235,1265.45 417.168,1282.29 418.101,1296.39 419.034,1286.18 419.968,1286.71 420.901,1288.08 421.834,1289.14 422.767,1292.88 424.633,1296.05 426.5,1297.67 433.965,1303.86 441.43,1308.64 443.674,1312.58 445.917,1316.86 447.038,1320.64 448.16,1323.17 448.721,1321.77 449.282,1320.68 449.842,1318.29 450.403,1314.18 450.964,1313.06 451.525,1319.12 452.086,1328.22 452.646,1331.74 453.207,1327.98 453.768,1324.04 454.329,1324.74 454.89,1325.9 455.45,1322.28 456.011,1317.35 456.572,1319.01 457.133,1327.65 457.693,1334.82 458.254,1334.19 458.815,1328.57 459.376,1324.62 459.937,1325.02 460.497,1328.46 461.058,1332.96 461.619,1335.67 462.18,1332.84 462.741,1324.82 463.301,1319.3 463.862,1323.95 464.423,1335.77 464.984,1343.13 465.545,1339.86 466.105,1332.31 466.666,1329.82 467.227,1332.72 467.788,1334.43 468.349,1332.36 468.909,1330.61 469.47,1332.38 470.031,1335.55 470.592,1337.33 471.153,1338.64 471.713,1340.82 472.274,1341.88 472.835,1339.59 473.396,1335.94 473.957,1334.46 474.517,1334.85 475.078,1334.54 475.639,1334.49 476.2,1338.36 476.761,1345.1 477.321,1347.85 477.882,1343.06 478.443,1336.62 479.004,1336.5 479.564,1342 480.125,1345.29 480.686,1342.63 481.247,1338.63 481.808,1338.58 482.368,1341.49 482.929,1343.39 483.49,1343.59 484.051,1344.14 485.172,1346.55 486.294,1348.67 486.855,1347.76 487.416,1342.15 487.976,1335.19 488.537,1334.7 489.098,1343.13 489.659,1352.82 490.22,1354.86 490.78,1349.92 491.341,1346.05 491.902,1347.27 492.463,1349.57 493.024,1348.44 493.584,1345.3 494.145,1344.14 494.706,1345.57 495.267,1347.57 495.828,1349.51 496.388,1351.81 496.949,1353.01 497.51,1351.38 498.071,1348.84 498.632,1349.33 499.192,1352.76 499.753,1354.3 500.314,1351.44 500.875,1347.97 501.435,1348.2 501.996,1350.52 502.557,1350.53 503.118,1348.79 503.679,1350.24 504.239,1355.93 504.8,1360.16 505.361,1358.11 505.922,1352.43 506.483,1349.42 507.043,1350.99 507.604,1353.76 508.165,1354.63 508.726,1353.57 509.287,1351.59 509.847,1349.8 510.408,1350.62 510.969,1356.04 511.53,1363.13 512.091,1364.87 512.651,1358.43 513.212,1349.97 513.686,1347.57 514.16,1350.58 514.635,1355.24 515.109,1357.48 515.583,1356.76 516.057,1355.75 516.531,1356.61 517.005,1358.61 517.954,1358.32 518.902,1356.42 519.85,1359.52 520.799,1361.22 521.273,1361.3 521.747,1360.03 522.221,1356.79 522.695,1352.84 523.169,1351.11 523.643,1353.46 524.118,1358.42 524.592,1362.36 525.066,1363.04 525.54,1361.74 526.014,1361.4 526.488,1362.98 526.962,1364.41 527.437,1363.2 527.911,1359.61 528.385,1356.58 529.333,1358.65 530.281,1360.06 530.756,1358.77 531.23,1358.69 531.704,1360.53 532.178,1363.1 533.126,1365.54 534.075,1364.15 534.549,1361.92 535.023,1359.52 535.497,1358.98 535.971,1361.36 536.445,1364.92 536.919,1366.08 537.394,1363.05 537.868,1358.1 538.342,1355.76 538.816,1358.45 539.29,1364.04 539.764,1368.02 540.238,1367.88 540.713,1365.05 541.187,1362.85 541.661,1363.03 542.135,1364.76 542.609,1366.29 543.083,1366.78 543.557,1366.38 544.032,1365.13 544.506,1362.84 544.98,1360.08 545.454,1358.59 545.928,1359.8 546.402,1363.08 546.876,1366.1 547.351,1367.17 547.825,1366.96 548.299,1367.43 548.773,1369.14 549.247,1370.34 549.721,1368.98 550.195,1365.42 550.67,1362.4 551.144,1362.18 551.618,1364.12 552.092,1365.58 552.566,1365.02 553.04,1363.64 553.515,1363.85 553.989,1366.31 554.463,1369.16 554.937,1370.11 555.411,1368.72 555.885,1366.55 556.359,1365.29 556.834,1365.41 557.308,1366.57 557.782,1368.48 558.256,1370.75 558.73,1372.18 559.204,1371.08 559.678,1367.09 560.153,1362.4 560.627,1360.34 561.101,1362.31 561.575,1366.32 562.049,1368.92 562.523,1368.72 562.997,1367.56 563.472,1368.1 563.946,1370.71 564.42,1373.08 564.894,1372.85 565.368,1370.22 565.842,1367.57 566.316,1366.88 566.791,1368.02 567.265,1369.37 567.739,1369.72 568.213,1369.06 568.687,1367.79 569.161,1366.16 569.635,1364.65 570.11,1364.52 570.584,1366.94 571.058,1371.31 571.532,1374.98 572.006,1375.36 572.48,1372.44 572.954,1368.94 573.429,1367.69 573.903,1368.94 574.933,1370.7 575.963,1370.01 576.478,1371.19 576.993,1371.22 577.508,1369.13 578.023,1366.85 578.538,1366.95 579.053,1369.5 579.568,1372.19 580.083,1373.2 581.114,1372.53 582.144,1372.55 584.204,1371.64 586.264,1369.37 588.324,1372.03 590.384,1373.51 598.625,1375.76 606.866,1377.11 623.348,1376.42 639.83,1377.37 670.219,1377.37 700.609,1378.7 733.189,1381.47 765.77,1383.1 803.518,1383.25 841.266,1382.37 874.812,1384.24 908.357,1384.23 937.774,1383.62 967.191,1382.51 1031.34,1384.05 1095.86,1383.2 1131.53,1383.48 1167.2,1383.57 1201.14,1382.91 1235.08,1379.59 1270.37,1379.98 1305.66,1378.8 1335.37,1378.26 1365.07,1376.05 1374.14,1376.93 1383.21,1374.29 1385.47,1372.7 1387.74,1371.34 1388.31,1369.8 1388.87,1367.91 1389.44,1366.91 1390.01,1368.06 1391.14,1372.03 1392.27,1373.2 1392.84,1374.61 1393.41,1375.02 1393.97,1373.75 1394.54,1373.01 1395.11,1375.05 1395.67,1378.35 1396.24,1379.17 1396.81,1376.57 1397.37,1373.74 1397.94,1373.78 1398.51,1375.79 1399.07,1376.52 1399.64,1374.58 1400.21,1371.47 1400.77,1369.1 1401.34,1368.31 1401.91,1369.42 1402.47,1372.35 1403.04,1375.45 1403.61,1375.99 1404.17,1373.29 1404.74,1370.37 1405.31,1370.72 1405.87,1374.01 1406.44,1376.55 1407.01,1376.13 1407.57,1374.43 1408.14,1374.1 1408.71,1375.02 1409.27,1375.15 1409.84,1374.04 1410.41,1373.64 1410.97,1375.37 1411.54,1378.19 1412.11,1380.1 1412.67,1380.49 1413.24,1379.89 1413.81,1378.53 1414.37,1376.5 1414.94,1374.88 1416.07,1376.9 1417.21,1377.51 1418.34,1376.64 1419.47,1377.07 1420.04,1374.97 1420.61,1373.86 1421.17,1375.57 1421.74,1378.38 1422.31,1378.94 1422.87,1376.41 1423.44,1373.13 1424.01,1371.4 1425.14,1371.57 1426.27,1372 1426.84,1371.03 1427.41,1369.01 1427.97,1367.93 1428.54,1369.78 1429.11,1373.17 1429.67,1374.24 1430.24,1371.56 1430.81,1368.6 1431.37,1369.46 1431.94,1373.59 1432.51,1376.59 1433.07,1375.91 1433.64,1373.45 1434.21,1372.11 1434.77,1372.15 1435.34,1372.15 1436.47,1371.87 1437.61,1369.6 1438.13,1366.93 1438.65,1365.17 1439.16,1364.93 1439.68,1364.75 1440.72,1360.82 1441.76,1360.94 1442.8,1359.92 1443.84,1358.99 1444.36,1363.88 1444.88,1368.58 1445.39,1368.41 1445.91,1363.08 1446.43,1356.89 1446.95,1354.04 1447.47,1354.78 1447.99,1356.55 1449.03,1357.79 1450.07,1357.59 1450.59,1357.35 1451.1,1358.52 1451.62,1361.67 1452.14,1364.73 1452.66,1364.59 1453.18,1361.07 1453.7,1357.82 1454.22,1358.23 1454.74,1361.08 1455.26,1361.79 1455.78,1358.22 1456.3,1353.51 1456.81,1352.45 1457.33,1355.78 1457.85,1359.55 1458.37,1359.93 1458.89,1357.16 1459.41,1354.14 1459.93,1352.61 1460.45,1352.02 1461.49,1351.6 1462.53,1350.84 1463.04,1347.39 1463.56,1343.5 1464.08,1342.9 1464.6,1346.69 1465.12,1351.51 1465.64,1353.25 1466.16,1351.8 1466.68,1350.61 1467.2,1351.79 1467.72,1353.41 1468.24,1352.67 1468.75,1350.53 1469.27,1351.07 1469.79,1356.23 1470.31,1362.81 1470.83,1365.74 1471.35,1363.57 1471.87,1359.41 1472.39,1356.89 1472.91,1356.62 1473.43,1356.96 1473.95,1356.65 1474.46,1355.38 1474.98,1352.73 1475.5,1348.56 1476.02,1344.81 1476.54,1345.08 1477.06,1350.76 1477.58,1358.2 1478.1,1361.41 1478.62,1358.36 1479.14,1353.2 1479.66,1351.51 1480.18,1354.05 1480.69,1356.54 1481.21,1355.38 1481.73,1351.86 1482.25,1350.09 1482.77,1351.85 1483.29,1355.05 1483.81,1356.87 1484.33,1356.74 1484.85,1355.56 1485.37,1353.67 1485.89,1350.97 1486.4,1348.76 1486.92,1349.5 1487.44,1353.88 1487.96,1359.31 1488.48,1362.42 1489,1362.73 1489.52,1362.56 1490.04,1363.27 1490.56,1363.21 1491.08,1360.39 1491.6,1356.32 1492.11,1355.25 1492.63,1359.3 1493.15,1365.52 1493.67,1368.85 1494.19,1367.46 1494.71,1363.91 1495.23,1361.39 1495.75,1360.27 1496.79,1356.57 1497.83,1353.93 1498.86,1353.5 1499.9,1354.58 1500.42,1355.94 1500.94,1355.35 1501.46,1352.71 1501.98,1351.23 1502.5,1353.96 1503.02,1359.3 1503.54,1361.8 1504.05,1358.07 1504.53,1351.56 1505.01,1347.38 1505.49,1348.64 1505.97,1353.86 1506.45,1358.9 1506.93,1360.86 1507.41,1360.01 1507.89,1358.31 1508.85,1356.66 1509.81,1358.32 1510.29,1360.44 1510.77,1361.64 1511.25,1360.1 1511.73,1356.11 1512.21,1352.39 1512.68,1351.62 1513.16,1353.57 1513.64,1355.24 1514.12,1354.15 1514.6,1350.98 1515.08,1348.61 1515.56,1348.52 1516.04,1349.06 1516.52,1347.59 1517,1344.13 1517.48,1341.9 1517.96,1343.9 1518.44,1349.31 1518.92,1353.84 1519.4,1353.76 1519.88,1349.18 1520.36,1343.3 1520.84,1338.97 1521.31,1336.54 1522.27,1333.57 1523.23,1331.59 1523.71,1329.2 1524.19,1325.34 1524.67,1322.46 1525.15,1323.82 1525.63,1329.64 1526.11,1335.76 1526.59,1337.25 1527.07,1333.54 1527.55,1329.38 1528.03,1330.02 1528.51,1335.67 1528.99,1341.24 1529.47,1341.65 1529.94,1336.87 1530.42,1331.43 1530.9,1329.37 1531.38,1330.57 1531.86,1331.91 1532.34,1331.15 1532.82,1328.62 1533.78,1322.38 1534.74,1316.06 1535.22,1315.71 1535.7,1317.45 1536.18,1317.79 1536.66,1313.2 1537.14,1304.52 1537.62,1297.2 1538.1,1296.2 1538.57,1300.68 1539.05,1304.84 1539.53,1304.11 1540.01,1299.96 1540.49,1297.61 1540.97,1299.62 1541.45,1302.7 1541.93,1301.58 1542.41,1295.17 1542.89,1287.79 1543.37,1284.36 1543.85,1285.4 1544.33,1287.46 1545.29,1287.23 1546.25,1290.44 1547.2,1291.76 1548.16,1289.1 1548.64,1287.52 1549.12,1283.33 1549.6,1277.1 1550.08,1273.51 1550.56,1276.76 1551.04,1284.66 1551.52,1288.9 1552,1283.01 1552.48,1269.81 1552.96,1259.79 1553.44,1261.42 1553.92,1273 1554.4,1284.63 1554.88,1287.33 1555.36,1279.95 1555.83,1267.72 1556.31,1256.18 1556.79,1247.75 1557.27,1243.05 1557.75,1242.65 1558.23,1245.96 1558.71,1249.31 1559.19,1247.99 1559.67,1241.08 1560.15,1233.42 1560.63,1230.92 1561.11,1233.99 1561.59,1236.89 1562.07,1234.43 1562.55,1228.3 1563.03,1225.14 1563.51,1228.32 1563.99,1233.31 1564.46,1232.55 1564.94,1224.57 1565.42,1216.53 1565.91,1217.09 1566.4,1227.46 1566.88,1240.23 1567.37,1247.63 1567.85,1248.53 1568.34,1246.88 1568.82,1245.28 1569.31,1242.22 1569.79,1235.81 1570.28,1227.58 1570.77,1220.96 1571.25,1216.84 1571.74,1212.97 1572.22,1208.29 1572.71,1205.48 1573.19,1207.32 1573.68,1211.12 1574.17,1209.78 1574.65,1200.03 1575.14,1188.13 1575.62,1184.81 1576.11,1193.65 1576.59,1206.31 1577.08,1210.72 1577.57,1203.6 1578.05,1193.25 1578.54,1189.77 1579.02,1194.15 1579.51,1198.21 1579.99,1194.15 1580.48,1182.24 1580.96,1168.94 1581.45,1160 1581.94,1157.19 1582.42,1160.31 1582.91,1168.85 1583.39,1179.86 1583.88,1186.51 1584.36,1182.81 1584.85,1170.81 1585.34,1161.2 1585.82,1163.68 1586.31,1176.84 1586.79,1189.19 1587.28,1191.04 1587.76,1184.16 1588.25,1178.26 1588.74,1179.12 1589.22,1182.54 1589.71,1180.74 1590.19,1172.6 1590.68,1165.07 1591.16,1164.57 1591.65,1169.65 1592.14,1173.64 1592.62,1172.96 1593.11,1170.35 1593.59,1169.6 1594.08,1169.65 1594.56,1166.09 1595.05,1157.32 1595.53,1146.78 1596.02,1138.31 1596.51,1131.73 1596.99,1125.25 1597.48,1120.96 1597.96,1124.28 1598.45,1136.05 1598.93,1147.31 1599.42,1145.86 1599.91,1129.4 1600.39,1110.22 1600.88,1104.33 1601.36,1115.84 1601.85,1133.4 1602.33,1142.42 1602.82,1139.16 1603.31,1132.08 1603.79,1130.91 1604.28,1137.16 1604.76,1145.39 1605.25,1150.73 1605.73,1152.37 1606.22,1150.66 1606.71,1144.72 1607.19,1135.11 1607.68,1126.82 1608.16,1125.95 1608.65,1132.43 1609.13,1138.57 1609.62,1137.14 1610.1,1130.2 1610.59,1127.13 1611.08,1132.86 1611.56,1140.46 1612.05,1137.96 1612.53,1122.41 1613.02,1104.63 1613.5,1098.7 1613.99,1107.87 1614.48,1122.43 1614.96,1130.87 1615.45,1130.52 1615.93,1126.52 1616.42,1123.09 1616.9,1119.17 1617.39,1112.74 1617.88,1105.83 1618.36,1102.45 1618.85,1102.35 1619.33,1100.34 1619.82,1092.82 1620.3,1083.27 1620.79,1078.57 1621.28,1080.73 1621.76,1085.01 1622.25,1087.26 1622.73,1090.42 1623.22,1100.45 1623.7,1115.89 1624.19,1125.3 1624.67,1118.26 1625.16,1098.39 1625.65,1082.61 1626.13,1085.64 1626.62,1106.09 1627.1,1128.89 1627.59,1140.27 1628.13,1138.14 1628.68,1131.05 1629.22,1126.75 1629.77,1124.07 1630.31,1120.41 1630.85,1115.63 1631.4,1108.01 1631.94,1095.14 1632.49,1082.1 1633.03,1080.79 1633.58,1094.59 1634.12,1109.04 1634.66,1106.67 1635.21,1089.55 1635.75,1077.88 1636.3,1084.37 1636.84,1098.7 1637.39,1102.79 1637.93,1094.02 1638.47,1084.68 1639.02,1082.12 1639.56,1080.44 1640.11,1073.6 1640.65,1066.85 1641.2,1068.85 1641.74,1078.59 1642.28,1087.87 1642.83,1093.54 1643.37,1099.18 1643.92,1105.33 1644.46,1107.04 1645.01,1103.74 1645.55,1103.03 1646.09,1108.76 1646.64,1111.65 1647.18,1100.79 1647.73,1082.01 1648.27,1074.27 1648.82,1085.73 1649.36,1102.56 1649.9,1107.3 1650.45,1101.32 1650.99,1100.38 1651.54,1111.26 1652.08,1123.11 1652.63,1123.39 1653.17,1113.29 1653.71,1102.8 1654.26,1097.13 1654.8,1094.97 1655.35,1095.42 1655.89,1097.95 1656.44,1096.99 1656.98,1086.14 1657.52,1070.15 1658.07,1063.92 1658.61,1073.51 1659.16,1084.73 1659.7,1079.44 1660.25,1060.44 1660.79,1049.94 1661.33,1061.79 1661.88,1084.5 1662.42,1096.89 1662.97,1093.36 1663.51,1085.86 1664.06,1085.24 1664.6,1090.99 1665.14,1099.16 1665.69,1109.89 1666.23,1121.9 1666.78,1127.34 1667.32,1120.18 1667.87,1106.55 1668.41,1098.9 1668.96,1100.98 1669.5,1105.91 1670.04,1109.27 1670.59,1114.74 1671.13,1122.8 1671.68,1122.68 1672.22,1105.41 1672.77,1081.22 1673.31,1072.51 1673.85,1087.39 1674.4,1109.08 1674.94,1116.42 1675.49,1108.08 1676.03,1099.5 1676.58,1100.61 1677.12,1106.09 1677.66,1106.99 1678.21,1102.29 1678.75,1095.53 1679.3,1088.03 1679.84,1081.45 1680.39,1081.42 1680.93,1090.24 1681.47,1098.73 1682.02,1094.69 1682.56,1080.82 1683.11,1074.79 1683.65,1086.98 1684.2,1105.34 1684.74,1110.3 1685.28,1100.42 1685.83,1093.28 1686.37,1101.26 1686.92,1116.43 1687.46,1123.53 1688.01,1119.85 1688.55,1114.78 1689.09,1114.65 1689.64,1117.31 1690.18,1120.62 1690.73,1126.76 1691.27,1135.16 1691.82,1139.04 1692.36,1134.56 1692.9,1128.16 1693.45,1127.74 1693.99,1130.12 1694.54,1125.93 1695.08,1115.88 1695.63,1112.57 1696.17,1122.05 1696.71,1132.28 1697.26,1127.55 1697.75,1111.43 1698.24,1096.82 1698.74,1092.3 1699.23,1093.8 1699.72,1091.81 1700.22,1084.4 1700.71,1079.77 1701.2,1085.94 1701.7,1101.21 1702.19,1116.34 1702.68,1124.14 1703.18,1124.34 1703.67,1120.14 1704.16,1114.2 1704.66,1109.91 1705.15,1113.11 1705.64,1127.29 1706.14,1146.26 1706.63,1155.62 1707.12,1145.92 1707.62,1124.1 1708.11,1108.62 1708.6,1111.51 1709.1,1126.74 1709.59,1137.72 1710.08,1135.16 1710.58,1125.06 1711.07,1119.7 1711.56,1124 1712.05,1133.13 1712.55,1141.1 1713.04,1147.3 1713.53,1153.74 1714.03,1159.22 1714.52,1160.13 1715.01,1156.29 1715.51,1152.36 1716,1151.74 1716.49,1151.59 1716.99,1146.75 1717.48,1137.67 1717.97,1131.16 1718.47,1131.73 1718.96,1134.93 1719.45,1132.72 1719.95,1124.7 1720.44,1120.2 1720.93,1127.16 1721.43,1140.91 1721.92,1147.63 1722.41,1139.28 1722.91,1122.6 1723.4,1111.49 1723.89,1112.34 1724.39,1119.25 1724.88,1123.12 1725.37,1122.04 1725.86,1120.93 1726.36,1123.73 1726.85,1129.34 1727.34,1135.51 1727.84,1142.89 1728.33,1152.65 1728.82,1162.03 1729.32,1166.11 1729.81,1164.61 1730.3,1163.68 1730.8,1168.17 1731.29,1173.54 1731.78,1169.66 1732.28,1153.82 1732.77,1137.5 1733.26,1136.61 1733.76,1154.86 1734.25,1179.23 1734.74,1192.56 1735.24,1189.31 1735.73,1177.6 1736.22,1168.07 1736.72,1163.91 1737.21,1162.13 1737.7,1160.47 1738.2,1159.59 1738.69,1159.37 1739.18,1157.3 1739.68,1152.53 1740.17,1149.28 1740.66,1152.55 1741.15,1160.73 1741.65,1165.6 1742.14,1161.54 1742.63,1152.96 1743.13,1149.56 1743.62,1154.68 1744.11,1161.15 1744.61,1160.54 1745.1,1154.05 1745.59,1151.19 1746.09,1157.71 1746.58,1167.98 1747.07,1171.66 1747.57,1166.04 1748.06,1158.68 1748.55,1157.69 1749.05,1162.07 1749.54,1163.97 1750.03,1158.81 1750.53,1150.4 1751.02,1145.96 1751.51,1148.83 1752.01,1157.7 1752.5,1170.5 1752.99,1185.32 1753.49,1197.49 1753.98,1199.87 1754.47,1190.14 1754.96,1176.83 1755.46,1174.08 1755.95,1187.89 1756.44,1208.88 1756.94,1221.07 1757.43,1217.78 1757.92,1206.96 1758.42,1200.65 1758.91,1201.66 1759.4,1202.6 1759.9,1196.57 1760.39,1185.34 1760.95,1175.14 1761.52,1172.18 1762.08,1172.58 1762.65,1173.64 1763.21,1177.01 1763.78,1181.29 1764.34,1181.37 1764.91,1177.83 1765.47,1178.17 1766.04,1183.88 1766.6,1185.15 1767.17,1175.7 1767.73,1166.03 1768.3,1170.99 1768.86,1187.93 1769.43,1198.74 1769.99,1194.23 1770.55,1184.66 1771.12,1182.58 1771.68,1185.97 1772.25,1186.17 1772.81,1184.22 1773.38,1188.41 1773.94,1199.16 1774.51,1207.33 1775.07,1207.66 1775.64,1204.8 1776.2,1204.23 1776.77,1205.74 1777.33,1208.88 1777.9,1215.9 1778.46,1224.04 1779.03,1222.99 1779.59,1208.84 1780.15,1194.98 1780.72,1198.26 1781.28,1216.12 1781.85,1228.45 1782.41,1224.11 1782.98,1214.47 1783.54,1215.8 1784.11,1227.29 1784.67,1234.79 1785.24,1230.28 1785.8,1218.23 1786.37,1205.73 1786.93,1196.51 1787.5,1194.1 1788.06,1200.71 1788.63,1210.25 1789.19,1211.26 1789.75,1201.42 1790.32,1192.15 1790.88,1192.99 1791.45,1198.32 1792.01,1197.58 1792.58,1193.06 1793.14,1196.45 1793.71,1209.05 1794.27,1217.66 1794.84,1213.54 1795.4,1205.22 1795.97,1205.7 1796.53,1214.76 1797.66,1225.8 1798.79,1239.1 1799.35,1246.93 1799.92,1249.38 1800.48,1247.89 1801.05,1244.12 1801.61,1236.9 1802.18,1228.9 1802.74,1228.47 1803.31,1237.72 1803.87,1244.81 1804.44,1237.55 1805,1221.67 1805.57,1215.35 1806.13,1225.39 1806.7,1239.1 1807.26,1242.97 1807.82,1239.93 1808.39,1241.17 1808.95,1248.17 1809.52,1252.17 1810.08,1248.16 1810.65,1240.15 1811.21,1233.04 1811.78,1227.75 1812.34,1225.38 1812.91,1227.6 1813.47,1230.27 1814.04,1225.03 1814.6,1212.39 1815.17,1206.28 1815.73,1217.39 1816.3,1236.85 1816.86,1245.51 1817.42,1237.68 1817.99,1226.12 1818.55,1222.92 1819.12,1225.96 1819.68,1228.35 1820.25,1231.44 1820.81,1240.17 1821.38,1251.09 1821.94,1255.17 1822.51,1251.14 1823.07,1247.42 1823.64,1250.06 1824.2,1256.45 1824.77,1262.14 1825.33,1266.47 1825.9,1268.37 1826.46,1264.27 1827.02,1255.87 1827.59,1253.43 1828.15,1263.47 1828.72,1276.8 1829.28,1278.16 1829.85,1266.83 1830.41,1257.91 1830.98,1261.31 1831.54,1268.61 1832.11,1266.04 1832.67,1253.1 1833.19,1241.47 1833.72,1236.48 1834.24,1236.97 1834.76,1239.82 1835.29,1244.16 1835.81,1249.2 1836.33,1252.15 1836.85,1251.77 1837.38,1251.87 1837.9,1256.75 1838.42,1263.7 1838.95,1264.4 1839.47,1255.75 1839.99,1245.77 1840.51,1244.95 1841.04,1253.29 1841.56,1260.41 1842.08,1258.8 1842.61,1252.77 1843.13,1251.67 1843.65,1257.29 1844.17,1262.55 1844.7,1261.76 1845.22,1257.52 1845.74,1255.73 1846.27,1257.49 1846.79,1259.47 1847.31,1260.43 1847.83,1262.95 1848.36,1268.27 1848.88,1273.54 1849.4,1276.21 1849.93,1278.35 1850.45,1283.12 1850.97,1288.5 1851.49,1289.01 1852.02,1284.18 1852.54,1281.09 1853.06,1285.66 1853.59,1293.76 1854.11,1295.56 1854.63,1288.28 1855.15,1280.31 1855.68,1280.65 1856.2,1287.57 1856.72,1291.03 1857.25,1285 1857.77,1273.69 1858.29,1265.19 1858.81,1262.91 1859.34,1264.89 1859.86,1268.35 1860.38,1271.08 1860.91,1269.94 1861.43,1262.94 1861.95,1254.14 1862.47,1252.55 1863,1262.51 1863.52,1276.75 1864.04,1283.02 1864.57,1277.86 1865.09,1270.22 1865.61,1270.08 1866.13,1276.59 1866.66,1280.7 1867.18,1277.45 1867.7,1271.25 1868.23,1268.52 1868.75,1269.48 1869.27,1270.34 1869.79,1270.76 1870.32,1274.68 1870.84,1283.55 1871.36,1292.76 1871.89,1296.71 1872.41,1295.08 1872.93,1291.56 1873.46,1288.53 1873.98,1286.23 1874.5,1286.56 1875.02,1292.97 1875.55,1304.24 1876.07,1311.77 1876.59,1307.34 1877.12,1293.29 1877.64,1281.33 1878.16,1280.01 1878.68,1286.31 1879.21,1291.63 1879.73,1293.34 1880.25,1296.59 1880.78,1305.07 1881.3,1314.55 1881.82,1317.65 1882.34,1312.6 1882.87,1304.21 1883.39,1297.61 1883.91,1294.2 1884.44,1293.54 1884.96,1295.33 1885.48,1297.5 1886,1295.39 1886.53,1286.91 1887.05,1277.5 1887.57,1275.96 1888.1,1283.68 1888.62,1291.32 1889.14,1288.96 1889.66,1277.95 1890.19,1269.31 1890.71,1270.59 1891.23,1278.03 1891.76,1282.99 1892.28,1282.99 1892.8,1282.84 1893.32,1286.54 1893.85,1292.34 1894.37,1296.64 1894.89,1299.32 1895.42,1302.29 1895.94,1304.93 1896.46,1304.68 1896.98,1301.93 1897.51,1300.86 1898.03,1303.93 1898.55,1308.22 1899.08,1309.67 1899.6,1309.12 1900.11,1310.67 1900.63,1314.5 1901.14,1315.37 1901.66,1309.72 1902.18,1301.96 1902.69,1300.46 1903.21,1307.32 1903.72,1315.38 1904.24,1316.65 1904.75,1311.61 1905.27,1307.92 1905.78,1310.92 1906.3,1318.24 1906.81,1323.75 1907.33,1324.09 1907.85,1319.93 1908.36,1313.18 1908.88,1306.06 1909.39,1302.21 1909.91,1304.96 1910.42,1312.72 1910.94,1318.37 1911.45,1316.24 1911.97,1309.13 1912.49,1305.5 1913,1309.25 1913.52,1314.64 1914.03,1313.32 1914.55,1304.62 1915.06,1296.02 1915.58,1293.76 1916.09,1296.11 1916.61,1297.27 1917.12,1295.55 1917.64,1294.52 1918.16,1297.02 1918.67,1301.15 1919.19,1303.46 1919.7,1303.68 1920.22,1304 1921.25,1304.88 1922.28,1305.82 1922.79,1311.32 1923.31,1316.66 1923.83,1316.28 1924.34,1310.49 1924.86,1306.2 1925.37,1309 1925.89,1316.59 1926.4,1322.23 1926.92,1323.57 1927.43,1324.9 1927.95,1330.26 1928.47,1337.15 1928.98,1339.51 1929.5,1335.61 1930.01,1330.15 1930.53,1328.32 1931.04,1330.1 1931.56,1331.64 1932.07,1330.37 1932.59,1326.74 1933.1,1321.98 1933.62,1317.1 1934.14,1314.4 1934.65,1317.07 1935.17,1324.74 1935.68,1330.95 1936.2,1328.6 1936.71,1318.4 1937.23,1309.78 1937.74,1311.27 1938.26,1321.34 1938.77,1330.53 1939.29,1332.15 1939.81,1328.3 1940.32,1325.16 1940.84,1325.01 1941.87,1323.86 1942.9,1320.93 1943.41,1319.76 1943.93,1316.35 1944.44,1311.56 1944.96,1308.35 1945.48,1307.44 1945.99,1306.4 1946.51,1304.05 1947.02,1303.47 1947.54,1308.27 1948.05,1316.76 1948.57,1322.7 1949.08,1322.73 1949.6,1320.48 1950.12,1321.59 1950.63,1325.9 1951.15,1327.77 1951.66,1324.01 1952.18,1318.87 1952.69,1319.17 1953.21,1325.99 1953.72,1333.64 1954.24,1336.58 1954.75,1335.07 1955.27,1333.34 1955.79,1334.24 1956.3,1337.53 1956.82,1342.06 1957.33,1346.86 1957.85,1349.78 1958.36,1347.89 1958.88,1341.19 1959.39,1334.58 1959.91,1333.51 1960.42,1337.69 1960.94,1341.18 1961.46,1339.81 1961.97,1336.35 1962.49,1336.59 1963,1341.18 1963.52,1344.25 1964.03,1340.65 1964.55,1332.48 1965.06,1326.64 1965.58,1327.06 1966.08,1331.32 1966.58,1335.14 1967.08,1336.48 1967.58,1335.5 1968.08,1332.4 1968.58,1327.41 1969.08,1322.6 1969.58,1321.45 1970.08,1325.13 1970.58,1330.24 1971.09,1332.08 1971.59,1330.05 1972.09,1328.29 1972.59,1330.32 1973.09,1334.31 1973.59,1335.33 1974.09,1331.78 1974.59,1327.5 1975.09,1326.92 1975.59,1329.45 1976.09,1330.57 1976.59,1328.08 1977.09,1325.16 1977.59,1326.33 1978.09,1331.5 1978.59,1335.77 1979.09,1334.92 1979.59,1329.7 1980.09,1324.34 1980.59,1322.19 1981.09,1324.01 1981.6,1329.37 1982.1,1337.38 1982.6,1345.39 1983.1,1349.1 1983.6,1346.16 1984.1,1339.84 1984.6,1336.96 1985.1,1341.24 1985.6,1349.24 1986.1,1354.19 1986.6,1353.47 1987.1,1350.89 1987.6,1351.59 1988.1,1355.95 1988.6,1359.78 1989.1,1359.67 1989.6,1356.39 1990.6,1350.11 1991.61,1344.15 1992.61,1340.42 1993.61,1338.56 1994.11,1337.85 1994.61,1339.74 1995.11,1343.77 1995.61,1346.19 1996.11,1344.04 1996.61,1339.32 1997.11,1337.27 1997.61,1340.34 1998.11,1345.17 1998.61,1346.58 1999.11,1343.68 1999.61,1340.37 2000.11,1340 2000.61,1341.09 2001.11,1339.74 2001.61,1335.04 2002.12,1330.56 2002.62,1330.07 2003.12,1333.29 2003.62,1336.85 2004.62,1338.54 2005.62,1338.08 2006.12,1337.45 2006.62,1337.92 2007.12,1341.05 2007.62,1345.56 2008.12,1347.47 2008.62,1344.56 2009.12,1339.88 2009.62,1338.89 2010.12,1343.13 2010.62,1347.92 2011.12,1347.58 2011.62,1342.06 2012.13,1337.2 2012.63,1338.23 2013.13,1344.49 2013.63,1350.89 2014.13,1353.64 2014.63,1353.27 2015.13,1352.48 2015.63,1352.9 2016.13,1354.66 2016.63,1357.65 2017.13,1361.47 2017.63,1364.3 2018.13,1363.59 2018.63,1359.1 2019.13,1354.39 2019.63,1353.76 2020.13,1357.71 2020.63,1362.36 2021.13,1363.89 2021.63,1362.46 2022.64,1360.24 2023.64,1353.86 2024.14,1348.55 2024.64,1346.53 2025.14,1348.84 2025.64,1351.89 2026.14,1351.42 2026.64,1347.19 2027.14,1342.82 2027.64,1341.58 2028.14,1343.43 2028.64,1346.37 2029.14,1348.95 2029.64,1350.52 2030.16,1349.87 2030.67,1345.75 2031.18,1339.74 2031.69,1336.28 2032.21,1338.39 2032.72,1343.82 2033.23,1347.36 2033.75,1347.19 2034.26,1347.05 2034.77,1351.02 2035.29,1357.52 2035.8,1360.43 2036.31,1356.21 2036.83,1348.06 2037.34,1342.2 2037.85,1341.25 2038.36,1342.82 2038.88,1343.75 2039.39,1343.66 2039.9,1343.93 2040.93,1346.39 2041.96,1351.41 2042.47,1354.82 2042.98,1355.76 2043.5,1353.22 2044.01,1350.38 2044.52,1351.82 2045.03,1357.96 2045.55,1364.11 2046.06,1365.63 2046.57,1363.02 2047.09,1360.68 2047.6,1361.33 2048.11,1363.41 2049.14,1363.98 2050.16,1366.81 2050.68,1368.27 2051.19,1367.25 2051.7,1364.87 2052.22,1363.58 2053.24,1365.02 2054.27,1364.64 2054.78,1363.55 2055.3,1361.06 2055.81,1357.17 2056.32,1354.45 2056.83,1355.9 2057.35,1360.79 2057.86,1364.28 2058.37,1362.56 2058.89,1357.43 2059.4,1354.26 2059.91,1355.37 2060.43,1357.12 2060.94,1354.45 2061.45,1347.09 2061.97,1340 2062.48,1337.94 2062.99,1341.19 2063.5,1346.75 2064.02,1351.87 2064.53,1355.29 2065.04,1356.21 2065.56,1354.34 2066.07,1351.45 2066.58,1351.02 2067.1,1354.66 2067.61,1359.65 2068.12,1361.5 2068.64,1359.14 2069.15,1356.08 2069.66,1355.79 2070.17,1357.29 2070.69,1356.89 2072.74,1354.84 2074.79,1352.94 2075.31,1355.32 2075.82,1358.27 2076.33,1360.28 2076.84,1361.7 2077.87,1363.97 2078.9,1364.29 2079.41,1366.5 2079.92,1369.78 2080.44,1371.42 2080.95,1370.22 2081.46,1368.29 2081.97,1368.4 2082.49,1370.36 2083,1371.34 2083.51,1370.11 2084.03,1368.99 2084.54,1370.9 2085.05,1375.04 2085.57,1377.28 2086.08,1374.7 2086.59,1368.79 2087.11,1363.54 2087.62,1361.49 2088.13,1362.28 2088.64,1364.32 2089.16,1366.14 2089.67,1366.3 2090.18,1363.6 2090.7,1358.82 2091.21,1355.36 2091.72,1356.26 2092.24,1360.5 2092.75,1363.52 2093.26,1362.23 2093.78,1358.67 2094.29,1357.44 2094.8,1360.02 2095.31,1363.19 2096.44,1359.8 2097.56,1357.92 2098.69,1355.85 2099.81,1356.33 2102.06,1358.27 2104.31,1359.45 2108.81,1362.73 2113.3,1368.77 2114.43,1372.44 2115.55,1373.26 2116.11,1372.48 2116.68,1374.3 2117.24,1378.18 2117.8,1380.1 2118.36,1378 2118.92,1374.82 2119.49,1374.14 2120.05,1375.21 2121.17,1371.84 2122.3,1369.69 2123.42,1369.03 2124.55,1365.61 2125.67,1363.15 2126.79,1365.61 2127.36,1368.16 2127.92,1367.86 2128.48,1365.15 2129.04,1363.39 2129.6,1363.73 2130.17,1363.8 2130.73,1362.47 2131.29,1362.66 2131.85,1366.64 2132.41,1370.99 2132.98,1369.92 2133.54,1363.22 2134.1,1357.19 2134.66,1357.12 2135.23,1361.49 2135.79,1365.08 2136.35,1365.03 2136.91,1362.03 2137.47,1357.91 2138.04,1354.84 2138.6,1355.54 2139.16,1360.85 2139.72,1367.19 2140.28,1369.46 2140.85,1367.17 2141.41,1364.97 2141.97,1366.02 2142.53,1367.58 2143.1,1365.54 2143.66,1360.98 2144.22,1358.98 2144.78,1361.65 2145.34,1365.83 2145.91,1368.14 2146.47,1369.18 2147.03,1371.2 2148.15,1376.24 2149.28,1377.23 2151.53,1375.52 2153.78,1376.06 2156.02,1377.27 2158.27,1375.82 2160.52,1370.88 2162.77,1366.88 2163.89,1368.49 2165.02,1370.3 2165.58,1367.08 2166.14,1365.73 2166.7,1369.18 2167.27,1374.15 2168.08,1373.75 2168.9,1368.12 2169.72,1368.75 2170.53,1370.61 2171.35,1368.15 2172.17,1364.09 2172.98,1359.35 2173.8,1358.4 2174.62,1362.89 2175.43,1364.78 2176.25,1364.11 2177.07,1365.07 2177.88,1362.98 2178.7,1361.24 2179.52,1366.96 2180.33,1370.99 2181.15,1369.42 2181.96,1372.35 2182.78,1376.96 2183.6,1374.76 2184.41,1371.21 2185.23,1372.23 2186.05,1376.46 2186.86,1380.57 2187.68,1380.12 2188.5,1377.57 2189.31,1378.69 2190.13,1379.36 2191.76,1379.91 2193.4,1379.37 2195.03,1378.8 2196.66,1374.9 2197.48,1373.54 2198.3,1374.61 2199.11,1378.33 2199.93,1378.44 2200.75,1374.23 2201.56,1373.37 2202.38,1374.15 2203.2,1373.04 2204.01,1374.78 2204.83,1375.93 2205.65,1371.45 2206.46,1370.01 2207.28,1373.5 2208.1,1372.64 2208.91,1368.14 2209.73,1365.15 2210.54,1363.95 2211.36,1365.17 2212.18,1365.3 2212.99,1363.34 2213.81,1367.03 2214.63,1371.11 2215.44,1363.75 2216.26,1356.57 2217.08,1362.44 2217.89,1370.24 2218.71,1371.76 2219.53,1372.3 2221.16,1374.61 2222.79,1378.31 2223.61,1378.93 2224.43,1380.6 2225.24,1379.52 2226.06,1377.77 2227.69,1377.06 2229.33,1377.92 2230.96,1380.73 2232.59,1382.17 2234.23,1382.17 2235.86,1379.98 2236.68,1379.65 2237.49,1377.77 2238.31,1377.72 2239.13,1381.16 2239.94,1380.87 2240.76,1377.84 2241.57,1379.6 2242.39,1381.36 2243.21,1377.51 2244.02,1373.2 2244.84,1371.87 2245.66,1372.88 2247.29,1371.42 2248.92,1371.41 2249.74,1371.55 2250.56,1366.57 2251.37,1365.21 2252.19,1365.35 2253.01,1363.05 2253.82,1365.74 2254.64,1371.16 2255.46,1370.19 2256.27,1368.27 2257.09,1371.45 2257.91,1375.15 2258.72,1376.5 2261.99,1376.61 2265.26,1378.25 2268.52,1378.18 2271.79,1381.46 2274.47,1383.28 2277.15,1384.22 2279.83,1381.79 2282.51,1380.32 2283.85,1378.77 2285.19,1379.26 2285.86,1380.74 2286.53,1380.02 2287.2,1375.49 2287.87,1372.1 2288.21,1372.57 2288.54,1374.28 2288.88,1376.31 2289.21,1377.54 2289.55,1377.25 2289.88,1375.4 2290.22,1372.69 2290.55,1370.12 2291.22,1368.27 2291.89,1370.49 2292.56,1372.94 2293.23,1373.88 "/>
<polyline clip-path="url(#clip432)" style="stroke:#e26f46; stroke-linecap:round; stroke-linejoin:round; stroke-width:4; stroke-opacity:1; fill:none" points="969.579,2799.12 969.579,-1328.69 "/>
<polyline clip-path="url(#clip432)" style="stroke:#3da44d; stroke-linecap:round; stroke-linejoin:round; stroke-width:4; stroke-opacity:1; fill:none" points="1616.91,2799.12 1616.91,-1328.69 "/>
<path clip-path="url(#clip430)" d="M1855.69 300.469 L2282.65 300.469 L2282.65 93.1086 L1855.69 93.1086  Z" fill="#ffffff" fill-rule="evenodd" fill-opacity="1"/>
<polyline clip-path="url(#clip430)" style="stroke:#000000; stroke-linecap:round; stroke-linejoin:round; stroke-width:4; stroke-opacity:1; fill:none" points="1855.69,300.469 2282.65,300.469 2282.65,93.1086 1855.69,93.1086 1855.69,300.469 "/>
<polyline clip-path="url(#clip430)" style="stroke:#009af9; stroke-linecap:round; stroke-linejoin:round; stroke-width:4; stroke-opacity:1; fill:none" points="1879.05,144.949 2019.27,144.949 "/>
<path clip-path="url(#clip430)" d="M2042.64 126.21 L2046.92 126.21 L2046.92 147.483 L2059.63 136.303 L2065.07 136.303 L2051.32 148.432 L2065.65 162.229 L2060.09 162.229 L2046.92 149.567 L2046.92 162.229 L2042.64 162.229 L2042.64 126.21 Z" fill="#000000" fill-rule="evenodd" fill-opacity="1" /><path clip-path="url(#clip430)" d="M2070.81 140.701 L2100.48 140.701 L2100.48 144.59 L2070.81 144.59 L2070.81 140.701 M2070.81 150.145 L2100.48 150.145 L2100.48 154.081 L2070.81 154.081 L2070.81 150.145 Z" fill="#000000" fill-rule="evenodd" fill-opacity="1" /><path clip-path="url(#clip430)" d="M2120.58 130.747 Q2116.97 130.747 2115.14 134.312 Q2113.33 137.854 2113.33 144.983 Q2113.33 152.09 2115.14 155.655 Q2116.97 159.196 2120.58 159.196 Q2124.21 159.196 2126.02 155.655 Q2127.85 152.09 2127.85 144.983 Q2127.85 137.854 2126.02 134.312 Q2124.21 130.747 2120.58 130.747 M2120.58 127.044 Q2126.39 127.044 2129.44 131.65 Q2132.52 136.233 2132.52 144.983 Q2132.52 153.71 2129.44 158.317 Q2126.39 162.9 2120.58 162.9 Q2114.77 162.9 2111.69 158.317 Q2108.63 153.71 2108.63 144.983 Q2108.63 136.233 2111.69 131.65 Q2114.77 127.044 2120.58 127.044 Z" fill="#000000" fill-rule="evenodd" fill-opacity="1" /><path clip-path="url(#clip430)" d="M2140.74 156.349 L2145.62 156.349 L2145.62 162.229 L2140.74 162.229 L2140.74 156.349 Z" fill="#000000" fill-rule="evenodd" fill-opacity="1" /><path clip-path="url(#clip430)" d="M2165.81 130.747 Q2162.2 130.747 2160.37 134.312 Q2158.56 137.854 2158.56 144.983 Q2158.56 152.09 2160.37 155.655 Q2162.2 159.196 2165.81 159.196 Q2169.44 159.196 2171.25 155.655 Q2173.08 152.09 2173.08 144.983 Q2173.08 137.854 2171.25 134.312 Q2169.44 130.747 2165.81 130.747 M2165.81 127.044 Q2171.62 127.044 2174.67 131.65 Q2177.75 136.233 2177.75 144.983 Q2177.75 153.71 2174.67 158.317 Q2171.62 162.9 2165.81 162.9 Q2160 162.9 2156.92 158.317 Q2153.86 153.71 2153.86 144.983 Q2153.86 136.233 2156.92 131.65 Q2160 127.044 2165.81 127.044 Z" fill="#000000" fill-rule="evenodd" fill-opacity="1" /><polyline clip-path="url(#clip430)" style="stroke:#e26f46; stroke-linecap:round; stroke-linejoin:round; stroke-width:4; stroke-opacity:1; fill:none" points="1879.05,196.789 2019.27,196.789 "/>
<path clip-path="url(#clip430)" d="M2062.98 193.12 Q2064.58 190.249 2066.8 188.884 Q2069.03 187.518 2072.04 187.518 Q2076.09 187.518 2078.29 190.365 Q2080.48 193.189 2080.48 198.421 L2080.48 214.069 L2076.2 214.069 L2076.2 198.559 Q2076.2 194.833 2074.88 193.027 Q2073.56 191.222 2070.85 191.222 Q2067.54 191.222 2065.62 193.421 Q2063.7 195.62 2063.7 199.416 L2063.7 214.069 L2059.42 214.069 L2059.42 198.559 Q2059.42 194.809 2058.1 193.027 Q2056.78 191.222 2054.03 191.222 Q2050.76 191.222 2048.84 193.444 Q2046.92 195.643 2046.92 199.416 L2046.92 214.069 L2042.64 214.069 L2042.64 188.143 L2046.92 188.143 L2046.92 192.171 Q2048.38 189.786 2050.42 188.652 Q2052.45 187.518 2055.25 187.518 Q2058.08 187.518 2060.04 188.953 Q2062.04 190.388 2062.98 193.12 Z" fill="#000000" fill-rule="evenodd" fill-opacity="1" /><path clip-path="url(#clip430)" d="M2111.16 200.041 L2111.16 202.124 L2091.57 202.124 Q2091.85 206.522 2094.21 208.837 Q2096.6 211.129 2100.83 211.129 Q2103.29 211.129 2105.58 210.527 Q2107.89 209.925 2110.16 208.721 L2110.16 212.749 Q2107.87 213.721 2105.46 214.231 Q2103.05 214.74 2100.58 214.74 Q2094.37 214.74 2090.74 211.129 Q2087.13 207.518 2087.13 201.36 Q2087.13 194.995 2090.55 191.268 Q2094 187.518 2099.84 187.518 Q2105.07 187.518 2108.1 190.897 Q2111.16 194.254 2111.16 200.041 M2106.9 198.791 Q2106.85 195.296 2104.93 193.212 Q2103.03 191.129 2099.88 191.129 Q2096.32 191.129 2094.16 193.143 Q2092.04 195.157 2091.71 198.814 L2106.9 198.791 Z" fill="#000000" fill-rule="evenodd" fill-opacity="1" /><path clip-path="url(#clip430)" d="M2135.21 192.078 L2135.21 178.05 L2139.47 178.05 L2139.47 214.069 L2135.21 214.069 L2135.21 210.18 Q2133.86 212.495 2131.8 213.629 Q2129.77 214.74 2126.9 214.74 Q2122.2 214.74 2119.23 210.99 Q2116.29 207.24 2116.29 201.129 Q2116.29 195.018 2119.23 191.268 Q2122.2 187.518 2126.9 187.518 Q2129.77 187.518 2131.8 188.652 Q2133.86 189.763 2135.21 192.078 M2120.69 201.129 Q2120.69 205.828 2122.61 208.513 Q2124.56 211.175 2127.94 211.175 Q2131.32 211.175 2133.26 208.513 Q2135.21 205.828 2135.21 201.129 Q2135.21 196.43 2133.26 193.768 Q2131.32 191.083 2127.94 191.083 Q2124.56 191.083 2122.61 193.768 Q2120.69 196.43 2120.69 201.129 Z" fill="#000000" fill-rule="evenodd" fill-opacity="1" /><path clip-path="url(#clip430)" d="M2148.24 188.143 L2152.5 188.143 L2152.5 214.069 L2148.24 214.069 L2148.24 188.143 M2148.24 178.05 L2152.5 178.05 L2152.5 183.444 L2148.24 183.444 L2148.24 178.05 Z" fill="#000000" fill-rule="evenodd" fill-opacity="1" /><path clip-path="url(#clip430)" d="M2173.19 201.036 Q2168.03 201.036 2166.04 202.217 Q2164.05 203.397 2164.05 206.245 Q2164.05 208.513 2165.53 209.856 Q2167.03 211.175 2169.6 211.175 Q2173.15 211.175 2175.28 208.675 Q2177.43 206.152 2177.43 201.985 L2177.43 201.036 L2173.19 201.036 M2181.69 199.277 L2181.69 214.069 L2177.43 214.069 L2177.43 210.133 Q2175.97 212.495 2173.79 213.629 Q2171.62 214.74 2168.47 214.74 Q2164.49 214.74 2162.13 212.518 Q2159.79 210.272 2159.79 206.522 Q2159.79 202.147 2162.71 199.925 Q2165.65 197.703 2171.46 197.703 L2177.43 197.703 L2177.43 197.286 Q2177.43 194.347 2175.48 192.749 Q2173.56 191.129 2170.07 191.129 Q2167.85 191.129 2165.74 191.661 Q2163.63 192.194 2161.69 193.259 L2161.69 189.323 Q2164.03 188.421 2166.22 187.981 Q2168.42 187.518 2170.51 187.518 Q2176.13 187.518 2178.91 190.434 Q2181.69 193.351 2181.69 199.277 Z" fill="#000000" fill-rule="evenodd" fill-opacity="1" /><path clip-path="url(#clip430)" d="M2212.01 198.421 L2212.01 214.069 L2207.75 214.069 L2207.75 198.559 Q2207.75 194.879 2206.32 193.05 Q2204.88 191.222 2202.01 191.222 Q2198.56 191.222 2196.57 193.421 Q2194.58 195.62 2194.58 199.416 L2194.58 214.069 L2190.3 214.069 L2190.3 188.143 L2194.58 188.143 L2194.58 192.171 Q2196.11 189.833 2198.17 188.675 Q2200.25 187.518 2202.96 187.518 Q2207.43 187.518 2209.72 190.296 Q2212.01 193.05 2212.01 198.421 Z" fill="#000000" fill-rule="evenodd" fill-opacity="1" /><polyline clip-path="url(#clip430)" style="stroke:#3da44d; stroke-linecap:round; stroke-linejoin:round; stroke-width:4; stroke-opacity:1; fill:none" points="1879.05,248.629 2019.27,248.629 "/>
<path clip-path="url(#clip430)" d="M2062.98 244.96 Q2064.58 242.089 2066.8 240.724 Q2069.03 239.358 2072.04 239.358 Q2076.09 239.358 2078.29 242.205 Q2080.48 245.029 2080.48 250.261 L2080.48 265.909 L2076.2 265.909 L2076.2 250.399 Q2076.2 246.673 2074.88 244.867 Q2073.56 243.062 2070.85 243.062 Q2067.54 243.062 2065.62 245.261 Q2063.7 247.46 2063.7 251.256 L2063.7 265.909 L2059.42 265.909 L2059.42 250.399 Q2059.42 246.649 2058.1 244.867 Q2056.78 243.062 2054.03 243.062 Q2050.76 243.062 2048.84 245.284 Q2046.92 247.483 2046.92 251.256 L2046.92 265.909 L2042.64 265.909 L2042.64 239.983 L2046.92 239.983 L2046.92 244.011 Q2048.38 241.626 2050.42 240.492 Q2052.45 239.358 2055.25 239.358 Q2058.08 239.358 2060.04 240.793 Q2062.04 242.228 2062.98 244.96 Z" fill="#000000" fill-rule="evenodd" fill-opacity="1" /><path clip-path="url(#clip430)" d="M2088.98 239.983 L2093.24 239.983 L2093.24 265.909 L2088.98 265.909 L2088.98 239.983 M2088.98 229.89 L2093.24 229.89 L2093.24 235.284 L2088.98 235.284 L2088.98 229.89 Z" fill="#000000" fill-rule="evenodd" fill-opacity="1" /><path clip-path="url(#clip430)" d="M2123.7 250.261 L2123.7 265.909 L2119.44 265.909 L2119.44 250.399 Q2119.44 246.719 2118.01 244.89 Q2116.57 243.062 2113.7 243.062 Q2110.25 243.062 2108.26 245.261 Q2106.27 247.46 2106.27 251.256 L2106.27 265.909 L2101.99 265.909 L2101.99 239.983 L2106.27 239.983 L2106.27 244.011 Q2107.8 241.673 2109.86 240.515 Q2111.94 239.358 2114.65 239.358 Q2119.12 239.358 2121.41 242.136 Q2123.7 244.89 2123.7 250.261 Z" fill="#000000" fill-rule="evenodd" fill-opacity="1" /><path clip-path="url(#clip430)" d="M2132.2 239.983 L2136.46 239.983 L2136.46 265.909 L2132.2 265.909 L2132.2 239.983 M2132.2 229.89 L2136.46 229.89 L2136.46 235.284 L2132.2 235.284 L2132.2 229.89 Z" fill="#000000" fill-rule="evenodd" fill-opacity="1" /><path clip-path="url(#clip430)" d="M2165.55 244.96 Q2167.15 242.089 2169.37 240.724 Q2171.6 239.358 2174.6 239.358 Q2178.66 239.358 2180.85 242.205 Q2183.05 245.029 2183.05 250.261 L2183.05 265.909 L2178.77 265.909 L2178.77 250.399 Q2178.77 246.673 2177.45 244.867 Q2176.13 243.062 2173.42 243.062 Q2170.11 243.062 2168.19 245.261 Q2166.27 247.46 2166.27 251.256 L2166.27 265.909 L2161.99 265.909 L2161.99 250.399 Q2161.99 246.649 2160.67 244.867 Q2159.35 243.062 2156.6 243.062 Q2153.33 243.062 2151.41 245.284 Q2149.49 247.483 2149.49 251.256 L2149.49 265.909 L2145.21 265.909 L2145.21 239.983 L2149.49 239.983 L2149.49 244.011 Q2150.95 241.626 2152.98 240.492 Q2155.02 239.358 2157.82 239.358 Q2160.65 239.358 2162.61 240.793 Q2164.6 242.228 2165.55 244.96 Z" fill="#000000" fill-rule="evenodd" fill-opacity="1" /><path clip-path="url(#clip430)" d="M2191.11 255.677 L2191.11 239.983 L2195.37 239.983 L2195.37 255.515 Q2195.37 259.196 2196.8 261.048 Q2198.24 262.876 2201.11 262.876 Q2204.56 262.876 2206.55 260.677 Q2208.56 258.478 2208.56 254.682 L2208.56 239.983 L2212.82 239.983 L2212.82 265.909 L2208.56 265.909 L2208.56 261.927 Q2207.01 264.288 2204.95 265.446 Q2202.91 266.58 2200.21 266.58 Q2195.74 266.58 2193.42 263.802 Q2191.11 261.024 2191.11 255.677 M2201.83 239.358 L2201.83 239.358 Z" fill="#000000" fill-rule="evenodd" fill-opacity="1" /><path clip-path="url(#clip430)" d="M2241.78 244.96 Q2243.38 242.089 2245.6 240.724 Q2247.82 239.358 2250.83 239.358 Q2254.88 239.358 2257.08 242.205 Q2259.28 245.029 2259.28 250.261 L2259.28 265.909 L2255 265.909 L2255 250.399 Q2255 246.673 2253.68 244.867 Q2252.36 243.062 2249.65 243.062 Q2246.34 243.062 2244.42 245.261 Q2242.5 247.46 2242.5 251.256 L2242.5 265.909 L2238.22 265.909 L2238.22 250.399 Q2238.22 246.649 2236.9 244.867 Q2235.58 243.062 2232.82 243.062 Q2229.56 243.062 2227.64 245.284 Q2225.72 247.483 2225.72 251.256 L2225.72 265.909 L2221.43 265.909 L2221.43 239.983 L2225.72 239.983 L2225.72 244.011 Q2227.17 241.626 2229.21 240.492 Q2231.25 239.358 2234.05 239.358 Q2236.87 239.358 2238.84 240.793 Q2240.83 242.228 2241.78 244.96 Z" fill="#000000" fill-rule="evenodd" fill-opacity="1" /></svg>
