<?xml version="1.0" encoding="utf-8"?>
<svg xmlns="http://www.w3.org/2000/svg" xmlns:xlink="http://www.w3.org/1999/xlink" width="600" height="400" viewBox="0 0 2400 1600">
<defs>
  <clipPath id="clip330">
    <rect x="0" y="0" width="2400" height="1600"/>
  </clipPath>
</defs>
<path clip-path="url(#clip330)" d="M0 1600 L2400 1600 L2400 0 L0 0  Z" fill="#ffffff" fill-rule="evenodd" fill-opacity="1"/>
<defs>
  <clipPath id="clip331">
    <rect x="480" y="0" width="1681" height="1600"/>
  </clipPath>
</defs>
<path clip-path="url(#clip330)" d="M249.542 1423.18 L2352.76 1423.18 L2352.76 47.2441 L249.542 47.2441  Z" fill="#ffffff" fill-rule="evenodd" fill-opacity="1"/>
<defs>
  <clipPath id="clip332">
    <rect x="249" y="47" width="2104" height="1377"/>
  </clipPath>
</defs>
<polyline clip-path="url(#clip332)" style="stroke:#000000; stroke-linecap:round; stroke-linejoin:round; stroke-width:2; stroke-opacity:0.1; fill:none" points="459.277,1423.18 459.277,47.2441 "/>
<polyline clip-path="url(#clip332)" style="stroke:#000000; stroke-linecap:round; stroke-linejoin:round; stroke-width:2; stroke-opacity:0.1; fill:none" points="854.014,1423.18 854.014,47.2441 "/>
<polyline clip-path="url(#clip332)" style="stroke:#000000; stroke-linecap:round; stroke-linejoin:round; stroke-width:2; stroke-opacity:0.1; fill:none" points="1248.75,1423.18 1248.75,47.2441 "/>
<polyline clip-path="url(#clip332)" style="stroke:#000000; stroke-linecap:round; stroke-linejoin:round; stroke-width:2; stroke-opacity:0.1; fill:none" points="1643.49,1423.18 1643.49,47.2441 "/>
<polyline clip-path="url(#clip332)" style="stroke:#000000; stroke-linecap:round; stroke-linejoin:round; stroke-width:2; stroke-opacity:0.1; fill:none" points="2038.22,1423.18 2038.22,47.2441 "/>
<polyline clip-path="url(#clip330)" style="stroke:#000000; stroke-linecap:round; stroke-linejoin:round; stroke-width:4; stroke-opacity:1; fill:none" points="249.542,1423.18 2352.76,1423.18 "/>
<polyline clip-path="url(#clip330)" style="stroke:#000000; stroke-linecap:round; stroke-linejoin:round; stroke-width:4; stroke-opacity:1; fill:none" points="459.277,1423.18 459.277,1404.28 "/>
<polyline clip-path="url(#clip330)" style="stroke:#000000; stroke-linecap:round; stroke-linejoin:round; stroke-width:4; stroke-opacity:1; fill:none" points="854.014,1423.18 854.014,1404.28 "/>
<polyline clip-path="url(#clip330)" style="stroke:#000000; stroke-linecap:round; stroke-linejoin:round; stroke-width:4; stroke-opacity:1; fill:none" points="1248.75,1423.18 1248.75,1404.28 "/>
<polyline clip-path="url(#clip330)" style="stroke:#000000; stroke-linecap:round; stroke-linejoin:round; stroke-width:4; stroke-opacity:1; fill:none" points="1643.49,1423.18 1643.49,1404.28 "/>
<polyline clip-path="url(#clip330)" style="stroke:#000000; stroke-linecap:round; stroke-linejoin:round; stroke-width:4; stroke-opacity:1; fill:none" points="2038.22,1423.18 2038.22,1404.28 "/>
<path clip-path="url(#clip330)" d="M403.815 1451.02 L422.171 1451.02 L422.171 1454.96 L408.097 1454.96 L408.097 1463.43 Q409.116 1463.08 410.134 1462.92 Q411.153 1462.73 412.171 1462.73 Q417.958 1462.73 421.338 1465.9 Q424.717 1469.08 424.717 1474.49 Q424.717 1480.07 421.245 1483.17 Q417.773 1486.25 411.454 1486.25 Q409.278 1486.25 407.009 1485.88 Q404.764 1485.51 402.356 1484.77 L402.356 1480.07 Q404.44 1481.2 406.662 1481.76 Q408.884 1482.32 411.361 1482.32 Q415.366 1482.32 417.703 1480.21 Q420.041 1478.1 420.041 1474.49 Q420.041 1470.88 417.703 1468.77 Q415.366 1466.67 411.361 1466.67 Q409.486 1466.67 407.611 1467.08 Q405.759 1467.5 403.815 1468.38 L403.815 1451.02 Z" fill="#000000" fill-rule="evenodd" fill-opacity="1" /><path clip-path="url(#clip330)" d="M432.75 1451.02 L454.972 1451.02 L454.972 1453.01 L442.426 1485.58 L437.541 1485.58 L449.347 1454.96 L432.75 1454.96 L432.75 1451.02 Z" fill="#000000" fill-rule="evenodd" fill-opacity="1" /><path clip-path="url(#clip330)" d="M464.138 1451.02 L482.495 1451.02 L482.495 1454.96 L468.421 1454.96 L468.421 1463.43 Q469.439 1463.08 470.458 1462.92 Q471.476 1462.73 472.495 1462.73 Q478.282 1462.73 481.661 1465.9 Q485.041 1469.08 485.041 1474.49 Q485.041 1480.07 481.569 1483.17 Q478.097 1486.25 471.777 1486.25 Q469.601 1486.25 467.333 1485.88 Q465.087 1485.51 462.68 1484.77 L462.68 1480.07 Q464.763 1481.2 466.986 1481.76 Q469.208 1482.32 471.685 1482.32 Q475.689 1482.32 478.027 1480.21 Q480.365 1478.1 480.365 1474.49 Q480.365 1470.88 478.027 1468.77 Q475.689 1466.67 471.685 1466.67 Q469.81 1466.67 467.935 1467.08 Q466.083 1467.5 464.138 1468.38 L464.138 1451.02 Z" fill="#000000" fill-rule="evenodd" fill-opacity="1" /><path clip-path="url(#clip330)" d="M504.254 1454.1 Q500.643 1454.1 498.814 1457.66 Q497.009 1461.2 497.009 1468.33 Q497.009 1475.44 498.814 1479.01 Q500.643 1482.55 504.254 1482.55 Q507.888 1482.55 509.694 1479.01 Q511.522 1475.44 511.522 1468.33 Q511.522 1461.2 509.694 1457.66 Q507.888 1454.1 504.254 1454.1 M504.254 1450.39 Q510.064 1450.39 513.12 1455 Q516.198 1459.58 516.198 1468.33 Q516.198 1477.06 513.12 1481.67 Q510.064 1486.25 504.254 1486.25 Q498.444 1486.25 495.365 1481.67 Q492.31 1477.06 492.31 1468.33 Q492.31 1459.58 495.365 1455 Q498.444 1450.39 504.254 1450.39 Z" fill="#000000" fill-rule="evenodd" fill-opacity="1" /><path clip-path="url(#clip330)" d="M809.258 1466.44 Q806.109 1466.44 804.258 1468.59 Q802.429 1470.74 802.429 1474.49 Q802.429 1478.22 804.258 1480.39 Q806.109 1482.55 809.258 1482.55 Q812.406 1482.55 814.234 1480.39 Q816.086 1478.22 816.086 1474.49 Q816.086 1470.74 814.234 1468.59 Q812.406 1466.44 809.258 1466.44 M818.54 1451.78 L818.54 1456.04 Q816.781 1455.21 814.975 1454.77 Q813.193 1454.33 811.433 1454.33 Q806.804 1454.33 804.35 1457.45 Q801.92 1460.58 801.572 1466.9 Q802.938 1464.89 804.998 1463.82 Q807.058 1462.73 809.535 1462.73 Q814.744 1462.73 817.753 1465.9 Q820.785 1469.05 820.785 1474.49 Q820.785 1479.82 817.637 1483.03 Q814.489 1486.25 809.258 1486.25 Q803.262 1486.25 800.091 1481.67 Q796.92 1477.06 796.92 1468.33 Q796.92 1460.14 800.808 1455.28 Q804.697 1450.39 811.248 1450.39 Q813.007 1450.39 814.79 1450.74 Q816.595 1451.09 818.54 1451.78 Z" fill="#000000" fill-rule="evenodd" fill-opacity="1" /><path clip-path="url(#clip330)" d="M838.841 1454.1 Q835.23 1454.1 833.401 1457.66 Q831.595 1461.2 831.595 1468.33 Q831.595 1475.44 833.401 1479.01 Q835.23 1482.55 838.841 1482.55 Q842.475 1482.55 844.28 1479.01 Q846.109 1475.44 846.109 1468.33 Q846.109 1461.2 844.28 1457.66 Q842.475 1454.1 838.841 1454.1 M838.841 1450.39 Q844.651 1450.39 847.706 1455 Q850.785 1459.58 850.785 1468.33 Q850.785 1477.06 847.706 1481.67 Q844.651 1486.25 838.841 1486.25 Q833.031 1486.25 829.952 1481.67 Q826.896 1477.06 826.896 1468.33 Q826.896 1459.58 829.952 1455 Q833.031 1450.39 838.841 1450.39 Z" fill="#000000" fill-rule="evenodd" fill-opacity="1" /><path clip-path="url(#clip330)" d="M869.003 1454.1 Q865.391 1454.1 863.563 1457.66 Q861.757 1461.2 861.757 1468.33 Q861.757 1475.44 863.563 1479.01 Q865.391 1482.55 869.003 1482.55 Q872.637 1482.55 874.442 1479.01 Q876.271 1475.44 876.271 1468.33 Q876.271 1461.2 874.442 1457.66 Q872.637 1454.1 869.003 1454.1 M869.003 1450.39 Q874.813 1450.39 877.868 1455 Q880.947 1459.58 880.947 1468.33 Q880.947 1477.06 877.868 1481.67 Q874.813 1486.25 869.003 1486.25 Q863.192 1486.25 860.114 1481.67 Q857.058 1477.06 857.058 1468.33 Q857.058 1459.58 860.114 1455 Q863.192 1450.39 869.003 1450.39 Z" fill="#000000" fill-rule="evenodd" fill-opacity="1" /><path clip-path="url(#clip330)" d="M899.164 1454.1 Q895.553 1454.1 893.725 1457.66 Q891.919 1461.2 891.919 1468.33 Q891.919 1475.44 893.725 1479.01 Q895.553 1482.55 899.164 1482.55 Q902.799 1482.55 904.604 1479.01 Q906.433 1475.44 906.433 1468.33 Q906.433 1461.2 904.604 1457.66 Q902.799 1454.1 899.164 1454.1 M899.164 1450.39 Q904.975 1450.39 908.03 1455 Q911.109 1459.58 911.109 1468.33 Q911.109 1477.06 908.03 1481.67 Q904.975 1486.25 899.164 1486.25 Q893.354 1486.25 890.276 1481.67 Q887.22 1477.06 887.22 1468.33 Q887.22 1459.58 890.276 1455 Q893.354 1450.39 899.164 1450.39 Z" fill="#000000" fill-rule="evenodd" fill-opacity="1" /><path clip-path="url(#clip330)" d="M1203.99 1466.44 Q1200.85 1466.44 1198.99 1468.59 Q1197.17 1470.74 1197.17 1474.49 Q1197.17 1478.22 1198.99 1480.39 Q1200.85 1482.55 1203.99 1482.55 Q1207.14 1482.55 1208.97 1480.39 Q1210.82 1478.22 1210.82 1474.49 Q1210.82 1470.74 1208.97 1468.59 Q1207.14 1466.44 1203.99 1466.44 M1213.28 1451.78 L1213.28 1456.04 Q1211.52 1455.21 1209.71 1454.77 Q1207.93 1454.33 1206.17 1454.33 Q1201.54 1454.33 1199.09 1457.45 Q1196.66 1460.58 1196.31 1466.9 Q1197.67 1464.89 1199.74 1463.82 Q1201.8 1462.73 1204.27 1462.73 Q1209.48 1462.73 1212.49 1465.9 Q1215.52 1469.05 1215.52 1474.49 Q1215.52 1479.82 1212.37 1483.03 Q1209.23 1486.25 1203.99 1486.25 Q1198 1486.25 1194.83 1481.67 Q1191.66 1477.06 1191.66 1468.33 Q1191.66 1460.14 1195.55 1455.28 Q1199.43 1450.39 1205.99 1450.39 Q1207.74 1450.39 1209.53 1450.74 Q1211.33 1451.09 1213.28 1451.78 Z" fill="#000000" fill-rule="evenodd" fill-opacity="1" /><path clip-path="url(#clip330)" d="M1227.61 1481.64 L1243.92 1481.64 L1243.92 1485.58 L1221.98 1485.58 L1221.98 1481.64 Q1224.64 1478.89 1229.23 1474.26 Q1233.83 1469.61 1235.01 1468.27 Q1237.26 1465.74 1238.14 1464.01 Q1239.04 1462.25 1239.04 1460.56 Q1239.04 1457.8 1237.1 1456.07 Q1235.17 1454.33 1232.07 1454.33 Q1229.87 1454.33 1227.42 1455.09 Q1224.99 1455.86 1222.21 1457.41 L1222.21 1452.69 Q1225.04 1451.55 1227.49 1450.97 Q1229.94 1450.39 1231.98 1450.39 Q1237.35 1450.39 1240.55 1453.08 Q1243.74 1455.77 1243.74 1460.26 Q1243.74 1462.39 1242.93 1464.31 Q1242.14 1466.2 1240.04 1468.8 Q1239.46 1469.47 1236.36 1472.69 Q1233.25 1475.88 1227.61 1481.64 Z" fill="#000000" fill-rule="evenodd" fill-opacity="1" /><path clip-path="url(#clip330)" d="M1253.79 1451.02 L1272.14 1451.02 L1272.14 1454.96 L1258.07 1454.96 L1258.07 1463.43 Q1259.09 1463.08 1260.11 1462.92 Q1261.12 1462.73 1262.14 1462.73 Q1267.93 1462.73 1271.31 1465.9 Q1274.69 1469.08 1274.69 1474.49 Q1274.69 1480.07 1271.22 1483.17 Q1267.74 1486.25 1261.42 1486.25 Q1259.25 1486.25 1256.98 1485.88 Q1254.73 1485.51 1252.33 1484.77 L1252.33 1480.07 Q1254.41 1481.2 1256.63 1481.76 Q1258.86 1482.32 1261.33 1482.32 Q1265.34 1482.32 1267.67 1480.21 Q1270.01 1478.1 1270.01 1474.49 Q1270.01 1470.88 1267.67 1468.77 Q1265.34 1466.67 1261.33 1466.67 Q1259.46 1466.67 1257.58 1467.08 Q1255.73 1467.5 1253.79 1468.38 L1253.79 1451.02 Z" fill="#000000" fill-rule="evenodd" fill-opacity="1" /><path clip-path="url(#clip330)" d="M1293.9 1454.1 Q1290.29 1454.1 1288.46 1457.66 Q1286.66 1461.2 1286.66 1468.33 Q1286.66 1475.44 1288.46 1479.01 Q1290.29 1482.55 1293.9 1482.55 Q1297.54 1482.55 1299.34 1479.01 Q1301.17 1475.44 1301.17 1468.33 Q1301.17 1461.2 1299.34 1457.66 Q1297.54 1454.1 1293.9 1454.1 M1293.9 1450.39 Q1299.71 1450.39 1302.77 1455 Q1305.85 1459.58 1305.85 1468.33 Q1305.85 1477.06 1302.77 1481.67 Q1299.71 1486.25 1293.9 1486.25 Q1288.09 1486.25 1285.01 1481.67 Q1281.96 1477.06 1281.96 1468.33 Q1281.96 1459.58 1285.01 1455 Q1288.09 1450.39 1293.9 1450.39 Z" fill="#000000" fill-rule="evenodd" fill-opacity="1" /><path clip-path="url(#clip330)" d="M1598.73 1466.44 Q1595.58 1466.44 1593.73 1468.59 Q1591.9 1470.74 1591.9 1474.49 Q1591.9 1478.22 1593.73 1480.39 Q1595.58 1482.55 1598.73 1482.55 Q1601.88 1482.55 1603.71 1480.39 Q1605.56 1478.22 1605.56 1474.49 Q1605.56 1470.74 1603.71 1468.59 Q1601.88 1466.44 1598.73 1466.44 M1608.01 1451.78 L1608.01 1456.04 Q1606.25 1455.21 1604.45 1454.77 Q1602.67 1454.33 1600.91 1454.33 Q1596.28 1454.33 1593.82 1457.45 Q1591.39 1460.58 1591.05 1466.9 Q1592.41 1464.89 1594.47 1463.82 Q1596.53 1462.73 1599.01 1462.73 Q1604.22 1462.73 1607.23 1465.9 Q1610.26 1469.05 1610.26 1474.49 Q1610.26 1479.82 1607.11 1483.03 Q1603.96 1486.25 1598.73 1486.25 Q1592.74 1486.25 1589.56 1481.67 Q1586.39 1477.06 1586.39 1468.33 Q1586.39 1460.14 1590.28 1455.28 Q1594.17 1450.39 1600.72 1450.39 Q1602.48 1450.39 1604.26 1450.74 Q1606.07 1451.09 1608.01 1451.78 Z" fill="#000000" fill-rule="evenodd" fill-opacity="1" /><path clip-path="url(#clip330)" d="M1618.36 1451.02 L1636.72 1451.02 L1636.72 1454.96 L1622.64 1454.96 L1622.64 1463.43 Q1623.66 1463.08 1624.68 1462.92 Q1625.7 1462.73 1626.72 1462.73 Q1632.5 1462.73 1635.88 1465.9 Q1639.26 1469.08 1639.26 1474.49 Q1639.26 1480.07 1635.79 1483.17 Q1632.32 1486.25 1626 1486.25 Q1623.82 1486.25 1621.56 1485.88 Q1619.31 1485.51 1616.9 1484.77 L1616.9 1480.07 Q1618.99 1481.2 1621.21 1481.76 Q1623.43 1482.32 1625.91 1482.32 Q1629.91 1482.32 1632.25 1480.21 Q1634.59 1478.1 1634.59 1474.49 Q1634.59 1470.88 1632.25 1468.77 Q1629.91 1466.67 1625.91 1466.67 Q1624.03 1466.67 1622.16 1467.08 Q1620.31 1467.5 1618.36 1468.38 L1618.36 1451.02 Z" fill="#000000" fill-rule="evenodd" fill-opacity="1" /><path clip-path="url(#clip330)" d="M1658.48 1454.1 Q1654.87 1454.1 1653.04 1457.66 Q1651.23 1461.2 1651.23 1468.33 Q1651.23 1475.44 1653.04 1479.01 Q1654.87 1482.55 1658.48 1482.55 Q1662.11 1482.55 1663.92 1479.01 Q1665.74 1475.44 1665.74 1468.33 Q1665.74 1461.2 1663.92 1457.66 Q1662.11 1454.1 1658.48 1454.1 M1658.48 1450.39 Q1664.29 1450.39 1667.34 1455 Q1670.42 1459.58 1670.42 1468.33 Q1670.42 1477.06 1667.34 1481.67 Q1664.29 1486.25 1658.48 1486.25 Q1652.67 1486.25 1649.59 1481.67 Q1646.53 1477.06 1646.53 1468.33 Q1646.53 1459.58 1649.59 1455 Q1652.67 1450.39 1658.48 1450.39 Z" fill="#000000" fill-rule="evenodd" fill-opacity="1" /><path clip-path="url(#clip330)" d="M1688.64 1454.1 Q1685.03 1454.1 1683.2 1457.66 Q1681.39 1461.2 1681.39 1468.33 Q1681.39 1475.44 1683.2 1479.01 Q1685.03 1482.55 1688.64 1482.55 Q1692.27 1482.55 1694.08 1479.01 Q1695.91 1475.44 1695.91 1468.33 Q1695.91 1461.2 1694.08 1457.66 Q1692.27 1454.1 1688.64 1454.1 M1688.64 1450.39 Q1694.45 1450.39 1697.5 1455 Q1700.58 1459.58 1700.58 1468.33 Q1700.58 1477.06 1697.5 1481.67 Q1694.45 1486.25 1688.64 1486.25 Q1682.83 1486.25 1679.75 1481.67 Q1676.69 1477.06 1676.69 1468.33 Q1676.69 1459.58 1679.75 1455 Q1682.83 1450.39 1688.64 1450.39 Z" fill="#000000" fill-rule="evenodd" fill-opacity="1" /><path clip-path="url(#clip330)" d="M1993.47 1466.44 Q1990.32 1466.44 1988.47 1468.59 Q1986.64 1470.74 1986.64 1474.49 Q1986.64 1478.22 1988.47 1480.39 Q1990.32 1482.55 1993.47 1482.55 Q1996.62 1482.55 1998.45 1480.39 Q2000.3 1478.22 2000.3 1474.49 Q2000.3 1470.74 1998.45 1468.59 Q1996.62 1466.44 1993.47 1466.44 M2002.75 1451.78 L2002.75 1456.04 Q2000.99 1455.21 1999.19 1454.77 Q1997.4 1454.33 1995.64 1454.33 Q1991.01 1454.33 1988.56 1457.45 Q1986.13 1460.58 1985.78 1466.9 Q1987.15 1464.89 1989.21 1463.82 Q1991.27 1462.73 1993.75 1462.73 Q1998.95 1462.73 2001.96 1465.9 Q2005 1469.05 2005 1474.49 Q2005 1479.82 2001.85 1483.03 Q1998.7 1486.25 1993.47 1486.25 Q1987.47 1486.25 1984.3 1481.67 Q1981.13 1477.06 1981.13 1468.33 Q1981.13 1460.14 1985.02 1455.28 Q1988.91 1450.39 1995.46 1450.39 Q1997.22 1450.39 1999 1450.74 Q2000.81 1451.09 2002.75 1451.78 Z" fill="#000000" fill-rule="evenodd" fill-opacity="1" /><path clip-path="url(#clip330)" d="M2011.87 1451.02 L2034.09 1451.02 L2034.09 1453.01 L2021.55 1485.58 L2016.66 1485.58 L2028.47 1454.96 L2011.87 1454.96 L2011.87 1451.02 Z" fill="#000000" fill-rule="evenodd" fill-opacity="1" /><path clip-path="url(#clip330)" d="M2043.26 1451.02 L2061.62 1451.02 L2061.62 1454.96 L2047.54 1454.96 L2047.54 1463.43 Q2048.56 1463.08 2049.58 1462.92 Q2050.6 1462.73 2051.62 1462.73 Q2057.4 1462.73 2060.78 1465.9 Q2064.16 1469.08 2064.16 1474.49 Q2064.16 1480.07 2060.69 1483.17 Q2057.22 1486.25 2050.9 1486.25 Q2048.72 1486.25 2046.45 1485.88 Q2044.21 1485.51 2041.8 1484.77 L2041.8 1480.07 Q2043.88 1481.2 2046.11 1481.76 Q2048.33 1482.32 2050.81 1482.32 Q2054.81 1482.32 2057.15 1480.21 Q2059.49 1478.1 2059.49 1474.49 Q2059.49 1470.88 2057.15 1468.77 Q2054.81 1466.67 2050.81 1466.67 Q2048.93 1466.67 2047.06 1467.08 Q2045.2 1467.5 2043.26 1468.38 L2043.26 1451.02 Z" fill="#000000" fill-rule="evenodd" fill-opacity="1" /><path clip-path="url(#clip330)" d="M2083.38 1454.1 Q2079.76 1454.1 2077.94 1457.66 Q2076.13 1461.2 2076.13 1468.33 Q2076.13 1475.44 2077.94 1479.01 Q2079.76 1482.55 2083.38 1482.55 Q2087.01 1482.55 2088.81 1479.01 Q2090.64 1475.44 2090.64 1468.33 Q2090.64 1461.2 2088.81 1457.66 Q2087.01 1454.1 2083.38 1454.1 M2083.38 1450.39 Q2089.19 1450.39 2092.24 1455 Q2095.32 1459.58 2095.32 1468.33 Q2095.32 1477.06 2092.24 1481.67 Q2089.19 1486.25 2083.38 1486.25 Q2077.56 1486.25 2074.49 1481.67 Q2071.43 1477.06 2071.43 1468.33 Q2071.43 1459.58 2074.49 1455 Q2077.56 1450.39 2083.38 1450.39 Z" fill="#000000" fill-rule="evenodd" fill-opacity="1" /><path clip-path="url(#clip330)" d="M1300.21 1522.27 L1300.21 1532.4 L1312.27 1532.4 L1312.27 1536.95 L1300.21 1536.95 L1300.21 1556.3 Q1300.21 1560.66 1301.39 1561.9 Q1302.6 1563.14 1306.26 1563.14 L1312.27 1563.14 L1312.27 1568.04 L1306.26 1568.04 Q1299.48 1568.04 1296.9 1565.53 Q1294.32 1562.98 1294.32 1556.3 L1294.32 1536.95 L1290.02 1536.95 L1290.02 1532.4 L1294.32 1532.4 L1294.32 1522.27 L1300.21 1522.27 Z" fill="#000000" fill-rule="evenodd" fill-opacity="1" /><polyline clip-path="url(#clip332)" style="stroke:#000000; stroke-linecap:round; stroke-linejoin:round; stroke-width:2; stroke-opacity:0.1; fill:none" points="249.542,1233.31 2352.76,1233.31 "/>
<polyline clip-path="url(#clip332)" style="stroke:#000000; stroke-linecap:round; stroke-linejoin:round; stroke-width:2; stroke-opacity:0.1; fill:none" points="249.542,1032.75 2352.76,1032.75 "/>
<polyline clip-path="url(#clip332)" style="stroke:#000000; stroke-linecap:round; stroke-linejoin:round; stroke-width:2; stroke-opacity:0.1; fill:none" points="249.542,832.19 2352.76,832.19 "/>
<polyline clip-path="url(#clip332)" style="stroke:#000000; stroke-linecap:round; stroke-linejoin:round; stroke-width:2; stroke-opacity:0.1; fill:none" points="249.542,631.631 2352.76,631.631 "/>
<polyline clip-path="url(#clip332)" style="stroke:#000000; stroke-linecap:round; stroke-linejoin:round; stroke-width:2; stroke-opacity:0.1; fill:none" points="249.542,431.072 2352.76,431.072 "/>
<polyline clip-path="url(#clip332)" style="stroke:#000000; stroke-linecap:round; stroke-linejoin:round; stroke-width:2; stroke-opacity:0.1; fill:none" points="249.542,230.513 2352.76,230.513 "/>
<polyline clip-path="url(#clip330)" style="stroke:#000000; stroke-linecap:round; stroke-linejoin:round; stroke-width:4; stroke-opacity:1; fill:none" points="249.542,1423.18 249.542,47.2441 "/>
<polyline clip-path="url(#clip330)" style="stroke:#000000; stroke-linecap:round; stroke-linejoin:round; stroke-width:4; stroke-opacity:1; fill:none" points="249.542,1233.31 268.44,1233.31 "/>
<polyline clip-path="url(#clip330)" style="stroke:#000000; stroke-linecap:round; stroke-linejoin:round; stroke-width:4; stroke-opacity:1; fill:none" points="249.542,1032.75 268.44,1032.75 "/>
<polyline clip-path="url(#clip330)" style="stroke:#000000; stroke-linecap:round; stroke-linejoin:round; stroke-width:4; stroke-opacity:1; fill:none" points="249.542,832.19 268.44,832.19 "/>
<polyline clip-path="url(#clip330)" style="stroke:#000000; stroke-linecap:round; stroke-linejoin:round; stroke-width:4; stroke-opacity:1; fill:none" points="249.542,631.631 268.44,631.631 "/>
<polyline clip-path="url(#clip330)" style="stroke:#000000; stroke-linecap:round; stroke-linejoin:round; stroke-width:4; stroke-opacity:1; fill:none" points="249.542,431.072 268.44,431.072 "/>
<polyline clip-path="url(#clip330)" style="stroke:#000000; stroke-linecap:round; stroke-linejoin:round; stroke-width:4; stroke-opacity:1; fill:none" points="249.542,230.513 268.44,230.513 "/>
<path clip-path="url(#clip330)" d="M126.205 1219.11 Q122.593 1219.11 120.765 1222.67 Q118.959 1226.21 118.959 1233.34 Q118.959 1240.45 120.765 1244.02 Q122.593 1247.56 126.205 1247.56 Q129.839 1247.56 131.644 1244.02 Q133.473 1240.45 133.473 1233.34 Q133.473 1226.21 131.644 1222.67 Q129.839 1219.11 126.205 1219.11 M126.205 1215.4 Q132.015 1215.4 135.07 1220.01 Q138.149 1224.59 138.149 1233.34 Q138.149 1242.07 135.07 1246.68 Q132.015 1251.26 126.205 1251.26 Q120.394 1251.26 117.316 1246.68 Q114.26 1242.07 114.26 1233.34 Q114.26 1224.59 117.316 1220.01 Q120.394 1215.4 126.205 1215.4 Z" fill="#000000" fill-rule="evenodd" fill-opacity="1" /><path clip-path="url(#clip330)" d="M146.366 1244.71 L151.251 1244.71 L151.251 1250.59 L146.366 1250.59 L146.366 1244.71 Z" fill="#000000" fill-rule="evenodd" fill-opacity="1" /><path clip-path="url(#clip330)" d="M160.255 1216.03 L182.477 1216.03 L182.477 1218.02 L169.931 1250.59 L165.047 1250.59 L176.852 1219.96 L160.255 1219.96 L160.255 1216.03 Z" fill="#000000" fill-rule="evenodd" fill-opacity="1" /><path clip-path="url(#clip330)" d="M201.598 1219.11 Q197.987 1219.11 196.158 1222.67 Q194.352 1226.21 194.352 1233.34 Q194.352 1240.45 196.158 1244.02 Q197.987 1247.56 201.598 1247.56 Q205.232 1247.56 207.037 1244.02 Q208.866 1240.45 208.866 1233.34 Q208.866 1226.21 207.037 1222.67 Q205.232 1219.11 201.598 1219.11 M201.598 1215.4 Q207.408 1215.4 210.463 1220.01 Q213.542 1224.59 213.542 1233.34 Q213.542 1242.07 210.463 1246.68 Q207.408 1251.26 201.598 1251.26 Q195.787 1251.26 192.709 1246.68 Q189.653 1242.07 189.653 1233.34 Q189.653 1224.59 192.709 1220.01 Q195.787 1215.4 201.598 1215.4 Z" fill="#000000" fill-rule="evenodd" fill-opacity="1" /><path clip-path="url(#clip330)" d="M127.2 1018.55 Q123.589 1018.55 121.76 1022.11 Q119.955 1025.65 119.955 1032.78 Q119.955 1039.89 121.76 1043.46 Q123.589 1047 127.2 1047 Q130.834 1047 132.64 1043.46 Q134.468 1039.89 134.468 1032.78 Q134.468 1025.65 132.64 1022.11 Q130.834 1018.55 127.2 1018.55 M127.2 1014.84 Q133.01 1014.84 136.066 1019.45 Q139.144 1024.03 139.144 1032.78 Q139.144 1041.51 136.066 1046.12 Q133.01 1050.7 127.2 1050.7 Q121.39 1050.7 118.311 1046.12 Q115.256 1041.51 115.256 1032.78 Q115.256 1024.03 118.311 1019.45 Q121.39 1014.84 127.2 1014.84 Z" fill="#000000" fill-rule="evenodd" fill-opacity="1" /><path clip-path="url(#clip330)" d="M147.362 1044.15 L152.246 1044.15 L152.246 1050.03 L147.362 1050.03 L147.362 1044.15 Z" fill="#000000" fill-rule="evenodd" fill-opacity="1" /><path clip-path="url(#clip330)" d="M161.251 1015.47 L183.473 1015.47 L183.473 1017.46 L170.927 1050.03 L166.042 1050.03 L177.848 1019.4 L161.251 1019.4 L161.251 1015.47 Z" fill="#000000" fill-rule="evenodd" fill-opacity="1" /><path clip-path="url(#clip330)" d="M192.639 1015.47 L210.996 1015.47 L210.996 1019.4 L196.922 1019.4 L196.922 1027.88 Q197.94 1027.53 198.959 1027.37 Q199.977 1027.18 200.996 1027.18 Q206.783 1027.18 210.162 1030.35 Q213.542 1033.53 213.542 1038.94 Q213.542 1044.52 210.07 1047.62 Q206.598 1050.7 200.278 1050.7 Q198.102 1050.7 195.834 1050.33 Q193.588 1049.96 191.181 1049.22 L191.181 1044.52 Q193.264 1045.65 195.487 1046.21 Q197.709 1046.77 200.186 1046.77 Q204.19 1046.77 206.528 1044.66 Q208.866 1042.55 208.866 1038.94 Q208.866 1035.33 206.528 1033.22 Q204.19 1031.12 200.186 1031.12 Q198.311 1031.12 196.436 1031.53 Q194.584 1031.95 192.639 1032.83 L192.639 1015.47 Z" fill="#000000" fill-rule="evenodd" fill-opacity="1" /><path clip-path="url(#clip330)" d="M126.205 817.989 Q122.593 817.989 120.765 821.554 Q118.959 825.096 118.959 832.225 Q118.959 839.332 120.765 842.896 Q122.593 846.438 126.205 846.438 Q129.839 846.438 131.644 842.896 Q133.473 839.332 133.473 832.225 Q133.473 825.096 131.644 821.554 Q129.839 817.989 126.205 817.989 M126.205 814.285 Q132.015 814.285 135.07 818.892 Q138.149 823.475 138.149 832.225 Q138.149 840.952 135.07 845.558 Q132.015 850.142 126.205 850.142 Q120.394 850.142 117.316 845.558 Q114.26 840.952 114.26 832.225 Q114.26 823.475 117.316 818.892 Q120.394 814.285 126.205 814.285 Z" fill="#000000" fill-rule="evenodd" fill-opacity="1" /><path clip-path="url(#clip330)" d="M146.366 843.591 L151.251 843.591 L151.251 849.47 L146.366 849.47 L146.366 843.591 Z" fill="#000000" fill-rule="evenodd" fill-opacity="1" /><path clip-path="url(#clip330)" d="M171.436 833.058 Q168.102 833.058 166.181 834.841 Q164.283 836.623 164.283 839.748 Q164.283 842.873 166.181 844.656 Q168.102 846.438 171.436 846.438 Q174.769 846.438 176.69 844.656 Q178.612 842.85 178.612 839.748 Q178.612 836.623 176.69 834.841 Q174.792 833.058 171.436 833.058 M166.76 831.068 Q163.751 830.327 162.061 828.267 Q160.394 826.207 160.394 823.244 Q160.394 819.1 163.334 816.693 Q166.297 814.285 171.436 814.285 Q176.598 814.285 179.538 816.693 Q182.477 819.1 182.477 823.244 Q182.477 826.207 180.788 828.267 Q179.121 830.327 176.135 831.068 Q179.514 831.855 181.389 834.146 Q183.288 836.438 183.288 839.748 Q183.288 844.771 180.209 847.457 Q177.153 850.142 171.436 850.142 Q165.718 850.142 162.64 847.457 Q159.584 844.771 159.584 839.748 Q159.584 836.438 161.482 834.146 Q163.38 831.855 166.76 831.068 M165.047 823.684 Q165.047 826.369 166.714 827.873 Q168.403 829.378 171.436 829.378 Q174.445 829.378 176.135 827.873 Q177.848 826.369 177.848 823.684 Q177.848 820.998 176.135 819.494 Q174.445 817.989 171.436 817.989 Q168.403 817.989 166.714 819.494 Q165.047 820.998 165.047 823.684 Z" fill="#000000" fill-rule="evenodd" fill-opacity="1" /><path clip-path="url(#clip330)" d="M201.598 817.989 Q197.987 817.989 196.158 821.554 Q194.352 825.096 194.352 832.225 Q194.352 839.332 196.158 842.896 Q197.987 846.438 201.598 846.438 Q205.232 846.438 207.037 842.896 Q208.866 839.332 208.866 832.225 Q208.866 825.096 207.037 821.554 Q205.232 817.989 201.598 817.989 M201.598 814.285 Q207.408 814.285 210.463 818.892 Q213.542 823.475 213.542 832.225 Q213.542 840.952 210.463 845.558 Q207.408 850.142 201.598 850.142 Q195.787 850.142 192.709 845.558 Q189.653 840.952 189.653 832.225 Q189.653 823.475 192.709 818.892 Q195.787 814.285 201.598 814.285 Z" fill="#000000" fill-rule="evenodd" fill-opacity="1" /><path clip-path="url(#clip330)" d="M127.2 617.43 Q123.589 617.43 121.76 620.995 Q119.955 624.536 119.955 631.666 Q119.955 638.772 121.76 642.337 Q123.589 645.879 127.2 645.879 Q130.834 645.879 132.64 642.337 Q134.468 638.772 134.468 631.666 Q134.468 624.536 132.64 620.995 Q130.834 617.43 127.2 617.43 M127.2 613.726 Q133.01 613.726 136.066 618.333 Q139.144 622.916 139.144 631.666 Q139.144 640.393 136.066 644.999 Q133.01 649.582 127.2 649.582 Q121.39 649.582 118.311 644.999 Q115.256 640.393 115.256 631.666 Q115.256 622.916 118.311 618.333 Q121.39 613.726 127.2 613.726 Z" fill="#000000" fill-rule="evenodd" fill-opacity="1" /><path clip-path="url(#clip330)" d="M147.362 643.032 L152.246 643.032 L152.246 648.911 L147.362 648.911 L147.362 643.032 Z" fill="#000000" fill-rule="evenodd" fill-opacity="1" /><path clip-path="url(#clip330)" d="M172.431 632.499 Q169.098 632.499 167.177 634.282 Q165.278 636.064 165.278 639.189 Q165.278 642.314 167.177 644.096 Q169.098 645.879 172.431 645.879 Q175.764 645.879 177.686 644.096 Q179.607 642.291 179.607 639.189 Q179.607 636.064 177.686 634.282 Q175.788 632.499 172.431 632.499 M167.755 630.508 Q164.746 629.768 163.056 627.708 Q161.39 625.647 161.39 622.684 Q161.39 618.541 164.329 616.134 Q167.292 613.726 172.431 613.726 Q177.593 613.726 180.533 616.134 Q183.473 618.541 183.473 622.684 Q183.473 625.647 181.783 627.708 Q180.116 629.768 177.13 630.508 Q180.51 631.295 182.385 633.587 Q184.283 635.879 184.283 639.189 Q184.283 644.212 181.204 646.897 Q178.149 649.582 172.431 649.582 Q166.714 649.582 163.635 646.897 Q160.579 644.212 160.579 639.189 Q160.579 635.879 162.477 633.587 Q164.376 631.295 167.755 630.508 M166.042 623.124 Q166.042 625.809 167.709 627.314 Q169.399 628.819 172.431 628.819 Q175.44 628.819 177.13 627.314 Q178.843 625.809 178.843 623.124 Q178.843 620.439 177.13 618.934 Q175.44 617.43 172.431 617.43 Q169.399 617.43 167.709 618.934 Q166.042 620.439 166.042 623.124 Z" fill="#000000" fill-rule="evenodd" fill-opacity="1" /><path clip-path="url(#clip330)" d="M192.639 614.351 L210.996 614.351 L210.996 618.286 L196.922 618.286 L196.922 626.758 Q197.94 626.411 198.959 626.249 Q199.977 626.064 200.996 626.064 Q206.783 626.064 210.162 629.235 Q213.542 632.407 213.542 637.823 Q213.542 643.402 210.07 646.504 Q206.598 649.582 200.278 649.582 Q198.102 649.582 195.834 649.212 Q193.588 648.842 191.181 648.101 L191.181 643.402 Q193.264 644.536 195.487 645.092 Q197.709 645.647 200.186 645.647 Q204.19 645.647 206.528 643.541 Q208.866 641.434 208.866 637.823 Q208.866 634.212 206.528 632.106 Q204.19 629.999 200.186 629.999 Q198.311 629.999 196.436 630.416 Q194.584 630.833 192.639 631.712 L192.639 614.351 Z" fill="#000000" fill-rule="evenodd" fill-opacity="1" /><path clip-path="url(#clip330)" d="M126.205 416.871 Q122.593 416.871 120.765 420.435 Q118.959 423.977 118.959 431.107 Q118.959 438.213 120.765 441.778 Q122.593 445.319 126.205 445.319 Q129.839 445.319 131.644 441.778 Q133.473 438.213 133.473 431.107 Q133.473 423.977 131.644 420.435 Q129.839 416.871 126.205 416.871 M126.205 413.167 Q132.015 413.167 135.07 417.773 Q138.149 422.357 138.149 431.107 Q138.149 439.833 135.07 444.44 Q132.015 449.023 126.205 449.023 Q120.394 449.023 117.316 444.44 Q114.26 439.833 114.26 431.107 Q114.26 422.357 117.316 417.773 Q120.394 413.167 126.205 413.167 Z" fill="#000000" fill-rule="evenodd" fill-opacity="1" /><path clip-path="url(#clip330)" d="M146.366 442.472 L151.251 442.472 L151.251 448.352 L146.366 448.352 L146.366 442.472 Z" fill="#000000" fill-rule="evenodd" fill-opacity="1" /><path clip-path="url(#clip330)" d="M161.575 447.634 L161.575 443.375 Q163.334 444.208 165.14 444.648 Q166.945 445.088 168.681 445.088 Q173.311 445.088 175.741 441.986 Q178.195 438.861 178.542 432.519 Q177.2 434.509 175.139 435.574 Q173.079 436.639 170.579 436.639 Q165.394 436.639 162.362 433.514 Q159.353 430.366 159.353 424.926 Q159.353 419.602 162.501 416.384 Q165.649 413.167 170.88 413.167 Q176.876 413.167 180.024 417.773 Q183.195 422.357 183.195 431.107 Q183.195 439.278 179.306 444.162 Q175.44 449.023 168.889 449.023 Q167.13 449.023 165.325 448.676 Q163.519 448.329 161.575 447.634 M170.88 432.982 Q174.028 432.982 175.857 430.829 Q177.709 428.676 177.709 424.926 Q177.709 421.199 175.857 419.046 Q174.028 416.871 170.88 416.871 Q167.732 416.871 165.88 419.046 Q164.052 421.199 164.052 424.926 Q164.052 428.676 165.88 430.829 Q167.732 432.982 170.88 432.982 Z" fill="#000000" fill-rule="evenodd" fill-opacity="1" /><path clip-path="url(#clip330)" d="M201.598 416.871 Q197.987 416.871 196.158 420.435 Q194.352 423.977 194.352 431.107 Q194.352 438.213 196.158 441.778 Q197.987 445.319 201.598 445.319 Q205.232 445.319 207.037 441.778 Q208.866 438.213 208.866 431.107 Q208.866 423.977 207.037 420.435 Q205.232 416.871 201.598 416.871 M201.598 413.167 Q207.408 413.167 210.463 417.773 Q213.542 422.357 213.542 431.107 Q213.542 439.833 210.463 444.44 Q207.408 449.023 201.598 449.023 Q195.787 449.023 192.709 444.44 Q189.653 439.833 189.653 431.107 Q189.653 422.357 192.709 417.773 Q195.787 413.167 201.598 413.167 Z" fill="#000000" fill-rule="evenodd" fill-opacity="1" /><path clip-path="url(#clip330)" d="M127.2 216.311 Q123.589 216.311 121.76 219.876 Q119.955 223.418 119.955 230.547 Q119.955 237.654 121.76 241.219 Q123.589 244.76 127.2 244.76 Q130.834 244.76 132.64 241.219 Q134.468 237.654 134.468 230.547 Q134.468 223.418 132.64 219.876 Q130.834 216.311 127.2 216.311 M127.2 212.608 Q133.01 212.608 136.066 217.214 Q139.144 221.797 139.144 230.547 Q139.144 239.274 136.066 243.881 Q133.01 248.464 127.2 248.464 Q121.39 248.464 118.311 243.881 Q115.256 239.274 115.256 230.547 Q115.256 221.797 118.311 217.214 Q121.39 212.608 127.2 212.608 Z" fill="#000000" fill-rule="evenodd" fill-opacity="1" /><path clip-path="url(#clip330)" d="M147.362 241.913 L152.246 241.913 L152.246 247.793 L147.362 247.793 L147.362 241.913 Z" fill="#000000" fill-rule="evenodd" fill-opacity="1" /><path clip-path="url(#clip330)" d="M162.57 247.075 L162.57 242.816 Q164.329 243.649 166.135 244.089 Q167.94 244.529 169.677 244.529 Q174.306 244.529 176.737 241.427 Q179.19 238.302 179.538 231.959 Q178.195 233.95 176.135 235.015 Q174.075 236.08 171.575 236.08 Q166.39 236.08 163.357 232.955 Q160.348 229.807 160.348 224.367 Q160.348 219.043 163.496 215.825 Q166.644 212.608 171.876 212.608 Q177.871 212.608 181.019 217.214 Q184.19 221.797 184.19 230.547 Q184.19 238.719 180.301 243.603 Q176.436 248.464 169.885 248.464 Q168.126 248.464 166.32 248.117 Q164.515 247.769 162.57 247.075 M171.876 232.422 Q175.024 232.422 176.852 230.269 Q178.704 228.117 178.704 224.367 Q178.704 220.64 176.852 218.487 Q175.024 216.311 171.876 216.311 Q168.727 216.311 166.876 218.487 Q165.047 220.64 165.047 224.367 Q165.047 228.117 166.876 230.269 Q168.727 232.422 171.876 232.422 Z" fill="#000000" fill-rule="evenodd" fill-opacity="1" /><path clip-path="url(#clip330)" d="M192.639 213.233 L210.996 213.233 L210.996 217.168 L196.922 217.168 L196.922 225.64 Q197.94 225.293 198.959 225.131 Q199.977 224.945 200.996 224.945 Q206.783 224.945 210.162 228.117 Q213.542 231.288 213.542 236.705 Q213.542 242.283 210.07 245.385 Q206.598 248.464 200.278 248.464 Q198.102 248.464 195.834 248.093 Q193.588 247.723 191.181 246.982 L191.181 242.283 Q193.264 243.418 195.487 243.973 Q197.709 244.529 200.186 244.529 Q204.19 244.529 206.528 242.422 Q208.866 240.316 208.866 236.705 Q208.866 233.094 206.528 230.987 Q204.19 228.881 200.186 228.881 Q198.311 228.881 196.436 229.297 Q194.584 229.714 192.639 230.594 L192.639 213.233 Z" fill="#000000" fill-rule="evenodd" fill-opacity="1" /><path clip-path="url(#clip330)" d="M81.2531 774.369 Q81.8006 774.369 82.187 774.755 Q82.5735 775.142 82.5735 775.689 Q82.5735 776.623 81.7039 776.945 L50.0456 789.216 Q49.9168 789.28 49.5947 789.28 Q49.2726 789.28 49.1438 789.216 L17.4855 776.945 Q16.6159 776.623 16.6159 775.689 Q16.6159 775.142 17.0024 774.755 Q17.3888 774.369 17.9363 774.369 Q18.2584 774.369 18.3872 774.433 L49.5947 786.575 L80.8022 774.433 Q80.931 774.369 81.2531 774.369 Z" fill="#000000" fill-rule="evenodd" fill-opacity="1" /><path clip-path="url(#clip330)" d="M56.6478 709.847 Q56.9054 709.847 57.9038 710.137 Q58.9022 710.427 60.4481 711.136 Q61.994 711.812 63.411 712.778 Q64.7959 713.712 65.8264 715.258 Q66.8248 716.772 66.8248 718.511 Q66.8248 720.829 65.2789 722.375 Q63.7331 723.921 61.4142 723.921 Q60.1582 723.921 57.775 723.052 Q46.8894 718.962 42.9925 718.962 Q38.3871 718.962 38.3871 722.536 Q38.3871 724.565 39.2244 726.401 Q40.0618 728.237 41.2212 729.428 Q42.3806 730.62 43.701 731.554 Q45.0215 732.488 45.891 732.907 Q46.7606 733.293 47.147 733.39 L63.0567 737.351 Q64.4094 737.673 65.0535 737.899 Q65.6976 738.124 66.2451 738.736 Q66.8248 739.348 66.8248 740.314 Q66.8248 741.119 66.3417 741.699 Q65.8587 742.246 65.0213 742.246 Q64.8925 742.246 64.2162 742.085 Q63.5398 741.924 62.6059 741.699 Q61.6719 741.473 61.1244 741.377 Q56.7444 740.217 56.1325 740.056 L48.4675 738.221 Q44.6672 737.222 42.9925 737.222 Q38.3871 737.222 38.3871 740.797 Q38.3871 742.568 39.0634 744.243 Q39.7075 745.886 40.6093 747.013 Q41.511 748.14 42.7671 749.171 Q43.9909 750.169 44.8282 750.684 Q45.6334 751.167 46.4385 751.554 L49.7235 752.391 Q50.6253 752.584 54.1357 753.518 L60.0938 754.968 Q64.5382 755.998 64.9569 756.224 Q65.8587 756.546 66.3417 757.254 Q66.8248 757.963 66.8248 758.671 Q66.8248 759.477 66.3417 760.024 Q65.8587 760.572 65.0213 760.572 Q64.8925 760.572 64.4094 760.475 Q63.9263 760.378 63.25 760.217 Q62.5737 760.056 62.1872 759.992 L46.9538 756.159 Q44.1841 755.451 43.3146 755.29 Q42.4128 755.097 41.4144 755.097 Q38.3871 755.097 38.3871 757.158 Q38.3871 758.832 40.3838 759.927 Q42.3806 761.022 46.2453 761.956 Q47.3081 762.246 47.5335 762.439 Q47.759 762.6 47.759 763.084 Q47.7268 763.889 47.0826 763.889 Q46.9216 763.889 45.891 763.631 Q44.8604 763.373 43.3146 762.89 Q41.7365 762.375 40.7059 761.828 Q40.0296 761.505 39.5787 761.216 Q39.1278 760.926 38.4193 760.346 Q37.7107 759.766 37.3243 758.897 Q36.9378 758.027 36.9378 756.964 Q36.9378 754.613 38.4515 752.874 Q39.9651 751.103 42.6704 750.878 Q36.9378 746.594 36.9378 740.604 Q36.9378 737.222 38.6447 735.193 Q40.2872 733.293 43.3146 733.068 Q36.9378 728.623 36.9378 722.311 Q36.9378 718.672 38.8379 716.707 Q40.7059 714.743 43.9909 714.743 Q45.6978 714.743 48.9506 715.612 Q52.1712 716.482 53.7815 717.061 Q55.3917 717.641 58.4835 718.768 Q61.4465 719.96 63.1856 719.96 Q64.3128 719.96 64.8281 719.573 Q65.3434 719.187 65.3434 718.35 Q65.3434 717.061 64.6026 715.934 Q63.8297 714.807 62.5737 714.002 Q61.2854 713.164 59.9972 712.617 Q58.6767 712.069 57.1953 711.651 Q56.3901 711.393 56.1969 711.264 Q56.0037 711.103 56.0037 710.652 Q56.0037 709.847 56.6478 709.847 Z" fill="#000000" fill-rule="evenodd" fill-opacity="1" /><path clip-path="url(#clip330)" d="M49.1438 691.721 Q49.2726 691.656 49.5947 691.656 Q49.9168 691.656 50.0456 691.721 L81.7039 703.991 Q82.5735 704.313 82.5735 705.215 Q82.5735 705.762 82.187 706.149 Q81.8006 706.535 81.2531 706.535 Q80.931 706.535 80.8022 706.471 L49.5947 694.361 L18.3872 706.471 Q18.2584 706.535 17.9363 706.535 Q17.3888 706.535 17.0024 706.149 Q16.6159 705.762 16.6159 705.215 Q16.6159 704.313 17.4855 703.991 L49.1438 691.721 Z" fill="#000000" fill-rule="evenodd" fill-opacity="1" /><polyline clip-path="url(#clip332)" style="stroke:#009af9; stroke-linecap:round; stroke-linejoin:round; stroke-width:4; stroke-opacity:1; fill:none" points="309.067,88.0746 529.53,86.8556 749.992,86.1857 970.455,86.5878 1190.92,90.8986 1411.38,192.357 1631.84,468.064 1852.31,820.962 2072.77,1135.03 2293.23,1384.24 "/>
<polyline clip-path="url(#clip332)" style="stroke:#e26f46; stroke-linecap:round; stroke-linejoin:round; stroke-width:4; stroke-opacity:1; fill:none" points="309.067,287.088 529.53,280.609 749.992,274.734 970.455,268.358 1190.92,264.946 1411.38,295.124 1631.84,357.193 1852.31,477.683 2072.77,626.897 2293.23,787.953 "/>
<path clip-path="url(#clip330)" d="M1917.69 248.629 L2282.65 248.629 L2282.65 93.1086 L1917.69 93.1086  Z" fill="#ffffff" fill-rule="evenodd" fill-opacity="1"/>
<polyline clip-path="url(#clip330)" style="stroke:#000000; stroke-linecap:round; stroke-linejoin:round; stroke-width:4; stroke-opacity:1; fill:none" points="1917.69,248.629 2282.65,248.629 2282.65,93.1086 1917.69,93.1086 1917.69,248.629 "/>
<polyline clip-path="url(#clip330)" style="stroke:#009af9; stroke-linecap:round; stroke-linejoin:round; stroke-width:4; stroke-opacity:1; fill:none" points="1941.06,144.949 2081.27,144.949 "/>
<path clip-path="url(#clip330)" d="M2131.56 141.882 Q2131.51 142.117 2131.41 142.538 Q2131.32 142.936 2130.9 144.201 Q2130.48 145.466 2129.92 146.754 Q2129.38 148.019 2128.32 149.799 Q2127.29 151.556 2126.03 153.148 Q2125.68 153.57 2125.61 153.828 Q2125.56 154.062 2125.56 154.835 Q2125.56 159.707 2127.03 159.707 Q2127.11 159.707 2127.22 159.707 Q2127.36 159.683 2127.71 159.566 Q2128.09 159.426 2128.42 159.215 Q2128.74 158.981 2129.12 158.512 Q2129.49 158.02 2129.73 157.365 Q2129.94 156.896 2130.36 156.896 Q2130.92 156.896 2130.92 157.365 Q2130.92 158.208 2129.75 159.496 Q2128.58 160.784 2126.89 160.784 Q2125.28 160.784 2124.13 159.73 Q2123.01 158.653 2122.54 156.732 Q2117.48 160.784 2112.42 160.784 Q2108.86 160.784 2106.75 158.465 Q2104.64 156.123 2104.64 152.657 Q2104.64 149.331 2106.47 146.169 Q2108.32 143.007 2111.32 141.039 Q2114.34 139.048 2117.55 139.048 Q2118.67 139.048 2119.75 139.353 Q2120.83 139.634 2121.91 140.36 Q2122.98 141.086 2123.78 142.187 Q2124.58 143.288 2125.07 145.021 Q2125.56 146.754 2125.56 148.932 L2125.56 151.907 Q2128.65 147.996 2130.27 142.398 Q2130.5 141.554 2130.64 141.461 Q2130.74 141.39 2130.97 141.39 Q2131.2 141.39 2131.34 141.531 Q2131.51 141.648 2131.53 141.765 L2131.56 141.882 M2122.35 155.491 Q2122.26 154.671 2122.26 150.127 Q2122.26 149.26 2122.26 148.792 Q2122.26 148.3 2122.21 147.363 Q2122.16 146.426 2122.07 145.841 Q2122 145.255 2121.84 144.412 Q2121.67 143.569 2121.44 143.03 Q2121.2 142.491 2120.83 141.882 Q2120.48 141.273 2120.01 140.922 Q2119.56 140.571 2118.91 140.336 Q2118.27 140.102 2117.5 140.102 Q2116.54 140.102 2115.53 140.454 Q2114.55 140.781 2113.29 141.835 Q2112.02 142.866 2110.97 144.506 Q2109.87 146.239 2109.02 149.424 Q2108.2 152.586 2108.2 154.484 Q2108.2 156.873 2109.3 158.301 Q2110.4 159.707 2112.51 159.707 Q2117.55 159.707 2122.35 155.491 Z" fill="#000000" fill-rule="evenodd" fill-opacity="1" /><path clip-path="url(#clip330)" d="M2148.33 152.961 Q2148.38 152.376 2149.29 152.376 L2178.69 152.376 Q2180.07 152.376 2180.09 152.914 Q2180.09 153.5 2178.78 153.476 L2149.62 153.476 Q2148.33 153.5 2148.33 152.961 M2148.33 143.592 Q2148.33 143.007 2149.34 143.03 L2178.64 143.03 Q2180.07 143.03 2180.09 143.592 Q2180.09 144.131 2178.87 144.131 L2149.29 144.131 Q2148.33 144.131 2148.33 143.592 Z" fill="#000000" fill-rule="evenodd" fill-opacity="1" /><path clip-path="url(#clip330)" d="M2198.58 144.904 Q2198.58 137.854 2200.36 134.012 Q2202.85 128.297 2208.7 128.297 Q2209.94 128.297 2211.23 128.649 Q2212.54 128.977 2214.18 130.265 Q2215.85 131.553 2216.85 133.661 Q2218.77 137.737 2218.77 144.904 Q2218.77 151.907 2216.99 155.725 Q2214.39 161.3 2208.65 161.3 Q2206.5 161.3 2204.3 160.199 Q2202.12 159.098 2200.74 156.451 Q2198.58 152.493 2198.58 144.904 M2202.56 144.318 Q2202.56 151.556 2203.08 154.437 Q2203.67 157.552 2205.26 158.91 Q2206.87 160.245 2208.65 160.245 Q2210.58 160.245 2212.17 158.817 Q2213.78 157.365 2214.28 154.249 Q2214.81 151.181 2214.79 144.318 Q2214.79 137.643 2214.32 134.973 Q2213.69 131.857 2212 130.616 Q2210.34 129.351 2208.65 129.351 Q2208.02 129.351 2207.34 129.539 Q2206.69 129.726 2205.73 130.265 Q2204.77 130.803 2204.02 132.139 Q2203.29 133.474 2202.94 135.488 Q2202.56 138.088 2202.56 144.318 Z" fill="#000000" fill-rule="evenodd" fill-opacity="1" /><path clip-path="url(#clip330)" d="M2223.06 159.473 Q2222.33 158.7 2222.33 157.692 Q2222.33 156.685 2223.06 155.959 Q2223.78 155.21 2224.89 155.21 Q2225.94 155.21 2226.64 155.912 Q2227.37 156.592 2227.37 157.716 Q2227.37 158.817 2226.6 159.543 Q2225.85 160.245 2224.89 160.245 Q2223.78 160.245 2223.06 159.473 Z" fill="#000000" fill-rule="evenodd" fill-opacity="1" /><path clip-path="url(#clip330)" d="M2235.53 139.095 Q2235.53 136.542 2236.28 134.809 Q2237.03 133.052 2238.6 131.319 Q2241.48 128.297 2245.65 128.297 Q2247.43 128.297 2249 129.047 Q2250.59 129.796 2252.09 131.506 Q2253.61 133.193 2254.53 136.542 Q2255.44 139.868 2255.44 144.459 Q2255.44 151.884 2251.83 156.592 Q2248.25 161.3 2243.4 161.3 Q2240.33 161.3 2238.53 159.918 Q2236.72 158.512 2236.72 156.123 Q2236.72 154.882 2237.43 154.366 Q2238.13 153.828 2238.93 153.828 Q2239.79 153.828 2240.47 154.413 Q2241.15 154.975 2241.15 156.029 Q2241.15 156.896 2240.59 157.575 Q2240.05 158.231 2238.64 158.231 Q2240.03 159.964 2243.35 159.964 Q2244.55 159.964 2245.74 159.426 Q2246.94 158.864 2248.22 157.528 Q2249.54 156.17 2250.33 153.336 Q2251.13 150.502 2251.13 146.52 L2251.13 144.997 Q2249.21 149.799 2245.13 149.799 Q2241.1 149.799 2238.32 146.707 Q2235.53 143.616 2235.53 139.095 M2239.84 139.142 Q2239.84 143.897 2240.71 145.653 Q2242.18 148.675 2245.18 148.675 Q2248.11 148.675 2249.56 146.075 Q2251.04 143.452 2251.04 140.055 Q2251.04 135.347 2250.26 133.286 Q2248.83 129.492 2245.65 129.492 Q2242.49 129.492 2240.85 132.513 Q2239.84 134.293 2239.84 139.142 Z" fill="#000000" fill-rule="evenodd" fill-opacity="1" /><polyline clip-path="url(#clip330)" style="stroke:#e26f46; stroke-linecap:round; stroke-linejoin:round; stroke-width:4; stroke-opacity:1; fill:none" points="1941.06,196.789 2081.27,196.789 "/>
<path clip-path="url(#clip330)" d="M2131.56 193.98 Q2131.51 194.214 2131.41 194.636 Q2131.32 195.034 2130.9 196.299 Q2130.48 197.564 2129.92 198.852 Q2129.38 200.117 2128.32 201.897 Q2127.29 203.654 2126.03 205.246 Q2125.68 205.668 2125.61 205.926 Q2125.56 206.16 2125.56 206.933 Q2125.56 211.805 2127.03 211.805 Q2127.11 211.805 2127.22 211.805 Q2127.36 211.781 2127.71 211.664 Q2128.09 211.524 2128.42 211.313 Q2128.74 211.078 2129.12 210.61 Q2129.49 210.118 2129.73 209.462 Q2129.94 208.994 2130.36 208.994 Q2130.92 208.994 2130.92 209.462 Q2130.92 210.306 2129.75 211.594 Q2128.58 212.882 2126.89 212.882 Q2125.28 212.882 2124.13 211.828 Q2123.01 210.751 2122.54 208.83 Q2117.48 212.882 2112.42 212.882 Q2108.86 212.882 2106.75 210.563 Q2104.64 208.221 2104.64 204.754 Q2104.64 201.428 2106.47 198.266 Q2108.32 195.104 2111.32 193.137 Q2114.34 191.146 2117.55 191.146 Q2118.67 191.146 2119.75 191.45 Q2120.83 191.732 2121.91 192.458 Q2122.98 193.184 2123.78 194.285 Q2124.58 195.385 2125.07 197.119 Q2125.56 198.852 2125.56 201.03 L2125.56 204.005 Q2128.65 200.093 2130.27 194.495 Q2130.5 193.652 2130.64 193.559 Q2130.74 193.488 2130.97 193.488 Q2131.2 193.488 2131.34 193.629 Q2131.51 193.746 2131.53 193.863 L2131.56 193.98 M2122.35 207.589 Q2122.26 206.769 2122.26 202.225 Q2122.26 201.358 2122.26 200.89 Q2122.26 200.398 2122.21 199.461 Q2122.16 198.524 2122.07 197.939 Q2122 197.353 2121.84 196.51 Q2121.67 195.667 2121.44 195.128 Q2121.2 194.589 2120.83 193.98 Q2120.48 193.371 2120.01 193.02 Q2119.56 192.668 2118.91 192.434 Q2118.27 192.2 2117.5 192.2 Q2116.54 192.2 2115.53 192.551 Q2114.55 192.879 2113.29 193.933 Q2112.02 194.964 2110.97 196.603 Q2109.87 198.337 2109.02 201.522 Q2108.2 204.684 2108.2 206.581 Q2108.2 208.97 2109.3 210.399 Q2110.4 211.805 2112.51 211.805 Q2117.55 211.805 2122.35 207.589 Z" fill="#000000" fill-rule="evenodd" fill-opacity="1" /><path clip-path="url(#clip330)" d="M2148.33 205.059 Q2148.38 204.473 2149.29 204.473 L2178.69 204.473 Q2180.07 204.473 2180.09 205.012 Q2180.09 205.598 2178.78 205.574 L2149.62 205.574 Q2148.33 205.598 2148.33 205.059 M2148.33 195.69 Q2148.33 195.104 2149.34 195.128 L2178.64 195.128 Q2180.07 195.128 2180.09 195.69 Q2180.09 196.229 2178.87 196.229 L2149.29 196.229 Q2148.33 196.229 2148.33 195.69 Z" fill="#000000" fill-rule="evenodd" fill-opacity="1" /><path clip-path="url(#clip330)" d="M2198.58 184.962 L2198.58 183.463 Q2204.34 183.463 2207.32 180.395 Q2208.14 180.395 2208.28 180.582 Q2208.42 180.77 2208.42 181.636 L2208.42 208.549 Q2208.42 209.978 2209.12 210.423 Q2209.83 210.868 2212.89 210.868 L2214.42 210.868 L2214.42 212.343 Q2212.73 212.203 2206.64 212.203 Q2200.55 212.203 2198.89 212.343 L2198.89 210.868 L2200.41 210.868 Q2203.43 210.868 2204.16 210.446 Q2204.88 210.001 2204.88 208.549 L2204.88 183.698 Q2202.38 184.962 2198.58 184.962 Z" fill="#000000" fill-rule="evenodd" fill-opacity="1" /><path clip-path="url(#clip330)" d="M2218.18 211.57 Q2217.46 210.797 2217.46 209.79 Q2217.46 208.783 2218.18 208.057 Q2218.91 207.307 2220.01 207.307 Q2221.06 207.307 2221.77 208.01 Q2222.49 208.689 2222.49 209.814 Q2222.49 210.915 2221.72 211.641 Q2220.97 212.343 2220.01 212.343 Q2218.91 212.343 2218.18 211.57 Z" fill="#000000" fill-rule="evenodd" fill-opacity="1" /><path clip-path="url(#clip330)" d="M2225.78 184.962 L2225.78 183.463 Q2231.54 183.463 2234.52 180.395 Q2235.34 180.395 2235.48 180.582 Q2235.62 180.77 2235.62 181.636 L2235.62 208.549 Q2235.62 209.978 2236.32 210.423 Q2237.02 210.868 2240.09 210.868 L2241.61 210.868 L2241.61 212.343 Q2239.93 212.203 2233.84 212.203 Q2227.75 212.203 2226.08 212.343 L2226.08 210.868 L2227.61 210.868 Q2230.63 210.868 2231.35 210.446 Q2232.08 210.001 2232.08 208.549 L2232.08 183.698 Q2229.57 184.962 2225.78 184.962 Z" fill="#000000" fill-rule="evenodd" fill-opacity="1" /></svg>
