<?xml version="1.0" encoding="utf-8"?>
<svg xmlns="http://www.w3.org/2000/svg" xmlns:xlink="http://www.w3.org/1999/xlink" width="600" height="400" viewBox="0 0 2400 1600">
<defs>
  <clipPath id="clip720">
    <rect x="0" y="0" width="2400" height="1600"/>
  </clipPath>
</defs>
<path clip-path="url(#clip720)" d="M0 1600 L2400 1600 L2400 0 L0 0  Z" fill="#ffffff" fill-rule="evenodd" fill-opacity="1"/>
<defs>
  <clipPath id="clip721">
    <rect x="480" y="0" width="1681" height="1600"/>
  </clipPath>
</defs>
<path clip-path="url(#clip720)" d="M194.422 1486.45 L2352.76 1486.45 L2352.76 47.2441 L194.422 47.2441  Z" fill="#ffffff" fill-rule="evenodd" fill-opacity="1"/>
<defs>
  <clipPath id="clip722">
    <rect x="194" y="47" width="2159" height="1440"/>
  </clipPath>
</defs>
<polyline clip-path="url(#clip722)" style="stroke:#000000; stroke-linecap:round; stroke-linejoin:round; stroke-width:2; stroke-opacity:0.1; fill:none" points="255.507,1486.45 255.507,47.2441 "/>
<polyline clip-path="url(#clip722)" style="stroke:#000000; stroke-linecap:round; stroke-linejoin:round; stroke-width:2; stroke-opacity:0.1; fill:none" points="764.548,1486.45 764.548,47.2441 "/>
<polyline clip-path="url(#clip722)" style="stroke:#000000; stroke-linecap:round; stroke-linejoin:round; stroke-width:2; stroke-opacity:0.1; fill:none" points="1273.59,1486.45 1273.59,47.2441 "/>
<polyline clip-path="url(#clip722)" style="stroke:#000000; stroke-linecap:round; stroke-linejoin:round; stroke-width:2; stroke-opacity:0.1; fill:none" points="1782.63,1486.45 1782.63,47.2441 "/>
<polyline clip-path="url(#clip722)" style="stroke:#000000; stroke-linecap:round; stroke-linejoin:round; stroke-width:2; stroke-opacity:0.1; fill:none" points="2291.67,1486.45 2291.67,47.2441 "/>
<polyline clip-path="url(#clip720)" style="stroke:#000000; stroke-linecap:round; stroke-linejoin:round; stroke-width:4; stroke-opacity:1; fill:none" points="194.422,1486.45 2352.76,1486.45 "/>
<polyline clip-path="url(#clip720)" style="stroke:#000000; stroke-linecap:round; stroke-linejoin:round; stroke-width:4; stroke-opacity:1; fill:none" points="255.507,1486.45 255.507,1467.55 "/>
<polyline clip-path="url(#clip720)" style="stroke:#000000; stroke-linecap:round; stroke-linejoin:round; stroke-width:4; stroke-opacity:1; fill:none" points="764.548,1486.45 764.548,1467.55 "/>
<polyline clip-path="url(#clip720)" style="stroke:#000000; stroke-linecap:round; stroke-linejoin:round; stroke-width:4; stroke-opacity:1; fill:none" points="1273.59,1486.45 1273.59,1467.55 "/>
<polyline clip-path="url(#clip720)" style="stroke:#000000; stroke-linecap:round; stroke-linejoin:round; stroke-width:4; stroke-opacity:1; fill:none" points="1782.63,1486.45 1782.63,1467.55 "/>
<polyline clip-path="url(#clip720)" style="stroke:#000000; stroke-linecap:round; stroke-linejoin:round; stroke-width:4; stroke-opacity:1; fill:none" points="2291.67,1486.45 2291.67,1467.55 "/>
<path clip-path="url(#clip720)" d="M255.507 1517.37 Q251.896 1517.37 250.067 1520.93 Q248.262 1524.47 248.262 1531.6 Q248.262 1538.71 250.067 1542.27 Q251.896 1545.82 255.507 1545.82 Q259.141 1545.82 260.947 1542.27 Q262.776 1538.71 262.776 1531.6 Q262.776 1524.47 260.947 1520.93 Q259.141 1517.37 255.507 1517.37 M255.507 1513.66 Q261.317 1513.66 264.373 1518.27 Q267.451 1522.85 267.451 1531.6 Q267.451 1540.33 264.373 1544.94 Q261.317 1549.52 255.507 1549.52 Q249.697 1549.52 246.618 1544.94 Q243.563 1540.33 243.563 1531.6 Q243.563 1522.85 246.618 1518.27 Q249.697 1513.66 255.507 1513.66 Z" fill="#000000" fill-rule="evenodd" fill-opacity="1" /><path clip-path="url(#clip720)" d="M754.826 1514.29 L773.182 1514.29 L773.182 1518.22 L759.108 1518.22 L759.108 1526.7 Q760.127 1526.35 761.145 1526.19 Q762.164 1526 763.182 1526 Q768.969 1526 772.349 1529.17 Q775.729 1532.34 775.729 1537.76 Q775.729 1543.34 772.256 1546.44 Q768.784 1549.52 762.465 1549.52 Q760.289 1549.52 758.02 1549.15 Q755.775 1548.78 753.368 1548.04 L753.368 1543.34 Q755.451 1544.47 757.673 1545.03 Q759.895 1545.58 762.372 1545.58 Q766.377 1545.58 768.715 1543.48 Q771.053 1541.37 771.053 1537.76 Q771.053 1534.15 768.715 1532.04 Q766.377 1529.94 762.372 1529.94 Q760.497 1529.94 758.622 1530.35 Q756.77 1530.77 754.826 1531.65 L754.826 1514.29 Z" fill="#000000" fill-rule="evenodd" fill-opacity="1" /><path clip-path="url(#clip720)" d="M1248.28 1544.91 L1255.92 1544.91 L1255.92 1518.55 L1247.61 1520.21 L1247.61 1515.95 L1255.87 1514.29 L1260.55 1514.29 L1260.55 1544.91 L1268.18 1544.91 L1268.18 1548.85 L1248.28 1548.85 L1248.28 1544.91 Z" fill="#000000" fill-rule="evenodd" fill-opacity="1" /><path clip-path="url(#clip720)" d="M1287.63 1517.37 Q1284.02 1517.37 1282.19 1520.93 Q1280.38 1524.47 1280.38 1531.6 Q1280.38 1538.71 1282.19 1542.27 Q1284.02 1545.82 1287.63 1545.82 Q1291.26 1545.82 1293.07 1542.27 Q1294.9 1538.71 1294.9 1531.6 Q1294.9 1524.47 1293.07 1520.93 Q1291.26 1517.37 1287.63 1517.37 M1287.63 1513.66 Q1293.44 1513.66 1296.49 1518.27 Q1299.57 1522.85 1299.57 1531.6 Q1299.57 1540.33 1296.49 1544.94 Q1293.44 1549.52 1287.63 1549.52 Q1281.82 1549.52 1278.74 1544.94 Q1275.68 1540.33 1275.68 1531.6 Q1275.68 1522.85 1278.74 1518.27 Q1281.82 1513.66 1287.63 1513.66 Z" fill="#000000" fill-rule="evenodd" fill-opacity="1" /><path clip-path="url(#clip720)" d="M1757.82 1544.91 L1765.45 1544.91 L1765.45 1518.55 L1757.14 1520.21 L1757.14 1515.95 L1765.41 1514.29 L1770.08 1514.29 L1770.08 1544.91 L1777.72 1544.91 L1777.72 1548.85 L1757.82 1548.85 L1757.82 1544.91 Z" fill="#000000" fill-rule="evenodd" fill-opacity="1" /><path clip-path="url(#clip720)" d="M1787.21 1514.29 L1805.57 1514.29 L1805.57 1518.22 L1791.5 1518.22 L1791.5 1526.7 Q1792.51 1526.35 1793.53 1526.19 Q1794.55 1526 1795.57 1526 Q1801.36 1526 1804.74 1529.17 Q1808.12 1532.34 1808.12 1537.76 Q1808.12 1543.34 1804.64 1546.44 Q1801.17 1549.52 1794.85 1549.52 Q1792.68 1549.52 1790.41 1549.15 Q1788.16 1548.78 1785.75 1548.04 L1785.75 1543.34 Q1787.84 1544.47 1790.06 1545.03 Q1792.28 1545.58 1794.76 1545.58 Q1798.76 1545.58 1801.1 1543.48 Q1803.44 1541.37 1803.44 1537.76 Q1803.44 1534.15 1801.1 1532.04 Q1798.76 1529.94 1794.76 1529.94 Q1792.88 1529.94 1791.01 1530.35 Q1789.16 1530.77 1787.21 1531.65 L1787.21 1514.29 Z" fill="#000000" fill-rule="evenodd" fill-opacity="1" /><path clip-path="url(#clip720)" d="M2270.44 1544.91 L2286.76 1544.91 L2286.76 1548.85 L2264.82 1548.85 L2264.82 1544.91 Q2267.48 1542.16 2272.06 1537.53 Q2276.67 1532.88 2277.85 1531.53 Q2280.1 1529.01 2280.98 1527.27 Q2281.88 1525.51 2281.88 1523.82 Q2281.88 1521.07 2279.93 1519.33 Q2278.01 1517.6 2274.91 1517.6 Q2272.71 1517.6 2270.26 1518.36 Q2267.83 1519.13 2265.05 1520.68 L2265.05 1515.95 Q2267.87 1514.82 2270.33 1514.24 Q2272.78 1513.66 2274.82 1513.66 Q2280.19 1513.66 2283.38 1516.35 Q2286.58 1519.03 2286.58 1523.52 Q2286.58 1525.65 2285.77 1527.57 Q2284.98 1529.47 2282.87 1532.07 Q2282.3 1532.74 2279.19 1535.95 Q2276.09 1539.15 2270.44 1544.91 Z" fill="#000000" fill-rule="evenodd" fill-opacity="1" /><path clip-path="url(#clip720)" d="M2306.58 1517.37 Q2302.97 1517.37 2301.14 1520.93 Q2299.33 1524.47 2299.33 1531.6 Q2299.33 1538.71 2301.14 1542.27 Q2302.97 1545.82 2306.58 1545.82 Q2310.21 1545.82 2312.02 1542.27 Q2313.85 1538.71 2313.85 1531.6 Q2313.85 1524.47 2312.02 1520.93 Q2310.21 1517.37 2306.58 1517.37 M2306.58 1513.66 Q2312.39 1513.66 2315.44 1518.27 Q2318.52 1522.85 2318.52 1531.6 Q2318.52 1540.33 2315.44 1544.94 Q2312.39 1549.52 2306.58 1549.52 Q2300.77 1549.52 2297.69 1544.94 Q2294.63 1540.33 2294.63 1531.6 Q2294.63 1522.85 2297.69 1518.27 Q2300.77 1513.66 2306.58 1513.66 Z" fill="#000000" fill-rule="evenodd" fill-opacity="1" /><polyline clip-path="url(#clip722)" style="stroke:#000000; stroke-linecap:round; stroke-linejoin:round; stroke-width:2; stroke-opacity:0.1; fill:none" points="194.422,1424.8 2352.76,1424.8 "/>
<polyline clip-path="url(#clip722)" style="stroke:#000000; stroke-linecap:round; stroke-linejoin:round; stroke-width:2; stroke-opacity:0.1; fill:none" points="194.422,1090.6 2352.76,1090.6 "/>
<polyline clip-path="url(#clip722)" style="stroke:#000000; stroke-linecap:round; stroke-linejoin:round; stroke-width:2; stroke-opacity:0.1; fill:none" points="194.422,756.389 2352.76,756.389 "/>
<polyline clip-path="url(#clip722)" style="stroke:#000000; stroke-linecap:round; stroke-linejoin:round; stroke-width:2; stroke-opacity:0.1; fill:none" points="194.422,422.183 2352.76,422.183 "/>
<polyline clip-path="url(#clip722)" style="stroke:#000000; stroke-linecap:round; stroke-linejoin:round; stroke-width:2; stroke-opacity:0.1; fill:none" points="194.422,87.9763 2352.76,87.9763 "/>
<polyline clip-path="url(#clip720)" style="stroke:#000000; stroke-linecap:round; stroke-linejoin:round; stroke-width:4; stroke-opacity:1; fill:none" points="194.422,1486.45 194.422,47.2441 "/>
<polyline clip-path="url(#clip720)" style="stroke:#000000; stroke-linecap:round; stroke-linejoin:round; stroke-width:4; stroke-opacity:1; fill:none" points="194.422,1424.8 213.32,1424.8 "/>
<polyline clip-path="url(#clip720)" style="stroke:#000000; stroke-linecap:round; stroke-linejoin:round; stroke-width:4; stroke-opacity:1; fill:none" points="194.422,1090.6 213.32,1090.6 "/>
<polyline clip-path="url(#clip720)" style="stroke:#000000; stroke-linecap:round; stroke-linejoin:round; stroke-width:4; stroke-opacity:1; fill:none" points="194.422,756.389 213.32,756.389 "/>
<polyline clip-path="url(#clip720)" style="stroke:#000000; stroke-linecap:round; stroke-linejoin:round; stroke-width:4; stroke-opacity:1; fill:none" points="194.422,422.183 213.32,422.183 "/>
<polyline clip-path="url(#clip720)" style="stroke:#000000; stroke-linecap:round; stroke-linejoin:round; stroke-width:4; stroke-opacity:1; fill:none" points="194.422,87.9763 213.32,87.9763 "/>
<path clip-path="url(#clip720)" d="M51.5708 1425.25 L81.2466 1425.25 L81.2466 1429.19 L51.5708 1429.19 L51.5708 1425.25 Z" fill="#000000" fill-rule="evenodd" fill-opacity="1" /><path clip-path="url(#clip720)" d="M101.339 1410.6 Q97.728 1410.6 95.8993 1414.17 Q94.0937 1417.71 94.0937 1424.84 Q94.0937 1431.94 95.8993 1435.51 Q97.728 1439.05 101.339 1439.05 Q104.973 1439.05 106.779 1435.51 Q108.608 1431.94 108.608 1424.84 Q108.608 1417.71 106.779 1414.17 Q104.973 1410.6 101.339 1410.6 M101.339 1406.9 Q107.149 1406.9 110.205 1411.5 Q113.283 1416.09 113.283 1424.84 Q113.283 1433.56 110.205 1438.17 Q107.149 1442.75 101.339 1442.75 Q95.5289 1442.75 92.4502 1438.17 Q89.3947 1433.56 89.3947 1424.84 Q89.3947 1416.09 92.4502 1411.5 Q95.5289 1406.9 101.339 1406.9 Z" fill="#000000" fill-rule="evenodd" fill-opacity="1" /><path clip-path="url(#clip720)" d="M121.501 1436.2 L126.385 1436.2 L126.385 1442.08 L121.501 1442.08 L121.501 1436.2 Z" fill="#000000" fill-rule="evenodd" fill-opacity="1" /><path clip-path="url(#clip720)" d="M146.57 1425.67 Q143.237 1425.67 141.316 1427.45 Q139.418 1429.24 139.418 1432.36 Q139.418 1435.49 141.316 1437.27 Q143.237 1439.05 146.57 1439.05 Q149.904 1439.05 151.825 1437.27 Q153.746 1435.46 153.746 1432.36 Q153.746 1429.24 151.825 1427.45 Q149.927 1425.67 146.57 1425.67 M141.894 1423.68 Q138.885 1422.94 137.195 1420.88 Q135.529 1418.82 135.529 1415.86 Q135.529 1411.71 138.469 1409.31 Q141.431 1406.9 146.57 1406.9 Q151.732 1406.9 154.672 1409.31 Q157.612 1411.71 157.612 1415.86 Q157.612 1418.82 155.922 1420.88 Q154.255 1422.94 151.269 1423.68 Q154.649 1424.47 156.524 1426.76 Q158.422 1429.05 158.422 1432.36 Q158.422 1437.38 155.343 1440.07 Q152.288 1442.75 146.57 1442.75 Q140.853 1442.75 137.774 1440.07 Q134.719 1437.38 134.719 1432.36 Q134.719 1429.05 136.617 1426.76 Q138.515 1424.47 141.894 1423.68 M140.181 1416.3 Q140.181 1418.98 141.848 1420.49 Q143.538 1421.99 146.57 1421.99 Q149.58 1421.99 151.269 1420.49 Q152.982 1418.98 152.982 1416.3 Q152.982 1413.61 151.269 1412.11 Q149.58 1410.6 146.57 1410.6 Q143.538 1410.6 141.848 1412.11 Q140.181 1413.61 140.181 1416.3 Z" fill="#000000" fill-rule="evenodd" fill-opacity="1" /><path clip-path="url(#clip720)" d="M51.3162 1091.05 L80.992 1091.05 L80.992 1094.98 L51.3162 1094.98 L51.3162 1091.05 Z" fill="#000000" fill-rule="evenodd" fill-opacity="1" /><path clip-path="url(#clip720)" d="M101.084 1076.39 Q97.4734 1076.39 95.6447 1079.96 Q93.8391 1083.5 93.8391 1090.63 Q93.8391 1097.74 95.6447 1101.3 Q97.4734 1104.84 101.084 1104.84 Q104.719 1104.84 106.524 1101.3 Q108.353 1097.74 108.353 1090.63 Q108.353 1083.5 106.524 1079.96 Q104.719 1076.39 101.084 1076.39 M101.084 1072.69 Q106.895 1072.69 109.95 1077.3 Q113.029 1081.88 113.029 1090.63 Q113.029 1099.36 109.95 1103.96 Q106.895 1108.55 101.084 1108.55 Q95.2743 1108.55 92.1956 1103.96 Q89.1401 1099.36 89.1401 1090.63 Q89.1401 1081.88 92.1956 1077.3 Q95.2743 1072.69 101.084 1072.69 Z" fill="#000000" fill-rule="evenodd" fill-opacity="1" /><path clip-path="url(#clip720)" d="M121.246 1102 L126.131 1102 L126.131 1107.88 L121.246 1107.88 L121.246 1102 Z" fill="#000000" fill-rule="evenodd" fill-opacity="1" /><path clip-path="url(#clip720)" d="M146.894 1088.73 Q143.746 1088.73 141.894 1090.89 Q140.066 1093.04 140.066 1096.79 Q140.066 1100.51 141.894 1102.69 Q143.746 1104.84 146.894 1104.84 Q150.043 1104.84 151.871 1102.69 Q153.723 1100.51 153.723 1096.79 Q153.723 1093.04 151.871 1090.89 Q150.043 1088.73 146.894 1088.73 M156.177 1074.08 L156.177 1078.34 Q154.417 1077.51 152.612 1077.07 Q150.83 1076.63 149.07 1076.63 Q144.441 1076.63 141.987 1079.75 Q139.556 1082.88 139.209 1089.2 Q140.575 1087.18 142.635 1086.12 Q144.695 1085.03 147.172 1085.03 Q152.38 1085.03 155.39 1088.2 Q158.422 1091.35 158.422 1096.79 Q158.422 1102.11 155.274 1105.33 Q152.126 1108.55 146.894 1108.55 Q140.899 1108.55 137.728 1103.96 Q134.556 1099.36 134.556 1090.63 Q134.556 1082.44 138.445 1077.58 Q142.334 1072.69 148.885 1072.69 Q150.644 1072.69 152.427 1073.04 Q154.232 1073.39 156.177 1074.08 Z" fill="#000000" fill-rule="evenodd" fill-opacity="1" /><path clip-path="url(#clip720)" d="M50.9921 756.841 L80.6679 756.841 L80.6679 760.776 L50.9921 760.776 L50.9921 756.841 Z" fill="#000000" fill-rule="evenodd" fill-opacity="1" /><path clip-path="url(#clip720)" d="M100.76 742.188 Q97.1493 742.188 95.3206 745.753 Q93.515 749.295 93.515 756.424 Q93.515 763.531 95.3206 767.095 Q97.1493 770.637 100.76 770.637 Q104.395 770.637 106.2 767.095 Q108.029 763.531 108.029 756.424 Q108.029 749.295 106.2 745.753 Q104.395 742.188 100.76 742.188 M100.76 738.484 Q106.571 738.484 109.626 743.091 Q112.705 747.674 112.705 756.424 Q112.705 765.151 109.626 769.757 Q106.571 774.341 100.76 774.341 Q94.9502 774.341 91.8715 769.757 Q88.816 765.151 88.816 756.424 Q88.816 747.674 91.8715 743.091 Q94.9502 738.484 100.76 738.484 Z" fill="#000000" fill-rule="evenodd" fill-opacity="1" /><path clip-path="url(#clip720)" d="M120.922 767.79 L125.807 767.79 L125.807 773.669 L120.922 773.669 L120.922 767.79 Z" fill="#000000" fill-rule="evenodd" fill-opacity="1" /><path clip-path="url(#clip720)" d="M148.839 743.184 L137.033 761.632 L148.839 761.632 L148.839 743.184 M147.612 739.109 L153.492 739.109 L153.492 761.632 L158.422 761.632 L158.422 765.521 L153.492 765.521 L153.492 773.669 L148.839 773.669 L148.839 765.521 L133.237 765.521 L133.237 761.007 L147.612 739.109 Z" fill="#000000" fill-rule="evenodd" fill-opacity="1" /><path clip-path="url(#clip720)" d="M53.0754 422.634 L82.7512 422.634 L82.7512 426.569 L53.0754 426.569 L53.0754 422.634 Z" fill="#000000" fill-rule="evenodd" fill-opacity="1" /><path clip-path="url(#clip720)" d="M102.844 407.982 Q99.2326 407.982 97.4039 411.546 Q95.5984 415.088 95.5984 422.218 Q95.5984 429.324 97.4039 432.889 Q99.2326 436.43 102.844 436.43 Q106.478 436.43 108.283 432.889 Q110.112 429.324 110.112 422.218 Q110.112 415.088 108.283 411.546 Q106.478 407.982 102.844 407.982 M102.844 404.278 Q108.654 404.278 111.709 408.884 Q114.788 413.468 114.788 422.218 Q114.788 430.944 111.709 435.551 Q108.654 440.134 102.844 440.134 Q97.0335 440.134 93.9549 435.551 Q90.8993 430.944 90.8993 422.218 Q90.8993 413.468 93.9549 408.884 Q97.0335 404.278 102.844 404.278 Z" fill="#000000" fill-rule="evenodd" fill-opacity="1" /><path clip-path="url(#clip720)" d="M123.006 433.583 L127.89 433.583 L127.89 439.463 L123.006 439.463 L123.006 433.583 Z" fill="#000000" fill-rule="evenodd" fill-opacity="1" /><path clip-path="url(#clip720)" d="M142.103 435.528 L158.422 435.528 L158.422 439.463 L136.478 439.463 L136.478 435.528 Q139.14 432.773 143.723 428.143 Q148.33 423.491 149.51 422.148 Q151.755 419.625 152.635 417.889 Q153.538 416.13 153.538 414.44 Q153.538 411.685 151.593 409.949 Q149.672 408.213 146.57 408.213 Q144.371 408.213 141.918 408.977 Q139.487 409.741 136.709 411.292 L136.709 406.57 Q139.533 405.435 141.987 404.857 Q144.441 404.278 146.478 404.278 Q151.848 404.278 155.042 406.963 Q158.237 409.648 158.237 414.139 Q158.237 416.269 157.427 418.19 Q156.64 420.088 154.533 422.681 Q153.955 423.352 150.853 426.569 Q147.751 429.764 142.103 435.528 Z" fill="#000000" fill-rule="evenodd" fill-opacity="1" /><path clip-path="url(#clip720)" d="M101.246 73.775 Q97.6354 73.775 95.8067 77.3398 Q94.0012 80.8814 94.0012 88.011 Q94.0012 95.1174 95.8067 98.6822 Q97.6354 102.224 101.246 102.224 Q104.881 102.224 106.686 98.6822 Q108.515 95.1174 108.515 88.011 Q108.515 80.8814 106.686 77.3398 Q104.881 73.775 101.246 73.775 M101.246 70.0713 Q107.057 70.0713 110.112 74.6777 Q113.191 79.261 113.191 88.011 Q113.191 96.7378 110.112 101.344 Q107.057 105.928 101.246 105.928 Q95.4363 105.928 92.3576 101.344 Q89.3021 96.7378 89.3021 88.011 Q89.3021 79.261 92.3576 74.6777 Q95.4363 70.0713 101.246 70.0713 Z" fill="#000000" fill-rule="evenodd" fill-opacity="1" /><path clip-path="url(#clip720)" d="M121.408 99.3767 L126.293 99.3767 L126.293 105.256 L121.408 105.256 L121.408 99.3767 Z" fill="#000000" fill-rule="evenodd" fill-opacity="1" /><path clip-path="url(#clip720)" d="M146.478 73.775 Q142.867 73.775 141.038 77.3398 Q139.232 80.8814 139.232 88.011 Q139.232 95.1174 141.038 98.6822 Q142.867 102.224 146.478 102.224 Q150.112 102.224 151.918 98.6822 Q153.746 95.1174 153.746 88.011 Q153.746 80.8814 151.918 77.3398 Q150.112 73.775 146.478 73.775 M146.478 70.0713 Q152.288 70.0713 155.343 74.6777 Q158.422 79.261 158.422 88.011 Q158.422 96.7378 155.343 101.344 Q152.288 105.928 146.478 105.928 Q140.668 105.928 137.589 101.344 Q134.533 96.7378 134.533 88.011 Q134.533 79.261 137.589 74.6777 Q140.668 70.0713 146.478 70.0713 Z" fill="#000000" fill-rule="evenodd" fill-opacity="1" /><polyline clip-path="url(#clip722)" style="stroke:#009af9; stroke-linecap:round; stroke-linejoin:round; stroke-width:4; stroke-opacity:1; fill:none" points="255.507,87.9763 255.921,88.6715 256.336,90.7559 256.75,94.225 257.164,99.0717 257.578,105.286 257.993,112.855 258.407,121.766 258.821,131.994 259.235,143.523 259.65,156.329 260.064,170.384 260.478,185.66 260.892,202.126 261.307,219.747 261.721,238.488 262.135,258.309 262.964,301.029 263.792,347.555 264.621,397.505 265.449,450.47 266.278,506.013 267.106,563.68 267.935,622.997 268.764,683.478 270.679,825.01 272.594,963.941 273.552,1030.53 274.509,1094.24 275.467,1154.36 276.425,1210.26 277.382,1261.32 278.34,1307.01 279.297,1346.82 280.255,1380.36 281.213,1407.25 282.17,1427.22 283.128,1440.09 284.086,1445.72 285.043,1444.06 286.001,1435.17 286.958,1419.14 287.916,1396.21 288.874,1366.64 289.831,1330.77 290.789,1289.03 291.747,1241.9 292.704,1189.91 293.662,1133.66 294.619,1073.82 295.577,1011.01 297.492,879.473 299.408,744.977 300.365,678.517 301.323,613.599 302.28,550.818 303.238,491.016 304.196,434.825 305.153,382.871 306.111,335.715 307.069,293.881 308.026,257.834 308.984,227.962 309.941,204.594 310.899,187.984 311.857,178.306 312.814,175.659 313.772,180.066 314.73,191.463 315.687,209.726 316.645,234.635 317.602,265.903 318.56,303.177 319.518,346.036 320.475,393.998 321.433,446.527 322.39,503.033 323.348,562.88 324.306,625.415 325.263,689.938 326.221,755.737 328.136,888.246 330.051,1017.11 331.009,1078.38 331.967,1136.7 332.924,1191.39 333.882,1241.86 334.84,1287.62 335.797,1328.11 336.755,1362.96 337.712,1391.77 338.67,1414.24 339.628,1430.16 340.585,1439.4 341.543,1441.87 342.501,1437.55 343.458,1426.52 344.416,1408.93 345.373,1385 346.331,1355.04 347.289,1319.4 348.246,1278.48 349.204,1232.76 350.162,1182.77 351.119,1129.07 352.077,1072.28 353.034,1013.04 354.95,889.872 356.865,765.064 357.823,704.004 358.78,644.058 359.738,586.738 360.695,532.299 361.653,481.35 362.611,434.464 363.568,392.131 364.526,354.779 365.484,322.814 366.441,296.569 367.399,276.292 368.356,262.179 369.314,254.353 370.272,252.868 371.229,257.705 372.187,268.788 373.145,286.016 374.102,308.947 375.06,337.52 376.017,371.311 376.975,409.898 377.933,452.867 378.89,499.68 379.848,549.767 380.806,602.658 381.763,657.635 382.721,714.135 383.678,771.481 385.594,886.25 387.509,996.832 388.467,1048.99 389.424,1098.35 390.382,1144.34 391.339,1186.47 391.915,1209.74 392.49,1231.39 393.066,1251.32 393.641,1269.45 394.217,1285.72 394.792,1300.08 395.368,1312.39 395.943,1322.81 396.519,1331.13 397.094,1337.36 397.67,1340.54 398.245,1342.46 398.821,1343.38 399.396,1341.52 399.972,1337.39 400.547,1331.17 401.123,1322.9 401.698,1312.68 402.274,1300.56 402.849,1286.58 403.425,1270.81 404,1253.34 404.576,1234.38 405.151,1213.54 405.727,1191.29 406.302,1167.72 406.878,1142.89 407.453,1116.92 408.604,1061.9 409.755,1003.57 412.057,881.003 414.359,757.158 415.51,697.319 416.661,640.124 417.237,612.791 417.812,586.478 418.388,561.261 418.963,537.25 419.539,514.511 420.114,493.143 420.69,473.238 421.265,454.864 421.84,438.088 422.416,422.97 422.991,409.563 423.567,397.916 424.142,388.04 424.718,380.247 425.293,373.845 425.869,369.534 426.444,367.099 427.02,366.537 427.595,367.835 428.171,371.032 428.746,376.023 429.322,382.832 429.897,391.372 430.473,401.65 431.048,413.599 431.624,427.16 432.199,442.267 432.775,458.85 433.35,476.832 433.926,496.126 434.501,516.655 435.077,538.367 435.652,561.123 436.228,584.809 436.803,609.356 437.379,634.635 439.681,741.003 441.983,850.373 443.134,903.936 444.285,955.589 445.436,1004.51 446.587,1049.92 447.162,1071.08 447.738,1091.11 448.313,1109.88 448.889,1127.46 449.464,1143.64 450.04,1158.41 450.615,1171.72 451.191,1183.52 451.766,1193.78 452.342,1202.46 452.917,1209.53 453.493,1214.98 454.068,1218.87 454.644,1221.04 455.219,1221.45 455.795,1220.31 456.37,1217.55 456.945,1213.19 457.521,1207.26 458.096,1199.79 458.672,1190.87 459.247,1180.4 459.823,1168.87 460.398,1155.35 460.974,1140.87 461.549,1125.19 462.125,1108.37 462.7,1090.47 463.276,1071.6 463.851,1051.84 464.427,1031.24 465.002,1009.92 466.949,933.777 468.895,854.129 470.841,774.9 472.788,699.728 473.761,664.807 474.734,632.161 475.707,602.169 476.68,575.152 477.167,562.949 477.653,551.434 478.14,540.862 478.626,531.224 479.113,522.491 479.6,514.721 480.086,507.923 480.573,502.11 481.059,497.294 481.546,493.486 482.032,490.511 482.519,488.805 483.006,488.106 483.492,488.302 483.979,489.628 484.465,491.827 484.952,495.035 485.438,499.22 485.925,504.354 486.412,510.412 487.385,525.345 488.358,543.436 489.331,564.757 490.304,589.23 491.277,615.635 492.25,644.167 494.197,707.269 496.143,774.061 498.089,841.587 500.036,906.633 501.009,937.27 501.982,966.132 502.955,993.019 503.928,1017.5 504.901,1039.37 505.874,1058.4 506.848,1074.39 507.821,1087.23 508.794,1096.77 509.767,1102.95 510.74,1105.75 511.713,1105.2 512.686,1101.3 513.659,1094.26 514.633,1084.42 515.606,1071.05 516.579,1055.34 517.552,1037.25 518.525,1016.94 519.498,994.731 521.445,946.074 523.391,893.416 525.337,840.013 527.283,788.441 528.341,762.127 529.398,737.478 530.455,714.85 531.512,694.57 532.569,676.88 533.626,662.034 534.683,650.201 535.74,641.514 536.797,636.401 537.855,633.907 538.912,635.021 539.969,639.234 541.026,646.539 542.083,656.767 543.14,669.705 544.197,685.287 545.254,702.681 546.311,722.142 547.368,743.157 548.426,765.332 550.54,811.791 552.654,858.568 553.711,881.104 554.768,902.712 555.825,922.858 556.882,941.419 557.94,957.957 558.997,971.81 560.054,984.51 561.111,994.005 562.168,1000.9 563.225,1004.88 564.282,1005.88 565.339,1004.64 566.396,1000.42 567.453,993.496 568.511,984.09 569.568,972.347 570.625,958.47 571.682,942.693 572.739,925.852 573.796,906.602 575.91,866.498 578.025,824.802 580.139,784.352 582.253,748.008 583.31,731.507 584.367,717.039 585.424,704.542 586.481,694.214 587.538,686.185 588.596,680.574 589.653,677.291 590.71,676.9 591.767,678.778 592.824,683.145 593.881,689.871 594.938,698.887 595.913,708.995 596.887,720.723 597.862,733.724 598.836,748.386 600.786,780.044 602.735,814.092 604.684,848.586 606.633,881.369 607.607,896.643 608.582,910.767 609.557,923.762 610.531,933.266 611.506,945.093 612.48,953.272 613.455,959.556 614.429,963.893 615.404,966.215 616.378,966.494 617.353,964.73 618.328,960.945 619.302,955.191 620.277,947.507 621.251,938.126 622.226,927.059 623.2,914.491 624.175,900.624 625.15,885.669 626.124,869.65 628.073,835.966 630.022,801.362 631.971,767.894 633.921,737.387 634.895,723.843 635.87,711.684 636.844,701.081 637.819,692.239 638.793,685.268 639.768,680.294 640.742,677.413 641.717,676.675 642.692,678.7 643.666,681.758 644.641,687.476 645.615,695.324 646.59,705.288 647.564,716.91 648.539,730.407 649.513,745.452 651.463,779.892 653.412,817.911 655.361,858.45 657.31,898.953 658.355,919.564 659.4,939.48 660.444,958.153 661.489,975.301 662.534,990.65 663.579,1004.33 664.624,1015.06 665.669,1023.67 666.713,1029.71 667.758,1033.31 668.803,1033.61 669.848,1031.39 670.893,1026.36 671.938,1018.6 672.982,1008.19 674.027,995.68 675.072,979.918 676.117,962.654 677.162,943.031 678.206,921.944 680.296,876.001 682.386,827.108 684.475,778.504 686.565,731.954 687.61,710.63 688.655,691.289 689.7,673.373 690.744,657.851 691.789,644.895 692.834,634.546 693.879,627.019 694.924,622.429 695.969,620.869 697.013,622.366 698.058,626.942 699.103,634.526 700.148,645.102 701.193,658.384 702.238,674.321 703.282,692.682 704.327,713.121 705.372,735.56 706.417,759.588 707.462,785.306 709.551,837.519 711.641,890.9 712.686,916.977 713.731,942.459 714.775,965.629 715.82,987.48 716.865,1007.49 717.91,1025.08 718.955,1040.27 720,1052.69 721.044,1062.04 722.089,1068.29 723.134,1071.37 724.179,1071.14 724.784,1069.43 725.389,1066.63 725.995,1062.74 726.6,1057.77 727.205,1051.75 727.811,1044.69 728.416,1036.61 729.021,1027.57 730.232,1006.74 731.442,982.534 732.653,955.416 733.863,925.793 736.284,861.434 738.705,794.099 739.916,760.897 741.126,728.888 742.337,698.553 743.548,670.505 744.758,645.303 745.969,623.384 746.574,613.734 747.179,604.846 747.784,597.483 748.39,590.972 748.995,585.484 749.6,581.147 750.205,577.911 750.811,575.899 751.416,575.019 752.021,575.314 752.627,576.781 753.232,579.425 753.837,583.221 754.442,588.139 755.048,594.213 755.653,601.402 756.258,609.647 756.863,618.914 757.469,629.307 758.074,640.372 759.285,665.421 760.495,693.52 761.706,725.032 762.916,757.054 765.337,826.885 767.758,897.074 768.969,930.98 770.179,962.734 771.39,992.96 772.6,1020.22 773.206,1032.47 773.811,1044.03 774.416,1054.34 775.021,1063.84 775.627,1072.19 776.232,1079.7 776.837,1085.95 777.443,1091.08 778.048,1095.06 778.653,1097.86 779.258,1099.46 779.864,1099.86 780.469,1099.06 781.074,1097.06 781.679,1093.88 782.285,1089.72 782.89,1084.03 783.495,1077.16 784.101,1070.11 784.706,1060.66 785.311,1051.03 785.916,1040.25 786.522,1028.34 787.127,1015.68 788.337,987.973 789.548,957.632 790.758,924.834 791.969,890.454 794.39,819.421 796.811,749.556 798.022,716.598 799.232,685.878 800.443,657.815 801.653,633.033 802.729,614.031 803.805,598.211 804.343,591.551 804.881,585.771 805.419,580.885 805.956,576.916 807.032,571.768 808.108,570.121 808.646,570.907 809.184,571.596 809.722,575.202 810.26,578.7 811.335,588.424 812.411,601.635 813.487,618.342 814.563,637.673 815.638,659.998 816.714,684.761 817.79,711.406 818.866,740.227 821.017,800.569 823.169,862.835 824.245,893.294 825.32,922.887 826.396,951.171 827.472,977.596 828.548,1002.08 829.624,1024.04 830.699,1043.27 831.775,1059.33 832.851,1072.29 833.927,1081.88 834.465,1085.35 835.003,1087.88 835.54,1089.49 836.078,1090.19 836.616,1089.98 837.154,1088.86 837.692,1087.16 838.23,1084.04 839.306,1075.56 840.381,1063.75 841.457,1048.79 842.533,1030.83 843.609,1010.24 844.685,987.967 845.76,962.186 846.836,935.569 847.912,907.457 848.988,880.182 851.139,819.988 853.291,762.998 854.367,736.038 855.442,711.04 856.518,687.527 857.594,666.642 858.67,648.054 859.746,632.39 860.821,619.815 861.897,610.45 862.973,604.831 864.049,601.707 864.587,601.636 865.124,602.412 865.662,604.025 866.2,606.31 867.276,613.838 868.352,623.978 869.428,637.984 870.503,654.287 871.447,670.312 872.39,688.801 873.333,708.437 874.277,729.442 876.164,774.249 878.05,821.299 879.937,868.414 881.824,913.119 882.767,934.433 883.71,954.515 884.654,973.488 885.597,989.757 886.541,1004.73 887.484,1017.73 888.427,1028.61 889.371,1037.27 890.314,1043.64 891.257,1047.46 892.201,1049.11 893.144,1048.72 894.087,1045.43 895.031,1039.64 895.974,1031.95 896.918,1022.12 897.861,1010.21 898.804,995.037 899.748,981.269 900.691,964.052 902.578,926.638 904.464,885.971 906.351,843.172 908.238,800.995 909.181,780.638 910.125,761.067 911.068,742.488 912.011,725.245 912.955,708.961 913.898,694.908 914.841,682.091 915.785,671.227 916.728,662.307 917.672,655.218 918.615,650.678 919.558,647.969 920.502,647.403 921.445,648.903 922.388,652.581 923.332,658.403 924.275,665.86 925.218,675.315 926.162,686.995 927.105,699.24 928.049,713.179 928.992,728.412 929.935,744.705 930.879,761.803 932.936,801.071 934.993,841.118 937.05,879.791 939.107,915.548 940.135,930.682 941.164,945.31 942.192,957.363 943.221,967.578 944.249,976.165 945.278,982.835 946.306,987.214 947.335,992.524 948.363,989.445 949.392,987.332 950.421,983.136 951.449,976.938 952.478,968.798 953.506,958.919 954.535,947.329 955.563,935.058 957.62,905.658 959.677,873.695 961.734,840.637 963.791,808.378 964.82,793.285 965.848,777.958 966.877,765.552 967.905,753.403 968.934,742.896 969.962,734.064 970.991,726.459 972.019,720.837 973.048,717.04 974.076,715.099 975.105,715.123 976.134,716.901 977.162,720.309 978.191,725.536 979.219,732.449 980.248,740.624 981.276,750.565 982.305,761.497 983.333,773.444 984.362,786.222 986.419,813.52 988.476,841.643 990.533,868.776 992.59,893.501 993.618,903.962 994.647,914.271 995.675,922.785 996.704,929.91 997.739,935.568 998.773,939.637 999.808,942.083 1000.84,942.999 1001.88,941.848 1002.91,939.844 1003.95,935.291 1004.98,929.267 1006.02,922.383 1007.05,913.97 1008.08,905.419 1009.12,893.926 1011.19,871.614 1013.26,845.155 1015.33,819.82 1017.4,795.741 1019.47,774.756 1021.54,757.323 1022.57,750.554 1023.6,745.171 1024.64,741.254 1025.67,738.776 1026.71,738.12 1027.74,738.616 1028.78,741.15 1029.81,745.17 1031.88,758.497 1033.95,773.818 1036.02,794.575 1038.09,818.054 1040.16,842.358 1042.23,866.42 1044.3,888.408 1046.37,906.89 1047.4,914.252 1048.44,920.055 1049.47,925.348 1050.5,928.845 1051.54,930.903 1052.57,931.319 1053.61,930.174 1054.64,927.44 1055.68,923.173 1056.71,917.37 1057.75,910.166 1058.78,901.695 1060.85,881.607 1062.92,857.494 1065.21,829.124 1067.5,800.144 1069.78,773.477 1072.07,750.448 1073.22,740.134 1074.36,733.517 1075.5,727.088 1076.65,723.328 1077.79,721.36 1078.94,721.316 1080.08,723.468 1081.22,728.018 1082.37,734.408 1083.51,742.747 1084.65,752.062 1085.8,764.939 1088.09,792.718 1090.37,824.491 1092.66,858.14 1094.95,891.132 1096.09,906.657 1097.24,921.678 1098.38,933.758 1099.53,945.608 1100.67,956.037 1101.81,963.873 1102.96,969.471 1104.1,973.236 1105.25,974.464 1106.39,973.323 1107.53,969.758 1108.68,963.298 1109.25,960.162 1109.82,956.454 1110.39,951.045 1110.96,939.916 1111.54,939.334 1112.11,932.803 1112.68,926.176 1113.25,919.058 1114.4,903.639 1115.54,886.734 1116.68,869.013 1117.83,850.068 1120.12,812.012 1122.4,774.637 1123.55,757.427 1124.69,741.55 1125.84,725.62 1126.98,713.562 1128.12,702.683 1129.27,694.039 1130.41,687.773 1131.56,684.025 1132.7,681.545 1133.84,684.401 1134.99,688.502 1136.13,695.479 1137.22,703.764 1138.31,715.151 1139.4,728.168 1140.48,743.01 1141.57,760.163 1142.66,776.267 1143.21,786.513 1143.75,796.278 1144.29,806.119 1144.84,822.687 1145.38,826.464 1145.93,836.253 1146.47,846.142 1147.02,856.899 1148.1,877.341 1149.19,897.485 1150.28,916.568 1151.37,935.491 1152.46,952.654 1153.55,968.299 1154.63,981.863 1155.72,993.13 1156.81,1003.77 1157.9,1010.51 1158.99,1015.47 1160.08,1017.79 1161.16,1017.81 1162.25,1014.82 1163.34,1009.08 1164.43,1000.92 1165.52,990.574 1166.61,977.56 1167.7,962.669 1168.78,946.351 1169.87,927.457 1170.96,907.695 1173.14,864.382 1175.31,820.872 1177.49,777.418 1179.67,737.276 1180.76,719.347 1181.84,703.014 1182.93,688.944 1184.02,676.261 1185.11,667.728 1186.2,660.031 1187.29,655.848 1188.37,654.219 1189.46,655.411 1190.55,659.331 1191.64,665.958 1192.73,675.21 1193.82,686.32 1194.91,701.033 1195.99,717.218 1197.08,735.137 1199.26,776.08 1201.44,820.227 1203.61,867.034 1205.79,911.88 1206.92,934.13 1208.05,954.288 1209.18,973.075 1210.32,989.503 1211.45,1002.53 1212.58,1015.32 1213.71,1024.2 1214.84,1030.06 1215.97,1032.5 1217.11,1032.48 1217.67,1031.37 1218.24,1030.38 1218.8,1026.28 1219.37,1022.64 1220.5,1013.38 1221.63,1000.46 1222.76,986.003 1223.9,968.793 1225.03,948.679 1226.16,927.587 1227.29,904.844 1228.42,880.715 1230.69,830.348 1232.95,780.895 1234.08,756.663 1235.21,734.142 1236.35,712.906 1237.48,693.448 1238.61,676.138 1239.74,661.6 1240.87,649.251 1242,640.059 1243.14,633.885 1244.27,630.75 1245.4,630.955 1246.53,633.721 1247.66,640.134 1248.79,649.318 1249.93,661.407 1251.06,676.16 1252.19,693.436 1253.32,712.356 1254.45,733.354 1255.58,754.732 1257.85,803.951 1260.11,853.343 1261.24,876.812 1262.37,900.949 1263.51,922.275 1264.64,944.408 1265.77,963.059 1266.9,980.215 1268.03,994.391 1269.16,1006.21 1270.3,1015.29 1271.43,1021.39 1272.56,1024.51 1273.69,1024.64 1274.82,1021.59 1275.95,1015.88 1277.09,1007.13 1278.22,995.711 1279.17,984.453 1280.12,971.666 1281.08,956.929 1282.03,941.557 1283.93,906.038 1285.84,868.386 1287.74,829.309 1289.65,792.125 1290.6,773.787 1291.55,755.485 1292.51,740.295 1293.46,725.548 1294.41,711.892 1295.37,698.797 1296.32,689.045 1297.27,680.356 1298.22,673.468 1299.18,668.632 1300.13,665.648 1301.08,664.711 1302.03,666.233 1302.99,669.029 1303.94,673.934 1304.89,680.885 1305.84,689.498 1306.8,700.059 1307.75,711.997 1308.7,725.426 1309.66,739.814 1310.61,756.443 1311.08,764.13 1311.56,773.43 1312.04,781.04 1312.51,795.853 1312.99,798.843 1313.47,807.768 1313.94,817.006 1314.42,826.244 1315.37,844.547 1316.32,862.521 1318.23,898.044 1320.13,930.486 1321.09,943.913 1322.04,958.77 1322.99,970.568 1323.94,981.344 1324.9,990.264 1325.85,996.897 1326.8,1001.56 1327.76,1005.96 1328.71,1007.75 1329.66,1007.76 1330.61,1005.86 1331.57,1001.93 1332.52,996.781 1333.47,988.561 1334.42,978.021 1335.38,968.434 1336.33,956.798 1337.28,943.991 1338.23,930.767 1339.19,915.707 1341.51,876.719 1343.84,835.041 1346.17,796.537 1348.49,761.322 1349.65,745.27 1350.82,731.517 1351.98,719.851 1353.14,710.219 1354.31,702.566 1355.47,698.526 1356.63,695.625 1357.8,696.077 1358.96,698.292 1360.12,703.929 1361.29,710.778 1362.45,720.318 1363.61,731.604 1364.77,744.513 1365.94,759.066 1367.1,774.186 1369.43,808.126 1371.75,842.527 1374.08,876.535 1376.41,905.139 1377.57,917.996 1378.73,928.936 1379.89,938.223 1381.06,945.652 1382.22,950.937 1383.38,953.811 1384.55,955.442 1385.71,954.175 1386.87,951.814 1388.04,944.698 1388.62,941.671 1389.2,938.464 1389.78,933.997 1390.36,934.261 1390.94,924.37 1391.53,919.533 1392.11,913.897 1392.69,907.906 1393.85,895.251 1395.01,881.139 1397.34,853.48 1399.67,823.704 1401.99,796.964 1404.32,773.456 1405.48,764.061 1406.65,756.179 1407.81,750.043 1408.97,745.287 1410.13,743.246 1411.3,742.346 1412.46,742.631 1413.62,745.699 1414.69,749.488 1415.75,755.69 1416.82,761.476 1417.89,770.05 1420.02,789.123 1422.15,809.803 1424.28,833.839 1426.41,856.947 1428.54,878.556 1430.67,896.993 1431.74,904.848 1432.8,912.144 1433.87,916.87 1434.93,920.405 1436,922.219 1437.06,924.787 1438.13,924.764 1439.19,923.042 1440.26,919.762 1441.33,916.141 1442.39,911.314 1443.46,904.439 1445.59,889.021 1447.72,869.764 1449.85,849.045 1451.98,828.486 1454.11,808.784 1456.24,793.225 1457.31,784.36 1458.37,777.889 1459.44,772.052 1460.5,767.171 1461.57,764.892 1462.63,764.284 1463.7,764.195 1464.77,764.741 1465.83,766.968 1466.9,771.481 1467.96,775.047 1469.03,781.416 1471.16,796.334 1473.29,814.095 1475.42,833.434 1477.55,852.849 1479.68,872.618 1481.81,889.919 1483.78,901.396 1485.75,910.145 1486.73,914.141 1487.72,916.021 1488.7,916.587 1489.68,915.971 1490.67,914.443 1491.65,912.124 1492.64,908.541 1493.62,903.391 1495.59,891.146 1497.56,875.472 1499.52,856.672 1501.49,836.11 1503.46,815.958 1505.43,795.946 1507.4,778.733 1509.36,764.476 1510.35,757.807 1511.33,752.951 1511.82,750.561 1512.32,746.947 1512.81,746.734 1513.3,746.441 1513.79,744.193 1514.29,742.856 1514.78,744.883 1515.27,744.277 1516.25,745.068 1517.24,746.717 1518.22,750.401 1519.21,754.867 1520.19,760.911 1521.17,767.742 1523.14,785.445 1525.11,804.819 1527.08,826.763 1529.05,849.721 1531.01,871.262 1532.98,895.236 1533.97,904.89 1534.95,914.353 1535.93,922.493 1536.92,930.195 1537.9,935.407 1538.89,941.06 1539.87,944.267 1540.85,946.618 1541.84,947.04 1542.82,946.677 1543.81,945.206 1544.79,941.928 1545.79,936.664 1546.78,929.596 1547.78,922.629 1548.78,913.266 1549.77,903.165 1550.77,892.446 1551.77,880.856 1552.76,867.868 1554.76,841.388 1556.75,813.228 1558.74,785.729 1560.74,760.599 1561.74,749.799 1562.73,738.958 1563.73,730.188 1564.73,723.534 1565.72,716.154 1566.72,710.642 1567.72,707.528 1568.71,704.403 1569.71,704.535 1570.71,706.305 1571.7,708.954 1572.7,713.257 1573.7,719.84 1574.69,727.314 1575.69,736.272 1576.69,746.761 1578.68,771.631 1580.67,799.152 1582.67,828.463 1584.66,857.687 1585.66,875.837 1586.65,890.493 1587.65,905.361 1588.65,917.822 1589.65,930.036 1590.64,940.711 1591.64,952.119 1592.64,961.71 1593.63,967.149 1594.63,973.393 1595.63,977.062 1596.62,978.752 1597.62,978.858 1598.62,977.353 1599.61,973.922 1600.61,968.662 1601.61,962.389 1602.6,953.126 1603.6,943.318 1604.6,932.278 1605.59,919.254 1606.59,905.799 1607.59,888.756 1608.58,874.488 1610.82,839.7 1613.05,801.844 1615.29,767.139 1617.52,735.504 1618.64,722.476 1619.76,710.965 1620.87,701.017 1621.99,693.794 1623.11,689.986 1624.22,685.303 1625.34,684.904 1626.46,686.337 1627.57,690.718 1628.69,697.086 1629.81,706.219 1630.93,718.029 1632.04,730.843 1633.16,745.972 1634.28,761.903 1635.39,779.404 1637.63,816.953 1639.86,858.113 1642.1,897.024 1644.33,932.721 1645.45,948.918 1646.57,962.802 1647.68,975.771 1648.8,987.086 1649.92,996.637 1651.03,1002.94 1652.15,1006.75 1653.27,1007.45 1654.39,1005.17 1655.5,1002.3 1656.06,999.336 1656.62,995.407 1657.18,991.977 1657.74,995.891 1658.3,978.9 1658.85,976.157 1659.41,969.948 1659.97,963.355 1661.09,947.641 1662.21,931.008 1664.44,894.582 1666.67,853.42 1668.91,813.406 1671.14,773.118 1672.26,756.023 1673.38,739.09 1674.49,723.609 1675.61,709.652 1676.73,696.542 1677.85,686.936 1678.96,681 1680.08,676.193 1681.09,674.389 1682.1,673.867 1682.61,675.077 1683.12,672.029 1683.62,678.293 1684.13,679.999 1685.14,686.616 1686.15,694.289 1687.17,704.602 1688.18,715.813 1689.19,729.043 1690.2,743.293 1691.21,758.681 1692.23,776.018 1694.25,811.215 1696.28,846.95 1698.3,881.78 1700.33,915.959 1701.34,930.712 1702.35,943.575 1702.86,950.504 1703.36,956.958 1703.87,962.833 1704.37,951.488 1704.88,971.514 1705.39,977.538 1705.89,980.951 1706.4,983.89 1707.41,989.372 1708.42,992.915 1708.93,993.597 1709.44,992.237 1709.94,994.774 1710.45,995.219 1711.46,993.078 1712.47,988.642 1713.48,981.73 1714.5,973.383 1715.51,963.644 1716.52,951.061 1717.53,940.213 1718.55,925.463 1719.56,908.667 1720.57,892.734 1722.6,858.141 1724.62,823.122 1726.64,789.531 1728.67,757.428 1729.68,744.143 1730.69,730.657 1731.71,719.543 1732.72,708.759 1733.73,700.055 1734.74,693.288 1735.76,688.582 1736.77,686.655 1737.78,685.008 1738.79,686.009 1739.8,688.236 1740.82,692.742 1741.83,699.126 1742.84,708.469 1743.85,716.74 1744.87,728.184 1746.02,742.906 1747.18,758.514 1748.34,775.402 1749.5,793.731 1751.82,831.478 1754.14,868.776 1755.3,886.793 1756.46,906.244 1757.61,919.245 1758.77,932.234 1759.93,944.009 1761.09,955.302 1762.25,962.809 1763.41,971.227 1764.57,973.078 1765.73,974.893 1766.89,974.065 1768.05,971.482 1769.2,965.931 1770.36,958.387 1771.52,949.215 1772.68,936.549 1773.84,926.095 1775,913.287 1776.16,896.072 1777.32,879.762 1779.64,846.686 1781.95,813.147 1783.11,797.263 1784.27,782.247 1785.43,768.074 1786.59,755.57 1787.75,743.837 1788.91,734.723 1790.07,727.409 1791.23,723.582 1792.38,720.05 1793.54,719.522 1794.7,718.174 1795.86,720.807 1797.02,725.617 1798.18,732.857 1799.34,740.432 1800.5,750.81 1802.82,775.229 1805.13,802.024 1807.45,831.464 1809.77,860.56 1812.09,886.461 1814.41,908.965 1814.99,914.681 1815.56,921.384 1816.14,922.285 1816.72,925.869 1817.3,929.116 1817.88,931.98 1818.46,934.516 1819.04,940.001 1820.11,938.625 1821.19,938.37 1821.72,938.369 1822.26,937.935 1822.8,935.969 1823.33,930.677 1823.87,934.369 1824.41,931.75 1824.94,929.623 1825.48,926.84 1826.55,921.585 1827.63,912.524 1829.77,893.903 1831.92,872.738 1834.07,849.835 1836.21,826.806 1838.36,804.199 1840.5,785.82 1841.04,781.131 1841.58,777.957 1842.11,774.017 1842.65,767.598 1843.19,767.539 1843.72,765.667 1844.26,759.35 1844.8,760.184 1845.87,756.734 1846.94,753.524 1848.02,754.053 1849.09,754.564 1850.16,756.07 1851.24,759.309 1852.31,763.918 1853.38,769.76 1855.53,783.555 1857.67,800.14 1859.82,819.161 1861.97,839.903 1864.11,858.896 1866.26,875.319 1868.41,888.588 1870.55,898.416 1871.63,903.32 1872.7,905.669 1873.77,906.529 1874.84,906.272 1875.92,904.985 1876.99,903.353 1878.06,899.892 1879.14,894.205 1881.28,880.709 1883.43,865.768 1885.58,849.616 1887.72,832.247 1889.84,815.869 1891.95,799.316 1893.01,792.816 1894.07,786.139 1895.13,781.103 1896.19,776.747 1897.24,774.898 1898.3,772.258 1899.36,770.413 1900.42,770.93 1900.95,769.561 1901.48,769.388 1902,771.95 1902.53,778.125 1903.06,774.742 1903.59,777.191 1904.12,778.639 1904.65,780.32 1905.71,782.785 1906.77,788.626 1907.82,798.059 1908.88,806.553 1911,823.153 1913.11,840.336 1915.23,857.468 1917.35,872.76 1919.46,886.891 1921.58,897.058 1922.64,901.068 1923.69,904.453 1924.75,904.601 1925.81,905.968 1926.87,905.749 1927.93,903.076 1928.98,900.1 1930.04,896.193 1932.16,885.153 1934.27,871.622 1936.39,854.702 1938.51,835.084 1940.62,818.696 1942.74,804.441 1943.79,793.763 1944.85,786.065 1945.91,778.209 1946.97,772.664 1947.5,769.588 1948.03,763.952 1948.56,766.517 1949.08,764.129 1950.14,762.149 1951.2,762.614 1952.26,760.729 1953.32,761.547 1954.37,765.43 1955.43,768.538 1956.46,773.263 1957.49,779.152 1958.51,785.626 1959.54,794.403 1961.6,810.92 1963.65,830.45 1965.7,851.552 1967.76,872.64 1969.81,891.281 1971.87,905.693 1972.9,913.782 1973.92,921.772 1974.95,926.361 1975.98,930.211 1977,933.306 1978.03,934.501 1978.55,934.956 1979.06,938.66 1979.57,934.286 1980.09,933.065 1981.11,930.272 1982.14,924.563 1983.17,919.665 1984.19,914.026 1985.22,905.533 1986.25,897.236 1987.28,886.744 1988.3,876.778 1992.41,827.481 1996.52,781.113 1997.55,769.376 1998.58,758.492 1999.6,749.324 2000.63,741.355 2001.66,734.863 2002.68,728.361 2003.71,725.995 2004.74,721.542 2005.77,720.999 2006.79,719.312 2007.82,720.693 2008.85,724.18 2009.87,728.994 2010.9,735.258 2011.93,742.867 2012.96,751.624 2015.01,773.195 2017.07,796.025 2019.12,823.971 2021.17,850.979 2023.28,878.618 2025.39,903.654 2026.44,914.999 2027.49,924.408 2028.55,933.289 2029.6,940.766 2030.13,943.893 2030.65,946.53 2031.18,949.912 2031.7,960.861 2032.23,952.759 2032.76,951.378 2033.28,954.708 2033.81,955.126 2034.86,953.681 2035.92,952.708 2036.97,948.927 2038.02,942.239 2039.08,935.101 2040.13,926.108 2041.18,915.909 2042.23,905.282 2044.34,877.977 2046.45,849.112 2048.55,817.009 2050.66,788.767 2052.77,760.911 2054.87,736.835 2055.92,726.114 2056.98,718.45 2058.03,711.332 2059.08,705.698 2060.14,701.716 2061.19,700.068 2062.24,699.462 2063.3,701.737 2064.35,706.073 2065.4,711.465 2065.93,717.18 2066.45,719.219 2066.98,722.749 2067.51,731.152 2068.03,732.723 2068.56,738.385 2069.09,743.521 2069.61,750.538 2070.67,763.914 2071.72,777.507 2075.93,840.786 2080.14,905.21 2081.2,919.639 2082.25,932.908 2083.3,944.858 2084.36,955.542 2085.41,964.31 2086.46,974.234 2087.51,978.251 2088.57,980.98 2089.72,982.506 2090.88,981.097 2092.03,978.35 2093.18,973.233 2093.76,970.166 2094.34,966.746 2094.91,962.307 2095.49,954.107 2096.07,950.764 2096.64,944.765 2097.22,938.326 2097.8,932.417 2100.1,900.343 2102.41,866.69 2104.72,830.106 2107.03,792.738 2108.18,776.54 2109.33,760.022 2110.49,744.376 2111.64,732.785 2112.22,726.63 2112.8,720.493 2113.37,716.184 2113.95,714.439 2114.53,706.94 2115.1,703.572 2115.68,700.671 2116.26,698.311 2116.83,695.483 2117.41,694.953 2117.99,691.784 2118.56,694.969 2119.72,697.93 2120.87,703.595 2122.03,708.795 2123.18,718.398 2123.76,721.088 2124.33,726.517 2124.91,733.443 2125.49,738.807 2126.64,753.578 2127.79,768.895 2128.95,786.042 2130.1,803.137 2132.41,838.537 2134.72,874.039 2135.87,890.625 2137.02,906.337 2138.18,923.566 2139.33,936.653 2140.48,946.263 2141.64,958.369 2142.79,967.062 2143.95,972.974 2145.1,977.593 2146.25,978.344 2147.41,977.504 2148.56,977.042 2149.71,970.101 2150.87,961.575 2152.02,952.128 2153.18,940.659 2154.33,926.825 2155.48,912.842 2156.06,911.795 2156.64,895.358 2157.21,885.796 2157.79,881.671 2158.94,864.019 2160.1,844.928 2161.25,828.192 2162.41,811.834 2164.08,788.187 2165.76,766.41 2167.43,745.756 2169.11,729.653 2169.95,723.403 2170.78,717.154 2171.62,713.533 2172.46,710.086 2173.3,707.637 2174.14,707.177 2174.97,706.775 2175.81,708.184 2177.49,713.916 2179.16,724.594 2180,729.879 2180.84,737.196 2181.68,745.958 2182.52,755.023 2185.87,798.145 2189.22,845.254 2190.9,868.166 2192.57,889.59 2194.25,910.59 2195.92,927.592 2196.76,934.828 2197.6,938.086 2198.44,946.163 2199.28,951.132 2200.11,962.736 2200.95,957.302 2201.79,959.438 2202.63,960.245 2203.47,962.007 2204.3,957.217 2205.14,954.45 2205.98,950.605 2206.82,945.813 2207.66,940.148 2208.49,933.616 2209.33,924.936 2210.17,917.521 2211.01,912.636 2211.85,903.115 2212.68,891.233 2213.52,880.496 2214.36,868.781 2215.2,856.555 2216.04,852.948 2216.87,836.434 2217.71,825.301 2218.55,813.289 2219.39,802.724 2221.06,785.361 2222.74,767.905 2224.42,753.766 2226.09,741.996 2226.93,737.577 2227.77,734.31 2228.61,734.758 2229.44,730.318 2230.28,729.128 2231.12,729.184 2231.96,729.594 2232.8,732.447 2233.63,735.356 2234.47,739.151 2235.31,744.186 2236.15,750.652 2237.82,763.538 2239.5,778.777 2241.17,795.833 2242.85,814.075 2244.53,834.418 2246.2,852.057 2247.88,869.613 2249.55,885.468 2250.39,892.01 2251.23,901.335 2252.07,905.575 2252.91,910.775 2254.58,919.233 2256.26,925.51 2257.1,925.17 2257.93,925.409 2258.77,925.027 2259.61,918.947 2260.45,920.002 2261.29,917.899 2262.12,915.152 2262.96,914.827 2264.64,900.674 2266.31,886.244 2267.99,873.192 2269.67,857.803 2272.42,831.742 2275.17,807.72 2276.54,796.94 2277.92,786.024 2279.29,776.207 2280.67,771.719 2282.04,766.585 2283.42,764.079 2284.11,762.629 2284.79,763.224 2285.14,762.974 2285.48,763.087 2285.83,761.76 2286.17,760.204 2286.51,764.642 2286.86,765.586 2287.2,766.307 2287.55,767.248 2287.72,768.162 2287.89,768.275 2288.06,766.687 2288.23,775.225 2288.4,769.665 2288.58,770.835 2288.75,771.932 2288.92,772.09 2289.26,773.756 2289.61,774.64 2289.78,775.831 2289.95,777.168 2290.12,777.766 2290.3,784.89 2290.47,780.058 2290.64,785.205 2290.81,781.719 2290.98,782.537 2291.16,784.142 2291.33,784.464 2291.5,785.953 2291.67,790.861 "/>
<path clip-path="url(#clip720)" d="M2012.55 198.898 L2280.81 198.898 L2280.81 95.2176 L2012.55 95.2176  Z" fill="#ffffff" fill-rule="evenodd" fill-opacity="1"/>
<polyline clip-path="url(#clip720)" style="stroke:#000000; stroke-linecap:round; stroke-linejoin:round; stroke-width:4; stroke-opacity:1; fill:none" points="2012.55,198.898 2280.81,198.898 2280.81,95.2176 2012.55,95.2176 2012.55,198.898 "/>
<polyline clip-path="url(#clip720)" style="stroke:#009af9; stroke-linecap:round; stroke-linejoin:round; stroke-width:4; stroke-opacity:1; fill:none" points="2036.53,147.058 2180.42,147.058 "/>
<path clip-path="url(#clip720)" d="M2218.24 166.745 Q2216.44 171.375 2214.72 172.787 Q2213.01 174.199 2210.14 174.199 L2206.74 174.199 L2206.74 170.634 L2209.24 170.634 Q2211 170.634 2211.97 169.8 Q2212.94 168.967 2214.12 165.865 L2214.89 163.921 L2204.4 138.412 L2208.91 138.412 L2217.02 158.689 L2225.12 138.412 L2229.63 138.412 L2218.24 166.745 Z" fill="#000000" fill-rule="evenodd" fill-opacity="1" /><path clip-path="url(#clip720)" d="M2236.92 160.402 L2244.56 160.402 L2244.56 134.037 L2236.25 135.703 L2236.25 131.444 L2244.52 129.778 L2249.19 129.778 L2249.19 160.402 L2256.83 160.402 L2256.83 164.338 L2236.92 164.338 L2236.92 160.402 Z" fill="#000000" fill-rule="evenodd" fill-opacity="1" /></svg>
