<?xml version="1.0" encoding="utf-8"?>
<svg xmlns="http://www.w3.org/2000/svg" xmlns:xlink="http://www.w3.org/1999/xlink" width="600" height="400" viewBox="0 0 2400 1600">
<defs>
  <clipPath id="clip400">
    <rect x="0" y="0" width="2400" height="1600"/>
  </clipPath>
</defs>
<path clip-path="url(#clip400)" d="M0 1600 L2400 1600 L2400 0 L0 0  Z" fill="#ffffff" fill-rule="evenodd" fill-opacity="1"/>
<defs>
  <clipPath id="clip401">
    <rect x="480" y="0" width="1681" height="1600"/>
  </clipPath>
</defs>
<path clip-path="url(#clip400)" d="M156.598 1486.45 L2352.76 1486.45 L2352.76 47.2441 L156.598 47.2441  Z" fill="#ffffff" fill-rule="evenodd" fill-opacity="1"/>
<defs>
  <clipPath id="clip402">
    <rect x="156" y="47" width="2197" height="1440"/>
  </clipPath>
</defs>
<polyline clip-path="url(#clip402)" style="stroke:#000000; stroke-linecap:round; stroke-linejoin:round; stroke-width:2; stroke-opacity:0.1; fill:none" points="218.754,1486.45 218.754,47.2441 "/>
<polyline clip-path="url(#clip402)" style="stroke:#000000; stroke-linecap:round; stroke-linejoin:round; stroke-width:2; stroke-opacity:0.1; fill:none" points="736.715,1486.45 736.715,47.2441 "/>
<polyline clip-path="url(#clip402)" style="stroke:#000000; stroke-linecap:round; stroke-linejoin:round; stroke-width:2; stroke-opacity:0.1; fill:none" points="1254.68,1486.45 1254.68,47.2441 "/>
<polyline clip-path="url(#clip402)" style="stroke:#000000; stroke-linecap:round; stroke-linejoin:round; stroke-width:2; stroke-opacity:0.1; fill:none" points="1772.64,1486.45 1772.64,47.2441 "/>
<polyline clip-path="url(#clip402)" style="stroke:#000000; stroke-linecap:round; stroke-linejoin:round; stroke-width:2; stroke-opacity:0.1; fill:none" points="2290.6,1486.45 2290.6,47.2441 "/>
<polyline clip-path="url(#clip400)" style="stroke:#000000; stroke-linecap:round; stroke-linejoin:round; stroke-width:4; stroke-opacity:1; fill:none" points="156.598,1486.45 2352.76,1486.45 "/>
<polyline clip-path="url(#clip400)" style="stroke:#000000; stroke-linecap:round; stroke-linejoin:round; stroke-width:4; stroke-opacity:1; fill:none" points="218.754,1486.45 218.754,1467.55 "/>
<polyline clip-path="url(#clip400)" style="stroke:#000000; stroke-linecap:round; stroke-linejoin:round; stroke-width:4; stroke-opacity:1; fill:none" points="736.715,1486.45 736.715,1467.55 "/>
<polyline clip-path="url(#clip400)" style="stroke:#000000; stroke-linecap:round; stroke-linejoin:round; stroke-width:4; stroke-opacity:1; fill:none" points="1254.68,1486.45 1254.68,1467.55 "/>
<polyline clip-path="url(#clip400)" style="stroke:#000000; stroke-linecap:round; stroke-linejoin:round; stroke-width:4; stroke-opacity:1; fill:none" points="1772.64,1486.45 1772.64,1467.55 "/>
<polyline clip-path="url(#clip400)" style="stroke:#000000; stroke-linecap:round; stroke-linejoin:round; stroke-width:4; stroke-opacity:1; fill:none" points="2290.6,1486.45 2290.6,1467.55 "/>
<path clip-path="url(#clip400)" d="M218.754 1517.37 Q215.143 1517.37 213.314 1520.93 Q211.508 1524.47 211.508 1531.6 Q211.508 1538.71 213.314 1542.27 Q215.143 1545.82 218.754 1545.82 Q222.388 1545.82 224.193 1542.27 Q226.022 1538.71 226.022 1531.6 Q226.022 1524.47 224.193 1520.93 Q222.388 1517.37 218.754 1517.37 M218.754 1513.66 Q224.564 1513.66 227.619 1518.27 Q230.698 1522.85 230.698 1531.6 Q230.698 1540.33 227.619 1544.94 Q224.564 1549.52 218.754 1549.52 Q212.943 1549.52 209.865 1544.94 Q206.809 1540.33 206.809 1531.6 Q206.809 1522.85 209.865 1518.27 Q212.943 1513.66 218.754 1513.66 Z" fill="#000000" fill-rule="evenodd" fill-opacity="1" /><path clip-path="url(#clip400)" d="M715.986 1544.91 L732.306 1544.91 L732.306 1548.85 L710.361 1548.85 L710.361 1544.91 Q713.023 1542.16 717.607 1537.53 Q722.213 1532.88 723.394 1531.53 Q725.639 1529.01 726.519 1527.27 Q727.421 1525.51 727.421 1523.82 Q727.421 1521.07 725.477 1519.33 Q723.556 1517.6 720.454 1517.6 Q718.255 1517.6 715.801 1518.36 Q713.371 1519.13 710.593 1520.68 L710.593 1515.95 Q713.417 1514.82 715.871 1514.24 Q718.324 1513.66 720.361 1513.66 Q725.732 1513.66 728.926 1516.35 Q732.12 1519.03 732.12 1523.52 Q732.12 1525.65 731.31 1527.57 Q730.523 1529.47 728.417 1532.07 Q727.838 1532.74 724.736 1535.95 Q721.634 1539.15 715.986 1544.91 Z" fill="#000000" fill-rule="evenodd" fill-opacity="1" /><path clip-path="url(#clip400)" d="M742.167 1514.29 L760.523 1514.29 L760.523 1518.22 L746.449 1518.22 L746.449 1526.7 Q747.468 1526.35 748.486 1526.19 Q749.505 1526 750.523 1526 Q756.31 1526 759.69 1529.17 Q763.069 1532.34 763.069 1537.76 Q763.069 1543.34 759.597 1546.44 Q756.125 1549.52 749.806 1549.52 Q747.63 1549.52 745.361 1549.15 Q743.116 1548.78 740.708 1548.04 L740.708 1543.34 Q742.792 1544.47 745.014 1545.03 Q747.236 1545.58 749.713 1545.58 Q753.718 1545.58 756.056 1543.48 Q758.393 1541.37 758.393 1537.76 Q758.393 1534.15 756.056 1532.04 Q753.718 1529.94 749.713 1529.94 Q747.838 1529.94 745.963 1530.35 Q744.111 1530.77 742.167 1531.65 L742.167 1514.29 Z" fill="#000000" fill-rule="evenodd" fill-opacity="1" /><path clip-path="url(#clip400)" d="M1229.38 1514.29 L1247.73 1514.29 L1247.73 1518.22 L1233.66 1518.22 L1233.66 1526.7 Q1234.68 1526.35 1235.7 1526.19 Q1236.71 1526 1237.73 1526 Q1243.52 1526 1246.9 1529.17 Q1250.28 1532.34 1250.28 1537.76 Q1250.28 1543.34 1246.81 1546.44 Q1243.33 1549.52 1237.02 1549.52 Q1234.84 1549.52 1232.57 1549.15 Q1230.33 1548.78 1227.92 1548.04 L1227.92 1543.34 Q1230 1544.47 1232.22 1545.03 Q1234.45 1545.58 1236.92 1545.58 Q1240.93 1545.58 1243.27 1543.48 Q1245.6 1541.37 1245.6 1537.76 Q1245.6 1534.15 1243.27 1532.04 Q1240.93 1529.94 1236.92 1529.94 Q1235.05 1529.94 1233.17 1530.35 Q1231.32 1530.77 1229.38 1531.65 L1229.38 1514.29 Z" fill="#000000" fill-rule="evenodd" fill-opacity="1" /><path clip-path="url(#clip400)" d="M1269.49 1517.37 Q1265.88 1517.37 1264.05 1520.93 Q1262.25 1524.47 1262.25 1531.6 Q1262.25 1538.71 1264.05 1542.27 Q1265.88 1545.82 1269.49 1545.82 Q1273.13 1545.82 1274.93 1542.27 Q1276.76 1538.71 1276.76 1531.6 Q1276.76 1524.47 1274.93 1520.93 Q1273.13 1517.37 1269.49 1517.37 M1269.49 1513.66 Q1275.3 1513.66 1278.36 1518.27 Q1281.44 1522.85 1281.44 1531.6 Q1281.44 1540.33 1278.36 1544.94 Q1275.3 1549.52 1269.49 1549.52 Q1263.68 1549.52 1260.6 1544.94 Q1257.55 1540.33 1257.55 1531.6 Q1257.55 1522.85 1260.6 1518.27 Q1263.68 1513.66 1269.49 1513.66 Z" fill="#000000" fill-rule="evenodd" fill-opacity="1" /><path clip-path="url(#clip400)" d="M1746.49 1514.29 L1768.72 1514.29 L1768.72 1516.28 L1756.17 1548.85 L1751.28 1548.85 L1763.09 1518.22 L1746.49 1518.22 L1746.49 1514.29 Z" fill="#000000" fill-rule="evenodd" fill-opacity="1" /><path clip-path="url(#clip400)" d="M1777.88 1514.29 L1796.24 1514.29 L1796.24 1518.22 L1782.16 1518.22 L1782.16 1526.7 Q1783.18 1526.35 1784.2 1526.19 Q1785.22 1526 1786.24 1526 Q1792.03 1526 1795.4 1529.17 Q1798.78 1532.34 1798.78 1537.76 Q1798.78 1543.34 1795.31 1546.44 Q1791.84 1549.52 1785.52 1549.52 Q1783.34 1549.52 1781.08 1549.15 Q1778.83 1548.78 1776.42 1548.04 L1776.42 1543.34 Q1778.51 1544.47 1780.73 1545.03 Q1782.95 1545.58 1785.43 1545.58 Q1789.43 1545.58 1791.77 1543.48 Q1794.11 1541.37 1794.11 1537.76 Q1794.11 1534.15 1791.77 1532.04 Q1789.43 1529.94 1785.43 1529.94 Q1783.55 1529.94 1781.68 1530.35 Q1779.83 1530.77 1777.88 1531.65 L1777.88 1514.29 Z" fill="#000000" fill-rule="evenodd" fill-opacity="1" /><path clip-path="url(#clip400)" d="M2250.21 1544.91 L2257.85 1544.91 L2257.85 1518.55 L2249.54 1520.21 L2249.54 1515.95 L2257.8 1514.29 L2262.48 1514.29 L2262.48 1544.91 L2270.11 1544.91 L2270.11 1548.85 L2250.21 1548.85 L2250.21 1544.91 Z" fill="#000000" fill-rule="evenodd" fill-opacity="1" /><path clip-path="url(#clip400)" d="M2289.56 1517.37 Q2285.95 1517.37 2284.12 1520.93 Q2282.31 1524.47 2282.31 1531.6 Q2282.31 1538.71 2284.12 1542.27 Q2285.95 1545.82 2289.56 1545.82 Q2293.19 1545.82 2295 1542.27 Q2296.83 1538.71 2296.83 1531.6 Q2296.83 1524.47 2295 1520.93 Q2293.19 1517.37 2289.56 1517.37 M2289.56 1513.66 Q2295.37 1513.66 2298.42 1518.27 Q2301.5 1522.85 2301.5 1531.6 Q2301.5 1540.33 2298.42 1544.94 Q2295.37 1549.52 2289.56 1549.52 Q2283.75 1549.52 2280.67 1544.94 Q2277.61 1540.33 2277.61 1531.6 Q2277.61 1522.85 2280.67 1518.27 Q2283.75 1513.66 2289.56 1513.66 Z" fill="#000000" fill-rule="evenodd" fill-opacity="1" /><path clip-path="url(#clip400)" d="M2319.72 1517.37 Q2316.11 1517.37 2314.28 1520.93 Q2312.48 1524.47 2312.48 1531.6 Q2312.48 1538.71 2314.28 1542.27 Q2316.11 1545.82 2319.72 1545.82 Q2323.35 1545.82 2325.16 1542.27 Q2326.99 1538.71 2326.99 1531.6 Q2326.99 1524.47 2325.16 1520.93 Q2323.35 1517.37 2319.72 1517.37 M2319.72 1513.66 Q2325.53 1513.66 2328.59 1518.27 Q2331.67 1522.85 2331.67 1531.6 Q2331.67 1540.33 2328.59 1544.94 Q2325.53 1549.52 2319.72 1549.52 Q2313.91 1549.52 2310.83 1544.94 Q2307.78 1540.33 2307.78 1531.6 Q2307.78 1522.85 2310.83 1518.27 Q2313.91 1513.66 2319.72 1513.66 Z" fill="#000000" fill-rule="evenodd" fill-opacity="1" /><polyline clip-path="url(#clip402)" style="stroke:#000000; stroke-linecap:round; stroke-linejoin:round; stroke-width:2; stroke-opacity:0.1; fill:none" points="156.598,1445.72 2352.76,1445.72 "/>
<polyline clip-path="url(#clip402)" style="stroke:#000000; stroke-linecap:round; stroke-linejoin:round; stroke-width:2; stroke-opacity:0.1; fill:none" points="156.598,1117.92 2352.76,1117.92 "/>
<polyline clip-path="url(#clip402)" style="stroke:#000000; stroke-linecap:round; stroke-linejoin:round; stroke-width:2; stroke-opacity:0.1; fill:none" points="156.598,790.125 2352.76,790.125 "/>
<polyline clip-path="url(#clip402)" style="stroke:#000000; stroke-linecap:round; stroke-linejoin:round; stroke-width:2; stroke-opacity:0.1; fill:none" points="156.598,462.33 2352.76,462.33 "/>
<polyline clip-path="url(#clip402)" style="stroke:#000000; stroke-linecap:round; stroke-linejoin:round; stroke-width:2; stroke-opacity:0.1; fill:none" points="156.598,134.535 2352.76,134.535 "/>
<polyline clip-path="url(#clip400)" style="stroke:#000000; stroke-linecap:round; stroke-linejoin:round; stroke-width:4; stroke-opacity:1; fill:none" points="156.598,1486.45 156.598,47.2441 "/>
<polyline clip-path="url(#clip400)" style="stroke:#000000; stroke-linecap:round; stroke-linejoin:round; stroke-width:4; stroke-opacity:1; fill:none" points="156.598,1445.72 175.496,1445.72 "/>
<polyline clip-path="url(#clip400)" style="stroke:#000000; stroke-linecap:round; stroke-linejoin:round; stroke-width:4; stroke-opacity:1; fill:none" points="156.598,1117.92 175.496,1117.92 "/>
<polyline clip-path="url(#clip400)" style="stroke:#000000; stroke-linecap:round; stroke-linejoin:round; stroke-width:4; stroke-opacity:1; fill:none" points="156.598,790.125 175.496,790.125 "/>
<polyline clip-path="url(#clip400)" style="stroke:#000000; stroke-linecap:round; stroke-linejoin:round; stroke-width:4; stroke-opacity:1; fill:none" points="156.598,462.33 175.496,462.33 "/>
<polyline clip-path="url(#clip400)" style="stroke:#000000; stroke-linecap:round; stroke-linejoin:round; stroke-width:4; stroke-opacity:1; fill:none" points="156.598,134.535 175.496,134.535 "/>
<path clip-path="url(#clip400)" d="M63.4226 1431.51 Q59.8115 1431.51 57.9828 1435.08 Q56.1773 1438.62 56.1773 1445.75 Q56.1773 1452.86 57.9828 1456.42 Q59.8115 1459.96 63.4226 1459.96 Q67.0569 1459.96 68.8624 1456.42 Q70.6911 1452.86 70.6911 1445.75 Q70.6911 1438.62 68.8624 1435.08 Q67.0569 1431.51 63.4226 1431.51 M63.4226 1427.81 Q69.2328 1427.81 72.2883 1432.42 Q75.367 1437 75.367 1445.75 Q75.367 1454.48 72.2883 1459.08 Q69.2328 1463.67 63.4226 1463.67 Q57.6125 1463.67 54.5338 1459.08 Q51.4782 1454.48 51.4782 1445.75 Q51.4782 1437 54.5338 1432.42 Q57.6125 1427.81 63.4226 1427.81 Z" fill="#000000" fill-rule="evenodd" fill-opacity="1" /><path clip-path="url(#clip400)" d="M83.5845 1457.12 L88.4688 1457.12 L88.4688 1463 L83.5845 1463 L83.5845 1457.12 Z" fill="#000000" fill-rule="evenodd" fill-opacity="1" /><path clip-path="url(#clip400)" d="M108.654 1431.51 Q105.043 1431.51 103.214 1435.08 Q101.409 1438.62 101.409 1445.75 Q101.409 1452.86 103.214 1456.42 Q105.043 1459.96 108.654 1459.96 Q112.288 1459.96 114.094 1456.42 Q115.922 1452.86 115.922 1445.75 Q115.922 1438.62 114.094 1435.08 Q112.288 1431.51 108.654 1431.51 M108.654 1427.81 Q114.464 1427.81 117.52 1432.42 Q120.598 1437 120.598 1445.75 Q120.598 1454.48 117.52 1459.08 Q114.464 1463.67 108.654 1463.67 Q102.844 1463.67 99.765 1459.08 Q96.7095 1454.48 96.7095 1445.75 Q96.7095 1437 99.765 1432.42 Q102.844 1427.81 108.654 1427.81 Z" fill="#000000" fill-rule="evenodd" fill-opacity="1" /><path clip-path="url(#clip400)" d="M65.0198 1103.72 Q61.4087 1103.72 59.58 1107.28 Q57.7745 1110.83 57.7745 1117.96 Q57.7745 1125.06 59.58 1128.63 Q61.4087 1132.17 65.0198 1132.17 Q68.6541 1132.17 70.4596 1128.63 Q72.2883 1125.06 72.2883 1117.96 Q72.2883 1110.83 70.4596 1107.28 Q68.6541 1103.72 65.0198 1103.72 M65.0198 1100.02 Q70.83 1100.02 73.8855 1104.62 Q76.9642 1109.21 76.9642 1117.96 Q76.9642 1126.68 73.8855 1131.29 Q70.83 1135.87 65.0198 1135.87 Q59.2097 1135.87 56.131 1131.29 Q53.0754 1126.68 53.0754 1117.96 Q53.0754 1109.21 56.131 1104.62 Q59.2097 1100.02 65.0198 1100.02 Z" fill="#000000" fill-rule="evenodd" fill-opacity="1" /><path clip-path="url(#clip400)" d="M85.1818 1129.32 L90.066 1129.32 L90.066 1135.2 L85.1818 1135.2 L85.1818 1129.32 Z" fill="#000000" fill-rule="evenodd" fill-opacity="1" /><path clip-path="url(#clip400)" d="M104.279 1131.27 L120.598 1131.27 L120.598 1135.2 L98.6539 1135.2 L98.6539 1131.27 Q101.316 1128.51 105.899 1123.88 Q110.506 1119.23 111.686 1117.89 Q113.932 1115.36 114.811 1113.63 Q115.714 1111.87 115.714 1110.18 Q115.714 1107.42 113.77 1105.69 Q111.848 1103.95 108.746 1103.95 Q106.547 1103.95 104.094 1104.71 Q101.663 1105.48 98.8854 1107.03 L98.8854 1102.31 Q101.709 1101.17 104.163 1100.59 Q106.617 1100.02 108.654 1100.02 Q114.024 1100.02 117.219 1102.7 Q120.413 1105.39 120.413 1109.88 Q120.413 1112.01 119.603 1113.93 Q118.816 1115.83 116.709 1118.42 Q116.131 1119.09 113.029 1122.31 Q109.927 1125.5 104.279 1131.27 Z" fill="#000000" fill-rule="evenodd" fill-opacity="1" /><path clip-path="url(#clip400)" d="M62.9365 775.924 Q59.3254 775.924 57.4967 779.489 Q55.6912 783.031 55.6912 790.16 Q55.6912 797.267 57.4967 800.831 Q59.3254 804.373 62.9365 804.373 Q66.5707 804.373 68.3763 800.831 Q70.205 797.267 70.205 790.16 Q70.205 783.031 68.3763 779.489 Q66.5707 775.924 62.9365 775.924 M62.9365 772.22 Q68.7467 772.22 71.8022 776.827 Q74.8809 781.41 74.8809 790.16 Q74.8809 798.887 71.8022 803.493 Q68.7467 808.077 62.9365 808.077 Q57.1264 808.077 54.0477 803.493 Q50.9921 798.887 50.9921 790.16 Q50.9921 781.41 54.0477 776.827 Q57.1264 772.22 62.9365 772.22 Z" fill="#000000" fill-rule="evenodd" fill-opacity="1" /><path clip-path="url(#clip400)" d="M83.0984 801.526 L87.9827 801.526 L87.9827 807.405 L83.0984 807.405 L83.0984 801.526 Z" fill="#000000" fill-rule="evenodd" fill-opacity="1" /><path clip-path="url(#clip400)" d="M111.015 776.919 L99.2095 795.368 L111.015 795.368 L111.015 776.919 M109.788 772.845 L115.668 772.845 L115.668 795.368 L120.598 795.368 L120.598 799.257 L115.668 799.257 L115.668 807.405 L111.015 807.405 L111.015 799.257 L95.4132 799.257 L95.4132 794.743 L109.788 772.845 Z" fill="#000000" fill-rule="evenodd" fill-opacity="1" /><path clip-path="url(#clip400)" d="M63.2606 448.129 Q59.6495 448.129 57.8208 451.694 Q56.0152 455.235 56.0152 462.365 Q56.0152 469.471 57.8208 473.036 Q59.6495 476.578 63.2606 476.578 Q66.8948 476.578 68.7004 473.036 Q70.5291 469.471 70.5291 462.365 Q70.5291 455.235 68.7004 451.694 Q66.8948 448.129 63.2606 448.129 M63.2606 444.425 Q69.0707 444.425 72.1263 449.032 Q75.205 453.615 75.205 462.365 Q75.205 471.092 72.1263 475.698 Q69.0707 480.282 63.2606 480.282 Q57.4504 480.282 54.3717 475.698 Q51.3162 471.092 51.3162 462.365 Q51.3162 453.615 54.3717 449.032 Q57.4504 444.425 63.2606 444.425 Z" fill="#000000" fill-rule="evenodd" fill-opacity="1" /><path clip-path="url(#clip400)" d="M83.4225 473.731 L88.3067 473.731 L88.3067 479.61 L83.4225 479.61 L83.4225 473.731 Z" fill="#000000" fill-rule="evenodd" fill-opacity="1" /><path clip-path="url(#clip400)" d="M109.071 460.467 Q105.922 460.467 104.071 462.62 Q102.242 464.772 102.242 468.522 Q102.242 472.249 104.071 474.425 Q105.922 476.578 109.071 476.578 Q112.219 476.578 114.047 474.425 Q115.899 472.249 115.899 468.522 Q115.899 464.772 114.047 462.62 Q112.219 460.467 109.071 460.467 M118.353 445.814 L118.353 450.073 Q116.594 449.24 114.788 448.8 Q113.006 448.36 111.246 448.36 Q106.617 448.36 104.163 451.485 Q101.733 454.61 101.385 460.93 Q102.751 458.916 104.811 457.851 Q106.871 456.763 109.348 456.763 Q114.557 456.763 117.566 459.934 Q120.598 463.083 120.598 468.522 Q120.598 473.846 117.45 477.064 Q114.302 480.282 109.071 480.282 Q103.075 480.282 99.9039 475.698 Q96.7326 471.092 96.7326 462.365 Q96.7326 454.171 100.621 449.309 Q104.51 444.425 111.061 444.425 Q112.82 444.425 114.603 444.772 Q116.408 445.12 118.353 445.814 Z" fill="#000000" fill-rule="evenodd" fill-opacity="1" /><path clip-path="url(#clip400)" d="M63.5152 120.334 Q59.9041 120.334 58.0754 123.899 Q56.2699 127.44 56.2699 134.57 Q56.2699 141.676 58.0754 145.241 Q59.9041 148.783 63.5152 148.783 Q67.1494 148.783 68.955 145.241 Q70.7837 141.676 70.7837 134.57 Q70.7837 127.44 68.955 123.899 Q67.1494 120.334 63.5152 120.334 M63.5152 116.63 Q69.3254 116.63 72.3809 121.237 Q75.4596 125.82 75.4596 134.57 Q75.4596 143.297 72.3809 147.903 Q69.3254 152.486 63.5152 152.486 Q57.7051 152.486 54.6264 147.903 Q51.5708 143.297 51.5708 134.57 Q51.5708 125.82 54.6264 121.237 Q57.7051 116.63 63.5152 116.63 Z" fill="#000000" fill-rule="evenodd" fill-opacity="1" /><path clip-path="url(#clip400)" d="M83.6771 145.935 L88.5614 145.935 L88.5614 151.815 L83.6771 151.815 L83.6771 145.935 Z" fill="#000000" fill-rule="evenodd" fill-opacity="1" /><path clip-path="url(#clip400)" d="M108.746 135.403 Q105.413 135.403 103.492 137.185 Q101.594 138.968 101.594 142.093 Q101.594 145.218 103.492 147 Q105.413 148.783 108.746 148.783 Q112.08 148.783 114.001 147 Q115.922 145.195 115.922 142.093 Q115.922 138.968 114.001 137.185 Q112.103 135.403 108.746 135.403 M104.071 133.412 Q101.061 132.672 99.3715 130.611 Q97.7048 128.551 97.7048 125.588 Q97.7048 121.445 100.645 119.037 Q103.608 116.63 108.746 116.63 Q113.908 116.63 116.848 119.037 Q119.788 121.445 119.788 125.588 Q119.788 128.551 118.098 130.611 Q116.432 132.672 113.445 133.412 Q116.825 134.199 118.7 136.491 Q120.598 138.783 120.598 142.093 Q120.598 147.116 117.52 149.801 Q114.464 152.486 108.746 152.486 Q103.029 152.486 99.9502 149.801 Q96.8947 147.116 96.8947 142.093 Q96.8947 138.783 98.7928 136.491 Q100.691 134.199 104.071 133.412 M102.358 126.028 Q102.358 128.713 104.024 130.218 Q105.714 131.723 108.746 131.723 Q111.756 131.723 113.445 130.218 Q115.158 128.713 115.158 126.028 Q115.158 123.343 113.445 121.838 Q111.756 120.334 108.746 120.334 Q105.714 120.334 104.024 121.838 Q102.358 123.343 102.358 126.028 Z" fill="#000000" fill-rule="evenodd" fill-opacity="1" /><polyline clip-path="url(#clip402)" style="stroke:#009af9; stroke-linecap:round; stroke-linejoin:round; stroke-width:4; stroke-opacity:1; fill:none" points="218.754,1445.72 322.346,906.74 425.938,688.773 529.531,501.657 633.123,329.739 736.715,261.443 840.308,87.9763 943.9,343.339 1047.49,595.189 1151.08,776.109 1254.68,827.398 1358.27,930.014 1461.86,1041.1 1565.45,827.046 1669.05,529.592 1772.64,296.718 1876.23,272.044 1979.82,249.554 2083.42,229.285 2187.01,499.289 2290.6,721.317 "/>
<path clip-path="url(#clip400)" d="M2007.5 1438.47 L2279.55 1438.47 L2279.55 1334.79 L2007.5 1334.79  Z" fill="#ffffff" fill-rule="evenodd" fill-opacity="1"/>
<polyline clip-path="url(#clip400)" style="stroke:#000000; stroke-linecap:round; stroke-linejoin:round; stroke-width:4; stroke-opacity:1; fill:none" points="2007.5,1438.47 2279.55,1438.47 2279.55,1334.79 2007.5,1334.79 2007.5,1438.47 "/>
<polyline clip-path="url(#clip400)" style="stroke:#009af9; stroke-linecap:round; stroke-linejoin:round; stroke-width:4; stroke-opacity:1; fill:none" points="2031.91,1386.63 2178.32,1386.63 "/>
<path clip-path="url(#clip400)" d="M2216.56 1406.32 Q2214.76 1410.95 2213.04 1412.36 Q2211.33 1413.78 2208.46 1413.78 L2205.06 1413.78 L2205.06 1410.21 L2207.56 1410.21 Q2209.32 1410.21 2210.29 1409.38 Q2211.26 1408.54 2212.44 1405.44 L2213.2 1403.5 L2202.72 1377.99 L2207.23 1377.99 L2215.33 1398.27 L2223.44 1377.99 L2227.95 1377.99 L2216.56 1406.32 Z" fill="#000000" fill-rule="evenodd" fill-opacity="1" /><path clip-path="url(#clip400)" d="M2235.24 1399.98 L2242.88 1399.98 L2242.88 1373.61 L2234.57 1375.28 L2234.57 1371.02 L2242.83 1369.35 L2247.51 1369.35 L2247.51 1399.98 L2255.15 1399.98 L2255.15 1403.91 L2235.24 1403.91 L2235.24 1399.98 Z" fill="#000000" fill-rule="evenodd" fill-opacity="1" /></svg>
