<?xml version="1.0" encoding="utf-8"?>
<svg xmlns="http://www.w3.org/2000/svg" xmlns:xlink="http://www.w3.org/1999/xlink" width="600" height="400" viewBox="0 0 2400 1600">
<defs>
  <clipPath id="clip240">
    <rect x="0" y="0" width="2400" height="1600"/>
  </clipPath>
</defs>
<path clip-path="url(#clip240)" d="M0 1600 L2400 1600 L2400 0 L0 0  Z" fill="#ffffff" fill-rule="evenodd" fill-opacity="1"/>
<defs>
  <clipPath id="clip241">
    <rect x="480" y="0" width="1681" height="1600"/>
  </clipPath>
</defs>
<path clip-path="url(#clip240)" d="M138.959 1486.45 L2352.76 1486.45 L2352.76 47.2441 L138.959 47.2441  Z" fill="#ffffff" fill-rule="evenodd" fill-opacity="1"/>
<defs>
  <clipPath id="clip242">
    <rect x="138" y="47" width="2215" height="1440"/>
  </clipPath>
</defs>
<polyline clip-path="url(#clip242)" style="stroke:#000000; stroke-linecap:round; stroke-linejoin:round; stroke-width:2; stroke-opacity:0.1; fill:none" points="201.614,1486.45 201.614,47.2441 "/>
<polyline clip-path="url(#clip242)" style="stroke:#000000; stroke-linecap:round; stroke-linejoin:round; stroke-width:2; stroke-opacity:0.1; fill:none" points="723.736,1486.45 723.736,47.2441 "/>
<polyline clip-path="url(#clip242)" style="stroke:#000000; stroke-linecap:round; stroke-linejoin:round; stroke-width:2; stroke-opacity:0.1; fill:none" points="1245.86,1486.45 1245.86,47.2441 "/>
<polyline clip-path="url(#clip242)" style="stroke:#000000; stroke-linecap:round; stroke-linejoin:round; stroke-width:2; stroke-opacity:0.1; fill:none" points="1767.98,1486.45 1767.98,47.2441 "/>
<polyline clip-path="url(#clip242)" style="stroke:#000000; stroke-linecap:round; stroke-linejoin:round; stroke-width:2; stroke-opacity:0.1; fill:none" points="2290.1,1486.45 2290.1,47.2441 "/>
<polyline clip-path="url(#clip240)" style="stroke:#000000; stroke-linecap:round; stroke-linejoin:round; stroke-width:4; stroke-opacity:1; fill:none" points="138.959,1486.45 2352.76,1486.45 "/>
<polyline clip-path="url(#clip240)" style="stroke:#000000; stroke-linecap:round; stroke-linejoin:round; stroke-width:4; stroke-opacity:1; fill:none" points="201.614,1486.45 201.614,1467.55 "/>
<polyline clip-path="url(#clip240)" style="stroke:#000000; stroke-linecap:round; stroke-linejoin:round; stroke-width:4; stroke-opacity:1; fill:none" points="723.736,1486.45 723.736,1467.55 "/>
<polyline clip-path="url(#clip240)" style="stroke:#000000; stroke-linecap:round; stroke-linejoin:round; stroke-width:4; stroke-opacity:1; fill:none" points="1245.86,1486.45 1245.86,1467.55 "/>
<polyline clip-path="url(#clip240)" style="stroke:#000000; stroke-linecap:round; stroke-linejoin:round; stroke-width:4; stroke-opacity:1; fill:none" points="1767.98,1486.45 1767.98,1467.55 "/>
<polyline clip-path="url(#clip240)" style="stroke:#000000; stroke-linecap:round; stroke-linejoin:round; stroke-width:4; stroke-opacity:1; fill:none" points="2290.1,1486.45 2290.1,1467.55 "/>
<path clip-path="url(#clip240)" d="M201.614 1517.37 Q198.003 1517.37 196.174 1520.93 Q194.369 1524.47 194.369 1531.6 Q194.369 1538.71 196.174 1542.27 Q198.003 1545.82 201.614 1545.82 Q205.248 1545.82 207.054 1542.27 Q208.883 1538.71 208.883 1531.6 Q208.883 1524.47 207.054 1520.93 Q205.248 1517.37 201.614 1517.37 M201.614 1513.66 Q207.424 1513.66 210.48 1518.27 Q213.558 1522.85 213.558 1531.6 Q213.558 1540.33 210.48 1544.94 Q207.424 1549.52 201.614 1549.52 Q195.804 1549.52 192.725 1544.94 Q189.67 1540.33 189.67 1531.6 Q189.67 1522.85 192.725 1518.27 Q195.804 1513.66 201.614 1513.66 Z" fill="#000000" fill-rule="evenodd" fill-opacity="1" /><path clip-path="url(#clip240)" d="M698.435 1514.29 L716.791 1514.29 L716.791 1518.22 L702.717 1518.22 L702.717 1526.7 Q703.736 1526.35 704.754 1526.19 Q705.773 1526 706.792 1526 Q712.579 1526 715.958 1529.17 Q719.338 1532.34 719.338 1537.76 Q719.338 1543.34 715.866 1546.44 Q712.393 1549.52 706.074 1549.52 Q703.898 1549.52 701.63 1549.15 Q699.384 1548.78 696.977 1548.04 L696.977 1543.34 Q699.06 1544.47 701.282 1545.03 Q703.504 1545.58 705.981 1545.58 Q709.986 1545.58 712.324 1543.48 Q714.662 1541.37 714.662 1537.76 Q714.662 1534.15 712.324 1532.04 Q709.986 1529.94 705.981 1529.94 Q704.106 1529.94 702.231 1530.35 Q700.38 1530.77 698.435 1531.65 L698.435 1514.29 Z" fill="#000000" fill-rule="evenodd" fill-opacity="1" /><path clip-path="url(#clip240)" d="M738.551 1517.37 Q734.94 1517.37 733.111 1520.93 Q731.305 1524.47 731.305 1531.6 Q731.305 1538.71 733.111 1542.27 Q734.94 1545.82 738.551 1545.82 Q742.185 1545.82 743.99 1542.27 Q745.819 1538.71 745.819 1531.6 Q745.819 1524.47 743.99 1520.93 Q742.185 1517.37 738.551 1517.37 M738.551 1513.66 Q744.361 1513.66 747.416 1518.27 Q750.495 1522.85 750.495 1531.6 Q750.495 1540.33 747.416 1544.94 Q744.361 1549.52 738.551 1549.52 Q732.74 1549.52 729.662 1544.94 Q726.606 1540.33 726.606 1531.6 Q726.606 1522.85 729.662 1518.27 Q732.74 1513.66 738.551 1513.66 Z" fill="#000000" fill-rule="evenodd" fill-opacity="1" /><path clip-path="url(#clip240)" d="M1205.46 1544.91 L1213.1 1544.91 L1213.1 1518.55 L1204.79 1520.21 L1204.79 1515.95 L1213.06 1514.29 L1217.73 1514.29 L1217.73 1544.91 L1225.37 1544.91 L1225.37 1548.85 L1205.46 1548.85 L1205.46 1544.91 Z" fill="#000000" fill-rule="evenodd" fill-opacity="1" /><path clip-path="url(#clip240)" d="M1244.82 1517.37 Q1241.2 1517.37 1239.38 1520.93 Q1237.57 1524.47 1237.57 1531.6 Q1237.57 1538.71 1239.38 1542.27 Q1241.2 1545.82 1244.82 1545.82 Q1248.45 1545.82 1250.26 1542.27 Q1252.08 1538.71 1252.08 1531.6 Q1252.08 1524.47 1250.26 1520.93 Q1248.45 1517.37 1244.82 1517.37 M1244.82 1513.66 Q1250.63 1513.66 1253.68 1518.27 Q1256.76 1522.85 1256.76 1531.6 Q1256.76 1540.33 1253.68 1544.94 Q1250.63 1549.52 1244.82 1549.52 Q1239.01 1549.52 1235.93 1544.94 Q1232.87 1540.33 1232.87 1531.6 Q1232.87 1522.85 1235.93 1518.27 Q1239.01 1513.66 1244.82 1513.66 Z" fill="#000000" fill-rule="evenodd" fill-opacity="1" /><path clip-path="url(#clip240)" d="M1274.98 1517.37 Q1271.37 1517.37 1269.54 1520.93 Q1267.73 1524.47 1267.73 1531.6 Q1267.73 1538.71 1269.54 1542.27 Q1271.37 1545.82 1274.98 1545.82 Q1278.61 1545.82 1280.42 1542.27 Q1282.25 1538.71 1282.25 1531.6 Q1282.25 1524.47 1280.42 1520.93 Q1278.61 1517.37 1274.98 1517.37 M1274.98 1513.66 Q1280.79 1513.66 1283.84 1518.27 Q1286.92 1522.85 1286.92 1531.6 Q1286.92 1540.33 1283.84 1544.94 Q1280.79 1549.52 1274.98 1549.52 Q1269.17 1549.52 1266.09 1544.94 Q1263.03 1540.33 1263.03 1531.6 Q1263.03 1522.85 1266.09 1518.27 Q1269.17 1513.66 1274.98 1513.66 Z" fill="#000000" fill-rule="evenodd" fill-opacity="1" /><path clip-path="url(#clip240)" d="M1727.59 1544.91 L1735.23 1544.91 L1735.23 1518.55 L1726.91 1520.21 L1726.91 1515.95 L1735.18 1514.29 L1739.85 1514.29 L1739.85 1544.91 L1747.49 1544.91 L1747.49 1548.85 L1727.59 1548.85 L1727.59 1544.91 Z" fill="#000000" fill-rule="evenodd" fill-opacity="1" /><path clip-path="url(#clip240)" d="M1756.98 1514.29 L1775.34 1514.29 L1775.34 1518.22 L1761.27 1518.22 L1761.27 1526.7 Q1762.29 1526.35 1763.3 1526.19 Q1764.32 1526 1765.34 1526 Q1771.13 1526 1774.51 1529.17 Q1777.89 1532.34 1777.89 1537.76 Q1777.89 1543.34 1774.41 1546.44 Q1770.94 1549.52 1764.62 1549.52 Q1762.45 1549.52 1760.18 1549.15 Q1757.93 1548.78 1755.53 1548.04 L1755.53 1543.34 Q1757.61 1544.47 1759.83 1545.03 Q1762.05 1545.58 1764.53 1545.58 Q1768.54 1545.58 1770.87 1543.48 Q1773.21 1541.37 1773.21 1537.76 Q1773.21 1534.15 1770.87 1532.04 Q1768.54 1529.94 1764.53 1529.94 Q1762.66 1529.94 1760.78 1530.35 Q1758.93 1530.77 1756.98 1531.65 L1756.98 1514.29 Z" fill="#000000" fill-rule="evenodd" fill-opacity="1" /><path clip-path="url(#clip240)" d="M1797.1 1517.37 Q1793.49 1517.37 1791.66 1520.93 Q1789.85 1524.47 1789.85 1531.6 Q1789.85 1538.71 1791.66 1542.27 Q1793.49 1545.82 1797.1 1545.82 Q1800.73 1545.82 1802.54 1542.27 Q1804.37 1538.71 1804.37 1531.6 Q1804.37 1524.47 1802.54 1520.93 Q1800.73 1517.37 1797.1 1517.37 M1797.1 1513.66 Q1802.91 1513.66 1805.97 1518.27 Q1809.04 1522.85 1809.04 1531.6 Q1809.04 1540.33 1805.97 1544.94 Q1802.91 1549.52 1797.1 1549.52 Q1791.29 1549.52 1788.21 1544.94 Q1785.16 1540.33 1785.16 1531.6 Q1785.16 1522.85 1788.21 1518.27 Q1791.29 1513.66 1797.1 1513.66 Z" fill="#000000" fill-rule="evenodd" fill-opacity="1" /><path clip-path="url(#clip240)" d="M2253.79 1544.91 L2270.11 1544.91 L2270.11 1548.85 L2248.17 1548.85 L2248.17 1544.91 Q2250.83 1542.16 2255.41 1537.53 Q2260.02 1532.88 2261.2 1531.53 Q2263.45 1529.01 2264.33 1527.27 Q2265.23 1525.51 2265.23 1523.82 Q2265.23 1521.07 2263.28 1519.33 Q2261.36 1517.6 2258.26 1517.6 Q2256.06 1517.6 2253.61 1518.36 Q2251.18 1519.13 2248.4 1520.68 L2248.4 1515.95 Q2251.22 1514.82 2253.68 1514.24 Q2256.13 1513.66 2258.17 1513.66 Q2263.54 1513.66 2266.73 1516.35 Q2269.93 1519.03 2269.93 1523.52 Q2269.93 1525.65 2269.12 1527.57 Q2268.33 1529.47 2266.22 1532.07 Q2265.65 1532.74 2262.54 1535.95 Q2259.44 1539.15 2253.79 1544.91 Z" fill="#000000" fill-rule="evenodd" fill-opacity="1" /><path clip-path="url(#clip240)" d="M2289.93 1517.37 Q2286.32 1517.37 2284.49 1520.93 Q2282.68 1524.47 2282.68 1531.6 Q2282.68 1538.71 2284.49 1542.27 Q2286.32 1545.82 2289.93 1545.82 Q2293.56 1545.82 2295.37 1542.27 Q2297.2 1538.71 2297.2 1531.6 Q2297.2 1524.47 2295.37 1520.93 Q2293.56 1517.37 2289.93 1517.37 M2289.93 1513.66 Q2295.74 1513.66 2298.79 1518.27 Q2301.87 1522.85 2301.87 1531.6 Q2301.87 1540.33 2298.79 1544.94 Q2295.74 1549.52 2289.93 1549.52 Q2284.12 1549.52 2281.04 1544.94 Q2277.98 1540.33 2277.98 1531.6 Q2277.98 1522.85 2281.04 1518.27 Q2284.12 1513.66 2289.93 1513.66 Z" fill="#000000" fill-rule="evenodd" fill-opacity="1" /><path clip-path="url(#clip240)" d="M2320.09 1517.37 Q2316.48 1517.37 2314.65 1520.93 Q2312.84 1524.47 2312.84 1531.6 Q2312.84 1538.71 2314.65 1542.27 Q2316.48 1545.82 2320.09 1545.82 Q2323.72 1545.82 2325.53 1542.27 Q2327.36 1538.71 2327.36 1531.6 Q2327.36 1524.47 2325.53 1520.93 Q2323.72 1517.37 2320.09 1517.37 M2320.09 1513.66 Q2325.9 1513.66 2328.96 1518.27 Q2332.03 1522.85 2332.03 1531.6 Q2332.03 1540.33 2328.96 1544.94 Q2325.9 1549.52 2320.09 1549.52 Q2314.28 1549.52 2311.2 1544.94 Q2308.15 1540.33 2308.15 1531.6 Q2308.15 1522.85 2311.2 1518.27 Q2314.28 1513.66 2320.09 1513.66 Z" fill="#000000" fill-rule="evenodd" fill-opacity="1" /><polyline clip-path="url(#clip242)" style="stroke:#000000; stroke-linecap:round; stroke-linejoin:round; stroke-width:2; stroke-opacity:0.1; fill:none" points="138.959,1445.72 2352.76,1445.72 "/>
<polyline clip-path="url(#clip242)" style="stroke:#000000; stroke-linecap:round; stroke-linejoin:round; stroke-width:2; stroke-opacity:0.1; fill:none" points="138.959,1068.57 2352.76,1068.57 "/>
<polyline clip-path="url(#clip242)" style="stroke:#000000; stroke-linecap:round; stroke-linejoin:round; stroke-width:2; stroke-opacity:0.1; fill:none" points="138.959,691.416 2352.76,691.416 "/>
<polyline clip-path="url(#clip242)" style="stroke:#000000; stroke-linecap:round; stroke-linejoin:round; stroke-width:2; stroke-opacity:0.1; fill:none" points="138.959,314.266 2352.76,314.266 "/>
<polyline clip-path="url(#clip240)" style="stroke:#000000; stroke-linecap:round; stroke-linejoin:round; stroke-width:4; stroke-opacity:1; fill:none" points="138.959,1486.45 138.959,47.2441 "/>
<polyline clip-path="url(#clip240)" style="stroke:#000000; stroke-linecap:round; stroke-linejoin:round; stroke-width:4; stroke-opacity:1; fill:none" points="138.959,1445.72 157.857,1445.72 "/>
<polyline clip-path="url(#clip240)" style="stroke:#000000; stroke-linecap:round; stroke-linejoin:round; stroke-width:4; stroke-opacity:1; fill:none" points="138.959,1068.57 157.857,1068.57 "/>
<polyline clip-path="url(#clip240)" style="stroke:#000000; stroke-linecap:round; stroke-linejoin:round; stroke-width:4; stroke-opacity:1; fill:none" points="138.959,691.416 157.857,691.416 "/>
<polyline clip-path="url(#clip240)" style="stroke:#000000; stroke-linecap:round; stroke-linejoin:round; stroke-width:4; stroke-opacity:1; fill:none" points="138.959,314.266 157.857,314.266 "/>
<path clip-path="url(#clip240)" d="M91.0151 1431.51 Q87.404 1431.51 85.5753 1435.08 Q83.7697 1438.62 83.7697 1445.75 Q83.7697 1452.86 85.5753 1456.42 Q87.404 1459.96 91.0151 1459.96 Q94.6493 1459.96 96.4548 1456.42 Q98.2835 1452.86 98.2835 1445.75 Q98.2835 1438.62 96.4548 1435.08 Q94.6493 1431.51 91.0151 1431.51 M91.0151 1427.81 Q96.8252 1427.81 99.8808 1432.42 Q102.959 1437 102.959 1445.75 Q102.959 1454.48 99.8808 1459.08 Q96.8252 1463.67 91.0151 1463.67 Q85.2049 1463.67 82.1262 1459.08 Q79.0707 1454.48 79.0707 1445.75 Q79.0707 1437 82.1262 1432.42 Q85.2049 1427.81 91.0151 1427.81 Z" fill="#000000" fill-rule="evenodd" fill-opacity="1" /><path clip-path="url(#clip240)" d="M82.0568 1051.29 L100.413 1051.29 L100.413 1055.22 L86.3392 1055.22 L86.3392 1063.69 Q87.3577 1063.35 88.3762 1063.18 Q89.3947 1063 90.4132 1063 Q96.2002 1063 99.5798 1066.17 Q102.959 1069.34 102.959 1074.76 Q102.959 1080.34 99.4872 1083.44 Q96.015 1086.52 89.6956 1086.52 Q87.5197 1086.52 85.2512 1086.15 Q83.0058 1085.78 80.5984 1085.04 L80.5984 1080.34 Q82.6818 1081.47 84.904 1082.03 Q87.1262 1082.58 89.603 1082.58 Q93.6076 1082.58 95.9456 1080.48 Q98.2835 1078.37 98.2835 1074.76 Q98.2835 1071.15 95.9456 1069.04 Q93.6076 1066.93 89.603 1066.93 Q87.728 1066.93 85.8531 1067.35 Q84.0012 1067.77 82.0568 1068.65 L82.0568 1051.29 Z" fill="#000000" fill-rule="evenodd" fill-opacity="1" /><path clip-path="url(#clip240)" d="M51.6634 704.761 L59.3023 704.761 L59.3023 678.395 L50.9921 680.062 L50.9921 675.803 L59.256 674.136 L63.9319 674.136 L63.9319 704.761 L71.5707 704.761 L71.5707 708.696 L51.6634 708.696 L51.6634 704.761 Z" fill="#000000" fill-rule="evenodd" fill-opacity="1" /><path clip-path="url(#clip240)" d="M91.0151 677.215 Q87.404 677.215 85.5753 680.779 Q83.7697 684.321 83.7697 691.451 Q83.7697 698.557 85.5753 702.122 Q87.404 705.664 91.0151 705.664 Q94.6493 705.664 96.4548 702.122 Q98.2835 698.557 98.2835 691.451 Q98.2835 684.321 96.4548 680.779 Q94.6493 677.215 91.0151 677.215 M91.0151 673.511 Q96.8252 673.511 99.8808 678.117 Q102.959 682.701 102.959 691.451 Q102.959 700.178 99.8808 704.784 Q96.8252 709.367 91.0151 709.367 Q85.2049 709.367 82.1262 704.784 Q79.0707 700.178 79.0707 691.451 Q79.0707 682.701 82.1262 678.117 Q85.2049 673.511 91.0151 673.511 Z" fill="#000000" fill-rule="evenodd" fill-opacity="1" /><path clip-path="url(#clip240)" d="M52.6588 327.611 L60.2976 327.611 L60.2976 301.245 L51.9875 302.912 L51.9875 298.653 L60.2513 296.986 L64.9272 296.986 L64.9272 327.611 L72.5661 327.611 L72.5661 331.546 L52.6588 331.546 L52.6588 327.611 Z" fill="#000000" fill-rule="evenodd" fill-opacity="1" /><path clip-path="url(#clip240)" d="M82.0568 296.986 L100.413 296.986 L100.413 300.921 L86.3392 300.921 L86.3392 309.394 Q87.3577 309.046 88.3762 308.884 Q89.3947 308.699 90.4132 308.699 Q96.2002 308.699 99.5798 311.87 Q102.959 315.042 102.959 320.458 Q102.959 326.037 99.4872 329.139 Q96.015 332.217 89.6956 332.217 Q87.5197 332.217 85.2512 331.847 Q83.0058 331.477 80.5984 330.736 L80.5984 326.037 Q82.6818 327.171 84.904 327.727 Q87.1262 328.282 89.603 328.282 Q93.6076 328.282 95.9456 326.176 Q98.2835 324.069 98.2835 320.458 Q98.2835 316.847 95.9456 314.741 Q93.6076 312.634 89.603 312.634 Q87.728 312.634 85.8531 313.051 Q84.0012 313.468 82.0568 314.347 L82.0568 296.986 Z" fill="#000000" fill-rule="evenodd" fill-opacity="1" /><polyline clip-path="url(#clip242)" style="stroke:#009af9; stroke-linecap:round; stroke-linejoin:round; stroke-width:4; stroke-opacity:1; fill:none" points="201.614,1445.72 203.314,1445.68 205.013,1445.45 206.713,1444.85 208.413,1443.75 210.112,1442.02 211.812,1439.59 212.662,1438.08 213.512,1436.37 214.361,1434.44 215.211,1432.31 217.176,1426.51 219.14,1419.51 221.105,1411.28 223.069,1401.82 225.034,1391.16 226.998,1379.31 228.962,1366.31 230.927,1352.22 232.891,1337.09 234.856,1320.97 236.82,1303.93 238.785,1286.04 242.714,1247.97 246.643,1207.29 250.572,1164.57 254.501,1120.32 258.429,1075.02 262.358,1029.13 270.216,937.155 278.074,847.111 282.003,803.469 285.932,761.015 289.861,719.906 293.79,680.264 297.719,642.181 301.648,605.723 305.577,570.933 309.506,537.833 313.434,506.429 317.363,476.708 321.292,448.648 325.221,422.215 329.15,397.367 333.079,374.054 337.008,352.222 340.937,331.812 345.659,309.076 350.381,288.196 355.104,269.06 359.826,251.557 364.548,235.577 369.27,221.012 373.993,207.759 378.715,195.718 383.437,184.795 388.159,174.899 392.882,165.945 397.604,157.855 407.048,143.97 416.493,132.709 424.478,124.892 432.463,118.385 440.448,112.98 448.434,108.501 464.404,101.742 480.374,97.156 497.723,93.8533 515.071,91.7183 532.419,90.3472 549.768,89.4717 581.755,88.609 613.742,88.2408 682.329,88.0157 761.795,87.9804 832.414,87.9768 894.341,87.9764 961.857,87.9763 1029.78,87.9763 1104.87,87.9763 1176.32,87.9763 1250.61,87.9763 1313.14,87.9763 1389.49,87.9763 1459.43,87.9763 1524.03,87.9763 1589.46,87.9763 1662.79,87.9763 1729.24,87.9763 1805.33,87.9763 1875.77,87.9763 1945.22,87.9763 2012.65,87.9763 2081.78,87.9763 2157.51,87.9763 2267.53,87.9763 2290.1,87.9763 "/>
<path clip-path="url(#clip240)" d="M2005.15 1438.47 L2278.96 1438.47 L2278.96 1334.79 L2005.15 1334.79  Z" fill="#ffffff" fill-rule="evenodd" fill-opacity="1"/>
<polyline clip-path="url(#clip240)" style="stroke:#000000; stroke-linecap:round; stroke-linejoin:round; stroke-width:4; stroke-opacity:1; fill:none" points="2005.15,1438.47 2278.96,1438.47 2278.96,1334.79 2005.15,1334.79 2005.15,1438.47 "/>
<polyline clip-path="url(#clip240)" style="stroke:#009af9; stroke-linecap:round; stroke-linejoin:round; stroke-width:4; stroke-opacity:1; fill:none" points="2029.75,1386.63 2177.34,1386.63 "/>
<path clip-path="url(#clip240)" d="M2215.78 1406.32 Q2213.97 1410.95 2212.26 1412.36 Q2210.55 1413.78 2207.68 1413.78 L2204.27 1413.78 L2204.27 1410.21 L2206.77 1410.21 Q2208.53 1410.21 2209.5 1409.38 Q2210.48 1408.54 2211.66 1405.44 L2212.42 1403.5 L2201.93 1377.99 L2206.45 1377.99 L2214.55 1398.27 L2222.65 1377.99 L2227.17 1377.99 L2215.78 1406.32 Z" fill="#000000" fill-rule="evenodd" fill-opacity="1" /><path clip-path="url(#clip240)" d="M2234.46 1399.98 L2242.1 1399.98 L2242.1 1373.61 L2233.79 1375.28 L2233.79 1371.02 L2242.05 1369.35 L2246.73 1369.35 L2246.73 1399.98 L2254.36 1399.98 L2254.36 1403.91 L2234.46 1403.91 L2234.46 1399.98 Z" fill="#000000" fill-rule="evenodd" fill-opacity="1" /></svg>
