<?xml version="1.0" encoding="utf-8"?>
<svg xmlns="http://www.w3.org/2000/svg" xmlns:xlink="http://www.w3.org/1999/xlink" width="600" height="400" viewBox="0 0 2400 1600">
<defs>
  <clipPath id="clip440">
    <rect x="0" y="0" width="2400" height="1600"/>
  </clipPath>
</defs>
<path clip-path="url(#clip440)" d="M0 1600 L2400 1600 L2400 0 L0 0  Z" fill="#ffffff" fill-rule="evenodd" fill-opacity="1"/>
<defs>
  <clipPath id="clip441">
    <rect x="480" y="0" width="1681" height="1600"/>
  </clipPath>
</defs>
<path clip-path="url(#clip440)" d="M156.598 1486.45 L2352.76 1486.45 L2352.76 47.2441 L156.598 47.2441  Z" fill="#ffffff" fill-rule="evenodd" fill-opacity="1"/>
<defs>
  <clipPath id="clip442">
    <rect x="156" y="47" width="2197" height="1440"/>
  </clipPath>
</defs>
<polyline clip-path="url(#clip442)" style="stroke:#000000; stroke-linecap:round; stroke-linejoin:round; stroke-width:2; stroke-opacity:0.1; fill:none" points="218.754,1486.45 218.754,47.2441 "/>
<polyline clip-path="url(#clip442)" style="stroke:#000000; stroke-linecap:round; stroke-linejoin:round; stroke-width:2; stroke-opacity:0.1; fill:none" points="736.715,1486.45 736.715,47.2441 "/>
<polyline clip-path="url(#clip442)" style="stroke:#000000; stroke-linecap:round; stroke-linejoin:round; stroke-width:2; stroke-opacity:0.1; fill:none" points="1254.68,1486.45 1254.68,47.2441 "/>
<polyline clip-path="url(#clip442)" style="stroke:#000000; stroke-linecap:round; stroke-linejoin:round; stroke-width:2; stroke-opacity:0.1; fill:none" points="1772.64,1486.45 1772.64,47.2441 "/>
<polyline clip-path="url(#clip442)" style="stroke:#000000; stroke-linecap:round; stroke-linejoin:round; stroke-width:2; stroke-opacity:0.1; fill:none" points="2290.6,1486.45 2290.6,47.2441 "/>
<polyline clip-path="url(#clip440)" style="stroke:#000000; stroke-linecap:round; stroke-linejoin:round; stroke-width:4; stroke-opacity:1; fill:none" points="156.598,1486.45 2352.76,1486.45 "/>
<polyline clip-path="url(#clip440)" style="stroke:#000000; stroke-linecap:round; stroke-linejoin:round; stroke-width:4; stroke-opacity:1; fill:none" points="218.754,1486.45 218.754,1467.55 "/>
<polyline clip-path="url(#clip440)" style="stroke:#000000; stroke-linecap:round; stroke-linejoin:round; stroke-width:4; stroke-opacity:1; fill:none" points="736.715,1486.45 736.715,1467.55 "/>
<polyline clip-path="url(#clip440)" style="stroke:#000000; stroke-linecap:round; stroke-linejoin:round; stroke-width:4; stroke-opacity:1; fill:none" points="1254.68,1486.45 1254.68,1467.55 "/>
<polyline clip-path="url(#clip440)" style="stroke:#000000; stroke-linecap:round; stroke-linejoin:round; stroke-width:4; stroke-opacity:1; fill:none" points="1772.64,1486.45 1772.64,1467.55 "/>
<polyline clip-path="url(#clip440)" style="stroke:#000000; stroke-linecap:round; stroke-linejoin:round; stroke-width:4; stroke-opacity:1; fill:none" points="2290.6,1486.45 2290.6,1467.55 "/>
<path clip-path="url(#clip440)" d="M196.138 1517.37 Q192.527 1517.37 190.698 1520.93 Q188.893 1524.47 188.893 1531.6 Q188.893 1538.71 190.698 1542.27 Q192.527 1545.82 196.138 1545.82 Q199.772 1545.82 201.578 1542.27 Q203.407 1538.71 203.407 1531.6 Q203.407 1524.47 201.578 1520.93 Q199.772 1517.37 196.138 1517.37 M196.138 1513.66 Q201.948 1513.66 205.004 1518.27 Q208.082 1522.85 208.082 1531.6 Q208.082 1540.33 205.004 1544.94 Q201.948 1549.52 196.138 1549.52 Q190.328 1549.52 187.249 1544.94 Q184.194 1540.33 184.194 1531.6 Q184.194 1522.85 187.249 1518.27 Q190.328 1513.66 196.138 1513.66 Z" fill="#000000" fill-rule="evenodd" fill-opacity="1" /><path clip-path="url(#clip440)" d="M216.3 1542.97 L221.184 1542.97 L221.184 1548.85 L216.3 1548.85 L216.3 1542.97 Z" fill="#000000" fill-rule="evenodd" fill-opacity="1" /><path clip-path="url(#clip440)" d="M241.369 1517.37 Q237.758 1517.37 235.929 1520.93 Q234.124 1524.47 234.124 1531.6 Q234.124 1538.71 235.929 1542.27 Q237.758 1545.82 241.369 1545.82 Q245.003 1545.82 246.809 1542.27 Q248.638 1538.71 248.638 1531.6 Q248.638 1524.47 246.809 1520.93 Q245.003 1517.37 241.369 1517.37 M241.369 1513.66 Q247.179 1513.66 250.235 1518.27 Q253.314 1522.85 253.314 1531.6 Q253.314 1540.33 250.235 1544.94 Q247.179 1549.52 241.369 1549.52 Q235.559 1549.52 232.48 1544.94 Q229.425 1540.33 229.425 1531.6 Q229.425 1522.85 232.48 1518.27 Q235.559 1513.66 241.369 1513.66 Z" fill="#000000" fill-rule="evenodd" fill-opacity="1" /><path clip-path="url(#clip440)" d="M708.452 1544.91 L724.771 1544.91 L724.771 1548.85 L702.827 1548.85 L702.827 1544.91 Q705.489 1542.16 710.072 1537.53 Q714.678 1532.88 715.859 1531.53 Q718.104 1529.01 718.984 1527.27 Q719.887 1525.51 719.887 1523.82 Q719.887 1521.07 717.942 1519.33 Q716.021 1517.6 712.919 1517.6 Q710.72 1517.6 708.266 1518.36 Q705.836 1519.13 703.058 1520.68 L703.058 1515.95 Q705.882 1514.82 708.336 1514.24 Q710.79 1513.66 712.827 1513.66 Q718.197 1513.66 721.391 1516.35 Q724.586 1519.03 724.586 1523.52 Q724.586 1525.65 723.776 1527.57 Q722.989 1529.47 720.882 1532.07 Q720.303 1532.74 717.202 1535.95 Q714.1 1539.15 708.452 1544.91 Z" fill="#000000" fill-rule="evenodd" fill-opacity="1" /><path clip-path="url(#clip440)" d="M734.586 1542.97 L739.47 1542.97 L739.47 1548.85 L734.586 1548.85 L734.586 1542.97 Z" fill="#000000" fill-rule="evenodd" fill-opacity="1" /><path clip-path="url(#clip440)" d="M749.701 1514.29 L768.058 1514.29 L768.058 1518.22 L753.984 1518.22 L753.984 1526.7 Q755.002 1526.35 756.021 1526.19 Q757.039 1526 758.058 1526 Q763.845 1526 767.224 1529.17 Q770.604 1532.34 770.604 1537.76 Q770.604 1543.34 767.132 1546.44 Q763.66 1549.52 757.34 1549.52 Q755.164 1549.52 752.896 1549.15 Q750.65 1548.78 748.243 1548.04 L748.243 1543.34 Q750.326 1544.47 752.549 1545.03 Q754.771 1545.58 757.248 1545.58 Q761.252 1545.58 763.59 1543.48 Q765.928 1541.37 765.928 1537.76 Q765.928 1534.15 763.59 1532.04 Q761.252 1529.94 757.248 1529.94 Q755.373 1529.94 753.498 1530.35 Q751.646 1530.77 749.701 1531.65 L749.701 1514.29 Z" fill="#000000" fill-rule="evenodd" fill-opacity="1" /><path clip-path="url(#clip440)" d="M1221.84 1514.29 L1240.2 1514.29 L1240.2 1518.22 L1226.12 1518.22 L1226.12 1526.7 Q1227.14 1526.35 1228.16 1526.19 Q1229.18 1526 1230.2 1526 Q1235.99 1526 1239.36 1529.17 Q1242.74 1532.34 1242.74 1537.76 Q1242.74 1543.34 1239.27 1546.44 Q1235.8 1549.52 1229.48 1549.52 Q1227.3 1549.52 1225.04 1549.15 Q1222.79 1548.78 1220.38 1548.04 L1220.38 1543.34 Q1222.47 1544.47 1224.69 1545.03 Q1226.91 1545.58 1229.39 1545.58 Q1233.39 1545.58 1235.73 1543.48 Q1238.07 1541.37 1238.07 1537.76 Q1238.07 1534.15 1235.73 1532.04 Q1233.39 1529.94 1229.39 1529.94 Q1227.51 1529.94 1225.64 1530.35 Q1223.79 1530.77 1221.84 1531.65 L1221.84 1514.29 Z" fill="#000000" fill-rule="evenodd" fill-opacity="1" /><path clip-path="url(#clip440)" d="M1251.96 1542.97 L1256.84 1542.97 L1256.84 1548.85 L1251.96 1548.85 L1251.96 1542.97 Z" fill="#000000" fill-rule="evenodd" fill-opacity="1" /><path clip-path="url(#clip440)" d="M1277.03 1517.37 Q1273.42 1517.37 1271.59 1520.93 Q1269.78 1524.47 1269.78 1531.6 Q1269.78 1538.71 1271.59 1542.27 Q1273.42 1545.82 1277.03 1545.82 Q1280.66 1545.82 1282.47 1542.27 Q1284.29 1538.71 1284.29 1531.6 Q1284.29 1524.47 1282.47 1520.93 Q1280.66 1517.37 1277.03 1517.37 M1277.03 1513.66 Q1282.84 1513.66 1285.89 1518.27 Q1288.97 1522.85 1288.97 1531.6 Q1288.97 1540.33 1285.89 1544.94 Q1282.84 1549.52 1277.03 1549.52 Q1271.22 1549.52 1268.14 1544.94 Q1265.08 1540.33 1265.08 1531.6 Q1265.08 1522.85 1268.14 1518.27 Q1271.22 1513.66 1277.03 1513.66 Z" fill="#000000" fill-rule="evenodd" fill-opacity="1" /><path clip-path="url(#clip440)" d="M1738.96 1514.29 L1761.18 1514.29 L1761.18 1516.28 L1748.63 1548.85 L1743.75 1548.85 L1755.56 1518.22 L1738.96 1518.22 L1738.96 1514.29 Z" fill="#000000" fill-rule="evenodd" fill-opacity="1" /><path clip-path="url(#clip440)" d="M1770.3 1542.97 L1775.19 1542.97 L1775.19 1548.85 L1770.3 1548.85 L1770.3 1542.97 Z" fill="#000000" fill-rule="evenodd" fill-opacity="1" /><path clip-path="url(#clip440)" d="M1785.42 1514.29 L1803.77 1514.29 L1803.77 1518.22 L1789.7 1518.22 L1789.7 1526.7 Q1790.72 1526.35 1791.74 1526.19 Q1792.75 1526 1793.77 1526 Q1799.56 1526 1802.94 1529.17 Q1806.32 1532.34 1806.32 1537.76 Q1806.32 1543.34 1802.85 1546.44 Q1799.37 1549.52 1793.06 1549.52 Q1790.88 1549.52 1788.61 1549.15 Q1786.37 1548.78 1783.96 1548.04 L1783.96 1543.34 Q1786.04 1544.47 1788.26 1545.03 Q1790.49 1545.58 1792.96 1545.58 Q1796.97 1545.58 1799.31 1543.48 Q1801.64 1541.37 1801.64 1537.76 Q1801.64 1534.15 1799.31 1532.04 Q1796.97 1529.94 1792.96 1529.94 Q1791.09 1529.94 1789.21 1530.35 Q1787.36 1530.77 1785.42 1531.65 L1785.42 1514.29 Z" fill="#000000" fill-rule="evenodd" fill-opacity="1" /><path clip-path="url(#clip440)" d="M2242.67 1544.91 L2250.31 1544.91 L2250.31 1518.55 L2242 1520.21 L2242 1515.95 L2250.27 1514.29 L2254.94 1514.29 L2254.94 1544.91 L2262.58 1544.91 L2262.58 1548.85 L2242.67 1548.85 L2242.67 1544.91 Z" fill="#000000" fill-rule="evenodd" fill-opacity="1" /><path clip-path="url(#clip440)" d="M2282.02 1517.37 Q2278.41 1517.37 2276.58 1520.93 Q2274.78 1524.47 2274.78 1531.6 Q2274.78 1538.71 2276.58 1542.27 Q2278.41 1545.82 2282.02 1545.82 Q2285.66 1545.82 2287.46 1542.27 Q2289.29 1538.71 2289.29 1531.6 Q2289.29 1524.47 2287.46 1520.93 Q2285.66 1517.37 2282.02 1517.37 M2282.02 1513.66 Q2287.83 1513.66 2290.89 1518.27 Q2293.97 1522.85 2293.97 1531.6 Q2293.97 1540.33 2290.89 1544.94 Q2287.83 1549.52 2282.02 1549.52 Q2276.21 1549.52 2273.14 1544.94 Q2270.08 1540.33 2270.08 1531.6 Q2270.08 1522.85 2273.14 1518.27 Q2276.21 1513.66 2282.02 1513.66 Z" fill="#000000" fill-rule="evenodd" fill-opacity="1" /><path clip-path="url(#clip440)" d="M2302.19 1542.97 L2307.07 1542.97 L2307.07 1548.85 L2302.19 1548.85 L2302.19 1542.97 Z" fill="#000000" fill-rule="evenodd" fill-opacity="1" /><path clip-path="url(#clip440)" d="M2327.26 1517.37 Q2323.64 1517.37 2321.82 1520.93 Q2320.01 1524.47 2320.01 1531.6 Q2320.01 1538.71 2321.82 1542.27 Q2323.64 1545.82 2327.26 1545.82 Q2330.89 1545.82 2332.7 1542.27 Q2334.52 1538.71 2334.52 1531.6 Q2334.52 1524.47 2332.7 1520.93 Q2330.89 1517.37 2327.26 1517.37 M2327.26 1513.66 Q2333.07 1513.66 2336.12 1518.27 Q2339.2 1522.85 2339.2 1531.6 Q2339.2 1540.33 2336.12 1544.94 Q2333.07 1549.52 2327.26 1549.52 Q2321.45 1549.52 2318.37 1544.94 Q2315.31 1540.33 2315.31 1531.6 Q2315.31 1522.85 2318.37 1518.27 Q2321.45 1513.66 2327.26 1513.66 Z" fill="#000000" fill-rule="evenodd" fill-opacity="1" /><polyline clip-path="url(#clip442)" style="stroke:#000000; stroke-linecap:round; stroke-linejoin:round; stroke-width:2; stroke-opacity:0.1; fill:none" points="156.598,1486.45 2352.76,1486.45 "/>
<polyline clip-path="url(#clip442)" style="stroke:#000000; stroke-linecap:round; stroke-linejoin:round; stroke-width:2; stroke-opacity:0.1; fill:none" points="156.598,1198.61 2352.76,1198.61 "/>
<polyline clip-path="url(#clip442)" style="stroke:#000000; stroke-linecap:round; stroke-linejoin:round; stroke-width:2; stroke-opacity:0.1; fill:none" points="156.598,910.766 2352.76,910.766 "/>
<polyline clip-path="url(#clip442)" style="stroke:#000000; stroke-linecap:round; stroke-linejoin:round; stroke-width:2; stroke-opacity:0.1; fill:none" points="156.598,622.926 2352.76,622.926 "/>
<polyline clip-path="url(#clip442)" style="stroke:#000000; stroke-linecap:round; stroke-linejoin:round; stroke-width:2; stroke-opacity:0.1; fill:none" points="156.598,335.085 2352.76,335.085 "/>
<polyline clip-path="url(#clip442)" style="stroke:#000000; stroke-linecap:round; stroke-linejoin:round; stroke-width:2; stroke-opacity:0.1; fill:none" points="156.598,47.2441 2352.76,47.2441 "/>
<polyline clip-path="url(#clip440)" style="stroke:#000000; stroke-linecap:round; stroke-linejoin:round; stroke-width:4; stroke-opacity:1; fill:none" points="156.598,1486.45 156.598,47.2441 "/>
<polyline clip-path="url(#clip440)" style="stroke:#000000; stroke-linecap:round; stroke-linejoin:round; stroke-width:4; stroke-opacity:1; fill:none" points="156.598,1486.45 175.496,1486.45 "/>
<polyline clip-path="url(#clip440)" style="stroke:#000000; stroke-linecap:round; stroke-linejoin:round; stroke-width:4; stroke-opacity:1; fill:none" points="156.598,1198.61 175.496,1198.61 "/>
<polyline clip-path="url(#clip440)" style="stroke:#000000; stroke-linecap:round; stroke-linejoin:round; stroke-width:4; stroke-opacity:1; fill:none" points="156.598,910.766 175.496,910.766 "/>
<polyline clip-path="url(#clip440)" style="stroke:#000000; stroke-linecap:round; stroke-linejoin:round; stroke-width:4; stroke-opacity:1; fill:none" points="156.598,622.926 175.496,622.926 "/>
<polyline clip-path="url(#clip440)" style="stroke:#000000; stroke-linecap:round; stroke-linejoin:round; stroke-width:4; stroke-opacity:1; fill:none" points="156.598,335.085 175.496,335.085 "/>
<polyline clip-path="url(#clip440)" style="stroke:#000000; stroke-linecap:round; stroke-linejoin:round; stroke-width:4; stroke-opacity:1; fill:none" points="156.598,47.2441 175.496,47.2441 "/>
<path clip-path="url(#clip440)" d="M63.4226 1472.25 Q59.8115 1472.25 57.9828 1475.81 Q56.1773 1479.35 56.1773 1486.48 Q56.1773 1493.59 57.9828 1497.15 Q59.8115 1500.7 63.4226 1500.7 Q67.0569 1500.7 68.8624 1497.15 Q70.6911 1493.59 70.6911 1486.48 Q70.6911 1479.35 68.8624 1475.81 Q67.0569 1472.25 63.4226 1472.25 M63.4226 1468.54 Q69.2328 1468.54 72.2883 1473.15 Q75.367 1477.73 75.367 1486.48 Q75.367 1495.21 72.2883 1499.82 Q69.2328 1504.4 63.4226 1504.4 Q57.6125 1504.4 54.5338 1499.82 Q51.4782 1495.21 51.4782 1486.48 Q51.4782 1477.73 54.5338 1473.15 Q57.6125 1468.54 63.4226 1468.54 Z" fill="#000000" fill-rule="evenodd" fill-opacity="1" /><path clip-path="url(#clip440)" d="M83.5845 1497.85 L88.4688 1497.85 L88.4688 1503.73 L83.5845 1503.73 L83.5845 1497.85 Z" fill="#000000" fill-rule="evenodd" fill-opacity="1" /><path clip-path="url(#clip440)" d="M108.654 1472.25 Q105.043 1472.25 103.214 1475.81 Q101.409 1479.35 101.409 1486.48 Q101.409 1493.59 103.214 1497.15 Q105.043 1500.7 108.654 1500.7 Q112.288 1500.7 114.094 1497.15 Q115.922 1493.59 115.922 1486.48 Q115.922 1479.35 114.094 1475.81 Q112.288 1472.25 108.654 1472.25 M108.654 1468.54 Q114.464 1468.54 117.52 1473.15 Q120.598 1477.73 120.598 1486.48 Q120.598 1495.21 117.52 1499.82 Q114.464 1504.4 108.654 1504.4 Q102.844 1504.4 99.765 1499.82 Q96.7095 1495.21 96.7095 1486.48 Q96.7095 1477.73 99.765 1473.15 Q102.844 1468.54 108.654 1468.54 Z" fill="#000000" fill-rule="evenodd" fill-opacity="1" /><path clip-path="url(#clip440)" d="M65.0198 1184.41 Q61.4087 1184.41 59.58 1187.97 Q57.7745 1191.51 57.7745 1198.64 Q57.7745 1205.75 59.58 1209.31 Q61.4087 1212.85 65.0198 1212.85 Q68.6541 1212.85 70.4596 1209.31 Q72.2883 1205.75 72.2883 1198.64 Q72.2883 1191.51 70.4596 1187.97 Q68.6541 1184.41 65.0198 1184.41 M65.0198 1180.7 Q70.83 1180.7 73.8855 1185.31 Q76.9642 1189.89 76.9642 1198.64 Q76.9642 1207.37 73.8855 1211.98 Q70.83 1216.56 65.0198 1216.56 Q59.2097 1216.56 56.131 1211.98 Q53.0754 1207.37 53.0754 1198.64 Q53.0754 1189.89 56.131 1185.31 Q59.2097 1180.7 65.0198 1180.7 Z" fill="#000000" fill-rule="evenodd" fill-opacity="1" /><path clip-path="url(#clip440)" d="M85.1818 1210.01 L90.066 1210.01 L90.066 1215.89 L85.1818 1215.89 L85.1818 1210.01 Z" fill="#000000" fill-rule="evenodd" fill-opacity="1" /><path clip-path="url(#clip440)" d="M104.279 1211.95 L120.598 1211.95 L120.598 1215.89 L98.6539 1215.89 L98.6539 1211.95 Q101.316 1209.2 105.899 1204.57 Q110.506 1199.91 111.686 1198.57 Q113.932 1196.05 114.811 1194.31 Q115.714 1192.55 115.714 1190.86 Q115.714 1188.11 113.77 1186.37 Q111.848 1184.64 108.746 1184.64 Q106.547 1184.64 104.094 1185.4 Q101.663 1186.17 98.8854 1187.72 L98.8854 1182.99 Q101.709 1181.86 104.163 1181.28 Q106.617 1180.7 108.654 1180.7 Q114.024 1180.7 117.219 1183.39 Q120.413 1186.07 120.413 1190.56 Q120.413 1192.69 119.603 1194.61 Q118.816 1196.51 116.709 1199.1 Q116.131 1199.78 113.029 1202.99 Q109.927 1206.19 104.279 1211.95 Z" fill="#000000" fill-rule="evenodd" fill-opacity="1" /><path clip-path="url(#clip440)" d="M62.9365 896.565 Q59.3254 896.565 57.4967 900.13 Q55.6912 903.671 55.6912 910.801 Q55.6912 917.908 57.4967 921.472 Q59.3254 925.014 62.9365 925.014 Q66.5707 925.014 68.3763 921.472 Q70.205 917.908 70.205 910.801 Q70.205 903.671 68.3763 900.13 Q66.5707 896.565 62.9365 896.565 M62.9365 892.861 Q68.7467 892.861 71.8022 897.468 Q74.8809 902.051 74.8809 910.801 Q74.8809 919.528 71.8022 924.134 Q68.7467 928.718 62.9365 928.718 Q57.1264 928.718 54.0477 924.134 Q50.9921 919.528 50.9921 910.801 Q50.9921 902.051 54.0477 897.468 Q57.1264 892.861 62.9365 892.861 Z" fill="#000000" fill-rule="evenodd" fill-opacity="1" /><path clip-path="url(#clip440)" d="M83.0984 922.167 L87.9827 922.167 L87.9827 928.046 L83.0984 928.046 L83.0984 922.167 Z" fill="#000000" fill-rule="evenodd" fill-opacity="1" /><path clip-path="url(#clip440)" d="M111.015 897.56 L99.2095 916.009 L111.015 916.009 L111.015 897.56 M109.788 893.486 L115.668 893.486 L115.668 916.009 L120.598 916.009 L120.598 919.898 L115.668 919.898 L115.668 928.046 L111.015 928.046 L111.015 919.898 L95.4132 919.898 L95.4132 915.384 L109.788 893.486 Z" fill="#000000" fill-rule="evenodd" fill-opacity="1" /><path clip-path="url(#clip440)" d="M63.2606 608.724 Q59.6495 608.724 57.8208 612.289 Q56.0152 615.831 56.0152 622.96 Q56.0152 630.067 57.8208 633.632 Q59.6495 637.173 63.2606 637.173 Q66.8948 637.173 68.7004 633.632 Q70.5291 630.067 70.5291 622.96 Q70.5291 615.831 68.7004 612.289 Q66.8948 608.724 63.2606 608.724 M63.2606 605.021 Q69.0707 605.021 72.1263 609.627 Q75.205 614.21 75.205 622.96 Q75.205 631.687 72.1263 636.294 Q69.0707 640.877 63.2606 640.877 Q57.4504 640.877 54.3717 636.294 Q51.3162 631.687 51.3162 622.96 Q51.3162 614.21 54.3717 609.627 Q57.4504 605.021 63.2606 605.021 Z" fill="#000000" fill-rule="evenodd" fill-opacity="1" /><path clip-path="url(#clip440)" d="M83.4225 634.326 L88.3067 634.326 L88.3067 640.206 L83.4225 640.206 L83.4225 634.326 Z" fill="#000000" fill-rule="evenodd" fill-opacity="1" /><path clip-path="url(#clip440)" d="M109.071 621.062 Q105.922 621.062 104.071 623.215 Q102.242 625.368 102.242 629.118 Q102.242 632.845 104.071 635.02 Q105.922 637.173 109.071 637.173 Q112.219 637.173 114.047 635.02 Q115.899 632.845 115.899 629.118 Q115.899 625.368 114.047 623.215 Q112.219 621.062 109.071 621.062 M118.353 606.409 L118.353 610.669 Q116.594 609.835 114.788 609.396 Q113.006 608.956 111.246 608.956 Q106.617 608.956 104.163 612.081 Q101.733 615.206 101.385 621.525 Q102.751 619.511 104.811 618.446 Q106.871 617.359 109.348 617.359 Q114.557 617.359 117.566 620.53 Q120.598 623.678 120.598 629.118 Q120.598 634.442 117.45 637.659 Q114.302 640.877 109.071 640.877 Q103.075 640.877 99.9039 636.294 Q96.7326 631.687 96.7326 622.96 Q96.7326 614.766 100.621 609.905 Q104.51 605.021 111.061 605.021 Q112.82 605.021 114.603 605.368 Q116.408 605.715 118.353 606.409 Z" fill="#000000" fill-rule="evenodd" fill-opacity="1" /><path clip-path="url(#clip440)" d="M63.5152 320.884 Q59.9041 320.884 58.0754 324.448 Q56.2699 327.99 56.2699 335.12 Q56.2699 342.226 58.0754 345.791 Q59.9041 349.332 63.5152 349.332 Q67.1494 349.332 68.955 345.791 Q70.7837 342.226 70.7837 335.12 Q70.7837 327.99 68.955 324.448 Q67.1494 320.884 63.5152 320.884 M63.5152 317.18 Q69.3254 317.18 72.3809 321.786 Q75.4596 326.37 75.4596 335.12 Q75.4596 343.846 72.3809 348.453 Q69.3254 353.036 63.5152 353.036 Q57.7051 353.036 54.6264 348.453 Q51.5708 343.846 51.5708 335.12 Q51.5708 326.37 54.6264 321.786 Q57.7051 317.18 63.5152 317.18 Z" fill="#000000" fill-rule="evenodd" fill-opacity="1" /><path clip-path="url(#clip440)" d="M83.6771 346.485 L88.5614 346.485 L88.5614 352.365 L83.6771 352.365 L83.6771 346.485 Z" fill="#000000" fill-rule="evenodd" fill-opacity="1" /><path clip-path="url(#clip440)" d="M108.746 335.953 Q105.413 335.953 103.492 337.735 Q101.594 339.518 101.594 342.643 Q101.594 345.768 103.492 347.55 Q105.413 349.332 108.746 349.332 Q112.08 349.332 114.001 347.55 Q115.922 345.745 115.922 342.643 Q115.922 339.518 114.001 337.735 Q112.103 335.953 108.746 335.953 M104.071 333.962 Q101.061 333.221 99.3715 331.161 Q97.7048 329.101 97.7048 326.138 Q97.7048 321.995 100.645 319.587 Q103.608 317.18 108.746 317.18 Q113.908 317.18 116.848 319.587 Q119.788 321.995 119.788 326.138 Q119.788 329.101 118.098 331.161 Q116.432 333.221 113.445 333.962 Q116.825 334.749 118.7 337.041 Q120.598 339.333 120.598 342.643 Q120.598 347.666 117.52 350.351 Q114.464 353.036 108.746 353.036 Q103.029 353.036 99.9502 350.351 Q96.8947 347.666 96.8947 342.643 Q96.8947 339.333 98.7928 337.041 Q100.691 334.749 104.071 333.962 M102.358 326.578 Q102.358 329.263 104.024 330.768 Q105.714 332.272 108.746 332.272 Q111.756 332.272 113.445 330.768 Q115.158 329.263 115.158 326.578 Q115.158 323.893 113.445 322.388 Q111.756 320.884 108.746 320.884 Q105.714 320.884 104.024 322.388 Q102.358 323.893 102.358 326.578 Z" fill="#000000" fill-rule="evenodd" fill-opacity="1" /><path clip-path="url(#clip440)" d="M54.2328 60.5889 L61.8717 60.5889 L61.8717 34.2233 L53.5616 35.89 L53.5616 31.6308 L61.8254 29.9641 L66.5013 29.9641 L66.5013 60.5889 L74.1402 60.5889 L74.1402 64.5241 L54.2328 64.5241 L54.2328 60.5889 Z" fill="#000000" fill-rule="evenodd" fill-opacity="1" /><path clip-path="url(#clip440)" d="M83.5845 58.6445 L88.4688 58.6445 L88.4688 64.5241 L83.5845 64.5241 L83.5845 58.6445 Z" fill="#000000" fill-rule="evenodd" fill-opacity="1" /><path clip-path="url(#clip440)" d="M108.654 33.0428 Q105.043 33.0428 103.214 36.6076 Q101.409 40.1492 101.409 47.2788 Q101.409 54.3853 103.214 57.9501 Q105.043 61.4917 108.654 61.4917 Q112.288 61.4917 114.094 57.9501 Q115.922 54.3853 115.922 47.2788 Q115.922 40.1492 114.094 36.6076 Q112.288 33.0428 108.654 33.0428 M108.654 29.3391 Q114.464 29.3391 117.52 33.9456 Q120.598 38.5289 120.598 47.2788 Q120.598 56.0056 117.52 60.6121 Q114.464 65.1954 108.654 65.1954 Q102.844 65.1954 99.765 60.6121 Q96.7095 56.0056 96.7095 47.2788 Q96.7095 38.5289 99.765 33.9456 Q102.844 29.3391 108.654 29.3391 Z" fill="#000000" fill-rule="evenodd" fill-opacity="1" /><polyline clip-path="url(#clip442)" style="stroke:#009af9; stroke-linecap:round; stroke-linejoin:round; stroke-width:4; stroke-opacity:1; fill:none" points="218.754,47.2441 220.44,48.4018 222.126,51.87 223.812,57.6341 225.498,65.6695 227.184,75.9422 228.87,88.4088 230.556,103.016 232.242,119.703 234.191,141.487 236.14,165.831 238.089,192.597 240.038,221.635 241.987,252.78 243.935,285.857 245.884,320.681 247.833,357.055 249.782,394.775 251.731,433.631 253.679,473.404 255.628,513.872 259.526,595.992 263.423,678.167 265.372,718.708 267.321,758.587 269.27,797.584 271.219,835.488 273.168,872.093 275.116,907.201 277.065,940.625 279.014,972.187 280.963,1001.72 282.912,1029.07 284.86,1054.1 286.809,1076.68 288.758,1096.7 290.707,1114.07 291.681,1121.72 292.656,1128.69 293.63,1134.96 294.604,1140.51 295.579,1145.36 296.553,1149.49 297.528,1152.9 298.502,1155.58 299.476,1157.54 300.451,1158.78 301.425,1159.3 302.4,1159.09 303.374,1158.17 304.349,1156.53 305.323,1154.19 306.297,1151.14 308.246,1142.98 310.195,1132.1 312.144,1118.6 314.093,1102.58 316.041,1084.16 317.99,1063.46 319.939,1040.63 321.888,1015.82 323.837,989.189 325.785,960.924 327.734,931.207 329.683,900.228 331.632,868.187 333.581,835.289 337.478,767.76 341.376,699.338 345.274,631.729 349.171,566.601 351.12,535.469 353.069,505.547 355.018,477.016 356.966,450.048 358.138,434.661 359.309,419.93 360.48,405.887 361.651,392.561 362.822,379.981 363.993,368.174 365.165,357.164 366.336,346.974 367.507,337.624 368.678,329.136 369.849,321.524 371.02,314.805 372.191,308.992 373.363,304.095 374.534,300.123 375.705,297.084 376.876,294.982 378.047,293.819 379.218,293.597 380.39,294.313 381.561,295.964 382.732,298.544 383.903,302.045 385.074,306.457 386.245,311.767 387.416,317.963 388.588,325.028 389.759,332.943 390.93,341.69 392.101,351.247 393.272,361.589 394.443,372.692 396.786,397.071 399.128,424.15 401.47,453.671 403.813,485.354 406.155,518.903 408.497,554.002 410.84,590.324 413.182,627.532 417.866,703.222 422.551,778.284 424.893,814.713 427.236,849.961 429.578,883.703 431.92,915.632 433.901,940.996 435.881,964.688 437.861,986.555 439.842,1006.45 441.822,1024.25 443.803,1039.84 445.783,1053.11 447.763,1063.98 449.744,1072.38 451.724,1078.24 453.705,1081.55 455.685,1082.26 457.665,1080.38 459.646,1075.92 461.626,1068.91 463.607,1059.39 465.587,1047.43 467.567,1033.09 469.548,1016.48 471.528,997.689 473.509,976.853 475.489,954.099 477.469,929.575 479.45,903.437 481.43,875.855 483.411,847.004 485.391,817.07 487.371,786.246 491.332,722.722 495.293,658.062 499.595,588.466 503.898,521.59 506.049,489.809 508.2,459.456 510.352,430.762 512.503,403.944 514.654,379.205 516.805,356.733 518.957,336.698 521.108,319.253 522.184,311.544 523.259,304.531 524.335,298.226 525.411,292.642 526.486,287.79 527.562,283.678 528.637,280.315 529.713,277.707 530.789,275.86 531.864,274.776 532.94,274.458 534.016,274.907 535.091,276.122 536.167,278.101 537.242,280.839 538.318,284.333 539.394,288.576 540.469,293.559 541.545,299.274 542.621,305.709 544.772,320.694 546.923,338.399 549.074,358.694 551.226,381.426 553.377,406.424 555.528,433.501 557.679,462.454 559.831,493.064 561.982,525.102 564.133,558.326 568.1,621.853 572.066,686.939 576.033,751.918 579.999,815.132 581.983,845.567 583.966,874.961 585.949,903.124 587.933,929.876 589.916,955.045 591.899,978.469 593.882,999.999 595.866,1019.5 597.849,1036.83 599.832,1051.9 601.815,1064.6 603.799,1074.85 605.782,1082.59 607.765,1087.76 609.749,1090.32 611.732,1090.28 613.715,1087.61 615.698,1082.34 617.682,1074.5 619.665,1064.15 621.648,1051.34 623.631,1036.15 625.615,1018.69 627.598,999.063 629.724,975.757 631.851,950.275 633.977,922.805 636.103,893.548 638.229,862.717 640.356,830.54 642.482,797.253 644.608,763.1 648.861,693.205 653.113,622.909 655.24,588.258 657.366,554.279 659.492,521.225 661.618,489.338 663.745,458.855 665.871,430.001 667.997,402.991 670.124,378.024 672.25,355.286 674.376,334.947 676.502,317.158 678.629,302.053 679.692,295.543 680.755,289.746 681.818,284.671 682.881,280.33 683.944,276.729 685.007,273.877 686.071,271.778 687.134,270.437 688.197,269.857 689.26,270.04 690.323,270.985 691.386,272.691 693.513,278.374 695.639,287.051 696.871,293.425 698.102,300.767 699.334,309.063 700.566,318.29 701.798,328.428 703.029,339.452 704.261,351.335 705.493,364.049 707.956,391.843 710.42,422.566 712.883,455.919 715.347,491.576 717.81,529.191 720.274,568.395 722.737,608.806 725.201,650.027 730.128,733.278 735.055,814.882 737.518,854.058 739.982,891.63 742.445,927.226 744.909,960.493 747.372,991.1 749.836,1018.74 751.068,1031.36 752.299,1043.14 753.531,1054.05 754.763,1064.05 755.995,1073.14 757.226,1081.27 758.458,1088.43 759.69,1094.61 760.922,1099.78 762.153,1103.94 763.385,1107.06 764.617,1109.15 765.849,1110.2 767.08,1110.2 768.312,1109.15 769.544,1107.06 770.776,1103.92 772.007,1099.75 773.239,1094.55 774.471,1088.34 775.566,1081.97 776.66,1074.83 777.755,1066.93 778.849,1058.27 781.039,1038.77 783.228,1016.48 785.417,991.559 787.607,964.201 789.796,934.611 791.985,903.012 794.174,869.644 796.364,834.76 798.553,798.626 800.742,761.517 805.121,685.514 809.499,609.072 811.688,571.418 813.878,534.53 816.067,498.691 818.256,464.177 820.446,431.255 822.635,400.178 824.824,371.188 827.013,344.508 829.203,320.347 831.392,298.893 833.581,280.312 835.77,264.752 836.865,258.143 837.96,252.334 839.054,247.335 840.149,243.158 841.244,239.81 842.338,237.298 843.433,235.627 844.528,234.802 846.447,235.401 848.367,238.605 850.287,244.397 852.207,252.746 854.126,263.605 856.046,276.912 857.966,292.593 859.886,310.556 861.806,330.698 863.725,352.903 865.645,377.041 867.565,402.973 869.485,430.548 871.405,459.605 873.324,489.973 875.244,521.476 879.084,587.141 882.923,655.062 886.763,723.643 890.603,791.271 892.522,824.228 894.442,856.352 896.362,887.453 898.282,917.347 900.201,945.857 902.121,972.812 904.041,998.053 905.961,1021.43 907.007,1033.33 908.054,1044.62 909.1,1055.28 910.147,1065.27 912.24,1083.22 914.333,1098.35 916.426,1110.54 918.519,1119.7 919.566,1123.12 920.612,1125.77 921.659,1127.63 922.706,1128.7 923.752,1128.98 924.799,1128.47 925.845,1127.16 926.892,1125.06 928.985,1118.51 931.078,1108.85 932.124,1102.88 933.171,1096.15 934.218,1088.68 935.264,1080.48 937.357,1061.96 939.45,1040.7 941.543,1016.85 943.636,990.581 945.73,962.06 947.823,931.486 949.916,899.067 952.009,865.026 954.102,829.596 956.195,793.021 960.381,717.447 964.567,640.382 968.754,563.951 972.94,490.262 975.045,454.882 977.151,420.962 979.256,388.738 981.362,358.438 983.467,330.275 985.573,304.446 987.678,281.134 989.784,260.503 991.889,242.698 993.995,227.846 995.048,221.56 996.1,216.051 997.153,211.328 998.206,207.398 999.259,204.271 1000.31,201.95 1001.36,200.44 1002.42,199.744 1003.47,199.864 1004.52,200.799 1005.58,202.548 1006.63,205.108 1007.68,208.475 1008.73,212.643 1009.79,217.605 1010.84,223.353 1012.94,237.163 1015.05,253.979 1017.16,273.684 1019.26,296.142 1021.37,321.196 1023.47,348.672 1025.58,378.38 1027.68,410.112 1029.79,443.648 1031.89,478.753 1034,515.183 1036.11,552.684 1038.21,590.993 1040.32,629.845 1044.97,716.324 1049.63,801.177 1051.96,842.085 1054.28,881.513 1056.61,919.123 1058.94,954.596 1060.1,971.435 1061.27,987.627 1062.43,1003.14 1063.6,1017.94 1064.76,1031.99 1065.92,1045.26 1067.09,1057.73 1068.25,1069.38 1069.42,1080.16 1070.58,1090.07 1071.74,1099.08 1072.91,1107.17 1074.07,1114.32 1075.24,1120.52 1076.4,1125.76 1077.56,1130.02 1078.73,1133.3 1079.89,1135.59 1081.06,1136.88 1082.22,1137.17 1083.38,1136.47 1084.55,1134.76 1085.71,1132.07 1086.88,1128.38 1088.04,1123.71 1089.2,1118.08 1090.37,1111.48 1091.53,1103.95 1092.7,1095.48 1093.86,1086.11 1095.02,1075.85 1096.19,1064.72 1097.35,1052.75 1098.51,1039.96 1099.68,1026.38 1100.84,1012.05 1102.01,996.977 1103.17,981.211 1104.33,964.782 1105.5,947.724 1107.83,911.871 1110.15,873.959 1112.48,834.313 1114.81,793.272 1119.24,712.589 1123.67,630.628 1128.1,549.919 1132.53,472.952 1133.64,454.577 1134.75,436.62 1135.85,419.117 1136.96,402.1 1139.18,369.657 1141.39,339.542 1143.6,311.985 1145.82,287.198 1146.93,275.904 1148.03,265.372 1149.14,255.622 1150.25,246.672 1151.36,238.541 1152.46,231.242 1153.57,224.791 1154.68,219.199 1155.79,214.477 1156.89,210.633 1158,207.675 1159.11,205.607 1160.22,204.435 1161.32,204.159 1162.43,204.78 1163.54,206.297 1164.65,208.705 1165.75,212 1166.86,216.175 1167.97,221.223 1169.08,227.132 1170.18,233.89 1171.29,241.485 1172.4,249.902 1174.61,269.13 1176.83,291.425 1179.04,316.609 1181.26,344.487 1183.47,374.84 1185.69,407.429 1187.99,443.415 1190.3,481.241 1192.6,520.59 1194.9,561.13 1199.51,644.42 1204.11,728.323 1206.42,769.628 1208.72,810.041 1211.02,849.225 1213.33,886.854 1215.63,922.617 1217.93,956.216 1220.24,987.374 1222.54,1015.84 1223.69,1028.98 1224.84,1041.37 1225.99,1052.96 1227.14,1063.76 1228.3,1073.72 1229.45,1082.82 1230.6,1091.06 1231.75,1098.42 1232.9,1104.87 1234.05,1110.41 1235.2,1115.03 1236.36,1118.72 1237.51,1121.46 1238.66,1123.26 1239.81,1124.12 1240.96,1124.03 1242.11,1122.99 1243.27,1121.01 1244.42,1118.09 1245.57,1114.23 1246.72,1109.46 1247.87,1103.78 1249.02,1097.2 1250.17,1089.73 1251.33,1081.4 1252.48,1072.22 1253.63,1062.22 1254.78,1051.41 1255.93,1039.82 1257.08,1027.47 1258.24,1014.39 1259.39,1000.61 1261.33,975.918 1263.26,949.474 1265.2,921.443 1267.14,891.996 1269.08,861.312 1271.02,829.579 1272.96,796.99 1274.9,763.741 1278.77,696.073 1282.65,628.21 1286.53,561.784 1290.41,498.39 1292.34,468.307 1294.28,439.544 1296.22,412.271 1298.16,386.652 1300.1,362.837 1302.04,340.969 1303.98,321.176 1305.92,303.576 1307.85,288.271 1309.79,275.35 1311.73,264.889 1313.67,256.947 1315.61,251.569 1317.55,248.783 1319.49,248.603 1321.42,251.026 1322.61,253.778 1323.79,257.487 1324.98,262.142 1326.16,267.735 1327.34,274.249 1328.53,281.672 1329.71,289.984 1330.89,299.166 1332.08,309.198 1333.26,320.055 1334.44,331.712 1335.63,344.143 1336.81,357.319 1337.99,371.21 1339.18,385.783 1340.36,401.005 1342.73,433.257 1345.09,467.67 1347.46,503.93 1349.83,541.707 1354.56,620.432 1359.3,700.997 1361.66,741.062 1364.03,780.499 1366.4,818.953 1368.76,856.08 1371.13,891.547 1373.5,925.035 1375.86,956.247 1378.23,984.905 1379.41,998.195 1380.6,1010.75 1381.78,1022.55 1382.96,1033.57 1384.15,1043.77 1385.33,1053.14 1386.51,1061.66 1387.7,1069.3 1388.88,1076.06 1390.07,1081.92 1391.25,1086.87 1392.43,1090.88 1393.62,1093.97 1394.8,1096.12 1395.98,1097.32 1397.17,1097.58 1398.25,1096.99 1399.33,1095.6 1400.42,1093.43 1401.5,1090.48 1403.67,1082.25 1405.84,1070.99 1408.01,1056.79 1410.18,1039.76 1411.26,1030.22 1412.34,1020.03 1413.43,1009.2 1414.51,997.765 1416.68,973.137 1418.85,946.338 1421.02,917.577 1423.18,887.079 1425.35,855.081 1427.52,821.83 1429.69,787.585 1431.86,752.61 1436.19,681.554 1440.53,610.851 1442.7,576.313 1444.87,542.673 1447.04,510.19 1449.2,479.114 1451.37,449.681 1453.54,422.119 1455.71,396.638 1457.88,373.434 1460.04,352.682 1462.21,334.543 1463.3,326.497 1464.38,319.154 1465.47,312.528 1466.55,306.631 1468.55,297.695 1470.55,291.344 1472.56,287.617 1474.56,286.538 1476.56,288.114 1478.56,292.332 1480.57,299.164 1482.57,308.564 1484.57,320.47 1486.57,334.801 1488.58,351.463 1490.58,370.346 1492.58,391.325 1494.58,414.26 1496.59,439.001 1498.59,465.385 1500.59,493.236 1502.59,522.373 1504.6,552.601 1506.6,583.723 1510.61,647.82 1514.61,712.977 1518.62,777.477 1522.62,839.623 1524.62,869.296 1526.63,897.774 1528.63,924.868 1530.63,950.397 1532.66,974.491 1534.69,996.643 1536.72,1016.7 1538.74,1034.53 1540.77,1050.01 1542.8,1063.03 1544.83,1073.5 1546.86,1081.36 1548.89,1086.53 1550.92,1089 1552.94,1088.73 1554.97,1085.73 1557,1080.02 1559.03,1071.63 1561.06,1060.62 1563.09,1047.05 1565.12,1031.02 1567.14,1012.64 1569.17,992.014 1571.2,969.29 1573.23,944.618 1575.26,918.161 1577.29,890.094 1579.31,860.606 1583.37,798.158 1587.43,732.484 1591.49,665.339 1595.54,598.523 1597.82,561.895 1600.09,526.245 1602.36,491.874 1604.64,459.072 1606.91,428.12 1609.18,399.279 1611.46,372.797 1613.73,348.899 1616,327.791 1618.28,309.655 1619.41,301.751 1620.55,294.647 1621.69,288.359 1622.82,282.899 1623.96,278.281 1625.1,274.515 1626.23,271.609 1627.37,269.57 1628.51,268.403 1629.64,268.111 1630.78,268.696 1631.92,270.157 1633.05,272.492 1634.19,275.695 1635.33,279.763 1636.46,284.685 1637.6,290.454 1638.74,297.057 1639.87,304.482 1641.01,312.712 1643.28,331.525 1645.56,353.341 1646.69,365.322 1647.83,377.984 1648.97,391.303 1650.1,405.251 1652.38,434.918 1654.65,466.739 1656.92,500.451 1659.2,535.774 1663.74,610.068 1668.29,687.147 1672.41,757.244 1676.53,825.584 1678.59,858.501 1680.65,890.275 1682.71,920.687 1684.77,949.522 1686.83,976.581 1688.89,1001.67 1690.95,1024.62 1693.01,1045.26 1695.07,1063.44 1697.13,1079.04 1698.16,1085.84 1699.19,1091.95 1700.22,1097.35 1701.25,1102.05 1702.28,1106.04 1703.31,1109.29 1704.34,1111.82 1705.37,1113.61 1706.4,1114.65 1707.43,1114.96 1708.46,1114.51 1709.49,1113.33 1710.52,1111.4 1711.55,1108.72 1712.58,1105.31 1713.61,1101.16 1714.64,1096.29 1715.67,1090.69 1716.7,1084.39 1717.73,1077.38 1719.79,1061.31 1721.85,1042.57 1723.91,1021.3 1725.97,997.621 1728.03,971.698 1730.09,943.698 1732.15,913.804 1734.21,882.215 1736.57,844.236 1738.93,804.64 1741.29,763.772 1743.65,721.991 1748.36,637.16 1753.08,553.127 1755.44,512.339 1757.8,472.854 1760.16,435.024 1762.52,399.184 1763.7,382.111 1764.87,365.654 1766.05,349.85 1767.23,334.735 1768.41,320.341 1769.59,306.702 1770.77,293.848 1771.95,281.808 1773.13,270.61 1774.31,260.279 1775.49,250.838 1776.67,242.309 1777.85,234.712 1779.03,228.063 1780.21,222.379 1781.39,217.674 1782.56,213.957 1783.74,211.238 1784.92,209.524 1786.1,208.819 1787.28,209.127 1788.46,210.446 1789.64,212.776 1790.82,216.111 1792,220.445 1793.18,225.77 1794.36,232.074 1795.54,239.345 1796.72,247.567 1797.9,256.724 1799.07,266.794 1800.25,277.758 1801.43,289.591 1802.61,302.269 1803.79,315.764 1804.97,330.048 1806.15,345.088 1807.33,360.854 1808.51,377.31 1809.69,394.421 1811.87,427.712 1814.06,462.873 1816.24,499.642 1818.42,537.745 1822.79,616.803 1827.16,697.681 1831.53,777.95 1835.9,855.197 1838.08,891.955 1840.26,927.093 1842.45,960.348 1844.63,991.465 1845.72,1006.15 1846.81,1020.21 1847.91,1033.62 1849,1046.36 1851.18,1069.72 1853.37,1090.11 1854.46,1099.14 1855.55,1107.37 1856.64,1114.78 1857.73,1121.37 1858.83,1127.11 1859.92,1132 1861.01,1136.02 1862.1,1139.18 1863.19,1141.45 1864.29,1142.84 1865.38,1143.34 1866.47,1142.96 1867.56,1141.69 1868.65,1139.53 1869.75,1136.5 1870.84,1132.58 1871.93,1127.8 1873.02,1122.15 1874.11,1115.65 1875.2,1108.31 1876.3,1100.15 1877.39,1091.17 1878.48,1081.4 1879.57,1070.85 1881.73,1047.85 1883.88,1022.06 1886.03,993.678 1888.18,962.9 1890.34,929.948 1892.49,895.06 1894.64,858.487 1896.8,820.491 1901.1,741.34 1905.41,659.889 1909.72,578.487 1914.02,499.487 1916.17,461.605 1918.33,425.171 1920.48,390.447 1922.63,357.685 1924.79,327.123 1926.94,298.981 1929.09,273.462 1931.25,250.753 1932.32,240.504 1933.4,231.016 1934.48,222.308 1935.55,214.395 1936.63,207.29 1937.7,201.008 1938.78,195.559 1939.86,190.953 1940.93,187.199 1942.01,184.302 1943.09,182.269 1944.16,181.102 1945.24,180.804 1946.32,181.376 1947.39,182.815 1948.47,185.12 1949.52,188.182 1950.56,192.05 1951.61,196.718 1952.65,202.178 1954.74,215.433 1956.83,231.723 1958.92,250.938 1961.01,272.944 1962.06,284.947 1963.1,297.59 1964.15,310.851 1965.19,324.708 1967.28,354.11 1969.37,385.596 1971.46,418.951 1973.55,453.944 1975.65,490.337 1977.74,527.882 1979.83,566.321 1981.92,605.392 1986.1,684.361 1990.28,762.639 1992.37,800.852 1994.46,838.099 1996.55,874.128 1998.64,908.695 2000.73,941.566 2002.82,972.519 2004.91,1001.34 2007,1027.85 2009.09,1051.86 2011.18,1073.21 2013.27,1091.76 2015.36,1107.38 2016.43,1114.23 2017.51,1120.26 2018.58,1125.48 2019.65,1129.88 2020.72,1133.44 2021.79,1136.16 2022.86,1138.04 2023.94,1139.08 2025.01,1139.27 2026.08,1138.61 2027.15,1137.11 2028.22,1134.77 2029.29,1131.6 2030.36,1127.59 2031.44,1122.77 2032.51,1117.13 2034.65,1103.47 2036.79,1086.72 2037.86,1077.22 2038.94,1066.99 2040.01,1056.06 2041.08,1044.45 2043.22,1019.26 2045.36,991.601 2047.51,961.687 2049.65,929.736 2051.79,895.985 2053.94,860.681 2056.08,824.083 2058.22,786.461 2062.51,709.248 2066.79,631.291 2068.94,592.743 2071.08,554.855 2073.22,517.902 2075.37,482.151 2077.51,447.861 2079.65,415.277 2081.8,384.635 2083.94,356.153 2085.11,341.54 2086.29,327.668 2087.46,314.567 2088.63,302.264 2089.81,290.786 2090.98,280.156 2092.16,270.398 2093.33,261.531 2094.5,253.574 2095.68,246.544 2096.85,240.454 2098.03,235.318 2099.2,231.145 2100.37,227.944 2101.55,225.721 2102.72,224.479 2103.89,224.22 2105.07,224.944 2106.24,226.647 2107.42,229.326 2108.59,232.973 2109.76,237.579 2110.94,243.133 2112.11,249.622 2113.29,257.031 2114.46,265.341 2115.63,274.535 2116.81,284.591 2117.98,295.486 2119.16,307.195 2120.33,319.692 2121.5,332.948 2123.85,361.616 2126.2,392.941 2128.55,426.644 2130.9,462.423 2133.24,499.96 2135.59,538.921 2137.94,578.961 2140.29,619.726 2144.98,701.993 2149.68,782.837 2152.03,821.839 2154.37,859.437 2156.72,895.305 2159.07,929.134 2160.77,952.258 2162.48,974.048 2164.19,994.403 2165.89,1013.23 2167.6,1030.45 2169.3,1045.99 2171.01,1059.77 2172.71,1071.74 2174.42,1081.84 2176.12,1090.03 2177.83,1096.28 2179.53,1100.56 2181.24,1102.86 2182.94,1103.17 2184.65,1101.49 2186.35,1097.85 2188.06,1092.25 2189.77,1084.73 2191.47,1075.34 2193.18,1064.11 2194.88,1051.12 2196.59,1036.41 2198.29,1020.07 2200,1002.18 2201.7,982.824 2203.41,962.099 2205.11,940.107 2206.82,916.954 2208.52,892.753 2210.23,867.621 2211.93,841.68 2213.64,815.054 2220.46,704.307 2227.28,593.155 2228.99,566.301 2230.69,540.078 2232.4,514.611 2234.1,490.02 2235.81,466.423 2237.51,443.93 2239.22,422.647 2240.92,402.674 2242.63,384.106 2244.34,367.028 2246.04,351.521 2247.75,337.656 2249.45,325.499 2251.16,315.105 2252.86,306.522 2254.57,299.789 2256.27,294.935 2257.98,291.982 2259.68,290.942 2261.39,291.818 2263.09,294.603 2264.8,299.282 2266.5,305.832 2268.21,314.217 2269.61,322.441 2271.01,331.847 2272.41,342.401 2273.81,354.071 2275.21,366.817 2276.61,380.597 2278.01,395.367 2279.41,411.077 2282.2,445.111 2285,482.254 2287.8,522.024 2290.6,563.903 "/>
<polyline clip-path="url(#clip442)" style="stroke:#e26f46; stroke-linecap:round; stroke-linejoin:round; stroke-width:4; stroke-opacity:1; fill:none" points="-2039.56,728.972 4548.91,728.972 "/>
<path clip-path="url(#clip440)" d="M2007.5 1438.47 L2279.55 1438.47 L2279.55 1282.95 L2007.5 1282.95  Z" fill="#ffffff" fill-rule="evenodd" fill-opacity="1"/>
<polyline clip-path="url(#clip440)" style="stroke:#000000; stroke-linecap:round; stroke-linejoin:round; stroke-width:4; stroke-opacity:1; fill:none" points="2007.5,1438.47 2279.55,1438.47 2279.55,1282.95 2007.5,1282.95 2007.5,1438.47 "/>
<polyline clip-path="url(#clip440)" style="stroke:#009af9; stroke-linecap:round; stroke-linejoin:round; stroke-width:4; stroke-opacity:1; fill:none" points="2031.91,1334.79 2178.32,1334.79 "/>
<path clip-path="url(#clip440)" d="M2216.56 1354.48 Q2214.76 1359.11 2213.04 1360.52 Q2211.33 1361.94 2208.46 1361.94 L2205.06 1361.94 L2205.06 1358.37 L2207.56 1358.37 Q2209.32 1358.37 2210.29 1357.54 Q2211.26 1356.7 2212.44 1353.6 L2213.2 1351.66 L2202.72 1326.15 L2207.23 1326.15 L2215.33 1346.43 L2223.44 1326.15 L2227.95 1326.15 L2216.56 1354.48 Z" fill="#000000" fill-rule="evenodd" fill-opacity="1" /><path clip-path="url(#clip440)" d="M2235.24 1348.14 L2242.88 1348.14 L2242.88 1321.77 L2234.57 1323.44 L2234.57 1319.18 L2242.83 1317.51 L2247.51 1317.51 L2247.51 1348.14 L2255.15 1348.14 L2255.15 1352.07 L2235.24 1352.07 L2235.24 1348.14 Z" fill="#000000" fill-rule="evenodd" fill-opacity="1" /><polyline clip-path="url(#clip440)" style="stroke:#e26f46; stroke-linecap:round; stroke-linejoin:round; stroke-width:4; stroke-opacity:1; fill:none" points="2031.91,1386.63 2178.32,1386.63 "/>
<path clip-path="url(#clip440)" d="M2216.56 1406.32 Q2214.76 1410.95 2213.04 1412.36 Q2211.33 1413.78 2208.46 1413.78 L2205.06 1413.78 L2205.06 1410.21 L2207.56 1410.21 Q2209.32 1410.21 2210.29 1409.38 Q2211.26 1408.54 2212.44 1405.44 L2213.2 1403.5 L2202.72 1377.99 L2207.23 1377.99 L2215.33 1398.27 L2223.44 1377.99 L2227.95 1377.99 L2216.56 1406.32 Z" fill="#000000" fill-rule="evenodd" fill-opacity="1" /><path clip-path="url(#clip440)" d="M2238.46 1399.98 L2254.78 1399.98 L2254.78 1403.91 L2232.83 1403.91 L2232.83 1399.98 Q2235.5 1397.22 2240.08 1392.6 Q2244.69 1387.94 2245.87 1386.6 Q2248.11 1384.08 2248.99 1382.34 Q2249.89 1380.58 2249.89 1378.89 Q2249.89 1376.14 2247.95 1374.4 Q2246.03 1372.66 2242.93 1372.66 Q2240.73 1372.66 2238.27 1373.43 Q2235.84 1374.19 2233.07 1375.74 L2233.07 1371.02 Q2235.89 1369.89 2238.34 1369.31 Q2240.8 1368.73 2242.83 1368.73 Q2248.2 1368.73 2251.4 1371.41 Q2254.59 1374.1 2254.59 1378.59 Q2254.59 1380.72 2253.78 1382.64 Q2253 1384.54 2250.89 1387.13 Q2250.31 1387.8 2247.21 1391.02 Q2244.11 1394.22 2238.46 1399.98 Z" fill="#000000" fill-rule="evenodd" fill-opacity="1" /></svg>
