<?xml version="1.0" encoding="utf-8"?>
<svg xmlns="http://www.w3.org/2000/svg" xmlns:xlink="http://www.w3.org/1999/xlink" width="600" height="400" viewBox="0 0 2400 1600">
<defs>
  <clipPath id="clip700">
    <rect x="0" y="0" width="2400" height="1600"/>
  </clipPath>
</defs>
<path clip-path="url(#clip700)" d="M0 1600 L2400 1600 L2400 0 L0 0  Z" fill="#ffffff" fill-rule="evenodd" fill-opacity="1"/>
<defs>
  <clipPath id="clip701">
    <rect x="480" y="0" width="1681" height="1600"/>
  </clipPath>
</defs>
<path clip-path="url(#clip700)" d="M186.274 1486.45 L2352.76 1486.45 L2352.76 47.2441 L186.274 47.2441  Z" fill="#ffffff" fill-rule="evenodd" fill-opacity="1"/>
<defs>
  <clipPath id="clip702">
    <rect x="186" y="47" width="2167" height="1440"/>
  </clipPath>
</defs>
<polyline clip-path="url(#clip702)" style="stroke:#000000; stroke-linecap:round; stroke-linejoin:round; stroke-width:2; stroke-opacity:0.1; fill:none" points="243.494,1486.45 243.494,47.2441 "/>
<polyline clip-path="url(#clip702)" style="stroke:#000000; stroke-linecap:round; stroke-linejoin:round; stroke-width:2; stroke-opacity:0.1; fill:none" points="755.48,1486.45 755.48,47.2441 "/>
<polyline clip-path="url(#clip702)" style="stroke:#000000; stroke-linecap:round; stroke-linejoin:round; stroke-width:2; stroke-opacity:0.1; fill:none" points="1267.47,1486.45 1267.47,47.2441 "/>
<polyline clip-path="url(#clip702)" style="stroke:#000000; stroke-linecap:round; stroke-linejoin:round; stroke-width:2; stroke-opacity:0.1; fill:none" points="1779.45,1486.45 1779.45,47.2441 "/>
<polyline clip-path="url(#clip702)" style="stroke:#000000; stroke-linecap:round; stroke-linejoin:round; stroke-width:2; stroke-opacity:0.1; fill:none" points="2291.44,1486.45 2291.44,47.2441 "/>
<polyline clip-path="url(#clip700)" style="stroke:#000000; stroke-linecap:round; stroke-linejoin:round; stroke-width:4; stroke-opacity:1; fill:none" points="186.274,1486.45 2352.76,1486.45 "/>
<polyline clip-path="url(#clip700)" style="stroke:#000000; stroke-linecap:round; stroke-linejoin:round; stroke-width:4; stroke-opacity:1; fill:none" points="243.494,1486.45 243.494,1467.55 "/>
<polyline clip-path="url(#clip700)" style="stroke:#000000; stroke-linecap:round; stroke-linejoin:round; stroke-width:4; stroke-opacity:1; fill:none" points="755.48,1486.45 755.48,1467.55 "/>
<polyline clip-path="url(#clip700)" style="stroke:#000000; stroke-linecap:round; stroke-linejoin:round; stroke-width:4; stroke-opacity:1; fill:none" points="1267.47,1486.45 1267.47,1467.55 "/>
<polyline clip-path="url(#clip700)" style="stroke:#000000; stroke-linecap:round; stroke-linejoin:round; stroke-width:4; stroke-opacity:1; fill:none" points="1779.45,1486.45 1779.45,1467.55 "/>
<polyline clip-path="url(#clip700)" style="stroke:#000000; stroke-linecap:round; stroke-linejoin:round; stroke-width:4; stroke-opacity:1; fill:none" points="2291.44,1486.45 2291.44,1467.55 "/>
<path clip-path="url(#clip700)" d="M243.494 1517.37 Q239.883 1517.37 238.054 1520.93 Q236.248 1524.47 236.248 1531.6 Q236.248 1538.71 238.054 1542.27 Q239.883 1545.82 243.494 1545.82 Q247.128 1545.82 248.933 1542.27 Q250.762 1538.71 250.762 1531.6 Q250.762 1524.47 248.933 1520.93 Q247.128 1517.37 243.494 1517.37 M243.494 1513.66 Q249.304 1513.66 252.359 1518.27 Q255.438 1522.85 255.438 1531.6 Q255.438 1540.33 252.359 1544.94 Q249.304 1549.52 243.494 1549.52 Q237.683 1549.52 234.605 1544.94 Q231.549 1540.33 231.549 1531.6 Q231.549 1522.85 234.605 1518.27 Q237.683 1513.66 243.494 1513.66 Z" fill="#000000" fill-rule="evenodd" fill-opacity="1" /><path clip-path="url(#clip700)" d="M719.173 1544.91 L735.492 1544.91 L735.492 1548.85 L713.548 1548.85 L713.548 1544.91 Q716.21 1542.16 720.793 1537.53 Q725.399 1532.88 726.58 1531.53 Q728.825 1529.01 729.705 1527.27 Q730.608 1525.51 730.608 1523.82 Q730.608 1521.07 728.663 1519.33 Q726.742 1517.6 723.64 1517.6 Q721.441 1517.6 718.987 1518.36 Q716.557 1519.13 713.779 1520.68 L713.779 1515.95 Q716.603 1514.82 719.057 1514.24 Q721.511 1513.66 723.548 1513.66 Q728.918 1513.66 732.112 1516.35 Q735.307 1519.03 735.307 1523.52 Q735.307 1525.65 734.497 1527.57 Q733.71 1529.47 731.603 1532.07 Q731.024 1532.74 727.923 1535.95 Q724.821 1539.15 719.173 1544.91 Z" fill="#000000" fill-rule="evenodd" fill-opacity="1" /><path clip-path="url(#clip700)" d="M745.353 1514.29 L763.709 1514.29 L763.709 1518.22 L749.635 1518.22 L749.635 1526.7 Q750.654 1526.35 751.672 1526.19 Q752.691 1526 753.709 1526 Q759.497 1526 762.876 1529.17 Q766.256 1532.34 766.256 1537.76 Q766.256 1543.34 762.784 1546.44 Q759.311 1549.52 752.992 1549.52 Q750.816 1549.52 748.547 1549.15 Q746.302 1548.78 743.895 1548.04 L743.895 1543.34 Q745.978 1544.47 748.2 1545.03 Q750.422 1545.58 752.899 1545.58 Q756.904 1545.58 759.242 1543.48 Q761.58 1541.37 761.58 1537.76 Q761.58 1534.15 759.242 1532.04 Q756.904 1529.94 752.899 1529.94 Q751.024 1529.94 749.149 1530.35 Q747.297 1530.77 745.353 1531.65 L745.353 1514.29 Z" fill="#000000" fill-rule="evenodd" fill-opacity="1" /><path clip-path="url(#clip700)" d="M785.469 1517.37 Q781.857 1517.37 780.029 1520.93 Q778.223 1524.47 778.223 1531.6 Q778.223 1538.71 780.029 1542.27 Q781.857 1545.82 785.469 1545.82 Q789.103 1545.82 790.908 1542.27 Q792.737 1538.71 792.737 1531.6 Q792.737 1524.47 790.908 1520.93 Q789.103 1517.37 785.469 1517.37 M785.469 1513.66 Q791.279 1513.66 794.334 1518.27 Q797.413 1522.85 797.413 1531.6 Q797.413 1540.33 794.334 1544.94 Q791.279 1549.52 785.469 1549.52 Q779.658 1549.52 776.58 1544.94 Q773.524 1540.33 773.524 1531.6 Q773.524 1522.85 776.58 1518.27 Q779.658 1513.66 785.469 1513.66 Z" fill="#000000" fill-rule="evenodd" fill-opacity="1" /><path clip-path="url(#clip700)" d="M1227.09 1514.29 L1245.44 1514.29 L1245.44 1518.22 L1231.37 1518.22 L1231.37 1526.7 Q1232.39 1526.35 1233.4 1526.19 Q1234.42 1526 1235.44 1526 Q1241.23 1526 1244.61 1529.17 Q1247.99 1532.34 1247.99 1537.76 Q1247.99 1543.34 1244.52 1546.44 Q1241.04 1549.52 1234.72 1549.52 Q1232.55 1549.52 1230.28 1549.15 Q1228.03 1548.78 1225.63 1548.04 L1225.63 1543.34 Q1227.71 1544.47 1229.93 1545.03 Q1232.15 1545.58 1234.63 1545.58 Q1238.64 1545.58 1240.97 1543.48 Q1243.31 1541.37 1243.31 1537.76 Q1243.31 1534.15 1240.97 1532.04 Q1238.64 1529.94 1234.63 1529.94 Q1232.76 1529.94 1230.88 1530.35 Q1229.03 1530.77 1227.09 1531.65 L1227.09 1514.29 Z" fill="#000000" fill-rule="evenodd" fill-opacity="1" /><path clip-path="url(#clip700)" d="M1267.2 1517.37 Q1263.59 1517.37 1261.76 1520.93 Q1259.96 1524.47 1259.96 1531.6 Q1259.96 1538.71 1261.76 1542.27 Q1263.59 1545.82 1267.2 1545.82 Q1270.84 1545.82 1272.64 1542.27 Q1274.47 1538.71 1274.47 1531.6 Q1274.47 1524.47 1272.64 1520.93 Q1270.84 1517.37 1267.2 1517.37 M1267.2 1513.66 Q1273.01 1513.66 1276.07 1518.27 Q1279.15 1522.85 1279.15 1531.6 Q1279.15 1540.33 1276.07 1544.94 Q1273.01 1549.52 1267.2 1549.52 Q1261.39 1549.52 1258.31 1544.94 Q1255.26 1540.33 1255.26 1531.6 Q1255.26 1522.85 1258.31 1518.27 Q1261.39 1513.66 1267.2 1513.66 Z" fill="#000000" fill-rule="evenodd" fill-opacity="1" /><path clip-path="url(#clip700)" d="M1297.36 1517.37 Q1293.75 1517.37 1291.92 1520.93 Q1290.12 1524.47 1290.12 1531.6 Q1290.12 1538.71 1291.92 1542.27 Q1293.75 1545.82 1297.36 1545.82 Q1301 1545.82 1302.8 1542.27 Q1304.63 1538.71 1304.63 1531.6 Q1304.63 1524.47 1302.8 1520.93 Q1301 1517.37 1297.36 1517.37 M1297.36 1513.66 Q1303.17 1513.66 1306.23 1518.27 Q1309.31 1522.85 1309.31 1531.6 Q1309.31 1540.33 1306.23 1544.94 Q1303.17 1549.52 1297.36 1549.52 Q1291.55 1549.52 1288.47 1544.94 Q1285.42 1540.33 1285.42 1531.6 Q1285.42 1522.85 1288.47 1518.27 Q1291.55 1513.66 1297.36 1513.66 Z" fill="#000000" fill-rule="evenodd" fill-opacity="1" /><path clip-path="url(#clip700)" d="M1737.73 1514.29 L1759.95 1514.29 L1759.95 1516.28 L1747.41 1548.85 L1742.52 1548.85 L1754.33 1518.22 L1737.73 1518.22 L1737.73 1514.29 Z" fill="#000000" fill-rule="evenodd" fill-opacity="1" /><path clip-path="url(#clip700)" d="M1769.12 1514.29 L1787.47 1514.29 L1787.47 1518.22 L1773.4 1518.22 L1773.4 1526.7 Q1774.42 1526.35 1775.44 1526.19 Q1776.46 1526 1777.47 1526 Q1783.26 1526 1786.64 1529.17 Q1790.02 1532.34 1790.02 1537.76 Q1790.02 1543.34 1786.55 1546.44 Q1783.08 1549.52 1776.76 1549.52 Q1774.58 1549.52 1772.31 1549.15 Q1770.07 1548.78 1767.66 1548.04 L1767.66 1543.34 Q1769.74 1544.47 1771.97 1545.03 Q1774.19 1545.58 1776.66 1545.58 Q1780.67 1545.58 1783.01 1543.48 Q1785.34 1541.37 1785.34 1537.76 Q1785.34 1534.15 1783.01 1532.04 Q1780.67 1529.94 1776.66 1529.94 Q1774.79 1529.94 1772.91 1530.35 Q1771.06 1530.77 1769.12 1531.65 L1769.12 1514.29 Z" fill="#000000" fill-rule="evenodd" fill-opacity="1" /><path clip-path="url(#clip700)" d="M1809.23 1517.37 Q1805.62 1517.37 1803.79 1520.93 Q1801.99 1524.47 1801.99 1531.6 Q1801.99 1538.71 1803.79 1542.27 Q1805.62 1545.82 1809.23 1545.82 Q1812.87 1545.82 1814.67 1542.27 Q1816.5 1538.71 1816.5 1531.6 Q1816.5 1524.47 1814.67 1520.93 Q1812.87 1517.37 1809.23 1517.37 M1809.23 1513.66 Q1815.04 1513.66 1818.1 1518.27 Q1821.18 1522.85 1821.18 1531.6 Q1821.18 1540.33 1818.1 1544.94 Q1815.04 1549.52 1809.23 1549.52 Q1803.42 1549.52 1800.34 1544.94 Q1797.29 1540.33 1797.29 1531.6 Q1797.29 1522.85 1800.34 1518.27 Q1803.42 1513.66 1809.23 1513.66 Z" fill="#000000" fill-rule="evenodd" fill-opacity="1" /><path clip-path="url(#clip700)" d="M2235.97 1544.91 L2243.6 1544.91 L2243.6 1518.55 L2235.29 1520.21 L2235.29 1515.95 L2243.56 1514.29 L2248.23 1514.29 L2248.23 1544.91 L2255.87 1544.91 L2255.87 1548.85 L2235.97 1548.85 L2235.97 1544.91 Z" fill="#000000" fill-rule="evenodd" fill-opacity="1" /><path clip-path="url(#clip700)" d="M2275.32 1517.37 Q2271.71 1517.37 2269.88 1520.93 Q2268.07 1524.47 2268.07 1531.6 Q2268.07 1538.71 2269.88 1542.27 Q2271.71 1545.82 2275.32 1545.82 Q2278.95 1545.82 2280.76 1542.27 Q2282.59 1538.71 2282.59 1531.6 Q2282.59 1524.47 2280.76 1520.93 Q2278.95 1517.37 2275.32 1517.37 M2275.32 1513.66 Q2281.13 1513.66 2284.18 1518.27 Q2287.26 1522.85 2287.26 1531.6 Q2287.26 1540.33 2284.18 1544.94 Q2281.13 1549.52 2275.32 1549.52 Q2269.51 1549.52 2266.43 1544.94 Q2263.37 1540.33 2263.37 1531.6 Q2263.37 1522.85 2266.43 1518.27 Q2269.51 1513.66 2275.32 1513.66 Z" fill="#000000" fill-rule="evenodd" fill-opacity="1" /><path clip-path="url(#clip700)" d="M2305.48 1517.37 Q2301.87 1517.37 2300.04 1520.93 Q2298.23 1524.47 2298.23 1531.6 Q2298.23 1538.71 2300.04 1542.27 Q2301.87 1545.82 2305.48 1545.82 Q2309.11 1545.82 2310.92 1542.27 Q2312.75 1538.71 2312.75 1531.6 Q2312.75 1524.47 2310.92 1520.93 Q2309.11 1517.37 2305.48 1517.37 M2305.48 1513.66 Q2311.29 1513.66 2314.35 1518.27 Q2317.42 1522.85 2317.42 1531.6 Q2317.42 1540.33 2314.35 1544.94 Q2311.29 1549.52 2305.48 1549.52 Q2299.67 1549.52 2296.59 1544.94 Q2293.54 1540.33 2293.54 1531.6 Q2293.54 1522.85 2296.59 1518.27 Q2299.67 1513.66 2305.48 1513.66 Z" fill="#000000" fill-rule="evenodd" fill-opacity="1" /><path clip-path="url(#clip700)" d="M2335.64 1517.37 Q2332.03 1517.37 2330.2 1520.93 Q2328.4 1524.47 2328.4 1531.6 Q2328.4 1538.71 2330.2 1542.27 Q2332.03 1545.82 2335.64 1545.82 Q2339.28 1545.82 2341.08 1542.27 Q2342.91 1538.71 2342.91 1531.6 Q2342.91 1524.47 2341.08 1520.93 Q2339.28 1517.37 2335.64 1517.37 M2335.64 1513.66 Q2341.45 1513.66 2344.51 1518.27 Q2347.59 1522.85 2347.59 1531.6 Q2347.59 1540.33 2344.51 1544.94 Q2341.45 1549.52 2335.64 1549.52 Q2329.83 1549.52 2326.75 1544.94 Q2323.7 1540.33 2323.7 1531.6 Q2323.7 1522.85 2326.75 1518.27 Q2329.83 1513.66 2335.64 1513.66 Z" fill="#000000" fill-rule="evenodd" fill-opacity="1" /><polyline clip-path="url(#clip702)" style="stroke:#000000; stroke-linecap:round; stroke-linejoin:round; stroke-width:2; stroke-opacity:0.1; fill:none" points="186.274,1456.72 2352.76,1456.72 "/>
<polyline clip-path="url(#clip702)" style="stroke:#000000; stroke-linecap:round; stroke-linejoin:round; stroke-width:2; stroke-opacity:0.1; fill:none" points="186.274,1111.44 2352.76,1111.44 "/>
<polyline clip-path="url(#clip702)" style="stroke:#000000; stroke-linecap:round; stroke-linejoin:round; stroke-width:2; stroke-opacity:0.1; fill:none" points="186.274,766.164 2352.76,766.164 "/>
<polyline clip-path="url(#clip702)" style="stroke:#000000; stroke-linecap:round; stroke-linejoin:round; stroke-width:2; stroke-opacity:0.1; fill:none" points="186.274,420.885 2352.76,420.885 "/>
<polyline clip-path="url(#clip702)" style="stroke:#000000; stroke-linecap:round; stroke-linejoin:round; stroke-width:2; stroke-opacity:0.1; fill:none" points="186.274,75.606 2352.76,75.606 "/>
<polyline clip-path="url(#clip700)" style="stroke:#000000; stroke-linecap:round; stroke-linejoin:round; stroke-width:4; stroke-opacity:1; fill:none" points="186.274,1486.45 186.274,47.2441 "/>
<polyline clip-path="url(#clip700)" style="stroke:#000000; stroke-linecap:round; stroke-linejoin:round; stroke-width:4; stroke-opacity:1; fill:none" points="186.274,1456.72 205.172,1456.72 "/>
<polyline clip-path="url(#clip700)" style="stroke:#000000; stroke-linecap:round; stroke-linejoin:round; stroke-width:4; stroke-opacity:1; fill:none" points="186.274,1111.44 205.172,1111.44 "/>
<polyline clip-path="url(#clip700)" style="stroke:#000000; stroke-linecap:round; stroke-linejoin:round; stroke-width:4; stroke-opacity:1; fill:none" points="186.274,766.164 205.172,766.164 "/>
<polyline clip-path="url(#clip700)" style="stroke:#000000; stroke-linecap:round; stroke-linejoin:round; stroke-width:4; stroke-opacity:1; fill:none" points="186.274,420.885 205.172,420.885 "/>
<polyline clip-path="url(#clip700)" style="stroke:#000000; stroke-linecap:round; stroke-linejoin:round; stroke-width:4; stroke-opacity:1; fill:none" points="186.274,75.606 205.172,75.606 "/>
<path clip-path="url(#clip700)" d="M62.9365 1442.52 Q59.3254 1442.52 57.4967 1446.09 Q55.6912 1449.63 55.6912 1456.76 Q55.6912 1463.86 57.4967 1467.43 Q59.3254 1470.97 62.9365 1470.97 Q66.5707 1470.97 68.3763 1467.43 Q70.205 1463.86 70.205 1456.76 Q70.205 1449.63 68.3763 1446.09 Q66.5707 1442.52 62.9365 1442.52 M62.9365 1438.82 Q68.7467 1438.82 71.8022 1443.42 Q74.8809 1448.01 74.8809 1456.76 Q74.8809 1465.48 71.8022 1470.09 Q68.7467 1474.67 62.9365 1474.67 Q57.1264 1474.67 54.0477 1470.09 Q50.9921 1465.48 50.9921 1456.76 Q50.9921 1448.01 54.0477 1443.42 Q57.1264 1438.82 62.9365 1438.82 Z" fill="#000000" fill-rule="evenodd" fill-opacity="1" /><path clip-path="url(#clip700)" d="M83.0984 1468.12 L87.9827 1468.12 L87.9827 1474 L83.0984 1474 L83.0984 1468.12 Z" fill="#000000" fill-rule="evenodd" fill-opacity="1" /><path clip-path="url(#clip700)" d="M108.168 1442.52 Q104.557 1442.52 102.728 1446.09 Q100.922 1449.63 100.922 1456.76 Q100.922 1463.86 102.728 1467.43 Q104.557 1470.97 108.168 1470.97 Q111.802 1470.97 113.608 1467.43 Q115.436 1463.86 115.436 1456.76 Q115.436 1449.63 113.608 1446.09 Q111.802 1442.52 108.168 1442.52 M108.168 1438.82 Q113.978 1438.82 117.033 1443.42 Q120.112 1448.01 120.112 1456.76 Q120.112 1465.48 117.033 1470.09 Q113.978 1474.67 108.168 1474.67 Q102.358 1474.67 99.2789 1470.09 Q96.2234 1465.48 96.2234 1456.76 Q96.2234 1448.01 99.2789 1443.42 Q102.358 1438.82 108.168 1438.82 Z" fill="#000000" fill-rule="evenodd" fill-opacity="1" /><path clip-path="url(#clip700)" d="M138.33 1442.52 Q134.719 1442.52 132.89 1446.09 Q131.084 1449.63 131.084 1456.76 Q131.084 1463.86 132.89 1467.43 Q134.719 1470.97 138.33 1470.97 Q141.964 1470.97 143.769 1467.43 Q145.598 1463.86 145.598 1456.76 Q145.598 1449.63 143.769 1446.09 Q141.964 1442.52 138.33 1442.52 M138.33 1438.82 Q144.14 1438.82 147.195 1443.42 Q150.274 1448.01 150.274 1456.76 Q150.274 1465.48 147.195 1470.09 Q144.14 1474.67 138.33 1474.67 Q132.519 1474.67 129.441 1470.09 Q126.385 1465.48 126.385 1456.76 Q126.385 1448.01 129.441 1443.42 Q132.519 1438.82 138.33 1438.82 Z" fill="#000000" fill-rule="evenodd" fill-opacity="1" /><path clip-path="url(#clip700)" d="M63.9319 1097.24 Q60.3208 1097.24 58.4921 1100.81 Q56.6865 1104.35 56.6865 1111.48 Q56.6865 1118.58 58.4921 1122.15 Q60.3208 1125.69 63.9319 1125.69 Q67.5661 1125.69 69.3717 1122.15 Q71.2004 1118.58 71.2004 1111.48 Q71.2004 1104.35 69.3717 1100.81 Q67.5661 1097.24 63.9319 1097.24 M63.9319 1093.54 Q69.742 1093.54 72.7976 1098.14 Q75.8763 1102.73 75.8763 1111.48 Q75.8763 1120.2 72.7976 1124.81 Q69.742 1129.39 63.9319 1129.39 Q58.1217 1129.39 55.043 1124.81 Q51.9875 1120.2 51.9875 1111.48 Q51.9875 1102.73 55.043 1098.14 Q58.1217 1093.54 63.9319 1093.54 Z" fill="#000000" fill-rule="evenodd" fill-opacity="1" /><path clip-path="url(#clip700)" d="M84.0938 1122.84 L88.978 1122.84 L88.978 1128.72 L84.0938 1128.72 L84.0938 1122.84 Z" fill="#000000" fill-rule="evenodd" fill-opacity="1" /><path clip-path="url(#clip700)" d="M103.191 1124.79 L119.51 1124.79 L119.51 1128.72 L97.566 1128.72 L97.566 1124.79 Q100.228 1122.03 104.811 1117.4 Q109.418 1112.75 110.598 1111.41 Q112.844 1108.89 113.723 1107.15 Q114.626 1105.39 114.626 1103.7 Q114.626 1100.95 112.682 1099.21 Q110.76 1097.47 107.658 1097.47 Q105.459 1097.47 103.006 1098.24 Q100.575 1099 97.7974 1100.55 L97.7974 1095.83 Q100.621 1094.7 103.075 1094.12 Q105.529 1093.54 107.566 1093.54 Q112.936 1093.54 116.131 1096.22 Q119.325 1098.91 119.325 1103.4 Q119.325 1105.53 118.515 1107.45 Q117.728 1109.35 115.621 1111.94 Q115.043 1112.61 111.941 1115.83 Q108.839 1119.02 103.191 1124.79 Z" fill="#000000" fill-rule="evenodd" fill-opacity="1" /><path clip-path="url(#clip700)" d="M129.371 1094.16 L147.728 1094.16 L147.728 1098.1 L133.654 1098.1 L133.654 1106.57 Q134.672 1106.22 135.691 1106.06 Q136.709 1105.88 137.728 1105.88 Q143.515 1105.88 146.894 1109.05 Q150.274 1112.22 150.274 1117.64 Q150.274 1123.21 146.802 1126.32 Q143.33 1129.39 137.01 1129.39 Q134.834 1129.39 132.566 1129.02 Q130.32 1128.65 127.913 1127.91 L127.913 1123.21 Q129.996 1124.35 132.219 1124.9 Q134.441 1125.46 136.918 1125.46 Q140.922 1125.46 143.26 1123.35 Q145.598 1121.25 145.598 1117.64 Q145.598 1114.02 143.26 1111.92 Q140.922 1109.81 136.918 1109.81 Q135.043 1109.81 133.168 1110.23 Q131.316 1110.64 129.371 1111.52 L129.371 1094.16 Z" fill="#000000" fill-rule="evenodd" fill-opacity="1" /><path clip-path="url(#clip700)" d="M62.9365 751.963 Q59.3254 751.963 57.4967 755.528 Q55.6912 759.069 55.6912 766.199 Q55.6912 773.305 57.4967 776.87 Q59.3254 780.412 62.9365 780.412 Q66.5707 780.412 68.3763 776.87 Q70.205 773.305 70.205 766.199 Q70.205 759.069 68.3763 755.528 Q66.5707 751.963 62.9365 751.963 M62.9365 748.259 Q68.7467 748.259 71.8022 752.866 Q74.8809 757.449 74.8809 766.199 Q74.8809 774.926 71.8022 779.532 Q68.7467 784.116 62.9365 784.116 Q57.1264 784.116 54.0477 779.532 Q50.9921 774.926 50.9921 766.199 Q50.9921 757.449 54.0477 752.866 Q57.1264 748.259 62.9365 748.259 Z" fill="#000000" fill-rule="evenodd" fill-opacity="1" /><path clip-path="url(#clip700)" d="M83.0984 777.565 L87.9827 777.565 L87.9827 783.444 L83.0984 783.444 L83.0984 777.565 Z" fill="#000000" fill-rule="evenodd" fill-opacity="1" /><path clip-path="url(#clip700)" d="M98.2141 748.884 L116.57 748.884 L116.57 752.819 L102.496 752.819 L102.496 761.292 Q103.515 760.944 104.534 760.782 Q105.552 760.597 106.571 760.597 Q112.358 760.597 115.737 763.768 Q119.117 766.94 119.117 772.356 Q119.117 777.935 115.645 781.037 Q112.172 784.116 105.853 784.116 Q103.677 784.116 101.409 783.745 Q99.1632 783.375 96.7558 782.634 L96.7558 777.935 Q98.8391 779.069 101.061 779.625 Q103.284 780.18 105.76 780.18 Q109.765 780.18 112.103 778.074 Q114.441 775.967 114.441 772.356 Q114.441 768.745 112.103 766.639 Q109.765 764.532 105.76 764.532 Q103.885 764.532 102.01 764.949 Q100.159 765.366 98.2141 766.245 L98.2141 748.884 Z" fill="#000000" fill-rule="evenodd" fill-opacity="1" /><path clip-path="url(#clip700)" d="M138.33 751.963 Q134.719 751.963 132.89 755.528 Q131.084 759.069 131.084 766.199 Q131.084 773.305 132.89 776.87 Q134.719 780.412 138.33 780.412 Q141.964 780.412 143.769 776.87 Q145.598 773.305 145.598 766.199 Q145.598 759.069 143.769 755.528 Q141.964 751.963 138.33 751.963 M138.33 748.259 Q144.14 748.259 147.195 752.866 Q150.274 757.449 150.274 766.199 Q150.274 774.926 147.195 779.532 Q144.14 784.116 138.33 784.116 Q132.519 784.116 129.441 779.532 Q126.385 774.926 126.385 766.199 Q126.385 757.449 129.441 752.866 Q132.519 748.259 138.33 748.259 Z" fill="#000000" fill-rule="evenodd" fill-opacity="1" /><path clip-path="url(#clip700)" d="M63.9319 406.684 Q60.3208 406.684 58.4921 410.249 Q56.6865 413.79 56.6865 420.92 Q56.6865 428.026 58.4921 431.591 Q60.3208 435.133 63.9319 435.133 Q67.5661 435.133 69.3717 431.591 Q71.2004 428.026 71.2004 420.92 Q71.2004 413.79 69.3717 410.249 Q67.5661 406.684 63.9319 406.684 M63.9319 402.98 Q69.742 402.98 72.7976 407.587 Q75.8763 412.17 75.8763 420.92 Q75.8763 429.647 72.7976 434.253 Q69.742 438.836 63.9319 438.836 Q58.1217 438.836 55.043 434.253 Q51.9875 429.647 51.9875 420.92 Q51.9875 412.17 55.043 407.587 Q58.1217 402.98 63.9319 402.98 Z" fill="#000000" fill-rule="evenodd" fill-opacity="1" /><path clip-path="url(#clip700)" d="M84.0938 432.286 L88.978 432.286 L88.978 438.165 L84.0938 438.165 L84.0938 432.286 Z" fill="#000000" fill-rule="evenodd" fill-opacity="1" /><path clip-path="url(#clip700)" d="M97.9826 403.605 L120.205 403.605 L120.205 405.596 L107.658 438.165 L102.774 438.165 L114.58 407.54 L97.9826 407.54 L97.9826 403.605 Z" fill="#000000" fill-rule="evenodd" fill-opacity="1" /><path clip-path="url(#clip700)" d="M129.371 403.605 L147.728 403.605 L147.728 407.54 L133.654 407.54 L133.654 416.012 Q134.672 415.665 135.691 415.503 Q136.709 415.318 137.728 415.318 Q143.515 415.318 146.894 418.489 Q150.274 421.661 150.274 427.077 Q150.274 432.656 146.802 435.758 Q143.33 438.836 137.01 438.836 Q134.834 438.836 132.566 438.466 Q130.32 438.096 127.913 437.355 L127.913 432.656 Q129.996 433.79 132.219 434.346 Q134.441 434.901 136.918 434.901 Q140.922 434.901 143.26 432.795 Q145.598 430.688 145.598 427.077 Q145.598 423.466 143.26 421.36 Q140.922 419.253 136.918 419.253 Q135.043 419.253 133.168 419.67 Q131.316 420.087 129.371 420.966 L129.371 403.605 Z" fill="#000000" fill-rule="evenodd" fill-opacity="1" /><path clip-path="url(#clip700)" d="M53.7467 88.9508 L61.3856 88.9508 L61.3856 62.5852 L53.0754 64.2519 L53.0754 59.9926 L61.3393 58.326 L66.0152 58.326 L66.0152 88.9508 L73.654 88.9508 L73.654 92.886 L53.7467 92.886 L53.7467 88.9508 Z" fill="#000000" fill-rule="evenodd" fill-opacity="1" /><path clip-path="url(#clip700)" d="M83.0984 87.0064 L87.9827 87.0064 L87.9827 92.886 L83.0984 92.886 L83.0984 87.0064 Z" fill="#000000" fill-rule="evenodd" fill-opacity="1" /><path clip-path="url(#clip700)" d="M108.168 61.4047 Q104.557 61.4047 102.728 64.9695 Q100.922 68.5111 100.922 75.6407 Q100.922 82.7471 102.728 86.3119 Q104.557 89.8536 108.168 89.8536 Q111.802 89.8536 113.608 86.3119 Q115.436 82.7471 115.436 75.6407 Q115.436 68.5111 113.608 64.9695 Q111.802 61.4047 108.168 61.4047 M108.168 57.701 Q113.978 57.701 117.033 62.3074 Q120.112 66.8907 120.112 75.6407 Q120.112 84.3675 117.033 88.974 Q113.978 93.5573 108.168 93.5573 Q102.358 93.5573 99.2789 88.974 Q96.2234 84.3675 96.2234 75.6407 Q96.2234 66.8907 99.2789 62.3074 Q102.358 57.701 108.168 57.701 Z" fill="#000000" fill-rule="evenodd" fill-opacity="1" /><path clip-path="url(#clip700)" d="M138.33 61.4047 Q134.719 61.4047 132.89 64.9695 Q131.084 68.5111 131.084 75.6407 Q131.084 82.7471 132.89 86.3119 Q134.719 89.8536 138.33 89.8536 Q141.964 89.8536 143.769 86.3119 Q145.598 82.7471 145.598 75.6407 Q145.598 68.5111 143.769 64.9695 Q141.964 61.4047 138.33 61.4047 M138.33 57.701 Q144.14 57.701 147.195 62.3074 Q150.274 66.8907 150.274 75.6407 Q150.274 84.3675 147.195 88.974 Q144.14 93.5573 138.33 93.5573 Q132.519 93.5573 129.441 88.974 Q126.385 84.3675 126.385 75.6407 Q126.385 66.8907 129.441 62.3074 Q132.519 57.701 138.33 57.701 Z" fill="#000000" fill-rule="evenodd" fill-opacity="1" /><polyline clip-path="url(#clip702)" style="stroke:#009af9; stroke-linecap:round; stroke-linejoin:round; stroke-width:4; stroke-opacity:1; fill:none" points="247.59,1445.72 248.421,1440.82 249.253,1435.04 250.085,1428.39 250.916,1420.89 251.748,1412.54 252.579,1403.36 253.411,1393.38 254.243,1382.6 255.906,1358.74 257.569,1331.98 259.233,1302.5 260.896,1270.52 262.819,1230.76 264.741,1188.34 266.664,1143.67 268.586,1097.17 272.431,1000.38 276.276,901.37 278.198,852.081 280.121,803.468 282.043,755.904 283.966,709.737 285.888,665.288 287.811,622.844 289.733,582.659 291.656,544.95 293.578,509.893 295.501,477.627 297.423,448.25 299.346,421.819 301.268,398.351 303.191,377.826 305.113,360.187 307.036,345.342 308.958,333.168 310.881,323.512 312.803,316.197 314.725,311.024 316.648,307.776 318.57,306.222 320.493,306.122 322.415,307.23 330.105,318.86 337.795,331.366 339.718,333.261 341.64,334.404 343.563,334.706 345.485,334.106 347.408,332.566 349.33,330.073 351.253,326.64 353.175,322.299 357.02,311.135 360.865,297.232 364.71,281.464 368.555,264.846 372.4,248.44 376.245,233.268 380.09,220.23 383.935,210.037 386.245,205.49 388.556,202.205 390.867,200.204 393.177,199.474 395.488,199.968 397.799,201.605 400.109,204.277 402.42,207.849 411.663,227.838 420.905,248.233 423.216,252.131 425.527,255.289 427.837,257.62 430.148,259.065 432.459,259.591 434.769,259.198 437.08,257.912 439.391,255.788 444.012,249.368 448.633,240.831 453.254,231.309 457.876,222.041 461.783,215.294 465.69,210.215 469.598,207.292 473.505,206.831 477.412,208.934 481.319,213.499 485.227,220.226 489.134,228.646 496.948,248.121 504.763,266.602 508.67,273.92 512.577,279.346 516.485,282.627 520.392,283.7 524.636,282.516 528.881,279.284 533.125,274.617 537.37,269.273 541.614,264.081 545.858,259.859 550.103,257.333 554.347,257.064 558.591,259.396 562.836,264.421 567.08,271.968 571.325,281.619 579.813,304.599 588.302,327.08 592.215,335.511 596.128,342.036 600.041,346.352 603.954,348.334 607.867,348.054 611.78,345.766 615.693,341.895 619.606,336.995 627.432,326.699 635.258,320.049 639.17,319.412 643.083,320.981 646.996,324.833 650.909,330.837 659.299,349.212 667.69,370.209 671.885,379.494 676.08,386.854 678.177,389.604 680.275,391.649 682.372,392.95 684.47,393.484 688.665,392.271 692.86,388.261 697.055,382.046 701.25,374.534 705.446,366.892 709.641,360.467 711.738,358.154 713.836,356.678 715.933,356.211 718.031,356.914 720.461,359.386 722.891,363.832 725.321,370.419 727.752,379.272 730.182,390.472 732.612,404.047 735.042,419.974 737.472,438.178 739.903,458.527 742.333,480.84 744.763,504.885 747.193,530.387 752.054,584.457 756.914,640.158 759.344,667.628 761.775,694.303 764.205,719.783 766.635,743.683 769.065,765.645 771.495,785.342 773.926,802.486 776.356,816.835 778.786,828.196 781.216,836.434 782.431,839.354 783.647,841.467 784.862,842.774 786.077,843.275 788.507,841.895 790.937,837.419 793.367,829.997 795.798,819.826 797.957,808.676 800.117,795.743 802.277,781.246 804.436,765.418 808.756,730.763 813.075,693.811 817.394,656.573 821.714,620.899 823.874,604.155 826.033,588.365 828.193,573.668 830.353,560.175 832.512,547.968 834.672,537.104 836.832,527.607 838.991,519.477 841.151,512.686 843.311,507.182 845.47,502.891 847.63,499.717 851.949,496.266 856.269,495.791 860.588,497.145 864.908,499.177 868.695,500.681 872.483,501.293 876.271,500.556 880.058,498.176 883.846,494.027 887.634,488.15 891.421,480.737 895.209,472.103 902.785,452.84 910.36,433.977 914.148,425.744 917.935,418.723 921.723,413.094 925.511,408.917 929.64,405.945 933.77,404.403 937.9,403.944 942.029,404.134 950.288,404.572 958.548,402.295 962.677,399.431 966.807,395.297 970.937,389.978 975.066,383.691 983.325,369.569 991.585,356.136 995.739,350.641 999.893,346.393 1004.05,343.555 1008.2,342.159 1016.51,343.144 1024.82,347.159 1033.13,350.984 1041.43,351.626 1045.59,350.185 1049.74,347.516 1053.9,343.755 1058.05,339.163 1062.64,333.564 1067.24,327.995 1071.83,323.085 1076.42,319.427 1081.02,317.503 1085.61,317.626 1090.2,319.896 1094.79,324.182 1103.98,337.198 1113.17,351.907 1117.76,358.084 1122.35,362.609 1126.95,365.025 1131.54,365.1 1135.91,363.012 1140.28,359.051 1144.65,353.634 1149.02,347.33 1153.39,340.797 1157.76,334.718 1162.13,329.728 1166.5,326.348 1170.87,324.923 1175.24,325.581 1179.61,328.212 1183.98,332.466 1192.72,343.444 1201.46,352.503 1206,354.33 1210.55,353.246 1212.82,351.473 1215.09,348.845 1217.36,345.363 1219.63,341.054 1224.18,330.171 1228.72,316.863 1233.27,302.132 1237.81,287.241 1242.35,273.621 1246.9,262.745 1249.17,258.777 1251.44,256.004 1253.71,254.565 1255.99,254.58 1258.26,256.145 1260.53,259.331 1262.8,264.18 1265.07,270.705 1267.35,278.89 1269.62,288.687 1271.89,300.019 1274.16,312.78 1277.99,337.11 1281.81,364.313 1285.64,393.447 1289.46,423.46 1293.29,453.25 1297.11,481.726 1300.94,507.868 1304.76,530.775 1306.67,540.78 1308.59,549.72 1310.5,557.535 1312.41,564.183 1314.32,569.633 1316.24,573.873 1318.15,576.904 1320.06,578.743 1321.97,579.42 1323.89,578.98 1325.8,577.48 1327.71,574.989 1329.62,571.587 1331.54,567.364 1333.45,562.415 1335.36,556.844 1344.7,524.296 1354.04,492.002 1356.38,485.225 1358.71,479.214 1361.04,474.05 1363.38,469.79 1365.71,466.467 1368.05,464.088 1370.38,462.636 1372.72,462.072 1377.39,463.352 1382.06,467.254 1386.73,472.912 1391.4,479.376 1396.07,485.721 1400.74,491.134 1405.41,494.999 1410.08,496.941 1414.36,496.934 1418.63,495.315 1422.91,492.338 1427.19,488.369 1435.75,479.224 1444.3,471.311 1448.58,468.62 1452.86,466.972 1457.13,466.354 1461.41,466.625 1469.97,468.782 1478.52,470.82 1482.48,470.978 1486.43,470.359 1490.38,468.851 1494.33,466.422 1502.23,459.091 1510.13,449.644 1518.03,440.085 1525.94,432.409 1533.84,427.885 1541.74,426.608 1549.74,427.478 1557.75,428.541 1561.75,428.475 1565.75,427.718 1569.75,426.128 1573.76,423.654 1581.76,416.299 1589.77,407.033 1597.77,398.283 1605.77,392.735 1610.26,391.831 1614.75,392.766 1619.23,395.542 1623.72,399.984 1632.69,412.354 1641.66,425.768 1646.14,431.388 1650.63,435.599 1655.11,438.049 1659.6,438.574 1664.08,437.21 1668.57,434.204 1673.05,429.985 1677.54,425.133 1681.6,420.745 1685.67,416.893 1689.73,414.057 1693.8,412.639 1697.86,412.925 1701.93,415.056 1705.99,419.003 1710.06,424.563 1718.18,438.897 1726.31,453.548 1730.38,459.252 1734.44,462.957 1738.51,464.072 1742.57,462.149 1744.9,459.569 1747.22,455.88 1749.55,451.086 1751.88,445.213 1754.2,438.314 1756.53,430.463 1758.86,421.755 1761.18,412.309 1770.49,370.041 1779.8,328.705 1782.13,319.807 1784.45,311.791 1786.78,304.787 1789.11,298.903 1791.43,294.228 1793.76,290.822 1796.09,288.725 1798.41,287.948 1800.74,288.477 1803.07,290.272 1805.39,293.267 1807.72,297.376 1812.37,308.476 1817.03,322.496 1821.34,336.977 1825.64,351.801 1829.95,365.916 1834.26,378.376 1836.42,383.734 1838.57,388.402 1840.72,392.319 1842.88,395.439 1845.03,397.732 1847.19,399.187 1849.34,399.807 1851.5,399.615 1855.81,396.952 1860.11,391.656 1864.42,384.369 1868.73,375.852 1873.04,366.924 1877.35,358.387 1881.66,350.965 1885.97,345.251 1890.21,341.695 1894.46,340.415 1898.71,341.429 1902.96,344.575 1907.21,349.534 1911.45,355.869 1915.7,363.072 1919.95,370.612 1924.2,377.983 1928.45,384.748 1932.69,390.574 1936.94,395.253 1941.19,398.713 1945.44,401.015 1949.68,402.334 1953.93,402.937 1962.18,403.281 1970.43,404.506 1978.68,408.275 1986.93,414.946 1995.18,423.489 2003.43,431.936 2007.55,435.445 2011.67,438.174 2015.8,439.97 2019.92,440.763 2028.38,439.414 2036.83,435.184 2045.29,430.191 2053.75,426.643 2062.2,425.948 2070.66,428.15 2079.11,431.911 2087.57,435.057 2092.2,435.733 2096.83,435.337 2101.47,433.757 2106.1,431.033 2115.36,423.061 2124.63,414.412 2129.26,411.059 2133.89,408.974 2138.53,408.504 2143.16,409.851 2147.79,413.038 2152.42,417.91 2157.05,424.136 2161.69,431.25 2168.42,442.012 2175.14,451.701 2178.51,455.663 2181.87,458.852 2185.24,461.194 2188.6,462.669 2195.33,463.257 2202.06,461.66 2208.79,459.675 2215.52,459.473 2218.88,460.703 2222.25,463.115 2225.61,466.866 2228.98,472.048 2232.34,478.68 2235.71,486.7 2239.07,495.969 2242.44,506.269 2249.17,528.763 2255.89,551.284 2259.26,561.521 2262.62,570.524 2265.99,577.913 2269.35,583.36 2272.11,586.19 2274.87,587.425 2277.64,586.998 2280.4,584.885 2283.16,581.103 2285.92,575.714 2288.68,568.819 2291.44,560.559 "/>
<polyline clip-path="url(#clip702)" style="stroke:#e26f46; stroke-linecap:round; stroke-linejoin:round; stroke-width:4; stroke-opacity:1; fill:none" points="247.59,415.963 260.896,415.963 383.935,415.963 457.876,415.963 520.392,415.963 588.302,415.963 650.909,415.963 718.031,415.963 795.798,415.963 864.908,415.963 925.511,415.963 991.585,415.963 1058.05,415.963 1131.54,415.963 1201.46,415.963 1274.16,415.963 1335.36,415.963 1410.08,415.963 1478.52,415.963 1541.74,415.963 1605.77,415.963 1677.54,415.963 1742.57,415.963 1817.03,415.963 1885.97,415.963 1953.93,415.963 2019.92,415.963 2087.57,415.963 2161.69,415.963 2269.35,415.963 2291.44,415.963 "/>
<polyline clip-path="url(#clip702)" style="stroke:#3da44d; stroke-linecap:round; stroke-linejoin:round; stroke-width:4; stroke-opacity:1; fill:none" points="247.59,87.9763 248.421,93.4713 249.253,99.9485 250.085,107.393 250.916,115.786 251.748,125.108 252.579,135.338 253.411,146.451 254.243,158.421 255.074,171.219 255.906,184.816 256.738,199.181 257.569,214.278 258.401,230.073 259.233,246.531 260.064,263.611 260.896,281.275 262.819,324.119 264.741,369.343 266.664,416.403 268.586,464.74 272.431,562.981 276.276,659.608 278.198,705.994 280.121,750.445 282.043,792.52 283.966,831.825 284.927,850.328 285.888,868.013 286.85,884.845 287.811,900.792 288.772,915.828 289.733,929.927 290.695,943.07 291.656,955.241 292.617,966.426 293.578,976.618 294.539,985.811 295.501,994.004 296.462,1001.2 297.423,1007.4 298.384,1012.63 299.346,1016.88 300.307,1020.18 301.268,1022.55 302.229,1024.01 303.191,1024.59 304.152,1024.32 305.113,1023.22 306.074,1021.33 307.036,1018.7 308.958,1011.32 310.881,1001.43 312.803,989.383 314.725,975.549 318.57,944.08 322.415,910.138 326.26,876.697 330.105,846.392 332.028,833.109 333.95,821.367 335.873,811.338 337.795,803.149 339.718,796.884 341.64,792.582 343.563,790.238 345.485,789.807 347.408,791.202 349.33,794.301 351.253,798.948 353.175,804.956 357.02,820.201 360.865,838.155 364.71,856.791 368.555,874.113 370.477,881.704 372.4,888.311 374.322,893.761 376.245,897.907 378.167,900.636 380.09,901.863 382.012,901.54 383.935,899.65 386.245,895.333 388.556,888.874 390.867,880.432 393.177,870.224 397.799,845.625 402.42,817.671 407.041,789.301 411.663,763.442 413.973,752.279 416.284,742.661 418.595,734.804 420.905,728.869 423.216,724.957 425.527,723.108 427.837,723.297 430.148,725.441 432.459,729.397 434.769,734.967 437.08,741.907 439.391,749.933 444.012,767.964 448.633,786.344 450.944,794.803 453.254,802.345 455.565,808.679 457.876,813.552 459.829,816.38 461.783,817.92 463.737,818.103 465.69,816.89 467.644,814.275 469.598,810.278 471.551,804.952 473.505,798.378 477.412,781.945 481.319,762.123 485.227,740.351 489.134,718.24 493.041,697.438 496.948,679.489 498.902,672.006 500.856,665.704 502.809,660.692 504.763,657.051 506.717,654.836 508.67,654.07 510.624,654.747 512.577,656.83 514.531,660.252 516.485,664.92 518.438,670.713 520.392,677.485 524.636,694.763 528.881,713.931 533.125,732.871 537.37,749.491 539.492,756.336 541.614,761.933 543.736,766.119 545.858,768.765 547.98,769.783 550.103,769.127 552.225,766.794 554.347,762.825 556.469,757.305 558.591,750.36 560.714,742.154 562.836,732.886 567.08,712.108 571.325,690.119 575.569,669.201 579.813,651.602 581.936,644.687 584.058,639.317 586.18,635.67 588.302,633.883 590.259,633.966 592.215,635.751 594.172,639.246 596.128,644.423 598.085,651.221 600.041,659.545 601.997,669.272 603.954,680.247 607.867,705.204 611.78,732.744 615.693,760.984 619.606,787.985 621.562,800.439 623.519,811.916 625.475,822.228 627.432,831.216 629.388,838.75 631.345,844.732 633.301,849.1 635.258,851.829 637.214,852.931 639.17,852.457 641.127,850.496 643.083,847.174 645.04,842.65 646.996,837.116 648.953,830.79 650.909,823.915 655.104,808.557 659.299,794.631 661.397,789.071 663.495,784.887 665.592,782.38 667.69,781.819 669.787,783.43 671.885,787.393 673.982,793.834 676.08,802.819 678.177,814.353 680.275,828.377 682.372,844.762 684.47,863.318 686.568,883.788 688.665,905.856 690.763,929.149 692.86,953.244 697.055,1001.95 701.25,1047.89 703.348,1068.48 705.446,1086.76 706.494,1094.87 707.543,1102.21 708.592,1108.72 709.641,1114.34 710.689,1119.02 711.738,1122.7 712.787,1125.34 713.836,1126.88 714.884,1127.3 715.933,1126.55 716.982,1124.59 718.031,1121.41 719.246,1116.15 720.461,1109.19 721.676,1100.5 722.891,1090.07 724.106,1077.91 725.321,1064.03 726.537,1048.45 727.752,1031.2 728.967,1012.32 730.182,991.865 731.397,969.891 732.612,946.469 733.827,921.68 735.042,895.611 736.257,868.357 737.472,840.023 738.688,810.721 739.903,780.567 741.118,749.685 742.333,718.205 744.763,653.99 747.193,589.033 749.624,524.484 752.054,461.504 753.269,430.96 754.484,401.235 755.699,372.464 756.914,344.78 758.129,318.308 759.344,293.171 760.56,269.481 761.775,247.348 762.99,226.869 764.205,208.136 765.42,191.231 766.635,176.227 767.85,163.186 769.065,152.161 770.28,143.195 771.495,136.319 772.711,131.553 773.926,128.908 775.141,128.382 776.356,129.962 777.571,133.626 778.786,139.339 780.001,147.059 781.216,156.729 782.431,168.287 783.647,181.658 784.862,196.761 786.077,213.504 787.292,231.79 788.507,251.512 789.722,272.559 790.937,294.812 792.152,318.149 793.367,342.442 794.582,367.562 795.798,393.374 800.117,488.698 804.436,584.97 806.596,631.627 808.756,676.392 809.836,697.872 810.915,718.654 811.995,738.673 813.075,757.867 814.155,776.18 815.235,793.561 816.315,809.963 817.394,825.346 818.474,839.676 819.554,852.923 820.634,865.064 821.714,876.082 822.794,885.964 823.874,894.706 824.953,902.306 826.033,908.771 827.113,914.11 828.193,918.341 829.273,921.485 830.353,923.568 831.432,924.622 832.512,924.682 833.592,923.789 834.672,921.987 835.752,919.324 836.832,915.85 837.911,911.62 838.991,906.691 841.151,894.975 843.311,881.197 845.47,865.872 847.63,849.525 851.949,815.825 856.269,784.004 858.429,769.873 860.588,757.406 862.748,746.89 864.908,738.549 866.801,733.15 868.695,729.61 870.589,727.954 872.483,728.165 874.377,730.191 876.271,733.945 878.165,739.305 880.058,746.122 881.952,754.219 883.846,763.399 885.74,773.449 887.634,784.14 891.421,806.507 895.209,828.621 897.103,839.021 898.997,848.708 900.891,857.5 902.785,865.235 904.678,871.779 906.572,877.023 908.466,880.889 910.36,883.327 912.254,884.319 914.148,883.878 916.042,882.046 917.935,878.894 919.829,874.517 921.723,869.038 923.617,862.599 925.511,855.36 929.64,837.662 933.77,818.961 937.9,801.252 942.029,786.381 944.094,780.501 946.159,775.866 948.224,772.591 950.288,770.756 952.353,770.402 954.418,771.534 956.483,774.118 958.548,778.082 960.612,783.32 962.677,789.694 964.742,797.035 966.807,805.151 970.937,822.847 975.066,840.94 977.131,849.54 979.196,857.535 981.261,864.708 983.325,870.864 985.39,875.829 987.455,879.457 989.52,881.633 991.585,882.278 993.662,881.336 995.739,878.79 997.816,874.671 999.893,869.043 1001.97,862.011 1004.05,853.709 1006.12,844.302 1008.2,833.982 1012.36,811.461 1016.51,788 1020.66,765.526 1024.82,745.854 1026.89,737.562 1028.97,730.51 1031.05,724.822 1033.13,720.584 1035.2,717.846 1037.28,716.619 1039.36,716.878 1041.43,718.557 1043.51,721.556 1045.59,725.739 1047.67,730.94 1049.74,736.963 1053.9,750.595 1058.05,764.721 1060.35,772.008 1062.64,778.499 1064.94,783.88 1067.24,787.867 1069.53,790.214 1071.83,790.717 1074.13,789.226 1076.42,785.649 1078.72,779.951 1081.02,772.16 1083.31,762.366 1085.61,750.721 1087.91,737.432 1090.2,722.756 1092.5,706.997 1094.79,690.497 1099.39,656.761 1103.98,624.641 1106.28,610.147 1108.57,597.171 1110.87,586.025 1113.17,576.98 1115.46,570.252 1117.76,565.999 1120.06,564.316 1122.35,565.23 1124.65,568.699 1126.95,574.617 1129.24,582.81 1131.54,593.044 1133.72,604.415 1135.91,617.088 1138.09,630.745 1140.28,645.047 1144.65,674.165 1149.02,701.614 1151.2,713.883 1153.39,724.794 1155.57,734.104 1157.76,741.617 1159.94,747.193 1162.13,750.747 1164.31,752.258 1166.5,751.766 1168.68,749.376 1170.87,745.255 1173.05,739.627 1175.24,732.771 1179.61,716.723 1183.98,700.154 1186.16,692.728 1188.35,686.45 1190.53,681.741 1192.72,678.999 1194.9,678.589 1197.09,680.831 1198.18,683.033 1199.27,685.993 1200.37,689.735 1201.46,694.278 1202.6,699.867 1203.73,706.349 1204.87,713.729 1206,722.006 1207.14,731.174 1208.28,741.22 1209.41,752.125 1210.55,763.864 1211.68,776.407 1212.82,789.716 1213.96,803.749 1215.09,818.457 1217.36,849.677 1219.63,882.882 1224.18,952.911 1228.72,1023.3 1230.99,1056.81 1233.27,1088.22 1234.4,1102.89 1235.54,1116.77 1236.67,1129.75 1237.81,1141.76 1238.95,1152.72 1240.08,1162.54 1241.22,1171.16 1242.35,1178.5 1243.49,1184.51 1244.63,1189.13 1245.76,1192.3 1246.9,1193.98 1248.03,1194.14 1249.17,1192.74 1250.31,1189.75 1251.44,1185.17 1252.58,1178.98 1253.71,1171.19 1254.85,1161.79 1255.99,1150.81 1257.12,1138.26 1258.26,1124.18 1259.39,1108.6 1260.53,1091.58 1261.67,1073.15 1262.8,1053.39 1263.94,1032.36 1265.07,1010.12 1266.21,986.775 1267.35,962.392 1268.48,937.068 1269.62,910.898 1271.89,856.425 1274.16,799.825 1277.99,702.228 1281.81,605.583 1283.72,559.005 1285.64,514.304 1286.59,492.817 1287.55,471.987 1288.5,451.873 1289.46,432.53 1290.42,414.012 1291.37,396.37 1292.33,379.649 1293.29,363.896 1294.24,349.15 1295.2,335.45 1296.15,322.828 1297.11,311.316 1298.07,300.939 1299.02,291.72 1299.98,283.678 1300.94,276.826 1301.89,271.176 1302.85,266.733 1303.8,263.501 1304.76,261.476 1305.72,260.654 1306.67,261.024 1307.63,262.573 1308.59,265.282 1309.54,269.131 1310.5,274.093 1311.45,280.141 1312.41,287.242 1313.37,295.36 1314.32,304.457 1315.28,314.49 1316.24,325.416 1317.19,337.187 1318.15,349.754 1319.1,363.064 1320.06,377.063 1321.97,406.907 1323.89,438.82 1325.8,472.323 1327.71,506.922 1331.54,577.435 1335.36,646.499 1336.53,666.734 1337.7,686.406 1338.86,705.427 1340.03,723.714 1341.2,741.191 1342.37,757.787 1343.53,773.437 1344.7,788.085 1345.87,801.679 1347.04,814.176 1348.2,825.54 1349.37,835.743 1350.54,844.764 1351.71,852.588 1352.87,859.211 1354.04,864.632 1355.21,868.861 1356.38,871.914 1357.54,873.812 1358.71,874.585 1359.88,874.268 1361.04,872.903 1362.21,870.535 1363.38,867.219 1364.55,863.009 1365.71,857.968 1366.88,852.16 1368.05,845.655 1370.38,830.839 1372.72,814.115 1377.39,777.417 1382.06,740.448 1384.39,723.282 1386.73,707.657 1389.06,693.989 1391.4,682.62 1393.73,673.808 1396.07,667.726 1398.4,664.46 1400.74,664.005 1403.07,666.278 1405.41,671.113 1407.74,678.274 1410.08,687.466 1414.36,708.396 1418.63,732.523 1422.91,757.253 1427.19,780.094 1429.33,790.117 1431.47,798.903 1433.61,806.273 1435.75,812.089 1437.88,816.261 1440.02,818.747 1442.16,819.554 1444.3,818.732 1446.44,816.381 1448.58,812.639 1450.72,807.683 1452.86,801.719 1457.13,787.728 1461.41,772.727 1463.55,765.521 1465.69,758.86 1467.83,752.988 1469.97,748.125 1472.11,744.464 1474.25,742.165 1476.39,741.351 1478.52,742.103 1480.5,744.224 1482.48,747.716 1484.45,752.544 1486.43,758.648 1488.4,765.934 1490.38,774.285 1492.35,783.558 1494.33,793.589 1498.28,815.188 1502.23,837.502 1506.18,858.877 1510.13,877.736 1512.11,885.781 1514.08,892.707 1516.06,898.395 1518.03,902.751 1520.01,905.712 1521.98,907.243 1523.96,907.341 1525.94,906.03 1527.91,903.368 1529.89,899.439 1531.86,894.354 1533.84,888.248 1537.79,873.614 1541.74,856.97 1545.74,839.682 1549.74,823.606 1551.74,816.502 1553.75,810.246 1555.75,804.98 1557.75,800.82 1559.75,797.857 1561.75,796.146 1563.75,795.716 1565.75,796.558 1567.75,798.634 1569.75,801.871 1571.76,806.165 1573.76,811.384 1577.76,823.943 1581.76,838.028 1585.76,851.886 1589.77,863.686 1591.77,868.26 1593.77,871.678 1595.77,873.762 1597.77,874.355 1599.77,873.33 1601.77,870.59 1603.77,866.072 1605.77,859.749 1608.02,850.528 1610.26,839.119 1612.5,825.647 1614.75,810.29 1616.99,793.278 1619.23,774.887 1621.47,755.43 1623.72,735.252 1628.2,694.211 1632.69,654.788 1634.93,636.607 1637.17,619.897 1639.41,604.952 1641.66,592.025 1643.9,581.317 1646.14,572.973 1648.39,567.077 1650.63,563.651 1652.87,562.651 1655.11,563.971 1657.36,567.444 1659.6,572.846 1661.84,579.902 1664.08,588.295 1666.33,597.67 1668.57,607.649 1673.05,627.839 1677.54,645.735 1679.57,652.304 1681.6,657.586 1683.64,661.384 1685.67,663.544 1687.7,663.952 1689.73,662.54 1691.77,659.289 1693.8,654.231 1695.83,647.447 1697.86,639.071 1699.89,629.282 1701.93,618.308 1705.99,593.917 1710.06,568.461 1712.09,556.25 1714.12,544.9 1716.15,534.805 1718.18,526.352 1719.2,522.859 1720.22,519.913 1721.23,517.559 1722.25,515.837 1723.26,514.786 1724.28,514.441 1725.3,514.838 1726.31,516.006 1727.33,517.973 1728.35,520.764 1729.36,524.401 1730.38,528.899 1731.39,534.274 1732.41,540.535 1733.43,547.688 1734.44,555.735 1735.46,564.674 1736.47,574.499 1737.49,585.198 1738.51,596.758 1739.52,609.159 1740.54,622.377 1741.55,636.387 1742.57,651.155 1743.73,668.951 1744.9,687.636 1746.06,707.144 1747.22,727.404 1749.55,769.864 1751.88,814.332 1756.53,906.215 1761.18,996.44 1762.35,1017.92 1763.51,1038.76 1764.67,1058.85 1765.84,1078.08 1767,1096.35 1768.17,1113.58 1769.33,1129.66 1770.49,1144.51 1771.66,1158.05 1772.82,1170.2 1773.98,1180.89 1775.15,1190.05 1776.31,1197.64 1777.47,1203.6 1778.64,1207.89 1779.8,1210.49 1780.96,1211.36 1782.13,1210.48 1783.29,1207.87 1784.45,1203.5 1785.62,1197.4 1786.78,1189.59 1787.94,1180.09 1789.11,1168.94 1790.27,1156.18 1791.43,1141.87 1792.6,1126.07 1793.76,1108.84 1794.92,1090.28 1796.09,1070.44 1797.25,1049.44 1798.41,1027.35 1800.74,980.355 1803.07,930.315 1805.39,878.155 1807.72,824.834 1810.05,771.335 1812.37,718.634 1814.7,667.685 1817.03,619.399 1818.1,598.184 1819.18,577.8 1820.26,558.322 1821.34,539.818 1822.41,522.356 1823.49,505.993 1824.57,490.785 1825.64,476.781 1826.72,464.024 1827.8,452.552 1828.88,442.395 1829.95,433.58 1831.03,426.126 1832.11,420.044 1833.18,415.342 1834.26,412.019 1835.34,410.069 1836.42,409.481 1837.49,410.235 1838.57,412.307 1839.65,415.668 1840.72,420.281 1841.8,426.106 1842.88,433.097 1843.96,441.202 1845.03,450.366 1846.11,460.529 1847.19,471.629 1848.27,483.597 1849.34,496.363 1850.42,509.855 1851.5,523.996 1853.65,553.916 1855.81,585.487 1857.96,618.058 1860.11,650.98 1862.27,683.62 1864.42,715.367 1866.58,745.65 1868.73,773.946 1869.81,787.201 1870.89,799.789 1871.96,811.663 1873.04,822.78 1874.12,833.1 1875.19,842.591 1876.27,851.222 1877.35,858.97 1878.43,865.816 1879.5,871.747 1880.58,876.753 1881.66,880.831 1882.73,883.983 1883.81,886.214 1884.89,887.535 1885.97,887.963 1887.03,887.529 1888.09,886.27 1889.15,884.213 1890.21,881.388 1891.28,877.83 1892.34,873.577 1893.4,868.67 1894.46,863.152 1896.59,850.468 1898.71,835.915 1900.83,819.907 1902.96,802.873 1907.21,767.453 1911.45,733 1913.58,717.088 1915.7,702.491 1917.83,689.481 1919.95,678.286 1922.07,669.074 1924.2,661.962 1926.32,657.008 1928.45,654.216 1930.57,653.534 1932.69,654.858 1934.82,658.038 1936.94,662.881 1939.07,669.16 1941.19,676.616 1943.31,684.97 1945.44,693.928 1949.68,712.458 1953.93,729.875 1955.99,737.295 1958.06,743.756 1960.12,749.089 1962.18,753.158 1964.24,755.863 1966.31,757.147 1968.37,756.989 1970.43,755.411 1972.49,752.471 1974.55,748.266 1976.62,742.927 1978.68,736.617 1982.8,721.853 1986.93,705.705 1991.05,690.071 1995.18,676.825 1997.24,671.634 1999.3,667.643 2001.36,665.004 2003.43,663.836 2005.49,664.226 2007.55,666.225 2009.61,669.848 2011.67,675.071 2013.74,681.836 2015.8,690.047 2017.86,699.577 2019.92,710.27 2024.15,735.037 2028.38,762.079 2032.61,789.385 2036.83,814.947 2038.95,826.499 2041.06,836.965 2043.18,846.181 2045.29,854.016 2047.4,860.374 2049.52,865.199 2051.63,868.472 2053.75,870.216 2055.86,870.493 2057.97,869.401 2060.09,867.074 2062.2,863.677 2066.43,854.461 2070.66,843.519 2074.89,832.776 2079.11,824.12 2081.23,821.105 2083.34,819.201 2085.46,818.55 2087.57,819.254 2089.89,821.662 2092.2,825.809 2094.52,831.668 2096.83,839.15 2099.15,848.11 2101.47,858.347 2103.78,869.608 2106.1,881.601 2110.73,906.441 2115.36,929.985 2117.68,940.341 2120,949.274 2122.31,956.46 2124.63,961.608 2126.94,964.474 2129.26,964.867 2131.58,962.655 2133.89,957.772 2136.21,950.216 2138.53,940.054 2139.68,934.035 2140.84,927.419 2142,920.233 2143.16,912.507 2145.47,895.573 2147.79,876.925 2150.11,856.913 2152.42,835.922 2157.05,792.648 2161.69,750.45 2163.37,736.022 2165.05,722.294 2166.73,709.393 2168.42,697.431 2170.1,686.502 2171.78,676.688 2173.46,668.048 2175.14,660.624 2176.83,654.437 2178.51,649.488 2180.19,645.757 2181.87,643.204 2183.56,641.769 2185.24,641.373 2186.92,641.918 2188.6,643.29 2191.97,647.989 2195.33,654.298 2198.7,660.914 2202.06,666.482 2203.74,668.457 2205.43,669.684 2207.11,670.019 2208.79,669.331 2210.47,667.505 2212.15,664.442 2213.84,660.065 2215.52,654.318 2217.2,647.168 2218.88,638.605 2220.57,628.646 2222.25,617.332 2223.93,604.73 2225.61,590.932 2227.3,576.054 2228.98,560.237 2232.34,526.456 2235.71,491.117 2239.07,456.006 2242.44,423.073 2244.12,408.054 2245.8,394.336 2247.48,382.162 2249.17,371.768 2250.85,363.376 2252.53,357.192 2254.21,353.404 2255.89,352.174 2257.58,353.643 2259.26,357.923 2260.1,361.145 2260.94,365.097 2261.78,369.787 2262.62,375.216 2263.46,381.387 2264.31,388.299 2265.15,395.949 2265.99,404.332 2267.67,423.267 2269.35,445.02 2270.73,464.896 2272.11,486.512 2273.49,509.771 2274.87,534.564 2276.25,560.769 2277.64,588.249 2279.02,616.858 2280.4,646.438 2283.16,707.833 2285.92,771.004 2288.68,834.433 2291.44,896.555 "/>
<path clip-path="url(#clip700)" d="M2010.88 1438.47 L2280.54 1438.47 L2280.54 1231.11 L2010.88 1231.11  Z" fill="#ffffff" fill-rule="evenodd" fill-opacity="1"/>
<polyline clip-path="url(#clip700)" style="stroke:#000000; stroke-linecap:round; stroke-linejoin:round; stroke-width:4; stroke-opacity:1; fill:none" points="2010.88,1438.47 2280.54,1438.47 2280.54,1231.11 2010.88,1231.11 2010.88,1438.47 "/>
<polyline clip-path="url(#clip700)" style="stroke:#009af9; stroke-linecap:round; stroke-linejoin:round; stroke-width:4; stroke-opacity:1; fill:none" points="2034.95,1282.95 2179.39,1282.95 "/>
<path clip-path="url(#clip700)" d="M2217.3 1302.64 Q2215.5 1307.27 2213.78 1308.68 Q2212.07 1310.1 2209.2 1310.1 L2205.8 1310.1 L2205.8 1306.53 L2208.3 1306.53 Q2210.06 1306.53 2211.03 1305.7 Q2212 1304.86 2213.18 1301.76 L2213.94 1299.82 L2203.46 1274.31 L2207.97 1274.31 L2216.07 1294.59 L2224.18 1274.31 L2228.69 1274.31 L2217.3 1302.64 Z" fill="#000000" fill-rule="evenodd" fill-opacity="1" /><path clip-path="url(#clip700)" d="M2235.98 1296.3 L2243.62 1296.3 L2243.62 1269.93 L2235.31 1271.6 L2235.31 1267.34 L2243.57 1265.67 L2248.25 1265.67 L2248.25 1296.3 L2255.89 1296.3 L2255.89 1300.23 L2235.98 1300.23 L2235.98 1296.3 Z" fill="#000000" fill-rule="evenodd" fill-opacity="1" /><polyline clip-path="url(#clip700)" style="stroke:#e26f46; stroke-linecap:round; stroke-linejoin:round; stroke-width:4; stroke-opacity:1; fill:none" points="2034.95,1334.79 2179.39,1334.79 "/>
<path clip-path="url(#clip700)" d="M2217.3 1354.48 Q2215.5 1359.11 2213.78 1360.52 Q2212.07 1361.94 2209.2 1361.94 L2205.8 1361.94 L2205.8 1358.37 L2208.3 1358.37 Q2210.06 1358.37 2211.03 1357.54 Q2212 1356.7 2213.18 1353.6 L2213.94 1351.66 L2203.46 1326.15 L2207.97 1326.15 L2216.07 1346.43 L2224.18 1326.15 L2228.69 1326.15 L2217.3 1354.48 Z" fill="#000000" fill-rule="evenodd" fill-opacity="1" /><path clip-path="url(#clip700)" d="M2239.2 1348.14 L2255.52 1348.14 L2255.52 1352.07 L2233.57 1352.07 L2233.57 1348.14 Q2236.24 1345.38 2240.82 1340.76 Q2245.43 1336.1 2246.61 1334.76 Q2248.85 1332.24 2249.73 1330.5 Q2250.63 1328.74 2250.63 1327.05 Q2250.63 1324.3 2248.69 1322.56 Q2246.77 1320.82 2243.67 1320.82 Q2241.47 1320.82 2239.01 1321.59 Q2236.58 1322.35 2233.81 1323.9 L2233.81 1319.18 Q2236.63 1318.05 2239.08 1317.47 Q2241.54 1316.89 2243.57 1316.89 Q2248.94 1316.89 2252.14 1319.57 Q2255.33 1322.26 2255.33 1326.75 Q2255.33 1328.88 2254.52 1330.8 Q2253.74 1332.7 2251.63 1335.29 Q2251.05 1335.96 2247.95 1339.18 Q2244.85 1342.38 2239.2 1348.14 Z" fill="#000000" fill-rule="evenodd" fill-opacity="1" /><polyline clip-path="url(#clip700)" style="stroke:#3da44d; stroke-linecap:round; stroke-linejoin:round; stroke-width:4; stroke-opacity:1; fill:none" points="2034.95,1386.63 2179.39,1386.63 "/>
<path clip-path="url(#clip700)" d="M2217.3 1406.32 Q2215.5 1410.95 2213.78 1412.36 Q2212.07 1413.78 2209.2 1413.78 L2205.8 1413.78 L2205.8 1410.21 L2208.3 1410.21 Q2210.06 1410.21 2211.03 1409.38 Q2212 1408.54 2213.18 1405.44 L2213.94 1403.5 L2203.46 1377.99 L2207.97 1377.99 L2216.07 1398.27 L2224.18 1377.99 L2228.69 1377.99 L2217.3 1406.32 Z" fill="#000000" fill-rule="evenodd" fill-opacity="1" /><path clip-path="url(#clip700)" d="M2249.34 1385.28 Q2252.69 1386 2254.57 1388.27 Q2256.47 1390.53 2256.47 1393.87 Q2256.47 1398.98 2252.95 1401.78 Q2249.43 1404.59 2242.95 1404.59 Q2240.77 1404.59 2238.46 1404.15 Q2236.17 1403.73 2233.71 1402.87 L2233.71 1398.36 Q2235.66 1399.49 2237.97 1400.07 Q2240.29 1400.65 2242.81 1400.65 Q2247.21 1400.65 2249.5 1398.91 Q2251.82 1397.18 2251.82 1393.87 Q2251.82 1390.81 2249.66 1389.1 Q2247.53 1387.36 2243.71 1387.36 L2239.69 1387.36 L2239.69 1383.52 L2243.9 1383.52 Q2247.35 1383.52 2249.18 1382.16 Q2251 1380.77 2251 1378.17 Q2251 1375.51 2249.11 1374.1 Q2247.23 1372.66 2243.71 1372.66 Q2241.79 1372.66 2239.59 1373.08 Q2237.39 1373.5 2234.75 1374.38 L2234.75 1370.21 Q2237.42 1369.47 2239.73 1369.1 Q2242.07 1368.73 2244.13 1368.73 Q2249.45 1368.73 2252.56 1371.16 Q2255.66 1373.57 2255.66 1377.69 Q2255.66 1380.56 2254.01 1382.55 Q2252.37 1384.52 2249.34 1385.28 Z" fill="#000000" fill-rule="evenodd" fill-opacity="1" /></svg>
