<?xml version="1.0" encoding="utf-8"?>
<svg xmlns="http://www.w3.org/2000/svg" xmlns:xlink="http://www.w3.org/1999/xlink" width="600" height="400" viewBox="0 0 2400 1600">
<defs>
  <clipPath id="clip160">
    <rect x="0" y="0" width="2400" height="1600"/>
  </clipPath>
</defs>
<path clip-path="url(#clip160)" d="M0 1600 L2400 1600 L2400 0 L0 0  Z" fill="#ffffff" fill-rule="evenodd" fill-opacity="1"/>
<defs>
  <clipPath id="clip161">
    <rect x="480" y="0" width="1681" height="1600"/>
  </clipPath>
</defs>
<path clip-path="url(#clip160)" d="M186.274 1486.45 L2352.76 1486.45 L2352.76 47.2441 L186.274 47.2441  Z" fill="#ffffff" fill-rule="evenodd" fill-opacity="1"/>
<defs>
  <clipPath id="clip162">
    <rect x="186" y="47" width="2167" height="1440"/>
  </clipPath>
</defs>
<polyline clip-path="url(#clip162)" style="stroke:#000000; stroke-linecap:round; stroke-linejoin:round; stroke-width:2; stroke-opacity:0.1; fill:none" points="247.59,1486.45 247.59,47.2441 "/>
<polyline clip-path="url(#clip162)" style="stroke:#000000; stroke-linecap:round; stroke-linejoin:round; stroke-width:2; stroke-opacity:0.1; fill:none" points="928.873,1486.45 928.873,47.2441 "/>
<polyline clip-path="url(#clip162)" style="stroke:#000000; stroke-linecap:round; stroke-linejoin:round; stroke-width:2; stroke-opacity:0.1; fill:none" points="1610.16,1486.45 1610.16,47.2441 "/>
<polyline clip-path="url(#clip162)" style="stroke:#000000; stroke-linecap:round; stroke-linejoin:round; stroke-width:2; stroke-opacity:0.1; fill:none" points="2291.44,1486.45 2291.44,47.2441 "/>
<polyline clip-path="url(#clip160)" style="stroke:#000000; stroke-linecap:round; stroke-linejoin:round; stroke-width:4; stroke-opacity:1; fill:none" points="186.274,1486.45 2352.76,1486.45 "/>
<polyline clip-path="url(#clip160)" style="stroke:#000000; stroke-linecap:round; stroke-linejoin:round; stroke-width:4; stroke-opacity:1; fill:none" points="247.59,1486.45 247.59,1467.55 "/>
<polyline clip-path="url(#clip160)" style="stroke:#000000; stroke-linecap:round; stroke-linejoin:round; stroke-width:4; stroke-opacity:1; fill:none" points="928.873,1486.45 928.873,1467.55 "/>
<polyline clip-path="url(#clip160)" style="stroke:#000000; stroke-linecap:round; stroke-linejoin:round; stroke-width:4; stroke-opacity:1; fill:none" points="1610.16,1486.45 1610.16,1467.55 "/>
<polyline clip-path="url(#clip160)" style="stroke:#000000; stroke-linecap:round; stroke-linejoin:round; stroke-width:4; stroke-opacity:1; fill:none" points="2291.44,1486.45 2291.44,1467.55 "/>
<path clip-path="url(#clip160)" d="M247.59 1517.37 Q243.978 1517.37 242.15 1520.93 Q240.344 1524.47 240.344 1531.6 Q240.344 1538.71 242.15 1542.27 Q243.978 1545.82 247.59 1545.82 Q251.224 1545.82 253.029 1542.27 Q254.858 1538.71 254.858 1531.6 Q254.858 1524.47 253.029 1520.93 Q251.224 1517.37 247.59 1517.37 M247.59 1513.66 Q253.4 1513.66 256.455 1518.27 Q259.534 1522.85 259.534 1531.6 Q259.534 1540.33 256.455 1544.94 Q253.4 1549.52 247.59 1549.52 Q241.779 1549.52 238.701 1544.94 Q235.645 1540.33 235.645 1531.6 Q235.645 1522.85 238.701 1518.27 Q241.779 1513.66 247.59 1513.66 Z" fill="#000000" fill-rule="evenodd" fill-opacity="1" /><path clip-path="url(#clip160)" d="M903.561 1544.91 L911.2 1544.91 L911.2 1518.55 L902.889 1520.21 L902.889 1515.95 L911.153 1514.29 L915.829 1514.29 L915.829 1544.91 L923.468 1544.91 L923.468 1548.85 L903.561 1548.85 L903.561 1544.91 Z" fill="#000000" fill-rule="evenodd" fill-opacity="1" /><path clip-path="url(#clip160)" d="M942.912 1517.37 Q939.301 1517.37 937.473 1520.93 Q935.667 1524.47 935.667 1531.6 Q935.667 1538.71 937.473 1542.27 Q939.301 1545.82 942.912 1545.82 Q946.547 1545.82 948.352 1542.27 Q950.181 1538.71 950.181 1531.6 Q950.181 1524.47 948.352 1520.93 Q946.547 1517.37 942.912 1517.37 M942.912 1513.66 Q948.723 1513.66 951.778 1518.27 Q954.857 1522.85 954.857 1531.6 Q954.857 1540.33 951.778 1544.94 Q948.723 1549.52 942.912 1549.52 Q937.102 1549.52 934.024 1544.94 Q930.968 1540.33 930.968 1531.6 Q930.968 1522.85 934.024 1518.27 Q937.102 1513.66 942.912 1513.66 Z" fill="#000000" fill-rule="evenodd" fill-opacity="1" /><path clip-path="url(#clip160)" d="M1588.93 1544.91 L1605.25 1544.91 L1605.25 1548.85 L1583.31 1548.85 L1583.31 1544.91 Q1585.97 1542.16 1590.55 1537.53 Q1595.16 1532.88 1596.34 1531.53 Q1598.58 1529.01 1599.46 1527.27 Q1600.37 1525.51 1600.37 1523.82 Q1600.37 1521.07 1598.42 1519.33 Q1596.5 1517.6 1593.4 1517.6 Q1591.2 1517.6 1588.74 1518.36 Q1586.31 1519.13 1583.54 1520.68 L1583.54 1515.95 Q1586.36 1514.82 1588.81 1514.24 Q1591.27 1513.66 1593.31 1513.66 Q1598.68 1513.66 1601.87 1516.35 Q1605.06 1519.03 1605.06 1523.52 Q1605.06 1525.65 1604.25 1527.57 Q1603.47 1529.47 1601.36 1532.07 Q1600.78 1532.74 1597.68 1535.95 Q1594.58 1539.15 1588.93 1544.91 Z" fill="#000000" fill-rule="evenodd" fill-opacity="1" /><path clip-path="url(#clip160)" d="M1625.06 1517.37 Q1621.45 1517.37 1619.62 1520.93 Q1617.82 1524.47 1617.82 1531.6 Q1617.82 1538.71 1619.62 1542.27 Q1621.45 1545.82 1625.06 1545.82 Q1628.7 1545.82 1630.5 1542.27 Q1632.33 1538.71 1632.33 1531.6 Q1632.33 1524.47 1630.5 1520.93 Q1628.7 1517.37 1625.06 1517.37 M1625.06 1513.66 Q1630.87 1513.66 1633.93 1518.27 Q1637.01 1522.85 1637.01 1531.6 Q1637.01 1540.33 1633.93 1544.94 Q1630.87 1549.52 1625.06 1549.52 Q1619.25 1549.52 1616.18 1544.94 Q1613.12 1540.33 1613.12 1531.6 Q1613.12 1522.85 1616.18 1518.27 Q1619.25 1513.66 1625.06 1513.66 Z" fill="#000000" fill-rule="evenodd" fill-opacity="1" /><path clip-path="url(#clip160)" d="M2280.28 1530.21 Q2283.64 1530.93 2285.51 1533.2 Q2287.41 1535.47 2287.41 1538.8 Q2287.41 1543.92 2283.89 1546.72 Q2280.38 1549.52 2273.89 1549.52 Q2271.72 1549.52 2269.4 1549.08 Q2267.11 1548.66 2264.66 1547.81 L2264.66 1543.29 Q2266.6 1544.43 2268.92 1545.01 Q2271.23 1545.58 2273.76 1545.58 Q2278.15 1545.58 2280.45 1543.85 Q2282.76 1542.11 2282.76 1538.8 Q2282.76 1535.75 2280.61 1534.03 Q2278.48 1532.3 2274.66 1532.3 L2270.63 1532.3 L2270.63 1528.45 L2274.84 1528.45 Q2278.29 1528.45 2280.12 1527.09 Q2281.95 1525.7 2281.95 1523.11 Q2281.95 1520.45 2280.05 1519.03 Q2278.18 1517.6 2274.66 1517.6 Q2272.74 1517.6 2270.54 1518.01 Q2268.34 1518.43 2265.7 1519.31 L2265.7 1515.14 Q2268.36 1514.4 2270.68 1514.03 Q2273.01 1513.66 2275.07 1513.66 Q2280.4 1513.66 2283.5 1516.09 Q2286.6 1518.5 2286.6 1522.62 Q2286.6 1525.49 2284.96 1527.48 Q2283.32 1529.45 2280.28 1530.21 Z" fill="#000000" fill-rule="evenodd" fill-opacity="1" /><path clip-path="url(#clip160)" d="M2306.28 1517.37 Q2302.67 1517.37 2300.84 1520.93 Q2299.03 1524.47 2299.03 1531.6 Q2299.03 1538.71 2300.84 1542.27 Q2302.67 1545.82 2306.28 1545.82 Q2309.91 1545.82 2311.72 1542.27 Q2313.55 1538.71 2313.55 1531.6 Q2313.55 1524.47 2311.72 1520.93 Q2309.91 1517.37 2306.28 1517.37 M2306.28 1513.66 Q2312.09 1513.66 2315.14 1518.27 Q2318.22 1522.85 2318.22 1531.6 Q2318.22 1540.33 2315.14 1544.94 Q2312.09 1549.52 2306.28 1549.52 Q2300.47 1549.52 2297.39 1544.94 Q2294.33 1540.33 2294.33 1531.6 Q2294.33 1522.85 2297.39 1518.27 Q2300.47 1513.66 2306.28 1513.66 Z" fill="#000000" fill-rule="evenodd" fill-opacity="1" /><polyline clip-path="url(#clip162)" style="stroke:#000000; stroke-linecap:round; stroke-linejoin:round; stroke-width:2; stroke-opacity:0.1; fill:none" points="186.274,1471.69 2352.76,1471.69 "/>
<polyline clip-path="url(#clip162)" style="stroke:#000000; stroke-linecap:round; stroke-linejoin:round; stroke-width:2; stroke-opacity:0.1; fill:none" points="186.274,1184.97 2352.76,1184.97 "/>
<polyline clip-path="url(#clip162)" style="stroke:#000000; stroke-linecap:round; stroke-linejoin:round; stroke-width:2; stroke-opacity:0.1; fill:none" points="186.274,898.255 2352.76,898.255 "/>
<polyline clip-path="url(#clip162)" style="stroke:#000000; stroke-linecap:round; stroke-linejoin:round; stroke-width:2; stroke-opacity:0.1; fill:none" points="186.274,611.539 2352.76,611.539 "/>
<polyline clip-path="url(#clip162)" style="stroke:#000000; stroke-linecap:round; stroke-linejoin:round; stroke-width:2; stroke-opacity:0.1; fill:none" points="186.274,324.822 2352.76,324.822 "/>
<polyline clip-path="url(#clip160)" style="stroke:#000000; stroke-linecap:round; stroke-linejoin:round; stroke-width:4; stroke-opacity:1; fill:none" points="186.274,1486.45 186.274,47.2441 "/>
<polyline clip-path="url(#clip160)" style="stroke:#000000; stroke-linecap:round; stroke-linejoin:round; stroke-width:4; stroke-opacity:1; fill:none" points="186.274,1471.69 205.172,1471.69 "/>
<polyline clip-path="url(#clip160)" style="stroke:#000000; stroke-linecap:round; stroke-linejoin:round; stroke-width:4; stroke-opacity:1; fill:none" points="186.274,1184.97 205.172,1184.97 "/>
<polyline clip-path="url(#clip160)" style="stroke:#000000; stroke-linecap:round; stroke-linejoin:round; stroke-width:4; stroke-opacity:1; fill:none" points="186.274,898.255 205.172,898.255 "/>
<polyline clip-path="url(#clip160)" style="stroke:#000000; stroke-linecap:round; stroke-linejoin:round; stroke-width:4; stroke-opacity:1; fill:none" points="186.274,611.539 205.172,611.539 "/>
<polyline clip-path="url(#clip160)" style="stroke:#000000; stroke-linecap:round; stroke-linejoin:round; stroke-width:4; stroke-opacity:1; fill:none" points="186.274,324.822 205.172,324.822 "/>
<path clip-path="url(#clip160)" d="M62.9365 1457.49 Q59.3254 1457.49 57.4967 1461.05 Q55.6912 1464.59 55.6912 1471.72 Q55.6912 1478.83 57.4967 1482.39 Q59.3254 1485.94 62.9365 1485.94 Q66.5707 1485.94 68.3763 1482.39 Q70.205 1478.83 70.205 1471.72 Q70.205 1464.59 68.3763 1461.05 Q66.5707 1457.49 62.9365 1457.49 M62.9365 1453.78 Q68.7467 1453.78 71.8022 1458.39 Q74.8809 1462.97 74.8809 1471.72 Q74.8809 1480.45 71.8022 1485.06 Q68.7467 1489.64 62.9365 1489.64 Q57.1264 1489.64 54.0477 1485.06 Q50.9921 1480.45 50.9921 1471.72 Q50.9921 1462.97 54.0477 1458.39 Q57.1264 1453.78 62.9365 1453.78 Z" fill="#000000" fill-rule="evenodd" fill-opacity="1" /><path clip-path="url(#clip160)" d="M83.0984 1483.09 L87.9827 1483.09 L87.9827 1488.97 L83.0984 1488.97 L83.0984 1483.09 Z" fill="#000000" fill-rule="evenodd" fill-opacity="1" /><path clip-path="url(#clip160)" d="M108.168 1457.49 Q104.557 1457.49 102.728 1461.05 Q100.922 1464.59 100.922 1471.72 Q100.922 1478.83 102.728 1482.39 Q104.557 1485.94 108.168 1485.94 Q111.802 1485.94 113.608 1482.39 Q115.436 1478.83 115.436 1471.72 Q115.436 1464.59 113.608 1461.05 Q111.802 1457.49 108.168 1457.49 M108.168 1453.78 Q113.978 1453.78 117.033 1458.39 Q120.112 1462.97 120.112 1471.72 Q120.112 1480.45 117.033 1485.06 Q113.978 1489.64 108.168 1489.64 Q102.358 1489.64 99.2789 1485.06 Q96.2234 1480.45 96.2234 1471.72 Q96.2234 1462.97 99.2789 1458.39 Q102.358 1453.78 108.168 1453.78 Z" fill="#000000" fill-rule="evenodd" fill-opacity="1" /><path clip-path="url(#clip160)" d="M138.33 1457.49 Q134.719 1457.49 132.89 1461.05 Q131.084 1464.59 131.084 1471.72 Q131.084 1478.83 132.89 1482.39 Q134.719 1485.94 138.33 1485.94 Q141.964 1485.94 143.769 1482.39 Q145.598 1478.83 145.598 1471.72 Q145.598 1464.59 143.769 1461.05 Q141.964 1457.49 138.33 1457.49 M138.33 1453.78 Q144.14 1453.78 147.195 1458.39 Q150.274 1462.97 150.274 1471.72 Q150.274 1480.45 147.195 1485.06 Q144.14 1489.64 138.33 1489.64 Q132.519 1489.64 129.441 1485.06 Q126.385 1480.45 126.385 1471.72 Q126.385 1462.97 129.441 1458.39 Q132.519 1453.78 138.33 1453.78 Z" fill="#000000" fill-rule="evenodd" fill-opacity="1" /><path clip-path="url(#clip160)" d="M63.9319 1170.77 Q60.3208 1170.77 58.4921 1174.33 Q56.6865 1177.88 56.6865 1185.01 Q56.6865 1192.11 58.4921 1195.68 Q60.3208 1199.22 63.9319 1199.22 Q67.5661 1199.22 69.3717 1195.68 Q71.2004 1192.11 71.2004 1185.01 Q71.2004 1177.88 69.3717 1174.33 Q67.5661 1170.77 63.9319 1170.77 M63.9319 1167.07 Q69.742 1167.07 72.7976 1171.67 Q75.8763 1176.26 75.8763 1185.01 Q75.8763 1193.73 72.7976 1198.34 Q69.742 1202.92 63.9319 1202.92 Q58.1217 1202.92 55.043 1198.34 Q51.9875 1193.73 51.9875 1185.01 Q51.9875 1176.26 55.043 1171.67 Q58.1217 1167.07 63.9319 1167.07 Z" fill="#000000" fill-rule="evenodd" fill-opacity="1" /><path clip-path="url(#clip160)" d="M84.0938 1196.37 L88.978 1196.37 L88.978 1202.25 L84.0938 1202.25 L84.0938 1196.37 Z" fill="#000000" fill-rule="evenodd" fill-opacity="1" /><path clip-path="url(#clip160)" d="M103.191 1198.32 L119.51 1198.32 L119.51 1202.25 L97.566 1202.25 L97.566 1198.32 Q100.228 1195.56 104.811 1190.93 Q109.418 1186.28 110.598 1184.94 Q112.844 1182.41 113.723 1180.68 Q114.626 1178.92 114.626 1177.23 Q114.626 1174.47 112.682 1172.74 Q110.76 1171 107.658 1171 Q105.459 1171 103.006 1171.77 Q100.575 1172.53 97.7974 1174.08 L97.7974 1169.36 Q100.621 1168.22 103.075 1167.65 Q105.529 1167.07 107.566 1167.07 Q112.936 1167.07 116.131 1169.75 Q119.325 1172.44 119.325 1176.93 Q119.325 1179.06 118.515 1180.98 Q117.728 1182.88 115.621 1185.47 Q115.043 1186.14 111.941 1189.36 Q108.839 1192.55 103.191 1198.32 Z" fill="#000000" fill-rule="evenodd" fill-opacity="1" /><path clip-path="url(#clip160)" d="M129.371 1167.69 L147.728 1167.69 L147.728 1171.63 L133.654 1171.63 L133.654 1180.1 Q134.672 1179.75 135.691 1179.59 Q136.709 1179.4 137.728 1179.4 Q143.515 1179.4 146.894 1182.58 Q150.274 1185.75 150.274 1191.16 Q150.274 1196.74 146.802 1199.84 Q143.33 1202.92 137.01 1202.92 Q134.834 1202.92 132.566 1202.55 Q130.32 1202.18 127.913 1201.44 L127.913 1196.74 Q129.996 1197.88 132.219 1198.43 Q134.441 1198.99 136.918 1198.99 Q140.922 1198.99 143.26 1196.88 Q145.598 1194.77 145.598 1191.16 Q145.598 1187.55 143.26 1185.45 Q140.922 1183.34 136.918 1183.34 Q135.043 1183.34 133.168 1183.76 Q131.316 1184.17 129.371 1185.05 L129.371 1167.69 Z" fill="#000000" fill-rule="evenodd" fill-opacity="1" /><path clip-path="url(#clip160)" d="M62.9365 884.054 Q59.3254 884.054 57.4967 887.619 Q55.6912 891.16 55.6912 898.29 Q55.6912 905.396 57.4967 908.961 Q59.3254 912.503 62.9365 912.503 Q66.5707 912.503 68.3763 908.961 Q70.205 905.396 70.205 898.29 Q70.205 891.16 68.3763 887.619 Q66.5707 884.054 62.9365 884.054 M62.9365 880.35 Q68.7467 880.35 71.8022 884.957 Q74.8809 889.54 74.8809 898.29 Q74.8809 907.017 71.8022 911.623 Q68.7467 916.206 62.9365 916.206 Q57.1264 916.206 54.0477 911.623 Q50.9921 907.017 50.9921 898.29 Q50.9921 889.54 54.0477 884.957 Q57.1264 880.35 62.9365 880.35 Z" fill="#000000" fill-rule="evenodd" fill-opacity="1" /><path clip-path="url(#clip160)" d="M83.0984 909.655 L87.9827 909.655 L87.9827 915.535 L83.0984 915.535 L83.0984 909.655 Z" fill="#000000" fill-rule="evenodd" fill-opacity="1" /><path clip-path="url(#clip160)" d="M98.2141 880.975 L116.57 880.975 L116.57 884.91 L102.496 884.91 L102.496 893.382 Q103.515 893.035 104.534 892.873 Q105.552 892.688 106.571 892.688 Q112.358 892.688 115.737 895.859 Q119.117 899.031 119.117 904.447 Q119.117 910.026 115.645 913.128 Q112.172 916.206 105.853 916.206 Q103.677 916.206 101.409 915.836 Q99.1632 915.466 96.7558 914.725 L96.7558 910.026 Q98.8391 911.16 101.061 911.716 Q103.284 912.271 105.76 912.271 Q109.765 912.271 112.103 910.165 Q114.441 908.058 114.441 904.447 Q114.441 900.836 112.103 898.73 Q109.765 896.623 105.76 896.623 Q103.885 896.623 102.01 897.04 Q100.159 897.456 98.2141 898.336 L98.2141 880.975 Z" fill="#000000" fill-rule="evenodd" fill-opacity="1" /><path clip-path="url(#clip160)" d="M138.33 884.054 Q134.719 884.054 132.89 887.619 Q131.084 891.16 131.084 898.29 Q131.084 905.396 132.89 908.961 Q134.719 912.503 138.33 912.503 Q141.964 912.503 143.769 908.961 Q145.598 905.396 145.598 898.29 Q145.598 891.16 143.769 887.619 Q141.964 884.054 138.33 884.054 M138.33 880.35 Q144.14 880.35 147.195 884.957 Q150.274 889.54 150.274 898.29 Q150.274 907.017 147.195 911.623 Q144.14 916.206 138.33 916.206 Q132.519 916.206 129.441 911.623 Q126.385 907.017 126.385 898.29 Q126.385 889.54 129.441 884.957 Q132.519 880.35 138.33 880.35 Z" fill="#000000" fill-rule="evenodd" fill-opacity="1" /><path clip-path="url(#clip160)" d="M63.9319 597.337 Q60.3208 597.337 58.4921 600.902 Q56.6865 604.444 56.6865 611.573 Q56.6865 618.68 58.4921 622.245 Q60.3208 625.786 63.9319 625.786 Q67.5661 625.786 69.3717 622.245 Q71.2004 618.68 71.2004 611.573 Q71.2004 604.444 69.3717 600.902 Q67.5661 597.337 63.9319 597.337 M63.9319 593.634 Q69.742 593.634 72.7976 598.24 Q75.8763 602.824 75.8763 611.573 Q75.8763 620.3 72.7976 624.907 Q69.742 629.49 63.9319 629.49 Q58.1217 629.49 55.043 624.907 Q51.9875 620.3 51.9875 611.573 Q51.9875 602.824 55.043 598.24 Q58.1217 593.634 63.9319 593.634 Z" fill="#000000" fill-rule="evenodd" fill-opacity="1" /><path clip-path="url(#clip160)" d="M84.0938 622.939 L88.978 622.939 L88.978 628.819 L84.0938 628.819 L84.0938 622.939 Z" fill="#000000" fill-rule="evenodd" fill-opacity="1" /><path clip-path="url(#clip160)" d="M97.9826 594.259 L120.205 594.259 L120.205 596.249 L107.658 628.819 L102.774 628.819 L114.58 598.194 L97.9826 598.194 L97.9826 594.259 Z" fill="#000000" fill-rule="evenodd" fill-opacity="1" /><path clip-path="url(#clip160)" d="M129.371 594.259 L147.728 594.259 L147.728 598.194 L133.654 598.194 L133.654 606.666 Q134.672 606.319 135.691 606.157 Q136.709 605.972 137.728 605.972 Q143.515 605.972 146.894 609.143 Q150.274 612.314 150.274 617.731 Q150.274 623.31 146.802 626.411 Q143.33 629.49 137.01 629.49 Q134.834 629.49 132.566 629.12 Q130.32 628.749 127.913 628.009 L127.913 623.31 Q129.996 624.444 132.219 624.999 Q134.441 625.555 136.918 625.555 Q140.922 625.555 143.26 623.448 Q145.598 621.342 145.598 617.731 Q145.598 614.12 143.26 612.013 Q140.922 609.907 136.918 609.907 Q135.043 609.907 133.168 610.323 Q131.316 610.74 129.371 611.62 L129.371 594.259 Z" fill="#000000" fill-rule="evenodd" fill-opacity="1" /><path clip-path="url(#clip160)" d="M53.7467 338.167 L61.3856 338.167 L61.3856 311.802 L53.0754 313.468 L53.0754 309.209 L61.3393 307.542 L66.0152 307.542 L66.0152 338.167 L73.654 338.167 L73.654 342.102 L53.7467 342.102 L53.7467 338.167 Z" fill="#000000" fill-rule="evenodd" fill-opacity="1" /><path clip-path="url(#clip160)" d="M83.0984 336.223 L87.9827 336.223 L87.9827 342.102 L83.0984 342.102 L83.0984 336.223 Z" fill="#000000" fill-rule="evenodd" fill-opacity="1" /><path clip-path="url(#clip160)" d="M108.168 310.621 Q104.557 310.621 102.728 314.186 Q100.922 317.728 100.922 324.857 Q100.922 331.964 102.728 335.528 Q104.557 339.07 108.168 339.07 Q111.802 339.07 113.608 335.528 Q115.436 331.964 115.436 324.857 Q115.436 317.728 113.608 314.186 Q111.802 310.621 108.168 310.621 M108.168 306.917 Q113.978 306.917 117.033 311.524 Q120.112 316.107 120.112 324.857 Q120.112 333.584 117.033 338.19 Q113.978 342.774 108.168 342.774 Q102.358 342.774 99.2789 338.19 Q96.2234 333.584 96.2234 324.857 Q96.2234 316.107 99.2789 311.524 Q102.358 306.917 108.168 306.917 Z" fill="#000000" fill-rule="evenodd" fill-opacity="1" /><path clip-path="url(#clip160)" d="M138.33 310.621 Q134.719 310.621 132.89 314.186 Q131.084 317.728 131.084 324.857 Q131.084 331.964 132.89 335.528 Q134.719 339.07 138.33 339.07 Q141.964 339.07 143.769 335.528 Q145.598 331.964 145.598 324.857 Q145.598 317.728 143.769 314.186 Q141.964 310.621 138.33 310.621 M138.33 306.917 Q144.14 306.917 147.195 311.524 Q150.274 316.107 150.274 324.857 Q150.274 333.584 147.195 338.19 Q144.14 342.774 138.33 342.774 Q132.519 342.774 129.441 338.19 Q126.385 333.584 126.385 324.857 Q126.385 316.107 129.441 311.524 Q132.519 306.917 138.33 306.917 Z" fill="#000000" fill-rule="evenodd" fill-opacity="1" /><polyline clip-path="url(#clip162)" style="stroke:#009af9; stroke-linecap:round; stroke-linejoin:round; stroke-width:4; stroke-opacity:1; fill:none" points="249.253,1359.82 250.916,1248.76 252.579,1139.3 254.243,1032.21 255.074,979.789 255.906,928.242 256.738,877.656 257.569,828.115 258.401,779.701 259.233,732.493 259.649,709.366 260.064,686.567 260.48,664.108 260.896,641.995 261.857,592.254 262.819,544.51 263.78,498.854 264.741,455.37 265.702,414.132 266.664,375.208 267.625,338.658 268.586,304.527 269.547,272.861 270.509,243.685 271.47,217.032 272.431,192.911 273.392,171.329 274.353,152.283 275.315,135.762 276.276,121.745 277.237,110.224 278.198,101.106 279.16,94.4026 280.121,90.0456 281.082,87.9763 282.043,88.1295 283.005,90.4339 283.966,94.8121 284.927,101.181 285.888,109.453 286.85,119.536 287.811,131.333 288.772,144.742 289.733,159.664 290.695,176.009 291.656,193.603 292.617,212.396 293.578,232.265 294.539,253.096 295.501,274.776 297.423,320.233 299.346,367.796 301.268,416.489 303.191,465.616 305.113,514.378 307.036,562.09 308.958,608.122 310.881,651.92 312.803,693.061 314.725,731.168 315.687,748.99 316.648,765.962 317.609,782.063 318.57,797.27 319.532,811.597 320.493,825.018 321.454,837.543 322.415,849.178 324.338,869.831 326.26,887.127 328.183,901.279 330.105,912.555 332.028,921.256 333.95,927.759 335.873,932.424 337.795,935.64 341.64,939.305 345.485,941.823 347.408,943.492 349.33,945.857 351.253,949.129 353.175,953.518 355.098,959.173 357.02,966.192 358.942,974.645 360.865,984.517 362.787,995.769 364.71,1008.32 366.632,1022.05 368.555,1036.79 372.4,1068.55 376.245,1101.99 380.09,1135.23 383.935,1166.55 386.245,1183.8 388.556,1199.56 390.867,1213.55 393.177,1225.73 395.488,1235.94 397.799,1244.23 400.109,1250.61 402.42,1255.17 404.731,1258.1 407.041,1259.62 409.352,1259.92 411.663,1259.31 416.284,1256.35 420.905,1252.89 425.527,1250.75 430.148,1251.19 434.769,1254.83 439.391,1261.59 444.012,1270.73 448.633,1281.07 453.254,1291.23 457.876,1299.81 461.783,1305.06 465.69,1307.98 469.598,1308.38 473.505,1306.4 477.412,1302.39 481.319,1296.87 485.227,1290.52 489.134,1284.16 493.041,1278.4 496.948,1273.88 500.856,1271.01 504.763,1270.03 508.67,1270.97 512.577,1273.67 516.485,1277.74 520.392,1282.71 528.881,1294.33 537.37,1303.07 541.614,1305.53 545.858,1306.69 550.103,1306.75 554.347,1306.14 562.836,1304.77 571.325,1306.46 575.569,1308.96 579.813,1313.18 584.058,1318.46 588.302,1324.55 596.128,1336.71 603.954,1347.46 607.867,1351.75 611.78,1354.82 615.693,1356.87 619.606,1357.87 627.432,1357.72 635.258,1356.27 643.083,1355.73 650.909,1357.45 659.299,1361.64 667.69,1366.76 676.08,1370.55 684.47,1371.36 692.86,1368.96 701.25,1364.58 709.641,1360.42 718.031,1358.37 727.752,1359.67 737.472,1363.81 747.193,1368.34 756.914,1370.87 766.635,1370.93 776.356,1369.95 786.077,1370.46 795.798,1373.75 804.436,1378.85 813.075,1384.68 821.714,1389.37 830.353,1391.89 847.63,1391.22 864.908,1391.13 880.058,1395.56 895.209,1398.9 902.785,1398.45 910.36,1396.65 917.935,1394.21 925.511,1392.17 933.77,1391.3 942.029,1392.34 950.288,1394.59 958.548,1397.1 966.807,1398.84 975.066,1399.24 983.325,1398.62 991.585,1397.64 999.893,1397.32 1008.2,1398.89 1016.51,1402.03 1024.82,1405.5 1033.13,1408.6 1041.43,1410.33 1049.74,1410.43 1058.05,1409.41 1076.42,1408.64 1094.79,1412.67 1103.98,1414.63 1113.17,1414.91 1122.35,1413.26 1131.54,1411.05 1166.5,1412.89 1201.46,1413.71 1237.81,1419.01 1274.16,1420.83 1304.76,1422.66 1335.36,1424.18 1344.7,1422.48 1354.04,1421.13 1363.38,1421.04 1372.72,1422.3 1391.4,1425.55 1410.08,1424.78 1444.3,1426.22 1478.52,1429.59 1541.74,1431.79 1605.77,1432.37 1677.54,1436.01 1742.57,1437.14 1817.03,1437.75 1885.97,1440.08 1953.93,1441.51 2019.92,1441.71 2087.57,1443.09 2161.69,1444.97 2269.35,1445.62 2291.44,1445.72 "/>
<path clip-path="url(#clip160)" d="M2011.46 198.898 L2280.54 198.898 L2280.54 95.2176 L2011.46 95.2176  Z" fill="#ffffff" fill-rule="evenodd" fill-opacity="1"/>
<polyline clip-path="url(#clip160)" style="stroke:#000000; stroke-linecap:round; stroke-linejoin:round; stroke-width:4; stroke-opacity:1; fill:none" points="2011.46,198.898 2280.54,198.898 2280.54,95.2176 2011.46,95.2176 2011.46,198.898 "/>
<polyline clip-path="url(#clip160)" style="stroke:#009af9; stroke-linecap:round; stroke-linejoin:round; stroke-width:4; stroke-opacity:1; fill:none" points="2035.53,147.058 2179.97,147.058 "/>
<path clip-path="url(#clip160)" d="M2217.88 166.745 Q2216.07 171.375 2214.36 172.787 Q2212.65 174.199 2209.78 174.199 L2206.38 174.199 L2206.38 170.634 L2208.88 170.634 Q2210.63 170.634 2211.61 169.8 Q2212.58 168.967 2213.76 165.865 L2214.52 163.921 L2204.04 138.412 L2208.55 138.412 L2216.65 158.689 L2224.76 138.412 L2229.27 138.412 L2217.88 166.745 Z" fill="#000000" fill-rule="evenodd" fill-opacity="1" /><path clip-path="url(#clip160)" d="M2236.56 160.402 L2244.2 160.402 L2244.2 134.037 L2235.89 135.703 L2235.89 131.444 L2244.15 129.778 L2248.83 129.778 L2248.83 160.402 L2256.47 160.402 L2256.47 164.338 L2236.56 164.338 L2236.56 160.402 Z" fill="#000000" fill-rule="evenodd" fill-opacity="1" /></svg>
