<?xml version="1.0" encoding="utf-8"?>
<svg xmlns="http://www.w3.org/2000/svg" xmlns:xlink="http://www.w3.org/1999/xlink" width="600" height="400" viewBox="0 0 2400 1600">
<defs>
  <clipPath id="clip640">
    <rect x="0" y="0" width="2400" height="1600"/>
  </clipPath>
</defs>
<path clip-path="url(#clip640)" d="M0 1600 L2400 1600 L2400 0 L0 0  Z" fill="#ffffff" fill-rule="evenodd" fill-opacity="1"/>
<defs>
  <clipPath id="clip641">
    <rect x="480" y="0" width="1681" height="1600"/>
  </clipPath>
</defs>
<path clip-path="url(#clip640)" d="M186.274 1486.45 L2352.76 1486.45 L2352.76 47.2441 L186.274 47.2441  Z" fill="#ffffff" fill-rule="evenodd" fill-opacity="1"/>
<defs>
  <clipPath id="clip642">
    <rect x="186" y="47" width="2167" height="1440"/>
  </clipPath>
</defs>
<polyline clip-path="url(#clip642)" style="stroke:#000000; stroke-linecap:round; stroke-linejoin:round; stroke-width:2; stroke-opacity:0.1; fill:none" points="247.59,1486.45 247.59,47.2441 "/>
<polyline clip-path="url(#clip642)" style="stroke:#000000; stroke-linecap:round; stroke-linejoin:round; stroke-width:2; stroke-opacity:0.1; fill:none" points="928.873,1486.45 928.873,47.2441 "/>
<polyline clip-path="url(#clip642)" style="stroke:#000000; stroke-linecap:round; stroke-linejoin:round; stroke-width:2; stroke-opacity:0.1; fill:none" points="1610.16,1486.45 1610.16,47.2441 "/>
<polyline clip-path="url(#clip642)" style="stroke:#000000; stroke-linecap:round; stroke-linejoin:round; stroke-width:2; stroke-opacity:0.1; fill:none" points="2291.44,1486.45 2291.44,47.2441 "/>
<polyline clip-path="url(#clip640)" style="stroke:#000000; stroke-linecap:round; stroke-linejoin:round; stroke-width:4; stroke-opacity:1; fill:none" points="186.274,1486.45 2352.76,1486.45 "/>
<polyline clip-path="url(#clip640)" style="stroke:#000000; stroke-linecap:round; stroke-linejoin:round; stroke-width:4; stroke-opacity:1; fill:none" points="247.59,1486.45 247.59,1467.55 "/>
<polyline clip-path="url(#clip640)" style="stroke:#000000; stroke-linecap:round; stroke-linejoin:round; stroke-width:4; stroke-opacity:1; fill:none" points="928.873,1486.45 928.873,1467.55 "/>
<polyline clip-path="url(#clip640)" style="stroke:#000000; stroke-linecap:round; stroke-linejoin:round; stroke-width:4; stroke-opacity:1; fill:none" points="1610.16,1486.45 1610.16,1467.55 "/>
<polyline clip-path="url(#clip640)" style="stroke:#000000; stroke-linecap:round; stroke-linejoin:round; stroke-width:4; stroke-opacity:1; fill:none" points="2291.44,1486.45 2291.44,1467.55 "/>
<path clip-path="url(#clip640)" d="M247.59 1517.37 Q243.978 1517.37 242.15 1520.93 Q240.344 1524.47 240.344 1531.6 Q240.344 1538.71 242.15 1542.27 Q243.978 1545.82 247.59 1545.82 Q251.224 1545.82 253.029 1542.27 Q254.858 1538.71 254.858 1531.6 Q254.858 1524.47 253.029 1520.93 Q251.224 1517.37 247.59 1517.37 M247.59 1513.66 Q253.4 1513.66 256.455 1518.27 Q259.534 1522.85 259.534 1531.6 Q259.534 1540.33 256.455 1544.94 Q253.4 1549.52 247.59 1549.52 Q241.779 1549.52 238.701 1544.94 Q235.645 1540.33 235.645 1531.6 Q235.645 1522.85 238.701 1518.27 Q241.779 1513.66 247.59 1513.66 Z" fill="#000000" fill-rule="evenodd" fill-opacity="1" /><path clip-path="url(#clip640)" d="M903.561 1544.91 L911.2 1544.91 L911.2 1518.55 L902.889 1520.21 L902.889 1515.95 L911.153 1514.29 L915.829 1514.29 L915.829 1544.91 L923.468 1544.91 L923.468 1548.85 L903.561 1548.85 L903.561 1544.91 Z" fill="#000000" fill-rule="evenodd" fill-opacity="1" /><path clip-path="url(#clip640)" d="M942.912 1517.37 Q939.301 1517.37 937.473 1520.93 Q935.667 1524.47 935.667 1531.6 Q935.667 1538.71 937.473 1542.27 Q939.301 1545.82 942.912 1545.82 Q946.547 1545.82 948.352 1542.27 Q950.181 1538.71 950.181 1531.6 Q950.181 1524.47 948.352 1520.93 Q946.547 1517.37 942.912 1517.37 M942.912 1513.66 Q948.723 1513.66 951.778 1518.27 Q954.857 1522.85 954.857 1531.6 Q954.857 1540.33 951.778 1544.94 Q948.723 1549.52 942.912 1549.52 Q937.102 1549.52 934.024 1544.94 Q930.968 1540.33 930.968 1531.6 Q930.968 1522.85 934.024 1518.27 Q937.102 1513.66 942.912 1513.66 Z" fill="#000000" fill-rule="evenodd" fill-opacity="1" /><path clip-path="url(#clip640)" d="M1588.93 1544.91 L1605.25 1544.91 L1605.25 1548.85 L1583.31 1548.85 L1583.31 1544.91 Q1585.97 1542.16 1590.55 1537.53 Q1595.16 1532.88 1596.34 1531.53 Q1598.58 1529.01 1599.46 1527.27 Q1600.37 1525.51 1600.37 1523.82 Q1600.37 1521.07 1598.42 1519.33 Q1596.5 1517.6 1593.4 1517.6 Q1591.2 1517.6 1588.74 1518.36 Q1586.31 1519.13 1583.54 1520.68 L1583.54 1515.95 Q1586.36 1514.82 1588.81 1514.24 Q1591.27 1513.66 1593.31 1513.66 Q1598.68 1513.66 1601.87 1516.35 Q1605.06 1519.03 1605.06 1523.52 Q1605.06 1525.65 1604.25 1527.57 Q1603.47 1529.47 1601.36 1532.07 Q1600.78 1532.74 1597.68 1535.95 Q1594.58 1539.15 1588.93 1544.91 Z" fill="#000000" fill-rule="evenodd" fill-opacity="1" /><path clip-path="url(#clip640)" d="M1625.06 1517.37 Q1621.45 1517.37 1619.62 1520.93 Q1617.82 1524.47 1617.82 1531.6 Q1617.82 1538.71 1619.62 1542.27 Q1621.45 1545.82 1625.06 1545.82 Q1628.7 1545.82 1630.5 1542.27 Q1632.33 1538.71 1632.33 1531.6 Q1632.33 1524.47 1630.5 1520.93 Q1628.7 1517.37 1625.06 1517.37 M1625.06 1513.66 Q1630.87 1513.66 1633.93 1518.27 Q1637.01 1522.85 1637.01 1531.6 Q1637.01 1540.33 1633.93 1544.94 Q1630.87 1549.52 1625.06 1549.52 Q1619.25 1549.52 1616.18 1544.94 Q1613.12 1540.33 1613.12 1531.6 Q1613.12 1522.85 1616.18 1518.27 Q1619.25 1513.66 1625.06 1513.66 Z" fill="#000000" fill-rule="evenodd" fill-opacity="1" /><path clip-path="url(#clip640)" d="M2280.28 1530.21 Q2283.64 1530.93 2285.51 1533.2 Q2287.41 1535.47 2287.41 1538.8 Q2287.41 1543.92 2283.89 1546.72 Q2280.38 1549.52 2273.89 1549.52 Q2271.72 1549.52 2269.4 1549.08 Q2267.11 1548.66 2264.66 1547.81 L2264.66 1543.29 Q2266.6 1544.43 2268.92 1545.01 Q2271.23 1545.58 2273.76 1545.58 Q2278.15 1545.58 2280.45 1543.85 Q2282.76 1542.11 2282.76 1538.8 Q2282.76 1535.75 2280.61 1534.03 Q2278.48 1532.3 2274.66 1532.3 L2270.63 1532.3 L2270.63 1528.45 L2274.84 1528.45 Q2278.29 1528.45 2280.12 1527.09 Q2281.95 1525.7 2281.95 1523.11 Q2281.95 1520.45 2280.05 1519.03 Q2278.18 1517.6 2274.66 1517.6 Q2272.74 1517.6 2270.54 1518.01 Q2268.34 1518.43 2265.7 1519.31 L2265.7 1515.14 Q2268.36 1514.4 2270.68 1514.03 Q2273.01 1513.66 2275.07 1513.66 Q2280.4 1513.66 2283.5 1516.09 Q2286.6 1518.5 2286.6 1522.62 Q2286.6 1525.49 2284.96 1527.48 Q2283.32 1529.45 2280.28 1530.21 Z" fill="#000000" fill-rule="evenodd" fill-opacity="1" /><path clip-path="url(#clip640)" d="M2306.28 1517.37 Q2302.67 1517.37 2300.84 1520.93 Q2299.03 1524.47 2299.03 1531.6 Q2299.03 1538.71 2300.84 1542.27 Q2302.67 1545.82 2306.28 1545.82 Q2309.91 1545.82 2311.72 1542.27 Q2313.55 1538.71 2313.55 1531.6 Q2313.55 1524.47 2311.72 1520.93 Q2309.91 1517.37 2306.28 1517.37 M2306.28 1513.66 Q2312.09 1513.66 2315.14 1518.27 Q2318.22 1522.85 2318.22 1531.6 Q2318.22 1540.33 2315.14 1544.94 Q2312.09 1549.52 2306.28 1549.52 Q2300.47 1549.52 2297.39 1544.94 Q2294.33 1540.33 2294.33 1531.6 Q2294.33 1522.85 2297.39 1518.27 Q2300.47 1513.66 2306.28 1513.66 Z" fill="#000000" fill-rule="evenodd" fill-opacity="1" /><polyline clip-path="url(#clip642)" style="stroke:#000000; stroke-linecap:round; stroke-linejoin:round; stroke-width:2; stroke-opacity:0.1; fill:none" points="186.274,1445.72 2352.76,1445.72 "/>
<polyline clip-path="url(#clip642)" style="stroke:#000000; stroke-linecap:round; stroke-linejoin:round; stroke-width:2; stroke-opacity:0.1; fill:none" points="186.274,1010.7 2352.76,1010.7 "/>
<polyline clip-path="url(#clip642)" style="stroke:#000000; stroke-linecap:round; stroke-linejoin:round; stroke-width:2; stroke-opacity:0.1; fill:none" points="186.274,575.684 2352.76,575.684 "/>
<polyline clip-path="url(#clip642)" style="stroke:#000000; stroke-linecap:round; stroke-linejoin:round; stroke-width:2; stroke-opacity:0.1; fill:none" points="186.274,140.669 2352.76,140.669 "/>
<polyline clip-path="url(#clip640)" style="stroke:#000000; stroke-linecap:round; stroke-linejoin:round; stroke-width:4; stroke-opacity:1; fill:none" points="186.274,1486.45 186.274,47.2441 "/>
<polyline clip-path="url(#clip640)" style="stroke:#000000; stroke-linecap:round; stroke-linejoin:round; stroke-width:4; stroke-opacity:1; fill:none" points="186.274,1445.72 205.172,1445.72 "/>
<polyline clip-path="url(#clip640)" style="stroke:#000000; stroke-linecap:round; stroke-linejoin:round; stroke-width:4; stroke-opacity:1; fill:none" points="186.274,1010.7 205.172,1010.7 "/>
<polyline clip-path="url(#clip640)" style="stroke:#000000; stroke-linecap:round; stroke-linejoin:round; stroke-width:4; stroke-opacity:1; fill:none" points="186.274,575.684 205.172,575.684 "/>
<polyline clip-path="url(#clip640)" style="stroke:#000000; stroke-linecap:round; stroke-linejoin:round; stroke-width:4; stroke-opacity:1; fill:none" points="186.274,140.669 205.172,140.669 "/>
<path clip-path="url(#clip640)" d="M62.9365 1431.51 Q59.3254 1431.51 57.4967 1435.08 Q55.6912 1438.62 55.6912 1445.75 Q55.6912 1452.86 57.4967 1456.42 Q59.3254 1459.96 62.9365 1459.96 Q66.5707 1459.96 68.3763 1456.42 Q70.205 1452.86 70.205 1445.75 Q70.205 1438.62 68.3763 1435.08 Q66.5707 1431.51 62.9365 1431.51 M62.9365 1427.81 Q68.7467 1427.81 71.8022 1432.42 Q74.8809 1437 74.8809 1445.75 Q74.8809 1454.48 71.8022 1459.08 Q68.7467 1463.67 62.9365 1463.67 Q57.1264 1463.67 54.0477 1459.08 Q50.9921 1454.48 50.9921 1445.75 Q50.9921 1437 54.0477 1432.42 Q57.1264 1427.81 62.9365 1427.81 Z" fill="#000000" fill-rule="evenodd" fill-opacity="1" /><path clip-path="url(#clip640)" d="M83.0984 1457.12 L87.9827 1457.12 L87.9827 1463 L83.0984 1463 L83.0984 1457.12 Z" fill="#000000" fill-rule="evenodd" fill-opacity="1" /><path clip-path="url(#clip640)" d="M108.168 1431.51 Q104.557 1431.51 102.728 1435.08 Q100.922 1438.62 100.922 1445.75 Q100.922 1452.86 102.728 1456.42 Q104.557 1459.96 108.168 1459.96 Q111.802 1459.96 113.608 1456.42 Q115.436 1452.86 115.436 1445.75 Q115.436 1438.62 113.608 1435.08 Q111.802 1431.51 108.168 1431.51 M108.168 1427.81 Q113.978 1427.81 117.033 1432.42 Q120.112 1437 120.112 1445.75 Q120.112 1454.48 117.033 1459.08 Q113.978 1463.67 108.168 1463.67 Q102.358 1463.67 99.2789 1459.08 Q96.2234 1454.48 96.2234 1445.75 Q96.2234 1437 99.2789 1432.42 Q102.358 1427.81 108.168 1427.81 Z" fill="#000000" fill-rule="evenodd" fill-opacity="1" /><path clip-path="url(#clip640)" d="M138.33 1431.51 Q134.719 1431.51 132.89 1435.08 Q131.084 1438.62 131.084 1445.75 Q131.084 1452.86 132.89 1456.42 Q134.719 1459.96 138.33 1459.96 Q141.964 1459.96 143.769 1456.42 Q145.598 1452.86 145.598 1445.75 Q145.598 1438.62 143.769 1435.08 Q141.964 1431.51 138.33 1431.51 M138.33 1427.81 Q144.14 1427.81 147.195 1432.42 Q150.274 1437 150.274 1445.75 Q150.274 1454.48 147.195 1459.08 Q144.14 1463.67 138.33 1463.67 Q132.519 1463.67 129.441 1459.08 Q126.385 1454.48 126.385 1445.75 Q126.385 1437 129.441 1432.42 Q132.519 1427.81 138.33 1427.81 Z" fill="#000000" fill-rule="evenodd" fill-opacity="1" /><path clip-path="url(#clip640)" d="M63.9319 996.499 Q60.3208 996.499 58.4921 1000.06 Q56.6865 1003.61 56.6865 1010.73 Q56.6865 1017.84 58.4921 1021.41 Q60.3208 1024.95 63.9319 1024.95 Q67.5661 1024.95 69.3717 1021.41 Q71.2004 1017.84 71.2004 1010.73 Q71.2004 1003.61 69.3717 1000.06 Q67.5661 996.499 63.9319 996.499 M63.9319 992.795 Q69.742 992.795 72.7976 997.401 Q75.8763 1001.98 75.8763 1010.73 Q75.8763 1019.46 72.7976 1024.07 Q69.742 1028.65 63.9319 1028.65 Q58.1217 1028.65 55.043 1024.07 Q51.9875 1019.46 51.9875 1010.73 Q51.9875 1001.98 55.043 997.401 Q58.1217 992.795 63.9319 992.795 Z" fill="#000000" fill-rule="evenodd" fill-opacity="1" /><path clip-path="url(#clip640)" d="M84.0938 1022.1 L88.978 1022.1 L88.978 1027.98 L84.0938 1027.98 L84.0938 1022.1 Z" fill="#000000" fill-rule="evenodd" fill-opacity="1" /><path clip-path="url(#clip640)" d="M109.163 996.499 Q105.552 996.499 103.723 1000.06 Q101.918 1003.61 101.918 1010.73 Q101.918 1017.84 103.723 1021.41 Q105.552 1024.95 109.163 1024.95 Q112.797 1024.95 114.603 1021.41 Q116.432 1017.84 116.432 1010.73 Q116.432 1003.61 114.603 1000.06 Q112.797 996.499 109.163 996.499 M109.163 992.795 Q114.973 992.795 118.029 997.401 Q121.107 1001.98 121.107 1010.73 Q121.107 1019.46 118.029 1024.07 Q114.973 1028.65 109.163 1028.65 Q103.353 1028.65 100.274 1024.07 Q97.2187 1019.46 97.2187 1010.73 Q97.2187 1001.98 100.274 997.401 Q103.353 992.795 109.163 992.795 Z" fill="#000000" fill-rule="evenodd" fill-opacity="1" /><path clip-path="url(#clip640)" d="M129.371 993.42 L147.728 993.42 L147.728 997.355 L133.654 997.355 L133.654 1005.83 Q134.672 1005.48 135.691 1005.32 Q136.709 1005.13 137.728 1005.13 Q143.515 1005.13 146.894 1008.3 Q150.274 1011.48 150.274 1016.89 Q150.274 1022.47 146.802 1025.57 Q143.33 1028.65 137.01 1028.65 Q134.834 1028.65 132.566 1028.28 Q130.32 1027.91 127.913 1027.17 L127.913 1022.47 Q129.996 1023.61 132.219 1024.16 Q134.441 1024.72 136.918 1024.72 Q140.922 1024.72 143.26 1022.61 Q145.598 1020.5 145.598 1016.89 Q145.598 1013.28 143.26 1011.17 Q140.922 1009.07 136.918 1009.07 Q135.043 1009.07 133.168 1009.48 Q131.316 1009.9 129.371 1010.78 L129.371 993.42 Z" fill="#000000" fill-rule="evenodd" fill-opacity="1" /><path clip-path="url(#clip640)" d="M62.9365 561.483 Q59.3254 561.483 57.4967 565.048 Q55.6912 568.589 55.6912 575.719 Q55.6912 582.825 57.4967 586.39 Q59.3254 589.932 62.9365 589.932 Q66.5707 589.932 68.3763 586.39 Q70.205 582.825 70.205 575.719 Q70.205 568.589 68.3763 565.048 Q66.5707 561.483 62.9365 561.483 M62.9365 557.779 Q68.7467 557.779 71.8022 562.386 Q74.8809 566.969 74.8809 575.719 Q74.8809 584.446 71.8022 589.052 Q68.7467 593.636 62.9365 593.636 Q57.1264 593.636 54.0477 589.052 Q50.9921 584.446 50.9921 575.719 Q50.9921 566.969 54.0477 562.386 Q57.1264 557.779 62.9365 557.779 Z" fill="#000000" fill-rule="evenodd" fill-opacity="1" /><path clip-path="url(#clip640)" d="M83.0984 587.085 L87.9827 587.085 L87.9827 592.964 L83.0984 592.964 L83.0984 587.085 Z" fill="#000000" fill-rule="evenodd" fill-opacity="1" /><path clip-path="url(#clip640)" d="M98.978 589.029 L106.617 589.029 L106.617 562.664 L98.3067 564.33 L98.3067 560.071 L106.571 558.404 L111.246 558.404 L111.246 589.029 L118.885 589.029 L118.885 592.964 L98.978 592.964 L98.978 589.029 Z" fill="#000000" fill-rule="evenodd" fill-opacity="1" /><path clip-path="url(#clip640)" d="M138.33 561.483 Q134.719 561.483 132.89 565.048 Q131.084 568.589 131.084 575.719 Q131.084 582.825 132.89 586.39 Q134.719 589.932 138.33 589.932 Q141.964 589.932 143.769 586.39 Q145.598 582.825 145.598 575.719 Q145.598 568.589 143.769 565.048 Q141.964 561.483 138.33 561.483 M138.33 557.779 Q144.14 557.779 147.195 562.386 Q150.274 566.969 150.274 575.719 Q150.274 584.446 147.195 589.052 Q144.14 593.636 138.33 593.636 Q132.519 593.636 129.441 589.052 Q126.385 584.446 126.385 575.719 Q126.385 566.969 129.441 562.386 Q132.519 557.779 138.33 557.779 Z" fill="#000000" fill-rule="evenodd" fill-opacity="1" /><path clip-path="url(#clip640)" d="M63.9319 126.467 Q60.3208 126.467 58.4921 130.032 Q56.6865 133.574 56.6865 140.703 Q56.6865 147.81 58.4921 151.375 Q60.3208 154.916 63.9319 154.916 Q67.5661 154.916 69.3717 151.375 Q71.2004 147.81 71.2004 140.703 Q71.2004 133.574 69.3717 130.032 Q67.5661 126.467 63.9319 126.467 M63.9319 122.764 Q69.742 122.764 72.7976 127.37 Q75.8763 131.953 75.8763 140.703 Q75.8763 149.43 72.7976 154.037 Q69.742 158.62 63.9319 158.62 Q58.1217 158.62 55.043 154.037 Q51.9875 149.43 51.9875 140.703 Q51.9875 131.953 55.043 127.37 Q58.1217 122.764 63.9319 122.764 Z" fill="#000000" fill-rule="evenodd" fill-opacity="1" /><path clip-path="url(#clip640)" d="M84.0938 152.069 L88.978 152.069 L88.978 157.949 L84.0938 157.949 L84.0938 152.069 Z" fill="#000000" fill-rule="evenodd" fill-opacity="1" /><path clip-path="url(#clip640)" d="M99.9733 154.013 L107.612 154.013 L107.612 127.648 L99.3021 129.315 L99.3021 125.055 L107.566 123.389 L112.242 123.389 L112.242 154.013 L119.881 154.013 L119.881 157.949 L99.9733 157.949 L99.9733 154.013 Z" fill="#000000" fill-rule="evenodd" fill-opacity="1" /><path clip-path="url(#clip640)" d="M129.371 123.389 L147.728 123.389 L147.728 127.324 L133.654 127.324 L133.654 135.796 Q134.672 135.449 135.691 135.287 Q136.709 135.102 137.728 135.102 Q143.515 135.102 146.894 138.273 Q150.274 141.444 150.274 146.861 Q150.274 152.439 146.802 155.541 Q143.33 158.62 137.01 158.62 Q134.834 158.62 132.566 158.25 Q130.32 157.879 127.913 157.138 L127.913 152.439 Q129.996 153.574 132.219 154.129 Q134.441 154.685 136.918 154.685 Q140.922 154.685 143.26 152.578 Q145.598 150.472 145.598 146.861 Q145.598 143.25 143.26 141.143 Q140.922 139.037 136.918 139.037 Q135.043 139.037 133.168 139.453 Q131.316 139.87 129.371 140.75 L129.371 123.389 Z" fill="#000000" fill-rule="evenodd" fill-opacity="1" /><polyline clip-path="url(#clip642)" style="stroke:#009af9; stroke-linecap:round; stroke-linejoin:round; stroke-width:4; stroke-opacity:1; fill:none" points="247.59,1445.72 248.005,1444.42 248.421,1440.54 248.837,1434.09 249.253,1425.1 249.669,1413.62 250.085,1399.7 250.5,1383.4 250.916,1364.8 251.332,1343.99 251.748,1321.07 252.164,1296.14 252.579,1269.32 252.995,1240.74 253.411,1210.53 253.827,1178.83 254.243,1145.78 255.074,1076.3 255.906,1003.37 256.738,928.337 257.569,852.596 258.401,777.536 259.233,704.528 259.649,669.21 260.064,634.896 260.48,601.74 260.896,569.89 261.857,502.027 262.819,443.462 263.78,395.522 264.741,359.249 265.702,335.369 266.664,324.281 267.625,326.038 268.586,340.355 269.547,366.624 270.509,403.911 271.47,451.001 272.431,506.421 273.392,568.485 274.353,635.334 275.315,704.993 276.276,775.417 277.237,844.549 278.198,910.373 279.16,970.967 280.121,1024.56 281.082,1069.55 282.043,1104.61 283.005,1128.64 283.966,1140.85 284.927,1140.79 285.888,1128.29 286.85,1103.55 287.811,1067.08 288.772,1019.7 289.733,962.521 290.695,896.898 291.656,824.423 292.617,746.858 293.578,666.098 294.539,584.121 295.501,502.923 296.462,424.491 297.423,350.727 298.384,283.404 299.346,224.133 300.307,174.3 301.268,135.056 302.229,107.262 303.191,91.4839 304.152,87.9763 305.113,96.6809 306.074,117.198 307.036,148.866 307.997,190.714 308.958,241.522 309.919,299.842 310.881,364.046 311.842,432.364 312.803,502.934 313.764,573.851 314.725,643.212 315.687,709.18 316.648,770.02 317.609,824.113 318.57,870.096 319.532,906.782 320.493,933.244 321.454,948.857 322.415,953.249 323.377,946.375 324.338,928.479 325.299,900.092 326.26,862.02 327.222,815.314 328.183,761.248 329.144,701.274 330.105,636.992 331.067,570.101 332.028,502.351 332.989,435.5 333.95,371.26 334.912,311.278 335.873,257.053 336.834,209.925 337.795,171.033 338.756,141.288 339.718,121.35 340.679,111.608 341.64,112.192 342.601,122.943 343.563,143.438 344.524,173 345.485,210.721 346.446,255.484 347.408,305.999 348.369,360.842 349.33,418.45 350.291,477.28 351.253,535.708 352.214,592.166 353.175,645.159 354.136,693.293 355.098,735.312 356.059,770.153 357.02,796.96 357.981,815.092 358.942,824.151 359.904,823.988 360.865,814.705 361.826,796.647 362.787,770.393 363.749,736.731 364.71,696.645 365.671,651.28 366.632,601.907 367.594,549.894 368.555,496.667 369.516,443.657 370.477,392.289 371.439,343.915 372.4,299.796 373.361,261.065 374.322,228.692 375.284,203.456 376.245,185.968 377.206,176.591 378.167,175.474 379.129,182.545 380.09,197.509 381.051,219.866 382.012,248.923 382.973,283.821 383.935,323.509 385.09,376.004 386.245,431.714 387.401,488.438 388.556,543.963 389.134,570.607 389.711,596.166 390.289,620.397 390.867,643.084 391.444,664.015 392.022,683.004 392.6,699.883 393.177,714.506 393.755,726.751 394.333,736.522 394.91,743.746 395.488,748.376 396.066,750.391 396.643,749.797 397.221,746.624 397.799,740.928 398.376,732.787 398.954,722.307 399.532,709.615 400.109,694.853 400.687,678.185 401.265,659.793 401.842,639.865 402.42,618.627 403.575,573.077 404.731,524.984 405.886,476.258 407.041,428.783 407.619,406.08 408.197,384.352 408.774,363.799 409.352,344.599 409.93,326.914 410.507,310.908 411.085,296.712 411.663,284.434 412.24,274.165 412.818,265.975 413.396,259.91 413.973,255.997 414.551,254.239 415.129,254.617 415.706,257.09 416.284,261.597 416.862,268.057 417.439,276.369 418.017,286.41 418.595,298.047 419.172,311.119 419.75,325.488 420.328,340.971 420.905,357.376 423.216,428.384 425.527,498.485 426.104,514.442 426.682,529.429 427.26,543.293 427.837,555.895 428.415,567.113 428.993,576.838 429.57,584.981 430.148,591.47 430.726,596.253 431.303,599.295 431.881,600.582 432.459,600.117 433.036,597.923 433.614,594.041 434.192,588.534 434.769,581.487 435.347,572.985 435.925,563.133 436.502,552.054 437.08,539.884 438.235,512.826 439.391,483.278 440.546,452.535 441.701,422.007 442.856,393.013 444.012,366.839 444.589,355.153 445.167,344.58 445.745,335.239 446.322,327.216 446.9,320.596 447.478,315.446 448.055,311.816 448.633,309.741 449.211,309.238 449.788,310.308 450.366,312.933 450.944,317.082 451.521,322.708 452.099,329.752 452.677,338.089 453.254,347.678 454.41,370.114 455.565,396.097 456.72,424.473 457.876,454.097 458.853,479.177 459.829,503.489 460.806,526.347 461.783,547.116 462.271,556.528 462.76,565.195 463.248,573.072 463.737,580.103 464.225,586.244 464.713,591.459 465.202,595.717 465.69,598.998 466.179,601.27 466.667,602.551 467.156,602.845 467.644,602.137 468.132,600.469 468.621,597.843 469.109,593.677 469.598,589.885 470.574,578.612 471.551,564.41 472.528,547.947 473.505,529.638 475.458,490.362 477.412,451.919 478.389,434.608 479.366,419.359 480.343,406.987 481.319,396.902 481.808,393.234 482.296,390.408 482.785,388.446 483.273,387.361 483.761,387.157 484.25,387.835 484.738,389.383 485.227,391.786 486.203,399.056 487.18,409.376 488.157,422.413 489.134,437.552 491.088,472.317 493.041,508.804 494.018,526.067 494.995,541.826 495.972,555.489 496.948,566.557 497.925,574.582 498.902,578.489 499.39,580.181 499.879,580.213 500.367,579.306 500.856,577.448 501.832,570.915 502.809,560.728 503.298,554.346 503.786,547.142 504.275,539.166 504.763,530.472 505.74,511.17 506.717,489.763 507.693,466.893 508.67,443.149 509.647,419.281 510.624,396.018 511.601,374.038 512.577,353.969 513.066,344.859 513.554,336.461 514.043,328.846 514.531,322.077 515.02,316.345 515.508,311.294 515.996,307.307 516.485,304.382 516.973,302.503 517.462,301.689 517.95,301.952 518.438,303.288 518.927,305.716 519.415,309.214 519.904,313.764 520.392,319.329 520.923,326.481 521.453,334.743 521.984,344.047 522.514,354.353 523.575,377.374 524.636,403.218 526.759,459.565 528.881,515.883 529.942,541.643 531.003,564.486 531.534,574.622 532.064,583.763 532.595,591.843 533.125,598.744 533.656,604.447 534.186,608.895 534.717,612.046 535.247,613.871 535.778,614.354 536.308,613.423 536.839,611.255 537.37,607.75 537.9,602.926 538.431,596.852 538.961,589.581 539.492,581.175 540.022,571.707 540.553,561.261 541.083,549.932 541.614,537.425 542.675,511.648 543.736,483.728 544.797,455.026 545.858,426.549 546.919,399.425 547.98,374.541 548.511,363.245 549.042,352.856 549.572,343.472 550.103,335.195 550.633,328.126 551.164,322.262 551.694,317.734 552.225,314.565 552.755,312.792 553.286,312.439 553.817,313.495 554.347,316.026 554.878,320.019 555.408,325.388 555.939,332.122 556.469,340.174 557,349.486 557.53,359.963 558.061,371.613 558.591,383.648 559.653,412.187 560.714,442.805 561.775,475.235 562.836,508.355 563.897,541.043 564.958,572.208 566.019,600.794 567.08,625.804 567.611,636.699 568.141,646.386 568.672,654.772 569.202,661.789 569.733,667.361 570.264,671.444 570.794,673.995 571.325,674.988 571.855,674.414 572.386,672.198 572.916,668.194 573.447,663.218 573.977,656.424 574.508,648.172 575.038,638.521 575.569,627.545 576.1,615.325 576.63,601.945 577.161,587.534 577.691,572.191 578.752,539.231 579.813,504.072 580.874,467.833 581.936,431.77 582.997,396.934 584.058,364.491 584.588,349.495 585.119,335.481 585.649,322.586 586.18,310.926 586.711,300.479 587.241,291.481 587.772,283.92 588.302,277.871 588.791,273.673 589.28,270.763 589.77,269.371 590.259,269.332 590.748,270.658 591.237,273.356 591.726,277.409 592.215,282.788 592.704,289.453 593.193,297.155 593.682,306.491 594.172,316.703 594.661,327.925 595.15,340.155 595.639,353.3 596.128,367.173 597.106,396.933 598.085,428.59 599.063,461.28 600.041,494.091 601.019,526.057 601.997,556.303 602.976,583.972 603.954,608.313 604.443,619.039 604.932,628.616 605.421,637.07 605.91,644.318 606.4,650.308 606.889,654.998 607.378,658.361 607.867,660.349 608.356,660.993 608.845,660.246 609.334,658.133 609.823,654.673 610.312,649.89 610.802,643.817 611.291,636.5 611.78,627.991 612.269,618.345 612.758,607.626 613.247,595.92 613.736,583.28 614.715,555.786 615.693,525.777 617.649,461.823 619.606,398.596 620.584,369.466 621.562,343.201 622.051,331.328 622.54,320.422 623.03,310.567 623.519,301.811 624.008,294.222 624.497,287.834 624.986,282.668 625.475,278.971 625.964,276.514 626.453,275.394 626.942,275.624 627.432,277.202 627.921,280.115 628.41,284.334 628.899,289.834 629.388,296.717 629.877,304.574 630.366,313.644 630.855,323.826 631.345,334.994 632.323,359.965 633.301,387.958 634.279,418.137 635.258,449.761 636.236,481.699 637.214,513.38 638.192,543.584 639.17,571.777 639.66,584.856 640.149,597.044 640.638,608.407 641.127,618.778 641.616,628.106 642.105,636.329 642.594,643.393 643.083,649.269 643.573,653.896 644.062,657.234 644.551,659.294 645.04,660.058 645.529,659.523 646.018,657.696 646.507,654.594 646.996,650.243 647.485,644.678 647.975,637.944 648.464,630.063 648.953,621.121 649.442,611.207 649.931,600.366 650.42,588.67 650.909,576.214 651.958,547.362 653.007,516.402 654.056,484.288 655.104,452.078 656.153,420.771 657.202,391.48 658.251,365.018 659.299,342.187 659.824,332.37 660.348,323.511 660.873,316.306 661.397,310.189 661.921,305.386 662.446,301.939 662.97,299.869 663.495,299.187 664.019,299.889 664.543,301.919 665.068,305.474 665.592,310.149 666.117,316.137 666.641,323.383 667.165,331.711 667.69,341.128 668.738,362.872 669.787,387.824 670.836,415.122 671.885,443.866 672.934,473.131 673.982,501.898 675.031,529.325 676.08,554.47 676.604,565.967 677.129,576.608 677.653,586.311 678.177,594.962 678.702,602.679 679.226,609.136 679.751,614.484 680.275,618.578 680.799,621.486 681.324,623.128 681.848,623.53 682.372,622.685 682.897,620.611 683.421,617.335 683.946,612.854 684.47,607.244 685.519,592.916 686.568,574.812 687.616,553.606 688.665,530.046 690.763,478.986 692.86,428.445 693.909,405.445 694.958,384.893 695.482,375.75 696.007,367.252 696.531,360.077 697.055,353.673 697.58,348.264 698.104,343.895 698.628,340.593 699.153,338.376 699.677,337.25 700.202,337.134 700.726,338.33 701.25,340.434 701.775,343.552 702.299,347.736 702.824,352.744 703.348,358.707 704.397,373.107 705.446,390.279 707.543,430.382 709.641,473.217 710.689,493.83 711.738,512.989 712.787,529.92 713.836,544.213 714.36,550.226 714.884,555.39 715.409,559.535 715.933,563.075 716.458,565.576 716.982,567.097 717.506,567.698 718.031,567.37 718.638,565.798 719.246,563.014 719.853,559.108 720.461,554.043 721.069,547.938 721.676,540.882 722.284,533.014 722.891,524.352 725.321,484.409 727.752,441.955 728.967,422.555 730.182,405.309 730.789,397.834 731.397,391.247 732.005,385.408 732.612,380.976 733.22,377.415 733.827,374.949 734.435,373.605 735.042,373.389 735.65,374.346 736.257,376.452 736.865,379.501 737.472,383.657 738.688,394.879 739.903,409.394 741.118,426.621 742.333,445.696 743.548,465.603 744.763,485.525 745.978,504.495 747.193,521.621 747.801,529.257 748.408,536.158 749.016,542.254 749.624,547.463 750.231,551.843 750.839,555.098 751.446,557.427 752.054,558.743 752.661,559.04 753.269,558.324 753.876,556.601 754.484,553.944 755.092,550.387 755.699,545.926 756.307,540.503 756.914,534.704 758.129,520.934 759.344,505.309 760.56,488.724 761.775,471.961 762.99,455.973 764.205,441.374 765.42,429.3 766.635,419.607 767.243,416.004 767.85,413.401 768.458,411.633 769.065,410.763 769.673,410.805 770.28,411.754 770.888,413.591 771.495,416.113 772.711,424.312 773.926,434.748 775.141,447.612 776.356,461.883 777.571,476.909 778.786,491.772 780.001,505.666 781.216,517.816 782.431,527.446 783.647,533.952 784.254,535.888 784.862,536.911 785.469,536.986 786.077,536.049 786.684,534.123 787.292,531.314 787.899,527.425 788.507,522.651 789.722,510.51 790.937,495.253 792.152,477.515 793.367,458.307 794.582,438.06 795.798,418.127 796.877,401.093 797.957,385.476 799.037,370.192 800.117,360.791 801.197,352.704 802.277,347.709 802.817,346.566 803.357,346.053 803.896,347.317 804.436,348.351 805.516,353.957 806.596,362.826 807.676,374.944 808.756,389.808 810.915,424.37 813.075,462.705 814.155,481.564 815.235,499.06 816.315,514.776 817.394,528.192 818.474,538.702 819.554,545.852 820.094,548.055 820.634,549.393 821.174,549.831 821.714,549.342 822.254,547.863 822.794,545.485 823.334,542.31 823.874,538.209 824.413,533.274 824.953,527.594 825.493,521.14 826.033,514.021 827.113,498.049 828.193,480.483 829.273,461.732 830.353,442.552 831.432,423.92 832.512,406.294 833.592,390.535 834.672,377.215 835.212,371.769 835.752,367.128 836.292,363.23 836.832,360.664 837.372,358.618 837.911,357.736 838.451,357.834 838.991,358.828 839.531,361.497 840.071,364.557 840.611,368.844 841.151,374.118 841.691,380.344 842.231,387.358 842.771,395.622 843.311,404.619 844.391,424.251 845.47,446.35 846.55,470.085 847.63,494.697 848.71,519.644 849.79,543.201 850.87,565.417 851.949,585.338 852.489,594.165 853.029,602.138 853.569,608.568 854.109,615.119 854.649,620.117 855.189,624.025 855.729,626.807 856.269,627.942 856.809,628.896 857.349,628.134 857.889,626.206 858.429,623.104 858.968,618.85 859.508,613.475 860.048,607.016 860.588,599.461 861.668,581.736 862.748,560.534 863.828,536.715 864.908,511.117 866.801,464.281 868.695,418.994 869.642,398.424 870.589,379.927 871.536,365.619 872.483,351.295 872.956,346.02 873.43,341.694 873.903,338.201 874.377,336.703 874.85,333.153 875.324,333.199 875.797,333.492 876.271,334.645 877.218,339.688 878.165,348.012 878.638,354.139 879.111,360.453 879.585,367.272 880.058,375.061 881.005,392.708 881.952,411.821 882.899,432.936 883.846,454.848 885.74,499.198 887.634,540.308 888.581,558.011 889.528,573.38 890.475,585.773 891.421,594.915 891.895,598.186 892.368,600.552 892.842,601.973 893.315,602.398 893.789,602.138 894.262,600.545 894.736,598.082 895.209,594.986 896.156,585.619 897.103,573.088 898.05,557.338 898.997,538.912 899.944,518.355 900.891,496.141 901.838,472.627 902.785,448.868 903.732,425.054 904.678,401.968 905.625,380.155 906.572,360.329 907.046,351.444 907.519,342.859 907.993,335.137 908.466,328.606 908.94,322.091 909.413,316.835 909.887,312.511 910.36,309.02 910.833,305.198 911.307,304.824 911.78,304.205 912.254,304.294 912.727,305.771 913.201,307.886 913.674,310.929 914.148,315.671 915.095,326.024 916.042,339.799 916.988,356.481 917.935,375.925 919.829,419.166 921.723,465.682 922.67,489.15 923.617,510.274 924.564,530.47 925.511,548.453 926.027,557.183 926.543,565.465 927.059,572.039 927.576,578.053 928.092,583.076 928.608,587.001 929.124,589.803 929.64,591.58 930.157,592.338 930.673,591.914 931.189,590.375 931.705,587.779 932.221,584.071 932.738,579.323 933.254,573.595 933.77,566.888 934.802,550.956 935.835,531.893 936.867,510.69 937.9,487.581 939.964,438.985 942.029,392.367 943.062,371.671 944.094,353.86 944.61,345.938 945.126,338.322 945.643,332.856 946.159,327.672 946.675,322.247 947.191,320.332 947.707,318.408 948.224,317.355 948.74,316.96 949.256,318.585 949.772,323.824 950.288,324.106 950.805,328.456 951.321,333.739 951.837,339.779 952.353,346.848 953.386,363.546 954.418,382.827 955.45,404.484 956.483,427.251 957.515,450.667 958.548,476.079 959.58,499.662 960.612,522.087 961.645,542.427 962.677,560.357 963.193,568.216 963.71,575.34 964.226,582.041 964.742,585.099 965.258,591.243 965.774,594.711 966.291,597.214 966.807,598.779 967.323,599.003 967.839,599.101 968.356,597.632 968.872,595.358 969.904,588.099 970.937,577.571 971.969,564.274 973.001,548.568 974.034,531.087 975.066,512.388 977.131,474 979.196,438.723 980.228,423.256 981.261,411.119 982.293,401.171 983.325,394.539 983.842,392.401 984.358,391.081 984.874,390.499 985.39,391.085 986.423,394.583 987.455,401.147 988.487,410.304 989.52,422.978 990.552,436.914 991.585,452.938 993.662,488.151 995.739,523.332 996.777,539.621 997.816,553.695 998.854,565.993 999.893,575.549 1000.93,582.327 1001.97,586.23 1002.49,586.619 1003.01,586.403 1003.53,585.461 1004.05,583.698 1005.09,576.733 1006.12,569.021 1007.16,558.411 1008.2,544.219 1009.24,528.821 1010.28,512.289 1011.32,494.901 1012.36,477.251 1013.39,459.878 1014.43,443.556 1015.47,428.569 1016.51,415.315 1017.55,404.066 1018.59,394.97 1019.63,389.007 1020.66,385.409 1021.7,385.012 1022.74,386.825 1023.78,391.194 1024.82,397.806 1025.86,406.72 1026.89,416.319 1027.93,427.642 1028.97,439.446 1031.05,463.149 1033.13,484.043 1034.16,492.412 1035.2,498.956 1036.24,503.452 1037.28,505.747 1038.32,505.872 1039.36,503.726 1040.4,499.333 1041.43,493.092 1042.47,485.36 1043.51,476.253 1044.55,465.942 1045.59,455.287 1047.67,433.648 1049.74,414.731 1050.78,407.366 1051.82,401.965 1052.86,398.351 1053.9,396.408 1054.94,396.841 1055.97,400.306 1057.01,405.739 1058.05,412.927 1059.2,423.015 1060.35,434.316 1061.5,448.246 1062.64,462.463 1063.79,476.769 1064.94,490.726 1066.09,503.788 1067.24,515.417 1068.39,525.016 1069.53,532.28 1070.68,536.933 1071.83,538.845 1072.98,537.508 1074.13,533.634 1075.27,527.168 1076.42,518.297 1077.57,507.11 1078.72,495.236 1079.87,482.134 1081.02,468.704 1082.16,455.546 1083.31,443.293 1084.46,432.473 1085.61,424.075 1086.76,417.346 1087.91,413.677 1089.05,412.744 1090.2,414.729 1091.35,419.666 1092.5,427.571 1093.65,437.661 1094.79,449.685 1097.09,477.542 1099.39,506.832 1100.54,519.945 1101.68,531.665 1102.83,541.209 1103.98,548.268 1105.13,552.225 1106.28,552.898 1107.43,550.316 1108.57,544.629 1109.72,535.697 1110.87,524.002 1112.02,509.749 1113.17,494.145 1115.46,459.647 1117.76,426.104 1118.91,411.363 1120.06,398.788 1121.2,389.392 1122.35,382.831 1122.93,381.147 1123.5,380.294 1124.07,380.312 1124.65,381.019 1125.22,382.693 1125.8,384.842 1126.37,388.722 1126.95,393.283 1128.09,405.732 1129.24,420.35 1130.39,437.431 1131.54,456.327 1132.63,475.217 1133.72,494.56 1134.82,513.649 1135.91,531.038 1137,547.52 1138.09,561.362 1139.19,572.52 1140.28,580.441 1140.82,582.889 1141.37,584.668 1141.92,585.386 1142.46,585.204 1143.01,583.992 1143.56,581.948 1144.1,578.939 1144.65,575.036 1145.74,564.648 1146.83,551.138 1147.93,534.677 1149.02,516.563 1151.2,476.074 1153.39,435.309 1154.48,416.587 1155.57,399.815 1156.67,385.882 1157.76,374.994 1158.3,370.891 1158.85,367.925 1159.4,366.135 1159.94,365.057 1160.49,363.941 1161.04,364.516 1161.58,365.767 1162.13,368.302 1162.67,371.975 1163.22,377.119 1163.77,382.707 1164.31,389.078 1165.41,403.9 1166.5,421.361 1167.59,440.93 1168.68,461.638 1169.78,483.101 1170.87,504.4 1171.96,524.563 1173.05,543.231 1174.15,559.379 1175.24,572.678 1175.79,578.087 1176.33,582.635 1176.88,586.069 1177.42,588.587 1177.97,590.125 1178.52,590.615 1179.06,589.977 1179.61,588.067 1180.16,585.746 1180.7,582.131 1181.25,577.527 1181.79,571.973 1182.89,557.542 1183.98,541.074 1185.07,522.1 1186.16,500.962 1187.26,478.574 1188.35,456 1189.44,433.759 1190.53,412.727 1191.63,393.622 1192.72,377.248 1193.27,370.214 1193.81,364.048 1194.36,358.87 1194.9,354.947 1195.45,352.802 1196,349.223 1196.54,347.833 1197.09,347.634 1197.64,348.533 1198.18,350.57 1198.73,353.698 1199.27,357.861 1199.82,362.931 1200.37,368.901 1200.91,375.796 1201.46,383.528 1202.6,401.633 1203.73,423.188 1204.87,445.953 1206,469.983 1207.14,493.89 1208.28,517.208 1209.41,538.771 1210.55,558.022 1211.12,566.376 1211.68,573.955 1212.25,580.513 1212.82,586.17 1213.39,590.714 1213.96,594.214 1214.52,596.528 1215.09,597.764 1215.66,597.813 1216.23,596.731 1216.79,594.522 1217.36,591.221 1217.93,586.91 1218.5,581.332 1219.07,574.828 1219.63,567.502 1220.77,550.398 1221.91,530.599 1223.04,508.713 1224.18,485.834 1225.31,462.603 1226.45,439.95 1227.59,418.734 1228.72,399.817 1229.29,391.523 1229.86,383.998 1230.43,377.637 1230.99,372.478 1231.56,367.182 1232.13,363.093 1232.7,360.342 1233.27,358.681 1233.83,358.247 1234.4,358.989 1234.97,360.816 1235.54,363.664 1236.11,367.466 1236.67,372.297 1237.24,378.084 1237.81,384.74 1238.95,400.649 1240.08,419.073 1241.22,439.55 1242.35,461.184 1243.49,483.335 1244.63,504.789 1245.76,525.131 1246.9,543.465 1248.03,559.11 1249.17,571.448 1249.74,576.28 1250.31,580.165 1250.87,583.054 1251.44,584.909 1252.01,585.756 1252.58,585.587 1253.15,584.43 1253.71,582.212 1254.85,574.817 1255.99,564.054 1257.12,550.526 1258.26,533.717 1259.39,515.414 1260.53,495.935 1261.67,476.09 1262.8,457.479 1263.94,438.156 1265.07,421.901 1266.21,408.416 1267.35,397.073 1267.91,392.496 1268.48,388.949 1269.05,386.278 1269.62,384.706 1270.19,384.12 1270.75,384.438 1271.32,385.63 1271.89,387.634 1273.03,394.241 1274.16,404.092 1275.12,414.816 1276.07,426.575 1277.03,439.938 1277.99,454.438 1279.9,484.277 1281.81,511.71 1282.77,524.233 1283.72,535.311 1284.68,544.526 1285.64,551.732 1286.59,556.857 1287.55,559.543 1288.5,559.819 1289.46,557.655 1290.42,553.108 1291.37,546.68 1292.33,538.095 1293.29,527.767 1295.2,503.356 1297.11,475.809 1299.02,448.203 1300.94,423.666 1301.89,413.327 1302.85,404.609 1303.8,397.453 1304.76,392.327 1305.72,389.35 1306.67,388.512 1307.63,389.655 1308.59,392.76 1309.54,397.68 1310.5,404.336 1311.45,412.072 1312.41,421.483 1314.32,441.985 1316.24,463.141 1317.19,473.465 1318.15,482.909 1319.1,491.345 1320.06,498.55 1321.02,504.313 1321.97,508.48 1322.93,510.982 1323.89,511.266 1324.84,510.287 1325.8,508.411 1326.75,504.531 1327.71,499.205 1329.62,485.417 1331.54,469.372 1333.45,453.044 1335.36,438.928 1336.53,432.315 1337.7,427.726 1338.86,425.358 1340.03,425.249 1341.2,427.747 1342.37,432.69 1343.53,439.93 1344.7,449.202 1345.87,460.956 1347.04,472.492 1348.2,485.567 1349.37,499.08 1350.54,511.795 1351.71,524.068 1352.87,535.008 1354.04,543.715 1355.21,551.498 1356.38,556.005 1357.54,558.84 1358.71,557.784 1359.88,554.846 1361.04,549.624 1362.21,542.315 1363.38,533.184 1365.71,511.456 1368.05,489.173 1369.22,478.793 1370.38,469.677 1371.55,462.424 1372.72,457.111 1373.89,454.818 1375.05,453.408 1376.22,455.045 1377.39,459.306 1378.56,465.7 1379.72,473.752 1380.89,483.277 1382.06,493.722 1383.23,504.768 1384.39,515.869 1385.56,526.595 1386.73,535.103 1387.9,542.422 1389.06,547.727 1390.23,550.556 1391.4,550.709 1392.57,548.074 1393.73,542.636 1394.9,534.574 1396.07,524.008 1397.24,511.336 1398.4,497.249 1399.57,482.063 1400.74,466.218 1401.91,449.627 1403.07,435.823 1404.24,422.33 1405.41,410.715 1406.58,401.647 1407.74,395.315 1408.91,392.127 1410.08,392.199 1411.15,394.941 1412.22,400.39 1413.29,408.389 1414.36,418.556 1415.43,430.553 1416.5,443.982 1417.56,458.256 1418.63,473.304 1419.7,488.195 1420.77,502.506 1421.84,515.534 1422.91,528.224 1423.98,536.703 1425.05,543.889 1426.12,548.512 1427.19,550.115 1428.26,548.811 1429.33,544.476 1430.4,537.417 1431.47,527.742 1432.54,515.719 1433.61,501.826 1434.68,486.543 1435.75,470.373 1436.82,453.123 1437.88,437.237 1438.95,421.519 1440.02,407.131 1441.09,394.542 1442.16,384.348 1443.23,376.727 1444.3,372.117 1445.37,370.712 1446.44,372.402 1447.51,377.259 1448.58,385.247 1449.65,396.05 1450.72,409.309 1451.79,424.593 1452.86,441.551 1455,477.697 1457.13,513.129 1458.2,529.151 1459.27,542.92 1460.34,554.476 1461.41,563.299 1462.48,568.812 1463.55,571.138 1464.62,569.943 1465.69,565.441 1466.76,557.709 1467.83,546.899 1468.9,533.586 1469.97,518.148 1472.11,482.789 1474.25,445.655 1475.32,428.021 1476.39,411.82 1477.45,397.659 1478.52,386.153 1479.02,381.677 1479.51,377.956 1480.01,374.944 1480.5,372.677 1481.49,370.35 1482.48,370.897 1483.46,374.54 1484.45,381.212 1485.44,390.658 1486.43,402.661 1487.41,416.905 1488.4,433.097 1489.39,450.581 1490.38,469.156 1492.35,507.044 1494.33,542.642 1495.32,558.356 1496.3,572.069 1497.29,583.411 1498.28,592.101 1499.27,597.987 1500.25,600.705 1501.24,600.263 1502.23,596.843 1503.22,590.494 1504.21,581.379 1505.19,569.462 1506.18,555.69 1508.16,523.247 1510.13,487.459 1511.12,469.586 1512.11,452.38 1513.1,435.936 1514.08,422.06 1515.07,409.696 1516.06,399.749 1517.05,392.455 1518.03,387.762 1519.02,386.003 1520.01,387.24 1521,391.339 1521.98,398.11 1522.97,407.36 1523.96,418.878 1524.95,431.717 1525.94,446.867 1527.91,478.971 1529.89,511.203 1530.87,526.062 1531.86,539.648 1532.85,551.532 1533.84,561.226 1534.83,568.409 1535.81,573.243 1536.8,575.068 1537.79,574.47 1538.78,570.952 1539.76,564.706 1540.75,556.274 1541.74,545.477 1543.74,518.297 1545.74,486.806 1547.74,454.588 1549.74,425.634 1550.74,413.37 1551.74,403.186 1552.75,395.329 1553.75,389.89 1554.75,387.121 1555.75,387.14 1556.75,389.873 1557.75,395.244 1558.75,403.086 1559.75,413.246 1560.75,425.21 1561.75,438.905 1563.75,469.561 1565.75,501.08 1566.75,516.339 1567.75,530.582 1568.75,543.337 1569.75,554.567 1570.76,563.462 1571.76,570.625 1572.76,575.18 1573.76,577.291 1574.76,577.107 1575.76,574.458 1576.76,569.226 1577.76,562.159 1578.76,553.493 1579.76,543.122 1580.76,531.784 1581.76,519.63 1583.76,494.624 1585.76,471.413 1586.76,461.451 1587.76,452.924 1588.77,446.022 1589.77,440.81 1590.77,437.652 1591.77,436.595 1592.77,437.536 1593.77,440.389 1594.77,445.056 1595.77,451.314 1596.77,458.708 1597.77,467.94 1599.77,487.637 1601.77,506.533 1602.77,516.928 1603.77,525.337 1604.27,529.115 1604.77,532.568 1605.27,535.665 1605.77,538.366 1606.9,542.874 1608.02,545.152 1609.14,545.043 1610.26,542.566 1611.38,538.102 1612.5,531.558 1613.62,523.086 1614.75,513.244 1616.99,490.514 1619.23,466.929 1620.35,455.977 1621.47,446.068 1622.59,437.676 1623.72,431.003 1624.84,426.266 1625.96,423.582 1627.08,423.055 1628.2,424.632 1629.32,428.191 1630.44,433.517 1631,436.794 1631.57,440.347 1632.13,444.24 1632.69,443.399 1633.25,452.778 1633.81,457.304 1634.37,461.952 1634.93,466.6 1636.05,476.016 1637.17,484.696 1638.29,492.648 1639.41,499.534 1640.54,505.035 1641.66,508.725 1642.78,510.595 1643.9,510.381 1645.02,508.14 1646.14,504.803 1647.26,499.548 1648.39,492.921 1649.51,485.171 1650.63,476.507 1652.87,459.026 1655.11,443.282 1656.23,437.13 1657.36,432.434 1658.48,429.557 1659.6,428.651 1660.72,429.677 1661.84,432.676 1662.96,437.632 1664.08,444.329 1666.33,461.993 1668.57,482.887 1669.69,493.804 1670.81,504.531 1671.93,513.873 1673.05,521.781 1674.18,528.553 1675.3,533.258 1676.42,535.953 1677.54,536.468 1678.56,534.915 1679.57,531.613 1680.59,526.63 1681.6,519.869 1683.64,502.717 1685.67,482.505 1687.7,461.461 1689.73,442.715 1690.75,434.99 1691.77,428.79 1692.78,424.336 1693.8,421.808 1694.81,421.311 1695.83,422.875 1696.85,426.396 1697.86,431.904 1698.88,439.258 1699.89,448.202 1700.91,458.489 1701.93,469.826 1703.96,494.367 1705.99,518.422 1707.01,529.484 1708.02,539.373 1709.04,547.656 1710.06,554.227 1711.07,558.702 1712.09,561.017 1713.1,561.065 1714.12,558.485 1715.14,554.315 1716.15,547.578 1717.17,538.966 1718.18,528.572 1720.22,504.221 1722.25,477.621 1723.26,463.883 1724.28,451.237 1725.3,439.523 1726.31,429.199 1727.33,420.754 1728.35,414.235 1729.36,409.979 1730.38,408.208 1731.39,408.944 1732.41,412.086 1733.43,417.644 1734.44,425.5 1735.46,435.38 1736.47,446.991 1737.49,459.981 1738.51,473.5 1739.52,488.34 1740.54,503.434 1741.55,517.969 1742.57,531.657 1743.73,545.279 1744.9,557.477 1745.48,562.464 1746.06,566.716 1746.64,570.193 1747.22,572.865 1748.39,573.98 1749.55,574.802 1750.13,573.054 1750.71,570.433 1751.3,566.752 1751.88,562.584 1753.04,551.718 1754.2,538.202 1755.37,522.513 1756.53,505.374 1757.69,486.783 1758.86,468.559 1760.02,450.284 1761.18,433.49 1762.35,418.777 1763.51,406.308 1764.09,400.529 1764.67,396.874 1765.26,393.456 1765.84,390.922 1766.42,389.306 1767,388.618 1767.58,388.856 1768.17,390.021 1768.75,392.112 1769.33,395.116 1769.91,399.004 1770.49,403.735 1771.66,415.539 1772.82,430.369 1773.98,446.853 1775.15,465.836 1776.31,484.128 1777.47,503.316 1778.64,522.037 1779.8,538.904 1780.96,553.757 1782.13,566.094 1782.71,571.124 1783.29,575.374 1783.87,578.63 1784.45,581.06 1785.03,582.587 1785.62,582.887 1786.2,582.407 1786.78,581.183 1787.94,575.172 1789.11,566.26 1790.27,554.166 1791.43,539.37 1792.6,522.235 1793.76,504.257 1794.92,485.428 1796.09,466.606 1797.25,448.635 1798.41,432.138 1799.58,418.161 1800.74,406.602 1801.32,402.068 1801.9,398.389 1802.48,395.593 1803.07,393.692 1803.65,392.698 1804.23,392.629 1804.81,393.493 1805.39,395.28 1806.56,401.522 1807.72,411.087 1808.88,423.6 1810.05,438.709 1811.21,455.075 1812.37,473.243 1813.54,491.342 1814.7,509.67 1815.86,526.559 1817.03,541.913 1818.1,554.081 1819.18,563.037 1820.26,570.973 1821.34,574.988 1822.41,575.887 1823.49,573.917 1824.57,568.836 1825.64,561.058 1826.72,550.826 1827.8,538.23 1828.88,524.055 1829.95,508.586 1832.11,476.124 1834.26,445.286 1835.34,431.91 1836.42,420.616 1837.49,411.535 1838.57,405.092 1839.65,401.453 1840.72,400.755 1841.8,403.026 1842.88,408.177 1843.96,416.034 1845.03,426.365 1846.11,437.979 1847.19,452.671 1849.34,483.891 1851.5,515.468 1852.57,530.326 1853.65,543.692 1854.73,555.332 1855.81,564.865 1856.88,571.986 1857.96,576.53 1859.04,578.395 1860.11,577.534 1861.19,573.904 1862.27,568.09 1863.35,559.988 1864.42,549.522 1866.58,526.335 1868.73,500.214 1869.81,487.562 1870.89,475.707 1871.96,464.905 1873.04,455.846 1874.12,448.7 1875.19,443.537 1876.27,440.591 1877.35,439.957 1878.43,441.562 1879.5,445.305 1880.58,451.161 1881.66,458.495 1883.81,477.452 1885.97,498.727 1887.03,509.021 1888.09,518.853 1889.15,527.753 1890.21,535.271 1891.28,541.284 1892.34,545.437 1893.4,547.668 1894.46,547.872 1895.52,545.759 1896.59,542.102 1897.65,536.465 1898.71,529.104 1900.83,509.66 1902.96,488.494 1905.08,466.037 1907.21,446.904 1908.27,438.78 1909.33,432.288 1910.39,427.471 1911.45,424.425 1912.52,423.196 1913.58,423.795 1914.64,426.151 1915.7,430.097 1916.76,435.599 1917.83,441.839 1918.89,449.064 1919.95,457.602 1922.07,474.141 1924.2,489.025 1925.26,495.216 1926.32,500.223 1927.38,503.866 1928.45,506.01 1928.98,506.487 1929.51,508.852 1930.04,506.001 1930.57,505.389 1931.63,503.364 1932.69,499.555 1934.82,488.805 1936.94,475.583 1939.07,461.525 1941.19,449.422 1942.25,444.729 1943.31,442.054 1944.38,440.327 1945.44,440.409 1946.5,441.499 1947.56,444.447 1948.62,449.051 1949.68,454.78 1951.81,469.849 1953.93,488.184 1955.99,505.118 1958.06,520.941 1959.09,527.281 1960.12,532.422 1961.15,535.987 1962.18,538.01 1963.21,538.67 1964.24,537.07 1965.27,534.088 1966.31,529.521 1967.34,523.467 1968.37,516.347 1969.4,508.257 1970.43,499.365 1972.49,480.824 1974.55,463.273 1975.59,455.62 1976.62,448.54 1977.65,443.858 1978.68,440.388 1979.71,438.512 1980.74,438.526 1981.77,440.086 1982.8,443.449 1983.83,448.649 1984.87,455.377 1985.9,463.314 1986.93,472.444 1988.99,491.944 1991.05,511.952 1992.08,520.89 1993.11,529.41 1994.15,536.18 1995.18,541.676 1996.21,545.371 1997.24,546.258 1998.27,547.035 1999.3,544.749 2000.33,540.384 2001.36,534.208 2002.39,526.399 2003.43,517.113 2005.49,495.182 2007.55,471.109 2008.58,459.31 2009.61,448.121 2010.64,437.896 2011.67,429.046 2012.7,421.794 2013.74,414.889 2014.77,413.12 2015.8,412.24 2016.83,413.232 2017.86,416.175 2018.89,422.199 2019.92,429.61 2020.98,439.71 2022.04,451.122 2023.09,463.349 2024.15,476.898 2026.26,503.641 2028.38,528.485 2029.44,539.156 2030.49,547.439 2031.55,553.994 2032.61,558.207 2033.66,559.896 2034.72,558.88 2035.78,555.37 2036.83,549.632 2037.89,540.707 2038.95,530.3 2040.01,518.073 2041.06,504.424 2043.18,474.885 2045.29,445.297 2046.35,431.811 2047.4,420.46 2048.46,409.677 2049.52,402.044 2050.58,396.756 2051.63,393.452 2052.69,393.096 2053.75,396.48 2054.8,402.17 2055.86,410.191 2056.92,421.075 2057.97,433.93 2059.03,448.413 2060.09,463.441 2061.15,480.318 2062.2,497.086 2063.26,513.22 2064.32,528.712 2065.37,542.938 2066.43,555.53 2067.49,565.999 2068.54,574.066 2069.6,579.5 2070.66,582.156 2071.72,582.183 2072.77,578.603 2073.83,573.131 2074.89,565.163 2075.94,554.96 2077,542.988 2078.06,529.61 2079.11,515.505 2081.23,486.419 2083.34,460.187 2084.4,448.803 2085.46,440.138 2086.51,433.54 2087.57,428.883 2088.73,428.162 2089.89,430.284 2091.04,435.687 2092.2,443.073 2093.36,455.553 2094.52,469.772 2095.68,485.757 2096.83,503.029 2097.99,521.119 2099.15,539.649 2100.31,556.816 2101.47,572.48 2102.63,586.647 2103.78,598.295 2104.94,607.042 2106.1,612.561 2106.68,613.996 2107.26,614.797 2107.84,614.265 2108.42,613.761 2109.57,608.364 2110.73,599.974 2111.89,589.07 2113.05,575.365 2114.21,559.286 2115.36,543.473 2116.52,525.032 2117.68,507.182 2118.84,489.253 2120,472.718 2121.15,459.236 2122.31,445.863 2122.89,440.514 2123.47,434.863 2124.05,432.25 2124.63,429.317 2125.79,425.658 2126.94,425.074 2128.1,427.5 2129.26,432.537 2130.42,440.764 2131.58,451.231 2132.73,463.038 2133.89,476.498 2136.21,502.788 2138.53,526.913 2139.68,537.611 2140.84,545.28 2142,550.868 2143.16,553.22 2144.32,553.414 2145.47,550.877 2146.63,544.375 2147.79,536.087 2148.95,525.908 2150.11,514.304 2151.26,500.501 2152.42,487.412 2153.58,473.314 2154.74,458.351 2155.9,445.307 2157.05,434.154 2158.21,423.603 2159.37,416.902 2160.53,412.11 2161.69,409.861 2162.53,409.851 2163.37,411.223 2164.21,413.95 2165.05,417.738 2165.89,423.492 2166.73,429.535 2167.57,435.779 2168.42,444.618 2170.1,462.606 2171.78,481.246 2173.46,498.77 2175.14,514.409 2175.99,520.727 2176.83,526.099 2177.67,530.754 2178.51,533.616 2179.35,535.824 2180.19,536.479 2181.03,535.896 2181.87,534.789 2182.72,531.189 2183.56,527.57 2184.4,522.42 2185.24,516.124 2186.92,503.69 2188.6,487.801 2190.29,473.165 2191.97,460.074 2192.81,453.542 2193.65,447.578 2194.49,443.587 2195.33,440.31 2196.17,437.973 2197.01,436.646 2197.86,436.316 2198.7,437.003 2199.54,438.727 2200.38,441.461 2201.22,445.145 2202.06,450.081 2203.74,461.527 2205.43,473.426 2207.11,487.479 2208.79,499.257 2210.47,509.569 2212.15,517.658 2213,520.336 2213.84,521.651 2214.68,522.403 2215.52,521.674 2216.36,520.637 2217.2,519.57 2218.04,516.369 2218.88,511.562 2220.57,502.61 2222.25,491.373 2223.93,479.278 2225.61,469.543 2227.3,458.804 2228.98,450.695 2229.82,449.925 2230.66,448.864 2231.5,448.666 2232.34,449.388 2234.02,453.245 2235.71,460.353 2237.39,470.502 2239.07,482.146 2240.75,494.799 2242.44,507.302 2244.12,517.582 2245.8,525.554 2246.64,528.333 2247.48,530.117 2248.32,530.991 2249.17,531.003 2250.01,529.87 2250.85,527.873 2251.69,523.32 2252.53,521.35 2254.21,511.035 2255.89,499.256 2257.58,486.158 2259.26,473.244 2260.94,462.219 2262.62,454.245 2263.46,451.477 2264.31,448.217 2265.15,446.567 2265.99,446.752 2267.67,449.977 2269.35,456.928 2270.04,460.584 2270.73,464.829 2271.42,469.583 2272.11,475.508 2273.49,486.932 2274.87,497.785 2276.25,509.599 2277.64,521.145 2279.02,530.192 2280.4,537.767 2281.78,542.282 2283.16,544.256 2283.85,543.564 2284.54,544.548 2285.23,540.032 2285.92,537.305 2286.61,533.884 2287.3,531.415 2287.99,524.858 2288.68,519.564 2289.37,513.756 2290.06,507.313 2290.75,500.842 2291.44,494.084 "/>
<path clip-path="url(#clip640)" d="M2011.46 1438.47 L2280.54 1438.47 L2280.54 1334.79 L2011.46 1334.79  Z" fill="#ffffff" fill-rule="evenodd" fill-opacity="1"/>
<polyline clip-path="url(#clip640)" style="stroke:#000000; stroke-linecap:round; stroke-linejoin:round; stroke-width:4; stroke-opacity:1; fill:none" points="2011.46,1438.47 2280.54,1438.47 2280.54,1334.79 2011.46,1334.79 2011.46,1438.47 "/>
<polyline clip-path="url(#clip640)" style="stroke:#009af9; stroke-linecap:round; stroke-linejoin:round; stroke-width:4; stroke-opacity:1; fill:none" points="2035.53,1386.63 2179.97,1386.63 "/>
<path clip-path="url(#clip640)" d="M2217.88 1406.32 Q2216.07 1410.95 2214.36 1412.36 Q2212.65 1413.78 2209.78 1413.78 L2206.38 1413.78 L2206.38 1410.21 L2208.88 1410.21 Q2210.63 1410.21 2211.61 1409.38 Q2212.58 1408.54 2213.76 1405.44 L2214.52 1403.5 L2204.04 1377.99 L2208.55 1377.99 L2216.65 1398.27 L2224.76 1377.99 L2229.27 1377.99 L2217.88 1406.32 Z" fill="#000000" fill-rule="evenodd" fill-opacity="1" /><path clip-path="url(#clip640)" d="M2236.56 1399.98 L2244.2 1399.98 L2244.2 1373.61 L2235.89 1375.28 L2235.89 1371.02 L2244.15 1369.35 L2248.83 1369.35 L2248.83 1399.98 L2256.47 1399.98 L2256.47 1403.91 L2236.56 1403.91 L2236.56 1399.98 Z" fill="#000000" fill-rule="evenodd" fill-opacity="1" /></svg>
