<?xml version="1.0" encoding="utf-8"?>
<svg xmlns="http://www.w3.org/2000/svg" xmlns:xlink="http://www.w3.org/1999/xlink" width="600" height="400" viewBox="0 0 2400 1600">
<defs>
  <clipPath id="clip960">
    <rect x="0" y="0" width="2400" height="1600"/>
  </clipPath>
</defs>
<path clip-path="url(#clip960)" d="M0 1600 L2400 1600 L2400 0 L0 0  Z" fill="#ffffff" fill-rule="evenodd" fill-opacity="1"/>
<defs>
  <clipPath id="clip961">
    <rect x="480" y="0" width="1681" height="1600"/>
  </clipPath>
</defs>
<path clip-path="url(#clip960)" d="M216.436 1486.45 L2352.76 1486.45 L2352.76 47.2441 L216.436 47.2441  Z" fill="#ffffff" fill-rule="evenodd" fill-opacity="1"/>
<defs>
  <clipPath id="clip962">
    <rect x="216" y="47" width="2137" height="1440"/>
  </clipPath>
</defs>
<polyline clip-path="url(#clip962)" style="stroke:#000000; stroke-linecap:round; stroke-linejoin:round; stroke-width:2; stroke-opacity:0.1; fill:none" points="276.898,1486.45 276.898,47.2441 "/>
<polyline clip-path="url(#clip962)" style="stroke:#000000; stroke-linecap:round; stroke-linejoin:round; stroke-width:2; stroke-opacity:0.1; fill:none" points="948.697,1486.45 948.697,47.2441 "/>
<polyline clip-path="url(#clip962)" style="stroke:#000000; stroke-linecap:round; stroke-linejoin:round; stroke-width:2; stroke-opacity:0.1; fill:none" points="1620.5,1486.45 1620.5,47.2441 "/>
<polyline clip-path="url(#clip962)" style="stroke:#000000; stroke-linecap:round; stroke-linejoin:round; stroke-width:2; stroke-opacity:0.1; fill:none" points="2292.29,1486.45 2292.29,47.2441 "/>
<polyline clip-path="url(#clip960)" style="stroke:#000000; stroke-linecap:round; stroke-linejoin:round; stroke-width:4; stroke-opacity:1; fill:none" points="216.436,1486.45 2352.76,1486.45 "/>
<polyline clip-path="url(#clip960)" style="stroke:#000000; stroke-linecap:round; stroke-linejoin:round; stroke-width:4; stroke-opacity:1; fill:none" points="276.898,1486.45 276.898,1467.55 "/>
<polyline clip-path="url(#clip960)" style="stroke:#000000; stroke-linecap:round; stroke-linejoin:round; stroke-width:4; stroke-opacity:1; fill:none" points="948.697,1486.45 948.697,1467.55 "/>
<polyline clip-path="url(#clip960)" style="stroke:#000000; stroke-linecap:round; stroke-linejoin:round; stroke-width:4; stroke-opacity:1; fill:none" points="1620.5,1486.45 1620.5,1467.55 "/>
<polyline clip-path="url(#clip960)" style="stroke:#000000; stroke-linecap:round; stroke-linejoin:round; stroke-width:4; stroke-opacity:1; fill:none" points="2292.29,1486.45 2292.29,1467.55 "/>
<path clip-path="url(#clip960)" d="M276.898 1517.37 Q273.287 1517.37 271.458 1520.93 Q269.652 1524.47 269.652 1531.6 Q269.652 1538.71 271.458 1542.27 Q273.287 1545.82 276.898 1545.82 Q280.532 1545.82 282.338 1542.27 Q284.166 1538.71 284.166 1531.6 Q284.166 1524.47 282.338 1520.93 Q280.532 1517.37 276.898 1517.37 M276.898 1513.66 Q282.708 1513.66 285.763 1518.27 Q288.842 1522.85 288.842 1531.6 Q288.842 1540.33 285.763 1544.94 Q282.708 1549.52 276.898 1549.52 Q271.088 1549.52 268.009 1544.94 Q264.953 1540.33 264.953 1531.6 Q264.953 1522.85 268.009 1518.27 Q271.088 1513.66 276.898 1513.66 Z" fill="#000000" fill-rule="evenodd" fill-opacity="1" /><path clip-path="url(#clip960)" d="M923.384 1544.91 L931.023 1544.91 L931.023 1518.55 L922.713 1520.21 L922.713 1515.95 L930.977 1514.29 L935.653 1514.29 L935.653 1544.91 L943.291 1544.91 L943.291 1548.85 L923.384 1548.85 L923.384 1544.91 Z" fill="#000000" fill-rule="evenodd" fill-opacity="1" /><path clip-path="url(#clip960)" d="M962.736 1517.37 Q959.125 1517.37 957.296 1520.93 Q955.49 1524.47 955.49 1531.6 Q955.49 1538.71 957.296 1542.27 Q959.125 1545.82 962.736 1545.82 Q966.37 1545.82 968.176 1542.27 Q970.004 1538.71 970.004 1531.6 Q970.004 1524.47 968.176 1520.93 Q966.37 1517.37 962.736 1517.37 M962.736 1513.66 Q968.546 1513.66 971.601 1518.27 Q974.68 1522.85 974.68 1531.6 Q974.68 1540.33 971.601 1544.94 Q968.546 1549.52 962.736 1549.52 Q956.926 1549.52 953.847 1544.94 Q950.791 1540.33 950.791 1531.6 Q950.791 1522.85 953.847 1518.27 Q956.926 1513.66 962.736 1513.66 Z" fill="#000000" fill-rule="evenodd" fill-opacity="1" /><path clip-path="url(#clip960)" d="M1599.27 1544.91 L1615.59 1544.91 L1615.59 1548.85 L1593.64 1548.85 L1593.64 1544.91 Q1596.31 1542.16 1600.89 1537.53 Q1605.5 1532.88 1606.68 1531.53 Q1608.92 1529.01 1609.8 1527.27 Q1610.7 1525.51 1610.7 1523.82 Q1610.7 1521.07 1608.76 1519.33 Q1606.84 1517.6 1603.74 1517.6 Q1601.54 1517.6 1599.08 1518.36 Q1596.65 1519.13 1593.88 1520.68 L1593.88 1515.95 Q1596.7 1514.82 1599.15 1514.24 Q1601.61 1513.66 1603.64 1513.66 Q1609.01 1513.66 1612.21 1516.35 Q1615.4 1519.03 1615.4 1523.52 Q1615.4 1525.65 1614.59 1527.57 Q1613.81 1529.47 1611.7 1532.07 Q1611.12 1532.74 1608.02 1535.95 Q1604.92 1539.15 1599.27 1544.91 Z" fill="#000000" fill-rule="evenodd" fill-opacity="1" /><path clip-path="url(#clip960)" d="M1635.4 1517.37 Q1631.79 1517.37 1629.96 1520.93 Q1628.16 1524.47 1628.16 1531.6 Q1628.16 1538.71 1629.96 1542.27 Q1631.79 1545.82 1635.4 1545.82 Q1639.04 1545.82 1640.84 1542.27 Q1642.67 1538.71 1642.67 1531.6 Q1642.67 1524.47 1640.84 1520.93 Q1639.04 1517.37 1635.4 1517.37 M1635.4 1513.66 Q1641.21 1513.66 1644.27 1518.27 Q1647.35 1522.85 1647.35 1531.6 Q1647.35 1540.33 1644.27 1544.94 Q1641.21 1549.52 1635.4 1549.52 Q1629.59 1549.52 1626.51 1544.94 Q1623.46 1540.33 1623.46 1531.6 Q1623.46 1522.85 1626.51 1518.27 Q1629.59 1513.66 1635.4 1513.66 Z" fill="#000000" fill-rule="evenodd" fill-opacity="1" /><path clip-path="url(#clip960)" d="M2281.14 1530.21 Q2284.49 1530.93 2286.37 1533.2 Q2288.27 1535.47 2288.27 1538.8 Q2288.27 1543.92 2284.75 1546.72 Q2281.23 1549.52 2274.75 1549.52 Q2272.57 1549.52 2270.26 1549.08 Q2267.97 1548.66 2265.51 1547.81 L2265.51 1543.29 Q2267.46 1544.43 2269.77 1545.01 Q2272.09 1545.58 2274.61 1545.58 Q2279.01 1545.58 2281.3 1543.85 Q2283.61 1542.11 2283.61 1538.8 Q2283.61 1535.75 2281.46 1534.03 Q2279.33 1532.3 2275.51 1532.3 L2271.48 1532.3 L2271.48 1528.45 L2275.7 1528.45 Q2279.15 1528.45 2280.97 1527.09 Q2282.8 1525.7 2282.8 1523.11 Q2282.8 1520.45 2280.91 1519.03 Q2279.03 1517.6 2275.51 1517.6 Q2273.59 1517.6 2271.39 1518.01 Q2269.19 1518.43 2266.55 1519.31 L2266.55 1515.14 Q2269.22 1514.4 2271.53 1514.03 Q2273.87 1513.66 2275.93 1513.66 Q2281.25 1513.66 2284.35 1516.09 Q2287.46 1518.5 2287.46 1522.62 Q2287.46 1525.49 2285.81 1527.48 Q2284.17 1529.45 2281.14 1530.21 Z" fill="#000000" fill-rule="evenodd" fill-opacity="1" /><path clip-path="url(#clip960)" d="M2307.13 1517.37 Q2303.52 1517.37 2301.69 1520.93 Q2299.89 1524.47 2299.89 1531.6 Q2299.89 1538.71 2301.69 1542.27 Q2303.52 1545.82 2307.13 1545.82 Q2310.77 1545.82 2312.57 1542.27 Q2314.4 1538.71 2314.4 1531.6 Q2314.4 1524.47 2312.57 1520.93 Q2310.77 1517.37 2307.13 1517.37 M2307.13 1513.66 Q2312.94 1513.66 2316 1518.27 Q2319.08 1522.85 2319.08 1531.6 Q2319.08 1540.33 2316 1544.94 Q2312.94 1549.52 2307.13 1549.52 Q2301.32 1549.52 2298.24 1544.94 Q2295.19 1540.33 2295.19 1531.6 Q2295.19 1522.85 2298.24 1518.27 Q2301.32 1513.66 2307.13 1513.66 Z" fill="#000000" fill-rule="evenodd" fill-opacity="1" /><polyline clip-path="url(#clip962)" style="stroke:#000000; stroke-linecap:round; stroke-linejoin:round; stroke-width:2; stroke-opacity:0.1; fill:none" points="216.436,1445.72 2352.76,1445.72 "/>
<polyline clip-path="url(#clip962)" style="stroke:#000000; stroke-linecap:round; stroke-linejoin:round; stroke-width:2; stroke-opacity:0.1; fill:none" points="216.436,1119.3 2352.76,1119.3 "/>
<polyline clip-path="url(#clip962)" style="stroke:#000000; stroke-linecap:round; stroke-linejoin:round; stroke-width:2; stroke-opacity:0.1; fill:none" points="216.436,792.888 2352.76,792.888 "/>
<polyline clip-path="url(#clip962)" style="stroke:#000000; stroke-linecap:round; stroke-linejoin:round; stroke-width:2; stroke-opacity:0.1; fill:none" points="216.436,466.474 2352.76,466.474 "/>
<polyline clip-path="url(#clip962)" style="stroke:#000000; stroke-linecap:round; stroke-linejoin:round; stroke-width:2; stroke-opacity:0.1; fill:none" points="216.436,140.061 2352.76,140.061 "/>
<polyline clip-path="url(#clip960)" style="stroke:#000000; stroke-linecap:round; stroke-linejoin:round; stroke-width:4; stroke-opacity:1; fill:none" points="216.436,1486.45 216.436,47.2441 "/>
<polyline clip-path="url(#clip960)" style="stroke:#000000; stroke-linecap:round; stroke-linejoin:round; stroke-width:4; stroke-opacity:1; fill:none" points="216.436,1445.72 235.334,1445.72 "/>
<polyline clip-path="url(#clip960)" style="stroke:#000000; stroke-linecap:round; stroke-linejoin:round; stroke-width:4; stroke-opacity:1; fill:none" points="216.436,1119.3 235.334,1119.3 "/>
<polyline clip-path="url(#clip960)" style="stroke:#000000; stroke-linecap:round; stroke-linejoin:round; stroke-width:4; stroke-opacity:1; fill:none" points="216.436,792.888 235.334,792.888 "/>
<polyline clip-path="url(#clip960)" style="stroke:#000000; stroke-linecap:round; stroke-linejoin:round; stroke-width:4; stroke-opacity:1; fill:none" points="216.436,466.474 235.334,466.474 "/>
<polyline clip-path="url(#clip960)" style="stroke:#000000; stroke-linecap:round; stroke-linejoin:round; stroke-width:4; stroke-opacity:1; fill:none" points="216.436,140.061 235.334,140.061 "/>
<path clip-path="url(#clip960)" d="M62.9365 1431.51 Q59.3254 1431.51 57.4967 1435.08 Q55.6912 1438.62 55.6912 1445.75 Q55.6912 1452.86 57.4967 1456.42 Q59.3254 1459.96 62.9365 1459.96 Q66.5707 1459.96 68.3763 1456.42 Q70.205 1452.86 70.205 1445.75 Q70.205 1438.62 68.3763 1435.08 Q66.5707 1431.51 62.9365 1431.51 M62.9365 1427.81 Q68.7467 1427.81 71.8022 1432.42 Q74.8809 1437 74.8809 1445.75 Q74.8809 1454.48 71.8022 1459.08 Q68.7467 1463.67 62.9365 1463.67 Q57.1264 1463.67 54.0477 1459.08 Q50.9921 1454.48 50.9921 1445.75 Q50.9921 1437 54.0477 1432.42 Q57.1264 1427.81 62.9365 1427.81 Z" fill="#000000" fill-rule="evenodd" fill-opacity="1" /><path clip-path="url(#clip960)" d="M83.0984 1457.12 L87.9827 1457.12 L87.9827 1463 L83.0984 1463 L83.0984 1457.12 Z" fill="#000000" fill-rule="evenodd" fill-opacity="1" /><path clip-path="url(#clip960)" d="M108.168 1431.51 Q104.557 1431.51 102.728 1435.08 Q100.922 1438.62 100.922 1445.75 Q100.922 1452.86 102.728 1456.42 Q104.557 1459.96 108.168 1459.96 Q111.802 1459.96 113.608 1456.42 Q115.436 1452.86 115.436 1445.75 Q115.436 1438.62 113.608 1435.08 Q111.802 1431.51 108.168 1431.51 M108.168 1427.81 Q113.978 1427.81 117.033 1432.42 Q120.112 1437 120.112 1445.75 Q120.112 1454.48 117.033 1459.08 Q113.978 1463.67 108.168 1463.67 Q102.358 1463.67 99.2789 1459.08 Q96.2234 1454.48 96.2234 1445.75 Q96.2234 1437 99.2789 1432.42 Q102.358 1427.81 108.168 1427.81 Z" fill="#000000" fill-rule="evenodd" fill-opacity="1" /><path clip-path="url(#clip960)" d="M138.33 1431.51 Q134.719 1431.51 132.89 1435.08 Q131.084 1438.62 131.084 1445.75 Q131.084 1452.86 132.89 1456.42 Q134.719 1459.96 138.33 1459.96 Q141.964 1459.96 143.769 1456.42 Q145.598 1452.86 145.598 1445.75 Q145.598 1438.62 143.769 1435.08 Q141.964 1431.51 138.33 1431.51 M138.33 1427.81 Q144.14 1427.81 147.195 1432.42 Q150.274 1437 150.274 1445.75 Q150.274 1454.48 147.195 1459.08 Q144.14 1463.67 138.33 1463.67 Q132.519 1463.67 129.441 1459.08 Q126.385 1454.48 126.385 1445.75 Q126.385 1437 129.441 1432.42 Q132.519 1427.81 138.33 1427.81 Z" fill="#000000" fill-rule="evenodd" fill-opacity="1" /><path clip-path="url(#clip960)" d="M168.491 1431.51 Q164.88 1431.51 163.052 1435.08 Q161.246 1438.62 161.246 1445.75 Q161.246 1452.86 163.052 1456.42 Q164.88 1459.96 168.491 1459.96 Q172.126 1459.96 173.931 1456.42 Q175.76 1452.86 175.76 1445.75 Q175.76 1438.62 173.931 1435.08 Q172.126 1431.51 168.491 1431.51 M168.491 1427.81 Q174.302 1427.81 177.357 1432.42 Q180.436 1437 180.436 1445.75 Q180.436 1454.48 177.357 1459.08 Q174.302 1463.67 168.491 1463.67 Q162.681 1463.67 159.603 1459.08 Q156.547 1454.48 156.547 1445.75 Q156.547 1437 159.603 1432.42 Q162.681 1427.81 168.491 1427.81 Z" fill="#000000" fill-rule="evenodd" fill-opacity="1" /><path clip-path="url(#clip960)" d="M63.9319 1105.1 Q60.3208 1105.1 58.4921 1108.67 Q56.6865 1112.21 56.6865 1119.34 Q56.6865 1126.44 58.4921 1130.01 Q60.3208 1133.55 63.9319 1133.55 Q67.5661 1133.55 69.3717 1130.01 Q71.2004 1126.44 71.2004 1119.34 Q71.2004 1112.21 69.3717 1108.67 Q67.5661 1105.1 63.9319 1105.1 M63.9319 1101.4 Q69.742 1101.4 72.7976 1106 Q75.8763 1110.59 75.8763 1119.34 Q75.8763 1128.06 72.7976 1132.67 Q69.742 1137.25 63.9319 1137.25 Q58.1217 1137.25 55.043 1132.67 Q51.9875 1128.06 51.9875 1119.34 Q51.9875 1110.59 55.043 1106 Q58.1217 1101.4 63.9319 1101.4 Z" fill="#000000" fill-rule="evenodd" fill-opacity="1" /><path clip-path="url(#clip960)" d="M84.0938 1130.7 L88.978 1130.7 L88.978 1136.58 L84.0938 1136.58 L84.0938 1130.7 Z" fill="#000000" fill-rule="evenodd" fill-opacity="1" /><path clip-path="url(#clip960)" d="M109.163 1105.1 Q105.552 1105.1 103.723 1108.67 Q101.918 1112.21 101.918 1119.34 Q101.918 1126.44 103.723 1130.01 Q105.552 1133.55 109.163 1133.55 Q112.797 1133.55 114.603 1130.01 Q116.432 1126.44 116.432 1119.34 Q116.432 1112.21 114.603 1108.67 Q112.797 1105.1 109.163 1105.1 M109.163 1101.4 Q114.973 1101.4 118.029 1106 Q121.107 1110.59 121.107 1119.34 Q121.107 1128.06 118.029 1132.67 Q114.973 1137.25 109.163 1137.25 Q103.353 1137.25 100.274 1132.67 Q97.2187 1128.06 97.2187 1119.34 Q97.2187 1110.59 100.274 1106 Q103.353 1101.4 109.163 1101.4 Z" fill="#000000" fill-rule="evenodd" fill-opacity="1" /><path clip-path="url(#clip960)" d="M133.353 1132.65 L149.672 1132.65 L149.672 1136.58 L127.728 1136.58 L127.728 1132.65 Q130.39 1129.89 134.973 1125.26 Q139.58 1120.61 140.76 1119.27 Q143.006 1116.74 143.885 1115.01 Q144.788 1113.25 144.788 1111.56 Q144.788 1108.8 142.843 1107.07 Q140.922 1105.33 137.82 1105.33 Q135.621 1105.33 133.168 1106.1 Q130.737 1106.86 127.959 1108.41 L127.959 1103.69 Q130.783 1102.55 133.237 1101.98 Q135.691 1101.4 137.728 1101.4 Q143.098 1101.4 146.293 1104.08 Q149.487 1106.77 149.487 1111.26 Q149.487 1113.39 148.677 1115.31 Q147.89 1117.21 145.783 1119.8 Q145.205 1120.47 142.103 1123.69 Q139.001 1126.88 133.353 1132.65 Z" fill="#000000" fill-rule="evenodd" fill-opacity="1" /><path clip-path="url(#clip960)" d="M159.533 1102.02 L177.89 1102.02 L177.89 1105.96 L163.816 1105.96 L163.816 1114.43 Q164.834 1114.08 165.853 1113.92 Q166.871 1113.73 167.89 1113.73 Q173.677 1113.73 177.056 1116.91 Q180.436 1120.08 180.436 1125.49 Q180.436 1131.07 176.964 1134.17 Q173.491 1137.25 167.172 1137.25 Q164.996 1137.25 162.728 1136.88 Q160.482 1136.51 158.075 1135.77 L158.075 1131.07 Q160.158 1132.21 162.38 1132.76 Q164.603 1133.32 167.079 1133.32 Q171.084 1133.32 173.422 1131.21 Q175.76 1129.11 175.76 1125.49 Q175.76 1121.88 173.422 1119.78 Q171.084 1117.67 167.079 1117.67 Q165.204 1117.67 163.329 1118.09 Q161.478 1118.5 159.533 1119.38 L159.533 1102.02 Z" fill="#000000" fill-rule="evenodd" fill-opacity="1" /><path clip-path="url(#clip960)" d="M62.9365 778.687 Q59.3254 778.687 57.4967 782.252 Q55.6912 785.793 55.6912 792.923 Q55.6912 800.029 57.4967 803.594 Q59.3254 807.136 62.9365 807.136 Q66.5707 807.136 68.3763 803.594 Q70.205 800.029 70.205 792.923 Q70.205 785.793 68.3763 782.252 Q66.5707 778.687 62.9365 778.687 M62.9365 774.983 Q68.7467 774.983 71.8022 779.59 Q74.8809 784.173 74.8809 792.923 Q74.8809 801.65 71.8022 806.256 Q68.7467 810.839 62.9365 810.839 Q57.1264 810.839 54.0477 806.256 Q50.9921 801.65 50.9921 792.923 Q50.9921 784.173 54.0477 779.59 Q57.1264 774.983 62.9365 774.983 Z" fill="#000000" fill-rule="evenodd" fill-opacity="1" /><path clip-path="url(#clip960)" d="M83.0984 804.289 L87.9827 804.289 L87.9827 810.168 L83.0984 810.168 L83.0984 804.289 Z" fill="#000000" fill-rule="evenodd" fill-opacity="1" /><path clip-path="url(#clip960)" d="M108.168 778.687 Q104.557 778.687 102.728 782.252 Q100.922 785.793 100.922 792.923 Q100.922 800.029 102.728 803.594 Q104.557 807.136 108.168 807.136 Q111.802 807.136 113.608 803.594 Q115.436 800.029 115.436 792.923 Q115.436 785.793 113.608 782.252 Q111.802 778.687 108.168 778.687 M108.168 774.983 Q113.978 774.983 117.033 779.59 Q120.112 784.173 120.112 792.923 Q120.112 801.65 117.033 806.256 Q113.978 810.839 108.168 810.839 Q102.358 810.839 99.2789 806.256 Q96.2234 801.65 96.2234 792.923 Q96.2234 784.173 99.2789 779.59 Q102.358 774.983 108.168 774.983 Z" fill="#000000" fill-rule="evenodd" fill-opacity="1" /><path clip-path="url(#clip960)" d="M128.376 775.608 L146.732 775.608 L146.732 779.543 L132.658 779.543 L132.658 788.015 Q133.677 787.668 134.695 787.506 Q135.714 787.321 136.732 787.321 Q142.519 787.321 145.899 790.492 Q149.279 793.664 149.279 799.08 Q149.279 804.659 145.806 807.761 Q142.334 810.839 136.015 810.839 Q133.839 810.839 131.57 810.469 Q129.325 810.099 126.918 809.358 L126.918 804.659 Q129.001 805.793 131.223 806.349 Q133.445 806.904 135.922 806.904 Q139.927 806.904 142.265 804.798 Q144.603 802.691 144.603 799.08 Q144.603 795.469 142.265 793.363 Q139.927 791.256 135.922 791.256 Q134.047 791.256 132.172 791.673 Q130.32 792.09 128.376 792.969 L128.376 775.608 Z" fill="#000000" fill-rule="evenodd" fill-opacity="1" /><path clip-path="url(#clip960)" d="M168.491 778.687 Q164.88 778.687 163.052 782.252 Q161.246 785.793 161.246 792.923 Q161.246 800.029 163.052 803.594 Q164.88 807.136 168.491 807.136 Q172.126 807.136 173.931 803.594 Q175.76 800.029 175.76 792.923 Q175.76 785.793 173.931 782.252 Q172.126 778.687 168.491 778.687 M168.491 774.983 Q174.302 774.983 177.357 779.59 Q180.436 784.173 180.436 792.923 Q180.436 801.65 177.357 806.256 Q174.302 810.839 168.491 810.839 Q162.681 810.839 159.603 806.256 Q156.547 801.65 156.547 792.923 Q156.547 784.173 159.603 779.59 Q162.681 774.983 168.491 774.983 Z" fill="#000000" fill-rule="evenodd" fill-opacity="1" /><path clip-path="url(#clip960)" d="M63.9319 452.273 Q60.3208 452.273 58.4921 455.838 Q56.6865 459.38 56.6865 466.509 Q56.6865 473.616 58.4921 477.18 Q60.3208 480.722 63.9319 480.722 Q67.5661 480.722 69.3717 477.18 Q71.2004 473.616 71.2004 466.509 Q71.2004 459.38 69.3717 455.838 Q67.5661 452.273 63.9319 452.273 M63.9319 448.569 Q69.742 448.569 72.7976 453.176 Q75.8763 457.759 75.8763 466.509 Q75.8763 475.236 72.7976 479.842 Q69.742 484.426 63.9319 484.426 Q58.1217 484.426 55.043 479.842 Q51.9875 475.236 51.9875 466.509 Q51.9875 457.759 55.043 453.176 Q58.1217 448.569 63.9319 448.569 Z" fill="#000000" fill-rule="evenodd" fill-opacity="1" /><path clip-path="url(#clip960)" d="M84.0938 477.875 L88.978 477.875 L88.978 483.754 L84.0938 483.754 L84.0938 477.875 Z" fill="#000000" fill-rule="evenodd" fill-opacity="1" /><path clip-path="url(#clip960)" d="M109.163 452.273 Q105.552 452.273 103.723 455.838 Q101.918 459.38 101.918 466.509 Q101.918 473.616 103.723 477.18 Q105.552 480.722 109.163 480.722 Q112.797 480.722 114.603 477.18 Q116.432 473.616 116.432 466.509 Q116.432 459.38 114.603 455.838 Q112.797 452.273 109.163 452.273 M109.163 448.569 Q114.973 448.569 118.029 453.176 Q121.107 457.759 121.107 466.509 Q121.107 475.236 118.029 479.842 Q114.973 484.426 109.163 484.426 Q103.353 484.426 100.274 479.842 Q97.2187 475.236 97.2187 466.509 Q97.2187 457.759 100.274 453.176 Q103.353 448.569 109.163 448.569 Z" fill="#000000" fill-rule="evenodd" fill-opacity="1" /><path clip-path="url(#clip960)" d="M128.144 449.194 L150.367 449.194 L150.367 451.185 L137.82 483.754 L132.936 483.754 L144.742 453.13 L128.144 453.13 L128.144 449.194 Z" fill="#000000" fill-rule="evenodd" fill-opacity="1" /><path clip-path="url(#clip960)" d="M159.533 449.194 L177.89 449.194 L177.89 453.13 L163.816 453.13 L163.816 461.602 Q164.834 461.255 165.853 461.092 Q166.871 460.907 167.89 460.907 Q173.677 460.907 177.056 464.079 Q180.436 467.25 180.436 472.666 Q180.436 478.245 176.964 481.347 Q173.491 484.426 167.172 484.426 Q164.996 484.426 162.728 484.055 Q160.482 483.685 158.075 482.944 L158.075 478.245 Q160.158 479.379 162.38 479.935 Q164.603 480.491 167.079 480.491 Q171.084 480.491 173.422 478.384 Q175.76 476.278 175.76 472.666 Q175.76 469.055 173.422 466.949 Q171.084 464.842 167.079 464.842 Q165.204 464.842 163.329 465.259 Q161.478 465.676 159.533 466.555 L159.533 449.194 Z" fill="#000000" fill-rule="evenodd" fill-opacity="1" /><path clip-path="url(#clip960)" d="M62.9365 125.859 Q59.3254 125.859 57.4967 129.424 Q55.6912 132.966 55.6912 140.095 Q55.6912 147.202 57.4967 150.767 Q59.3254 154.308 62.9365 154.308 Q66.5707 154.308 68.3763 150.767 Q70.205 147.202 70.205 140.095 Q70.205 132.966 68.3763 129.424 Q66.5707 125.859 62.9365 125.859 M62.9365 122.156 Q68.7467 122.156 71.8022 126.762 Q74.8809 131.345 74.8809 140.095 Q74.8809 148.822 71.8022 153.429 Q68.7467 158.012 62.9365 158.012 Q57.1264 158.012 54.0477 153.429 Q50.9921 148.822 50.9921 140.095 Q50.9921 131.345 54.0477 126.762 Q57.1264 122.156 62.9365 122.156 Z" fill="#000000" fill-rule="evenodd" fill-opacity="1" /><path clip-path="url(#clip960)" d="M83.0984 151.461 L87.9827 151.461 L87.9827 157.341 L83.0984 157.341 L83.0984 151.461 Z" fill="#000000" fill-rule="evenodd" fill-opacity="1" /><path clip-path="url(#clip960)" d="M98.978 153.405 L106.617 153.405 L106.617 127.04 L98.3067 128.707 L98.3067 124.447 L106.571 122.781 L111.246 122.781 L111.246 153.405 L118.885 153.405 L118.885 157.341 L98.978 157.341 L98.978 153.405 Z" fill="#000000" fill-rule="evenodd" fill-opacity="1" /><path clip-path="url(#clip960)" d="M138.33 125.859 Q134.719 125.859 132.89 129.424 Q131.084 132.966 131.084 140.095 Q131.084 147.202 132.89 150.767 Q134.719 154.308 138.33 154.308 Q141.964 154.308 143.769 150.767 Q145.598 147.202 145.598 140.095 Q145.598 132.966 143.769 129.424 Q141.964 125.859 138.33 125.859 M138.33 122.156 Q144.14 122.156 147.195 126.762 Q150.274 131.345 150.274 140.095 Q150.274 148.822 147.195 153.429 Q144.14 158.012 138.33 158.012 Q132.519 158.012 129.441 153.429 Q126.385 148.822 126.385 140.095 Q126.385 131.345 129.441 126.762 Q132.519 122.156 138.33 122.156 Z" fill="#000000" fill-rule="evenodd" fill-opacity="1" /><path clip-path="url(#clip960)" d="M168.491 125.859 Q164.88 125.859 163.052 129.424 Q161.246 132.966 161.246 140.095 Q161.246 147.202 163.052 150.767 Q164.88 154.308 168.491 154.308 Q172.126 154.308 173.931 150.767 Q175.76 147.202 175.76 140.095 Q175.76 132.966 173.931 129.424 Q172.126 125.859 168.491 125.859 M168.491 122.156 Q174.302 122.156 177.357 126.762 Q180.436 131.345 180.436 140.095 Q180.436 148.822 177.357 153.429 Q174.302 158.012 168.491 158.012 Q162.681 158.012 159.603 153.429 Q156.547 148.822 156.547 140.095 Q156.547 131.345 159.603 126.762 Q162.681 122.156 168.491 122.156 Z" fill="#000000" fill-rule="evenodd" fill-opacity="1" /><polyline clip-path="url(#clip962)" style="stroke:#009af9; stroke-linecap:round; stroke-linejoin:round; stroke-width:4; stroke-opacity:1; fill:none" points="276.898,1445.72 277.308,1443.83 277.718,1438.9 278.128,1432.78 278.538,1427.73 278.948,1425.49 279.358,1426.6 279.768,1430.19 280.178,1434.31 280.588,1436.75 280.998,1435.91 281.408,1431.45 281.818,1424.39 282.228,1416.71 282.638,1410.54 283.048,1407.31 283.458,1407.19 283.868,1409.05 284.279,1410.91 284.484,1411.19 284.689,1410.77 284.894,1409.51 285.099,1407.38 285.919,1392.14 286.739,1376.54 287.149,1372.47 287.559,1371.08 287.969,1371.09 288.379,1370.66 288.789,1368.11 289.199,1362.61 289.404,1358.8 289.609,1354.46 289.814,1349.78 290.019,1344.97 290.967,1326.85 291.915,1320.1 292.863,1312.74 293.811,1294.13 294.758,1273.57 295.706,1262.04 296.654,1253.04 297.602,1236.13 301.393,1174.65 305.185,1113.53 307.081,1083.06 308.976,1056.34 310.872,1031.45 312.768,1005.87 313.716,995.08 314.663,986.675 315.611,976.39 316.559,963.85 317.507,954.415 318.455,949.218 319.403,942.052 320.351,930.683 321.298,921.806 322.246,918.86 323.194,915.082 324.142,905.561 326.038,894.748 327.933,886.574 331.725,871.234 335.516,856.875 336.464,849.067 337.412,844.088 338.36,843.603 339.308,841.03 340.255,833.91 341.203,827.674 342.151,825.073 343.099,821.846 344.047,815.166 344.995,808.126 345.943,803.165 346.89,798.201 348.786,783.856 350.682,769.744 354.473,736.801 358.265,700.263 362.056,661.343 365.848,621.484 369.639,582.219 373.43,545.012 374.378,533.167 375.326,522.501 376.274,516.787 377.222,511.31 378.17,501.742 379.118,491.8 380.065,486.111 381.013,481.996 381.961,474.879 382.909,466.483 383.857,461.114 384.805,457.836 386.7,446.582 388.596,438.906 392.388,424.616 396.179,413.848 399.97,404.969 403.762,396.221 404.71,391.279 405.658,387.79 406.605,387.464 407.553,385.824 408.501,380.215 409.449,375.149 410.397,373.919 411.345,372.592 412.484,365.294 413.623,358.433 414.193,357.256 414.762,356.538 415.332,354.826 415.902,351.445 416.471,346.737 417.041,342.125 417.611,338.636 418.18,337.003 418.75,335.687 419.319,333.502 419.889,329.68 420.459,324.736 425.016,295.183 429.573,265.352 434.13,236.704 438.687,210.362 440.965,200.028 443.244,188.098 444.383,185.055 445.522,182.997 446.661,177.113 447.801,172.764 448.94,172.782 450.079,170.309 451.218,165.354 452.358,164.78 454.636,162.591 456.915,162.663 461.471,163.457 466.028,164.096 470.585,163.848 475.142,161.646 477.421,159.458 479.699,156.648 481.978,151.486 484.256,147.459 491.962,126.503 499.668,104.394 503.521,95.8044 507.374,90.2376 509.3,87.9763 511.226,88.4079 513.153,88.2606 515.079,90.1712 518.932,97.4319 522.785,106.556 526.638,118.268 530.491,130.726 534.344,142.96 538.197,153.402 542.049,161.461 545.902,166.551 550.088,168.423 554.273,167.787 558.458,165.944 562.643,163.718 566.829,163.804 571.014,166.526 573.107,167.238 575.199,169.583 577.292,175.317 579.385,181.848 583.57,196.107 587.755,213.4 591.94,230.716 596.126,249.317 600.311,265.275 604.496,282.893 606.589,289.711 608.682,296.115 610.774,301.551 612.867,306.237 616.725,312.836 620.584,317.991 624.442,321.552 628.301,326.113 632.159,331.882 636.018,339.266 639.876,348.378 643.735,360.751 651.452,390.864 659.169,424.759 663.027,440.751 666.886,454.856 670.744,467.68 674.602,477.588 678.739,485.622 682.876,491.274 687.013,495.26 691.149,498.425 695.286,502.132 699.423,506.947 703.559,514.105 707.696,523.373 711.833,535.242 715.969,549.087 720.106,564.103 724.243,579.364 728.379,593.15 732.516,604.701 734.584,608.703 736.653,613.677 737.687,614.386 738.721,615.069 739.755,617.812 740.79,619.27 745.582,620.743 750.375,618.772 755.168,616.764 759.961,615.494 764.753,614.615 769.546,615.307 774.339,619.473 779.132,626.499 783.924,634.128 788.717,642.245 793.51,650.3 798.303,656.225 799.501,656.368 800.699,655.253 801.897,656.716 803.095,657.272 805.492,654.918 807.888,653.539 812.681,646.972 817.474,639.187 821.733,631.366 825.992,623.276 830.251,616.426 834.511,612.044 838.77,610.019 843.029,609.756 847.288,611.085 851.548,612.931 855.807,614.193 860.066,613.525 864.325,610.437 868.585,604.395 872.844,595.464 877.103,584.275 881.362,572.161 885.621,559.05 889.356,547.429 893.091,537.39 896.826,529.201 900.561,522.204 908.031,513.22 915.501,507.974 919.236,505.75 922.971,503.289 926.706,500.072 930.441,495.134 934.176,488.429 937.911,479.698 941.646,469.192 945.381,457.678 949.453,444.381 953.525,431.398 957.597,419.436 961.669,409.713 965.742,401.866 969.814,396.096 973.886,392.142 977.958,389.025 982.03,386.662 986.102,384.254 990.174,380.463 994.246,374.942 998.319,367.622 1002.39,358.269 1006.46,348.052 1010.53,336.647 1014.63,325.795 1018.73,315.564 1022.82,306.1 1026.92,299.707 1028.97,296.853 1031.02,295.492 1032.04,294.934 1033.06,294.014 1033.58,293.495 1034.09,293.524 1034.6,293.781 1035.11,286.478 1035.62,293.623 1036.14,297.472 1036.65,292.559 1037.16,292.336 1038.19,291.868 1039.21,292.747 1041.26,293.089 1043.31,295.253 1047.4,297.318 1051.5,297.912 1055.59,298.185 1059.69,296.374 1063.79,292.19 1067.88,286.727 1071.98,279.068 1076.08,271.471 1080.6,262.677 1085.13,256.946 1089.66,251.936 1094.19,248.92 1098.72,249.32 1103.25,250.429 1107.78,255.486 1112.31,261.198 1116.84,266.391 1121.37,270.252 1125.9,272.205 1130.42,272.845 1139.48,270.539 1148.54,265.655 1152.85,265.139 1157.16,267.029 1161.47,270.399 1165.78,277.452 1174.4,292.315 1183.01,307.435 1185.17,309.849 1187.32,313.813 1188.4,314.476 1189.48,316.324 1190.02,317.207 1190.56,319.689 1191.09,317.916 1191.63,292.107 1192.17,318.114 1192.71,319.053 1193.25,319.234 1193.79,319.403 1194.86,320.952 1195.94,320.701 1196.48,322.657 1197.02,321.089 1197.56,320.52 1198.1,318.201 1198.63,321.659 1199.17,321.828 1199.71,324.416 1200.25,321.576 1202.41,321.489 1204.56,322.314 1206.71,320.739 1208.87,321.823 1213.18,322.165 1217.49,323.579 1221.97,327.561 1226.45,335.003 1230.93,342.275 1235.41,351.156 1239.89,361.581 1244.37,371.861 1248.85,378.847 1253.33,386.703 1257.81,392.311 1262.29,394.753 1266.77,395.212 1271.26,395.391 1275.74,395.408 1280.22,396.617 1284.7,400.018 1289.18,405.191 1296.72,419.893 1304.26,436.135 1311.81,451.058 1319.35,461.519 1323.12,465.013 1326.89,467.688 1330.67,465.623 1334.44,463.539 1341.98,460.013 1349.52,455.928 1354.13,458.253 1358.73,461.834 1363.34,465.251 1367.94,470.873 1372.55,476.504 1377.15,481.672 1381.76,484.984 1386.36,485.791 1390.97,483.893 1395.57,482.456 1400.18,479.539 1404.78,474.816 1409.39,472.722 1413.99,471.67 1418.6,472.302 1423.2,472.578 1431.64,477.257 1440.08,481.496 1444.29,482.045 1448.51,480.73 1452.73,475.991 1456.95,470.725 1465.39,455.842 1473.82,442.171 1478.04,435.055 1482.26,431.608 1486.48,428.319 1490.7,428.037 1498.49,430.273 1506.28,429.658 1510.18,427.994 1514.07,425.396 1516.02,424.298 1517.97,422.024 1518.94,420.609 1519.91,420.301 1520.89,416.186 1521.86,412.807 1523.81,412.027 1525.76,408.976 1527.71,405.691 1529.65,400.842 1533.55,393.071 1537.45,386.011 1541.34,378.863 1545.24,374.36 1549.13,372.147 1553.03,370.364 1560.92,368.627 1568.82,367.947 1572.76,367.498 1576.71,363.919 1580.66,360.668 1584.6,356.779 1592.5,344.098 1600.39,329.815 1604.33,325.465 1608.28,320.021 1612.23,315.665 1616.17,315.942 1620.6,314.345 1625.02,315.175 1627.23,314.402 1629.44,315.394 1630.55,314.568 1631.65,314.801 1632.21,314.167 1632.76,312.177 1633.31,314.886 1633.87,318.859 1634.42,314.132 1634.97,314.087 1635.52,313.304 1636.08,312.016 1636.63,316.775 1637.18,315.101 1637.74,314.01 1638.29,314.247 1640.5,313.431 1642.71,309.771 1644.92,308.708 1647.13,306.773 1649.35,302.117 1651.56,296.949 1655.98,293.682 1660.4,287.668 1664.83,281.192 1669.25,276.577 1673.67,274.62 1678.09,274.628 1682.52,275.202 1686.94,276.613 1690.95,281.437 1694.96,285.765 1698.96,288.881 1702.97,291.167 1706.98,293.179 1710.99,292.802 1715,291.44 1719,290.222 1723.01,286.362 1727.02,283.474 1731.03,281.415 1735.03,278.243 1739.04,279.242 1743.05,281.667 1747.06,283.741 1751.07,285.744 1755.65,289.709 1760.24,297.508 1764.83,301.666 1769.42,304.996 1771.72,306.02 1774.01,303.671 1776.3,306.333 1778.6,307.104 1783.19,305.001 1787.78,301.751 1792.36,300.353 1796.95,297.893 1801.54,298.125 1806.13,301.741 1815.31,310.306 1824.49,321.37 1826.61,325.354 1828.73,328.235 1830.86,329.465 1832.98,331.54 1837.23,336.129 1841.48,336.296 1845.73,338.385 1849.98,339.327 1851.04,338.965 1852.1,339.373 1853.16,338.903 1854.23,336.609 1854.76,338.815 1855.29,340.415 1855.82,337.785 1856.35,340.251 1857.41,339.23 1858.48,338.497 1859.54,339.582 1860.6,342.333 1861.13,340.796 1861.66,343.611 1862.19,339.775 1862.72,338.978 1863.26,340.431 1863.79,341.881 1864.32,340.319 1864.85,340.661 1865.38,344.995 1865.91,339.384 1866.44,343.266 1866.97,344.448 1867.5,342.946 1868.03,343.498 1868.57,344.131 1869.1,346.894 1869.63,347.98 1870.16,342.526 1870.69,346.387 1871.22,346.119 1872.28,349.442 1873.35,354.494 1874.41,352.682 1875.47,353.843 1879.72,359.459 1883.97,364.538 1885.03,367.938 1886.09,371.817 1887.15,371.625 1888.22,373.608 1890.34,376.56 1892.47,378.822 1896.65,381.894 1900.84,386.016 1905.03,386.025 1909.22,385.286 1913.41,384.658 1917.6,379.439 1919.69,379.449 1921.79,377.089 1923.88,375.144 1925.98,370.904 1927.02,372.915 1928.07,373.917 1929.12,372.624 1930.16,372.913 1931.21,370.906 1932.26,371.929 1932.78,375.703 1933.31,372.065 1933.83,371.841 1934.35,368.264 1935.4,371.192 1936.45,374.574 1937.49,374.315 1938.54,372.404 1939.59,372.124 1940.64,374.622 1941.68,374.761 1942.73,372.864 1943.78,375.066 1944.82,377.881 1945.87,378.907 1946.92,379.312 1949.01,382.16 1951.11,381.521 1955.3,386.414 1959.49,392.454 1963.55,394.247 1967.62,394.178 1971.69,395.755 1975.75,395.971 1983.89,391.247 1992.02,388.457 1996.09,389.653 2000.15,388.765 2004.22,391.865 2008.29,395.682 2012.36,398.93 2016.42,403.149 2020.49,404.64 2024.56,405.522 2028.73,406.607 2032.89,403.645 2034.98,404.83 2037.06,404.84 2039.15,403.556 2041.23,399.36 2045.4,392.972 2049.57,389.105 2053.74,384.082 2057.91,380.719 2062.08,377.421 2066.25,376.478 2068.33,377.394 2070.42,378.966 2070.94,375.58 2071.46,373.545 2071.98,376.285 2072.5,375.25 2073.02,375.289 2073.54,372.407 2074.06,376.345 2074.59,365.707 2075.11,375.363 2075.63,376.39 2076.15,375.145 2076.67,377.411 2077.71,376.949 2078.75,378.632 2080.84,376.934 2082.92,377.633 2087.09,375.664 2091.26,375.235 2095.83,375.076 2100.4,369.876 2104.97,364.295 2109.53,359.885 2114.1,353.233 2118.67,346.159 2123.24,340.858 2127.8,339.118 2132.37,335.512 2136.94,336.89 2141.51,336.642 2146.08,339.896 2150.64,341.918 2155.21,342.201 2159.78,340.975 2164.35,338.232 2170.98,331.081 2177.62,321.601 2184.25,312.992 2190.89,309.11 2197.52,306.892 2204.16,308.724 2210.79,310.512 2217.43,311.772 2220.75,310.857 2224.07,310.09 2225.72,309.077 2227.38,307.352 2229.04,306.419 2230.7,302.621 2231.53,305.381 2232.36,302.035 2233.19,302.6 2234.02,297.387 2234.85,298.433 2235.68,301.447 2236.51,299.922 2237.34,297.95 2240.65,293.425 2243.97,288.388 2250.61,282.484 2257.24,278.784 2260.56,276.705 2263.88,275.971 2267.2,279.957 2270.51,281.103 2273.24,281.712 2275.96,281.15 2276.3,281.469 2276.64,280.095 2276.81,282.187 2276.98,283.909 2277.15,280.148 2277.32,284.971 2277.49,282.601 2277.66,282.477 2277.83,283.553 2278,283.956 2278.34,285.477 2278.68,285.926 2280.04,284.777 2281.4,285.183 2284.13,283.805 2286.85,282.526 2289.57,283.372 2292.29,282.505 "/>
<path clip-path="url(#clip960)" d="M2015.48 1438.47 L2281.55 1438.47 L2281.55 1334.79 L2015.48 1334.79  Z" fill="#ffffff" fill-rule="evenodd" fill-opacity="1"/>
<polyline clip-path="url(#clip960)" style="stroke:#000000; stroke-linecap:round; stroke-linejoin:round; stroke-width:4; stroke-opacity:1; fill:none" points="2015.48,1438.47 2281.55,1438.47 2281.55,1334.79 2015.48,1334.79 2015.48,1438.47 "/>
<polyline clip-path="url(#clip960)" style="stroke:#009af9; stroke-linecap:round; stroke-linejoin:round; stroke-width:4; stroke-opacity:1; fill:none" points="2039.22,1386.63 2181.64,1386.63 "/>
<path clip-path="url(#clip960)" d="M2219.22 1406.32 Q2217.42 1410.95 2215.7 1412.36 Q2213.99 1413.78 2211.12 1413.78 L2207.72 1413.78 L2207.72 1410.21 L2210.22 1410.21 Q2211.98 1410.21 2212.95 1409.38 Q2213.92 1408.54 2215.1 1405.44 L2215.86 1403.5 L2205.38 1377.99 L2209.89 1377.99 L2217.99 1398.27 L2226.1 1377.99 L2230.61 1377.99 L2219.22 1406.32 Z" fill="#000000" fill-rule="evenodd" fill-opacity="1" /><path clip-path="url(#clip960)" d="M2237.9 1399.98 L2245.54 1399.98 L2245.54 1373.61 L2237.23 1375.28 L2237.23 1371.02 L2245.49 1369.35 L2250.17 1369.35 L2250.17 1399.98 L2257.81 1399.98 L2257.81 1403.91 L2237.9 1403.91 L2237.9 1399.98 Z" fill="#000000" fill-rule="evenodd" fill-opacity="1" /></svg>
