<?xml version="1.0" encoding="utf-8"?>
<svg xmlns="http://www.w3.org/2000/svg" xmlns:xlink="http://www.w3.org/1999/xlink" width="600" height="400" viewBox="0 0 2400 1600">
<defs>
  <clipPath id="clip750">
    <rect x="0" y="0" width="2400" height="1600"/>
  </clipPath>
</defs>
<path clip-path="url(#clip750)" d="M0 1600 L2400 1600 L2400 0 L0 0  Z" fill="#ffffff" fill-rule="evenodd" fill-opacity="1"/>
<defs>
  <clipPath id="clip751">
    <rect x="480" y="0" width="1681" height="1600"/>
  </clipPath>
</defs>
<path clip-path="url(#clip750)" d="M110.881 1486.45 L2352.76 1486.45 L2352.76 47.2441 L110.881 47.2441  Z" fill="#ffffff" fill-rule="evenodd" fill-opacity="1"/>
<defs>
  <clipPath id="clip752">
    <rect x="110" y="47" width="2243" height="1440"/>
  </clipPath>
</defs>
<polyline clip-path="url(#clip752)" style="stroke:#000000; stroke-linecap:round; stroke-linejoin:round; stroke-width:2; stroke-opacity:0.1; fill:none" points="110.881,1486.45 110.881,47.2441 "/>
<polyline clip-path="url(#clip752)" style="stroke:#000000; stroke-linecap:round; stroke-linejoin:round; stroke-width:2; stroke-opacity:0.1; fill:none" points="858.173,1486.45 858.173,47.2441 "/>
<polyline clip-path="url(#clip752)" style="stroke:#000000; stroke-linecap:round; stroke-linejoin:round; stroke-width:2; stroke-opacity:0.1; fill:none" points="1605.46,1486.45 1605.46,47.2441 "/>
<polyline clip-path="url(#clip752)" style="stroke:#000000; stroke-linecap:round; stroke-linejoin:round; stroke-width:2; stroke-opacity:0.1; fill:none" points="2352.76,1486.45 2352.76,47.2441 "/>
<polyline clip-path="url(#clip750)" style="stroke:#000000; stroke-linecap:round; stroke-linejoin:round; stroke-width:4; stroke-opacity:1; fill:none" points="110.881,1486.45 2352.76,1486.45 "/>
<polyline clip-path="url(#clip750)" style="stroke:#000000; stroke-linecap:round; stroke-linejoin:round; stroke-width:4; stroke-opacity:1; fill:none" points="110.881,1486.45 110.881,1467.55 "/>
<polyline clip-path="url(#clip750)" style="stroke:#000000; stroke-linecap:round; stroke-linejoin:round; stroke-width:4; stroke-opacity:1; fill:none" points="858.173,1486.45 858.173,1467.55 "/>
<polyline clip-path="url(#clip750)" style="stroke:#000000; stroke-linecap:round; stroke-linejoin:round; stroke-width:4; stroke-opacity:1; fill:none" points="1605.46,1486.45 1605.46,1467.55 "/>
<polyline clip-path="url(#clip750)" style="stroke:#000000; stroke-linecap:round; stroke-linejoin:round; stroke-width:4; stroke-opacity:1; fill:none" points="2352.76,1486.45 2352.76,1467.55 "/>
<path clip-path="url(#clip750)" d="M80.638 1532.02 L110.314 1532.02 L110.314 1535.95 L80.638 1535.95 L80.638 1532.02 Z" fill="#000000" fill-rule="evenodd" fill-opacity="1" /><path clip-path="url(#clip750)" d="M121.216 1544.91 L128.855 1544.91 L128.855 1518.55 L120.545 1520.21 L120.545 1515.95 L128.809 1514.29 L133.485 1514.29 L133.485 1544.91 L141.124 1544.91 L141.124 1548.85 L121.216 1548.85 L121.216 1544.91 Z" fill="#000000" fill-rule="evenodd" fill-opacity="1" /><path clip-path="url(#clip750)" d="M858.173 1517.37 Q854.561 1517.37 852.733 1520.93 Q850.927 1524.47 850.927 1531.6 Q850.927 1538.71 852.733 1542.27 Q854.561 1545.82 858.173 1545.82 Q861.807 1545.82 863.612 1542.27 Q865.441 1538.71 865.441 1531.6 Q865.441 1524.47 863.612 1520.93 Q861.807 1517.37 858.173 1517.37 M858.173 1513.66 Q863.983 1513.66 867.038 1518.27 Q870.117 1522.85 870.117 1531.6 Q870.117 1540.33 867.038 1544.94 Q863.983 1549.52 858.173 1549.52 Q852.362 1549.52 849.284 1544.94 Q846.228 1540.33 846.228 1531.6 Q846.228 1522.85 849.284 1518.27 Q852.362 1513.66 858.173 1513.66 Z" fill="#000000" fill-rule="evenodd" fill-opacity="1" /><path clip-path="url(#clip750)" d="M1595.85 1544.91 L1603.49 1544.91 L1603.49 1518.55 L1595.17 1520.21 L1595.17 1515.95 L1603.44 1514.29 L1608.11 1514.29 L1608.11 1544.91 L1615.75 1544.91 L1615.75 1548.85 L1595.85 1548.85 L1595.85 1544.91 Z" fill="#000000" fill-rule="evenodd" fill-opacity="1" /><path clip-path="url(#clip750)" d="M2347.41 1544.91 L2363.73 1544.91 L2363.73 1548.85 L2341.78 1548.85 L2341.78 1544.91 Q2344.45 1542.16 2349.03 1537.53 Q2353.64 1532.88 2354.82 1531.53 Q2357.06 1529.01 2357.94 1527.27 Q2358.84 1525.51 2358.84 1523.82 Q2358.84 1521.07 2356.9 1519.33 Q2354.98 1517.6 2351.88 1517.6 Q2349.68 1517.6 2347.22 1518.36 Q2344.79 1519.13 2342.02 1520.68 L2342.02 1515.95 Q2344.84 1514.82 2347.29 1514.24 Q2349.75 1513.66 2351.78 1513.66 Q2357.15 1513.66 2360.35 1516.35 Q2363.54 1519.03 2363.54 1523.52 Q2363.54 1525.65 2362.73 1527.57 Q2361.95 1529.47 2359.84 1532.07 Q2359.26 1532.74 2356.16 1535.95 Q2353.06 1539.15 2347.41 1544.91 Z" fill="#000000" fill-rule="evenodd" fill-opacity="1" /><polyline clip-path="url(#clip752)" style="stroke:#000000; stroke-linecap:round; stroke-linejoin:round; stroke-width:2; stroke-opacity:0.1; fill:none" points="110.881,1445.72 2352.76,1445.72 "/>
<polyline clip-path="url(#clip752)" style="stroke:#000000; stroke-linecap:round; stroke-linejoin:round; stroke-width:2; stroke-opacity:0.1; fill:none" points="110.881,993.136 2352.76,993.136 "/>
<polyline clip-path="url(#clip752)" style="stroke:#000000; stroke-linecap:round; stroke-linejoin:round; stroke-width:2; stroke-opacity:0.1; fill:none" points="110.881,540.556 2352.76,540.556 "/>
<polyline clip-path="url(#clip752)" style="stroke:#000000; stroke-linecap:round; stroke-linejoin:round; stroke-width:2; stroke-opacity:0.1; fill:none" points="110.881,87.9763 2352.76,87.9763 "/>
<polyline clip-path="url(#clip750)" style="stroke:#000000; stroke-linecap:round; stroke-linejoin:round; stroke-width:4; stroke-opacity:1; fill:none" points="110.881,1486.45 110.881,47.2441 "/>
<polyline clip-path="url(#clip750)" style="stroke:#000000; stroke-linecap:round; stroke-linejoin:round; stroke-width:4; stroke-opacity:1; fill:none" points="110.881,1445.72 129.779,1445.72 "/>
<polyline clip-path="url(#clip750)" style="stroke:#000000; stroke-linecap:round; stroke-linejoin:round; stroke-width:4; stroke-opacity:1; fill:none" points="110.881,993.136 129.779,993.136 "/>
<polyline clip-path="url(#clip750)" style="stroke:#000000; stroke-linecap:round; stroke-linejoin:round; stroke-width:4; stroke-opacity:1; fill:none" points="110.881,540.556 129.779,540.556 "/>
<polyline clip-path="url(#clip750)" style="stroke:#000000; stroke-linecap:round; stroke-linejoin:round; stroke-width:4; stroke-opacity:1; fill:none" points="110.881,87.9763 129.779,87.9763 "/>
<path clip-path="url(#clip750)" d="M62.9365 1431.51 Q59.3254 1431.51 57.4967 1435.08 Q55.6912 1438.62 55.6912 1445.75 Q55.6912 1452.86 57.4967 1456.42 Q59.3254 1459.96 62.9365 1459.96 Q66.5707 1459.96 68.3763 1456.42 Q70.205 1452.86 70.205 1445.75 Q70.205 1438.62 68.3763 1435.08 Q66.5707 1431.51 62.9365 1431.51 M62.9365 1427.81 Q68.7467 1427.81 71.8022 1432.42 Q74.8809 1437 74.8809 1445.75 Q74.8809 1454.48 71.8022 1459.08 Q68.7467 1463.67 62.9365 1463.67 Q57.1264 1463.67 54.0477 1459.08 Q50.9921 1454.48 50.9921 1445.75 Q50.9921 1437 54.0477 1432.42 Q57.1264 1427.81 62.9365 1427.81 Z" fill="#000000" fill-rule="evenodd" fill-opacity="1" /><path clip-path="url(#clip750)" d="M54.9736 1006.48 L62.6124 1006.48 L62.6124 980.115 L54.3023 981.782 L54.3023 977.523 L62.5661 975.856 L67.242 975.856 L67.242 1006.48 L74.8809 1006.48 L74.8809 1010.42 L54.9736 1010.42 L54.9736 1006.48 Z" fill="#000000" fill-rule="evenodd" fill-opacity="1" /><path clip-path="url(#clip750)" d="M58.5615 553.901 L74.8809 553.901 L74.8809 557.836 L52.9366 557.836 L52.9366 553.901 Q55.5986 551.146 60.1819 546.517 Q64.7883 541.864 65.9689 540.521 Q68.2143 537.998 69.0939 536.262 Q69.9967 534.503 69.9967 532.813 Q69.9967 530.058 68.0522 528.322 Q66.1309 526.586 63.0291 526.586 Q60.83 526.586 58.3763 527.35 Q55.9458 528.114 53.168 529.665 L53.168 524.943 Q55.9921 523.808 58.4458 523.23 Q60.8995 522.651 62.9365 522.651 Q68.3068 522.651 71.5013 525.336 Q74.6957 528.021 74.6957 532.512 Q74.6957 534.642 73.8855 536.563 Q73.0985 538.461 70.992 541.054 Q70.4133 541.725 67.3115 544.943 Q64.2096 548.137 58.5615 553.901 Z" fill="#000000" fill-rule="evenodd" fill-opacity="1" /><path clip-path="url(#clip750)" d="M67.7513 86.6221 Q71.1078 87.3397 72.9827 89.6082 Q74.8809 91.8767 74.8809 95.21 Q74.8809 100.326 71.3624 103.127 Q67.8439 105.928 61.3624 105.928 Q59.1865 105.928 56.8717 105.488 Q54.5801 105.071 52.1264 104.215 L52.1264 99.7008 Q54.0708 100.835 56.3856 101.414 Q58.7004 101.992 61.2236 101.992 Q65.6217 101.992 67.9133 100.256 Q70.2281 98.5202 70.2281 95.21 Q70.2281 92.1545 68.0754 90.4415 Q65.9457 88.7054 62.1263 88.7054 L58.0986 88.7054 L58.0986 84.8629 L62.3115 84.8629 Q65.7606 84.8629 67.5893 83.4971 Q69.418 82.1083 69.418 79.5157 Q69.418 76.8537 67.5198 75.4416 Q65.6448 74.0064 62.1263 74.0064 Q60.205 74.0064 58.006 74.4231 Q55.8069 74.8398 53.168 75.7194 L53.168 71.5528 Q55.8301 70.812 58.1449 70.4416 Q60.4828 70.0713 62.543 70.0713 Q67.867 70.0713 70.9689 72.5018 Q74.0707 74.9092 74.0707 79.0296 Q74.0707 81.8999 72.4272 83.8907 Q70.7837 85.8582 67.7513 86.6221 Z" fill="#000000" fill-rule="evenodd" fill-opacity="1" /><path clip-path="url(#clip752)" d="M783.443 87.9763 L783.443 1445.72 L858.173 1445.72 L858.173 87.9763 L783.443 87.9763 L783.443 87.9763  Z" fill="#009af9" fill-rule="evenodd" fill-opacity="1"/>
<polyline clip-path="url(#clip752)" style="stroke:#000000; stroke-linecap:round; stroke-linejoin:round; stroke-width:4; stroke-opacity:1; fill:none" points="783.443,87.9763 783.443,1445.72 858.173,1445.72 858.173,87.9763 783.443,87.9763 "/>
<path clip-path="url(#clip752)" d="M858.173 87.9763 L858.173 1445.72 L932.902 1445.72 L932.902 87.9763 L858.173 87.9763 L858.173 87.9763  Z" fill="#009af9" fill-rule="evenodd" fill-opacity="1"/>
<polyline clip-path="url(#clip752)" style="stroke:#000000; stroke-linecap:round; stroke-linejoin:round; stroke-width:4; stroke-opacity:1; fill:none" points="858.173,87.9763 858.173,1445.72 932.902,1445.72 932.902,87.9763 858.173,87.9763 "/>
<path clip-path="url(#clip752)" d="M932.902 87.9763 L932.902 1445.72 L1007.63 1445.72 L1007.63 87.9763 L932.902 87.9763 L932.902 87.9763  Z" fill="#009af9" fill-rule="evenodd" fill-opacity="1"/>
<polyline clip-path="url(#clip752)" style="stroke:#000000; stroke-linecap:round; stroke-linejoin:round; stroke-width:4; stroke-opacity:1; fill:none" points="932.902,87.9763 932.902,1445.72 1007.63,1445.72 1007.63,87.9763 932.902,87.9763 "/>
<path clip-path="url(#clip752)" d="M1007.63 87.9763 L1007.63 1445.72 L1082.36 1445.72 L1082.36 87.9763 L1007.63 87.9763 L1007.63 87.9763  Z" fill="#009af9" fill-rule="evenodd" fill-opacity="1"/>
<polyline clip-path="url(#clip752)" style="stroke:#000000; stroke-linecap:round; stroke-linejoin:round; stroke-width:4; stroke-opacity:1; fill:none" points="1007.63,87.9763 1007.63,1445.72 1082.36,1445.72 1082.36,87.9763 1007.63,87.9763 "/>
<path clip-path="url(#clip752)" d="M1082.36 87.9763 L1082.36 1445.72 L1157.09 1445.72 L1157.09 87.9763 L1082.36 87.9763 L1082.36 87.9763  Z" fill="#009af9" fill-rule="evenodd" fill-opacity="1"/>
<polyline clip-path="url(#clip752)" style="stroke:#000000; stroke-linecap:round; stroke-linejoin:round; stroke-width:4; stroke-opacity:1; fill:none" points="1082.36,87.9763 1082.36,1445.72 1157.09,1445.72 1157.09,87.9763 1082.36,87.9763 "/>
<path clip-path="url(#clip752)" d="M1157.09 87.9763 L1157.09 1445.72 L1231.82 1445.72 L1231.82 87.9763 L1157.09 87.9763 L1157.09 87.9763  Z" fill="#009af9" fill-rule="evenodd" fill-opacity="1"/>
<polyline clip-path="url(#clip752)" style="stroke:#000000; stroke-linecap:round; stroke-linejoin:round; stroke-width:4; stroke-opacity:1; fill:none" points="1157.09,87.9763 1157.09,1445.72 1231.82,1445.72 1231.82,87.9763 1157.09,87.9763 "/>
<path clip-path="url(#clip752)" d="M1231.82 87.9763 L1231.82 1445.72 L1306.55 1445.72 L1306.55 87.9763 L1231.82 87.9763 L1231.82 87.9763  Z" fill="#009af9" fill-rule="evenodd" fill-opacity="1"/>
<polyline clip-path="url(#clip752)" style="stroke:#000000; stroke-linecap:round; stroke-linejoin:round; stroke-width:4; stroke-opacity:1; fill:none" points="1231.82,87.9763 1231.82,1445.72 1306.55,1445.72 1306.55,87.9763 1231.82,87.9763 "/>
<path clip-path="url(#clip752)" d="M1306.55 540.556 L1306.55 1445.72 L1381.28 1445.72 L1381.28 540.556 L1306.55 540.556 L1306.55 540.556  Z" fill="#009af9" fill-rule="evenodd" fill-opacity="1"/>
<polyline clip-path="url(#clip752)" style="stroke:#000000; stroke-linecap:round; stroke-linejoin:round; stroke-width:4; stroke-opacity:1; fill:none" points="1306.55,540.556 1306.55,1445.72 1381.28,1445.72 1381.28,540.556 1306.55,540.556 "/>
<path clip-path="url(#clip752)" d="M1381.28 87.9763 L1381.28 1445.72 L1456.01 1445.72 L1456.01 87.9763 L1381.28 87.9763 L1381.28 87.9763  Z" fill="#009af9" fill-rule="evenodd" fill-opacity="1"/>
<polyline clip-path="url(#clip752)" style="stroke:#000000; stroke-linecap:round; stroke-linejoin:round; stroke-width:4; stroke-opacity:1; fill:none" points="1381.28,87.9763 1381.28,1445.72 1456.01,1445.72 1456.01,87.9763 1381.28,87.9763 "/>
<path clip-path="url(#clip752)" d="M1456.01 540.556 L1456.01 1445.72 L1530.74 1445.72 L1530.74 540.556 L1456.01 540.556 L1456.01 540.556  Z" fill="#009af9" fill-rule="evenodd" fill-opacity="1"/>
<polyline clip-path="url(#clip752)" style="stroke:#000000; stroke-linecap:round; stroke-linejoin:round; stroke-width:4; stroke-opacity:1; fill:none" points="1456.01,540.556 1456.01,1445.72 1530.74,1445.72 1530.74,540.556 1456.01,540.556 "/>
<path clip-path="url(#clip752)" d="M1530.74 87.9763 L1530.74 1445.72 L1605.46 1445.72 L1605.46 87.9763 L1530.74 87.9763 L1530.74 87.9763  Z" fill="#009af9" fill-rule="evenodd" fill-opacity="1"/>
<polyline clip-path="url(#clip752)" style="stroke:#000000; stroke-linecap:round; stroke-linejoin:round; stroke-width:4; stroke-opacity:1; fill:none" points="1530.74,87.9763 1530.74,1445.72 1605.46,1445.72 1605.46,87.9763 1530.74,87.9763 "/>
<path clip-path="url(#clip752)" d="M1605.46 540.556 L1605.46 1445.72 L1680.19 1445.72 L1680.19 540.556 L1605.46 540.556 L1605.46 540.556  Z" fill="#009af9" fill-rule="evenodd" fill-opacity="1"/>
<polyline clip-path="url(#clip752)" style="stroke:#000000; stroke-linecap:round; stroke-linejoin:round; stroke-width:4; stroke-opacity:1; fill:none" points="1605.46,540.556 1605.46,1445.72 1680.19,1445.72 1680.19,540.556 1605.46,540.556 "/>
<path clip-path="url(#clip752)" d="M1680.19 540.556 L1680.19 1445.72 L1754.92 1445.72 L1754.92 540.556 L1680.19 540.556 L1680.19 540.556  Z" fill="#009af9" fill-rule="evenodd" fill-opacity="1"/>
<polyline clip-path="url(#clip752)" style="stroke:#000000; stroke-linecap:round; stroke-linejoin:round; stroke-width:4; stroke-opacity:1; fill:none" points="1680.19,540.556 1680.19,1445.72 1754.92,1445.72 1754.92,540.556 1680.19,540.556 "/>
<path clip-path="url(#clip752)" d="M1754.92 540.556 L1754.92 1445.72 L1829.65 1445.72 L1829.65 540.556 L1754.92 540.556 L1754.92 540.556  Z" fill="#009af9" fill-rule="evenodd" fill-opacity="1"/>
<polyline clip-path="url(#clip752)" style="stroke:#000000; stroke-linecap:round; stroke-linejoin:round; stroke-width:4; stroke-opacity:1; fill:none" points="1754.92,540.556 1754.92,1445.72 1829.65,1445.72 1829.65,540.556 1754.92,540.556 "/>
<path clip-path="url(#clip752)" d="M1829.65 540.556 L1829.65 1445.72 L1904.38 1445.72 L1904.38 540.556 L1829.65 540.556 L1829.65 540.556  Z" fill="#009af9" fill-rule="evenodd" fill-opacity="1"/>
<polyline clip-path="url(#clip752)" style="stroke:#000000; stroke-linecap:round; stroke-linejoin:round; stroke-width:4; stroke-opacity:1; fill:none" points="1829.65,540.556 1829.65,1445.72 1904.38,1445.72 1904.38,540.556 1829.65,540.556 "/>
<path clip-path="url(#clip752)" d="M1904.38 540.556 L1904.38 1445.72 L1979.11 1445.72 L1979.11 540.556 L1904.38 540.556 L1904.38 540.556  Z" fill="#009af9" fill-rule="evenodd" fill-opacity="1"/>
<polyline clip-path="url(#clip752)" style="stroke:#000000; stroke-linecap:round; stroke-linejoin:round; stroke-width:4; stroke-opacity:1; fill:none" points="1904.38,540.556 1904.38,1445.72 1979.11,1445.72 1979.11,540.556 1904.38,540.556 "/>
<path clip-path="url(#clip752)" d="M1979.11 540.556 L1979.11 1445.72 L2053.84 1445.72 L2053.84 540.556 L1979.11 540.556 L1979.11 540.556  Z" fill="#009af9" fill-rule="evenodd" fill-opacity="1"/>
<polyline clip-path="url(#clip752)" style="stroke:#000000; stroke-linecap:round; stroke-linejoin:round; stroke-width:4; stroke-opacity:1; fill:none" points="1979.11,540.556 1979.11,1445.72 2053.84,1445.72 2053.84,540.556 1979.11,540.556 "/>
<path clip-path="url(#clip752)" d="M2053.84 540.556 L2053.84 1445.72 L2128.57 1445.72 L2128.57 540.556 L2053.84 540.556 L2053.84 540.556  Z" fill="#009af9" fill-rule="evenodd" fill-opacity="1"/>
<polyline clip-path="url(#clip752)" style="stroke:#000000; stroke-linecap:round; stroke-linejoin:round; stroke-width:4; stroke-opacity:1; fill:none" points="2053.84,540.556 2053.84,1445.72 2128.57,1445.72 2128.57,540.556 2053.84,540.556 "/>
<path clip-path="url(#clip752)" d="M2128.57 540.556 L2128.57 1445.72 L2203.3 1445.72 L2203.3 540.556 L2128.57 540.556 L2128.57 540.556  Z" fill="#009af9" fill-rule="evenodd" fill-opacity="1"/>
<polyline clip-path="url(#clip752)" style="stroke:#000000; stroke-linecap:round; stroke-linejoin:round; stroke-width:4; stroke-opacity:1; fill:none" points="2128.57,540.556 2128.57,1445.72 2203.3,1445.72 2203.3,540.556 2128.57,540.556 "/>
<path clip-path="url(#clip752)" d="M2203.3 540.556 L2203.3 1445.72 L2278.03 1445.72 L2278.03 540.556 L2203.3 540.556 L2203.3 540.556  Z" fill="#009af9" fill-rule="evenodd" fill-opacity="1"/>
<polyline clip-path="url(#clip752)" style="stroke:#000000; stroke-linecap:round; stroke-linejoin:round; stroke-width:4; stroke-opacity:1; fill:none" points="2203.3,540.556 2203.3,1445.72 2278.03,1445.72 2278.03,540.556 2203.3,540.556 "/>
<path clip-path="url(#clip752)" d="M2278.03 993.136 L2278.03 1445.72 L2352.76 1445.72 L2352.76 993.136 L2278.03 993.136 L2278.03 993.136  Z" fill="#009af9" fill-rule="evenodd" fill-opacity="1"/>
<polyline clip-path="url(#clip752)" style="stroke:#000000; stroke-linecap:round; stroke-linejoin:round; stroke-width:4; stroke-opacity:1; fill:none" points="2278.03,993.136 2278.03,1445.72 2352.76,1445.72 2352.76,993.136 2278.03,993.136 "/>
<path clip-path="url(#clip752)" d="M2352.76 540.556 L2352.76 1445.72 L2427.49 1445.72 L2427.49 540.556 L2352.76 540.556 L2352.76 540.556  Z" fill="#009af9" fill-rule="evenodd" fill-opacity="1"/>
<polyline clip-path="url(#clip752)" style="stroke:#000000; stroke-linecap:round; stroke-linejoin:round; stroke-width:4; stroke-opacity:1; fill:none" points="2352.76,540.556 2352.76,1445.72 2427.49,1445.72 2427.49,540.556 2352.76,540.556 "/>
<path clip-path="url(#clip752)" d="M2427.49 540.556 L2427.49 1445.72 L2502.21 1445.72 L2502.21 540.556 L2427.49 540.556 L2427.49 540.556  Z" fill="#009af9" fill-rule="evenodd" fill-opacity="1"/>
<polyline clip-path="url(#clip752)" style="stroke:#000000; stroke-linecap:round; stroke-linejoin:round; stroke-width:4; stroke-opacity:1; fill:none" points="2427.49,540.556 2427.49,1445.72 2502.21,1445.72 2502.21,540.556 2427.49,540.556 "/>
<path clip-path="url(#clip752)" d="M2502.21 993.136 L2502.21 1445.72 L2576.94 1445.72 L2576.94 993.136 L2502.21 993.136 L2502.21 993.136  Z" fill="#009af9" fill-rule="evenodd" fill-opacity="1"/>
<polyline clip-path="url(#clip752)" style="stroke:#000000; stroke-linecap:round; stroke-linejoin:round; stroke-width:4; stroke-opacity:1; fill:none" points="2502.21,993.136 2502.21,1445.72 2576.94,1445.72 2576.94,993.136 2502.21,993.136 "/>
<path clip-path="url(#clip752)" d="M2576.94 540.556 L2576.94 1445.72 L2651.67 1445.72 L2651.67 540.556 L2576.94 540.556 L2576.94 540.556  Z" fill="#009af9" fill-rule="evenodd" fill-opacity="1"/>
<polyline clip-path="url(#clip752)" style="stroke:#000000; stroke-linecap:round; stroke-linejoin:round; stroke-width:4; stroke-opacity:1; fill:none" points="2576.94,540.556 2576.94,1445.72 2651.67,1445.72 2651.67,540.556 2576.94,540.556 "/>
<path clip-path="url(#clip752)" d="M2651.67 993.136 L2651.67 1445.72 L2726.4 1445.72 L2726.4 993.136 L2651.67 993.136 L2651.67 993.136  Z" fill="#009af9" fill-rule="evenodd" fill-opacity="1"/>
<polyline clip-path="url(#clip752)" style="stroke:#000000; stroke-linecap:round; stroke-linejoin:round; stroke-width:4; stroke-opacity:1; fill:none" points="2651.67,993.136 2651.67,1445.72 2726.4,1445.72 2726.4,993.136 2651.67,993.136 "/>
<path clip-path="url(#clip752)" d="M2726.4 993.136 L2726.4 1445.72 L2801.13 1445.72 L2801.13 993.136 L2726.4 993.136 L2726.4 993.136  Z" fill="#009af9" fill-rule="evenodd" fill-opacity="1"/>
<polyline clip-path="url(#clip752)" style="stroke:#000000; stroke-linecap:round; stroke-linejoin:round; stroke-width:4; stroke-opacity:1; fill:none" points="2726.4,993.136 2726.4,1445.72 2801.13,1445.72 2801.13,993.136 2726.4,993.136 "/>
<path clip-path="url(#clip752)" d="M2801.13 540.556 L2801.13 1445.72 L2875.86 1445.72 L2875.86 540.556 L2801.13 540.556 L2801.13 540.556  Z" fill="#009af9" fill-rule="evenodd" fill-opacity="1"/>
<polyline clip-path="url(#clip752)" style="stroke:#000000; stroke-linecap:round; stroke-linejoin:round; stroke-width:4; stroke-opacity:1; fill:none" points="2801.13,540.556 2801.13,1445.72 2875.86,1445.72 2875.86,540.556 2801.13,540.556 "/>
<path clip-path="url(#clip752)" d="M2875.86 993.136 L2875.86 1445.72 L2950.59 1445.72 L2950.59 993.136 L2875.86 993.136 L2875.86 993.136  Z" fill="#009af9" fill-rule="evenodd" fill-opacity="1"/>
<polyline clip-path="url(#clip752)" style="stroke:#000000; stroke-linecap:round; stroke-linejoin:round; stroke-width:4; stroke-opacity:1; fill:none" points="2875.86,993.136 2875.86,1445.72 2950.59,1445.72 2950.59,993.136 2875.86,993.136 "/>
<path clip-path="url(#clip752)" d="M2950.59 993.136 L2950.59 1445.72 L3025.32 1445.72 L3025.32 993.136 L2950.59 993.136 L2950.59 993.136  Z" fill="#009af9" fill-rule="evenodd" fill-opacity="1"/>
<polyline clip-path="url(#clip752)" style="stroke:#000000; stroke-linecap:round; stroke-linejoin:round; stroke-width:4; stroke-opacity:1; fill:none" points="2950.59,993.136 2950.59,1445.72 3025.32,1445.72 3025.32,993.136 2950.59,993.136 "/>
<path clip-path="url(#clip752)" d="M3025.32 993.136 L3025.32 1445.72 L3100.05 1445.72 L3100.05 993.136 L3025.32 993.136 L3025.32 993.136  Z" fill="#009af9" fill-rule="evenodd" fill-opacity="1"/>
<polyline clip-path="url(#clip752)" style="stroke:#000000; stroke-linecap:round; stroke-linejoin:round; stroke-width:4; stroke-opacity:1; fill:none" points="3025.32,993.136 3025.32,1445.72 3100.05,1445.72 3100.05,993.136 3025.32,993.136 "/>
<path clip-path="url(#clip752)" d="M3100.05 540.556 L3100.05 1445.72 L3174.78 1445.72 L3174.78 540.556 L3100.05 540.556 L3100.05 540.556  Z" fill="#009af9" fill-rule="evenodd" fill-opacity="1"/>
<polyline clip-path="url(#clip752)" style="stroke:#000000; stroke-linecap:round; stroke-linejoin:round; stroke-width:4; stroke-opacity:1; fill:none" points="3100.05,540.556 3100.05,1445.72 3174.78,1445.72 3174.78,540.556 3100.05,540.556 "/>
<path clip-path="url(#clip752)" d="M3174.78 993.136 L3174.78 1445.72 L3249.51 1445.72 L3249.51 993.136 L3174.78 993.136 L3174.78 993.136  Z" fill="#009af9" fill-rule="evenodd" fill-opacity="1"/>
<polyline clip-path="url(#clip752)" style="stroke:#000000; stroke-linecap:round; stroke-linejoin:round; stroke-width:4; stroke-opacity:1; fill:none" points="3174.78,993.136 3174.78,1445.72 3249.51,1445.72 3249.51,993.136 3174.78,993.136 "/>
<path clip-path="url(#clip752)" d="M3249.51 993.136 L3249.51 1445.72 L3324.24 1445.72 L3324.24 993.136 L3249.51 993.136 L3249.51 993.136  Z" fill="#009af9" fill-rule="evenodd" fill-opacity="1"/>
<polyline clip-path="url(#clip752)" style="stroke:#000000; stroke-linecap:round; stroke-linejoin:round; stroke-width:4; stroke-opacity:1; fill:none" points="3249.51,993.136 3249.51,1445.72 3324.24,1445.72 3324.24,993.136 3249.51,993.136 "/>
<path clip-path="url(#clip752)" d="M3324.24 993.136 L3324.24 1445.72 L3398.96 1445.72 L3398.96 993.136 L3324.24 993.136 L3324.24 993.136  Z" fill="#009af9" fill-rule="evenodd" fill-opacity="1"/>
<polyline clip-path="url(#clip752)" style="stroke:#000000; stroke-linecap:round; stroke-linejoin:round; stroke-width:4; stroke-opacity:1; fill:none" points="3324.24,993.136 3324.24,1445.72 3398.96,1445.72 3398.96,993.136 3324.24,993.136 "/>
<path clip-path="url(#clip752)" d="M3398.96 993.136 L3398.96 1445.72 L3473.69 1445.72 L3473.69 993.136 L3398.96 993.136 L3398.96 993.136  Z" fill="#009af9" fill-rule="evenodd" fill-opacity="1"/>
<polyline clip-path="url(#clip752)" style="stroke:#000000; stroke-linecap:round; stroke-linejoin:round; stroke-width:4; stroke-opacity:1; fill:none" points="3398.96,993.136 3398.96,1445.72 3473.69,1445.72 3473.69,993.136 3398.96,993.136 "/>
<path clip-path="url(#clip752)" d="M3473.69 993.136 L3473.69 1445.72 L3548.42 1445.72 L3548.42 993.136 L3473.69 993.136 L3473.69 993.136  Z" fill="#009af9" fill-rule="evenodd" fill-opacity="1"/>
<polyline clip-path="url(#clip752)" style="stroke:#000000; stroke-linecap:round; stroke-linejoin:round; stroke-width:4; stroke-opacity:1; fill:none" points="3473.69,993.136 3473.69,1445.72 3548.42,1445.72 3548.42,993.136 3473.69,993.136 "/>
<path clip-path="url(#clip752)" d="M3548.42 993.136 L3548.42 1445.72 L3623.15 1445.72 L3623.15 993.136 L3548.42 993.136 L3548.42 993.136  Z" fill="#009af9" fill-rule="evenodd" fill-opacity="1"/>
<polyline clip-path="url(#clip752)" style="stroke:#000000; stroke-linecap:round; stroke-linejoin:round; stroke-width:4; stroke-opacity:1; fill:none" points="3548.42,993.136 3548.42,1445.72 3623.15,1445.72 3623.15,993.136 3548.42,993.136 "/>
<path clip-path="url(#clip752)" d="M3623.15 993.136 L3623.15 1445.72 L3697.88 1445.72 L3697.88 993.136 L3623.15 993.136 L3623.15 993.136  Z" fill="#009af9" fill-rule="evenodd" fill-opacity="1"/>
<polyline clip-path="url(#clip752)" style="stroke:#000000; stroke-linecap:round; stroke-linejoin:round; stroke-width:4; stroke-opacity:1; fill:none" points="3623.15,993.136 3623.15,1445.72 3697.88,1445.72 3697.88,993.136 3623.15,993.136 "/>
<path clip-path="url(#clip752)" d="M3697.88 993.136 L3697.88 1445.72 L3772.61 1445.72 L3772.61 993.136 L3697.88 993.136 L3697.88 993.136  Z" fill="#009af9" fill-rule="evenodd" fill-opacity="1"/>
<polyline clip-path="url(#clip752)" style="stroke:#000000; stroke-linecap:round; stroke-linejoin:round; stroke-width:4; stroke-opacity:1; fill:none" points="3697.88,993.136 3697.88,1445.72 3772.61,1445.72 3772.61,993.136 3697.88,993.136 "/>
<path clip-path="url(#clip752)" d="M3772.61 1445.72 L3772.61 1445.72 L3847.34 1445.72 L3847.34 1445.72 L3772.61 1445.72 L3772.61 1445.72  Z" fill="#009af9" fill-rule="evenodd" fill-opacity="1"/>
<polyline clip-path="url(#clip752)" style="stroke:#000000; stroke-linecap:round; stroke-linejoin:round; stroke-width:4; stroke-opacity:1; fill:none" points="3772.61,1445.72 3772.61,1445.72 3847.34,1445.72 3772.61,1445.72 "/>
<path clip-path="url(#clip752)" d="M3847.34 993.136 L3847.34 1445.72 L3922.07 1445.72 L3922.07 993.136 L3847.34 993.136 L3847.34 993.136  Z" fill="#009af9" fill-rule="evenodd" fill-opacity="1"/>
<polyline clip-path="url(#clip752)" style="stroke:#000000; stroke-linecap:round; stroke-linejoin:round; stroke-width:4; stroke-opacity:1; fill:none" points="3847.34,993.136 3847.34,1445.72 3922.07,1445.72 3922.07,993.136 3847.34,993.136 "/>
<path clip-path="url(#clip752)" d="M3922.07 993.136 L3922.07 1445.72 L3996.8 1445.72 L3996.8 993.136 L3922.07 993.136 L3922.07 993.136  Z" fill="#009af9" fill-rule="evenodd" fill-opacity="1"/>
<polyline clip-path="url(#clip752)" style="stroke:#000000; stroke-linecap:round; stroke-linejoin:round; stroke-width:4; stroke-opacity:1; fill:none" points="3922.07,993.136 3922.07,1445.72 3996.8,1445.72 3996.8,993.136 3922.07,993.136 "/>
<path clip-path="url(#clip752)" d="M3996.8 993.136 L3996.8 1445.72 L4071.53 1445.72 L4071.53 993.136 L3996.8 993.136 L3996.8 993.136  Z" fill="#009af9" fill-rule="evenodd" fill-opacity="1"/>
<polyline clip-path="url(#clip752)" style="stroke:#000000; stroke-linecap:round; stroke-linejoin:round; stroke-width:4; stroke-opacity:1; fill:none" points="3996.8,993.136 3996.8,1445.72 4071.53,1445.72 4071.53,993.136 3996.8,993.136 "/>
<path clip-path="url(#clip752)" d="M4071.53 993.136 L4071.53 1445.72 L4146.26 1445.72 L4146.26 993.136 L4071.53 993.136 L4071.53 993.136  Z" fill="#009af9" fill-rule="evenodd" fill-opacity="1"/>
<polyline clip-path="url(#clip752)" style="stroke:#000000; stroke-linecap:round; stroke-linejoin:round; stroke-width:4; stroke-opacity:1; fill:none" points="4071.53,993.136 4071.53,1445.72 4146.26,1445.72 4146.26,993.136 4071.53,993.136 "/>
<path clip-path="url(#clip752)" d="M4146.26 1445.72 L4146.26 1445.72 L4220.99 1445.72 L4220.99 1445.72 L4146.26 1445.72 L4146.26 1445.72  Z" fill="#009af9" fill-rule="evenodd" fill-opacity="1"/>
<polyline clip-path="url(#clip752)" style="stroke:#000000; stroke-linecap:round; stroke-linejoin:round; stroke-width:4; stroke-opacity:1; fill:none" points="4146.26,1445.72 4146.26,1445.72 4220.99,1445.72 4146.26,1445.72 "/>
<path clip-path="url(#clip752)" d="M4220.99 993.136 L4220.99 1445.72 L4295.71 1445.72 L4295.71 993.136 L4220.99 993.136 L4220.99 993.136  Z" fill="#009af9" fill-rule="evenodd" fill-opacity="1"/>
<polyline clip-path="url(#clip752)" style="stroke:#000000; stroke-linecap:round; stroke-linejoin:round; stroke-width:4; stroke-opacity:1; fill:none" points="4220.99,993.136 4220.99,1445.72 4295.71,1445.72 4295.71,993.136 4220.99,993.136 "/>
<path clip-path="url(#clip752)" d="M4295.71 993.136 L4295.71 1445.72 L4370.44 1445.72 L4370.44 993.136 L4295.71 993.136 L4295.71 993.136  Z" fill="#009af9" fill-rule="evenodd" fill-opacity="1"/>
<polyline clip-path="url(#clip752)" style="stroke:#000000; stroke-linecap:round; stroke-linejoin:round; stroke-width:4; stroke-opacity:1; fill:none" points="4295.71,993.136 4295.71,1445.72 4370.44,1445.72 4370.44,993.136 4295.71,993.136 "/>
<path clip-path="url(#clip752)" d="M4370.44 1445.72 L4370.44 1445.72 L4445.17 1445.72 L4445.17 1445.72 L4370.44 1445.72 L4370.44 1445.72  Z" fill="#009af9" fill-rule="evenodd" fill-opacity="1"/>
<polyline clip-path="url(#clip752)" style="stroke:#000000; stroke-linecap:round; stroke-linejoin:round; stroke-width:4; stroke-opacity:1; fill:none" points="4370.44,1445.72 4370.44,1445.72 4445.17,1445.72 4370.44,1445.72 "/>
<path clip-path="url(#clip752)" d="M4445.17 993.136 L4445.17 1445.72 L4519.9 1445.72 L4519.9 993.136 L4445.17 993.136 L4445.17 993.136  Z" fill="#009af9" fill-rule="evenodd" fill-opacity="1"/>
<polyline clip-path="url(#clip752)" style="stroke:#000000; stroke-linecap:round; stroke-linejoin:round; stroke-width:4; stroke-opacity:1; fill:none" points="4445.17,993.136 4445.17,1445.72 4519.9,1445.72 4519.9,993.136 4445.17,993.136 "/>
<path clip-path="url(#clip752)" d="M4519.9 993.136 L4519.9 1445.72 L4594.63 1445.72 L4594.63 993.136 L4519.9 993.136 L4519.9 993.136  Z" fill="#009af9" fill-rule="evenodd" fill-opacity="1"/>
<polyline clip-path="url(#clip752)" style="stroke:#000000; stroke-linecap:round; stroke-linejoin:round; stroke-width:4; stroke-opacity:1; fill:none" points="4519.9,993.136 4519.9,1445.72 4594.63,1445.72 4594.63,993.136 4519.9,993.136 "/>
<path clip-path="url(#clip752)" d="M4594.63 1445.72 L4594.63 1445.72 L4669.36 1445.72 L4669.36 1445.72 L4594.63 1445.72 L4594.63 1445.72  Z" fill="#009af9" fill-rule="evenodd" fill-opacity="1"/>
<polyline clip-path="url(#clip752)" style="stroke:#000000; stroke-linecap:round; stroke-linejoin:round; stroke-width:4; stroke-opacity:1; fill:none" points="4594.63,1445.72 4594.63,1445.72 4669.36,1445.72 4594.63,1445.72 "/>
<path clip-path="url(#clip752)" d="M4669.36 993.136 L4669.36 1445.72 L4744.09 1445.72 L4744.09 993.136 L4669.36 993.136 L4669.36 993.136  Z" fill="#009af9" fill-rule="evenodd" fill-opacity="1"/>
<polyline clip-path="url(#clip752)" style="stroke:#000000; stroke-linecap:round; stroke-linejoin:round; stroke-width:4; stroke-opacity:1; fill:none" points="4669.36,993.136 4669.36,1445.72 4744.09,1445.72 4744.09,993.136 4669.36,993.136 "/>
<path clip-path="url(#clip752)" d="M4744.09 1445.72 L4744.09 1445.72 L4818.82 1445.72 L4818.82 1445.72 L4744.09 1445.72 L4744.09 1445.72  Z" fill="#009af9" fill-rule="evenodd" fill-opacity="1"/>
<polyline clip-path="url(#clip752)" style="stroke:#000000; stroke-linecap:round; stroke-linejoin:round; stroke-width:4; stroke-opacity:1; fill:none" points="4744.09,1445.72 4744.09,1445.72 4818.82,1445.72 4744.09,1445.72 "/>
<path clip-path="url(#clip752)" d="M4818.82 993.136 L4818.82 1445.72 L4893.55 1445.72 L4893.55 993.136 L4818.82 993.136 L4818.82 993.136  Z" fill="#009af9" fill-rule="evenodd" fill-opacity="1"/>
<polyline clip-path="url(#clip752)" style="stroke:#000000; stroke-linecap:round; stroke-linejoin:round; stroke-width:4; stroke-opacity:1; fill:none" points="4818.82,993.136 4818.82,1445.72 4893.55,1445.72 4893.55,993.136 4818.82,993.136 "/>
<path clip-path="url(#clip752)" d="M4893.55 993.136 L4893.55 1445.72 L4968.28 1445.72 L4968.28 993.136 L4893.55 993.136 L4893.55 993.136  Z" fill="#009af9" fill-rule="evenodd" fill-opacity="1"/>
<polyline clip-path="url(#clip752)" style="stroke:#000000; stroke-linecap:round; stroke-linejoin:round; stroke-width:4; stroke-opacity:1; fill:none" points="4893.55,993.136 4893.55,1445.72 4968.28,1445.72 4968.28,993.136 4893.55,993.136 "/>
<path clip-path="url(#clip752)" d="M4968.28 1445.72 L4968.28 1445.72 L5043.01 1445.72 L5043.01 1445.72 L4968.28 1445.72 L4968.28 1445.72  Z" fill="#009af9" fill-rule="evenodd" fill-opacity="1"/>
<polyline clip-path="url(#clip752)" style="stroke:#000000; stroke-linecap:round; stroke-linejoin:round; stroke-width:4; stroke-opacity:1; fill:none" points="4968.28,1445.72 4968.28,1445.72 5043.01,1445.72 4968.28,1445.72 "/>
<path clip-path="url(#clip752)" d="M5043.01 993.136 L5043.01 1445.72 L5117.74 1445.72 L5117.74 993.136 L5043.01 993.136 L5043.01 993.136  Z" fill="#009af9" fill-rule="evenodd" fill-opacity="1"/>
<polyline clip-path="url(#clip752)" style="stroke:#000000; stroke-linecap:round; stroke-linejoin:round; stroke-width:4; stroke-opacity:1; fill:none" points="5043.01,993.136 5043.01,1445.72 5117.74,1445.72 5117.74,993.136 5043.01,993.136 "/>
<path clip-path="url(#clip752)" d="M5117.74 1445.72 L5117.74 1445.72 L5192.46 1445.72 L5192.46 1445.72 L5117.74 1445.72 L5117.74 1445.72  Z" fill="#009af9" fill-rule="evenodd" fill-opacity="1"/>
<polyline clip-path="url(#clip752)" style="stroke:#000000; stroke-linecap:round; stroke-linejoin:round; stroke-width:4; stroke-opacity:1; fill:none" points="5117.74,1445.72 5117.74,1445.72 5192.46,1445.72 5117.74,1445.72 "/>
<path clip-path="url(#clip752)" d="M5192.46 1445.72 L5192.46 1445.72 L5267.19 1445.72 L5267.19 1445.72 L5192.46 1445.72 L5192.46 1445.72  Z" fill="#009af9" fill-rule="evenodd" fill-opacity="1"/>
<polyline clip-path="url(#clip752)" style="stroke:#000000; stroke-linecap:round; stroke-linejoin:round; stroke-width:4; stroke-opacity:1; fill:none" points="5192.46,1445.72 5192.46,1445.72 5267.19,1445.72 5192.46,1445.72 "/>
<path clip-path="url(#clip752)" d="M5267.19 993.136 L5267.19 1445.72 L5341.92 1445.72 L5341.92 993.136 L5267.19 993.136 L5267.19 993.136  Z" fill="#009af9" fill-rule="evenodd" fill-opacity="1"/>
<polyline clip-path="url(#clip752)" style="stroke:#000000; stroke-linecap:round; stroke-linejoin:round; stroke-width:4; stroke-opacity:1; fill:none" points="5267.19,993.136 5267.19,1445.72 5341.92,1445.72 5341.92,993.136 5267.19,993.136 "/>
<path clip-path="url(#clip752)" d="M5341.92 1445.72 L5341.92 1445.72 L5416.65 1445.72 L5416.65 1445.72 L5341.92 1445.72 L5341.92 1445.72  Z" fill="#009af9" fill-rule="evenodd" fill-opacity="1"/>
<polyline clip-path="url(#clip752)" style="stroke:#000000; stroke-linecap:round; stroke-linejoin:round; stroke-width:4; stroke-opacity:1; fill:none" points="5341.92,1445.72 5341.92,1445.72 5416.65,1445.72 5341.92,1445.72 "/>
<path clip-path="url(#clip752)" d="M5416.65 993.136 L5416.65 1445.72 L5491.38 1445.72 L5491.38 993.136 L5416.65 993.136 L5416.65 993.136  Z" fill="#009af9" fill-rule="evenodd" fill-opacity="1"/>
<polyline clip-path="url(#clip752)" style="stroke:#000000; stroke-linecap:round; stroke-linejoin:round; stroke-width:4; stroke-opacity:1; fill:none" points="5416.65,993.136 5416.65,1445.72 5491.38,1445.72 5491.38,993.136 5416.65,993.136 "/>
<path clip-path="url(#clip752)" d="M5491.38 1445.72 L5491.38 1445.72 L5566.11 1445.72 L5566.11 1445.72 L5491.38 1445.72 L5491.38 1445.72  Z" fill="#009af9" fill-rule="evenodd" fill-opacity="1"/>
<polyline clip-path="url(#clip752)" style="stroke:#000000; stroke-linecap:round; stroke-linejoin:round; stroke-width:4; stroke-opacity:1; fill:none" points="5491.38,1445.72 5491.38,1445.72 5566.11,1445.72 5491.38,1445.72 "/>
<path clip-path="url(#clip752)" d="M5566.11 993.136 L5566.11 1445.72 L5640.84 1445.72 L5640.84 993.136 L5566.11 993.136 L5566.11 993.136  Z" fill="#009af9" fill-rule="evenodd" fill-opacity="1"/>
<polyline clip-path="url(#clip752)" style="stroke:#000000; stroke-linecap:round; stroke-linejoin:round; stroke-width:4; stroke-opacity:1; fill:none" points="5566.11,993.136 5566.11,1445.72 5640.84,1445.72 5640.84,993.136 5566.11,993.136 "/>
<path clip-path="url(#clip752)" d="M5640.84 1445.72 L5640.84 1445.72 L5715.57 1445.72 L5715.57 1445.72 L5640.84 1445.72 L5640.84 1445.72  Z" fill="#009af9" fill-rule="evenodd" fill-opacity="1"/>
<polyline clip-path="url(#clip752)" style="stroke:#000000; stroke-linecap:round; stroke-linejoin:round; stroke-width:4; stroke-opacity:1; fill:none" points="5640.84,1445.72 5640.84,1445.72 5715.57,1445.72 5640.84,1445.72 "/>
<path clip-path="url(#clip752)" d="M5715.57 1445.72 L5715.57 1445.72 L5790.3 1445.72 L5790.3 1445.72 L5715.57 1445.72 L5715.57 1445.72  Z" fill="#009af9" fill-rule="evenodd" fill-opacity="1"/>
<polyline clip-path="url(#clip752)" style="stroke:#000000; stroke-linecap:round; stroke-linejoin:round; stroke-width:4; stroke-opacity:1; fill:none" points="5715.57,1445.72 5715.57,1445.72 5790.3,1445.72 5715.57,1445.72 "/>
<path clip-path="url(#clip752)" d="M5790.3 993.136 L5790.3 1445.72 L5865.03 1445.72 L5865.03 993.136 L5790.3 993.136 L5790.3 993.136  Z" fill="#009af9" fill-rule="evenodd" fill-opacity="1"/>
<polyline clip-path="url(#clip752)" style="stroke:#000000; stroke-linecap:round; stroke-linejoin:round; stroke-width:4; stroke-opacity:1; fill:none" points="5790.3,993.136 5790.3,1445.72 5865.03,1445.72 5865.03,993.136 5790.3,993.136 "/>
<path clip-path="url(#clip752)" d="M5865.03 1445.72 L5865.03 1445.72 L5939.76 1445.72 L5939.76 1445.72 L5865.03 1445.72 L5865.03 1445.72  Z" fill="#009af9" fill-rule="evenodd" fill-opacity="1"/>
<polyline clip-path="url(#clip752)" style="stroke:#000000; stroke-linecap:round; stroke-linejoin:round; stroke-width:4; stroke-opacity:1; fill:none" points="5865.03,1445.72 5865.03,1445.72 5939.76,1445.72 5865.03,1445.72 "/>
<path clip-path="url(#clip752)" d="M5939.76 1445.72 L5939.76 1445.72 L6014.49 1445.72 L6014.49 1445.72 L5939.76 1445.72 L5939.76 1445.72  Z" fill="#009af9" fill-rule="evenodd" fill-opacity="1"/>
<polyline clip-path="url(#clip752)" style="stroke:#000000; stroke-linecap:round; stroke-linejoin:round; stroke-width:4; stroke-opacity:1; fill:none" points="5939.76,1445.72 5939.76,1445.72 6014.49,1445.72 5939.76,1445.72 "/>
<path clip-path="url(#clip752)" d="M6014.49 993.136 L6014.49 1445.72 L6089.21 1445.72 L6089.21 993.136 L6014.49 993.136 L6014.49 993.136  Z" fill="#009af9" fill-rule="evenodd" fill-opacity="1"/>
<polyline clip-path="url(#clip752)" style="stroke:#000000; stroke-linecap:round; stroke-linejoin:round; stroke-width:4; stroke-opacity:1; fill:none" points="6014.49,993.136 6014.49,1445.72 6089.21,1445.72 6089.21,993.136 6014.49,993.136 "/>
<path clip-path="url(#clip752)" d="M6089.21 1445.72 L6089.21 1445.72 L6163.94 1445.72 L6163.94 1445.72 L6089.21 1445.72 L6089.21 1445.72  Z" fill="#009af9" fill-rule="evenodd" fill-opacity="1"/>
<polyline clip-path="url(#clip752)" style="stroke:#000000; stroke-linecap:round; stroke-linejoin:round; stroke-width:4; stroke-opacity:1; fill:none" points="6089.21,1445.72 6089.21,1445.72 6163.94,1445.72 6089.21,1445.72 "/>
<path clip-path="url(#clip752)" d="M6163.94 1445.72 L6163.94 1445.72 L6238.67 1445.72 L6238.67 1445.72 L6163.94 1445.72 L6163.94 1445.72  Z" fill="#009af9" fill-rule="evenodd" fill-opacity="1"/>
<polyline clip-path="url(#clip752)" style="stroke:#000000; stroke-linecap:round; stroke-linejoin:round; stroke-width:4; stroke-opacity:1; fill:none" points="6163.94,1445.72 6163.94,1445.72 6238.67,1445.72 6163.94,1445.72 "/>
<path clip-path="url(#clip752)" d="M6238.67 993.136 L6238.67 1445.72 L6313.4 1445.72 L6313.4 993.136 L6238.67 993.136 L6238.67 993.136  Z" fill="#009af9" fill-rule="evenodd" fill-opacity="1"/>
<polyline clip-path="url(#clip752)" style="stroke:#000000; stroke-linecap:round; stroke-linejoin:round; stroke-width:4; stroke-opacity:1; fill:none" points="6238.67,993.136 6238.67,1445.72 6313.4,1445.72 6313.4,993.136 6238.67,993.136 "/>
<path clip-path="url(#clip752)" d="M6313.4 1445.72 L6313.4 1445.72 L6388.13 1445.72 L6388.13 1445.72 L6313.4 1445.72 L6313.4 1445.72  Z" fill="#009af9" fill-rule="evenodd" fill-opacity="1"/>
<polyline clip-path="url(#clip752)" style="stroke:#000000; stroke-linecap:round; stroke-linejoin:round; stroke-width:4; stroke-opacity:1; fill:none" points="6313.4,1445.72 6313.4,1445.72 6388.13,1445.72 6313.4,1445.72 "/>
<path clip-path="url(#clip752)" d="M6388.13 1445.72 L6388.13 1445.72 L6462.86 1445.72 L6462.86 1445.72 L6388.13 1445.72 L6388.13 1445.72  Z" fill="#009af9" fill-rule="evenodd" fill-opacity="1"/>
<polyline clip-path="url(#clip752)" style="stroke:#000000; stroke-linecap:round; stroke-linejoin:round; stroke-width:4; stroke-opacity:1; fill:none" points="6388.13,1445.72 6388.13,1445.72 6462.86,1445.72 6388.13,1445.72 "/>
<path clip-path="url(#clip752)" d="M6462.86 1445.72 L6462.86 1445.72 L6537.59 1445.72 L6537.59 1445.72 L6462.86 1445.72 L6462.86 1445.72  Z" fill="#009af9" fill-rule="evenodd" fill-opacity="1"/>
<polyline clip-path="url(#clip752)" style="stroke:#000000; stroke-linecap:round; stroke-linejoin:round; stroke-width:4; stroke-opacity:1; fill:none" points="6462.86,1445.72 6462.86,1445.72 6537.59,1445.72 6462.86,1445.72 "/>
<path clip-path="url(#clip752)" d="M6537.59 993.136 L6537.59 1445.72 L6612.32 1445.72 L6612.32 993.136 L6537.59 993.136 L6537.59 993.136  Z" fill="#009af9" fill-rule="evenodd" fill-opacity="1"/>
<polyline clip-path="url(#clip752)" style="stroke:#000000; stroke-linecap:round; stroke-linejoin:round; stroke-width:4; stroke-opacity:1; fill:none" points="6537.59,993.136 6537.59,1445.72 6612.32,1445.72 6612.32,993.136 6537.59,993.136 "/>
<path clip-path="url(#clip752)" d="M6612.32 1445.72 L6612.32 1445.72 L6687.05 1445.72 L6687.05 1445.72 L6612.32 1445.72 L6612.32 1445.72  Z" fill="#009af9" fill-rule="evenodd" fill-opacity="1"/>
<polyline clip-path="url(#clip752)" style="stroke:#000000; stroke-linecap:round; stroke-linejoin:round; stroke-width:4; stroke-opacity:1; fill:none" points="6612.32,1445.72 6612.32,1445.72 6687.05,1445.72 6612.32,1445.72 "/>
<path clip-path="url(#clip752)" d="M6687.05 1445.72 L6687.05 1445.72 L6761.78 1445.72 L6761.78 1445.72 L6687.05 1445.72 L6687.05 1445.72  Z" fill="#009af9" fill-rule="evenodd" fill-opacity="1"/>
<polyline clip-path="url(#clip752)" style="stroke:#000000; stroke-linecap:round; stroke-linejoin:round; stroke-width:4; stroke-opacity:1; fill:none" points="6687.05,1445.72 6687.05,1445.72 6761.78,1445.72 6687.05,1445.72 "/>
<path clip-path="url(#clip752)" d="M6761.78 1445.72 L6761.78 1445.72 L6836.51 1445.72 L6836.51 1445.72 L6761.78 1445.72 L6761.78 1445.72  Z" fill="#009af9" fill-rule="evenodd" fill-opacity="1"/>
<polyline clip-path="url(#clip752)" style="stroke:#000000; stroke-linecap:round; stroke-linejoin:round; stroke-width:4; stroke-opacity:1; fill:none" points="6761.78,1445.72 6761.78,1445.72 6836.51,1445.72 6761.78,1445.72 "/>
<path clip-path="url(#clip752)" d="M6836.51 1445.72 L6836.51 1445.72 L6911.24 1445.72 L6911.24 1445.72 L6836.51 1445.72 L6836.51 1445.72  Z" fill="#009af9" fill-rule="evenodd" fill-opacity="1"/>
<polyline clip-path="url(#clip752)" style="stroke:#000000; stroke-linecap:round; stroke-linejoin:round; stroke-width:4; stroke-opacity:1; fill:none" points="6836.51,1445.72 6836.51,1445.72 6911.24,1445.72 6836.51,1445.72 "/>
<path clip-path="url(#clip752)" d="M6911.24 993.136 L6911.24 1445.72 L6985.96 1445.72 L6985.96 993.136 L6911.24 993.136 L6911.24 993.136  Z" fill="#009af9" fill-rule="evenodd" fill-opacity="1"/>
<polyline clip-path="url(#clip752)" style="stroke:#000000; stroke-linecap:round; stroke-linejoin:round; stroke-width:4; stroke-opacity:1; fill:none" points="6911.24,993.136 6911.24,1445.72 6985.96,1445.72 6985.96,993.136 6911.24,993.136 "/>
<path clip-path="url(#clip752)" d="M6985.96 1445.72 L6985.96 1445.72 L7060.69 1445.72 L7060.69 1445.72 L6985.96 1445.72 L6985.96 1445.72  Z" fill="#009af9" fill-rule="evenodd" fill-opacity="1"/>
<polyline clip-path="url(#clip752)" style="stroke:#000000; stroke-linecap:round; stroke-linejoin:round; stroke-width:4; stroke-opacity:1; fill:none" points="6985.96,1445.72 6985.96,1445.72 7060.69,1445.72 6985.96,1445.72 "/>
<path clip-path="url(#clip752)" d="M7060.69 1445.72 L7060.69 1445.72 L7135.42 1445.72 L7135.42 1445.72 L7060.69 1445.72 L7060.69 1445.72  Z" fill="#009af9" fill-rule="evenodd" fill-opacity="1"/>
<polyline clip-path="url(#clip752)" style="stroke:#000000; stroke-linecap:round; stroke-linejoin:round; stroke-width:4; stroke-opacity:1; fill:none" points="7060.69,1445.72 7060.69,1445.72 7135.42,1445.72 7060.69,1445.72 "/>
<path clip-path="url(#clip752)" d="M7135.42 1445.72 L7135.42 1445.72 L7210.15 1445.72 L7210.15 1445.72 L7135.42 1445.72 L7135.42 1445.72  Z" fill="#009af9" fill-rule="evenodd" fill-opacity="1"/>
<polyline clip-path="url(#clip752)" style="stroke:#000000; stroke-linecap:round; stroke-linejoin:round; stroke-width:4; stroke-opacity:1; fill:none" points="7135.42,1445.72 7135.42,1445.72 7210.15,1445.72 7135.42,1445.72 "/>
<path clip-path="url(#clip752)" d="M7210.15 1445.72 L7210.15 1445.72 L7284.88 1445.72 L7284.88 1445.72 L7210.15 1445.72 L7210.15 1445.72  Z" fill="#009af9" fill-rule="evenodd" fill-opacity="1"/>
<polyline clip-path="url(#clip752)" style="stroke:#000000; stroke-linecap:round; stroke-linejoin:round; stroke-width:4; stroke-opacity:1; fill:none" points="7210.15,1445.72 7210.15,1445.72 7284.88,1445.72 7210.15,1445.72 "/>
<path clip-path="url(#clip752)" d="M7284.88 993.136 L7284.88 1445.72 L7359.61 1445.72 L7359.61 993.136 L7284.88 993.136 L7284.88 993.136  Z" fill="#009af9" fill-rule="evenodd" fill-opacity="1"/>
<polyline clip-path="url(#clip752)" style="stroke:#000000; stroke-linecap:round; stroke-linejoin:round; stroke-width:4; stroke-opacity:1; fill:none" points="7284.88,993.136 7284.88,1445.72 7359.61,1445.72 7359.61,993.136 7284.88,993.136 "/>
<path clip-path="url(#clip752)" d="M7359.61 1445.72 L7359.61 1445.72 L7434.34 1445.72 L7434.34 1445.72 L7359.61 1445.72 L7359.61 1445.72  Z" fill="#009af9" fill-rule="evenodd" fill-opacity="1"/>
<polyline clip-path="url(#clip752)" style="stroke:#000000; stroke-linecap:round; stroke-linejoin:round; stroke-width:4; stroke-opacity:1; fill:none" points="7359.61,1445.72 7359.61,1445.72 7434.34,1445.72 7359.61,1445.72 "/>
<path clip-path="url(#clip752)" d="M7434.34 1445.72 L7434.34 1445.72 L7509.07 1445.72 L7509.07 1445.72 L7434.34 1445.72 L7434.34 1445.72  Z" fill="#009af9" fill-rule="evenodd" fill-opacity="1"/>
<polyline clip-path="url(#clip752)" style="stroke:#000000; stroke-linecap:round; stroke-linejoin:round; stroke-width:4; stroke-opacity:1; fill:none" points="7434.34,1445.72 7434.34,1445.72 7509.07,1445.72 7434.34,1445.72 "/>
<path clip-path="url(#clip752)" d="M7509.07 1445.72 L7509.07 1445.72 L7583.8 1445.72 L7583.8 1445.72 L7509.07 1445.72 L7509.07 1445.72  Z" fill="#009af9" fill-rule="evenodd" fill-opacity="1"/>
<polyline clip-path="url(#clip752)" style="stroke:#000000; stroke-linecap:round; stroke-linejoin:round; stroke-width:4; stroke-opacity:1; fill:none" points="7509.07,1445.72 7509.07,1445.72 7583.8,1445.72 7509.07,1445.72 "/>
<path clip-path="url(#clip752)" d="M7583.8 1445.72 L7583.8 1445.72 L7658.53 1445.72 L7658.53 1445.72 L7583.8 1445.72 L7583.8 1445.72  Z" fill="#009af9" fill-rule="evenodd" fill-opacity="1"/>
<polyline clip-path="url(#clip752)" style="stroke:#000000; stroke-linecap:round; stroke-linejoin:round; stroke-width:4; stroke-opacity:1; fill:none" points="7583.8,1445.72 7583.8,1445.72 7658.53,1445.72 7583.8,1445.72 "/>
<path clip-path="url(#clip752)" d="M7658.53 1445.72 L7658.53 1445.72 L7733.26 1445.72 L7733.26 1445.72 L7658.53 1445.72 L7658.53 1445.72  Z" fill="#009af9" fill-rule="evenodd" fill-opacity="1"/>
<polyline clip-path="url(#clip752)" style="stroke:#000000; stroke-linecap:round; stroke-linejoin:round; stroke-width:4; stroke-opacity:1; fill:none" points="7658.53,1445.72 7658.53,1445.72 7733.26,1445.72 7658.53,1445.72 "/>
<path clip-path="url(#clip752)" d="M7733.26 993.136 L7733.26 1445.72 L7807.99 1445.72 L7807.99 993.136 L7733.26 993.136 L7733.26 993.136  Z" fill="#009af9" fill-rule="evenodd" fill-opacity="1"/>
<polyline clip-path="url(#clip752)" style="stroke:#000000; stroke-linecap:round; stroke-linejoin:round; stroke-width:4; stroke-opacity:1; fill:none" points="7733.26,993.136 7733.26,1445.72 7807.99,1445.72 7807.99,993.136 7733.26,993.136 "/>
<path clip-path="url(#clip752)" d="M7807.99 1445.72 L7807.99 1445.72 L7882.71 1445.72 L7882.71 1445.72 L7807.99 1445.72 L7807.99 1445.72  Z" fill="#009af9" fill-rule="evenodd" fill-opacity="1"/>
<polyline clip-path="url(#clip752)" style="stroke:#000000; stroke-linecap:round; stroke-linejoin:round; stroke-width:4; stroke-opacity:1; fill:none" points="7807.99,1445.72 7807.99,1445.72 7882.71,1445.72 7807.99,1445.72 "/>
<path clip-path="url(#clip752)" d="M7882.71 1445.72 L7882.71 1445.72 L7957.44 1445.72 L7957.44 1445.72 L7882.71 1445.72 L7882.71 1445.72  Z" fill="#009af9" fill-rule="evenodd" fill-opacity="1"/>
<polyline clip-path="url(#clip752)" style="stroke:#000000; stroke-linecap:round; stroke-linejoin:round; stroke-width:4; stroke-opacity:1; fill:none" points="7882.71,1445.72 7882.71,1445.72 7957.44,1445.72 7882.71,1445.72 "/>
<path clip-path="url(#clip752)" d="M7957.44 1445.72 L7957.44 1445.72 L8032.17 1445.72 L8032.17 1445.72 L7957.44 1445.72 L7957.44 1445.72  Z" fill="#009af9" fill-rule="evenodd" fill-opacity="1"/>
<polyline clip-path="url(#clip752)" style="stroke:#000000; stroke-linecap:round; stroke-linejoin:round; stroke-width:4; stroke-opacity:1; fill:none" points="7957.44,1445.72 7957.44,1445.72 8032.17,1445.72 7957.44,1445.72 "/>
<path clip-path="url(#clip752)" d="M8032.17 1445.72 L8032.17 1445.72 L8106.9 1445.72 L8106.9 1445.72 L8032.17 1445.72 L8032.17 1445.72  Z" fill="#009af9" fill-rule="evenodd" fill-opacity="1"/>
<polyline clip-path="url(#clip752)" style="stroke:#000000; stroke-linecap:round; stroke-linejoin:round; stroke-width:4; stroke-opacity:1; fill:none" points="8032.17,1445.72 8032.17,1445.72 8106.9,1445.72 8032.17,1445.72 "/>
<path clip-path="url(#clip752)" d="M8106.9 1445.72 L8106.9 1445.72 L8181.63 1445.72 L8181.63 1445.72 L8106.9 1445.72 L8106.9 1445.72  Z" fill="#009af9" fill-rule="evenodd" fill-opacity="1"/>
<polyline clip-path="url(#clip752)" style="stroke:#000000; stroke-linecap:round; stroke-linejoin:round; stroke-width:4; stroke-opacity:1; fill:none" points="8106.9,1445.72 8106.9,1445.72 8181.63,1445.72 8106.9,1445.72 "/>
<path clip-path="url(#clip752)" d="M8181.63 1445.72 L8181.63 1445.72 L8256.36 1445.72 L8256.36 1445.72 L8181.63 1445.72 L8181.63 1445.72  Z" fill="#009af9" fill-rule="evenodd" fill-opacity="1"/>
<polyline clip-path="url(#clip752)" style="stroke:#000000; stroke-linecap:round; stroke-linejoin:round; stroke-width:4; stroke-opacity:1; fill:none" points="8181.63,1445.72 8181.63,1445.72 8256.36,1445.72 8181.63,1445.72 "/>
<path clip-path="url(#clip752)" d="M8256.36 993.136 L8256.36 1445.72 L8331.09 1445.72 L8331.09 993.136 L8256.36 993.136 L8256.36 993.136  Z" fill="#009af9" fill-rule="evenodd" fill-opacity="1"/>
<polyline clip-path="url(#clip752)" style="stroke:#000000; stroke-linecap:round; stroke-linejoin:round; stroke-width:4; stroke-opacity:1; fill:none" points="8256.36,993.136 8256.36,1445.72 8331.09,1445.72 8331.09,993.136 8256.36,993.136 "/>
<path clip-path="url(#clip752)" d="M8331.09 1445.72 L8331.09 1445.72 L8405.82 1445.72 L8405.82 1445.72 L8331.09 1445.72 L8331.09 1445.72  Z" fill="#009af9" fill-rule="evenodd" fill-opacity="1"/>
<polyline clip-path="url(#clip752)" style="stroke:#000000; stroke-linecap:round; stroke-linejoin:round; stroke-width:4; stroke-opacity:1; fill:none" points="8331.09,1445.72 8331.09,1445.72 8405.82,1445.72 8331.09,1445.72 "/>
<path clip-path="url(#clip752)" d="M8405.82 1445.72 L8405.82 1445.72 L8480.55 1445.72 L8480.55 1445.72 L8405.82 1445.72 L8405.82 1445.72  Z" fill="#009af9" fill-rule="evenodd" fill-opacity="1"/>
<polyline clip-path="url(#clip752)" style="stroke:#000000; stroke-linecap:round; stroke-linejoin:round; stroke-width:4; stroke-opacity:1; fill:none" points="8405.82,1445.72 8405.82,1445.72 8480.55,1445.72 8405.82,1445.72 "/>
<path clip-path="url(#clip752)" d="M8480.55 1445.72 L8480.55 1445.72 L8555.28 1445.72 L8555.28 1445.72 L8480.55 1445.72 L8480.55 1445.72  Z" fill="#009af9" fill-rule="evenodd" fill-opacity="1"/>
<polyline clip-path="url(#clip752)" style="stroke:#000000; stroke-linecap:round; stroke-linejoin:round; stroke-width:4; stroke-opacity:1; fill:none" points="8480.55,1445.72 8480.55,1445.72 8555.28,1445.72 8480.55,1445.72 "/>
<path clip-path="url(#clip752)" d="M8555.28 1445.72 L8555.28 1445.72 L8630.01 1445.72 L8630.01 1445.72 L8555.28 1445.72 L8555.28 1445.72  Z" fill="#009af9" fill-rule="evenodd" fill-opacity="1"/>
<polyline clip-path="url(#clip752)" style="stroke:#000000; stroke-linecap:round; stroke-linejoin:round; stroke-width:4; stroke-opacity:1; fill:none" points="8555.28,1445.72 8555.28,1445.72 8630.01,1445.72 8555.28,1445.72 "/>
<path clip-path="url(#clip752)" d="M8630.01 1445.72 L8630.01 1445.72 L8704.74 1445.72 L8704.74 1445.72 L8630.01 1445.72 L8630.01 1445.72  Z" fill="#009af9" fill-rule="evenodd" fill-opacity="1"/>
<polyline clip-path="url(#clip752)" style="stroke:#000000; stroke-linecap:round; stroke-linejoin:round; stroke-width:4; stroke-opacity:1; fill:none" points="8630.01,1445.72 8630.01,1445.72 8704.74,1445.72 8630.01,1445.72 "/>
<path clip-path="url(#clip752)" d="M8704.74 1445.72 L8704.74 1445.72 L8779.46 1445.72 L8779.46 1445.72 L8704.74 1445.72 L8704.74 1445.72  Z" fill="#009af9" fill-rule="evenodd" fill-opacity="1"/>
<polyline clip-path="url(#clip752)" style="stroke:#000000; stroke-linecap:round; stroke-linejoin:round; stroke-width:4; stroke-opacity:1; fill:none" points="8704.74,1445.72 8704.74,1445.72 8779.46,1445.72 8704.74,1445.72 "/>
<path clip-path="url(#clip752)" d="M8779.46 1445.72 L8779.46 1445.72 L8854.19 1445.72 L8854.19 1445.72 L8779.46 1445.72 L8779.46 1445.72  Z" fill="#009af9" fill-rule="evenodd" fill-opacity="1"/>
<polyline clip-path="url(#clip752)" style="stroke:#000000; stroke-linecap:round; stroke-linejoin:round; stroke-width:4; stroke-opacity:1; fill:none" points="8779.46,1445.72 8779.46,1445.72 8854.19,1445.72 8779.46,1445.72 "/>
<path clip-path="url(#clip752)" d="M8854.19 1445.72 L8854.19 1445.72 L8928.92 1445.72 L8928.92 1445.72 L8854.19 1445.72 L8854.19 1445.72  Z" fill="#009af9" fill-rule="evenodd" fill-opacity="1"/>
<polyline clip-path="url(#clip752)" style="stroke:#000000; stroke-linecap:round; stroke-linejoin:round; stroke-width:4; stroke-opacity:1; fill:none" points="8854.19,1445.72 8854.19,1445.72 8928.92,1445.72 8854.19,1445.72 "/>
<path clip-path="url(#clip752)" d="M8928.92 1445.72 L8928.92 1445.72 L9003.65 1445.72 L9003.65 1445.72 L8928.92 1445.72 L8928.92 1445.72  Z" fill="#009af9" fill-rule="evenodd" fill-opacity="1"/>
<polyline clip-path="url(#clip752)" style="stroke:#000000; stroke-linecap:round; stroke-linejoin:round; stroke-width:4; stroke-opacity:1; fill:none" points="8928.92,1445.72 8928.92,1445.72 9003.65,1445.72 8928.92,1445.72 "/>
<path clip-path="url(#clip752)" d="M9003.65 993.136 L9003.65 1445.72 L9078.38 1445.72 L9078.38 993.136 L9003.65 993.136 L9003.65 993.136  Z" fill="#009af9" fill-rule="evenodd" fill-opacity="1"/>
<polyline clip-path="url(#clip752)" style="stroke:#000000; stroke-linecap:round; stroke-linejoin:round; stroke-width:4; stroke-opacity:1; fill:none" points="9003.65,993.136 9003.65,1445.72 9078.38,1445.72 9078.38,993.136 9003.65,993.136 "/>
<path clip-path="url(#clip752)" d="M9078.38 1445.72 L9078.38 1445.72 L9153.11 1445.72 L9153.11 1445.72 L9078.38 1445.72 L9078.38 1445.72  Z" fill="#009af9" fill-rule="evenodd" fill-opacity="1"/>
<polyline clip-path="url(#clip752)" style="stroke:#000000; stroke-linecap:round; stroke-linejoin:round; stroke-width:4; stroke-opacity:1; fill:none" points="9078.38,1445.72 9078.38,1445.72 9153.11,1445.72 9078.38,1445.72 "/>
<path clip-path="url(#clip752)" d="M9153.11 1445.72 L9153.11 1445.72 L9227.84 1445.72 L9227.84 1445.72 L9153.11 1445.72 L9153.11 1445.72  Z" fill="#009af9" fill-rule="evenodd" fill-opacity="1"/>
<polyline clip-path="url(#clip752)" style="stroke:#000000; stroke-linecap:round; stroke-linejoin:round; stroke-width:4; stroke-opacity:1; fill:none" points="9153.11,1445.72 9153.11,1445.72 9227.84,1445.72 9153.11,1445.72 "/>
<path clip-path="url(#clip752)" d="M9227.84 1445.72 L9227.84 1445.72 L9302.57 1445.72 L9302.57 1445.72 L9227.84 1445.72 L9227.84 1445.72  Z" fill="#009af9" fill-rule="evenodd" fill-opacity="1"/>
<polyline clip-path="url(#clip752)" style="stroke:#000000; stroke-linecap:round; stroke-linejoin:round; stroke-width:4; stroke-opacity:1; fill:none" points="9227.84,1445.72 9227.84,1445.72 9302.57,1445.72 9227.84,1445.72 "/>
<path clip-path="url(#clip752)" d="M9302.57 1445.72 L9302.57 1445.72 L9377.3 1445.72 L9377.3 1445.72 L9302.57 1445.72 L9302.57 1445.72  Z" fill="#009af9" fill-rule="evenodd" fill-opacity="1"/>
<polyline clip-path="url(#clip752)" style="stroke:#000000; stroke-linecap:round; stroke-linejoin:round; stroke-width:4; stroke-opacity:1; fill:none" points="9302.57,1445.72 9302.57,1445.72 9377.3,1445.72 9302.57,1445.72 "/>
<path clip-path="url(#clip752)" d="M9377.3 1445.72 L9377.3 1445.72 L9452.03 1445.72 L9452.03 1445.72 L9377.3 1445.72 L9377.3 1445.72  Z" fill="#009af9" fill-rule="evenodd" fill-opacity="1"/>
<polyline clip-path="url(#clip752)" style="stroke:#000000; stroke-linecap:round; stroke-linejoin:round; stroke-width:4; stroke-opacity:1; fill:none" points="9377.3,1445.72 9377.3,1445.72 9452.03,1445.72 9377.3,1445.72 "/>
<path clip-path="url(#clip752)" d="M9452.03 1445.72 L9452.03 1445.72 L9526.76 1445.72 L9526.76 1445.72 L9452.03 1445.72 L9452.03 1445.72  Z" fill="#009af9" fill-rule="evenodd" fill-opacity="1"/>
<polyline clip-path="url(#clip752)" style="stroke:#000000; stroke-linecap:round; stroke-linejoin:round; stroke-width:4; stroke-opacity:1; fill:none" points="9452.03,1445.72 9452.03,1445.72 9526.76,1445.72 9452.03,1445.72 "/>
<path clip-path="url(#clip752)" d="M9526.76 1445.72 L9526.76 1445.72 L9601.49 1445.72 L9601.49 1445.72 L9526.76 1445.72 L9526.76 1445.72  Z" fill="#009af9" fill-rule="evenodd" fill-opacity="1"/>
<polyline clip-path="url(#clip752)" style="stroke:#000000; stroke-linecap:round; stroke-linejoin:round; stroke-width:4; stroke-opacity:1; fill:none" points="9526.76,1445.72 9526.76,1445.72 9601.49,1445.72 9526.76,1445.72 "/>
<path clip-path="url(#clip752)" d="M9601.49 1445.72 L9601.49 1445.72 L9676.21 1445.72 L9676.21 1445.72 L9601.49 1445.72 L9601.49 1445.72  Z" fill="#009af9" fill-rule="evenodd" fill-opacity="1"/>
<polyline clip-path="url(#clip752)" style="stroke:#000000; stroke-linecap:round; stroke-linejoin:round; stroke-width:4; stroke-opacity:1; fill:none" points="9601.49,1445.72 9601.49,1445.72 9676.21,1445.72 9601.49,1445.72 "/>
<path clip-path="url(#clip752)" d="M9676.21 1445.72 L9676.21 1445.72 L9750.94 1445.72 L9750.94 1445.72 L9676.21 1445.72 L9676.21 1445.72  Z" fill="#009af9" fill-rule="evenodd" fill-opacity="1"/>
<polyline clip-path="url(#clip752)" style="stroke:#000000; stroke-linecap:round; stroke-linejoin:round; stroke-width:4; stroke-opacity:1; fill:none" points="9676.21,1445.72 9676.21,1445.72 9750.94,1445.72 9676.21,1445.72 "/>
<path clip-path="url(#clip752)" d="M9750.94 1445.72 L9750.94 1445.72 L9825.67 1445.72 L9825.67 1445.72 L9750.94 1445.72 L9750.94 1445.72  Z" fill="#009af9" fill-rule="evenodd" fill-opacity="1"/>
<polyline clip-path="url(#clip752)" style="stroke:#000000; stroke-linecap:round; stroke-linejoin:round; stroke-width:4; stroke-opacity:1; fill:none" points="9750.94,1445.72 9750.94,1445.72 9825.67,1445.72 9750.94,1445.72 "/>
<path clip-path="url(#clip752)" d="M9825.67 1445.72 L9825.67 1445.72 L9900.4 1445.72 L9900.4 1445.72 L9825.67 1445.72 L9825.67 1445.72  Z" fill="#009af9" fill-rule="evenodd" fill-opacity="1"/>
<polyline clip-path="url(#clip752)" style="stroke:#000000; stroke-linecap:round; stroke-linejoin:round; stroke-width:4; stroke-opacity:1; fill:none" points="9825.67,1445.72 9825.67,1445.72 9900.4,1445.72 9825.67,1445.72 "/>
<path clip-path="url(#clip752)" d="M9900.4 1445.72 L9900.4 1445.72 L9975.13 1445.72 L9975.13 1445.72 L9900.4 1445.72 L9900.4 1445.72  Z" fill="#009af9" fill-rule="evenodd" fill-opacity="1"/>
<polyline clip-path="url(#clip752)" style="stroke:#000000; stroke-linecap:round; stroke-linejoin:round; stroke-width:4; stroke-opacity:1; fill:none" points="9900.4,1445.72 9900.4,1445.72 9975.13,1445.72 9900.4,1445.72 "/>
<path clip-path="url(#clip752)" d="M9975.13 1445.72 L9975.13 1445.72 L10049.9 1445.72 L10049.9 1445.72 L9975.13 1445.72 L9975.13 1445.72  Z" fill="#009af9" fill-rule="evenodd" fill-opacity="1"/>
<polyline clip-path="url(#clip752)" style="stroke:#000000; stroke-linecap:round; stroke-linejoin:round; stroke-width:4; stroke-opacity:1; fill:none" points="9975.13,1445.72 9975.13,1445.72 10049.9,1445.72 9975.13,1445.72 "/>
<path clip-path="url(#clip752)" d="M10049.9 1445.72 L10049.9 1445.72 L10124.6 1445.72 L10124.6 1445.72 L10049.9 1445.72 L10049.9 1445.72  Z" fill="#009af9" fill-rule="evenodd" fill-opacity="1"/>
<polyline clip-path="url(#clip752)" style="stroke:#000000; stroke-linecap:round; stroke-linejoin:round; stroke-width:4; stroke-opacity:1; fill:none" points="10049.9,1445.72 10049.9,1445.72 10124.6,1445.72 10049.9,1445.72 "/>
<path clip-path="url(#clip752)" d="M10124.6 993.136 L10124.6 1445.72 L10199.3 1445.72 L10199.3 993.136 L10124.6 993.136 L10124.6 993.136  Z" fill="#009af9" fill-rule="evenodd" fill-opacity="1"/>
<polyline clip-path="url(#clip752)" style="stroke:#000000; stroke-linecap:round; stroke-linejoin:round; stroke-width:4; stroke-opacity:1; fill:none" points="10124.6,993.136 10124.6,1445.72 10199.3,1445.72 10199.3,993.136 10124.6,993.136 "/>
<path clip-path="url(#clip752)" d="M10199.3 1445.72 L10199.3 1445.72 L10274 1445.72 L10274 1445.72 L10199.3 1445.72 L10199.3 1445.72  Z" fill="#009af9" fill-rule="evenodd" fill-opacity="1"/>
<polyline clip-path="url(#clip752)" style="stroke:#000000; stroke-linecap:round; stroke-linejoin:round; stroke-width:4; stroke-opacity:1; fill:none" points="10199.3,1445.72 10199.3,1445.72 10274,1445.72 10199.3,1445.72 "/>
<path clip-path="url(#clip752)" d="M10274 1445.72 L10274 1445.72 L10348.8 1445.72 L10348.8 1445.72 L10274 1445.72 L10274 1445.72  Z" fill="#009af9" fill-rule="evenodd" fill-opacity="1"/>
<polyline clip-path="url(#clip752)" style="stroke:#000000; stroke-linecap:round; stroke-linejoin:round; stroke-width:4; stroke-opacity:1; fill:none" points="10274,1445.72 10274,1445.72 10348.8,1445.72 10274,1445.72 "/>
<path clip-path="url(#clip752)" d="M10348.8 1445.72 L10348.8 1445.72 L10423.5 1445.72 L10423.5 1445.72 L10348.8 1445.72 L10348.8 1445.72  Z" fill="#009af9" fill-rule="evenodd" fill-opacity="1"/>
<polyline clip-path="url(#clip752)" style="stroke:#000000; stroke-linecap:round; stroke-linejoin:round; stroke-width:4; stroke-opacity:1; fill:none" points="10348.8,1445.72 10348.8,1445.72 10423.5,1445.72 10348.8,1445.72 "/>
<path clip-path="url(#clip752)" d="M10423.5 1445.72 L10423.5 1445.72 L10498.2 1445.72 L10498.2 1445.72 L10423.5 1445.72 L10423.5 1445.72  Z" fill="#009af9" fill-rule="evenodd" fill-opacity="1"/>
<polyline clip-path="url(#clip752)" style="stroke:#000000; stroke-linecap:round; stroke-linejoin:round; stroke-width:4; stroke-opacity:1; fill:none" points="10423.5,1445.72 10423.5,1445.72 10498.2,1445.72 10423.5,1445.72 "/>
<path clip-path="url(#clip752)" d="M10498.2 1445.72 L10498.2 1445.72 L10573 1445.72 L10573 1445.72 L10498.2 1445.72 L10498.2 1445.72  Z" fill="#009af9" fill-rule="evenodd" fill-opacity="1"/>
<polyline clip-path="url(#clip752)" style="stroke:#000000; stroke-linecap:round; stroke-linejoin:round; stroke-width:4; stroke-opacity:1; fill:none" points="10498.2,1445.72 10498.2,1445.72 10573,1445.72 10498.2,1445.72 "/>
<path clip-path="url(#clip752)" d="M10573 1445.72 L10573 1445.72 L10647.7 1445.72 L10647.7 1445.72 L10573 1445.72 L10573 1445.72  Z" fill="#009af9" fill-rule="evenodd" fill-opacity="1"/>
<polyline clip-path="url(#clip752)" style="stroke:#000000; stroke-linecap:round; stroke-linejoin:round; stroke-width:4; stroke-opacity:1; fill:none" points="10573,1445.72 10573,1445.72 10647.7,1445.72 10573,1445.72 "/>
<path clip-path="url(#clip752)" d="M10647.7 1445.72 L10647.7 1445.72 L10722.4 1445.72 L10722.4 1445.72 L10647.7 1445.72 L10647.7 1445.72  Z" fill="#009af9" fill-rule="evenodd" fill-opacity="1"/>
<polyline clip-path="url(#clip752)" style="stroke:#000000; stroke-linecap:round; stroke-linejoin:round; stroke-width:4; stroke-opacity:1; fill:none" points="10647.7,1445.72 10647.7,1445.72 10722.4,1445.72 10647.7,1445.72 "/>
<path clip-path="url(#clip752)" d="M10722.4 1445.72 L10722.4 1445.72 L10797.2 1445.72 L10797.2 1445.72 L10722.4 1445.72 L10722.4 1445.72  Z" fill="#009af9" fill-rule="evenodd" fill-opacity="1"/>
<polyline clip-path="url(#clip752)" style="stroke:#000000; stroke-linecap:round; stroke-linejoin:round; stroke-width:4; stroke-opacity:1; fill:none" points="10722.4,1445.72 10722.4,1445.72 10797.2,1445.72 10722.4,1445.72 "/>
<path clip-path="url(#clip752)" d="M10797.2 1445.72 L10797.2 1445.72 L10871.9 1445.72 L10871.9 1445.72 L10797.2 1445.72 L10797.2 1445.72  Z" fill="#009af9" fill-rule="evenodd" fill-opacity="1"/>
<polyline clip-path="url(#clip752)" style="stroke:#000000; stroke-linecap:round; stroke-linejoin:round; stroke-width:4; stroke-opacity:1; fill:none" points="10797.2,1445.72 10797.2,1445.72 10871.9,1445.72 10797.2,1445.72 "/>
<path clip-path="url(#clip752)" d="M10871.9 1445.72 L10871.9 1445.72 L10946.6 1445.72 L10946.6 1445.72 L10871.9 1445.72 L10871.9 1445.72  Z" fill="#009af9" fill-rule="evenodd" fill-opacity="1"/>
<polyline clip-path="url(#clip752)" style="stroke:#000000; stroke-linecap:round; stroke-linejoin:round; stroke-width:4; stroke-opacity:1; fill:none" points="10871.9,1445.72 10871.9,1445.72 10946.6,1445.72 10871.9,1445.72 "/>
<path clip-path="url(#clip752)" d="M10946.6 1445.72 L10946.6 1445.72 L11021.3 1445.72 L11021.3 1445.72 L10946.6 1445.72 L10946.6 1445.72  Z" fill="#009af9" fill-rule="evenodd" fill-opacity="1"/>
<polyline clip-path="url(#clip752)" style="stroke:#000000; stroke-linecap:round; stroke-linejoin:round; stroke-width:4; stroke-opacity:1; fill:none" points="10946.6,1445.72 10946.6,1445.72 11021.3,1445.72 10946.6,1445.72 "/>
<path clip-path="url(#clip752)" d="M11021.3 1445.72 L11021.3 1445.72 L11096.1 1445.72 L11096.1 1445.72 L11021.3 1445.72 L11021.3 1445.72  Z" fill="#009af9" fill-rule="evenodd" fill-opacity="1"/>
<polyline clip-path="url(#clip752)" style="stroke:#000000; stroke-linecap:round; stroke-linejoin:round; stroke-width:4; stroke-opacity:1; fill:none" points="11021.3,1445.72 11021.3,1445.72 11096.1,1445.72 11021.3,1445.72 "/>
<path clip-path="url(#clip752)" d="M11096.1 1445.72 L11096.1 1445.72 L11170.8 1445.72 L11170.8 1445.72 L11096.1 1445.72 L11096.1 1445.72  Z" fill="#009af9" fill-rule="evenodd" fill-opacity="1"/>
<polyline clip-path="url(#clip752)" style="stroke:#000000; stroke-linecap:round; stroke-linejoin:round; stroke-width:4; stroke-opacity:1; fill:none" points="11096.1,1445.72 11096.1,1445.72 11170.8,1445.72 11096.1,1445.72 "/>
<path clip-path="url(#clip752)" d="M11170.8 1445.72 L11170.8 1445.72 L11245.5 1445.72 L11245.5 1445.72 L11170.8 1445.72 L11170.8 1445.72  Z" fill="#009af9" fill-rule="evenodd" fill-opacity="1"/>
<polyline clip-path="url(#clip752)" style="stroke:#000000; stroke-linecap:round; stroke-linejoin:round; stroke-width:4; stroke-opacity:1; fill:none" points="11170.8,1445.72 11170.8,1445.72 11245.5,1445.72 11170.8,1445.72 "/>
<path clip-path="url(#clip752)" d="M11245.5 1445.72 L11245.5 1445.72 L11320.3 1445.72 L11320.3 1445.72 L11245.5 1445.72 L11245.5 1445.72  Z" fill="#009af9" fill-rule="evenodd" fill-opacity="1"/>
<polyline clip-path="url(#clip752)" style="stroke:#000000; stroke-linecap:round; stroke-linejoin:round; stroke-width:4; stroke-opacity:1; fill:none" points="11245.5,1445.72 11245.5,1445.72 11320.3,1445.72 11245.5,1445.72 "/>
<path clip-path="url(#clip752)" d="M11320.3 1445.72 L11320.3 1445.72 L11395 1445.72 L11395 1445.72 L11320.3 1445.72 L11320.3 1445.72  Z" fill="#009af9" fill-rule="evenodd" fill-opacity="1"/>
<polyline clip-path="url(#clip752)" style="stroke:#000000; stroke-linecap:round; stroke-linejoin:round; stroke-width:4; stroke-opacity:1; fill:none" points="11320.3,1445.72 11320.3,1445.72 11395,1445.72 11320.3,1445.72 "/>
<path clip-path="url(#clip752)" d="M11395 1445.72 L11395 1445.72 L11469.7 1445.72 L11469.7 1445.72 L11395 1445.72 L11395 1445.72  Z" fill="#009af9" fill-rule="evenodd" fill-opacity="1"/>
<polyline clip-path="url(#clip752)" style="stroke:#000000; stroke-linecap:round; stroke-linejoin:round; stroke-width:4; stroke-opacity:1; fill:none" points="11395,1445.72 11395,1445.72 11469.7,1445.72 11395,1445.72 "/>
<path clip-path="url(#clip752)" d="M11469.7 1445.72 L11469.7 1445.72 L11544.4 1445.72 L11544.4 1445.72 L11469.7 1445.72 L11469.7 1445.72  Z" fill="#009af9" fill-rule="evenodd" fill-opacity="1"/>
<polyline clip-path="url(#clip752)" style="stroke:#000000; stroke-linecap:round; stroke-linejoin:round; stroke-width:4; stroke-opacity:1; fill:none" points="11469.7,1445.72 11469.7,1445.72 11544.4,1445.72 11469.7,1445.72 "/>
<path clip-path="url(#clip752)" d="M11544.4 1445.72 L11544.4 1445.72 L11619.2 1445.72 L11619.2 1445.72 L11544.4 1445.72 L11544.4 1445.72  Z" fill="#009af9" fill-rule="evenodd" fill-opacity="1"/>
<polyline clip-path="url(#clip752)" style="stroke:#000000; stroke-linecap:round; stroke-linejoin:round; stroke-width:4; stroke-opacity:1; fill:none" points="11544.4,1445.72 11544.4,1445.72 11619.2,1445.72 11544.4,1445.72 "/>
<path clip-path="url(#clip752)" d="M11619.2 1445.72 L11619.2 1445.72 L11693.9 1445.72 L11693.9 1445.72 L11619.2 1445.72 L11619.2 1445.72  Z" fill="#009af9" fill-rule="evenodd" fill-opacity="1"/>
<polyline clip-path="url(#clip752)" style="stroke:#000000; stroke-linecap:round; stroke-linejoin:round; stroke-width:4; stroke-opacity:1; fill:none" points="11619.2,1445.72 11619.2,1445.72 11693.9,1445.72 11619.2,1445.72 "/>
<path clip-path="url(#clip752)" d="M11693.9 1445.72 L11693.9 1445.72 L11768.6 1445.72 L11768.6 1445.72 L11693.9 1445.72 L11693.9 1445.72  Z" fill="#009af9" fill-rule="evenodd" fill-opacity="1"/>
<polyline clip-path="url(#clip752)" style="stroke:#000000; stroke-linecap:round; stroke-linejoin:round; stroke-width:4; stroke-opacity:1; fill:none" points="11693.9,1445.72 11693.9,1445.72 11768.6,1445.72 11693.9,1445.72 "/>
<path clip-path="url(#clip752)" d="M11768.6 1445.72 L11768.6 1445.72 L11843.4 1445.72 L11843.4 1445.72 L11768.6 1445.72 L11768.6 1445.72  Z" fill="#009af9" fill-rule="evenodd" fill-opacity="1"/>
<polyline clip-path="url(#clip752)" style="stroke:#000000; stroke-linecap:round; stroke-linejoin:round; stroke-width:4; stroke-opacity:1; fill:none" points="11768.6,1445.72 11768.6,1445.72 11843.4,1445.72 11768.6,1445.72 "/>
<path clip-path="url(#clip752)" d="M11843.4 1445.72 L11843.4 1445.72 L11918.1 1445.72 L11918.1 1445.72 L11843.4 1445.72 L11843.4 1445.72  Z" fill="#009af9" fill-rule="evenodd" fill-opacity="1"/>
<polyline clip-path="url(#clip752)" style="stroke:#000000; stroke-linecap:round; stroke-linejoin:round; stroke-width:4; stroke-opacity:1; fill:none" points="11843.4,1445.72 11843.4,1445.72 11918.1,1445.72 11843.4,1445.72 "/>
<path clip-path="url(#clip752)" d="M11918.1 1445.72 L11918.1 1445.72 L11992.8 1445.72 L11992.8 1445.72 L11918.1 1445.72 L11918.1 1445.72  Z" fill="#009af9" fill-rule="evenodd" fill-opacity="1"/>
<polyline clip-path="url(#clip752)" style="stroke:#000000; stroke-linecap:round; stroke-linejoin:round; stroke-width:4; stroke-opacity:1; fill:none" points="11918.1,1445.72 11918.1,1445.72 11992.8,1445.72 11918.1,1445.72 "/>
<path clip-path="url(#clip752)" d="M11992.8 1445.72 L11992.8 1445.72 L12067.5 1445.72 L12067.5 1445.72 L11992.8 1445.72 L11992.8 1445.72  Z" fill="#009af9" fill-rule="evenodd" fill-opacity="1"/>
<polyline clip-path="url(#clip752)" style="stroke:#000000; stroke-linecap:round; stroke-linejoin:round; stroke-width:4; stroke-opacity:1; fill:none" points="11992.8,1445.72 11992.8,1445.72 12067.5,1445.72 11992.8,1445.72 "/>
<path clip-path="url(#clip752)" d="M12067.5 1445.72 L12067.5 1445.72 L12142.3 1445.72 L12142.3 1445.72 L12067.5 1445.72 L12067.5 1445.72  Z" fill="#009af9" fill-rule="evenodd" fill-opacity="1"/>
<polyline clip-path="url(#clip752)" style="stroke:#000000; stroke-linecap:round; stroke-linejoin:round; stroke-width:4; stroke-opacity:1; fill:none" points="12067.5,1445.72 12067.5,1445.72 12142.3,1445.72 12067.5,1445.72 "/>
<path clip-path="url(#clip752)" d="M12142.3 1445.72 L12142.3 1445.72 L12217 1445.72 L12217 1445.72 L12142.3 1445.72 L12142.3 1445.72  Z" fill="#009af9" fill-rule="evenodd" fill-opacity="1"/>
<polyline clip-path="url(#clip752)" style="stroke:#000000; stroke-linecap:round; stroke-linejoin:round; stroke-width:4; stroke-opacity:1; fill:none" points="12142.3,1445.72 12142.3,1445.72 12217,1445.72 12142.3,1445.72 "/>
<path clip-path="url(#clip752)" d="M12217 1445.72 L12217 1445.72 L12291.7 1445.72 L12291.7 1445.72 L12217 1445.72 L12217 1445.72  Z" fill="#009af9" fill-rule="evenodd" fill-opacity="1"/>
<polyline clip-path="url(#clip752)" style="stroke:#000000; stroke-linecap:round; stroke-linejoin:round; stroke-width:4; stroke-opacity:1; fill:none" points="12217,1445.72 12217,1445.72 12291.7,1445.72 12217,1445.72 "/>
<path clip-path="url(#clip752)" d="M12291.7 1445.72 L12291.7 1445.72 L12366.5 1445.72 L12366.5 1445.72 L12291.7 1445.72 L12291.7 1445.72  Z" fill="#009af9" fill-rule="evenodd" fill-opacity="1"/>
<polyline clip-path="url(#clip752)" style="stroke:#000000; stroke-linecap:round; stroke-linejoin:round; stroke-width:4; stroke-opacity:1; fill:none" points="12291.7,1445.72 12291.7,1445.72 12366.5,1445.72 12291.7,1445.72 "/>
<path clip-path="url(#clip752)" d="M12366.5 1445.72 L12366.5 1445.72 L12441.2 1445.72 L12441.2 1445.72 L12366.5 1445.72 L12366.5 1445.72  Z" fill="#009af9" fill-rule="evenodd" fill-opacity="1"/>
<polyline clip-path="url(#clip752)" style="stroke:#000000; stroke-linecap:round; stroke-linejoin:round; stroke-width:4; stroke-opacity:1; fill:none" points="12366.5,1445.72 12366.5,1445.72 12441.2,1445.72 12366.5,1445.72 "/>
<path clip-path="url(#clip752)" d="M12441.2 1445.72 L12441.2 1445.72 L12515.9 1445.72 L12515.9 1445.72 L12441.2 1445.72 L12441.2 1445.72  Z" fill="#009af9" fill-rule="evenodd" fill-opacity="1"/>
<polyline clip-path="url(#clip752)" style="stroke:#000000; stroke-linecap:round; stroke-linejoin:round; stroke-width:4; stroke-opacity:1; fill:none" points="12441.2,1445.72 12441.2,1445.72 12515.9,1445.72 12441.2,1445.72 "/>
<path clip-path="url(#clip752)" d="M12515.9 1445.72 L12515.9 1445.72 L12590.7 1445.72 L12590.7 1445.72 L12515.9 1445.72 L12515.9 1445.72  Z" fill="#009af9" fill-rule="evenodd" fill-opacity="1"/>
<polyline clip-path="url(#clip752)" style="stroke:#000000; stroke-linecap:round; stroke-linejoin:round; stroke-width:4; stroke-opacity:1; fill:none" points="12515.9,1445.72 12515.9,1445.72 12590.7,1445.72 12515.9,1445.72 "/>
<path clip-path="url(#clip752)" d="M12590.7 993.136 L12590.7 1445.72 L12665.4 1445.72 L12665.4 993.136 L12590.7 993.136 L12590.7 993.136  Z" fill="#009af9" fill-rule="evenodd" fill-opacity="1"/>
<polyline clip-path="url(#clip752)" style="stroke:#000000; stroke-linecap:round; stroke-linejoin:round; stroke-width:4; stroke-opacity:1; fill:none" points="12590.7,993.136 12590.7,1445.72 12665.4,1445.72 12665.4,993.136 12590.7,993.136 "/>
<circle clip-path="url(#clip752)" style="fill:#009af9; stroke:none; fill-opacity:0" cx="820.808" cy="87.9763" r="2"/>
<circle clip-path="url(#clip752)" style="fill:#009af9; stroke:none; fill-opacity:0" cx="895.537" cy="87.9763" r="2"/>
<circle clip-path="url(#clip752)" style="fill:#009af9; stroke:none; fill-opacity:0" cx="970.266" cy="87.9763" r="2"/>
<circle clip-path="url(#clip752)" style="fill:#009af9; stroke:none; fill-opacity:0" cx="1045" cy="87.9763" r="2"/>
<circle clip-path="url(#clip752)" style="fill:#009af9; stroke:none; fill-opacity:0" cx="1119.72" cy="87.9763" r="2"/>
<circle clip-path="url(#clip752)" style="fill:#009af9; stroke:none; fill-opacity:0" cx="1194.45" cy="87.9763" r="2"/>
<circle clip-path="url(#clip752)" style="fill:#009af9; stroke:none; fill-opacity:0" cx="1269.18" cy="87.9763" r="2"/>
<circle clip-path="url(#clip752)" style="fill:#009af9; stroke:none; fill-opacity:0" cx="1343.91" cy="540.556" r="2"/>
<circle clip-path="url(#clip752)" style="fill:#009af9; stroke:none; fill-opacity:0" cx="1418.64" cy="87.9763" r="2"/>
<circle clip-path="url(#clip752)" style="fill:#009af9; stroke:none; fill-opacity:0" cx="1493.37" cy="540.556" r="2"/>
<circle clip-path="url(#clip752)" style="fill:#009af9; stroke:none; fill-opacity:0" cx="1568.1" cy="87.9763" r="2"/>
<circle clip-path="url(#clip752)" style="fill:#009af9; stroke:none; fill-opacity:0" cx="1642.83" cy="540.556" r="2"/>
<circle clip-path="url(#clip752)" style="fill:#009af9; stroke:none; fill-opacity:0" cx="1717.56" cy="540.556" r="2"/>
<circle clip-path="url(#clip752)" style="fill:#009af9; stroke:none; fill-opacity:0" cx="1792.29" cy="540.556" r="2"/>
<circle clip-path="url(#clip752)" style="fill:#009af9; stroke:none; fill-opacity:0" cx="1867.02" cy="540.556" r="2"/>
<circle clip-path="url(#clip752)" style="fill:#009af9; stroke:none; fill-opacity:0" cx="1941.75" cy="540.556" r="2"/>
<circle clip-path="url(#clip752)" style="fill:#009af9; stroke:none; fill-opacity:0" cx="2016.47" cy="540.556" r="2"/>
<circle clip-path="url(#clip752)" style="fill:#009af9; stroke:none; fill-opacity:0" cx="2091.2" cy="540.556" r="2"/>
<circle clip-path="url(#clip752)" style="fill:#009af9; stroke:none; fill-opacity:0" cx="2165.93" cy="540.556" r="2"/>
<circle clip-path="url(#clip752)" style="fill:#009af9; stroke:none; fill-opacity:0" cx="2240.66" cy="540.556" r="2"/>
<circle clip-path="url(#clip752)" style="fill:#009af9; stroke:none; fill-opacity:0" cx="2315.39" cy="993.136" r="2"/>
<polyline clip-path="url(#clip752)" style="stroke:#e26f46; stroke-linecap:round; stroke-linejoin:round; stroke-width:8; stroke-opacity:1; fill:none" points="766.815,2925.65 766.815,-1391.96 "/>
<polyline clip-path="url(#clip752)" style="stroke:#e26f46; stroke-linecap:round; stroke-linejoin:round; stroke-width:8; stroke-opacity:1; fill:none" points="796.906,2925.65 796.906,-1391.96 "/>
<path clip-path="url(#clip750)" d="M1800.3 250.738 L2278.03 250.738 L2278.03 95.2176 L1800.3 95.2176  Z" fill="#ffffff" fill-rule="evenodd" fill-opacity="1"/>
<polyline clip-path="url(#clip750)" style="stroke:#000000; stroke-linecap:round; stroke-linejoin:round; stroke-width:4; stroke-opacity:1; fill:none" points="1800.3,250.738 2278.03,250.738 2278.03,95.2176 1800.3,95.2176 1800.3,250.738 "/>
<path clip-path="url(#clip750)" d="M1825.21 167.794 L1974.67 167.794 L1974.67 126.322 L1825.21 126.322 L1825.21 167.794  Z" fill="#009af9" fill-rule="evenodd" fill-opacity="1"/>
<polyline clip-path="url(#clip750)" style="stroke:#000000; stroke-linecap:round; stroke-linejoin:round; stroke-width:4; stroke-opacity:1; fill:none" points="1825.21,167.794 1974.67,167.794 1974.67,126.322 1825.21,126.322 1825.21,167.794 "/>
<path clip-path="url(#clip750)" d="M2027.45 132.44 L2027.45 137.37 Q2025.09 135.171 2022.4 134.083 Q2019.74 132.995 2016.73 132.995 Q2010.8 132.995 2007.66 136.629 Q2004.51 140.24 2004.51 147.092 Q2004.51 153.921 2007.66 157.555 Q2010.8 161.166 2016.73 161.166 Q2019.74 161.166 2022.4 160.078 Q2025.09 158.99 2027.45 156.791 L2027.45 161.676 Q2024.99 163.342 2022.24 164.176 Q2019.51 165.009 2016.45 165.009 Q2008.6 165.009 2004.09 160.217 Q1999.58 155.402 1999.58 147.092 Q1999.58 138.759 2004.09 133.967 Q2008.6 129.153 2016.45 129.153 Q2019.55 129.153 2022.28 129.986 Q2025.04 130.796 2027.45 132.44 Z" fill="#000000" fill-rule="evenodd" fill-opacity="1" /><path clip-path="url(#clip750)" d="M2044.53 141.398 Q2041.1 141.398 2039.11 144.083 Q2037.12 146.745 2037.12 151.398 Q2037.12 156.051 2039.09 158.736 Q2041.08 161.398 2044.53 161.398 Q2047.93 161.398 2049.92 158.713 Q2051.91 156.027 2051.91 151.398 Q2051.91 146.791 2049.92 144.106 Q2047.93 141.398 2044.53 141.398 M2044.53 137.787 Q2050.09 137.787 2053.26 141.398 Q2056.43 145.009 2056.43 151.398 Q2056.43 157.764 2053.26 161.398 Q2050.09 165.009 2044.53 165.009 Q2038.95 165.009 2035.78 161.398 Q2032.63 157.764 2032.63 151.398 Q2032.63 145.009 2035.78 141.398 Q2038.95 137.787 2044.53 137.787 Z" fill="#000000" fill-rule="evenodd" fill-opacity="1" /><path clip-path="url(#clip750)" d="M2085.04 148.689 L2085.04 164.338 L2080.78 164.338 L2080.78 148.828 Q2080.78 145.148 2079.34 143.319 Q2077.91 141.49 2075.04 141.49 Q2071.59 141.49 2069.6 143.69 Q2067.61 145.889 2067.61 149.685 L2067.61 164.338 L2063.33 164.338 L2063.33 138.412 L2067.61 138.412 L2067.61 142.44 Q2069.14 140.102 2071.2 138.944 Q2073.28 137.787 2075.99 137.787 Q2080.46 137.787 2082.75 140.565 Q2085.04 143.319 2085.04 148.689 Z" fill="#000000" fill-rule="evenodd" fill-opacity="1" /><path clip-path="url(#clip750)" d="M2097.75 131.051 L2097.75 138.412 L2106.52 138.412 L2106.52 141.722 L2097.75 141.722 L2097.75 155.796 Q2097.75 158.967 2098.6 159.87 Q2099.48 160.773 2102.15 160.773 L2106.52 160.773 L2106.52 164.338 L2102.15 164.338 Q2097.22 164.338 2095.34 162.509 Q2093.47 160.657 2093.47 155.796 L2093.47 141.722 L2090.34 141.722 L2090.34 138.412 L2093.47 138.412 L2093.47 131.051 L2097.75 131.051 Z" fill="#000000" fill-rule="evenodd" fill-opacity="1" /><path clip-path="url(#clip750)" d="M2112.12 138.412 L2116.38 138.412 L2116.38 164.338 L2112.12 164.338 L2112.12 138.412 M2112.12 128.319 L2116.38 128.319 L2116.38 133.713 L2112.12 133.713 L2112.12 128.319 Z" fill="#000000" fill-rule="evenodd" fill-opacity="1" /><path clip-path="url(#clip750)" d="M2146.84 148.689 L2146.84 164.338 L2142.59 164.338 L2142.59 148.828 Q2142.59 145.148 2141.15 143.319 Q2139.71 141.49 2136.84 141.49 Q2133.4 141.49 2131.4 143.69 Q2129.41 145.889 2129.41 149.685 L2129.41 164.338 L2125.13 164.338 L2125.13 138.412 L2129.41 138.412 L2129.41 142.44 Q2130.94 140.102 2133 138.944 Q2135.09 137.787 2137.79 137.787 Q2142.26 137.787 2144.55 140.565 Q2146.84 143.319 2146.84 148.689 Z" fill="#000000" fill-rule="evenodd" fill-opacity="1" /><path clip-path="url(#clip750)" d="M2154.9 154.106 L2154.9 138.412 L2159.16 138.412 L2159.16 153.944 Q2159.16 157.625 2160.59 159.476 Q2162.03 161.305 2164.9 161.305 Q2168.35 161.305 2170.34 159.106 Q2172.35 156.907 2172.35 153.111 L2172.35 138.412 L2176.61 138.412 L2176.61 164.338 L2172.35 164.338 L2172.35 160.356 Q2170.8 162.717 2168.74 163.875 Q2166.71 165.009 2164 165.009 Q2159.53 165.009 2157.21 162.231 Q2154.9 159.453 2154.9 154.106 M2165.62 137.787 L2165.62 137.787 Z" fill="#000000" fill-rule="evenodd" fill-opacity="1" /><path clip-path="url(#clip750)" d="M2184.95 154.106 L2184.95 138.412 L2189.21 138.412 L2189.21 153.944 Q2189.21 157.625 2190.64 159.476 Q2192.08 161.305 2194.95 161.305 Q2198.4 161.305 2200.39 159.106 Q2202.4 156.907 2202.4 153.111 L2202.4 138.412 L2206.66 138.412 L2206.66 164.338 L2202.4 164.338 L2202.4 160.356 Q2200.85 162.717 2198.79 163.875 Q2196.75 165.009 2194.04 165.009 Q2189.58 165.009 2187.26 162.231 Q2184.95 159.453 2184.95 154.106 M2195.66 137.787 L2195.66 137.787 Z" fill="#000000" fill-rule="evenodd" fill-opacity="1" /><path clip-path="url(#clip750)" d="M2235.62 143.389 Q2237.21 140.518 2239.44 139.153 Q2241.66 137.787 2244.67 137.787 Q2248.72 137.787 2250.92 140.634 Q2253.12 143.458 2253.12 148.689 L2253.12 164.338 L2248.83 164.338 L2248.83 148.828 Q2248.83 145.102 2247.52 143.296 Q2246.2 141.49 2243.49 141.49 Q2240.18 141.49 2238.26 143.69 Q2236.33 145.889 2236.33 149.685 L2236.33 164.338 L2232.05 164.338 L2232.05 148.828 Q2232.05 145.078 2230.73 143.296 Q2229.41 141.49 2226.66 141.49 Q2223.39 141.49 2221.47 143.713 Q2219.55 145.912 2219.55 149.685 L2219.55 164.338 L2215.27 164.338 L2215.27 138.412 L2219.55 138.412 L2219.55 142.44 Q2221.01 140.055 2223.05 138.921 Q2225.08 137.787 2227.89 137.787 Q2230.71 137.787 2232.68 139.222 Q2234.67 140.657 2235.62 143.389 Z" fill="#000000" fill-rule="evenodd" fill-opacity="1" /><polyline clip-path="url(#clip750)" style="stroke:#e26f46; stroke-linecap:round; stroke-linejoin:round; stroke-width:8; stroke-opacity:1; fill:none" points="1825.21,198.898 1974.67,198.898 "/>
<path clip-path="url(#clip750)" d="M1999.58 181.618 L2004.25 181.618 L2004.25 216.178 L1999.58 216.178 L1999.58 181.618 Z" fill="#000000" fill-rule="evenodd" fill-opacity="1" /><path clip-path="url(#clip750)" d="M2029.9 191.016 L2029.9 195.043 Q2028.1 194.117 2026.15 193.655 Q2024.21 193.192 2022.12 193.192 Q2018.95 193.192 2017.35 194.164 Q2015.78 195.136 2015.78 197.08 Q2015.78 198.562 2016.91 199.418 Q2018.05 200.252 2021.47 201.016 L2022.93 201.34 Q2027.47 202.312 2029.37 204.094 Q2031.29 205.854 2031.29 209.025 Q2031.29 212.636 2028.42 214.742 Q2025.57 216.849 2020.57 216.849 Q2018.49 216.849 2016.22 216.432 Q2013.97 216.039 2011.47 215.228 L2011.47 210.83 Q2013.84 212.057 2016.13 212.682 Q2018.42 213.284 2020.66 213.284 Q2023.67 213.284 2025.29 212.266 Q2026.91 211.224 2026.91 209.349 Q2026.91 207.613 2025.73 206.687 Q2024.58 205.761 2020.62 204.904 L2019.14 204.557 Q2015.18 203.724 2013.42 202.011 Q2011.66 200.275 2011.66 197.266 Q2011.66 193.608 2014.25 191.618 Q2016.85 189.627 2021.61 189.627 Q2023.97 189.627 2026.06 189.974 Q2028.14 190.321 2029.9 191.016 Z" fill="#000000" fill-rule="evenodd" fill-opacity="1" /><path clip-path="url(#clip750)" d="M2048.12 193.238 Q2044.69 193.238 2042.7 195.923 Q2040.71 198.585 2040.71 203.238 Q2040.71 207.891 2042.68 210.576 Q2044.67 213.238 2048.12 213.238 Q2051.52 213.238 2053.51 210.553 Q2055.5 207.867 2055.5 203.238 Q2055.5 198.631 2053.51 195.946 Q2051.52 193.238 2048.12 193.238 M2048.12 189.627 Q2053.67 189.627 2056.84 193.238 Q2060.02 196.849 2060.02 203.238 Q2060.02 209.604 2056.84 213.238 Q2053.67 216.849 2048.12 216.849 Q2042.54 216.849 2039.37 213.238 Q2036.22 209.604 2036.22 203.238 Q2036.22 196.849 2039.37 193.238 Q2042.54 189.627 2048.12 189.627 Z" fill="#000000" fill-rule="evenodd" fill-opacity="1" /><path clip-path="url(#clip750)" d="M2067.08 180.159 L2071.34 180.159 L2071.34 216.178 L2067.08 216.178 L2067.08 180.159 Z" fill="#000000" fill-rule="evenodd" fill-opacity="1" /><path clip-path="url(#clip750)" d="M2092.03 203.145 Q2086.87 203.145 2084.88 204.326 Q2082.89 205.506 2082.89 208.354 Q2082.89 210.622 2084.37 211.965 Q2085.87 213.284 2088.44 213.284 Q2091.98 213.284 2094.11 210.784 Q2096.27 208.261 2096.27 204.094 L2096.27 203.145 L2092.03 203.145 M2100.53 201.386 L2100.53 216.178 L2096.27 216.178 L2096.27 212.242 Q2094.81 214.603 2092.63 215.738 Q2090.46 216.849 2087.31 216.849 Q2083.33 216.849 2080.97 214.627 Q2078.63 212.381 2078.63 208.631 Q2078.63 204.256 2081.54 202.034 Q2084.48 199.812 2090.29 199.812 L2096.27 199.812 L2096.27 199.395 Q2096.27 196.455 2094.32 194.858 Q2092.4 193.238 2088.9 193.238 Q2086.68 193.238 2084.58 193.77 Q2082.47 194.303 2080.53 195.367 L2080.53 191.432 Q2082.86 190.53 2085.06 190.09 Q2087.26 189.627 2089.34 189.627 Q2094.97 189.627 2097.75 192.543 Q2100.53 195.46 2100.53 201.386 Z" fill="#000000" fill-rule="evenodd" fill-opacity="1" /><path clip-path="url(#clip750)" d="M2113.51 182.891 L2113.51 190.252 L2122.28 190.252 L2122.28 193.562 L2113.51 193.562 L2113.51 207.636 Q2113.51 210.807 2114.37 211.71 Q2115.25 212.613 2117.91 212.613 L2122.28 212.613 L2122.28 216.178 L2117.91 216.178 Q2112.98 216.178 2111.1 214.349 Q2109.23 212.497 2109.23 207.636 L2109.23 193.562 L2106.1 193.562 L2106.1 190.252 L2109.23 190.252 L2109.23 182.891 L2113.51 182.891 Z" fill="#000000" fill-rule="evenodd" fill-opacity="1" /><path clip-path="url(#clip750)" d="M2150.06 202.15 L2150.06 204.233 L2130.48 204.233 Q2130.76 208.631 2133.12 210.946 Q2135.5 213.238 2139.74 213.238 Q2142.19 213.238 2144.48 212.636 Q2146.8 212.034 2149.07 210.83 L2149.07 214.858 Q2146.77 215.83 2144.37 216.34 Q2141.96 216.849 2139.48 216.849 Q2133.28 216.849 2129.65 213.238 Q2126.03 209.627 2126.03 203.469 Q2126.03 197.104 2129.46 193.377 Q2132.91 189.627 2138.74 189.627 Q2143.97 189.627 2147.01 193.006 Q2150.06 196.363 2150.06 202.15 M2145.8 200.9 Q2145.76 197.405 2143.84 195.321 Q2141.94 193.238 2138.79 193.238 Q2135.22 193.238 2133.07 195.252 Q2130.94 197.266 2130.62 200.923 L2145.8 200.9 Z" fill="#000000" fill-rule="evenodd" fill-opacity="1" /><path clip-path="url(#clip750)" d="M2174.11 194.187 L2174.11 180.159 L2178.37 180.159 L2178.37 216.178 L2174.11 216.178 L2174.11 212.289 Q2172.77 214.603 2170.71 215.738 Q2168.67 216.849 2165.8 216.849 Q2161.1 216.849 2158.14 213.099 Q2155.2 209.349 2155.2 203.238 Q2155.2 197.127 2158.14 193.377 Q2161.1 189.627 2165.8 189.627 Q2168.67 189.627 2170.71 190.761 Q2172.77 191.872 2174.11 194.187 M2159.6 203.238 Q2159.6 207.937 2161.52 210.622 Q2163.46 213.284 2166.84 213.284 Q2170.22 213.284 2172.17 210.622 Q2174.11 207.937 2174.11 203.238 Q2174.11 198.539 2172.17 195.877 Q2170.22 193.192 2166.84 193.192 Q2163.46 193.192 2161.52 195.877 Q2159.6 198.539 2159.6 203.238 Z" fill="#000000" fill-rule="evenodd" fill-opacity="1" /></svg>
